<?xml version="1.0" encoding="UTF-8" standalone="no"?>
<!DOCTYPE svg PUBLIC "-//W3C//DTD SVG 1.1//EN"
 "http://www.w3.org/Graphics/SVG/1.1/DTD/svg11.dtd">
<!-- Generated by graphviz version 2.26.3 (20100126.1600)
 -->
<!-- Title: DGtal::DigitalSurfaceConvolver&lt; TFunctor, TKernelFunctor, TKSpace, TDigitalKernel, 2 &gt; Pages: 1 -->
<svg width="334pt" height="300pt"
 viewBox="0.00 0.00 334.00 300.00" xmlns="http://www.w3.org/2000/svg" xmlns:xlink="http://www.w3.org/1999/xlink">
<g id="graph1" class="graph" transform="scale(1 1) rotate(0) translate(4 296)">
<title>DGtal::DigitalSurfaceConvolver&lt; TFunctor, TKernelFunctor, TKSpace, TDigitalKernel, 2 &gt;</title>
<polygon fill="white" stroke="white" points="-4,5 -4,-296 331,-296 331,5 -4,5"/>
<!-- Node1 -->
<g id="node1" class="node"><title>Node1</title>
<polygon fill="#bfbfbf" stroke="black" points="90,-0.5 90,-47.5 254,-47.5 254,-0.5 90,-0.5"/>
<text text-anchor="start" x="98" y="-34.5" font-family="FreeSans" font-size="10.00">DGtal::DigitalSurfaceConvolver</text>
<text text-anchor="start" x="98" y="-21.5" font-family="FreeSans" font-size="10.00">&lt; TFunctor, TKernelFunctor,</text>
<text text-anchor="middle" x="172" y="-8.5" font-family="FreeSans" font-size="10.00"> TKSpace, TDigitalKernel, 2 &gt;</text>
</g>
<!-- Node2 -->
<g id="node2" class="node"><title>Node2</title>
<polygon fill="white" stroke="#bfbfbf" points="0,-105.5 0,-126.5 148,-126.5 148,-105.5 0,-105.5"/>
<text text-anchor="middle" x="74" y="-113.5" font-family="FreeSans" font-size="10.00">std::vector&lt; PairIterators &gt;</text>
</g>
<!-- Node2&#45;&gt;Node1 -->
<g id="edge2" class="edge"><title>Node2&#45;&gt;Node1</title>
<path fill="none" stroke="#9a32cd" stroke-dasharray="5,2" d="M92.5874,-98.5506C107.892,-84.1834 129.743,-63.6701 146.651,-47.797"/>
<polygon fill="#9a32cd" stroke="#9a32cd" points="90.1371,-96.0503 85.2418,-105.446 94.9281,-101.154 90.1371,-96.0503"/>
<text text-anchor="middle" x="150.5" y="-70.5" font-family="FreeSans" font-size="10.00"> myMasks</text>
</g>
<!-- Node3 -->
<g id="node4" class="node"><title>Node3</title>
<a xlink:title="STL class. ">
<polygon fill="white" stroke="#bfbfbf" points="26.5,-191.5 26.5,-212.5 121.5,-212.5 121.5,-191.5 26.5,-191.5"/>
<text text-anchor="middle" x="74" y="-199.5" font-family="FreeSans" font-size="10.00">std::vector&lt; T &gt;</text>
</a>
</g>
<!-- Node3&#45;&gt;Node2 -->
<g id="edge4" class="edge"><title>Node3&#45;&gt;Node2</title>
<path fill="none" stroke="orange" stroke-dasharray="5,2" d="M74,-181.256C74,-164.026 74,-140.215 74,-126.632"/>
<polygon fill="orange" stroke="orange" points="70.5001,-181.455 74,-191.455 77.5001,-181.455 70.5001,-181.455"/>
<text text-anchor="middle" x="116" y="-156.5" font-family="FreeSans" font-size="10.00"> &lt; PairIterators &gt;</text>
</g>
<!-- Node4 -->
<g id="node6" class="node"><title>Node4</title>
<polygon fill="white" stroke="#bfbfbf" points="59.5,-270.5 59.5,-291.5 88.5,-291.5 88.5,-270.5 59.5,-270.5"/>
<text text-anchor="middle" x="74" y="-278.5" font-family="FreeSans" font-size="10.00">T</text>
</g>
<!-- Node4&#45;&gt;Node3 -->
<g id="edge6" class="edge"><title>Node4&#45;&gt;Node3</title>
<path fill="none" stroke="#9a32cd" stroke-dasharray="5,2" d="M74,-260.284C74,-245.031 74,-224.907 74,-212.738"/>
<polygon fill="#9a32cd" stroke="#9a32cd" points="70.5001,-260.346 74,-270.346 77.5001,-260.346 70.5001,-260.346"/>
<text text-anchor="middle" x="98.5" y="-242.5" font-family="FreeSans" font-size="10.00"> elements</text>
</g>
<!-- Node5 -->
<g id="node8" class="node"><title>Node5</title>
<a xlink:href="structDGtal_1_1CanonicSCellEmbedder.html" target="_top" xlink:title="DGtal::CanonicSCellEmbedder\l\&lt; KSpace \&gt;">
<polygon fill="white" stroke="black" points="165.5,-99 165.5,-133 326.5,-133 326.5,-99 165.5,-99"/>
<text text-anchor="start" x="173.5" y="-120" font-family="FreeSans" font-size="10.00">DGtal::CanonicSCellEmbedder</text>
<text text-anchor="middle" x="246" y="-107" font-family="FreeSans" font-size="10.00">&lt; KSpace &gt;</text>
</a>
</g>
<!-- Node5&#45;&gt;Node1 -->
<g id="edge8" class="edge"><title>Node5&#45;&gt;Node1</title>
<path fill="none" stroke="#9a32cd" stroke-dasharray="5,2" d="M225.724,-90.7922C214.945,-77.3916 201.768,-61.0094 191.162,-47.8232"/>
<polygon fill="#9a32cd" stroke="#9a32cd" points="223.086,-93.097 232.081,-98.6955 228.541,-88.7097 223.086,-93.097"/>
<text text-anchor="middle" x="249" y="-70.5" font-family="FreeSans" font-size="10.00"> myEmbedder</text>
</g>
<!-- Node6 -->
<g id="node10" class="node"><title>Node6</title>
<a xlink:href="structDGtal_1_1CanonicSCellEmbedder.html" target="_top" xlink:title="Aim: A trivial embedder for signed cell, which corresponds to the canonic injection of cell centroids...">
<polygon fill="white" stroke="black" points="165.5,-185 165.5,-219 326.5,-219 326.5,-185 165.5,-185"/>
<text text-anchor="start" x="173.5" y="-206" font-family="FreeSans" font-size="10.00">DGtal::CanonicSCellEmbedder</text>
<text text-anchor="middle" x="246" y="-193" font-family="FreeSans" font-size="10.00">&lt; TKSpace &gt;</text>
</a>
</g>
<!-- Node6&#45;&gt;Node5 -->
<g id="edge10" class="edge"><title>Node6&#45;&gt;Node5</title>
<path fill="none" stroke="orange" stroke-dasharray="5,2" d="M246,-174.342C246,-160.774 246,-144.861 246,-133.084"/>
<polygon fill="orange" stroke="orange" points="242.5,-174.597 246,-184.597 249.5,-174.597 242.5,-174.597"/>
<text text-anchor="middle" x="277" y="-156.5" font-family="FreeSans" font-size="10.00"> &lt; KSpace &gt;</text>
</g>
</g>
</svg>
