<?xml version="1.0" encoding="UTF-8" standalone="no"?>
<!DOCTYPE svg PUBLIC "-//W3C//DTD SVG 1.1//EN"
 "http://www.w3.org/Graphics/SVG/1.1/DTD/svg11.dtd">
<!-- Generated by graphviz version 2.26.3 (20100126.1600)
 -->
<!-- Title: DGtal::functors::ConstValueCell&lt; TQuantity, TCell &gt; Pages: 1 -->
<svg width="156pt" height="116pt"
 viewBox="0.00 0.00 156.00 116.00" xmlns="http://www.w3.org/2000/svg" xmlns:xlink="http://www.w3.org/1999/xlink">
<g id="graph1" class="graph" transform="scale(1 1) rotate(0) translate(4 112)">
<title>DGtal::functors::ConstValueCell&lt; TQuantity, TCell &gt;</title>
<polygon fill="white" stroke="white" points="-4,5 -4,-112 153,-112 153,5 -4,5"/>
<!-- Node1 -->
<g id="node1" class="node"><title>Node1</title>
<polygon fill="#bfbfbf" stroke="black" points="-0.5,-1 -0.5,-35 148.5,-35 148.5,-1 -0.5,-1"/>
<text text-anchor="start" x="7.5" y="-22" font-family="FreeSans" font-size="10.00">DGtal::functors::ConstValue</text>
<text text-anchor="middle" x="74" y="-9" font-family="FreeSans" font-size="10.00">Cell&lt; TQuantity, TCell &gt;</text>
</g>
<!-- Node2 -->
<g id="node2" class="node"><title>Node2</title>
<polygon fill="white" stroke="#bfbfbf" points="5.5,-73 5.5,-107 142.5,-107 142.5,-73 5.5,-73"/>
<text text-anchor="start" x="13.5" y="-94" font-family="FreeSans" font-size="10.00">std::unary_function</text>
<text text-anchor="middle" x="74" y="-81" font-family="FreeSans" font-size="10.00">&lt; TQuantity, TQuantity &gt;</text>
</g>
<!-- Node2&#45;&gt;Node1 -->
<g id="edge2" class="edge"><title>Node2&#45;&gt;Node1</title>
<path fill="none" stroke="#8b1a1a" d="M74,-62.7193C74,-53.572 74,-43.6255 74,-35.4407"/>
<polygon fill="#8b1a1a" stroke="#8b1a1a" points="70.5001,-62.937 74,-72.937 77.5001,-62.937 70.5001,-62.937"/>
</g>
</g>
</svg>
