<?xml version="1.0" encoding="UTF-8" standalone="no"?>
<!DOCTYPE svg PUBLIC "-//W3C//DTD SVG 1.1//EN"
 "http://www.w3.org/Graphics/SVG/1.1/DTD/svg11.dtd">
<!-- Generated by graphviz version 2.26.3 (20100126.1600)
 -->
<!-- Title: boost::graph_traits&lt; DGtal::Object&lt; TDigitalTopology, TDigitalSet &gt; &gt;::edge_iterator Pages: 1 -->
<svg width="352pt" height="68pt"
 viewBox="0.00 0.00 352.00 68.00" xmlns="http://www.w3.org/2000/svg" xmlns:xlink="http://www.w3.org/1999/xlink">
<g id="graph1" class="graph" transform="scale(1 1) rotate(0) translate(4 64)">
<title>boost::graph_traits&lt; DGtal::Object&lt; TDigitalTopology, TDigitalSet &gt; &gt;::edge_iterator</title>
<polygon fill="white" stroke="white" points="-4,5 -4,-64 349,-64 349,5 -4,5"/>
<!-- Node1 -->
<g id="node1" class="node"><title>Node1</title>
<polygon fill="#bfbfbf" stroke="black" points="162,-6.5 162,-53.5 344,-53.5 344,-6.5 162,-6.5"/>
<text text-anchor="start" x="170" y="-40.5" font-family="FreeSans" font-size="10.00">boost::graph_traits</text>
<text text-anchor="start" x="170" y="-27.5" font-family="FreeSans" font-size="10.00">&lt; DGtal::Object&lt; TDigitalTopology,</text>
<text text-anchor="middle" x="253" y="-14.5" font-family="FreeSans" font-size="10.00"> TDigitalSet &gt; &gt;::edge_iterator</text>
</g>
<!-- Node2 -->
<g id="node2" class="node"><title>Node2</title>
<polygon fill="white" stroke="#bfbfbf" points="0,-0 0,-60 126,-60 126,-0 0,-0"/>
<text text-anchor="start" x="8" y="-47" font-family="FreeSans" font-size="10.00">boost::iterator_facade</text>
<text text-anchor="start" x="8" y="-34" font-family="FreeSans" font-size="10.00">&lt; edge_iterator, Edge,</text>
<text text-anchor="start" x="8" y="-21" font-family="FreeSans" font-size="10.00"> forward_traversal_tag,</text>
<text text-anchor="middle" x="63" y="-8" font-family="FreeSans" font-size="10.00"> const Edge &amp; &gt;</text>
</g>
<!-- Node2&#45;&gt;Node1 -->
<g id="edge2" class="edge"><title>Node2&#45;&gt;Node1</title>
<path fill="none" stroke="midnightblue" d="M136.09,-30C144.473,-30 153.096,-30 161.679,-30"/>
<polygon fill="midnightblue" stroke="midnightblue" points="136.003,-26.5001 126.003,-30 136.003,-33.5001 136.003,-26.5001"/>
</g>
</g>
</svg>
