<?xml version="1.0" encoding="UTF-8" standalone="no"?>
<!DOCTYPE svg PUBLIC "-//W3C//DTD SVG 1.1//EN"
 "http://www.w3.org/Graphics/SVG/1.1/DTD/svg11.dtd">
<!-- Generated by graphviz version 2.26.3 (20100126.1600)
 -->
<!-- Title: DGtal::Profile&lt; TValueFunctor, TValue &gt; Pages: 1 -->
<!--zoomable 546 -->
<svg id="main" version="1.1" xmlns="http://www.w3.org/2000/svg" xmlns:xlink="http://www.w3.org/1999/xlink" xml:space="preserve" onload="init(evt)">
<style type="text/css"><![CDATA[
.edge:hover path { stroke: red; }
.edge:hover polygon { stroke: red; fill: red; }
]]></style>
<script type="text/javascript"><![CDATA[
var edges = document.getElementsByTagName('g');
if (edges && edges.length) {
  for (var i=0;i<edges.length;i++) {
    if (edges[i].id.substr(0,4)=='edge') {
      edges[i].setAttribute('class','edge');
    }
  }
}
]]></script>
        <defs>
                <circle id="rim" cx="0" cy="0" r="7"/>
                <circle id="rim2" cx="0" cy="0" r="3.5"/>
                <g id="zoomPlus">
                        <use xlink:href="#rim" fill="#404040">
                                <set attributeName="fill" to="#808080" begin="zoomplus.mouseover" end="zoomplus.mouseout"/>
                        </use>
                        <path d="M-4,0h8M0,-4v8" fill="none" stroke="white" stroke-width="1.5" pointer-events="none"/>
                </g>
                <g id="zoomMin">
                        <use xlink:href="#rim" fill="#404040">
                                <set attributeName="fill" to="#808080" begin="zoomminus.mouseover" end="zoomminus.mouseout"/>
                        </use>
                        <path d="M-4,0h8" fill="none" stroke="white" stroke-width="1.5" pointer-events="none"/>
                </g>
                <g id="dirArrow">
                        <path fill="none" stroke="white" stroke-width="1.5" d="M0,-3.0v7 M-2.5,-0.5L0,-3.0L2.5,-0.5"/>
                </g>
               <g id="resetDef">
                       <use xlink:href="#rim2" fill="#404040">
                               <set attributeName="fill" to="#808080" begin="reset.mouseover" end="reset.mouseout"/>
                       </use>
               </g>
        </defs>

<script type="text/javascript">
var viewWidth = 486;
var viewHeight = 546;
var sectionId = 'dynsection-0';
</script>
<script xlink:href="svgpan.js"/>
<svg id="graph" class="graph">
<g id="viewport">
<title>DGtal::Profile&lt; TValueFunctor, TValue &gt;</title>
<polygon fill="white" stroke="white" points="-4,5 -4,-542 483,-542 483,5 -4,5"/>
<!-- Node1 -->
<g id="node1" class="node"><title>Node1</title>
<polygon fill="#bfbfbf" stroke="black" points="40,-1 40,-35 200,-35 200,-1 40,-1"/>
<text text-anchor="start" x="48" y="-22" font-family="FreeSans" font-size="10.00">DGtal::Profile&lt; TValueFunctor,</text>
<text text-anchor="middle" x="120" y="-9" font-family="FreeSans" font-size="10.00"> TValue &gt;</text>
</g>
<!-- Node2 -->
<g id="node2" class="node"><title>Node2</title>
<polygon fill="white" stroke="#bfbfbf" points="0,-310.5 0,-331.5 116,-331.5 116,-310.5 0,-310.5"/>
<text text-anchor="middle" x="58" y="-318.5" font-family="FreeSans" font-size="10.00">std::vector&lt; Value &gt;</text>
</g>
<!-- Node2&#45;&gt;Node1 -->
<g id="edge2" class="edge"><title>Node2&#45;&gt;Node1</title>
<path fill="none" stroke="#9a32cd" stroke-dasharray="5,2" d="M62.2117,-300.245C66.0088,-279.704 71,-247.317 71,-219 71,-219 71,-219 71,-104 71,-77.3648 88.963,-51.4562 103.137,-35.1586"/>
<polygon fill="#9a32cd" stroke="#9a32cd" points="58.7225,-299.855 60.2644,-310.337 65.5958,-301.181 58.7225,-299.855"/>
<text text-anchor="middle" x="103.5" y="-180.5" font-family="FreeSans" font-size="10.00"> myXsamples</text>
</g>
<!-- Node3 -->
<g id="node4" class="node"><title>Node3</title>
<a xlink:title="STL class. ">
<polygon fill="white" stroke="#bfbfbf" points="109.5,-444.5 109.5,-465.5 204.5,-465.5 204.5,-444.5 109.5,-444.5"/>
<text text-anchor="middle" x="157" y="-452.5" font-family="FreeSans" font-size="10.00">std::vector&lt; T &gt;</text>
</a>
</g>
<!-- Node3&#45;&gt;Node2 -->
<g id="edge4" class="edge"><title>Node3&#45;&gt;Node2</title>
<path fill="none" stroke="orange" stroke-dasharray="5,2" d="M119.837,-439.659C113.089,-435.832 106.468,-431.282 101,-426 73.5149,-399.449 62.9929,-352.84 59.5084,-331.821"/>
<polygon fill="orange" stroke="orange" points="118.531,-442.925 129.019,-444.43 121.759,-436.713 118.531,-442.925"/>
<text text-anchor="middle" x="127" y="-416.5" font-family="FreeSans" font-size="10.00"> &lt; Value &gt;</text>
</g>
<!-- Node5 -->
<g id="node8" class="node"><title>Node5</title>
<polygon fill="white" stroke="#bfbfbf" points="175,-87 175,-121 297,-121 297,-87 175,-87"/>
<text text-anchor="start" x="183" y="-108" font-family="FreeSans" font-size="10.00">std::vector&lt; DGtal</text>
<text text-anchor="middle" x="236" y="-95" font-family="FreeSans" font-size="10.00">::Statistic&lt; Value &gt; &gt;</text>
</g>
<!-- Node3&#45;&gt;Node5 -->
<g id="edge22" class="edge"><title>Node3&#45;&gt;Node5</title>
<path fill="none" stroke="orange" stroke-dasharray="5,2" d="M214.566,-448.833C283.852,-439.775 391,-419.815 391,-383 391,-383 391,-383 391,-183 391,-138.903 340.585,-119.409 297.26,-110.798"/>
<polygon fill="orange" stroke="orange" points="214.116,-445.362 204.635,-450.091 214.996,-452.306 214.116,-445.362"/>
<text text-anchor="start" x="391" y="-261" font-family="FreeSans" font-size="10.00"> &lt; DGtal::Statistic</text>
<text text-anchor="middle" x="434.5" y="-248" font-family="FreeSans" font-size="10.00">&lt; Value &gt; &gt;</text>
</g>
<!-- Node7 -->
<g id="node12" class="node"><title>Node7</title>
<polygon fill="white" stroke="#bfbfbf" points="91.5,-372.5 91.5,-393.5 222.5,-393.5 222.5,-372.5 91.5,-372.5"/>
<text text-anchor="middle" x="157" y="-380.5" font-family="FreeSans" font-size="10.00">std::vector&lt; Quantity &gt;</text>
</g>
<!-- Node3&#45;&gt;Node7 -->
<g id="edge14" class="edge"><title>Node3&#45;&gt;Node7</title>
<path fill="none" stroke="orange" stroke-dasharray="5,2" d="M157,-434.235C157,-420.969 157,-404.319 157,-393.667"/>
<polygon fill="orange" stroke="orange" points="153.5,-434.376 157,-444.376 160.5,-434.376 153.5,-434.376"/>
<text text-anchor="middle" x="190.5" y="-416.5" font-family="FreeSans" font-size="10.00"> &lt; Quantity &gt;</text>
</g>
<!-- Node4 -->
<g id="node6" class="node"><title>Node4</title>
<polygon fill="white" stroke="#bfbfbf" points="142.5,-516.5 142.5,-537.5 171.5,-537.5 171.5,-516.5 142.5,-516.5"/>
<text text-anchor="middle" x="157" y="-524.5" font-family="FreeSans" font-size="10.00">T</text>
</g>
<!-- Node4&#45;&gt;Node3 -->
<g id="edge6" class="edge"><title>Node4&#45;&gt;Node3</title>
<path fill="none" stroke="#9a32cd" stroke-dasharray="5,2" d="M157,-506.235C157,-492.969 157,-476.319 157,-465.667"/>
<polygon fill="#9a32cd" stroke="#9a32cd" points="153.5,-506.376 157,-516.376 160.5,-506.376 153.5,-506.376"/>
<text text-anchor="middle" x="181.5" y="-488.5" font-family="FreeSans" font-size="10.00"> elements</text>
</g>
<!-- Node5&#45;&gt;Node1 -->
<g id="edge8" class="edge"><title>Node5&#45;&gt;Node1</title>
<path fill="none" stroke="#9a32cd" stroke-dasharray="5,2" d="M204.572,-80.6999C185.194,-66.3338 160.769,-48.2251 143.155,-35.1669"/>
<polygon fill="#9a32cd" stroke="#9a32cd" points="202.687,-83.6593 212.804,-86.8033 206.856,-78.0361 202.687,-83.6593"/>
<text text-anchor="middle" x="206" y="-58.5" font-family="FreeSans" font-size="10.00"> myStats</text>
</g>
<!-- Node6 -->
<g id="node10" class="node"><title>Node6</title>
<a xlink:href="classDGtal_1_1Statistic.html" target="_top" xlink:title="DGtal::Statistic\&lt; Value \&gt;">
<polygon fill="white" stroke="black" points="167.5,-172.5 167.5,-193.5 304.5,-193.5 304.5,-172.5 167.5,-172.5"/>
<text text-anchor="middle" x="236" y="-180.5" font-family="FreeSans" font-size="10.00">DGtal::Statistic&lt; Value &gt;</text>
</a>
</g>
<!-- Node6&#45;&gt;Node5 -->
<g id="edge10" class="edge"><title>Node6&#45;&gt;Node5</title>
<path fill="none" stroke="#9a32cd" stroke-dasharray="5,2" d="M236,-162.162C236,-149.363 236,-133.171 236,-121.124"/>
<polygon fill="#9a32cd" stroke="#9a32cd" points="232.5,-162.346 236,-172.346 239.5,-162.346 232.5,-162.346"/>
<text text-anchor="middle" x="260.5" y="-144.5" font-family="FreeSans" font-size="10.00"> elements</text>
</g>
<!-- Node7&#45;&gt;Node6 -->
<g id="edge12" class="edge"><title>Node7&#45;&gt;Node6</title>
<path fill="none" stroke="#9a32cd" stroke-dasharray="5,2" d="M147.627,-363.198C135.709,-334.912 119.044,-282.144 140,-244 153.692,-219.078 182.355,-202.893 204.815,-193.5"/>
<polygon fill="#9a32cd" stroke="#9a32cd" points="144.472,-364.717 151.725,-372.44 150.871,-361.879 144.472,-364.717"/>
<text text-anchor="middle" x="165" y="-254.5" font-family="FreeSans" font-size="10.00"> myValues</text>
</g>
<!-- Node8 -->
<g id="node15" class="node"><title>Node8</title>
<a xlink:href="classDGtal_1_1Statistic.html" target="_top" xlink:title="Aim: This class processes a set of sample values for one variable and can then compute different stat...">
<polygon fill="white" stroke="black" points="198.5,-246.5 198.5,-267.5 355.5,-267.5 355.5,-246.5 198.5,-246.5"/>
<text text-anchor="middle" x="277" y="-254.5" font-family="FreeSans" font-size="10.00">DGtal::Statistic&lt; TQuantity &gt;</text>
</a>
</g>
<!-- Node7&#45;&gt;Node8 -->
<g id="edge20" class="edge"><title>Node7&#45;&gt;Node8</title>
<path fill="none" stroke="#9a32cd" stroke-dasharray="5,2" d="M167.037,-363.646C178.464,-343.001 198.727,-310.269 223,-288 231.921,-279.815 243.372,-272.858 253.432,-267.622"/>
<polygon fill="#9a32cd" stroke="#9a32cd" points="163.953,-361.993 162.292,-372.456 170.116,-365.312 163.953,-361.993"/>
<text text-anchor="middle" x="248" y="-318.5" font-family="FreeSans" font-size="10.00"> myValues</text>
</g>
<!-- Node8&#45;&gt;Node6 -->
<g id="edge16" class="edge"><title>Node8&#45;&gt;Node6</title>
<path fill="none" stroke="orange" stroke-dasharray="5,2" d="M266.198,-237.504C258.409,-223.445 248.192,-205.004 241.863,-193.583"/>
<polygon fill="orange" stroke="orange" points="263.218,-239.347 271.126,-246.398 269.341,-235.954 263.218,-239.347"/>
<text text-anchor="middle" x="284" y="-216.5" font-family="FreeSans" font-size="10.00"> &lt; Value &gt;</text>
</g>
<!-- Node9 -->
<g id="node17" class="node"><title>Node9</title>
<polygon fill="white" stroke="#bfbfbf" points="246,-372.5 246,-393.5 308,-393.5 308,-372.5 246,-372.5"/>
<text text-anchor="middle" x="277" y="-380.5" font-family="FreeSans" font-size="10.00">TQuantity</text>
</g>
<!-- Node9&#45;&gt;Node8 -->
<g id="edge18" class="edge"><title>Node9&#45;&gt;Node8</title>
<path fill="none" stroke="#9a32cd" stroke-dasharray="5,2" d="M277,-361.906C277,-334.731 277,-288.523 277,-267.715"/>
<polygon fill="#9a32cd" stroke="#9a32cd" points="273.5,-362.257 277,-372.257 280.5,-362.257 273.5,-362.257"/>
<text text-anchor="middle" x="302" y="-344.5" font-family="FreeSans" font-size="10.00"> myExp2</text>
<text text-anchor="middle" x="302" y="-331.5" font-family="FreeSans" font-size="10.00">myMin</text>
<text text-anchor="middle" x="302" y="-318.5" font-family="FreeSans" font-size="10.00">myMax</text>
<text text-anchor="middle" x="302" y="-305.5" font-family="FreeSans" font-size="10.00">myMedian</text>
<text text-anchor="middle" x="302" y="-292.5" font-family="FreeSans" font-size="10.00">myExp</text>
</g>
</g>
</svg>
        <g id="navigator" transform="translate(0 0)" fill="#404254">
                <rect fill="#f2f5e9" fill-opacity="0.5" stroke="#606060" stroke-width=".5" x="0" y="0" width="60" height="60"/>
                <use id="zoomplus" xlink:href="#zoomPlus" x="17" y="9" onmousedown="handleZoom(evt,'in')"/>
                <use id="zoomminus" xlink:href="#zoomMin" x="42" y="9" onmousedown="handleZoom(evt,'out')"/>
                <use id="reset" xlink:href="#resetDef" x="30" y="36" onmousedown="handleReset()"/>
                <g id="arrowUp" xlink:href="#dirArrow" transform="translate(30 24)" onmousedown="handlePan(0,-1)">
                  <use xlink:href="#rim" fill="#404040">
                        <set attributeName="fill" to="#808080" begin="arrowUp.mouseover" end="arrowUp.mouseout"/>
                  </use>
                  <path fill="none" stroke="white" stroke-width="1.5" d="M0,-3.0v7 M-2.5,-0.5L0,-3.0L2.5,-0.5"/>
                </g>
                <g id="arrowRight" xlink:href="#dirArrow" transform="rotate(90) translate(36 -43)" onmousedown="handlePan(1,0)">
                  <use xlink:href="#rim" fill="#404040">
                        <set attributeName="fill" to="#808080" begin="arrowRight.mouseover" end="arrowRight.mouseout"/>
                  </use>
                  <path fill="none" stroke="white" stroke-width="1.5" d="M0,-3.0v7 M-2.5,-0.5L0,-3.0L2.5,-0.5"/>
                </g>
                <g id="arrowDown" xlink:href="#dirArrow" transform="rotate(180) translate(-30 -48)" onmousedown="handlePan(0,1)">
                  <use xlink:href="#rim" fill="#404040">
                        <set attributeName="fill" to="#808080" begin="arrowDown.mouseover" end="arrowDown.mouseout"/>
                  </use>
                  <path fill="none" stroke="white" stroke-width="1.5" d="M0,-3.0v7 M-2.5,-0.5L0,-3.0L2.5,-0.5"/>
                </g>
                <g id="arrowLeft" xlink:href="#dirArrow" transform="rotate(270) translate(-36 17)" onmousedown="handlePan(-1,0)">
                  <use xlink:href="#rim" fill="#404040">
                        <set attributeName="fill" to="#808080" begin="arrowLeft.mouseover" end="arrowLeft.mouseout"/>
                  </use>
                  <path fill="none" stroke="white" stroke-width="1.5" d="M0,-3.0v7 M-2.5,-0.5L0,-3.0L2.5,-0.5"/>
                </g>
        </g>
        <svg viewBox="0 0 15 15" width="100%" height="30px" preserveAspectRatio="xMaxYMin meet">
         <g id="arrow_out" transform="scale(0.3 0.3)">
          <a xlink:href="classDGtal_1_1Profile__coll__graph_org.svg" target="_base">
           <rect id="button" ry="5" rx="5" y="6" x="6" height="38" width="38"
                fill="#f2f5e9" fill-opacity="0.5" stroke="#606060" stroke-width="1.0"/>
           <path id="arrow"
             d="M 11.500037,31.436501 C 11.940474,20.09759 22.043105,11.32322 32.158766,21.979434 L 37.068811,17.246167 C 37.068811,17.246167 37.088388,32 37.088388,32 L 22.160133,31.978069 C 22.160133,31.978069 26.997745,27.140456 26.997745,27.140456 C 18.528582,18.264221 13.291696,25.230495 11.500037,31.436501 z"
             style="fill:#404040;"/>
          </a>
         </g>
        </svg>
</svg>
