<?xml version="1.0" encoding="UTF-8" standalone="no"?>
<!DOCTYPE svg PUBLIC "-//W3C//DTD SVG 1.1//EN"
 "http://www.w3.org/Graphics/SVG/1.1/DTD/svg11.dtd">
<!-- Generated by graphviz version 2.26.3 (20100126.1600)
 -->
<!-- Title: DGtal::Histogram&lt; TQuantity, TBinner &gt; Pages: 1 -->
<svg width="211pt" height="272pt"
 viewBox="0.00 0.00 211.00 272.00" xmlns="http://www.w3.org/2000/svg" xmlns:xlink="http://www.w3.org/1999/xlink">
<g id="graph1" class="graph" transform="scale(1 1) rotate(0) translate(4 268)">
<title>DGtal::Histogram&lt; TQuantity, TBinner &gt;</title>
<polygon fill="white" stroke="white" points="-4,5 -4,-268 208,-268 208,5 -4,5"/>
<!-- Node1 -->
<g id="node1" class="node"><title>Node1</title>
<polygon fill="#bfbfbf" stroke="black" points="0,-1 0,-35 160,-35 160,-1 0,-1"/>
<text text-anchor="start" x="8" y="-22" font-family="FreeSans" font-size="10.00">DGtal::Histogram&lt; TQuantity,</text>
<text text-anchor="middle" x="80" y="-9" font-family="FreeSans" font-size="10.00"> TBinner &gt;</text>
</g>
<!-- Node2 -->
<g id="node2" class="node"><title>Node2</title>
<polygon fill="white" stroke="#bfbfbf" points="25,-98.5 25,-119.5 135,-119.5 135,-98.5 25,-98.5"/>
<text text-anchor="middle" x="80" y="-106.5" font-family="FreeSans" font-size="10.00">std::vector&lt; Size &gt;</text>
</g>
<!-- Node2&#45;&gt;Node1 -->
<g id="edge2" class="edge"><title>Node2&#45;&gt;Node1</title>
<path fill="none" stroke="#9a32cd" stroke-dasharray="5,2" d="M80,-87.7551C80,-71.7995 80,-50.2207 80,-35.3088"/>
<polygon fill="#9a32cd" stroke="#9a32cd" points="76.5001,-88.2037 80,-98.2038 83.5001,-88.2038 76.5001,-88.2037"/>
<text text-anchor="middle" x="141.5" y="-71" font-family="FreeSans" font-size="10.00"> myCumulativeHistogram</text>
<text text-anchor="middle" x="141.5" y="-58" font-family="FreeSans" font-size="10.00">myHistogram</text>
</g>
<!-- Node3 -->
<g id="node4" class="node"><title>Node3</title>
<a xlink:title="STL class. ">
<polygon fill="white" stroke="#bfbfbf" points="32.5,-170.5 32.5,-191.5 127.5,-191.5 127.5,-170.5 32.5,-170.5"/>
<text text-anchor="middle" x="80" y="-178.5" font-family="FreeSans" font-size="10.00">std::vector&lt; T &gt;</text>
</a>
</g>
<!-- Node3&#45;&gt;Node2 -->
<g id="edge4" class="edge"><title>Node3&#45;&gt;Node2</title>
<path fill="none" stroke="orange" stroke-dasharray="5,2" d="M80,-160.235C80,-146.969 80,-130.319 80,-119.667"/>
<polygon fill="orange" stroke="orange" points="76.5001,-160.376 80,-170.376 83.5001,-160.376 76.5001,-160.376"/>
<text text-anchor="middle" x="103" y="-142.5" font-family="FreeSans" font-size="10.00"> &lt; Size &gt;</text>
</g>
<!-- Node4 -->
<g id="node6" class="node"><title>Node4</title>
<polygon fill="white" stroke="#bfbfbf" points="65.5,-242.5 65.5,-263.5 94.5,-263.5 94.5,-242.5 65.5,-242.5"/>
<text text-anchor="middle" x="80" y="-250.5" font-family="FreeSans" font-size="10.00">T</text>
</g>
<!-- Node4&#45;&gt;Node3 -->
<g id="edge6" class="edge"><title>Node4&#45;&gt;Node3</title>
<path fill="none" stroke="#9a32cd" stroke-dasharray="5,2" d="M80,-232.235C80,-218.969 80,-202.319 80,-191.667"/>
<polygon fill="#9a32cd" stroke="#9a32cd" points="76.5001,-232.376 80,-242.376 83.5001,-232.376 76.5001,-232.376"/>
<text text-anchor="middle" x="104.5" y="-214.5" font-family="FreeSans" font-size="10.00"> elements</text>
</g>
</g>
</svg>
