<?xml version="1.0" encoding="UTF-8" standalone="no"?>
<!DOCTYPE svg PUBLIC "-//W3C//DTD SVG 1.1//EN"
 "http://www.w3.org/Graphics/SVG/1.1/DTD/svg11.dtd">
<!-- Generated by graphviz version 2.26.3 (20100126.1600)
 -->
<!-- Title: DGtal::LatticePolytope2D&lt; TSpace, TSequence &gt; Pages: 1 -->
<svg width="174pt" height="130pt"
 viewBox="0.00 0.00 174.00 130.00" xmlns="http://www.w3.org/2000/svg" xmlns:xlink="http://www.w3.org/1999/xlink">
<g id="graph1" class="graph" transform="scale(1 1) rotate(0) translate(4 126)">
<title>DGtal::LatticePolytope2D&lt; TSpace, TSequence &gt;</title>
<polygon fill="white" stroke="white" points="-4,5 -4,-126 171,-126 171,5 -4,5"/>
<!-- Node1 -->
<g id="node1" class="node"><title>Node1</title>
<polygon fill="#bfbfbf" stroke="black" points="-0.5,-87 -0.5,-121 136.5,-121 136.5,-87 -0.5,-87"/>
<text text-anchor="start" x="7.5" y="-108" font-family="FreeSans" font-size="10.00">DGtal::LatticePolytope2D</text>
<text text-anchor="middle" x="68" y="-95" font-family="FreeSans" font-size="10.00">&lt; TSpace, TSequence &gt;</text>
</g>
<!-- Node2 -->
<g id="node3" class="node"><title>Node2</title>
<a xlink:href="classDGtal_1_1LatticePolytope2D.html" target="_top" xlink:title="DGtal::LatticePolytope2D\l\&lt; InternalSpace2 \&gt;">
<polygon fill="white" stroke="black" points="-0.5,-1 -0.5,-35 136.5,-35 136.5,-1 -0.5,-1"/>
<text text-anchor="start" x="7.5" y="-22" font-family="FreeSans" font-size="10.00">DGtal::LatticePolytope2D</text>
<text text-anchor="middle" x="68" y="-9" font-family="FreeSans" font-size="10.00">&lt; InternalSpace2 &gt;</text>
</a>
</g>
<!-- Node1&#45;&gt;Node2 -->
<g id="edge2" class="edge"><title>Node1&#45;&gt;Node2</title>
<path fill="none" stroke="orange" stroke-dasharray="5,2" d="M68,-76.342C68,-62.7741 68,-46.8607 68,-35.084"/>
<polygon fill="orange" stroke="orange" points="64.5001,-76.5966 68,-86.5966 71.5001,-76.5967 64.5001,-76.5966"/>
<text text-anchor="middle" x="117" y="-58.5" font-family="FreeSans" font-size="10.00"> &lt; InternalSpace2 &gt;</text>
</g>
</g>
</svg>
