<?xml version="1.0" encoding="UTF-8" standalone="no"?>
<!DOCTYPE svg PUBLIC "-//W3C//DTD SVG 1.1//EN"
 "http://www.w3.org/Graphics/SVG/1.1/DTD/svg11.dtd">
<!-- Generated by graphviz version 2.26.3 (20100126.1600)
 -->
<!-- Title: DGtal::ImageCacheReadPolicyFIFO&lt; TImageContainer, TImageFactory &gt; Pages: 1 -->
<svg width="227pt" height="260pt"
 viewBox="0.00 0.00 227.00 260.00" xmlns="http://www.w3.org/2000/svg" xmlns:xlink="http://www.w3.org/1999/xlink">
<g id="graph1" class="graph" transform="scale(1 1) rotate(0) translate(4 256)">
<title>DGtal::ImageCacheReadPolicyFIFO&lt; TImageContainer, TImageFactory &gt;</title>
<polygon fill="white" stroke="white" points="-4,5 -4,-256 224,-256 224,5 -4,5"/>
<!-- Node1 -->
<g id="node1" class="node"><title>Node1</title>
<polygon fill="#bfbfbf" stroke="black" points="-0.5,-1 -0.5,-35 216.5,-35 216.5,-1 -0.5,-1"/>
<text text-anchor="start" x="7.5" y="-22" font-family="FreeSans" font-size="10.00">DGtal::ImageCacheReadPolicy</text>
<text text-anchor="middle" x="108" y="-9" font-family="FreeSans" font-size="10.00">FIFO&lt; TImageContainer, TImageFactory &gt;</text>
</g>
<!-- Node2 -->
<g id="node2" class="node"><title>Node2</title>
<polygon fill="white" stroke="#bfbfbf" points="20.5,-86.5 20.5,-107.5 195.5,-107.5 195.5,-86.5 20.5,-86.5"/>
<text text-anchor="middle" x="108" y="-94.5" font-family="FreeSans" font-size="10.00">std::deque&lt; ImageContainer * &gt;</text>
</g>
<!-- Node2&#45;&gt;Node1 -->
<g id="edge2" class="edge"><title>Node2&#45;&gt;Node1</title>
<path fill="none" stroke="#9a32cd" stroke-dasharray="5,2" d="M108,-76.1618C108,-63.3635 108,-47.1713 108,-35.1236"/>
<polygon fill="#9a32cd" stroke="#9a32cd" points="104.5,-76.3457 108,-86.3457 111.5,-76.3457 104.5,-76.3457"/>
<text text-anchor="middle" x="160" y="-58.5" font-family="FreeSans" font-size="10.00"> myFIFOCacheImages</text>
</g>
<!-- Node3 -->
<g id="node4" class="node"><title>Node3</title>
<a xlink:title="STL class. ">
<polygon fill="white" stroke="#bfbfbf" points="60.5,-158.5 60.5,-179.5 155.5,-179.5 155.5,-158.5 60.5,-158.5"/>
<text text-anchor="middle" x="108" y="-166.5" font-family="FreeSans" font-size="10.00">std::deque&lt; T &gt;</text>
</a>
</g>
<!-- Node3&#45;&gt;Node2 -->
<g id="edge4" class="edge"><title>Node3&#45;&gt;Node2</title>
<path fill="none" stroke="orange" stroke-dasharray="5,2" d="M108,-148.235C108,-134.969 108,-118.319 108,-107.667"/>
<polygon fill="orange" stroke="orange" points="104.5,-148.376 108,-158.376 111.5,-148.376 104.5,-148.376"/>
<text text-anchor="middle" x="163.5" y="-130.5" font-family="FreeSans" font-size="10.00"> &lt; ImageContainer * &gt;</text>
</g>
<!-- Node4 -->
<g id="node6" class="node"><title>Node4</title>
<polygon fill="white" stroke="#bfbfbf" points="93.5,-230.5 93.5,-251.5 122.5,-251.5 122.5,-230.5 93.5,-230.5"/>
<text text-anchor="middle" x="108" y="-238.5" font-family="FreeSans" font-size="10.00">T</text>
</g>
<!-- Node4&#45;&gt;Node3 -->
<g id="edge6" class="edge"><title>Node4&#45;&gt;Node3</title>
<path fill="none" stroke="#9a32cd" stroke-dasharray="5,2" d="M108,-220.235C108,-206.969 108,-190.319 108,-179.667"/>
<polygon fill="#9a32cd" stroke="#9a32cd" points="104.5,-220.376 108,-230.376 111.5,-220.376 104.5,-220.376"/>
<text text-anchor="middle" x="132.5" y="-202.5" font-family="FreeSans" font-size="10.00"> elements</text>
</g>
</g>
</svg>
