<?xml version="1.0" encoding="UTF-8" standalone="no"?>
<!DOCTYPE svg PUBLIC "-//W3C//DTD SVG 1.1//EN"
 "http://www.w3.org/Graphics/SVG/1.1/DTD/svg11.dtd">
<!-- Generated by graphviz version 2.26.3 (20100126.1600)
 -->
<!-- Title: DGtal::GradientColorMap&lt; PValue, PDefaultPreset, PDefaultFirstColor, PDefaultLastColor &gt; Pages: 1 -->
<svg width="468pt" height="174pt"
 viewBox="0.00 0.00 468.00 174.00" xmlns="http://www.w3.org/2000/svg" xmlns:xlink="http://www.w3.org/1999/xlink">
<g id="graph1" class="graph" transform="scale(1 1) rotate(0) translate(4 170)">
<title>DGtal::GradientColorMap&lt; PValue, PDefaultPreset, PDefaultFirstColor, PDefaultLastColor &gt;</title>
<polygon fill="white" stroke="white" points="-4,5 -4,-170 465,-170 465,5 -4,5"/>
<!-- Node1 -->
<g id="node1" class="node"><title>Node1</title>
<polygon fill="#bfbfbf" stroke="black" points="0.5,-46 0.5,-106 171.5,-106 171.5,-46 0.5,-46"/>
<text text-anchor="start" x="8.5" y="-93" font-family="FreeSans" font-size="10.00">DGtal::GradientColorMap</text>
<text text-anchor="start" x="8.5" y="-80" font-family="FreeSans" font-size="10.00">&lt; PValue, PDefaultPreset,</text>
<text text-anchor="start" x="8.5" y="-67" font-family="FreeSans" font-size="10.00"> PDefaultFirstColor, PDefaultLast</text>
<text text-anchor="middle" x="86" y="-54" font-family="FreeSans" font-size="10.00">Color &gt;</text>
</g>
<!-- Node2 -->
<g id="node3" class="node"><title>Node2</title>
<a xlink:href="classDGtal_1_1GradientColorMap.html" target="_top" xlink:title="DGtal::GradientColorMap\l\&lt; unsigned char, DGtal\l::CMAP_COOL \&gt;">
<polygon fill="white" stroke="black" points="324,-118.5 324,-165.5 460,-165.5 460,-118.5 324,-118.5"/>
<text text-anchor="start" x="332" y="-152.5" font-family="FreeSans" font-size="10.00">DGtal::GradientColorMap</text>
<text text-anchor="start" x="332" y="-139.5" font-family="FreeSans" font-size="10.00">&lt; unsigned char, DGtal</text>
<text text-anchor="middle" x="392" y="-126.5" font-family="FreeSans" font-size="10.00">::CMAP_COOL &gt;</text>
</a>
</g>
<!-- Node1&#45;&gt;Node2 -->
<g id="edge2" class="edge"><title>Node1&#45;&gt;Node2</title>
<path fill="none" stroke="orange" stroke-dasharray="5,2" d="M181.408,-103.94C184.3,-104.653 187.169,-105.341 190,-106 234.236,-116.292 284.516,-125.262 323.845,-131.674"/>
<polygon fill="orange" stroke="orange" points="182.065,-100.496 171.512,-101.434 180.347,-107.282 182.065,-100.496"/>
<text text-anchor="start" x="190.5" y="-145" font-family="FreeSans" font-size="10.00"> &lt; unsigned char, DGtal</text>
<text text-anchor="middle" x="248" y="-132" font-family="FreeSans" font-size="10.00">::CMAP_COOL &gt;</text>
</g>
<!-- Node3 -->
<g id="node5" class="node"><title>Node3</title>
<a xlink:href="classDGtal_1_1GradientColorMap.html" target="_top" xlink:title="DGtal::GradientColorMap\l\&lt; unsigned char, DGtal\l::CMAP_HOT \&gt;">
<polygon fill="white" stroke="black" points="324,-52.5 324,-99.5 460,-99.5 460,-52.5 324,-52.5"/>
<text text-anchor="start" x="332" y="-86.5" font-family="FreeSans" font-size="10.00">DGtal::GradientColorMap</text>
<text text-anchor="start" x="332" y="-73.5" font-family="FreeSans" font-size="10.00">&lt; unsigned char, DGtal</text>
<text text-anchor="middle" x="392" y="-60.5" font-family="FreeSans" font-size="10.00">::CMAP_HOT &gt;</text>
</a>
</g>
<!-- Node1&#45;&gt;Node3 -->
<g id="edge4" class="edge"><title>Node1&#45;&gt;Node3</title>
<path fill="none" stroke="orange" stroke-dasharray="5,2" d="M181.655,-76C227.762,-76 281.992,-76 323.839,-76"/>
<polygon fill="orange" stroke="orange" points="181.645,-72.5001 171.645,-76 181.645,-79.5001 181.645,-72.5001"/>
<text text-anchor="start" x="190.5" y="-93" font-family="FreeSans" font-size="10.00"> &lt; unsigned char, DGtal</text>
<text text-anchor="middle" x="248" y="-80" font-family="FreeSans" font-size="10.00">::CMAP_HOT &gt;</text>
</g>
<!-- Node4 -->
<g id="node7" class="node"><title>Node4</title>
<a xlink:href="classDGtal_1_1GradientColorMap.html" target="_top" xlink:title="DGtal::GradientColorMap\l\&lt; unsigned int \&gt;">
<polygon fill="white" stroke="black" points="324,-0 324,-34 460,-34 460,-0 324,-0"/>
<text text-anchor="start" x="332" y="-21" font-family="FreeSans" font-size="10.00">DGtal::GradientColorMap</text>
<text text-anchor="middle" x="392" y="-8" font-family="FreeSans" font-size="10.00">&lt; unsigned int &gt;</text>
</a>
</g>
<!-- Node1&#45;&gt;Node4 -->
<g id="edge6" class="edge"><title>Node1&#45;&gt;Node4</title>
<path fill="none" stroke="orange" stroke-dasharray="5,2" d="M181.655,-57.5567C227.762,-48.6669 281.992,-38.2108 323.839,-30.1421"/>
<polygon fill="orange" stroke="orange" points="180.801,-54.1567 171.645,-59.4868 182.127,-61.0301 180.801,-54.1567"/>
<text text-anchor="middle" x="248" y="-59" font-family="FreeSans" font-size="10.00"> &lt; unsigned int &gt;</text>
</g>
</g>
</svg>
