<?xml version="1.0" encoding="UTF-8" standalone="no"?>
<!DOCTYPE svg PUBLIC "-//W3C//DTD SVG 1.1//EN"
 "http://www.w3.org/Graphics/SVG/1.1/DTD/svg11.dtd">
<!-- Generated by graphviz version 2.26.3 (20100126.1600)
 -->
<!-- Title: DGtal::NaiveDSS8&lt; TCoordinate, TInteger &gt; Pages: 1 -->
<svg width="235pt" height="216pt"
 viewBox="0.00 0.00 235.00 216.00" xmlns="http://www.w3.org/2000/svg" xmlns:xlink="http://www.w3.org/1999/xlink">
<g id="graph1" class="graph" transform="scale(1 1) rotate(0) translate(4 212)">
<title>DGtal::NaiveDSS8&lt; TCoordinate, TInteger &gt;</title>
<polygon fill="white" stroke="white" points="-4,5 -4,-212 232,-212 232,5 -4,5"/>
<!-- Node1 -->
<g id="node1" class="node"><title>Node1</title>
<polygon fill="#bfbfbf" stroke="black" points="-0.5,-1 -0.5,-35 174.5,-35 174.5,-1 -0.5,-1"/>
<text text-anchor="start" x="7.5" y="-22" font-family="FreeSans" font-size="10.00">DGtal::NaiveDSS8&lt; TCoordinate,</text>
<text text-anchor="middle" x="87" y="-9" font-family="FreeSans" font-size="10.00"> TInteger &gt;</text>
</g>
<!-- Node2 -->
<g id="node2" class="node"><title>Node2</title>
<a xlink:href="classDGtal_1_1ArithmeticalDSS.html" target="_top" xlink:title="DGtal::ArithmeticalDSS\l\&lt; TCoordinate, TInteger, 8 \&gt;">
<polygon fill="white" stroke="black" points="10.5,-75 10.5,-109 163.5,-109 163.5,-75 10.5,-75"/>
<text text-anchor="start" x="18.5" y="-96" font-family="FreeSans" font-size="10.00">DGtal::ArithmeticalDSS</text>
<text text-anchor="middle" x="87" y="-83" font-family="FreeSans" font-size="10.00">&lt; TCoordinate, TInteger, 8 &gt;</text>
</a>
</g>
<!-- Node2&#45;&gt;Node1 -->
<g id="edge2" class="edge"><title>Node2&#45;&gt;Node1</title>
<path fill="none" stroke="midnightblue" d="M87,-64.6275C87,-54.7253 87,-43.8344 87,-35.07"/>
<polygon fill="midnightblue" stroke="midnightblue" points="83.5001,-64.8369 87,-74.8369 90.5001,-64.8369 83.5001,-64.8369"/>
</g>
<!-- Node3 -->
<g id="node4" class="node"><title>Node3</title>
<a xlink:href="classDGtal_1_1ArithmeticalDSS.html" target="_top" xlink:title="Aim: This class represents a naive (resp. standard) digital straight segment (DSS), ie. the sequence of simply 8&#45; (resp. 4&#45;)connected digital points contained in a naive (resp. standard) digital straight line (DSL) between two points of it. ">
<polygon fill="white" stroke="black" points="20.5,-160.5 20.5,-207.5 153.5,-207.5 153.5,-160.5 20.5,-160.5"/>
<text text-anchor="start" x="28.5" y="-194.5" font-family="FreeSans" font-size="10.00">DGtal::ArithmeticalDSS</text>
<text text-anchor="start" x="28.5" y="-181.5" font-family="FreeSans" font-size="10.00">&lt; TCoordinate, TInteger,</text>
<text text-anchor="middle" x="87" y="-168.5" font-family="FreeSans" font-size="10.00"> adjacency &gt;</text>
</a>
</g>
<!-- Node3&#45;&gt;Node2 -->
<g id="edge4" class="edge"><title>Node3&#45;&gt;Node2</title>
<path fill="none" stroke="orange" stroke-dasharray="5,2" d="M87,-150.081C87,-136.184 87,-120.702 87,-109.22"/>
<polygon fill="orange" stroke="orange" points="83.5001,-150.308 87,-160.308 90.5001,-150.308 83.5001,-150.308"/>
<text text-anchor="middle" x="157" y="-132.5" font-family="FreeSans" font-size="10.00"> &lt; TCoordinate, TInteger, 8 &gt;</text>
</g>
</g>
</svg>
