<?xml version="1.0" encoding="UTF-8" standalone="no"?>
<!DOCTYPE svg PUBLIC "-//W3C//DTD SVG 1.1//EN"
 "http://www.w3.org/Graphics/SVG/1.1/DTD/svg11.dtd">
<!-- Generated by graphviz version 2.26.3 (20100126.1600)
 -->
<!-- Title: DGtal::BreadthFirstVisitor&lt; TGraph, TMarkSet &gt; Pages: 1 -->
<svg width="144pt" height="260pt"
 viewBox="0.00 0.00 144.00 260.00" xmlns="http://www.w3.org/2000/svg" xmlns:xlink="http://www.w3.org/1999/xlink">
<g id="graph1" class="graph" transform="scale(1 1) rotate(0) translate(4 256)">
<title>DGtal::BreadthFirstVisitor&lt; TGraph, TMarkSet &gt;</title>
<polygon fill="white" stroke="white" points="-4,5 -4,-256 141,-256 141,5 -4,5"/>
<!-- Node1 -->
<g id="node1" class="node"><title>Node1</title>
<polygon fill="#bfbfbf" stroke="black" points="-0.5,-1 -0.5,-35 136.5,-35 136.5,-1 -0.5,-1"/>
<text text-anchor="start" x="7.5" y="-22" font-family="FreeSans" font-size="10.00">DGtal::BreadthFirstVisitor</text>
<text text-anchor="middle" x="68" y="-9" font-family="FreeSans" font-size="10.00">&lt; TGraph, TMarkSet &gt;</text>
</g>
<!-- Node2 -->
<g id="node2" class="node"><title>Node2</title>
<polygon fill="white" stroke="#bfbfbf" points="10,-86.5 10,-107.5 126,-107.5 126,-86.5 10,-86.5"/>
<text text-anchor="middle" x="68" y="-94.5" font-family="FreeSans" font-size="10.00">std::queue&lt; Node &gt;</text>
</g>
<!-- Node2&#45;&gt;Node1 -->
<g id="edge2" class="edge"><title>Node2&#45;&gt;Node1</title>
<path fill="none" stroke="#9a32cd" stroke-dasharray="5,2" d="M68,-76.1618C68,-63.3635 68,-47.1713 68,-35.1236"/>
<polygon fill="#9a32cd" stroke="#9a32cd" points="64.5001,-76.3457 68,-86.3457 71.5001,-76.3457 64.5001,-76.3457"/>
<text text-anchor="middle" x="93" y="-58.5" font-family="FreeSans" font-size="10.00"> myQueue</text>
</g>
<!-- Node3 -->
<g id="node4" class="node"><title>Node3</title>
<a xlink:title="STL class. ">
<polygon fill="white" stroke="#bfbfbf" points="20.5,-158.5 20.5,-179.5 115.5,-179.5 115.5,-158.5 20.5,-158.5"/>
<text text-anchor="middle" x="68" y="-166.5" font-family="FreeSans" font-size="10.00">std::queue&lt; T &gt;</text>
</a>
</g>
<!-- Node3&#45;&gt;Node2 -->
<g id="edge4" class="edge"><title>Node3&#45;&gt;Node2</title>
<path fill="none" stroke="orange" stroke-dasharray="5,2" d="M68,-148.235C68,-134.969 68,-118.319 68,-107.667"/>
<polygon fill="orange" stroke="orange" points="64.5001,-148.376 68,-158.376 71.5001,-148.376 64.5001,-148.376"/>
<text text-anchor="middle" x="94" y="-130.5" font-family="FreeSans" font-size="10.00"> &lt; Node &gt;</text>
</g>
<!-- Node4 -->
<g id="node6" class="node"><title>Node4</title>
<polygon fill="white" stroke="#bfbfbf" points="53.5,-230.5 53.5,-251.5 82.5,-251.5 82.5,-230.5 53.5,-230.5"/>
<text text-anchor="middle" x="68" y="-238.5" font-family="FreeSans" font-size="10.00">T</text>
</g>
<!-- Node4&#45;&gt;Node3 -->
<g id="edge6" class="edge"><title>Node4&#45;&gt;Node3</title>
<path fill="none" stroke="#9a32cd" stroke-dasharray="5,2" d="M68,-220.235C68,-206.969 68,-190.319 68,-179.667"/>
<polygon fill="#9a32cd" stroke="#9a32cd" points="64.5001,-220.376 68,-230.376 71.5001,-220.376 64.5001,-220.376"/>
<text text-anchor="middle" x="92.5" y="-202.5" font-family="FreeSans" font-size="10.00"> elements</text>
</g>
</g>
</svg>
