<?xml version="1.0" encoding="UTF-8" standalone="no"?>
<!DOCTYPE svg PUBLIC "-//W3C//DTD SVG 1.1//EN"
 "http://www.w3.org/Graphics/SVG/1.1/DTD/svg11.dtd">
<!-- Generated by graphviz version 2.26.3 (20100126.1600)
 -->
<!-- Title: boost::graph_traits&lt; DGtal::DigitalSurface&lt; TDigitalSurfaceContainer &gt; &gt;::adjacency_iterator Pages: 1 -->
<!--zoomable 172 -->
<svg id="main" version="1.1" xmlns="http://www.w3.org/2000/svg" xmlns:xlink="http://www.w3.org/1999/xlink" xml:space="preserve" onload="init(evt)">
<style type="text/css"><![CDATA[
.edge:hover path { stroke: red; }
.edge:hover polygon { stroke: red; fill: red; }
]]></style>
<script type="text/javascript"><![CDATA[
var edges = document.getElementsByTagName('g');
if (edges && edges.length) {
  for (var i=0;i<edges.length;i++) {
    if (edges[i].id.substr(0,4)=='edge') {
      edges[i].setAttribute('class','edge');
    }
  }
}
]]></script>
        <defs>
                <circle id="rim" cx="0" cy="0" r="7"/>
                <circle id="rim2" cx="0" cy="0" r="3.5"/>
                <g id="zoomPlus">
                        <use xlink:href="#rim" fill="#404040">
                                <set attributeName="fill" to="#808080" begin="zoomplus.mouseover" end="zoomplus.mouseout"/>
                        </use>
                        <path d="M-4,0h8M0,-4v8" fill="none" stroke="white" stroke-width="1.5" pointer-events="none"/>
                </g>
                <g id="zoomMin">
                        <use xlink:href="#rim" fill="#404040">
                                <set attributeName="fill" to="#808080" begin="zoomminus.mouseover" end="zoomminus.mouseout"/>
                        </use>
                        <path d="M-4,0h8" fill="none" stroke="white" stroke-width="1.5" pointer-events="none"/>
                </g>
                <g id="dirArrow">
                        <path fill="none" stroke="white" stroke-width="1.5" d="M0,-3.0v7 M-2.5,-0.5L0,-3.0L2.5,-0.5"/>
                </g>
               <g id="resetDef">
                       <use xlink:href="#rim2" fill="#404040">
                               <set attributeName="fill" to="#808080" begin="reset.mouseover" end="reset.mouseout"/>
                       </use>
               </g>
        </defs>

<script type="text/javascript">
var viewWidth = 942;
var viewHeight = 172;
var sectionId = 'dynsection-1';
</script>
<script xlink:href="svgpan.js"/>
<svg id="graph" class="graph">
<g id="viewport">
<title>boost::graph_traits&lt; DGtal::DigitalSurface&lt; TDigitalSurfaceContainer &gt; &gt;::adjacency_iterator</title>
<polygon fill="white" stroke="white" points="-4,5 -4,-168 939,-168 939,5 -4,5"/>
<!-- Node1 -->
<g id="node1" class="node"><title>Node1</title>
<polygon fill="#bfbfbf" stroke="black" points="788,-39 788,-99 934,-99 934,-39 788,-39"/>
<text text-anchor="start" x="796" y="-86" font-family="FreeSans" font-size="10.00">boost::graph_traits</text>
<text text-anchor="start" x="796" y="-73" font-family="FreeSans" font-size="10.00">&lt; DGtal::DigitalSurface</text>
<text text-anchor="start" x="796" y="-60" font-family="FreeSans" font-size="10.00">&lt; TDigitalSurfaceContainer</text>
<text text-anchor="middle" x="861" y="-47" font-family="FreeSans" font-size="10.00"> &gt; &gt;::adjacency_iterator</text>
</g>
<!-- Node2 -->
<g id="node2" class="node"><title>Node2</title>
<polygon fill="white" stroke="#bfbfbf" points="520.5,-104 520.5,-164 693.5,-164 693.5,-104 520.5,-104"/>
<text text-anchor="start" x="528.5" y="-151" font-family="FreeSans" font-size="10.00">boost::iterator_facade</text>
<text text-anchor="start" x="528.5" y="-138" font-family="FreeSans" font-size="10.00">&lt; adjacency_iterator,</text>
<text text-anchor="start" x="528.5" y="-125" font-family="FreeSans" font-size="10.00"> Vertex, bidirectional</text>
<text text-anchor="middle" x="607" y="-112" font-family="FreeSans" font-size="10.00">_traversal_tag, const Vertex &amp; &gt;</text>
</g>
<!-- Node2&#45;&gt;Node1 -->
<g id="edge2" class="edge"><title>Node2&#45;&gt;Node1</title>
<path fill="none" stroke="midnightblue" d="M703.494,-109.307C731.453,-102.152 761.508,-94.4605 787.792,-87.7343"/>
<polygon fill="midnightblue" stroke="midnightblue" points="702.522,-105.943 693.702,-111.812 704.258,-112.724 702.522,-105.943"/>
</g>
<!-- Node3 -->
<g id="node4" class="node"><title>Node3</title>
<a xlink:href="classDGtal_1_1CountedPtr.html" target="_top" xlink:title="DGtal::CountedPtr\&lt;\l AdjacentVertexContainer \&gt;">
<polygon fill="white" stroke="black" points="532,-52 532,-86 682,-86 682,-52 532,-52"/>
<text text-anchor="start" x="540" y="-73" font-family="FreeSans" font-size="10.00">DGtal::CountedPtr&lt;</text>
<text text-anchor="middle" x="607" y="-60" font-family="FreeSans" font-size="10.00"> AdjacentVertexContainer &gt;</text>
</a>
</g>
<!-- Node3&#45;&gt;Node1 -->
<g id="edge4" class="edge"><title>Node3&#45;&gt;Node1</title>
<path fill="none" stroke="#9a32cd" stroke-dasharray="5,2" d="M692.506,-69C723.413,-69 758.004,-69 787.764,-69"/>
<polygon fill="#9a32cd" stroke="#9a32cd" points="692.177,-65.5001 682.177,-69 692.177,-72.5001 692.177,-65.5001"/>
<text text-anchor="middle" x="741" y="-73" font-family="FreeSans" font-size="10.00"> myVertices</text>
</g>
<!-- Node4 -->
<g id="node6" class="node"><title>Node4</title>
<a xlink:href="structDGtal_1_1CountedPtr_1_1Counter.html" target="_top" xlink:title="DGtal::CountedPtr\&lt;\l T \&gt;::Counter">
<polygon fill="white" stroke="black" points="0,-56 0,-90 112,-90 112,-56 0,-56"/>
<text text-anchor="start" x="8" y="-77" font-family="FreeSans" font-size="10.00">DGtal::CountedPtr&lt;</text>
<text text-anchor="middle" x="56" y="-64" font-family="FreeSans" font-size="10.00"> T &gt;::Counter</text>
</a>
</g>
<!-- Node4&#45;&gt;Node3 -->
<g id="edge6" class="edge"><title>Node4&#45;&gt;Node3</title>
<path fill="none" stroke="#9a32cd" stroke-dasharray="5,2" d="M122.278,-77.6973C124.885,-77.8126 127.466,-77.9145 130,-78 295.239,-83.5761 336.818,-85.0663 502,-78 511.688,-77.5856 521.865,-76.957 531.913,-76.2207"/>
<polygon fill="#9a32cd" stroke="#9a32cd" points="122.304,-74.1943 112.142,-77.1926 121.955,-81.1857 122.304,-74.1943"/>
<text text-anchor="middle" x="272" y="-86" font-family="FreeSans" font-size="10.00"> myCounter</text>
</g>
<!-- Node5 -->
<g id="node8" class="node"><title>Node5</title>
<a xlink:href="classDGtal_1_1CountedPtr.html" target="_top" xlink:title="Aim: Smart pointer based on reference counts. ">
<polygon fill="white" stroke="black" points="206.5,-34.5 206.5,-55.5 337.5,-55.5 337.5,-34.5 206.5,-34.5"/>
<text text-anchor="middle" x="272" y="-42.5" font-family="FreeSans" font-size="10.00">DGtal::CountedPtr&lt; T &gt;</text>
</a>
</g>
<!-- Node4&#45;&gt;Node5 -->
<g id="edge10" class="edge"><title>Node4&#45;&gt;Node5</title>
<path fill="none" stroke="#9a32cd" stroke-dasharray="5,2" d="M122.188,-64.42C148.84,-60.9652 179.508,-56.9897 206.127,-53.5391"/>
<polygon fill="#9a32cd" stroke="#9a32cd" points="121.655,-60.9598 112.188,-65.7164 122.555,-67.9018 121.655,-60.9598"/>
<text text-anchor="middle" x="159" y="-67" font-family="FreeSans" font-size="10.00"> myCounter</text>
</g>
<!-- Node5&#45;&gt;Node3 -->
<g id="edge8" class="edge"><title>Node5&#45;&gt;Node3</title>
<path fill="none" stroke="orange" stroke-dasharray="5,2" d="M347.823,-50.4321C402.812,-54.3716 476.853,-59.676 531.717,-63.6066"/>
<polygon fill="orange" stroke="orange" points="348.01,-46.9366 337.786,-49.713 347.51,-53.9187 348.01,-46.9366"/>
<text text-anchor="middle" x="429" y="-65" font-family="FreeSans" font-size="10.00"> &lt; AdjacentVertexContainer &gt;</text>
</g>
<!-- Node6 -->
<g id="node11" class="node"><title>Node6</title>
<a xlink:title="STL iterator class. ">
<polygon fill="white" stroke="#bfbfbf" points="543,-0 543,-34 671,-34 671,-0 543,-0"/>
<text text-anchor="start" x="551" y="-21" font-family="FreeSans" font-size="10.00">std::vector&lt; T &gt;::const</text>
<text text-anchor="middle" x="607" y="-8" font-family="FreeSans" font-size="10.00">_iterator</text>
</a>
</g>
<!-- Node6&#45;&gt;Node1 -->
<g id="edge12" class="edge"><title>Node6&#45;&gt;Node1</title>
<path fill="none" stroke="#9a32cd" stroke-dasharray="5,2" d="M681.316,-32.2144C714.914,-39.0926 754.491,-47.1949 787.937,-54.0423"/>
<polygon fill="#9a32cd" stroke="#9a32cd" points="681.594,-28.6986 671.095,-30.1218 680.19,-35.5564 681.594,-28.6986"/>
<text text-anchor="middle" x="741" y="-53" font-family="FreeSans" font-size="10.00"> myIterator</text>
</g>
</g>
</svg>
        <g id="navigator" transform="translate(0 0)" fill="#404254">
                <rect fill="#f2f5e9" fill-opacity="0.5" stroke="#606060" stroke-width=".5" x="0" y="0" width="60" height="60"/>
                <use id="zoomplus" xlink:href="#zoomPlus" x="17" y="9" onmousedown="handleZoom(evt,'in')"/>
                <use id="zoomminus" xlink:href="#zoomMin" x="42" y="9" onmousedown="handleZoom(evt,'out')"/>
                <use id="reset" xlink:href="#resetDef" x="30" y="36" onmousedown="handleReset()"/>
                <g id="arrowUp" xlink:href="#dirArrow" transform="translate(30 24)" onmousedown="handlePan(0,-1)">
                  <use xlink:href="#rim" fill="#404040">
                        <set attributeName="fill" to="#808080" begin="arrowUp.mouseover" end="arrowUp.mouseout"/>
                  </use>
                  <path fill="none" stroke="white" stroke-width="1.5" d="M0,-3.0v7 M-2.5,-0.5L0,-3.0L2.5,-0.5"/>
                </g>
                <g id="arrowRight" xlink:href="#dirArrow" transform="rotate(90) translate(36 -43)" onmousedown="handlePan(1,0)">
                  <use xlink:href="#rim" fill="#404040">
                        <set attributeName="fill" to="#808080" begin="arrowRight.mouseover" end="arrowRight.mouseout"/>
                  </use>
                  <path fill="none" stroke="white" stroke-width="1.5" d="M0,-3.0v7 M-2.5,-0.5L0,-3.0L2.5,-0.5"/>
                </g>
                <g id="arrowDown" xlink:href="#dirArrow" transform="rotate(180) translate(-30 -48)" onmousedown="handlePan(0,1)">
                  <use xlink:href="#rim" fill="#404040">
                        <set attributeName="fill" to="#808080" begin="arrowDown.mouseover" end="arrowDown.mouseout"/>
                  </use>
                  <path fill="none" stroke="white" stroke-width="1.5" d="M0,-3.0v7 M-2.5,-0.5L0,-3.0L2.5,-0.5"/>
                </g>
                <g id="arrowLeft" xlink:href="#dirArrow" transform="rotate(270) translate(-36 17)" onmousedown="handlePan(-1,0)">
                  <use xlink:href="#rim" fill="#404040">
                        <set attributeName="fill" to="#808080" begin="arrowLeft.mouseover" end="arrowLeft.mouseout"/>
                  </use>
                  <path fill="none" stroke="white" stroke-width="1.5" d="M0,-3.0v7 M-2.5,-0.5L0,-3.0L2.5,-0.5"/>
                </g>
        </g>
        <svg viewBox="0 0 15 15" width="100%" height="30px" preserveAspectRatio="xMaxYMin meet">
         <g id="arrow_out" transform="scale(0.3 0.3)">
          <a xlink:href="classboost_1_1graph__traits_3_01DGtal_1_1DigitalSurface_3_01TDigitalSurfaceContainer_01_4_01_4_113b493c2464411708215c67fd86dabeb_org.svg" target="_base">
           <rect id="button" ry="5" rx="5" y="6" x="6" height="38" width="38"
                fill="#f2f5e9" fill-opacity="0.5" stroke="#606060" stroke-width="1.0"/>
           <path id="arrow"
             d="M 11.500037,31.436501 C 11.940474,20.09759 22.043105,11.32322 32.158766,21.979434 L 37.068811,17.246167 C 37.068811,17.246167 37.088388,32 37.088388,32 L 22.160133,31.978069 C 22.160133,31.978069 26.997745,27.140456 26.997745,27.140456 C 18.528582,18.264221 13.291696,25.230495 11.500037,31.436501 z"
             style="fill:#404040;"/>
          </a>
         </g>
        </svg>
</svg>
