<?xml version="1.0" encoding="UTF-8" standalone="no"?>
<!DOCTYPE svg PUBLIC "-//W3C//DTD SVG 1.1//EN"
 "http://www.w3.org/Graphics/SVG/1.1/DTD/svg11.dtd">
<!-- Generated by graphviz version 2.26.3 (20100126.1600)
 -->
<!-- Title: DGtal::CircleFrom2Points&lt; TPoint &gt; Pages: 1 -->
<svg width="142pt" height="142pt"
 viewBox="0.00 0.00 142.00 142.00" xmlns="http://www.w3.org/2000/svg" xmlns:xlink="http://www.w3.org/1999/xlink">
<g id="graph1" class="graph" transform="scale(1 1) rotate(0) translate(4 138)">
<title>DGtal::CircleFrom2Points&lt; TPoint &gt;</title>
<polygon fill="white" stroke="white" points="-4,5 -4,-138 139,-138 139,5 -4,5"/>
<!-- Node1 -->
<g id="node1" class="node"><title>Node1</title>
<polygon fill="#bfbfbf" stroke="black" points="-0.5,-1 -0.5,-35 134.5,-35 134.5,-1 -0.5,-1"/>
<text text-anchor="start" x="7.5" y="-22" font-family="FreeSans" font-size="10.00">DGtal::CircleFrom2Points</text>
<text text-anchor="middle" x="67" y="-9" font-family="FreeSans" font-size="10.00">&lt; TPoint &gt;</text>
</g>
<!-- Node2 -->
<g id="node2" class="node"><title>Node2</title>
<polygon fill="white" stroke="#bfbfbf" points="44,-112.5 44,-133.5 90,-133.5 90,-112.5 44,-112.5"/>
<text text-anchor="middle" x="67" y="-120.5" font-family="FreeSans" font-size="10.00">TPoint</text>
</g>
<!-- Node2&#45;&gt;Node1 -->
<g id="edge2" class="edge"><title>Node2&#45;&gt;Node1</title>
<path fill="none" stroke="#9a32cd" stroke-dasharray="5,2" d="M67,-102.097C67,-82.4787 67,-53.4874 67,-35.1807"/>
<polygon fill="#9a32cd" stroke="#9a32cd" points="63.5001,-102.159 67,-112.159 70.5001,-102.159 63.5001,-102.159"/>
<text text-anchor="middle" x="85" y="-84.5" font-family="FreeSans" font-size="10.00"> myP</text>
<text text-anchor="middle" x="85" y="-71.5" font-family="FreeSans" font-size="10.00">myQ</text>
<text text-anchor="middle" x="85" y="-58.5" font-family="FreeSans" font-size="10.00">myPole</text>
</g>
</g>
</svg>
