<?xml version="1.0" encoding="UTF-8" standalone="no"?>
<!DOCTYPE svg PUBLIC "-//W3C//DTD SVG 1.1//EN"
 "http://www.w3.org/Graphics/SVG/1.1/DTD/svg11.dtd">
<!-- Generated by graphviz version 2.26.3 (20100126.1600)
 -->
<!-- Title: DGtal::TickedColorMap&lt; TValue, TColorMap &gt; Pages: 1 -->
<svg width="314pt" height="392pt"
 viewBox="0.00 0.00 314.00 392.00" xmlns="http://www.w3.org/2000/svg" xmlns:xlink="http://www.w3.org/1999/xlink">
<g id="graph1" class="graph" transform="scale(1 1) rotate(0) translate(4 388)">
<title>DGtal::TickedColorMap&lt; TValue, TColorMap &gt;</title>
<polygon fill="white" stroke="white" points="-4,5 -4,-388 311,-388 311,5 -4,5"/>
<!-- Node1 -->
<g id="node1" class="node"><title>Node1</title>
<polygon fill="#bfbfbf" stroke="black" points="72,-1 72,-35 198,-35 198,-1 72,-1"/>
<text text-anchor="start" x="80" y="-22" font-family="FreeSans" font-size="10.00">DGtal::TickedColorMap</text>
<text text-anchor="middle" x="135" y="-9" font-family="FreeSans" font-size="10.00">&lt; TValue, TColorMap &gt;</text>
</g>
<!-- Node2 -->
<g id="node2" class="node"><title>Node2</title>
<a xlink:href="classDGtal_1_1Color.html" target="_top" xlink:title="Structure representing an RGB triple with alpha component. ">
<polygon fill="white" stroke="black" points="0,-146.5 0,-167.5 74,-167.5 74,-146.5 0,-146.5"/>
<text text-anchor="middle" x="37" y="-154.5" font-family="FreeSans" font-size="10.00">DGtal::Color</text>
</a>
</g>
<!-- Node2&#45;&gt;Node1 -->
<g id="edge2" class="edge"><title>Node2&#45;&gt;Node1</title>
<path fill="none" stroke="#9a32cd" stroke-dasharray="5,2" d="M44.5017,-136.601C53.2121,-114.68 69.0994,-79.5497 90,-54 95.5746,-47.1854 102.634,-40.8019 109.499,-35.3584"/>
<polygon fill="#9a32cd" stroke="#9a32cd" points="41.1324,-135.611 40.8116,-146.201 47.6664,-138.123 41.1324,-135.611"/>
<text text-anchor="middle" x="120.5" y="-58.5" font-family="FreeSans" font-size="10.00"> myTickColor</text>
</g>
<!-- Node2&#45;&gt;Node2 -->
<g id="edge4" class="edge"><title>Node2&#45;&gt;Node2</title>
<path fill="none" stroke="#9a32cd" stroke-dasharray="5,2" d="M57.5404,-172.342C74.4346,-178.725 92,-173.611 92,-157 92,-137.312 67.3265,-133.775 48.3395,-146.387"/>
<polygon fill="#9a32cd" stroke="#9a32cd" points="58.8335,-169.071 48.3395,-167.613 55.6335,-175.297 58.8335,-169.071"/>
<text text-anchor="middle" x="113.5" y="-219.5" font-family="FreeSans" font-size="10.00"> Yellow</text>
<text text-anchor="middle" x="113.5" y="-206.5" font-family="FreeSans" font-size="10.00">Lime</text>
<text text-anchor="middle" x="113.5" y="-193.5" font-family="FreeSans" font-size="10.00">Navy</text>
<text text-anchor="middle" x="113.5" y="-180.5" font-family="FreeSans" font-size="10.00">Magenta</text>
<text text-anchor="middle" x="113.5" y="-167.5" font-family="FreeSans" font-size="10.00">White</text>
<text text-anchor="middle" x="113.5" y="-154.5" font-family="FreeSans" font-size="10.00">None</text>
<text text-anchor="middle" x="113.5" y="-141.5" font-family="FreeSans" font-size="10.00">Blue</text>
<text text-anchor="middle" x="113.5" y="-128.5" font-family="FreeSans" font-size="10.00">Aqua</text>
<text text-anchor="middle" x="113.5" y="-115.5" font-family="FreeSans" font-size="10.00">Purple</text>
<text text-anchor="middle" x="113.5" y="-102.5" font-family="FreeSans" font-size="10.00">Silver</text>
<text text-anchor="middle" x="113.5" y="-89.5" font-family="FreeSans" font-size="10.00">...</text>
</g>
<!-- Node3 -->
<g id="node5" class="node"><title>Node3</title>
<polygon fill="white" stroke="#bfbfbf" points="153,-140 153,-174 271,-174 271,-140 153,-140"/>
<text text-anchor="start" x="161" y="-161" font-family="FreeSans" font-size="10.00">std::vector&lt; std::pair</text>
<text text-anchor="middle" x="212" y="-148" font-family="FreeSans" font-size="10.00">&lt; Value, Value &gt; &gt;</text>
</g>
<!-- Node3&#45;&gt;Node1 -->
<g id="edge6" class="edge"><title>Node3&#45;&gt;Node1</title>
<path fill="none" stroke="#9a32cd" stroke-dasharray="5,2" d="M197.661,-131.116C182.144,-103.105 157.839,-59.2288 144.519,-35.1835"/>
<polygon fill="#9a32cd" stroke="#9a32cd" points="194.651,-132.904 202.558,-139.956 200.774,-129.512 194.651,-132.904"/>
<text text-anchor="middle" x="183" y="-58.5" font-family="FreeSans" font-size="10.00"> myTicks</text>
</g>
<!-- Node4 -->
<g id="node7" class="node"><title>Node4</title>
<a xlink:title="STL class. ">
<polygon fill="white" stroke="#bfbfbf" points="164.5,-290.5 164.5,-311.5 259.5,-311.5 259.5,-290.5 164.5,-290.5"/>
<text text-anchor="middle" x="212" y="-298.5" font-family="FreeSans" font-size="10.00">std::vector&lt; T &gt;</text>
</a>
</g>
<!-- Node4&#45;&gt;Node3 -->
<g id="edge8" class="edge"><title>Node4&#45;&gt;Node3</title>
<path fill="none" stroke="orange" stroke-dasharray="5,2" d="M212,-280.045C212,-251.38 212,-200.49 212,-174.035"/>
<polygon fill="orange" stroke="orange" points="208.5,-280.177 212,-290.177 215.5,-280.177 208.5,-280.177"/>
<text text-anchor="start" x="212" y="-263" font-family="FreeSans" font-size="10.00"> &lt; std::pair&lt; Value,</text>
<text text-anchor="middle" x="259" y="-250" font-family="FreeSans" font-size="10.00"> Value &gt; &gt;</text>
</g>
<!-- Node5 -->
<g id="node9" class="node"><title>Node5</title>
<polygon fill="white" stroke="#bfbfbf" points="197.5,-362.5 197.5,-383.5 226.5,-383.5 226.5,-362.5 197.5,-362.5"/>
<text text-anchor="middle" x="212" y="-370.5" font-family="FreeSans" font-size="10.00">T</text>
</g>
<!-- Node5&#45;&gt;Node4 -->
<g id="edge10" class="edge"><title>Node5&#45;&gt;Node4</title>
<path fill="none" stroke="#9a32cd" stroke-dasharray="5,2" d="M212,-352.235C212,-338.969 212,-322.319 212,-311.667"/>
<polygon fill="#9a32cd" stroke="#9a32cd" points="208.5,-352.376 212,-362.376 215.5,-352.376 208.5,-352.376"/>
<text text-anchor="middle" x="236.5" y="-334.5" font-family="FreeSans" font-size="10.00"> elements</text>
</g>
</g>
</svg>
