<?xml version="1.0" encoding="UTF-8" standalone="no"?>
<!DOCTYPE svg PUBLIC "-//W3C//DTD SVG 1.1//EN"
 "http://www.w3.org/Graphics/SVG/1.1/DTD/svg11.dtd">
<!-- Generated by graphviz version 2.26.3 (20100126.1600)
 -->
<!-- Title: DGtal::PreCellDirectionIterator&lt; dim, TInteger &gt; Pages: 1 -->
<svg width="343pt" height="544pt"
 viewBox="0.00 0.00 343.00 544.00" xmlns="http://www.w3.org/2000/svg" xmlns:xlink="http://www.w3.org/1999/xlink">
<g id="graph1" class="graph" transform="scale(1 1) rotate(0) translate(4 540)">
<title>DGtal::PreCellDirectionIterator&lt; dim, TInteger &gt;</title>
<polygon fill="white" stroke="white" points="-4,5 -4,-540 340,-540 340,5 -4,5"/>
<!-- Node1 -->
<g id="node1" class="node"><title>Node1</title>
<polygon fill="#bfbfbf" stroke="black" points="90.5,-1 90.5,-35 251.5,-35 251.5,-1 90.5,-1"/>
<text text-anchor="start" x="98.5" y="-22" font-family="FreeSans" font-size="10.00">DGtal::PreCellDirectionIterator</text>
<text text-anchor="middle" x="171" y="-9" font-family="FreeSans" font-size="10.00">&lt; dim, TInteger &gt;</text>
</g>
<!-- Node2 -->
<g id="node2" class="node"><title>Node2</title>
<a xlink:href="structDGtal_1_1KhalimskyPreCell.html" target="_top" xlink:title="DGtal::KhalimskyPreCell\l\&lt; dim, Integer \&gt;">
<polygon fill="white" stroke="black" points="105.5,-87 105.5,-121 236.5,-121 236.5,-87 105.5,-87"/>
<text text-anchor="start" x="113.5" y="-108" font-family="FreeSans" font-size="10.00">DGtal::KhalimskyPreCell</text>
<text text-anchor="middle" x="171" y="-95" font-family="FreeSans" font-size="10.00">&lt; dim, Integer &gt;</text>
</a>
</g>
<!-- Node2&#45;&gt;Node1 -->
<g id="edge2" class="edge"><title>Node2&#45;&gt;Node1</title>
<path fill="none" stroke="#9a32cd" stroke-dasharray="5,2" d="M171,-76.342C171,-62.7741 171,-46.8607 171,-35.084"/>
<polygon fill="#9a32cd" stroke="#9a32cd" points="167.5,-76.5966 171,-86.5966 174.5,-76.5967 167.5,-76.5966"/>
<text text-anchor="middle" x="189" y="-58.5" font-family="FreeSans" font-size="10.00"> myCell</text>
</g>
<!-- Node3 -->
<g id="node4" class="node"><title>Node3</title>
<a xlink:href="classDGtal_1_1PointVector.html" target="_top" xlink:title="DGtal::PointVector\l\&lt; dim, Integer \&gt;">
<polygon fill="white" stroke="black" points="91,-259 91,-293 195,-293 195,-259 91,-259"/>
<text text-anchor="start" x="99" y="-280" font-family="FreeSans" font-size="10.00">DGtal::PointVector</text>
<text text-anchor="middle" x="143" y="-267" font-family="FreeSans" font-size="10.00">&lt; dim, Integer &gt;</text>
</a>
</g>
<!-- Node3&#45;&gt;Node2 -->
<g id="edge4" class="edge"><title>Node3&#45;&gt;Node2</title>
<path fill="none" stroke="#9a32cd" stroke-dasharray="5,2" d="M136.743,-248.87C132.907,-227.658 129.804,-197.578 136,-172 140.47,-153.547 150.867,-134.491 159.175,-121.265"/>
<polygon fill="#9a32cd" stroke="#9a32cd" points="133.333,-249.668 138.709,-258.798 140.199,-248.308 133.333,-249.668"/>
<text text-anchor="middle" x="166" y="-187.5" font-family="FreeSans" font-size="10.00"> coordinates</text>
</g>
<!-- Node9 -->
<g id="node18" class="node"><title>Node9</title>
<a xlink:href="structDGtal_1_1KhalimskyPreCell.html" target="_top" xlink:title="DGtal::KhalimskyPreCell\l\&lt; dim, TInteger \&gt;">
<polygon fill="white" stroke="black" points="204.5,-173 204.5,-207 335.5,-207 335.5,-173 204.5,-173"/>
<text text-anchor="start" x="212.5" y="-194" font-family="FreeSans" font-size="10.00">DGtal::KhalimskyPreCell</text>
<text text-anchor="middle" x="270" y="-181" font-family="FreeSans" font-size="10.00">&lt; dim, TInteger &gt;</text>
</a>
</g>
<!-- Node3&#45;&gt;Node9 -->
<g id="edge22" class="edge"><title>Node3&#45;&gt;Node9</title>
<path fill="none" stroke="#9a32cd" stroke-dasharray="5,2" d="M176.839,-253.086C198.143,-238.659 225.192,-220.342 244.649,-207.167"/>
<polygon fill="#9a32cd" stroke="#9a32cd" points="174.713,-250.298 168.395,-258.803 178.638,-256.094 174.713,-250.298"/>
<text text-anchor="middle" x="244" y="-230.5" font-family="FreeSans" font-size="10.00"> coordinates</text>
</g>
<!-- Node4 -->
<g id="node6" class="node"><title>Node4</title>
<polygon fill="white" stroke="#bfbfbf" points="0,-351 0,-385 110,-385 110,-351 0,-351"/>
<text text-anchor="start" x="8" y="-372" font-family="FreeSans" font-size="10.00">std::array&lt; Integer,</text>
<text text-anchor="middle" x="55" y="-359" font-family="FreeSans" font-size="10.00"> dim &gt;</text>
</g>
<!-- Node4&#45;&gt;Node3 -->
<g id="edge6" class="edge"><title>Node4&#45;&gt;Node3</title>
<path fill="none" stroke="#9a32cd" stroke-dasharray="5,2" d="M69.2922,-342.105C75.5178,-332.081 83.3672,-320.903 92,-312 98.7147,-305.075 106.925,-298.614 114.779,-293.131"/>
<polygon fill="#9a32cd" stroke="#9a32cd" points="66.1709,-340.506 64.0555,-350.887 72.1832,-344.091 66.1709,-340.506"/>
<text text-anchor="middle" x="114" y="-316.5" font-family="FreeSans" font-size="10.00"> myArray</text>
</g>
<!-- Node5 -->
<g id="node8" class="node"><title>Node5</title>
<a xlink:title="STL class. ">
<polygon fill="white" stroke="#bfbfbf" points="10,-442.5 10,-463.5 100,-463.5 100,-442.5 10,-442.5"/>
<text text-anchor="middle" x="55" y="-450.5" font-family="FreeSans" font-size="10.00">std::array&lt; T &gt;</text>
</a>
</g>
<!-- Node5&#45;&gt;Node4 -->
<g id="edge8" class="edge"><title>Node5&#45;&gt;Node4</title>
<path fill="none" stroke="orange" stroke-dasharray="5,2" d="M55,-431.814C55,-417.41 55,-398.599 55,-385.139"/>
<polygon fill="orange" stroke="orange" points="51.5001,-432.235 55,-442.235 58.5001,-432.235 51.5001,-432.235"/>
<text text-anchor="middle" x="97" y="-414.5" font-family="FreeSans" font-size="10.00"> &lt; Integer, dim &gt;</text>
</g>
<!-- Node6 -->
<g id="node10" class="node"><title>Node6</title>
<polygon fill="white" stroke="#bfbfbf" points="40.5,-514.5 40.5,-535.5 69.5,-535.5 69.5,-514.5 40.5,-514.5"/>
<text text-anchor="middle" x="55" y="-522.5" font-family="FreeSans" font-size="10.00">T</text>
</g>
<!-- Node6&#45;&gt;Node5 -->
<g id="edge10" class="edge"><title>Node6&#45;&gt;Node5</title>
<path fill="none" stroke="#9a32cd" stroke-dasharray="5,2" d="M55,-504.235C55,-490.969 55,-474.319 55,-463.667"/>
<polygon fill="#9a32cd" stroke="#9a32cd" points="51.5001,-504.376 55,-514.376 58.5001,-504.376 51.5001,-504.376"/>
<text text-anchor="middle" x="79.5" y="-486.5" font-family="FreeSans" font-size="10.00"> elements</text>
</g>
<!-- Node7 -->
<g id="node12" class="node"><title>Node7</title>
<a xlink:href="classDGtal_1_1PointVector.html" target="_top" xlink:title="Aim: Implements basic operations that will be used in Point and Vector classes. ">
<polygon fill="white" stroke="black" points="128,-344.5 128,-391.5 254,-391.5 254,-344.5 128,-344.5"/>
<text text-anchor="start" x="136" y="-378.5" font-family="FreeSans" font-size="10.00">DGtal::PointVector</text>
<text text-anchor="start" x="136" y="-365.5" font-family="FreeSans" font-size="10.00">&lt; dim, TEuclideanRing,</text>
<text text-anchor="middle" x="191" y="-352.5" font-family="FreeSans" font-size="10.00"> TContainer &gt;</text>
</a>
</g>
<!-- Node7&#45;&gt;Node3 -->
<g id="edge12" class="edge"><title>Node7&#45;&gt;Node3</title>
<path fill="none" stroke="#9a32cd" stroke-dasharray="5,2" d="M150.411,-336.506C147.897,-333.207 145.699,-329.698 144,-326 139.36,-315.902 139.11,-303.402 140.02,-293.426"/>
<polygon fill="#9a32cd" stroke="#9a32cd" points="147.987,-339.049 157.214,-344.255 153.247,-334.431 147.987,-339.049"/>
<text text-anchor="middle" x="156.5" y="-316.5" font-family="FreeSans" font-size="10.00"> zero</text>
</g>
<!-- Node7&#45;&gt;Node3 -->
<g id="edge18" class="edge"><title>Node7&#45;&gt;Node3</title>
<path fill="none" stroke="orange" stroke-dasharray="5,2" d="M179.552,-334.813C176.478,-327.152 172.908,-319.155 169,-312 165.526,-305.64 161.098,-299.097 156.885,-293.362"/>
<polygon fill="orange" stroke="orange" points="176.322,-336.164 183.171,-344.248 182.858,-333.658 176.322,-336.164"/>
<text text-anchor="middle" x="217" y="-316.5" font-family="FreeSans" font-size="10.00"> &lt; dim, Integer &gt;</text>
</g>
<!-- Node7&#45;&gt;Node7 -->
<g id="edge16" class="edge"><title>Node7&#45;&gt;Node7</title>
<path fill="none" stroke="#9a32cd" stroke-dasharray="5,2" d="M264.09,-374.476C269.012,-372.982 272,-370.823 272,-368 272,-363.594 264.719,-360.805 254.168,-359.635"/>
<polygon fill="#9a32cd" stroke="#9a32cd" points="263.337,-371.057 254.168,-376.365 264.646,-377.933 263.337,-371.057"/>
<text text-anchor="middle" x="284.5" y="-365.5" font-family="FreeSans" font-size="10.00"> zero</text>
</g>
<!-- Node8 -->
<g id="node14" class="node"><title>Node8</title>
<polygon fill="white" stroke="#bfbfbf" points="157,-442.5 157,-463.5 225,-463.5 225,-442.5 157,-442.5"/>
<text text-anchor="middle" x="191" y="-450.5" font-family="FreeSans" font-size="10.00">TContainer</text>
</g>
<!-- Node8&#45;&gt;Node7 -->
<g id="edge14" class="edge"><title>Node8&#45;&gt;Node7</title>
<path fill="none" stroke="#9a32cd" stroke-dasharray="5,2" d="M191,-432.045C191,-419.759 191,-404.207 191,-391.504"/>
<polygon fill="#9a32cd" stroke="#9a32cd" points="187.5,-432.235 191,-442.235 194.5,-432.235 187.5,-432.235"/>
<text text-anchor="middle" x="213" y="-414.5" font-family="FreeSans" font-size="10.00"> myArray</text>
</g>
<!-- Node9&#45;&gt;Node2 -->
<g id="edge20" class="edge"><title>Node9&#45;&gt;Node2</title>
<path fill="none" stroke="orange" stroke-dasharray="5,2" d="M242.267,-165.909C225.845,-151.643 205.431,-133.91 190.666,-121.084"/>
<polygon fill="orange" stroke="orange" points="240.121,-168.681 249.966,-172.597 244.712,-163.396 240.121,-168.681"/>
<text text-anchor="middle" x="268" y="-144.5" font-family="FreeSans" font-size="10.00"> &lt; dim, Integer &gt;</text>
</g>
</g>
</svg>
