<?xml version="1.0" encoding="UTF-8" standalone="no"?>
<!DOCTYPE svg PUBLIC "-//W3C//DTD SVG 1.1//EN"
 "http://www.w3.org/Graphics/SVG/1.1/DTD/svg11.dtd">
<!-- Generated by graphviz version 2.26.3 (20100126.1600)
 -->
<!-- Title: DGtal::LabelledMap&lt; TData, L, TWord, N, M &gt;::ConstIterator Pages: 1 -->
<svg width="552pt" height="139pt"
 viewBox="0.00 0.00 552.00 139.00" xmlns="http://www.w3.org/2000/svg" xmlns:xlink="http://www.w3.org/1999/xlink">
<g id="graph1" class="graph" transform="scale(1 1) rotate(0) translate(4 135)">
<title>DGtal::LabelledMap&lt; TData, L, TWord, N, M &gt;::ConstIterator</title>
<polygon fill="white" stroke="white" points="-4,5 -4,-135 549,-135 549,5 -4,5"/>
<!-- Node1 -->
<g id="node1" class="node"><title>Node1</title>
<polygon fill="#bfbfbf" stroke="black" points="424.5,-25.5 424.5,-72.5 543.5,-72.5 543.5,-25.5 424.5,-25.5"/>
<text text-anchor="start" x="432.5" y="-59.5" font-family="FreeSans" font-size="10.00">DGtal::LabelledMap</text>
<text text-anchor="start" x="432.5" y="-46.5" font-family="FreeSans" font-size="10.00">&lt; TData, L, TWord, N,</text>
<text text-anchor="middle" x="484" y="-33.5" font-family="FreeSans" font-size="10.00"> M &gt;::ConstIterator</text>
</g>
<!-- Node2 -->
<g id="node2" class="node"><title>Node2</title>
<a xlink:href="classDGtal_1_1LabelledMap_1_1BlockConstIterator.html" target="_top" xlink:title="DGtal::LabelledMap\l\&lt; TData, L, TWord, N,\l M \&gt;::BlockConstIterator">
<polygon fill="white" stroke="black" points="198,-52.5 198,-99.5 332,-99.5 332,-52.5 198,-52.5"/>
<text text-anchor="start" x="206" y="-86.5" font-family="FreeSans" font-size="10.00">DGtal::LabelledMap</text>
<text text-anchor="start" x="206" y="-73.5" font-family="FreeSans" font-size="10.00">&lt; TData, L, TWord, N,</text>
<text text-anchor="middle" x="265" y="-60.5" font-family="FreeSans" font-size="10.00"> M &gt;::BlockConstIterator</text>
</a>
</g>
<!-- Node2&#45;&gt;Node1 -->
<g id="edge2" class="edge"><title>Node2&#45;&gt;Node1</title>
<path fill="none" stroke="#9a32cd" stroke-dasharray="5,2" d="M342.364,-66.4619C369.301,-63.141 399.083,-59.4692 424.36,-56.3529"/>
<polygon fill="#9a32cd" stroke="#9a32cd" points="341.692,-63.0182 332.196,-67.7156 342.549,-69.9656 341.692,-63.0182"/>
<text text-anchor="middle" x="378" y="-68" font-family="FreeSans" font-size="10.00"> myBlockIt</text>
</g>
<!-- Node3 -->
<g id="node4" class="node"><title>Node3</title>
<a xlink:href="structDGtal_1_1LabelledMap_1_1____AnyBlock.html" target="_top" xlink:title="DGtal::LabelledMap\l\&lt; TData, L, TWord, N,\l M \&gt;::__AnyBlock">
<polygon fill="white" stroke="black" points="0.5,-52.5 0.5,-99.5 119.5,-99.5 119.5,-52.5 0.5,-52.5"/>
<text text-anchor="start" x="8.5" y="-86.5" font-family="FreeSans" font-size="10.00">DGtal::LabelledMap</text>
<text text-anchor="start" x="8.5" y="-73.5" font-family="FreeSans" font-size="10.00">&lt; TData, L, TWord, N,</text>
<text text-anchor="middle" x="60" y="-60.5" font-family="FreeSans" font-size="10.00"> M &gt;::__AnyBlock</text>
</a>
</g>
<!-- Node3&#45;&gt;Node2 -->
<g id="edge4" class="edge"><title>Node3&#45;&gt;Node2</title>
<path fill="none" stroke="#9a32cd" stroke-dasharray="5,2" d="M129.812,-76C151.761,-76 175.944,-76 197.714,-76"/>
<polygon fill="#9a32cd" stroke="#9a32cd" points="129.57,-72.5001 119.57,-76 129.57,-79.5001 129.57,-72.5001"/>
<text text-anchor="middle" x="159" y="-80" font-family="FreeSans" font-size="10.00"> myNext</text>
</g>
<!-- Node3&#45;&gt;Node3 -->
<g id="edge6" class="edge"><title>Node3&#45;&gt;Node3</title>
<path fill="none" stroke="#9a32cd" stroke-dasharray="5,2" d="M43.4646,-109.864C46.1142,-114.729 51.626,-118 60,-118 73.3984,-118 79.4696,-109.626 78.2135,-99.7472"/>
<polygon fill="#9a32cd" stroke="#9a32cd" points="46.8758,-109.04 41.7865,-99.7472 39.9701,-110.185 46.8758,-109.04"/>
<text text-anchor="middle" x="60" y="-122" font-family="FreeSans" font-size="10.00"> next</text>
</g>
<!-- Node4 -->
<g id="node7" class="node"><title>Node4</title>
<a xlink:href="classDGtal_1_1Labels_1_1ConstEnumerator.html" target="_top" xlink:title="DGtal::Labels\&lt; L, TWord\l \&gt;::ConstEnumerator">
<polygon fill="white" stroke="black" points="199.5,-0 199.5,-34 330.5,-34 330.5,-0 199.5,-0"/>
<text text-anchor="start" x="207.5" y="-21" font-family="FreeSans" font-size="10.00">DGtal::Labels&lt; L, TWord</text>
<text text-anchor="middle" x="265" y="-8" font-family="FreeSans" font-size="10.00"> &gt;::ConstEnumerator</text>
</a>
</g>
<!-- Node4&#45;&gt;Node1 -->
<g id="edge8" class="edge"><title>Node4&#45;&gt;Node1</title>
<path fill="none" stroke="#9a32cd" stroke-dasharray="5,2" d="M340.634,-28.0516C368.003,-32.0507 398.503,-36.5073 424.311,-40.2783"/>
<polygon fill="#9a32cd" stroke="#9a32cd" points="341.108,-24.5837 330.707,-26.6011 340.096,-31.5102 341.108,-24.5837"/>
<text text-anchor="middle" x="378" y="-40" font-family="FreeSans" font-size="10.00"> myLabelsIt</text>
</g>
<!-- Node5 -->
<g id="node9" class="node"><title>Node5</title>
<polygon fill="white" stroke="#bfbfbf" points="37.5,-6.5 37.5,-27.5 82.5,-27.5 82.5,-6.5 37.5,-6.5"/>
<text text-anchor="middle" x="60" y="-14.5" font-family="FreeSans" font-size="10.00">TWord</text>
</g>
<!-- Node5&#45;&gt;Node4 -->
<g id="edge10" class="edge"><title>Node5&#45;&gt;Node4</title>
<path fill="none" stroke="#9a32cd" stroke-dasharray="5,2" d="M92.9705,-17C121.567,-17 163.824,-17 199.3,-17"/>
<polygon fill="#9a32cd" stroke="#9a32cd" points="92.7219,-13.5001 82.7219,-17 92.7218,-20.5001 92.7219,-13.5001"/>
<text text-anchor="middle" x="159" y="-21" font-family="FreeSans" font-size="10.00"> myWord</text>
</g>
</g>
</svg>
