<?xml version="1.0" encoding="UTF-8" standalone="no"?>
<!DOCTYPE svg PUBLIC "-//W3C//DTD SVG 1.1//EN"
 "http://www.w3.org/Graphics/SVG/1.1/DTD/svg11.dtd">
<!-- Generated by graphviz version 2.26.3 (20100126.1600)
 -->
<!-- Title: DGtal::LighterSternBrocot&lt; TInteger, TQuotient, TMap &gt; Pages: 1 -->
<svg width="235pt" height="238pt"
 viewBox="0.00 0.00 235.00 238.00" xmlns="http://www.w3.org/2000/svg" xmlns:xlink="http://www.w3.org/1999/xlink">
<g id="graph1" class="graph" transform="scale(1 1) rotate(0) translate(4 234)">
<title>DGtal::LighterSternBrocot&lt; TInteger, TQuotient, TMap &gt;</title>
<polygon fill="white" stroke="white" points="-4,5 -4,-234 232,-234 232,5 -4,5"/>
<!-- Node1 -->
<g id="node1" class="node"><title>Node1</title>
<polygon fill="#bfbfbf" stroke="black" points="0,-1 0,-35 162,-35 162,-1 0,-1"/>
<text text-anchor="start" x="8" y="-22" font-family="FreeSans" font-size="10.00">DGtal::LighterSternBrocot</text>
<text text-anchor="middle" x="81" y="-9" font-family="FreeSans" font-size="10.00">&lt; TInteger, TQuotient, TMap &gt;</text>
</g>
<!-- Node1&#45;&gt;Node1 -->
<g id="edge2" class="edge"><title>Node1&#45;&gt;Node1</title>
<path fill="none" stroke="#9a32cd" stroke-dasharray="5,2" d="M172.171,-23.9767C177.084,-22.5147 180,-20.5225 180,-18 180,-14.0625 172.894,-11.417 162.18,-10.0635"/>
<polygon fill="#9a32cd" stroke="#9a32cd" points="171.319,-20.577 162.18,-25.9365 172.666,-27.4461 171.319,-20.577"/>
<text text-anchor="middle" x="203.5" y="-15.5" font-family="FreeSans" font-size="10.00"> singleton</text>
</g>
<!-- Node2 -->
<g id="node3" class="node"><title>Node2</title>
<a xlink:href="structDGtal_1_1LighterSternBrocot_1_1Node.html" target="_top" xlink:title="DGtal::LighterSternBrocot\l\&lt; TInteger, TQuotient,\l TMap \&gt;::Node">
<polygon fill="white" stroke="black" points="11,-98.5 11,-145.5 151,-145.5 151,-98.5 11,-98.5"/>
<text text-anchor="start" x="19" y="-132.5" font-family="FreeSans" font-size="10.00">DGtal::LighterSternBrocot</text>
<text text-anchor="start" x="19" y="-119.5" font-family="FreeSans" font-size="10.00">&lt; TInteger, TQuotient,</text>
<text text-anchor="middle" x="81" y="-106.5" font-family="FreeSans" font-size="10.00"> TMap &gt;::Node</text>
</a>
</g>
<!-- Node2&#45;&gt;Node1 -->
<g id="edge4" class="edge"><title>Node2&#45;&gt;Node1</title>
<path fill="none" stroke="#9a32cd" stroke-dasharray="5,2" d="M81,-88.3704C81,-70.5589 81,-49.4476 81,-35.0261"/>
<polygon fill="#9a32cd" stroke="#9a32cd" points="77.5001,-88.4008 81,-98.4008 84.5001,-88.4008 77.5001,-88.4008"/>
<text text-anchor="middle" x="121.5" y="-71" font-family="FreeSans" font-size="10.00"> myOneOverOne</text>
<text text-anchor="middle" x="121.5" y="-58" font-family="FreeSans" font-size="10.00">myOneOverZero</text>
</g>
<!-- Node2&#45;&gt;Node2 -->
<g id="edge6" class="edge"><title>Node2&#45;&gt;Node2</title>
<path fill="none" stroke="#9a32cd" stroke-dasharray="5,2" d="M161.078,-129.067C166.024,-127.396 169,-125.04 169,-122 169,-117.254 161.749,-114.176 151.071,-112.767"/>
<polygon fill="#9a32cd" stroke="#9a32cd" points="160.104,-125.697 151.071,-131.233 161.585,-132.538 160.104,-125.697"/>
<text text-anchor="middle" x="192" y="-119.5" font-family="FreeSans" font-size="10.00"> myOrigin</text>
</g>
<!-- Node3 -->
<g id="node6" class="node"><title>Node3</title>
<polygon fill="white" stroke="#bfbfbf" points="53,-208.5 53,-229.5 109,-229.5 109,-208.5 53,-208.5"/>
<text text-anchor="middle" x="81" y="-216.5" font-family="FreeSans" font-size="10.00">TInteger</text>
</g>
<!-- Node3&#45;&gt;Node2 -->
<g id="edge8" class="edge"><title>Node3&#45;&gt;Node2</title>
<path fill="none" stroke="#9a32cd" stroke-dasharray="5,2" d="M81,-198.171C81,-182.766 81,-161.763 81,-145.713"/>
<polygon fill="#9a32cd" stroke="#9a32cd" points="77.5001,-198.249 81,-208.249 84.5001,-198.249 77.5001,-198.249"/>
<text text-anchor="middle" x="86" y="-181" font-family="FreeSans" font-size="10.00"> p</text>
<text text-anchor="middle" x="86" y="-168" font-family="FreeSans" font-size="10.00">q</text>
</g>
</g>
</svg>
