<?xml version="1.0" encoding="UTF-8" standalone="no"?>
<!DOCTYPE svg PUBLIC "-//W3C//DTD SVG 1.1//EN"
 "http://www.w3.org/Graphics/SVG/1.1/DTD/svg11.dtd">
<!-- Generated by graphviz version 2.26.3 (20100126.1600)
 -->
<!-- Title: DGtal::Signal&lt; TValue &gt; Pages: 1 -->
<svg width="279pt" height="396pt"
 viewBox="0.00 0.00 279.00 396.00" xmlns="http://www.w3.org/2000/svg" xmlns:xlink="http://www.w3.org/1999/xlink">
<g id="graph1" class="graph" transform="scale(1 1) rotate(0) translate(4 392)">
<title>DGtal::Signal&lt; TValue &gt;</title>
<polygon fill="white" stroke="white" points="-4,5 -4,-392 276,-392 276,5 -4,5"/>
<!-- Node1 -->
<g id="node1" class="node"><title>Node1</title>
<polygon fill="#bfbfbf" stroke="black" points="85.5,-0.5 85.5,-21.5 218.5,-21.5 218.5,-0.5 85.5,-0.5"/>
<text text-anchor="middle" x="152" y="-8.5" font-family="FreeSans" font-size="10.00">DGtal::Signal&lt; TValue &gt;</text>
</g>
<!-- Node2 -->
<g id="node2" class="node"><title>Node2</title>
<a xlink:href="classDGtal_1_1CowPtr.html" target="_top" xlink:title="DGtal::CowPtr\&lt; DGtal\l::SignalData\&lt; TValue \&gt; \&gt;">
<polygon fill="white" stroke="black" points="82,-73 82,-107 222,-107 222,-73 82,-73"/>
<text text-anchor="start" x="90" y="-94" font-family="FreeSans" font-size="10.00">DGtal::CowPtr&lt; DGtal</text>
<text text-anchor="middle" x="152" y="-81" font-family="FreeSans" font-size="10.00">::SignalData&lt; TValue &gt; &gt;</text>
</a>
</g>
<!-- Node2&#45;&gt;Node1 -->
<g id="edge2" class="edge"><title>Node2&#45;&gt;Node1</title>
<path fill="none" stroke="#9a32cd" stroke-dasharray="5,2" d="M152,-62.6228C152,-48.4727 152,-32.0243 152,-21.5672"/>
<polygon fill="#9a32cd" stroke="#9a32cd" points="148.5,-62.8581 152,-72.8582 155.5,-62.8582 148.5,-62.8581"/>
<text text-anchor="middle" x="172" y="-44.5" font-family="FreeSans" font-size="10.00"> m_data</text>
</g>
<!-- Node3 -->
<g id="node4" class="node"><title>Node3</title>
<a xlink:href="classDGtal_1_1CountedPtr.html" target="_top" xlink:title="DGtal::CountedPtr\&lt;\l DGtal::SignalData\&lt;\l TValue \&gt; \&gt;">
<polygon fill="white" stroke="black" points="-0.5,-170.5 -0.5,-217.5 112.5,-217.5 112.5,-170.5 -0.5,-170.5"/>
<text text-anchor="start" x="7.5" y="-204.5" font-family="FreeSans" font-size="10.00">DGtal::CountedPtr&lt;</text>
<text text-anchor="start" x="7.5" y="-191.5" font-family="FreeSans" font-size="10.00"> DGtal::SignalData&lt;</text>
<text text-anchor="middle" x="56" y="-178.5" font-family="FreeSans" font-size="10.00"> TValue &gt; &gt;</text>
</a>
</g>
<!-- Node3&#45;&gt;Node2 -->
<g id="edge4" class="edge"><title>Node3&#45;&gt;Node2</title>
<path fill="none" stroke="#9a32cd" stroke-dasharray="5,2" d="M84.7587,-162.845C101.649,-144.546 122.349,-122.122 136.284,-107.026"/>
<polygon fill="#9a32cd" stroke="#9a32cd" points="81.9949,-160.679 77.7839,-170.401 87.1385,-165.427 81.9949,-160.679"/>
<text text-anchor="middle" x="135" y="-136.5" font-family="FreeSans" font-size="10.00"> myPtr</text>
</g>
<!-- Node4 -->
<g id="node6" class="node"><title>Node4</title>
<a xlink:href="structDGtal_1_1CountedPtr_1_1Counter.html" target="_top" xlink:title="DGtal::CountedPtr\&lt;\l T \&gt;::Counter">
<polygon fill="white" stroke="black" points="27,-353 27,-387 139,-387 139,-353 27,-353"/>
<text text-anchor="start" x="35" y="-374" font-family="FreeSans" font-size="10.00">DGtal::CountedPtr&lt;</text>
<text text-anchor="middle" x="83" y="-361" font-family="FreeSans" font-size="10.00"> T &gt;::Counter</text>
</a>
</g>
<!-- Node4&#45;&gt;Node3 -->
<g id="edge6" class="edge"><title>Node4&#45;&gt;Node3</title>
<path fill="none" stroke="#9a32cd" stroke-dasharray="5,2" d="M66.5479,-344.202C59.6713,-331.929 52.4798,-316.741 49,-302 42.2656,-273.473 46.3381,-239.609 50.5474,-217.505"/>
<polygon fill="#9a32cd" stroke="#9a32cd" points="63.6049,-346.103 71.6784,-352.964 69.6455,-342.566 63.6049,-346.103"/>
<text text-anchor="middle" x="77.5" y="-288.5" font-family="FreeSans" font-size="10.00"> myCounter</text>
</g>
<!-- Node5 -->
<g id="node8" class="node"><title>Node5</title>
<a xlink:href="classDGtal_1_1CountedPtr.html" target="_top" xlink:title="Aim: Smart pointer based on reference counts. ">
<polygon fill="white" stroke="black" points="114.5,-280.5 114.5,-301.5 245.5,-301.5 245.5,-280.5 114.5,-280.5"/>
<text text-anchor="middle" x="180" y="-288.5" font-family="FreeSans" font-size="10.00">DGtal::CountedPtr&lt; T &gt;</text>
</a>
</g>
<!-- Node4&#45;&gt;Node5 -->
<g id="edge10" class="edge"><title>Node4&#45;&gt;Node5</title>
<path fill="none" stroke="#9a32cd" stroke-dasharray="5,2" d="M112.089,-346.309C130.368,-331.422 153.052,-312.947 167.025,-301.567"/>
<polygon fill="#9a32cd" stroke="#9a32cd" points="109.591,-343.829 104.048,-352.858 114.012,-349.257 109.591,-343.829"/>
<text text-anchor="middle" x="171.5" y="-324.5" font-family="FreeSans" font-size="10.00"> myCounter</text>
</g>
<!-- Node5&#45;&gt;Node3 -->
<g id="edge8" class="edge"><title>Node5&#45;&gt;Node3</title>
<path fill="none" stroke="orange" stroke-dasharray="5,2" d="M158.363,-274.074C138.421,-258.474 108.624,-235.166 86.314,-217.713"/>
<polygon fill="orange" stroke="orange" points="156.223,-276.844 166.256,-280.249 160.536,-271.331 156.223,-276.844"/>
<text text-anchor="start" x="139" y="-253" font-family="FreeSans" font-size="10.00"> &lt; DGtal::SignalData</text>
<text text-anchor="middle" x="189" y="-240" font-family="FreeSans" font-size="10.00">&lt; TValue &gt; &gt;</text>
</g>
<!-- Node6 -->
<g id="node11" class="node"><title>Node6</title>
<a xlink:href="classDGtal_1_1CowPtr.html" target="_top" xlink:title="Aim: Copy on write shared pointer. ">
<polygon fill="white" stroke="black" points="130,-183.5 130,-204.5 240,-204.5 240,-183.5 130,-183.5"/>
<text text-anchor="middle" x="185" y="-191.5" font-family="FreeSans" font-size="10.00">DGtal::CowPtr&lt; T &gt;</text>
</a>
</g>
<!-- Node6&#45;&gt;Node2 -->
<g id="edge12" class="edge"><title>Node6&#45;&gt;Node2</title>
<path fill="none" stroke="orange" stroke-dasharray="5,2" d="M178.516,-173.567C172.35,-154.132 163.18,-125.234 157.4,-107.017"/>
<polygon fill="orange" stroke="orange" points="175.232,-174.789 181.593,-183.262 181.904,-172.672 175.232,-174.789"/>
<text text-anchor="start" x="171" y="-143" font-family="FreeSans" font-size="10.00"> &lt; DGtal::SignalData</text>
<text text-anchor="middle" x="221" y="-130" font-family="FreeSans" font-size="10.00">&lt; TValue &gt; &gt;</text>
</g>
</g>
</svg>
