<?xml version="1.0" encoding="UTF-8" standalone="no"?>
<!DOCTYPE svg PUBLIC "-//W3C//DTD SVG 1.1//EN"
 "http://www.w3.org/Graphics/SVG/1.1/DTD/svg11.dtd">
<!-- Generated by graphviz version 2.26.3 (20100126.1600)
 -->
<!-- Title: DGtal::ImplicitHyperCube&lt; TSpace &gt; Pages: 1 -->
<svg width="182pt" height="214pt"
 viewBox="0.00 0.00 182.00 214.00" xmlns="http://www.w3.org/2000/svg" xmlns:xlink="http://www.w3.org/1999/xlink">
<g id="graph1" class="graph" transform="scale(1 1) rotate(0) translate(4 210)">
<title>DGtal::ImplicitHyperCube&lt; TSpace &gt;</title>
<polygon fill="white" stroke="white" points="-4,5 -4,-210 179,-210 179,5 -4,5"/>
<!-- Node1 -->
<g id="node1" class="node"><title>Node1</title>
<polygon fill="#bfbfbf" stroke="black" points="-0.5,-1 -0.5,-35 136.5,-35 136.5,-1 -0.5,-1"/>
<text text-anchor="start" x="7.5" y="-22" font-family="FreeSans" font-size="10.00">DGtal::ImplicitHyperCube</text>
<text text-anchor="middle" x="68" y="-9" font-family="FreeSans" font-size="10.00">&lt; TSpace &gt;</text>
</g>
<!-- Node2 -->
<g id="node2" class="node"><title>Node2</title>
<a xlink:href="classDGtal_1_1PointVector.html" target="_top" xlink:title="Aim: Implements basic operations that will be used in Point and Vector classes. ">
<polygon fill="white" stroke="black" points="5,-86.5 5,-133.5 131,-133.5 131,-86.5 5,-86.5"/>
<text text-anchor="start" x="13" y="-120.5" font-family="FreeSans" font-size="10.00">DGtal::PointVector</text>
<text text-anchor="start" x="13" y="-107.5" font-family="FreeSans" font-size="10.00">&lt; dim, TEuclideanRing,</text>
<text text-anchor="middle" x="68" y="-94.5" font-family="FreeSans" font-size="10.00"> TContainer &gt;</text>
</a>
</g>
<!-- Node2&#45;&gt;Node1 -->
<g id="edge2" class="edge"><title>Node2&#45;&gt;Node1</title>
<path fill="none" stroke="#9a32cd" stroke-dasharray="5,2" d="M68,-76.0812C68,-62.1835 68,-46.7024 68,-35.2202"/>
<polygon fill="#9a32cd" stroke="#9a32cd" points="64.5001,-76.3077 68,-86.3077 71.5001,-76.3077 64.5001,-76.3077"/>
<text text-anchor="middle" x="93.5" y="-58.5" font-family="FreeSans" font-size="10.00"> myCenter</text>
</g>
<!-- Node2&#45;&gt;Node2 -->
<g id="edge6" class="edge"><title>Node2&#45;&gt;Node2</title>
<path fill="none" stroke="#9a32cd" stroke-dasharray="5,2" d="M141.09,-116.476C146.012,-114.982 149,-112.823 149,-110 149,-105.594 141.719,-102.805 131.168,-101.635"/>
<polygon fill="#9a32cd" stroke="#9a32cd" points="140.337,-113.057 131.168,-118.365 141.646,-119.933 140.337,-113.057"/>
<text text-anchor="middle" x="161.5" y="-107.5" font-family="FreeSans" font-size="10.00"> zero</text>
</g>
<!-- Node3 -->
<g id="node4" class="node"><title>Node3</title>
<polygon fill="white" stroke="#bfbfbf" points="34,-184.5 34,-205.5 102,-205.5 102,-184.5 34,-184.5"/>
<text text-anchor="middle" x="68" y="-192.5" font-family="FreeSans" font-size="10.00">TContainer</text>
</g>
<!-- Node3&#45;&gt;Node2 -->
<g id="edge4" class="edge"><title>Node3&#45;&gt;Node2</title>
<path fill="none" stroke="#9a32cd" stroke-dasharray="5,2" d="M68,-174.045C68,-161.759 68,-146.207 68,-133.504"/>
<polygon fill="#9a32cd" stroke="#9a32cd" points="64.5001,-174.235 68,-184.235 71.5001,-174.235 64.5001,-174.235"/>
<text text-anchor="middle" x="90" y="-156.5" font-family="FreeSans" font-size="10.00"> myArray</text>
</g>
</g>
</svg>
