<?xml version="1.0" encoding="UTF-8" standalone="no"?>
<!DOCTYPE svg PUBLIC "-//W3C//DTD SVG 1.1//EN"
 "http://www.w3.org/Graphics/SVG/1.1/DTD/svg11.dtd">
<!-- Generated by graphviz version 2.26.3 (20100126.1600)
 -->
<!-- Title: DGtal::FMM&lt; TImage, TSet, TPointPredicate, TPointFunctor &gt; Pages: 1 -->
<svg width="190pt" height="324pt"
 viewBox="0.00 0.00 190.00 324.00" xmlns="http://www.w3.org/2000/svg" xmlns:xlink="http://www.w3.org/1999/xlink">
<g id="graph1" class="graph" transform="scale(1 1) rotate(0) translate(4 320)">
<title>DGtal::FMM&lt; TImage, TSet, TPointPredicate, TPointFunctor &gt;</title>
<polygon fill="white" stroke="white" points="-4,5 -4,-320 187,-320 187,5 -4,5"/>
<!-- Node1 -->
<g id="node1" class="node"><title>Node1</title>
<polygon fill="#bfbfbf" stroke="black" points="10.5,-0.5 10.5,-47.5 135.5,-47.5 135.5,-0.5 10.5,-0.5"/>
<text text-anchor="start" x="18.5" y="-34.5" font-family="FreeSans" font-size="10.00">DGtal::FMM&lt; TImage,</text>
<text text-anchor="start" x="18.5" y="-21.5" font-family="FreeSans" font-size="10.00"> TSet, TPointPredicate,</text>
<text text-anchor="middle" x="73" y="-8.5" font-family="FreeSans" font-size="10.00"> TPointFunctor &gt;</text>
</g>
<!-- Node2 -->
<g id="node2" class="node"><title>Node2</title>
<polygon fill="white" stroke="#bfbfbf" points="0,-98.5 0,-145.5 146,-145.5 146,-98.5 0,-98.5"/>
<text text-anchor="start" x="8" y="-132.5" font-family="FreeSans" font-size="10.00">std::set&lt; PointValue,</text>
<text text-anchor="start" x="8" y="-119.5" font-family="FreeSans" font-size="10.00"> detail::PointValueCompare</text>
<text text-anchor="middle" x="73" y="-106.5" font-family="FreeSans" font-size="10.00">&lt; PointValue &gt; &gt;</text>
</g>
<!-- Node2&#45;&gt;Node1 -->
<g id="edge2" class="edge"><title>Node2&#45;&gt;Node1</title>
<path fill="none" stroke="#9a32cd" stroke-dasharray="5,2" d="M73,-88.0002C73,-74.6377 73,-59.628 73,-47.5046"/>
<polygon fill="#9a32cd" stroke="#9a32cd" points="69.5001,-88.2769 73,-98.2769 76.5001,-88.277 69.5001,-88.2769"/>
<text text-anchor="middle" x="121.5" y="-70.5" font-family="FreeSans" font-size="10.00"> myCandidatePoints</text>
</g>
<!-- Node3 -->
<g id="node4" class="node"><title>Node3</title>
<a xlink:title="STL class. ">
<polygon fill="white" stroke="#bfbfbf" points="32.5,-222.5 32.5,-243.5 113.5,-243.5 113.5,-222.5 32.5,-222.5"/>
<text text-anchor="middle" x="73" y="-230.5" font-family="FreeSans" font-size="10.00">std::set&lt; K &gt;</text>
</a>
</g>
<!-- Node3&#45;&gt;Node2 -->
<g id="edge4" class="edge"><title>Node3&#45;&gt;Node2</title>
<path fill="none" stroke="orange" stroke-dasharray="5,2" d="M73,-212.12C73,-193.177 73,-165.275 73,-145.544"/>
<polygon fill="orange" stroke="orange" points="69.5001,-212.357 73,-222.357 76.5001,-212.357 69.5001,-212.357"/>
<text text-anchor="start" x="73" y="-194.5" font-family="FreeSans" font-size="10.00"> &lt; PointValue, detail</text>
<text text-anchor="start" x="73" y="-181.5" font-family="FreeSans" font-size="10.00">::PointValueCompare&lt;</text>
<text text-anchor="middle" x="127.5" y="-168.5" font-family="FreeSans" font-size="10.00"> PointValue &gt; &gt;</text>
</g>
<!-- Node4 -->
<g id="node6" class="node"><title>Node4</title>
<polygon fill="white" stroke="#bfbfbf" points="58.5,-294.5 58.5,-315.5 87.5,-315.5 87.5,-294.5 58.5,-294.5"/>
<text text-anchor="middle" x="73" y="-302.5" font-family="FreeSans" font-size="10.00">K</text>
</g>
<!-- Node4&#45;&gt;Node3 -->
<g id="edge6" class="edge"><title>Node4&#45;&gt;Node3</title>
<path fill="none" stroke="#9a32cd" stroke-dasharray="5,2" d="M73,-284.235C73,-270.969 73,-254.319 73,-243.667"/>
<polygon fill="#9a32cd" stroke="#9a32cd" points="69.5001,-284.376 73,-294.376 76.5001,-284.376 69.5001,-284.376"/>
<text text-anchor="middle" x="85.5" y="-266.5" font-family="FreeSans" font-size="10.00"> keys</text>
</g>
</g>
</svg>
