<?xml version="1.0" encoding="UTF-8" standalone="no"?>
<!DOCTYPE svg PUBLIC "-//W3C//DTD SVG 1.1//EN"
 "http://www.w3.org/Graphics/SVG/1.1/DTD/svg11.dtd">
<!-- Generated by graphviz version 2.26.3 (20100126.1600)
 -->
<!-- Title: DGtal Pages: 1 -->
<!--zoomable 113 -->
<svg id="main" version="1.1" xmlns="http://www.w3.org/2000/svg" xmlns:xlink="http://www.w3.org/1999/xlink" xml:space="preserve" onload="init(evt)">
<style type="text/css"><![CDATA[
.edge:hover path { stroke: red; }
.edge:hover polygon { stroke: red; fill: red; }
]]></style>
<script type="text/javascript"><![CDATA[
var edges = document.getElementsByTagName('g');
if (edges && edges.length) {
  for (var i=0;i<edges.length;i++) {
    if (edges[i].id.substr(0,4)=='edge') {
      edges[i].setAttribute('class','edge');
    }
  }
}
]]></script>
        <defs>
                <circle id="rim" cx="0" cy="0" r="7"/>
                <circle id="rim2" cx="0" cy="0" r="3.5"/>
                <g id="zoomPlus">
                        <use xlink:href="#rim" fill="#404040">
                                <set attributeName="fill" to="#808080" begin="zoomplus.mouseover" end="zoomplus.mouseout"/>
                        </use>
                        <path d="M-4,0h8M0,-4v8" fill="none" stroke="white" stroke-width="1.5" pointer-events="none"/>
                </g>
                <g id="zoomMin">
                        <use xlink:href="#rim" fill="#404040">
                                <set attributeName="fill" to="#808080" begin="zoomminus.mouseover" end="zoomminus.mouseout"/>
                        </use>
                        <path d="M-4,0h8" fill="none" stroke="white" stroke-width="1.5" pointer-events="none"/>
                </g>
                <g id="dirArrow">
                        <path fill="none" stroke="white" stroke-width="1.5" d="M0,-3.0v7 M-2.5,-0.5L0,-3.0L2.5,-0.5"/>
                </g>
               <g id="resetDef">
                       <use xlink:href="#rim2" fill="#404040">
                               <set attributeName="fill" to="#808080" begin="reset.mouseover" end="reset.mouseout"/>
                       </use>
               </g>
        </defs>

<script type="text/javascript">
var viewWidth = 996;
var viewHeight = 113;
var sectionId = 'dynsection-0';
</script>
<script xlink:href="svgpan.js"/>
<svg id="graph" class="graph">
<g id="viewport">
<title>DGtal</title>
<polygon fill="white" stroke="white" points="-4,5 -4,-109 993,-109 993,5 -4,5"/>
<g id="graph2" class="cluster"><title>clusterdir_68267d1309a1af8e8297ef4c3efbcdba</title>
<a xlink:href="dir_68267d1309a1af8e8297ef4c3efbcdba.html" target="_top" xlink:title="src">
<polygon fill="#ddddee" stroke="black" points="8,-8 8,-97 980,-97 980,-8 8,-8"/>
<text text-anchor="middle" x="494" y="-84" font-family="FreeSans" font-size="10.00">src</text>
</a>
</g>
<g id="graph3" class="cluster"><title>clusterdir_f2cd1aeea1cfa982bb13a5f95fa4218c</title>
<a xlink:href="dir_f2cd1aeea1cfa982bb13a5f95fa4218c.html" target="_top">
<polygon fill="#eeeeff" stroke="black" points="16,-16 16,-68 972,-68 972,-16 16,-16"/>
</a>
</g>
<!-- dir_f2cd1aeea1cfa982bb13a5f95fa4218c -->
<g id="node3" class="node"><title>dir_f2cd1aeea1cfa982bb13a5f95fa4218c</title>
<text text-anchor="middle" x="937" y="-39.5" font-family="FreeSans" font-size="10.00">DGtal</text>
</g>
<!-- dir_9d2942cdc6eb90f6470f789cdd6b5d2d -->
<g id="node4" class="node"><title>dir_9d2942cdc6eb90f6470f789cdd6b5d2d</title>
<a xlink:href="dir_9d2942cdc6eb90f6470f789cdd6b5d2d.html" target="_top" xlink:title="arithmetic">
<polygon fill="white" stroke="black" points="892,-60 828,-60 828,-24 892,-24 892,-60"/>
<text text-anchor="middle" x="860" y="-39.5" font-family="FreeSans" font-size="10.00">arithmetic</text>
</a>
</g>
<!-- dir_c72d96e2c8210585cd8a59fe221b7478 -->
<g id="node5" class="node"><title>dir_c72d96e2c8210585cd8a59fe221b7478</title>
<a xlink:href="dir_c72d96e2c8210585cd8a59fe221b7478.html" target="_top" xlink:title="base">
<polygon fill="white" stroke="black" points="810,-60 756,-60 756,-24 810,-24 810,-60"/>
<text text-anchor="middle" x="783" y="-39.5" font-family="FreeSans" font-size="10.00">base</text>
</a>
</g>
<!-- dir_dff551b9dd3c14b106f4789fe844a7f9 -->
<g id="node6" class="node"><title>dir_dff551b9dd3c14b106f4789fe844a7f9</title>
<a xlink:href="dir_dff551b9dd3c14b106f4789fe844a7f9.html" target="_top" xlink:title="dec">
<polygon fill="white" stroke="black" points="738,-60 684,-60 684,-24 738,-24 738,-60"/>
<text text-anchor="middle" x="711" y="-39.5" font-family="FreeSans" font-size="10.00">dec</text>
</a>
</g>
<!-- dir_754267a81a1dbd2dcdc6a3e6905a7e31 -->
<g id="node7" class="node"><title>dir_754267a81a1dbd2dcdc6a3e6905a7e31</title>
<a xlink:href="dir_754267a81a1dbd2dcdc6a3e6905a7e31.html" target="_top" xlink:title="geometry">
<polygon fill="white" stroke="red" points="666,-60 604,-60 604,-24 666,-24 666,-60"/>
<text text-anchor="middle" x="635" y="-39.5" font-family="FreeSans" font-size="10.00">geometry</text>
</a>
</g>
<!-- dir_5f560b4291223c6169be3d43857eb5b9 -->
<g id="node8" class="node"><title>dir_5f560b4291223c6169be3d43857eb5b9</title>
<a xlink:href="dir_5f560b4291223c6169be3d43857eb5b9.html" target="_top" xlink:title="graph">
<polygon fill="white" stroke="black" points="586,-60 532,-60 532,-24 586,-24 586,-60"/>
<text text-anchor="middle" x="559" y="-39.5" font-family="FreeSans" font-size="10.00">graph</text>
</a>
</g>
<!-- dir_cf30c0435acced65985fddead9ce96e2 -->
<g id="node9" class="node"><title>dir_cf30c0435acced65985fddead9ce96e2</title>
<a xlink:href="dir_cf30c0435acced65985fddead9ce96e2.html" target="_top" xlink:title="helpers">
<polygon fill="white" stroke="black" points="514,-60 460,-60 460,-24 514,-24 514,-60"/>
<text text-anchor="middle" x="487" y="-39.5" font-family="FreeSans" font-size="10.00">helpers</text>
</a>
</g>
<!-- dir_0b45b73c8a84e1e533b26fe370d7a80d -->
<g id="node10" class="node"><title>dir_0b45b73c8a84e1e533b26fe370d7a80d</title>
<a xlink:href="dir_0b45b73c8a84e1e533b26fe370d7a80d.html" target="_top" xlink:title="images">
<polygon fill="white" stroke="red" points="442,-60 388,-60 388,-24 442,-24 442,-60"/>
<text text-anchor="middle" x="415" y="-39.5" font-family="FreeSans" font-size="10.00">images</text>
</a>
</g>
<!-- dir_5520f6078718884549800e0f3c69770f -->
<g id="node11" class="node"><title>dir_5520f6078718884549800e0f3c69770f</title>
<a xlink:href="dir_5520f6078718884549800e0f3c69770f.html" target="_top" xlink:title="io">
<polygon fill="white" stroke="red" points="370,-60 316,-60 316,-24 370,-24 370,-60"/>
<text text-anchor="middle" x="343" y="-39.5" font-family="FreeSans" font-size="10.00">io</text>
</a>
</g>
<!-- dir_836e545d3226650d428fca2c7a499aa6 -->
<g id="node12" class="node"><title>dir_836e545d3226650d428fca2c7a499aa6</title>
<a xlink:href="dir_836e545d3226650d428fca2c7a499aa6.html" target="_top" xlink:title="kernel">
<polygon fill="white" stroke="red" points="298,-60 244,-60 244,-24 298,-24 298,-60"/>
<text text-anchor="middle" x="271" y="-39.5" font-family="FreeSans" font-size="10.00">kernel</text>
</a>
</g>
<!-- dir_b5108e809fa67f729d044e06289c9bff -->
<g id="node13" class="node"><title>dir_b5108e809fa67f729d044e06289c9bff</title>
<a xlink:href="dir_b5108e809fa67f729d044e06289c9bff.html" target="_top" xlink:title="math">
<polygon fill="white" stroke="red" points="226,-60 172,-60 172,-24 226,-24 226,-60"/>
<text text-anchor="middle" x="199" y="-39.5" font-family="FreeSans" font-size="10.00">math</text>
</a>
</g>
<!-- dir_b5cedd3610db960cb0235f10a76b8ff0 -->
<g id="node14" class="node"><title>dir_b5cedd3610db960cb0235f10a76b8ff0</title>
<a xlink:href="dir_b5cedd3610db960cb0235f10a76b8ff0.html" target="_top" xlink:title="shapes">
<polygon fill="white" stroke="red" points="154,-60 100,-60 100,-24 154,-24 154,-60"/>
<text text-anchor="middle" x="127" y="-39.5" font-family="FreeSans" font-size="10.00">shapes</text>
</a>
</g>
<!-- dir_beb349dd51fade10e83e4caaef469050 -->
<g id="node15" class="node"><title>dir_beb349dd51fade10e83e4caaef469050</title>
<a xlink:href="dir_beb349dd51fade10e83e4caaef469050.html" target="_top" xlink:title="topology">
<polygon fill="white" stroke="red" points="82,-60 24,-60 24,-24 82,-24 82,-60"/>
<text text-anchor="middle" x="53" y="-39.5" font-family="FreeSans" font-size="10.00">topology</text>
</a>
</g>
</g>
</svg>
        <g id="navigator" transform="translate(0 0)" fill="#404254">
                <rect fill="#f2f5e9" fill-opacity="0.5" stroke="#606060" stroke-width=".5" x="0" y="0" width="60" height="60"/>
                <use id="zoomplus" xlink:href="#zoomPlus" x="17" y="9" onmousedown="handleZoom(evt,'in')"/>
                <use id="zoomminus" xlink:href="#zoomMin" x="42" y="9" onmousedown="handleZoom(evt,'out')"/>
                <use id="reset" xlink:href="#resetDef" x="30" y="36" onmousedown="handleReset()"/>
                <g id="arrowUp" xlink:href="#dirArrow" transform="translate(30 24)" onmousedown="handlePan(0,-1)">
                  <use xlink:href="#rim" fill="#404040">
                        <set attributeName="fill" to="#808080" begin="arrowUp.mouseover" end="arrowUp.mouseout"/>
                  </use>
                  <path fill="none" stroke="white" stroke-width="1.5" d="M0,-3.0v7 M-2.5,-0.5L0,-3.0L2.5,-0.5"/>
                </g>
                <g id="arrowRight" xlink:href="#dirArrow" transform="rotate(90) translate(36 -43)" onmousedown="handlePan(1,0)">
                  <use xlink:href="#rim" fill="#404040">
                        <set attributeName="fill" to="#808080" begin="arrowRight.mouseover" end="arrowRight.mouseout"/>
                  </use>
                  <path fill="none" stroke="white" stroke-width="1.5" d="M0,-3.0v7 M-2.5,-0.5L0,-3.0L2.5,-0.5"/>
                </g>
                <g id="arrowDown" xlink:href="#dirArrow" transform="rotate(180) translate(-30 -48)" onmousedown="handlePan(0,1)">
                  <use xlink:href="#rim" fill="#404040">
                        <set attributeName="fill" to="#808080" begin="arrowDown.mouseover" end="arrowDown.mouseout"/>
                  </use>
                  <path fill="none" stroke="white" stroke-width="1.5" d="M0,-3.0v7 M-2.5,-0.5L0,-3.0L2.5,-0.5"/>
                </g>
                <g id="arrowLeft" xlink:href="#dirArrow" transform="rotate(270) translate(-36 17)" onmousedown="handlePan(-1,0)">
                  <use xlink:href="#rim" fill="#404040">
                        <set attributeName="fill" to="#808080" begin="arrowLeft.mouseover" end="arrowLeft.mouseout"/>
                  </use>
                  <path fill="none" stroke="white" stroke-width="1.5" d="M0,-3.0v7 M-2.5,-0.5L0,-3.0L2.5,-0.5"/>
                </g>
        </g>
        <svg viewBox="0 0 15 15" width="100%" height="30px" preserveAspectRatio="xMaxYMin meet">
         <g id="arrow_out" transform="scale(0.3 0.3)">
          <a xlink:href="dir_f2cd1aeea1cfa982bb13a5f95fa4218c_dep_org.svg" target="_base">
           <rect id="button" ry="5" rx="5" y="6" x="6" height="38" width="38"
                fill="#f2f5e9" fill-opacity="0.5" stroke="#606060" stroke-width="1.0"/>
           <path id="arrow"
             d="M 11.500037,31.436501 C 11.940474,20.09759 22.043105,11.32322 32.158766,21.979434 L 37.068811,17.246167 C 37.068811,17.246167 37.088388,32 37.088388,32 L 22.160133,31.978069 C 22.160133,31.978069 26.997745,27.140456 26.997745,27.140456 C 18.528582,18.264221 13.291696,25.230495 11.500037,31.436501 z"
             style="fill:#404040;"/>
          </a>
         </g>
        </svg>
</svg>
