<?xml version="1.0" encoding="UTF-8" standalone="no"?>
<!DOCTYPE svg PUBLIC "-//W3C//DTD SVG 1.1//EN"
 "http://www.w3.org/Graphics/SVG/1.1/DTD/svg11.dtd">
<!-- Generated by graphviz version 2.26.3 (20100126.1600)
 -->
<!-- Title: GTOPOLOGY Pages: 1 -->
<svg width="2374pt" height="544pt"
 viewBox="0.00 0.00 2374.00 544.00" xmlns="http://www.w3.org/2000/svg" xmlns:xlink="http://www.w3.org/1999/xlink">
<g id="graph1" class="graph" transform="scale(1 1) rotate(0) translate(4 540)">
<title>GTOPOLOGY</title>
<polygon fill="white" stroke="white" points="-4,5 -4,-540 2371,-540 2371,5 -4,5"/>
<g id="graph2" class="cluster"><title>cluster_ext</title>
</g>
<g id="graph3" class="cluster"><title>cluster_1</title>
<polygon fill="#eeeeff" stroke="#eeeeff" points="880,-364 880,-444 1024,-444 1024,-364 880,-364"/>
<text text-anchor="middle" x="952" y="-373.4" font-family="Times Roman,serif" font-size="14.00">base</text>
</g>
<g id="graph4" class="cluster"><title>cluster_2</title>
<polygon fill="#ddddff" stroke="#ddddff" points="1032,-364 1032,-520 1366,-520 1366,-364 1032,-364"/>
<text text-anchor="middle" x="1199" y="-373.4" font-family="Times Roman,serif" font-size="14.00">graph</text>
</g>
<g id="graph5" class="cluster"><title>cluster_3</title>
<polygon fill="#d4ddff" stroke="#d4ddff" points="1532,-364 1532,-444 1700,-444 1700,-364 1532,-364"/>
<text text-anchor="middle" x="1616" y="-373.4" font-family="Times Roman,serif" font-size="14.00">image</text>
</g>
<g id="graph6" class="cluster"><title>cluster_4</title>
<polygon fill="#e0eeff" stroke="#e0eeff" points="1374,-364 1374,-444 1524,-444 1524,-364 1374,-364"/>
<text text-anchor="middle" x="1449" y="-373.4" font-family="Times Roman,serif" font-size="14.00">kernel</text>
</g>
<g id="graph7" class="cluster"><title>cluster_5</title>
<polygon fill="white" stroke="white" points="590,-364 590,-444 872,-444 872,-364 590,-364"/>
<text text-anchor="middle" x="731" y="-373.4" font-family="Times Roman,serif" font-size="14.00">boost</text>
</g>
<g id="graph8" class="cluster"><title>cluster_0</title>
<polygon fill="lightgrey" stroke="lightgrey" points="343,-164 343,-336 861,-336 861,-164 343,-164"/>
<text text-anchor="middle" x="602" y="-173.4" font-family="Times Roman,serif" font-size="14.00">topology (main concepts)</text>
</g>
<g id="graph9" class="cluster"><title>cluster_models</title>
<polygon fill="#ccffcc" stroke="#ccffcc" points="8,-8 8,-130 2358,-130 2358,-8 8,-8"/>
<text text-anchor="middle" x="1183" y="-17.4" font-family="Times Roman,serif" font-size="14.00">topology (main models)</text>
</g>
<g id="graph10" class="cluster"><title>cluster_models_0</title>
<polygon fill="#ccf8cc" stroke="#ccf8cc" points="680,-42 680,-122 856,-122 856,-42 680,-42"/>
<text text-anchor="middle" x="768" y="-51.4" font-family="Times Roman,serif" font-size="14.00">(main graph models)</text>
</g>
<g id="graph11" class="cluster"><title>cluster_models_1</title>
<polygon fill="#cceecc" stroke="#cceecc" points="864,-42 864,-122 2350,-122 2350,-42 864,-42"/>
<text text-anchor="middle" x="1607" y="-51.4" font-family="Times Roman,serif" font-size="14.00">(main digital surface container models)</text>
</g>
<g id="graph12" class="cluster"><title>cluster_models_2</title>
<polygon fill="#cce8cc" stroke="#cce8cc" points="16,-42 16,-122 672,-122 672,-42 16,-42"/>
<text text-anchor="middle" x="344" y="-51.4" font-family="Times Roman,serif" font-size="14.00">(others)</text>
</g>
<!-- CPredicate -->
<g id="node3" class="node"><title>CPredicate</title>
<a xlink:href="structDGtal_1_1concepts_1_1CPredicate.html" target="_top" xlink:title="CPredicate">
<ellipse fill="white" stroke="white" cx="952" cy="-417" rx="63.8479" ry="18.3848"/>
<text text-anchor="middle" x="952" y="-413.4" font-family="Times Roman,serif" font-size="14.00">CPredicate</text>
</a>
</g>
<!-- CUndirectedSimpleGraph -->
<g id="node5" class="node"><title>CUndirectedSimpleGraph</title>
<a xlink:href="structDGtal_1_1concepts_1_1CUndirectedSimpleGraph.html" target="_top" xlink:title="CUndirectedSimpleGraph">
<ellipse fill="white" stroke="white" cx="1186" cy="-417" rx="133.851" ry="18.3848"/>
<text text-anchor="middle" x="1186" y="-413.4" font-family="Times Roman,serif" font-size="14.00">CUndirectedSimpleGraph</text>
</a>
</g>
<!-- CUndirectedSimpleLocalGraph -->
<g id="node6" class="node"><title>CUndirectedSimpleLocalGraph</title>
<a xlink:href="structDGtal_1_1concepts_1_1CUndirectedSimpleLocalGraph.html" target="_top" xlink:title="CUndirectedSimpleLocalGraph">
<ellipse fill="white" stroke="white" cx="1199" cy="-493" rx="159.099" ry="18.3848"/>
<text text-anchor="middle" x="1199" y="-489.4" font-family="Times Roman,serif" font-size="14.00">CUndirectedSimpleLocalGraph</text>
</a>
</g>
<!-- CUndirectedSimpleGraph&#45;&gt;CUndirectedSimpleLocalGraph -->
<g id="edge17" class="edge"><title>CUndirectedSimpleGraph&#45;&gt;CUndirectedSimpleLocalGraph</title>
<path fill="none" stroke="black" d="M1189.21,-435.787C1190.69,-444.438 1192.48,-454.892 1194.12,-464.485"/>
<polygon fill="black" stroke="black" points="1190.69,-465.163 1195.82,-474.43 1197.59,-463.983 1190.69,-465.163"/>
</g>
<!-- CConstImage -->
<g id="node8" class="node"><title>CConstImage</title>
<a xlink:href="structDGtal_1_1concepts_1_1CConstImage.html" target="_top" xlink:title="CConstImage">
<ellipse fill="white" stroke="white" cx="1616" cy="-417" rx="75.8684" ry="18.3848"/>
<text text-anchor="middle" x="1616" y="-413.4" font-family="Times Roman,serif" font-size="14.00">CConstImage</text>
</a>
</g>
<!-- CDigitalSet -->
<g id="node10" class="node"><title>CDigitalSet</title>
<a xlink:href="structDGtal_1_1concepts_1_1CDigitalSet.html" target="_top" xlink:title="CDigitalSet">
<ellipse fill="white" stroke="white" cx="1449" cy="-417" rx="67.1751" ry="18.3848"/>
<text text-anchor="middle" x="1449" y="-413.4" font-family="Times Roman,serif" font-size="14.00">CDigitalSet</text>
</a>
</g>
<!-- boost_CopyConstructible -->
<g id="node12" class="node"><title>boost_CopyConstructible</title>
<a xlink:href="structboost_1_1CopyConstructible.html" target="_top" xlink:title="boost::CopyConstructible">
<ellipse fill="orange" stroke="orange" cx="731" cy="-417" rx="133.143" ry="18.3848"/>
<text text-anchor="middle" x="731" y="-413.4" font-family="Times Roman,serif" font-size="14.00">boost::CopyConstructible</text>
</a>
</g>
<!-- CDigitalSurfaceContainer -->
<g id="node14" class="node"><title>CDigitalSurfaceContainer</title>
<a xlink:href="structDGtal_1_1concepts_1_1CDigitalSurfaceContainer.html" target="_top" xlink:title="CDigitalSurfaceContainer">
<ellipse fill="white" stroke="white" cx="718" cy="-217" rx="135.057" ry="18.3848"/>
<text text-anchor="middle" x="718" y="-213.4" font-family="Times Roman,serif" font-size="14.00">CDigitalSurfaceContainer</text>
</a>
</g>
<!-- CDigitalSurfaceContainer&#45;&gt;boost_CopyConstructible -->
<g id="edge9" class="edge"><title>CDigitalSurfaceContainer&#45;&gt;boost_CopyConstructible</title>
<path fill="none" stroke="black" d="M825.958,-228.242C857.087,-233.841 885.299,-242.062 895,-254 939.518,-308.786 845.49,-365.218 782.25,-395.183"/>
<polygon fill="black" stroke="black" points="780.755,-392.018 773.164,-399.409 783.707,-398.366 780.755,-392.018"/>
</g>
<!-- CDigitalSurfaceTracker -->
<g id="node15" class="node"><title>CDigitalSurfaceTracker</title>
<a xlink:href="structDGtal_1_1concepts_1_1CDigitalSurfaceTracker.html" target="_top" xlink:title="CDigitalSurfaceTracker">
<ellipse fill="white" stroke="white" cx="731" cy="-309" rx="121.83" ry="18.3848"/>
<text text-anchor="middle" x="731" y="-305.4" font-family="Times Roman,serif" font-size="14.00">CDigitalSurfaceTracker</text>
</a>
</g>
<!-- CDigitalSurfaceContainer&#45;&gt;CDigitalSurfaceTracker -->
<g id="edge13" class="edge"><title>CDigitalSurfaceContainer&#45;&gt;CDigitalSurfaceTracker</title>
<path fill="none" stroke="black" stroke-dasharray="5,2" d="M720.631,-235.618C722.446,-248.462 724.893,-265.784 726.955,-280.373"/>
<polygon fill="black" stroke="black" points="723.508,-280.998 728.373,-290.41 730.44,-280.019 723.508,-280.998"/>
<text text-anchor="middle" x="738.5" y="-259.4" font-family="Times Roman,serif" font-size="14.00">use</text>
</g>
<!-- CCellularGridSpaceND -->
<g id="node17" class="node"><title>CCellularGridSpaceND</title>
<a xlink:href="structDGtal_1_1concepts_1_1CCellularGridSpaceND.html" target="_top" xlink:title="CCellularGridSpaceND">
<ellipse fill="white" stroke="white" cx="471" cy="-309" rx="120.208" ry="18.3848"/>
<text text-anchor="middle" x="471" y="-305.4" font-family="Times Roman,serif" font-size="14.00">CCellularGridSpaceND</text>
</a>
</g>
<!-- CDigitalSurfaceContainer&#45;&gt;CCellularGridSpaceND -->
<g id="edge15" class="edge"><title>CDigitalSurfaceContainer&#45;&gt;CCellularGridSpaceND</title>
<path fill="none" stroke="black" stroke-dasharray="5,2" d="M671.251,-234.413C630.163,-249.717 570.297,-272.015 526.73,-288.242"/>
<polygon fill="black" stroke="black" points="525.289,-285.044 517.14,-291.814 527.732,-291.604 525.289,-285.044"/>
<text text-anchor="middle" x="629.5" y="-259.4" font-family="Times Roman,serif" font-size="14.00">use</text>
</g>
<!-- CDigitalSurfaceTracker&#45;&gt;boost_CopyConstructible -->
<g id="edge11" class="edge"><title>CDigitalSurfaceTracker&#45;&gt;boost_CopyConstructible</title>
<path fill="none" stroke="black" d="M731,-327.812C731,-344.46 731,-369.011 731,-388.142"/>
<polygon fill="black" stroke="black" points="727.5,-388.403 731,-398.403 734.5,-388.403 727.5,-388.403"/>
</g>
<!-- CSurfelPredicate -->
<g id="node16" class="node"><title>CSurfelPredicate</title>
<a xlink:href="structDGtal_1_1concepts_1_1CSurfelPredicate.html" target="_top" xlink:title="CSurfelPredicate">
<ellipse fill="white" stroke="white" cx="473" cy="-217" rx="92.1303" ry="18.3848"/>
<text text-anchor="middle" x="473" y="-213.4" font-family="Times Roman,serif" font-size="14.00">CSurfelPredicate</text>
</a>
</g>
<!-- CSurfelPredicate&#45;&gt;CPredicate -->
<g id="edge19" class="edge"><title>CSurfelPredicate&#45;&gt;CPredicate</title>
<path fill="none" stroke="black" d="M538.059,-230.098C549.984,-232.254 562.344,-234.327 574,-236 702.91,-254.499 757.497,-212.288 862,-290 897.458,-316.368 924.338,-360.865 939.132,-389.575"/>
<polygon fill="black" stroke="black" points="936.073,-391.283 943.68,-398.657 942.332,-388.148 936.073,-391.283"/>
</g>
<!-- DigitalSurface -->
<g id="node26" class="node"><title>DigitalSurface</title>
<a xlink:href="classDGtal_1_1DigitalSurface.html" target="_top" xlink:title="DigitalSurface">
<ellipse fill="white" stroke="white" cx="768" cy="-95" rx="79.9031" ry="18.3848"/>
<text text-anchor="middle" x="768" y="-91.4" font-family="Times Roman,serif" font-size="14.00">DigitalSurface</text>
</a>
</g>
<!-- DigitalSurface&#45;&gt;CUndirectedSimpleGraph -->
<g id="edge43" class="edge"><title>DigitalSurface&#45;&gt;CUndirectedSimpleGraph</title>
<path fill="none" stroke="black" d="M807.453,-111.317C823.579,-117.642 842.519,-124.637 860,-130 922.867,-149.289 949.34,-127.44 1004,-164 1090.62,-221.935 1149.91,-335.887 1173.97,-388.785"/>
<polygon fill="black" stroke="black" points="1170.91,-390.515 1178.19,-398.22 1177.31,-387.662 1170.91,-390.515"/>
</g>
<!-- DigitalSurface&#45;&gt;CDigitalSurfaceContainer -->
<g id="edge45" class="edge"><title>DigitalSurface&#45;&gt;CDigitalSurfaceContainer</title>
<path fill="none" stroke="black" stroke-dasharray="5,2" d="M761.757,-113.573C757.557,-125.739 751.753,-141.933 746,-156 741.521,-166.952 736.189,-178.814 731.387,-189.14"/>
<polygon fill="black" stroke="black" points="728.078,-187.951 726.989,-198.49 734.412,-190.93 728.078,-187.951"/>
<text text-anchor="middle" x="765.5" y="-143.4" font-family="Times Roman,serif" font-size="14.00">use</text>
</g>
<!-- DigitalSetBoundary -->
<g id="node28" class="node"><title>DigitalSetBoundary</title>
<a xlink:href="classDGtal_1_1DigitalSetBoundary.html" target="_top" xlink:title="DigitalSetBoundary">
<ellipse fill="white" stroke="white" cx="1639" cy="-95" rx="106.98" ry="18.3848"/>
<text text-anchor="middle" x="1639" y="-91.4" font-family="Times Roman,serif" font-size="14.00">DigitalSetBoundary</text>
</a>
</g>
<!-- DigitalSetBoundary&#45;&gt;CDigitalSet -->
<g id="edge27" class="edge"><title>DigitalSetBoundary&#45;&gt;CDigitalSet</title>
<path fill="none" stroke="black" stroke-dasharray="5,2" d="M1627.96,-113.704C1595.88,-168.075 1502.54,-326.26 1464.96,-389.957"/>
<polygon fill="black" stroke="black" points="1461.9,-388.255 1459.83,-398.646 1467.93,-391.812 1461.9,-388.255"/>
<text text-anchor="middle" x="1556.5" y="-259.4" font-family="Times Roman,serif" font-size="14.00">use</text>
</g>
<!-- DigitalSetBoundary&#45;&gt;CDigitalSurfaceContainer -->
<g id="edge25" class="edge"><title>DigitalSetBoundary&#45;&gt;CDigitalSurfaceContainer</title>
<path fill="none" stroke="black" d="M1591.26,-111.584C1570.51,-118.221 1545.78,-125.374 1523,-130 1291.31,-177.049 1016.61,-199.828 855.403,-209.92"/>
<polygon fill="black" stroke="black" points="854.715,-206.456 844.951,-210.567 855.148,-213.443 854.715,-206.456"/>
</g>
<!-- ImplicitDigitalSurface -->
<g id="node29" class="node"><title>ImplicitDigitalSurface</title>
<a xlink:href="classDGtal_1_1ImplicitDigitalSurface.html" target="_top" xlink:title="ImplicitDigitalSurface">
<ellipse fill="white" stroke="white" cx="987" cy="-95" rx="114.759" ry="18.3848"/>
<text text-anchor="middle" x="987" y="-91.4" font-family="Times Roman,serif" font-size="14.00">ImplicitDigitalSurface</text>
</a>
</g>
<!-- ImplicitDigitalSurface&#45;&gt;CDigitalSurfaceContainer -->
<g id="edge29" class="edge"><title>ImplicitDigitalSurface&#45;&gt;CDigitalSurfaceContainer</title>
<path fill="none" stroke="black" d="M948.459,-112.48C900.592,-134.189 818.891,-171.243 766.726,-194.901"/>
<polygon fill="black" stroke="black" points="765.006,-191.838 757.344,-199.156 767.897,-198.213 765.006,-191.838"/>
</g>
<!-- LightImplicitDigitalSurface -->
<g id="node30" class="node"><title>LightImplicitDigitalSurface</title>
<a xlink:href="classDGtal_1_1LightImplicitDigitalSurface.html" target="_top" xlink:title="LightImplicitDigitalSurface">
<ellipse fill="white" stroke="white" cx="2202" cy="-95" rx="140.007" ry="18.3848"/>
<text text-anchor="middle" x="2202" y="-91.4" font-family="Times Roman,serif" font-size="14.00">LightImplicitDigitalSurface</text>
</a>
</g>
<!-- LightImplicitDigitalSurface&#45;&gt;CUndirectedSimpleLocalGraph -->
<g id="edge37" class="edge"><title>LightImplicitDigitalSurface&#45;&gt;CUndirectedSimpleLocalGraph</title>
<path fill="none" stroke="black" d="M2178.32,-113.352C2153.17,-135.108 2117,-173.89 2117,-217 2117,-217 2117,-217 2117,-417 2117,-454.425 1626.03,-477.758 1362.2,-487.594"/>
<polygon fill="black" stroke="black" points="1362,-484.099 1352.14,-487.967 1362.26,-491.094 1362,-484.099"/>
</g>
<!-- LightImplicitDigitalSurface&#45;&gt;CDigitalSurfaceContainer -->
<g id="edge35" class="edge"><title>LightImplicitDigitalSurface&#45;&gt;CDigitalSurfaceContainer</title>
<path fill="none" stroke="black" d="M2141.18,-111.685C2114.35,-118.424 2082.3,-125.627 2053,-130 1825.41,-163.965 1150.32,-197.473 856.838,-210.883"/>
<polygon fill="black" stroke="black" points="856.39,-207.4 846.56,-211.352 856.709,-214.393 856.39,-207.4"/>
</g>
<!-- SetOfSurfels -->
<g id="node31" class="node"><title>SetOfSurfels</title>
<a xlink:href="classDGtal_1_1SetOfSurfels.html" target="_top" xlink:title="SetOfSurfels">
<ellipse fill="white" stroke="white" cx="1193" cy="-95" rx="72.832" ry="18.3848"/>
<text text-anchor="middle" x="1193" y="-91.4" font-family="Times Roman,serif" font-size="14.00">SetOfSurfels</text>
</a>
</g>
<!-- SetOfSurfels&#45;&gt;CDigitalSurfaceContainer -->
<g id="edge31" class="edge"><title>SetOfSurfels&#45;&gt;CDigitalSurfaceContainer</title>
<path fill="none" stroke="black" d="M1158.43,-111.445C1144,-117.862 1126.92,-124.89 1111,-130 1011.62,-161.904 894.425,-186.195 814.033,-200.896"/>
<polygon fill="black" stroke="black" points="813.139,-197.501 803.925,-202.73 814.389,-204.389 813.139,-197.501"/>
</g>
<!-- ExplicitDigitalSurface -->
<g id="node32" class="node"><title>ExplicitDigitalSurface</title>
<a xlink:href="classDGtal_1_1ExplicitDigitalSurface.html" target="_top" xlink:title="ExplicitDigitalSurface">
<ellipse fill="white" stroke="white" cx="1399" cy="-95" rx="114.759" ry="18.3848"/>
<text text-anchor="middle" x="1399" y="-91.4" font-family="Times Roman,serif" font-size="14.00">ExplicitDigitalSurface</text>
</a>
</g>
<!-- ExplicitDigitalSurface&#45;&gt;CDigitalSurfaceContainer -->
<g id="edge33" class="edge"><title>ExplicitDigitalSurface&#45;&gt;CDigitalSurfaceContainer</title>
<path fill="none" stroke="black" d="M1345.95,-111.489C1324.12,-117.876 1298.49,-124.869 1275,-130 1122.08,-163.397 942.85,-189.02 829.857,-203.548"/>
<polygon fill="black" stroke="black" points="829.285,-200.092 819.81,-204.833 830.173,-207.036 829.285,-200.092"/>
</g>
<!-- LightExplicitDigitalSurface -->
<g id="node33" class="node"><title>LightExplicitDigitalSurface</title>
<a xlink:href="classDGtal_1_1LightExplicitDigitalSurface.html" target="_top" xlink:title="LightExplicitDigitalSurface">
<ellipse fill="white" stroke="white" cx="1904" cy="-95" rx="140.007" ry="18.3848"/>
<text text-anchor="middle" x="1904" y="-91.4" font-family="Times Roman,serif" font-size="14.00">LightExplicitDigitalSurface</text>
</a>
</g>
<!-- LightExplicitDigitalSurface&#45;&gt;CUndirectedSimpleLocalGraph -->
<g id="edge41" class="edge"><title>LightExplicitDigitalSurface&#45;&gt;CUndirectedSimpleLocalGraph</title>
<path fill="none" stroke="black" d="M1877.88,-113.306C1850.68,-134.74 1812,-172.964 1812,-217 1812,-217 1812,-217 1812,-417 1812,-462.257 1545.46,-480.875 1363.89,-488.307"/>
<polygon fill="black" stroke="black" points="1363.54,-484.818 1353.69,-488.716 1363.82,-491.812 1363.54,-484.818"/>
</g>
<!-- LightExplicitDigitalSurface&#45;&gt;CDigitalSurfaceContainer -->
<g id="edge39" class="edge"><title>LightExplicitDigitalSurface&#45;&gt;CDigitalSurfaceContainer</title>
<path fill="none" stroke="black" d="M1842.06,-111.683C1815.44,-118.296 1783.87,-125.404 1755,-130 1437.14,-180.604 1059.48,-202.91 859.18,-211.796"/>
<polygon fill="black" stroke="black" points="858.731,-208.312 848.894,-212.248 859.038,-215.306 858.731,-208.312"/>
</g>
<!-- SurfelSetPredicate -->
<g id="node35" class="node"><title>SurfelSetPredicate</title>
<a xlink:href="structDGtal_1_1functors_1_1SurfelSetPredicate.html" target="_top" xlink:title="SurfelSetPredicate">
<ellipse fill="white" stroke="white" cx="562" cy="-95" rx="102.03" ry="18.3848"/>
<text text-anchor="middle" x="562" y="-91.4" font-family="Times Roman,serif" font-size="14.00">SurfelSetPredicate</text>
</a>
</g>
<!-- SurfelSetPredicate&#45;&gt;CSurfelPredicate -->
<g id="edge47" class="edge"><title>SurfelSetPredicate&#45;&gt;CSurfelPredicate</title>
<path fill="none" stroke="black" d="M548.483,-113.529C533.65,-133.862 509.699,-166.693 492.76,-189.914"/>
<polygon fill="black" stroke="black" points="489.71,-188.155 486.644,-198.296 495.366,-192.28 489.71,-188.155"/>
</g>
<!-- BoundaryPredicate -->
<g id="node36" class="node"><title>BoundaryPredicate</title>
<a xlink:href="classDGtal_1_1functors_1_1BoundaryPredicate.html" target="_top" xlink:title="BoundaryPredicate">
<ellipse fill="white" stroke="white" cx="338" cy="-95" rx="104.151" ry="18.3848"/>
<text text-anchor="middle" x="338" y="-91.4" font-family="Times Roman,serif" font-size="14.00">BoundaryPredicate</text>
</a>
</g>
<!-- BoundaryPredicate&#45;&gt;CConstImage -->
<g id="edge57" class="edge"><title>BoundaryPredicate&#45;&gt;CConstImage</title>
<path fill="none" stroke="black" stroke-dasharray="5,2" d="M383.89,-111.63C404.201,-118.358 428.533,-125.569 451,-130 578.394,-155.127 612.435,-147.43 742,-156 762.641,-157.365 908.953,-155.932 928,-164 970.844,-182.148 966.645,-208.259 1004,-236 1029.89,-255.227 1036.7,-260.951 1067,-272 1262.66,-343.352 1335.63,-276.208 1528,-356 1549.49,-364.916 1571.01,-379.697 1587.39,-392.477"/>
<polygon fill="black" stroke="black" points="1585.46,-395.418 1595.45,-398.935 1589.83,-389.953 1585.46,-395.418"/>
<text text-anchor="middle" x="1079.5" y="-259.4" font-family="Times Roman,serif" font-size="14.00">use</text>
</g>
<!-- BoundaryPredicate&#45;&gt;CSurfelPredicate -->
<g id="edge49" class="edge"><title>BoundaryPredicate&#45;&gt;CSurfelPredicate</title>
<path fill="none" stroke="black" d="M358.211,-113.265C381.275,-134.108 419.143,-168.329 445.031,-191.724"/>
<polygon fill="black" stroke="black" points="442.885,-194.502 452.651,-198.611 447.578,-189.309 442.885,-194.502"/>
</g>
<!-- BoundaryPredicate&#45;&gt;CCellularGridSpaceND -->
<g id="edge53" class="edge"><title>BoundaryPredicate&#45;&gt;CCellularGridSpaceND</title>
<path fill="none" stroke="black" stroke-dasharray="5,2" d="M334.043,-113.529C328.993,-142.14 323.49,-197.761 347,-236 361.56,-259.682 386.893,-276.57 410.882,-288.094"/>
<polygon fill="black" stroke="black" points="409.434,-291.281 419.985,-292.252 412.342,-284.914 409.434,-291.281"/>
<text text-anchor="middle" x="359.5" y="-213.4" font-family="Times Roman,serif" font-size="14.00">use</text>
</g>
<!-- FrontierPredicate -->
<g id="node37" class="node"><title>FrontierPredicate</title>
<a xlink:href="classDGtal_1_1functors_1_1FrontierPredicate.html" target="_top" xlink:title="FrontierPredicate">
<ellipse fill="white" stroke="white" cx="120" cy="-95" rx="96.1665" ry="18.3848"/>
<text text-anchor="middle" x="120" y="-91.4" font-family="Times Roman,serif" font-size="14.00">FrontierPredicate</text>
</a>
</g>
<!-- FrontierPredicate&#45;&gt;CConstImage -->
<g id="edge59" class="edge"><title>FrontierPredicate&#45;&gt;CConstImage</title>
<path fill="none" stroke="black" stroke-dasharray="5,2" d="M162.563,-111.612C181.422,-118.337 204.042,-125.55 225,-130 254.265,-136.214 463.135,-154.233 493,-156 513.635,-157.221 846.269,-155.256 865,-164 903.53,-181.985 894.512,-209.797 928,-236 1004.4,-295.777 1028.32,-310.82 1122,-336 1209.24,-359.448 1442.47,-326.927 1528,-356 1550.48,-363.642 1572.44,-378.845 1588.79,-392.161"/>
<polygon fill="black" stroke="black" points="1586.9,-395.145 1596.81,-398.902 1591.41,-389.787 1586.9,-395.145"/>
<text text-anchor="middle" x="987.5" y="-259.4" font-family="Times Roman,serif" font-size="14.00">use</text>
</g>
<!-- FrontierPredicate&#45;&gt;CSurfelPredicate -->
<g id="edge51" class="edge"><title>FrontierPredicate&#45;&gt;CSurfelPredicate</title>
<path fill="none" stroke="black" d="M161.235,-111.84C197.061,-125.792 250.65,-145.047 299,-156 328.679,-162.723 337.843,-155.287 367,-164 390.826,-171.12 415.781,-183.33 435.488,-194.237"/>
<polygon fill="black" stroke="black" points="434.004,-197.419 444.431,-199.296 437.451,-191.326 434.004,-197.419"/>
</g>
<!-- FrontierPredicate&#45;&gt;CCellularGridSpaceND -->
<g id="edge55" class="edge"><title>FrontierPredicate&#45;&gt;CCellularGridSpaceND</title>
<path fill="none" stroke="black" stroke-dasharray="5,2" d="M138.917,-113.353C177.076,-149.337 267.379,-229.352 358,-272 372.019,-278.598 387.532,-284.507 402.457,-289.565"/>
<polygon fill="black" stroke="black" points="401.565,-292.956 412.158,-292.765 403.757,-286.309 401.565,-292.956"/>
<text text-anchor="middle" x="304.5" y="-213.4" font-family="Times Roman,serif" font-size="14.00">use</text>
</g>
</g>
</svg>
