<?xml version="1.0" encoding="UTF-8" standalone="no"?>
<!DOCTYPE svg PUBLIC "-//W3C//DTD SVG 1.1//EN"
 "http://www.w3.org/Graphics/SVG/1.1/DTD/svg11.dtd">
<!-- Generated by graphviz version 2.26.3 (20100126.1600)
 -->
<!-- Title: GBASE Pages: 1 -->
<svg width="534pt" height="252pt"
 viewBox="0.00 0.00 534.00 252.00" xmlns="http://www.w3.org/2000/svg" xmlns:xlink="http://www.w3.org/1999/xlink">
<g id="graph1" class="graph" transform="scale(1 1) rotate(0) translate(4 248)">
<title>GBASE</title>
<polygon fill="white" stroke="white" points="-4,5 -4,-248 531,-248 531,5 -4,5"/>
<g id="graph2" class="cluster"><title>cluster_0</title>
<polygon fill="lightgrey" stroke="lightgrey" points="8,-8 8,-236 518,-236 518,-8 8,-8"/>
<text text-anchor="middle" x="263" y="-17.4" font-family="Times Roman,serif" font-size="14.00">Base</text>
</g>
<!-- CSinglePassRange -->
<g id="node2" class="node"><title>CSinglePassRange</title>
<a xlink:href="structDGtal_1_1concepts_1_1CSinglePassRange.html" target="_top" xlink:title="CSinglePassRange">
<ellipse fill="white" stroke="white" cx="116" cy="-135" rx="99.9096" ry="18.3848"/>
<text text-anchor="middle" x="116" y="-131.4" font-family="Times Roman,serif" font-size="14.00">CSinglePassRange</text>
</a>
</g>
<!-- CConstSinglePassRange -->
<g id="node3" class="node"><title>CConstSinglePassRange</title>
<a xlink:href="structDGtal_1_1concepts_1_1CConstSinglePassRange.html" target="_top" xlink:title="CConstSinglePassRange">
<ellipse fill="white" stroke="white" cx="258" cy="-209" rx="128.193" ry="18.3848"/>
<text text-anchor="middle" x="258" y="-205.4" font-family="Times Roman,serif" font-size="14.00">CConstSinglePassRange</text>
</a>
</g>
<!-- CSinglePassRange&#45;&gt;CConstSinglePassRange -->
<g id="edge3" class="edge"><title>CSinglePassRange&#45;&gt;CConstSinglePassRange</title>
<path fill="none" stroke="black" d="M149.652,-152.537C169.084,-162.664 193.734,-175.51 214.612,-186.389"/>
<polygon fill="black" stroke="black" points="213.118,-189.557 223.603,-191.075 216.353,-183.35 213.118,-189.557"/>
</g>
<!-- CBidirectionalRange -->
<g id="node4" class="node"><title>CBidirectionalRange</title>
<a xlink:href="structDGtal_1_1concepts_1_1CBidirectionalRange.html" target="_top" xlink:title="CBidirectionalRange">
<ellipse fill="white" stroke="white" cx="248" cy="-61" rx="109.101" ry="18.3848"/>
<text text-anchor="middle" x="248" y="-57.4" font-family="Times Roman,serif" font-size="14.00">CBidirectionalRange</text>
</a>
</g>
<!-- CBidirectionalRange&#45;&gt;CSinglePassRange -->
<g id="edge7" class="edge"><title>CBidirectionalRange&#45;&gt;CSinglePassRange</title>
<path fill="none" stroke="black" d="M216.383,-78.7248C198.342,-88.8388 175.545,-101.619 156.237,-112.443"/>
<polygon fill="black" stroke="black" points="154.371,-109.477 147.359,-117.42 157.794,-115.583 154.371,-109.477"/>
</g>
<!-- CConstBidirectionalRange -->
<g id="node5" class="node"><title>CConstBidirectionalRange</title>
<a xlink:href="structDGtal_1_1concepts_1_1CConstBidirectionalRange.html" target="_top" xlink:title="CConstBidirectionalRange">
<ellipse fill="white" stroke="white" cx="372" cy="-135" rx="137.886" ry="18.3848"/>
<text text-anchor="middle" x="372" y="-131.4" font-family="Times Roman,serif" font-size="14.00">CConstBidirectionalRange</text>
</a>
</g>
<!-- CBidirectionalRange&#45;&gt;CConstBidirectionalRange -->
<g id="edge9" class="edge"><title>CBidirectionalRange&#45;&gt;CConstBidirectionalRange</title>
<path fill="none" stroke="black" d="M278.017,-78.9133C294.375,-88.6753 314.823,-100.878 332.465,-111.406"/>
<polygon fill="black" stroke="black" points="331.017,-114.618 341.398,-116.738 334.605,-108.607 331.017,-114.618"/>
</g>
<!-- CConstBidirectionalRange&#45;&gt;CConstSinglePassRange -->
<g id="edge5" class="edge"><title>CConstBidirectionalRange&#45;&gt;CConstSinglePassRange</title>
<path fill="none" stroke="black" d="M343.82,-153.292C328.911,-162.97 310.431,-174.966 294.443,-185.344"/>
<polygon fill="black" stroke="black" points="292.338,-182.538 285.856,-190.918 296.149,-188.409 292.338,-182.538"/>
</g>
</g>
</svg>
