<?xml version="1.0" encoding="UTF-8" standalone="no"?>
<!DOCTYPE svg PUBLIC "-//W3C//DTD SVG 1.1//EN"
 "http://www.w3.org/Graphics/SVG/1.1/DTD/svg11.dtd">
<!-- Generated by graphviz version 2.26.3 (20100126.1600)
 -->
<!-- Title: metric_concepts_2_vor Pages: 1 -->
<svg width="664pt" height="220pt"
 viewBox="0.00 0.00 664.00 220.00" xmlns="http://www.w3.org/2000/svg" xmlns:xlink="http://www.w3.org/1999/xlink">
<g id="graph1" class="graph" transform="scale(1 1) rotate(0) translate(4 216)">
<title>metric_concepts_2_vor</title>
<polygon fill="white" stroke="white" points="-4,5 -4,-216 661,-216 661,5 -4,5"/>
<text text-anchor="middle" x="328" y="-9.4" font-family="Times Roman,serif" font-size="14.00">Main metric concepts</text>
<!-- CMetricSpace -->
<g id="node1" class="node"><title>CMetricSpace</title>
<a xlink:href="structDGtal_1_1concepts_1_1CMetricSpace.html" target="_top" xlink:title="CMetricSpace">
<ellipse fill="none" stroke="black" cx="333" cy="-45" rx="77.7817" ry="18.3848"/>
<text text-anchor="middle" x="333" y="-41.4" font-family="Times Roman,serif" font-size="14.00">CMetricSpace</text>
</a>
</g>
<!-- CDigitalMetricSpace -->
<g id="node2" class="node"><title>CDigitalMetricSpace</title>
<a xlink:href="structDGtal_1_1concepts_1_1CDigitalMetricSpace.html" target="_top" xlink:title="CDigitalMetricSpace">
<ellipse fill="none" stroke="black" cx="109" cy="-119" rx="109.101" ry="18.3848"/>
<text text-anchor="middle" x="109" y="-115.4" font-family="Times Roman,serif" font-size="14.00">CDigitalMetricSpace</text>
</a>
</g>
<!-- CSeparableMetric -->
<g id="node3" class="node"><title>CSeparableMetric</title>
<a xlink:href="structDGtal_1_1concepts_1_1CSeparableMetric.html" target="_top" xlink:title="CSeparableMetric">
<ellipse fill="none" stroke="black" cx="333" cy="-119" rx="96.8736" ry="18.3848"/>
<text text-anchor="middle" x="333" y="-115.4" font-family="Times Roman,serif" font-size="14.00">CSeparableMetric</text>
</a>
</g>
<!-- CSeparableMetric&#45;&gt;CMetricSpace -->
<g id="edge2" class="edge"><title>CSeparableMetric&#45;&gt;CMetricSpace</title>
<path fill="none" stroke="black" d="M327.048,-100.327C326.283,-92.2639 326.068,-82.6477 326.403,-73.7115"/>
<polygon fill="black" stroke="black" points="329.9,-73.8712 327.048,-63.6674 322.914,-73.4223 329.9,-73.8712"/>
</g>
<!-- CSeparableMetric&#45;&gt;CMetricSpace -->
<g id="edge4" class="edge"><title>CSeparableMetric&#45;&gt;CMetricSpace</title>
<path fill="none" stroke="black" d="M338.952,-100.327C339.717,-92.2639 339.932,-82.6477 339.597,-73.7115"/>
<polygon fill="black" stroke="black" points="343.086,-73.4223 338.952,-63.6674 336.1,-73.8712 343.086,-73.4223"/>
</g>
<!-- CDigitalSeparableMetric -->
<g id="node4" class="node"><title>CDigitalSeparableMetric</title>
<ellipse fill="none" stroke="black" cx="181" cy="-193" rx="128.193" ry="18.3848"/>
<text text-anchor="middle" x="181" y="-189.4" font-family="Times Roman,serif" font-size="14.00">CDigitalSeparableMetric</text>
</g>
<!-- CDigitalSeparableMetric&#45;&gt;CDigitalMetricSpace -->
<g id="edge6" class="edge"><title>CDigitalSeparableMetric&#45;&gt;CDigitalMetricSpace</title>
<path fill="none" stroke="black" d="M162.831,-174.327C154.067,-165.319 143.417,-154.373 133.91,-144.602"/>
<polygon fill="black" stroke="black" points="136.396,-142.138 126.913,-137.411 131.378,-147.019 136.396,-142.138"/>
</g>
<!-- CDigitalSeparableMetric&#45;&gt;CSeparableMetric -->
<g id="edge8" class="edge"><title>CDigitalSeparableMetric&#45;&gt;CSeparableMetric</title>
<path fill="none" stroke="black" d="M217.795,-175.087C239.108,-164.711 266.086,-151.577 288.577,-140.627"/>
<polygon fill="black" stroke="black" points="290.131,-143.763 297.591,-136.239 287.067,-137.469 290.131,-143.763"/>
</g>
<!-- CPowerMetric -->
<g id="node5" class="node"><title>CPowerMetric</title>
<a xlink:href="structDGtal_1_1concepts_1_1CPowerMetric.html" target="_top" xlink:title="CPowerMetric">
<ellipse fill="none" stroke="black" cx="528" cy="-119" rx="79.9031" ry="18.3848"/>
<text text-anchor="middle" x="528" y="-115.4" font-family="Times Roman,serif" font-size="14.00">CPowerMetric</text>
</a>
</g>
<!-- CPowerSeparableMetric -->
<g id="node6" class="node"><title>CPowerSeparableMetric</title>
<a xlink:href="structDGtal_1_1concepts_1_1CPowerSeparableMetric.html" target="_top" xlink:title="CPowerSeparableMetric">
<ellipse fill="none" stroke="black" cx="528" cy="-193" rx="127.986" ry="18.3848"/>
<text text-anchor="middle" x="528" y="-189.4" font-family="Times Roman,serif" font-size="14.00">CPowerSeparableMetric</text>
</a>
</g>
<!-- CPowerSeparableMetric&#45;&gt;CPowerMetric -->
<g id="edge10" class="edge"><title>CPowerSeparableMetric&#45;&gt;CPowerMetric</title>
<path fill="none" stroke="black" d="M528,-174.327C528,-166.264 528,-156.648 528,-147.711"/>
<polygon fill="black" stroke="black" points="531.5,-147.667 528,-137.667 524.5,-147.667 531.5,-147.667"/>
</g>
</g>
</svg>
