<?xml version="1.0" encoding="UTF-8" standalone="no"?>
<!DOCTYPE svg PUBLIC "-//W3C//DTD SVG 1.1//EN"
 "http://www.w3.org/Graphics/SVG/1.1/DTD/svg11.dtd">
<!-- Generated by graphviz version 2.26.3 (20100126.1600)
 -->
<!-- Title: GGeom Pages: 1 -->
<svg width="1542pt" height="340pt"
 viewBox="0.00 0.00 1542.00 340.00" xmlns="http://www.w3.org/2000/svg" xmlns:xlink="http://www.w3.org/1999/xlink">
<g id="graph1" class="graph" transform="scale(1 1) rotate(0) translate(4 336)">
<title>GGeom</title>
<polygon fill="white" stroke="white" points="-4,5 -4,-336 1539,-336 1539,5 -4,5"/>
<g id="graph3" class="cluster"><title>cluster_concepts_1</title>
<polygon fill="lightgrey" stroke="lightgrey" points="8,-170 8,-324 1378,-324 1378,-170 8,-170"/>
<text text-anchor="middle" x="693" y="-179.4" font-family="Times Roman,serif" font-size="14.00">Shapes (main concepts)</text>
</g>
<g id="graph4" class="cluster"><title>cluster_models</title>
<polygon fill="#ccffcc" stroke="#ccffcc" points="598,-8 598,-162 1526,-162 1526,-8 598,-8"/>
<text text-anchor="middle" x="1062" y="-17.4" font-family="Times Roman,serif" font-size="14.00">Shapes (main models)</text>
</g>
<!-- CEuclideanOrientedShape -->
<g id="node3" class="node"><title>CEuclideanOrientedShape</title>
<a xlink:href="structDGtal_1_1concepts_1_1CEuclideanOrientedShape.html" target="_top" xlink:title="CEuclideanOrientedShape">
<ellipse fill="white" stroke="white" cx="1232" cy="-223" rx="138.093" ry="18.3848"/>
<text text-anchor="middle" x="1232" y="-219.4" font-family="Times Roman,serif" font-size="14.00">CEuclideanOrientedShape</text>
</a>
</g>
<!-- CEuclideanBoundedShape -->
<g id="node4" class="node"><title>CEuclideanBoundedShape</title>
<a xlink:href="structDGtal_1_1concepts_1_1CEuclideanBoundedShape.html" target="_top" xlink:title="CEuclideanBoundedShape">
<ellipse fill="white" stroke="white" cx="674" cy="-223" rx="138.093" ry="18.3848"/>
<text text-anchor="middle" x="674" y="-219.4" font-family="Times Roman,serif" font-size="14.00">CEuclideanBoundedShape</text>
</a>
</g>
<!-- CDigitalOrientedShape -->
<g id="node5" class="node"><title>CDigitalOrientedShape</title>
<a xlink:href="structDGtal_1_1concepts_1_1CDigitalOrientedShape.html" target="_top" xlink:title="CDigitalOrientedShape">
<ellipse fill="white" stroke="white" cx="395" cy="-223" rx="123.243" ry="18.3848"/>
<text text-anchor="middle" x="395" y="-219.4" font-family="Times Roman,serif" font-size="14.00">CDigitalOrientedShape</text>
</a>
</g>
<!-- CDigitalBoundedShape -->
<g id="node6" class="node"><title>CDigitalBoundedShape</title>
<a xlink:href="structDGtal_1_1concepts_1_1CDigitalBoundedShape.html" target="_top" xlink:title="CDigitalBoundedShape">
<ellipse fill="white" stroke="white" cx="953" cy="-223" rx="123.243" ry="18.3848"/>
<text text-anchor="middle" x="953" y="-219.4" font-family="Times Roman,serif" font-size="14.00">CDigitalBoundedShape</text>
</a>
</g>
<!-- CImplicitFunction -->
<g id="node7" class="node"><title>CImplicitFunction</title>
<a xlink:href="structDGtal_1_1concepts_1_1CImplicitFunction.html" target="_top" xlink:title="CImplicitFunction">
<ellipse fill="white" stroke="white" cx="705" cy="-297" rx="94.9596" ry="18.3848"/>
<text text-anchor="middle" x="705" y="-293.4" font-family="Times Roman,serif" font-size="14.00">CImplicitFunction</text>
</a>
</g>
<!-- CImplicitFunctionDiff1 -->
<g id="node8" class="node"><title>CImplicitFunctionDiff1</title>
<a xlink:href="structDGtal_1_1concepts_1_1CImplicitFunctionDiff1.html" target="_top" xlink:title="CImplicitFunctionDiff1">
<ellipse fill="white" stroke="white" cx="135" cy="-223" rx="119.001" ry="18.3848"/>
<text text-anchor="middle" x="135" y="-219.4" font-family="Times Roman,serif" font-size="14.00">CImplicitFunctionDiff1</text>
</a>
</g>
<!-- CImplicitFunctionDiff1&#45;&gt;CImplicitFunction -->
<g id="edge4" class="edge"><title>CImplicitFunctionDiff1&#45;&gt;CImplicitFunction</title>
<path fill="none" stroke="black" d="M220.336,-235.953C234.575,-238.032 249.199,-240.117 263,-242 383.991,-258.505 523.899,-275.576 613.348,-286.234"/>
<polygon fill="black" stroke="black" points="613.117,-289.731 623.461,-287.437 613.944,-282.78 613.117,-289.731"/>
</g>
<!-- StarShaped2D -->
<g id="node11" class="node"><title>StarShaped2D</title>
<a xlink:href="classDGtal_1_1StarShaped2D.html" target="_top" xlink:title="StarShaped2D">
<ellipse fill="white" stroke="white" cx="925" cy="-135" rx="82.2301" ry="18.3848"/>
<text text-anchor="middle" x="925" y="-131.4" font-family="Times Roman,serif" font-size="14.00">StarShaped2D</text>
</a>
</g>
<!-- StarShaped2D&#45;&gt;CEuclideanOrientedShape -->
<g id="edge9" class="edge"><title>StarShaped2D&#45;&gt;CEuclideanOrientedShape</title>
<path fill="none" stroke="black" d="M988.166,-146.834C1017.79,-152.889 1053.44,-160.902 1085,-170 1116.36,-179.042 1150.71,-191.292 1178.32,-201.737"/>
<polygon fill="black" stroke="black" points="1177.2,-205.054 1187.79,-205.348 1179.69,-198.513 1177.2,-205.054"/>
</g>
<!-- StarShaped2D&#45;&gt;CEuclideanBoundedShape -->
<g id="edge7" class="edge"><title>StarShaped2D&#45;&gt;CEuclideanBoundedShape</title>
<path fill="none" stroke="black" d="M878.851,-150.295C860.779,-156.346 839.889,-163.417 821,-170 791.339,-180.337 758.439,-192.164 731.297,-202.02"/>
<polygon fill="black" stroke="black" points="729.776,-198.849 721.575,-205.556 732.169,-205.428 729.776,-198.849"/>
</g>
<!-- StarShaped2D&#45;&gt;CDigitalOrientedShape -->
<g id="edge13" class="edge"><title>StarShaped2D&#45;&gt;CDigitalOrientedShape</title>
<path fill="none" stroke="black" d="M866.336,-147.942C839.801,-153.254 807.961,-158.881 779,-162 723.294,-168 581.835,-158.497 527,-170 496.568,-176.384 464.139,-189.309 439.039,-200.797"/>
<polygon fill="black" stroke="black" points="437.377,-197.711 429.798,-205.113 440.34,-204.053 437.377,-197.711"/>
</g>
<!-- StarShaped2D&#45;&gt;CDigitalBoundedShape -->
<g id="edge11" class="edge"><title>StarShaped2D&#45;&gt;CDigitalBoundedShape</title>
<path fill="none" stroke="black" d="M930.938,-153.663C934.725,-165.563 939.705,-181.215 943.975,-194.635"/>
<polygon fill="black" stroke="black" points="940.703,-195.896 947.07,-204.364 947.374,-193.774 940.703,-195.896"/>
</g>
<!-- StarShaped3D -->
<g id="node12" class="node"><title>StarShaped3D</title>
<a xlink:href="classDGtal_1_1StarShaped3D.html" target="_top" xlink:title="StarShaped3D">
<ellipse fill="white" stroke="white" cx="688" cy="-135" rx="82.2301" ry="18.3848"/>
<text text-anchor="middle" x="688" y="-131.4" font-family="Times Roman,serif" font-size="14.00">StarShaped3D</text>
</a>
</g>
<!-- StarShaped3D&#45;&gt;CEuclideanOrientedShape -->
<g id="edge17" class="edge"><title>StarShaped3D&#45;&gt;CEuclideanOrientedShape</title>
<path fill="none" stroke="black" d="M746.664,-147.94C773.199,-153.252 805.04,-158.879 834,-162 889.485,-167.98 1030.19,-159.518 1085,-170 1118.85,-176.473 1155.3,-189.571 1183.43,-201.125"/>
<polygon fill="black" stroke="black" points="1182.44,-204.506 1193.02,-205.135 1185.14,-198.048 1182.44,-204.506"/>
</g>
<!-- StarShaped3D&#45;&gt;CEuclideanBoundedShape -->
<g id="edge15" class="edge"><title>StarShaped3D&#45;&gt;CEuclideanBoundedShape</title>
<path fill="none" stroke="black" d="M685.031,-153.663C683.156,-165.446 680.696,-180.908 678.575,-194.24"/>
<polygon fill="black" stroke="black" points="675.079,-193.939 676.965,-204.364 681.993,-195.038 675.079,-193.939"/>
</g>
<!-- StarShaped3D&#45;&gt;CDigitalOrientedShape -->
<g id="edge21" class="edge"><title>StarShaped3D&#45;&gt;CDigitalOrientedShape</title>
<path fill="none" stroke="black" d="M623.508,-146.446C593.819,-152.37 558.309,-160.386 527,-170 498.761,-178.672 468.092,-190.811 443.429,-201.285"/>
<polygon fill="black" stroke="black" points="441.753,-198.195 433.944,-205.355 444.514,-204.627 441.753,-198.195"/>
</g>
<!-- StarShaped3D&#45;&gt;CDigitalBoundedShape -->
<g id="edge19" class="edge"><title>StarShaped3D&#45;&gt;CDigitalBoundedShape</title>
<path fill="none" stroke="black" d="M745.085,-148.363C768.768,-154.335 796.406,-161.861 821,-170 848.734,-179.178 879.023,-191.191 903.583,-201.459"/>
<polygon fill="black" stroke="black" points="902.468,-204.787 913.042,-205.445 905.186,-198.336 902.468,-204.787"/>
</g>
<!-- Flower2D -->
<g id="node13" class="node"><title>Flower2D</title>
<a xlink:href="classDGtal_1_1Flower2D.html" target="_top" xlink:title="Flower2D">
<ellipse fill="white" stroke="white" cx="1169" cy="-61" rx="58.8978" ry="18.3848"/>
<text text-anchor="middle" x="1169" y="-57.4" font-family="Times Roman,serif" font-size="14.00">Flower2D</text>
</a>
</g>
<!-- Flower2D&#45;&gt;StarShaped2D -->
<g id="edge23" class="edge"><title>Flower2D&#45;&gt;StarShaped2D</title>
<path fill="none" stroke="black" d="M1126.5,-73.8898C1087.02,-85.8626 1027.87,-103.801 983.859,-117.149"/>
<polygon fill="black" stroke="black" points="982.701,-113.843 974.148,-120.095 984.733,-120.542 982.701,-113.843"/>
</g>
<!-- Ball2D -->
<g id="node14" class="node"><title>Ball2D</title>
<a xlink:href="classDGtal_1_1Ball2D.html" target="_top" xlink:title="Ball2D">
<ellipse fill="white" stroke="white" cx="1048" cy="-61" rx="43.8406" ry="18.3848"/>
<text text-anchor="middle" x="1048" y="-57.4" font-family="Times Roman,serif" font-size="14.00">Ball2D</text>
</a>
</g>
<!-- Ball2D&#45;&gt;StarShaped2D -->
<g id="edge27" class="edge"><title>Ball2D&#45;&gt;StarShaped2D</title>
<path fill="none" stroke="black" d="M1022.51,-76.3328C1005.18,-86.7589 981.964,-100.729 962.529,-112.421"/>
<polygon fill="black" stroke="black" points="960.666,-109.458 953.901,-117.612 964.274,-115.456 960.666,-109.458"/>
</g>
<!-- AccFlower2D -->
<g id="node15" class="node"><title>AccFlower2D</title>
<a xlink:href="classDGtal_1_1AccFlower2D.html" target="_top" xlink:title="AccFlower2D">
<ellipse fill="white" stroke="white" cx="911" cy="-61" rx="75.1594" ry="18.3848"/>
<text text-anchor="middle" x="911" y="-57.4" font-family="Times Roman,serif" font-size="14.00">AccFlower2D</text>
</a>
</g>
<!-- AccFlower2D&#45;&gt;StarShaped2D -->
<g id="edge29" class="edge"><title>AccFlower2D&#45;&gt;StarShaped2D</title>
<path fill="none" stroke="black" d="M914.533,-79.6733C916.058,-87.7361 917.877,-97.3523 919.568,-106.289"/>
<polygon fill="black" stroke="black" points="916.17,-107.158 921.468,-116.333 923.048,-105.856 916.17,-107.158"/>
</g>
<!-- NGon2D -->
<g id="node16" class="node"><title>NGon2D</title>
<a xlink:href="classDGtal_1_1NGon2D.html" target="_top" xlink:title="NGon2D">
<ellipse fill="white" stroke="white" cx="765" cy="-61" rx="53.2379" ry="18.3848"/>
<text text-anchor="middle" x="765" y="-57.4" font-family="Times Roman,serif" font-size="14.00">NGon2D</text>
</a>
</g>
<!-- NGon2D&#45;&gt;StarShaped2D -->
<g id="edge25" class="edge"><title>NGon2D&#45;&gt;StarShaped2D</title>
<path fill="none" stroke="black" d="M796.994,-75.7972C820.629,-86.7285 853.136,-101.763 879.476,-113.945"/>
<polygon fill="black" stroke="black" points="878.328,-117.271 888.874,-118.292 881.267,-110.917 878.328,-117.271"/>
</g>
<!-- Ball3D -->
<g id="node17" class="node"><title>Ball3D</title>
<a xlink:href="classDGtal_1_1Ball3D.html" target="_top" xlink:title="Ball3D">
<ellipse fill="white" stroke="white" cx="650" cy="-61" rx="43.8406" ry="18.3848"/>
<text text-anchor="middle" x="650" y="-57.4" font-family="Times Roman,serif" font-size="14.00">Ball3D</text>
</a>
</g>
<!-- Ball3D&#45;&gt;StarShaped3D -->
<g id="edge31" class="edge"><title>Ball3D&#45;&gt;StarShaped3D</title>
<path fill="none" stroke="black" d="M659.393,-79.2921C663.745,-87.7665 669.009,-98.0177 673.829,-107.404"/>
<polygon fill="black" stroke="black" points="670.769,-109.107 678.451,-116.404 676.996,-105.91 670.769,-109.107"/>
</g>
<!-- ImplicitPolynomial3Shape -->
<g id="node18" class="node"><title>ImplicitPolynomial3Shape</title>
<a xlink:href="classDGtal_1_1ImplicitPolynomial3Shape.html" target="_top" xlink:title="ImplicitPolynomial3Shape">
<ellipse fill="white" stroke="white" cx="1382" cy="-61" rx="135.765" ry="18.3848"/>
<text text-anchor="middle" x="1382" y="-57.4" font-family="Times Roman,serif" font-size="14.00">ImplicitPolynomial3Shape</text>
</a>
</g>
<!-- ImplicitPolynomial3Shape&#45;&gt;CEuclideanOrientedShape -->
<g id="edge35" class="edge"><title>ImplicitPolynomial3Shape&#45;&gt;CEuclideanOrientedShape</title>
<path fill="none" stroke="black" d="M1364.79,-79.5835C1338.01,-108.513 1286.26,-164.397 1255.88,-197.212"/>
<polygon fill="black" stroke="black" points="1253.23,-194.918 1249.01,-204.633 1258.37,-199.674 1253.23,-194.918"/>
</g>
<!-- ImplicitPolynomial3Shape&#45;&gt;CImplicitFunction -->
<g id="edge33" class="edge"><title>ImplicitPolynomial3Shape&#45;&gt;CImplicitFunction</title>
<path fill="none" stroke="black" d="M1388.8,-79.5967C1400.82,-116.089 1420.8,-197.398 1379,-242 1340.96,-282.592 989.77,-293.226 809.995,-296.012"/>
<polygon fill="black" stroke="black" points="809.932,-292.512 799.986,-296.161 810.037,-299.511 809.932,-292.512"/>
</g>
</g>
</svg>
