<?xml version="1.0" encoding="UTF-8" standalone="no"?>
<!DOCTYPE svg PUBLIC "-//W3C//DTD SVG 1.1//EN"
 "http://www.w3.org/Graphics/SVG/1.1/DTD/svg11.dtd">
<!-- Generated by graphviz version 2.26.3 (20100126.1600)
 -->
<!-- Title: Graphical Class Hierarchy Pages: 1 -->
<svg width="744pt" height="382pt"
 viewBox="0.00 0.00 744.00 382.00" xmlns="http://www.w3.org/2000/svg" xmlns:xlink="http://www.w3.org/1999/xlink">
<g id="graph1" class="graph" transform="scale(1 1) rotate(0) translate(4 378)">
<title>Graphical Class Hierarchy</title>
<polygon fill="white" stroke="white" points="-4,5 -4,-378 741,-378 741,5 -4,5"/>
<!-- Node1 -->
<g id="node1" class="node"><title>Node1</title>
<a xlink:href="structDGtal_1_1ContainerCategory.html" target="_top" xlink:title="DGtal::ContainerCategory">
<polygon fill="white" stroke="black" points="0,-159.5 0,-180.5 140,-180.5 140,-159.5 0,-159.5"/>
<text text-anchor="middle" x="70" y="-167.5" font-family="FreeSans" font-size="10.00">DGtal::ContainerCategory</text>
</a>
</g>
<!-- Node2 -->
<g id="node3" class="node"><title>Node2</title>
<a xlink:href="structDGtal_1_1AssociativeCategory.html" target="_top" xlink:title="DGtal::AssociativeCategory">
<polygon fill="white" stroke="black" points="176.5,-179.5 176.5,-200.5 323.5,-200.5 323.5,-179.5 176.5,-179.5"/>
<text text-anchor="middle" x="250" y="-187.5" font-family="FreeSans" font-size="10.00">DGtal::AssociativeCategory</text>
</a>
</g>
<!-- Node1&#45;&gt;Node2 -->
<g id="edge2" class="edge"><title>Node1&#45;&gt;Node2</title>
<path fill="none" stroke="midnightblue" d="M150.198,-178.911C158.858,-179.873 167.64,-180.849 176.219,-181.802"/>
<polygon fill="midnightblue" stroke="midnightblue" points="150.433,-175.416 140.108,-177.79 149.66,-182.373 150.433,-175.416"/>
</g>
<!-- Node17 -->
<g id="node49" class="node"><title>Node17</title>
<a xlink:href="structDGtal_1_1SequenceCategory.html" target="_top" xlink:title="DGtal::SequenceCategory">
<polygon fill="white" stroke="black" points="179.5,-139.5 179.5,-160.5 320.5,-160.5 320.5,-139.5 179.5,-139.5"/>
<text text-anchor="middle" x="250" y="-147.5" font-family="FreeSans" font-size="10.00">DGtal::SequenceCategory</text>
</a>
</g>
<!-- Node1&#45;&gt;Node17 -->
<g id="edge64" class="edge"><title>Node1&#45;&gt;Node17</title>
<path fill="none" stroke="midnightblue" d="M150.205,-161.088C159.967,-160.004 169.885,-158.902 179.491,-157.834"/>
<polygon fill="midnightblue" stroke="midnightblue" points="149.66,-157.627 140.108,-162.21 150.433,-164.584 149.66,-157.627"/>
</g>
<!-- Node3 -->
<g id="node5" class="node"><title>Node3</title>
<a xlink:href="structDGtal_1_1MultipleAssociativeCategory.html" target="_top" xlink:title="DGtal::MultipleAssociative\lCategory">
<polygon fill="white" stroke="black" points="372,-294 372,-328 512,-328 512,-294 372,-294"/>
<text text-anchor="start" x="380" y="-315" font-family="FreeSans" font-size="10.00">DGtal::MultipleAssociative</text>
<text text-anchor="middle" x="442" y="-302" font-family="FreeSans" font-size="10.00">Category</text>
</a>
</g>
<!-- Node2&#45;&gt;Node3 -->
<g id="edge4" class="edge"><title>Node2&#45;&gt;Node3</title>
<path fill="none" stroke="midnightblue" d="M266.451,-208.112C286.606,-229.307 322.696,-264.148 360,-285 365.997,-288.352 372.486,-291.339 379.097,-293.983"/>
<polygon fill="midnightblue" stroke="midnightblue" points="268.922,-205.631 259.537,-200.715 263.808,-210.411 268.922,-205.631"/>
</g>
<!-- Node8 -->
<g id="node15" class="node"><title>Node8</title>
<a xlink:href="structDGtal_1_1OrderedAssociativeCategory.html" target="_top" xlink:title="DGtal::OrderedAssociative\lCategory">
<polygon fill="white" stroke="black" points="370.5,-242 370.5,-276 513.5,-276 513.5,-242 370.5,-242"/>
<text text-anchor="start" x="378.5" y="-263" font-family="FreeSans" font-size="10.00">DGtal::OrderedAssociative</text>
<text text-anchor="middle" x="442" y="-250" font-family="FreeSans" font-size="10.00">Category</text>
</a>
</g>
<!-- Node2&#45;&gt;Node8 -->
<g id="edge14" class="edge"><title>Node2&#45;&gt;Node8</title>
<path fill="none" stroke="midnightblue" d="M284.98,-204.351C306.488,-213.005 334.686,-224.05 360,-233 368.448,-235.987 377.441,-239.002 386.258,-241.868"/>
<polygon fill="midnightblue" stroke="midnightblue" points="286.186,-201.063 275.603,-200.559 283.562,-207.553 286.186,-201.063"/>
</g>
<!-- Node11 -->
<g id="node23" class="node"><title>Node11</title>
<a xlink:href="structDGtal_1_1PairAssociativeCategory.html" target="_top" xlink:title="DGtal::PairAssociativeCategory">
<polygon fill="white" stroke="black" points="360,-202.5 360,-223.5 524,-223.5 524,-202.5 360,-202.5"/>
<text text-anchor="middle" x="442" y="-210.5" font-family="FreeSans" font-size="10.00">DGtal::PairAssociativeCategory</text>
</a>
</g>
<!-- Node2&#45;&gt;Node11 -->
<g id="edge24" class="edge"><title>Node2&#45;&gt;Node11</title>
<path fill="none" stroke="midnightblue" d="M333.773,-200.035C342.436,-201.073 351.234,-202.127 359.878,-203.163"/>
<polygon fill="midnightblue" stroke="midnightblue" points="334.028,-196.541 323.683,-198.827 333.196,-203.491 334.028,-196.541"/>
</g>
<!-- Node13 -->
<g id="node30" class="node"><title>Node13</title>
<a xlink:href="structDGtal_1_1SimpleAssociativeCategory.html" target="_top" xlink:title="DGtal::SimpleAssociative\lCategory">
<polygon fill="white" stroke="black" points="373.5,-150 373.5,-184 510.5,-184 510.5,-150 373.5,-150"/>
<text text-anchor="start" x="381.5" y="-171" font-family="FreeSans" font-size="10.00">DGtal::SimpleAssociative</text>
<text text-anchor="middle" x="442" y="-158" font-family="FreeSans" font-size="10.00">Category</text>
</a>
</g>
<!-- Node2&#45;&gt;Node13 -->
<g id="edge34" class="edge"><title>Node2&#45;&gt;Node13</title>
<path fill="none" stroke="midnightblue" d="M333.703,-179.973C346.908,-178.391 360.428,-176.772 373.243,-175.237"/>
<polygon fill="midnightblue" stroke="midnightblue" points="333.196,-176.509 323.683,-181.173 334.028,-183.459 333.196,-176.509"/>
</g>
<!-- Node15 -->
<g id="node37" class="node"><title>Node15</title>
<a xlink:href="structDGtal_1_1UniqueAssociativeCategory.html" target="_top" xlink:title="DGtal::UniqueAssociative\lCategory">
<polygon fill="white" stroke="black" points="373.5,-46 373.5,-80 510.5,-80 510.5,-46 373.5,-46"/>
<text text-anchor="start" x="381.5" y="-67" font-family="FreeSans" font-size="10.00">DGtal::UniqueAssociative</text>
<text text-anchor="middle" x="442" y="-54" font-family="FreeSans" font-size="10.00">Category</text>
</a>
</g>
<!-- Node2&#45;&gt;Node15 -->
<g id="edge44" class="edge"><title>Node2&#45;&gt;Node15</title>
<path fill="none" stroke="midnightblue" d="M317.815,-174.598C319.983,-173.195 322.054,-171.667 324,-170 353.92,-144.373 330.639,-115.266 360,-89 364.007,-85.4154 368.509,-82.3248 373.287,-79.6601"/>
<polygon fill="midnightblue" stroke="midnightblue" points="316.13,-171.53 309.044,-179.406 319.495,-177.669 316.13,-171.53"/>
</g>
<!-- Node16 -->
<g id="node43" class="node"><title>Node16</title>
<a xlink:href="structDGtal_1_1UnorderedAssociativeCategory.html" target="_top" xlink:title="DGtal::UnorderedAssociative\lCategory">
<polygon fill="white" stroke="black" points="364.5,-98 364.5,-132 519.5,-132 519.5,-98 364.5,-98"/>
<text text-anchor="start" x="372.5" y="-119" font-family="FreeSans" font-size="10.00">DGtal::UnorderedAssociative</text>
<text text-anchor="middle" x="442" y="-106" font-family="FreeSans" font-size="10.00">Category</text>
</a>
</g>
<!-- Node2&#45;&gt;Node16 -->
<g id="edge54" class="edge"><title>Node2&#45;&gt;Node16</title>
<path fill="none" stroke="midnightblue" d="M309.874,-176.152C314.75,-174.326 319.52,-172.282 324,-170 342.308,-160.676 341.897,-150.716 360,-141 366.185,-137.681 372.863,-134.704 379.644,-132.055"/>
<polygon fill="midnightblue" stroke="midnightblue" points="308.734,-172.843 300.414,-179.402 311.009,-179.463 308.734,-172.843"/>
</g>
<!-- Node4 -->
<g id="node7" class="node"><title>Node4</title>
<a xlink:href="structDGtal_1_1MultimapAssociativeCategory.html" target="_top" xlink:title="DGtal::MultimapAssociative\lCategory">
<polygon fill="white" stroke="black" points="574,-340 574,-374 722,-374 722,-340 574,-340"/>
<text text-anchor="start" x="582" y="-361" font-family="FreeSans" font-size="10.00">DGtal::MultimapAssociative</text>
<text text-anchor="middle" x="648" y="-348" font-family="FreeSans" font-size="10.00">Category</text>
</a>
</g>
<!-- Node3&#45;&gt;Node4 -->
<g id="edge6" class="edge"><title>Node3&#45;&gt;Node4</title>
<path fill="none" stroke="midnightblue" d="M521.98,-328.86C539.081,-332.678 557.075,-336.696 573.941,-340.463"/>
<polygon fill="midnightblue" stroke="midnightblue" points="522.552,-325.401 512.03,-326.638 521.026,-332.233 522.552,-325.401"/>
</g>
<!-- Node5 -->
<g id="node9" class="node"><title>Node5</title>
<a xlink:href="structDGtal_1_1MultisetAssociativeCategory.html" target="_top" xlink:title="DGtal::MultisetAssociative\lCategory">
<polygon fill="white" stroke="black" points="577.5,-288 577.5,-322 718.5,-322 718.5,-288 577.5,-288"/>
<text text-anchor="start" x="585.5" y="-309" font-family="FreeSans" font-size="10.00">DGtal::MultisetAssociative</text>
<text text-anchor="middle" x="648" y="-296" font-family="FreeSans" font-size="10.00">Category</text>
</a>
</g>
<!-- Node3&#45;&gt;Node5 -->
<g id="edge8" class="edge"><title>Node3&#45;&gt;Node5</title>
<path fill="none" stroke="midnightblue" d="M522.062,-308.668C540.335,-308.136 559.623,-307.574 577.464,-307.054"/>
<polygon fill="midnightblue" stroke="midnightblue" points="521.923,-305.171 512.03,-308.96 522.127,-312.168 521.923,-305.171"/>
</g>
<!-- Node6 -->
<g id="node11" class="node"><title>Node6</title>
<a xlink:href="structDGtal_1_1UnorderedMultimapAssociativeCategory.html" target="_top" xlink:title="DGtal::UnorderedMultimap\lAssociativeCategory">
<polygon fill="white" stroke="black" points="575.5,-236 575.5,-270 720.5,-270 720.5,-236 575.5,-236"/>
<text text-anchor="start" x="583.5" y="-257" font-family="FreeSans" font-size="10.00">DGtal::UnorderedMultimap</text>
<text text-anchor="middle" x="648" y="-244" font-family="FreeSans" font-size="10.00">AssociativeCategory</text>
</a>
</g>
<!-- Node3&#45;&gt;Node6 -->
<g id="edge10" class="edge"><title>Node3&#45;&gt;Node6</title>
<path fill="none" stroke="midnightblue" d="M512.351,-291.192C536.808,-284.306 564.005,-276.649 587.586,-270.01"/>
<polygon fill="midnightblue" stroke="midnightblue" points="511.092,-287.911 502.415,-293.99 512.989,-294.649 511.092,-287.911"/>
</g>
<!-- Node7 -->
<g id="node13" class="node"><title>Node7</title>
<a xlink:href="structDGtal_1_1UnorderedMultisetAssociativeCategory.html" target="_top" xlink:title="DGtal::UnorderedMultiset\lAssociativeCategory">
<polygon fill="white" stroke="black" points="579,-184 579,-218 717,-218 717,-184 579,-184"/>
<text text-anchor="start" x="587" y="-205" font-family="FreeSans" font-size="10.00">DGtal::UnorderedMultiset</text>
<text text-anchor="middle" x="648" y="-192" font-family="FreeSans" font-size="10.00">AssociativeCategory</text>
</a>
</g>
<!-- Node3&#45;&gt;Node7 -->
<g id="edge12" class="edge"><title>Node3&#45;&gt;Node7</title>
<path fill="none" stroke="midnightblue" d="M518.476,-288.922C520.382,-287.685 522.228,-286.378 524,-285 547.946,-266.37 535.871,-245.392 560,-227 565.701,-222.654 572.117,-219.033 578.821,-216.015"/>
<polygon fill="midnightblue" stroke="midnightblue" points="516.705,-285.903 509.781,-293.922 520.195,-291.971 516.705,-285.903"/>
</g>
<!-- Node8&#45;&gt;Node4 -->
<g id="edge18" class="edge"><title>Node8&#45;&gt;Node4</title>
<path fill="none" stroke="midnightblue" d="M517.313,-280.771C519.617,-282.101 521.853,-283.509 524,-285 545.325,-299.806 538.53,-316.405 560,-331 565.006,-334.403 570.466,-337.369 576.133,-339.952"/>
<polygon fill="midnightblue" stroke="midnightblue" points="518.629,-277.511 508.14,-276.018 515.408,-283.726 518.629,-277.511"/>
</g>
<!-- Node8&#45;&gt;Node5 -->
<g id="edge20" class="edge"><title>Node8&#45;&gt;Node5</title>
<path fill="none" stroke="midnightblue" d="M524.007,-277.312C541.607,-281.242 560.06,-285.363 577.193,-289.189"/>
<polygon fill="midnightblue" stroke="midnightblue" points="524.282,-273.788 513.76,-275.024 522.756,-280.619 524.282,-273.788"/>
</g>
<!-- Node9 -->
<g id="node17" class="node"><title>Node9</title>
<a xlink:href="structDGtal_1_1MapAssociativeCategory.html" target="_top" xlink:title="DGtal::MapAssociativeCategory">
<polygon fill="white" stroke="black" points="564.5,-144.5 564.5,-165.5 731.5,-165.5 731.5,-144.5 564.5,-144.5"/>
<text text-anchor="middle" x="648" y="-152.5" font-family="FreeSans" font-size="10.00">DGtal::MapAssociativeCategory</text>
</a>
</g>
<!-- Node8&#45;&gt;Node9 -->
<g id="edge16" class="edge"><title>Node8&#45;&gt;Node9</title>
<path fill="none" stroke="midnightblue" d="M518.476,-236.922C520.382,-235.685 522.228,-234.378 524,-233 547.946,-214.37 535.296,-192.613 560,-175 565.358,-171.18 571.326,-168.075 577.561,-165.553"/>
<polygon fill="midnightblue" stroke="midnightblue" points="516.705,-233.903 509.781,-241.922 520.195,-239.971 516.705,-233.903"/>
</g>
<!-- Node10 -->
<g id="node21" class="node"><title>Node10</title>
<a xlink:href="structDGtal_1_1SetAssociativeCategory.html" target="_top" xlink:title="DGtal::SetAssociativeCategory">
<polygon fill="white" stroke="black" points="566,-104.5 566,-125.5 730,-125.5 730,-104.5 566,-104.5"/>
<text text-anchor="middle" x="648" y="-112.5" font-family="FreeSans" font-size="10.00">DGtal::SetAssociativeCategory</text>
</a>
</g>
<!-- Node8&#45;&gt;Node10 -->
<g id="edge22" class="edge"><title>Node8&#45;&gt;Node10</title>
<path fill="none" stroke="midnightblue" d="M520.535,-236.064C521.73,-235.085 522.887,-234.064 524,-233 557.541,-200.936 525.149,-165.635 560,-135 564.236,-131.276 569.021,-128.204 574.117,-125.674"/>
<polygon fill="midnightblue" stroke="midnightblue" points="518.335,-233.332 512.154,-241.937 522.352,-239.065 518.335,-233.332"/>
</g>
<!-- Node11&#45;&gt;Node4 -->
<g id="edge28" class="edge"><title>Node11&#45;&gt;Node4</title>
<path fill="none" stroke="midnightblue" d="M518.525,-228.697C520.437,-230.022 522.268,-231.454 524,-233 558.608,-263.909 526.144,-299.269 560,-331 564.068,-334.813 568.669,-338.069 573.58,-340.85"/>
<polygon fill="midnightblue" stroke="midnightblue" points="520.085,-225.555 509.683,-223.543 516.56,-231.603 520.085,-225.555"/>
</g>
<!-- Node11&#45;&gt;Node6 -->
<g id="edge32" class="edge"><title>Node11&#45;&gt;Node6</title>
<path fill="none" stroke="midnightblue" d="M505.996,-225.426C527.946,-229.688 552.668,-234.489 575.259,-238.876"/>
<polygon fill="midnightblue" stroke="midnightblue" points="506.608,-221.98 496.124,-223.51 505.274,-228.852 506.608,-221.98"/>
</g>
<!-- Node11&#45;&gt;Node9 -->
<g id="edge26" class="edge"><title>Node11&#45;&gt;Node9</title>
<path fill="none" stroke="midnightblue" d="M502.695,-199.828C509.948,-197.776 517.19,-195.497 524,-193 540.795,-186.842 543.157,-181.026 560,-175 570.179,-171.359 581.263,-168.227 592.026,-165.595"/>
<polygon fill="midnightblue" stroke="midnightblue" points="501.582,-196.503 492.838,-202.485 503.404,-203.262 501.582,-196.503"/>
</g>
<!-- Node12 -->
<g id="node27" class="node"><title>Node12</title>
<a xlink:href="structDGtal_1_1UnorderedMapAssociativeCategory.html" target="_top" xlink:title="DGtal::UnorderedMapAssociative\lCategory">
<polygon fill="white" stroke="black" points="560.5,-52 560.5,-86 735.5,-86 735.5,-52 560.5,-52"/>
<text text-anchor="start" x="568.5" y="-73" font-family="FreeSans" font-size="10.00">DGtal::UnorderedMapAssociative</text>
<text text-anchor="middle" x="648" y="-60" font-family="FreeSans" font-size="10.00">Category</text>
</a>
</g>
<!-- Node11&#45;&gt;Node12 -->
<g id="edge30" class="edge"><title>Node11&#45;&gt;Node12</title>
<path fill="none" stroke="midnightblue" d="M518.525,-197.303C520.437,-195.978 522.268,-194.546 524,-193 558.608,-162.091 526.144,-126.731 560,-95 563.603,-91.6228 567.624,-88.6823 571.909,-86.1222"/>
<polygon fill="midnightblue" stroke="midnightblue" points="516.56,-194.397 509.683,-202.457 520.085,-200.445 516.56,-194.397"/>
</g>
<!-- Node13&#45;&gt;Node5 -->
<g id="edge36" class="edge"><title>Node13&#45;&gt;Node5</title>
<path fill="none" stroke="midnightblue" d="M519.335,-189.128C520.953,-190.35 522.512,-191.639 524,-193 554.58,-220.961 529.146,-251.342 560,-279 565.101,-283.572 570.971,-287.342 577.208,-290.45"/>
<polygon fill="midnightblue" stroke="midnightblue" points="521.089,-186.094 510.8,-183.564 517.265,-191.958 521.089,-186.094"/>
</g>
<!-- Node13&#45;&gt;Node7 -->
<g id="edge40" class="edge"><title>Node13&#45;&gt;Node7</title>
<path fill="none" stroke="midnightblue" d="M520.481,-179.953C539.624,-183.113 559.967,-186.47 578.65,-189.554"/>
<polygon fill="midnightblue" stroke="midnightblue" points="521.032,-176.497 510.595,-178.322 519.892,-183.403 521.032,-176.497"/>
</g>
<!-- Node13&#45;&gt;Node10 -->
<g id="edge38" class="edge"><title>Node13&#45;&gt;Node10</title>
<path fill="none" stroke="midnightblue" d="M512.861,-147.273C528.364,-143.1 544.709,-138.809 560,-135 572.922,-131.781 586.965,-128.494 599.959,-125.54"/>
<polygon fill="midnightblue" stroke="midnightblue" points="511.553,-144.001 502.815,-149.992 513.382,-150.758 511.553,-144.001"/>
</g>
<!-- Node14 -->
<g id="node35" class="node"><title>Node14</title>
<a xlink:href="structDGtal_1_1UnorderedSetAssociativeCategory.html" target="_top" xlink:title="DGtal::UnorderedSetAssociative\lCategory">
<polygon fill="white" stroke="black" points="562.5,-0 562.5,-34 733.5,-34 733.5,-0 562.5,-0"/>
<text text-anchor="start" x="570.5" y="-21" font-family="FreeSans" font-size="10.00">DGtal::UnorderedSetAssociative</text>
<text text-anchor="middle" x="648" y="-8" font-family="FreeSans" font-size="10.00">Category</text>
</a>
</g>
<!-- Node13&#45;&gt;Node14 -->
<g id="edge42" class="edge"><title>Node13&#45;&gt;Node14</title>
<path fill="none" stroke="midnightblue" d="M519.284,-145.064C520.926,-143.785 522.502,-142.432 524,-141 557.541,-108.936 526.144,-74.7312 560,-43 563.603,-39.6228 567.624,-36.6823 571.909,-34.1222"/>
<polygon fill="midnightblue" stroke="midnightblue" points="516.97,-142.399 510.587,-150.856 520.85,-148.225 516.97,-142.399"/>
</g>
<!-- Node15&#45;&gt;Node9 -->
<g id="edge46" class="edge"><title>Node15&#45;&gt;Node9</title>
<path fill="none" stroke="midnightblue" d="M517.313,-84.7709C519.617,-86.1012 521.853,-87.5094 524,-89 545.325,-103.806 538.075,-121.098 560,-135 566.087,-138.859 572.827,-141.978 579.79,-144.496"/>
<polygon fill="midnightblue" stroke="midnightblue" points="518.629,-81.5108 508.14,-80.0176 515.408,-87.726 518.629,-81.5108"/>
</g>
<!-- Node15&#45;&gt;Node10 -->
<g id="edge48" class="edge"><title>Node15&#45;&gt;Node10</title>
<path fill="none" stroke="midnightblue" d="M512.861,-82.7269C528.364,-86.8999 544.709,-91.1909 560,-95 572.922,-98.2192 586.965,-101.506 599.959,-104.46"/>
<polygon fill="midnightblue" stroke="midnightblue" points="513.382,-79.242 502.815,-80.0079 511.553,-85.9989 513.382,-79.242"/>
</g>
<!-- Node15&#45;&gt;Node12 -->
<g id="edge50" class="edge"><title>Node15&#45;&gt;Node12</title>
<path fill="none" stroke="midnightblue" d="M520.817,-65.2956C533.726,-65.6716 547.173,-66.0633 560.283,-66.4451"/>
<polygon fill="midnightblue" stroke="midnightblue" points="520.693,-61.7906 510.595,-64.9979 520.489,-68.7877 520.693,-61.7906"/>
</g>
<!-- Node15&#45;&gt;Node14 -->
<g id="edge52" class="edge"><title>Node15&#45;&gt;Node14</title>
<path fill="none" stroke="midnightblue" d="M520.822,-45.3989C537.46,-41.6838 554.989,-37.7694 571.538,-34.0741"/>
<polygon fill="midnightblue" stroke="midnightblue" points="519.592,-42.0874 510.595,-47.6827 521.117,-48.9191 519.592,-42.0874"/>
</g>
<!-- Node16&#45;&gt;Node6 -->
<g id="edge58" class="edge"><title>Node16&#45;&gt;Node6</title>
<path fill="none" stroke="midnightblue" d="M519.983,-137.624C521.37,-138.698 522.712,-139.822 524,-141 554.58,-168.961 529.146,-199.342 560,-227 564.626,-231.147 569.885,-234.634 575.477,-237.566"/>
<polygon fill="midnightblue" stroke="midnightblue" points="521.85,-134.662 511.591,-132.016 517.96,-140.482 521.85,-134.662"/>
</g>
<!-- Node16&#45;&gt;Node7 -->
<g id="edge60" class="edge"><title>Node16&#45;&gt;Node7</title>
<path fill="none" stroke="midnightblue" d="M515.19,-136.28C518.218,-137.761 521.168,-139.334 524,-141 542.967,-152.163 540.924,-164.025 560,-175 565.938,-178.416 572.363,-181.418 578.946,-184.049"/>
<polygon fill="midnightblue" stroke="midnightblue" points="516.469,-133.018 505.914,-132.103 513.595,-139.4 516.469,-133.018"/>
</g>
<!-- Node16&#45;&gt;Node12 -->
<g id="edge56" class="edge"><title>Node16&#45;&gt;Node12</title>
<path fill="none" stroke="midnightblue" d="M528.304,-95.7282C542.714,-92.5104 557.572,-89.1926 571.709,-86.0358"/>
<polygon fill="midnightblue" stroke="midnightblue" points="527.411,-92.3414 518.414,-97.9367 528.936,-99.1731 527.411,-92.3414"/>
</g>
<!-- Node16&#45;&gt;Node14 -->
<g id="edge62" class="edge"><title>Node16&#45;&gt;Node14</title>
<path fill="none" stroke="midnightblue" d="M517.313,-93.2291C519.617,-91.8988 521.853,-90.4906 524,-89 545.325,-74.1938 538.53,-57.5947 560,-43 565.006,-39.5968 570.466,-36.631 576.133,-34.0478"/>
<polygon fill="midnightblue" stroke="midnightblue" points="515.408,-90.274 508.14,-97.9824 518.629,-96.4892 515.408,-90.274"/>
</g>
</g>
</svg>
