<?xml version="1.0" encoding="UTF-8" standalone="no"?>
<!DOCTYPE svg PUBLIC "-//W3C//DTD SVG 1.1//EN"
 "http://www.w3.org/Graphics/SVG/1.1/DTD/svg11.dtd">
<!-- Generated by graphviz version 2.26.3 (20100126.1600)
 -->
<!-- Title: Graphical Class Hierarchy Pages: 1 -->
<svg width="326pt" height="146pt"
 viewBox="0.00 0.00 326.00 146.00" xmlns="http://www.w3.org/2000/svg" xmlns:xlink="http://www.w3.org/1999/xlink">
<g id="graph1" class="graph" transform="scale(1 1) rotate(0) translate(4 142)">
<title>Graphical Class Hierarchy</title>
<polygon fill="white" stroke="white" points="-4,5 -4,-142 323,-142 323,5 -4,5"/>
<!-- Node1 -->
<g id="node1" class="node"><title>Node1</title>
<a xlink:title="STL class. ">
<polygon fill="white" stroke="#bfbfbf" points="0.5,-58.5 0.5,-79.5 95.5,-79.5 95.5,-58.5 0.5,-58.5"/>
<text text-anchor="middle" x="48" y="-66.5" font-family="FreeSans" font-size="10.00">std::vector&lt; T &gt;</text>
</a>
</g>
<!-- Node2 -->
<g id="node3" class="node"><title>Node2</title>
<a xlink:href="classDGtal_1_1ImageContainerBySTLVector.html" target="_top" xlink:title="DGtal::ImageContainerBySTLVector\l\&lt; TDomain, TValue \&gt;">
<polygon fill="white" stroke="black" points="132.5,-104 132.5,-138 317.5,-138 317.5,-104 132.5,-104"/>
<text text-anchor="start" x="140.5" y="-125" font-family="FreeSans" font-size="10.00">DGtal::ImageContainerBySTLVector</text>
<text text-anchor="middle" x="225" y="-112" font-family="FreeSans" font-size="10.00">&lt; TDomain, TValue &gt;</text>
</a>
</g>
<!-- Node1&#45;&gt;Node2 -->
<g id="edge2" class="edge"><title>Node1&#45;&gt;Node2</title>
<path fill="none" stroke="midnightblue" d="M91.1634,-82.6099C104.257,-86.6711 118.697,-91.0824 132,-95 141.971,-97.9363 152.567,-100.975 162.901,-103.895"/>
<polygon fill="midnightblue" stroke="midnightblue" points="92.0421,-79.2178 81.4537,-79.5864 89.9609,-85.9013 92.0421,-79.2178"/>
</g>
<!-- Node3 -->
<g id="node5" class="node"><title>Node3</title>
<a xlink:href="classDGtal_1_1ImageContainerBySTLVector.html" target="_top" xlink:title="DGtal::ImageContainerBySTLVector\l\&lt; Domain, Storage * \&gt;">
<polygon fill="white" stroke="black" points="132.5,-52 132.5,-86 317.5,-86 317.5,-52 132.5,-52"/>
<text text-anchor="start" x="140.5" y="-73" font-family="FreeSans" font-size="10.00">DGtal::ImageContainerBySTLVector</text>
<text text-anchor="middle" x="225" y="-60" font-family="FreeSans" font-size="10.00">&lt; Domain, Storage * &gt;</text>
</a>
</g>
<!-- Node1&#45;&gt;Node3 -->
<g id="edge4" class="edge"><title>Node1&#45;&gt;Node3</title>
<path fill="none" stroke="midnightblue" d="M106.015,-69C114.502,-69 123.415,-69 132.384,-69"/>
<polygon fill="midnightblue" stroke="midnightblue" points="105.899,-65.5001 95.8987,-69 105.899,-72.5001 105.899,-65.5001"/>
</g>
<!-- Node4 -->
<g id="node7" class="node"><title>Node4</title>
<a xlink:href="classDGtal_1_1ImageContainerBySTLVector.html" target="_top" xlink:title="DGtal::ImageContainerBySTLVector\l\&lt; Domain, Value \&gt;">
<polygon fill="white" stroke="black" points="132.5,-0 132.5,-34 317.5,-34 317.5,-0 132.5,-0"/>
<text text-anchor="start" x="140.5" y="-21" font-family="FreeSans" font-size="10.00">DGtal::ImageContainerBySTLVector</text>
<text text-anchor="middle" x="225" y="-8" font-family="FreeSans" font-size="10.00">&lt; Domain, Value &gt;</text>
</a>
</g>
<!-- Node1&#45;&gt;Node4 -->
<g id="edge6" class="edge"><title>Node1&#45;&gt;Node4</title>
<path fill="none" stroke="midnightblue" d="M91.1634,-55.3901C104.257,-51.3289 118.697,-46.9176 132,-43 141.971,-40.0637 152.567,-37.0247 162.901,-34.1049"/>
<polygon fill="midnightblue" stroke="midnightblue" points="89.9609,-52.0987 81.4537,-58.4136 92.0421,-58.7822 89.9609,-52.0987"/>
</g>
</g>
</svg>
