<?xml version="1.0" encoding="UTF-8" standalone="no"?>
<!DOCTYPE svg PUBLIC "-//W3C//DTD SVG 1.1//EN"
 "http://www.w3.org/Graphics/SVG/1.1/DTD/svg11.dtd">
<!-- Generated by graphviz version 2.26.3 (20100126.1600)
 -->
<!-- Title: Graphical Class Hierarchy Pages: 1 -->
<svg width="254pt" height="56pt"
 viewBox="0.00 0.00 254.00 56.00" xmlns="http://www.w3.org/2000/svg" xmlns:xlink="http://www.w3.org/1999/xlink">
<g id="graph1" class="graph" transform="scale(1 1) rotate(0) translate(4 52)">
<title>Graphical Class Hierarchy</title>
<polygon fill="white" stroke="white" points="-4,5 -4,-52 251,-52 251,5 -4,5"/>
<!-- Node1 -->
<g id="node1" class="node"><title>Node1</title>
<polygon fill="white" stroke="#bfbfbf" points="0.5,-13.5 0.5,-34.5 35.5,-34.5 35.5,-13.5 0.5,-13.5"/>
<text text-anchor="middle" x="18" y="-21.5" font-family="FreeSans" font-size="10.00">pair</text>
</g>
<!-- Node2 -->
<g id="node3" class="node"><title>Node2</title>
<a xlink:href="structDGtal_1_1DistanceBreadthFirstVisitor_1_1Node.html" target="_top" xlink:title="DGtal::DistanceBreadthFirst\lVisitor\&lt; TGraph, TVertexFunctor,\l TMarkSet \&gt;::Node">
<polygon fill="white" stroke="black" points="72.5,-0.5 72.5,-47.5 245.5,-47.5 245.5,-0.5 72.5,-0.5"/>
<text text-anchor="start" x="80.5" y="-34.5" font-family="FreeSans" font-size="10.00">DGtal::DistanceBreadthFirst</text>
<text text-anchor="start" x="80.5" y="-21.5" font-family="FreeSans" font-size="10.00">Visitor&lt; TGraph, TVertexFunctor,</text>
<text text-anchor="middle" x="159" y="-8.5" font-family="FreeSans" font-size="10.00"> TMarkSet &gt;::Node</text>
</a>
</g>
<!-- Node1&#45;&gt;Node2 -->
<g id="edge2" class="edge"><title>Node1&#45;&gt;Node2</title>
<path fill="none" stroke="midnightblue" d="M45.6517,-24C53.6317,-24 62.7918,-24 72.3717,-24"/>
<polygon fill="midnightblue" stroke="midnightblue" points="45.5727,-20.5001 35.5727,-24 45.5726,-27.5001 45.5727,-20.5001"/>
</g>
</g>
</svg>
