<?xml version="1.0" encoding="UTF-8" standalone="no"?>
<!DOCTYPE svg PUBLIC "-//W3C//DTD SVG 1.1//EN"
 "http://www.w3.org/Graphics/SVG/1.1/DTD/svg11.dtd">
<!-- Generated by graphviz version 2.26.3 (20100126.1600)
 -->
<!-- Title: Graphical Class Hierarchy Pages: 1 -->
<svg width="330pt" height="150pt"
 viewBox="0.00 0.00 330.00 150.00" xmlns="http://www.w3.org/2000/svg" xmlns:xlink="http://www.w3.org/1999/xlink">
<g id="graph1" class="graph" transform="scale(1 1) rotate(0) translate(4 146)">
<title>Graphical Class Hierarchy</title>
<polygon fill="white" stroke="white" points="-4,5 -4,-146 327,-146 327,5 -4,5"/>
<!-- Node1 -->
<g id="node1" class="node"><title>Node1</title>
<a xlink:href="structDGtal_1_1DrawableWithBoard2D.html" target="_top" xlink:title="DGtal::DrawableWithBoard2D">
<polygon fill="white" stroke="black" points="0,-60.5 0,-81.5 156,-81.5 156,-60.5 0,-60.5"/>
<text text-anchor="middle" x="78" y="-68.5" font-family="FreeSans" font-size="10.00">DGtal::DrawableWithBoard2D</text>
</a>
</g>
<!-- Node2 -->
<g id="node3" class="node"><title>Node2</title>
<a xlink:href="structDGtal_1_1CustomColors.html" target="_top" xlink:title="Custom style class redefining the pen color and the fill color. You may use Board2D::Color::None for ...">
<polygon fill="white" stroke="black" points="198.5,-120.5 198.5,-141.5 315.5,-141.5 315.5,-120.5 198.5,-120.5"/>
<text text-anchor="middle" x="257" y="-128.5" font-family="FreeSans" font-size="10.00">DGtal::CustomColors</text>
</a>
</g>
<!-- Node1&#45;&gt;Node2 -->
<g id="edge2" class="edge"><title>Node1&#45;&gt;Node2</title>
<path fill="none" stroke="midnightblue" d="M116.597,-84.9629C138.617,-92.8233 166.775,-102.697 192,-111 201.645,-114.175 212.145,-117.473 221.838,-120.455"/>
<polygon fill="midnightblue" stroke="midnightblue" points="117.539,-81.5826 106.944,-81.506 115.179,-88.1727 117.539,-81.5826"/>
</g>
<!-- Node3 -->
<g id="node5" class="node"><title>Node3</title>
<a xlink:href="structDGtal_1_1CustomFillColor.html" target="_top" xlink:title="Custom style class redefining the fill color. You may use Board2D::Color::None for transparent color...">
<polygon fill="white" stroke="black" points="195.5,-80.5 195.5,-101.5 318.5,-101.5 318.5,-80.5 195.5,-80.5"/>
<text text-anchor="middle" x="257" y="-88.5" font-family="FreeSans" font-size="10.00">DGtal::CustomFillColor</text>
</a>
</g>
<!-- Node1&#45;&gt;Node3 -->
<g id="edge4" class="edge"><title>Node1&#45;&gt;Node3</title>
<path fill="none" stroke="midnightblue" d="M166.411,-80.8783C176.184,-81.9703 185.975,-83.0642 195.317,-84.108"/>
<polygon fill="midnightblue" stroke="midnightblue" points="166.578,-77.3753 156.252,-79.7432 165.801,-84.332 166.578,-77.3753"/>
</g>
<!-- Node4 -->
<g id="node7" class="node"><title>Node4</title>
<a xlink:href="structDGtal_1_1CustomPen.html" target="_top" xlink:title="Custom style class redefining the pen attributes. You may use Board2D::Color::None for transparent co...">
<polygon fill="white" stroke="black" points="204.5,-40.5 204.5,-61.5 309.5,-61.5 309.5,-40.5 204.5,-40.5"/>
<text text-anchor="middle" x="257" y="-48.5" font-family="FreeSans" font-size="10.00">DGtal::CustomPen</text>
</a>
</g>
<!-- Node1&#45;&gt;Node4 -->
<g id="edge6" class="edge"><title>Node1&#45;&gt;Node4</title>
<path fill="none" stroke="midnightblue" d="M166.213,-61.1438C179.273,-59.6846 192.37,-58.2213 204.39,-56.8782"/>
<polygon fill="midnightblue" stroke="midnightblue" points="165.801,-57.668 156.252,-62.2568 166.578,-64.6247 165.801,-57.668"/>
</g>
<!-- Node5 -->
<g id="node9" class="node"><title>Node5</title>
<a xlink:href="structDGtal_1_1CustomPenColor.html" target="_top" xlink:title="Custom style class redefining the pen color. You may use Board2D::Color::None for transparent color...">
<polygon fill="white" stroke="black" points="192,-0.5 192,-21.5 322,-21.5 322,-0.5 192,-0.5"/>
<text text-anchor="middle" x="257" y="-8.5" font-family="FreeSans" font-size="10.00">DGtal::CustomPenColor</text>
</a>
</g>
<!-- Node1&#45;&gt;Node5 -->
<g id="edge8" class="edge"><title>Node1&#45;&gt;Node5</title>
<path fill="none" stroke="midnightblue" d="M116.597,-57.0371C138.617,-49.1767 166.775,-39.3026 192,-31 201.645,-27.8254 212.145,-24.5267 221.838,-21.5455"/>
<polygon fill="midnightblue" stroke="midnightblue" points="115.179,-53.8273 106.944,-60.494 117.539,-60.4174 115.179,-53.8273"/>
</g>
</g>
</svg>
