<?xml version="1.0" encoding="UTF-8" standalone="no"?>
<!DOCTYPE svg PUBLIC "-//W3C//DTD SVG 1.1//EN"
 "http://www.w3.org/Graphics/SVG/1.1/DTD/svg11.dtd">
<!-- Generated by graphviz version 2.26.3 (20100126.1600)
 -->
<!-- Title: DGtal::concepts::CVertexPredicate&lt; T &gt; Pages: 1 -->
<svg width="1494pt" height="94pt"
 viewBox="0.00 0.00 1494.00 94.00" xmlns="http://www.w3.org/2000/svg" xmlns:xlink="http://www.w3.org/1999/xlink">
<g id="graph1" class="graph" transform="scale(1 1) rotate(0) translate(4 90)">
<title>DGtal::concepts::CVertexPredicate&lt; T &gt;</title>
<polygon fill="white" stroke="white" points="-4,5 -4,-90 1491,-90 1491,5 -4,5"/>
<!-- Node1 -->
<g id="node1" class="node"><title>Node1</title>
<polygon fill="#bfbfbf" stroke="black" points="1348.5,-32 1348.5,-66 1485.5,-66 1485.5,-32 1348.5,-32"/>
<text text-anchor="start" x="1356.5" y="-53" font-family="FreeSans" font-size="10.00">DGtal::concepts::CVertex</text>
<text text-anchor="middle" x="1417" y="-40" font-family="FreeSans" font-size="10.00">Predicate&lt; T &gt;</text>
</g>
<!-- Node2 -->
<g id="node2" class="node"><title>Node2</title>
<a xlink:href="structDGtal_1_1concepts_1_1CPredicate.html" target="_top" xlink:title="DGtal::concepts::CPredicate\l\&lt; T, T::Vertex \&gt;">
<polygon fill="white" stroke="black" points="1158.5,-32 1158.5,-66 1309.5,-66 1309.5,-32 1158.5,-32"/>
<text text-anchor="start" x="1166.5" y="-53" font-family="FreeSans" font-size="10.00">DGtal::concepts::CPredicate</text>
<text text-anchor="middle" x="1234" y="-40" font-family="FreeSans" font-size="10.00">&lt; T, T::Vertex &gt;</text>
</a>
</g>
<!-- Node2&#45;&gt;Node1 -->
<g id="edge2" class="edge"><title>Node2&#45;&gt;Node1</title>
<path fill="none" stroke="midnightblue" d="M1320.01,-49C1329.51,-49 1339.09,-49 1348.33,-49"/>
<polygon fill="midnightblue" stroke="midnightblue" points="1319.75,-45.5001 1309.75,-49 1319.75,-52.5001 1319.75,-45.5001"/>
</g>
<!-- Node3 -->
<g id="node4" class="node"><title>Node3</title>
<a xlink:href="structDGtal_1_1concepts_1_1CUnaryFunctor.html" target="_top" xlink:title="DGtal::concepts::CUnaryFunctor\l\&lt; T, T::Vertex, bool \&gt;">
<polygon fill="white" stroke="black" points="682,-52 682,-86 852,-86 852,-52 682,-52"/>
<text text-anchor="start" x="690" y="-73" font-family="FreeSans" font-size="10.00">DGtal::concepts::CUnaryFunctor</text>
<text text-anchor="middle" x="767" y="-60" font-family="FreeSans" font-size="10.00">&lt; T, T::Vertex, bool &gt;</text>
</a>
</g>
<!-- Node3&#45;&gt;Node2 -->
<g id="edge4" class="edge"><title>Node3&#45;&gt;Node2</title>
<path fill="none" stroke="midnightblue" d="M862.61,-65.496C937.971,-62.6518 1045.71,-58.4035 1140,-54 1145.96,-53.7217 1152.13,-53.4212 1158.33,-53.1103"/>
<polygon fill="midnightblue" stroke="midnightblue" points="862.057,-62.0143 852.196,-65.8879 862.32,-69.0093 862.057,-62.0143"/>
</g>
<!-- Node4 -->
<g id="node6" class="node"><title>Node4</title>
<a xlink:href="structboost_1_1Assignable.html" target="_top" xlink:title="Go to http://www.sgi.com/tech/stl/Assignable.html. ">
<polygon fill="white" stroke="black" points="0.5,-29.5 0.5,-50.5 129.5,-50.5 129.5,-29.5 0.5,-29.5"/>
<text text-anchor="middle" x="65" y="-37.5" font-family="FreeSans" font-size="10.00">boost::Assignable&lt; T &gt;</text>
</a>
</g>
<!-- Node4&#45;&gt;Node3 -->
<g id="edge6" class="edge"><title>Node4&#45;&gt;Node3</title>
<path fill="none" stroke="midnightblue" d="M120.316,-52.4662C129.524,-54.2139 139.004,-55.815 148,-57 170.072,-59.9075 175.767,-58.8647 198,-60 404.949,-70.5675 456.869,-81.0278 664,-75 669.819,-74.8307 675.821,-74.6076 681.865,-74.3472"/>
<polygon fill="midnightblue" stroke="midnightblue" points="120.955,-49.0248 110.467,-50.5249 119.601,-55.8927 120.955,-49.0248"/>
</g>
<!-- Node6 -->
<g id="node10" class="node"><title>Node6</title>
<a xlink:href="structboost_1_1Assignable.html" target="_top" xlink:title="boost::Assignable\&lt; X \&gt;">
<polygon fill="white" stroke="black" points="198,-29.5 198,-50.5 328,-50.5 328,-29.5 198,-29.5"/>
<text text-anchor="middle" x="263" y="-37.5" font-family="FreeSans" font-size="10.00">boost::Assignable&lt; X &gt;</text>
</a>
</g>
<!-- Node4&#45;&gt;Node6 -->
<g id="edge12" class="edge"><title>Node4&#45;&gt;Node6</title>
<path fill="none" stroke="orange" stroke-dasharray="5,2" d="M139.725,-40C158.846,-40 179.255,-40 197.851,-40"/>
<polygon fill="orange" stroke="orange" points="139.559,-36.5001 129.559,-40 139.559,-43.5001 139.559,-36.5001"/>
<text text-anchor="middle" x="164" y="-44" font-family="FreeSans" font-size="10.00"> &lt; X &gt;</text>
</g>
<!-- Node8 -->
<g id="node15" class="node"><title>Node8</title>
<a xlink:href="structDGtal_1_1concepts_1_1CUnaryFunctor.html" target="_top" xlink:title="DGtal::concepts::CUnaryFunctor\l\&lt; T, TElement, bool \&gt;">
<polygon fill="white" stroke="black" points="682,-0 682,-34 852,-34 852,-0 682,-0"/>
<text text-anchor="start" x="690" y="-21" font-family="FreeSans" font-size="10.00">DGtal::concepts::CUnaryFunctor</text>
<text text-anchor="middle" x="767" y="-8" font-family="FreeSans" font-size="10.00">&lt; T, TElement, bool &gt;</text>
</a>
</g>
<!-- Node4&#45;&gt;Node8 -->
<g id="edge18" class="edge"><title>Node4&#45;&gt;Node8</title>
<path fill="none" stroke="midnightblue" d="M135.145,-27.9285C155.373,-24.8614 177.514,-21.9 198,-20 369.153,-4.12675 570.509,-8.44527 681.942,-12.8404"/>
<polygon fill="midnightblue" stroke="midnightblue" points="134.42,-24.499 125.073,-29.4875 135.491,-31.4166 134.42,-24.499"/>
</g>
<!-- Node5 -->
<g id="node8" class="node"><title>Node5</title>
<a xlink:href="structDGtal_1_1concepts_1_1CUnaryFunctor.html" target="_top" xlink:title="Aim: Defines a unary functor, which associates arguments to results. ">
<polygon fill="white" stroke="black" points="366,-23 366,-57 536,-57 536,-23 366,-23"/>
<text text-anchor="start" x="374" y="-44" font-family="FreeSans" font-size="10.00">DGtal::concepts::CUnaryFunctor</text>
<text text-anchor="middle" x="451" y="-31" font-family="FreeSans" font-size="10.00">&lt; X, A, R &gt;</text>
</a>
</g>
<!-- Node5&#45;&gt;Node3 -->
<g id="edge8" class="edge"><title>Node5&#45;&gt;Node3</title>
<path fill="none" stroke="orange" stroke-dasharray="5,2" d="M546.311,-48.7469C589.406,-52.7018 639.928,-57.3383 681.75,-61.1764"/>
<polygon fill="orange" stroke="orange" points="546.376,-45.2382 536.098,-47.8096 545.736,-52.2089 546.376,-45.2382"/>
<text text-anchor="middle" x="609" y="-62" font-family="FreeSans" font-size="10.00"> &lt; T, T::Vertex, bool &gt;</text>
</g>
<!-- Node5&#45;&gt;Node8 -->
<g id="edge20" class="edge"><title>Node5&#45;&gt;Node8</title>
<path fill="none" stroke="orange" stroke-dasharray="5,2" d="M546.242,-26.7328C548.854,-26.4724 551.444,-26.2272 554,-26 596.028,-22.2639 642.864,-20.0706 681.89,-18.7868"/>
<polygon fill="orange" stroke="orange" points="545.659,-23.2748 536.083,-27.8071 546.395,-30.236 545.659,-23.2748"/>
<text text-anchor="middle" x="609" y="-30" font-family="FreeSans" font-size="10.00"> &lt; T, TElement, bool &gt;</text>
</g>
<!-- Node6&#45;&gt;Node5 -->
<g id="edge10" class="edge"><title>Node6&#45;&gt;Node5</title>
<path fill="none" stroke="midnightblue" d="M338.282,-40C347.296,-40 356.549,-40 365.692,-40"/>
<polygon fill="midnightblue" stroke="midnightblue" points="338.226,-36.5001 328.226,-40 338.226,-43.5001 338.226,-36.5001"/>
</g>
<!-- Node7 -->
<g id="node13" class="node"><title>Node7</title>
<a xlink:href="structDGtal_1_1concepts_1_1CPredicate.html" target="_top" xlink:title="Aim: Defines a predicate function, ie. a functor mapping a domain into the set of booleans...">
<polygon fill="white" stroke="black" points="890.5,-5 890.5,-39 1041.5,-39 1041.5,-5 890.5,-5"/>
<text text-anchor="start" x="898.5" y="-26" font-family="FreeSans" font-size="10.00">DGtal::concepts::CPredicate</text>
<text text-anchor="middle" x="966" y="-13" font-family="FreeSans" font-size="10.00">&lt; T, TElement &gt;</text>
</a>
</g>
<!-- Node7&#45;&gt;Node2 -->
<g id="edge14" class="edge"><title>Node7&#45;&gt;Node2</title>
<path fill="none" stroke="orange" stroke-dasharray="5,2" d="M1051.73,-30.6372C1086.05,-34.0944 1125.24,-38.0427 1158.46,-41.39"/>
<polygon fill="orange" stroke="orange" points="1052.02,-27.149 1041.72,-29.6289 1051.32,-34.1137 1052.02,-27.149"/>
<text text-anchor="middle" x="1100" y="-43" font-family="FreeSans" font-size="10.00"> &lt; T, T::Vertex &gt;</text>
</g>
<!-- Node8&#45;&gt;Node7 -->
<g id="edge16" class="edge"><title>Node8&#45;&gt;Node7</title>
<path fill="none" stroke="midnightblue" d="M862.398,-19.3969C871.774,-19.6325 881.198,-19.8693 890.337,-20.0989"/>
<polygon fill="midnightblue" stroke="midnightblue" points="862.345,-15.8946 852.26,-19.1422 862.169,-22.8924 862.345,-15.8946"/>
</g>
</g>
</svg>
