<?xml version="1.0" encoding="UTF-8" standalone="no"?>
<!DOCTYPE svg PUBLIC "-//W3C//DTD SVG 1.1//EN"
 "http://www.w3.org/Graphics/SVG/1.1/DTD/svg11.dtd">
<!-- Generated by graphviz version 2.26.3 (20100126.1600)
 -->
<!-- Title: DGtal::functors::LambdaExponentialFunction Pages: 1 -->
<svg width="196pt" height="116pt"
 viewBox="0.00 0.00 196.00 116.00" xmlns="http://www.w3.org/2000/svg" xmlns:xlink="http://www.w3.org/1999/xlink">
<g id="graph1" class="graph" transform="scale(1 1) rotate(0) translate(4 112)">
<title>DGtal::functors::LambdaExponentialFunction</title>
<polygon fill="white" stroke="white" points="-4,5 -4,-112 193,-112 193,5 -4,5"/>
<!-- Node1 -->
<g id="node1" class="node"><title>Node1</title>
<polygon fill="#bfbfbf" stroke="black" points="-0.5,-1 -0.5,-35 188.5,-35 188.5,-1 -0.5,-1"/>
<text text-anchor="start" x="7.5" y="-22" font-family="FreeSans" font-size="10.00">DGtal::functors::LambdaExponential</text>
<text text-anchor="middle" x="94" y="-9" font-family="FreeSans" font-size="10.00">Function</text>
</g>
<!-- Node2 -->
<g id="node2" class="node"><title>Node2</title>
<polygon fill="white" stroke="#bfbfbf" points="39,-73 39,-107 149,-107 149,-73 39,-73"/>
<text text-anchor="start" x="47" y="-94" font-family="FreeSans" font-size="10.00">std::unary_function</text>
<text text-anchor="middle" x="94" y="-81" font-family="FreeSans" font-size="10.00">&lt; double, double &gt;</text>
</g>
<!-- Node2&#45;&gt;Node1 -->
<g id="edge2" class="edge"><title>Node2&#45;&gt;Node1</title>
<path fill="none" stroke="midnightblue" d="M94,-62.7193C94,-53.572 94,-43.6255 94,-35.4407"/>
<polygon fill="midnightblue" stroke="midnightblue" points="90.5001,-62.937 94,-72.937 97.5001,-62.937 90.5001,-62.937"/>
</g>
</g>
</svg>
