<?xml version="1.0" encoding="UTF-8" standalone="no"?>
<!DOCTYPE svg PUBLIC "-//W3C//DTD SVG 1.1//EN"
 "http://www.w3.org/Graphics/SVG/1.1/DTD/svg11.dtd">
<!-- Generated by graphviz version 2.26.3 (20100126.1600)
 -->
<!-- Title: DGtal::functors::Thresholder&lt; T, true, true &gt; Pages: 1 -->
<svg width="158pt" height="116pt"
 viewBox="0.00 0.00 158.00 116.00" xmlns="http://www.w3.org/2000/svg" xmlns:xlink="http://www.w3.org/1999/xlink">
<g id="graph1" class="graph" transform="scale(1 1) rotate(0) translate(4 112)">
<title>DGtal::functors::Thresholder&lt; T, true, true &gt;</title>
<polygon fill="white" stroke="white" points="-4,5 -4,-112 155,-112 155,5 -4,5"/>
<!-- Node1 -->
<g id="node1" class="node"><title>Node1</title>
<polygon fill="#bfbfbf" stroke="black" points="-0.5,-1 -0.5,-35 150.5,-35 150.5,-1 -0.5,-1"/>
<text text-anchor="start" x="7.5" y="-22" font-family="FreeSans" font-size="10.00">DGtal::functors::Thresholder</text>
<text text-anchor="middle" x="75" y="-9" font-family="FreeSans" font-size="10.00">&lt; T, true, true &gt;</text>
</g>
<!-- Node2 -->
<g id="node2" class="node"><title>Node2</title>
<polygon fill="white" stroke="#bfbfbf" points="21,-73 21,-107 129,-107 129,-73 21,-73"/>
<text text-anchor="start" x="29" y="-94" font-family="FreeSans" font-size="10.00">std::unary_function</text>
<text text-anchor="middle" x="75" y="-81" font-family="FreeSans" font-size="10.00">&lt; T, bool &gt;</text>
</g>
<!-- Node2&#45;&gt;Node1 -->
<g id="edge2" class="edge"><title>Node2&#45;&gt;Node1</title>
<path fill="none" stroke="midnightblue" d="M75,-62.7193C75,-53.572 75,-43.6255 75,-35.4407"/>
<polygon fill="midnightblue" stroke="midnightblue" points="71.5001,-62.937 75,-72.937 78.5001,-62.937 71.5001,-62.937"/>
</g>
</g>
</svg>
