<?xml version="1.0" encoding="UTF-8" standalone="no"?>
<!DOCTYPE svg PUBLIC "-//W3C//DTD SVG 1.1//EN"
 "http://www.w3.org/Graphics/SVG/1.1/DTD/svg11.dtd">
<!-- Generated by graphviz version 2.26.3 (20100126.1600)
 -->
<!-- Title: DGtal::concepts::CNormalVectorEstimator&lt; T &gt; Pages: 1 -->
<svg width="148pt" height="116pt"
 viewBox="0.00 0.00 148.00 116.00" xmlns="http://www.w3.org/2000/svg" xmlns:xlink="http://www.w3.org/1999/xlink">
<g id="graph1" class="graph" transform="scale(1 1) rotate(0) translate(4 112)">
<title>DGtal::concepts::CNormalVectorEstimator&lt; T &gt;</title>
<polygon fill="white" stroke="white" points="-4,5 -4,-112 145,-112 145,5 -4,5"/>
<!-- Node1 -->
<g id="node1" class="node"><title>Node1</title>
<polygon fill="#bfbfbf" stroke="black" points="-0.5,-1 -0.5,-35 140.5,-35 140.5,-1 -0.5,-1"/>
<text text-anchor="start" x="7.5" y="-22" font-family="FreeSans" font-size="10.00">DGtal::concepts::CNormal</text>
<text text-anchor="middle" x="70" y="-9" font-family="FreeSans" font-size="10.00">VectorEstimator&lt; T &gt;</text>
</g>
<!-- Node2 -->
<g id="node2" class="node"><title>Node2</title>
<polygon fill="white" stroke="#bfbfbf" points="55.5,-86.5 55.5,-107.5 84.5,-107.5 84.5,-86.5 55.5,-86.5"/>
<text text-anchor="middle" x="70" y="-94.5" font-family="FreeSans" font-size="10.00">T</text>
</g>
<!-- Node2&#45;&gt;Node1 -->
<g id="edge2" class="edge"><title>Node2&#45;&gt;Node1</title>
<path fill="none" stroke="#9a32cd" stroke-dasharray="5,2" d="M70,-76.1618C70,-63.3635 70,-47.1713 70,-35.1236"/>
<polygon fill="#9a32cd" stroke="#9a32cd" points="66.5001,-76.3457 70,-86.3457 73.5001,-76.3457 66.5001,-76.3457"/>
<text text-anchor="middle" x="82.5" y="-58.5" font-family="FreeSans" font-size="10.00"> myX</text>
</g>
</g>
</svg>
