<?xml version="1.0" encoding="UTF-8" standalone="no"?>
<!DOCTYPE svg PUBLIC "-//W3C//DTD SVG 1.1//EN"
 "http://www.w3.org/Graphics/SVG/1.1/DTD/svg11.dtd">
<!-- Generated by graphviz version 2.26.3 (20100126.1600)
 -->
<!-- Title: DGtal::COBANaivePlaneComputer&lt; TSpace, TInternalInteger &gt;::State Pages: 1 -->
<svg width="1810pt" height="630pt"
 viewBox="0.00 0.00 1810.00 630.00" xmlns="http://www.w3.org/2000/svg" xmlns:xlink="http://www.w3.org/1999/xlink">
<g id="graph1" class="graph" transform="scale(1 1) rotate(0) translate(4 626)">
<title>DGtal::COBANaivePlaneComputer&lt; TSpace, TInternalInteger &gt;::State</title>
<polygon fill="white" stroke="white" points="-4,5 -4,-626 1807,-626 1807,5 -4,5"/>
<!-- Node1 -->
<g id="node1" class="node"><title>Node1</title>
<polygon fill="#bfbfbf" stroke="black" points="1622.5,-509.5 1622.5,-556.5 1801.5,-556.5 1801.5,-509.5 1622.5,-509.5"/>
<text text-anchor="start" x="1630.5" y="-543.5" font-family="FreeSans" font-size="10.00">DGtal::COBANaivePlaneComputer</text>
<text text-anchor="start" x="1630.5" y="-530.5" font-family="FreeSans" font-size="10.00">&lt; TSpace, TInternalInteger</text>
<text text-anchor="middle" x="1712" y="-517.5" font-family="FreeSans" font-size="10.00"> &gt;::State</text>
</g>
<!-- Node2 -->
<g id="node2" class="node"><title>Node2</title>
<a xlink:href="classDGtal_1_1PointVector.html" target="_top" xlink:title="DGtal::PointVector\l\&lt; 3, InternalInteger \&gt;">
<polygon fill="white" stroke="black" points="954.5,-571 954.5,-605 1075.5,-605 1075.5,-571 954.5,-571"/>
<text text-anchor="start" x="962.5" y="-592" font-family="FreeSans" font-size="10.00">DGtal::PointVector</text>
<text text-anchor="middle" x="1015" y="-579" font-family="FreeSans" font-size="10.00">&lt; 3, InternalInteger &gt;</text>
</a>
</g>
<!-- Node2&#45;&gt;Node1 -->
<g id="edge2" class="edge"><title>Node2&#45;&gt;Node1</title>
<path fill="none" stroke="#9a32cd" stroke-dasharray="5,2" d="M1085.77,-584.435C1196.48,-578.552 1417.3,-565.582 1604,-547 1610.02,-546.401 1616.22,-545.733 1622.47,-545.022"/>
<polygon fill="#9a32cd" stroke="#9a32cd" points="1085.53,-580.943 1075.73,-584.966 1085.9,-587.933 1085.53,-580.943"/>
<text text-anchor="middle" x="1363" y="-587" font-family="FreeSans" font-size="10.00"> N</text>
<text text-anchor="middle" x="1363" y="-574" font-family="FreeSans" font-size="10.00">centroid</text>
</g>
<!-- Node3 -->
<g id="node4" class="node"><title>Node3</title>
<polygon fill="white" stroke="#bfbfbf" points="658,-588 658,-622 804,-622 804,-588 658,-588"/>
<text text-anchor="start" x="666" y="-609" font-family="FreeSans" font-size="10.00">std::array&lt; InternalInteger,</text>
<text text-anchor="middle" x="731" y="-596" font-family="FreeSans" font-size="10.00"> dim &gt;</text>
</g>
<!-- Node3&#45;&gt;Node2 -->
<g id="edge4" class="edge"><title>Node3&#45;&gt;Node2</title>
<path fill="none" stroke="#9a32cd" stroke-dasharray="5,2" d="M814.741,-607.212C850.343,-607.362 892.269,-606.495 930,-603 937.908,-602.268 946.185,-601.195 954.339,-599.956"/>
<polygon fill="#9a32cd" stroke="#9a32cd" points="814.417,-603.71 804.393,-607.139 814.368,-610.71 814.417,-603.71"/>
<text text-anchor="middle" x="876" y="-611" font-family="FreeSans" font-size="10.00"> myArray</text>
</g>
<!-- Node4 -->
<g id="node6" class="node"><title>Node4</title>
<a xlink:title="STL class. ">
<polygon fill="white" stroke="#bfbfbf" points="276,-500.5 276,-521.5 366,-521.5 366,-500.5 276,-500.5"/>
<text text-anchor="middle" x="321" y="-508.5" font-family="FreeSans" font-size="10.00">std::array&lt; T &gt;</text>
</a>
</g>
<!-- Node4&#45;&gt;Node3 -->
<g id="edge6" class="edge"><title>Node4&#45;&gt;Node3</title>
<path fill="none" stroke="orange" stroke-dasharray="5,2" d="M375.931,-523.594C448.653,-540.267 577.094,-569.714 657.937,-588.249"/>
<polygon fill="orange" stroke="orange" points="376.579,-520.152 366.05,-521.329 375.015,-526.975 376.579,-520.152"/>
<text text-anchor="start" x="402" y="-568" font-family="FreeSans" font-size="10.00"> &lt; InternalInteger,</text>
<text text-anchor="middle" x="446" y="-555" font-family="FreeSans" font-size="10.00"> dim &gt;</text>
</g>
<!-- Node5 -->
<g id="node8" class="node"><title>Node5</title>
<polygon fill="white" stroke="#bfbfbf" points="0.5,-368.5 0.5,-389.5 29.5,-389.5 29.5,-368.5 0.5,-368.5"/>
<text text-anchor="middle" x="15" y="-376.5" font-family="FreeSans" font-size="10.00">T</text>
</g>
<!-- Node5&#45;&gt;Node4 -->
<g id="edge8" class="edge"><title>Node5&#45;&gt;Node4</title>
<path fill="none" stroke="#9a32cd" stroke-dasharray="5,2" d="M29.423,-397.497C34.7524,-403.398 41.1718,-409.545 48,-414 120.455,-461.274 218.785,-488.811 275.514,-501.792"/>
<polygon fill="#9a32cd" stroke="#9a32cd" points="32.0275,-395.157 22.8952,-389.785 26.6846,-399.679 32.0275,-395.157"/>
<text text-anchor="middle" x="73" y="-445" font-family="FreeSans" font-size="10.00"> elements</text>
</g>
<!-- Node11 -->
<g id="node22" class="node"><title>Node11</title>
<a xlink:title="STL class. ">
<polygon fill="white" stroke="#bfbfbf" points="139.5,-336.5 139.5,-357.5 234.5,-357.5 234.5,-336.5 139.5,-336.5"/>
<text text-anchor="middle" x="187" y="-344.5" font-family="FreeSans" font-size="10.00">std::vector&lt; T &gt;</text>
</a>
</g>
<!-- Node5&#45;&gt;Node11 -->
<g id="edge26" class="edge"><title>Node5&#45;&gt;Node11</title>
<path fill="none" stroke="#9a32cd" stroke-dasharray="5,2" d="M39.7722,-374.391C65.7325,-369.561 107.155,-361.855 139.459,-355.845"/>
<polygon fill="#9a32cd" stroke="#9a32cd" points="38.8557,-371.002 29.6646,-376.272 40.1361,-377.883 38.8557,-371.002"/>
<text text-anchor="middle" x="73" y="-376" font-family="FreeSans" font-size="10.00"> elements</text>
</g>
<!-- Node15 -->
<g id="node31" class="node"><title>Node15</title>
<a xlink:href="structDGtal_1_1NumberTraits.html" target="_top" xlink:title="Aim: The traits class for all models of Cinteger. ">
<polygon fill="white" stroke="black" points="116.5,-175.5 116.5,-196.5 257.5,-196.5 257.5,-175.5 116.5,-175.5"/>
<text text-anchor="middle" x="187" y="-183.5" font-family="FreeSans" font-size="10.00">DGtal::NumberTraits&lt; T &gt;</text>
</a>
</g>
<!-- Node5&#45;&gt;Node15 -->
<g id="edge36" class="edge"><title>Node5&#45;&gt;Node15</title>
<path fill="none" stroke="#9a32cd" stroke-dasharray="5,2" d="M25.052,-358.914C41.0877,-328.327 74.8815,-269.47 116,-230 130.437,-216.142 149.941,-204.439 164.854,-196.594"/>
<polygon fill="#9a32cd" stroke="#9a32cd" points="21.7712,-357.64 20.3097,-368.134 27.996,-360.842 21.7712,-357.64"/>
<text text-anchor="middle" x="73" y="-334" font-family="FreeSans" font-size="10.00"> ONE</text>
<text text-anchor="middle" x="73" y="-321" font-family="FreeSans" font-size="10.00">ZERO</text>
</g>
<!-- Node20 -->
<g id="node48" class="node"><title>Node20</title>
<a xlink:title="STL class. ">
<polygon fill="white" stroke="#bfbfbf" points="543.5,-391.5 543.5,-412.5 622.5,-412.5 622.5,-391.5 543.5,-391.5"/>
<text text-anchor="middle" x="583" y="-399.5" font-family="FreeSans" font-size="10.00">std::list&lt; T &gt;</text>
</a>
</g>
<!-- Node5&#45;&gt;Node20 -->
<g id="edge60" class="edge"><title>Node5&#45;&gt;Node20</title>
<path fill="none" stroke="#9a32cd" stroke-dasharray="5,2" d="M39.5842,-384.719C42.4101,-385.226 45.2597,-385.671 48,-386 232.061,-408.093 454.153,-405.469 543.22,-403.234"/>
<polygon fill="#9a32cd" stroke="#9a32cd" points="40.1875,-381.27 29.6903,-382.705 38.7913,-388.129 40.1875,-381.27"/>
<text text-anchor="middle" x="187" y="-405" font-family="FreeSans" font-size="10.00"> elements</text>
</g>
<!-- Node6 -->
<g id="node10" class="node"><title>Node6</title>
<a xlink:href="classDGtal_1_1PointVector.html" target="_top" xlink:title="Aim: Implements basic operations that will be used in Point and Vector classes. ">
<polygon fill="white" stroke="black" points="668,-471.5 668,-518.5 794,-518.5 794,-471.5 668,-471.5"/>
<text text-anchor="start" x="676" y="-505.5" font-family="FreeSans" font-size="10.00">DGtal::PointVector</text>
<text text-anchor="start" x="676" y="-492.5" font-family="FreeSans" font-size="10.00">&lt; dim, TEuclideanRing,</text>
<text text-anchor="middle" x="731" y="-479.5" font-family="FreeSans" font-size="10.00"> TContainer &gt;</text>
</a>
</g>
<!-- Node6&#45;&gt;Node1 -->
<g id="edge72" class="edge"><title>Node6&#45;&gt;Node1</title>
<path fill="none" stroke="#9a32cd" stroke-dasharray="5,2" d="M804.36,-506.464C882.41,-517.652 1009.6,-533 1120,-533 1120,-533 1120,-533 1499,-533 1539.49,-533 1584.31,-533 1622.35,-533"/>
<polygon fill="#9a32cd" stroke="#9a32cd" points="804.549,-502.955 794.15,-504.984 803.545,-509.883 804.549,-502.955"/>
<text text-anchor="middle" x="1227" y="-550" font-family="FreeSans" font-size="10.00"> ptMin</text>
<text text-anchor="middle" x="1227" y="-537" font-family="FreeSans" font-size="10.00">ptMax</text>
</g>
<!-- Node6&#45;&gt;Node2 -->
<g id="edge10" class="edge"><title>Node6&#45;&gt;Node2</title>
<path fill="none" stroke="#9a32cd" stroke-dasharray="5,2" d="M760.991,-525.858C777.513,-540.884 799.252,-557.679 822,-567 845.235,-576.52 906.804,-582.072 954.212,-585.05"/>
<polygon fill="#9a32cd" stroke="#9a32cd" points="763.006,-522.951 753.317,-518.665 758.219,-528.058 763.006,-522.951"/>
<text text-anchor="middle" x="876" y="-587" font-family="FreeSans" font-size="10.00"> zero</text>
</g>
<!-- Node6&#45;&gt;Node2 -->
<g id="edge16" class="edge"><title>Node6&#45;&gt;Node2</title>
<path fill="none" stroke="orange" stroke-dasharray="5,2" d="M794.612,-522.043C803.705,-525.357 813.02,-528.462 822,-531 868.9,-544.254 883.401,-535.724 930,-550 947.619,-555.398 966.402,-563.524 981.818,-570.878"/>
<polygon fill="orange" stroke="orange" points="795.832,-518.763 785.24,-518.53 793.375,-525.317 795.832,-518.763"/>
<text text-anchor="middle" x="876" y="-554" font-family="FreeSans" font-size="10.00"> &lt; 3, InternalInteger &gt;</text>
</g>
<!-- Node6&#45;&gt;Node6 -->
<g id="edge14" class="edge"><title>Node6&#45;&gt;Node6</title>
<path fill="none" stroke="#9a32cd" stroke-dasharray="5,2" d="M706.703,-528.864C710.596,-533.729 718.695,-537 731,-537 750.688,-537 759.608,-528.626 757.763,-518.747"/>
<polygon fill="#9a32cd" stroke="#9a32cd" points="710.006,-527.634 704.237,-518.747 703.205,-529.292 710.006,-527.634"/>
<text text-anchor="middle" x="731" y="-541" font-family="FreeSans" font-size="10.00"> zero</text>
</g>
<!-- Node8 -->
<g id="node16" class="node"><title>Node8</title>
<a xlink:href="classDGtal_1_1LatticePolytope2D.html" target="_top" xlink:title="DGtal::LatticePolytope2D\l\&lt; InternalSpace2 \&gt;">
<polygon fill="white" stroke="black" points="1430.5,-268 1430.5,-302 1567.5,-302 1567.5,-268 1430.5,-268"/>
<text text-anchor="start" x="1438.5" y="-289" font-family="FreeSans" font-size="10.00">DGtal::LatticePolytope2D</text>
<text text-anchor="middle" x="1499" y="-276" font-family="FreeSans" font-size="10.00">&lt; InternalSpace2 &gt;</text>
</a>
</g>
<!-- Node6&#45;&gt;Node8 -->
<g id="edge62" class="edge"><title>Node6&#45;&gt;Node8</title>
<path fill="none" stroke="#9a32cd" stroke-dasharray="5,2" d="M804.405,-501.264C895.097,-507.311 1042.3,-511.055 1082,-476 1115.85,-446.108 1068.05,-407.91 1100,-376 1131.31,-344.736 1252.85,-350.782 1296,-341 1345.92,-329.684 1401.95,-313.996 1442.48,-302.104"/>
<polygon fill="#9a32cd" stroke="#9a32cd" points="804.398,-497.755 794.18,-500.557 803.915,-504.738 804.398,-497.755"/>
<text text-anchor="middle" x="1120" y="-510" font-family="FreeSans" font-size="10.00"> _N</text>
<text text-anchor="middle" x="1120" y="-497" font-family="FreeSans" font-size="10.00">_A</text>
<text text-anchor="middle" x="1120" y="-484" font-family="FreeSans" font-size="10.00">_u</text>
<text text-anchor="middle" x="1120" y="-471" font-family="FreeSans" font-size="10.00">_B</text>
<text text-anchor="middle" x="1120" y="-458" font-family="FreeSans" font-size="10.00">_v</text>
<text text-anchor="middle" x="1120" y="-445" font-family="FreeSans" font-size="10.00">_B1</text>
<text text-anchor="middle" x="1120" y="-432" font-family="FreeSans" font-size="10.00">_DV</text>
<text text-anchor="middle" x="1120" y="-419" font-family="FreeSans" font-size="10.00">_B2</text>
<text text-anchor="middle" x="1120" y="-406" font-family="FreeSans" font-size="10.00">_A1</text>
<text text-anchor="middle" x="1120" y="-393" font-family="FreeSans" font-size="10.00">_A2</text>
<text text-anchor="middle" x="1120" y="-380" font-family="FreeSans" font-size="10.00">...</text>
</g>
<!-- Node18 -->
<g id="node41" class="node"><title>Node18</title>
<polygon fill="white" stroke="#bfbfbf" points="962,-202 962,-236 1068,-236 1068,-202 962,-202"/>
<text text-anchor="start" x="970" y="-223" font-family="FreeSans" font-size="10.00">std::vector&lt; DGtal</text>
<text text-anchor="middle" x="1015" y="-210" font-family="FreeSans" font-size="10.00">::PointVector &gt;</text>
</g>
<!-- Node6&#45;&gt;Node18 -->
<g id="edge50" class="edge"><title>Node6&#45;&gt;Node18</title>
<path fill="none" stroke="#9a32cd" stroke-dasharray="5,2" d="M774.062,-465.307C784.579,-456.887 795.298,-447.209 804,-437 814.586,-424.582 809.931,-415.983 822,-405 860.849,-369.647 897.811,-398.508 930,-357 959.552,-318.892 918.737,-288.33 948,-250 952.2,-244.499 957.609,-239.939 963.53,-236.169"/>
<polygon fill="#9a32cd" stroke="#9a32cd" points="771.85,-462.593 766.095,-471.489 776.142,-468.123 771.85,-462.593"/>
<text text-anchor="middle" x="876" y="-409" font-family="FreeSans" font-size="10.00"> elements</text>
</g>
<!-- Node19 -->
<g id="node45" class="node"><title>Node19</title>
<polygon fill="white" stroke="#bfbfbf" points="948.5,-433 948.5,-467 1081.5,-467 1081.5,-433 948.5,-433"/>
<text text-anchor="start" x="956.5" y="-454" font-family="FreeSans" font-size="10.00">std::list&lt; typename</text>
<text text-anchor="middle" x="1015" y="-441" font-family="FreeSans" font-size="10.00"> InternalSpace2::Point &gt;</text>
</g>
<!-- Node6&#45;&gt;Node19 -->
<g id="edge56" class="edge"><title>Node6&#45;&gt;Node19</title>
<path fill="none" stroke="#9a32cd" stroke-dasharray="5,2" d="M804.264,-471.928C810.23,-470.457 816.195,-469.121 822,-468 863.633,-459.962 911.038,-455.476 948.447,-452.993"/>
<polygon fill="#9a32cd" stroke="#9a32cd" points="803.057,-468.625 794.25,-474.514 804.808,-475.402 803.057,-468.625"/>
<text text-anchor="middle" x="876" y="-472" font-family="FreeSans" font-size="10.00"> elements</text>
</g>
<!-- Node21 -->
<g id="node52" class="node"><title>Node21</title>
<a xlink:href="classDGtal_1_1LatticePolytope2D.html" target="_top" xlink:title="Aim: Represents a 2D polytope, i.e. a convex polygon, in the two&#45;dimensional digital plane...">
<polygon fill="white" stroke="black" points="1158.5,-177 1158.5,-211 1295.5,-211 1295.5,-177 1158.5,-177"/>
<text text-anchor="start" x="1166.5" y="-198" font-family="FreeSans" font-size="10.00">DGtal::LatticePolytope2D</text>
<text text-anchor="middle" x="1227" y="-185" font-family="FreeSans" font-size="10.00">&lt; TSpace, TSequence &gt;</text>
</a>
</g>
<!-- Node6&#45;&gt;Node21 -->
<g id="edge70" class="edge"><title>Node6&#45;&gt;Node21</title>
<path fill="none" stroke="#9a32cd" stroke-dasharray="5,2" d="M783.964,-466.912C796.271,-460.92 809.447,-454.921 822,-450 868.608,-431.726 897.493,-456.073 930,-418 969.876,-371.295 906.678,-326.43 948,-281 1006.91,-216.237 1057.53,-266.373 1140,-237 1159.52,-230.047 1180.37,-219.849 1196.76,-211.129"/>
<polygon fill="#9a32cd" stroke="#9a32cd" points="782.156,-463.902 774.747,-471.476 785.262,-470.175 782.156,-463.902"/>
<text text-anchor="middle" x="1015" y="-415" font-family="FreeSans" font-size="10.00"> _N</text>
<text text-anchor="middle" x="1015" y="-402" font-family="FreeSans" font-size="10.00">_A</text>
<text text-anchor="middle" x="1015" y="-389" font-family="FreeSans" font-size="10.00">_u</text>
<text text-anchor="middle" x="1015" y="-376" font-family="FreeSans" font-size="10.00">_B</text>
<text text-anchor="middle" x="1015" y="-363" font-family="FreeSans" font-size="10.00">_v</text>
<text text-anchor="middle" x="1015" y="-350" font-family="FreeSans" font-size="10.00">_B1</text>
<text text-anchor="middle" x="1015" y="-337" font-family="FreeSans" font-size="10.00">_DV</text>
<text text-anchor="middle" x="1015" y="-324" font-family="FreeSans" font-size="10.00">_B2</text>
<text text-anchor="middle" x="1015" y="-311" font-family="FreeSans" font-size="10.00">_A1</text>
<text text-anchor="middle" x="1015" y="-298" font-family="FreeSans" font-size="10.00">_A2</text>
<text text-anchor="middle" x="1015" y="-285" font-family="FreeSans" font-size="10.00">...</text>
</g>
<!-- Node7 -->
<g id="node12" class="node"><title>Node7</title>
<polygon fill="white" stroke="#bfbfbf" points="412,-484.5 412,-505.5 480,-505.5 480,-484.5 412,-484.5"/>
<text text-anchor="middle" x="446" y="-492.5" font-family="FreeSans" font-size="10.00">TContainer</text>
</g>
<!-- Node7&#45;&gt;Node6 -->
<g id="edge12" class="edge"><title>Node7&#45;&gt;Node6</title>
<path fill="none" stroke="#9a32cd" stroke-dasharray="5,2" d="M490.097,-495C537.733,-495 614.038,-495 667.99,-495"/>
<polygon fill="#9a32cd" stroke="#9a32cd" points="490.095,-491.5 480.095,-495 490.095,-498.5 490.095,-491.5"/>
<text text-anchor="middle" x="583" y="-499" font-family="FreeSans" font-size="10.00"> myArray</text>
</g>
<!-- Node8&#45;&gt;Node1 -->
<g id="edge18" class="edge"><title>Node8&#45;&gt;Node1</title>
<path fill="none" stroke="#9a32cd" stroke-dasharray="5,2" d="M1520.28,-309.772C1561.45,-357.707 1651.5,-462.555 1691.8,-509.48"/>
<polygon fill="#9a32cd" stroke="#9a32cd" points="1522.81,-307.352 1513.64,-302.046 1517.5,-311.913 1522.81,-307.352"/>
<text text-anchor="middle" x="1595" y="-405" font-family="FreeSans" font-size="10.00"> cip</text>
</g>
<!-- Node9 -->
<g id="node18" class="node"><title>Node9</title>
<a xlink:href="classDGtal_1_1IntegerComputer.html" target="_top" xlink:title="DGtal::IntegerComputer\l\&lt; Integer \&gt;">
<polygon fill="white" stroke="black" points="949.5,-110 949.5,-144 1080.5,-144 1080.5,-110 949.5,-110"/>
<text text-anchor="start" x="957.5" y="-131" font-family="FreeSans" font-size="10.00">DGtal::IntegerComputer</text>
<text text-anchor="middle" x="1015" y="-118" font-family="FreeSans" font-size="10.00">&lt; Integer &gt;</text>
</a>
</g>
<!-- Node9&#45;&gt;Node8 -->
<g id="edge20" class="edge"><title>Node9&#45;&gt;Node8</title>
<path fill="none" stroke="#9a32cd" stroke-dasharray="5,2" d="M1090.64,-122.723C1175.39,-121.535 1313.75,-130.725 1412,-193 1443.75,-213.125 1471.9,-247.413 1487.1,-267.964"/>
<polygon fill="#9a32cd" stroke="#9a32cd" points="1090.51,-119.224 1080.58,-122.916 1090.64,-126.223 1090.51,-119.224"/>
<text text-anchor="middle" x="1227" y="-149" font-family="FreeSans" font-size="10.00"> _ic</text>
</g>
<!-- Node9&#45;&gt;Node21 -->
<g id="edge66" class="edge"><title>Node9&#45;&gt;Node21</title>
<path fill="none" stroke="#9a32cd" stroke-dasharray="5,2" d="M1078.61,-147.104C1108.72,-156.619 1144.29,-167.86 1173.05,-176.951"/>
<polygon fill="#9a32cd" stroke="#9a32cd" points="1079.63,-143.757 1069.05,-144.08 1077.53,-150.431 1079.63,-143.757"/>
<text text-anchor="middle" x="1120" y="-170" font-family="FreeSans" font-size="10.00"> _ic</text>
</g>
<!-- Node10 -->
<g id="node20" class="node"><title>Node10</title>
<polygon fill="white" stroke="#bfbfbf" points="384,-0.5 384,-21.5 508,-21.5 508,-0.5 384,-0.5"/>
<text text-anchor="middle" x="446" y="-8.5" font-family="FreeSans" font-size="10.00">std::vector&lt; Integer &gt;</text>
</g>
<!-- Node10&#45;&gt;Node9 -->
<g id="edge22" class="edge"><title>Node10&#45;&gt;Node9</title>
<path fill="none" stroke="#9a32cd" stroke-dasharray="5,2" d="M518.256,-4.03139C591.45,0.949702 707.342,3.09778 804,-21 862.782,-35.655 876.228,-45.0953 930,-73 951.26,-84.0325 974.108,-98.722 990.756,-109.995"/>
<polygon fill="#9a32cd" stroke="#9a32cd" points="517.943,-0.544808 508.218,-4.75061 518.443,-7.52691 517.943,-0.544808"/>
<text text-anchor="middle" x="731" y="-25" font-family="FreeSans" font-size="10.00"> _m_bezout</text>
</g>
<!-- Node16 -->
<g id="node34" class="node"><title>Node16</title>
<a xlink:href="classDGtal_1_1IntegerComputer.html" target="_top" xlink:title="Aim: This class gathers several types and methods to make computation with integers. ">
<polygon fill="white" stroke="black" points="665.5,-43 665.5,-77 796.5,-77 796.5,-43 665.5,-43"/>
<text text-anchor="start" x="673.5" y="-64" font-family="FreeSans" font-size="10.00">DGtal::IntegerComputer</text>
<text text-anchor="middle" x="731" y="-51" font-family="FreeSans" font-size="10.00">&lt; TInteger &gt;</text>
</a>
</g>
<!-- Node10&#45;&gt;Node16 -->
<g id="edge40" class="edge"><title>Node10&#45;&gt;Node16</title>
<path fill="none" stroke="#9a32cd" stroke-dasharray="5,2" d="M518.522,-8.71482C555.338,-9.06612 600.513,-11.8296 640,-21 660.259,-25.7049 681.696,-34.675 698.673,-42.8272"/>
<polygon fill="#9a32cd" stroke="#9a32cd" points="518.384,-5.21437 508.371,-8.67638 518.357,-12.2143 518.384,-5.21437"/>
<text text-anchor="middle" x="583" y="-25" font-family="FreeSans" font-size="10.00"> _m_bezout</text>
</g>
<!-- Node11&#45;&gt;Node10 -->
<g id="edge24" class="edge"><title>Node11&#45;&gt;Node10</title>
<path fill="none" stroke="orange" stroke-dasharray="5,2" d="M234.386,-333.539C281.767,-319.06 349.854,-295.127 366,-273 394.784,-233.555 359.601,-96.2982 384,-54 392.378,-39.476 407.878,-28.726 421.283,-21.607"/>
<polygon fill="orange" stroke="orange" points="233.182,-330.247 224.616,-336.481 235.201,-336.949 233.182,-330.247"/>
<text text-anchor="middle" x="321" y="-323" font-family="FreeSans" font-size="10.00"> &lt; Integer &gt;</text>
</g>
<!-- Node11&#45;&gt;Node18 -->
<g id="edge52" class="edge"><title>Node11&#45;&gt;Node18</title>
<path fill="none" stroke="orange" stroke-dasharray="5,2" d="M244.565,-353.25C355.348,-363.398 604.857,-377.103 804,-321 874.47,-301.147 880.918,-270.33 948,-241 952.487,-239.038 957.208,-237.152 961.979,-235.366"/>
<polygon fill="orange" stroke="orange" points="244.885,-349.764 234.601,-352.312 244.229,-356.733 244.885,-349.764"/>
<text text-anchor="middle" x="583" y="-364" font-family="FreeSans" font-size="10.00"> &lt; DGtal::PointVector &gt;</text>
</g>
<!-- Node12 -->
<g id="node25" class="node"><title>Node12</title>
<a xlink:href="classDGtal_1_1SpaceND.html" target="_top" xlink:title="DGtal::SpaceND\&lt; 2,\l Integer \&gt;">
<polygon fill="white" stroke="black" points="388.5,-239 388.5,-273 503.5,-273 503.5,-239 388.5,-239"/>
<text text-anchor="start" x="396.5" y="-260" font-family="FreeSans" font-size="10.00">DGtal::SpaceND&lt; 2,</text>
<text text-anchor="middle" x="446" y="-247" font-family="FreeSans" font-size="10.00"> Integer &gt;</text>
</a>
</g>
<!-- Node12&#45;&gt;Node9 -->
<g id="edge28" class="edge"><title>Node12&#45;&gt;Node9</title>
<path fill="none" stroke="#9a32cd" stroke-dasharray="5,2" d="M513.725,-268.336C587.082,-278.978 706.666,-288.341 804,-258 882.006,-233.684 960.143,-173.586 995.474,-144.004"/>
<polygon fill="#9a32cd" stroke="#9a32cd" points="514.096,-264.852 503.688,-266.83 513.057,-271.775 514.096,-264.852"/>
<text text-anchor="middle" x="731" y="-308" font-family="FreeSans" font-size="10.00"> _m_v</text>
<text text-anchor="middle" x="731" y="-295" font-family="FreeSans" font-size="10.00">_m_v0</text>
<text text-anchor="middle" x="731" y="-282" font-family="FreeSans" font-size="10.00">_m_v1</text>
</g>
<!-- Node12&#45;&gt;Node16 -->
<g id="edge46" class="edge"><title>Node12&#45;&gt;Node16</title>
<path fill="none" stroke="#9a32cd" stroke-dasharray="5,2" d="M499.137,-235.493C508.034,-232.42 517.225,-229.461 526,-227 575.767,-213.043 603.804,-240.898 640,-204 671.317,-172.075 632.781,-141.932 658,-105 665.976,-93.3196 678.085,-84.1113 690.161,-77.1488"/>
<polygon fill="#9a32cd" stroke="#9a32cd" points="497.892,-232.221 489.631,-238.856 500.226,-238.821 497.892,-232.221"/>
<text text-anchor="middle" x="583" y="-257" font-family="FreeSans" font-size="10.00"> _m_v</text>
<text text-anchor="middle" x="583" y="-244" font-family="FreeSans" font-size="10.00">_m_v0</text>
<text text-anchor="middle" x="583" y="-231" font-family="FreeSans" font-size="10.00">_m_v1</text>
</g>
<!-- Node13 -->
<g id="node27" class="node"><title>Node13</title>
<a xlink:href="classDGtal_1_1SpaceND.html" target="_top" xlink:title="Aim: SpaceND is a utility class that defines the fundamental structure of a Digital Space in ND...">
<polygon fill="white" stroke="black" points="123.5,-239 123.5,-273 250.5,-273 250.5,-239 123.5,-239"/>
<text text-anchor="start" x="131.5" y="-260" font-family="FreeSans" font-size="10.00">DGtal::SpaceND&lt; dim,</text>
<text text-anchor="middle" x="187" y="-247" font-family="FreeSans" font-size="10.00"> TInteger &gt;</text>
</a>
</g>
<!-- Node13&#45;&gt;Node12 -->
<g id="edge30" class="edge"><title>Node13&#45;&gt;Node12</title>
<path fill="none" stroke="orange" stroke-dasharray="5,2" d="M260.773,-256C301.243,-256 350.686,-256 388.307,-256"/>
<polygon fill="orange" stroke="orange" points="260.69,-252.5 250.69,-256 260.69,-259.5 260.69,-252.5"/>
<text text-anchor="middle" x="321" y="-260" font-family="FreeSans" font-size="10.00"> &lt; 2, Integer &gt;</text>
</g>
<!-- Node14 -->
<g id="node29" class="node"><title>Node14</title>
<a xlink:href="structDGtal_1_1NumberTraits.html" target="_top" xlink:title="DGtal::NumberTraits\l\&lt; Integer \&gt;">
<polygon fill="white" stroke="black" points="526.5,-169 526.5,-203 639.5,-203 639.5,-169 526.5,-169"/>
<text text-anchor="start" x="534.5" y="-190" font-family="FreeSans" font-size="10.00">DGtal::NumberTraits</text>
<text text-anchor="middle" x="583" y="-177" font-family="FreeSans" font-size="10.00">&lt; Integer &gt;</text>
</a>
</g>
<!-- Node14&#45;&gt;Node9 -->
<g id="edge32" class="edge"><title>Node14&#45;&gt;Node9</title>
<path fill="none" stroke="#9a32cd" stroke-dasharray="5,2" d="M640.218,-162.432C649.5,-153.021 648.521,-145.851 658,-141 707.143,-115.853 860.542,-118.907 949.457,-123.103"/>
<polygon fill="#9a32cd" stroke="#9a32cd" points="637.858,-159.844 632.424,-168.939 642.344,-165.217 637.858,-159.844"/>
<text text-anchor="middle" x="731" y="-249" font-family="FreeSans" font-size="10.00"> _m_b</text>
<text text-anchor="middle" x="731" y="-236" font-family="FreeSans" font-size="10.00">_m_c0</text>
<text text-anchor="middle" x="731" y="-223" font-family="FreeSans" font-size="10.00">_m_c1</text>
<text text-anchor="middle" x="731" y="-210" font-family="FreeSans" font-size="10.00">_m_c2</text>
<text text-anchor="middle" x="731" y="-197" font-family="FreeSans" font-size="10.00">_m_q</text>
<text text-anchor="middle" x="731" y="-184" font-family="FreeSans" font-size="10.00">_m_a0</text>
<text text-anchor="middle" x="731" y="-171" font-family="FreeSans" font-size="10.00">_m_r</text>
<text text-anchor="middle" x="731" y="-158" font-family="FreeSans" font-size="10.00">_m_a1</text>
<text text-anchor="middle" x="731" y="-145" font-family="FreeSans" font-size="10.00">_m_a</text>
</g>
<!-- Node15&#45;&gt;Node14 -->
<g id="edge34" class="edge"><title>Node15&#45;&gt;Node14</title>
<path fill="none" stroke="orange" stroke-dasharray="5,2" d="M267.928,-186C344.852,-186 458.562,-186 526.273,-186"/>
<polygon fill="orange" stroke="orange" points="267.797,-182.5 257.797,-186 267.797,-189.5 267.797,-182.5"/>
<text text-anchor="middle" x="321" y="-190" font-family="FreeSans" font-size="10.00"> &lt; Integer &gt;</text>
</g>
<!-- Node17 -->
<g id="node37" class="node"><title>Node17</title>
<a xlink:href="structDGtal_1_1NumberTraits.html" target="_top" xlink:title="DGtal::NumberTraits\l\&lt; TInteger \&gt;">
<polygon fill="white" stroke="black" points="389.5,-63 389.5,-97 502.5,-97 502.5,-63 389.5,-63"/>
<text text-anchor="start" x="397.5" y="-84" font-family="FreeSans" font-size="10.00">DGtal::NumberTraits</text>
<text text-anchor="middle" x="446" y="-71" font-family="FreeSans" font-size="10.00">&lt; TInteger &gt;</text>
</a>
</g>
<!-- Node15&#45;&gt;Node17 -->
<g id="edge44" class="edge"><title>Node15&#45;&gt;Node17</title>
<path fill="none" stroke="orange" stroke-dasharray="5,2" d="M222.309,-171.549C269.685,-152.16 353.694,-117.778 404.18,-97.1154"/>
<polygon fill="orange" stroke="orange" points="220.71,-168.422 212.781,-175.449 223.361,-174.9 220.71,-168.422"/>
<text text-anchor="middle" x="321" y="-153" font-family="FreeSans" font-size="10.00"> &lt; TInteger &gt;</text>
</g>
<!-- Node16&#45;&gt;Node9 -->
<g id="edge38" class="edge"><title>Node16&#45;&gt;Node9</title>
<path fill="none" stroke="orange" stroke-dasharray="5,2" d="M807.121,-73.2817C844.381,-80.2948 889.77,-89.6004 930,-100 941.243,-102.906 953.194,-106.427 964.473,-109.953"/>
<polygon fill="orange" stroke="orange" points="807.31,-69.7568 796.838,-71.3655 806.028,-76.6384 807.31,-69.7568"/>
<text text-anchor="middle" x="876" y="-104" font-family="FreeSans" font-size="10.00"> &lt; Integer &gt;</text>
</g>
<!-- Node17&#45;&gt;Node16 -->
<g id="edge42" class="edge"><title>Node17&#45;&gt;Node16</title>
<path fill="none" stroke="#9a32cd" stroke-dasharray="5,2" d="M483.973,-58.3594C496.891,-52.1193 511.689,-46.1491 526,-43 571.865,-32.9074 624.701,-37.669 665.246,-44.6874"/>
<polygon fill="#9a32cd" stroke="#9a32cd" points="482.288,-55.2892 474.932,-62.9144 485.437,-61.5405 482.288,-55.2892"/>
<text text-anchor="middle" x="583" y="-151" font-family="FreeSans" font-size="10.00"> _m_b</text>
<text text-anchor="middle" x="583" y="-138" font-family="FreeSans" font-size="10.00">_m_c0</text>
<text text-anchor="middle" x="583" y="-125" font-family="FreeSans" font-size="10.00">_m_c1</text>
<text text-anchor="middle" x="583" y="-112" font-family="FreeSans" font-size="10.00">_m_c2</text>
<text text-anchor="middle" x="583" y="-99" font-family="FreeSans" font-size="10.00">_m_q</text>
<text text-anchor="middle" x="583" y="-86" font-family="FreeSans" font-size="10.00">_m_a0</text>
<text text-anchor="middle" x="583" y="-73" font-family="FreeSans" font-size="10.00">_m_r</text>
<text text-anchor="middle" x="583" y="-60" font-family="FreeSans" font-size="10.00">_m_a1</text>
<text text-anchor="middle" x="583" y="-47" font-family="FreeSans" font-size="10.00">_m_a</text>
</g>
<!-- Node18&#45;&gt;Node8 -->
<g id="edge48" class="edge"><title>Node18&#45;&gt;Node8</title>
<path fill="none" stroke="#9a32cd" stroke-dasharray="5,2" d="M1078.03,-229.625C1085.43,-230.8 1092.88,-231.95 1100,-233 1215.76,-250.071 1350.85,-267.065 1430.42,-276.774"/>
<polygon fill="#9a32cd" stroke="#9a32cd" points="1078.44,-226.145 1068.01,-228.013 1077.33,-233.056 1078.44,-226.145"/>
<text text-anchor="middle" x="1227" y="-276" font-family="FreeSans" font-size="10.00"> _outPts</text>
<text text-anchor="middle" x="1227" y="-263" font-family="FreeSans" font-size="10.00">_inPts</text>
</g>
<!-- Node18&#45;&gt;Node21 -->
<g id="edge68" class="edge"><title>Node18&#45;&gt;Node21</title>
<path fill="none" stroke="#9a32cd" stroke-dasharray="5,2" d="M1078.03,-209.827C1085.43,-208.832 1092.88,-207.867 1100,-207 1118.92,-204.697 1139.46,-202.474 1158.4,-200.537"/>
<polygon fill="#9a32cd" stroke="#9a32cd" points="1077.44,-206.375 1068.01,-211.197 1078.39,-213.311 1077.44,-206.375"/>
<text text-anchor="middle" x="1120" y="-224" font-family="FreeSans" font-size="10.00"> _outPts</text>
<text text-anchor="middle" x="1120" y="-211" font-family="FreeSans" font-size="10.00">_inPts</text>
</g>
<!-- Node19&#45;&gt;Node8 -->
<g id="edge54" class="edge"><title>Node19&#45;&gt;Node8</title>
<path fill="none" stroke="#9a32cd" stroke-dasharray="5,2" d="M1073.73,-426.982C1076.74,-424.565 1079.54,-421.912 1082,-419 1101.63,-395.781 1077.48,-373.427 1100,-353 1147.36,-310.04 1329.05,-293.794 1430.13,-287.992"/>
<polygon fill="#9a32cd" stroke="#9a32cd" points="1071.51,-424.257 1065.3,-432.837 1075.51,-430.006 1071.51,-424.257"/>
<text text-anchor="middle" x="1227" y="-328" font-family="FreeSans" font-size="10.00"> myVertices</text>
</g>
<!-- Node20&#45;&gt;Node19 -->
<g id="edge58" class="edge"><title>Node20&#45;&gt;Node19</title>
<path fill="none" stroke="orange" stroke-dasharray="5,2" d="M632.903,-407.545C710.761,-416.196 861.22,-432.913 948.299,-442.589"/>
<polygon fill="orange" stroke="orange" points="633.193,-404.055 622.867,-406.43 632.419,-411.013 633.193,-404.055"/>
<text text-anchor="start" x="661.5" y="-443" font-family="FreeSans" font-size="10.00"> &lt; typename InternalSpace2</text>
<text text-anchor="middle" x="731" y="-430" font-family="FreeSans" font-size="10.00">::Point &gt;</text>
</g>
<!-- Node21&#45;&gt;Node8 -->
<g id="edge64" class="edge"><title>Node21&#45;&gt;Node8</title>
<path fill="none" stroke="orange" stroke-dasharray="5,2" d="M1306.18,-196.419C1339.82,-199.635 1378.84,-206.345 1412,-220 1439.02,-231.128 1465.22,-252.609 1481.68,-267.827"/>
<polygon fill="orange" stroke="orange" points="1306.19,-192.907 1295.93,-195.529 1305.59,-199.88 1306.19,-192.907"/>
<text text-anchor="middle" x="1363" y="-224" font-family="FreeSans" font-size="10.00"> &lt; InternalSpace2 &gt;</text>
</g>
</g>
</svg>
