<?xml version="1.0" encoding="UTF-8" standalone="no"?>
<!DOCTYPE svg PUBLIC "-//W3C//DTD SVG 1.1//EN"
 "http://www.w3.org/Graphics/SVG/1.1/DTD/svg11.dtd">
<!-- Generated by graphviz version 2.26.3 (20100126.1600)
 -->
<!-- Title: DGtal::CustomStyle3D Pages: 1 -->
<svg width="940pt" height="104pt"
 viewBox="0.00 0.00 940.00 104.00" xmlns="http://www.w3.org/2000/svg" xmlns:xlink="http://www.w3.org/1999/xlink">
<g id="graph1" class="graph" transform="scale(1 1) rotate(0) translate(4 100)">
<title>DGtal::CustomStyle3D</title>
<polygon fill="white" stroke="white" points="-4,5 -4,-100 937,-100 937,5 -4,5"/>
<!-- Node1 -->
<g id="node1" class="node"><title>Node1</title>
<polygon fill="#bfbfbf" stroke="black" points="806.5,-55.5 806.5,-76.5 931.5,-76.5 931.5,-55.5 806.5,-55.5"/>
<text text-anchor="middle" x="869" y="-63.5" font-family="FreeSans" font-size="10.00">DGtal::CustomStyle3D</text>
</g>
<!-- Node2 -->
<g id="node2" class="node"><title>Node2</title>
<a xlink:href="structDGtal_1_1DrawWithDisplay3DModifier.html" target="_top" xlink:title="Base class specifying the methods for classes which intend to modify a Viewer3D stream. ">
<polygon fill="white" stroke="black" points="546.5,-74.5 546.5,-95.5 725.5,-95.5 725.5,-74.5 546.5,-74.5"/>
<text text-anchor="middle" x="636" y="-82.5" font-family="FreeSans" font-size="10.00">DGtal::DrawWithDisplay3DModifier</text>
</a>
</g>
<!-- Node2&#45;&gt;Node1 -->
<g id="edge2" class="edge"><title>Node2&#45;&gt;Node1</title>
<path fill="none" stroke="midnightblue" d="M735.928,-76.8513C759.841,-74.9014 784.704,-72.8739 806.377,-71.1066"/>
<polygon fill="midnightblue" stroke="midnightblue" points="735.433,-73.38 725.751,-77.6813 736.002,-80.3569 735.433,-73.38"/>
</g>
<!-- Node3 -->
<g id="node4" class="node"><title>Node3</title>
<a xlink:href="classDGtal_1_1CountedPtr.html" target="_top" xlink:title="DGtal::CountedPtr\&lt;\l DGtal::DrawableWithDisplay3D \&gt;">
<polygon fill="white" stroke="black" points="548,-22 548,-56 724,-56 724,-22 548,-22"/>
<text text-anchor="start" x="556" y="-43" font-family="FreeSans" font-size="10.00">DGtal::CountedPtr&lt;</text>
<text text-anchor="middle" x="636" y="-30" font-family="FreeSans" font-size="10.00"> DGtal::DrawableWithDisplay3D &gt;</text>
</a>
</g>
<!-- Node3&#45;&gt;Node1 -->
<g id="edge4" class="edge"><title>Node3&#45;&gt;Node1</title>
<path fill="none" stroke="#9a32cd" stroke-dasharray="5,2" d="M734.476,-48.9288C752.301,-50.8503 770.713,-52.9168 788,-55 793.918,-55.7131 800.074,-56.4883 806.231,-57.286"/>
<polygon fill="#9a32cd" stroke="#9a32cd" points="734.378,-45.3984 724.063,-47.8151 733.634,-52.3587 734.378,-45.3984"/>
<text text-anchor="middle" x="766" y="-59" font-family="FreeSans" font-size="10.00"> myStyle</text>
</g>
<!-- Node4 -->
<g id="node6" class="node"><title>Node4</title>
<a xlink:href="structDGtal_1_1CountedPtr_1_1Counter.html" target="_top" xlink:title="DGtal::CountedPtr\&lt;\l T \&gt;::Counter">
<polygon fill="white" stroke="black" points="0,-22 0,-56 112,-56 112,-22 0,-22"/>
<text text-anchor="start" x="8" y="-43" font-family="FreeSans" font-size="10.00">DGtal::CountedPtr&lt;</text>
<text text-anchor="middle" x="56" y="-30" font-family="FreeSans" font-size="10.00"> T &gt;::Counter</text>
</a>
</g>
<!-- Node4&#45;&gt;Node3 -->
<g id="edge6" class="edge"><title>Node4&#45;&gt;Node3</title>
<path fill="none" stroke="#9a32cd" stroke-dasharray="5,2" d="M122.278,-43.6973C124.885,-43.8126 127.466,-43.9145 130,-44 306.788,-49.9658 351.158,-48.0914 528,-44 534.474,-43.8502 541.164,-43.65 547.896,-43.4157"/>
<polygon fill="#9a32cd" stroke="#9a32cd" points="122.304,-40.1943 112.142,-43.1926 121.955,-47.1857 122.304,-40.1943"/>
<text text-anchor="middle" x="272" y="-51" font-family="FreeSans" font-size="10.00"> myCounter</text>
</g>
<!-- Node5 -->
<g id="node8" class="node"><title>Node5</title>
<a xlink:href="classDGtal_1_1CountedPtr.html" target="_top" xlink:title="Aim: Smart pointer based on reference counts. ">
<polygon fill="white" stroke="black" points="206.5,-0.5 206.5,-21.5 337.5,-21.5 337.5,-0.5 206.5,-0.5"/>
<text text-anchor="middle" x="272" y="-8.5" font-family="FreeSans" font-size="10.00">DGtal::CountedPtr&lt; T &gt;</text>
</a>
</g>
<!-- Node4&#45;&gt;Node5 -->
<g id="edge10" class="edge"><title>Node4&#45;&gt;Node5</title>
<path fill="none" stroke="#9a32cd" stroke-dasharray="5,2" d="M122.188,-30.42C148.84,-26.9652 179.508,-22.9897 206.127,-19.5391"/>
<polygon fill="#9a32cd" stroke="#9a32cd" points="121.655,-26.9598 112.188,-31.7164 122.555,-33.9018 121.655,-26.9598"/>
<text text-anchor="middle" x="159" y="-33" font-family="FreeSans" font-size="10.00"> myCounter</text>
</g>
<!-- Node5&#45;&gt;Node3 -->
<g id="edge8" class="edge"><title>Node5&#45;&gt;Node3</title>
<path fill="none" stroke="orange" stroke-dasharray="5,2" d="M348.167,-16.859C406.45,-21.3423 486.922,-27.5325 547.964,-32.228"/>
<polygon fill="orange" stroke="orange" points="348.157,-13.348 337.918,-16.0706 347.62,-20.3273 348.157,-13.348"/>
<text text-anchor="middle" x="442" y="-33" font-family="FreeSans" font-size="10.00"> &lt; DGtal::DrawableWithDisplay3D &gt;</text>
</g>
</g>
</svg>
