<?xml version="1.0" encoding="UTF-8" standalone="no"?>
<!DOCTYPE svg PUBLIC "-//W3C//DTD SVG 1.1//EN"
 "http://www.w3.org/Graphics/SVG/1.1/DTD/svg11.dtd">
<!-- Generated by graphviz version 2.26.3 (20100126.1600)
 -->
<!-- Title: DGtal::Translate2DDomain Pages: 1 -->
<svg width="186pt" height="146pt"
 viewBox="0.00 0.00 186.00 146.00" xmlns="http://www.w3.org/2000/svg" xmlns:xlink="http://www.w3.org/1999/xlink">
<g id="graph1" class="graph" transform="scale(1 1) rotate(0) translate(4 142)">
<title>DGtal::Translate2DDomain</title>
<polygon fill="white" stroke="white" points="-4,5 -4,-142 183,-142 183,5 -4,5"/>
<!-- Node1 -->
<g id="node1" class="node"><title>Node1</title>
<polygon fill="#bfbfbf" stroke="black" points="17.5,-0.5 17.5,-21.5 160.5,-21.5 160.5,-0.5 17.5,-0.5"/>
<text text-anchor="middle" x="89" y="-8.5" font-family="FreeSans" font-size="10.00">DGtal::Translate2DDomain</text>
</g>
<!-- Node2 -->
<g id="node2" class="node"><title>Node2</title>
<a xlink:href="structDGtal_1_1DrawWithViewer3DModifier.html" target="_top" xlink:title="Base class specifying the methods for classes which intend to modify a Viewer3D stream. ">
<polygon fill="white" stroke="black" points="1,-58.5 1,-79.5 177,-79.5 177,-58.5 1,-58.5"/>
<text text-anchor="middle" x="89" y="-66.5" font-family="FreeSans" font-size="10.00">DGtal::DrawWithViewer3DModifier</text>
</a>
</g>
<!-- Node2&#45;&gt;Node1 -->
<g id="edge2" class="edge"><title>Node2&#45;&gt;Node1</title>
<path fill="none" stroke="midnightblue" d="M89,-48.1906C89,-39.1684 89,-28.9941 89,-21.5707"/>
<polygon fill="midnightblue" stroke="midnightblue" points="85.5001,-48.3619 89,-58.3619 92.5001,-48.3619 85.5001,-48.3619"/>
</g>
<!-- Node3 -->
<g id="node4" class="node"><title>Node3</title>
<a xlink:href="structDGtal_1_1DrawWithDisplay3DModifier.html" target="_top" xlink:title="Base class specifying the methods for classes which intend to modify a Viewer3D stream. ">
<polygon fill="white" stroke="black" points="-0.5,-116.5 -0.5,-137.5 178.5,-137.5 178.5,-116.5 -0.5,-116.5"/>
<text text-anchor="middle" x="89" y="-124.5" font-family="FreeSans" font-size="10.00">DGtal::DrawWithDisplay3DModifier</text>
</a>
</g>
<!-- Node3&#45;&gt;Node2 -->
<g id="edge4" class="edge"><title>Node3&#45;&gt;Node2</title>
<path fill="none" stroke="midnightblue" d="M89,-106.191C89,-97.1684 89,-86.9941 89,-79.5707"/>
<polygon fill="midnightblue" stroke="midnightblue" points="85.5001,-106.362 89,-116.362 92.5001,-106.362 85.5001,-106.362"/>
</g>
</g>
</svg>
