<?xml version="1.0" encoding="UTF-8" standalone="no"?>
<!DOCTYPE svg PUBLIC "-//W3C//DTD SVG 1.1//EN"
 "http://www.w3.org/Graphics/SVG/1.1/DTD/svg11.dtd">
<!-- Generated by graphviz version 2.26.3 (20100126.1600)
 -->
<!-- Title: DGtal::SignedKhalimskyPreCell&lt; dim, TInteger &gt; Pages: 1 -->
<svg width="305pt" height="372pt"
 viewBox="0.00 0.00 305.00 372.00" xmlns="http://www.w3.org/2000/svg" xmlns:xlink="http://www.w3.org/1999/xlink">
<g id="graph1" class="graph" transform="scale(1 1) rotate(0) translate(4 368)">
<title>DGtal::SignedKhalimskyPreCell&lt; dim, TInteger &gt;</title>
<polygon fill="white" stroke="white" points="-4,5 -4,-368 302,-368 302,5 -4,5"/>
<!-- Node1 -->
<g id="node1" class="node"><title>Node1</title>
<polygon fill="#bfbfbf" stroke="black" points="70,-1 70,-35 216,-35 216,-1 70,-1"/>
<text text-anchor="start" x="78" y="-22" font-family="FreeSans" font-size="10.00">DGtal::SignedKhalimskyPre</text>
<text text-anchor="middle" x="143" y="-9" font-family="FreeSans" font-size="10.00">Cell&lt; dim, TInteger &gt;</text>
</g>
<!-- Node2 -->
<g id="node2" class="node"><title>Node2</title>
<a xlink:href="classDGtal_1_1PointVector.html" target="_top" xlink:title="DGtal::PointVector\l\&lt; dim, Integer \&gt;">
<polygon fill="white" stroke="black" points="91,-87 91,-121 195,-121 195,-87 91,-87"/>
<text text-anchor="start" x="99" y="-108" font-family="FreeSans" font-size="10.00">DGtal::PointVector</text>
<text text-anchor="middle" x="143" y="-95" font-family="FreeSans" font-size="10.00">&lt; dim, Integer &gt;</text>
</a>
</g>
<!-- Node2&#45;&gt;Node1 -->
<g id="edge2" class="edge"><title>Node2&#45;&gt;Node1</title>
<path fill="none" stroke="#9a32cd" stroke-dasharray="5,2" d="M143,-76.342C143,-62.7741 143,-46.8607 143,-35.084"/>
<polygon fill="#9a32cd" stroke="#9a32cd" points="139.5,-76.5966 143,-86.5966 146.5,-76.5967 139.5,-76.5966"/>
<text text-anchor="middle" x="173" y="-58.5" font-family="FreeSans" font-size="10.00"> coordinates</text>
</g>
<!-- Node3 -->
<g id="node4" class="node"><title>Node3</title>
<polygon fill="white" stroke="#bfbfbf" points="0,-179 0,-213 110,-213 110,-179 0,-179"/>
<text text-anchor="start" x="8" y="-200" font-family="FreeSans" font-size="10.00">std::array&lt; Integer,</text>
<text text-anchor="middle" x="55" y="-187" font-family="FreeSans" font-size="10.00"> dim &gt;</text>
</g>
<!-- Node3&#45;&gt;Node2 -->
<g id="edge4" class="edge"><title>Node3&#45;&gt;Node2</title>
<path fill="none" stroke="#9a32cd" stroke-dasharray="5,2" d="M69.2922,-170.105C75.5178,-160.081 83.3672,-148.903 92,-140 98.7147,-133.075 106.925,-126.614 114.779,-121.131"/>
<polygon fill="#9a32cd" stroke="#9a32cd" points="66.1709,-168.506 64.0555,-178.887 72.1832,-172.091 66.1709,-168.506"/>
<text text-anchor="middle" x="114" y="-144.5" font-family="FreeSans" font-size="10.00"> myArray</text>
</g>
<!-- Node4 -->
<g id="node6" class="node"><title>Node4</title>
<a xlink:title="STL class. ">
<polygon fill="white" stroke="#bfbfbf" points="10,-270.5 10,-291.5 100,-291.5 100,-270.5 10,-270.5"/>
<text text-anchor="middle" x="55" y="-278.5" font-family="FreeSans" font-size="10.00">std::array&lt; T &gt;</text>
</a>
</g>
<!-- Node4&#45;&gt;Node3 -->
<g id="edge6" class="edge"><title>Node4&#45;&gt;Node3</title>
<path fill="none" stroke="orange" stroke-dasharray="5,2" d="M55,-259.814C55,-245.41 55,-226.599 55,-213.139"/>
<polygon fill="orange" stroke="orange" points="51.5001,-260.235 55,-270.235 58.5001,-260.235 51.5001,-260.235"/>
<text text-anchor="middle" x="97" y="-242.5" font-family="FreeSans" font-size="10.00"> &lt; Integer, dim &gt;</text>
</g>
<!-- Node5 -->
<g id="node8" class="node"><title>Node5</title>
<polygon fill="white" stroke="#bfbfbf" points="40.5,-342.5 40.5,-363.5 69.5,-363.5 69.5,-342.5 40.5,-342.5"/>
<text text-anchor="middle" x="55" y="-350.5" font-family="FreeSans" font-size="10.00">T</text>
</g>
<!-- Node5&#45;&gt;Node4 -->
<g id="edge8" class="edge"><title>Node5&#45;&gt;Node4</title>
<path fill="none" stroke="#9a32cd" stroke-dasharray="5,2" d="M55,-332.235C55,-318.969 55,-302.319 55,-291.667"/>
<polygon fill="#9a32cd" stroke="#9a32cd" points="51.5001,-332.376 55,-342.376 58.5001,-332.376 51.5001,-332.376"/>
<text text-anchor="middle" x="79.5" y="-314.5" font-family="FreeSans" font-size="10.00"> elements</text>
</g>
<!-- Node6 -->
<g id="node10" class="node"><title>Node6</title>
<a xlink:href="classDGtal_1_1PointVector.html" target="_top" xlink:title="Aim: Implements basic operations that will be used in Point and Vector classes. ">
<polygon fill="white" stroke="black" points="128,-172.5 128,-219.5 254,-219.5 254,-172.5 128,-172.5"/>
<text text-anchor="start" x="136" y="-206.5" font-family="FreeSans" font-size="10.00">DGtal::PointVector</text>
<text text-anchor="start" x="136" y="-193.5" font-family="FreeSans" font-size="10.00">&lt; dim, TEuclideanRing,</text>
<text text-anchor="middle" x="191" y="-180.5" font-family="FreeSans" font-size="10.00"> TContainer &gt;</text>
</a>
</g>
<!-- Node6&#45;&gt;Node2 -->
<g id="edge10" class="edge"><title>Node6&#45;&gt;Node2</title>
<path fill="none" stroke="#9a32cd" stroke-dasharray="5,2" d="M150.411,-164.506C147.897,-161.207 145.699,-157.698 144,-154 139.36,-143.902 139.11,-131.402 140.02,-121.426"/>
<polygon fill="#9a32cd" stroke="#9a32cd" points="147.987,-167.049 157.214,-172.255 153.247,-162.431 147.987,-167.049"/>
<text text-anchor="middle" x="156.5" y="-144.5" font-family="FreeSans" font-size="10.00"> zero</text>
</g>
<!-- Node6&#45;&gt;Node2 -->
<g id="edge16" class="edge"><title>Node6&#45;&gt;Node2</title>
<path fill="none" stroke="orange" stroke-dasharray="5,2" d="M179.552,-162.813C176.478,-155.152 172.908,-147.155 169,-140 165.526,-133.64 161.098,-127.097 156.885,-121.362"/>
<polygon fill="orange" stroke="orange" points="176.322,-164.164 183.171,-172.248 182.858,-161.658 176.322,-164.164"/>
<text text-anchor="middle" x="217" y="-144.5" font-family="FreeSans" font-size="10.00"> &lt; dim, Integer &gt;</text>
</g>
<!-- Node6&#45;&gt;Node6 -->
<g id="edge14" class="edge"><title>Node6&#45;&gt;Node6</title>
<path fill="none" stroke="#9a32cd" stroke-dasharray="5,2" d="M264.09,-202.476C269.012,-200.982 272,-198.823 272,-196 272,-191.594 264.719,-188.805 254.168,-187.635"/>
<polygon fill="#9a32cd" stroke="#9a32cd" points="263.337,-199.057 254.168,-204.365 264.646,-205.933 263.337,-199.057"/>
<text text-anchor="middle" x="284.5" y="-193.5" font-family="FreeSans" font-size="10.00"> zero</text>
</g>
<!-- Node7 -->
<g id="node12" class="node"><title>Node7</title>
<polygon fill="white" stroke="#bfbfbf" points="157,-270.5 157,-291.5 225,-291.5 225,-270.5 157,-270.5"/>
<text text-anchor="middle" x="191" y="-278.5" font-family="FreeSans" font-size="10.00">TContainer</text>
</g>
<!-- Node7&#45;&gt;Node6 -->
<g id="edge12" class="edge"><title>Node7&#45;&gt;Node6</title>
<path fill="none" stroke="#9a32cd" stroke-dasharray="5,2" d="M191,-260.045C191,-247.759 191,-232.207 191,-219.504"/>
<polygon fill="#9a32cd" stroke="#9a32cd" points="187.5,-260.235 191,-270.235 194.5,-260.235 187.5,-260.235"/>
<text text-anchor="middle" x="213" y="-242.5" font-family="FreeSans" font-size="10.00"> myArray</text>
</g>
</g>
</svg>
