<?xml version="1.0" encoding="UTF-8" standalone="no"?>
<!DOCTYPE svg PUBLIC "-//W3C//DTD SVG 1.1//EN"
 "http://www.w3.org/Graphics/SVG/1.1/DTD/svg11.dtd">
<!-- Generated by graphviz version 2.26.3 (20100126.1600)
 -->
<!-- Title: DGtal::concepts::CSurfelLocalEstimator&lt; T &gt; Pages: 1 -->
<svg width="380pt" height="150pt"
 viewBox="0.00 0.00 380.00 150.00" xmlns="http://www.w3.org/2000/svg" xmlns:xlink="http://www.w3.org/1999/xlink">
<g id="graph1" class="graph" transform="scale(1 1) rotate(0) translate(4 146)">
<title>DGtal::concepts::CSurfelLocalEstimator&lt; T &gt;</title>
<polygon fill="white" stroke="white" points="-4,5 -4,-146 377,-146 377,5 -4,5"/>
<!-- Node1 -->
<g id="node1" class="node"><title>Node1</title>
<polygon fill="#bfbfbf" stroke="black" points="238,-54 238,-88 372,-88 372,-54 238,-54"/>
<text text-anchor="start" x="246" y="-75" font-family="FreeSans" font-size="10.00">DGtal::concepts::CSurfel</text>
<text text-anchor="middle" x="305" y="-62" font-family="FreeSans" font-size="10.00">LocalEstimator&lt; T &gt;</text>
</g>
<!-- Node2 -->
<g id="node2" class="node"><title>Node2</title>
<a xlink:href="structboost_1_1DefaultConstructible.html" target="_top" xlink:title="Go to http://www.sgi.com/tech/stl/DefaultConstructible.html. ">
<polygon fill="white" stroke="black" points="0.5,-120.5 0.5,-141.5 175.5,-141.5 175.5,-120.5 0.5,-120.5"/>
<text text-anchor="middle" x="88" y="-128.5" font-family="FreeSans" font-size="10.00">boost::DefaultConstructible&lt; T &gt;</text>
</a>
</g>
<!-- Node2&#45;&gt;Node1 -->
<g id="edge2" class="edge"><title>Node2&#45;&gt;Node1</title>
<path fill="none" stroke="midnightblue" d="M147.391,-118.16C156.986,-115.897 166.791,-113.47 176,-111 201.591,-104.135 229.725,-95.5372 253.17,-88.0736"/>
<polygon fill="midnightblue" stroke="midnightblue" points="146.451,-114.785 137.5,-120.455 148.033,-121.604 146.451,-114.785"/>
</g>
<!-- Node3 -->
<g id="node4" class="node"><title>Node3</title>
<a xlink:href="structboost_1_1CopyConstructible.html" target="_top" xlink:title="Go to http://www.sgi.com/tech/stl/CopyConstructible.html. ">
<polygon fill="white" stroke="black" points="6,-80.5 6,-101.5 170,-101.5 170,-80.5 6,-80.5"/>
<text text-anchor="middle" x="88" y="-88.5" font-family="FreeSans" font-size="10.00">boost::CopyConstructible&lt; T &gt;</text>
</a>
</g>
<!-- Node3&#45;&gt;Node1 -->
<g id="edge4" class="edge"><title>Node3&#45;&gt;Node1</title>
<path fill="none" stroke="midnightblue" d="M180.071,-82.5142C199.407,-80.7321 219.455,-78.8843 237.682,-77.2044"/>
<polygon fill="midnightblue" stroke="midnightblue" points="179.675,-79.0358 170.038,-83.4389 180.317,-86.0062 179.675,-79.0358"/>
</g>
<!-- Node4 -->
<g id="node6" class="node"><title>Node4</title>
<a xlink:href="structboost_1_1Assignable.html" target="_top" xlink:title="Go to http://www.sgi.com/tech/stl/Assignable.html. ">
<polygon fill="white" stroke="black" points="23.5,-40.5 23.5,-61.5 152.5,-61.5 152.5,-40.5 23.5,-40.5"/>
<text text-anchor="middle" x="88" y="-48.5" font-family="FreeSans" font-size="10.00">boost::Assignable&lt; T &gt;</text>
</a>
</g>
<!-- Node4&#45;&gt;Node1 -->
<g id="edge6" class="edge"><title>Node4&#45;&gt;Node1</title>
<path fill="none" stroke="midnightblue" d="M162.779,-57.8921C187.114,-60.135 213.963,-62.6095 237.716,-64.7987"/>
<polygon fill="midnightblue" stroke="midnightblue" points="162.799,-54.3791 152.52,-56.9465 162.156,-61.3496 162.799,-54.3791"/>
</g>
<!-- Node5 -->
<g id="node8" class="node"><title>Node5</title>
<polygon fill="white" stroke="#bfbfbf" points="73.5,-0.5 73.5,-21.5 102.5,-21.5 102.5,-0.5 73.5,-0.5"/>
<text text-anchor="middle" x="88" y="-8.5" font-family="FreeSans" font-size="10.00">T</text>
</g>
<!-- Node5&#45;&gt;Node1 -->
<g id="edge8" class="edge"><title>Node5&#45;&gt;Node1</title>
<path fill="none" stroke="#9a32cd" stroke-dasharray="5,2" d="M112.776,-16.1887C130.465,-20.0008 154.784,-25.461 176,-31 195.73,-36.1511 200.504,-38.0242 220,-44 230.363,-47.1763 241.413,-50.6343 252.001,-53.9825"/>
<polygon fill="#9a32cd" stroke="#9a32cd" points="113.216,-12.7039 102.706,-14.0421 111.756,-19.5501 113.216,-12.7039"/>
<text text-anchor="middle" x="207" y="-48" font-family="FreeSans" font-size="10.00"> myX</text>
</g>
</g>
</svg>
