<?xml version="1.0" encoding="UTF-8" standalone="no"?>
<!DOCTYPE svg PUBLIC "-//W3C//DTD SVG 1.1//EN"
 "http://www.w3.org/Graphics/SVG/1.1/DTD/svg11.dtd">
<!-- Generated by graphviz version 2.26.3 (20100126.1600)
 -->
<!-- Title: DGtal::concepts::CUnaryFunctor&lt; X, A, R &gt; Pages: 1 -->
<svg width="278pt" height="188pt"
 viewBox="0.00 0.00 278.00 188.00" xmlns="http://www.w3.org/2000/svg" xmlns:xlink="http://www.w3.org/1999/xlink">
<g id="graph1" class="graph" transform="scale(1 1) rotate(0) translate(4 184)">
<title>DGtal::concepts::CUnaryFunctor&lt; X, A, R &gt;</title>
<polygon fill="white" stroke="white" points="-4,5 -4,-184 275,-184 275,5 -4,5"/>
<!-- Node1 -->
<g id="node1" class="node"><title>Node1</title>
<polygon fill="#bfbfbf" stroke="black" points="100,-1 100,-35 270,-35 270,-1 100,-1"/>
<text text-anchor="start" x="108" y="-22" font-family="FreeSans" font-size="10.00">DGtal::concepts::CUnaryFunctor</text>
<text text-anchor="middle" x="185" y="-9" font-family="FreeSans" font-size="10.00">&lt; X, A, R &gt;</text>
</g>
<!-- Node2 -->
<g id="node2" class="node"><title>Node2</title>
<a xlink:href="structboost_1_1Assignable.html" target="_top" xlink:title="boost::Assignable\&lt; X \&gt;">
<polygon fill="white" stroke="black" points="0,-86.5 0,-107.5 130,-107.5 130,-86.5 0,-86.5"/>
<text text-anchor="middle" x="65" y="-94.5" font-family="FreeSans" font-size="10.00">boost::Assignable&lt; X &gt;</text>
</a>
</g>
<!-- Node2&#45;&gt;Node1 -->
<g id="edge2" class="edge"><title>Node2&#45;&gt;Node1</title>
<path fill="none" stroke="midnightblue" d="M89.5587,-80.8322C109.782,-67.5185 138.378,-48.6925 158.99,-35.1236"/>
<polygon fill="midnightblue" stroke="midnightblue" points="87.6117,-77.9236 81.1837,-86.3457 91.4608,-83.7703 87.6117,-77.9236"/>
</g>
<!-- Node3 -->
<g id="node4" class="node"><title>Node3</title>
<a xlink:href="structboost_1_1Assignable.html" target="_top" xlink:title="Go to http://www.sgi.com/tech/stl/Assignable.html. ">
<polygon fill="white" stroke="black" points="0.5,-158.5 0.5,-179.5 129.5,-179.5 129.5,-158.5 0.5,-158.5"/>
<text text-anchor="middle" x="65" y="-166.5" font-family="FreeSans" font-size="10.00">boost::Assignable&lt; T &gt;</text>
</a>
</g>
<!-- Node3&#45;&gt;Node2 -->
<g id="edge4" class="edge"><title>Node3&#45;&gt;Node2</title>
<path fill="none" stroke="orange" stroke-dasharray="5,2" d="M65,-148.235C65,-134.969 65,-118.319 65,-107.667"/>
<polygon fill="orange" stroke="orange" points="61.5001,-148.376 65,-158.376 68.5001,-148.376 61.5001,-148.376"/>
<text text-anchor="middle" x="81" y="-130.5" font-family="FreeSans" font-size="10.00"> &lt; X &gt;</text>
</g>
<!-- Node4 -->
<g id="node6" class="node"><title>Node4</title>
<polygon fill="white" stroke="#bfbfbf" points="147.5,-86.5 147.5,-107.5 176.5,-107.5 176.5,-86.5 147.5,-86.5"/>
<text text-anchor="middle" x="162" y="-94.5" font-family="FreeSans" font-size="10.00">X</text>
</g>
<!-- Node4&#45;&gt;Node1 -->
<g id="edge6" class="edge"><title>Node4&#45;&gt;Node1</title>
<path fill="none" stroke="#9a32cd" stroke-dasharray="5,2" d="M167.954,-76.5486C171.698,-63.691 176.472,-47.293 180.015,-35.1236"/>
<polygon fill="#9a32cd" stroke="#9a32cd" points="164.537,-75.766 165.102,-86.3457 171.258,-77.7227 164.537,-75.766"/>
<text text-anchor="middle" x="178.5" y="-58.5" font-family="FreeSans" font-size="10.00"> x</text>
</g>
<!-- Node5 -->
<g id="node8" class="node"><title>Node5</title>
<polygon fill="white" stroke="#bfbfbf" points="193.5,-86.5 193.5,-107.5 222.5,-107.5 222.5,-86.5 193.5,-86.5"/>
<text text-anchor="middle" x="208" y="-94.5" font-family="FreeSans" font-size="10.00">R</text>
</g>
<!-- Node5&#45;&gt;Node1 -->
<g id="edge8" class="edge"><title>Node5&#45;&gt;Node1</title>
<path fill="none" stroke="#9a32cd" stroke-dasharray="5,2" d="M202.046,-76.5486C198.302,-63.691 193.528,-47.293 189.985,-35.1236"/>
<polygon fill="#9a32cd" stroke="#9a32cd" points="198.742,-77.7227 204.898,-86.3457 205.463,-75.766 198.742,-77.7227"/>
<text text-anchor="middle" x="202.5" y="-58.5" font-family="FreeSans" font-size="10.00"> r</text>
</g>
<!-- Node6 -->
<g id="node10" class="node"><title>Node6</title>
<polygon fill="white" stroke="#bfbfbf" points="239.5,-86.5 239.5,-107.5 268.5,-107.5 268.5,-86.5 239.5,-86.5"/>
<text text-anchor="middle" x="254" y="-94.5" font-family="FreeSans" font-size="10.00">A</text>
</g>
<!-- Node6&#45;&gt;Node1 -->
<g id="edge10" class="edge"><title>Node6&#45;&gt;Node1</title>
<path fill="none" stroke="#9a32cd" stroke-dasharray="5,2" d="M237.798,-78.4497C226.349,-65.3414 211.116,-47.9015 199.956,-35.1236"/>
<polygon fill="#9a32cd" stroke="#9a32cd" points="235.48,-81.1164 244.694,-86.3457 240.752,-76.5116 235.48,-81.1164"/>
<text text-anchor="middle" x="232" y="-58.5" font-family="FreeSans" font-size="10.00"> a</text>
</g>
</g>
</svg>
