<?xml version="1.0" encoding="UTF-8" standalone="no"?>
<!DOCTYPE svg PUBLIC "-//W3C//DTD SVG 1.1//EN"
 "http://www.w3.org/Graphics/SVG/1.1/DTD/svg11.dtd">
<!-- Generated by graphviz version 2.26.3 (20100126.1600)
 -->
<!-- Title: LibBoard::Arrow Pages: 1 -->
<svg width="283pt" height="440pt"
 viewBox="0.00 0.00 283.00 440.00" xmlns="http://www.w3.org/2000/svg" xmlns:xlink="http://www.w3.org/1999/xlink">
<g id="graph1" class="graph" transform="scale(1 1) rotate(0) translate(4 436)">
<title>LibBoard::Arrow</title>
<polygon fill="white" stroke="white" points="-4,5 -4,-436 280,-436 280,5 -4,5"/>
<!-- Node1 -->
<g id="node1" class="node"><title>Node1</title>
<polygon fill="#bfbfbf" stroke="black" points="0,-0.5 0,-21.5 92,-21.5 92,-0.5 0,-0.5"/>
<text text-anchor="middle" x="46" y="-8.5" font-family="FreeSans" font-size="10.00">LibBoard::Arrow</text>
</g>
<!-- Node2 -->
<g id="node2" class="node"><title>Node2</title>
<a xlink:href="structLibBoard_1_1Line.html" target="_top" xlink:title="A line between two points. ">
<polygon fill="white" stroke="black" points="51,-60.5 51,-81.5 135,-81.5 135,-60.5 51,-60.5"/>
<text text-anchor="middle" x="93" y="-68.5" font-family="FreeSans" font-size="10.00">LibBoard::Line</text>
</a>
</g>
<!-- Node2&#45;&gt;Node1 -->
<g id="edge2" class="edge"><title>Node2&#45;&gt;Node1</title>
<path fill="none" stroke="midnightblue" d="M78.4158,-52.3819C70.4972,-42.273 60.9928,-30.1398 54.3299,-21.6339"/>
<polygon fill="midnightblue" stroke="midnightblue" points="75.6754,-54.5592 84.5973,-60.2732 81.186,-50.2426 75.6754,-54.5592"/>
</g>
<!-- Node3 -->
<g id="node4" class="node"><title>Node3</title>
<a xlink:href="structLibBoard_1_1Shape.html" target="_top" xlink:title="Abstract structure for a 2D shape. ">
<polygon fill="white" stroke="black" points="129.5,-132.5 129.5,-153.5 224.5,-153.5 224.5,-132.5 129.5,-132.5"/>
<text text-anchor="middle" x="177" y="-140.5" font-family="FreeSans" font-size="10.00">LibBoard::Shape</text>
</a>
</g>
<!-- Node3&#45;&gt;Node2 -->
<g id="edge4" class="edge"><title>Node3&#45;&gt;Node2</title>
<path fill="none" stroke="midnightblue" d="M156.849,-125.728C140.85,-112.015 118.99,-93.2774 105.445,-81.6674"/>
<polygon fill="midnightblue" stroke="midnightblue" points="154.735,-128.526 164.606,-132.376 159.291,-123.211 154.735,-128.526"/>
</g>
<!-- Node4 -->
<g id="node6" class="node"><title>Node4</title>
<a xlink:title="STL class. ">
<polygon fill="white" stroke="#bfbfbf" points="42.5,-276.5 42.5,-297.5 107.5,-297.5 107.5,-276.5 42.5,-276.5"/>
<text text-anchor="middle" x="75" y="-284.5" font-family="FreeSans" font-size="10.00">std::string</text>
</a>
</g>
<!-- Node4&#45;&gt;Node1 -->
<g id="edge16" class="edge"><title>Node4&#45;&gt;Node1</title>
<path fill="none" stroke="#9a32cd" stroke-dasharray="5,2" d="M70.3239,-266.435C62.2716,-229.672 46.2426,-150.146 42,-82 40.6652,-60.5596 42.9928,-35.4645 44.6208,-21.5878"/>
<polygon fill="#9a32cd" stroke="#9a32cd" points="66.9554,-267.411 72.5449,-276.411 73.7881,-265.89 66.9554,-267.411"/>
<text text-anchor="middle" x="63.5" y="-104.5" font-family="FreeSans" font-size="10.00"> _name</text>
</g>
<!-- Node4&#45;&gt;Node2 -->
<g id="edge14" class="edge"><title>Node4&#45;&gt;Node2</title>
<path fill="none" stroke="#9a32cd" stroke-dasharray="5,2" d="M75.6143,-266.453C76.6342,-236.728 79.0722,-180.029 84,-132 85.8137,-114.323 89.0595,-93.9219 91.1175,-81.7624"/>
<polygon fill="#9a32cd" stroke="#9a32cd" points="72.1162,-266.342 75.2906,-276.45 79.1125,-266.568 72.1162,-266.342"/>
<text text-anchor="middle" x="102.5" y="-140.5" font-family="FreeSans" font-size="10.00"> _name</text>
</g>
<!-- Node4&#45;&gt;Node3 -->
<g id="edge6" class="edge"><title>Node4&#45;&gt;Node3</title>
<path fill="none" stroke="#9a32cd" stroke-dasharray="5,2" d="M82.3118,-266.868C91.891,-242.452 110.515,-200.973 136,-172 142.334,-164.799 150.795,-158.432 158.385,-153.512"/>
<polygon fill="#9a32cd" stroke="#9a32cd" points="78.9359,-265.9 78.6605,-276.491 85.4806,-268.383 78.9359,-265.9"/>
<text text-anchor="middle" x="154.5" y="-182.5" font-family="FreeSans" font-size="10.00"> _name</text>
</g>
<!-- Node5 -->
<g id="node8" class="node"><title>Node5</title>
<a xlink:title="STL class. ">
<polygon fill="white" stroke="#bfbfbf" points="23.5,-397 23.5,-431 126.5,-431 126.5,-397 23.5,-397"/>
<text text-anchor="start" x="31.5" y="-418" font-family="FreeSans" font-size="10.00">std::basic_string&lt;</text>
<text text-anchor="middle" x="75" y="-405" font-family="FreeSans" font-size="10.00"> char &gt;</text>
</a>
</g>
<!-- Node5&#45;&gt;Node4 -->
<g id="edge8" class="edge"><title>Node5&#45;&gt;Node4</title>
<path fill="none" stroke="midnightblue" d="M75,-386.59C75,-358.712 75,-316.94 75,-297.567"/>
<polygon fill="midnightblue" stroke="midnightblue" points="71.5001,-386.872 75,-396.872 78.5001,-386.872 71.5001,-386.872"/>
</g>
<!-- Node6 -->
<g id="node10" class="node"><title>Node6</title>
<a xlink:href="classDGtal_1_1Color.html" target="_top" xlink:title="Structure representing an RGB triple with alpha component. ">
<polygon fill="white" stroke="black" points="140,-276.5 140,-297.5 214,-297.5 214,-276.5 140,-276.5"/>
<text text-anchor="middle" x="177" y="-284.5" font-family="FreeSans" font-size="10.00">DGtal::Color</text>
</a>
</g>
<!-- Node6&#45;&gt;Node3 -->
<g id="edge10" class="edge"><title>Node6&#45;&gt;Node3</title>
<path fill="none" stroke="#9a32cd" stroke-dasharray="5,2" d="M177,-265.965C177,-234.718 177,-177.19 177,-153.558"/>
<polygon fill="#9a32cd" stroke="#9a32cd" points="173.5,-266.177 177,-276.177 180.5,-266.177 173.5,-266.177"/>
<text text-anchor="middle" x="203" y="-189" font-family="FreeSans" font-size="10.00"> _penColor</text>
<text text-anchor="middle" x="203" y="-176" font-family="FreeSans" font-size="10.00">_fillColor</text>
</g>
<!-- Node6&#45;&gt;Node6 -->
<g id="edge12" class="edge"><title>Node6&#45;&gt;Node6</title>
<path fill="none" stroke="#9a32cd" stroke-dasharray="5,2" d="M198.967,-301.863C215.409,-307.089 232,-302.135 232,-287 232,-268.895 208.258,-265.358 189.43,-276.391"/>
<polygon fill="#9a32cd" stroke="#9a32cd" points="199.989,-298.486 189.43,-297.609 197.137,-304.879 199.989,-298.486"/>
<text text-anchor="middle" x="253.5" y="-349.5" font-family="FreeSans" font-size="10.00"> Yellow</text>
<text text-anchor="middle" x="253.5" y="-336.5" font-family="FreeSans" font-size="10.00">Lime</text>
<text text-anchor="middle" x="253.5" y="-323.5" font-family="FreeSans" font-size="10.00">Navy</text>
<text text-anchor="middle" x="253.5" y="-310.5" font-family="FreeSans" font-size="10.00">Magenta</text>
<text text-anchor="middle" x="253.5" y="-297.5" font-family="FreeSans" font-size="10.00">White</text>
<text text-anchor="middle" x="253.5" y="-284.5" font-family="FreeSans" font-size="10.00">None</text>
<text text-anchor="middle" x="253.5" y="-271.5" font-family="FreeSans" font-size="10.00">Blue</text>
<text text-anchor="middle" x="253.5" y="-258.5" font-family="FreeSans" font-size="10.00">Aqua</text>
<text text-anchor="middle" x="253.5" y="-245.5" font-family="FreeSans" font-size="10.00">Purple</text>
<text text-anchor="middle" x="253.5" y="-232.5" font-family="FreeSans" font-size="10.00">Silver</text>
<text text-anchor="middle" x="253.5" y="-219.5" font-family="FreeSans" font-size="10.00">...</text>
</g>
</g>
</svg>
