<?xml version="1.0" encoding="UTF-8" standalone="no"?>
<!DOCTYPE svg PUBLIC "-//W3C//DTD SVG 1.1//EN"
 "http://www.w3.org/Graphics/SVG/1.1/DTD/svg11.dtd">
<!-- Generated by graphviz version 2.26.3 (20100126.1600)
 -->
<!-- Title: DGtal::functors::IIPrincipalCurvatures3DFunctor&lt; TSpace, TMatrix &gt; Pages: 1 -->
<svg width="197pt" height="226pt"
 viewBox="0.00 0.00 197.00 226.00" xmlns="http://www.w3.org/2000/svg" xmlns:xlink="http://www.w3.org/1999/xlink">
<g id="graph1" class="graph" transform="scale(1 1) rotate(0) translate(4 222)">
<title>DGtal::functors::IIPrincipalCurvatures3DFunctor&lt; TSpace, TMatrix &gt;</title>
<polygon fill="white" stroke="white" points="-4,5 -4,-222 194,-222 194,5 -4,5"/>
<!-- Node1 -->
<g id="node1" class="node"><title>Node1</title>
<polygon fill="#bfbfbf" stroke="black" points="-0.5,-0.5 -0.5,-47.5 166.5,-47.5 166.5,-0.5 -0.5,-0.5"/>
<text text-anchor="start" x="7.5" y="-34.5" font-family="FreeSans" font-size="10.00">DGtal::functors::IIPrincipal</text>
<text text-anchor="start" x="7.5" y="-21.5" font-family="FreeSans" font-size="10.00">Curvatures3DFunctor&lt; TSpace,</text>
<text text-anchor="middle" x="83" y="-8.5" font-family="FreeSans" font-size="10.00"> TMatrix &gt;</text>
</g>
<!-- Node2 -->
<g id="node2" class="node"><title>Node2</title>
<a xlink:href="classDGtal_1_1PointVector.html" target="_top" xlink:title="Aim: Implements basic operations that will be used in Point and Vector classes. ">
<polygon fill="white" stroke="black" points="20,-98.5 20,-145.5 146,-145.5 146,-98.5 20,-98.5"/>
<text text-anchor="start" x="28" y="-132.5" font-family="FreeSans" font-size="10.00">DGtal::PointVector</text>
<text text-anchor="start" x="28" y="-119.5" font-family="FreeSans" font-size="10.00">&lt; dim, TEuclideanRing,</text>
<text text-anchor="middle" x="83" y="-106.5" font-family="FreeSans" font-size="10.00"> TContainer &gt;</text>
</a>
</g>
<!-- Node2&#45;&gt;Node1 -->
<g id="edge2" class="edge"><title>Node2&#45;&gt;Node1</title>
<path fill="none" stroke="#9a32cd" stroke-dasharray="5,2" d="M83,-88.0002C83,-74.6377 83,-59.628 83,-47.5046"/>
<polygon fill="#9a32cd" stroke="#9a32cd" points="79.5001,-88.2769 83,-98.2769 86.5001,-88.277 79.5001,-88.2769"/>
<text text-anchor="middle" x="113.5" y="-70.5" font-family="FreeSans" font-size="10.00"> eigenValues</text>
</g>
<!-- Node2&#45;&gt;Node2 -->
<g id="edge6" class="edge"><title>Node2&#45;&gt;Node2</title>
<path fill="none" stroke="#9a32cd" stroke-dasharray="5,2" d="M156.09,-128.476C161.012,-126.982 164,-124.823 164,-122 164,-117.594 156.719,-114.805 146.168,-113.635"/>
<polygon fill="#9a32cd" stroke="#9a32cd" points="155.337,-125.057 146.168,-130.365 156.646,-131.933 155.337,-125.057"/>
<text text-anchor="middle" x="176.5" y="-119.5" font-family="FreeSans" font-size="10.00"> zero</text>
</g>
<!-- Node3 -->
<g id="node4" class="node"><title>Node3</title>
<polygon fill="white" stroke="#bfbfbf" points="49,-196.5 49,-217.5 117,-217.5 117,-196.5 49,-196.5"/>
<text text-anchor="middle" x="83" y="-204.5" font-family="FreeSans" font-size="10.00">TContainer</text>
</g>
<!-- Node3&#45;&gt;Node2 -->
<g id="edge4" class="edge"><title>Node3&#45;&gt;Node2</title>
<path fill="none" stroke="#9a32cd" stroke-dasharray="5,2" d="M83,-186.045C83,-173.759 83,-158.207 83,-145.504"/>
<polygon fill="#9a32cd" stroke="#9a32cd" points="79.5001,-186.235 83,-196.235 86.5001,-186.235 79.5001,-186.235"/>
<text text-anchor="middle" x="105" y="-168.5" font-family="FreeSans" font-size="10.00"> myArray</text>
</g>
</g>
</svg>
