<?xml version="1.0" encoding="UTF-8" standalone="no"?>
<!DOCTYPE svg PUBLIC "-//W3C//DTD SVG 1.1//EN"
 "http://www.w3.org/Graphics/SVG/1.1/DTD/svg11.dtd">
<!-- Generated by graphviz version 2.26.3 (20100126.1600)
 -->
<!-- Title: DGtal::concepts::CSinglePassRangeWithWritableIteratorFromPoint&lt; T, Value &gt; Pages: 1 -->
<svg width="946pt" height="220pt"
 viewBox="0.00 0.00 946.00 220.00" xmlns="http://www.w3.org/2000/svg" xmlns:xlink="http://www.w3.org/1999/xlink">
<g id="graph1" class="graph" transform="scale(1 1) rotate(0) translate(4 216)">
<title>DGtal::concepts::CSinglePassRangeWithWritableIteratorFromPoint&lt; T, Value &gt;</title>
<polygon fill="white" stroke="white" points="-4,5 -4,-216 943,-216 943,5 -4,5"/>
<!-- Node1 -->
<g id="node1" class="node"><title>Node1</title>
<polygon fill="#bfbfbf" stroke="black" points="776.5,-64.5 776.5,-111.5 937.5,-111.5 937.5,-64.5 776.5,-64.5"/>
<text text-anchor="start" x="784.5" y="-98.5" font-family="FreeSans" font-size="10.00">DGtal::concepts::CSingle</text>
<text text-anchor="start" x="784.5" y="-85.5" font-family="FreeSans" font-size="10.00">PassRangeWithWritableIterator</text>
<text text-anchor="middle" x="857" y="-72.5" font-family="FreeSans" font-size="10.00">FromPoint&lt; T, Value &gt;</text>
</g>
<!-- Node2 -->
<g id="node2" class="node"><title>Node2</title>
<a xlink:href="structDGtal_1_1concepts_1_1CConstSinglePassRangeFromPoint.html" target="_top" xlink:title="DGtal::concepts::CConstSingle\lPassRangeFromPoint\&lt; T, Value \&gt;">
<polygon fill="white" stroke="black" points="562,-71 562,-105 738,-105 738,-71 562,-71"/>
<text text-anchor="start" x="570" y="-92" font-family="FreeSans" font-size="10.00">DGtal::concepts::CConstSingle</text>
<text text-anchor="middle" x="650" y="-79" font-family="FreeSans" font-size="10.00">PassRangeFromPoint&lt; T, Value &gt;</text>
</a>
</g>
<!-- Node2&#45;&gt;Node1 -->
<g id="edge2" class="edge"><title>Node2&#45;&gt;Node1</title>
<path fill="none" stroke="midnightblue" d="M748.223,-88C757.598,-88 767.032,-88 776.214,-88"/>
<polygon fill="midnightblue" stroke="midnightblue" points="748.087,-84.5001 738.087,-88 748.087,-91.5001 748.087,-84.5001"/>
</g>
<!-- Node3 -->
<g id="node4" class="node"><title>Node3</title>
<a xlink:href="structDGtal_1_1concepts_1_1CConstSinglePassRange.html" target="_top" xlink:title="Aim: Defines the concept describing a const single pass range. ">
<polygon fill="white" stroke="black" points="72.5,-118 72.5,-152 235.5,-152 235.5,-118 72.5,-118"/>
<text text-anchor="start" x="80.5" y="-139" font-family="FreeSans" font-size="10.00">DGtal::concepts::CConstSingle</text>
<text text-anchor="middle" x="154" y="-126" font-family="FreeSans" font-size="10.00">PassRange&lt; T &gt;</text>
</a>
</g>
<!-- Node3&#45;&gt;Node2 -->
<g id="edge4" class="edge"><title>Node3&#45;&gt;Node2</title>
<path fill="none" stroke="midnightblue" d="M246.143,-130.9C325.369,-126.661 442.56,-118.693 544,-105 549.818,-104.215 555.809,-103.365 561.843,-102.479"/>
<polygon fill="midnightblue" stroke="midnightblue" points="245.508,-127.428 235.706,-131.448 245.876,-134.418 245.508,-127.428"/>
</g>
<!-- Node5 -->
<g id="node9" class="node"><title>Node5</title>
<a xlink:href="structDGtal_1_1concepts_1_1CConstSinglePassRangeFromPoint.html" target="_top" xlink:title="Aim: refined concept of const single pass range with a begin() method from a point. ">
<polygon fill="white" stroke="black" points="298.5,-71 298.5,-105 461.5,-105 461.5,-71 298.5,-71"/>
<text text-anchor="start" x="306.5" y="-92" font-family="FreeSans" font-size="10.00">DGtal::concepts::CConstSingle</text>
<text text-anchor="middle" x="380" y="-79" font-family="FreeSans" font-size="10.00">PassRangeFromPoint&lt; T &gt;</text>
</a>
</g>
<!-- Node3&#45;&gt;Node5 -->
<g id="edge12" class="edge"><title>Node3&#45;&gt;Node5</title>
<path fill="none" stroke="midnightblue" d="M245.717,-115.926C263.072,-112.317 281.122,-108.563 298.149,-105.022"/>
<polygon fill="midnightblue" stroke="midnightblue" points="244.669,-112.569 235.591,-118.032 246.094,-119.422 244.669,-112.569"/>
</g>
<!-- Node6 -->
<g id="node13" class="node"><title>Node6</title>
<a xlink:href="structDGtal_1_1concepts_1_1CSinglePassRangeWithWritableIterator.html" target="_top" xlink:title="Aim: refined concept of const single pass range which require that an output iterator exists...">
<polygon fill="white" stroke="black" points="299.5,-164.5 299.5,-211.5 460.5,-211.5 460.5,-164.5 299.5,-164.5"/>
<text text-anchor="start" x="307.5" y="-198.5" font-family="FreeSans" font-size="10.00">DGtal::concepts::CSingle</text>
<text text-anchor="start" x="307.5" y="-185.5" font-family="FreeSans" font-size="10.00">PassRangeWithWritableIterator</text>
<text text-anchor="middle" x="380" y="-172.5" font-family="FreeSans" font-size="10.00">&lt; T, Value &gt;</text>
</a>
</g>
<!-- Node3&#45;&gt;Node6 -->
<g id="edge18" class="edge"><title>Node3&#45;&gt;Node6</title>
<path fill="none" stroke="midnightblue" d="M236.636,-154.379C257.031,-159.162 278.851,-164.279 299.159,-169.042"/>
<polygon fill="midnightblue" stroke="midnightblue" points="237.287,-150.937 226.752,-152.061 235.689,-157.752 237.287,-150.937"/>
</g>
<!-- Node4 -->
<g id="node6" class="node"><title>Node4</title>
<polygon fill="white" stroke="#bfbfbf" points="0.5,-76.5 0.5,-97.5 29.5,-97.5 29.5,-76.5 0.5,-76.5"/>
<text text-anchor="middle" x="15" y="-84.5" font-family="FreeSans" font-size="10.00">T</text>
</g>
<!-- Node4&#45;&gt;Node1 -->
<g id="edge22" class="edge"><title>Node4&#45;&gt;Node1</title>
<path fill="none" stroke="#9a32cd" stroke-dasharray="5,2" d="M30.7427,-68.7487C54.6048,-43.2358 102.622,-0 154,-0 154,-0 154,-0 650,-0 715.995,-0 785.068,-38.351 824.394,-64.4176"/>
<polygon fill="#9a32cd" stroke="#9a32cd" points="27.992,-66.5718 23.8704,-76.3321 33.179,-71.2724 27.992,-66.5718"/>
<text text-anchor="middle" x="380" y="-4" font-family="FreeSans" font-size="10.00"> myX</text>
</g>
<!-- Node4&#45;&gt;Node2 -->
<g id="edge8" class="edge"><title>Node4&#45;&gt;Node2</title>
<path fill="none" stroke="#9a32cd" stroke-dasharray="5,2" d="M39.7752,-83.4492C107.452,-74.2179 301.138,-50.9293 462,-62 494.707,-64.251 530.39,-68.6799 561.795,-73.2537"/>
<polygon fill="#9a32cd" stroke="#9a32cd" points="39.095,-80.01 29.6713,-84.8519 40.0576,-86.9435 39.095,-80.01"/>
<text text-anchor="middle" x="267" y="-66" font-family="FreeSans" font-size="10.00"> myX</text>
</g>
<!-- Node4&#45;&gt;Node3 -->
<g id="edge6" class="edge"><title>Node4&#45;&gt;Node3</title>
<path fill="none" stroke="#9a32cd" stroke-dasharray="5,2" d="M38.9817,-97.4733C42.0014,-98.7035 45.0613,-99.9079 48,-101 63.9419,-106.924 81.4491,-112.793 97.5618,-117.945"/>
<polygon fill="#9a32cd" stroke="#9a32cd" points="40.2448,-94.2077 29.6697,-93.5611 37.5335,-100.661 40.2448,-94.2077"/>
<text text-anchor="middle" x="51" y="-107" font-family="FreeSans" font-size="10.00"> i</text>
</g>
<!-- Node4&#45;&gt;Node5 -->
<g id="edge14" class="edge"><title>Node4&#45;&gt;Node5</title>
<path fill="none" stroke="#9a32cd" stroke-dasharray="5,2" d="M39.7808,-87.0679C91.9828,-87.2109 215.272,-87.5487 298.192,-87.7759"/>
<polygon fill="#9a32cd" stroke="#9a32cd" points="39.7701,-83.5679 29.7605,-87.0404 39.7508,-90.5679 39.7701,-83.5679"/>
<text text-anchor="middle" x="154" y="-91" font-family="FreeSans" font-size="10.00"> myX</text>
</g>
<!-- Node4&#45;&gt;Node6 -->
<g id="edge20" class="edge"><title>Node4&#45;&gt;Node6</title>
<path fill="none" stroke="#9a32cd" stroke-dasharray="5,2" d="M24.3848,-106.949C33.7812,-124.458 50.0027,-148.956 72,-161 141.799,-199.217 234.047,-202.226 299.336,-197.988"/>
<polygon fill="#9a32cd" stroke="#9a32cd" points="27.2883,-104.935 19.649,-97.5941 21.043,-108.097 27.2883,-104.935"/>
<text text-anchor="middle" x="154" y="-203" font-family="FreeSans" font-size="10.00"> myX</text>
</g>
<!-- Node5&#45;&gt;Node2 -->
<g id="edge10" class="edge"><title>Node5&#45;&gt;Node2</title>
<path fill="none" stroke="orange" stroke-dasharray="5,2" d="M471.905,-88C501.02,-88 533.123,-88 561.96,-88"/>
<polygon fill="orange" stroke="orange" points="471.742,-84.5001 461.742,-88 471.742,-91.5001 471.742,-84.5001"/>
<text text-anchor="middle" x="512" y="-92" font-family="FreeSans" font-size="10.00"> &lt; T, Value &gt;</text>
</g>
<!-- Node6&#45;&gt;Node1 -->
<g id="edge16" class="edge"><title>Node6&#45;&gt;Node1</title>
<path fill="none" stroke="midnightblue" d="M470.745,-169.537C543.148,-154.735 647.137,-133.316 738,-114 750.411,-111.362 763.541,-108.532 776.372,-105.745"/>
<polygon fill="midnightblue" stroke="midnightblue" points="469.84,-166.149 460.743,-171.581 471.241,-173.008 469.84,-166.149"/>
</g>
</g>
</svg>
