<?xml version="1.0" encoding="UTF-8" standalone="no"?>
<!DOCTYPE svg PUBLIC "-//W3C//DTD SVG 1.1//EN"
 "http://www.w3.org/Graphics/SVG/1.1/DTD/svg11.dtd">
<!-- Generated by graphviz version 2.26.3 (20100126.1600)
 -->
<!-- Title: DGtal::concepts::CPrimitiveComputer&lt; T &gt; Pages: 1 -->
<svg width="394pt" height="150pt"
 viewBox="0.00 0.00 394.00 150.00" xmlns="http://www.w3.org/2000/svg" xmlns:xlink="http://www.w3.org/1999/xlink">
<g id="graph1" class="graph" transform="scale(1 1) rotate(0) translate(4 146)">
<title>DGtal::concepts::CPrimitiveComputer&lt; T &gt;</title>
<polygon fill="white" stroke="white" points="-4,5 -4,-146 391,-146 391,5 -4,5"/>
<!-- Node1 -->
<g id="node1" class="node"><title>Node1</title>
<polygon fill="#bfbfbf" stroke="black" points="238.5,-54 238.5,-88 385.5,-88 385.5,-54 238.5,-54"/>
<text text-anchor="start" x="246.5" y="-75" font-family="FreeSans" font-size="10.00">DGtal::concepts::CPrimitive</text>
<text text-anchor="middle" x="312" y="-62" font-family="FreeSans" font-size="10.00">Computer&lt; T &gt;</text>
</g>
<!-- Node2 -->
<g id="node2" class="node"><title>Node2</title>
<a xlink:href="structboost_1_1DefaultConstructible.html" target="_top" xlink:title="Go to http://www.sgi.com/tech/stl/DefaultConstructible.html. ">
<polygon fill="white" stroke="black" points="0.5,-120.5 0.5,-141.5 175.5,-141.5 175.5,-120.5 0.5,-120.5"/>
<text text-anchor="middle" x="88" y="-128.5" font-family="FreeSans" font-size="10.00">boost::DefaultConstructible&lt; T &gt;</text>
</a>
</g>
<!-- Node2&#45;&gt;Node1 -->
<g id="edge2" class="edge"><title>Node2&#45;&gt;Node1</title>
<path fill="none" stroke="midnightblue" d="M147.009,-118.125C156.72,-115.852 166.66,-113.432 176,-111 202.794,-104.022 232.303,-95.4525 256.966,-88.0376"/>
<polygon fill="midnightblue" stroke="midnightblue" points="145.963,-114.774 137.006,-120.434 147.537,-121.594 145.963,-114.774"/>
</g>
<!-- Node3 -->
<g id="node4" class="node"><title>Node3</title>
<a xlink:href="structboost_1_1CopyConstructible.html" target="_top" xlink:title="Go to http://www.sgi.com/tech/stl/CopyConstructible.html. ">
<polygon fill="white" stroke="black" points="6,-80.5 6,-101.5 170,-101.5 170,-80.5 6,-80.5"/>
<text text-anchor="middle" x="88" y="-88.5" font-family="FreeSans" font-size="10.00">boost::CopyConstructible&lt; T &gt;</text>
</a>
</g>
<!-- Node3&#45;&gt;Node1 -->
<g id="edge4" class="edge"><title>Node3&#45;&gt;Node1</title>
<path fill="none" stroke="midnightblue" d="M180.191,-82.7687C199.582,-81.0373 219.792,-79.2328 238.395,-77.5719"/>
<polygon fill="midnightblue" stroke="midnightblue" points="179.786,-79.2908 170.137,-83.6663 180.409,-86.263 179.786,-79.2908"/>
</g>
<!-- Node4 -->
<g id="node6" class="node"><title>Node4</title>
<a xlink:href="structboost_1_1Assignable.html" target="_top" xlink:title="Go to http://www.sgi.com/tech/stl/Assignable.html. ">
<polygon fill="white" stroke="black" points="23.5,-40.5 23.5,-61.5 152.5,-61.5 152.5,-40.5 23.5,-40.5"/>
<text text-anchor="middle" x="88" y="-48.5" font-family="FreeSans" font-size="10.00">boost::Assignable&lt; T &gt;</text>
</a>
</g>
<!-- Node4&#45;&gt;Node1 -->
<g id="edge6" class="edge"><title>Node4&#45;&gt;Node1</title>
<path fill="none" stroke="midnightblue" d="M163.011,-57.6974C187.267,-59.8632 214.132,-62.2617 238.293,-64.419"/>
<polygon fill="midnightblue" stroke="midnightblue" points="163.062,-54.1881 152.79,-56.7848 162.439,-61.1604 163.062,-54.1881"/>
</g>
<!-- Node5 -->
<g id="node8" class="node"><title>Node5</title>
<polygon fill="white" stroke="#bfbfbf" points="73.5,-0.5 73.5,-21.5 102.5,-21.5 102.5,-0.5 73.5,-0.5"/>
<text text-anchor="middle" x="88" y="-8.5" font-family="FreeSans" font-size="10.00">T</text>
</g>
<!-- Node5&#45;&gt;Node1 -->
<g id="edge8" class="edge"><title>Node5&#45;&gt;Node1</title>
<path fill="none" stroke="#9a32cd" stroke-dasharray="5,2" d="M112.774,-16.1967C130.462,-20.0126 154.781,-25.474 176,-31 202.794,-37.9777 232.303,-46.5475 256.966,-53.9624"/>
<polygon fill="#9a32cd" stroke="#9a32cd" points="113.215,-12.7121 102.704,-14.0476 111.754,-19.5579 113.215,-12.7121"/>
<text text-anchor="middle" x="207" y="-46" font-family="FreeSans" font-size="10.00"> myX</text>
</g>
</g>
</svg>
