<?xml version="1.0" encoding="UTF-8" standalone="no"?>
<!DOCTYPE svg PUBLIC "-//W3C//DTD SVG 1.1//EN"
 "http://www.w3.org/Graphics/SVG/1.1/DTD/svg11.dtd">
<!-- Generated by graphviz version 2.26.3 (20100126.1600)
 -->
<!-- Title: LibBoard::Arc Pages: 1 -->
<svg width="367pt" height="500pt"
 viewBox="0.00 0.00 367.00 500.00" xmlns="http://www.w3.org/2000/svg" xmlns:xlink="http://www.w3.org/1999/xlink">
<g id="graph1" class="graph" transform="scale(1 1) rotate(0) translate(4 496)">
<title>LibBoard::Arc</title>
<polygon fill="white" stroke="white" points="-4,5 -4,-496 364,-496 364,5 -4,5"/>
<!-- Node1 -->
<g id="node1" class="node"><title>Node1</title>
<polygon fill="#bfbfbf" stroke="black" points="0,-0.5 0,-21.5 80,-21.5 80,-0.5 0,-0.5"/>
<text text-anchor="middle" x="40" y="-8.5" font-family="FreeSans" font-size="10.00">LibBoard::Arc</text>
</g>
<!-- Node2 -->
<g id="node2" class="node"><title>Node2</title>
<a xlink:href="structLibBoard_1_1Circle.html" target="_top" xlink:title="A circle. ">
<polygon fill="white" stroke="black" points="43.5,-60.5 43.5,-81.5 134.5,-81.5 134.5,-60.5 43.5,-60.5"/>
<text text-anchor="middle" x="89" y="-68.5" font-family="FreeSans" font-size="10.00">LibBoard::Circle</text>
</a>
</g>
<!-- Node2&#45;&gt;Node1 -->
<g id="edge2" class="edge"><title>Node2&#45;&gt;Node1</title>
<path fill="none" stroke="midnightblue" d="M73.7952,-52.3819C65.5397,-42.273 55.6308,-30.1398 48.6844,-21.6339"/>
<polygon fill="midnightblue" stroke="midnightblue" points="71.2035,-54.7417 80.2398,-60.2732 76.6253,-50.314 71.2035,-54.7417"/>
</g>
<!-- Node3 -->
<g id="node4" class="node"><title>Node3</title>
<a xlink:href="structLibBoard_1_1Ellipse.html" target="_top" xlink:title="An ellipse. ">
<polygon fill="white" stroke="black" points="127.5,-120.5 127.5,-141.5 222.5,-141.5 222.5,-120.5 127.5,-120.5"/>
<text text-anchor="middle" x="175" y="-128.5" font-family="FreeSans" font-size="10.00">LibBoard::Ellipse</text>
</a>
</g>
<!-- Node3&#45;&gt;Node2 -->
<g id="edge4" class="edge"><title>Node3&#45;&gt;Node2</title>
<path fill="none" stroke="midnightblue" d="M151.311,-114.473C136.285,-103.989 117.287,-90.7352 104.242,-81.6339"/>
<polygon fill="midnightblue" stroke="midnightblue" points="149.421,-117.422 159.625,-120.273 153.426,-111.681 149.421,-117.422"/>
</g>
<!-- Node4 -->
<g id="node6" class="node"><title>Node4</title>
<a xlink:href="structLibBoard_1_1Shape.html" target="_top" xlink:title="Abstract structure for a 2D shape. ">
<polygon fill="white" stroke="black" points="184.5,-192.5 184.5,-213.5 279.5,-213.5 279.5,-192.5 184.5,-192.5"/>
<text text-anchor="middle" x="232" y="-200.5" font-family="FreeSans" font-size="10.00">LibBoard::Shape</text>
</a>
</g>
<!-- Node4&#45;&gt;Node3 -->
<g id="edge6" class="edge"><title>Node4&#45;&gt;Node3</title>
<path fill="none" stroke="midnightblue" d="M217.115,-184.198C206.389,-170.649 192.299,-152.851 183.445,-141.667"/>
<polygon fill="midnightblue" stroke="midnightblue" points="214.638,-186.708 223.589,-192.376 220.127,-182.363 214.638,-186.708"/>
</g>
<!-- Node5 -->
<g id="node8" class="node"><title>Node5</title>
<a xlink:title="STL class. ">
<polygon fill="white" stroke="#bfbfbf" points="72.5,-336.5 72.5,-357.5 137.5,-357.5 137.5,-336.5 72.5,-336.5"/>
<text text-anchor="middle" x="105" y="-344.5" font-family="FreeSans" font-size="10.00">std::string</text>
</a>
</g>
<!-- Node5&#45;&gt;Node1 -->
<g id="edge22" class="edge"><title>Node5&#45;&gt;Node1</title>
<path fill="none" stroke="#9a32cd" stroke-dasharray="5,2" d="M85.0821,-329.452C58.8468,-304.289 16,-255.203 16,-203 16,-203 16,-203 16,-71 16,-52.6007 25.8496,-33.1515 32.929,-21.5486"/>
<polygon fill="#9a32cd" stroke="#9a32cd" points="82.9196,-332.221 92.6249,-336.47 87.6879,-327.096 82.9196,-332.221"/>
<text text-anchor="middle" x="34.5" y="-128.5" font-family="FreeSans" font-size="10.00"> _name</text>
</g>
<!-- Node5&#45;&gt;Node2 -->
<g id="edge20" class="edge"><title>Node5&#45;&gt;Node2</title>
<path fill="none" stroke="#9a32cd" stroke-dasharray="5,2" d="M103.793,-326.187C100.6,-271.103 92.0099,-122.921 89.6229,-81.7447"/>
<polygon fill="#9a32cd" stroke="#9a32cd" points="100.3,-326.4 104.373,-336.18 107.288,-325.995 100.3,-326.4"/>
<text text-anchor="middle" x="113.5" y="-164.5" font-family="FreeSans" font-size="10.00"> _name</text>
</g>
<!-- Node5&#45;&gt;Node3 -->
<g id="edge18" class="edge"><title>Node5&#45;&gt;Node3</title>
<path fill="none" stroke="#9a32cd" stroke-dasharray="5,2" d="M107.473,-325.883C111.512,-295.465 120.947,-237.925 139,-192 146.378,-173.231 159.077,-153.475 167.252,-141.7"/>
<polygon fill="#9a32cd" stroke="#9a32cd" points="103.959,-325.774 106.183,-336.133 110.904,-326.648 103.959,-325.774"/>
<text text-anchor="middle" x="157.5" y="-200.5" font-family="FreeSans" font-size="10.00"> _name</text>
</g>
<!-- Node5&#45;&gt;Node4 -->
<g id="edge8" class="edge"><title>Node5&#45;&gt;Node4</title>
<path fill="none" stroke="#9a32cd" stroke-dasharray="5,2" d="M116.739,-327.706C131.969,-303.618 160.253,-261.943 191,-232 197.996,-225.187 206.718,-218.785 214.317,-213.738"/>
<polygon fill="#9a32cd" stroke="#9a32cd" points="113.703,-325.961 111.389,-336.301 119.645,-329.661 113.703,-325.961"/>
<text text-anchor="middle" x="209.5" y="-242.5" font-family="FreeSans" font-size="10.00"> _name</text>
</g>
<!-- Node6 -->
<g id="node10" class="node"><title>Node6</title>
<a xlink:title="STL class. ">
<polygon fill="white" stroke="#bfbfbf" points="53.5,-457 53.5,-491 156.5,-491 156.5,-457 53.5,-457"/>
<text text-anchor="start" x="61.5" y="-478" font-family="FreeSans" font-size="10.00">std::basic_string&lt;</text>
<text text-anchor="middle" x="105" y="-465" font-family="FreeSans" font-size="10.00"> char &gt;</text>
</a>
</g>
<!-- Node6&#45;&gt;Node5 -->
<g id="edge10" class="edge"><title>Node6&#45;&gt;Node5</title>
<path fill="none" stroke="midnightblue" d="M105,-446.59C105,-418.712 105,-376.94 105,-357.567"/>
<polygon fill="midnightblue" stroke="midnightblue" points="101.5,-446.872 105,-456.872 108.5,-446.872 101.5,-446.872"/>
</g>
<!-- Node7 -->
<g id="node12" class="node"><title>Node7</title>
<a xlink:href="classDGtal_1_1Color.html" target="_top" xlink:title="Structure representing an RGB triple with alpha component. ">
<polygon fill="white" stroke="black" points="195,-336.5 195,-357.5 269,-357.5 269,-336.5 195,-336.5"/>
<text text-anchor="middle" x="232" y="-344.5" font-family="FreeSans" font-size="10.00">DGtal::Color</text>
</a>
</g>
<!-- Node7&#45;&gt;Node4 -->
<g id="edge12" class="edge"><title>Node7&#45;&gt;Node4</title>
<path fill="none" stroke="#9a32cd" stroke-dasharray="5,2" d="M232,-325.965C232,-294.718 232,-237.19 232,-213.558"/>
<polygon fill="#9a32cd" stroke="#9a32cd" points="228.5,-326.177 232,-336.177 235.5,-326.177 228.5,-326.177"/>
<text text-anchor="middle" x="258" y="-249" font-family="FreeSans" font-size="10.00"> _penColor</text>
<text text-anchor="middle" x="258" y="-236" font-family="FreeSans" font-size="10.00">_fillColor</text>
</g>
<!-- Node7&#45;&gt;Node7 -->
<g id="edge14" class="edge"><title>Node7&#45;&gt;Node7</title>
<path fill="none" stroke="#9a32cd" stroke-dasharray="5,2" d="M253.967,-361.863C270.409,-367.089 287,-362.135 287,-347 287,-328.895 263.258,-325.358 244.43,-336.391"/>
<polygon fill="#9a32cd" stroke="#9a32cd" points="254.989,-358.486 244.43,-357.609 252.137,-364.879 254.989,-358.486"/>
<text text-anchor="middle" x="308.5" y="-409.5" font-family="FreeSans" font-size="10.00"> Yellow</text>
<text text-anchor="middle" x="308.5" y="-396.5" font-family="FreeSans" font-size="10.00">Lime</text>
<text text-anchor="middle" x="308.5" y="-383.5" font-family="FreeSans" font-size="10.00">Navy</text>
<text text-anchor="middle" x="308.5" y="-370.5" font-family="FreeSans" font-size="10.00">Magenta</text>
<text text-anchor="middle" x="308.5" y="-357.5" font-family="FreeSans" font-size="10.00">White</text>
<text text-anchor="middle" x="308.5" y="-344.5" font-family="FreeSans" font-size="10.00">None</text>
<text text-anchor="middle" x="308.5" y="-331.5" font-family="FreeSans" font-size="10.00">Blue</text>
<text text-anchor="middle" x="308.5" y="-318.5" font-family="FreeSans" font-size="10.00">Aqua</text>
<text text-anchor="middle" x="308.5" y="-305.5" font-family="FreeSans" font-size="10.00">Purple</text>
<text text-anchor="middle" x="308.5" y="-292.5" font-family="FreeSans" font-size="10.00">Silver</text>
<text text-anchor="middle" x="308.5" y="-279.5" font-family="FreeSans" font-size="10.00">...</text>
</g>
<!-- Node8 -->
<g id="node15" class="node"><title>Node8</title>
<polygon fill="white" stroke="#bfbfbf" points="297,-192.5 297,-213.5 359,-213.5 359,-192.5 297,-192.5"/>
<text text-anchor="middle" x="328" y="-200.5" font-family="FreeSans" font-size="10.00">MyPointD</text>
</g>
<!-- Node8&#45;&gt;Node3 -->
<g id="edge16" class="edge"><title>Node8&#45;&gt;Node3</title>
<path fill="none" stroke="#9a32cd" stroke-dasharray="5,2" d="M296.007,-187.944C266.585,-174.099 223.698,-153.917 197.668,-141.667"/>
<polygon fill="#9a32cd" stroke="#9a32cd" points="294.886,-191.285 305.424,-192.376 297.866,-184.951 294.886,-191.285"/>
<text text-anchor="middle" x="285" y="-164.5" font-family="FreeSans" font-size="10.00"> _center</text>
</g>
</g>
</svg>
