<?xml version="1.0" encoding="UTF-8" standalone="no"?>
<!DOCTYPE svg PUBLIC "-//W3C//DTD SVG 1.1//EN"
 "http://www.w3.org/Graphics/SVG/1.1/DTD/svg11.dtd">
<!-- Generated by graphviz version 2.26.3 (20100126.1600)
 -->
<!-- Title: DGtal::concepts::CCommutativeRing&lt; T &gt; Pages: 1 -->
<svg width="1388pt" height="110pt"
 viewBox="0.00 0.00 1388.00 110.00" xmlns="http://www.w3.org/2000/svg" xmlns:xlink="http://www.w3.org/1999/xlink">
<g id="graph1" class="graph" transform="scale(1 1) rotate(0) translate(4 106)">
<title>DGtal::concepts::CCommutativeRing&lt; T &gt;</title>
<polygon fill="white" stroke="white" points="-4,5 -4,-106 1385,-106 1385,5 -4,5"/>
<!-- Node1 -->
<g id="node1" class="node"><title>Node1</title>
<polygon fill="#bfbfbf" stroke="black" points="816.5,-14 816.5,-48 987.5,-48 987.5,-14 816.5,-14"/>
<text text-anchor="start" x="824.5" y="-35" font-family="FreeSans" font-size="10.00">DGtal::concepts::CCommutative</text>
<text text-anchor="middle" x="902" y="-22" font-family="FreeSans" font-size="10.00">Ring&lt; T &gt;</text>
</g>
<!-- Node9 -->
<g id="node17" class="node"><title>Node9</title>
<a xlink:href="structDGtal_1_1concepts_1_1CEuclideanRing.html" target="_top" xlink:title="Aim: Defines the mathematical concept equivalent to a unitary commutative ring with a division operat...">
<polygon fill="white" stroke="black" points="1024,-14 1024,-48 1176,-48 1176,-14 1024,-14"/>
<text text-anchor="start" x="1032" y="-35" font-family="FreeSans" font-size="10.00">DGtal::concepts::CEuclidean</text>
<text text-anchor="middle" x="1100" y="-22" font-family="FreeSans" font-size="10.00">Ring&lt; T &gt;</text>
</a>
</g>
<!-- Node1&#45;&gt;Node9 -->
<g id="edge16" class="edge"><title>Node1&#45;&gt;Node9</title>
<path fill="none" stroke="midnightblue" d="M997.882,-31C1006.59,-31 1015.33,-31 1023.83,-31"/>
<polygon fill="midnightblue" stroke="midnightblue" points="997.694,-27.5001 987.694,-31 997.694,-34.5001 997.694,-27.5001"/>
</g>
<!-- Node2 -->
<g id="node2" class="node"><title>Node2</title>
<a xlink:href="structDGtal_1_1concepts_1_1CSignedNumber.html" target="_top" xlink:title="Aim: Concept checking for Signed Numbers. Models of this concept should be listed in NumberTraits cla...">
<polygon fill="white" stroke="black" points="640.5,-14 640.5,-48 779.5,-48 779.5,-14 640.5,-14"/>
<text text-anchor="start" x="648.5" y="-35" font-family="FreeSans" font-size="10.00">DGtal::concepts::CSigned</text>
<text text-anchor="middle" x="710" y="-22" font-family="FreeSans" font-size="10.00">Number&lt; T &gt;</text>
</a>
</g>
<!-- Node2&#45;&gt;Node1 -->
<g id="edge2" class="edge"><title>Node2&#45;&gt;Node1</title>
<path fill="none" stroke="midnightblue" d="M789.76,-31C798.514,-31 807.453,-31 816.275,-31"/>
<polygon fill="midnightblue" stroke="midnightblue" points="789.588,-27.5001 779.588,-31 789.588,-34.5001 789.588,-27.5001"/>
</g>
<!-- Node3 -->
<g id="node4" class="node"><title>Node3</title>
<a xlink:href="structDGtal_1_1concepts_1_1CQuantity.html" target="_top" xlink:title="Aim: defines the concept of quantity in DGtal. ">
<polygon fill="white" stroke="black" points="430,-20.5 430,-41.5 604,-41.5 604,-20.5 430,-20.5"/>
<text text-anchor="middle" x="517" y="-28.5" font-family="FreeSans" font-size="10.00">DGtal::concepts::CQuantity&lt; T &gt;</text>
</a>
</g>
<!-- Node3&#45;&gt;Node2 -->
<g id="edge4" class="edge"><title>Node3&#45;&gt;Node2</title>
<path fill="none" stroke="midnightblue" d="M614.412,-31C623.135,-31 631.849,-31 640.268,-31"/>
<polygon fill="midnightblue" stroke="midnightblue" points="614.183,-27.5001 604.183,-31 614.183,-34.5001 614.183,-27.5001"/>
</g>
<!-- Node4 -->
<g id="node6" class="node"><title>Node4</title>
<a xlink:href="structDGtal_1_1concepts_1_1CLabel.html" target="_top" xlink:title="Aim: Define the concept of DGtal labels. Models of CLabel can be default&#45;constructible, assignable and equality comparable. ">
<polygon fill="white" stroke="black" points="223.5,-40.5 223.5,-61.5 382.5,-61.5 382.5,-40.5 223.5,-40.5"/>
<text text-anchor="middle" x="303" y="-48.5" font-family="FreeSans" font-size="10.00">DGtal::concepts::CLabel&lt; T &gt;</text>
</a>
</g>
<!-- Node4&#45;&gt;Node3 -->
<g id="edge6" class="edge"><title>Node4&#45;&gt;Node3</title>
<path fill="none" stroke="midnightblue" d="M392.846,-42.6031C405.045,-41.4631 417.549,-40.2944 429.702,-39.1587"/>
<polygon fill="midnightblue" stroke="midnightblue" points="392.317,-39.1373 382.686,-43.5527 392.968,-46.1069 392.317,-39.1373"/>
</g>
<!-- Node5 -->
<g id="node8" class="node"><title>Node5</title>
<a xlink:href="structboost_1_1DefaultConstructible.html" target="_top" xlink:title="Go to http://www.sgi.com/tech/stl/DefaultConstructible.html. ">
<polygon fill="white" stroke="black" points="0.5,-80.5 0.5,-101.5 175.5,-101.5 175.5,-80.5 0.5,-80.5"/>
<text text-anchor="middle" x="88" y="-88.5" font-family="FreeSans" font-size="10.00">boost::DefaultConstructible&lt; T &gt;</text>
</a>
</g>
<!-- Node5&#45;&gt;Node4 -->
<g id="edge8" class="edge"><title>Node5&#45;&gt;Node4</title>
<path fill="none" stroke="midnightblue" d="M154.684,-78.5937C184.123,-73.1166 218.359,-66.7472 246.516,-61.5087"/>
<polygon fill="midnightblue" stroke="midnightblue" points="153.68,-75.2204 144.489,-80.4905 154.96,-82.1023 153.68,-75.2204"/>
</g>
<!-- Node6 -->
<g id="node10" class="node"><title>Node6</title>
<a xlink:href="structboost_1_1Assignable.html" target="_top" xlink:title="Go to http://www.sgi.com/tech/stl/Assignable.html. ">
<polygon fill="white" stroke="black" points="23.5,-40.5 23.5,-61.5 152.5,-61.5 152.5,-40.5 23.5,-40.5"/>
<text text-anchor="middle" x="88" y="-48.5" font-family="FreeSans" font-size="10.00">boost::Assignable&lt; T &gt;</text>
</a>
</g>
<!-- Node6&#45;&gt;Node4 -->
<g id="edge10" class="edge"><title>Node6&#45;&gt;Node4</title>
<path fill="none" stroke="midnightblue" d="M162.601,-51C182.214,-51 203.445,-51 223.314,-51"/>
<polygon fill="midnightblue" stroke="midnightblue" points="162.507,-47.5001 152.507,-51 162.507,-54.5001 162.507,-47.5001"/>
</g>
<!-- Node7 -->
<g id="node12" class="node"><title>Node7</title>
<a xlink:href="structboost_1_1EqualityComparable.html" target="_top" xlink:title="Go to http://www.sgi.com/tech/stl/EqualityComparable.html. ">
<polygon fill="white" stroke="black" points="1.5,-0.5 1.5,-21.5 174.5,-21.5 174.5,-0.5 1.5,-0.5"/>
<text text-anchor="middle" x="88" y="-8.5" font-family="FreeSans" font-size="10.00">boost::EqualityComparable&lt; T &gt;</text>
</a>
</g>
<!-- Node7&#45;&gt;Node4 -->
<g id="edge12" class="edge"><title>Node7&#45;&gt;Node4</title>
<path fill="none" stroke="midnightblue" d="M154.684,-23.4063C184.123,-28.8834 218.359,-35.2528 246.516,-40.4913"/>
<polygon fill="midnightblue" stroke="midnightblue" points="154.96,-19.8977 144.489,-21.5095 153.68,-26.7796 154.96,-19.8977"/>
</g>
<!-- Node8 -->
<g id="node14" class="node"><title>Node8</title>
<a xlink:href="structboost_1_1LessThanComparable.html" target="_top" xlink:title="Go to http://www.sgi.com/tech/stl/LessThanComparable.html. ">
<polygon fill="white" stroke="black" points="212.5,-0.5 212.5,-21.5 393.5,-21.5 393.5,-0.5 212.5,-0.5"/>
<text text-anchor="middle" x="303" y="-8.5" font-family="FreeSans" font-size="10.00">boost::LessThanComparable&lt; T &gt;</text>
</a>
</g>
<!-- Node8&#45;&gt;Node3 -->
<g id="edge14" class="edge"><title>Node8&#45;&gt;Node3</title>
<path fill="none" stroke="midnightblue" d="M403.9,-20.4299C412.574,-21.2406 421.302,-22.0562 429.854,-22.8555"/>
<polygon fill="midnightblue" stroke="midnightblue" points="404.038,-16.9276 393.755,-19.4818 403.386,-23.8972 404.038,-16.9276"/>
</g>
<!-- Node10 -->
<g id="node19" class="node"><title>Node10</title>
<a xlink:href="structDGtal_1_1concepts_1_1CInteger.html" target="_top" xlink:title="Aim: Concept checking for Integer Numbers. More precisely, this concept is a refinement of both CEucl...">
<polygon fill="white" stroke="black" points="1212.5,-20.5 1212.5,-41.5 1379.5,-41.5 1379.5,-20.5 1212.5,-20.5"/>
<text text-anchor="middle" x="1296" y="-28.5" font-family="FreeSans" font-size="10.00">DGtal::concepts::CInteger&lt; T &gt;</text>
</a>
</g>
<!-- Node9&#45;&gt;Node10 -->
<g id="edge18" class="edge"><title>Node9&#45;&gt;Node10</title>
<path fill="none" stroke="midnightblue" d="M1186.14,-31C1194.78,-31 1203.56,-31 1212.18,-31"/>
<polygon fill="midnightblue" stroke="midnightblue" points="1186.06,-27.5001 1176.06,-31 1186.06,-34.5001 1186.06,-27.5001"/>
</g>
</g>
</svg>
