<?xml version="1.0" encoding="UTF-8" standalone="no"?>
<!DOCTYPE svg PUBLIC "-//W3C//DTD SVG 1.1//EN"
 "http://www.w3.org/Graphics/SVG/1.1/DTD/svg11.dtd">
<!-- Generated by graphviz version 2.36.0 (20140111.2315)
 -->
<!-- Title: DGtal::functors::Thresholder&lt; T, isLower, isEqual &gt; Pages: 1 -->
<svg width="195pt" height="130pt"
 viewBox="0.00 0.00 195.00 130.00" xmlns="http://www.w3.org/2000/svg" xmlns:xlink="http://www.w3.org/1999/xlink">
<g id="graph0" class="graph" transform="scale(1 1) rotate(0) translate(4 126)">
<title>DGtal::functors::Thresholder&lt; T, isLower, isEqual &gt;</title>
<polygon fill="white" stroke="none" points="-4,4 -4,-126 191,-126 191,4 -4,4"/>
<!-- Node1 -->
<g id="node1" class="node"><title>Node1</title>
<polygon fill="#bfbfbf" stroke="black" points="2.5,-91 2.5,-121 153.5,-121 153.5,-91 2.5,-91"/>
<text text-anchor="start" x="10.5" y="-109" font-family="FreeSans" font-size="10.00">DGtal::functors::Thresholder</text>
<text text-anchor="middle" x="78" y="-98" font-family="FreeSans" font-size="10.00">&lt; T, isLower, isEqual &gt;</text>
</g>
<!-- Node2 -->
<g id="node2" class="node"><title>Node2</title>
<g id="a_node2"><a xlink:href="classDGtal_1_1functors_1_1Thresholder.html" target="_top" xlink:title="DGtal::functors::Thresholder\l\&lt; ResultInteger, false, false \&gt;">
<polygon fill="white" stroke="black" points="-1,-1 -1,-31 157,-31 157,-1 -1,-1"/>
<text text-anchor="start" x="7" y="-19" font-family="FreeSans" font-size="10.00">DGtal::functors::Thresholder</text>
<text text-anchor="middle" x="78" y="-8" font-family="FreeSans" font-size="10.00">&lt; ResultInteger, false, false &gt;</text>
</a>
</g>
</g>
<!-- Node1&#45;&gt;Node2 -->
<g id="edge1" class="edge"><title>Node1&#45;&gt;Node2</title>
<path fill="none" stroke="orange" stroke-dasharray="5,2" d="M78,-80.6545C78,-64.711 78,-44.4341 78,-31.1036"/>
<polygon fill="orange" stroke="orange" points="74.5001,-80.8612 78,-90.8613 81.5001,-80.8613 74.5001,-80.8612"/>
<text text-anchor="start" x="78" y="-64" font-family="FreeSans" font-size="10.00"> &lt; ResultInteger, false,</text>
<text text-anchor="middle" x="132.5" y="-53" font-family="FreeSans" font-size="10.00"> false &gt;</text>
</g>
</g>
</svg>
