<?xml version="1.0" encoding="UTF-8" standalone="no"?>
<!DOCTYPE svg PUBLIC "-//W3C//DTD SVG 1.1//EN"
 "http://www.w3.org/Graphics/SVG/1.1/DTD/svg11.dtd">
<!-- Generated by graphviz version 2.36.0 (20140111.2315)
 -->
<!-- Title: DGtal::ChordGenericStandardPlaneComputer&lt; TSpace, TInputPoint, TInternalScalar &gt; Pages: 1 -->
<svg width="2100pt" height="280pt"
 viewBox="0.00 0.00 2100.00 280.00" xmlns="http://www.w3.org/2000/svg" xmlns:xlink="http://www.w3.org/1999/xlink">
<g id="graph0" class="graph" transform="scale(1 1) rotate(0) translate(4 276)">
<title>DGtal::ChordGenericStandardPlaneComputer&lt; TSpace, TInputPoint, TInternalScalar &gt;</title>
<polygon fill="white" stroke="none" points="-4,4 -4,-276 2096,-276 2096,4 -4,4"/>
<!-- Node1 -->
<g id="node1" class="node"><title>Node1</title>
<polygon fill="#bfbfbf" stroke="black" points="1892,-181.5 1892,-222.5 2092,-222.5 2092,-181.5 1892,-181.5"/>
<text text-anchor="start" x="1900" y="-210.5" font-family="FreeSans" font-size="10.00">DGtal::ChordGenericStandard</text>
<text text-anchor="start" x="1900" y="-199.5" font-family="FreeSans" font-size="10.00">PlaneComputer&lt; TSpace, TInputPoint,</text>
<text text-anchor="middle" x="1992" y="-188.5" font-family="FreeSans" font-size="10.00"> TInternalScalar &gt;</text>
</g>
<!-- Node2 -->
<g id="node2" class="node"><title>Node2</title>
<g id="a_node2"><a xlink:href="structDGtal_1_1ChordGenericStandardPlaneComputer_1_1Transform.html" target="_top" xlink:title="DGtal::ChordGenericStandard\lPlaneComputer\&lt; TSpace, TInputPoint,\l TInternalScalar \&gt;::Transform">
<polygon fill="white" stroke="black" points="1584,-230.5 1584,-271.5 1784,-271.5 1784,-230.5 1584,-230.5"/>
<text text-anchor="start" x="1592" y="-259.5" font-family="FreeSans" font-size="10.00">DGtal::ChordGenericStandard</text>
<text text-anchor="start" x="1592" y="-248.5" font-family="FreeSans" font-size="10.00">PlaneComputer&lt; TSpace, TInputPoint,</text>
<text text-anchor="middle" x="1684" y="-237.5" font-family="FreeSans" font-size="10.00"> TInternalScalar &gt;::Transform</text>
</a>
</g>
</g>
<!-- Node2&#45;&gt;Node1 -->
<g id="edge1" class="edge"><title>Node2&#45;&gt;Node1</title>
<path fill="none" stroke="#9a32cd" stroke-dasharray="5,2" d="M1794.56,-233.456C1826.32,-228.37 1860.8,-222.848 1891.89,-217.871"/>
<polygon fill="#9a32cd" stroke="#9a32cd" points="1793.67,-230.054 1784.35,-235.091 1794.78,-236.966 1793.67,-230.054"/>
<text text-anchor="middle" x="1838" y="-233" font-family="FreeSans" font-size="10.00"> myTransforms</text>
</g>
<!-- Node3 -->
<g id="node3" class="node"><title>Node3</title>
<g id="a_node3"><a xlink:href="classDGtal_1_1ChordNaivePlaneComputer.html" target="_top" xlink:title="DGtal::ChordNaivePlaneComputer\l\&lt; Space, InputPoint, InternalScalar \&gt;">
<polygon fill="white" stroke="black" points="1586.5,-112 1586.5,-142 1781.5,-142 1781.5,-112 1586.5,-112"/>
<text text-anchor="start" x="1594.5" y="-130" font-family="FreeSans" font-size="10.00">DGtal::ChordNaivePlaneComputer</text>
<text text-anchor="middle" x="1684" y="-119" font-family="FreeSans" font-size="10.00">&lt; Space, InputPoint, InternalScalar &gt;</text>
</a>
</g>
</g>
<!-- Node3&#45;&gt;Node1 -->
<g id="edge2" class="edge"><title>Node3&#45;&gt;Node1</title>
<path fill="none" stroke="#9a32cd" stroke-dasharray="5,2" d="M1756.54,-144.535C1801.61,-155.581 1859.99,-169.891 1907.22,-181.467"/>
<polygon fill="#9a32cd" stroke="#9a32cd" points="1757.1,-141.068 1746.56,-142.087 1755.43,-147.867 1757.1,-141.068"/>
<text text-anchor="middle" x="1838" y="-175" font-family="FreeSans" font-size="10.00"> myComputers</text>
</g>
<!-- Node4 -->
<g id="node4" class="node"><title>Node4</title>
<polygon fill="white" stroke="#bfbfbf" points="952.5,-140.5 952.5,-159.5 1075.5,-159.5 1075.5,-140.5 952.5,-140.5"/>
<text text-anchor="middle" x="1014" y="-147.5" font-family="FreeSans" font-size="10.00">std::set&lt; InputPoint &gt;</text>
</g>
<!-- Node4&#45;&gt;Node3 -->
<g id="edge3" class="edge"><title>Node4&#45;&gt;Node3</title>
<path fill="none" stroke="#9a32cd" stroke-dasharray="5,2" d="M1086.01,-151.887C1191.07,-154.046 1394.04,-155.801 1566,-143 1572.64,-142.505 1579.49,-141.878 1586.37,-141.161"/>
<polygon fill="#9a32cd" stroke="#9a32cd" points="1085.92,-148.384 1075.85,-151.67 1085.77,-155.382 1085.92,-148.384"/>
<text text-anchor="middle" x="1340" y="-157" font-family="FreeSans" font-size="10.00"> myPointSet</text>
</g>
<!-- Node14 -->
<g id="node14" class="node"><title>Node14</title>
<g id="a_node14"><a xlink:href="classDGtal_1_1ChordNaivePlaneComputer.html" target="_top" xlink:title="Aim: A class that contains the chord&#45;based algorithm for recognizing pieces of digital planes of give...">
<polygon fill="white" stroke="black" points="1234.5,-81 1234.5,-111 1445.5,-111 1445.5,-81 1234.5,-81"/>
<text text-anchor="start" x="1242.5" y="-99" font-family="FreeSans" font-size="10.00">DGtal::ChordNaivePlaneComputer</text>
<text text-anchor="middle" x="1340" y="-88" font-family="FreeSans" font-size="10.00">&lt; TSpace, TInputPoint, TInternalScalar &gt;</text>
</a>
</g>
</g>
<!-- Node4&#45;&gt;Node14 -->
<g id="edge16" class="edge"><title>Node4&#45;&gt;Node14</title>
<path fill="none" stroke="#9a32cd" stroke-dasharray="5,2" d="M1082.2,-138.8C1130.44,-130.761 1195.97,-119.838 1248.77,-111.039"/>
<polygon fill="#9a32cd" stroke="#9a32cd" points="1081.47,-135.374 1072.18,-140.47 1082.62,-142.278 1081.47,-135.374"/>
<text text-anchor="middle" x="1174" y="-133" font-family="FreeSans" font-size="10.00"> myPointSet</text>
</g>
<!-- Node5 -->
<g id="node5" class="node"><title>Node5</title>
<g id="a_node5"><a xlink:title="STL class. ">
<polygon fill="white" stroke="#bfbfbf" points="704.5,-140.5 704.5,-159.5 785.5,-159.5 785.5,-140.5 704.5,-140.5"/>
<text text-anchor="middle" x="745" y="-147.5" font-family="FreeSans" font-size="10.00">std::set&lt; K &gt;</text>
</a>
</g>
</g>
<!-- Node5&#45;&gt;Node4 -->
<g id="edge4" class="edge"><title>Node5&#45;&gt;Node4</title>
<path fill="none" stroke="orange" stroke-dasharray="5,2" d="M795.92,-150C840.206,-150 905.021,-150 952.294,-150"/>
<polygon fill="orange" stroke="orange" points="795.684,-146.5 785.684,-150 795.684,-153.5 795.684,-146.5"/>
<text text-anchor="middle" x="859" y="-153" font-family="FreeSans" font-size="10.00"> &lt; InputPoint &gt;</text>
</g>
<!-- Node6 -->
<g id="node6" class="node"><title>Node6</title>
<polygon fill="white" stroke="#bfbfbf" points="421.5,-140.5 421.5,-159.5 450.5,-159.5 450.5,-140.5 421.5,-140.5"/>
<text text-anchor="middle" x="436" y="-147.5" font-family="FreeSans" font-size="10.00">K</text>
</g>
<!-- Node6&#45;&gt;Node5 -->
<g id="edge5" class="edge"><title>Node6&#45;&gt;Node5</title>
<path fill="none" stroke="#9a32cd" stroke-dasharray="5,2" d="M460.596,-150C513,-150 639.557,-150 704.342,-150"/>
<polygon fill="#9a32cd" stroke="#9a32cd" points="460.588,-146.5 450.588,-150 460.587,-153.5 460.588,-146.5"/>
<text text-anchor="middle" x="597" y="-153" font-family="FreeSans" font-size="10.00"> keys</text>
</g>
<!-- Node7 -->
<g id="node7" class="node"><title>Node7</title>
<g id="a_node7"><a xlink:href="structDGtal_1_1ChordNaivePlaneComputer_1_1State.html" target="_top" xlink:title="DGtal::ChordNaivePlaneComputer\l\&lt; TSpace, TInputPoint, TInternalScalar\l \&gt;::State">
<polygon fill="white" stroke="black" points="914,-11.5 914,-52.5 1114,-52.5 1114,-11.5 914,-11.5"/>
<text text-anchor="start" x="922" y="-40.5" font-family="FreeSans" font-size="10.00">DGtal::ChordNaivePlaneComputer</text>
<text text-anchor="start" x="922" y="-29.5" font-family="FreeSans" font-size="10.00">&lt; TSpace, TInputPoint, TInternalScalar</text>
<text text-anchor="middle" x="1014" y="-18.5" font-family="FreeSans" font-size="10.00"> &gt;::State</text>
</a>
</g>
</g>
<!-- Node7&#45;&gt;Node3 -->
<g id="edge6" class="edge"><title>Node7&#45;&gt;Node3</title>
<path fill="none" stroke="#9a32cd" stroke-dasharray="5,2" d="M1124.18,-34.1746C1153.97,-34.9154 1186.23,-35.8533 1216,-37 1318.29,-40.9398 1345.39,-30.1672 1446,-49 1519.45,-62.7476 1601.52,-93.3836 1647.25,-111.906"/>
<polygon fill="#9a32cd" stroke="#9a32cd" points="1124.27,-30.6757 1114.19,-33.9309 1124.1,-37.6736 1124.27,-30.6757"/>
<text text-anchor="middle" x="1340" y="-63" font-family="FreeSans" font-size="10.00"> _state</text>
<text text-anchor="middle" x="1340" y="-52" font-family="FreeSans" font-size="10.00">myState</text>
</g>
<!-- Node7&#45;&gt;Node14 -->
<g id="edge17" class="edge"><title>Node7&#45;&gt;Node14</title>
<path fill="none" stroke="#9a32cd" stroke-dasharray="5,2" d="M1124.18,-39.5386C1154.16,-42.8022 1186.52,-47.4382 1216,-54 1245.51,-60.5701 1277.83,-71.7695 1301.93,-80.9519"/>
<polygon fill="#9a32cd" stroke="#9a32cd" points="1124.42,-36.0449 1114.11,-38.4837 1123.69,-43.0068 1124.42,-36.0449"/>
<text text-anchor="middle" x="1174" y="-68" font-family="FreeSans" font-size="10.00"> _state</text>
<text text-anchor="middle" x="1174" y="-57" font-family="FreeSans" font-size="10.00">myState</text>
</g>
<!-- Node8 -->
<g id="node8" class="node"><title>Node8</title>
<g id="a_node8"><a xlink:href="classDGtal_1_1PointVector.html" target="_top" xlink:title="DGtal::PointVector\l\&lt; 3, InternalScalar \&gt;">
<polygon fill="white" stroke="black" points="686.5,-17 686.5,-47 803.5,-47 803.5,-17 686.5,-17"/>
<text text-anchor="start" x="694.5" y="-35" font-family="FreeSans" font-size="10.00">DGtal::PointVector</text>
<text text-anchor="middle" x="745" y="-24" font-family="FreeSans" font-size="10.00">&lt; 3, InternalScalar &gt;</text>
</a>
</g>
</g>
<!-- Node8&#45;&gt;Node7 -->
<g id="edge7" class="edge"><title>Node8&#45;&gt;Node7</title>
<path fill="none" stroke="#9a32cd" stroke-dasharray="5,2" d="M813.675,-32C844.091,-32 880.586,-32 913.99,-32"/>
<polygon fill="#9a32cd" stroke="#9a32cd" points="813.606,-28.5001 803.606,-32 813.606,-35.5001 813.606,-28.5001"/>
<text text-anchor="middle" x="859" y="-35" font-family="FreeSans" font-size="10.00"> N</text>
</g>
<!-- Node9 -->
<g id="node9" class="node"><title>Node9</title>
<polygon fill="white" stroke="#bfbfbf" points="364.5,-91 364.5,-121 507.5,-121 507.5,-91 364.5,-91"/>
<text text-anchor="start" x="372.5" y="-109" font-family="FreeSans" font-size="10.00">std::array&lt; InternalScalar,</text>
<text text-anchor="middle" x="436" y="-98" font-family="FreeSans" font-size="10.00"> dim &gt;</text>
</g>
<!-- Node9&#45;&gt;Node8 -->
<g id="edge8" class="edge"><title>Node9&#45;&gt;Node8</title>
<path fill="none" stroke="#9a32cd" stroke-dasharray="5,2" d="M509.35,-88.5607C563.345,-75.5456 636.143,-57.9982 686.261,-45.9175"/>
<polygon fill="#9a32cd" stroke="#9a32cd" points="508.397,-85.1899 499.496,-90.9358 510.038,-91.995 508.397,-85.1899"/>
<text text-anchor="middle" x="597" y="-88" font-family="FreeSans" font-size="10.00"> myArray</text>
</g>
<!-- Node10 -->
<g id="node10" class="node"><title>Node10</title>
<g id="a_node10"><a xlink:title="STL class. ">
<polygon fill="white" stroke="#bfbfbf" points="119,-113.5 119,-132.5 209,-132.5 209,-113.5 119,-113.5"/>
<text text-anchor="middle" x="164" y="-120.5" font-family="FreeSans" font-size="10.00">std::array&lt; T &gt;</text>
</a>
</g>
</g>
<!-- Node10&#45;&gt;Node9 -->
<g id="edge9" class="edge"><title>Node10&#45;&gt;Node9</title>
<path fill="none" stroke="orange" stroke-dasharray="5,2" d="M219.518,-119.567C261.213,-116.942 319.04,-113.301 364.293,-110.452"/>
<polygon fill="orange" stroke="orange" points="219.043,-116.09 209.283,-120.212 219.483,-123.076 219.043,-116.09"/>
<text text-anchor="middle" x="288" y="-122" font-family="FreeSans" font-size="10.00"> &lt; InternalScalar, dim &gt;</text>
</g>
<!-- Node11 -->
<g id="node11" class="node"><title>Node11</title>
<polygon fill="white" stroke="#bfbfbf" points="0.5,-136.5 0.5,-155.5 29.5,-155.5 29.5,-136.5 0.5,-136.5"/>
<text text-anchor="middle" x="15" y="-143.5" font-family="FreeSans" font-size="10.00">T</text>
</g>
<!-- Node11&#45;&gt;Node10 -->
<g id="edge10" class="edge"><title>Node11&#45;&gt;Node10</title>
<path fill="none" stroke="#9a32cd" stroke-dasharray="5,2" d="M39.5039,-138.949C42.3509,-138.226 45.2308,-137.555 48,-137 71.1723,-132.359 97.2998,-129.029 118.788,-126.784"/>
<polygon fill="#9a32cd" stroke="#9a32cd" points="38.3023,-135.65 29.5916,-141.681 40.1622,-142.398 38.3023,-135.65"/>
<text text-anchor="middle" x="73" y="-140" font-family="FreeSans" font-size="10.00"> elements</text>
</g>
<!-- Node17 -->
<g id="node17" class="node"><title>Node17</title>
<g id="a_node17"><a xlink:title="STL class. ">
<polygon fill="white" stroke="#bfbfbf" points="116.5,-157.5 116.5,-176.5 211.5,-176.5 211.5,-157.5 116.5,-157.5"/>
<text text-anchor="middle" x="164" y="-164.5" font-family="FreeSans" font-size="10.00">std::vector&lt; T &gt;</text>
</a>
</g>
</g>
<!-- Node11&#45;&gt;Node17 -->
<g id="edge21" class="edge"><title>Node11&#45;&gt;Node17</title>
<path fill="none" stroke="#9a32cd" stroke-dasharray="5,2" d="M39.6309,-149.376C60.2375,-152.32 90.7416,-156.677 116.261,-160.323"/>
<polygon fill="#9a32cd" stroke="#9a32cd" points="39.9604,-145.887 29.5659,-147.938 38.9704,-152.817 39.9604,-145.887"/>
<text text-anchor="middle" x="73" y="-161" font-family="FreeSans" font-size="10.00"> elements</text>
</g>
<!-- Node12 -->
<g id="node12" class="node"><title>Node12</title>
<g id="a_node12"><a xlink:href="classDGtal_1_1PointVector.html" target="_top" xlink:title="Aim: Implements basic operations that will be used in Point and Vector classes. ">
<polygon fill="white" stroke="black" points="373,-0.5 373,-41.5 499,-41.5 499,-0.5 373,-0.5"/>
<text text-anchor="start" x="381" y="-29.5" font-family="FreeSans" font-size="10.00">DGtal::PointVector</text>
<text text-anchor="start" x="381" y="-18.5" font-family="FreeSans" font-size="10.00">&lt; dim, TEuclideanRing,</text>
<text text-anchor="middle" x="436" y="-7.5" font-family="FreeSans" font-size="10.00"> TContainer &gt;</text>
</a>
</g>
</g>
<!-- Node12&#45;&gt;Node8 -->
<g id="edge11" class="edge"><title>Node12&#45;&gt;Node8</title>
<path fill="none" stroke="#9a32cd" stroke-dasharray="5,2" d="M509.304,-30.6908C514.946,-31.2163 520.561,-31.6652 526,-32 580.208,-35.3372 642.142,-34.9331 686.108,-33.9335"/>
<polygon fill="#9a32cd" stroke="#9a32cd" points="509.453,-27.1882 499.153,-29.6702 508.752,-34.153 509.453,-27.1882"/>
<text text-anchor="middle" x="597" y="-38" font-family="FreeSans" font-size="10.00"> zero</text>
</g>
<!-- Node12&#45;&gt;Node8 -->
<g id="edge14" class="edge"><title>Node12&#45;&gt;Node8</title>
<path fill="none" stroke="orange" stroke-dasharray="5,2" d="M509.463,-16.9129C555.048,-15.1977 615.058,-14.5047 668,-19 674.002,-19.5096 680.242,-20.2418 686.452,-21.1025"/>
<polygon fill="orange" stroke="orange" points="509.228,-13.4194 499.377,-17.3178 509.509,-20.4138 509.228,-13.4194"/>
<text text-anchor="middle" x="597" y="-22" font-family="FreeSans" font-size="10.00"> &lt; 3, InternalScalar &gt;</text>
</g>
<!-- Node12&#45;&gt;Node12 -->
<g id="edge13" class="edge"><title>Node12&#45;&gt;Node12</title>
<path fill="none" stroke="#9a32cd" stroke-dasharray="5,2" d="M410.994,-51.6009C414.982,-56.0235 423.317,-59 436,-59 456.812,-59 465.918,-50.9844 463.316,-41.7163"/>
<polygon fill="#9a32cd" stroke="#9a32cd" points="414.368,-50.6572 408.684,-41.7163 407.552,-52.2505 414.368,-50.6572"/>
<text text-anchor="middle" x="436" y="-62" font-family="FreeSans" font-size="10.00"> zero</text>
</g>
<!-- Node13 -->
<g id="node13" class="node"><title>Node13</title>
<polygon fill="white" stroke="#bfbfbf" points="130,-11.5 130,-30.5 198,-30.5 198,-11.5 130,-11.5"/>
<text text-anchor="middle" x="164" y="-18.5" font-family="FreeSans" font-size="10.00">TContainer</text>
</g>
<!-- Node13&#45;&gt;Node12 -->
<g id="edge12" class="edge"><title>Node13&#45;&gt;Node12</title>
<path fill="none" stroke="#9a32cd" stroke-dasharray="5,2" d="M208.296,-21C252.772,-21 322.433,-21 372.802,-21"/>
<polygon fill="#9a32cd" stroke="#9a32cd" points="208.107,-17.5001 198.107,-21 208.107,-24.5001 208.107,-17.5001"/>
<text text-anchor="middle" x="288" y="-24" font-family="FreeSans" font-size="10.00"> myArray</text>
</g>
<!-- Node14&#45;&gt;Node3 -->
<g id="edge15" class="edge"><title>Node14&#45;&gt;Node3</title>
<path fill="none" stroke="orange" stroke-dasharray="5,2" d="M1456.02,-106.425C1498.36,-110.264 1545.86,-114.569 1586.42,-118.246"/>
<polygon fill="orange" stroke="orange" points="1456.21,-102.929 1445.94,-105.512 1455.58,-109.9 1456.21,-102.929"/>
<text text-anchor="start" x="1464" y="-131" font-family="FreeSans" font-size="10.00"> &lt; Space, InputPoint,</text>
<text text-anchor="middle" x="1515" y="-120" font-family="FreeSans" font-size="10.00"> InternalScalar &gt;</text>
</g>
<!-- Node15 -->
<g id="node15" class="node"><title>Node15</title>
<polygon fill="white" stroke="#bfbfbf" points="970,-71.5 970,-90.5 1058,-90.5 1058,-71.5 970,-71.5"/>
<text text-anchor="middle" x="1014" y="-78.5" font-family="FreeSans" font-size="10.00">TInternalScalar</text>
</g>
<!-- Node15&#45;&gt;Node14 -->
<g id="edge18" class="edge"><title>Node15&#45;&gt;Node14</title>
<path fill="none" stroke="#9a32cd" stroke-dasharray="5,2" d="M1068.37,-79.6945C1108.9,-79.0838 1166.01,-79.0394 1216,-82 1222.01,-82.3558 1228.17,-82.8012 1234.39,-83.3124"/>
<polygon fill="#9a32cd" stroke="#9a32cd" points="1068.11,-76.1982 1058.17,-79.8653 1068.23,-83.1972 1068.11,-76.1982"/>
<text text-anchor="middle" x="1174" y="-107" font-family="FreeSans" font-size="10.00"> myWidth0</text>
<text text-anchor="middle" x="1174" y="-96" font-family="FreeSans" font-size="10.00">myWidth1</text>
<text text-anchor="middle" x="1174" y="-85" font-family="FreeSans" font-size="10.00">_d</text>
</g>
<!-- Node16 -->
<g id="node16" class="node"><title>Node16</title>
<polygon fill="white" stroke="#bfbfbf" points="526.5,-192.5 526.5,-211.5 667.5,-211.5 667.5,-192.5 526.5,-192.5"/>
<text text-anchor="middle" x="597" y="-199.5" font-family="FreeSans" font-size="10.00">std::vector&lt; Dimension &gt;</text>
</g>
<!-- Node16&#45;&gt;Node1 -->
<g id="edge19" class="edge"><title>Node16&#45;&gt;Node1</title>
<path fill="none" stroke="#9a32cd" stroke-dasharray="5,2" d="M677.583,-202C729.049,-202 797.486,-202 858,-202 858,-202 858,-202 1685,-202 1754.06,-202 1831.89,-202 1891.78,-202"/>
<polygon fill="#9a32cd" stroke="#9a32cd" points="677.523,-198.5 667.523,-202 677.523,-205.5 677.523,-198.5"/>
<text text-anchor="middle" x="1174" y="-216" font-family="FreeSans" font-size="10.00"> myOrthants</text>
<text text-anchor="middle" x="1174" y="-205" font-family="FreeSans" font-size="10.00">_orthantsToErase</text>
</g>
<!-- Node17&#45;&gt;Node16 -->
<g id="edge20" class="edge"><title>Node17&#45;&gt;Node16</title>
<path fill="none" stroke="orange" stroke-dasharray="5,2" d="M221.701,-171.605C300.093,-177.97 441.48,-189.452 526.247,-196.336"/>
<polygon fill="orange" stroke="orange" points="221.785,-168.1 211.534,-170.779 221.218,-175.077 221.785,-168.1"/>
<text text-anchor="middle" x="288" y="-185" font-family="FreeSans" font-size="10.00"> &lt; Dimension &gt;</text>
</g>
</g>
</svg>
