<?xml version="1.0" encoding="UTF-8" standalone="no"?>
<!DOCTYPE svg PUBLIC "-//W3C//DTD SVG 1.1//EN"
 "http://www.w3.org/Graphics/SVG/1.1/DTD/svg11.dtd">
<!-- Generated by graphviz version 2.36.0 (20140111.2315)
 -->
<!-- Title: DGtal::VoronoiMap&lt; TSpace, TPointPredicate, TSeparableMetric, TImageContainer &gt; Pages: 1 -->
<svg width="448pt" height="48pt"
 viewBox="0.00 0.00 448.00 48.00" xmlns="http://www.w3.org/2000/svg" xmlns:xlink="http://www.w3.org/1999/xlink">
<g id="graph0" class="graph" transform="scale(1 1) rotate(0) translate(4 44)">
<title>DGtal::VoronoiMap&lt; TSpace, TPointPredicate, TSeparableMetric, TImageContainer &gt;</title>
<polygon fill="white" stroke="none" points="-4,4 -4,-44 444,-44 444,4 -4,4"/>
<!-- Node1 -->
<g id="node1" class="node"><title>Node1</title>
<polygon fill="#bfbfbf" stroke="black" points="0,0.5 0,-40.5 202,-40.5 202,0.5 0,0.5"/>
<text text-anchor="start" x="8" y="-28.5" font-family="FreeSans" font-size="10.00">DGtal::VoronoiMap&lt;</text>
<text text-anchor="start" x="8" y="-17.5" font-family="FreeSans" font-size="10.00"> TSpace, TPointPredicate,</text>
<text text-anchor="middle" x="101" y="-6.5" font-family="FreeSans" font-size="10.00"> TSeparableMetric, TImageContainer &gt;</text>
</g>
<!-- Node2 -->
<g id="node2" class="node"><title>Node2</title>
<g id="a_node2"><a xlink:href="classDGtal_1_1DistanceTransformation.html" target="_top" xlink:title="Aim: Implementation of the linear in time distance transformation for separable metrics. ">
<polygon fill="white" stroke="black" points="238,0.5 238,-40.5 440,-40.5 440,0.5 238,0.5"/>
<text text-anchor="start" x="246" y="-28.5" font-family="FreeSans" font-size="10.00">DGtal::DistanceTransformation</text>
<text text-anchor="start" x="246" y="-17.5" font-family="FreeSans" font-size="10.00">&lt; TSpace, TPointPredicate,</text>
<text text-anchor="middle" x="339" y="-6.5" font-family="FreeSans" font-size="10.00"> TSeparableMetric, TImageContainer &gt;</text>
</a>
</g>
</g>
<!-- Node1&#45;&gt;Node2 -->
<g id="edge1" class="edge"><title>Node1&#45;&gt;Node2</title>
<path fill="none" stroke="midnightblue" d="M212.096,-20C220.656,-20 229.27,-20 237.76,-20"/>
<polygon fill="midnightblue" stroke="midnightblue" points="212.085,-16.5001 202.085,-20 212.085,-23.5001 212.085,-16.5001"/>
</g>
</g>
</svg>
