<?xml version="1.0" encoding="UTF-8" standalone="no"?>
<!DOCTYPE svg PUBLIC "-//W3C//DTD SVG 1.1//EN"
 "http://www.w3.org/Graphics/SVG/1.1/DTD/svg11.dtd">
<!-- Generated by graphviz version 2.36.0 (20140111.2315)
 -->
<!-- Title: DGtal::ArithmeticalDSL&lt; TCoordinate, TInteger, adjacency &gt; Pages: 1 -->
<svg width="342pt" height="218pt"
 viewBox="0.00 0.00 342.00 218.00" xmlns="http://www.w3.org/2000/svg" xmlns:xlink="http://www.w3.org/1999/xlink">
<g id="graph0" class="graph" transform="scale(1 1) rotate(0) translate(4 214)">
<title>DGtal::ArithmeticalDSL&lt; TCoordinate, TInteger, adjacency &gt;</title>
<polygon fill="white" stroke="none" points="-4,4 -4,-214 338,-214 338,4 -4,4"/>
<!-- Node1 -->
<g id="node1" class="node"><title>Node1</title>
<polygon fill="#bfbfbf" stroke="black" points="88.5,-0.5 88.5,-41.5 221.5,-41.5 221.5,-0.5 88.5,-0.5"/>
<text text-anchor="start" x="96.5" y="-29.5" font-family="FreeSans" font-size="10.00">DGtal::ArithmeticalDSL</text>
<text text-anchor="start" x="96.5" y="-18.5" font-family="FreeSans" font-size="10.00">&lt; TCoordinate, TInteger,</text>
<text text-anchor="middle" x="155" y="-7.5" font-family="FreeSans" font-size="10.00"> adjacency &gt;</text>
</g>
<!-- Node2 -->
<g id="node2" class="node"><title>Node2</title>
<polygon fill="white" stroke="#bfbfbf" points="0,-111.5 0,-130.5 74,-130.5 74,-111.5 0,-111.5"/>
<text text-anchor="middle" x="37" y="-118.5" font-family="FreeSans" font-size="10.00">TCoordinate</text>
</g>
<!-- Node2&#45;&gt;Node1 -->
<g id="edge1" class="edge"><title>Node2&#45;&gt;Node1</title>
<path fill="none" stroke="#9a32cd" stroke-dasharray="5,2" d="M55.4066,-104.713C75.8912,-87.7006 109.047,-60.1644 131.418,-41.5852"/>
<polygon fill="#9a32cd" stroke="#9a32cd" points="52.9285,-102.222 47.4717,-111.303 57.4008,-107.607 52.9285,-102.222"/>
<text text-anchor="middle" x="119.5" y="-74" font-family="FreeSans" font-size="10.00"> myA</text>
<text text-anchor="middle" x="119.5" y="-63" font-family="FreeSans" font-size="10.00">myB</text>
</g>
<!-- Node3 -->
<g id="node3" class="node"><title>Node3</title>
<g id="a_node3"><a xlink:href="classDGtal_1_1PointVector.html" target="_top" xlink:title="Aim: Implements basic operations that will be used in Point and Vector classes. ">
<polygon fill="white" stroke="black" points="92,-100.5 92,-141.5 218,-141.5 218,-100.5 92,-100.5"/>
<text text-anchor="start" x="100" y="-129.5" font-family="FreeSans" font-size="10.00">DGtal::PointVector</text>
<text text-anchor="start" x="100" y="-118.5" font-family="FreeSans" font-size="10.00">&lt; dim, TEuclideanRing,</text>
<text text-anchor="middle" x="155" y="-107.5" font-family="FreeSans" font-size="10.00"> TContainer &gt;</text>
</a>
</g>
</g>
<!-- Node3&#45;&gt;Node1 -->
<g id="edge2" class="edge"><title>Node3&#45;&gt;Node1</title>
<path fill="none" stroke="#9a32cd" stroke-dasharray="5,2" d="M155,-89.9245C155,-74.2865 155,-55.6099 155,-41.8023"/>
<polygon fill="#9a32cd" stroke="#9a32cd" points="151.5,-90.1682 155,-100.168 158.5,-90.1683 151.5,-90.1682"/>
<text text-anchor="middle" x="175" y="-68.5" font-family="FreeSans" font-size="10.00"> myShift</text>
</g>
<!-- Node3&#45;&gt;Node3 -->
<g id="edge4" class="edge"><title>Node3&#45;&gt;Node3</title>
<path fill="none" stroke="#9a32cd" stroke-dasharray="5,2" d="M228.09,-126.937C233.012,-125.566 236,-123.588 236,-121 236,-116.961 228.719,-114.405 218.168,-113.332"/>
<polygon fill="#9a32cd" stroke="#9a32cd" points="227.418,-123.501 218.168,-128.668 228.621,-130.397 227.418,-123.501"/>
<text text-anchor="middle" x="248.5" y="-118.5" font-family="FreeSans" font-size="10.00"> zero</text>
</g>
<!-- Node4 -->
<g id="node4" class="node"><title>Node4</title>
<polygon fill="white" stroke="#bfbfbf" points="121,-190.5 121,-209.5 189,-209.5 189,-190.5 121,-190.5"/>
<text text-anchor="middle" x="155" y="-197.5" font-family="FreeSans" font-size="10.00">TContainer</text>
</g>
<!-- Node4&#45;&gt;Node3 -->
<g id="edge3" class="edge"><title>Node4&#45;&gt;Node3</title>
<path fill="none" stroke="#9a32cd" stroke-dasharray="5,2" d="M155,-180.149C155,-168.503 155,-153.581 155,-141.768"/>
<polygon fill="#9a32cd" stroke="#9a32cd" points="151.5,-180.465 155,-190.465 158.5,-180.465 151.5,-180.465"/>
<text text-anchor="middle" x="177" y="-163.5" font-family="FreeSans" font-size="10.00"> myArray</text>
</g>
<!-- Node5 -->
<g id="node5" class="node"><title>Node5</title>
<polygon fill="white" stroke="#bfbfbf" points="279,-111.5 279,-130.5 335,-130.5 335,-111.5 279,-111.5"/>
<text text-anchor="middle" x="307" y="-118.5" font-family="FreeSans" font-size="10.00">TInteger</text>
</g>
<!-- Node5&#45;&gt;Node1 -->
<g id="edge5" class="edge"><title>Node5&#45;&gt;Node1</title>
<path fill="none" stroke="#9a32cd" stroke-dasharray="5,2" d="M285.333,-106.031C259.193,-89.1767 215.078,-60.7344 185.505,-41.6679"/>
<polygon fill="#9a32cd" stroke="#9a32cd" points="283.476,-108.997 293.777,-111.475 287.269,-103.114 283.476,-108.997"/>
<text text-anchor="middle" x="283.5" y="-74" font-family="FreeSans" font-size="10.00"> myLowerBound</text>
<text text-anchor="middle" x="283.5" y="-63" font-family="FreeSans" font-size="10.00">myUpperBound</text>
</g>
</g>
</svg>
