<?xml version="1.0" encoding="UTF-8" standalone="no"?>
<!DOCTYPE svg PUBLIC "-//W3C//DTD SVG 1.1//EN"
 "http://www.w3.org/Graphics/SVG/1.1/DTD/svg11.dtd">
<!-- Generated by graphviz version 2.40.1 (20161225.0304)
 -->
<!-- Title: DGtal::TiledImage&lt; TImageContainer, TImageFactory, TImageCacheReadPolicy, TImageCacheWritePolicy &gt;::TiledIterator Pages: 1 -->
<!--zoomable 171 -->
<svg id="main" version="1.1" xmlns="http://www.w3.org/2000/svg" xmlns:xlink="http://www.w3.org/1999/xlink" xml:space="preserve" onload="init(evt)">
<style type="text/css"><![CDATA[
.edge:hover path { stroke: red; }
.edge:hover polygon { stroke: red; fill: red; }
]]></style>
<script type="text/javascript"><![CDATA[
var edges = document.getElementsByTagName('g');
if (edges && edges.length) {
  for (var i=0;i<edges.length;i++) {
    if (edges[i].id.substr(0,4)=='edge') {
      edges[i].setAttribute('class','edge');
    }
  }
}
]]></script>
        <defs>
                <circle id="rim" cx="0" cy="0" r="7"/>
                <circle id="rim2" cx="0" cy="0" r="3.5"/>
                <g id="zoomPlus">
                        <use xlink:href="#rim" fill="#404040">
                                <set attributeName="fill" to="#808080" begin="zoomplus.mouseover" end="zoomplus.mouseout"/>
                        </use>
                        <path d="M-4,0h8M0,-4v8" fill="none" stroke="white" stroke-width="1.5" pointer-events="none"/>
                </g>
                <g id="zoomMin">
                        <use xlink:href="#rim" fill="#404040">
                                <set attributeName="fill" to="#808080" begin="zoomminus.mouseover" end="zoomminus.mouseout"/>
                        </use>
                        <path d="M-4,0h8" fill="none" stroke="white" stroke-width="1.5" pointer-events="none"/>
                </g>
                <g id="dirArrow">
                        <path fill="none" stroke="white" stroke-width="1.5" d="M0,-3.0v7 M-2.5,-0.5L0,-3.0L2.5,-0.5"/>
                </g>
               <g id="resetDef">
                       <use xlink:href="#rim2" fill="#404040">
                               <set attributeName="fill" to="#808080" begin="reset.mouseover" end="reset.mouseout"/>
                       </use>
               </g>
        </defs>

<script type="text/javascript">
var viewWidth = 826;
var viewHeight = 171;
var sectionId = 'dynsection-1';
</script>
<script xlink:href="svgpan.js"/>
<svg id="graph" class="graph">
<g id="viewport">
<title>DGtal::TiledImage&lt; TImageContainer, TImageFactory, TImageCacheReadPolicy, TImageCacheWritePolicy &gt;::TiledIterator</title>
<polygon fill="#ffffff" stroke="transparent" points="-4,4 -4,-167 822.1494,-167 822.1494,4 -4,4"/>
<!-- Node2 -->
<g id="node1" class="node">
<title>Node2</title>
<polygon fill="#bfbfbf" stroke="#000000" points="618.707,-57.5 618.707,-105.5 818.1494,-105.5 818.1494,-57.5 618.707,-57.5"/>
<text text-anchor="start" x="626.707" y="-93.5" font-family="FreeSans" font-size="10.00" fill="#000000">DGtal::TiledImage&lt;</text>
<text text-anchor="start" x="626.707" y="-83.5" font-family="FreeSans" font-size="10.00" fill="#000000"> TImageContainer, TImageFactory,</text>
<text text-anchor="start" x="626.707" y="-73.5" font-family="FreeSans" font-size="10.00" fill="#000000"> TImageCacheReadPolicy, TImageCache</text>
<text text-anchor="middle" x="718.4282" y="-63.5" font-family="FreeSans" font-size="10.00" fill="#000000">WritePolicy &gt;::TiledIterator</text>
</g>
<!-- Node3 -->
<g id="node2" class="node">
<title>Node3</title>
<polygon fill="#ffffff" stroke="#bfbfbf" points="322.7056,-114.5 322.7056,-162.5 434.311,-162.5 434.311,-114.5 322.7056,-114.5"/>
<text text-anchor="start" x="330.7056" y="-150.5" font-family="FreeSans" font-size="10.00" fill="#000000">std::iterator&lt; std</text>
<text text-anchor="start" x="330.7056" y="-140.5" font-family="FreeSans" font-size="10.00" fill="#000000">::bidirectional_iterator</text>
<text text-anchor="start" x="330.7056" y="-130.5" font-family="FreeSans" font-size="10.00" fill="#000000">_tag, Value, ptrdiff_t,</text>
<text text-anchor="middle" x="378.5083" y="-120.5" font-family="FreeSans" font-size="10.00" fill="#000000"> Value *, Value &amp;&gt;</text>
</g>
<!-- Node3&#45;&gt;Node2 -->
<g id="edge1" class="edge">
<title>Node3&#45;&gt;Node2</title>
<path fill="none" stroke="#191970" d="M444.5746,-127.4216C494.0062,-119.1326 562.4612,-107.6536 618.5624,-98.2461"/>
<polygon fill="#191970" stroke="#191970" points="443.9226,-123.9819 434.6392,-129.0876 445.0803,-130.8856 443.9226,-123.9819"/>
</g>
<!-- Node4 -->
<g id="node3" class="node">
<title>Node4</title>
<g id="a_node3"><a xlink:href="classDGtal_1_1HyperRectDomain__Iterator.html" target="_top" xlink:title="DGtal::HyperRectDomain\l_Iterator\&lt; TPoint \&gt;">
<polygon fill="#ffffff" stroke="#000000" points="314.1021,-67.5 314.1021,-95.5 442.9146,-95.5 442.9146,-67.5 314.1021,-67.5"/>
<text text-anchor="start" x="322.1021" y="-83.5" font-family="FreeSans" font-size="10.00" fill="#000000">DGtal::HyperRectDomain</text>
<text text-anchor="middle" x="378.5083" y="-73.5" font-family="FreeSans" font-size="10.00" fill="#000000">_Iterator&lt; TPoint &gt;</text>
</a>
</g>
</g>
<!-- Node4&#45;&gt;Node2 -->
<g id="edge2" class="edge">
<title>Node4&#45;&gt;Node2</title>
<path fill="none" stroke="#9a32cd" stroke-dasharray="5,2" d="M453.3574,-81.5C501.8771,-81.5 565.6487,-81.5 618.4819,-81.5"/>
<polygon fill="#9a32cd" stroke="#9a32cd" points="453.2448,-78.0001 443.2447,-81.5 453.2447,-85.0001 453.2448,-78.0001"/>
<text text-anchor="middle" x="548.4683" y="-83.5" font-family="FreeSans" font-size="10.00" fill="#000000"> myBlockCoordsIterator</text>
</g>
<!-- Node5 -->
<g id="node4" class="node">
<title>Node5</title>
<polygon fill="#ffffff" stroke="#bfbfbf" points="62.5391,-72.5 62.5391,-90.5 107.4404,-90.5 107.4404,-72.5 62.5391,-72.5"/>
<text text-anchor="middle" x="84.9897" y="-78.5" font-family="FreeSans" font-size="10.00" fill="#000000">TPoint</text>
</g>
<!-- Node5&#45;&gt;Node4 -->
<g id="edge3" class="edge">
<title>Node5&#45;&gt;Node4</title>
<path fill="none" stroke="#9a32cd" stroke-dasharray="5,2" d="M117.8031,-81.5C165.0756,-81.5 253.3083,-81.5 313.9313,-81.5"/>
<polygon fill="#9a32cd" stroke="#9a32cd" points="117.5343,-78.0001 107.5343,-81.5 117.5342,-85.0001 117.5343,-78.0001"/>
<text text-anchor="middle" x="224.3833" y="-103.5" font-family="FreeSans" font-size="10.00" fill="#000000"> mylower</text>
<text text-anchor="middle" x="224.3833" y="-93.5" font-family="FreeSans" font-size="10.00" fill="#000000">myupper</text>
<text text-anchor="middle" x="224.3833" y="-83.5" font-family="FreeSans" font-size="10.00" fill="#000000">myPoint</text>
</g>
<!-- Node6 -->
<g id="node5" class="node">
<title>Node6</title>
<g id="a_node5"><a xlink:href="classDGtal_1_1TiledImage.html" target="_top" xlink:title="Aim: implements a tiled image from a &quot;bigger/original&quot; one from an ImageFactory. ">
<polygon fill="#ffffff" stroke="#000000" points="278.7871,-.5 278.7871,-48.5 478.2295,-48.5 478.2295,-.5 278.7871,-.5"/>
<text text-anchor="start" x="286.7871" y="-36.5" font-family="FreeSans" font-size="10.00" fill="#000000">DGtal::TiledImage&lt;</text>
<text text-anchor="start" x="286.7871" y="-26.5" font-family="FreeSans" font-size="10.00" fill="#000000"> TImageContainer, TImageFactory,</text>
<text text-anchor="start" x="286.7871" y="-16.5" font-family="FreeSans" font-size="10.00" fill="#000000"> TImageCacheReadPolicy, TImageCache</text>
<text text-anchor="middle" x="378.5083" y="-6.5" font-family="FreeSans" font-size="10.00" fill="#000000">WritePolicy &gt;</text>
</a>
</g>
</g>
<!-- Node6&#45;&gt;Node2 -->
<g id="edge4" class="edge">
<title>Node6&#45;&gt;Node2</title>
<path fill="none" stroke="#9a32cd" stroke-dasharray="5,2" d="M488.6092,-42.9624C530.4607,-49.9804 577.8637,-57.9292 618.702,-64.7773"/>
<polygon fill="#9a32cd" stroke="#9a32cd" points="489.0981,-39.4956 478.657,-41.2936 487.9404,-46.3993 489.0981,-39.4956"/>
<text text-anchor="middle" x="548.4683" y="-62.5" font-family="FreeSans" font-size="10.00" fill="#000000"> myTiledImage</text>
</g>
<!-- Node7 -->
<g id="node6" class="node">
<title>Node7</title>
<g id="a_node6"><a xlink:href="classDGtal_1_1ImageCache.html" target="_top" xlink:title="Aim: implements an images cache with &#39;read and write&#39; policies. ">
<polygon fill="#ffffff" stroke="#000000" points="0,-5.5 0,-43.5 169.9795,-43.5 169.9795,-5.5 0,-5.5"/>
<text text-anchor="start" x="8" y="-31.5" font-family="FreeSans" font-size="10.00" fill="#000000">DGtal::ImageCache&lt;</text>
<text text-anchor="start" x="8" y="-21.5" font-family="FreeSans" font-size="10.00" fill="#000000"> TImageContainer, TImageFactory,</text>
<text text-anchor="middle" x="84.9897" y="-11.5" font-family="FreeSans" font-size="10.00" fill="#000000"> TReadPolicy, TWritePolicy &gt;</text>
</a>
</g>
</g>
<!-- Node7&#45;&gt;Node6 -->
<g id="edge5" class="edge">
<title>Node7&#45;&gt;Node6</title>
<path fill="none" stroke="#9a32cd" stroke-dasharray="5,2" d="M180.3686,-24.5C211.8539,-24.5 246.9501,-24.5 278.7535,-24.5"/>
<polygon fill="#9a32cd" stroke="#9a32cd" points="180.2818,-21.0001 170.2817,-24.5 180.2817,-28.0001 180.2818,-21.0001"/>
<text text-anchor="middle" x="224.3833" y="-26.5" font-family="FreeSans" font-size="10.00" fill="#000000"> myImageCache</text>
</g>
</g>
</svg>
        <g id="navigator" transform="translate(0 0)" fill="#404254">
                <rect fill="#f2f5e9" fill-opacity="0.5" stroke="#606060" stroke-width=".5" x="0" y="0" width="60" height="60"/>
                <use id="zoomplus" xlink:href="#zoomPlus" x="17" y="9" onmousedown="handleZoom(evt,'in')"/>
                <use id="zoomminus" xlink:href="#zoomMin" x="42" y="9" onmousedown="handleZoom(evt,'out')"/>
                <use id="reset" xlink:href="#resetDef" x="30" y="36" onmousedown="handleReset()"/>
                <g id="arrowUp" xlink:href="#dirArrow" transform="translate(30 24)" onmousedown="handlePan(0,-1)">
                  <use xlink:href="#rim" fill="#404040">
                        <set attributeName="fill" to="#808080" begin="arrowUp.mouseover" end="arrowUp.mouseout"/>
                  </use>
                  <path fill="none" stroke="white" stroke-width="1.5" d="M0,-3.0v7 M-2.5,-0.5L0,-3.0L2.5,-0.5"/>
                </g>
                <g id="arrowRight" xlink:href="#dirArrow" transform="rotate(90) translate(36 -43)" onmousedown="handlePan(1,0)">
                  <use xlink:href="#rim" fill="#404040">
                        <set attributeName="fill" to="#808080" begin="arrowRight.mouseover" end="arrowRight.mouseout"/>
                  </use>
                  <path fill="none" stroke="white" stroke-width="1.5" d="M0,-3.0v7 M-2.5,-0.5L0,-3.0L2.5,-0.5"/>
                </g>
                <g id="arrowDown" xlink:href="#dirArrow" transform="rotate(180) translate(-30 -48)" onmousedown="handlePan(0,1)">
                  <use xlink:href="#rim" fill="#404040">
                        <set attributeName="fill" to="#808080" begin="arrowDown.mouseover" end="arrowDown.mouseout"/>
                  </use>
                  <path fill="none" stroke="white" stroke-width="1.5" d="M0,-3.0v7 M-2.5,-0.5L0,-3.0L2.5,-0.5"/>
                </g>
                <g id="arrowLeft" xlink:href="#dirArrow" transform="rotate(270) translate(-36 17)" onmousedown="handlePan(-1,0)">
                  <use xlink:href="#rim" fill="#404040">
                        <set attributeName="fill" to="#808080" begin="arrowLeft.mouseover" end="arrowLeft.mouseout"/>
                  </use>
                  <path fill="none" stroke="white" stroke-width="1.5" d="M0,-3.0v7 M-2.5,-0.5L0,-3.0L2.5,-0.5"/>
                </g>
        </g>
        <svg viewBox="0 0 15 15" width="100%" height="30px" preserveAspectRatio="xMaxYMin meet">
         <g id="arrow_out" transform="scale(0.3 0.3)">
          <a xlink:href="classDGtal_1_1TiledImage_1_1TiledIterator__coll__graph_org.svg" target="_base">
           <rect id="button" ry="5" rx="5" y="6" x="6" height="38" width="38"
                fill="#f2f5e9" fill-opacity="0.5" stroke="#606060" stroke-width="1.0"/>
           <path id="arrow"
             d="M 11.500037,31.436501 C 11.940474,20.09759 22.043105,11.32322 32.158766,21.979434 L 37.068811,17.246167 C 37.068811,17.246167 37.088388,32 37.088388,32 L 22.160133,31.978069 C 22.160133,31.978069 26.997745,27.140456 26.997745,27.140456 C 18.528582,18.264221 13.291696,25.230495 11.500037,31.436501 z"
             style="fill:#404040;"/>
          </a>
         </g>
        </svg>
</svg>
