<?xml version="1.0" encoding="UTF-8" standalone="no"?>
<!DOCTYPE svg PUBLIC "-//W3C//DTD SVG 1.1//EN"
 "http://www.w3.org/Graphics/SVG/1.1/DTD/svg11.dtd">
<!-- Generated by graphviz version 2.36.0 (20140111.2315)
 -->
<!-- Title: DGtal::FMM&lt; TImage, TSet, TPointPredicate, TPointFunctor &gt; Pages: 1 -->
<svg width="190pt" height="298pt"
 viewBox="0.00 0.00 190.00 298.00" xmlns="http://www.w3.org/2000/svg" xmlns:xlink="http://www.w3.org/1999/xlink">
<g id="graph0" class="graph" transform="scale(1 1) rotate(0) translate(4 294)">
<title>DGtal::FMM&lt; TImage, TSet, TPointPredicate, TPointFunctor &gt;</title>
<polygon fill="white" stroke="none" points="-4,4 -4,-294 186,-294 186,4 -4,4"/>
<!-- Node1 -->
<g id="node1" class="node"><title>Node1</title>
<polygon fill="#bfbfbf" stroke="black" points="10.5,-0.5 10.5,-41.5 135.5,-41.5 135.5,-0.5 10.5,-0.5"/>
<text text-anchor="start" x="18.5" y="-29.5" font-family="FreeSans" font-size="10.00">DGtal::FMM&lt; TImage,</text>
<text text-anchor="start" x="18.5" y="-18.5" font-family="FreeSans" font-size="10.00"> TSet, TPointPredicate,</text>
<text text-anchor="middle" x="73" y="-7.5" font-family="FreeSans" font-size="10.00"> TPointFunctor &gt;</text>
</g>
<!-- Node2 -->
<g id="node2" class="node"><title>Node2</title>
<polygon fill="white" stroke="#bfbfbf" points="0,-90.5 0,-131.5 146,-131.5 146,-90.5 0,-90.5"/>
<text text-anchor="start" x="8" y="-119.5" font-family="FreeSans" font-size="10.00">std::set&lt; PointValue,</text>
<text text-anchor="start" x="8" y="-108.5" font-family="FreeSans" font-size="10.00"> detail::PointValueCompare</text>
<text text-anchor="middle" x="73" y="-97.5" font-family="FreeSans" font-size="10.00">&lt; PointValue &gt; &gt;</text>
</g>
<!-- Node2&#45;&gt;Node1 -->
<g id="edge1" class="edge"><title>Node2&#45;&gt;Node1</title>
<path fill="none" stroke="#9a32cd" stroke-dasharray="5,2" d="M73,-80.3298C73,-67.6289 73,-53.1399 73,-41.7798"/>
<polygon fill="#9a32cd" stroke="#9a32cd" points="69.5001,-80.4699 73,-90.4699 76.5001,-80.47 69.5001,-80.4699"/>
<text text-anchor="middle" x="121.5" y="-63.5" font-family="FreeSans" font-size="10.00"> myCandidatePoints</text>
</g>
<!-- Node3 -->
<g id="node3" class="node"><title>Node3</title>
<g id="a_node3"><a xlink:title="STL class. ">
<polygon fill="white" stroke="#bfbfbf" points="32.5,-202.5 32.5,-221.5 113.5,-221.5 113.5,-202.5 32.5,-202.5"/>
<text text-anchor="middle" x="73" y="-209.5" font-family="FreeSans" font-size="10.00">std::set&lt; K &gt;</text>
</a>
</g>
</g>
<!-- Node3&#45;&gt;Node2 -->
<g id="edge2" class="edge"><title>Node3&#45;&gt;Node2</title>
<path fill="none" stroke="orange" stroke-dasharray="5,2" d="M73,-191.719C73,-174.443 73,-149.213 73,-131.785"/>
<polygon fill="orange" stroke="orange" points="69.5001,-192.214 73,-202.214 76.5001,-192.214 69.5001,-192.214"/>
<text text-anchor="start" x="73" y="-175.5" font-family="FreeSans" font-size="10.00"> &lt; PointValue, detail</text>
<text text-anchor="start" x="73" y="-164.5" font-family="FreeSans" font-size="10.00">::PointValueCompare&lt;</text>
<text text-anchor="middle" x="127.5" y="-153.5" font-family="FreeSans" font-size="10.00"> PointValue &gt; &gt;</text>
</g>
<!-- Node4 -->
<g id="node4" class="node"><title>Node4</title>
<polygon fill="white" stroke="#bfbfbf" points="58.5,-270.5 58.5,-289.5 87.5,-289.5 87.5,-270.5 58.5,-270.5"/>
<text text-anchor="middle" x="73" y="-277.5" font-family="FreeSans" font-size="10.00">K</text>
</g>
<!-- Node4&#45;&gt;Node3 -->
<g id="edge3" class="edge"><title>Node4&#45;&gt;Node3</title>
<path fill="none" stroke="#9a32cd" stroke-dasharray="5,2" d="M73,-260.041C73,-247.472 73,-231.563 73,-221.841"/>
<polygon fill="#9a32cd" stroke="#9a32cd" points="69.5001,-260.372 73,-270.372 76.5001,-260.372 69.5001,-260.372"/>
<text text-anchor="middle" x="85.5" y="-243.5" font-family="FreeSans" font-size="10.00"> keys</text>
</g>
</g>
</svg>
