<?xml version="1.0" encoding="UTF-8" standalone="no"?>
<!DOCTYPE svg PUBLIC "-//W3C//DTD SVG 1.1//EN"
 "http://www.w3.org/Graphics/SVG/1.1/DTD/svg11.dtd">
<!-- Generated by graphviz version 2.36.0 (20140111.2315)
 -->
<!-- Title: DGtal::DomainAdjacency&lt; TDomain, TAdjacency &gt; Pages: 1 -->
<svg width="260pt" height="130pt"
 viewBox="0.00 0.00 260.00 130.00" xmlns="http://www.w3.org/2000/svg" xmlns:xlink="http://www.w3.org/1999/xlink">
<g id="graph0" class="graph" transform="scale(1 1) rotate(0) translate(4 126)">
<title>DGtal::DomainAdjacency&lt; TDomain, TAdjacency &gt;</title>
<polygon fill="white" stroke="none" points="-4,4 -4,-126 256,-126 256,4 -4,4"/>
<!-- Node1 -->
<g id="node1" class="node"><title>Node1</title>
<polygon fill="#bfbfbf" stroke="black" points="37.5,-91 37.5,-121 178.5,-121 178.5,-91 37.5,-91"/>
<text text-anchor="start" x="45.5" y="-109" font-family="FreeSans" font-size="10.00">DGtal::DomainAdjacency</text>
<text text-anchor="middle" x="108" y="-98" font-family="FreeSans" font-size="10.00">&lt; TDomain, TAdjacency &gt;</text>
</g>
<!-- Node2 -->
<g id="node2" class="node"><title>Node2</title>
<g id="a_node2"><a xlink:href="classDGtal_1_1DomainAdjacency.html" target="_top" xlink:title="DGtal::DomainAdjacency\l\&lt; ObjectDomain, ForegroundAdjacency \&gt;">
<polygon fill="white" stroke="black" points="-0.5,-1 -0.5,-31 216.5,-31 216.5,-1 -0.5,-1"/>
<text text-anchor="start" x="7.5" y="-19" font-family="FreeSans" font-size="10.00">DGtal::DomainAdjacency</text>
<text text-anchor="middle" x="108" y="-8" font-family="FreeSans" font-size="10.00">&lt; ObjectDomain, ForegroundAdjacency &gt;</text>
</a>
</g>
</g>
<!-- Node1&#45;&gt;Node2 -->
<g id="edge1" class="edge"><title>Node1&#45;&gt;Node2</title>
<path fill="none" stroke="orange" stroke-dasharray="5,2" d="M108,-80.6545C108,-64.711 108,-44.4341 108,-31.1036"/>
<polygon fill="orange" stroke="orange" points="104.5,-80.8612 108,-90.8613 111.5,-80.8613 104.5,-80.8612"/>
<text text-anchor="start" x="108" y="-64" font-family="FreeSans" font-size="10.00"> &lt; ObjectDomain, Foreground</text>
<text text-anchor="middle" x="180" y="-53" font-family="FreeSans" font-size="10.00">Adjacency &gt;</text>
</g>
</g>
</svg>
