<?xml version="1.0" encoding="UTF-8" standalone="no"?>
<!DOCTYPE svg PUBLIC "-//W3C//DTD SVG 1.1//EN"
 "http://www.w3.org/Graphics/SVG/1.1/DTD/svg11.dtd">
<!-- Generated by graphviz version 2.36.0 (20140111.2315)
 -->
<!-- Title: DGtal::functors::SphericalHoughNormalVectorEstimator&lt; TSurfel, TEmbedder &gt; Pages: 1 -->
<!--zoomable 318 -->
<svg id="main" version="1.1" xmlns="http://www.w3.org/2000/svg" xmlns:xlink="http://www.w3.org/1999/xlink" xml:space="preserve" onload="init(evt)">
<style type="text/css"><![CDATA[
.edge:hover path { stroke: red; }
.edge:hover polygon { stroke: red; fill: red; }
]]></style>
<script type="text/javascript"><![CDATA[
var edges = document.getElementsByTagName('g');
if (edges && edges.length) {
  for (var i=0;i<edges.length;i++) {
    if (edges[i].id.substr(0,4)=='edge') {
      edges[i].setAttribute('class','edge');
    }
  }
}
]]></script>
        <defs>
                <circle id="rim" cx="0" cy="0" r="7"/>
                <circle id="rim2" cx="0" cy="0" r="3.5"/>
                <g id="zoomPlus">
                        <use xlink:href="#rim" fill="#404040">
                                <set attributeName="fill" to="#808080" begin="zoomplus.mouseover" end="zoomplus.mouseout"/>
                        </use>
                        <path d="M-4,0h8M0,-4v8" fill="none" stroke="white" stroke-width="1.5" pointer-events="none"/>
                </g>
                <g id="zoomMin">
                        <use xlink:href="#rim" fill="#404040">
                                <set attributeName="fill" to="#808080" begin="zoomminus.mouseover" end="zoomminus.mouseout"/>
                        </use>
                        <path d="M-4,0h8" fill="none" stroke="white" stroke-width="1.5" pointer-events="none"/>
                </g>
                <g id="dirArrow">
                        <path fill="none" stroke="white" stroke-width="1.5" d="M0,-3.0v7 M-2.5,-0.5L0,-3.0L2.5,-0.5"/>
                </g>
               <g id="resetDef">
                       <use xlink:href="#rim2" fill="#404040">
                               <set attributeName="fill" to="#808080" begin="reset.mouseover" end="reset.mouseout"/>
                       </use>
               </g>
        </defs>

<script type="text/javascript">
var viewWidth = 1644;
var viewHeight = 318;
var sectionId = 'dynsection-0';
</script>
<script xlink:href="svgpan.js"/>
<svg id="graph" class="graph">
<g id="viewport">
<title>DGtal::functors::SphericalHoughNormalVectorEstimator&lt; TSurfel, TEmbedder &gt;</title>
<polygon fill="white" stroke="none" points="-4,4 -4,-314 1640,-314 1640,4 -4,4"/>
<!-- Node1 -->
<g id="node1" class="node"><title>Node1</title>
<polygon fill="#bfbfbf" stroke="black" points="1474.5,-129.5 1474.5,-170.5 1635.5,-170.5 1635.5,-129.5 1474.5,-129.5"/>
<text text-anchor="start" x="1482.5" y="-158.5" font-family="FreeSans" font-size="10.00">DGtal::functors::Spherical</text>
<text text-anchor="start" x="1482.5" y="-147.5" font-family="FreeSans" font-size="10.00">HoughNormalVectorEstimator</text>
<text text-anchor="middle" x="1555" y="-136.5" font-family="FreeSans" font-size="10.00">&lt; TSurfel, TEmbedder &gt;</text>
</g>
<!-- Node2 -->
<g id="node2" class="node"><title>Node2</title>
<polygon fill="white" stroke="#bfbfbf" points="428,-264.5 428,-283.5 562,-283.5 562,-264.5 428,-264.5"/>
<text text-anchor="middle" x="495" y="-271.5" font-family="FreeSans" font-size="10.00">std::vector&lt; RealPoint &gt;</text>
</g>
<!-- Node2&#45;&gt;Node1 -->
<g id="edge1" class="edge"><title>Node2&#45;&gt;Node1</title>
<path fill="none" stroke="#9a32cd" stroke-dasharray="5,2" d="M572.495,-283.873C633.245,-290.863 720.416,-299 797,-299 797,-299 797,-299 1289,-299 1392.45,-299 1492.83,-211.659 1534.2,-170.718"/>
<polygon fill="#9a32cd" stroke="#9a32cd" points="572.562,-280.358 562.224,-282.674 571.75,-287.31 572.562,-280.358"/>
<text text-anchor="middle" x="1060" y="-302" font-family="FreeSans" font-size="10.00"> myPoints</text>
</g>
<!-- Node3 -->
<g id="node3" class="node"><title>Node3</title>
<g id="a_node3"><a xlink:href="classDGtal_1_1PointVector.html" target="_top" xlink:title="Aim: Implements basic operations that will be used in Point and Vector classes. ">
<polygon fill="white" stroke="black" points="154,-219.5 154,-260.5 280,-260.5 280,-219.5 154,-219.5"/>
<text text-anchor="start" x="162" y="-248.5" font-family="FreeSans" font-size="10.00">DGtal::PointVector</text>
<text text-anchor="start" x="162" y="-237.5" font-family="FreeSans" font-size="10.00">&lt; dim, TEuclideanRing,</text>
<text text-anchor="middle" x="217" y="-226.5" font-family="FreeSans" font-size="10.00"> TContainer &gt;</text>
</a>
</g>
</g>
<!-- Node3&#45;&gt;Node2 -->
<g id="edge2" class="edge"><title>Node3&#45;&gt;Node2</title>
<path fill="none" stroke="#9a32cd" stroke-dasharray="5,2" d="M290.397,-250.982C292.962,-251.332 295.502,-251.673 298,-252 341.118,-257.652 389.692,-263.11 427.697,-267.176"/>
<polygon fill="#9a32cd" stroke="#9a32cd" points="290.808,-247.506 280.42,-249.592 289.841,-254.439 290.808,-247.506"/>
<text text-anchor="middle" x="354" y="-269" font-family="FreeSans" font-size="10.00"> elements</text>
</g>
<!-- Node3&#45;&gt;Node3 -->
<g id="edge4" class="edge"><title>Node3&#45;&gt;Node3</title>
<path fill="none" stroke="#9a32cd" stroke-dasharray="5,2" d="M199.09,-270.601C201.947,-275.023 207.917,-278 217,-278 231.906,-278 238.428,-269.984 236.564,-260.716"/>
<polygon fill="#9a32cd" stroke="#9a32cd" points="202.539,-270.001 197.436,-260.716 195.635,-271.157 202.539,-270.001"/>
<text text-anchor="middle" x="217" y="-281" font-family="FreeSans" font-size="10.00"> zero</text>
</g>
<!-- Node14 -->
<g id="node14" class="node"><title>Node14</title>
<polygon fill="white" stroke="#bfbfbf" points="434.5,-189.5 434.5,-208.5 555.5,-208.5 555.5,-189.5 434.5,-189.5"/>
<text text-anchor="middle" x="495" y="-196.5" font-family="FreeSans" font-size="10.00">std::vector&lt; Vector &gt;</text>
</g>
<!-- Node3&#45;&gt;Node14 -->
<g id="edge18" class="edge"><title>Node3&#45;&gt;Node14</title>
<path fill="none" stroke="#9a32cd" stroke-dasharray="5,2" d="M269.726,-215.606C278.964,-212.137 288.633,-209.055 298,-207 342.907,-197.146 394.957,-195.46 434.128,-196.068"/>
<polygon fill="#9a32cd" stroke="#9a32cd" points="268.3,-212.406 260.285,-219.334 270.871,-218.917 268.3,-212.406"/>
<text text-anchor="middle" x="354" y="-210" font-family="FreeSans" font-size="10.00"> elements</text>
</g>
<!-- Node4 -->
<g id="node4" class="node"><title>Node4</title>
<polygon fill="white" stroke="#bfbfbf" points="0,-230.5 0,-249.5 68,-249.5 68,-230.5 0,-230.5"/>
<text text-anchor="middle" x="34" y="-237.5" font-family="FreeSans" font-size="10.00">TContainer</text>
</g>
<!-- Node4&#45;&gt;Node3 -->
<g id="edge3" class="edge"><title>Node4&#45;&gt;Node3</title>
<path fill="none" stroke="#9a32cd" stroke-dasharray="5,2" d="M78.4665,-240C101.004,-240 128.93,-240 153.718,-240"/>
<polygon fill="#9a32cd" stroke="#9a32cd" points="78.1982,-236.5 68.1982,-240 78.1982,-243.5 78.1982,-236.5"/>
<text text-anchor="middle" x="111" y="-243" font-family="FreeSans" font-size="10.00"> myArray</text>
</g>
<!-- Node5 -->
<g id="node5" class="node"><title>Node5</title>
<g id="a_node5"><a xlink:title="STL class. ">
<polygon fill="white" stroke="#bfbfbf" points="169.5,-112.5 169.5,-131.5 264.5,-131.5 264.5,-112.5 169.5,-112.5"/>
<text text-anchor="middle" x="217" y="-119.5" font-family="FreeSans" font-size="10.00">std::vector&lt; T &gt;</text>
</a>
</g>
</g>
<!-- Node5&#45;&gt;Node2 -->
<g id="edge5" class="edge"><title>Node5&#45;&gt;Node2</title>
<path fill="none" stroke="orange" stroke-dasharray="5,2" d="M228.081,-140.616C241.136,-162.811 266.054,-199.252 298,-218 341.679,-243.634 361.471,-224.515 410,-239 432.708,-245.778 457.644,-256.629 474.401,-264.454"/>
<polygon fill="orange" stroke="orange" points="231.059,-138.772 223.08,-131.802 224.971,-142.226 231.059,-138.772"/>
<text text-anchor="middle" x="354" y="-242" font-family="FreeSans" font-size="10.00"> &lt; RealPoint &gt;</text>
</g>
<!-- Node7 -->
<g id="node7" class="node"><title>Node7</title>
<polygon fill="white" stroke="#bfbfbf" points="1007,-44 1007,-74 1113,-74 1113,-44 1007,-44"/>
<text text-anchor="start" x="1015" y="-62" font-family="FreeSans" font-size="10.00">std::vector&lt; DGtal</text>
<text text-anchor="middle" x="1060" y="-51" font-family="FreeSans" font-size="10.00">::SimpleMatrix &gt;</text>
</g>
<!-- Node5&#45;&gt;Node7 -->
<g id="edge12" class="edge"><title>Node5&#45;&gt;Node7</title>
<path fill="none" stroke="orange" stroke-dasharray="5,2" d="M246.713,-108.237C261.649,-101.762 280.418,-94.6714 298,-91 559.475,-36.4008 882.123,-48.0421 1006.61,-55.3827"/>
<polygon fill="orange" stroke="orange" points="245.199,-105.079 237.502,-112.36 248.059,-111.468 245.199,-105.079"/>
<text text-anchor="middle" x="641" y="-58" font-family="FreeSans" font-size="10.00"> &lt; DGtal::SimpleMatrix &gt;</text>
</g>
<!-- Node11 -->
<g id="node11" class="node"><title>Node11</title>
<polygon fill="white" stroke="#bfbfbf" points="1224,-129.5 1224,-170.5 1352,-170.5 1352,-129.5 1224,-129.5"/>
<text text-anchor="start" x="1232" y="-158.5" font-family="FreeSans" font-size="10.00">std::vector&lt; DGtal</text>
<text text-anchor="start" x="1232" y="-147.5" font-family="FreeSans" font-size="10.00">::SphericalAccumulator</text>
<text text-anchor="middle" x="1288" y="-136.5" font-family="FreeSans" font-size="10.00">&lt; RealPoint &gt; &gt;</text>
</g>
<!-- Node5&#45;&gt;Node11 -->
<g id="edge23" class="edge"><title>Node5&#45;&gt;Node11</title>
<path fill="none" stroke="orange" stroke-dasharray="5,2" d="M274.86,-116.448C330.619,-111.488 418.073,-105 494,-105 494,-105 494,-105 1061,-105 1116.81,-105 1178.9,-118.362 1223.86,-130.524"/>
<polygon fill="orange" stroke="orange" points="274.472,-112.969 264.828,-117.355 275.102,-119.941 274.472,-112.969"/>
<text text-anchor="start" x="721.5" y="-119" font-family="FreeSans" font-size="10.00"> &lt; DGtal::SphericalAccumulator</text>
<text text-anchor="middle" x="798" y="-108" font-family="FreeSans" font-size="10.00">&lt; RealPoint &gt; &gt;</text>
</g>
<!-- Node13 -->
<g id="node13" class="node"><title>Node13</title>
<polygon fill="white" stroke="#bfbfbf" points="429.5,-143.5 429.5,-162.5 560.5,-162.5 560.5,-143.5 429.5,-143.5"/>
<text text-anchor="middle" x="495" y="-150.5" font-family="FreeSans" font-size="10.00">std::vector&lt; Quantity &gt;</text>
</g>
<!-- Node5&#45;&gt;Node13 -->
<g id="edge16" class="edge"><title>Node5&#45;&gt;Node13</title>
<path fill="none" stroke="orange" stroke-dasharray="5,2" d="M275.088,-125.9C313.341,-128.797 364.789,-133.24 410,-139 419.973,-140.271 430.574,-141.854 440.767,-143.494"/>
<polygon fill="orange" stroke="orange" points="274.897,-122.376 264.665,-125.124 274.377,-129.357 274.897,-122.376"/>
<text text-anchor="middle" x="354" y="-142" font-family="FreeSans" font-size="10.00"> &lt; Quantity &gt;</text>
</g>
<!-- Node5&#45;&gt;Node14 -->
<g id="edge19" class="edge"><title>Node5&#45;&gt;Node14</title>
<path fill="none" stroke="orange" stroke-dasharray="5,2" d="M253.052,-135.05C266.953,-140.02 283.14,-145.552 298,-150 350.083,-165.589 410.949,-180.264 450.869,-189.417"/>
<polygon fill="orange" stroke="orange" points="253.98,-131.664 243.385,-131.554 251.599,-138.247 253.98,-131.664"/>
<text text-anchor="middle" x="354" y="-183" font-family="FreeSans" font-size="10.00"> &lt; Vector &gt;</text>
</g>
<!-- Node6 -->
<g id="node6" class="node"><title>Node6</title>
<polygon fill="white" stroke="#bfbfbf" points="19.5,-61.5 19.5,-80.5 48.5,-80.5 48.5,-61.5 19.5,-61.5"/>
<text text-anchor="middle" x="34" y="-68.5" font-family="FreeSans" font-size="10.00">T</text>
</g>
<!-- Node6&#45;&gt;Node5 -->
<g id="edge6" class="edge"><title>Node6&#45;&gt;Node5</title>
<path fill="none" stroke="#9a32cd" stroke-dasharray="5,2" d="M58.2551,-77.5526C89.7161,-86.4173 146.05,-102.29 182.191,-112.474"/>
<polygon fill="#9a32cd" stroke="#9a32cd" points="59.1789,-74.1766 48.6044,-74.8333 57.2804,-80.9143 59.1789,-74.1766"/>
<text text-anchor="middle" x="111" y="-102" font-family="FreeSans" font-size="10.00"> elements</text>
</g>
<!-- Node10 -->
<g id="node10" class="node"><title>Node10</title>
<g id="a_node10"><a xlink:title="STL class. ">
<polygon fill="white" stroke="#bfbfbf" points="172,-41.5 172,-60.5 262,-60.5 262,-41.5 172,-41.5"/>
<text text-anchor="middle" x="217" y="-48.5" font-family="FreeSans" font-size="10.00">std::array&lt; T &gt;</text>
</a>
</g>
</g>
<!-- Node6&#45;&gt;Node10 -->
<g id="edge11" class="edge"><title>Node6&#45;&gt;Node10</title>
<path fill="none" stroke="#9a32cd" stroke-dasharray="5,2" d="M58.892,-68.36C87.5743,-65.1907 136.255,-59.8116 171.842,-55.8794"/>
<polygon fill="#9a32cd" stroke="#9a32cd" points="58.1595,-64.9195 48.6044,-69.4967 58.9284,-71.8772 58.1595,-64.9195"/>
<text text-anchor="middle" x="111" y="-69" font-family="FreeSans" font-size="10.00"> elements</text>
</g>
<!-- Node7&#45;&gt;Node1 -->
<g id="edge7" class="edge"><title>Node7&#45;&gt;Node1</title>
<path fill="none" stroke="#9a32cd" stroke-dasharray="5,2" d="M1123.38,-65.1922C1182.54,-71.5756 1273.77,-82.7449 1352,-98 1395.72,-106.525 1444.06,-118.863 1482.49,-129.381"/>
<polygon fill="#9a32cd" stroke="#9a32cd" points="1123.4,-61.674 1113.08,-64.0943 1122.65,-68.6345 1123.4,-61.674"/>
<text text-anchor="middle" x="1288" y="-112" font-family="FreeSans" font-size="10.00"> myInverseRotations</text>
<text text-anchor="middle" x="1288" y="-101" font-family="FreeSans" font-size="10.00">myRotations</text>
</g>
<!-- Node8 -->
<g id="node8" class="node"><title>Node8</title>
<g id="a_node8"><a xlink:href="classDGtal_1_1SimpleMatrix.html" target="_top" xlink:title="Aim: implements basic MxN Matrix services (M,N&gt;=1). ">
<polygon fill="white" stroke="black" points="729,-0 729,-30 867,-30 867,-0 729,-0"/>
<text text-anchor="start" x="737" y="-18" font-family="FreeSans" font-size="10.00">DGtal::SimpleMatrix</text>
<text text-anchor="middle" x="798" y="-7" font-family="FreeSans" font-size="10.00">&lt; TComponent, TM, TN &gt;</text>
</a>
</g>
</g>
<!-- Node8&#45;&gt;Node7 -->
<g id="edge8" class="edge"><title>Node8&#45;&gt;Node7</title>
<path fill="none" stroke="#9a32cd" stroke-dasharray="5,2" d="M877.148,-21.6897C904.722,-24.659 935.859,-28.705 964,-34 978.079,-36.6491 993.147,-40.2513 1007.04,-43.896"/>
<polygon fill="#9a32cd" stroke="#9a32cd" points="877.473,-18.2047 867.163,-20.6442 876.744,-25.1666 877.473,-18.2047"/>
<text text-anchor="middle" x="929" y="-37" font-family="FreeSans" font-size="10.00"> elements</text>
</g>
<!-- Node9 -->
<g id="node9" class="node"><title>Node9</title>
<polygon fill="white" stroke="#bfbfbf" points="428.5,-0 428.5,-30 561.5,-30 561.5,-0 428.5,-0"/>
<text text-anchor="start" x="436.5" y="-18" font-family="FreeSans" font-size="10.00">std::array&lt; Component,</text>
<text text-anchor="middle" x="495" y="-7" font-family="FreeSans" font-size="10.00"> M *N &gt;</text>
</g>
<!-- Node9&#45;&gt;Node8 -->
<g id="edge9" class="edge"><title>Node9&#45;&gt;Node8</title>
<path fill="none" stroke="#9a32cd" stroke-dasharray="5,2" d="M571.769,-15C620.061,-15 682.108,-15 728.847,-15"/>
<polygon fill="#9a32cd" stroke="#9a32cd" points="571.684,-11.5001 561.684,-15 571.684,-18.5001 571.684,-11.5001"/>
<text text-anchor="middle" x="641" y="-29" font-family="FreeSans" font-size="10.00"> myCofactorCoefs</text>
<text text-anchor="middle" x="641" y="-18" font-family="FreeSans" font-size="10.00">myValues</text>
</g>
<!-- Node10&#45;&gt;Node9 -->
<g id="edge10" class="edge"><title>Node10&#45;&gt;Node9</title>
<path fill="none" stroke="orange" stroke-dasharray="5,2" d="M268.506,-39.3667C278.256,-37.3765 288.418,-35.4777 298,-34 341.248,-27.3304 390.248,-22.5804 428.436,-19.4978"/>
<polygon fill="orange" stroke="orange" points="267.602,-35.98 258.535,-41.4599 269.04,-42.8306 267.602,-35.98"/>
<text text-anchor="middle" x="354" y="-37" font-family="FreeSans" font-size="10.00"> &lt; Component, M *N &gt;</text>
</g>
<!-- Node11&#45;&gt;Node1 -->
<g id="edge13" class="edge"><title>Node11&#45;&gt;Node1</title>
<path fill="none" stroke="#9a32cd" stroke-dasharray="5,2" d="M1362.22,-150C1397.01,-150 1438.65,-150 1474.24,-150"/>
<polygon fill="#9a32cd" stroke="#9a32cd" points="1362.14,-146.5 1352.14,-150 1362.14,-153.5 1362.14,-146.5"/>
<text text-anchor="middle" x="1413" y="-153" font-family="FreeSans" font-size="10.00"> myAccumulators</text>
</g>
<!-- Node12 -->
<g id="node12" class="node"><title>Node12</title>
<g id="a_node12"><a xlink:href="classDGtal_1_1SphericalAccumulator.html" target="_top" xlink:title="DGtal::SphericalAccumulator\l\&lt; RealPoint \&gt;">
<polygon fill="white" stroke="black" points="982.5,-176 982.5,-206 1137.5,-206 1137.5,-176 982.5,-176"/>
<text text-anchor="start" x="990.5" y="-194" font-family="FreeSans" font-size="10.00">DGtal::SphericalAccumulator</text>
<text text-anchor="middle" x="1060" y="-183" font-family="FreeSans" font-size="10.00">&lt; RealPoint &gt;</text>
</a>
</g>
</g>
<!-- Node12&#45;&gt;Node11 -->
<g id="edge14" class="edge"><title>Node12&#45;&gt;Node11</title>
<path fill="none" stroke="#9a32cd" stroke-dasharray="5,2" d="M1147.5,-175.308C1172.85,-170.708 1200.1,-165.766 1223.72,-161.48"/>
<polygon fill="#9a32cd" stroke="#9a32cd" points="1146.73,-171.89 1137.51,-177.119 1147.98,-178.778 1146.73,-171.89"/>
<text text-anchor="middle" x="1181" y="-176" font-family="FreeSans" font-size="10.00"> elements</text>
</g>
<!-- Node13&#45;&gt;Node12 -->
<g id="edge15" class="edge"><title>Node13&#45;&gt;Node12</title>
<path fill="none" stroke="#9a32cd" stroke-dasharray="5,2" d="M536.359,-166.335C545.177,-170.101 554.198,-174.658 562,-180 571.598,-186.572 569.314,-194.404 580,-199 650.1,-229.152 865.814,-211.968 982.374,-199.816"/>
<polygon fill="#9a32cd" stroke="#9a32cd" points="537.521,-163.03 526.937,-162.559 534.917,-169.528 537.521,-163.03"/>
<text text-anchor="middle" x="798" y="-219" font-family="FreeSans" font-size="10.00"> myAccumulator</text>
</g>
<!-- Node15 -->
<g id="node15" class="node"><title>Node15</title>
<g id="a_node15"><a xlink:href="classDGtal_1_1SphericalAccumulator.html" target="_top" xlink:title="Aim: implements an accumulator (as histograms for 1D scalars) adapted to spherical point samples...">
<polygon fill="white" stroke="black" points="720.5,-146 720.5,-176 875.5,-176 875.5,-146 720.5,-146"/>
<text text-anchor="start" x="728.5" y="-164" font-family="FreeSans" font-size="10.00">DGtal::SphericalAccumulator</text>
<text text-anchor="middle" x="798" y="-153" font-family="FreeSans" font-size="10.00">&lt; TVector &gt;</text>
</a>
</g>
</g>
<!-- Node13&#45;&gt;Node15 -->
<g id="edge21" class="edge"><title>Node13&#45;&gt;Node15</title>
<path fill="none" stroke="#9a32cd" stroke-dasharray="5,2" d="M570.756,-152.128C609.868,-151.985 658.533,-152.295 702,-154 707.949,-154.233 714.104,-154.539 720.288,-154.893"/>
<polygon fill="#9a32cd" stroke="#9a32cd" points="570.493,-148.629 560.51,-152.177 570.527,-155.629 570.493,-148.629"/>
<text text-anchor="middle" x="641" y="-157" font-family="FreeSans" font-size="10.00"> myAccumulator</text>
</g>
<!-- Node14&#45;&gt;Node12 -->
<g id="edge17" class="edge"><title>Node14&#45;&gt;Node12</title>
<path fill="none" stroke="#9a32cd" stroke-dasharray="5,2" d="M527.913,-212.272C543.355,-218.008 562.335,-224.069 580,-227 748.364,-254.939 796.302,-258.695 964,-227 986.01,-222.84 1009.56,-213.948 1027.71,-206.042"/>
<polygon fill="#9a32cd" stroke="#9a32cd" points="528.916,-208.908 518.326,-208.586 526.404,-215.442 528.916,-208.908"/>
<text text-anchor="middle" x="798" y="-253" font-family="FreeSans" font-size="10.00"> myAccumulatorDir</text>
</g>
<!-- Node14&#45;&gt;Node15 -->
<g id="edge22" class="edge"><title>Node14&#45;&gt;Node15</title>
<path fill="none" stroke="#9a32cd" stroke-dasharray="5,2" d="M565.77,-190.192C612.046,-184.35 672.785,-176.682 720.399,-170.671"/>
<polygon fill="#9a32cd" stroke="#9a32cd" points="565.311,-186.722 555.828,-191.447 566.187,-193.667 565.311,-186.722"/>
<text text-anchor="middle" x="641" y="-191" font-family="FreeSans" font-size="10.00"> myAccumulatorDir</text>
</g>
<!-- Node15&#45;&gt;Node12 -->
<g id="edge20" class="edge"><title>Node15&#45;&gt;Node12</title>
<path fill="none" stroke="orange" stroke-dasharray="5,2" d="M885.631,-170.996C916.965,-174.611 952.095,-178.665 982.496,-182.173"/>
<polygon fill="orange" stroke="orange" points="885.938,-167.508 875.602,-169.839 885.135,-174.462 885.938,-167.508"/>
<text text-anchor="middle" x="929" y="-183" font-family="FreeSans" font-size="10.00"> &lt; RealPoint &gt;</text>
</g>
</g>
</svg>
        <g id="navigator" transform="translate(0 0)" fill="#404254">
                <rect fill="#f2f5e9" fill-opacity="0.5" stroke="#606060" stroke-width=".5" x="0" y="0" width="60" height="60"/>
                <use id="zoomplus" xlink:href="#zoomPlus" x="17" y="9" onmousedown="handleZoom(evt,'in')"/>
                <use id="zoomminus" xlink:href="#zoomMin" x="42" y="9" onmousedown="handleZoom(evt,'out')"/>
                <use id="reset" xlink:href="#resetDef" x="30" y="36" onmousedown="handleReset()"/>
                <g id="arrowUp" xlink:href="#dirArrow" transform="translate(30 24)" onmousedown="handlePan(0,-1)">
                  <use xlink:href="#rim" fill="#404040">
                        <set attributeName="fill" to="#808080" begin="arrowUp.mouseover" end="arrowUp.mouseout"/>
                  </use>
                  <path fill="none" stroke="white" stroke-width="1.5" d="M0,-3.0v7 M-2.5,-0.5L0,-3.0L2.5,-0.5"/>
                </g>
                <g id="arrowRight" xlink:href="#dirArrow" transform="rotate(90) translate(36 -43)" onmousedown="handlePan(1,0)">
                  <use xlink:href="#rim" fill="#404040">
                        <set attributeName="fill" to="#808080" begin="arrowRight.mouseover" end="arrowRight.mouseout"/>
                  </use>
                  <path fill="none" stroke="white" stroke-width="1.5" d="M0,-3.0v7 M-2.5,-0.5L0,-3.0L2.5,-0.5"/>
                </g>
                <g id="arrowDown" xlink:href="#dirArrow" transform="rotate(180) translate(-30 -48)" onmousedown="handlePan(0,1)">
                  <use xlink:href="#rim" fill="#404040">
                        <set attributeName="fill" to="#808080" begin="arrowDown.mouseover" end="arrowDown.mouseout"/>
                  </use>
                  <path fill="none" stroke="white" stroke-width="1.5" d="M0,-3.0v7 M-2.5,-0.5L0,-3.0L2.5,-0.5"/>
                </g>
                <g id="arrowLeft" xlink:href="#dirArrow" transform="rotate(270) translate(-36 17)" onmousedown="handlePan(-1,0)">
                  <use xlink:href="#rim" fill="#404040">
                        <set attributeName="fill" to="#808080" begin="arrowLeft.mouseover" end="arrowLeft.mouseout"/>
                  </use>
                  <path fill="none" stroke="white" stroke-width="1.5" d="M0,-3.0v7 M-2.5,-0.5L0,-3.0L2.5,-0.5"/>
                </g>
        </g>
        <svg viewBox="0 0 15 15" width="100%" height="30px" preserveAspectRatio="xMaxYMin meet">
         <g id="arrow_out" transform="scale(0.3 0.3)">
          <a xlink:href="classDGtal_1_1functors_1_1SphericalHoughNormalVectorEstimator__coll__graph_org.svg" target="_base">
           <rect id="button" ry="5" rx="5" y="6" x="6" height="38" width="38"
                fill="#f2f5e9" fill-opacity="0.5" stroke="#606060" stroke-width="1.0"/>
           <path id="arrow"
             d="M 11.500037,31.436501 C 11.940474,20.09759 22.043105,11.32322 32.158766,21.979434 L 37.068811,17.246167 C 37.068811,17.246167 37.088388,32 37.088388,32 L 22.160133,31.978069 C 22.160133,31.978069 26.997745,27.140456 26.997745,27.140456 C 18.528582,18.264221 13.291696,25.230495 11.500037,31.436501 z"
             style="fill:#404040;"/>
          </a>
         </g>
        </svg>
</svg>
