<?xml version="1.0" encoding="UTF-8" standalone="no"?>
<!DOCTYPE svg PUBLIC "-//W3C//DTD SVG 1.1//EN"
 "http://www.w3.org/Graphics/SVG/1.1/DTD/svg11.dtd">
<!-- Generated by graphviz version 2.40.1 (20161225.0304)
 -->
<!-- Title: DGtal::OneBalancedWordComputer&lt; TConstIterator, TInteger &gt; Pages: 1 -->
<!--zoomable 202 -->
<svg id="main" version="1.1" xmlns="http://www.w3.org/2000/svg" xmlns:xlink="http://www.w3.org/1999/xlink" xml:space="preserve" onload="init(evt)">
<style type="text/css"><![CDATA[
.edge:hover path { stroke: red; }
.edge:hover polygon { stroke: red; fill: red; }
]]></style>
<script type="text/javascript"><![CDATA[
var edges = document.getElementsByTagName('g');
if (edges && edges.length) {
  for (var i=0;i<edges.length;i++) {
    if (edges[i].id.substr(0,4)=='edge') {
      edges[i].setAttribute('class','edge');
    }
  }
}
]]></script>
        <defs>
                <circle id="rim" cx="0" cy="0" r="7"/>
                <circle id="rim2" cx="0" cy="0" r="3.5"/>
                <g id="zoomPlus">
                        <use xlink:href="#rim" fill="#404040">
                                <set attributeName="fill" to="#808080" begin="zoomplus.mouseover" end="zoomplus.mouseout"/>
                        </use>
                        <path d="M-4,0h8M0,-4v8" fill="none" stroke="white" stroke-width="1.5" pointer-events="none"/>
                </g>
                <g id="zoomMin">
                        <use xlink:href="#rim" fill="#404040">
                                <set attributeName="fill" to="#808080" begin="zoomminus.mouseover" end="zoomminus.mouseout"/>
                        </use>
                        <path d="M-4,0h8" fill="none" stroke="white" stroke-width="1.5" pointer-events="none"/>
                </g>
                <g id="dirArrow">
                        <path fill="none" stroke="white" stroke-width="1.5" d="M0,-3.0v7 M-2.5,-0.5L0,-3.0L2.5,-0.5"/>
                </g>
               <g id="resetDef">
                       <use xlink:href="#rim2" fill="#404040">
                               <set attributeName="fill" to="#808080" begin="reset.mouseover" end="reset.mouseout"/>
                       </use>
               </g>
        </defs>

<script type="text/javascript">
var viewWidth = 1278;
var viewHeight = 202;
var sectionId = 'dynsection-0';
</script>
<script xlink:href="svgpan.js"/>
<svg id="graph" class="graph">
<g id="viewport">
<title>DGtal::OneBalancedWordComputer&lt; TConstIterator, TInteger &gt;</title>
<polygon fill="#ffffff" stroke="transparent" points="-4,4 -4,-198 1274.3721,-198 1274.3721,4 -4,4"/>
<!-- Node1 -->
<g id="node1" class="node">
<title>Node1</title>
<polygon fill="#bfbfbf" stroke="#000000" points="1095.0313,-54.5 1095.0313,-82.5 1270.3721,-82.5 1270.3721,-54.5 1095.0313,-54.5"/>
<text text-anchor="start" x="1103.0313" y="-70.5" font-family="FreeSans" font-size="10.00" fill="#000000">DGtal::OneBalancedWordComputer</text>
<text text-anchor="middle" x="1182.7017" y="-60.5" font-family="FreeSans" font-size="10.00" fill="#000000">&lt; TConstIterator, TInteger &gt;</text>
</g>
<!-- Node2 -->
<g id="node2" class="node">
<title>Node2</title>
<g id="a_node2"><a xlink:href="classDGtal_1_1PointVector.html" target="_top" xlink:title="DGtal::PointVector\l\&lt; 2, Integer \&gt;">
<polygon fill="#ffffff" stroke="#000000" points="558.0356,-38.5 558.0356,-66.5 656.3013,-66.5 656.3013,-38.5 558.0356,-38.5"/>
<text text-anchor="start" x="566.0356" y="-54.5" font-family="FreeSans" font-size="10.00" fill="#000000">DGtal::PointVector</text>
<text text-anchor="middle" x="607.1685" y="-44.5" font-family="FreeSans" font-size="10.00" fill="#000000">&lt; 2, Integer &gt;</text>
</a>
</g>
</g>
<!-- Node2&#45;&gt;Node1 -->
<g id="edge1" class="edge">
<title>Node2&#45;&gt;Node1</title>
<path fill="none" stroke="#9a32cd" stroke-dasharray="5,2" d="M666.6488,-53.7124C740.9181,-55.2742 871.8575,-58.1857 983.9971,-61.5 1020.2259,-62.5707 1060.1635,-63.9407 1094.6728,-65.1844"/>
<polygon fill="#9a32cd" stroke="#9a32cd" points="666.6241,-50.2112 656.553,-53.5011 666.4776,-57.2097 666.6241,-50.2112"/>
<text text-anchor="middle" x="896.3267" y="-83.5" font-family="FreeSans" font-size="10.00" fill="#000000"> myLastPoint</text>
<text text-anchor="middle" x="896.3267" y="-73.5" font-family="FreeSans" font-size="10.00" fill="#000000">myDisplacements</text>
<text text-anchor="middle" x="896.3267" y="-63.5" font-family="FreeSans" font-size="10.00" fill="#000000">myFirstPoint</text>
</g>
<!-- Node3 -->
<g id="node3" class="node">
<title>Node3</title>
<polygon fill="#ffffff" stroke="#bfbfbf" points="311.6582,-85.5 311.6582,-113.5 411.3203,-113.5 411.3203,-85.5 311.6582,-85.5"/>
<text text-anchor="start" x="319.6582" y="-101.5" font-family="FreeSans" font-size="10.00" fill="#000000">std::array&lt; Integer,</text>
<text text-anchor="middle" x="361.4893" y="-91.5" font-family="FreeSans" font-size="10.00" fill="#000000"> dim &gt;</text>
</g>
<!-- Node3&#45;&gt;Node2 -->
<g id="edge2" class="edge">
<title>Node3&#45;&gt;Node2</title>
<path fill="none" stroke="#9a32cd" stroke-dasharray="5,2" d="M421.5514,-88.0097C463.3362,-80.016 518.3741,-69.4869 557.6456,-61.974"/>
<polygon fill="#9a32cd" stroke="#9a32cd" points="420.6664,-84.6155 411.5022,-89.9322 421.9818,-91.4908 420.6664,-84.6155"/>
<text text-anchor="middle" x="470.3652" y="-86.5" font-family="FreeSans" font-size="10.00" fill="#000000"> myArray</text>
</g>
<!-- Node4 -->
<g id="node4" class="node">
<title>Node4</title>
<g id="a_node4"><a xlink:title="STL class. ">
<polygon fill="#ffffff" stroke="#bfbfbf" points="110.5786,-92.5 110.5786,-110.5 191.2515,-110.5 191.2515,-92.5 110.5786,-92.5"/>
<text text-anchor="middle" x="150.915" y="-98.5" font-family="FreeSans" font-size="10.00" fill="#000000">std::array&lt; T &gt;</text>
</a>
</g>
</g>
<!-- Node4&#45;&gt;Node3 -->
<g id="edge3" class="edge">
<title>Node4&#45;&gt;Node3</title>
<path fill="none" stroke="#ffa500" stroke-dasharray="5,2" d="M201.9292,-101.0155C235.1545,-100.6999 278.3039,-100.2901 311.3524,-99.9762"/>
<polygon fill="#ffa500" stroke="#ffa500" points="201.4821,-97.5195 191.5159,-101.1144 201.5487,-104.5192 201.4821,-97.5195"/>
<text text-anchor="middle" x="247.6108" y="-103.5" font-family="FreeSans" font-size="10.00" fill="#000000"> &lt; Integer, dim &gt;</text>
</g>
<!-- Node5 -->
<g id="node5" class="node">
<title>Node5</title>
<polygon fill="#ffffff" stroke="#bfbfbf" points="0,-111.5 0,-129.5 29,-129.5 29,-111.5 0,-111.5"/>
<text text-anchor="middle" x="14.5" y="-117.5" font-family="FreeSans" font-size="10.00" fill="#000000">T</text>
</g>
<!-- Node5&#45;&gt;Node4 -->
<g id="edge4" class="edge">
<title>Node5&#45;&gt;Node4</title>
<path fill="none" stroke="#9a32cd" stroke-dasharray="5,2" d="M38.3446,-109.0966C41.2117,-108.0655 44.1382,-107.1623 47,-106.5 67.5881,-101.7356 91.0629,-100.2818 110.4854,-100.1076"/>
<polygon fill="#9a32cd" stroke="#9a32cd" points="36.927,-105.895 29.0052,-112.9303 39.5852,-112.3707 36.927,-105.895"/>
<text text-anchor="middle" x="68.6772" y="-108.5" font-family="FreeSans" font-size="10.00" fill="#000000"> elements</text>
</g>
<!-- Node10 -->
<g id="node10" class="node">
<title>Node10</title>
<g id="a_node10"><a xlink:title="STL class. ">
<polygon fill="#ffffff" stroke="#bfbfbf" points="108.3545,-131.5 108.3545,-149.5 193.4756,-149.5 193.4756,-131.5 108.3545,-131.5"/>
<text text-anchor="middle" x="150.915" y="-137.5" font-family="FreeSans" font-size="10.00" fill="#000000">std::vector&lt; T &gt;</text>
</a>
</g>
</g>
<!-- Node5&#45;&gt;Node10 -->
<g id="edge12" class="edge">
<title>Node5&#45;&gt;Node10</title>
<path fill="none" stroke="#9a32cd" stroke-dasharray="5,2" d="M39.1536,-124.1145C58.3955,-126.9356 85.5871,-130.9222 108.3311,-134.2567"/>
<polygon fill="#9a32cd" stroke="#9a32cd" points="39.5008,-120.6281 29.0988,-122.6404 38.4853,-127.554 39.5008,-120.6281"/>
<text text-anchor="middle" x="68.6772" y="-133.5" font-family="FreeSans" font-size="10.00" fill="#000000"> elements</text>
</g>
<!-- Node6 -->
<g id="node6" class="node">
<title>Node6</title>
<g id="a_node6"><a xlink:href="classDGtal_1_1PointVector.html" target="_top" xlink:title="Aim: Implements basic operations that will be used in Point and Vector classes. ">
<polygon fill="#ffffff" stroke="#000000" points="301.7461,-.5 301.7461,-38.5 421.2324,-38.5 421.2324,-.5 301.7461,-.5"/>
<text text-anchor="start" x="309.7461" y="-26.5" font-family="FreeSans" font-size="10.00" fill="#000000">DGtal::PointVector</text>
<text text-anchor="start" x="309.7461" y="-16.5" font-family="FreeSans" font-size="10.00" fill="#000000">&lt; dim, TEuclideanRing,</text>
<text text-anchor="middle" x="361.4893" y="-6.5" font-family="FreeSans" font-size="10.00" fill="#000000"> TContainer &gt;</text>
</a>
</g>
</g>
<!-- Node6&#45;&gt;Node2 -->
<g id="edge5" class="edge">
<title>Node6&#45;&gt;Node2</title>
<path fill="none" stroke="#9a32cd" stroke-dasharray="5,2" d="M431.5263,-16.0764C453.9823,-16.0246 478.8858,-17.0687 501.498,-20.5 524.8082,-24.0372 550.1128,-31.5626 570.1141,-38.4272"/>
<polygon fill="#9a32cd" stroke="#9a32cd" points="431.3642,-12.5777 421.398,-16.1727 431.4308,-19.5774 431.3642,-12.5777"/>
<text text-anchor="middle" x="470.3652" y="-22.5" font-family="FreeSans" font-size="10.00" fill="#000000"> zero</text>
</g>
<!-- Node6&#45;&gt;Node2 -->
<g id="edge8" class="edge">
<title>Node6&#45;&gt;Node2</title>
<path fill="none" stroke="#ffa500" stroke-dasharray="5,2" d="M431.491,-29.439C434.1041,-29.7991 436.6915,-30.1538 439.2324,-30.5 479.1481,-35.9382 524.4371,-41.8565 557.9167,-46.1835"/>
<polygon fill="#ffa500" stroke="#ffa500" points="431.713,-25.9364 421.3271,-28.0298 430.7516,-32.8701 431.713,-25.9364"/>
<text text-anchor="middle" x="470.3652" y="-41.5" font-family="FreeSans" font-size="10.00" fill="#000000"> &lt; 2, Integer &gt;</text>
</g>
<!-- Node6&#45;&gt;Node6 -->
<g id="edge7" class="edge">
<title>Node6&#45;&gt;Node6</title>
<path fill="none" stroke="#9a32cd" stroke-dasharray="5,2" d="M342.6891,-48.7834C345.3348,-53.6472 351.6016,-57 361.4893,-57 377.3096,-57 383.8602,-48.4169 381.1411,-38.7945"/>
<polygon fill="#9a32cd" stroke="#9a32cd" points="346.1744,-48.461 341.8375,-38.7945 339.1997,-49.0557 346.1744,-48.461"/>
<text text-anchor="middle" x="361.4893" y="-59" font-family="FreeSans" font-size="10.00" fill="#000000"> zero</text>
</g>
<!-- Node7 -->
<g id="node7" class="node">
<title>Node7</title>
<polygon fill="#ffffff" stroke="#bfbfbf" points="118.1812,-10.5 118.1812,-28.5 183.6489,-28.5 183.6489,-10.5 118.1812,-10.5"/>
<text text-anchor="middle" x="150.915" y="-16.5" font-family="FreeSans" font-size="10.00" fill="#000000">TContainer</text>
</g>
<!-- Node7&#45;&gt;Node6 -->
<g id="edge6" class="edge">
<title>Node7&#45;&gt;Node6</title>
<path fill="none" stroke="#9a32cd" stroke-dasharray="5,2" d="M193.8929,-19.5C224.9637,-19.5 267.3424,-19.5 301.7104,-19.5"/>
<polygon fill="#9a32cd" stroke="#9a32cd" points="193.8173,-16.0001 183.8173,-19.5 193.8172,-23.0001 193.8173,-16.0001"/>
<text text-anchor="middle" x="247.6108" y="-21.5" font-family="FreeSans" font-size="10.00" fill="#000000"> myArray</text>
</g>
<!-- Node8 -->
<g id="node8" class="node">
<title>Node8</title>
<g id="a_node8"><a xlink:href="classDGtal_1_1OneBalancedWordComputer_1_1CodeHandler.html" target="_top" xlink:title="DGtal::OneBalancedWordComputer\l\&lt; TConstIterator, TInteger\l \&gt;::CodeHandler\&lt; ConstIterator \&gt;">
<polygon fill="#ffffff" stroke="#000000" points="808.6563,-101.5 808.6563,-139.5 983.9971,-139.5 983.9971,-101.5 808.6563,-101.5"/>
<text text-anchor="start" x="816.6563" y="-127.5" font-family="FreeSans" font-size="10.00" fill="#000000">DGtal::OneBalancedWordComputer</text>
<text text-anchor="start" x="816.6563" y="-117.5" font-family="FreeSans" font-size="10.00" fill="#000000">&lt; TConstIterator, TInteger</text>
<text text-anchor="middle" x="896.3267" y="-107.5" font-family="FreeSans" font-size="10.00" fill="#000000"> &gt;::CodeHandler&lt; ConstIterator &gt;</text>
</a>
</g>
</g>
<!-- Node8&#45;&gt;Node1 -->
<g id="edge9" class="edge">
<title>Node8&#45;&gt;Node1</title>
<path fill="none" stroke="#9a32cd" stroke-dasharray="5,2" d="M994.2879,-102.7122C1030.5087,-96.1352 1071.0324,-88.7769 1105.1905,-82.5745"/>
<polygon fill="#9a32cd" stroke="#9a32cd" points="993.4086,-99.3145 984.1948,-104.5449 994.6592,-106.2019 993.4086,-99.3145"/>
<text text-anchor="middle" x="1039.5142" y="-103.5" font-family="FreeSans" font-size="10.00" fill="#000000"> myCodeHandler</text>
</g>
<!-- Node9 -->
<g id="node9" class="node">
<title>Node9</title>
<polygon fill="#ffffff" stroke="#bfbfbf" points="309.854,-132.5 309.854,-150.5 413.1245,-150.5 413.1245,-132.5 309.854,-132.5"/>
<text text-anchor="middle" x="361.4893" y="-138.5" font-family="FreeSans" font-size="10.00" fill="#000000">std::vector&lt; Code &gt;</text>
</g>
<!-- Node9&#45;&gt;Node8 -->
<g id="edge10" class="edge">
<title>Node9&#45;&gt;Node8</title>
<path fill="none" stroke="#9a32cd" stroke-dasharray="5,2" d="M423.3792,-133.9651C452.4997,-130.7453 487.7329,-127.3155 519.498,-125.5 618.2957,-119.8533 731.8891,-119.1336 808.3078,-119.4901"/>
<polygon fill="#9a32cd" stroke="#9a32cd" points="422.8961,-130.4973 413.3496,-135.0922 423.6779,-137.4535 422.8961,-130.4973"/>
<text text-anchor="middle" x="607.1685" y="-127.5" font-family="FreeSans" font-size="10.00" fill="#000000"> myCodes</text>
</g>
<!-- Node11 -->
<g id="node11" class="node">
<title>Node11</title>
<g id="a_node11"><a xlink:href="classDGtal_1_1OneBalancedWordComputer_1_1CodeHandler.html" target="_top" xlink:title="DGtal::OneBalancedWordComputer\l\&lt; TConstIterator, TInteger\l \&gt;::CodeHandler\&lt; TIterator,\l iterator_type \&gt;">
<polygon fill="#ffffff" stroke="#000000" points="519.498,-145.5 519.498,-193.5 694.8389,-193.5 694.8389,-145.5 519.498,-145.5"/>
<text text-anchor="start" x="527.498" y="-181.5" font-family="FreeSans" font-size="10.00" fill="#000000">DGtal::OneBalancedWordComputer</text>
<text text-anchor="start" x="527.498" y="-171.5" font-family="FreeSans" font-size="10.00" fill="#000000">&lt; TConstIterator, TInteger</text>
<text text-anchor="start" x="527.498" y="-161.5" font-family="FreeSans" font-size="10.00" fill="#000000"> &gt;::CodeHandler&lt; TIterator,</text>
<text text-anchor="middle" x="607.1685" y="-151.5" font-family="FreeSans" font-size="10.00" fill="#000000"> iterator_type &gt;</text>
</a>
</g>
</g>
<!-- Node9&#45;&gt;Node11 -->
<g id="edge15" class="edge">
<title>Node9&#45;&gt;Node11</title>
<path fill="none" stroke="#9a32cd" stroke-dasharray="5,2" d="M423.2871,-148.5431C452.3093,-151.8507 487.4267,-155.8531 519.1625,-159.47"/>
<polygon fill="#9a32cd" stroke="#9a32cd" points="423.6233,-145.0588 413.2913,-147.4039 422.8306,-152.0138 423.6233,-145.0588"/>
<text text-anchor="middle" x="470.3652" y="-159.5" font-family="FreeSans" font-size="10.00" fill="#000000"> myCodes</text>
</g>
<!-- Node10&#45;&gt;Node9 -->
<g id="edge11" class="edge">
<title>Node10&#45;&gt;Node9</title>
<path fill="none" stroke="#ffa500" stroke-dasharray="5,2" d="M203.7095,-140.7507C236.1035,-140.9046 277.4063,-141.1007 309.6272,-141.2537"/>
<polygon fill="#ffa500" stroke="#ffa500" points="203.5444,-137.25 193.5279,-140.7024 203.5111,-144.2499 203.5444,-137.25"/>
<text text-anchor="middle" x="247.6108" y="-143.5" font-family="FreeSans" font-size="10.00" fill="#000000"> &lt; Code &gt;</text>
</g>
<!-- Node11&#45;&gt;Node8 -->
<g id="edge13" class="edge">
<title>Node11&#45;&gt;Node8</title>
<path fill="none" stroke="#ffa500" stroke-dasharray="5,2" d="M705.3339,-152.8651C738.7108,-147.2092 775.7796,-140.9276 808.3121,-135.4147"/>
<polygon fill="#ffa500" stroke="#ffa500" points="704.3778,-149.4772 695.1032,-154.5988 705.5474,-156.3788 704.3778,-149.4772"/>
<text text-anchor="middle" x="751.7476" y="-153.5" font-family="FreeSans" font-size="10.00" fill="#000000"> &lt; ConstIterator &gt;</text>
</g>
<!-- Node12 -->
<g id="node12" class="node">
<title>Node12</title>
<polygon fill="#ffffff" stroke="#bfbfbf" points="334.5952,-173.5 334.5952,-191.5 388.3833,-191.5 388.3833,-173.5 334.5952,-173.5"/>
<text text-anchor="middle" x="361.4893" y="-179.5" font-family="FreeSans" font-size="10.00" fill="#000000">TIterator</text>
</g>
<!-- Node12&#45;&gt;Node11 -->
<g id="edge14" class="edge">
<title>Node12&#45;&gt;Node11</title>
<path fill="none" stroke="#9a32cd" stroke-dasharray="5,2" d="M398.9388,-180.5184C430.885,-178.828 478.0802,-176.3306 519.4658,-174.1407"/>
<polygon fill="#9a32cd" stroke="#9a32cd" points="398.521,-177.0355 388.7199,-181.0591 398.8909,-184.0257 398.521,-177.0355"/>
<text text-anchor="middle" x="470.3652" y="-179.5" font-family="FreeSans" font-size="10.00" fill="#000000"> myIter</text>
</g>
</g>
</svg>
        <g id="navigator" transform="translate(0 0)" fill="#404254">
                <rect fill="#f2f5e9" fill-opacity="0.5" stroke="#606060" stroke-width=".5" x="0" y="0" width="60" height="60"/>
                <use id="zoomplus" xlink:href="#zoomPlus" x="17" y="9" onmousedown="handleZoom(evt,'in')"/>
                <use id="zoomminus" xlink:href="#zoomMin" x="42" y="9" onmousedown="handleZoom(evt,'out')"/>
                <use id="reset" xlink:href="#resetDef" x="30" y="36" onmousedown="handleReset()"/>
                <g id="arrowUp" xlink:href="#dirArrow" transform="translate(30 24)" onmousedown="handlePan(0,-1)">
                  <use xlink:href="#rim" fill="#404040">
                        <set attributeName="fill" to="#808080" begin="arrowUp.mouseover" end="arrowUp.mouseout"/>
                  </use>
                  <path fill="none" stroke="white" stroke-width="1.5" d="M0,-3.0v7 M-2.5,-0.5L0,-3.0L2.5,-0.5"/>
                </g>
                <g id="arrowRight" xlink:href="#dirArrow" transform="rotate(90) translate(36 -43)" onmousedown="handlePan(1,0)">
                  <use xlink:href="#rim" fill="#404040">
                        <set attributeName="fill" to="#808080" begin="arrowRight.mouseover" end="arrowRight.mouseout"/>
                  </use>
                  <path fill="none" stroke="white" stroke-width="1.5" d="M0,-3.0v7 M-2.5,-0.5L0,-3.0L2.5,-0.5"/>
                </g>
                <g id="arrowDown" xlink:href="#dirArrow" transform="rotate(180) translate(-30 -48)" onmousedown="handlePan(0,1)">
                  <use xlink:href="#rim" fill="#404040">
                        <set attributeName="fill" to="#808080" begin="arrowDown.mouseover" end="arrowDown.mouseout"/>
                  </use>
                  <path fill="none" stroke="white" stroke-width="1.5" d="M0,-3.0v7 M-2.5,-0.5L0,-3.0L2.5,-0.5"/>
                </g>
                <g id="arrowLeft" xlink:href="#dirArrow" transform="rotate(270) translate(-36 17)" onmousedown="handlePan(-1,0)">
                  <use xlink:href="#rim" fill="#404040">
                        <set attributeName="fill" to="#808080" begin="arrowLeft.mouseover" end="arrowLeft.mouseout"/>
                  </use>
                  <path fill="none" stroke="white" stroke-width="1.5" d="M0,-3.0v7 M-2.5,-0.5L0,-3.0L2.5,-0.5"/>
                </g>
        </g>
        <svg viewBox="0 0 15 15" width="100%" height="30px" preserveAspectRatio="xMaxYMin meet">
         <g id="arrow_out" transform="scale(0.3 0.3)">
          <a xlink:href="classDGtal_1_1OneBalancedWordComputer__coll__graph_org.svg" target="_base">
           <rect id="button" ry="5" rx="5" y="6" x="6" height="38" width="38"
                fill="#f2f5e9" fill-opacity="0.5" stroke="#606060" stroke-width="1.0"/>
           <path id="arrow"
             d="M 11.500037,31.436501 C 11.940474,20.09759 22.043105,11.32322 32.158766,21.979434 L 37.068811,17.246167 C 37.068811,17.246167 37.088388,32 37.088388,32 L 22.160133,31.978069 C 22.160133,31.978069 26.997745,27.140456 26.997745,27.140456 C 18.528582,18.264221 13.291696,25.230495 11.500037,31.436501 z"
             style="fill:#404040;"/>
          </a>
         </g>
        </svg>
</svg>
