<?xml version="1.0" encoding="UTF-8" standalone="no"?>
<!DOCTYPE svg PUBLIC "-//W3C//DTD SVG 1.1//EN"
 "http://www.w3.org/Graphics/SVG/1.1/DTD/svg11.dtd">
<!-- Generated by graphviz version 2.36.0 (20140111.2315)
 -->
<!-- Title: DGtal::VCMDigitalSurfaceLocalEstimator&lt; TDigitalSurfaceContainer, TSeparableMetric, TKernelFunction, TVCMGeometricFunctor &gt; Pages: 1 -->
<!--zoomable 98 -->
<svg id="main" version="1.1" xmlns="http://www.w3.org/2000/svg" xmlns:xlink="http://www.w3.org/1999/xlink" xml:space="preserve" onload="init(evt)">
<style type="text/css"><![CDATA[
.edge:hover path { stroke: red; }
.edge:hover polygon { stroke: red; fill: red; }
]]></style>
<script type="text/javascript"><![CDATA[
var edges = document.getElementsByTagName('g');
if (edges && edges.length) {
  for (var i=0;i<edges.length;i++) {
    if (edges[i].id.substr(0,4)=='edge') {
      edges[i].setAttribute('class','edge');
    }
  }
}
]]></script>
        <defs>
                <circle id="rim" cx="0" cy="0" r="7"/>
                <circle id="rim2" cx="0" cy="0" r="3.5"/>
                <g id="zoomPlus">
                        <use xlink:href="#rim" fill="#404040">
                                <set attributeName="fill" to="#808080" begin="zoomplus.mouseover" end="zoomplus.mouseout"/>
                        </use>
                        <path d="M-4,0h8M0,-4v8" fill="none" stroke="white" stroke-width="1.5" pointer-events="none"/>
                </g>
                <g id="zoomMin">
                        <use xlink:href="#rim" fill="#404040">
                                <set attributeName="fill" to="#808080" begin="zoomminus.mouseover" end="zoomminus.mouseout"/>
                        </use>
                        <path d="M-4,0h8" fill="none" stroke="white" stroke-width="1.5" pointer-events="none"/>
                </g>
                <g id="dirArrow">
                        <path fill="none" stroke="white" stroke-width="1.5" d="M0,-3.0v7 M-2.5,-0.5L0,-3.0L2.5,-0.5"/>
                </g>
               <g id="resetDef">
                       <use xlink:href="#rim2" fill="#404040">
                               <set attributeName="fill" to="#808080" begin="reset.mouseover" end="reset.mouseout"/>
                       </use>
               </g>
        </defs>

<script type="text/javascript">
var viewWidth = 870;
var viewHeight = 98;
var sectionId = 'dynsection-0';
</script>
<script xlink:href="svgpan.js"/>
<svg id="graph" class="graph">
<g id="viewport">
<title>DGtal::VCMDigitalSurfaceLocalEstimator&lt; TDigitalSurfaceContainer, TSeparableMetric, TKernelFunction, TVCMGeometricFunctor &gt;</title>
<polygon fill="white" stroke="none" points="-4,4 -4,-94 866,-94 866,4 -4,4"/>
<!-- Node1 -->
<g id="node1" class="node"><title>Node1</title>
<polygon fill="#bfbfbf" stroke="black" points="638,-16 638,-68 862,-68 862,-16 638,-16"/>
<text text-anchor="start" x="646" y="-56" font-family="FreeSans" font-size="10.00">DGtal::VCMDigitalSurface</text>
<text text-anchor="start" x="646" y="-45" font-family="FreeSans" font-size="10.00">LocalEstimator&lt; TDigitalSurface</text>
<text text-anchor="start" x="646" y="-34" font-family="FreeSans" font-size="10.00">Container, TSeparableMetric,</text>
<text text-anchor="middle" x="750" y="-23" font-family="FreeSans" font-size="10.00"> TKernelFunction, TVCMGeometricFunctor &gt;</text>
</g>
<!-- Node2 -->
<g id="node2" class="node"><title>Node2</title>
<g id="a_node2"><a xlink:href="classDGtal_1_1CountedConstPtrOrConstPtr.html" target="_top" xlink:title="DGtal::CountedConstPtrOr\lConstPtr\&lt; DGtal::VoronoiCovariance\lMeasureOnDigitalSurface \&gt;">
<polygon fill="white" stroke="black" points="318.5,-48.5 318.5,-89.5 509.5,-89.5 509.5,-48.5 318.5,-48.5"/>
<text text-anchor="start" x="326.5" y="-77.5" font-family="FreeSans" font-size="10.00">DGtal::CountedConstPtrOr</text>
<text text-anchor="start" x="326.5" y="-66.5" font-family="FreeSans" font-size="10.00">ConstPtr&lt; DGtal::VoronoiCovariance</text>
<text text-anchor="middle" x="414" y="-55.5" font-family="FreeSans" font-size="10.00">MeasureOnDigitalSurface &gt;</text>
</a>
</g>
</g>
<!-- Node2&#45;&gt;Node1 -->
<g id="edge1" class="edge"><title>Node2&#45;&gt;Node1</title>
<path fill="none" stroke="#9a32cd" stroke-dasharray="5,2" d="M520.253,-60.4915C557.734,-57.4616 600.045,-54.0413 637.993,-50.9736"/>
<polygon fill="#9a32cd" stroke="#9a32cd" points="519.503,-57.0406 509.818,-61.3351 520.067,-64.0179 519.503,-57.0406"/>
<text text-anchor="middle" x="574" y="-62" font-family="FreeSans" font-size="10.00"> myVCMOnSurface</text>
</g>
<!-- Node3 -->
<g id="node3" class="node"><title>Node3</title>
<g id="a_node3"><a xlink:href="classDGtal_1_1CountedConstPtrOrConstPtr.html" target="_top" xlink:title="Aim: Smart or simple const pointer on T. It can be a smart pointer based on reference counts or a sim...">
<polygon fill="white" stroke="black" points="0.5,-29 0.5,-59 143.5,-59 143.5,-29 0.5,-29"/>
<text text-anchor="start" x="8.5" y="-47" font-family="FreeSans" font-size="10.00">DGtal::CountedConstPtrOr</text>
<text text-anchor="middle" x="72" y="-36" font-family="FreeSans" font-size="10.00">ConstPtr&lt; T &gt;</text>
</a>
</g>
</g>
<!-- Node3&#45;&gt;Node2 -->
<g id="edge2" class="edge"><title>Node3&#45;&gt;Node2</title>
<path fill="none" stroke="orange" stroke-dasharray="5,2" d="M153.861,-49.9457C203.251,-53.5773 266.638,-58.2381 318.358,-62.041"/>
<polygon fill="orange" stroke="orange" points="154.091,-46.4532 143.861,-49.2104 153.578,-53.4344 154.091,-46.4532"/>
<text text-anchor="start" x="162.5" y="-74" font-family="FreeSans" font-size="10.00"> &lt; DGtal::VoronoiCovariance</text>
<text text-anchor="middle" x="231" y="-63" font-family="FreeSans" font-size="10.00">MeasureOnDigitalSurface &gt;</text>
</g>
<!-- Node4 -->
<g id="node4" class="node"><title>Node4</title>
<g id="a_node4"><a xlink:href="classDGtal_1_1CountedConstPtrOrConstPtr.html" target="_top" xlink:title="DGtal::CountedConstPtrOr\lConstPtr\&lt; DGtal::DigitalSurface \&gt;">
<polygon fill="white" stroke="black" points="324,-0 324,-30 504,-30 504,-0 324,-0"/>
<text text-anchor="start" x="332" y="-18" font-family="FreeSans" font-size="10.00">DGtal::CountedConstPtrOr</text>
<text text-anchor="middle" x="414" y="-7" font-family="FreeSans" font-size="10.00">ConstPtr&lt; DGtal::DigitalSurface &gt;</text>
</a>
</g>
</g>
<!-- Node3&#45;&gt;Node4 -->
<g id="edge4" class="edge"><title>Node3&#45;&gt;Node4</title>
<path fill="none" stroke="orange" stroke-dasharray="5,2" d="M153.895,-35.745C156.629,-35.4898 159.337,-35.2407 162,-35 215.659,-30.1496 275.83,-25.3338 323.804,-21.6436"/>
<polygon fill="orange" stroke="orange" points="153.538,-32.2631 143.913,-36.6918 154.199,-39.2318 153.538,-32.2631"/>
<text text-anchor="middle" x="231" y="-38" font-family="FreeSans" font-size="10.00"> &lt; DGtal::DigitalSurface &gt;</text>
</g>
<!-- Node4&#45;&gt;Node1 -->
<g id="edge3" class="edge"><title>Node4&#45;&gt;Node1</title>
<path fill="none" stroke="#9a32cd" stroke-dasharray="5,2" d="M514.329,-23.0296C553.161,-26.1687 597.868,-29.7827 637.774,-33.0087"/>
<polygon fill="#9a32cd" stroke="#9a32cd" points="514.317,-19.5173 504.067,-22.2 513.753,-26.4945 514.317,-19.5173"/>
<text text-anchor="middle" x="574" y="-33" font-family="FreeSans" font-size="10.00"> mySurface</text>
</g>
</g>
</svg>
        <g id="navigator" transform="translate(0 0)" fill="#404254">
                <rect fill="#f2f5e9" fill-opacity="0.5" stroke="#606060" stroke-width=".5" x="0" y="0" width="60" height="60"/>
                <use id="zoomplus" xlink:href="#zoomPlus" x="17" y="9" onmousedown="handleZoom(evt,'in')"/>
                <use id="zoomminus" xlink:href="#zoomMin" x="42" y="9" onmousedown="handleZoom(evt,'out')"/>
                <use id="reset" xlink:href="#resetDef" x="30" y="36" onmousedown="handleReset()"/>
                <g id="arrowUp" xlink:href="#dirArrow" transform="translate(30 24)" onmousedown="handlePan(0,-1)">
                  <use xlink:href="#rim" fill="#404040">
                        <set attributeName="fill" to="#808080" begin="arrowUp.mouseover" end="arrowUp.mouseout"/>
                  </use>
                  <path fill="none" stroke="white" stroke-width="1.5" d="M0,-3.0v7 M-2.5,-0.5L0,-3.0L2.5,-0.5"/>
                </g>
                <g id="arrowRight" xlink:href="#dirArrow" transform="rotate(90) translate(36 -43)" onmousedown="handlePan(1,0)">
                  <use xlink:href="#rim" fill="#404040">
                        <set attributeName="fill" to="#808080" begin="arrowRight.mouseover" end="arrowRight.mouseout"/>
                  </use>
                  <path fill="none" stroke="white" stroke-width="1.5" d="M0,-3.0v7 M-2.5,-0.5L0,-3.0L2.5,-0.5"/>
                </g>
                <g id="arrowDown" xlink:href="#dirArrow" transform="rotate(180) translate(-30 -48)" onmousedown="handlePan(0,1)">
                  <use xlink:href="#rim" fill="#404040">
                        <set attributeName="fill" to="#808080" begin="arrowDown.mouseover" end="arrowDown.mouseout"/>
                  </use>
                  <path fill="none" stroke="white" stroke-width="1.5" d="M0,-3.0v7 M-2.5,-0.5L0,-3.0L2.5,-0.5"/>
                </g>
                <g id="arrowLeft" xlink:href="#dirArrow" transform="rotate(270) translate(-36 17)" onmousedown="handlePan(-1,0)">
                  <use xlink:href="#rim" fill="#404040">
                        <set attributeName="fill" to="#808080" begin="arrowLeft.mouseover" end="arrowLeft.mouseout"/>
                  </use>
                  <path fill="none" stroke="white" stroke-width="1.5" d="M0,-3.0v7 M-2.5,-0.5L0,-3.0L2.5,-0.5"/>
                </g>
        </g>
        <svg viewBox="0 0 15 15" width="100%" height="30px" preserveAspectRatio="xMaxYMin meet">
         <g id="arrow_out" transform="scale(0.3 0.3)">
          <a xlink:href="classDGtal_1_1VCMDigitalSurfaceLocalEstimator__coll__graph_org.svg" target="_base">
           <rect id="button" ry="5" rx="5" y="6" x="6" height="38" width="38"
                fill="#f2f5e9" fill-opacity="0.5" stroke="#606060" stroke-width="1.0"/>
           <path id="arrow"
             d="M 11.500037,31.436501 C 11.940474,20.09759 22.043105,11.32322 32.158766,21.979434 L 37.068811,17.246167 C 37.068811,17.246167 37.088388,32 37.088388,32 L 22.160133,31.978069 C 22.160133,31.978069 26.997745,27.140456 26.997745,27.140456 C 18.528582,18.264221 13.291696,25.230495 11.500037,31.436501 z"
             style="fill:#404040;"/>
          </a>
         </g>
        </svg>
</svg>
