<?xml version="1.0" encoding="UTF-8" standalone="no"?>
<!DOCTYPE svg PUBLIC "-//W3C//DTD SVG 1.1//EN"
 "http://www.w3.org/Graphics/SVG/1.1/DTD/svg11.dtd">
<!-- Generated by graphviz version 2.40.1 (20161225.0304)
 -->
<!-- Title: DGtal::MelkmanConvexHull&lt; TPoint, TOrientationFunctor &gt; Pages: 1 -->
<svg width="238pt" height="132pt"
 viewBox="0.00 0.00 238.47 132.00" xmlns="http://www.w3.org/2000/svg" xmlns:xlink="http://www.w3.org/1999/xlink">
<g id="graph0" class="graph" transform="scale(1 1) rotate(0) translate(4 128)">
<title>DGtal::MelkmanConvexHull&lt; TPoint, TOrientationFunctor &gt;</title>
<polygon fill="#ffffff" stroke="transparent" points="-4,4 -4,-128 234.4683,-128 234.4683,4 -4,4"/>
<!-- Node0 -->
<g id="node1" class="node">
<title>Node0</title>
<polygon fill="#bfbfbf" stroke="#000000" points=".9668,-95.5 .9668,-123.5 157.0596,-123.5 157.0596,-95.5 .9668,-95.5"/>
<text text-anchor="start" x="8.9668" y="-111.5" font-family="FreeSans" font-size="10.00" fill="#000000">DGtal::MelkmanConvexHull</text>
<text text-anchor="middle" x="79.0132" y="-101.5" font-family="FreeSans" font-size="10.00" fill="#000000">&lt; TPoint, TOrientationFunctor &gt;</text>
</g>
<!-- Node1 -->
<g id="node2" class="node">
<title>Node1</title>
<g id="a_node2"><a xlink:href="classDGtal_1_1MelkmanConvexHull.html" target="_top" xlink:title="DGtal::MelkmanConvexHull\l\&lt; InputPoint, DGtal::InHalfPlane\lBySimple3x3Matrix \&gt;">
<polygon fill="#ffffff" stroke="#000000" points="0,-.5 0,-38.5 158.0264,-38.5 158.0264,-.5 0,-.5"/>
<text text-anchor="start" x="8" y="-26.5" font-family="FreeSans" font-size="10.00" fill="#000000">DGtal::MelkmanConvexHull</text>
<text text-anchor="start" x="8" y="-16.5" font-family="FreeSans" font-size="10.00" fill="#000000">&lt; InputPoint, DGtal::InHalfPlane</text>
<text text-anchor="middle" x="79.0132" y="-6.5" font-family="FreeSans" font-size="10.00" fill="#000000">BySimple3x3Matrix &gt;</text>
</a>
</g>
</g>
<!-- Node0&#45;&gt;Node1 -->
<g id="edge1" class="edge">
<title>Node0&#45;&gt;Node1</title>
<path fill="none" stroke="#ffa500" stroke-dasharray="5,2" d="M79.0132,-85.1632C79.0132,-70.6073 79.0132,-52.367 79.0132,-38.8073"/>
<polygon fill="#ffa500" stroke="#ffa500" points="75.5133,-85.4375 79.0132,-95.4375 82.5133,-85.4375 75.5133,-85.4375"/>
<text text-anchor="start" x="79.0132" y="-69" font-family="FreeSans" font-size="10.00" fill="#000000"> &lt; InputPoint, DGtal</text>
<text text-anchor="middle" x="154.7407" y="-59" font-family="FreeSans" font-size="10.00" fill="#000000">::InHalfPlaneBySimple3x3Matrix &gt;</text>
</g>
</g>
</svg>
