<?xml version="1.0" encoding="UTF-8" standalone="no"?>
<!DOCTYPE svg PUBLIC "-//W3C//DTD SVG 1.1//EN"
 "http://www.w3.org/Graphics/SVG/1.1/DTD/svg11.dtd">
<!-- Generated by graphviz version 2.40.1 (20161225.0304)
 -->
<!-- Title: DGtal::ImageContainerBySTLVector&lt; TDomain, TValue &gt; Pages: 1 -->
<svg width="535pt" height="150pt"
 viewBox="0.00 0.00 534.77 149.50" xmlns="http://www.w3.org/2000/svg" xmlns:xlink="http://www.w3.org/1999/xlink">
<g id="graph0" class="graph" transform="scale(1 1) rotate(0) translate(4 145.5)">
<title>DGtal::ImageContainerBySTLVector&lt; TDomain, TValue &gt;</title>
<polygon fill="#ffffff" stroke="transparent" points="-4,4 -4,-145.5 530.7725,-145.5 530.7725,4 -4,4"/>
<!-- Node4 -->
<g id="node1" class="node">
<title>Node4</title>
<polygon fill="#bfbfbf" stroke="#000000" points="350.875,-80.5 350.875,-108.5 526.7725,-108.5 526.7725,-80.5 350.875,-80.5"/>
<text text-anchor="start" x="358.875" y="-96.5" font-family="FreeSans" font-size="10.00" fill="#000000">DGtal::ImageContainerBySTLVector</text>
<text text-anchor="middle" x="438.8237" y="-86.5" font-family="FreeSans" font-size="10.00" fill="#000000">&lt; TDomain, TValue &gt;</text>
</g>
<!-- Node5 -->
<g id="node2" class="node">
<title>Node5</title>
<g id="a_node2"><a xlink:title="STL class. ">
<polygon fill="#ffffff" stroke="#bfbfbf" points="149.4976,-122.5 149.4976,-140.5 259.6333,-140.5 259.6333,-122.5 149.4976,-122.5"/>
<text text-anchor="middle" x="204.5654" y="-128.5" font-family="FreeSans" font-size="10.00" fill="#000000">std::vector&lt; TValue &gt;</text>
</a>
</g>
</g>
<!-- Node5&#45;&gt;Node4 -->
<g id="edge1" class="edge">
<title>Node5&#45;&gt;Node4</title>
<path fill="none" stroke="#191970" d="M269.8689,-121.1856C294.8472,-117.2404 323.7641,-112.6731 350.5372,-108.4444"/>
<polygon fill="#191970" stroke="#191970" points="269.1162,-117.761 259.7847,-122.7784 270.2084,-124.6753 269.1162,-117.761"/>
</g>
<!-- Node6 -->
<g id="node3" class="node">
<title>Node6</title>
<polygon fill="#ffffff" stroke="#bfbfbf" points="18.2339,-122.5 18.2339,-140.5 47.2339,-140.5 47.2339,-122.5 18.2339,-122.5"/>
<text text-anchor="middle" x="32.7339" y="-128.5" font-family="FreeSans" font-size="10.00" fill="#000000">T</text>
</g>
<!-- Node6&#45;&gt;Node5 -->
<g id="edge2" class="edge">
<title>Node6&#45;&gt;Node5</title>
<path fill="none" stroke="#9a32cd" stroke-dasharray="5,2" d="M57.7028,-131.5C81.6418,-131.5 118.5948,-131.5 149.4434,-131.5"/>
<polygon fill="#9a32cd" stroke="#9a32cd" points="57.3842,-128.0001 47.3841,-131.5 57.3841,-135.0001 57.3842,-128.0001"/>
<text text-anchor="middle" x="105.145" y="-133.5" font-family="FreeSans" font-size="10.00" fill="#000000"> elements</text>
</g>
<!-- Node7 -->
<g id="node4" class="node">
<title>Node7</title>
<polygon fill="#ffffff" stroke="#bfbfbf" points="176.2822,-85.5 176.2822,-103.5 232.8486,-103.5 232.8486,-85.5 176.2822,-85.5"/>
<text text-anchor="middle" x="204.5654" y="-91.5" font-family="FreeSans" font-size="10.00" fill="#000000">TDomain</text>
</g>
<!-- Node7&#45;&gt;Node4 -->
<g id="edge3" class="edge">
<title>Node7&#45;&gt;Node4</title>
<path fill="none" stroke="#9a32cd" stroke-dasharray="5,2" d="M243.4705,-94.5C272.6488,-94.5 313.7566,-94.5 350.7405,-94.5"/>
<polygon fill="#9a32cd" stroke="#9a32cd" points="243.2901,-91.0001 233.2901,-94.5 243.2901,-98.0001 243.2901,-91.0001"/>
<text text-anchor="middle" x="307.5918" y="-96.5" font-family="FreeSans" font-size="10.00" fill="#000000"> myDomain</text>
</g>
<!-- Node8 -->
<g id="node5" class="node">
<title>Node8</title>
<g id="a_node5"><a xlink:href="classDGtal_1_1PointVector.html" target="_top" xlink:title="Aim: Implements basic operations that will be used in Point and Vector classes. ">
<polygon fill="#ffffff" stroke="#000000" points="144.8223,-.5 144.8223,-38.5 264.3086,-38.5 264.3086,-.5 144.8223,-.5"/>
<text text-anchor="start" x="152.8223" y="-26.5" font-family="FreeSans" font-size="10.00" fill="#000000">DGtal::PointVector</text>
<text text-anchor="start" x="152.8223" y="-16.5" font-family="FreeSans" font-size="10.00" fill="#000000">&lt; dim, TEuclideanRing,</text>
<text text-anchor="middle" x="204.5654" y="-6.5" font-family="FreeSans" font-size="10.00" fill="#000000"> TContainer &gt;</text>
</a>
</g>
</g>
<!-- Node8&#45;&gt;Node4 -->
<g id="edge4" class="edge">
<title>Node8&#45;&gt;Node4</title>
<path fill="none" stroke="#9a32cd" stroke-dasharray="5,2" d="M273.7585,-41.6528C313.0038,-54.2176 360.9261,-69.5603 395.0036,-80.4706"/>
<polygon fill="#9a32cd" stroke="#9a32cd" points="274.5725,-38.2385 263.9815,-38.5226 272.4381,-44.9052 274.5725,-38.2385"/>
<text text-anchor="middle" x="307.5918" y="-60.5" font-family="FreeSans" font-size="10.00" fill="#000000"> myExtent</text>
</g>
<!-- Node8&#45;&gt;Node8 -->
<g id="edge6" class="edge">
<title>Node8&#45;&gt;Node8</title>
<path fill="none" stroke="#9a32cd" stroke-dasharray="5,2" d="M187.506,-48.7834C189.9068,-53.6472 195.5933,-57 204.5654,-57 218.9209,-57 224.865,-48.4169 222.3976,-38.7945"/>
<polygon fill="#9a32cd" stroke="#9a32cd" points="190.9943,-48.4947 186.7332,-38.7945 184.0151,-49.0347 190.9943,-48.4947"/>
<text text-anchor="middle" x="204.5654" y="-59" font-family="FreeSans" font-size="10.00" fill="#000000"> zero</text>
</g>
<!-- Node9 -->
<g id="node6" class="node">
<title>Node9</title>
<polygon fill="#ffffff" stroke="#bfbfbf" points="0,-10.5 0,-28.5 65.4678,-28.5 65.4678,-10.5 0,-10.5"/>
<text text-anchor="middle" x="32.7339" y="-16.5" font-family="FreeSans" font-size="10.00" fill="#000000">TContainer</text>
</g>
<!-- Node9&#45;&gt;Node8 -->
<g id="edge5" class="edge">
<title>Node9&#45;&gt;Node8</title>
<path fill="none" stroke="#9a32cd" stroke-dasharray="5,2" d="M76.0006,-19.5C96.8229,-19.5 122.1231,-19.5 144.7535,-19.5"/>
<polygon fill="#9a32cd" stroke="#9a32cd" points="75.8648,-16.0001 65.8647,-19.5 75.8647,-23.0001 75.8648,-16.0001"/>
<text text-anchor="middle" x="105.145" y="-21.5" font-family="FreeSans" font-size="10.00" fill="#000000"> myArray</text>
</g>
</g>
</svg>
