<?xml version="1.0" encoding="UTF-8" standalone="no"?>
<!DOCTYPE svg PUBLIC "-//W3C//DTD SVG 1.1//EN"
 "http://www.w3.org/Graphics/SVG/1.1/DTD/svg11.dtd">
<!-- Generated by graphviz version 2.36.0 (20140111.2315)
 -->
<!-- Title: DGtal::detail::PosDepScaleIndepSCEstimator&lt; TSegmentComputer, Functor, ReturnType &gt; Pages: 1 -->
<svg width="796pt" height="110pt"
 viewBox="0.00 0.00 796.00 110.00" xmlns="http://www.w3.org/2000/svg" xmlns:xlink="http://www.w3.org/1999/xlink">
<g id="graph0" class="graph" transform="scale(1 1) rotate(0) translate(4 106)">
<title>DGtal::detail::PosDepScaleIndepSCEstimator&lt; TSegmentComputer, Functor, ReturnType &gt;</title>
<polygon fill="white" stroke="none" points="-4,4 -4,-106 792,-106 792,4 -4,4"/>
<!-- Node1 -->
<g id="node1" class="node"><title>Node1</title>
<polygon fill="#bfbfbf" stroke="black" points="0.5,-31.5 0.5,-72.5 215.5,-72.5 215.5,-31.5 0.5,-31.5"/>
<text text-anchor="start" x="8.5" y="-60.5" font-family="FreeSans" font-size="10.00">DGtal::detail::PosDepScale</text>
<text text-anchor="start" x="8.5" y="-49.5" font-family="FreeSans" font-size="10.00">IndepSCEstimator&lt; TSegmentComputer,</text>
<text text-anchor="middle" x="108" y="-38.5" font-family="FreeSans" font-size="10.00"> Functor, ReturnType &gt;</text>
</g>
<!-- Node2 -->
<g id="node2" class="node"><title>Node2</title>
<g id="a_node2"><a xlink:href="classDGtal_1_1detail_1_1PosDepScaleIndepSCEstimator.html" target="_top" xlink:title="DGtal::detail::PosDepScale\lIndepSCEstimator\&lt; DCAComputer,\l detail::NormalVectorFromDCA \&gt;">
<polygon fill="white" stroke="black" points="384,-60.5 384,-101.5 570,-101.5 570,-60.5 384,-60.5"/>
<text text-anchor="start" x="392" y="-89.5" font-family="FreeSans" font-size="10.00">DGtal::detail::PosDepScale</text>
<text text-anchor="start" x="392" y="-78.5" font-family="FreeSans" font-size="10.00">IndepSCEstimator&lt; DCAComputer,</text>
<text text-anchor="middle" x="477" y="-67.5" font-family="FreeSans" font-size="10.00"> detail::NormalVectorFromDCA &gt;</text>
</a>
</g>
</g>
<!-- Node1&#45;&gt;Node2 -->
<g id="edge1" class="edge"><title>Node1&#45;&gt;Node2</title>
<path fill="none" stroke="orange" stroke-dasharray="5,2" d="M225.742,-61.2249C276.791,-65.2587 335.821,-69.9232 383.726,-73.7086"/>
<polygon fill="orange" stroke="orange" points="225.889,-57.7257 215.645,-60.427 225.338,-64.7039 225.889,-57.7257"/>
<text text-anchor="start" x="235.5" y="-85" font-family="FreeSans" font-size="10.00"> &lt; DCAComputer, detail</text>
<text text-anchor="middle" x="300" y="-74" font-family="FreeSans" font-size="10.00">::NormalVectorFromDCA &gt;</text>
</g>
<!-- Node4 -->
<g id="node4" class="node"><title>Node4</title>
<g id="a_node4"><a xlink:href="classDGtal_1_1detail_1_1PosDepScaleIndepSCEstimator.html" target="_top" xlink:title="DGtal::detail::PosDepScale\lIndepSCEstimator\&lt; DCAComputer,\l detail::TangentVectorFromDCA \&gt;">
<polygon fill="white" stroke="black" points="384,-0.5 384,-41.5 570,-41.5 570,-0.5 384,-0.5"/>
<text text-anchor="start" x="392" y="-29.5" font-family="FreeSans" font-size="10.00">DGtal::detail::PosDepScale</text>
<text text-anchor="start" x="392" y="-18.5" font-family="FreeSans" font-size="10.00">IndepSCEstimator&lt; DCAComputer,</text>
<text text-anchor="middle" x="477" y="-7.5" font-family="FreeSans" font-size="10.00"> detail::TangentVectorFromDCA &gt;</text>
</a>
</g>
</g>
<!-- Node1&#45;&gt;Node4 -->
<g id="edge3" class="edge"><title>Node1&#45;&gt;Node4</title>
<path fill="none" stroke="orange" stroke-dasharray="5,2" d="M225.777,-37.7878C228.544,-37.5154 231.288,-37.2522 234,-37 283.471,-32.3996 338.752,-28.6408 383.976,-25.9251"/>
<polygon fill="orange" stroke="orange" points="225.274,-34.3209 215.678,-38.8123 225.98,-41.2851 225.274,-34.3209"/>
<text text-anchor="start" x="234.5" y="-51" font-family="FreeSans" font-size="10.00"> &lt; DCAComputer, detail</text>
<text text-anchor="middle" x="300" y="-40" font-family="FreeSans" font-size="10.00">::TangentVectorFromDCA &gt;</text>
</g>
<!-- Node3 -->
<g id="node3" class="node"><title>Node3</title>
<g id="a_node3"><a xlink:href="classDGtal_1_1NormalFromDCAEstimator.html" target="_top" xlink:title="DGtal::NormalFromDCAEstimator\l\&lt; DCAComputer \&gt;">
<polygon fill="white" stroke="black" points="610,-66 610,-96 786,-96 786,-66 610,-66"/>
<text text-anchor="start" x="618" y="-84" font-family="FreeSans" font-size="10.00">DGtal::NormalFromDCAEstimator</text>
<text text-anchor="middle" x="698" y="-73" font-family="FreeSans" font-size="10.00">&lt; DCAComputer &gt;</text>
</a>
</g>
</g>
<!-- Node2&#45;&gt;Node3 -->
<g id="edge2" class="edge"><title>Node2&#45;&gt;Node3</title>
<path fill="none" stroke="midnightblue" d="M580.421,-81C590.229,-81 600.113,-81 609.757,-81"/>
<polygon fill="midnightblue" stroke="midnightblue" points="580.241,-77.5001 570.241,-81 580.241,-84.5001 580.241,-77.5001"/>
</g>
<!-- Node5 -->
<g id="node5" class="node"><title>Node5</title>
<g id="a_node5"><a xlink:href="classDGtal_1_1TangentFromDCAEstimator.html" target="_top" xlink:title="DGtal::TangentFromDCAEstimator\l\&lt; DCAComputer \&gt;">
<polygon fill="white" stroke="black" points="608.5,-6 608.5,-36 787.5,-36 787.5,-6 608.5,-6"/>
<text text-anchor="start" x="616.5" y="-24" font-family="FreeSans" font-size="10.00">DGtal::TangentFromDCAEstimator</text>
<text text-anchor="middle" x="698" y="-13" font-family="FreeSans" font-size="10.00">&lt; DCAComputer &gt;</text>
</a>
</g>
</g>
<!-- Node4&#45;&gt;Node5 -->
<g id="edge4" class="edge"><title>Node4&#45;&gt;Node5</title>
<path fill="none" stroke="midnightblue" d="M580.355,-21C589.713,-21 599.141,-21 608.363,-21"/>
<polygon fill="midnightblue" stroke="midnightblue" points="580.241,-17.5001 570.241,-21 580.241,-24.5001 580.241,-17.5001"/>
</g>
</g>
</svg>
