<?xml version="1.0" encoding="UTF-8" standalone="no"?>
<!DOCTYPE svg PUBLIC "-//W3C//DTD SVG 1.1//EN"
 "http://www.w3.org/Graphics/SVG/1.1/DTD/svg11.dtd">
<!-- Generated by graphviz version 2.36.0 (20140111.2315)
 -->
<!-- Title: DGtal::functors::SCellToOuterPoint&lt; KSpace &gt; Pages: 1 -->
<!--zoomable 217 -->
<svg id="main" version="1.1" xmlns="http://www.w3.org/2000/svg" xmlns:xlink="http://www.w3.org/1999/xlink" xml:space="preserve" onload="init(evt)">
<style type="text/css"><![CDATA[
.edge:hover path { stroke: red; }
.edge:hover polygon { stroke: red; fill: red; }
]]></style>
<script type="text/javascript"><![CDATA[
var edges = document.getElementsByTagName('g');
if (edges && edges.length) {
  for (var i=0;i<edges.length;i++) {
    if (edges[i].id.substr(0,4)=='edge') {
      edges[i].setAttribute('class','edge');
    }
  }
}
]]></script>
        <defs>
                <circle id="rim" cx="0" cy="0" r="7"/>
                <circle id="rim2" cx="0" cy="0" r="3.5"/>
                <g id="zoomPlus">
                        <use xlink:href="#rim" fill="#404040">
                                <set attributeName="fill" to="#808080" begin="zoomplus.mouseover" end="zoomplus.mouseout"/>
                        </use>
                        <path d="M-4,0h8M0,-4v8" fill="none" stroke="white" stroke-width="1.5" pointer-events="none"/>
                </g>
                <g id="zoomMin">
                        <use xlink:href="#rim" fill="#404040">
                                <set attributeName="fill" to="#808080" begin="zoomminus.mouseover" end="zoomminus.mouseout"/>
                        </use>
                        <path d="M-4,0h8" fill="none" stroke="white" stroke-width="1.5" pointer-events="none"/>
                </g>
                <g id="dirArrow">
                        <path fill="none" stroke="white" stroke-width="1.5" d="M0,-3.0v7 M-2.5,-0.5L0,-3.0L2.5,-0.5"/>
                </g>
               <g id="resetDef">
                       <use xlink:href="#rim2" fill="#404040">
                               <set attributeName="fill" to="#808080" begin="reset.mouseover" end="reset.mouseout"/>
                       </use>
               </g>
        </defs>

<script type="text/javascript">
var viewWidth = 2244;
var viewHeight = 217;
var sectionId = 'dynsection-0';
</script>
<script xlink:href="svgpan.js"/>
<svg id="graph" class="graph">
<g id="viewport">
<title>DGtal::functors::SCellToOuterPoint&lt; KSpace &gt;</title>
<polygon fill="white" stroke="none" points="-4,4 -4,-213 2240,-213 2240,4 -4,4"/>
<!-- Node1 -->
<g id="node1" class="node"><title>Node1</title>
<polygon fill="#bfbfbf" stroke="black" points="2108,-58 2108,-88 2236,-88 2236,-58 2108,-58"/>
<text text-anchor="start" x="2116" y="-76" font-family="FreeSans" font-size="10.00">DGtal::functors::SCellTo</text>
<text text-anchor="middle" x="2172" y="-65" font-family="FreeSans" font-size="10.00">OuterPoint&lt; KSpace &gt;</text>
</g>
<!-- Node2 -->
<g id="node2" class="node"><title>Node2</title>
<g id="a_node2"><a xlink:href="classDGtal_1_1KhalimskySpaceND.html" target="_top" xlink:title="Aim: This class is a model of CCellularGridSpaceND. It represents the cubical grid as a cell complex...">
<polygon fill="white" stroke="black" points="1902.5,-58 1902.5,-88 2045.5,-88 2045.5,-58 1902.5,-58"/>
<text text-anchor="start" x="1910.5" y="-76" font-family="FreeSans" font-size="10.00">DGtal::KhalimskySpaceND</text>
<text text-anchor="middle" x="1974" y="-65" font-family="FreeSans" font-size="10.00">&lt; dim, TInteger &gt;</text>
</a>
</g>
</g>
<!-- Node2&#45;&gt;Node1 -->
<g id="edge1" class="edge"><title>Node2&#45;&gt;Node1</title>
<path fill="none" stroke="#9a32cd" stroke-dasharray="5,2" d="M2055.86,-73C2073.2,-73 2091.27,-73 2107.82,-73"/>
<polygon fill="#9a32cd" stroke="#9a32cd" points="2055.76,-69.5001 2045.76,-73 2055.76,-76.5001 2055.76,-69.5001"/>
<text text-anchor="middle" x="2077" y="-76" font-family="FreeSans" font-size="10.00"> myK</text>
</g>
<!-- Node3 -->
<g id="node3" class="node"><title>Node3</title>
<g id="a_node3"><a xlink:href="classDGtal_1_1KhalimskySpaceNDHelper.html" target="_top" xlink:title="DGtal::KhalimskySpaceNDHelper\l\&lt; KhalimskySpaceND\&lt; dim,\l TInteger \&gt; \&gt;">
<polygon fill="white" stroke="black" points="1626,-153.5 1626,-194.5 1800,-194.5 1800,-153.5 1626,-153.5"/>
<text text-anchor="start" x="1634" y="-182.5" font-family="FreeSans" font-size="10.00">DGtal::KhalimskySpaceNDHelper</text>
<text text-anchor="start" x="1634" y="-171.5" font-family="FreeSans" font-size="10.00">&lt; KhalimskySpaceND&lt; dim,</text>
<text text-anchor="middle" x="1713" y="-160.5" font-family="FreeSans" font-size="10.00"> TInteger &gt; &gt;</text>
</a>
</g>
</g>
<!-- Node3&#45;&gt;Node2 -->
<g id="edge2" class="edge"><title>Node3&#45;&gt;Node2</title>
<path fill="none" stroke="#8b1a1a" d="M1787.96,-150.25C1818.03,-140.098 1852.94,-127.676 1884,-115 1904.09,-106.801 1926.15,-96.4003 1943.28,-88.0003"/>
<polygon fill="#8b1a1a" stroke="#8b1a1a" points="1786.74,-146.965 1778.38,-153.463 1788.97,-153.602 1786.74,-146.965"/>
</g>
<!-- Node4 -->
<g id="node4" class="node"><title>Node4</title>
<g id="a_node4"><a xlink:href="classDGtal_1_1KhalimskySpaceNDHelper.html" target="_top" xlink:title="DGtal::KhalimskySpaceNDHelper\l\&lt; TKhalimskySpace \&gt;">
<polygon fill="white" stroke="black" points="1308,-179 1308,-209 1482,-209 1482,-179 1308,-179"/>
<text text-anchor="start" x="1316" y="-197" font-family="FreeSans" font-size="10.00">DGtal::KhalimskySpaceNDHelper</text>
<text text-anchor="middle" x="1395" y="-186" font-family="FreeSans" font-size="10.00">&lt; TKhalimskySpace &gt;</text>
</a>
</g>
</g>
<!-- Node4&#45;&gt;Node3 -->
<g id="edge3" class="edge"><title>Node4&#45;&gt;Node3</title>
<path fill="none" stroke="orange" stroke-dasharray="5,2" d="M1492.43,-187.897C1534.94,-185.207 1584.49,-182.07 1625.76,-179.458"/>
<polygon fill="orange" stroke="orange" points="1492.11,-184.41 1482.35,-188.535 1492.55,-191.396 1492.11,-184.41"/>
<text text-anchor="start" x="1500" y="-200" font-family="FreeSans" font-size="10.00"> &lt; KhalimskySpaceND</text>
<text text-anchor="middle" x="1554" y="-189" font-family="FreeSans" font-size="10.00">&lt; dim, TInteger &gt; &gt;</text>
</g>
<!-- Node5 -->
<g id="node5" class="node"><title>Node5</title>
<polygon fill="white" stroke="#bfbfbf" points="504.5,-0 504.5,-30 617.5,-30 617.5,-0 504.5,-0"/>
<text text-anchor="start" x="512.5" y="-18" font-family="FreeSans" font-size="10.00">std::array&lt; Closure,</text>
<text text-anchor="middle" x="561" y="-7" font-family="FreeSans" font-size="10.00"> dimension &gt;</text>
</g>
<!-- Node5&#45;&gt;Node2 -->
<g id="edge4" class="edge"><title>Node5&#45;&gt;Node2</title>
<path fill="none" stroke="#9a32cd" stroke-dasharray="5,2" d="M628.12,-15C672.95,-15 733.547,-15 787,-15 787,-15 787,-15 1714,-15 1792.56,-15 1881.37,-40.7275 1931.92,-57.9126"/>
<polygon fill="#9a32cd" stroke="#9a32cd" points="627.942,-11.5001 617.942,-15 627.941,-18.5001 627.942,-11.5001"/>
<text text-anchor="middle" x="1154" y="-18" font-family="FreeSans" font-size="10.00"> myClosure</text>
</g>
<!-- Node6 -->
<g id="node6" class="node"><title>Node6</title>
<g id="a_node6"><a xlink:title="STL class. ">
<polygon fill="white" stroke="#bfbfbf" points="116,-29.5 116,-48.5 206,-48.5 206,-29.5 116,-29.5"/>
<text text-anchor="middle" x="161" y="-36.5" font-family="FreeSans" font-size="10.00">std::array&lt; T &gt;</text>
</a>
</g>
</g>
<!-- Node6&#45;&gt;Node5 -->
<g id="edge5" class="edge"><title>Node6&#45;&gt;Node5</title>
<path fill="none" stroke="orange" stroke-dasharray="5,2" d="M216.346,-31.7335C218.932,-31.4677 221.493,-31.2211 224,-31 322.459,-22.3178 437.593,-18.1222 504.318,-16.2757"/>
<polygon fill="orange" stroke="orange" points="215.875,-28.2642 206.319,-32.8398 216.643,-35.2219 215.875,-28.2642"/>
<text text-anchor="middle" x="283" y="-34" font-family="FreeSans" font-size="10.00"> &lt; Closure, dimension &gt;</text>
</g>
<!-- Node9 -->
<g id="node9" class="node"><title>Node9</title>
<polygon fill="white" stroke="#bfbfbf" points="368,-49 368,-79 478,-79 478,-49 368,-49"/>
<text text-anchor="start" x="376" y="-67" font-family="FreeSans" font-size="10.00">std::array&lt; Integer,</text>
<text text-anchor="middle" x="423" y="-56" font-family="FreeSans" font-size="10.00"> dim &gt;</text>
</g>
<!-- Node6&#45;&gt;Node9 -->
<g id="edge9" class="edge"><title>Node6&#45;&gt;Node9</title>
<path fill="none" stroke="orange" stroke-dasharray="5,2" d="M216.145,-44.2063C260.6,-48.4808 323.257,-54.5055 367.743,-58.783"/>
<polygon fill="orange" stroke="orange" points="216.395,-40.7142 206.105,-43.2409 215.725,-47.6821 216.395,-40.7142"/>
<text text-anchor="middle" x="283" y="-59" font-family="FreeSans" font-size="10.00"> &lt; Integer, dim &gt;</text>
</g>
<!-- Node7 -->
<g id="node7" class="node"><title>Node7</title>
<polygon fill="white" stroke="#bfbfbf" points="0.5,-29.5 0.5,-48.5 29.5,-48.5 29.5,-29.5 0.5,-29.5"/>
<text text-anchor="middle" x="15" y="-36.5" font-family="FreeSans" font-size="10.00">T</text>
</g>
<!-- Node7&#45;&gt;Node6 -->
<g id="edge6" class="edge"><title>Node7&#45;&gt;Node6</title>
<path fill="none" stroke="#9a32cd" stroke-dasharray="5,2" d="M39.6415,-39C60.3039,-39 90.8474,-39 115.994,-39"/>
<polygon fill="#9a32cd" stroke="#9a32cd" points="39.5472,-35.5001 29.5472,-39 39.5471,-42.5001 39.5472,-35.5001"/>
<text text-anchor="middle" x="73" y="-42" font-family="FreeSans" font-size="10.00"> elements</text>
</g>
<!-- Node8 -->
<g id="node8" class="node"><title>Node8</title>
<g id="a_node8"><a xlink:href="classDGtal_1_1PointVector.html" target="_top" xlink:title="DGtal::PointVector\l\&lt; dim, Integer \&gt;">
<polygon fill="white" stroke="black" points="636,-84 636,-114 740,-114 740,-84 636,-84"/>
<text text-anchor="start" x="644" y="-102" font-family="FreeSans" font-size="10.00">DGtal::PointVector</text>
<text text-anchor="middle" x="688" y="-91" font-family="FreeSans" font-size="10.00">&lt; dim, Integer &gt;</text>
</a>
</g>
</g>
<!-- Node8&#45;&gt;Node2 -->
<g id="edge7" class="edge"><title>Node8&#45;&gt;Node2</title>
<path fill="none" stroke="#9a32cd" stroke-dasharray="5,2" d="M743.337,-80.9262C785.772,-68.4138 846.486,-54 901,-54 901,-54 901,-54 1714,-54 1777.91,-54 1850.45,-59.8253 1902.47,-65.0249"/>
<polygon fill="#9a32cd" stroke="#9a32cd" points="742.062,-77.6549 733.497,-83.8905 744.081,-84.3575 742.062,-77.6549"/>
<text text-anchor="middle" x="1264" y="-68" font-family="FreeSans" font-size="10.00"> myLower</text>
<text text-anchor="middle" x="1264" y="-57" font-family="FreeSans" font-size="10.00">myUpper</text>
</g>
<!-- Node13 -->
<g id="node13" class="node"><title>Node13</title>
<g id="a_node13"><a xlink:href="structDGtal_1_1KhalimskyPreCell.html" target="_top" xlink:title="DGtal::KhalimskyPreCell\l\&lt; dim, Integer \&gt;">
<polygon fill="white" stroke="black" points="1088.5,-101 1088.5,-131 1219.5,-131 1219.5,-101 1088.5,-101"/>
<text text-anchor="start" x="1096.5" y="-119" font-family="FreeSans" font-size="10.00">DGtal::KhalimskyPreCell</text>
<text text-anchor="middle" x="1154" y="-108" font-family="FreeSans" font-size="10.00">&lt; dim, Integer &gt;</text>
</a>
</g>
</g>
<!-- Node8&#45;&gt;Node13 -->
<g id="edge16" class="edge"><title>Node8&#45;&gt;Node13</title>
<path fill="none" stroke="#9a32cd" stroke-dasharray="5,2" d="M750.368,-101.164C806.899,-103.167 893.106,-106.241 968,-109 1007.99,-110.473 1052.84,-112.169 1088.36,-113.523"/>
<polygon fill="#9a32cd" stroke="#9a32cd" points="750.285,-97.6594 740.167,-100.803 750.037,-104.655 750.285,-97.6594"/>
<text text-anchor="middle" x="902" y="-112" font-family="FreeSans" font-size="10.00"> coordinates</text>
</g>
<!-- Node14 -->
<g id="node14" class="node"><title>Node14</title>
<g id="a_node14"><a xlink:href="structDGtal_1_1KhalimskyPreCell.html" target="_top" xlink:title="DGtal::KhalimskyPreCell\l\&lt; dim, TInteger \&gt;">
<polygon fill="white" stroke="black" points="836.5,-130 836.5,-160 967.5,-160 967.5,-130 836.5,-130"/>
<text text-anchor="start" x="844.5" y="-148" font-family="FreeSans" font-size="10.00">DGtal::KhalimskyPreCell</text>
<text text-anchor="middle" x="902" y="-137" font-family="FreeSans" font-size="10.00">&lt; dim, TInteger &gt;</text>
</a>
</g>
</g>
<!-- Node8&#45;&gt;Node14 -->
<g id="edge18" class="edge"><title>Node8&#45;&gt;Node14</title>
<path fill="none" stroke="#9a32cd" stroke-dasharray="5,2" d="M750.045,-112.273C752.733,-112.857 755.394,-113.434 758,-114 783.57,-119.551 811.713,-125.653 836.219,-130.965"/>
<polygon fill="#9a32cd" stroke="#9a32cd" points="750.759,-108.846 740.244,-110.143 749.273,-115.687 750.759,-108.846"/>
<text text-anchor="middle" x="788" y="-130" font-family="FreeSans" font-size="10.00"> coordinates</text>
</g>
<!-- Node9&#45;&gt;Node8 -->
<g id="edge8" class="edge"><title>Node9&#45;&gt;Node8</title>
<path fill="none" stroke="#9a32cd" stroke-dasharray="5,2" d="M488.751,-65.0619C526.682,-66.5795 575.363,-70.0765 618,-78 626.125,-79.51 634.647,-81.6372 642.821,-83.963"/>
<polygon fill="#9a32cd" stroke="#9a32cd" points="488.472,-61.5496 478.351,-64.6843 488.218,-68.545 488.472,-61.5496"/>
<text text-anchor="middle" x="561" y="-81" font-family="FreeSans" font-size="10.00"> myArray</text>
</g>
<!-- Node10 -->
<g id="node10" class="node"><title>Node10</title>
<g id="a_node10"><a xlink:href="classDGtal_1_1PointVector.html" target="_top" xlink:title="Aim: Implements basic operations that will be used in Point and Vector classes. ">
<polygon fill="white" stroke="black" points="360,-104.5 360,-145.5 486,-145.5 486,-104.5 360,-104.5"/>
<text text-anchor="start" x="368" y="-133.5" font-family="FreeSans" font-size="10.00">DGtal::PointVector</text>
<text text-anchor="start" x="368" y="-122.5" font-family="FreeSans" font-size="10.00">&lt; dim, TEuclideanRing,</text>
<text text-anchor="middle" x="423" y="-111.5" font-family="FreeSans" font-size="10.00"> TContainer &gt;</text>
</a>
</g>
</g>
<!-- Node10&#45;&gt;Node8 -->
<g id="edge10" class="edge"><title>Node10&#45;&gt;Node8</title>
<path fill="none" stroke="#9a32cd" stroke-dasharray="5,2" d="M496.265,-121.51C532.833,-119.306 577.866,-115.925 618,-111 623.793,-110.289 629.839,-109.423 635.84,-108.485"/>
<polygon fill="#9a32cd" stroke="#9a32cd" points="495.964,-118.021 486.186,-122.1 496.373,-125.009 495.964,-118.021"/>
<text text-anchor="middle" x="561" y="-124" font-family="FreeSans" font-size="10.00"> zero</text>
</g>
<!-- Node10&#45;&gt;Node8 -->
<g id="edge13" class="edge"><title>Node10&#45;&gt;Node8</title>
<path fill="none" stroke="orange" stroke-dasharray="5,2" d="M487.222,-101.586C492.839,-100.14 498.485,-98.9055 504,-98 548.049,-90.7672 598.869,-91.7747 635.76,-94.1562"/>
<polygon fill="orange" stroke="orange" points="485.869,-98.3296 477.179,-104.39 487.752,-105.072 485.869,-98.3296"/>
<text text-anchor="middle" x="561" y="-101" font-family="FreeSans" font-size="10.00"> &lt; dim, Integer &gt;</text>
</g>
<!-- Node10&#45;&gt;Node10 -->
<g id="edge12" class="edge"><title>Node10&#45;&gt;Node10</title>
<path fill="none" stroke="#9a32cd" stroke-dasharray="5,2" d="M399.684,-155.601C403.402,-160.023 411.174,-163 423,-163 442.406,-163 450.896,-154.984 448.471,-145.716"/>
<polygon fill="#9a32cd" stroke="#9a32cd" points="403.079,-154.742 397.529,-145.716 396.239,-156.232 403.079,-154.742"/>
<text text-anchor="middle" x="423" y="-166" font-family="FreeSans" font-size="10.00"> zero</text>
</g>
<!-- Node11 -->
<g id="node11" class="node"><title>Node11</title>
<polygon fill="white" stroke="#bfbfbf" points="127,-115.5 127,-134.5 195,-134.5 195,-115.5 127,-115.5"/>
<text text-anchor="middle" x="161" y="-122.5" font-family="FreeSans" font-size="10.00">TContainer</text>
</g>
<!-- Node11&#45;&gt;Node10 -->
<g id="edge11" class="edge"><title>Node11&#45;&gt;Node10</title>
<path fill="none" stroke="#9a32cd" stroke-dasharray="5,2" d="M205.429,-125C247.679,-125 312.294,-125 359.956,-125"/>
<polygon fill="#9a32cd" stroke="#9a32cd" points="205.193,-121.5 195.193,-125 205.193,-128.5 205.193,-121.5"/>
<text text-anchor="middle" x="283" y="-128" font-family="FreeSans" font-size="10.00"> myArray</text>
</g>
<!-- Node12 -->
<g id="node12" class="node"><title>Node12</title>
<g id="a_node12"><a xlink:href="structDGtal_1_1KhalimskyCell.html" target="_top" xlink:title="DGtal::KhalimskyCell\l\&lt; dim, Integer \&gt;">
<polygon fill="white" stroke="black" points="1655.5,-85 1655.5,-115 1770.5,-115 1770.5,-85 1655.5,-85"/>
<text text-anchor="start" x="1663.5" y="-103" font-family="FreeSans" font-size="10.00">DGtal::KhalimskyCell</text>
<text text-anchor="middle" x="1713" y="-92" font-family="FreeSans" font-size="10.00">&lt; dim, Integer &gt;</text>
</a>
</g>
</g>
<!-- Node12&#45;&gt;Node2 -->
<g id="edge14" class="edge"><title>Node12&#45;&gt;Node2</title>
<path fill="none" stroke="#9a32cd" stroke-dasharray="5,2" d="M1780.77,-93.0397C1818.01,-89.1569 1864.39,-84.3225 1902.26,-80.3748"/>
<polygon fill="#9a32cd" stroke="#9a32cd" points="1780.1,-89.59 1770.52,-94.1081 1780.83,-96.5523 1780.1,-89.59"/>
<text text-anchor="middle" x="1851" y="-103" font-family="FreeSans" font-size="10.00"> myCellUpper</text>
<text text-anchor="middle" x="1851" y="-92" font-family="FreeSans" font-size="10.00">myCellLower</text>
</g>
<!-- Node13&#45;&gt;Node12 -->
<g id="edge15" class="edge"><title>Node13&#45;&gt;Node12</title>
<path fill="none" stroke="#9a32cd" stroke-dasharray="5,2" d="M1229.85,-112.224C1254.71,-111.064 1282.54,-109.866 1308,-109 1431.93,-104.785 1577.31,-102.1 1655.45,-100.842"/>
<polygon fill="#9a32cd" stroke="#9a32cd" points="1229.58,-108.733 1219.75,-112.701 1229.91,-115.725 1229.58,-108.733"/>
<text text-anchor="middle" x="1395" y="-112" font-family="FreeSans" font-size="10.00"> myPreCell</text>
</g>
<!-- Node15 -->
<g id="node15" class="node"><title>Node15</title>
<g id="a_node15"><a xlink:href="structDGtal_1_1KhalimskyCell.html" target="_top" xlink:title="Represents an (unsigned) cell in a cellular grid space by its Khalimsky coordinates. ">
<polygon fill="white" stroke="black" points="1337.5,-130 1337.5,-160 1452.5,-160 1452.5,-130 1337.5,-130"/>
<text text-anchor="start" x="1345.5" y="-148" font-family="FreeSans" font-size="10.00">DGtal::KhalimskyCell</text>
<text text-anchor="middle" x="1395" y="-137" font-family="FreeSans" font-size="10.00">&lt; dim, TInteger &gt;</text>
</a>
</g>
</g>
<!-- Node13&#45;&gt;Node15 -->
<g id="edge20" class="edge"><title>Node13&#45;&gt;Node15</title>
<path fill="none" stroke="#9a32cd" stroke-dasharray="5,2" d="M1229.79,-125.075C1264.56,-129.294 1305.24,-134.23 1337.41,-138.133"/>
<polygon fill="#9a32cd" stroke="#9a32cd" points="1230.03,-121.578 1219.68,-123.848 1229.18,-128.527 1230.03,-121.578"/>
<text text-anchor="middle" x="1264" y="-136" font-family="FreeSans" font-size="10.00"> myPreCell</text>
</g>
<!-- Node14&#45;&gt;Node13 -->
<g id="edge17" class="edge"><title>Node14&#45;&gt;Node13</title>
<path fill="none" stroke="orange" stroke-dasharray="5,2" d="M977.9,-136.312C1012.99,-132.241 1054.4,-127.438 1088.13,-123.525"/>
<polygon fill="orange" stroke="orange" points="977.236,-132.865 967.706,-137.494 978.043,-139.818 977.236,-132.865"/>
<text text-anchor="middle" x="1028" y="-138" font-family="FreeSans" font-size="10.00"> &lt; dim, Integer &gt;</text>
</g>
<!-- Node15&#45;&gt;Node12 -->
<g id="edge19" class="edge"><title>Node15&#45;&gt;Node12</title>
<path fill="none" stroke="orange" stroke-dasharray="5,2" d="M1462.88,-135.476C1520.03,-127.338 1601.34,-115.759 1655.33,-108.07"/>
<polygon fill="orange" stroke="orange" points="1462.27,-132.028 1452.86,-136.903 1463.25,-138.958 1462.27,-132.028"/>
<text text-anchor="middle" x="1554" y="-133" font-family="FreeSans" font-size="10.00"> &lt; dim, Integer &gt;</text>
</g>
</g>
</svg>
        <g id="navigator" transform="translate(0 0)" fill="#404254">
                <rect fill="#f2f5e9" fill-opacity="0.5" stroke="#606060" stroke-width=".5" x="0" y="0" width="60" height="60"/>
                <use id="zoomplus" xlink:href="#zoomPlus" x="17" y="9" onmousedown="handleZoom(evt,'in')"/>
                <use id="zoomminus" xlink:href="#zoomMin" x="42" y="9" onmousedown="handleZoom(evt,'out')"/>
                <use id="reset" xlink:href="#resetDef" x="30" y="36" onmousedown="handleReset()"/>
                <g id="arrowUp" xlink:href="#dirArrow" transform="translate(30 24)" onmousedown="handlePan(0,-1)">
                  <use xlink:href="#rim" fill="#404040">
                        <set attributeName="fill" to="#808080" begin="arrowUp.mouseover" end="arrowUp.mouseout"/>
                  </use>
                  <path fill="none" stroke="white" stroke-width="1.5" d="M0,-3.0v7 M-2.5,-0.5L0,-3.0L2.5,-0.5"/>
                </g>
                <g id="arrowRight" xlink:href="#dirArrow" transform="rotate(90) translate(36 -43)" onmousedown="handlePan(1,0)">
                  <use xlink:href="#rim" fill="#404040">
                        <set attributeName="fill" to="#808080" begin="arrowRight.mouseover" end="arrowRight.mouseout"/>
                  </use>
                  <path fill="none" stroke="white" stroke-width="1.5" d="M0,-3.0v7 M-2.5,-0.5L0,-3.0L2.5,-0.5"/>
                </g>
                <g id="arrowDown" xlink:href="#dirArrow" transform="rotate(180) translate(-30 -48)" onmousedown="handlePan(0,1)">
                  <use xlink:href="#rim" fill="#404040">
                        <set attributeName="fill" to="#808080" begin="arrowDown.mouseover" end="arrowDown.mouseout"/>
                  </use>
                  <path fill="none" stroke="white" stroke-width="1.5" d="M0,-3.0v7 M-2.5,-0.5L0,-3.0L2.5,-0.5"/>
                </g>
                <g id="arrowLeft" xlink:href="#dirArrow" transform="rotate(270) translate(-36 17)" onmousedown="handlePan(-1,0)">
                  <use xlink:href="#rim" fill="#404040">
                        <set attributeName="fill" to="#808080" begin="arrowLeft.mouseover" end="arrowLeft.mouseout"/>
                  </use>
                  <path fill="none" stroke="white" stroke-width="1.5" d="M0,-3.0v7 M-2.5,-0.5L0,-3.0L2.5,-0.5"/>
                </g>
        </g>
        <svg viewBox="0 0 15 15" width="100%" height="30px" preserveAspectRatio="xMaxYMin meet">
         <g id="arrow_out" transform="scale(0.3 0.3)">
          <a xlink:href="classDGtal_1_1functors_1_1SCellToOuterPoint__coll__graph_org.svg" target="_base">
           <rect id="button" ry="5" rx="5" y="6" x="6" height="38" width="38"
                fill="#f2f5e9" fill-opacity="0.5" stroke="#606060" stroke-width="1.0"/>
           <path id="arrow"
             d="M 11.500037,31.436501 C 11.940474,20.09759 22.043105,11.32322 32.158766,21.979434 L 37.068811,17.246167 C 37.068811,17.246167 37.088388,32 37.088388,32 L 22.160133,31.978069 C 22.160133,31.978069 26.997745,27.140456 26.997745,27.140456 C 18.528582,18.264221 13.291696,25.230495 11.500037,31.436501 z"
             style="fill:#404040;"/>
          </a>
         </g>
        </svg>
</svg>
