<?xml version="1.0" encoding="UTF-8" standalone="no"?>
<!DOCTYPE svg PUBLIC "-//W3C//DTD SVG 1.1//EN"
 "http://www.w3.org/Graphics/SVG/1.1/DTD/svg11.dtd">
<!-- Generated by graphviz version 2.40.1 (20161225.0304)
 -->
<!-- Title: DGtal::functors::SCellToIncidentPoints&lt; KSpace &gt; Pages: 1 -->
<!--zoomable 209 -->
<svg id="main" version="1.1" xmlns="http://www.w3.org/2000/svg" xmlns:xlink="http://www.w3.org/1999/xlink" xml:space="preserve" onload="init(evt)">
<style type="text/css"><![CDATA[
.edge:hover path { stroke: red; }
.edge:hover polygon { stroke: red; fill: red; }
]]></style>
<script type="text/javascript"><![CDATA[
var edges = document.getElementsByTagName('g');
if (edges && edges.length) {
  for (var i=0;i<edges.length;i++) {
    if (edges[i].id.substr(0,4)=='edge') {
      edges[i].setAttribute('class','edge');
    }
  }
}
]]></script>
        <defs>
                <circle id="rim" cx="0" cy="0" r="7"/>
                <circle id="rim2" cx="0" cy="0" r="3.5"/>
                <g id="zoomPlus">
                        <use xlink:href="#rim" fill="#404040">
                                <set attributeName="fill" to="#808080" begin="zoomplus.mouseover" end="zoomplus.mouseout"/>
                        </use>
                        <path d="M-4,0h8M0,-4v8" fill="none" stroke="white" stroke-width="1.5" pointer-events="none"/>
                </g>
                <g id="zoomMin">
                        <use xlink:href="#rim" fill="#404040">
                                <set attributeName="fill" to="#808080" begin="zoomminus.mouseover" end="zoomminus.mouseout"/>
                        </use>
                        <path d="M-4,0h8" fill="none" stroke="white" stroke-width="1.5" pointer-events="none"/>
                </g>
                <g id="dirArrow">
                        <path fill="none" stroke="white" stroke-width="1.5" d="M0,-3.0v7 M-2.5,-0.5L0,-3.0L2.5,-0.5"/>
                </g>
               <g id="resetDef">
                       <use xlink:href="#rim2" fill="#404040">
                               <set attributeName="fill" to="#808080" begin="reset.mouseover" end="reset.mouseout"/>
                       </use>
               </g>
        </defs>

<script type="text/javascript">
var viewWidth = 2119;
var viewHeight = 209;
var sectionId = 'dynsection-0';
</script>
<script xlink:href="svgpan.js"/>
<svg id="graph" class="graph">
<g id="viewport">
<title>DGtal::functors::SCellToIncidentPoints&lt; KSpace &gt;</title>
<polygon fill="#ffffff" stroke="transparent" points="-4,4 -4,-205 2114.6123,-205 2114.6123,4 -4,4"/>
<!-- Node1 -->
<g id="node1" class="node">
<title>Node1</title>
<polygon fill="#bfbfbf" stroke="#000000" points="1979.5342,-52.5 1979.5342,-80.5 2110.6123,-80.5 2110.6123,-52.5 1979.5342,-52.5"/>
<text text-anchor="start" x="1987.5342" y="-68.5" font-family="FreeSans" font-size="10.00" fill="#000000">DGtal::functors::SCellTo</text>
<text text-anchor="middle" x="2045.0732" y="-58.5" font-family="FreeSans" font-size="10.00" fill="#000000">IncidentPoints&lt; KSpace &gt;</text>
</g>
<!-- Node2 -->
<g id="node2" class="node">
<title>Node2</title>
<g id="a_node2"><a xlink:href="classDGtal_1_1KhalimskySpaceND.html" target="_top" xlink:title="Aim: This class is a model of CCellularGridSpaceND. It represents the cubical grid as a cell complex...">
<polygon fill="#ffffff" stroke="#000000" points="1785.2734,-52.5 1785.2734,-80.5 1920.7559,-80.5 1920.7559,-52.5 1785.2734,-52.5"/>
<text text-anchor="start" x="1793.2734" y="-68.5" font-family="FreeSans" font-size="10.00" fill="#000000">DGtal::KhalimskySpaceND</text>
<text text-anchor="middle" x="1853.0146" y="-58.5" font-family="FreeSans" font-size="10.00" fill="#000000">&lt; dim, TInteger &gt;</text>
</a>
</g>
</g>
<!-- Node2&#45;&gt;Node1 -->
<g id="edge1" class="edge">
<title>Node2&#45;&gt;Node1</title>
<path fill="none" stroke="#9a32cd" stroke-dasharray="5,2" d="M1931.3714,-66.5C1947.3351,-66.5 1963.9735,-66.5 1979.4393,-66.5"/>
<polygon fill="#9a32cd" stroke="#9a32cd" points="1930.9976,-63.0001 1920.9976,-66.5 1930.9976,-70.0001 1930.9976,-63.0001"/>
<text text-anchor="middle" x="1950.145" y="-68.5" font-family="FreeSans" font-size="10.00" fill="#000000"> myK</text>
</g>
<!-- Node3 -->
<g id="node3" class="node">
<title>Node3</title>
<g id="a_node3"><a xlink:href="classDGtal_1_1KhalimskySpaceNDHelper.html" target="_top" xlink:title="DGtal::KhalimskySpaceNDHelper\l\&lt; KhalimskySpaceND\&lt; dim,\l TInteger \&gt; \&gt;">
<polygon fill="#ffffff" stroke="#000000" points="1523.7617,-152.5 1523.7617,-190.5 1688.7021,-190.5 1688.7021,-152.5 1523.7617,-152.5"/>
<text text-anchor="start" x="1531.7617" y="-178.5" font-family="FreeSans" font-size="10.00" fill="#000000">DGtal::KhalimskySpaceNDHelper</text>
<text text-anchor="start" x="1531.7617" y="-168.5" font-family="FreeSans" font-size="10.00" fill="#000000">&lt; KhalimskySpaceND&lt; dim,</text>
<text text-anchor="middle" x="1606.2319" y="-158.5" font-family="FreeSans" font-size="10.00" fill="#000000"> TInteger &gt; &gt;</text>
</a>
</g>
</g>
<!-- Node3&#45;&gt;Node2 -->
<g id="edge2" class="edge">
<title>Node3&#45;&gt;Node2</title>
<path fill="none" stroke="#8b1a1a" d="M1666.2751,-148.7523C1696.7342,-136.9316 1734.1909,-121.9637 1767.2734,-107.5 1786.6248,-99.0396 1808.0601,-88.7896 1824.6575,-80.6547"/>
<polygon fill="#8b1a1a" stroke="#8b1a1a" points="1664.7112,-145.6044 1656.6461,-152.475 1667.2355,-152.1334 1664.7112,-145.6044"/>
</g>
<!-- Node4 -->
<g id="node4" class="node">
<title>Node4</title>
<g id="a_node4"><a xlink:href="classDGtal_1_1KhalimskySpaceNDHelper.html" target="_top" xlink:title="DGtal::KhalimskySpaceNDHelper\l\&lt; TKhalimskySpace \&gt;">
<polygon fill="#ffffff" stroke="#000000" points="1223.0605,-172.5 1223.0605,-200.5 1388.001,-200.5 1388.001,-172.5 1223.0605,-172.5"/>
<text text-anchor="start" x="1231.0605" y="-188.5" font-family="FreeSans" font-size="10.00" fill="#000000">DGtal::KhalimskySpaceNDHelper</text>
<text text-anchor="middle" x="1305.5308" y="-178.5" font-family="FreeSans" font-size="10.00" fill="#000000">&lt; TKhalimskySpace &gt;</text>
</a>
</g>
</g>
<!-- Node4&#45;&gt;Node3 -->
<g id="edge3" class="edge">
<title>Node4&#45;&gt;Node3</title>
<path fill="none" stroke="#ffa500" stroke-dasharray="5,2" d="M1398.1344,-181.8806C1438.1975,-179.8821 1484.7111,-177.5619 1523.5897,-175.6225"/>
<polygon fill="#ffa500" stroke="#ffa500" points="1397.9096,-178.3874 1388.0964,-182.3813 1398.2584,-185.3787 1397.9096,-178.3874"/>
<text text-anchor="start" x="1406.001" y="-192.5" font-family="FreeSans" font-size="10.00" fill="#000000"> &lt; KhalimskySpaceND</text>
<text text-anchor="middle" x="1455.8813" y="-182.5" font-family="FreeSans" font-size="10.00" fill="#000000">&lt; dim, TInteger &gt; &gt;</text>
</g>
<!-- Node5 -->
<g id="node5" class="node">
<title>Node5</title>
<polygon fill="#ffffff" stroke="#bfbfbf" points="468.124,-.5 468.124,-28.5 571.6582,-28.5 571.6582,-.5 468.124,-.5"/>
<text text-anchor="start" x="476.124" y="-16.5" font-family="FreeSans" font-size="10.00" fill="#000000">std::array&lt; Closure,</text>
<text text-anchor="middle" x="519.8911" y="-6.5" font-family="FreeSans" font-size="10.00" fill="#000000"> dimension &gt;</text>
</g>
<!-- Node5&#45;&gt;Node2 -->
<g id="edge4" class="edge">
<title>Node5&#45;&gt;Node2</title>
<path fill="none" stroke="#9a32cd" stroke-dasharray="5,2" d="M582.2393,-13.6075C624.7636,-13.0744 682.3645,-12.5 733.1626,-12.5 733.1626,-12.5 733.1626,-12.5 1606.2319,-12.5 1681.0097,-12.5 1765.6482,-36.4531 1813.843,-52.4531"/>
<polygon fill="#9a32cd" stroke="#9a32cd" points="581.9946,-10.1102 572.0403,-13.7382 582.0844,-17.1097 581.9946,-10.1102"/>
<text text-anchor="middle" x="1075.4277" y="-14.5" font-family="FreeSans" font-size="10.00" fill="#000000"> myClosure</text>
</g>
<!-- Node6 -->
<g id="node6" class="node">
<title>Node6</title>
<g id="a_node6"><a xlink:title="STL class. ">
<polygon fill="#ffffff" stroke="#bfbfbf" points="108.3545,-28.5 108.3545,-46.5 189.0273,-46.5 189.0273,-28.5 108.3545,-28.5"/>
<text text-anchor="middle" x="148.6909" y="-34.5" font-family="FreeSans" font-size="10.00" fill="#000000">std::array&lt; T &gt;</text>
</a>
</g>
</g>
<!-- Node6&#45;&gt;Node5 -->
<g id="edge5" class="edge">
<title>Node6&#45;&gt;Node5</title>
<path fill="none" stroke="#ffa500" stroke-dasharray="5,2" d="M199.2705,-30.2859C201.8914,-29.9991 204.4889,-29.7344 207.0273,-29.5 298.6738,-21.0357 405.891,-17.207 468.0319,-15.5841"/>
<polygon fill="#ffa500" stroke="#ffa500" points="198.6412,-26.8358 189.1208,-31.4846 199.4623,-33.7875 198.6412,-26.8358"/>
<text text-anchor="middle" x="259.8325" y="-31.5" font-family="FreeSans" font-size="10.00" fill="#000000"> &lt; Closure, dimension &gt;</text>
</g>
<!-- Node9 -->
<g id="node9" class="node">
<title>Node9</title>
<polygon fill="#ffffff" stroke="#bfbfbf" points="340.5498,-47.5 340.5498,-75.5 440.2119,-75.5 440.2119,-47.5 340.5498,-47.5"/>
<text text-anchor="start" x="348.5498" y="-63.5" font-family="FreeSans" font-size="10.00" fill="#000000">std::array&lt; Integer,</text>
<text text-anchor="middle" x="390.3809" y="-53.5" font-family="FreeSans" font-size="10.00" fill="#000000"> dim &gt;</text>
</g>
<!-- Node6&#45;&gt;Node9 -->
<g id="edge9" class="edge">
<title>Node6&#45;&gt;Node9</title>
<path fill="none" stroke="#ffa500" stroke-dasharray="5,2" d="M199.2803,-42.5236C240.656,-46.6322 298.8663,-52.4125 340.1455,-56.5116"/>
<polygon fill="#ffa500" stroke="#ffa500" points="199.4413,-39.0224 189.1444,-41.5171 198.7496,-45.9882 199.4413,-39.0224"/>
<text text-anchor="middle" x="259.8325" y="-56.5" font-family="FreeSans" font-size="10.00" fill="#000000"> &lt; Integer, dim &gt;</text>
</g>
<!-- Node7 -->
<g id="node7" class="node">
<title>Node7</title>
<polygon fill="#ffffff" stroke="#bfbfbf" points="0,-28.5 0,-46.5 29,-46.5 29,-28.5 0,-28.5"/>
<text text-anchor="middle" x="14.5" y="-34.5" font-family="FreeSans" font-size="10.00" fill="#000000">T</text>
</g>
<!-- Node7&#45;&gt;Node6 -->
<g id="edge6" class="edge">
<title>Node7&#45;&gt;Node6</title>
<path fill="none" stroke="#9a32cd" stroke-dasharray="5,2" d="M39.1956,-37.5C58.4766,-37.5 85.6719,-37.5 108.1355,-37.5"/>
<polygon fill="#9a32cd" stroke="#9a32cd" points="39.1163,-34.0001 29.1162,-37.5 39.1162,-41.0001 39.1163,-34.0001"/>
<text text-anchor="middle" x="68.6772" y="-39.5" font-family="FreeSans" font-size="10.00" fill="#000000"> elements</text>
</g>
<!-- Node8 -->
<g id="node8" class="node">
<title>Node8</title>
<g id="a_node8"><a xlink:href="classDGtal_1_1PointVector.html" target="_top" xlink:title="DGtal::PointVector\l\&lt; dim, Integer \&gt;">
<polygon fill="#ffffff" stroke="#000000" points="589.6582,-81.5 589.6582,-109.5 687.9238,-109.5 687.9238,-81.5 589.6582,-81.5"/>
<text text-anchor="start" x="597.6582" y="-97.5" font-family="FreeSans" font-size="10.00" fill="#000000">DGtal::PointVector</text>
<text text-anchor="middle" x="638.791" y="-87.5" font-family="FreeSans" font-size="10.00" fill="#000000">&lt; dim, Integer &gt;</text>
</a>
</g>
</g>
<!-- Node8&#45;&gt;Node2 -->
<g id="edge7" class="edge">
<title>Node8&#45;&gt;Node2</title>
<path fill="none" stroke="#9a32cd" stroke-dasharray="5,2" d="M687.7809,-78.3011C728.3479,-65.5961 787.7769,-50.5 841.1377,-50.5 841.1377,-50.5 841.1377,-50.5 1606.2319,-50.5 1666.8765,-50.5 1735.7285,-55.371 1785.2685,-59.7378"/>
<polygon fill="#9a32cd" stroke="#9a32cd" points="686.6022,-75.0034 678.145,-81.3852 688.736,-81.6702 686.6022,-75.0034"/>
<text text-anchor="middle" x="1180.6123" y="-62.5" font-family="FreeSans" font-size="10.00" fill="#000000"> myLower</text>
<text text-anchor="middle" x="1180.6123" y="-52.5" font-family="FreeSans" font-size="10.00" fill="#000000">myUpper</text>
</g>
<!-- Node13 -->
<g id="node13" class="node">
<title>Node13</title>
<g id="a_node13"><a xlink:href="structDGtal_1_1KhalimskyPreCell.html" target="_top" xlink:title="DGtal::KhalimskyPreCell\l\&lt; dim, Integer \&gt;">
<polygon fill="#ffffff" stroke="#000000" points="1012.6914,-101.5 1012.6914,-129.5 1138.1641,-129.5 1138.1641,-101.5 1012.6914,-101.5"/>
<text text-anchor="start" x="1020.6914" y="-117.5" font-family="FreeSans" font-size="10.00" fill="#000000">DGtal::KhalimskyPreCell</text>
<text text-anchor="middle" x="1075.4277" y="-107.5" font-family="FreeSans" font-size="10.00" fill="#000000">&lt; dim, Integer &gt;</text>
</a>
</g>
</g>
<!-- Node8&#45;&gt;Node13 -->
<g id="edge16" class="edge">
<title>Node8&#45;&gt;Node13</title>
<path fill="none" stroke="#9a32cd" stroke-dasharray="5,2" d="M698.1772,-97.7784C751.9062,-99.884 833.2021,-103.18 903.874,-106.5 939.7731,-108.1865 979.8862,-110.2793 1012.2924,-112.0224"/>
<polygon fill="#9a32cd" stroke="#9a32cd" points="698.2716,-94.2795 688.1426,-97.3864 697.9983,-101.2742 698.2716,-94.2795"/>
<text text-anchor="middle" x="841.1377" y="-108.5" font-family="FreeSans" font-size="10.00" fill="#000000"> coordinates</text>
</g>
<!-- Node14 -->
<g id="node14" class="node">
<title>Node14</title>
<g id="a_node14"><a xlink:href="structDGtal_1_1KhalimskyPreCell.html" target="_top" xlink:title="DGtal::KhalimskyPreCell\l\&lt; dim, TInteger \&gt;">
<polygon fill="#ffffff" stroke="#000000" points="778.4014,-125.5 778.4014,-153.5 903.874,-153.5 903.874,-125.5 778.4014,-125.5"/>
<text text-anchor="start" x="786.4014" y="-141.5" font-family="FreeSans" font-size="10.00" fill="#000000">DGtal::KhalimskyPreCell</text>
<text text-anchor="middle" x="841.1377" y="-131.5" font-family="FreeSans" font-size="10.00" fill="#000000">&lt; dim, TInteger &gt;</text>
</a>
</g>
</g>
<!-- Node8&#45;&gt;Node14 -->
<g id="edge18" class="edge">
<title>Node8&#45;&gt;Node14</title>
<path fill="none" stroke="#9a32cd" stroke-dasharray="5,2" d="M698.2916,-108.8229C700.8701,-109.3914 703.4229,-109.9524 705.9238,-110.5 729.494,-115.6607 755.3967,-121.2389 778.168,-126.1114"/>
<polygon fill="#9a32cd" stroke="#9a32cd" points="698.7944,-105.3496 688.2744,-106.6067 697.2822,-112.1843 698.7944,-105.3496"/>
<text text-anchor="middle" x="733.1626" y="-123.5" font-family="FreeSans" font-size="10.00" fill="#000000"> coordinates</text>
</g>
<!-- Node9&#45;&gt;Node8 -->
<g id="edge8" class="edge">
<title>Node9&#45;&gt;Node8</title>
<path fill="none" stroke="#9a32cd" stroke-dasharray="5,2" d="M450.5727,-62.9458C486.0544,-64.5921 531.687,-68.0897 571.6582,-75.5 579.7893,-77.0074 588.3374,-79.1252 596.5073,-81.4226"/>
<polygon fill="#9a32cd" stroke="#9a32cd" points="450.5174,-59.4404 440.3772,-62.5105 450.2187,-66.434 450.5174,-59.4404"/>
<text text-anchor="middle" x="519.8911" y="-77.5" font-family="FreeSans" font-size="10.00" fill="#000000"> myArray</text>
</g>
<!-- Node10 -->
<g id="node10" class="node">
<title>Node10</title>
<g id="a_node10"><a xlink:href="classDGtal_1_1PointVector.html" target="_top" xlink:title="Aim: Implements basic operations that will be used in Point and Vector classes. ">
<polygon fill="#ffffff" stroke="#000000" points="330.6377,-101.5 330.6377,-139.5 450.124,-139.5 450.124,-101.5 330.6377,-101.5"/>
<text text-anchor="start" x="338.6377" y="-127.5" font-family="FreeSans" font-size="10.00" fill="#000000">DGtal::PointVector</text>
<text text-anchor="start" x="338.6377" y="-117.5" font-family="FreeSans" font-size="10.00" fill="#000000">&lt; dim, TEuclideanRing,</text>
<text text-anchor="middle" x="390.3809" y="-107.5" font-family="FreeSans" font-size="10.00" fill="#000000"> TContainer &gt;</text>
</a>
</g>
</g>
<!-- Node10&#45;&gt;Node8 -->
<g id="edge10" class="edge">
<title>Node10&#45;&gt;Node8</title>
<path fill="none" stroke="#9a32cd" stroke-dasharray="5,2" d="M460.718,-116.4697C494.3585,-114.1843 535.1624,-110.8912 571.6582,-106.5 577.4039,-105.8087 583.4095,-104.979 589.3651,-104.0893"/>
<polygon fill="#9a32cd" stroke="#9a32cd" points="460.2667,-112.9919 450.5206,-117.1467 460.7305,-119.9765 460.2667,-112.9919"/>
<text text-anchor="middle" x="519.8911" y="-117.5" font-family="FreeSans" font-size="10.00" fill="#000000"> zero</text>
</g>
<!-- Node10&#45;&gt;Node8 -->
<g id="edge13" class="edge">
<title>Node10&#45;&gt;Node8</title>
<path fill="none" stroke="#ffa500" stroke-dasharray="5,2" d="M451.8611,-98.8181C457.3103,-97.48 462.784,-96.3375 468.124,-95.5 508.6656,-89.1418 555.2938,-89.6634 589.5563,-91.4816"/>
<polygon fill="#ffa500" stroke="#ffa500" points="450.8756,-95.4585 442.1132,-101.4143 452.6772,-102.2227 450.8756,-95.4585"/>
<text text-anchor="middle" x="519.8911" y="-97.5" font-family="FreeSans" font-size="10.00" fill="#000000"> &lt; dim, Integer &gt;</text>
</g>
<!-- Node10&#45;&gt;Node10 -->
<g id="edge12" class="edge">
<title>Node10&#45;&gt;Node10</title>
<path fill="none" stroke="#9a32cd" stroke-dasharray="5,2" d="M368.0992,-149.7834C371.2349,-154.6472 378.6621,-158 390.3809,-158 409.1309,-158 416.8945,-149.4169 413.6719,-139.7945"/>
<polygon fill="#9a32cd" stroke="#9a32cd" points="371.5776,-149.3919 367.0898,-139.7945 364.613,-150.0958 371.5776,-149.3919"/>
<text text-anchor="middle" x="390.3809" y="-160" font-family="FreeSans" font-size="10.00" fill="#000000"> zero</text>
</g>
<!-- Node11 -->
<g id="node11" class="node">
<title>Node11</title>
<polygon fill="#ffffff" stroke="#bfbfbf" points="115.957,-111.5 115.957,-129.5 181.4248,-129.5 181.4248,-111.5 115.957,-111.5"/>
<text text-anchor="middle" x="148.6909" y="-117.5" font-family="FreeSans" font-size="10.00" fill="#000000">TContainer</text>
</g>
<!-- Node11&#45;&gt;Node10 -->
<g id="edge11" class="edge">
<title>Node11&#45;&gt;Node10</title>
<path fill="none" stroke="#9a32cd" stroke-dasharray="5,2" d="M191.9282,-120.5C230.589,-120.5 287.6178,-120.5 330.6324,-120.5"/>
<polygon fill="#9a32cd" stroke="#9a32cd" points="191.5379,-117.0001 181.5378,-120.5 191.5378,-124.0001 191.5379,-117.0001"/>
<text text-anchor="middle" x="259.8325" y="-122.5" font-family="FreeSans" font-size="10.00" fill="#000000"> myArray</text>
</g>
<!-- Node12 -->
<g id="node12" class="node">
<title>Node12</title>
<g id="a_node12"><a xlink:href="structDGtal_1_1KhalimskyCell.html" target="_top" xlink:title="DGtal::KhalimskyCell\l\&lt; dim, Integer \&gt;">
<polygon fill="#ffffff" stroke="#000000" points="1551.2764,-82.5 1551.2764,-110.5 1661.1875,-110.5 1661.1875,-82.5 1551.2764,-82.5"/>
<text text-anchor="start" x="1559.2764" y="-98.5" font-family="FreeSans" font-size="10.00" fill="#000000">DGtal::KhalimskyCell</text>
<text text-anchor="middle" x="1606.2319" y="-88.5" font-family="FreeSans" font-size="10.00" fill="#000000">&lt; dim, Integer &gt;</text>
</a>
</g>
</g>
<!-- Node12&#45;&gt;Node2 -->
<g id="edge14" class="edge">
<title>Node12&#45;&gt;Node2</title>
<path fill="none" stroke="#9a32cd" stroke-dasharray="5,2" d="M1671.4147,-88.5761C1706.3949,-84.3237 1749.4715,-79.0872 1784.8905,-74.7815"/>
<polygon fill="#9a32cd" stroke="#9a32cd" points="1670.8122,-85.1235 1661.3076,-89.8048 1671.6569,-92.0723 1670.8122,-85.1235"/>
<text text-anchor="middle" x="1736.9878" y="-95.5" font-family="FreeSans" font-size="10.00" fill="#000000"> myCellUpper</text>
<text text-anchor="middle" x="1736.9878" y="-85.5" font-family="FreeSans" font-size="10.00" fill="#000000">myCellLower</text>
</g>
<!-- Node13&#45;&gt;Node12 -->
<g id="edge15" class="edge">
<title>Node13&#45;&gt;Node12</title>
<path fill="none" stroke="#9a32cd" stroke-dasharray="5,2" d="M1148.2867,-110.5538C1172.1104,-109.0714 1198.7053,-107.5599 1223.0605,-106.5 1339.7374,-101.4226 1476.5201,-98.607 1551.0066,-97.3384"/>
<polygon fill="#9a32cd" stroke="#9a32cd" points="1148.0207,-107.0636 1138.2608,-111.186 1148.4612,-114.0497 1148.0207,-107.0636"/>
<text text-anchor="middle" x="1305.5308" y="-108.5" font-family="FreeSans" font-size="10.00" fill="#000000"> myPreCell</text>
</g>
<!-- Node15 -->
<g id="node15" class="node">
<title>Node15</title>
<g id="a_node15"><a xlink:href="structDGtal_1_1KhalimskyCell.html" target="_top" xlink:title="Represents an (unsigned) cell in a cellular grid space by its Khalimsky coordinates. ">
<polygon fill="#ffffff" stroke="#000000" points="1250.5752,-125.5 1250.5752,-153.5 1360.4863,-153.5 1360.4863,-125.5 1250.5752,-125.5"/>
<text text-anchor="start" x="1258.5752" y="-141.5" font-family="FreeSans" font-size="10.00" fill="#000000">DGtal::KhalimskyCell</text>
<text text-anchor="middle" x="1305.5308" y="-131.5" font-family="FreeSans" font-size="10.00" fill="#000000">&lt; dim, TInteger &gt;</text>
</a>
</g>
</g>
<!-- Node13&#45;&gt;Node15 -->
<g id="edge20" class="edge">
<title>Node13&#45;&gt;Node15</title>
<path fill="none" stroke="#9a32cd" stroke-dasharray="5,2" d="M1148.3869,-123.1097C1181.4797,-126.5613 1219.9616,-130.575 1250.5616,-133.7667"/>
<polygon fill="#9a32cd" stroke="#9a32cd" points="1148.6136,-119.6145 1138.3044,-122.0581 1147.8873,-126.5767 1148.6136,-119.6145"/>
<text text-anchor="middle" x="1180.6123" y="-130.5" font-family="FreeSans" font-size="10.00" fill="#000000"> myPreCell</text>
</g>
<!-- Node14&#45;&gt;Node13 -->
<g id="edge17" class="edge">
<title>Node14&#45;&gt;Node13</title>
<path fill="none" stroke="#ffa500" stroke-dasharray="5,2" d="M913.9767,-132.0386C945.5298,-128.8064 982.1126,-125.0589 1012.469,-121.9493"/>
<polygon fill="#ffa500" stroke="#ffa500" points="913.5144,-128.5675 903.9231,-133.0684 914.2278,-135.5311 913.5144,-128.5675"/>
<text text-anchor="middle" x="958.2827" y="-132.5" font-family="FreeSans" font-size="10.00" fill="#000000"> &lt; dim, Integer &gt;</text>
</g>
<!-- Node15&#45;&gt;Node12 -->
<g id="edge19" class="edge">
<title>Node15&#45;&gt;Node12</title>
<path fill="none" stroke="#ffa500" stroke-dasharray="5,2" d="M1370.8193,-130.1638C1424.7041,-122.4583 1500.3139,-111.6462 1551.1744,-104.3732"/>
<polygon fill="#ffa500" stroke="#ffa500" points="1370.0878,-126.7327 1360.684,-131.6131 1371.0788,-133.6622 1370.0878,-126.7327"/>
<text text-anchor="middle" x="1455.8813" y="-125.5" font-family="FreeSans" font-size="10.00" fill="#000000"> &lt; dim, Integer &gt;</text>
</g>
</g>
</svg>
        <g id="navigator" transform="translate(0 0)" fill="#404254">
                <rect fill="#f2f5e9" fill-opacity="0.5" stroke="#606060" stroke-width=".5" x="0" y="0" width="60" height="60"/>
                <use id="zoomplus" xlink:href="#zoomPlus" x="17" y="9" onmousedown="handleZoom(evt,'in')"/>
                <use id="zoomminus" xlink:href="#zoomMin" x="42" y="9" onmousedown="handleZoom(evt,'out')"/>
                <use id="reset" xlink:href="#resetDef" x="30" y="36" onmousedown="handleReset()"/>
                <g id="arrowUp" xlink:href="#dirArrow" transform="translate(30 24)" onmousedown="handlePan(0,-1)">
                  <use xlink:href="#rim" fill="#404040">
                        <set attributeName="fill" to="#808080" begin="arrowUp.mouseover" end="arrowUp.mouseout"/>
                  </use>
                  <path fill="none" stroke="white" stroke-width="1.5" d="M0,-3.0v7 M-2.5,-0.5L0,-3.0L2.5,-0.5"/>
                </g>
                <g id="arrowRight" xlink:href="#dirArrow" transform="rotate(90) translate(36 -43)" onmousedown="handlePan(1,0)">
                  <use xlink:href="#rim" fill="#404040">
                        <set attributeName="fill" to="#808080" begin="arrowRight.mouseover" end="arrowRight.mouseout"/>
                  </use>
                  <path fill="none" stroke="white" stroke-width="1.5" d="M0,-3.0v7 M-2.5,-0.5L0,-3.0L2.5,-0.5"/>
                </g>
                <g id="arrowDown" xlink:href="#dirArrow" transform="rotate(180) translate(-30 -48)" onmousedown="handlePan(0,1)">
                  <use xlink:href="#rim" fill="#404040">
                        <set attributeName="fill" to="#808080" begin="arrowDown.mouseover" end="arrowDown.mouseout"/>
                  </use>
                  <path fill="none" stroke="white" stroke-width="1.5" d="M0,-3.0v7 M-2.5,-0.5L0,-3.0L2.5,-0.5"/>
                </g>
                <g id="arrowLeft" xlink:href="#dirArrow" transform="rotate(270) translate(-36 17)" onmousedown="handlePan(-1,0)">
                  <use xlink:href="#rim" fill="#404040">
                        <set attributeName="fill" to="#808080" begin="arrowLeft.mouseover" end="arrowLeft.mouseout"/>
                  </use>
                  <path fill="none" stroke="white" stroke-width="1.5" d="M0,-3.0v7 M-2.5,-0.5L0,-3.0L2.5,-0.5"/>
                </g>
        </g>
        <svg viewBox="0 0 15 15" width="100%" height="30px" preserveAspectRatio="xMaxYMin meet">
         <g id="arrow_out" transform="scale(0.3 0.3)">
          <a xlink:href="classDGtal_1_1functors_1_1SCellToIncidentPoints__coll__graph_org.svg" target="_base">
           <rect id="button" ry="5" rx="5" y="6" x="6" height="38" width="38"
                fill="#f2f5e9" fill-opacity="0.5" stroke="#606060" stroke-width="1.0"/>
           <path id="arrow"
             d="M 11.500037,31.436501 C 11.940474,20.09759 22.043105,11.32322 32.158766,21.979434 L 37.068811,17.246167 C 37.068811,17.246167 37.088388,32 37.088388,32 L 22.160133,31.978069 C 22.160133,31.978069 26.997745,27.140456 26.997745,27.140456 C 18.528582,18.264221 13.291696,25.230495 11.500037,31.436501 z"
             style="fill:#404040;"/>
          </a>
         </g>
        </svg>
</svg>
