<?xml version="1.0" encoding="UTF-8" standalone="no"?>
<!DOCTYPE svg PUBLIC "-//W3C//DTD SVG 1.1//EN"
 "http://www.w3.org/Graphics/SVG/1.1/DTD/svg11.dtd">
<!-- Generated by graphviz version 2.36.0 (20140111.2315)
 -->
<!-- Title: DGtal::functors::IIPrincipalDirectionsFunctor&lt; TSpace, TMatrix &gt; Pages: 1 -->
<svg width="188pt" height="208pt"
 viewBox="0.00 0.00 188.00 208.00" xmlns="http://www.w3.org/2000/svg" xmlns:xlink="http://www.w3.org/1999/xlink">
<g id="graph0" class="graph" transform="scale(1 1) rotate(0) translate(4 204)">
<title>DGtal::functors::IIPrincipalDirectionsFunctor&lt; TSpace, TMatrix &gt;</title>
<polygon fill="white" stroke="none" points="-4,4 -4,-204 184,-204 184,4 -4,4"/>
<!-- Node1 -->
<g id="node1" class="node"><title>Node1</title>
<polygon fill="#bfbfbf" stroke="black" points="-0.5,-0.5 -0.5,-41.5 148.5,-41.5 148.5,-0.5 -0.5,-0.5"/>
<text text-anchor="start" x="7.5" y="-29.5" font-family="FreeSans" font-size="10.00">DGtal::functors::IIPrincipal</text>
<text text-anchor="start" x="7.5" y="-18.5" font-family="FreeSans" font-size="10.00">DirectionsFunctor&lt; TSpace,</text>
<text text-anchor="middle" x="74" y="-7.5" font-family="FreeSans" font-size="10.00"> TMatrix &gt;</text>
</g>
<!-- Node2 -->
<g id="node2" class="node"><title>Node2</title>
<g id="a_node2"><a xlink:href="classDGtal_1_1PointVector.html" target="_top" xlink:title="Aim: Implements basic operations that will be used in Point and Vector classes. ">
<polygon fill="white" stroke="black" points="11,-90.5 11,-131.5 137,-131.5 137,-90.5 11,-90.5"/>
<text text-anchor="start" x="19" y="-119.5" font-family="FreeSans" font-size="10.00">DGtal::PointVector</text>
<text text-anchor="start" x="19" y="-108.5" font-family="FreeSans" font-size="10.00">&lt; dim, TEuclideanRing,</text>
<text text-anchor="middle" x="74" y="-97.5" font-family="FreeSans" font-size="10.00"> TContainer &gt;</text>
</a>
</g>
</g>
<!-- Node2&#45;&gt;Node1 -->
<g id="edge1" class="edge"><title>Node2&#45;&gt;Node1</title>
<path fill="none" stroke="#9a32cd" stroke-dasharray="5,2" d="M74,-80.3298C74,-67.6289 74,-53.1399 74,-41.7798"/>
<polygon fill="#9a32cd" stroke="#9a32cd" points="70.5001,-80.4699 74,-90.4699 77.5001,-80.47 70.5001,-80.4699"/>
<text text-anchor="middle" x="104.5" y="-63.5" font-family="FreeSans" font-size="10.00"> eigenValues</text>
</g>
<!-- Node2&#45;&gt;Node2 -->
<g id="edge3" class="edge"><title>Node2&#45;&gt;Node2</title>
<path fill="none" stroke="#9a32cd" stroke-dasharray="5,2" d="M147.09,-116.937C152.012,-115.566 155,-113.588 155,-111 155,-106.961 147.719,-104.405 137.168,-103.332"/>
<polygon fill="#9a32cd" stroke="#9a32cd" points="146.418,-113.501 137.168,-118.668 147.621,-120.397 146.418,-113.501"/>
<text text-anchor="middle" x="167.5" y="-108.5" font-family="FreeSans" font-size="10.00"> zero</text>
</g>
<!-- Node3 -->
<g id="node3" class="node"><title>Node3</title>
<polygon fill="white" stroke="#bfbfbf" points="40,-180.5 40,-199.5 108,-199.5 108,-180.5 40,-180.5"/>
<text text-anchor="middle" x="74" y="-187.5" font-family="FreeSans" font-size="10.00">TContainer</text>
</g>
<!-- Node3&#45;&gt;Node2 -->
<g id="edge2" class="edge"><title>Node3&#45;&gt;Node2</title>
<path fill="none" stroke="#9a32cd" stroke-dasharray="5,2" d="M74,-170.149C74,-158.503 74,-143.581 74,-131.768"/>
<polygon fill="#9a32cd" stroke="#9a32cd" points="70.5001,-170.465 74,-180.465 77.5001,-170.465 70.5001,-170.465"/>
<text text-anchor="middle" x="96" y="-153.5" font-family="FreeSans" font-size="10.00"> myArray</text>
</g>
</g>
</svg>
