<?xml version="1.0" encoding="UTF-8" standalone="no"?>
<!DOCTYPE svg PUBLIC "-//W3C//DTD SVG 1.1//EN"
 "http://www.w3.org/Graphics/SVG/1.1/DTD/svg11.dtd">
<!-- Generated by graphviz version 2.36.0 (20140111.2315)
 -->
<!-- Title: DGtal::Image&lt; TImageContainer &gt; Pages: 1 -->
<svg width="287pt" height="324pt"
 viewBox="0.00 0.00 287.00 324.00" xmlns="http://www.w3.org/2000/svg" xmlns:xlink="http://www.w3.org/1999/xlink">
<g id="graph0" class="graph" transform="scale(1 1) rotate(0) translate(4 320)">
<title>DGtal::Image&lt; TImageContainer &gt;</title>
<polygon fill="white" stroke="none" points="-4,4 -4,-320 283,-320 283,4 -4,4"/>
<!-- Node1 -->
<g id="node1" class="node"><title>Node1</title>
<polygon fill="#bfbfbf" stroke="black" points="61,-0.5 61,-19.5 245,-19.5 245,-0.5 61,-0.5"/>
<text text-anchor="middle" x="153" y="-7.5" font-family="FreeSans" font-size="10.00">DGtal::Image&lt; TImageContainer &gt;</text>
</g>
<!-- Node2 -->
<g id="node2" class="node"><title>Node2</title>
<g id="a_node2"><a xlink:href="classDGtal_1_1CowPtr.html" target="_top" xlink:title="DGtal::CowPtr\&lt; TImageContainer \&gt;">
<polygon fill="white" stroke="black" points="59.5,-68.5 59.5,-87.5 246.5,-87.5 246.5,-68.5 59.5,-68.5"/>
<text text-anchor="middle" x="153" y="-75.5" font-family="FreeSans" font-size="10.00">DGtal::CowPtr&lt; TImageContainer &gt;</text>
</a>
</g>
</g>
<!-- Node2&#45;&gt;Node1 -->
<g id="edge1" class="edge"><title>Node2&#45;&gt;Node1</title>
<path fill="none" stroke="#9a32cd" stroke-dasharray="5,2" d="M153,-58.0413C153,-45.4724 153,-29.5631 153,-19.8411"/>
<polygon fill="#9a32cd" stroke="#9a32cd" points="149.5,-58.3716 153,-68.3717 156.5,-58.3717 149.5,-58.3716"/>
<text text-anchor="middle" x="194" y="-41.5" font-family="FreeSans" font-size="10.00"> myImagePointer</text>
</g>
<!-- Node3 -->
<g id="node3" class="node"><title>Node3</title>
<g id="a_node3"><a xlink:href="classDGtal_1_1CountedPtr.html" target="_top" xlink:title="DGtal::CountedPtr\&lt;\l TImageContainer \&gt;">
<polygon fill="white" stroke="black" points="-0.5,-137 -0.5,-167 112.5,-167 112.5,-137 -0.5,-137"/>
<text text-anchor="start" x="7.5" y="-155" font-family="FreeSans" font-size="10.00">DGtal::CountedPtr&lt;</text>
<text text-anchor="middle" x="56" y="-144" font-family="FreeSans" font-size="10.00"> TImageContainer &gt;</text>
</a>
</g>
</g>
<!-- Node3&#45;&gt;Node2 -->
<g id="edge2" class="edge"><title>Node3&#45;&gt;Node2</title>
<path fill="none" stroke="#9a32cd" stroke-dasharray="5,2" d="M83.2752,-130.755C102.481,-116.499 127.219,-98.1365 141.475,-87.5543"/>
<polygon fill="#9a32cd" stroke="#9a32cd" points="81.1077,-128.004 75.1641,-136.775 85.2799,-133.625 81.1077,-128.004"/>
<text text-anchor="middle" x="133" y="-109.5" font-family="FreeSans" font-size="10.00"> myPtr</text>
</g>
<!-- Node4 -->
<g id="node4" class="node"><title>Node4</title>
<g id="a_node4"><a xlink:href="structDGtal_1_1CountedPtr_1_1Counter.html" target="_top" xlink:title="DGtal::CountedPtr\&lt;\l T \&gt;::Counter">
<polygon fill="white" stroke="black" points="27,-285 27,-315 139,-315 139,-285 27,-285"/>
<text text-anchor="start" x="35" y="-303" font-family="FreeSans" font-size="10.00">DGtal::CountedPtr&lt;</text>
<text text-anchor="middle" x="83" y="-292" font-family="FreeSans" font-size="10.00"> T &gt;::Counter</text>
</a>
</g>
</g>
<!-- Node4&#45;&gt;Node3 -->
<g id="edge3" class="edge"><title>Node4&#45;&gt;Node3</title>
<path fill="none" stroke="#9a32cd" stroke-dasharray="5,2" d="M67.2077,-276.317C60.1422,-264.803 52.603,-250.262 49,-236 43.0143,-212.305 47.9822,-183.723 52.0502,-167.033"/>
<polygon fill="#9a32cd" stroke="#9a32cd" points="64.335,-278.321 72.6882,-284.838 70.2224,-274.534 64.335,-278.321"/>
<text text-anchor="middle" x="77.5" y="-223.5" font-family="FreeSans" font-size="10.00"> myCounter</text>
</g>
<!-- Node5 -->
<g id="node5" class="node"><title>Node5</title>
<g id="a_node5"><a xlink:href="classDGtal_1_1CountedPtr.html" target="_top" xlink:title="Aim: Smart pointer based on reference counts. ">
<polygon fill="white" stroke="black" points="115.5,-216.5 115.5,-235.5 246.5,-235.5 246.5,-216.5 115.5,-216.5"/>
<text text-anchor="middle" x="181" y="-223.5" font-family="FreeSans" font-size="10.00">DGtal::CountedPtr&lt; T &gt;</text>
</a>
</g>
</g>
<!-- Node4&#45;&gt;Node5 -->
<g id="edge5" class="edge"><title>Node4&#45;&gt;Node5</title>
<path fill="none" stroke="#9a32cd" stroke-dasharray="5,2" d="M110.556,-278.755C129.96,-264.499 154.953,-246.137 169.357,-235.554"/>
<polygon fill="#9a32cd" stroke="#9a32cd" points="108.348,-276.034 102.362,-284.775 112.493,-281.675 108.348,-276.034"/>
<text text-anchor="middle" x="172.5" y="-257.5" font-family="FreeSans" font-size="10.00"> myCounter</text>
</g>
<!-- Node5&#45;&gt;Node3 -->
<g id="edge4" class="edge"><title>Node5&#45;&gt;Node3</title>
<path fill="none" stroke="orange" stroke-dasharray="5,2" d="M157.49,-211.458C135.572,-198.834 103.003,-180.074 80.7076,-167.232"/>
<polygon fill="orange" stroke="orange" points="155.758,-214.5 166.17,-216.458 159.252,-208.434 155.758,-214.5"/>
<text text-anchor="middle" x="188" y="-189.5" font-family="FreeSans" font-size="10.00"> &lt; TImageContainer &gt;</text>
</g>
<!-- Node6 -->
<g id="node6" class="node"><title>Node6</title>
<g id="a_node6"><a xlink:href="classDGtal_1_1CowPtr.html" target="_top" xlink:title="Aim: Copy on write shared pointer. ">
<polygon fill="white" stroke="black" points="131,-142.5 131,-161.5 241,-161.5 241,-142.5 131,-142.5"/>
<text text-anchor="middle" x="186" y="-149.5" font-family="FreeSans" font-size="10.00">DGtal::CowPtr&lt; T &gt;</text>
</a>
</g>
</g>
<!-- Node6&#45;&gt;Node2 -->
<g id="edge6" class="edge"><title>Node6&#45;&gt;Node2</title>
<path fill="none" stroke="orange" stroke-dasharray="5,2" d="M177.754,-133.008C171.094,-118.478 162.018,-98.6758 156.91,-87.531"/>
<polygon fill="orange" stroke="orange" points="174.737,-134.826 182.085,-142.458 181.1,-131.909 174.737,-134.826"/>
<text text-anchor="middle" x="225" y="-109.5" font-family="FreeSans" font-size="10.00"> &lt; TImageContainer &gt;</text>
</g>
</g>
</svg>
