<?xml version="1.0" encoding="UTF-8" standalone="no"?>
<!DOCTYPE svg PUBLIC "-//W3C//DTD SVG 1.1//EN"
 "http://www.w3.org/Graphics/SVG/1.1/DTD/svg11.dtd">
<!-- Generated by graphviz version 2.36.0 (20140111.2315)
 -->
<!-- Title: DGtal::Labels&lt; L, TWord &gt;::ConstEnumerator Pages: 1 -->
<svg width="138pt" height="108pt"
 viewBox="0.00 0.00 138.00 108.00" xmlns="http://www.w3.org/2000/svg" xmlns:xlink="http://www.w3.org/1999/xlink">
<g id="graph0" class="graph" transform="scale(1 1) rotate(0) translate(4 104)">
<title>DGtal::Labels&lt; L, TWord &gt;::ConstEnumerator</title>
<polygon fill="white" stroke="none" points="-4,4 -4,-104 134,-104 134,4 -4,4"/>
<!-- Node1 -->
<g id="node1" class="node"><title>Node1</title>
<polygon fill="#bfbfbf" stroke="black" points="-0.5,-1 -0.5,-31 130.5,-31 130.5,-1 -0.5,-1"/>
<text text-anchor="start" x="7.5" y="-19" font-family="FreeSans" font-size="10.00">DGtal::Labels&lt; L, TWord</text>
<text text-anchor="middle" x="65" y="-8" font-family="FreeSans" font-size="10.00"> &gt;::ConstEnumerator</text>
</g>
<!-- Node2 -->
<g id="node2" class="node"><title>Node2</title>
<polygon fill="white" stroke="#bfbfbf" points="42.5,-80.5 42.5,-99.5 87.5,-99.5 87.5,-80.5 42.5,-80.5"/>
<text text-anchor="middle" x="65" y="-87.5" font-family="FreeSans" font-size="10.00">TWord</text>
</g>
<!-- Node2&#45;&gt;Node1 -->
<g id="edge1" class="edge"><title>Node2&#45;&gt;Node1</title>
<path fill="none" stroke="#9a32cd" stroke-dasharray="5,2" d="M65,-70.0846C65,-57.9148 65,-42.3538 65,-31.2316"/>
<polygon fill="#9a32cd" stroke="#9a32cd" points="61.5001,-70.4579 65,-80.4579 68.5001,-70.4579 61.5001,-70.4579"/>
<text text-anchor="middle" x="86" y="-53.5" font-family="FreeSans" font-size="10.00"> myWord</text>
</g>
</g>
</svg>
