<?xml version="1.0" encoding="UTF-8" standalone="no"?>
<!DOCTYPE svg PUBLIC "-//W3C//DTD SVG 1.1//EN"
 "http://www.w3.org/Graphics/SVG/1.1/DTD/svg11.dtd">
<!-- Generated by graphviz version 2.36.0 (20140111.2315)
 -->
<!-- Title: DGtal::Astroid2D&lt; TSpace &gt; Pages: 1 -->
<svg width="526pt" height="128pt"
 viewBox="0.00 0.00 526.00 128.00" xmlns="http://www.w3.org/2000/svg" xmlns:xlink="http://www.w3.org/1999/xlink">
<g id="graph0" class="graph" transform="scale(1 1) rotate(0) translate(4 124)">
<title>DGtal::Astroid2D&lt; TSpace &gt;</title>
<polygon fill="white" stroke="none" points="-4,4 -4,-124 522,-124 522,4 -4,4"/>
<!-- Node1 -->
<g id="node1" class="node"><title>Node1</title>
<polygon fill="#bfbfbf" stroke="black" points="362.5,-67.5 362.5,-86.5 517.5,-86.5 517.5,-67.5 362.5,-67.5"/>
<text text-anchor="middle" x="440" y="-74.5" font-family="FreeSans" font-size="10.00">DGtal::Astroid2D&lt; TSpace &gt;</text>
</g>
<!-- Node2 -->
<g id="node2" class="node"><title>Node2</title>
<g id="a_node2"><a xlink:href="classDGtal_1_1StarShaped2D.html" target="_top" xlink:title="DGtal::StarShaped2D\l\&lt; TSpace \&gt;">
<polygon fill="white" stroke="black" points="151,-90 151,-120 271,-120 271,-90 151,-90"/>
<text text-anchor="start" x="159" y="-108" font-family="FreeSans" font-size="10.00">DGtal::StarShaped2D</text>
<text text-anchor="middle" x="211" y="-97" font-family="FreeSans" font-size="10.00">&lt; TSpace &gt;</text>
</a>
</g>
</g>
<!-- Node2&#45;&gt;Node1 -->
<g id="edge1" class="edge"><title>Node2&#45;&gt;Node1</title>
<path fill="none" stroke="midnightblue" d="M281.061,-96.4815C306.717,-93.3168 335.971,-89.7084 362.272,-86.4643"/>
<polygon fill="midnightblue" stroke="midnightblue" points="280.545,-93.0185 271.049,-97.7164 281.402,-99.9658 280.545,-93.0185"/>
</g>
<!-- Node3 -->
<g id="node3" class="node"><title>Node3</title>
<g id="a_node3"><a xlink:href="classDGtal_1_1PointVector.html" target="_top" xlink:title="Aim: Implements basic operations that will be used in Point and Vector classes. ">
<polygon fill="white" stroke="black" points="148,-0.5 148,-41.5 274,-41.5 274,-0.5 148,-0.5"/>
<text text-anchor="start" x="156" y="-29.5" font-family="FreeSans" font-size="10.00">DGtal::PointVector</text>
<text text-anchor="start" x="156" y="-18.5" font-family="FreeSans" font-size="10.00">&lt; dim, TEuclideanRing,</text>
<text text-anchor="middle" x="211" y="-7.5" font-family="FreeSans" font-size="10.00"> TContainer &gt;</text>
</a>
</g>
</g>
<!-- Node3&#45;&gt;Node1 -->
<g id="edge2" class="edge"><title>Node3&#45;&gt;Node1</title>
<path fill="none" stroke="#9a32cd" stroke-dasharray="5,2" d="M284.153,-38.7998C322.63,-48.2921 368.451,-59.5959 400.219,-67.4329"/>
<polygon fill="#9a32cd" stroke="#9a32cd" points="284.576,-35.2993 274.029,-36.3022 282.899,-42.0956 284.576,-35.2993"/>
<text text-anchor="middle" x="318" y="-55" font-family="FreeSans" font-size="10.00"> myCenter</text>
</g>
<!-- Node3&#45;&gt;Node3 -->
<g id="edge4" class="edge"><title>Node3&#45;&gt;Node3</title>
<path fill="none" stroke="#9a32cd" stroke-dasharray="5,2" d="M193.766,-51.6009C196.515,-56.0235 202.259,-59 211,-59 225.344,-59 231.619,-50.9844 229.826,-41.7163"/>
<polygon fill="#9a32cd" stroke="#9a32cd" points="197.22,-51.0324 192.174,-41.7163 190.309,-52.1457 197.22,-51.0324"/>
<text text-anchor="middle" x="211" y="-62" font-family="FreeSans" font-size="10.00"> zero</text>
</g>
<!-- Node4 -->
<g id="node4" class="node"><title>Node4</title>
<polygon fill="white" stroke="#bfbfbf" points="0,-11.5 0,-30.5 68,-30.5 68,-11.5 0,-11.5"/>
<text text-anchor="middle" x="34" y="-18.5" font-family="FreeSans" font-size="10.00">TContainer</text>
</g>
<!-- Node4&#45;&gt;Node3 -->
<g id="edge3" class="edge"><title>Node4&#45;&gt;Node3</title>
<path fill="none" stroke="#9a32cd" stroke-dasharray="5,2" d="M78.5018,-21C99.4065,-21 124.84,-21 147.749,-21"/>
<polygon fill="#9a32cd" stroke="#9a32cd" points="78.3281,-17.5001 68.3281,-21 78.328,-24.5001 78.3281,-17.5001"/>
<text text-anchor="middle" x="108" y="-24" font-family="FreeSans" font-size="10.00"> myArray</text>
</g>
</g>
</svg>
