<?xml version="1.0" encoding="UTF-8" standalone="no"?>
<!DOCTYPE svg PUBLIC "-//W3C//DTD SVG 1.1//EN"
 "http://www.w3.org/Graphics/SVG/1.1/DTD/svg11.dtd">
<!-- Generated by graphviz version 2.36.0 (20140111.2315)
 -->
<!-- Title: DGtal::SpatialCubicalSubdivision&lt; TSpace &gt; Pages: 1 -->
<!--zoomable 478 -->
<svg id="main" version="1.1" xmlns="http://www.w3.org/2000/svg" xmlns:xlink="http://www.w3.org/1999/xlink" xml:space="preserve" onload="init(evt)">
<style type="text/css"><![CDATA[
.edge:hover path { stroke: red; }
.edge:hover polygon { stroke: red; fill: red; }
]]></style>
<script type="text/javascript"><![CDATA[
var edges = document.getElementsByTagName('g');
if (edges && edges.length) {
  for (var i=0;i<edges.length;i++) {
    if (edges[i].id.substr(0,4)=='edge') {
      edges[i].setAttribute('class','edge');
    }
  }
}
]]></script>
        <defs>
                <circle id="rim" cx="0" cy="0" r="7"/>
                <circle id="rim2" cx="0" cy="0" r="3.5"/>
                <g id="zoomPlus">
                        <use xlink:href="#rim" fill="#404040">
                                <set attributeName="fill" to="#808080" begin="zoomplus.mouseover" end="zoomplus.mouseout"/>
                        </use>
                        <path d="M-4,0h8M0,-4v8" fill="none" stroke="white" stroke-width="1.5" pointer-events="none"/>
                </g>
                <g id="zoomMin">
                        <use xlink:href="#rim" fill="#404040">
                                <set attributeName="fill" to="#808080" begin="zoomminus.mouseover" end="zoomminus.mouseout"/>
                        </use>
                        <path d="M-4,0h8" fill="none" stroke="white" stroke-width="1.5" pointer-events="none"/>
                </g>
                <g id="dirArrow">
                        <path fill="none" stroke="white" stroke-width="1.5" d="M0,-3.0v7 M-2.5,-0.5L0,-3.0L2.5,-0.5"/>
                </g>
               <g id="resetDef">
                       <use xlink:href="#rim2" fill="#404040">
                               <set attributeName="fill" to="#808080" begin="reset.mouseover" end="reset.mouseout"/>
                       </use>
               </g>
        </defs>

<script type="text/javascript">
var viewWidth = 1778;
var viewHeight = 478;
var sectionId = 'dynsection-0';
</script>
<script xlink:href="svgpan.js"/>
<svg id="graph" class="graph">
<g id="viewport">
<title>DGtal::SpatialCubicalSubdivision&lt; TSpace &gt;</title>
<polygon fill="white" stroke="none" points="-4,4 -4,-474 1774,-474 1774,4 -4,4"/>
<!-- Node1 -->
<g id="node1" class="node"><title>Node1</title>
<polygon fill="#bfbfbf" stroke="black" points="1598.5,-31 1598.5,-61 1769.5,-61 1769.5,-31 1598.5,-31"/>
<text text-anchor="start" x="1606.5" y="-49" font-family="FreeSans" font-size="10.00">DGtal::SpatialCubicalSubdivision</text>
<text text-anchor="middle" x="1684" y="-38" font-family="FreeSans" font-size="10.00">&lt; TSpace &gt;</text>
</g>
<!-- Node2 -->
<g id="node2" class="node"><title>Node2</title>
<g id="a_node2"><a xlink:href="classDGtal_1_1ImageContainerBySTLVector.html" target="_top" xlink:title="DGtal::ImageContainerBySTLVector\l\&lt; Domain, Storage * \&gt;">
<polygon fill="white" stroke="black" points="1332.5,-122 1332.5,-152 1517.5,-152 1517.5,-122 1332.5,-122"/>
<text text-anchor="start" x="1340.5" y="-140" font-family="FreeSans" font-size="10.00">DGtal::ImageContainerBySTLVector</text>
<text text-anchor="middle" x="1425" y="-129" font-family="FreeSans" font-size="10.00">&lt; Domain, Storage * &gt;</text>
</a>
</g>
</g>
<!-- Node2&#45;&gt;Node1 -->
<g id="edge1" class="edge"><title>Node2&#45;&gt;Node1</title>
<path fill="none" stroke="#9a32cd" stroke-dasharray="5,2" d="M1477.99,-118.59C1525.83,-101.65 1595.93,-76.8318 1640.5,-61.0491"/>
<polygon fill="#9a32cd" stroke="#9a32cd" points="1476.7,-115.336 1468.44,-121.973 1479.03,-121.935 1476.7,-115.336"/>
<text text-anchor="middle" x="1558" y="-100" font-family="FreeSans" font-size="10.00"> myArray</text>
</g>
<!-- Node3 -->
<g id="node3" class="node"><title>Node3</title>
<g id="a_node3"><a xlink:title="STL class. ">
<polygon fill="white" stroke="#bfbfbf" points="838.5,-276.5 838.5,-295.5 975.5,-295.5 975.5,-276.5 838.5,-276.5"/>
<text text-anchor="middle" x="907" y="-283.5" font-family="FreeSans" font-size="10.00">std::vector&lt; Storage * &gt;</text>
</a>
</g>
</g>
<!-- Node3&#45;&gt;Node2 -->
<g id="edge2" class="edge"><title>Node3&#45;&gt;Node2</title>
<path fill="none" stroke="midnightblue" d="M950.828,-273.633C1045.03,-246.43 1269.95,-181.483 1372.03,-152.007"/>
<polygon fill="midnightblue" stroke="midnightblue" points="949.7,-270.316 941.063,-276.453 951.642,-277.041 949.7,-270.316"/>
</g>
<!-- Node4 -->
<g id="node4" class="node"><title>Node4</title>
<polygon fill="white" stroke="#bfbfbf" points="487.5,-305.5 487.5,-324.5 516.5,-324.5 516.5,-305.5 487.5,-305.5"/>
<text text-anchor="middle" x="502" y="-312.5" font-family="FreeSans" font-size="10.00">T</text>
</g>
<!-- Node4&#45;&gt;Node3 -->
<g id="edge3" class="edge"><title>Node4&#45;&gt;Node3</title>
<path fill="none" stroke="#9a32cd" stroke-dasharray="5,2" d="M526.678,-311.845C543.709,-309.666 567.239,-306.84 588,-305 674.217,-297.359 773.864,-291.96 838.299,-288.917"/>
<polygon fill="#9a32cd" stroke="#9a32cd" points="525.984,-308.406 516.519,-313.167 526.887,-315.347 525.984,-308.406"/>
<text text-anchor="middle" x="627" y="-308" font-family="FreeSans" font-size="10.00"> elements</text>
</g>
<!-- Node14 -->
<g id="node14" class="node"><title>Node14</title>
<g id="a_node14"><a xlink:title="STL class. ">
<polygon fill="white" stroke="#bfbfbf" points="691,-318.5 691,-337.5 813,-337.5 813,-318.5 691,-318.5"/>
<text text-anchor="middle" x="752" y="-325.5" font-family="FreeSans" font-size="10.00">std::vector&lt; TValue &gt;</text>
</a>
</g>
</g>
<!-- Node4&#45;&gt;Node14 -->
<g id="edge21" class="edge"><title>Node4&#45;&gt;Node14</title>
<path fill="none" stroke="#9a32cd" stroke-dasharray="5,2" d="M527.123,-316.265C564.684,-318.233 638.284,-322.091 690.842,-324.847"/>
<polygon fill="#9a32cd" stroke="#9a32cd" points="526.856,-312.746 516.687,-315.717 526.49,-319.736 526.856,-312.746"/>
<text text-anchor="middle" x="627" y="-327" font-family="FreeSans" font-size="10.00"> elements</text>
</g>
<!-- Node5 -->
<g id="node5" class="node"><title>Node5</title>
<g id="a_node5"><a xlink:href="classDGtal_1_1HyperRectDomain.html" target="_top" xlink:title="DGtal::HyperRectDomain\l\&lt; Space \&gt;">
<polygon fill="white" stroke="black" points="1019,-122 1019,-152 1155,-152 1155,-122 1019,-122"/>
<text text-anchor="start" x="1027" y="-140" font-family="FreeSans" font-size="10.00">DGtal::HyperRectDomain</text>
<text text-anchor="middle" x="1087" y="-129" font-family="FreeSans" font-size="10.00">&lt; Space &gt;</text>
</a>
</g>
</g>
<!-- Node5&#45;&gt;Node1 -->
<g id="edge24" class="edge"><title>Node5&#45;&gt;Node1</title>
<path fill="none" stroke="#9a32cd" stroke-dasharray="5,2" d="M1165.28,-125.181C1276.99,-108.095 1482.85,-76.6105 1598.48,-58.9262"/>
<polygon fill="#9a32cd" stroke="#9a32cd" points="1164.45,-121.766 1155.1,-126.738 1165.51,-128.686 1164.45,-121.766"/>
<text text-anchor="middle" x="1425" y="-103" font-family="FreeSans" font-size="10.00"> myDomain</text>
</g>
<!-- Node5&#45;&gt;Node2 -->
<g id="edge4" class="edge"><title>Node5&#45;&gt;Node2</title>
<path fill="none" stroke="#9a32cd" stroke-dasharray="5,2" d="M1165.25,-137C1215.05,-137 1280.04,-137 1332.43,-137"/>
<polygon fill="#9a32cd" stroke="#9a32cd" points="1165.19,-133.5 1155.19,-137 1165.19,-140.5 1165.19,-133.5"/>
<text text-anchor="middle" x="1256" y="-140" font-family="FreeSans" font-size="10.00"> myDomain</text>
</g>
<!-- Node6 -->
<g id="node6" class="node"><title>Node6</title>
<g id="a_node6"><a xlink:href="classDGtal_1_1HyperRectDomain__Iterator.html" target="_top" xlink:title="DGtal::HyperRectDomain\l_Iterator\&lt; TPoint \&gt;">
<polygon fill="white" stroke="black" points="434,-243 434,-273 570,-273 570,-243 434,-243"/>
<text text-anchor="start" x="442" y="-261" font-family="FreeSans" font-size="10.00">DGtal::HyperRectDomain</text>
<text text-anchor="middle" x="502" y="-250" font-family="FreeSans" font-size="10.00">_Iterator&lt; TPoint &gt;</text>
</a>
</g>
</g>
<!-- Node6&#45;&gt;Node5 -->
<g id="edge5" class="edge"><title>Node6&#45;&gt;Node5</title>
<path fill="none" stroke="#9a32cd" stroke-dasharray="5,2" d="M580.353,-253.687C675.379,-246.74 840.636,-229.27 976,-187 1004.83,-177.996 1036.03,-163.301 1057.82,-152.167"/>
<polygon fill="#9a32cd" stroke="#9a32cd" points="579.976,-250.205 570.25,-254.405 580.473,-257.187 579.976,-250.205"/>
<text text-anchor="middle" x="752" y="-258" font-family="FreeSans" font-size="10.00"> myIteratorEnd</text>
<text text-anchor="middle" x="752" y="-247" font-family="FreeSans" font-size="10.00">myIteratorBegin</text>
</g>
<!-- Node12 -->
<g id="node12" class="node"><title>Node12</title>
<g id="a_node12"><a xlink:href="classDGtal_1_1HyperRectDomain.html" target="_top" xlink:title="Aim: Parallelepidec region of a digital space, model of a &#39;CDomain&#39;. ">
<polygon fill="white" stroke="black" points="684,-169 684,-199 820,-199 820,-169 684,-169"/>
<text text-anchor="start" x="692" y="-187" font-family="FreeSans" font-size="10.00">DGtal::HyperRectDomain</text>
<text text-anchor="middle" x="752" y="-176" font-family="FreeSans" font-size="10.00">&lt; TSpace &gt;</text>
</a>
</g>
</g>
<!-- Node6&#45;&gt;Node12 -->
<g id="edge15" class="edge"><title>Node6&#45;&gt;Node12</title>
<path fill="none" stroke="#9a32cd" stroke-dasharray="5,2" d="M557.431,-238.917C561.737,-237.037 565.974,-235.058 570,-233 578.561,-228.624 579.165,-224.794 588,-221 605.265,-213.586 646.773,-204.205 683.58,-196.744"/>
<polygon fill="#9a32cd" stroke="#9a32cd" points="555.834,-235.791 547.949,-242.868 558.526,-242.252 555.834,-235.791"/>
<text text-anchor="middle" x="627" y="-235" font-family="FreeSans" font-size="10.00"> myIteratorEnd</text>
<text text-anchor="middle" x="627" y="-224" font-family="FreeSans" font-size="10.00">myIteratorBegin</text>
</g>
<!-- Node7 -->
<g id="node7" class="node"><title>Node7</title>
<polygon fill="white" stroke="#bfbfbf" points="11,-409.5 11,-428.5 57,-428.5 57,-409.5 11,-409.5"/>
<text text-anchor="middle" x="34" y="-416.5" font-family="FreeSans" font-size="10.00">TPoint</text>
</g>
<!-- Node7&#45;&gt;Node6 -->
<g id="edge6" class="edge"><title>Node7&#45;&gt;Node6</title>
<path fill="none" stroke="#9a32cd" stroke-dasharray="5,2" d="M67.17,-425.714C121.953,-435.513 235.611,-448.653 320,-410 374.009,-385.262 375.293,-360.265 416,-317 424.424,-308.047 424.512,-303.816 434,-296 444.631,-287.243 457.554,-279.381 469.203,-273.111"/>
<polygon fill="#9a32cd" stroke="#9a32cd" points="67.4978,-422.215 57.0246,-423.815 66.2099,-429.095 67.4978,-422.215"/>
<text text-anchor="middle" x="251" y="-462" font-family="FreeSans" font-size="10.00"> mylower</text>
<text text-anchor="middle" x="251" y="-451" font-family="FreeSans" font-size="10.00">myupper</text>
<text text-anchor="middle" x="251" y="-440" font-family="FreeSans" font-size="10.00">myPoint</text>
</g>
<!-- Node11 -->
<g id="node11" class="node"><title>Node11</title>
<g id="a_node11"><a xlink:href="structDGtal_1_1functors_1_1IsWithinPointPredicate.html" target="_top" xlink:title="Aim: The predicate returns true when the point is within the given bounds. ">
<polygon fill="white" stroke="black" points="182.5,-371 182.5,-401 319.5,-401 319.5,-371 182.5,-371"/>
<text text-anchor="start" x="190.5" y="-389" font-family="FreeSans" font-size="10.00">DGtal::functors::IsWithin</text>
<text text-anchor="middle" x="251" y="-378" font-family="FreeSans" font-size="10.00">PointPredicate&lt; TPoint &gt;</text>
</a>
</g>
</g>
<!-- Node7&#45;&gt;Node11 -->
<g id="edge12" class="edge"><title>Node7&#45;&gt;Node11</title>
<path fill="none" stroke="#9a32cd" stroke-dasharray="5,2" d="M66.6452,-407.232C72.9847,-405.222 79.6496,-403.35 86,-402 117.34,-395.336 152.648,-391.441 182.453,-389.167"/>
<polygon fill="#9a32cd" stroke="#9a32cd" points="65.4126,-403.954 57.0427,-410.449 67.6366,-410.591 65.4126,-403.954"/>
<text text-anchor="middle" x="125" y="-416" font-family="FreeSans" font-size="10.00"> myLowerBound</text>
<text text-anchor="middle" x="125" y="-405" font-family="FreeSans" font-size="10.00">myUpperBound</text>
</g>
<!-- Node8 -->
<g id="node8" class="node"><title>Node8</title>
<g id="a_node8"><a xlink:href="structDGtal_1_1functors_1_1IsWithinPointPredicate.html" target="_top" xlink:title="DGtal::functors::IsWithin\lPointPredicate\&lt; Point \&gt;">
<polygon fill="white" stroke="black" points="436,-194 436,-224 568,-224 568,-194 436,-194"/>
<text text-anchor="start" x="444" y="-212" font-family="FreeSans" font-size="10.00">DGtal::functors::IsWithin</text>
<text text-anchor="middle" x="502" y="-201" font-family="FreeSans" font-size="10.00">PointPredicate&lt; Point &gt;</text>
</a>
</g>
</g>
<!-- Node8&#45;&gt;Node5 -->
<g id="edge7" class="edge"><title>Node8&#45;&gt;Node5</title>
<path fill="none" stroke="#9a32cd" stroke-dasharray="5,2" d="M564.348,-190.333C566.263,-189.572 568.152,-188.793 570,-188 578.41,-184.391 579.589,-181.606 588,-178 629.085,-160.387 639.907,-155.348 684,-148 800.559,-128.577 938.709,-130.028 1018.95,-133.242"/>
<polygon fill="#9a32cd" stroke="#9a32cd" points="562.729,-187.203 554.602,-194 565.194,-193.754 562.729,-187.203"/>
<text text-anchor="middle" x="752" y="-151" font-family="FreeSans" font-size="10.00"> myPredicate</text>
</g>
<!-- Node8&#45;&gt;Node12 -->
<g id="edge16" class="edge"><title>Node8&#45;&gt;Node12</title>
<path fill="none" stroke="#9a32cd" stroke-dasharray="5,2" d="M562.727,-191.671C571.151,-189.776 579.75,-188.128 588,-187 619.268,-182.726 654.219,-181.606 683.715,-181.704"/>
<polygon fill="#9a32cd" stroke="#9a32cd" points="561.871,-188.277 552.95,-193.992 563.488,-195.087 561.871,-188.277"/>
<text text-anchor="middle" x="627" y="-190" font-family="FreeSans" font-size="10.00"> myPredicate</text>
</g>
<!-- Node9 -->
<g id="node9" class="node"><title>Node9</title>
<g id="a_node9"><a xlink:href="classDGtal_1_1PointVector.html" target="_top" xlink:title="Aim: Implements basic operations that will be used in Point and Vector classes. ">
<polygon fill="white" stroke="black" points="188,-101.5 188,-142.5 314,-142.5 314,-101.5 188,-101.5"/>
<text text-anchor="start" x="196" y="-130.5" font-family="FreeSans" font-size="10.00">DGtal::PointVector</text>
<text text-anchor="start" x="196" y="-119.5" font-family="FreeSans" font-size="10.00">&lt; dim, TEuclideanRing,</text>
<text text-anchor="middle" x="251" y="-108.5" font-family="FreeSans" font-size="10.00"> TContainer &gt;</text>
</a>
</g>
</g>
<!-- Node9&#45;&gt;Node1 -->
<g id="edge25" class="edge"><title>Node9&#45;&gt;Node1</title>
<path fill="none" stroke="#9a32cd" stroke-dasharray="5,2" d="M283.453,-94.8793C328.475,-58.9329 415.348,-0 501,-0 501,-0 501,-0 1426,-0 1497.62,-0 1578.73,-17.5223 1630.33,-30.9379"/>
<polygon fill="#9a32cd" stroke="#9a32cd" points="281.099,-92.2827 275.543,-101.304 285.512,-97.7161 281.099,-92.2827"/>
<text text-anchor="middle" x="907" y="-3" font-family="FreeSans" font-size="10.00"> myDiag</text>
</g>
<!-- Node9&#45;&gt;Node2 -->
<g id="edge18" class="edge"><title>Node9&#45;&gt;Node2</title>
<path fill="none" stroke="#9a32cd" stroke-dasharray="5,2" d="M324.488,-116.731C329.059,-116.464 333.592,-116.217 338,-116 711.772,-97.5678 806.433,-89.79 1180,-112 1230.48,-115.001 1286.63,-120.597 1332.33,-125.735"/>
<polygon fill="#9a32cd" stroke="#9a32cd" points="324.222,-113.241 314.454,-117.343 324.649,-120.228 324.222,-113.241"/>
<text text-anchor="middle" x="752" y="-104" font-family="FreeSans" font-size="10.00"> myExtent</text>
</g>
<!-- Node9&#45;&gt;Node5 -->
<g id="edge13" class="edge"><title>Node9&#45;&gt;Node5</title>
<path fill="none" stroke="#9a32cd" stroke-dasharray="5,2" d="M324.271,-120.847C454.591,-119.157 737.592,-117.274 976,-128 989.878,-128.624 1004.72,-129.617 1018.86,-130.719"/>
<polygon fill="#9a32cd" stroke="#9a32cd" points="323.975,-117.35 314.023,-120.983 324.069,-124.349 323.975,-117.35"/>
<text text-anchor="middle" x="627" y="-135" font-family="FreeSans" font-size="10.00"> myLowerBound</text>
<text text-anchor="middle" x="627" y="-124" font-family="FreeSans" font-size="10.00">myUpperBound</text>
</g>
<!-- Node9&#45;&gt;Node8 -->
<g id="edge8" class="edge"><title>Node9&#45;&gt;Node8</title>
<path fill="none" stroke="#9a32cd" stroke-dasharray="5,2" d="M296.007,-147.505C309.219,-154.478 323.943,-161.594 338,-167 369.367,-179.063 405.446,-188.763 435.673,-195.79"/>
<polygon fill="#9a32cd" stroke="#9a32cd" points="297.593,-144.383 287.129,-142.723 294.273,-150.546 297.593,-144.383"/>
<text text-anchor="middle" x="377" y="-205" font-family="FreeSans" font-size="10.00"> myLowerBound</text>
<text text-anchor="middle" x="377" y="-194" font-family="FreeSans" font-size="10.00">myUpperBound</text>
</g>
<!-- Node9&#45;&gt;Node9 -->
<g id="edge10" class="edge"><title>Node9&#45;&gt;Node9</title>
<path fill="none" stroke="#9a32cd" stroke-dasharray="5,2" d="M229.711,-152.601C233.106,-157.023 240.203,-160 251,-160 268.719,-160 276.471,-151.984 274.256,-142.716"/>
<polygon fill="#9a32cd" stroke="#9a32cd" points="233.129,-151.841 227.744,-142.716 226.263,-153.207 233.129,-151.841"/>
<text text-anchor="middle" x="251" y="-163" font-family="FreeSans" font-size="10.00"> zero</text>
</g>
<!-- Node9&#45;&gt;Node12 -->
<g id="edge17" class="edge"><title>Node9&#45;&gt;Node12</title>
<path fill="none" stroke="#9a32cd" stroke-dasharray="5,2" d="M324.135,-130.963C420.455,-142.93 589.801,-163.971 683.637,-175.63"/>
<polygon fill="#9a32cd" stroke="#9a32cd" points="324.545,-127.487 314.19,-129.727 323.682,-134.433 324.545,-127.487"/>
<text text-anchor="middle" x="502" y="-176" font-family="FreeSans" font-size="10.00"> myLowerBound</text>
<text text-anchor="middle" x="502" y="-165" font-family="FreeSans" font-size="10.00">myUpperBound</text>
</g>
<!-- Node13 -->
<g id="node13" class="node"><title>Node13</title>
<g id="a_node13"><a xlink:href="classDGtal_1_1ImageContainerBySTLVector.html" target="_top" xlink:title="DGtal::ImageContainerBySTLVector\l\&lt; TDomain, TValue \&gt;">
<polygon fill="white" stroke="black" points="994.5,-323 994.5,-353 1179.5,-353 1179.5,-323 994.5,-323"/>
<text text-anchor="start" x="1002.5" y="-341" font-family="FreeSans" font-size="10.00">DGtal::ImageContainerBySTLVector</text>
<text text-anchor="middle" x="1087" y="-330" font-family="FreeSans" font-size="10.00">&lt; TDomain, TValue &gt;</text>
</a>
</g>
</g>
<!-- Node9&#45;&gt;Node13 -->
<g id="edge23" class="edge"><title>Node9&#45;&gt;Node13</title>
<path fill="none" stroke="#9a32cd" stroke-dasharray="5,2" d="M266.979,-151.522C293.279,-199.76 352.776,-294.094 434,-334 529.818,-381.077 838.405,-360.951 994.199,-347.097"/>
<polygon fill="#9a32cd" stroke="#9a32cd" points="269.967,-149.687 262.165,-142.519 263.794,-152.988 269.967,-149.687"/>
<text text-anchor="middle" x="627" y="-367" font-family="FreeSans" font-size="10.00"> myExtent</text>
</g>
<!-- Node10 -->
<g id="node10" class="node"><title>Node10</title>
<polygon fill="white" stroke="#bfbfbf" points="0,-112.5 0,-131.5 68,-131.5 68,-112.5 0,-112.5"/>
<text text-anchor="middle" x="34" y="-119.5" font-family="FreeSans" font-size="10.00">TContainer</text>
</g>
<!-- Node10&#45;&gt;Node9 -->
<g id="edge9" class="edge"><title>Node10&#45;&gt;Node9</title>
<path fill="none" stroke="#9a32cd" stroke-dasharray="5,2" d="M78.3118,-122C109.746,-122 152.733,-122 187.829,-122"/>
<polygon fill="#9a32cd" stroke="#9a32cd" points="78.1226,-118.5 68.1226,-122 78.1225,-125.5 78.1226,-118.5"/>
<text text-anchor="middle" x="125" y="-125" font-family="FreeSans" font-size="10.00"> myArray</text>
</g>
<!-- Node11&#45;&gt;Node8 -->
<g id="edge11" class="edge"><title>Node11&#45;&gt;Node8</title>
<path fill="none" stroke="orange" stroke-dasharray="5,2" d="M273.281,-363.627C305.396,-330.975 369.386,-270.125 434,-233 439.785,-229.676 446.111,-226.687 452.492,-224.038"/>
<polygon fill="orange" stroke="orange" points="270.658,-361.304 266.188,-370.909 275.672,-366.188 270.658,-361.304"/>
<text text-anchor="middle" x="377" y="-305" font-family="FreeSans" font-size="10.00"> &lt; Point &gt;</text>
</g>
<!-- Node12&#45;&gt;Node5 -->
<g id="edge14" class="edge"><title>Node12&#45;&gt;Node5</title>
<path fill="none" stroke="orange" stroke-dasharray="5,2" d="M830.453,-173.068C887.576,-165.006 964.512,-154.147 1019,-146.457"/>
<polygon fill="orange" stroke="orange" points="829.8,-169.626 820.388,-174.489 830.779,-176.557 829.8,-169.626"/>
<text text-anchor="middle" x="907" y="-175" font-family="FreeSans" font-size="10.00"> &lt; Space &gt;</text>
</g>
<!-- Node13&#45;&gt;Node2 -->
<g id="edge19" class="edge"><title>Node13&#45;&gt;Node2</title>
<path fill="none" stroke="orange" stroke-dasharray="5,2" d="M1189.86,-336.316C1231.1,-331.54 1277.5,-320.604 1314,-297 1370.05,-260.759 1405.2,-184.865 1418.25,-152.336"/>
<polygon fill="orange" stroke="orange" points="1189.35,-332.85 1179.77,-337.376 1190.08,-339.812 1189.35,-332.85"/>
<text text-anchor="middle" x="1256" y="-338" font-family="FreeSans" font-size="10.00"> &lt; Domain, Storage * &gt;</text>
</g>
<!-- Node14&#45;&gt;Node13 -->
<g id="edge20" class="edge"><title>Node14&#45;&gt;Node13</title>
<path fill="none" stroke="midnightblue" d="M823.339,-330.112C873.148,-331.608 940.425,-333.628 994.42,-335.25"/>
<polygon fill="midnightblue" stroke="midnightblue" points="823.404,-326.613 813.304,-329.811 823.194,-333.61 823.404,-326.613"/>
</g>
<!-- Node15 -->
<g id="node15" class="node"><title>Node15</title>
<polygon fill="white" stroke="#bfbfbf" points="722.5,-394.5 722.5,-413.5 781.5,-413.5 781.5,-394.5 722.5,-394.5"/>
<text text-anchor="middle" x="752" y="-401.5" font-family="FreeSans" font-size="10.00">TDomain</text>
</g>
<!-- Node15&#45;&gt;Node13 -->
<g id="edge22" class="edge"><title>Node15&#45;&gt;Node13</title>
<path fill="none" stroke="#9a32cd" stroke-dasharray="5,2" d="M791.736,-402.848C836.627,-400.822 912.56,-395.254 976,-380 1002.63,-373.596 1031.52,-362.389 1053.01,-353.161"/>
<polygon fill="#9a32cd" stroke="#9a32cd" points="791.407,-399.358 781.561,-403.27 791.697,-406.352 791.407,-399.358"/>
<text text-anchor="middle" x="907" y="-403" font-family="FreeSans" font-size="10.00"> myDomain</text>
</g>
</g>
</svg>
        <g id="navigator" transform="translate(0 0)" fill="#404254">
                <rect fill="#f2f5e9" fill-opacity="0.5" stroke="#606060" stroke-width=".5" x="0" y="0" width="60" height="60"/>
                <use id="zoomplus" xlink:href="#zoomPlus" x="17" y="9" onmousedown="handleZoom(evt,'in')"/>
                <use id="zoomminus" xlink:href="#zoomMin" x="42" y="9" onmousedown="handleZoom(evt,'out')"/>
                <use id="reset" xlink:href="#resetDef" x="30" y="36" onmousedown="handleReset()"/>
                <g id="arrowUp" xlink:href="#dirArrow" transform="translate(30 24)" onmousedown="handlePan(0,-1)">
                  <use xlink:href="#rim" fill="#404040">
                        <set attributeName="fill" to="#808080" begin="arrowUp.mouseover" end="arrowUp.mouseout"/>
                  </use>
                  <path fill="none" stroke="white" stroke-width="1.5" d="M0,-3.0v7 M-2.5,-0.5L0,-3.0L2.5,-0.5"/>
                </g>
                <g id="arrowRight" xlink:href="#dirArrow" transform="rotate(90) translate(36 -43)" onmousedown="handlePan(1,0)">
                  <use xlink:href="#rim" fill="#404040">
                        <set attributeName="fill" to="#808080" begin="arrowRight.mouseover" end="arrowRight.mouseout"/>
                  </use>
                  <path fill="none" stroke="white" stroke-width="1.5" d="M0,-3.0v7 M-2.5,-0.5L0,-3.0L2.5,-0.5"/>
                </g>
                <g id="arrowDown" xlink:href="#dirArrow" transform="rotate(180) translate(-30 -48)" onmousedown="handlePan(0,1)">
                  <use xlink:href="#rim" fill="#404040">
                        <set attributeName="fill" to="#808080" begin="arrowDown.mouseover" end="arrowDown.mouseout"/>
                  </use>
                  <path fill="none" stroke="white" stroke-width="1.5" d="M0,-3.0v7 M-2.5,-0.5L0,-3.0L2.5,-0.5"/>
                </g>
                <g id="arrowLeft" xlink:href="#dirArrow" transform="rotate(270) translate(-36 17)" onmousedown="handlePan(-1,0)">
                  <use xlink:href="#rim" fill="#404040">
                        <set attributeName="fill" to="#808080" begin="arrowLeft.mouseover" end="arrowLeft.mouseout"/>
                  </use>
                  <path fill="none" stroke="white" stroke-width="1.5" d="M0,-3.0v7 M-2.5,-0.5L0,-3.0L2.5,-0.5"/>
                </g>
        </g>
        <svg viewBox="0 0 15 15" width="100%" height="30px" preserveAspectRatio="xMaxYMin meet">
         <g id="arrow_out" transform="scale(0.3 0.3)">
          <a xlink:href="classDGtal_1_1SpatialCubicalSubdivision__coll__graph_org.svg" target="_base">
           <rect id="button" ry="5" rx="5" y="6" x="6" height="38" width="38"
                fill="#f2f5e9" fill-opacity="0.5" stroke="#606060" stroke-width="1.0"/>
           <path id="arrow"
             d="M 11.500037,31.436501 C 11.940474,20.09759 22.043105,11.32322 32.158766,21.979434 L 37.068811,17.246167 C 37.068811,17.246167 37.088388,32 37.088388,32 L 22.160133,31.978069 C 22.160133,31.978069 26.997745,27.140456 26.997745,27.140456 C 18.528582,18.264221 13.291696,25.230495 11.500037,31.436501 z"
             style="fill:#404040;"/>
          </a>
         </g>
        </svg>
</svg>
