<?xml version="1.0" encoding="UTF-8" standalone="no"?>
<!DOCTYPE svg PUBLIC "-//W3C//DTD SVG 1.1//EN"
 "http://www.w3.org/Graphics/SVG/1.1/DTD/svg11.dtd">
<!-- Generated by graphviz version 2.36.0 (20140111.2315)
 -->
<!-- Title: DGtal::functors::IIFirstPrincipalDirectionFunctor&lt; TSpace, TMatrix &gt; Pages: 1 -->
<svg width="181pt" height="208pt"
 viewBox="0.00 0.00 181.00 208.00" xmlns="http://www.w3.org/2000/svg" xmlns:xlink="http://www.w3.org/1999/xlink">
<g id="graph0" class="graph" transform="scale(1 1) rotate(0) translate(4 204)">
<title>DGtal::functors::IIFirstPrincipalDirectionFunctor&lt; TSpace, TMatrix &gt;</title>
<polygon fill="white" stroke="none" points="-4,4 -4,-204 177,-204 177,4 -4,4"/>
<!-- Node1 -->
<g id="node1" class="node"><title>Node1</title>
<polygon fill="#bfbfbf" stroke="black" points="0,-0.5 0,-41.5 134,-41.5 134,-0.5 0,-0.5"/>
<text text-anchor="start" x="8" y="-29.5" font-family="FreeSans" font-size="10.00">DGtal::functors::IIFirst</text>
<text text-anchor="start" x="8" y="-18.5" font-family="FreeSans" font-size="10.00">PrincipalDirectionFunctor</text>
<text text-anchor="middle" x="67" y="-7.5" font-family="FreeSans" font-size="10.00">&lt; TSpace, TMatrix &gt;</text>
</g>
<!-- Node2 -->
<g id="node2" class="node"><title>Node2</title>
<g id="a_node2"><a xlink:href="classDGtal_1_1PointVector.html" target="_top" xlink:title="Aim: Implements basic operations that will be used in Point and Vector classes. ">
<polygon fill="white" stroke="black" points="4,-90.5 4,-131.5 130,-131.5 130,-90.5 4,-90.5"/>
<text text-anchor="start" x="12" y="-119.5" font-family="FreeSans" font-size="10.00">DGtal::PointVector</text>
<text text-anchor="start" x="12" y="-108.5" font-family="FreeSans" font-size="10.00">&lt; dim, TEuclideanRing,</text>
<text text-anchor="middle" x="67" y="-97.5" font-family="FreeSans" font-size="10.00"> TContainer &gt;</text>
</a>
</g>
</g>
<!-- Node2&#45;&gt;Node1 -->
<g id="edge1" class="edge"><title>Node2&#45;&gt;Node1</title>
<path fill="none" stroke="#9a32cd" stroke-dasharray="5,2" d="M67,-80.3298C67,-67.6289 67,-53.1399 67,-41.7798"/>
<polygon fill="#9a32cd" stroke="#9a32cd" points="63.5001,-80.4699 67,-90.4699 70.5001,-80.47 63.5001,-80.4699"/>
<text text-anchor="middle" x="97.5" y="-63.5" font-family="FreeSans" font-size="10.00"> eigenValues</text>
</g>
<!-- Node2&#45;&gt;Node2 -->
<g id="edge3" class="edge"><title>Node2&#45;&gt;Node2</title>
<path fill="none" stroke="#9a32cd" stroke-dasharray="5,2" d="M140.09,-116.937C145.012,-115.566 148,-113.588 148,-111 148,-106.961 140.719,-104.405 130.168,-103.332"/>
<polygon fill="#9a32cd" stroke="#9a32cd" points="139.418,-113.501 130.168,-118.668 140.621,-120.397 139.418,-113.501"/>
<text text-anchor="middle" x="160.5" y="-108.5" font-family="FreeSans" font-size="10.00"> zero</text>
</g>
<!-- Node3 -->
<g id="node3" class="node"><title>Node3</title>
<polygon fill="white" stroke="#bfbfbf" points="33,-180.5 33,-199.5 101,-199.5 101,-180.5 33,-180.5"/>
<text text-anchor="middle" x="67" y="-187.5" font-family="FreeSans" font-size="10.00">TContainer</text>
</g>
<!-- Node3&#45;&gt;Node2 -->
<g id="edge2" class="edge"><title>Node3&#45;&gt;Node2</title>
<path fill="none" stroke="#9a32cd" stroke-dasharray="5,2" d="M67,-170.149C67,-158.503 67,-143.581 67,-131.768"/>
<polygon fill="#9a32cd" stroke="#9a32cd" points="63.5001,-170.465 67,-180.465 70.5001,-170.465 63.5001,-170.465"/>
<text text-anchor="middle" x="89" y="-153.5" font-family="FreeSans" font-size="10.00"> myArray</text>
</g>
</g>
</svg>
