<?xml version="1.0" encoding="UTF-8" standalone="no"?>
<!DOCTYPE svg PUBLIC "-//W3C//DTD SVG 1.1//EN"
 "http://www.w3.org/Graphics/SVG/1.1/DTD/svg11.dtd">
<!-- Generated by graphviz version 2.36.0 (20140111.2315)
 -->
<!-- Title: DGtal::LighterSternBrocot&lt; TInteger, TQuotient, TMap &gt; Pages: 1 -->
<svg width="235pt" height="218pt"
 viewBox="0.00 0.00 235.00 218.00" xmlns="http://www.w3.org/2000/svg" xmlns:xlink="http://www.w3.org/1999/xlink">
<g id="graph0" class="graph" transform="scale(1 1) rotate(0) translate(4 214)">
<title>DGtal::LighterSternBrocot&lt; TInteger, TQuotient, TMap &gt;</title>
<polygon fill="white" stroke="none" points="-4,4 -4,-214 231,-214 231,4 -4,4"/>
<!-- Node1 -->
<g id="node1" class="node"><title>Node1</title>
<polygon fill="#bfbfbf" stroke="black" points="0,-1 0,-31 162,-31 162,-1 0,-1"/>
<text text-anchor="start" x="8" y="-19" font-family="FreeSans" font-size="10.00">DGtal::LighterSternBrocot</text>
<text text-anchor="middle" x="81" y="-8" font-family="FreeSans" font-size="10.00">&lt; TInteger, TQuotient, TMap &gt;</text>
</g>
<!-- Node1&#45;&gt;Node1 -->
<g id="edge1" class="edge"><title>Node1&#45;&gt;Node1</title>
<path fill="none" stroke="#9a32cd" stroke-dasharray="5,2" d="M172.171,-21.4786C177.084,-20.1385 180,-18.3123 180,-16 180,-12.3906 172.894,-9.96558 162.18,-8.72485"/>
<polygon fill="#9a32cd" stroke="#9a32cd" points="171.402,-18.0606 162.18,-23.2751 172.641,-24.9501 171.402,-18.0606"/>
<text text-anchor="middle" x="203.5" y="-13.5" font-family="FreeSans" font-size="10.00"> singleton</text>
</g>
<!-- Node2 -->
<g id="node2" class="node"><title>Node2</title>
<g id="a_node2"><a xlink:href="structDGtal_1_1LighterSternBrocot_1_1Node.html" target="_top" xlink:title="DGtal::LighterSternBrocot\l\&lt; TInteger, TQuotient,\l TMap \&gt;::Node">
<polygon fill="white" stroke="black" points="11,-90.5 11,-131.5 151,-131.5 151,-90.5 11,-90.5"/>
<text text-anchor="start" x="19" y="-119.5" font-family="FreeSans" font-size="10.00">DGtal::LighterSternBrocot</text>
<text text-anchor="start" x="19" y="-108.5" font-family="FreeSans" font-size="10.00">&lt; TInteger, TQuotient,</text>
<text text-anchor="middle" x="81" y="-97.5" font-family="FreeSans" font-size="10.00"> TMap &gt;::Node</text>
</a>
</g>
</g>
<!-- Node2&#45;&gt;Node1 -->
<g id="edge2" class="edge"><title>Node2&#45;&gt;Node1</title>
<path fill="none" stroke="#9a32cd" stroke-dasharray="5,2" d="M81,-80.0762C81,-63.7067 81,-44.1839 81,-31.2386"/>
<polygon fill="#9a32cd" stroke="#9a32cd" points="77.5001,-80.2771 81,-90.2771 84.5001,-80.2771 77.5001,-80.2771"/>
<text text-anchor="middle" x="121.5" y="-64" font-family="FreeSans" font-size="10.00"> myOneOverOne</text>
<text text-anchor="middle" x="121.5" y="-53" font-family="FreeSans" font-size="10.00">myOneOverZero</text>
</g>
<!-- Node2&#45;&gt;Node2 -->
<g id="edge3" class="edge"><title>Node2&#45;&gt;Node2</title>
<path fill="none" stroke="#9a32cd" stroke-dasharray="5,2" d="M161.078,-117.544C166.024,-115.996 169,-113.815 169,-111 169,-106.605 161.749,-103.756 151.071,-102.451"/>
<polygon fill="#9a32cd" stroke="#9a32cd" points="160.188,-114.152 151.071,-119.549 161.564,-121.016 160.188,-114.152"/>
<text text-anchor="middle" x="192" y="-108.5" font-family="FreeSans" font-size="10.00"> myOrigin</text>
</g>
<!-- Node3 -->
<g id="node3" class="node"><title>Node3</title>
<polygon fill="white" stroke="#bfbfbf" points="53,-190.5 53,-209.5 109,-209.5 109,-190.5 53,-190.5"/>
<text text-anchor="middle" x="81" y="-197.5" font-family="FreeSans" font-size="10.00">TInteger</text>
</g>
<!-- Node3&#45;&gt;Node2 -->
<g id="edge4" class="edge"><title>Node3&#45;&gt;Node2</title>
<path fill="none" stroke="#9a32cd" stroke-dasharray="5,2" d="M81,-180.2C81,-165.879 81,-146.215 81,-131.68"/>
<polygon fill="#9a32cd" stroke="#9a32cd" points="77.5001,-180.34 81,-190.34 84.5001,-180.34 77.5001,-180.34"/>
<text text-anchor="middle" x="86" y="-164" font-family="FreeSans" font-size="10.00"> p</text>
<text text-anchor="middle" x="86" y="-153" font-family="FreeSans" font-size="10.00">q</text>
</g>
</g>
</svg>
