<?xml version="1.0" encoding="UTF-8" standalone="no"?>
<!DOCTYPE svg PUBLIC "-//W3C//DTD SVG 1.1//EN"
 "http://www.w3.org/Graphics/SVG/1.1/DTD/svg11.dtd">
<!-- Generated by graphviz version 2.40.1 (20161225.0304)
 -->
<!-- Title: cubical&#45;complex&#45;collapse.cpp Pages: 1 -->
<svg width="2838pt" height="712pt"
 viewBox="0.00 0.00 2838.00 712.00" xmlns="http://www.w3.org/2000/svg" xmlns:xlink="http://www.w3.org/1999/xlink">
<g id="graph0" class="graph" transform="scale(1 1) rotate(0) translate(4 708)">
<title>cubical&#45;complex&#45;collapse.cpp</title>
<polygon fill="#ffffff" stroke="transparent" points="-4,4 -4,-708 2834,-708 2834,4 -4,4"/>
<!-- Node0 -->
<g id="node1" class="node">
<title>Node0</title>
<polygon fill="#bfbfbf" stroke="#000000" points="882.6924,-685.5 882.6924,-703.5 1029.3076,-703.5 1029.3076,-685.5 882.6924,-685.5"/>
<text text-anchor="middle" x="956" y="-691.5" font-family="FreeSans" font-size="10.00" fill="#000000">cubical&#45;complex&#45;collapse.cpp</text>
</g>
<!-- Node1 -->
<g id="node2" class="node">
<title>Node1</title>
<polygon fill="#ffffff" stroke="#bfbfbf" points="1183.8276,-.5 1183.8276,-18.5 1238.1724,-18.5 1238.1724,-.5 1183.8276,-.5"/>
<text text-anchor="middle" x="1211" y="-6.5" font-family="FreeSans" font-size="10.00" fill="#000000">iostream</text>
</g>
<!-- Node0&#45;&gt;Node1 -->
<g id="edge1" class="edge">
<title>Node0&#45;&gt;Node1</title>
<path fill="none" stroke="#191970" d="M882.5717,-692.6016C658.7124,-685.8487 0,-658.4233 0,-569.5 0,-569.5 0,-569.5 0,-119.5 0,-79.4278 26.3843,-71.2808 63,-55 114.846,-31.9472 981.7123,-13.9242 1173.5943,-10.2058"/>
<polygon fill="#191970" stroke="#191970" points="1173.8126,-13.7023 1183.7433,-10.0103 1173.6777,-6.7036 1173.8126,-13.7023"/>
</g>
<!-- Node2 -->
<g id="node3" class="node">
<title>Node2</title>
<polygon fill="#ffffff" stroke="#bfbfbf" points="704.2734,-295.5 704.2734,-313.5 739.7266,-313.5 739.7266,-295.5 704.2734,-295.5"/>
<text text-anchor="middle" x="722" y="-301.5" font-family="FreeSans" font-size="10.00" fill="#000000">map</text>
</g>
<!-- Node0&#45;&gt;Node2 -->
<g id="edge2" class="edge">
<title>Node0&#45;&gt;Node2</title>
<path fill="none" stroke="#191970" d="M920.5721,-685.4842C871.0158,-670.4957 787,-635.3714 787,-569.5 787,-569.5 787,-569.5 787,-504.5 787,-434.3852 750.4211,-356.9158 732.144,-322.5834"/>
<polygon fill="#191970" stroke="#191970" points="735.1763,-320.8333 727.3192,-313.7258 729.0291,-324.1818 735.1763,-320.8333"/>
</g>
<!-- Node3 -->
<g id="node4" class="node">
<title>Node3</title>
<g id="a_node4"><a xlink:href="Common_8h_source.html" target="_top" xlink:title="DGtal/base/Common.h">
<polygon fill="#ffffff" stroke="#000000" points="1329.1455,-230.5 1329.1455,-248.5 1446.8545,-248.5 1446.8545,-230.5 1329.1455,-230.5"/>
<text text-anchor="middle" x="1388" y="-236.5" font-family="FreeSans" font-size="10.00" fill="#000000">DGtal/base/Common.h</text>
</a>
</g>
</g>
<!-- Node0&#45;&gt;Node3 -->
<g id="edge3" class="edge">
<title>Node0&#45;&gt;Node3</title>
<path fill="none" stroke="#191970" d="M956,-685.4032C956,-664.7827 956,-612.9028 956,-569.5 956,-569.5 956,-569.5 956,-504.5 956,-443.0504 1000.3183,-441.6528 1032,-389 1059.1754,-343.8362 1045.8037,-315.2051 1089,-285 1125.1371,-259.7311 1242.5615,-248.0339 1319.0543,-242.977"/>
<polygon fill="#191970" stroke="#191970" points="1319.3423,-246.4658 1329.0989,-242.3354 1318.8961,-239.48 1319.3423,-246.4658"/>
</g>
<!-- Node43 -->
<g id="node26" class="node">
<title>Node43</title>
<g id="a_node26"><a xlink:href="StdDefs_8h_source.html" target="_top" xlink:title="DGtal/helpers/StdDefs.h">
<polygon fill="#ffffff" stroke="#000000" points="1046.0864,-560.5 1046.0864,-578.5 1169.9136,-578.5 1169.9136,-560.5 1046.0864,-560.5"/>
<text text-anchor="middle" x="1108" y="-566.5" font-family="FreeSans" font-size="10.00" fill="#000000">DGtal/helpers/StdDefs.h</text>
</a>
</g>
</g>
<!-- Node0&#45;&gt;Node43 -->
<g id="edge42" class="edge">
<title>Node0&#45;&gt;Node43</title>
<path fill="none" stroke="#191970" d="M967.4247,-685.1047C993.4097,-663.7354 1057.1533,-611.3147 1089.1021,-585.041"/>
<polygon fill="#191970" stroke="#191970" points="1091.3552,-587.7197 1096.8558,-578.6646 1086.909,-582.3131 1091.3552,-587.7197"/>
</g>
<!-- Node119 -->
<g id="node36" class="node">
<title>Node119</title>
<g id="a_node36"><a xlink:href="KhalimskySpaceND_8h_source.html" target="_top" xlink:title="DGtal/topology/Khalimsky\lSpaceND.h">
<polygon fill="#ffffff" stroke="#ff0000" points="628.7539,-425.5 628.7539,-453.5 759.2461,-453.5 759.2461,-425.5 628.7539,-425.5"/>
<text text-anchor="start" x="636.7539" y="-441.5" font-family="FreeSans" font-size="10.00" fill="#000000">DGtal/topology/Khalimsky</text>
<text text-anchor="middle" x="694" y="-431.5" font-family="FreeSans" font-size="10.00" fill="#000000">SpaceND.h</text>
</a>
</g>
</g>
<!-- Node0&#45;&gt;Node119 -->
<g id="edge129" class="edge">
<title>Node0&#45;&gt;Node119</title>
<path fill="none" stroke="#191970" d="M894.502,-685.4756C848.6509,-677.6205 790.9797,-664.9917 773,-649 717.5737,-599.7022 700.8827,-507.4901 695.9766,-463.7349"/>
<polygon fill="#191970" stroke="#191970" points="699.4515,-463.3091 694.9667,-453.7103 692.4867,-464.0108 699.4515,-463.3091"/>
</g>
<!-- Node161 -->
<g id="node42" class="node">
<title>Node161</title>
<g id="a_node42"><a xlink:href="DrawWithDisplay3DModifier_8h_source.html" target="_top" xlink:title="DGtal/io/DrawWithDisplay3\lDModifier.h">
<polygon fill="#ffffff" stroke="#000000" points="1761.707,-620.5 1761.707,-648.5 1898.293,-648.5 1898.293,-620.5 1761.707,-620.5"/>
<text text-anchor="start" x="1769.707" y="-636.5" font-family="FreeSans" font-size="10.00" fill="#000000">DGtal/io/DrawWithDisplay3</text>
<text text-anchor="middle" x="1830" y="-626.5" font-family="FreeSans" font-size="10.00" fill="#000000">DModifier.h</text>
</a>
</g>
</g>
<!-- Node0&#45;&gt;Node161 -->
<g id="edge105" class="edge">
<title>Node0&#45;&gt;Node161</title>
<path fill="none" stroke="#191970" d="M1029.3881,-689.4619C1192.4735,-678.2661 1583.8086,-651.401 1751.5256,-639.8873"/>
<polygon fill="#191970" stroke="#191970" points="1751.7837,-643.3779 1761.5204,-639.2011 1751.3042,-636.3943 1751.7837,-643.3779"/>
</g>
<!-- Node166 -->
<g id="node45" class="node">
<title>Node166</title>
<g id="a_node45"><a xlink:href="Viewer3D_8h_source.html" target="_top" xlink:title="DGtal/io/viewers/Viewer3D.h">
<polygon fill="#ffffff" stroke="#ff0000" points="419.4551,-495.5 419.4551,-513.5 562.5449,-513.5 562.5449,-495.5 419.4551,-495.5"/>
<text text-anchor="middle" x="491" y="-501.5" font-family="FreeSans" font-size="10.00" fill="#000000">DGtal/io/viewers/Viewer3D.h</text>
</a>
</g>
</g>
<!-- Node0&#45;&gt;Node166 -->
<g id="edge118" class="edge">
<title>Node0&#45;&gt;Node166</title>
<path fill="none" stroke="#191970" d="M882.6624,-689.1834C779.7073,-681.1937 602.0333,-665.2837 577,-649 531.0293,-619.0969 506.2176,-555.2725 496.2653,-523.4109"/>
<polygon fill="#191970" stroke="#191970" points="499.5501,-522.1764 493.3544,-513.582 492.8382,-524.1642 499.5501,-522.1764"/>
</g>
<!-- Node187 -->
<g id="node49" class="node">
<title>Node187</title>
<g id="a_node49"><a xlink:href="CubicalComplex_8h_source.html" target="_top" xlink:title="DGtal/topology/CubicalComplex.h">
<polygon fill="#ffffff" stroke="#ff0000" points="1249.9634,-430.5 1249.9634,-448.5 1416.0366,-448.5 1416.0366,-430.5 1249.9634,-430.5"/>
<text text-anchor="middle" x="1333" y="-436.5" font-family="FreeSans" font-size="10.00" fill="#000000">DGtal/topology/CubicalComplex.h</text>
</a>
</g>
</g>
<!-- Node0&#45;&gt;Node187 -->
<g id="edge130" class="edge">
<title>Node0&#45;&gt;Node187</title>
<path fill="none" stroke="#191970" d="M979.7136,-685.4629C1021.8748,-668.8216 1111.7605,-630.7219 1179,-584 1229.0918,-549.1933 1234.5021,-531.7208 1279,-490 1291.2373,-478.5265 1305.0532,-465.6067 1315.6468,-455.7073"/>
<polygon fill="#191970" stroke="#191970" points="1318.1224,-458.1843 1323.0402,-448.7999 1313.3436,-453.0693 1318.1224,-458.1843"/>
</g>
<!-- Node196 -->
<g id="node50" class="node">
<title>Node196</title>
<g id="a_node50"><a xlink:href="CubicalComplexFunctions_8h_source.html" target="_top" xlink:title="DGtal/topology/CubicalComplex\lFunctions.h">
<polygon fill="#ffffff" stroke="#ff0000" points="1500.1333,-490.5 1500.1333,-518.5 1657.8667,-518.5 1657.8667,-490.5 1500.1333,-490.5"/>
<text text-anchor="start" x="1508.1333" y="-506.5" font-family="FreeSans" font-size="10.00" fill="#000000">DGtal/topology/CubicalComplex</text>
<text text-anchor="middle" x="1579" y="-496.5" font-family="FreeSans" font-size="10.00" fill="#000000">Functions.h</text>
</a>
</g>
</g>
<!-- Node0&#45;&gt;Node196 -->
<g id="edge137" class="edge">
<title>Node0&#45;&gt;Node196</title>
<path fill="none" stroke="#191970" d="M1029.3285,-690.2705C1094.6615,-685.0367 1192.2899,-673.5865 1274,-649 1378.4889,-617.5594 1492.3573,-555.3951 1546.6656,-523.8446"/>
<polygon fill="#191970" stroke="#191970" points="1548.6156,-526.7588 1555.4796,-518.6881 1545.0808,-520.7168 1548.6156,-526.7588"/>
</g>
<!-- Node3&#45;&gt;Node1 -->
<g id="edge4" class="edge">
<title>Node3&#45;&gt;Node1</title>
<path fill="none" stroke="#191970" d="M1410.1717,-230.424C1429.8638,-222.0063 1459.1362,-208.6069 1483,-194 1501.1202,-182.9087 1503.0063,-176.2954 1521,-165 1550.9653,-146.1896 1567.9145,-154.916 1592,-129 1615.4461,-103.772 1637.9502,-80.68 1615,-55 1590.7746,-27.8931 1343.8755,-14.9471 1248.405,-10.9258"/>
<polygon fill="#191970" stroke="#191970" points="1248.4619,-7.4252 1238.3264,-10.5109 1248.1739,-14.4193 1248.4619,-7.4252"/>
</g>
<!-- Node4 -->
<g id="node5" class="node">
<title>Node4</title>
<polygon fill="#ffffff" stroke="#bfbfbf" points="1529.5962,-170.5 1529.5962,-188.5 1588.4038,-188.5 1588.4038,-170.5 1529.5962,-170.5"/>
<text text-anchor="middle" x="1559" y="-176.5" font-family="FreeSans" font-size="10.00" fill="#000000">exception</text>
</g>
<!-- Node3&#45;&gt;Node4 -->
<g id="edge5" class="edge">
<title>Node3&#45;&gt;Node4</title>
<path fill="none" stroke="#191970" d="M1413.9712,-230.3873C1443.2677,-220.1078 1491.0757,-203.3331 1523.7332,-191.8743"/>
<polygon fill="#191970" stroke="#191970" points="1525.0675,-195.1154 1533.3447,-188.5019 1522.7498,-188.5102 1525.0675,-195.1154"/>
</g>
<!-- Node5 -->
<g id="node6" class="node">
<title>Node5</title>
<polygon fill="#ffffff" stroke="#bfbfbf" points="1010.436,-110.5 1010.436,-128.5 1067.564,-128.5 1067.564,-110.5 1010.436,-110.5"/>
<text text-anchor="middle" x="1039" y="-116.5" font-family="FreeSans" font-size="10.00" fill="#000000">algorithm</text>
</g>
<!-- Node3&#45;&gt;Node5 -->
<g id="edge6" class="edge">
<title>Node3&#45;&gt;Node5</title>
<path fill="none" stroke="#191970" d="M1355.5156,-230.4366C1329.0729,-222.4782 1291.1605,-209.7284 1260,-194 1239.4217,-183.613 1238.0308,-174.4373 1217,-165 1171.2482,-144.4694 1114.5571,-131.995 1077.6189,-125.4251"/>
<polygon fill="#191970" stroke="#191970" points="1078.1985,-121.9734 1067.7498,-123.7268 1077.0114,-128.872 1078.1985,-121.9734"/>
</g>
<!-- Node6 -->
<g id="node7" class="node">
<title>Node6</title>
<polygon fill="#ffffff" stroke="#bfbfbf" points="1606.5298,-170.5 1606.5298,-188.5 1701.4702,-188.5 1701.4702,-170.5 1606.5298,-170.5"/>
<text text-anchor="middle" x="1654" y="-176.5" font-family="FreeSans" font-size="10.00" fill="#000000">boost/version.hpp</text>
</g>
<!-- Node3&#45;&gt;Node6 -->
<g id="edge7" class="edge">
<title>Node3&#45;&gt;Node6</title>
<path fill="none" stroke="#191970" d="M1431.7319,-230.4412C1474.0862,-221.5589 1540.0763,-207.4323 1597,-194 1601.0808,-193.0371 1605.319,-192.01 1609.5591,-190.9641"/>
<polygon fill="#191970" stroke="#191970" points="1610.5289,-194.3295 1619.383,-188.5109 1608.8329,-187.538 1610.5289,-194.3295"/>
</g>
<!-- Node7 -->
<g id="node8" class="node">
<title>Node7</title>
<polygon fill="#ffffff" stroke="#bfbfbf" points="2216.2935,-170.5 2216.2935,-188.5 2345.7065,-188.5 2345.7065,-170.5 2216.2935,-170.5"/>
<text text-anchor="middle" x="2281" y="-176.5" font-family="FreeSans" font-size="10.00" fill="#000000">boost/concept_check.hpp</text>
</g>
<!-- Node3&#45;&gt;Node7 -->
<g id="edge8" class="edge">
<title>Node3&#45;&gt;Node7</title>
<path fill="none" stroke="#191970" d="M1447.0949,-239.0077C1582.202,-237.2734 1923.861,-229.4331 2207,-194 2214.4968,-193.0618 2222.3742,-191.8098 2230.0797,-190.433"/>
<polygon fill="#191970" stroke="#191970" points="2230.8769,-193.8447 2240.0637,-188.5672 2229.5909,-186.9638 2230.8769,-193.8447"/>
</g>
<!-- Node8 -->
<g id="node9" class="node">
<title>Node8</title>
<polygon fill="#ffffff" stroke="#bfbfbf" points="733.5815,-170.5 733.5815,-188.5 852.4185,-188.5 852.4185,-170.5 733.5815,-170.5"/>
<text text-anchor="middle" x="793" y="-176.5" font-family="FreeSans" font-size="10.00" fill="#000000">boost/static_assert.hpp</text>
</g>
<!-- Node3&#45;&gt;Node8 -->
<g id="edge9" class="edge">
<title>Node3&#45;&gt;Node8</title>
<path fill="none" stroke="#191970" d="M1328.9605,-236.7242C1231.3651,-231.6144 1030.4303,-218.8891 862,-194 855.4099,-193.0262 848.5034,-191.8111 841.7129,-190.5014"/>
<polygon fill="#191970" stroke="#191970" points="842.3905,-187.0676 831.8973,-188.5318 841.0133,-193.9308 842.3905,-187.0676"/>
</g>
<!-- Node9 -->
<g id="node10" class="node">
<title>Node9</title>
<polygon fill="#ffffff" stroke="#bfbfbf" points="2070.1309,-170.5 2070.1309,-188.5 2197.8691,-188.5 2197.8691,-170.5 2070.1309,-170.5"/>
<text text-anchor="middle" x="2134" y="-176.5" font-family="FreeSans" font-size="10.00" fill="#000000">boost/concept/assert.hpp</text>
</g>
<!-- Node3&#45;&gt;Node9 -->
<g id="edge10" class="edge">
<title>Node3&#45;&gt;Node9</title>
<path fill="none" stroke="#191970" d="M1447.2188,-238.053C1564.7231,-234.6183 1835.4923,-223.8933 2061,-194 2068.2212,-193.0428 2075.802,-191.804 2083.2339,-190.454"/>
<polygon fill="#191970" stroke="#191970" points="2084.0548,-193.8608 2093.2283,-188.5603 2082.7515,-186.9832 2084.0548,-193.8608"/>
</g>
<!-- Node10 -->
<g id="node11" class="node">
<title>Node10</title>
<polygon fill="#ffffff" stroke="#bfbfbf" points="1915.6826,-170.5 1915.6826,-188.5 2052.3174,-188.5 2052.3174,-170.5 1915.6826,-170.5"/>
<text text-anchor="middle" x="1984" y="-176.5" font-family="FreeSans" font-size="10.00" fill="#000000">boost/concept/requires.hpp</text>
</g>
<!-- Node3&#45;&gt;Node10 -->
<g id="edge11" class="edge">
<title>Node3&#45;&gt;Node10</title>
<path fill="none" stroke="#191970" d="M1446.8562,-236.1795C1543.164,-230.3318 1740.2998,-216.6256 1906,-194 1913.6765,-192.9518 1921.7453,-191.6642 1929.6635,-190.293"/>
<polygon fill="#191970" stroke="#191970" points="1930.343,-193.7271 1939.5717,-188.5231 1929.112,-186.8362 1930.343,-193.7271"/>
</g>
<!-- Node11 -->
<g id="node12" class="node">
<title>Node11</title>
<polygon fill="#ffffff" stroke="#bfbfbf" points="870.8672,-165.5 870.8672,-193.5 979.1328,-193.5 979.1328,-165.5 870.8672,-165.5"/>
<text text-anchor="start" x="878.8672" y="-181.5" font-family="FreeSans" font-size="10.00" fill="#000000">boost/iterator/iterator</text>
<text text-anchor="middle" x="925" y="-171.5" font-family="FreeSans" font-size="10.00" fill="#000000">_concepts.hpp</text>
</g>
<!-- Node3&#45;&gt;Node11 -->
<g id="edge12" class="edge">
<title>Node3&#45;&gt;Node11</title>
<path fill="none" stroke="#191970" d="M1329.077,-234.8944C1252.788,-228.4656 1115.5723,-215.3216 989.0807,-194.0658"/>
<polygon fill="#191970" stroke="#191970" points="989.663,-190.6147 979.2176,-192.388 988.489,-197.5155 989.663,-190.6147"/>
</g>
<!-- Node12 -->
<g id="node13" class="node">
<title>Node12</title>
<polygon fill="#ffffff" stroke="#bfbfbf" points="997.397,-170.5 997.397,-188.5 1144.603,-188.5 1144.603,-170.5 997.397,-170.5"/>
<text text-anchor="middle" x="1071" y="-176.5" font-family="FreeSans" font-size="10.00" fill="#000000">boost/concept_archetype.hpp</text>
</g>
<!-- Node3&#45;&gt;Node12 -->
<g id="edge13" class="edge">
<title>Node3&#45;&gt;Node12</title>
<path fill="none" stroke="#191970" d="M1340.1987,-230.4524C1283.6264,-219.7447 1189.4745,-201.9242 1128.8436,-190.4483"/>
<polygon fill="#191970" stroke="#191970" points="1129.1477,-186.9438 1118.6712,-188.5229 1127.8458,-193.8217 1129.1477,-186.9438"/>
</g>
<!-- Node13 -->
<g id="node14" class="node">
<title>Node13</title>
<polygon fill="#ffffff" stroke="#bfbfbf" points="2072.3843,-110.5 2072.3843,-128.5 2115.6157,-128.5 2115.6157,-110.5 2072.3843,-110.5"/>
<text text-anchor="middle" x="2094" y="-116.5" font-family="FreeSans" font-size="10.00" fill="#000000">cmath</text>
</g>
<!-- Node3&#45;&gt;Node13 -->
<g id="edge14" class="edge">
<title>Node3&#45;&gt;Node13</title>
<path fill="none" stroke="#191970" d="M1446.8871,-234.7721C1526.4636,-227.7713 1663.7084,-213.3605 1710,-194 1729.6001,-185.8027 1728.3607,-173.1029 1748,-165 1804.5844,-141.6539 1987.4036,-126.8156 2061.9294,-121.5992"/>
<polygon fill="#191970" stroke="#191970" points="2062.3748,-125.077 2072.1113,-120.8996 2061.8948,-118.0934 2062.3748,-125.077"/>
</g>
<!-- Node14 -->
<g id="node15" class="node">
<title>Node14</title>
<polygon fill="#ffffff" stroke="#bfbfbf" points="1162.2686,-170.5 1162.2686,-188.5 1207.7314,-188.5 1207.7314,-170.5 1162.2686,-170.5"/>
<text text-anchor="middle" x="1185" y="-176.5" font-family="FreeSans" font-size="10.00" fill="#000000">stdio.h</text>
</g>
<!-- Node3&#45;&gt;Node14 -->
<g id="edge15" class="edge">
<title>Node3&#45;&gt;Node14</title>
<path fill="none" stroke="#191970" d="M1350.742,-230.4913C1316.8755,-222.0188 1265.6754,-208.4984 1222,-194 1220.3344,-193.4471 1218.6344,-192.8609 1216.9235,-192.2535"/>
<polygon fill="#191970" stroke="#191970" points="1217.7582,-188.8299 1207.1653,-188.6268 1215.3196,-195.3913 1217.7582,-188.8299"/>
</g>
<!-- Node15 -->
<g id="node16" class="node">
<title>Node15</title>
<g id="a_node16"><a xlink:href="Config_8h_source.html" target="_top" xlink:title="DGtal/base/Config.h">
<polygon fill="#ffffff" stroke="#ff0000" points="763.9756,-55.5 763.9756,-73.5 870.0244,-73.5 870.0244,-55.5 763.9756,-55.5"/>
<text text-anchor="middle" x="817" y="-61.5" font-family="FreeSans" font-size="10.00" fill="#000000">DGtal/base/Config.h</text>
</a>
</g>
</g>
<!-- Node3&#45;&gt;Node15 -->
<g id="edge16" class="edge">
<title>Node3&#45;&gt;Node15</title>
<path fill="none" stroke="#191970" d="M1373.7796,-230.4821C1349.5335,-215.3909 1298.3137,-184.7358 1252,-165 1125.9656,-111.2926 966.6031,-83.8397 880.0153,-71.9896"/>
<polygon fill="#191970" stroke="#191970" points="880.4561,-68.5175 870.0791,-70.6548 879.524,-75.4552 880.4561,-68.5175"/>
</g>
<!-- Node17 -->
<g id="node17" class="node">
<title>Node17</title>
<g id="a_node17"><a xlink:href="Trace_8h_source.html" target="_top" xlink:title="DGtal/base/Trace.h">
<polygon fill="#ffffff" stroke="#ff0000" points="499.8311,-170.5 499.8311,-188.5 602.1689,-188.5 602.1689,-170.5 499.8311,-170.5"/>
<text text-anchor="middle" x="551" y="-176.5" font-family="FreeSans" font-size="10.00" fill="#000000">DGtal/base/Trace.h</text>
</a>
</g>
</g>
<!-- Node3&#45;&gt;Node17 -->
<g id="edge18" class="edge">
<title>Node3&#45;&gt;Node17</title>
<path fill="none" stroke="#191970" d="M1328.8848,-237.4001C1204.0045,-232.6202 904.2412,-219.3313 654,-194 640.542,-192.6377 626.1412,-190.8312 612.5016,-188.957"/>
<polygon fill="#191970" stroke="#191970" points="612.6375,-185.4418 602.2479,-187.5169 611.6639,-192.3738 612.6375,-185.4418"/>
</g>
<!-- Node24 -->
<g id="node18" class="node">
<title>Node24</title>
<g id="a_node18"><a xlink:href="TraceWriterTerm_8h_source.html" target="_top" xlink:title="DGtal/base/TraceWriterTerm.h">
<polygon fill="#ffffff" stroke="#ff0000" points="462.478,-110.5 462.478,-128.5 613.522,-128.5 613.522,-110.5 462.478,-110.5"/>
<text text-anchor="middle" x="538" y="-116.5" font-family="FreeSans" font-size="10.00" fill="#000000">DGtal/base/TraceWriterTerm.h</text>
</a>
</g>
</g>
<!-- Node3&#45;&gt;Node24 -->
<g id="edge26" class="edge">
<title>Node3&#45;&gt;Node24</title>
<path fill="none" stroke="#191970" d="M1328.908,-238.7149C1133.6488,-235.8351 519.8885,-224.391 491,-194 473.8524,-175.9605 497.5036,-150.7474 517.0091,-134.7728"/>
<polygon fill="#191970" stroke="#191970" points="519.26,-137.4558 524.9837,-128.5401 514.9494,-131.9405 519.26,-137.4558"/>
</g>
<!-- Node25 -->
<g id="node19" class="node">
<title>Node25</title>
<g id="a_node19"><a xlink:href="Assert_8h_source.html" target="_top" xlink:title="DGtal/base/Assert.h">
<polygon fill="#ffffff" stroke="#ff0000" points="708.2588,-110.5 708.2588,-128.5 813.7412,-128.5 813.7412,-110.5 708.2588,-110.5"/>
<text text-anchor="middle" x="761" y="-116.5" font-family="FreeSans" font-size="10.00" fill="#000000">DGtal/base/Assert.h</text>
</a>
</g>
</g>
<!-- Node3&#45;&gt;Node25 -->
<g id="edge29" class="edge">
<title>Node3&#45;&gt;Node25</title>
<path fill="none" stroke="#191970" d="M1328.9741,-237.6135C1170.3607,-232.2592 745.4724,-215.9255 725,-194 709.2452,-177.1269 727.4568,-152.08 743.1987,-135.7705"/>
<polygon fill="#191970" stroke="#191970" points="745.8814,-138.0417 750.5684,-128.54 740.979,-133.045 745.8814,-138.0417"/>
</g>
<!-- Node28 -->
<g id="node20" class="node">
<title>Node28</title>
<g id="a_node20"><a xlink:href="TraceWriterFile_8h_source.html" target="_top" xlink:title="DGtal/base/TraceWriterFile.h">
<polygon fill="#ffffff" stroke="#ff0000" points="981.5322,-55.5 981.5322,-73.5 1126.4678,-73.5 1126.4678,-55.5 981.5322,-55.5"/>
<text text-anchor="middle" x="1054" y="-61.5" font-family="FreeSans" font-size="10.00" fill="#000000">DGtal/base/TraceWriterFile.h</text>
</a>
</g>
</g>
<!-- Node3&#45;&gt;Node28 -->
<g id="edge27" class="edge">
<title>Node3&#45;&gt;Node28</title>
<path fill="none" stroke="#191970" d="M1381.0286,-230.1025C1359.3901,-200.9834 1294.4372,-113.9701 1288,-110 1262.9529,-94.5523 1193.5225,-82.2263 1136.7493,-74.3208"/>
<polygon fill="#191970" stroke="#191970" points="1137.0539,-70.83 1126.6723,-72.9449 1136.1069,-77.7657 1137.0539,-70.83"/>
</g>
<!-- Node29 -->
<g id="node21" class="node">
<title>Node29</title>
<g id="a_node21"><a xlink:href="ConceptUtils_8h_source.html" target="_top" xlink:title="DGtal/base/ConceptUtils.h">
<polygon fill="#ffffff" stroke="#000000" points="1144.084,-55.5 1144.084,-73.5 1277.916,-73.5 1277.916,-55.5 1144.084,-55.5"/>
<text text-anchor="middle" x="1211" y="-61.5" font-family="FreeSans" font-size="10.00" fill="#000000">DGtal/base/ConceptUtils.h</text>
</a>
</g>
</g>
<!-- Node3&#45;&gt;Node29 -->
<g id="edge30" class="edge">
<title>Node3&#45;&gt;Node29</title>
<path fill="none" stroke="#191970" d="M1384.568,-230.1879C1374.5994,-203.5571 1345.1411,-127.8503 1326,-110 1308.8424,-93.9995 1285.3811,-83.3687 1264.1229,-76.4387"/>
<polygon fill="#191970" stroke="#191970" points="1265.1276,-73.086 1254.5412,-73.509 1263.0808,-79.7801 1265.1276,-73.086"/>
</g>
<!-- Node30 -->
<g id="node22" class="node">
<title>Node30</title>
<g id="a_node22"><a xlink:href="BasicTypes_8h_source.html" target="_top" xlink:title="DGtal/base/BasicTypes.h">
<polygon fill="#ffffff" stroke="#ff0000" points="1295.8599,-55.5 1295.8599,-73.5 1424.1401,-73.5 1424.1401,-55.5 1295.8599,-55.5"/>
<text text-anchor="middle" x="1360" y="-61.5" font-family="FreeSans" font-size="10.00" fill="#000000">DGtal/base/BasicTypes.h</text>
</a>
</g>
</g>
<!-- Node3&#45;&gt;Node30 -->
<g id="edge32" class="edge">
<title>Node3&#45;&gt;Node30</title>
<path fill="none" stroke="#191970" d="M1386.4946,-230.0912C1382.0681,-202.4255 1369.0317,-120.9483 1363.0558,-83.5988"/>
<polygon fill="#191970" stroke="#191970" points="1366.4813,-82.8541 1361.4452,-73.5326 1359.5692,-83.96 1366.4813,-82.8541"/>
</g>
<!-- Node33 -->
<g id="node23" class="node">
<title>Node33</title>
<g id="a_node23"><a xlink:href="BasicFunctors_8h_source.html" target="_top" xlink:title="DGtal/base/BasicFunctors.h">
<polygon fill="#ffffff" stroke="#ff0000" points="1756.7515,-170.5 1756.7515,-188.5 1897.2485,-188.5 1897.2485,-170.5 1756.7515,-170.5"/>
<text text-anchor="middle" x="1827" y="-176.5" font-family="FreeSans" font-size="10.00" fill="#000000">DGtal/base/BasicFunctors.h</text>
</a>
</g>
</g>
<!-- Node3&#45;&gt;Node33 -->
<g id="edge34" class="edge">
<title>Node3&#45;&gt;Node33</title>
<path fill="none" stroke="#191970" d="M1446.914,-231.9637C1515.8787,-223.5609 1633.229,-209.148 1734,-194 1741.8032,-192.827 1749.9999,-191.5136 1758.169,-190.1692"/>
<polygon fill="#191970" stroke="#191970" points="1758.8001,-193.6124 1768.0916,-188.5212 1757.6532,-186.707 1758.8001,-193.6124"/>
</g>
<!-- Node41 -->
<g id="node24" class="node">
<title>Node41</title>
<g id="a_node24"><a xlink:href="BasicArchetypes_8h_source.html" target="_top" xlink:title="DGtal/base/BasicArchetypes.h">
<polygon fill="#ffffff" stroke="#000000" points="1416.1899,-110.5 1416.1899,-128.5 1567.8101,-128.5 1567.8101,-110.5 1416.1899,-110.5"/>
<text text-anchor="middle" x="1492" y="-116.5" font-family="FreeSans" font-size="10.00" fill="#000000">DGtal/base/BasicArchetypes.h</text>
</a>
</g>
</g>
<!-- Node3&#45;&gt;Node41 -->
<g id="edge38" class="edge">
<title>Node3&#45;&gt;Node41</title>
<path fill="none" stroke="#191970" d="M1395.4861,-230.1966C1406.992,-215.9685 1429.812,-188.0293 1450,-165 1458.485,-155.3208 1468.2206,-144.7425 1476.1809,-136.2234"/>
<polygon fill="#191970" stroke="#191970" points="1478.8743,-138.468 1483.1701,-128.7831 1473.7724,-133.6753 1478.8743,-138.468"/>
</g>
<!-- Node42 -->
<g id="node25" class="node">
<title>Node42</title>
<g id="a_node25"><a xlink:href="Exceptions_8h_source.html" target="_top" xlink:title="DGtal/base/Exceptions.h">
<polygon fill="#ffffff" stroke="#000000" points="1479.9707,-55.5 1479.9707,-73.5 1606.0293,-73.5 1606.0293,-55.5 1479.9707,-55.5"/>
<text text-anchor="middle" x="1543" y="-61.5" font-family="FreeSans" font-size="10.00" fill="#000000">DGtal/base/Exceptions.h</text>
</a>
</g>
</g>
<!-- Node3&#45;&gt;Node42 -->
<g id="edge40" class="edge">
<title>Node3&#45;&gt;Node42</title>
<path fill="none" stroke="#191970" d="M1400.8761,-230.1586C1413.4522,-221.0094 1433.1109,-206.64 1450,-194 1467.0091,-181.2702 1469.5432,-175.5217 1488,-165 1525.0687,-143.8682 1553.1469,-164.379 1577,-129 1587.5295,-113.3827 1574.3322,-94.1296 1561.4327,-80.7433"/>
<polygon fill="#191970" stroke="#191970" points="1563.6766,-78.0445 1554.0537,-73.6115 1558.8118,-83.0778 1563.6766,-78.0445"/>
</g>
<!-- Node15&#45;&gt;Node1 -->
<g id="edge17" class="edge">
<title>Node15&#45;&gt;Node1</title>
<path fill="none" stroke="#191970" d="M870.1366,-57.0825C951.0527,-45.7871 1103.1681,-24.5527 1173.5372,-14.7296"/>
<polygon fill="#191970" stroke="#191970" points="1174.2873,-18.1589 1183.7074,-13.3099 1173.3195,-11.2261 1174.2873,-18.1589"/>
</g>
<!-- Node17&#45;&gt;Node1 -->
<g id="edge19" class="edge">
<title>Node17&#45;&gt;Node1</title>
<path fill="none" stroke="#191970" d="M564.0924,-170.3353C602.2566,-143.813 713.3233,-68.0418 755,-55 832.8635,-30.6343 1078.6489,-16.1059 1173.3166,-11.2914"/>
<polygon fill="#191970" stroke="#191970" points="1173.7578,-14.7738 1183.5703,-10.7781 1173.4078,-7.7826 1173.7578,-14.7738"/>
</g>
<!-- Node17&#45;&gt;Node15 -->
<g id="edge20" class="edge">
<title>Node17&#45;&gt;Node15</title>
<path fill="none" stroke="#191970" d="M569.4985,-170.2944C597.3286,-156.5638 651.7472,-130.1749 699,-110 726.7399,-98.1563 758.6877,-85.9214 782.3393,-77.1258"/>
<polygon fill="#191970" stroke="#191970" points="783.7664,-80.3298 791.9313,-73.578 781.3381,-73.7644 783.7664,-80.3298"/>
</g>
<!-- Node17&#45;&gt;Node24 -->
<g id="edge21" class="edge">
<title>Node17&#45;&gt;Node24</title>
<path fill="none" stroke="#191970" d="M549.0256,-170.3873C547.2121,-162.0174 544.4656,-149.3414 542.1676,-138.735"/>
<polygon fill="#191970" stroke="#191970" points="545.5312,-137.7305 539.993,-128.6985 538.69,-139.2129 545.5312,-137.7305"/>
</g>
<!-- Node17&#45;&gt;Node25 -->
<g id="edge24" class="edge">
<title>Node17&#45;&gt;Node25</title>
<path fill="none" stroke="#191970" d="M577.8851,-170.3873C612.483,-159.8863 672.807,-142.607 714.7869,-131.141"/>
<polygon fill="#191970" stroke="#191970" points="715.7735,-134.4999 724.507,-128.5019 713.9392,-127.7445 715.7735,-134.4999"/>
</g>
<!-- Node24&#45;&gt;Node1 -->
<g id="edge22" class="edge">
<title>Node24&#45;&gt;Node1</title>
<path fill="none" stroke="#191970" d="M546.9732,-110.4187C562.1205,-95.7514 594.4107,-67.2556 628,-55 728.8234,-18.2131 1060.7752,-11.1548 1173.3065,-9.8121"/>
<polygon fill="#191970" stroke="#191970" points="1173.536,-13.3099 1183.4965,-9.6992 1173.4584,-6.3103 1173.536,-13.3099"/>
</g>
<!-- Node24&#45;&gt;Node15 -->
<g id="edge23" class="edge">
<title>Node24&#45;&gt;Node15</title>
<path fill="none" stroke="#191970" d="M583.7588,-110.4795C632.3106,-100.9083 709.0589,-85.7787 761.1438,-75.5111"/>
<polygon fill="#191970" stroke="#191970" points="762.082,-78.8936 771.2163,-73.5255 760.7281,-72.0257 762.082,-78.8936"/>
</g>
<!-- Node25&#45;&gt;Node17 -->
<g id="edge25" class="edge">
<title>Node25&#45;&gt;Node17</title>
<path fill="none" stroke="#191970" d="M734.4799,-128.5019C700.064,-138.9549 639.7666,-156.2306 597.6578,-167.7375"/>
<polygon fill="#191970" stroke="#191970" points="596.6365,-164.3881 587.9038,-170.3873 598.4717,-171.1432 596.6365,-164.3881"/>
</g>
<!-- Node28&#45;&gt;Node1 -->
<g id="edge28" class="edge">
<title>Node28&#45;&gt;Node1</title>
<path fill="none" stroke="#191970" d="M1079.9254,-55.4179C1106.0248,-46.2748 1146.4742,-32.1046 1175.535,-21.924"/>
<polygon fill="#191970" stroke="#191970" points="1177.0166,-25.1136 1185.2971,-18.5042 1174.7022,-18.5073 1177.0166,-25.1136"/>
</g>
<!-- Node29&#45;&gt;Node1 -->
<g id="edge31" class="edge">
<title>Node29&#45;&gt;Node1</title>
<path fill="none" stroke="#191970" d="M1211,-55.4179C1211,-48.2164 1211,-37.8962 1211,-28.8632"/>
<polygon fill="#191970" stroke="#191970" points="1214.5001,-28.7794 1211,-18.7795 1207.5001,-28.7795 1214.5001,-28.7794"/>
</g>
<!-- Node30&#45;&gt;Node1 -->
<g id="edge33" class="edge">
<title>Node30&#45;&gt;Node1</title>
<path fill="none" stroke="#191970" d="M1335.3957,-55.4179C1310.8079,-46.3419 1272.8006,-32.3123 1245.2668,-22.1488"/>
<polygon fill="#191970" stroke="#191970" points="1246.2342,-18.7751 1235.6409,-18.5956 1243.8101,-25.342 1246.2342,-18.7751"/>
</g>
<!-- Node33&#45;&gt;Node3 -->
<g id="edge37" class="edge">
<title>Node33&#45;&gt;Node3</title>
<path fill="none" stroke="#191970" d="M1785.6389,-188.5212C1774.7304,-190.4224 1762.9759,-192.3501 1752,-194 1649.7405,-209.3718 1530.4084,-223.9865 1456.9447,-232.3321"/>
<polygon fill="#191970" stroke="#191970" points="1456.4337,-228.8675 1446.8896,-233.4675 1457.2192,-235.8233 1456.4337,-228.8675"/>
</g>
<!-- Node33&#45;&gt;Node5 -->
<g id="edge35" class="edge">
<title>Node33&#45;&gt;Node5</title>
<path fill="none" stroke="#191970" d="M1759.3244,-170.4638C1743.1806,-168.4881 1725.9941,-166.5322 1710,-165 1470.3338,-142.041 1181.4174,-126.5478 1078.0853,-121.389"/>
<polygon fill="#191970" stroke="#191970" points="1077.9835,-117.8797 1067.8225,-120.8802 1077.6369,-124.8711 1077.9835,-117.8797"/>
</g>
<!-- Node33&#45;&gt;Node13 -->
<g id="edge36" class="edge">
<title>Node33&#45;&gt;Node13</title>
<path fill="none" stroke="#191970" d="M1867.2617,-170.4524C1920.6007,-158.4661 2013.6025,-137.5669 2062.2644,-126.6316"/>
<polygon fill="#191970" stroke="#191970" points="2063.2375,-130.0003 2072.2268,-124.3929 2061.7027,-123.1706 2063.2375,-130.0003"/>
</g>
<!-- Node41&#45;&gt;Node1 -->
<g id="edge39" class="edge">
<title>Node41&#45;&gt;Node1</title>
<path fill="none" stroke="#191970" d="M1486.3878,-110.3335C1477.1414,-96.0712 1457.2879,-68.7785 1433,-55 1401.8969,-37.3552 1303.0261,-21.8267 1248.3138,-14.306"/>
<polygon fill="#191970" stroke="#191970" points="1248.6945,-10.8258 1238.3155,-12.9533 1247.7559,-17.7626 1248.6945,-10.8258"/>
</g>
<!-- Node42&#45;&gt;Node1 -->
<g id="edge41" class="edge">
<title>Node42&#45;&gt;Node1</title>
<path fill="none" stroke="#191970" d="M1488.5487,-55.4795C1420.868,-44.2673 1307.1425,-25.4272 1248.4923,-15.7111"/>
<polygon fill="#191970" stroke="#191970" points="1248.9831,-12.2447 1238.5455,-14.0633 1247.839,-19.1506 1248.9831,-12.2447"/>
</g>
<!-- Node43&#45;&gt;Node1 -->
<g id="edge43" class="edge">
<title>Node43&#45;&gt;Node1</title>
<path fill="none" stroke="#191970" d="M1045.9628,-566.7347C898.6828,-559.8916 531.2444,-541.1095 410,-519 310.1171,-500.7859 251.7258,-535.3678 191,-454 183.2911,-443.6706 190.4802,-437.8784 191,-425 194.336,-342.3538 206,-322.2135 206,-239.5 206,-239.5 206,-239.5 206,-119.5 206,-83.2287 223.819,-71.7328 256,-55 297.3813,-33.4834 1002.4498,-14.6711 1173.7314,-10.4043"/>
<polygon fill="#191970" stroke="#191970" points="1173.8666,-13.9021 1183.7769,-10.1556 1173.6932,-6.9043 1173.8666,-13.9021"/>
</g>
<!-- Node43&#45;&gt;Node3 -->
<g id="edge44" class="edge">
<title>Node43&#45;&gt;Node3</title>
<path fill="none" stroke="#191970" d="M1115.781,-560.3295C1154.0848,-515.1858 1322.8002,-316.3426 1373.5255,-256.5592"/>
<polygon fill="#191970" stroke="#191970" points="1376.3228,-258.6721 1380.1239,-248.7826 1370.9853,-254.1433 1376.3228,-258.6721"/>
</g>
<!-- Node44 -->
<g id="node27" class="node">
<title>Node44</title>
<g id="a_node27"><a xlink:href="SpaceND_8h_source.html" target="_top" xlink:title="DGtal/kernel/SpaceND.h">
<polygon fill="#ffffff" stroke="#ff0000" points="435.2539,-295.5 435.2539,-313.5 560.7461,-313.5 560.7461,-295.5 435.2539,-295.5"/>
<text text-anchor="middle" x="498" y="-301.5" font-family="FreeSans" font-size="10.00" fill="#000000">DGtal/kernel/SpaceND.h</text>
</a>
</g>
</g>
<!-- Node43&#45;&gt;Node44 -->
<g id="edge45" class="edge">
<title>Node43&#45;&gt;Node44</title>
<path fill="none" stroke="#191970" d="M1045.7471,-563.6041C950.0401,-552.6361 762.8587,-523.551 620,-454 576.6031,-432.8721 562.6279,-427.1033 533,-389 517.5914,-369.1836 507.8664,-341.6186 502.6813,-323.4315"/>
<polygon fill="#191970" stroke="#191970" points="506.0458,-322.4644 500.0868,-313.7043 499.2823,-324.2686 506.0458,-322.4644"/>
</g>
<!-- Node66 -->
<g id="node28" class="node">
<title>Node66</title>
<g id="a_node28"><a xlink:href="HyperRectDomain_8h_source.html" target="_top" xlink:title="DGtal/kernel/domains\l/HyperRectDomain.h">
<polygon fill="#ffffff" stroke="#ff0000" points="65.9238,-290.5 65.9238,-318.5 178.0762,-318.5 178.0762,-290.5 65.9238,-290.5"/>
<text text-anchor="start" x="73.9238" y="-306.5" font-family="FreeSans" font-size="10.00" fill="#000000">DGtal/kernel/domains</text>
<text text-anchor="middle" x="122" y="-296.5" font-family="FreeSans" font-size="10.00" fill="#000000">/HyperRectDomain.h</text>
</a>
</g>
</g>
<!-- Node43&#45;&gt;Node66 -->
<g id="edge48" class="edge">
<title>Node43&#45;&gt;Node66</title>
<path fill="none" stroke="#191970" d="M1045.9694,-568.3183C840.1835,-564.1245 191.1502,-548.5958 158,-519 103.8734,-470.6769 110.7198,-374.0447 117.5011,-328.8521"/>
<polygon fill="#191970" stroke="#191970" points="120.9886,-329.2112 119.1429,-318.7784 114.0798,-328.0851 120.9886,-329.2112"/>
</g>
<!-- Node88 -->
<g id="node29" class="node">
<title>Node88</title>
<g id="a_node29"><a xlink:href="DigitalSetSelector_8h_source.html" target="_top" xlink:title="DGtal/kernel/sets/Digital\lSetSelector.h">
<polygon fill="#ffffff" stroke="#ff0000" points="1687.3696,-360.5 1687.3696,-388.5 1810.6304,-388.5 1810.6304,-360.5 1687.3696,-360.5"/>
<text text-anchor="start" x="1695.3696" y="-376.5" font-family="FreeSans" font-size="10.00" fill="#000000">DGtal/kernel/sets/Digital</text>
<text text-anchor="middle" x="1749" y="-366.5" font-family="FreeSans" font-size="10.00" fill="#000000">SetSelector.h</text>
</a>
</g>
</g>
<!-- Node43&#45;&gt;Node88 -->
<g id="edge51" class="edge">
<title>Node43&#45;&gt;Node88</title>
<path fill="none" stroke="#191970" d="M1170.2366,-563.3554C1247.0514,-555.0682 1372.7063,-539.0146 1415,-519 1432.6488,-510.6481 1431.2901,-500.1002 1448,-490 1524.7288,-443.6215 1623.2821,-410.0624 1686.3086,-391.438"/>
<polygon fill="#191970" stroke="#191970" points="1687.4912,-394.7389 1696.1101,-388.5774 1685.53,-388.0193 1687.4912,-394.7389"/>
</g>
<!-- Node101 -->
<g id="node30" class="node">
<title>Node101</title>
<g id="a_node30"><a xlink:href="DigitalTopology_8h_source.html" target="_top" xlink:title="DGtal/topology/DigitalTopology.h">
<polygon fill="#ffffff" stroke="#ff0000" points="2019.8271,-430.5 2019.8271,-448.5 2180.1729,-448.5 2180.1729,-430.5 2019.8271,-430.5"/>
<text text-anchor="middle" x="2100" y="-436.5" font-family="FreeSans" font-size="10.00" fill="#000000">DGtal/topology/DigitalTopology.h</text>
</a>
</g>
</g>
<!-- Node43&#45;&gt;Node101 -->
<g id="edge54" class="edge">
<title>Node43&#45;&gt;Node101</title>
<path fill="none" stroke="#191970" d="M1170.2496,-565.7429C1273.7022,-559.0813 1487.4241,-543.5444 1667,-519 1805.5229,-500.0667 1967.1666,-467.5993 2048.1605,-450.6067"/>
<polygon fill="#191970" stroke="#191970" points="2049.0377,-453.9988 2058.102,-448.5136 2047.5955,-447.149 2049.0377,-453.9988"/>
</g>
<!-- Node108 -->
<g id="node33" class="node">
<title>Node108</title>
<g id="a_node33"><a xlink:href="MetricAdjacency_8h_source.html" target="_top" xlink:title="DGtal/topology/MetricAdjacency.h">
<polygon fill="#ffffff" stroke="#ff0000" points="800.0562,-365.5 800.0562,-383.5 965.9438,-383.5 965.9438,-365.5 800.0562,-365.5"/>
<text text-anchor="middle" x="883" y="-371.5" font-family="FreeSans" font-size="10.00" fill="#000000">DGtal/topology/MetricAdjacency.h</text>
</a>
</g>
</g>
<!-- Node43&#45;&gt;Node108 -->
<g id="edge63" class="edge">
<title>Node43&#45;&gt;Node108</title>
<path fill="none" stroke="#191970" d="M1103.9979,-560.3455C1092.5983,-535.2572 1057.5538,-464.6389 1008,-425 985.3297,-406.8656 955.2834,-394.4489 930.3306,-386.4664"/>
<polygon fill="#191970" stroke="#191970" points="931.2785,-383.0963 920.6921,-383.5189 929.2314,-389.7903 931.2785,-383.0963"/>
</g>
<!-- Node110 -->
<g id="node34" class="node">
<title>Node110</title>
<g id="a_node34"><a xlink:href="Object_8h_source.html" target="_top" xlink:title="DGtal/topology/Object.h">
<polygon fill="#ffffff" stroke="#ff0000" points="1707.9165,-430.5 1707.9165,-448.5 1830.0835,-448.5 1830.0835,-430.5 1707.9165,-430.5"/>
<text text-anchor="middle" x="1769" y="-436.5" font-family="FreeSans" font-size="10.00" fill="#000000">DGtal/topology/Object.h</text>
</a>
</g>
</g>
<!-- Node43&#45;&gt;Node110 -->
<g id="edge68" class="edge">
<title>Node43&#45;&gt;Node110</title>
<path fill="none" stroke="#191970" d="M1170.0219,-563.6109C1253.8613,-555.0828 1398.5604,-538.1986 1448,-519 1469.4879,-510.6557 1469.6494,-498.6896 1491,-490 1558.078,-462.6995 1640.2467,-450.092 1697.7912,-444.3102"/>
<polygon fill="#191970" stroke="#191970" points="1698.262,-447.7812 1707.8815,-443.3409 1697.5926,-440.8133 1698.262,-447.7812"/>
</g>
<!-- Node43&#45;&gt;Node119 -->
<g id="edge79" class="edge">
<title>Node43&#45;&gt;Node119</title>
<path fill="none" stroke="#191970" d="M1079.217,-560.4619C1010.7282,-538.9557 837.1681,-484.4562 748.2801,-456.5445"/>
<polygon fill="#191970" stroke="#191970" points="749.2398,-453.1774 738.6505,-453.5207 747.1426,-459.8559 749.2398,-453.1774"/>
</g>
<!-- Node120 -->
<g id="node37" class="node">
<title>Node120</title>
<g id="a_node37"><a xlink:href="KhalimskyPreSpaceND_8h_source.html" target="_top" xlink:title="DGtal/topology/Khalimsky\lPreSpaceND.h">
<polygon fill="#ffffff" stroke="#ff0000" points="575.7539,-360.5 575.7539,-388.5 706.2461,-388.5 706.2461,-360.5 575.7539,-360.5"/>
<text text-anchor="start" x="583.7539" y="-376.5" font-family="FreeSans" font-size="10.00" fill="#000000">DGtal/topology/Khalimsky</text>
<text text-anchor="middle" x="641" y="-366.5" font-family="FreeSans" font-size="10.00" fill="#000000">PreSpaceND.h</text>
</a>
</g>
</g>
<!-- Node43&#45;&gt;Node120 -->
<g id="edge89" class="edge">
<title>Node43&#45;&gt;Node120</title>
<path fill="none" stroke="#191970" d="M1086.9842,-560.3658C1033.7688,-537.2808 889.3038,-474.8866 768,-425 740.9748,-413.8858 710.5607,-401.7781 686.2724,-392.2047"/>
<polygon fill="#191970" stroke="#191970" points="687.5333,-388.9397 676.9462,-388.5346 684.9698,-395.4535 687.5333,-388.9397"/>
</g>
<!-- Node123 -->
<g id="node38" class="node">
<title>Node123</title>
<g id="a_node38"><a xlink:href="GridCurve_8h_source.html" target="_top" xlink:title="Header file for module GridCurve.cpp. ">
<polygon fill="#ffffff" stroke="#ff0000" points="1287.8721,-490.5 1287.8721,-518.5 1406.1279,-518.5 1406.1279,-490.5 1287.8721,-490.5"/>
<text text-anchor="start" x="1295.8721" y="-506.5" font-family="FreeSans" font-size="10.00" fill="#000000">DGtal/geometry/curves</text>
<text text-anchor="middle" x="1347" y="-496.5" font-family="FreeSans" font-size="10.00" fill="#000000">/GridCurve.h</text>
</a>
</g>
</g>
<!-- Node43&#45;&gt;Node123 -->
<g id="edge90" class="edge">
<title>Node43&#45;&gt;Node123</title>
<path fill="none" stroke="#191970" d="M1141.2319,-560.462C1178.3949,-550.3549 1239.3924,-533.7657 1285.3474,-521.2674"/>
<polygon fill="#191970" stroke="#191970" points="1286.474,-524.5883 1295.205,-518.5865 1284.6369,-517.8336 1286.474,-524.5883"/>
</g>
<!-- Node154 -->
<g id="node40" class="node">
<title>Node154</title>
<g id="a_node40"><a xlink:href="ExactPredicateLpSeparableMetric_8h_source.html" target="_top" xlink:title="DGtal/geometry/volumes\l/distance/ExactPredicateLpSeparable\lMetric.h">
<polygon fill="#ffffff" stroke="#ff0000" points="1097.6138,-285.5 1097.6138,-323.5 1280.3862,-323.5 1280.3862,-285.5 1097.6138,-285.5"/>
<text text-anchor="start" x="1105.6138" y="-311.5" font-family="FreeSans" font-size="10.00" fill="#000000">DGtal/geometry/volumes</text>
<text text-anchor="start" x="1105.6138" y="-301.5" font-family="FreeSans" font-size="10.00" fill="#000000">/distance/ExactPredicateLpSeparable</text>
<text text-anchor="middle" x="1189" y="-291.5" font-family="FreeSans" font-size="10.00" fill="#000000">Metric.h</text>
</a>
</g>
</g>
<!-- Node43&#45;&gt;Node154 -->
<g id="edge97" class="edge">
<title>Node43&#45;&gt;Node154</title>
<path fill="none" stroke="#191970" d="M1106.5935,-560.4993C1102.3079,-530.2423 1091.7512,-430.1631 1127,-360 1132.6746,-348.7046 1141.7133,-338.6469 1151.1534,-330.3003"/>
<polygon fill="#191970" stroke="#191970" points="1153.6477,-332.7788 1159.1125,-323.7021 1149.1801,-327.3899 1153.6477,-332.7788"/>
</g>
<!-- Node159 -->
<g id="node41" class="node">
<title>Node159</title>
<g id="a_node41"><a xlink:href="ExactPredicateLpPowerSeparableMetric_8h_source.html" target="_top" xlink:title="DGtal/geometry/volumes\l/distance/ExactPredicateLpPower\lSeparableMetric.h">
<polygon fill="#ffffff" stroke="#ff0000" points="2322.2368,-285.5 2322.2368,-323.5 2487.7632,-323.5 2487.7632,-285.5 2322.2368,-285.5"/>
<text text-anchor="start" x="2330.2368" y="-311.5" font-family="FreeSans" font-size="10.00" fill="#000000">DGtal/geometry/volumes</text>
<text text-anchor="start" x="2330.2368" y="-301.5" font-family="FreeSans" font-size="10.00" fill="#000000">/distance/ExactPredicateLpPower</text>
<text text-anchor="middle" x="2405" y="-291.5" font-family="FreeSans" font-size="10.00" fill="#000000">SeparableMetric.h</text>
</a>
</g>
</g>
<!-- Node43&#45;&gt;Node159 -->
<g id="edge101" class="edge">
<title>Node43&#45;&gt;Node159</title>
<path fill="none" stroke="#191970" d="M1170.2439,-567.2512C1371.3238,-559.3047 2001.318,-528.8895 2189,-454 2263.5432,-424.2555 2337.6731,-364.7576 2376.7317,-330.4693"/>
<polygon fill="#191970" stroke="#191970" points="2379.3661,-332.8108 2384.5215,-323.5549 2374.7192,-327.5756 2379.3661,-332.8108"/>
</g>
<!-- Node44&#45;&gt;Node1 -->
<g id="edge46" class="edge">
<title>Node44&#45;&gt;Node1</title>
<path fill="none" stroke="#191970" d="M448.0516,-295.4688C398.2912,-285.5474 326.4377,-268.419 306,-249 282.3097,-226.4906 282,-212.1788 282,-179.5 282,-179.5 282,-179.5 282,-119.5 282,-88.9131 281.3284,-73.0795 306,-55 341.5039,-28.9826 1006.7946,-13.6774 1173.4121,-10.2422"/>
<polygon fill="#191970" stroke="#191970" points="1173.7273,-13.7366 1183.6538,-10.0331 1173.5844,-6.738 1173.7273,-13.7366"/>
</g>
<!-- Node44&#45;&gt;Node3 -->
<g id="edge47" class="edge">
<title>Node44&#45;&gt;Node3</title>
<path fill="none" stroke="#191970" d="M555.8486,-295.4796C581.2987,-291.7752 611.581,-287.7248 639,-285 888.5956,-260.1965 1186.4205,-246.9653 1318.7464,-241.9294"/>
<polygon fill="#191970" stroke="#191970" points="1319.2676,-245.4124 1329.1287,-241.5383 1319.004,-238.4173 1319.2676,-245.4124"/>
</g>
<!-- Node66&#45;&gt;Node1 -->
<g id="edge49" class="edge">
<title>Node66&#45;&gt;Node1</title>
<path fill="none" stroke="#191970" d="M126.3261,-290.4084C132.9887,-267.4222 145,-220.3215 145,-179.5 145,-179.5 145,-179.5 145,-119.5 145,-84.03 160.7513,-71.7823 192,-55 236.0268,-31.3552 994.9012,-14.028 1173.5533,-10.2647"/>
<polygon fill="#191970" stroke="#191970" points="1173.8401,-13.7596 1183.7647,-10.0512 1173.6936,-6.7611 1173.8401,-13.7596"/>
</g>
<!-- Node66&#45;&gt;Node3 -->
<g id="edge50" class="edge">
<title>Node66&#45;&gt;Node3</title>
<path fill="none" stroke="#191970" d="M178.292,-300.6053C239.3012,-296.4506 339.5329,-289.8177 426,-285 760.6736,-266.353 1161.123,-249.0083 1319.0936,-242.3614"/>
<polygon fill="#191970" stroke="#191970" points="1319.3006,-245.8559 1329.1449,-241.9391 1319.0067,-238.862 1319.3006,-245.8559"/>
</g>
<!-- Node88&#45;&gt;Node1 -->
<g id="edge52" class="edge">
<title>Node88&#45;&gt;Node1</title>
<path fill="none" stroke="#191970" d="M1769.3151,-360.357C1800.092,-339.7562 1861.0993,-302.0935 1919,-285 2090.6165,-234.3351 2153.0575,-313.4155 2320,-249 2367.8092,-230.5526 2412,-230.7448 2412,-179.5 2412,-179.5 2412,-179.5 2412,-119.5 2412,-59.5901 1451.7795,-18.871 1248.5151,-10.9226"/>
<polygon fill="#191970" stroke="#191970" points="1248.4694,-7.4183 1238.3411,-10.5275 1248.1977,-14.413 1248.4694,-7.4183"/>
</g>
<!-- Node88&#45;&gt;Node3 -->
<g id="edge53" class="edge">
<title>Node88&#45;&gt;Node3</title>
<path fill="none" stroke="#191970" d="M1741.3372,-360.277C1729.5596,-339.9313 1704.9771,-302.9939 1673,-285 1637.1027,-264.8001 1529.7594,-251.779 1457.5483,-245.0477"/>
<polygon fill="#191970" stroke="#191970" points="1457.4384,-241.5232 1447.1617,-244.1001 1456.8024,-248.4942 1457.4384,-241.5232"/>
</g>
<!-- Node101&#45;&gt;Node1 -->
<g id="edge55" class="edge">
<title>Node101&#45;&gt;Node1</title>
<path fill="none" stroke="#191970" d="M2169.7203,-430.499C2323.4507,-409.7063 2678,-356.1528 2678,-304.5 2678,-304.5 2678,-304.5 2678,-119.5 2678,-74.5161 2642.071,-70.9243 2600,-55 2535.058,-30.4188 1463.4195,-13.2494 1248.3945,-10.0428"/>
<polygon fill="#191970" stroke="#191970" points="1248.2967,-6.541 1238.2459,-9.8924 1248.1928,-13.5403 1248.2967,-6.541"/>
</g>
<!-- Node101&#45;&gt;Node3 -->
<g id="edge56" class="edge">
<title>Node101&#45;&gt;Node3</title>
<path fill="none" stroke="#191970" d="M2103.821,-430.3967C2107.777,-420.4387 2113.6952,-403.9057 2116,-389 2123.4104,-341.0762 2122.7244,-312.8133 2083,-285 2032.5793,-249.6975 1622.7094,-241.7682 1457.0687,-240.0013"/>
<polygon fill="#191970" stroke="#191970" points="1457.0265,-236.5008 1446.9912,-239.8982 1456.9549,-243.5004 1457.0265,-236.5008"/>
</g>
<!-- Node72 -->
<g id="node31" class="node">
<title>Node72</title>
<g id="a_node31"><a xlink:href="ConstAlias_8h_source.html" target="_top" xlink:title="DGtal/base/ConstAlias.h">
<polygon fill="#ffffff" stroke="#ff0000" points="1982.5298,-365.5 1982.5298,-383.5 2107.4702,-383.5 2107.4702,-365.5 1982.5298,-365.5"/>
<text text-anchor="middle" x="2045" y="-371.5" font-family="FreeSans" font-size="10.00" fill="#000000">DGtal/base/ConstAlias.h</text>
</a>
</g>
</g>
<!-- Node101&#45;&gt;Node72 -->
<g id="edge57" class="edge">
<title>Node101&#45;&gt;Node72</title>
<path fill="none" stroke="#191970" d="M2092.3525,-430.462C2083.9107,-420.4854 2070.1248,-404.1929 2059.5991,-391.7535"/>
<polygon fill="#191970" stroke="#191970" points="2062.0701,-389.2552 2052.9387,-383.8821 2056.7263,-393.7768 2062.0701,-389.2552"/>
</g>
<!-- Node72&#45;&gt;Node1 -->
<g id="edge58" class="edge">
<title>Node72&#45;&gt;Node1</title>
<path fill="none" stroke="#191970" d="M2107.494,-370.8839C2231.7879,-363.2896 2501.2542,-344.6665 2538,-324 2579.0628,-300.9055 2602,-286.6116 2602,-239.5 2602,-239.5 2602,-239.5 2602,-119.5 2602,-74.5161 2566.0559,-70.9641 2524,-55 2462.8237,-31.7779 1456.0142,-13.6234 1248.3031,-10.1148"/>
<polygon fill="#191970" stroke="#191970" points="1248.26,-6.6137 1238.2026,-9.9451 1248.1424,-13.6127 1248.26,-6.6137"/>
</g>
<!-- Node72&#45;&gt;Node3 -->
<g id="edge59" class="edge">
<title>Node72&#45;&gt;Node3</title>
<path fill="none" stroke="#191970" d="M2051.6632,-365.2639C2063.7327,-347.3261 2086.0958,-307.5612 2065,-285 2044.451,-263.0236 1625.4279,-247.1427 1457.104,-241.6269"/>
<polygon fill="#191970" stroke="#191970" points="1457.216,-238.1288 1447.1076,-241.3019 1456.9885,-245.1251 1457.216,-238.1288"/>
</g>
<!-- Node73 -->
<g id="node32" class="node">
<title>Node73</title>
<g id="a_node32"><a xlink:href="CountedPtr_8h_source.html" target="_top" xlink:title="DGtal/base/CountedPtr.h">
<polygon fill="#ffffff" stroke="#ff0000" points="1928.4092,-295.5 1928.4092,-313.5 2055.5908,-313.5 2055.5908,-295.5 1928.4092,-295.5"/>
<text text-anchor="middle" x="1992" y="-301.5" font-family="FreeSans" font-size="10.00" fill="#000000">DGtal/base/CountedPtr.h</text>
</a>
</g>
</g>
<!-- Node72&#45;&gt;Node73 -->
<g id="edge60" class="edge">
<title>Node72&#45;&gt;Node73</title>
<path fill="none" stroke="#191970" d="M2038.0712,-365.3487C2029.785,-354.4047 2015.7306,-335.8423 2005.3186,-322.0906"/>
<polygon fill="#191970" stroke="#191970" points="2007.9265,-319.7368 1999.0997,-313.8769 2002.3457,-323.9623 2007.9265,-319.7368"/>
</g>
<!-- Node73&#45;&gt;Node1 -->
<g id="edge61" class="edge">
<title>Node73&#45;&gt;Node1</title>
<path fill="none" stroke="#191970" d="M2055.7434,-300.9321C2170.4334,-293.8572 2401.94,-276.3327 2426,-249 2482.9704,-184.2803 2485.8167,-117.0986 2426,-55 2405.0607,-33.2619 1451.1757,-14.0385 1248.5739,-10.1965"/>
<polygon fill="#191970" stroke="#191970" points="1248.4941,-6.6944 1238.4298,-10.0051 1248.362,-13.6932 1248.4941,-6.6944"/>
</g>
<!-- Node73&#45;&gt;Node3 -->
<g id="edge62" class="edge">
<title>Node73&#45;&gt;Node3</title>
<path fill="none" stroke="#191970" d="M1932.2979,-295.492C1908.0334,-291.9801 1879.7074,-288.0699 1854,-285 1713.329,-268.2017 1548.2121,-253.1874 1457.1328,-245.3137"/>
<polygon fill="#191970" stroke="#191970" points="1457.2014,-241.8067 1446.9379,-244.4355 1456.6005,-248.7809 1457.2014,-241.8067"/>
</g>
<!-- Node108&#45;&gt;Node1 -->
<g id="edge64" class="edge">
<title>Node108&#45;&gt;Node1</title>
<path fill="none" stroke="#191970" d="M873.181,-365.4321C852.2244,-346.6851 800.7912,-303.8423 749,-285 579.8538,-223.4626 358,-359.4925 358,-179.5 358,-179.5 358,-179.5 358,-119.5 358,-88.9131 357.37,-73.1361 382,-55 414.2656,-31.2414 1016.085,-14.4245 1173.5529,-10.4183"/>
<polygon fill="#191970" stroke="#191970" points="1173.7827,-13.9137 1183.6912,-10.1625 1173.6061,-6.916 1173.7827,-13.9137"/>
</g>
<!-- Node108&#45;&gt;Node2 -->
<g id="edge65" class="edge">
<title>Node108&#45;&gt;Node2</title>
<path fill="none" stroke="#191970" d="M855.9801,-365.4717C829.4663,-356.2548 788.1544,-340.9307 754,-324 750.8141,-322.4207 747.53,-320.627 744.3348,-318.7823"/>
<polygon fill="#191970" stroke="#191970" points="746.0908,-315.7541 735.7206,-313.5843 742.4743,-321.7475 746.0908,-315.7541"/>
</g>
<!-- Node108&#45;&gt;Node3 -->
<g id="edge66" class="edge">
<title>Node108&#45;&gt;Node3</title>
<path fill="none" stroke="#191970" d="M889.5382,-365.4159C903.6301,-346.6383 938.9345,-303.7408 980,-285 1038.7688,-258.1801 1218.8842,-246.5285 1319.0271,-242.0116"/>
<polygon fill="#191970" stroke="#191970" points="1319.217,-245.5067 1329.0537,-241.5711 1318.9097,-238.5135 1319.217,-245.5067"/>
</g>
<!-- Node108&#45;&gt;Node44 -->
<g id="edge67" class="edge">
<title>Node108&#45;&gt;Node44</title>
<path fill="none" stroke="#191970" d="M833.4562,-365.492C762.8048,-352.6463 633.296,-329.0993 557.5285,-315.3234"/>
<polygon fill="#191970" stroke="#191970" points="558.1231,-311.8742 547.6582,-313.5288 556.8708,-318.7613 558.1231,-311.8742"/>
</g>
<!-- Node110&#45;&gt;Node1 -->
<g id="edge69" class="edge">
<title>Node110&#45;&gt;Node1</title>
<path fill="none" stroke="#191970" d="M1830.247,-433.2417C2028.5051,-412.5805 2640,-345.5287 2640,-304.5 2640,-304.5 2640,-304.5 2640,-119.5 2640,-74.5161 2604.0637,-70.9437 2562,-55 2498.9762,-31.1117 1460.8838,-13.453 1248.6988,-10.0834"/>
<polygon fill="#191970" stroke="#191970" points="1248.4435,-6.579 1238.3895,-9.9206 1248.333,-13.5781 1248.4435,-6.579"/>
</g>
<!-- Node110&#45;&gt;Node2 -->
<g id="edge70" class="edge">
<title>Node110&#45;&gt;Node2</title>
<path fill="none" stroke="#191970" d="M1707.6677,-430.725C1601.8904,-415.6737 1378.2785,-384.2174 1189,-360 1022.6102,-338.7111 822.5037,-315.8462 749.9691,-307.6468"/>
<polygon fill="#191970" stroke="#191970" points="750.1583,-304.146 739.8288,-306.5022 749.3731,-311.1019 750.1583,-304.146"/>
</g>
<!-- Node110&#45;&gt;Node3 -->
<g id="edge71" class="edge">
<title>Node110&#45;&gt;Node3</title>
<path fill="none" stroke="#191970" d="M1742.7578,-430.4476C1722.6843,-422.3471 1695.5546,-408.6907 1678,-389 1644.7155,-351.6655 1673.8778,-316.4682 1635,-285 1608.2725,-263.3664 1520.7244,-251.119 1457.4429,-244.9037"/>
<polygon fill="#191970" stroke="#191970" points="1457.4011,-241.384 1447.1145,-243.9212 1456.7381,-248.3525 1457.4011,-241.384"/>
</g>
<!-- Node110&#45;&gt;Node88 -->
<g id="edge78" class="edge">
<title>Node110&#45;&gt;Node88</title>
<path fill="none" stroke="#191970" d="M1766.2191,-430.462C1763.688,-422.2361 1759.8358,-409.7165 1756.4163,-398.6031"/>
<polygon fill="#191970" stroke="#191970" points="1759.7341,-397.4843 1753.448,-388.9559 1753.0437,-399.543 1759.7341,-397.4843"/>
</g>
<!-- Node110&#45;&gt;Node72 -->
<g id="edge77" class="edge">
<title>Node110&#45;&gt;Node72</title>
<path fill="none" stroke="#191970" d="M1807.3766,-430.462C1856.7754,-418.8283 1942.6418,-398.6061 1996.5077,-385.9203"/>
<polygon fill="#191970" stroke="#191970" points="1997.5741,-389.265 2006.5054,-383.5658 1995.9694,-382.4514 1997.5741,-389.265"/>
</g>
<!-- Node110&#45;&gt;Node73 -->
<g id="edge72" class="edge">
<title>Node110&#45;&gt;Node73</title>
<path fill="none" stroke="#191970" d="M1830.367,-431.3629C1864.1197,-424.4687 1905.2572,-411.8698 1936,-389 1959.101,-371.815 1975.5462,-342.0854 1984.4083,-322.8627"/>
<polygon fill="#191970" stroke="#191970" points="1987.6373,-324.2142 1988.4463,-313.6503 1981.2261,-321.404 1987.6373,-324.2142"/>
</g>
<!-- Node92 -->
<g id="node35" class="node">
<title>Node92</title>
<g id="a_node35"><a xlink:href="Alias_8h_source.html" target="_top" xlink:title="DGtal/base/Alias.h">
<polygon fill="#ffffff" stroke="#ff0000" points="1828.5913,-365.5 1828.5913,-383.5 1927.4087,-383.5 1927.4087,-365.5 1828.5913,-365.5"/>
<text text-anchor="middle" x="1878" y="-371.5" font-family="FreeSans" font-size="10.00" fill="#000000">DGtal/base/Alias.h</text>
</a>
</g>
</g>
<!-- Node110&#45;&gt;Node92 -->
<g id="edge73" class="edge">
<title>Node110&#45;&gt;Node92</title>
<path fill="none" stroke="#191970" d="M1784.156,-430.462C1802.1944,-419.7052 1832.5455,-401.6059 1853.8347,-388.9105"/>
<polygon fill="#191970" stroke="#191970" points="1855.8252,-391.7987 1862.6213,-383.6708 1852.2399,-385.7865 1855.8252,-391.7987"/>
</g>
<!-- Node92&#45;&gt;Node1 -->
<g id="edge74" class="edge">
<title>Node92&#45;&gt;Node1</title>
<path fill="none" stroke="#191970" d="M1927.7254,-366.204C1942.5784,-363.9385 1958.9204,-361.6551 1974,-360 2089.8018,-347.2902 2393.9141,-378.2669 2497,-324 2539.4109,-301.6739 2564,-287.4284 2564,-239.5 2564,-239.5 2564,-239.5 2564,-119.5 2564,-74.5161 2528.0477,-70.9858 2486,-55 2426.7285,-32.466 1453.0311,-13.8344 1248.506,-10.1584"/>
<polygon fill="#191970" stroke="#191970" points="1248.3369,-6.6549 1238.2759,-9.9755 1248.2117,-13.6538 1248.3369,-6.6549"/>
</g>
<!-- Node92&#45;&gt;Node3 -->
<g id="edge75" class="edge">
<title>Node92&#45;&gt;Node3</title>
<path fill="none" stroke="#191970" d="M1864.6124,-365.3719C1836.807,-346.8967 1770.1996,-305.1247 1708,-285 1624.2543,-257.9041 1522.9959,-246.9307 1457.1269,-242.4952"/>
<polygon fill="#191970" stroke="#191970" points="1457.0706,-238.9845 1446.8673,-241.838 1456.6231,-245.9702 1457.0706,-238.9845"/>
</g>
<!-- Node92&#45;&gt;Node73 -->
<g id="edge76" class="edge">
<title>Node92&#45;&gt;Node73</title>
<path fill="none" stroke="#191970" d="M1892.9035,-365.3487C1912.1059,-353.5578 1945.7097,-332.9239 1968.4013,-318.9905"/>
<polygon fill="#191970" stroke="#191970" points="1970.4025,-321.8688 1977.0928,-313.6535 1966.7397,-315.9036 1970.4025,-321.8688"/>
</g>
<!-- Node119&#45;&gt;Node1 -->
<g id="edge80" class="edge">
<title>Node119&#45;&gt;Node1</title>
<path fill="none" stroke="#191970" d="M628.5661,-432.0782C503.7597,-413.9022 244,-354.9928 244,-179.5 244,-179.5 244,-179.5 244,-119.5 244,-85.532 255.6379,-72.0791 285,-55 323.9905,-32.3204 1004.8731,-14.4684 1173.4711,-10.3824"/>
<polygon fill="#191970" stroke="#191970" points="1173.6875,-13.8783 1183.6003,-10.1385 1173.5189,-6.8803 1173.6875,-13.8783"/>
</g>
<!-- Node119&#45;&gt;Node2 -->
<g id="edge81" class="edge">
<title>Node119&#45;&gt;Node2</title>
<path fill="none" stroke="#191970" d="M701.3,-425.3188C706.0454,-415.4128 711.906,-401.7329 715,-389 720.3092,-367.1504 721.7748,-341.291 722.0934,-323.9859"/>
<polygon fill="#191970" stroke="#191970" points="725.5963,-323.55 722.1638,-313.5266 718.5965,-323.5028 725.5963,-323.55"/>
</g>
<!-- Node119&#45;&gt;Node3 -->
<g id="edge82" class="edge">
<title>Node119&#45;&gt;Node3</title>
<path fill="none" stroke="#191970" d="M759.2702,-436.142C839.5518,-430.8156 969.8926,-417.9048 1008,-389 1048.56,-358.2348 1015.0849,-315.2913 1056,-285 1096.4944,-255.0201 1234.1764,-244.7797 1318.9945,-241.2917"/>
<polygon fill="#191970" stroke="#191970" points="1319.21,-244.786 1329.066,-240.8989 1318.9372,-237.7913 1319.21,-244.786"/>
</g>
<!-- Node119&#45;&gt;Node44 -->
<g id="edge83" class="edge">
<title>Node119&#45;&gt;Node44</title>
<path fill="none" stroke="#191970" d="M641.8302,-425.4087C617.6042,-417.2619 589.2995,-405.3359 567,-389 541.9048,-370.616 520.6078,-341.0378 508.5657,-322.1976"/>
<polygon fill="#191970" stroke="#191970" points="511.525,-320.3285 503.2809,-313.6738 505.5757,-324.0171 511.525,-320.3285"/>
</g>
<!-- Node119&#45;&gt;Node120 -->
<g id="edge84" class="edge">
<title>Node119&#45;&gt;Node120</title>
<path fill="none" stroke="#191970" d="M682.4998,-425.396C675.624,-416.9634 666.7395,-406.0673 658.9561,-396.5216"/>
<polygon fill="#191970" stroke="#191970" points="661.5098,-394.1149 652.4778,-388.5765 656.0846,-398.5385 661.5098,-394.1149"/>
</g>
<!-- Node120&#45;&gt;Node1 -->
<g id="edge85" class="edge">
<title>Node120&#45;&gt;Node1</title>
<path fill="none" stroke="#191970" d="M634.0535,-360.3482C623.315,-340.0911 600.6757,-303.2629 570,-285 490.5149,-237.6782 442.122,-300.0826 365,-249 334.321,-228.6795 320,-216.2984 320,-179.5 320,-179.5 320,-179.5 320,-119.5 320,-85.532 331.6754,-72.1433 361,-55 396.5044,-34.2439 1013.1261,-15.177 1173.2564,-10.5595"/>
<polygon fill="#191970" stroke="#191970" points="1173.6632,-14.0494 1183.5588,-10.2642 1173.4626,-7.0522 1173.6632,-14.0494"/>
</g>
<!-- Node120&#45;&gt;Node2 -->
<g id="edge86" class="edge">
<title>Node120&#45;&gt;Node2</title>
<path fill="none" stroke="#191970" d="M657.3916,-360.3345C670.7137,-348.8215 689.5078,-332.5796 703.3932,-320.5799"/>
<polygon fill="#191970" stroke="#191970" points="706.0341,-322.9236 711.3117,-313.7368 701.457,-317.6273 706.0341,-322.9236"/>
</g>
<!-- Node120&#45;&gt;Node3 -->
<g id="edge87" class="edge">
<title>Node120&#45;&gt;Node3</title>
<path fill="none" stroke="#191970" d="M644.964,-360.3528C651.5653,-339.7466 666.9416,-302.0771 695,-285 747.3961,-253.1103 1154.3569,-243.1691 1319.1034,-240.4326"/>
<polygon fill="#191970" stroke="#191970" points="1319.1854,-243.9318 1329.1273,-240.27 1319.0719,-236.9327 1319.1854,-243.9318"/>
</g>
<!-- Node120&#45;&gt;Node44 -->
<g id="edge88" class="edge">
<title>Node120&#45;&gt;Node44</title>
<path fill="none" stroke="#191970" d="M612.0618,-360.3345C586.8452,-347.9906 550.5236,-330.2109 525.6842,-318.0517"/>
<polygon fill="#191970" stroke="#191970" points="526.9727,-314.7856 516.4522,-313.5325 523.895,-321.0728 526.9727,-314.7856"/>
</g>
<!-- Node123&#45;&gt;Node1 -->
<g id="edge91" class="edge">
<title>Node123&#45;&gt;Node1</title>
<path fill="none" stroke="#191970" d="M1406.1437,-497.8876C1432.1468,-495.1502 1463.0648,-492.1256 1491,-490 1944.7963,-455.4708 2072.2139,-513.365 2510,-389 2605.1923,-361.958 2716,-403.4588 2716,-304.5 2716,-304.5 2716,-304.5 2716,-119.5 2716,-74.5161 2680.078,-70.906 2638,-55 2571.1678,-29.7366 1466.8752,-13.068 1248.3867,-10.0088"/>
<polygon fill="#191970" stroke="#191970" points="1248.421,-6.5091 1238.3732,-9.8695 1248.3235,-13.5084 1248.421,-6.5091"/>
</g>
<!-- Node123&#45;&gt;Node3 -->
<g id="edge93" class="edge">
<title>Node123&#45;&gt;Node3</title>
<path fill="none" stroke="#191970" d="M1383.4467,-490.4592C1399.2061,-482.3492 1416.0594,-470.4393 1425,-454 1460.6333,-388.4802 1419.3321,-296.4943 1398.5426,-257.793"/>
<polygon fill="#191970" stroke="#191970" points="1401.4398,-255.8002 1393.5302,-248.7512 1395.3176,-259.1941 1401.4398,-255.8002"/>
</g>
<!-- Node123&#45;&gt;Node33 -->
<g id="edge95" class="edge">
<title>Node123&#45;&gt;Node33</title>
<path fill="none" stroke="#191970" d="M1376.889,-490.3116C1396.3809,-480.7271 1422.1615,-467.4172 1444,-454 1589.5595,-364.5705 1752.5002,-238.3838 1807.6065,-194.9166"/>
<polygon fill="#191970" stroke="#191970" points="1809.8337,-197.6176 1815.5057,-188.669 1805.4912,-192.1273 1809.8337,-197.6176"/>
</g>
<!-- Node123&#45;&gt;Node72 -->
<g id="edge94" class="edge">
<title>Node123&#45;&gt;Node72</title>
<path fill="none" stroke="#191970" d="M1406.5797,-498.4873C1536.4238,-485.3701 1833.7813,-455.2511 1839,-454 1905.1547,-438.1402 1978.5819,-406.066 2017.4093,-387.8785"/>
<polygon fill="#191970" stroke="#191970" points="2018.9678,-391.0132 2026.5097,-383.5721 2015.9736,-384.6859 2018.9678,-391.0132"/>
</g>
<!-- Node123&#45;&gt;Node119 -->
<g id="edge96" class="edge">
<title>Node123&#45;&gt;Node119</title>
<path fill="none" stroke="#191970" d="M1287.6095,-498.5882C1168.5672,-486.7387 900.9524,-460.1002 769.6141,-447.0267"/>
<polygon fill="#191970" stroke="#191970" points="769.9292,-443.5408 759.6317,-446.033 769.2358,-450.5064 769.9292,-443.5408"/>
</g>
<!-- Node61 -->
<g id="node39" class="node">
<title>Node61</title>
<polygon fill="#ffffff" stroke="#bfbfbf" points="1136.3843,-365.5 1136.3843,-383.5 1179.6157,-383.5 1179.6157,-365.5 1136.3843,-365.5"/>
<text text-anchor="middle" x="1158" y="-371.5" font-family="FreeSans" font-size="10.00" fill="#000000">vector</text>
</g>
<!-- Node123&#45;&gt;Node61 -->
<g id="edge92" class="edge">
<title>Node123&#45;&gt;Node61</title>
<path fill="none" stroke="#191970" d="M1310.1042,-490.3678C1288.9723,-481.4488 1262.4723,-468.8238 1241,-454 1214.3297,-435.5876 1188.0911,-408.5372 1172.4722,-391.2214"/>
<polygon fill="#191970" stroke="#191970" points="1174.9547,-388.7455 1165.7025,-383.5834 1169.7162,-393.3886 1174.9547,-388.7455"/>
</g>
<!-- Node154&#45;&gt;Node1 -->
<g id="edge98" class="edge">
<title>Node154&#45;&gt;Node1</title>
<path fill="none" stroke="#191970" d="M1097.2837,-295.0844C917.1118,-275.882 530.2235,-230.8956 482,-194 450.6323,-170.0007 430.8782,-142.7189 453,-110 489.75,-55.6454 526.0775,-69.7953 590,-55 702.0865,-29.0568 1057.0993,-14.7996 1173.5798,-10.7309"/>
<polygon fill="#191970" stroke="#191970" points="1173.9033,-14.2219 1183.7768,-10.3795 1173.6622,-7.226 1173.9033,-14.2219"/>
</g>
<!-- Node154&#45;&gt;Node3 -->
<g id="edge100" class="edge">
<title>Node154&#45;&gt;Node3</title>
<path fill="none" stroke="#191970" d="M1247.362,-285.437C1280.7037,-274.5465 1321.5255,-261.2128 1350.5828,-251.7217"/>
<polygon fill="#191970" stroke="#191970" points="1351.9195,-254.9672 1360.3385,-248.5352 1349.746,-248.3131 1351.9195,-254.9672"/>
</g>
<!-- Node154&#45;&gt;Node13 -->
<g id="edge99" class="edge">
<title>Node154&#45;&gt;Node13</title>
<path fill="none" stroke="#191970" d="M1280.7228,-301.3895C1536.0399,-292.5279 2239.3497,-266.6531 2286,-249 2322.6787,-235.1203 2337.9804,-229.3314 2355,-194 2360.5936,-182.3881 2363.2944,-174.8654 2355,-165 2326.0397,-130.5543 2188.8586,-122.1832 2125.8196,-120.1507"/>
<polygon fill="#191970" stroke="#191970" points="2125.7554,-116.6475 2115.6586,-119.8578 2125.5536,-123.6446 2125.7554,-116.6475"/>
</g>
<!-- Node159&#45;&gt;Node1 -->
<g id="edge102" class="edge">
<title>Node159&#45;&gt;Node1</title>
<path fill="none" stroke="#191970" d="M2443.2852,-285.3365C2478.7344,-264.5721 2526,-227.8254 2526,-179.5 2526,-179.5 2526,-179.5 2526,-119.5 2526,-74.5161 2490.0389,-71.0088 2448,-55 2390.5972,-33.1405 1448.8566,-14.0307 1248.3518,-10.1981"/>
<polygon fill="#191970" stroke="#191970" points="1248.3752,-6.698 1238.3104,-10.0071 1248.242,-13.6968 1248.3752,-6.698"/>
</g>
<!-- Node159&#45;&gt;Node3 -->
<g id="edge104" class="edge">
<title>Node159&#45;&gt;Node3</title>
<path fill="none" stroke="#191970" d="M2321.938,-292.1452C2301.7081,-289.4638 2280.1061,-286.8734 2260,-285 1962.0609,-257.2397 1605.1571,-245.2381 1457.3458,-241.1976"/>
<polygon fill="#191970" stroke="#191970" points="1457.1592,-237.6914 1447.0684,-240.9203 1456.9704,-244.6888 1457.1592,-237.6914"/>
</g>
<!-- Node159&#45;&gt;Node13 -->
<g id="edge103" class="edge">
<title>Node159&#45;&gt;Node13</title>
<path fill="none" stroke="#191970" d="M2409.1326,-285.2565C2414.3475,-255.2075 2419.2271,-197.2517 2388,-165 2369.9309,-146.3381 2198.7062,-128.9087 2126.1931,-122.2991"/>
<polygon fill="#191970" stroke="#191970" points="2126.1136,-118.7779 2115.8403,-121.368 2125.4865,-125.7498 2126.1136,-118.7779"/>
</g>
<!-- Node161&#45;&gt;Node1 -->
<g id="edge106" class="edge">
<title>Node161&#45;&gt;Node1</title>
<path fill="none" stroke="#191970" d="M1898.3076,-632.9932C2066.7839,-628.8343 2498.658,-615.3604 2639,-584 2728.7356,-563.948 2830,-596.4487 2830,-504.5 2830,-504.5 2830,-504.5 2830,-119.5 2830,-60.5106 2770.8701,-70.6697 2714,-55 2568.9805,-15.042 1466.7733,-10.1527 1248.496,-9.5751"/>
<polygon fill="#191970" stroke="#191970" points="1248.2146,-6.0744 1238.2058,-9.5493 1248.197,-13.0744 1248.2146,-6.0744"/>
</g>
<!-- Node161&#45;&gt;Node3 -->
<g id="edge107" class="edge">
<title>Node161&#45;&gt;Node3</title>
<path fill="none" stroke="#191970" d="M1768.3338,-620.4336C1746.0716,-612.7717 1722.2141,-601.2103 1705,-584 1673.1326,-552.1396 1691.921,-527.5441 1667,-490 1595.5674,-382.3848 1562.2292,-365.2266 1461,-285 1446.2147,-273.2822 1428.2452,-262.0494 1413.8345,-253.6763"/>
<polygon fill="#191970" stroke="#191970" points="1415.3687,-250.5222 1404.9478,-248.6106 1411.9021,-256.6036 1415.3687,-250.5222"/>
</g>
<!-- Node161&#45;&gt;Node43 -->
<g id="edge108" class="edge">
<title>Node161&#45;&gt;Node43</title>
<path fill="none" stroke="#191970" d="M1761.4251,-628.3264C1624.7499,-616.0218 1319.5774,-588.5478 1180.0772,-575.9889"/>
<polygon fill="#191970" stroke="#191970" points="1180.1943,-572.4854 1169.9207,-575.0746 1179.5666,-579.4572 1180.1943,-572.4854"/>
</g>
<!-- Node161&#45;&gt;Node72 -->
<g id="edge110" class="edge">
<title>Node161&#45;&gt;Node72</title>
<path fill="none" stroke="#191970" d="M1843.5201,-620.1219C1852.8122,-610.1282 1865.347,-596.4241 1876,-584 1935.7286,-514.3413 2003.2584,-428.2872 2031.4816,-391.9718"/>
<polygon fill="#191970" stroke="#191970" points="2034.4174,-393.8975 2037.7814,-383.8509 2028.8865,-389.6069 2034.4174,-393.8975"/>
</g>
<!-- Node161&#45;&gt;Node73 -->
<g id="edge115" class="edge">
<title>Node161&#45;&gt;Node73</title>
<path fill="none" stroke="#191970" d="M1898.4529,-625.2668C2007.3822,-608.6328 2208,-569.2132 2208,-504.5 2208,-504.5 2208,-504.5 2208,-439.5 2208,-366.5664 2118.3488,-331.5751 2054.5611,-315.909"/>
<polygon fill="#191970" stroke="#191970" points="2055.0991,-312.44 2044.5633,-313.5577 2053.4965,-319.2541 2055.0991,-312.44"/>
</g>
<!-- Node161&#45;&gt;Node92 -->
<g id="edge109" class="edge">
<title>Node161&#45;&gt;Node92</title>
<path fill="none" stroke="#191970" d="M1840.4132,-620.257C1846.9339,-610.5446 1854.8597,-597.1116 1859,-584 1880.3271,-516.4597 1880.245,-431.0181 1878.9518,-393.5601"/>
<polygon fill="#191970" stroke="#191970" points="1882.448,-393.394 1878.5339,-383.5487 1875.4541,-393.686 1882.448,-393.394"/>
</g>
<!-- Node161&#45;&gt;Node119 -->
<g id="edge116" class="edge">
<title>Node161&#45;&gt;Node119</title>
<path fill="none" stroke="#191970" d="M1761.5674,-632.6706C1595.464,-627.8233 1174.5166,-612.9901 1037,-584 917.2666,-558.7588 786.986,-491.7916 727.2792,-458.6415"/>
<polygon fill="#191970" stroke="#191970" points="728.7505,-455.454 718.315,-453.623 725.331,-461.562 728.7505,-455.454"/>
</g>
<!-- Node162 -->
<g id="node43" class="node">
<title>Node162</title>
<g id="a_node43"><a xlink:href="CConstImage_8h_source.html" target="_top" xlink:title="DGtal/images/CConstImage.h">
<polygon fill="#ffffff" stroke="#ff0000" points="2128.584,-230.5 2128.584,-248.5 2277.416,-248.5 2277.416,-230.5 2128.584,-230.5"/>
<text text-anchor="middle" x="2203" y="-236.5" font-family="FreeSans" font-size="10.00" fill="#000000">DGtal/images/CConstImage.h</text>
</a>
</g>
</g>
<!-- Node161&#45;&gt;Node162 -->
<g id="edge111" class="edge">
<title>Node161&#45;&gt;Node162</title>
<path fill="none" stroke="#191970" d="M1898.4135,-632.4577C2118.191,-624.9988 2792,-594.7699 2792,-504.5 2792,-504.5 2792,-504.5 2792,-374.5 2792,-272.2567 2450.5371,-247.446 2287.5925,-241.427"/>
<polygon fill="#191970" stroke="#191970" points="2287.7149,-237.9292 2277.5973,-241.0731 2287.4671,-244.9248 2287.7149,-237.9292"/>
</g>
<!-- Node165 -->
<g id="node44" class="node">
<title>Node165</title>
<g id="a_node44"><a xlink:href="DrawWithDisplay3DModifier_8ih_source.html" target="_top" xlink:title="DGtal/io/DrawWithDisplay3\lDModifier.ih">
<polygon fill="#ffffff" stroke="#000000" points="1713.707,-555.5 1713.707,-583.5 1850.293,-583.5 1850.293,-555.5 1713.707,-555.5"/>
<text text-anchor="start" x="1721.707" y="-571.5" font-family="FreeSans" font-size="10.00" fill="#000000">DGtal/io/DrawWithDisplay3</text>
<text text-anchor="middle" x="1782" y="-561.5" font-family="FreeSans" font-size="10.00" fill="#000000">DModifier.ih</text>
</a>
</g>
</g>
<!-- Node161&#45;&gt;Node165 -->
<g id="edge117" class="edge">
<title>Node161&#45;&gt;Node165</title>
<path fill="none" stroke="#191970" d="M1819.5847,-620.396C1813.4205,-612.0486 1805.4736,-601.2871 1798.476,-591.8113"/>
<polygon fill="#191970" stroke="#191970" points="1801.151,-589.5417 1792.395,-583.5765 1795.5199,-593.7 1801.151,-589.5417"/>
</g>
<!-- Node162&#45;&gt;Node7 -->
<g id="edge112" class="edge">
<title>Node162&#45;&gt;Node7</title>
<path fill="none" stroke="#191970" d="M2214.8465,-230.3873C2227.173,-220.9054 2246.684,-205.897 2261.3285,-194.6319"/>
<polygon fill="#191970" stroke="#191970" points="2263.5053,-197.3732 2269.2976,-188.5019 2259.2373,-191.8248 2263.5053,-197.3732"/>
</g>
<!-- Node162&#45;&gt;Node9 -->
<g id="edge113" class="edge">
<title>Node162&#45;&gt;Node9</title>
<path fill="none" stroke="#191970" d="M2192.5204,-230.3873C2181.8818,-221.1364 2165.1938,-206.625 2152.3561,-195.4618"/>
<polygon fill="#191970" stroke="#191970" points="2154.421,-192.6192 2144.5782,-188.6985 2149.8277,-197.9014 2154.421,-192.6192"/>
</g>
<!-- Node162&#45;&gt;Node10 -->
<g id="edge114" class="edge">
<title>Node162&#45;&gt;Node10</title>
<path fill="none" stroke="#191970" d="M2169.7386,-230.3873C2131.4908,-219.9084 2068.6066,-202.6799 2026.7547,-191.2136"/>
<polygon fill="#191970" stroke="#191970" points="2027.4263,-187.7687 2016.8568,-188.5019 2025.5766,-194.5199 2027.4263,-187.7687"/>
</g>
<!-- Node166&#45;&gt;Node1 -->
<g id="edge120" class="edge">
<title>Node166&#45;&gt;Node1</title>
<path fill="none" stroke="#191970" d="M419.2208,-498.8208C291.4871,-486.7221 38,-452.8429 38,-374.5 38,-374.5 38,-374.5 38,-119.5 38,-58.1663 100.8041,-71.052 160,-55 259.3264,-28.0659 998.4779,-13.2888 1173.7877,-10.1405"/>
<polygon fill="#191970" stroke="#191970" points="1173.8794,-13.6396 1183.8155,-9.9622 1173.7548,-6.6407 1173.8794,-13.6396"/>
</g>
<!-- Node166&#45;&gt;Node3 -->
<g id="edge119" class="edge">
<title>Node166&#45;&gt;Node3</title>
<path fill="none" stroke="#191970" d="M501.8554,-495.3859C523.0115,-478.2051 571.9123,-441.2932 620,-425 695.0998,-399.5544 909.3988,-433.5414 975,-389 1018.0883,-359.7443 986.2809,-314.7921 1029,-285 1052.2674,-268.7734 1221.3904,-252.7958 1318.9853,-244.7923"/>
<polygon fill="#191970" stroke="#191970" points="1319.3848,-248.2715 1329.0684,-243.9729 1318.8177,-241.2945 1319.3848,-248.2715"/>
</g>
<!-- Node166&#45;&gt;Node5 -->
<g id="edge122" class="edge">
<title>Node166&#45;&gt;Node5</title>
<path fill="none" stroke="#191970" d="M486.32,-495.3614C467.7743,-458.5709 401.6171,-321.5257 426,-285 445.3043,-256.0821 681.4585,-174.1581 715,-165 815.75,-137.4915 938.9097,-126.0266 1000.3189,-121.7496"/>
<polygon fill="#191970" stroke="#191970" points="1000.5969,-125.2389 1010.3404,-121.0778 1000.1286,-118.2546 1000.5969,-125.2389"/>
</g>
<!-- Node166&#45;&gt;Node44 -->
<g id="edge126" class="edge">
<title>Node166&#45;&gt;Node44</title>
<path fill="none" stroke="#191970" d="M491.3114,-495.3705C492.0907,-472.5491 494.1925,-411.1758 496,-360 496.4249,-347.9705 496.911,-334.4747 497.2976,-323.8036"/>
<polygon fill="#191970" stroke="#191970" points="500.8051,-323.6566 497.6704,-313.5361 493.8097,-323.4025 500.8051,-323.6566"/>
</g>
<!-- Node166&#45;&gt;Node73 -->
<g id="edge128" class="edge">
<title>Node166&#45;&gt;Node73</title>
<path fill="none" stroke="#191970" d="M558.9022,-495.4524C806.6923,-462.4357 1661.1402,-348.5852 1918.241,-314.328"/>
<polygon fill="#191970" stroke="#191970" points="1918.7725,-317.7882 1928.2226,-312.998 1917.8479,-310.8495 1918.7725,-317.7882"/>
</g>
<!-- Node166&#45;&gt;Node119 -->
<g id="edge127" class="edge">
<title>Node166&#45;&gt;Node119</title>
<path fill="none" stroke="#191970" d="M519.2263,-495.462C550.4606,-485.4609 601.5171,-469.1127 640.4024,-456.6618"/>
<polygon fill="#191970" stroke="#191970" points="641.5504,-459.9693 650.0067,-453.5865 639.4157,-453.3027 641.5504,-459.9693"/>
</g>
<!-- Node166&#45;&gt;Node61 -->
<g id="edge121" class="edge">
<title>Node166&#45;&gt;Node61</title>
<path fill="none" stroke="#191970" d="M542.3675,-495.4642C598.0221,-485.5975 689.4054,-469.1732 768,-454 901.3133,-428.263 1059.7334,-395.2 1126.184,-381.2188"/>
<polygon fill="#191970" stroke="#191970" points="1126.9774,-384.6285 1136.0414,-379.1427 1125.5347,-377.7788 1126.9774,-384.6285"/>
</g>
<!-- Node167 -->
<g id="node46" class="node">
<title>Node167</title>
<polygon fill="#ffffff" stroke="#bfbfbf" points="199.8794,-430.5 199.8794,-448.5 248.1206,-448.5 248.1206,-430.5 199.8794,-430.5"/>
<text text-anchor="middle" x="224" y="-436.5" font-family="FreeSans" font-size="10.00" fill="#000000">GL/gl.h</text>
</g>
<!-- Node166&#45;&gt;Node167 -->
<g id="edge123" class="edge">
<title>Node166&#45;&gt;Node167</title>
<path fill="none" stroke="#191970" d="M433.8909,-495.4937C385.983,-487.154 316.1086,-473.1478 257,-454 255.5489,-453.5299 254.0749,-453.0179 252.5957,-452.4762"/>
<polygon fill="#191970" stroke="#191970" points="253.5254,-449.078 242.9413,-448.6003 250.9174,-455.574 253.5254,-449.078"/>
</g>
<!-- Node168 -->
<g id="node47" class="node">
<title>Node168</title>
<polygon fill="#ffffff" stroke="#bfbfbf" points="266.0986,-430.5 266.0986,-448.5 319.9014,-448.5 319.9014,-430.5 266.0986,-430.5"/>
<text text-anchor="middle" x="293" y="-436.5" font-family="FreeSans" font-size="10.00" fill="#000000">GL/glu.h</text>
</g>
<!-- Node166&#45;&gt;Node168 -->
<g id="edge124" class="edge">
<title>Node166&#45;&gt;Node168</title>
<path fill="none" stroke="#191970" d="M459.3923,-495.469C426.5584,-485.8962 373.8136,-469.9804 329,-454 327.3856,-453.4243 325.7366,-452.8199 324.0758,-452.1981"/>
<polygon fill="#191970" stroke="#191970" points="325.1829,-448.8736 314.5937,-448.5263 322.6551,-455.4013 325.1829,-448.8736"/>
</g>
<!-- Node169 -->
<g id="node48" class="node">
<title>Node169</title>
<polygon fill="#ffffff" stroke="#bfbfbf" points="337.6948,-430.5 337.6948,-448.5 444.3052,-448.5 444.3052,-430.5 337.6948,-430.5"/>
<text text-anchor="middle" x="391" y="-436.5" font-family="FreeSans" font-size="10.00" fill="#000000">QtGui/qapplication.h</text>
</g>
<!-- Node166&#45;&gt;Node169 -->
<g id="edge125" class="edge">
<title>Node166&#45;&gt;Node169</title>
<path fill="none" stroke="#191970" d="M477.0954,-495.462C460.6949,-484.8017 433.1999,-466.9299 413.6975,-454.2534"/>
<polygon fill="#191970" stroke="#191970" points="415.4008,-451.1861 405.1089,-448.6708 411.5858,-457.0552 415.4008,-451.1861"/>
</g>
<!-- Node187&#45;&gt;Node1 -->
<g id="edge131" class="edge">
<title>Node187&#45;&gt;Node1</title>
<path fill="none" stroke="#191970" d="M1319.7833,-430.3169C1295.2032,-413.6801 1240.2882,-378.5618 1189,-360 1066.2202,-315.5646 738.2291,-282.4005 612,-249 538.4934,-229.55 498.4319,-252.6164 450,-194 431.4235,-171.5171 443.0047,-158.0955 441,-129 440.4195,-120.5755 437.9946,-117.8915 441,-110 452.6518,-79.4053 460.564,-69.3292 490,-55 551.6856,-24.972 1034.6103,-13.0358 1173.6585,-10.2009"/>
<polygon fill="#191970" stroke="#191970" points="1173.8844,-13.6972 1183.8123,-9.9977 1173.7443,-6.6986 1173.8844,-13.6972"/>
</g>
<!-- Node187&#45;&gt;Node3 -->
<g id="edge134" class="edge">
<title>Node187&#45;&gt;Node3</title>
<path fill="none" stroke="#191970" d="M1335.5062,-430.3867C1343.917,-399.8017 1371.2555,-300.3892 1382.7902,-258.4447"/>
<polygon fill="#191970" stroke="#191970" points="1386.2022,-259.2369 1385.4791,-248.6668 1379.4528,-257.3808 1386.2022,-259.2369"/>
</g>
<!-- Node187&#45;&gt;Node5 -->
<g id="edge133" class="edge">
<title>Node187&#45;&gt;Node5</title>
<path fill="none" stroke="#191970" d="M1333.4763,-430.4807C1334.3532,-403.7023 1332.9819,-324.0964 1289,-285 1099.2294,-116.309 889.6213,-387.3116 725,-194 716.6435,-184.1871 716.5649,-174.7454 725,-165 742.8106,-144.4226 920.2517,-128.5 1000.2459,-122.3086"/>
<polygon fill="#191970" stroke="#191970" points="1000.703,-125.784 1010.408,-121.5339 1000.1709,-118.8042 1000.703,-125.784"/>
</g>
<!-- Node187&#45;&gt;Node72 -->
<g id="edge135" class="edge">
<title>Node187&#45;&gt;Node72</title>
<path fill="none" stroke="#191970" d="M1416.5226,-433.7967C1533.03,-425.5469 1750.8748,-409.0533 1936,-389 1947.7879,-387.7231 1960.2719,-386.2123 1972.4204,-384.6562"/>
<polygon fill="#191970" stroke="#191970" points="1973.0584,-388.1028 1982.5236,-383.3426 1972.1558,-381.1613 1973.0584,-388.1028"/>
</g>
<!-- Node187&#45;&gt;Node92 -->
<g id="edge136" class="edge">
<title>Node187&#45;&gt;Node92</title>
<path fill="none" stroke="#191970" d="M1416.218,-434.4722C1513.5744,-427.7601 1679.3568,-413.7441 1820,-389 1825.0457,-388.1123 1830.3018,-387.0278 1835.4997,-385.8555"/>
<polygon fill="#191970" stroke="#191970" points="1836.4291,-389.2323 1845.3531,-383.5215 1834.8156,-382.4208 1836.4291,-389.2323"/>
</g>
<!-- Node187&#45;&gt;Node61 -->
<g id="edge132" class="edge">
<title>Node187&#45;&gt;Node61</title>
<path fill="none" stroke="#191970" d="M1307.283,-430.4555C1279.3091,-420.5477 1233.3231,-404.0574 1194,-389 1192.3994,-388.3871 1190.7614,-387.7528 1189.1093,-387.1075"/>
<polygon fill="#191970" stroke="#191970" points="1190.2406,-383.7911 1179.6544,-383.3622 1187.6625,-390.2991 1190.2406,-383.7911"/>
</g>
<!-- Node196&#45;&gt;Node1 -->
<g id="edge138" class="edge">
<title>Node196&#45;&gt;Node1</title>
<path fill="none" stroke="#191970" d="M1658.0023,-501.7027C1791.3606,-496.3742 2069.446,-482.6501 2303,-454 2505.0205,-429.2181 2754,-578.0348 2754,-374.5 2754,-374.5 2754,-374.5 2754,-119.5 2754,-74.5161 2718.0845,-70.8886 2676,-55 2607.306,-29.0653 1471.2674,-12.9058 1248.6674,-9.9804"/>
<polygon fill="#191970" stroke="#191970" points="1248.5192,-6.4783 1238.4744,-9.8473 1248.4278,-13.4777 1248.5192,-6.4783"/>
</g>
<!-- Node196&#45;&gt;Node3 -->
<g id="edge139" class="edge">
<title>Node196&#45;&gt;Node3</title>
<path fill="none" stroke="#191970" d="M1570.9792,-490.4987C1550.2277,-454.742 1492.2442,-357.753 1433,-285 1424.621,-274.7104 1414.2653,-264.1181 1405.6012,-255.7452"/>
<polygon fill="#191970" stroke="#191970" points="1407.8902,-253.0924 1398.2252,-248.7521 1403.0741,-258.1723 1407.8902,-253.0924"/>
</g>
<!-- Node196&#45;&gt;Node187 -->
<g id="edge140" class="edge">
<title>Node196&#45;&gt;Node187</title>
<path fill="none" stroke="#191970" d="M1525.9245,-490.476C1481.4289,-478.719 1418.6519,-462.1316 1376.9349,-451.1088"/>
<polygon fill="#191970" stroke="#191970" points="1377.6298,-447.6724 1367.0674,-448.5016 1375.8415,-454.4401 1377.6298,-447.6724"/>
</g>
</g>
</svg>
