<?xml version="1.0" encoding="UTF-8" standalone="no"?>
<!DOCTYPE svg PUBLIC "-//W3C//DTD SVG 1.1//EN"
 "http://www.w3.org/Graphics/SVG/1.1/DTD/svg11.dtd">
<!-- Generated by graphviz version 2.36.0 (20140111.2315)
 -->
<!-- Title: SegmentComputerHierarchy Pages: 1 -->
<!--zoomable 459 -->
<svg id="main" version="1.1" xmlns="http://www.w3.org/2000/svg" xmlns:xlink="http://www.w3.org/1999/xlink" xml:space="preserve" onload="init(evt)">
<style type="text/css"><![CDATA[
.edge:hover path { stroke: red; }
.edge:hover polygon { stroke: red; fill: red; }
]]></style>
<script type="text/javascript"><![CDATA[
var edges = document.getElementsByTagName('g');
if (edges && edges.length) {
  for (var i=0;i<edges.length;i++) {
    if (edges[i].id.substr(0,4)=='edge') {
      edges[i].setAttribute('class','edge');
    }
  }
}
]]></script>
        <defs>
                <circle id="rim" cx="0" cy="0" r="7"/>
                <circle id="rim2" cx="0" cy="0" r="3.5"/>
                <g id="zoomPlus">
                        <use xlink:href="#rim" fill="#404040">
                                <set attributeName="fill" to="#808080" begin="zoomplus.mouseover" end="zoomplus.mouseout"/>
                        </use>
                        <path d="M-4,0h8M0,-4v8" fill="none" stroke="white" stroke-width="1.5" pointer-events="none"/>
                </g>
                <g id="zoomMin">
                        <use xlink:href="#rim" fill="#404040">
                                <set attributeName="fill" to="#808080" begin="zoomminus.mouseover" end="zoomminus.mouseout"/>
                        </use>
                        <path d="M-4,0h8" fill="none" stroke="white" stroke-width="1.5" pointer-events="none"/>
                </g>
                <g id="dirArrow">
                        <path fill="none" stroke="white" stroke-width="1.5" d="M0,-3.0v7 M-2.5,-0.5L0,-3.0L2.5,-0.5"/>
                </g>
               <g id="resetDef">
                       <use xlink:href="#rim2" fill="#404040">
                               <set attributeName="fill" to="#808080" begin="reset.mouseover" end="reset.mouseout"/>
                       </use>
               </g>
        </defs>

<script type="text/javascript">
var viewWidth = 549;
var viewHeight = 459;
</script>
<script xlink:href="svgpan.js"/>
<svg id="graph" class="graph">
<g id="viewport">
<title>SegmentComputerHierarchy</title>
<polygon fill="white" stroke="none" points="-4,4 -4,-455 545,-455 545,4 -4,4"/>
<g id="clust1" class="cluster"><title>cluster_concepts_1</title>
<polygon fill="lightgrey" stroke="lightgrey" points="8,-8 8,-443 533,-443 533,-8 8,-8"/>
<text text-anchor="middle" x="270.5" y="-15.8" font-family="Times,serif" font-size="14.00">geometry/curves (main concepts)</text>
</g>
<!-- CSegment -->
<g id="node1" class="node"><title>CSegment</title>
<g id="a_node1"><a xlink:href="structDGtal_1_1concepts_1_1CSegment.html" target="_top" xlink:title="CSegment">
<ellipse fill="white" stroke="white" cx="272" cy="-417" rx="48.1917" ry="18"/>
<text text-anchor="middle" x="272" y="-413.3" font-family="Times,serif" font-size="14.00">CSegment</text>
</a>
</g>
</g>
<!-- CBidirectionalSegmentComputer -->
<g id="node2" class="node"><title>CBidirectionalSegmentComputer</title>
<g id="a_node2"><a xlink:href="structDGtal_1_1concepts_1_1CBidirectionalSegmentComputer.html" target="_top" xlink:title="CBidirectionalSegmentComputer">
<ellipse fill="white" stroke="white" cx="145" cy="-129" rx="129.177" ry="18"/>
<text text-anchor="middle" x="145" y="-125.3" font-family="Times,serif" font-size="14.00">CBidirectionalSegmentComputer</text>
</a>
</g>
</g>
<!-- CForwardSegmentComputer -->
<g id="node4" class="node"><title>CForwardSegmentComputer</title>
<g id="a_node4"><a xlink:href="structDGtal_1_1concepts_1_1CForwardSegmentComputer.html" target="_top" xlink:title="CForwardSegmentComputer">
<ellipse fill="white" stroke="white" cx="272" cy="-201" rx="113.18" ry="18"/>
<text text-anchor="middle" x="272" y="-197.3" font-family="Times,serif" font-size="14.00">CForwardSegmentComputer</text>
</a>
</g>
</g>
<!-- CBidirectionalSegmentComputer&#45;&gt;CForwardSegmentComputer -->
<g id="edge1" class="edge"><title>CBidirectionalSegmentComputer&#45;&gt;CForwardSegmentComputer</title>
<path fill="none" stroke="black" d="M175.097,-146.589C192.495,-156.178 214.57,-168.345 233.254,-178.644"/>
<polygon fill="black" stroke="black" points="231.671,-181.768 242.119,-183.53 235.051,-175.638 231.671,-181.768"/>
</g>
<!-- CIncrementalSegmentComputer -->
<g id="node3" class="node"><title>CIncrementalSegmentComputer</title>
<g id="a_node3"><a xlink:href="structDGtal_1_1concepts_1_1CIncrementalSegmentComputer.html" target="_top" xlink:title="CIncrementalSegmentComputer">
<ellipse fill="white" stroke="white" cx="272" cy="-273" rx="126.178" ry="18"/>
<text text-anchor="middle" x="272" y="-269.3" font-family="Times,serif" font-size="14.00">CIncrementalSegmentComputer</text>
</a>
</g>
</g>
<!-- CSegmentFactory -->
<g id="node5" class="node"><title>CSegmentFactory</title>
<g id="a_node5"><a xlink:href="structDGtal_1_1concepts_1_1CSegmentFactory.html" target="_top" xlink:title="CSegmentFactory">
<ellipse fill="white" stroke="white" cx="272" cy="-345" rx="74.9875" ry="18"/>
<text text-anchor="middle" x="272" y="-341.3" font-family="Times,serif" font-size="14.00">CSegmentFactory</text>
</a>
</g>
</g>
<!-- CIncrementalSegmentComputer&#45;&gt;CSegmentFactory -->
<g id="edge3" class="edge"><title>CIncrementalSegmentComputer&#45;&gt;CSegmentFactory</title>
<path fill="none" stroke="black" d="M272,-291.303C272,-299.017 272,-308.288 272,-316.888"/>
<polygon fill="black" stroke="black" points="268.5,-316.896 272,-326.896 275.5,-316.896 268.5,-316.896"/>
</g>
<!-- CForwardSegmentComputer&#45;&gt;CIncrementalSegmentComputer -->
<g id="edge2" class="edge"><title>CForwardSegmentComputer&#45;&gt;CIncrementalSegmentComputer</title>
<path fill="none" stroke="black" d="M272,-219.303C272,-227.017 272,-236.288 272,-244.888"/>
<polygon fill="black" stroke="black" points="268.5,-244.896 272,-254.896 275.5,-244.896 268.5,-244.896"/>
</g>
<!-- CSegmentFactory&#45;&gt;CSegment -->
<g id="edge4" class="edge"><title>CSegmentFactory&#45;&gt;CSegment</title>
<path fill="none" stroke="black" d="M272,-363.303C272,-371.017 272,-380.288 272,-388.888"/>
<polygon fill="black" stroke="black" points="268.5,-388.896 272,-398.896 275.5,-388.896 268.5,-388.896"/>
</g>
<!-- CDynamicBidirectionalSegmentComputer -->
<g id="node6" class="node"><title>CDynamicBidirectionalSegmentComputer</title>
<g id="a_node6"><a xlink:href="structDGtal_1_1concepts_1_1CDynamicBidirectionalSegmentComputer.html" target="_top" xlink:title="CDynamicBidirectionalSegmentComputer">
<ellipse fill="white" stroke="white" cx="270" cy="-57" rx="161.671" ry="18"/>
<text text-anchor="middle" x="270" y="-53.3" font-family="Times,serif" font-size="14.00">CDynamicBidirectionalSegmentComputer</text>
</a>
</g>
</g>
<!-- CDynamicBidirectionalSegmentComputer&#45;&gt;CBidirectionalSegmentComputer -->
<g id="edge7" class="edge"><title>CDynamicBidirectionalSegmentComputer&#45;&gt;CBidirectionalSegmentComputer</title>
<path fill="none" stroke="black" d="M240.059,-74.7667C223.207,-84.2042 201.972,-96.0954 183.85,-106.244"/>
<polygon fill="black" stroke="black" points="181.711,-103.43 174.696,-111.37 185.132,-109.538 181.711,-103.43"/>
</g>
<!-- CDynamicSegmentComputer -->
<g id="node7" class="node"><title>CDynamicSegmentComputer</title>
<g id="a_node7"><a xlink:href="structDGtal_1_1concepts_1_1CDynamicSegmentComputer.html" target="_top" xlink:title="CDynamicSegmentComputer">
<ellipse fill="white" stroke="white" cx="409" cy="-129" rx="116.18" ry="18"/>
<text text-anchor="middle" x="409" y="-125.3" font-family="Times,serif" font-size="14.00">CDynamicSegmentComputer</text>
</a>
</g>
</g>
<!-- CDynamicBidirectionalSegmentComputer&#45;&gt;CDynamicSegmentComputer -->
<g id="edge6" class="edge"><title>CDynamicBidirectionalSegmentComputer&#45;&gt;CDynamicSegmentComputer</title>
<path fill="none" stroke="black" d="M303.294,-74.7667C322.517,-84.4475 346.867,-96.7102 367.351,-107.025"/>
<polygon fill="black" stroke="black" points="365.952,-110.24 376.457,-111.612 369.1,-103.988 365.952,-110.24"/>
</g>
<!-- CDynamicSegmentComputer&#45;&gt;CForwardSegmentComputer -->
<g id="edge5" class="edge"><title>CDynamicSegmentComputer&#45;&gt;CForwardSegmentComputer</title>
<path fill="none" stroke="black" d="M376.88,-146.412C357.813,-156.154 333.449,-168.602 313.004,-179.049"/>
<polygon fill="black" stroke="black" points="311.232,-176.024 303.919,-183.691 314.417,-182.258 311.232,-176.024"/>
</g>
</g>
</svg>
        <g id="navigator" transform="translate(0 0)" fill="#404254">
                <rect fill="#f2f5e9" fill-opacity="0.5" stroke="#606060" stroke-width=".5" x="0" y="0" width="60" height="60"/>
                <use id="zoomplus" xlink:href="#zoomPlus" x="17" y="9" onmousedown="handleZoom(evt,'in')"/>
                <use id="zoomminus" xlink:href="#zoomMin" x="42" y="9" onmousedown="handleZoom(evt,'out')"/>
                <use id="reset" xlink:href="#resetDef" x="30" y="36" onmousedown="handleReset()"/>
                <g id="arrowUp" xlink:href="#dirArrow" transform="translate(30 24)" onmousedown="handlePan(0,-1)">
                  <use xlink:href="#rim" fill="#404040">
                        <set attributeName="fill" to="#808080" begin="arrowUp.mouseover" end="arrowUp.mouseout"/>
                  </use>
                  <path fill="none" stroke="white" stroke-width="1.5" d="M0,-3.0v7 M-2.5,-0.5L0,-3.0L2.5,-0.5"/>
                </g>
                <g id="arrowRight" xlink:href="#dirArrow" transform="rotate(90) translate(36 -43)" onmousedown="handlePan(1,0)">
                  <use xlink:href="#rim" fill="#404040">
                        <set attributeName="fill" to="#808080" begin="arrowRight.mouseover" end="arrowRight.mouseout"/>
                  </use>
                  <path fill="none" stroke="white" stroke-width="1.5" d="M0,-3.0v7 M-2.5,-0.5L0,-3.0L2.5,-0.5"/>
                </g>
                <g id="arrowDown" xlink:href="#dirArrow" transform="rotate(180) translate(-30 -48)" onmousedown="handlePan(0,1)">
                  <use xlink:href="#rim" fill="#404040">
                        <set attributeName="fill" to="#808080" begin="arrowDown.mouseover" end="arrowDown.mouseout"/>
                  </use>
                  <path fill="none" stroke="white" stroke-width="1.5" d="M0,-3.0v7 M-2.5,-0.5L0,-3.0L2.5,-0.5"/>
                </g>
                <g id="arrowLeft" xlink:href="#dirArrow" transform="rotate(270) translate(-36 17)" onmousedown="handlePan(-1,0)">
                  <use xlink:href="#rim" fill="#404040">
                        <set attributeName="fill" to="#808080" begin="arrowLeft.mouseover" end="arrowLeft.mouseout"/>
                  </use>
                  <path fill="none" stroke="white" stroke-width="1.5" d="M0,-3.0v7 M-2.5,-0.5L0,-3.0L2.5,-0.5"/>
                </g>
        </g>
        <svg viewBox="0 0 15 15" width="100%" height="30px" preserveAspectRatio="xMaxYMin meet">
         <g id="arrow_out" transform="scale(0.3 0.3)">
          <a xlink:href="dot_inline_dotgraph_6_org.svg" target="_base">
           <rect id="button" ry="5" rx="5" y="6" x="6" height="38" width="38"
                fill="#f2f5e9" fill-opacity="0.5" stroke="#606060" stroke-width="1.0"/>
           <path id="arrow"
             d="M 11.500037,31.436501 C 11.940474,20.09759 22.043105,11.32322 32.158766,21.979434 L 37.068811,17.246167 C 37.068811,17.246167 37.088388,32 37.088388,32 L 22.160133,31.978069 C 22.160133,31.978069 26.997745,27.140456 26.997745,27.140456 C 18.528582,18.264221 13.291696,25.230495 11.500037,31.436501 z"
             style="fill:#404040;"/>
          </a>
         </g>
        </svg>
</svg>
