<?xml version="1.0" encoding="UTF-8" standalone="no"?>
<!DOCTYPE svg PUBLIC "-//W3C//DTD SVG 1.1//EN"
 "http://www.w3.org/Graphics/SVG/1.1/DTD/svg11.dtd">
<!-- Generated by graphviz version 2.36.0 (20140111.2315)
 -->
<!-- Title: GARITHMETIC Pages: 1 -->
<!--zoomable 319 -->
<svg id="main" version="1.1" xmlns="http://www.w3.org/2000/svg" xmlns:xlink="http://www.w3.org/1999/xlink" xml:space="preserve" onload="init(evt)">
<style type="text/css"><![CDATA[
.edge:hover path { stroke: red; }
.edge:hover polygon { stroke: red; fill: red; }
]]></style>
<script type="text/javascript"><![CDATA[
var edges = document.getElementsByTagName('g');
if (edges && edges.length) {
  for (var i=0;i<edges.length;i++) {
    if (edges[i].id.substr(0,4)=='edge') {
      edges[i].setAttribute('class','edge');
    }
  }
}
]]></script>
        <defs>
                <circle id="rim" cx="0" cy="0" r="7"/>
                <circle id="rim2" cx="0" cy="0" r="3.5"/>
                <g id="zoomPlus">
                        <use xlink:href="#rim" fill="#404040">
                                <set attributeName="fill" to="#808080" begin="zoomplus.mouseover" end="zoomplus.mouseout"/>
                        </use>
                        <path d="M-4,0h8M0,-4v8" fill="none" stroke="white" stroke-width="1.5" pointer-events="none"/>
                </g>
                <g id="zoomMin">
                        <use xlink:href="#rim" fill="#404040">
                                <set attributeName="fill" to="#808080" begin="zoomminus.mouseover" end="zoomminus.mouseout"/>
                        </use>
                        <path d="M-4,0h8" fill="none" stroke="white" stroke-width="1.5" pointer-events="none"/>
                </g>
                <g id="dirArrow">
                        <path fill="none" stroke="white" stroke-width="1.5" d="M0,-3.0v7 M-2.5,-0.5L0,-3.0L2.5,-0.5"/>
                </g>
               <g id="resetDef">
                       <use xlink:href="#rim2" fill="#404040">
                               <set attributeName="fill" to="#808080" begin="reset.mouseover" end="reset.mouseout"/>
                       </use>
               </g>
        </defs>

<script type="text/javascript">
var viewWidth = 1723;
var viewHeight = 319;
</script>
<script xlink:href="svgpan.js"/>
<svg id="graph" class="graph">
<g id="viewport">
<title>GARITHMETIC</title>
<polygon fill="white" stroke="none" points="-4,4 -4,-315 1719,-315 1719,4 -4,4"/>
<g id="clust1" class="cluster"><title>cluster_ext</title>
</g>
<g id="clust2" class="cluster"><title>cluster_base</title>
<polygon fill="#eeeeff" stroke="#eeeeff" points="16,-220 16,-295 384,-295 384,-220 16,-220"/>
<text text-anchor="middle" x="200" y="-227.8" font-family="Times,serif" font-size="14.00">base</text>
</g>
<g id="clust3" class="cluster"><title>cluster_kernel</title>
<polygon fill="#ddddee" stroke="#ddddee" points="392,-220 392,-295 919,-295 919,-220 392,-220"/>
<text text-anchor="middle" x="655.5" y="-227.8" font-family="Times,serif" font-size="14.00">kernel</text>
</g>
<g id="clust4" class="cluster"><title>cluster_boost</title>
<polygon fill="white" stroke="white" points="927,-220 927,-295 1699,-295 1699,-220 927,-220"/>
<text text-anchor="middle" x="1313" y="-227.8" font-family="Times,serif" font-size="14.00">boost</text>
</g>
<g id="clust5" class="cluster"><title>cluster_concepts</title>
<polygon fill="lightgrey" stroke="lightgrey" points="404,-103 404,-178 644,-178 644,-103 404,-103"/>
<text text-anchor="middle" x="524" y="-110.8" font-family="Times,serif" font-size="14.00">arithmetic (main concepts)</text>
</g>
<g id="clust6" class="cluster"><title>cluster_models</title>
<polygon fill="#ccffcc" stroke="#ccffcc" points="125,-8 125,-83 1332,-83 1332,-8 125,-8"/>
<text text-anchor="middle" x="728.5" y="-15.8" font-family="Times,serif" font-size="14.00">arithmetic (main models)</text>
</g>
<!-- CBackInsertable -->
<g id="node1" class="node"><title>CBackInsertable</title>
<g id="a_node1"><a xlink:href="structDGtal_1_1concepts_1_1CBackInsertable.html" target="_top" xlink:title="CBackInsertable">
<ellipse fill="white" stroke="white" cx="94" cy="-269" rx="69.5877" ry="18"/>
<text text-anchor="middle" x="94" y="-265.3" font-family="Times,serif" font-size="14.00">CBackInsertable</text>
</a>
</g>
</g>
<!-- CConstSinglePassRange -->
<g id="node2" class="node"><title>CConstSinglePassRange</title>
<g id="a_node2"><a xlink:href="structDGtal_1_1concepts_1_1CConstSinglePassRange.html" target="_top" xlink:title="CConstSinglePassRange">
<ellipse fill="white" stroke="white" cx="279" cy="-269" rx="97.4827" ry="18"/>
<text text-anchor="middle" x="279" y="-265.3" font-family="Times,serif" font-size="14.00">CConstSinglePassRange</text>
</a>
</g>
</g>
<!-- CInteger -->
<g id="node3" class="node"><title>CInteger</title>
<g id="a_node3"><a xlink:href="structDGtal_1_1concepts_1_1CInteger.html" target="_top" xlink:title="CInteger">
<ellipse fill="white" stroke="white" cx="600" cy="-269" rx="41.6928" ry="18"/>
<text text-anchor="middle" x="600" y="-265.3" font-family="Times,serif" font-size="14.00">CInteger</text>
</a>
</g>
</g>
<!-- CSignedNumber -->
<g id="node4" class="node"><title>CSignedNumber</title>
<g id="a_node4"><a xlink:href="structDGtal_1_1concepts_1_1CSignedNumber.html" target="_top" xlink:title="CSignedNumber">
<ellipse fill="white" stroke="white" cx="470" cy="-269" rx="70.3881" ry="18"/>
<text text-anchor="middle" x="470" y="-265.3" font-family="Times,serif" font-size="14.00">CSignedNumber</text>
</a>
</g>
</g>
<!-- CUnsignedNumber -->
<g id="node5" class="node"><title>CUnsignedNumber</title>
<g id="a_node5"><a xlink:href="structDGtal_1_1concepts_1_1CUnsignedNumber.html" target="_top" xlink:title="CUnsignedNumber">
<ellipse fill="white" stroke="white" cx="832" cy="-269" rx="79.0865" ry="18"/>
<text text-anchor="middle" x="832" y="-265.3" font-family="Times,serif" font-size="14.00">CUnsignedNumber</text>
</a>
</g>
</g>
<!-- CSpace -->
<g id="node6" class="node"><title>CSpace</title>
<g id="a_node6"><a xlink:href="structDGtal_1_1concepts_1_1CSpace.html" target="_top" xlink:title="CSpace">
<ellipse fill="white" stroke="white" cx="697" cy="-269" rx="37.8943" ry="18"/>
<text text-anchor="middle" x="697" y="-265.3" font-family="Times,serif" font-size="14.00">CSpace</text>
</a>
</g>
</g>
<!-- boost_CopyConstructible -->
<g id="node7" class="node"><title>boost_CopyConstructible</title>
<g id="a_node7"><a xlink:href="structboost_1_1CopyConstructible.html" target="_top" xlink:title="boost::CopyConstructible">
<ellipse fill="orange" stroke="orange" cx="1271" cy="-269" rx="100.983" ry="18"/>
<text text-anchor="middle" x="1271" y="-265.3" font-family="Times,serif" font-size="14.00">boost::CopyConstructible</text>
</a>
</g>
</g>
<!-- boost_DefaultConstructible -->
<g id="node8" class="node"><title>boost_DefaultConstructible</title>
<g id="a_node8"><a xlink:href="structboost_1_1DefaultConstructible.html" target="_top" xlink:title="boost::DefaultConstructible">
<ellipse fill="orange" stroke="orange" cx="1044" cy="-269" rx="108.581" ry="18"/>
<text text-anchor="middle" x="1044" y="-265.3" font-family="Times,serif" font-size="14.00">boost::DefaultConstructible</text>
</a>
</g>
</g>
<!-- boost_Assignable -->
<g id="node9" class="node"><title>boost_Assignable</title>
<g id="a_node9"><a xlink:href="structboost_1_1Assignable.html" target="_top" xlink:title="boost::Assignable">
<ellipse fill="orange" stroke="orange" cx="1463" cy="-269" rx="73.387" ry="18"/>
<text text-anchor="middle" x="1463" y="-265.3" font-family="Times,serif" font-size="14.00">boost::Assignable</text>
</a>
</g>
</g>
<!-- boost_Sequence -->
<g id="node10" class="node"><title>boost_Sequence</title>
<g id="a_node10"><a xlink:href="structboost_1_1Sequence.html" target="_top" xlink:title="boost::Sequence">
<ellipse fill="orange" stroke="orange" cx="1623" cy="-269" rx="68.4888" ry="18"/>
<text text-anchor="middle" x="1623" y="-265.3" font-family="Times,serif" font-size="14.00">boost::Sequence</text>
</a>
</g>
</g>
<!-- CPositiveIrreducibleFraction -->
<g id="node11" class="node"><title>CPositiveIrreducibleFraction</title>
<g id="a_node11"><a xlink:href="structDGtal_1_1concepts_1_1CPositiveIrreducibleFraction.html" target="_top" xlink:title="CPositiveIrreducibleFraction">
<ellipse fill="white" stroke="white" cx="524" cy="-152" rx="112.38" ry="18"/>
<text text-anchor="middle" x="524" y="-148.3" font-family="Times,serif" font-size="14.00">CPositiveIrreducibleFraction</text>
</a>
</g>
</g>
<!-- CPositiveIrreducibleFraction&#45;&gt;CBackInsertable -->
<g id="edge1" class="edge"><title>CPositiveIrreducibleFraction&#45;&gt;CBackInsertable</title>
<path fill="none" stroke="black" d="M418.873,-158.342C347.31,-164.905 251.676,-179.514 173,-212 153.775,-219.938 134.681,-233.283 120.082,-244.954"/>
<polygon fill="black" stroke="black" points="117.532,-242.52 112.038,-251.579 121.982,-247.923 117.532,-242.52"/>
</g>
<!-- CPositiveIrreducibleFraction&#45;&gt;CConstSinglePassRange -->
<g id="edge2" class="edge"><title>CPositiveIrreducibleFraction&#45;&gt;CConstSinglePassRange</title>
<path fill="none" stroke="black" d="M485.302,-168.994C457.922,-180.504 420.454,-196.644 388,-212 364.653,-223.047 338.935,-236.211 318.346,-247"/>
<polygon fill="black" stroke="black" points="316.494,-244.019 309.275,-251.773 319.754,-250.214 316.494,-244.019"/>
</g>
<!-- CPositiveIrreducibleFraction&#45;&gt;CInteger -->
<g id="edge6" class="edge"><title>CPositiveIrreducibleFraction&#45;&gt;CInteger</title>
<path fill="none" stroke="black" stroke-dasharray="5,2" d="M535.214,-169.969C547.916,-189.188 568.741,-220.7 583.343,-242.796"/>
<polygon fill="black" stroke="black" points="580.554,-244.923 588.987,-251.336 586.393,-241.063 580.554,-244.923"/>
<text text-anchor="middle" x="566.5" y="-192.3" font-family="Times,serif" font-size="14.00">use</text>
</g>
<!-- CPositiveIrreducibleFraction&#45;&gt;CSignedNumber -->
<g id="edge7" class="edge"><title>CPositiveIrreducibleFraction&#45;&gt;CSignedNumber</title>
<path fill="none" stroke="black" stroke-dasharray="5,2" d="M516.032,-169.969C507.139,-188.909 492.64,-219.786 482.291,-241.825"/>
<polygon fill="black" stroke="black" points="479.083,-240.422 478.001,-250.962 485.419,-243.398 479.083,-240.422"/>
<text text-anchor="middle" x="516.5" y="-192.3" font-family="Times,serif" font-size="14.00">use</text>
</g>
<!-- CPositiveIrreducibleFraction&#45;&gt;boost_CopyConstructible -->
<g id="edge4" class="edge"><title>CPositiveIrreducibleFraction&#45;&gt;boost_CopyConstructible</title>
<path fill="none" stroke="black" d="M619.235,-161.592C795.313,-177.507 1154.56,-210.137 1161,-212 1187.72,-219.73 1215.62,-234.017 1236.64,-246.225"/>
<polygon fill="black" stroke="black" points="1235.1,-249.384 1245.49,-251.48 1238.68,-243.365 1235.1,-249.384"/>
</g>
<!-- CPositiveIrreducibleFraction&#45;&gt;boost_DefaultConstructible -->
<g id="edge3" class="edge"><title>CPositiveIrreducibleFraction&#45;&gt;boost_DefaultConstructible</title>
<path fill="none" stroke="black" d="M574.136,-168.19C616.138,-180.199 677.899,-196.195 733,-204 774.842,-209.927 881.929,-202.046 923,-212 952.79,-219.22 984.137,-233.954 1007.46,-246.497"/>
<polygon fill="black" stroke="black" points="1005.85,-249.607 1016.3,-251.354 1009.22,-243.472 1005.85,-249.607"/>
</g>
<!-- CPositiveIrreducibleFraction&#45;&gt;boost_Assignable -->
<g id="edge5" class="edge"><title>CPositiveIrreducibleFraction&#45;&gt;boost_Assignable</title>
<path fill="none" stroke="black" d="M617.646,-161.99C673.94,-167.18 747.034,-173.541 812,-178 899.905,-184.033 922.034,-182.926 1010,-188 1020.28,-188.593 1370.25,-208.671 1380,-212 1400.82,-219.111 1421.34,-232.879 1436.77,-244.982"/>
<polygon fill="black" stroke="black" points="1434.81,-247.903 1444.78,-251.483 1439.22,-242.466 1434.81,-247.903"/>
</g>
<!-- SternBrocot_Fraction -->
<g id="node12" class="node"><title>SternBrocot_Fraction</title>
<g id="a_node12"><a xlink:href="classDGtal_1_1SternBrocot_1_1Fraction.html" target="_top" xlink:title="SternBrocot::Fraction">
<ellipse fill="white" stroke="white" cx="220" cy="-57" rx="87.1846" ry="18"/>
<text text-anchor="middle" x="220" y="-53.3" font-family="Times,serif" font-size="14.00">SternBrocot::Fraction</text>
</a>
</g>
</g>
<!-- SternBrocot_Fraction&#45;&gt;CPositiveIrreducibleFraction -->
<g id="edge8" class="edge"><title>SternBrocot_Fraction&#45;&gt;CPositiveIrreducibleFraction</title>
<path fill="none" stroke="black" d="M266.502,-72.2259C319.567,-88.4598 406.484,-115.049 464.459,-132.785"/>
<polygon fill="black" stroke="black" points="463.632,-136.192 474.218,-135.771 465.68,-129.498 463.632,-136.192"/>
</g>
<!-- LightSternBrocot_Fraction -->
<g id="node13" class="node"><title>LightSternBrocot_Fraction</title>
<g id="a_node13"><a xlink:href="classDGtal_1_1LightSternBrocot_1_1Fraction.html" target="_top" xlink:title="LightSternBrocot::Fraction">
<ellipse fill="white" stroke="white" cx="432" cy="-57" rx="106.681" ry="18"/>
<text text-anchor="middle" x="432" y="-53.3" font-family="Times,serif" font-size="14.00">LightSternBrocot::Fraction</text>
</a>
</g>
</g>
<!-- LightSternBrocot_Fraction&#45;&gt;CPositiveIrreducibleFraction -->
<g id="edge9" class="edge"><title>LightSternBrocot_Fraction&#45;&gt;CPositiveIrreducibleFraction</title>
<path fill="none" stroke="black" d="M448.874,-75.0576C463.14,-89.4781 483.754,-110.316 499.781,-126.518"/>
<polygon fill="black" stroke="black" points="497.712,-129.403 507.233,-134.051 502.688,-124.48 497.712,-129.403"/>
</g>
<!-- LighterSternBrocot_Fraction -->
<g id="node14" class="node"><title>LighterSternBrocot_Fraction</title>
<g id="a_node14"><a xlink:href="classDGtal_1_1LighterSternBrocot_1_1Fraction.html" target="_top" xlink:title="LighterSternBrocot::Fraction">
<ellipse fill="white" stroke="white" cx="670" cy="-57" rx="113.18" ry="18"/>
<text text-anchor="middle" x="670" y="-53.3" font-family="Times,serif" font-size="14.00">LighterSternBrocot::Fraction</text>
</a>
</g>
</g>
<!-- LighterSternBrocot_Fraction&#45;&gt;CPositiveIrreducibleFraction -->
<g id="edge10" class="edge"><title>LighterSternBrocot_Fraction&#45;&gt;CPositiveIrreducibleFraction</title>
<path fill="none" stroke="black" d="M643.898,-74.6265C620.17,-89.7412 584.977,-112.158 558.851,-128.8"/>
<polygon fill="black" stroke="black" points="556.922,-125.879 550.368,-134.204 560.683,-131.783 556.922,-125.879"/>
</g>
<!-- IntegerComputer -->
<g id="node15" class="node"><title>IntegerComputer</title>
<g id="a_node15"><a xlink:href="classDGtal_1_1IntegerComputer.html" target="_top" xlink:title="IntegerComputer">
<ellipse fill="white" stroke="white" cx="1080" cy="-57" rx="71.4873" ry="18"/>
<text text-anchor="middle" x="1080" y="-53.3" font-family="Times,serif" font-size="14.00">IntegerComputer</text>
</a>
</g>
</g>
<!-- IntegerComputer&#45;&gt;CInteger -->
<g id="edge14" class="edge"><title>IntegerComputer&#45;&gt;CInteger</title>
<path fill="none" stroke="black" stroke-dasharray="5,2" d="M1036.94,-71.5042C1001.19,-82.8897 954.962,-98.0906 947,-103 906.605,-127.906 913.402,-156.69 871,-178 782.206,-222.627 737.341,-164.592 650,-212 636.49,-219.333 624.816,-231.795 616.154,-243.103"/>
<polygon fill="black" stroke="black" points="613.162,-241.269 610.136,-251.422 618.833,-245.371 613.162,-241.269"/>
<text text-anchor="middle" x="956.5" y="-148.3" font-family="Times,serif" font-size="14.00">use</text>
</g>
<!-- IntegerComputer&#45;&gt;CUnsignedNumber -->
<g id="edge15" class="edge"><title>IntegerComputer&#45;&gt;CUnsignedNumber</title>
<path fill="none" stroke="black" stroke-dasharray="5,2" d="M1063.67,-74.6343C1055.36,-83.1078 1045.12,-93.584 1036,-103 992.688,-147.695 989.12,-167.101 939,-204 932.598,-208.714 929.948,-208.135 923,-212 903.673,-222.751 882.612,-235.633 865.623,-246.331"/>
<polygon fill="black" stroke="black" points="863.716,-243.395 857.141,-251.703 867.462,-249.309 863.716,-243.395"/>
<text text-anchor="middle" x="1045.5" y="-148.3" font-family="Times,serif" font-size="14.00">use</text>
</g>
<!-- IntegerComputer&#45;&gt;boost_CopyConstructible -->
<g id="edge12" class="edge"><title>IntegerComputer&#45;&gt;boost_CopyConstructible</title>
<path fill="none" stroke="black" d="M1082.46,-75.2874C1086.79,-100.346 1097.82,-147.132 1123,-178 1138.13,-196.553 1191.7,-226.846 1230.04,-247.097"/>
<polygon fill="black" stroke="black" points="1228.45,-250.218 1238.93,-251.762 1231.7,-244.019 1228.45,-250.218"/>
</g>
<!-- IntegerComputer&#45;&gt;boost_DefaultConstructible -->
<g id="edge11" class="edge"><title>IntegerComputer&#45;&gt;boost_DefaultConstructible</title>
<path fill="none" stroke="black" d="M1077.05,-75.1852C1070.8,-111.655 1056.16,-197.038 1048.64,-240.916"/>
<polygon fill="black" stroke="black" points="1045.18,-240.424 1046.94,-250.872 1052.08,-241.607 1045.18,-240.424"/>
</g>
<!-- IntegerComputer&#45;&gt;boost_Assignable -->
<g id="edge13" class="edge"><title>IntegerComputer&#45;&gt;boost_Assignable</title>
<path fill="none" stroke="black" d="M1096.05,-74.8497C1103.45,-83.0267 1112.11,-93.1862 1119,-103 1140.96,-134.264 1129.62,-156.203 1161,-178 1241.89,-234.198 1288.3,-176.034 1380,-212 1400.21,-219.926 1420.45,-233.444 1435.89,-245.213"/>
<polygon fill="black" stroke="black" points="1433.91,-248.109 1443.94,-251.525 1438.23,-242.6 1433.91,-248.109"/>
</g>
<!-- LatticePolytope2D -->
<g id="node16" class="node"><title>LatticePolytope2D</title>
<g id="a_node16"><a xlink:href="classDGtal_1_1LatticePolytope2D.html" target="_top" xlink:title="LatticePolytope2D">
<ellipse fill="white" stroke="white" cx="1247" cy="-57" rx="77.1866" ry="18"/>
<text text-anchor="middle" x="1247" y="-53.3" font-family="Times,serif" font-size="14.00">LatticePolytope2D</text>
</a>
</g>
</g>
<!-- LatticePolytope2D&#45;&gt;CSpace -->
<g id="edge16" class="edge"><title>LatticePolytope2D&#45;&gt;CSpace</title>
<path fill="none" stroke="black" stroke-dasharray="5,2" d="M1227.76,-74.6558C1195.4,-101.599 1126.95,-154.13 1059,-178 1025.79,-189.667 775.06,-195.431 744,-212 730.703,-219.093 719.63,-231.653 711.578,-243.083"/>
<polygon fill="black" stroke="black" points="708.614,-241.221 706.023,-251.494 714.455,-245.078 708.614,-241.221"/>
<text text-anchor="middle" x="1199.5" y="-148.3" font-family="Times,serif" font-size="14.00">use</text>
</g>
<!-- LatticePolytope2D&#45;&gt;boost_CopyConstructible -->
<g id="edge18" class="edge"><title>LatticePolytope2D&#45;&gt;boost_CopyConstructible</title>
<path fill="none" stroke="black" d="M1248.96,-75.1852C1253.13,-111.655 1262.89,-197.038 1267.9,-240.916"/>
<polygon fill="black" stroke="black" points="1264.43,-241.334 1269.04,-250.872 1271.38,-240.539 1264.43,-241.334"/>
</g>
<!-- LatticePolytope2D&#45;&gt;boost_DefaultConstructible -->
<g id="edge17" class="edge"><title>LatticePolytope2D&#45;&gt;boost_DefaultConstructible</title>
<path fill="none" stroke="black" d="M1246.32,-75.3541C1244.13,-106.11 1235,-170.124 1197,-204 1184.77,-214.907 1176.49,-206.649 1161,-212 1133.87,-221.369 1104.76,-235.288 1082.36,-246.905"/>
<polygon fill="black" stroke="black" points="1080.73,-243.807 1073.51,-251.557 1083.99,-250.004 1080.73,-243.807"/>
</g>
<!-- LatticePolytope2D&#45;&gt;boost_Assignable -->
<g id="edge19" class="edge"><title>LatticePolytope2D&#45;&gt;boost_Assignable</title>
<path fill="none" stroke="black" d="M1264.31,-74.8302C1302.56,-112.016 1394.36,-201.268 1438.49,-244.175"/>
<polygon fill="black" stroke="black" points="1436.3,-246.92 1445.91,-251.381 1441.18,-241.901 1436.3,-246.92"/>
</g>
<!-- LatticePolytope2D&#45;&gt;boost_Sequence -->
<g id="edge20" class="edge"><title>LatticePolytope2D&#45;&gt;boost_Sequence</title>
<path fill="none" stroke="black" d="M1281.74,-73.2556C1300.61,-81.7124 1324.25,-92.5954 1345,-103 1435.5,-148.371 1459.27,-158.155 1545,-212 1561.64,-222.451 1579.49,-235.15 1593.91,-245.811"/>
<polygon fill="black" stroke="black" points="1591.86,-248.648 1601.97,-251.82 1596.05,-243.036 1591.86,-248.648"/>
</g>
<!-- ClosedIntegerHalfPlane -->
<g id="node17" class="node"><title>ClosedIntegerHalfPlane</title>
<g id="a_node17"><a xlink:href="structDGtal_1_1ClosedIntegerHalfPlane.html" target="_top" xlink:title="ClosedIntegerHalfPlane">
<ellipse fill="white" stroke="white" cx="896" cy="-57" rx="94.7833" ry="18"/>
<text text-anchor="middle" x="896" y="-53.3" font-family="Times,serif" font-size="14.00">ClosedIntegerHalfPlane</text>
</a>
</g>
</g>
<!-- ClosedIntegerHalfPlane&#45;&gt;CSpace -->
<g id="edge21" class="edge"><title>ClosedIntegerHalfPlane&#45;&gt;CSpace</title>
<path fill="none" stroke="black" stroke-dasharray="5,2" d="M878.206,-75.1078C849.331,-103.071 790.786,-160.611 744,-212 734.654,-222.265 724.715,-233.981 716.395,-244.034"/>
<polygon fill="black" stroke="black" points="713.479,-242.071 709.836,-252.02 718.888,-246.514 713.479,-242.071"/>
<text text-anchor="middle" x="857.5" y="-148.3" font-family="Times,serif" font-size="14.00">use</text>
</g>
</g>
</svg>
        <g id="navigator" transform="translate(0 0)" fill="#404254">
                <rect fill="#f2f5e9" fill-opacity="0.5" stroke="#606060" stroke-width=".5" x="0" y="0" width="60" height="60"/>
                <use id="zoomplus" xlink:href="#zoomPlus" x="17" y="9" onmousedown="handleZoom(evt,'in')"/>
                <use id="zoomminus" xlink:href="#zoomMin" x="42" y="9" onmousedown="handleZoom(evt,'out')"/>
                <use id="reset" xlink:href="#resetDef" x="30" y="36" onmousedown="handleReset()"/>
                <g id="arrowUp" xlink:href="#dirArrow" transform="translate(30 24)" onmousedown="handlePan(0,-1)">
                  <use xlink:href="#rim" fill="#404040">
                        <set attributeName="fill" to="#808080" begin="arrowUp.mouseover" end="arrowUp.mouseout"/>
                  </use>
                  <path fill="none" stroke="white" stroke-width="1.5" d="M0,-3.0v7 M-2.5,-0.5L0,-3.0L2.5,-0.5"/>
                </g>
                <g id="arrowRight" xlink:href="#dirArrow" transform="rotate(90) translate(36 -43)" onmousedown="handlePan(1,0)">
                  <use xlink:href="#rim" fill="#404040">
                        <set attributeName="fill" to="#808080" begin="arrowRight.mouseover" end="arrowRight.mouseout"/>
                  </use>
                  <path fill="none" stroke="white" stroke-width="1.5" d="M0,-3.0v7 M-2.5,-0.5L0,-3.0L2.5,-0.5"/>
                </g>
                <g id="arrowDown" xlink:href="#dirArrow" transform="rotate(180) translate(-30 -48)" onmousedown="handlePan(0,1)">
                  <use xlink:href="#rim" fill="#404040">
                        <set attributeName="fill" to="#808080" begin="arrowDown.mouseover" end="arrowDown.mouseout"/>
                  </use>
                  <path fill="none" stroke="white" stroke-width="1.5" d="M0,-3.0v7 M-2.5,-0.5L0,-3.0L2.5,-0.5"/>
                </g>
                <g id="arrowLeft" xlink:href="#dirArrow" transform="rotate(270) translate(-36 17)" onmousedown="handlePan(-1,0)">
                  <use xlink:href="#rim" fill="#404040">
                        <set attributeName="fill" to="#808080" begin="arrowLeft.mouseover" end="arrowLeft.mouseout"/>
                  </use>
                  <path fill="none" stroke="white" stroke-width="1.5" d="M0,-3.0v7 M-2.5,-0.5L0,-3.0L2.5,-0.5"/>
                </g>
        </g>
        <svg viewBox="0 0 15 15" width="100%" height="30px" preserveAspectRatio="xMaxYMin meet">
         <g id="arrow_out" transform="scale(0.3 0.3)">
          <a xlink:href="dot_inline_dotgraph_1_org.svg" target="_base">
           <rect id="button" ry="5" rx="5" y="6" x="6" height="38" width="38"
                fill="#f2f5e9" fill-opacity="0.5" stroke="#606060" stroke-width="1.0"/>
           <path id="arrow"
             d="M 11.500037,31.436501 C 11.940474,20.09759 22.043105,11.32322 32.158766,21.979434 L 37.068811,17.246167 C 37.068811,17.246167 37.088388,32 37.088388,32 L 22.160133,31.978069 C 22.160133,31.978069 26.997745,27.140456 26.997745,27.140456 C 18.528582,18.264221 13.291696,25.230495 11.500037,31.436501 z"
             style="fill:#404040;"/>
          </a>
         </g>
        </svg>
</svg>
