<?xml version="1.0" encoding="UTF-8" standalone="no"?>
<!DOCTYPE svg PUBLIC "-//W3C//DTD SVG 1.1//EN"
 "http://www.w3.org/Graphics/SVG/1.1/DTD/svg11.dtd">
<!-- Generated by graphviz version 2.40.1 (20161225.0304)
 -->
<!-- Title: exampleEuclideanShapesDecorator.cpp Pages: 1 -->
<svg width="3095pt" height="572pt"
 viewBox="0.00 0.00 3094.93 572.00" xmlns="http://www.w3.org/2000/svg" xmlns:xlink="http://www.w3.org/1999/xlink">
<g id="graph0" class="graph" transform="scale(1 1) rotate(0) translate(4 568)">
<title>exampleEuclideanShapesDecorator.cpp</title>
<polygon fill="#ffffff" stroke="transparent" points="-4,4 -4,-568 3090.9331,-568 3090.9331,4 -4,4"/>
<!-- Node0 -->
<g id="node1" class="node">
<title>Node0</title>
<polygon fill="#bfbfbf" stroke="#000000" points="1496.0522,-545.5 1496.0522,-563.5 1689.9478,-563.5 1689.9478,-545.5 1496.0522,-545.5"/>
<text text-anchor="middle" x="1593" y="-551.5" font-family="FreeSans" font-size="10.00" fill="#000000">exampleEuclideanShapesDecorator.cpp</text>
</g>
<!-- Node1 -->
<g id="node2" class="node">
<title>Node1</title>
<polygon fill="#ffffff" stroke="#bfbfbf" points="939.8276,-.5 939.8276,-18.5 994.1724,-18.5 994.1724,-.5 939.8276,-.5"/>
<text text-anchor="middle" x="967" y="-6.5" font-family="FreeSans" font-size="10.00" fill="#000000">iostream</text>
</g>
<!-- Node0&#45;&gt;Node1 -->
<g id="edge1" class="edge">
<title>Node0&#45;&gt;Node1</title>
<path fill="none" stroke="#191970" d="M1496.0467,-551.9946C1150.5458,-542.4364 0,-504.9432 0,-429.5 0,-429.5 0,-429.5 0,-119.5 0,-80.6492 23.8495,-71.5476 59,-55 138.57,-17.5414 767.8357,-10.8192 929.3316,-9.7067"/>
<polygon fill="#191970" stroke="#191970" points="929.7337,-13.2043 939.7105,-9.6386 929.6877,-6.2044 929.7337,-13.2043"/>
</g>
<!-- Node2 -->
<g id="node3" class="node">
<title>Node2</title>
<g id="a_node3"><a xlink:href="Common_8h_source.html" target="_top" xlink:title="DGtal/base/Common.h">
<polygon fill="#ffffff" stroke="#000000" points="1141.1455,-230.5 1141.1455,-248.5 1258.8545,-248.5 1258.8545,-230.5 1141.1455,-230.5"/>
<text text-anchor="middle" x="1200" y="-236.5" font-family="FreeSans" font-size="10.00" fill="#000000">DGtal/base/Common.h</text>
</a>
</g>
</g>
<!-- Node0&#45;&gt;Node2 -->
<g id="edge2" class="edge">
<title>Node0&#45;&gt;Node2</title>
<path fill="none" stroke="#191970" d="M1544.9026,-545.4834C1457.8294,-527.7775 1283,-485.2814 1283,-429.5 1283,-429.5 1283,-429.5 1283,-364.5 1283,-318.862 1244.1274,-277.1463 1219.5877,-255.3587"/>
<polygon fill="#191970" stroke="#191970" points="1221.7607,-252.6115 1211.8919,-248.757 1217.203,-257.9245 1221.7607,-252.6115"/>
</g>
<!-- Node42 -->
<g id="node25" class="node">
<title>Node42</title>
<g id="a_node25"><a xlink:href="GaussDigitizer_8h_source.html" target="_top" xlink:title="Computes the Gauss digitization of some Euclidean shape. ">
<polygon fill="#ffffff" stroke="#000000" points="605.9116,-420.5 605.9116,-438.5 758.0884,-438.5 758.0884,-420.5 605.9116,-420.5"/>
<text text-anchor="middle" x="682" y="-426.5" font-family="FreeSans" font-size="10.00" fill="#000000">DGtal/shapes/GaussDigitizer.h</text>
</a>
</g>
</g>
<!-- Node0&#45;&gt;Node42 -->
<g id="edge41" class="edge">
<title>Node0&#45;&gt;Node42</title>
<path fill="none" stroke="#191970" d="M1495.8943,-552.1605C1296.2376,-546.8939 852.8842,-532.6832 788,-509 751.3188,-495.6111 716.6768,-465.0234 697.4977,-445.9323"/>
<polygon fill="#191970" stroke="#191970" points="699.7589,-443.2387 690.264,-438.538 694.7551,-448.1338 699.7589,-443.2387"/>
</g>
<!-- Node86 -->
<g id="node33" class="node">
<title>Node86</title>
<g id="a_node33"><a xlink:href="LightImplicitDigitalSurface_8h_source.html" target="_top" xlink:title="DGtal/topology/LightImplicit\lDigitalSurface.h">
<polygon fill="#ffffff" stroke="#000000" points="2095.1382,-480.5 2095.1382,-508.5 2232.8618,-508.5 2232.8618,-480.5 2095.1382,-480.5"/>
<text text-anchor="start" x="2103.1382" y="-496.5" font-family="FreeSans" font-size="10.00" fill="#000000">DGtal/topology/LightImplicit</text>
<text text-anchor="middle" x="2164" y="-486.5" font-family="FreeSans" font-size="10.00" fill="#000000">DigitalSurface.h</text>
</a>
</g>
</g>
<!-- Node0&#45;&gt;Node86 -->
<g id="edge65" class="edge">
<title>Node0&#45;&gt;Node86</title>
<path fill="none" stroke="#191970" d="M1678.7934,-545.4849C1788.8787,-533.9173 1978.3287,-514.0101 2085.0181,-502.7993"/>
<polygon fill="#191970" stroke="#191970" points="2085.4997,-506.2681 2095.0791,-501.7421 2084.7681,-499.3064 2085.4997,-506.2681"/>
</g>
<!-- Node129 -->
<g id="node42" class="node">
<title>Node129</title>
<g id="a_node42"><a xlink:href="DigitalSurface_8h_source.html" target="_top" xlink:title="DGtal/topology/DigitalSurface.h">
<polygon fill="#ffffff" stroke="#ff0000" points="2703.2417,-485.5 2703.2417,-503.5 2858.7583,-503.5 2858.7583,-485.5 2703.2417,-485.5"/>
<text text-anchor="middle" x="2781" y="-491.5" font-family="FreeSans" font-size="10.00" fill="#000000">DGtal/topology/DigitalSurface.h</text>
</a>
</g>
</g>
<!-- Node0&#45;&gt;Node129 -->
<g id="edge89" class="edge">
<title>Node0&#45;&gt;Node129</title>
<path fill="none" stroke="#191970" d="M1690.1709,-551.8994C1920.8992,-545.4923 2496.7648,-528.0756 2689,-509 2699.2425,-507.9836 2710.0797,-506.5762 2720.5825,-505.035"/>
<polygon fill="#191970" stroke="#191970" points="2721.1588,-508.4877 2730.5194,-503.5247 2720.107,-501.5671 2721.1588,-508.4877"/>
</g>
<!-- Node142 -->
<g id="node46" class="node">
<title>Node142</title>
<g id="a_node46"><a xlink:href="Board2D_8h_source.html" target="_top" xlink:title="DGtal/io/boards/Board2D.h">
<polygon fill="#ffffff" stroke="#ff0000" points="2513.9683,-290.5 2513.9683,-308.5 2650.0317,-308.5 2650.0317,-290.5 2513.9683,-290.5"/>
<text text-anchor="middle" x="2582" y="-296.5" font-family="FreeSans" font-size="10.00" fill="#000000">DGtal/io/boards/Board2D.h</text>
</a>
</g>
</g>
<!-- Node0&#45;&gt;Node142 -->
<g id="edge96" class="edge">
<title>Node0&#45;&gt;Node142</title>
<path fill="none" stroke="#191970" d="M1690.0567,-550.0663C1844.362,-542.6166 2138.7378,-526.6594 2242,-509 2349.2377,-490.6607 2388.6935,-506.1337 2478,-444 2525.6422,-410.8537 2559.347,-348.5902 2573.9285,-317.7569"/>
<polygon fill="#191970" stroke="#191970" points="2577.144,-319.1414 2578.1329,-308.5928 2570.7817,-316.2223 2577.144,-319.1414"/>
</g>
<!-- Node352 -->
<g id="node47" class="node">
<title>Node352</title>
<g id="a_node47"><a xlink:href="ImageHelper_8h_source.html" target="_top" xlink:title="DGtal/images/ImageHelper.h">
<polygon fill="#ffffff" stroke="#ff0000" points="1819.8008,-420.5 1819.8008,-438.5 1964.1992,-438.5 1964.1992,-420.5 1819.8008,-420.5"/>
<text text-anchor="middle" x="1892" y="-426.5" font-family="FreeSans" font-size="10.00" fill="#000000">DGtal/images/ImageHelper.h</text>
</a>
</g>
</g>
<!-- Node0&#45;&gt;Node352 -->
<g id="edge99" class="edge">
<title>Node0&#45;&gt;Node352</title>
<path fill="none" stroke="#191970" d="M1614.9862,-545.3085C1667.4923,-523.3577 1800.3196,-467.8279 1860.9555,-442.4785"/>
<polygon fill="#191970" stroke="#191970" points="1862.5086,-445.6228 1870.3848,-438.5364 1859.8086,-439.1644 1862.5086,-445.6228"/>
</g>
<!-- Node360 -->
<g id="node48" class="node">
<title>Node360</title>
<g id="a_node48"><a xlink:href="DGtal_2shapes_2Shapes_8h_source.html" target="_top" xlink:title="DGtal/shapes/Shapes.h">
<polygon fill="#ffffff" stroke="#ff0000" points="797.1899,-485.5 797.1899,-503.5 918.8101,-503.5 918.8101,-485.5 797.1899,-485.5"/>
<text text-anchor="middle" x="858" y="-491.5" font-family="FreeSans" font-size="10.00" fill="#000000">DGtal/shapes/Shapes.h</text>
</a>
</g>
</g>
<!-- Node0&#45;&gt;Node360 -->
<g id="edge106" class="edge">
<title>Node0&#45;&gt;Node360</title>
<path fill="none" stroke="#191970" d="M1495.777,-546.5634C1345.7686,-534.3178 1061.4027,-511.1043 929.0616,-500.3009"/>
<polygon fill="#191970" stroke="#191970" points="929.2845,-496.8076 919.0329,-499.4823 928.7149,-503.7844 929.2845,-496.8076"/>
</g>
<!-- Node366 -->
<g id="node49" class="node">
<title>Node366</title>
<g id="a_node49"><a xlink:href="ImplicitBall_8h_source.html" target="_top" xlink:title="DGtal/shapes/implicit\l/ImplicitBall.h">
<polygon fill="#ffffff" stroke="#ff0000" points="2706.0396,-285.5 2706.0396,-313.5 2815.9604,-313.5 2815.9604,-285.5 2706.0396,-285.5"/>
<text text-anchor="start" x="2714.0396" y="-301.5" font-family="FreeSans" font-size="10.00" fill="#000000">DGtal/shapes/implicit</text>
<text text-anchor="middle" x="2761" y="-291.5" font-family="FreeSans" font-size="10.00" fill="#000000">/ImplicitBall.h</text>
</a>
</g>
</g>
<!-- Node0&#45;&gt;Node366 -->
<g id="edge114" class="edge">
<title>Node0&#45;&gt;Node366</title>
<path fill="none" stroke="#191970" d="M1690.0867,-553.0421C1833.3104,-549.8884 2109.3969,-539.9775 2342,-509 2483.267,-490.1864 2536.269,-521.2969 2656,-444 2702.5126,-413.972 2735.2173,-355.5488 2750.7516,-322.9394"/>
<polygon fill="#191970" stroke="#191970" points="2753.9998,-324.2539 2755.0176,-313.708 2747.6455,-321.3174 2753.9998,-324.2539"/>
</g>
<!-- Node369 -->
<g id="node50" class="node">
<title>Node369</title>
<g id="a_node50"><a xlink:href="EuclideanShapesDecorator_8h_source.html" target="_top" xlink:title="DGtal/shapes/EuclideanShapes\lDecorator.h">
<polygon fill="#ffffff" stroke="#000000" points="959.3994,-415.5 959.3994,-443.5 1116.6006,-443.5 1116.6006,-415.5 959.3994,-415.5"/>
<text text-anchor="start" x="967.3994" y="-431.5" font-family="FreeSans" font-size="10.00" fill="#000000">DGtal/shapes/EuclideanShapes</text>
<text text-anchor="middle" x="1038" y="-421.5" font-family="FreeSans" font-size="10.00" fill="#000000">Decorator.h</text>
</a>
</g>
</g>
<!-- Node0&#45;&gt;Node369 -->
<g id="edge117" class="edge">
<title>Node0&#45;&gt;Node369</title>
<path fill="none" stroke="#191970" d="M1496.0416,-545.7998C1431.184,-538.7819 1344.2566,-527.0572 1269,-509 1202.1965,-492.9711 1127.4502,-465.3986 1081.5568,-447.3076"/>
<polygon fill="#191970" stroke="#191970" points="1082.8007,-444.0357 1072.2148,-443.5986 1080.2176,-450.5417 1082.8007,-444.0357"/>
</g>
<!-- Node2&#45;&gt;Node1 -->
<g id="edge3" class="edge">
<title>Node2&#45;&gt;Node1</title>
<path fill="none" stroke="#191970" d="M1141.034,-234.257C1079.7975,-226.433 997.1698,-207.7403 1030,-165 1041.9441,-149.4505 1359.0559,-89.5495 1371,-74 1376.144,-67.3032 1376.6271,-61.2964 1371,-55 1346.7746,-27.8931 1099.8755,-14.9471 1004.405,-10.9258"/>
<polygon fill="#191970" stroke="#191970" points="1004.4619,-7.4252 994.3264,-10.5109 1004.1739,-14.4193 1004.4619,-7.4252"/>
</g>
<!-- Node3 -->
<g id="node4" class="node">
<title>Node3</title>
<polygon fill="#ffffff" stroke="#bfbfbf" points="1038.5962,-170.5 1038.5962,-188.5 1097.4038,-188.5 1097.4038,-170.5 1038.5962,-170.5"/>
<text text-anchor="middle" x="1068" y="-176.5" font-family="FreeSans" font-size="10.00" fill="#000000">exception</text>
</g>
<!-- Node2&#45;&gt;Node3 -->
<g id="edge4" class="edge">
<title>Node2&#45;&gt;Node3</title>
<path fill="none" stroke="#191970" d="M1179.952,-230.3873C1157.9221,-220.3737 1122.3321,-204.1964 1097.2024,-192.7738"/>
<polygon fill="#191970" stroke="#191970" points="1098.3561,-189.4537 1087.8041,-188.5019 1095.4595,-195.8262 1098.3561,-189.4537"/>
</g>
<!-- Node4 -->
<g id="node5" class="node">
<title>Node4</title>
<polygon fill="#ffffff" stroke="#bfbfbf" points="2196.436,-110.5 2196.436,-128.5 2253.564,-128.5 2253.564,-110.5 2196.436,-110.5"/>
<text text-anchor="middle" x="2225" y="-116.5" font-family="FreeSans" font-size="10.00" fill="#000000">algorithm</text>
</g>
<!-- Node2&#45;&gt;Node4 -->
<g id="edge5" class="edge">
<title>Node2&#45;&gt;Node4</title>
<path fill="none" stroke="#191970" d="M1258.914,-238.7581C1468.7444,-235.8682 2169.1343,-224.0039 2206,-194 2222.1356,-180.8677 2225.6663,-156.1112 2225.9596,-138.7524"/>
<polygon fill="#191970" stroke="#191970" points="2229.4567,-138.5481 2225.7848,-128.61 2222.4578,-138.6688 2229.4567,-138.5481"/>
</g>
<!-- Node5 -->
<g id="node6" class="node">
<title>Node5</title>
<polygon fill="#ffffff" stroke="#bfbfbf" points="1152.5298,-170.5 1152.5298,-188.5 1247.4702,-188.5 1247.4702,-170.5 1152.5298,-170.5"/>
<text text-anchor="middle" x="1200" y="-176.5" font-family="FreeSans" font-size="10.00" fill="#000000">boost/version.hpp</text>
</g>
<!-- Node2&#45;&gt;Node5 -->
<g id="edge6" class="edge">
<title>Node2&#45;&gt;Node5</title>
<path fill="none" stroke="#191970" d="M1200,-230.3873C1200,-222.0174 1200,-209.3414 1200,-198.735"/>
<polygon fill="#191970" stroke="#191970" points="1203.5001,-198.6984 1200,-188.6985 1196.5001,-198.6985 1203.5001,-198.6984"/>
</g>
<!-- Node6 -->
<g id="node7" class="node">
<title>Node6</title>
<polygon fill="#ffffff" stroke="#bfbfbf" points="429.2935,-170.5 429.2935,-188.5 558.7065,-188.5 558.7065,-170.5 429.2935,-170.5"/>
<text text-anchor="middle" x="494" y="-176.5" font-family="FreeSans" font-size="10.00" fill="#000000">boost/concept_check.hpp</text>
</g>
<!-- Node2&#45;&gt;Node6 -->
<g id="edge7" class="edge">
<title>Node2&#45;&gt;Node6</title>
<path fill="none" stroke="#191970" d="M1141.0055,-237.3664C1029.6187,-232.8626 780.8624,-220.5376 573,-194 565.0346,-192.9831 556.6554,-191.6899 548.4515,-190.2963"/>
<polygon fill="#191970" stroke="#191970" points="549.0263,-186.8438 538.5712,-188.5584 547.8136,-193.7379 549.0263,-186.8438"/>
</g>
<!-- Node7 -->
<g id="node8" class="node">
<title>Node7</title>
<polygon fill="#ffffff" stroke="#bfbfbf" points="1265.5815,-170.5 1265.5815,-188.5 1384.4185,-188.5 1384.4185,-170.5 1265.5815,-170.5"/>
<text text-anchor="middle" x="1325" y="-176.5" font-family="FreeSans" font-size="10.00" fill="#000000">boost/static_assert.hpp</text>
</g>
<!-- Node2&#45;&gt;Node7 -->
<g id="edge8" class="edge">
<title>Node2&#45;&gt;Node7</title>
<path fill="none" stroke="#191970" d="M1218.9848,-230.3873C1239.7542,-220.418 1273.2512,-204.3394 1297.0298,-192.9257"/>
<polygon fill="#191970" stroke="#191970" points="1298.7454,-195.9846 1306.2461,-188.5019 1295.7163,-189.6739 1298.7454,-195.9846"/>
</g>
<!-- Node8 -->
<g id="node9" class="node">
<title>Node8</title>
<polygon fill="#ffffff" stroke="#bfbfbf" points="1402.1309,-170.5 1402.1309,-188.5 1529.8691,-188.5 1529.8691,-170.5 1402.1309,-170.5"/>
<text text-anchor="middle" x="1466" y="-176.5" font-family="FreeSans" font-size="10.00" fill="#000000">boost/concept/assert.hpp</text>
</g>
<!-- Node2&#45;&gt;Node8 -->
<g id="edge9" class="edge">
<title>Node2&#45;&gt;Node8</title>
<path fill="none" stroke="#191970" d="M1240.1109,-230.4524C1287.1893,-219.8332 1365.2823,-202.2183 1416.1954,-190.7341"/>
<polygon fill="#191970" stroke="#191970" points="1417.0136,-194.1376 1425.9983,-188.5229 1415.4733,-187.3091 1417.0136,-194.1376"/>
</g>
<!-- Node9 -->
<g id="node10" class="node">
<title>Node9</title>
<polygon fill="#ffffff" stroke="#bfbfbf" points="1547.6826,-170.5 1547.6826,-188.5 1684.3174,-188.5 1684.3174,-170.5 1547.6826,-170.5"/>
<text text-anchor="middle" x="1616" y="-176.5" font-family="FreeSans" font-size="10.00" fill="#000000">boost/concept/requires.hpp</text>
</g>
<!-- Node2&#45;&gt;Node9 -->
<g id="edge10" class="edge">
<title>Node2&#45;&gt;Node9</title>
<path fill="none" stroke="#191970" d="M1258.9307,-232.5465C1326.6634,-224.3328 1441.0953,-209.7773 1539,-194 1545.7673,-192.9094 1552.8539,-191.6864 1559.8719,-190.4253"/>
<polygon fill="#191970" stroke="#191970" points="1560.8529,-193.804 1570.0597,-188.5614 1559.5931,-186.9183 1560.8529,-193.804"/>
</g>
<!-- Node10 -->
<g id="node11" class="node">
<title>Node10</title>
<polygon fill="#ffffff" stroke="#bfbfbf" points="1701.8672,-165.5 1701.8672,-193.5 1810.1328,-193.5 1810.1328,-165.5 1701.8672,-165.5"/>
<text text-anchor="start" x="1709.8672" y="-181.5" font-family="FreeSans" font-size="10.00" fill="#000000">boost/iterator/iterator</text>
<text text-anchor="middle" x="1756" y="-171.5" font-family="FreeSans" font-size="10.00" fill="#000000">_concepts.hpp</text>
</g>
<!-- Node2&#45;&gt;Node10 -->
<g id="edge11" class="edge">
<title>Node2&#45;&gt;Node10</title>
<path fill="none" stroke="#191970" d="M1259.134,-236.6117C1350.0913,-231.6043 1529.9104,-219.4696 1691.6597,-194.0746"/>
<polygon fill="#191970" stroke="#191970" points="1692.4689,-197.4899 1701.7946,-192.462 1691.3689,-190.5769 1692.4689,-197.4899"/>
</g>
<!-- Node11 -->
<g id="node12" class="node">
<title>Node11</title>
<polygon fill="#ffffff" stroke="#bfbfbf" points="1828.397,-170.5 1828.397,-188.5 1975.603,-188.5 1975.603,-170.5 1828.397,-170.5"/>
<text text-anchor="middle" x="1902" y="-176.5" font-family="FreeSans" font-size="10.00" fill="#000000">boost/concept_archetype.hpp</text>
</g>
<!-- Node2&#45;&gt;Node11 -->
<g id="edge12" class="edge">
<title>Node2&#45;&gt;Node11</title>
<path fill="none" stroke="#191970" d="M1259.0823,-237.1182C1369.4296,-232.235 1614.2119,-219.3507 1819,-194 1827.4517,-192.9538 1836.3519,-191.6335 1845.0595,-190.2179"/>
<polygon fill="#191970" stroke="#191970" points="1845.8722,-193.6305 1855.1546,-188.523 1844.7131,-186.7271 1845.8722,-193.6305"/>
</g>
<!-- Node12 -->
<g id="node13" class="node">
<title>Node12</title>
<polygon fill="#ffffff" stroke="#bfbfbf" points="1707.3843,-110.5 1707.3843,-128.5 1750.6157,-128.5 1750.6157,-110.5 1707.3843,-110.5"/>
<text text-anchor="middle" x="1729" y="-116.5" font-family="FreeSans" font-size="10.00" fill="#000000">cmath</text>
</g>
<!-- Node2&#45;&gt;Node12 -->
<g id="edge13" class="edge">
<title>Node2&#45;&gt;Node12</title>
<path fill="none" stroke="#191970" d="M1184.4045,-230.3215C1161.5562,-215.7792 1123.7805,-186.8531 1144,-165 1162.9316,-144.5387 1577.2743,-125.7994 1696.9206,-120.7997"/>
<polygon fill="#191970" stroke="#191970" points="1697.397,-124.283 1707.2435,-120.3719 1697.1072,-117.289 1697.397,-124.283"/>
</g>
<!-- Node13 -->
<g id="node14" class="node">
<title>Node13</title>
<polygon fill="#ffffff" stroke="#bfbfbf" points="1993.2686,-170.5 1993.2686,-188.5 2038.7314,-188.5 2038.7314,-170.5 1993.2686,-170.5"/>
<text text-anchor="middle" x="2016" y="-176.5" font-family="FreeSans" font-size="10.00" fill="#000000">stdio.h</text>
</g>
<!-- Node2&#45;&gt;Node13 -->
<g id="edge14" class="edge">
<title>Node2&#45;&gt;Node13</title>
<path fill="none" stroke="#191970" d="M1259.0657,-238.9586C1417.2383,-237.0505 1847.6902,-228.7252 1985,-194 1986.7029,-193.5693 1988.4258,-193.0448 1990.1416,-192.4538"/>
<polygon fill="#191970" stroke="#191970" points="1991.7753,-195.5667 1999.6985,-188.5329 1989.1183,-189.0905 1991.7753,-195.5667"/>
</g>
<!-- Node14 -->
<g id="node15" class="node">
<title>Node14</title>
<g id="a_node15"><a xlink:href="Config_8h_source.html" target="_top" xlink:title="DGtal/base/Config.h">
<polygon fill="#ffffff" stroke="#ff0000" points="613.9756,-55.5 613.9756,-73.5 720.0244,-73.5 720.0244,-55.5 613.9756,-55.5"/>
<text text-anchor="middle" x="667" y="-61.5" font-family="FreeSans" font-size="10.00" fill="#000000">DGtal/base/Config.h</text>
</a>
</g>
</g>
<!-- Node2&#45;&gt;Node14 -->
<g id="edge15" class="edge">
<title>Node2&#45;&gt;Node14</title>
<path fill="none" stroke="#191970" d="M1140.8179,-235.0479C1060.0369,-228.3283 919.9216,-214.1986 873,-194 818.1075,-170.3702 818.9801,-141.1863 768,-110 746.7111,-96.9768 721.0533,-85.4655 700.9259,-77.2795"/>
<polygon fill="#191970" stroke="#191970" points="702.1181,-73.987 691.5328,-73.5361 699.5265,-80.4896 702.1181,-73.987"/>
</g>
<!-- Node16 -->
<g id="node16" class="node">
<title>Node16</title>
<g id="a_node16"><a xlink:href="Trace_8h_source.html" target="_top" xlink:title="DGtal/base/Trace.h">
<polygon fill="#ffffff" stroke="#ff0000" points="614.8311,-170.5 614.8311,-188.5 717.1689,-188.5 717.1689,-170.5 614.8311,-170.5"/>
<text text-anchor="middle" x="666" y="-176.5" font-family="FreeSans" font-size="10.00" fill="#000000">DGtal/base/Trace.h</text>
</a>
</g>
</g>
<!-- Node2&#45;&gt;Node16 -->
<g id="edge17" class="edge">
<title>Node2&#45;&gt;Node16</title>
<path fill="none" stroke="#191970" d="M1140.8436,-236.0985C1051.6073,-230.4406 877.424,-217.3441 731,-194 725.1483,-193.0671 719.0345,-191.9266 712.9981,-190.6989"/>
<polygon fill="#191970" stroke="#191970" points="713.4808,-187.2235 702.9721,-188.572 712.0281,-194.0711 713.4808,-187.2235"/>
</g>
<!-- Node23 -->
<g id="node17" class="node">
<title>Node23</title>
<g id="a_node17"><a xlink:href="TraceWriterTerm_8h_source.html" target="_top" xlink:title="DGtal/base/TraceWriterTerm.h">
<polygon fill="#ffffff" stroke="#ff0000" points="591.478,-110.5 591.478,-128.5 742.522,-128.5 742.522,-110.5 591.478,-110.5"/>
<text text-anchor="middle" x="667" y="-116.5" font-family="FreeSans" font-size="10.00" fill="#000000">DGtal/base/TraceWriterTerm.h</text>
</a>
</g>
</g>
<!-- Node2&#45;&gt;Node23 -->
<g id="edge25" class="edge">
<title>Node2&#45;&gt;Node23</title>
<path fill="none" stroke="#191970" d="M1140.9233,-237.0572C1039.1851,-232.2231 835.431,-219.6139 769,-194 759.8611,-190.4763 713.7969,-155.584 686.7995,-134.8242"/>
<polygon fill="#191970" stroke="#191970" points="688.8319,-131.9717 678.7751,-128.6382 684.5581,-137.5156 688.8319,-131.9717"/>
</g>
<!-- Node24 -->
<g id="node18" class="node">
<title>Node24</title>
<g id="a_node18"><a xlink:href="Assert_8h_source.html" target="_top" xlink:title="DGtal/base/Assert.h">
<polygon fill="#ffffff" stroke="#ff0000" points="429.2588,-110.5 429.2588,-128.5 534.7412,-128.5 534.7412,-110.5 429.2588,-110.5"/>
<text text-anchor="middle" x="482" y="-116.5" font-family="FreeSans" font-size="10.00" fill="#000000">DGtal/base/Assert.h</text>
</a>
</g>
</g>
<!-- Node2&#45;&gt;Node24 -->
<g id="edge28" class="edge">
<title>Node2&#45;&gt;Node24</title>
<path fill="none" stroke="#191970" d="M1140.9876,-236.8847C1000.6651,-230.3947 655.1076,-212.7178 606,-194 586.148,-186.4332 585.8949,-176.4512 568,-165 549.5651,-153.2033 527.7605,-141.6922 510.7197,-133.1996"/>
<polygon fill="#191970" stroke="#191970" points="511.8168,-129.8389 501.2983,-128.5687 508.7289,-136.1211 511.8168,-129.8389"/>
</g>
<!-- Node27 -->
<g id="node19" class="node">
<title>Node27</title>
<g id="a_node19"><a xlink:href="TraceWriterFile_8h_source.html" target="_top" xlink:title="DGtal/base/TraceWriterFile.h">
<polygon fill="#ffffff" stroke="#ff0000" points="737.5322,-55.5 737.5322,-73.5 882.4678,-73.5 882.4678,-55.5 737.5322,-55.5"/>
<text text-anchor="middle" x="810" y="-61.5" font-family="FreeSans" font-size="10.00" fill="#000000">DGtal/base/TraceWriterFile.h</text>
</a>
</g>
</g>
<!-- Node2&#45;&gt;Node27 -->
<g id="edge26" class="edge">
<title>Node2&#45;&gt;Node27</title>
<path fill="none" stroke="#191970" d="M1141.1315,-235.3365C1068.2147,-229.312 948.9657,-216.3616 911,-194 865.7078,-167.3232 833.2695,-111.9077 818.6611,-82.9812"/>
<polygon fill="#191970" stroke="#191970" points="821.6263,-81.0767 814.0949,-73.6249 815.3354,-84.1469 821.6263,-81.0767"/>
</g>
<!-- Node28 -->
<g id="node20" class="node">
<title>Node28</title>
<g id="a_node20"><a xlink:href="ConceptUtils_8h_source.html" target="_top" xlink:title="DGtal/base/ConceptUtils.h">
<polygon fill="#ffffff" stroke="#000000" points="900.084,-55.5 900.084,-73.5 1033.916,-73.5 1033.916,-55.5 900.084,-55.5"/>
<text text-anchor="middle" x="967" y="-61.5" font-family="FreeSans" font-size="10.00" fill="#000000">DGtal/base/ConceptUtils.h</text>
</a>
</g>
</g>
<!-- Node2&#45;&gt;Node28 -->
<g id="edge29" class="edge">
<title>Node2&#45;&gt;Node28</title>
<path fill="none" stroke="#191970" d="M1140.902,-233.6574C1065.07,-225.5547 941.6121,-210.0782 928,-194 903.8772,-165.5067 915.0473,-145.0144 928,-110 932.115,-98.8762 940.2989,-88.6367 948.1118,-80.6998"/>
<polygon fill="#191970" stroke="#191970" points="950.7763,-82.9973 955.6366,-73.5831 945.9663,-77.9116 950.7763,-82.9973"/>
</g>
<!-- Node29 -->
<g id="node21" class="node">
<title>Node29</title>
<g id="a_node21"><a xlink:href="BasicTypes_8h_source.html" target="_top" xlink:title="DGtal/base/BasicTypes.h">
<polygon fill="#ffffff" stroke="#ff0000" points="1051.8599,-55.5 1051.8599,-73.5 1180.1401,-73.5 1180.1401,-55.5 1051.8599,-55.5"/>
<text text-anchor="middle" x="1116" y="-61.5" font-family="FreeSans" font-size="10.00" fill="#000000">DGtal/base/BasicTypes.h</text>
</a>
</g>
</g>
<!-- Node2&#45;&gt;Node29 -->
<g id="edge31" class="edge">
<title>Node2&#45;&gt;Node29</title>
<path fill="none" stroke="#191970" d="M1140.9965,-236.6394C1075.4519,-232.1543 975.4763,-220.9868 950,-194 924.2561,-166.7297 919.0804,-139.6836 942,-110 954.5873,-93.698 1000.4093,-82.1146 1041.8697,-74.7158"/>
<polygon fill="#191970" stroke="#191970" points="1042.4767,-78.1629 1051.7378,-73.0168 1041.2889,-71.2644 1042.4767,-78.1629"/>
</g>
<!-- Node32 -->
<g id="node22" class="node">
<title>Node32</title>
<g id="a_node22"><a xlink:href="BasicFunctors_8h_source.html" target="_top" xlink:title="DGtal/base/BasicFunctors.h">
<polygon fill="#ffffff" stroke="#ff0000" points="2056.7515,-170.5 2056.7515,-188.5 2197.2485,-188.5 2197.2485,-170.5 2056.7515,-170.5"/>
<text text-anchor="middle" x="2127" y="-176.5" font-family="FreeSans" font-size="10.00" fill="#000000">DGtal/base/BasicFunctors.h</text>
</a>
</g>
</g>
<!-- Node2&#45;&gt;Node32 -->
<g id="edge33" class="edge">
<title>Node2&#45;&gt;Node32</title>
<path fill="none" stroke="#191970" d="M1259.0339,-238.8594C1396.394,-236.8291 1747.4485,-228.4348 2039,-194 2047.2613,-193.0243 2055.9623,-191.7159 2064.5633,-190.2829"/>
<polygon fill="#191970" stroke="#191970" points="2065.3219,-193.7038 2074.582,-188.5558 2064.1328,-186.8056 2065.3219,-193.7038"/>
</g>
<!-- Node40 -->
<g id="node23" class="node">
<title>Node40</title>
<g id="a_node23"><a xlink:href="BasicArchetypes_8h_source.html" target="_top" xlink:title="DGtal/base/BasicArchetypes.h">
<polygon fill="#ffffff" stroke="#000000" points="951.1899,-110.5 951.1899,-128.5 1102.8101,-128.5 1102.8101,-110.5 951.1899,-110.5"/>
<text text-anchor="middle" x="1027" y="-116.5" font-family="FreeSans" font-size="10.00" fill="#000000">DGtal/base/BasicArchetypes.h</text>
</a>
</g>
</g>
<!-- Node2&#45;&gt;Node40 -->
<g id="edge37" class="edge">
<title>Node2&#45;&gt;Node40</title>
<path fill="none" stroke="#191970" d="M1141.0949,-236.7511C1077.3339,-232.3956 981.6888,-221.3732 959,-194 950.7749,-184.0767 952.9279,-176.369 959,-165 966.5033,-150.9513 980.4786,-140.4805 993.8172,-133.1485"/>
<polygon fill="#191970" stroke="#191970" points="995.522,-136.2084 1002.8625,-128.5685 992.3598,-129.9633 995.522,-136.2084"/>
</g>
<!-- Node41 -->
<g id="node24" class="node">
<title>Node41</title>
<g id="a_node24"><a xlink:href="Exceptions_8h_source.html" target="_top" xlink:title="DGtal/base/Exceptions.h">
<polygon fill="#ffffff" stroke="#000000" points="1235.9707,-55.5 1235.9707,-73.5 1362.0293,-73.5 1362.0293,-55.5 1235.9707,-55.5"/>
<text text-anchor="middle" x="1299" y="-61.5" font-family="FreeSans" font-size="10.00" fill="#000000">DGtal/base/Exceptions.h</text>
</a>
</g>
</g>
<!-- Node2&#45;&gt;Node41 -->
<g id="edge39" class="edge">
<title>Node2&#45;&gt;Node41</title>
<path fill="none" stroke="#191970" d="M1141.1169,-234.3651C1087.7492,-228.3463 1014.8052,-216.2378 997,-194 988.9442,-183.9388 989.368,-175.3863 997,-165 1028.713,-121.8418 1061.1243,-145.7333 1112,-129 1165.1557,-111.5168 1226.4016,-90.1595 1263.9052,-76.9423"/>
<polygon fill="#191970" stroke="#191970" points="1265.1029,-80.2313 1273.3679,-73.6026 1262.7731,-73.6304 1265.1029,-80.2313"/>
</g>
<!-- Node14&#45;&gt;Node1 -->
<g id="edge16" class="edge">
<title>Node14&#45;&gt;Node1</title>
<path fill="none" stroke="#191970" d="M716.203,-55.4795C776.0454,-44.5084 875.7246,-26.2338 929.635,-16.3503"/>
<polygon fill="#191970" stroke="#191970" points="930.5766,-19.7361 939.7814,-14.4901 929.3142,-12.8508 930.5766,-19.7361"/>
</g>
<!-- Node16&#45;&gt;Node1 -->
<g id="edge18" class="edge">
<title>Node16&#45;&gt;Node1</title>
<path fill="none" stroke="#191970" d="M636.6975,-170.3974C617.4081,-162.7061 593.6443,-149.5871 582,-129 570.637,-108.9102 585.1275,-65.2762 597,-55 621.8638,-33.4792 840.4512,-17.4515 929.4969,-11.7591"/>
<polygon fill="#191970" stroke="#191970" points="929.9323,-15.2386 939.6923,-11.1164 929.4919,-8.2525 929.9323,-15.2386"/>
</g>
<!-- Node16&#45;&gt;Node14 -->
<g id="edge19" class="edge">
<title>Node16&#45;&gt;Node14</title>
<path fill="none" stroke="#191970" d="M696.4049,-170.4202C716.0661,-162.7912 740.1293,-149.7365 752,-129 765.3779,-105.6306 736.1579,-88.0044 708.4025,-77.134"/>
<polygon fill="#191970" stroke="#191970" points="709.3119,-73.7393 698.7184,-73.5723 706.8956,-80.309 709.3119,-73.7393"/>
</g>
<!-- Node16&#45;&gt;Node23 -->
<g id="edge20" class="edge">
<title>Node16&#45;&gt;Node23</title>
<path fill="none" stroke="#191970" d="M666.1519,-170.3873C666.2914,-162.0174 666.5026,-149.3414 666.6794,-138.735"/>
<polygon fill="#191970" stroke="#191970" points="670.1795,-138.7554 666.8467,-128.6985 663.1804,-138.6387 670.1795,-138.7554"/>
</g>
<!-- Node16&#45;&gt;Node24 -->
<g id="edge23" class="edge">
<title>Node16&#45;&gt;Node24</title>
<path fill="none" stroke="#191970" d="M633.045,-170.3873C599.4111,-160.1078 547.777,-143.3331 514.3638,-131.8743"/>
<polygon fill="#191970" stroke="#191970" points="515.214,-128.4649 504.6193,-128.5019 512.9246,-135.08 515.214,-128.4649"/>
</g>
<!-- Node23&#45;&gt;Node1 -->
<g id="edge21" class="edge">
<title>Node23&#45;&gt;Node1</title>
<path fill="none" stroke="#191970" d="M646.9062,-110.3364C622.5934,-98.0399 587.018,-75.3836 605,-55 626.2659,-30.8939 841.4267,-16.4084 929.6085,-11.4436"/>
<polygon fill="#191970" stroke="#191970" points="929.9197,-14.9318 939.7113,-10.8853 929.5334,-7.9425 929.9197,-14.9318"/>
</g>
<!-- Node23&#45;&gt;Node14 -->
<g id="edge22" class="edge">
<title>Node23&#45;&gt;Node14</title>
<path fill="none" stroke="#191970" d="M667,-110.4179C667,-103.2164 667,-92.8962 667,-83.8632"/>
<polygon fill="#191970" stroke="#191970" points="670.5001,-83.7794 667,-73.7795 663.5001,-83.7795 670.5001,-83.7794"/>
</g>
<!-- Node24&#45;&gt;Node16 -->
<g id="edge24" class="edge">
<title>Node24&#45;&gt;Node16</title>
<path fill="none" stroke="#191970" d="M514.5922,-128.5019C548.0959,-138.7344 599.7304,-155.5047 633.2744,-167.0017"/>
<polygon fill="#191970" stroke="#191970" points="632.4689,-170.4265 643.0637,-170.3873 634.757,-163.8109 632.4689,-170.4265"/>
</g>
<!-- Node27&#45;&gt;Node1 -->
<g id="edge27" class="edge">
<title>Node27&#45;&gt;Node1</title>
<path fill="none" stroke="#191970" d="M835.9254,-55.4179C862.0248,-46.2748 902.4742,-32.1046 931.535,-21.924"/>
<polygon fill="#191970" stroke="#191970" points="933.0166,-25.1136 941.2971,-18.5042 930.7022,-18.5073 933.0166,-25.1136"/>
</g>
<!-- Node28&#45;&gt;Node1 -->
<g id="edge30" class="edge">
<title>Node28&#45;&gt;Node1</title>
<path fill="none" stroke="#191970" d="M967,-55.4179C967,-48.2164 967,-37.8962 967,-28.8632"/>
<polygon fill="#191970" stroke="#191970" points="970.5001,-28.7794 967,-18.7795 963.5001,-28.7795 970.5001,-28.7794"/>
</g>
<!-- Node29&#45;&gt;Node1 -->
<g id="edge32" class="edge">
<title>Node29&#45;&gt;Node1</title>
<path fill="none" stroke="#191970" d="M1091.3957,-55.4179C1066.8079,-46.3419 1028.8006,-32.3123 1001.2668,-22.1488"/>
<polygon fill="#191970" stroke="#191970" points="1002.2342,-18.7751 991.6409,-18.5956 999.8101,-25.342 1002.2342,-18.7751"/>
</g>
<!-- Node32&#45;&gt;Node2 -->
<g id="edge36" class="edge">
<title>Node32&#45;&gt;Node2</title>
<path fill="none" stroke="#191970" d="M2091.9685,-188.5558C2080.8391,-190.641 2068.494,-192.6425 2057,-194 1765.8475,-228.3876 1415.3546,-236.8061 1269.1627,-238.851"/>
<polygon fill="#191970" stroke="#191970" points="1268.9457,-235.3535 1258.9936,-238.9875 1269.0397,-242.3529 1268.9457,-235.3535"/>
</g>
<!-- Node32&#45;&gt;Node4 -->
<g id="edge34" class="edge">
<title>Node32&#45;&gt;Node4</title>
<path fill="none" stroke="#191970" d="M2141.8841,-170.3873C2157.7331,-160.6838 2183.0354,-145.1926 2201.564,-133.8486"/>
<polygon fill="#191970" stroke="#191970" points="2203.596,-136.7084 2210.2969,-128.5019 2199.9409,-130.7385 2203.596,-136.7084"/>
</g>
<!-- Node32&#45;&gt;Node12 -->
<g id="edge35" class="edge">
<title>Node32&#45;&gt;Node12</title>
<path fill="none" stroke="#191970" d="M2079.4294,-170.4518C2069.082,-168.5723 2058.1844,-166.6603 2048,-165 1943.2214,-147.9188 1818.4922,-131.1592 1760.9672,-123.6306"/>
<polygon fill="#191970" stroke="#191970" points="1761.0744,-120.115 1750.7057,-122.2924 1760.1691,-127.0563 1761.0744,-120.115"/>
</g>
<!-- Node40&#45;&gt;Node1 -->
<g id="edge38" class="edge">
<title>Node40&#45;&gt;Node1</title>
<path fill="none" stroke="#191970" d="M1086.4528,-110.4613C1127.3143,-102.8936 1176.3842,-90.6472 1189,-74 1194.1003,-67.2698 1194.3381,-61.5432 1189,-55 1166.1136,-26.9472 1061.3929,-15.7133 1004.3323,-11.6144"/>
<polygon fill="#191970" stroke="#191970" points="1004.4774,-8.1163 994.263,-10.9297 1004.0024,-15.1002 1004.4774,-8.1163"/>
</g>
<!-- Node41&#45;&gt;Node1 -->
<g id="edge40" class="edge">
<title>Node41&#45;&gt;Node1</title>
<path fill="none" stroke="#191970" d="M1244.5487,-55.4795C1176.868,-44.2673 1063.1425,-25.4272 1004.4923,-15.7111"/>
<polygon fill="#191970" stroke="#191970" points="1004.9831,-12.2447 994.5455,-14.0633 1003.839,-19.1506 1004.9831,-12.2447"/>
</g>
<!-- Node42&#45;&gt;Node1 -->
<g id="edge42" class="edge">
<title>Node42&#45;&gt;Node1</title>
<path fill="none" stroke="#191970" d="M605.6602,-425.8621C521.2642,-420.5503 381.7949,-407.9358 265,-379 176.5455,-357.0855 76,-390.6287 76,-299.5 76,-299.5 76,-299.5 76,-119.5 76,-63.2093 131.161,-71.4318 185,-55 256.537,-33.1668 782.6214,-15.2572 929.1897,-10.6513"/>
<polygon fill="#191970" stroke="#191970" points="929.5812,-14.1409 939.4672,-10.3307 929.3629,-7.1443 929.5812,-14.1409"/>
</g>
<!-- Node42&#45;&gt;Node2 -->
<g id="edge43" class="edge">
<title>Node42&#45;&gt;Node2</title>
<path fill="none" stroke="#191970" d="M700.8692,-420.4728C720.2132,-410.9647 750.9287,-395.156 776,-379 793.8584,-367.492 795.4331,-360.3261 814,-350 916.3803,-293.0603 1050.6959,-263.258 1130.8922,-249.5022"/>
<polygon fill="#191970" stroke="#191970" points="1131.5966,-252.933 1140.8784,-247.8243 1130.4367,-246.0297 1131.5966,-252.933"/>
</g>
<!-- Node43 -->
<g id="node26" class="node">
<title>Node43</title>
<g id="a_node26"><a xlink:href="ConstAlias_8h_source.html" target="_top" xlink:title="DGtal/base/ConstAlias.h">
<polygon fill="#ffffff" stroke="#ff0000" points="1084.5298,-355.5 1084.5298,-373.5 1209.4702,-373.5 1209.4702,-355.5 1084.5298,-355.5"/>
<text text-anchor="middle" x="1147" y="-361.5" font-family="FreeSans" font-size="10.00" fill="#000000">DGtal/base/ConstAlias.h</text>
</a>
</g>
</g>
<!-- Node42&#45;&gt;Node43 -->
<g id="edge44" class="edge">
<title>Node42&#45;&gt;Node43</title>
<path fill="none" stroke="#191970" d="M746.6563,-420.462C832.6796,-408.4373 984.3423,-387.2371 1074.2643,-374.6673"/>
<polygon fill="#191970" stroke="#191970" points="1074.9595,-378.1043 1084.3786,-373.2535 1073.9903,-371.1717 1074.9595,-378.1043"/>
</g>
<!-- Node51 -->
<g id="node27" class="node">
<title>Node51</title>
<g id="a_node27"><a xlink:href="CountedConstPtrOrConstPtr_8h_source.html" target="_top" xlink:title="DGtal/base/CountedConstPtr\lOrConstPtr.h">
<polygon fill="#ffffff" stroke="#ff0000" points="498.2441,-285.5 498.2441,-313.5 643.7559,-313.5 643.7559,-285.5 498.2441,-285.5"/>
<text text-anchor="start" x="506.2441" y="-301.5" font-family="FreeSans" font-size="10.00" fill="#000000">DGtal/base/CountedConstPtr</text>
<text text-anchor="middle" x="571" y="-291.5" font-family="FreeSans" font-size="10.00" fill="#000000">OrConstPtr.h</text>
</a>
</g>
</g>
<!-- Node42&#45;&gt;Node51 -->
<g id="edge50" class="edge">
<title>Node42&#45;&gt;Node51</title>
<path fill="none" stroke="#191970" d="M650.7348,-420.3986C629.8489,-412.7077 603.4653,-399.5889 588,-379 576.1094,-363.17 572.1454,-340.8187 570.9914,-323.8455"/>
<polygon fill="#191970" stroke="#191970" points="574.4783,-323.444 570.5838,-313.5909 567.4839,-323.722 574.4783,-323.444"/>
</g>
<!-- Node53 -->
<g id="node28" class="node">
<title>Node53</title>
<g id="a_node28"><a xlink:href="HyperRectDomain_8h_source.html" target="_top" xlink:title="DGtal/kernel/domains\l/HyperRectDomain.h">
<polygon fill="#ffffff" stroke="#ff0000" points="253.9238,-285.5 253.9238,-313.5 366.0762,-313.5 366.0762,-285.5 253.9238,-285.5"/>
<text text-anchor="start" x="261.9238" y="-301.5" font-family="FreeSans" font-size="10.00" fill="#000000">DGtal/kernel/domains</text>
<text text-anchor="middle" x="310" y="-291.5" font-family="FreeSans" font-size="10.00" fill="#000000">/HyperRectDomain.h</text>
</a>
</g>
</g>
<!-- Node42&#45;&gt;Node53 -->
<g id="edge51" class="edge">
<title>Node42&#45;&gt;Node53</title>
<path fill="none" stroke="#191970" d="M662.0732,-420.4953C639.9951,-410.485 603.3654,-393.778 572,-379 545.2068,-366.3762 539.8468,-360.0893 512,-350 487.1989,-341.0142 425.0234,-325.8609 376.1484,-314.4927"/>
<polygon fill="#191970" stroke="#191970" points="376.7847,-311.0475 366.2528,-312.2003 375.2049,-317.8669 376.7847,-311.0475"/>
</g>
<!-- Node81 -->
<g id="node29" class="node">
<title>Node81</title>
<g id="a_node29"><a xlink:href="RegularPointEmbedder_8h_source.html" target="_top" xlink:title="Computes the Gauss digitization of some Euclidean shape. ">
<polygon fill="#ffffff" stroke="#ff0000" points="103.9165,-285.5 103.9165,-313.5 236.0835,-313.5 236.0835,-285.5 103.9165,-285.5"/>
<text text-anchor="start" x="111.9165" y="-301.5" font-family="FreeSans" font-size="10.00" fill="#000000">DGtal/kernel/RegularPoint</text>
<text text-anchor="middle" x="170" y="-291.5" font-family="FreeSans" font-size="10.00" fill="#000000">Embedder.h</text>
</a>
</g>
</g>
<!-- Node42&#45;&gt;Node81 -->
<g id="edge54" class="edge">
<title>Node42&#45;&gt;Node81</title>
<path fill="none" stroke="#191970" d="M605.9053,-424.6268C535.6728,-418.6453 429.0908,-405.7816 340,-379 290.231,-364.0389 236.4853,-336.8588 203.039,-318.4941"/>
<polygon fill="#191970" stroke="#191970" points="204.6055,-315.3606 194.1638,-313.5655 201.2071,-321.4803 204.6055,-315.3606"/>
</g>
<!-- Node83 -->
<g id="node30" class="node">
<title>Node83</title>
<g id="a_node30"><a xlink:href="CEuclideanOrientedShape_8h_source.html" target="_top" xlink:title="DGtal/shapes/CEuclideanOriented\lShape.h">
<polygon fill="#ffffff" stroke="#ff0000" points="822.5693,-350.5 822.5693,-378.5 991.4307,-378.5 991.4307,-350.5 822.5693,-350.5"/>
<text text-anchor="start" x="830.5693" y="-366.5" font-family="FreeSans" font-size="10.00" fill="#000000">DGtal/shapes/CEuclideanOriented</text>
<text text-anchor="middle" x="907" y="-356.5" font-family="FreeSans" font-size="10.00" fill="#000000">Shape.h</text>
</a>
</g>
</g>
<!-- Node42&#45;&gt;Node83 -->
<g id="edge57" class="edge">
<title>Node42&#45;&gt;Node83</title>
<path fill="none" stroke="#191970" d="M713.2853,-420.462C748.1246,-410.3973 805.2146,-393.9047 848.4139,-381.4249"/>
<polygon fill="#191970" stroke="#191970" points="849.6033,-384.7245 858.239,-378.5865 847.6604,-377.9995 849.6033,-384.7245"/>
</g>
<!-- Node84 -->
<g id="node31" class="node">
<title>Node84</title>
<g id="a_node31"><a xlink:href="CEuclideanBoundedShape_8h_source.html" target="_top" xlink:title="DGtal/shapes/CEuclideanBounded\lShape.h">
<polygon fill="#ffffff" stroke="#ff0000" points="596.7271,-350.5 596.7271,-378.5 767.2729,-378.5 767.2729,-350.5 596.7271,-350.5"/>
<text text-anchor="start" x="604.7271" y="-366.5" font-family="FreeSans" font-size="10.00" fill="#000000">DGtal/shapes/CEuclideanBounded</text>
<text text-anchor="middle" x="682" y="-356.5" font-family="FreeSans" font-size="10.00" fill="#000000">Shape.h</text>
</a>
</g>
</g>
<!-- Node42&#45;&gt;Node84 -->
<g id="edge60" class="edge">
<title>Node42&#45;&gt;Node84</title>
<path fill="none" stroke="#191970" d="M682,-420.462C682,-412.404 682,-400.2257 682,-389.2852"/>
<polygon fill="#191970" stroke="#191970" points="685.5001,-388.9558 682,-378.9559 678.5001,-388.9559 685.5001,-388.9558"/>
</g>
<!-- Node85 -->
<g id="node32" class="node">
<title>Node85</title>
<g id="a_node32"><a xlink:href="GaussDigitizer_8ih_source.html" target="_top" xlink:title="DGtal/shapes/GaussDigitizer.ih">
<polygon fill="#ffffff" stroke="#000000" points="348.8008,-355.5 348.8008,-373.5 503.1992,-373.5 503.1992,-355.5 348.8008,-355.5"/>
<text text-anchor="middle" x="426" y="-361.5" font-family="FreeSans" font-size="10.00" fill="#000000">DGtal/shapes/GaussDigitizer.ih</text>
</a>
</g>
</g>
<!-- Node42&#45;&gt;Node85 -->
<g id="edge64" class="edge">
<title>Node42&#45;&gt;Node85</title>
<path fill="none" stroke="#191970" d="M646.4043,-420.462C600.7757,-408.8766 521.6027,-388.7741 471.6031,-376.0789"/>
<polygon fill="#191970" stroke="#191970" points="472.2589,-372.6344 461.7051,-373.5658 470.5362,-379.4192 472.2589,-372.6344"/>
</g>
<!-- Node43&#45;&gt;Node1 -->
<g id="edge45" class="edge">
<title>Node43&#45;&gt;Node1</title>
<path fill="none" stroke="#191970" d="M1091.1547,-355.4674C928.2589,-328.5719 462.4526,-247.5607 420,-194 396.8102,-164.7424 398.2549,-140.3468 420,-110 479.5894,-26.839 815.3475,-12.4914 929.2225,-10.0161"/>
<polygon fill="#191970" stroke="#191970" points="929.6047,-13.5093 939.5333,-9.8117 929.4659,-6.5107 929.6047,-13.5093"/>
</g>
<!-- Node43&#45;&gt;Node2 -->
<g id="edge46" class="edge">
<title>Node43&#45;&gt;Node2</title>
<path fill="none" stroke="#191970" d="M1150.9836,-355.1047C1159.6972,-334.5538 1180.5874,-285.2844 1192.0833,-258.1715"/>
<polygon fill="#191970" stroke="#191970" points="1195.4329,-259.2375 1196.1142,-248.6646 1188.9882,-256.505 1195.4329,-259.2375"/>
</g>
<!-- Node43&#45;&gt;Node51 -->
<g id="edge47" class="edge">
<title>Node43&#45;&gt;Node51</title>
<path fill="none" stroke="#191970" d="M1084.309,-356.2963C1067.6412,-354.1781 1049.6454,-351.9475 1033,-350 883.3905,-332.4961 845.7037,-330.6785 696,-314 682.4593,-312.4914 668.0978,-310.8574 654.119,-309.2485"/>
<polygon fill="#191970" stroke="#191970" points="654.3604,-305.7532 644.025,-308.0836 653.5578,-312.707 654.3604,-305.7532"/>
</g>
<!-- Node51&#45;&gt;Node1 -->
<g id="edge48" class="edge">
<title>Node51&#45;&gt;Node1</title>
<path fill="none" stroke="#191970" d="M497.9595,-288.0382C438.0263,-273.9878 363,-243.5981 363,-179.5 363,-179.5 363,-179.5 363,-119.5 363,-88.9131 362.5844,-73.4238 387,-55 430.1914,-22.4082 807.4474,-12.4987 929.2544,-10.1346"/>
<polygon fill="#191970" stroke="#191970" points="929.6365,-13.6281 939.5689,-9.9407 929.5049,-6.6293 929.6365,-13.6281"/>
</g>
<!-- Node51&#45;&gt;Node2 -->
<g id="edge49" class="edge">
<title>Node51&#45;&gt;Node2</title>
<path fill="none" stroke="#191970" d="M643.7688,-292.5586C766.0023,-280.8988 1010.9106,-257.5371 1130.746,-246.1061"/>
<polygon fill="#191970" stroke="#191970" points="1131.2768,-249.5714 1140.8992,-245.1376 1130.612,-242.6031 1131.2768,-249.5714"/>
</g>
<!-- Node53&#45;&gt;Node1 -->
<g id="edge52" class="edge">
<title>Node53&#45;&gt;Node1</title>
<path fill="none" stroke="#191970" d="M280.2044,-285.3758C264.8297,-276.7629 246.8625,-264.4324 235,-249 215.0844,-223.0911 211,-212.1788 211,-179.5 211,-179.5 211,-179.5 211,-119.5 211,-88.9131 210.4359,-73.2253 235,-55 263.1199,-34.1365 783.4841,-15.53 929.3021,-10.7088"/>
<polygon fill="#191970" stroke="#191970" points="929.6524,-14.1993 939.5321,-10.373 929.4226,-7.2031 929.6524,-14.1993"/>
</g>
<!-- Node53&#45;&gt;Node2 -->
<g id="edge53" class="edge">
<title>Node53&#45;&gt;Node2</title>
<path fill="none" stroke="#191970" d="M366.4145,-294.6842C401.6447,-291.7378 447.9525,-287.9757 489,-285 724.4223,-267.9331 1003.9459,-251.0275 1131.0024,-243.5264"/>
<polygon fill="#191970" stroke="#191970" points="1131.2089,-247.0204 1140.9856,-242.9379 1130.7969,-240.0325 1131.2089,-247.0204"/>
</g>
<!-- Node81&#45;&gt;Node1 -->
<g id="edge55" class="edge">
<title>Node81&#45;&gt;Node1</title>
<path fill="none" stroke="#191970" d="M170.3856,-285.4607C170.9668,-263.0577 172,-217.8387 172,-179.5 172,-179.5 172,-179.5 172,-119.5 172,-85.2915 184.4325,-72.2043 214,-55 276.1891,-18.8144 786.4619,-11.2255 929.723,-9.8019"/>
<polygon fill="#191970" stroke="#191970" points="929.8098,-13.3013 939.776,-9.7063 929.7431,-6.3017 929.8098,-13.3013"/>
</g>
<!-- Node81&#45;&gt;Node2 -->
<g id="edge56" class="edge">
<title>Node81&#45;&gt;Node2</title>
<path fill="none" stroke="#191970" d="M236.1724,-286.1732C239.1502,-285.7419 242.1031,-285.3472 245,-285 416.6405,-264.4269 941.1973,-247.2104 1130.7459,-241.5081"/>
<polygon fill="#191970" stroke="#191970" points="1130.9731,-245.003 1140.8638,-241.2051 1130.7635,-238.0061 1130.9731,-245.003"/>
</g>
<!-- Node83&#45;&gt;Node1 -->
<g id="edge58" class="edge">
<title>Node83&#45;&gt;Node1</title>
<path fill="none" stroke="#191970" d="M822.4044,-355.1412C692.4059,-340.7439 458.155,-314.7321 456,-314 432.4001,-305.9825 430.4495,-295.8285 408,-285 366.582,-265.0221 343.1419,-281.8857 311,-249 288.1584,-225.6299 287,-212.1788 287,-179.5 287,-179.5 287,-179.5 287,-119.5 287,-88.9131 286.5014,-73.3132 311,-55 360.6329,-17.8983 797.9478,-11.0015 929.6369,-9.7624"/>
<polygon fill="#191970" stroke="#191970" points="929.6811,-13.2622 939.6496,-9.6736 929.619,-6.2625 929.6811,-13.2622"/>
</g>
<!-- Node83&#45;&gt;Node2 -->
<g id="edge59" class="edge">
<title>Node83&#45;&gt;Node2</title>
<path fill="none" stroke="#191970" d="M927.3568,-350.433C953.2408,-333.0663 999.7747,-303.558 1043,-285 1077.2365,-270.3012 1117.6505,-258.7116 1148.9007,-250.9083"/>
<polygon fill="#191970" stroke="#191970" points="1149.8243,-254.2856 1158.7055,-248.5086 1148.1601,-247.4863 1149.8243,-254.2856"/>
</g>
<!-- Node84&#45;&gt;Node1 -->
<g id="edge61" class="edge">
<title>Node84&#45;&gt;Node1</title>
<path fill="none" stroke="#191970" d="M596.4226,-353.792C528.8064,-344.4003 440.5865,-329.8061 408,-314 390.4323,-305.4788 391.4664,-295.4925 375,-285 341.4335,-263.6111 323.1832,-274.9456 293,-249 265.2763,-225.1686 249,-216.0588 249,-179.5 249,-179.5 249,-179.5 249,-119.5 249,-85.532 260.7929,-72.3428 290,-55 345.1031,-22.2806 795.6916,-12.3101 929.6044,-10.0554"/>
<polygon fill="#191970" stroke="#191970" points="929.8318,-13.5523 939.7731,-9.8889 929.7171,-6.5532 929.8318,-13.5523"/>
</g>
<!-- Node84&#45;&gt;Node2 -->
<g id="edge63" class="edge">
<title>Node84&#45;&gt;Node2</title>
<path fill="none" stroke="#191970" d="M694.4591,-350.4075C711.8021,-331.8481 745.1522,-299.8351 781,-285 842.5249,-259.5388 1028.3442,-247.2831 1130.6308,-242.3252"/>
<polygon fill="#191970" stroke="#191970" points="1131.0425,-245.8097 1140.8655,-241.84 1130.7109,-238.8176 1131.0425,-245.8097"/>
</g>
<!-- Node84&#45;&gt;Node6 -->
<g id="edge62" class="edge">
<title>Node84&#45;&gt;Node6</title>
<path fill="none" stroke="#191970" d="M679.6142,-350.254C676.1744,-333.2382 668.4583,-304.6172 653,-285 618.6088,-241.356 561.0276,-209.6135 525.408,-192.9124"/>
<polygon fill="#191970" stroke="#191970" points="526.5313,-189.5776 515.9813,-188.6033 523.6211,-195.944 526.5313,-189.5776"/>
</g>
<!-- Node86&#45;&gt;Node1 -->
<g id="edge66" class="edge">
<title>Node86&#45;&gt;Node1</title>
<path fill="none" stroke="#191970" d="M2233.2018,-487.1302C2311.8405,-478.0986 2434.8679,-461.7882 2478,-444 2595.5275,-395.5303 2678,-366.63 2678,-239.5 2678,-239.5 2678,-239.5 2678,-119.5 2678,-49.3731 2602.3581,-70.6508 2534,-55 2380.8116,-19.927 1228.512,-11.1041 1004.6248,-9.714"/>
<polygon fill="#191970" stroke="#191970" points="1004.4016,-6.2127 994.3804,-9.6516 1004.3589,-13.2126 1004.4016,-6.2127"/>
</g>
<!-- Node86&#45;&gt;Node2 -->
<g id="edge68" class="edge">
<title>Node86&#45;&gt;Node2</title>
<path fill="none" stroke="#191970" d="M2094.9565,-492.2355C1961.4692,-487.2533 1672.7958,-473.3698 1578,-444 1440.9321,-401.5334 1424.4939,-350.8506 1297,-285 1274.8033,-273.5354 1249.198,-261.5765 1229.8704,-252.7977"/>
<polygon fill="#191970" stroke="#191970" points="1231.2128,-249.5636 1220.6584,-248.6382 1228.332,-255.9434 1231.2128,-249.5636"/>
</g>
<!-- Node86&#45;&gt;Node43 -->
<g id="edge69" class="edge">
<title>Node86&#45;&gt;Node43</title>
<path fill="none" stroke="#191970" d="M2094.9144,-491.595C1979.5182,-486.1423 1740.445,-472.2829 1540,-444 1413.9317,-426.2117 1267.402,-393.2618 1193.9969,-375.8941"/>
<polygon fill="#191970" stroke="#191970" points="1194.6725,-372.4572 1184.1342,-373.5501 1193.0539,-379.2675 1194.6725,-372.4572"/>
</g>
<!-- Node78 -->
<g id="node34" class="node">
<title>Node78</title>
<polygon fill="#ffffff" stroke="#bfbfbf" points="2603.3843,-420.5 2603.3843,-438.5 2646.6157,-438.5 2646.6157,-420.5 2603.3843,-420.5"/>
<text text-anchor="middle" x="2625" y="-426.5" font-family="FreeSans" font-size="10.00" fill="#000000">vector</text>
</g>
<!-- Node86&#45;&gt;Node78 -->
<g id="edge67" class="edge">
<title>Node86&#45;&gt;Node78</title>
<path fill="none" stroke="#191970" d="M2233.0525,-486.8348C2310.6139,-477.9127 2440.1563,-462.0729 2551,-444 2564.9677,-441.7226 2580.3343,-438.783 2593.4277,-436.1466"/>
<polygon fill="#191970" stroke="#191970" points="2594.2736,-439.5461 2603.3708,-434.1156 2592.8726,-432.6878 2594.2736,-439.5461"/>
</g>
<!-- Node73 -->
<g id="node35" class="node">
<title>Node73</title>
<g id="a_node35"><a xlink:href="CPointPredicate_8h_source.html" target="_top" xlink:title="DGtal/kernel/CPointPredicate.h">
<polygon fill="#ffffff" stroke="#ff0000" points="2033.5225,-355.5 2033.5225,-373.5 2188.4775,-373.5 2188.4775,-355.5 2033.5225,-355.5"/>
<text text-anchor="middle" x="2111" y="-361.5" font-family="FreeSans" font-size="10.00" fill="#000000">DGtal/kernel/CPointPredicate.h</text>
</a>
</g>
</g>
<!-- Node86&#45;&gt;Node73 -->
<g id="edge70" class="edge">
<title>Node86&#45;&gt;Node73</title>
<path fill="none" stroke="#191970" d="M2137.8582,-480.3714C2124.7945,-471.7572 2110.256,-459.4269 2103,-444 2093.9916,-424.8475 2098.5632,-400.2846 2103.7272,-383.5641"/>
<polygon fill="#191970" stroke="#191970" points="2107.1274,-384.4392 2107.0695,-373.8445 2100.5078,-382.1629 2107.1274,-384.4392"/>
</g>
<!-- Node87 -->
<g id="node36" class="node">
<title>Node87</title>
<g id="a_node36"><a xlink:href="Topology_8h_source.html" target="_top" xlink:title="DGtal/topology/Topology.h">
<polygon fill="#ffffff" stroke="#000000" points="2144.7212,-420.5 2144.7212,-438.5 2277.2788,-438.5 2277.2788,-420.5 2144.7212,-420.5"/>
<text text-anchor="middle" x="2211" y="-426.5" font-family="FreeSans" font-size="10.00" fill="#000000">DGtal/topology/Topology.h</text>
</a>
</g>
</g>
<!-- Node86&#45;&gt;Node87 -->
<g id="edge73" class="edge">
<title>Node86&#45;&gt;Node87</title>
<path fill="none" stroke="#191970" d="M2174.1983,-480.396C2181.298,-470.5773 2190.8129,-457.4184 2198.3891,-446.9406"/>
<polygon fill="#191970" stroke="#191970" points="2201.4153,-448.7287 2204.4386,-438.5743 2195.7428,-444.627 2201.4153,-448.7287"/>
</g>
<!-- Node88 -->
<g id="node37" class="node">
<title>Node88</title>
<g id="a_node37"><a xlink:href="SurfelAdjacency_8h_source.html" target="_top" xlink:title="DGtal/topology/SurfelAdjacency.h">
<polygon fill="#ffffff" stroke="#ff0000" points="2147.6055,-290.5 2147.6055,-308.5 2312.3945,-308.5 2312.3945,-290.5 2147.6055,-290.5"/>
<text text-anchor="middle" x="2230" y="-296.5" font-family="FreeSans" font-size="10.00" fill="#000000">DGtal/topology/SurfelAdjacency.h</text>
</a>
</g>
</g>
<!-- Node86&#45;&gt;Node88 -->
<g id="edge74" class="edge">
<title>Node86&#45;&gt;Node88</title>
<path fill="none" stroke="#191970" d="M2232.9141,-491.7739C2306.4354,-487.2471 2415.8705,-475.3037 2442,-444 2454.395,-429.1506 2452.2291,-369.7126 2435,-350 2425.2437,-338.8373 2345.9429,-321.6143 2288.8953,-310.4493"/>
<polygon fill="#191970" stroke="#191970" points="2289.3638,-306.975 2278.8802,-308.5063 2288.0306,-313.8468 2289.3638,-306.975"/>
</g>
<!-- Node91 -->
<g id="node38" class="node">
<title>Node91</title>
<g id="a_node38"><a xlink:href="SurfelNeighborhood_8h_source.html" target="_top" xlink:title="DGtal/topology/SurfelNeighborhood.h">
<polygon fill="#ffffff" stroke="#ff0000" points="2243.8921,-355.5 2243.8921,-373.5 2426.1079,-373.5 2426.1079,-355.5 2243.8921,-355.5"/>
<text text-anchor="middle" x="2335" y="-361.5" font-family="FreeSans" font-size="10.00" fill="#000000">DGtal/topology/SurfelNeighborhood.h</text>
</a>
</g>
</g>
<!-- Node86&#45;&gt;Node91 -->
<g id="edge77" class="edge">
<title>Node86&#45;&gt;Node91</title>
<path fill="none" stroke="#191970" d="M2151.472,-480.2599C2138.0849,-463.2499 2120.7256,-434.6347 2136,-415 2150.6347,-396.1876 2204.2885,-383.2487 2252.1994,-375.1807"/>
<polygon fill="#191970" stroke="#191970" points="2253.0124,-378.5945 2262.3198,-373.5326 2251.8873,-371.6855 2253.0124,-378.5945"/>
</g>
<!-- Node93 -->
<g id="node39" class="node">
<title>Node93</title>
<g id="a_node39"><a xlink:href="BreadthFirstVisitor_8h_source.html" target="_top" xlink:title="DGtal/graph/BreadthFirst\lVisitor.h">
<polygon fill="#ffffff" stroke="#ff0000" points="1587.4214,-415.5 1587.4214,-443.5 1714.5786,-443.5 1714.5786,-415.5 1587.4214,-415.5"/>
<text text-anchor="start" x="1595.4214" y="-431.5" font-family="FreeSans" font-size="10.00" fill="#000000">DGtal/graph/BreadthFirst</text>
<text text-anchor="middle" x="1651" y="-421.5" font-family="FreeSans" font-size="10.00" fill="#000000">Visitor.h</text>
</a>
</g>
</g>
<!-- Node86&#45;&gt;Node93 -->
<g id="edge81" class="edge">
<title>Node86&#45;&gt;Node93</title>
<path fill="none" stroke="#191970" d="M2094.9872,-485.9354C2014.8988,-475.9719 1878.8645,-458.9733 1762,-444 1750.0272,-442.466 1737.3303,-440.8228 1724.9653,-439.2138"/>
<polygon fill="#191970" stroke="#191970" points="1725.0486,-435.6951 1714.6801,-437.8733 1724.1439,-442.6364 1725.0486,-435.6951"/>
</g>
<!-- Node126 -->
<g id="node40" class="node">
<title>Node126</title>
<g id="a_node40"><a xlink:href="GraphVisitorRange_8h_source.html" target="_top" xlink:title="DGtal/graph/GraphVisitor\lRange.h">
<polygon fill="#ffffff" stroke="#ff0000" points="2329.9526,-285.5 2329.9526,-313.5 2458.0474,-313.5 2458.0474,-285.5 2329.9526,-285.5"/>
<text text-anchor="start" x="2337.9526" y="-301.5" font-family="FreeSans" font-size="10.00" fill="#000000">DGtal/graph/GraphVisitor</text>
<text text-anchor="middle" x="2394" y="-291.5" font-family="FreeSans" font-size="10.00" fill="#000000">Range.h</text>
</a>
</g>
</g>
<!-- Node86&#45;&gt;Node126 -->
<g id="edge85" class="edge">
<title>Node86&#45;&gt;Node126</title>
<path fill="none" stroke="#191970" d="M2232.9424,-487.4109C2315.7696,-478.1868 2445.4803,-461.2067 2460,-444 2469.6124,-432.6087 2468.9536,-376.9316 2455,-350 2448.7617,-337.9596 2438.2754,-327.7007 2427.7404,-319.6379"/>
<polygon fill="#191970" stroke="#191970" points="2429.5325,-316.6168 2419.3614,-313.6504 2425.4627,-322.3121 2429.5325,-316.6168"/>
</g>
<!-- Node128 -->
<g id="node41" class="node">
<title>Node128</title>
<g id="a_node41"><a xlink:href="LightImplicitDigitalSurface_8ih_source.html" target="_top" xlink:title="DGtal/topology/LightImplicit\lDigitalSurface.ih">
<polygon fill="#ffffff" stroke="#000000" points="2295.1382,-415.5 2295.1382,-443.5 2432.8618,-443.5 2432.8618,-415.5 2295.1382,-415.5"/>
<text text-anchor="start" x="2303.1382" y="-431.5" font-family="FreeSans" font-size="10.00" fill="#000000">DGtal/topology/LightImplicit</text>
<text text-anchor="middle" x="2364" y="-421.5" font-family="FreeSans" font-size="10.00" fill="#000000">DigitalSurface.ih</text>
</a>
</g>
</g>
<!-- Node86&#45;&gt;Node128 -->
<g id="edge88" class="edge">
<title>Node86&#45;&gt;Node128</title>
<path fill="none" stroke="#191970" d="M2207.397,-480.396C2237.7987,-470.5154 2278.6077,-457.2525 2310.9449,-446.7429"/>
<polygon fill="#191970" stroke="#191970" points="2312.2592,-449.9961 2320.6877,-443.5765 2310.0955,-443.3388 2312.2592,-449.9961"/>
</g>
<!-- Node73&#45;&gt;Node1 -->
<g id="edge71" class="edge">
<title>Node73&#45;&gt;Node1</title>
<path fill="none" stroke="#191970" d="M2111.4739,-355.3354C2112.8459,-338.7285 2118.1898,-303.6573 2139,-285 2191.3358,-238.0787 2230.8425,-281.8191 2293,-249 2324.9898,-232.1094 2338.4336,-227.1129 2353,-194 2377.8756,-137.4518 2395.9609,-99.3943 2353,-55 2328.8703,-30.0652 1223.6167,-13.1332 1004.5171,-10.0185"/>
<polygon fill="#191970" stroke="#191970" points="1004.5226,-6.5184 994.4741,-9.8766 1004.4236,-13.5177 1004.5226,-6.5184"/>
</g>
<!-- Node73&#45;&gt;Node2 -->
<g id="edge72" class="edge">
<title>Node73&#45;&gt;Node2</title>
<path fill="none" stroke="#191970" d="M2087.5065,-355.4502C2042.047,-338.3792 1938.5438,-301.647 1848,-285 1738.4632,-264.8611 1412.2265,-248.7137 1268.8691,-242.3863"/>
<polygon fill="#191970" stroke="#191970" points="1269.0127,-238.8894 1258.8689,-241.9478 1268.706,-245.8826 1269.0127,-238.8894"/>
</g>
<!-- Node88&#45;&gt;Node1 -->
<g id="edge75" class="edge">
<title>Node88&#45;&gt;Node1</title>
<path fill="none" stroke="#191970" d="M2276.6833,-290.4874C2331.488,-276.882 2415,-245.347 2415,-179.5 2415,-179.5 2415,-179.5 2415,-119.5 2415,-88.9131 2415.8359,-72.8531 2391,-55 2362.0075,-34.159 1226.2019,-13.8874 1004.3528,-10.1223"/>
<polygon fill="#191970" stroke="#191970" points="1004.2551,-6.6202 994.1973,-9.9506 1004.1367,-13.6192 1004.2551,-6.6202"/>
</g>
<!-- Node88&#45;&gt;Node2 -->
<g id="edge76" class="edge">
<title>Node88&#45;&gt;Node2</title>
<path fill="none" stroke="#191970" d="M2176.8031,-290.4843C2162.9069,-288.3986 2147.9213,-286.3868 2134,-285 1811.652,-252.8876 1424.3647,-243.192 1269.2144,-240.4773"/>
<polygon fill="#191970" stroke="#191970" points="1268.9494,-236.9724 1258.891,-240.3011 1268.8298,-243.9714 1268.9494,-236.9724"/>
</g>
<!-- Node91&#45;&gt;Node1 -->
<g id="edge78" class="edge">
<title>Node91&#45;&gt;Node1</title>
<path fill="none" stroke="#191970" d="M2393.6423,-355.4794C2419.8093,-348.4655 2448.7827,-336.0281 2467,-314 2505.6982,-267.2067 2491,-240.222 2491,-179.5 2491,-179.5 2491,-179.5 2491,-119.5 2491,-83.2287 2473.32,-71.4627 2441,-55 2375.1355,-21.4509 1228.2912,-11.4021 1004.6359,-9.7577"/>
<polygon fill="#191970" stroke="#191970" points="1004.4241,-6.2562 994.399,-9.6836 1004.3734,-13.256 1004.4241,-6.2562"/>
</g>
<!-- Node91&#45;&gt;Node2 -->
<g id="edge79" class="edge">
<title>Node91&#45;&gt;Node2</title>
<path fill="none" stroke="#191970" d="M2296.3581,-355.4766C2222.9105,-338.6999 2057.8959,-302.7988 1917,-285 1680.5516,-255.1305 1397.6303,-244.5016 1269.3341,-241.0316"/>
<polygon fill="#191970" stroke="#191970" points="1269.3441,-237.5307 1259.2551,-240.7652 1269.1591,-244.5283 1269.3441,-237.5307"/>
</g>
<!-- Node91&#45;&gt;Node88 -->
<g id="edge80" class="edge">
<title>Node91&#45;&gt;Node88</title>
<path fill="none" stroke="#191970" d="M2320.4002,-355.462C2303.1017,-344.7534 2274.0484,-326.7681 2253.5549,-314.0816"/>
<polygon fill="#191970" stroke="#191970" points="2255.1592,-310.9584 2244.8143,-308.6708 2251.4747,-316.9103 2255.1592,-310.9584"/>
</g>
<!-- Node93&#45;&gt;Node1 -->
<g id="edge82" class="edge">
<title>Node93&#45;&gt;Node1</title>
<path fill="none" stroke="#191970" d="M1694.9267,-415.4605C1840.0513,-368.879 2296.0238,-220.8647 2315,-194 2350.6424,-143.541 2357.9403,-99.4142 2315,-55 2291.579,-30.7751 1219.9396,-13.3212 1004.4939,-10.0536"/>
<polygon fill="#191970" stroke="#191970" points="1004.3754,-6.5515 994.3238,-9.9003 1004.2699,-13.5507 1004.3754,-6.5515"/>
</g>
<!-- Node93&#45;&gt;Node2 -->
<g id="edge83" class="edge">
<title>Node93&#45;&gt;Node2</title>
<path fill="none" stroke="#191970" d="M1647.4975,-415.4891C1639.2737,-385.8001 1615.7189,-316.6897 1568,-285 1543.6645,-268.839 1368.8277,-252.7208 1269.1494,-244.7096"/>
<polygon fill="#191970" stroke="#191970" points="1269.401,-241.2186 1259.1546,-243.9132 1268.8449,-248.1965 1269.401,-241.2186"/>
</g>
<!-- Node93&#45;&gt;Node43 -->
<g id="edge84" class="edge">
<title>Node93&#45;&gt;Node43</title>
<path fill="none" stroke="#191970" d="M1587.1681,-421.2677C1493.2792,-409.159 1318.4267,-386.6086 1219.7109,-373.8774"/>
<polygon fill="#191970" stroke="#191970" points="1219.8891,-370.3715 1209.5235,-372.5635 1218.9936,-377.314 1219.8891,-370.3715"/>
</g>
<!-- Node126&#45;&gt;Node1 -->
<g id="edge86" class="edge">
<title>Node126&#45;&gt;Node1</title>
<path fill="none" stroke="#191970" d="M2406.2248,-285.4556C2423.5063,-264.108 2453,-221.5196 2453,-179.5 2453,-179.5 2453,-179.5 2453,-119.5 2453,-86.0004 2442.9172,-71.912 2414,-55 2351.3952,-18.3861 1225.1004,-10.807 1004.3565,-9.6711"/>
<polygon fill="#191970" stroke="#191970" points="1004.2658,-6.1707 994.2483,-9.6203 1004.2306,-13.1706 1004.2658,-6.1707"/>
</g>
<!-- Node126&#45;&gt;Node2 -->
<g id="edge87" class="edge">
<title>Node126&#45;&gt;Node2</title>
<path fill="none" stroke="#191970" d="M2329.6001,-286.144C2326.6995,-285.7205 2323.8228,-285.3356 2321,-285 2115.714,-260.5961 1480.1147,-245.3792 1268.975,-240.893"/>
<polygon fill="#191970" stroke="#191970" points="1269.0183,-237.3932 1258.9466,-240.6812 1268.8705,-244.3916 1269.0183,-237.3932"/>
</g>
<!-- Node129&#45;&gt;Node1 -->
<g id="edge90" class="edge">
<title>Node129&#45;&gt;Node1</title>
<path fill="none" stroke="#191970" d="M2799.1833,-485.4392C2814.5252,-476.8528 2835.8711,-462.5226 2848,-444 2867.9013,-413.6077 2867,-400.8284 2867,-364.5 2867,-364.5 2867,-364.5 2867,-119.5 2867,-48.561 2790.2142,-70.5479 2721,-55 2548.3004,-16.2057 1243.3382,-10.3491 1004.4828,-9.5995"/>
<polygon fill="#191970" stroke="#191970" points="1004.2437,-6.0989 994.2331,-9.5685 1004.2224,-13.0988 1004.2437,-6.0989"/>
</g>
<!-- Node129&#45;&gt;Node2 -->
<g id="edge95" class="edge">
<title>Node129&#45;&gt;Node2</title>
<path fill="none" stroke="#191970" d="M2702.9119,-493.0374C2487.2417,-488.6328 1893.8196,-473.9155 1811,-444 1699.8926,-403.8665 1707.8142,-328.5477 1598,-285 1539.853,-261.9413 1366.9108,-248.8225 1269.2102,-243.0598"/>
<polygon fill="#191970" stroke="#191970" points="1269.3144,-239.56 1259.1286,-242.4755 1268.9093,-246.5483 1269.3144,-239.56"/>
</g>
<!-- Node129&#45;&gt;Node78 -->
<g id="edge91" class="edge">
<title>Node129&#45;&gt;Node78</title>
<path fill="none" stroke="#191970" d="M2759.3089,-485.462C2732.4907,-474.2878 2686.6567,-455.1903 2656.0989,-442.4579"/>
<polygon fill="#191970" stroke="#191970" points="2657.3348,-439.1812 2646.7578,-438.5658 2654.6424,-445.6427 2657.3348,-439.1812"/>
</g>
<!-- Node97 -->
<g id="node43" class="node">
<title>Node97</title>
<polygon fill="#ffffff" stroke="#bfbfbf" points="2895.3301,-420.5 2895.3301,-438.5 2924.6699,-438.5 2924.6699,-420.5 2895.3301,-420.5"/>
<text text-anchor="middle" x="2910" y="-426.5" font-family="FreeSans" font-size="10.00" fill="#000000">set</text>
</g>
<!-- Node129&#45;&gt;Node97 -->
<g id="edge92" class="edge">
<title>Node129&#45;&gt;Node97</title>
<path fill="none" stroke="#191970" d="M2798.9369,-485.462C2821.5502,-474.0677 2860.5136,-454.435 2885.7616,-441.7131"/>
<polygon fill="#191970" stroke="#191970" points="2887.6653,-444.6732 2895.0208,-437.0477 2884.5154,-438.4219 2887.6653,-444.6732"/>
</g>
<!-- Node130 -->
<g id="node44" class="node">
<title>Node130</title>
<polygon fill="#ffffff" stroke="#bfbfbf" points="2943.0669,-420.5 2943.0669,-438.5 3086.9331,-438.5 3086.9331,-420.5 2943.0669,-420.5"/>
<text text-anchor="middle" x="3015" y="-426.5" font-family="FreeSans" font-size="10.00" fill="#000000">boost/graph/graph_traits.hpp</text>
</g>
<!-- Node129&#45;&gt;Node130 -->
<g id="edge93" class="edge">
<title>Node129&#45;&gt;Node130</title>
<path fill="none" stroke="#191970" d="M2813.5367,-485.462C2854.9829,-473.9492 2926.7078,-454.0256 2972.454,-441.3183"/>
<polygon fill="#191970" stroke="#191970" points="2973.6649,-444.6146 2982.3633,-438.5658 2971.7913,-437.8699 2973.6649,-444.6146"/>
</g>
<!-- Node131 -->
<g id="node45" class="node">
<title>Node131</title>
<polygon fill="#ffffff" stroke="#bfbfbf" points="2703.2368,-420.5 2703.2368,-438.5 2838.7632,-438.5 2838.7632,-420.5 2703.2368,-420.5"/>
<text text-anchor="middle" x="2771" y="-426.5" font-family="FreeSans" font-size="10.00" fill="#000000">boost/graph/properties.hpp</text>
</g>
<!-- Node129&#45;&gt;Node131 -->
<g id="edge94" class="edge">
<title>Node129&#45;&gt;Node131</title>
<path fill="none" stroke="#191970" d="M2779.6095,-485.462C2778.1632,-476.061 2775.8541,-461.0518 2773.9912,-448.943"/>
<polygon fill="#191970" stroke="#191970" points="2777.4234,-448.2336 2772.4434,-438.8821 2770.5048,-449.2981 2777.4234,-448.2336"/>
</g>
<!-- Node142&#45;&gt;Node1 -->
<g id="edge97" class="edge">
<title>Node142&#45;&gt;Node1</title>
<path fill="none" stroke="#191970" d="M2578.2088,-290.3471C2570.348,-270.5141 2553,-221.9375 2553,-179.5 2553,-179.5 2553,-179.5 2553,-119.5 2553,-83.7664 2536.6905,-71.5106 2505,-55 2436.4232,-19.272 1233.4033,-10.9505 1004.4596,-9.6878"/>
<polygon fill="#191970" stroke="#191970" points="1004.321,-6.1871 994.3022,-9.633 1004.2832,-13.187 1004.321,-6.1871"/>
</g>
<!-- Node142&#45;&gt;Node2 -->
<g id="edge98" class="edge">
<title>Node142&#45;&gt;Node2</title>
<path fill="none" stroke="#191970" d="M2518.5362,-290.4657C2501.8057,-288.3672 2483.7484,-286.3539 2467,-285 2011.1009,-248.1469 1460.5077,-241.1431 1269.3426,-239.8122"/>
<polygon fill="#191970" stroke="#191970" points="1269.1819,-236.3112 1259.1588,-239.7444 1269.1352,-243.311 1269.1819,-236.3112"/>
</g>
<!-- Node352&#45;&gt;Node1 -->
<g id="edge100" class="edge">
<title>Node352&#45;&gt;Node1</title>
<path fill="none" stroke="#191970" d="M1906.2594,-420.4517C1971.0489,-379.2876 2235.0555,-210.9736 2247,-194 2268.8716,-162.9198 2288.8135,-137.8928 2263,-110 2219.0249,-62.4827 1212.2379,-19.389 1004.3472,-10.9793"/>
<polygon fill="#191970" stroke="#191970" points="1004.37,-7.4774 994.2373,-10.5722 1004.0883,-14.4718 1004.37,-7.4774"/>
</g>
<!-- Node352&#45;&gt;Node2 -->
<g id="edge102" class="edge">
<title>Node352&#45;&gt;Node2</title>
<path fill="none" stroke="#191970" d="M1888.7348,-420.2649C1878.7878,-393.6813 1846.0717,-316.8481 1790,-285 1745.6727,-259.8225 1415.4054,-246.3349 1269.2452,-241.5453"/>
<polygon fill="#191970" stroke="#191970" points="1269.1543,-238.0407 1259.0463,-241.2155 1268.9279,-245.037 1269.1543,-238.0407"/>
</g>
<!-- Node352&#45;&gt;Node4 -->
<g id="edge101" class="edge">
<title>Node352&#45;&gt;Node4</title>
<path fill="none" stroke="#191970" d="M1895.9661,-420.3C1907.2735,-395.0955 1942.1044,-324.2078 1992,-285 2014.1794,-267.5715 2213.024,-217.2475 2229,-194 2240.0865,-177.8675 2236.6896,-154.8194 2232.0458,-138.6428"/>
<polygon fill="#191970" stroke="#191970" points="2235.2319,-137.1255 2228.7943,-128.7108 2228.5793,-139.3035 2235.2319,-137.1255"/>
</g>
<!-- Node352&#45;&gt;Node32 -->
<g id="edge103" class="edge">
<title>Node352&#45;&gt;Node32</title>
<path fill="none" stroke="#191970" d="M1892.8285,-420.3232C1896.186,-388.7221 1911.6452,-283.4247 1972,-230 1987.9034,-215.9227 2038.4365,-200.9937 2077.5274,-191.0505"/>
<polygon fill="#191970" stroke="#191970" points="2078.847,-194.3285 2087.7001,-188.5085 2077.1499,-187.5373 2078.847,-194.3285"/>
</g>
<!-- Node352&#45;&gt;Node43 -->
<g id="edge105" class="edge">
<title>Node352&#45;&gt;Node43</title>
<path fill="none" stroke="#191970" d="M1819.5499,-423.1789C1677.2162,-410.7605 1362.5649,-383.3077 1219.8828,-370.8589"/>
<polygon fill="#191970" stroke="#191970" points="1219.7658,-367.3355 1209.4994,-369.953 1219.1573,-374.309 1219.7658,-367.3355"/>
</g>
<!-- Node352&#45;&gt;Node73 -->
<g id="edge104" class="edge">
<title>Node352&#45;&gt;Node73</title>
<path fill="none" stroke="#191970" d="M1922.451,-420.462C1961.0774,-408.9976 2027.804,-389.1929 2070.6404,-376.4789"/>
<polygon fill="#191970" stroke="#191970" points="2071.8646,-379.7665 2080.4554,-373.5658 2069.8728,-373.0558 2071.8646,-379.7665"/>
</g>
<!-- Node360&#45;&gt;Node1 -->
<g id="edge107" class="edge">
<title>Node360&#45;&gt;Node1</title>
<path fill="none" stroke="#191970" d="M797.0366,-491.2638C606.9997,-480.372 38,-441.3441 38,-364.5 38,-364.5 38,-364.5 38,-119.5 38,-78.4851 66.4384,-71.4726 104,-55 180.3083,-21.5352 774.0232,-11.8874 929.7181,-9.921"/>
<polygon fill="#191970" stroke="#191970" points="929.7889,-13.4205 939.745,-9.7974 929.7026,-6.421 929.7889,-13.4205"/>
</g>
<!-- Node360&#45;&gt;Node2 -->
<g id="edge108" class="edge">
<title>Node360&#45;&gt;Node2</title>
<path fill="none" stroke="#191970" d="M918.9453,-490.4608C974.7033,-485.0584 1058.534,-472.5774 1126,-444 1172.0995,-424.4731 1194.9766,-423.4566 1218,-379 1238.4134,-339.5831 1220.7615,-285.8082 1208.8098,-257.9394"/>
<polygon fill="#191970" stroke="#191970" points="1211.9034,-256.2857 1204.5995,-248.6108 1205.5232,-259.1653 1211.9034,-256.2857"/>
</g>
<!-- Node360&#45;&gt;Node42 -->
<g id="edge113" class="edge">
<title>Node360&#45;&gt;Node42</title>
<path fill="none" stroke="#191970" d="M833.528,-485.462C803.0096,-474.1911 750.6644,-454.859 716.1944,-442.1286"/>
<polygon fill="#191970" stroke="#191970" points="717.1406,-438.747 706.5473,-438.5658 714.7154,-445.3135 717.1406,-438.747"/>
</g>
<!-- Node360&#45;&gt;Node53 -->
<g id="edge109" class="edge">
<title>Node360&#45;&gt;Node53</title>
<path fill="none" stroke="#191970" d="M797.0743,-488.3506C675.2153,-474.8936 407.3561,-439.1378 340,-379 324.1603,-364.8578 316.6485,-341.4853 313.1073,-323.7333"/>
<polygon fill="#191970" stroke="#191970" points="316.5433,-323.061 311.4122,-313.7916 309.6429,-324.2376 316.5433,-323.061"/>
</g>
<!-- Node360&#45;&gt;Node83 -->
<g id="edge111" class="edge">
<title>Node360&#45;&gt;Node83</title>
<path fill="none" stroke="#191970" d="M861.524,-485.1507C869.1009,-465.0485 887.141,-417.1873 898.0856,-388.1506"/>
<polygon fill="#191970" stroke="#191970" points="901.3801,-389.3332 901.6321,-378.7413 894.83,-386.8642 901.3801,-389.3332"/>
</g>
<!-- Node360&#45;&gt;Node84 -->
<g id="edge112" class="edge">
<title>Node360&#45;&gt;Node84</title>
<path fill="none" stroke="#191970" d="M848.6542,-485.3038C832.6802,-469.8286 798.7663,-438.0189 767,-415 751.3144,-403.6337 732.9402,-392.475 717.2959,-383.5496"/>
<polygon fill="#191970" stroke="#191970" points="718.8728,-380.4209 708.4412,-378.5679 715.4404,-386.5216 718.8728,-380.4209"/>
</g>
<!-- Node360&#45;&gt;Node88 -->
<g id="edge110" class="edge">
<title>Node360&#45;&gt;Node88</title>
<path fill="none" stroke="#191970" d="M918.8238,-493.6435C1120.7186,-490.5028 1767.4817,-477.977 1973,-444 2024.137,-435.5459 2158.3727,-413.5601 2197,-379 2214.6156,-363.2392 2223.061,-336.6052 2226.9433,-318.5509"/>
<polygon fill="#191970" stroke="#191970" points="2230.4076,-319.0662 2228.812,-308.5922 2223.5277,-317.7751 2230.4076,-319.0662"/>
</g>
<!-- Node366&#45;&gt;Node1 -->
<g id="edge115" class="edge">
<title>Node366&#45;&gt;Node1</title>
<path fill="none" stroke="#191970" d="M2756.6535,-285.2472C2750.242,-262.9257 2739,-218.2604 2739,-179.5 2739,-179.5 2739,-179.5 2739,-119.5 2739,-84.03 2723.4005,-71.4964 2692,-55 2614.7861,-14.4353 1250.1831,-10.0201 1004.6759,-9.5537"/>
<polygon fill="#191970" stroke="#191970" points="1004.4828,-6.0534 994.4765,-9.5354 1004.4702,-13.0534 1004.4828,-6.0534"/>
</g>
<!-- Node366&#45;&gt;Node2 -->
<g id="edge116" class="edge">
<title>Node366&#45;&gt;Node2</title>
<path fill="none" stroke="#191970" d="M2705.8081,-290.5238C2690.6726,-288.371 2674.2361,-286.3165 2659,-285 2383.9785,-261.2361 1520.4402,-244.9673 1269.2065,-240.6467"/>
<polygon fill="#191970" stroke="#191970" points="1269.1738,-237.1457 1259.1153,-240.4739 1269.0539,-244.1447 1269.1738,-237.1457"/>
</g>
<!-- Node369&#45;&gt;Node1 -->
<g id="edge118" class="edge">
<title>Node369&#45;&gt;Node1</title>
<path fill="none" stroke="#191970" d="M1035.7073,-415.4996C1031.8718,-397.0447 1022.2574,-365.1496 1000,-350 905.8938,-285.9462 596.6265,-351.0864 489,-314 467.2064,-306.4903 465.6569,-297.0401 446,-285 385.1576,-247.7331 325,-250.8486 325,-179.5 325,-179.5 325,-179.5 325,-119.5 325,-85.532 336.8665,-72.4661 366,-55 414.235,-26.0822 805.3015,-13.6456 929.3753,-10.4027"/>
<polygon fill="#191970" stroke="#191970" points="929.6215,-13.8977 939.5285,-10.1424 929.442,-6.9 929.6215,-13.8977"/>
</g>
<!-- Node369&#45;&gt;Node2 -->
<g id="edge119" class="edge">
<title>Node369&#45;&gt;Node2</title>
<path fill="none" stroke="#191970" d="M1042.8023,-415.3568C1048.8836,-398.6949 1060.4696,-370.6687 1076,-350 1105.7244,-310.4411 1151.3157,-274.2657 1178.1462,-254.7126"/>
<polygon fill="#191970" stroke="#191970" points="1180.39,-257.4105 1186.476,-248.738 1176.3101,-251.7223 1180.39,-257.4105"/>
</g>
<!-- Node369&#45;&gt;Node43 -->
<g id="edge120" class="edge">
<title>Node369&#45;&gt;Node43</title>
<path fill="none" stroke="#191970" d="M1061.6514,-415.396C1079.8629,-404.5359 1104.9268,-389.5895 1123.1803,-378.7044"/>
<polygon fill="#191970" stroke="#191970" points="1124.9869,-381.7022 1131.7831,-373.5743 1121.4016,-375.69 1124.9869,-381.7022"/>
</g>
<!-- Node369&#45;&gt;Node83 -->
<g id="edge122" class="edge">
<title>Node369&#45;&gt;Node83</title>
<path fill="none" stroke="#191970" d="M1009.575,-415.396C990.5202,-405.9413 965.2236,-393.3896 944.5199,-383.1168"/>
<polygon fill="#191970" stroke="#191970" points="945.8832,-379.8861 935.3696,-378.5765 942.7718,-386.1566 945.8832,-379.8861"/>
</g>
<!-- Node369&#45;&gt;Node84 -->
<g id="edge121" class="edge">
<title>Node369&#45;&gt;Node84</title>
<path fill="none" stroke="#191970" d="M961.1916,-415.476C904.6734,-405.1567 827.7738,-391.116 768.9902,-380.383"/>
<polygon fill="#191970" stroke="#191970" points="769.4434,-376.908 758.9774,-378.5549 768.1861,-383.7942 769.4434,-376.908"/>
</g>
</g>
</svg>
