<?xml version="1.0" encoding="UTF-8" standalone="no"?>
<!DOCTYPE svg PUBLIC "-//W3C//DTD SVG 1.1//EN"
 "http://www.w3.org/Graphics/SVG/1.1/DTD/svg11.dtd">
<!-- Generated by graphviz version 2.36.0 (20140111.2315)
 -->
<!-- Title: Graphical Class Hierarchy Pages: 1 -->
<svg width="298pt" height="48pt"
 viewBox="0.00 0.00 298.00 48.00" xmlns="http://www.w3.org/2000/svg" xmlns:xlink="http://www.w3.org/1999/xlink">
<g id="graph0" class="graph" transform="scale(1 1) rotate(0) translate(4 44)">
<title>Graphical Class Hierarchy</title>
<polygon fill="white" stroke="none" points="-4,4 -4,-44 294,-44 294,4 -4,4"/>
<!-- Node1 -->
<g id="node1" class="node"><title>Node1</title>
<g id="a_node1"><a xlink:title="STL class. ">
<polygon fill="white" stroke="#bfbfbf" points="0.5,-10.5 0.5,-29.5 95.5,-29.5 95.5,-10.5 0.5,-10.5"/>
<text text-anchor="middle" x="48" y="-17.5" font-family="FreeSans" font-size="10.00">std::deque&lt; T &gt;</text>
</a>
</g>
</g>
<!-- Node2 -->
<g id="node2" class="node"><title>Node2</title>
<g id="a_node2"><a xlink:href="structDGtal_1_1KhalimskyPreSpaceND_1_1AnyCellCollection.html" target="_top" xlink:title="DGtal::KhalimskyPreSpace\lND\&lt; dim, TInteger \&gt;::AnyCell\lCollection\&lt; CellType \&gt;">
<polygon fill="white" stroke="black" points="132,0.5 132,-40.5 290,-40.5 290,0.5 132,0.5"/>
<text text-anchor="start" x="140" y="-28.5" font-family="FreeSans" font-size="10.00">DGtal::KhalimskyPreSpace</text>
<text text-anchor="start" x="140" y="-17.5" font-family="FreeSans" font-size="10.00">ND&lt; dim, TInteger &gt;::AnyCell</text>
<text text-anchor="middle" x="211" y="-6.5" font-family="FreeSans" font-size="10.00">Collection&lt; CellType &gt;</text>
</a>
</g>
</g>
<!-- Node1&#45;&gt;Node2 -->
<g id="edge1" class="edge"><title>Node1&#45;&gt;Node2</title>
<path fill="none" stroke="midnightblue" d="M105.725,-20C114.233,-20 123.131,-20 131.989,-20"/>
<polygon fill="midnightblue" stroke="midnightblue" points="105.568,-16.5001 95.5679,-20 105.568,-23.5001 105.568,-16.5001"/>
</g>
</g>
</svg>
