<?xml version="1.0" encoding="UTF-8" standalone="no"?>
<!DOCTYPE svg PUBLIC "-//W3C//DTD SVG 1.1//EN"
 "http://www.w3.org/Graphics/SVG/1.1/DTD/svg11.dtd">
<!-- Generated by graphviz version 2.36.0 (20140111.2315)
 -->
<!-- Title: Graphical Class Hierarchy Pages: 1 -->
<svg width="316pt" height="66pt"
 viewBox="0.00 0.00 316.00 66.00" xmlns="http://www.w3.org/2000/svg" xmlns:xlink="http://www.w3.org/1999/xlink">
<g id="graph0" class="graph" transform="scale(1 1) rotate(0) translate(4 62)">
<title>Graphical Class Hierarchy</title>
<polygon fill="white" stroke="none" points="-4,4 -4,-62 312,-62 312,4 -4,4"/>
<!-- Node1 -->
<g id="node1" class="node"><title>Node1</title>
<g id="a_node1"><a xlink:href="structDGtal_1_1DrawWithBoardModifier.html" target="_top" xlink:title="DGtal::DrawWithBoardModifier">
<polygon fill="white" stroke="black" points="0,-19.5 0,-38.5 160,-38.5 160,-19.5 0,-19.5"/>
<text text-anchor="middle" x="80" y="-26.5" font-family="FreeSans" font-size="10.00">DGtal::DrawWithBoardModifier</text>
</a>
</g>
</g>
<!-- Node2 -->
<g id="node2" class="node"><title>Node2</title>
<g id="a_node2"><a xlink:href="structDGtal_1_1CustomStyle.html" target="_top" xlink:title="DGtal::CustomStyle">
<polygon fill="white" stroke="black" points="196.5,-38.5 196.5,-57.5 307.5,-57.5 307.5,-38.5 196.5,-38.5"/>
<text text-anchor="middle" x="252" y="-45.5" font-family="FreeSans" font-size="10.00">DGtal::CustomStyle</text>
</a>
</g>
</g>
<!-- Node1&#45;&gt;Node2 -->
<g id="edge1" class="edge"><title>Node1&#45;&gt;Node2</title>
<path fill="none" stroke="midnightblue" d="M170.144,-38.9632C179.1,-39.9642 187.995,-40.9583 196.429,-41.9009"/>
<polygon fill="midnightblue" stroke="midnightblue" points="170.355,-35.465 160.028,-37.8325 169.577,-42.4217 170.355,-35.465"/>
</g>
<!-- Node3 -->
<g id="node3" class="node"><title>Node3</title>
<g id="a_node3"><a xlink:href="structDGtal_1_1SetMode.html" target="_top" xlink:title="Modifier class in a Board2D stream. Useful to choose your own mode for a given class. Realizes the concept CDrawableWithBoard2D. ">
<polygon fill="white" stroke="black" points="206,-0.5 206,-19.5 298,-19.5 298,-0.5 206,-0.5"/>
<text text-anchor="middle" x="252" y="-7.5" font-family="FreeSans" font-size="10.00">DGtal::SetMode</text>
</a>
</g>
</g>
<!-- Node1&#45;&gt;Node3 -->
<g id="edge2" class="edge"><title>Node1&#45;&gt;Node3</title>
<path fill="none" stroke="midnightblue" d="M170.287,-19.0209C182.493,-17.6567 194.581,-16.3056 205.541,-15.0807"/>
<polygon fill="midnightblue" stroke="midnightblue" points="169.577,-15.5783 160.028,-20.1675 170.355,-22.535 169.577,-15.5783"/>
</g>
</g>
</svg>
