<?xml version="1.0" encoding="UTF-8" standalone="no"?>
<!DOCTYPE svg PUBLIC "-//W3C//DTD SVG 1.1//EN"
 "http://www.w3.org/Graphics/SVG/1.1/DTD/svg11.dtd">
<!-- Generated by graphviz version 2.40.1 (20161225.0304)
 -->
<!-- Title: DGtal::concepts::CSegmentFactory&lt; T &gt; Pages: 1 -->
<!--zoomable 179 -->
<svg id="main" version="1.1" xmlns="http://www.w3.org/2000/svg" xmlns:xlink="http://www.w3.org/1999/xlink" xml:space="preserve" onload="init(evt)">
<style type="text/css"><![CDATA[
.edge:hover path { stroke: red; }
.edge:hover polygon { stroke: red; fill: red; }
]]></style>
<script type="text/javascript"><![CDATA[
var edges = document.getElementsByTagName('g');
if (edges && edges.length) {
  for (var i=0;i<edges.length;i++) {
    if (edges[i].id.substr(0,4)=='edge') {
      edges[i].setAttribute('class','edge');
    }
  }
}
]]></script>
        <defs>
                <circle id="rim" cx="0" cy="0" r="7"/>
                <circle id="rim2" cx="0" cy="0" r="3.5"/>
                <g id="zoomPlus">
                        <use xlink:href="#rim" fill="#404040">
                                <set attributeName="fill" to="#808080" begin="zoomplus.mouseover" end="zoomplus.mouseout"/>
                        </use>
                        <path d="M-4,0h8M0,-4v8" fill="none" stroke="white" stroke-width="1.5" pointer-events="none"/>
                </g>
                <g id="zoomMin">
                        <use xlink:href="#rim" fill="#404040">
                                <set attributeName="fill" to="#808080" begin="zoomminus.mouseover" end="zoomminus.mouseout"/>
                        </use>
                        <path d="M-4,0h8" fill="none" stroke="white" stroke-width="1.5" pointer-events="none"/>
                </g>
                <g id="dirArrow">
                        <path fill="none" stroke="white" stroke-width="1.5" d="M0,-3.0v7 M-2.5,-0.5L0,-3.0L2.5,-0.5"/>
                </g>
               <g id="resetDef">
                       <use xlink:href="#rim2" fill="#404040">
                               <set attributeName="fill" to="#808080" begin="reset.mouseover" end="reset.mouseout"/>
                       </use>
               </g>
        </defs>

<script type="text/javascript">
var viewWidth = 566;
var viewHeight = 179;
var sectionId = 'dynsection-1';
</script>
<script xlink:href="svgpan.js"/>
<svg id="graph" class="graph">
<g id="viewport">
<title>DGtal::concepts::CSegmentFactory&lt; T &gt;</title>
<polygon fill="#ffffff" stroke="transparent" points="-4,4 -4,-175 561.7236,-175 561.7236,4 -4,4"/>
<!-- Node11 -->
<g id="node1" class="node">
<title>Node11</title>
<polygon fill="#bfbfbf" stroke="#000000" points="417.7783,-10.5 417.7783,-38.5 557.7236,-38.5 557.7236,-10.5 417.7783,-10.5"/>
<text text-anchor="start" x="425.7783" y="-26.5" font-family="FreeSans" font-size="10.00" fill="#000000">DGtal::concepts::CSegment</text>
<text text-anchor="middle" x="487.751" y="-16.5" font-family="FreeSans" font-size="10.00" fill="#000000">Factory&lt; T &gt;</text>
</g>
<!-- Node12 -->
<g id="node2" class="node">
<title>Node12</title>
<g id="a_node2"><a xlink:href="structDGtal_1_1concepts_1_1CSegment.html" target="_top" xlink:title="Aim: Defines the concept describing a segment, ie. a valid and not empty range. ">
<polygon fill="#ffffff" stroke="#000000" points="217.8398,-65.5 217.8398,-83.5 380.7783,-83.5 380.7783,-65.5 217.8398,-65.5"/>
<text text-anchor="middle" x="299.3091" y="-71.5" font-family="FreeSans" font-size="10.00" fill="#000000">DGtal::concepts::CSegment&lt; T &gt;</text>
</a>
</g>
</g>
<!-- Node12&#45;&gt;Node11 -->
<g id="edge1" class="edge">
<title>Node12&#45;&gt;Node11</title>
<path fill="none" stroke="#191970" d="M343.1078,-62.8787C370.4204,-55.6318 405.7465,-46.2586 434.65,-38.5895"/>
<polygon fill="#191970" stroke="#191970" points="342.2024,-59.4978 333.4345,-65.4454 343.9977,-66.2636 342.2024,-59.4978"/>
</g>
<!-- Node13 -->
<g id="node3" class="node">
<title>Node13</title>
<g id="a_node3"><a xlink:href="structboost_1_1DefaultConstructible.html" target="_top" xlink:title="Go to http://www.sgi.com/tech/stl/DefaultConstructible.html. ">
<polygon fill="#ffffff" stroke="#000000" points=".0024,-152.5 .0024,-170.5 159.0591,-170.5 159.0591,-152.5 .0024,-152.5"/>
<text text-anchor="middle" x="79.5308" y="-158.5" font-family="FreeSans" font-size="10.00" fill="#000000">boost::DefaultConstructible&lt; T &gt;</text>
</a>
</g>
</g>
<!-- Node13&#45;&gt;Node12 -->
<g id="edge2" class="edge">
<title>Node13&#45;&gt;Node12</title>
<path fill="none" stroke="#191970" d="M137.8085,-149.9749C145.0391,-148.0588 152.2714,-145.9011 159.0615,-143.5 206.3907,-126.7634 258.5562,-98.1824 283.8512,-83.6163"/>
<polygon fill="#191970" stroke="#191970" points="136.8389,-146.6097 127.9915,-152.4383 138.5426,-153.3992 136.8389,-146.6097"/>
</g>
<!-- Node14 -->
<g id="node4" class="node">
<title>Node14</title>
<g id="a_node4"><a xlink:href="structboost_1_1CopyConstructible.html" target="_top" xlink:title="Go to http://www.sgi.com/tech/stl/CopyConstructible.html. ">
<polygon fill="#ffffff" stroke="#000000" points="4.1724,-115.5 4.1724,-133.5 154.8892,-133.5 154.8892,-115.5 4.1724,-115.5"/>
<text text-anchor="middle" x="79.5308" y="-121.5" font-family="FreeSans" font-size="10.00" fill="#000000">boost::CopyConstructible&lt; T &gt;</text>
</a>
</g>
</g>
<!-- Node14&#45;&gt;Node12 -->
<g id="edge3" class="edge">
<title>Node14&#45;&gt;Node12</title>
<path fill="none" stroke="#191970" d="M129.5855,-113.1853C139.3612,-110.9715 149.5331,-108.6653 159.0615,-106.5 193.0345,-98.7797 231.6273,-89.9713 259.7172,-83.553"/>
<polygon fill="#191970" stroke="#191970" points="128.5658,-109.8275 119.5852,-115.4489 130.1112,-116.6547 128.5658,-109.8275"/>
</g>
<!-- Node15 -->
<g id="node5" class="node">
<title>Node15</title>
<g id="a_node5"><a xlink:href="structboost_1_1Assignable.html" target="_top" xlink:title="Go to http://www.sgi.com/tech/stl/Assignable.html. ">
<polygon fill="#ffffff" stroke="#000000" points="20.564,-78.5 20.564,-96.5 138.4976,-96.5 138.4976,-78.5 20.564,-78.5"/>
<text text-anchor="middle" x="79.5308" y="-84.5" font-family="FreeSans" font-size="10.00" fill="#000000">boost::Assignable&lt; T &gt;</text>
</a>
</g>
</g>
<!-- Node15&#45;&gt;Node12 -->
<g id="edge4" class="edge">
<title>Node15&#45;&gt;Node12</title>
<path fill="none" stroke="#191970" d="M148.897,-83.397C170.7538,-82.1041 195.0977,-80.6642 217.7237,-79.3258"/>
<polygon fill="#191970" stroke="#191970" points="148.4923,-79.9147 138.7164,-83.9991 148.9057,-86.9025 148.4923,-79.9147"/>
</g>
<!-- Node16 -->
<g id="node6" class="node">
<title>Node16</title>
<g id="a_node6"><a xlink:href="structboost_1_1EqualityComparable.html" target="_top" xlink:title="Go to http://www.sgi.com/tech/stl/EqualityComparable.html. ">
<polygon fill="#ffffff" stroke="#000000" points="0,-41.5 0,-59.5 159.0615,-59.5 159.0615,-41.5 0,-41.5"/>
<text text-anchor="middle" x="79.5308" y="-47.5" font-family="FreeSans" font-size="10.00" fill="#000000">boost::EqualityComparable&lt; T &gt;</text>
</a>
</g>
</g>
<!-- Node16&#45;&gt;Node12 -->
<g id="edge5" class="edge">
<title>Node16&#45;&gt;Node12</title>
<path fill="none" stroke="#191970" d="M169.5633,-60.3316C185.5027,-62.0722 202.0187,-63.8758 217.7091,-65.5892"/>
<polygon fill="#191970" stroke="#191970" points="169.5074,-56.8048 159.1865,-59.1985 168.7474,-63.7634 169.5074,-56.8048"/>
</g>
<!-- Node17 -->
<g id="node7" class="node">
<title>Node17</title>
<polygon fill="#ffffff" stroke="#bfbfbf" points="65.0308,-.5 65.0308,-18.5 94.0308,-18.5 94.0308,-.5 65.0308,-.5"/>
<text text-anchor="middle" x="79.5308" y="-6.5" font-family="FreeSans" font-size="10.00" fill="#000000">T</text>
</g>
<!-- Node17&#45;&gt;Node11 -->
<g id="edge7" class="edge">
<title>Node17&#45;&gt;Node11</title>
<path fill="none" stroke="#9a32cd" stroke-dasharray="5,2" d="M104.2559,-10.4085C165.1898,-12.6475 324.3599,-18.4962 417.3667,-21.9137"/>
<polygon fill="#9a32cd" stroke="#9a32cd" points="104.1813,-6.9035 94.0595,-10.0339 103.9242,-13.8988 104.1813,-6.9035"/>
<text text-anchor="middle" x="299.3091" y="-22.5" font-family="FreeSans" font-size="10.00" fill="#000000"> myT</text>
</g>
<!-- Node17&#45;&gt;Node12 -->
<g id="edge6" class="edge">
<title>Node17&#45;&gt;Node12</title>
<path fill="none" stroke="#9a32cd" stroke-dasharray="5,2" d="M104.2106,-16.1383C119.9397,-20.4157 140.7352,-26.1569 159.0615,-31.5 197.8137,-42.7982 242.3416,-56.5895 270.6382,-65.4557"/>
<polygon fill="#9a32cd" stroke="#9a32cd" points="104.7905,-12.6693 94.2233,-13.4338 102.9608,-19.426 104.7905,-12.6693"/>
<text text-anchor="middle" x="188.4507" y="-44.5" font-family="FreeSans" font-size="10.00" fill="#000000"> myX</text>
</g>
</g>
</svg>
        <g id="navigator" transform="translate(0 0)" fill="#404254">
                <rect fill="#f2f5e9" fill-opacity="0.5" stroke="#606060" stroke-width=".5" x="0" y="0" width="60" height="60"/>
                <use id="zoomplus" xlink:href="#zoomPlus" x="17" y="9" onmousedown="handleZoom(evt,'in')"/>
                <use id="zoomminus" xlink:href="#zoomMin" x="42" y="9" onmousedown="handleZoom(evt,'out')"/>
                <use id="reset" xlink:href="#resetDef" x="30" y="36" onmousedown="handleReset()"/>
                <g id="arrowUp" xlink:href="#dirArrow" transform="translate(30 24)" onmousedown="handlePan(0,-1)">
                  <use xlink:href="#rim" fill="#404040">
                        <set attributeName="fill" to="#808080" begin="arrowUp.mouseover" end="arrowUp.mouseout"/>
                  </use>
                  <path fill="none" stroke="white" stroke-width="1.5" d="M0,-3.0v7 M-2.5,-0.5L0,-3.0L2.5,-0.5"/>
                </g>
                <g id="arrowRight" xlink:href="#dirArrow" transform="rotate(90) translate(36 -43)" onmousedown="handlePan(1,0)">
                  <use xlink:href="#rim" fill="#404040">
                        <set attributeName="fill" to="#808080" begin="arrowRight.mouseover" end="arrowRight.mouseout"/>
                  </use>
                  <path fill="none" stroke="white" stroke-width="1.5" d="M0,-3.0v7 M-2.5,-0.5L0,-3.0L2.5,-0.5"/>
                </g>
                <g id="arrowDown" xlink:href="#dirArrow" transform="rotate(180) translate(-30 -48)" onmousedown="handlePan(0,1)">
                  <use xlink:href="#rim" fill="#404040">
                        <set attributeName="fill" to="#808080" begin="arrowDown.mouseover" end="arrowDown.mouseout"/>
                  </use>
                  <path fill="none" stroke="white" stroke-width="1.5" d="M0,-3.0v7 M-2.5,-0.5L0,-3.0L2.5,-0.5"/>
                </g>
                <g id="arrowLeft" xlink:href="#dirArrow" transform="rotate(270) translate(-36 17)" onmousedown="handlePan(-1,0)">
                  <use xlink:href="#rim" fill="#404040">
                        <set attributeName="fill" to="#808080" begin="arrowLeft.mouseover" end="arrowLeft.mouseout"/>
                  </use>
                  <path fill="none" stroke="white" stroke-width="1.5" d="M0,-3.0v7 M-2.5,-0.5L0,-3.0L2.5,-0.5"/>
                </g>
        </g>
        <svg viewBox="0 0 15 15" width="100%" height="30px" preserveAspectRatio="xMaxYMin meet">
         <g id="arrow_out" transform="scale(0.3 0.3)">
          <a xlink:href="structDGtal_1_1concepts_1_1CSegmentFactory__coll__graph_org.svg" target="_base">
           <rect id="button" ry="5" rx="5" y="6" x="6" height="38" width="38"
                fill="#f2f5e9" fill-opacity="0.5" stroke="#606060" stroke-width="1.0"/>
           <path id="arrow"
             d="M 11.500037,31.436501 C 11.940474,20.09759 22.043105,11.32322 32.158766,21.979434 L 37.068811,17.246167 C 37.068811,17.246167 37.088388,32 37.088388,32 L 22.160133,31.978069 C 22.160133,31.978069 26.997745,27.140456 26.997745,27.140456 C 18.528582,18.264221 13.291696,25.230495 11.500037,31.436501 z"
             style="fill:#404040;"/>
          </a>
         </g>
        </svg>
</svg>
