<?xml version="1.0" encoding="UTF-8" standalone="no"?>
<!DOCTYPE svg PUBLIC "-//W3C//DTD SVG 1.1//EN"
 "http://www.w3.org/Graphics/SVG/1.1/DTD/svg11.dtd">
<!-- Generated by graphviz version 2.36.0 (20140111.2315)
 -->
<!-- Title: DGtal::concepts::CLMSTTangentFromDSS&lt; T &gt; Pages: 1 -->
<svg width="400pt" height="142pt"
 viewBox="0.00 0.00 400.00 142.00" xmlns="http://www.w3.org/2000/svg" xmlns:xlink="http://www.w3.org/1999/xlink">
<g id="graph0" class="graph" transform="scale(1 1) rotate(0) translate(4 138)">
<title>DGtal::concepts::CLMSTTangentFromDSS&lt; T &gt;</title>
<polygon fill="white" stroke="none" points="-4,4 -4,-138 396,-138 396,4 -4,4"/>
<!-- Node1 -->
<g id="node1" class="node"><title>Node1</title>
<polygon fill="#bfbfbf" stroke="black" points="222.5,-52 222.5,-82 391.5,-82 391.5,-52 222.5,-52"/>
<text text-anchor="start" x="230.5" y="-70" font-family="FreeSans" font-size="10.00">DGtal::concepts::CLMSTTangent</text>
<text text-anchor="middle" x="307" y="-59" font-family="FreeSans" font-size="10.00">FromDSS&lt; T &gt;</text>
</g>
<!-- Node2 -->
<g id="node2" class="node"><title>Node2</title>
<g id="a_node2"><a xlink:href="structboost_1_1DefaultConstructible.html" target="_top" xlink:title="Go to http://www.sgi.com/tech/stl/DefaultConstructible.html. ">
<polygon fill="white" stroke="black" points="0.5,-114.5 0.5,-133.5 175.5,-133.5 175.5,-114.5 0.5,-114.5"/>
<text text-anchor="middle" x="88" y="-121.5" font-family="FreeSans" font-size="10.00">boost::DefaultConstructible&lt; T &gt;</text>
</a>
</g>
</g>
<!-- Node2&#45;&gt;Node1 -->
<g id="edge1" class="edge"><title>Node2&#45;&gt;Node1</title>
<path fill="none" stroke="midnightblue" d="M145.644,-112.226C155.781,-109.949 166.225,-107.493 176,-105 203.114,-98.0854 233.111,-89.3882 257.451,-82.0597"/>
<polygon fill="midnightblue" stroke="midnightblue" points="144.654,-108.86 135.646,-114.437 146.166,-115.695 144.654,-108.86"/>
</g>
<!-- Node3 -->
<g id="node3" class="node"><title>Node3</title>
<g id="a_node3"><a xlink:href="structboost_1_1CopyConstructible.html" target="_top" xlink:title="Go to http://www.sgi.com/tech/stl/CopyConstructible.html. ">
<polygon fill="white" stroke="black" points="6,-76.5 6,-95.5 170,-95.5 170,-76.5 6,-76.5"/>
<text text-anchor="middle" x="88" y="-83.5" font-family="FreeSans" font-size="10.00">boost::CopyConstructible&lt; T &gt;</text>
</a>
</g>
</g>
<!-- Node3&#45;&gt;Node1 -->
<g id="edge2" class="edge"><title>Node3&#45;&gt;Node1</title>
<path fill="none" stroke="midnightblue" d="M180.225,-78.0126C194.229,-76.7864 208.626,-75.5258 222.453,-74.3152"/>
<polygon fill="midnightblue" stroke="midnightblue" points="179.768,-74.5391 170.111,-78.8981 180.379,-81.5124 179.768,-74.5391"/>
</g>
<!-- Node4 -->
<g id="node4" class="node"><title>Node4</title>
<g id="a_node4"><a xlink:href="structboost_1_1Assignable.html" target="_top" xlink:title="Go to http://www.sgi.com/tech/stl/Assignable.html. ">
<polygon fill="white" stroke="black" points="23.5,-38.5 23.5,-57.5 152.5,-57.5 152.5,-38.5 23.5,-38.5"/>
<text text-anchor="middle" x="88" y="-45.5" font-family="FreeSans" font-size="10.00">boost::Assignable&lt; T &gt;</text>
</a>
</g>
</g>
<!-- Node4&#45;&gt;Node1 -->
<g id="edge3" class="edge"><title>Node4&#45;&gt;Node1</title>
<path fill="none" stroke="midnightblue" d="M162.774,-54.4594C181.885,-56.1328 202.603,-57.9468 222.188,-59.6616"/>
<polygon fill="midnightblue" stroke="midnightblue" points="162.908,-50.9579 152.641,-53.5722 162.297,-57.9312 162.908,-50.9579"/>
</g>
<!-- Node5 -->
<g id="node5" class="node"><title>Node5</title>
<polygon fill="white" stroke="#bfbfbf" points="73.5,-0.5 73.5,-19.5 102.5,-19.5 102.5,-0.5 73.5,-0.5"/>
<text text-anchor="middle" x="88" y="-7.5" font-family="FreeSans" font-size="10.00">T</text>
</g>
<!-- Node5&#45;&gt;Node1 -->
<g id="edge4" class="edge"><title>Node5&#45;&gt;Node1</title>
<path fill="none" stroke="#9a32cd" stroke-dasharray="5,2" d="M112.574,-14.687C130.135,-18.2901 154.662,-23.5583 176,-29 203.114,-35.9146 233.111,-44.6118 257.451,-51.9403"/>
<polygon fill="#9a32cd" stroke="#9a32cd" points="113.127,-11.2279 102.631,-12.672 111.737,-18.0885 113.127,-11.2279"/>
<text text-anchor="middle" x="199" y="-38" font-family="FreeSans" font-size="10.00"> x</text>
</g>
</g>
</svg>
