<?xml version="1.0" encoding="UTF-8" standalone="no"?>
<!DOCTYPE svg PUBLIC "-//W3C//DTD SVG 1.1//EN"
 "http://www.w3.org/Graphics/SVG/1.1/DTD/svg11.dtd">
<!-- Generated by graphviz version 2.36.0 (20140111.2315)
 -->
<!-- Title: DGtal::Display3D&lt; Space, KSpace &gt;::QuadD3D Pages: 1 -->
<!--zoomable 262 -->
<svg id="main" version="1.1" xmlns="http://www.w3.org/2000/svg" xmlns:xlink="http://www.w3.org/1999/xlink" xml:space="preserve" onload="init(evt)">
<style type="text/css"><![CDATA[
.edge:hover path { stroke: red; }
.edge:hover polygon { stroke: red; fill: red; }
]]></style>
<script type="text/javascript"><![CDATA[
var edges = document.getElementsByTagName('g');
if (edges && edges.length) {
  for (var i=0;i<edges.length;i++) {
    if (edges[i].id.substr(0,4)=='edge') {
      edges[i].setAttribute('class','edge');
    }
  }
}
]]></script>
        <defs>
                <circle id="rim" cx="0" cy="0" r="7"/>
                <circle id="rim2" cx="0" cy="0" r="3.5"/>
                <g id="zoomPlus">
                        <use xlink:href="#rim" fill="#404040">
                                <set attributeName="fill" to="#808080" begin="zoomplus.mouseover" end="zoomplus.mouseout"/>
                        </use>
                        <path d="M-4,0h8M0,-4v8" fill="none" stroke="white" stroke-width="1.5" pointer-events="none"/>
                </g>
                <g id="zoomMin">
                        <use xlink:href="#rim" fill="#404040">
                                <set attributeName="fill" to="#808080" begin="zoomminus.mouseover" end="zoomminus.mouseout"/>
                        </use>
                        <path d="M-4,0h8" fill="none" stroke="white" stroke-width="1.5" pointer-events="none"/>
                </g>
                <g id="dirArrow">
                        <path fill="none" stroke="white" stroke-width="1.5" d="M0,-3.0v7 M-2.5,-0.5L0,-3.0L2.5,-0.5"/>
                </g>
               <g id="resetDef">
                       <use xlink:href="#rim2" fill="#404040">
                               <set attributeName="fill" to="#808080" begin="reset.mouseover" end="reset.mouseout"/>
                       </use>
               </g>
        </defs>

<script type="text/javascript">
var viewWidth = 562;
var viewHeight = 262;
var sectionId = 'dynsection-1';
</script>
<script xlink:href="svgpan.js"/>
<svg id="graph" class="graph">
<g id="viewport">
<title>DGtal::Display3D&lt; Space, KSpace &gt;::QuadD3D</title>
<polygon fill="white" stroke="none" points="-4,4 -4,-258 558,-258 558,4 -4,4"/>
<!-- Node1 -->
<g id="node1" class="node"><title>Node1</title>
<polygon fill="#bfbfbf" stroke="black" points="412,-50 412,-80 554,-80 554,-50 412,-50"/>
<text text-anchor="start" x="420" y="-68" font-family="FreeSans" font-size="10.00">DGtal::Display3D&lt; Space,</text>
<text text-anchor="middle" x="483" y="-57" font-family="FreeSans" font-size="10.00"> KSpace &gt;::QuadD3D</text>
</g>
<!-- Node2 -->
<g id="node2" class="node"><title>Node2</title>
<g id="a_node2"><a xlink:href="structDGtal_1_1Display3D_1_1CommonD3D.html" target="_top" xlink:title="DGtal::Display3D\&lt; Space,\l KSpace \&gt;::CommonD3D">
<polygon fill="white" stroke="black" points="200,-90 200,-120 342,-120 342,-90 200,-90"/>
<text text-anchor="start" x="208" y="-108" font-family="FreeSans" font-size="10.00">DGtal::Display3D&lt; Space,</text>
<text text-anchor="middle" x="271" y="-97" font-family="FreeSans" font-size="10.00"> KSpace &gt;::CommonD3D</text>
</a>
</g>
</g>
<!-- Node2&#45;&gt;Node1 -->
<g id="edge1" class="edge"><title>Node2&#45;&gt;Node1</title>
<path fill="none" stroke="midnightblue" d="M352.073,-89.7479C371.754,-85.9992 392.675,-82.0143 411.847,-78.3624"/>
<polygon fill="midnightblue" stroke="midnightblue" points="351.387,-86.3156 342.219,-91.625 352.697,-93.192 351.387,-86.3156"/>
</g>
<!-- Node3 -->
<g id="node3" class="node"><title>Node3</title>
<g id="a_node3"><a xlink:href="classDGtal_1_1Color.html" target="_top" xlink:title="Structure representing an RGB triple with alpha component. ">
<polygon fill="white" stroke="black" points="23,-95.5 23,-114.5 97,-114.5 97,-95.5 23,-95.5"/>
<text text-anchor="middle" x="60" y="-102.5" font-family="FreeSans" font-size="10.00">DGtal::Color</text>
</a>
</g>
</g>
<!-- Node3&#45;&gt;Node2 -->
<g id="edge2" class="edge"><title>Node3&#45;&gt;Node2</title>
<path fill="none" stroke="#9a32cd" stroke-dasharray="5,2" d="M107.409,-105C134.557,-105 169.372,-105 199.816,-105"/>
<polygon fill="#9a32cd" stroke="#9a32cd" points="107.405,-101.5 97.405,-105 107.405,-108.5 107.405,-101.5"/>
<text text-anchor="middle" x="160" y="-108" font-family="FreeSans" font-size="10.00"> color</text>
</g>
<!-- Node3&#45;&gt;Node3 -->
<g id="edge3" class="edge"><title>Node3&#45;&gt;Node3</title>
<path fill="none" stroke="#9a32cd" stroke-dasharray="5,2" d="M41.4824,-124.4C42.7191,-129.315 48.8916,-133 60,-133 77.7734,-133 82.9111,-123.565 75.4129,-114.757"/>
<polygon fill="#9a32cd" stroke="#9a32cd" points="44.8539,-125.349 44.5871,-114.757 38.1907,-123.203 44.8539,-125.349"/>
<text text-anchor="middle" x="60" y="-246" font-family="FreeSans" font-size="10.00"> Yellow</text>
<text text-anchor="middle" x="60" y="-235" font-family="FreeSans" font-size="10.00">Lime</text>
<text text-anchor="middle" x="60" y="-224" font-family="FreeSans" font-size="10.00">Navy</text>
<text text-anchor="middle" x="60" y="-213" font-family="FreeSans" font-size="10.00">Magenta</text>
<text text-anchor="middle" x="60" y="-202" font-family="FreeSans" font-size="10.00">White</text>
<text text-anchor="middle" x="60" y="-191" font-family="FreeSans" font-size="10.00">None</text>
<text text-anchor="middle" x="60" y="-180" font-family="FreeSans" font-size="10.00">Blue</text>
<text text-anchor="middle" x="60" y="-169" font-family="FreeSans" font-size="10.00">Aqua</text>
<text text-anchor="middle" x="60" y="-158" font-family="FreeSans" font-size="10.00">Purple</text>
<text text-anchor="middle" x="60" y="-147" font-family="FreeSans" font-size="10.00">Silver</text>
<text text-anchor="middle" x="60" y="-136" font-family="FreeSans" font-size="10.00">...</text>
</g>
<!-- Node4 -->
<g id="node4" class="node"><title>Node4</title>
<g id="a_node4"><a xlink:href="classDGtal_1_1PointVector.html" target="_top" xlink:title="Aim: Implements basic operations that will be used in Point and Vector classes. ">
<polygon fill="white" stroke="black" points="208,-0.5 208,-41.5 334,-41.5 334,-0.5 208,-0.5"/>
<text text-anchor="start" x="216" y="-29.5" font-family="FreeSans" font-size="10.00">DGtal::PointVector</text>
<text text-anchor="start" x="216" y="-18.5" font-family="FreeSans" font-size="10.00">&lt; dim, TEuclideanRing,</text>
<text text-anchor="middle" x="271" y="-7.5" font-family="FreeSans" font-size="10.00"> TContainer &gt;</text>
</a>
</g>
</g>
<!-- Node4&#45;&gt;Node1 -->
<g id="edge4" class="edge"><title>Node4&#45;&gt;Node1</title>
<path fill="none" stroke="#9a32cd" stroke-dasharray="5,2" d="M344.321,-25.9019C360.772,-27.7913 378.085,-30.4006 394,-34 411.221,-37.8948 429.731,-44.093 445.31,-49.9269"/>
<polygon fill="#9a32cd" stroke="#9a32cd" points="344.526,-22.4039 334.21,-24.816 343.779,-29.3639 344.526,-22.4039"/>
<text text-anchor="middle" x="377" y="-70" font-family="FreeSans" font-size="10.00"> point1</text>
<text text-anchor="middle" x="377" y="-59" font-family="FreeSans" font-size="10.00">point2</text>
<text text-anchor="middle" x="377" y="-48" font-family="FreeSans" font-size="10.00">point3</text>
<text text-anchor="middle" x="377" y="-37" font-family="FreeSans" font-size="10.00">point4</text>
</g>
<!-- Node4&#45;&gt;Node4 -->
<g id="edge6" class="edge"><title>Node4&#45;&gt;Node4</title>
<path fill="none" stroke="#9a32cd" stroke-dasharray="5,2" d="M253.09,-51.6009C255.947,-56.0235 261.917,-59 271,-59 285.906,-59 292.428,-50.9844 290.564,-41.7163"/>
<polygon fill="#9a32cd" stroke="#9a32cd" points="256.539,-51.0012 251.436,-41.7163 249.635,-52.157 256.539,-51.0012"/>
<text text-anchor="middle" x="271" y="-62" font-family="FreeSans" font-size="10.00"> zero</text>
</g>
<!-- Node5 -->
<g id="node5" class="node"><title>Node5</title>
<polygon fill="white" stroke="#bfbfbf" points="26,-11.5 26,-30.5 94,-30.5 94,-11.5 26,-11.5"/>
<text text-anchor="middle" x="60" y="-18.5" font-family="FreeSans" font-size="10.00">TContainer</text>
</g>
<!-- Node5&#45;&gt;Node4 -->
<g id="edge5" class="edge"><title>Node5&#45;&gt;Node4</title>
<path fill="none" stroke="#9a32cd" stroke-dasharray="5,2" d="M104.258,-21C134.234,-21 174.6,-21 207.99,-21"/>
<polygon fill="#9a32cd" stroke="#9a32cd" points="104.117,-17.5001 94.1167,-21 104.117,-24.5001 104.117,-17.5001"/>
<text text-anchor="middle" x="160" y="-24" font-family="FreeSans" font-size="10.00"> myArray</text>
</g>
</g>
</svg>
        <g id="navigator" transform="translate(0 0)" fill="#404254">
                <rect fill="#f2f5e9" fill-opacity="0.5" stroke="#606060" stroke-width=".5" x="0" y="0" width="60" height="60"/>
                <use id="zoomplus" xlink:href="#zoomPlus" x="17" y="9" onmousedown="handleZoom(evt,'in')"/>
                <use id="zoomminus" xlink:href="#zoomMin" x="42" y="9" onmousedown="handleZoom(evt,'out')"/>
                <use id="reset" xlink:href="#resetDef" x="30" y="36" onmousedown="handleReset()"/>
                <g id="arrowUp" xlink:href="#dirArrow" transform="translate(30 24)" onmousedown="handlePan(0,-1)">
                  <use xlink:href="#rim" fill="#404040">
                        <set attributeName="fill" to="#808080" begin="arrowUp.mouseover" end="arrowUp.mouseout"/>
                  </use>
                  <path fill="none" stroke="white" stroke-width="1.5" d="M0,-3.0v7 M-2.5,-0.5L0,-3.0L2.5,-0.5"/>
                </g>
                <g id="arrowRight" xlink:href="#dirArrow" transform="rotate(90) translate(36 -43)" onmousedown="handlePan(1,0)">
                  <use xlink:href="#rim" fill="#404040">
                        <set attributeName="fill" to="#808080" begin="arrowRight.mouseover" end="arrowRight.mouseout"/>
                  </use>
                  <path fill="none" stroke="white" stroke-width="1.5" d="M0,-3.0v7 M-2.5,-0.5L0,-3.0L2.5,-0.5"/>
                </g>
                <g id="arrowDown" xlink:href="#dirArrow" transform="rotate(180) translate(-30 -48)" onmousedown="handlePan(0,1)">
                  <use xlink:href="#rim" fill="#404040">
                        <set attributeName="fill" to="#808080" begin="arrowDown.mouseover" end="arrowDown.mouseout"/>
                  </use>
                  <path fill="none" stroke="white" stroke-width="1.5" d="M0,-3.0v7 M-2.5,-0.5L0,-3.0L2.5,-0.5"/>
                </g>
                <g id="arrowLeft" xlink:href="#dirArrow" transform="rotate(270) translate(-36 17)" onmousedown="handlePan(-1,0)">
                  <use xlink:href="#rim" fill="#404040">
                        <set attributeName="fill" to="#808080" begin="arrowLeft.mouseover" end="arrowLeft.mouseout"/>
                  </use>
                  <path fill="none" stroke="white" stroke-width="1.5" d="M0,-3.0v7 M-2.5,-0.5L0,-3.0L2.5,-0.5"/>
                </g>
        </g>
        <svg viewBox="0 0 15 15" width="100%" height="30px" preserveAspectRatio="xMaxYMin meet">
         <g id="arrow_out" transform="scale(0.3 0.3)">
          <a xlink:href="structDGtal_1_1Display3D_1_1QuadD3D__coll__graph_org.svg" target="_base">
           <rect id="button" ry="5" rx="5" y="6" x="6" height="38" width="38"
                fill="#f2f5e9" fill-opacity="0.5" stroke="#606060" stroke-width="1.0"/>
           <path id="arrow"
             d="M 11.500037,31.436501 C 11.940474,20.09759 22.043105,11.32322 32.158766,21.979434 L 37.068811,17.246167 C 37.068811,17.246167 37.088388,32 37.088388,32 L 22.160133,31.978069 C 22.160133,31.978069 26.997745,27.140456 26.997745,27.140456 C 18.528582,18.264221 13.291696,25.230495 11.500037,31.436501 z"
             style="fill:#404040;"/>
          </a>
         </g>
        </svg>
</svg>
