<?xml version="1.0" encoding="UTF-8" standalone="no"?>
<!DOCTYPE svg PUBLIC "-//W3C//DTD SVG 1.1//EN"
 "http://www.w3.org/Graphics/SVG/1.1/DTD/svg11.dtd">
<!-- Generated by graphviz version 2.36.0 (20140111.2315)
 -->
<!-- Title: DGtal::concepts::CIntegralNumber&lt; T &gt; Pages: 1 -->
<svg width="790pt" height="104pt"
 viewBox="0.00 0.00 790.00 104.00" xmlns="http://www.w3.org/2000/svg" xmlns:xlink="http://www.w3.org/1999/xlink">
<g id="graph0" class="graph" transform="scale(1 1) rotate(0) translate(4 100)">
<title>DGtal::concepts::CIntegralNumber&lt; T &gt;</title>
<polygon fill="white" stroke="none" points="-4,4 -4,-100 786,-100 786,4 -4,4"/>
<!-- Node1 -->
<g id="node1" class="node"><title>Node1</title>
<polygon fill="#bfbfbf" stroke="black" points="640,-14 640,-44 782,-44 782,-14 640,-14"/>
<text text-anchor="start" x="648" y="-32" font-family="FreeSans" font-size="10.00">DGtal::concepts::CIntegral</text>
<text text-anchor="middle" x="711" y="-21" font-family="FreeSans" font-size="10.00">Number&lt; T &gt;</text>
</g>
<!-- Node2 -->
<g id="node2" class="node"><title>Node2</title>
<g id="a_node2"><a xlink:href="structDGtal_1_1concepts_1_1CQuantity.html" target="_top" xlink:title="Aim: defines the concept of quantity in DGtal. ">
<polygon fill="white" stroke="black" points="430,-19.5 430,-38.5 604,-38.5 604,-19.5 430,-19.5"/>
<text text-anchor="middle" x="517" y="-26.5" font-family="FreeSans" font-size="10.00">DGtal::concepts::CQuantity&lt; T &gt;</text>
</a>
</g>
</g>
<!-- Node2&#45;&gt;Node1 -->
<g id="edge1" class="edge"><title>Node2&#45;&gt;Node1</title>
<path fill="none" stroke="midnightblue" d="M614.297,-29C622.936,-29 631.571,-29 639.924,-29"/>
<polygon fill="midnightblue" stroke="midnightblue" points="614.172,-25.5001 604.172,-29 614.172,-32.5001 614.172,-25.5001"/>
</g>
<!-- Node3 -->
<g id="node3" class="node"><title>Node3</title>
<g id="a_node3"><a xlink:href="structDGtal_1_1concepts_1_1CLabel.html" target="_top" xlink:title="Aim: Define the concept of DGtal labels. Models of CLabel can be default&#45;constructible, assignable and equality comparable. ">
<polygon fill="white" stroke="black" points="223.5,-38.5 223.5,-57.5 382.5,-57.5 382.5,-38.5 223.5,-38.5"/>
<text text-anchor="middle" x="303" y="-45.5" font-family="FreeSans" font-size="10.00">DGtal::concepts::CLabel&lt; T &gt;</text>
</a>
</g>
</g>
<!-- Node3&#45;&gt;Node2 -->
<g id="edge2" class="edge"><title>Node3&#45;&gt;Node2</title>
<path fill="none" stroke="midnightblue" d="M392.796,-40.0419C404.991,-38.9489 417.498,-37.828 429.648,-36.7391"/>
<polygon fill="midnightblue" stroke="midnightblue" points="392.287,-36.5733 382.64,-40.9521 392.912,-43.5454 392.287,-36.5733"/>
</g>
<!-- Node4 -->
<g id="node4" class="node"><title>Node4</title>
<g id="a_node4"><a xlink:href="structboost_1_1DefaultConstructible.html" target="_top" xlink:title="Go to http://www.sgi.com/tech/stl/DefaultConstructible.html. ">
<polygon fill="white" stroke="black" points="0.5,-76.5 0.5,-95.5 175.5,-95.5 175.5,-76.5 0.5,-76.5"/>
<text text-anchor="middle" x="88" y="-83.5" font-family="FreeSans" font-size="10.00">boost::DefaultConstructible&lt; T &gt;</text>
</a>
</g>
</g>
<!-- Node4&#45;&gt;Node3 -->
<g id="edge3" class="edge"><title>Node4&#45;&gt;Node3</title>
<path fill="none" stroke="midnightblue" d="M152.603,-74.653C183.163,-69.2009 219.382,-62.7393 248.504,-57.5439"/>
<polygon fill="midnightblue" stroke="midnightblue" points="151.704,-71.2581 142.474,-76.46 152.933,-78.1493 151.704,-71.2581"/>
</g>
<!-- Node5 -->
<g id="node5" class="node"><title>Node5</title>
<g id="a_node5"><a xlink:href="structboost_1_1Assignable.html" target="_top" xlink:title="Go to http://www.sgi.com/tech/stl/Assignable.html. ">
<polygon fill="white" stroke="black" points="23.5,-38.5 23.5,-57.5 152.5,-57.5 152.5,-38.5 23.5,-38.5"/>
<text text-anchor="middle" x="88" y="-45.5" font-family="FreeSans" font-size="10.00">boost::Assignable&lt; T &gt;</text>
</a>
</g>
</g>
<!-- Node5&#45;&gt;Node3 -->
<g id="edge4" class="edge"><title>Node5&#45;&gt;Node3</title>
<path fill="none" stroke="midnightblue" d="M162.68,-48C182.237,-48 203.43,-48 223.245,-48"/>
<polygon fill="midnightblue" stroke="midnightblue" points="162.619,-44.5001 152.619,-48 162.618,-51.5001 162.619,-44.5001"/>
</g>
<!-- Node6 -->
<g id="node6" class="node"><title>Node6</title>
<g id="a_node6"><a xlink:href="structboost_1_1EqualityComparable.html" target="_top" xlink:title="Go to http://www.sgi.com/tech/stl/EqualityComparable.html. ">
<polygon fill="white" stroke="black" points="1.5,-0.5 1.5,-19.5 174.5,-19.5 174.5,-0.5 1.5,-0.5"/>
<text text-anchor="middle" x="88" y="-7.5" font-family="FreeSans" font-size="10.00">boost::EqualityComparable&lt; T &gt;</text>
</a>
</g>
</g>
<!-- Node6&#45;&gt;Node3 -->
<g id="edge5" class="edge"><title>Node6&#45;&gt;Node3</title>
<path fill="none" stroke="midnightblue" d="M152.603,-21.347C183.163,-26.7991 219.382,-33.2607 248.504,-38.4561"/>
<polygon fill="midnightblue" stroke="midnightblue" points="152.933,-17.8507 142.474,-19.54 151.704,-24.7419 152.933,-17.8507"/>
</g>
<!-- Node7 -->
<g id="node7" class="node"><title>Node7</title>
<g id="a_node7"><a xlink:href="structboost_1_1LessThanComparable.html" target="_top" xlink:title="Go to http://www.sgi.com/tech/stl/LessThanComparable.html. ">
<polygon fill="white" stroke="black" points="212.5,-0.5 212.5,-19.5 393.5,-19.5 393.5,-0.5 212.5,-0.5"/>
<text text-anchor="middle" x="303" y="-7.5" font-family="FreeSans" font-size="10.00">boost::LessThanComparable&lt; T &gt;</text>
</a>
</g>
</g>
<!-- Node7&#45;&gt;Node2 -->
<g id="edge6" class="edge"><title>Node7&#45;&gt;Node2</title>
<path fill="none" stroke="midnightblue" d="M403.761,-18.9408C412.45,-19.7196 421.196,-20.5034 429.763,-21.2712"/>
<polygon fill="midnightblue" stroke="midnightblue" points="403.872,-15.4369 393.6,-18.0302 403.247,-22.4089 403.872,-15.4369"/>
</g>
</g>
</svg>
