<?xml version="1.0" encoding="UTF-8" standalone="no"?>
<!DOCTYPE svg PUBLIC "-//W3C//DTD SVG 1.1//EN"
 "http://www.w3.org/Graphics/SVG/1.1/DTD/svg11.dtd">
<!-- Generated by graphviz version 2.36.0 (20140111.2315)
 -->
<!-- Title: DGtal::concepts::CSinglePassRangeFromPoint&lt; T &gt; Pages: 1 -->
<svg width="652pt" height="162pt"
 viewBox="0.00 0.00 652.00 161.67" xmlns="http://www.w3.org/2000/svg" xmlns:xlink="http://www.w3.org/1999/xlink">
<g id="graph0" class="graph" transform="scale(1 1) rotate(0) translate(4 157.668)">
<title>DGtal::concepts::CSinglePassRangeFromPoint&lt; T &gt;</title>
<polygon fill="white" stroke="none" points="-4,4 -4,-157.668 648,-157.668 648,4 -4,4"/>
<!-- Node1 -->
<g id="node1" class="node"><title>Node1</title>
<polygon fill="#bfbfbf" stroke="black" points="500,-87.6678 500,-117.668 644,-117.668 644,-87.6678 500,-87.6678"/>
<text text-anchor="start" x="508" y="-105.668" font-family="FreeSans" font-size="10.00">DGtal::concepts::CSingle</text>
<text text-anchor="middle" x="572" y="-94.6678" font-family="FreeSans" font-size="10.00">PassRangeFromPoint&lt; T &gt;</text>
</g>
<!-- Node2 -->
<g id="node2" class="node"><title>Node2</title>
<g id="a_node2"><a xlink:href="structDGtal_1_1concepts_1_1CSinglePassRange.html" target="_top" xlink:title="Aim: Defines the concept describing a range. ">
<polygon fill="white" stroke="black" points="312.5,-87.6678 312.5,-117.668 447.5,-117.668 447.5,-87.6678 312.5,-87.6678"/>
<text text-anchor="start" x="320.5" y="-105.668" font-family="FreeSans" font-size="10.00">DGtal::concepts::CSingle</text>
<text text-anchor="middle" x="380" y="-94.6678" font-family="FreeSans" font-size="10.00">PassRange&lt; T &gt;</text>
</a>
</g>
</g>
<!-- Node2&#45;&gt;Node1 -->
<g id="edge1" class="edge"><title>Node2&#45;&gt;Node1</title>
<path fill="none" stroke="midnightblue" d="M457.751,-102.668C471.684,-102.668 486.162,-102.668 499.923,-102.668"/>
<polygon fill="midnightblue" stroke="midnightblue" points="457.72,-99.1679 447.72,-102.668 457.72,-106.168 457.72,-99.1679"/>
</g>
<!-- Node3 -->
<g id="node3" class="node"><title>Node3</title>
<g id="a_node3"><a xlink:href="structDGtal_1_1concepts_1_1CConstSinglePassRange.html" target="_top" xlink:title="Aim: Defines the concept describing a const single pass range. ">
<polygon fill="white" stroke="black" points="72.5,-40.6678 72.5,-70.6678 235.5,-70.6678 235.5,-40.6678 72.5,-40.6678"/>
<text text-anchor="start" x="80.5" y="-58.6678" font-family="FreeSans" font-size="10.00">DGtal::concepts::CConstSingle</text>
<text text-anchor="middle" x="154" y="-47.6678" font-family="FreeSans" font-size="10.00">PassRange&lt; T &gt;</text>
</a>
</g>
</g>
<!-- Node3&#45;&gt;Node2 -->
<g id="edge2" class="edge"><title>Node3&#45;&gt;Node2</title>
<path fill="none" stroke="midnightblue" d="M236.311,-72.7287C261.297,-77.9712 288.49,-83.677 312.372,-88.6878"/>
<polygon fill="midnightblue" stroke="midnightblue" points="236.997,-69.2963 226.491,-70.6681 235.559,-76.1471 236.997,-69.2963"/>
</g>
<!-- Node5 -->
<g id="node5" class="node"><title>Node5</title>
<g id="a_node5"><a xlink:href="structDGtal_1_1concepts_1_1CConstSinglePassRangeFromPoint.html" target="_top" xlink:title="Aim: refined concept of const single pass range with a begin() method from a point. ">
<polygon fill="white" stroke="black" points="298.5,-38.6678 298.5,-68.6678 461.5,-68.6678 461.5,-38.6678 298.5,-38.6678"/>
<text text-anchor="start" x="306.5" y="-56.6678" font-family="FreeSans" font-size="10.00">DGtal::concepts::CConstSingle</text>
<text text-anchor="middle" x="380" y="-45.6678" font-family="FreeSans" font-size="10.00">PassRangeFromPoint&lt; T &gt;</text>
</a>
</g>
</g>
<!-- Node3&#45;&gt;Node5 -->
<g id="edge6" class="edge"><title>Node3&#45;&gt;Node5</title>
<path fill="none" stroke="midnightblue" d="M245.725,-54.8578C263.164,-54.7021 281.318,-54.54 298.41,-54.3874"/>
<polygon fill="midnightblue" stroke="midnightblue" points="245.521,-51.3594 235.553,-54.9486 245.584,-58.3591 245.521,-51.3594"/>
</g>
<!-- Node4 -->
<g id="node4" class="node"><title>Node4</title>
<polygon fill="white" stroke="#bfbfbf" points="0.5,-78.1678 0.5,-97.1678 29.5,-97.1678 29.5,-78.1678 0.5,-78.1678"/>
<text text-anchor="middle" x="15" y="-85.1678" font-family="FreeSans" font-size="10.00">T</text>
</g>
<!-- Node4&#45;&gt;Node1 -->
<g id="edge8" class="edge"><title>Node4&#45;&gt;Node1</title>
<path fill="none" stroke="#9a32cd" stroke-dasharray="5,2" d="M36.9297,-103.065C46.9806,-109.425 59.5321,-115.944 72,-118.668 241.375,-155.671 289.647,-145.418 462,-126.668 478.952,-124.824 497.129,-121.411 513.686,-117.727"/>
<polygon fill="#9a32cd" stroke="#9a32cd" points="38.728,-100.056 28.4765,-97.3812 34.8223,-105.865 38.728,-100.056"/>
<text text-anchor="middle" x="267" y="-145.668" font-family="FreeSans" font-size="10.00"> myX</text>
</g>
<!-- Node4&#45;&gt;Node2 -->
<g id="edge4" class="edge"><title>Node4&#45;&gt;Node2</title>
<path fill="none" stroke="#9a32cd" stroke-dasharray="5,2" d="M39.5406,-92.5181C42.3812,-92.974 45.2495,-93.3744 48,-93.6678 139.174,-103.393 245.227,-104.493 312.225,-103.941"/>
<polygon fill="#9a32cd" stroke="#9a32cd" points="40.098,-89.0621 29.6331,-90.716 38.8453,-95.9491 40.098,-89.0621"/>
<text text-anchor="middle" x="154" y="-106.668" font-family="FreeSans" font-size="10.00"> i</text>
</g>
<!-- Node4&#45;&gt;Node3 -->
<g id="edge3" class="edge"><title>Node4&#45;&gt;Node3</title>
<path fill="none" stroke="#9a32cd" stroke-dasharray="5,2" d="M39.5935,-82.1569C53.2584,-78.9651 71.1857,-74.7778 88.7402,-70.6774"/>
<polygon fill="#9a32cd" stroke="#9a32cd" points="38.5787,-78.7997 29.6369,-84.4826 40.171,-85.6162 38.5787,-78.7997"/>
<text text-anchor="middle" x="51" y="-83.6678" font-family="FreeSans" font-size="10.00"> i</text>
</g>
<!-- Node4&#45;&gt;Node5 -->
<g id="edge7" class="edge"><title>Node4&#45;&gt;Node5</title>
<path fill="none" stroke="#9a32cd" stroke-dasharray="5,2" d="M25.4364,-68.6819C34.7555,-52.2946 50.6963,-29.7216 72,-19.6678 163.171,23.3582 286.002,-15.1467 344.823,-38.6382"/>
<polygon fill="#9a32cd" stroke="#9a32cd" points="22.1267,-67.4493 20.501,-77.9187 28.3007,-70.7483 22.1267,-67.4493"/>
<text text-anchor="middle" x="154" y="-22.6678" font-family="FreeSans" font-size="10.00"> myX</text>
</g>
<!-- Node5&#45;&gt;Node1 -->
<g id="edge5" class="edge"><title>Node5&#45;&gt;Node1</title>
<path fill="none" stroke="midnightblue" d="M449.05,-71.2176C469.915,-76.5984 492.67,-82.4669 512.813,-87.6616"/>
<polygon fill="midnightblue" stroke="midnightblue" points="449.855,-67.8107 439.297,-68.7024 448.107,-74.5889 449.855,-67.8107"/>
</g>
</g>
</svg>
