<?xml version="1.0" encoding="UTF-8" standalone="no"?>
<!DOCTYPE svg PUBLIC "-//W3C//DTD SVG 1.1//EN"
 "http://www.w3.org/Graphics/SVG/1.1/DTD/svg11.dtd">
<!-- Generated by graphviz version 2.36.0 (20140111.2315)
 -->
<!-- Title: DGtal::functors::PredicateCombiner&lt; TPredicate1, TPredicate2, TBinaryFunctor &gt; Pages: 1 -->
<svg width="238pt" height="130pt"
 viewBox="0.00 0.00 238.00 130.00" xmlns="http://www.w3.org/2000/svg" xmlns:xlink="http://www.w3.org/1999/xlink">
<g id="graph0" class="graph" transform="scale(1 1) rotate(0) translate(4 126)">
<title>DGtal::functors::PredicateCombiner&lt; TPredicate1, TPredicate2, TBinaryFunctor &gt;</title>
<polygon fill="white" stroke="none" points="-4,4 -4,-126 234,-126 234,4 -4,4"/>
<!-- Node1 -->
<g id="node1" class="node"><title>Node1</title>
<polygon fill="#bfbfbf" stroke="black" points="14,-80.5 14,-121.5 178,-121.5 178,-80.5 14,-80.5"/>
<text text-anchor="start" x="22" y="-109.5" font-family="FreeSans" font-size="10.00">DGtal::functors::Predicate</text>
<text text-anchor="start" x="22" y="-98.5" font-family="FreeSans" font-size="10.00">Combiner&lt; TPredicate1,</text>
<text text-anchor="middle" x="96" y="-87.5" font-family="FreeSans" font-size="10.00"> TPredicate2, TBinaryFunctor &gt;</text>
</g>
<!-- Node2 -->
<g id="node2" class="node"><title>Node2</title>
<g id="a_node2"><a xlink:href="structDGtal_1_1functors_1_1PredicateCombiner.html" target="_top" xlink:title="DGtal::functors::Predicate\lCombiner\&lt; Tlow, Tup, AndBoolFct2 \&gt;">
<polygon fill="white" stroke="black" points="-1,-1 -1,-31 193,-31 193,-1 -1,-1"/>
<text text-anchor="start" x="7" y="-19" font-family="FreeSans" font-size="10.00">DGtal::functors::Predicate</text>
<text text-anchor="middle" x="96" y="-8" font-family="FreeSans" font-size="10.00">Combiner&lt; Tlow, Tup, AndBoolFct2 &gt;</text>
</a>
</g>
</g>
<!-- Node1&#45;&gt;Node2 -->
<g id="edge1" class="edge"><title>Node1&#45;&gt;Node2</title>
<path fill="none" stroke="orange" stroke-dasharray="5,2" d="M96,-70.1369C96,-56.8157 96,-41.7541 96,-31.0769"/>
<polygon fill="orange" stroke="orange" points="92.5001,-70.3301 96,-80.3302 99.5001,-70.3302 92.5001,-70.3301"/>
<text text-anchor="middle" x="163" y="-53.5" font-family="FreeSans" font-size="10.00"> &lt; Tlow, Tup, AndBoolFct2 &gt;</text>
</g>
</g>
</svg>
