<?xml version="1.0" encoding="UTF-8" standalone="no"?>
<!DOCTYPE svg PUBLIC "-//W3C//DTD SVG 1.1//EN"
 "http://www.w3.org/Graphics/SVG/1.1/DTD/svg11.dtd">
<!-- Generated by graphviz version 2.36.0 (20140111.2315)
 -->
<!-- Title: DGtal::concepts::CMatrix&lt; T &gt; Pages: 1 -->
<svg width="235pt" height="166pt"
 viewBox="0.00 0.00 235.00 166.00" xmlns="http://www.w3.org/2000/svg" xmlns:xlink="http://www.w3.org/1999/xlink">
<g id="graph0" class="graph" transform="scale(1 1) rotate(0) translate(4 162)">
<title>DGtal::concepts::CMatrix&lt; T &gt;</title>
<polygon fill="white" stroke="none" points="-4,4 -4,-162 231,-162 231,4 -4,4"/>
<!-- Node1 -->
<g id="node1" class="node"><title>Node1</title>
<polygon fill="#bfbfbf" stroke="black" points="64.5,-0.5 64.5,-19.5 227.5,-19.5 227.5,-0.5 64.5,-0.5"/>
<text text-anchor="middle" x="146" y="-7.5" font-family="FreeSans" font-size="10.00">DGtal::concepts::CMatrix&lt; T &gt;</text>
</g>
<!-- Node2 -->
<g id="node2" class="node"><title>Node2</title>
<g id="a_node2"><a xlink:href="structDGtal_1_1concepts_1_1CVectorSpace.html" target="_top" xlink:title="Aim: Base concept for vector space structure. ">
<polygon fill="white" stroke="black" points="-0.5,-59 -0.5,-89 136.5,-89 136.5,-59 -0.5,-59"/>
<text text-anchor="start" x="7.5" y="-77" font-family="FreeSans" font-size="10.00">DGtal::concepts::CVector</text>
<text text-anchor="middle" x="68" y="-66" font-family="FreeSans" font-size="10.00">Space&lt; T &gt;</text>
</a>
</g>
</g>
<!-- Node2&#45;&gt;Node1 -->
<g id="edge1" class="edge"><title>Node2&#45;&gt;Node1</title>
<path fill="none" stroke="midnightblue" d="M93.5647,-52.6793C107.548,-41.5647 124.156,-28.3634 134.876,-19.8419"/>
<polygon fill="midnightblue" stroke="midnightblue" points="91.3498,-49.9689 85.6994,-58.9312 95.7055,-55.4487 91.3498,-49.9689"/>
</g>
<!-- Node3 -->
<g id="node3" class="node"><title>Node3</title>
<g id="a_node3"><a xlink:href="structboost_1_1Assignable.html" target="_top" xlink:title="Go to http://www.sgi.com/tech/stl/Assignable.html. ">
<polygon fill="white" stroke="black" points="3.5,-138.5 3.5,-157.5 132.5,-157.5 132.5,-138.5 3.5,-138.5"/>
<text text-anchor="middle" x="68" y="-145.5" font-family="FreeSans" font-size="10.00">boost::Assignable&lt; T &gt;</text>
</a>
</g>
</g>
<!-- Node3&#45;&gt;Node2 -->
<g id="edge2" class="edge"><title>Node3&#45;&gt;Node2</title>
<path fill="none" stroke="midnightblue" d="M68,-128.085C68,-115.915 68,-100.354 68,-89.2316"/>
<polygon fill="midnightblue" stroke="midnightblue" points="64.5001,-128.458 68,-138.458 71.5001,-128.458 64.5001,-128.458"/>
</g>
<!-- Node4 -->
<g id="node4" class="node"><title>Node4</title>
<polygon fill="white" stroke="#bfbfbf" points="154.5,-138.5 154.5,-157.5 183.5,-157.5 183.5,-138.5 154.5,-138.5"/>
<text text-anchor="middle" x="169" y="-145.5" font-family="FreeSans" font-size="10.00">T</text>
</g>
<!-- Node4&#45;&gt;Node1 -->
<g id="edge4" class="edge"><title>Node4&#45;&gt;Node1</title>
<path fill="none" stroke="#9a32cd" stroke-dasharray="5,2" d="M165.882,-128.565C160.842,-98.7634 151.1,-41.1576 147.438,-19.5042"/>
<polygon fill="#9a32cd" stroke="#9a32cd" points="162.443,-129.216 167.561,-138.493 169.345,-128.049 162.443,-129.216"/>
<text text-anchor="middle" x="164.5" y="-71.5" font-family="FreeSans" font-size="10.00"> z</text>
</g>
<!-- Node4&#45;&gt;Node2 -->
<g id="edge3" class="edge"><title>Node4&#45;&gt;Node2</title>
<path fill="none" stroke="#9a32cd" stroke-dasharray="5,2" d="M148.563,-132.431C130.891,-119.833 105.496,-101.73 87.9638,-89.2316"/>
<polygon fill="#9a32cd" stroke="#9a32cd" points="146.843,-135.503 157.017,-138.458 150.906,-129.803 146.843,-135.503"/>
<text text-anchor="middle" x="135.5" y="-111.5" font-family="FreeSans" font-size="10.00"> z</text>
</g>
</g>
</svg>
