<?xml version="1.0" encoding="UTF-8" standalone="no"?>
<!DOCTYPE svg PUBLIC "-//W3C//DTD SVG 1.1//EN"
 "http://www.w3.org/Graphics/SVG/1.1/DTD/svg11.dtd">
<!-- Generated by graphviz version 2.40.1 (20161225.0304)
 -->
<!-- Title: LibBoard::Arc Pages: 1 -->
<svg width="362pt" height="436pt"
 viewBox="0.00 0.00 361.97 436.00" xmlns="http://www.w3.org/2000/svg" xmlns:xlink="http://www.w3.org/1999/xlink">
<g id="graph0" class="graph" transform="scale(1 1) rotate(0) translate(4 432)">
<title>LibBoard::Arc</title>
<polygon fill="#ffffff" stroke="transparent" points="-4,4 -4,-432 357.9653,-432 357.9653,4 -4,4"/>
<!-- Node4 -->
<g id="node1" class="node">
<title>Node4</title>
<polygon fill="#bfbfbf" stroke="#000000" points="0,-.5 0,-18.5 76.5859,-18.5 76.5859,-.5 0,-.5"/>
<text text-anchor="middle" x="38.293" y="-6.5" font-family="FreeSans" font-size="10.00" fill="#000000">LibBoard::Arc</text>
</g>
<!-- Node5 -->
<g id="node2" class="node">
<title>Node5</title>
<g id="a_node2"><a xlink:href="structLibBoard_1_1Circle.html" target="_top" xlink:title="A circle. ">
<polygon fill="#ffffff" stroke="#000000" points="54.7217,-56.5 54.7217,-74.5 141.8643,-74.5 141.8643,-56.5 54.7217,-56.5"/>
<text text-anchor="middle" x="98.293" y="-62.5" font-family="FreeSans" font-size="10.00" fill="#000000">LibBoard::Circle</text>
</a>
</g>
</g>
<!-- Node5&#45;&gt;Node4 -->
<g id="edge1" class="edge">
<title>Node5&#45;&gt;Node4</title>
<path fill="none" stroke="#191970" d="M80.833,-49.204C70.145,-39.2286 56.8674,-26.8361 48.0164,-18.5752"/>
<polygon fill="#191970" stroke="#191970" points="78.6865,-51.9882 88.3852,-56.2527 83.4627,-46.8708 78.6865,-51.9882"/>
</g>
<!-- Node6 -->
<g id="node3" class="node">
<title>Node6</title>
<g id="a_node3"><a xlink:href="structLibBoard_1_1Ellipse.html" target="_top" xlink:title="An ellipse. ">
<polygon fill="#ffffff" stroke="#000000" points="141.771,-112.5 141.771,-130.5 232.8149,-130.5 232.8149,-112.5 141.771,-112.5"/>
<text text-anchor="middle" x="187.293" y="-118.5" font-family="FreeSans" font-size="10.00" fill="#000000">LibBoard::Ellipse</text>
</a>
</g>
</g>
<!-- Node6&#45;&gt;Node5 -->
<g id="edge2" class="edge">
<title>Node6&#45;&gt;Node5</title>
<path fill="none" stroke="#191970" d="M163.6965,-106.6528C147.4868,-96.4534 126.4886,-83.2411 112.716,-74.5752"/>
<polygon fill="#191970" stroke="#191970" points="162.2685,-109.8895 172.5964,-112.2527 165.9965,-103.9647 162.2685,-109.8895"/>
</g>
<!-- Node7 -->
<g id="node4" class="node">
<title>Node7</title>
<g id="a_node4"><a xlink:href="structLibBoard_1_1Shape.html" target="_top" xlink:title="Abstract structure for a 2D shape. ">
<polygon fill="#ffffff" stroke="#000000" points="186.042,-177.5 186.042,-195.5 276.5439,-195.5 276.5439,-177.5 186.042,-177.5"/>
<text text-anchor="middle" x="231.293" y="-183.5" font-family="FreeSans" font-size="10.00" fill="#000000">LibBoard::Shape</text>
</a>
</g>
</g>
<!-- Node7&#45;&gt;Node6 -->
<g id="edge3" class="edge">
<title>Node7&#45;&gt;Node6</title>
<path fill="none" stroke="#191970" d="M219.4158,-168.9542C211.1177,-156.6956 200.3623,-140.807 193.644,-130.8821"/>
<polygon fill="#191970" stroke="#191970" points="216.6709,-171.1429 225.175,-177.462 222.4676,-167.2189 216.6709,-171.1429"/>
</g>
<!-- Node8 -->
<g id="node5" class="node">
<title>Node8</title>
<g id="a_node5"><a xlink:title="STL class. ">
<polygon fill="#ffffff" stroke="#bfbfbf" points="81.6182,-298 81.6182,-316 140.9678,-316 140.9678,-298 81.6182,-298"/>
<text text-anchor="middle" x="111.293" y="-304" font-family="FreeSans" font-size="10.00" fill="#000000">std::string</text>
</a>
</g>
</g>
<!-- Node8&#45;&gt;Node4 -->
<g id="edge11" class="edge">
<title>Node8&#45;&gt;Node4</title>
<path fill="none" stroke="#9a32cd" stroke-dasharray="5,2" d="M90.8455,-291.6481C65.695,-270.8406 26.293,-231.122 26.293,-186.5 26.293,-186.5 26.293,-186.5 26.293,-65.5 26.293,-48.7959 31.4609,-29.8987 35.0139,-18.8808"/>
<polygon fill="#9a32cd" stroke="#9a32cd" points="88.7522,-294.4555 98.7509,-297.9593 93.1196,-288.985 88.7522,-294.4555"/>
<text text-anchor="middle" x="42.9702" y="-118.5" font-family="FreeSans" font-size="10.00" fill="#000000"> _name</text>
</g>
<!-- Node8&#45;&gt;Node5 -->
<g id="edge10" class="edge">
<title>Node8&#45;&gt;Node5</title>
<path fill="none" stroke="#9a32cd" stroke-dasharray="5,2" d="M110.2491,-287.6081C107.6006,-238.4065 100.6945,-110.1123 98.7872,-74.6813"/>
<polygon fill="#9a32cd" stroke="#9a32cd" points="106.7667,-288.0304 110.7992,-297.8278 113.7566,-287.6541 106.7667,-288.0304"/>
<text text-anchor="middle" x="120.9702" y="-151" font-family="FreeSans" font-size="10.00" fill="#000000"> _name</text>
</g>
<!-- Node8&#45;&gt;Node6 -->
<g id="edge9" class="edge">
<title>Node8&#45;&gt;Node6</title>
<path fill="none" stroke="#9a32cd" stroke-dasharray="5,2" d="M113.5985,-287.6113C117.2726,-261.4217 125.9591,-213.788 143.9385,-177 152.7432,-158.9845 168.0595,-141.2742 177.9311,-130.8715"/>
<polygon fill="#9a32cd" stroke="#9a32cd" points="110.1022,-287.3566 112.2827,-297.7246 117.0437,-288.2598 110.1022,-287.3566"/>
<text text-anchor="middle" x="160.9702" y="-183.5" font-family="FreeSans" font-size="10.00" fill="#000000"> _name</text>
</g>
<!-- Node8&#45;&gt;Node7 -->
<g id="edge4" class="edge">
<title>Node8&#45;&gt;Node7</title>
<path fill="none" stroke="#9a32cd" stroke-dasharray="5,2" d="M124.548,-290.0362C140.1184,-270.6195 167.2283,-238.3615 193.9385,-214 201.3164,-207.2708 210.311,-200.6085 217.6252,-195.5271"/>
<polygon fill="#9a32cd" stroke="#9a32cd" points="121.7202,-287.9693 118.2489,-297.9793 127.2049,-292.3188 121.7202,-287.9693"/>
<text text-anchor="middle" x="210.9702" y="-221" font-family="FreeSans" font-size="10.00" fill="#000000"> _name</text>
</g>
<!-- Node9 -->
<g id="node6" class="node">
<title>Node9</title>
<g id="a_node6"><a xlink:title="STL class. ">
<polygon fill="#ffffff" stroke="#bfbfbf" points="64.2451,-399.5 64.2451,-427.5 158.3408,-427.5 158.3408,-399.5 64.2451,-399.5"/>
<text text-anchor="start" x="72.2451" y="-415.5" font-family="FreeSans" font-size="10.00" fill="#000000">std::basic_string&lt;</text>
<text text-anchor="middle" x="111.293" y="-405.5" font-family="FreeSans" font-size="10.00" fill="#000000"> char &gt;</text>
</a>
</g>
</g>
<!-- Node9&#45;&gt;Node8 -->
<g id="edge5" class="edge">
<title>Node9&#45;&gt;Node8</title>
<path fill="none" stroke="#191970" d="M111.293,-389.002C111.293,-365.787 111.293,-332.1588 111.293,-316.1435"/>
<polygon fill="#191970" stroke="#191970" points="107.7931,-389.1369 111.293,-399.1369 114.7931,-389.137 107.7931,-389.1369"/>
</g>
<!-- Node10 -->
<g id="node7" class="node">
<title>Node10</title>
<g id="a_node7"><a xlink:href="classDGtal_1_1Color.html" target="_top" xlink:title="Structure representing an RGB triple with alpha component. ">
<polygon fill="#ffffff" stroke="#000000" points="195.7856,-298 195.7856,-316 266.8003,-316 266.8003,-298 195.7856,-298"/>
<text text-anchor="middle" x="231.293" y="-304" font-family="FreeSans" font-size="10.00" fill="#000000">DGtal::Color</text>
</a>
</g>
</g>
<!-- Node10&#45;&gt;Node7 -->
<g id="edge6" class="edge">
<title>Node10&#45;&gt;Node7</title>
<path fill="none" stroke="#9a32cd" stroke-dasharray="5,2" d="M231.293,-287.7038C231.293,-261.368 231.293,-215.2106 231.293,-195.6622"/>
<polygon fill="#9a32cd" stroke="#9a32cd" points="227.7931,-287.9429 231.293,-297.9429 234.7931,-287.9429 227.7931,-287.9429"/>
<text text-anchor="middle" x="255.7534" y="-226" font-family="FreeSans" font-size="10.00" fill="#000000"> _penColor</text>
<text text-anchor="middle" x="255.7534" y="-216" font-family="FreeSans" font-size="10.00" fill="#000000">_fillColor</text>
</g>
<!-- Node10&#45;&gt;Node10 -->
<g id="edge7" class="edge">
<title>Node10&#45;&gt;Node10</title>
<path fill="none" stroke="#9a32cd" stroke-dasharray="5,2" d="M254.2663,-319.2816C269.7194,-322.7976 284.8003,-318.7037 284.8003,-307 284.8003,-292.8672 262.8098,-289.8308 244.7278,-297.891"/>
<polygon fill="#9a32cd" stroke="#9a32cd" points="255.3214,-315.9441 244.7278,-316.109 253.1121,-322.5863 255.3214,-315.9441"/>
<text text-anchor="middle" x="304.2583" y="-354" font-family="FreeSans" font-size="10.00" fill="#000000"> Yellow</text>
<text text-anchor="middle" x="304.2583" y="-344" font-family="FreeSans" font-size="10.00" fill="#000000">Lime</text>
<text text-anchor="middle" x="304.2583" y="-334" font-family="FreeSans" font-size="10.00" fill="#000000">Navy</text>
<text text-anchor="middle" x="304.2583" y="-324" font-family="FreeSans" font-size="10.00" fill="#000000">Magenta</text>
<text text-anchor="middle" x="304.2583" y="-314" font-family="FreeSans" font-size="10.00" fill="#000000">White</text>
<text text-anchor="middle" x="304.2583" y="-304" font-family="FreeSans" font-size="10.00" fill="#000000">None</text>
<text text-anchor="middle" x="304.2583" y="-294" font-family="FreeSans" font-size="10.00" fill="#000000">Blue</text>
<text text-anchor="middle" x="304.2583" y="-284" font-family="FreeSans" font-size="10.00" fill="#000000">Aqua</text>
<text text-anchor="middle" x="304.2583" y="-274" font-family="FreeSans" font-size="10.00" fill="#000000">Purple</text>
<text text-anchor="middle" x="304.2583" y="-264" font-family="FreeSans" font-size="10.00" fill="#000000">Silver</text>
<text text-anchor="middle" x="304.2583" y="-254" font-family="FreeSans" font-size="10.00" fill="#000000">...</text>
</g>
<!-- Node11 -->
<g id="node8" class="node">
<title>Node11</title>
<polygon fill="#ffffff" stroke="#bfbfbf" points="294.6206,-177.5 294.6206,-195.5 353.9653,-195.5 353.9653,-177.5 294.6206,-177.5"/>
<text text-anchor="middle" x="324.293" y="-183.5" font-family="FreeSans" font-size="10.00" fill="#000000">MyPointD</text>
</g>
<!-- Node11&#45;&gt;Node6 -->
<g id="edge8" class="edge">
<title>Node11&#45;&gt;Node6</title>
<path fill="none" stroke="#9a32cd" stroke-dasharray="5,2" d="M296.0248,-173.0881C269.304,-160.4103 229.932,-141.7302 206.6221,-130.6708"/>
<polygon fill="#9a32cd" stroke="#9a32cd" points="294.7087,-176.3376 305.2437,-177.462 297.7093,-170.0133 294.7087,-176.3376"/>
<text text-anchor="middle" x="282.3594" y="-151" font-family="FreeSans" font-size="10.00" fill="#000000"> _center</text>
</g>
</g>
</svg>
