<?xml version="1.0" encoding="UTF-8" standalone="no"?>
<!DOCTYPE svg PUBLIC "-//W3C//DTD SVG 1.1//EN"
 "http://www.w3.org/Graphics/SVG/1.1/DTD/svg11.dtd">
<!-- Generated by graphviz version 2.36.0 (20140111.2315)
 -->
<!-- Title: LibBoard::Shape Pages: 1 -->
<!--zoomable 256 -->
<svg id="main" version="1.1" xmlns="http://www.w3.org/2000/svg" xmlns:xlink="http://www.w3.org/1999/xlink" xml:space="preserve" onload="init(evt)">
<style type="text/css"><![CDATA[
.edge:hover path { stroke: red; }
.edge:hover polygon { stroke: red; fill: red; }
]]></style>
<script type="text/javascript"><![CDATA[
var edges = document.getElementsByTagName('g');
if (edges && edges.length) {
  for (var i=0;i<edges.length;i++) {
    if (edges[i].id.substr(0,4)=='edge') {
      edges[i].setAttribute('class','edge');
    }
  }
}
]]></script>
        <defs>
                <circle id="rim" cx="0" cy="0" r="7"/>
                <circle id="rim2" cx="0" cy="0" r="3.5"/>
                <g id="zoomPlus">
                        <use xlink:href="#rim" fill="#404040">
                                <set attributeName="fill" to="#808080" begin="zoomplus.mouseover" end="zoomplus.mouseout"/>
                        </use>
                        <path d="M-4,0h8M0,-4v8" fill="none" stroke="white" stroke-width="1.5" pointer-events="none"/>
                </g>
                <g id="zoomMin">
                        <use xlink:href="#rim" fill="#404040">
                                <set attributeName="fill" to="#808080" begin="zoomminus.mouseover" end="zoomminus.mouseout"/>
                        </use>
                        <path d="M-4,0h8" fill="none" stroke="white" stroke-width="1.5" pointer-events="none"/>
                </g>
                <g id="dirArrow">
                        <path fill="none" stroke="white" stroke-width="1.5" d="M0,-3.0v7 M-2.5,-0.5L0,-3.0L2.5,-0.5"/>
                </g>
               <g id="resetDef">
                       <use xlink:href="#rim2" fill="#404040">
                               <set attributeName="fill" to="#808080" begin="reset.mouseover" end="reset.mouseout"/>
                       </use>
               </g>
        </defs>

<script type="text/javascript">
var viewWidth = 608;
var viewHeight = 256;
var sectionId = 'dynsection-0';
</script>
<script xlink:href="svgpan.js"/>
<svg id="graph" class="graph">
<g id="viewport">
<title>LibBoard::Shape</title>
<polygon fill="white" stroke="none" points="-4,4 -4,-252 604,-252 604,4 -4,4"/>
<!-- Node1 -->
<g id="node1" class="node"><title>Node1</title>
<polygon fill="#bfbfbf" stroke="black" points="0.5,-133.5 0.5,-152.5 95.5,-152.5 95.5,-133.5 0.5,-133.5"/>
<text text-anchor="middle" x="48" y="-140.5" font-family="FreeSans" font-size="10.00">LibBoard::Shape</text>
</g>
<!-- Node2 -->
<g id="node2" class="node"><title>Node2</title>
<g id="a_node2"><a xlink:href="structLibBoard_1_1Dot.html" target="_top" xlink:title="A line between two points. ">
<polygon fill="white" stroke="black" points="147,-228.5 147,-247.5 229,-247.5 229,-228.5 147,-228.5"/>
<text text-anchor="middle" x="188" y="-235.5" font-family="FreeSans" font-size="10.00">LibBoard::Dot</text>
</a>
</g>
</g>
<!-- Node1&#45;&gt;Node2 -->
<g id="edge1" class="edge"><title>Node1&#45;&gt;Node2</title>
<path fill="none" stroke="midnightblue" d="M63.7261,-160.076C79.2068,-177.092 105.021,-202.938 132,-219 138.25,-222.721 145.335,-225.852 152.291,-228.43"/>
<polygon fill="midnightblue" stroke="midnightblue" points="66.2591,-157.658 56.9968,-152.514 61.0296,-162.311 66.2591,-157.658"/>
</g>
<!-- Node3 -->
<g id="node3" class="node"><title>Node3</title>
<g id="a_node3"><a xlink:href="structLibBoard_1_1Ellipse.html" target="_top" xlink:title="An ellipse. ">
<polygon fill="white" stroke="black" points="140.5,-190.5 140.5,-209.5 235.5,-209.5 235.5,-190.5 140.5,-190.5"/>
<text text-anchor="middle" x="188" y="-197.5" font-family="FreeSans" font-size="10.00">LibBoard::Ellipse</text>
</a>
</g>
</g>
<!-- Node1&#45;&gt;Node3 -->
<g id="edge2" class="edge"><title>Node1&#45;&gt;Node3</title>
<path fill="none" stroke="midnightblue" d="M77.8105,-157.022C93.6432,-164.517 113.725,-173.68 132,-181 140.253,-184.306 149.331,-187.584 157.691,-190.463"/>
<polygon fill="midnightblue" stroke="midnightblue" points="79.0879,-153.754 68.5558,-152.603 76.0716,-160.071 79.0879,-153.754"/>
</g>
<!-- Node6 -->
<g id="node6" class="node"><title>Node6</title>
<g id="a_node6"><a xlink:href="structLibBoard_1_1Line.html" target="_top" xlink:title="A line between two points. ">
<polygon fill="white" stroke="black" points="146,-152.5 146,-171.5 230,-171.5 230,-152.5 146,-152.5"/>
<text text-anchor="middle" x="188" y="-159.5" font-family="FreeSans" font-size="10.00">LibBoard::Line</text>
</a>
</g>
</g>
<!-- Node1&#45;&gt;Node6 -->
<g id="edge5" class="edge"><title>Node1&#45;&gt;Node6</title>
<path fill="none" stroke="midnightblue" d="M105.825,-150.824C119.247,-152.672 133.304,-154.607 145.876,-156.338"/>
<polygon fill="midnightblue" stroke="midnightblue" points="106.104,-147.329 95.7205,-149.433 105.15,-154.264 106.104,-147.329"/>
</g>
<!-- Node8 -->
<g id="node8" class="node"><title>Node8</title>
<g id="a_node8"><a xlink:href="structLibBoard_1_1Polyline.html" target="_top" xlink:title="A polygonal line described by a series of 2D points. ">
<polygon fill="white" stroke="black" points="137.5,-114.5 137.5,-133.5 238.5,-133.5 238.5,-114.5 137.5,-114.5"/>
<text text-anchor="middle" x="188" y="-121.5" font-family="FreeSans" font-size="10.00">LibBoard::Polyline</text>
</a>
</g>
</g>
<!-- Node1&#45;&gt;Node8 -->
<g id="edge7" class="edge"><title>Node1&#45;&gt;Node8</title>
<path fill="none" stroke="midnightblue" d="M105.681,-135.196C116.232,-133.743 127.181,-132.236 137.496,-130.816"/>
<polygon fill="midnightblue" stroke="midnightblue" points="105.15,-131.736 95.7205,-136.567 106.104,-138.671 105.15,-131.736"/>
</g>
<!-- Node14 -->
<g id="node14" class="node"><title>Node14</title>
<g id="a_node14"><a xlink:href="structLibBoard_1_1ShapeList.html" target="_top" xlink:title="A group of shapes. ">
<polygon fill="white" stroke="black" points="132,-57.5 132,-76.5 244,-76.5 244,-57.5 132,-57.5"/>
<text text-anchor="middle" x="188" y="-64.5" font-family="FreeSans" font-size="10.00">LibBoard::ShapeList</text>
</a>
</g>
</g>
<!-- Node1&#45;&gt;Node14 -->
<g id="edge13" class="edge"><title>Node1&#45;&gt;Node14</title>
<path fill="none" stroke="midnightblue" d="M75.2475,-128.545C102.971,-113.277 145.891,-89.6397 169.664,-76.5473"/>
<polygon fill="midnightblue" stroke="midnightblue" points="73.5488,-125.485 66.4778,-133.375 76.9257,-131.616 73.5488,-125.485"/>
</g>
<!-- Node18 -->
<g id="node18" class="node"><title>Node18</title>
<g id="a_node18"><a xlink:href="structLibBoard_1_1Text.html" target="_top" xlink:title="A piece of text. ">
<polygon fill="white" stroke="black" points="146.5,-19.5 146.5,-38.5 229.5,-38.5 229.5,-19.5 146.5,-19.5"/>
<text text-anchor="middle" x="188" y="-26.5" font-family="FreeSans" font-size="10.00">LibBoard::Text</text>
</a>
</g>
</g>
<!-- Node1&#45;&gt;Node18 -->
<g id="edge17" class="edge"><title>Node1&#45;&gt;Node18</title>
<path fill="none" stroke="midnightblue" d="M60.3862,-125.03C74.6923,-103.809 101.143,-68.7801 132,-48 137.614,-44.2193 144.057,-41.1161 150.51,-38.5947"/>
<polygon fill="midnightblue" stroke="midnightblue" points="57.4193,-123.172 54.858,-133.452 63.2713,-127.013 57.4193,-123.172"/>
</g>
<!-- Node4 -->
<g id="node4" class="node"><title>Node4</title>
<g id="a_node4"><a xlink:href="structLibBoard_1_1Circle.html" target="_top" xlink:title="A circle. ">
<polygon fill="white" stroke="black" points="305.5,-228.5 305.5,-247.5 396.5,-247.5 396.5,-228.5 305.5,-228.5"/>
<text text-anchor="middle" x="351" y="-235.5" font-family="FreeSans" font-size="10.00">LibBoard::Circle</text>
</a>
</g>
</g>
<!-- Node3&#45;&gt;Node4 -->
<g id="edge3" class="edge"><title>Node3&#45;&gt;Node4</title>
<path fill="none" stroke="midnightblue" d="M239.402,-211.896C262.032,-217.237 288.37,-223.454 309.665,-228.48"/>
<polygon fill="midnightblue" stroke="midnightblue" points="240.164,-208.48 229.627,-209.589 238.556,-215.293 240.164,-208.48"/>
</g>
<!-- Node5 -->
<g id="node5" class="node"><title>Node5</title>
<g id="a_node5"><a xlink:href="structLibBoard_1_1Arc.html" target="_top" xlink:title="An arc. ">
<polygon fill="white" stroke="black" points="489,-228.5 489,-247.5 569,-247.5 569,-228.5 489,-228.5"/>
<text text-anchor="middle" x="529" y="-235.5" font-family="FreeSans" font-size="10.00">LibBoard::Arc</text>
</a>
</g>
</g>
<!-- Node4&#45;&gt;Node5 -->
<g id="edge4" class="edge"><title>Node4&#45;&gt;Node5</title>
<path fill="none" stroke="midnightblue" d="M407.158,-238C433.684,-238 464.859,-238 488.9,-238"/>
<polygon fill="midnightblue" stroke="midnightblue" points="406.868,-234.5 396.868,-238 406.868,-241.5 406.868,-234.5"/>
</g>
<!-- Node7 -->
<g id="node7" class="node"><title>Node7</title>
<g id="a_node7"><a xlink:href="structLibBoard_1_1Arrow.html" target="_top" xlink:title="A line between two points with an arrow at one extremity. ">
<polygon fill="white" stroke="black" points="305,-190.5 305,-209.5 397,-209.5 397,-190.5 305,-190.5"/>
<text text-anchor="middle" x="351" y="-197.5" font-family="FreeSans" font-size="10.00">LibBoard::Arrow</text>
</a>
</g>
</g>
<!-- Node6&#45;&gt;Node7 -->
<g id="edge6" class="edge"><title>Node6&#45;&gt;Node7</title>
<path fill="none" stroke="midnightblue" d="M239.402,-173.896C262.032,-179.237 288.37,-185.454 309.665,-190.48"/>
<polygon fill="midnightblue" stroke="midnightblue" points="240.164,-170.48 229.627,-171.589 238.556,-177.293 240.164,-170.48"/>
</g>
<!-- Node9 -->
<g id="node9" class="node"><title>Node9</title>
<g id="a_node9"><a xlink:href="structLibBoard_1_1GouraudTriangle.html" target="_top" xlink:title="A triangle with shaded filling according to colors given for each vertex. ">
<polygon fill="white" stroke="black" points="280,-152.5 280,-171.5 422,-171.5 422,-152.5 280,-152.5"/>
<text text-anchor="middle" x="351" y="-159.5" font-family="FreeSans" font-size="10.00">LibBoard::GouraudTriangle</text>
</a>
</g>
</g>
<!-- Node8&#45;&gt;Node9 -->
<g id="edge8" class="edge"><title>Node8&#45;&gt;Node9</title>
<path fill="none" stroke="midnightblue" d="M239.402,-135.896C262.032,-141.237 288.37,-147.454 309.665,-152.48"/>
<polygon fill="midnightblue" stroke="midnightblue" points="240.164,-132.48 229.627,-133.589 238.556,-139.293 240.164,-132.48"/>
</g>
<!-- Node10 -->
<g id="node10" class="node"><title>Node10</title>
<g id="a_node10"><a xlink:href="structLibBoard_1_1Rectangle.html" target="_top" xlink:title="A rectangle. ">
<polygon fill="white" stroke="black" points="295.5,-114.5 295.5,-133.5 406.5,-133.5 406.5,-114.5 295.5,-114.5"/>
<text text-anchor="middle" x="351" y="-121.5" font-family="FreeSans" font-size="10.00">LibBoard::Rectangle</text>
</a>
</g>
</g>
<!-- Node8&#45;&gt;Node10 -->
<g id="edge9" class="edge"><title>Node8&#45;&gt;Node10</title>
<path fill="none" stroke="midnightblue" d="M248.926,-124C264.098,-124 280.315,-124 295.217,-124"/>
<polygon fill="midnightblue" stroke="midnightblue" points="248.619,-120.5 238.619,-124 248.619,-127.5 248.619,-120.5"/>
</g>
<!-- Node12 -->
<g id="node12" class="node"><title>Node12</title>
<g id="a_node12"><a xlink:href="structLibBoard_1_1Triangle.html" target="_top" xlink:title="A triangle. Basically a Polyline with a convenient constructor. ">
<polygon fill="white" stroke="black" points="300.5,-76.5 300.5,-95.5 401.5,-95.5 401.5,-76.5 300.5,-76.5"/>
<text text-anchor="middle" x="351" y="-83.5" font-family="FreeSans" font-size="10.00">LibBoard::Triangle</text>
</a>
</g>
</g>
<!-- Node8&#45;&gt;Node12 -->
<g id="edge11" class="edge"><title>Node8&#45;&gt;Node12</title>
<path fill="none" stroke="midnightblue" d="M239.402,-112.104C262.032,-106.763 288.37,-100.546 309.665,-95.5201"/>
<polygon fill="midnightblue" stroke="midnightblue" points="238.556,-108.707 229.627,-114.411 240.164,-115.52 238.556,-108.707"/>
</g>
<!-- Node11 -->
<g id="node11" class="node"><title>Node11</title>
<g id="a_node11"><a xlink:href="structLibBoard_1_1Image.html" target="_top" xlink:title="Used to draw image in figure. ">
<polygon fill="white" stroke="black" points="481.5,-120.5 481.5,-139.5 576.5,-139.5 576.5,-120.5 481.5,-120.5"/>
<text text-anchor="middle" x="529" y="-127.5" font-family="FreeSans" font-size="10.00">LibBoard::Image</text>
</a>
</g>
</g>
<!-- Node10&#45;&gt;Node11 -->
<g id="edge10" class="edge"><title>Node10&#45;&gt;Node11</title>
<path fill="none" stroke="midnightblue" d="M416.725,-126.207C438.138,-126.937 461.533,-127.734 481.321,-128.409"/>
<polygon fill="midnightblue" stroke="midnightblue" points="416.836,-122.708 406.723,-125.866 416.598,-129.704 416.836,-122.708"/>
</g>
<!-- Node13 -->
<g id="node13" class="node"><title>Node13</title>
<g id="a_node13"><a xlink:href="structLibBoard_1_1QuadraticBezierCurve.html" target="_top" xlink:title="A quadratic Bezier curve having 3 control points. NB. It is also a parabola arc. ">
<polygon fill="white" stroke="black" points="458.5,-71 458.5,-101 599.5,-101 599.5,-71 458.5,-71"/>
<text text-anchor="start" x="466.5" y="-89" font-family="FreeSans" font-size="10.00">LibBoard::QuadraticBezier</text>
<text text-anchor="middle" x="529" y="-78" font-family="FreeSans" font-size="10.00">Curve</text>
</a>
</g>
</g>
<!-- Node12&#45;&gt;Node13 -->
<g id="edge12" class="edge"><title>Node12&#45;&gt;Node13</title>
<path fill="none" stroke="midnightblue" d="M412.034,-86C426.888,-86 442.928,-86 458.203,-86"/>
<polygon fill="midnightblue" stroke="midnightblue" points="411.964,-82.5001 401.964,-86 411.964,-89.5001 411.964,-82.5001"/>
</g>
<!-- Node15 -->
<g id="node15" class="node"><title>Node15</title>
<g id="a_node15"><a xlink:href="classLibBoard_1_1Board.html" target="_top" xlink:title="Class for EPS, FIG or SVG drawings. ">
<polygon fill="white" stroke="black" points="304.5,-38.5 304.5,-57.5 397.5,-57.5 397.5,-38.5 304.5,-38.5"/>
<text text-anchor="middle" x="351" y="-45.5" font-family="FreeSans" font-size="10.00">LibBoard::Board</text>
</a>
</g>
</g>
<!-- Node14&#45;&gt;Node15 -->
<g id="edge14" class="edge"><title>Node14&#45;&gt;Node15</title>
<path fill="none" stroke="midnightblue" d="M254.659,-59.2515C271.349,-57.2818 288.922,-55.208 304.37,-53.3849"/>
<polygon fill="midnightblue" stroke="midnightblue" points="253.928,-55.8133 244.407,-60.4613 254.748,-62.7651 253.928,-55.8133"/>
</g>
<!-- Node17 -->
<g id="node17" class="node"><title>Node17</title>
<g id="a_node17"><a xlink:href="structLibBoard_1_1Group.html" target="_top" xlink:title="A group of shapes. A group is basically a ShapeList except that when rendered in either an SVG of a F...">
<polygon fill="white" stroke="black" points="304,-0.5 304,-19.5 398,-19.5 398,-0.5 304,-0.5"/>
<text text-anchor="middle" x="351" y="-7.5" font-family="FreeSans" font-size="10.00">LibBoard::Group</text>
</a>
</g>
</g>
<!-- Node14&#45;&gt;Node17 -->
<g id="edge16" class="edge"><title>Node14&#45;&gt;Node17</title>
<path fill="none" stroke="midnightblue" d="M228.992,-53.9921C234.089,-52.0986 239.199,-50.0816 244,-48 260.599,-40.8031 263.168,-35.6321 280,-29 289.138,-25.3994 299.206,-22.229 308.789,-19.561"/>
<polygon fill="midnightblue" stroke="midnightblue" points="227.526,-50.7995 219.291,-57.4653 229.885,-57.3899 227.526,-50.7995"/>
</g>
<!-- Node16 -->
<g id="node16" class="node"><title>Node16</title>
<g id="a_node16"><a xlink:href="classDGtal_1_1Board2D.html" target="_top" xlink:title="Aim: This class specializes a &#39;Board&#39; class so as to display DGtal objects more naturally (with &lt;&lt;)...">
<polygon fill="white" stroke="black" points="483,-32.5 483,-51.5 575,-51.5 575,-32.5 483,-32.5"/>
<text text-anchor="middle" x="529" y="-39.5" font-family="FreeSans" font-size="10.00">DGtal::Board2D</text>
</a>
</g>
</g>
<!-- Node15&#45;&gt;Node16 -->
<g id="edge15" class="edge"><title>Node15&#45;&gt;Node16</title>
<path fill="none" stroke="midnightblue" d="M407.879,-46.095C432.032,-45.2716 459.926,-44.3207 482.752,-43.5426"/>
<polygon fill="midnightblue" stroke="midnightblue" points="407.657,-42.6005 397.782,-46.4392 407.896,-49.5964 407.657,-42.6005"/>
</g>
</g>
</svg>
        <g id="navigator" transform="translate(0 0)" fill="#404254">
                <rect fill="#f2f5e9" fill-opacity="0.5" stroke="#606060" stroke-width=".5" x="0" y="0" width="60" height="60"/>
                <use id="zoomplus" xlink:href="#zoomPlus" x="17" y="9" onmousedown="handleZoom(evt,'in')"/>
                <use id="zoomminus" xlink:href="#zoomMin" x="42" y="9" onmousedown="handleZoom(evt,'out')"/>
                <use id="reset" xlink:href="#resetDef" x="30" y="36" onmousedown="handleReset()"/>
                <g id="arrowUp" xlink:href="#dirArrow" transform="translate(30 24)" onmousedown="handlePan(0,-1)">
                  <use xlink:href="#rim" fill="#404040">
                        <set attributeName="fill" to="#808080" begin="arrowUp.mouseover" end="arrowUp.mouseout"/>
                  </use>
                  <path fill="none" stroke="white" stroke-width="1.5" d="M0,-3.0v7 M-2.5,-0.5L0,-3.0L2.5,-0.5"/>
                </g>
                <g id="arrowRight" xlink:href="#dirArrow" transform="rotate(90) translate(36 -43)" onmousedown="handlePan(1,0)">
                  <use xlink:href="#rim" fill="#404040">
                        <set attributeName="fill" to="#808080" begin="arrowRight.mouseover" end="arrowRight.mouseout"/>
                  </use>
                  <path fill="none" stroke="white" stroke-width="1.5" d="M0,-3.0v7 M-2.5,-0.5L0,-3.0L2.5,-0.5"/>
                </g>
                <g id="arrowDown" xlink:href="#dirArrow" transform="rotate(180) translate(-30 -48)" onmousedown="handlePan(0,1)">
                  <use xlink:href="#rim" fill="#404040">
                        <set attributeName="fill" to="#808080" begin="arrowDown.mouseover" end="arrowDown.mouseout"/>
                  </use>
                  <path fill="none" stroke="white" stroke-width="1.5" d="M0,-3.0v7 M-2.5,-0.5L0,-3.0L2.5,-0.5"/>
                </g>
                <g id="arrowLeft" xlink:href="#dirArrow" transform="rotate(270) translate(-36 17)" onmousedown="handlePan(-1,0)">
                  <use xlink:href="#rim" fill="#404040">
                        <set attributeName="fill" to="#808080" begin="arrowLeft.mouseover" end="arrowLeft.mouseout"/>
                  </use>
                  <path fill="none" stroke="white" stroke-width="1.5" d="M0,-3.0v7 M-2.5,-0.5L0,-3.0L2.5,-0.5"/>
                </g>
        </g>
        <svg viewBox="0 0 15 15" width="100%" height="30px" preserveAspectRatio="xMaxYMin meet">
         <g id="arrow_out" transform="scale(0.3 0.3)">
          <a xlink:href="structLibBoard_1_1Shape__inherit__graph_org.svg" target="_base">
           <rect id="button" ry="5" rx="5" y="6" x="6" height="38" width="38"
                fill="#f2f5e9" fill-opacity="0.5" stroke="#606060" stroke-width="1.0"/>
           <path id="arrow"
             d="M 11.500037,31.436501 C 11.940474,20.09759 22.043105,11.32322 32.158766,21.979434 L 37.068811,17.246167 C 37.068811,17.246167 37.088388,32 37.088388,32 L 22.160133,31.978069 C 22.160133,31.978069 26.997745,27.140456 26.997745,27.140456 C 18.528582,18.264221 13.291696,25.230495 11.500037,31.436501 z"
             style="fill:#404040;"/>
          </a>
         </g>
        </svg>
</svg>
