<?xml version="1.0" encoding="UTF-8" standalone="no"?>
<!DOCTYPE svg PUBLIC "-//W3C//DTD SVG 1.1//EN"
 "http://www.w3.org/Graphics/SVG/1.1/DTD/svg11.dtd">
<!-- Generated by graphviz version 2.36.0 (20140111.2315)
 -->
<!-- Title: DGtal::AlphaThickSegmentComputer&lt; TInputPoint, TConstIterator &gt;::State Pages: 1 -->
<!--zoomable 278 -->
<svg id="main" version="1.1" xmlns="http://www.w3.org/2000/svg" xmlns:xlink="http://www.w3.org/1999/xlink" xml:space="preserve" onload="init(evt)">
<style type="text/css"><![CDATA[
.edge:hover path { stroke: red; }
.edge:hover polygon { stroke: red; fill: red; }
]]></style>
<script type="text/javascript"><![CDATA[
var edges = document.getElementsByTagName('g');
if (edges && edges.length) {
  for (var i=0;i<edges.length;i++) {
    if (edges[i].id.substr(0,4)=='edge') {
      edges[i].setAttribute('class','edge');
    }
  }
}
]]></script>
        <defs>
                <circle id="rim" cx="0" cy="0" r="7"/>
                <circle id="rim2" cx="0" cy="0" r="3.5"/>
                <g id="zoomPlus">
                        <use xlink:href="#rim" fill="#404040">
                                <set attributeName="fill" to="#808080" begin="zoomplus.mouseover" end="zoomplus.mouseout"/>
                        </use>
                        <path d="M-4,0h8M0,-4v8" fill="none" stroke="white" stroke-width="1.5" pointer-events="none"/>
                </g>
                <g id="zoomMin">
                        <use xlink:href="#rim" fill="#404040">
                                <set attributeName="fill" to="#808080" begin="zoomminus.mouseover" end="zoomminus.mouseout"/>
                        </use>
                        <path d="M-4,0h8" fill="none" stroke="white" stroke-width="1.5" pointer-events="none"/>
                </g>
                <g id="dirArrow">
                        <path fill="none" stroke="white" stroke-width="1.5" d="M0,-3.0v7 M-2.5,-0.5L0,-3.0L2.5,-0.5"/>
                </g>
               <g id="resetDef">
                       <use xlink:href="#rim2" fill="#404040">
                               <set attributeName="fill" to="#808080" begin="reset.mouseover" end="reset.mouseout"/>
                       </use>
               </g>
        </defs>

<script type="text/javascript">
var viewWidth = 2568;
var viewHeight = 278;
var sectionId = 'dynsection-0';
</script>
<script xlink:href="svgpan.js"/>
<svg id="graph" class="graph">
<g id="viewport">
<title>DGtal::AlphaThickSegmentComputer&lt; TInputPoint, TConstIterator &gt;::State</title>
<polygon fill="white" stroke="none" points="-4,4 -4,-274.043 2564,-274.043 2564,4 -4,4"/>
<!-- Node1 -->
<g id="node1" class="node"><title>Node1</title>
<polygon fill="#bfbfbf" stroke="black" points="2414.5,-134.5 2414.5,-175.5 2559.5,-175.5 2559.5,-134.5 2414.5,-134.5"/>
<text text-anchor="start" x="2422.5" y="-163.5" font-family="FreeSans" font-size="10.00">DGtal::AlphaThickSegment</text>
<text text-anchor="start" x="2422.5" y="-152.5" font-family="FreeSans" font-size="10.00">Computer&lt; TInputPoint,</text>
<text text-anchor="middle" x="2487" y="-141.5" font-family="FreeSans" font-size="10.00"> TConstIterator &gt;::State</text>
</g>
<!-- Node2 -->
<g id="node2" class="node"><title>Node2</title>
<g id="a_node2"><a xlink:href="classDGtal_1_1MelkmanConvexHull.html" target="_top" xlink:title="DGtal::MelkmanConvexHull\l\&lt; InputPoint, DGtal::InHalfPlane\lBySimple3x3Matrix \&gt;">
<polygon fill="white" stroke="black" points="2146,-134.5 2146,-175.5 2314,-175.5 2314,-134.5 2146,-134.5"/>
<text text-anchor="start" x="2154" y="-163.5" font-family="FreeSans" font-size="10.00">DGtal::MelkmanConvexHull</text>
<text text-anchor="start" x="2154" y="-152.5" font-family="FreeSans" font-size="10.00">&lt; InputPoint, DGtal::InHalfPlane</text>
<text text-anchor="middle" x="2230" y="-141.5" font-family="FreeSans" font-size="10.00">BySimple3x3Matrix &gt;</text>
</a>
</g>
</g>
<!-- Node2&#45;&gt;Node1 -->
<g id="edge1" class="edge"><title>Node2&#45;&gt;Node1</title>
<path fill="none" stroke="#9a32cd" stroke-dasharray="5,2" d="M2324.49,-155C2354.07,-155 2386.28,-155 2414.11,-155"/>
<polygon fill="#9a32cd" stroke="#9a32cd" points="2324.14,-151.5 2314.14,-155 2324.14,-158.5 2324.14,-151.5"/>
<text text-anchor="middle" x="2364" y="-158" font-family="FreeSans" font-size="10.00"> melkmanCH</text>
</g>
<!-- Node3 -->
<g id="node3" class="node"><title>Node3</title>
<g id="a_node3"><a xlink:href="classDGtal_1_1PredicateFromOrientationFunctor2.html" target="_top" xlink:title="DGtal::PredicateFromOrientation\lFunctor2\&lt; Functor, true, false \&gt;">
<polygon fill="white" stroke="black" points="1459,-124 1459,-154 1631,-154 1631,-124 1459,-124"/>
<text text-anchor="start" x="1467" y="-142" font-family="FreeSans" font-size="10.00">DGtal::PredicateFromOrientation</text>
<text text-anchor="middle" x="1545" y="-131" font-family="FreeSans" font-size="10.00">Functor2&lt; Functor, true, false &gt;</text>
</a>
</g>
</g>
<!-- Node3&#45;&gt;Node2 -->
<g id="edge2" class="edge"><title>Node3&#45;&gt;Node2</title>
<path fill="none" stroke="#9a32cd" stroke-dasharray="5,2" d="M1641.39,-141.235C1775.71,-144.381 2018.35,-150.065 2145.75,-153.05"/>
<polygon fill="#9a32cd" stroke="#9a32cd" points="1641.2,-137.729 1631.12,-140.994 1641.04,-144.727 1641.2,-137.729"/>
<text text-anchor="middle" x="1862" y="-152" font-family="FreeSans" font-size="10.00"> myForwardPredicate</text>
</g>
<!-- Node16 -->
<g id="node16" class="node"><title>Node16</title>
<g id="a_node16"><a xlink:href="classDGtal_1_1MelkmanConvexHull.html" target="_top" xlink:title="Aim: This class implements the on&#45;line algorithm of Melkman for the computation of the convex hull of...">
<polygon fill="white" stroke="black" points="1778,-84 1778,-114 1946,-114 1946,-84 1778,-84"/>
<text text-anchor="start" x="1786" y="-102" font-family="FreeSans" font-size="10.00">DGtal::MelkmanConvexHull</text>
<text text-anchor="middle" x="1862" y="-91" font-family="FreeSans" font-size="10.00">&lt; TPoint, TOrientationFunctor &gt;</text>
</a>
</g>
</g>
<!-- Node3&#45;&gt;Node16 -->
<g id="edge25" class="edge"><title>Node3&#45;&gt;Node16</title>
<path fill="none" stroke="#9a32cd" stroke-dasharray="5,2" d="M1641.27,-126.902C1684.81,-121.373 1735.91,-114.885 1777.87,-109.557"/>
<polygon fill="#9a32cd" stroke="#9a32cd" points="1640.72,-123.443 1631.24,-128.175 1641.6,-130.388 1640.72,-123.443"/>
<text text-anchor="middle" x="1705" y="-128" font-family="FreeSans" font-size="10.00"> myForwardPredicate</text>
</g>
<!-- Node4 -->
<g id="node4" class="node"><title>Node4</title>
<g id="a_node4"><a xlink:href="classDGtal_1_1functors_1_1Thresholder.html" target="_top" xlink:title="Aim: A small functor with an operator () that compares one value to a threshold value according to tw...">
<polygon fill="white" stroke="black" points="868.5,-121 868.5,-151 1019.5,-151 1019.5,-121 868.5,-121"/>
<text text-anchor="start" x="876.5" y="-139" font-family="FreeSans" font-size="10.00">DGtal::functors::Thresholder</text>
<text text-anchor="middle" x="944" y="-128" font-family="FreeSans" font-size="10.00">&lt; T, isLower, isEqual &gt;</text>
</a>
</g>
</g>
<!-- Node4&#45;&gt;Node3 -->
<g id="edge3" class="edge"><title>Node4&#45;&gt;Node3</title>
<path fill="none" stroke="#9a32cd" stroke-dasharray="5,2" d="M1008.75,-118.441C1044.65,-109.463 1090.47,-99.4993 1132,-95 1208,-86.7663 1227.87,-88.079 1304,-95 1364.12,-100.465 1431.67,-113.479 1479.75,-123.945"/>
<polygon fill="#9a32cd" stroke="#9a32cd" points="1007.74,-115.088 998.905,-120.942 1009.46,-121.873 1007.74,-115.088"/>
<text text-anchor="middle" x="1218" y="-98" font-family="FreeSans" font-size="10.00"> myThresholder</text>
</g>
<!-- Node11 -->
<g id="node11" class="node"><title>Node11</title>
<g id="a_node11"><a xlink:href="classDGtal_1_1PredicateFromOrientationFunctor2.html" target="_top" xlink:title="Aim: Small adapter to models of COrientationFunctor2. It is a model of concepts::CPointPredicate. It is also a ternary predicate on points, useful for basic geometric tasks such as convex hull computation. ">
<polygon fill="white" stroke="black" points="1132,-115.5 1132,-156.5 1304,-156.5 1304,-115.5 1132,-115.5"/>
<text text-anchor="start" x="1140" y="-144.5" font-family="FreeSans" font-size="10.00">DGtal::PredicateFromOrientation</text>
<text text-anchor="start" x="1140" y="-133.5" font-family="FreeSans" font-size="10.00">Functor2&lt; TOrientationFunctor,</text>
<text text-anchor="middle" x="1218" y="-122.5" font-family="FreeSans" font-size="10.00"> acceptNeg, acceptZero &gt;</text>
</a>
</g>
</g>
<!-- Node4&#45;&gt;Node11 -->
<g id="edge13" class="edge"><title>Node4&#45;&gt;Node11</title>
<path fill="none" stroke="#9a32cd" stroke-dasharray="5,2" d="M1030.05,-136C1062.5,-136 1099.47,-136 1131.92,-136"/>
<polygon fill="#9a32cd" stroke="#9a32cd" points="1029.68,-132.5 1019.68,-136 1029.68,-139.5 1029.68,-132.5"/>
<text text-anchor="middle" x="1076" y="-139" font-family="FreeSans" font-size="10.00"> myThresholder</text>
</g>
<!-- Node12 -->
<g id="node12" class="node"><title>Node12</title>
<g id="a_node12"><a xlink:href="classDGtal_1_1PredicateFromOrientationFunctor2.html" target="_top" xlink:title="DGtal::PredicateFromOrientation\lFunctor2\&lt; Functor, false, false \&gt;">
<polygon fill="white" stroke="black" points="1458.5,-178 1458.5,-208 1631.5,-208 1631.5,-178 1458.5,-178"/>
<text text-anchor="start" x="1466.5" y="-196" font-family="FreeSans" font-size="10.00">DGtal::PredicateFromOrientation</text>
<text text-anchor="middle" x="1545" y="-185" font-family="FreeSans" font-size="10.00">Functor2&lt; Functor, false, false &gt;</text>
</a>
</g>
</g>
<!-- Node4&#45;&gt;Node12 -->
<g id="edge15" class="edge"><title>Node4&#45;&gt;Node12</title>
<path fill="none" stroke="#9a32cd" stroke-dasharray="5,2" d="M1029.76,-149.714C1032.54,-150.15 1035.29,-150.58 1038,-151 1079.74,-157.474 1090.02,-160.334 1132,-165 1216.16,-174.354 1237.52,-173.224 1322,-179 1366.98,-182.075 1417.11,-185.258 1458.33,-187.809"/>
<polygon fill="#9a32cd" stroke="#9a32cd" points="1030.03,-146.214 1019.61,-148.114 1028.94,-153.129 1030.03,-146.214"/>
<text text-anchor="middle" x="1218" y="-181" font-family="FreeSans" font-size="10.00"> myThresholder</text>
</g>
<!-- Node5 -->
<g id="node5" class="node"><title>Node5</title>
<polygon fill="white" stroke="#bfbfbf" points="0.5,-126.5 0.5,-145.5 29.5,-145.5 29.5,-126.5 0.5,-126.5"/>
<text text-anchor="middle" x="15" y="-133.5" font-family="FreeSans" font-size="10.00">T</text>
</g>
<!-- Node5&#45;&gt;Node4 -->
<g id="edge4" class="edge"><title>Node5&#45;&gt;Node4</title>
<path fill="none" stroke="#9a32cd" stroke-dasharray="5,2" d="M40.145,-136C68.7501,-136 117.846,-136 160,-136 160,-136 160,-136 680,-136 743.581,-136 815.808,-136 868.464,-136"/>
<polygon fill="#9a32cd" stroke="#9a32cd" points="39.901,-132.5 29.901,-136 39.901,-139.5 39.901,-132.5"/>
<text text-anchor="middle" x="421" y="-139" font-family="FreeSans" font-size="10.00"> myT</text>
</g>
<!-- Node9 -->
<g id="node9" class="node"><title>Node9</title>
<g id="a_node9"><a xlink:title="STL class. ">
<polygon fill="white" stroke="#bfbfbf" points="116,-167.5 116,-186.5 206,-186.5 206,-167.5 116,-167.5"/>
<text text-anchor="middle" x="161" y="-174.5" font-family="FreeSans" font-size="10.00">std::array&lt; T &gt;</text>
</a>
</g>
</g>
<!-- Node5&#45;&gt;Node9 -->
<g id="edge9" class="edge"><title>Node5&#45;&gt;Node9</title>
<path fill="none" stroke="#9a32cd" stroke-dasharray="5,2" d="M38.9968,-146.633C41.9945,-147.85 45.049,-149.007 48,-150 69.9909,-157.397 95.0487,-163.634 115.879,-168.244"/>
<polygon fill="#9a32cd" stroke="#9a32cd" points="40.3783,-143.417 29.8094,-142.676 37.6092,-149.847 40.3783,-143.417"/>
<text text-anchor="middle" x="73" y="-167" font-family="FreeSans" font-size="10.00"> elements</text>
</g>
<!-- Node15 -->
<g id="node15" class="node"><title>Node15</title>
<g id="a_node15"><a xlink:title="STL class. ">
<polygon fill="white" stroke="#bfbfbf" points="232.5,-16.5 232.5,-35.5 327.5,-35.5 327.5,-16.5 232.5,-16.5"/>
<text text-anchor="middle" x="280" y="-23.5" font-family="FreeSans" font-size="10.00">std::deque&lt; T &gt;</text>
</a>
</g>
</g>
<!-- Node5&#45;&gt;Node15 -->
<g id="edge21" class="edge"><title>Node5&#45;&gt;Node15</title>
<path fill="none" stroke="#9a32cd" stroke-dasharray="5,2" d="M34.6767,-119.858C38.8912,-116.665 43.4647,-113.524 48,-111 112.783,-74.9419 195.858,-48.7169 242.675,-35.5589"/>
<polygon fill="#9a32cd" stroke="#9a32cd" points="32.2575,-117.312 26.6573,-126.305 36.6438,-122.767 32.2575,-117.312"/>
<text text-anchor="middle" x="73" y="-114" font-family="FreeSans" font-size="10.00"> elements</text>
</g>
<!-- Node6 -->
<g id="node6" class="node"><title>Node6</title>
<g id="a_node6"><a xlink:href="classDGtal_1_1InHalfPlaneBySimple3x3Matrix.html" target="_top" xlink:title="Aim: Class that implements an orientation functor, ie. it provides a way to compute the orientation o...">
<polygon fill="white" stroke="black" points="1135.5,-234 1135.5,-264 1300.5,-264 1300.5,-234 1135.5,-234"/>
<text text-anchor="start" x="1143.5" y="-252" font-family="FreeSans" font-size="10.00">DGtal::InHalfPlaneBySimple3x3</text>
<text text-anchor="middle" x="1218" y="-241" font-family="FreeSans" font-size="10.00">Matrix&lt; TPoint, TInteger &gt;</text>
</a>
</g>
</g>
<!-- Node6&#45;&gt;Node2 -->
<g id="edge22" class="edge"><title>Node6&#45;&gt;Node2</title>
<path fill="none" stroke="#9a32cd" stroke-dasharray="5,2" d="M1306.51,-265.354C1311.74,-266.001 1316.93,-266.56 1322,-267 1374.25,-271.531 1387.65,-270.109 1440,-267 1747.4,-248.746 1826.42,-247.288 2128,-185 2140.36,-182.447 2153.4,-179.091 2165.84,-175.55"/>
<polygon fill="#9a32cd" stroke="#9a32cd" points="1306.8,-261.862 1296.42,-264.009 1305.87,-268.801 1306.8,-261.862"/>
<text text-anchor="middle" x="1705" y="-257" font-family="FreeSans" font-size="10.00"> myDefaultFunctor</text>
</g>
<!-- Node6&#45;&gt;Node3 -->
<g id="edge5" class="edge"><title>Node6&#45;&gt;Node3</title>
<path fill="none" stroke="#9a32cd" stroke-dasharray="5,2" d="M1289.06,-231.366C1343.4,-217.079 1413.76,-197.08 1440,-183 1449.18,-178.076 1448.91,-173.084 1458,-168 1467.63,-162.616 1478.42,-158.008 1489.02,-154.154"/>
<polygon fill="#9a32cd" stroke="#9a32cd" points="1287.9,-228.051 1279.11,-233.965 1289.67,-234.824 1287.9,-228.051"/>
<text text-anchor="middle" x="1381" y="-225" font-family="FreeSans" font-size="10.00"> myFunctorPtr</text>
</g>
<!-- Node6&#45;&gt;Node12 -->
<g id="edge16" class="edge"><title>Node6&#45;&gt;Node12</title>
<path fill="none" stroke="#9a32cd" stroke-dasharray="5,2" d="M1310.58,-251.743C1350.75,-251.082 1398.18,-247.75 1440,-238 1467.21,-231.657 1496.23,-218.505 1516.68,-208.05"/>
<polygon fill="#9a32cd" stroke="#9a32cd" points="1310.49,-248.244 1300.53,-251.856 1310.57,-255.243 1310.49,-248.244"/>
<text text-anchor="middle" x="1381" y="-255" font-family="FreeSans" font-size="10.00"> myFunctorPtr</text>
</g>
<!-- Node7 -->
<g id="node7" class="node"><title>Node7</title>
<g id="a_node7"><a xlink:href="classDGtal_1_1SimpleMatrix.html" target="_top" xlink:title="DGtal::SimpleMatrix\l\&lt; Integer, 3, 3 \&gt;">
<polygon fill="white" stroke="black" points="888,-222 888,-252 1000,-252 1000,-222 888,-222"/>
<text text-anchor="start" x="896" y="-240" font-family="FreeSans" font-size="10.00">DGtal::SimpleMatrix</text>
<text text-anchor="middle" x="944" y="-229" font-family="FreeSans" font-size="10.00">&lt; Integer, 3, 3 &gt;</text>
</a>
</g>
</g>
<!-- Node7&#45;&gt;Node6 -->
<g id="edge6" class="edge"><title>Node7&#45;&gt;Node6</title>
<path fill="none" stroke="#9a32cd" stroke-dasharray="5,2" d="M1010.36,-239.884C1047.93,-241.541 1095.46,-243.638 1135.46,-245.403"/>
<polygon fill="#9a32cd" stroke="#9a32cd" points="1010.19,-236.373 1000.04,-239.428 1009.88,-243.366 1010.19,-236.373"/>
<text text-anchor="middle" x="1076" y="-248" font-family="FreeSans" font-size="10.00"> myMatrix</text>
</g>
<!-- Node8 -->
<g id="node8" class="node"><title>Node8</title>
<polygon fill="white" stroke="#bfbfbf" points="354.5,-170 354.5,-200 487.5,-200 487.5,-170 354.5,-170"/>
<text text-anchor="start" x="362.5" y="-188" font-family="FreeSans" font-size="10.00">std::array&lt; Component,</text>
<text text-anchor="middle" x="421" y="-177" font-family="FreeSans" font-size="10.00"> M *N &gt;</text>
</g>
<!-- Node8&#45;&gt;Node7 -->
<g id="edge7" class="edge"><title>Node8&#45;&gt;Node7</title>
<path fill="none" stroke="#9a32cd" stroke-dasharray="5,2" d="M473.402,-203.046C484.062,-206.182 495.305,-209.056 506,-211 641.72,-235.669 804.655,-238.427 887.995,-237.943"/>
<polygon fill="#9a32cd" stroke="#9a32cd" points="474.395,-199.69 463.808,-200.111 472.347,-206.384 474.395,-199.69"/>
<text text-anchor="middle" x="679" y="-250" font-family="FreeSans" font-size="10.00"> myCofactorCoefs</text>
<text text-anchor="middle" x="679" y="-239" font-family="FreeSans" font-size="10.00">myValues</text>
</g>
<!-- Node10 -->
<g id="node10" class="node"><title>Node10</title>
<g id="a_node10"><a xlink:href="classDGtal_1_1SimpleMatrix.html" target="_top" xlink:title="Aim: implements basic MxN Matrix services (M,N&gt;=1). ">
<polygon fill="white" stroke="black" points="610,-170 610,-200 748,-200 748,-170 610,-170"/>
<text text-anchor="start" x="618" y="-188" font-family="FreeSans" font-size="10.00">DGtal::SimpleMatrix</text>
<text text-anchor="middle" x="679" y="-177" font-family="FreeSans" font-size="10.00">&lt; TComponent, TM, TN &gt;</text>
</a>
</g>
</g>
<!-- Node8&#45;&gt;Node10 -->
<g id="edge11" class="edge"><title>Node8&#45;&gt;Node10</title>
<path fill="none" stroke="#9a32cd" stroke-dasharray="5,2" d="M497.911,-185C533.434,-185 575.41,-185 609.896,-185"/>
<polygon fill="#9a32cd" stroke="#9a32cd" points="497.594,-181.5 487.594,-185 497.594,-188.5 497.594,-181.5"/>
<text text-anchor="middle" x="549" y="-199" font-family="FreeSans" font-size="10.00"> myCofactorCoefs</text>
<text text-anchor="middle" x="549" y="-188" font-family="FreeSans" font-size="10.00">myValues</text>
</g>
<!-- Node9&#45;&gt;Node8 -->
<g id="edge8" class="edge"><title>Node9&#45;&gt;Node8</title>
<path fill="none" stroke="orange" stroke-dasharray="5,2" d="M216.217,-178.681C256.475,-179.929 311.577,-181.638 354.333,-182.964"/>
<polygon fill="orange" stroke="orange" points="216.162,-175.178 206.059,-178.366 215.945,-182.175 216.162,-175.178"/>
<text text-anchor="middle" x="280" y="-186" font-family="FreeSans" font-size="10.00"> &lt; Component, M *N &gt;</text>
</g>
<!-- Node10&#45;&gt;Node7 -->
<g id="edge10" class="edge"><title>Node10&#45;&gt;Node7</title>
<path fill="none" stroke="orange" stroke-dasharray="5,2" d="M758.198,-195.66C787.16,-200.069 820.195,-205.646 850,-212 863.245,-214.824 877.419,-218.364 890.608,-221.883"/>
<polygon fill="orange" stroke="orange" points="758.544,-192.172 748.135,-194.149 757.505,-199.095 758.544,-192.172"/>
<text text-anchor="middle" x="808" y="-215" font-family="FreeSans" font-size="10.00"> &lt; Integer, 3, 3 &gt;</text>
</g>
<!-- Node11&#45;&gt;Node3 -->
<g id="edge12" class="edge"><title>Node11&#45;&gt;Node3</title>
<path fill="none" stroke="orange" stroke-dasharray="5,2" d="M1314.28,-134.084C1316.88,-134.053 1319.46,-134.025 1322,-134 1374.44,-133.491 1387.57,-132.74 1440,-134 1446.14,-134.148 1452.49,-134.344 1458.88,-134.574"/>
<polygon fill="orange" stroke="orange" points="1314.1,-130.586 1304.15,-134.218 1314.2,-137.585 1314.1,-130.586"/>
<text text-anchor="middle" x="1381" y="-137" font-family="FreeSans" font-size="10.00"> &lt; Functor, true, false &gt;</text>
</g>
<!-- Node11&#45;&gt;Node12 -->
<g id="edge17" class="edge"><title>Node11&#45;&gt;Node12</title>
<path fill="none" stroke="orange" stroke-dasharray="5,2" d="M1314.36,-147.852C1353.44,-153.216 1399.02,-160.126 1440,-168 1454.86,-170.856 1470.8,-174.427 1485.63,-177.969"/>
<polygon fill="orange" stroke="orange" points="1314.43,-144.329 1304.05,-146.451 1313.49,-151.265 1314.43,-144.329"/>
<text text-anchor="middle" x="1381" y="-171" font-family="FreeSans" font-size="10.00"> &lt; Functor, false, false &gt;</text>
</g>
<!-- Node12&#45;&gt;Node2 -->
<g id="edge14" class="edge"><title>Node12&#45;&gt;Node2</title>
<path fill="none" stroke="#9a32cd" stroke-dasharray="5,2" d="M1642.11,-190.05C1757.59,-186.119 1957.15,-178.094 2128,-165 2133.8,-164.556 2139.78,-164.06 2145.8,-163.533"/>
<polygon fill="#9a32cd" stroke="#9a32cd" points="1641.76,-186.56 1631.89,-190.395 1642,-193.556 1641.76,-186.56"/>
<text text-anchor="middle" x="1862" y="-188" font-family="FreeSans" font-size="10.00"> myBackwardPredicate</text>
</g>
<!-- Node12&#45;&gt;Node16 -->
<g id="edge26" class="edge"><title>Node12&#45;&gt;Node16</title>
<path fill="none" stroke="#9a32cd" stroke-dasharray="5,2" d="M1627.34,-175.737C1667.63,-166.458 1716.79,-154.043 1760,-140 1763.34,-138.914 1796.79,-125.292 1824.3,-114.043"/>
<polygon fill="#9a32cd" stroke="#9a32cd" points="1626.54,-172.33 1617.56,-177.967 1628.09,-179.155 1626.54,-172.33"/>
<text text-anchor="middle" x="1705" y="-173" font-family="FreeSans" font-size="10.00"> myBackwardPredicate</text>
</g>
<!-- Node13 -->
<g id="node13" class="node"><title>Node13</title>
<polygon fill="white" stroke="#bfbfbf" points="1488,-0.5 1488,-19.5 1602,-19.5 1602,-0.5 1488,-0.5"/>
<text text-anchor="middle" x="1545" y="-7.5" font-family="FreeSans" font-size="10.00">std::deque&lt; Point &gt;</text>
</g>
<!-- Node13&#45;&gt;Node2 -->
<g id="edge18" class="edge"><title>Node13&#45;&gt;Node2</title>
<path fill="none" stroke="#9a32cd" stroke-dasharray="5,2" d="M1612.42,-10.9339C1722.91,-14.4381 1949.91,-29.9969 2128,-97 2153.17,-106.47 2179.45,-121.755 2198.89,-134.257"/>
<polygon fill="#9a32cd" stroke="#9a32cd" points="1612.2,-7.42587 1602.1,-10.6311 1611.99,-14.4229 1612.2,-7.42587"/>
<text text-anchor="middle" x="1862" y="-49" font-family="FreeSans" font-size="10.00"> myContainer</text>
</g>
<!-- Node13&#45;&gt;Node16 -->
<g id="edge27" class="edge"><title>Node13&#45;&gt;Node16</title>
<path fill="none" stroke="#9a32cd" stroke-dasharray="5,2" d="M1612.34,-19.3044C1655.12,-26.2841 1711.6,-37.3444 1760,-53 1785.3,-61.1831 1812.67,-73.9108 1832.53,-83.9056"/>
<polygon fill="#9a32cd" stroke="#9a32cd" points="1612.75,-15.8262 1602.32,-17.7042 1611.64,-22.7385 1612.75,-15.8262"/>
<text text-anchor="middle" x="1705" y="-56" font-family="FreeSans" font-size="10.00"> myContainer</text>
</g>
<!-- Node14 -->
<g id="node14" class="node"><title>Node14</title>
<polygon fill="white" stroke="#bfbfbf" points="1187,-30.5 1187,-49.5 1249,-49.5 1249,-30.5 1187,-30.5"/>
<text text-anchor="middle" x="1218" y="-37.5" font-family="FreeSans" font-size="10.00">MyPointD</text>
</g>
<!-- Node14&#45;&gt;Node13 -->
<g id="edge19" class="edge"><title>Node14&#45;&gt;Node13</title>
<path fill="none" stroke="#9a32cd" stroke-dasharray="5,2" d="M1259.44,-36.2669C1316.96,-30.9577 1422.62,-21.2047 1487.74,-15.193"/>
<polygon fill="#9a32cd" stroke="#9a32cd" points="1258.92,-32.8002 1249.28,-37.2046 1259.56,-39.7705 1258.92,-32.8002"/>
<text text-anchor="middle" x="1381" y="-34" font-family="FreeSans" font-size="10.00"> elements</text>
</g>
<!-- Node15&#45;&gt;Node13 -->
<g id="edge20" class="edge"><title>Node15&#45;&gt;Node13</title>
<path fill="none" stroke="orange" stroke-dasharray="5,2" d="M337.724,-17.9307C391.684,-10.96 475.201,-2 548,-2 548,-2 548,-2 1219,-2 1313.4,-2 1423.17,-5.41462 1487.94,-7.78218"/>
<polygon fill="orange" stroke="orange" points="337.13,-14.4787 327.671,-19.2508 338.041,-21.4191 337.13,-14.4787"/>
<text text-anchor="middle" x="808" y="-5" font-family="FreeSans" font-size="10.00"> &lt; Point &gt;</text>
</g>
<!-- Node16&#45;&gt;Node2 -->
<g id="edge23" class="edge"><title>Node16&#45;&gt;Node2</title>
<path fill="none" stroke="orange" stroke-dasharray="5,2" d="M1956.22,-99.9728C2007.4,-102.018 2071.72,-107.072 2128,-119 2145.21,-122.648 2163.48,-128.508 2179.67,-134.45"/>
<polygon fill="orange" stroke="orange" points="1956.29,-96.4731 1946.17,-99.6027 1956.03,-103.468 1956.29,-96.4731"/>
<text text-anchor="start" x="1964.5" y="-133" font-family="FreeSans" font-size="10.00"> &lt; InputPoint, DGtal</text>
<text text-anchor="middle" x="2046" y="-122" font-family="FreeSans" font-size="10.00">::InHalfPlaneBySimple3x3Matrix &gt;</text>
</g>
<!-- Node17 -->
<g id="node17" class="node"><title>Node17</title>
<polygon fill="white" stroke="#bfbfbf" points="1490,-47.5 1490,-66.5 1600,-66.5 1600,-47.5 1490,-47.5"/>
<text text-anchor="middle" x="1545" y="-54.5" font-family="FreeSans" font-size="10.00">TOrientationFunctor</text>
</g>
<!-- Node17&#45;&gt;Node16 -->
<g id="edge24" class="edge"><title>Node17&#45;&gt;Node16</title>
<path fill="none" stroke="#9a32cd" stroke-dasharray="5,2" d="M1610.46,-62.5917C1653.03,-66.6123 1709.97,-72.6173 1760,-80 1768.03,-81.1851 1776.4,-82.5492 1784.73,-83.9911"/>
<polygon fill="#9a32cd" stroke="#9a32cd" points="1610.52,-59.082 1600.24,-61.638 1609.87,-66.0518 1610.52,-59.082"/>
<text text-anchor="middle" x="1705" y="-83" font-family="FreeSans" font-size="10.00"> myDefaultFunctor</text>
</g>
<!-- Node18 -->
<g id="node18" class="node"><title>Node18</title>
<polygon fill="white" stroke="#bfbfbf" points="1522,-85.5 1522,-104.5 1568,-104.5 1568,-85.5 1522,-85.5"/>
<text text-anchor="middle" x="1545" y="-92.5" font-family="FreeSans" font-size="10.00">TPoint</text>
</g>
<!-- Node18&#45;&gt;Node16 -->
<g id="edge28" class="edge"><title>Node18&#45;&gt;Node16</title>
<path fill="none" stroke="#9a32cd" stroke-dasharray="5,2" d="M1578.34,-94.8994C1620.25,-94.8269 1695.58,-94.893 1760,-96 1765.79,-96.0995 1771.76,-96.2231 1777.78,-96.3631"/>
<polygon fill="#9a32cd" stroke="#9a32cd" points="1578.18,-91.3997 1568.18,-94.9209 1578.19,-98.3996 1578.18,-91.3997"/>
<text text-anchor="middle" x="1705" y="-99" font-family="FreeSans" font-size="10.00"> myFirstPoint</text>
</g>
</g>
</svg>
        <g id="navigator" transform="translate(0 0)" fill="#404254">
                <rect fill="#f2f5e9" fill-opacity="0.5" stroke="#606060" stroke-width=".5" x="0" y="0" width="60" height="60"/>
                <use id="zoomplus" xlink:href="#zoomPlus" x="17" y="9" onmousedown="handleZoom(evt,'in')"/>
                <use id="zoomminus" xlink:href="#zoomMin" x="42" y="9" onmousedown="handleZoom(evt,'out')"/>
                <use id="reset" xlink:href="#resetDef" x="30" y="36" onmousedown="handleReset()"/>
                <g id="arrowUp" xlink:href="#dirArrow" transform="translate(30 24)" onmousedown="handlePan(0,-1)">
                  <use xlink:href="#rim" fill="#404040">
                        <set attributeName="fill" to="#808080" begin="arrowUp.mouseover" end="arrowUp.mouseout"/>
                  </use>
                  <path fill="none" stroke="white" stroke-width="1.5" d="M0,-3.0v7 M-2.5,-0.5L0,-3.0L2.5,-0.5"/>
                </g>
                <g id="arrowRight" xlink:href="#dirArrow" transform="rotate(90) translate(36 -43)" onmousedown="handlePan(1,0)">
                  <use xlink:href="#rim" fill="#404040">
                        <set attributeName="fill" to="#808080" begin="arrowRight.mouseover" end="arrowRight.mouseout"/>
                  </use>
                  <path fill="none" stroke="white" stroke-width="1.5" d="M0,-3.0v7 M-2.5,-0.5L0,-3.0L2.5,-0.5"/>
                </g>
                <g id="arrowDown" xlink:href="#dirArrow" transform="rotate(180) translate(-30 -48)" onmousedown="handlePan(0,1)">
                  <use xlink:href="#rim" fill="#404040">
                        <set attributeName="fill" to="#808080" begin="arrowDown.mouseover" end="arrowDown.mouseout"/>
                  </use>
                  <path fill="none" stroke="white" stroke-width="1.5" d="M0,-3.0v7 M-2.5,-0.5L0,-3.0L2.5,-0.5"/>
                </g>
                <g id="arrowLeft" xlink:href="#dirArrow" transform="rotate(270) translate(-36 17)" onmousedown="handlePan(-1,0)">
                  <use xlink:href="#rim" fill="#404040">
                        <set attributeName="fill" to="#808080" begin="arrowLeft.mouseover" end="arrowLeft.mouseout"/>
                  </use>
                  <path fill="none" stroke="white" stroke-width="1.5" d="M0,-3.0v7 M-2.5,-0.5L0,-3.0L2.5,-0.5"/>
                </g>
        </g>
        <svg viewBox="0 0 15 15" width="100%" height="30px" preserveAspectRatio="xMaxYMin meet">
         <g id="arrow_out" transform="scale(0.3 0.3)">
          <a xlink:href="structDGtal_1_1AlphaThickSegmentComputer_1_1State__coll__graph_org.svg" target="_base">
           <rect id="button" ry="5" rx="5" y="6" x="6" height="38" width="38"
                fill="#f2f5e9" fill-opacity="0.5" stroke="#606060" stroke-width="1.0"/>
           <path id="arrow"
             d="M 11.500037,31.436501 C 11.940474,20.09759 22.043105,11.32322 32.158766,21.979434 L 37.068811,17.246167 C 37.068811,17.246167 37.088388,32 37.088388,32 L 22.160133,31.978069 C 22.160133,31.978069 26.997745,27.140456 26.997745,27.140456 C 18.528582,18.264221 13.291696,25.230495 11.500037,31.436501 z"
             style="fill:#404040;"/>
          </a>
         </g>
        </svg>
</svg>
