<?xml version="1.0" encoding="UTF-8" standalone="no"?>
<!DOCTYPE svg PUBLIC "-//W3C//DTD SVG 1.1//EN"
 "http://www.w3.org/Graphics/SVG/1.1/DTD/svg11.dtd">
<!-- Generated by graphviz version 2.40.1 (20161225.0304)
 -->
<!-- Title: DGtal::concepts::CPowerSeparableMetric&lt; T &gt; Pages: 1 -->
<svg width="375pt" height="158pt"
 viewBox="0.00 0.00 375.29 158.00" xmlns="http://www.w3.org/2000/svg" xmlns:xlink="http://www.w3.org/1999/xlink">
<g id="graph0" class="graph" transform="scale(1 1) rotate(0) translate(4 154)">
<title>DGtal::concepts::CPowerSeparableMetric&lt; T &gt;</title>
<polygon fill="#ffffff" stroke="transparent" points="-4,4 -4,-154 371.2866,-154 371.2866,4 -4,4"/>
<!-- Node4 -->
<g id="node1" class="node">
<title>Node4</title>
<polygon fill="#bfbfbf" stroke="#000000" points="193.4302,-.5 193.4302,-28.5 367.2866,-28.5 367.2866,-.5 193.4302,-.5"/>
<text text-anchor="start" x="201.4302" y="-16.5" font-family="FreeSans" font-size="10.00" fill="#000000">DGtal::concepts::CPowerSeparable</text>
<text text-anchor="middle" x="280.3584" y="-6.5" font-family="FreeSans" font-size="10.00" fill="#000000">Metric&lt; T &gt;</text>
</g>
<!-- Node5 -->
<g id="node2" class="node">
<title>Node5</title>
<g id="a_node2"><a xlink:href="structDGtal_1_1concepts_1_1CPowerMetric.html" target="_top" xlink:title="Aim: defines the concept of special weighted metrics, so called power metrics. ">
<polygon fill="#ffffff" stroke="#000000" points="129.1182,-66.5 129.1182,-84.5 307.5986,-84.5 307.5986,-66.5 129.1182,-66.5"/>
<text text-anchor="middle" x="218.3584" y="-72.5" font-family="FreeSans" font-size="10.00" fill="#000000">DGtal::concepts::CPowerMetric&lt; T &gt;</text>
</a>
</g>
</g>
<!-- Node5&#45;&gt;Node4 -->
<g id="edge1" class="edge">
<title>Node5&#45;&gt;Node4</title>
<path fill="none" stroke="#191970" d="M234.6409,-59.4801C244.3317,-49.9456 256.5211,-37.9528 265.876,-28.7488"/>
<polygon fill="#191970" stroke="#191970" points="232.1804,-56.9909 227.5067,-66.4992 237.0897,-61.9808 232.1804,-56.9909"/>
</g>
<!-- Node6 -->
<g id="node3" class="node">
<title>Node6</title>
<g id="a_node3"><a xlink:href="structboost_1_1CopyConstructible.html" target="_top" xlink:title="Go to http://www.sgi.com/tech/stl/CopyConstructible.html. ">
<polygon fill="#ffffff" stroke="#000000" points="0,-131.5 0,-149.5 150.7168,-149.5 150.7168,-131.5 0,-131.5"/>
<text text-anchor="middle" x="75.3584" y="-137.5" font-family="FreeSans" font-size="10.00" fill="#000000">boost::CopyConstructible&lt; T &gt;</text>
</a>
</g>
</g>
<!-- Node6&#45;&gt;Node5 -->
<g id="edge2" class="edge">
<title>Node6&#45;&gt;Node5</title>
<path fill="none" stroke="#191970" d="M104.4984,-127.2545C132.3949,-114.5743 173.7453,-95.7787 198.1827,-84.6708"/>
<polygon fill="#191970" stroke="#191970" points="102.8973,-124.1377 95.2419,-131.462 105.7939,-130.5102 102.8973,-124.1377"/>
</g>
<!-- Node7 -->
<g id="node4" class="node">
<title>Node7</title>
<g id="a_node4"><a xlink:href="structboost_1_1Assignable.html" target="_top" xlink:title="Go to http://www.sgi.com/tech/stl/Assignable.html. ">
<polygon fill="#ffffff" stroke="#000000" points="168.3916,-131.5 168.3916,-149.5 286.3252,-149.5 286.3252,-131.5 168.3916,-131.5"/>
<text text-anchor="middle" x="227.3584" y="-137.5" font-family="FreeSans" font-size="10.00" fill="#000000">boost::Assignable&lt; T &gt;</text>
</a>
</g>
</g>
<!-- Node7&#45;&gt;Node5 -->
<g id="edge3" class="edge">
<title>Node7&#45;&gt;Node5</title>
<path fill="none" stroke="#191970" d="M224.7271,-121.4959C223.0604,-109.4586 220.9778,-94.4178 219.6575,-84.8821"/>
<polygon fill="#191970" stroke="#191970" points="221.2684,-122.0366 226.107,-131.462 228.2023,-121.0765 221.2684,-122.0366"/>
</g>
<!-- Node8 -->
<g id="node5" class="node">
<title>Node8</title>
<polygon fill="#ffffff" stroke="#bfbfbf" points="320.8584,-131.5 320.8584,-149.5 349.8584,-149.5 349.8584,-131.5 320.8584,-131.5"/>
<text text-anchor="middle" x="334.9126" y="-137.5" font-family="FreeSans" font-size="10.00" fill="#000000">T</text>
</g>
<!-- Node8&#45;&gt;Node4 -->
<g id="edge5" class="edge">
<title>Node8&#45;&gt;Node4</title>
<path fill="none" stroke="#9a32cd" stroke-dasharray="5,2" d="M332.4665,-121.5172C329.6599,-106.0704 324.5953,-83.9652 316.3584,-66 310.0842,-52.3155 300.1132,-38.4193 292.2542,-28.5162"/>
<polygon fill="#9a32cd" stroke="#9a32cd" points="329.0232,-122.1475 334.1241,-131.4336 335.9274,-120.9934 329.0232,-122.1475"/>
<text text-anchor="middle" x="334.7476" y="-72.5" font-family="FreeSans" font-size="10.00" fill="#000000"> myX</text>
</g>
<!-- Node8&#45;&gt;Node5 -->
<g id="edge4" class="edge">
<title>Node8&#45;&gt;Node5</title>
<path fill="none" stroke="#9a32cd" stroke-dasharray="5,2" d="M311.5148,-127.2535C288.7183,-114.5889 254.9423,-95.8244 234.9393,-84.7116"/>
<polygon fill="#9a32cd" stroke="#9a32cd" points="310.0989,-130.4708 320.5403,-132.2677 313.4985,-124.3517 310.0989,-130.4708"/>
<text text-anchor="middle" x="295.7476" y="-105" font-family="FreeSans" font-size="10.00" fill="#000000"> myX</text>
</g>
</g>
</svg>
