<?xml version="1.0" encoding="UTF-8" standalone="no"?>
<!DOCTYPE svg PUBLIC "-//W3C//DTD SVG 1.1//EN"
 "http://www.w3.org/Graphics/SVG/1.1/DTD/svg11.dtd">
<!-- Generated by graphviz version 2.36.0 (20140111.2315)
 -->
<!-- Title: DGtal::CustomStyle3D Pages: 1 -->
<!--zoomable 100 -->
<svg id="main" version="1.1" xmlns="http://www.w3.org/2000/svg" xmlns:xlink="http://www.w3.org/1999/xlink" xml:space="preserve" onload="init(evt)">
<style type="text/css"><![CDATA[
.edge:hover path { stroke: red; }
.edge:hover polygon { stroke: red; fill: red; }
]]></style>
<script type="text/javascript"><![CDATA[
var edges = document.getElementsByTagName('g');
if (edges && edges.length) {
  for (var i=0;i<edges.length;i++) {
    if (edges[i].id.substr(0,4)=='edge') {
      edges[i].setAttribute('class','edge');
    }
  }
}
]]></script>
        <defs>
                <circle id="rim" cx="0" cy="0" r="7"/>
                <circle id="rim2" cx="0" cy="0" r="3.5"/>
                <g id="zoomPlus">
                        <use xlink:href="#rim" fill="#404040">
                                <set attributeName="fill" to="#808080" begin="zoomplus.mouseover" end="zoomplus.mouseout"/>
                        </use>
                        <path d="M-4,0h8M0,-4v8" fill="none" stroke="white" stroke-width="1.5" pointer-events="none"/>
                </g>
                <g id="zoomMin">
                        <use xlink:href="#rim" fill="#404040">
                                <set attributeName="fill" to="#808080" begin="zoomminus.mouseover" end="zoomminus.mouseout"/>
                        </use>
                        <path d="M-4,0h8" fill="none" stroke="white" stroke-width="1.5" pointer-events="none"/>
                </g>
                <g id="dirArrow">
                        <path fill="none" stroke="white" stroke-width="1.5" d="M0,-3.0v7 M-2.5,-0.5L0,-3.0L2.5,-0.5"/>
                </g>
               <g id="resetDef">
                       <use xlink:href="#rim2" fill="#404040">
                               <set attributeName="fill" to="#808080" begin="reset.mouseover" end="reset.mouseout"/>
                       </use>
               </g>
        </defs>

<script type="text/javascript">
var viewWidth = 940;
var viewHeight = 100;
var sectionId = 'dynsection-1';
</script>
<script xlink:href="svgpan.js"/>
<svg id="graph" class="graph">
<g id="viewport">
<title>DGtal::CustomStyle3D</title>
<polygon fill="white" stroke="none" points="-4,4 -4,-96 936,-96 936,4 -4,4"/>
<!-- Node1 -->
<g id="node1" class="node"><title>Node1</title>
<polygon fill="#bfbfbf" stroke="black" points="806.5,-54.5 806.5,-73.5 931.5,-73.5 931.5,-54.5 806.5,-54.5"/>
<text text-anchor="middle" x="869" y="-61.5" font-family="FreeSans" font-size="10.00">DGtal::CustomStyle3D</text>
</g>
<!-- Node2 -->
<g id="node2" class="node"><title>Node2</title>
<g id="a_node2"><a xlink:href="structDGtal_1_1DrawWithDisplay3DModifier.html" target="_top" xlink:title="Base class specifying the methods for classes which intend to modify a Viewer3D stream. ">
<polygon fill="white" stroke="black" points="546.5,-72.5 546.5,-91.5 725.5,-91.5 725.5,-72.5 546.5,-72.5"/>
<text text-anchor="middle" x="636" y="-79.5" font-family="FreeSans" font-size="10.00">DGtal::DrawWithDisplay3DModifier</text>
</a>
</g>
</g>
<!-- Node2&#45;&gt;Node1 -->
<g id="edge1" class="edge"><title>Node2&#45;&gt;Node1</title>
<path fill="none" stroke="midnightblue" d="M735.85,-74.2974C759.817,-72.4298 784.762,-70.4861 806.438,-68.7971"/>
<polygon fill="midnightblue" stroke="midnightblue" points="735.348,-70.8258 725.65,-75.0922 735.892,-77.8047 735.348,-70.8258"/>
</g>
<!-- Node3 -->
<g id="node3" class="node"><title>Node3</title>
<g id="a_node3"><a xlink:href="classDGtal_1_1CountedPtr.html" target="_top" xlink:title="DGtal::CountedPtr\&lt;\l DGtal::DrawableWithDisplay3D \&gt;">
<polygon fill="white" stroke="black" points="548,-23 548,-53 724,-53 724,-23 548,-23"/>
<text text-anchor="start" x="556" y="-41" font-family="FreeSans" font-size="10.00">DGtal::CountedPtr&lt;</text>
<text text-anchor="middle" x="636" y="-30" font-family="FreeSans" font-size="10.00"> DGtal::DrawableWithDisplay3D &gt;</text>
</a>
</g>
</g>
<!-- Node3&#45;&gt;Node1 -->
<g id="edge2" class="edge"><title>Node3&#45;&gt;Node1</title>
<path fill="none" stroke="#9a32cd" stroke-dasharray="5,2" d="M734.033,-48.9215C758.487,-51.6738 784.074,-54.5538 806.256,-57.0505"/>
<polygon fill="#9a32cd" stroke="#9a32cd" points="734.331,-45.433 724.002,-47.7924 733.548,-52.389 734.331,-45.433"/>
<text text-anchor="middle" x="766" y="-57" font-family="FreeSans" font-size="10.00"> myStyle</text>
</g>
<!-- Node4 -->
<g id="node4" class="node"><title>Node4</title>
<g id="a_node4"><a xlink:href="structDGtal_1_1CountedPtr_1_1Counter.html" target="_top" xlink:title="DGtal::CountedPtr\&lt;\l T \&gt;::Counter">
<polygon fill="white" stroke="black" points="0,-23 0,-53 112,-53 112,-23 0,-23"/>
<text text-anchor="start" x="8" y="-41" font-family="FreeSans" font-size="10.00">DGtal::CountedPtr&lt;</text>
<text text-anchor="middle" x="56" y="-30" font-family="FreeSans" font-size="10.00"> T &gt;::Counter</text>
</a>
</g>
</g>
<!-- Node4&#45;&gt;Node3 -->
<g id="edge3" class="edge"><title>Node4&#45;&gt;Node3</title>
<path fill="none" stroke="#9a32cd" stroke-dasharray="5,2" d="M122.386,-41.7579C124.957,-41.8501 127.502,-41.9316 130,-42 306.823,-46.8408 351.142,-45.3046 528,-42 534.505,-41.8785 541.232,-41.7154 547.997,-41.5244"/>
<polygon fill="#9a32cd" stroke="#9a32cd" points="122.523,-38.2606 112.39,-41.3541 122.241,-45.2549 122.523,-38.2606"/>
<text text-anchor="middle" x="272" y="-48" font-family="FreeSans" font-size="10.00"> myCounter</text>
</g>
<!-- Node5 -->
<g id="node5" class="node"><title>Node5</title>
<g id="a_node5"><a xlink:href="classDGtal_1_1CountedPtr.html" target="_top" xlink:title="Aim: Smart pointer based on reference counts. ">
<polygon fill="white" stroke="black" points="206.5,-0.5 206.5,-19.5 337.5,-19.5 337.5,-0.5 206.5,-0.5"/>
<text text-anchor="middle" x="272" y="-7.5" font-family="FreeSans" font-size="10.00">DGtal::CountedPtr&lt; T &gt;</text>
</a>
</g>
</g>
<!-- Node4&#45;&gt;Node5 -->
<g id="edge5" class="edge"><title>Node4&#45;&gt;Node5</title>
<path fill="none" stroke="#9a32cd" stroke-dasharray="5,2" d="M122.111,-29.4808C148.775,-25.992 179.561,-21.964 206.194,-18.4793"/>
<polygon fill="#9a32cd" stroke="#9a32cd" points="121.572,-26.0214 112.11,-30.7893 122.48,-32.9623 121.572,-26.0214"/>
<text text-anchor="middle" x="159" y="-32" font-family="FreeSans" font-size="10.00"> myCounter</text>
</g>
<!-- Node5&#45;&gt;Node3 -->
<g id="edge4" class="edge"><title>Node5&#45;&gt;Node3</title>
<path fill="none" stroke="orange" stroke-dasharray="5,2" d="M347.933,-15.7959C406.043,-20.2907 486.693,-26.5287 547.716,-31.2488"/>
<polygon fill="orange" stroke="orange" points="347.959,-12.2875 337.718,-15.0058 347.419,-19.2667 347.959,-12.2875"/>
<text text-anchor="middle" x="442" y="-32" font-family="FreeSans" font-size="10.00"> &lt; DGtal::DrawableWithDisplay3D &gt;</text>
</g>
</g>
</svg>
        <g id="navigator" transform="translate(0 0)" fill="#404254">
                <rect fill="#f2f5e9" fill-opacity="0.5" stroke="#606060" stroke-width=".5" x="0" y="0" width="60" height="60"/>
                <use id="zoomplus" xlink:href="#zoomPlus" x="17" y="9" onmousedown="handleZoom(evt,'in')"/>
                <use id="zoomminus" xlink:href="#zoomMin" x="42" y="9" onmousedown="handleZoom(evt,'out')"/>
                <use id="reset" xlink:href="#resetDef" x="30" y="36" onmousedown="handleReset()"/>
                <g id="arrowUp" xlink:href="#dirArrow" transform="translate(30 24)" onmousedown="handlePan(0,-1)">
                  <use xlink:href="#rim" fill="#404040">
                        <set attributeName="fill" to="#808080" begin="arrowUp.mouseover" end="arrowUp.mouseout"/>
                  </use>
                  <path fill="none" stroke="white" stroke-width="1.5" d="M0,-3.0v7 M-2.5,-0.5L0,-3.0L2.5,-0.5"/>
                </g>
                <g id="arrowRight" xlink:href="#dirArrow" transform="rotate(90) translate(36 -43)" onmousedown="handlePan(1,0)">
                  <use xlink:href="#rim" fill="#404040">
                        <set attributeName="fill" to="#808080" begin="arrowRight.mouseover" end="arrowRight.mouseout"/>
                  </use>
                  <path fill="none" stroke="white" stroke-width="1.5" d="M0,-3.0v7 M-2.5,-0.5L0,-3.0L2.5,-0.5"/>
                </g>
                <g id="arrowDown" xlink:href="#dirArrow" transform="rotate(180) translate(-30 -48)" onmousedown="handlePan(0,1)">
                  <use xlink:href="#rim" fill="#404040">
                        <set attributeName="fill" to="#808080" begin="arrowDown.mouseover" end="arrowDown.mouseout"/>
                  </use>
                  <path fill="none" stroke="white" stroke-width="1.5" d="M0,-3.0v7 M-2.5,-0.5L0,-3.0L2.5,-0.5"/>
                </g>
                <g id="arrowLeft" xlink:href="#dirArrow" transform="rotate(270) translate(-36 17)" onmousedown="handlePan(-1,0)">
                  <use xlink:href="#rim" fill="#404040">
                        <set attributeName="fill" to="#808080" begin="arrowLeft.mouseover" end="arrowLeft.mouseout"/>
                  </use>
                  <path fill="none" stroke="white" stroke-width="1.5" d="M0,-3.0v7 M-2.5,-0.5L0,-3.0L2.5,-0.5"/>
                </g>
        </g>
        <svg viewBox="0 0 15 15" width="100%" height="30px" preserveAspectRatio="xMaxYMin meet">
         <g id="arrow_out" transform="scale(0.3 0.3)">
          <a xlink:href="structDGtal_1_1CustomStyle3D__coll__graph_org.svg" target="_base">
           <rect id="button" ry="5" rx="5" y="6" x="6" height="38" width="38"
                fill="#f2f5e9" fill-opacity="0.5" stroke="#606060" stroke-width="1.0"/>
           <path id="arrow"
             d="M 11.500037,31.436501 C 11.940474,20.09759 22.043105,11.32322 32.158766,21.979434 L 37.068811,17.246167 C 37.068811,17.246167 37.088388,32 37.088388,32 L 22.160133,31.978069 C 22.160133,31.978069 26.997745,27.140456 26.997745,27.140456 C 18.528582,18.264221 13.291696,25.230495 11.500037,31.436501 z"
             style="fill:#404040;"/>
          </a>
         </g>
        </svg>
</svg>
