<?xml version="1.0" encoding="UTF-8" standalone="no"?>
<!DOCTYPE svg PUBLIC "-//W3C//DTD SVG 1.1//EN"
 "http://www.w3.org/Graphics/SVG/1.1/DTD/svg11.dtd">
<!-- Generated by graphviz version 2.36.0 (20140111.2315)
 -->
<!-- Title: LibBoard::Rectangle Pages: 1 -->
<svg width="500pt" height="480pt"
 viewBox="0.00 0.00 500.00 480.00" xmlns="http://www.w3.org/2000/svg" xmlns:xlink="http://www.w3.org/1999/xlink">
<g id="graph0" class="graph" transform="scale(1 1) rotate(0) translate(4 476)">
<title>LibBoard::Rectangle</title>
<polygon fill="white" stroke="none" points="-4,4 -4,-476 496,-476 496,4 -4,4"/>
<!-- Node1 -->
<g id="node1" class="node"><title>Node1</title>
<polygon fill="#bfbfbf" stroke="black" points="-0.5,-0.5 -0.5,-19.5 110.5,-19.5 110.5,-0.5 -0.5,-0.5"/>
<text text-anchor="middle" x="55" y="-7.5" font-family="FreeSans" font-size="10.00">LibBoard::Rectangle</text>
</g>
<!-- Node2 -->
<g id="node2" class="node"><title>Node2</title>
<g id="a_node2"><a xlink:href="structLibBoard_1_1Polyline.html" target="_top" xlink:title="A polygonal line described by a series of 2D points. ">
<polygon fill="white" stroke="black" points="72.5,-58.5 72.5,-77.5 173.5,-77.5 173.5,-58.5 72.5,-58.5"/>
<text text-anchor="middle" x="123" y="-65.5" font-family="FreeSans" font-size="10.00">LibBoard::Polyline</text>
</a>
</g>
</g>
<!-- Node2&#45;&gt;Node1 -->
<g id="edge1" class="edge"><title>Node2&#45;&gt;Node1</title>
<path fill="none" stroke="midnightblue" d="M104.665,-51.9006C92.086,-41.5414 75.8458,-28.1671 65.4249,-19.5852"/>
<polygon fill="midnightblue" stroke="midnightblue" points="102.728,-54.8395 112.672,-58.4948 107.178,-49.4359 102.728,-54.8395"/>
</g>
<!-- Node3 -->
<g id="node3" class="node"><title>Node3</title>
<g id="a_node3"><a xlink:href="structLibBoard_1_1Shape.html" target="_top" xlink:title="Abstract structure for a 2D shape. ">
<polygon fill="white" stroke="black" points="132.5,-126.5 132.5,-145.5 227.5,-145.5 227.5,-126.5 132.5,-126.5"/>
<text text-anchor="middle" x="180" y="-133.5" font-family="FreeSans" font-size="10.00">LibBoard::Shape</text>
</a>
</g>
</g>
<!-- Node3&#45;&gt;Node2 -->
<g id="edge2" class="edge"><title>Node3&#45;&gt;Node2</title>
<path fill="none" stroke="midnightblue" d="M165.905,-118.68C154.762,-105.777 139.632,-88.2575 130.636,-77.8411"/>
<polygon fill="midnightblue" stroke="midnightblue" points="163.363,-121.091 172.548,-126.372 168.661,-116.516 163.363,-121.091"/>
</g>
<!-- Node4 -->
<g id="node4" class="node"><title>Node4</title>
<g id="a_node4"><a xlink:title="STL class. ">
<polygon fill="white" stroke="#bfbfbf" points="44.5,-254.5 44.5,-273.5 109.5,-273.5 109.5,-254.5 44.5,-254.5"/>
<text text-anchor="middle" x="77" y="-261.5" font-family="FreeSans" font-size="10.00">std::string</text>
</a>
</g>
</g>
<!-- Node4&#45;&gt;Node1 -->
<g id="edge13" class="edge"><title>Node4&#45;&gt;Node1</title>
<path fill="none" stroke="#9a32cd" stroke-dasharray="5,2" d="M73.3263,-244.366C67.8138,-215.358 57.6584,-157.579 54,-108 53.6075,-102.681 53.9686,-101.333 54,-96 54.1632,-68.2555 54.626,-35.4197 54.8604,-19.9332"/>
<polygon fill="#9a32cd" stroke="#9a32cd" points="69.9145,-245.157 75.2501,-254.31 76.787,-243.828 69.9145,-245.157"/>
<text text-anchor="middle" x="72.5" y="-99.5" font-family="FreeSans" font-size="10.00"> _name</text>
</g>
<!-- Node4&#45;&gt;Node2 -->
<g id="edge7" class="edge"><title>Node4&#45;&gt;Node2</title>
<path fill="none" stroke="#9a32cd" stroke-dasharray="5,2" d="M75.2899,-244.07C73.505,-217.096 72.5831,-166.395 86,-126 92.322,-106.966 106.564,-88.0757 115.419,-77.5319"/>
<polygon fill="#9a32cd" stroke="#9a32cd" points="71.8268,-244.679 76.0954,-254.376 78.8055,-244.134 71.8268,-244.679"/>
<text text-anchor="middle" x="104.5" y="-133.5" font-family="FreeSans" font-size="10.00"> _name</text>
</g>
<!-- Node4&#45;&gt;Node3 -->
<g id="edge3" class="edge"><title>Node4&#45;&gt;Node3</title>
<path fill="none" stroke="#9a32cd" stroke-dasharray="5,2" d="M84.5155,-244.952C94.0596,-223.662 112.191,-188.119 136,-164 143.43,-156.474 153.358,-150.149 161.904,-145.518"/>
<polygon fill="#9a32cd" stroke="#9a32cd" points="81.1868,-243.831 80.4275,-254.399 87.6111,-246.612 81.1868,-243.831"/>
<text text-anchor="middle" x="154.5" y="-172.5" font-family="FreeSans" font-size="10.00"> _name</text>
</g>
<!-- Node5 -->
<g id="node5" class="node"><title>Node5</title>
<g id="a_node5"><a xlink:title="STL class. ">
<polygon fill="white" stroke="#bfbfbf" points="25.5,-373 25.5,-403 128.5,-403 128.5,-373 25.5,-373"/>
<text text-anchor="start" x="33.5" y="-391" font-family="FreeSans" font-size="10.00">std::basic_string&lt;</text>
<text text-anchor="middle" x="77" y="-380" font-family="FreeSans" font-size="10.00"> char &gt;</text>
</a>
</g>
</g>
<!-- Node5&#45;&gt;Node4 -->
<g id="edge4" class="edge"><title>Node5&#45;&gt;Node4</title>
<path fill="none" stroke="midnightblue" d="M77,-362.5C77,-335.011 77,-291.879 77,-273.623"/>
<polygon fill="midnightblue" stroke="midnightblue" points="73.5001,-362.526 77,-372.526 80.5001,-362.526 73.5001,-362.526"/>
</g>
<!-- Node6 -->
<g id="node6" class="node"><title>Node6</title>
<g id="a_node6"><a xlink:href="classDGtal_1_1Color.html" target="_top" xlink:title="Structure representing an RGB triple with alpha component. ">
<polygon fill="white" stroke="black" points="135,-254.5 135,-273.5 209,-273.5 209,-254.5 135,-254.5"/>
<text text-anchor="middle" x="172" y="-261.5" font-family="FreeSans" font-size="10.00">DGtal::Color</text>
</a>
</g>
</g>
<!-- Node6&#45;&gt;Node3 -->
<g id="edge5" class="edge"><title>Node6&#45;&gt;Node3</title>
<path fill="none" stroke="#9a32cd" stroke-dasharray="5,2" d="M173.206,-244.011C174.965,-216.309 178.164,-165.923 179.446,-145.721"/>
<polygon fill="#9a32cd" stroke="#9a32cd" points="169.691,-244.138 172.55,-254.34 176.677,-244.581 169.691,-244.138"/>
<text text-anchor="middle" x="205" y="-178" font-family="FreeSans" font-size="10.00"> _penColor</text>
<text text-anchor="middle" x="205" y="-167" font-family="FreeSans" font-size="10.00">_fillColor</text>
</g>
<!-- Node6&#45;&gt;Node6 -->
<g id="edge6" class="edge"><title>Node6&#45;&gt;Node6</title>
<path fill="none" stroke="#9a32cd" stroke-dasharray="5,2" d="M193.488,-277.727C210.085,-282.839 227,-278.263 227,-264 227,-246.938 202.794,-243.738 183.884,-254.402"/>
<polygon fill="#9a32cd" stroke="#9a32cd" points="194.453,-274.332 183.884,-273.598 191.688,-280.763 194.453,-274.332"/>
<text text-anchor="middle" x="248.5" y="-316.5" font-family="FreeSans" font-size="10.00"> Yellow</text>
<text text-anchor="middle" x="248.5" y="-305.5" font-family="FreeSans" font-size="10.00">Lime</text>
<text text-anchor="middle" x="248.5" y="-294.5" font-family="FreeSans" font-size="10.00">Navy</text>
<text text-anchor="middle" x="248.5" y="-283.5" font-family="FreeSans" font-size="10.00">Magenta</text>
<text text-anchor="middle" x="248.5" y="-272.5" font-family="FreeSans" font-size="10.00">White</text>
<text text-anchor="middle" x="248.5" y="-261.5" font-family="FreeSans" font-size="10.00">None</text>
<text text-anchor="middle" x="248.5" y="-250.5" font-family="FreeSans" font-size="10.00">Blue</text>
<text text-anchor="middle" x="248.5" y="-239.5" font-family="FreeSans" font-size="10.00">Aqua</text>
<text text-anchor="middle" x="248.5" y="-228.5" font-family="FreeSans" font-size="10.00">Purple</text>
<text text-anchor="middle" x="248.5" y="-217.5" font-family="FreeSans" font-size="10.00">Silver</text>
<text text-anchor="middle" x="248.5" y="-206.5" font-family="FreeSans" font-size="10.00">...</text>
</g>
<!-- Node7 -->
<g id="node7" class="node"><title>Node7</title>
<g id="a_node7"><a xlink:href="structLibBoard_1_1Path.html" target="_top" xlink:title="A path, according to Postscript and SVG definition. ">
<polygon fill="white" stroke="black" points="261,-126.5 261,-145.5 347,-145.5 347,-126.5 261,-126.5"/>
<text text-anchor="middle" x="304" y="-133.5" font-family="FreeSans" font-size="10.00">LibBoard::Path</text>
</a>
</g>
</g>
<!-- Node7&#45;&gt;Node2 -->
<g id="edge8" class="edge"><title>Node7&#45;&gt;Node2</title>
<path fill="none" stroke="#9a32cd" stroke-dasharray="5,2" d="M270.748,-122.875C234.68,-109.723 178.029,-89.066 146.382,-77.5259"/>
<polygon fill="#9a32cd" stroke="#9a32cd" points="269.743,-126.234 280.337,-126.372 272.142,-119.658 269.743,-126.234"/>
<text text-anchor="middle" x="245.5" y="-99.5" font-family="FreeSans" font-size="10.00"> _path</text>
</g>
<!-- Node8 -->
<g id="node8" class="node"><title>Node8</title>
<polygon fill="white" stroke="#bfbfbf" points="288.5,-249 288.5,-279 409.5,-279 409.5,-249 288.5,-249"/>
<text text-anchor="start" x="296.5" y="-267" font-family="FreeSans" font-size="10.00">std::vector&lt; LibBoard</text>
<text text-anchor="middle" x="349" y="-256" font-family="FreeSans" font-size="10.00">::Point &gt;</text>
</g>
<!-- Node8&#45;&gt;Node7 -->
<g id="edge9" class="edge"><title>Node8&#45;&gt;Node7</title>
<path fill="none" stroke="#9a32cd" stroke-dasharray="5,2" d="M340.407,-238.941C330.253,-210.508 313.881,-164.667 307.097,-145.673"/>
<polygon fill="#9a32cd" stroke="#9a32cd" points="337.178,-240.306 343.838,-248.546 343.771,-237.952 337.178,-240.306"/>
<text text-anchor="middle" x="341" y="-172.5" font-family="FreeSans" font-size="10.00"> _points</text>
</g>
<!-- Node9 -->
<g id="node9" class="node"><title>Node9</title>
<g id="a_node9"><a xlink:href="structLibBoard_1_1Point.html" target="_top" xlink:title="Struct representing a 2D point. ">
<polygon fill="white" stroke="black" points="258.5,-378.5 258.5,-397.5 347.5,-397.5 347.5,-378.5 258.5,-378.5"/>
<text text-anchor="middle" x="303" y="-385.5" font-family="FreeSans" font-size="10.00">LibBoard::Point</text>
</a>
</g>
</g>
<!-- Node9&#45;&gt;Node8 -->
<g id="edge10" class="edge"><title>Node9&#45;&gt;Node8</title>
<path fill="none" stroke="#9a32cd" stroke-dasharray="5,2" d="M309.903,-368.692C319.135,-344.208 335.306,-301.32 343.663,-279.155"/>
<polygon fill="#9a32cd" stroke="#9a32cd" points="306.561,-367.634 306.308,-378.226 313.111,-370.104 306.561,-367.634"/>
<text text-anchor="middle" x="344.5" y="-345.5" font-family="FreeSans" font-size="10.00"> elements</text>
</g>
<!-- Node10 -->
<g id="node10" class="node"><title>Node10</title>
<g id="a_node10"><a xlink:title="STL class. ">
<polygon fill="white" stroke="#bfbfbf" points="365.5,-378.5 365.5,-397.5 460.5,-397.5 460.5,-378.5 365.5,-378.5"/>
<text text-anchor="middle" x="413" y="-385.5" font-family="FreeSans" font-size="10.00">std::vector&lt; T &gt;</text>
</a>
</g>
</g>
<!-- Node10&#45;&gt;Node8 -->
<g id="edge11" class="edge"><title>Node10&#45;&gt;Node8</title>
<path fill="none" stroke="orange" stroke-dasharray="5,2" d="M403.739,-369.347C390.956,-344.979 368.157,-301.518 356.426,-279.155"/>
<polygon fill="orange" stroke="orange" points="400.652,-370.997 408.397,-378.226 406.851,-367.745 400.652,-370.997"/>
<text text-anchor="middle" x="443" y="-345.5" font-family="FreeSans" font-size="10.00"> &lt; LibBoard::Point &gt;</text>
</g>
<!-- Node11 -->
<g id="node11" class="node"><title>Node11</title>
<polygon fill="white" stroke="#bfbfbf" points="398.5,-452.5 398.5,-471.5 427.5,-471.5 427.5,-452.5 398.5,-452.5"/>
<text text-anchor="middle" x="413" y="-459.5" font-family="FreeSans" font-size="10.00">T</text>
</g>
<!-- Node11&#45;&gt;Node10 -->
<g id="edge12" class="edge"><title>Node11&#45;&gt;Node10</title>
<path fill="none" stroke="#9a32cd" stroke-dasharray="5,2" d="M413,-442.156C413,-427.712 413,-408.459 413,-397.531"/>
<polygon fill="#9a32cd" stroke="#9a32cd" points="409.5,-442.458 413,-452.458 416.5,-442.458 409.5,-442.458"/>
<text text-anchor="middle" x="437.5" y="-425.5" font-family="FreeSans" font-size="10.00"> elements</text>
</g>
</g>
</svg>
