<?xml version="1.0" encoding="UTF-8" standalone="no"?>
<!DOCTYPE svg PUBLIC "-//W3C//DTD SVG 1.1//EN"
 "http://www.w3.org/Graphics/SVG/1.1/DTD/svg11.dtd">
<!-- Generated by graphviz version 2.36.0 (20140111.2315)
 -->
<!-- Title: DGtal::concepts::CDigitalSurfaceEmbedder&lt; T &gt; Pages: 1 -->
<svg width="297pt" height="374pt"
 viewBox="0.00 0.00 297.00 374.00" xmlns="http://www.w3.org/2000/svg" xmlns:xlink="http://www.w3.org/1999/xlink">
<g id="graph0" class="graph" transform="scale(1 1) rotate(0) translate(4 370)">
<title>DGtal::concepts::CDigitalSurfaceEmbedder&lt; T &gt;</title>
<polygon fill="white" stroke="none" points="-4,4 -4,-370 293,-370 293,4 -4,4"/>
<!-- Node1 -->
<g id="node1" class="node"><title>Node1</title>
<polygon fill="#bfbfbf" stroke="black" points="35,-1 35,-31 171,-31 171,-1 35,-1"/>
<text text-anchor="start" x="43" y="-19" font-family="FreeSans" font-size="10.00">DGtal::concepts::CDigital</text>
<text text-anchor="middle" x="103" y="-8" font-family="FreeSans" font-size="10.00">SurfaceEmbedder&lt; T &gt;</text>
</g>
<!-- Node2 -->
<g id="node2" class="node"><title>Node2</title>
<g id="a_node2"><a xlink:href="structDGtal_1_1concepts_1_1CSCellEmbedder.html" target="_top" xlink:title="Aim: A cell embedder is a mapping from signed cells to Euclidean points. It adds inner types to funct...">
<polygon fill="white" stroke="black" points="-0.5,-70.5 -0.5,-89.5 206.5,-89.5 206.5,-70.5 -0.5,-70.5"/>
<text text-anchor="middle" x="103" y="-77.5" font-family="FreeSans" font-size="10.00">DGtal::concepts::CSCellEmbedder&lt; T &gt;</text>
</a>
</g>
</g>
<!-- Node2&#45;&gt;Node1 -->
<g id="edge1" class="edge"><title>Node2&#45;&gt;Node1</title>
<path fill="none" stroke="midnightblue" d="M103,-60.1826C103,-50.8859 103,-39.8507 103,-31.263"/>
<polygon fill="midnightblue" stroke="midnightblue" points="99.5001,-60.3791 103,-70.3792 106.5,-60.3792 99.5001,-60.3791"/>
</g>
<!-- Node3 -->
<g id="node3" class="node"><title>Node3</title>
<g id="a_node3"><a xlink:href="structDGtal_1_1concepts_1_1CUnaryFunctor.html" target="_top" xlink:title="DGtal::concepts::CUnaryFunctor\l\&lt; T, T::SCell, T::RealPoint \&gt;">
<polygon fill="white" stroke="black" points="18,-129 18,-159 188,-159 188,-129 18,-129"/>
<text text-anchor="start" x="26" y="-147" font-family="FreeSans" font-size="10.00">DGtal::concepts::CUnaryFunctor</text>
<text text-anchor="middle" x="103" y="-136" font-family="FreeSans" font-size="10.00">&lt; T, T::SCell, T::RealPoint &gt;</text>
</a>
</g>
</g>
<!-- Node3&#45;&gt;Node2 -->
<g id="edge2" class="edge"><title>Node3&#45;&gt;Node2</title>
<path fill="none" stroke="midnightblue" d="M103,-118.871C103,-108.663 103,-97.4077 103,-89.8419"/>
<polygon fill="midnightblue" stroke="midnightblue" points="99.5001,-118.931 103,-128.931 106.5,-118.931 99.5001,-118.931"/>
</g>
<!-- Node4 -->
<g id="node4" class="node"><title>Node4</title>
<g id="a_node4"><a xlink:href="structboost_1_1Assignable.html" target="_top" xlink:title="Go to http://www.sgi.com/tech/stl/Assignable.html. ">
<polygon fill="white" stroke="black" points="54.5,-346.5 54.5,-365.5 183.5,-365.5 183.5,-346.5 54.5,-346.5"/>
<text text-anchor="middle" x="119" y="-353.5" font-family="FreeSans" font-size="10.00">boost::Assignable&lt; T &gt;</text>
</a>
</g>
</g>
<!-- Node4&#45;&gt;Node3 -->
<g id="edge3" class="edge"><title>Node4&#45;&gt;Node3</title>
<path fill="none" stroke="midnightblue" d="M116.066,-335.943C114.428,-324.883 112.435,-310.676 111,-298 108.09,-272.291 107.52,-265.829 106,-240 104.313,-211.337 103.533,-177.75 103.207,-159.174"/>
<polygon fill="midnightblue" stroke="midnightblue" points="112.651,-336.768 117.606,-346.133 119.572,-335.722 112.651,-336.768"/>
</g>
<!-- Node6 -->
<g id="node6" class="node"><title>Node6</title>
<g id="a_node6"><a xlink:href="structboost_1_1Assignable.html" target="_top" xlink:title="boost::Assignable\&lt; X \&gt;">
<polygon fill="white" stroke="black" points="120,-278.5 120,-297.5 250,-297.5 250,-278.5 120,-278.5"/>
<text text-anchor="middle" x="185" y="-285.5" font-family="FreeSans" font-size="10.00">boost::Assignable&lt; X &gt;</text>
</a>
</g>
</g>
<!-- Node4&#45;&gt;Node6 -->
<g id="edge6" class="edge"><title>Node4&#45;&gt;Node6</title>
<path fill="none" stroke="orange" stroke-dasharray="5,2" d="M134.953,-339.047C147.889,-326.111 165.643,-308.357 176.159,-297.841"/>
<polygon fill="orange" stroke="orange" points="132.225,-336.826 127.628,-346.372 137.174,-341.775 132.225,-336.826"/>
<text text-anchor="middle" x="173" y="-319.5" font-family="FreeSans" font-size="10.00"> &lt; X &gt;</text>
</g>
<!-- Node5 -->
<g id="node5" class="node"><title>Node5</title>
<g id="a_node5"><a xlink:href="structDGtal_1_1concepts_1_1CUnaryFunctor.html" target="_top" xlink:title="Aim: Defines a unary functor, which associates arguments to results. ">
<polygon fill="white" stroke="black" points="115,-209 115,-239 285,-239 285,-209 115,-209"/>
<text text-anchor="start" x="123" y="-227" font-family="FreeSans" font-size="10.00">DGtal::concepts::CUnaryFunctor</text>
<text text-anchor="middle" x="200" y="-216" font-family="FreeSans" font-size="10.00">&lt; X, A, R &gt;</text>
</a>
</g>
</g>
<!-- Node5&#45;&gt;Node3 -->
<g id="edge4" class="edge"><title>Node5&#45;&gt;Node3</title>
<path fill="none" stroke="orange" stroke-dasharray="5,2" d="M174.338,-202.364C157.415,-188.757 135.686,-171.283 120.679,-159.216"/>
<polygon fill="orange" stroke="orange" points="172.222,-205.155 182.209,-208.694 176.609,-199.699 172.222,-205.155"/>
<text text-anchor="middle" x="223" y="-181.5" font-family="FreeSans" font-size="10.00"> &lt; T, T::SCell, T::RealPoint &gt;</text>
</g>
<!-- Node6&#45;&gt;Node5 -->
<g id="edge5" class="edge"><title>Node6&#45;&gt;Node5</title>
<path fill="none" stroke="midnightblue" d="M189.479,-268.488C191.743,-259.129 194.449,-247.945 196.549,-239.263"/>
<polygon fill="midnightblue" stroke="midnightblue" points="186.035,-267.837 187.086,-278.379 192.839,-269.483 186.035,-267.837"/>
</g>
</g>
</svg>
