<?xml version="1.0" encoding="UTF-8" standalone="no"?>
<!DOCTYPE svg PUBLIC "-//W3C//DTD SVG 1.1//EN"
 "http://www.w3.org/Graphics/SVG/1.1/DTD/svg11.dtd">
<!-- Generated by graphviz version 2.36.0 (20140111.2315)
 -->
<!-- Title: DGtal::SetAssociativeCategory Pages: 1 -->
<svg width="712pt" height="136pt"
 viewBox="0.00 0.00 712.00 136.00" xmlns="http://www.w3.org/2000/svg" xmlns:xlink="http://www.w3.org/1999/xlink">
<g id="graph0" class="graph" transform="scale(1 1) rotate(0) translate(4 132)">
<title>DGtal::SetAssociativeCategory</title>
<polygon fill="white" stroke="none" points="-4,4 -4,-132 708,-132 708,4 -4,4"/>
<!-- Node1 -->
<g id="node1" class="node"><title>Node1</title>
<polygon fill="#bfbfbf" stroke="black" points="540,-54.5 540,-73.5 704,-73.5 704,-54.5 540,-54.5"/>
<text text-anchor="middle" x="622" y="-61.5" font-family="FreeSans" font-size="10.00">DGtal::SetAssociativeCategory</text>
</g>
<!-- Node2 -->
<g id="node2" class="node"><title>Node2</title>
<g id="a_node2"><a xlink:href="structDGtal_1_1OrderedAssociativeCategory.html" target="_top" xlink:title="DGtal::OrderedAssociative\lCategory">
<polygon fill="white" stroke="black" points="360.5,-98 360.5,-128 503.5,-128 503.5,-98 360.5,-98"/>
<text text-anchor="start" x="368.5" y="-116" font-family="FreeSans" font-size="10.00">DGtal::OrderedAssociative</text>
<text text-anchor="middle" x="432" y="-105" font-family="FreeSans" font-size="10.00">Category</text>
</a>
</g>
</g>
<!-- Node2&#45;&gt;Node1 -->
<g id="edge1" class="edge"><title>Node2&#45;&gt;Node1</title>
<path fill="none" stroke="midnightblue" d="M500.532,-95.3986C528.838,-88.0211 560.63,-79.7348 584.444,-73.528"/>
<polygon fill="midnightblue" stroke="midnightblue" points="499.478,-92.0563 490.684,-97.9654 501.243,-98.83 499.478,-92.0563"/>
</g>
<!-- Node3 -->
<g id="node3" class="node"><title>Node3</title>
<g id="a_node3"><a xlink:href="structDGtal_1_1AssociativeCategory.html" target="_top" xlink:title="DGtal::AssociativeCategory">
<polygon fill="white" stroke="black" points="176.5,-54.5 176.5,-73.5 323.5,-73.5 323.5,-54.5 176.5,-54.5"/>
<text text-anchor="middle" x="250" y="-61.5" font-family="FreeSans" font-size="10.00">DGtal::AssociativeCategory</text>
</a>
</g>
</g>
<!-- Node3&#45;&gt;Node2 -->
<g id="edge2" class="edge"><title>Node3&#45;&gt;Node2</title>
<path fill="none" stroke="midnightblue" d="M296.101,-76.2776C320.258,-82.8537 350.218,-91.0092 375.762,-97.963"/>
<polygon fill="midnightblue" stroke="midnightblue" points="296.701,-72.8136 286.133,-73.564 294.863,-79.5678 296.701,-72.8136"/>
</g>
<!-- Node5 -->
<g id="node5" class="node"><title>Node5</title>
<g id="a_node5"><a xlink:href="structDGtal_1_1SimpleAssociativeCategory.html" target="_top" xlink:title="DGtal::SimpleAssociative\lCategory">
<polygon fill="white" stroke="black" points="363.5,-49 363.5,-79 500.5,-79 500.5,-49 363.5,-49"/>
<text text-anchor="start" x="371.5" y="-67" font-family="FreeSans" font-size="10.00">DGtal::SimpleAssociative</text>
<text text-anchor="middle" x="432" y="-56" font-family="FreeSans" font-size="10.00">Category</text>
</a>
</g>
</g>
<!-- Node3&#45;&gt;Node5 -->
<g id="edge5" class="edge"><title>Node3&#45;&gt;Node5</title>
<path fill="none" stroke="midnightblue" d="M333.888,-64C343.728,-64 353.682,-64 363.276,-64"/>
<polygon fill="midnightblue" stroke="midnightblue" points="333.694,-60.5001 323.694,-64 333.694,-67.5001 333.694,-60.5001"/>
</g>
<!-- Node6 -->
<g id="node6" class="node"><title>Node6</title>
<g id="a_node6"><a xlink:href="structDGtal_1_1UniqueAssociativeCategory.html" target="_top" xlink:title="DGtal::UniqueAssociative\lCategory">
<polygon fill="white" stroke="black" points="363.5,-0 363.5,-30 500.5,-30 500.5,-0 363.5,-0"/>
<text text-anchor="start" x="371.5" y="-18" font-family="FreeSans" font-size="10.00">DGtal::UniqueAssociative</text>
<text text-anchor="middle" x="432" y="-7" font-family="FreeSans" font-size="10.00">Category</text>
</a>
</g>
</g>
<!-- Node3&#45;&gt;Node6 -->
<g id="edge7" class="edge"><title>Node3&#45;&gt;Node6</title>
<path fill="none" stroke="midnightblue" d="M296.101,-51.7224C320.258,-45.1463 350.218,-36.9908 375.762,-30.037"/>
<polygon fill="midnightblue" stroke="midnightblue" points="294.863,-48.4322 286.133,-54.436 296.701,-55.1864 294.863,-48.4322"/>
</g>
<!-- Node4 -->
<g id="node4" class="node"><title>Node4</title>
<g id="a_node4"><a xlink:href="structDGtal_1_1ContainerCategory.html" target="_top" xlink:title="DGtal::ContainerCategory">
<polygon fill="white" stroke="black" points="0,-54.5 0,-73.5 140,-73.5 140,-54.5 0,-54.5"/>
<text text-anchor="middle" x="70" y="-61.5" font-family="FreeSans" font-size="10.00">DGtal::ContainerCategory</text>
</a>
</g>
</g>
<!-- Node4&#45;&gt;Node3 -->
<g id="edge3" class="edge"><title>Node4&#45;&gt;Node3</title>
<path fill="none" stroke="midnightblue" d="M150.233,-64C158.953,-64 167.8,-64 176.433,-64"/>
<polygon fill="midnightblue" stroke="midnightblue" points="150.074,-60.5001 140.074,-64 150.074,-67.5001 150.074,-60.5001"/>
</g>
<!-- Node5&#45;&gt;Node1 -->
<g id="edge4" class="edge"><title>Node5&#45;&gt;Node1</title>
<path fill="none" stroke="midnightblue" d="M510.886,-64C520.461,-64 530.265,-64 539.886,-64"/>
<polygon fill="midnightblue" stroke="midnightblue" points="510.607,-60.5001 500.607,-64 510.607,-67.5001 510.607,-60.5001"/>
</g>
<!-- Node6&#45;&gt;Node1 -->
<g id="edge6" class="edge"><title>Node6&#45;&gt;Node1</title>
<path fill="none" stroke="midnightblue" d="M500.532,-32.6014C528.838,-39.9789 560.63,-48.2652 584.444,-54.472"/>
<polygon fill="midnightblue" stroke="midnightblue" points="501.243,-29.17 490.684,-30.0346 499.478,-35.9437 501.243,-29.17"/>
</g>
</g>
</svg>
