<?xml version="1.0" encoding="UTF-8" standalone="no"?>
<!DOCTYPE svg PUBLIC "-//W3C//DTD SVG 1.1//EN"
 "http://www.w3.org/Graphics/SVG/1.1/DTD/svg11.dtd">
<!-- Generated by graphviz version 2.36.0 (20140111.2315)
 -->
<!-- Title: DGtal::VoronoiCovarianceMeasureOnDigitalSurface&lt; TDigitalSurfaceContainer, TSeparableMetric, TKernelFunction &gt;::EigenStructure Pages: 1 -->
<svg width="1016pt" height="135pt"
 viewBox="0.00 0.00 1016.00 135.00" xmlns="http://www.w3.org/2000/svg" xmlns:xlink="http://www.w3.org/1999/xlink">
<g id="graph0" class="graph" transform="scale(1 1) rotate(0) translate(4 131)">
<title>DGtal::VoronoiCovarianceMeasureOnDigitalSurface&lt; TDigitalSurfaceContainer, TSeparableMetric, TKernelFunction &gt;::EigenStructure</title>
<polygon fill="white" stroke="none" points="-4,4 -4,-131 1012,-131 1012,4 -4,4"/>
<!-- Node1 -->
<g id="node1" class="node"><title>Node1</title>
<polygon fill="#bfbfbf" stroke="black" points="824.5,-37.5 824.5,-100.5 1007.5,-100.5 1007.5,-37.5 824.5,-37.5"/>
<text text-anchor="start" x="832.5" y="-88.5" font-family="FreeSans" font-size="10.00">DGtal::VoronoiCovariance</text>
<text text-anchor="start" x="832.5" y="-77.5" font-family="FreeSans" font-size="10.00">MeasureOnDigitalSurface</text>
<text text-anchor="start" x="832.5" y="-66.5" font-family="FreeSans" font-size="10.00">&lt; TDigitalSurfaceContainer,</text>
<text text-anchor="start" x="832.5" y="-55.5" font-family="FreeSans" font-size="10.00"> TSeparableMetric, TKernelFunction</text>
<text text-anchor="middle" x="916" y="-44.5" font-family="FreeSans" font-size="10.00"> &gt;::EigenStructure</text>
</g>
<!-- Node2 -->
<g id="node2" class="node"><title>Node2</title>
<g id="a_node2"><a xlink:href="classDGtal_1_1SimpleMatrix.html" target="_top" xlink:title="Aim: implements basic MxN Matrix services (M,N&gt;=1). ">
<polygon fill="white" stroke="black" points="610,-90 610,-120 748,-120 748,-90 610,-90"/>
<text text-anchor="start" x="618" y="-108" font-family="FreeSans" font-size="10.00">DGtal::SimpleMatrix</text>
<text text-anchor="middle" x="679" y="-97" font-family="FreeSans" font-size="10.00">&lt; TComponent, TM, TN &gt;</text>
</a>
</g>
</g>
<!-- Node2&#45;&gt;Node1 -->
<g id="edge1" class="edge"><title>Node2&#45;&gt;Node1</title>
<path fill="none" stroke="#9a32cd" stroke-dasharray="5,2" d="M758.185,-93.0228C779.348,-89.7808 802.434,-86.2442 824.225,-82.906"/>
<polygon fill="#9a32cd" stroke="#9a32cd" points="757.642,-89.565 748.287,-94.539 758.702,-96.4843 757.642,-89.565"/>
<text text-anchor="middle" x="786" y="-94" font-family="FreeSans" font-size="10.00"> vectors</text>
</g>
<!-- Node3 -->
<g id="node3" class="node"><title>Node3</title>
<polygon fill="white" stroke="#bfbfbf" points="354.5,-90 354.5,-120 487.5,-120 487.5,-90 354.5,-90"/>
<text text-anchor="start" x="362.5" y="-108" font-family="FreeSans" font-size="10.00">std::array&lt; Component,</text>
<text text-anchor="middle" x="421" y="-97" font-family="FreeSans" font-size="10.00"> M *N &gt;</text>
</g>
<!-- Node3&#45;&gt;Node2 -->
<g id="edge2" class="edge"><title>Node3&#45;&gt;Node2</title>
<path fill="none" stroke="#9a32cd" stroke-dasharray="5,2" d="M497.911,-105C533.434,-105 575.41,-105 609.896,-105"/>
<polygon fill="#9a32cd" stroke="#9a32cd" points="497.594,-101.5 487.594,-105 497.594,-108.5 497.594,-101.5"/>
<text text-anchor="middle" x="549" y="-119" font-family="FreeSans" font-size="10.00"> myCofactorCoefs</text>
<text text-anchor="middle" x="549" y="-108" font-family="FreeSans" font-size="10.00">myValues</text>
</g>
<!-- Node4 -->
<g id="node4" class="node"><title>Node4</title>
<g id="a_node4"><a xlink:title="STL class. ">
<polygon fill="white" stroke="#bfbfbf" points="116,-95.5 116,-114.5 206,-114.5 206,-95.5 116,-95.5"/>
<text text-anchor="middle" x="161" y="-102.5" font-family="FreeSans" font-size="10.00">std::array&lt; T &gt;</text>
</a>
</g>
</g>
<!-- Node4&#45;&gt;Node3 -->
<g id="edge3" class="edge"><title>Node4&#45;&gt;Node3</title>
<path fill="none" stroke="orange" stroke-dasharray="5,2" d="M216.217,-105C256.475,-105 311.577,-105 354.333,-105"/>
<polygon fill="orange" stroke="orange" points="216.059,-101.5 206.059,-105 216.059,-108.5 216.059,-101.5"/>
<text text-anchor="middle" x="280" y="-108" font-family="FreeSans" font-size="10.00"> &lt; Component, M *N &gt;</text>
</g>
<!-- Node5 -->
<g id="node5" class="node"><title>Node5</title>
<polygon fill="white" stroke="#bfbfbf" points="0.5,-95.5 0.5,-114.5 29.5,-114.5 29.5,-95.5 0.5,-95.5"/>
<text text-anchor="middle" x="15" y="-102.5" font-family="FreeSans" font-size="10.00">T</text>
</g>
<!-- Node5&#45;&gt;Node4 -->
<g id="edge4" class="edge"><title>Node5&#45;&gt;Node4</title>
<path fill="none" stroke="#9a32cd" stroke-dasharray="5,2" d="M39.6415,-105C60.3039,-105 90.8474,-105 115.994,-105"/>
<polygon fill="#9a32cd" stroke="#9a32cd" points="39.5472,-101.5 29.5472,-105 39.5471,-108.5 39.5472,-101.5"/>
<text text-anchor="middle" x="73" y="-108" font-family="FreeSans" font-size="10.00"> elements</text>
</g>
<!-- Node6 -->
<g id="node6" class="node"><title>Node6</title>
<g id="a_node6"><a xlink:href="classDGtal_1_1PointVector.html" target="_top" xlink:title="Aim: Implements basic operations that will be used in Point and Vector classes. ">
<polygon fill="white" stroke="black" points="616,-0.5 616,-41.5 742,-41.5 742,-0.5 616,-0.5"/>
<text text-anchor="start" x="624" y="-29.5" font-family="FreeSans" font-size="10.00">DGtal::PointVector</text>
<text text-anchor="start" x="624" y="-18.5" font-family="FreeSans" font-size="10.00">&lt; dim, TEuclideanRing,</text>
<text text-anchor="middle" x="679" y="-7.5" font-family="FreeSans" font-size="10.00"> TContainer &gt;</text>
</a>
</g>
</g>
<!-- Node6&#45;&gt;Node1 -->
<g id="edge5" class="edge"><title>Node6&#45;&gt;Node1</title>
<path fill="none" stroke="#9a32cd" stroke-dasharray="5,2" d="M751.985,-35.7033C774.794,-40.3621 800.309,-45.5737 824.258,-50.4654"/>
<polygon fill="#9a32cd" stroke="#9a32cd" points="752.549,-32.2463 742.051,-33.6742 751.148,-39.1047 752.549,-32.2463"/>
<text text-anchor="middle" x="786" y="-50" font-family="FreeSans" font-size="10.00"> values</text>
</g>
<!-- Node6&#45;&gt;Node6 -->
<g id="edge7" class="edge"><title>Node6&#45;&gt;Node6</title>
<path fill="none" stroke="#9a32cd" stroke-dasharray="5,2" d="M661.09,-51.6009C663.947,-56.0235 669.917,-59 679,-59 693.906,-59 700.428,-50.9844 698.564,-41.7163"/>
<polygon fill="#9a32cd" stroke="#9a32cd" points="664.539,-51.0012 659.436,-41.7163 657.635,-52.157 664.539,-51.0012"/>
<text text-anchor="middle" x="679" y="-62" font-family="FreeSans" font-size="10.00"> zero</text>
</g>
<!-- Node7 -->
<g id="node7" class="node"><title>Node7</title>
<polygon fill="white" stroke="#bfbfbf" points="387,-11.5 387,-30.5 455,-30.5 455,-11.5 387,-11.5"/>
<text text-anchor="middle" x="421" y="-18.5" font-family="FreeSans" font-size="10.00">TContainer</text>
</g>
<!-- Node7&#45;&gt;Node6 -->
<g id="edge6" class="edge"><title>Node7&#45;&gt;Node6</title>
<path fill="none" stroke="#9a32cd" stroke-dasharray="5,2" d="M465.224,-21C506.538,-21 569.26,-21 615.915,-21"/>
<polygon fill="#9a32cd" stroke="#9a32cd" points="465.205,-17.5001 455.205,-21 465.205,-24.5001 465.205,-17.5001"/>
<text text-anchor="middle" x="549" y="-24" font-family="FreeSans" font-size="10.00"> myArray</text>
</g>
</g>
</svg>
