<?xml version="1.0" encoding="UTF-8" standalone="no"?>
<!DOCTYPE svg PUBLIC "-//W3C//DTD SVG 1.1//EN"
 "http://www.w3.org/Graphics/SVG/1.1/DTD/svg11.dtd">
<!-- Generated by graphviz version 2.36.0 (20140111.2315)
 -->
<!-- Title: DGtal::concepts::CPointPredicate&lt; T &gt; Pages: 1 -->
<svg width="1726pt" height="87pt"
 viewBox="0.00 0.00 1726.00 87.00" xmlns="http://www.w3.org/2000/svg" xmlns:xlink="http://www.w3.org/1999/xlink">
<g id="graph0" class="graph" transform="scale(1 1) rotate(0) translate(4 83)">
<title>DGtal::concepts::CPointPredicate&lt; T &gt;</title>
<polygon fill="white" stroke="none" points="-4,4 -4,-83 1722,-83 1722,4 -4,4"/>
<!-- Node1 -->
<g id="node1" class="node"><title>Node1</title>
<polygon fill="#bfbfbf" stroke="black" points="1340.5,-35.5 1340.5,-54.5 1543.5,-54.5 1543.5,-35.5 1340.5,-35.5"/>
<text text-anchor="middle" x="1442" y="-42.5" font-family="FreeSans" font-size="10.00">DGtal::concepts::CPointPredicate&lt; T &gt;</text>
</g>
<!-- Node9 -->
<g id="node9" class="node"><title>Node9</title>
<g id="a_node9"><a xlink:href="structDGtal_1_1concepts_1_1CDigitalSet.html" target="_top" xlink:title="Aim: Represents a set of points within the given domain. This set of points is modifiable by the user...">
<polygon fill="white" stroke="black" points="1582,-30 1582,-60 1718,-60 1718,-30 1582,-30"/>
<text text-anchor="start" x="1590" y="-48" font-family="FreeSans" font-size="10.00">DGtal::concepts::CDigital</text>
<text text-anchor="middle" x="1650" y="-37" font-family="FreeSans" font-size="10.00">Set&lt; T &gt;</text>
</a>
</g>
</g>
<!-- Node1&#45;&gt;Node9 -->
<g id="edge11" class="edge"><title>Node1&#45;&gt;Node9</title>
<path fill="none" stroke="midnightblue" d="M1553.61,-45C1563.22,-45 1572.74,-45 1581.83,-45"/>
<polygon fill="midnightblue" stroke="midnightblue" points="1553.59,-41.5001 1543.59,-45 1553.59,-48.5001 1553.59,-41.5001"/>
</g>
<!-- Node2 -->
<g id="node2" class="node"><title>Node2</title>
<g id="a_node2"><a xlink:href="structDGtal_1_1concepts_1_1CPredicate.html" target="_top" xlink:title="DGtal::concepts::CPredicate\l\&lt; T, T::Point \&gt;">
<polygon fill="white" stroke="black" points="1150.5,-30 1150.5,-60 1301.5,-60 1301.5,-30 1150.5,-30"/>
<text text-anchor="start" x="1158.5" y="-48" font-family="FreeSans" font-size="10.00">DGtal::concepts::CPredicate</text>
<text text-anchor="middle" x="1226" y="-37" font-family="FreeSans" font-size="10.00">&lt; T, T::Point &gt;</text>
</a>
</g>
</g>
<!-- Node2&#45;&gt;Node1 -->
<g id="edge1" class="edge"><title>Node2&#45;&gt;Node1</title>
<path fill="none" stroke="midnightblue" d="M1311.67,-45C1321.1,-45 1330.77,-45 1340.37,-45"/>
<polygon fill="midnightblue" stroke="midnightblue" points="1311.55,-41.5001 1301.55,-45 1311.55,-48.5001 1311.55,-41.5001"/>
</g>
<!-- Node3 -->
<g id="node3" class="node"><title>Node3</title>
<g id="a_node3"><a xlink:href="structDGtal_1_1concepts_1_1CUnaryFunctor.html" target="_top" xlink:title="DGtal::concepts::CUnaryFunctor\l\&lt; T, T::Point, bool \&gt;">
<polygon fill="white" stroke="black" points="682,-49 682,-79 852,-79 852,-49 682,-49"/>
<text text-anchor="start" x="690" y="-67" font-family="FreeSans" font-size="10.00">DGtal::concepts::CUnaryFunctor</text>
<text text-anchor="middle" x="767" y="-56" font-family="FreeSans" font-size="10.00">&lt; T, T::Point, bool &gt;</text>
</a>
</g>
</g>
<!-- Node3&#45;&gt;Node2 -->
<g id="edge2" class="edge"><title>Node3&#45;&gt;Node2</title>
<path fill="none" stroke="midnightblue" d="M862.378,-60.1574C935.86,-57.1543 1040.41,-52.8567 1132,-49 1137.97,-48.7484 1144.16,-48.486 1150.38,-48.2212"/>
<polygon fill="midnightblue" stroke="midnightblue" points="862.068,-56.667 852.22,-60.5724 862.354,-63.6612 862.068,-56.667"/>
</g>
<!-- Node4 -->
<g id="node4" class="node"><title>Node4</title>
<g id="a_node4"><a xlink:href="structboost_1_1Assignable.html" target="_top" xlink:title="Go to http://www.sgi.com/tech/stl/Assignable.html. ">
<polygon fill="white" stroke="black" points="0.5,-26.5 0.5,-45.5 129.5,-45.5 129.5,-26.5 0.5,-26.5"/>
<text text-anchor="middle" x="65" y="-33.5" font-family="FreeSans" font-size="10.00">boost::Assignable&lt; T &gt;</text>
</a>
</g>
</g>
<!-- Node4&#45;&gt;Node3 -->
<g id="edge3" class="edge"><title>Node4&#45;&gt;Node3</title>
<path fill="none" stroke="midnightblue" d="M123.474,-47.2725C131.685,-48.6615 140.043,-49.9566 148,-51 170.104,-53.8983 175.746,-53.6728 198,-55 404.837,-67.3354 456.858,-74.074 664,-69 669.849,-68.8567 675.885,-68.6673 681.963,-68.446"/>
<polygon fill="midnightblue" stroke="midnightblue" points="124.021,-43.8151 113.568,-45.5424 122.817,-50.7108 124.021,-43.8151"/>
</g>
<!-- Node6 -->
<g id="node6" class="node"><title>Node6</title>
<g id="a_node6"><a xlink:href="structboost_1_1Assignable.html" target="_top" xlink:title="boost::Assignable\&lt; X \&gt;">
<polygon fill="white" stroke="black" points="198,-26.5 198,-45.5 328,-45.5 328,-26.5 198,-26.5"/>
<text text-anchor="middle" x="263" y="-33.5" font-family="FreeSans" font-size="10.00">boost::Assignable&lt; X &gt;</text>
</a>
</g>
</g>
<!-- Node4&#45;&gt;Node6 -->
<g id="edge6" class="edge"><title>Node4&#45;&gt;Node6</title>
<path fill="none" stroke="orange" stroke-dasharray="5,2" d="M139.76,-36C158.806,-36 179.155,-36 197.677,-36"/>
<polygon fill="orange" stroke="orange" points="139.636,-32.5001 129.636,-36 139.636,-39.5001 139.636,-32.5001"/>
<text text-anchor="middle" x="164" y="-39" font-family="FreeSans" font-size="10.00"> &lt; X &gt;</text>
</g>
<!-- Node8 -->
<g id="node8" class="node"><title>Node8</title>
<g id="a_node8"><a xlink:href="structDGtal_1_1concepts_1_1CUnaryFunctor.html" target="_top" xlink:title="DGtal::concepts::CUnaryFunctor\l\&lt; T, TElement, bool \&gt;">
<polygon fill="white" stroke="black" points="682,-0 682,-30 852,-30 852,-0 682,-0"/>
<text text-anchor="start" x="690" y="-18" font-family="FreeSans" font-size="10.00">DGtal::concepts::CUnaryFunctor</text>
<text text-anchor="middle" x="767" y="-7" font-family="FreeSans" font-size="10.00">&lt; T, TElement, bool &gt;</text>
</a>
</g>
</g>
<!-- Node4&#45;&gt;Node8 -->
<g id="edge9" class="edge"><title>Node4&#45;&gt;Node8</title>
<path fill="none" stroke="midnightblue" d="M132.73,-24.9755C153.578,-21.9134 176.696,-18.9081 198,-17 369.146,-1.67104 570.462,-6.28322 681.585,-10.7921"/>
<polygon fill="midnightblue" stroke="midnightblue" points="132.066,-21.5357 122.695,-26.4787 133.103,-28.4585 132.066,-21.5357"/>
</g>
<!-- Node5 -->
<g id="node5" class="node"><title>Node5</title>
<g id="a_node5"><a xlink:href="structDGtal_1_1concepts_1_1CUnaryFunctor.html" target="_top" xlink:title="Aim: Defines a unary functor, which associates arguments to results. ">
<polygon fill="white" stroke="black" points="366,-21 366,-51 536,-51 536,-21 366,-21"/>
<text text-anchor="start" x="374" y="-39" font-family="FreeSans" font-size="10.00">DGtal::concepts::CUnaryFunctor</text>
<text text-anchor="middle" x="451" y="-28" font-family="FreeSans" font-size="10.00">&lt; X, A, R &gt;</text>
</a>
</g>
</g>
<!-- Node5&#45;&gt;Node3 -->
<g id="edge4" class="edge"><title>Node5&#45;&gt;Node3</title>
<path fill="none" stroke="orange" stroke-dasharray="5,2" d="M546.36,-44.4142C589.466,-48.2581 640.107,-52.7739 681.894,-56.5001"/>
<polygon fill="orange" stroke="orange" points="546.418,-40.9056 536.146,-43.5035 545.796,-47.8779 546.418,-40.9056"/>
<text text-anchor="middle" x="609" y="-58" font-family="FreeSans" font-size="10.00"> &lt; T, T::Point, bool &gt;</text>
</g>
<!-- Node5&#45;&gt;Node8 -->
<g id="edge10" class="edge"><title>Node5&#45;&gt;Node8</title>
<path fill="none" stroke="orange" stroke-dasharray="5,2" d="M546.209,-24.6581C548.833,-24.4253 551.434,-24.2051 554,-24 596.046,-20.6389 642.891,-18.484 681.83,-17.1287"/>
<polygon fill="orange" stroke="orange" points="545.63,-21.1969 536,-25.6141 546.283,-28.1664 545.63,-21.1969"/>
<text text-anchor="middle" x="609" y="-27" font-family="FreeSans" font-size="10.00"> &lt; T, TElement, bool &gt;</text>
</g>
<!-- Node6&#45;&gt;Node5 -->
<g id="edge5" class="edge"><title>Node6&#45;&gt;Node5</title>
<path fill="none" stroke="midnightblue" d="M338.156,-36C347.254,-36 356.603,-36 365.835,-36"/>
<polygon fill="midnightblue" stroke="midnightblue" points="338.011,-32.5001 328.011,-36 338.011,-39.5001 338.011,-32.5001"/>
</g>
<!-- Node7 -->
<g id="node7" class="node"><title>Node7</title>
<g id="a_node7"><a xlink:href="structDGtal_1_1concepts_1_1CPredicate.html" target="_top" xlink:title="Aim: Defines a predicate function, ie. a functor mapping a domain into the set of booleans...">
<polygon fill="white" stroke="black" points="890.5,-3 890.5,-33 1041.5,-33 1041.5,-3 890.5,-3"/>
<text text-anchor="start" x="898.5" y="-21" font-family="FreeSans" font-size="10.00">DGtal::concepts::CPredicate</text>
<text text-anchor="middle" x="966" y="-10" font-family="FreeSans" font-size="10.00">&lt; T, TElement &gt;</text>
</a>
</g>
</g>
<!-- Node7&#45;&gt;Node2 -->
<g id="edge7" class="edge"><title>Node7&#45;&gt;Node2</title>
<path fill="none" stroke="orange" stroke-dasharray="5,2" d="M1051.77,-26.8718C1083.51,-30.1932 1119.31,-33.9399 1150.1,-37.1613"/>
<polygon fill="orange" stroke="orange" points="1051.93,-23.3694 1041.62,-25.8095 1051.21,-30.3314 1051.93,-23.3694"/>
<text text-anchor="middle" x="1096" y="-38" font-family="FreeSans" font-size="10.00"> &lt; T, T::Point &gt;</text>
</g>
<!-- Node8&#45;&gt;Node7 -->
<g id="edge8" class="edge"><title>Node8&#45;&gt;Node7</title>
<path fill="none" stroke="midnightblue" d="M862.337,-16.4366C871.789,-16.5806 881.293,-16.7253 890.499,-16.8655"/>
<polygon fill="midnightblue" stroke="midnightblue" points="862.169,-12.9337 852.117,-16.281 862.063,-19.9329 862.169,-12.9337"/>
</g>
</g>
</svg>
