<?xml version="1.0" encoding="UTF-8" standalone="no"?>
<!DOCTYPE svg PUBLIC "-//W3C//DTD SVG 1.1//EN"
 "http://www.w3.org/Graphics/SVG/1.1/DTD/svg11.dtd">
<!-- Generated by graphviz version 2.36.0 (20140111.2315)
 -->
<!-- Title: LibBoard::Dot Pages: 1 -->
<svg width="253pt" height="334pt"
 viewBox="0.00 0.00 253.00 334.00" xmlns="http://www.w3.org/2000/svg" xmlns:xlink="http://www.w3.org/1999/xlink">
<g id="graph0" class="graph" transform="scale(1 1) rotate(0) translate(4 330)">
<title>LibBoard::Dot</title>
<polygon fill="white" stroke="none" points="-4,4 -4,-330 249,-330 249,4 -4,4"/>
<!-- Node1 -->
<g id="node1" class="node"><title>Node1</title>
<polygon fill="#bfbfbf" stroke="black" points="35,-0.5 35,-19.5 117,-19.5 117,-0.5 35,-0.5"/>
<text text-anchor="middle" x="76" y="-7.5" font-family="FreeSans" font-size="10.00">LibBoard::Dot</text>
</g>
<!-- Node2 -->
<g id="node2" class="node"><title>Node2</title>
<g id="a_node2"><a xlink:href="structLibBoard_1_1Shape.html" target="_top" xlink:title="Abstract structure for a 2D shape. ">
<polygon fill="white" stroke="black" points="99.5,-58.5 99.5,-77.5 194.5,-77.5 194.5,-58.5 99.5,-58.5"/>
<text text-anchor="middle" x="147" y="-65.5" font-family="FreeSans" font-size="10.00">LibBoard::Shape</text>
</a>
</g>
</g>
<!-- Node2&#45;&gt;Node1 -->
<g id="edge1" class="edge"><title>Node2&#45;&gt;Node1</title>
<path fill="none" stroke="midnightblue" d="M128.234,-52.1986C115.049,-41.799 97.8701,-28.2496 86.8849,-19.5852"/>
<polygon fill="midnightblue" stroke="midnightblue" points="126.197,-55.05 136.217,-58.4948 130.532,-49.5538 126.197,-55.05"/>
</g>
<!-- Node3 -->
<g id="node3" class="node"><title>Node3</title>
<g id="a_node3"><a xlink:title="STL class. ">
<polygon fill="white" stroke="#bfbfbf" points="18.5,-186.5 18.5,-205.5 83.5,-205.5 83.5,-186.5 18.5,-186.5"/>
<text text-anchor="middle" x="51" y="-193.5" font-family="FreeSans" font-size="10.00">std::string</text>
</a>
</g>
</g>
<!-- Node3&#45;&gt;Node1 -->
<g id="edge6" class="edge"><title>Node3&#45;&gt;Node1</title>
<path fill="none" stroke="#9a32cd" stroke-dasharray="5,2" d="M48.6865,-175.93C46.0195,-149.16 43.1638,-99.1103 53,-58 56.4245,-43.6873 64.7253,-28.6679 70.3594,-19.5677"/>
<polygon fill="#9a32cd" stroke="#9a32cd" points="45.2417,-176.624 49.8163,-186.18 52.1996,-175.857 45.2417,-176.624"/>
<text text-anchor="middle" x="71.5" y="-65.5" font-family="FreeSans" font-size="10.00"> _name</text>
</g>
<!-- Node3&#45;&gt;Node2 -->
<g id="edge2" class="edge"><title>Node3&#45;&gt;Node2</title>
<path fill="none" stroke="#9a32cd" stroke-dasharray="5,2" d="M57.8506,-177.055C66.597,-155.864 83.3533,-120.418 106,-96 112.839,-88.6261 122.084,-82.3136 130.064,-77.6505"/>
<polygon fill="#9a32cd" stroke="#9a32cd" points="54.5564,-175.867 54.1137,-186.453 61.061,-178.454 54.5564,-175.867"/>
<text text-anchor="middle" x="124.5" y="-104.5" font-family="FreeSans" font-size="10.00"> _name</text>
</g>
<!-- Node4 -->
<g id="node4" class="node"><title>Node4</title>
<g id="a_node4"><a xlink:title="STL class. ">
<polygon fill="white" stroke="#bfbfbf" points="-0.5,-295 -0.5,-325 102.5,-325 102.5,-295 -0.5,-295"/>
<text text-anchor="start" x="7.5" y="-313" font-family="FreeSans" font-size="10.00">std::basic_string&lt;</text>
<text text-anchor="middle" x="51" y="-302" font-family="FreeSans" font-size="10.00"> char &gt;</text>
</a>
</g>
</g>
<!-- Node4&#45;&gt;Node3 -->
<g id="edge3" class="edge"><title>Node4&#45;&gt;Node3</title>
<path fill="none" stroke="midnightblue" d="M51,-284.675C51,-259.746 51,-222.338 51,-205.614"/>
<polygon fill="midnightblue" stroke="midnightblue" points="47.5001,-284.815 51,-294.815 54.5001,-284.815 47.5001,-284.815"/>
</g>
<!-- Node5 -->
<g id="node5" class="node"><title>Node5</title>
<g id="a_node5"><a xlink:href="classDGtal_1_1Color.html" target="_top" xlink:title="Structure representing an RGB triple with alpha component. ">
<polygon fill="white" stroke="black" points="110,-186.5 110,-205.5 184,-205.5 184,-186.5 110,-186.5"/>
<text text-anchor="middle" x="147" y="-193.5" font-family="FreeSans" font-size="10.00">DGtal::Color</text>
</a>
</g>
</g>
<!-- Node5&#45;&gt;Node2 -->
<g id="edge4" class="edge"><title>Node5&#45;&gt;Node2</title>
<path fill="none" stroke="#9a32cd" stroke-dasharray="5,2" d="M147,-176.011C147,-148.309 147,-97.9226 147,-77.7211"/>
<polygon fill="#9a32cd" stroke="#9a32cd" points="143.5,-176.339 147,-186.34 150.5,-176.34 143.5,-176.339"/>
<text text-anchor="middle" x="173" y="-110" font-family="FreeSans" font-size="10.00"> _penColor</text>
<text text-anchor="middle" x="173" y="-99" font-family="FreeSans" font-size="10.00">_fillColor</text>
</g>
<!-- Node5&#45;&gt;Node5 -->
<g id="edge5" class="edge"><title>Node5&#45;&gt;Node5</title>
<path fill="none" stroke="#9a32cd" stroke-dasharray="5,2" d="M169.686,-209.073C185.889,-213.284 202,-208.926 202,-196 202,-180.537 178.944,-177.336 160.256,-186.396"/>
<polygon fill="#9a32cd" stroke="#9a32cd" points="170.85,-205.772 160.256,-205.604 168.433,-212.342 170.85,-205.772"/>
<text text-anchor="middle" x="223.5" y="-248.5" font-family="FreeSans" font-size="10.00"> Yellow</text>
<text text-anchor="middle" x="223.5" y="-237.5" font-family="FreeSans" font-size="10.00">Lime</text>
<text text-anchor="middle" x="223.5" y="-226.5" font-family="FreeSans" font-size="10.00">Navy</text>
<text text-anchor="middle" x="223.5" y="-215.5" font-family="FreeSans" font-size="10.00">Magenta</text>
<text text-anchor="middle" x="223.5" y="-204.5" font-family="FreeSans" font-size="10.00">White</text>
<text text-anchor="middle" x="223.5" y="-193.5" font-family="FreeSans" font-size="10.00">None</text>
<text text-anchor="middle" x="223.5" y="-182.5" font-family="FreeSans" font-size="10.00">Blue</text>
<text text-anchor="middle" x="223.5" y="-171.5" font-family="FreeSans" font-size="10.00">Aqua</text>
<text text-anchor="middle" x="223.5" y="-160.5" font-family="FreeSans" font-size="10.00">Purple</text>
<text text-anchor="middle" x="223.5" y="-149.5" font-family="FreeSans" font-size="10.00">Silver</text>
<text text-anchor="middle" x="223.5" y="-138.5" font-family="FreeSans" font-size="10.00">...</text>
</g>
</g>
</svg>
