<?xml version="1.0" encoding="UTF-8" standalone="no"?>
<!DOCTYPE svg PUBLIC "-//W3C//DTD SVG 1.1//EN"
 "http://www.w3.org/Graphics/SVG/1.1/DTD/svg11.dtd">
<!-- Generated by graphviz version 2.36.0 (20140111.2315)
 -->
<!-- Title: DGtal::functors::BinaryPointPredicate&lt; TPointPredicate1, TPointPredicate2, OrBoolFct2 &gt; Pages: 1 -->
<svg width="178pt" height="118pt"
 viewBox="0.00 0.00 178.00 118.00" xmlns="http://www.w3.org/2000/svg" xmlns:xlink="http://www.w3.org/1999/xlink">
<g id="graph0" class="graph" transform="scale(1 1) rotate(0) translate(4 114)">
<title>DGtal::functors::BinaryPointPredicate&lt; TPointPredicate1, TPointPredicate2, OrBoolFct2 &gt;</title>
<polygon fill="white" stroke="none" points="-4,4 -4,-114 174,-114 174,4 -4,4"/>
<!-- Node1 -->
<g id="node1" class="node"><title>Node1</title>
<polygon fill="#bfbfbf" stroke="black" points="0,-0.5 0,-41.5 170,-41.5 170,-0.5 0,-0.5"/>
<text text-anchor="start" x="8" y="-29.5" font-family="FreeSans" font-size="10.00">DGtal::functors::BinaryPoint</text>
<text text-anchor="start" x="8" y="-18.5" font-family="FreeSans" font-size="10.00">Predicate&lt; TPointPredicate1,</text>
<text text-anchor="middle" x="85" y="-7.5" font-family="FreeSans" font-size="10.00"> TPointPredicate2, OrBoolFct2 &gt;</text>
</g>
<!-- Node2 -->
<g id="node2" class="node"><title>Node2</title>
<g id="a_node2"><a xlink:href="structDGtal_1_1functors_1_1OrBoolFct2.html" target="_top" xlink:title="DGtal::functors::OrBoolFct2">
<polygon fill="white" stroke="black" points="11.5,-90.5 11.5,-109.5 158.5,-109.5 158.5,-90.5 11.5,-90.5"/>
<text text-anchor="middle" x="85" y="-97.5" font-family="FreeSans" font-size="10.00">DGtal::functors::OrBoolFct2</text>
</a>
</g>
</g>
<!-- Node2&#45;&gt;Node1 -->
<g id="edge1" class="edge"><title>Node2&#45;&gt;Node1</title>
<path fill="none" stroke="#9a32cd" stroke-dasharray="5,2" d="M85,-80.1487C85,-68.503 85,-53.5806 85,-41.7685"/>
<polygon fill="#9a32cd" stroke="#9a32cd" points="81.5001,-80.4654 85,-90.4655 88.5001,-80.4655 81.5001,-80.4654"/>
<text text-anchor="middle" x="122.5" y="-63.5" font-family="FreeSans" font-size="10.00"> myBoolFunctor</text>
</g>
</g>
</svg>
