<?xml version="1.0" encoding="UTF-8" standalone="no"?>
<!DOCTYPE svg PUBLIC "-//W3C//DTD SVG 1.1//EN"
 "http://www.w3.org/Graphics/SVG/1.1/DTD/svg11.dtd">
<!-- Generated by graphviz version 2.36.0 (20140111.2315)
 -->
<!-- Title: DGtal::functors::ConstantPointPredicate&lt; TPoint, boolCst &gt; Pages: 1 -->
<svg width="586pt" height="110pt"
 viewBox="0.00 0.00 586.00 110.00" xmlns="http://www.w3.org/2000/svg" xmlns:xlink="http://www.w3.org/1999/xlink">
<g id="graph0" class="graph" transform="scale(1 1) rotate(0) translate(4 106)">
<title>DGtal::functors::ConstantPointPredicate&lt; TPoint, boolCst &gt;</title>
<polygon fill="white" stroke="none" points="-4,4 -4,-106 582,-106 582,4 -4,4"/>
<!-- Node1 -->
<g id="node1" class="node"><title>Node1</title>
<polygon fill="#bfbfbf" stroke="black" points="0,-33.5 0,-74.5 138,-74.5 138,-33.5 0,-33.5"/>
<text text-anchor="start" x="8" y="-62.5" font-family="FreeSans" font-size="10.00">DGtal::functors::Constant</text>
<text text-anchor="start" x="8" y="-51.5" font-family="FreeSans" font-size="10.00">PointPredicate&lt; TPoint,</text>
<text text-anchor="middle" x="69" y="-40.5" font-family="FreeSans" font-size="10.00"> boolCst &gt;</text>
</g>
<!-- Node2 -->
<g id="node2" class="node"><title>Node2</title>
<g id="a_node2"><a xlink:href="structDGtal_1_1functors_1_1ConstantPointPredicate.html" target="_top" xlink:title="DGtal::functors::Constant\lPointPredicate\&lt; TPoint,\l true \&gt;">
<polygon fill="white" stroke="black" points="258,-60.5 258,-101.5 396,-101.5 396,-60.5 258,-60.5"/>
<text text-anchor="start" x="266" y="-89.5" font-family="FreeSans" font-size="10.00">DGtal::functors::Constant</text>
<text text-anchor="start" x="266" y="-78.5" font-family="FreeSans" font-size="10.00">PointPredicate&lt; TPoint,</text>
<text text-anchor="middle" x="327" y="-67.5" font-family="FreeSans" font-size="10.00"> true &gt;</text>
</a>
</g>
</g>
<!-- Node1&#45;&gt;Node2 -->
<g id="edge1" class="edge"><title>Node1&#45;&gt;Node2</title>
<path fill="none" stroke="orange" stroke-dasharray="5,2" d="M148.443,-62.2733C183.425,-65.9628 224.248,-70.2683 257.923,-73.82"/>
<polygon fill="orange" stroke="orange" points="148.579,-58.7683 138.267,-61.2 147.845,-65.7297 148.579,-58.7683"/>
<text text-anchor="middle" x="198" y="-74" font-family="FreeSans" font-size="10.00"> &lt; TPoint, true &gt;</text>
</g>
<!-- Node4 -->
<g id="node4" class="node"><title>Node4</title>
<g id="a_node4"><a xlink:href="structDGtal_1_1functors_1_1ConstantPointPredicate.html" target="_top" xlink:title="DGtal::functors::Constant\lPointPredicate\&lt; TPoint,\l false \&gt;">
<polygon fill="white" stroke="black" points="258,-0.5 258,-41.5 396,-41.5 396,-0.5 258,-0.5"/>
<text text-anchor="start" x="266" y="-29.5" font-family="FreeSans" font-size="10.00">DGtal::functors::Constant</text>
<text text-anchor="start" x="266" y="-18.5" font-family="FreeSans" font-size="10.00">PointPredicate&lt; TPoint,</text>
<text text-anchor="middle" x="327" y="-7.5" font-family="FreeSans" font-size="10.00"> false &gt;</text>
</a>
</g>
</g>
<!-- Node1&#45;&gt;Node4 -->
<g id="edge3" class="edge"><title>Node1&#45;&gt;Node4</title>
<path fill="none" stroke="orange" stroke-dasharray="5,2" d="M148.443,-43.8882C183.425,-39.3788 224.248,-34.1165 257.923,-29.7755"/>
<polygon fill="orange" stroke="orange" points="147.737,-40.4501 138.267,-45.2 148.632,-47.3927 147.737,-40.4501"/>
<text text-anchor="middle" x="198" y="-46" font-family="FreeSans" font-size="10.00"> &lt; TPoint, false &gt;</text>
</g>
<!-- Node3 -->
<g id="node3" class="node"><title>Node3</title>
<g id="a_node3"><a xlink:href="structDGtal_1_1functors_1_1TruePointPredicate.html" target="_top" xlink:title="Aim: The predicate that returns always true. ">
<polygon fill="white" stroke="black" points="437,-66 437,-96 575,-96 575,-66 437,-66"/>
<text text-anchor="start" x="445" y="-84" font-family="FreeSans" font-size="10.00">DGtal::functors::TruePoint</text>
<text text-anchor="middle" x="506" y="-73" font-family="FreeSans" font-size="10.00">Predicate&lt; TPoint &gt;</text>
</a>
</g>
</g>
<!-- Node2&#45;&gt;Node3 -->
<g id="edge2" class="edge"><title>Node2&#45;&gt;Node3</title>
<path fill="none" stroke="midnightblue" d="M406.288,-81C416.477,-81 426.85,-81 436.855,-81"/>
<polygon fill="midnightblue" stroke="midnightblue" points="406.18,-77.5001 396.18,-81 406.18,-84.5001 406.18,-77.5001"/>
</g>
<!-- Node5 -->
<g id="node5" class="node"><title>Node5</title>
<g id="a_node5"><a xlink:href="structDGtal_1_1functors_1_1FalsePointPredicate.html" target="_top" xlink:title="Aim: The predicate that returns always false. ">
<polygon fill="white" stroke="black" points="434.5,-6 434.5,-36 577.5,-36 577.5,-6 434.5,-6"/>
<text text-anchor="start" x="442.5" y="-24" font-family="FreeSans" font-size="10.00">DGtal::functors::FalsePoint</text>
<text text-anchor="middle" x="506" y="-13" font-family="FreeSans" font-size="10.00">Predicate&lt; TPoint &gt;</text>
</a>
</g>
</g>
<!-- Node4&#45;&gt;Node5 -->
<g id="edge4" class="edge"><title>Node4&#45;&gt;Node5</title>
<path fill="none" stroke="midnightblue" d="M406.213,-21C415.534,-21 425.01,-21 434.218,-21"/>
<polygon fill="midnightblue" stroke="midnightblue" points="406.18,-17.5001 396.18,-21 406.18,-24.5001 406.18,-17.5001"/>
</g>
</g>
</svg>
