<?xml version="1.0" encoding="UTF-8" standalone="no"?>
<!DOCTYPE svg PUBLIC "-//W3C//DTD SVG 1.1//EN"
 "http://www.w3.org/Graphics/SVG/1.1/DTD/svg11.dtd">
<!-- Generated by graphviz version 2.36.0 (20140111.2315)
 -->
<!-- Title: DGtal::concepts::CDigitalSurfaceLocalEstimator&lt; T &gt; Pages: 1 -->
<!--zoomable 149 -->
<svg id="main" version="1.1" xmlns="http://www.w3.org/2000/svg" xmlns:xlink="http://www.w3.org/1999/xlink" xml:space="preserve" onload="init(evt)">
<style type="text/css"><![CDATA[
.edge:hover path { stroke: red; }
.edge:hover polygon { stroke: red; fill: red; }
]]></style>
<script type="text/javascript"><![CDATA[
var edges = document.getElementsByTagName('g');
if (edges && edges.length) {
  for (var i=0;i<edges.length;i++) {
    if (edges[i].id.substr(0,4)=='edge') {
      edges[i].setAttribute('class','edge');
    }
  }
}
]]></script>
        <defs>
                <circle id="rim" cx="0" cy="0" r="7"/>
                <circle id="rim2" cx="0" cy="0" r="3.5"/>
                <g id="zoomPlus">
                        <use xlink:href="#rim" fill="#404040">
                                <set attributeName="fill" to="#808080" begin="zoomplus.mouseover" end="zoomplus.mouseout"/>
                        </use>
                        <path d="M-4,0h8M0,-4v8" fill="none" stroke="white" stroke-width="1.5" pointer-events="none"/>
                </g>
                <g id="zoomMin">
                        <use xlink:href="#rim" fill="#404040">
                                <set attributeName="fill" to="#808080" begin="zoomminus.mouseover" end="zoomminus.mouseout"/>
                        </use>
                        <path d="M-4,0h8" fill="none" stroke="white" stroke-width="1.5" pointer-events="none"/>
                </g>
                <g id="dirArrow">
                        <path fill="none" stroke="white" stroke-width="1.5" d="M0,-3.0v7 M-2.5,-0.5L0,-3.0L2.5,-0.5"/>
                </g>
               <g id="resetDef">
                       <use xlink:href="#rim2" fill="#404040">
                               <set attributeName="fill" to="#808080" begin="reset.mouseover" end="reset.mouseout"/>
                       </use>
               </g>
        </defs>

<script type="text/javascript">
var viewWidth = 570;
var viewHeight = 149;
var sectionId = 'dynsection-1';
</script>
<script xlink:href="svgpan.js"/>
<svg id="graph" class="graph">
<g id="viewport">
<title>DGtal::concepts::CDigitalSurfaceLocalEstimator&lt; T &gt;</title>
<polygon fill="white" stroke="none" points="-4,4 -4,-145 566,-145 566,4 -4,4"/>
<!-- Node1 -->
<g id="node1" class="node"><title>Node1</title>
<polygon fill="#bfbfbf" stroke="black" points="410,-9 410,-39 562,-39 562,-9 410,-9"/>
<text text-anchor="start" x="418" y="-27" font-family="FreeSans" font-size="10.00">DGtal::concepts::CDigital</text>
<text text-anchor="middle" x="486" y="-16" font-family="FreeSans" font-size="10.00">SurfaceLocalEstimator&lt; T &gt;</text>
</g>
<!-- Node2 -->
<g id="node2" class="node"><title>Node2</title>
<g id="a_node2"><a xlink:href="structDGtal_1_1concepts_1_1CSurfelLocalEstimator.html" target="_top" xlink:title="Aim: This concept describes an object that can process a range of surfels (that are supposed to belon...">
<polygon fill="white" stroke="black" points="238,-47 238,-77 372,-77 372,-47 238,-47"/>
<text text-anchor="start" x="246" y="-65" font-family="FreeSans" font-size="10.00">DGtal::concepts::CSurfel</text>
<text text-anchor="middle" x="305" y="-54" font-family="FreeSans" font-size="10.00">LocalEstimator&lt; T &gt;</text>
</a>
</g>
</g>
<!-- Node2&#45;&gt;Node1 -->
<g id="edge1" class="edge"><title>Node2&#45;&gt;Node1</title>
<path fill="none" stroke="midnightblue" d="M382.249,-45.8131C392.89,-43.554 403.788,-41.2406 414.321,-39.0045"/>
<polygon fill="midnightblue" stroke="midnightblue" points="381.2,-42.4578 372.144,-47.9582 382.653,-49.3052 381.2,-42.4578"/>
</g>
<!-- Node3 -->
<g id="node3" class="node"><title>Node3</title>
<g id="a_node3"><a xlink:href="structboost_1_1DefaultConstructible.html" target="_top" xlink:title="Go to http://www.sgi.com/tech/stl/DefaultConstructible.html. ">
<polygon fill="white" stroke="black" points="0.5,-121.5 0.5,-140.5 175.5,-140.5 175.5,-121.5 0.5,-121.5"/>
<text text-anchor="middle" x="88" y="-128.5" font-family="FreeSans" font-size="10.00">boost::DefaultConstructible&lt; T &gt;</text>
</a>
</g>
</g>
<!-- Node3&#45;&gt;Node2 -->
<g id="edge2" class="edge"><title>Node3&#45;&gt;Node2</title>
<path fill="none" stroke="midnightblue" d="M148.873,-119.226C158.021,-117.053 167.306,-114.63 176,-112 208.427,-102.192 244.263,-87.8812 269.749,-77.0801"/>
<polygon fill="midnightblue" stroke="midnightblue" points="147.999,-115.836 139.035,-121.484 149.565,-122.658 147.999,-115.836"/>
</g>
<!-- Node4 -->
<g id="node4" class="node"><title>Node4</title>
<g id="a_node4"><a xlink:href="structboost_1_1CopyConstructible.html" target="_top" xlink:title="Go to http://www.sgi.com/tech/stl/CopyConstructible.html. ">
<polygon fill="white" stroke="black" points="6,-83.5 6,-102.5 170,-102.5 170,-83.5 6,-83.5"/>
<text text-anchor="middle" x="88" y="-90.5" font-family="FreeSans" font-size="10.00">boost::CopyConstructible&lt; T &gt;</text>
</a>
</g>
</g>
<!-- Node4&#45;&gt;Node2 -->
<g id="edge3" class="edge"><title>Node4&#45;&gt;Node2</title>
<path fill="none" stroke="midnightblue" d="M164.996,-82.0424C188.752,-78.6172 214.759,-74.8673 237.786,-71.5471"/>
<polygon fill="midnightblue" stroke="midnightblue" points="164.366,-78.5969 154.968,-83.4883 165.365,-85.5253 164.366,-78.5969"/>
</g>
<!-- Node5 -->
<g id="node5" class="node"><title>Node5</title>
<g id="a_node5"><a xlink:href="structboost_1_1Assignable.html" target="_top" xlink:title="Go to http://www.sgi.com/tech/stl/Assignable.html. ">
<polygon fill="white" stroke="black" points="23.5,-45.5 23.5,-64.5 152.5,-64.5 152.5,-45.5 23.5,-45.5"/>
<text text-anchor="middle" x="88" y="-52.5" font-family="FreeSans" font-size="10.00">boost::Assignable&lt; T &gt;</text>
</a>
</g>
</g>
<!-- Node5&#45;&gt;Node2 -->
<g id="edge4" class="edge"><title>Node5&#45;&gt;Node2</title>
<path fill="none" stroke="midnightblue" d="M162.901,-57.4061C187.26,-58.1992 214.179,-59.0756 237.917,-59.8485"/>
<polygon fill="midnightblue" stroke="midnightblue" points="162.743,-53.8992 152.634,-57.0718 162.515,-60.8955 162.743,-53.8992"/>
</g>
<!-- Node6 -->
<g id="node6" class="node"><title>Node6</title>
<polygon fill="white" stroke="#bfbfbf" points="73.5,-0.5 73.5,-19.5 102.5,-19.5 102.5,-0.5 73.5,-0.5"/>
<text text-anchor="middle" x="88" y="-7.5" font-family="FreeSans" font-size="10.00">T</text>
</g>
<!-- Node6&#45;&gt;Node1 -->
<g id="edge6" class="edge"><title>Node6&#45;&gt;Node1</title>
<path fill="none" stroke="#9a32cd" stroke-dasharray="5,2" d="M112.893,-10.8447C170.479,-12.8806 318.888,-18.1273 409.927,-21.3459"/>
<polygon fill="#9a32cd" stroke="#9a32cd" points="112.749,-7.33751 102.631,-10.4819 112.501,-14.3331 112.749,-7.33751"/>
<text text-anchor="middle" x="305" y="-23" font-family="FreeSans" font-size="10.00"> myX</text>
</g>
<!-- Node6&#45;&gt;Node2 -->
<g id="edge5" class="edge"><title>Node6&#45;&gt;Node2</title>
<path fill="none" stroke="#9a32cd" stroke-dasharray="5,2" d="M112.62,-15.7128C143.488,-23.1786 198.699,-36.5319 241.913,-46.9837"/>
<polygon fill="#9a32cd" stroke="#9a32cd" points="113.319,-12.2809 102.776,-13.3319 111.673,-19.0848 113.319,-12.2809"/>
<text text-anchor="middle" x="207" y="-44" font-family="FreeSans" font-size="10.00"> myX</text>
</g>
</g>
</svg>
        <g id="navigator" transform="translate(0 0)" fill="#404254">
                <rect fill="#f2f5e9" fill-opacity="0.5" stroke="#606060" stroke-width=".5" x="0" y="0" width="60" height="60"/>
                <use id="zoomplus" xlink:href="#zoomPlus" x="17" y="9" onmousedown="handleZoom(evt,'in')"/>
                <use id="zoomminus" xlink:href="#zoomMin" x="42" y="9" onmousedown="handleZoom(evt,'out')"/>
                <use id="reset" xlink:href="#resetDef" x="30" y="36" onmousedown="handleReset()"/>
                <g id="arrowUp" xlink:href="#dirArrow" transform="translate(30 24)" onmousedown="handlePan(0,-1)">
                  <use xlink:href="#rim" fill="#404040">
                        <set attributeName="fill" to="#808080" begin="arrowUp.mouseover" end="arrowUp.mouseout"/>
                  </use>
                  <path fill="none" stroke="white" stroke-width="1.5" d="M0,-3.0v7 M-2.5,-0.5L0,-3.0L2.5,-0.5"/>
                </g>
                <g id="arrowRight" xlink:href="#dirArrow" transform="rotate(90) translate(36 -43)" onmousedown="handlePan(1,0)">
                  <use xlink:href="#rim" fill="#404040">
                        <set attributeName="fill" to="#808080" begin="arrowRight.mouseover" end="arrowRight.mouseout"/>
                  </use>
                  <path fill="none" stroke="white" stroke-width="1.5" d="M0,-3.0v7 M-2.5,-0.5L0,-3.0L2.5,-0.5"/>
                </g>
                <g id="arrowDown" xlink:href="#dirArrow" transform="rotate(180) translate(-30 -48)" onmousedown="handlePan(0,1)">
                  <use xlink:href="#rim" fill="#404040">
                        <set attributeName="fill" to="#808080" begin="arrowDown.mouseover" end="arrowDown.mouseout"/>
                  </use>
                  <path fill="none" stroke="white" stroke-width="1.5" d="M0,-3.0v7 M-2.5,-0.5L0,-3.0L2.5,-0.5"/>
                </g>
                <g id="arrowLeft" xlink:href="#dirArrow" transform="rotate(270) translate(-36 17)" onmousedown="handlePan(-1,0)">
                  <use xlink:href="#rim" fill="#404040">
                        <set attributeName="fill" to="#808080" begin="arrowLeft.mouseover" end="arrowLeft.mouseout"/>
                  </use>
                  <path fill="none" stroke="white" stroke-width="1.5" d="M0,-3.0v7 M-2.5,-0.5L0,-3.0L2.5,-0.5"/>
                </g>
        </g>
        <svg viewBox="0 0 15 15" width="100%" height="30px" preserveAspectRatio="xMaxYMin meet">
         <g id="arrow_out" transform="scale(0.3 0.3)">
          <a xlink:href="structDGtal_1_1concepts_1_1CDigitalSurfaceLocalEstimator__coll__graph_org.svg" target="_base">
           <rect id="button" ry="5" rx="5" y="6" x="6" height="38" width="38"
                fill="#f2f5e9" fill-opacity="0.5" stroke="#606060" stroke-width="1.0"/>
           <path id="arrow"
             d="M 11.500037,31.436501 C 11.940474,20.09759 22.043105,11.32322 32.158766,21.979434 L 37.068811,17.246167 C 37.068811,17.246167 37.088388,32 37.088388,32 L 22.160133,31.978069 C 22.160133,31.978069 26.997745,27.140456 26.997745,27.140456 C 18.528582,18.264221 13.291696,25.230495 11.500037,31.436501 z"
             style="fill:#404040;"/>
          </a>
         </g>
        </svg>
</svg>
