<?xml version="1.0" encoding="UTF-8" standalone="no"?>
<!DOCTYPE svg PUBLIC "-//W3C//DTD SVG 1.1//EN"
 "http://www.w3.org/Graphics/SVG/1.1/DTD/svg11.dtd">
<!-- Generated by graphviz version 2.36.0 (20140111.2315)
 -->
<!-- Title: DGtal::concepts::CAdditivePrimitiveComputer&lt; T &gt; Pages: 1 -->
<!--zoomable 295 -->
<svg id="main" version="1.1" xmlns="http://www.w3.org/2000/svg" xmlns:xlink="http://www.w3.org/1999/xlink" xml:space="preserve" onload="init(evt)">
<style type="text/css"><![CDATA[
.edge:hover path { stroke: red; }
.edge:hover polygon { stroke: red; fill: red; }
]]></style>
<script type="text/javascript"><![CDATA[
var edges = document.getElementsByTagName('g');
if (edges && edges.length) {
  for (var i=0;i<edges.length;i++) {
    if (edges[i].id.substr(0,4)=='edge') {
      edges[i].setAttribute('class','edge');
    }
  }
}
]]></script>
        <defs>
                <circle id="rim" cx="0" cy="0" r="7"/>
                <circle id="rim2" cx="0" cy="0" r="3.5"/>
                <g id="zoomPlus">
                        <use xlink:href="#rim" fill="#404040">
                                <set attributeName="fill" to="#808080" begin="zoomplus.mouseover" end="zoomplus.mouseout"/>
                        </use>
                        <path d="M-4,0h8M0,-4v8" fill="none" stroke="white" stroke-width="1.5" pointer-events="none"/>
                </g>
                <g id="zoomMin">
                        <use xlink:href="#rim" fill="#404040">
                                <set attributeName="fill" to="#808080" begin="zoomminus.mouseover" end="zoomminus.mouseout"/>
                        </use>
                        <path d="M-4,0h8" fill="none" stroke="white" stroke-width="1.5" pointer-events="none"/>
                </g>
                <g id="dirArrow">
                        <path fill="none" stroke="white" stroke-width="1.5" d="M0,-3.0v7 M-2.5,-0.5L0,-3.0L2.5,-0.5"/>
                </g>
               <g id="resetDef">
                       <use xlink:href="#rim2" fill="#404040">
                               <set attributeName="fill" to="#808080" begin="reset.mouseover" end="reset.mouseout"/>
                       </use>
               </g>
        </defs>

<script type="text/javascript">
var viewWidth = 922;
var viewHeight = 295;
var sectionId = 'dynsection-1';
</script>
<script xlink:href="svgpan.js"/>
<svg id="graph" class="graph">
<g id="viewport">
<title>DGtal::concepts::CAdditivePrimitiveComputer&lt; T &gt;</title>
<polygon fill="white" stroke="none" points="-4,4 -4,-291 918,-291 918,4 -4,4"/>
<!-- Node1 -->
<g id="node1" class="node"><title>Node1</title>
<polygon fill="#bfbfbf" stroke="black" points="770,-88 770,-118 914,-118 914,-88 770,-88"/>
<text text-anchor="start" x="778" y="-106" font-family="FreeSans" font-size="10.00">DGtal::concepts::CAdditive</text>
<text text-anchor="middle" x="842" y="-95" font-family="FreeSans" font-size="10.00">PrimitiveComputer&lt; T &gt;</text>
</g>
<!-- Node2 -->
<g id="node2" class="node"><title>Node2</title>
<g id="a_node2"><a xlink:href="structDGtal_1_1concepts_1_1CIncrementalPrimitiveComputer.html" target="_top" xlink:title="Aim: Defines the concept describing an object that computes some primitive from input points given on...">
<polygon fill="white" stroke="black" points="537.5,-134 537.5,-164 700.5,-164 700.5,-134 537.5,-134"/>
<text text-anchor="start" x="545.5" y="-152" font-family="FreeSans" font-size="10.00">DGtal::concepts::CIncremental</text>
<text text-anchor="middle" x="619" y="-141" font-family="FreeSans" font-size="10.00">PrimitiveComputer&lt; T &gt;</text>
</a>
</g>
</g>
<!-- Node2&#45;&gt;Node1 -->
<g id="edge1" class="edge"><title>Node2&#45;&gt;Node1</title>
<path fill="none" stroke="midnightblue" d="M702.437,-131.841C724.639,-127.22 748.461,-122.262 769.982,-117.782"/>
<polygon fill="midnightblue" stroke="midnightblue" points="701.441,-128.473 692.364,-133.938 702.867,-135.327 701.441,-128.473"/>
</g>
<!-- Node3 -->
<g id="node3" class="node"><title>Node3</title>
<g id="a_node3"><a xlink:href="structDGtal_1_1concepts_1_1CPrimitiveComputer.html" target="_top" xlink:title="Aim: Defines the concept describing an object that computes some primitive from input points...">
<polygon fill="white" stroke="black" points="267.5,-193 267.5,-223 414.5,-223 414.5,-193 267.5,-193"/>
<text text-anchor="start" x="275.5" y="-211" font-family="FreeSans" font-size="10.00">DGtal::concepts::CPrimitive</text>
<text text-anchor="middle" x="341" y="-200" font-family="FreeSans" font-size="10.00">Computer&lt; T &gt;</text>
</a>
</g>
</g>
<!-- Node3&#45;&gt;Node2 -->
<g id="edge2" class="edge"><title>Node3&#45;&gt;Node2</title>
<path fill="none" stroke="midnightblue" d="M422.281,-190.838C462.003,-182.347 509.508,-172.192 547.768,-164.013"/>
<polygon fill="midnightblue" stroke="midnightblue" points="421.408,-187.446 412.361,-192.959 422.871,-194.291 421.408,-187.446"/>
</g>
<!-- Node4 -->
<g id="node4" class="node"><title>Node4</title>
<g id="a_node4"><a xlink:href="structboost_1_1DefaultConstructible.html" target="_top" xlink:title="Go to http://www.sgi.com/tech/stl/DefaultConstructible.html. ">
<polygon fill="white" stroke="black" points="0.5,-267.5 0.5,-286.5 175.5,-286.5 175.5,-267.5 0.5,-267.5"/>
<text text-anchor="middle" x="88" y="-274.5" font-family="FreeSans" font-size="10.00">boost::DefaultConstructible&lt; T &gt;</text>
</a>
</g>
</g>
<!-- Node4&#45;&gt;Node3 -->
<g id="edge3" class="edge"><title>Node4&#45;&gt;Node3</title>
<path fill="none" stroke="midnightblue" d="M146.018,-265.241C156.043,-262.976 166.352,-260.52 176,-258 216.32,-247.469 261.588,-233.503 294.333,-223.008"/>
<polygon fill="midnightblue" stroke="midnightblue" points="145.127,-261.853 136.123,-267.437 146.644,-268.687 145.127,-261.853"/>
</g>
<!-- Node5 -->
<g id="node5" class="node"><title>Node5</title>
<g id="a_node5"><a xlink:href="structboost_1_1CopyConstructible.html" target="_top" xlink:title="Go to http://www.sgi.com/tech/stl/CopyConstructible.html. ">
<polygon fill="white" stroke="black" points="6,-229.5 6,-248.5 170,-248.5 170,-229.5 6,-229.5"/>
<text text-anchor="middle" x="88" y="-236.5" font-family="FreeSans" font-size="10.00">boost::CopyConstructible&lt; T &gt;</text>
</a>
</g>
</g>
<!-- Node5&#45;&gt;Node3 -->
<g id="edge4" class="edge"><title>Node5&#45;&gt;Node3</title>
<path fill="none" stroke="midnightblue" d="M175.995,-228.256C205.821,-224.572 238.86,-220.491 267.421,-216.964"/>
<polygon fill="midnightblue" stroke="midnightblue" points="175.51,-224.789 166.014,-229.488 176.368,-231.736 175.51,-224.789"/>
</g>
<!-- Node6 -->
<g id="node6" class="node"><title>Node6</title>
<g id="a_node6"><a xlink:href="structboost_1_1Assignable.html" target="_top" xlink:title="Go to http://www.sgi.com/tech/stl/Assignable.html. ">
<polygon fill="white" stroke="black" points="23.5,-191.5 23.5,-210.5 152.5,-210.5 152.5,-191.5 23.5,-191.5"/>
<text text-anchor="middle" x="88" y="-198.5" font-family="FreeSans" font-size="10.00">boost::Assignable&lt; T &gt;</text>
</a>
</g>
</g>
<!-- Node6&#45;&gt;Node3 -->
<g id="edge5" class="edge"><title>Node6&#45;&gt;Node3</title>
<path fill="none" stroke="midnightblue" d="M162.677,-203.055C195.583,-203.972 234.256,-205.051 267.074,-205.966"/>
<polygon fill="midnightblue" stroke="midnightblue" points="162.756,-199.556 152.662,-202.775 162.561,-206.553 162.756,-199.556"/>
</g>
<!-- Node7 -->
<g id="node7" class="node"><title>Node7</title>
<polygon fill="white" stroke="#bfbfbf" points="73.5,-139.5 73.5,-158.5 102.5,-158.5 102.5,-139.5 73.5,-139.5"/>
<text text-anchor="middle" x="88" y="-146.5" font-family="FreeSans" font-size="10.00">T</text>
</g>
<!-- Node7&#45;&gt;Node1 -->
<g id="edge12" class="edge"><title>Node7&#45;&gt;Node1</title>
<path fill="none" stroke="#9a32cd" stroke-dasharray="5,2" d="M112.751,-147.547C213.4,-141.39 607.023,-117.312 769.872,-107.351"/>
<polygon fill="#9a32cd" stroke="#9a32cd" points="112.462,-144.058 102.694,-148.162 112.889,-151.045 112.462,-144.058"/>
<text text-anchor="middle" x="487" y="-129" font-family="FreeSans" font-size="10.00"> myX</text>
</g>
<!-- Node7&#45;&gt;Node2 -->
<g id="edge7" class="edge"><title>Node7&#45;&gt;Node2</title>
<path fill="none" stroke="#9a32cd" stroke-dasharray="5,2" d="M112.722,-149C186.536,-149 414.549,-149 537.484,-149"/>
<polygon fill="#9a32cd" stroke="#9a32cd" points="112.608,-145.5 102.608,-149 112.608,-152.5 112.608,-145.5"/>
<text text-anchor="middle" x="341" y="-152" font-family="FreeSans" font-size="10.00"> myX</text>
</g>
<!-- Node7&#45;&gt;Node3 -->
<g id="edge6" class="edge"><title>Node7&#45;&gt;Node3</title>
<path fill="none" stroke="#9a32cd" stroke-dasharray="5,2" d="M112.734,-154.579C149.823,-163.297 222.788,-180.448 276.07,-192.973"/>
<polygon fill="#9a32cd" stroke="#9a32cd" points="113.388,-151.137 102.852,-152.256 111.786,-157.952 113.388,-151.137"/>
<text text-anchor="middle" x="207" y="-181" font-family="FreeSans" font-size="10.00"> myX</text>
</g>
<!-- Node8 -->
<g id="node8" class="node"><title>Node8</title>
<g id="a_node8"><a xlink:href="structDGtal_1_1CForwardIteratorArchetype.html" target="_top" xlink:title="DGtal::CForwardIteratorArchetype\l\&lt; Point \&gt;">
<polygon fill="white" stroke="black" points="530,-44 530,-74 708,-74 708,-44 530,-44"/>
<text text-anchor="start" x="538" y="-62" font-family="FreeSans" font-size="10.00">DGtal::CForwardIteratorArchetype</text>
<text text-anchor="middle" x="619" y="-51" font-family="FreeSans" font-size="10.00">&lt; Point &gt;</text>
</a>
</g>
</g>
<!-- Node8&#45;&gt;Node1 -->
<g id="edge8" class="edge"><title>Node8&#45;&gt;Node1</title>
<path fill="none" stroke="#9a32cd" stroke-dasharray="5,2" d="M718.318,-71.6985C729.713,-73.5998 741.138,-75.703 752,-78 765.033,-80.756 778.97,-84.3529 791.855,-87.9557"/>
<polygon fill="#9a32cd" stroke="#9a32cd" points="718.758,-68.2242 708.327,-70.0798 717.639,-75.1341 718.758,-68.2242"/>
<text text-anchor="middle" x="739" y="-81" font-family="FreeSans" font-size="10.00"> myIt</text>
</g>
<!-- Node9 -->
<g id="node9" class="node"><title>Node9</title>
<polygon fill="white" stroke="#bfbfbf" points="278.5,-44 278.5,-74 403.5,-74 403.5,-44 278.5,-44"/>
<text text-anchor="start" x="286.5" y="-62" font-family="FreeSans" font-size="10.00">boost::forward_iterator</text>
<text text-anchor="middle" x="341" y="-51" font-family="FreeSans" font-size="10.00">_archetype&lt; Point &gt;</text>
</g>
<!-- Node9&#45;&gt;Node8 -->
<g id="edge9" class="edge"><title>Node9&#45;&gt;Node8</title>
<path fill="none" stroke="midnightblue" d="M413.865,-59C449.339,-59 492.448,-59 529.894,-59"/>
<polygon fill="midnightblue" stroke="midnightblue" points="413.596,-55.5001 403.596,-59 413.596,-62.5001 413.596,-55.5001"/>
</g>
<!-- Node10 -->
<g id="node10" class="node"><title>Node10</title>
<g id="a_node10"><a xlink:href="structDGtal_1_1CForwardIteratorArchetype.html" target="_top" xlink:title="An archetype of ForwardIterator. ">
<polygon fill="white" stroke="black" points="238,-5.5 238,-24.5 444,-24.5 444,-5.5 238,-5.5"/>
<text text-anchor="middle" x="341" y="-12.5" font-family="FreeSans" font-size="10.00">DGtal::CForwardIteratorArchetype&lt; T &gt;</text>
</a>
</g>
</g>
<!-- Node10&#45;&gt;Node8 -->
<g id="edge10" class="edge"><title>Node10&#45;&gt;Node8</title>
<path fill="none" stroke="orange" stroke-dasharray="5,2" d="M411.776,-26.1236C447.646,-31.8421 491.734,-38.8706 529.925,-44.959"/>
<polygon fill="orange" stroke="orange" points="412.314,-22.6654 401.888,-24.5473 411.212,-29.5781 412.314,-22.6654"/>
<text text-anchor="middle" x="487" y="-44" font-family="FreeSans" font-size="10.00"> &lt; Point &gt;</text>
</g>
<!-- Node11 -->
<g id="node11" class="node"><title>Node11</title>
<polygon fill="white" stroke="#bfbfbf" points="25.5,-0 25.5,-30 150.5,-30 150.5,-0 25.5,-0"/>
<text text-anchor="start" x="33.5" y="-18" font-family="FreeSans" font-size="10.00">boost::forward_iterator</text>
<text text-anchor="middle" x="88" y="-7" font-family="FreeSans" font-size="10.00">_archetype&lt; T &gt;</text>
</g>
<!-- Node11&#45;&gt;Node10 -->
<g id="edge11" class="edge"><title>Node11&#45;&gt;Node10</title>
<path fill="none" stroke="midnightblue" d="M160.8,-15C184.806,-15 212.042,-15 237.904,-15"/>
<polygon fill="midnightblue" stroke="midnightblue" points="160.723,-11.5001 150.723,-15 160.723,-18.5001 160.723,-11.5001"/>
</g>
</g>
</svg>
        <g id="navigator" transform="translate(0 0)" fill="#404254">
                <rect fill="#f2f5e9" fill-opacity="0.5" stroke="#606060" stroke-width=".5" x="0" y="0" width="60" height="60"/>
                <use id="zoomplus" xlink:href="#zoomPlus" x="17" y="9" onmousedown="handleZoom(evt,'in')"/>
                <use id="zoomminus" xlink:href="#zoomMin" x="42" y="9" onmousedown="handleZoom(evt,'out')"/>
                <use id="reset" xlink:href="#resetDef" x="30" y="36" onmousedown="handleReset()"/>
                <g id="arrowUp" xlink:href="#dirArrow" transform="translate(30 24)" onmousedown="handlePan(0,-1)">
                  <use xlink:href="#rim" fill="#404040">
                        <set attributeName="fill" to="#808080" begin="arrowUp.mouseover" end="arrowUp.mouseout"/>
                  </use>
                  <path fill="none" stroke="white" stroke-width="1.5" d="M0,-3.0v7 M-2.5,-0.5L0,-3.0L2.5,-0.5"/>
                </g>
                <g id="arrowRight" xlink:href="#dirArrow" transform="rotate(90) translate(36 -43)" onmousedown="handlePan(1,0)">
                  <use xlink:href="#rim" fill="#404040">
                        <set attributeName="fill" to="#808080" begin="arrowRight.mouseover" end="arrowRight.mouseout"/>
                  </use>
                  <path fill="none" stroke="white" stroke-width="1.5" d="M0,-3.0v7 M-2.5,-0.5L0,-3.0L2.5,-0.5"/>
                </g>
                <g id="arrowDown" xlink:href="#dirArrow" transform="rotate(180) translate(-30 -48)" onmousedown="handlePan(0,1)">
                  <use xlink:href="#rim" fill="#404040">
                        <set attributeName="fill" to="#808080" begin="arrowDown.mouseover" end="arrowDown.mouseout"/>
                  </use>
                  <path fill="none" stroke="white" stroke-width="1.5" d="M0,-3.0v7 M-2.5,-0.5L0,-3.0L2.5,-0.5"/>
                </g>
                <g id="arrowLeft" xlink:href="#dirArrow" transform="rotate(270) translate(-36 17)" onmousedown="handlePan(-1,0)">
                  <use xlink:href="#rim" fill="#404040">
                        <set attributeName="fill" to="#808080" begin="arrowLeft.mouseover" end="arrowLeft.mouseout"/>
                  </use>
                  <path fill="none" stroke="white" stroke-width="1.5" d="M0,-3.0v7 M-2.5,-0.5L0,-3.0L2.5,-0.5"/>
                </g>
        </g>
        <svg viewBox="0 0 15 15" width="100%" height="30px" preserveAspectRatio="xMaxYMin meet">
         <g id="arrow_out" transform="scale(0.3 0.3)">
          <a xlink:href="structDGtal_1_1concepts_1_1CAdditivePrimitiveComputer__coll__graph_org.svg" target="_base">
           <rect id="button" ry="5" rx="5" y="6" x="6" height="38" width="38"
                fill="#f2f5e9" fill-opacity="0.5" stroke="#606060" stroke-width="1.0"/>
           <path id="arrow"
             d="M 11.500037,31.436501 C 11.940474,20.09759 22.043105,11.32322 32.158766,21.979434 L 37.068811,17.246167 C 37.068811,17.246167 37.088388,32 37.088388,32 L 22.160133,31.978069 C 22.160133,31.978069 26.997745,27.140456 26.997745,27.140456 C 18.528582,18.264221 13.291696,25.230495 11.500037,31.436501 z"
             style="fill:#404040;"/>
          </a>
         </g>
        </svg>
</svg>
