<?xml version="1.0" encoding="UTF-8" standalone="no"?>
<!DOCTYPE svg PUBLIC "-//W3C//DTD SVG 1.1//EN"
 "http://www.w3.org/Graphics/SVG/1.1/DTD/svg11.dtd">
<!-- Generated by graphviz version 2.40.1 (20161225.0304)
 -->
<!-- Title: DGtal::concepts::CDrawableWithBoard3DTo2D&lt; T, S, KS &gt; Pages: 1 -->
<svg width="160pt" height="178pt"
 viewBox="0.00 0.00 160.00 178.00" xmlns="http://www.w3.org/2000/svg" xmlns:xlink="http://www.w3.org/1999/xlink">
<g id="graph0" class="graph" transform="scale(1 1) rotate(0) translate(4 174)">
<title>DGtal::concepts::CDrawableWithBoard3DTo2D&lt; T, S, KS &gt;</title>
<polygon fill="#ffffff" stroke="transparent" points="-4,4 -4,-174 155.9961,-174 155.9961,4 -4,4"/>
<!-- Node0 -->
<g id="node1" class="node">
<title>Node0</title>
<polygon fill="#bfbfbf" stroke="#000000" points="0,-.5 0,-28.5 151.9961,-28.5 151.9961,-.5 0,-.5"/>
<text text-anchor="start" x="8" y="-16.5" font-family="FreeSans" font-size="10.00" fill="#000000">DGtal::concepts::CDrawable</text>
<text text-anchor="middle" x="75.998" y="-6.5" font-family="FreeSans" font-size="10.00" fill="#000000">WithBoard3DTo2D&lt; T, S, KS &gt;</text>
</g>
<!-- Node1 -->
<g id="node2" class="node">
<title>Node1</title>
<g id="a_node2"><a xlink:href="structDGtal_1_1concepts_1_1CDrawableWithDisplay3D.html" target="_top" xlink:title="DGtal::concepts::CDrawable\lWithDisplay3D\&lt; T, S, KS \&gt;">
<polygon fill="#ffffff" stroke="#000000" points="4.917,-66.5 4.917,-94.5 147.0791,-94.5 147.0791,-66.5 4.917,-66.5"/>
<text text-anchor="start" x="12.917" y="-82.5" font-family="FreeSans" font-size="10.00" fill="#000000">DGtal::concepts::CDrawable</text>
<text text-anchor="middle" x="75.998" y="-72.5" font-family="FreeSans" font-size="10.00" fill="#000000">WithDisplay3D&lt; T, S, KS &gt;</text>
</a>
</g>
</g>
<!-- Node1&#45;&gt;Node0 -->
<g id="edge1" class="edge">
<title>Node1&#45;&gt;Node0</title>
<path fill="none" stroke="#191970" d="M75.998,-56.0322C75.998,-46.8606 75.998,-36.7449 75.998,-28.7931"/>
<polygon fill="#191970" stroke="#191970" points="72.4981,-56.1789 75.998,-66.179 79.4981,-56.179 72.4981,-56.1789"/>
</g>
<!-- Node2 -->
<g id="node3" class="node">
<title>Node2</title>
<g id="a_node3"><a xlink:href="structDGtal_1_1concepts_1_1CDrawableWithDisplay3D.html" target="_top" xlink:title="DGtal::concepts::CDrawable\lWithDisplay3D\&lt; T, Sp, KSp \&gt;">
<polygon fill="#ffffff" stroke="#000000" points="3.0591,-141.5 3.0591,-169.5 148.937,-169.5 148.937,-141.5 3.0591,-141.5"/>
<text text-anchor="start" x="11.0591" y="-157.5" font-family="FreeSans" font-size="10.00" fill="#000000">DGtal::concepts::CDrawable</text>
<text text-anchor="middle" x="75.998" y="-147.5" font-family="FreeSans" font-size="10.00" fill="#000000">WithDisplay3D&lt; T, Sp, KSp &gt;</text>
</a>
</g>
</g>
<!-- Node2&#45;&gt;Node1 -->
<g id="edge2" class="edge">
<title>Node2&#45;&gt;Node1</title>
<path fill="none" stroke="#ffa500" stroke-dasharray="5,2" d="M75.998,-131.0415C75.998,-118.9507 75.998,-104.7938 75.998,-94.5437"/>
<polygon fill="#ffa500" stroke="#ffa500" points="72.4981,-131.393 75.998,-141.3931 79.4981,-131.3931 72.4981,-131.393"/>
<text text-anchor="middle" x="103.979" y="-115" font-family="FreeSans" font-size="10.00" fill="#000000"> &lt; T, S, KS &gt;</text>
</g>
</g>
</svg>
