<?xml version="1.0" encoding="UTF-8" standalone="no"?>
<!DOCTYPE svg PUBLIC "-//W3C//DTD SVG 1.1//EN"
 "http://www.w3.org/Graphics/SVG/1.1/DTD/svg11.dtd">
<!-- Generated by graphviz version 2.36.0 (20140111.2315)
 -->
<!-- Title: DGtal::concepts::CSurfelLocalEstimator&lt; T &gt; Pages: 1 -->
<svg width="380pt" height="142pt"
 viewBox="0.00 0.00 380.00 142.00" xmlns="http://www.w3.org/2000/svg" xmlns:xlink="http://www.w3.org/1999/xlink">
<g id="graph0" class="graph" transform="scale(1 1) rotate(0) translate(4 138)">
<title>DGtal::concepts::CSurfelLocalEstimator&lt; T &gt;</title>
<polygon fill="white" stroke="none" points="-4,4 -4,-138 376,-138 376,4 -4,4"/>
<!-- Node1 -->
<g id="node1" class="node"><title>Node1</title>
<polygon fill="#bfbfbf" stroke="black" points="238,-52 238,-82 372,-82 372,-52 238,-52"/>
<text text-anchor="start" x="246" y="-70" font-family="FreeSans" font-size="10.00">DGtal::concepts::CSurfel</text>
<text text-anchor="middle" x="305" y="-59" font-family="FreeSans" font-size="10.00">LocalEstimator&lt; T &gt;</text>
</g>
<!-- Node2 -->
<g id="node2" class="node"><title>Node2</title>
<g id="a_node2"><a xlink:href="structboost_1_1DefaultConstructible.html" target="_top" xlink:title="Go to http://www.sgi.com/tech/stl/DefaultConstructible.html. ">
<polygon fill="white" stroke="black" points="0.5,-114.5 0.5,-133.5 175.5,-133.5 175.5,-114.5 0.5,-114.5"/>
<text text-anchor="middle" x="88" y="-121.5" font-family="FreeSans" font-size="10.00">boost::DefaultConstructible&lt; T &gt;</text>
</a>
</g>
</g>
<!-- Node2&#45;&gt;Node1 -->
<g id="edge1" class="edge"><title>Node2&#45;&gt;Node1</title>
<path fill="none" stroke="midnightblue" d="M145.653,-112.26C155.789,-109.98 166.23,-107.513 176,-105 202.828,-98.0983 232.5,-89.3598 256.516,-82.0032"/>
<polygon fill="midnightblue" stroke="midnightblue" points="144.662,-108.895 135.655,-114.473 146.175,-115.729 144.662,-108.895"/>
</g>
<!-- Node3 -->
<g id="node3" class="node"><title>Node3</title>
<g id="a_node3"><a xlink:href="structboost_1_1CopyConstructible.html" target="_top" xlink:title="Go to http://www.sgi.com/tech/stl/CopyConstructible.html. ">
<polygon fill="white" stroke="black" points="6,-76.5 6,-95.5 170,-95.5 170,-76.5 6,-76.5"/>
<text text-anchor="middle" x="88" y="-83.5" font-family="FreeSans" font-size="10.00">boost::CopyConstructible&lt; T &gt;</text>
</a>
</g>
</g>
<!-- Node3&#45;&gt;Node1 -->
<g id="edge2" class="edge"><title>Node3&#45;&gt;Node1</title>
<path fill="none" stroke="midnightblue" d="M180.33,-77.9289C199.696,-76.2175 219.779,-74.4428 237.986,-72.8338"/>
<polygon fill="midnightblue" stroke="midnightblue" points="179.935,-74.4501 170.282,-78.8169 180.552,-81.4229 179.935,-74.4501"/>
</g>
<!-- Node4 -->
<g id="node4" class="node"><title>Node4</title>
<g id="a_node4"><a xlink:href="structboost_1_1Assignable.html" target="_top" xlink:title="Go to http://www.sgi.com/tech/stl/Assignable.html. ">
<polygon fill="white" stroke="black" points="23.5,-38.5 23.5,-57.5 152.5,-57.5 152.5,-38.5 23.5,-38.5"/>
<text text-anchor="middle" x="88" y="-45.5" font-family="FreeSans" font-size="10.00">boost::Assignable&lt; T &gt;</text>
</a>
</g>
</g>
<!-- Node4&#45;&gt;Node1 -->
<g id="edge3" class="edge"><title>Node4&#45;&gt;Node1</title>
<path fill="none" stroke="midnightblue" d="M162.901,-54.5308C187.26,-56.6835 214.179,-59.0623 237.917,-61.1601"/>
<polygon fill="midnightblue" stroke="midnightblue" points="162.904,-51.0175 152.634,-53.6235 162.287,-57.9903 162.904,-51.0175"/>
</g>
<!-- Node5 -->
<g id="node5" class="node"><title>Node5</title>
<polygon fill="white" stroke="#bfbfbf" points="73.5,-0.5 73.5,-19.5 102.5,-19.5 102.5,-0.5 73.5,-0.5"/>
<text text-anchor="middle" x="88" y="-7.5" font-family="FreeSans" font-size="10.00">T</text>
</g>
<!-- Node5&#45;&gt;Node1 -->
<g id="edge4" class="edge"><title>Node5&#45;&gt;Node1</title>
<path fill="none" stroke="#9a32cd" stroke-dasharray="5,2" d="M112.579,-14.6688C130.142,-18.2627 154.67,-23.5274 176,-29 195.752,-34.0676 200.45,-36.2028 220,-42 230.795,-45.2011 242.368,-48.6404 253.367,-51.9129"/>
<polygon fill="#9a32cd" stroke="#9a32cd" points="113.129,-11.2093 102.634,-12.66 111.743,-18.0707 113.129,-11.2093"/>
<text text-anchor="middle" x="207" y="-45" font-family="FreeSans" font-size="10.00"> myX</text>
</g>
</g>
</svg>
