<?xml version="1.0" encoding="UTF-8" standalone="no"?>
<!DOCTYPE svg PUBLIC "-//W3C//DTD SVG 1.1//EN"
 "http://www.w3.org/Graphics/SVG/1.1/DTD/svg11.dtd">
<!-- Generated by graphviz version 2.36.0 (20140111.2315)
 -->
<!-- Title: DGtal::concepts::CConstSinglePassRangeFromPoint&lt; T &gt; Pages: 1 -->
<svg width="850pt" height="93pt"
 viewBox="0.00 0.00 850.00 93.00" xmlns="http://www.w3.org/2000/svg" xmlns:xlink="http://www.w3.org/1999/xlink">
<g id="graph0" class="graph" transform="scale(1 1) rotate(0) translate(4 89)">
<title>DGtal::concepts::CConstSinglePassRangeFromPoint&lt; T &gt;</title>
<polygon fill="white" stroke="none" points="-4,4 -4,-89 846,-89 846,4 -4,4"/>
<!-- Node1 -->
<g id="node1" class="node"><title>Node1</title>
<polygon fill="#bfbfbf" stroke="black" points="202.5,-41 202.5,-71 365.5,-71 365.5,-41 202.5,-41"/>
<text text-anchor="start" x="210.5" y="-59" font-family="FreeSans" font-size="10.00">DGtal::concepts::CConstSingle</text>
<text text-anchor="middle" x="284" y="-48" font-family="FreeSans" font-size="10.00">PassRangeFromPoint&lt; T &gt;</text>
</g>
<!-- Node3 -->
<g id="node3" class="node"><title>Node3</title>
<g id="a_node3"><a xlink:href="structDGtal_1_1concepts_1_1CSinglePassRangeFromPoint.html" target="_top" xlink:title="Aim: refined concept of single pass range with a begin() method from a point. ">
<polygon fill="white" stroke="black" points="482,-55 482,-85 626,-85 626,-55 482,-55"/>
<text text-anchor="start" x="490" y="-73" font-family="FreeSans" font-size="10.00">DGtal::concepts::CSingle</text>
<text text-anchor="middle" x="554" y="-62" font-family="FreeSans" font-size="10.00">PassRangeFromPoint&lt; T &gt;</text>
</a>
</g>
</g>
<!-- Node1&#45;&gt;Node3 -->
<g id="edge2" class="edge"><title>Node1&#45;&gt;Node3</title>
<path fill="none" stroke="midnightblue" d="M375.888,-60.7479C410.507,-62.5563 449.422,-64.5892 481.939,-66.2879"/>
<polygon fill="midnightblue" stroke="midnightblue" points="375.941,-57.246 365.772,-60.2194 375.576,-64.2365 375.941,-57.246"/>
</g>
<!-- Node4 -->
<g id="node4" class="node"><title>Node4</title>
<g id="a_node4"><a xlink:href="structDGtal_1_1concepts_1_1CConstSinglePassRangeFromPoint.html" target="_top" xlink:title="DGtal::concepts::CConstSingle\lPassRangeFromPoint\&lt; T, Value \&gt;">
<polygon fill="white" stroke="black" points="466,-6 466,-36 642,-36 642,-6 466,-6"/>
<text text-anchor="start" x="474" y="-24" font-family="FreeSans" font-size="10.00">DGtal::concepts::CConstSingle</text>
<text text-anchor="middle" x="554" y="-13" font-family="FreeSans" font-size="10.00">PassRangeFromPoint&lt; T, Value &gt;</text>
</a>
</g>
</g>
<!-- Node1&#45;&gt;Node4 -->
<g id="edge3" class="edge"><title>Node1&#45;&gt;Node4</title>
<path fill="none" stroke="orange" stroke-dasharray="5,2" d="M375.916,-44.1266C404.98,-40.3309 437.071,-36.14 465.86,-32.3802"/>
<polygon fill="orange" stroke="orange" points="375.235,-40.6858 365.772,-45.4514 376.141,-47.6269 375.235,-40.6858"/>
<text text-anchor="middle" x="416" y="-46" font-family="FreeSans" font-size="10.00"> &lt; T, Value &gt;</text>
</g>
<!-- Node2 -->
<g id="node2" class="node"><title>Node2</title>
<g id="a_node2"><a xlink:href="structDGtal_1_1concepts_1_1CConstSinglePassRange.html" target="_top" xlink:title="Aim: Defines the concept describing a const single pass range. ">
<polygon fill="white" stroke="black" points="0.5,-41 0.5,-71 163.5,-71 163.5,-41 0.5,-41"/>
<text text-anchor="start" x="8.5" y="-59" font-family="FreeSans" font-size="10.00">DGtal::concepts::CConstSingle</text>
<text text-anchor="middle" x="82" y="-48" font-family="FreeSans" font-size="10.00">PassRange&lt; T &gt;</text>
</a>
</g>
</g>
<!-- Node2&#45;&gt;Node1 -->
<g id="edge1" class="edge"><title>Node2&#45;&gt;Node1</title>
<path fill="none" stroke="midnightblue" d="M173.954,-56C183.392,-56 192.938,-56 202.252,-56"/>
<polygon fill="midnightblue" stroke="midnightblue" points="173.771,-52.5001 163.771,-56 173.771,-59.5001 173.771,-52.5001"/>
</g>
<!-- Node5 -->
<g id="node5" class="node"><title>Node5</title>
<g id="a_node5"><a xlink:href="structDGtal_1_1concepts_1_1CSinglePassRangeWithWritableIteratorFromPoint.html" target="_top" xlink:title="Aim: refined concept of single pass range with a outputIterator() method from a point. ">
<polygon fill="white" stroke="black" points="680.5,-0.5 680.5,-41.5 841.5,-41.5 841.5,-0.5 680.5,-0.5"/>
<text text-anchor="start" x="688.5" y="-29.5" font-family="FreeSans" font-size="10.00">DGtal::concepts::CSingle</text>
<text text-anchor="start" x="688.5" y="-18.5" font-family="FreeSans" font-size="10.00">PassRangeWithWritableIterator</text>
<text text-anchor="middle" x="761" y="-7.5" font-family="FreeSans" font-size="10.00">FromPoint&lt; T, Value &gt;</text>
</a>
</g>
</g>
<!-- Node4&#45;&gt;Node5 -->
<g id="edge4" class="edge"><title>Node4&#45;&gt;Node5</title>
<path fill="none" stroke="midnightblue" d="M652.361,-21C661.727,-21 671.151,-21 680.318,-21"/>
<polygon fill="midnightblue" stroke="midnightblue" points="652.236,-17.5001 642.236,-21 652.236,-24.5001 652.236,-17.5001"/>
</g>
</g>
</svg>
