<?xml version="1.0" encoding="UTF-8" standalone="no"?>
<!DOCTYPE svg PUBLIC "-//W3C//DTD SVG 1.1//EN"
 "http://www.w3.org/Graphics/SVG/1.1/DTD/svg11.dtd">
<!-- Generated by graphviz version 2.40.1 (20161225.0304)
 -->
<!-- Title: DGtal::MultipleAssociativeCategory Pages: 1 -->
<svg width="656pt" height="178pt"
 viewBox="0.00 0.00 655.74 178.00" xmlns="http://www.w3.org/2000/svg" xmlns:xlink="http://www.w3.org/1999/xlink">
<g id="graph0" class="graph" transform="scale(1 1) rotate(0) translate(4 174)">
<title>DGtal::MultipleAssociativeCategory</title>
<polygon fill="#ffffff" stroke="transparent" points="-4,4 -4,-174 651.7373,-174 651.7373,4 -4,4"/>
<!-- Node0 -->
<g id="node1" class="node">
<title>Node0</title>
<polygon fill="#bfbfbf" stroke="#000000" points="341.3242,-70.5 341.3242,-98.5 473.4766,-98.5 473.4766,-70.5 341.3242,-70.5"/>
<text text-anchor="start" x="349.3242" y="-86.5" font-family="FreeSans" font-size="10.00" fill="#000000">DGtal::MultipleAssociative</text>
<text text-anchor="middle" x="407.4004" y="-76.5" font-family="FreeSans" font-size="10.00" fill="#000000">Category</text>
</g>
<!-- Node3 -->
<g id="node4" class="node">
<title>Node3</title>
<g id="a_node4"><a xlink:href="structDGtal_1_1MultimapAssociativeCategory.html" target="_top" xlink:title="DGtal::MultimapAssociative\lCategory">
<polygon fill="#ffffff" stroke="#000000" points="509.4766,-141.5 509.4766,-169.5 647.7373,-169.5 647.7373,-141.5 509.4766,-141.5"/>
<text text-anchor="start" x="517.4766" y="-157.5" font-family="FreeSans" font-size="10.00" fill="#000000">DGtal::MultimapAssociative</text>
<text text-anchor="middle" x="578.6069" y="-147.5" font-family="FreeSans" font-size="10.00" fill="#000000">Category</text>
</a>
</g>
</g>
<!-- Node0&#45;&gt;Node3 -->
<g id="edge3" class="edge">
<title>Node0&#45;&gt;Node3</title>
<path fill="none" stroke="#191970" d="M444.1835,-103.0875C463.3989,-112.4664 487.4433,-123.6902 509.4766,-132.5 517.228,-135.5993 525.5775,-138.6293 533.7015,-141.4197"/>
<polygon fill="#191970" stroke="#191970" points="445.6862,-99.9261 435.1684,-98.6502 442.5948,-106.2066 445.6862,-99.9261"/>
</g>
<!-- Node4 -->
<g id="node5" class="node">
<title>Node4</title>
<g id="a_node5"><a xlink:href="structDGtal_1_1MultisetAssociativeCategory.html" target="_top" xlink:title="DGtal::MultisetAssociative\lCategory">
<polygon fill="#ffffff" stroke="#000000" points="512.5332,-94.5 512.5332,-122.5 644.6807,-122.5 644.6807,-94.5 512.5332,-94.5"/>
<text text-anchor="start" x="520.5332" y="-110.5" font-family="FreeSans" font-size="10.00" fill="#000000">DGtal::MultisetAssociative</text>
<text text-anchor="middle" x="578.6069" y="-100.5" font-family="FreeSans" font-size="10.00" fill="#000000">Category</text>
</a>
</g>
</g>
<!-- Node0&#45;&gt;Node4 -->
<g id="edge4" class="edge">
<title>Node0&#45;&gt;Node4</title>
<path fill="none" stroke="#191970" d="M483.5178,-95.1703C493.117,-96.5159 502.8773,-97.8841 512.3078,-99.2061"/>
<polygon fill="#191970" stroke="#191970" points="483.9824,-91.7012 473.5933,-93.779 483.0106,-98.6335 483.9824,-91.7012"/>
</g>
<!-- Node5 -->
<g id="node6" class="node">
<title>Node5</title>
<g id="a_node6"><a xlink:href="structDGtal_1_1UnorderedMultimapAssociativeCategory.html" target="_top" xlink:title="DGtal::UnorderedMultimap\lAssociativeCategory">
<polygon fill="#ffffff" stroke="#000000" points="511.1392,-47.5 511.1392,-75.5 646.0747,-75.5 646.0747,-47.5 511.1392,-47.5"/>
<text text-anchor="start" x="519.1392" y="-63.5" font-family="FreeSans" font-size="10.00" fill="#000000">DGtal::UnorderedMultimap</text>
<text text-anchor="middle" x="578.6069" y="-53.5" font-family="FreeSans" font-size="10.00" fill="#000000">AssociativeCategory</text>
</a>
</g>
</g>
<!-- Node0&#45;&gt;Node5 -->
<g id="edge5" class="edge">
<title>Node0&#45;&gt;Node5</title>
<path fill="none" stroke="#191970" d="M483.7311,-74.2457C492.7824,-73.0297 501.9736,-71.795 510.8936,-70.5967"/>
<polygon fill="#191970" stroke="#191970" points="483.0382,-70.8072 473.5933,-75.6076 483.9703,-77.7449 483.0382,-70.8072"/>
</g>
<!-- Node6 -->
<g id="node7" class="node">
<title>Node6</title>
<g id="a_node7"><a xlink:href="structDGtal_1_1UnorderedMultisetAssociativeCategory.html" target="_top" xlink:title="DGtal::UnorderedMultiset\lAssociativeCategory">
<polygon fill="#ffffff" stroke="#000000" points="514.1958,-.5 514.1958,-28.5 643.0181,-28.5 643.0181,-.5 514.1958,-.5"/>
<text text-anchor="start" x="522.1958" y="-16.5" font-family="FreeSans" font-size="10.00" fill="#000000">DGtal::UnorderedMultiset</text>
<text text-anchor="middle" x="578.6069" y="-6.5" font-family="FreeSans" font-size="10.00" fill="#000000">AssociativeCategory</text>
</a>
</g>
</g>
<!-- Node0&#45;&gt;Node6 -->
<g id="edge6" class="edge">
<title>Node0&#45;&gt;Node6</title>
<path fill="none" stroke="#191970" d="M444.8942,-66.0315C464.0065,-56.9269 487.7457,-46.0876 509.4766,-37.5 517.358,-34.3854 525.8493,-31.3257 534.0912,-28.5054"/>
<polygon fill="#191970" stroke="#191970" points="443.1343,-62.9939 435.6353,-70.4783 446.1649,-69.3039 443.1343,-62.9939"/>
</g>
<!-- Node1 -->
<g id="node2" class="node">
<title>Node1</title>
<g id="a_node2"><a xlink:href="structDGtal_1_1AssociativeCategory.html" target="_top" xlink:title="DGtal::AssociativeCategory">
<polygon fill="#ffffff" stroke="#000000" points="167.0537,-75.5 167.0537,-93.5 305.3242,-93.5 305.3242,-75.5 167.0537,-75.5"/>
<text text-anchor="middle" x="236.189" y="-81.5" font-family="FreeSans" font-size="10.00" fill="#000000">DGtal::AssociativeCategory</text>
</a>
</g>
</g>
<!-- Node1&#45;&gt;Node0 -->
<g id="edge1" class="edge">
<title>Node1&#45;&gt;Node0</title>
<path fill="none" stroke="#191970" d="M315.3604,-84.5C323.9534,-84.5 332.6335,-84.5 341.0515,-84.5"/>
<polygon fill="#191970" stroke="#191970" points="315.3337,-81.0001 305.3337,-84.5 315.3337,-88.0001 315.3337,-81.0001"/>
</g>
<!-- Node2 -->
<g id="node3" class="node">
<title>Node2</title>
<g id="a_node3"><a xlink:href="structDGtal_1_1ContainerCategory.html" target="_top" xlink:title="DGtal::ContainerCategory">
<polygon fill="#ffffff" stroke="#000000" points="0,-75.5 0,-93.5 131.0537,-93.5 131.0537,-75.5 0,-75.5"/>
<text text-anchor="middle" x="65.5269" y="-81.5" font-family="FreeSans" font-size="10.00" fill="#000000">DGtal::ContainerCategory</text>
</a>
</g>
</g>
<!-- Node2&#45;&gt;Node1 -->
<g id="edge2" class="edge">
<title>Node2&#45;&gt;Node1</title>
<path fill="none" stroke="#191970" d="M141.6999,-84.5C150.1218,-84.5 158.664,-84.5 166.9933,-84.5"/>
<polygon fill="#191970" stroke="#191970" points="141.5093,-81.0001 131.5093,-84.5 141.5092,-88.0001 141.5093,-81.0001"/>
</g>
</g>
</svg>
