<?xml version="1.0" encoding="UTF-8" standalone="no"?>
<!DOCTYPE svg PUBLIC "-//W3C//DTD SVG 1.1//EN"
 "http://www.w3.org/Graphics/SVG/1.1/DTD/svg11.dtd">
<!-- Generated by graphviz version 2.40.1 (20161225.0304)
 -->
<!-- Title: testFMM.cpp Pages: 1 -->
<!--zoomable 692 -->
<svg id="main" version="1.1" xmlns="http://www.w3.org/2000/svg" xmlns:xlink="http://www.w3.org/1999/xlink" xml:space="preserve" onload="init(evt)">
<style type="text/css"><![CDATA[
.edge:hover path { stroke: red; }
.edge:hover polygon { stroke: red; fill: red; }
]]></style>
<script type="text/javascript"><![CDATA[
var edges = document.getElementsByTagName('g');
if (edges && edges.length) {
  for (var i=0;i<edges.length;i++) {
    if (edges[i].id.substr(0,4)=='edge') {
      edges[i].setAttribute('class','edge');
    }
  }
}
]]></script>
        <defs>
                <circle id="rim" cx="0" cy="0" r="7"/>
                <circle id="rim2" cx="0" cy="0" r="3.5"/>
                <g id="zoomPlus">
                        <use xlink:href="#rim" fill="#404040">
                                <set attributeName="fill" to="#808080" begin="zoomplus.mouseover" end="zoomplus.mouseout"/>
                        </use>
                        <path d="M-4,0h8M0,-4v8" fill="none" stroke="white" stroke-width="1.5" pointer-events="none"/>
                </g>
                <g id="zoomMin">
                        <use xlink:href="#rim" fill="#404040">
                                <set attributeName="fill" to="#808080" begin="zoomminus.mouseover" end="zoomminus.mouseout"/>
                        </use>
                        <path d="M-4,0h8" fill="none" stroke="white" stroke-width="1.5" pointer-events="none"/>
                </g>
                <g id="dirArrow">
                        <path fill="none" stroke="white" stroke-width="1.5" d="M0,-3.0v7 M-2.5,-0.5L0,-3.0L2.5,-0.5"/>
                </g>
               <g id="resetDef">
                       <use xlink:href="#rim2" fill="#404040">
                               <set attributeName="fill" to="#808080" begin="reset.mouseover" end="reset.mouseout"/>
                       </use>
               </g>
        </defs>

<script type="text/javascript">
var viewWidth = 3256;
var viewHeight = 692;
var sectionId = 'dynsection-0';
</script>
<script xlink:href="svgpan.js"/>
<svg id="graph" class="graph">
<g id="viewport">
<title>testFMM.cpp</title>
<polygon fill="#ffffff" stroke="transparent" points="-4,4 -4,-688 3251.5098,-688 3251.5098,4 -4,4"/>
<!-- Node0 -->
<g id="node1" class="node">
<title>Node0</title>
<polygon fill="#bfbfbf" stroke="#000000" points="1843.106,-665.5 1843.106,-683.5 1916.894,-683.5 1916.894,-665.5 1843.106,-665.5"/>
<text text-anchor="middle" x="1880" y="-671.5" font-family="FreeSans" font-size="10.00" fill="#000000">testFMM.cpp</text>
</g>
<!-- Node1 -->
<g id="node2" class="node">
<title>Node1</title>
<polygon fill="#ffffff" stroke="#bfbfbf" points="853.8276,-.5 853.8276,-18.5 908.1724,-18.5 908.1724,-.5 853.8276,-.5"/>
<text text-anchor="middle" x="881" y="-6.5" font-family="FreeSans" font-size="10.00" fill="#000000">iostream</text>
</g>
<!-- Node0&#45;&gt;Node1 -->
<g id="edge1" class="edge">
<title>Node0&#45;&gt;Node1</title>
<path fill="none" stroke="#191970" d="M1842.8689,-674.2345C1579.1613,-672.1126 0,-655.4027 0,-559.5 0,-559.5 0,-559.5 0,-119.5 0,-83.2287 17.8785,-71.8468 50,-55 120.8352,-17.849 690.8779,-10.9251 843.518,-9.7326"/>
<polygon fill="#191970" stroke="#191970" points="843.8005,-13.2307 853.7741,-9.6563 843.7484,-6.2309 843.8005,-13.2307"/>
</g>
<!-- Node2 -->
<g id="node3" class="node">
<title>Node2</title>
<polygon fill="#ffffff" stroke="#bfbfbf" points="3196.4902,-610.5 3196.4902,-628.5 3247.5098,-628.5 3247.5098,-610.5 3196.4902,-610.5"/>
<text text-anchor="middle" x="3222" y="-616.5" font-family="FreeSans" font-size="10.00" fill="#000000">iomanip</text>
</g>
<!-- Node0&#45;&gt;Node2 -->
<g id="edge2" class="edge">
<title>Node0&#45;&gt;Node2</title>
<path fill="none" stroke="#191970" d="M1917.1552,-674.196C2102.4571,-672.5285 2927.8695,-663.2732 3182,-629 3183.4589,-628.8032 3184.9424,-628.5765 3186.437,-628.326"/>
<polygon fill="#191970" stroke="#191970" points="3187.179,-631.7472 3196.3201,-626.3908 3185.8339,-624.8777 3187.179,-631.7472"/>
</g>
<!-- Node3 -->
<g id="node4" class="node">
<title>Node3</title>
<polygon fill="#ffffff" stroke="#bfbfbf" points="2754.5962,-110.5 2754.5962,-128.5 2813.4038,-128.5 2813.4038,-110.5 2754.5962,-110.5"/>
<text text-anchor="middle" x="2784" y="-116.5" font-family="FreeSans" font-size="10.00" fill="#000000">functional</text>
</g>
<!-- Node0&#45;&gt;Node3 -->
<g id="edge3" class="edge">
<title>Node0&#45;&gt;Node3</title>
<path fill="none" stroke="#191970" d="M1916.8985,-673.2784C2064.3614,-668.2977 2611.6924,-648.8456 2784,-629 2956.3004,-609.1552 3168,-732.9394 3168,-559.5 3168,-559.5 3168,-559.5 3168,-364.5 3168,-328.1716 3172.1201,-313.0217 3149,-285 3063.3599,-181.2034 2898.7941,-139.7801 2823.4358,-125.7285"/>
<polygon fill="#191970" stroke="#191970" points="2823.874,-122.2512 2813.412,-123.9238 2822.6335,-129.1404 2823.874,-122.2512"/>
</g>
<!-- Node4 -->
<g id="node5" class="node">
<title>Node4</title>
<g id="a_node5"><a xlink:href="Common_8h_source.html" target="_top" xlink:title="DGtal/base/Common.h">
<polygon fill="#ffffff" stroke="#000000" points="1357.1455,-230.5 1357.1455,-248.5 1474.8545,-248.5 1474.8545,-230.5 1357.1455,-230.5"/>
<text text-anchor="middle" x="1416" y="-236.5" font-family="FreeSans" font-size="10.00" fill="#000000">DGtal/base/Common.h</text>
</a>
</g>
</g>
<!-- Node0&#45;&gt;Node4 -->
<g id="edge4" class="edge">
<title>Node0&#45;&gt;Node4</title>
<path fill="none" stroke="#191970" d="M1843.0717,-673.7247C1773.001,-671.4777 1624.4839,-662.7535 1588,-629 1529.9146,-575.2617 1548.0044,-344.6428 1496,-285 1483.7388,-270.9378 1466.0193,-260.2377 1450.3716,-252.7582"/>
<polygon fill="#191970" stroke="#191970" points="1451.5186,-249.4361 1440.9638,-248.5161 1448.6411,-255.8174 1451.5186,-249.4361"/>
</g>
<!-- Node43 -->
<g id="node27" class="node">
<title>Node43</title>
<g id="a_node27"><a xlink:href="SpaceND_8h_source.html" target="_top" xlink:title="DGtal/kernel/SpaceND.h">
<polygon fill="#ffffff" stroke="#000000" points="443.2539,-415.5 443.2539,-433.5 568.7461,-433.5 568.7461,-415.5 443.2539,-415.5"/>
<text text-anchor="middle" x="506" y="-421.5" font-family="FreeSans" font-size="10.00" fill="#000000">DGtal/kernel/SpaceND.h</text>
</a>
</g>
</g>
<!-- Node0&#45;&gt;Node43 -->
<g id="edge44" class="edge">
<title>Node0&#45;&gt;Node43</title>
<path fill="none" stroke="#191970" d="M1842.9081,-673.5002C1700.8126,-669.5167 1191.0925,-653.7806 1031,-629 820.9249,-596.4827 743.9624,-628.2735 568,-509 543.2463,-492.2211 524.7222,-462.1585 514.6315,-442.7842"/>
<polygon fill="#191970" stroke="#191970" points="517.7255,-441.1455 510.1351,-433.7538 511.4593,-444.2656 517.7255,-441.1455"/>
</g>
<!-- Node65 -->
<g id="node31" class="node">
<title>Node65</title>
<g id="a_node31"><a xlink:href="HyperRectDomain_8h_source.html" target="_top" xlink:title="DGtal/kernel/domains\l/HyperRectDomain.h">
<polygon fill="#ffffff" stroke="#ff0000" points="1092.9238,-475.5 1092.9238,-503.5 1205.0762,-503.5 1205.0762,-475.5 1092.9238,-475.5"/>
<text text-anchor="start" x="1100.9238" y="-491.5" font-family="FreeSans" font-size="10.00" fill="#000000">DGtal/kernel/domains</text>
<text text-anchor="middle" x="1149" y="-481.5" font-family="FreeSans" font-size="10.00" fill="#000000">/HyperRectDomain.h</text>
</a>
</g>
</g>
<!-- Node0&#45;&gt;Node65 -->
<g id="edge59" class="edge">
<title>Node0&#45;&gt;Node65</title>
<path fill="none" stroke="#191970" d="M1842.7252,-674.0674C1710.7824,-672.247 1271.0093,-663.6142 1219,-629 1179.0747,-602.4282 1160.8961,-545.9175 1153.4783,-513.5673"/>
<polygon fill="#191970" stroke="#191970" points="1156.8625,-512.6543 1151.3593,-503.6008 1150.0155,-514.1101 1156.8625,-512.6543"/>
</g>
<!-- Node68 -->
<g id="node33" class="node">
<title>Node68</title>
<g id="a_node33"><a xlink:href="BasicPointPredicates_8h_source.html" target="_top" xlink:title="DGtal/kernel/BasicPointPredicates.h">
<polygon fill="#ffffff" stroke="#ff0000" points="1131.4067,-290.5 1131.4067,-308.5 1308.5933,-308.5 1308.5933,-290.5 1131.4067,-290.5"/>
<text text-anchor="middle" x="1220" y="-296.5" font-family="FreeSans" font-size="10.00" fill="#000000">DGtal/kernel/BasicPointPredicates.h</text>
</a>
</g>
</g>
<!-- Node0&#45;&gt;Node68 -->
<g id="edge80" class="edge">
<title>Node0&#45;&gt;Node68</title>
<path fill="none" stroke="#191970" d="M1843.0094,-672.4799C1737.2813,-665.9236 1437.1393,-641.6058 1371,-574 1296.754,-498.1078 1351.6964,-434.9404 1288,-350 1276.855,-335.138 1260.1507,-322.6465 1246.0876,-313.8051"/>
<polygon fill="#191970" stroke="#191970" points="1247.6871,-310.683 1237.3126,-308.5339 1244.0825,-316.6836 1247.6871,-310.683"/>
</g>
<!-- Node87 -->
<g id="node36" class="node">
<title>Node87</title>
<g id="a_node36"><a xlink:href="DomainPredicate_8h_source.html" target="_top" xlink:title="DGtal/kernel/domains\l/DomainPredicate.h">
<polygon fill="#ffffff" stroke="#ff0000" points="1166.9238,-350.5 1166.9238,-378.5 1279.0762,-378.5 1279.0762,-350.5 1166.9238,-350.5"/>
<text text-anchor="start" x="1174.9238" y="-366.5" font-family="FreeSans" font-size="10.00" fill="#000000">DGtal/kernel/domains</text>
<text text-anchor="middle" x="1223" y="-356.5" font-family="FreeSans" font-size="10.00" fill="#000000">/DomainPredicate.h</text>
</a>
</g>
</g>
<!-- Node0&#45;&gt;Node87 -->
<g id="edge81" class="edge">
<title>Node0&#45;&gt;Node87</title>
<path fill="none" stroke="#191970" d="M1843.0771,-673.1232C1723.0758,-668.4395 1348.9812,-652.1193 1300,-629 1261.1999,-610.6863 1233,-602.405 1233,-559.5 1233,-559.5 1233,-559.5 1233,-489.5 1233,-454.416 1229.0373,-413.9688 1226.1009,-388.8136"/>
<polygon fill="#191970" stroke="#191970" points="1229.5554,-388.2254 1224.8809,-378.7175 1222.6059,-389.0652 1229.5554,-388.2254"/>
</g>
<!-- Node89 -->
<g id="node37" class="node">
<title>Node89</title>
<g id="a_node37"><a xlink:href="DigitalSetFromMap_8h_source.html" target="_top" xlink:title="DGtal/kernel/sets/Digital\lSetFromMap.h">
<polygon fill="#ffffff" stroke="#ff0000" points="1856.3696,-285.5 1856.3696,-313.5 1979.6304,-313.5 1979.6304,-285.5 1856.3696,-285.5"/>
<text text-anchor="start" x="1864.3696" y="-301.5" font-family="FreeSans" font-size="10.00" fill="#000000">DGtal/kernel/sets/Digital</text>
<text text-anchor="middle" x="1918" y="-291.5" font-family="FreeSans" font-size="10.00" fill="#000000">SetFromMap.h</text>
</a>
</g>
</g>
<!-- Node0&#45;&gt;Node89 -->
<g id="edge85" class="edge">
<title>Node0&#45;&gt;Node89</title>
<path fill="none" stroke="#191970" d="M1915.3988,-665.4191C1961.4254,-651.2316 2036,-619.0552 2036,-559.5 2036,-559.5 2036,-559.5 2036,-489.5 2036,-455.329 2032.7542,-445.3226 2017,-415 1997.6123,-377.684 1964.0432,-342.1054 1941.434,-320.539"/>
<polygon fill="#191970" stroke="#191970" points="1943.6263,-317.7969 1933.9351,-313.5152 1938.841,-322.9058 1943.6263,-317.7969"/>
</g>
<!-- Node101 -->
<g id="node38" class="node">
<title>Node101</title>
<g id="a_node38"><a xlink:href="ImageContainerBySTLMap_8h_source.html" target="_top" xlink:title="DGtal/images/ImageContainer\lBySTLMap.h">
<polygon fill="#ffffff" stroke="#ff0000" points="1752.7466,-350.5 1752.7466,-378.5 1903.2534,-378.5 1903.2534,-350.5 1752.7466,-350.5"/>
<text text-anchor="start" x="1760.7466" y="-366.5" font-family="FreeSans" font-size="10.00" fill="#000000">DGtal/images/ImageContainer</text>
<text text-anchor="middle" x="1828" y="-356.5" font-family="FreeSans" font-size="10.00" fill="#000000">BySTLMap.h</text>
</a>
</g>
</g>
<!-- Node0&#45;&gt;Node101 -->
<g id="edge89" class="edge">
<title>Node0&#45;&gt;Node101</title>
<path fill="none" stroke="#191970" d="M1872.5497,-665.3012C1858.1712,-646.587 1828,-602.2274 1828,-559.5 1828,-559.5 1828,-559.5 1828,-489.5 1828,-454.5277 1828,-414.0516 1828,-388.8596"/>
<polygon fill="#191970" stroke="#191970" points="1831.5001,-388.7471 1828,-378.7471 1824.5001,-388.7472 1831.5001,-388.7471"/>
</g>
<!-- Node109 -->
<g id="node39" class="node">
<title>Node109</title>
<g id="a_node39"><a xlink:href="SimpleThresholdForegroundPredicate_8h_source.html" target="_top" xlink:title="DGtal/images/SimpleThreshold\lForegroundPredicate.h">
<polygon fill="#ffffff" stroke="#ff0000" points="2307.8057,-285.5 2307.8057,-313.5 2462.1943,-313.5 2462.1943,-285.5 2307.8057,-285.5"/>
<text text-anchor="start" x="2315.8057" y="-301.5" font-family="FreeSans" font-size="10.00" fill="#000000">DGtal/images/SimpleThreshold</text>
<text text-anchor="middle" x="2385" y="-291.5" font-family="FreeSans" font-size="10.00" fill="#000000">ForegroundPredicate.h</text>
</a>
</g>
</g>
<!-- Node0&#45;&gt;Node109 -->
<g id="edge94" class="edge">
<title>Node0&#45;&gt;Node109</title>
<path fill="none" stroke="#191970" d="M1916.9602,-672.9056C2024.0557,-667.2889 2327,-643.9383 2327,-559.5 2327,-559.5 2327,-559.5 2327,-424.5 2327,-385.5081 2350.5093,-345.4985 2367.5932,-321.5719"/>
<polygon fill="#191970" stroke="#191970" points="2370.4169,-323.6399 2373.5411,-313.5161 2364.7855,-319.482 2370.4169,-323.6399"/>
</g>
<!-- Node112 -->
<g id="node40" class="node">
<title>Node112</title>
<g id="a_node40"><a xlink:href="ImageSelector_8h_source.html" target="_top" xlink:title="DGtal/images/ImageSelector.h">
<polygon fill="#ffffff" stroke="#ff0000" points="1856.1875,-415.5 1856.1875,-433.5 2007.8125,-433.5 2007.8125,-415.5 1856.1875,-415.5"/>
<text text-anchor="middle" x="1932" y="-421.5" font-family="FreeSans" font-size="10.00" fill="#000000">DGtal/images/ImageSelector.h</text>
</a>
</g>
</g>
<!-- Node0&#45;&gt;Node112 -->
<g id="edge97" class="edge">
<title>Node0&#45;&gt;Node112</title>
<path fill="none" stroke="#191970" d="M1881.9124,-665.3059C1889.5099,-628.7792 1917.6517,-493.4821 1928.0796,-443.3481"/>
<polygon fill="#191970" stroke="#191970" points="1931.5152,-444.0173 1930.1251,-433.5141 1924.6619,-442.5918 1931.5152,-444.0173"/>
</g>
<!-- Node132 -->
<g id="node41" class="node">
<title>Node132</title>
<g id="a_node41"><a xlink:href="DistanceTransformation_8h_source.html" target="_top" xlink:title="Linear in time distance transformation. ">
<polygon fill="#ffffff" stroke="#ff0000" points="940.5356,-545.5 940.5356,-573.5 1113.4644,-573.5 1113.4644,-545.5 940.5356,-545.5"/>
<text text-anchor="start" x="948.5356" y="-561.5" font-family="FreeSans" font-size="10.00" fill="#000000">DGtal/geometry/volumes</text>
<text text-anchor="middle" x="1027" y="-551.5" font-family="FreeSans" font-size="10.00" fill="#000000">/distance/DistanceTransformation.h</text>
</a>
</g>
</g>
<!-- Node0&#45;&gt;Node132 -->
<g id="edge101" class="edge">
<title>Node0&#45;&gt;Node132</title>
<path fill="none" stroke="#191970" d="M1843.082,-674.2247C1714.7595,-672.9495 1288.8358,-665.9654 1158,-629 1120.3235,-618.3552 1081.1832,-595.8328 1055.6129,-579.3002"/>
<polygon fill="#191970" stroke="#191970" points="1057.4353,-576.3095 1047.1589,-573.7314 1053.5847,-582.1553 1057.4353,-576.3095"/>
</g>
<!-- Node141 -->
<g id="node42" class="node">
<title>Node141</title>
<g id="a_node42"><a xlink:href="ExactPredicateLpSeparableMetric_8h_source.html" target="_top" xlink:title="DGtal/geometry/volumes\l/distance/ExactPredicateLpSeparable\lMetric.h">
<polygon fill="#ffffff" stroke="#ff0000" points="576.6138,-470.5 576.6138,-508.5 759.3862,-508.5 759.3862,-470.5 576.6138,-470.5"/>
<text text-anchor="start" x="584.6138" y="-496.5" font-family="FreeSans" font-size="10.00" fill="#000000">DGtal/geometry/volumes</text>
<text text-anchor="start" x="584.6138" y="-486.5" font-family="FreeSans" font-size="10.00" fill="#000000">/distance/ExactPredicateLpSeparable</text>
<text text-anchor="middle" x="668" y="-476.5" font-family="FreeSans" font-size="10.00" fill="#000000">Metric.h</text>
</a>
</g>
</g>
<!-- Node0&#45;&gt;Node141 -->
<g id="edge106" class="edge">
<title>Node0&#45;&gt;Node141</title>
<path fill="none" stroke="#191970" d="M1842.6652,-673.4947C1708.686,-669.7005 1252.4609,-655.1219 1109,-629 1027.9555,-614.2431 1010.5621,-598.7784 932,-574 865.5707,-553.0483 789.8656,-528.7763 736.6094,-511.6362"/>
<polygon fill="#191970" stroke="#191970" points="737.5252,-508.2542 726.9338,-508.5212 735.38,-514.9174 737.5252,-508.2542"/>
</g>
<!-- Node144 -->
<g id="node43" class="node">
<title>Node144</title>
<g id="a_node43"><a xlink:href="FMM_8h_source.html" target="_top" xlink:title="Fast Marching Method for incremental distance transform. ">
<polygon fill="#ffffff" stroke="#ff0000" points="2479.9805,-285.5 2479.9805,-313.5 2606.0195,-313.5 2606.0195,-285.5 2479.9805,-285.5"/>
<text text-anchor="start" x="2487.9805" y="-301.5" font-family="FreeSans" font-size="10.00" fill="#000000">DGtal/geometry/volumes</text>
<text text-anchor="middle" x="2543" y="-291.5" font-family="FreeSans" font-size="10.00" fill="#000000">/distance/FMM.h</text>
</a>
</g>
</g>
<!-- Node0&#45;&gt;Node144 -->
<g id="edge112" class="edge">
<title>Node0&#45;&gt;Node144</title>
<path fill="none" stroke="#191970" d="M1917.1425,-673.4145C1987.9482,-670.6494 2146.7096,-661.0951 2276,-629 2358.4259,-608.5386 2454,-644.4276 2454,-559.5 2454,-559.5 2454,-559.5 2454,-424.5 2454,-381.2847 2489.7365,-342.6459 2515.9194,-320.136"/>
<polygon fill="#191970" stroke="#191970" points="2518.2337,-322.7637 2523.6883,-313.6808 2513.7601,-317.3797 2518.2337,-322.7637"/>
</g>
<!-- Node155 -->
<g id="node44" class="node">
<title>Node155</title>
<g id="a_node44"><a xlink:href="HueShadeColorMap_8h_source.html" target="_top" xlink:title="DGtal/io/colormaps\l/HueShadeColorMap.h">
<polygon fill="#ffffff" stroke="#ff0000" points="2662.1357,-285.5 2662.1357,-313.5 2779.8643,-313.5 2779.8643,-285.5 2662.1357,-285.5"/>
<text text-anchor="start" x="2670.1357" y="-301.5" font-family="FreeSans" font-size="10.00" fill="#000000">DGtal/io/colormaps</text>
<text text-anchor="middle" x="2721" y="-291.5" font-family="FreeSans" font-size="10.00" fill="#000000">/HueShadeColorMap.h</text>
</a>
</g>
</g>
<!-- Node0&#45;&gt;Node155 -->
<g id="edge115" class="edge">
<title>Node0&#45;&gt;Node155</title>
<path fill="none" stroke="#191970" d="M1917.0515,-672.5981C2065.2,-664.5092 2607,-630.101 2607,-559.5 2607,-559.5 2607,-559.5 2607,-424.5 2607,-377.1822 2652.1476,-339.9156 2685.6191,-318.7889"/>
<polygon fill="#191970" stroke="#191970" points="2687.5539,-321.7086 2694.2721,-313.5161 2683.9113,-315.731 2687.5539,-321.7086"/>
</g>
<!-- Node174 -->
<g id="node45" class="node">
<title>Node174</title>
<g id="a_node45"><a xlink:href="Board2D_8h_source.html" target="_top" xlink:title="DGtal/io/boards/Board2D.h">
<polygon fill="#ffffff" stroke="#ff0000" points="2797.9683,-290.5 2797.9683,-308.5 2934.0317,-308.5 2934.0317,-290.5 2797.9683,-290.5"/>
<text text-anchor="middle" x="2866" y="-296.5" font-family="FreeSans" font-size="10.00" fill="#000000">DGtal/io/boards/Board2D.h</text>
</a>
</g>
</g>
<!-- Node0&#45;&gt;Node174 -->
<g id="edge118" class="edge">
<title>Node0&#45;&gt;Node174</title>
<path fill="none" stroke="#191970" d="M1917.0811,-673.6002C2083.8146,-669.0739 2756,-645.4933 2756,-559.5 2756,-559.5 2756,-559.5 2756,-424.5 2756,-373.767 2807.6972,-333.8469 2840.2099,-313.7574"/>
<polygon fill="#191970" stroke="#191970" points="2842.0183,-316.7541 2848.8125,-308.6245 2838.4316,-310.7428 2842.0183,-316.7541"/>
</g>
<!-- Node344 -->
<g id="node46" class="node">
<title>Node344</title>
<g id="a_node46"><a xlink:href="ShapeFactory_8h_source.html" target="_top" xlink:title="DGtal/shapes/ShapeFactory.h">
<polygon fill="#ffffff" stroke="#ff0000" points="2990.3887,-290.5 2990.3887,-308.5 3139.6113,-308.5 3139.6113,-290.5 2990.3887,-290.5"/>
<text text-anchor="middle" x="3065" y="-296.5" font-family="FreeSans" font-size="10.00" fill="#000000">DGtal/shapes/ShapeFactory.h</text>
</a>
</g>
</g>
<!-- Node0&#45;&gt;Node344 -->
<g id="edge121" class="edge">
<title>Node0&#45;&gt;Node344</title>
<path fill="none" stroke="#191970" d="M1917.2132,-673.0112C2047.6243,-667.6699 2483.5294,-648.7379 2622,-629 2760.9264,-609.1972 2930,-699.8307 2930,-559.5 2930,-559.5 2930,-559.5 2930,-424.5 2930,-369.0239 2992.1372,-331.2873 3032.0994,-312.7543"/>
<polygon fill="#191970" stroke="#191970" points="3033.7814,-315.8364 3041.4848,-308.5625 3030.9268,-309.4449 3033.7814,-315.8364"/>
</g>
<!-- Node370 -->
<g id="node47" class="node">
<title>Node370</title>
<g id="a_node47"><a xlink:href="DGtal_2shapes_2Shapes_8h_source.html" target="_top" xlink:title="DGtal/shapes/Shapes.h">
<polygon fill="#ffffff" stroke="#ff0000" points="1597.1899,-610.5 1597.1899,-628.5 1718.8101,-628.5 1718.8101,-610.5 1597.1899,-610.5"/>
<text text-anchor="middle" x="1658" y="-616.5" font-family="FreeSans" font-size="10.00" fill="#000000">DGtal/shapes/Shapes.h</text>
</a>
</g>
</g>
<!-- Node0&#45;&gt;Node370 -->
<g id="edge124" class="edge">
<title>Node0&#45;&gt;Node370</title>
<path fill="none" stroke="#191970" d="M1843.3412,-665.4179C1805.2276,-655.9753 1745.4721,-641.171 1704.1635,-630.9369"/>
<polygon fill="#191970" stroke="#191970" points="1704.8925,-627.5118 1694.3443,-628.5042 1703.2091,-634.3064 1704.8925,-627.5118"/>
</g>
<!-- Node373 -->
<g id="node48" class="node">
<title>Node373</title>
<g id="a_node48"><a xlink:href="Surfaces_8h_source.html" target="_top" xlink:title="DGtal/topology/helpers\l/Surfaces.h">
<polygon fill="#ffffff" stroke="#ff0000" points="2172.1382,-285.5 2172.1382,-313.5 2289.8618,-313.5 2289.8618,-285.5 2172.1382,-285.5"/>
<text text-anchor="start" x="2180.1382" y="-301.5" font-family="FreeSans" font-size="10.00" fill="#000000">DGtal/topology/helpers</text>
<text text-anchor="middle" x="2231" y="-291.5" font-family="FreeSans" font-size="10.00" fill="#000000">/Surfaces.h</text>
</a>
</g>
</g>
<!-- Node0&#45;&gt;Node373 -->
<g id="edge138" class="edge">
<title>Node0&#45;&gt;Node373</title>
<path fill="none" stroke="#191970" d="M1916.9326,-673.0642C1967.8815,-669.9539 2061.736,-660.1137 2135,-629 2183.4833,-608.4102 2231,-612.1742 2231,-559.5 2231,-559.5 2231,-559.5 2231,-424.5 2231,-389.5277 2231,-349.0516 2231,-323.8596"/>
<polygon fill="#191970" stroke="#191970" points="2234.5001,-323.7471 2231,-313.7471 2227.5001,-323.7472 2234.5001,-323.7471"/>
</g>
<!-- Node381 -->
<g id="node49" class="node">
<title>Node381</title>
<g id="a_node49"><a xlink:href="GaussDigitizer_8h_source.html" target="_top" xlink:title="Computes the Gauss digitization of some Euclidean shape. ">
<polygon fill="#ffffff" stroke="#ff0000" points="1379.9116,-550.5 1379.9116,-568.5 1532.0884,-568.5 1532.0884,-550.5 1379.9116,-550.5"/>
<text text-anchor="middle" x="1456" y="-556.5" font-family="FreeSans" font-size="10.00" fill="#000000">DGtal/shapes/GaussDigitizer.h</text>
</a>
</g>
</g>
<!-- Node0&#45;&gt;Node381 -->
<g id="edge139" class="edge">
<title>Node0&#45;&gt;Node381</title>
<path fill="none" stroke="#191970" d="M1842.8542,-671.8672C1767.4388,-666.129 1599.0372,-651.2042 1546,-629 1516.5793,-616.6829 1488.4474,-592.2313 1471.6955,-575.8672"/>
<polygon fill="#191970" stroke="#191970" points="1473.9669,-573.1879 1464.4303,-568.5722 1469.007,-578.1275 1473.9669,-573.1879"/>
</g>
<!-- Node247 -->
<g id="node50" class="node">
<title>Node247</title>
<g id="a_node50"><a xlink:href="GridCurve_8h_source.html" target="_top" xlink:title="Header file for module GridCurve.cpp. ">
<polygon fill="#ffffff" stroke="#ff0000" points="1997.8721,-285.5 1997.8721,-313.5 2116.1279,-313.5 2116.1279,-285.5 1997.8721,-285.5"/>
<text text-anchor="start" x="2005.8721" y="-301.5" font-family="FreeSans" font-size="10.00" fill="#000000">DGtal/geometry/curves</text>
<text text-anchor="middle" x="2057" y="-291.5" font-family="FreeSans" font-size="10.00" fill="#000000">/GridCurve.h</text>
</a>
</g>
</g>
<!-- Node0&#45;&gt;Node247 -->
<g id="edge140" class="edge">
<title>Node0&#45;&gt;Node247</title>
<path fill="none" stroke="#191970" d="M1917.1343,-668.913C2000.0448,-655.3939 2193,-617.6814 2193,-559.5 2193,-559.5 2193,-559.5 2193,-424.5 2193,-373.6246 2140.7726,-337.8008 2101.0482,-317.9111"/>
<polygon fill="#191970" stroke="#191970" points="2102.5505,-314.7499 2092.0234,-313.5537 2099.5068,-321.0536 2102.5505,-314.7499"/>
</g>
<!-- Node4&#45;&gt;Node1 -->
<g id="edge5" class="edge">
<title>Node4&#45;&gt;Node1</title>
<path fill="none" stroke="#191970" d="M1357.05,-237.7396C1187.7497,-232.4333 710.5082,-215.6199 685,-194 636.4832,-152.8787 665.062,-88.6977 719,-55 757.5067,-30.943 808.969,-19.3259 843.4625,-13.911"/>
<polygon fill="#191970" stroke="#191970" points="844.2047,-17.3396 853.5895,-12.4227 843.1868,-10.414 844.2047,-17.3396"/>
</g>
<!-- Node5 -->
<g id="node6" class="node">
<title>Node5</title>
<polygon fill="#ffffff" stroke="#bfbfbf" points="983.5962,-170.5 983.5962,-188.5 1042.4038,-188.5 1042.4038,-170.5 983.5962,-170.5"/>
<text text-anchor="middle" x="1013" y="-176.5" font-family="FreeSans" font-size="10.00" fill="#000000">exception</text>
</g>
<!-- Node4&#45;&gt;Node5 -->
<g id="edge6" class="edge">
<title>Node4&#45;&gt;Node5</title>
<path fill="none" stroke="#191970" d="M1357.0716,-235.676C1285.2519,-230.1875 1160.5379,-217.9788 1056,-194 1053.0244,-193.3175 1049.9645,-192.5093 1046.9138,-191.6293"/>
<polygon fill="#191970" stroke="#191970" points="1047.9046,-188.2721 1037.3161,-188.6389 1045.8223,-194.9552 1047.9046,-188.2721"/>
</g>
<!-- Node6 -->
<g id="node7" class="node">
<title>Node6</title>
<polygon fill="#ffffff" stroke="#bfbfbf" points="1098.436,-110.5 1098.436,-128.5 1155.564,-128.5 1155.564,-110.5 1098.436,-110.5"/>
<text text-anchor="middle" x="1127" y="-116.5" font-family="FreeSans" font-size="10.00" fill="#000000">algorithm</text>
</g>
<!-- Node4&#45;&gt;Node6 -->
<g id="edge7" class="edge">
<title>Node4&#45;&gt;Node6</title>
<path fill="none" stroke="#191970" d="M1357.1417,-233.9743C1278.4276,-226.0016 1146.9746,-210.4172 1132,-194 1118.5277,-179.2298 1119.4727,-155.2187 1122.3538,-138.4607"/>
<polygon fill="#191970" stroke="#191970" points="1125.7813,-139.1694 1124.3946,-128.6657 1118.9284,-137.7415 1125.7813,-139.1694"/>
</g>
<!-- Node7 -->
<g id="node8" class="node">
<title>Node7</title>
<polygon fill="#ffffff" stroke="#bfbfbf" points="1249.5298,-170.5 1249.5298,-188.5 1344.4702,-188.5 1344.4702,-170.5 1249.5298,-170.5"/>
<text text-anchor="middle" x="1297" y="-176.5" font-family="FreeSans" font-size="10.00" fill="#000000">boost/version.hpp</text>
</g>
<!-- Node4&#45;&gt;Node7 -->
<g id="edge8" class="edge">
<title>Node4&#45;&gt;Node7</title>
<path fill="none" stroke="#191970" d="M1397.9265,-230.3873C1378.2419,-220.4623 1346.5481,-204.4822 1323.93,-193.0782"/>
<polygon fill="#191970" stroke="#191970" points="1325.3587,-189.8788 1314.8537,-188.5019 1322.2072,-196.1293 1325.3587,-189.8788"/>
</g>
<!-- Node8 -->
<g id="node9" class="node">
<title>Node8</title>
<polygon fill="#ffffff" stroke="#bfbfbf" points="2153.2935,-170.5 2153.2935,-188.5 2282.7065,-188.5 2282.7065,-170.5 2153.2935,-170.5"/>
<text text-anchor="middle" x="2218" y="-176.5" font-family="FreeSans" font-size="10.00" fill="#000000">boost/concept_check.hpp</text>
</g>
<!-- Node4&#45;&gt;Node8 -->
<g id="edge9" class="edge">
<title>Node4&#45;&gt;Node8</title>
<path fill="none" stroke="#191970" d="M1475.3148,-238.4823C1599.8701,-235.7562 1897.5834,-226.1467 2145,-194 2152.3948,-193.0392 2160.1654,-191.7747 2167.7666,-190.3923"/>
<polygon fill="#191970" stroke="#191970" points="2168.4439,-193.8263 2177.6156,-188.5226 2167.1383,-186.9491 2168.4439,-193.8263"/>
</g>
<!-- Node9 -->
<g id="node10" class="node">
<title>Node9</title>
<polygon fill="#ffffff" stroke="#bfbfbf" points="1362.5815,-170.5 1362.5815,-188.5 1481.4185,-188.5 1481.4185,-170.5 1362.5815,-170.5"/>
<text text-anchor="middle" x="1422" y="-176.5" font-family="FreeSans" font-size="10.00" fill="#000000">boost/static_assert.hpp</text>
</g>
<!-- Node4&#45;&gt;Node9 -->
<g id="edge10" class="edge">
<title>Node4&#45;&gt;Node9</title>
<path fill="none" stroke="#191970" d="M1416.9113,-230.3873C1417.7483,-222.0174 1419.0159,-209.3414 1420.0765,-198.735"/>
<polygon fill="#191970" stroke="#191970" points="1423.5677,-198.9971 1421.0802,-188.6985 1416.6024,-198.3005 1423.5677,-198.9971"/>
</g>
<!-- Node10 -->
<g id="node11" class="node">
<title>Node10</title>
<polygon fill="#ffffff" stroke="#bfbfbf" points="1499.1309,-170.5 1499.1309,-188.5 1626.8691,-188.5 1626.8691,-170.5 1499.1309,-170.5"/>
<text text-anchor="middle" x="1563" y="-176.5" font-family="FreeSans" font-size="10.00" fill="#000000">boost/concept/assert.hpp</text>
</g>
<!-- Node4&#45;&gt;Node10 -->
<g id="edge11" class="edge">
<title>Node4&#45;&gt;Node10</title>
<path fill="none" stroke="#191970" d="M1438.3261,-230.3873C1463.1852,-220.2407 1503.5487,-203.7658 1531.5874,-192.3215"/>
<polygon fill="#191970" stroke="#191970" points="1533.0096,-195.5214 1540.9454,-188.5019 1530.3643,-189.0404 1533.0096,-195.5214"/>
</g>
<!-- Node11 -->
<g id="node12" class="node">
<title>Node11</title>
<polygon fill="#ffffff" stroke="#bfbfbf" points="1644.6826,-170.5 1644.6826,-188.5 1781.3174,-188.5 1781.3174,-170.5 1644.6826,-170.5"/>
<text text-anchor="middle" x="1713" y="-176.5" font-family="FreeSans" font-size="10.00" fill="#000000">boost/concept/requires.hpp</text>
</g>
<!-- Node4&#45;&gt;Node11 -->
<g id="edge12" class="edge">
<title>Node4&#45;&gt;Node11</title>
<path fill="none" stroke="#191970" d="M1460.7855,-230.4524C1513.679,-219.7669 1601.6358,-201.9978 1658.4534,-190.5195"/>
<polygon fill="#191970" stroke="#191970" points="1659.2276,-193.9339 1668.3365,-188.5229 1657.8414,-187.0725 1659.2276,-193.9339"/>
</g>
<!-- Node12 -->
<g id="node13" class="node">
<title>Node12</title>
<polygon fill="#ffffff" stroke="#bfbfbf" points="1798.8672,-165.5 1798.8672,-193.5 1907.1328,-193.5 1907.1328,-165.5 1798.8672,-165.5"/>
<text text-anchor="start" x="1806.8672" y="-181.5" font-family="FreeSans" font-size="10.00" fill="#000000">boost/iterator/iterator</text>
<text text-anchor="middle" x="1853" y="-171.5" font-family="FreeSans" font-size="10.00" fill="#000000">_concepts.hpp</text>
</g>
<!-- Node4&#45;&gt;Node12 -->
<g id="edge13" class="edge">
<title>Node4&#45;&gt;Node12</title>
<path fill="none" stroke="#191970" d="M1474.9063,-234.2661C1546.7364,-227.4534 1672.0016,-214.1878 1788.6057,-194.1318"/>
<polygon fill="#191970" stroke="#191970" points="1789.5262,-197.5243 1798.7776,-192.3608 1788.3255,-190.628 1789.5262,-197.5243"/>
</g>
<!-- Node13 -->
<g id="node14" class="node">
<title>Node13</title>
<polygon fill="#ffffff" stroke="#bfbfbf" points="1925.397,-170.5 1925.397,-188.5 2072.603,-188.5 2072.603,-170.5 1925.397,-170.5"/>
<text text-anchor="middle" x="1999" y="-176.5" font-family="FreeSans" font-size="10.00" fill="#000000">boost/concept_archetype.hpp</text>
</g>
<!-- Node4&#45;&gt;Node13 -->
<g id="edge14" class="edge">
<title>Node4&#45;&gt;Node13</title>
<path fill="none" stroke="#191970" d="M1475.0579,-235.7048C1568.7801,-229.3271 1757.2259,-215.0568 1916,-194 1924.2338,-192.908 1932.8984,-191.5871 1941.3975,-190.1925"/>
<polygon fill="#191970" stroke="#191970" points="1941.9833,-193.6433 1951.263,-188.5309 1940.8206,-186.7405 1941.9833,-193.6433"/>
</g>
<!-- Node14 -->
<g id="node15" class="node">
<title>Node14</title>
<polygon fill="#ffffff" stroke="#bfbfbf" points="1250.3843,-110.5 1250.3843,-128.5 1293.6157,-128.5 1293.6157,-110.5 1250.3843,-110.5"/>
<text text-anchor="middle" x="1272" y="-116.5" font-family="FreeSans" font-size="10.00" fill="#000000">cmath</text>
</g>
<!-- Node4&#45;&gt;Node14 -->
<g id="edge15" class="edge">
<title>Node4&#45;&gt;Node14</title>
<path fill="none" stroke="#191970" d="M1356.8833,-231.923C1311.8603,-224.7963 1255.258,-212.4391 1241,-194 1227.4268,-176.4465 1242.5165,-152.0951 1255.9967,-136.0773"/>
<polygon fill="#191970" stroke="#191970" points="1258.68,-138.3273 1262.7389,-128.5408 1253.4629,-133.6601 1258.68,-138.3273"/>
</g>
<!-- Node15 -->
<g id="node16" class="node">
<title>Node15</title>
<polygon fill="#ffffff" stroke="#bfbfbf" points="2090.2686,-170.5 2090.2686,-188.5 2135.7314,-188.5 2135.7314,-170.5 2090.2686,-170.5"/>
<text text-anchor="middle" x="2113" y="-176.5" font-family="FreeSans" font-size="10.00" fill="#000000">stdio.h</text>
</g>
<!-- Node4&#45;&gt;Node15 -->
<g id="edge16" class="edge">
<title>Node4&#45;&gt;Node15</title>
<path fill="none" stroke="#191970" d="M1474.9134,-238.2473C1615.6274,-234.8097 1968.0376,-223.4469 2082,-194 2083.6611,-193.5708 2085.3418,-193.0539 2087.0167,-192.4747"/>
<polygon fill="#191970" stroke="#191970" points="2088.4361,-195.6756 2096.3666,-188.6501 2085.7859,-189.1967 2088.4361,-195.6756"/>
</g>
<!-- Node16 -->
<g id="node17" class="node">
<title>Node16</title>
<g id="a_node17"><a xlink:href="Config_8h_source.html" target="_top" xlink:title="DGtal/base/Config.h">
<polygon fill="#ffffff" stroke="#ff0000" points="727.9756,-55.5 727.9756,-73.5 834.0244,-73.5 834.0244,-55.5 727.9756,-55.5"/>
<text text-anchor="middle" x="781" y="-61.5" font-family="FreeSans" font-size="10.00" fill="#000000">DGtal/base/Config.h</text>
</a>
</g>
</g>
<!-- Node4&#45;&gt;Node16 -->
<g id="edge17" class="edge">
<title>Node4&#45;&gt;Node16</title>
<path fill="none" stroke="#191970" d="M1357.1323,-236.9677C1195.5577,-229.8365 755.3307,-209.1228 728,-194 690.5682,-173.288 657.8463,-145.9726 681,-110 691.191,-94.1668 708.3925,-83.7789 725.6824,-76.991"/>
<polygon fill="#191970" stroke="#191970" points="727.0093,-80.2338 735.253,-73.5786 724.6584,-73.6403 727.0093,-80.2338"/>
</g>
<!-- Node18 -->
<g id="node18" class="node">
<title>Node18</title>
<g id="a_node18"><a xlink:href="Trace_8h_source.html" target="_top" xlink:title="DGtal/base/Trace.h">
<polygon fill="#ffffff" stroke="#ff0000" points="749.8311,-170.5 749.8311,-188.5 852.1689,-188.5 852.1689,-170.5 749.8311,-170.5"/>
<text text-anchor="middle" x="801" y="-176.5" font-family="FreeSans" font-size="10.00" fill="#000000">DGtal/base/Trace.h</text>
</a>
</g>
</g>
<!-- Node4&#45;&gt;Node18 -->
<g id="edge19" class="edge">
<title>Node4&#45;&gt;Node18</title>
<path fill="none" stroke="#191970" d="M1356.771,-235.2271C1261.3103,-228.1177 1067.573,-212.7693 904,-194 890.5614,-192.458 876.1687,-190.5769 862.5307,-188.6873"/>
<polygon fill="#191970" stroke="#191970" points="862.667,-185.1721 852.2771,-187.246 861.6926,-192.1039 862.667,-185.1721"/>
</g>
<!-- Node25 -->
<g id="node19" class="node">
<title>Node25</title>
<g id="a_node19"><a xlink:href="TraceWriterTerm_8h_source.html" target="_top" xlink:title="DGtal/base/TraceWriterTerm.h">
<polygon fill="#ffffff" stroke="#ff0000" points="890.478,-110.5 890.478,-128.5 1041.522,-128.5 1041.522,-110.5 890.478,-110.5"/>
<text text-anchor="middle" x="966" y="-116.5" font-family="FreeSans" font-size="10.00" fill="#000000">DGtal/base/TraceWriterTerm.h</text>
</a>
</g>
</g>
<!-- Node4&#45;&gt;Node25 -->
<g id="edge27" class="edge">
<title>Node4&#45;&gt;Node25</title>
<path fill="none" stroke="#191970" d="M1356.9359,-237.4433C1243.0091,-232.9011 1001.728,-220.2666 975,-194 960.5936,-179.8423 960.3359,-155.5081 962.3733,-138.5164"/>
<polygon fill="#191970" stroke="#191970" points="965.8384,-139.0107 963.9179,-128.5914 958.9216,-137.9342 965.8384,-139.0107"/>
</g>
<!-- Node26 -->
<g id="node20" class="node">
<title>Node26</title>
<g id="a_node20"><a xlink:href="Assert_8h_source.html" target="_top" xlink:title="DGtal/base/Assert.h">
<polygon fill="#ffffff" stroke="#ff0000" points="690.2588,-110.5 690.2588,-128.5 795.7412,-128.5 795.7412,-110.5 690.2588,-110.5"/>
<text text-anchor="middle" x="743" y="-116.5" font-family="FreeSans" font-size="10.00" fill="#000000">DGtal/base/Assert.h</text>
</a>
</g>
</g>
<!-- Node4&#45;&gt;Node26 -->
<g id="edge30" class="edge">
<title>Node4&#45;&gt;Node26</title>
<path fill="none" stroke="#191970" d="M1357.0669,-237.6915C1196.5081,-232.4799 761.9049,-216.3615 741,-194 727.3732,-179.4237 730.8902,-155.3729 735.8409,-138.5527"/>
<polygon fill="#191970" stroke="#191970" points="739.2784,-139.3096 739.1354,-128.7157 732.6408,-137.0865 739.2784,-139.3096"/>
</g>
<!-- Node29 -->
<g id="node21" class="node">
<title>Node29</title>
<g id="a_node21"><a xlink:href="TraceWriterFile_8h_source.html" target="_top" xlink:title="DGtal/base/TraceWriterFile.h">
<polygon fill="#ffffff" stroke="#ff0000" points="927.5322,-55.5 927.5322,-73.5 1072.4678,-73.5 1072.4678,-55.5 927.5322,-55.5"/>
<text text-anchor="middle" x="1000" y="-61.5" font-family="FreeSans" font-size="10.00" fill="#000000">DGtal/base/TraceWriterFile.h</text>
</a>
</g>
</g>
<!-- Node4&#45;&gt;Node29 -->
<g id="edge28" class="edge">
<title>Node4&#45;&gt;Node29</title>
<path fill="none" stroke="#191970" d="M1357.0613,-235.6681C1281.8385,-229.9078 1156.6889,-217.1437 1117,-194 1075.9853,-170.0832 1083.5072,-144.605 1051,-110 1041.0988,-99.4598 1029.066,-88.643 1019.1753,-80.2019"/>
<polygon fill="#191970" stroke="#191970" points="1021.374,-77.4778 1011.4648,-73.7283 1016.8729,-82.8389 1021.374,-77.4778"/>
</g>
<!-- Node30 -->
<g id="node22" class="node">
<title>Node30</title>
<g id="a_node22"><a xlink:href="ConceptUtils_8h_source.html" target="_top" xlink:title="DGtal/base/ConceptUtils.h">
<polygon fill="#ffffff" stroke="#000000" points="446.084,-170.5 446.084,-188.5 579.916,-188.5 579.916,-170.5 446.084,-170.5"/>
<text text-anchor="middle" x="513" y="-176.5" font-family="FreeSans" font-size="10.00" fill="#000000">DGtal/base/ConceptUtils.h</text>
</a>
</g>
</g>
<!-- Node4&#45;&gt;Node30 -->
<g id="edge31" class="edge">
<title>Node4&#45;&gt;Node30</title>
<path fill="none" stroke="#191970" d="M1356.8962,-237.3486C1226.0785,-232.3064 902.2283,-218.2804 632,-194 618.4055,-192.7785 603.9665,-191.2313 590.0079,-189.6053"/>
<polygon fill="#191970" stroke="#191970" points="590.2907,-186.1144 579.9477,-188.411 589.4654,-193.0656 590.2907,-186.1144"/>
</g>
<!-- Node31 -->
<g id="node23" class="node">
<title>Node31</title>
<g id="a_node23"><a xlink:href="BasicTypes_8h_source.html" target="_top" xlink:title="DGtal/base/BasicTypes.h">
<polygon fill="#ffffff" stroke="#ff0000" points="1090.8599,-55.5 1090.8599,-73.5 1219.1401,-73.5 1219.1401,-55.5 1090.8599,-55.5"/>
<text text-anchor="middle" x="1155" y="-61.5" font-family="FreeSans" font-size="10.00" fill="#000000">DGtal/base/BasicTypes.h</text>
</a>
</g>
</g>
<!-- Node4&#45;&gt;Node31 -->
<g id="edge33" class="edge">
<title>Node4&#45;&gt;Node31</title>
<path fill="none" stroke="#191970" d="M1356.8908,-230.9458C1308.4378,-222.9592 1244.6158,-209.8999 1224,-194 1187.3148,-165.7065 1167.9301,-112.2594 1159.779,-83.6747"/>
<polygon fill="#191970" stroke="#191970" points="1163.0814,-82.4762 1157.1127,-73.7227 1156.3199,-84.2878 1163.0814,-82.4762"/>
</g>
<!-- Node34 -->
<g id="node24" class="node">
<title>Node34</title>
<g id="a_node24"><a xlink:href="BasicFunctors_8h_source.html" target="_top" xlink:title="DGtal/base/BasicFunctors.h">
<polygon fill="#ffffff" stroke="#ff0000" points="2300.7515,-170.5 2300.7515,-188.5 2441.2485,-188.5 2441.2485,-170.5 2300.7515,-170.5"/>
<text text-anchor="middle" x="2371" y="-176.5" font-family="FreeSans" font-size="10.00" fill="#000000">DGtal/base/BasicFunctors.h</text>
</a>
</g>
</g>
<!-- Node4&#45;&gt;Node34 -->
<g id="edge35" class="edge">
<title>Node4&#45;&gt;Node34</title>
<path fill="none" stroke="#191970" d="M1475.0168,-239.0154C1615.5306,-237.2972 1980.3062,-229.4883 2283,-194 2291.2621,-193.0313 2299.9636,-191.7267 2308.5648,-190.2953"/>
<polygon fill="#191970" stroke="#191970" points="2309.323,-193.7164 2318.5836,-188.5693 2308.1345,-186.818 2309.323,-193.7164"/>
</g>
<!-- Node41 -->
<g id="node25" class="node">
<title>Node41</title>
<g id="a_node25"><a xlink:href="BasicArchetypes_8h_source.html" target="_top" xlink:title="DGtal/base/BasicArchetypes.h">
<polygon fill="#ffffff" stroke="#000000" points="1237.1899,-55.5 1237.1899,-73.5 1388.8101,-73.5 1388.8101,-55.5 1237.1899,-55.5"/>
<text text-anchor="middle" x="1313" y="-61.5" font-family="FreeSans" font-size="10.00" fill="#000000">DGtal/base/BasicArchetypes.h</text>
</a>
</g>
</g>
<!-- Node4&#45;&gt;Node41 -->
<g id="edge40" class="edge">
<title>Node4&#45;&gt;Node41</title>
<path fill="none" stroke="#191970" d="M1356.7323,-232.7565C1308.9855,-225.9594 1247.3654,-213.6278 1232,-194 1221.3377,-180.38 1234.5909,-119.6825 1241,-110 1250.3062,-95.9406 1265.6061,-85.3789 1279.7142,-77.9883"/>
<polygon fill="#191970" stroke="#191970" points="1281.2861,-81.1158 1288.7382,-73.5847 1278.2162,-74.8249 1281.2861,-81.1158"/>
</g>
<!-- Node42 -->
<g id="node26" class="node">
<title>Node42</title>
<g id="a_node26"><a xlink:href="Exceptions_8h_source.html" target="_top" xlink:title="DGtal/base/Exceptions.h">
<polygon fill="#ffffff" stroke="#000000" points="2534.9707,-170.5 2534.9707,-188.5 2661.0293,-188.5 2661.0293,-170.5 2534.9707,-170.5"/>
<text text-anchor="middle" x="2598" y="-176.5" font-family="FreeSans" font-size="10.00" fill="#000000">DGtal/base/Exceptions.h</text>
</a>
</g>
</g>
<!-- Node4&#45;&gt;Node42 -->
<g id="edge42" class="edge">
<title>Node4&#45;&gt;Node42</title>
<path fill="none" stroke="#191970" d="M1474.9378,-238.0147C1632.9944,-233.7916 2079.4271,-220.2873 2450,-194 2474.3364,-192.2737 2500.8728,-189.846 2524.6689,-187.47"/>
<polygon fill="#191970" stroke="#191970" points="2525.088,-190.9456 2534.6851,-186.4571 2524.3836,-183.9811 2525.088,-190.9456"/>
</g>
<!-- Node16&#45;&gt;Node1 -->
<g id="edge18" class="edge">
<title>Node16&#45;&gt;Node1</title>
<path fill="none" stroke="#191970" d="M797.513,-55.4179C813.2911,-46.7399 837.3028,-33.5334 855.5315,-23.5077"/>
<polygon fill="#191970" stroke="#191970" points="857.3871,-26.4816 864.4625,-18.5956 854.0136,-20.3481 857.3871,-26.4816"/>
</g>
<!-- Node18&#45;&gt;Node1 -->
<g id="edge20" class="edge">
<title>Node18&#45;&gt;Node1</title>
<path fill="none" stroke="#191970" d="M805.3011,-170.3601C817.9438,-143.4945 855.1682,-64.3926 872.2506,-28.0924"/>
<polygon fill="#191970" stroke="#191970" points="875.5864,-29.2236 876.6776,-18.6851 869.2527,-26.243 875.5864,-29.2236"/>
</g>
<!-- Node18&#45;&gt;Node16 -->
<g id="edge21" class="edge">
<title>Node18&#45;&gt;Node16</title>
<path fill="none" stroke="#191970" d="M803.2306,-170.3443C806.1266,-156.8981 810.228,-131.1172 805,-110 802.5935,-100.2797 797.6911,-90.3458 792.9407,-82.25"/>
<polygon fill="#191970" stroke="#191970" points="795.8678,-80.3296 787.5927,-73.7135 789.9358,-84.046 795.8678,-80.3296"/>
</g>
<!-- Node18&#45;&gt;Node25 -->
<g id="edge22" class="edge">
<title>Node18&#45;&gt;Node25</title>
<path fill="none" stroke="#191970" d="M826.0599,-170.3873C854.2066,-160.1521 900.0617,-143.4776 931.5624,-132.0228"/>
<polygon fill="#191970" stroke="#191970" points="933.043,-135.2086 941.2448,-128.5019 930.6508,-128.6301 933.043,-135.2086"/>
</g>
<!-- Node18&#45;&gt;Node26 -->
<g id="edge25" class="edge">
<title>Node18&#45;&gt;Node26</title>
<path fill="none" stroke="#191970" d="M787.1817,-170.3873C776.6499,-161.4007 762.7857,-147.4499 753.2178,-136.4267"/>
<polygon fill="#191970" stroke="#191970" points="755.9189,-134.2009 746.865,-128.6985 750.5114,-138.646 755.9189,-134.2009"/>
</g>
<!-- Node25&#45;&gt;Node1 -->
<g id="edge23" class="edge">
<title>Node25&#45;&gt;Node1</title>
<path fill="none" stroke="#191970" d="M955.1052,-110.4677C945.0156,-101.7706 929.9603,-87.9197 919,-74 907.5953,-59.5159 897.1627,-41.2809 890.1263,-27.8981"/>
<polygon fill="#191970" stroke="#191970" points="893.118,-26.0611 885.4476,-18.7525 886.8861,-29.2493 893.118,-26.0611"/>
</g>
<!-- Node25&#45;&gt;Node16 -->
<g id="edge24" class="edge">
<title>Node25&#45;&gt;Node16</title>
<path fill="none" stroke="#191970" d="M935.451,-110.4179C904.1597,-101.115 855.3634,-86.608 821.0079,-76.3943"/>
<polygon fill="#191970" stroke="#191970" points="821.8697,-72.9991 811.2869,-73.5042 819.8748,-79.7089 821.8697,-72.9991"/>
</g>
<!-- Node26&#45;&gt;Node18 -->
<g id="edge26" class="edge">
<title>Node26&#45;&gt;Node18</title>
<path fill="none" stroke="#191970" d="M756.9187,-128.6985C767.3682,-137.6281 781.0612,-151.4005 790.5914,-162.3537"/>
<polygon fill="#191970" stroke="#191970" points="788.1443,-164.8884 797.2004,-170.3873 793.5501,-160.4411 788.1443,-164.8884"/>
</g>
<!-- Node29&#45;&gt;Node1 -->
<g id="edge29" class="edge">
<title>Node29&#45;&gt;Node1</title>
<path fill="none" stroke="#191970" d="M980.3496,-55.4179C961.143,-46.5409 931.6837,-32.9253 909.826,-22.823"/>
<polygon fill="#191970" stroke="#191970" points="911.2254,-19.614 900.6796,-18.5956 908.2886,-25.9682 911.2254,-19.614"/>
</g>
<!-- Node30&#45;&gt;Node1 -->
<g id="edge32" class="edge">
<title>Node30&#45;&gt;Node1</title>
<path fill="none" stroke="#191970" d="M514.3406,-170.4622C518.3263,-147.0679 532.397,-84.3157 572,-55 614.3707,-23.6356 770.6322,-13.6674 843.337,-10.6869"/>
<polygon fill="#191970" stroke="#191970" points="843.577,-14.1803 853.4341,-10.2961 843.3062,-7.1855 843.577,-14.1803"/>
</g>
<!-- Node31&#45;&gt;Node1 -->
<g id="edge34" class="edge">
<title>Node31&#45;&gt;Node1</title>
<path fill="none" stroke="#191970" d="M1110.0613,-55.4795C1056.6252,-44.7532 968.4107,-27.046 918.4853,-17.0244"/>
<polygon fill="#191970" stroke="#191970" points="918.9325,-13.5444 908.4392,-15.0079 917.5548,-20.4075 918.9325,-13.5444"/>
</g>
<!-- Node34&#45;&gt;Node3 -->
<g id="edge37" class="edge">
<title>Node34&#45;&gt;Node3</title>
<path fill="none" stroke="#191970" d="M2433.2774,-170.4524C2519.404,-157.9401 2672.3847,-135.7153 2744.4137,-125.251"/>
<polygon fill="#191970" stroke="#191970" points="2745.0431,-128.6964 2754.436,-123.795 2744.0367,-121.7692 2745.0431,-128.6964"/>
</g>
<!-- Node34&#45;&gt;Node4 -->
<g id="edge39" class="edge">
<title>Node34&#45;&gt;Node4</title>
<path fill="none" stroke="#191970" d="M2335.9701,-188.5693C2324.8407,-190.6543 2312.4951,-192.6523 2301,-194 1998.9384,-229.4142 1635.054,-237.2645 1485.3547,-239.0045"/>
<polygon fill="#191970" stroke="#191970" points="1484.911,-235.5091 1474.9503,-239.1195 1484.9884,-242.5087 1484.911,-235.5091"/>
</g>
<!-- Node34&#45;&gt;Node6 -->
<g id="edge36" class="edge">
<title>Node34&#45;&gt;Node6</title>
<path fill="none" stroke="#191970" d="M2328.1177,-170.4424C2316.4518,-168.3035 2303.7838,-166.2762 2292,-165 1827.3321,-114.6754 1707.5803,-156.4153 1241,-129 1216.0114,-127.5317 1187.9951,-125.2064 1165.9897,-123.2239"/>
<polygon fill="#191970" stroke="#191970" points="1166.3,-119.7378 1156.0228,-122.3126 1165.6625,-126.7087 1166.3,-119.7378"/>
</g>
<!-- Node34&#45;&gt;Node14 -->
<g id="edge38" class="edge">
<title>Node34&#45;&gt;Node14</title>
<path fill="none" stroke="#191970" d="M2327.6965,-170.4484C2316.1449,-168.3368 2303.6385,-166.3214 2292,-165 2093.7536,-142.4921 1455.426,-124.3853 1304.297,-120.3441"/>
<polygon fill="#191970" stroke="#191970" points="1303.9703,-116.8343 1293.8809,-120.0673 1303.7843,-123.8318 1303.9703,-116.8343"/>
</g>
<!-- Node41&#45;&gt;Node1 -->
<g id="edge41" class="edge">
<title>Node41&#45;&gt;Node1</title>
<path fill="none" stroke="#191970" d="M1242.1477,-55.4795C1149.5192,-43.6865 990.6088,-23.4548 918.5203,-14.2769"/>
<polygon fill="#191970" stroke="#191970" points="918.8945,-10.7964 908.5325,-13.0053 918.0104,-17.7403 918.8945,-10.7964"/>
</g>
<!-- Node42&#45;&gt;Node1 -->
<g id="edge43" class="edge">
<title>Node42&#45;&gt;Node1</title>
<path fill="none" stroke="#191970" d="M2595.628,-170.4471C2588.7982,-146.4483 2566.5934,-81.2457 2521,-55 2449.3185,-13.7368 1157.2768,-9.8945 918.708,-9.5367"/>
<polygon fill="#191970" stroke="#191970" points="918.4677,-6.0365 908.4629,-9.5226 918.458,-13.0365 918.4677,-6.0365"/>
</g>
<!-- Node43&#45;&gt;Node1 -->
<g id="edge45" class="edge">
<title>Node43&#45;&gt;Node1</title>
<path fill="none" stroke="#191970" d="M443.1886,-421.0417C366.5877,-415.8064 242.5439,-403.7351 204,-379 168.467,-356.1971 152,-341.7205 152,-299.5 152,-299.5 152,-299.5 152,-119.5 152,-82.1131 172.6762,-71.95 206,-55 262.8889,-26.0637 709.7999,-13.4633 843.403,-10.319"/>
<polygon fill="#191970" stroke="#191970" points="843.6377,-13.8146 853.5541,-10.0842 843.4758,-6.8165 843.6377,-13.8146"/>
</g>
<!-- Node43&#45;&gt;Node4 -->
<g id="edge46" class="edge">
<title>Node43&#45;&gt;Node4</title>
<path fill="none" stroke="#191970" d="M560.2443,-415.462C621.8112,-404.8946 715.6048,-387.7397 730,-379 775.9234,-351.1187 758.4131,-309.936 806,-285 852.9243,-260.4112 1197.3023,-246.5106 1346.9225,-241.5752"/>
<polygon fill="#191970" stroke="#191970" points="1347.0409,-245.0733 1356.9215,-241.2492 1346.8127,-238.077 1347.0409,-245.0733"/>
</g>
<!-- Node44 -->
<g id="node28" class="node">
<title>Node44</title>
<g id="a_node28"><a xlink:href="CInteger_8h_source.html" target="_top" xlink:title="DGtal/kernel/CInteger.h">
<polygon fill="#ffffff" stroke="#ff0000" points="254.749,-355.5 254.749,-373.5 375.251,-373.5 375.251,-355.5 254.749,-355.5"/>
<text text-anchor="middle" x="315" y="-361.5" font-family="FreeSans" font-size="10.00" fill="#000000">DGtal/kernel/CInteger.h</text>
</a>
</g>
</g>
<!-- Node43&#45;&gt;Node44 -->
<g id="edge47" class="edge">
<title>Node43&#45;&gt;Node44</title>
<path fill="none" stroke="#191970" d="M476.9912,-415.3873C443.9861,-405.0192 389.9464,-388.0434 353.452,-376.5791"/>
<polygon fill="#191970" stroke="#191970" points="354.2453,-373.1598 343.656,-373.5019 352.1474,-379.838 354.2453,-373.1598"/>
</g>
<!-- Node57 -->
<g id="node30" class="node">
<title>Node57</title>
<g id="a_node30"><a xlink:href="PointVector_8h_source.html" target="_top" xlink:title="DGtal/kernel/PointVector.h">
<polygon fill="#ffffff" stroke="#ff0000" points="587.3525,-355.5 587.3525,-373.5 720.6475,-373.5 720.6475,-355.5 587.3525,-355.5"/>
<text text-anchor="middle" x="654" y="-361.5" font-family="FreeSans" font-size="10.00" fill="#000000">DGtal/kernel/PointVector.h</text>
</a>
</g>
</g>
<!-- Node43&#45;&gt;Node57 -->
<g id="edge54" class="edge">
<title>Node43&#45;&gt;Node57</title>
<path fill="none" stroke="#191970" d="M528.478,-415.3873C553.5062,-405.2407 594.1443,-388.7658 622.3737,-377.3215"/>
<polygon fill="#191970" stroke="#191970" points="623.843,-380.5026 631.7954,-373.5019 621.213,-374.0154 623.843,-380.5026"/>
</g>
<!-- Node44&#45;&gt;Node1 -->
<g id="edge48" class="edge">
<title>Node44&#45;&gt;Node1</title>
<path fill="none" stroke="#191970" d="M302.535,-355.3727C278.4787,-336.5978 228,-291.0585 228,-239.5 228,-239.5 228,-239.5 228,-119.5 228,-85.532 239.8547,-72.4464 269,-55 318.2438,-25.5227 718.1484,-13.433 843.5402,-10.3437"/>
<polygon fill="#191970" stroke="#191970" points="843.8765,-13.8367 853.7891,-10.0963 843.7075,-6.8388 843.8765,-13.8367"/>
</g>
<!-- Node44&#45;&gt;Node4 -->
<g id="edge49" class="edge">
<title>Node44&#45;&gt;Node4</title>
<path fill="none" stroke="#191970" d="M321.2843,-355.4435C333.9803,-338.0158 364.5991,-300.1961 401,-285 487.6336,-248.8336 1132.1036,-241.3532 1346.7097,-239.8595"/>
<polygon fill="#191970" stroke="#191970" points="1346.9272,-243.3582 1356.9034,-239.7908 1346.88,-236.3584 1346.9272,-243.3582"/>
</g>
<!-- Node44&#45;&gt;Node30 -->
<g id="edge50" class="edge">
<title>Node44&#45;&gt;Node30</title>
<path fill="none" stroke="#191970" d="M312.8981,-355.3258C308.0164,-331.4751 298.5867,-266.8216 330,-230 344.9648,-212.4588 398.2375,-199.0066 443.4732,-190.4136"/>
<polygon fill="#191970" stroke="#191970" points="444.3805,-193.8053 453.5787,-188.5476 443.1094,-186.9216 444.3805,-193.8053"/>
</g>
<!-- Node48 -->
<g id="node29" class="node">
<title>Node48</title>
<g id="a_node29"><a xlink:href="NumberTraits_8h_source.html" target="_top" xlink:title="DGtal/kernel/NumberTraits.h">
<polygon fill="#ffffff" stroke="#ff0000" points="409.5527,-290.5 409.5527,-308.5 552.4473,-308.5 552.4473,-290.5 409.5527,-290.5"/>
<text text-anchor="middle" x="481" y="-296.5" font-family="FreeSans" font-size="10.00" fill="#000000">DGtal/kernel/NumberTraits.h</text>
</a>
</g>
</g>
<!-- Node44&#45;&gt;Node48 -->
<g id="edge51" class="edge">
<title>Node44&#45;&gt;Node48</title>
<path fill="none" stroke="#191970" d="M338.0816,-355.462C366.7424,-344.2394 415.8136,-325.0248 448.3289,-312.2929"/>
<polygon fill="#191970" stroke="#191970" points="449.812,-315.471 457.8475,-308.5658 447.2597,-308.9529 449.812,-315.471"/>
</g>
<!-- Node48&#45;&gt;Node1 -->
<g id="edge52" class="edge">
<title>Node48&#45;&gt;Node1</title>
<path fill="none" stroke="#191970" d="M413.2678,-290.4448C350.247,-277.7641 266,-248.0017 266,-179.5 266,-179.5 266,-179.5 266,-119.5 266,-88.9131 265.5711,-73.406 290,-55 334.1738,-21.7172 720.9478,-12.2469 843.7504,-10.0666"/>
<polygon fill="#191970" stroke="#191970" points="843.8618,-13.5653 853.8002,-9.8941 843.7416,-6.5663 843.8618,-13.5653"/>
</g>
<!-- Node48&#45;&gt;Node4 -->
<g id="edge53" class="edge">
<title>Node48&#45;&gt;Node4</title>
<path fill="none" stroke="#191970" d="M552.5038,-294.631C594.5719,-291.7836 648.8064,-288.1425 697,-285 935.4832,-269.4495 1218.516,-251.7646 1346.7378,-243.7946"/>
<polygon fill="#191970" stroke="#191970" points="1347.0468,-247.2822 1356.8105,-243.1687 1346.6126,-240.2957 1347.0468,-247.2822"/>
</g>
<!-- Node57&#45;&gt;Node1 -->
<g id="edge55" class="edge">
<title>Node57&#45;&gt;Node1</title>
<path fill="none" stroke="#191970" d="M646.3171,-355.4801C631.5748,-338.7908 597.5245,-303.1441 561,-285 493.7789,-251.6069 460.4075,-287.5415 396,-249 319.7819,-203.391 281.2564,-113.6061 348,-55 385.0936,-22.429 728.2154,-12.5755 843.456,-10.1711"/>
<polygon fill="#191970" stroke="#191970" points="843.639,-13.6682 853.5664,-9.9672 843.4978,-6.6697 843.639,-13.6682"/>
</g>
<!-- Node57&#45;&gt;Node4 -->
<g id="edge57" class="edge">
<title>Node57&#45;&gt;Node4</title>
<path fill="none" stroke="#191970" d="M659.9972,-355.2517C671.8816,-337.8416 700.2977,-300.5547 735,-285 789.7869,-260.4427 1184.6669,-246.2506 1346.7972,-241.4036"/>
<polygon fill="#191970" stroke="#191970" points="1347.2417,-244.8921 1357.1338,-241.0978 1347.0346,-237.8951 1347.2417,-244.8921"/>
</g>
<!-- Node57&#45;&gt;Node6 -->
<g id="edge56" class="edge">
<title>Node57&#45;&gt;Node6</title>
<path fill="none" stroke="#191970" d="M656.0526,-355.4717C660.1276,-339.3926 670.6533,-305.5588 691,-285 734.4893,-241.0574 883.7885,-185.8252 942,-165 991.2462,-147.3822 1050.2418,-134.1686 1088.1519,-126.6405"/>
<polygon fill="#191970" stroke="#191970" points="1089.1147,-130.0187 1098.2597,-124.669 1087.7746,-123.1482 1089.1147,-130.0187"/>
</g>
<!-- Node57&#45;&gt;Node48 -->
<g id="edge58" class="edge">
<title>Node57&#45;&gt;Node48</title>
<path fill="none" stroke="#191970" d="M629.9451,-355.462C599.947,-344.1911 548.494,-324.859 514.6115,-312.1286"/>
<polygon fill="#191970" stroke="#191970" points="515.7209,-308.8066 505.1288,-308.5658 513.2589,-315.3594 515.7209,-308.8066"/>
</g>
<!-- Node65&#45;&gt;Node1 -->
<g id="edge60" class="edge">
<title>Node65&#45;&gt;Node1</title>
<path fill="none" stroke="#191970" d="M1092.6628,-487.4938C971.5981,-482.6641 677.8274,-468.1644 434,-434 289.87,-413.8049 114,-510.0379 114,-364.5 114,-364.5 114,-364.5 114,-119.5 114,-81.5364 135.9803,-71.8492 170,-55 230.562,-25.0049 705.9381,-13.0622 843.7042,-10.2104"/>
<polygon fill="#191970" stroke="#191970" points="843.844,-13.7083 853.7708,-10.0058 843.7017,-6.7098 843.844,-13.7083"/>
</g>
<!-- Node65&#45;&gt;Node4 -->
<g id="edge61" class="edge">
<title>Node65&#45;&gt;Node4</title>
<path fill="none" stroke="#191970" d="M1168.4849,-475.1954C1195.935,-454.7816 1247.1973,-415.6922 1288,-379 1318.1457,-351.8911 1324.5528,-343.838 1352,-314 1369.5629,-294.9074 1388.8548,-272.1954 1401.6176,-256.9094"/>
<polygon fill="#191970" stroke="#191970" points="1404.6151,-258.7786 1408.3152,-248.8509 1399.2317,-254.3044 1404.6151,-258.7786"/>
</g>
<!-- Node65&#45;&gt;Node48 -->
<g id="edge79" class="edge">
<title>Node65&#45;&gt;Node48</title>
<path fill="none" stroke="#191970" d="M1110.3721,-475.3825C1062.4011,-458.4165 977.7524,-430.3238 903,-415 760.6326,-385.8156 711.9437,-435.3852 578,-379 560.3056,-371.5514 520.9616,-336.6415 498.1904,-315.6378"/>
<polygon fill="#191970" stroke="#191970" points="500.3299,-312.848 490.6216,-308.6053 495.5652,-317.9762 500.3299,-312.848"/>
</g>
<!-- Node66 -->
<g id="node32" class="node">
<title>Node66</title>
<g id="a_node32"><a xlink:href="CSpace_8h_source.html" target="_top" xlink:title="DGtal/kernel/CSpace.h">
<polygon fill="#ffffff" stroke="#ff0000" points="586.8647,-415.5 586.8647,-433.5 705.1353,-433.5 705.1353,-415.5 586.8647,-415.5"/>
<text text-anchor="middle" x="646" y="-421.5" font-family="FreeSans" font-size="10.00" fill="#000000">DGtal/kernel/CSpace.h</text>
</a>
</g>
</g>
<!-- Node65&#45;&gt;Node66 -->
<g id="edge62" class="edge">
<title>Node65&#45;&gt;Node66</title>
<path fill="none" stroke="#191970" d="M1092.7636,-482.2329C1000.1926,-470.2704 815.9735,-446.4648 715.4253,-433.4715"/>
<polygon fill="#191970" stroke="#191970" points="715.7351,-429.9825 705.3689,-432.1719 714.8379,-436.9247 715.7351,-429.9825"/>
</g>
<!-- Node65&#45;&gt;Node68 -->
<g id="edge68" class="edge">
<title>Node65&#45;&gt;Node68</title>
<path fill="none" stroke="#191970" d="M1146.404,-475.4694C1142.2647,-449.1788 1136.6545,-391.42 1158,-350 1165.8023,-334.8599 1180.3662,-322.6328 1193.4187,-314.0039"/>
<polygon fill="#191970" stroke="#191970" points="1195.4578,-316.8579 1202.112,-308.6133 1191.7688,-310.9088 1195.4578,-316.8579"/>
</g>
<!-- Node84 -->
<g id="node34" class="node">
<title>Node84</title>
<g id="a_node34"><a xlink:href="CDomain_8h_source.html" target="_top" xlink:title="DGtal/kernel/domains\l/CDomain.h">
<polygon fill="#ffffff" stroke="#ff0000" points="1649.9238,-285.5 1649.9238,-313.5 1762.0762,-313.5 1762.0762,-285.5 1649.9238,-285.5"/>
<text text-anchor="start" x="1657.9238" y="-301.5" font-family="FreeSans" font-size="10.00" fill="#000000">DGtal/kernel/domains</text>
<text text-anchor="middle" x="1706" y="-291.5" font-family="FreeSans" font-size="10.00" fill="#000000">/CDomain.h</text>
</a>
</g>
</g>
<!-- Node65&#45;&gt;Node84 -->
<g id="edge71" class="edge">
<title>Node65&#45;&gt;Node84</title>
<path fill="none" stroke="#191970" d="M1193.6432,-475.4179C1228.4195,-464.3702 1277.8719,-448.4893 1321,-434 1442.1497,-393.2987 1583.8679,-343.1238 1656.9139,-317.0715"/>
<polygon fill="#191970" stroke="#191970" points="1658.5143,-320.2166 1666.756,-313.559 1656.1614,-313.6239 1658.5143,-320.2166"/>
</g>
<!-- Node85 -->
<g id="node35" class="node">
<title>Node85</title>
<g id="a_node35"><a xlink:href="HyperRectDomain__Iterator_8h_source.html" target="_top" xlink:title="DGtal/kernel/domains\l/HyperRectDomain_Iterator.h">
<polygon fill="#ffffff" stroke="#ff0000" points="815.2466,-285.5 815.2466,-313.5 960.7534,-313.5 960.7534,-285.5 815.2466,-285.5"/>
<text text-anchor="start" x="823.2466" y="-301.5" font-family="FreeSans" font-size="10.00" fill="#000000">DGtal/kernel/domains</text>
<text text-anchor="middle" x="888" y="-291.5" font-family="FreeSans" font-size="10.00" fill="#000000">/HyperRectDomain_Iterator.h</text>
</a>
</g>
</g>
<!-- Node65&#45;&gt;Node85 -->
<g id="edge76" class="edge">
<title>Node65&#45;&gt;Node85</title>
<path fill="none" stroke="#191970" d="M1129.3826,-475.2191C1083.4518,-441.783 968.8176,-358.3327 915.7559,-319.7055"/>
<polygon fill="#191970" stroke="#191970" points="917.6336,-316.7432 907.489,-313.6874 913.5138,-322.4025 917.6336,-316.7432"/>
</g>
<!-- Node66&#45;&gt;Node1 -->
<g id="edge63" class="edge">
<title>Node66&#45;&gt;Node1</title>
<path fill="none" stroke="#191970" d="M586.6761,-416.1025C583.7435,-415.7218 580.8391,-415.3522 578,-415 504.3541,-405.865 309.9326,-416.68 246,-379 208.7664,-357.0556 190,-342.7192 190,-299.5 190,-299.5 190,-299.5 190,-119.5 190,-83.2287 208.0157,-72.1059 240,-55 293.2268,-26.5332 714.5568,-13.6797 843.5805,-10.3853"/>
<polygon fill="#191970" stroke="#191970" points="843.8452,-13.8799 853.7543,-10.13 843.6696,-6.8821 843.8452,-13.8799"/>
</g>
<!-- Node66&#45;&gt;Node4 -->
<g id="edge64" class="edge">
<title>Node66&#45;&gt;Node4</title>
<path fill="none" stroke="#191970" d="M672.9296,-415.4691C728.5322,-396.7888 860.0375,-352.4335 970,-314 1006.0965,-301.3838 1013.8036,-293.8629 1051,-285 1152.4525,-260.8266 1273.0128,-248.9783 1347.01,-243.5677"/>
<polygon fill="#191970" stroke="#191970" points="1347.4095,-247.0482 1357.1354,-242.8464 1346.912,-240.0659 1347.4095,-247.0482"/>
</g>
<!-- Node66&#45;&gt;Node30 -->
<g id="edge65" class="edge">
<title>Node66&#45;&gt;Node30</title>
<path fill="none" stroke="#191970" d="M593.5175,-415.4721C546.1532,-406.6686 480.5536,-392.6474 458,-379 425.1266,-359.1081 414.534,-349.9607 401,-314 381.43,-262.0014 446.9481,-215.6694 485.993,-193.4349"/>
<polygon fill="#191970" stroke="#191970" points="487.7546,-196.4604 494.8157,-188.5615 484.37,-190.333 487.7546,-196.4604"/>
</g>
<!-- Node66&#45;&gt;Node44 -->
<g id="edge66" class="edge">
<title>Node66&#45;&gt;Node44</title>
<path fill="none" stroke="#191970" d="M593.2829,-415.4567C541.2962,-406.4704 459.6023,-392.1658 389,-379 382.9191,-377.866 376.562,-376.6567 370.2378,-375.4385"/>
<polygon fill="#191970" stroke="#191970" points="370.8546,-371.993 360.3713,-373.5263 369.5227,-378.8651 370.8546,-371.993"/>
</g>
<!-- Node66&#45;&gt;Node48 -->
<g id="edge67" class="edge">
<title>Node66&#45;&gt;Node48</title>
<path fill="none" stroke="#191970" d="M598.7442,-415.4414C549.0968,-405.4477 477.0688,-389.4053 469,-379 455.4859,-361.5726 463.2231,-335.3759 471.128,-317.8718"/>
<polygon fill="#191970" stroke="#191970" points="474.3655,-319.2197 475.6423,-308.7021 468.0853,-316.1279 474.3655,-319.2197"/>
</g>
<!-- Node68&#45;&gt;Node1 -->
<g id="edge69" class="edge">
<title>Node68&#45;&gt;Node1</title>
<path fill="none" stroke="#191970" d="M1131.2022,-294.0243C935.7867,-281.0694 482.1981,-245.6964 437,-194 318.2287,-58.1524 716.6403,-20.1726 843.4806,-11.6432"/>
<polygon fill="#191970" stroke="#191970" points="843.7641,-15.1323 853.5166,-10.9922 843.3109,-8.147 843.7641,-15.1323"/>
</g>
<!-- Node68&#45;&gt;Node4 -->
<g id="edge70" class="edge">
<title>Node68&#45;&gt;Node4</title>
<path fill="none" stroke="#191970" d="M1249.7682,-290.3873C1283.782,-279.9749 1339.566,-262.8982 1377.0206,-251.4325"/>
<polygon fill="#191970" stroke="#191970" points="1378.0564,-254.7758 1386.5939,-248.5019 1376.0073,-248.0824 1378.0564,-254.7758"/>
</g>
<!-- Node84&#45;&gt;Node1 -->
<g id="edge72" class="edge">
<title>Node84&#45;&gt;Node1</title>
<path fill="none" stroke="#191970" d="M1762.3718,-293.5351C1931.9804,-275.3247 2427.3351,-220.1055 2450,-194 2458.4499,-184.2674 2458.6269,-174.576 2450,-165 2343.9862,-47.3231 1147.1548,-15.3241 918.5921,-10.2692"/>
<polygon fill="#191970" stroke="#191970" points="918.5221,-6.7669 908.4483,-10.0486 918.3698,-13.7653 918.5221,-6.7669"/>
</g>
<!-- Node84&#45;&gt;Node4 -->
<g id="edge74" class="edge">
<title>Node84&#45;&gt;Node4</title>
<path fill="none" stroke="#191970" d="M1649.8364,-287.8645C1645.1558,-286.8953 1640.4967,-285.9307 1636,-285 1579.3069,-273.2656 1514.3934,-259.8418 1469.853,-250.6329"/>
<polygon fill="#191970" stroke="#191970" points="1470.3305,-247.1577 1459.829,-248.5604 1468.9132,-254.0127 1470.3305,-247.1577"/>
</g>
<!-- Node84&#45;&gt;Node8 -->
<g id="edge73" class="edge">
<title>Node84&#45;&gt;Node8</title>
<path fill="none" stroke="#191970" d="M1722.6337,-285.2302C1742.7879,-268.8314 1778.4763,-242.5689 1814,-230 1953.5041,-180.6412 1998.7322,-216.4365 2145,-194 2151.6932,-192.9733 2158.7053,-191.7593 2165.6252,-190.4777"/>
<polygon fill="#191970" stroke="#191970" points="2166.4826,-193.8774 2175.6498,-188.5656 2165.1711,-187.0013 2166.4826,-193.8774"/>
</g>
<!-- Node84&#45;&gt;Node30 -->
<g id="edge75" class="edge">
<title>Node84&#45;&gt;Node30</title>
<path fill="none" stroke="#191970" d="M1649.7619,-294.4421C1490.1984,-279.9906 1020.992,-236.7987 632,-194 618.4326,-192.5073 604.0068,-190.8277 590.0529,-189.1551"/>
<polygon fill="#191970" stroke="#191970" points="590.3421,-185.6647 579.9947,-187.9411 589.5032,-192.6142 590.3421,-185.6647"/>
</g>
<!-- Node85&#45;&gt;Node1 -->
<g id="edge77" class="edge">
<title>Node85&#45;&gt;Node1</title>
<path fill="none" stroke="#191970" d="M815.1344,-295.6029C707.0968,-289.0847 510.0706,-274.1491 444,-249 404.3565,-233.9101 385.5246,-231.6577 366,-194 337.5645,-139.1555 324.283,-100.5652 366,-55 398.111,-19.9269 729.9558,-11.7419 843.298,-9.9629"/>
<polygon fill="#191970" stroke="#191970" points="843.6203,-13.4586 853.567,-9.8101 843.516,-6.4594 843.6203,-13.4586"/>
</g>
<!-- Node85&#45;&gt;Node4 -->
<g id="edge78" class="edge">
<title>Node85&#45;&gt;Node4</title>
<path fill="none" stroke="#191970" d="M961.0334,-290.9901C978.0858,-289.0137 996.1785,-286.9252 1013,-285 1130.2292,-271.583 1266.6735,-256.2341 1346.94,-247.2321"/>
<polygon fill="#191970" stroke="#191970" points="1347.3771,-250.7052 1356.9248,-246.1126 1346.597,-243.7488 1347.3771,-250.7052"/>
</g>
<!-- Node87&#45;&gt;Node1 -->
<g id="edge82" class="edge">
<title>Node87&#45;&gt;Node1</title>
<path fill="none" stroke="#191970" d="M1187.2038,-350.4748C1138.7701,-332.145 1049.2909,-300.5541 970,-285 847.7876,-261.0263 485.8649,-297.7701 417,-194 396.3508,-162.8844 398.3358,-143.4197 415,-110 433.1271,-73.6464 450.2827,-70.0856 488,-55 552.2042,-29.3206 758.5329,-15.8888 843.697,-11.3244"/>
<polygon fill="#191970" stroke="#191970" points="843.8991,-14.8187 853.7019,-10.7993 843.5322,-7.8283 843.8991,-14.8187"/>
</g>
<!-- Node87&#45;&gt;Node4 -->
<g id="edge83" class="edge">
<title>Node87&#45;&gt;Node4</title>
<path fill="none" stroke="#191970" d="M1252.3728,-350.429C1271.5038,-340.8927 1296.761,-327.5924 1318,-314 1346.8793,-295.518 1378.0497,-270.9425 1397.2979,-255.1691"/>
<polygon fill="#191970" stroke="#191970" points="1399.7737,-257.6636 1405.2517,-248.5948 1395.314,-252.2681 1399.7737,-257.6636"/>
</g>
<!-- Node87&#45;&gt;Node68 -->
<g id="edge84" class="edge">
<title>Node87&#45;&gt;Node68</title>
<path fill="none" stroke="#191970" d="M1222.349,-350.396C1221.9233,-341.1723 1221.3616,-329.0011 1220.8942,-318.8738"/>
<polygon fill="#191970" stroke="#191970" points="1224.3762,-318.4023 1220.4188,-308.5743 1217.3837,-318.7251 1224.3762,-318.4023"/>
</g>
<!-- Node89&#45;&gt;Node1 -->
<g id="edge86" class="edge">
<title>Node89&#45;&gt;Node1</title>
<path fill="none" stroke="#191970" d="M1979.9092,-286.5961C1982.9796,-286.0379 1986.0227,-285.5023 1989,-285 2140.5233,-259.4347 2732.738,-305.2741 2670,-165 2640.0574,-98.0522 2615.1483,-82.0995 2547,-55 2468.8851,-23.9372 1159.297,-11.773 918.7877,-9.7962"/>
<polygon fill="#191970" stroke="#191970" points="918.4924,-6.2938 908.4642,-9.7122 918.4354,-13.2935 918.4924,-6.2938"/>
</g>
<!-- Node89&#45;&gt;Node4 -->
<g id="edge87" class="edge">
<title>Node89&#45;&gt;Node4</title>
<path fill="none" stroke="#191970" d="M1856.1868,-291.5259C1839.2704,-289.3742 1820.9322,-287.0696 1804,-285 1692.5379,-271.3763 1562.959,-256.343 1485.3192,-247.422"/>
<polygon fill="#191970" stroke="#191970" points="1485.516,-243.9217 1475.182,-246.258 1484.7175,-250.876 1485.516,-243.9217"/>
</g>
<!-- Node89&#45;&gt;Node34 -->
<g id="edge88" class="edge">
<title>Node89&#45;&gt;Node34</title>
<path fill="none" stroke="#191970" d="M1970.8514,-285.4996C2061.122,-261.5869 2243.3586,-213.3123 2327.1001,-191.1291"/>
<polygon fill="#191970" stroke="#191970" points="2328.0411,-194.5006 2336.8114,-188.5566 2326.2486,-187.734 2328.0411,-194.5006"/>
</g>
<!-- Node101&#45;&gt;Node1 -->
<g id="edge90" class="edge">
<title>Node101&#45;&gt;Node1</title>
<path fill="none" stroke="#191970" d="M1903.5992,-360.8356C2094.2823,-351.4335 2582.0399,-326.3301 2615,-314 2634.8984,-306.5562 2634.1086,-294.7197 2653,-285 2765.3563,-227.1922 2917,-305.8554 2917,-179.5 2917,-179.5 2917,-179.5 2917,-119.5 2917,-63.2093 2862.1145,-70.5003 2808,-55 2713.7996,-28.0176 1178.4848,-12.3178 918.3161,-9.8451"/>
<polygon fill="#191970" stroke="#191970" points="918.2721,-6.3446 908.2395,-9.7499 918.2059,-13.3443 918.2721,-6.3446"/>
</g>
<!-- Node101&#45;&gt;Node4 -->
<g id="edge91" class="edge">
<title>Node101&#45;&gt;Node4</title>
<path fill="none" stroke="#191970" d="M1822.1565,-350.2345C1813.7856,-331.7896 1796.5201,-300.2324 1771,-285 1724.1206,-257.0188 1574.3267,-246.0129 1484.996,-241.8619"/>
<polygon fill="#191970" stroke="#191970" points="1485.0931,-238.3628 1474.9465,-241.4119 1484.7799,-245.3558 1485.0931,-238.3628"/>
</g>
<!-- Node101&#45;&gt;Node34 -->
<g id="edge92" class="edge">
<title>Node101&#45;&gt;Node34</title>
<path fill="none" stroke="#191970" d="M1827.1369,-350.236C1826.8909,-332.3843 1829.3697,-302.0845 1847,-285 1855.4231,-276.8377 2177.539,-215.7343 2312.4776,-190.4269"/>
<polygon fill="#191970" stroke="#191970" points="2313.4499,-193.8057 2322.634,-188.5234 2312.1603,-186.9255 2313.4499,-193.8057"/>
</g>
<!-- Node101&#45;&gt;Node84 -->
<g id="edge93" class="edge">
<title>Node101&#45;&gt;Node84</title>
<path fill="none" stroke="#191970" d="M1801.5278,-350.396C1783.942,-341.0265 1760.6475,-328.6155 1741.4644,-318.395"/>
<polygon fill="#191970" stroke="#191970" points="1742.8918,-315.1897 1732.4205,-313.5765 1739.6003,-321.3676 1742.8918,-315.1897"/>
</g>
<!-- Node109&#45;&gt;Node1 -->
<g id="edge95" class="edge">
<title>Node109&#45;&gt;Node1</title>
<path fill="none" stroke="#191970" d="M2462.336,-286.4543C2550.8756,-271.5163 2683.8413,-249.075 2684,-249 2762.7047,-211.8001 2873.2732,-180.3515 2822,-110 2774.9786,-45.4824 2729.7045,-68.3841 2651,-55 2474.9112,-25.0551 1159.525,-11.9788 918.7786,-9.8246"/>
<polygon fill="#191970" stroke="#191970" points="918.4785,-6.3219 908.4478,-9.733 918.4164,-13.3216 918.4785,-6.3219"/>
</g>
<!-- Node109&#45;&gt;Node4 -->
<g id="edge96" class="edge">
<title>Node109&#45;&gt;Node4</title>
<path fill="none" stroke="#191970" d="M2307.7037,-286.0343C2304.7686,-285.6607 2301.8597,-285.3137 2299,-285 1997.2538,-251.8998 1634.7878,-242.7871 1485.4691,-240.3539"/>
<polygon fill="#191970" stroke="#191970" points="1485.1443,-236.8484 1475.0902,-240.19 1485.0337,-243.8475 1485.1443,-236.8484"/>
</g>
<!-- Node112&#45;&gt;Node1 -->
<g id="edge98" class="edge">
<title>Node112&#45;&gt;Node1</title>
<path fill="none" stroke="#191970" d="M2008.1615,-419.922C2229.7828,-406.0825 2863.6981,-362.6361 2943,-314 2973.4477,-295.3264 3031,-215.2179 3031,-179.5 3031,-179.5 3031,-179.5 3031,-119.5 3031,-83.2287 3013.3954,-71.3139 2981,-55 2933.0666,-30.8613 1196.5946,-12.6332 918.4184,-9.8651"/>
<polygon fill="#191970" stroke="#191970" points="918.4519,-6.3654 908.4176,-9.766 918.3824,-13.365 918.4519,-6.3654"/>
</g>
<!-- Node112&#45;&gt;Node4 -->
<g id="edge99" class="edge">
<title>Node112&#45;&gt;Node4</title>
<path fill="none" stroke="#191970" d="M1873.6862,-415.452C1835.7502,-408.3498 1785.7523,-396.6626 1744,-379 1694.1463,-357.9102 1686.3334,-343.5813 1641,-314 1621.6952,-301.4031 1619.0556,-294.3818 1598,-285 1561.7165,-268.8331 1518.6968,-257.7434 1483.5943,-250.5626"/>
<polygon fill="#191970" stroke="#191970" points="1483.9346,-247.0619 1473.4447,-248.5492 1482.5725,-253.9282 1483.9346,-247.0619"/>
</g>
<!-- Node112&#45;&gt;Node101 -->
<g id="edge100" class="edge">
<title>Node112&#45;&gt;Node101</title>
<path fill="none" stroke="#191970" d="M1916.2046,-415.3873C1901.6525,-406.9918 1879.5905,-394.2637 1861.172,-383.6377"/>
<polygon fill="#191970" stroke="#191970" points="1862.8826,-380.5839 1852.4717,-378.6183 1859.3845,-386.6472 1862.8826,-380.5839"/>
</g>
<!-- Node132&#45;&gt;Node1 -->
<g id="edge102" class="edge">
<title>Node132&#45;&gt;Node1</title>
<path fill="none" stroke="#191970" d="M940.5317,-556.7236C699.5551,-547.8445 38,-515.2084 38,-424.5 38,-424.5 38,-424.5 38,-119.5 38,-85.532 49.7028,-72.1902 79,-55 145.4407,-16.0159 694.6037,-10.4313 843.746,-9.6329"/>
<polygon fill="#191970" stroke="#191970" points="843.7983,-13.1328 853.7808,-9.5833 843.7636,-6.1328 843.7983,-13.1328"/>
</g>
<!-- Node132&#45;&gt;Node4 -->
<g id="edge103" class="edge">
<title>Node132&#45;&gt;Node4</title>
<path fill="none" stroke="#191970" d="M1027.1423,-545.3431C1028.4304,-499.5107 1039.1523,-354.1579 1122,-285 1155.1828,-257.3003 1270.6531,-246.3715 1346.6239,-242.1244"/>
<polygon fill="#191970" stroke="#191970" points="1347.2691,-245.5951 1357.0689,-241.5684 1346.897,-238.605 1347.2691,-245.5951"/>
</g>
<!-- Node132&#45;&gt;Node48 -->
<g id="edge104" class="edge">
<title>Node132&#45;&gt;Node48</title>
<path fill="none" stroke="#191970" d="M1002.33,-545.3861C950.6018,-516.4146 826.2736,-450.0196 714,-415 624.8549,-387.1945 577.6059,-440.1131 507,-379 489.5422,-363.8893 483.7406,-336.8812 481.8504,-318.5836"/>
<polygon fill="#191970" stroke="#191970" points="485.333,-318.2173 481.1098,-308.5006 478.3518,-318.7302 485.333,-318.2173"/>
</g>
<!-- Node132&#45;&gt;Node65 -->
<g id="edge105" class="edge">
<title>Node132&#45;&gt;Node65</title>
<path fill="none" stroke="#191970" d="M1051.6885,-545.3345C1070.0438,-534.8027 1095.2958,-520.3139 1115.476,-508.7351"/>
<polygon fill="#191970" stroke="#191970" points="1117.4164,-511.657 1124.3482,-503.6445 1113.9327,-505.5854 1117.4164,-511.657"/>
</g>
<!-- Node141&#45;&gt;Node1 -->
<g id="edge107" class="edge">
<title>Node141&#45;&gt;Node1</title>
<path fill="none" stroke="#191970" d="M576.4998,-485.9237C425.3659,-479.2306 136.5388,-462.8202 100,-434 74.3421,-413.7621 76,-397.1788 76,-364.5 76,-364.5 76,-364.5 76,-119.5 76,-88.9131 75.4005,-73.1775 100,-55 130.2018,-32.6827 691.2656,-14.9631 843.2841,-10.5571"/>
<polygon fill="#191970" stroke="#191970" points="843.6144,-14.0491 853.5096,-10.2629 843.4131,-7.052 843.6144,-14.0491"/>
</g>
<!-- Node141&#45;&gt;Node4 -->
<g id="edge109" class="edge">
<title>Node141&#45;&gt;Node4</title>
<path fill="none" stroke="#191970" d="M710.4275,-470.4269C733.7067,-459.8647 763.035,-446.3991 789,-434 822.5854,-417.9619 1053.4398,-295.9851 1089,-285 1175.4697,-258.2881 1279.6694,-247.2179 1346.8341,-242.6562"/>
<polygon fill="#191970" stroke="#191970" points="1347.1254,-246.1447 1356.8775,-242.0039 1346.6716,-239.1594 1347.1254,-246.1447"/>
</g>
<!-- Node141&#45;&gt;Node14 -->
<g id="edge108" class="edge">
<title>Node141&#45;&gt;Node14</title>
<path fill="none" stroke="#191970" d="M685.0782,-470.2504C694.0536,-459.8054 705.0233,-446.5047 714,-434 759.3865,-370.7754 752.7642,-341.7735 806,-285 837.5057,-251.4006 932.3069,-182.2868 975,-165 1022.7476,-145.6666 1173.6,-129.0823 1240.0455,-122.5129"/>
<polygon fill="#191970" stroke="#191970" points="1240.7125,-125.9645 1250.3255,-121.5101 1240.0329,-118.9976 1240.7125,-125.9645"/>
</g>
<!-- Node141&#45;&gt;Node44 -->
<g id="edge110" class="edge">
<title>Node141&#45;&gt;Node44</title>
<path fill="none" stroke="#191970" d="M576.3478,-474.294C532.3521,-465.3617 479.4487,-452.1916 434,-434 397.5274,-419.4012 358.8845,-394.9368 335.8609,-379.2689"/>
<polygon fill="#191970" stroke="#191970" points="337.7774,-376.339 327.5595,-373.5381 333.8006,-382.0996 337.7774,-376.339"/>
</g>
<!-- Node141&#45;&gt;Node66 -->
<g id="edge111" class="edge">
<title>Node141&#45;&gt;Node66</title>
<path fill="none" stroke="#191970" d="M661.5183,-470.3494C658.6308,-461.8183 655.2406,-451.8018 652.3667,-443.3107"/>
<polygon fill="#191970" stroke="#191970" points="655.6006,-441.9479 649.0793,-433.5978 648.97,-444.1921 655.6006,-441.9479"/>
</g>
<!-- Node144&#45;&gt;Node1 -->
<g id="edge113" class="edge">
<title>Node144&#45;&gt;Node1</title>
<path fill="none" stroke="#191970" d="M2598.8607,-285.4534C2694.4037,-260.6356 2879,-208.8837 2879,-179.5 2879,-179.5 2879,-179.5 2879,-119.5 2879,-47.747 2801.058,-70.5039 2731,-55 2548.2487,-14.557 1165.2327,-10.0411 918.5777,-9.5564"/>
<polygon fill="#191970" stroke="#191970" points="918.3449,-6.056 908.3384,-9.5373 918.3318,-13.056 918.3449,-6.056"/>
</g>
<!-- Node144&#45;&gt;Node4 -->
<g id="edge114" class="edge">
<title>Node144&#45;&gt;Node4</title>
<path fill="none" stroke="#191970" d="M2479.8741,-286.2092C2476.8807,-285.761 2473.9113,-285.3537 2471,-285 2279.2617,-261.7021 1688.419,-245.9315 1485.3694,-241.0807"/>
<polygon fill="#191970" stroke="#191970" points="1485.2143,-237.5761 1475.1339,-240.8376 1485.048,-244.5742 1485.2143,-237.5761"/>
</g>
<!-- Node155&#45;&gt;Node1 -->
<g id="edge116" class="edge">
<title>Node155&#45;&gt;Node1</title>
<path fill="none" stroke="#191970" d="M2780.1173,-286.7439C2840.2087,-273.5567 2925.2912,-254.1828 2931,-249 2955.1951,-227.0341 2955,-212.1788 2955,-179.5 2955,-179.5 2955,-179.5 2955,-119.5 2955,-88.9131 2955.9227,-72.7318 2931,-55 2888.3543,-24.6588 1193.1965,-11.66 918.4425,-9.7507"/>
<polygon fill="#191970" stroke="#191970" points="918.2224,-6.2492 908.1985,-9.6801 918.1741,-13.249 918.2224,-6.2492"/>
</g>
<!-- Node155&#45;&gt;Node4 -->
<g id="edge117" class="edge">
<title>Node155&#45;&gt;Node4</title>
<path fill="none" stroke="#191970" d="M2661.9664,-290.3806C2646.701,-288.3094 2630.2658,-286.3306 2615,-285 2393.2282,-265.6706 1706.0105,-246.9016 1485.1261,-241.2307"/>
<polygon fill="#191970" stroke="#191970" points="1485.0504,-237.7277 1474.9641,-240.9706 1484.8712,-244.7254 1485.0504,-237.7277"/>
</g>
<!-- Node174&#45;&gt;Node1 -->
<g id="edge119" class="edge">
<title>Node174&#45;&gt;Node1</title>
<path fill="none" stroke="#191970" d="M2888.7051,-290.4092C2925.2348,-274.1085 2993,-236.2251 2993,-179.5 2993,-179.5 2993,-179.5 2993,-119.5 2993,-86.0004 2982.9971,-71.7746 2954,-55 2908.1885,-28.4984 1196.2631,-12.283 918.8096,-9.8265"/>
<polygon fill="#191970" stroke="#191970" points="918.4954,-6.3237 908.4649,-9.7354 918.4337,-13.3234 918.4954,-6.3237"/>
</g>
<!-- Node174&#45;&gt;Node4 -->
<g id="edge120" class="edge">
<title>Node174&#45;&gt;Node4</title>
<path fill="none" stroke="#191970" d="M2824.2135,-290.4275C2812.843,-288.2886 2800.4931,-286.2651 2789,-285 2532.2109,-256.735 1726.7904,-243.7243 1485.1837,-240.3916"/>
<polygon fill="#191970" stroke="#191970" points="1485.172,-236.8912 1475.125,-240.2539 1485.0761,-243.8905 1485.172,-236.8912"/>
</g>
<!-- Node344&#45;&gt;Node1 -->
<g id="edge122" class="edge">
<title>Node344&#45;&gt;Node1</title>
<path fill="none" stroke="#191970" d="M3065.5066,-290.4713C3066.5829,-270.4838 3069,-220.9814 3069,-179.5 3069,-179.5 3069,-179.5 3069,-119.5 3069,-88.9131 3069.933,-72.7172 3045,-55 2999.8721,-22.9324 1203.1437,-11.3427 918.7436,-9.7077"/>
<polygon fill="#191970" stroke="#191970" points="918.5496,-6.2066 908.5298,-9.6495 918.5097,-13.2065 918.5496,-6.2066"/>
</g>
<!-- Node344&#45;&gt;Node4 -->
<g id="edge123" class="edge">
<title>Node344&#45;&gt;Node4</title>
<path fill="none" stroke="#191970" d="M2998.3016,-290.4916C2980.3746,-288.3662 2960.9742,-286.3333 2943,-285 2653.6072,-263.5333 1743.2253,-245.5203 1484.9363,-240.7416"/>
<polygon fill="#191970" stroke="#191970" points="1484.9994,-237.2423 1474.9365,-240.5572 1484.8702,-244.2411 1484.9994,-237.2423"/>
</g>
<!-- Node370&#45;&gt;Node1 -->
<g id="edge125" class="edge">
<title>Node370&#45;&gt;Node1</title>
<path fill="none" stroke="#191970" d="M1664.0313,-610.3159C1685.2716,-578.6501 1760.0348,-472.8039 1847,-415 1956.4793,-342.2314 2009.6466,-377.0442 2125,-314 2143.6426,-303.8112 2144.0672,-294.6389 2163,-285 2289.0633,-220.8197 2333.8528,-238.8953 2468,-194 2485.5365,-188.131 2507,-197.9926 2507,-179.5 2507,-179.5 2507,-179.5 2507,-119.5 2507,-37.1256 1161.0587,-13.5882 918.2896,-10.0127"/>
<polygon fill="#191970" stroke="#191970" points="918.2516,-6.5119 908.2019,-9.8663 918.15,-13.5111 918.2516,-6.5119"/>
</g>
<!-- Node370&#45;&gt;Node4 -->
<g id="edge126" class="edge">
<title>Node370&#45;&gt;Node4</title>
<path fill="none" stroke="#191970" d="M1656.5249,-610.4596C1648.4682,-562.1078 1608.3702,-334.3991 1560,-285 1547.0897,-271.8151 1504.8385,-259.373 1469.417,-250.8433"/>
<polygon fill="#191970" stroke="#191970" points="1470.1732,-247.4257 1459.6375,-248.5439 1468.5709,-254.2399 1470.1732,-247.4257"/>
</g>
<!-- Node370&#45;&gt;Node48 -->
<g id="edge127" class="edge">
<title>Node370&#45;&gt;Node48</title>
<path fill="none" stroke="#191970" d="M1597.0746,-615.2766C1522.7913,-609.3925 1393.7022,-596.7921 1285,-574 1044.7233,-523.6201 995.2185,-470.1862 756,-415 659.03,-392.6296 618.9009,-432.5186 535,-379 522.9778,-371.3313 502.9359,-338.461 490.9434,-317.4618"/>
<polygon fill="#191970" stroke="#191970" points="493.8691,-315.5241 485.915,-308.5253 487.7685,-318.9568 493.8691,-315.5241"/>
</g>
<!-- Node370&#45;&gt;Node65 -->
<g id="edge129" class="edge">
<title>Node370&#45;&gt;Node65</title>
<path fill="none" stroke="#191970" d="M1597.0498,-613.5321C1538.4267,-606.929 1447.6548,-594.4298 1371,-574 1336.5101,-564.8078 1247.1563,-529.4101 1192.9065,-507.4501"/>
<polygon fill="#191970" stroke="#191970" points="1194.1162,-504.1639 1183.5339,-503.6485 1191.4851,-510.6506 1194.1162,-504.1639"/>
</g>
<!-- Node370&#45;&gt;Node84 -->
<g id="edge128" class="edge">
<title>Node370&#45;&gt;Node84</title>
<path fill="none" stroke="#191970" d="M1658.2373,-610.3593C1658.7671,-589.136 1660,-534.87 1660,-489.5 1660,-489.5 1660,-489.5 1660,-424.5 1660,-386.9376 1678.5204,-346.7163 1692.058,-322.3337"/>
<polygon fill="#191970" stroke="#191970" points="1695.1839,-323.9187 1697.1307,-313.5043 1689.1143,-320.4316 1695.1839,-323.9187"/>
</g>
<!-- Node370&#45;&gt;Node373 -->
<g id="edge130" class="edge">
<title>Node370&#45;&gt;Node373</title>
<path fill="none" stroke="#191970" d="M1696.8678,-610.4394C1726.9101,-602.7176 1769.1163,-590.2831 1804,-574 1966.4049,-498.1925 2140.2522,-369.5958 2204.8701,-319.9238"/>
<polygon fill="#191970" stroke="#191970" points="2207.1257,-322.6041 2212.9022,-313.7225 2202.8479,-317.0633 2207.1257,-322.6041"/>
</g>
<!-- Node370&#45;&gt;Node381 -->
<g id="edge134" class="edge">
<title>Node370&#45;&gt;Node381</title>
<path fill="none" stroke="#191970" d="M1627.3205,-610.3873C1592.2655,-599.9749 1534.7738,-582.8982 1496.1727,-571.4325"/>
<polygon fill="#191970" stroke="#191970" points="1496.889,-567.9942 1486.3063,-568.5019 1494.8958,-574.7044 1496.889,-567.9942"/>
</g>
<!-- Node373&#45;&gt;Node1 -->
<g id="edge131" class="edge">
<title>Node373&#45;&gt;Node1</title>
<path fill="none" stroke="#191970" d="M2289.8987,-286.529C2292.9711,-285.9814 2296.0186,-285.4672 2299,-285 2377.556,-272.6904 2583.9954,-284.7898 2655,-249 2693.7968,-229.4445 2713.5481,-207.5974 2705,-165 2692.7363,-103.8867 2676.1573,-77.4267 2618,-55 2536.0112,-23.3833 1163.9465,-11.6247 918.4454,-9.7695"/>
<polygon fill="#191970" stroke="#191970" points="918.2772,-6.2682 908.2513,-9.6933 918.2248,-13.268 918.2772,-6.2682"/>
</g>
<!-- Node373&#45;&gt;Node4 -->
<g id="edge132" class="edge">
<title>Node373&#45;&gt;Node4</title>
<path fill="none" stroke="#191970" d="M2171.9406,-290.6555C2156.6756,-288.5799 2140.2471,-286.5301 2125,-285 1891.0324,-261.5207 1612.3462,-247.7784 1485.2942,-242.2917"/>
<polygon fill="#191970" stroke="#191970" points="1485.0834,-238.7796 1474.9428,-241.8485 1484.7839,-245.7732 1485.0834,-238.7796"/>
</g>
<!-- Node373&#45;&gt;Node42 -->
<g id="edge133" class="edge">
<title>Node373&#45;&gt;Node42</title>
<path fill="none" stroke="#191970" d="M2289.9362,-286.7469C2292.9988,-286.1423 2296.034,-285.5564 2299,-285 2397.2421,-266.5717 2430.8871,-292.2526 2521,-249 2546.991,-236.5248 2570.5876,-212.4725 2584.6199,-196.2017"/>
<polygon fill="#191970" stroke="#191970" points="2587.3241,-198.4239 2591.0481,-188.5051 2581.9515,-193.9367 2587.3241,-198.4239"/>
</g>
<!-- Node381&#45;&gt;Node1 -->
<g id="edge135" class="edge">
<title>Node381&#45;&gt;Node1</title>
<path fill="none" stroke="#191970" d="M1454.5333,-550.4436C1447.6503,-511.1423 1414.7189,-354.2383 1318,-285 1078.3014,-113.4065 859.6939,-411.7625 661,-194 618.3373,-147.243 640.732,-92.1202 692,-55 715.9399,-37.6665 795.5914,-22.753 843.5156,-15.0618"/>
<polygon fill="#191970" stroke="#191970" points="844.1838,-18.4998 853.5179,-13.4873 843.0953,-11.5849 844.1838,-18.4998"/>
</g>
<!-- Node381&#45;&gt;Node4 -->
<g id="edge136" class="edge">
<title>Node381&#45;&gt;Node4</title>
<path fill="none" stroke="#191970" d="M1462.1693,-550.4742C1475.9435,-529.4155 1508,-474.9833 1508,-424.5 1508,-424.5 1508,-424.5 1508,-364.5 1508,-317.3306 1464.9815,-276.2217 1437.7772,-254.9409"/>
<polygon fill="#191970" stroke="#191970" points="1439.6641,-251.9799 1429.5749,-248.7458 1435.4451,-257.5657 1439.6641,-251.9799"/>
</g>
<!-- Node381&#45;&gt;Node65 -->
<g id="edge137" class="edge">
<title>Node381&#45;&gt;Node65</title>
<path fill="none" stroke="#191970" d="M1416.4936,-550.492C1365.6399,-538.8967 1276.5452,-518.582 1215.2462,-504.605"/>
<polygon fill="#191970" stroke="#191970" points="1215.8064,-501.143 1205.2785,-502.3322 1214.2502,-507.9678 1215.8064,-501.143"/>
</g>
<!-- Node247&#45;&gt;Node1 -->
<g id="edge141" class="edge">
<title>Node247&#45;&gt;Node1</title>
<path fill="none" stroke="#191970" d="M2116.3528,-290.7685C2131.5388,-288.7029 2147.8566,-286.6295 2163,-285 2264.5057,-274.0772 2526.4426,-287.4918 2621,-249 2656.3655,-234.6036 2670.8043,-228.5785 2687,-194 2703.6917,-158.3625 2684.5805,-139.9046 2659,-110 2631.8971,-78.3156 2622.4911,-68.3762 2583,-55 2501.5332,-27.406 1160.8658,-12.3729 918.4275,-9.8738"/>
<polygon fill="#191970" stroke="#191970" points="918.3863,-6.3733 908.351,-9.7706 918.3146,-13.3729 918.3863,-6.3733"/>
</g>
<!-- Node247&#45;&gt;Node4 -->
<g id="edge142" class="edge">
<title>Node247&#45;&gt;Node4</title>
<path fill="none" stroke="#191970" d="M1997.7443,-286.3874C1994.7937,-285.8844 1991.8668,-285.4176 1989,-285 1808.4343,-258.6948 1593.4826,-246.7544 1485.386,-242.0785"/>
<polygon fill="#191970" stroke="#191970" points="1485.403,-238.5762 1475.2634,-241.6485 1485.1058,-245.5699 1485.403,-238.5762"/>
</g>
<!-- Node247&#45;&gt;Node34 -->
<g id="edge143" class="edge">
<title>Node247&#45;&gt;Node34</title>
<path fill="none" stroke="#191970" d="M2093.6343,-285.4996C2155.1121,-262.0049 2278.1273,-214.9927 2337.4643,-192.3162"/>
<polygon fill="#191970" stroke="#191970" points="2339.0072,-195.4735 2347.0988,-188.6342 2336.5083,-188.9347 2339.0072,-195.4735"/>
</g>
</g>
</svg>
        <g id="navigator" transform="translate(0 0)" fill="#404254">
                <rect fill="#f2f5e9" fill-opacity="0.5" stroke="#606060" stroke-width=".5" x="0" y="0" width="60" height="60"/>
                <use id="zoomplus" xlink:href="#zoomPlus" x="17" y="9" onmousedown="handleZoom(evt,'in')"/>
                <use id="zoomminus" xlink:href="#zoomMin" x="42" y="9" onmousedown="handleZoom(evt,'out')"/>
                <use id="reset" xlink:href="#resetDef" x="30" y="36" onmousedown="handleReset()"/>
                <g id="arrowUp" xlink:href="#dirArrow" transform="translate(30 24)" onmousedown="handlePan(0,-1)">
                  <use xlink:href="#rim" fill="#404040">
                        <set attributeName="fill" to="#808080" begin="arrowUp.mouseover" end="arrowUp.mouseout"/>
                  </use>
                  <path fill="none" stroke="white" stroke-width="1.5" d="M0,-3.0v7 M-2.5,-0.5L0,-3.0L2.5,-0.5"/>
                </g>
                <g id="arrowRight" xlink:href="#dirArrow" transform="rotate(90) translate(36 -43)" onmousedown="handlePan(1,0)">
                  <use xlink:href="#rim" fill="#404040">
                        <set attributeName="fill" to="#808080" begin="arrowRight.mouseover" end="arrowRight.mouseout"/>
                  </use>
                  <path fill="none" stroke="white" stroke-width="1.5" d="M0,-3.0v7 M-2.5,-0.5L0,-3.0L2.5,-0.5"/>
                </g>
                <g id="arrowDown" xlink:href="#dirArrow" transform="rotate(180) translate(-30 -48)" onmousedown="handlePan(0,1)">
                  <use xlink:href="#rim" fill="#404040">
                        <set attributeName="fill" to="#808080" begin="arrowDown.mouseover" end="arrowDown.mouseout"/>
                  </use>
                  <path fill="none" stroke="white" stroke-width="1.5" d="M0,-3.0v7 M-2.5,-0.5L0,-3.0L2.5,-0.5"/>
                </g>
                <g id="arrowLeft" xlink:href="#dirArrow" transform="rotate(270) translate(-36 17)" onmousedown="handlePan(-1,0)">
                  <use xlink:href="#rim" fill="#404040">
                        <set attributeName="fill" to="#808080" begin="arrowLeft.mouseover" end="arrowLeft.mouseout"/>
                  </use>
                  <path fill="none" stroke="white" stroke-width="1.5" d="M0,-3.0v7 M-2.5,-0.5L0,-3.0L2.5,-0.5"/>
                </g>
        </g>
        <svg viewBox="0 0 15 15" width="100%" height="30px" preserveAspectRatio="xMaxYMin meet">
         <g id="arrow_out" transform="scale(0.3 0.3)">
          <a xlink:href="testFMM_8cpp__incl_org.svg" target="_base">
           <rect id="button" ry="5" rx="5" y="6" x="6" height="38" width="38"
                fill="#f2f5e9" fill-opacity="0.5" stroke="#606060" stroke-width="1.0"/>
           <path id="arrow"
             d="M 11.500037,31.436501 C 11.940474,20.09759 22.043105,11.32322 32.158766,21.979434 L 37.068811,17.246167 C 37.068811,17.246167 37.088388,32 37.088388,32 L 22.160133,31.978069 C 22.160133,31.978069 26.997745,27.140456 26.997745,27.140456 C 18.528582,18.264221 13.291696,25.230495 11.500037,31.436501 z"
             style="fill:#404040;"/>
          </a>
         </g>
        </svg>
</svg>
