<?xml version="1.0" encoding="UTF-8" standalone="no"?>
<!DOCTYPE svg PUBLIC "-//W3C//DTD SVG 1.1//EN"
 "http://www.w3.org/Graphics/SVG/1.1/DTD/svg11.dtd">
<!-- Generated by graphviz version 2.40.1 (20161225.0304)
 -->
<!-- Title: testArithDSSIterator.cpp Pages: 1 -->
<svg width="2650pt" height="507pt"
 viewBox="0.00 0.00 2650.21 507.00" xmlns="http://www.w3.org/2000/svg" xmlns:xlink="http://www.w3.org/1999/xlink">
<g id="graph0" class="graph" transform="scale(1 1) rotate(0) translate(4 503)">
<title>testArithDSSIterator.cpp</title>
<polygon fill="#ffffff" stroke="transparent" points="-4,4 -4,-503 2646.2144,-503 2646.2144,4 -4,4"/>
<!-- Node0 -->
<g id="node1" class="node">
<title>Node0</title>
<polygon fill="#bfbfbf" stroke="#000000" points="718.3623,-480.5 718.3623,-498.5 841.6377,-498.5 841.6377,-480.5 718.3623,-480.5"/>
<text text-anchor="middle" x="780" y="-486.5" font-family="FreeSans" font-size="10.00" fill="#000000">testArithDSSIterator.cpp</text>
</g>
<!-- Node1 -->
<g id="node2" class="node">
<title>Node1</title>
<polygon fill="#ffffff" stroke="#bfbfbf" points="1238.8276,-.5 1238.8276,-18.5 1293.1724,-18.5 1293.1724,-.5 1238.8276,-.5"/>
<text text-anchor="middle" x="1266" y="-6.5" font-family="FreeSans" font-size="10.00" fill="#000000">iostream</text>
</g>
<!-- Node0&#45;&gt;Node1 -->
<g id="edge1" class="edge">
<title>Node0&#45;&gt;Node1</title>
<path fill="none" stroke="#191970" d="M718.1427,-486.0944C533.6561,-475.1202 0,-437.1009 0,-364.5 0,-364.5 0,-364.5 0,-119.5 0,-83.2287 17.734,-71.5683 50,-55 103.6594,-27.4463 1029.6842,-12.8385 1228.5743,-10.011"/>
<polygon fill="#191970" stroke="#191970" points="1228.8542,-13.5075 1238.8039,-9.8669 1228.7555,-6.5082 1228.8542,-13.5075"/>
</g>
<!-- Node2 -->
<g id="node3" class="node">
<title>Node2</title>
<g id="a_node3"><a xlink:href="Common_8h_source.html" target="_top" xlink:title="DGtal/base/Common.h">
<polygon fill="#ffffff" stroke="#000000" points="1285.1455,-230.5 1285.1455,-248.5 1402.8545,-248.5 1402.8545,-230.5 1285.1455,-230.5"/>
<text text-anchor="middle" x="1344" y="-236.5" font-family="FreeSans" font-size="10.00" fill="#000000">DGtal/base/Common.h</text>
</a>
</g>
</g>
<!-- Node0&#45;&gt;Node2 -->
<g id="edge2" class="edge">
<title>Node0&#45;&gt;Node2</title>
<path fill="none" stroke="#191970" d="M841.6841,-484.2974C921.763,-476.9454 1056.7406,-462.3436 1103,-444 1196.0784,-407.0909 1214.8653,-383.4439 1287,-314 1305.0458,-296.6274 1321.9835,-273.2365 1332.6302,-257.3307"/>
<polygon fill="#191970" stroke="#191970" points="1335.5797,-259.2153 1338.1326,-248.9326 1329.7245,-255.379 1335.5797,-259.2153"/>
</g>
<!-- Node42 -->
<g id="node38" class="node">
<title>Node42</title>
<g id="a_node38"><a xlink:href="ArithDSSIterator_8h_source.html" target="_top" xlink:title="DGtal/geometry/curves\l/ArithDSSIterator.h">
<polygon fill="#ffffff" stroke="#000000" points="317.8721,-415.5 317.8721,-443.5 436.1279,-443.5 436.1279,-415.5 317.8721,-415.5"/>
<text text-anchor="start" x="325.8721" y="-431.5" font-family="FreeSans" font-size="10.00" fill="#000000">DGtal/geometry/curves</text>
<text text-anchor="middle" x="377" y="-421.5" font-family="FreeSans" font-size="10.00" fill="#000000">/ArithDSSIterator.h</text>
</a>
</g>
</g>
<!-- Node0&#45;&gt;Node42 -->
<g id="edge68" class="edge">
<title>Node0&#45;&gt;Node42</title>
<path fill="none" stroke="#191970" d="M719.2305,-480.4524C645.9981,-469.5493 523.2314,-451.2714 446.3595,-439.8265"/>
<polygon fill="#191970" stroke="#191970" points="446.6979,-436.3384 436.2915,-438.3275 445.667,-443.262 446.6979,-436.3384"/>
</g>
<!-- Node65 -->
<g id="node46" class="node">
<title>Node65</title>
<g id="a_node46"><a xlink:href="ArithmeticalDSSComputer_8h_source.html" target="_top" xlink:title="Header file for module ArithmeticalDSSComputer.cpp. ">
<polygon fill="#ffffff" stroke="#000000" points="950.3623,-415.5 950.3623,-443.5 1093.6377,-443.5 1093.6377,-415.5 950.3623,-415.5"/>
<text text-anchor="start" x="958.3623" y="-431.5" font-family="FreeSans" font-size="10.00" fill="#000000">DGtal/geometry/curves</text>
<text text-anchor="middle" x="1022" y="-421.5" font-family="FreeSans" font-size="10.00" fill="#000000">/ArithmeticalDSSComputer.h</text>
</a>
</g>
</g>
<!-- Node0&#45;&gt;Node65 -->
<g id="edge88" class="edge">
<title>Node0&#45;&gt;Node65</title>
<path fill="none" stroke="#191970" d="M816.4919,-480.4524C853.1961,-471.3522 910.6219,-457.1144 955.4497,-446.0001"/>
<polygon fill="#191970" stroke="#191970" points="956.5262,-449.3392 965.3901,-443.5355 954.8416,-442.5449 956.5262,-449.3392"/>
</g>
<!-- Node2&#45;&gt;Node1 -->
<g id="edge3" class="edge">
<title>Node2&#45;&gt;Node1</title>
<path fill="none" stroke="#191970" d="M1284.8986,-238.0761C1112.7573,-233.6436 622.4048,-218.8778 599,-194 551.6041,-143.6212 607.8419,-87.3122 669,-55 718.3965,-28.9019 1105.8528,-14.5491 1228.7399,-10.6199"/>
<polygon fill="#191970" stroke="#191970" points="1228.911,-14.1163 1238.7957,-10.3028 1228.6903,-7.1198 1228.911,-14.1163"/>
</g>
<!-- Node3 -->
<g id="node4" class="node">
<title>Node3</title>
<polygon fill="#ffffff" stroke="#bfbfbf" points="1769.5962,-170.5 1769.5962,-188.5 1828.4038,-188.5 1828.4038,-170.5 1769.5962,-170.5"/>
<text text-anchor="middle" x="1799" y="-176.5" font-family="FreeSans" font-size="10.00" fill="#000000">exception</text>
</g>
<!-- Node2&#45;&gt;Node3 -->
<g id="edge4" class="edge">
<title>Node2&#45;&gt;Node3</title>
<path fill="none" stroke="#191970" d="M1403.1697,-237.7929C1484.7441,-234.3703 1635.8671,-224.1721 1761,-194 1763.4626,-193.4062 1765.9813,-192.6941 1768.4919,-191.9085"/>
<polygon fill="#191970" stroke="#191970" points="1769.7001,-195.194 1777.9999,-188.6089 1767.4051,-188.5809 1769.7001,-195.194"/>
</g>
<!-- Node4 -->
<g id="node5" class="node">
<title>Node4</title>
<polygon fill="#ffffff" stroke="#bfbfbf" points="1001.436,-55.5 1001.436,-73.5 1058.564,-73.5 1058.564,-55.5 1001.436,-55.5"/>
<text text-anchor="middle" x="1030" y="-61.5" font-family="FreeSans" font-size="10.00" fill="#000000">algorithm</text>
</g>
<!-- Node2&#45;&gt;Node4 -->
<g id="edge5" class="edge">
<title>Node2&#45;&gt;Node4</title>
<path fill="none" stroke="#191970" d="M1285.0277,-237.9127C1210.4576,-234.638 1087.9162,-224.6201 1056,-194 1026.0402,-165.2569 1025.4531,-112.3953 1027.6771,-83.9078"/>
<polygon fill="#191970" stroke="#191970" points="1031.1905,-83.9426 1028.687,-73.6478 1024.2242,-83.2568 1031.1905,-83.9426"/>
</g>
<!-- Node5 -->
<g id="node6" class="node">
<title>Node5</title>
<polygon fill="#ffffff" stroke="#bfbfbf" points="631.5298,-170.5 631.5298,-188.5 726.4702,-188.5 726.4702,-170.5 631.5298,-170.5"/>
<text text-anchor="middle" x="679" y="-176.5" font-family="FreeSans" font-size="10.00" fill="#000000">boost/version.hpp</text>
</g>
<!-- Node2&#45;&gt;Node5 -->
<g id="edge6" class="edge">
<title>Node2&#45;&gt;Node5</title>
<path fill="none" stroke="#191970" d="M1284.9046,-238.4926C1175.7711,-235.877 935.531,-226.5892 736,-194 730.903,-193.1675 725.5951,-192.098 720.3586,-190.9176"/>
<polygon fill="#191970" stroke="#191970" points="720.9909,-187.4701 710.4507,-188.5441 719.3601,-194.2775 720.9909,-187.4701"/>
</g>
<!-- Node6 -->
<g id="node7" class="node">
<title>Node6</title>
<polygon fill="#ffffff" stroke="#bfbfbf" points="370.2935,-170.5 370.2935,-188.5 499.7065,-188.5 499.7065,-170.5 370.2935,-170.5"/>
<text text-anchor="middle" x="435" y="-176.5" font-family="FreeSans" font-size="10.00" fill="#000000">boost/concept_check.hpp</text>
</g>
<!-- Node2&#45;&gt;Node6 -->
<g id="edge7" class="edge">
<title>Node2&#45;&gt;Node6</title>
<path fill="none" stroke="#191970" d="M1284.9074,-238.8285C1148.577,-236.7193 801.69,-228.1479 514,-194 505.8291,-193.0301 497.2277,-191.737 488.8284,-190.3211"/>
<polygon fill="#191970" stroke="#191970" points="489.1805,-186.8295 478.7258,-188.5467 487.9695,-193.724 489.1805,-186.8295"/>
</g>
<!-- Node7 -->
<g id="node8" class="node">
<title>Node7</title>
<polygon fill="#ffffff" stroke="#bfbfbf" points="744.5815,-170.5 744.5815,-188.5 863.4185,-188.5 863.4185,-170.5 744.5815,-170.5"/>
<text text-anchor="middle" x="804" y="-176.5" font-family="FreeSans" font-size="10.00" fill="#000000">boost/static_assert.hpp</text>
</g>
<!-- Node2&#45;&gt;Node7 -->
<g id="edge8" class="edge">
<title>Node2&#45;&gt;Node7</title>
<path fill="none" stroke="#191970" d="M1284.8636,-235.9718C1195.2041,-230.1331 1019.671,-216.786 872,-194 865.7369,-193.0336 859.1827,-191.8537 852.7203,-190.5886"/>
<polygon fill="#191970" stroke="#191970" points="853.1928,-187.1131 842.6957,-188.5488 851.797,-193.9725 853.1928,-187.1131"/>
</g>
<!-- Node8 -->
<g id="node9" class="node">
<title>Node8</title>
<polygon fill="#ffffff" stroke="#bfbfbf" points="881.1309,-170.5 881.1309,-188.5 1008.8691,-188.5 1008.8691,-170.5 881.1309,-170.5"/>
<text text-anchor="middle" x="945" y="-176.5" font-family="FreeSans" font-size="10.00" fill="#000000">boost/concept/assert.hpp</text>
</g>
<!-- Node2&#45;&gt;Node8 -->
<g id="edge9" class="edge">
<title>Node2&#45;&gt;Node8</title>
<path fill="none" stroke="#191970" d="M1285.0157,-231.9127C1220.5375,-223.4385 1114.2351,-208.9391 1023,-194 1016.2419,-192.8934 1009.1668,-191.6697 1002.1526,-190.4162"/>
<polygon fill="#191970" stroke="#191970" points="1002.4279,-186.9091 991.9638,-188.5683 1001.1787,-193.7967 1002.4279,-186.9091"/>
</g>
<!-- Node9 -->
<g id="node10" class="node">
<title>Node9</title>
<polygon fill="#ffffff" stroke="#bfbfbf" points="1064.6826,-170.5 1064.6826,-188.5 1201.3174,-188.5 1201.3174,-170.5 1064.6826,-170.5"/>
<text text-anchor="middle" x="1133" y="-176.5" font-family="FreeSans" font-size="10.00" fill="#000000">boost/concept/requires.hpp</text>
</g>
<!-- Node2&#45;&gt;Node9 -->
<g id="edge10" class="edge">
<title>Node2&#45;&gt;Node9</title>
<path fill="none" stroke="#191970" d="M1311.9536,-230.3873C1275.1809,-219.9306 1214.772,-202.7527 1174.4489,-191.2864"/>
<polygon fill="#191970" stroke="#191970" points="1175.2326,-187.8706 1164.6566,-188.5019 1173.3179,-194.6036 1175.2326,-187.8706"/>
</g>
<!-- Node10 -->
<g id="node11" class="node">
<title>Node10</title>
<polygon fill="#ffffff" stroke="#bfbfbf" points="1218.8672,-165.5 1218.8672,-193.5 1327.1328,-193.5 1327.1328,-165.5 1218.8672,-165.5"/>
<text text-anchor="start" x="1226.8672" y="-181.5" font-family="FreeSans" font-size="10.00" fill="#000000">boost/iterator/iterator</text>
<text text-anchor="middle" x="1273" y="-171.5" font-family="FreeSans" font-size="10.00" fill="#000000">_concepts.hpp</text>
</g>
<!-- Node2&#45;&gt;Node10 -->
<g id="edge11" class="edge">
<title>Node2&#45;&gt;Node10</title>
<path fill="none" stroke="#191970" d="M1333.2166,-230.3873C1323.7336,-222.3734 1309.5791,-210.4119 1297.3756,-200.0991"/>
<polygon fill="#191970" stroke="#191970" points="1299.6037,-197.3996 1289.7066,-193.6183 1295.0855,-202.7462 1299.6037,-197.3996"/>
</g>
<!-- Node11 -->
<g id="node12" class="node">
<title>Node11</title>
<polygon fill="#ffffff" stroke="#bfbfbf" points="1541.397,-170.5 1541.397,-188.5 1688.603,-188.5 1688.603,-170.5 1541.397,-170.5"/>
<text text-anchor="middle" x="1615" y="-176.5" font-family="FreeSans" font-size="10.00" fill="#000000">boost/concept_archetype.hpp</text>
</g>
<!-- Node2&#45;&gt;Node11 -->
<g id="edge12" class="edge">
<title>Node2&#45;&gt;Node11</title>
<path fill="none" stroke="#191970" d="M1384.8649,-230.4524C1432.8282,-219.8332 1512.3891,-202.2183 1564.2592,-190.7341"/>
<polygon fill="#191970" stroke="#191970" points="1565.2395,-194.1019 1574.2464,-188.5229 1563.7262,-187.2674 1565.2395,-194.1019"/>
</g>
<!-- Node12 -->
<g id="node13" class="node">
<title>Node12</title>
<polygon fill="#ffffff" stroke="#bfbfbf" points="1315.3843,-110.5 1315.3843,-128.5 1358.6157,-128.5 1358.6157,-110.5 1315.3843,-110.5"/>
<text text-anchor="middle" x="1337" y="-116.5" font-family="FreeSans" font-size="10.00" fill="#000000">cmath</text>
</g>
<!-- Node2&#45;&gt;Node12 -->
<g id="edge13" class="edge">
<title>Node2&#45;&gt;Node12</title>
<path fill="none" stroke="#191970" d="M1403.2505,-231.6191C1456.3654,-221.9973 1521.9455,-202.1943 1494,-165 1492.0636,-162.4227 1413.7384,-140.57 1368.4689,-128.1112"/>
<polygon fill="#191970" stroke="#191970" points="1369.3822,-124.7325 1358.8123,-125.458 1367.5277,-131.4824 1369.3822,-124.7325"/>
</g>
<!-- Node13 -->
<g id="node14" class="node">
<title>Node13</title>
<polygon fill="#ffffff" stroke="#bfbfbf" points="1706.2686,-170.5 1706.2686,-188.5 1751.7314,-188.5 1751.7314,-170.5 1706.2686,-170.5"/>
<text text-anchor="middle" x="1729" y="-176.5" font-family="FreeSans" font-size="10.00" fill="#000000">stdio.h</text>
</g>
<!-- Node2&#45;&gt;Node13 -->
<g id="edge14" class="edge">
<title>Node2&#45;&gt;Node13</title>
<path fill="none" stroke="#191970" d="M1403.0753,-237.4764C1474.2892,-233.7743 1596.9906,-223.3379 1698,-194 1699.4621,-193.5753 1700.9421,-193.0904 1702.4218,-192.5615"/>
<polygon fill="#191970" stroke="#191970" points="1704.0843,-195.6616 1711.9886,-188.6066 1701.41,-189.1926 1704.0843,-195.6616"/>
</g>
<!-- Node14 -->
<g id="node15" class="node">
<title>Node14</title>
<g id="a_node15"><a xlink:href="Config_8h_source.html" target="_top" xlink:title="DGtal/base/Config.h">
<polygon fill="#ffffff" stroke="#000000" points="2310.9756,-55.5 2310.9756,-73.5 2417.0244,-73.5 2417.0244,-55.5 2310.9756,-55.5"/>
<text text-anchor="middle" x="2364" y="-61.5" font-family="FreeSans" font-size="10.00" fill="#000000">DGtal/base/Config.h</text>
</a>
</g>
</g>
<!-- Node2&#45;&gt;Node14 -->
<g id="edge15" class="edge">
<title>Node2&#45;&gt;Node14</title>
<path fill="none" stroke="#191970" d="M1403.0911,-238.2325C1595.1909,-233.8888 2194.4625,-218.5052 2278,-194 2333.5956,-177.6914 2361.9908,-179.1528 2391,-129 2399.875,-113.6564 2389.8421,-94.8324 2379.5831,-81.49"/>
<polygon fill="#191970" stroke="#191970" points="2382.0989,-79.042 2373.0053,-73.6053 2376.7238,-83.5262 2382.0989,-79.042"/>
</g>
<!-- Node16 -->
<g id="node17" class="node">
<title>Node16</title>
<g id="a_node17"><a xlink:href="Trace_8h_source.html" target="_top" xlink:title="DGtal/base/Trace.h">
<polygon fill="#ffffff" stroke="#000000" points="2141.8311,-170.5 2141.8311,-188.5 2244.1689,-188.5 2244.1689,-170.5 2141.8311,-170.5"/>
<text text-anchor="middle" x="2193" y="-176.5" font-family="FreeSans" font-size="10.00" fill="#000000">DGtal/base/Trace.h</text>
</a>
</g>
</g>
<!-- Node2&#45;&gt;Node16 -->
<g id="edge18" class="edge">
<title>Node2&#45;&gt;Node16</title>
<path fill="none" stroke="#191970" d="M1403.0478,-237.658C1529.9648,-233.3179 1838.0846,-220.7387 2095,-194 2106.8945,-192.7621 2119.5572,-191.1269 2131.6934,-189.4017"/>
<polygon fill="#191970" stroke="#191970" points="2132.3449,-192.8438 2141.7355,-187.938 2131.3353,-185.917 2132.3449,-192.8438"/>
</g>
<!-- Node23 -->
<g id="node23" class="node">
<title>Node23</title>
<g id="a_node23"><a xlink:href="TraceWriterTerm_8h_source.html" target="_top" xlink:title="DGtal/base/TraceWriterTerm.h">
<polygon fill="#ffffff" stroke="#000000" points="2214.478,-110.5 2214.478,-128.5 2365.522,-128.5 2365.522,-110.5 2214.478,-110.5"/>
<text text-anchor="middle" x="2290" y="-116.5" font-family="FreeSans" font-size="10.00" fill="#000000">DGtal/base/TraceWriterTerm.h</text>
</a>
</g>
</g>
<!-- Node2&#45;&gt;Node23 -->
<g id="edge40" class="edge">
<title>Node2&#45;&gt;Node23</title>
<path fill="none" stroke="#191970" d="M1403.0613,-238.1792C1599.0343,-233.5841 2217.4364,-217.2963 2253,-194 2272.1075,-181.4834 2281.7283,-155.9934 2286.2909,-138.3397"/>
<polygon fill="#191970" stroke="#191970" points="2289.7133,-139.0737 2288.5178,-128.5465 2282.8876,-137.5215 2289.7133,-139.0737"/>
</g>
<!-- Node24 -->
<g id="node24" class="node">
<title>Node24</title>
<g id="a_node24"><a xlink:href="Assert_8h_source.html" target="_top" xlink:title="DGtal/base/Assert.h">
<polygon fill="#ffffff" stroke="#000000" points="2498.2588,-110.5 2498.2588,-128.5 2603.7412,-128.5 2603.7412,-110.5 2498.2588,-110.5"/>
<text text-anchor="middle" x="2551" y="-116.5" font-family="FreeSans" font-size="10.00" fill="#000000">DGtal/base/Assert.h</text>
</a>
</g>
</g>
<!-- Node2&#45;&gt;Node24 -->
<g id="edge45" class="edge">
<title>Node2&#45;&gt;Node24</title>
<path fill="none" stroke="#191970" d="M1403.1071,-239.02C1617.5573,-237.0099 2347.2452,-227.7352 2446,-194 2481.5345,-181.8612 2515.6497,-153.5701 2534.905,-135.5544"/>
<polygon fill="#191970" stroke="#191970" points="2537.4208,-137.9909 2542.2083,-128.5395 2532.5717,-132.9425 2537.4208,-137.9909"/>
</g>
<!-- Node27 -->
<g id="node27" class="node">
<title>Node27</title>
<g id="a_node27"><a xlink:href="TraceWriterFile_8h_source.html" target="_top" xlink:title="DGtal/base/TraceWriterFile.h">
<polygon fill="#ffffff" stroke="#000000" points="1794.5322,-110.5 1794.5322,-128.5 1939.4678,-128.5 1939.4678,-110.5 1794.5322,-110.5"/>
<text text-anchor="middle" x="1867" y="-116.5" font-family="FreeSans" font-size="10.00" fill="#000000">DGtal/base/TraceWriterFile.h</text>
</a>
</g>
</g>
<!-- Node2&#45;&gt;Node27 -->
<g id="edge41" class="edge">
<title>Node2&#45;&gt;Node27</title>
<path fill="none" stroke="#191970" d="M1403.1808,-238.7945C1534.242,-236.6176 1839.8822,-227.9202 1871,-194 1884.5036,-179.2803 1880.286,-155.2589 1874.7977,-138.4846"/>
<polygon fill="#191970" stroke="#191970" points="1877.9253,-136.8498 1871.1812,-128.6787 1871.3577,-139.2721 1877.9253,-136.8498"/>
</g>
<!-- Node28 -->
<g id="node28" class="node">
<title>Node28</title>
<g id="a_node28"><a xlink:href="ConceptUtils_8h_source.html" target="_top" xlink:title="DGtal/base/ConceptUtils.h">
<polygon fill="#ffffff" stroke="#000000" points="180.084,-170.5 180.084,-188.5 313.916,-188.5 313.916,-170.5 180.084,-170.5"/>
<text text-anchor="middle" x="247" y="-176.5" font-family="FreeSans" font-size="10.00" fill="#000000">DGtal/base/ConceptUtils.h</text>
</a>
</g>
</g>
<!-- Node2&#45;&gt;Node28 -->
<g id="edge46" class="edge">
<title>Node2&#45;&gt;Node28</title>
<path fill="none" stroke="#191970" d="M1284.8889,-238.4172C1131.9111,-235.2564 710.5594,-224.2716 361,-194 348.0118,-192.8752 334.2267,-191.38 320.8978,-189.7766"/>
<polygon fill="#191970" stroke="#191970" points="321.1678,-186.2835 310.8147,-188.5338 320.3114,-193.2309 321.1678,-186.2835"/>
</g>
<!-- Node29 -->
<g id="node29" class="node">
<title>Node29</title>
<g id="a_node29"><a xlink:href="BasicTypes_8h_source.html" target="_top" xlink:title="DGtal/base/BasicTypes.h">
<polygon fill="#ffffff" stroke="#000000" points="1414.8599,-110.5 1414.8599,-128.5 1543.1401,-128.5 1543.1401,-110.5 1414.8599,-110.5"/>
<text text-anchor="middle" x="1479" y="-116.5" font-family="FreeSans" font-size="10.00" fill="#000000">DGtal/base/BasicTypes.h</text>
</a>
</g>
</g>
<!-- Node2&#45;&gt;Node29 -->
<g id="edge48" class="edge">
<title>Node2&#45;&gt;Node29</title>
<path fill="none" stroke="#191970" d="M1403.0918,-238.4148C1527.6818,-235.514 1808.2579,-225.5169 1837,-194 1904.4566,-120.031 2026.8266,-189.1167 1553.697,-129.2066"/>
<polygon fill="#191970" stroke="#191970" points="1553.8471,-125.6975 1543.4849,-127.9052 1552.9622,-132.6413 1553.8471,-125.6975"/>
</g>
<!-- Node32 -->
<g id="node32" class="node">
<title>Node32</title>
<g id="a_node32"><a xlink:href="BasicFunctors_8h_source.html" target="_top" xlink:title="DGtal/base/BasicFunctors.h">
<polygon fill="#ffffff" stroke="#000000" points="1344.7515,-170.5 1344.7515,-188.5 1485.2485,-188.5 1485.2485,-170.5 1344.7515,-170.5"/>
<text text-anchor="middle" x="1415" y="-176.5" font-family="FreeSans" font-size="10.00" fill="#000000">DGtal/base/BasicFunctors.h</text>
</a>
</g>
</g>
<!-- Node2&#45;&gt;Node32 -->
<g id="edge53" class="edge">
<title>Node2&#45;&gt;Node32</title>
<path fill="none" stroke="#191970" d="M1349.774,-230.3873C1359.0478,-220.9054 1376.4938,-205.897 1391.1425,-194.6319"/>
<polygon fill="#191970" stroke="#191970" points="1393.4379,-197.2862 1399.3613,-188.5019 1389.2528,-191.6751 1393.4379,-197.2862"/>
</g>
<!-- Node40 -->
<g id="node36" class="node">
<title>Node40</title>
<g id="a_node36"><a xlink:href="BasicArchetypes_8h_source.html" target="_top" xlink:title="DGtal/base/BasicArchetypes.h">
<polygon fill="#ffffff" stroke="#000000" points="678.1899,-55.5 678.1899,-73.5 829.8101,-73.5 829.8101,-55.5 678.1899,-55.5"/>
<text text-anchor="middle" x="754" y="-61.5" font-family="FreeSans" font-size="10.00" fill="#000000">DGtal/base/BasicArchetypes.h</text>
</a>
</g>
</g>
<!-- Node2&#45;&gt;Node40 -->
<g id="edge64" class="edge">
<title>Node2&#45;&gt;Node40</title>
<path fill="none" stroke="#191970" d="M1285.104,-238.0096C1115.3886,-233.4305 635.9116,-218.382 613,-194 570.2536,-148.5102 666.1167,-100.0667 720.2188,-77.4869"/>
<polygon fill="#191970" stroke="#191970" points="721.857,-80.5986 729.792,-73.5783 719.211,-74.118 721.857,-80.5986"/>
</g>
<!-- Node41 -->
<g id="node37" class="node">
<title>Node41</title>
<g id="a_node37"><a xlink:href="Exceptions_8h_source.html" target="_top" xlink:title="DGtal/base/Exceptions.h">
<polygon fill="#ffffff" stroke="#000000" points="1959.9707,-170.5 1959.9707,-188.5 2086.0293,-188.5 2086.0293,-170.5 1959.9707,-170.5"/>
<text text-anchor="middle" x="2023" y="-176.5" font-family="FreeSans" font-size="10.00" fill="#000000">DGtal/base/Exceptions.h</text>
</a>
</g>
</g>
<!-- Node2&#45;&gt;Node41 -->
<g id="edge66" class="edge">
<title>Node2&#45;&gt;Node41</title>
<path fill="none" stroke="#191970" d="M1402.947,-235.6201C1505.6587,-228.664 1724.0524,-213.0069 1908,-194 1921.5301,-192.602 1935.9326,-190.9313 1949.8036,-189.2295"/>
<polygon fill="#191970" stroke="#191970" points="1950.2979,-192.6951 1959.7898,-187.9882 1949.4344,-185.7485 1950.2979,-192.6951"/>
</g>
<!-- Node14&#45;&gt;Node1 -->
<g id="edge16" class="edge">
<title>Node14&#45;&gt;Node1</title>
<path fill="none" stroke="#191970" d="M2310.7636,-59.5627C2292.182,-57.9513 2271.1805,-56.2555 2252,-55 1882.7672,-30.8303 1434.9216,-15.0627 1303.77,-10.7188"/>
<polygon fill="#191970" stroke="#191970" points="1303.5785,-7.2107 1293.4687,-10.3796 1303.348,-14.2069 1303.5785,-7.2107"/>
</g>
<!-- Node15 -->
<g id="node16" class="node">
<title>Node15</title>
<polygon fill="#ffffff" stroke="#bfbfbf" points="2383.7734,-.5 2383.7734,-18.5 2424.2266,-18.5 2424.2266,-.5 2383.7734,-.5"/>
<text text-anchor="middle" x="2404" y="-6.5" font-family="FreeSans" font-size="10.00" fill="#000000">string</text>
</g>
<!-- Node14&#45;&gt;Node15 -->
<g id="edge17" class="edge">
<title>Node14&#45;&gt;Node15</title>
<path fill="none" stroke="#191970" d="M2370.6052,-55.4179C2376.188,-47.7415 2384.3478,-36.5217 2391.204,-27.0945"/>
<polygon fill="#191970" stroke="#191970" points="2394.2001,-28.9255 2397.2513,-18.7795 2388.539,-24.8082 2394.2001,-28.9255"/>
</g>
<!-- Node16&#45;&gt;Node1 -->
<g id="edge19" class="edge">
<title>Node16&#45;&gt;Node1</title>
<path fill="none" stroke="#191970" d="M2141.7438,-170.9812C2126.717,-168.7373 2110.2314,-166.5213 2095,-165 1942.4391,-149.7625 1548.4179,-185.7817 1406,-129 1350.8233,-107.0012 1301.9628,-53.9455 1279.3367,-26.5324"/>
<polygon fill="#191970" stroke="#191970" points="1281.9423,-24.1879 1272.9377,-18.605 1276.4953,-28.5847 1281.9423,-24.1879"/>
</g>
<!-- Node16&#45;&gt;Node14 -->
<g id="edge23" class="edge">
<title>Node16&#45;&gt;Node14</title>
<path fill="none" stroke="#191970" d="M2244.3394,-172.2566C2292.4174,-164.2977 2359.1725,-149.8172 2375,-129 2384.9584,-115.9022 2380.1266,-96.9777 2374.0531,-83.0129"/>
<polygon fill="#191970" stroke="#191970" points="2377.1288,-81.3345 2369.605,-73.8751 2370.8349,-84.3983 2377.1288,-81.3345"/>
</g>
<!-- Node16&#45;&gt;Node15 -->
<g id="edge21" class="edge">
<title>Node16&#45;&gt;Node15</title>
<path fill="none" stroke="#191970" d="M2244.5384,-170.8061C2295.0716,-161.505 2367.8006,-145.805 2391,-129 2420.4641,-107.657 2434.1237,-90.4635 2426,-55 2423.8271,-45.5145 2419.4079,-35.7081 2415.0964,-27.639"/>
<polygon fill="#191970" stroke="#191970" points="2418.0462,-25.7463 2410.0491,-18.7966 2411.9668,-29.2165 2418.0462,-25.7463"/>
</g>
<!-- Node17 -->
<g id="node18" class="node">
<title>Node17</title>
<polygon fill="#ffffff" stroke="#bfbfbf" points="2094.9385,-.5 2094.9385,-18.5 2147.0615,-18.5 2147.0615,-.5 2094.9385,-.5"/>
<text text-anchor="middle" x="2121" y="-6.5" font-family="FreeSans" font-size="10.00" fill="#000000">ostream</text>
</g>
<!-- Node16&#45;&gt;Node17 -->
<g id="edge20" class="edge">
<title>Node16&#45;&gt;Node17</title>
<path fill="none" stroke="#191970" d="M2189.129,-170.3601C2177.7506,-143.4945 2144.2486,-64.3926 2128.8744,-28.0924"/>
<polygon fill="#191970" stroke="#191970" points="2132.013,-26.5283 2124.8902,-18.6851 2125.5673,-29.2583 2132.013,-26.5283"/>
</g>
<!-- Node18 -->
<g id="node19" class="node">
<title>Node18</title>
<polygon fill="#ffffff" stroke="#bfbfbf" points="2080.3301,-110.5 2080.3301,-128.5 2119.6699,-128.5 2119.6699,-110.5 2080.3301,-110.5"/>
<text text-anchor="middle" x="2100" y="-116.5" font-family="FreeSans" font-size="10.00" fill="#000000">stack</text>
</g>
<!-- Node16&#45;&gt;Node18 -->
<g id="edge22" class="edge">
<title>Node16&#45;&gt;Node18</title>
<path fill="none" stroke="#191970" d="M2178.8753,-170.3873C2163.9036,-160.7281 2140.0426,-145.334 2122.4815,-134.0042"/>
<polygon fill="#191970" stroke="#191970" points="2124.2533,-130.9821 2113.9529,-128.5019 2120.4584,-136.8642 2124.2533,-130.9821"/>
</g>
<!-- Node19 -->
<g id="node20" class="node">
<title>Node19</title>
<g id="a_node20"><a xlink:href="Clock_8h_source.html" target="_top" xlink:title="DGtal/base/Clock.h">
<polygon fill="#ffffff" stroke="#ff0000" points="1560.9263,-110.5 1560.9263,-128.5 1663.0737,-128.5 1663.0737,-110.5 1560.9263,-110.5"/>
<text text-anchor="middle" x="1612" y="-116.5" font-family="FreeSans" font-size="10.00" fill="#000000">DGtal/base/Clock.h</text>
</a>
</g>
</g>
<!-- Node16&#45;&gt;Node19 -->
<g id="edge24" class="edge">
<title>Node16&#45;&gt;Node19</title>
<path fill="none" stroke="#191970" d="M2141.699,-171.3864C2126.6713,-169.1514 2110.1964,-166.8387 2095,-165 1943.8375,-146.7101 1765.3026,-131.5617 1673.4388,-124.2388"/>
<polygon fill="#191970" stroke="#191970" points="1673.4559,-120.7293 1663.2104,-123.4273 1672.9022,-127.7074 1673.4559,-120.7293"/>
</g>
<!-- Node22 -->
<g id="node22" class="node">
<title>Node22</title>
<g id="a_node22"><a xlink:href="TraceWriter_8h_source.html" target="_top" xlink:title="DGtal/base/TraceWriter.h">
<polygon fill="#ffffff" stroke="#000000" points="1991.8623,-55.5 1991.8623,-73.5 2120.1377,-73.5 2120.1377,-55.5 1991.8623,-55.5"/>
<text text-anchor="middle" x="2056" y="-61.5" font-family="FreeSans" font-size="10.00" fill="#000000">DGtal/base/TraceWriter.h</text>
</a>
</g>
</g>
<!-- Node16&#45;&gt;Node22 -->
<g id="edge27" class="edge">
<title>Node16&#45;&gt;Node22</title>
<path fill="none" stroke="#191970" d="M2185.8106,-170.2103C2174.6366,-156.1395 2151.9863,-129.0477 2129,-110 2114.568,-98.0408 2096.7407,-86.8716 2082.3162,-78.5923"/>
<polygon fill="#191970" stroke="#191970" points="2083.8324,-75.4297 2073.3986,-73.5897 2080.4076,-81.5347 2083.8324,-75.4297"/>
</g>
<!-- Node16&#45;&gt;Node23 -->
<g id="edge30" class="edge">
<title>Node16&#45;&gt;Node23</title>
<path fill="none" stroke="#191970" d="M2207.7322,-170.3873C2223.4195,-160.6838 2248.4636,-145.1926 2266.8032,-133.8486"/>
<polygon fill="#191970" stroke="#191970" points="2268.7836,-136.739 2275.447,-128.5019 2265.1012,-130.7859 2268.7836,-136.739"/>
</g>
<!-- Node16&#45;&gt;Node24 -->
<g id="edge35" class="edge">
<title>Node16&#45;&gt;Node24</title>
<path fill="none" stroke="#191970" d="M2241.9879,-170.4524C2305.9717,-159.3442 2417.8823,-140.5811 2488.0715,-129.1879"/>
<polygon fill="#191970" stroke="#191970" points="2488.8018,-132.6153 2498.1139,-127.5622 2487.6831,-125.7053 2488.8018,-132.6153"/>
</g>
<!-- Node26 -->
<g id="node26" class="node">
<title>Node26</title>
<g id="a_node26"><a xlink:href="Trace_8ih_source.html" target="_top" xlink:title="DGtal/base/Trace.ih">
<polygon fill="#ffffff" stroke="#000000" points="1957.7202,-110.5 1957.7202,-128.5 2062.2798,-128.5 2062.2798,-110.5 1957.7202,-110.5"/>
<text text-anchor="middle" x="2010" y="-116.5" font-family="FreeSans" font-size="10.00" fill="#000000">DGtal/base/Trace.ih</text>
</a>
</g>
</g>
<!-- Node16&#45;&gt;Node26 -->
<g id="edge39" class="edge">
<title>Node16&#45;&gt;Node26</title>
<path fill="none" stroke="#191970" d="M2165.2062,-170.3873C2133.7187,-160.0635 2082.2495,-143.1883 2047.2906,-131.7264"/>
<polygon fill="#191970" stroke="#191970" points="2048.0485,-128.2916 2037.4557,-128.5019 2045.8676,-134.9433 2048.0485,-128.2916"/>
</g>
<!-- Node19&#45;&gt;Node1 -->
<g id="edge25" class="edge">
<title>Node19&#45;&gt;Node1</title>
<path fill="none" stroke="#191970" d="M1620.027,-110.4916C1631.1254,-96.9275 1648.2615,-71.1334 1634,-55 1612.3368,-30.4934 1393.1287,-16.2208 1303.6911,-11.3786"/>
<polygon fill="#191970" stroke="#191970" points="1303.6209,-7.87 1293.4493,-10.8347 1303.2497,-14.8601 1303.6209,-7.87"/>
</g>
<!-- Node20 -->
<g id="node21" class="node">
<title>Node20</title>
<polygon fill="#ffffff" stroke="#bfbfbf" points="1580.8276,-55.5 1580.8276,-73.5 1625.1724,-73.5 1625.1724,-55.5 1580.8276,-55.5"/>
<text text-anchor="middle" x="1603" y="-61.5" font-family="FreeSans" font-size="10.00" fill="#000000">cstdlib</text>
</g>
<!-- Node19&#45;&gt;Node20 -->
<g id="edge26" class="edge">
<title>Node19&#45;&gt;Node20</title>
<path fill="none" stroke="#191970" d="M1610.5138,-110.4179C1609.3354,-103.2164 1607.6466,-92.8962 1606.1685,-83.8632"/>
<polygon fill="#191970" stroke="#191970" points="1609.5875,-83.083 1604.5185,-73.7795 1602.6794,-84.2134 1609.5875,-83.083"/>
</g>
<!-- Node22&#45;&gt;Node1 -->
<g id="edge28" class="edge">
<title>Node22&#45;&gt;Node1</title>
<path fill="none" stroke="#191970" d="M1991.6859,-60.0224C1833.4929,-49.009 1429.2171,-20.8632 1303.7333,-12.127"/>
<polygon fill="#191970" stroke="#191970" points="1303.7037,-8.6166 1293.4848,-11.4135 1303.2175,-15.5997 1303.7037,-8.6166"/>
</g>
<!-- Node22&#45;&gt;Node17 -->
<g id="edge29" class="edge">
<title>Node22&#45;&gt;Node17</title>
<path fill="none" stroke="#191970" d="M2066.7334,-55.4179C2076.3666,-47.2667 2090.7217,-35.1201 2102.2482,-25.3669"/>
<polygon fill="#191970" stroke="#191970" points="2104.6603,-27.9108 2110.0334,-18.7795 2100.1387,-22.5671 2104.6603,-27.9108"/>
</g>
<!-- Node23&#45;&gt;Node1 -->
<g id="edge31" class="edge">
<title>Node23&#45;&gt;Node1</title>
<path fill="none" stroke="#191970" d="M2272.7384,-110.3727C2243.902,-95.6392 2183.6947,-67.0505 2129,-55 1968.0102,-19.5303 1447.5041,-11.4283 1303.3261,-9.845"/>
<polygon fill="#191970" stroke="#191970" points="1303.257,-6.3441 1293.2204,-9.738 1303.1828,-13.3437 1303.257,-6.3441"/>
</g>
<!-- Node23&#45;&gt;Node14 -->
<g id="edge34" class="edge">
<title>Node23&#45;&gt;Node14</title>
<path fill="none" stroke="#191970" d="M2302.2196,-110.4179C2313.4669,-102.0584 2330.3682,-89.4966 2343.6515,-79.6239"/>
<polygon fill="#191970" stroke="#191970" points="2345.8241,-82.37 2351.7623,-73.5956 2341.6484,-76.7518 2345.8241,-82.37"/>
</g>
<!-- Node23&#45;&gt;Node15 -->
<g id="edge32" class="edge">
<title>Node23&#45;&gt;Node15</title>
<path fill="none" stroke="#191970" d="M2289.1889,-110.0783C2288.5312,-96.4477 2289.3075,-71.1008 2302,-55 2319.5928,-32.6831 2350.4713,-21.0063 2373.6582,-15.1011"/>
<polygon fill="#191970" stroke="#191970" points="2374.7426,-18.4427 2383.695,-12.7765 2373.1631,-11.6232 2374.7426,-18.4427"/>
</g>
<!-- Node23&#45;&gt;Node22 -->
<g id="edge33" class="edge">
<title>Node23&#45;&gt;Node22</title>
<path fill="none" stroke="#191970" d="M2251.6217,-110.4795C2211.325,-101.008 2147.8697,-86.0933 2104.219,-75.8335"/>
<polygon fill="#191970" stroke="#191970" points="2104.9348,-72.4065 2094.3993,-73.5255 2103.3331,-79.2208 2104.9348,-72.4065"/>
</g>
<!-- Node24&#45;&gt;Node15 -->
<g id="edge38" class="edge">
<title>Node24&#45;&gt;Node15</title>
<path fill="none" stroke="#191970" d="M2572.519,-110.3019C2597.5254,-98.3266 2633.2871,-76.391 2616,-55 2593.532,-27.1982 2487.7248,-15.6053 2434.5958,-11.4727"/>
<polygon fill="#191970" stroke="#191970" points="2434.6399,-7.9665 2424.4096,-10.7219 2434.1253,-14.9476 2434.6399,-7.9665"/>
</g>
<!-- Node24&#45;&gt;Node16 -->
<g id="edge36" class="edge">
<title>Node24&#45;&gt;Node16</title>
<path fill="none" stroke="#191970" d="M2502.1642,-128.5212C2437.7893,-139.6983 2324.712,-158.6549 2254.5612,-170.034"/>
<polygon fill="#191970" stroke="#191970" points="2253.8463,-166.604 2244.5335,-171.656 2254.9641,-173.5142 2253.8463,-166.604"/>
</g>
<!-- Node25 -->
<g id="node25" class="node">
<title>Node25</title>
<polygon fill="#ffffff" stroke="#bfbfbf" points="2472.7935,-55.5 2472.7935,-73.5 2607.2065,-73.5 2607.2065,-55.5 2472.7935,-55.5"/>
<text text-anchor="middle" x="2540" y="-61.5" font-family="FreeSans" font-size="10.00" fill="#000000">boost/current_function.hpp</text>
</g>
<!-- Node24&#45;&gt;Node25 -->
<g id="edge37" class="edge">
<title>Node24&#45;&gt;Node25</title>
<path fill="none" stroke="#191970" d="M2549.1836,-110.4179C2547.7433,-103.2164 2545.6792,-92.8962 2543.8726,-83.8632"/>
<polygon fill="#191970" stroke="#191970" points="2547.2492,-82.8988 2541.8559,-73.7795 2540.3851,-84.2717 2547.2492,-82.8988"/>
</g>
<!-- Node27&#45;&gt;Node1 -->
<g id="edge42" class="edge">
<title>Node27&#45;&gt;Node1</title>
<path fill="none" stroke="#191970" d="M1858.4975,-110.455C1844.1267,-95.8398 1813.4167,-67.4173 1781,-55 1693.6707,-21.5484 1407.298,-12.4081 1303.7711,-10.165"/>
<polygon fill="#191970" stroke="#191970" points="1303.5542,-6.6599 1293.4838,-9.952 1303.4092,-13.6584 1303.5542,-6.6599"/>
</g>
<!-- Node27&#45;&gt;Node15 -->
<g id="edge43" class="edge">
<title>Node27&#45;&gt;Node15</title>
<path fill="none" stroke="#191970" d="M1924.6816,-110.4768C1977.8892,-101.9181 2058.9974,-88.2752 2129,-74 2218.4937,-55.7501 2323.3298,-29.9141 2373.8126,-17.1906"/>
<polygon fill="#191970" stroke="#191970" points="2374.8979,-20.5264 2383.735,-14.682 2373.1821,-13.7399 2374.8979,-20.5264"/>
</g>
<!-- Node27&#45;&gt;Node22 -->
<g id="edge44" class="edge">
<title>Node27&#45;&gt;Node22</title>
<path fill="none" stroke="#191970" d="M1898.2095,-110.4179C1930.1774,-101.115 1980.0288,-86.608 2015.127,-76.3943"/>
<polygon fill="#191970" stroke="#191970" points="2016.4345,-79.659 2025.0583,-73.5042 2014.4786,-72.9378 2016.4345,-79.659"/>
</g>
<!-- Node28&#45;&gt;Node1 -->
<g id="edge47" class="edge">
<title>Node28&#45;&gt;Node1</title>
<path fill="none" stroke="#191970" d="M261.3219,-170.423C300.1436,-146.3643 411.377,-81.0265 514,-55 651.6331,-20.0945 1096.7322,-11.6686 1228.756,-9.9143"/>
<polygon fill="#191970" stroke="#191970" points="1228.8265,-13.4138 1238.7809,-9.7861 1228.7369,-6.4144 1228.8265,-13.4138"/>
</g>
<!-- Node29&#45;&gt;Node1 -->
<g id="edge50" class="edge">
<title>Node29&#45;&gt;Node1</title>
<path fill="none" stroke="#191970" d="M1461.2507,-110.4723C1443.2738,-101.3179 1414.6775,-86.726 1390,-74 1356.1506,-56.5442 1317.1982,-36.2484 1292.1229,-23.1561"/>
<polygon fill="#191970" stroke="#191970" points="1293.7158,-20.0394 1283.2316,-18.512 1290.475,-26.2441 1293.7158,-20.0394"/>
</g>
<!-- Node29&#45;&gt;Node20 -->
<g id="edge49" class="edge">
<title>Node29&#45;&gt;Node20</title>
<path fill="none" stroke="#191970" d="M1499.4761,-110.4179C1519.5794,-101.5011 1550.4622,-87.803 1573.2687,-77.6873"/>
<polygon fill="#191970" stroke="#191970" points="1574.7715,-80.8496 1582.4935,-73.5956 1571.9332,-74.4508 1574.7715,-80.8496"/>
</g>
<!-- Node30 -->
<g id="node30" class="node">
<title>Node30</title>
<polygon fill="#ffffff" stroke="#bfbfbf" points="1399.1973,-55.5 1399.1973,-73.5 1490.8027,-73.5 1490.8027,-55.5 1399.1973,-55.5"/>
<text text-anchor="middle" x="1445" y="-61.5" font-family="FreeSans" font-size="10.00" fill="#000000">boost/cstdint.hpp</text>
</g>
<!-- Node29&#45;&gt;Node30 -->
<g id="edge51" class="edge">
<title>Node29&#45;&gt;Node30</title>
<path fill="none" stroke="#191970" d="M1473.3856,-110.4179C1468.6891,-102.8207 1461.8471,-91.7527 1456.0572,-82.3866"/>
<polygon fill="#191970" stroke="#191970" points="1458.9717,-80.445 1450.7364,-73.7795 1453.0176,-84.1258 1458.9717,-80.445"/>
</g>
<!-- Node31 -->
<g id="node31" class="node">
<title>Node31</title>
<polygon fill="#ffffff" stroke="#bfbfbf" points="1509.1035,-55.5 1509.1035,-73.5 1562.8965,-73.5 1562.8965,-55.5 1509.1035,-55.5"/>
<text text-anchor="middle" x="1536" y="-61.5" font-family="FreeSans" font-size="10.00" fill="#000000">gmpxx.h</text>
</g>
<!-- Node29&#45;&gt;Node31 -->
<g id="edge52" class="edge">
<title>Node29&#45;&gt;Node31</title>
<path fill="none" stroke="#191970" d="M1488.4124,-110.4179C1496.6959,-102.425 1508.9609,-90.5903 1518.9645,-80.9377"/>
<polygon fill="#191970" stroke="#191970" points="1521.6172,-83.2419 1526.3831,-73.7795 1516.7566,-78.2045 1521.6172,-83.2419"/>
</g>
<!-- Node32&#45;&gt;Node2 -->
<g id="edge61" class="edge">
<title>Node32&#45;&gt;Node2</title>
<path fill="none" stroke="#191970" d="M1409.142,-188.6985C1399.873,-198.1586 1382.5587,-213.0539 1367.9793,-224.2744"/>
<polygon fill="#191970" stroke="#191970" points="1365.7113,-221.5997 1359.7927,-230.3873 1369.8995,-227.2086 1365.7113,-221.5997"/>
</g>
<!-- Node32&#45;&gt;Node4 -->
<g id="edge54" class="edge">
<title>Node32&#45;&gt;Node4</title>
<path fill="none" stroke="#191970" d="M1394.8261,-170.3709C1372.8835,-160.3908 1336.8171,-143.8391 1306,-129 1288.9872,-120.808 1285.8862,-116.0521 1268,-110 1199.8767,-86.9495 1116.6017,-74.3942 1068.7913,-68.5963"/>
<polygon fill="#191970" stroke="#191970" points="1069.2003,-65.1204 1058.8598,-67.4277 1068.3822,-72.0724 1069.2003,-65.1204"/>
</g>
<!-- Node32&#45;&gt;Node12 -->
<g id="edge56" class="edge">
<title>Node32&#45;&gt;Node12</title>
<path fill="none" stroke="#191970" d="M1403.1535,-170.3873C1390.827,-160.9054 1371.316,-145.897 1356.6715,-134.6319"/>
<polygon fill="#191970" stroke="#191970" points="1358.7627,-131.8248 1348.7024,-128.5019 1354.4947,-137.3732 1358.7627,-131.8248"/>
</g>
<!-- Node33 -->
<g id="node33" class="node">
<title>Node33</title>
<polygon fill="#ffffff" stroke="#bfbfbf" points="1200.5962,-110.5 1200.5962,-128.5 1259.4038,-128.5 1259.4038,-110.5 1200.5962,-110.5"/>
<text text-anchor="middle" x="1230" y="-116.5" font-family="FreeSans" font-size="10.00" fill="#000000">functional</text>
</g>
<!-- Node32&#45;&gt;Node33 -->
<g id="edge55" class="edge">
<title>Node32&#45;&gt;Node33</title>
<path fill="none" stroke="#191970" d="M1386.9025,-170.3873C1355.0708,-160.0635 1303.0391,-143.1883 1267.6981,-131.7264"/>
<polygon fill="#191970" stroke="#191970" points="1268.3478,-128.2577 1257.7558,-128.5019 1266.1882,-134.9163 1268.3478,-128.2577"/>
</g>
<!-- Node34 -->
<g id="node34" class="node">
<title>Node34</title>
<g id="a_node34"><a xlink:href="Color_8h_source.html" target="_top" xlink:title="DGtal/io/Color.h">
<polygon fill="#ffffff" stroke="#ff0000" points="922.7046,-110.5 922.7046,-128.5 1009.2954,-128.5 1009.2954,-110.5 922.7046,-110.5"/>
<text text-anchor="middle" x="966" y="-116.5" font-family="FreeSans" font-size="10.00" fill="#000000">DGtal/io/Color.h</text>
</a>
</g>
</g>
<!-- Node32&#45;&gt;Node34 -->
<g id="edge57" class="edge">
<title>Node32&#45;&gt;Node34</title>
<path fill="none" stroke="#191970" d="M1368.2909,-170.4541C1357.694,-168.5336 1346.4756,-166.604 1336,-165 1223.805,-147.8205 1091.6873,-132.8256 1019.5971,-125.0845"/>
<polygon fill="#191970" stroke="#191970" points="1019.7212,-121.5779 1009.4059,-123.9956 1018.9774,-128.5383 1019.7212,-121.5779"/>
</g>
<!-- Node37 -->
<g id="node35" class="node">
<title>Node37</title>
<g id="a_node35"><a xlink:href="BasicBoolFunctors_8h_source.html" target="_top" xlink:title="DGtal/base/BasicBoolFunctors.h">
<polygon fill="#ffffff" stroke="#ff0000" points="1118.7441,-55.5 1118.7441,-73.5 1279.2559,-73.5 1279.2559,-55.5 1118.7441,-55.5"/>
<text text-anchor="middle" x="1199" y="-61.5" font-family="FreeSans" font-size="10.00" fill="#000000">DGtal/base/BasicBoolFunctors.h</text>
</a>
</g>
</g>
<!-- Node32&#45;&gt;Node37 -->
<g id="edge62" class="edge">
<title>Node32&#45;&gt;Node37</title>
<path fill="none" stroke="#191970" d="M1368.3838,-170.4782C1304.6597,-157.9256 1197.5514,-135.9491 1192,-129 1181.8039,-116.2368 1185.4073,-97.2335 1190.447,-83.1568"/>
<polygon fill="#191970" stroke="#191970" points="1193.8348,-84.1186 1194.3761,-73.5376 1187.3545,-81.4716 1193.8348,-84.1186"/>
</g>
<!-- Node34&#45;&gt;Node1 -->
<g id="edge58" class="edge">
<title>Node34&#45;&gt;Node1</title>
<path fill="none" stroke="#191970" d="M966.9009,-110.3625C968.8211,-96.1402 974.6716,-68.9011 992,-55 1027.882,-26.215 1162.4726,-15.0631 1228.7091,-11.2495"/>
<polygon fill="#191970" stroke="#191970" points="1228.9343,-14.7425 1238.7271,-10.6989 1228.5501,-7.7531 1228.9343,-14.7425"/>
</g>
<!-- Node34&#45;&gt;Node2 -->
<g id="edge59" class="edge">
<title>Node34&#45;&gt;Node2</title>
<path fill="none" stroke="#191970" d="M922.5135,-122.1122C834.6148,-127.8368 642.4708,-142.7758 623,-165 614.5065,-174.6946 614.1778,-184.6036 623,-194 645.1084,-217.5475 1098.591,-232.6626 1274.8156,-237.667"/>
<polygon fill="#191970" stroke="#191970" points="1274.9167,-241.1711 1285.0113,-237.954 1275.1137,-234.1739 1274.9167,-241.1711"/>
</g>
<!-- Node34&#45;&gt;Node4 -->
<g id="edge60" class="edge">
<title>Node34&#45;&gt;Node4</title>
<path fill="none" stroke="#191970" d="M976.5683,-110.4179C986.0533,-102.2667 1000.1875,-90.1201 1011.5366,-80.3669"/>
<polygon fill="#191970" stroke="#191970" points="1013.8991,-82.9516 1019.2021,-73.7795 1009.3367,-77.6427 1013.8991,-82.9516"/>
</g>
<!-- Node37&#45;&gt;Node1 -->
<g id="edge63" class="edge">
<title>Node37&#45;&gt;Node1</title>
<path fill="none" stroke="#191970" d="M1210.0637,-55.4179C1219.9933,-47.2667 1234.79,-35.1201 1246.6712,-25.3669"/>
<polygon fill="#191970" stroke="#191970" points="1249.1874,-27.8297 1254.6959,-18.7795 1244.7459,-22.4192 1249.1874,-27.8297"/>
</g>
<!-- Node40&#45;&gt;Node1 -->
<g id="edge65" class="edge">
<title>Node40&#45;&gt;Node1</title>
<path fill="none" stroke="#191970" d="M829.8229,-56.355C941.2749,-44.3826 1145.1416,-22.4828 1228.7364,-13.5029"/>
<polygon fill="#191970" stroke="#191970" points="1229.2168,-16.9715 1238.7857,-12.4234 1228.4691,-10.0116 1229.2168,-16.9715"/>
</g>
<!-- Node41&#45;&gt;Node1 -->
<g id="edge67" class="edge">
<title>Node41&#45;&gt;Node1</title>
<path fill="none" stroke="#191970" d="M1974.9449,-170.4374C1965.3572,-168.6331 1955.3592,-166.7541 1946,-165 1860.236,-148.9261 1825.5109,-177.5386 1753,-129 1720.4231,-107.1932 1738.4344,-75.4677 1705,-55 1671.109,-34.2528 1403.8889,-17.2533 1303.7346,-11.5507"/>
<polygon fill="#191970" stroke="#191970" points="1303.6523,-8.0406 1293.4713,-10.9727 1303.2587,-15.0296 1303.6523,-8.0406"/>
</g>
<!-- Node42&#45;&gt;Node1 -->
<g id="edge69" class="edge">
<title>Node42&#45;&gt;Node1</title>
<path fill="none" stroke="#191970" d="M317.6082,-422.9197C249.5812,-414.5951 143.0034,-398.9124 108,-379 67.0798,-355.7217 38,-346.5781 38,-299.5 38,-299.5 38,-299.5 38,-119.5 38,-85.532 49.5462,-71.9205 79,-55 129.9759,-25.7155 1032.1198,-12.4981 1228.4752,-9.9613"/>
<polygon fill="#191970" stroke="#191970" points="1228.6324,-13.4597 1238.5869,-9.8321 1228.5429,-6.4603 1228.6324,-13.4597"/>
</g>
<!-- Node42&#45;&gt;Node2 -->
<g id="edge70" class="edge">
<title>Node42&#45;&gt;Node2</title>
<path fill="none" stroke="#191970" d="M436.1921,-418.4171C490.1164,-408.2838 571.9422,-392.8152 643,-379 884.1532,-332.1146 1171.567,-274.315 1289.4597,-250.5238"/>
<polygon fill="#191970" stroke="#191970" points="1290.2208,-253.9408 1299.3305,-248.5313 1288.8357,-247.0792 1290.2208,-253.9408"/>
</g>
<!-- Node43 -->
<g id="node39" class="node">
<title>Node43</title>
<g id="a_node39"><a xlink:href="PointVector_8h_source.html" target="_top" xlink:title="DGtal/kernel/PointVector.h">
<polygon fill="#ffffff" stroke="#ff0000" points="500.3525,-355.5 500.3525,-373.5 633.6475,-373.5 633.6475,-355.5 500.3525,-355.5"/>
<text text-anchor="middle" x="567" y="-361.5" font-family="FreeSans" font-size="10.00" fill="#000000">DGtal/kernel/PointVector.h</text>
</a>
</g>
</g>
<!-- Node42&#45;&gt;Node43 -->
<g id="edge71" class="edge">
<title>Node42&#45;&gt;Node43</title>
<path fill="none" stroke="#191970" d="M418.2272,-415.396C451.7115,-403.9408 498.4851,-387.9393 530.599,-376.953"/>
<polygon fill="#191970" stroke="#191970" points="532.1464,-380.1228 540.4751,-373.5743 529.8805,-373.4997 532.1464,-380.1228"/>
</g>
<!-- Node62 -->
<g id="node44" class="node">
<title>Node62</title>
<g id="a_node44"><a xlink:href="CInteger_8h_source.html" target="_top" xlink:title="DGtal/kernel/CInteger.h">
<polygon fill="#ffffff" stroke="#ff0000" points="65.749,-290.5 65.749,-308.5 186.251,-308.5 186.251,-290.5 65.749,-290.5"/>
<text text-anchor="middle" x="126" y="-296.5" font-family="FreeSans" font-size="10.00" fill="#000000">DGtal/kernel/CInteger.h</text>
</a>
</g>
</g>
<!-- Node42&#45;&gt;Node62 -->
<g id="edge83" class="edge">
<title>Node42&#45;&gt;Node62</title>
<path fill="none" stroke="#191970" d="M317.7895,-426.3374C249.8291,-421.3241 144.5544,-408.8488 120,-379 106.1643,-362.1811 111.6027,-336.0046 117.8491,-318.327"/>
<polygon fill="#191970" stroke="#191970" points="121.2801,-319.1654 121.6778,-308.578 114.7645,-316.6066 121.2801,-319.1654"/>
</g>
<!-- Node64 -->
<g id="node45" class="node">
<title>Node64</title>
<g id="a_node45"><a xlink:href="ArithDSSIterator_8ih_source.html" target="_top" xlink:title="DGtal/geometry/curves\l/ArithDSSIterator.ih">
<polygon fill="#ffffff" stroke="#000000" points="128.8721,-350.5 128.8721,-378.5 247.1279,-378.5 247.1279,-350.5 128.8721,-350.5"/>
<text text-anchor="start" x="136.8721" y="-366.5" font-family="FreeSans" font-size="10.00" fill="#000000">DGtal/geometry/curves</text>
<text text-anchor="middle" x="188" y="-356.5" font-family="FreeSans" font-size="10.00" fill="#000000">/ArithDSSIterator.ih</text>
</a>
</g>
</g>
<!-- Node42&#45;&gt;Node64 -->
<g id="edge87" class="edge">
<title>Node42&#45;&gt;Node64</title>
<path fill="none" stroke="#191970" d="M335.9898,-415.396C307.384,-405.558 269.028,-392.3668 238.5327,-381.879"/>
<polygon fill="#191970" stroke="#191970" points="239.5248,-378.519 228.9301,-378.5765 237.2482,-385.1385 239.5248,-378.519"/>
</g>
<!-- Node43&#45;&gt;Node1 -->
<g id="edge72" class="edge">
<title>Node43&#45;&gt;Node1</title>
<path fill="none" stroke="#191970" d="M500.1678,-356.9054C453.4968,-349.8971 390.5695,-336.9745 339,-314 247.8355,-273.3856 114.5466,-247.3014 171,-165 247.8008,-53.0348 323.2724,-83.5997 456,-55 606.2935,-22.6153 1089.3152,-12.3755 1228.2757,-10.0624"/>
<polygon fill="#191970" stroke="#191970" points="1228.4821,-13.5596 1238.4239,-9.8975 1228.3683,-6.5605 1228.4821,-13.5596"/>
</g>
<!-- Node43&#45;&gt;Node2 -->
<g id="edge78" class="edge">
<title>Node43&#45;&gt;Node2</title>
<path fill="none" stroke="#191970" d="M590.9215,-355.3253C615.0583,-345.8222 653.2027,-330.1275 685,-314 707.5691,-302.5531 709.8575,-292.5853 734,-285 833.0876,-253.8676 1136.8841,-243.7468 1274.7112,-240.7041"/>
<polygon fill="#191970" stroke="#191970" points="1274.8185,-244.2027 1284.741,-240.4888 1274.6681,-237.2043 1274.8185,-244.2027"/>
</g>
<!-- Node43&#45;&gt;Node4 -->
<g id="edge75" class="edge">
<title>Node43&#45;&gt;Node4</title>
<path fill="none" stroke="#191970" d="M500.123,-357.0218C446.7466,-349.5132 378.1593,-335.8739 361,-314 320.1268,-261.8966 317.7918,-215.184 361,-165 402.5911,-116.6942 854.7499,-78.0433 991.2235,-67.411"/>
<polygon fill="#191970" stroke="#191970" points="991.5336,-70.8976 1001.2342,-66.6374 990.9942,-63.9184 991.5336,-70.8976"/>
</g>
<!-- Node43&#45;&gt;Node15 -->
<g id="edge73" class="edge">
<title>Node43&#45;&gt;Node15</title>
<path fill="none" stroke="#191970" d="M633.8944,-361.9137C878.1257,-352.4415 1710.4194,-319.8895 1767,-314 2089.2347,-280.4586 2178.3908,-295.6698 2486,-194 2546.2046,-174.1014 2571.4201,-176.8712 2613,-129 2635.2666,-103.3644 2653.5331,-81.2548 2632,-55 2607.3518,-24.947 2490.7525,-14.3608 2434.5008,-10.9603"/>
<polygon fill="#191970" stroke="#191970" points="2434.5994,-7.4604 2424.4174,-10.3891 2434.2034,-14.4492 2434.5994,-7.4604"/>
</g>
<!-- Node44 -->
<g id="node40" class="node">
<title>Node44</title>
<polygon fill="#ffffff" stroke="#bfbfbf" points="518.0493,-290.5 518.0493,-308.5 557.9507,-308.5 557.9507,-290.5 518.0493,-290.5"/>
<text text-anchor="middle" x="538" y="-296.5" font-family="FreeSans" font-size="10.00" fill="#000000">bitset</text>
</g>
<!-- Node43&#45;&gt;Node44 -->
<g id="edge74" class="edge">
<title>Node43&#45;&gt;Node44</title>
<path fill="none" stroke="#191970" d="M562.9677,-355.462C558.6878,-345.8691 551.8026,-330.4368 546.3454,-318.2053"/>
<polygon fill="#191970" stroke="#191970" points="549.4567,-316.5884 542.1859,-308.8821 543.064,-319.4405 549.4567,-316.5884"/>
</g>
<!-- Node45 -->
<g id="node41" class="node">
<title>Node45</title>
<polygon fill="#ffffff" stroke="#bfbfbf" points="575.6084,-290.5 575.6084,-308.5 614.3916,-308.5 614.3916,-290.5 575.6084,-290.5"/>
<text text-anchor="middle" x="595" y="-296.5" font-family="FreeSans" font-size="10.00" fill="#000000">array</text>
</g>
<!-- Node43&#45;&gt;Node45 -->
<g id="edge76" class="edge">
<title>Node43&#45;&gt;Node45</title>
<path fill="none" stroke="#191970" d="M570.8933,-355.462C575.0256,-345.8691 581.6734,-330.4368 586.9423,-318.2053"/>
<polygon fill="#191970" stroke="#191970" points="590.2166,-319.451 590.9585,-308.8821 583.7877,-316.6816 590.2166,-319.451"/>
</g>
<!-- Node46 -->
<g id="node42" class="node">
<title>Node46</title>
<polygon fill="#ffffff" stroke="#bfbfbf" points="632.3843,-290.5 632.3843,-308.5 675.6157,-308.5 675.6157,-290.5 632.3843,-290.5"/>
<text text-anchor="middle" x="654" y="-296.5" font-family="FreeSans" font-size="10.00" fill="#000000">vector</text>
</g>
<!-- Node43&#45;&gt;Node46 -->
<g id="edge77" class="edge">
<title>Node43&#45;&gt;Node46</title>
<path fill="none" stroke="#191970" d="M579.097,-355.462C593.1718,-344.9464 616.6384,-327.4138 633.5584,-314.7725"/>
<polygon fill="#191970" stroke="#191970" points="635.8091,-317.4599 641.7253,-308.6708 631.6194,-311.8522 635.8091,-317.4599"/>
</g>
<!-- Node47 -->
<g id="node43" class="node">
<title>Node47</title>
<g id="a_node43"><a xlink:href="CBidirectionalRange_8h_source.html" target="_top" xlink:title="DGtal/base/CBidirectional\lRange.h">
<polygon fill="#ffffff" stroke="#ff0000" points="369.7515,-285.5 369.7515,-313.5 500.2485,-313.5 500.2485,-285.5 369.7515,-285.5"/>
<text text-anchor="start" x="377.7515" y="-301.5" font-family="FreeSans" font-size="10.00" fill="#000000">DGtal/base/CBidirectional</text>
<text text-anchor="middle" x="435" y="-291.5" font-family="FreeSans" font-size="10.00" fill="#000000">Range.h</text>
</a>
</g>
</g>
<!-- Node43&#45;&gt;Node47 -->
<g id="edge79" class="edge">
<title>Node43&#45;&gt;Node47</title>
<path fill="none" stroke="#191970" d="M548.646,-355.462C529.1105,-345.8423 497.6501,-330.3504 472.7778,-318.1027"/>
<polygon fill="#191970" stroke="#191970" points="474.124,-314.8643 463.6065,-313.5865 471.0316,-321.1442 474.124,-314.8643"/>
</g>
<!-- Node47&#45;&gt;Node2 -->
<g id="edge80" class="edge">
<title>Node47&#45;&gt;Node2</title>
<path fill="none" stroke="#191970" d="M500.2907,-286.1955C503.2286,-285.7581 506.142,-285.3561 509,-285 656.5353,-266.6164 1102.4788,-248.5243 1274.9031,-242.0246"/>
<polygon fill="#191970" stroke="#191970" points="1275.2613,-245.5137 1285.1229,-241.6409 1274.9985,-238.5187 1275.2613,-245.5137"/>
</g>
<!-- Node47&#45;&gt;Node6 -->
<g id="edge81" class="edge">
<title>Node47&#45;&gt;Node6</title>
<path fill="none" stroke="#191970" d="M435,-285.2632C435,-263.7178 435,-222.7893 435,-198.6524"/>
<polygon fill="#191970" stroke="#191970" points="438.5001,-198.5918 435,-188.5918 431.5001,-198.5918 438.5001,-198.5918"/>
</g>
<!-- Node47&#45;&gt;Node28 -->
<g id="edge82" class="edge">
<title>Node47&#45;&gt;Node28</title>
<path fill="none" stroke="#191970" d="M413.0661,-285.4996C377.1704,-262.5875 306.2348,-217.3095 269.7903,-194.047"/>
<polygon fill="#191970" stroke="#191970" points="271.6226,-191.0644 261.3102,-188.6342 267.8563,-196.9648 271.6226,-191.0644"/>
</g>
<!-- Node62&#45;&gt;Node1 -->
<g id="edge84" class="edge">
<title>Node62&#45;&gt;Node1</title>
<path fill="none" stroke="#191970" d="M119.2568,-290.4011C105.6089,-271.0555 76,-223.9618 76,-179.5 76,-179.5 76,-179.5 76,-119.5 76,-88.9131 75.2273,-72.9406 100,-55 146.7477,-21.1449 1034.5804,-11.5066 1228.7081,-9.8"/>
<polygon fill="#191970" stroke="#191970" points="1228.7397,-13.3 1238.7092,-9.7138 1228.6793,-6.3002 1228.7397,-13.3"/>
</g>
<!-- Node62&#45;&gt;Node2 -->
<g id="edge85" class="edge">
<title>Node62&#45;&gt;Node2</title>
<path fill="none" stroke="#191970" d="M186.3589,-295.5198C233.8185,-292.452 301.6116,-288.2065 361,-285 703.8302,-266.4902 1114.175,-249.0022 1274.769,-242.3382"/>
<polygon fill="#191970" stroke="#191970" points="1275.136,-245.8261 1284.9825,-241.9151 1274.8462,-238.8321 1275.136,-245.8261"/>
</g>
<!-- Node62&#45;&gt;Node28 -->
<g id="edge86" class="edge">
<title>Node62&#45;&gt;Node28</title>
<path fill="none" stroke="#191970" d="M135.0947,-290.4805C155.4164,-270.3267 204.7483,-221.4025 230.5917,-195.7727"/>
<polygon fill="#191970" stroke="#191970" points="233.164,-198.151 237.7998,-188.6242 228.2348,-193.1807 233.164,-198.151"/>
</g>
<!-- Node65&#45;&gt;Node1 -->
<g id="edge89" class="edge">
<title>Node65&#45;&gt;Node1</title>
<path fill="none" stroke="#191970" d="M950.1263,-426.8601C847.5015,-422.1438 653.4201,-409.7064 491,-379 387.8831,-359.5052 359.3931,-357.7411 264,-314 216.154,-292.0609 194.0585,-292.8882 165,-249 144.2441,-217.6516 142.7538,-200.5466 155,-165 183.3476,-82.7167 232.4738,-75.723 317,-55 406.5492,-33.0455 1063.5996,-14.7324 1228.5274,-10.4475"/>
<polygon fill="#191970" stroke="#191970" points="1228.7617,-13.9427 1238.668,-10.1856 1228.581,-6.945 1228.7617,-13.9427"/>
</g>
<!-- Node65&#45;&gt;Node2 -->
<g id="edge92" class="edge">
<title>Node65&#45;&gt;Node2</title>
<path fill="none" stroke="#191970" d="M1068.6708,-415.4722C1095.0872,-406.6669 1128.2823,-394.1203 1156,-379 1223.4702,-342.1942 1293.8442,-283.6462 1326.0173,-255.5598"/>
<polygon fill="#191970" stroke="#191970" points="1328.5053,-258.0325 1333.6979,-248.7973 1323.8796,-252.7787 1328.5053,-258.0325"/>
</g>
<!-- Node65&#45;&gt;Node41 -->
<g id="edge91" class="edge">
<title>Node65&#45;&gt;Node41</title>
<path fill="none" stroke="#191970" d="M1093.869,-422.2046C1227.6226,-407.7804 1523.3024,-371.9024 1767,-314 1860.8173,-291.7091 1896.1099,-305.848 1974,-249 1992.1949,-235.7204 2006.1073,-213.5821 2014.3786,-197.8621"/>
<polygon fill="#191970" stroke="#191970" points="2017.6586,-199.1274 2018.9878,-188.6162 2011.3939,-196.0043 2017.6586,-199.1274"/>
</g>
<!-- Node65&#45;&gt;Node43 -->
<g id="edge93" class="edge">
<title>Node65&#45;&gt;Node43</title>
<path fill="none" stroke="#191970" d="M950.155,-419.2364C865.4496,-407.1357 725.4361,-387.1337 640.1622,-374.9517"/>
<polygon fill="#191970" stroke="#191970" points="640.4362,-371.4554 630.0417,-373.506 639.4462,-378.3851 640.4362,-371.4554"/>
</g>
<!-- Node65&#45;&gt;Node62 -->
<g id="edge94" class="edge">
<title>Node65&#45;&gt;Node62</title>
<path fill="none" stroke="#191970" d="M950.2585,-426.602C779.656,-419.4091 359.4538,-399.8112 299,-379 277.2041,-371.4968 276.4257,-360.6841 256,-350 226.3221,-334.4763 190.7604,-320.9843 164.3386,-311.8609"/>
<polygon fill="#191970" stroke="#191970" points="165.2854,-308.4861 154.691,-308.583 163.0335,-315.114 165.2854,-308.4861"/>
</g>
<!-- Node66 -->
<g id="node47" class="node">
<title>Node66</title>
<polygon fill="#ffffff" stroke="#bfbfbf" points="954.5,-355.5 954.5,-373.5 983.5,-373.5 983.5,-355.5 954.5,-355.5"/>
<text text-anchor="middle" x="968.6108" y="-361.5" font-family="FreeSans" font-size="10.00" fill="#000000">list</text>
</g>
<!-- Node65&#45;&gt;Node66 -->
<g id="edge90" class="edge">
<title>Node65&#45;&gt;Node66</title>
<path fill="none" stroke="#191970" d="M1010.4998,-415.396C1002.4129,-405.4781 991.5472,-392.1522 982.9626,-381.6239"/>
<polygon fill="#191970" stroke="#191970" points="985.431,-379.1127 976.399,-373.5743 980.0059,-383.5363 985.431,-379.1127"/>
</g>
<!-- Node67 -->
<g id="node48" class="node">
<title>Node67</title>
<g id="a_node48"><a xlink:href="ReverseIterator_8h_source.html" target="_top" xlink:title="DGtal/base/ReverseIterator.h">
<polygon fill="#ffffff" stroke="#ff0000" points="1612.2441,-290.5 1612.2441,-308.5 1757.7559,-308.5 1757.7559,-290.5 1612.2441,-290.5"/>
<text text-anchor="middle" x="1685" y="-296.5" font-family="FreeSans" font-size="10.00" fill="#000000">DGtal/base/ReverseIterator.h</text>
</a>
</g>
</g>
<!-- Node65&#45;&gt;Node67 -->
<g id="edge95" class="edge">
<title>Node65&#45;&gt;Node67</title>
<path fill="none" stroke="#191970" d="M1093.7531,-420.8044C1153.7559,-412.6709 1241.2815,-398.7918 1316,-379 1352.5588,-369.3161 1359.4513,-359.7219 1396,-350 1486.2429,-325.9955 1511.0227,-330.1301 1603,-314 1609.6971,-312.8255 1616.7011,-311.5932 1623.6732,-310.3639"/>
<polygon fill="#191970" stroke="#191970" points="1624.5863,-313.7569 1633.8258,-308.5721 1623.3697,-306.8635 1624.5863,-313.7569"/>
</g>
<!-- Node75 -->
<g id="node49" class="node">
<title>Node75</title>
<g id="a_node49"><a xlink:href="ArithmeticalDSS_8h_source.html" target="_top" xlink:title="DGtal/geometry/curves\l/ArithmeticalDSS.h">
<polygon fill="#ffffff" stroke="#ff0000" points="1475.8721,-285.5 1475.8721,-313.5 1594.1279,-313.5 1594.1279,-285.5 1475.8721,-285.5"/>
<text text-anchor="start" x="1483.8721" y="-301.5" font-family="FreeSans" font-size="10.00" fill="#000000">DGtal/geometry/curves</text>
<text text-anchor="middle" x="1535" y="-291.5" font-family="FreeSans" font-size="10.00" fill="#000000">/ArithmeticalDSS.h</text>
</a>
</g>
</g>
<!-- Node65&#45;&gt;Node75 -->
<g id="edge98" class="edge">
<title>Node65&#45;&gt;Node75</title>
<path fill="none" stroke="#191970" d="M1093.4215,-415.4752C1139.4753,-406.0576 1200.5341,-392.8715 1254,-379 1297.1426,-367.8069 1307.1639,-362.3142 1350,-350 1390.5078,-338.3551 1436.1938,-325.8777 1472.0302,-316.2389"/>
<polygon fill="#191970" stroke="#191970" points="1473.1138,-319.572 1481.8642,-313.5986 1471.2986,-312.8114 1473.1138,-319.572"/>
</g>
<!-- Node102 -->
<g id="node50" class="node">
<title>Node102</title>
<g id="a_node50"><a xlink:href="ArithmeticalDSSComputer_8ih_source.html" target="_top" xlink:title="DGtal/geometry/curves\l/ArithmeticalDSSComputer.ih">
<polygon fill="#ffffff" stroke="#000000" points="1001.2515,-350.5 1001.2515,-378.5 1146.7485,-378.5 1146.7485,-350.5 1001.2515,-350.5"/>
<text text-anchor="start" x="1009.2515" y="-366.5" font-family="FreeSans" font-size="10.00" fill="#000000">DGtal/geometry/curves</text>
<text text-anchor="middle" x="1074" y="-356.5" font-family="FreeSans" font-size="10.00" fill="#000000">/ArithmeticalDSSComputer.ih</text>
</a>
</g>
</g>
<!-- Node65&#45;&gt;Node102 -->
<g id="edge102" class="edge">
<title>Node65&#45;&gt;Node102</title>
<path fill="none" stroke="#191970" d="M1033.2832,-415.396C1040.0293,-406.9634 1048.7462,-396.0673 1056.3827,-386.5216"/>
<polygon fill="#191970" stroke="#191970" points="1059.2249,-388.5717 1062.7388,-378.5765 1053.7588,-384.1988 1059.2249,-388.5717"/>
</g>
<!-- Node67&#45;&gt;Node1 -->
<g id="edge96" class="edge">
<title>Node67&#45;&gt;Node1</title>
<path fill="none" stroke="#191970" d="M1758.0554,-291.9323C1817.218,-284.5726 1902.2238,-271.1881 1974,-249 2036.5459,-229.6652 2138.5308,-213.8968 2095,-165 2049.0323,-113.3659 1846.3,-162.8087 1786,-129 1749.5509,-108.5639 1764.6297,-75.1107 1728,-55 1691.1109,-34.7469 1406.8986,-17.2554 1303.4764,-11.5001"/>
<polygon fill="#191970" stroke="#191970" points="1303.372,-7.9891 1293.1945,-10.9336 1302.9868,-14.9785 1303.372,-7.9891"/>
</g>
<!-- Node67&#45;&gt;Node2 -->
<g id="edge97" class="edge">
<title>Node67&#45;&gt;Node2</title>
<path fill="none" stroke="#191970" d="M1633.8234,-290.4414C1623.6132,-288.6367 1612.9663,-286.7566 1603,-285 1535.5587,-273.1133 1458.2296,-259.5352 1405.7541,-250.3287"/>
<polygon fill="#191970" stroke="#191970" points="1406.055,-246.8281 1395.6006,-248.5475 1404.8454,-253.7228 1406.055,-246.8281"/>
</g>
<!-- Node75&#45;&gt;Node1 -->
<g id="edge99" class="edge">
<title>Node75&#45;&gt;Node1</title>
<path fill="none" stroke="#191970" d="M1592.1169,-285.4757C1683.513,-262.4696 1854.1298,-216.9793 1871,-194 1878.6275,-183.6104 1878.88,-175.1994 1871,-165 1832.2469,-114.8405 1788.7875,-159.092 1733,-129 1689.7942,-105.6946 1695.7051,-75.2812 1651,-55 1589.5025,-27.1007 1387.8591,-14.9829 1303.5646,-11.0479"/>
<polygon fill="#191970" stroke="#191970" points="1303.5614,-7.5442 1293.413,-10.5873 1303.244,-14.537 1303.5614,-7.5442"/>
</g>
<!-- Node75&#45;&gt;Node2 -->
<g id="edge100" class="edge">
<title>Node75&#45;&gt;Node2</title>
<path fill="none" stroke="#191970" d="M1490.219,-285.4327C1457.4856,-275.1499 1413.5529,-261.3491 1382.4132,-251.567"/>
<polygon fill="#191970" stroke="#191970" points="1383.3721,-248.1996 1372.7828,-248.5417 1381.2742,-254.8779 1383.3721,-248.1996"/>
</g>
<!-- Node75&#45;&gt;Node41 -->
<g id="edge101" class="edge">
<title>Node75&#45;&gt;Node41</title>
<path fill="none" stroke="#191970" d="M1594.2693,-286.4768C1597.2163,-285.9502 1600.1387,-285.4539 1603,-285 1754.3886,-260.9834 1806.0033,-311.4198 1946,-249 1972.3312,-237.2598 1995.8425,-213.0232 2009.7631,-196.5112"/>
<polygon fill="#191970" stroke="#191970" points="2012.5332,-198.6524 2016.1327,-188.6878 2007.1048,-194.2328 2012.5332,-198.6524"/>
</g>
</g>
</svg>
