<?xml version="1.0" encoding="UTF-8" standalone="no"?>
<!DOCTYPE svg PUBLIC "-//W3C//DTD SVG 1.1//EN"
 "http://www.w3.org/Graphics/SVG/1.1/DTD/svg11.dtd">
<!-- Generated by graphviz version 2.36.0 (20140111.2315)
 -->
<!-- Title: DGtal::LabelledMap&lt; TData, L, TWord, N, M &gt;::DataOrBlockPointer Pages: 1 -->
<svg width="179pt" height="140pt"
 viewBox="0.00 0.00 179.00 140.00" xmlns="http://www.w3.org/2000/svg" xmlns:xlink="http://www.w3.org/1999/xlink">
<g id="graph0" class="graph" transform="scale(1 1) rotate(0) translate(4 136)">
<title>DGtal::LabelledMap&lt; TData, L, TWord, N, M &gt;::DataOrBlockPointer</title>
<polygon fill="white" stroke="none" points="-4,4 -4,-136 175,-136 175,4 -4,4"/>
<!-- Node1 -->
<g id="node1" class="node"><title>Node1</title>
<polygon fill="#bfbfbf" stroke="black" points="-0.5,-0.5 -0.5,-41.5 138.5,-41.5 138.5,-0.5 -0.5,-0.5"/>
<text text-anchor="start" x="7.5" y="-29.5" font-family="FreeSans" font-size="10.00">DGtal::LabelledMap</text>
<text text-anchor="start" x="7.5" y="-18.5" font-family="FreeSans" font-size="10.00">&lt; TData, L, TWord, N,</text>
<text text-anchor="middle" x="69" y="-7.5" font-family="FreeSans" font-size="10.00"> M &gt;::DataOrBlockPointer</text>
</g>
<!-- Node2 -->
<g id="node2" class="node"><title>Node2</title>
<g id="a_node2"><a xlink:href="structDGtal_1_1LabelledMap_1_1____AnyBlock.html" target="_top" xlink:title="DGtal::LabelledMap\l\&lt; TData, L, TWord, N,\l M \&gt;::__AnyBlock">
<polygon fill="white" stroke="black" points="9.5,-90.5 9.5,-131.5 128.5,-131.5 128.5,-90.5 9.5,-90.5"/>
<text text-anchor="start" x="17.5" y="-119.5" font-family="FreeSans" font-size="10.00">DGtal::LabelledMap</text>
<text text-anchor="start" x="17.5" y="-108.5" font-family="FreeSans" font-size="10.00">&lt; TData, L, TWord, N,</text>
<text text-anchor="middle" x="69" y="-97.5" font-family="FreeSans" font-size="10.00"> M &gt;::__AnyBlock</text>
</a>
</g>
</g>
<!-- Node2&#45;&gt;Node1 -->
<g id="edge1" class="edge"><title>Node2&#45;&gt;Node1</title>
<path fill="none" stroke="#9a32cd" stroke-dasharray="5,2" d="M69,-80.3298C69,-67.6289 69,-53.1399 69,-41.7798"/>
<polygon fill="#9a32cd" stroke="#9a32cd" points="65.5001,-80.4699 69,-90.4699 72.5001,-80.47 65.5001,-80.4699"/>
<text text-anchor="middle" x="94" y="-63.5" font-family="FreeSans" font-size="10.00"> nextBlock</text>
</g>
<!-- Node2&#45;&gt;Node2 -->
<g id="edge2" class="edge"><title>Node2&#45;&gt;Node2</title>
<path fill="none" stroke="#9a32cd" stroke-dasharray="5,2" d="M138.677,-116.879C143.239,-115.511 146,-113.551 146,-111 146,-106.918 138.931,-104.351 128.728,-103.298"/>
<polygon fill="#9a32cd" stroke="#9a32cd" points="137.933,-113.457 128.728,-118.702 139.195,-120.342 137.933,-113.457"/>
<text text-anchor="middle" x="158.5" y="-108.5" font-family="FreeSans" font-size="10.00"> next</text>
</g>
</g>
</svg>
