<?xml version="1.0" encoding="UTF-8" standalone="no"?>
<!DOCTYPE svg PUBLIC "-//W3C//DTD SVG 1.1//EN"
 "http://www.w3.org/Graphics/SVG/1.1/DTD/svg11.dtd">
<!-- Generated by graphviz version 2.40.1 (20161225.0304)
 -->
<!-- Title: DGtal::Mesh&lt; TPoint &gt; Pages: 1 -->
<!--zoomable 342 -->
<svg id="main" version="1.1" xmlns="http://www.w3.org/2000/svg" xmlns:xlink="http://www.w3.org/1999/xlink" xml:space="preserve" onload="init(evt)">
<style type="text/css"><![CDATA[
.edge:hover path { stroke: red; }
.edge:hover polygon { stroke: red; fill: red; }
]]></style>
<script type="text/javascript"><![CDATA[
var edges = document.getElementsByTagName('g');
if (edges && edges.length) {
  for (var i=0;i<edges.length;i++) {
    if (edges[i].id.substr(0,4)=='edge') {
      edges[i].setAttribute('class','edge');
    }
  }
}
]]></script>
        <defs>
                <circle id="rim" cx="0" cy="0" r="7"/>
                <circle id="rim2" cx="0" cy="0" r="3.5"/>
                <g id="zoomPlus">
                        <use xlink:href="#rim" fill="#404040">
                                <set attributeName="fill" to="#808080" begin="zoomplus.mouseover" end="zoomplus.mouseout"/>
                        </use>
                        <path d="M-4,0h8M0,-4v8" fill="none" stroke="white" stroke-width="1.5" pointer-events="none"/>
                </g>
                <g id="zoomMin">
                        <use xlink:href="#rim" fill="#404040">
                                <set attributeName="fill" to="#808080" begin="zoomminus.mouseover" end="zoomminus.mouseout"/>
                        </use>
                        <path d="M-4,0h8" fill="none" stroke="white" stroke-width="1.5" pointer-events="none"/>
                </g>
                <g id="dirArrow">
                        <path fill="none" stroke="white" stroke-width="1.5" d="M0,-3.0v7 M-2.5,-0.5L0,-3.0L2.5,-0.5"/>
                </g>
               <g id="resetDef">
                       <use xlink:href="#rim2" fill="#404040">
                               <set attributeName="fill" to="#808080" begin="reset.mouseover" end="reset.mouseout"/>
                       </use>
               </g>
        </defs>

<script type="text/javascript">
var viewWidth = 859;
var viewHeight = 342;
var sectionId = 'dynsection-0';
</script>
<script xlink:href="svgpan.js"/>
<svg id="graph" class="graph">
<g id="viewport">
<title>DGtal::Mesh&lt; TPoint &gt;</title>
<polygon fill="#ffffff" stroke="transparent" points="-4,4 -4,-338 855.4922,-338 855.4922,4 -4,4"/>
<!-- Node1 -->
<g id="node1" class="node">
<title>Node1</title>
<g id="a_node1"><a xlink:title="Aim: This class is defined to represent a surface mesh through a set of vertices and faces....">
<polygon fill="#bfbfbf" stroke="#000000" points="733.959,-119.5 733.959,-137.5 851.4922,-137.5 851.4922,-119.5 733.959,-119.5"/>
<text text-anchor="middle" x="792.7256" y="-125.5" font-family="FreeSans" font-size="10.00" fill="#000000">DGtal::Mesh&lt; TPoint &gt;</text>
</a>
</g>
</g>
<!-- Node2 -->
<g id="node2" class="node">
<title>Node2</title>
<g id="a_node2"><a xlink:title=" ">
<polygon fill="#ffffff" stroke="#bfbfbf" points="508.9829,-134.5 508.9829,-162.5 605.2905,-162.5 605.2905,-134.5 508.9829,-134.5"/>
<text text-anchor="start" x="516.9829" y="-150.5" font-family="FreeSans" font-size="10.00" fill="#000000">std::vector&lt; DGtal</text>
<text text-anchor="middle" x="557.1367" y="-140.5" font-family="FreeSans" font-size="10.00" fill="#000000">::Color &gt;</text>
</a>
</g>
</g>
<!-- Node2&#45;&gt;Node1 -->
<g id="edge1" class="edge">
<title>Node2&#45;&gt;Node1</title>
<path fill="none" stroke="#9a32cd" stroke-dasharray="5,2" d="M615.7237,-143.5263C651.6993,-140.4722 697.6319,-136.5729 733.6898,-133.5118"/>
<polygon fill="#9a32cd" stroke="#9a32cd" points="615.0482,-140.071 605.3801,-144.4044 615.6404,-147.0459 615.0482,-140.071"/>
<text text-anchor="middle" x="677.0601" y="-142.5" font-family="FreeSans" font-size="10.00" fill="#000000"> myFaceColorList</text>
</g>
<!-- Node3 -->
<g id="node3" class="node">
<title>Node3</title>
<g id="a_node3"><a xlink:href="classDGtal_1_1Color.html" target="_top" xlink:title="Structure representing an RGB triple with alpha component.">
<polygon fill="#ffffff" stroke="#000000" points="323.582,-187.5 323.582,-205.5 394.5967,-205.5 394.5967,-187.5 323.582,-187.5"/>
<text text-anchor="middle" x="359.0894" y="-193.5" font-family="FreeSans" font-size="10.00" fill="#000000">DGtal::Color</text>
</a>
</g>
</g>
<!-- Node3&#45;&gt;Node1 -->
<g id="edge13" class="edge">
<title>Node3&#45;&gt;Node1</title>
<path fill="none" stroke="#9a32cd" stroke-dasharray="5,2" d="M404.9528,-195.479C426.5695,-194.7577 452.6966,-193.5405 476.1123,-191.5 583.5646,-182.1365 611.6186,-181.8267 715.959,-154.5 733.927,-149.7942 753.7753,-143.0287 768.7878,-137.5786"/>
<polygon fill="#9a32cd" stroke="#9a32cd" points="404.6221,-191.9875 394.735,-195.7948 404.8384,-198.9842 404.6221,-191.9875"/>
<text text-anchor="middle" x="557.1367" y="-191.5" font-family="FreeSans" font-size="10.00" fill="#000000"> myDefaultColor</text>
</g>
<!-- Node3&#45;&gt;Node2 -->
<g id="edge2" class="edge">
<title>Node3&#45;&gt;Node2</title>
<path fill="none" stroke="#9a32cd" stroke-dasharray="5,2" d="M404.6981,-185.446C435.8768,-177.8893 477.1377,-167.8891 508.869,-160.1985"/>
<polygon fill="#9a32cd" stroke="#9a32cd" points="403.8484,-182.0505 394.9542,-187.8076 405.4973,-188.8535 403.8484,-182.0505"/>
<text text-anchor="middle" x="454.4351" y="-179.5" font-family="FreeSans" font-size="10.00" fill="#000000"> elements</text>
</g>
<!-- Node3&#45;&gt;Node3 -->
<g id="edge3" class="edge">
<title>Node3&#45;&gt;Node3</title>
<path fill="none" stroke="#9a32cd" stroke-dasharray="5,2" d="M341.6129,-215.2336C342.5925,-220.2195 348.418,-224 359.0894,-224 376.1636,-224 380.8323,-214.322 373.0956,-205.5134"/>
<polygon fill="#9a32cd" stroke="#9a32cd" points="345.017,-216.1081 345.0832,-205.5134 338.4245,-213.7544 345.017,-216.1081"/>
<text text-anchor="middle" x="359.0894" y="-326" font-family="FreeSans" font-size="10.00" fill="#000000"> Yellow</text>
<text text-anchor="middle" x="359.0894" y="-316" font-family="FreeSans" font-size="10.00" fill="#000000">Lime</text>
<text text-anchor="middle" x="359.0894" y="-306" font-family="FreeSans" font-size="10.00" fill="#000000">Navy</text>
<text text-anchor="middle" x="359.0894" y="-296" font-family="FreeSans" font-size="10.00" fill="#000000">Magenta</text>
<text text-anchor="middle" x="359.0894" y="-286" font-family="FreeSans" font-size="10.00" fill="#000000">White</text>
<text text-anchor="middle" x="359.0894" y="-276" font-family="FreeSans" font-size="10.00" fill="#000000">None</text>
<text text-anchor="middle" x="359.0894" y="-266" font-family="FreeSans" font-size="10.00" fill="#000000">Blue</text>
<text text-anchor="middle" x="359.0894" y="-256" font-family="FreeSans" font-size="10.00" fill="#000000">Aqua</text>
<text text-anchor="middle" x="359.0894" y="-246" font-family="FreeSans" font-size="10.00" fill="#000000">Purple</text>
<text text-anchor="middle" x="359.0894" y="-236" font-family="FreeSans" font-size="10.00" fill="#000000">Silver</text>
<text text-anchor="middle" x="359.0894" y="-226" font-family="FreeSans" font-size="10.00" fill="#000000">...</text>
</g>
<!-- Node4 -->
<g id="node4" class="node">
<title>Node4</title>
<g id="a_node4"><a xlink:title="STL class.">
<polygon fill="#ffffff" stroke="#bfbfbf" points="108.3545,-80.5 108.3545,-98.5 193.4756,-98.5 193.4756,-80.5 108.3545,-80.5"/>
<text text-anchor="middle" x="150.915" y="-86.5" font-family="FreeSans" font-size="10.00" fill="#000000">std::vector&lt; T &gt;</text>
</a>
</g>
</g>
<!-- Node4&#45;&gt;Node2 -->
<g id="edge4" class="edge">
<title>Node4&#45;&gt;Node2</title>
<path fill="none" stroke="#ffa500" stroke-dasharray="5,2" d="M187.4488,-101.4516C195.3114,-103.7156 203.6203,-105.8791 211.4756,-107.5 316.3801,-129.146 441.7243,-140.4725 508.9134,-145.3927"/>
<polygon fill="#ffa500" stroke="#ffa500" points="188.3798,-98.0769 177.7962,-98.5635 186.3733,-104.7832 188.3798,-98.0769"/>
<text text-anchor="middle" x="359.0894" y="-138.5" font-family="FreeSans" font-size="10.00" fill="#000000"> &lt; DGtal::Color &gt;</text>
</g>
<!-- Node6 -->
<g id="node6" class="node">
<title>Node6</title>
<g id="a_node6"><a xlink:title=" ">
<polygon fill="#ffffff" stroke="#bfbfbf" points="305.0444,-.5 305.0444,-18.5 413.1343,-18.5 413.1343,-.5 305.0444,-.5"/>
<text text-anchor="middle" x="359.0894" y="-6.5" font-family="FreeSans" font-size="10.00" fill="#000000">std::vector&lt; TPoint &gt;</text>
</a>
</g>
</g>
<!-- Node4&#45;&gt;Node6 -->
<g id="edge8" class="edge">
<title>Node4&#45;&gt;Node6</title>
<path fill="none" stroke="#ffa500" stroke-dasharray="5,2" d="M172.1558,-74.6039C183.4415,-67.1925 197.7803,-58.5495 211.4756,-52.5 245.903,-37.2927 287.1866,-25.7927 317.3299,-18.5295"/>
<polygon fill="#ffa500" stroke="#ffa500" points="170.1696,-71.7217 163.83,-80.2105 174.0797,-77.5279 170.1696,-71.7217"/>
<text text-anchor="middle" x="248.4482" y="-54.5" font-family="FreeSans" font-size="10.00" fill="#000000"> &lt; TPoint &gt;</text>
</g>
<!-- Node8 -->
<g id="node8" class="node">
<title>Node8</title>
<g id="a_node8"><a xlink:title=" ">
<polygon fill="#ffffff" stroke="#bfbfbf" points="494.1123,-93.5 494.1123,-111.5 620.1611,-111.5 620.1611,-93.5 494.1123,-93.5"/>
<text text-anchor="middle" x="557.1367" y="-99.5" font-family="FreeSans" font-size="10.00" fill="#000000">std::vector&lt; MeshFace &gt;</text>
</a>
</g>
</g>
<!-- Node4&#45;&gt;Node8 -->
<g id="edge12" class="edge">
<title>Node4&#45;&gt;Node8</title>
<path fill="none" stroke="#ffa500" stroke-dasharray="5,2" d="M203.7144,-91.1897C278.2207,-93.5741 414.0076,-97.9196 493.8319,-100.4741"/>
<polygon fill="#ffa500" stroke="#ffa500" points="203.727,-87.6884 193.6201,-90.8667 203.503,-94.6848 203.727,-87.6884"/>
<text text-anchor="middle" x="359.0894" y="-99.5" font-family="FreeSans" font-size="10.00" fill="#000000"> &lt; MeshFace &gt;</text>
</g>
<!-- Node9 -->
<g id="node9" class="node">
<title>Node9</title>
<g id="a_node9"><a xlink:title=" ">
<polygon fill="#ffffff" stroke="#bfbfbf" points="303.4209,-37.5 303.4209,-65.5 414.7578,-65.5 414.7578,-37.5 303.4209,-37.5"/>
<text text-anchor="start" x="311.4209" y="-53.5" font-family="FreeSans" font-size="10.00" fill="#000000">std::vector&lt; unsigned</text>
<text text-anchor="middle" x="359.0894" y="-43.5" font-family="FreeSans" font-size="10.00" fill="#000000"> int &gt;</text>
</a>
</g>
</g>
<!-- Node4&#45;&gt;Node9 -->
<g id="edge11" class="edge">
<title>Node4&#45;&gt;Node9</title>
<path fill="none" stroke="#ffa500" stroke-dasharray="5,2" d="M203.5289,-79.8959C233.9184,-74.3486 272.1311,-67.3733 303.0778,-61.7243"/>
<polygon fill="#ffa500" stroke="#ffa500" points="202.7535,-76.4795 193.5446,-81.7184 204.0105,-83.3657 202.7535,-76.4795"/>
<text text-anchor="middle" x="248.4482" y="-80.5" font-family="FreeSans" font-size="10.00" fill="#000000"> &lt; unsigned int &gt;</text>
</g>
<!-- Node5 -->
<g id="node5" class="node">
<title>Node5</title>
<g id="a_node5"><a xlink:title=" ">
<polygon fill="#ffffff" stroke="#bfbfbf" points="0,-80.5 0,-98.5 29,-98.5 29,-80.5 0,-80.5"/>
<text text-anchor="middle" x="14.5" y="-86.5" font-family="FreeSans" font-size="10.00" fill="#000000">T</text>
</a>
</g>
</g>
<!-- Node5&#45;&gt;Node4 -->
<g id="edge5" class="edge">
<title>Node5&#45;&gt;Node4</title>
<path fill="none" stroke="#9a32cd" stroke-dasharray="5,2" d="M39.1536,-89.5C58.3955,-89.5 85.5871,-89.5 108.3311,-89.5"/>
<polygon fill="#9a32cd" stroke="#9a32cd" points="39.0988,-86.0001 29.0988,-89.5 39.0988,-93.0001 39.0988,-86.0001"/>
<text text-anchor="middle" x="68.6772" y="-91.5" font-family="FreeSans" font-size="10.00" fill="#000000"> elements</text>
</g>
<!-- Node6&#45;&gt;Node1 -->
<g id="edge6" class="edge">
<title>Node6&#45;&gt;Node1</title>
<path fill="none" stroke="#9a32cd" stroke-dasharray="5,2" d="M409.3494,-20.7493C462.115,-32.8093 547.3654,-53.0022 620.1611,-73.5 672.3717,-88.2014 732.5723,-108.0628 766.2892,-119.4552"/>
<polygon fill="#9a32cd" stroke="#9a32cd" points="410.0917,-17.3289 399.5642,-18.521 408.5374,-24.1541 410.0917,-17.3289"/>
<text text-anchor="middle" x="557.1367" y="-75.5" font-family="FreeSans" font-size="10.00" fill="#000000"> myVertexList</text>
</g>
<!-- Node7 -->
<g id="node7" class="node">
<title>Node7</title>
<g id="a_node7"><a xlink:title=" ">
<polygon fill="#ffffff" stroke="#bfbfbf" points="128.4644,-.5 128.4644,-18.5 173.3657,-18.5 173.3657,-.5 128.4644,-.5"/>
<text text-anchor="middle" x="150.915" y="-6.5" font-family="FreeSans" font-size="10.00" fill="#000000">TPoint</text>
</a>
</g>
</g>
<!-- Node7&#45;&gt;Node6 -->
<g id="edge7" class="edge">
<title>Node7&#45;&gt;Node6</title>
<path fill="none" stroke="#9a32cd" stroke-dasharray="5,2" d="M183.8908,-9.5C216.3962,-9.5 266.6298,-9.5 304.9872,-9.5"/>
<polygon fill="#9a32cd" stroke="#9a32cd" points="183.5897,-6.0001 173.5896,-9.5 183.5896,-13.0001 183.5897,-6.0001"/>
<text text-anchor="middle" x="248.4482" y="-11.5" font-family="FreeSans" font-size="10.00" fill="#000000"> elements</text>
</g>
<!-- Node8&#45;&gt;Node1 -->
<g id="edge9" class="edge">
<title>Node8&#45;&gt;Node1</title>
<path fill="none" stroke="#9a32cd" stroke-dasharray="5,2" d="M630.4061,-110.5861C663.6878,-114.2592 702.5301,-118.5459 733.8724,-122.0049"/>
<polygon fill="#9a32cd" stroke="#9a32cd" points="630.5938,-107.0857 620.2702,-109.4675 629.8259,-114.0434 630.5938,-107.0857"/>
<text text-anchor="middle" x="677.0601" y="-120.5" font-family="FreeSans" font-size="10.00" fill="#000000"> myFaceList</text>
</g>
<!-- Node9&#45;&gt;Node8 -->
<g id="edge10" class="edge">
<title>Node9&#45;&gt;Node8</title>
<path fill="none" stroke="#9a32cd" stroke-dasharray="5,2" d="M425.1329,-65.9938C441.8178,-69.8595 459.6649,-74.171 476.1123,-78.5 493.4213,-83.0557 512.6342,-88.72 528.0054,-93.4015"/>
<polygon fill="#9a32cd" stroke="#9a32cd" points="425.4469,-62.4749 414.9173,-63.6484 423.8804,-69.2974 425.4469,-62.4749"/>
<text text-anchor="middle" x="454.4351" y="-80.5" font-family="FreeSans" font-size="10.00" fill="#000000"> elements</text>
</g>
</g>
</svg>
        <g id="navigator" transform="translate(0 0)" fill="#404254">
                <rect fill="#f2f5e9" fill-opacity="0.5" stroke="#606060" stroke-width=".5" x="0" y="0" width="60" height="60"/>
                <use id="zoomplus" xlink:href="#zoomPlus" x="17" y="9" onmousedown="handleZoom(evt,'in')"/>
                <use id="zoomminus" xlink:href="#zoomMin" x="42" y="9" onmousedown="handleZoom(evt,'out')"/>
                <use id="reset" xlink:href="#resetDef" x="30" y="36" onmousedown="handleReset()"/>
                <g id="arrowUp" xlink:href="#dirArrow" transform="translate(30 24)" onmousedown="handlePan(0,-1)">
                  <use xlink:href="#rim" fill="#404040">
                        <set attributeName="fill" to="#808080" begin="arrowUp.mouseover" end="arrowUp.mouseout"/>
                  </use>
                  <path fill="none" stroke="white" stroke-width="1.5" d="M0,-3.0v7 M-2.5,-0.5L0,-3.0L2.5,-0.5"/>
                </g>
                <g id="arrowRight" xlink:href="#dirArrow" transform="rotate(90) translate(36 -43)" onmousedown="handlePan(1,0)">
                  <use xlink:href="#rim" fill="#404040">
                        <set attributeName="fill" to="#808080" begin="arrowRight.mouseover" end="arrowRight.mouseout"/>
                  </use>
                  <path fill="none" stroke="white" stroke-width="1.5" d="M0,-3.0v7 M-2.5,-0.5L0,-3.0L2.5,-0.5"/>
                </g>
                <g id="arrowDown" xlink:href="#dirArrow" transform="rotate(180) translate(-30 -48)" onmousedown="handlePan(0,1)">
                  <use xlink:href="#rim" fill="#404040">
                        <set attributeName="fill" to="#808080" begin="arrowDown.mouseover" end="arrowDown.mouseout"/>
                  </use>
                  <path fill="none" stroke="white" stroke-width="1.5" d="M0,-3.0v7 M-2.5,-0.5L0,-3.0L2.5,-0.5"/>
                </g>
                <g id="arrowLeft" xlink:href="#dirArrow" transform="rotate(270) translate(-36 17)" onmousedown="handlePan(-1,0)">
                  <use xlink:href="#rim" fill="#404040">
                        <set attributeName="fill" to="#808080" begin="arrowLeft.mouseover" end="arrowLeft.mouseout"/>
                  </use>
                  <path fill="none" stroke="white" stroke-width="1.5" d="M0,-3.0v7 M-2.5,-0.5L0,-3.0L2.5,-0.5"/>
                </g>
        </g>
        <svg viewBox="0 0 15 15" width="100%" height="30px" preserveAspectRatio="xMaxYMin meet">
         <g id="arrow_out" transform="scale(0.3 0.3)">
          <a xlink:href="classDGtal_1_1Mesh__coll__graph_org.svg" target="_base">
           <rect id="button" ry="5" rx="5" y="6" x="6" height="38" width="38"
                fill="#f2f5e9" fill-opacity="0.5" stroke="#606060" stroke-width="1.0"/>
           <path id="arrow"
             d="M 11.500037,31.436501 C 11.940474,20.09759 22.043105,11.32322 32.158766,21.979434 L 37.068811,17.246167 C 37.068811,17.246167 37.088388,32 37.088388,32 L 22.160133,31.978069 C 22.160133,31.978069 26.997745,27.140456 26.997745,27.140456 C 18.528582,18.264221 13.291696,25.230495 11.500037,31.436501 z"
             style="fill:#404040;"/>
          </a>
         </g>
        </svg>
</svg>
