<?xml version="1.0" encoding="UTF-8" standalone="no"?>
<!DOCTYPE svg PUBLIC "-//W3C//DTD SVG 1.1//EN"
 "http://www.w3.org/Graphics/SVG/1.1/DTD/svg11.dtd">
<!-- Generated by graphviz version 2.40.1 (20161225.0304)
 -->
<!-- Title: DGtal::VoronoiCovarianceMeasure&lt; TSpace, TSeparableMetric &gt; Pages: 1 -->
<svg width="2021pt" height="708pt"
 viewBox="0.00 0.00 2020.75 707.80" xmlns="http://www.w3.org/2000/svg" xmlns:xlink="http://www.w3.org/1999/xlink">
<g id="graph0" class="graph" transform="scale(1 1) rotate(0) translate(4 703.8041)">
<title>DGtal::VoronoiCovarianceMeasure&lt; TSpace, TSeparableMetric &gt;</title>
<polygon fill="#ffffff" stroke="transparent" points="-4,4 -4,-703.8041 2016.7539,-703.8041 2016.7539,4 -4,4"/>
<!-- Node2 -->
<g id="node1" class="node">
<title>Node2</title>
<g id="a_node1"><a xlink:title="Aim: This class precomputes the Voronoi Covariance Measure of a set of points. It can compute the cov...">
<polygon fill="#bfbfbf" stroke="#000000" points="1822.0225,-224.3041 1822.0225,-252.3041 2012.7539,-252.3041 2012.7539,-224.3041 1822.0225,-224.3041"/>
<text text-anchor="start" x="1830.0225" y="-240.3041" font-family="FreeSans" font-size="10.00" fill="#000000">DGtal::VoronoiCovariance</text>
<text text-anchor="middle" x="1917.3882" y="-230.3041" font-family="FreeSans" font-size="10.00" fill="#000000">Measure&lt; TSpace, TSeparableMetric &gt;</text>
</a>
</g>
</g>
<!-- Node3 -->
<g id="node2" class="node">
<title>Node3</title>
<g id="a_node2"><a xlink:href="classDGtal_1_1VoronoiMap.html" target="_top" xlink:title="Aim: Implementation of the linear in time Voronoi map construction.">
<polygon fill="#ffffff" stroke="#000000" points="1248.4668,-405.3041 1248.4668,-443.3041 1437.25,-443.3041 1437.25,-405.3041 1248.4668,-405.3041"/>
<text text-anchor="start" x="1256.4668" y="-431.3041" font-family="FreeSans" font-size="10.00" fill="#000000">DGtal::VoronoiMap&lt;</text>
<text text-anchor="start" x="1256.4668" y="-421.3041" font-family="FreeSans" font-size="10.00" fill="#000000"> TSpace, TPointPredicate,</text>
<text text-anchor="middle" x="1342.8584" y="-411.3041" font-family="FreeSans" font-size="10.00" fill="#000000"> TSeparableMetric, TImageContainer &gt;</text>
</a>
</g>
</g>
<!-- Node3&#45;&gt;Node2 -->
<g id="edge1" class="edge">
<title>Node3&#45;&gt;Node2</title>
<path fill="none" stroke="#9a32cd" stroke-dasharray="5,2" d="M1413.8039,-402.1649C1443.0157,-392.9985 1477.1805,-382.213 1508.043,-372.3041 1642.2514,-329.2146 1800.7554,-276.9292 1875.0109,-252.3524"/>
<polygon fill="#9a32cd" stroke="#9a32cd" points="1412.5939,-398.8762 1404.0991,-405.2078 1414.6882,-405.5556 1412.5939,-398.8762"/>
<text text-anchor="middle" x="1607.1362" y="-368.3041" font-family="FreeSans" font-size="10.00" fill="#000000"> myVoronoi</text>
</g>
<!-- Node4 -->
<g id="node3" class="node">
<title>Node4</title>
<g id="a_node3"><a xlink:href="classDGtal_1_1CountedPtr.html" target="_top" xlink:title=" ">
<polygon fill="#ffffff" stroke="#000000" points="971.0225,-638.3041 971.0225,-666.3041 1074.5664,-666.3041 1074.5664,-638.3041 971.0225,-638.3041"/>
<text text-anchor="start" x="979.0225" y="-654.3041" font-family="FreeSans" font-size="10.00" fill="#000000">DGtal::CountedPtr&lt;</text>
<text text-anchor="middle" x="1022.7944" y="-644.3041" font-family="FreeSans" font-size="10.00" fill="#000000"> OutputImage &gt;</text>
</a>
</g>
</g>
<!-- Node4&#45;&gt;Node3 -->
<g id="edge2" class="edge">
<title>Node4&#45;&gt;Node3</title>
<path fill="none" stroke="#9a32cd" stroke-dasharray="5,2" d="M1084.603,-646.9626C1128.759,-640.5416 1187.682,-626.4077 1230.4668,-595.3041 1285.638,-555.1958 1321.2727,-479.0625 1335.6418,-443.5026"/>
<polygon fill="#9a32cd" stroke="#9a32cd" points="1084.0051,-643.5116 1074.5678,-648.3271 1084.9482,-650.4478 1084.0051,-643.5116"/>
<text text-anchor="middle" x="1179.605" y="-640.3041" font-family="FreeSans" font-size="10.00" fill="#000000"> myImagePtr</text>
</g>
<!-- Node5 -->
<g id="node4" class="node">
<title>Node5</title>
<g id="a_node4"><a xlink:href="structDGtal_1_1CountedPtr_1_1Counter.html" target="_top" xlink:title=" ">
<polygon fill="#ffffff" stroke="#000000" points="421.6245,-671.3041 421.6245,-699.3041 525.1685,-699.3041 525.1685,-671.3041 421.6245,-671.3041"/>
<text text-anchor="start" x="429.6245" y="-687.3041" font-family="FreeSans" font-size="10.00" fill="#000000">DGtal::CountedPtr&lt;</text>
<text text-anchor="middle" x="473.3965" y="-677.3041" font-family="FreeSans" font-size="10.00" fill="#000000"> T &gt;::Counter</text>
</a>
</g>
</g>
<!-- Node5&#45;&gt;Node4 -->
<g id="edge3" class="edge">
<title>Node5&#45;&gt;Node4</title>
<path fill="none" stroke="#9a32cd" stroke-dasharray="5,2" d="M535.46,-685.6928C563.7183,-685.6665 597.5892,-685.3516 628.0635,-684.3041 756.5843,-679.8867 788.8512,-678.7347 916.8457,-666.3041 934.4816,-664.5914 953.7037,-662.2082 970.8743,-659.8932"/>
<polygon fill="#9a32cd" stroke="#9a32cd" points="535.3206,-682.1928 525.3197,-685.6902 535.3188,-689.1928 535.3206,-682.1928"/>
<text text-anchor="middle" x="710.4697" y="-685.3041" font-family="FreeSans" font-size="10.00" fill="#000000"> myCounter</text>
</g>
<!-- Node6 -->
<g id="node5" class="node">
<title>Node6</title>
<g id="a_node5"><a xlink:href="classDGtal_1_1CountedPtr.html" target="_top" xlink:title="Aim: Smart pointer based on reference counts.">
<polygon fill="#ffffff" stroke="#000000" points="650.1211,-643.3041 650.1211,-661.3041 770.8184,-661.3041 770.8184,-643.3041 650.1211,-643.3041"/>
<text text-anchor="middle" x="710.4697" y="-649.3041" font-family="FreeSans" font-size="10.00" fill="#000000">DGtal::CountedPtr&lt; T &gt;</text>
</a>
</g>
</g>
<!-- Node5&#45;&gt;Node6 -->
<g id="edge5" class="edge">
<title>Node5&#45;&gt;Node6</title>
<path fill="none" stroke="#9a32cd" stroke-dasharray="5,2" d="M535.5927,-676.6466C570.8453,-671.7395 614.7611,-665.6265 649.765,-660.7541"/>
<polygon fill="#9a32cd" stroke="#9a32cd" points="534.8452,-673.2168 525.4232,-678.0622 535.8103,-680.15 534.8452,-673.2168"/>
<text text-anchor="middle" x="591.9331" y="-675.3041" font-family="FreeSans" font-size="10.00" fill="#000000"> myCounter</text>
</g>
<!-- Node6&#45;&gt;Node4 -->
<g id="edge4" class="edge">
<title>Node6&#45;&gt;Node4</title>
<path fill="none" stroke="#ffa500" stroke-dasharray="5,2" d="M781.1963,-652.3041C838.8835,-652.3041 919.042,-652.3041 970.9195,-652.3041"/>
<polygon fill="#ffa500" stroke="#ffa500" points="781.0594,-648.8042 771.0594,-652.3041 781.0594,-655.8042 781.0594,-648.8042"/>
<text text-anchor="middle" x="854.8608" y="-654.3041" font-family="FreeSans" font-size="10.00" fill="#000000"> &lt; OutputImage &gt;</text>
</g>
<!-- Node7 -->
<g id="node6" class="node">
<title>Node7</title>
<g id="a_node6"><a xlink:title=" ">
<polygon fill="#ffffff" stroke="#bfbfbf" points="959.4917,-387.3041 959.4917,-405.3041 1086.0972,-405.3041 1086.0972,-387.3041 959.4917,-387.3041"/>
<text text-anchor="middle" x="1022.7944" y="-393.3041" font-family="FreeSans" font-size="10.00" fill="#000000">std::vector&lt; Dimension &gt;</text>
</a>
</g>
</g>
<!-- Node7&#45;&gt;Node3 -->
<g id="edge6" class="edge">
<title>Node7&#45;&gt;Node3</title>
<path fill="none" stroke="#9a32cd" stroke-dasharray="5,2" d="M1096.4238,-402.7454C1141.5876,-406.6965 1199.8639,-411.7946 1248.4063,-416.0412"/>
<polygon fill="#9a32cd" stroke="#9a32cd" points="1096.6785,-399.2544 1086.4114,-401.8695 1096.0683,-406.2278 1096.6785,-399.2544"/>
<text text-anchor="middle" x="1179.605" y="-416.3041" font-family="FreeSans" font-size="10.00" fill="#000000"> myPeriodicityIndex</text>
</g>
<!-- Node8 -->
<g id="node7" class="node">
<title>Node8</title>
<g id="a_node7"><a xlink:title="STL class.">
<polygon fill="#ffffff" stroke="#bfbfbf" points="667.9092,-338.3041 667.9092,-356.3041 753.0303,-356.3041 753.0303,-338.3041 667.9092,-338.3041"/>
<text text-anchor="middle" x="710.4697" y="-344.3041" font-family="FreeSans" font-size="10.00" fill="#000000">std::vector&lt; T &gt;</text>
</a>
</g>
</g>
<!-- Node8&#45;&gt;Node7 -->
<g id="edge7" class="edge">
<title>Node8&#45;&gt;Node7</title>
<path fill="none" stroke="#ffa500" stroke-dasharray="5,2" d="M763.3629,-343.5077C806.1952,-342.3273 867.3335,-345.0081 916.8457,-364.3041 926.2888,-367.9843 925.6396,-374.0658 934.8457,-378.3041 942.7737,-381.9541 951.4416,-384.8685 960.1465,-387.1946"/>
<polygon fill="#ffa500" stroke="#ffa500" points="763.0272,-340.0174 753.1582,-343.8713 763.2765,-347.013 763.0272,-340.0174"/>
<text text-anchor="middle" x="854.8608" y="-366.3041" font-family="FreeSans" font-size="10.00" fill="#000000"> &lt; Dimension &gt;</text>
</g>
<!-- Node9 -->
<g id="node8" class="node">
<title>Node9</title>
<g id="a_node8"><a xlink:title=" ">
<polygon fill="#ffffff" stroke="#bfbfbf" points="458.8965,-263.3041 458.8965,-281.3041 487.8965,-281.3041 487.8965,-263.3041 458.8965,-263.3041"/>
<text text-anchor="middle" x="473.3965" y="-269.3041" font-family="FreeSans" font-size="10.00" fill="#000000">T</text>
</a>
</g>
</g>
<!-- Node9&#45;&gt;Node8 -->
<g id="edge8" class="edge">
<title>Node9&#45;&gt;Node8</title>
<path fill="none" stroke="#9a32cd" stroke-dasharray="5,2" d="M497.168,-284.7882C513.3577,-292.9082 535.4614,-303.2584 555.8027,-310.3041 592.8489,-323.136 636.3847,-333.1166 667.8123,-339.461"/>
<polygon fill="#9a32cd" stroke="#9a32cd" points="498.4188,-281.4972 487.9205,-280.0701 495.2375,-287.7326 498.4188,-281.4972"/>
<text text-anchor="middle" x="591.9331" y="-332.3041" font-family="FreeSans" font-size="10.00" fill="#000000"> elements</text>
</g>
<!-- Node11 -->
<g id="node10" class="node">
<title>Node11</title>
<g id="a_node10"><a xlink:title="STL class.">
<polygon fill="#ffffff" stroke="#bfbfbf" points="670.1333,-301.3041 670.1333,-319.3041 750.8062,-319.3041 750.8062,-301.3041 670.1333,-301.3041"/>
<text text-anchor="middle" x="710.4697" y="-307.3041" font-family="FreeSans" font-size="10.00" fill="#000000">std::array&lt; T &gt;</text>
</a>
</g>
</g>
<!-- Node9&#45;&gt;Node11 -->
<g id="edge11" class="edge">
<title>Node9&#45;&gt;Node11</title>
<path fill="none" stroke="#9a32cd" stroke-dasharray="5,2" d="M498.1169,-276.2665C538.8594,-282.7971 620.5022,-295.8834 669.8354,-303.7909"/>
<polygon fill="#9a32cd" stroke="#9a32cd" points="498.6544,-272.8081 488.2265,-274.6812 497.5465,-279.7199 498.6544,-272.8081"/>
<text text-anchor="middle" x="591.9331" y="-298.3041" font-family="FreeSans" font-size="10.00" fill="#000000"> elements</text>
</g>
<!-- Node17 -->
<g id="node16" class="node">
<title>Node17</title>
<g id="a_node16"><a xlink:title="STL class.">
<polygon fill="#ffffff" stroke="#bfbfbf" points="665.6851,-105.3041 665.6851,-123.3041 755.2544,-123.3041 755.2544,-105.3041 665.6851,-105.3041"/>
<text text-anchor="middle" x="710.4697" y="-111.3041" font-family="FreeSans" font-size="10.00" fill="#000000">std::map&lt; K, T &gt;</text>
</a>
</g>
</g>
<!-- Node9&#45;&gt;Node17 -->
<g id="edge22" class="edge">
<title>Node9&#45;&gt;Node17</title>
<path fill="none" stroke="#9a32cd" stroke-dasharray="5,2" d="M488.7597,-255.8227C517.0101,-226.5365 580.3567,-165.4902 646.0635,-133.3041 654.125,-129.3553 663.1637,-126.063 671.8626,-123.3895"/>
<polygon fill="#9a32cd" stroke="#9a32cd" points="486.1071,-253.533 481.7495,-263.1903 491.1783,-258.3582 486.1071,-253.533"/>
<text text-anchor="middle" x="591.9331" y="-195.3041" font-family="FreeSans" font-size="10.00" fill="#000000"> elements</text>
</g>
<!-- Node20 -->
<g id="node19" class="node">
<title>Node20</title>
<g id="a_node19"><a xlink:title="STL class.">
<polygon fill="#ffffff" stroke="#bfbfbf" points="655.4019,-179.3041 655.4019,-197.3041 765.5376,-197.3041 765.5376,-179.3041 655.4019,-179.3041"/>
<text text-anchor="middle" x="710.4697" y="-185.3041" font-family="FreeSans" font-size="10.00" fill="#000000">std::vector&lt; TValue &gt;</text>
</a>
</g>
</g>
<!-- Node9&#45;&gt;Node20 -->
<g id="edge25" class="edge">
<title>Node9&#45;&gt;Node20</title>
<path fill="none" stroke="#9a32cd" stroke-dasharray="5,2" d="M497.4426,-261.3779C513.7503,-254.145 535.8825,-244.6711 555.8027,-237.3041 597.8082,-221.7697 647.2989,-206.6298 678.7729,-197.3869"/>
<polygon fill="#9a32cd" stroke="#9a32cd" points="495.8113,-258.2734 488.1133,-265.5529 498.6707,-264.6627 495.8113,-258.2734"/>
<text text-anchor="middle" x="591.9331" y="-239.3041" font-family="FreeSans" font-size="10.00" fill="#000000"> elements</text>
</g>
<!-- Node30 -->
<g id="node29" class="node">
<title>Node30</title>
<g id="a_node29"><a xlink:title="STL class.">
<polygon fill="#ffffff" stroke="#bfbfbf" points="794.3315,-255.3041 794.3315,-273.3041 915.3901,-273.3041 915.3901,-255.3041 794.3315,-255.3041"/>
<text text-anchor="middle" x="854.8608" y="-261.3041" font-family="FreeSans" font-size="10.00" fill="#000000">std::vector&lt; Storage * &gt;</text>
</a>
</g>
</g>
<!-- Node9&#45;&gt;Node30 -->
<g id="edge43" class="edge">
<title>Node9&#45;&gt;Node30</title>
<path fill="none" stroke="#9a32cd" stroke-dasharray="5,2" d="M498.7011,-271.7735C558.3193,-270.5232 708.9672,-267.3638 794.0064,-265.5804"/>
<polygon fill="#9a32cd" stroke="#9a32cd" points="498.2747,-268.2815 488.3503,-271.9905 498.4216,-275.28 498.2747,-268.2815"/>
<text text-anchor="middle" x="591.9331" y="-272.3041" font-family="FreeSans" font-size="10.00" fill="#000000"> elements</text>
</g>
<!-- Node10 -->
<g id="node9" class="node">
<title>Node10</title>
<g id="a_node9"><a xlink:title=" ">
<polygon fill="#ffffff" stroke="#bfbfbf" points="963.2368,-340.3041 963.2368,-368.3041 1082.3521,-368.3041 1082.3521,-340.3041 963.2368,-340.3041"/>
<text text-anchor="start" x="971.2368" y="-356.3041" font-family="FreeSans" font-size="10.00" fill="#000000">std::array&lt; bool, Space</text>
<text text-anchor="middle" x="1022.7944" y="-346.3041" font-family="FreeSans" font-size="10.00" fill="#000000">::dimension &gt;</text>
</a>
</g>
</g>
<!-- Node10&#45;&gt;Node3 -->
<g id="edge9" class="edge">
<title>Node10&#45;&gt;Node3</title>
<path fill="none" stroke="#9a32cd" stroke-dasharray="5,2" d="M1092.7113,-364.8059C1133.177,-371.3703 1184.9495,-380.6008 1230.4668,-391.3041 1247.4915,-395.3075 1265.7616,-400.3453 1282.519,-405.2707"/>
<polygon fill="#9a32cd" stroke="#9a32cd" points="1093.1061,-361.3245 1082.6777,-363.1951 1091.9965,-368.236 1093.1061,-361.3245"/>
<text text-anchor="middle" x="1179.605" y="-393.3041" font-family="FreeSans" font-size="10.00" fill="#000000"> myPeriodicitySpec</text>
</g>
<!-- Node11&#45;&gt;Node10 -->
<g id="edge10" class="edge">
<title>Node11&#45;&gt;Node10</title>
<path fill="none" stroke="#ffa500" stroke-dasharray="5,2" d="M761.2054,-313.8685C803.1071,-317.1949 864.0551,-322.9154 916.8457,-331.3041 932.1817,-333.7411 948.6365,-336.9961 963.8962,-340.2887"/>
<polygon fill="#ffa500" stroke="#ffa500" points="761.2204,-310.3592 750.9794,-313.0742 760.6783,-317.3382 761.2204,-310.3592"/>
<text text-anchor="middle" x="854.8608" y="-333.3041" font-family="FreeSans" font-size="10.00" fill="#000000"> &lt; bool, Space::dimension &gt;</text>
</g>
<!-- Node16 -->
<g id="node15" class="node">
<title>Node16</title>
<g id="a_node15"><a xlink:title=" ">
<polygon fill="#ffffff" stroke="#bfbfbf" points="962.4067,-293.3041 962.4067,-321.3041 1083.1821,-321.3041 1083.1821,-293.3041 962.4067,-293.3041"/>
<text text-anchor="start" x="970.4067" y="-309.3041" font-family="FreeSans" font-size="10.00" fill="#000000">std::array&lt; Component,</text>
<text text-anchor="middle" x="1022.7944" y="-299.3041" font-family="FreeSans" font-size="10.00" fill="#000000"> M *N &gt;</text>
</a>
</g>
</g>
<!-- Node11&#45;&gt;Node16 -->
<g id="edge18" class="edge">
<title>Node11&#45;&gt;Node16</title>
<path fill="none" stroke="#ffa500" stroke-dasharray="5,2" d="M760.9002,-301.7828C771.4355,-300.334 782.4949,-299.056 792.876,-298.3041 850.2493,-294.1487 915.8253,-297.5158 962.2226,-301.2574"/>
<polygon fill="#ffa500" stroke="#ffa500" points="760.3964,-298.3192 750.9993,-303.2125 761.3969,-305.2473 760.3964,-298.3192"/>
<text text-anchor="middle" x="854.8608" y="-300.3041" font-family="FreeSans" font-size="10.00" fill="#000000"> &lt; Component, M *N &gt;</text>
</g>
<!-- Node12 -->
<g id="node11" class="node">
<title>Node12</title>
<g id="a_node11"><a xlink:href="classDGtal_1_1PointVector.html" target="_top" xlink:title="Aim: Implements basic operations that will be used in Point and Vector classes.">
<polygon fill="#ffffff" stroke="#000000" points="177.4858,-278.3041 177.4858,-316.3041 296.9722,-316.3041 296.9722,-278.3041 177.4858,-278.3041"/>
<text text-anchor="start" x="185.4858" y="-304.3041" font-family="FreeSans" font-size="10.00" fill="#000000">DGtal::PointVector</text>
<text text-anchor="start" x="185.4858" y="-294.3041" font-family="FreeSans" font-size="10.00" fill="#000000">&lt; dim, TEuclideanRing,</text>
<text text-anchor="middle" x="237.229" y="-284.3041" font-family="FreeSans" font-size="10.00" fill="#000000"> TContainer &gt;</text>
</a>
</g>
</g>
<!-- Node12&#45;&gt;Node3 -->
<g id="edge12" class="edge">
<title>Node12&#45;&gt;Node3</title>
<path fill="none" stroke="#9a32cd" stroke-dasharray="5,2" d="M242.5925,-326.3601C251.4168,-365.8033 272.8144,-435.7791 318.7295,-474.3041 347.5371,-498.4752 608.7686,-555.4867 646.0635,-560.3041 894.5131,-592.397 1187.676,-487.8024 1297.9424,-443.3354"/>
<polygon fill="#9a32cd" stroke="#9a32cd" points="246.0137,-325.6207 240.5196,-316.5617 239.1652,-327.0696 246.0137,-325.6207"/>
<text text-anchor="middle" x="710.4697" y="-598.3041" font-family="FreeSans" font-size="10.00" fill="#000000"> myLowerBoundCopy</text>
<text text-anchor="middle" x="710.4697" y="-588.3041" font-family="FreeSans" font-size="10.00" fill="#000000">myInfinity</text>
<text text-anchor="middle" x="710.4697" y="-578.3041" font-family="FreeSans" font-size="10.00" fill="#000000">myDomainExtent</text>
<text text-anchor="middle" x="710.4697" y="-568.3041" font-family="FreeSans" font-size="10.00" fill="#000000">myUpperBoundCopy</text>
</g>
<!-- Node12&#45;&gt;Node12 -->
<g id="edge14" class="edge">
<title>Node12&#45;&gt;Node12</title>
<path fill="none" stroke="#9a32cd" stroke-dasharray="5,2" d="M217.0363,-326.5876C219.878,-331.4514 226.6089,-334.8041 237.229,-334.8041 254.2212,-334.8041 261.257,-326.2211 258.3365,-316.5986"/>
<polygon fill="#9a32cd" stroke="#9a32cd" points="220.519,-326.2378 216.1215,-316.5986 213.5481,-326.8762 220.519,-326.2378"/>
<text text-anchor="middle" x="237.229" y="-336.8041" font-family="FreeSans" font-size="10.00" fill="#000000"> zero</text>
</g>
<!-- Node14 -->
<g id="node13" class="node">
<title>Node14</title>
<g id="a_node13"><a xlink:title=" ">
<polygon fill="#ffffff" stroke="#bfbfbf" points="1536.3359,-81.3041 1536.3359,-99.3041 1677.9365,-99.3041 1677.9365,-81.3041 1536.3359,-81.3041"/>
<text text-anchor="middle" x="1607.1362" y="-87.3041" font-family="FreeSans" font-size="10.00" fill="#000000">std::map&lt; Point, MatrixNN &gt;</text>
</a>
</g>
</g>
<!-- Node12&#45;&gt;Node14 -->
<g id="edge19" class="edge">
<title>Node12&#45;&gt;Node14</title>
<path fill="none" stroke="#9a32cd" stroke-dasharray="5,2" d="M243.1009,-268.0653C255.584,-208.6591 286.2832,-76.8019 318.7295,-45.3041 370.0975,4.5621 401.8052,-.3041 473.3965,-.3041 473.3965,-.3041 473.3965,-.3041 1342.8584,-.3041 1442.4625,-.3041 1552.4513,-58.2986 1591.9694,-81.1792"/>
<polygon fill="#9a32cd" stroke="#9a32cd" points="239.6557,-267.4426 241.053,-277.9449 246.51,-268.8635 239.6557,-267.4426"/>
<text text-anchor="middle" x="854.8608" y="-2.3041" font-family="FreeSans" font-size="10.00" fill="#000000"> keys</text>
</g>
<!-- Node19 -->
<g id="node18" class="node">
<title>Node19</title>
<g id="a_node18"><a xlink:href="classDGtal_1_1ImageContainerBySTLVector.html" target="_top" xlink:title=" ">
<polygon fill="#ffffff" stroke="#000000" points="934.8457,-137.3041 934.8457,-165.3041 1110.7432,-165.3041 1110.7432,-137.3041 934.8457,-137.3041"/>
<text text-anchor="start" x="942.8457" y="-153.3041" font-family="FreeSans" font-size="10.00" fill="#000000">DGtal::ImageContainerBySTLVector</text>
<text text-anchor="middle" x="1022.7944" y="-143.3041" font-family="FreeSans" font-size="10.00" fill="#000000">&lt; TDomain, TValue &gt;</text>
</a>
</g>
</g>
<!-- Node12&#45;&gt;Node19 -->
<g id="edge27" class="edge">
<title>Node12&#45;&gt;Node19</title>
<path fill="none" stroke="#9a32cd" stroke-dasharray="5,2" d="M250.8648,-269.1452C275.1559,-222.6684 330.8087,-131.4501 408.9902,-95.3041 612.7152,-1.1152 894.6555,-98.8645 989.879,-137.2583"/>
<polygon fill="#9a32cd" stroke="#9a32cd" points="247.7318,-267.5846 246.2938,-278.0814 253.9639,-270.7724 247.7318,-267.5846"/>
<text text-anchor="middle" x="591.9331" y="-60.3041" font-family="FreeSans" font-size="10.00" fill="#000000"> myExtent</text>
</g>
<!-- Node22 -->
<g id="node21" class="node">
<title>Node22</title>
<g id="a_node21"><a xlink:href="classDGtal_1_1HyperRectDomain.html" target="_top" xlink:title=" ">
<polygon fill="#ffffff" stroke="#000000" points="958.3882,-424.3041 958.3882,-452.3041 1087.2007,-452.3041 1087.2007,-424.3041 958.3882,-424.3041"/>
<text text-anchor="start" x="966.3882" y="-440.3041" font-family="FreeSans" font-size="10.00" fill="#000000">DGtal::HyperRectDomain</text>
<text text-anchor="middle" x="1022.7944" y="-430.3041" font-family="FreeSans" font-size="10.00" fill="#000000">&lt; Space &gt;</text>
</a>
</g>
</g>
<!-- Node12&#45;&gt;Node22 -->
<g id="edge35" class="edge">
<title>Node12&#45;&gt;Node22</title>
<path fill="none" stroke="#9a32cd" stroke-dasharray="5,2" d="M307.3259,-309.8857C458.3514,-336.9931 812.555,-400.5686 958.3529,-426.7376"/>
<polygon fill="#9a32cd" stroke="#9a32cd" points="307.7034,-306.3976 297.2424,-308.0759 306.4667,-313.2875 307.7034,-306.3976"/>
<text text-anchor="middle" x="591.9331" y="-377.3041" font-family="FreeSans" font-size="10.00" fill="#000000"> myLowerBound</text>
<text text-anchor="middle" x="591.9331" y="-367.3041" font-family="FreeSans" font-size="10.00" fill="#000000">myUpperBound</text>
</g>
<!-- Node25 -->
<g id="node24" class="node">
<title>Node25</title>
<g id="a_node24"><a xlink:href="structDGtal_1_1functors_1_1IsWithinPointPredicate.html" target="_top" xlink:title=" ">
<polygon fill="#ffffff" stroke="#000000" points="411.4927,-453.3041 411.4927,-481.3041 535.3003,-481.3041 535.3003,-453.3041 411.4927,-453.3041"/>
<text text-anchor="start" x="419.4927" y="-469.3041" font-family="FreeSans" font-size="10.00" fill="#000000">DGtal::functors::IsWithin</text>
<text text-anchor="middle" x="473.3965" y="-459.3041" font-family="FreeSans" font-size="10.00" fill="#000000">PointPredicate&lt; Point &gt;</text>
</a>
</g>
</g>
<!-- Node12&#45;&gt;Node25 -->
<g id="edge32" class="edge">
<title>Node12&#45;&gt;Node25</title>
<path fill="none" stroke="#9a32cd" stroke-dasharray="5,2" d="M249.7851,-325.8275C263.1527,-353.0467 286.7882,-393.3518 318.7295,-417.3041 345.7094,-437.536 381.2029,-449.7745 411.3828,-457.0737"/>
<polygon fill="#9a32cd" stroke="#9a32cd" points="252.7808,-323.9767 245.3284,-316.446 246.458,-326.9804 252.7808,-323.9767"/>
<text text-anchor="middle" x="354.8599" y="-462.3041" font-family="FreeSans" font-size="10.00" fill="#000000"> myLowerBound</text>
<text text-anchor="middle" x="354.8599" y="-452.3041" font-family="FreeSans" font-size="10.00" fill="#000000">myUpperBound</text>
</g>
<!-- Node27 -->
<g id="node26" class="node">
<title>Node27</title>
<g id="a_node26"><a xlink:href="classDGtal_1_1HyperRectDomain.html" target="_top" xlink:title="Aim: Parallelepidec region of a digital space, model of a &#39;CDomain&#39;.">
<polygon fill="#ffffff" stroke="#000000" points="646.0635,-417.3041 646.0635,-445.3041 774.876,-445.3041 774.876,-417.3041 646.0635,-417.3041"/>
<text text-anchor="start" x="654.0635" y="-433.3041" font-family="FreeSans" font-size="10.00" fill="#000000">DGtal::HyperRectDomain</text>
<text text-anchor="middle" x="710.4697" y="-423.3041" font-family="FreeSans" font-size="10.00" fill="#000000">&lt; TSpace &gt;</text>
</a>
</g>
</g>
<!-- Node12&#45;&gt;Node27 -->
<g id="edge39" class="edge">
<title>Node12&#45;&gt;Node27</title>
<path fill="none" stroke="#9a32cd" stroke-dasharray="5,2" d="M259.3426,-324.1771C274.3433,-340.5126 295.5987,-360.2846 318.7295,-371.3041 375.3317,-398.2695 549.8845,-417.2501 645.7593,-425.9483"/>
<polygon fill="#9a32cd" stroke="#9a32cd" points="261.7625,-321.6315 252.5002,-316.4874 256.533,-326.2847 261.7625,-321.6315"/>
<text text-anchor="middle" x="473.3965" y="-425.3041" font-family="FreeSans" font-size="10.00" fill="#000000"> myLowerBound</text>
<text text-anchor="middle" x="473.3965" y="-415.3041" font-family="FreeSans" font-size="10.00" fill="#000000">myUpperBound</text>
</g>
<!-- Node28 -->
<g id="node27" class="node">
<title>Node28</title>
<g id="a_node27"><a xlink:href="classDGtal_1_1SpatialCubicalSubdivision.html" target="_top" xlink:title="Aim: This class is a data structure that subdivides a rectangular domains into cubical domains of siz...">
<polygon fill="#ffffff" stroke="#000000" points="1526.043,-224.3041 1526.043,-252.3041 1688.2295,-252.3041 1688.2295,-224.3041 1526.043,-224.3041"/>
<text text-anchor="start" x="1534.043" y="-240.3041" font-family="FreeSans" font-size="10.00" fill="#000000">DGtal::SpatialCubicalSubdivision</text>
<text text-anchor="middle" x="1607.1362" y="-230.3041" font-family="FreeSans" font-size="10.00" fill="#000000">&lt; TSpace &gt;</text>
</a>
</g>
</g>
<!-- Node12&#45;&gt;Node28 -->
<g id="edge48" class="edge">
<title>Node12&#45;&gt;Node28</title>
<path fill="none" stroke="#9a32cd" stroke-dasharray="5,2" d="M242.7337,-268.33C251.9243,-226.9399 273.976,-150.568 318.7295,-102.3041 369.3125,-47.7536 399.003,-38.3041 473.3965,-38.3041 473.3965,-38.3041 473.3965,-38.3041 854.8608,-38.3041 1009.3987,-38.3041 1375.9938,-183.3284 1526.043,-220.3041 1531.3639,-221.6153 1536.892,-222.9339 1542.4484,-224.2287"/>
<polygon fill="#9a32cd" stroke="#9a32cd" points="239.2697,-267.7935 240.6194,-278.302 246.1175,-269.2454 239.2697,-267.7935"/>
<text text-anchor="middle" x="854.8608" y="-40.3041" font-family="FreeSans" font-size="10.00" fill="#000000"> myDiag</text>
</g>
<!-- Node29 -->
<g id="node28" class="node">
<title>Node29</title>
<g id="a_node28"><a xlink:href="classDGtal_1_1ImageContainerBySTLVector.html" target="_top" xlink:title=" ">
<polygon fill="#ffffff" stroke="#000000" points="1254.9097,-224.3041 1254.9097,-252.3041 1430.8071,-252.3041 1430.8071,-224.3041 1254.9097,-224.3041"/>
<text text-anchor="start" x="1262.9097" y="-240.3041" font-family="FreeSans" font-size="10.00" fill="#000000">DGtal::ImageContainerBySTLVector</text>
<text text-anchor="middle" x="1342.8584" y="-230.3041" font-family="FreeSans" font-size="10.00" fill="#000000">&lt; Domain, Storage * &gt;</text>
</a>
</g>
</g>
<!-- Node12&#45;&gt;Node29 -->
<g id="edge45" class="edge">
<title>Node12&#45;&gt;Node29</title>
<path fill="none" stroke="#9a32cd" stroke-dasharray="5,2" d="M306.8277,-276.1051C337.7967,-267.6564 374.8992,-258.8676 408.9902,-254.3041 726.1123,-211.8535 808.8221,-244.6558 1128.7432,-240.3041 1170.1888,-239.7404 1216.1493,-239.2883 1254.8295,-238.9576"/>
<polygon fill="#9a32cd" stroke="#9a32cd" points="305.701,-272.7854 297,-278.8305 307.5716,-279.5308 305.701,-272.7854"/>
<text text-anchor="middle" x="710.4697" y="-234.3041" font-family="FreeSans" font-size="10.00" fill="#000000"> myExtent</text>
</g>
<!-- Node13 -->
<g id="node12" class="node">
<title>Node13</title>
<g id="a_node12"><a xlink:title=" ">
<polygon fill="#ffffff" stroke="#bfbfbf" points="0,-288.3041 0,-306.3041 65.4678,-306.3041 65.4678,-288.3041 0,-288.3041"/>
<text text-anchor="middle" x="32.7339" y="-294.3041" font-family="FreeSans" font-size="10.00" fill="#000000">TContainer</text>
</a>
</g>
</g>
<!-- Node13&#45;&gt;Node12 -->
<g id="edge13" class="edge">
<title>Node13&#45;&gt;Node12</title>
<path fill="none" stroke="#9a32cd" stroke-dasharray="5,2" d="M75.9554,-297.3041C105.3951,-297.3041 144.7637,-297.3041 177.2339,-297.3041"/>
<polygon fill="#9a32cd" stroke="#9a32cd" points="75.5896,-293.8042 65.5896,-297.3041 75.5895,-300.8042 75.5896,-293.8042"/>
<text text-anchor="middle" x="119.5981" y="-299.3041" font-family="FreeSans" font-size="10.00" fill="#000000"> myArray</text>
</g>
<!-- Node14&#45;&gt;Node2 -->
<g id="edge15" class="edge">
<title>Node14&#45;&gt;Node2</title>
<path fill="none" stroke="#9a32cd" stroke-dasharray="5,2" d="M1688.2673,-89.8102C1725.3179,-92.53 1768.7072,-100.0288 1804.0225,-118.3041 1852.8935,-143.5945 1892.2262,-198.4493 1908.8381,-224.2961"/>
<polygon fill="#9a32cd" stroke="#9a32cd" points="1688.1971,-86.299 1677.9972,-89.1648 1687.758,-93.2852 1688.1971,-86.299"/>
<text text-anchor="middle" x="1755.126" y="-120.3041" font-family="FreeSans" font-size="10.00" fill="#000000"> myVCM</text>
</g>
<!-- Node15 -->
<g id="node14" class="node">
<title>Node15</title>
<g id="a_node14"><a xlink:href="classDGtal_1_1SimpleMatrix.html" target="_top" xlink:title="Aim: implements basic MxN Matrix services (M,N&gt;=1).">
<polygon fill="#ffffff" stroke="#000000" points="1278.1592,-284.3041 1278.1592,-312.3041 1407.5576,-312.3041 1407.5576,-284.3041 1278.1592,-284.3041"/>
<text text-anchor="start" x="1286.1592" y="-300.3041" font-family="FreeSans" font-size="10.00" fill="#000000">DGtal::SimpleMatrix</text>
<text text-anchor="middle" x="1342.8584" y="-290.3041" font-family="FreeSans" font-size="10.00" fill="#000000">&lt; TComponent, TM, TN &gt;</text>
</a>
</g>
</g>
<!-- Node15&#45;&gt;Node14 -->
<g id="edge16" class="edge">
<title>Node15&#45;&gt;Node14</title>
<path fill="none" stroke="#9a32cd" stroke-dasharray="5,2" d="M1417.2384,-279.4072C1424.886,-274.8779 1431.8247,-269.2635 1437.25,-262.3041 1479.0745,-208.6528 1407.4622,-158.7198 1455.25,-110.3041 1466.7404,-98.6628 1502.2522,-93.591 1536.0498,-91.4633"/>
<polygon fill="#9a32cd" stroke="#9a32cd" points="1415.2266,-276.5093 1407.9832,-284.2413 1418.4673,-282.7139 1415.2266,-276.5093"/>
<text text-anchor="middle" x="1481.6465" y="-112.3041" font-family="FreeSans" font-size="10.00" fill="#000000"> elements</text>
</g>
<!-- Node16&#45;&gt;Node15 -->
<g id="edge17" class="edge">
<title>Node16&#45;&gt;Node15</title>
<path fill="none" stroke="#9a32cd" stroke-dasharray="5,2" d="M1093.4156,-305.3183C1148.557,-303.7678 1224.554,-301.6308 1278.1316,-300.1242"/>
<polygon fill="#9a32cd" stroke="#9a32cd" points="1093.2699,-301.8209 1083.3723,-305.6007 1093.4668,-308.8182 1093.2699,-301.8209"/>
<text text-anchor="middle" x="1179.605" y="-315.3041" font-family="FreeSans" font-size="10.00" fill="#000000"> myCofactorCoefs</text>
<text text-anchor="middle" x="1179.605" y="-305.3041" font-family="FreeSans" font-size="10.00" fill="#000000">myValues</text>
</g>
<!-- Node17&#45;&gt;Node14 -->
<g id="edge20" class="edge">
<title>Node17&#45;&gt;Node14</title>
<path fill="none" stroke="#ffa500" stroke-dasharray="5,2" d="M765.6974,-111.9156C889.2276,-106.7066 1197.273,-94.4596 1455.25,-90.3041 1481.6157,-89.8794 1510.5592,-89.7865 1536.0435,-89.831"/>
<polygon fill="#ffa500" stroke="#ffa500" points="765.2152,-108.4327 755.3723,-112.3527 765.5114,-115.4265 765.2152,-108.4327"/>
<text text-anchor="middle" x="1179.605" y="-101.3041" font-family="FreeSans" font-size="10.00" fill="#000000"> &lt; Point, MatrixNN &gt;</text>
</g>
<!-- Node18 -->
<g id="node17" class="node">
<title>Node18</title>
<g id="a_node17"><a xlink:title=" ">
<polygon fill="#ffffff" stroke="#bfbfbf" points="458.8965,-105.3041 458.8965,-123.3041 487.8965,-123.3041 487.8965,-105.3041 458.8965,-105.3041"/>
<text text-anchor="middle" x="473.3965" y="-111.3041" font-family="FreeSans" font-size="10.00" fill="#000000">K</text>
</a>
</g>
</g>
<!-- Node18&#45;&gt;Node17 -->
<g id="edge21" class="edge">
<title>Node18&#45;&gt;Node17</title>
<path fill="none" stroke="#9a32cd" stroke-dasharray="5,2" d="M498.3457,-114.3041C538.0285,-114.3041 616.094,-114.3041 665.6517,-114.3041"/>
<polygon fill="#9a32cd" stroke="#9a32cd" points="498.2265,-110.8042 488.2265,-114.3041 498.2264,-117.8042 498.2265,-110.8042"/>
<text text-anchor="middle" x="591.9331" y="-116.3041" font-family="FreeSans" font-size="10.00" fill="#000000"> keys</text>
</g>
<!-- Node19&#45;&gt;Node2 -->
<g id="edge23" class="edge">
<title>Node19&#45;&gt;Node2</title>
<path fill="none" stroke="#9a32cd" stroke-dasharray="5,2" d="M1121.1175,-160.632C1250.9778,-172.9813 1486.7889,-195.5082 1688.2295,-215.3041 1732.1009,-219.6155 1780.6871,-224.4792 1821.7901,-228.6199"/>
<polygon fill="#9a32cd" stroke="#9a32cd" points="1121.0895,-157.1137 1110.8031,-159.6514 1120.4269,-164.0823 1121.0895,-157.1137"/>
<text text-anchor="middle" x="1481.6465" y="-199.3041" font-family="FreeSans" font-size="10.00" fill="#000000"> myCharSet</text>
</g>
<!-- Node19&#45;&gt;Node29 -->
<g id="edge46" class="edge">
<title>Node19&#45;&gt;Node29</title>
<path fill="none" stroke="#ffa500" stroke-dasharray="5,2" d="M1094.8382,-167.7021C1134.9456,-177.1549 1185.6747,-189.6468 1230.4668,-202.3041 1254.127,-208.99 1280.3012,-217.318 1301.4338,-224.2796"/>
<polygon fill="#ffa500" stroke="#ffa500" points="1095.4155,-164.2426 1084.8804,-165.3661 1093.8167,-171.0576 1095.4155,-164.2426"/>
<text text-anchor="middle" x="1179.605" y="-204.3041" font-family="FreeSans" font-size="10.00" fill="#000000"> &lt; Domain, Storage * &gt;</text>
</g>
<!-- Node20&#45;&gt;Node19 -->
<g id="edge24" class="edge">
<title>Node20&#45;&gt;Node19</title>
<path fill="none" stroke="#191970" d="M775.7321,-181.3749C816.3536,-176.9766 869.6689,-171.0493 916.8457,-165.3041 922.6473,-164.5976 928.6252,-163.853 934.6483,-163.0904"/>
<polygon fill="#191970" stroke="#191970" points="775.2561,-177.9059 765.6896,-182.4591 776.0075,-184.8654 775.2561,-177.9059"/>
</g>
<!-- Node21 -->
<g id="node20" class="node">
<title>Node21</title>
<g id="a_node20"><a xlink:title=" ">
<polygon fill="#ffffff" stroke="#bfbfbf" points="682.1865,-142.3041 682.1865,-160.3041 738.7529,-160.3041 738.7529,-142.3041 682.1865,-142.3041"/>
<text text-anchor="middle" x="710.4697" y="-148.3041" font-family="FreeSans" font-size="10.00" fill="#000000">TDomain</text>
</a>
</g>
</g>
<!-- Node21&#45;&gt;Node19 -->
<g id="edge26" class="edge">
<title>Node21&#45;&gt;Node19</title>
<path fill="none" stroke="#9a32cd" stroke-dasharray="5,2" d="M749.1656,-151.3041C795.221,-151.3041 873.5673,-151.3041 934.654,-151.3041"/>
<polygon fill="#9a32cd" stroke="#9a32cd" points="749.0145,-147.8042 739.0144,-151.3041 749.0144,-154.8042 749.0145,-147.8042"/>
<text text-anchor="middle" x="854.8608" y="-153.3041" font-family="FreeSans" font-size="10.00" fill="#000000"> myDomain</text>
</g>
<!-- Node22&#45;&gt;Node2 -->
<g id="edge28" class="edge">
<title>Node22&#45;&gt;Node2</title>
<path fill="none" stroke="#9a32cd" stroke-dasharray="5,2" d="M1027.8907,-462.1863C1038.3678,-504.5685 1066.7478,-591.8917 1128.7432,-628.3041 1167.7269,-651.2009 1186.6423,-639.4127 1230.4668,-628.3041 1526.9083,-553.1627 1828.132,-312.998 1900.8654,-252.3292"/>
<polygon fill="#9a32cd" stroke="#9a32cd" points="1031.2952,-461.3738 1025.6032,-452.4378 1024.4803,-462.973 1031.2952,-461.3738"/>
<text text-anchor="middle" x="1481.6465" y="-541.3041" font-family="FreeSans" font-size="10.00" fill="#000000"> myDomain</text>
</g>
<!-- Node22&#45;&gt;Node28 -->
<g id="edge47" class="edge">
<title>Node22&#45;&gt;Node28</title>
<path fill="none" stroke="#9a32cd" stroke-dasharray="5,2" d="M1096.67,-424.712C1101.7311,-422.0965 1106.4979,-418.9906 1110.7432,-415.3041 1126.3862,-401.72 1112.472,-385.1293 1128.7432,-372.3041 1237.8326,-286.318 1304.965,-364.6692 1437.25,-322.3041 1492.556,-304.5921 1552.3549,-271.3742 1584.1619,-252.451"/>
<polygon fill="#9a32cd" stroke="#9a32cd" points="1094.9889,-421.6297 1087.2913,-428.9096 1097.8486,-428.019 1094.9889,-421.6297"/>
<text text-anchor="middle" x="1342.8584" y="-337.3041" font-family="FreeSans" font-size="10.00" fill="#000000"> myDomain</text>
</g>
<!-- Node22&#45;&gt;Node29 -->
<g id="edge44" class="edge">
<title>Node22&#45;&gt;Node29</title>
<path fill="none" stroke="#9a32cd" stroke-dasharray="5,2" d="M1096.6346,-426.5074C1101.8919,-423.5129 1106.7022,-419.8286 1110.7432,-415.3041 1148.1323,-373.4416 1090.4669,-331.3571 1128.7432,-290.3041 1160.2868,-256.4723 1185.5031,-279.1607 1230.4668,-268.3041 1250.7853,-263.3982 1273.0455,-257.5555 1292.3561,-252.3354"/>
<polygon fill="#9a32cd" stroke="#9a32cd" points="1094.9272,-423.4444 1087.4215,-430.9221 1097.9521,-429.7571 1094.9272,-423.4444"/>
<text text-anchor="middle" x="1179.605" y="-292.3041" font-family="FreeSans" font-size="10.00" fill="#000000"> myDomain</text>
</g>
<!-- Node23 -->
<g id="node22" class="node">
<title>Node23</title>
<g id="a_node22"><a xlink:href="classDGtal_1_1HyperRectDomain__Iterator.html" target="_top" xlink:title=" ">
<polygon fill="#ffffff" stroke="#000000" points="408.9902,-549.3041 408.9902,-577.3041 537.8027,-577.3041 537.8027,-549.3041 408.9902,-549.3041"/>
<text text-anchor="start" x="416.9902" y="-565.3041" font-family="FreeSans" font-size="10.00" fill="#000000">DGtal::HyperRectDomain</text>
<text text-anchor="middle" x="473.3965" y="-555.3041" font-family="FreeSans" font-size="10.00" fill="#000000">_Iterator&lt; TPoint &gt;</text>
</a>
</g>
</g>
<!-- Node23&#45;&gt;Node22 -->
<g id="edge29" class="edge">
<title>Node23&#45;&gt;Node22</title>
<path fill="none" stroke="#9a32cd" stroke-dasharray="5,2" d="M548.0788,-552.9954C636.9551,-539.8113 789.3621,-514.2995 916.8457,-478.3041 941.8219,-471.252 969.2099,-460.8376 989.8821,-452.4033"/>
<polygon fill="#9a32cd" stroke="#9a32cd" points="547.4752,-549.5464 538.0911,-554.4647 548.4941,-556.4719 547.4752,-549.5464"/>
<text text-anchor="middle" x="710.4697" y="-548.3041" font-family="FreeSans" font-size="10.00" fill="#000000"> myIteratorEnd</text>
<text text-anchor="middle" x="710.4697" y="-538.3041" font-family="FreeSans" font-size="10.00" fill="#000000">myIteratorBegin</text>
</g>
<!-- Node23&#45;&gt;Node27 -->
<g id="edge37" class="edge">
<title>Node23&#45;&gt;Node27</title>
<path fill="none" stroke="#9a32cd" stroke-dasharray="5,2" d="M503.8336,-543.6949C537.8626,-522.117 594.918,-486.9614 646.0635,-460.3041 656.068,-455.0897 667.1998,-449.8778 677.3567,-445.3401"/>
<polygon fill="#9a32cd" stroke="#9a32cd" points="501.839,-540.8156 495.2832,-549.1386 505.5984,-546.7205 501.839,-540.8156"/>
<text text-anchor="middle" x="591.9331" y="-520.3041" font-family="FreeSans" font-size="10.00" fill="#000000"> myIteratorEnd</text>
<text text-anchor="middle" x="591.9331" y="-510.3041" font-family="FreeSans" font-size="10.00" fill="#000000">myIteratorBegin</text>
</g>
<!-- Node24 -->
<g id="node23" class="node">
<title>Node24</title>
<g id="a_node23"><a xlink:title=" ">
<polygon fill="#ffffff" stroke="#bfbfbf" points="10.2832,-564.3041 10.2832,-582.3041 55.1846,-582.3041 55.1846,-564.3041 10.2832,-564.3041"/>
<text text-anchor="middle" x="32.7339" y="-570.3041" font-family="FreeSans" font-size="10.00" fill="#000000">TPoint</text>
</a>
</g>
</g>
<!-- Node24&#45;&gt;Node23 -->
<g id="edge30" class="edge">
<title>Node24&#45;&gt;Node23</title>
<path fill="none" stroke="#9a32cd" stroke-dasharray="5,2" d="M65.5632,-576.272C71.5169,-576.7021 77.6741,-577.0761 83.4678,-577.3041 115.5588,-578.5673 123.6204,-578.0113 155.7285,-577.3041 243.4819,-575.3714 344.7719,-570.4389 408.932,-566.9784"/>
<polygon fill="#9a32cd" stroke="#9a32cd" points="65.4326,-572.751 55.189,-575.4566 64.884,-579.7295 65.4326,-572.751"/>
<text text-anchor="middle" x="237.229" y="-598.3041" font-family="FreeSans" font-size="10.00" fill="#000000"> mylower</text>
<text text-anchor="middle" x="237.229" y="-588.3041" font-family="FreeSans" font-size="10.00" fill="#000000">myupper</text>
<text text-anchor="middle" x="237.229" y="-578.3041" font-family="FreeSans" font-size="10.00" fill="#000000">myPoint</text>
</g>
<!-- Node26 -->
<g id="node25" class="node">
<title>Node26</title>
<g id="a_node25"><a xlink:href="structDGtal_1_1functors_1_1IsWithinPointPredicate.html" target="_top" xlink:title="Aim: The predicate returns true when the point is within the given bounds.">
<polygon fill="#ffffff" stroke="#000000" points="173.7285,-526.3041 173.7285,-554.3041 300.7295,-554.3041 300.7295,-526.3041 173.7285,-526.3041"/>
<text text-anchor="start" x="181.7285" y="-542.3041" font-family="FreeSans" font-size="10.00" fill="#000000">DGtal::functors::IsWithin</text>
<text text-anchor="middle" x="237.229" y="-532.3041" font-family="FreeSans" font-size="10.00" fill="#000000">PointPredicate&lt; TPoint &gt;</text>
</a>
</g>
</g>
<!-- Node24&#45;&gt;Node26 -->
<g id="edge34" class="edge">
<title>Node24&#45;&gt;Node26</title>
<path fill="none" stroke="#9a32cd" stroke-dasharray="5,2" d="M65.0632,-562.0753C71.1237,-560.2661 77.4469,-558.5736 83.4678,-557.3041 112.7694,-551.1259 145.7153,-547.1046 173.5723,-544.5333"/>
<polygon fill="#9a32cd" stroke="#9a32cd" points="63.6995,-558.8352 55.2118,-565.1763 65.8013,-565.5122 63.6995,-558.8352"/>
<text text-anchor="middle" x="119.5981" y="-569.3041" font-family="FreeSans" font-size="10.00" fill="#000000"> myLowerBound</text>
<text text-anchor="middle" x="119.5981" y="-559.3041" font-family="FreeSans" font-size="10.00" fill="#000000">myUpperBound</text>
</g>
<!-- Node25&#45;&gt;Node22 -->
<g id="edge31" class="edge">
<title>Node25&#45;&gt;Node22</title>
<path fill="none" stroke="#9a32cd" stroke-dasharray="5,2" d="M525.1476,-484.0522C535.2135,-486.652 545.759,-488.9288 555.8027,-490.3041 587.6217,-494.6613 596.0164,-492.4059 628.0635,-490.3041 744.9737,-482.6367 880.1149,-462.3264 958.0931,-449.4765"/>
<polygon fill="#9a32cd" stroke="#9a32cd" points="525.8461,-480.6151 515.2779,-481.3662 524.0079,-487.3694 525.8461,-480.6151"/>
<text text-anchor="middle" x="710.4697" y="-490.3041" font-family="FreeSans" font-size="10.00" fill="#000000"> myPredicate</text>
</g>
<!-- Node25&#45;&gt;Node27 -->
<g id="edge38" class="edge">
<title>Node25&#45;&gt;Node27</title>
<path fill="none" stroke="#9a32cd" stroke-dasharray="5,2" d="M514.4169,-449.5357C527.4117,-444.6818 541.9928,-440.0167 555.8027,-437.3041 585.0715,-431.555 618.0367,-429.6635 645.9902,-429.3651"/>
<polygon fill="#9a32cd" stroke="#9a32cd" points="512.8855,-446.3756 504.828,-453.2551 515.4169,-452.9019 512.8855,-446.3756"/>
<text text-anchor="middle" x="591.9331" y="-439.3041" font-family="FreeSans" font-size="10.00" fill="#000000"> myPredicate</text>
</g>
<!-- Node26&#45;&gt;Node25 -->
<g id="edge33" class="edge">
<title>Node26&#45;&gt;Node25</title>
<path fill="none" stroke="#ffa500" stroke-dasharray="5,2" d="M292.3873,-523.2546C333.6247,-510.508 389.3257,-493.2906 428.0008,-481.3361"/>
<polygon fill="#ffa500" stroke="#ffa500" points="291.2848,-519.9319 282.7645,-526.229 293.3521,-526.6197 291.2848,-519.9319"/>
<text text-anchor="middle" x="354.8599" y="-516.3041" font-family="FreeSans" font-size="10.00" fill="#000000"> &lt; Point &gt;</text>
</g>
<!-- Node27&#45;&gt;Node22 -->
<g id="edge36" class="edge">
<title>Node27&#45;&gt;Node22</title>
<path fill="none" stroke="#ffa500" stroke-dasharray="5,2" d="M785.4834,-432.9854C838.1741,-434.1663 907.9325,-435.7298 958.1635,-436.8556"/>
<polygon fill="#ffa500" stroke="#ffa500" points="785.2596,-429.4796 775.1836,-432.7545 785.1026,-436.4778 785.2596,-429.4796"/>
<text text-anchor="middle" x="854.8608" y="-437.3041" font-family="FreeSans" font-size="10.00" fill="#000000"> &lt; Space &gt;</text>
</g>
<!-- Node28&#45;&gt;Node2 -->
<g id="edge40" class="edge">
<title>Node28&#45;&gt;Node2</title>
<path fill="none" stroke="#9a32cd" stroke-dasharray="5,2" d="M1698.4924,-238.3041C1737.3228,-238.3041 1782.6077,-238.3041 1821.8799,-238.3041"/>
<polygon fill="#9a32cd" stroke="#9a32cd" points="1698.2461,-234.8042 1688.246,-238.3041 1698.246,-241.8042 1698.2461,-234.8042"/>
<text text-anchor="middle" x="1755.126" y="-240.3041" font-family="FreeSans" font-size="10.00" fill="#000000"> myProximityStructure</text>
</g>
<!-- Node29&#45;&gt;Node28 -->
<g id="edge41" class="edge">
<title>Node29&#45;&gt;Node28</title>
<path fill="none" stroke="#9a32cd" stroke-dasharray="5,2" d="M1441.0282,-238.3041C1468.9236,-238.3041 1498.9857,-238.3041 1525.7666,-238.3041"/>
<polygon fill="#9a32cd" stroke="#9a32cd" points="1440.8591,-234.8042 1430.8591,-238.3041 1440.8591,-241.8042 1440.8591,-234.8042"/>
<text text-anchor="middle" x="1481.6465" y="-240.3041" font-family="FreeSans" font-size="10.00" fill="#000000"> myArray</text>
</g>
<!-- Node30&#45;&gt;Node29 -->
<g id="edge42" class="edge">
<title>Node30&#45;&gt;Node29</title>
<path fill="none" stroke="#191970" d="M925.7293,-260.5283C1012.7993,-255.8893 1160.5351,-248.0181 1254.808,-242.9954"/>
<polygon fill="#191970" stroke="#191970" points="925.479,-257.0366 915.6794,-261.0638 925.8515,-264.0267 925.479,-257.0366"/>
</g>
</g>
</svg>
