<?xml version="1.0" encoding="UTF-8" standalone="no"?>
<!DOCTYPE svg PUBLIC "-//W3C//DTD SVG 1.1//EN"
 "http://www.w3.org/Graphics/SVG/1.1/DTD/svg11.dtd">
<!-- Generated by graphviz version 2.40.1 (20161225.0304)
 -->
<!-- Title: DGtal::TangentAngleFromDSSEstimator&lt; DSSComputer &gt; Pages: 1 -->
<svg width="2264pt" height="92pt"
 viewBox="0.00 0.00 2263.50 91.50" xmlns="http://www.w3.org/2000/svg" xmlns:xlink="http://www.w3.org/1999/xlink">
<g id="graph0" class="graph" transform="scale(1 1) rotate(0) translate(4 87.5)">
<title>DGtal::TangentAngleFromDSSEstimator&lt; DSSComputer &gt;</title>
<polygon fill="#ffffff" stroke="transparent" points="-4,4 -4,-87.5 2259.5049,-87.5 2259.5049,4 -4,4"/>
<!-- Node3 -->
<g id="node1" class="node">
<title>Node3</title>
<g id="a_node1"><a xlink:title=" ">
<polygon fill="#bfbfbf" stroke="#000000" points="2061.1016,-33.5 2061.1016,-61.5 2255.5049,-61.5 2255.5049,-33.5 2061.1016,-33.5"/>
<text text-anchor="start" x="2069.1016" y="-49.5" font-family="FreeSans" font-size="10.00" fill="#000000">DGtal::TangentAngleFromDSSEstimator</text>
<text text-anchor="middle" x="2158.3032" y="-39.5" font-family="FreeSans" font-size="10.00" fill="#000000">&lt; DSSComputer &gt;</text>
</a>
</g>
</g>
<!-- Node4 -->
<g id="node2" class="node">
<title>Node4</title>
<g id="a_node2"><a xlink:href="classDGtal_1_1detail_1_1PosIndepScaleIndepSCEstimator.html" target="_top" xlink:title=" ">
<polygon fill="#ffffff" stroke="#000000" points="1851.6367,-28.5 1851.6367,-66.5 2024.1016,-66.5 2024.1016,-28.5 1851.6367,-28.5"/>
<text text-anchor="start" x="1859.6367" y="-54.5" font-family="FreeSans" font-size="10.00" fill="#000000">DGtal::detail::PosIndepScale</text>
<text text-anchor="start" x="1859.6367" y="-44.5" font-family="FreeSans" font-size="10.00" fill="#000000">IndepSCEstimator&lt; DSSComputer,</text>
<text text-anchor="middle" x="1937.8691" y="-34.5" font-family="FreeSans" font-size="10.00" fill="#000000"> detail::TangentAngleFromDSS &gt;</text>
</a>
</g>
</g>
<!-- Node4&#45;&gt;Node3 -->
<g id="edge1" class="edge">
<title>Node4&#45;&gt;Node3</title>
<path fill="none" stroke="#191970" d="M2034.5124,-47.5C2043.2188,-47.5 2052.04,-47.5 2060.754,-47.5"/>
<polygon fill="#191970" stroke="#191970" points="2034.3579,-44.0001 2024.3579,-47.5 2034.3578,-51.0001 2034.3579,-44.0001"/>
</g>
<!-- Node5 -->
<g id="node3" class="node">
<title>Node5</title>
<g id="a_node3"><a xlink:href="classDGtal_1_1InHalfPlaneBySimple3x3Matrix.html" target="_top" xlink:title=" ">
<polygon fill="#ffffff" stroke="#000000" points="1255.3613,-33.5 1255.3613,-61.5 1412.5381,-61.5 1412.5381,-33.5 1255.3613,-33.5"/>
<text text-anchor="start" x="1263.3613" y="-49.5" font-family="FreeSans" font-size="10.00" fill="#000000">DGtal::InHalfPlaneBySimple3x3</text>
<text text-anchor="middle" x="1333.9497" y="-39.5" font-family="FreeSans" font-size="10.00" fill="#000000">Matrix&lt; Point, double &gt;</text>
</a>
</g>
</g>
<!-- Node5&#45;&gt;Node4 -->
<g id="edge2" class="edge">
<title>Node5&#45;&gt;Node4</title>
<path fill="none" stroke="#9a32cd" stroke-dasharray="5,2" d="M1422.8566,-55.0635C1522.8557,-62.3911 1690.0624,-71.099 1833.6367,-61.5 1839.4664,-61.1102 1845.4673,-60.5992 1851.5055,-60.0032"/>
<polygon fill="#9a32cd" stroke="#9a32cd" points="1423.0275,-51.5666 1412.7951,-54.3142 1422.5075,-58.5473 1423.0275,-51.5666"/>
<text text-anchor="middle" x="1597.478" y="-68.5" font-family="FreeSans" font-size="10.00" fill="#000000"> myFunctor</text>
</g>
<!-- Node12 -->
<g id="node10" class="node">
<title>Node12</title>
<g id="a_node10"><a xlink:href="classDGtal_1_1detail_1_1PosIndepScaleIndepSCEstimator.html" target="_top" xlink:title=" ">
<polygon fill="#ffffff" stroke="#000000" points="1498.5479,-.5 1498.5479,-38.5 1696.4082,-38.5 1696.4082,-.5 1498.5479,-.5"/>
<text text-anchor="start" x="1506.5479" y="-26.5" font-family="FreeSans" font-size="10.00" fill="#000000">DGtal::detail::PosIndepScale</text>
<text text-anchor="start" x="1506.5479" y="-16.5" font-family="FreeSans" font-size="10.00" fill="#000000">IndepSCEstimator&lt; TSegmentComputer,</text>
<text text-anchor="middle" x="1597.478" y="-6.5" font-family="FreeSans" font-size="10.00" fill="#000000"> Functor, ReturnType &gt;</text>
</a>
</g>
</g>
<!-- Node5&#45;&gt;Node12 -->
<g id="edge12" class="edge">
<title>Node5&#45;&gt;Node12</title>
<path fill="none" stroke="#9a32cd" stroke-dasharray="5,2" d="M1422.8811,-38.051C1447.0646,-35.4815 1473.4082,-32.6825 1498.1287,-30.0559"/>
<polygon fill="#9a32cd" stroke="#9a32cd" points="1422.2341,-34.5999 1412.6599,-39.137 1422.9738,-41.5608 1422.2341,-34.5999"/>
<text text-anchor="middle" x="1455.543" y="-39.5" font-family="FreeSans" font-size="10.00" fill="#000000"> myFunctor</text>
</g>
<!-- Node6 -->
<g id="node4" class="node">
<title>Node6</title>
<g id="a_node4"><a xlink:href="classDGtal_1_1SimpleMatrix.html" target="_top" xlink:title=" ">
<polygon fill="#ffffff" stroke="#000000" points="799.5547,-33.5 799.5547,-61.5 904.4609,-61.5 904.4609,-33.5 799.5547,-33.5"/>
<text text-anchor="start" x="807.5547" y="-49.5" font-family="FreeSans" font-size="10.00" fill="#000000">DGtal::SimpleMatrix</text>
<text text-anchor="middle" x="852.0078" y="-39.5" font-family="FreeSans" font-size="10.00" fill="#000000">&lt; Integer, 3, 3 &gt;</text>
</a>
</g>
</g>
<!-- Node6&#45;&gt;Node5 -->
<g id="edge3" class="edge">
<title>Node6&#45;&gt;Node5</title>
<path fill="none" stroke="#9a32cd" stroke-dasharray="5,2" d="M914.7712,-53.1181C917.3677,-53.2641 919.939,-53.3928 922.4609,-53.5 941.7014,-54.3178 946.5332,-53.5355 965.791,-53.5 1086.4895,-53.2778 1116.7089,-55.8431 1237.3613,-52.5 1243.1521,-52.3395 1249.1363,-52.1315 1255.1566,-51.8917"/>
<polygon fill="#9a32cd" stroke="#9a32cd" points="914.8842,-49.6183 904.6825,-52.4776 914.4406,-56.6042 914.8842,-49.6183"/>
<text text-anchor="middle" x="1062.3794" y="-56.5" font-family="FreeSans" font-size="10.00" fill="#000000"> myMatrix</text>
</g>
<!-- Node11 -->
<g id="node9" class="node">
<title>Node11</title>
<g id="a_node9"><a xlink:href="classDGtal_1_1InHalfPlaneBySimple3x3Matrix.html" target="_top" xlink:title="Aim: Class that implements an orientation functor, ie. it provides a way to compute the orientation o...">
<polygon fill="#ffffff" stroke="#000000" points="983.791,-8.5 983.791,-36.5 1140.9678,-36.5 1140.9678,-8.5 983.791,-8.5"/>
<text text-anchor="start" x="991.791" y="-24.5" font-family="FreeSans" font-size="10.00" fill="#000000">DGtal::InHalfPlaneBySimple3x3</text>
<text text-anchor="middle" x="1062.3794" y="-14.5" font-family="FreeSans" font-size="10.00" fill="#000000">Matrix&lt; TPoint, TInteger &gt;</text>
</a>
</g>
</g>
<!-- Node6&#45;&gt;Node11 -->
<g id="edge10" class="edge">
<title>Node6&#45;&gt;Node11</title>
<path fill="none" stroke="#9a32cd" stroke-dasharray="5,2" d="M914.5888,-40.063C936.2131,-37.4933 960.7283,-34.58 983.4884,-31.8752"/>
<polygon fill="#9a32cd" stroke="#9a32cd" points="914.0679,-36.6002 904.5508,-41.2559 914.894,-43.5513 914.0679,-36.6002"/>
<text text-anchor="middle" x="944.126" y="-41.5" font-family="FreeSans" font-size="10.00" fill="#000000"> myMatrix</text>
</g>
<!-- Node7 -->
<g id="node5" class="node">
<title>Node7</title>
<g id="a_node5"><a xlink:title=" ">
<polygon fill="#ffffff" stroke="#bfbfbf" points="324.5195,-33.5 324.5195,-61.5 445.2949,-61.5 445.2949,-33.5 324.5195,-33.5"/>
<text text-anchor="start" x="332.5195" y="-49.5" font-family="FreeSans" font-size="10.00" fill="#000000">std::array&lt; Component,</text>
<text text-anchor="middle" x="384.9072" y="-39.5" font-family="FreeSans" font-size="10.00" fill="#000000"> M *N &gt;</text>
</a>
</g>
</g>
<!-- Node7&#45;&gt;Node6 -->
<g id="edge4" class="edge">
<title>Node7&#45;&gt;Node6</title>
<path fill="none" stroke="#9a32cd" stroke-dasharray="5,2" d="M455.6212,-58.8272C458.2082,-59.0818 460.7724,-59.308 463.2949,-59.5 583.2971,-68.6321 724.642,-59.2292 799.429,-52.6753"/>
<polygon fill="#9a32cd" stroke="#9a32cd" points="455.8942,-55.3362 445.5704,-57.7172 455.1257,-62.2939 455.8942,-55.3362"/>
<text text-anchor="middle" x="626.0186" y="-75.5" font-family="FreeSans" font-size="10.00" fill="#000000"> myCofactorCoefs</text>
<text text-anchor="middle" x="626.0186" y="-65.5" font-family="FreeSans" font-size="10.00" fill="#000000">myValues</text>
</g>
<!-- Node10 -->
<g id="node8" class="node">
<title>Node10</title>
<g id="a_node8"><a xlink:href="classDGtal_1_1SimpleMatrix.html" target="_top" xlink:title="Aim: implements basic MxN Matrix services (M,N&gt;=1).">
<polygon fill="#ffffff" stroke="#000000" points="561.3193,-8.5 561.3193,-36.5 690.7178,-36.5 690.7178,-8.5 561.3193,-8.5"/>
<text text-anchor="start" x="569.3193" y="-24.5" font-family="FreeSans" font-size="10.00" fill="#000000">DGtal::SimpleMatrix</text>
<text text-anchor="middle" x="626.0186" y="-14.5" font-family="FreeSans" font-size="10.00" fill="#000000">&lt; TComponent, TM, TN &gt;</text>
</a>
</g>
</g>
<!-- Node7&#45;&gt;Node10 -->
<g id="edge8" class="edge">
<title>Node7&#45;&gt;Node10</title>
<path fill="none" stroke="#9a32cd" stroke-dasharray="5,2" d="M455.5929,-40.1708C489.0012,-36.7069 528.6124,-32.5997 561.2348,-29.2172"/>
<polygon fill="#9a32cd" stroke="#9a32cd" points="455.0243,-36.711 445.4386,-41.2237 455.7463,-43.6736 455.0243,-36.711"/>
<text text-anchor="middle" x="503.3071" y="-51.5" font-family="FreeSans" font-size="10.00" fill="#000000"> myCofactorCoefs</text>
<text text-anchor="middle" x="503.3071" y="-41.5" font-family="FreeSans" font-size="10.00" fill="#000000">myValues</text>
</g>
<!-- Node8 -->
<g id="node6" class="node">
<title>Node8</title>
<g id="a_node6"><a xlink:title="STL class.">
<polygon fill="#ffffff" stroke="#bfbfbf" points="108.3545,-38.5 108.3545,-56.5 189.0273,-56.5 189.0273,-38.5 108.3545,-38.5"/>
<text text-anchor="middle" x="148.6909" y="-44.5" font-family="FreeSans" font-size="10.00" fill="#000000">std::array&lt; T &gt;</text>
</a>
</g>
</g>
<!-- Node8&#45;&gt;Node7 -->
<g id="edge5" class="edge">
<title>Node8&#45;&gt;Node7</title>
<path fill="none" stroke="#ffa500" stroke-dasharray="5,2" d="M199.4699,-47.5C236.0817,-47.5 285.6542,-47.5 324.3333,-47.5"/>
<polygon fill="#ffa500" stroke="#ffa500" points="199.0296,-44.0001 189.0296,-47.5 199.0295,-51.0001 199.0296,-44.0001"/>
<text text-anchor="middle" x="256.7734" y="-49.5" font-family="FreeSans" font-size="10.00" fill="#000000"> &lt; Component, M *N &gt;</text>
</g>
<!-- Node9 -->
<g id="node7" class="node">
<title>Node9</title>
<g id="a_node7"><a xlink:title=" ">
<polygon fill="#ffffff" stroke="#bfbfbf" points="0,-38.5 0,-56.5 29,-56.5 29,-38.5 0,-38.5"/>
<text text-anchor="middle" x="14.5" y="-44.5" font-family="FreeSans" font-size="10.00" fill="#000000">T</text>
</a>
</g>
</g>
<!-- Node9&#45;&gt;Node8 -->
<g id="edge6" class="edge">
<title>Node9&#45;&gt;Node8</title>
<path fill="none" stroke="#9a32cd" stroke-dasharray="5,2" d="M39.1956,-47.5C58.4766,-47.5 85.6719,-47.5 108.1355,-47.5"/>
<polygon fill="#9a32cd" stroke="#9a32cd" points="39.1163,-44.0001 29.1162,-47.5 39.1162,-51.0001 39.1163,-44.0001"/>
<text text-anchor="middle" x="68.6772" y="-49.5" font-family="FreeSans" font-size="10.00" fill="#000000"> elements</text>
</g>
<!-- Node10&#45;&gt;Node6 -->
<g id="edge7" class="edge">
<title>Node10&#45;&gt;Node6</title>
<path fill="none" stroke="#ffa500" stroke-dasharray="5,2" d="M701.0607,-30.8015C733.2837,-34.3662 770.1657,-38.4462 799.4065,-41.681"/>
<polygon fill="#ffa500" stroke="#ffa500" points="701.1022,-27.2848 690.778,-29.664 700.3325,-34.2424 701.1022,-27.2848"/>
<text text-anchor="middle" x="745.1362" y="-41.5" font-family="FreeSans" font-size="10.00" fill="#000000"> &lt; Integer, 3, 3 &gt;</text>
</g>
<!-- Node11&#45;&gt;Node5 -->
<g id="edge9" class="edge">
<title>Node11&#45;&gt;Node5</title>
<path fill="none" stroke="#ffa500" stroke-dasharray="5,2" d="M1151.5396,-30.7078C1185.0346,-33.7913 1222.8378,-37.2713 1255.3085,-40.2605"/>
<polygon fill="#ffa500" stroke="#ffa500" points="1151.5723,-27.1961 1141.2936,-29.7646 1150.9306,-34.1667 1151.5723,-27.1961"/>
<text text-anchor="middle" x="1198.1646" y="-40.5" font-family="FreeSans" font-size="10.00" fill="#000000"> &lt; Point, double &gt;</text>
</g>
<!-- Node12&#45;&gt;Node4 -->
<g id="edge11" class="edge">
<title>Node12&#45;&gt;Node4</title>
<path fill="none" stroke="#ffa500" stroke-dasharray="5,2" d="M1707.0157,-28.5104C1753.7501,-32.3547 1807.5049,-36.7765 1851.3783,-40.3854"/>
<polygon fill="#ffa500" stroke="#ffa500" points="1707.1016,-25.0057 1696.8483,-27.674 1706.5276,-31.9822 1707.1016,-25.0057"/>
<text text-anchor="start" x="1714.4082" y="-50.5" font-family="FreeSans" font-size="10.00" fill="#000000"> &lt; DSSComputer, detail</text>
<text text-anchor="middle" x="1774.0225" y="-40.5" font-family="FreeSans" font-size="10.00" fill="#000000">::TangentAngleFromDSS &gt;</text>
</g>
</g>
</svg>
