<?xml version="1.0" encoding="UTF-8" standalone="no"?>
<!DOCTYPE svg PUBLIC "-//W3C//DTD SVG 1.1//EN"
 "http://www.w3.org/Graphics/SVG/1.1/DTD/svg11.dtd">
<!-- Generated by graphviz version 2.40.1 (20161225.0304)
 -->
<!-- Title: DGtal::IteratorCompletion&lt; TDerived &gt; Pages: 1 -->
<svg width="686pt" height="95pt"
 viewBox="0.00 0.00 686.50 94.50" xmlns="http://www.w3.org/2000/svg" xmlns:xlink="http://www.w3.org/1999/xlink">
<g id="graph0" class="graph" transform="scale(1 1) rotate(0) translate(4 90.5)">
<title>DGtal::IteratorCompletion&lt; TDerived &gt;</title>
<polygon fill="#ffffff" stroke="transparent" points="-4,4 -4,-90.5 682.4951,-90.5 682.4951,4 -4,4"/>
<!-- Node0 -->
<g id="node1" class="node">
<title>Node0</title>
<g id="a_node1"><a xlink:title="Aim: Class that uses CRTP to add reverse iterators and ranges to a derived class.">
<polygon fill="#bfbfbf" stroke="#000000" points="0,-25.5 0,-53.5 129.3789,-53.5 129.3789,-25.5 0,-25.5"/>
<text text-anchor="start" x="8" y="-41.5" font-family="FreeSans" font-size="10.00" fill="#000000">DGtal::IteratorCompletion</text>
<text text-anchor="middle" x="64.6895" y="-31.5" font-family="FreeSans" font-size="10.00" fill="#000000">&lt; TDerived &gt;</text>
</a>
</g>
</g>
<!-- Node1 -->
<g id="node2" class="node">
<title>Node1</title>
<g id="a_node2"><a xlink:href="classDGtal_1_1IteratorCompletion.html" target="_top" xlink:title=" ">
<polygon fill="#ffffff" stroke="#000000" points="287.0098,-47.5 287.0098,-85.5 469.4063,-85.5 469.4063,-47.5 287.0098,-47.5"/>
<text text-anchor="start" x="295.0098" y="-73.5" font-family="FreeSans" font-size="10.00" fill="#000000">DGtal::IteratorCompletion</text>
<text text-anchor="start" x="295.0098" y="-63.5" font-family="FreeSans" font-size="10.00" fill="#000000">&lt; ArrayImageAdapter&lt; TArrayIterator,</text>
<text text-anchor="middle" x="378.208" y="-53.5" font-family="FreeSans" font-size="10.00" fill="#000000"> HyperRectDomain&lt; TSpace &gt; &gt; &gt;</text>
</a>
</g>
</g>
<!-- Node0&#45;&gt;Node1 -->
<g id="edge1" class="edge">
<title>Node0&#45;&gt;Node1</title>
<path fill="none" stroke="#ffa500" stroke-dasharray="5,2" d="M139.747,-45.9639C183.9314,-49.769 240.1348,-54.6092 286.8787,-58.6348"/>
<polygon fill="#ffa500" stroke="#ffa500" points="139.9142,-42.4654 129.6507,-45.0944 139.3135,-49.4396 139.9142,-42.4654"/>
<text text-anchor="start" x="147.3789" y="-78.5" font-family="FreeSans" font-size="10.00" fill="#000000"> &lt; ArrayImageAdapter</text>
<text text-anchor="start" x="147.3789" y="-68.5" font-family="FreeSans" font-size="10.00" fill="#000000">&lt; TArrayIterator, HyperRect</text>
<text text-anchor="middle" x="208.1943" y="-58.5" font-family="FreeSans" font-size="10.00" fill="#000000">Domain&lt; TSpace &gt; &gt; &gt;</text>
</g>
<!-- Node3 -->
<g id="node4" class="node">
<title>Node3</title>
<g id="a_node4"><a xlink:href="classDGtal_1_1IteratorCompletion.html" target="_top" xlink:title=" ">
<polygon fill="#ffffff" stroke="#000000" points="313.5186,-.5 313.5186,-28.5 442.8975,-28.5 442.8975,-.5 313.5186,-.5"/>
<text text-anchor="start" x="321.5186" y="-16.5" font-family="FreeSans" font-size="10.00" fill="#000000">DGtal::IteratorCompletion</text>
<text text-anchor="middle" x="378.208" y="-6.5" font-family="FreeSans" font-size="10.00" fill="#000000">&lt; MyImage&lt; T, N &gt; &gt;</text>
</a>
</g>
</g>
<!-- Node0&#45;&gt;Node3 -->
<g id="edge3" class="edge">
<title>Node0&#45;&gt;Node3</title>
<path fill="none" stroke="#ffa500" stroke-dasharray="5,2" d="M139.7115,-30.2432C142.2975,-29.9828 144.8592,-29.734 147.3789,-29.5 203.3606,-24.3 267.1469,-20.3015 313.4589,-17.7454"/>
<polygon fill="#ffa500" stroke="#ffa500" points="139.233,-26.7741 129.6529,-31.2987 139.9636,-33.7359 139.233,-26.7741"/>
<text text-anchor="middle" x="208.1943" y="-31.5" font-family="FreeSans" font-size="10.00" fill="#000000"> &lt; MyImage&lt; T, N &gt; &gt;</text>
</g>
<!-- Node2 -->
<g id="node3" class="node">
<title>Node2</title>
<g id="a_node3"><a xlink:href="classDGtal_1_1ArrayImageAdapter_3_01TArrayIterator_00_01HyperRectDomain_3_01TSpace_01_4_01_4.html" target="_top" xlink:title="Aim: Image adapter for generic arrays with sub&#45;domain view capability.">
<polygon fill="#ffffff" stroke="#000000" points="506.4063,-47.5 506.4063,-85.5 678.4951,-85.5 678.4951,-47.5 506.4063,-47.5"/>
<text text-anchor="start" x="514.4063" y="-73.5" font-family="FreeSans" font-size="10.00" fill="#000000">DGtal::ArrayImageAdapter</text>
<text text-anchor="start" x="514.4063" y="-63.5" font-family="FreeSans" font-size="10.00" fill="#000000">&lt; TArrayIterator, HyperRectDomain</text>
<text text-anchor="middle" x="592.4507" y="-53.5" font-family="FreeSans" font-size="10.00" fill="#000000">&lt; TSpace &gt; &gt;</text>
</a>
</g>
</g>
<!-- Node1&#45;&gt;Node2 -->
<g id="edge2" class="edge">
<title>Node1&#45;&gt;Node2</title>
<path fill="none" stroke="#191970" d="M479.7187,-66.5C488.6347,-66.5 497.6027,-66.5 506.3746,-66.5"/>
<polygon fill="#191970" stroke="#191970" points="479.6877,-63.0001 469.6876,-66.5 479.6876,-70.0001 479.6877,-63.0001"/>
</g>
<!-- Node4 -->
<g id="node5" class="node">
<title>Node4</title>
<g id="a_node5"><a xlink:title="[includes]">
<polygon fill="#ffffff" stroke="#bfbfbf" points="546.4697,-5.5 546.4697,-23.5 638.4316,-23.5 638.4316,-5.5 546.4697,-5.5"/>
<text text-anchor="middle" x="592.4507" y="-11.5" font-family="FreeSans" font-size="10.00" fill="#000000">MyImage&lt; T, N &gt;</text>
</a>
</g>
</g>
<!-- Node3&#45;&gt;Node4 -->
<g id="edge4" class="edge">
<title>Node3&#45;&gt;Node4</title>
<path fill="none" stroke="#191970" d="M453.3844,-14.5C484.2918,-14.5 519.1045,-14.5 546.1673,-14.5"/>
<polygon fill="#191970" stroke="#191970" points="453.0693,-11.0001 443.0693,-14.5 453.0692,-18.0001 453.0693,-11.0001"/>
</g>
</g>
</svg>
