<?xml version="1.0" encoding="UTF-8" standalone="no"?>
<!DOCTYPE svg PUBLIC "-//W3C//DTD SVG 1.1//EN"
 "http://www.w3.org/Graphics/SVG/1.1/DTD/svg11.dtd">
<!-- Generated by graphviz version 2.40.1 (20161225.0304)
 -->
<!-- Title: DGtal::Labels&lt; L, TWord &gt;::ConstEnumerator Pages: 1 -->
<svg width="134pt" height="102pt"
 viewBox="0.00 0.00 133.97 102.00" xmlns="http://www.w3.org/2000/svg" xmlns:xlink="http://www.w3.org/1999/xlink">
<g id="graph0" class="graph" transform="scale(1 1) rotate(0) translate(4 98)">
<title>DGtal::Labels&lt; L, TWord &gt;::ConstEnumerator</title>
<polygon fill="#ffffff" stroke="transparent" points="-4,4 -4,-98 129.9707,-98 129.9707,4 -4,4"/>
<!-- Node1 -->
<g id="node1" class="node">
<title>Node1</title>
<g id="a_node1"><a xlink:title=" ">
<polygon fill="#bfbfbf" stroke="#000000" points="0,-.5 0,-28.5 125.9707,-28.5 125.9707,-.5 0,-.5"/>
<text text-anchor="start" x="8" y="-16.5" font-family="FreeSans" font-size="10.00" fill="#000000">DGtal::Labels&lt; L, TWord</text>
<text text-anchor="middle" x="62.9854" y="-6.5" font-family="FreeSans" font-size="10.00" fill="#000000"> &gt;::ConstEnumerator</text>
</a>
</g>
</g>
<!-- Node2 -->
<g id="node2" class="node">
<title>Node2</title>
<g id="a_node2"><a xlink:title=" ">
<polygon fill="#ffffff" stroke="#bfbfbf" points="40.0732,-75.5 40.0732,-93.5 85.8975,-93.5 85.8975,-75.5 40.0732,-75.5"/>
<text text-anchor="middle" x="62.9854" y="-81.5" font-family="FreeSans" font-size="10.00" fill="#000000">TWord</text>
</a>
</g>
</g>
<!-- Node2&#45;&gt;Node1 -->
<g id="edge1" class="edge">
<title>Node2&#45;&gt;Node1</title>
<path fill="none" stroke="#9a32cd" stroke-dasharray="5,2" d="M62.9854,-65.0243C62.9854,-53.5169 62.9854,-39.2016 62.9854,-28.7499"/>
<polygon fill="#9a32cd" stroke="#9a32cd" points="59.4854,-65.3487 62.9854,-75.3487 66.4854,-65.3488 59.4854,-65.3487"/>
<text text-anchor="middle" x="82.8975" y="-49" font-family="FreeSans" font-size="10.00" fill="#000000"> myWord</text>
</g>
</g>
</svg>
