<?xml version="1.0" encoding="UTF-8" standalone="no"?>
<!DOCTYPE svg PUBLIC "-//W3C//DTD SVG 1.1//EN"
 "http://www.w3.org/Graphics/SVG/1.1/DTD/svg11.dtd">
<!-- Generated by graphviz version 2.40.1 (20161225.0304)
 -->
<!-- Title: exampleArithDSS3d.cpp Pages: 1 -->
<svg width="2675pt" height="692pt"
 viewBox="0.00 0.00 2674.81 692.00" xmlns="http://www.w3.org/2000/svg" xmlns:xlink="http://www.w3.org/1999/xlink">
<g id="graph0" class="graph" transform="scale(1 1) rotate(0) translate(4 688)">
<title>exampleArithDSS3d.cpp</title>
<polygon fill="#ffffff" stroke="transparent" points="-4,4 -4,-688 2670.8101,-688 2670.8101,4 -4,4"/>
<!-- Node0 -->
<g id="node1" class="node">
<title>Node0</title>
<g id="a_node1"><a xlink:title=" ">
<polygon fill="#bfbfbf" stroke="#000000" points="1623.5273,-665.5 1623.5273,-683.5 1748.4727,-683.5 1748.4727,-665.5 1623.5273,-665.5"/>
<text text-anchor="middle" x="1686" y="-671.5" font-family="FreeSans" font-size="10.00" fill="#000000">exampleArithDSS3d.cpp</text>
</a>
</g>
</g>
<!-- Node1 -->
<g id="node2" class="node">
<title>Node1</title>
<g id="a_node2"><a xlink:title=" ">
<polygon fill="#ffffff" stroke="#bfbfbf" points="1804.8276,-.5 1804.8276,-18.5 1859.1724,-18.5 1859.1724,-.5 1804.8276,-.5"/>
<text text-anchor="middle" x="1832" y="-6.5" font-family="FreeSans" font-size="10.00" fill="#000000">iostream</text>
</a>
</g>
</g>
<!-- Node0&#45;&gt;Node1 -->
<g id="edge1" class="edge">
<title>Node0&#45;&gt;Node1</title>
<path fill="none" stroke="#191970" d="M1623.3391,-673.7594C1392.0144,-670.8129 586.289,-658.6128 331,-629 181.6822,-611.6795 0,-709.819 0,-559.5 0,-559.5 0,-559.5 0,-119.5 0,-82.6774 18.9874,-71.3117 52,-55 132.8157,-15.0685 1544.4389,-10.13 1794.3438,-9.568"/>
<polygon fill="#191970" stroke="#191970" points="1794.7183,-13.0673 1804.7107,-9.5457 1794.7032,-6.0673 1794.7183,-13.0673"/>
</g>
<!-- Node2 -->
<g id="node3" class="node">
<title>Node2</title>
<g id="a_node3"><a xlink:href="Viewer3D_8h_source.html" target="_top" xlink:title=" ">
<polygon fill="#ffffff" stroke="#000000" points="676.4551,-610.5 676.4551,-628.5 819.5449,-628.5 819.5449,-610.5 676.4551,-610.5"/>
<text text-anchor="middle" x="748" y="-616.5" font-family="FreeSans" font-size="10.00" fill="#000000">DGtal/io/viewers/Viewer3D.h</text>
</a>
</g>
</g>
<!-- Node0&#45;&gt;Node2 -->
<g id="edge2" class="edge">
<title>Node0&#45;&gt;Node2</title>
<path fill="none" stroke="#191970" d="M1623.3642,-670.8273C1458.797,-661.1779 1014.2169,-635.1097 829.8414,-624.2988"/>
<polygon fill="#191970" stroke="#191970" points="829.8547,-620.7937 819.6669,-623.7022 829.4449,-627.7817 829.8547,-620.7937"/>
</g>
<!-- Node3 -->
<g id="node4" class="node">
<title>Node3</title>
<g id="a_node4"><a xlink:href="Common_8h_source.html" target="_top" xlink:title=" ">
<polygon fill="#ffffff" stroke="#ff0000" points="1375.1455,-230.5 1375.1455,-248.5 1492.8545,-248.5 1492.8545,-230.5 1375.1455,-230.5"/>
<text text-anchor="middle" x="1434" y="-236.5" font-family="FreeSans" font-size="10.00" fill="#000000">DGtal/base/Common.h</text>
</a>
</g>
</g>
<!-- Node0&#45;&gt;Node3 -->
<g id="edge117" class="edge">
<title>Node0&#45;&gt;Node3</title>
<path fill="none" stroke="#191970" d="M1684.7342,-665.3653C1680.9545,-641.6735 1667.5171,-577.8177 1629,-545 1580.7521,-503.8914 1536.7808,-552.8395 1491,-509 1419.8613,-440.8779 1426.2942,-307.9326 1431.5276,-258.5593"/>
<polygon fill="#191970" stroke="#191970" points="1435.0055,-258.9519 1432.6915,-248.6129 1428.0529,-258.1383 1435.0055,-258.9519"/>
</g>
<!-- Node109 -->
<g id="node34" class="node">
<title>Node109</title>
<g id="a_node34"><a xlink:href="StdDefs_8h_source.html" target="_top" xlink:title=" ">
<polygon fill="#ffffff" stroke="#ff0000" points="777.0864,-420.5 777.0864,-438.5 900.9136,-438.5 900.9136,-420.5 777.0864,-420.5"/>
<text text-anchor="middle" x="839" y="-426.5" font-family="FreeSans" font-size="10.00" fill="#000000">DGtal/helpers/StdDefs.h</text>
</a>
</g>
</g>
<!-- Node0&#45;&gt;Node109 -->
<g id="edge118" class="edge">
<title>Node0&#45;&gt;Node109</title>
<path fill="none" stroke="#191970" d="M1623.079,-672.8535C1338.5423,-665.1035 183.7638,-630.2608 133,-574 45.515,-477.0415 570.2191,-442.1246 766.8271,-432.5402"/>
<polygon fill="#191970" stroke="#191970" points="767.2391,-436.0246 777.0601,-432.0499 766.904,-429.0326 767.2391,-436.0246"/>
</g>
<!-- Node181 -->
<g id="node35" class="node">
<title>Node181</title>
<g id="a_node35"><a xlink:href="DrawWithDisplay3DModifier_8h_source.html" target="_top" xlink:title=" ">
<polygon fill="#ffffff" stroke="#000000" points="1499.707,-480.5 1499.707,-508.5 1636.293,-508.5 1636.293,-480.5 1499.707,-480.5"/>
<text text-anchor="start" x="1507.707" y="-496.5" font-family="FreeSans" font-size="10.00" fill="#000000">DGtal/io/DrawWithDisplay3</text>
<text text-anchor="middle" x="1568" y="-486.5" font-family="FreeSans" font-size="10.00" fill="#000000">DModifier.h</text>
</a>
</g>
</g>
<!-- Node0&#45;&gt;Node181 -->
<g id="edge102" class="edge">
<title>Node0&#45;&gt;Node181</title>
<path fill="none" stroke="#191970" d="M1686.8356,-665.3048C1688.4125,-642.5398 1689.5009,-582.6764 1662,-545 1651.8698,-531.1216 1636.7412,-520.6707 1621.5657,-512.9855"/>
<polygon fill="#191970" stroke="#191970" points="1622.6931,-509.6477 1612.1551,-508.5519 1619.7097,-515.9801 1622.6931,-509.6477"/>
</g>
<!-- Node185 -->
<g id="node42" class="node">
<title>Node185</title>
<g id="a_node42"><a xlink:href="Board3DTo2D_8h_source.html" target="_top" xlink:title="Header file for module Board3DTo2D.cpp.">
<polygon fill="#ffffff" stroke="#000000" points="1350.2959,-610.5 1350.2959,-628.5 1509.7041,-628.5 1509.7041,-610.5 1350.2959,-610.5"/>
<text text-anchor="middle" x="1430" y="-616.5" font-family="FreeSans" font-size="10.00" fill="#000000">DGtal/io/boards/Board3DTo2D.h</text>
</a>
</g>
</g>
<!-- Node0&#45;&gt;Node185 -->
<g id="edge91" class="edge">
<title>Node0&#45;&gt;Node185</title>
<path fill="none" stroke="#191970" d="M1644.0135,-665.4795C1599.6498,-655.9482 1529.6291,-640.9047 1481.8501,-630.6397"/>
<polygon fill="#191970" stroke="#191970" points="1482.5216,-627.2041 1472.0095,-628.5255 1481.0512,-634.048 1482.5216,-627.2041"/>
</g>
<!-- Node151 -->
<g id="node44" class="node">
<title>Node151</title>
<g id="a_node44"><a xlink:href="PointListReader_8h_source.html" target="_top" xlink:title=" ">
<polygon fill="#ffffff" stroke="#000000" points="2153.0298,-545.5 2153.0298,-573.5 2282.9702,-573.5 2282.9702,-545.5 2153.0298,-545.5"/>
<text text-anchor="start" x="2161.0298" y="-561.5" font-family="FreeSans" font-size="10.00" fill="#000000">DGtal/io/readers/PointList</text>
<text text-anchor="middle" x="2218" y="-551.5" font-family="FreeSans" font-size="10.00" fill="#000000">Reader.h</text>
</a>
</g>
</g>
<!-- Node0&#45;&gt;Node151 -->
<g id="edge103" class="edge">
<title>Node0&#45;&gt;Node151</title>
<path fill="none" stroke="#191970" d="M1727.7451,-665.4761C1817.3856,-646.099 2029.3435,-600.281 2142.9694,-575.719"/>
<polygon fill="#191970" stroke="#191970" points="2143.9479,-579.0884 2152.9826,-573.5545 2142.4689,-572.2464 2143.9479,-579.0884"/>
</g>
<!-- Node187 -->
<g id="node47" class="node">
<title>Node187</title>
<g id="a_node47"><a xlink:href="CDrawableWithDisplay3D_8h_source.html" target="_top" xlink:title=" ">
<polygon fill="#ffffff" stroke="#000000" points="1926.8623,-290.5 1926.8623,-308.5 2105.1377,-308.5 2105.1377,-290.5 1926.8623,-290.5"/>
<text text-anchor="middle" x="2016" y="-296.5" font-family="FreeSans" font-size="10.00" fill="#000000">DGtal/io/CDrawableWithDisplay3D.h</text>
</a>
</g>
</g>
<!-- Node0&#45;&gt;Node187 -->
<g id="edge113" class="edge">
<title>Node0&#45;&gt;Node187</title>
<path fill="none" stroke="#191970" d="M1748.6719,-670.3296C1915.0904,-658.6225 2358.3393,-623.0765 2401,-574 2513.2113,-444.9133 2187.7315,-344.1167 2062.6991,-311.0703"/>
<polygon fill="#191970" stroke="#191970" points="2063.5546,-307.6765 2052.9946,-308.5354 2061.7854,-314.4492 2063.5546,-307.6765"/>
</g>
<!-- Node188 -->
<g id="node48" class="node">
<title>Node188</title>
<g id="a_node48"><a xlink:title=" ">
<polygon fill="#ffffff" stroke="#bfbfbf" points="2337.4238,-610.5 2337.4238,-628.5 2434.5762,-628.5 2434.5762,-610.5 2337.4238,-610.5"/>
<text text-anchor="middle" x="2386" y="-616.5" font-family="FreeSans" font-size="10.00" fill="#000000">ConfigExamples.h</text>
</a>
</g>
</g>
<!-- Node0&#45;&gt;Node188 -->
<g id="edge119" class="edge">
<title>Node0&#45;&gt;Node188</title>
<path fill="none" stroke="#191970" d="M1748.5355,-671.6621C1862.8425,-666.1126 2113.0766,-652.2886 2323,-629 2324.2986,-628.8559 2325.6116,-628.7049 2326.9347,-628.5479"/>
<polygon fill="#191970" stroke="#191970" points="2327.7312,-631.975 2337.2105,-627.2429 2326.8492,-625.0308 2327.7312,-631.975"/>
</g>
<!-- Node189 -->
<g id="node49" class="node">
<title>Node189</title>
<g id="a_node49"><a xlink:href="StandardDSS6Computer_8h_source.html" target="_top" xlink:title="Dynamic recognition of a 3d&#45;digital straight segment (DSS).">
<polygon fill="#ffffff" stroke="#ff0000" points="2351.4067,-285.5 2351.4067,-313.5 2488.5933,-313.5 2488.5933,-285.5 2351.4067,-285.5"/>
<text text-anchor="start" x="2359.4067" y="-301.5" font-family="FreeSans" font-size="10.00" fill="#000000">DGtal/geometry/curves</text>
<text text-anchor="middle" x="2420" y="-291.5" font-family="FreeSans" font-size="10.00" fill="#000000">/StandardDSS6Computer.h</text>
</a>
</g>
</g>
<!-- Node0&#45;&gt;Node189 -->
<g id="edge120" class="edge">
<title>Node0&#45;&gt;Node189</title>
<path fill="none" stroke="#191970" d="M1748.6551,-672.7146C1925.4499,-667.4168 2417.1653,-650.7866 2444,-629 2468.8605,-608.8162 2463,-591.5224 2463,-559.5 2463,-559.5 2463,-559.5 2463,-429.5 2463,-390.6754 2445.4988,-348.4779 2432.8268,-323.013"/>
<polygon fill="#191970" stroke="#191970" points="2435.7756,-321.0941 2428.088,-313.8036 2429.5513,-324.2969 2435.7756,-321.0941"/>
</g>
<!-- Node219 -->
<g id="node50" class="node">
<title>Node219</title>
<g id="a_node50"><a xlink:href="GreedySegmentation_8h_source.html" target="_top" xlink:title="Header file for module GreedySegmentation.cpp.">
<polygon fill="#ffffff" stroke="#ff0000" points="2545.1899,-285.5 2545.1899,-313.5 2666.8101,-313.5 2666.8101,-285.5 2545.1899,-285.5"/>
<text text-anchor="start" x="2553.1899" y="-301.5" font-family="FreeSans" font-size="10.00" fill="#000000">DGtal/geometry/curves</text>
<text text-anchor="middle" x="2606" y="-291.5" font-family="FreeSans" font-size="10.00" fill="#000000">/GreedySegmentation.h</text>
</a>
</g>
</g>
<!-- Node0&#45;&gt;Node219 -->
<g id="edge123" class="edge">
<title>Node0&#45;&gt;Node219</title>
<path fill="none" stroke="#191970" d="M1748.6896,-672.5899C1921.8455,-667.0686 2398.391,-650.1271 2466,-629 2522.639,-611.3009 2580,-618.84 2580,-559.5 2580,-559.5 2580,-559.5 2580,-429.5 2580,-391.8736 2590.6024,-349.2901 2598.2662,-323.424"/>
<polygon fill="#191970" stroke="#191970" points="2601.6498,-324.328 2601.2312,-313.7414 2594.9566,-322.2784 2601.6498,-324.328"/>
</g>
<!-- Node2&#45;&gt;Node1 -->
<g id="edge27" class="edge">
<title>Node2&#45;&gt;Node1</title>
<path fill="none" stroke="#191970" d="M676.1819,-617.3512C520.2848,-612.2594 160.832,-598.0502 111,-574 67.7986,-553.1499 38,-542.4696 38,-494.5 38,-494.5 38,-494.5 38,-119.5 38,-24.8331 147.6677,-70.8404 241,-55 398.4694,-28.2742 1569.2354,-12.7099 1794.5476,-9.9457"/>
<polygon fill="#191970" stroke="#191970" points="1794.5977,-13.4454 1804.5543,-9.8237 1794.5124,-6.4459 1794.5977,-13.4454"/>
</g>
<!-- Node2&#45;&gt;Node3 -->
<g id="edge3" class="edge">
<title>Node2&#45;&gt;Node3</title>
<path fill="none" stroke="#191970" d="M819.9772,-617.9699C931.1996,-614.669 1139.0055,-604.5054 1206,-574 1244.343,-556.5408 1248.7011,-541.9148 1275,-509 1343.8966,-422.7713 1403.5843,-303.6612 1425.284,-258.1757"/>
<polygon fill="#191970" stroke="#191970" points="1428.5417,-259.4737 1429.6498,-248.937 1422.2128,-256.4829 1428.5417,-259.4737"/>
</g>
<!-- Node5 -->
<g id="node6" class="node">
<title>Node5</title>
<g id="a_node6"><a xlink:title=" ">
<polygon fill="#ffffff" stroke="#bfbfbf" points="385.436,-170.5 385.436,-188.5 442.564,-188.5 442.564,-170.5 385.436,-170.5"/>
<text text-anchor="middle" x="414" y="-176.5" font-family="FreeSans" font-size="10.00" fill="#000000">algorithm</text>
</a>
</g>
</g>
<!-- Node2&#45;&gt;Node5 -->
<g id="edge29" class="edge">
<title>Node2&#45;&gt;Node5</title>
<path fill="none" stroke="#191970" d="M676.3914,-616.7839C518.1629,-610.4349 151.2601,-593.661 133,-574 8.095,-439.5127 300.4723,-247.5651 389.3551,-193.9141"/>
<polygon fill="#191970" stroke="#191970" points="391.2123,-196.8817 397.9996,-188.7464 387.6204,-190.8734 391.2123,-196.8817"/>
</g>
<!-- Node43 -->
<g id="node20" class="node">
<title>Node43</title>
<g id="a_node20"><a xlink:title=" ">
<polygon fill="#ffffff" stroke="#bfbfbf" points="2140.3843,-420.5 2140.3843,-438.5 2183.6157,-438.5 2183.6157,-420.5 2140.3843,-420.5"/>
<text text-anchor="middle" x="2162" y="-426.5" font-family="FreeSans" font-size="10.00" fill="#000000">vector</text>
</a>
</g>
</g>
<!-- Node2&#45;&gt;Node43 -->
<g id="edge28" class="edge">
<title>Node2&#45;&gt;Node43</title>
<path fill="none" stroke="#191970" d="M819.5642,-616.6803C959.5961,-610.7625 1265.1155,-595.7711 1368,-574 1405.4093,-566.0839 1411.5639,-552.7886 1449,-545 1566.9621,-520.4578 1878.0705,-553.6001 1990,-509 2008.7665,-501.5222 2007.4403,-489.9879 2025,-480 2066.4231,-456.4387 2081.4443,-460.9057 2126,-444 2127.6025,-443.392 2129.242,-442.7616 2130.8952,-442.1194"/>
<polygon fill="#191970" stroke="#191970" points="2132.3386,-445.3125 2140.3538,-438.3837 2129.7672,-438.8018 2132.3386,-445.3125"/>
</g>
<!-- Node44 -->
<g id="node21" class="node">
<title>Node44</title>
<g id="a_node21"><a xlink:title=" ">
<polygon fill="#ffffff" stroke="#bfbfbf" points="689.8794,-550.5 689.8794,-568.5 738.1206,-568.5 738.1206,-550.5 689.8794,-550.5"/>
<text text-anchor="middle" x="714" y="-556.5" font-family="FreeSans" font-size="10.00" fill="#000000">GL/gl.h</text>
</a>
</g>
</g>
<!-- Node2&#45;&gt;Node44 -->
<g id="edge30" class="edge">
<title>Node2&#45;&gt;Node44</title>
<path fill="none" stroke="#191970" d="M742.8361,-610.3873C737.8935,-601.665 730.3009,-588.2663 724.1471,-577.4067"/>
<polygon fill="#191970" stroke="#191970" points="727.1877,-575.6731 719.2125,-568.6985 721.0976,-579.1243 727.1877,-575.6731"/>
</g>
<!-- Node45 -->
<g id="node22" class="node">
<title>Node45</title>
<g id="a_node22"><a xlink:title=" ">
<polygon fill="#ffffff" stroke="#bfbfbf" points="756.0986,-550.5 756.0986,-568.5 809.9014,-568.5 809.9014,-550.5 756.0986,-550.5"/>
<text text-anchor="middle" x="783" y="-556.5" font-family="FreeSans" font-size="10.00" fill="#000000">GL/glu.h</text>
</a>
</g>
</g>
<!-- Node2&#45;&gt;Node45 -->
<g id="edge31" class="edge">
<title>Node2&#45;&gt;Node45</title>
<path fill="none" stroke="#191970" d="M753.3157,-610.3873C758.4037,-601.665 766.2197,-588.2663 772.5544,-577.4067"/>
<polygon fill="#191970" stroke="#191970" points="775.6187,-579.0998 777.6342,-568.6985 769.5722,-575.5727 775.6187,-579.0998"/>
</g>
<!-- Node46 -->
<g id="node23" class="node">
<title>Node46</title>
<g id="a_node23"><a xlink:title=" ">
<polygon fill="#ffffff" stroke="#bfbfbf" points="827.6948,-550.5 827.6948,-568.5 934.3052,-568.5 934.3052,-550.5 827.6948,-550.5"/>
<text text-anchor="middle" x="881" y="-556.5" font-family="FreeSans" font-size="10.00" fill="#000000">QtGui/qapplication.h</text>
</a>
</g>
</g>
<!-- Node2&#45;&gt;Node46 -->
<g id="edge32" class="edge">
<title>Node2&#45;&gt;Node46</title>
<path fill="none" stroke="#191970" d="M768.1998,-610.3873C790.4949,-600.3294 826.5739,-584.0531 851.9119,-572.6225"/>
<polygon fill="#191970" stroke="#191970" points="853.3698,-575.8045 861.0458,-568.5019 850.4912,-569.4237 853.3698,-575.8045"/>
</g>
<!-- Node47 -->
<g id="node24" class="node">
<title>Node47</title>
<g id="a_node24"><a xlink:title=" ">
<polygon fill="#ffffff" stroke="#bfbfbf" points="142.208,-550.5 142.208,-568.5 261.792,-568.5 261.792,-550.5 142.208,-550.5"/>
<text text-anchor="middle" x="202" y="-556.5" font-family="FreeSans" font-size="10.00" fill="#000000">QGLViewer/qglviewer.h</text>
</a>
</g>
</g>
<!-- Node2&#45;&gt;Node47 -->
<g id="edge33" class="edge">
<title>Node2&#45;&gt;Node47</title>
<path fill="none" stroke="#191970" d="M676.1736,-615.166C582.549,-608.9415 413.8926,-595.7592 271,-574 264.6468,-573.0326 257.9975,-571.8521 251.4407,-570.5867"/>
<polygon fill="#191970" stroke="#191970" points="251.7622,-567.0815 241.2692,-568.5466 250.3856,-573.9448 251.7622,-567.0815"/>
</g>
<!-- Node48 -->
<g id="node25" class="node">
<title>Node48</title>
<g id="a_node25"><a xlink:title=" ">
<polygon fill="#ffffff" stroke="#bfbfbf" points="280.248,-550.5 280.248,-568.5 347.752,-568.5 347.752,-550.5 280.248,-550.5"/>
<text text-anchor="middle" x="314" y="-556.5" font-family="FreeSans" font-size="10.00" fill="#000000">QGLWidget</text>
</a>
</g>
</g>
<!-- Node2&#45;&gt;Node48 -->
<g id="edge34" class="edge">
<title>Node2&#45;&gt;Node48</title>
<path fill="none" stroke="#191970" d="M676.2509,-614.8376C598.2829,-608.8922 470.3386,-596.5655 362,-574 358.3327,-573.2362 354.5421,-572.3194 350.7732,-571.3227"/>
<polygon fill="#191970" stroke="#191970" points="351.522,-567.8974 340.9472,-568.548 349.6197,-574.634 351.522,-567.8974"/>
</g>
<!-- Node49 -->
<g id="node26" class="node">
<title>Node49</title>
<g id="a_node26"><a xlink:title=" ">
<polygon fill="#ffffff" stroke="#bfbfbf" points="403.7095,-550.5 403.7095,-568.5 470.2905,-568.5 470.2905,-550.5 403.7095,-550.5"/>
<text text-anchor="middle" x="437" y="-556.5" font-family="FreeSans" font-size="10.00" fill="#000000">QKeyEvent</text>
</a>
</g>
</g>
<!-- Node2&#45;&gt;Node49 -->
<g id="edge35" class="edge">
<title>Node2&#45;&gt;Node49</title>
<path fill="none" stroke="#191970" d="M676.2501,-610.6434C621.6709,-603.1183 544.9703,-590.8445 479,-574 476.3583,-573.3255 473.6455,-572.5609 470.9316,-571.7438"/>
<polygon fill="#191970" stroke="#191970" points="471.8147,-568.3514 461.2233,-568.623 469.6724,-575.0155 471.8147,-568.3514"/>
</g>
<!-- Node50 -->
<g id="node27" class="node">
<title>Node50</title>
<g id="a_node27"><a xlink:href="SpaceND_8h_source.html" target="_top" xlink:title=" ">
<polygon fill="#ffffff" stroke="#ff0000" points="619.2539,-290.5 619.2539,-308.5 744.7461,-308.5 744.7461,-290.5 619.2539,-290.5"/>
<text text-anchor="middle" x="682" y="-296.5" font-family="FreeSans" font-size="10.00" fill="#000000">DGtal/kernel/SpaceND.h</text>
</a>
</g>
</g>
<!-- Node2&#45;&gt;Node50 -->
<g id="edge36" class="edge">
<title>Node2&#45;&gt;Node50</title>
<path fill="none" stroke="#191970" d="M676.3602,-615.263C578.5688,-608.7367 413.2603,-594.765 395,-574 299.2458,-465.1113 554.5099,-349.874 648.683,-312.2062"/>
<polygon fill="#191970" stroke="#191970" points="650.0401,-315.4334 658.0532,-308.5023 647.4668,-308.9235 650.0401,-315.4334"/>
</g>
<!-- Node71 -->
<g id="node28" class="node">
<title>Node71</title>
<g id="a_node28"><a xlink:href="KhalimskySpaceND_8h_source.html" target="_top" xlink:title=" ">
<polygon fill="#ffffff" stroke="#ff0000" points="942.7539,-350.5 942.7539,-378.5 1073.2461,-378.5 1073.2461,-350.5 942.7539,-350.5"/>
<text text-anchor="start" x="950.7539" y="-366.5" font-family="FreeSans" font-size="10.00" fill="#000000">DGtal/topology/Khalimsky</text>
<text text-anchor="middle" x="1008" y="-356.5" font-family="FreeSans" font-size="10.00" fill="#000000">SpaceND.h</text>
</a>
</g>
</g>
<!-- Node2&#45;&gt;Node71 -->
<g id="edge39" class="edge">
<title>Node2&#45;&gt;Node71</title>
<path fill="none" stroke="#191970" d="M818.8198,-610.4721C866.9123,-602.9769 924.9335,-590.8169 943,-574 996.1928,-524.4863 1006.2009,-432.3802 1007.8492,-388.6929"/>
<polygon fill="#191970" stroke="#191970" points="1011.3482,-388.7722 1008.1094,-378.6846 1004.3506,-388.5902 1011.3482,-388.7722"/>
</g>
<!-- Node77 -->
<g id="node30" class="node">
<title>Node77</title>
<g id="a_node30"><a xlink:href="CountedPtr_8h_source.html" target="_top" xlink:title=" ">
<polygon fill="#ffffff" stroke="#ff0000" points="1810.4092,-355.5 1810.4092,-373.5 1937.5908,-373.5 1937.5908,-355.5 1810.4092,-355.5"/>
<text text-anchor="middle" x="1874" y="-361.5" font-family="FreeSans" font-size="10.00" fill="#000000">DGtal/base/CountedPtr.h</text>
</a>
</g>
</g>
<!-- Node2&#45;&gt;Node77 -->
<g id="edge44" class="edge">
<title>Node2&#45;&gt;Node77</title>
<path fill="none" stroke="#191970" d="M819.6914,-616.6543C918.1696,-611.9283 1100.5522,-600.2442 1254,-574 1305.5321,-565.1865 1316.5163,-554.0922 1368,-545 1525.0412,-517.2659 1571.6967,-552.9228 1725,-509 1756.4322,-499.9944 1836.9028,-469.7912 1857,-444 1870.4501,-426.7392 1873.8441,-401.2266 1874.4291,-383.7881"/>
<polygon fill="#191970" stroke="#191970" points="1877.9297,-383.6816 1874.4855,-373.6622 1870.9298,-383.6426 1877.9297,-383.6816"/>
</g>
<!-- Node79 -->
<g id="node31" class="node">
<title>Node79</title>
<g id="a_node31"><a xlink:href="Display3D_8h_source.html" target="_top" xlink:title=" ">
<polygon fill="#ffffff" stroke="#ff0000" points="1065.5938,-550.5 1065.5938,-568.5 1174.4063,-568.5 1174.4063,-550.5 1065.5938,-550.5"/>
<text text-anchor="middle" x="1120" y="-556.5" font-family="FreeSans" font-size="10.00" fill="#000000">DGtal/io/Display3D.h</text>
</a>
</g>
</g>
<!-- Node2&#45;&gt;Node79 -->
<g id="edge47" class="edge">
<title>Node2&#45;&gt;Node79</title>
<path fill="none" stroke="#191970" d="M804.0949,-610.4524C871.5149,-599.5782 984.4167,-581.3683 1055.4107,-569.9176"/>
<polygon fill="#191970" stroke="#191970" points="1056.2557,-573.3267 1065.5708,-568.2789 1055.141,-566.416 1056.2557,-573.3267"/>
</g>
<!-- Node107 -->
<g id="node39" class="node">
<title>Node107</title>
<g id="a_node39"><a xlink:href="CSpace_8h_source.html" target="_top" xlink:title=" ">
<polygon fill="#ffffff" stroke="#ff0000" points="1147.8647,-485.5 1147.8647,-503.5 1266.1353,-503.5 1266.1353,-485.5 1147.8647,-485.5"/>
<text text-anchor="middle" x="1207" y="-491.5" font-family="FreeSans" font-size="10.00" fill="#000000">DGtal/kernel/CSpace.h</text>
</a>
</g>
</g>
<!-- Node2&#45;&gt;Node107 -->
<g id="edge89" class="edge">
<title>Node2&#45;&gt;Node107</title>
<path fill="none" stroke="#191970" d="M819.807,-616.2956C936.1433,-610.4723 1155.6425,-596.6212 1183,-574 1200.6663,-559.3922 1205.6459,-532.2623 1206.8832,-513.8002"/>
<polygon fill="#191970" stroke="#191970" points="1210.3878,-513.7339 1207.2499,-503.6144 1203.3923,-513.482 1210.3878,-513.7339"/>
</g>
<!-- Node175 -->
<g id="node40" class="node">
<title>Node175</title>
<g id="a_node40"><a xlink:href="BasicMathFunctions_8h_source.html" target="_top" xlink:title=" ">
<polygon fill="#ffffff" stroke="#ff0000" points="433.1357,-290.5 433.1357,-308.5 600.8643,-308.5 600.8643,-290.5 433.1357,-290.5"/>
<text text-anchor="middle" x="517" y="-296.5" font-family="FreeSans" font-size="10.00" fill="#000000">DGtal/math/BasicMathFunctions.h</text>
</a>
</g>
</g>
<!-- Node2&#45;&gt;Node175 -->
<g id="edge86" class="edge">
<title>Node2&#45;&gt;Node175</title>
<path fill="none" stroke="#191970" d="M730.4966,-610.4474C715.9895,-602.3245 695.4747,-589.3399 681,-574 603.0755,-491.4178 544.9819,-365.5745 524.7722,-318.311"/>
<polygon fill="#191970" stroke="#191970" points="527.9527,-316.8452 520.8448,-308.9885 521.5018,-319.5629 527.9527,-316.8452"/>
</g>
<!-- Node184 -->
<g id="node41" class="node">
<title>Node184</title>
<g id="a_node41"><a xlink:href="Viewer3D_8ih_source.html" target="_top" xlink:title=" ">
<polygon fill="#ffffff" stroke="#000000" points="488.3442,-550.5 488.3442,-568.5 633.6558,-568.5 633.6558,-550.5 488.3442,-550.5"/>
<text text-anchor="middle" x="561" y="-556.5" font-family="FreeSans" font-size="10.00" fill="#000000">DGtal/io/viewers/Viewer3D.ih</text>
</a>
</g>
</g>
<!-- Node2&#45;&gt;Node184 -->
<g id="edge90" class="edge">
<title>Node2&#45;&gt;Node184</title>
<path fill="none" stroke="#191970" d="M719.5987,-610.3873C687.2849,-600.0192 634.3769,-583.0434 598.6467,-571.5791"/>
<polygon fill="#191970" stroke="#191970" points="599.647,-568.2244 589.0558,-568.5019 597.5084,-574.8897 599.647,-568.2244"/>
</g>
<!-- Node3&#45;&gt;Node1 -->
<g id="edge4" class="edge">
<title>Node3&#45;&gt;Node1</title>
<path fill="none" stroke="#191970" d="M1493.0845,-235.6628C1546.7418,-230.6679 1627.2988,-219.3471 1693,-194 1715.5483,-185.301 1716.5852,-174.0375 1739,-165 1812.2419,-135.4692 1863.1357,-190.2372 1913,-129 1942.0549,-93.3184 1887.7754,-47.3543 1854.7467,-24.208"/>
<polygon fill="#191970" stroke="#191970" points="1856.7108,-21.3111 1846.4759,-18.5731 1852.7695,-27.0961 1856.7108,-21.3111"/>
</g>
<!-- Node4 -->
<g id="node5" class="node">
<title>Node4</title>
<g id="a_node5"><a xlink:title=" ">
<polygon fill="#ffffff" stroke="#bfbfbf" points="1747.5962,-170.5 1747.5962,-188.5 1806.4038,-188.5 1806.4038,-170.5 1747.5962,-170.5"/>
<text text-anchor="middle" x="1777" y="-176.5" font-family="FreeSans" font-size="10.00" fill="#000000">exception</text>
</a>
</g>
</g>
<!-- Node3&#45;&gt;Node4 -->
<g id="edge5" class="edge">
<title>Node3&#45;&gt;Node4</title>
<path fill="none" stroke="#191970" d="M1492.9415,-233.6411C1553.8659,-226.8691 1651.4472,-214.0164 1734,-194 1736.9669,-193.2806 1740.0208,-192.4468 1743.0674,-191.5497"/>
<polygon fill="#191970" stroke="#191970" points="1744.1705,-194.8718 1752.6584,-188.5311 1742.0689,-188.1947 1744.1705,-194.8718"/>
</g>
<!-- Node3&#45;&gt;Node5 -->
<g id="edge6" class="edge">
<title>Node3&#45;&gt;Node5</title>
<path fill="none" stroke="#191970" d="M1375.0634,-236.5731C1240.268,-229.8036 899.1118,-212.2441 614,-194 558.0289,-190.4185 493.2979,-185.6023 452.9987,-182.5238"/>
<polygon fill="#191970" stroke="#191970" points="453.0423,-179.0169 442.804,-181.7422 452.5072,-185.9965 453.0423,-179.0169"/>
</g>
<!-- Node6 -->
<g id="node7" class="node">
<title>Node6</title>
<g id="a_node7"><a xlink:title=" ">
<polygon fill="#ffffff" stroke="#bfbfbf" points="1824.5298,-170.5 1824.5298,-188.5 1919.4702,-188.5 1919.4702,-170.5 1824.5298,-170.5"/>
<text text-anchor="middle" x="1872" y="-176.5" font-family="FreeSans" font-size="10.00" fill="#000000">boost/version.hpp</text>
</a>
</g>
</g>
<!-- Node3&#45;&gt;Node6 -->
<g id="edge7" class="edge">
<title>Node3&#45;&gt;Node6</title>
<path fill="none" stroke="#191970" d="M1493.1026,-234.8455C1568.3119,-228.373 1702.027,-215.0226 1815,-194 1819.7684,-193.1127 1824.7296,-192.0554 1829.648,-190.9219"/>
<polygon fill="#191970" stroke="#191970" points="1830.7082,-194.2666 1839.6078,-188.5179 1829.0658,-187.462 1830.7082,-194.2666"/>
</g>
<!-- Node7 -->
<g id="node8" class="node">
<title>Node7</title>
<g id="a_node8"><a xlink:title=" ">
<polygon fill="#ffffff" stroke="#bfbfbf" points="1937.2935,-170.5 1937.2935,-188.5 2066.7065,-188.5 2066.7065,-170.5 1937.2935,-170.5"/>
<text text-anchor="middle" x="2002" y="-176.5" font-family="FreeSans" font-size="10.00" fill="#000000">boost/concept_check.hpp</text>
</a>
</g>
</g>
<!-- Node3&#45;&gt;Node7 -->
<g id="edge8" class="edge">
<title>Node3&#45;&gt;Node7</title>
<path fill="none" stroke="#191970" d="M1493.16,-236.0018C1586.0837,-230.0687 1771.776,-216.441 1928,-194 1935.1272,-192.9762 1942.6076,-191.723 1949.9605,-190.3863"/>
<polygon fill="#191970" stroke="#191970" points="1950.6814,-193.8122 1959.8629,-188.5254 1949.3885,-186.9326 1950.6814,-193.8122"/>
</g>
<!-- Node8 -->
<g id="node9" class="node">
<title>Node8</title>
<g id="a_node9"><a xlink:title=" ">
<polygon fill="#ffffff" stroke="#bfbfbf" points="922.5815,-170.5 922.5815,-188.5 1041.4185,-188.5 1041.4185,-170.5 922.5815,-170.5"/>
<text text-anchor="middle" x="982" y="-176.5" font-family="FreeSans" font-size="10.00" fill="#000000">boost/static_assert.hpp</text>
</a>
</g>
</g>
<!-- Node3&#45;&gt;Node8 -->
<g id="edge9" class="edge">
<title>Node3&#45;&gt;Node8</title>
<path fill="none" stroke="#191970" d="M1375.0476,-234.1384C1299.6436,-226.9046 1165.1471,-212.7359 1051,-194 1044.817,-192.9851 1038.3479,-191.7964 1031.9544,-190.5439"/>
<polygon fill="#191970" stroke="#191970" points="1032.5164,-187.0868 1022.0215,-188.539 1031.1313,-193.9484 1032.5164,-187.0868"/>
</g>
<!-- Node9 -->
<g id="node10" class="node">
<title>Node9</title>
<g id="a_node10"><a xlink:title=" ">
<polygon fill="#ffffff" stroke="#bfbfbf" points="777.1309,-170.5 777.1309,-188.5 904.8691,-188.5 904.8691,-170.5 777.1309,-170.5"/>
<text text-anchor="middle" x="841" y="-176.5" font-family="FreeSans" font-size="10.00" fill="#000000">boost/concept/assert.hpp</text>
</a>
</g>
</g>
<!-- Node3&#45;&gt;Node9 -->
<g id="edge10" class="edge">
<title>Node3&#45;&gt;Node9</title>
<path fill="none" stroke="#191970" d="M1374.8837,-236.4269C1278.1576,-230.9285 1080.1965,-217.7052 914,-194 907.1244,-193.0193 899.918,-191.8112 892.8227,-190.5145"/>
<polygon fill="#191970" stroke="#191970" points="893.0354,-186.9925 882.5582,-188.5673 891.7306,-193.8698 893.0354,-186.9925"/>
</g>
<!-- Node10 -->
<g id="node11" class="node">
<title>Node10</title>
<g id="a_node11"><a xlink:title=" ">
<polygon fill="#ffffff" stroke="#bfbfbf" points="622.6826,-170.5 622.6826,-188.5 759.3174,-188.5 759.3174,-170.5 622.6826,-170.5"/>
<text text-anchor="middle" x="691" y="-176.5" font-family="FreeSans" font-size="10.00" fill="#000000">boost/concept/requires.hpp</text>
</a>
</g>
</g>
<!-- Node3&#45;&gt;Node10 -->
<g id="edge11" class="edge">
<title>Node3&#45;&gt;Node10</title>
<path fill="none" stroke="#191970" d="M1374.9729,-237.8041C1258.4955,-233.9421 991.0197,-222.5158 768,-194 760.2203,-193.0053 752.0392,-191.7231 744.0321,-190.3335"/>
<polygon fill="#191970" stroke="#191970" points="744.4884,-186.8594 734.026,-188.5293 743.2462,-193.7483 744.4884,-186.8594"/>
</g>
<!-- Node11 -->
<g id="node12" class="node">
<title>Node11</title>
<g id="a_node12"><a xlink:title=" ">
<polygon fill="#ffffff" stroke="#bfbfbf" points="1059.8672,-165.5 1059.8672,-193.5 1168.1328,-193.5 1168.1328,-165.5 1059.8672,-165.5"/>
<text text-anchor="start" x="1067.8672" y="-181.5" font-family="FreeSans" font-size="10.00" fill="#000000">boost/iterator/iterator</text>
<text text-anchor="middle" x="1114" y="-171.5" font-family="FreeSans" font-size="10.00" fill="#000000">_concepts.hpp</text>
</a>
</g>
</g>
<!-- Node3&#45;&gt;Node11 -->
<g id="edge12" class="edge">
<title>Node3&#45;&gt;Node11</title>
<path fill="none" stroke="#191970" d="M1378.1973,-230.464C1328.2758,-222.1893 1252.8681,-209.222 1178.2951,-194.2073"/>
<polygon fill="#191970" stroke="#191970" points="1178.754,-190.7292 1168.258,-192.1728 1177.3633,-197.5897 1178.754,-190.7292"/>
</g>
<!-- Node12 -->
<g id="node13" class="node">
<title>Node12</title>
<g id="a_node13"><a xlink:title=" ">
<polygon fill="#ffffff" stroke="#bfbfbf" points="1186.397,-170.5 1186.397,-188.5 1333.603,-188.5 1333.603,-170.5 1186.397,-170.5"/>
<text text-anchor="middle" x="1260" y="-176.5" font-family="FreeSans" font-size="10.00" fill="#000000">boost/concept_archetype.hpp</text>
</a>
</g>
</g>
<!-- Node3&#45;&gt;Node12 -->
<g id="edge13" class="edge">
<title>Node3&#45;&gt;Node12</title>
<path fill="none" stroke="#191970" d="M1407.5731,-230.3873C1377.7627,-220.1078 1329.1159,-203.3331 1295.8855,-191.8743"/>
<polygon fill="#191970" stroke="#191970" points="1296.7002,-188.453 1286.1054,-188.5019 1294.4182,-195.0707 1296.7002,-188.453"/>
</g>
<!-- Node13 -->
<g id="node14" class="node">
<title>Node13</title>
<g id="a_node14"><a xlink:title=" ">
<polygon fill="#ffffff" stroke="#bfbfbf" points="1351.3843,-170.5 1351.3843,-188.5 1394.6157,-188.5 1394.6157,-170.5 1351.3843,-170.5"/>
<text text-anchor="middle" x="1373" y="-176.5" font-family="FreeSans" font-size="10.00" fill="#000000">cmath</text>
</a>
</g>
</g>
<!-- Node3&#45;&gt;Node13 -->
<g id="edge14" class="edge">
<title>Node3&#45;&gt;Node13</title>
<path fill="none" stroke="#191970" d="M1424.7354,-230.3873C1415.4199,-221.2245 1400.8576,-206.9009 1389.553,-195.7817"/>
<polygon fill="#191970" stroke="#191970" points="1391.9354,-193.2156 1382.3518,-188.6985 1387.0267,-198.2061 1391.9354,-193.2156"/>
</g>
<!-- Node14 -->
<g id="node15" class="node">
<title>Node14</title>
<g id="a_node15"><a xlink:title=" ">
<polygon fill="#ffffff" stroke="#bfbfbf" points="1412.2686,-170.5 1412.2686,-188.5 1457.7314,-188.5 1457.7314,-170.5 1412.2686,-170.5"/>
<text text-anchor="middle" x="1435" y="-176.5" font-family="FreeSans" font-size="10.00" fill="#000000">stdio.h</text>
</a>
</g>
</g>
<!-- Node3&#45;&gt;Node14 -->
<g id="edge15" class="edge">
<title>Node3&#45;&gt;Node14</title>
<path fill="none" stroke="#191970" d="M1434.1519,-230.3873C1434.2914,-222.0174 1434.5026,-209.3414 1434.6794,-198.735"/>
<polygon fill="#191970" stroke="#191970" points="1438.1795,-198.7554 1434.8467,-188.6985 1431.1804,-198.6387 1438.1795,-198.7554"/>
</g>
<!-- Node15 -->
<g id="node16" class="node">
<title>Node15</title>
<g id="a_node16"><a xlink:href="Config_8h_source.html" target="_top" xlink:title=" ">
<polygon fill="#ffffff" stroke="#ff0000" points="1432.9756,-55.5 1432.9756,-73.5 1539.0244,-73.5 1539.0244,-55.5 1432.9756,-55.5"/>
<text text-anchor="middle" x="1486" y="-61.5" font-family="FreeSans" font-size="10.00" fill="#000000">DGtal/base/Config.h</text>
</a>
</g>
</g>
<!-- Node3&#45;&gt;Node15 -->
<g id="edge16" class="edge">
<title>Node3&#45;&gt;Node15</title>
<path fill="none" stroke="#191970" d="M1442.8434,-230.2152C1450.5431,-221.5568 1461.3342,-207.9186 1467,-194 1482.0751,-156.9665 1485.403,-109.661 1486.0104,-83.7006"/>
<polygon fill="#191970" stroke="#191970" points="1489.5103,-83.7217 1486.1305,-73.6804 1482.5108,-83.6377 1489.5103,-83.7217"/>
</g>
<!-- Node17 -->
<g id="node17" class="node">
<title>Node17</title>
<g id="a_node17"><a xlink:href="Trace_8h_source.html" target="_top" xlink:title=" ">
<polygon fill="#ffffff" stroke="#ff0000" points="1513.8311,-170.5 1513.8311,-188.5 1616.1689,-188.5 1616.1689,-170.5 1513.8311,-170.5"/>
<text text-anchor="middle" x="1565" y="-176.5" font-family="FreeSans" font-size="10.00" fill="#000000">DGtal/base/Trace.h</text>
</a>
</g>
</g>
<!-- Node3&#45;&gt;Node17 -->
<g id="edge18" class="edge">
<title>Node3&#45;&gt;Node17</title>
<path fill="none" stroke="#191970" d="M1453.8961,-230.3873C1475.7592,-220.3737 1511.0795,-204.1964 1536.0189,-192.7738"/>
<polygon fill="#191970" stroke="#191970" points="1537.7116,-195.8482 1545.3459,-188.5019 1534.7967,-189.484 1537.7116,-195.8482"/>
</g>
<!-- Node24 -->
<g id="node18" class="node">
<title>Node24</title>
<g id="a_node18"><a xlink:href="TraceWriterTerm_8h_source.html" target="_top" xlink:title=" ">
<polygon fill="#ffffff" stroke="#ff0000" points="1590.478,-110.5 1590.478,-128.5 1741.522,-128.5 1741.522,-110.5 1590.478,-110.5"/>
<text text-anchor="middle" x="1666" y="-116.5" font-family="FreeSans" font-size="10.00" fill="#000000">DGtal/base/TraceWriterTerm.h</text>
</a>
</g>
</g>
<!-- Node3&#45;&gt;Node24 -->
<g id="edge24" class="edge">
<title>Node3&#45;&gt;Node24</title>
<path fill="none" stroke="#191970" d="M1493.2261,-230.7644C1541.3352,-222.706 1604.4562,-209.6427 1625,-194 1643.2107,-180.1338 1654.4017,-155.738 1660.3963,-138.6523"/>
<polygon fill="#191970" stroke="#191970" points="1663.8786,-139.2557 1663.6067,-128.6644 1657.2144,-137.1136 1663.8786,-139.2557"/>
</g>
<!-- Node28 -->
<g id="node19" class="node">
<title>Node28</title>
<g id="a_node19"><a xlink:href="TraceWriterFile_8h_source.html" target="_top" xlink:title=" ">
<polygon fill="#ffffff" stroke="#ff0000" points="1759.5322,-110.5 1759.5322,-128.5 1904.4678,-128.5 1904.4678,-110.5 1759.5322,-110.5"/>
<text text-anchor="middle" x="1832" y="-116.5" font-family="FreeSans" font-size="10.00" fill="#000000">DGtal/base/TraceWriterFile.h</text>
</a>
</g>
</g>
<!-- Node3&#45;&gt;Node28 -->
<g id="edge25" class="edge">
<title>Node3&#45;&gt;Node28</title>
<path fill="none" stroke="#191970" d="M1493.2466,-231.641C1537.575,-224.6753 1599.2165,-212.6654 1651,-194 1676.997,-184.6293 1680.7213,-176.1642 1706,-165 1734.9242,-152.2258 1768.663,-140.1871 1793.9452,-131.7054"/>
<polygon fill="#191970" stroke="#191970" points="1795.1469,-134.9943 1803.5352,-128.5223 1792.9418,-128.3507 1795.1469,-134.9943"/>
</g>
<!-- Node15&#45;&gt;Node1 -->
<g id="edge17" class="edge">
<title>Node15&#45;&gt;Node1</title>
<path fill="none" stroke="#191970" d="M1539.3042,-56.0268C1609.9072,-44.8038 1732.679,-25.288 1794.3577,-15.4836"/>
<polygon fill="#191970" stroke="#191970" points="1795.1005,-18.9096 1804.427,-13.883 1794.0015,-11.9964 1795.1005,-18.9096"/>
</g>
<!-- Node17&#45;&gt;Node1 -->
<g id="edge19" class="edge">
<title>Node17&#45;&gt;Node1</title>
<path fill="none" stroke="#191970" d="M1564.5687,-170.2063C1564.3995,-155.6379 1566.1825,-127.3051 1581,-110 1636.3544,-45.3523 1739.2078,-21.8653 1794.5094,-13.6635"/>
<polygon fill="#191970" stroke="#191970" points="1795.1619,-17.1065 1804.5838,-12.2612 1794.1968,-10.1733 1795.1619,-17.1065"/>
</g>
<!-- Node17&#45;&gt;Node15 -->
<g id="edge20" class="edge">
<title>Node17&#45;&gt;Node15</title>
<path fill="none" stroke="#191970" d="M1558.801,-170.4761C1545.7706,-151.5078 1515.3348,-107.2025 1498.2289,-82.3015"/>
<polygon fill="#191970" stroke="#191970" points="1500.9368,-80.0621 1492.3896,-73.8014 1495.167,-84.0257 1500.9368,-80.0621"/>
</g>
<!-- Node17&#45;&gt;Node24 -->
<g id="edge21" class="edge">
<title>Node17&#45;&gt;Node24</title>
<path fill="none" stroke="#191970" d="M1580.3397,-170.3873C1596.7485,-160.6395 1622.9891,-145.051 1642.1077,-133.6934"/>
<polygon fill="#191970" stroke="#191970" points="1644.037,-136.6184 1650.8468,-128.5019 1640.4619,-130.6002 1644.037,-136.6184"/>
</g>
<!-- Node24&#45;&gt;Node1 -->
<g id="edge22" class="edge">
<title>Node24&#45;&gt;Node1</title>
<path fill="none" stroke="#191970" d="M1679.5845,-110.4982C1708.159,-91.5633 1774.7201,-47.4566 1809.6663,-24.2994"/>
<polygon fill="#191970" stroke="#191970" points="1811.8252,-27.0676 1818.2278,-18.6261 1807.9585,-21.2324 1811.8252,-27.0676"/>
</g>
<!-- Node24&#45;&gt;Node15 -->
<g id="edge23" class="edge">
<title>Node24&#45;&gt;Node15</title>
<path fill="none" stroke="#191970" d="M1636.2767,-110.4179C1605.9617,-101.155 1558.7608,-86.7325 1525.3578,-76.526"/>
<polygon fill="#191970" stroke="#191970" points="1526.0546,-73.0792 1515.4683,-73.5042 1524.0091,-79.7737 1526.0546,-73.0792"/>
</g>
<!-- Node28&#45;&gt;Node1 -->
<g id="edge26" class="edge">
<title>Node28&#45;&gt;Node1</title>
<path fill="none" stroke="#191970" d="M1832,-110.4982C1832,-92.6913 1832,-52.6225 1832,-28.6515"/>
<polygon fill="#191970" stroke="#191970" points="1835.5001,-28.6261 1832,-18.6261 1828.5001,-28.6262 1835.5001,-28.6261"/>
</g>
<!-- Node50&#45;&gt;Node1 -->
<g id="edge37" class="edge">
<title>Node50&#45;&gt;Node1</title>
<path fill="none" stroke="#191970" d="M656.9496,-290.4687C603.068,-270.2711 481,-220.0401 481,-179.5 481,-179.5 481,-179.5 481,-119.5 481,-84.7985 494.6044,-71.7423 525,-55 582.0238,-23.5905 1586.2342,-11.9379 1794.4101,-9.8546"/>
<polygon fill="#191970" stroke="#191970" points="1794.5727,-13.3533 1804.5377,-9.7546 1794.5035,-6.3536 1794.5727,-13.3533"/>
</g>
<!-- Node50&#45;&gt;Node3 -->
<g id="edge38" class="edge">
<title>Node50&#45;&gt;Node3</title>
<path fill="none" stroke="#191970" d="M722.2074,-290.4284C732.5245,-288.3693 743.6362,-286.3842 754,-285 976.154,-255.3298 1241.8547,-244.6561 1365.0262,-241.1112"/>
<polygon fill="#191970" stroke="#191970" points="1365.1744,-244.6085 1375.0721,-240.8289 1364.9776,-237.6113 1365.1744,-244.6085"/>
</g>
<!-- Node71&#45;&gt;Node1 -->
<g id="edge40" class="edge">
<title>Node71&#45;&gt;Node1</title>
<path fill="none" stroke="#191970" d="M984.4538,-350.4053C955.4221,-333.4095 904.2381,-304.6793 858,-285 798.3828,-259.6265 618.9986,-246.4798 581,-194 544.7693,-143.9617 538.1177,-99.4703 581,-55 602.6164,-32.5831 1588.8556,-13.8252 1794.6222,-10.1517"/>
<polygon fill="#191970" stroke="#191970" points="1794.7019,-13.6509 1804.6381,-9.9738 1794.5775,-6.652 1794.7019,-13.6509"/>
</g>
<!-- Node71&#45;&gt;Node3 -->
<g id="edge42" class="edge">
<title>Node71&#45;&gt;Node3</title>
<path fill="none" stroke="#191970" d="M1015.3752,-350.1949C1025.7419,-331.7061 1046.478,-300.1004 1074,-285 1122.5938,-258.3382 1274.4781,-246.8316 1364.6941,-242.243"/>
<polygon fill="#191970" stroke="#191970" points="1365.0251,-245.731 1374.8406,-241.7428 1364.6803,-238.7395 1365.0251,-245.731"/>
</g>
<!-- Node71&#45;&gt;Node50 -->
<g id="edge43" class="edge">
<title>Node71&#45;&gt;Node50</title>
<path fill="none" stroke="#191970" d="M942.7363,-351.5704C891.426,-341.394 818.1456,-326.8358 754,-314 748.5299,-312.9054 742.8266,-311.7615 737.1296,-310.617"/>
<polygon fill="#191970" stroke="#191970" points="737.4272,-307.1068 726.9335,-308.5669 736.0473,-313.9695 737.4272,-307.1068"/>
</g>
<!-- Node73 -->
<g id="node29" class="node">
<title>Node73</title>
<g id="a_node29"><a xlink:title=" ">
<polygon fill="#ffffff" stroke="#bfbfbf" points="1083.2734,-290.5 1083.2734,-308.5 1118.7266,-308.5 1118.7266,-290.5 1083.2734,-290.5"/>
<text text-anchor="middle" x="1101" y="-296.5" font-family="FreeSans" font-size="10.00" fill="#000000">map</text>
</a>
</g>
</g>
<!-- Node71&#45;&gt;Node73 -->
<g id="edge41" class="edge">
<title>Node71&#45;&gt;Node73</title>
<path fill="none" stroke="#191970" d="M1028.1796,-350.396C1043.3631,-339.7838 1064.1292,-325.2699 1079.6011,-314.4562"/>
<polygon fill="#191970" stroke="#191970" points="1081.8253,-317.1718 1088.0168,-308.5743 1077.8152,-311.4343 1081.8253,-317.1718"/>
</g>
<!-- Node77&#45;&gt;Node1 -->
<g id="edge45" class="edge">
<title>Node77&#45;&gt;Node1</title>
<path fill="none" stroke="#191970" d="M1937.8178,-360.1757C2008.5208,-354.1244 2116.5885,-340.7285 2147,-314 2173.1293,-291.0352 2171,-274.2868 2171,-239.5 2171,-239.5 2171,-239.5 2171,-119.5 2171,-88.9131 2170.8024,-74.2094 2147,-55 2104.9919,-21.0981 1943.6079,-12.4414 1869.5455,-10.2427"/>
<polygon fill="#191970" stroke="#191970" points="1869.3681,-6.7366 1859.2765,-9.9629 1869.1774,-13.734 1869.3681,-6.7366"/>
</g>
<!-- Node77&#45;&gt;Node3 -->
<g id="edge46" class="edge">
<title>Node77&#45;&gt;Node3</title>
<path fill="none" stroke="#191970" d="M1849.1475,-355.4984C1805.5549,-339.8981 1712.3035,-307.3666 1632,-285 1583.919,-271.6082 1528.4943,-259.119 1488.5356,-250.6263"/>
<polygon fill="#191970" stroke="#191970" points="1489.2311,-247.1961 1478.7238,-248.5552 1487.7852,-254.0451 1489.2311,-247.1961"/>
</g>
<!-- Node79&#45;&gt;Node1 -->
<g id="edge48" class="edge">
<title>Node79&#45;&gt;Node1</title>
<path fill="none" stroke="#191970" d="M1065.4263,-554.5542C869.7643,-536.4653 215,-472.7045 215,-429.5 215,-429.5 215,-429.5 215,-119.5 215,-70.2884 258.3773,-70.7513 305,-55 377.6957,-30.4401 1567.124,-13.0976 1794.5733,-9.9974"/>
<polygon fill="#191970" stroke="#191970" points="1794.7172,-13.4959 1804.6688,-9.8606 1794.6222,-6.4965 1794.7172,-13.4959"/>
</g>
<!-- Node79&#45;&gt;Node3 -->
<g id="edge52" class="edge">
<title>Node79&#45;&gt;Node3</title>
<path fill="none" stroke="#191970" d="M1120.5013,-550.4646C1122.1436,-526.8218 1128.8079,-461.7324 1154,-415 1191.7433,-344.9846 1209.0888,-326.41 1277,-285 1304.0924,-268.48 1337.4701,-257.7108 1366.4739,-250.8204"/>
<polygon fill="#191970" stroke="#191970" points="1367.5533,-254.1647 1376.533,-248.5419 1366.0068,-247.3376 1367.5533,-254.1647"/>
</g>
<!-- Node79&#45;&gt;Node5 -->
<g id="edge50" class="edge">
<title>Node79&#45;&gt;Node5</title>
<path fill="none" stroke="#191970" d="M1080.2797,-550.4282C1041.1891,-541.1788 979.973,-525.8309 928,-509 870.8754,-490.5008 459.7586,-362.2366 424,-314 398.764,-279.9579 404.211,-226.829 409.571,-198.6127"/>
<polygon fill="#191970" stroke="#191970" points="413.0026,-199.3014 411.6289,-188.796 406.1516,-197.8651 413.0026,-199.3014"/>
</g>
<!-- Node79&#45;&gt;Node43 -->
<g id="edge49" class="edge">
<title>Node79&#45;&gt;Node43</title>
<path fill="none" stroke="#191970" d="M1174.6801,-556.3804C1358.7248,-545.8561 1944.738,-512.1406 1954,-509 1975.8304,-501.5978 1976.0737,-489.6669 1997,-480 2051.0369,-455.0376 2069.6401,-463.1488 2126,-444 2127.6228,-443.4486 2129.2786,-442.8637 2130.9448,-442.2572"/>
<polygon fill="#191970" stroke="#191970" points="2132.3479,-445.4681 2140.4436,-438.6336 2129.8528,-438.9278 2132.3479,-445.4681"/>
</g>
<!-- Node79&#45;&gt;Node73 -->
<g id="edge51" class="edge">
<title>Node79&#45;&gt;Node73</title>
<path fill="none" stroke="#191970" d="M1116.7229,-550.3401C1113.318,-540.3336 1108.1877,-523.7595 1106,-509 1095.7476,-439.83 1098.0714,-356.4342 1099.8665,-319.1624"/>
<polygon fill="#191970" stroke="#191970" points="1103.3836,-318.9285 1100.4141,-308.7584 1096.3932,-318.5605 1103.3836,-318.9285"/>
</g>
<!-- Node79&#45;&gt;Node77 -->
<g id="edge53" class="edge">
<title>Node79&#45;&gt;Node77</title>
<path fill="none" stroke="#191970" d="M1174.5616,-555.9203C1290.1497,-548.0643 1556.3447,-528.4573 1645,-509 1730.5334,-490.2279 1764.3398,-500.787 1831,-444 1849.9827,-427.8289 1861.9679,-401.0989 1868.3282,-383.151"/>
<polygon fill="#191970" stroke="#191970" points="1871.6983,-384.1071 1871.5038,-373.5141 1865.0499,-381.9163 1871.6983,-384.1071"/>
</g>
<!-- Node35 -->
<g id="node32" class="node">
<title>Node35</title>
<g id="a_node32"><a xlink:href="Color_8h_source.html" target="_top" xlink:title=" ">
<polygon fill="#ffffff" stroke="#ff0000" points="762.7046,-290.5 762.7046,-308.5 849.2954,-308.5 849.2954,-290.5 762.7046,-290.5"/>
<text text-anchor="middle" x="806" y="-296.5" font-family="FreeSans" font-size="10.00" fill="#000000">DGtal/io/Color.h</text>
</a>
</g>
</g>
<!-- Node79&#45;&gt;Node35 -->
<g id="edge54" class="edge">
<title>Node79&#45;&gt;Node35</title>
<path fill="none" stroke="#191970" d="M1100.3414,-550.3628C1081.3195,-541.1207 1052.0605,-525.8284 1029,-509 943.2309,-446.4102 855.4486,-353.8408 821.0848,-316.2645"/>
<polygon fill="#191970" stroke="#191970" points="823.544,-313.7664 814.2286,-308.7192 818.3633,-318.474 823.544,-313.7664"/>
</g>
<!-- Node82 -->
<g id="node33" class="node">
<title>Node82</title>
<g id="a_node33"><a xlink:href="CConstImage_8h_source.html" target="_top" xlink:title=" ">
<polygon fill="#ffffff" stroke="#ff0000" points="840.584,-230.5 840.584,-248.5 989.416,-248.5 989.416,-230.5 840.584,-230.5"/>
<text text-anchor="middle" x="915" y="-236.5" font-family="FreeSans" font-size="10.00" fill="#000000">DGtal/images/CConstImage.h</text>
</a>
</g>
</g>
<!-- Node79&#45;&gt;Node82 -->
<g id="edge58" class="edge">
<title>Node79&#45;&gt;Node82</title>
<path fill="none" stroke="#191970" d="M1108.8942,-550.4157C1072.1806,-520.1423 955.8158,-422.1731 934,-379 914.1383,-339.694 912.8227,-286.6146 913.7858,-258.6198"/>
<polygon fill="#191970" stroke="#191970" points="917.2842,-258.7361 914.2711,-248.5788 910.2924,-258.3981 917.2842,-258.7361"/>
</g>
<!-- Node79&#45;&gt;Node109 -->
<g id="edge62" class="edge">
<title>Node79&#45;&gt;Node109</title>
<path fill="none" stroke="#191970" d="M1094.4481,-550.4309C1068.1747,-540.8894 1026.2367,-525.0545 991,-509 945.2718,-488.1654 893.788,-460.257 864.0031,-443.6517"/>
<polygon fill="#191970" stroke="#191970" points="865.5648,-440.5149 855.1299,-438.6809 862.1436,-446.6219 865.5648,-440.5149"/>
</g>
<!-- Node79&#45;&gt;Node181 -->
<g id="edge67" class="edge">
<title>Node79&#45;&gt;Node181</title>
<path fill="none" stroke="#191970" d="M1174.4857,-551.5947C1253.2652,-540.1646 1399.4109,-518.9605 1489.7224,-505.8572"/>
<polygon fill="#191970" stroke="#191970" points="1490.2433,-509.3184 1499.6371,-504.4187 1489.2382,-502.3909 1490.2433,-509.3184"/>
</g>
<!-- Node79&#45;&gt;Node107 -->
<g id="edge83" class="edge">
<title>Node79&#45;&gt;Node107</title>
<path fill="none" stroke="#191970" d="M1132.097,-550.462C1146.1718,-539.9464 1169.6384,-522.4138 1186.5584,-509.7725"/>
<polygon fill="#191970" stroke="#191970" points="1188.8091,-512.4599 1194.7253,-503.6708 1184.6194,-506.8522 1188.8091,-512.4599"/>
</g>
<!-- Node35&#45;&gt;Node1 -->
<g id="edge55" class="edge">
<title>Node35&#45;&gt;Node1</title>
<path fill="none" stroke="#191970" d="M773.5935,-290.4419C721.9992,-276.0159 626.86,-249.3937 626,-249 585.764,-230.5776 563.9354,-232.9876 543,-194 513.7738,-139.5728 500.0939,-99.4473 543,-55 565.3203,-31.8779 1584.7424,-13.6271 1794.5035,-10.1128"/>
<polygon fill="#191970" stroke="#191970" points="1794.7608,-13.6091 1804.701,-9.9429 1794.6441,-6.61 1794.7608,-13.6091"/>
</g>
<!-- Node35&#45;&gt;Node3 -->
<g id="edge56" class="edge">
<title>Node35&#45;&gt;Node3</title>
<path fill="none" stroke="#191970" d="M837.4552,-290.4835C845.7079,-288.3979 854.639,-286.3863 863,-285 1042.3898,-255.2564 1256.825,-244.7895 1364.7225,-241.2364"/>
<polygon fill="#191970" stroke="#191970" points="1364.9437,-244.7312 1374.8268,-240.9137 1364.7202,-237.7347 1364.9437,-244.7312"/>
</g>
<!-- Node35&#45;&gt;Node5 -->
<g id="edge57" class="edge">
<title>Node35&#45;&gt;Node5</title>
<path fill="none" stroke="#191970" d="M775.6117,-290.461C768.5521,-288.5187 761.0419,-286.5781 754,-285 661.1697,-264.1961 632.9509,-279.9694 543,-249 503.1151,-235.2679 460.7779,-210.1668 435.8985,-194.1857"/>
<polygon fill="#191970" stroke="#191970" points="437.5473,-191.0825 427.2595,-188.5501 433.7227,-196.9453 437.5473,-191.0825"/>
</g>
<!-- Node82&#45;&gt;Node7 -->
<g id="edge59" class="edge">
<title>Node82&#45;&gt;Node7</title>
<path fill="none" stroke="#191970" d="M989.6761,-237.5874C1191.7582,-232.1813 1746.321,-215.7575 1928,-194 1935.6773,-193.0806 1943.751,-191.8136 1951.6296,-190.4084"/>
<polygon fill="#191970" stroke="#191970" points="1952.2739,-193.8486 1961.4602,-188.5702 1950.9872,-186.9679 1952.2739,-193.8486"/>
</g>
<!-- Node82&#45;&gt;Node9 -->
<g id="edge60" class="edge">
<title>Node82&#45;&gt;Node9</title>
<path fill="none" stroke="#191970" d="M903.761,-230.3873C892.2429,-221.0483 874.1127,-206.3481 860.294,-195.1438"/>
<polygon fill="#191970" stroke="#191970" points="862.3167,-192.2779 852.3448,-188.6985 857.908,-197.7152 862.3167,-192.2779"/>
</g>
<!-- Node82&#45;&gt;Node10 -->
<g id="edge61" class="edge">
<title>Node82&#45;&gt;Node10</title>
<path fill="none" stroke="#191970" d="M880.9792,-230.3873C841.7755,-219.8863 777.2662,-202.607 734.4596,-191.141"/>
<polygon fill="#191970" stroke="#191970" points="735.1721,-187.7085 724.607,-188.5019 733.3609,-194.4701 735.1721,-187.7085"/>
</g>
<!-- Node109&#45;&gt;Node1 -->
<g id="edge63" class="edge">
<title>Node109&#45;&gt;Node1</title>
<path fill="none" stroke="#191970" d="M776.937,-427.8012C633.4635,-422.192 291,-398.4404 291,-299.5 291,-299.5 291,-299.5 291,-119.5 291,-24.8331 400.7109,-71.0924 494,-55 625.0724,-32.3899 1591.5005,-13.8357 1794.6106,-10.1614"/>
<polygon fill="#191970" stroke="#191970" points="1794.8355,-13.658 1804.7709,-9.9785 1794.7095,-6.6591 1794.8355,-13.658"/>
</g>
<!-- Node109&#45;&gt;Node3 -->
<g id="edge64" class="edge">
<title>Node109&#45;&gt;Node3</title>
<path fill="none" stroke="#191970" d="M847.4024,-420.4323C872.9165,-393.6217 952.9638,-314.7458 1038,-285 1096.6724,-264.4763 1268.0002,-250.3515 1364.9847,-243.7513"/>
<polygon fill="#191970" stroke="#191970" points="1365.2508,-247.2414 1374.9937,-243.0789 1364.7816,-240.2572 1365.2508,-247.2414"/>
</g>
<!-- Node109&#45;&gt;Node50 -->
<g id="edge65" class="edge">
<title>Node109&#45;&gt;Node50</title>
<path fill="none" stroke="#191970" d="M827.7089,-420.1507C801.1175,-398.1323 734.3057,-342.8105 701.2028,-315.4004"/>
<polygon fill="#191970" stroke="#191970" points="703.1232,-312.4465 693.1887,-308.7646 698.6588,-317.8381 703.1232,-312.4465"/>
</g>
<!-- Node109&#45;&gt;Node71 -->
<g id="edge66" class="edge">
<title>Node109&#45;&gt;Node71</title>
<path fill="none" stroke="#191970" d="M862.4987,-420.462C888.061,-410.6304 929.5708,-394.6651 961.7246,-382.2982"/>
<polygon fill="#191970" stroke="#191970" points="963.2981,-385.4431 971.3751,-378.5865 960.7852,-378.9097 963.2981,-385.4431"/>
</g>
<!-- Node181&#45;&gt;Node1 -->
<g id="edge68" class="edge">
<title>Node181&#45;&gt;Node1</title>
<path fill="none" stroke="#191970" d="M1636.5954,-489.7094C1761.7053,-480.631 2017.567,-460.3653 2055,-444 2072.8902,-436.1786 2072.0341,-426.2394 2088,-415 2159.4213,-364.722 2247,-386.8435 2247,-299.5 2247,-299.5 2247,-299.5 2247,-119.5 2247,-82.9547 2227.84,-72.9379 2196,-55 2140.7071,-23.8494 1950.8883,-13.6242 1869.5194,-10.623"/>
<polygon fill="#191970" stroke="#191970" points="1869.3543,-7.1151 1859.2373,-10.2612 1869.108,-14.1108 1869.3543,-7.1151"/>
</g>
<!-- Node181&#45;&gt;Node3 -->
<g id="edge69" class="edge">
<title>Node181&#45;&gt;Node3</title>
<path fill="none" stroke="#191970" d="M1536.2037,-480.4558C1520.4708,-472.0007 1502.4467,-459.7913 1491,-444 1448.0359,-384.7286 1468.3229,-355.3278 1448,-285 1445.4475,-276.1668 1442.4695,-266.4182 1439.9179,-258.2179"/>
<polygon fill="#191970" stroke="#191970" points="1443.2138,-257.0309 1436.8809,-248.537 1436.5348,-259.1262 1443.2138,-257.0309"/>
</g>
<!-- Node181&#45;&gt;Node71 -->
<g id="edge81" class="edge">
<title>Node181&#45;&gt;Node71</title>
<path fill="none" stroke="#191970" d="M1507.5381,-480.4642C1403.0779,-456.2145 1189.3686,-406.6034 1078.3946,-380.8416"/>
<polygon fill="#191970" stroke="#191970" points="1079.1657,-377.4276 1068.6332,-378.5756 1077.5827,-384.2463 1079.1657,-377.4276"/>
</g>
<!-- Node181&#45;&gt;Node77 -->
<g id="edge80" class="edge">
<title>Node181&#45;&gt;Node77</title>
<path fill="none" stroke="#191970" d="M1636.5358,-484.1104C1694.2417,-474.5312 1771.6225,-459.4895 1799,-444 1826.1255,-428.6531 1849.3174,-400.273 1862.457,-381.9016"/>
<polygon fill="#191970" stroke="#191970" points="1865.4176,-383.7739 1868.2266,-373.5582 1859.6601,-379.7925 1865.4176,-383.7739"/>
</g>
<!-- Node181&#45;&gt;Node82 -->
<g id="edge79" class="edge">
<title>Node181&#45;&gt;Node82</title>
<path fill="none" stroke="#191970" d="M1539.1491,-480.442C1519.6362,-470.7011 1493.4335,-457.1638 1471,-444 1360.0049,-378.8689 1349.3254,-330.6484 1229,-285 1188.3369,-269.5734 1078.3657,-255.866 1000.0618,-247.6265"/>
<polygon fill="#191970" stroke="#191970" points="1000.0239,-244.1038 989.7154,-246.5501 999.2995,-251.0662 1000.0239,-244.1038"/>
</g>
<!-- Node181&#45;&gt;Node109 -->
<g id="edge70" class="edge">
<title>Node181&#45;&gt;Node109</title>
<path fill="none" stroke="#191970" d="M1499.4174,-488.385C1361.6205,-476.0985 1052.3139,-448.5198 911.4073,-435.9561"/>
<polygon fill="#191970" stroke="#191970" points="911.4218,-432.4436 901.1504,-435.0415 910.8001,-439.4159 911.4218,-432.4436"/>
</g>
<!-- Node120 -->
<g id="node36" class="node">
<title>Node120</title>
<g id="a_node36"><a xlink:href="Alias_8h_source.html" target="_top" xlink:title=" ">
<polygon fill="#ffffff" stroke="#ff0000" points="1691.5913,-420.5 1691.5913,-438.5 1790.4087,-438.5 1790.4087,-420.5 1691.5913,-420.5"/>
<text text-anchor="middle" x="1741" y="-426.5" font-family="FreeSans" font-size="10.00" fill="#000000">DGtal/base/Alias.h</text>
</a>
</g>
</g>
<!-- Node181&#45;&gt;Node120 -->
<g id="edge71" class="edge">
<title>Node181&#45;&gt;Node120</title>
<path fill="none" stroke="#191970" d="M1605.5384,-480.396C1635.8948,-468.9904 1678.2469,-453.0778 1707.4755,-442.0959"/>
<polygon fill="#191970" stroke="#191970" points="1708.7183,-445.3679 1716.8484,-438.5743 1706.2563,-438.8152 1708.7183,-445.3679"/>
</g>
<!-- Node94 -->
<g id="node37" class="node">
<title>Node94</title>
<g id="a_node37"><a xlink:href="ConstAlias_8h_source.html" target="_top" xlink:title=" ">
<polygon fill="#ffffff" stroke="#ff0000" points="1921.5298,-420.5 1921.5298,-438.5 2046.4702,-438.5 2046.4702,-420.5 1921.5298,-420.5"/>
<text text-anchor="middle" x="1984" y="-426.5" font-family="FreeSans" font-size="10.00" fill="#000000">DGtal/base/ConstAlias.h</text>
</a>
</g>
</g>
<!-- Node181&#45;&gt;Node94 -->
<g id="edge75" class="edge">
<title>Node181&#45;&gt;Node94</title>
<path fill="none" stroke="#191970" d="M1636.6939,-483.7666C1714.1042,-471.6712 1839.1566,-452.1318 1916.1985,-440.094"/>
<polygon fill="#191970" stroke="#191970" points="1916.9368,-443.5212 1926.2765,-438.5193 1915.8561,-436.6051 1916.9368,-443.5212"/>
</g>
<!-- Node182 -->
<g id="node38" class="node">
<title>Node182</title>
<g id="a_node38"><a xlink:href="DrawWithDisplay3DModifier_8ih_source.html" target="_top" xlink:title=" ">
<polygon fill="#ffffff" stroke="#000000" points="1499.707,-415.5 1499.707,-443.5 1636.293,-443.5 1636.293,-415.5 1499.707,-415.5"/>
<text text-anchor="start" x="1507.707" y="-431.5" font-family="FreeSans" font-size="10.00" fill="#000000">DGtal/io/DrawWithDisplay3</text>
<text text-anchor="middle" x="1568" y="-421.5" font-family="FreeSans" font-size="10.00" fill="#000000">DModifier.ih</text>
</a>
</g>
</g>
<!-- Node181&#45;&gt;Node182 -->
<g id="edge82" class="edge">
<title>Node181&#45;&gt;Node182</title>
<path fill="none" stroke="#191970" d="M1568,-480.396C1568,-472.6448 1568,-462.8122 1568,-453.8601"/>
<polygon fill="#191970" stroke="#191970" points="1571.5001,-453.5765 1568,-443.5765 1564.5001,-453.5765 1571.5001,-453.5765"/>
</g>
<!-- Node120&#45;&gt;Node1 -->
<g id="edge72" class="edge">
<title>Node120&#45;&gt;Node1</title>
<path fill="none" stroke="#191970" d="M1744.8489,-420.4353C1752.638,-403.3389 1772.0282,-366.565 1801,-350 1922.561,-280.4959 2008.523,-406.1006 2114,-314 2139.7394,-291.5248 2133,-273.671 2133,-239.5 2133,-239.5 2133,-239.5 2133,-119.5 2133,-71.0082 2089.2481,-74.8384 2045,-55 1986.9857,-28.9895 1913.2963,-17.5185 1869.5475,-12.7083"/>
<polygon fill="#191970" stroke="#191970" points="1869.6704,-9.2023 1859.3621,-11.6499 1868.9468,-16.1648 1869.6704,-9.2023"/>
</g>
<!-- Node120&#45;&gt;Node3 -->
<g id="edge73" class="edge">
<title>Node120&#45;&gt;Node3</title>
<path fill="none" stroke="#191970" d="M1726.1928,-420.3359C1676.8504,-389.7983 1517.7455,-291.3295 1457.4546,-254.0159"/>
<polygon fill="#191970" stroke="#191970" points="1459.0039,-250.8586 1448.6587,-248.5721 1455.32,-256.8109 1459.0039,-250.8586"/>
</g>
<!-- Node120&#45;&gt;Node77 -->
<g id="edge74" class="edge">
<title>Node120&#45;&gt;Node77</title>
<path fill="none" stroke="#191970" d="M1759.4931,-420.462C1781.9967,-409.464 1820.2055,-390.7906 1846.2442,-378.0648"/>
<polygon fill="#191970" stroke="#191970" points="1847.7876,-381.2063 1855.2352,-373.6708 1844.7139,-374.9171 1847.7876,-381.2063"/>
</g>
<!-- Node94&#45;&gt;Node1 -->
<g id="edge76" class="edge">
<title>Node94&#45;&gt;Node1</title>
<path fill="none" stroke="#191970" d="M2010.694,-420.3551C2070.2942,-399.1229 2209,-344.8394 2209,-299.5 2209,-299.5 2209,-299.5 2209,-119.5 2209,-86.0004 2198.014,-73.3694 2170,-55 2121.1731,-22.9831 1946.9682,-13.2928 1869.5488,-10.5309"/>
<polygon fill="#191970" stroke="#191970" points="1869.4022,-7.0241 1859.2901,-10.1855 1869.1666,-14.0201 1869.4022,-7.0241"/>
</g>
<!-- Node94&#45;&gt;Node3 -->
<g id="edge77" class="edge">
<title>Node94&#45;&gt;Node3</title>
<path fill="none" stroke="#191970" d="M1982.3823,-420.319C1978.9573,-403.6857 1969.3726,-368.5729 1947,-350 1880.0119,-294.3888 1627.1048,-260.2228 1503.2281,-246.478"/>
<polygon fill="#191970" stroke="#191970" points="1503.4154,-242.9776 1493.0935,-245.3672 1502.6526,-249.9359 1503.4154,-242.9776"/>
</g>
<!-- Node94&#45;&gt;Node77 -->
<g id="edge78" class="edge">
<title>Node94&#45;&gt;Node77</title>
<path fill="none" stroke="#191970" d="M1968.705,-420.462C1950.5011,-409.7052 1919.8715,-391.6059 1898.387,-378.9105"/>
<polygon fill="#191970" stroke="#191970" points="1899.9096,-375.7448 1889.5197,-373.6708 1896.3484,-381.7713 1899.9096,-375.7448"/>
</g>
<!-- Node107&#45;&gt;Node1 -->
<g id="edge84" class="edge">
<title>Node107&#45;&gt;Node1</title>
<path fill="none" stroke="#191970" d="M1206.7005,-485.4813C1205.0746,-452.4563 1194.6513,-337.3303 1128,-285 1075.882,-244.0802 897.143,-261.1289 832,-249 782.8817,-239.8547 644.705,-233.4138 614,-194 606.079,-183.8324 605.5215,-174.7077 614,-165 693.9494,-73.4594 1598.0468,-21.6111 1794.4834,-11.382"/>
<polygon fill="#191970" stroke="#191970" points="1794.7917,-14.8708 1804.5978,-10.8597 1794.4306,-7.8801 1794.7917,-14.8708"/>
</g>
<!-- Node107&#45;&gt;Node3 -->
<g id="edge85" class="edge">
<title>Node107&#45;&gt;Node3</title>
<path fill="none" stroke="#191970" d="M1208.6859,-485.4726C1215.1433,-453.375 1241.2678,-343.5675 1306,-285 1324.0526,-268.6666 1348.358,-258.1074 1370.9386,-251.3215"/>
<polygon fill="#191970" stroke="#191970" points="1372.1399,-254.6197 1380.8239,-248.5503 1370.2504,-247.8796 1372.1399,-254.6197"/>
</g>
<!-- Node175&#45;&gt;Node3 -->
<g id="edge88" class="edge">
<title>Node175&#45;&gt;Node3</title>
<path fill="none" stroke="#191970" d="M569.0186,-290.4548C582.3433,-288.3952 596.6741,-286.4032 610,-285 888.8828,-255.633 1222.99,-244.5746 1364.8563,-240.9952"/>
<polygon fill="#191970" stroke="#191970" points="1365.2316,-244.4871 1375.1418,-240.7404 1365.0582,-237.4893 1365.2316,-244.4871"/>
</g>
<!-- Node175&#45;&gt;Node5 -->
<g id="edge87" class="edge">
<title>Node175&#45;&gt;Node5</title>
<path fill="none" stroke="#191970" d="M507.0328,-290.1733C496.6564,-280.2968 480.1184,-264.0794 467,-249 452.2942,-232.096 436.9206,-211.5707 426.5418,-197.2252"/>
<polygon fill="#191970" stroke="#191970" points="429.1687,-194.882 420.4999,-188.7906 423.478,-198.9583 429.1687,-194.882"/>
</g>
<!-- Node185&#45;&gt;Node1 -->
<g id="edge92" class="edge">
<title>Node185&#45;&gt;Node1</title>
<path fill="none" stroke="#191970" d="M1509.7292,-618.9149C1710.0191,-616.9344 2223.2308,-608.5142 2292,-574 2452.1333,-493.6315 2517,-418.6697 2517,-239.5 2517,-239.5 2517,-239.5 2517,-119.5 2517,-46.9313 2437.3934,-72.6351 2367,-55 2272.3672,-31.2924 1974.8308,-15.9355 1869.4509,-11.1225"/>
<polygon fill="#191970" stroke="#191970" points="1869.4371,-7.6184 1859.2895,-10.664 1869.1215,-14.6113 1869.4371,-7.6184"/>
</g>
<!-- Node185&#45;&gt;Node3 -->
<g id="edge96" class="edge">
<title>Node185&#45;&gt;Node3</title>
<path fill="none" stroke="#191970" d="M1428.5436,-610.3821C1422.5233,-571.1394 1400.7781,-412.8329 1420,-285 1421.3501,-276.0213 1424.1197,-266.3695 1426.8418,-258.2759"/>
<polygon fill="#191970" stroke="#191970" points="1430.1871,-259.3158 1430.2695,-248.7213 1423.5983,-256.952 1430.1871,-259.3158"/>
</g>
<!-- Node185&#45;&gt;Node5 -->
<g id="edge94" class="edge">
<title>Node185&#45;&gt;Node5</title>
<path fill="none" stroke="#191970" d="M1349.9209,-613.4104C1247.3914,-605.1508 1075.6208,-589.6265 1014,-574 980.9595,-565.6212 975.4032,-555.5787 943,-545 879.8778,-524.3924 861.1077,-529.6521 798,-509 653.2765,-461.639 610.4226,-459.2355 481,-379 443.7947,-355.9346 426.5676,-353.1581 407,-314 388.2599,-276.4979 399.2038,-225.5508 407.4443,-198.3879"/>
<polygon fill="#191970" stroke="#191970" points="410.8588,-199.2043 410.6116,-188.6123 404.1996,-197.0466 410.8588,-199.2043"/>
</g>
<!-- Node185&#45;&gt;Node43 -->
<g id="edge93" class="edge">
<title>Node185&#45;&gt;Node43</title>
<path fill="none" stroke="#191970" d="M1509.7788,-613.3879C1626.1602,-602.5518 1847.9027,-574.5929 2025,-509 2069.0591,-492.6815 2115.3314,-462.7335 2141.2376,-444.6175"/>
<polygon fill="#191970" stroke="#191970" points="2143.3842,-447.386 2149.5145,-438.7448 2139.3335,-441.677 2143.3842,-447.386"/>
</g>
<!-- Node185&#45;&gt;Node73 -->
<g id="edge95" class="edge">
<title>Node185&#45;&gt;Node73</title>
<path fill="none" stroke="#191970" d="M1420.5085,-610.2681C1374.8249,-565.8343 1177.3625,-373.7735 1117.9648,-316.0007"/>
<polygon fill="#191970" stroke="#191970" points="1120.1388,-313.2327 1110.53,-308.7693 1115.2582,-318.2507 1120.1388,-313.2327"/>
</g>
<!-- Node185&#45;&gt;Node77 -->
<g id="edge97" class="edge">
<title>Node185&#45;&gt;Node77</title>
<path fill="none" stroke="#191970" d="M1509.751,-615.926C1597.191,-610.8962 1741.2665,-599.3327 1863,-574 1956.9915,-554.4404 1980.3592,-545.8754 2069,-509 2097.7254,-497.05 2176.8979,-470.6209 2193,-444 2199.6707,-432.9716 2201.371,-424.8005 2193,-415 2177.2423,-396.5515 2036.9768,-379.9652 1947.7639,-371.1559"/>
<polygon fill="#191970" stroke="#191970" points="1947.9795,-367.6604 1937.6867,-370.1723 1947.2994,-374.6273 1947.9795,-367.6604"/>
</g>
<!-- Node185&#45;&gt;Node79 -->
<g id="edge98" class="edge">
<title>Node185&#45;&gt;Node79</title>
<path fill="none" stroke="#191970" d="M1383.2542,-610.4524C1327.9312,-599.7447 1235.8584,-581.9242 1176.5663,-570.4483"/>
<polygon fill="#191970" stroke="#191970" points="1177.1014,-566.987 1166.6185,-568.5229 1175.7712,-573.8595 1177.1014,-566.987"/>
</g>
<!-- Node185&#45;&gt;Node35 -->
<g id="edge99" class="edge">
<title>Node185&#45;&gt;Node35</title>
<path fill="none" stroke="#191970" d="M1349.9971,-614.1435C1256.8216,-607.1375 1109.0244,-593.4259 1057,-574 1035.4051,-565.9365 1034.3229,-555.8783 1014,-545 909.7991,-489.2239 833.8156,-542.1687 768,-444 741.1494,-403.9503 773.3261,-345.8767 792.9666,-317.069"/>
<polygon fill="#191970" stroke="#191970" points="795.8952,-318.9895 798.8121,-308.8041 790.1801,-314.9474 795.8952,-318.9895"/>
</g>
<!-- Node185&#45;&gt;Node107 -->
<g id="edge100" class="edge">
<title>Node185&#45;&gt;Node107</title>
<path fill="none" stroke="#191970" d="M1394.0356,-610.4324C1367.5345,-602.8841 1331.1793,-590.6749 1302,-574 1271.2344,-556.4186 1240.7183,-528.5363 1222.875,-510.8958"/>
<polygon fill="#191970" stroke="#191970" points="1225.1436,-508.2132 1215.613,-503.5851 1220.1773,-513.1464 1225.1436,-508.2132"/>
</g>
<!-- Node186 -->
<g id="node43" class="node">
<title>Node186</title>
<g id="a_node43"><a xlink:href="Board3DTo2D_8ih_source.html" target="_top" xlink:title=" ">
<polygon fill="#ffffff" stroke="#000000" points="1458.1851,-550.5 1458.1851,-568.5 1619.8149,-568.5 1619.8149,-550.5 1458.1851,-550.5"/>
<text text-anchor="middle" x="1539" y="-556.5" font-family="FreeSans" font-size="10.00" fill="#000000">DGtal/io/boards/Board3DTo2D.ih</text>
</a>
</g>
</g>
<!-- Node185&#45;&gt;Node186 -->
<g id="edge101" class="edge">
<title>Node185&#45;&gt;Node186</title>
<path fill="none" stroke="#191970" d="M1446.5548,-610.3873C1464.4242,-600.5509 1493.0981,-584.7671 1513.7761,-573.3847"/>
<polygon fill="#191970" stroke="#191970" points="1515.5739,-576.3904 1522.6466,-568.5019 1512.1983,-570.258 1515.5739,-576.3904"/>
</g>
<!-- Node151&#45;&gt;Node1 -->
<g id="edge104" class="edge">
<title>Node151&#45;&gt;Node1</title>
<path fill="none" stroke="#191970" d="M2280.6586,-545.4842C2299.7795,-537.9555 2318.7146,-526.468 2330,-509 2336.9943,-498.1739 2330.2498,-492.8865 2330,-480 2328.4442,-399.7326 2323,-379.7825 2323,-299.5 2323,-299.5 2323,-299.5 2323,-119.5 2323,-86.0004 2312.3176,-72.8978 2284,-55 2249.2696,-33.049 1971.6084,-16.6871 1869.5025,-11.3591"/>
<polygon fill="#191970" stroke="#191970" points="1869.5072,-7.8548 1859.3403,-10.8351 1869.1467,-14.8455 1869.5072,-7.8548"/>
</g>
<!-- Node151&#45;&gt;Node3 -->
<g id="edge106" class="edge">
<title>Node151&#45;&gt;Node3</title>
<path fill="none" stroke="#191970" d="M2204.2603,-545.3867C2196.054,-535.9338 2186.3966,-522.7416 2182,-509 2178.0724,-496.7241 2177.8171,-492.1913 2182,-480 2188.5783,-460.8274 2203.4217,-463.1726 2210,-444 2214.1829,-431.8087 2217.4865,-425.4917 2210,-415 2208.3876,-412.7404 1834.7075,-285.6127 1832,-285 1718.5564,-259.3296 1583.4756,-247.7808 1503.4439,-242.8584"/>
<polygon fill="#191970" stroke="#191970" points="1503.1949,-239.3374 1493.0039,-242.2348 1502.7774,-246.3249 1503.1949,-239.3374"/>
</g>
<!-- Node151&#45;&gt;Node43 -->
<g id="edge105" class="edge">
<title>Node151&#45;&gt;Node43</title>
<path fill="none" stroke="#191970" d="M2187.0937,-545.3364C2172.7244,-536.9753 2157.0596,-524.8862 2149,-509 2139.2537,-489.789 2145.9421,-464.915 2152.8166,-448.1475"/>
<polygon fill="#191970" stroke="#191970" points="2156.0752,-449.4346 2156.9757,-438.8781 2149.6887,-446.5689 2156.0752,-449.4346"/>
</g>
<!-- Node152 -->
<g id="node45" class="node">
<title>Node152</title>
<g id="a_node45"><a xlink:href="FreemanChain_8h_source.html" target="_top" xlink:title="Header file for module FreemanChain.cpp.">
<polygon fill="#ffffff" stroke="#ff0000" points="1826.8721,-480.5 1826.8721,-508.5 1945.1279,-508.5 1945.1279,-480.5 1826.8721,-480.5"/>
<text text-anchor="start" x="1834.8721" y="-496.5" font-family="FreeSans" font-size="10.00" fill="#000000">DGtal/geometry/curves</text>
<text text-anchor="middle" x="1886" y="-486.5" font-family="FreeSans" font-size="10.00" fill="#000000">/FreemanChain.h</text>
</a>
</g>
</g>
<!-- Node151&#45;&gt;Node152 -->
<g id="edge107" class="edge">
<title>Node151&#45;&gt;Node152</title>
<path fill="none" stroke="#191970" d="M2152.8036,-546.7356C2095.7681,-535.5691 2013.1808,-519.3999 1955.0347,-508.0158"/>
<polygon fill="#191970" stroke="#191970" points="1955.6845,-504.5767 1945.1983,-506.09 1954.3395,-511.4463 1955.6845,-504.5767"/>
</g>
<!-- Node164 -->
<g id="node46" class="node">
<title>Node164</title>
<g id="a_node46"><a xlink:href="PointListReader_8ih_source.html" target="_top" xlink:title=" ">
<polygon fill="#ffffff" stroke="#000000" points="2191.0298,-480.5 2191.0298,-508.5 2320.9702,-508.5 2320.9702,-480.5 2191.0298,-480.5"/>
<text text-anchor="start" x="2199.0298" y="-496.5" font-family="FreeSans" font-size="10.00" fill="#000000">DGtal/io/readers/PointList</text>
<text text-anchor="middle" x="2256" y="-486.5" font-family="FreeSans" font-size="10.00" fill="#000000">Reader.ih</text>
</a>
</g>
</g>
<!-- Node151&#45;&gt;Node164 -->
<g id="edge112" class="edge">
<title>Node151&#45;&gt;Node164</title>
<path fill="none" stroke="#191970" d="M2226.2454,-545.396C2231.0258,-537.219 2237.1606,-526.7254 2242.6164,-517.393"/>
<polygon fill="#191970" stroke="#191970" points="2245.7452,-518.9759 2247.7707,-508.5765 2239.7021,-515.443 2245.7452,-518.9759"/>
</g>
<!-- Node152&#45;&gt;Node1 -->
<g id="edge108" class="edge">
<title>Node152&#45;&gt;Node1</title>
<path fill="none" stroke="#191970" d="M1945.3728,-480.7624C2000.1306,-467.9126 2074.8748,-449.8482 2088,-444 2109.0556,-434.6182 2110.0641,-424.6461 2131,-415 2185.4507,-389.9122 2218.122,-420.9016 2261,-379 2287.3969,-353.2042 2285,-336.4083 2285,-299.5 2285,-299.5 2285,-299.5 2285,-119.5 2285,-88.9131 2285.1611,-73.7562 2261,-55 2230.3538,-31.2094 1968.283,-16.1233 1869.4825,-11.2363"/>
<polygon fill="#191970" stroke="#191970" points="1869.5103,-7.7336 1859.3518,-10.7427 1869.1696,-14.7253 1869.5103,-7.7336"/>
</g>
<!-- Node152&#45;&gt;Node43 -->
<g id="edge109" class="edge">
<title>Node152&#45;&gt;Node43</title>
<path fill="none" stroke="#191970" d="M1945.2241,-482.6036C2010.5857,-469.3847 2108.8646,-449.2096 2126,-444 2127.8856,-443.4267 2129.8103,-442.7952 2131.7406,-442.1261"/>
<polygon fill="#191970" stroke="#191970" points="2133.1377,-445.3406 2141.2825,-438.5647 2130.6899,-438.7824 2133.1377,-445.3406"/>
</g>
<!-- Node152&#45;&gt;Node71 -->
<g id="edge110" class="edge">
<title>Node152&#45;&gt;Node71</title>
<path fill="none" stroke="#191970" d="M1826.5138,-486.2735C1784.8423,-478.9625 1728.6663,-465.938 1683,-444 1663.85,-434.8003 1664.8419,-422.5932 1645,-415 1593.7379,-395.3828 1241.0432,-375.916 1083.606,-368.0909"/>
<polygon fill="#191970" stroke="#191970" points="1083.6842,-364.5906 1073.5235,-367.5925 1083.3385,-371.5821 1083.6842,-364.5906"/>
</g>
<!-- Node152&#45;&gt;Node94 -->
<g id="edge111" class="edge">
<title>Node152&#45;&gt;Node94</title>
<path fill="none" stroke="#191970" d="M1907.2645,-480.396C1923.4139,-469.6846 1945.5565,-454.9983 1961.9063,-444.154"/>
<polygon fill="#191970" stroke="#191970" points="1963.9198,-447.0185 1970.3187,-438.5743 1960.0506,-441.185 1963.9198,-447.0185"/>
</g>
<!-- Node187&#45;&gt;Node1 -->
<g id="edge114" class="edge">
<title>Node187&#45;&gt;Node1</title>
<path fill="none" stroke="#191970" d="M2027.6567,-290.3083C2049.6319,-271.8519 2095,-227.8888 2095,-179.5 2095,-179.5 2095,-179.5 2095,-119.5 2095,-71.266 1942.5378,-32.7136 1869.7777,-17.0615"/>
<polygon fill="#191970" stroke="#191970" points="1870.1563,-13.5642 1859.6485,-14.9199 1868.7082,-20.4128 1870.1563,-13.5642"/>
</g>
<!-- Node187&#45;&gt;Node3 -->
<g id="edge116" class="edge">
<title>Node187&#45;&gt;Node3</title>
<path fill="none" stroke="#191970" d="M1955.3316,-290.4948C1941.4374,-288.5617 1926.7197,-286.6165 1913,-285 1767.468,-267.8531 1596.465,-252.8407 1503.2359,-245.0891"/>
<polygon fill="#191970" stroke="#191970" points="1503.3394,-241.5858 1493.0845,-244.2482 1502.7614,-248.5619 1503.3394,-241.5858"/>
</g>
<!-- Node187&#45;&gt;Node7 -->
<g id="edge115" class="edge">
<title>Node187&#45;&gt;Node7</title>
<path fill="none" stroke="#191970" d="M2014.9477,-290.4805C2012.6877,-271.1085 2007.3264,-225.155 2004.2584,-198.8576"/>
<polygon fill="#191970" stroke="#191970" points="2007.6998,-198.1512 2003.0645,-188.6242 2000.747,-198.9624 2007.6998,-198.1512"/>
</g>
<!-- Node189&#45;&gt;Node1 -->
<g id="edge121" class="edge">
<title>Node189&#45;&gt;Node1</title>
<path fill="none" stroke="#191970" d="M2414.2705,-285.3599C2405.819,-263.1893 2391,-218.7225 2391,-179.5 2391,-179.5 2391,-179.5 2391,-119.5 2391,-82.1131 2370.1306,-72.3247 2337,-55 2295.8562,-33.485 1979.5448,-16.5295 1869.5516,-11.2308"/>
<polygon fill="#191970" stroke="#191970" points="1869.4229,-7.7207 1859.2675,-10.7405 1869.0894,-14.7128 1869.4229,-7.7207"/>
</g>
<!-- Node189&#45;&gt;Node3 -->
<g id="edge122" class="edge">
<title>Node189&#45;&gt;Node3</title>
<path fill="none" stroke="#191970" d="M2351.0583,-295.3048C2170.3626,-284.3091 1684.5157,-254.7444 1503.3553,-243.7204"/>
<polygon fill="#191970" stroke="#191970" points="1503.348,-240.2136 1493.1538,-243.0996 1502.9228,-247.2007 1503.348,-240.2136"/>
</g>
<!-- Node219&#45;&gt;Node1 -->
<g id="edge124" class="edge">
<title>Node219&#45;&gt;Node1</title>
<path fill="none" stroke="#191970" d="M2600.8632,-285.308C2593.286,-263.0679 2580,-218.5096 2580,-179.5 2580,-179.5 2580,-179.5 2580,-119.5 2580,-83.4993 2562.7126,-72.04 2531,-55 2472.5914,-23.6155 2006.3807,-12.6826 1869.5965,-10.133"/>
<polygon fill="#191970" stroke="#191970" points="1869.2852,-6.6269 1859.2231,-9.9441 1869.1577,-13.6257 1869.2852,-6.6269"/>
</g>
<!-- Node219&#45;&gt;Node3 -->
<g id="edge125" class="edge">
<title>Node219&#45;&gt;Node3</title>
<path fill="none" stroke="#191970" d="M2544.9936,-290.3264C2529.6814,-288.295 2513.2643,-286.3483 2498,-285 2123.4896,-251.9203 1672.6166,-242.6844 1502.989,-240.2845"/>
<polygon fill="#191970" stroke="#191970" points="1502.9958,-236.7844 1492.9484,-240.1458 1502.8991,-243.7837 1502.9958,-236.7844"/>
</g>
</g>
</svg>
