<?xml version="1.0" encoding="UTF-8" standalone="no"?>
<!DOCTYPE svg PUBLIC "-//W3C//DTD SVG 1.1//EN"
 "http://www.w3.org/Graphics/SVG/1.1/DTD/svg11.dtd">
<!-- Generated by graphviz version 2.40.1 (20161225.0304)
 -->
<!-- Title: Graphical Class Hierarchy Pages: 1 -->
<svg width="386pt" height="47pt"
 viewBox="0.00 0.00 386.40 47.00" xmlns="http://www.w3.org/2000/svg" xmlns:xlink="http://www.w3.org/1999/xlink">
<g id="graph0" class="graph" transform="scale(1 1) rotate(0) translate(4 43)">
<title>Graphical Class Hierarchy</title>
<polygon fill="#ffffff" stroke="transparent" points="-4,4 -4,-43 382.3955,-43 382.3955,4 -4,4"/>
<!-- Node0 -->
<g id="node1" class="node">
<title>Node0</title>
<g id="a_node1"><a xlink:href="classDGtal_1_1detail_1_1PosDepScaleIndepSCEstimator.html" target="_top" xlink:title=" ">
<polygon fill="#ffffff" stroke="#000000" points="0,-.5 0,-38.5 173.0166,-38.5 173.0166,-.5 0,-.5"/>
<text text-anchor="start" x="8" y="-26.5" font-family="FreeSans" font-size="10.00" fill="#000000">DGtal::detail::PosDepScale</text>
<text text-anchor="start" x="8" y="-16.5" font-family="FreeSans" font-size="10.00" fill="#000000">IndepSCEstimator&lt; DCAComputer,</text>
<text text-anchor="middle" x="86.5083" y="-6.5" font-family="FreeSans" font-size="10.00" fill="#000000"> detail::TangentVectorFromDCA &gt;</text>
</a>
</g>
</g>
<!-- Node1 -->
<g id="node2" class="node">
<title>Node1</title>
<g id="a_node2"><a xlink:href="classDGtal_1_1TangentFromDCAEstimator.html" target="_top" xlink:title=" ">
<polygon fill="#ffffff" stroke="#000000" points="209.0166,-5.5 209.0166,-33.5 378.3955,-33.5 378.3955,-5.5 209.0166,-5.5"/>
<text text-anchor="start" x="217.0166" y="-21.5" font-family="FreeSans" font-size="10.00" fill="#000000">DGtal::TangentFromDCAEstimator</text>
<text text-anchor="middle" x="293.7061" y="-11.5" font-family="FreeSans" font-size="10.00" fill="#000000">&lt; DCAComputer &gt;</text>
</a>
</g>
</g>
<!-- Node0&#45;&gt;Node1 -->
<g id="edge1" class="edge">
<title>Node0&#45;&gt;Node1</title>
<path fill="none" stroke="#191970" d="M183.4316,-19.5C191.874,-19.5 200.3758,-19.5 208.7115,-19.5"/>
<polygon fill="#191970" stroke="#191970" points="183.1783,-16.0001 173.1783,-19.5 183.1782,-23.0001 183.1783,-16.0001"/>
</g>
</g>
</svg>
