<?xml version="1.0" encoding="UTF-8" standalone="no"?>
<!DOCTYPE svg PUBLIC "-//W3C//DTD SVG 1.1//EN"
 "http://www.w3.org/Graphics/SVG/1.1/DTD/svg11.dtd">
<!-- Generated by graphviz version 2.40.1 (20161225.0304)
 -->
<!-- Title: DGtal::functors::IIPrincipalCurvatures3DFunctor&lt; TSpace, TMatrix &gt; Pages: 1 -->
<svg width="187pt" height="197pt"
 viewBox="0.00 0.00 186.61 197.00" xmlns="http://www.w3.org/2000/svg" xmlns:xlink="http://www.w3.org/1999/xlink">
<g id="graph0" class="graph" transform="scale(1 1) rotate(0) translate(4 193)">
<title>DGtal::functors::IIPrincipalCurvatures3DFunctor&lt; TSpace, TMatrix &gt;</title>
<polygon fill="#ffffff" stroke="transparent" points="-4,4 -4,-193 182.6118,-193 182.6118,4 -4,4"/>
<!-- Node1 -->
<g id="node1" class="node">
<title>Node1</title>
<g id="a_node1"><a xlink:title="Aim: A functor Matrix &#45;&gt; std::pair&lt;Real,Real&gt; that returns the first and the second principal curvatu...">
<polygon fill="#bfbfbf" stroke="#000000" points="0,-.5 0,-38.5 157.2744,-38.5 157.2744,-.5 0,-.5"/>
<text text-anchor="start" x="8" y="-26.5" font-family="FreeSans" font-size="10.00" fill="#000000">DGtal::functors::IIPrincipal</text>
<text text-anchor="start" x="8" y="-16.5" font-family="FreeSans" font-size="10.00" fill="#000000">Curvatures3DFunctor&lt; TSpace,</text>
<text text-anchor="middle" x="78.6372" y="-6.5" font-family="FreeSans" font-size="10.00" fill="#000000"> TMatrix &gt;</text>
</a>
</g>
</g>
<!-- Node2 -->
<g id="node2" class="node">
<title>Node2</title>
<g id="a_node2"><a xlink:href="classDGtal_1_1PointVector.html" target="_top" xlink:title="Aim: Implements basic operations that will be used in Point and Vector classes.">
<polygon fill="#ffffff" stroke="#000000" points="18.894,-85.5 18.894,-123.5 138.3804,-123.5 138.3804,-85.5 18.894,-85.5"/>
<text text-anchor="start" x="26.894" y="-111.5" font-family="FreeSans" font-size="10.00" fill="#000000">DGtal::PointVector</text>
<text text-anchor="start" x="26.894" y="-101.5" font-family="FreeSans" font-size="10.00" fill="#000000">&lt; dim, TEuclideanRing,</text>
<text text-anchor="middle" x="78.6372" y="-91.5" font-family="FreeSans" font-size="10.00" fill="#000000"> TContainer &gt;</text>
</a>
</g>
</g>
<!-- Node2&#45;&gt;Node1 -->
<g id="edge1" class="edge">
<title>Node2&#45;&gt;Node1</title>
<path fill="none" stroke="#9a32cd" stroke-dasharray="5,2" d="M78.6372,-75.1317C78.6372,-63.076 78.6372,-49.457 78.6372,-38.7115"/>
<polygon fill="#9a32cd" stroke="#9a32cd" points="75.1373,-75.2121 78.6372,-85.2122 82.1373,-75.2122 75.1373,-75.2121"/>
<text text-anchor="middle" x="107.1797" y="-59" font-family="FreeSans" font-size="10.00" fill="#000000"> eigenValues</text>
</g>
<!-- Node2&#45;&gt;Node2 -->
<g id="edge3" class="edge">
<title>Node2&#45;&gt;Node2</title>
<path fill="none" stroke="#9a32cd" stroke-dasharray="5,2" d="M148.4847,-110.2494C153.3892,-108.9389 156.3804,-107.0225 156.3804,-104.5 156.3804,-100.5625 149.0919,-98.1016 138.6148,-97.1172"/>
<polygon fill="#9a32cd" stroke="#9a32cd" points="147.9092,-106.797 138.6148,-111.8828 149.0521,-113.7031 147.9092,-106.797"/>
<text text-anchor="middle" x="167.4961" y="-101.5" font-family="FreeSans" font-size="10.00" fill="#000000"> zero</text>
</g>
<!-- Node3 -->
<g id="node3" class="node">
<title>Node3</title>
<g id="a_node3"><a xlink:title=" ">
<polygon fill="#ffffff" stroke="#bfbfbf" points="45.9033,-170.5 45.9033,-188.5 111.3711,-188.5 111.3711,-170.5 45.9033,-170.5"/>
<text text-anchor="middle" x="78.6372" y="-176.5" font-family="FreeSans" font-size="10.00" fill="#000000">TContainer</text>
</a>
</g>
</g>
<!-- Node3&#45;&gt;Node2 -->
<g id="edge2" class="edge">
<title>Node3&#45;&gt;Node2</title>
<path fill="none" stroke="#9a32cd" stroke-dasharray="5,2" d="M78.6372,-160.2222C78.6372,-148.9591 78.6372,-134.7985 78.6372,-123.5712"/>
<polygon fill="#9a32cd" stroke="#9a32cd" points="75.1373,-160.3035 78.6372,-170.3035 82.1373,-160.3036 75.1373,-160.3035"/>
<text text-anchor="middle" x="98.6372" y="-144" font-family="FreeSans" font-size="10.00" fill="#000000"> myArray</text>
</g>
</g>
</svg>
