<?xml version="1.0" encoding="UTF-8" standalone="no"?>
<!DOCTYPE svg PUBLIC "-//W3C//DTD SVG 1.1//EN"
 "http://www.w3.org/Graphics/SVG/1.1/DTD/svg11.dtd">
<!-- Generated by graphviz version 2.40.1 (20161225.0304)
 -->
<!-- Title: DGtal::AlphaThickSegmentComputer&lt; TInputPoint, TConstIterator &gt;::State Pages: 1 -->
<svg width="2424pt" height="312pt"
 viewBox="0.00 0.00 2424.08 311.50" xmlns="http://www.w3.org/2000/svg" xmlns:xlink="http://www.w3.org/1999/xlink">
<g id="graph0" class="graph" transform="scale(1 1) rotate(0) translate(4 307.5)">
<title>DGtal::AlphaThickSegmentComputer&lt; TInputPoint, TConstIterator &gt;::State</title>
<polygon fill="#ffffff" stroke="transparent" points="-4,4 -4,-307.5 2420.0762,-307.5 2420.0762,4 -4,4"/>
<!-- Node1 -->
<g id="node1" class="node">
<title>Node1</title>
<g id="a_node1"><a xlink:title=" ">
<polygon fill="#bfbfbf" stroke="#000000" points="2279.4658,-151 2279.4658,-189 2416.0762,-189 2416.0762,-151 2279.4658,-151"/>
<text text-anchor="start" x="2287.4658" y="-177" font-family="FreeSans" font-size="10.00" fill="#000000">DGtal::AlphaThickSegment</text>
<text text-anchor="start" x="2287.4658" y="-167" font-family="FreeSans" font-size="10.00" fill="#000000">Computer&lt; TInputPoint,</text>
<text text-anchor="middle" x="2347.771" y="-157" font-family="FreeSans" font-size="10.00" fill="#000000"> TConstIterator &gt;::State</text>
</a>
</g>
</g>
<!-- Node2 -->
<g id="node2" class="node">
<title>Node2</title>
<g id="a_node2"><a xlink:href="classDGtal_1_1MelkmanConvexHull.html" target="_top" xlink:title=" ">
<polygon fill="#ffffff" stroke="#000000" points="2027.6514,-151 2027.6514,-189 2185.6777,-189 2185.6777,-151 2027.6514,-151"/>
<text text-anchor="start" x="2035.6514" y="-177" font-family="FreeSans" font-size="10.00" fill="#000000">DGtal::MelkmanConvexHull</text>
<text text-anchor="start" x="2035.6514" y="-167" font-family="FreeSans" font-size="10.00" fill="#000000">&lt; InputPoint, DGtal::InHalfPlane</text>
<text text-anchor="middle" x="2106.6646" y="-157" font-family="FreeSans" font-size="10.00" fill="#000000">BySimple3x3Matrix &gt;</text>
</a>
</g>
</g>
<!-- Node2&#45;&gt;Node1 -->
<g id="edge1" class="edge">
<title>Node2&#45;&gt;Node1</title>
<path fill="none" stroke="#9a32cd" stroke-dasharray="5,2" d="M2195.983,-170C2223.5459,-170 2253.4486,-170 2279.3673,-170"/>
<polygon fill="#9a32cd" stroke="#9a32cd" points="2195.9458,-166.5001 2185.9458,-170 2195.9457,-173.5001 2195.9458,-166.5001"/>
<text text-anchor="middle" x="2232.5718" y="-172" font-family="FreeSans" font-size="10.00" fill="#000000"> melkmanCH</text>
</g>
<!-- Node3 -->
<g id="node3" class="node">
<title>Node3</title>
<g id="a_node3"><a xlink:href="classDGtal_1_1PredicateFromOrientationFunctor2.html" target="_top" xlink:title=" ">
<polygon fill="#ffffff" stroke="#000000" points="1384.2324,-154 1384.2324,-182 1545.8428,-182 1545.8428,-154 1384.2324,-154"/>
<text text-anchor="start" x="1392.2324" y="-170" font-family="FreeSans" font-size="10.00" fill="#000000">DGtal::PredicateFromOrientation</text>
<text text-anchor="middle" x="1465.0376" y="-160" font-family="FreeSans" font-size="10.00" fill="#000000">Functor2&lt; Functor, true, false &gt;</text>
</a>
</g>
</g>
<!-- Node3&#45;&gt;Node2 -->
<g id="edge2" class="edge">
<title>Node3&#45;&gt;Node2</title>
<path fill="none" stroke="#9a32cd" stroke-dasharray="5,2" d="M1555.9962,-168.2835C1682.0958,-168.6766 1907.9627,-169.3806 2027.478,-169.7532"/>
<polygon fill="#9a32cd" stroke="#9a32cd" points="1555.9859,-164.7836 1545.975,-168.2523 1555.964,-171.7835 1555.9859,-164.7836"/>
<text text-anchor="middle" x="1762.1499" y="-171" font-family="FreeSans" font-size="10.00" fill="#000000"> myForwardPredicate</text>
</g>
<!-- Node17 -->
<g id="node17" class="node">
<title>Node17</title>
<g id="a_node17"><a xlink:href="classDGtal_1_1MelkmanConvexHull.html" target="_top" xlink:title="Aim: This class implements the on&#45;line algorithm of Melkman for the computation of the convex hull of...">
<polygon fill="#ffffff" stroke="#000000" points="1684.1035,-101 1684.1035,-129 1840.1963,-129 1840.1963,-101 1684.1035,-101"/>
<text text-anchor="start" x="1692.1035" y="-117" font-family="FreeSans" font-size="10.00" fill="#000000">DGtal::MelkmanConvexHull</text>
<text text-anchor="middle" x="1762.1499" y="-107" font-family="FreeSans" font-size="10.00" fill="#000000">&lt; TPoint, TOrientationFunctor &gt;</text>
</a>
</g>
</g>
<!-- Node3&#45;&gt;Node17 -->
<g id="edge28" class="edge">
<title>Node3&#45;&gt;Node17</title>
<path fill="none" stroke="#9a32cd" stroke-dasharray="5,2" d="M1535.1947,-151.7986C1544.801,-149.7501 1554.5516,-147.7587 1563.8428,-146 1603.217,-138.5468 1647.2338,-131.5341 1683.7765,-126.0702"/>
<polygon fill="#9a32cd" stroke="#9a32cd" points="1534.2957,-148.412 1525.2614,-153.9466 1535.7753,-155.2539 1534.2957,-148.412"/>
<text text-anchor="middle" x="1614.9731" y="-148" font-family="FreeSans" font-size="10.00" fill="#000000"> myForwardPredicate</text>
</g>
<!-- Node4 -->
<g id="node4" class="node">
<title>Node4</title>
<g id="a_node4"><a xlink:href="classDGtal_1_1functors_1_1Thresholder.html" target="_top" xlink:title="Aim: A small functor with an operator () that compares one value to a threshold value according to tw...">
<polygon fill="#ffffff" stroke="#000000" points="799.5547,-156 799.5547,-184 941.1602,-184 941.1602,-156 799.5547,-156"/>
<text text-anchor="start" x="807.5547" y="-172" font-family="FreeSans" font-size="10.00" fill="#000000">DGtal::functors::Thresholder</text>
<text text-anchor="middle" x="870.3574" y="-162" font-family="FreeSans" font-size="10.00" fill="#000000">&lt; T, isLower, isEqual &gt;</text>
</a>
</g>
</g>
<!-- Node4&#45;&gt;Node3 -->
<g id="edge3" class="edge">
<title>Node4&#45;&gt;Node3</title>
<path fill="none" stroke="#9a32cd" stroke-dasharray="5,2" d="M941.4027,-153.842C981.7698,-145.4874 1033.3878,-136.1829 1079.8936,-132 1151.4316,-125.5657 1169.9059,-126.2715 1241.5039,-132 1293.617,-136.1695 1351.9159,-145.7235 1395.9072,-153.9418"/>
<polygon fill="#9a32cd" stroke="#9a32cd" points="940.4607,-150.4633 931.3923,-155.9419 941.8979,-157.3142 940.4607,-150.4633"/>
<text text-anchor="middle" x="1160.6987" y="-134" font-family="FreeSans" font-size="10.00" fill="#000000"> myThresholder</text>
</g>
<!-- Node11 -->
<g id="node11" class="node">
<title>Node11</title>
<g id="a_node11"><a xlink:href="classDGtal_1_1PredicateFromOrientationFunctor2.html" target="_top" xlink:title="Aim: Small adapter to models of COrientationFunctor2. It is a model of concepts::CPointPredicate....">
<polygon fill="#ffffff" stroke="#000000" points="1079.8936,-151 1079.8936,-189 1241.5039,-189 1241.5039,-151 1079.8936,-151"/>
<text text-anchor="start" x="1087.8936" y="-177" font-family="FreeSans" font-size="10.00" fill="#000000">DGtal::PredicateFromOrientation</text>
<text text-anchor="start" x="1087.8936" y="-167" font-family="FreeSans" font-size="10.00" fill="#000000">Functor2&lt; TOrientationFunctor,</text>
<text text-anchor="middle" x="1160.6987" y="-157" font-family="FreeSans" font-size="10.00" fill="#000000"> acceptNeg, acceptZero &gt;</text>
</a>
</g>
</g>
<!-- Node4&#45;&gt;Node11 -->
<g id="edge13" class="edge">
<title>Node4&#45;&gt;Node11</title>
<path fill="none" stroke="#9a32cd" stroke-dasharray="5,2" d="M951.6303,-170C991.6145,-170 1039.678,-170 1079.634,-170"/>
<polygon fill="#9a32cd" stroke="#9a32cd" points="951.3829,-166.5001 941.3829,-170 951.3829,-173.5001 951.3829,-166.5001"/>
<text text-anchor="middle" x="1010.5269" y="-172" font-family="FreeSans" font-size="10.00" fill="#000000"> myThresholder</text>
</g>
<!-- Node14 -->
<g id="node14" class="node">
<title>Node14</title>
<g id="a_node14"><a xlink:href="classDGtal_1_1PredicateFromOrientationFunctor2.html" target="_top" xlink:title=" ">
<polygon fill="#ffffff" stroke="#000000" points="1384.2324,-212 1384.2324,-240 1545.8428,-240 1545.8428,-212 1384.2324,-212"/>
<text text-anchor="start" x="1392.2324" y="-228" font-family="FreeSans" font-size="10.00" fill="#000000">DGtal::PredicateFromOrientation</text>
<text text-anchor="middle" x="1465.0376" y="-218" font-family="FreeSans" font-size="10.00" fill="#000000">Functor2&lt; Functor, false, false &gt;</text>
</a>
</g>
</g>
<!-- Node4&#45;&gt;Node14 -->
<g id="edge18" class="edge">
<title>Node4&#45;&gt;Node14</title>
<path fill="none" stroke="#9a32cd" stroke-dasharray="5,2" d="M951.5537,-182.9111C954.118,-183.2836 956.6584,-183.6475 959.1602,-184 1012.7031,-191.5446 1026.0808,-193.7132 1079.8936,-199 1159.5457,-206.8254 1179.665,-206.3916 1259.5039,-212 1300.5333,-214.8822 1346.1765,-218.0001 1384.0087,-220.5603"/>
<polygon fill="#9a32cd" stroke="#9a32cd" points="951.9809,-179.4363 941.5769,-181.4382 950.9584,-186.3612 951.9809,-179.4363"/>
<text text-anchor="middle" x="1160.6987" y="-212" font-family="FreeSans" font-size="10.00" fill="#000000"> myThresholder</text>
</g>
<!-- Node5 -->
<g id="node5" class="node">
<title>Node5</title>
<g id="a_node5"><a xlink:title=" ">
<polygon fill="#ffffff" stroke="#bfbfbf" points="0,-138 0,-156 29,-156 29,-138 0,-138"/>
<text text-anchor="middle" x="14.5" y="-144" font-family="FreeSans" font-size="10.00" fill="#000000">T</text>
</a>
</g>
</g>
<!-- Node5&#45;&gt;Node4 -->
<g id="edge4" class="edge">
<title>Node5&#45;&gt;Node4</title>
<path fill="none" stroke="#9a32cd" stroke-dasharray="5,2" d="M39.2732,-153.8414C66.039,-160.6209 110.0504,-170 148.6909,-170 148.6909,-170 148.6909,-170 626.0186,-170 684.452,-170 750.7461,-170 799.5227,-170"/>
<polygon fill="#9a32cd" stroke="#9a32cd" points="39.8116,-150.3645 29.2513,-151.2186 38.0393,-157.1364 39.8116,-150.3645"/>
<text text-anchor="middle" x="384.9072" y="-172" font-family="FreeSans" font-size="10.00" fill="#000000"> myT</text>
</g>
<!-- Node9 -->
<g id="node9" class="node">
<title>Node9</title>
<g id="a_node9"><a xlink:title="STL class.">
<polygon fill="#ffffff" stroke="#bfbfbf" points="108.3545,-203 108.3545,-221 189.0273,-221 189.0273,-203 108.3545,-203"/>
<text text-anchor="middle" x="148.6909" y="-209" font-family="FreeSans" font-size="10.00" fill="#000000">std::array&lt; T &gt;</text>
</a>
</g>
</g>
<!-- Node5&#45;&gt;Node9 -->
<g id="edge9" class="edge">
<title>Node5&#45;&gt;Node9</title>
<path fill="none" stroke="#9a32cd" stroke-dasharray="5,2" d="M26.5314,-164.0509C32.0728,-170.8089 39.1608,-178.1166 47,-183 65.3871,-194.4543 88.4292,-201.5106 107.9284,-205.7897"/>
<polygon fill="#9a32cd" stroke="#9a32cd" points="29.246,-161.8386 20.3994,-156.0086 23.6795,-166.0829 29.246,-161.8386"/>
<text text-anchor="middle" x="68.6772" y="-203" font-family="FreeSans" font-size="10.00" fill="#000000"> elements</text>
</g>
<!-- Node12 -->
<g id="node12" class="node">
<title>Node12</title>
<g id="a_node12"><a xlink:title=" ">
<polygon fill="#ffffff" stroke="#bfbfbf" points="820.2017,-95 820.2017,-113 920.5132,-113 920.5132,-95 820.2017,-95"/>
<text text-anchor="middle" x="870.3574" y="-101" font-family="FreeSans" font-size="10.00" fill="#000000">Functor&lt; T, Point &gt;</text>
</a>
</g>
</g>
<!-- Node5&#45;&gt;Node12 -->
<g id="edge16" class="edge">
<title>Node5&#45;&gt;Node12</title>
<path fill="none" stroke="#9a32cd" stroke-dasharray="5,2" d="M39.2732,-140.1586C66.039,-133.3791 110.0504,-124 148.6909,-124 148.6909,-124 148.6909,-124 626.0186,-124 693.2662,-124 770.5787,-116.3816 819.9162,-110.5487"/>
<polygon fill="#9a32cd" stroke="#9a32cd" points="38.0393,-136.8636 29.2513,-142.7814 39.8116,-143.6355 38.0393,-136.8636"/>
<text text-anchor="middle" x="384.9072" y="-126" font-family="FreeSans" font-size="10.00" fill="#000000"> radius</text>
</g>
<!-- Node16 -->
<g id="node16" class="node">
<title>Node16</title>
<g id="a_node16"><a xlink:title="STL class.">
<polygon fill="#ffffff" stroke="#bfbfbf" points="213.9248,-34 213.9248,-52 299.6221,-52 299.6221,-34 213.9248,-34"/>
<text text-anchor="middle" x="256.7734" y="-40" font-family="FreeSans" font-size="10.00" fill="#000000">std::deque&lt; T &gt;</text>
</a>
</g>
</g>
<!-- Node5&#45;&gt;Node16 -->
<g id="edge24" class="edge">
<title>Node5&#45;&gt;Node16</title>
<path fill="none" stroke="#9a32cd" stroke-dasharray="5,2" d="M23.0393,-128.8829C28.571,-118.9905 36.673,-107.3036 47,-100 97.2243,-64.48 168.5355,-51.0841 213.7193,-46.0388"/>
<polygon fill="#9a32cd" stroke="#9a32cd" points="19.8381,-127.4546 18.3772,-137.9482 26.0632,-130.656 19.8381,-127.4546"/>
<text text-anchor="middle" x="68.6772" y="-102" font-family="FreeSans" font-size="10.00" fill="#000000"> elements</text>
</g>
<!-- Node6 -->
<g id="node6" class="node">
<title>Node6</title>
<g id="a_node6"><a xlink:href="classDGtal_1_1InHalfPlaneBySimple3x3Matrix.html" target="_top" xlink:title="Aim: Class that implements an orientation functor, ie. it provides a way to compute the orientation o...">
<polygon fill="#ffffff" stroke="#000000" points="1082.1104,-275 1082.1104,-303 1239.2871,-303 1239.2871,-275 1082.1104,-275"/>
<text text-anchor="start" x="1090.1104" y="-291" font-family="FreeSans" font-size="10.00" fill="#000000">DGtal::InHalfPlaneBySimple3x3</text>
<text text-anchor="middle" x="1160.6987" y="-281" font-family="FreeSans" font-size="10.00" fill="#000000">Matrix&lt; TPoint, TInteger &gt;</text>
</a>
</g>
</g>
<!-- Node6&#45;&gt;Node2 -->
<g id="edge25" class="edge">
<title>Node6&#45;&gt;Node2</title>
<path fill="none" stroke="#9a32cd" stroke-dasharray="5,2" d="M1249.533,-299.36C1252.8971,-299.603 1256.2296,-299.8183 1259.5039,-300 1306.8659,-302.6283 1318.9275,-303.5096 1366.2324,-300 1654.5694,-278.608 1728.9887,-273.457 2009.6514,-204 2025.5898,-200.0556 2042.6017,-194.5552 2057.8572,-189.1265"/>
<polygon fill="#9a32cd" stroke="#9a32cd" points="1249.6182,-295.8559 1239.3728,-298.5543 1249.0648,-302.834 1249.6182,-295.8559"/>
<text text-anchor="middle" x="1614.9731" y="-286" font-family="FreeSans" font-size="10.00" fill="#000000"> myDefaultFunctor</text>
</g>
<!-- Node6&#45;&gt;Node3 -->
<g id="edge5" class="edge">
<title>Node6&#45;&gt;Node3</title>
<path fill="none" stroke="#9a32cd" stroke-dasharray="5,2" d="M1214.6977,-271.75C1266.0981,-254.9838 1339.4589,-230.0538 1366.2324,-216 1374.9701,-211.4135 1375.6544,-207.8786 1384.2324,-203 1398.0532,-195.1396 1413.9806,-187.8894 1428.022,-182.0509"/>
<polygon fill="#9a32cd" stroke="#9a32cd" points="1213.4802,-268.4654 1205.0516,-274.8849 1215.6438,-275.1227 1213.4802,-268.4654"/>
<text text-anchor="middle" x="1312.8682" y="-257" font-family="FreeSans" font-size="10.00" fill="#000000"> myFunctorPtr</text>
</g>
<!-- Node6&#45;&gt;Node14 -->
<g id="edge19" class="edge">
<title>Node6&#45;&gt;Node14</title>
<path fill="none" stroke="#9a32cd" stroke-dasharray="5,2" d="M1249.4891,-287.1226C1286.1076,-284.7227 1328.6779,-279.8123 1366.2324,-270 1392.2123,-263.2119 1419.9977,-250.2782 1439.465,-240.1828"/>
<polygon fill="#9a32cd" stroke="#9a32cd" points="1249.0991,-283.6396 1239.3277,-287.7349 1249.5202,-290.627 1249.0991,-283.6396"/>
<text text-anchor="middle" x="1312.8682" y="-288" font-family="FreeSans" font-size="10.00" fill="#000000"> myFunctorPtr</text>
</g>
<!-- Node7 -->
<g id="node7" class="node">
<title>Node7</title>
<g id="a_node7"><a xlink:href="classDGtal_1_1SimpleMatrix.html" target="_top" xlink:title=" ">
<polygon fill="#ffffff" stroke="#000000" points="817.9043,-266 817.9043,-294 922.8105,-294 922.8105,-266 817.9043,-266"/>
<text text-anchor="start" x="825.9043" y="-282" font-family="FreeSans" font-size="10.00" fill="#000000">DGtal::SimpleMatrix</text>
<text text-anchor="middle" x="870.3574" y="-272" font-family="FreeSans" font-size="10.00" fill="#000000">&lt; Integer, 3, 3 &gt;</text>
</a>
</g>
</g>
<!-- Node7&#45;&gt;Node6 -->
<g id="edge6" class="edge">
<title>Node7&#45;&gt;Node6</title>
<path fill="none" stroke="#9a32cd" stroke-dasharray="5,2" d="M933.1282,-281.9458C976.7531,-283.2981 1035.2211,-285.1104 1081.9689,-286.5595"/>
<polygon fill="#9a32cd" stroke="#9a32cd" points="933.0397,-278.4414 922.936,-281.6298 932.8228,-285.4381 933.0397,-278.4414"/>
<text text-anchor="middle" x="1010.5269" y="-287" font-family="FreeSans" font-size="10.00" fill="#000000"> myMatrix</text>
</g>
<!-- Node8 -->
<g id="node8" class="node">
<title>Node8</title>
<g id="a_node8"><a xlink:title=" ">
<polygon fill="#ffffff" stroke="#bfbfbf" points="324.5195,-213 324.5195,-241 445.2949,-241 445.2949,-213 324.5195,-213"/>
<text text-anchor="start" x="332.5195" y="-229" font-family="FreeSans" font-size="10.00" fill="#000000">std::array&lt; Component,</text>
<text text-anchor="middle" x="384.9072" y="-219" font-family="FreeSans" font-size="10.00" fill="#000000"> M *N &gt;</text>
</a>
</g>
</g>
<!-- Node8&#45;&gt;Node7 -->
<g id="edge7" class="edge">
<title>Node8&#45;&gt;Node7</title>
<path fill="none" stroke="#9a32cd" stroke-dasharray="5,2" d="M455.6476,-225.2769C517.8462,-224.7211 610.6775,-226.2248 690.7178,-237 736.3246,-243.1397 787.247,-255.9074 823.1954,-265.9433"/>
<polygon fill="#9a32cd" stroke="#9a32cd" points="455.5131,-221.7781 445.5521,-225.3876 455.5899,-228.7776 455.5131,-221.7781"/>
<text text-anchor="middle" x="626.0186" y="-249" font-family="FreeSans" font-size="10.00" fill="#000000"> myCofactorCoefs</text>
<text text-anchor="middle" x="626.0186" y="-239" font-family="FreeSans" font-size="10.00" fill="#000000">myValues</text>
</g>
<!-- Node10 -->
<g id="node10" class="node">
<title>Node10</title>
<g id="a_node10"><a xlink:href="classDGtal_1_1SimpleMatrix.html" target="_top" xlink:title="Aim: implements basic MxN Matrix services (M,N&gt;=1).">
<polygon fill="#ffffff" stroke="#000000" points="561.3193,-266 561.3193,-294 690.7178,-294 690.7178,-266 561.3193,-266"/>
<text text-anchor="start" x="569.3193" y="-282" font-family="FreeSans" font-size="10.00" fill="#000000">DGtal::SimpleMatrix</text>
<text text-anchor="middle" x="626.0186" y="-272" font-family="FreeSans" font-size="10.00" fill="#000000">&lt; TComponent, TM, TN &gt;</text>
</a>
</g>
</g>
<!-- Node8&#45;&gt;Node10 -->
<g id="edge11" class="edge">
<title>Node8&#45;&gt;Node10</title>
<path fill="none" stroke="#9a32cd" stroke-dasharray="5,2" d="M455.2397,-242.4602C489.0128,-249.884 529.1893,-258.7154 562.0869,-265.9468"/>
<polygon fill="#9a32cd" stroke="#9a32cd" points="455.9568,-239.0343 445.4386,-240.3057 454.454,-245.8711 455.9568,-239.0343"/>
<text text-anchor="middle" x="503.3071" y="-273" font-family="FreeSans" font-size="10.00" fill="#000000"> myCofactorCoefs</text>
<text text-anchor="middle" x="503.3071" y="-263" font-family="FreeSans" font-size="10.00" fill="#000000">myValues</text>
</g>
<!-- Node9&#45;&gt;Node8 -->
<g id="edge8" class="edge">
<title>Node9&#45;&gt;Node8</title>
<path fill="none" stroke="#ffa500" stroke-dasharray="5,2" d="M199.4699,-215.2245C236.0817,-217.5494 285.6542,-220.6973 324.3333,-223.1535"/>
<polygon fill="#ffa500" stroke="#ffa500" points="199.2313,-211.7024 189.0296,-214.5615 198.7876,-218.6883 199.2313,-211.7024"/>
<text text-anchor="middle" x="256.7734" y="-223" font-family="FreeSans" font-size="10.00" fill="#000000"> &lt; Component, M *N &gt;</text>
</g>
<!-- Node10&#45;&gt;Node7 -->
<g id="edge10" class="edge">
<title>Node10&#45;&gt;Node7</title>
<path fill="none" stroke="#ffa500" stroke-dasharray="5,2" d="M701.2767,-280C738.9363,-280 783.6081,-280 817.5746,-280"/>
<polygon fill="#ffa500" stroke="#ffa500" points="700.8554,-276.5001 690.8554,-280 700.8554,-283.5001 700.8554,-276.5001"/>
<text text-anchor="middle" x="745.1362" y="-282" font-family="FreeSans" font-size="10.00" fill="#000000"> &lt; Integer, 3, 3 &gt;</text>
</g>
<!-- Node11&#45;&gt;Node3 -->
<g id="edge12" class="edge">
<title>Node11&#45;&gt;Node3</title>
<path fill="none" stroke="#ffa500" stroke-dasharray="5,2" d="M1251.7506,-169.0606C1254.3635,-169.0394 1256.9522,-169.0191 1259.5039,-169 1300.5386,-168.6925 1346.1824,-168.4595 1384.0136,-168.2961"/>
<polygon fill="#ffa500" stroke="#ffa500" points="1251.5502,-165.5621 1241.5802,-169.1468 1251.6096,-172.5618 1251.5502,-165.5621"/>
<text text-anchor="middle" x="1312.8682" y="-171" font-family="FreeSans" font-size="10.00" fill="#000000"> &lt; Functor, true, false &gt;</text>
</g>
<!-- Node11&#45;&gt;Node14 -->
<g id="edge20" class="edge">
<title>Node11&#45;&gt;Node14</title>
<path fill="none" stroke="#ffa500" stroke-dasharray="5,2" d="M1251.4639,-182.4566C1287.3322,-187.8156 1328.8393,-194.5613 1366.2324,-202 1380.7755,-204.8931 1396.4127,-208.4716 1410.8601,-211.9742"/>
<polygon fill="#ffa500" stroke="#ffa500" points="1251.9096,-178.9845 1241.5049,-180.9824 1250.8845,-185.9091 1251.9096,-178.9845"/>
<text text-anchor="middle" x="1312.8682" y="-204" font-family="FreeSans" font-size="10.00" fill="#000000"> &lt; Functor, false, false &gt;</text>
</g>
<!-- Node12&#45;&gt;Node11 -->
<g id="edge14" class="edge">
<title>Node12&#45;&gt;Node11</title>
<path fill="none" stroke="#9a32cd" stroke-dasharray="5,2" d="M919.9597,-115.2755C963.7661,-125.2335 1028.4656,-139.9409 1079.7622,-151.6016"/>
<polygon fill="#9a32cd" stroke="#9a32cd" points="920.6464,-111.8424 910.1194,-113.0386 919.0947,-118.6683 920.6464,-111.8424"/>
<text text-anchor="middle" x="1010.5269" y="-148" font-family="FreeSans" font-size="10.00" fill="#000000"> myFunctorPtr</text>
</g>
<!-- Node13 -->
<g id="node13" class="node">
<title>Node13</title>
<g id="a_node13"><a xlink:title=" ">
<polygon fill="#ffffff" stroke="#bfbfbf" points="596.3462,-67 596.3462,-85 655.6909,-85 655.6909,-67 596.3462,-67"/>
<text text-anchor="middle" x="626.0186" y="-73" font-family="FreeSans" font-size="10.00" fill="#000000">MyPointD</text>
</a>
</g>
</g>
<!-- Node13&#45;&gt;Node12 -->
<g id="edge15" class="edge">
<title>Node13&#45;&gt;Node12</title>
<path fill="none" stroke="#9a32cd" stroke-dasharray="5,2" d="M666.143,-80.5981C708.2796,-85.4267 774.6262,-93.0297 820.1929,-98.2514"/>
<polygon fill="#9a32cd" stroke="#9a32cd" points="666.3128,-77.0947 655.9793,-79.4333 665.5158,-84.0492 666.3128,-77.0947"/>
<text text-anchor="middle" x="745.1362" y="-95" font-family="FreeSans" font-size="10.00" fill="#000000"> center</text>
</g>
<!-- Node15 -->
<g id="node15" class="node">
<title>Node15</title>
<g id="a_node15"><a xlink:title=" ">
<polygon fill="#ffffff" stroke="#bfbfbf" points="959.1602,-37 959.1602,-55 1061.8936,-55 1061.8936,-37 959.1602,-37"/>
<text text-anchor="middle" x="1010.5269" y="-43" font-family="FreeSans" font-size="10.00" fill="#000000">std::deque&lt; Point &gt;</text>
</a>
</g>
</g>
<!-- Node13&#45;&gt;Node15 -->
<g id="edge22" class="edge">
<title>Node13&#45;&gt;Node15</title>
<path fill="none" stroke="#9a32cd" stroke-dasharray="5,2" d="M666.0643,-72.8756C736.2268,-67.4014 881.2805,-56.084 958.884,-50.0293"/>
<polygon fill="#9a32cd" stroke="#9a32cd" points="665.5677,-69.4036 655.8703,-73.6709 666.1123,-76.3824 665.5677,-69.4036"/>
<text text-anchor="middle" x="745.1362" y="-71" font-family="FreeSans" font-size="10.00" fill="#000000"> elements</text>
</g>
<!-- Node14&#45;&gt;Node2 -->
<g id="edge17" class="edge">
<title>Node14&#45;&gt;Node2</title>
<path fill="none" stroke="#9a32cd" stroke-dasharray="5,2" d="M1556.1593,-220.5583C1664.4501,-213.6862 1850.5185,-200.6007 2009.6514,-183 2015.4785,-182.3555 2021.4969,-181.6486 2027.5493,-180.9079"/>
<polygon fill="#9a32cd" stroke="#9a32cd" points="1555.6856,-217.0812 1545.9259,-221.2039 1556.1264,-224.0673 1555.6856,-217.0812"/>
<text text-anchor="middle" x="1762.1499" y="-213" font-family="FreeSans" font-size="10.00" fill="#000000"> myBackwardPredicate</text>
</g>
<!-- Node14&#45;&gt;Node17 -->
<g id="edge29" class="edge">
<title>Node14&#45;&gt;Node17</title>
<path fill="none" stroke="#9a32cd" stroke-dasharray="5,2" d="M1530.9096,-209.2614C1571.0394,-197.8828 1622.7594,-181.076 1666.1035,-160 1674.7503,-155.7955 1675.6383,-152.559 1684.1035,-148 1697.0558,-141.0245 1711.798,-134.4632 1724.9554,-129.0569"/>
<polygon fill="#9a32cd" stroke="#9a32cd" points="1529.9206,-205.9036 1521.2307,-211.9646 1531.8036,-212.6455 1529.9206,-205.9036"/>
<text text-anchor="middle" x="1614.9731" y="-201" font-family="FreeSans" font-size="10.00" fill="#000000"> myBackwardPredicate</text>
</g>
<!-- Node15&#45;&gt;Node2 -->
<g id="edge21" class="edge">
<title>Node15&#45;&gt;Node2</title>
<path fill="none" stroke="#9a32cd" stroke-dasharray="5,2" d="M1056.305,-34.6274C1115.2439,-21.0054 1221.0199,0 1312.8682,0 1312.8682,0 1312.8682,0 1762.1499,0 1897.2114,0 2034.1662,-106.37 2085.5102,-150.8293"/>
<polygon fill="#9a32cd" stroke="#9a32cd" points="1055.4953,-31.2222 1046.5579,-36.9119 1057.0928,-38.0375 1055.4953,-31.2222"/>
<text text-anchor="middle" x="1465.0376" y="-2" font-family="FreeSans" font-size="10.00" fill="#000000"> myContainer</text>
</g>
<!-- Node15&#45;&gt;Node17 -->
<g id="edge30" class="edge">
<title>Node15&#45;&gt;Node17</title>
<path fill="none" stroke="#9a32cd" stroke-dasharray="5,2" d="M1072.4397,-51.6837C1208.6052,-64.1839 1533.8689,-94.0435 1683.8952,-107.8161"/>
<polygon fill="#9a32cd" stroke="#9a32cd" points="1072.4671,-48.1716 1062.189,-50.7426 1071.8271,-55.1423 1072.4671,-48.1716"/>
<text text-anchor="middle" x="1312.8682" y="-80" font-family="FreeSans" font-size="10.00" fill="#000000"> myContainer</text>
</g>
<!-- Node16&#45;&gt;Node15 -->
<g id="edge23" class="edge">
<title>Node16&#45;&gt;Node15</title>
<path fill="none" stroke="#ffa500" stroke-dasharray="5,2" d="M310.1263,-43.2123C449.3183,-43.7663 822.1607,-45.2503 959.1327,-45.7954"/>
<polygon fill="#ffa500" stroke="#ffa500" points="309.7454,-39.7109 299.7316,-43.171 309.7175,-46.7108 309.7454,-39.7109"/>
<text text-anchor="middle" x="626.0186" y="-47" font-family="FreeSans" font-size="10.00" fill="#000000"> &lt; Point &gt;</text>
</g>
<!-- Node17&#45;&gt;Node2 -->
<g id="edge26" class="edge">
<title>Node17&#45;&gt;Node2</title>
<path fill="none" stroke="#ffa500" stroke-dasharray="5,2" d="M1850.6376,-117.0983C1898.197,-119.5784 1957.5979,-124.8579 2009.6514,-136 2026.405,-139.5861 2044.2358,-145.2639 2059.9801,-150.9603"/>
<polygon fill="#ffa500" stroke="#ffa500" points="1850.5264,-113.5888 1840.3674,-116.5964 1850.1846,-120.5805 1850.5264,-113.5888"/>
<text text-anchor="start" x="1858.1963" y="-148" font-family="FreeSans" font-size="10.00" fill="#000000"> &lt; InputPoint, DGtal</text>
<text text-anchor="middle" x="1933.9238" y="-138" font-family="FreeSans" font-size="10.00" fill="#000000">::InHalfPlaneBySimple3x3Matrix &gt;</text>
</g>
<!-- Node18 -->
<g id="node18" class="node">
<title>Node18</title>
<g id="a_node18"><a xlink:title=" ">
<polygon fill="#ffffff" stroke="#bfbfbf" points="1412.6626,-29 1412.6626,-47 1517.4126,-47 1517.4126,-29 1412.6626,-29"/>
<text text-anchor="middle" x="1465.0376" y="-35" font-family="FreeSans" font-size="10.00" fill="#000000">TOrientationFunctor</text>
</a>
</g>
</g>
<!-- Node18&#45;&gt;Node17 -->
<g id="edge27" class="edge">
<title>Node18&#45;&gt;Node17</title>
<path fill="none" stroke="#9a32cd" stroke-dasharray="5,2" d="M1527.6958,-34.3121C1568.193,-33.8653 1621.4726,-36.9604 1666.1035,-52 1697.2847,-62.5073 1728.171,-85.6415 1746.1893,-100.7608"/>
<polygon fill="#9a32cd" stroke="#9a32cd" points="1527.622,-30.8128 1517.6884,-34.4969 1527.7513,-37.8116 1527.622,-30.8128"/>
<text text-anchor="middle" x="1614.9731" y="-54" font-family="FreeSans" font-size="10.00" fill="#000000"> myDefaultFunctor</text>
</g>
<!-- Node19 -->
<g id="node19" class="node">
<title>Node19</title>
<g id="a_node19"><a xlink:title=" ">
<polygon fill="#ffffff" stroke="#bfbfbf" points="1442.5869,-105 1442.5869,-123 1487.4883,-123 1487.4883,-105 1442.5869,-105"/>
<text text-anchor="middle" x="1465.0376" y="-111" font-family="FreeSans" font-size="10.00" fill="#000000">TPoint</text>
</a>
</g>
</g>
<!-- Node19&#45;&gt;Node17 -->
<g id="edge31" class="edge">
<title>Node19&#45;&gt;Node17</title>
<path fill="none" stroke="#9a32cd" stroke-dasharray="5,2" d="M1497.8306,-113.5274C1537.6331,-113.0253 1606.7912,-112.3825 1666.1035,-113 1671.9406,-113.0608 1677.9769,-113.1423 1684.0489,-113.2378"/>
<polygon fill="#9a32cd" stroke="#9a32cd" points="1497.6066,-110.03 1487.6534,-113.6609 1497.6984,-117.0293 1497.6066,-110.03"/>
<text text-anchor="middle" x="1614.9731" y="-115" font-family="FreeSans" font-size="10.00" fill="#000000"> myFirstPoint</text>
</g>
</g>
</svg>
