<?xml version="1.0" encoding="UTF-8" standalone="no"?>
<!DOCTYPE svg PUBLIC "-//W3C//DTD SVG 1.1//EN"
 "http://www.w3.org/Graphics/SVG/1.1/DTD/svg11.dtd">
<!-- Generated by graphviz version 2.40.1 (20161225.0304)
 -->
<!-- Title: DGtal::concepts::CSeparableMetric&lt; T &gt; Pages: 1 -->
<svg width="355pt" height="168pt"
 viewBox="0.00 0.00 355.11 168.00" xmlns="http://www.w3.org/2000/svg" xmlns:xlink="http://www.w3.org/1999/xlink">
<g id="graph0" class="graph" transform="scale(1 1) rotate(0) translate(4 164)">
<title>DGtal::concepts::CSeparableMetric&lt; T &gt;</title>
<polygon fill="#ffffff" stroke="transparent" points="-4,4 -4,-164 351.1143,-164 351.1143,4 -4,4"/>
<!-- Node4 -->
<g id="node1" class="node">
<title>Node4</title>
<g id="a_node1"><a xlink:title="Aim: defines the concept of separable metrics.">
<polygon fill="#bfbfbf" stroke="#000000" points="201.6025,-.5 201.6025,-28.5 347.1143,-28.5 347.1143,-.5 201.6025,-.5"/>
<text text-anchor="start" x="209.6025" y="-16.5" font-family="FreeSans" font-size="10.00" fill="#000000">DGtal::concepts::CSeparable</text>
<text text-anchor="middle" x="274.3584" y="-6.5" font-family="FreeSans" font-size="10.00" fill="#000000">Metric&lt; T &gt;</text>
</a>
</g>
</g>
<!-- Node5 -->
<g id="node2" class="node">
<title>Node5</title>
<g id="a_node2"><a xlink:href="structDGtal_1_1concepts_1_1CMetricSpace.html" target="_top" xlink:title="Aim: defines the concept of metric spaces.">
<polygon fill="#ffffff" stroke="#000000" points="160.7871,-66.5 160.7871,-94.5 287.9297,-94.5 287.9297,-66.5 160.7871,-66.5"/>
<text text-anchor="start" x="168.7871" y="-82.5" font-family="FreeSans" font-size="10.00" fill="#000000">DGtal::concepts::CMetric</text>
<text text-anchor="middle" x="224.3584" y="-72.5" font-family="FreeSans" font-size="10.00" fill="#000000">Space&lt; T &gt;</text>
</a>
</g>
</g>
<!-- Node5&#45;&gt;Node4 -->
<g id="edge1" class="edge">
<title>Node5&#45;&gt;Node4</title>
<path fill="none" stroke="#191970" d="M241.3221,-58.108C248.6671,-48.4125 257.0479,-37.3499 263.5303,-28.7931"/>
<polygon fill="#191970" stroke="#191970" points="238.4564,-56.0945 235.2077,-66.179 244.0361,-60.3216 238.4564,-56.0945"/>
</g>
<!-- Node6 -->
<g id="node3" class="node">
<title>Node6</title>
<g id="a_node3"><a xlink:href="structboost_1_1CopyConstructible.html" target="_top" xlink:title="Go to http://www.sgi.com/tech/stl/CopyConstructible.html.">
<polygon fill="#ffffff" stroke="#000000" points="0,-141.5 0,-159.5 150.7168,-159.5 150.7168,-141.5 0,-141.5"/>
<text text-anchor="middle" x="75.3584" y="-147.5" font-family="FreeSans" font-size="10.00" fill="#000000">boost::CopyConstructible&lt; T &gt;</text>
</a>
</g>
</g>
<!-- Node6&#45;&gt;Node5 -->
<g id="edge2" class="edge">
<title>Node6&#45;&gt;Node5</title>
<path fill="none" stroke="#191970" d="M103.8346,-137.1219C129.8037,-124.9216 168.0393,-106.9586 194.4482,-94.5518"/>
<polygon fill="#191970" stroke="#191970" points="102.0952,-134.072 94.5325,-141.492 105.0717,-140.4077 102.0952,-134.072"/>
</g>
<!-- Node7 -->
<g id="node4" class="node">
<title>Node7</title>
<g id="a_node4"><a xlink:href="structboost_1_1Assignable.html" target="_top" xlink:title="Go to http://www.sgi.com/tech/stl/Assignable.html.">
<polygon fill="#ffffff" stroke="#000000" points="168.3916,-141.5 168.3916,-159.5 286.3252,-159.5 286.3252,-141.5 168.3916,-141.5"/>
<text text-anchor="middle" x="227.3584" y="-147.5" font-family="FreeSans" font-size="10.00" fill="#000000">boost::Assignable&lt; T &gt;</text>
</a>
</g>
</g>
<!-- Node7&#45;&gt;Node5 -->
<g id="edge3" class="edge">
<title>Node7&#45;&gt;Node5</title>
<path fill="none" stroke="#191970" d="M226.5237,-131.0243C226.0306,-119.5169 225.417,-105.2016 224.9691,-94.7499"/>
<polygon fill="#191970" stroke="#191970" points="223.0411,-131.5078 226.9662,-141.3487 230.0347,-131.208 223.0411,-131.5078"/>
</g>
<!-- Node8 -->
<g id="node5" class="node">
<title>Node8</title>
<g id="a_node5"><a xlink:title=" ">
<polygon fill="#ffffff" stroke="#bfbfbf" points="307.8584,-141.5 307.8584,-159.5 336.8584,-159.5 336.8584,-141.5 307.8584,-141.5"/>
<text text-anchor="middle" x="321.9126" y="-147.5" font-family="FreeSans" font-size="10.00" fill="#000000">T</text>
</a>
</g>
</g>
<!-- Node8&#45;&gt;Node4 -->
<g id="edge5" class="edge">
<title>Node8&#45;&gt;Node4</title>
<path fill="none" stroke="#9a32cd" stroke-dasharray="5,2" d="M317.5221,-131.5451C312.9317,-114.2641 305.5336,-88.1319 297.3584,-66 292.6082,-53.1403 286.1749,-38.9437 281.32,-28.7184"/>
<polygon fill="#9a32cd" stroke="#9a32cd" points="314.2054,-132.6973 320.1132,-141.492 320.9793,-130.9327 314.2054,-132.6973"/>
<text text-anchor="middle" x="317.7476" y="-77.5" font-family="FreeSans" font-size="10.00" fill="#000000"> myX</text>
</g>
<!-- Node8&#45;&gt;Node5 -->
<g id="edge4" class="edge">
<title>Node8&#45;&gt;Node5</title>
<path fill="none" stroke="#9a32cd" stroke-dasharray="5,2" d="M301.3979,-135.5282C284.5092,-123.4648 260.9221,-106.6169 244.3083,-94.7499"/>
<polygon fill="#9a32cd" stroke="#9a32cd" points="299.3749,-138.3844 309.5466,-141.3487 303.4436,-132.6882 299.3749,-138.3844"/>
<text text-anchor="middle" x="293.7476" y="-115" font-family="FreeSans" font-size="10.00" fill="#000000"> myX</text>
</g>
</g>
</svg>
