<?xml version="1.0" encoding="UTF-8" standalone="no"?>
<!DOCTYPE svg PUBLIC "-//W3C//DTD SVG 1.1//EN"
 "http://www.w3.org/Graphics/SVG/1.1/DTD/svg11.dtd">
<!-- Generated by graphviz version 2.40.1 (20161225.0304)
 -->
<!-- Title: testMagickReader.cpp Pages: 1 -->
<svg width="3227pt" height="647pt"
 viewBox="0.00 0.00 3227.01 647.00" xmlns="http://www.w3.org/2000/svg" xmlns:xlink="http://www.w3.org/1999/xlink">
<g id="graph0" class="graph" transform="scale(1 1) rotate(0) translate(4 643)">
<title>testMagickReader.cpp</title>
<polygon fill="#ffffff" stroke="transparent" points="-4,4 -4,-643 3223.0122,-643 3223.0122,4 -4,4"/>
<!-- Node0 -->
<g id="node1" class="node">
<title>Node0</title>
<g id="a_node1"><a xlink:title=" ">
<polygon fill="#bfbfbf" stroke="#000000" points="2809.5273,-620.5 2809.5273,-638.5 2924.4727,-638.5 2924.4727,-620.5 2809.5273,-620.5"/>
<text text-anchor="middle" x="2867" y="-626.5" font-family="FreeSans" font-size="10.00" fill="#000000">testMagickReader.cpp</text>
</a>
</g>
</g>
<!-- Node1 -->
<g id="node2" class="node">
<title>Node1</title>
<g id="a_node2"><a xlink:title=" ">
<polygon fill="#ffffff" stroke="#bfbfbf" points="1088.8276,-.5 1088.8276,-18.5 1143.1724,-18.5 1143.1724,-.5 1088.8276,-.5"/>
<text text-anchor="middle" x="1116" y="-6.5" font-family="FreeSans" font-size="10.00" fill="#000000">iostream</text>
</a>
</g>
</g>
<!-- Node0&#45;&gt;Node1 -->
<g id="edge1" class="edge">
<title>Node0&#45;&gt;Node1</title>
<path fill="none" stroke="#191970" d="M2903.2484,-620.4414C2949.8954,-606.3567 3025,-574.3813 3025,-514.5 3025,-514.5 3025,-514.5 3025,-119.5 3025,-71.7222 2984.1339,-70.673 2939,-55 2851.7004,-24.6848 1406.7652,-11.8159 1153.6807,-9.7896"/>
<polygon fill="#191970" stroke="#191970" points="1153.5479,-6.2886 1143.5204,-9.709 1153.4922,-13.2883 1153.5479,-6.2886"/>
</g>
<!-- Node2 -->
<g id="node3" class="node">
<title>Node2</title>
<g id="a_node3"><a xlink:href="Common_8h_source.html" target="_top" xlink:title=" ">
<polygon fill="#ffffff" stroke="#000000" points="1182.1455,-235.5 1182.1455,-253.5 1299.8545,-253.5 1299.8545,-235.5 1182.1455,-235.5"/>
<text text-anchor="middle" x="1241" y="-241.5" font-family="FreeSans" font-size="10.00" fill="#000000">DGtal/base/Common.h</text>
</a>
</g>
</g>
<!-- Node0&#45;&gt;Node2 -->
<g id="edge2" class="edge">
<title>Node0&#45;&gt;Node2</title>
<path fill="none" stroke="#191970" d="M2828.8065,-620.4566C2611.4057,-568.9811 1531.2033,-313.2136 1289.1742,-255.9066"/>
<polygon fill="#191970" stroke="#191970" points="1289.8062,-252.4595 1279.2688,-253.5612 1288.1933,-259.2712 1289.8062,-252.4595"/>
</g>
<!-- Node42 -->
<g id="node26" class="node">
<title>Node42</title>
<g id="a_node26"><a xlink:href="StdDefs_8h_source.html" target="_top" xlink:title=" ">
<polygon fill="#ffffff" stroke="#000000" points="753.0864,-565.5 753.0864,-583.5 876.9136,-583.5 876.9136,-565.5 753.0864,-565.5"/>
<text text-anchor="middle" x="815" y="-571.5" font-family="FreeSans" font-size="10.00" fill="#000000">DGtal/helpers/StdDefs.h</text>
</a>
</g>
</g>
<!-- Node0&#45;&gt;Node42 -->
<g id="edge45" class="edge">
<title>Node0&#45;&gt;Node42</title>
<path fill="none" stroke="#191970" d="M2809.4357,-627.9571C2518.4176,-620.1569 1210.3361,-585.0962 887.2989,-576.4378"/>
<polygon fill="#191970" stroke="#191970" points="887.2167,-572.9345 877.1265,-576.1652 887.0291,-579.932 887.2167,-572.9345"/>
</g>
<!-- Node159 -->
<g id="node38" class="node">
<title>Node159</title>
<g id="a_node38"><a xlink:href="ImageSelector_8h_source.html" target="_top" xlink:title=" ">
<polygon fill="#ffffff" stroke="#000000" points="2387.1875,-440.5 2387.1875,-458.5 2538.8125,-458.5 2538.8125,-440.5 2387.1875,-440.5"/>
<text text-anchor="middle" x="2463" y="-446.5" font-family="FreeSans" font-size="10.00" fill="#000000">DGtal/images/ImageSelector.h</text>
</a>
</g>
</g>
<!-- Node0&#45;&gt;Node159 -->
<g id="edge90" class="edge">
<title>Node0&#45;&gt;Node159</title>
<path fill="none" stroke="#191970" d="M2846.6887,-620.4504C2780.5537,-590.9843 2571.1521,-497.6866 2492.8928,-462.8186"/>
<polygon fill="#191970" stroke="#191970" points="2494.1514,-459.5477 2483.5926,-458.6749 2491.3025,-465.9418 2494.1514,-459.5477"/>
</g>
<!-- Node181 -->
<g id="node44" class="node">
<title>Node181</title>
<g id="a_node44"><a xlink:href="HueShadeColorMap_8h_source.html" target="_top" xlink:title=" ">
<polygon fill="#ffffff" stroke="#000000" points="2765.1357,-300.5 2765.1357,-328.5 2882.8643,-328.5 2882.8643,-300.5 2765.1357,-300.5"/>
<text text-anchor="start" x="2773.1357" y="-316.5" font-family="FreeSans" font-size="10.00" fill="#000000">DGtal/io/colormaps</text>
<text text-anchor="middle" x="2824" y="-306.5" font-family="FreeSans" font-size="10.00" fill="#000000">/HueShadeColorMap.h</text>
</a>
</g>
</g>
<!-- Node0&#45;&gt;Node181 -->
<g id="edge115" class="edge">
<title>Node0&#45;&gt;Node181</title>
<path fill="none" stroke="#191970" d="M2872.2837,-620.3014C2882.7251,-601.2295 2905,-555.713 2905,-514.5 2905,-514.5 2905,-514.5 2905,-449.5 2905,-412.5917 2900.1642,-401.5429 2881,-370 2873.0361,-356.892 2861.256,-344.7128 2850.4691,-335.1232"/>
<polygon fill="#191970" stroke="#191970" points="2852.7355,-332.4561 2842.8588,-328.6218 2848.1887,-337.7784 2852.7355,-332.4561"/>
</g>
<!-- Node200 -->
<g id="node47" class="node">
<title>Node200</title>
<g id="a_node47"><a xlink:href="MagickReader_8h_source.html" target="_top" xlink:title=" ">
<polygon fill="#ffffff" stroke="#ff0000" points="2429.0742,-305.5 2429.0742,-323.5 2592.9258,-323.5 2592.9258,-305.5 2429.0742,-305.5"/>
<text text-anchor="middle" x="2511" y="-311.5" font-family="FreeSans" font-size="10.00" fill="#000000">DGtal/io/readers/MagickReader.h</text>
</a>
</g>
</g>
<!-- Node0&#45;&gt;Node200 -->
<g id="edge122" class="edge">
<title>Node0&#45;&gt;Node200</title>
<path fill="none" stroke="#191970" d="M2853.875,-620.432C2830.25,-602.9227 2783,-561.9705 2783,-514.5 2783,-514.5 2783,-514.5 2783,-449.5 2783,-399.1097 2631.3247,-348.6969 2554.5,-326.3943"/>
<polygon fill="#191970" stroke="#191970" points="2555.2027,-322.9549 2544.6253,-323.5629 2553.2732,-329.6837 2555.2027,-322.9549"/>
</g>
<!-- Node204 -->
<g id="node48" class="node">
<title>Node204</title>
<g id="a_node48"><a xlink:href="Board2D_8h_source.html" target="_top" xlink:title=" ">
<polygon fill="#ffffff" stroke="#ff0000" points="2610.9683,-305.5 2610.9683,-323.5 2747.0317,-323.5 2747.0317,-305.5 2610.9683,-305.5"/>
<text text-anchor="middle" x="2679" y="-311.5" font-family="FreeSans" font-size="10.00" fill="#000000">DGtal/io/boards/Board2D.h</text>
</a>
</g>
</g>
<!-- Node0&#45;&gt;Node204 -->
<g id="edge125" class="edge">
<title>Node0&#45;&gt;Node204</title>
<path fill="none" stroke="#191970" d="M2867,-620.258C2867,-600.7299 2867,-553.8316 2867,-514.5 2867,-514.5 2867,-514.5 2867,-449.5 2867,-380.7001 2782.902,-343.5411 2727.2001,-326.4748"/>
<polygon fill="#191970" stroke="#191970" points="2728.0798,-323.0853 2717.4983,-323.6155 2726.1009,-329.7997 2728.0798,-323.0853"/>
</g>
<!-- Node326 -->
<g id="node49" class="node">
<title>Node326</title>
<g id="a_node49"><a xlink:title=" ">
<polygon fill="#ffffff" stroke="#bfbfbf" points="3053.207,-565.5 3053.207,-583.5 3124.793,-583.5 3124.793,-565.5 3053.207,-565.5"/>
<text text-anchor="middle" x="3089" y="-571.5" font-family="FreeSans" font-size="10.00" fill="#000000">ConfigTest.h</text>
</a>
</g>
</g>
<!-- Node0&#45;&gt;Node326 -->
<g id="edge130" class="edge">
<title>Node0&#45;&gt;Node326</title>
<path fill="none" stroke="#191970" d="M2903.6588,-620.4179C2941.8862,-610.9471 3001.8848,-596.0826 3043.2059,-585.8454"/>
<polygon fill="#191970" stroke="#191970" points="3044.1585,-589.2153 3053.0234,-583.4131 3042.4751,-582.4207 3044.1585,-589.2153"/>
</g>
<!-- Node327 -->
<g id="node50" class="node">
<title>Node327</title>
<g id="a_node50"><a xlink:title=" ">
<polygon fill="#ffffff" stroke="#bfbfbf" points="3142.9878,-565.5 3142.9878,-583.5 3219.0122,-583.5 3219.0122,-565.5 3142.9878,-565.5"/>
<text text-anchor="middle" x="3181" y="-571.5" font-family="FreeSans" font-size="10.00" fill="#000000">DGtalCatch.h</text>
</a>
</g>
</g>
<!-- Node0&#45;&gt;Node327 -->
<g id="edge131" class="edge">
<title>Node0&#45;&gt;Node327</title>
<path fill="none" stroke="#191970" d="M2922.829,-620.4974C2974.6904,-612.0189 3054.3284,-598.7063 3132.7467,-584.1919"/>
<polygon fill="#191970" stroke="#191970" points="3133.6076,-587.5919 3142.7995,-582.3232 3132.3283,-580.7098 3133.6076,-587.5919"/>
</g>
<!-- Node2&#45;&gt;Node1 -->
<g id="edge3" class="edge">
<title>Node2&#45;&gt;Node1</title>
<path fill="none" stroke="#191970" d="M1246.7893,-235.4077C1257.2538,-219.5243 1280.6887,-186.3819 1307,-165 1337.1657,-140.4858 1389.3703,-146.1166 1375,-110 1362.5633,-78.7433 1352.2784,-71.5659 1323,-55 1294.3877,-38.811 1204.8656,-23.0539 1153.4048,-15.0132"/>
<polygon fill="#191970" stroke="#191970" points="1153.7594,-11.5266 1143.3431,-13.4636 1152.6938,-18.4451 1153.7594,-11.5266"/>
</g>
<!-- Node3 -->
<g id="node4" class="node">
<title>Node3</title>
<g id="a_node4"><a xlink:title=" ">
<polygon fill="#ffffff" stroke="#bfbfbf" points="1315.5962,-170.5 1315.5962,-188.5 1374.4038,-188.5 1374.4038,-170.5 1315.5962,-170.5"/>
<text text-anchor="middle" x="1345" y="-176.5" font-family="FreeSans" font-size="10.00" fill="#000000">exception</text>
</a>
</g>
</g>
<!-- Node2&#45;&gt;Node3 -->
<g id="edge4" class="edge">
<title>Node2&#45;&gt;Node3</title>
<path fill="none" stroke="#191970" d="M1255.4608,-235.462C1272.5945,-224.7534 1301.3711,-206.7681 1321.6694,-194.0816"/>
<polygon fill="#191970" stroke="#191970" points="1323.7018,-196.9388 1330.3268,-188.6708 1319.9918,-191.0028 1323.7018,-196.9388"/>
</g>
<!-- Node4 -->
<g id="node5" class="node">
<title>Node4</title>
<g id="a_node5"><a xlink:title=" ">
<polygon fill="#ffffff" stroke="#bfbfbf" points="2206.436,-55.5 2206.436,-73.5 2263.564,-73.5 2263.564,-55.5 2206.436,-55.5"/>
<text text-anchor="middle" x="2235" y="-61.5" font-family="FreeSans" font-size="10.00" fill="#000000">algorithm</text>
</a>
</g>
</g>
<!-- Node2&#45;&gt;Node4 -->
<g id="edge5" class="edge">
<title>Node2&#45;&gt;Node4</title>
<path fill="none" stroke="#191970" d="M1282.1641,-235.4342C1292.5158,-233.4 1303.6313,-231.4251 1314,-230 1416.8967,-215.8574 1682.959,-231.0242 1780,-194 1799.8495,-186.4268 1798.8164,-174.1295 1818,-165 1948.3701,-102.9567 2120.45,-77.2458 2196.2851,-68.4213"/>
<polygon fill="#191970" stroke="#191970" points="2196.7888,-71.8867 2206.3327,-67.2861 2196.0029,-64.931 2196.7888,-71.8867"/>
</g>
<!-- Node5 -->
<g id="node6" class="node">
<title>Node5</title>
<g id="a_node6"><a xlink:title=" ">
<polygon fill="#ffffff" stroke="#bfbfbf" points="1392.5298,-170.5 1392.5298,-188.5 1487.4702,-188.5 1487.4702,-170.5 1392.5298,-170.5"/>
<text text-anchor="middle" x="1440" y="-176.5" font-family="FreeSans" font-size="10.00" fill="#000000">boost/version.hpp</text>
</a>
</g>
</g>
<!-- Node2&#45;&gt;Node5 -->
<g id="edge6" class="edge">
<title>Node2&#45;&gt;Node5</title>
<path fill="none" stroke="#191970" d="M1268.6701,-235.462C1303.4728,-224.0943 1363.3803,-204.5265 1402.3362,-191.8023"/>
<polygon fill="#191970" stroke="#191970" points="1403.8258,-194.9977 1412.2449,-188.5658 1401.6523,-188.3437 1403.8258,-194.9977"/>
</g>
<!-- Node6 -->
<g id="node7" class="node">
<title>Node6</title>
<g id="a_node7"><a xlink:title=" ">
<polygon fill="#ffffff" stroke="#bfbfbf" points="1505.2935,-170.5 1505.2935,-188.5 1634.7065,-188.5 1634.7065,-170.5 1505.2935,-170.5"/>
<text text-anchor="middle" x="1570" y="-176.5" font-family="FreeSans" font-size="10.00" fill="#000000">boost/concept_check.hpp</text>
</a>
</g>
</g>
<!-- Node2&#45;&gt;Node6 -->
<g id="edge7" class="edge">
<title>Node2&#45;&gt;Node6</title>
<path fill="none" stroke="#191970" d="M1286.5592,-235.441C1295.6488,-233.6363 1305.1273,-231.7563 1314,-230 1382.9494,-216.3516 1462.3582,-200.697 1514.2206,-190.4815"/>
<polygon fill="#191970" stroke="#191970" points="1515.0794,-193.8796 1524.2145,-188.5131 1513.7266,-187.0116 1515.0794,-193.8796"/>
</g>
<!-- Node7 -->
<g id="node8" class="node">
<title>Node7</title>
<g id="a_node8"><a xlink:title=" ">
<polygon fill="#ffffff" stroke="#bfbfbf" points="1652.5815,-170.5 1652.5815,-188.5 1771.4185,-188.5 1771.4185,-170.5 1652.5815,-170.5"/>
<text text-anchor="middle" x="1712" y="-176.5" font-family="FreeSans" font-size="10.00" fill="#000000">boost/static_assert.hpp</text>
</a>
</g>
</g>
<!-- Node2&#45;&gt;Node7 -->
<g id="edge8" class="edge">
<title>Node2&#45;&gt;Node7</title>
<path fill="none" stroke="#191970" d="M1283.3506,-235.4367C1293.37,-233.4734 1304.0382,-231.5297 1314,-230 1459.8275,-207.6068 1498.333,-217.4143 1644,-194 1650.1787,-193.0068 1656.6437,-191.8213 1663.0256,-190.5619"/>
<polygon fill="#191970" stroke="#191970" points="1663.8351,-193.969 1672.9329,-188.5393 1662.4348,-187.1104 1663.8351,-193.969"/>
</g>
<!-- Node8 -->
<g id="node9" class="node">
<title>Node8</title>
<g id="a_node9"><a xlink:title=" ">
<polygon fill="#ffffff" stroke="#bfbfbf" points="1827.1309,-170.5 1827.1309,-188.5 1954.8691,-188.5 1954.8691,-170.5 1827.1309,-170.5"/>
<text text-anchor="middle" x="1891" y="-176.5" font-family="FreeSans" font-size="10.00" fill="#000000">boost/concept/assert.hpp</text>
</a>
</g>
</g>
<!-- Node2&#45;&gt;Node8 -->
<g id="edge9" class="edge">
<title>Node2&#45;&gt;Node8</title>
<path fill="none" stroke="#191970" d="M1281.7761,-235.4726C1292.2363,-233.4126 1303.4997,-231.416 1314,-230 1534.3594,-200.2829 1592.4623,-222.3637 1813,-194 1820.7804,-192.9993 1828.9596,-191.7263 1836.9749,-190.3515"/>
<polygon fill="#191970" stroke="#191970" points="1837.7652,-193.7659 1846.9977,-188.5686 1836.5392,-186.8741 1837.7652,-193.7659"/>
</g>
<!-- Node9 -->
<g id="node10" class="node">
<title>Node9</title>
<g id="a_node10"><a xlink:title=" ">
<polygon fill="#ffffff" stroke="#bfbfbf" points="1972.6826,-170.5 1972.6826,-188.5 2109.3174,-188.5 2109.3174,-170.5 1972.6826,-170.5"/>
<text text-anchor="middle" x="2041" y="-176.5" font-family="FreeSans" font-size="10.00" fill="#000000">boost/concept/requires.hpp</text>
</a>
</g>
</g>
<!-- Node2&#45;&gt;Node9 -->
<g id="edge10" class="edge">
<title>Node2&#45;&gt;Node9</title>
<path fill="none" stroke="#191970" d="M1281.3778,-235.4264C1291.9458,-233.3415 1303.36,-231.3446 1314,-230 1601.0487,-193.7258 1676.7744,-228.8462 1964,-194 1971.9684,-193.0333 1980.3544,-191.7418 1988.5421,-190.3267"/>
<polygon fill="#191970" stroke="#191970" points="1989.1685,-193.7703 1998.3896,-188.5528 1987.9274,-186.8812 1989.1685,-193.7703"/>
</g>
<!-- Node10 -->
<g id="node11" class="node">
<title>Node10</title>
<g id="a_node11"><a xlink:title=" ">
<polygon fill="#ffffff" stroke="#bfbfbf" points="732.8672,-165.5 732.8672,-193.5 841.1328,-193.5 841.1328,-165.5 732.8672,-165.5"/>
<text text-anchor="start" x="740.8672" y="-181.5" font-family="FreeSans" font-size="10.00" fill="#000000">boost/iterator/iterator</text>
<text text-anchor="middle" x="787" y="-171.5" font-family="FreeSans" font-size="10.00" fill="#000000">_concepts.hpp</text>
</a>
</g>
</g>
<!-- Node2&#45;&gt;Node10 -->
<g id="edge11" class="edge">
<title>Node2&#45;&gt;Node10</title>
<path fill="none" stroke="#191970" d="M1182.1016,-238.7076C1107.3576,-230.9533 974.3086,-215.8047 851.2051,-194.1119"/>
<polygon fill="#191970" stroke="#191970" points="851.6857,-190.6425 841.2269,-192.3351 850.4584,-197.5341 851.6857,-190.6425"/>
</g>
<!-- Node11 -->
<g id="node12" class="node">
<title>Node11</title>
<g id="a_node12"><a xlink:title=" ">
<polygon fill="#ffffff" stroke="#bfbfbf" points="859.397,-170.5 859.397,-188.5 1006.603,-188.5 1006.603,-170.5 859.397,-170.5"/>
<text text-anchor="middle" x="933" y="-176.5" font-family="FreeSans" font-size="10.00" fill="#000000">boost/concept_archetype.hpp</text>
</a>
</g>
</g>
<!-- Node2&#45;&gt;Node11 -->
<g id="edge12" class="edge">
<title>Node2&#45;&gt;Node11</title>
<path fill="none" stroke="#191970" d="M1198.1739,-235.462C1142.7039,-223.7557 1046.029,-203.3535 985.9941,-190.6838"/>
<polygon fill="#191970" stroke="#191970" points="986.4649,-187.2062 975.9577,-188.5658 985.0195,-194.0553 986.4649,-187.2062"/>
</g>
<!-- Node12 -->
<g id="node13" class="node">
<title>Node12</title>
<g id="a_node13"><a xlink:title=" ">
<polygon fill="#ffffff" stroke="#bfbfbf" points="792.3843,-110.5 792.3843,-128.5 835.6157,-128.5 835.6157,-110.5 792.3843,-110.5"/>
<text text-anchor="middle" x="814" y="-116.5" font-family="FreeSans" font-size="10.00" fill="#000000">cmath</text>
</a>
</g>
</g>
<!-- Node2&#45;&gt;Node12 -->
<g id="edge13" class="edge">
<title>Node2&#45;&gt;Node12</title>
<path fill="none" stroke="#191970" d="M1215.7358,-235.4021C1191.1896,-226.1891 1153.1642,-210.9177 1122,-194 1101.7414,-183.0024 1100.3923,-173.5864 1079,-165 999.123,-132.939 896.8368,-123.4583 845.8592,-120.6629"/>
<polygon fill="#191970" stroke="#191970" points="845.948,-117.1631 835.7865,-120.1622 845.6004,-124.1545 845.948,-117.1631"/>
</g>
<!-- Node13 -->
<g id="node14" class="node">
<title>Node13</title>
<g id="a_node14"><a xlink:title=" ">
<polygon fill="#ffffff" stroke="#bfbfbf" points="1024.2686,-170.5 1024.2686,-188.5 1069.7314,-188.5 1069.7314,-170.5 1024.2686,-170.5"/>
<text text-anchor="middle" x="1047" y="-176.5" font-family="FreeSans" font-size="10.00" fill="#000000">stdio.h</text>
</a>
</g>
</g>
<!-- Node2&#45;&gt;Node13 -->
<g id="edge14" class="edge">
<title>Node2&#45;&gt;Node13</title>
<path fill="none" stroke="#191970" d="M1211.008,-235.462C1179.2741,-225.7573 1127.8274,-209.6194 1084,-194 1082.3915,-193.4268 1080.7482,-192.8288 1079.0919,-192.2164"/>
<polygon fill="#191970" stroke="#191970" points="1080.2054,-188.8954 1069.6142,-188.6198 1077.7219,-195.4401 1080.2054,-188.8954"/>
</g>
<!-- Node14 -->
<g id="node15" class="node">
<title>Node14</title>
<g id="a_node15"><a xlink:href="Config_8h_source.html" target="_top" xlink:title=" ">
<polygon fill="#ffffff" stroke="#ff0000" points="506.9756,-55.5 506.9756,-73.5 613.0244,-73.5 613.0244,-55.5 506.9756,-55.5"/>
<text text-anchor="middle" x="560" y="-61.5" font-family="FreeSans" font-size="10.00" fill="#000000">DGtal/base/Config.h</text>
</a>
</g>
</g>
<!-- Node2&#45;&gt;Node14 -->
<g id="edge15" class="edge">
<title>Node2&#45;&gt;Node14</title>
<path fill="none" stroke="#191970" d="M1181.928,-242.9065C1002.8817,-237.7923 476.9145,-220.5601 452,-194 400.7438,-139.3583 505.4616,-176.2213 546,-129 556.7188,-116.5141 559.8174,-97.7391 560.4721,-83.6603"/>
<polygon fill="#191970" stroke="#191970" points="563.9725,-83.6203 560.5721,-73.586 556.9729,-83.5507 563.9725,-83.6203"/>
</g>
<!-- Node16 -->
<g id="node16" class="node">
<title>Node16</title>
<g id="a_node16"><a xlink:href="Trace_8h_source.html" target="_top" xlink:title=" ">
<polygon fill="#ffffff" stroke="#ff0000" points="460.8311,-170.5 460.8311,-188.5 563.1689,-188.5 563.1689,-170.5 460.8311,-170.5"/>
<text text-anchor="middle" x="512" y="-176.5" font-family="FreeSans" font-size="10.00" fill="#000000">DGtal/base/Trace.h</text>
</a>
</g>
</g>
<!-- Node2&#45;&gt;Node16 -->
<g id="edge17" class="edge">
<title>Node2&#45;&gt;Node16</title>
<path fill="none" stroke="#191970" d="M1181.7672,-240.8979C1070.5166,-233.8714 822.8043,-216.9884 615,-194 601.5552,-192.5127 587.16,-190.6543 573.5215,-188.7694"/>
<polygon fill="#191970" stroke="#191970" points="573.6576,-185.2542 563.2679,-187.3285 572.6835,-192.1861 573.6576,-185.2542"/>
</g>
<!-- Node23 -->
<g id="node17" class="node">
<title>Node23</title>
<g id="a_node17"><a xlink:href="TraceWriterTerm_8h_source.html" target="_top" xlink:title=" ">
<polygon fill="#ffffff" stroke="#ff0000" points="385.478,-110.5 385.478,-128.5 536.522,-128.5 536.522,-110.5 385.478,-110.5"/>
<text text-anchor="middle" x="461" y="-116.5" font-family="FreeSans" font-size="10.00" fill="#000000">DGtal/base/TraceWriterTerm.h</text>
</a>
</g>
</g>
<!-- Node2&#45;&gt;Node23 -->
<g id="edge25" class="edge">
<title>Node2&#45;&gt;Node23</title>
<path fill="none" stroke="#191970" d="M1182.0723,-243.0682C998.1079,-238.3146 445.1102,-221.7635 419,-194 402.5929,-176.554 423.5342,-151.517 441.2733,-135.3805"/>
<polygon fill="#191970" stroke="#191970" points="443.7789,-137.8409 449.0527,-128.6519 439.1997,-132.5465 443.7789,-137.8409"/>
</g>
<!-- Node24 -->
<g id="node18" class="node">
<title>Node24</title>
<g id="a_node18"><a xlink:href="Assert_8h_source.html" target="_top" xlink:title=" ">
<polygon fill="#ffffff" stroke="#ff0000" points="669.2588,-110.5 669.2588,-128.5 774.7412,-128.5 774.7412,-110.5 669.2588,-110.5"/>
<text text-anchor="middle" x="722" y="-116.5" font-family="FreeSans" font-size="10.00" fill="#000000">DGtal/base/Assert.h</text>
</a>
</g>
</g>
<!-- Node2&#45;&gt;Node24 -->
<g id="edge28" class="edge">
<title>Node2&#45;&gt;Node24</title>
<path fill="none" stroke="#191970" d="M1182.0137,-243.4765C1046.8094,-240.5201 723.6174,-229.7495 691,-194 676.0444,-177.6083 691.4623,-152.9811 705.3938,-136.584"/>
<polygon fill="#191970" stroke="#191970" points="708.2744,-138.6161 712.3748,-128.8468 703.0772,-133.9268 708.2744,-138.6161"/>
</g>
<!-- Node27 -->
<g id="node19" class="node">
<title>Node27</title>
<g id="a_node19"><a xlink:href="TraceWriterFile_8h_source.html" target="_top" xlink:title=" ">
<polygon fill="#ffffff" stroke="#ff0000" points="791.5322,-55.5 791.5322,-73.5 936.4678,-73.5 936.4678,-55.5 791.5322,-55.5"/>
<text text-anchor="middle" x="864" y="-61.5" font-family="FreeSans" font-size="10.00" fill="#000000">DGtal/base/TraceWriterFile.h</text>
</a>
</g>
</g>
<!-- Node2&#45;&gt;Node27 -->
<g id="edge26" class="edge">
<title>Node2&#45;&gt;Node27</title>
<path fill="none" stroke="#191970" d="M1181.9547,-243.1023C1052.806,-239.4347 754.2954,-227.3988 724,-194 715.3405,-184.4534 716.2945,-175.3319 724,-165 757.5435,-120.0235 805.3798,-168.7277 845,-129 856.8382,-117.1297 861.3737,-98.2796 863.0744,-84.0162"/>
<polygon fill="#191970" stroke="#191970" points="866.5846,-84.0347 863.9159,-73.7815 859.6081,-83.4611 866.5846,-84.0347"/>
</g>
<!-- Node28 -->
<g id="node20" class="node">
<title>Node28</title>
<g id="a_node20"><a xlink:href="ConceptUtils_8h_source.html" target="_top" xlink:title=" ">
<polygon fill="#ffffff" stroke="#000000" points="954.084,-55.5 954.084,-73.5 1087.916,-73.5 1087.916,-55.5 954.084,-55.5"/>
<text text-anchor="middle" x="1021" y="-61.5" font-family="FreeSans" font-size="10.00" fill="#000000">DGtal/base/ConceptUtils.h</text>
</a>
</g>
</g>
<!-- Node2&#45;&gt;Node28 -->
<g id="edge29" class="edge">
<title>Node2&#45;&gt;Node28</title>
<path fill="none" stroke="#191970" d="M1227.2281,-235.3261C1204.2826,-220.1517 1156.633,-189.1082 1115,-165 1085.4072,-147.8638 1069.8944,-154.4013 1047,-129 1035.5193,-116.2622 1028.7747,-97.8045 1025.0448,-83.8947"/>
<polygon fill="#191970" stroke="#191970" points="1028.3886,-82.8275 1022.6669,-73.9105 1021.579,-84.4494 1028.3886,-82.8275"/>
</g>
<!-- Node29 -->
<g id="node21" class="node">
<title>Node29</title>
<g id="a_node21"><a xlink:href="BasicTypes_8h_source.html" target="_top" xlink:title=" ">
<polygon fill="#ffffff" stroke="#ff0000" points="1055.8599,-110.5 1055.8599,-128.5 1184.1401,-128.5 1184.1401,-110.5 1055.8599,-110.5"/>
<text text-anchor="middle" x="1120" y="-116.5" font-family="FreeSans" font-size="10.00" fill="#000000">DGtal/base/BasicTypes.h</text>
</a>
</g>
</g>
<!-- Node2&#45;&gt;Node29 -->
<g id="edge31" class="edge">
<title>Node2&#45;&gt;Node29</title>
<path fill="none" stroke="#191970" d="M1231.9053,-235.1047C1211.484,-214.0082 1161.7673,-162.648 1136.03,-136.0599"/>
<polygon fill="#191970" stroke="#191970" points="1138.3414,-133.4154 1128.8714,-128.6646 1133.3118,-138.2841 1138.3414,-133.4154"/>
</g>
<!-- Node32 -->
<g id="node22" class="node">
<title>Node32</title>
<g id="a_node22"><a xlink:href="BasicFunctors_8h_source.html" target="_top" xlink:title=" ">
<polygon fill="#ffffff" stroke="#ff0000" points="2164.7515,-170.5 2164.7515,-188.5 2305.2485,-188.5 2305.2485,-170.5 2164.7515,-170.5"/>
<text text-anchor="middle" x="2235" y="-176.5" font-family="FreeSans" font-size="10.00" fill="#000000">DGtal/base/BasicFunctors.h</text>
</a>
</g>
</g>
<!-- Node2&#45;&gt;Node32 -->
<g id="edge33" class="edge">
<title>Node2&#45;&gt;Node32</title>
<path fill="none" stroke="#191970" d="M1271.9337,-235.4872C1282.3842,-233.3482 1294.0953,-231.3097 1305,-230 1674.6871,-185.5992 1771.7839,-233.7498 2142,-194 2151.077,-193.0254 2160.6569,-191.6786 2170.0963,-190.1955"/>
<polygon fill="#191970" stroke="#191970" points="2170.9448,-193.6035 2180.2534,-188.5438 2169.8212,-186.6943 2170.9448,-193.6035"/>
</g>
<!-- Node40 -->
<g id="node24" class="node">
<title>Node40</title>
<g id="a_node24"><a xlink:href="BasicArchetypes_8h_source.html" target="_top" xlink:title=" ">
<polygon fill="#ffffff" stroke="#000000" points="1144.1899,-55.5 1144.1899,-73.5 1295.8101,-73.5 1295.8101,-55.5 1144.1899,-55.5"/>
<text text-anchor="middle" x="1220" y="-61.5" font-family="FreeSans" font-size="10.00" fill="#000000">DGtal/base/BasicArchetypes.h</text>
</a>
</g>
</g>
<!-- Node2&#45;&gt;Node40 -->
<g id="edge41" class="edge">
<title>Node2&#45;&gt;Node40</title>
<path fill="none" stroke="#191970" d="M1239.9297,-235.3263C1236.6586,-207.2881 1226.7436,-122.3019 1222.2529,-83.811"/>
<polygon fill="#191970" stroke="#191970" points="1225.7286,-83.3981 1221.0933,-73.8711 1218.7758,-84.2093 1225.7286,-83.3981"/>
</g>
<!-- Node41 -->
<g id="node25" class="node">
<title>Node41</title>
<g id="a_node25"><a xlink:href="Exceptions_8h_source.html" target="_top" xlink:title=" ">
<polygon fill="#ffffff" stroke="#000000" points="1239.9707,-110.5 1239.9707,-128.5 1366.0293,-128.5 1366.0293,-110.5 1239.9707,-110.5"/>
<text text-anchor="middle" x="1303" y="-116.5" font-family="FreeSans" font-size="10.00" fill="#000000">DGtal/base/Exceptions.h</text>
</a>
</g>
</g>
<!-- Node2&#45;&gt;Node41 -->
<g id="edge43" class="edge">
<title>Node2&#45;&gt;Node41</title>
<path fill="none" stroke="#191970" d="M1244.1712,-235.4473C1249.5541,-220.4474 1261.1535,-189.6489 1274,-165 1278.97,-155.464 1285.3141,-145.331 1290.8006,-137.0539"/>
<polygon fill="#191970" stroke="#191970" points="1293.798,-138.8697 1296.5116,-128.6282 1288.0036,-134.9422 1293.798,-138.8697"/>
</g>
<!-- Node14&#45;&gt;Node1 -->
<g id="edge16" class="edge">
<title>Node14&#45;&gt;Node1</title>
<path fill="none" stroke="#191970" d="M613.3636,-56.6978C617.9722,-56.0955 622.5661,-55.5203 627,-55 795.1326,-35.2696 996.6078,-18.775 1078.5718,-12.3652"/>
<polygon fill="#191970" stroke="#191970" points="1078.9499,-15.8464 1088.6482,-11.581 1078.4067,-8.8675 1078.9499,-15.8464"/>
</g>
<!-- Node16&#45;&gt;Node1 -->
<g id="edge18" class="edge">
<title>Node16&#45;&gt;Node1</title>
<path fill="none" stroke="#191970" d="M531.1056,-170.3897C559.2517,-157.0001 613.5506,-131.289 660,-110 714.4377,-85.0498 725.4184,-71.442 783,-55 887.4864,-25.1647 1016.173,-14.659 1078.5589,-11.1485"/>
<polygon fill="#191970" stroke="#191970" points="1078.9038,-14.6352 1088.703,-10.6071 1078.5306,-7.6451 1078.9038,-14.6352"/>
</g>
<!-- Node16&#45;&gt;Node14 -->
<g id="edge19" class="edge">
<title>Node16&#45;&gt;Node14</title>
<path fill="none" stroke="#191970" d="M532.577,-170.4212C548.4916,-162.1572 569.3821,-148.2933 579,-129 586.4599,-114.0357 579.6241,-95.6249 572.1544,-82.309"/>
<polygon fill="#191970" stroke="#191970" points="575.0306,-80.3052 566.7986,-73.6355 569.0746,-83.983 575.0306,-80.3052"/>
</g>
<!-- Node16&#45;&gt;Node23 -->
<g id="edge20" class="edge">
<title>Node16&#45;&gt;Node23</title>
<path fill="none" stroke="#191970" d="M504.2542,-170.3873C496.6156,-161.4007 484.7574,-147.4499 475.3877,-136.4267"/>
<polygon fill="#191970" stroke="#191970" points="477.962,-134.0511 468.8187,-128.6985 472.6284,-138.5847 477.962,-134.0511"/>
</g>
<!-- Node16&#45;&gt;Node24 -->
<g id="edge23" class="edge">
<title>Node16&#45;&gt;Node24</title>
<path fill="none" stroke="#191970" d="M538.8851,-170.3873C573.483,-159.8863 633.807,-142.607 675.7869,-131.141"/>
<polygon fill="#191970" stroke="#191970" points="676.7735,-134.4999 685.507,-128.5019 674.9392,-127.7445 676.7735,-134.4999"/>
</g>
<!-- Node23&#45;&gt;Node1 -->
<g id="edge21" class="edge">
<title>Node23&#45;&gt;Node1</title>
<path fill="none" stroke="#191970" d="M463.3633,-110.0662C467.5776,-95.4378 477.8966,-67.6525 498,-55 547.0464,-24.1316 951.3364,-12.9925 1078.1218,-10.2391"/>
<polygon fill="#191970" stroke="#191970" points="1078.5612,-13.7307 1088.4847,-10.0195 1078.4127,-6.7323 1078.5612,-13.7307"/>
</g>
<!-- Node23&#45;&gt;Node14 -->
<g id="edge22" class="edge">
<title>Node23&#45;&gt;Node14</title>
<path fill="none" stroke="#191970" d="M477.3478,-110.4179C492.9681,-101.7399 516.7398,-88.5334 534.7862,-78.5077"/>
<polygon fill="#191970" stroke="#191970" points="536.5861,-81.5117 543.6279,-73.5956 533.1865,-75.3925 536.5861,-81.5117"/>
</g>
<!-- Node24&#45;&gt;Node16 -->
<g id="edge24" class="edge">
<title>Node24&#45;&gt;Node16</title>
<path fill="none" stroke="#191970" d="M695.4799,-128.5019C661.064,-138.9549 600.7666,-156.2306 558.6578,-167.7375"/>
<polygon fill="#191970" stroke="#191970" points="557.6365,-164.3881 548.9038,-170.3873 559.4717,-171.1432 557.6365,-164.3881"/>
</g>
<!-- Node27&#45;&gt;Node1 -->
<g id="edge27" class="edge">
<title>Node27&#45;&gt;Node1</title>
<path fill="none" stroke="#191970" d="M905.3305,-55.4795C953.4916,-44.9681 1032.3699,-27.7526 1078.7231,-17.6358"/>
<polygon fill="#191970" stroke="#191970" points="1079.6311,-21.0201 1088.6548,-15.4682 1078.1384,-14.1811 1079.6311,-21.0201"/>
</g>
<!-- Node28&#45;&gt;Node1 -->
<g id="edge30" class="edge">
<title>Node28&#45;&gt;Node1</title>
<path fill="none" stroke="#191970" d="M1036.6873,-55.4179C1051.539,-46.8195 1074.0698,-33.7754 1091.3269,-23.7844"/>
<polygon fill="#191970" stroke="#191970" points="1093.3887,-26.635 1100.2894,-18.5956 1089.8815,-20.577 1093.3887,-26.635"/>
</g>
<!-- Node29&#45;&gt;Node1 -->
<g id="edge32" class="edge">
<title>Node29&#45;&gt;Node1</title>
<path fill="none" stroke="#191970" d="M1119.6727,-110.4982C1119.0251,-92.6913 1117.5681,-52.6225 1116.6964,-28.6515"/>
<polygon fill="#191970" stroke="#191970" points="1120.193,-28.4923 1116.3319,-18.6261 1113.1977,-28.7468 1120.193,-28.4923"/>
</g>
<!-- Node32&#45;&gt;Node2 -->
<g id="edge40" class="edge">
<title>Node32&#45;&gt;Node2</title>
<path fill="none" stroke="#191970" d="M2197.6175,-188.5438C2185.6529,-190.6556 2172.3601,-192.6729 2160,-194 1789.7839,-233.7498 1692.6871,-185.5992 1323,-230 1315.3327,-230.9209 1307.2666,-232.2021 1299.2914,-233.6252"/>
<polygon fill="#191970" stroke="#191970" points="1298.4667,-230.2184 1289.2749,-235.4872 1299.7461,-237.1005 1298.4667,-230.2184"/>
</g>
<!-- Node32&#45;&gt;Node4 -->
<g id="edge34" class="edge">
<title>Node32&#45;&gt;Node4</title>
<path fill="none" stroke="#191970" d="M2235,-170.4761C2235,-151.9256 2235,-109.142 2235,-83.9748"/>
<polygon fill="#191970" stroke="#191970" points="2238.5001,-83.8013 2235,-73.8014 2231.5001,-83.8014 2238.5001,-83.8013"/>
</g>
<!-- Node32&#45;&gt;Node12 -->
<g id="edge35" class="edge">
<title>Node32&#45;&gt;Node12</title>
<path fill="none" stroke="#191970" d="M2170.7361,-170.4837C2153.629,-168.3718 2135.1402,-166.3474 2118,-165 1643.1961,-127.6741 1522.9398,-146.7014 1047,-129 975.0876,-126.3254 890.7081,-122.785 845.8433,-120.8705"/>
<polygon fill="#191970" stroke="#191970" points="845.9822,-117.3733 835.8417,-120.4427 845.683,-124.3669 845.9822,-117.3733"/>
</g>
<!-- Node34 -->
<g id="node23" class="node">
<title>Node34</title>
<g id="a_node23"><a xlink:href="Color_8h_source.html" target="_top" xlink:title=" ">
<polygon fill="#ffffff" stroke="#ff0000" points="2436.7046,-110.5 2436.7046,-128.5 2523.2954,-128.5 2523.2954,-110.5 2436.7046,-110.5"/>
<text text-anchor="middle" x="2480" y="-116.5" font-family="FreeSans" font-size="10.00" fill="#000000">DGtal/io/Color.h</text>
</a>
</g>
</g>
<!-- Node32&#45;&gt;Node34 -->
<g id="edge36" class="edge">
<title>Node32&#45;&gt;Node34</title>
<path fill="none" stroke="#191970" d="M2271.9442,-170.4524C2315.0349,-159.8996 2386.3357,-142.4382 2433.2451,-130.9502"/>
<polygon fill="#191970" stroke="#191970" points="2434.2759,-134.3012 2443.1564,-128.5229 2432.6108,-127.5022 2434.2759,-134.3012"/>
</g>
<!-- Node34&#45;&gt;Node1 -->
<g id="edge37" class="edge">
<title>Node34&#45;&gt;Node1</title>
<path fill="none" stroke="#191970" d="M2475.1837,-110.3305C2466.8368,-95.5364 2448.1373,-66.8625 2423,-55 2364.1245,-27.2161 1361.3808,-12.6917 1153.5299,-9.9722"/>
<polygon fill="#191970" stroke="#191970" points="1153.4628,-6.4711 1143.4182,-9.841 1153.3719,-13.4705 1153.4628,-6.4711"/>
</g>
<!-- Node34&#45;&gt;Node2 -->
<g id="edge38" class="edge">
<title>Node34&#45;&gt;Node2</title>
<path fill="none" stroke="#191970" d="M2436.4266,-122.8659C2360.147,-129.2119 2205.7922,-144.2005 2156,-165 2136.3964,-173.1889 2137.9695,-186.7489 2118,-194 1949.8937,-255.0414 1491.5507,-208.5168 1314,-230 1306.5079,-230.9065 1298.6346,-232.1542 1290.944,-233.5401"/>
<polygon fill="#191970" stroke="#191970" points="1290.1614,-230.126 1280.9867,-235.4246 1291.4632,-237.0039 1290.1614,-230.126"/>
</g>
<!-- Node34&#45;&gt;Node4 -->
<g id="edge39" class="edge">
<title>Node34&#45;&gt;Node4</title>
<path fill="none" stroke="#191970" d="M2439.8176,-110.4795C2393.8483,-100.1598 2319.0945,-83.3784 2273.7385,-73.1964"/>
<polygon fill="#191970" stroke="#191970" points="2274.226,-69.7188 2263.7021,-70.9433 2272.6926,-76.5488 2274.226,-69.7188"/>
</g>
<!-- Node40&#45;&gt;Node1 -->
<g id="edge42" class="edge">
<title>Node40&#45;&gt;Node1</title>
<path fill="none" stroke="#191970" d="M1202.8265,-55.4179C1186.342,-46.7001 1161.2158,-33.4122 1142.2268,-23.3699"/>
<polygon fill="#191970" stroke="#191970" points="1143.6752,-20.1767 1133.199,-18.5956 1140.4027,-26.3646 1143.6752,-20.1767"/>
</g>
<!-- Node41&#45;&gt;Node1 -->
<g id="edge44" class="edge">
<title>Node41&#45;&gt;Node1</title>
<path fill="none" stroke="#191970" d="M1306.5678,-110.4624C1311.2841,-96.8599 1317.6183,-71.0166 1305,-55 1286.4758,-31.4871 1202.8812,-18.7133 1153.2847,-13.0852"/>
<polygon fill="#191970" stroke="#191970" points="1153.5735,-9.596 1143.253,-11.9914 1152.8147,-16.5548 1153.5735,-9.596"/>
</g>
<!-- Node42&#45;&gt;Node1 -->
<g id="edge46" class="edge">
<title>Node42&#45;&gt;Node1</title>
<path fill="none" stroke="#191970" d="M753.0736,-571.5215C562.8813,-561.5573 0,-525.6366 0,-449.5 0,-449.5 0,-449.5 0,-119.5 0,-80.0438 25.106,-71.3832 61,-55 108.1657,-33.4721 895.9577,-14.4582 1078.4627,-10.3288"/>
<polygon fill="#191970" stroke="#191970" points="1078.7194,-13.824 1088.6381,-10.0998 1078.5619,-6.8257 1078.7194,-13.824"/>
</g>
<!-- Node42&#45;&gt;Node2 -->
<g id="edge47" class="edge">
<title>Node42&#45;&gt;Node2</title>
<path fill="none" stroke="#191970" d="M877.0981,-570.253C1000.5449,-560.0994 1265,-529.0628 1265,-449.5 1265,-449.5 1265,-449.5 1265,-384.5 1265,-340.6975 1253.4458,-290.2801 1246.3711,-263.5148"/>
<polygon fill="#191970" stroke="#191970" points="1249.6693,-262.3062 1243.6601,-253.5804 1242.9163,-264.149 1249.6693,-262.3062"/>
</g>
<!-- Node43 -->
<g id="node27" class="node">
<title>Node43</title>
<g id="a_node27"><a xlink:href="SpaceND_8h_source.html" target="_top" xlink:title=" ">
<polygon fill="#ffffff" stroke="#ff0000" points="1111.2539,-305.5 1111.2539,-323.5 1236.7461,-323.5 1236.7461,-305.5 1111.2539,-305.5"/>
<text text-anchor="middle" x="1174" y="-311.5" font-family="FreeSans" font-size="10.00" fill="#000000">DGtal/kernel/SpaceND.h</text>
</a>
</g>
</g>
<!-- Node42&#45;&gt;Node43 -->
<g id="edge48" class="edge">
<title>Node42&#45;&gt;Node43</title>
<path fill="none" stroke="#191970" d="M877.2663,-567.9838C912.9823,-562.0156 957.4437,-550.6361 992,-529 1075.3653,-476.804 1140.2026,-373.9804 1164.0695,-332.4901"/>
<polygon fill="#191970" stroke="#191970" points="1167.2538,-333.9692 1169.125,-323.5409 1161.1591,-330.5262 1167.2538,-333.9692"/>
</g>
<!-- Node65 -->
<g id="node28" class="node">
<title>Node65</title>
<g id="a_node28"><a xlink:href="HyperRectDomain_8h_source.html" target="_top" xlink:title=" ">
<polygon fill="#ffffff" stroke="#ff0000" points="1982.9238,-300.5 1982.9238,-328.5 2095.0762,-328.5 2095.0762,-300.5 1982.9238,-300.5"/>
<text text-anchor="start" x="1990.9238" y="-316.5" font-family="FreeSans" font-size="10.00" fill="#000000">DGtal/kernel/domains</text>
<text text-anchor="middle" x="2039" y="-306.5" font-family="FreeSans" font-size="10.00" fill="#000000">/HyperRectDomain.h</text>
</a>
</g>
</g>
<!-- Node42&#45;&gt;Node65 -->
<g id="edge51" class="edge">
<title>Node42&#45;&gt;Node65</title>
<path fill="none" stroke="#191970" d="M877.277,-572.6559C971.6399,-568.9911 1156.1526,-558.4144 1310,-529 1572.5236,-478.8076 1876.0999,-373.7184 1991.3347,-332.0568"/>
<polygon fill="#191970" stroke="#191970" points="1992.7174,-335.2785 2000.9248,-328.5786 1990.3307,-328.698 1992.7174,-335.2785"/>
</g>
<!-- Node86 -->
<g id="node29" class="node">
<title>Node86</title>
<g id="a_node29"><a xlink:href="DigitalSetSelector_8h_source.html" target="_top" xlink:title=" ">
<polygon fill="#ffffff" stroke="#ff0000" points="244.3696,-300.5 244.3696,-328.5 367.6304,-328.5 367.6304,-300.5 244.3696,-300.5"/>
<text text-anchor="start" x="252.3696" y="-316.5" font-family="FreeSans" font-size="10.00" fill="#000000">DGtal/kernel/sets/Digital</text>
<text text-anchor="middle" x="306" y="-306.5" font-family="FreeSans" font-size="10.00" fill="#000000">SetSelector.h</text>
</a>
</g>
</g>
<!-- Node42&#45;&gt;Node86 -->
<g id="edge54" class="edge">
<title>Node42&#45;&gt;Node86</title>
<path fill="none" stroke="#191970" d="M752.8462,-569.3404C706.5796,-563.7523 642.7501,-552.2836 591,-529 480.1868,-479.1425 371.8108,-379.6977 327.2376,-335.9717"/>
<polygon fill="#191970" stroke="#191970" points="329.4816,-333.2683 319.9122,-328.721 324.5573,-338.2433 329.4816,-333.2683"/>
</g>
<!-- Node99 -->
<g id="node30" class="node">
<title>Node99</title>
<g id="a_node30"><a xlink:href="DigitalTopology_8h_source.html" target="_top" xlink:title=" ">
<polygon fill="#ffffff" stroke="#ff0000" points="65.8271,-305.5 65.8271,-323.5 226.1729,-323.5 226.1729,-305.5 65.8271,-305.5"/>
<text text-anchor="middle" x="146" y="-311.5" font-family="FreeSans" font-size="10.00" fill="#000000">DGtal/topology/DigitalTopology.h</text>
</a>
</g>
</g>
<!-- Node42&#45;&gt;Node99 -->
<g id="edge57" class="edge">
<title>Node42&#45;&gt;Node99</title>
<path fill="none" stroke="#191970" d="M752.8914,-570.5264C695.1444,-565.4147 607.3871,-553.9976 535,-529 384.4643,-477.0153 223.6698,-369.3243 167.1197,-329.6248"/>
<polygon fill="#191970" stroke="#191970" points="168.8505,-326.5621 158.6643,-323.648 164.81,-332.2783 168.8505,-326.5621"/>
</g>
<!-- Node106 -->
<g id="node31" class="node">
<title>Node106</title>
<g id="a_node31"><a xlink:href="MetricAdjacency_8h_source.html" target="_top" xlink:title=" ">
<polygon fill="#ffffff" stroke="#ff0000" points="1293.0562,-375.5 1293.0562,-393.5 1458.9438,-393.5 1458.9438,-375.5 1293.0562,-375.5"/>
<text text-anchor="middle" x="1376" y="-381.5" font-family="FreeSans" font-size="10.00" fill="#000000">DGtal/topology/MetricAdjacency.h</text>
</a>
</g>
</g>
<!-- Node42&#45;&gt;Node106 -->
<g id="edge60" class="edge">
<title>Node42&#45;&gt;Node106</title>
<path fill="none" stroke="#191970" d="M877.0771,-571.3549C995.5696,-564.925 1245.259,-549.1647 1279,-529 1327.9342,-499.7553 1357.4268,-435.1294 1369.5551,-403.159"/>
<polygon fill="#191970" stroke="#191970" points="1372.8785,-404.2611 1373.0056,-393.667 1366.2997,-401.8696 1372.8785,-404.2611"/>
</g>
<!-- Node109 -->
<g id="node32" class="node">
<title>Node109</title>
<g id="a_node32"><a xlink:href="Object_8h_source.html" target="_top" xlink:title=" ">
<polygon fill="#ffffff" stroke="#ff0000" points="453.9165,-375.5 453.9165,-393.5 576.0835,-393.5 576.0835,-375.5 453.9165,-375.5"/>
<text text-anchor="middle" x="515" y="-381.5" font-family="FreeSans" font-size="10.00" fill="#000000">DGtal/topology/Object.h</text>
</a>
</g>
</g>
<!-- Node42&#45;&gt;Node109 -->
<g id="edge64" class="edge">
<title>Node42&#45;&gt;Node109</title>
<path fill="none" stroke="#191970" d="M760.5034,-565.445C713.159,-556.8384 648.8482,-543.1414 627,-529 576.9665,-496.6156 540.0743,-433.9963 523.9638,-402.9192"/>
<polygon fill="#191970" stroke="#191970" points="526.9332,-401.0342 519.3079,-393.6785 520.6818,-404.1839 526.9332,-401.0342"/>
</g>
<!-- Node118 -->
<g id="node33" class="node">
<title>Node118</title>
<g id="a_node33"><a xlink:href="KhalimskySpaceND_8h_source.html" target="_top" xlink:title=" ">
<polygon fill="#ffffff" stroke="#ff0000" points="858.7539,-435.5 858.7539,-463.5 989.2461,-463.5 989.2461,-435.5 858.7539,-435.5"/>
<text text-anchor="start" x="866.7539" y="-451.5" font-family="FreeSans" font-size="10.00" fill="#000000">DGtal/topology/Khalimsky</text>
<text text-anchor="middle" x="924" y="-441.5" font-family="FreeSans" font-size="10.00" fill="#000000">SpaceND.h</text>
</a>
</g>
</g>
<!-- Node42&#45;&gt;Node118 -->
<g id="edge68" class="edge">
<title>Node42&#45;&gt;Node118</title>
<path fill="none" stroke="#191970" d="M818.47,-565.4761C824.4819,-550.6421 837.9439,-520.6886 856,-500 866.1149,-488.4104 879.3179,-477.8601 891.3962,-469.4349"/>
<polygon fill="#191970" stroke="#191970" points="893.5894,-472.1778 899.932,-463.6912 889.6815,-466.3701 893.5894,-472.1778"/>
</g>
<!-- Node119 -->
<g id="node34" class="node">
<title>Node119</title>
<g id="a_node34"><a xlink:href="KhalimskyPreSpaceND_8h_source.html" target="_top" xlink:title=" ">
<polygon fill="#ffffff" stroke="#ff0000" points="848.7539,-370.5 848.7539,-398.5 979.2461,-398.5 979.2461,-370.5 848.7539,-370.5"/>
<text text-anchor="start" x="856.7539" y="-386.5" font-family="FreeSans" font-size="10.00" fill="#000000">DGtal/topology/Khalimsky</text>
<text text-anchor="middle" x="914" y="-376.5" font-family="FreeSans" font-size="10.00" fill="#000000">PreSpaceND.h</text>
</a>
</g>
</g>
<!-- Node42&#45;&gt;Node119 -->
<g id="edge76" class="edge">
<title>Node42&#45;&gt;Node119</title>
<path fill="none" stroke="#191970" d="M815.2775,-565.1967C816.3915,-541.522 821.9788,-477.8363 850,-435 857.8412,-423.013 869.4848,-412.6113 880.699,-404.4148"/>
<polygon fill="#191970" stroke="#191970" points="882.8892,-407.1555 889.1208,-398.5871 878.906,-401.3993 882.8892,-407.1555"/>
</g>
<!-- Node122 -->
<g id="node35" class="node">
<title>Node122</title>
<g id="a_node35"><a xlink:href="GridCurve_8h_source.html" target="_top" xlink:title="Header file for module GridCurve.cpp.">
<polygon fill="#ffffff" stroke="#ff0000" points="864.8721,-500.5 864.8721,-528.5 983.1279,-528.5 983.1279,-500.5 864.8721,-500.5"/>
<text text-anchor="start" x="872.8721" y="-516.5" font-family="FreeSans" font-size="10.00" fill="#000000">DGtal/geometry/curves</text>
<text text-anchor="middle" x="924" y="-506.5" font-family="FreeSans" font-size="10.00" fill="#000000">/GridCurve.h</text>
</a>
</g>
</g>
<!-- Node42&#45;&gt;Node122 -->
<g id="edge77" class="edge">
<title>Node42&#45;&gt;Node122</title>
<path fill="none" stroke="#191970" d="M831.5548,-565.3873C846.8759,-556.9537 870.1396,-544.1479 889.4962,-533.4929"/>
<polygon fill="#191970" stroke="#191970" points="891.2791,-536.5068 898.3518,-528.6183 887.9035,-530.3744 891.2791,-536.5068"/>
</g>
<!-- Node152 -->
<g id="node36" class="node">
<title>Node152</title>
<g id="a_node36"><a xlink:href="ExactPredicateLpSeparableMetric_8h_source.html" target="_top" xlink:title=" ">
<polygon fill="#ffffff" stroke="#ff0000" points="499.6138,-295.5 499.6138,-333.5 682.3862,-333.5 682.3862,-295.5 499.6138,-295.5"/>
<text text-anchor="start" x="507.6138" y="-321.5" font-family="FreeSans" font-size="10.00" fill="#000000">DGtal/geometry/volumes</text>
<text text-anchor="start" x="507.6138" y="-311.5" font-family="FreeSans" font-size="10.00" fill="#000000">/distance/ExactPredicateLpSeparable</text>
<text text-anchor="middle" x="591" y="-301.5" font-family="FreeSans" font-size="10.00" fill="#000000">Metric.h</text>
</a>
</g>
</g>
<!-- Node42&#45;&gt;Node152 -->
<g id="edge82" class="edge">
<title>Node42&#45;&gt;Node152</title>
<path fill="none" stroke="#191970" d="M807.0277,-565.2465C776.1261,-529.3785 663.5303,-398.6869 614.3027,-341.5478"/>
<polygon fill="#191970" stroke="#191970" points="616.6955,-338.9628 607.5167,-333.6712 611.3922,-343.5318 616.6955,-338.9628"/>
</g>
<!-- Node157 -->
<g id="node37" class="node">
<title>Node157</title>
<g id="a_node37"><a xlink:href="ExactPredicateLpPowerSeparableMetric_8h_source.html" target="_top" xlink:title=" ">
<polygon fill="#ffffff" stroke="#ff0000" points="700.2368,-295.5 700.2368,-333.5 865.7632,-333.5 865.7632,-295.5 700.2368,-295.5"/>
<text text-anchor="start" x="708.2368" y="-321.5" font-family="FreeSans" font-size="10.00" fill="#000000">DGtal/geometry/volumes</text>
<text text-anchor="start" x="708.2368" y="-311.5" font-family="FreeSans" font-size="10.00" fill="#000000">/distance/ExactPredicateLpPower</text>
<text text-anchor="middle" x="783" y="-301.5" font-family="FreeSans" font-size="10.00" fill="#000000">SeparableMetric.h</text>
</a>
</g>
</g>
<!-- Node42&#45;&gt;Node157 -->
<g id="edge86" class="edge">
<title>Node42&#45;&gt;Node157</title>
<path fill="none" stroke="#191970" d="M813.8611,-565.2465C809.5009,-529.8195 793.7552,-401.8863 786.5924,-343.6884"/>
<polygon fill="#191970" stroke="#191970" points="790.055,-343.1687 785.3595,-333.6712 783.1074,-344.0239 790.055,-343.1687"/>
</g>
<!-- Node43&#45;&gt;Node1 -->
<g id="edge49" class="edge">
<title>Node43&#45;&gt;Node1</title>
<path fill="none" stroke="#191970" d="M1111.248,-310.7465C919.9373,-298.4744 357,-255.8744 357,-179.5 357,-179.5 357,-179.5 357,-119.5 357,-59.3418 418.2488,-71.8466 476,-55 590.182,-21.692 959.2304,-12.2921 1078.4695,-10.0907"/>
<polygon fill="#191970" stroke="#191970" points="1078.6333,-13.5884 1088.5692,-9.9106 1078.5084,-6.5896 1078.6333,-13.5884"/>
</g>
<!-- Node43&#45;&gt;Node2 -->
<g id="edge50" class="edge">
<title>Node43&#45;&gt;Node2</title>
<path fill="none" stroke="#191970" d="M1182.7591,-305.3487C1193.4336,-294.1962 1211.6805,-275.1324 1224.9103,-261.3101"/>
<polygon fill="#191970" stroke="#191970" points="1227.6388,-263.5213 1232.0249,-253.8769 1222.5819,-258.681 1227.6388,-263.5213"/>
</g>
<!-- Node65&#45;&gt;Node1 -->
<g id="edge52" class="edge">
<title>Node65&#45;&gt;Node1</title>
<path fill="none" stroke="#191970" d="M2095.2745,-300.5836C2175.8676,-279.385 2317.7046,-236.9191 2347,-194 2381.828,-142.9755 2389.8691,-99.4829 2347,-55 2325.7572,-32.9575 1357.2613,-13.938 1153.41,-10.1748"/>
<polygon fill="#191970" stroke="#191970" points="1153.2745,-6.6718 1143.2119,-9.9875 1153.146,-13.6706 1153.2745,-6.6718"/>
</g>
<!-- Node65&#45;&gt;Node2 -->
<g id="edge53" class="edge">
<title>Node65&#45;&gt;Node2</title>
<path fill="none" stroke="#191970" d="M1993.7421,-300.4561C1985.5715,-298.3329 1977.0812,-296.3911 1969,-295 1843.668,-273.4252 1467.1849,-254.6314 1310.5502,-247.5255"/>
<polygon fill="#191970" stroke="#191970" points="1310.2547,-244.0087 1300.1071,-247.0543 1309.9391,-251.0015 1310.2547,-244.0087"/>
</g>
<!-- Node86&#45;&gt;Node1 -->
<g id="edge55" class="edge">
<title>Node86&#45;&gt;Node1</title>
<path fill="none" stroke="#191970" d="M260.8679,-300.4022C218.5932,-286.8357 160.7701,-267.208 153,-259 127.6266,-232.1967 129,-216.4083 129,-179.5 129,-179.5 129,-179.5 129,-119.5 129,-88.9131 128.3011,-73.0422 153,-55 190.9773,-27.2581 904.7884,-13.1533 1078.252,-10.1268"/>
<polygon fill="#191970" stroke="#191970" points="1078.4876,-13.6234 1088.4257,-9.9512 1078.3668,-6.6244 1078.4876,-13.6234"/>
</g>
<!-- Node86&#45;&gt;Node2 -->
<g id="edge56" class="edge">
<title>Node86&#45;&gt;Node2</title>
<path fill="none" stroke="#191970" d="M368.0326,-307.3702C403.9256,-303.3928 449.9752,-298.542 491,-295 741.5852,-273.3649 1039.9502,-255.6833 1172.1265,-248.2648"/>
<polygon fill="#191970" stroke="#191970" points="1172.3259,-251.7592 1182.1148,-247.706 1171.9348,-244.7701 1172.3259,-251.7592"/>
</g>
<!-- Node99&#45;&gt;Node1 -->
<g id="edge58" class="edge">
<title>Node99&#45;&gt;Node1</title>
<path fill="none" stroke="#191970" d="M139.2559,-305.2125C124.5693,-284.0419 91,-230.1159 91,-179.5 91,-179.5 91,-179.5 91,-119.5 91,-85.532 102.6133,-72.0366 132,-55 173.6617,-30.8471 903.9634,-13.969 1078.6755,-10.2653"/>
<polygon fill="#191970" stroke="#191970" points="1078.7525,-13.7645 1088.6766,-10.0548 1078.6052,-6.7661 1078.7525,-13.7645"/>
</g>
<!-- Node99&#45;&gt;Node2 -->
<g id="edge59" class="edge">
<title>Node99&#45;&gt;Node2</title>
<path fill="none" stroke="#191970" d="M180.8471,-305.4638C197.1787,-301.5908 216.9699,-297.4109 235,-295 416.6709,-270.7082 975.3511,-252.3382 1171.8048,-246.4798"/>
<polygon fill="#191970" stroke="#191970" points="1172.1061,-249.9725 1181.9979,-246.1774 1171.8985,-242.9756 1172.1061,-249.9725"/>
</g>
<!-- Node106&#45;&gt;Node1 -->
<g id="edge61" class="edge">
<title>Node106&#45;&gt;Node1</title>
<path fill="none" stroke="#191970" d="M1429.9729,-375.4714C1625.2939,-342.5514 2285.3439,-229.0609 2314,-194 2322.1566,-184.0204 2316.2871,-177.6844 2314,-165 2304.742,-113.6535 2315.2607,-85.5974 2273,-55 2226.6564,-21.4465 1347.4559,-11.5855 1153.6045,-9.8151"/>
<polygon fill="#191970" stroke="#191970" points="1153.3861,-6.3131 1143.3551,-9.7233 1153.3233,-13.3128 1153.3861,-6.3131"/>
</g>
<!-- Node106&#45;&gt;Node2 -->
<g id="edge62" class="edge">
<title>Node106&#45;&gt;Node2</title>
<path fill="none" stroke="#191970" d="M1367.1423,-375.3142C1344.7296,-352.0714 1285.5211,-290.67 1256.9155,-261.005"/>
<polygon fill="#191970" stroke="#191970" points="1259.1757,-258.3066 1249.7148,-253.5376 1254.1368,-263.1656 1259.1757,-258.3066"/>
</g>
<!-- Node106&#45;&gt;Node43 -->
<g id="edge63" class="edge">
<title>Node106&#45;&gt;Node43</title>
<path fill="none" stroke="#191970" d="M1350.0056,-375.492C1314.3474,-363.1352 1250.114,-340.8762 1209.8914,-326.9376"/>
<polygon fill="#191970" stroke="#191970" points="1210.8094,-323.5516 1200.2146,-323.5843 1208.5173,-330.1657 1210.8094,-323.5516"/>
</g>
<!-- Node109&#45;&gt;Node1 -->
<g id="edge65" class="edge">
<title>Node109&#45;&gt;Node1</title>
<path fill="none" stroke="#191970" d="M494.5085,-375.425C474.6735,-366.2291 444.1451,-350.9699 420,-334 398.8913,-319.1642 400.0737,-306.5447 377,-295 301.6988,-257.3237 253.4968,-315.4263 191,-259 163.6054,-234.2663 167,-216.4083 167,-179.5 167,-179.5 167,-179.5 167,-119.5 167,-88.9131 166.3186,-73.0661 191,-55 227.3588,-28.3864 909.4522,-13.4909 1078.3917,-10.2002"/>
<polygon fill="#191970" stroke="#191970" points="1078.611,-13.6967 1088.5416,-10.0044 1078.476,-6.698 1078.611,-13.6967"/>
</g>
<!-- Node109&#45;&gt;Node2 -->
<g id="edge66" class="edge">
<title>Node109&#45;&gt;Node2</title>
<path fill="none" stroke="#191970" d="M576.3636,-378.6006C664.1491,-369.7003 820.9479,-351.9624 875,-334 909.1656,-322.6462 912.0096,-306.868 946,-295 1020.661,-268.9317 1110.8146,-256.0102 1171.6511,-249.8175"/>
<polygon fill="#191970" stroke="#191970" points="1172.297,-253.2709 1181.9065,-248.809 1171.6119,-246.3045 1172.297,-253.2709"/>
</g>
<!-- Node109&#45;&gt;Node86 -->
<g id="edge67" class="edge">
<title>Node109&#45;&gt;Node86</title>
<path fill="none" stroke="#191970" d="M488.1048,-375.492C455.2393,-364.4845 398.9124,-345.619 357.5851,-331.7773"/>
<polygon fill="#191970" stroke="#191970" points="358.5485,-328.4089 347.9546,-328.5518 356.3253,-335.0465 358.5485,-328.4089"/>
</g>
<!-- Node118&#45;&gt;Node1 -->
<g id="edge69" class="edge">
<title>Node118&#45;&gt;Node1</title>
<path fill="none" stroke="#191970" d="M858.7533,-445.2074C666.9763,-431.9916 114.8845,-389.4364 57,-334 27.6317,-305.8738 38,-285.1642 38,-244.5 38,-244.5 38,-244.5 38,-119.5 38,-78.8018 65.7271,-71.3425 103,-55 193.6079,-15.2725 906.1727,-10.2312 1078.5504,-9.5925"/>
<polygon fill="#191970" stroke="#191970" points="1078.6687,-13.0922 1088.6566,-9.5579 1078.6447,-6.0923 1078.6687,-13.0922"/>
</g>
<!-- Node118&#45;&gt;Node2 -->
<g id="edge70" class="edge">
<title>Node118&#45;&gt;Node2</title>
<path fill="none" stroke="#191970" d="M944.3511,-435.403C957.4706,-425.856 974.5319,-412.5536 988,-399 1029.2963,-357.4415 1020.5576,-327.9519 1069,-295 1099.5493,-274.2195 1138.7547,-261.8522 1172.0178,-254.564"/>
<polygon fill="#191970" stroke="#191970" points="1173.0553,-257.9232 1182.1339,-252.4615 1171.6309,-251.0696 1173.0553,-257.9232"/>
</g>
<!-- Node118&#45;&gt;Node43 -->
<g id="edge71" class="edge">
<title>Node118&#45;&gt;Node43</title>
<path fill="none" stroke="#191970" d="M951.6902,-435.3132C971.1452,-425.2897 997.7436,-411.4735 1021,-399 1066.3634,-374.6694 1118.7907,-345.4792 1149.0002,-328.5539"/>
<polygon fill="#191970" stroke="#191970" points="1150.981,-331.4559 1157.9907,-323.5114 1147.5567,-325.3506 1150.981,-331.4559"/>
</g>
<!-- Node118&#45;&gt;Node119 -->
<g id="edge72" class="edge">
<title>Node118&#45;&gt;Node119</title>
<path fill="none" stroke="#191970" d="M921.8301,-435.396C920.6246,-427.5597 919.0917,-417.5958 917.7024,-408.5653"/>
<polygon fill="#191970" stroke="#191970" points="921.1456,-407.928 916.1656,-398.5765 914.227,-408.9925 921.1456,-407.928"/>
</g>
<!-- Node119&#45;&gt;Node1 -->
<g id="edge73" class="edge">
<title>Node119&#45;&gt;Node1</title>
<path fill="none" stroke="#191970" d="M848.7061,-373.3218C841.0609,-372.1374 833.3644,-371.0016 826,-370 677.62,-349.8191 627.6181,-395.314 491,-334 467.4612,-323.4358 470.8811,-306.922 448,-295 384.1282,-261.72 348.1766,-301.4575 290,-259 256.8444,-234.8029 243,-220.5462 243,-179.5 243,-179.5 243,-179.5 243,-119.5 243,-80.6492 266.8973,-71.6489 302,-55 372.6396,-21.4962 927.6923,-11.9321 1078.3688,-9.9411"/>
<polygon fill="#191970" stroke="#191970" points="1078.5524,-13.4391 1088.5065,-9.8106 1078.4623,-6.4397 1078.5524,-13.4391"/>
</g>
<!-- Node119&#45;&gt;Node2 -->
<g id="edge74" class="edge">
<title>Node119&#45;&gt;Node2</title>
<path fill="none" stroke="#191970" d="M922.2148,-370.4569C934.7682,-350.3352 960.7045,-313.6742 993,-295 1022.8615,-277.7332 1109.3811,-262.6505 1171.8274,-253.5678"/>
<polygon fill="#191970" stroke="#191970" points="1172.6164,-256.9906 1182.0188,-252.1073 1171.6234,-250.0613 1172.6164,-256.9906"/>
</g>
<!-- Node119&#45;&gt;Node43 -->
<g id="edge75" class="edge">
<title>Node119&#45;&gt;Node43</title>
<path fill="none" stroke="#191970" d="M966.3021,-370.4187C1014.5542,-357.4277 1085.3636,-338.3637 1130.5698,-326.1927"/>
<polygon fill="#191970" stroke="#191970" points="1131.6203,-329.5346 1140.3665,-323.5552 1129.8004,-322.7753 1131.6203,-329.5346"/>
</g>
<!-- Node122&#45;&gt;Node1 -->
<g id="edge78" class="edge">
<title>Node122&#45;&gt;Node1</title>
<path fill="none" stroke="#191970" d="M895.0891,-500.4688C837.2486,-472.7827 702.7246,-410.3168 585,-370 525.4399,-349.6026 501.7313,-366.8087 448,-334 428.1227,-321.8628 433.0826,-306.7945 413,-295 350.5228,-258.307 312.9467,-301.1316 254,-259 220.2328,-234.8652 205,-221.0056 205,-179.5 205,-179.5 205,-179.5 205,-119.5 205,-80.9478 228.2165,-71.6247 263,-55 337.1538,-19.5584 922.501,-11.3792 1078.1159,-9.8231"/>
<polygon fill="#191970" stroke="#191970" points="1078.5989,-13.3187 1088.5646,-9.7222 1078.5312,-6.319 1078.5989,-13.3187"/>
</g>
<!-- Node122&#45;&gt;Node2 -->
<g id="edge79" class="edge">
<title>Node122&#45;&gt;Node2</title>
<path fill="none" stroke="#191970" d="M949.9902,-500.4747C965.1791,-491.4249 984.0437,-478.6309 998,-464 1058.8741,-400.1837 1033.6347,-350.7167 1102,-295 1125.3095,-276.0031 1156.3834,-263.8185 1183.239,-256.1891"/>
<polygon fill="#191970" stroke="#191970" points="1184.1753,-259.5617 1192.9201,-253.5802 1182.3538,-252.8028 1184.1753,-259.5617"/>
</g>
<!-- Node122&#45;&gt;Node32 -->
<g id="edge80" class="edge">
<title>Node122&#45;&gt;Node32</title>
<path fill="none" stroke="#191970" d="M953.6744,-500.4051C1014.4117,-472.049 1157.8234,-407.6116 1284,-370 1454.4493,-319.1913 1991.2008,-222.5113 2173.6217,-190.2677"/>
<polygon fill="#191970" stroke="#191970" points="2174.3441,-193.6944 2183.5831,-188.5089 2173.1269,-186.8011 2174.3441,-193.6944"/>
</g>
<!-- Node122&#45;&gt;Node118 -->
<g id="edge81" class="edge">
<title>Node122&#45;&gt;Node118</title>
<path fill="none" stroke="#191970" d="M924,-500.396C924,-492.6448 924,-482.8122 924,-473.8601"/>
<polygon fill="#191970" stroke="#191970" points="927.5001,-473.5765 924,-463.5765 920.5001,-473.5765 927.5001,-473.5765"/>
</g>
<!-- Node152&#45;&gt;Node1 -->
<g id="edge83" class="edge">
<title>Node152&#45;&gt;Node1</title>
<path fill="none" stroke="#191970" d="M499.2762,-297.3327C424.9081,-283.114 331.2511,-264.3983 324,-259 291.7785,-235.0114 281,-219.6706 281,-179.5 281,-179.5 281,-179.5 281,-119.5 281,-80.0438 306.235,-71.663 342,-55 409.1062,-23.7351 932.4672,-12.6042 1078.357,-10.0916"/>
<polygon fill="#191970" stroke="#191970" points="1078.6479,-13.5873 1088.5874,-9.919 1078.5298,-6.5883 1078.6479,-13.5873"/>
</g>
<!-- Node152&#45;&gt;Node2 -->
<g id="edge85" class="edge">
<title>Node152&#45;&gt;Node2</title>
<path fill="none" stroke="#191970" d="M682.49,-296.2756C685.3564,-295.8275 688.1984,-295.4007 691,-295 863.0128,-270.396 1067.0956,-255.3202 1171.6525,-248.6118"/>
<polygon fill="#191970" stroke="#191970" points="1172.0038,-252.0967 1181.7617,-247.9695 1171.5598,-245.1108 1172.0038,-252.0967"/>
</g>
<!-- Node152&#45;&gt;Node12 -->
<g id="edge84" class="edge">
<title>Node152&#45;&gt;Node12</title>
<path fill="none" stroke="#191970" d="M597.2941,-295.2547C608.6179,-263.5676 635.3926,-200.403 679,-165 683.1753,-161.6103 744.0107,-141.8183 782.5759,-129.4802"/>
<polygon fill="#191970" stroke="#191970" points="783.8628,-132.7435 792.3248,-126.3682 781.734,-126.075 783.8628,-132.7435"/>
</g>
<!-- Node157&#45;&gt;Node1 -->
<g id="edge87" class="edge">
<title>Node157&#45;&gt;Node1</title>
<path fill="none" stroke="#191970" d="M699.7976,-296.6408C696.8309,-296.0754 693.8913,-295.5265 691,-295 520.6816,-263.9861 319,-352.6191 319,-179.5 319,-179.5 319,-179.5 319,-119.5 319,-78.8018 346.869,-71.6623 384,-55 447.544,-26.4851 937.1858,-13.4755 1078.1469,-10.2967"/>
<polygon fill="#191970" stroke="#191970" points="1078.5205,-13.7894 1088.4403,-10.0682 1078.365,-6.7911 1078.5205,-13.7894"/>
</g>
<!-- Node157&#45;&gt;Node2 -->
<g id="edge89" class="edge">
<title>Node157&#45;&gt;Node2</title>
<path fill="none" stroke="#191970" d="M865.8959,-299.0771C874.0337,-297.6579 882.1727,-296.2759 890,-295 987.5864,-279.0934 1100.8735,-263.2696 1171.7547,-253.6851"/>
<polygon fill="#191970" stroke="#191970" points="1172.4556,-257.1223 1181.898,-252.317 1171.5199,-250.1851 1172.4556,-257.1223"/>
</g>
<!-- Node157&#45;&gt;Node12 -->
<g id="edge88" class="edge">
<title>Node157&#45;&gt;Node12</title>
<path fill="none" stroke="#191970" d="M756.1299,-295.4187C718.848,-266.5677 659.3924,-210.3931 691,-165 693.765,-161.0291 747.1078,-142.2643 782.629,-130.107"/>
<polygon fill="#191970" stroke="#191970" points="783.7833,-133.4113 792.1184,-126.871 781.5239,-126.786 783.7833,-133.4113"/>
</g>
<!-- Node159&#45;&gt;Node1 -->
<g id="edge91" class="edge">
<title>Node159&#45;&gt;Node1</title>
<path fill="none" stroke="#191970" d="M2532.4682,-440.4725C2650.4064,-423.9332 2883.14,-385.6669 2946,-334 2979.8006,-306.218 2987,-288.253 2987,-244.5 2987,-244.5 2987,-244.5 2987,-119.5 2987,-68.4658 2940.5855,-70.6187 2892,-55 2806.4205,-27.4888 1403.5117,-12.3478 1153.8484,-9.865"/>
<polygon fill="#191970" stroke="#191970" points="1153.5206,-6.3617 1143.4865,-9.7626 1153.4514,-13.3613 1153.5206,-6.3617"/>
</g>
<!-- Node159&#45;&gt;Node2 -->
<g id="edge92" class="edge">
<title>Node159&#45;&gt;Node2</title>
<path fill="none" stroke="#191970" d="M2386.9505,-448.3252C2264.3491,-445.3759 2029.2457,-435.0521 1955,-399 1897.3174,-370.9906 1912.9188,-322.5175 1855,-295 1806.7775,-272.0893 1460.2839,-254.1974 1310.1143,-247.432"/>
<polygon fill="#191970" stroke="#191970" points="1310.2263,-243.9336 1300.0799,-246.9834 1309.9136,-250.9266 1310.2263,-243.9336"/>
</g>
<!-- Node53 -->
<g id="node39" class="node">
<title>Node53</title>
<g id="a_node39"><a xlink:href="CLabel_8h_source.html" target="_top" xlink:title=" ">
<polygon fill="#ffffff" stroke="#000000" points="2226.584,-305.5 2226.584,-323.5 2335.416,-323.5 2335.416,-305.5 2226.584,-305.5"/>
<text text-anchor="middle" x="2281" y="-311.5" font-family="FreeSans" font-size="10.00" fill="#000000">DGtal/base/CLabel.h</text>
</a>
</g>
</g>
<!-- Node159&#45;&gt;Node53 -->
<g id="edge93" class="edge">
<title>Node159&#45;&gt;Node53</title>
<path fill="none" stroke="#191970" d="M2537.2112,-440.4685C2598.1812,-430.0609 2669.4739,-409.1138 2636,-370 2631.2944,-364.5015 2446.7657,-337.7969 2345.6665,-323.5301"/>
<polygon fill="#191970" stroke="#191970" points="2345.9467,-320.035 2335.5561,-322.1055 2344.97,-326.9666 2345.9467,-320.035"/>
</g>
<!-- Node160 -->
<g id="node40" class="node">
<title>Node160</title>
<g id="a_node40"><a xlink:href="ImageContainerBySTLMap_8h_source.html" target="_top" xlink:title=" ">
<polygon fill="#ffffff" stroke="#ff0000" points="2301.7466,-370.5 2301.7466,-398.5 2452.2534,-398.5 2452.2534,-370.5 2301.7466,-370.5"/>
<text text-anchor="start" x="2309.7466" y="-386.5" font-family="FreeSans" font-size="10.00" fill="#000000">DGtal/images/ImageContainer</text>
<text text-anchor="middle" x="2377" y="-376.5" font-family="FreeSans" font-size="10.00" fill="#000000">BySTLMap.h</text>
</a>
</g>
</g>
<!-- Node159&#45;&gt;Node160 -->
<g id="edge96" class="edge">
<title>Node159&#45;&gt;Node160</title>
<path fill="none" stroke="#191970" d="M2451.0421,-440.462C2438.9701,-431.3379 2419.9088,-416.931 2404.1498,-405.0202"/>
<polygon fill="#191970" stroke="#191970" points="2405.8881,-401.9468 2395.8,-398.7093 2401.6673,-407.5312 2405.8881,-401.9468"/>
</g>
<!-- Node167 -->
<g id="node41" class="node">
<title>Node167</title>
<g id="a_node41"><a xlink:href="ImageContainerBySTLVector_8h_source.html" target="_top" xlink:title=" ">
<polygon fill="#ffffff" stroke="#ff0000" points="1963.7466,-370.5 1963.7466,-398.5 2114.2534,-398.5 2114.2534,-370.5 1963.7466,-370.5"/>
<text text-anchor="start" x="1971.7466" y="-386.5" font-family="FreeSans" font-size="10.00" fill="#000000">DGtal/images/ImageContainer</text>
<text text-anchor="middle" x="2039" y="-376.5" font-family="FreeSans" font-size="10.00" fill="#000000">BySTLVector.h</text>
</a>
</g>
</g>
<!-- Node159&#45;&gt;Node167 -->
<g id="edge101" class="edge">
<title>Node159&#45;&gt;Node167</title>
<path fill="none" stroke="#191970" d="M2399.8348,-440.4965C2333.8334,-430.9969 2227.0048,-415.3631 2124.4408,-399.0501"/>
<polygon fill="#191970" stroke="#191970" points="2124.9566,-395.5882 2114.5301,-397.4695 2123.854,-402.5009 2124.9566,-395.5882"/>
</g>
<!-- Node175 -->
<g id="node42" class="node">
<title>Node175</title>
<g id="a_node42"><a xlink:href="ImageContainerByHashTree_8h_source.html" target="_top" xlink:title=" ">
<polygon fill="#ffffff" stroke="#ff0000" points="2132.7466,-370.5 2132.7466,-398.5 2283.2534,-398.5 2283.2534,-370.5 2132.7466,-370.5"/>
<text text-anchor="start" x="2140.7466" y="-386.5" font-family="FreeSans" font-size="10.00" fill="#000000">DGtal/images/ImageContainer</text>
<text text-anchor="middle" x="2208" y="-376.5" font-family="FreeSans" font-size="10.00" fill="#000000">ByHashTree.h</text>
</a>
</g>
</g>
<!-- Node159&#45;&gt;Node175 -->
<g id="edge107" class="edge">
<title>Node159&#45;&gt;Node175</title>
<path fill="none" stroke="#191970" d="M2427.5433,-440.462C2387.7262,-430.3126 2322.2653,-413.6264 2273.1641,-401.1104"/>
<polygon fill="#191970" stroke="#191970" points="2273.8172,-397.6651 2263.2625,-398.5865 2272.0881,-404.4482 2273.8172,-397.6651"/>
</g>
<!-- Node180 -->
<g id="node43" class="node">
<title>Node180</title>
<g id="a_node43"><a xlink:href="ImageSelector_8ih_source.html" target="_top" xlink:title=" ">
<polygon fill="#ffffff" stroke="#000000" points="2470.6875,-375.5 2470.6875,-393.5 2627.3125,-393.5 2627.3125,-375.5 2470.6875,-375.5"/>
<text text-anchor="middle" x="2549" y="-381.5" font-family="FreeSans" font-size="10.00" fill="#000000">DGtal/images//ImageSelector.ih</text>
</a>
</g>
</g>
<!-- Node159&#45;&gt;Node180 -->
<g id="edge114" class="edge">
<title>Node159&#45;&gt;Node180</title>
<path fill="none" stroke="#191970" d="M2474.9579,-440.462C2488.871,-429.9464 2512.0679,-412.4138 2528.7934,-399.7725"/>
<polygon fill="#191970" stroke="#191970" points="2530.9991,-402.4926 2536.8664,-393.6708 2526.7783,-396.9082 2530.9991,-402.4926"/>
</g>
<!-- Node53&#45;&gt;Node1 -->
<g id="edge94" class="edge">
<title>Node53&#45;&gt;Node1</title>
<path fill="none" stroke="#191970" d="M2314.1741,-305.4842C2342.8663,-296.6517 2384.565,-281.2594 2416,-259 2479.1959,-214.2504 2504.412,-201.3543 2532,-129 2549.4895,-83.1307 2496.7136,-70.0901 2450,-55 2386.7041,-34.5533 1363.6092,-14.1782 1153.5263,-10.1979"/>
<polygon fill="#191970" stroke="#191970" points="1153.3791,-6.6946 1143.3148,-10.0053 1153.2469,-13.6934 1153.3791,-6.6946"/>
</g>
<!-- Node53&#45;&gt;Node2 -->
<g id="edge95" class="edge">
<title>Node53&#45;&gt;Node2</title>
<path fill="none" stroke="#191970" d="M2226.4133,-306.0831C2199.5436,-302.2019 2166.6337,-297.8372 2137,-295 1829.4218,-265.5522 1460.6768,-251.4231 1310.1214,-246.551"/>
<polygon fill="#191970" stroke="#191970" points="1310.1994,-243.0518 1300.0924,-246.2298 1309.9752,-250.0482 1310.1994,-243.0518"/>
</g>
<!-- Node160&#45;&gt;Node1 -->
<g id="edge97" class="edge">
<title>Node160&#45;&gt;Node1</title>
<path fill="none" stroke="#191970" d="M2452.4916,-371.2593C2455.7006,-370.8112 2458.8804,-370.3887 2462,-370 2512.3244,-363.7297 2876.7258,-364.8197 2917,-334 2950.548,-308.3275 2949,-286.7439 2949,-244.5 2949,-244.5 2949,-244.5 2949,-119.5 2949,-61.2858 2891.0946,-70.5653 2835,-55 2751.2469,-31.7599 1396.9702,-13.145 1153.3788,-9.9764"/>
<polygon fill="#191970" stroke="#191970" points="1153.3036,-6.4752 1143.2591,-9.8454 1153.2129,-13.4746 1153.3036,-6.4752"/>
</g>
<!-- Node160&#45;&gt;Node2 -->
<g id="edge98" class="edge">
<title>Node160&#45;&gt;Node2</title>
<path fill="none" stroke="#191970" d="M2376.3625,-370.1733C2374.599,-349.6985 2368.0578,-312.6017 2344,-295 2302.2216,-264.4331 1545.4368,-249.4926 1310.1862,-245.573"/>
<polygon fill="#191970" stroke="#191970" points="1310.1007,-242.0712 1300.0442,-245.4055 1309.985,-249.0702 1310.1007,-242.0712"/>
</g>
<!-- Node160&#45;&gt;Node32 -->
<g id="edge99" class="edge">
<title>Node160&#45;&gt;Node32</title>
<path fill="none" stroke="#191970" d="M2379.3013,-370.2826C2381.5845,-351.8484 2383.1954,-319.1977 2371,-295 2347.1447,-247.6672 2294.4206,-212.0085 2262.0766,-193.5641"/>
<polygon fill="#191970" stroke="#191970" points="2263.5845,-190.3982 2253.1415,-188.6106 2260.1904,-196.5204 2263.5845,-190.3982"/>
</g>
<!-- Node160&#45;&gt;Node53 -->
<g id="edge100" class="edge">
<title>Node160&#45;&gt;Node53</title>
<path fill="none" stroke="#191970" d="M2357.573,-370.3345C2341.3934,-358.5368 2318.4039,-341.7736 2301.8427,-329.6978"/>
<polygon fill="#191970" stroke="#191970" points="2303.5297,-326.5963 2293.3875,-323.5325 2299.4055,-332.2523 2303.5297,-326.5963"/>
</g>
<!-- Node167&#45;&gt;Node1 -->
<g id="edge102" class="edge">
<title>Node167&#45;&gt;Node1</title>
<path fill="none" stroke="#191970" d="M2062.9525,-370.396C2094.1238,-352.2249 2150.4678,-320.0033 2200,-295 2278.4553,-255.3966 2318.6131,-265.2955 2370,-194 2406.123,-143.882 2419.2385,-90.9553 2369,-55 2318.3508,-18.7509 1356.4829,-10.9486 1153.4372,-9.703"/>
<polygon fill="#191970" stroke="#191970" points="1153.2972,-6.2022 1143.2764,-9.6423 1153.2553,-13.2021 1153.2972,-6.2022"/>
</g>
<!-- Node167&#45;&gt;Node2 -->
<g id="edge103" class="edge">
<title>Node167&#45;&gt;Node2</title>
<path fill="none" stroke="#191970" d="M2019.9261,-370.287C2006.8096,-360.3668 1989.1011,-346.683 1974,-334 1954.243,-317.4067 1954.715,-305.1626 1931,-295 1874.9931,-270.9993 1474.2462,-253.3179 1310.4683,-247.0174"/>
<polygon fill="#191970" stroke="#191970" points="1310.1556,-243.5031 1300.0294,-246.619 1309.8885,-250.498 1310.1556,-243.5031"/>
</g>
<!-- Node167&#45;&gt;Node43 -->
<g id="edge105" class="edge">
<title>Node167&#45;&gt;Node43</title>
<path fill="none" stroke="#191970" d="M1963.373,-378.3799C1798.7274,-365.056 1409.6015,-333.566 1247.1938,-320.4232"/>
<polygon fill="#191970" stroke="#191970" points="1247.0787,-316.9025 1236.8289,-319.5844 1246.514,-323.8797 1247.0787,-316.9025"/>
</g>
<!-- Node167&#45;&gt;Node65 -->
<g id="edge106" class="edge">
<title>Node167&#45;&gt;Node65</title>
<path fill="none" stroke="#191970" d="M2039,-370.3345C2039,-361.3208 2039,-349.4086 2039,-338.9029"/>
<polygon fill="#191970" stroke="#191970" points="2042.5001,-338.6444 2039,-328.6445 2035.5001,-338.6445 2042.5001,-338.6444"/>
</g>
<!-- Node167&#45;&gt;Node53 -->
<g id="edge104" class="edge">
<title>Node167&#45;&gt;Node53</title>
<path fill="none" stroke="#191970" d="M2087.6812,-370.4187C2132.404,-357.4823 2197.9465,-338.5238 2240.0449,-326.3465"/>
<polygon fill="#191970" stroke="#191970" points="2241.0613,-329.6961 2249.695,-323.5552 2239.1162,-322.9717 2241.0613,-329.6961"/>
</g>
<!-- Node175&#45;&gt;Node1 -->
<g id="edge108" class="edge">
<title>Node175&#45;&gt;Node1</title>
<path fill="none" stroke="#191970" d="M2283.4826,-371.1847C2286.6941,-370.757 2289.8769,-370.3592 2293,-370 2359.2391,-362.3826 2841.4714,-377.5029 2892,-334 2922.8165,-307.4684 2911,-285.1642 2911,-244.5 2911,-244.5 2911,-244.5 2911,-119.5 2911,-43.2402 2826.6382,-70.6427 2752,-55 2591.0005,-21.2576 1382.5754,-11.3294 1153.4417,-9.7421"/>
<polygon fill="#191970" stroke="#191970" points="1153.3026,-6.2411 1143.2789,-9.6727 1153.2547,-13.241 1153.3026,-6.2411"/>
</g>
<!-- Node175&#45;&gt;Node2 -->
<g id="edge109" class="edge">
<title>Node175&#45;&gt;Node2</title>
<path fill="none" stroke="#191970" d="M2197.0281,-370.465C2179.7988,-349.6382 2144.1883,-311.263 2104,-295 2031.2981,-265.5797 1501.955,-250.5353 1310.1547,-246.0051"/>
<polygon fill="#191970" stroke="#191970" points="1309.9949,-242.5005 1299.9158,-245.7657 1309.8312,-249.4986 1309.9949,-242.5005"/>
</g>
<!-- Node175&#45;&gt;Node34 -->
<g id="edge113" class="edge">
<title>Node175&#45;&gt;Node34</title>
<path fill="none" stroke="#191970" d="M2205.0225,-370.3875C2201.7945,-350.8517 2199.3401,-315.6476 2218,-295 2268.9087,-238.6684 2322.0202,-301.4085 2385,-259 2430.2221,-228.549 2459.8923,-168.6714 2472.7286,-138.2278"/>
<polygon fill="#191970" stroke="#191970" points="2476.0441,-139.3655 2476.5648,-128.7835 2469.5587,-136.7312 2476.0441,-139.3655"/>
</g>
<!-- Node175&#45;&gt;Node43 -->
<g id="edge112" class="edge">
<title>Node175&#45;&gt;Node43</title>
<path fill="none" stroke="#191970" d="M2132.5181,-371.1783C2129.3064,-370.7523 2126.1234,-370.3566 2123,-370 1797.6873,-332.8554 1406.6352,-319.9505 1247.116,-316.0235"/>
<polygon fill="#191970" stroke="#191970" points="1247.0284,-312.5205 1236.9467,-315.7777 1246.8592,-319.5185 1247.0284,-312.5205"/>
</g>
<!-- Node175&#45;&gt;Node65 -->
<g id="edge111" class="edge">
<title>Node175&#45;&gt;Node65</title>
<path fill="none" stroke="#191970" d="M2173.8003,-370.3345C2147.3708,-359.3873 2110.6192,-344.1648 2082.1648,-332.3789"/>
<polygon fill="#191970" stroke="#191970" points="2083.4382,-329.1181 2072.86,-328.5249 2080.7595,-335.5853 2083.4382,-329.1181"/>
</g>
<!-- Node175&#45;&gt;Node53 -->
<g id="edge110" class="edge">
<title>Node175&#45;&gt;Node53</title>
<path fill="none" stroke="#191970" d="M2222.7726,-370.3345C2234.6658,-358.9301 2251.3978,-342.8857 2263.8756,-330.9207"/>
<polygon fill="#191970" stroke="#191970" points="2266.5719,-333.1843 2271.3674,-323.7368 2261.7271,-328.1318 2266.5719,-333.1843"/>
</g>
<!-- Node181&#45;&gt;Node1 -->
<g id="edge116" class="edge">
<title>Node181&#45;&gt;Node1</title>
<path fill="none" stroke="#191970" d="M2832.9687,-300.3859C2839.5807,-289.4518 2848.369,-273.7329 2854,-259 2866.9699,-225.0657 2873,-215.8284 2873,-179.5 2873,-179.5 2873,-179.5 2873,-119.5 2873,-.8731 2731.5119,-71.2266 2614,-55 2465.5647,-34.5033 1371.2977,-14.0519 1153.6004,-10.161"/>
<polygon fill="#191970" stroke="#191970" points="1153.394,-6.6568 1143.3333,-9.9781 1153.2694,-13.6557 1153.394,-6.6568"/>
</g>
<!-- Node181&#45;&gt;Node2 -->
<g id="edge117" class="edge">
<title>Node181&#45;&gt;Node2</title>
<path fill="none" stroke="#191970" d="M2781.1918,-300.4999C2772.9144,-298.2852 2764.2495,-296.3 2756,-295 2612.4315,-272.3763 1588.5061,-251.1933 1310.4994,-245.8112"/>
<polygon fill="#191970" stroke="#191970" points="1310.2143,-242.3051 1300.1486,-245.6114 1310.0792,-249.3038 1310.2143,-242.3051"/>
</g>
<!-- Node181&#45;&gt;Node34 -->
<g id="edge120" class="edge">
<title>Node181&#45;&gt;Node34</title>
<path fill="none" stroke="#191970" d="M2795.3338,-300.3483C2773.4275,-289.3945 2742.5779,-273.6674 2716,-259 2636.9693,-215.3857 2545.5087,-159.8295 2503.4116,-133.9634"/>
<polygon fill="#191970" stroke="#191970" points="2505.0846,-130.8834 2494.7339,-128.6221 2501.4153,-136.8446 2505.0846,-130.8834"/>
</g>
<!-- Node182 -->
<g id="node45" class="node">
<title>Node182</title>
<g id="a_node45"><a xlink:href="Board_8h_source.html" target="_top" xlink:title=" ">
<polygon fill="#ffffff" stroke="#ff0000" points="2550.7563,-235.5 2550.7563,-253.5 2631.2437,-253.5 2631.2437,-235.5 2550.7563,-235.5"/>
<text text-anchor="middle" x="2591" y="-241.5" font-family="FreeSans" font-size="10.00" fill="#000000">Board/Board.h</text>
</a>
</g>
</g>
<!-- Node181&#45;&gt;Node182 -->
<g id="edge118" class="edge">
<title>Node181&#45;&gt;Node182</title>
<path fill="none" stroke="#191970" d="M2777.1293,-300.4187C2734.2514,-287.5369 2671.497,-268.6836 2630.9463,-256.501"/>
<polygon fill="#191970" stroke="#191970" points="2631.725,-253.0805 2621.1408,-253.5552 2629.7109,-259.7845 2631.725,-253.0805"/>
</g>
<!-- Node199 -->
<g id="node46" class="node">
<title>Node199</title>
<g id="a_node46"><a xlink:href="HueShadeColorMap_8ih_source.html" target="_top" xlink:title=" ">
<polygon fill="#ffffff" stroke="#000000" points="2725.0249,-230.5 2725.0249,-258.5 2844.9751,-258.5 2844.9751,-230.5 2725.0249,-230.5"/>
<text text-anchor="start" x="2733.0249" y="-246.5" font-family="FreeSans" font-size="10.00" fill="#000000">DGtal/io/colormaps</text>
<text text-anchor="middle" x="2785" y="-236.5" font-family="FreeSans" font-size="10.00" fill="#000000">/HueShadeColorMap.ih</text>
</a>
</g>
</g>
<!-- Node181&#45;&gt;Node199 -->
<g id="edge121" class="edge">
<title>Node181&#45;&gt;Node199</title>
<path fill="none" stroke="#191970" d="M2816.1078,-300.3345C2810.8744,-290.9413 2803.8874,-278.4004 2797.8609,-267.5837"/>
<polygon fill="#191970" stroke="#191970" points="2800.8051,-265.6767 2792.8805,-258.6445 2794.6901,-269.0836 2800.8051,-265.6767"/>
</g>
<!-- Node182&#45;&gt;Node34 -->
<g id="edge119" class="edge">
<title>Node182&#45;&gt;Node34</title>
<path fill="none" stroke="#191970" d="M2582.657,-235.1047C2564.004,-214.0992 2518.7081,-163.0902 2495.0117,-136.4051"/>
<polygon fill="#191970" stroke="#191970" points="2497.3952,-133.8181 2488.1382,-128.6646 2492.1611,-138.466 2497.3952,-133.8181"/>
</g>
<!-- Node200&#45;&gt;Node1 -->
<g id="edge123" class="edge">
<title>Node200&#45;&gt;Node1</title>
<path fill="none" stroke="#191970" d="M2514.0631,-305.1981C2525.3867,-270.17 2563.4441,-146.3637 2548,-110 2534.2383,-77.5975 2523.4206,-68.7191 2491,-55 2427.729,-28.2263 1367.2064,-12.8217 1153.3894,-9.9803"/>
<polygon fill="#191970" stroke="#191970" points="1153.3387,-6.4794 1143.2933,-9.8471 1153.2463,-13.4788 1153.3387,-6.4794"/>
</g>
<!-- Node200&#45;&gt;Node2 -->
<g id="edge124" class="edge">
<title>Node200&#45;&gt;Node2</title>
<path fill="none" stroke="#191970" d="M2457.6788,-305.4902C2433.1715,-301.6714 2403.6807,-297.528 2377,-295 1974.0199,-256.8182 1487.8165,-247.4031 1310.2168,-245.1677"/>
<polygon fill="#191970" stroke="#191970" points="1310.0159,-241.665 1299.9738,-245.0425 1309.9302,-248.6645 1310.0159,-241.665"/>
</g>
<!-- Node204&#45;&gt;Node1 -->
<g id="edge126" class="edge">
<title>Node204&#45;&gt;Node1</title>
<path fill="none" stroke="#191970" d="M2681.0648,-305.3893C2685.7928,-283.7036 2697,-227.2627 2697,-179.5 2697,-179.5 2697,-179.5 2697,-119.5 2697,-36.6075 2603.3576,-70.8777 2522,-55 2384.4648,-28.1588 1363.4623,-12.8744 1153.6316,-9.9986"/>
<polygon fill="#191970" stroke="#191970" points="1153.4779,-6.4962 1143.4312,-9.8598 1153.3826,-13.4956 1153.4779,-6.4962"/>
</g>
<!-- Node204&#45;&gt;Node2 -->
<g id="edge128" class="edge">
<title>Node204&#45;&gt;Node2</title>
<path fill="none" stroke="#191970" d="M2649.3085,-305.4221C2635.1285,-301.4896 2617.8342,-297.2727 2602,-295 2348.6247,-258.6321 1550.2983,-247.658 1310.0614,-245.138"/>
<polygon fill="#191970" stroke="#191970" points="1310.0938,-241.6382 1300.0581,-245.0346 1310.0214,-248.6379 1310.0938,-241.6382"/>
</g>
<!-- Node204&#45;&gt;Node34 -->
<g id="edge129" class="edge">
<title>Node204&#45;&gt;Node34</title>
<path fill="none" stroke="#191970" d="M2649.553,-305.4509C2614.2543,-294.1227 2557.8634,-274.3434 2542,-259 2507.0335,-225.1796 2490.3355,-168.1429 2483.6848,-138.5683"/>
<polygon fill="#191970" stroke="#191970" points="2487.0898,-137.7518 2481.6107,-128.6838 2480.239,-139.1895 2487.0898,-137.7518"/>
</g>
<!-- Node204&#45;&gt;Node182 -->
<g id="edge127" class="edge">
<title>Node204&#45;&gt;Node182</title>
<path fill="none" stroke="#191970" d="M2667.4955,-305.3487C2653.0021,-293.8198 2627.8803,-273.8366 2610.3966,-259.9291"/>
<polygon fill="#191970" stroke="#191970" points="2612.5122,-257.1397 2602.5073,-253.6535 2608.1545,-262.6179 2612.5122,-257.1397"/>
</g>
</g>
</svg>
