<?xml version="1.0" encoding="UTF-8" standalone="no"?>
<!DOCTYPE svg PUBLIC "-//W3C//DTD SVG 1.1//EN"
 "http://www.w3.org/Graphics/SVG/1.1/DTD/svg11.dtd">
<!-- Generated by graphviz version 2.40.1 (20161225.0304)
 -->
<!-- Title: testCOBAGenericStandardPlaneComputer.cpp Pages: 1 -->
<!--zoomable 712 -->
<svg id="main" version="1.1" xmlns="http://www.w3.org/2000/svg" xmlns:xlink="http://www.w3.org/1999/xlink" xml:space="preserve" onload="init(evt)">
<style type="text/css"><![CDATA[
.edge:hover path { stroke: red; }
.edge:hover polygon { stroke: red; fill: red; }
]]></style>
<script type="text/javascript"><![CDATA[
var edges = document.getElementsByTagName('g');
if (edges && edges.length) {
  for (var i=0;i<edges.length;i++) {
    if (edges[i].id.substr(0,4)=='edge') {
      edges[i].setAttribute('class','edge');
    }
  }
}
]]></script>
        <defs>
                <circle id="rim" cx="0" cy="0" r="7"/>
                <circle id="rim2" cx="0" cy="0" r="3.5"/>
                <g id="zoomPlus">
                        <use xlink:href="#rim" fill="#404040">
                                <set attributeName="fill" to="#808080" begin="zoomplus.mouseover" end="zoomplus.mouseout"/>
                        </use>
                        <path d="M-4,0h8M0,-4v8" fill="none" stroke="white" stroke-width="1.5" pointer-events="none"/>
                </g>
                <g id="zoomMin">
                        <use xlink:href="#rim" fill="#404040">
                                <set attributeName="fill" to="#808080" begin="zoomminus.mouseover" end="zoomminus.mouseout"/>
                        </use>
                        <path d="M-4,0h8" fill="none" stroke="white" stroke-width="1.5" pointer-events="none"/>
                </g>
                <g id="dirArrow">
                        <path fill="none" stroke="white" stroke-width="1.5" d="M0,-3.0v7 M-2.5,-0.5L0,-3.0L2.5,-0.5"/>
                </g>
               <g id="resetDef">
                       <use xlink:href="#rim2" fill="#404040">
                               <set attributeName="fill" to="#808080" begin="reset.mouseover" end="reset.mouseout"/>
                       </use>
               </g>
        </defs>

<script type="text/javascript">
var viewWidth = 3479;
var viewHeight = 712;
var sectionId = 'dynsection-0';
</script>
<script xlink:href="svgpan.js"/>
<svg id="graph" class="graph">
<g id="viewport">
<title>testCOBAGenericStandardPlaneComputer.cpp</title>
<polygon fill="#ffffff" stroke="transparent" points="-4,4 -4,-708 3475,-708 3475,4 -4,4"/>
<!-- Node0 -->
<g id="node1" class="node">
<title>Node0</title>
<g id="a_node1"><a xlink:title=" ">
<polygon fill="#bfbfbf" stroke="#000000" points="2194.1826,-675.5 2194.1826,-703.5 2355.8174,-703.5 2355.8174,-675.5 2194.1826,-675.5"/>
<text text-anchor="start" x="2202.1826" y="-691.5" font-family="FreeSans" font-size="10.00" fill="#000000">testCOBAGenericStandardPlane</text>
<text text-anchor="middle" x="2275" y="-681.5" font-family="FreeSans" font-size="10.00" fill="#000000">Computer.cpp</text>
</a>
</g>
</g>
<!-- Node1 -->
<g id="node2" class="node">
<title>Node1</title>
<g id="a_node2"><a xlink:title=" ">
<polygon fill="#ffffff" stroke="#bfbfbf" points="883.8276,-110.5 883.8276,-128.5 928.1724,-128.5 928.1724,-110.5 883.8276,-110.5"/>
<text text-anchor="middle" x="906" y="-116.5" font-family="FreeSans" font-size="10.00" fill="#000000">cstdlib</text>
</a>
</g>
</g>
<!-- Node0&#45;&gt;Node1 -->
<g id="edge1" class="edge">
<title>Node0&#45;&gt;Node1</title>
<path fill="none" stroke="#191970" d="M2194.1327,-688.3447C1973.6819,-684.8378 1343.7255,-672.4312 821,-639 655.0646,-628.3875 76,-735.7744 76,-569.5 76,-569.5 76,-569.5 76,-364.5 76,-328.1716 68.888,-310.257 95,-285 152.815,-229.0782 729.8511,-144.3801 873.6654,-124.0169"/>
<polygon fill="#191970" stroke="#191970" points="874.2205,-127.4733 883.6334,-122.6104 873.2425,-120.5419 874.2205,-127.4733"/>
</g>
<!-- Node2 -->
<g id="node3" class="node">
<title>Node2</title>
<g id="a_node3"><a xlink:title=" ">
<polygon fill="#ffffff" stroke="#bfbfbf" points="2117.8276,-.5 2117.8276,-18.5 2172.1724,-18.5 2172.1724,-.5 2117.8276,-.5"/>
<text text-anchor="middle" x="2145" y="-6.5" font-family="FreeSans" font-size="10.00" fill="#000000">iostream</text>
</a>
</g>
</g>
<!-- Node0&#45;&gt;Node2 -->
<g id="edge2" class="edge">
<title>Node0&#45;&gt;Node2</title>
<path fill="none" stroke="#191970" d="M2193.8916,-688.8818C1811.7612,-685.8081 205.2995,-671.0233 104,-639 50.9923,-622.2429 0,-625.0933 0,-569.5 0,-569.5 0,-569.5 0,-119.5 0,-82.9547 18.2818,-71.2811 51,-55 98.8872,-31.1705 1828.6133,-12.6992 2107.2781,-9.8751"/>
<polygon fill="#191970" stroke="#191970" points="2107.6982,-13.3711 2117.6623,-9.7703 2107.6275,-6.3714 2107.6982,-13.3711"/>
</g>
<!-- Node3 -->
<g id="node4" class="node">
<title>Node3</title>
<g id="a_node4"><a xlink:title=" ">
<polygon fill="#ffffff" stroke="#bfbfbf" points="2173.436,-110.5 2173.436,-128.5 2230.564,-128.5 2230.564,-110.5 2173.436,-110.5"/>
<text text-anchor="middle" x="2202" y="-116.5" font-family="FreeSans" font-size="10.00" fill="#000000">algorithm</text>
</a>
</g>
</g>
<!-- Node0&#45;&gt;Node3 -->
<g id="edge3" class="edge">
<title>Node0&#45;&gt;Node3</title>
<path fill="none" stroke="#191970" d="M2355.9187,-681.653C2519.693,-664.6768 2875,-621.8181 2875,-569.5 2875,-569.5 2875,-569.5 2875,-299.5 2875,-288.8774 2865.6292,-289.4853 2856,-285 2687.9788,-206.7349 2628.2932,-241.016 2449,-194 2373.9687,-174.3245 2287.4163,-147.1755 2239.268,-131.6687"/>
<polygon fill="#191970" stroke="#191970" points="2240.1863,-128.2873 2229.5946,-128.5433 2238.0342,-134.9483 2240.1863,-128.2873"/>
</g>
<!-- Node4 -->
<g id="node5" class="node">
<title>Node4</title>
<g id="a_node5"><a xlink:href="Common_8h_source.html" target="_top" xlink:title=" ">
<polygon fill="#ffffff" stroke="#000000" points="1730.1455,-230.5 1730.1455,-248.5 1847.8545,-248.5 1847.8545,-230.5 1730.1455,-230.5"/>
<text text-anchor="middle" x="1789" y="-236.5" font-family="FreeSans" font-size="10.00" fill="#000000">DGtal/base/Common.h</text>
</a>
</g>
</g>
<!-- Node0&#45;&gt;Node4 -->
<g id="edge4" class="edge">
<title>Node0&#45;&gt;Node4</title>
<path fill="none" stroke="#191970" d="M2250.5904,-675.492C2220.1319,-655.9806 2172,-617.5467 2172,-569.5 2172,-569.5 2172,-569.5 2172,-434.5 2172,-295.214 1968.3526,-255.3749 1858.0526,-244.0122"/>
<polygon fill="#191970" stroke="#191970" points="1858.2977,-240.5196 1848.0044,-243.0291 1857.616,-247.4863 1858.2977,-240.5196"/>
</g>
<!-- Node42 -->
<g id="node26" class="node">
<title>Node42</title>
<g id="a_node26"><a xlink:href="StdDefs_8h_source.html" target="_top" xlink:title=" ">
<polygon fill="#ffffff" stroke="#000000" points="830.0864,-620.5 830.0864,-638.5 953.9136,-638.5 953.9136,-620.5 830.0864,-620.5"/>
<text text-anchor="middle" x="892" y="-626.5" font-family="FreeSans" font-size="10.00" fill="#000000">DGtal/helpers/StdDefs.h</text>
</a>
</g>
</g>
<!-- Node0&#45;&gt;Node42 -->
<g id="edge44" class="edge">
<title>Node0&#45;&gt;Node42</title>
<path fill="none" stroke="#191970" d="M2194.159,-685.9928C1946.3742,-675.2429 1200.0419,-642.8641 964.2319,-632.6337"/>
<polygon fill="#191970" stroke="#191970" points="964.1992,-629.1291 954.0569,-632.1923 963.8957,-636.1225 964.1992,-629.1291"/>
</g>
<!-- Node81 -->
<g id="node42" class="node">
<title>Node81</title>
<g id="a_node42"><a xlink:href="CPointPredicate_8h_source.html" target="_top" xlink:title=" ">
<polygon fill="#ffffff" stroke="#000000" points="2940.5225,-355.5 2940.5225,-373.5 3095.4775,-373.5 3095.4775,-355.5 2940.5225,-355.5"/>
<text text-anchor="middle" x="3018" y="-361.5" font-family="FreeSans" font-size="10.00" fill="#000000">DGtal/kernel/CPointPredicate.h</text>
</a>
</g>
</g>
<!-- Node0&#45;&gt;Node81 -->
<g id="edge114" class="edge">
<title>Node0&#45;&gt;Node81</title>
<path fill="none" stroke="#191970" d="M2355.9858,-688.2689C2499.767,-685.1883 2793.4782,-674.6099 2889,-639 2938.0194,-620.7259 2984,-621.8148 2984,-569.5 2984,-569.5 2984,-569.5 2984,-504.5 2984,-460.0938 3000.3526,-409.9458 3010.3764,-383.3776"/>
<polygon fill="#191970" stroke="#191970" points="3013.7326,-384.4041 3014.0998,-373.8156 3007.2097,-381.864 3013.7326,-384.4041"/>
</g>
<!-- Node159 -->
<g id="node44" class="node">
<title>Node159</title>
<g id="a_node44"><a xlink:href="CAdditivePrimitiveComputer_8h_source.html" target="_top" xlink:title=" ">
<polygon fill="#ffffff" stroke="#000000" points="3113.1948,-350.5 3113.1948,-378.5 3264.8052,-378.5 3264.8052,-350.5 3113.1948,-350.5"/>
<text text-anchor="start" x="3121.1948" y="-366.5" font-family="FreeSans" font-size="10.00" fill="#000000">DGtal/geometry/surfaces</text>
<text text-anchor="middle" x="3189" y="-356.5" font-family="FreeSans" font-size="10.00" fill="#000000">/CAdditivePrimitiveComputer.h</text>
</a>
</g>
</g>
<!-- Node0&#45;&gt;Node159 -->
<g id="edge120" class="edge">
<title>Node0&#45;&gt;Node159</title>
<path fill="none" stroke="#191970" d="M2355.8375,-686.3655C2506.4913,-680.0147 2824.6352,-664.066 2932,-639 3012.6916,-620.1613 3105,-652.3615 3105,-569.5 3105,-569.5 3105,-569.5 3105,-504.5 3105,-456.978 3141.0279,-411.6545 3165.8938,-386.0322"/>
<polygon fill="#191970" stroke="#191970" points="3168.5997,-388.2763 3173.2002,-378.7324 3163.6522,-383.3243 3168.5997,-388.2763"/>
</g>
<!-- Node162 -->
<g id="node46" class="node">
<title>Node162</title>
<g id="a_node46"><a xlink:href="COBAGenericStandardPlaneComputer_8h_source.html" target="_top" xlink:title=" ">
<polygon fill="#ffffff" stroke="#000000" points="2301.0029,-555.5 2301.0029,-583.5 2500.9971,-583.5 2500.9971,-555.5 2301.0029,-555.5"/>
<text text-anchor="start" x="2309.0029" y="-571.5" font-family="FreeSans" font-size="10.00" fill="#000000">DGtal/geometry/surfaces</text>
<text text-anchor="middle" x="2401" y="-561.5" font-family="FreeSans" font-size="10.00" fill="#000000">/COBAGenericStandardPlaneComputer.h</text>
</a>
</g>
</g>
<!-- Node0&#45;&gt;Node162 -->
<g id="edge131" class="edge">
<title>Node0&#45;&gt;Node162</title>
<path fill="none" stroke="#191970" d="M2289.9486,-675.2632C2311.925,-654.3333 2353.1075,-615.1119 2378.6757,-590.7613"/>
<polygon fill="#191970" stroke="#191970" points="2381.2432,-593.1494 2386.0708,-583.7183 2376.4156,-588.0804 2381.2432,-593.1494"/>
</g>
<!-- Node4&#45;&gt;Node2 -->
<g id="edge5" class="edge">
<title>Node4&#45;&gt;Node2</title>
<path fill="none" stroke="#191970" d="M1729.8625,-238.0188C1559.4514,-233.4649 1078.0083,-218.4788 1055,-194 1046.1726,-184.6085 1046.5542,-174.7361 1055,-165 1125.8848,-83.2851 1923.6628,-24.4988 2107.4128,-11.9838"/>
<polygon fill="#191970" stroke="#191970" points="2107.9113,-15.4581 2117.6523,-11.2911 2107.4388,-8.4741 2107.9113,-15.4581"/>
</g>
<!-- Node4&#45;&gt;Node3 -->
<g id="edge7" class="edge">
<title>Node4&#45;&gt;Node3</title>
<path fill="none" stroke="#191970" d="M1729.8853,-235.7004C1670.9452,-230.5335 1586.3368,-218.9052 1566,-194 1557.8479,-184.0167 1557.2174,-174.4334 1566,-165 1586.4262,-143.0603 2027.7184,-125.6701 2162.9558,-120.8405"/>
<polygon fill="#191970" stroke="#191970" points="2163.3853,-124.3276 2173.2552,-120.4759 2163.1376,-117.332 2163.3853,-124.3276"/>
</g>
<!-- Node5 -->
<g id="node6" class="node">
<title>Node5</title>
<g id="a_node6"><a xlink:title=" ">
<polygon fill="#ffffff" stroke="#bfbfbf" points="1063.5962,-170.5 1063.5962,-188.5 1122.4038,-188.5 1122.4038,-170.5 1063.5962,-170.5"/>
<text text-anchor="middle" x="1093" y="-176.5" font-family="FreeSans" font-size="10.00" fill="#000000">exception</text>
</a>
</g>
</g>
<!-- Node4&#45;&gt;Node5 -->
<g id="edge6" class="edge">
<title>Node4&#45;&gt;Node5</title>
<path fill="none" stroke="#191970" d="M1729.9953,-237.5778C1590.8122,-232.6944 1245.2296,-218.4361 1132,-194 1129.3124,-193.42 1126.5618,-192.6919 1123.8264,-191.8726"/>
<polygon fill="#191970" stroke="#191970" points="1124.7202,-188.4806 1114.1262,-188.6075 1122.4871,-195.1148 1124.7202,-188.4806"/>
</g>
<!-- Node6 -->
<g id="node7" class="node">
<title>Node6</title>
<g id="a_node7"><a xlink:title=" ">
<polygon fill="#ffffff" stroke="#bfbfbf" points="1140.5298,-170.5 1140.5298,-188.5 1235.4702,-188.5 1235.4702,-170.5 1140.5298,-170.5"/>
<text text-anchor="middle" x="1188" y="-176.5" font-family="FreeSans" font-size="10.00" fill="#000000">boost/version.hpp</text>
</a>
</g>
</g>
<!-- Node4&#45;&gt;Node6 -->
<g id="edge8" class="edge">
<title>Node4&#45;&gt;Node6</title>
<path fill="none" stroke="#191970" d="M1729.8362,-237.7583C1629.4893,-234.0903 1419.7835,-223.3328 1245,-194 1239.9681,-193.1555 1234.7288,-192.0883 1229.5549,-190.9174"/>
<polygon fill="#191970" stroke="#191970" points="1230.2979,-187.4964 1219.7575,-188.5693 1228.6664,-194.3036 1230.2979,-187.4964"/>
</g>
<!-- Node7 -->
<g id="node8" class="node">
<title>Node7</title>
<g id="a_node8"><a xlink:title=" ">
<polygon fill="#ffffff" stroke="#bfbfbf" points="3242.2935,-170.5 3242.2935,-188.5 3371.7065,-188.5 3371.7065,-170.5 3242.2935,-170.5"/>
<text text-anchor="middle" x="3307" y="-176.5" font-family="FreeSans" font-size="10.00" fill="#000000">boost/concept_check.hpp</text>
</a>
</g>
</g>
<!-- Node4&#45;&gt;Node7 -->
<g id="edge9" class="edge">
<title>Node4&#45;&gt;Node7</title>
<path fill="none" stroke="#191970" d="M1847.9403,-238.0303C2030.9183,-233.3375 2605.4833,-217.6225 3081,-194 3131.4564,-191.4934 3188.1972,-187.8502 3232.2029,-184.8428"/>
<polygon fill="#191970" stroke="#191970" points="3232.5091,-188.3301 3242.2455,-184.1524 3232.029,-181.3465 3232.5091,-188.3301"/>
</g>
<!-- Node8 -->
<g id="node9" class="node">
<title>Node8</title>
<g id="a_node9"><a xlink:title=" ">
<polygon fill="#ffffff" stroke="#bfbfbf" points="1253.5815,-170.5 1253.5815,-188.5 1372.4185,-188.5 1372.4185,-170.5 1253.5815,-170.5"/>
<text text-anchor="middle" x="1313" y="-176.5" font-family="FreeSans" font-size="10.00" fill="#000000">boost/static_assert.hpp</text>
</a>
</g>
</g>
<!-- Node4&#45;&gt;Node8 -->
<g id="edge10" class="edge">
<title>Node4&#45;&gt;Node8</title>
<path fill="none" stroke="#191970" d="M1730.1234,-234.7014C1650.762,-227.8268 1505.2018,-213.7851 1382,-194 1375.7342,-192.9938 1369.1764,-191.8004 1362.7018,-190.537"/>
<polygon fill="#191970" stroke="#191970" points="1363.1444,-187.0559 1352.6499,-188.5108 1361.7611,-193.9179 1363.1444,-187.0559"/>
</g>
<!-- Node9 -->
<g id="node10" class="node">
<title>Node9</title>
<g id="a_node10"><a xlink:title=" ">
<polygon fill="#ffffff" stroke="#bfbfbf" points="1575.1309,-170.5 1575.1309,-188.5 1702.8691,-188.5 1702.8691,-170.5 1575.1309,-170.5"/>
<text text-anchor="middle" x="1639" y="-176.5" font-family="FreeSans" font-size="10.00" fill="#000000">boost/concept/assert.hpp</text>
</a>
</g>
</g>
<!-- Node4&#45;&gt;Node9 -->
<g id="edge11" class="edge">
<title>Node4&#45;&gt;Node9</title>
<path fill="none" stroke="#191970" d="M1766.2182,-230.3873C1740.8519,-220.2407 1699.6646,-203.7658 1671.0537,-192.3215"/>
<polygon fill="#191970" stroke="#191970" points="1672.0893,-188.9662 1661.5047,-188.5019 1669.4896,-195.4655 1672.0893,-188.9662"/>
</g>
<!-- Node10 -->
<g id="node11" class="node">
<title>Node10</title>
<g id="a_node11"><a xlink:title=" ">
<polygon fill="#ffffff" stroke="#bfbfbf" points="1720.6826,-170.5 1720.6826,-188.5 1857.3174,-188.5 1857.3174,-170.5 1720.6826,-170.5"/>
<text text-anchor="middle" x="1789" y="-176.5" font-family="FreeSans" font-size="10.00" fill="#000000">boost/concept/requires.hpp</text>
</a>
</g>
</g>
<!-- Node4&#45;&gt;Node10 -->
<g id="edge12" class="edge">
<title>Node4&#45;&gt;Node10</title>
<path fill="none" stroke="#191970" d="M1789,-230.3873C1789,-222.0174 1789,-209.3414 1789,-198.735"/>
<polygon fill="#191970" stroke="#191970" points="1792.5001,-198.6984 1789,-188.6985 1785.5001,-198.6985 1792.5001,-198.6984"/>
</g>
<!-- Node11 -->
<g id="node12" class="node">
<title>Node11</title>
<g id="a_node12"><a xlink:title=" ">
<polygon fill="#ffffff" stroke="#bfbfbf" points="1874.8672,-165.5 1874.8672,-193.5 1983.1328,-193.5 1983.1328,-165.5 1874.8672,-165.5"/>
<text text-anchor="start" x="1882.8672" y="-181.5" font-family="FreeSans" font-size="10.00" fill="#000000">boost/iterator/iterator</text>
<text text-anchor="middle" x="1929" y="-171.5" font-family="FreeSans" font-size="10.00" fill="#000000">_concepts.hpp</text>
</a>
</g>
</g>
<!-- Node4&#45;&gt;Node11 -->
<g id="edge13" class="edge">
<title>Node4&#45;&gt;Node11</title>
<path fill="none" stroke="#191970" d="M1810.263,-230.3873C1830.5436,-221.6956 1861.6594,-208.3602 1886.9507,-197.5211"/>
<polygon fill="#191970" stroke="#191970" points="1888.5112,-200.6603 1896.3239,-193.504 1885.7537,-194.2263 1888.5112,-200.6603"/>
</g>
<!-- Node12 -->
<g id="node13" class="node">
<title>Node12</title>
<g id="a_node13"><a xlink:title=" ">
<polygon fill="#ffffff" stroke="#bfbfbf" points="2001.397,-170.5 2001.397,-188.5 2148.603,-188.5 2148.603,-170.5 2001.397,-170.5"/>
<text text-anchor="middle" x="2075" y="-176.5" font-family="FreeSans" font-size="10.00" fill="#000000">boost/concept_archetype.hpp</text>
</a>
</g>
</g>
<!-- Node4&#45;&gt;Node12 -->
<g id="edge14" class="edge">
<title>Node4&#45;&gt;Node12</title>
<path fill="none" stroke="#191970" d="M1832.1267,-230.4524C1882.9558,-219.789 1967.4099,-202.0714 2022.1334,-190.5909"/>
<polygon fill="#191970" stroke="#191970" points="2022.9224,-194.0017 2031.9907,-188.5229 2021.4851,-187.1508 2022.9224,-194.0017"/>
</g>
<!-- Node13 -->
<g id="node14" class="node">
<title>Node13</title>
<g id="a_node14"><a xlink:title=" ">
<polygon fill="#ffffff" stroke="#bfbfbf" points="748.3843,-110.5 748.3843,-128.5 791.6157,-128.5 791.6157,-110.5 748.3843,-110.5"/>
<text text-anchor="middle" x="770" y="-116.5" font-family="FreeSans" font-size="10.00" fill="#000000">cmath</text>
</a>
</g>
</g>
<!-- Node4&#45;&gt;Node13 -->
<g id="edge15" class="edge">
<title>Node4&#45;&gt;Node13</title>
<path fill="none" stroke="#191970" d="M1729.8148,-238.1685C1525.598,-233.3858 860.7643,-216.1766 821,-194 799.143,-181.8103 784.7116,-155.8463 776.9453,-138.0313"/>
<polygon fill="#191970" stroke="#191970" points="780.1413,-136.5988 773.1371,-128.6495 773.6553,-139.2316 780.1413,-136.5988"/>
</g>
<!-- Node14 -->
<g id="node15" class="node">
<title>Node14</title>
<g id="a_node15"><a xlink:title=" ">
<polygon fill="#ffffff" stroke="#bfbfbf" points="2166.2686,-170.5 2166.2686,-188.5 2211.7314,-188.5 2211.7314,-170.5 2166.2686,-170.5"/>
<text text-anchor="middle" x="2189" y="-176.5" font-family="FreeSans" font-size="10.00" fill="#000000">stdio.h</text>
</a>
</g>
</g>
<!-- Node4&#45;&gt;Node14 -->
<g id="edge16" class="edge">
<title>Node4&#45;&gt;Node14</title>
<path fill="none" stroke="#191970" d="M1848.0565,-234.4936C1937.0698,-226.5623 2101.2406,-210.3275 2158,-194 2159.4632,-193.5791 2160.9441,-193.0972 2162.4244,-192.5707"/>
<polygon fill="#191970" stroke="#191970" points="2164.0838,-195.6723 2171.9935,-188.6233 2161.4144,-189.2013 2164.0838,-195.6723"/>
</g>
<!-- Node15 -->
<g id="node16" class="node">
<title>Node15</title>
<g id="a_node16"><a xlink:href="Config_8h_source.html" target="_top" xlink:title=" ">
<polygon fill="#ffffff" stroke="#ff0000" points="2298.9756,-55.5 2298.9756,-73.5 2405.0244,-73.5 2405.0244,-55.5 2298.9756,-55.5"/>
<text text-anchor="middle" x="2352" y="-61.5" font-family="FreeSans" font-size="10.00" fill="#000000">DGtal/base/Config.h</text>
</a>
</g>
</g>
<!-- Node4&#45;&gt;Node15 -->
<g id="edge17" class="edge">
<title>Node4&#45;&gt;Node15</title>
<path fill="none" stroke="#191970" d="M1847.8689,-236.8171C1962.8478,-231.1089 2208.8089,-216.4213 2240,-194 2273.2716,-170.0832 2250.9143,-140.747 2278,-110 2289.776,-96.6322 2306.4401,-85.9133 2320.9741,-78.245"/>
<polygon fill="#191970" stroke="#191970" points="2322.7726,-81.2586 2330.1446,-73.6491 2319.6363,-75.0005 2322.7726,-81.2586"/>
</g>
<!-- Node17 -->
<g id="node17" class="node">
<title>Node17</title>
<g id="a_node17"><a xlink:href="Trace_8h_source.html" target="_top" xlink:title=" ">
<polygon fill="#ffffff" stroke="#ff0000" points="2457.8311,-170.5 2457.8311,-188.5 2560.1689,-188.5 2560.1689,-170.5 2457.8311,-170.5"/>
<text text-anchor="middle" x="2509" y="-176.5" font-family="FreeSans" font-size="10.00" fill="#000000">DGtal/base/Trace.h</text>
</a>
</g>
</g>
<!-- Node4&#45;&gt;Node17 -->
<g id="edge19" class="edge">
<title>Node4&#45;&gt;Node17</title>
<path fill="none" stroke="#191970" d="M1848.0298,-238.3644C1963.2045,-235.4951 2225.7269,-225.7437 2444,-194 2450.2322,-193.0936 2456.7549,-191.9166 2463.1624,-190.625"/>
<polygon fill="#191970" stroke="#191970" points="2464.0211,-194.0208 2473.0782,-188.5236 2462.5698,-187.1729 2464.0211,-194.0208"/>
</g>
<!-- Node23 -->
<g id="node18" class="node">
<title>Node23</title>
<g id="a_node18"><a xlink:href="TraceWriterTerm_8h_source.html" target="_top" xlink:title=" ">
<polygon fill="#ffffff" stroke="#ff0000" points="2287.478,-110.5 2287.478,-128.5 2438.522,-128.5 2438.522,-110.5 2287.478,-110.5"/>
<text text-anchor="middle" x="2363" y="-116.5" font-family="FreeSans" font-size="10.00" fill="#000000">DGtal/base/TraceWriterTerm.h</text>
</a>
</g>
</g>
<!-- Node4&#45;&gt;Node23 -->
<g id="edge27" class="edge">
<title>Node4&#45;&gt;Node23</title>
<path fill="none" stroke="#191970" d="M1848.2682,-236.4831C1972.6858,-229.8125 2252.8653,-212.896 2292,-194 2318.1695,-181.3642 2339.7458,-154.7116 2352.0017,-136.9539"/>
<polygon fill="#191970" stroke="#191970" points="2354.931,-138.8695 2357.5362,-128.5999 2349.0955,-135.0034 2354.931,-138.8695"/>
</g>
<!-- Node24 -->
<g id="node19" class="node">
<title>Node24</title>
<g id="a_node19"><a xlink:href="Assert_8h_source.html" target="_top" xlink:title=" ">
<polygon fill="#ffffff" stroke="#ff0000" points="2456.2588,-110.5 2456.2588,-128.5 2561.7412,-128.5 2561.7412,-110.5 2456.2588,-110.5"/>
<text text-anchor="middle" x="2509" y="-116.5" font-family="FreeSans" font-size="10.00" fill="#000000">DGtal/base/Assert.h</text>
</a>
</g>
</g>
<!-- Node4&#45;&gt;Node24 -->
<g id="edge30" class="edge">
<title>Node4&#45;&gt;Node24</title>
<path fill="none" stroke="#191970" d="M1847.9424,-236.7269C1967.7188,-230.7263 2235.7597,-215.338 2325,-194 2383.5189,-180.0077 2447.7977,-150.4509 2482.7635,-133.0666"/>
<polygon fill="#191970" stroke="#191970" points="2484.46,-136.131 2491.8192,-128.5091 2481.3131,-129.8782 2484.46,-136.131"/>
</g>
<!-- Node27 -->
<g id="node20" class="node">
<title>Node27</title>
<g id="a_node20"><a xlink:href="TraceWriterFile_8h_source.html" target="_top" xlink:title=" ">
<polygon fill="#ffffff" stroke="#ff0000" points="863.5322,-55.5 863.5322,-73.5 1008.4678,-73.5 1008.4678,-55.5 863.5322,-55.5"/>
<text text-anchor="middle" x="936" y="-61.5" font-family="FreeSans" font-size="10.00" fill="#000000">DGtal/base/TraceWriterFile.h</text>
</a>
</g>
</g>
<!-- Node4&#45;&gt;Node27 -->
<g id="edge28" class="edge">
<title>Node4&#45;&gt;Node27</title>
<path fill="none" stroke="#191970" d="M1730.0906,-239.0091C1561.0778,-237.1842 1082.7804,-228.9553 1022,-194 978.868,-169.1945 953.2579,-112.955 942.302,-83.4209"/>
<polygon fill="#191970" stroke="#191970" points="945.5541,-82.1191 938.9233,-73.8558 938.9538,-84.4506 945.5541,-82.1191"/>
</g>
<!-- Node28 -->
<g id="node21" class="node">
<title>Node28</title>
<g id="a_node21"><a xlink:href="ConceptUtils_8h_source.html" target="_top" xlink:title=" ">
<polygon fill="#ffffff" stroke="#000000" points="2578.084,-170.5 2578.084,-188.5 2711.916,-188.5 2711.916,-170.5 2578.084,-170.5"/>
<text text-anchor="middle" x="2645" y="-176.5" font-family="FreeSans" font-size="10.00" fill="#000000">DGtal/base/ConceptUtils.h</text>
</a>
</g>
</g>
<!-- Node4&#45;&gt;Node28 -->
<g id="edge31" class="edge">
<title>Node4&#45;&gt;Node28</title>
<path fill="none" stroke="#191970" d="M1847.9457,-238.6788C1978.3822,-236.2893 2301.1152,-227.2246 2569,-194 2576.7795,-193.0351 2584.9617,-191.7567 2592.9586,-190.3577"/>
<polygon fill="#191970" stroke="#191970" points="2593.7355,-193.7738 2602.9449,-188.5357 2592.479,-186.8875 2593.7355,-193.7738"/>
</g>
<!-- Node29 -->
<g id="node22" class="node">
<title>Node29</title>
<g id="a_node22"><a xlink:href="BasicTypes_8h_source.html" target="_top" xlink:title=" ">
<polygon fill="#ffffff" stroke="#ff0000" points="1390.8599,-170.5 1390.8599,-188.5 1519.1401,-188.5 1519.1401,-170.5 1390.8599,-170.5"/>
<text text-anchor="middle" x="1455" y="-176.5" font-family="FreeSans" font-size="10.00" fill="#000000">DGtal/base/BasicTypes.h</text>
</a>
</g>
</g>
<!-- Node4&#45;&gt;Node29 -->
<g id="edge33" class="edge">
<title>Node4&#45;&gt;Node29</title>
<path fill="none" stroke="#191970" d="M1737.4933,-230.4686C1685.7816,-221.3724 1603.8386,-206.8794 1533,-194 1526.6858,-192.852 1520.0863,-191.6416 1513.5143,-190.4294"/>
<polygon fill="#191970" stroke="#191970" points="1513.7245,-186.909 1503.2547,-188.532 1512.4514,-193.7923 1513.7245,-186.909"/>
</g>
<!-- Node32 -->
<g id="node23" class="node">
<title>Node32</title>
<g id="a_node23"><a xlink:href="BasicFunctors_8h_source.html" target="_top" xlink:title=" ">
<polygon fill="#ffffff" stroke="#ff0000" points="829.7515,-170.5 829.7515,-188.5 970.2485,-188.5 970.2485,-170.5 829.7515,-170.5"/>
<text text-anchor="middle" x="900" y="-176.5" font-family="FreeSans" font-size="10.00" fill="#000000">DGtal/base/BasicFunctors.h</text>
</a>
</g>
</g>
<!-- Node4&#45;&gt;Node32 -->
<g id="edge36" class="edge">
<title>Node4&#45;&gt;Node32</title>
<path fill="none" stroke="#191970" d="M1730.0777,-238.5727C1595.5665,-235.8871 1256.2816,-226.1197 975,-194 966.1331,-192.9875 956.7825,-191.6474 947.7856,-190.1902"/>
<polygon fill="#191970" stroke="#191970" points="948.2663,-186.7219 937.8229,-188.5065 947.0998,-193.624 948.2663,-186.7219"/>
</g>
<!-- Node40 -->
<g id="node24" class="node">
<title>Node40</title>
<g id="a_node24"><a xlink:href="BasicArchetypes_8h_source.html" target="_top" xlink:title=" ">
<polygon fill="#ffffff" stroke="#000000" points="2920.1899,-170.5 2920.1899,-188.5 3071.8101,-188.5 3071.8101,-170.5 2920.1899,-170.5"/>
<text text-anchor="middle" x="2996" y="-176.5" font-family="FreeSans" font-size="10.00" fill="#000000">DGtal/base/BasicArchetypes.h</text>
</a>
</g>
</g>
<!-- Node4&#45;&gt;Node40 -->
<g id="edge40" class="edge">
<title>Node4&#45;&gt;Node40</title>
<path fill="none" stroke="#191970" d="M1847.8868,-236.705C1995.0876,-229.7008 2390.9487,-210.7578 2721,-194 2784.2482,-190.7887 2855.6707,-187.0185 2909.8742,-184.1275"/>
<polygon fill="#191970" stroke="#191970" points="2910.3338,-187.6081 2920.133,-183.5799 2909.9606,-180.618 2910.3338,-187.6081"/>
</g>
<!-- Node41 -->
<g id="node25" class="node">
<title>Node41</title>
<g id="a_node25"><a xlink:href="Exceptions_8h_source.html" target="_top" xlink:title=" ">
<polygon fill="#ffffff" stroke="#000000" points="2081.9707,-55.5 2081.9707,-73.5 2208.0293,-73.5 2208.0293,-55.5 2081.9707,-55.5"/>
<text text-anchor="middle" x="2145" y="-61.5" font-family="FreeSans" font-size="10.00" fill="#000000">DGtal/base/Exceptions.h</text>
</a>
</g>
</g>
<!-- Node4&#45;&gt;Node41 -->
<g id="edge42" class="edge">
<title>Node4&#45;&gt;Node41</title>
<path fill="none" stroke="#191970" d="M1848.0022,-237.5862C1960.4506,-233.3282 2196.4972,-221.2191 2221,-194 2259.8165,-150.8805 2167.3398,-133.421 2164,-129 2154.1048,-115.9014 2149.3476,-97.7306 2147.0694,-84.0125"/>
<polygon fill="#191970" stroke="#191970" points="2150.4896,-83.1862 2145.6805,-73.7457 2143.5528,-84.1247 2150.4896,-83.1862"/>
</g>
<!-- Node15&#45;&gt;Node2 -->
<g id="edge18" class="edge">
<title>Node15&#45;&gt;Node2</title>
<path fill="none" stroke="#191970" d="M2317.8182,-55.4179C2280.3969,-45.475 2220.6013,-29.5873 2182.0728,-19.3503"/>
<polygon fill="#191970" stroke="#191970" points="2182.848,-15.9348 2172.2845,-16.7495 2181.0504,-22.7001 2182.848,-15.9348"/>
</g>
<!-- Node17&#45;&gt;Node2 -->
<g id="edge20" class="edge">
<title>Node17&#45;&gt;Node2</title>
<path fill="none" stroke="#191970" d="M2534.1617,-170.4639C2563.7866,-158.4012 2606.7317,-135.5661 2588,-110 2539.7681,-44.1702 2279.9916,-19.0952 2182.2326,-11.9039"/>
<polygon fill="#191970" stroke="#191970" points="2182.4338,-8.4095 2172.2098,-11.1879 2181.935,-15.3917 2182.4338,-8.4095"/>
</g>
<!-- Node17&#45;&gt;Node15 -->
<g id="edge21" class="edge">
<title>Node17&#45;&gt;Node15</title>
<path fill="none" stroke="#191970" d="M2527.8186,-170.2935C2552.0943,-157.2052 2589.1641,-132.3258 2571,-110 2551.6376,-86.2013 2472.7426,-74.4468 2415.1832,-68.9351"/>
<polygon fill="#191970" stroke="#191970" points="2415.3411,-65.435 2405.0636,-68.0086 2414.7028,-72.4059 2415.3411,-65.435"/>
</g>
<!-- Node17&#45;&gt;Node23 -->
<g id="edge22" class="edge">
<title>Node17&#45;&gt;Node23</title>
<path fill="none" stroke="#191970" d="M2486.8257,-170.3873C2462.1358,-160.2407 2422.0468,-143.7658 2394.1989,-132.3215"/>
<polygon fill="#191970" stroke="#191970" points="2395.4844,-129.0658 2384.9046,-128.5019 2392.8236,-135.5404 2395.4844,-129.0658"/>
</g>
<!-- Node17&#45;&gt;Node24 -->
<g id="edge25" class="edge">
<title>Node17&#45;&gt;Node24</title>
<path fill="none" stroke="#191970" d="M2503.9906,-170.3873C2502.2725,-162.0174 2501.8263,-149.3414 2502.6521,-138.735"/>
<polygon fill="#191970" stroke="#191970" points="2506.1381,-139.0697 2503.9731,-128.6985 2499.198,-138.1562 2506.1381,-139.0697"/>
</g>
<!-- Node23&#45;&gt;Node2 -->
<g id="edge23" class="edge">
<title>Node23&#45;&gt;Node2</title>
<path fill="none" stroke="#191970" d="M2345.1601,-110.4982C2306.9958,-91.241 2217.2328,-45.9478 2172.0228,-23.1354"/>
<polygon fill="#191970" stroke="#191970" points="2173.5909,-20.0063 2163.0864,-18.6261 2170.4375,-26.2558 2173.5909,-20.0063"/>
</g>
<!-- Node23&#45;&gt;Node15 -->
<g id="edge24" class="edge">
<title>Node23&#45;&gt;Node15</title>
<path fill="none" stroke="#191970" d="M2361.1836,-110.4179C2359.7433,-103.2164 2357.6792,-92.8962 2355.8726,-83.8632"/>
<polygon fill="#191970" stroke="#191970" points="2359.2492,-82.8988 2353.8559,-73.7795 2352.3851,-84.2717 2359.2492,-82.8988"/>
</g>
<!-- Node24&#45;&gt;Node17 -->
<g id="edge26" class="edge">
<title>Node24&#45;&gt;Node17</title>
<path fill="none" stroke="#191970" d="M2514.0269,-128.6985C2515.7364,-137.0976 2516.1739,-149.7812 2515.3394,-160.3734"/>
<polygon fill="#191970" stroke="#191970" points="2511.8566,-160.0135 2514.0094,-170.3873 2518.7956,-160.9352 2511.8566,-160.0135"/>
</g>
<!-- Node27&#45;&gt;Node2 -->
<g id="edge29" class="edge">
<title>Node27&#45;&gt;Node2</title>
<path fill="none" stroke="#191970" d="M1008.6929,-56.1107C1013.1928,-55.7028 1017.6561,-55.3275 1022,-55 1447.2511,-22.9365 1964.9123,-12.4572 2107.2462,-10.0776"/>
<polygon fill="#191970" stroke="#191970" points="2107.6568,-13.5714 2117.598,-9.9079 2107.5419,-6.5724 2107.6568,-13.5714"/>
</g>
<!-- Node28&#45;&gt;Node2 -->
<g id="edge32" class="edge">
<title>Node28&#45;&gt;Node2</title>
<path fill="none" stroke="#191970" d="M2641.2529,-170.0659C2635.2439,-155.8063 2622.3433,-128.4715 2605,-110 2574.7091,-77.7388 2563.5294,-70.2849 2522,-55 2460.1359,-32.231 2264.8608,-17.2691 2182.3657,-11.8116"/>
<polygon fill="#191970" stroke="#191970" points="2182.3948,-8.3062 2172.1885,-11.1489 2181.9399,-15.2914 2182.3948,-8.3062"/>
</g>
<!-- Node29&#45;&gt;Node1 -->
<g id="edge34" class="edge">
<title>Node29&#45;&gt;Node1</title>
<path fill="none" stroke="#191970" d="M1412.4694,-170.426C1402.1995,-168.4402 1391.2345,-166.4892 1381,-165 1215.4024,-140.9038 1015.3958,-126.5053 938.3849,-121.503"/>
<polygon fill="#191970" stroke="#191970" points="938.5546,-118.0068 928.3511,-120.8595 938.1065,-124.9925 938.5546,-118.0068"/>
</g>
<!-- Node29&#45;&gt;Node2 -->
<g id="edge35" class="edge">
<title>Node29&#45;&gt;Node2</title>
<path fill="none" stroke="#191970" d="M1491.6102,-170.4801C1610.8624,-141.0991 1987.3646,-48.3377 2107.6598,-18.6998"/>
<polygon fill="#191970" stroke="#191970" points="2108.6401,-22.063 2117.5124,-16.2723 2106.9655,-15.2662 2108.6401,-22.063"/>
</g>
<!-- Node32&#45;&gt;Node3 -->
<g id="edge37" class="edge">
<title>Node32&#45;&gt;Node3</title>
<path fill="none" stroke="#191970" d="M970.5386,-172.0966C997.0031,-169.5309 1027.3583,-166.8398 1055,-165 1489.0613,-136.1087 2016.8387,-123.406 2162.9179,-120.2904"/>
<polygon fill="#191970" stroke="#191970" points="2163.2363,-123.7845 2173.1602,-120.0744 2163.0886,-116.7861 2163.2363,-123.7845"/>
</g>
<!-- Node32&#45;&gt;Node4 -->
<g id="edge39" class="edge">
<title>Node32&#45;&gt;Node4</title>
<path fill="none" stroke="#191970" d="M955.2094,-188.5065C967.6758,-190.5923 980.7961,-192.6064 993,-194 1260.9696,-224.5996 1581.5821,-234.9125 1719.9573,-238.1422"/>
<polygon fill="#191970" stroke="#191970" points="1719.9224,-241.6422 1729.9998,-238.3716 1720.0823,-234.6441 1719.9224,-241.6422"/>
</g>
<!-- Node32&#45;&gt;Node13 -->
<g id="edge38" class="edge">
<title>Node32&#45;&gt;Node13</title>
<path fill="none" stroke="#191970" d="M880.2558,-170.3873C858.5596,-160.3737 823.5088,-144.1964 798.7599,-132.7738"/>
<polygon fill="#191970" stroke="#191970" points="800.0504,-129.5147 789.5041,-128.5019 797.1169,-135.8704 800.0504,-129.5147"/>
</g>
<!-- Node40&#45;&gt;Node2 -->
<g id="edge41" class="edge">
<title>Node40&#45;&gt;Node2</title>
<path fill="none" stroke="#191970" d="M2992.6888,-170.4837C2983.3681,-146.576 2954.3892,-81.5795 2906,-55 2842.2692,-19.9935 2327.2066,-11.5595 2182.6201,-9.8728"/>
<polygon fill="#191970" stroke="#191970" points="2182.5129,-6.3715 2172.4741,-9.7586 2182.434,-13.3711 2182.5129,-6.3715"/>
</g>
<!-- Node41&#45;&gt;Node2 -->
<g id="edge43" class="edge">
<title>Node41&#45;&gt;Node2</title>
<path fill="none" stroke="#191970" d="M2145,-55.4179C2145,-48.2164 2145,-37.8962 2145,-28.8632"/>
<polygon fill="#191970" stroke="#191970" points="2148.5001,-28.7794 2145,-18.7795 2141.5001,-28.7795 2148.5001,-28.7794"/>
</g>
<!-- Node42&#45;&gt;Node2 -->
<g id="edge45" class="edge">
<title>Node42&#45;&gt;Node2</title>
<path fill="none" stroke="#191970" d="M829.8913,-627.7263C688.3475,-623.2774 345.4117,-610.0866 233,-584 141.8302,-562.8428 38,-598.0925 38,-504.5 38,-504.5 38,-504.5 38,-119.5 38,-26.1029 145.9165,-70.6089 238,-55 428.5184,-22.7056 1856.7668,-11.4772 2107.4838,-9.7462"/>
<polygon fill="#191970" stroke="#191970" points="2107.5755,-13.2457 2117.5514,-9.6774 2107.5277,-6.2459 2107.5755,-13.2457"/>
</g>
<!-- Node42&#45;&gt;Node4 -->
<g id="edge46" class="edge">
<title>Node42&#45;&gt;Node4</title>
<path fill="none" stroke="#191970" d="M888.1441,-620.1314C875.8468,-588.6684 840.6095,-484.8489 880,-415 934.8515,-317.7351 988.4767,-318.4951 1095,-285 1153.4683,-266.6153 1555.7577,-248.7714 1719.6966,-242.1755"/>
<polygon fill="#191970" stroke="#191970" points="1720.2921,-245.6546 1730.1441,-241.7574 1720.0121,-238.6602 1720.2921,-245.6546"/>
</g>
<!-- Node43 -->
<g id="node27" class="node">
<title>Node43</title>
<g id="a_node27"><a xlink:href="SpaceND_8h_source.html" target="_top" xlink:title=" ">
<polygon fill="#ffffff" stroke="#000000" points="1942.2539,-355.5 1942.2539,-373.5 2067.7461,-373.5 2067.7461,-355.5 1942.2539,-355.5"/>
<text text-anchor="middle" x="2005" y="-361.5" font-family="FreeSans" font-size="10.00" fill="#000000">DGtal/kernel/SpaceND.h</text>
</a>
</g>
</g>
<!-- Node42&#45;&gt;Node43 -->
<g id="edge47" class="edge">
<title>Node42&#45;&gt;Node43</title>
<path fill="none" stroke="#191970" d="M953.9507,-626.7901C1048.8034,-621.9828 1235.4931,-609.9211 1392,-584 1634.2604,-543.8761 1719.9303,-582.8018 1929,-454 1958.2159,-436.0009 1981.8714,-402.9729 1994.6461,-382.4643"/>
<polygon fill="#191970" stroke="#191970" points="1997.7195,-384.1449 1999.8756,-373.7718 1991.7214,-380.5363 1997.7195,-384.1449"/>
</g>
<!-- Node65 -->
<g id="node30" class="node">
<title>Node65</title>
<g id="a_node30"><a xlink:href="HyperRectDomain_8h_source.html" target="_top" xlink:title=" ">
<polygon fill="#ffffff" stroke="#ff0000" points="888.9238,-420.5 888.9238,-448.5 1001.0762,-448.5 1001.0762,-420.5 888.9238,-420.5"/>
<text text-anchor="start" x="896.9238" y="-436.5" font-family="FreeSans" font-size="10.00" fill="#000000">DGtal/kernel/domains</text>
<text text-anchor="middle" x="945" y="-426.5" font-family="FreeSans" font-size="10.00" fill="#000000">/HyperRectDomain.h</text>
</a>
</g>
</g>
<!-- Node42&#45;&gt;Node65 -->
<g id="edge58" class="edge">
<title>Node42&#45;&gt;Node65</title>
<path fill="none" stroke="#191970" d="M894.4852,-620.3563C902.3314,-591.4881 926.7512,-501.6417 938.5244,-458.3255"/>
<polygon fill="#191970" stroke="#191970" points="941.9168,-459.1881 941.1622,-448.6202 935.1619,-457.3521 941.9168,-459.1881"/>
</g>
<!-- Node86 -->
<g id="node32" class="node">
<title>Node86</title>
<g id="a_node32"><a xlink:href="DigitalSetSelector_8h_source.html" target="_top" xlink:title=" ">
<polygon fill="#ffffff" stroke="#ff0000" points="358.3696,-285.5 358.3696,-313.5 481.6304,-313.5 481.6304,-285.5 358.3696,-285.5"/>
<text text-anchor="start" x="366.3696" y="-301.5" font-family="FreeSans" font-size="10.00" fill="#000000">DGtal/kernel/sets/Digital</text>
<text text-anchor="middle" x="420" y="-291.5" font-family="FreeSans" font-size="10.00" fill="#000000">SetSelector.h</text>
</a>
</g>
</g>
<!-- Node42&#45;&gt;Node86 -->
<g id="edge66" class="edge">
<title>Node42&#45;&gt;Node86</title>
<path fill="none" stroke="#191970" d="M829.7899,-625.5584C731.7289,-618.7821 550.0325,-603.7283 528,-584 500.9358,-559.7661 509,-540.8284 509,-504.5 509,-504.5 509,-504.5 509,-434.5 509,-396.0068 511.2079,-382.124 490,-350 481.7619,-337.5216 469.3113,-327.0987 457.1835,-319.0245"/>
<polygon fill="#191970" stroke="#191970" points="458.8063,-315.911 448.4745,-313.5646 455.0881,-321.8418 458.8063,-315.911"/>
</g>
<!-- Node99 -->
<g id="node33" class="node">
<title>Node99</title>
<g id="a_node33"><a xlink:href="DigitalTopology_8h_source.html" target="_top" xlink:title=" ">
<polygon fill="#ffffff" stroke="#ff0000" points="103.8271,-290.5 103.8271,-308.5 264.1729,-308.5 264.1729,-290.5 103.8271,-290.5"/>
<text text-anchor="middle" x="184" y="-296.5" font-family="FreeSans" font-size="10.00" fill="#000000">DGtal/topology/DigitalTopology.h</text>
</a>
</g>
</g>
<!-- Node42&#45;&gt;Node99 -->
<g id="edge69" class="edge">
<title>Node42&#45;&gt;Node99</title>
<path fill="none" stroke="#191970" d="M830.0023,-626.8626C746.5188,-622.4087 593.6973,-611.0706 466,-584 353.1832,-560.0839 219,-619.8239 219,-504.5 219,-504.5 219,-504.5 219,-434.5 219,-391.7264 202.3327,-343.6989 192.0016,-318.0379"/>
<polygon fill="#191970" stroke="#191970" points="195.2226,-316.668 188.1524,-308.7773 188.7587,-319.3548 195.2226,-316.668"/>
</g>
<!-- Node106 -->
<g id="node34" class="node">
<title>Node106</title>
<g id="a_node34"><a xlink:href="MetricAdjacency_8h_source.html" target="_top" xlink:title=" ">
<polygon fill="#ffffff" stroke="#ff0000" points="1674.0562,-425.5 1674.0562,-443.5 1839.9438,-443.5 1839.9438,-425.5 1674.0562,-425.5"/>
<text text-anchor="middle" x="1757" y="-431.5" font-family="FreeSans" font-size="10.00" fill="#000000">DGtal/topology/MetricAdjacency.h</text>
</a>
</g>
</g>
<!-- Node42&#45;&gt;Node106 -->
<g id="edge72" class="edge">
<title>Node42&#45;&gt;Node106</title>
<path fill="none" stroke="#191970" d="M954.1206,-626.8476C1038.5864,-622.3604 1194.0383,-610.9673 1324,-584 1418.4178,-564.4081 1439.8062,-550.3411 1531,-519 1600.4612,-495.1278 1680.7933,-464.3159 1724.5185,-447.2697"/>
<polygon fill="#191970" stroke="#191970" points="1726.007,-450.4459 1734.0476,-443.5467 1723.4596,-443.9259 1726.007,-450.4459"/>
</g>
<!-- Node109 -->
<g id="node36" class="node">
<title>Node109</title>
<g id="a_node36"><a xlink:href="Object_8h_source.html" target="_top" xlink:title=" ">
<polygon fill="#ffffff" stroke="#ff0000" points="358.9165,-355.5 358.9165,-373.5 481.0835,-373.5 481.0835,-355.5 358.9165,-355.5"/>
<text text-anchor="middle" x="420" y="-361.5" font-family="FreeSans" font-size="10.00" fill="#000000">DGtal/topology/Object.h</text>
</a>
</g>
</g>
<!-- Node42&#45;&gt;Node109 -->
<g id="edge78" class="edge">
<title>Node42&#45;&gt;Node109</title>
<path fill="none" stroke="#191970" d="M829.9012,-626.0056C724.7535,-619.5601 520.5332,-604.5562 495,-584 432.2266,-533.4625 421.7641,-427.8069 420.1876,-384.0875"/>
<polygon fill="#191970" stroke="#191970" points="423.683,-383.8485 419.9468,-373.9343 416.6849,-384.0145 423.683,-383.8485"/>
</g>
<!-- Node118 -->
<g id="node37" class="node">
<title>Node118</title>
<g id="a_node37"><a xlink:href="KhalimskySpaceND_8h_source.html" target="_top" xlink:title=" ">
<polygon fill="#ffffff" stroke="#ff0000" points="1356.7539,-490.5 1356.7539,-518.5 1487.2461,-518.5 1487.2461,-490.5 1356.7539,-490.5"/>
<text text-anchor="start" x="1364.7539" y="-506.5" font-family="FreeSans" font-size="10.00" fill="#000000">DGtal/topology/Khalimsky</text>
<text text-anchor="middle" x="1422" y="-496.5" font-family="FreeSans" font-size="10.00" fill="#000000">SpaceND.h</text>
</a>
</g>
</g>
<!-- Node42&#45;&gt;Node118 -->
<g id="edge82" class="edge">
<title>Node42&#45;&gt;Node118</title>
<path fill="none" stroke="#191970" d="M930.5432,-620.4096C1019.335,-599.4682 1239.3249,-547.5838 1352.4195,-520.9105"/>
<polygon fill="#191970" stroke="#191970" points="1353.4313,-524.268 1362.3608,-518.5658 1351.8244,-517.4549 1353.4313,-524.268"/>
</g>
<!-- Node119 -->
<g id="node38" class="node">
<title>Node119</title>
<g id="a_node38"><a xlink:href="KhalimskyPreSpaceND_8h_source.html" target="_top" xlink:title=" ">
<polygon fill="#ffffff" stroke="#ff0000" points="1525.7539,-420.5 1525.7539,-448.5 1656.2461,-448.5 1656.2461,-420.5 1525.7539,-420.5"/>
<text text-anchor="start" x="1533.7539" y="-436.5" font-family="FreeSans" font-size="10.00" fill="#000000">DGtal/topology/Khalimsky</text>
<text text-anchor="middle" x="1591" y="-426.5" font-family="FreeSans" font-size="10.00" fill="#000000">PreSpaceND.h</text>
</a>
</g>
</g>
<!-- Node42&#45;&gt;Node119 -->
<g id="edge96" class="edge">
<title>Node42&#45;&gt;Node119</title>
<path fill="none" stroke="#191970" d="M954.1097,-622.5404C1088.312,-606.7979 1400.9046,-566.1331 1496,-519 1526.767,-503.7507 1555.2222,-475.8309 1572.8138,-456.2712"/>
<polygon fill="#191970" stroke="#191970" points="1575.4776,-458.542 1579.4439,-448.7175 1570.2167,-453.9242 1575.4776,-458.542"/>
</g>
<!-- Node122 -->
<g id="node39" class="node">
<title>Node122</title>
<g id="a_node39"><a xlink:href="GridCurve_8h_source.html" target="_top" xlink:title="Header file for module GridCurve.cpp.">
<polygon fill="#ffffff" stroke="#ff0000" points="536.8721,-555.5 536.8721,-583.5 655.1279,-583.5 655.1279,-555.5 536.8721,-555.5"/>
<text text-anchor="start" x="544.8721" y="-571.5" font-family="FreeSans" font-size="10.00" fill="#000000">DGtal/geometry/curves</text>
<text text-anchor="middle" x="596" y="-561.5" font-family="FreeSans" font-size="10.00" fill="#000000">/GridCurve.h</text>
</a>
</g>
</g>
<!-- Node42&#45;&gt;Node122 -->
<g id="edge97" class="edge">
<title>Node42&#45;&gt;Node122</title>
<path fill="none" stroke="#191970" d="M847.3653,-620.4524C799.0682,-610.6625 721.4383,-594.9267 665.2166,-583.5304"/>
<polygon fill="#191970" stroke="#191970" points="665.8282,-580.0833 655.3322,-581.5268 664.4375,-586.9437 665.8282,-580.0833"/>
</g>
<!-- Node152 -->
<g id="node40" class="node">
<title>Node152</title>
<g id="a_node40"><a xlink:href="ExactPredicateLpSeparableMetric_8h_source.html" target="_top" xlink:title=" ">
<polygon fill="#ffffff" stroke="#ff0000" points="650.6138,-415.5 650.6138,-453.5 833.3862,-453.5 833.3862,-415.5 650.6138,-415.5"/>
<text text-anchor="start" x="658.6138" y="-441.5" font-family="FreeSans" font-size="10.00" fill="#000000">DGtal/geometry/volumes</text>
<text text-anchor="start" x="658.6138" y="-431.5" font-family="FreeSans" font-size="10.00" fill="#000000">/distance/ExactPredicateLpSeparable</text>
<text text-anchor="middle" x="742" y="-421.5" font-family="FreeSans" font-size="10.00" fill="#000000">Metric.h</text>
</a>
</g>
</g>
<!-- Node42&#45;&gt;Node152 -->
<g id="edge102" class="edge">
<title>Node42&#45;&gt;Node152</title>
<path fill="none" stroke="#191970" d="M881.8524,-620.1839C872.3926,-611.2862 858.1134,-597.2997 847,-584 813.3114,-543.6842 779.2575,-492.9477 759.4162,-462.1562"/>
<polygon fill="#191970" stroke="#191970" points="762.3097,-460.1844 753.9699,-453.6499 756.4145,-463.9589 762.3097,-460.1844"/>
</g>
<!-- Node157 -->
<g id="node41" class="node">
<title>Node157</title>
<g id="a_node41"><a xlink:href="ExactPredicateLpPowerSeparableMetric_8h_source.html" target="_top" xlink:title=" ">
<polygon fill="#ffffff" stroke="#ff0000" points="1019.2368,-415.5 1019.2368,-453.5 1184.7632,-453.5 1184.7632,-415.5 1019.2368,-415.5"/>
<text text-anchor="start" x="1027.2368" y="-441.5" font-family="FreeSans" font-size="10.00" fill="#000000">DGtal/geometry/volumes</text>
<text text-anchor="start" x="1027.2368" y="-431.5" font-family="FreeSans" font-size="10.00" fill="#000000">/distance/ExactPredicateLpPower</text>
<text text-anchor="middle" x="1102" y="-421.5" font-family="FreeSans" font-size="10.00" fill="#000000">SeparableMetric.h</text>
</a>
</g>
</g>
<!-- Node42&#45;&gt;Node157 -->
<g id="edge108" class="edge">
<title>Node42&#45;&gt;Node157</title>
<path fill="none" stroke="#191970" d="M901.8471,-620.3563C932.4187,-591.9683 1026.4929,-504.6137 1073.973,-460.5251"/>
<polygon fill="#191970" stroke="#191970" points="1076.5041,-462.951 1081.4505,-453.5817 1071.7409,-457.8215 1076.5041,-462.951"/>
</g>
<!-- Node43&#45;&gt;Node2 -->
<g id="edge48" class="edge">
<title>Node43&#45;&gt;Node2</title>
<path fill="none" stroke="#191970" d="M2067.8314,-358.9047C2143.3914,-351.5384 2273.8175,-336.7881 2384,-314 2577.7888,-273.9204 2737.2633,-320.0074 2789,-129 2797.751,-96.6919 2800.6695,-76.4819 2775,-55 2729.5514,-16.9656 2311.6347,-10.7216 2182.7001,-9.6994"/>
<polygon fill="#191970" stroke="#191970" points="2182.5513,-6.1983 2172.526,-9.625 2182.5001,-13.1982 2182.5513,-6.1983"/>
</g>
<!-- Node43&#45;&gt;Node4 -->
<g id="edge49" class="edge">
<title>Node43&#45;&gt;Node4</title>
<path fill="none" stroke="#191970" d="M1989.117,-355.3085C1951.7336,-333.6746 1857.9884,-279.4239 1813.3557,-253.5947"/>
<polygon fill="#191970" stroke="#191970" points="1815.0232,-250.516 1804.615,-248.5364 1811.5171,-256.5746 1815.0232,-250.516"/>
</g>
<!-- Node44 -->
<g id="node28" class="node">
<title>Node44</title>
<g id="a_node28"><a xlink:href="CInteger_8h_source.html" target="_top" xlink:title=" ">
<polygon fill="#ffffff" stroke="#ff0000" points="1642.749,-290.5 1642.749,-308.5 1763.251,-308.5 1763.251,-290.5 1642.749,-290.5"/>
<text text-anchor="middle" x="1703" y="-296.5" font-family="FreeSans" font-size="10.00" fill="#000000">DGtal/kernel/CInteger.h</text>
</a>
</g>
</g>
<!-- Node43&#45;&gt;Node44 -->
<g id="edge50" class="edge">
<title>Node43&#45;&gt;Node44</title>
<path fill="none" stroke="#191970" d="M1963.0082,-355.462C1908.6188,-343.7557 1813.8271,-323.3535 1754.9617,-310.6838"/>
<polygon fill="#191970" stroke="#191970" points="1755.6335,-307.2483 1745.1209,-308.5658 1754.1605,-314.0916 1755.6335,-307.2483"/>
</g>
<!-- Node55 -->
<g id="node29" class="node">
<title>Node55</title>
<g id="a_node29"><a xlink:href="PointVector_8h_source.html" target="_top" xlink:title=" ">
<polygon fill="#ffffff" stroke="#ff0000" points="2124.3525,-290.5 2124.3525,-308.5 2257.6475,-308.5 2257.6475,-290.5 2124.3525,-290.5"/>
<text text-anchor="middle" x="2191" y="-296.5" font-family="FreeSans" font-size="10.00" fill="#000000">DGtal/kernel/PointVector.h</text>
</a>
</g>
</g>
<!-- Node43&#45;&gt;Node55 -->
<g id="edge54" class="edge">
<title>Node43&#45;&gt;Node55</title>
<path fill="none" stroke="#191970" d="M2030.8625,-355.462C2063.2532,-344.1427 2118.9095,-324.6929 2155.3307,-311.9651"/>
<polygon fill="#191970" stroke="#191970" points="2156.7725,-315.1689 2165.058,-308.5658 2154.4632,-308.5607 2156.7725,-315.1689"/>
</g>
<!-- Node44&#45;&gt;Node2 -->
<g id="edge51" class="edge">
<title>Node44&#45;&gt;Node2</title>
<path fill="none" stroke="#191970" d="M1642.6621,-296.8326C1452.5991,-287.8194 875.6385,-255.5636 821,-194 805.3374,-176.3523 817.3868,-83.7804 855,-55 906.0311,-15.9526 1901.3391,-10.3499 2107.7288,-9.607"/>
<polygon fill="#191970" stroke="#191970" points="2107.7818,-13.1069 2117.7697,-9.5725 2107.7577,-6.1069 2107.7818,-13.1069"/>
</g>
<!-- Node44&#45;&gt;Node4 -->
<g id="edge52" class="edge">
<title>Node44&#45;&gt;Node4</title>
<path fill="none" stroke="#191970" d="M1716.0615,-290.3873C1729.7793,-280.8168 1751.5671,-265.6159 1767.7622,-254.3171"/>
<polygon fill="#191970" stroke="#191970" points="1769.8987,-257.0942 1776.0973,-248.5019 1765.8934,-251.3533 1769.8987,-257.0942"/>
</g>
<!-- Node44&#45;&gt;Node28 -->
<g id="edge53" class="edge">
<title>Node44&#45;&gt;Node28</title>
<path fill="none" stroke="#191970" d="M1763.3468,-296.2956C1869.0217,-290.2278 2094.2911,-275.2595 2283,-249 2395.5195,-233.3425 2526.0577,-205.9807 2595.5197,-190.6759"/>
<polygon fill="#191970" stroke="#191970" points="2596.308,-194.0861 2605.3156,-188.5081 2594.7955,-187.2515 2596.308,-194.0861"/>
</g>
<!-- Node55&#45;&gt;Node2 -->
<g id="edge55" class="edge">
<title>Node55&#45;&gt;Node2</title>
<path fill="none" stroke="#191970" d="M2257.8999,-293.4638C2383.5681,-280.9699 2648.7644,-248.7716 2721,-194 2771.5952,-155.6369 2797.1928,-101.5402 2754,-55 2734.4892,-33.9771 2312.739,-15.9817 2182.7792,-10.9192"/>
<polygon fill="#191970" stroke="#191970" points="2182.6537,-7.4119 2172.526,-10.5232 2182.3834,-14.4067 2182.6537,-7.4119"/>
</g>
<!-- Node55&#45;&gt;Node3 -->
<g id="edge56" class="edge">
<title>Node55&#45;&gt;Node3</title>
<path fill="none" stroke="#191970" d="M2198.8015,-290.419C2213.1164,-273.0862 2243.1078,-233.4849 2254,-194 2257.4275,-181.5752 2259.3259,-176.737 2254,-165 2248.3461,-152.54 2237.4074,-142.1506 2227.0156,-134.4602"/>
<polygon fill="#191970" stroke="#191970" points="2228.7695,-131.4191 2218.5432,-128.6489 2224.81,-137.1916 2228.7695,-131.4191"/>
</g>
<!-- Node55&#45;&gt;Node4 -->
<g id="edge57" class="edge">
<title>Node55&#45;&gt;Node4</title>
<path fill="none" stroke="#191970" d="M2142.2192,-290.4718C2131.6102,-288.5911 2120.4384,-286.6735 2110,-285 2023.3511,-271.1081 1923.1834,-257.2609 1858.1019,-248.5565"/>
<polygon fill="#191970" stroke="#191970" points="1858.3404,-245.0574 1847.9654,-247.2045 1857.4148,-251.996 1858.3404,-245.0574"/>
</g>
<!-- Node65&#45;&gt;Node2 -->
<g id="edge59" class="edge">
<title>Node65&#45;&gt;Node2</title>
<path fill="none" stroke="#191970" d="M921.7387,-420.4581C832.1526,-364.9984 521.6176,-159.1569 668,-55 698.2377,-33.4847 1881.1107,-13.6816 2107.6932,-10.0814"/>
<polygon fill="#191970" stroke="#191970" points="2107.8082,-13.5801 2117.7516,-9.9223 2107.6974,-6.581 2107.8082,-13.5801"/>
</g>
<!-- Node65&#45;&gt;Node4 -->
<g id="edge60" class="edge">
<title>Node65&#45;&gt;Node4</title>
<path fill="none" stroke="#191970" d="M959.3795,-420.0499C991.5743,-388.7637 1073.3007,-315.1505 1158,-285 1209.8071,-266.5582 1566.7401,-249.1241 1719.6813,-242.4078"/>
<polygon fill="#191970" stroke="#191970" points="1720.0566,-245.8949 1729.8944,-241.962 1719.7513,-238.9015 1720.0566,-245.8949"/>
</g>
<!-- Node66 -->
<g id="node31" class="node">
<title>Node66</title>
<g id="a_node31"><a xlink:href="CSpace_8h_source.html" target="_top" xlink:title=" ">
<polygon fill="#ffffff" stroke="#ff0000" points="1129.8647,-355.5 1129.8647,-373.5 1248.1353,-373.5 1248.1353,-355.5 1129.8647,-355.5"/>
<text text-anchor="middle" x="1189" y="-361.5" font-family="FreeSans" font-size="10.00" fill="#000000">DGtal/kernel/CSpace.h</text>
</a>
</g>
</g>
<!-- Node65&#45;&gt;Node66 -->
<g id="edge61" class="edge">
<title>Node65&#45;&gt;Node66</title>
<path fill="none" stroke="#191970" d="M991.4856,-420.453C997.7055,-418.6032 1004.0045,-416.7449 1010,-415 1056.6173,-401.4325 1110.2254,-386.381 1146.5298,-376.2695"/>
<polygon fill="#191970" stroke="#191970" points="1147.5945,-379.6063 1156.2904,-373.5538 1145.7182,-372.8624 1147.5945,-379.6063"/>
</g>
<!-- Node66&#45;&gt;Node2 -->
<g id="edge62" class="edge">
<title>Node66&#45;&gt;Node2</title>
<path fill="none" stroke="#191970" d="M1142.559,-355.4582C1031.9944,-332.8333 758.8756,-270.0933 712,-194 679.5677,-141.3526 662.9723,-99.4097 706,-55 731.1205,-29.0726 1883.4745,-12.8782 2107.492,-9.9721"/>
<polygon fill="#191970" stroke="#191970" points="2107.7882,-13.4687 2117.7423,-9.84 2107.698,-6.4693 2107.7882,-13.4687"/>
</g>
<!-- Node66&#45;&gt;Node4 -->
<g id="edge63" class="edge">
<title>Node66&#45;&gt;Node4</title>
<path fill="none" stroke="#191970" d="M1201.2129,-355.4007C1224.9716,-338.2451 1279.6808,-301.3745 1332,-285 1402.4899,-262.9386 1610.3154,-248.9781 1719.7692,-242.9481"/>
<polygon fill="#191970" stroke="#191970" points="1720.2513,-246.4272 1730.0465,-242.3893 1719.8712,-239.4375 1720.2513,-246.4272"/>
</g>
<!-- Node66&#45;&gt;Node28 -->
<g id="edge64" class="edge">
<title>Node66&#45;&gt;Node28</title>
<path fill="none" stroke="#191970" d="M1232.7136,-355.4937C1312.2517,-339.3744 1486.0886,-305.3771 1634,-285 2047.6125,-228.0185 2155.729,-253.4078 2569,-194 2576.2213,-192.9619 2583.7993,-191.7117 2591.2576,-190.386"/>
<polygon fill="#191970" stroke="#191970" points="2592.1037,-193.7893 2601.3092,-188.5443 2590.8421,-186.9039 2592.1037,-193.7893"/>
</g>
<!-- Node66&#45;&gt;Node44 -->
<g id="edge65" class="edge">
<title>Node66&#45;&gt;Node44</title>
<path fill="none" stroke="#191970" d="M1248.2699,-359.2016C1332.9629,-351.2894 1493.3725,-335.0372 1629,-314 1635.7797,-312.9484 1642.8848,-311.7197 1649.8978,-310.4305"/>
<polygon fill="#191970" stroke="#191970" points="1650.8815,-313.8067 1660.0584,-308.5119 1649.5826,-306.9282 1650.8815,-313.8067"/>
</g>
<!-- Node86&#45;&gt;Node2 -->
<g id="edge67" class="edge">
<title>Node86&#45;&gt;Node2</title>
<path fill="none" stroke="#191970" d="M412.7149,-285.1393C402.1956,-263.0376 384,-219.0862 384,-179.5 384,-179.5 384,-179.5 384,-119.5 384,-88.9131 383.1128,-72.7816 408,-55 443.805,-29.4178 1858.141,-12.6624 2107.6073,-9.9032"/>
<polygon fill="#191970" stroke="#191970" points="2107.6676,-13.4028 2117.6284,-9.7929 2107.5905,-6.4032 2107.6676,-13.4028"/>
</g>
<!-- Node86&#45;&gt;Node4 -->
<g id="edge68" class="edge">
<title>Node86&#45;&gt;Node4</title>
<path fill="none" stroke="#191970" d="M481.9995,-294.1769C519.1107,-291.1381 567.2293,-287.4565 610,-285 1031.2779,-260.8045 1537.9941,-246.0863 1719.8564,-241.2601"/>
<polygon fill="#191970" stroke="#191970" points="1720.1733,-244.753 1730.0774,-240.9902 1719.9885,-237.7554 1720.1733,-244.753"/>
</g>
<!-- Node99&#45;&gt;Node2 -->
<g id="edge70" class="edge">
<title>Node99&#45;&gt;Node2</title>
<path fill="none" stroke="#191970" d="M188.5756,-290.4289C198.0628,-270.7549 219,-222.4688 219,-179.5 219,-179.5 219,-179.5 219,-119.5 219,-80.6492 242.6397,-71.0945 278,-55 364.2304,-15.7516 1849.774,-10.2427 2107.1524,-9.5818"/>
<polygon fill="#191970" stroke="#191970" points="2107.4838,-13.0811 2117.4751,-9.5563 2107.4664,-6.0812 2107.4838,-13.0811"/>
</g>
<!-- Node99&#45;&gt;Node4 -->
<g id="edge71" class="edge">
<title>Node99&#45;&gt;Node4</title>
<path fill="none" stroke="#191970" d="M264.4997,-291.5155C291.3507,-289.0952 321.4431,-286.6449 349,-285 875.6732,-253.5624 1512.0884,-243.0408 1719.8138,-240.3108"/>
<polygon fill="#191970" stroke="#191970" points="1720.0113,-243.8086 1729.965,-240.1791 1719.9204,-236.8092 1720.0113,-243.8086"/>
</g>
<!-- Node106&#45;&gt;Node2 -->
<g id="edge73" class="edge">
<title>Node106&#45;&gt;Node2</title>
<path fill="none" stroke="#191970" d="M1767.0903,-425.3341C1787.6722,-407.2563 1836.7305,-367.2656 1886,-350 2046.517,-293.7499 2099.5491,-343.8327 2267,-314 2273.421,-312.856 2717.0208,-199.1676 2721,-194 2790.7962,-103.3585 2802.9031,-144.8735 2557,-55 2488.5594,-29.9861 2270.5678,-16.0738 2182.4713,-11.3526"/>
<polygon fill="#191970" stroke="#191970" points="2182.5606,-7.8526 2172.3905,-10.8223 2182.1928,-14.8429 2182.5606,-7.8526"/>
</g>
<!-- Node106&#45;&gt;Node4 -->
<g id="edge75" class="edge">
<title>Node106&#45;&gt;Node4</title>
<path fill="none" stroke="#191970" d="M1758.5005,-425.3563C1763.4128,-395.4218 1779.0848,-299.9208 1785.8458,-258.7212"/>
<polygon fill="#191970" stroke="#191970" points="1789.2999,-259.2857 1787.4655,-248.8508 1782.3922,-258.152 1789.2999,-259.2857"/>
</g>
<!-- Node106&#45;&gt;Node43 -->
<g id="edge77" class="edge">
<title>Node106&#45;&gt;Node43</title>
<path fill="none" stroke="#191970" d="M1788.914,-425.492C1833.3416,-412.952 1913.8999,-390.2137 1963.1128,-376.323"/>
<polygon fill="#191970" stroke="#191970" points="1964.1425,-379.6692 1972.8157,-373.5843 1962.241,-372.9324 1964.1425,-379.6692"/>
</g>
<!-- Node106&#45;&gt;Node66 -->
<g id="edge76" class="edge">
<title>Node106&#45;&gt;Node66</title>
<path fill="none" stroke="#191970" d="M1718.6691,-425.4519C1702.2186,-421.809 1682.7381,-417.8131 1665,-415 1521.2153,-392.197 1351.3166,-376.9546 1258.375,-369.6033"/>
<polygon fill="#191970" stroke="#191970" points="1258.4955,-366.1021 1248.2525,-368.8098 1257.9484,-373.0807 1258.4955,-366.1021"/>
</g>
<!-- Node88 -->
<g id="node35" class="node">
<title>Node88</title>
<g id="a_node35"><a xlink:title=" ">
<polygon fill="#ffffff" stroke="#bfbfbf" points="1895.3301,-355.5 1895.3301,-373.5 1924.6699,-373.5 1924.6699,-355.5 1895.3301,-355.5"/>
<text text-anchor="middle" x="1910" y="-361.5" font-family="FreeSans" font-size="10.00" fill="#000000">set</text>
</a>
</g>
</g>
<!-- Node106&#45;&gt;Node88 -->
<g id="edge74" class="edge">
<title>Node106&#45;&gt;Node88</title>
<path fill="none" stroke="#191970" d="M1778.1885,-425.3458C1802.9769,-414.5604 1845.1881,-395.9578 1881,-379 1882.6089,-378.2381 1884.2629,-377.4432 1885.9262,-376.6351"/>
<polygon fill="#191970" stroke="#191970" points="1887.8924,-379.5675 1895.3067,-371.9992 1884.791,-373.292 1887.8924,-379.5675"/>
</g>
<!-- Node109&#45;&gt;Node2 -->
<g id="edge79" class="edge">
<title>Node109&#45;&gt;Node2</title>
<path fill="none" stroke="#191970" d="M400.485,-355.489C384.2989,-347.0218 361.9182,-332.8367 349,-314 329.6738,-285.8193 330,-273.671 330,-239.5 330,-239.5 330,-239.5 330,-119.5 330,-81.2436 352.33,-71.1724 387,-55 467.6405,-17.384 1859.6757,-10.5447 2107.4379,-9.6237"/>
<polygon fill="#191970" stroke="#191970" points="2107.7338,-13.1227 2117.7211,-9.5864 2107.7084,-6.1227 2107.7338,-13.1227"/>
</g>
<!-- Node109&#45;&gt;Node4 -->
<g id="edge80" class="edge">
<title>Node109&#45;&gt;Node4</title>
<path fill="none" stroke="#191970" d="M439.583,-355.4395C478.3637,-338.005 568.1021,-300.1737 648,-285 752.8407,-265.0893 1488.4788,-246.4843 1719.6503,-241.0736"/>
<polygon fill="#191970" stroke="#191970" points="1720.0319,-244.5658 1729.9476,-240.8335 1719.8687,-237.5677 1720.0319,-244.5658"/>
</g>
<!-- Node109&#45;&gt;Node86 -->
<g id="edge81" class="edge">
<title>Node109&#45;&gt;Node86</title>
<path fill="none" stroke="#191970" d="M420,-355.462C420,-347.404 420,-335.2257 420,-324.2852"/>
<polygon fill="#191970" stroke="#191970" points="423.5001,-323.9558 420,-313.9559 416.5001,-323.9559 423.5001,-323.9558"/>
</g>
<!-- Node118&#45;&gt;Node2 -->
<g id="edge83" class="edge">
<title>Node118&#45;&gt;Node2</title>
<path fill="none" stroke="#191970" d="M1356.4334,-502.447C1173.3748,-496.4268 668.4168,-477.7379 642,-454 509.9141,-335.309 472.4158,-152.2469 621,-55 653.0729,-34.0086 1875.4697,-13.7433 2107.2711,-10.0848"/>
<polygon fill="#191970" stroke="#191970" points="2107.6081,-13.58 2117.5518,-9.9232 2107.498,-6.5809 2107.6081,-13.58"/>
</g>
<!-- Node118&#45;&gt;Node4 -->
<g id="edge85" class="edge">
<title>Node118&#45;&gt;Node4</title>
<path fill="none" stroke="#191970" d="M1420.2972,-490.1099C1417.5541,-459.5132 1415.9266,-387.7168 1455,-350 1527.5034,-280.0139 1645.2844,-254.3404 1719.8653,-244.9314"/>
<polygon fill="#191970" stroke="#191970" points="1720.5792,-248.371 1730.0931,-243.7087 1719.7483,-241.4205 1720.5792,-248.371"/>
</g>
<!-- Node118&#45;&gt;Node43 -->
<g id="edge88" class="edge">
<title>Node118&#45;&gt;Node43</title>
<path fill="none" stroke="#191970" d="M1487.6541,-501.4491C1597.0737,-495.6744 1811.6618,-481.2162 1882,-454 1925.0238,-437.3527 1966.6026,-401.7519 1988.6761,-380.815"/>
<polygon fill="#191970" stroke="#191970" points="1991.3977,-383.0514 1996.1433,-373.5788 1986.5263,-378.0245 1991.3977,-383.0514"/>
</g>
<!-- Node118&#45;&gt;Node44 -->
<g id="edge86" class="edge">
<title>Node118&#45;&gt;Node44</title>
<path fill="none" stroke="#191970" d="M1422.9179,-490.4721C1425.7865,-459.2841 1437.4361,-384.2508 1484,-350 1490.7549,-345.0313 1587.2149,-323.9589 1649.8419,-310.6543"/>
<polygon fill="#191970" stroke="#191970" points="1650.9084,-314.0061 1659.9654,-308.5086 1649.457,-307.1582 1650.9084,-314.0061"/>
</g>
<!-- Node118&#45;&gt;Node55 -->
<g id="edge87" class="edge">
<title>Node118&#45;&gt;Node55</title>
<path fill="none" stroke="#191970" d="M1433.3071,-490.1692C1449.6801,-470.3742 1481.8965,-434.864 1517,-415 1609.8228,-362.4745 1643.3449,-370.5507 1748,-350 1875.0782,-325.0461 2025.2617,-311.1399 2114.0764,-304.4992"/>
<polygon fill="#191970" stroke="#191970" points="2114.3508,-307.9886 2124.0667,-303.7636 2113.8367,-301.0075 2114.3508,-307.9886"/>
</g>
<!-- Node118&#45;&gt;Node88 -->
<g id="edge84" class="edge">
<title>Node118&#45;&gt;Node88</title>
<path fill="none" stroke="#191970" d="M1487.4239,-503.3001C1591.6601,-500.3173 1789.719,-489.9499 1849,-454 1876.0966,-437.5677 1893.953,-403.9837 1902.9921,-382.9516"/>
<polygon fill="#191970" stroke="#191970" points="1906.3064,-384.0919 1906.8205,-373.5095 1899.8194,-381.4616 1906.3064,-384.0919"/>
</g>
<!-- Node118&#45;&gt;Node119 -->
<g id="edge89" class="edge">
<title>Node118&#45;&gt;Node119</title>
<path fill="none" stroke="#191970" d="M1456.1997,-490.3345C1482.6292,-479.3873 1519.3808,-464.1648 1547.8352,-452.3789"/>
<polygon fill="#191970" stroke="#191970" points="1549.2405,-455.5853 1557.14,-448.5249 1546.5618,-449.1181 1549.2405,-455.5853"/>
</g>
<!-- Node119&#45;&gt;Node2 -->
<g id="edge90" class="edge">
<title>Node119&#45;&gt;Node2</title>
<path fill="none" stroke="#191970" d="M1536.4971,-420.4665C1398.0758,-384.667 1035.6242,-289.8943 918,-249 822.8607,-215.923 688.4921,-197.1466 739,-110 763.6574,-67.456 787.7082,-68.4707 835,-55 960.1118,-19.3629 1906.8459,-11.0878 2107.645,-9.7266"/>
<polygon fill="#191970" stroke="#191970" points="2107.7215,-13.2263 2117.698,-9.6601 2107.6751,-6.2265 2107.7215,-13.2263"/>
</g>
<!-- Node119&#45;&gt;Node4 -->
<g id="edge92" class="edge">
<title>Node119&#45;&gt;Node4</title>
<path fill="none" stroke="#191970" d="M1590.8208,-420.3489C1591.2428,-390.9189 1596.4819,-322.7235 1634,-285 1647.752,-271.1727 1692.3062,-258.9408 1730.1376,-250.6516"/>
<polygon fill="#191970" stroke="#191970" points="1731.0434,-254.0371 1740.0917,-248.5255 1729.5812,-247.1915 1731.0434,-254.0371"/>
</g>
<!-- Node119&#45;&gt;Node43 -->
<g id="edge95" class="edge">
<title>Node119&#45;&gt;Node43</title>
<path fill="none" stroke="#191970" d="M1640.959,-420.4324C1648.9609,-418.4405 1657.1801,-416.5473 1665,-415 1783.3273,-391.5865 1815.0616,-399.0796 1934,-379 1940.1871,-377.9555 1946.6584,-376.7676 1953.0682,-375.5318"/>
<polygon fill="#191970" stroke="#191970" points="1953.9071,-378.9338 1963.0405,-373.5642 1952.5521,-372.0662 1953.9071,-378.9338"/>
</g>
<!-- Node119&#45;&gt;Node44 -->
<g id="edge93" class="edge">
<title>Node119&#45;&gt;Node44</title>
<path fill="none" stroke="#191970" d="M1602.7743,-420.3078C1623.5525,-395.2626 1666.6329,-343.3354 1688.9365,-316.4515"/>
<polygon fill="#191970" stroke="#191970" points="1691.7019,-318.5998 1695.3933,-308.6688 1686.3145,-314.1303 1691.7019,-318.5998"/>
</g>
<!-- Node119&#45;&gt;Node55 -->
<g id="edge94" class="edge">
<title>Node119&#45;&gt;Node55</title>
<path fill="none" stroke="#191970" d="M1628.2019,-420.3645C1678.5067,-401.7465 1771.3344,-369.1343 1853,-350 1941.4643,-329.2728 2045.0405,-315.2726 2113.9926,-307.3682"/>
<polygon fill="#191970" stroke="#191970" points="2114.7877,-310.8007 2124.331,-306.199 2114.001,-303.845 2114.7877,-310.8007"/>
</g>
<!-- Node119&#45;&gt;Node88 -->
<g id="edge91" class="edge">
<title>Node119&#45;&gt;Node88</title>
<path fill="none" stroke="#191970" d="M1642.6575,-420.4784C1650.1364,-418.5676 1657.7535,-416.6861 1665,-415 1743.613,-396.7089 1763.9993,-395.5366 1843,-379 1857.0149,-376.0664 1872.6551,-372.6875 1885.2974,-369.9299"/>
<polygon fill="#191970" stroke="#191970" points="1886.0894,-373.3395 1895.1103,-367.783 1884.5933,-366.5012 1886.0894,-373.3395"/>
</g>
<!-- Node122&#45;&gt;Node2 -->
<g id="edge98" class="edge">
<title>Node122&#45;&gt;Node2</title>
<path fill="none" stroke="#191970" d="M536.6641,-555.8987C448.1945,-533.873 292,-487.4836 292,-434.5 292,-434.5 292,-434.5 292,-119.5 292,-81.5364 313.6616,-71.1897 348,-55 430.3974,-16.1517 1857.7395,-10.3173 2107.7721,-9.5923"/>
<polygon fill="#191970" stroke="#191970" points="2107.8199,-13.0922 2117.81,-9.5641 2107.8002,-6.0923 2107.8199,-13.0922"/>
</g>
<!-- Node122&#45;&gt;Node4 -->
<g id="edge99" class="edge">
<title>Node122&#45;&gt;Node4</title>
<path fill="none" stroke="#191970" d="M597.8632,-555.3678C602.0836,-527.0367 614.246,-461.9895 642,-415 683.2361,-345.1845 695.9263,-317.9804 770,-285 813.3204,-265.7122 1497.7026,-246.8432 1719.9109,-241.1986"/>
<polygon fill="#191970" stroke="#191970" points="1720.2303,-244.6917 1730.1385,-240.9399 1720.0532,-237.694 1720.2303,-244.6917"/>
</g>
<!-- Node122&#45;&gt;Node32 -->
<g id="edge100" class="edge">
<title>Node122&#45;&gt;Node32</title>
<path fill="none" stroke="#191970" d="M596.1014,-555.3406C596.3984,-539.3742 597.4455,-512.6799 601,-490 606.3243,-456.0284 606.4377,-446.5988 620,-415 633.4714,-383.6131 640.9331,-377.6394 661,-350 683.0655,-319.6079 686.2242,-309.1355 715,-285 763.966,-243.9301 831.1491,-210.224 869.6254,-192.6612"/>
<polygon fill="#191970" stroke="#191970" points="871.0784,-195.8455 878.7605,-188.5493 868.2051,-189.4624 871.0784,-195.8455"/>
</g>
<!-- Node122&#45;&gt;Node118 -->
<g id="edge101" class="edge">
<title>Node122&#45;&gt;Node118</title>
<path fill="none" stroke="#191970" d="M655.4039,-564.8254C802.4516,-553.2538 1183.2745,-523.2859 1346.2195,-510.4634"/>
<polygon fill="#191970" stroke="#191970" points="1346.938,-513.9177 1356.6325,-509.6439 1346.3887,-506.9393 1346.938,-513.9177"/>
</g>
<!-- Node152&#45;&gt;Node2 -->
<g id="edge103" class="edge">
<title>Node152&#45;&gt;Node2</title>
<path fill="none" stroke="#191970" d="M721.1664,-415.4052C710.7493,-405.2157 698.3951,-392.1004 689,-379 669.9999,-352.5064 665.2158,-344.9605 655,-314 618.9035,-204.6046 552.2071,-123.2627 645,-55 675.3748,-32.655 1878.2122,-13.5044 2107.4688,-10.0533"/>
<polygon fill="#191970" stroke="#191970" points="2107.6949,-13.5504 2117.6414,-9.9009 2107.59,-6.5512 2107.6949,-13.5504"/>
</g>
<!-- Node152&#45;&gt;Node4 -->
<g id="edge105" class="edge">
<title>Node152&#45;&gt;Node4</title>
<path fill="none" stroke="#191970" d="M743.0601,-415.4511C746.0246,-382.5639 757.2786,-315.7153 800,-285 837.2849,-258.1934 1501.6897,-244.4325 1720.07,-240.6192"/>
<polygon fill="#191970" stroke="#191970" points="1720.1897,-244.1177 1730.1276,-240.4451 1720.0685,-237.1188 1720.1897,-244.1177"/>
</g>
<!-- Node152&#45;&gt;Node13 -->
<g id="edge104" class="edge">
<title>Node152&#45;&gt;Node13</title>
<path fill="none" stroke="#191970" d="M729.7425,-415.2924C695.846,-361.0396 605.3255,-207.8102 636,-165 648.0798,-148.1411 702.5095,-133.7291 738.1748,-125.8693"/>
<polygon fill="#191970" stroke="#191970" points="739.0842,-129.254 748.1294,-123.7372 737.6181,-122.4092 739.0842,-129.254"/>
</g>
<!-- Node152&#45;&gt;Node44 -->
<g id="edge106" class="edge">
<title>Node152&#45;&gt;Node44</title>
<path fill="none" stroke="#191970" d="M814.114,-415.4186C889.9634,-396.0581 1013.0642,-366.6399 1121,-350 1304.0425,-321.7814 1522.0846,-308.1249 1632.0586,-302.614"/>
<polygon fill="#191970" stroke="#191970" points="1632.5437,-306.0944 1642.3591,-302.1059 1632.1987,-299.1029 1632.5437,-306.0944"/>
</g>
<!-- Node152&#45;&gt;Node66 -->
<g id="edge107" class="edge">
<title>Node152&#45;&gt;Node66</title>
<path fill="none" stroke="#191970" d="M833.5358,-420.1655C918.9697,-406.7866 1044.484,-387.1311 1121.2491,-375.1098"/>
<polygon fill="#191970" stroke="#191970" points="1121.9479,-378.5431 1131.286,-373.538 1120.8649,-371.6274 1121.9479,-378.5431"/>
</g>
<!-- Node157&#45;&gt;Node2 -->
<g id="edge109" class="edge">
<title>Node157&#45;&gt;Node2</title>
<path fill="none" stroke="#191970" d="M1052.5669,-415.3616C912.2213,-358.7174 531.3261,-187.5844 688,-55 715.9169,-31.3755 1881.9234,-13.3095 2107.4535,-10.0326"/>
<polygon fill="#191970" stroke="#191970" points="2107.82,-13.5278 2117.7683,-9.8836 2107.7187,-6.5285 2107.82,-13.5278"/>
</g>
<!-- Node157&#45;&gt;Node4 -->
<g id="edge111" class="edge">
<title>Node157&#45;&gt;Node4</title>
<path fill="none" stroke="#191970" d="M1101.6306,-415.2968C1102.2594,-396.669 1105.9419,-368.5699 1121,-350 1164.7164,-296.0884 1195.8846,-302.6948 1263,-285 1347.3763,-262.7543 1597.2011,-248.4304 1719.7003,-242.5499"/>
<polygon fill="#191970" stroke="#191970" points="1719.9005,-246.0444 1729.7232,-242.074 1719.5684,-239.0523 1719.9005,-246.0444"/>
</g>
<!-- Node157&#45;&gt;Node13 -->
<g id="edge110" class="edge">
<title>Node157&#45;&gt;Node13</title>
<path fill="none" stroke="#191970" d="M1070.2787,-415.4264C1018.9809,-383.8955 915.7223,-317.5458 838,-249 813.2234,-227.1487 803.4728,-223.1882 788,-194 778.7725,-176.5931 774.1976,-154.4003 771.9802,-138.7805"/>
<polygon fill="#191970" stroke="#191970" points="775.4391,-138.2313 770.7494,-128.731 768.4911,-139.0823 775.4391,-138.2313"/>
</g>
<!-- Node157&#45;&gt;Node44 -->
<g id="edge112" class="edge">
<title>Node157&#45;&gt;Node44</title>
<path fill="none" stroke="#191970" d="M1163.3445,-415.4552C1224.7803,-396.882 1322.2613,-368.764 1408,-350 1505.216,-328.7242 1531.0465,-331.5703 1629,-314 1635.1731,-312.8927 1641.6273,-311.6921 1648.0411,-310.4718"/>
<polygon fill="#191970" stroke="#191970" points="1648.8815,-313.8744 1658.0405,-308.5486 1647.5594,-307.0003 1648.8815,-313.8744"/>
</g>
<!-- Node157&#45;&gt;Node66 -->
<g id="edge113" class="edge">
<title>Node157&#45;&gt;Node66</title>
<path fill="none" stroke="#191970" d="M1125.7731,-415.3722C1139.64,-404.2149 1156.9001,-390.3275 1169.8814,-379.8828"/>
<polygon fill="#191970" stroke="#191970" points="1172.1183,-382.5752 1177.7155,-373.5795 1167.7302,-377.1214 1172.1183,-382.5752"/>
</g>
<!-- Node81&#45;&gt;Node2 -->
<g id="edge115" class="edge">
<title>Node81&#45;&gt;Node2</title>
<path fill="none" stroke="#191970" d="M3041.6422,-355.4132C3093.7722,-333.6589 3214,-273.3173 3214,-179.5 3214,-179.5 3214,-179.5 3214,-119.5 3214,-86.0004 3203.8092,-72.0955 3175,-55 3131.5146,-29.1956 2362.0827,-13.4915 2182.3326,-10.1651"/>
<polygon fill="#191970" stroke="#191970" points="2182.3655,-6.6652 2172.3029,-9.981 2182.237,-13.664 2182.3655,-6.6652"/>
</g>
<!-- Node81&#45;&gt;Node4 -->
<g id="edge116" class="edge">
<title>Node81&#45;&gt;Node4</title>
<path fill="none" stroke="#191970" d="M2956.7071,-355.4698C2891.4915,-345.7394 2785.3379,-329.5507 2694,-314 2624.0484,-302.0904 2607.4333,-293.6146 2537,-285 2288.3615,-254.5893 1990.6197,-244.1852 1858.2761,-240.8956"/>
<polygon fill="#191970" stroke="#191970" points="1857.9742,-237.3873 1847.8922,-240.6438 1857.8044,-244.3853 1857.9742,-237.3873"/>
</g>
<!-- Node69 -->
<g id="node43" class="node">
<title>Node69</title>
<g id="a_node43"><a xlink:href="CPredicate_8h_source.html" target="_top" xlink:title=" ">
<polygon fill="#ffffff" stroke="#ff0000" points="2978.6948,-290.5 2978.6948,-308.5 3105.3052,-308.5 3105.3052,-290.5 2978.6948,-290.5"/>
<text text-anchor="middle" x="3042" y="-296.5" font-family="FreeSans" font-size="10.00" fill="#000000">DGtal/base/CPredicate.h</text>
</a>
</g>
</g>
<!-- Node81&#45;&gt;Node69 -->
<g id="edge117" class="edge">
<title>Node81&#45;&gt;Node69</title>
<path fill="none" stroke="#191970" d="M3021.3371,-355.462C3024.8437,-345.9651 3030.4634,-330.7449 3034.9576,-318.5732"/>
<polygon fill="#191970" stroke="#191970" points="3038.3554,-319.4754 3038.5358,-308.8821 3031.7887,-317.0508 3038.3554,-319.4754"/>
</g>
<!-- Node69&#45;&gt;Node2 -->
<g id="edge118" class="edge">
<title>Node69&#45;&gt;Node2</title>
<path fill="none" stroke="#191970" d="M3066.8903,-290.3902C3105.6421,-274.4135 3176,-237.4294 3176,-179.5 3176,-179.5 3176,-179.5 3176,-119.5 3176,-88.9131 3176.7175,-73.0167 3152,-55 3112.1117,-25.9251 2360.2205,-12.7558 2182.4453,-10.0412"/>
<polygon fill="#191970" stroke="#191970" points="2182.3317,-6.5392 2172.28,-9.8879 2182.226,-13.5384 2182.3317,-6.5392"/>
</g>
<!-- Node69&#45;&gt;Node4 -->
<g id="edge119" class="edge">
<title>Node69&#45;&gt;Node4</title>
<path fill="none" stroke="#191970" d="M3000.2088,-290.4701C2988.8382,-288.3311 2976.4896,-286.2969 2965,-285 2748.4042,-260.5512 2075.9561,-245.25 1857.9722,-240.8314"/>
<polygon fill="#191970" stroke="#191970" points="1858.0077,-237.3315 1847.9391,-240.6292 1857.8666,-244.3301 1858.0077,-237.3315"/>
</g>
<!-- Node159&#45;&gt;Node2 -->
<g id="edge121" class="edge">
<title>Node159&#45;&gt;Node2</title>
<path fill="none" stroke="#191970" d="M3265.0601,-356.0194C3326.5404,-347.8644 3406.9883,-333.8402 3433,-314 3462.5539,-291.4579 3471,-276.6696 3471,-239.5 3471,-239.5 3471,-239.5 3471,-119.5 3471,-25.2566 3361.8079,-71.3869 3269,-55 3053.4129,-16.9343 2353.3888,-10.645 2182.7606,-9.6698"/>
<polygon fill="#191970" stroke="#191970" points="2182.5419,-6.1686 2172.523,-9.6141 2182.5038,-13.1685 2182.5419,-6.1686"/>
</g>
<!-- Node159&#45;&gt;Node4 -->
<g id="edge122" class="edge">
<title>Node159&#45;&gt;Node4</title>
<path fill="none" stroke="#191970" d="M3126.1355,-350.3976C3082.3117,-340.4703 3022.5191,-326.7336 2970,-314 2919.1917,-301.6812 2907.7252,-292.5986 2856,-285 2662.4113,-256.5612 2062.7577,-244.0878 1858.1972,-240.585"/>
<polygon fill="#191970" stroke="#191970" points="1858.2367,-237.0852 1848.1788,-240.4152 1858.118,-244.0842 1858.2367,-237.0852"/>
</g>
<!-- Node159&#45;&gt;Node7 -->
<g id="edge123" class="edge">
<title>Node159&#45;&gt;Node7</title>
<path fill="none" stroke="#191970" d="M3264.8782,-357.5405C3322.6891,-350.4828 3395.4245,-337.2068 3414,-314 3449.0169,-270.2526 3375.0771,-218.3097 3333.1938,-193.7377"/>
<polygon fill="#191970" stroke="#191970" points="3334.7194,-190.5782 3324.302,-188.6476 3331.2418,-196.6533 3334.7194,-190.5782"/>
</g>
<!-- Node159&#45;&gt;Node28 -->
<g id="edge124" class="edge">
<title>Node159&#45;&gt;Node28</title>
<path fill="none" stroke="#191970" d="M3177.2814,-350.2519C3160.1879,-329.8031 3128.8411,-293.6385 3114,-285 3046.9597,-245.978 2829.9914,-207.9995 2716.1781,-190.1241"/>
<polygon fill="#191970" stroke="#191970" points="2716.582,-186.6449 2706.1619,-188.5611 2715.5026,-193.5612 2716.582,-186.6449"/>
</g>
<!-- Node159&#45;&gt;Node40 -->
<g id="edge125" class="edge">
<title>Node159&#45;&gt;Node40</title>
<path fill="none" stroke="#191970" d="M3183.9127,-350.346C3177.3243,-333.4208 3164.5675,-304.8891 3147,-285 3110.9671,-244.2052 3056.1025,-211.0221 3023.3734,-193.3614"/>
<polygon fill="#191970" stroke="#191970" points="3024.8429,-190.1792 3014.3675,-188.5928 3021.5672,-196.3655 3024.8429,-190.1792"/>
</g>
<!-- Node160 -->
<g id="node45" class="node">
<title>Node160</title>
<g id="a_node45"><a xlink:href="CIncrementalPrimitiveComputer_8h_source.html" target="_top" xlink:title=" ">
<polygon fill="#ffffff" stroke="#ff0000" points="3236.8599,-285.5 3236.8599,-313.5 3405.1401,-313.5 3405.1401,-285.5 3236.8599,-285.5"/>
<text text-anchor="start" x="3244.8599" y="-301.5" font-family="FreeSans" font-size="10.00" fill="#000000">DGtal/geometry/surfaces</text>
<text text-anchor="middle" x="3321" y="-291.5" font-family="FreeSans" font-size="10.00" fill="#000000">/CIncrementalPrimitiveComputer.h</text>
</a>
</g>
</g>
<!-- Node159&#45;&gt;Node160 -->
<g id="edge126" class="edge">
<title>Node159&#45;&gt;Node160</title>
<path fill="none" stroke="#191970" d="M3217.642,-350.396C3236.8423,-340.9413 3262.332,-328.3896 3283.1936,-318.1168"/>
<polygon fill="#191970" stroke="#191970" points="3284.9888,-321.1342 3292.4139,-313.5765 3281.8964,-314.8543 3284.9888,-321.1342"/>
</g>
<!-- Node160&#45;&gt;Node2 -->
<g id="edge127" class="edge">
<title>Node160&#45;&gt;Node2</title>
<path fill="none" stroke="#191970" d="M3336.0931,-285.1262C3360.2917,-260.2612 3402.9297,-207.7755 3381,-165 3342.7923,-90.4729 3307.1589,-82.3495 3228,-55 3127.609,-20.3148 2362.0097,-11.42 2182.5553,-9.8027"/>
<polygon fill="#191970" stroke="#191970" points="2182.3323,-6.3007 2172.3019,-9.7125 2182.2707,-13.3004 2182.3323,-6.3007"/>
</g>
<!-- Node160&#45;&gt;Node4 -->
<g id="edge128" class="edge">
<title>Node160&#45;&gt;Node4</title>
<path fill="none" stroke="#191970" d="M3236.6934,-292.9118C3199.151,-290.1542 3154.3838,-287.1071 3114,-285 2633.8562,-259.9474 2055.088,-245.485 1858.3243,-241.0104"/>
<polygon fill="#191970" stroke="#191970" points="1858.2088,-237.5069 1848.1321,-240.7798 1858.0504,-244.5052 1858.2088,-237.5069"/>
</g>
<!-- Node160&#45;&gt;Node7 -->
<g id="edge129" class="edge">
<title>Node160&#45;&gt;Node7</title>
<path fill="none" stroke="#191970" d="M3319.339,-285.2632C3316.8254,-263.7178 3312.0504,-222.7893 3309.2344,-198.6524"/>
<polygon fill="#191970" stroke="#191970" points="3312.696,-198.1188 3308.0607,-188.5918 3305.7432,-198.93 3312.696,-198.1188"/>
</g>
<!-- Node160&#45;&gt;Node28 -->
<g id="edge130" class="edge">
<title>Node160&#45;&gt;Node28</title>
<path fill="none" stroke="#191970" d="M3271.2729,-285.4769C3215.0434,-270.0446 3120.5601,-245.3911 3038,-230 2929.2715,-209.7305 2802.0988,-195.0019 2722.5376,-186.8496"/>
<polygon fill="#191970" stroke="#191970" points="2722.4175,-183.3194 2712.1151,-185.7913 2721.7104,-190.2836 2722.4175,-183.3194"/>
</g>
<!-- Node162&#45;&gt;Node2 -->
<g id="edge132" class="edge">
<title>Node162&#45;&gt;Node2</title>
<path fill="none" stroke="#191970" d="M2501.2577,-562.9439C2590.9431,-555.7118 2714.7269,-541.9484 2758,-519 2881.9797,-453.2516 2865.086,-378.2034 2970,-285 3028.2973,-233.2099 3118.3085,-240.2885 3098,-165 3078.6399,-93.2274 3043.1873,-76.4123 2972,-55 2895.8552,-32.0966 2333.8995,-14.8038 2182.4878,-10.5245"/>
<polygon fill="#191970" stroke="#191970" points="2182.4022,-7.0209 2172.308,-10.239 2182.2059,-14.0181 2182.4022,-7.0209"/>
</g>
<!-- Node162&#45;&gt;Node4 -->
<g id="edge134" class="edge">
<title>Node162&#45;&gt;Node4</title>
<path fill="none" stroke="#191970" d="M2418.3988,-555.4803C2428.5442,-546.2547 2440.5734,-533.2744 2447,-519 2466.0187,-476.7571 2471.4784,-457.9031 2454,-415 2423.5256,-340.1965 2400.0545,-319.457 2327,-285 2285.5834,-265.4654 1993.9275,-249.2423 1858.1877,-242.6571"/>
<polygon fill="#191970" stroke="#191970" points="1858.0601,-239.147 1847.9034,-242.1622 1857.7235,-246.1389 1858.0601,-239.147"/>
</g>
<!-- Node162&#45;&gt;Node43 -->
<g id="edge140" class="edge">
<title>Node162&#45;&gt;Node43</title>
<path fill="none" stroke="#191970" d="M2305.7518,-555.4571C2234.4052,-540.7019 2138.1047,-511.2875 2072,-454 2047.7822,-433.0124 2026.9338,-401.8688 2015.1822,-382.399"/>
<polygon fill="#191970" stroke="#191970" points="2018.1165,-380.484 2010.0324,-373.6357 2012.0814,-384.0306 2018.1165,-380.484"/>
</g>
<!-- Node162&#45;&gt;Node44 -->
<g id="edge138" class="edge">
<title>Node162&#45;&gt;Node44</title>
<path fill="none" stroke="#191970" d="M2501.3463,-558.9748C2583.0795,-549.3642 2687.0221,-534.3537 2700,-519 2708.3204,-509.1565 2707.7795,-500.2763 2700,-490 2587.6872,-341.6411 1982.1917,-308.4164 1773.6383,-301.3303"/>
<polygon fill="#191970" stroke="#191970" points="1773.5296,-297.8249 1763.4197,-300.9934 1773.2988,-304.8211 1773.5296,-297.8249"/>
</g>
<!-- Node162&#45;&gt;Node55 -->
<g id="edge141" class="edge">
<title>Node162&#45;&gt;Node55</title>
<path fill="none" stroke="#191970" d="M2410.5947,-555.0654C2428.4687,-526.1905 2462.5708,-460.2139 2434,-415 2395.4342,-353.9688 2314.8609,-324.5315 2257.0612,-310.7851"/>
<polygon fill="#191970" stroke="#191970" points="2257.7988,-307.3635 2247.271,-308.5539 2256.2432,-314.1885 2257.7988,-307.3635"/>
</g>
<!-- Node162&#45;&gt;Node66 -->
<g id="edge139" class="edge">
<title>Node162&#45;&gt;Node66</title>
<path fill="none" stroke="#191970" d="M2300.722,-568.714C2054.4821,-566.2142 1433.8345,-556.2537 1348,-519 1279.5804,-489.3047 1223.6376,-416.0394 1200.4863,-382.1803"/>
<polygon fill="#191970" stroke="#191970" points="1203.3122,-380.1098 1194.8428,-373.7442 1197.494,-384.002 1203.3122,-380.1098"/>
</g>
<!-- Node162&#45;&gt;Node88 -->
<g id="edge133" class="edge">
<title>Node162&#45;&gt;Node88</title>
<path fill="none" stroke="#191970" d="M2300.7718,-562.0516C2211.1906,-550.9246 2080.3456,-523.179 1989,-454 1961.4721,-433.1522 1936.3132,-401.5305 1922.1001,-381.9898"/>
<polygon fill="#191970" stroke="#191970" points="1924.8545,-379.8238 1916.2049,-373.7055 1919.1512,-383.8824 1924.8545,-379.8238"/>
</g>
<!-- Node163 -->
<g id="node47" class="node">
<title>Node163</title>
<g id="a_node47"><a xlink:href="IteratorAdapter_8h_source.html" target="_top" xlink:title=" ">
<polygon fill="#ffffff" stroke="#ff0000" points="2703.3501,-290.5 2703.3501,-308.5 2846.6499,-308.5 2846.6499,-290.5 2703.3501,-290.5"/>
<text text-anchor="middle" x="2775" y="-296.5" font-family="FreeSans" font-size="10.00" fill="#000000">DGtal/base/IteratorAdapter.h</text>
</a>
</g>
</g>
<!-- Node162&#45;&gt;Node163 -->
<g id="edge135" class="edge">
<title>Node162&#45;&gt;Node163</title>
<path fill="none" stroke="#191970" d="M2501.1153,-560.121C2592.6655,-550.6113 2716.3298,-535.0467 2733,-519 2788.9382,-465.1538 2783.0866,-361.3624 2777.8663,-318.6145"/>
<polygon fill="#191970" stroke="#191970" points="2781.3337,-318.1375 2776.5265,-308.696 2774.3967,-319.0746 2781.3337,-318.1375"/>
</g>
<!-- Node165 -->
<g id="node48" class="node">
<title>Node165</title>
<g id="a_node48"><a xlink:href="IntegerComputer_8h_source.html" target="_top" xlink:title=" ">
<polygon fill="#ffffff" stroke="#ff0000" points="2303.2021,-420.5 2303.2021,-448.5 2424.7979,-448.5 2424.7979,-420.5 2303.2021,-420.5"/>
<text text-anchor="start" x="2311.2021" y="-436.5" font-family="FreeSans" font-size="10.00" fill="#000000">DGtal/arithmetic/Integer</text>
<text text-anchor="middle" x="2364" y="-426.5" font-family="FreeSans" font-size="10.00" fill="#000000">Computer.h</text>
</a>
</g>
</g>
<!-- Node162&#45;&gt;Node165 -->
<g id="edge142" class="edge">
<title>Node162&#45;&gt;Node165</title>
<path fill="none" stroke="#191970" d="M2397.1103,-555.3078C2390.7927,-532.2571 2378.2341,-486.4351 2370.5296,-458.3242"/>
<polygon fill="#191970" stroke="#191970" points="2373.8565,-457.2212 2367.8376,-448.5021 2367.1054,-459.0716 2373.8565,-457.2212"/>
</g>
<!-- Node167 -->
<g id="node49" class="node">
<title>Node167</title>
<g id="a_node49"><a xlink:href="COBANaivePlaneComputer_8h_source.html" target="_top" xlink:title=" ">
<polygon fill="#ffffff" stroke="#ff0000" points="2200.02,-490.5 2200.02,-518.5 2349.98,-518.5 2349.98,-490.5 2200.02,-490.5"/>
<text text-anchor="start" x="2208.02" y="-506.5" font-family="FreeSans" font-size="10.00" fill="#000000">DGtal/geometry/surfaces</text>
<text text-anchor="middle" x="2275" y="-496.5" font-family="FreeSans" font-size="10.00" fill="#000000">/COBANaivePlaneComputer.h</text>
</a>
</g>
</g>
<!-- Node162&#45;&gt;Node167 -->
<g id="edge147" class="edge">
<title>Node162&#45;&gt;Node167</title>
<path fill="none" stroke="#191970" d="M2373.6599,-555.396C2355.4149,-545.9839 2331.2204,-533.5026 2311.3573,-523.2557"/>
<polygon fill="#191970" stroke="#191970" points="2312.7786,-520.0507 2302.2868,-518.5765 2309.5693,-526.2717 2312.7786,-520.0507"/>
</g>
<!-- Node175 -->
<g id="node50" class="node">
<title>Node175</title>
<g id="a_node50"><a xlink:href="COBAGenericStandardPlaneComputer_8ih_source.html" target="_top" xlink:title=" ">
<polygon fill="#ffffff" stroke="#000000" points="2488.8921,-490.5 2488.8921,-518.5 2691.1079,-518.5 2691.1079,-490.5 2488.8921,-490.5"/>
<text text-anchor="start" x="2496.8921" y="-506.5" font-family="FreeSans" font-size="10.00" fill="#000000">DGtal/geometry/surfaces</text>
<text text-anchor="middle" x="2590" y="-496.5" font-family="FreeSans" font-size="10.00" fill="#000000">/COBAGenericStandardPlaneComputer.ih</text>
</a>
</g>
</g>
<!-- Node162&#45;&gt;Node175 -->
<g id="edge156" class="edge">
<title>Node162&#45;&gt;Node175</title>
<path fill="none" stroke="#191970" d="M2442.0102,-555.396C2470.616,-545.558 2508.972,-532.3668 2539.4673,-521.879"/>
<polygon fill="#191970" stroke="#191970" points="2540.7518,-525.1385 2549.0699,-518.5765 2538.4752,-518.519 2540.7518,-525.1385"/>
</g>
<!-- Node163&#45;&gt;Node2 -->
<g id="edge136" class="edge">
<title>Node163&#45;&gt;Node2</title>
<path fill="none" stroke="#191970" d="M2820.5738,-290.4884C2898.0751,-274.1362 3050.1714,-237.2382 3081,-194 3088.4825,-183.5055 3086.8076,-176.5063 3081,-165 3043.9103,-91.5163 3009.4117,-82.9811 2932,-55 2861.1327,-29.3844 2329.7202,-14.1675 2182.6336,-10.416"/>
<polygon fill="#191970" stroke="#191970" points="2182.4115,-6.9094 2172.3263,-10.1559 2182.2348,-13.9072 2182.4115,-6.9094"/>
</g>
<!-- Node163&#45;&gt;Node4 -->
<g id="edge137" class="edge">
<title>Node163&#45;&gt;Node4</title>
<path fill="none" stroke="#191970" d="M2703.2775,-294.0463C2665.1801,-291.2136 2617.556,-287.7743 2575,-285 2310.4613,-267.7546 1995.6165,-250.5241 1858.5267,-243.1843"/>
<polygon fill="#191970" stroke="#191970" points="1858.3509,-239.6699 1848.1783,-242.6309 1857.9771,-246.66 1858.3509,-239.6699"/>
</g>
<!-- Node165&#45;&gt;Node2 -->
<g id="edge143" class="edge">
<title>Node165&#45;&gt;Node2</title>
<path fill="none" stroke="#191970" d="M2387.7278,-420.412C2417.1906,-403.1083 2469.1672,-373.1995 2515,-350 2527.0893,-343.8807 2726.1327,-257.0931 2737,-249 2809.3846,-195.094 2863.7007,-115.798 2797,-55 2774.1638,-34.1847 2318.0393,-15.8467 2182.6011,-10.8434"/>
<polygon fill="#191970" stroke="#191970" points="2182.4397,-7.3352 2172.3182,-10.4665 2182.1832,-14.3305 2182.4397,-7.3352"/>
</g>
<!-- Node165&#45;&gt;Node4 -->
<g id="edge144" class="edge">
<title>Node165&#45;&gt;Node4</title>
<path fill="none" stroke="#191970" d="M2362.6583,-420.4722C2358.9252,-390.028 2345.4789,-317.9895 2300,-285 2265.0341,-259.6364 1989.6165,-246.5851 1858.2544,-241.7508"/>
<polygon fill="#191970" stroke="#191970" points="1858.0268,-238.2403 1847.9066,-241.376 1857.7734,-245.2358 1858.0268,-238.2403"/>
</g>
<!-- Node165&#45;&gt;Node43 -->
<g id="edge146" class="edge">
<title>Node165&#45;&gt;Node43</title>
<path fill="none" stroke="#191970" d="M2303.1005,-422.6255C2235.5001,-409.4443 2127.2787,-388.3426 2061.5034,-375.5174"/>
<polygon fill="#191970" stroke="#191970" points="2061.809,-372.0111 2051.324,-373.5325 2060.4693,-378.8817 2061.809,-372.0111"/>
</g>
<!-- Node165&#45;&gt;Node44 -->
<g id="edge145" class="edge">
<title>Node165&#45;&gt;Node44</title>
<path fill="none" stroke="#191970" d="M2321.1645,-420.4296C2287.2007,-409.2539 2238.5398,-393.1989 2196,-379 2157.7382,-366.229 2149.326,-358.9735 2110,-350 1993.6687,-323.4553 1855.2326,-310.0233 1773.4832,-303.9115"/>
<polygon fill="#191970" stroke="#191970" points="1773.54,-300.4064 1763.3112,-303.1671 1773.029,-307.3878 1773.54,-300.4064"/>
</g>
<!-- Node167&#45;&gt;Node2 -->
<g id="edge148" class="edge">
<title>Node167&#45;&gt;Node2</title>
<path fill="none" stroke="#191970" d="M2331.959,-490.4228C2362.9085,-481.7884 2401.4057,-469.4227 2434,-454 2558.5793,-395.0528 2574.9914,-354.5105 2694,-285 2723.8681,-267.5546 2735.0229,-269.3402 2763,-249 2820.2973,-207.3431 2853.8474,-179.665 2841,-110 2836.2546,-84.2682 2841.0391,-70.5563 2820,-55 2768.6225,-17.0114 2316.8709,-10.7296 2182.5255,-9.6999"/>
<polygon fill="#191970" stroke="#191970" points="2182.3481,-6.1986 2172.3234,-9.6272 2182.2982,-13.1984 2182.3481,-6.1986"/>
</g>
<!-- Node167&#45;&gt;Node4 -->
<g id="edge150" class="edge">
<title>Node167&#45;&gt;Node4</title>
<path fill="none" stroke="#191970" d="M2276.7935,-490.1938C2281.9598,-446.2588 2294.7996,-314.4745 2267,-285 2239.5312,-255.8762 1984.1329,-244.8404 1858.344,-241.1457"/>
<polygon fill="#191970" stroke="#191970" points="1858.1465,-237.6387 1848.0505,-240.8513 1857.9463,-244.6359 1858.1465,-237.6387"/>
</g>
<!-- Node167&#45;&gt;Node43 -->
<g id="edge153" class="edge">
<title>Node167&#45;&gt;Node43</title>
<path fill="none" stroke="#191970" d="M2214.7526,-490.4296C2185.1504,-482.151 2149.5783,-470.1065 2120,-454 2095.8596,-440.8547 2093.6455,-431.9419 2072,-415 2056.5688,-402.9221 2038.8533,-389.5921 2025.5158,-379.6615"/>
<polygon fill="#191970" stroke="#191970" points="2027.5667,-376.825 2017.4514,-373.6739 2023.3938,-382.4453 2027.5667,-376.825"/>
</g>
<!-- Node167&#45;&gt;Node44 -->
<g id="edge151" class="edge">
<title>Node167&#45;&gt;Node44</title>
<path fill="none" stroke="#191970" d="M2255.6044,-490.4378C2224.4134,-467.671 2161.3974,-421.0425 2110,-379 2094.8869,-366.6376 2094.7673,-358.0968 2077,-350 2024.4181,-326.0378 1866.7425,-311.1218 1773.7581,-304.1619"/>
<polygon fill="#191970" stroke="#191970" points="1773.8126,-300.6565 1763.5826,-303.4127 1773.2985,-307.6376 1773.8126,-300.6565"/>
</g>
<!-- Node167&#45;&gt;Node55 -->
<g id="edge154" class="edge">
<title>Node167&#45;&gt;Node55</title>
<path fill="none" stroke="#191970" d="M2269.2263,-490.4095C2254.4592,-454.3705 2215.3093,-358.8263 2198.6633,-318.2022"/>
<polygon fill="#191970" stroke="#191970" points="2201.8037,-316.635 2194.7734,-308.7088 2195.3263,-319.2892 2201.8037,-316.635"/>
</g>
<!-- Node167&#45;&gt;Node66 -->
<g id="edge152" class="edge">
<title>Node167&#45;&gt;Node66</title>
<path fill="none" stroke="#191970" d="M2199.8001,-501.4048C2035.0907,-494.3135 1646.8222,-475.8111 1517,-454 1408.5966,-435.7874 1284.3378,-396.7106 1224.6564,-376.7626"/>
<polygon fill="#191970" stroke="#191970" points="1225.5565,-373.3727 1214.9624,-373.5004 1223.3238,-380.0071 1225.5565,-373.3727"/>
</g>
<!-- Node167&#45;&gt;Node88 -->
<g id="edge149" class="edge">
<title>Node167&#45;&gt;Node88</title>
<path fill="none" stroke="#191970" d="M2199.7454,-491.2038C2159.8087,-482.8946 2110.3677,-470.5887 2068,-454 2016.3465,-433.7755 1961.056,-399.0708 1931.5306,-379.3459"/>
<polygon fill="#191970" stroke="#191970" points="1933.1324,-376.2042 1922.887,-373.5054 1929.2132,-382.0042 1933.1324,-376.2042"/>
</g>
<!-- Node167&#45;&gt;Node165 -->
<g id="edge155" class="edge">
<title>Node167&#45;&gt;Node165</title>
<path fill="none" stroke="#191970" d="M2293.0105,-490.3345C2305.9183,-480.1823 2323.5012,-466.353 2337.9385,-454.9978"/>
<polygon fill="#191970" stroke="#191970" points="2340.3199,-457.5777 2346.0163,-448.6445 2335.9924,-452.0756 2340.3199,-457.5777"/>
</g>
</g>
</svg>
        <g id="navigator" transform="translate(0 0)" fill="#404254">
                <rect fill="#f2f5e9" fill-opacity="0.5" stroke="#606060" stroke-width=".5" x="0" y="0" width="60" height="60"/>
                <use id="zoomplus" xlink:href="#zoomPlus" x="17" y="9" onmousedown="handleZoom(evt,'in')"/>
                <use id="zoomminus" xlink:href="#zoomMin" x="42" y="9" onmousedown="handleZoom(evt,'out')"/>
                <use id="reset" xlink:href="#resetDef" x="30" y="36" onmousedown="handleReset()"/>
                <g id="arrowUp" xlink:href="#dirArrow" transform="translate(30 24)" onmousedown="handlePan(0,-1)">
                  <use xlink:href="#rim" fill="#404040">
                        <set attributeName="fill" to="#808080" begin="arrowUp.mouseover" end="arrowUp.mouseout"/>
                  </use>
                  <path fill="none" stroke="white" stroke-width="1.5" d="M0,-3.0v7 M-2.5,-0.5L0,-3.0L2.5,-0.5"/>
                </g>
                <g id="arrowRight" xlink:href="#dirArrow" transform="rotate(90) translate(36 -43)" onmousedown="handlePan(1,0)">
                  <use xlink:href="#rim" fill="#404040">
                        <set attributeName="fill" to="#808080" begin="arrowRight.mouseover" end="arrowRight.mouseout"/>
                  </use>
                  <path fill="none" stroke="white" stroke-width="1.5" d="M0,-3.0v7 M-2.5,-0.5L0,-3.0L2.5,-0.5"/>
                </g>
                <g id="arrowDown" xlink:href="#dirArrow" transform="rotate(180) translate(-30 -48)" onmousedown="handlePan(0,1)">
                  <use xlink:href="#rim" fill="#404040">
                        <set attributeName="fill" to="#808080" begin="arrowDown.mouseover" end="arrowDown.mouseout"/>
                  </use>
                  <path fill="none" stroke="white" stroke-width="1.5" d="M0,-3.0v7 M-2.5,-0.5L0,-3.0L2.5,-0.5"/>
                </g>
                <g id="arrowLeft" xlink:href="#dirArrow" transform="rotate(270) translate(-36 17)" onmousedown="handlePan(-1,0)">
                  <use xlink:href="#rim" fill="#404040">
                        <set attributeName="fill" to="#808080" begin="arrowLeft.mouseover" end="arrowLeft.mouseout"/>
                  </use>
                  <path fill="none" stroke="white" stroke-width="1.5" d="M0,-3.0v7 M-2.5,-0.5L0,-3.0L2.5,-0.5"/>
                </g>
        </g>
        <svg viewBox="0 0 15 15" width="100%" height="30px" preserveAspectRatio="xMaxYMin meet">
         <g id="arrow_out" transform="scale(0.3 0.3)">
          <a xlink:href="testCOBAGenericStandardPlaneComputer_8cpp__incl_org.svg" target="_base">
           <rect id="button" ry="5" rx="5" y="6" x="6" height="38" width="38"
                fill="#f2f5e9" fill-opacity="0.5" stroke="#606060" stroke-width="1.0"/>
           <path id="arrow"
             d="M 11.500037,31.436501 C 11.940474,20.09759 22.043105,11.32322 32.158766,21.979434 L 37.068811,17.246167 C 37.068811,17.246167 37.088388,32 37.088388,32 L 22.160133,31.978069 C 22.160133,31.978069 26.997745,27.140456 26.997745,27.140456 C 18.528582,18.264221 13.291696,25.230495 11.500037,31.436501 z"
             style="fill:#404040;"/>
          </a>
         </g>
        </svg>
</svg>
