<?xml version="1.0" encoding="UTF-8" standalone="no"?>
<!DOCTYPE svg PUBLIC "-//W3C//DTD SVG 1.1//EN"
 "http://www.w3.org/Graphics/SVG/1.1/DTD/svg11.dtd">
<!-- Generated by graphviz version 2.40.1 (20161225.0304)
 -->
<!-- Title: DGtal::StandardDSS4&lt; TCoordinate, TInteger &gt; Pages: 1 -->
<svg width="1425pt" height="291pt"
 viewBox="0.00 0.00 1424.53 291.00" xmlns="http://www.w3.org/2000/svg" xmlns:xlink="http://www.w3.org/1999/xlink">
<g id="graph0" class="graph" transform="scale(1 1) rotate(0) translate(4 287)">
<title>DGtal::StandardDSS4&lt; TCoordinate, TInteger &gt;</title>
<polygon fill="#ffffff" stroke="transparent" points="-4,4 -4,-287 1420.5293,-287 1420.5293,4 -4,4"/>
<!-- Node3 -->
<g id="node1" class="node">
<title>Node3</title>
<polygon fill="#bfbfbf" stroke="#000000" points="1285.8174,-87 1285.8174,-115 1416.5293,-115 1416.5293,-87 1285.8174,-87"/>
<text text-anchor="start" x="1293.8174" y="-103" font-family="FreeSans" font-size="10.00" fill="#000000">DGtal::StandardDSS4</text>
<text text-anchor="middle" x="1351.1733" y="-93" font-family="FreeSans" font-size="10.00" fill="#000000">&lt; TCoordinate, TInteger &gt;</text>
</g>
<!-- Node4 -->
<g id="node2" class="node">
<title>Node4</title>
<g id="a_node2"><a xlink:href="classDGtal_1_1ArithmeticalDSS.html" target="_top" xlink:title="DGtal::ArithmeticalDSS\l\&lt; TCoordinate, TInteger, 4 \&gt;">
<polygon fill="#ffffff" stroke="#000000" points="1107.5342,-87 1107.5342,-115 1248.8174,-115 1248.8174,-87 1107.5342,-87"/>
<text text-anchor="start" x="1115.5342" y="-103" font-family="FreeSans" font-size="10.00" fill="#000000">DGtal::ArithmeticalDSS</text>
<text text-anchor="middle" x="1178.1758" y="-93" font-family="FreeSans" font-size="10.00" fill="#000000">&lt; TCoordinate, TInteger, 4 &gt;</text>
</a>
</g>
</g>
<!-- Node4&#45;&gt;Node3 -->
<g id="edge1" class="edge">
<title>Node4&#45;&gt;Node3</title>
<path fill="none" stroke="#191970" d="M1259.0653,-101C1267.9933,-101 1277.0013,-101 1285.7068,-101"/>
<polygon fill="#191970" stroke="#191970" points="1259.0397,-97.5001 1249.0397,-101 1259.0396,-104.5001 1259.0397,-97.5001"/>
</g>
<!-- Node5 -->
<g id="node3" class="node">
<title>Node5</title>
<g id="a_node3"><a xlink:href="classDGtal_1_1PointVector.html" target="_top" xlink:title="Aim: Implements basic operations that will be used in Point and Vector classes. ">
<polygon fill="#ffffff" stroke="#000000" points="141.4678,-102 141.4678,-140 260.9541,-140 260.9541,-102 141.4678,-102"/>
<text text-anchor="start" x="149.4678" y="-128" font-family="FreeSans" font-size="10.00" fill="#000000">DGtal::PointVector</text>
<text text-anchor="start" x="149.4678" y="-118" font-family="FreeSans" font-size="10.00" fill="#000000">&lt; dim, TEuclideanRing,</text>
<text text-anchor="middle" x="201.2109" y="-108" font-family="FreeSans" font-size="10.00" fill="#000000"> TContainer &gt;</text>
</a>
</g>
</g>
<!-- Node5&#45;&gt;Node4 -->
<g id="edge2" class="edge">
<title>Node5&#45;&gt;Node4</title>
<path fill="none" stroke="#9a32cd" stroke-dasharray="5,2" d="M228.8573,-95.061C269.7589,-59.5094 350.3285,0 431.3774,0 431.3774,0 431.3774,0 881.3101,0 988.0132,0 1105.3444,-59.2043 1154.482,-86.9564"/>
<polygon fill="#9a32cd" stroke="#9a32cd" points="226.3831,-92.5769 221.2174,-101.8272 231.0241,-97.8173 226.3831,-92.5769"/>
<text text-anchor="middle" x="688.1821" y="-52" font-family="FreeSans" font-size="10.00" fill="#000000"> myUl</text>
<text text-anchor="middle" x="688.1821" y="-42" font-family="FreeSans" font-size="10.00" fill="#000000">myLf</text>
<text text-anchor="middle" x="688.1821" y="-32" font-family="FreeSans" font-size="10.00" fill="#000000">myF</text>
<text text-anchor="middle" x="688.1821" y="-22" font-family="FreeSans" font-size="10.00" fill="#000000">myLl</text>
<text text-anchor="middle" x="688.1821" y="-12" font-family="FreeSans" font-size="10.00" fill="#000000">myUf</text>
<text text-anchor="middle" x="688.1821" y="-2" font-family="FreeSans" font-size="10.00" fill="#000000">myL</text>
</g>
<!-- Node5&#45;&gt;Node5 -->
<g id="edge4" class="edge">
<title>Node5&#45;&gt;Node5</title>
<path fill="none" stroke="#9a32cd" stroke-dasharray="5,2" d="M184.4997,-150.2834C186.8515,-155.1472 192.4219,-158.5 201.2109,-158.5 215.2734,-158.5 221.0962,-149.9169 218.6792,-140.2945"/>
<polygon fill="#9a32cd" stroke="#9a32cd" points="187.9885,-150.0014 183.7427,-140.2945 181.0085,-150.5304 187.9885,-150.0014"/>
<text text-anchor="middle" x="201.2109" y="-160.5" font-family="FreeSans" font-size="10.00" fill="#000000"> zero</text>
</g>
<!-- Node7 -->
<g id="node5" class="node">
<title>Node7</title>
<g id="a_node5"><a xlink:href="classDGtal_1_1ArithmeticalDSL.html" target="_top" xlink:title="DGtal::ArithmeticalDSL\l\&lt; Coordinate, Integer,\l adjacency \&gt;">
<polygon fill="#ffffff" stroke="#000000" points="628.7783,-142 628.7783,-180 747.5859,-180 747.5859,-142 628.7783,-142"/>
<text text-anchor="start" x="636.7783" y="-168" font-family="FreeSans" font-size="10.00" fill="#000000">DGtal::ArithmeticalDSL</text>
<text text-anchor="start" x="636.7783" y="-158" font-family="FreeSans" font-size="10.00" fill="#000000">&lt; Coordinate, Integer,</text>
<text text-anchor="middle" x="688.1821" y="-148" font-family="FreeSans" font-size="10.00" fill="#000000"> adjacency &gt;</text>
</a>
</g>
</g>
<!-- Node5&#45;&gt;Node7 -->
<g id="edge6" class="edge">
<title>Node5&#45;&gt;Node7</title>
<path fill="none" stroke="#9a32cd" stroke-dasharray="5,2" d="M271.1543,-127.7565C334.0264,-133.7237 428.9128,-142.4666 511.54,-149 550.4555,-152.0771 594.2327,-155.0544 628.4705,-157.2737"/>
<polygon fill="#9a32cd" stroke="#9a32cd" points="271.2459,-124.2495 260.9593,-126.7866 270.5829,-131.2181 271.2459,-124.2495"/>
<text text-anchor="middle" x="431.3774" y="-150" font-family="FreeSans" font-size="10.00" fill="#000000"> myShift</text>
</g>
<!-- Node8 -->
<g id="node6" class="node">
<title>Node8</title>
<g id="a_node6"><a xlink:href="classDGtal_1_1ArithmeticalDSL.html" target="_top" xlink:title="Aim: This class represents a naive (resp. standard) digital straight line (DSL), ie. the set of digital points &#160;such that &#160;with , &#160;and &#160;(resp. ). Note that any DSL such that &#160;(resp. ) is simply 8&#45;connected (resp. 4&#45;connected). ">
<polygon fill="#ffffff" stroke="#000000" points="369.2148,-202 369.2148,-240 493.54,-240 493.54,-202 369.2148,-202"/>
<text text-anchor="start" x="377.2148" y="-228" font-family="FreeSans" font-size="10.00" fill="#000000">DGtal::ArithmeticalDSL</text>
<text text-anchor="start" x="377.2148" y="-218" font-family="FreeSans" font-size="10.00" fill="#000000">&lt; TCoordinate, TInteger,</text>
<text text-anchor="middle" x="431.3774" y="-208" font-family="FreeSans" font-size="10.00" fill="#000000"> adjacency &gt;</text>
</a>
</g>
</g>
<!-- Node5&#45;&gt;Node8 -->
<g id="edge9" class="edge">
<title>Node5&#45;&gt;Node8</title>
<path fill="none" stroke="#9a32cd" stroke-dasharray="5,2" d="M233.6941,-146.3543C247.1492,-155.9849 263.2588,-166.4429 278.9541,-174 307.3975,-187.6952 340.7345,-198.5134 368.9664,-206.3011"/>
<polygon fill="#9a32cd" stroke="#9a32cd" points="235.4027,-143.2674 225.2665,-140.1838 231.2674,-148.9154 235.4027,-143.2674"/>
<text text-anchor="middle" x="315.0845" y="-202" font-family="FreeSans" font-size="10.00" fill="#000000"> myShift</text>
</g>
<!-- Node11 -->
<g id="node9" class="node">
<title>Node11</title>
<g id="a_node9"><a xlink:href="classDGtal_1_1ArithmeticalDSS.html" target="_top" xlink:title="Aim: This class represents a naive (resp. standard) digital straight segment (DSS), ie. the sequence of simply 8&#45; (resp. 4&#45;)connected digital points contained in a naive (resp. standard) digital straight line (DSL) between two points of it. ">
<polygon fill="#ffffff" stroke="#000000" points="819.1475,-82 819.1475,-120 943.4727,-120 943.4727,-82 819.1475,-82"/>
<text text-anchor="start" x="827.1475" y="-108" font-family="FreeSans" font-size="10.00" fill="#000000">DGtal::ArithmeticalDSS</text>
<text text-anchor="start" x="827.1475" y="-98" font-family="FreeSans" font-size="10.00" fill="#000000">&lt; TCoordinate, TInteger,</text>
<text text-anchor="middle" x="881.3101" y="-88" font-family="FreeSans" font-size="10.00" fill="#000000"> adjacency &gt;</text>
</a>
</g>
</g>
<!-- Node5&#45;&gt;Node11 -->
<g id="edge12" class="edge">
<title>Node5&#45;&gt;Node11</title>
<path fill="none" stroke="#9a32cd" stroke-dasharray="5,2" d="M271.2823,-110.5294C334.0483,-101.7102 428.7034,-89.7887 511.54,-85 555.5724,-82.4545 566.6917,-83.6974 610.7783,-85 682.2622,-87.112 764.232,-92.3567 819.0348,-96.2693"/>
<polygon fill="#9a32cd" stroke="#9a32cd" points="270.5138,-107.1032 261.1038,-111.9716 271.4959,-114.034 270.5138,-107.1032"/>
<text text-anchor="middle" x="561.1592" y="-137" font-family="FreeSans" font-size="10.00" fill="#000000"> myUl</text>
<text text-anchor="middle" x="561.1592" y="-127" font-family="FreeSans" font-size="10.00" fill="#000000">myLf</text>
<text text-anchor="middle" x="561.1592" y="-117" font-family="FreeSans" font-size="10.00" fill="#000000">myF</text>
<text text-anchor="middle" x="561.1592" y="-107" font-family="FreeSans" font-size="10.00" fill="#000000">myLl</text>
<text text-anchor="middle" x="561.1592" y="-97" font-family="FreeSans" font-size="10.00" fill="#000000">myUf</text>
<text text-anchor="middle" x="561.1592" y="-87" font-family="FreeSans" font-size="10.00" fill="#000000">myL</text>
</g>
<!-- Node6 -->
<g id="node4" class="node">
<title>Node6</title>
<polygon fill="#ffffff" stroke="#bfbfbf" points="0,-112 0,-130 65.4678,-130 65.4678,-112 0,-112"/>
<text text-anchor="middle" x="32.7339" y="-118" font-family="FreeSans" font-size="10.00" fill="#000000">TContainer</text>
</g>
<!-- Node6&#45;&gt;Node5 -->
<g id="edge3" class="edge">
<title>Node6&#45;&gt;Node5</title>
<path fill="none" stroke="#9a32cd" stroke-dasharray="5,2" d="M75.8849,-121C95.7187,-121 119.5768,-121 141.1301,-121"/>
<polygon fill="#9a32cd" stroke="#9a32cd" points="75.6179,-117.5001 65.6179,-121 75.6179,-124.5001 75.6179,-117.5001"/>
<text text-anchor="middle" x="103.4678" y="-123" font-family="FreeSans" font-size="10.00" fill="#000000"> myArray</text>
</g>
<!-- Node7&#45;&gt;Node4 -->
<g id="edge5" class="edge">
<title>Node7&#45;&gt;Node4</title>
<path fill="none" stroke="#9a32cd" stroke-dasharray="5,2" d="M757.7521,-153.9338C837.8767,-145.5852 973.4083,-130.8179 1089.5342,-115 1095.246,-114.222 1101.1584,-113.3764 1107.0941,-112.499"/>
<polygon fill="#9a32cd" stroke="#9a32cd" points="757.3662,-150.455 747.7813,-154.9694 758.0894,-157.4175 757.3662,-150.455"/>
<text text-anchor="middle" x="881.3101" y="-150" font-family="FreeSans" font-size="10.00" fill="#000000"> myDSL</text>
</g>
<!-- Node7&#45;&gt;Node11 -->
<g id="edge13" class="edge">
<title>Node7&#45;&gt;Node11</title>
<path fill="none" stroke="#9a32cd" stroke-dasharray="5,2" d="M751.511,-138.5764C756.2634,-136.9959 760.994,-135.4543 765.5859,-134 782.8141,-128.5439 801.612,-123.0073 818.9519,-118.0675"/>
<polygon fill="#9a32cd" stroke="#9a32cd" points="750.1227,-135.3507 741.7629,-141.8596 752.357,-141.9846 750.1227,-135.3507"/>
<text text-anchor="middle" x="783.3667" y="-136" font-family="FreeSans" font-size="10.00" fill="#000000"> myDSL</text>
</g>
<!-- Node8&#45;&gt;Node7 -->
<g id="edge7" class="edge">
<title>Node8&#45;&gt;Node7</title>
<path fill="none" stroke="#ffa500" stroke-dasharray="5,2" d="M503.3598,-204.182C542.7714,-194.9739 591.0347,-183.6976 628.3576,-174.9774"/>
<polygon fill="#ffa500" stroke="#ffa500" points="502.4841,-200.7923 493.5427,-206.4757 504.0768,-207.6087 502.4841,-200.7923"/>
<text text-anchor="start" x="511.54" y="-213" font-family="FreeSans" font-size="10.00" fill="#000000"> &lt; Coordinate, Integer,</text>
<text text-anchor="middle" x="561.1592" y="-203" font-family="FreeSans" font-size="10.00" fill="#000000"> adjacency &gt;</text>
</g>
<!-- Node9 -->
<g id="node7" class="node">
<title>Node9</title>
<polygon fill="#ffffff" stroke="#bfbfbf" points="165.6963,-263 165.6963,-281 236.7256,-281 236.7256,-263 165.6963,-263"/>
<text text-anchor="middle" x="201.2109" y="-269" font-family="FreeSans" font-size="10.00" fill="#000000">TCoordinate</text>
</g>
<!-- Node9&#45;&gt;Node8 -->
<g id="edge8" class="edge">
<title>Node9&#45;&gt;Node8</title>
<path fill="none" stroke="#9a32cd" stroke-dasharray="5,2" d="M246.9214,-267.7151C276.8805,-264.3164 316.7356,-258.6708 351.2148,-250 361.836,-247.329 373.015,-243.779 383.5418,-240.0814"/>
<polygon fill="#9a32cd" stroke="#9a32cd" points="246.323,-264.2596 236.7623,-268.8249 247.0833,-271.2182 246.323,-264.2596"/>
<text text-anchor="middle" x="315.0845" y="-275" font-family="FreeSans" font-size="10.00" fill="#000000"> myA</text>
<text text-anchor="middle" x="315.0845" y="-265" font-family="FreeSans" font-size="10.00" fill="#000000">myB</text>
</g>
<!-- Node10 -->
<g id="node8" class="node">
<title>Node10</title>
<polygon fill="#ffffff" stroke="#bfbfbf" points="174.5903,-220 174.5903,-238 227.8315,-238 227.8315,-220 174.5903,-220"/>
<text text-anchor="middle" x="201.2109" y="-226" font-family="FreeSans" font-size="10.00" fill="#000000">TInteger</text>
</g>
<!-- Node10&#45;&gt;Node8 -->
<g id="edge10" class="edge">
<title>Node10&#45;&gt;Node8</title>
<path fill="none" stroke="#9a32cd" stroke-dasharray="5,2" d="M238.3577,-227.7089C273.5273,-226.4865 327.0144,-224.6274 368.772,-223.176"/>
<polygon fill="#9a32cd" stroke="#9a32cd" points="237.9368,-224.2213 228.0644,-228.0666 238.18,-231.2171 237.9368,-224.2213"/>
<text text-anchor="middle" x="315.0845" y="-238" font-family="FreeSans" font-size="10.00" fill="#000000"> myLowerBound</text>
<text text-anchor="middle" x="315.0845" y="-228" font-family="FreeSans" font-size="10.00" fill="#000000">myUpperBound</text>
</g>
<!-- Node11&#45;&gt;Node4 -->
<g id="edge11" class="edge">
<title>Node11&#45;&gt;Node4</title>
<path fill="none" stroke="#ffa500" stroke-dasharray="5,2" d="M953.6035,-101C1000.3727,-101 1060.9713,-101 1107.4307,-101"/>
<polygon fill="#ffa500" stroke="#ffa500" points="953.5429,-97.5001 943.5428,-101 953.5428,-104.5001 953.5429,-97.5001"/>
<text text-anchor="middle" x="1025.5034" y="-103" font-family="FreeSans" font-size="10.00" fill="#000000"> &lt; TCoordinate, TInteger, 4 &gt;</text>
</g>
</g>
</svg>
