<?xml version="1.0" encoding="UTF-8" standalone="no"?>
<!DOCTYPE svg PUBLIC "-//W3C//DTD SVG 1.1//EN"
 "http://www.w3.org/Graphics/SVG/1.1/DTD/svg11.dtd">
<!-- Generated by graphviz version 2.40.1 (20161225.0304)
 -->
<!-- Title: DGtal::Signal&lt; TValue &gt; Pages: 1 -->
<svg width="247pt" height="347pt"
 viewBox="0.00 0.00 246.76 347.00" xmlns="http://www.w3.org/2000/svg" xmlns:xlink="http://www.w3.org/1999/xlink">
<g id="graph0" class="graph" transform="scale(1 1) rotate(0) translate(4 343)">
<title>DGtal::Signal&lt; TValue &gt;</title>
<polygon fill="#ffffff" stroke="transparent" points="-4,4 -4,-343 242.7642,-343 242.7642,4 -4,4"/>
<!-- Node2 -->
<g id="node1" class="node">
<title>Node2</title>
<polygon fill="#bfbfbf" stroke="#000000" points="51.8667,-.5 51.8667,-18.5 174.7905,-18.5 174.7905,-.5 51.8667,-.5"/>
<text text-anchor="middle" x="113.3286" y="-6.5" font-family="FreeSans" font-size="10.00" fill="#000000">DGtal::Signal&lt; TValue &gt;</text>
</g>
<!-- Node3 -->
<g id="node2" class="node">
<title>Node3</title>
<g id="a_node2"><a xlink:href="classDGtal_1_1CowPtr.html" target="_top" xlink:title="DGtal::CowPtr\&lt; DGtal\l::SignalData\&lt; TValue \&gt; \&gt;">
<polygon fill="#ffffff" stroke="#000000" points="49.7769,-65.5 49.7769,-93.5 176.8804,-93.5 176.8804,-65.5 49.7769,-65.5"/>
<text text-anchor="start" x="57.7769" y="-81.5" font-family="FreeSans" font-size="10.00" fill="#000000">DGtal::CowPtr&lt; DGtal</text>
<text text-anchor="middle" x="113.3286" y="-71.5" font-family="FreeSans" font-size="10.00" fill="#000000">::SignalData&lt; TValue &gt; &gt;</text>
</a>
</g>
</g>
<!-- Node3&#45;&gt;Node2 -->
<g id="edge1" class="edge">
<title>Node3&#45;&gt;Node2</title>
<path fill="none" stroke="#9a32cd" stroke-dasharray="5,2" d="M113.3286,-55.007C113.3286,-42.4648 113.3286,-27.9386 113.3286,-18.7368"/>
<polygon fill="#9a32cd" stroke="#9a32cd" points="109.8287,-55.3344 113.3286,-65.3345 116.8287,-55.3345 109.8287,-55.3344"/>
<text text-anchor="middle" x="131.395" y="-39" font-family="FreeSans" font-size="10.00" fill="#000000"> m_data</text>
</g>
<!-- Node4 -->
<g id="node3" class="node">
<title>Node4</title>
<g id="a_node3"><a xlink:href="classDGtal_1_1CountedPtr.html" target="_top" xlink:title="DGtal::CountedPtr\&lt;\l DGtal::SignalData\&lt;\l TValue \&gt; \&gt;">
<polygon fill="#ffffff" stroke="#000000" points="0,-150.5 0,-188.5 104.6572,-188.5 104.6572,-150.5 0,-150.5"/>
<text text-anchor="start" x="8" y="-176.5" font-family="FreeSans" font-size="10.00" fill="#000000">DGtal::CountedPtr&lt;</text>
<text text-anchor="start" x="8" y="-166.5" font-family="FreeSans" font-size="10.00" fill="#000000"> DGtal::SignalData&lt;</text>
<text text-anchor="middle" x="52.3286" y="-156.5" font-family="FreeSans" font-size="10.00" fill="#000000"> TValue &gt; &gt;</text>
</a>
</g>
</g>
<!-- Node4&#45;&gt;Node3 -->
<g id="edge2" class="edge">
<title>Node4&#45;&gt;Node3</title>
<path fill="none" stroke="#9a32cd" stroke-dasharray="5,2" d="M71.0044,-141.9455C81.8502,-125.9436 95.0561,-106.4594 103.8016,-93.5563"/>
<polygon fill="#9a32cd" stroke="#9a32cd" points="67.9785,-140.1718 65.2651,-150.4133 73.7729,-144.0992 67.9785,-140.1718"/>
<text text-anchor="middle" x="104.772" y="-119" font-family="FreeSans" font-size="10.00" fill="#000000"> myPtr</text>
</g>
<!-- Node5 -->
<g id="node4" class="node">
<title>Node5</title>
<g id="a_node4"><a xlink:href="structDGtal_1_1CountedPtr_1_1Counter.html" target="_top" xlink:title="DGtal::CountedPtr\&lt;\l T \&gt;::Counter">
<polygon fill="#ffffff" stroke="#000000" points=".5566,-310.5 .5566,-338.5 104.1006,-338.5 104.1006,-310.5 .5566,-310.5"/>
<text text-anchor="start" x="8.5566" y="-326.5" font-family="FreeSans" font-size="10.00" fill="#000000">DGtal::CountedPtr&lt;</text>
<text text-anchor="middle" x="52.3286" y="-316.5" font-family="FreeSans" font-size="10.00" fill="#000000"> T &gt;::Counter</text>
</a>
</g>
</g>
<!-- Node5&#45;&gt;Node4 -->
<g id="edge3" class="edge">
<title>Node5&#45;&gt;Node4</title>
<path fill="none" stroke="#9a32cd" stroke-dasharray="5,2" d="M48.9985,-299.9717C47.6679,-288.9914 46.2978,-275.8703 45.644,-264 44.2059,-237.8885 47.1328,-207.7583 49.5574,-188.6741"/>
<polygon fill="#9a32cd" stroke="#9a32cd" points="45.5544,-300.634 50.2879,-310.1126 52.4985,-299.751 45.5544,-300.634"/>
<text text-anchor="middle" x="72.1709" y="-251.5" font-family="FreeSans" font-size="10.00" fill="#000000"> myCounter</text>
</g>
<!-- Node6 -->
<g id="node5" class="node">
<title>Node6</title>
<g id="a_node5"><a xlink:href="classDGtal_1_1CountedPtr.html" target="_top" xlink:title="Aim: Smart pointer based on reference counts. ">
<polygon fill="#ffffff" stroke="#000000" points="105.98,-245.5 105.98,-263.5 226.6772,-263.5 226.6772,-245.5 105.98,-245.5"/>
<text text-anchor="middle" x="166.3286" y="-251.5" font-family="FreeSans" font-size="10.00" fill="#000000">DGtal::CountedPtr&lt; T &gt;</text>
</a>
</g>
</g>
<!-- Node5&#45;&gt;Node6 -->
<g id="edge5" class="edge">
<title>Node5&#45;&gt;Node6</title>
<path fill="none" stroke="#9a32cd" stroke-dasharray="5,2" d="M84.1238,-304.9766C106.2183,-291.4099 134.6393,-273.9583 151.6185,-263.5325"/>
<polygon fill="#9a32cd" stroke="#9a32cd" points="82.0885,-302.1192 75.3982,-310.3345 85.7514,-308.0844 82.0885,-302.1192"/>
<text text-anchor="middle" x="146.1709" y="-284" font-family="FreeSans" font-size="10.00" fill="#000000"> myCounter</text>
</g>
<!-- Node6&#45;&gt;Node4 -->
<g id="edge4" class="edge">
<title>Node6&#45;&gt;Node4</title>
<path fill="none" stroke="#ffa500" stroke-dasharray="5,2" d="M145.8925,-239.2626C126.9358,-225.1282 98.6427,-204.0324 78.1346,-188.7413"/>
<polygon fill="#ffa500" stroke="#ffa500" points="144.0196,-242.2319 154.1286,-245.4035 148.2039,-236.6201 144.0196,-242.2319"/>
<text text-anchor="start" x="125.3286" y="-219" font-family="FreeSans" font-size="10.00" fill="#000000"> &lt; DGtal::SignalData</text>
<text text-anchor="middle" x="171.0464" y="-209" font-family="FreeSans" font-size="10.00" fill="#000000">&lt; TValue &gt; &gt;</text>
</g>
<!-- Node7 -->
<g id="node6" class="node">
<title>Node7</title>
<g id="a_node6"><a xlink:href="classDGtal_1_1CowPtr.html" target="_top" xlink:title="Aim: Copy on write shared pointer. ">
<polygon fill="#ffffff" stroke="#000000" points="122.8813,-160.5 122.8813,-178.5 225.7759,-178.5 225.7759,-160.5 122.8813,-160.5"/>
<text text-anchor="middle" x="174.3286" y="-166.5" font-family="FreeSans" font-size="10.00" fill="#000000">DGtal::CowPtr&lt; T &gt;</text>
</a>
</g>
</g>
<!-- Node7&#45;&gt;Node3 -->
<g id="edge6" class="edge">
<title>Node7&#45;&gt;Node3</title>
<path fill="none" stroke="#ffa500" stroke-dasharray="5,2" d="M162.2707,-151.7097C150.7167,-134.6628 133.5093,-109.2748 122.8766,-93.5872"/>
<polygon fill="#ffa500" stroke="#ffa500" points="159.5225,-153.8933 168.0303,-160.2074 165.317,-149.9659 159.5225,-153.8933"/>
<text text-anchor="start" x="147.3286" y="-124" font-family="FreeSans" font-size="10.00" fill="#000000"> &lt; DGtal::SignalData</text>
<text text-anchor="middle" x="193.0464" y="-114" font-family="FreeSans" font-size="10.00" fill="#000000">&lt; TValue &gt; &gt;</text>
</g>
</g>
</svg>
