<?xml version="1.0" encoding="UTF-8" standalone="no"?>
<!DOCTYPE svg PUBLIC "-//W3C//DTD SVG 1.1//EN"
 "http://www.w3.org/Graphics/SVG/1.1/DTD/svg11.dtd">
<!-- Generated by graphviz version 2.40.1 (20161225.0304)
 -->
<!-- Title: DGtal::ChordNaivePlaneComputer&lt; TSpace, TInputPoint, TInternalScalar &gt; Pages: 1 -->
<!--zoomable 159 -->
<svg id="main" version="1.1" xmlns="http://www.w3.org/2000/svg" xmlns:xlink="http://www.w3.org/1999/xlink" xml:space="preserve" onload="init(evt)">
<style type="text/css"><![CDATA[
.edge:hover path { stroke: red; }
.edge:hover polygon { stroke: red; fill: red; }
]]></style>
<script type="text/javascript"><![CDATA[
var edges = document.getElementsByTagName('g');
if (edges && edges.length) {
  for (var i=0;i<edges.length;i++) {
    if (edges[i].id.substr(0,4)=='edge') {
      edges[i].setAttribute('class','edge');
    }
  }
}
]]></script>
        <defs>
                <circle id="rim" cx="0" cy="0" r="7"/>
                <circle id="rim2" cx="0" cy="0" r="3.5"/>
                <g id="zoomPlus">
                        <use xlink:href="#rim" fill="#404040">
                                <set attributeName="fill" to="#808080" begin="zoomplus.mouseover" end="zoomplus.mouseout"/>
                        </use>
                        <path d="M-4,0h8M0,-4v8" fill="none" stroke="white" stroke-width="1.5" pointer-events="none"/>
                </g>
                <g id="zoomMin">
                        <use xlink:href="#rim" fill="#404040">
                                <set attributeName="fill" to="#808080" begin="zoomminus.mouseover" end="zoomminus.mouseout"/>
                        </use>
                        <path d="M-4,0h8" fill="none" stroke="white" stroke-width="1.5" pointer-events="none"/>
                </g>
                <g id="dirArrow">
                        <path fill="none" stroke="white" stroke-width="1.5" d="M0,-3.0v7 M-2.5,-0.5L0,-3.0L2.5,-0.5"/>
                </g>
               <g id="resetDef">
                       <use xlink:href="#rim2" fill="#404040">
                               <set attributeName="fill" to="#808080" begin="reset.mouseover" end="reset.mouseout"/>
                       </use>
               </g>
        </defs>

<script type="text/javascript">
var viewWidth = 1278;
var viewHeight = 159;
var sectionId = 'dynsection-1';
</script>
<script xlink:href="svgpan.js"/>
<svg id="graph" class="graph">
<g id="viewport">
<title>DGtal::ChordNaivePlaneComputer&lt; TSpace, TInputPoint, TInternalScalar &gt;</title>
<polygon fill="#ffffff" stroke="transparent" points="-4,4 -4,-155 1273.791,-155 1273.791,4 -4,4"/>
<!-- Node2 -->
<g id="node1" class="node">
<title>Node2</title>
<polygon fill="#bfbfbf" stroke="#000000" points="1072.5557,-66.5 1072.5557,-94.5 1269.791,-94.5 1269.791,-66.5 1072.5557,-66.5"/>
<text text-anchor="start" x="1080.5557" y="-82.5" font-family="FreeSans" font-size="10.00" fill="#000000">DGtal::ChordNaivePlaneComputer</text>
<text text-anchor="middle" x="1171.1733" y="-72.5" font-family="FreeSans" font-size="10.00" fill="#000000">&lt; TSpace, TInputPoint, TInternalScalar &gt;</text>
</g>
<!-- Node3 -->
<g id="node2" class="node">
<title>Node3</title>
<polygon fill="#ffffff" stroke="#bfbfbf" points="833.0825,-117.5 833.0825,-135.5 943.5894,-135.5 943.5894,-117.5 833.0825,-117.5"/>
<text text-anchor="middle" x="888.3359" y="-123.5" font-family="FreeSans" font-size="10.00" fill="#000000">std::set&lt; InputPoint &gt;</text>
</g>
<!-- Node3&#45;&gt;Node2 -->
<g id="edge1" class="edge">
<title>Node3&#45;&gt;Node2</title>
<path fill="none" stroke="#9a32cd" stroke-dasharray="5,2" d="M953.9623,-117.6882C984.5783,-113.4073 1021.4803,-108.0051 1054.5557,-102.5 1069.0871,-100.0814 1084.5983,-97.2977 1099.4085,-94.5414"/>
<polygon fill="#9a32cd" stroke="#9a32cd" points="953.2581,-114.2523 943.8351,-119.0955 954.2217,-121.1857 953.2581,-114.2523"/>
<text text-anchor="middle" x="1027.6001" y="-111.5" font-family="FreeSans" font-size="10.00" fill="#000000"> myPointSet</text>
</g>
<!-- Node4 -->
<g id="node3" class="node">
<title>Node4</title>
<g id="a_node3"><a xlink:title="STL class. ">
<polygon fill="#ffffff" stroke="#bfbfbf" points="603.8804,-129.5 603.8804,-147.5 676.0229,-147.5 676.0229,-129.5 603.8804,-129.5"/>
<text text-anchor="middle" x="639.9517" y="-135.5" font-family="FreeSans" font-size="10.00" fill="#000000">std::set&lt; K &gt;</text>
</a>
</g>
</g>
<!-- Node4&#45;&gt;Node3 -->
<g id="edge2" class="edge">
<title>Node4&#45;&gt;Node3</title>
<path fill="none" stroke="#ffa500" stroke-dasharray="5,2" d="M686.1835,-136.2664C727.7097,-134.2602 788.7599,-131.3107 832.8956,-129.1784"/>
<polygon fill="#ffa500" stroke="#ffa500" points="685.8883,-132.7765 676.0689,-136.7551 686.2261,-139.7684 685.8883,-132.7765"/>
<text text-anchor="middle" x="743.5029" y="-136.5" font-family="FreeSans" font-size="10.00" fill="#000000"> &lt; InputPoint &gt;</text>
</g>
<!-- Node5 -->
<g id="node4" class="node">
<title>Node5</title>
<polygon fill="#ffffff" stroke="#bfbfbf" points="378.4785,-132.5 378.4785,-150.5 407.4785,-150.5 407.4785,-132.5 378.4785,-132.5"/>
<text text-anchor="middle" x="392.9785" y="-138.5" font-family="FreeSans" font-size="10.00" fill="#000000">K</text>
</g>
<!-- Node5&#45;&gt;Node4 -->
<g id="edge3" class="edge">
<title>Node5&#45;&gt;Node4</title>
<path fill="none" stroke="#9a32cd" stroke-dasharray="5,2" d="M417.7516,-141.1991C461.573,-140.6668 552.9217,-139.5572 603.7876,-138.9393"/>
<polygon fill="#9a32cd" stroke="#9a32cd" points="417.6449,-137.7 407.6882,-141.3213 417.73,-144.6995 417.6449,-137.7"/>
<text text-anchor="middle" x="522.5088" y="-141.5" font-family="FreeSans" font-size="10.00" fill="#000000"> keys</text>
</g>
<!-- Node6 -->
<g id="node5" class="node">
<title>Node6</title>
<g id="a_node5"><a xlink:href="structDGtal_1_1ChordNaivePlaneComputer_1_1State.html" target="_top" xlink:title="DGtal::ChordNaivePlaneComputer\l\&lt; TSpace, TInputPoint, TInternalScalar\l \&gt;::State">
<polygon fill="#ffffff" stroke="#000000" points="794.0273,-59.5 794.0273,-97.5 982.6445,-97.5 982.6445,-59.5 794.0273,-59.5"/>
<text text-anchor="start" x="802.0273" y="-85.5" font-family="FreeSans" font-size="10.00" fill="#000000">DGtal::ChordNaivePlaneComputer</text>
<text text-anchor="start" x="802.0273" y="-75.5" font-family="FreeSans" font-size="10.00" fill="#000000">&lt; TSpace, TInputPoint, TInternalScalar</text>
<text text-anchor="middle" x="888.3359" y="-65.5" font-family="FreeSans" font-size="10.00" fill="#000000"> &gt;::State</text>
</a>
</g>
</g>
<!-- Node6&#45;&gt;Node2 -->
<g id="edge4" class="edge">
<title>Node6&#45;&gt;Node2</title>
<path fill="none" stroke="#9a32cd" stroke-dasharray="5,2" d="M993.1269,-79.241C1019.0392,-79.4242 1046.7135,-79.6199 1072.332,-79.8011"/>
<polygon fill="#9a32cd" stroke="#9a32cd" points="992.9345,-75.7396 982.9099,-79.1688 992.8849,-82.7395 992.9345,-75.7396"/>
<text text-anchor="middle" x="1027.6001" y="-91.5" font-family="FreeSans" font-size="10.00" fill="#000000"> _state</text>
<text text-anchor="middle" x="1027.6001" y="-81.5" font-family="FreeSans" font-size="10.00" fill="#000000">myState</text>
</g>
<!-- Node7 -->
<g id="node6" class="node">
<title>Node7</title>
<g id="a_node6"><a xlink:href="classDGtal_1_1PointVector.html" target="_top" xlink:title="DGtal::PointVector\l\&lt; 3, InternalScalar \&gt;">
<polygon fill="#ffffff" stroke="#000000" points="586.9248,-45.5 586.9248,-73.5 692.9785,-73.5 692.9785,-45.5 586.9248,-45.5"/>
<text text-anchor="start" x="594.9248" y="-61.5" font-family="FreeSans" font-size="10.00" fill="#000000">DGtal::PointVector</text>
<text text-anchor="middle" x="639.9517" y="-51.5" font-family="FreeSans" font-size="10.00" fill="#000000">&lt; 3, InternalScalar &gt;</text>
</a>
</g>
</g>
<!-- Node7&#45;&gt;Node6 -->
<g id="edge5" class="edge">
<title>Node7&#45;&gt;Node6</title>
<path fill="none" stroke="#9a32cd" stroke-dasharray="5,2" d="M703.4545,-64.3576C730.8234,-66.4512 763.4063,-68.9436 793.5397,-71.2486"/>
<polygon fill="#9a32cd" stroke="#9a32cd" points="703.4742,-60.849 693.2363,-63.576 702.9402,-67.8286 703.4742,-60.849"/>
<text text-anchor="middle" x="743.5029" y="-72.5" font-family="FreeSans" font-size="10.00" fill="#000000"> N</text>
</g>
<!-- Node8 -->
<g id="node7" class="node">
<title>Node8</title>
<polygon fill="#ffffff" stroke="#bfbfbf" points="327.8643,-85.5 327.8643,-113.5 458.0928,-113.5 458.0928,-85.5 327.8643,-85.5"/>
<text text-anchor="start" x="335.8643" y="-101.5" font-family="FreeSans" font-size="10.00" fill="#000000">std::array&lt; InternalScalar,</text>
<text text-anchor="middle" x="392.9785" y="-91.5" font-family="FreeSans" font-size="10.00" fill="#000000"> dim &gt;</text>
</g>
<!-- Node8&#45;&gt;Node7 -->
<g id="edge6" class="edge">
<title>Node8&#45;&gt;Node7</title>
<path fill="none" stroke="#9a32cd" stroke-dasharray="5,2" d="M468.2758,-87.3048C506.5995,-81.0978 552.2677,-73.7014 586.8649,-68.098"/>
<polygon fill="#9a32cd" stroke="#9a32cd" points="467.5026,-83.8843 458.1909,-88.9381 468.6218,-90.7943 467.5026,-83.8843"/>
<text text-anchor="middle" x="522.5088" y="-86.5" font-family="FreeSans" font-size="10.00" fill="#000000"> myArray</text>
</g>
<!-- Node9 -->
<g id="node8" class="node">
<title>Node9</title>
<g id="a_node8"><a xlink:title="STL class. ">
<polygon fill="#ffffff" stroke="#bfbfbf" points="108.3545,-90.5 108.3545,-108.5 189.0273,-108.5 189.0273,-90.5 108.3545,-90.5"/>
<text text-anchor="middle" x="148.6909" y="-96.5" font-family="FreeSans" font-size="10.00" fill="#000000">std::array&lt; T &gt;</text>
</a>
</g>
</g>
<!-- Node9&#45;&gt;Node8 -->
<g id="edge7" class="edge">
<title>Node9&#45;&gt;Node8</title>
<path fill="none" stroke="#ffa500" stroke-dasharray="5,2" d="M199.1482,-99.5C236.3873,-99.5 287.3857,-99.5 327.7246,-99.5"/>
<polygon fill="#ffa500" stroke="#ffa500" points="199.0301,-96.0001 189.03,-99.5 199.03,-103.0001 199.0301,-96.0001"/>
<text text-anchor="middle" x="258.4458" y="-101.5" font-family="FreeSans" font-size="10.00" fill="#000000"> &lt; InternalScalar, dim &gt;</text>
</g>
<!-- Node10 -->
<g id="node9" class="node">
<title>Node10</title>
<polygon fill="#ffffff" stroke="#bfbfbf" points="0,-90.5 0,-108.5 29,-108.5 29,-90.5 0,-90.5"/>
<text text-anchor="middle" x="14.5" y="-96.5" font-family="FreeSans" font-size="10.00" fill="#000000">T</text>
</g>
<!-- Node10&#45;&gt;Node9 -->
<g id="edge8" class="edge">
<title>Node10&#45;&gt;Node9</title>
<path fill="none" stroke="#9a32cd" stroke-dasharray="5,2" d="M39.1956,-99.5C58.4766,-99.5 85.6719,-99.5 108.1355,-99.5"/>
<polygon fill="#9a32cd" stroke="#9a32cd" points="39.1163,-96.0001 29.1162,-99.5 39.1162,-103.0001 39.1163,-96.0001"/>
<text text-anchor="middle" x="68.6772" y="-101.5" font-family="FreeSans" font-size="10.00" fill="#000000"> elements</text>
</g>
<!-- Node11 -->
<g id="node10" class="node">
<title>Node11</title>
<g id="a_node10"><a xlink:href="classDGtal_1_1PointVector.html" target="_top" xlink:title="Aim: Implements basic operations that will be used in Point and Vector classes. ">
<polygon fill="#ffffff" stroke="#000000" points="333.2354,-.5 333.2354,-38.5 452.7217,-38.5 452.7217,-.5 333.2354,-.5"/>
<text text-anchor="start" x="341.2354" y="-26.5" font-family="FreeSans" font-size="10.00" fill="#000000">DGtal::PointVector</text>
<text text-anchor="start" x="341.2354" y="-16.5" font-family="FreeSans" font-size="10.00" fill="#000000">&lt; dim, TEuclideanRing,</text>
<text text-anchor="middle" x="392.9785" y="-6.5" font-family="FreeSans" font-size="10.00" fill="#000000"> TContainer &gt;</text>
</a>
</g>
</g>
<!-- Node11&#45;&gt;Node7 -->
<g id="edge9" class="edge">
<title>Node11&#45;&gt;Node7</title>
<path fill="none" stroke="#9a32cd" stroke-dasharray="5,2" d="M462.7457,-33.1658C467.2586,-33.977 471.7373,-34.7622 476.0928,-35.5 512.9444,-41.7426 554.6234,-47.8341 586.724,-52.318"/>
<polygon fill="#9a32cd" stroke="#9a32cd" points="463.3123,-29.7114 452.846,-31.3565 462.0538,-36.5974 463.3123,-29.7114"/>
<text text-anchor="middle" x="522.5088" y="-51.5" font-family="FreeSans" font-size="10.00" fill="#000000"> zero</text>
</g>
<!-- Node11&#45;&gt;Node7 -->
<g id="edge12" class="edge">
<title>Node11&#45;&gt;Node7</title>
<path fill="none" stroke="#ffa500" stroke-dasharray="5,2" d="M463.2991,-12.7028C495.9035,-11.4719 534.8835,-12.7602 568.9248,-21.5 587.3468,-26.2297 606.2411,-36.6587 619.9067,-45.3967"/>
<polygon fill="#ffa500" stroke="#ffa500" points="462.7779,-9.2232 452.9516,-13.1847 463.1036,-16.2156 462.7779,-9.2232"/>
<text text-anchor="middle" x="522.5088" y="-23.5" font-family="FreeSans" font-size="10.00" fill="#000000"> &lt; 3, InternalScalar &gt;</text>
</g>
<!-- Node11&#45;&gt;Node11 -->
<g id="edge11" class="edge">
<title>Node11&#45;&gt;Node11</title>
<path fill="none" stroke="#9a32cd" stroke-dasharray="5,2" d="M370.6969,-48.7834C373.8326,-53.6472 381.2598,-57 392.9785,-57 411.7285,-57 419.4922,-48.4169 416.2695,-38.7945"/>
<polygon fill="#9a32cd" stroke="#9a32cd" points="374.1752,-48.3919 369.6875,-38.7945 367.2107,-49.0958 374.1752,-48.3919"/>
<text text-anchor="middle" x="392.9785" y="-59" font-family="FreeSans" font-size="10.00" fill="#000000"> zero</text>
</g>
<!-- Node12 -->
<g id="node11" class="node">
<title>Node12</title>
<polygon fill="#ffffff" stroke="#bfbfbf" points="115.957,-10.5 115.957,-28.5 181.4248,-28.5 181.4248,-10.5 115.957,-10.5"/>
<text text-anchor="middle" x="148.6909" y="-16.5" font-family="FreeSans" font-size="10.00" fill="#000000">TContainer</text>
</g>
<!-- Node12&#45;&gt;Node11 -->
<g id="edge10" class="edge">
<title>Node12&#45;&gt;Node11</title>
<path fill="none" stroke="#9a32cd" stroke-dasharray="5,2" d="M191.6612,-19.5C230.8513,-19.5 289.1491,-19.5 332.938,-19.5"/>
<polygon fill="#9a32cd" stroke="#9a32cd" points="191.6367,-16.0001 181.6366,-19.5 191.6366,-23.0001 191.6367,-16.0001"/>
<text text-anchor="middle" x="258.4458" y="-21.5" font-family="FreeSans" font-size="10.00" fill="#000000"> myArray</text>
</g>
<!-- Node13 -->
<g id="node12" class="node">
<title>Node13</title>
<polygon fill="#ffffff" stroke="#bfbfbf" points="846.4321,-18.5 846.4321,-36.5 930.2397,-36.5 930.2397,-18.5 846.4321,-18.5"/>
<text text-anchor="middle" x="888.3359" y="-24.5" font-family="FreeSans" font-size="10.00" fill="#000000">TInternalScalar</text>
</g>
<!-- Node13&#45;&gt;Node2 -->
<g id="edge13" class="edge">
<title>Node13&#45;&gt;Node2</title>
<path fill="none" stroke="#9a32cd" stroke-dasharray="5,2" d="M940.6601,-30.1952C973.5929,-32.5447 1016.8501,-36.8304 1054.5557,-44.5 1081.0293,-49.885 1110.0599,-58.8358 1132.5335,-66.4649"/>
<polygon fill="#9a32cd" stroke="#9a32cd" points="940.5638,-26.6808 930.3505,-29.4986 940.0918,-33.6649 940.5638,-26.6808"/>
<text text-anchor="middle" x="1027.6001" y="-66.5" font-family="FreeSans" font-size="10.00" fill="#000000"> myWidth0</text>
<text text-anchor="middle" x="1027.6001" y="-56.5" font-family="FreeSans" font-size="10.00" fill="#000000">myWidth1</text>
<text text-anchor="middle" x="1027.6001" y="-46.5" font-family="FreeSans" font-size="10.00" fill="#000000">_d</text>
</g>
</g>
</svg>
        <g id="navigator" transform="translate(0 0)" fill="#404254">
                <rect fill="#f2f5e9" fill-opacity="0.5" stroke="#606060" stroke-width=".5" x="0" y="0" width="60" height="60"/>
                <use id="zoomplus" xlink:href="#zoomPlus" x="17" y="9" onmousedown="handleZoom(evt,'in')"/>
                <use id="zoomminus" xlink:href="#zoomMin" x="42" y="9" onmousedown="handleZoom(evt,'out')"/>
                <use id="reset" xlink:href="#resetDef" x="30" y="36" onmousedown="handleReset()"/>
                <g id="arrowUp" xlink:href="#dirArrow" transform="translate(30 24)" onmousedown="handlePan(0,-1)">
                  <use xlink:href="#rim" fill="#404040">
                        <set attributeName="fill" to="#808080" begin="arrowUp.mouseover" end="arrowUp.mouseout"/>
                  </use>
                  <path fill="none" stroke="white" stroke-width="1.5" d="M0,-3.0v7 M-2.5,-0.5L0,-3.0L2.5,-0.5"/>
                </g>
                <g id="arrowRight" xlink:href="#dirArrow" transform="rotate(90) translate(36 -43)" onmousedown="handlePan(1,0)">
                  <use xlink:href="#rim" fill="#404040">
                        <set attributeName="fill" to="#808080" begin="arrowRight.mouseover" end="arrowRight.mouseout"/>
                  </use>
                  <path fill="none" stroke="white" stroke-width="1.5" d="M0,-3.0v7 M-2.5,-0.5L0,-3.0L2.5,-0.5"/>
                </g>
                <g id="arrowDown" xlink:href="#dirArrow" transform="rotate(180) translate(-30 -48)" onmousedown="handlePan(0,1)">
                  <use xlink:href="#rim" fill="#404040">
                        <set attributeName="fill" to="#808080" begin="arrowDown.mouseover" end="arrowDown.mouseout"/>
                  </use>
                  <path fill="none" stroke="white" stroke-width="1.5" d="M0,-3.0v7 M-2.5,-0.5L0,-3.0L2.5,-0.5"/>
                </g>
                <g id="arrowLeft" xlink:href="#dirArrow" transform="rotate(270) translate(-36 17)" onmousedown="handlePan(-1,0)">
                  <use xlink:href="#rim" fill="#404040">
                        <set attributeName="fill" to="#808080" begin="arrowLeft.mouseover" end="arrowLeft.mouseout"/>
                  </use>
                  <path fill="none" stroke="white" stroke-width="1.5" d="M0,-3.0v7 M-2.5,-0.5L0,-3.0L2.5,-0.5"/>
                </g>
        </g>
        <svg viewBox="0 0 15 15" width="100%" height="30px" preserveAspectRatio="xMaxYMin meet">
         <g id="arrow_out" transform="scale(0.3 0.3)">
          <a xlink:href="classDGtal_1_1ChordNaivePlaneComputer__coll__graph_org.svg" target="_base">
           <rect id="button" ry="5" rx="5" y="6" x="6" height="38" width="38"
                fill="#f2f5e9" fill-opacity="0.5" stroke="#606060" stroke-width="1.0"/>
           <path id="arrow"
             d="M 11.500037,31.436501 C 11.940474,20.09759 22.043105,11.32322 32.158766,21.979434 L 37.068811,17.246167 C 37.068811,17.246167 37.088388,32 37.088388,32 L 22.160133,31.978069 C 22.160133,31.978069 26.997745,27.140456 26.997745,27.140456 C 18.528582,18.264221 13.291696,25.230495 11.500037,31.436501 z"
             style="fill:#404040;"/>
          </a>
         </g>
        </svg>
</svg>
