<?xml version="1.0" encoding="UTF-8" standalone="no"?>
<!DOCTYPE svg PUBLIC "-//W3C//DTD SVG 1.1//EN"
 "http://www.w3.org/Graphics/SVG/1.1/DTD/svg11.dtd">
<!-- Generated by graphviz version 2.40.1 (20161225.0304)
 -->
<!-- Title: Graphical Class Hierarchy Pages: 1 -->
<svg width="278pt" height="175pt"
 viewBox="0.00 0.00 277.77 175.00" xmlns="http://www.w3.org/2000/svg" xmlns:xlink="http://www.w3.org/1999/xlink">
<g id="graph0" class="graph" transform="scale(1 1) rotate(0) translate(4 171)">
<title>Graphical Class Hierarchy</title>
<polygon fill="#ffffff" stroke="transparent" points="-4,4 -4,-171 273.7676,-171 273.7676,4 -4,4"/>
<!-- Node769 -->
<g id="node1" class="node">
<title>Node769</title>
<g id="a_node1"><a xlink:title="STL class. ">
<polygon fill="#ffffff" stroke="#bfbfbf" points="0,-74.5 0,-92.5 77.7041,-92.5 77.7041,-74.5 0,-74.5"/>
<text text-anchor="middle" x="38.8521" y="-80.5" font-family="FreeSans" font-size="10.00" fill="#000000">std::exception</text>
</a>
</g>
</g>
<!-- Node0 -->
<g id="node2" class="node">
<title>Node0</title>
<g id="a_node2"><a xlink:href="classDGtal_1_1ConnectivityException.html" target="_top" xlink:title="DGtal::ConnectivityException">
<polygon fill="#ffffff" stroke="#000000" points="118.9849,-148.5 118.9849,-166.5 264.4868,-166.5 264.4868,-148.5 118.9849,-148.5"/>
<text text-anchor="middle" x="191.7358" y="-154.5" font-family="FreeSans" font-size="10.00" fill="#000000">DGtal::ConnectivityException</text>
</a>
</g>
</g>
<!-- Node769&#45;&gt;Node0 -->
<g id="edge1" class="edge">
<title>Node769&#45;&gt;Node0</title>
<path fill="none" stroke="#191970" d="M55.7133,-99.3879C70.0704,-112.0669 91.7992,-129.3341 113.7041,-139.5 121.5229,-143.1287 130.1315,-146.0555 138.6885,-148.4076"/>
<polygon fill="#191970" stroke="#191970" points="57.9243,-96.6682 48.1662,-92.5413 53.221,-101.8526 57.9243,-96.6682"/>
</g>
<!-- Node771 -->
<g id="node3" class="node">
<title>Node771</title>
<g id="a_node3"><a xlink:href="classDGtal_1_1InfiniteNumberException.html" target="_top" xlink:title="DGtal::InfiniteNumberException">
<polygon fill="#ffffff" stroke="#000000" points="113.7041,-111.5 113.7041,-129.5 269.7676,-129.5 269.7676,-111.5 113.7041,-111.5"/>
<text text-anchor="middle" x="191.7358" y="-117.5" font-family="FreeSans" font-size="10.00" fill="#000000">DGtal::InfiniteNumberException</text>
</a>
</g>
</g>
<!-- Node769&#45;&gt;Node771 -->
<g id="edge2" class="edge">
<title>Node769&#45;&gt;Node771</title>
<path fill="none" stroke="#191970" d="M83.8488,-95.0916C93.6782,-97.5762 104.0331,-100.1574 113.7041,-102.5 126.0002,-105.4784 139.4145,-108.6138 151.5983,-111.4182"/>
<polygon fill="#191970" stroke="#191970" points="84.4004,-91.6206 73.8465,-92.5513 82.6773,-98.4052 84.4004,-91.6206"/>
</g>
<!-- Node772 -->
<g id="node4" class="node">
<title>Node772</title>
<g id="a_node4"><a xlink:href="classDGtal_1_1InputException.html" target="_top" xlink:title="DGtal::InputException">
<polygon fill="#ffffff" stroke="#000000" points="135.0981,-74.5 135.0981,-92.5 248.3735,-92.5 248.3735,-74.5 135.0981,-74.5"/>
<text text-anchor="middle" x="191.7358" y="-80.5" font-family="FreeSans" font-size="10.00" fill="#000000">DGtal::InputException</text>
</a>
</g>
</g>
<!-- Node769&#45;&gt;Node772 -->
<g id="edge3" class="edge">
<title>Node769&#45;&gt;Node772</title>
<path fill="none" stroke="#191970" d="M87.9067,-83.5C102.8891,-83.5 119.4889,-83.5 134.94,-83.5"/>
<polygon fill="#191970" stroke="#191970" points="87.8267,-80.0001 77.8267,-83.5 87.8266,-87.0001 87.8267,-80.0001"/>
</g>
<!-- Node773 -->
<g id="node5" class="node">
<title>Node773</title>
<g id="a_node5"><a xlink:href="classDGtal_1_1IOException.html" target="_top" xlink:title="DGtal::IOException">
<polygon fill="#ffffff" stroke="#000000" points="140.9404,-37.5 140.9404,-55.5 242.5313,-55.5 242.5313,-37.5 140.9404,-37.5"/>
<text text-anchor="middle" x="191.7358" y="-43.5" font-family="FreeSans" font-size="10.00" fill="#000000">DGtal::IOException</text>
</a>
</g>
</g>
<!-- Node769&#45;&gt;Node773 -->
<g id="edge4" class="edge">
<title>Node769&#45;&gt;Node773</title>
<path fill="none" stroke="#191970" d="M86.0587,-72.0753C108.0562,-66.7516 133.8566,-60.5076 154.4577,-55.5218"/>
<polygon fill="#191970" stroke="#191970" points="85.1477,-68.6947 76.2516,-74.4488 86.7944,-75.4983 85.1477,-68.6947"/>
</g>
<!-- Node774 -->
<g id="node6" class="node">
<title>Node774</title>
<g id="a_node6"><a xlink:href="classDGtal_1_1MemoryException.html" target="_top" xlink:title="DGtal::MemoryException">
<polygon fill="#ffffff" stroke="#000000" points="128.1621,-.5 128.1621,-18.5 255.3096,-18.5 255.3096,-.5 128.1621,-.5"/>
<text text-anchor="middle" x="191.7358" y="-6.5" font-family="FreeSans" font-size="10.00" fill="#000000">DGtal::MemoryException</text>
</a>
</g>
</g>
<!-- Node769&#45;&gt;Node774 -->
<g id="edge5" class="edge">
<title>Node769&#45;&gt;Node774</title>
<path fill="none" stroke="#191970" d="M56.2844,-67.5575C70.691,-55.1933 92.2009,-38.5254 113.7041,-28.5 122.4236,-24.4347 132.1116,-21.1806 141.6125,-18.5956"/>
<polygon fill="#191970" stroke="#191970" points="53.8682,-65.0215 48.6766,-74.2572 58.4945,-70.2749 53.8682,-65.0215"/>
</g>
</g>
</svg>
