<?xml version="1.0" encoding="UTF-8" standalone="no"?>
<!DOCTYPE svg PUBLIC "-//W3C//DTD SVG 1.1//EN"
 "http://www.w3.org/Graphics/SVG/1.1/DTD/svg11.dtd">
<!-- Generated by graphviz version 2.40.1 (20161225.0304)
 -->
<!-- Title: DGtal::IntersectionTargetTrait&lt; TSpace, TSeparation, TDimension &gt; Pages: 1 -->
<svg width="195pt" height="122pt"
 viewBox="0.00 0.00 194.55 122.00" xmlns="http://www.w3.org/2000/svg" xmlns:xlink="http://www.w3.org/1999/xlink">
<g id="graph0" class="graph" transform="scale(1 1) rotate(0) translate(4 118)">
<title>DGtal::IntersectionTargetTrait&lt; TSpace, TSeparation, TDimension &gt;</title>
<polygon fill="#ffffff" stroke="transparent" points="-4,4 -4,-118 190.5474,-118 190.5474,4 -4,4"/>
<!-- Node0 -->
<g id="node1" class="node">
<title>Node0</title>
<polygon fill="#bfbfbf" stroke="#000000" points="2.5464,-75.5 2.5464,-113.5 143.7222,-113.5 143.7222,-75.5 2.5464,-75.5"/>
<text text-anchor="start" x="10.5464" y="-101.5" font-family="FreeSans" font-size="10.00" fill="#000000">DGtal::IntersectionTarget</text>
<text text-anchor="start" x="10.5464" y="-91.5" font-family="FreeSans" font-size="10.00" fill="#000000">Trait&lt; TSpace, TSeparation,</text>
<text text-anchor="middle" x="73.1343" y="-81.5" font-family="FreeSans" font-size="10.00" fill="#000000"> TDimension &gt;</text>
</g>
<!-- Node1 -->
<g id="node2" class="node">
<title>Node1</title>
<g id="a_node2"><a xlink:href="structDGtal_1_1IntersectionTargetTrait.html" target="_top" xlink:title="DGtal::IntersectionTarget\lTrait\&lt; Space, Separation, 1 \&gt;">
<polygon fill="#ffffff" stroke="#000000" points="0,-.5 0,-28.5 146.2686,-28.5 146.2686,-.5 0,-.5"/>
<text text-anchor="start" x="8" y="-16.5" font-family="FreeSans" font-size="10.00" fill="#000000">DGtal::IntersectionTarget</text>
<text text-anchor="middle" x="73.1343" y="-6.5" font-family="FreeSans" font-size="10.00" fill="#000000">Trait&lt; Space, Separation, 1 &gt;</text>
</a>
</g>
</g>
<!-- Node0&#45;&gt;Node1 -->
<g id="edge1" class="edge">
<title>Node0&#45;&gt;Node1</title>
<path fill="none" stroke="#ffa500" stroke-dasharray="5,2" d="M73.1343,-64.7707C73.1343,-52.4196 73.1343,-38.6672 73.1343,-28.6728"/>
<polygon fill="#ffa500" stroke="#ffa500" points="69.6344,-65.1342 73.1343,-75.1342 76.6344,-65.1343 69.6344,-65.1342"/>
<text text-anchor="middle" x="129.8408" y="-49" font-family="FreeSans" font-size="10.00" fill="#000000"> &lt; Space, Separation, 1 &gt;</text>
</g>
</g>
</svg>
