<?xml version="1.0" encoding="UTF-8" standalone="no"?>
<!DOCTYPE svg PUBLIC "-//W3C//DTD SVG 1.1//EN"
 "http://www.w3.org/Graphics/SVG/1.1/DTD/svg11.dtd">
<!-- Generated by graphviz version 2.40.1 (20161225.0304)
 -->
<!-- Title: testCombinDSS.cpp Pages: 1 -->
<!--zoomable 747 -->
<svg id="main" version="1.1" xmlns="http://www.w3.org/2000/svg" xmlns:xlink="http://www.w3.org/1999/xlink" xml:space="preserve" onload="init(evt)">
<style type="text/css"><![CDATA[
.edge:hover path { stroke: red; }
.edge:hover polygon { stroke: red; fill: red; }
]]></style>
<script type="text/javascript"><![CDATA[
var edges = document.getElementsByTagName('g');
if (edges && edges.length) {
  for (var i=0;i<edges.length;i++) {
    if (edges[i].id.substr(0,4)=='edge') {
      edges[i].setAttribute('class','edge');
    }
  }
}
]]></script>
        <defs>
                <circle id="rim" cx="0" cy="0" r="7"/>
                <circle id="rim2" cx="0" cy="0" r="3.5"/>
                <g id="zoomPlus">
                        <use xlink:href="#rim" fill="#404040">
                                <set attributeName="fill" to="#808080" begin="zoomplus.mouseover" end="zoomplus.mouseout"/>
                        </use>
                        <path d="M-4,0h8M0,-4v8" fill="none" stroke="white" stroke-width="1.5" pointer-events="none"/>
                </g>
                <g id="zoomMin">
                        <use xlink:href="#rim" fill="#404040">
                                <set attributeName="fill" to="#808080" begin="zoomminus.mouseover" end="zoomminus.mouseout"/>
                        </use>
                        <path d="M-4,0h8" fill="none" stroke="white" stroke-width="1.5" pointer-events="none"/>
                </g>
                <g id="dirArrow">
                        <path fill="none" stroke="white" stroke-width="1.5" d="M0,-3.0v7 M-2.5,-0.5L0,-3.0L2.5,-0.5"/>
                </g>
               <g id="resetDef">
                       <use xlink:href="#rim2" fill="#404040">
                               <set attributeName="fill" to="#808080" begin="reset.mouseover" end="reset.mouseout"/>
                       </use>
               </g>
        </defs>

<script type="text/javascript">
var viewWidth = 3318;
var viewHeight = 747;
var sectionId = 'dynsection-0';
</script>
<script xlink:href="svgpan.js"/>
<svg id="graph" class="graph">
<g id="viewport">
<title>testCombinDSS.cpp</title>
<polygon fill="#ffffff" stroke="transparent" points="-4,4 -4,-743 3313.793,-743 3313.793,4 -4,4"/>
<!-- Node0 -->
<g id="node1" class="node">
<title>Node0</title>
<polygon fill="#bfbfbf" stroke="#000000" points="2637.9805,-720.5 2637.9805,-738.5 2744.0195,-738.5 2744.0195,-720.5 2637.9805,-720.5"/>
<text text-anchor="middle" x="2691" y="-726.5" font-family="FreeSans" font-size="10.00" fill="#000000">testCombinDSS.cpp</text>
</g>
<!-- Node1 -->
<g id="node2" class="node">
<title>Node1</title>
<polygon fill="#ffffff" stroke="#bfbfbf" points="1409.8276,-.5 1409.8276,-18.5 1464.1724,-18.5 1464.1724,-.5 1409.8276,-.5"/>
<text text-anchor="middle" x="1437" y="-6.5" font-family="FreeSans" font-size="10.00" fill="#000000">iostream</text>
</g>
<!-- Node0&#45;&gt;Node1 -->
<g id="edge1" class="edge">
<title>Node0&#45;&gt;Node1</title>
<path fill="none" stroke="#191970" d="M2744.1793,-727.7094C2863.6618,-722.2414 3143,-700.7673 3143,-619.5 3143,-619.5 3143,-619.5 3143,-119.5 3143,-3.0282 3004.3322,-71.2532 2889,-55 2604.0763,-14.8471 1673.5343,-10.1248 1474.6293,-9.5727"/>
<polygon fill="#191970" stroke="#191970" points="1474.4111,-6.0722 1464.4021,-9.5462 1474.3929,-13.0722 1474.4111,-6.0722"/>
</g>
<!-- Node2 -->
<g id="node3" class="node">
<title>Node2</title>
<polygon fill="#ffffff" stroke="#bfbfbf" points="3171.3301,-665.5 3171.3301,-683.5 3220.6699,-683.5 3220.6699,-665.5 3171.3301,-665.5"/>
<text text-anchor="middle" x="3196" y="-671.5" font-family="FreeSans" font-size="10.00" fill="#000000">fstream</text>
</g>
<!-- Node0&#45;&gt;Node2 -->
<g id="edge2" class="edge">
<title>Node0&#45;&gt;Node2</title>
<path fill="none" stroke="#191970" d="M2744.0864,-726.7693C2830.9218,-721.7543 3008.5383,-709.1993 3157,-684 3158.2753,-683.7835 3159.5708,-683.5485 3160.8767,-683.2987"/>
<polygon fill="#191970" stroke="#191970" points="3161.8807,-686.6636 3170.9335,-681.1594 3160.4241,-679.8168 3161.8807,-686.6636"/>
</g>
<!-- Node3 -->
<g id="node4" class="node">
<title>Node3</title>
<polygon fill="#ffffff" stroke="#bfbfbf" points="2567.5,-365.5 2567.5,-383.5 2596.5,-383.5 2596.5,-365.5 2567.5,-365.5"/>
<text text-anchor="middle" x="2581.6108" y="-371.5" font-family="FreeSans" font-size="10.00" fill="#000000">list</text>
</g>
<!-- Node0&#45;&gt;Node3 -->
<g id="edge3" class="edge">
<title>Node0&#45;&gt;Node3</title>
<path fill="none" stroke="#191970" d="M2677.2942,-720.3996C2653.7199,-703.5304 2608,-664.9551 2608,-619.5 2608,-619.5 2608,-619.5 2608,-564.5 2608,-501.3854 2593.7428,-427.5575 2586.3436,-393.492"/>
<polygon fill="#191970" stroke="#191970" points="2589.7168,-392.5373 2584.1277,-383.5366 2582.884,-394.0582 2589.7168,-392.5373"/>
</g>
<!-- Node4 -->
<g id="node5" class="node">
<title>Node4</title>
<polygon fill="#ffffff" stroke="#bfbfbf" points="1965.3843,-430.5 1965.3843,-448.5 2008.6157,-448.5 2008.6157,-430.5 1965.3843,-430.5"/>
<text text-anchor="middle" x="1987" y="-436.5" font-family="FreeSans" font-size="10.00" fill="#000000">vector</text>
</g>
<!-- Node0&#45;&gt;Node4 -->
<g id="edge4" class="edge">
<title>Node0&#45;&gt;Node4</title>
<path fill="none" stroke="#191970" d="M2637.8653,-728.3979C2491.1704,-724.9946 2087.9398,-713.0746 2036,-684 2005.276,-666.8015 1990,-654.7101 1990,-619.5 1990,-619.5 1990,-619.5 1990,-564.5 1990,-527.0204 1988.6354,-483.2378 1987.7469,-458.7024"/>
<polygon fill="#191970" stroke="#191970" points="1991.2402,-458.4568 1987.3679,-448.595 1984.2451,-458.7192 1991.2402,-458.4568"/>
</g>
<!-- Node5 -->
<g id="node6" class="node">
<title>Node5</title>
<g id="a_node6"><a xlink:href="Common_8h_source.html" target="_top" xlink:title="DGtal/base/Common.h">
<polygon fill="#ffffff" stroke="#000000" points="1508.1455,-230.5 1508.1455,-248.5 1625.8545,-248.5 1625.8545,-230.5 1508.1455,-230.5"/>
<text text-anchor="middle" x="1567" y="-236.5" font-family="FreeSans" font-size="10.00" fill="#000000">DGtal/base/Common.h</text>
</a>
</g>
</g>
<!-- Node0&#45;&gt;Node5 -->
<g id="edge5" class="edge">
<title>Node0&#45;&gt;Node5</title>
<path fill="none" stroke="#191970" d="M2687.2748,-720.2576C2680.0856,-701.5597 2665,-657.7657 2665,-619.5 2665,-619.5 2665,-619.5 2665,-504.5 2665,-434.9615 2658.0651,-404.9411 2605,-360 2492.5378,-264.7552 2427.8099,-306.4189 2282,-285 2158.7695,-266.8979 1790.7548,-249.272 1636.3736,-242.4561"/>
<polygon fill="#191970" stroke="#191970" points="1636.2199,-238.9461 1626.0759,-242.0036 1635.9125,-245.9393 1636.2199,-238.9461"/>
</g>
<!-- Node45 -->
<g id="node29" class="node">
<title>Node45</title>
<g id="a_node29"><a xlink:href="StdDefs_8h_source.html" target="_top" xlink:title="DGtal/helpers/StdDefs.h">
<polygon fill="#ffffff" stroke="#000000" points="944.0864,-555.5 944.0864,-573.5 1067.9136,-573.5 1067.9136,-555.5 944.0864,-555.5"/>
<text text-anchor="middle" x="1006" y="-561.5" font-family="FreeSans" font-size="10.00" fill="#000000">DGtal/helpers/StdDefs.h</text>
</a>
</g>
</g>
<!-- Node0&#45;&gt;Node45 -->
<g id="edge48" class="edge">
<title>Node0&#45;&gt;Node45</title>
<path fill="none" stroke="#191970" d="M2637.5497,-727.1565C2518.5444,-721.7071 2222.7748,-706.8799 1976,-684 1774.9329,-665.3579 1725.4163,-653.6741 1525,-629 1365.5617,-609.3709 1178.6112,-586.0663 1078.329,-573.542"/>
<polygon fill="#191970" stroke="#191970" points="1078.6649,-570.0568 1068.3082,-572.2903 1077.7973,-577.0028 1078.6649,-570.0568"/>
</g>
<!-- Node163 -->
<g id="node42" class="node">
<title>Node163</title>
<g id="a_node42"><a xlink:href="Board2D_8h_source.html" target="_top" xlink:title="DGtal/io/boards/Board2D.h">
<polygon fill="#ffffff" stroke="#ff0000" points="2044.9683,-665.5 2044.9683,-683.5 2181.0317,-683.5 2181.0317,-665.5 2044.9683,-665.5"/>
<text text-anchor="middle" x="2113" y="-671.5" font-family="FreeSans" font-size="10.00" fill="#000000">DGtal/io/boards/Board2D.h</text>
</a>
</g>
</g>
<!-- Node0&#45;&gt;Node163 -->
<g id="edge97" class="edge">
<title>Node0&#45;&gt;Node163</title>
<path fill="none" stroke="#191970" d="M2637.9169,-724.4488C2535.6842,-714.7208 2311.034,-693.3441 2191.4731,-681.9672"/>
<polygon fill="#191970" stroke="#191970" points="2191.5791,-678.4615 2181.2924,-680.9984 2190.9159,-685.43 2191.5791,-678.4615"/>
</g>
<!-- Node210 -->
<g id="node45" class="node">
<title>Node210</title>
<g id="a_node45"><a xlink:href="ArithmeticalDSSComputer_8h_source.html" target="_top" xlink:title="Header file for module ArithmeticalDSSComputer.cpp. ">
<polygon fill="#ffffff" stroke="#ff0000" points="2367.3623,-425.5 2367.3623,-453.5 2510.6377,-453.5 2510.6377,-425.5 2367.3623,-425.5"/>
<text text-anchor="start" x="2375.3623" y="-441.5" font-family="FreeSans" font-size="10.00" fill="#000000">DGtal/geometry/curves</text>
<text text-anchor="middle" x="2439" y="-431.5" font-family="FreeSans" font-size="10.00" fill="#000000">/ArithmeticalDSSComputer.h</text>
</a>
</g>
</g>
<!-- Node0&#45;&gt;Node210 -->
<g id="edge127" class="edge">
<title>Node0&#45;&gt;Node210</title>
<path fill="none" stroke="#191970" d="M2660.8937,-720.3853C2640.3305,-713.0365 2613.4007,-701.0912 2594,-684 2520.2183,-619.0014 2468.681,-510.5494 2448.4809,-463.0242"/>
<polygon fill="#191970" stroke="#191970" points="2451.6247,-461.4694 2444.5441,-453.588 2445.1644,-464.1647 2451.6247,-461.4694"/>
</g>
<!-- Node321 -->
<g id="node47" class="node">
<title>Node321</title>
<g id="a_node47"><a xlink:href="OneBalancedWordComputer_8h_source.html" target="_top" xlink:title="Dynamical recognition of DSS on FreemanChain code. ">
<polygon fill="#ffffff" stroke="#ff0000" points="2642.603,-290.5 2642.603,-318.5 2797.397,-318.5 2797.397,-290.5 2642.603,-290.5"/>
<text text-anchor="start" x="2650.603" y="-306.5" font-family="FreeSans" font-size="10.00" fill="#000000">DGtal/geometry/curves</text>
<text text-anchor="middle" x="2720" y="-296.5" font-family="FreeSans" font-size="10.00" fill="#000000">/OneBalancedWordComputer.h</text>
</a>
</g>
</g>
<!-- Node0&#45;&gt;Node321 -->
<g id="edge124" class="edge">
<title>Node0&#45;&gt;Node321</title>
<path fill="none" stroke="#191970" d="M2693.7809,-720.4745C2699.2764,-701.8132 2711,-657.5442 2711,-619.5 2711,-619.5 2711,-619.5 2711,-439.5 2711,-400.6872 2714.7494,-355.7364 2717.4081,-328.7406"/>
<polygon fill="#191970" stroke="#191970" points="2720.9027,-328.9706 2718.4323,-318.6678 2713.9386,-328.2624 2720.9027,-328.9706"/>
</g>
<!-- Node323 -->
<g id="node48" class="node">
<title>Node323</title>
<polygon fill="#ffffff" stroke="#bfbfbf" points="3238.207,-665.5 3238.207,-683.5 3309.793,-683.5 3309.793,-665.5 3238.207,-665.5"/>
<text text-anchor="middle" x="3274" y="-671.5" font-family="FreeSans" font-size="10.00" fill="#000000">ConfigTest.h</text>
</g>
<!-- Node0&#45;&gt;Node323 -->
<g id="edge128" class="edge">
<title>Node0&#45;&gt;Node323</title>
<path fill="none" stroke="#191970" d="M2744.0516,-727.2842C2839.2415,-722.8158 3045.4447,-710.8975 3227.9993,-684.1469"/>
<polygon fill="#191970" stroke="#191970" points="3228.6729,-687.5854 3238.0508,-682.6553 3227.6453,-680.6612 3228.6729,-687.5854"/>
</g>
<!-- Node324 -->
<g id="node49" class="node">
<title>Node324</title>
<g id="a_node49"><a xlink:href="CDynamicBidirectionalSegmentComputer_8h_source.html" target="_top" xlink:title="DGtal/geometry/curves\l/CDynamicBidirectionalSegment\lComputer.h">
<polygon fill="#ffffff" stroke="#ff0000" points="2815.3032,-285.5 2815.3032,-323.5 2974.6968,-323.5 2974.6968,-285.5 2815.3032,-285.5"/>
<text text-anchor="start" x="2823.3032" y="-311.5" font-family="FreeSans" font-size="10.00" fill="#000000">DGtal/geometry/curves</text>
<text text-anchor="start" x="2823.3032" y="-301.5" font-family="FreeSans" font-size="10.00" fill="#000000">/CDynamicBidirectionalSegment</text>
<text text-anchor="middle" x="2895" y="-291.5" font-family="FreeSans" font-size="10.00" fill="#000000">Computer.h</text>
</a>
</g>
</g>
<!-- Node0&#45;&gt;Node324 -->
<g id="edge129" class="edge">
<title>Node0&#45;&gt;Node324</title>
<path fill="none" stroke="#191970" d="M2718.4619,-720.4277C2756.8753,-705.803 2822,-673.1043 2822,-619.5 2822,-619.5 2822,-619.5 2822,-439.5 2822,-398.1467 2848.8314,-357.3155 2869.9605,-331.5729"/>
<polygon fill="#191970" stroke="#191970" points="2872.7836,-333.6553 2876.579,-323.7636 2867.4435,-329.1295 2872.7836,-333.6553"/>
</g>
<!-- Node331 -->
<g id="node50" class="node">
<title>Node331</title>
<g id="a_node50"><a xlink:href="GreedySegmentation_8h_source.html" target="_top" xlink:title="Header file for module GreedySegmentation.cpp. ">
<polygon fill="#ffffff" stroke="#ff0000" points="2993.1899,-290.5 2993.1899,-318.5 3114.8101,-318.5 3114.8101,-290.5 2993.1899,-290.5"/>
<text text-anchor="start" x="3001.1899" y="-306.5" font-family="FreeSans" font-size="10.00" fill="#000000">DGtal/geometry/curves</text>
<text text-anchor="middle" x="3054" y="-296.5" font-family="FreeSans" font-size="10.00" fill="#000000">/GreedySegmentation.h</text>
</a>
</g>
</g>
<!-- Node0&#45;&gt;Node331 -->
<g id="edge132" class="edge">
<title>Node0&#45;&gt;Node331</title>
<path fill="none" stroke="#191970" d="M2736.4248,-720.4792C2812.3976,-704.0767 2957,-666.6625 2957,-619.5 2957,-619.5 2957,-619.5 2957,-439.5 2957,-391.6935 2997.6131,-349.2313 3026.2808,-325.2134"/>
<polygon fill="#191970" stroke="#191970" points="3028.8084,-327.6699 3034.3706,-318.6526 3024.3991,-322.2331 3028.8084,-327.6699"/>
</g>
<!-- Node5&#45;&gt;Node1 -->
<g id="edge6" class="edge">
<title>Node5&#45;&gt;Node1</title>
<path fill="none" stroke="#191970" d="M1596.8777,-230.4538C1622.0772,-222.3348 1658.7661,-209.3523 1689,-194 1709.8829,-183.396 1712.6184,-176.5383 1733,-165 1765.1762,-146.7846 1788.3084,-160.2946 1808,-129 1821.9536,-106.8244 1799.2241,-64.6383 1787,-55 1762.7498,-35.8796 1559.6551,-18.6578 1474.4222,-12.2011"/>
<polygon fill="#191970" stroke="#191970" points="1474.6274,-8.7067 1464.3939,-11.45 1474.1045,-15.6872 1474.6274,-8.7067"/>
</g>
<!-- Node6 -->
<g id="node7" class="node">
<title>Node6</title>
<polygon fill="#ffffff" stroke="#bfbfbf" points="1359.5962,-170.5 1359.5962,-188.5 1418.4038,-188.5 1418.4038,-170.5 1359.5962,-170.5"/>
<text text-anchor="middle" x="1389" y="-176.5" font-family="FreeSans" font-size="10.00" fill="#000000">exception</text>
</g>
<!-- Node5&#45;&gt;Node6 -->
<g id="edge7" class="edge">
<title>Node5&#45;&gt;Node6</title>
<path fill="none" stroke="#191970" d="M1538.1369,-230.4196C1509.9451,-221.4638 1465.8738,-207.2336 1428,-194 1426.1588,-193.3567 1424.2721,-192.6877 1422.3701,-192.0057"/>
<polygon fill="#191970" stroke="#191970" points="1423.4649,-188.6797 1412.871,-188.5454 1421.069,-195.2568 1423.4649,-188.6797"/>
</g>
<!-- Node7 -->
<g id="node8" class="node">
<title>Node7</title>
<polygon fill="#ffffff" stroke="#bfbfbf" points="2200.436,-55.5 2200.436,-73.5 2257.564,-73.5 2257.564,-55.5 2200.436,-55.5"/>
<text text-anchor="middle" x="2229" y="-61.5" font-family="FreeSans" font-size="10.00" fill="#000000">algorithm</text>
</g>
<!-- Node5&#45;&gt;Node7 -->
<g id="edge8" class="edge">
<title>Node5&#45;&gt;Node7</title>
<path fill="none" stroke="#191970" d="M1626.0531,-238.4759C1769.5631,-235.5079 2128.1159,-225.0395 2172,-194 2208.6483,-168.0784 2222.0199,-113.176 2226.6717,-83.8766"/>
<polygon fill="#191970" stroke="#191970" points="2230.1775,-84.0784 2228.0973,-73.6898 2223.245,-83.1082 2230.1775,-84.0784"/>
</g>
<!-- Node8 -->
<g id="node9" class="node">
<title>Node8</title>
<polygon fill="#ffffff" stroke="#bfbfbf" points="1784.5298,-170.5 1784.5298,-188.5 1879.4702,-188.5 1879.4702,-170.5 1784.5298,-170.5"/>
<text text-anchor="middle" x="1832" y="-176.5" font-family="FreeSans" font-size="10.00" fill="#000000">boost/version.hpp</text>
</g>
<!-- Node5&#45;&gt;Node8 -->
<g id="edge9" class="edge">
<title>Node5&#45;&gt;Node8</title>
<path fill="none" stroke="#191970" d="M1608.4537,-230.4315C1649.6985,-221.3669 1714.7763,-206.9517 1771,-194 1775.3541,-192.997 1779.8801,-191.9429 1784.411,-190.8798"/>
<polygon fill="#191970" stroke="#191970" points="1785.3431,-194.2561 1794.273,-188.5546 1783.7366,-187.4429 1785.3431,-194.2561"/>
</g>
<!-- Node9 -->
<g id="node10" class="node">
<title>Node9</title>
<polygon fill="#ffffff" stroke="#bfbfbf" points="1897.2935,-170.5 1897.2935,-188.5 2026.7065,-188.5 2026.7065,-170.5 1897.2935,-170.5"/>
<text text-anchor="middle" x="1962" y="-176.5" font-family="FreeSans" font-size="10.00" fill="#000000">boost/concept_check.hpp</text>
</g>
<!-- Node5&#45;&gt;Node9 -->
<g id="edge10" class="edge">
<title>Node5&#45;&gt;Node9</title>
<path fill="none" stroke="#191970" d="M1626.0127,-232.0831C1690.5152,-223.7554 1796.8384,-209.3812 1888,-194 1894.3537,-192.928 1900.9996,-191.7322 1907.5905,-190.4999"/>
<polygon fill="#191970" stroke="#191970" points="1908.6837,-193.8547 1917.8525,-188.5458 1907.3742,-186.9782 1908.6837,-193.8547"/>
</g>
<!-- Node10 -->
<g id="node11" class="node">
<title>Node10</title>
<polygon fill="#ffffff" stroke="#bfbfbf" points="2044.5815,-170.5 2044.5815,-188.5 2163.4185,-188.5 2163.4185,-170.5 2044.5815,-170.5"/>
<text text-anchor="middle" x="2104" y="-176.5" font-family="FreeSans" font-size="10.00" fill="#000000">boost/static_assert.hpp</text>
</g>
<!-- Node5&#45;&gt;Node10 -->
<g id="edge11" class="edge">
<title>Node5&#45;&gt;Node10</title>
<path fill="none" stroke="#191970" d="M1626.1287,-235.9225C1715.3296,-230.0388 1889.468,-216.6561 2036,-194 2042.2628,-193.0317 2048.8168,-191.8507 2055.2791,-190.585"/>
<polygon fill="#191970" stroke="#191970" points="2056.2027,-193.9688 2065.3037,-188.5447 2054.8065,-187.1095 2056.2027,-193.9688"/>
</g>
<!-- Node11 -->
<g id="node12" class="node">
<title>Node11</title>
<polygon fill="#ffffff" stroke="#bfbfbf" points="629.1309,-170.5 629.1309,-188.5 756.8691,-188.5 756.8691,-170.5 629.1309,-170.5"/>
<text text-anchor="middle" x="693" y="-176.5" font-family="FreeSans" font-size="10.00" fill="#000000">boost/concept/assert.hpp</text>
</g>
<!-- Node5&#45;&gt;Node11 -->
<g id="edge12" class="edge">
<title>Node5&#45;&gt;Node11</title>
<path fill="none" stroke="#191970" d="M1507.9547,-238.9557C1374.9615,-237.1163 1042.0051,-229.077 766,-194 758.6026,-193.0599 750.8305,-191.8067 743.2287,-190.4295"/>
<polygon fill="#191970" stroke="#191970" points="743.8559,-186.9861 733.3792,-188.5633 742.5528,-193.8638 743.8559,-186.9861"/>
</g>
<!-- Node12 -->
<g id="node13" class="node">
<title>Node12</title>
<polygon fill="#ffffff" stroke="#bfbfbf" points="774.6826,-170.5 774.6826,-188.5 911.3174,-188.5 911.3174,-170.5 774.6826,-170.5"/>
<text text-anchor="middle" x="843" y="-176.5" font-family="FreeSans" font-size="10.00" fill="#000000">boost/concept/requires.hpp</text>
</g>
<!-- Node5&#45;&gt;Node12 -->
<g id="edge13" class="edge">
<title>Node5&#45;&gt;Node12</title>
<path fill="none" stroke="#191970" d="M1507.8958,-237.6365C1393.8258,-233.5333 1135.5427,-221.7785 920,-194 912.2213,-192.9975 904.0408,-191.7111 896.0339,-190.3195"/>
<polygon fill="#191970" stroke="#191970" points="896.4906,-186.8454 886.028,-188.514 895.2475,-193.7342 896.4906,-186.8454"/>
</g>
<!-- Node13 -->
<g id="node14" class="node">
<title>Node13</title>
<polygon fill="#ffffff" stroke="#bfbfbf" points="928.8672,-165.5 928.8672,-193.5 1037.1328,-193.5 1037.1328,-165.5 928.8672,-165.5"/>
<text text-anchor="start" x="936.8672" y="-181.5" font-family="FreeSans" font-size="10.00" fill="#000000">boost/iterator/iterator</text>
<text text-anchor="middle" x="983" y="-171.5" font-family="FreeSans" font-size="10.00" fill="#000000">_concepts.hpp</text>
</g>
<!-- Node5&#45;&gt;Node13 -->
<g id="edge14" class="edge">
<title>Node5&#45;&gt;Node13</title>
<path fill="none" stroke="#191970" d="M1508.0759,-237.0274C1413.0305,-232.4528 1219.8986,-220.7363 1047.2342,-194.0503"/>
<polygon fill="#191970" stroke="#191970" points="1047.6238,-190.5687 1037.2026,-192.4791 1046.5406,-197.4844 1047.6238,-190.5687"/>
</g>
<!-- Node14 -->
<g id="node15" class="node">
<title>Node14</title>
<polygon fill="#ffffff" stroke="#bfbfbf" points="1055.397,-170.5 1055.397,-188.5 1202.603,-188.5 1202.603,-170.5 1055.397,-170.5"/>
<text text-anchor="middle" x="1129" y="-176.5" font-family="FreeSans" font-size="10.00" fill="#000000">boost/concept_archetype.hpp</text>
</g>
<!-- Node5&#45;&gt;Node14 -->
<g id="edge15" class="edge">
<title>Node5&#45;&gt;Node14</title>
<path fill="none" stroke="#191970" d="M1507.9815,-232.834C1437.2641,-224.6441 1315.2557,-209.8708 1211,-194 1203.5468,-192.8654 1195.7274,-191.5914 1188.0004,-190.2818"/>
<polygon fill="#191970" stroke="#191970" points="1188.3831,-186.7962 1177.9341,-188.5484 1187.1951,-193.6947 1188.3831,-186.7962"/>
</g>
<!-- Node15 -->
<g id="node16" class="node">
<title>Node15</title>
<polygon fill="#ffffff" stroke="#bfbfbf" points="553.3843,-110.5 553.3843,-128.5 596.6157,-128.5 596.6157,-110.5 553.3843,-110.5"/>
<text text-anchor="middle" x="575" y="-116.5" font-family="FreeSans" font-size="10.00" fill="#000000">cmath</text>
</g>
<!-- Node5&#45;&gt;Node15 -->
<g id="edge16" class="edge">
<title>Node5&#45;&gt;Node15</title>
<path fill="none" stroke="#191970" d="M1508.0963,-238.7959C1301.6519,-236.0667 621.4656,-224.7661 587,-194 571.8476,-180.474 570.6471,-156.0064 572.0569,-138.8111"/>
<polygon fill="#191970" stroke="#191970" points="575.5482,-139.0899 573.2399,-128.7496 568.5961,-138.2725 575.5482,-139.0899"/>
</g>
<!-- Node16 -->
<g id="node17" class="node">
<title>Node16</title>
<polygon fill="#ffffff" stroke="#bfbfbf" points="1220.2686,-170.5 1220.2686,-188.5 1265.7314,-188.5 1265.7314,-170.5 1220.2686,-170.5"/>
<text text-anchor="middle" x="1243" y="-176.5" font-family="FreeSans" font-size="10.00" fill="#000000">stdio.h</text>
</g>
<!-- Node5&#45;&gt;Node16 -->
<g id="edge17" class="edge">
<title>Node5&#45;&gt;Node16</title>
<path fill="none" stroke="#191970" d="M1507.951,-233.9138C1449.3714,-227.4938 1357.4057,-215.0367 1280,-194 1277.8362,-193.4119 1275.6255,-192.7395 1273.4147,-192.0136"/>
<polygon fill="#191970" stroke="#191970" points="1274.4605,-188.6704 1263.866,-188.5844 1272.0946,-195.2584 1274.4605,-188.6704"/>
</g>
<!-- Node17 -->
<g id="node18" class="node">
<title>Node17</title>
<g id="a_node18"><a xlink:href="Config_8h_source.html" target="_top" xlink:title="DGtal/base/Config.h">
<polygon fill="#ffffff" stroke="#ff0000" points="1302.9756,-55.5 1302.9756,-73.5 1409.0244,-73.5 1409.0244,-55.5 1302.9756,-55.5"/>
<text text-anchor="middle" x="1356" y="-61.5" font-family="FreeSans" font-size="10.00" fill="#000000">DGtal/base/Config.h</text>
</a>
</g>
</g>
<!-- Node5&#45;&gt;Node17 -->
<g id="edge18" class="edge">
<title>Node5&#45;&gt;Node17</title>
<path fill="none" stroke="#191970" d="M1566.6459,-230.4411C1565.6631,-215.5567 1561.9577,-185.5324 1548,-165 1515.0621,-116.5467 1451.1523,-89.854 1406.1382,-76.377"/>
<polygon fill="#191970" stroke="#191970" points="1406.8483,-72.9395 1396.2707,-73.5422 1404.9155,-79.6674 1406.8483,-72.9395"/>
</g>
<!-- Node19 -->
<g id="node19" class="node">
<title>Node19</title>
<g id="a_node19"><a xlink:href="Trace_8h_source.html" target="_top" xlink:title="DGtal/base/Trace.h">
<polygon fill="#ffffff" stroke="#ff0000" points="1436.8311,-170.5 1436.8311,-188.5 1539.1689,-188.5 1539.1689,-170.5 1436.8311,-170.5"/>
<text text-anchor="middle" x="1488" y="-176.5" font-family="FreeSans" font-size="10.00" fill="#000000">DGtal/base/Trace.h</text>
</a>
</g>
</g>
<!-- Node5&#45;&gt;Node19 -->
<g id="edge20" class="edge">
<title>Node5&#45;&gt;Node19</title>
<path fill="none" stroke="#191970" d="M1555.0016,-230.3873C1542.5171,-220.9054 1522.756,-205.897 1507.9237,-194.6319"/>
<polygon fill="#191970" stroke="#191970" points="1509.933,-191.7629 1499.8525,-188.5019 1505.6991,-197.3374 1509.933,-191.7629"/>
</g>
<!-- Node26 -->
<g id="node20" class="node">
<title>Node26</title>
<g id="a_node20"><a xlink:href="TraceWriterTerm_8h_source.html" target="_top" xlink:title="DGtal/base/TraceWriterTerm.h">
<polygon fill="#ffffff" stroke="#ff0000" points="1166.478,-110.5 1166.478,-128.5 1317.522,-128.5 1317.522,-110.5 1166.478,-110.5"/>
<text text-anchor="middle" x="1242" y="-116.5" font-family="FreeSans" font-size="10.00" fill="#000000">DGtal/base/TraceWriterTerm.h</text>
</a>
</g>
</g>
<!-- Node5&#45;&gt;Node26 -->
<g id="edge28" class="edge">
<title>Node5&#45;&gt;Node26</title>
<path fill="none" stroke="#191970" d="M1507.9816,-234.7122C1461.2922,-229.2629 1395.3127,-217.8024 1342,-194 1309.4536,-179.4691 1277.4098,-152.8155 1258.6832,-135.6416"/>
<polygon fill="#191970" stroke="#191970" points="1260.9762,-132.9938 1251.286,-128.7101 1256.1899,-138.1017 1260.9762,-132.9938"/>
</g>
<!-- Node27 -->
<g id="node21" class="node">
<title>Node27</title>
<g id="a_node21"><a xlink:href="Assert_8h_source.html" target="_top" xlink:title="DGtal/base/Assert.h">
<polygon fill="#ffffff" stroke="#ff0000" points="1335.2588,-110.5 1335.2588,-128.5 1440.7412,-128.5 1440.7412,-110.5 1335.2588,-110.5"/>
<text text-anchor="middle" x="1388" y="-116.5" font-family="FreeSans" font-size="10.00" fill="#000000">DGtal/base/Assert.h</text>
</a>
</g>
</g>
<!-- Node5&#45;&gt;Node27 -->
<g id="edge31" class="edge">
<title>Node5&#45;&gt;Node27</title>
<path fill="none" stroke="#191970" d="M1508.1355,-235.2759C1451.1083,-229.8137 1370.4666,-217.9944 1351,-194 1336.5349,-176.1704 1354.3066,-151.753 1369.8538,-135.8069"/>
<polygon fill="#191970" stroke="#191970" points="1372.4141,-138.1995 1377.1564,-128.7253 1367.541,-133.1743 1372.4141,-138.1995"/>
</g>
<!-- Node30 -->
<g id="node22" class="node">
<title>Node30</title>
<g id="a_node22"><a xlink:href="TraceWriterFile_8h_source.html" target="_top" xlink:title="DGtal/base/TraceWriterFile.h">
<polygon fill="#ffffff" stroke="#ff0000" points="1464.5322,-55.5 1464.5322,-73.5 1609.4678,-73.5 1609.4678,-55.5 1464.5322,-55.5"/>
<text text-anchor="middle" x="1537" y="-61.5" font-family="FreeSans" font-size="10.00" fill="#000000">DGtal/base/TraceWriterFile.h</text>
</a>
</g>
</g>
<!-- Node5&#45;&gt;Node30 -->
<g id="edge29" class="edge">
<title>Node5&#45;&gt;Node30</title>
<path fill="none" stroke="#191970" d="M1570.8921,-230.2974C1579.5086,-208.4945 1598.1266,-152.3474 1581,-110 1576.2685,-98.3007 1566.9272,-87.9414 1558.0643,-80.0742"/>
<polygon fill="#191970" stroke="#191970" points="1560.1443,-77.2528 1550.2053,-73.583 1555.6865,-82.6499 1560.1443,-77.2528"/>
</g>
<!-- Node31 -->
<g id="node23" class="node">
<title>Node31</title>
<g id="a_node23"><a xlink:href="ConceptUtils_8h_source.html" target="_top" xlink:title="DGtal/base/ConceptUtils.h">
<polygon fill="#ffffff" stroke="#000000" points="1627.084,-55.5 1627.084,-73.5 1760.916,-73.5 1760.916,-55.5 1627.084,-55.5"/>
<text text-anchor="middle" x="1694" y="-61.5" font-family="FreeSans" font-size="10.00" fill="#000000">DGtal/base/ConceptUtils.h</text>
</a>
</g>
</g>
<!-- Node5&#45;&gt;Node31 -->
<g id="edge32" class="edge">
<title>Node5&#45;&gt;Node31</title>
<path fill="none" stroke="#191970" d="M1573.8281,-230.0912C1594.2517,-201.9485 1655.0852,-118.1228 1681.5128,-81.7067"/>
<polygon fill="#191970" stroke="#191970" points="1684.4041,-83.6817 1687.4449,-73.5326 1678.7387,-79.5703 1684.4041,-83.6817"/>
</g>
<!-- Node32 -->
<g id="node24" class="node">
<title>Node32</title>
<g id="a_node24"><a xlink:href="BasicTypes_8h_source.html" target="_top" xlink:title="DGtal/base/BasicTypes.h">
<polygon fill="#ffffff" stroke="#ff0000" points="1670.8599,-110.5 1670.8599,-128.5 1799.1401,-128.5 1799.1401,-110.5 1670.8599,-110.5"/>
<text text-anchor="middle" x="1735" y="-116.5" font-family="FreeSans" font-size="10.00" fill="#000000">DGtal/base/BasicTypes.h</text>
</a>
</g>
</g>
<!-- Node5&#45;&gt;Node32 -->
<g id="edge34" class="edge">
<title>Node5&#45;&gt;Node32</title>
<path fill="none" stroke="#191970" d="M1589.4819,-230.3539C1608.3407,-222.1739 1635.5536,-209.158 1657,-194 1681.2212,-176.8807 1705.3293,-152.4263 1720.1923,-136.2667"/>
<polygon fill="#191970" stroke="#191970" points="1722.9635,-138.4204 1727.0735,-128.6552 1717.7709,-133.726 1722.9635,-138.4204"/>
</g>
<!-- Node35 -->
<g id="node25" class="node">
<title>Node35</title>
<g id="a_node25"><a xlink:href="BasicFunctors_8h_source.html" target="_top" xlink:title="DGtal/base/BasicFunctors.h">
<polygon fill="#ffffff" stroke="#ff0000" points="2218.7515,-170.5 2218.7515,-188.5 2359.2485,-188.5 2359.2485,-170.5 2218.7515,-170.5"/>
<text text-anchor="middle" x="2289" y="-176.5" font-family="FreeSans" font-size="10.00" fill="#000000">DGtal/base/BasicFunctors.h</text>
</a>
</g>
</g>
<!-- Node5&#45;&gt;Node35 -->
<g id="edge36" class="edge">
<title>Node5&#45;&gt;Node35</title>
<path fill="none" stroke="#191970" d="M1626.1507,-237.0289C1737.8848,-232.1348 1987.1096,-219.4137 2196,-194 2204.6457,-192.9482 2213.7556,-191.6136 2222.7687,-190.182"/>
<polygon fill="#191970" stroke="#191970" points="2223.5675,-193.598 2232.8738,-188.5342 2222.4408,-186.6893 2223.5675,-193.598"/>
</g>
<!-- Node43 -->
<g id="node27" class="node">
<title>Node43</title>
<g id="a_node27"><a xlink:href="BasicArchetypes_8h_source.html" target="_top" xlink:title="DGtal/base/BasicArchetypes.h">
<polygon fill="#ffffff" stroke="#000000" points="817.1899,-55.5 817.1899,-73.5 968.8101,-73.5 968.8101,-55.5 817.1899,-55.5"/>
<text text-anchor="middle" x="893" y="-61.5" font-family="FreeSans" font-size="10.00" fill="#000000">DGtal/base/BasicArchetypes.h</text>
</a>
</g>
</g>
<!-- Node5&#45;&gt;Node43 -->
<g id="edge44" class="edge">
<title>Node5&#45;&gt;Node43</title>
<path fill="none" stroke="#191970" d="M1507.8147,-238.8792C1305.2771,-236.4691 650.6973,-226.2076 620,-194 556.4278,-127.3001 708.6178,-91.1642 810.4141,-75.0514"/>
<polygon fill="#191970" stroke="#191970" points="811.0575,-78.4936 820.406,-73.508 809.9888,-71.5757 811.0575,-78.4936"/>
</g>
<!-- Node44 -->
<g id="node28" class="node">
<title>Node44</title>
<g id="a_node28"><a xlink:href="Exceptions_8h_source.html" target="_top" xlink:title="DGtal/base/Exceptions.h">
<polygon fill="#ffffff" stroke="#000000" points="2414.9707,-170.5 2414.9707,-188.5 2541.0293,-188.5 2541.0293,-170.5 2414.9707,-170.5"/>
<text text-anchor="middle" x="2478" y="-176.5" font-family="FreeSans" font-size="10.00" fill="#000000">DGtal/base/Exceptions.h</text>
</a>
</g>
</g>
<!-- Node5&#45;&gt;Node44 -->
<g id="edge46" class="edge">
<title>Node5&#45;&gt;Node44</title>
<path fill="none" stroke="#191970" d="M1625.9013,-237.6537C1758.6016,-233.1659 2091.0006,-220.0877 2368,-194 2380.2572,-192.8456 2393.2505,-191.3638 2405.8485,-189.7901"/>
<polygon fill="#191970" stroke="#191970" points="2406.3696,-193.252 2415.8454,-188.5128 2405.4824,-186.3085 2406.3696,-193.252"/>
</g>
<!-- Node17&#45;&gt;Node1 -->
<g id="edge19" class="edge">
<title>Node17&#45;&gt;Node1</title>
<path fill="none" stroke="#191970" d="M1369.3755,-55.4179C1381.804,-46.9788 1400.5397,-34.257 1415.1409,-24.3426"/>
<polygon fill="#191970" stroke="#191970" points="1417.2977,-27.1088 1423.6046,-18.5956 1413.3654,-21.3176 1417.2977,-27.1088"/>
</g>
<!-- Node19&#45;&gt;Node1 -->
<g id="edge21" class="edge">
<title>Node19&#45;&gt;Node1</title>
<path fill="none" stroke="#191970" d="M1486.473,-170.3503C1484.101,-156.9114 1479.0583,-131.1397 1472,-110 1466.4549,-93.3922 1462.0424,-90.4334 1456,-74 1450.4607,-58.9348 1445.3905,-41.4456 1441.8836,-28.4823"/>
<polygon fill="#191970" stroke="#191970" points="1445.2668,-27.5852 1439.3295,-18.8103 1438.4988,-29.3725 1445.2668,-27.5852"/>
</g>
<!-- Node19&#45;&gt;Node17 -->
<g id="edge22" class="edge">
<title>Node19&#45;&gt;Node17</title>
<path fill="none" stroke="#191970" d="M1485.023,-170.2391C1479.9414,-155.7157 1468.3299,-127.4433 1450,-110 1434.6362,-95.3793 1413.6865,-84.6201 1395.4635,-77.2461"/>
<polygon fill="#191970" stroke="#191970" points="1396.5409,-73.9107 1385.9507,-73.5955 1394.0329,-80.446 1396.5409,-73.9107"/>
</g>
<!-- Node19&#45;&gt;Node26 -->
<g id="edge23" class="edge">
<title>Node19&#45;&gt;Node26</title>
<path fill="none" stroke="#191970" d="M1450.905,-170.4524C1407.6384,-159.8996 1336.0466,-142.4382 1288.9457,-130.9502"/>
<polygon fill="#191970" stroke="#191970" points="1289.5386,-127.4922 1278.994,-128.5229 1287.8799,-134.2929 1289.5386,-127.4922"/>
</g>
<!-- Node19&#45;&gt;Node27 -->
<g id="edge26" class="edge">
<title>Node19&#45;&gt;Node27</title>
<path fill="none" stroke="#191970" d="M1467.8028,-170.3873C1449.8873,-160.8168 1424.251,-145.6159 1406.7811,-134.3171"/>
<polygon fill="#191970" stroke="#191970" points="1408.2844,-131.1142 1398.0166,-128.5019 1404.4143,-136.9471 1408.2844,-131.1142"/>
</g>
<!-- Node26&#45;&gt;Node1 -->
<g id="edge24" class="edge">
<title>Node26&#45;&gt;Node1</title>
<path fill="none" stroke="#191970" d="M1247.1076,-110.1537C1255.228,-96.148 1272.3964,-69.7852 1294,-55 1325.9256,-33.1506 1368.9275,-21.3399 1399.4147,-15.2734"/>
<polygon fill="#191970" stroke="#191970" points="1400.4523,-18.64 1409.6378,-13.3601 1399.1646,-11.7595 1400.4523,-18.64"/>
</g>
<!-- Node26&#45;&gt;Node17 -->
<g id="edge25" class="edge">
<title>Node26&#45;&gt;Node17</title>
<path fill="none" stroke="#191970" d="M1260.8248,-110.4179C1279.1418,-101.5807 1307.1929,-88.0473 1328.103,-77.9591"/>
<polygon fill="#191970" stroke="#191970" points="1329.6615,-81.0933 1337.1473,-73.5956 1326.6198,-74.7887 1329.6615,-81.0933"/>
</g>
<!-- Node27&#45;&gt;Node19 -->
<g id="edge27" class="edge">
<title>Node27&#45;&gt;Node19</title>
<path fill="none" stroke="#191970" d="M1407.9896,-128.5019C1425.8452,-138.0287 1451.4829,-153.2227 1469.0157,-164.5516"/>
<polygon fill="#191970" stroke="#191970" points="1467.5523,-167.7806 1477.8215,-170.3873 1471.4193,-161.9456 1467.5523,-167.7806"/>
</g>
<!-- Node30&#45;&gt;Node1 -->
<g id="edge30" class="edge">
<title>Node30&#45;&gt;Node1</title>
<path fill="none" stroke="#191970" d="M1520.487,-55.4179C1504.7089,-46.7399 1480.6972,-33.5334 1462.4685,-23.5077"/>
<polygon fill="#191970" stroke="#191970" points="1463.9864,-20.3481 1453.5375,-18.5956 1460.6129,-26.4816 1463.9864,-20.3481"/>
</g>
<!-- Node31&#45;&gt;Node1 -->
<g id="edge33" class="edge">
<title>Node31&#45;&gt;Node1</title>
<path fill="none" stroke="#191970" d="M1651.8495,-55.4795C1602.4969,-44.9176 1521.5161,-27.5871 1474.3378,-17.4906"/>
<polygon fill="#191970" stroke="#191970" points="1475.0355,-14.0607 1464.5245,-15.3904 1473.5706,-20.9057 1475.0355,-14.0607"/>
</g>
<!-- Node32&#45;&gt;Node1 -->
<g id="edge35" class="edge">
<title>Node32&#45;&gt;Node1</title>
<path fill="none" stroke="#191970" d="M1746.4094,-110.3897C1761.6492,-97.147 1785.0782,-72.2786 1770,-55 1750.7534,-32.9448 1557.074,-17.5092 1474.2484,-11.867"/>
<polygon fill="#191970" stroke="#191970" points="1474.4634,-8.3736 1464.2518,-11.197 1473.9953,-15.358 1474.4634,-8.3736"/>
</g>
<!-- Node35&#45;&gt;Node5 -->
<g id="edge43" class="edge">
<title>Node35&#45;&gt;Node5</title>
<path fill="none" stroke="#191970" d="M2250.3036,-188.5342C2238.6783,-190.5691 2225.8995,-192.5523 2214,-194 2004.5988,-219.4758 1754.6657,-232.1969 1635.9789,-237.0647"/>
<polygon fill="#191970" stroke="#191970" points="1635.7904,-233.5694 1625.9399,-237.4704 1636.0732,-240.5636 1635.7904,-233.5694"/>
</g>
<!-- Node35&#45;&gt;Node7 -->
<g id="edge37" class="edge">
<title>Node35&#45;&gt;Node7</title>
<path fill="none" stroke="#191970" d="M2279.5758,-170.268C2270.324,-160.7204 2256.4112,-144.9918 2248,-129 2240.4431,-114.6325 2235.4897,-96.8415 2232.5412,-83.586"/>
<polygon fill="#191970" stroke="#191970" points="2235.9512,-82.7913 2230.5228,-73.6928 2229.0925,-84.1907 2235.9512,-82.7913"/>
</g>
<!-- Node35&#45;&gt;Node15 -->
<g id="edge38" class="edge">
<title>Node35&#45;&gt;Node15</title>
<path fill="none" stroke="#191970" d="M2225.351,-170.4998C2208.074,-168.3608 2189.3476,-166.3191 2172,-165 1851.7016,-140.6448 803.678,-123.1146 606.9759,-119.9967"/>
<polygon fill="#191970" stroke="#191970" points="606.7972,-116.4935 596.7432,-119.8353 606.6868,-123.4927 606.7972,-116.4935"/>
</g>
<!-- Node37 -->
<g id="node26" class="node">
<title>Node37</title>
<g id="a_node26"><a xlink:href="Color_8h_source.html" target="_top" xlink:title="DGtal/io/Color.h">
<polygon fill="#ffffff" stroke="#ff0000" points="2256.7046,-110.5 2256.7046,-128.5 2343.2954,-128.5 2343.2954,-110.5 2256.7046,-110.5"/>
<text text-anchor="middle" x="2300" y="-116.5" font-family="FreeSans" font-size="10.00" fill="#000000">DGtal/io/Color.h</text>
</a>
</g>
</g>
<!-- Node35&#45;&gt;Node37 -->
<g id="edge39" class="edge">
<title>Node35&#45;&gt;Node37</title>
<path fill="none" stroke="#191970" d="M2290.6707,-170.3873C2292.2051,-162.0174 2294.5291,-149.3414 2296.4736,-138.735"/>
<polygon fill="#191970" stroke="#191970" points="2299.9529,-139.1657 2298.3136,-128.6985 2293.0676,-137.9034 2299.9529,-139.1657"/>
</g>
<!-- Node37&#45;&gt;Node1 -->
<g id="edge40" class="edge">
<title>Node37&#45;&gt;Node1</title>
<path fill="none" stroke="#191970" d="M2298.2424,-110.0567C2294.9636,-95.4153 2286.4058,-67.6124 2267,-55 2233.3628,-33.1381 1631.8002,-14.9226 1474.4234,-10.5164"/>
<polygon fill="#191970" stroke="#191970" points="1474.3845,-7.0141 1464.291,-10.2347 1474.1899,-14.0114 1474.3845,-7.0141"/>
</g>
<!-- Node37&#45;&gt;Node5 -->
<g id="edge41" class="edge">
<title>Node37&#45;&gt;Node5</title>
<path fill="none" stroke="#191970" d="M2256.4027,-120.4817C2147.1734,-123.3871 1864.2399,-133.788 1776,-165 1754.2682,-172.6869 1753.9485,-184.3814 1733,-194 1698.9142,-209.6506 1658.3479,-220.892 1625.8498,-228.2857"/>
<polygon fill="#191970" stroke="#191970" points="1625.0464,-224.8787 1616.0393,-230.4574 1626.5594,-231.7133 1625.0464,-224.8787"/>
</g>
<!-- Node37&#45;&gt;Node7 -->
<g id="edge42" class="edge">
<title>Node37&#45;&gt;Node7</title>
<path fill="none" stroke="#191970" d="M2288.2758,-110.4179C2277.6512,-102.1876 2261.7683,-89.8839 2249.1169,-80.0836"/>
<polygon fill="#191970" stroke="#191970" points="2251.0279,-77.1365 2240.9789,-73.7795 2246.741,-82.6704 2251.0279,-77.1365"/>
</g>
<!-- Node43&#45;&gt;Node1 -->
<g id="edge45" class="edge">
<title>Node43&#45;&gt;Node1</title>
<path fill="none" stroke="#191970" d="M968.9271,-56.8236C1087.1303,-44.8729 1310.7702,-22.2622 1399.4281,-13.2986"/>
<polygon fill="#191970" stroke="#191970" points="1399.9576,-16.763 1409.5548,-12.2748 1399.2534,-9.7985 1399.9576,-16.763"/>
</g>
<!-- Node44&#45;&gt;Node1 -->
<g id="edge47" class="edge">
<title>Node44&#45;&gt;Node1</title>
<path fill="none" stroke="#191970" d="M2475.5998,-170.4956C2468.6997,-146.6173 2446.3363,-81.6873 2401,-55 2360.428,-31.1172 1647.808,-14.0942 1474.6733,-10.2988"/>
<polygon fill="#191970" stroke="#191970" points="1474.5929,-6.7964 1464.5191,-10.0779 1474.4405,-13.7947 1474.5929,-6.7964"/>
</g>
<!-- Node45&#45;&gt;Node1 -->
<g id="edge49" class="edge">
<title>Node45&#45;&gt;Node1</title>
<path fill="none" stroke="#191970" d="M943.9747,-563.0411C730.3269,-557.2045 38,-531.2153 38,-439.5 38,-439.5 38,-439.5 38,-119.5 38,-62.8264 93.5777,-70.815 148,-55 270.7275,-19.3357 1199.6993,-11.0958 1399.3009,-9.7302"/>
<polygon fill="#191970" stroke="#191970" points="1399.5915,-13.2284 1409.5679,-9.6617 1399.5447,-6.2286 1399.5915,-13.2284"/>
</g>
<!-- Node45&#45;&gt;Node5 -->
<g id="edge50" class="edge">
<title>Node45&#45;&gt;Node5</title>
<path fill="none" stroke="#191970" d="M1015.5754,-555.4766C1034.9553,-536.1851 1077,-488.6668 1077,-439.5 1077,-439.5 1077,-439.5 1077,-374.5 1077,-288.2864 1362.5,-255.0313 1497.6459,-244.119"/>
<polygon fill="#191970" stroke="#191970" points="1498.2006,-247.5862 1507.8946,-243.3111 1497.6504,-240.6079 1498.2006,-247.5862"/>
</g>
<!-- Node46 -->
<g id="node30" class="node">
<title>Node46</title>
<g id="a_node30"><a xlink:href="SpaceND_8h_source.html" target="_top" xlink:title="DGtal/kernel/SpaceND.h">
<polygon fill="#ffffff" stroke="#ff0000" points="923.2539,-295.5 923.2539,-313.5 1048.7461,-313.5 1048.7461,-295.5 923.2539,-295.5"/>
<text text-anchor="middle" x="986" y="-301.5" font-family="FreeSans" font-size="10.00" fill="#000000">DGtal/kernel/SpaceND.h</text>
</a>
</g>
</g>
<!-- Node45&#45;&gt;Node46 -->
<g id="edge51" class="edge">
<title>Node45&#45;&gt;Node46</title>
<path fill="none" stroke="#191970" d="M1005.2882,-555.2465C1002.3964,-517.6534 991.492,-375.8959 987.4871,-323.8324"/>
<polygon fill="#191970" stroke="#191970" points="990.96,-323.3447 986.7033,-313.6427 983.9806,-323.8817 990.96,-323.3447"/>
</g>
<!-- Node67 -->
<g id="node31" class="node">
<title>Node67</title>
<g id="a_node31"><a xlink:href="HyperRectDomain_8h_source.html" target="_top" xlink:title="DGtal/kernel/domains\l/HyperRectDomain.h">
<polygon fill="#ffffff" stroke="#ff0000" points="1146.9238,-425.5 1146.9238,-453.5 1259.0762,-453.5 1259.0762,-425.5 1146.9238,-425.5"/>
<text text-anchor="start" x="1154.9238" y="-441.5" font-family="FreeSans" font-size="10.00" fill="#000000">DGtal/kernel/domains</text>
<text text-anchor="middle" x="1203" y="-431.5" font-family="FreeSans" font-size="10.00" fill="#000000">/HyperRectDomain.h</text>
</a>
</g>
</g>
<!-- Node45&#45;&gt;Node67 -->
<g id="edge54" class="edge">
<title>Node45&#45;&gt;Node67</title>
<path fill="none" stroke="#191970" d="M1046.1125,-555.4739C1072.1177,-548.3557 1105.8872,-536.6424 1132,-519 1154.4587,-503.8264 1174.46,-479.9915 1187.4639,-462.3735"/>
<polygon fill="#191970" stroke="#191970" points="1190.6233,-463.9733 1193.6023,-453.8058 1184.933,-459.8964 1190.6233,-463.9733"/>
</g>
<!-- Node89 -->
<g id="node32" class="node">
<title>Node89</title>
<g id="a_node32"><a xlink:href="DigitalSetSelector_8h_source.html" target="_top" xlink:title="DGtal/kernel/sets/Digital\lSetSelector.h">
<polygon fill="#ffffff" stroke="#ff0000" points="704.3696,-290.5 704.3696,-318.5 827.6304,-318.5 827.6304,-290.5 704.3696,-290.5"/>
<text text-anchor="start" x="712.3696" y="-306.5" font-family="FreeSans" font-size="10.00" fill="#000000">DGtal/kernel/sets/Digital</text>
<text text-anchor="middle" x="766" y="-296.5" font-family="FreeSans" font-size="10.00" fill="#000000">SetSelector.h</text>
</a>
</g>
</g>
<!-- Node45&#45;&gt;Node89 -->
<g id="edge57" class="edge">
<title>Node45&#45;&gt;Node89</title>
<path fill="none" stroke="#191970" d="M991.5234,-555.3602C955.2874,-531.8439 859.538,-465.6825 803,-389 789.3353,-370.4665 779.3485,-346.0964 773.2188,-328.2922"/>
<polygon fill="#191970" stroke="#191970" points="776.5017,-327.0709 770.0567,-318.6618 769.851,-329.2546 776.5017,-327.0709"/>
</g>
<!-- Node102 -->
<g id="node33" class="node">
<title>Node102</title>
<g id="a_node33"><a xlink:href="DigitalTopology_8h_source.html" target="_top" xlink:title="DGtal/topology/DigitalTopology.h">
<polygon fill="#ffffff" stroke="#ff0000" points="65.8271,-295.5 65.8271,-313.5 226.1729,-313.5 226.1729,-295.5 65.8271,-295.5"/>
<text text-anchor="middle" x="146" y="-301.5" font-family="FreeSans" font-size="10.00" fill="#000000">DGtal/topology/DigitalTopology.h</text>
</a>
</g>
</g>
<!-- Node45&#45;&gt;Node102 -->
<g id="edge60" class="edge">
<title>Node45&#45;&gt;Node102</title>
<path fill="none" stroke="#191970" d="M949.9985,-555.4942C903.3415,-547.486 835.3362,-534.638 777,-519 543.2778,-456.347 270.3208,-352.9121 178.2059,-317.1372"/>
<polygon fill="#191970" stroke="#191970" points="179.4561,-313.8681 168.8676,-313.5013 176.9163,-320.3911 179.4561,-313.8681"/>
</g>
<!-- Node109 -->
<g id="node34" class="node">
<title>Node109</title>
<g id="a_node34"><a xlink:href="MetricAdjacency_8h_source.html" target="_top" xlink:title="DGtal/topology/MetricAdjacency.h">
<polygon fill="#ffffff" stroke="#ff0000" points="812.0562,-365.5 812.0562,-383.5 977.9438,-383.5 977.9438,-365.5 812.0562,-365.5"/>
<text text-anchor="middle" x="895" y="-371.5" font-family="FreeSans" font-size="10.00" fill="#000000">DGtal/topology/MetricAdjacency.h</text>
</a>
</g>
</g>
<!-- Node45&#45;&gt;Node109 -->
<g id="edge63" class="edge">
<title>Node45&#45;&gt;Node109</title>
<path fill="none" stroke="#191970" d="M1000.6462,-555.3359C983.3198,-525.678 928.5607,-431.9462 905.4513,-392.3897"/>
<polygon fill="#191970" stroke="#191970" points="908.3665,-390.4411 900.3,-383.5721 902.3224,-393.9722 908.3665,-390.4411"/>
</g>
<!-- Node112 -->
<g id="node35" class="node">
<title>Node112</title>
<g id="a_node35"><a xlink:href="Object_8h_source.html" target="_top" xlink:title="DGtal/topology/Object.h">
<polygon fill="#ffffff" stroke="#ff0000" points="1230.9165,-365.5 1230.9165,-383.5 1353.0835,-383.5 1353.0835,-365.5 1230.9165,-365.5"/>
<text text-anchor="middle" x="1292" y="-371.5" font-family="FreeSans" font-size="10.00" fill="#000000">DGtal/topology/Object.h</text>
</a>
</g>
</g>
<!-- Node45&#45;&gt;Node112 -->
<g id="edge67" class="edge">
<title>Node45&#45;&gt;Node112</title>
<path fill="none" stroke="#191970" d="M1032.0863,-555.4465C1050.4311,-548.0035 1074.5456,-535.9189 1091,-519 1123.5654,-485.5153 1102.639,-455.5176 1138,-425 1161.1512,-405.0198 1192.4023,-392.9026 1220.7028,-385.5731"/>
<polygon fill="#191970" stroke="#191970" points="1221.6809,-388.9373 1230.5718,-383.1752 1220.0282,-382.1352 1221.6809,-388.9373"/>
</g>
<!-- Node121 -->
<g id="node37" class="node">
<title>Node121</title>
<g id="a_node37"><a xlink:href="KhalimskySpaceND_8h_source.html" target="_top" xlink:title="DGtal/topology/Khalimsky\lSpaceND.h">
<polygon fill="#ffffff" stroke="#ff0000" points="1476.7539,-425.5 1476.7539,-453.5 1607.2461,-453.5 1607.2461,-425.5 1476.7539,-425.5"/>
<text text-anchor="start" x="1484.7539" y="-441.5" font-family="FreeSans" font-size="10.00" fill="#000000">DGtal/topology/Khalimsky</text>
<text text-anchor="middle" x="1542" y="-431.5" font-family="FreeSans" font-size="10.00" fill="#000000">SpaceND.h</text>
</a>
</g>
</g>
<!-- Node45&#45;&gt;Node121 -->
<g id="edge74" class="edge">
<title>Node45&#45;&gt;Node121</title>
<path fill="none" stroke="#191970" d="M1068.389,-563.039C1198.4275,-559.4224 1489.234,-548.14 1523,-519 1538.5534,-505.5774 1542.5918,-481.9111 1543.1648,-463.8799"/>
<polygon fill="#191970" stroke="#191970" points="1546.6648,-463.7756 1543.1544,-453.7792 1539.6648,-463.7828 1546.6648,-463.7756"/>
</g>
<!-- Node122 -->
<g id="node38" class="node">
<title>Node122</title>
<g id="a_node38"><a xlink:href="KhalimskyPreSpaceND_8h_source.html" target="_top" xlink:title="DGtal/topology/Khalimsky\lPreSpaceND.h">
<polygon fill="#ffffff" stroke="#ff0000" points="1408.7539,-360.5 1408.7539,-388.5 1539.2461,-388.5 1539.2461,-360.5 1408.7539,-360.5"/>
<text text-anchor="start" x="1416.7539" y="-376.5" font-family="FreeSans" font-size="10.00" fill="#000000">DGtal/topology/Khalimsky</text>
<text text-anchor="middle" x="1474" y="-366.5" font-family="FreeSans" font-size="10.00" fill="#000000">PreSpaceND.h</text>
</a>
</g>
</g>
<!-- Node45&#45;&gt;Node122 -->
<g id="edge82" class="edge">
<title>Node45&#45;&gt;Node122</title>
<path fill="none" stroke="#191970" d="M1042.9993,-555.486C1075.1465,-547.2513 1122.7402,-534.0858 1163,-519 1265.4535,-480.6095 1381.0754,-422.8742 1438.1647,-393.3503"/>
<polygon fill="#191970" stroke="#191970" points="1439.8797,-396.4036 1447.1427,-388.69 1436.6547,-390.1908 1439.8797,-396.4036"/>
</g>
<!-- Node125 -->
<g id="node39" class="node">
<title>Node125</title>
<g id="a_node39"><a xlink:href="GridCurve_8h_source.html" target="_top" xlink:title="Header file for module GridCurve.cpp. ">
<polygon fill="#ffffff" stroke="#ff0000" points="1662.8721,-490.5 1662.8721,-518.5 1781.1279,-518.5 1781.1279,-490.5 1662.8721,-490.5"/>
<text text-anchor="start" x="1670.8721" y="-506.5" font-family="FreeSans" font-size="10.00" fill="#000000">DGtal/geometry/curves</text>
<text text-anchor="middle" x="1722" y="-496.5" font-family="FreeSans" font-size="10.00" fill="#000000">/GridCurve.h</text>
</a>
</g>
</g>
<!-- Node45&#45;&gt;Node125 -->
<g id="edge83" class="edge">
<title>Node45&#45;&gt;Node125</title>
<path fill="none" stroke="#191970" d="M1068.2819,-559.4412C1170.2423,-551.1386 1379.146,-534.0393 1556,-519 1587.7155,-516.303 1622.8328,-513.2458 1652.5691,-510.6363"/>
<polygon fill="#191970" stroke="#191970" points="1653.1931,-514.095 1662.8484,-509.7332 1652.5804,-507.1219 1653.1931,-514.095"/>
</g>
<!-- Node156 -->
<g id="node40" class="node">
<title>Node156</title>
<g id="a_node40"><a xlink:href="ExactPredicateLpSeparableMetric_8h_source.html" target="_top" xlink:title="DGtal/geometry/volumes\l/distance/ExactPredicateLpSeparable\lMetric.h">
<polygon fill="#ffffff" stroke="#ff0000" points="503.6138,-285.5 503.6138,-323.5 686.3862,-323.5 686.3862,-285.5 503.6138,-285.5"/>
<text text-anchor="start" x="511.6138" y="-311.5" font-family="FreeSans" font-size="10.00" fill="#000000">DGtal/geometry/volumes</text>
<text text-anchor="start" x="511.6138" y="-301.5" font-family="FreeSans" font-size="10.00" fill="#000000">/distance/ExactPredicateLpSeparable</text>
<text text-anchor="middle" x="595" y="-291.5" font-family="FreeSans" font-size="10.00" fill="#000000">Metric.h</text>
</a>
</g>
</g>
<!-- Node45&#45;&gt;Node156 -->
<g id="edge89" class="edge">
<title>Node45&#45;&gt;Node156</title>
<path fill="none" stroke="#191970" d="M981.8127,-555.4934C960.3108,-547.1213 928.2993,-533.7498 902,-519 796.0071,-459.5545 681.1402,-372.5732 626.856,-329.9509"/>
<polygon fill="#191970" stroke="#191970" points="629.0049,-327.1881 618.9844,-323.7473 624.672,-332.686 629.0049,-327.1881"/>
</g>
<!-- Node161 -->
<g id="node41" class="node">
<title>Node161</title>
<g id="a_node41"><a xlink:href="ExactPredicateLpPowerSeparableMetric_8h_source.html" target="_top" xlink:title="DGtal/geometry/volumes\l/distance/ExactPredicateLpPower\lSeparableMetric.h">
<polygon fill="#ffffff" stroke="#ff0000" points="320.2368,-285.5 320.2368,-323.5 485.7632,-323.5 485.7632,-285.5 320.2368,-285.5"/>
<text text-anchor="start" x="328.2368" y="-311.5" font-family="FreeSans" font-size="10.00" fill="#000000">DGtal/geometry/volumes</text>
<text text-anchor="start" x="328.2368" y="-301.5" font-family="FreeSans" font-size="10.00" fill="#000000">/distance/ExactPredicateLpPower</text>
<text text-anchor="middle" x="403" y="-291.5" font-family="FreeSans" font-size="10.00" fill="#000000">SeparableMetric.h</text>
</a>
</g>
</g>
<!-- Node45&#45;&gt;Node161 -->
<g id="edge93" class="edge">
<title>Node45&#45;&gt;Node161</title>
<path fill="none" stroke="#191970" d="M968.5577,-555.4208C936.5984,-547.2367 889.6526,-534.1795 850,-519 697.6291,-460.6705 525.8436,-371.1261 446.9238,-328.5671"/>
<polygon fill="#191970" stroke="#191970" points="448.2284,-325.2936 437.7673,-323.6152 444.8984,-331.4509 448.2284,-325.2936"/>
</g>
<!-- Node46&#45;&gt;Node1 -->
<g id="edge52" class="edge">
<title>Node46&#45;&gt;Node1</title>
<path fill="none" stroke="#191970" d="M939.9497,-295.4134C816.418,-270.7271 487,-202.7203 487,-179.5 487,-179.5 487,-179.5 487,-119.5 487,-88.9131 486.3181,-73.0654 511,-55 547.3987,-28.3587 1230.2291,-13.484 1399.3511,-10.1989"/>
<polygon fill="#191970" stroke="#191970" points="1399.5811,-13.6952 1409.512,-10.0035 1399.4465,-6.6965 1399.5811,-13.6952"/>
</g>
<!-- Node46&#45;&gt;Node5 -->
<g id="edge53" class="edge">
<title>Node46&#45;&gt;Node5</title>
<path fill="none" stroke="#191970" d="M1016.8578,-295.4979C1030.8366,-291.7281 1047.6393,-287.6215 1063,-285 1217.1134,-258.6988 1400.5034,-246.9773 1498.0004,-242.2748"/>
<polygon fill="#191970" stroke="#191970" points="1498.1999,-245.7693 1508.0236,-241.8015 1497.8697,-238.7771 1498.1999,-245.7693"/>
</g>
<!-- Node67&#45;&gt;Node1 -->
<g id="edge55" class="edge">
<title>Node67&#45;&gt;Node1</title>
<path fill="none" stroke="#191970" d="M1146.79,-438.8591C968.0912,-435.8637 416.2045,-418.9569 270,-324 254.283,-313.7921 183,-198.241 183,-179.5 183,-179.5 183,-179.5 183,-119.5 183,-80.6492 206.7507,-71.3362 242,-55 295.7269,-30.1004 1203.0387,-13.4404 1399.6252,-10.1132"/>
<polygon fill="#191970" stroke="#191970" points="1399.8048,-13.6108 1409.7446,-9.9431 1399.6871,-6.6117 1399.8048,-13.6108"/>
</g>
<!-- Node67&#45;&gt;Node5 -->
<g id="edge56" class="edge">
<title>Node67&#45;&gt;Node5</title>
<path fill="none" stroke="#191970" d="M1202.7396,-425.4888C1203.1528,-408.1796 1206.3501,-378.7307 1222,-360 1260.2492,-314.2213 1428.4718,-270.6755 1515.0744,-250.7851"/>
<polygon fill="#191970" stroke="#191970" points="1515.9898,-254.1664 1524.9642,-248.5351 1514.4369,-247.3408 1515.9898,-254.1664"/>
</g>
<!-- Node89&#45;&gt;Node1 -->
<g id="edge58" class="edge">
<title>Node89&#45;&gt;Node1</title>
<path fill="none" stroke="#191970" d="M718.0833,-290.4281C710.4037,-288.4368 702.5125,-286.5449 695,-285 547.49,-254.666 373,-330.0967 373,-179.5 373,-179.5 373,-179.5 373,-119.5 373,-79.7371 398.7789,-71.4048 435,-55 479.7165,-34.7476 1223.238,-14.8674 1399.6667,-10.4202"/>
<polygon fill="#191970" stroke="#191970" points="1399.8494,-13.9169 1409.7585,-10.1671 1399.6738,-6.9191 1399.8494,-13.9169"/>
</g>
<!-- Node89&#45;&gt;Node5 -->
<g id="edge59" class="edge">
<title>Node89&#45;&gt;Node5</title>
<path fill="none" stroke="#191970" d="M827.9036,-292.8151C845.0506,-289.9029 863.704,-287.0346 881,-285 1105.8353,-258.5511 1374.0722,-246.3179 1497.9827,-241.7541"/>
<polygon fill="#191970" stroke="#191970" points="1498.2202,-245.2479 1508.0866,-241.3872 1497.9662,-238.2525 1498.2202,-245.2479"/>
</g>
<!-- Node102&#45;&gt;Node1 -->
<g id="edge61" class="edge">
<title>Node102&#45;&gt;Node1</title>
<path fill="none" stroke="#191970" d="M145.8774,-295.4034C145.6104,-274.7833 145,-222.9042 145,-179.5 145,-179.5 145,-179.5 145,-119.5 145,-88.9131 144.1992,-72.9018 169,-55 220.1334,-18.0908 1194.6513,-10.8052 1399.4397,-9.6797"/>
<polygon fill="#191970" stroke="#191970" points="1399.7022,-13.1784 1409.6834,-9.625 1399.6648,-6.1785 1399.7022,-13.1784"/>
</g>
<!-- Node102&#45;&gt;Node5 -->
<g id="edge62" class="edge">
<title>Node102&#45;&gt;Node5</title>
<path fill="none" stroke="#191970" d="M211.7183,-295.4893C241.9077,-291.6703 278.2137,-287.527 311,-285 762.8125,-250.1764 1308.1616,-241.9094 1497.9381,-240.0292"/>
<polygon fill="#191970" stroke="#191970" points="1498.0834,-243.528 1508.0491,-239.9318 1498.0158,-236.5284 1498.0834,-243.528"/>
</g>
<!-- Node109&#45;&gt;Node1 -->
<g id="edge64" class="edge">
<title>Node109&#45;&gt;Node1</title>
<path fill="none" stroke="#191970" d="M811.9074,-368.2764C653.1777,-356.2577 321.5466,-330.4663 311,-324 278.7489,-304.2265 221,-217.3302 221,-179.5 221,-179.5 221,-179.5 221,-119.5 221,-78.4851 249.331,-71.2256 287,-55 339.202,-32.5144 1207.3718,-14.0502 1399.5389,-10.2268"/>
<polygon fill="#191970" stroke="#191970" points="1399.7743,-13.7229 1409.7031,-10.0257 1399.6357,-6.7243 1399.7743,-13.7229"/>
</g>
<!-- Node109&#45;&gt;Node5 -->
<g id="edge65" class="edge">
<title>Node109&#45;&gt;Node5</title>
<path fill="none" stroke="#191970" d="M893.7697,-365.4214C891.8485,-347.0377 890.5033,-305.4255 914,-285 935.7679,-266.0773 1333.7821,-248.5488 1497.5227,-242.1065"/>
<polygon fill="#191970" stroke="#191970" points="1498.1071,-245.5864 1507.9627,-241.6982 1497.8336,-238.5917 1498.1071,-245.5864"/>
</g>
<!-- Node109&#45;&gt;Node46 -->
<g id="edge66" class="edge">
<title>Node109&#45;&gt;Node46</title>
<path fill="none" stroke="#191970" d="M906.8967,-365.3487C921.8842,-353.8198 947.8624,-333.8366 965.9422,-319.9291"/>
<polygon fill="#191970" stroke="#191970" points="968.3082,-322.5249 974.1004,-313.6535 964.0402,-316.9765 968.3082,-322.5249"/>
</g>
<!-- Node112&#45;&gt;Node1 -->
<g id="edge68" class="edge">
<title>Node112&#45;&gt;Node1</title>
<path fill="none" stroke="#191970" d="M1230.7512,-372.6064C1154.8501,-368.8419 1022.2898,-357.5953 914,-324 877.3612,-312.6333 873.3276,-297.3251 837,-285 754.7827,-257.1057 728.9839,-271.0111 645,-249 555.5942,-225.5679 449,-271.9255 449,-179.5 449,-179.5 449,-179.5 449,-119.5 449,-85.532 460.6286,-72.0631 490,-55 529.9487,-31.7921 1228.4185,-14.2907 1399.4395,-10.3407"/>
<polygon fill="#191970" stroke="#191970" points="1399.56,-13.8389 1409.477,-10.1105 1399.3994,-6.8408 1399.56,-13.8389"/>
</g>
<!-- Node112&#45;&gt;Node5 -->
<g id="edge69" class="edge">
<title>Node112&#45;&gt;Node5</title>
<path fill="none" stroke="#191970" d="M1310.4705,-365.4326C1357.7305,-342.2323 1483.2516,-280.6129 1539.2979,-253.0992"/>
<polygon fill="#191970" stroke="#191970" points="1541.1755,-256.0765 1548.6099,-248.5279 1538.0908,-249.7928 1541.1755,-256.0765"/>
</g>
<!-- Node112&#45;&gt;Node89 -->
<g id="edge73" class="edge">
<title>Node112&#45;&gt;Node89</title>
<path fill="none" stroke="#191970" d="M1230.8293,-370.353C1143.89,-363.8443 979.8312,-349.2887 842,-324 837.0196,-323.0862 831.8832,-322.0267 826.7411,-320.883"/>
<polygon fill="#191970" stroke="#191970" points="827.4173,-317.4469 816.8849,-318.596 825.835,-324.2658 827.4173,-317.4469"/>
</g>
<!-- Node74 -->
<g id="node36" class="node">
<title>Node74</title>
<g id="a_node36"><a xlink:href="CountedPtr_8h_source.html" target="_top" xlink:title="DGtal/base/CountedPtr.h">
<polygon fill="#ffffff" stroke="#ff0000" points="2095.4092,-295.5 2095.4092,-313.5 2222.5908,-313.5 2222.5908,-295.5 2095.4092,-295.5"/>
<text text-anchor="middle" x="2159" y="-301.5" font-family="FreeSans" font-size="10.00" fill="#000000">DGtal/base/CountedPtr.h</text>
</a>
</g>
</g>
<!-- Node112&#45;&gt;Node74 -->
<g id="edge70" class="edge">
<title>Node112&#45;&gt;Node74</title>
<path fill="none" stroke="#191970" d="M1353.3211,-365.6122C1368.5514,-363.5854 1384.8519,-361.5693 1400,-360 1650.5614,-334.0431 1948.8977,-315.9655 2084.8701,-308.4283"/>
<polygon fill="#191970" stroke="#191970" points="2085.3708,-311.9061 2095.1629,-307.8607 2084.9853,-304.9167 2085.3708,-311.9061"/>
</g>
<!-- Node74&#45;&gt;Node1 -->
<g id="edge71" class="edge">
<title>Node74&#45;&gt;Node1</title>
<path fill="none" stroke="#191970" d="M2222.6465,-295.846C2322.9602,-280.7568 2510.5255,-246.1765 2550,-194 2557.7764,-183.7213 2555.2859,-176.7551 2550,-165 2519.7867,-97.8099 2494.2555,-82.7228 2426,-55 2336.7443,-18.7477 1645.3189,-11.0956 1474.877,-9.7537"/>
<polygon fill="#191970" stroke="#191970" points="1474.6672,-6.2521 1464.6409,-9.6759 1474.6139,-13.2519 1474.6672,-6.2521"/>
</g>
<!-- Node74&#45;&gt;Node5 -->
<g id="edge72" class="edge">
<title>Node74&#45;&gt;Node5</title>
<path fill="none" stroke="#191970" d="M2113.9458,-295.4833C2094.6246,-291.8458 2071.7645,-287.8454 2051,-285 1903.9131,-264.8447 1730.4417,-250.9052 1636.2922,-244.1558"/>
<polygon fill="#191970" stroke="#191970" points="1636.267,-240.6452 1626.0439,-243.4271 1635.7704,-247.6276 1636.267,-240.6452"/>
</g>
<!-- Node121&#45;&gt;Node1 -->
<g id="edge75" class="edge">
<title>Node121&#45;&gt;Node1</title>
<path fill="none" stroke="#191970" d="M1607.2522,-435.9468C1805.4547,-424.2925 2387,-383.377 2387,-304.5 2387,-304.5 2387,-304.5 2387,-119.5 2387,-67.7279 2339.143,-71.2883 2290,-55 2211.9854,-29.1423 1629.4638,-13.9489 1474.676,-10.3398"/>
<polygon fill="#191970" stroke="#191970" points="1474.3614,-6.8317 1464.2832,-10.1 1474.1998,-13.8299 1474.3614,-6.8317"/>
</g>
<!-- Node121&#45;&gt;Node5 -->
<g id="edge76" class="edge">
<title>Node121&#45;&gt;Node5</title>
<path fill="none" stroke="#191970" d="M1543.758,-425.4364C1548.1373,-390.4013 1559.5417,-299.1667 1564.5645,-258.9843"/>
<polygon fill="#191970" stroke="#191970" points="1568.0592,-259.2434 1565.8267,-248.8865 1561.1133,-258.3751 1568.0592,-259.2434"/>
</g>
<!-- Node121&#45;&gt;Node46 -->
<g id="edge77" class="edge">
<title>Node121&#45;&gt;Node46</title>
<path fill="none" stroke="#191970" d="M1490.4233,-425.4003C1462.7305,-416.7946 1428.5232,-404.4631 1400,-389 1381.3229,-378.8747 1381.6136,-368.1649 1362,-360 1253.8947,-314.9972 1216.739,-341.7903 1101,-324 1083.5156,-321.3125 1064.5732,-318.1885 1047.2036,-315.2389"/>
<polygon fill="#191970" stroke="#191970" points="1047.6279,-311.7608 1037.1813,-313.527 1046.4492,-318.6608 1047.6279,-311.7608"/>
</g>
<!-- Node121&#45;&gt;Node122 -->
<g id="edge78" class="edge">
<title>Node121&#45;&gt;Node122</title>
<path fill="none" stroke="#191970" d="M1527.245,-425.396C1518.156,-416.7079 1506.331,-405.4046 1496.1341,-395.6576"/>
<polygon fill="#191970" stroke="#191970" points="1498.3734,-392.9563 1488.7262,-388.5765 1493.5365,-398.0164 1498.3734,-392.9563"/>
</g>
<!-- Node122&#45;&gt;Node1 -->
<g id="edge79" class="edge">
<title>Node122&#45;&gt;Node1</title>
<path fill="none" stroke="#191970" d="M1411.3893,-360.4594C1330.0768,-342.356 1183.6697,-310.2066 1058,-285 1003.8131,-274.1313 611.4896,-229.3409 569,-194 539.0532,-169.0916 519.4257,-140.2215 544,-110 598.9036,-42.4793 1236.4637,-16.3132 1399.315,-10.706"/>
<polygon fill="#191970" stroke="#191970" points="1399.9001,-14.1883 1409.7759,-10.3518 1399.6631,-7.1923 1399.9001,-14.1883"/>
</g>
<!-- Node122&#45;&gt;Node5 -->
<g id="edge80" class="edge">
<title>Node122&#45;&gt;Node5</title>
<path fill="none" stroke="#191970" d="M1483.7769,-360.3078C1500.8808,-335.4795 1536.1843,-284.2325 1554.8374,-257.1554"/>
<polygon fill="#191970" stroke="#191970" points="1557.8929,-258.8895 1560.6837,-248.6688 1552.1283,-254.9183 1557.8929,-258.8895"/>
</g>
<!-- Node122&#45;&gt;Node46 -->
<g id="edge81" class="edge">
<title>Node122&#45;&gt;Node46</title>
<path fill="none" stroke="#191970" d="M1408.526,-362.1717C1403.9536,-361.4065 1399.411,-360.6742 1395,-360 1264.8689,-340.1085 1231.263,-343.009 1101,-324 1083.2444,-321.409 1064.0026,-318.2754 1046.4307,-315.2853"/>
<polygon fill="#191970" stroke="#191970" points="1046.7494,-311.7889 1036.3014,-313.5465 1045.5651,-318.6879 1046.7494,-311.7889"/>
</g>
<!-- Node125&#45;&gt;Node1 -->
<g id="edge84" class="edge">
<title>Node125&#45;&gt;Node1</title>
<path fill="none" stroke="#191970" d="M1762.058,-490.428C1823.7009,-468.8438 1936.7437,-429.5658 1956,-425 2243.1577,-356.9122 2637.8996,-451.4764 2567,-165 2550.6891,-99.0945 2525.1791,-77.1499 2461,-55 2366.465,-22.3734 1648.3882,-11.9624 1474.7251,-9.909"/>
<polygon fill="#191970" stroke="#191970" points="1474.5837,-6.4073 1464.5437,-9.7909 1474.5024,-13.4068 1474.5837,-6.4073"/>
</g>
<!-- Node125&#45;&gt;Node4 -->
<g id="edge85" class="edge">
<title>Node125&#45;&gt;Node4</title>
<path fill="none" stroke="#191970" d="M1779.1748,-490.476C1833.1246,-477.243 1912.0228,-457.8906 1955.4404,-447.241"/>
<polygon fill="#191970" stroke="#191970" points="1956.2891,-450.6367 1965.1674,-444.8552 1954.6215,-443.8382 1956.2891,-450.6367"/>
</g>
<!-- Node125&#45;&gt;Node5 -->
<g id="edge86" class="edge">
<title>Node125&#45;&gt;Node5</title>
<path fill="none" stroke="#191970" d="M1713.6665,-490.2524C1687.4292,-445.395 1606.5486,-307.1154 1577.5131,-257.474"/>
<polygon fill="#191970" stroke="#191970" points="1580.3551,-255.4005 1572.285,-248.5357 1574.3127,-258.9347 1580.3551,-255.4005"/>
</g>
<!-- Node125&#45;&gt;Node35 -->
<g id="edge87" class="edge">
<title>Node125&#45;&gt;Node35</title>
<path fill="none" stroke="#191970" d="M1747.3655,-490.4412C1778.9198,-473.3506 1834.7751,-444.3945 1885,-425 2034.8388,-367.1394 2113.2942,-432.2055 2232,-324 2268.921,-290.3449 2282.2553,-229.731 2286.8056,-198.7982"/>
<polygon fill="#191970" stroke="#191970" points="2290.2801,-199.2203 2288.112,-188.8497 2283.3397,-198.3089 2290.2801,-199.2203"/>
</g>
<!-- Node125&#45;&gt;Node121 -->
<g id="edge88" class="edge">
<title>Node125&#45;&gt;Node121</title>
<path fill="none" stroke="#191970" d="M1682.9427,-490.396C1655.817,-480.6006 1619.4856,-467.4809 1590.504,-457.0153"/>
<polygon fill="#191970" stroke="#191970" points="1591.5754,-453.6811 1580.9811,-453.5765 1589.1979,-460.265 1591.5754,-453.6811"/>
</g>
<!-- Node156&#45;&gt;Node1 -->
<g id="edge90" class="edge">
<title>Node156&#45;&gt;Node1</title>
<path fill="none" stroke="#191970" d="M503.3254,-285.7661C448.5917,-273.7526 387.9856,-258.6536 379,-249 320.0792,-185.6987 319.1166,-98.2572 394,-55 438.3606,-29.3746 1218.0933,-13.5196 1399.5042,-10.1675"/>
<polygon fill="#191970" stroke="#191970" points="1399.6885,-13.6649 1409.6227,-9.9821 1399.5602,-6.666 1399.6885,-13.6649"/>
</g>
<!-- Node156&#45;&gt;Node5 -->
<g id="edge92" class="edge">
<title>Node156&#45;&gt;Node5</title>
<path fill="none" stroke="#191970" d="M686.4706,-286.1298C689.3426,-285.7238 692.1911,-285.3454 695,-285 849.976,-265.9423 1320.1808,-248.0932 1497.9394,-241.848"/>
<polygon fill="#191970" stroke="#191970" points="1498.0851,-245.3451 1507.9566,-241.4975 1497.8403,-238.3494 1498.0851,-245.3451"/>
</g>
<!-- Node156&#45;&gt;Node15 -->
<g id="edge91" class="edge">
<title>Node156&#45;&gt;Node15</title>
<path fill="none" stroke="#191970" d="M589.0175,-285.1802C582.5842,-263.3115 572.7717,-226.497 569,-194 567.5141,-181.1971 568.1557,-177.8612 569,-165 569.5741,-156.2544 570.7627,-146.6238 571.9316,-138.4835"/>
<polygon fill="#191970" stroke="#191970" points="575.4018,-138.9441 573.4539,-128.5298 568.4822,-137.8858 575.4018,-138.9441"/>
</g>
<!-- Node161&#45;&gt;Node1 -->
<g id="edge94" class="edge">
<title>Node161&#45;&gt;Node1</title>
<path fill="none" stroke="#191970" d="M353.4434,-285.4434C311.7893,-265.8132 259,-230.813 259,-179.5 259,-179.5 259,-179.5 259,-119.5 259,-63.9725 312.8304,-71.0095 366,-55 466.5241,-24.7319 1221.8816,-12.4728 1399.6262,-9.9909"/>
<polygon fill="#191970" stroke="#191970" points="1399.8349,-13.4884 1409.7857,-9.851 1399.7385,-6.4891 1399.8349,-13.4884"/>
</g>
<!-- Node161&#45;&gt;Node5 -->
<g id="edge96" class="edge">
<title>Node161&#45;&gt;Node5</title>
<path fill="none" stroke="#191970" d="M486.1392,-286.2306C489.1238,-285.7812 492.0843,-285.3683 495,-285 690.1457,-260.3517 1292.8492,-245.4062 1497.8866,-240.9288"/>
<polygon fill="#191970" stroke="#191970" points="1498.0052,-244.4272 1507.9269,-240.711 1497.8533,-237.4288 1498.0052,-244.4272"/>
</g>
<!-- Node161&#45;&gt;Node15 -->
<g id="edge95" class="edge">
<title>Node161&#45;&gt;Node15</title>
<path fill="none" stroke="#191970" d="M420.7592,-285.3985C454.6096,-248.9896 527.8272,-170.2382 559.68,-135.9779"/>
<polygon fill="#191970" stroke="#191970" points="562.2559,-138.3475 566.5017,-128.6406 557.1293,-133.5812 562.2559,-138.3475"/>
</g>
<!-- Node163&#45;&gt;Node1 -->
<g id="edge98" class="edge">
<title>Node163&#45;&gt;Node1</title>
<path fill="none" stroke="#191970" d="M2044.7928,-672.7731C1682.4973,-663.3819 0,-616.946 0,-564.5 0,-564.5 0,-564.5 0,-119.5 0,-79.116 26.9825,-71.1422 64,-55 126.884,-27.5783 1186.0993,-12.6907 1399.6559,-9.9604"/>
<polygon fill="#191970" stroke="#191970" points="1399.7849,-13.4592 1409.7397,-9.8325 1399.6961,-6.4597 1399.7849,-13.4592"/>
</g>
<!-- Node163&#45;&gt;Node5 -->
<g id="edge102" class="edge">
<title>Node163&#45;&gt;Node5</title>
<path fill="none" stroke="#191970" d="M2111.0142,-665.2186C2103.3838,-630.9825 2073.5578,-509.3972 2018,-425 1966.0449,-346.0756 1944.3977,-323.2602 1858,-285 1819.3177,-267.87 1709.0674,-253.8753 1635.9267,-246.1194"/>
<polygon fill="#191970" stroke="#191970" points="1636.1737,-242.6262 1625.8638,-245.0668 1635.4453,-249.5883 1636.1737,-242.6262"/>
</g>
<!-- Node163&#45;&gt;Node37 -->
<g id="edge104" class="edge">
<title>Node163&#45;&gt;Node37</title>
<path fill="none" stroke="#191970" d="M2163.7126,-665.4313C2273.5695,-642.5507 2529.6987,-570.7934 2605,-389 2618.9107,-355.4167 2637.3381,-233.0098 2568,-165 2538.3966,-135.9638 2423.1531,-125.3512 2353.7925,-121.5507"/>
<polygon fill="#191970" stroke="#191970" points="2353.6588,-118.0392 2343.4912,-121.0177 2353.297,-125.0298 2353.6588,-118.0392"/>
</g>
<!-- Node163&#45;&gt;Node74 -->
<g id="edge103" class="edge">
<title>Node163&#45;&gt;Node74</title>
<path fill="none" stroke="#191970" d="M2129.0252,-665.2466C2155.3838,-648.6887 2205,-611.3047 2205,-564.5 2205,-564.5 2205,-564.5 2205,-439.5 2205,-395.5632 2182.8993,-347.6747 2169.3358,-322.4222"/>
<polygon fill="#191970" stroke="#191970" points="2172.3679,-320.6728 2164.4574,-313.6247 2166.2461,-324.0675 2172.3679,-320.6728"/>
</g>
<!-- Node164 -->
<g id="node43" class="node">
<title>Node164</title>
<g id="a_node43"><a xlink:href="Board_8h_source.html" target="_top" xlink:title="Board/Board.h">
<polygon fill="#ffffff" stroke="#ff0000" points="2096.7563,-495.5 2096.7563,-513.5 2177.2437,-513.5 2177.2437,-495.5 2096.7563,-495.5"/>
<text text-anchor="middle" x="2137" y="-501.5" font-family="FreeSans" font-size="10.00" fill="#000000">Board/Board.h</text>
</a>
</g>
</g>
<!-- Node163&#45;&gt;Node164 -->
<g id="edge99" class="edge">
<title>Node163&#45;&gt;Node164</title>
<path fill="none" stroke="#191970" d="M2114.2903,-665.3601C2118.0506,-638.7251 2129.0593,-560.7468 2134.2419,-524.0366"/>
<polygon fill="#191970" stroke="#191970" points="2137.7709,-524.0762 2135.7033,-513.6851 2130.8397,-523.0976 2137.7709,-524.0762"/>
</g>
<!-- Node181 -->
<g id="node44" class="node">
<title>Node181</title>
<g id="a_node44"><a xlink:href="Display2DFactory_8h_source.html" target="_top" xlink:title="Header file for module Display2DFactory. ">
<polygon fill="#ffffff" stroke="#ff0000" points="1564.2925,-610.5 1564.2925,-628.5 1705.7075,-628.5 1705.7075,-610.5 1564.2925,-610.5"/>
<text text-anchor="middle" x="1635" y="-616.5" font-family="FreeSans" font-size="10.00" fill="#000000">DGtal/io/Display2DFactory.h</text>
</a>
</g>
</g>
<!-- Node163&#45;&gt;Node181 -->
<g id="edge105" class="edge">
<title>Node163&#45;&gt;Node181</title>
<path fill="none" stroke="#191970" d="M2044.7683,-666.6491C1957.9971,-656.6649 1808.3631,-639.4476 1715.9255,-628.8115"/>
<polygon fill="#191970" stroke="#191970" points="1716.1117,-625.3099 1705.7772,-627.6438 1715.3115,-632.264 1716.1117,-625.3099"/>
</g>
<!-- Node314 -->
<g id="node46" class="node">
<title>Node314</title>
<g id="a_node46"><a xlink:href="Style2DFactory_8h_source.html" target="_top" xlink:title="Header file for module Style2DFactory. ">
<polygon fill="#ffffff" stroke="#ff0000" points="1383.5708,-495.5 1383.5708,-513.5 1514.4292,-513.5 1514.4292,-495.5 1383.5708,-495.5"/>
<text text-anchor="middle" x="1449" y="-501.5" font-family="FreeSans" font-size="10.00" fill="#000000">DGtal/io/Style2DFactory.h</text>
</a>
</g>
</g>
<!-- Node163&#45;&gt;Node314 -->
<g id="edge118" class="edge">
<title>Node163&#45;&gt;Node314</title>
<path fill="none" stroke="#191970" d="M2044.7998,-671.8526C1905.4637,-666.0235 1597.6313,-650.8392 1555,-629 1508.4428,-605.1497 1473.9884,-551.1269 1458.3362,-522.7269"/>
<polygon fill="#191970" stroke="#191970" points="1461.3906,-521.0163 1453.595,-513.8414 1455.2148,-524.3117 1461.3906,-521.0163"/>
</g>
<!-- Node164&#45;&gt;Node4 -->
<g id="edge100" class="edge">
<title>Node164&#45;&gt;Node4</title>
<path fill="none" stroke="#191970" d="M2116.1431,-495.462C2090.5404,-484.3675 2046.9132,-465.4624 2017.5339,-452.7313"/>
<polygon fill="#191970" stroke="#191970" points="2018.7305,-449.4354 2008.1633,-448.6708 2015.9472,-455.8583 2018.7305,-449.4354"/>
</g>
<!-- Node164&#45;&gt;Node37 -->
<g id="edge101" class="edge">
<title>Node164&#45;&gt;Node37</title>
<path fill="none" stroke="#191970" d="M2177.4167,-501.953C2270.9587,-495.6708 2496.2162,-478.1728 2520,-454 2542.6421,-430.9876 2570.6835,-189.7877 2550,-165 2525.4852,-135.6208 2419.4027,-125.1653 2353.5521,-121.4773"/>
<polygon fill="#191970" stroke="#191970" points="2353.5173,-117.9708 2343.3475,-120.9417 2353.1503,-124.9612 2353.5173,-117.9708"/>
</g>
<!-- Node181&#45;&gt;Node5 -->
<g id="edge106" class="edge">
<title>Node181&#45;&gt;Node5</title>
<path fill="none" stroke="#191970" d="M1688.6436,-610.4377C1775.4263,-594.239 1937,-557.0267 1937,-504.5 1937,-504.5 1937,-504.5 1937,-374.5 1937,-311.1566 1743.2025,-268.7896 1636.1195,-250.2146"/>
<polygon fill="#191970" stroke="#191970" points="1636.4835,-246.7261 1626.0367,-248.4914 1635.3042,-253.6261 1636.4835,-246.7261"/>
</g>
<!-- Node181&#45;&gt;Node45 -->
<g id="edge117" class="edge">
<title>Node181&#45;&gt;Node45</title>
<path fill="none" stroke="#191970" d="M1564.0684,-613.2977C1443.5634,-602.7607 1200.1312,-581.4749 1078.5413,-570.843"/>
<polygon fill="#191970" stroke="#191970" points="1078.4932,-567.3256 1068.2263,-569.9411 1077.8834,-574.299 1078.4932,-567.3256"/>
</g>
<!-- Node181&#45;&gt;Node67 -->
<g id="edge113" class="edge">
<title>Node181&#45;&gt;Node67</title>
<path fill="none" stroke="#191970" d="M1564.2653,-616.1205C1480.4645,-611.0322 1346.8118,-599.1793 1304,-574 1259.7103,-547.9515 1228.5891,-494.1697 1213.4577,-463.0846"/>
<polygon fill="#191970" stroke="#191970" points="1216.5375,-461.4091 1209.1104,-453.8534 1210.2046,-464.3916 1216.5375,-461.4091"/>
</g>
<!-- Node181&#45;&gt;Node112 -->
<g id="edge116" class="edge">
<title>Node181&#45;&gt;Node112</title>
<path fill="none" stroke="#191970" d="M1584.3064,-610.477C1527.7399,-598.1995 1436.1509,-571.4688 1375,-519 1334.3259,-484.1008 1309.0555,-424.0434 1298.1944,-393.5131"/>
<polygon fill="#191970" stroke="#191970" points="1301.3878,-392.0341 1294.843,-383.7024 1294.7636,-394.2969 1301.3878,-392.0341"/>
</g>
<!-- Node181&#45;&gt;Node121 -->
<g id="edge114" class="edge">
<title>Node181&#45;&gt;Node121</title>
<path fill="none" stroke="#191970" d="M1630.2603,-610.3263C1616.2402,-583.1907 1574.6606,-502.7141 1553.9707,-462.669"/>
<polygon fill="#191970" stroke="#191970" points="1557.0058,-460.9184 1549.306,-453.6407 1550.7868,-464.1316 1557.0058,-460.9184"/>
</g>
<!-- Node181&#45;&gt;Node122 -->
<g id="edge115" class="edge">
<title>Node181&#45;&gt;Node122</title>
<path fill="none" stroke="#191970" d="M1637.2432,-610.132C1643.9448,-579.6881 1660.7019,-482.2135 1616,-425 1606.2186,-412.4808 1573.7639,-400.4754 1542.3478,-391.3133"/>
<polygon fill="#191970" stroke="#191970" points="1543.2333,-387.9264 1532.6576,-388.5638 1541.3224,-394.6606 1543.2333,-387.9264"/>
</g>
<!-- Node181&#45;&gt;Node125 -->
<g id="edge112" class="edge">
<title>Node181&#45;&gt;Node125</title>
<path fill="none" stroke="#191970" d="M1641.8267,-610.4761C1655.3587,-592.5891 1685.9354,-552.1716 1705.1742,-526.741"/>
<polygon fill="#191970" stroke="#191970" points="1707.9809,-528.8321 1711.223,-518.7455 1702.3985,-524.6088 1707.9809,-528.8321"/>
</g>
<!-- Node181&#45;&gt;Node210 -->
<g id="edge107" class="edge">
<title>Node181&#45;&gt;Node210</title>
<path fill="none" stroke="#191970" d="M1705.8247,-612.6723C1784.8037,-604.4662 1907.2087,-589.8123 1951,-574 2018.1777,-549.7432 2020.821,-514.253 2088,-490 2136.0425,-472.6557 2269.2673,-456.5794 2357.0666,-447.414"/>
<polygon fill="#191970" stroke="#191970" points="2357.6871,-450.8686 2367.2739,-446.3581 2356.9668,-443.9057 2357.6871,-450.8686"/>
</g>
<!-- Node210&#45;&gt;Node1 -->
<g id="edge108" class="edge">
<title>Node210&#45;&gt;Node1</title>
<path fill="none" stroke="#191970" d="M2455.9269,-425.4822C2489.4071,-397.8927 2566.6795,-334.8921 2634,-285 2656.5833,-268.2632 2670.5644,-272.4918 2686,-249 2716.0285,-203.2989 2705.0447,-63.3404 2697,-55 2675.2137,-32.4128 1680.8281,-13.7722 1474.3141,-10.1406"/>
<polygon fill="#191970" stroke="#191970" points="1474.3257,-6.6404 1464.266,-9.9649 1474.2032,-13.6393 1474.3257,-6.6404"/>
</g>
<!-- Node210&#45;&gt;Node3 -->
<g id="edge109" class="edge">
<title>Node210&#45;&gt;Node3</title>
<path fill="none" stroke="#191970" d="M2470.0289,-425.396C2496.4528,-413.3851 2533.8725,-396.3761 2558.0407,-385.3906"/>
<polygon fill="#191970" stroke="#191970" points="2559.5568,-388.5461 2567.2121,-381.2218 2556.6601,-382.1736 2559.5568,-388.5461"/>
</g>
<!-- Node210&#45;&gt;Node5 -->
<g id="edge111" class="edge">
<title>Node210&#45;&gt;Node5</title>
<path fill="none" stroke="#191970" d="M2425.6912,-425.0275C2395.138,-392.9289 2316.1033,-316.1533 2232,-285 2177.2154,-264.7069 1795.0617,-248.1168 1636.1079,-242.0152"/>
<polygon fill="#191970" stroke="#191970" points="1636.0926,-238.5121 1625.9665,-241.6285 1635.8258,-245.5071 1636.0926,-238.5121"/>
</g>
<!-- Node210&#45;&gt;Node44 -->
<g id="edge110" class="edge">
<title>Node210&#45;&gt;Node44</title>
<path fill="none" stroke="#191970" d="M2441.1524,-425.1509C2447.7449,-381.2009 2467.6631,-248.4124 2475.1309,-198.627"/>
<polygon fill="#191970" stroke="#191970" points="2478.615,-198.9937 2476.6372,-188.5851 2471.6925,-197.9552 2478.615,-198.9937"/>
</g>
<!-- Node314&#45;&gt;Node67 -->
<g id="edge120" class="edge">
<title>Node314&#45;&gt;Node67</title>
<path fill="none" stroke="#191970" d="M1414.7948,-495.462C1376.4632,-485.3338 1313.496,-468.6961 1266.161,-456.1889"/>
<polygon fill="#191970" stroke="#191970" points="1266.8744,-452.7573 1256.312,-453.5865 1265.0861,-459.5251 1266.8744,-452.7573"/>
</g>
<!-- Node314&#45;&gt;Node112 -->
<g id="edge123" class="edge">
<title>Node314&#45;&gt;Node112</title>
<path fill="none" stroke="#191970" d="M1437.7089,-495.1507C1411.1175,-473.1323 1344.3057,-417.8105 1311.2028,-390.4004"/>
<polygon fill="#191970" stroke="#191970" points="1313.1232,-387.4465 1303.1887,-383.7646 1308.6588,-392.8381 1313.1232,-387.4465"/>
</g>
<!-- Node314&#45;&gt;Node121 -->
<g id="edge121" class="edge">
<title>Node314&#45;&gt;Node121</title>
<path fill="none" stroke="#191970" d="M1461.9313,-495.462C1475.1067,-486.2534 1495.981,-471.6638 1513.1128,-459.69"/>
<polygon fill="#191970" stroke="#191970" points="1515.4784,-462.3068 1521.6698,-453.7093 1511.4682,-456.5693 1515.4784,-462.3068"/>
</g>
<!-- Node314&#45;&gt;Node122 -->
<g id="edge122" class="edge">
<title>Node314&#45;&gt;Node122</title>
<path fill="none" stroke="#191970" d="M1450.7979,-495.1507C1454.63,-475.2241 1463.7075,-428.0212 1469.3047,-398.9156"/>
<polygon fill="#191970" stroke="#191970" points="1472.8098,-399.2224 1471.2613,-388.7413 1465.9357,-397.9004 1472.8098,-399.2224"/>
</g>
<!-- Node314&#45;&gt;Node210 -->
<g id="edge119" class="edge">
<title>Node314&#45;&gt;Node210</title>
<path fill="none" stroke="#191970" d="M1514.5422,-499.7573C1554.7789,-496.8723 1607.3665,-493.1492 1654,-490 1910.6445,-472.6686 2214.5854,-453.5029 2357.2926,-444.5843"/>
<polygon fill="#191970" stroke="#191970" points="2357.5237,-448.0768 2367.286,-443.9601 2357.0872,-441.0904 2357.5237,-448.0768"/>
</g>
<!-- Node321&#45;&gt;Node1 -->
<g id="edge125" class="edge">
<title>Node321&#45;&gt;Node1</title>
<path fill="none" stroke="#191970" d="M2727.5196,-290.3249C2738.8525,-267.604 2759,-221.3289 2759,-179.5 2759,-179.5 2759,-179.5 2759,-119.5 2759,-88.9131 2759.8082,-72.8915 2735,-55 2682.5605,-17.181 1681.945,-10.6053 1474.467,-9.6468"/>
<polygon fill="#191970" stroke="#191970" points="1474.3887,-6.1465 1464.3732,-9.6018 1474.3574,-13.1464 1474.3887,-6.1465"/>
</g>
<!-- Node321&#45;&gt;Node5 -->
<g id="edge126" class="edge">
<title>Node321&#45;&gt;Node5</title>
<path fill="none" stroke="#191970" d="M2642.4968,-298.7628C2586.079,-294.674 2507.8249,-289.1833 2439,-285 2140.3217,-266.8456 1783.8186,-249.6367 1636.2296,-242.7082"/>
<polygon fill="#191970" stroke="#191970" points="1636.1208,-239.1994 1625.9678,-242.2273 1635.793,-246.1917 1636.1208,-239.1994"/>
</g>
<!-- Node324&#45;&gt;Node1 -->
<g id="edge130" class="edge">
<title>Node324&#45;&gt;Node1</title>
<path fill="none" stroke="#191970" d="M2882.3813,-285.492C2867.8629,-261.7415 2846,-219.3587 2846,-179.5 2846,-179.5 2846,-179.5 2846,-119.5 2846,-71.0082 2803.8206,-70.8724 2758,-55 2695.7928,-33.4513 1683.3708,-13.9697 1474.5092,-10.1686"/>
<polygon fill="#191970" stroke="#191970" points="1474.4146,-6.6664 1464.3528,-9.9846 1474.2878,-13.6652 1474.4146,-6.6664"/>
</g>
<!-- Node324&#45;&gt;Node5 -->
<g id="edge131" class="edge">
<title>Node324&#45;&gt;Node5</title>
<path fill="none" stroke="#191970" d="M2815.0641,-286.2789C2812.0107,-285.8078 2808.9815,-285.3783 2806,-285 2577.0303,-255.9497 1862.2014,-243.6408 1636.214,-240.4108"/>
<polygon fill="#191970" stroke="#191970" points="1636.1927,-236.9102 1626.1441,-240.2683 1636.0936,-243.9095 1636.1927,-236.9102"/>
</g>
<!-- Node331&#45;&gt;Node1 -->
<g id="edge133" class="edge">
<title>Node331&#45;&gt;Node1</title>
<path fill="none" stroke="#191970" d="M3035.9737,-290.4807C3011.0227,-269.3458 2969,-226.7382 2969,-179.5 2969,-179.5 2969,-179.5 2969,-119.5 2969,-39.5194 2879.3869,-70.8866 2801,-55 2667.9692,-28.0388 1680.2113,-12.8883 1474.4763,-10.0068"/>
<polygon fill="#191970" stroke="#191970" points="1474.241,-6.5033 1464.1933,-9.8639 1474.1437,-13.5026 1474.241,-6.5033"/>
</g>
<!-- Node331&#45;&gt;Node5 -->
<g id="edge134" class="edge">
<title>Node331&#45;&gt;Node5</title>
<path fill="none" stroke="#191970" d="M3009.9127,-290.4967C3001.3936,-288.2823 2992.4798,-286.298 2984,-285 2850.3736,-264.5458 1902.5506,-245.6894 1636.3681,-240.7519"/>
<polygon fill="#191970" stroke="#191970" points="1636.1313,-237.247 1626.0683,-240.5615 1636.0018,-244.2458 1636.1313,-237.247"/>
</g>
</g>
</svg>
        <g id="navigator" transform="translate(0 0)" fill="#404254">
                <rect fill="#f2f5e9" fill-opacity="0.5" stroke="#606060" stroke-width=".5" x="0" y="0" width="60" height="60"/>
                <use id="zoomplus" xlink:href="#zoomPlus" x="17" y="9" onmousedown="handleZoom(evt,'in')"/>
                <use id="zoomminus" xlink:href="#zoomMin" x="42" y="9" onmousedown="handleZoom(evt,'out')"/>
                <use id="reset" xlink:href="#resetDef" x="30" y="36" onmousedown="handleReset()"/>
                <g id="arrowUp" xlink:href="#dirArrow" transform="translate(30 24)" onmousedown="handlePan(0,-1)">
                  <use xlink:href="#rim" fill="#404040">
                        <set attributeName="fill" to="#808080" begin="arrowUp.mouseover" end="arrowUp.mouseout"/>
                  </use>
                  <path fill="none" stroke="white" stroke-width="1.5" d="M0,-3.0v7 M-2.5,-0.5L0,-3.0L2.5,-0.5"/>
                </g>
                <g id="arrowRight" xlink:href="#dirArrow" transform="rotate(90) translate(36 -43)" onmousedown="handlePan(1,0)">
                  <use xlink:href="#rim" fill="#404040">
                        <set attributeName="fill" to="#808080" begin="arrowRight.mouseover" end="arrowRight.mouseout"/>
                  </use>
                  <path fill="none" stroke="white" stroke-width="1.5" d="M0,-3.0v7 M-2.5,-0.5L0,-3.0L2.5,-0.5"/>
                </g>
                <g id="arrowDown" xlink:href="#dirArrow" transform="rotate(180) translate(-30 -48)" onmousedown="handlePan(0,1)">
                  <use xlink:href="#rim" fill="#404040">
                        <set attributeName="fill" to="#808080" begin="arrowDown.mouseover" end="arrowDown.mouseout"/>
                  </use>
                  <path fill="none" stroke="white" stroke-width="1.5" d="M0,-3.0v7 M-2.5,-0.5L0,-3.0L2.5,-0.5"/>
                </g>
                <g id="arrowLeft" xlink:href="#dirArrow" transform="rotate(270) translate(-36 17)" onmousedown="handlePan(-1,0)">
                  <use xlink:href="#rim" fill="#404040">
                        <set attributeName="fill" to="#808080" begin="arrowLeft.mouseover" end="arrowLeft.mouseout"/>
                  </use>
                  <path fill="none" stroke="white" stroke-width="1.5" d="M0,-3.0v7 M-2.5,-0.5L0,-3.0L2.5,-0.5"/>
                </g>
        </g>
        <svg viewBox="0 0 15 15" width="100%" height="30px" preserveAspectRatio="xMaxYMin meet">
         <g id="arrow_out" transform="scale(0.3 0.3)">
          <a xlink:href="testCombinDSS_8cpp__incl_org.svg" target="_base">
           <rect id="button" ry="5" rx="5" y="6" x="6" height="38" width="38"
                fill="#f2f5e9" fill-opacity="0.5" stroke="#606060" stroke-width="1.0"/>
           <path id="arrow"
             d="M 11.500037,31.436501 C 11.940474,20.09759 22.043105,11.32322 32.158766,21.979434 L 37.068811,17.246167 C 37.068811,17.246167 37.088388,32 37.088388,32 L 22.160133,31.978069 C 22.160133,31.978069 26.997745,27.140456 26.997745,27.140456 C 18.528582,18.264221 13.291696,25.230495 11.500037,31.436501 z"
             style="fill:#404040;"/>
          </a>
         </g>
        </svg>
</svg>
