<?xml version="1.0" encoding="UTF-8" standalone="no"?>
<!DOCTYPE svg PUBLIC "-//W3C//DTD SVG 1.1//EN"
 "http://www.w3.org/Graphics/SVG/1.1/DTD/svg11.dtd">
<!-- Generated by graphviz version 2.40.1 (20161225.0304)
 -->
<!-- Title: DGtal::DomainAdjacency&lt; TDomain, TAdjacency &gt; Pages: 1 -->
<svg width="173pt" height="187pt"
 viewBox="0.00 0.00 172.95 187.00" xmlns="http://www.w3.org/2000/svg" xmlns:xlink="http://www.w3.org/1999/xlink">
<g id="graph0" class="graph" transform="scale(1 1) rotate(0) translate(4 183)">
<title>DGtal::DomainAdjacency&lt; TDomain, TAdjacency &gt;</title>
<polygon fill="#ffffff" stroke="transparent" points="-4,4 -4,-183 168.9502,-183 168.9502,4 -4,4"/>
<!-- Node2 -->
<g id="node1" class="node">
<title>Node2</title>
<polygon fill="#bfbfbf" stroke="#000000" points="17.2168,-.5 17.2168,-28.5 147.7334,-28.5 147.7334,-.5 17.2168,-.5"/>
<text text-anchor="start" x="25.2168" y="-16.5" font-family="FreeSans" font-size="10.00" fill="#000000">DGtal::DomainAdjacency</text>
<text text-anchor="middle" x="82.4751" y="-6.5" font-family="FreeSans" font-size="10.00" fill="#000000">&lt; TDomain, TAdjacency &gt;</text>
</g>
<!-- Node3 -->
<g id="node2" class="node">
<title>Node3</title>
<g id="a_node2"><a xlink:href="structDGtal_1_1functors_1_1DomainPredicate.html" target="_top" xlink:title="DGtal::functors::DomainPredicate\l\&lt; Domain \&gt;">
<polygon fill="#ffffff" stroke="#000000" points="0,-75.5 0,-103.5 164.9502,-103.5 164.9502,-75.5 0,-75.5"/>
<text text-anchor="start" x="8" y="-91.5" font-family="FreeSans" font-size="10.00" fill="#000000">DGtal::functors::DomainPredicate</text>
<text text-anchor="middle" x="82.4751" y="-81.5" font-family="FreeSans" font-size="10.00" fill="#000000">&lt; Domain &gt;</text>
</a>
</g>
</g>
<!-- Node3&#45;&gt;Node2 -->
<g id="edge1" class="edge">
<title>Node3&#45;&gt;Node2</title>
<path fill="none" stroke="#9a32cd" stroke-dasharray="5,2" d="M82.4751,-65.0415C82.4751,-52.9507 82.4751,-38.7938 82.4751,-28.5437"/>
<polygon fill="#9a32cd" stroke="#9a32cd" points="78.9752,-65.393 82.4751,-75.3931 85.9752,-65.3931 78.9752,-65.393"/>
<text text-anchor="middle" x="101.0908" y="-49" font-family="FreeSans" font-size="10.00" fill="#000000"> myPred</text>
</g>
<!-- Node4 -->
<g id="node3" class="node">
<title>Node4</title>
<g id="a_node3"><a xlink:href="structDGtal_1_1functors_1_1DomainPredicate.html" target="_top" xlink:title="Aim: The predicate returning true iff the point is in the domain given at construction. It is just a wrapper class around the methods Domain::isInside( const Point &amp; ), where Domain stands for any model of CDomain. ">
<polygon fill="#ffffff" stroke="#000000" points="0,-150.5 0,-178.5 164.9502,-178.5 164.9502,-150.5 0,-150.5"/>
<text text-anchor="start" x="8" y="-166.5" font-family="FreeSans" font-size="10.00" fill="#000000">DGtal::functors::DomainPredicate</text>
<text text-anchor="middle" x="82.4751" y="-156.5" font-family="FreeSans" font-size="10.00" fill="#000000">&lt; TDomain &gt;</text>
</a>
</g>
</g>
<!-- Node4&#45;&gt;Node3 -->
<g id="edge2" class="edge">
<title>Node4&#45;&gt;Node3</title>
<path fill="none" stroke="#ffa500" stroke-dasharray="5,2" d="M82.4751,-140.0415C82.4751,-127.9507 82.4751,-113.7938 82.4751,-103.5437"/>
<polygon fill="#ffa500" stroke="#ffa500" points="78.9752,-140.393 82.4751,-150.3931 85.9752,-140.3931 78.9752,-140.393"/>
<text text-anchor="middle" x="109.7114" y="-124" font-family="FreeSans" font-size="10.00" fill="#000000"> &lt; Domain &gt;</text>
</g>
</g>
</svg>
