<?xml version="1.0" encoding="UTF-8" standalone="no"?>
<!DOCTYPE svg PUBLIC "-//W3C//DTD SVG 1.1//EN"
 "http://www.w3.org/Graphics/SVG/1.1/DTD/svg11.dtd">
<!-- Generated by graphviz version 2.40.1 (20161225.0304)
 -->
<!-- Title: DGtal::LatticePolytope2D&lt; TSpace, TSequence &gt; Pages: 1 -->
<svg width="159pt" height="112pt"
 viewBox="0.00 0.00 159.43 112.00" xmlns="http://www.w3.org/2000/svg" xmlns:xlink="http://www.w3.org/1999/xlink">
<g id="graph0" class="graph" transform="scale(1 1) rotate(0) translate(4 108)">
<title>DGtal::LatticePolytope2D&lt; TSpace, TSequence &gt;</title>
<polygon fill="#ffffff" stroke="transparent" points="-4,4 -4,-108 155.4253,-108 155.4253,4 -4,4"/>
<!-- Node0 -->
<g id="node1" class="node">
<title>Node0</title>
<polygon fill="#bfbfbf" stroke="#000000" points="0,-75.5 0,-103.5 128.2803,-103.5 128.2803,-75.5 0,-75.5"/>
<text text-anchor="start" x="8" y="-91.5" font-family="FreeSans" font-size="10.00" fill="#000000">DGtal::LatticePolytope2D</text>
<text text-anchor="middle" x="64.1401" y="-81.5" font-family="FreeSans" font-size="10.00" fill="#000000">&lt; TSpace, TSequence &gt;</text>
</g>
<!-- Node1 -->
<g id="node2" class="node">
<title>Node1</title>
<g id="a_node2"><a xlink:href="classDGtal_1_1LatticePolytope2D.html" target="_top" xlink:title="DGtal::LatticePolytope2D\l\&lt; InternalSpace2 \&gt;">
<polygon fill="#ffffff" stroke="#000000" points="0,-.5 0,-28.5 128.2803,-28.5 128.2803,-.5 0,-.5"/>
<text text-anchor="start" x="8" y="-16.5" font-family="FreeSans" font-size="10.00" fill="#000000">DGtal::LatticePolytope2D</text>
<text text-anchor="middle" x="64.1401" y="-6.5" font-family="FreeSans" font-size="10.00" fill="#000000">&lt; InternalSpace2 &gt;</text>
</a>
</g>
</g>
<!-- Node0&#45;&gt;Node1 -->
<g id="edge1" class="edge">
<title>Node0&#45;&gt;Node1</title>
<path fill="none" stroke="#ffa500" stroke-dasharray="5,2" d="M64.1401,-65.0415C64.1401,-52.9507 64.1401,-38.7938 64.1401,-28.5437"/>
<polygon fill="#ffa500" stroke="#ffa500" points="60.6402,-65.393 64.1401,-75.3931 67.6402,-65.3931 60.6402,-65.393"/>
<text text-anchor="middle" x="107.7827" y="-49" font-family="FreeSans" font-size="10.00" fill="#000000"> &lt; InternalSpace2 &gt;</text>
</g>
</g>
</svg>
