<?xml version="1.0" encoding="UTF-8" standalone="no"?>
<!DOCTYPE svg PUBLIC "-//W3C//DTD SVG 1.1//EN"
 "http://www.w3.org/Graphics/SVG/1.1/DTD/svg11.dtd">
<!-- Generated by graphviz version 2.40.1 (20161225.0304)
 -->
<!-- Title: DGtal::DigitalSurfaceConvolver&lt; TFunctor, TKernelFunctor, TKSpace, TDigitalKernel, dimension &gt; Pages: 1 -->
<svg width="314pt" height="262pt"
 viewBox="0.00 0.00 313.83 262.00" xmlns="http://www.w3.org/2000/svg" xmlns:xlink="http://www.w3.org/1999/xlink">
<g id="graph0" class="graph" transform="scale(1 1) rotate(0) translate(4 258)">
<title>DGtal::DigitalSurfaceConvolver&lt; TFunctor, TKernelFunctor, TKSpace, TDigitalKernel, dimension &gt;</title>
<polygon fill="#ffffff" stroke="transparent" points="-4,4 -4,-258 309.8345,-258 309.8345,4 -4,4"/>
<!-- Node1 -->
<g id="node1" class="node">
<title>Node1</title>
<polygon fill="#bfbfbf" stroke="#000000" points="54.0762,-.5 54.0762,-38.5 241.751,-38.5 241.751,-.5 54.0762,-.5"/>
<text text-anchor="start" x="62.0762" y="-26.5" font-family="FreeSans" font-size="10.00" fill="#000000">DGtal::DigitalSurfaceConvolver</text>
<text text-anchor="start" x="62.0762" y="-16.5" font-family="FreeSans" font-size="10.00" fill="#000000">&lt; TFunctor, TKernelFunctor,</text>
<text text-anchor="middle" x="147.9136" y="-6.5" font-family="FreeSans" font-size="10.00" fill="#000000"> TKSpace, TDigitalKernel, dimension &gt;</text>
</g>
<!-- Node2 -->
<g id="node2" class="node">
<title>Node2</title>
<polygon fill="#ffffff" stroke="#bfbfbf" points="0,-90.5 0,-108.5 133.8271,-108.5 133.8271,-90.5 0,-90.5"/>
<text text-anchor="middle" x="66.9136" y="-96.5" font-family="FreeSans" font-size="10.00" fill="#000000">std::vector&lt; PairIterators &gt;</text>
</g>
<!-- Node2&#45;&gt;Node1 -->
<g id="edge1" class="edge">
<title>Node2&#45;&gt;Node1</title>
<path fill="none" stroke="#9a32cd" stroke-dasharray="5,2" d="M83.5986,-83.021C96.6778,-70.1032 114.8965,-52.1095 128.6053,-38.5699"/>
<polygon fill="#9a32cd" stroke="#9a32cd" points="80.8607,-80.8057 76.2053,-90.323 85.7796,-85.7861 80.8607,-80.8057"/>
<text text-anchor="middle" x="132.4136" y="-59" font-family="FreeSans" font-size="10.00" fill="#000000"> myMasks</text>
</g>
<!-- Node3 -->
<g id="node3" class="node">
<title>Node3</title>
<g id="a_node3"><a xlink:title="STL class. ">
<polygon fill="#ffffff" stroke="#bfbfbf" points="24.353,-165.5 24.353,-183.5 109.4741,-183.5 109.4741,-165.5 24.353,-165.5"/>
<text text-anchor="middle" x="66.9136" y="-171.5" font-family="FreeSans" font-size="10.00" fill="#000000">std::vector&lt; T &gt;</text>
</a>
</g>
</g>
<!-- Node3&#45;&gt;Node2 -->
<g id="edge2" class="edge">
<title>Node3&#45;&gt;Node2</title>
<path fill="none" stroke="#ffa500" stroke-dasharray="5,2" d="M66.9136,-155.1079C66.9136,-140.2042 66.9136,-120.2791 66.9136,-108.7717"/>
<polygon fill="#ffa500" stroke="#ffa500" points="63.4137,-155.3035 66.9136,-165.3035 70.4137,-155.3036 63.4137,-155.3035"/>
<text text-anchor="middle" x="104.1523" y="-134" font-family="FreeSans" font-size="10.00" fill="#000000"> &lt; PairIterators &gt;</text>
</g>
<!-- Node4 -->
<g id="node4" class="node">
<title>Node4</title>
<polygon fill="#ffffff" stroke="#bfbfbf" points="52.4136,-235.5 52.4136,-253.5 81.4136,-253.5 81.4136,-235.5 52.4136,-235.5"/>
<text text-anchor="middle" x="66.4678" y="-241.5" font-family="FreeSans" font-size="10.00" fill="#000000">T</text>
</g>
<!-- Node4&#45;&gt;Node3 -->
<g id="edge3" class="edge">
<title>Node4&#45;&gt;Node3</title>
<path fill="none" stroke="#9a32cd" stroke-dasharray="5,2" d="M66.9136,-225.2039C66.9136,-211.7531 66.9136,-194.3986 66.9136,-183.8769"/>
<polygon fill="#9a32cd" stroke="#9a32cd" points="63.4137,-225.3487 66.9136,-235.3487 70.4137,-225.3488 63.4137,-225.3487"/>
<text text-anchor="middle" x="88.5908" y="-209" font-family="FreeSans" font-size="10.00" fill="#000000"> elements</text>
</g>
<!-- Node5 -->
<g id="node5" class="node">
<title>Node5</title>
<g id="a_node5"><a xlink:href="structDGtal_1_1CanonicSCellEmbedder.html" target="_top" xlink:title="DGtal::CanonicSCellEmbedder\l\&lt; KSpace \&gt;">
<polygon fill="#ffffff" stroke="#000000" points="151.9927,-85.5 151.9927,-113.5 305.8345,-113.5 305.8345,-85.5 151.9927,-85.5"/>
<text text-anchor="start" x="159.9927" y="-101.5" font-family="FreeSans" font-size="10.00" fill="#000000">DGtal::CanonicSCellEmbedder</text>
<text text-anchor="middle" x="228.9136" y="-91.5" font-family="FreeSans" font-size="10.00" fill="#000000">&lt; KSpace &gt;</text>
</a>
</g>
</g>
<!-- Node5&#45;&gt;Node1 -->
<g id="edge4" class="edge">
<title>Node5&#45;&gt;Node1</title>
<path fill="none" stroke="#9a32cd" stroke-dasharray="5,2" d="M207.1734,-78.0282C194.801,-65.8086 179.4304,-50.6278 167.444,-38.7893"/>
<polygon fill="#9a32cd" stroke="#9a32cd" points="204.8581,-80.6608 214.4324,-85.1976 209.777,-75.6804 204.8581,-80.6608"/>
<text text-anchor="middle" x="227.0366" y="-59" font-family="FreeSans" font-size="10.00" fill="#000000"> myEmbedder</text>
</g>
<!-- Node6 -->
<g id="node6" class="node">
<title>Node6</title>
<g id="a_node6"><a xlink:href="structDGtal_1_1CanonicSCellEmbedder.html" target="_top" xlink:title="Aim: A trivial embedder for signed cell, which corresponds to the canonic injection of cell centroids...">
<polygon fill="#ffffff" stroke="#000000" points="151.9927,-160.5 151.9927,-188.5 305.8345,-188.5 305.8345,-160.5 151.9927,-160.5"/>
<text text-anchor="start" x="159.9927" y="-176.5" font-family="FreeSans" font-size="10.00" fill="#000000">DGtal::CanonicSCellEmbedder</text>
<text text-anchor="middle" x="228.9136" y="-166.5" font-family="FreeSans" font-size="10.00" fill="#000000">&lt; TKSpace &gt;</text>
</a>
</g>
</g>
<!-- Node6&#45;&gt;Node5 -->
<g id="edge5" class="edge">
<title>Node6&#45;&gt;Node5</title>
<path fill="none" stroke="#ffa500" stroke-dasharray="5,2" d="M228.9136,-150.0415C228.9136,-137.9507 228.9136,-123.7938 228.9136,-113.5437"/>
<polygon fill="#ffa500" stroke="#ffa500" points="225.4137,-150.393 228.9136,-160.3931 232.4137,-150.3931 225.4137,-150.393"/>
<text text-anchor="middle" x="256.4331" y="-134" font-family="FreeSans" font-size="10.00" fill="#000000"> &lt; KSpace &gt;</text>
</g>
</g>
</svg>
