<?xml version="1.0" encoding="UTF-8" standalone="no"?>
<!DOCTYPE svg PUBLIC "-//W3C//DTD SVG 1.1//EN"
 "http://www.w3.org/Graphics/SVG/1.1/DTD/svg11.dtd">
<!-- Generated by graphviz version 2.40.1 (20161225.0304)
 -->
<!-- Title: DGtal::ImplicitDigitalSurface&lt; TKSpace, TPointPredicate &gt;::Tracker Pages: 1 -->
<svg width="1117pt" height="168pt"
 viewBox="0.00 0.00 1116.51 167.50" xmlns="http://www.w3.org/2000/svg" xmlns:xlink="http://www.w3.org/1999/xlink">
<g id="graph0" class="graph" transform="scale(1 1) rotate(0) translate(4 163.5)">
<title>DGtal::ImplicitDigitalSurface&lt; TKSpace, TPointPredicate &gt;::Tracker</title>
<polygon fill="#ffffff" stroke="transparent" points="-4,4 -4,-163.5 1112.5068,-163.5 1112.5068,4 -4,4"/>
<!-- Node1 -->
<g id="node1" class="node">
<title>Node1</title>
<polygon fill="#bfbfbf" stroke="#000000" points="966.4033,-68.5 966.4033,-106.5 1108.5068,-106.5 1108.5068,-68.5 966.4033,-68.5"/>
<text text-anchor="start" x="974.4033" y="-94.5" font-family="FreeSans" font-size="10.00" fill="#000000">DGtal::ImplicitDigitalSurface</text>
<text text-anchor="start" x="974.4033" y="-84.5" font-family="FreeSans" font-size="10.00" fill="#000000">&lt; TKSpace, TPointPredicate</text>
<text text-anchor="middle" x="1037.4551" y="-74.5" font-family="FreeSans" font-size="10.00" fill="#000000"> &gt;::Tracker</text>
</g>
<!-- Node2 -->
<g id="node2" class="node">
<title>Node2</title>
<g id="a_node2"><a xlink:href="classDGtal_1_1SurfelNeighborhood.html" target="_top" xlink:title="DGtal::SurfelNeighborhood\l\&lt; KSpace \&gt;">
<polygon fill="#ffffff" stroke="#000000" points="708.0728,-50.5 708.0728,-78.5 844.1411,-78.5 844.1411,-50.5 708.0728,-50.5"/>
<text text-anchor="start" x="716.0728" y="-66.5" font-family="FreeSans" font-size="10.00" fill="#000000">DGtal::SurfelNeighborhood</text>
<text text-anchor="middle" x="776.1069" y="-56.5" font-family="FreeSans" font-size="10.00" fill="#000000">&lt; KSpace &gt;</text>
</a>
</g>
</g>
<!-- Node2&#45;&gt;Node1 -->
<g id="edge1" class="edge">
<title>Node2&#45;&gt;Node1</title>
<path fill="none" stroke="#9a32cd" stroke-dasharray="5,2" d="M854.748,-68.3554C884.1686,-70.104 917.8532,-72.4702 948.4033,-75.5 954.1472,-76.0696 960.0909,-76.7253 966.0568,-77.4302"/>
<polygon fill="#9a32cd" stroke="#9a32cd" points="854.7176,-64.8478 844.5316,-67.7625 854.312,-71.836 854.7176,-64.8478"/>
<text text-anchor="middle" x="908.9355" y="-77.5" font-family="FreeSans" font-size="10.00" fill="#000000"> myNeighborhood</text>
</g>
<!-- Node3 -->
<g id="node3" class="node">
<title>Node3</title>
<g id="a_node3"><a xlink:href="classDGtal_1_1SurfelAdjacency.html" target="_top" xlink:title="DGtal::SurfelAdjacency\l\&lt; KSpace::dimension \&gt;">
<polygon fill="#ffffff" stroke="#000000" points="261.5557,-51.5 261.5557,-79.5 380.9541,-79.5 380.9541,-51.5 261.5557,-51.5"/>
<text text-anchor="start" x="269.5557" y="-67.5" font-family="FreeSans" font-size="10.00" fill="#000000">DGtal::SurfelAdjacency</text>
<text text-anchor="middle" x="321.2549" y="-57.5" font-family="FreeSans" font-size="10.00" fill="#000000">&lt; KSpace::dimension &gt;</text>
</a>
</g>
</g>
<!-- Node3&#45;&gt;Node2 -->
<g id="edge2" class="edge">
<title>Node3&#45;&gt;Node2</title>
<path fill="none" stroke="#9a32cd" stroke-dasharray="5,2" d="M391.3893,-65.3458C477.5153,-65.1565 622.628,-64.8374 707.8745,-64.65"/>
<polygon fill="#9a32cd" stroke="#9a32cd" points="391.1788,-61.8462 381.1866,-65.3682 391.1943,-68.8461 391.1788,-61.8462"/>
<text text-anchor="middle" x="541.6729" y="-67.5" font-family="FreeSans" font-size="10.00" fill="#000000"> mySurfelAdj</text>
</g>
<!-- Node5 -->
<g id="node5" class="node">
<title>Node5</title>
<g id="a_node5"><a xlink:href="classDGtal_1_1SurfelNeighborhood.html" target="_top" xlink:title="Aim: This helper class is useful to compute the neighboring surfels of a given surfel, especially over a digital surface or over an object boundary. Two signed surfels are incident if they share a common n&#45;2 cell. This class uses a SurfelAdjacency so as to determine adjacent surfels (either looking for them from interior to exterior or inversely). ">
<polygon fill="#ffffff" stroke="#000000" points="473.6387,-.5 473.6387,-28.5 609.707,-28.5 609.707,-.5 473.6387,-.5"/>
<text text-anchor="start" x="481.6387" y="-16.5" font-family="FreeSans" font-size="10.00" fill="#000000">DGtal::SurfelNeighborhood</text>
<text text-anchor="middle" x="541.6729" y="-6.5" font-family="FreeSans" font-size="10.00" fill="#000000">&lt; TKSpace &gt;</text>
</a>
</g>
</g>
<!-- Node3&#45;&gt;Node5 -->
<g id="edge5" class="edge">
<title>Node3&#45;&gt;Node5</title>
<path fill="none" stroke="#9a32cd" stroke-dasharray="5,2" d="M373.5349,-48.4721C381.9888,-45.973 390.6812,-43.5533 398.9541,-41.5 423.0615,-35.5166 449.7462,-30.1405 473.456,-25.79"/>
<polygon fill="#9a32cd" stroke="#9a32cd" points="372.3203,-45.1827 363.7597,-51.425 374.3446,-51.8836 372.3203,-45.1827"/>
<text text-anchor="middle" x="427.2964" y="-43.5" font-family="FreeSans" font-size="10.00" fill="#000000"> mySurfelAdj</text>
</g>
<!-- Node6 -->
<g id="node6" class="node">
<title>Node6</title>
<g id="a_node6"><a xlink:href="classDGtal_1_1ImplicitDigitalSurface.html" target="_top" xlink:title="Aim: A model of CDigitalSurfaceContainer which defines the digital surface as the boundary of an impl...">
<polygon fill="#ffffff" stroke="#000000" points="700.7461,-97.5 700.7461,-125.5 851.4678,-125.5 851.4678,-97.5 700.7461,-97.5"/>
<text text-anchor="start" x="708.7461" y="-113.5" font-family="FreeSans" font-size="10.00" fill="#000000">DGtal::ImplicitDigitalSurface</text>
<text text-anchor="middle" x="776.1069" y="-103.5" font-family="FreeSans" font-size="10.00" fill="#000000">&lt; TKSpace, TPointPredicate &gt;</text>
</a>
</g>
</g>
<!-- Node3&#45;&gt;Node6 -->
<g id="edge10" class="edge">
<title>Node3&#45;&gt;Node6</title>
<path fill="none" stroke="#9a32cd" stroke-dasharray="5,2" d="M390.8925,-78.3726C393.6118,-78.7721 396.3065,-79.1499 398.9541,-79.5 503.0252,-93.2602 624.076,-102.308 700.3892,-107.1664"/>
<polygon fill="#9a32cd" stroke="#9a32cd" points="391.3958,-74.909 380.9791,-76.8433 390.3285,-81.8271 391.3958,-74.909"/>
<text text-anchor="middle" x="541.6729" y="-102.5" font-family="FreeSans" font-size="10.00" fill="#000000"> mySurfelAdjacency</text>
</g>
<!-- Node4 -->
<g id="node4" class="node">
<title>Node4</title>
<g id="a_node4"><a xlink:href="classDGtal_1_1SurfelAdjacency.html" target="_top" xlink:title="Aim: Represent adjacencies between surfel elements, telling if it follows an interior to exterior ord...">
<polygon fill="#ffffff" stroke="#000000" points="0,-51.5 0,-79.5 119.3789,-79.5 119.3789,-51.5 0,-51.5"/>
<text text-anchor="start" x="8" y="-67.5" font-family="FreeSans" font-size="10.00" fill="#000000">DGtal::SurfelAdjacency</text>
<text text-anchor="middle" x="59.6895" y="-57.5" font-family="FreeSans" font-size="10.00" fill="#000000">&lt; dim &gt;</text>
</a>
</g>
</g>
<!-- Node4&#45;&gt;Node3 -->
<g id="edge3" class="edge">
<title>Node4&#45;&gt;Node3</title>
<path fill="none" stroke="#ffa500" stroke-dasharray="5,2" d="M129.9145,-65.5C171.0221,-65.5 222.3734,-65.5 261.5257,-65.5"/>
<polygon fill="#ffa500" stroke="#ffa500" points="129.6979,-62.0001 119.6978,-65.5 129.6978,-69.0001 129.6979,-62.0001"/>
<text text-anchor="middle" x="190.4673" y="-67.5" font-family="FreeSans" font-size="10.00" fill="#000000"> &lt; KSpace::dimension &gt;</text>
</g>
<!-- Node5&#45;&gt;Node2 -->
<g id="edge4" class="edge">
<title>Node5&#45;&gt;Node2</title>
<path fill="none" stroke="#ffa500" stroke-dasharray="5,2" d="M619.9077,-28.7163C640.3992,-32.6468 662.4393,-37.0586 682.7461,-41.5 695.1399,-44.2107 708.4032,-47.339 720.9274,-50.3981"/>
<polygon fill="#ffa500" stroke="#ffa500" points="620.4652,-25.2596 609.987,-26.8274 619.1559,-32.1361 620.4652,-25.2596"/>
<text text-anchor="middle" x="655.2266" y="-43.5" font-family="FreeSans" font-size="10.00" fill="#000000"> &lt; KSpace &gt;</text>
</g>
<!-- Node6&#45;&gt;Node1 -->
<g id="edge6" class="edge">
<title>Node6&#45;&gt;Node1</title>
<path fill="none" stroke="#9a32cd" stroke-dasharray="5,2" d="M862.0017,-103.6122C895.7027,-100.5173 933.9239,-97.0074 966.0702,-94.0554"/>
<polygon fill="#9a32cd" stroke="#9a32cd" points="861.3377,-100.1583 851.6996,-104.5582 861.9778,-107.129 861.3377,-100.1583"/>
<text text-anchor="middle" x="908.9355" y="-103.5" font-family="FreeSans" font-size="10.00" fill="#000000"> mySurface</text>
</g>
<!-- Node7 -->
<g id="node7" class="node">
<title>Node7</title>
<polygon fill="#ffffff" stroke="#bfbfbf" points="488.9292,-140.5 488.9292,-158.5 594.4165,-158.5 594.4165,-140.5 488.9292,-140.5"/>
<text text-anchor="middle" x="541.6729" y="-146.5" font-family="FreeSans" font-size="10.00" fill="#000000">std::vector&lt; Surfel &gt;</text>
</g>
<!-- Node7&#45;&gt;Node6 -->
<g id="edge7" class="edge">
<title>Node7&#45;&gt;Node6</title>
<path fill="none" stroke="#9a32cd" stroke-dasharray="5,2" d="M604.7693,-139.2725C634.327,-134.4815 669.7672,-128.7369 700.7259,-123.7187"/>
<polygon fill="#9a32cd" stroke="#9a32cd" points="603.8879,-135.8696 594.5767,-140.9247 605.008,-142.7795 603.8879,-135.8696"/>
<text text-anchor="middle" x="655.2266" y="-136.5" font-family="FreeSans" font-size="10.00" fill="#000000"> mySurfels</text>
</g>
<!-- Node8 -->
<g id="node8" class="node">
<title>Node8</title>
<g id="a_node8"><a xlink:title="STL class. ">
<polygon fill="#ffffff" stroke="#bfbfbf" points="278.6943,-140.5 278.6943,-158.5 363.8154,-158.5 363.8154,-140.5 278.6943,-140.5"/>
<text text-anchor="middle" x="321.2549" y="-146.5" font-family="FreeSans" font-size="10.00" fill="#000000">std::vector&lt; T &gt;</text>
</a>
</g>
</g>
<!-- Node8&#45;&gt;Node7 -->
<g id="edge8" class="edge">
<title>Node8&#45;&gt;Node7</title>
<path fill="none" stroke="#ffa500" stroke-dasharray="5,2" d="M374.4309,-149.5C409.1461,-149.5 454.2827,-149.5 488.9139,-149.5"/>
<polygon fill="#ffa500" stroke="#ffa500" points="374.0151,-146.0001 364.015,-149.5 374.015,-153.0001 374.0151,-146.0001"/>
<text text-anchor="middle" x="427.2964" y="-151.5" font-family="FreeSans" font-size="10.00" fill="#000000"> &lt; Surfel &gt;</text>
</g>
<!-- Node9 -->
<g id="node9" class="node">
<title>Node9</title>
<polygon fill="#ffffff" stroke="#bfbfbf" points="45.1895,-140.5 45.1895,-158.5 74.1895,-158.5 74.1895,-140.5 45.1895,-140.5"/>
<text text-anchor="middle" x="59.6895" y="-146.5" font-family="FreeSans" font-size="10.00" fill="#000000">T</text>
</g>
<!-- Node9&#45;&gt;Node8 -->
<g id="edge9" class="edge">
<title>Node9&#45;&gt;Node8</title>
<path fill="none" stroke="#9a32cd" stroke-dasharray="5,2" d="M84.7504,-149.5C129.4451,-149.5 223.3776,-149.5 278.4641,-149.5"/>
<polygon fill="#9a32cd" stroke="#9a32cd" points="84.5018,-146.0001 74.5018,-149.5 84.5017,-153.0001 84.5018,-146.0001"/>
<text text-anchor="middle" x="190.4673" y="-151.5" font-family="FreeSans" font-size="10.00" fill="#000000"> elements</text>
</g>
</g>
</svg>
