<?xml version="1.0" encoding="UTF-8" standalone="no"?>
<!DOCTYPE svg PUBLIC "-//W3C//DTD SVG 1.1//EN"
 "http://www.w3.org/Graphics/SVG/1.1/DTD/svg11.dtd">
<!-- Generated by graphviz version 2.40.1 (20161225.0304)
 -->
<!-- Title: exampleGridCurve3d&#45;2.cpp Pages: 1 -->
<svg width="3301pt" height="712pt"
 viewBox="0.00 0.00 3300.63 712.00" xmlns="http://www.w3.org/2000/svg" xmlns:xlink="http://www.w3.org/1999/xlink">
<g id="graph0" class="graph" transform="scale(1 1) rotate(0) translate(4 708)">
<title>exampleGridCurve3d&#45;2.cpp</title>
<polygon fill="#ffffff" stroke="transparent" points="-4,4 -4,-708 3296.6304,-708 3296.6304,4 -4,4"/>
<!-- Node0 -->
<g id="node1" class="node">
<title>Node0</title>
<polygon fill="#bfbfbf" stroke="#000000" points="2147.7563,-675.5 2147.7563,-703.5 2258.2437,-703.5 2258.2437,-675.5 2147.7563,-675.5"/>
<text text-anchor="start" x="2155.7563" y="-691.5" font-family="FreeSans" font-size="10.00" fill="#000000">exampleGridCurve3d</text>
<text text-anchor="middle" x="2203" y="-681.5" font-family="FreeSans" font-size="10.00" fill="#000000">&#45;2.cpp</text>
</g>
<!-- Node1 -->
<g id="node2" class="node">
<title>Node1</title>
<polygon fill="#ffffff" stroke="#bfbfbf" points="943.8276,-.5 943.8276,-18.5 998.1724,-18.5 998.1724,-.5 943.8276,-.5"/>
<text text-anchor="middle" x="971" y="-6.5" font-family="FreeSans" font-size="10.00" fill="#000000">iostream</text>
</g>
<!-- Node0&#45;&gt;Node1 -->
<g id="edge1" class="edge">
<title>Node0&#45;&gt;Node1</title>
<path fill="none" stroke="#191970" d="M2147.7181,-689.336C1806.3765,-687.971 0,-675.5035 0,-564.5 0,-564.5 0,-564.5 0,-119.5 0,-85.532 11.6361,-72.076 41,-55 80.1609,-32.2268 763.9832,-14.4452 933.3091,-10.378"/>
<polygon fill="#191970" stroke="#191970" points="933.5684,-13.8729 943.482,-10.1354 933.4014,-6.8749 933.5684,-13.8729"/>
</g>
<!-- Node2 -->
<g id="node3" class="node">
<title>Node2</title>
<g id="a_node3"><a xlink:href="Common_8h_source.html" target="_top" xlink:title="DGtal/base/Common.h">
<polygon fill="#ffffff" stroke="#000000" points="1460.1455,-230.5 1460.1455,-248.5 1577.8545,-248.5 1577.8545,-230.5 1460.1455,-230.5"/>
<text text-anchor="middle" x="1519" y="-236.5" font-family="FreeSans" font-size="10.00" fill="#000000">DGtal/base/Common.h</text>
</a>
</g>
</g>
<!-- Node0&#45;&gt;Node2 -->
<g id="edge2" class="edge">
<title>Node0&#45;&gt;Node2</title>
<path fill="none" stroke="#191970" d="M2147.5684,-683.1842C2004.3305,-666.1191 1633,-616.8329 1633,-564.5 1633,-564.5 1633,-564.5 1633,-374.5 1633,-329.571 1615.9248,-318.5131 1586,-285 1574.6625,-272.303 1559.0645,-261.4394 1545.771,-253.5148"/>
<polygon fill="#191970" stroke="#191970" points="1547.4355,-250.4348 1537.0167,-248.5115 1543.9621,-256.5123 1547.4355,-250.4348"/>
</g>
<!-- Node39 -->
<g id="node25" class="node">
<title>Node39</title>
<g id="a_node25"><a xlink:href="StdDefs_8h_source.html" target="_top" xlink:title="DGtal/helpers/StdDefs.h">
<polygon fill="#ffffff" stroke="#000000" points="971.0864,-555.5 971.0864,-573.5 1094.9136,-573.5 1094.9136,-555.5 971.0864,-555.5"/>
<text text-anchor="middle" x="1033" y="-561.5" font-family="FreeSans" font-size="10.00" fill="#000000">DGtal/helpers/StdDefs.h</text>
</a>
</g>
</g>
<!-- Node0&#45;&gt;Node39 -->
<g id="edge41" class="edge">
<title>Node0&#45;&gt;Node39</title>
<path fill="none" stroke="#191970" d="M2147.6755,-687.909C1978.449,-682.8019 1469.38,-665.588 1306,-639 1219.1707,-624.8696 1120.2444,-594.0576 1068.6249,-576.8136"/>
<polygon fill="#191970" stroke="#191970" points="1069.5435,-573.4298 1058.9494,-573.5546 1067.309,-580.0636 1069.5435,-573.4298"/>
</g>
<!-- Node116 -->
<g id="node33" class="node">
<title>Node116</title>
<g id="a_node33"><a xlink:href="KhalimskySpaceND_8h_source.html" target="_top" xlink:title="DGtal/topology/Khalimsky\lSpaceND.h">
<polygon fill="#ffffff" stroke="#ff0000" points="1322.7539,-425.5 1322.7539,-453.5 1453.2461,-453.5 1453.2461,-425.5 1322.7539,-425.5"/>
<text text-anchor="start" x="1330.7539" y="-441.5" font-family="FreeSans" font-size="10.00" fill="#000000">DGtal/topology/Khalimsky</text>
<text text-anchor="middle" x="1388" y="-431.5" font-family="FreeSans" font-size="10.00" fill="#000000">SpaceND.h</text>
</a>
</g>
</g>
<!-- Node0&#45;&gt;Node116 -->
<g id="edge89" class="edge">
<title>Node0&#45;&gt;Node116</title>
<path fill="none" stroke="#191970" d="M2147.7448,-687.0101C2004.7012,-680.2858 1629.8026,-660.791 1578,-639 1492.3604,-602.9753 1427.2924,-506.7593 1400.8838,-462.4365"/>
<polygon fill="#191970" stroke="#191970" points="1403.7671,-460.4332 1395.7022,-453.5624 1397.7222,-463.9629 1403.7671,-460.4332"/>
</g>
<!-- Node120 -->
<g id="node35" class="node">
<title>Node120</title>
<g id="a_node35"><a xlink:href="GridCurve_8h_source.html" target="_top" xlink:title="Header file for module GridCurve.cpp. ">
<polygon fill="#ffffff" stroke="#ff0000" points="1448.8721,-490.5 1448.8721,-518.5 1567.1279,-518.5 1567.1279,-490.5 1448.8721,-490.5"/>
<text text-anchor="start" x="1456.8721" y="-506.5" font-family="FreeSans" font-size="10.00" fill="#000000">DGtal/geometry/curves</text>
<text text-anchor="middle" x="1508" y="-496.5" font-family="FreeSans" font-size="10.00" fill="#000000">/GridCurve.h</text>
</a>
</g>
</g>
<!-- Node0&#45;&gt;Node120 -->
<g id="edge138" class="edge">
<title>Node0&#45;&gt;Node120</title>
<path fill="none" stroke="#191970" d="M2147.6997,-687.1504C2011.0435,-681.0011 1665.1199,-663.2187 1619,-639 1571.3881,-613.9979 1536.4089,-558.9395 1519.4536,-527.5704"/>
<polygon fill="#191970" stroke="#191970" points="1522.5215,-525.8844 1514.7762,-518.6552 1516.3228,-529.1365 1522.5215,-525.8844"/>
</g>
<!-- Node158 -->
<g id="node38" class="node">
<title>Node158</title>
<g id="a_node38"><a xlink:href="SurfelAdjacency_8h_source.html" target="_top" xlink:title="DGtal/topology/SurfelAdjacency.h">
<polygon fill="#ffffff" stroke="#ff0000" points="2262.6055,-295.5 2262.6055,-313.5 2427.3945,-313.5 2427.3945,-295.5 2262.6055,-295.5"/>
<text text-anchor="middle" x="2345" y="-301.5" font-family="FreeSans" font-size="10.00" fill="#000000">DGtal/topology/SurfelAdjacency.h</text>
</a>
</g>
</g>
<!-- Node0&#45;&gt;Node158 -->
<g id="edge90" class="edge">
<title>Node0&#45;&gt;Node158</title>
<path fill="none" stroke="#191970" d="M2210.5196,-675.3249C2221.8525,-652.604 2242,-606.3289 2242,-564.5 2242,-564.5 2242,-564.5 2242,-439.5 2242,-403.1716 2240.166,-389.7607 2261,-360 2274.0602,-341.3439 2295.5845,-327.3018 2313.5745,-318.0096"/>
<polygon fill="#191970" stroke="#191970" points="2315.1598,-321.1304 2322.5964,-313.584 2312.0769,-314.8458 2315.1598,-321.1304"/>
</g>
<!-- Node161 -->
<g id="node39" class="node">
<title>Node161</title>
<g id="a_node39"><a xlink:href="DigitalSurface_8h_source.html" target="_top" xlink:title="DGtal/topology/DigitalSurface.h">
<polygon fill="#ffffff" stroke="#ff0000" points="1699.2417,-365.5 1699.2417,-383.5 1854.7583,-383.5 1854.7583,-365.5 1699.2417,-365.5"/>
<text text-anchor="middle" x="1777" y="-371.5" font-family="FreeSans" font-size="10.00" fill="#000000">DGtal/topology/DigitalSurface.h</text>
</a>
</g>
</g>
<!-- Node0&#45;&gt;Node161 -->
<g id="edge93" class="edge">
<title>Node0&#45;&gt;Node161</title>
<path fill="none" stroke="#191970" d="M2173.4672,-675.4819C2137.361,-656.0491 2081,-617.2644 2081,-564.5 2081,-564.5 2081,-564.5 2081,-504.5 2081,-450.5965 1917.3755,-405.8143 1830.2119,-385.7827"/>
<polygon fill="#191970" stroke="#191970" points="1830.7593,-382.3181 1820.2329,-383.5207 1829.2118,-389.1449 1830.7593,-382.3181"/>
</g>
<!-- Node170 -->
<g id="node40" class="node">
<title>Node170</title>
<g id="a_node40"><a xlink:href="SetOfSurfels_8h_source.html" target="_top" xlink:title="DGtal/topology/SetOfSurfels.h">
<polygon fill="#ffffff" stroke="#ff0000" points="2270.0225,-365.5 2270.0225,-383.5 2419.9775,-383.5 2419.9775,-365.5 2270.0225,-365.5"/>
<text text-anchor="middle" x="2345" y="-371.5" font-family="FreeSans" font-size="10.00" fill="#000000">DGtal/topology/SetOfSurfels.h</text>
</a>
</g>
</g>
<!-- Node0&#45;&gt;Node170 -->
<g id="edge97" class="edge">
<title>Node0&#45;&gt;Node170</title>
<path fill="none" stroke="#191970" d="M2228.5127,-675.4138C2261.0078,-655.3805 2313,-615.3775 2313,-564.5 2313,-564.5 2313,-564.5 2313,-504.5 2313,-463.8245 2327.9536,-418.011 2337.4164,-393.0918"/>
<polygon fill="#191970" stroke="#191970" points="2340.6806,-394.3547 2341.0762,-383.7672 2334.1645,-391.7972 2340.6806,-394.3547"/>
</g>
<!-- Node176 -->
<g id="node41" class="node">
<title>Node176</title>
<g id="a_node41"><a xlink:href="DigitalSurface2DSlice_8h_source.html" target="_top" xlink:title="DGtal/topology/DigitalSurface2\lDSlice.h">
<polygon fill="#ffffff" stroke="#ff0000" points="2550.6309,-290.5 2550.6309,-318.5 2703.3691,-318.5 2703.3691,-290.5 2550.6309,-290.5"/>
<text text-anchor="start" x="2558.6309" y="-306.5" font-family="FreeSans" font-size="10.00" fill="#000000">DGtal/topology/DigitalSurface2</text>
<text text-anchor="middle" x="2627" y="-296.5" font-family="FreeSans" font-size="10.00" fill="#000000">DSlice.h</text>
</a>
</g>
</g>
<!-- Node0&#45;&gt;Node176 -->
<g id="edge101" class="edge">
<title>Node0&#45;&gt;Node176</title>
<path fill="none" stroke="#191970" d="M2258.334,-682.136C2317.2089,-673.4823 2405.6987,-657.8808 2434,-639 2467.5902,-616.5909 2486,-604.8791 2486,-564.5 2486,-564.5 2486,-564.5 2486,-439.5 2486,-402.5917 2485.9271,-387.9771 2510,-360 2524.6209,-343.0079 2545.6014,-330.8328 2565.7697,-322.3001"/>
<polygon fill="#191970" stroke="#191970" points="2567.2695,-325.4702 2575.2622,-318.5156 2564.6771,-318.9679 2567.2695,-325.4702"/>
</g>
<!-- Node179 -->
<g id="node42" class="node">
<title>Node179</title>
<g id="a_node42"><a xlink:href="Surfaces_8h_source.html" target="_top" xlink:title="DGtal/topology/helpers\l/Surfaces.h">
<polygon fill="#ffffff" stroke="#ff0000" points="2590.1382,-360.5 2590.1382,-388.5 2707.8618,-388.5 2707.8618,-360.5 2590.1382,-360.5"/>
<text text-anchor="start" x="2598.1382" y="-376.5" font-family="FreeSans" font-size="10.00" fill="#000000">DGtal/topology/helpers</text>
<text text-anchor="middle" x="2649" y="-366.5" font-family="FreeSans" font-size="10.00" fill="#000000">/Surfaces.h</text>
</a>
</g>
</g>
<!-- Node0&#45;&gt;Node179 -->
<g id="edge104" class="edge">
<title>Node0&#45;&gt;Node179</title>
<path fill="none" stroke="#191970" d="M2258.4154,-687.5652C2349.0985,-683.4916 2524.2908,-671.5483 2576,-639 2609.5398,-617.8884 2625,-604.131 2625,-564.5 2625,-564.5 2625,-564.5 2625,-504.5 2625,-466.9808 2634.7868,-424.3676 2641.8611,-398.466"/>
<polygon fill="#191970" stroke="#191970" points="2645.2502,-399.3435 2644.598,-388.7688 2638.5133,-397.4421 2645.2502,-399.3435"/>
</g>
<!-- Node181 -->
<g id="node43" class="node">
<title>Node181</title>
<g id="a_node43"><a xlink:href="Viewer3D_8h_source.html" target="_top" xlink:title="DGtal/io/viewers/Viewer3D.h">
<polygon fill="#ffffff" stroke="#ff0000" points="1793.4551,-495.5 1793.4551,-513.5 1936.5449,-513.5 1936.5449,-495.5 1793.4551,-495.5"/>
<text text-anchor="middle" x="1865" y="-501.5" font-family="FreeSans" font-size="10.00" fill="#000000">DGtal/io/viewers/Viewer3D.h</text>
</a>
</g>
</g>
<!-- Node0&#45;&gt;Node181 -->
<g id="edge109" class="edge">
<title>Node0&#45;&gt;Node181</title>
<path fill="none" stroke="#191970" d="M2157.1681,-675.4418C2130.2526,-666.4653 2095.9455,-653.7575 2067,-639 1996.0642,-602.8342 1919.7771,-546.7667 1884.6974,-519.8904"/>
<polygon fill="#191970" stroke="#191970" points="1886.7505,-517.0538 1876.695,-513.7163 1882.4745,-522.596 1886.7505,-517.0538"/>
</g>
<!-- Node210 -->
<g id="node44" class="node">
<title>Node210</title>
<g id="a_node44"><a xlink:href="VolReader_8h_source.html" target="_top" xlink:title="DGtal/io/readers/VolReader.h">
<polygon fill="#ffffff" stroke="#ff0000" points="2720.9585,-295.5 2720.9585,-313.5 2867.0415,-313.5 2867.0415,-295.5 2720.9585,-295.5"/>
<text text-anchor="middle" x="2794" y="-301.5" font-family="FreeSans" font-size="10.00" fill="#000000">DGtal/io/readers/VolReader.h</text>
</a>
</g>
</g>
<!-- Node0&#45;&gt;Node210 -->
<g id="edge115" class="edge">
<title>Node0&#45;&gt;Node210</title>
<path fill="none" stroke="#191970" d="M2258.2993,-683.6035C2325.1077,-675.6825 2432.8079,-660.1214 2467,-639 2502.4692,-617.0897 2524,-606.1908 2524,-564.5 2524,-564.5 2524,-564.5 2524,-439.5 2524,-402.5917 2520.9154,-385.0729 2548,-360 2602.7619,-309.3056 2639.2529,-340.6329 2712,-324 2723.2537,-321.4269 2735.3587,-318.5879 2746.7215,-315.8912"/>
<polygon fill="#191970" stroke="#191970" points="2747.5588,-319.2897 2756.4759,-313.5682 2745.9371,-312.4801 2747.5588,-319.2897"/>
</g>
<!-- Node206 -->
<g id="node45" class="node">
<title>Node206</title>
<g id="a_node45"><a xlink:href="DrawWithDisplay3DModifier_8h_source.html" target="_top" xlink:title="DGtal/io/DrawWithDisplay3\lDModifier.h">
<polygon fill="#ffffff" stroke="#ff0000" points="1314.707,-610.5 1314.707,-638.5 1451.293,-638.5 1451.293,-610.5 1314.707,-610.5"/>
<text text-anchor="start" x="1322.707" y="-626.5" font-family="FreeSans" font-size="10.00" fill="#000000">DGtal/io/DrawWithDisplay3</text>
<text text-anchor="middle" x="1383" y="-616.5" font-family="FreeSans" font-size="10.00" fill="#000000">DModifier.h</text>
</a>
</g>
</g>
<!-- Node0&#45;&gt;Node206 -->
<g id="edge118" class="edge">
<title>Node0&#45;&gt;Node206</title>
<path fill="none" stroke="#191970" d="M2147.3997,-686.9702C2026.49,-681.1672 1730.6762,-665.3348 1484,-639 1476.6515,-638.2155 1469.0158,-637.3016 1461.3816,-636.3213"/>
<polygon fill="#191970" stroke="#191970" points="1461.7431,-632.8387 1451.3709,-634.9997 1460.8268,-639.7785 1461.7431,-632.8387"/>
</g>
<!-- Node213 -->
<g id="node46" class="node">
<title>Node213</title>
<g id="a_node46"><a xlink:href="ImageSelector_8h_source.html" target="_top" xlink:title="DGtal/images/ImageSelector.h">
<polygon fill="#ffffff" stroke="#ff0000" points="2885.1875,-295.5 2885.1875,-313.5 3036.8125,-313.5 3036.8125,-295.5 2885.1875,-295.5"/>
<text text-anchor="middle" x="2961" y="-301.5" font-family="FreeSans" font-size="10.00" fill="#000000">DGtal/images/ImageSelector.h</text>
</a>
</g>
</g>
<!-- Node0&#45;&gt;Node213 -->
<g id="edge123" class="edge">
<title>Node0&#45;&gt;Node213</title>
<path fill="none" stroke="#191970" d="M2258.4145,-684.86C2333.1734,-677.8072 2461.6321,-662.6551 2502,-639 2538.6804,-617.5057 2562,-607.0142 2562,-564.5 2562,-564.5 2562,-564.5 2562,-439.5 2562,-403.1716 2553.9004,-384.1943 2581,-360 2630.2647,-316.0169 2810.9493,-335.399 2876,-324 2888.8264,-321.7524 2902.6286,-318.814 2915.3032,-315.9026"/>
<polygon fill="#191970" stroke="#191970" points="2916.248,-319.2761 2925.186,-313.5873 2914.6512,-312.4607 2916.248,-319.2761"/>
</g>
<!-- Node231 -->
<g id="node47" class="node">
<title>Node231</title>
<g id="a_node47"><a xlink:href="ImageHelper_8h_source.html" target="_top" xlink:title="DGtal/images/ImageHelper.h">
<polygon fill="#ffffff" stroke="#ff0000" points="2062.8008,-295.5 2062.8008,-313.5 2207.1992,-313.5 2207.1992,-295.5 2062.8008,-295.5"/>
<text text-anchor="middle" x="2135" y="-301.5" font-family="FreeSans" font-size="10.00" fill="#000000">DGtal/images/ImageHelper.h</text>
</a>
</g>
</g>
<!-- Node0&#45;&gt;Node231 -->
<g id="edge126" class="edge">
<title>Node0&#45;&gt;Node231</title>
<path fill="none" stroke="#191970" d="M2192.5289,-675.3267C2177.0831,-652.9761 2150,-607.6359 2150,-564.5 2150,-564.5 2150,-564.5 2150,-439.5 2150,-398.0054 2142.9133,-349.7729 2138.482,-323.6691"/>
<polygon fill="#191970" stroke="#191970" points="2141.8958,-322.8726 2136.7207,-313.6277 2135.001,-324.082 2141.8958,-322.8726"/>
</g>
<!-- Node237 -->
<g id="node48" class="node">
<title>Node237</title>
<g id="a_node48"><a xlink:href="DigitalSetInserter_8h_source.html" target="_top" xlink:title="DGtal/kernel/sets/Digital\lSetInserter.h">
<polygon fill="#ffffff" stroke="#ff0000" points="3169.3696,-290.5 3169.3696,-318.5 3292.6304,-318.5 3292.6304,-290.5 3169.3696,-290.5"/>
<text text-anchor="start" x="3177.3696" y="-306.5" font-family="FreeSans" font-size="10.00" fill="#000000">DGtal/kernel/sets/Digital</text>
<text text-anchor="middle" x="3231" y="-296.5" font-family="FreeSans" font-size="10.00" fill="#000000">SetInserter.h</text>
</a>
</g>
</g>
<!-- Node0&#45;&gt;Node237 -->
<g id="edge131" class="edge">
<title>Node0&#45;&gt;Node237</title>
<path fill="none" stroke="#191970" d="M2258.2822,-688.1844C2394.6301,-683.4464 2736,-661.8621 2736,-564.5 2736,-564.5 2736,-564.5 2736,-439.5 2736,-433.9804 3032.9733,-356.0186 3166.8715,-321.148"/>
<polygon fill="#191970" stroke="#191970" points="3167.8146,-324.5193 3176.6104,-318.6129 3166.0511,-317.745 3167.8146,-324.5193"/>
</g>
<!-- Node189 -->
<g id="node49" class="node">
<title>Node189</title>
<g id="a_node49"><a xlink:href="Color_8h_source.html" target="_top" xlink:title="DGtal/io/Color.h">
<polygon fill="#ffffff" stroke="#ff0000" points="2445.7046,-295.5 2445.7046,-313.5 2532.2954,-313.5 2532.2954,-295.5 2445.7046,-295.5"/>
<text text-anchor="middle" x="2489" y="-301.5" font-family="FreeSans" font-size="10.00" fill="#000000">DGtal/io/Color.h</text>
</a>
</g>
</g>
<!-- Node0&#45;&gt;Node189 -->
<g id="edge134" class="edge">
<title>Node0&#45;&gt;Node189</title>
<path fill="none" stroke="#191970" d="M2258.2883,-685.3193C2330.5485,-676.4968 2448,-649.1386 2448,-564.5 2448,-564.5 2448,-564.5 2448,-439.5 2448,-396.2279 2467.5246,-348.3899 2479.6267,-322.8943"/>
<polygon fill="#191970" stroke="#191970" points="2482.8755,-324.2184 2484.1358,-313.6988 2476.5904,-321.1365 2482.8755,-324.2184"/>
</g>
<!-- Node238 -->
<g id="node50" class="node">
<title>Node238</title>
<polygon fill="#ffffff" stroke="#bfbfbf" points="2764.4238,-615.5 2764.4238,-633.5 2861.5762,-633.5 2861.5762,-615.5 2764.4238,-615.5"/>
<text text-anchor="middle" x="2813" y="-621.5" font-family="FreeSans" font-size="10.00" fill="#000000">ConfigExamples.h</text>
</g>
<!-- Node0&#45;&gt;Node238 -->
<g id="edge139" class="edge">
<title>Node0&#45;&gt;Node238</title>
<path fill="none" stroke="#191970" d="M2258.4329,-686.845C2357.5674,-681.5503 2571.5591,-667.6392 2750,-639 2755.7503,-638.0771 2761.7579,-636.9326 2767.6823,-635.6942"/>
<polygon fill="#191970" stroke="#191970" points="2768.4925,-639.0998 2777.5138,-633.5441 2766.9969,-632.2614 2768.4925,-639.0998"/>
</g>
<!-- Node2&#45;&gt;Node1 -->
<g id="edge3" class="edge">
<title>Node2&#45;&gt;Node1</title>
<path fill="none" stroke="#191970" d="M1459.8111,-238.4653C1253.9794,-234.6445 579.8321,-220.1774 542,-194 509.6388,-171.6081 490.5409,-141.5961 514,-110 564.2284,-42.3492 833.128,-18.3459 933.3317,-11.6739"/>
<polygon fill="#191970" stroke="#191970" points="933.8404,-15.1485 943.5945,-11.0124 933.39,-8.163 933.8404,-15.1485"/>
</g>
<!-- Node3 -->
<g id="node4" class="node">
<title>Node3</title>
<polygon fill="#ffffff" stroke="#bfbfbf" points="832.5962,-170.5 832.5962,-188.5 891.4038,-188.5 891.4038,-170.5 832.5962,-170.5"/>
<text text-anchor="middle" x="862" y="-176.5" font-family="FreeSans" font-size="10.00" fill="#000000">exception</text>
</g>
<!-- Node2&#45;&gt;Node3 -->
<g id="edge4" class="edge">
<title>Node2&#45;&gt;Node3</title>
<path fill="none" stroke="#191970" d="M1459.8115,-237.2721C1326.5721,-231.9115 1006.5056,-217.0094 901,-194 898.3136,-193.4141 895.564,-192.682 892.8292,-191.8599"/>
<polygon fill="#191970" stroke="#191970" points="893.7241,-188.4681 883.13,-188.5901 891.4878,-195.1013 893.7241,-188.4681"/>
</g>
<!-- Node4 -->
<g id="node5" class="node">
<title>Node4</title>
<polygon fill="#ffffff" stroke="#bfbfbf" points="2461.436,-110.5 2461.436,-128.5 2518.564,-128.5 2518.564,-110.5 2461.436,-110.5"/>
<text text-anchor="middle" x="2490" y="-116.5" font-family="FreeSans" font-size="10.00" fill="#000000">algorithm</text>
</g>
<!-- Node2&#45;&gt;Node4 -->
<g id="edge5" class="edge">
<title>Node2&#45;&gt;Node4</title>
<path fill="none" stroke="#191970" d="M1578.2417,-238.64C1689.444,-236.2602 1936.7408,-227.336 2142,-194 2193.6042,-185.619 2204.9863,-176.4385 2256,-165 2324.5173,-149.6368 2404.9992,-134.6518 2451.4895,-126.292"/>
<polygon fill="#191970" stroke="#191970" points="2452.2078,-129.7192 2461.4345,-124.5117 2450.9742,-122.8287 2452.2078,-129.7192"/>
</g>
<!-- Node5 -->
<g id="node6" class="node">
<title>Node5</title>
<polygon fill="#ffffff" stroke="#bfbfbf" points="909.5298,-170.5 909.5298,-188.5 1004.4702,-188.5 1004.4702,-170.5 909.5298,-170.5"/>
<text text-anchor="middle" x="957" y="-176.5" font-family="FreeSans" font-size="10.00" fill="#000000">boost/version.hpp</text>
</g>
<!-- Node2&#45;&gt;Node5 -->
<g id="edge6" class="edge">
<title>Node2&#45;&gt;Node5</title>
<path fill="none" stroke="#191970" d="M1459.7723,-237.3177C1364.8698,-233.1176 1173.1269,-221.7378 1013,-194 1008.1821,-193.1654 1003.1713,-192.1238 998.2152,-190.9841"/>
<polygon fill="#191970" stroke="#191970" points="998.7426,-187.5103 988.1982,-188.5419 997.0845,-194.3111 998.7426,-187.5103"/>
</g>
<!-- Node6 -->
<g id="node7" class="node">
<title>Node6</title>
<polygon fill="#ffffff" stroke="#bfbfbf" points="1022.2935,-170.5 1022.2935,-188.5 1151.7065,-188.5 1151.7065,-170.5 1022.2935,-170.5"/>
<text text-anchor="middle" x="1087" y="-176.5" font-family="FreeSans" font-size="10.00" fill="#000000">boost/concept_check.hpp</text>
</g>
<!-- Node2&#45;&gt;Node6 -->
<g id="edge7" class="edge">
<title>Node2&#45;&gt;Node6</title>
<path fill="none" stroke="#191970" d="M1459.9115,-233.2196C1388.7926,-225.3771 1265.8407,-210.9144 1161,-194 1154.4005,-192.9353 1147.4895,-191.7184 1140.654,-190.4524"/>
<polygon fill="#191970" stroke="#191970" points="1141.2148,-186.9965 1130.7381,-188.5745 1139.9122,-193.8743 1141.2148,-186.9965"/>
</g>
<!-- Node7 -->
<g id="node8" class="node">
<title>Node7</title>
<polygon fill="#ffffff" stroke="#bfbfbf" points="1169.5815,-170.5 1169.5815,-188.5 1288.4185,-188.5 1288.4185,-170.5 1169.5815,-170.5"/>
<text text-anchor="middle" x="1229" y="-176.5" font-family="FreeSans" font-size="10.00" fill="#000000">boost/static_assert.hpp</text>
</g>
<!-- Node2&#45;&gt;Node7 -->
<g id="edge8" class="edge">
<title>Node2&#45;&gt;Node7</title>
<path fill="none" stroke="#191970" d="M1474.3311,-230.4532C1429.4852,-221.3451 1358.4235,-206.8431 1297,-194 1291.888,-192.9311 1286.5616,-191.8094 1281.2393,-190.6831"/>
<polygon fill="#191970" stroke="#191970" points="1281.5755,-187.1766 1271.0668,-188.5246 1280.1224,-194.0242 1281.5755,-187.1766"/>
</g>
<!-- Node8 -->
<g id="node9" class="node">
<title>Node8</title>
<polygon fill="#ffffff" stroke="#bfbfbf" points="1306.1309,-170.5 1306.1309,-188.5 1433.8691,-188.5 1433.8691,-170.5 1306.1309,-170.5"/>
<text text-anchor="middle" x="1370" y="-176.5" font-family="FreeSans" font-size="10.00" fill="#000000">boost/concept/assert.hpp</text>
</g>
<!-- Node2&#45;&gt;Node8 -->
<g id="edge9" class="edge">
<title>Node2&#45;&gt;Node8</title>
<path fill="none" stroke="#191970" d="M1496.3701,-230.3873C1471.1729,-220.2407 1430.2601,-203.7658 1401.84,-192.3215"/>
<polygon fill="#191970" stroke="#191970" points="1402.9382,-188.9906 1392.3547,-188.5019 1400.3234,-195.484 1402.9382,-188.9906"/>
</g>
<!-- Node9 -->
<g id="node10" class="node">
<title>Node9</title>
<polygon fill="#ffffff" stroke="#bfbfbf" points="1641.6826,-170.5 1641.6826,-188.5 1778.3174,-188.5 1778.3174,-170.5 1641.6826,-170.5"/>
<text text-anchor="middle" x="1710" y="-176.5" font-family="FreeSans" font-size="10.00" fill="#000000">boost/concept/requires.hpp</text>
</g>
<!-- Node2&#45;&gt;Node9 -->
<g id="edge10" class="edge">
<title>Node2&#45;&gt;Node9</title>
<path fill="none" stroke="#191970" d="M1548.0088,-230.3873C1581.0139,-220.0192 1635.0536,-203.0434 1671.548,-191.5791"/>
<polygon fill="#191970" stroke="#191970" points="1672.8526,-194.838 1681.344,-188.5019 1670.7547,-188.1598 1672.8526,-194.838"/>
</g>
<!-- Node10 -->
<g id="node11" class="node">
<title>Node10</title>
<polygon fill="#ffffff" stroke="#bfbfbf" points="1795.8672,-165.5 1795.8672,-193.5 1904.1328,-193.5 1904.1328,-165.5 1795.8672,-165.5"/>
<text text-anchor="start" x="1803.8672" y="-181.5" font-family="FreeSans" font-size="10.00" fill="#000000">boost/iterator/iterator</text>
<text text-anchor="middle" x="1850" y="-171.5" font-family="FreeSans" font-size="10.00" fill="#000000">_concepts.hpp</text>
</g>
<!-- Node2&#45;&gt;Node10 -->
<g id="edge11" class="edge">
<title>Node2&#45;&gt;Node10</title>
<path fill="none" stroke="#191970" d="M1577.9974,-230.4924C1630.1878,-222.295 1708.6258,-209.4185 1785.8475,-194.167"/>
<polygon fill="#191970" stroke="#191970" points="1786.6223,-197.5815 1795.747,-192.1972 1785.2562,-190.7161 1786.6223,-197.5815"/>
</g>
<!-- Node11 -->
<g id="node12" class="node">
<title>Node11</title>
<polygon fill="#ffffff" stroke="#bfbfbf" points="1922.397,-170.5 1922.397,-188.5 2069.603,-188.5 2069.603,-170.5 1922.397,-170.5"/>
<text text-anchor="middle" x="1996" y="-176.5" font-family="FreeSans" font-size="10.00" fill="#000000">boost/concept_archetype.hpp</text>
</g>
<!-- Node2&#45;&gt;Node11 -->
<g id="edge12" class="edge">
<title>Node2&#45;&gt;Node11</title>
<path fill="none" stroke="#191970" d="M1577.8798,-233.7765C1655.0214,-226.0316 1794.4276,-211.189 1913,-194 1920.736,-192.8785 1928.8588,-191.5935 1936.87,-190.262"/>
<polygon fill="#191970" stroke="#191970" points="1937.6453,-193.6806 1946.9202,-188.5594 1936.476,-186.7789 1937.6453,-193.6806"/>
</g>
<!-- Node12 -->
<g id="node13" class="node">
<title>Node12</title>
<polygon fill="#ffffff" stroke="#bfbfbf" points="1179.3843,-110.5 1179.3843,-128.5 1222.6157,-128.5 1222.6157,-110.5 1179.3843,-110.5"/>
<text text-anchor="middle" x="1201" y="-116.5" font-family="FreeSans" font-size="10.00" fill="#000000">cmath</text>
</g>
<!-- Node2&#45;&gt;Node12 -->
<g id="edge13" class="edge">
<title>Node2&#45;&gt;Node12</title>
<path fill="none" stroke="#191970" d="M1512.6571,-230.4343C1500.9144,-214.4068 1474.128,-181.2309 1443,-165 1406.8545,-146.1529 1290.2622,-130.1356 1233.1412,-123.1914"/>
<polygon fill="#191970" stroke="#191970" points="1233.2205,-119.676 1222.8755,-121.9635 1232.389,-126.6265 1233.2205,-119.676"/>
</g>
<!-- Node13 -->
<g id="node14" class="node">
<title>Node13</title>
<polygon fill="#ffffff" stroke="#bfbfbf" points="2087.2686,-170.5 2087.2686,-188.5 2132.7314,-188.5 2132.7314,-170.5 2087.2686,-170.5"/>
<text text-anchor="middle" x="2110" y="-176.5" font-family="FreeSans" font-size="10.00" fill="#000000">stdio.h</text>
</g>
<!-- Node2&#45;&gt;Node13 -->
<g id="edge14" class="edge">
<title>Node2&#45;&gt;Node13</title>
<path fill="none" stroke="#191970" d="M1578.3068,-237.3457C1702.4273,-232.4029 1985.7787,-218.7281 2079,-194 2080.6583,-193.5601 2082.3369,-193.035 2084.0101,-192.4495"/>
<polygon fill="#191970" stroke="#191970" points="2085.4371,-195.6471 2093.3556,-188.6081 2082.7758,-189.1727 2085.4371,-195.6471"/>
</g>
<!-- Node14 -->
<g id="node15" class="node">
<title>Node14</title>
<g id="a_node15"><a xlink:href="Config_8h_source.html" target="_top" xlink:title="DGtal/base/Config.h">
<polygon fill="#ffffff" stroke="#ff0000" points="735.9756,-55.5 735.9756,-73.5 842.0244,-73.5 842.0244,-55.5 735.9756,-55.5"/>
<text text-anchor="middle" x="789" y="-61.5" font-family="FreeSans" font-size="10.00" fill="#000000">DGtal/base/Config.h</text>
</a>
</g>
</g>
<!-- Node2&#45;&gt;Node14 -->
<g id="edge15" class="edge">
<title>Node2&#45;&gt;Node14</title>
<path fill="none" stroke="#191970" d="M1459.939,-238.1747C1300.7321,-234.2548 870.7647,-221.2471 813,-194 777.1682,-177.0984 766.5784,-165.8381 752,-129 745.155,-111.7034 757.7379,-93.4433 770.0467,-80.7843"/>
<polygon fill="#191970" stroke="#191970" points="772.6729,-83.1165 777.4991,-73.6848 767.8445,-78.0482 772.6729,-83.1165"/>
</g>
<!-- Node16 -->
<g id="node16" class="node">
<title>Node16</title>
<g id="a_node16"><a xlink:href="Trace_8h_source.html" target="_top" xlink:title="DGtal/base/Trace.h">
<polygon fill="#ffffff" stroke="#ff0000" points="560.8311,-170.5 560.8311,-188.5 663.1689,-188.5 663.1689,-170.5 560.8311,-170.5"/>
<text text-anchor="middle" x="612" y="-176.5" font-family="FreeSans" font-size="10.00" fill="#000000">DGtal/base/Trace.h</text>
</a>
</g>
</g>
<!-- Node2&#45;&gt;Node16 -->
<g id="edge17" class="edge">
<title>Node2&#45;&gt;Node16</title>
<path fill="none" stroke="#191970" d="M1459.9003,-237.5808C1294.4145,-232.004 828.6443,-214.8652 677,-194 670.6859,-193.1312 664.0771,-191.9643 657.5934,-190.6678"/>
<polygon fill="#191970" stroke="#191970" points="658.0756,-187.1925 647.5678,-188.5482 656.6276,-194.0411 658.0756,-187.1925"/>
</g>
<!-- Node23 -->
<g id="node17" class="node">
<title>Node23</title>
<g id="a_node17"><a xlink:href="TraceWriterTerm_8h_source.html" target="_top" xlink:title="DGtal/base/TraceWriterTerm.h">
<polygon fill="#ffffff" stroke="#ff0000" points="761.478,-110.5 761.478,-128.5 912.522,-128.5 912.522,-110.5 761.478,-110.5"/>
<text text-anchor="middle" x="837" y="-116.5" font-family="FreeSans" font-size="10.00" fill="#000000">DGtal/base/TraceWriterTerm.h</text>
</a>
</g>
</g>
<!-- Node2&#45;&gt;Node23 -->
<g id="edge25" class="edge">
<title>Node2&#45;&gt;Node23</title>
<path fill="none" stroke="#191970" d="M1460.0957,-237.8114C1296.2365,-232.8299 845.6213,-217.083 824,-194 809.8943,-178.9407 818.0066,-154.2947 826.3739,-137.5076"/>
<polygon fill="#191970" stroke="#191970" points="829.4789,-139.1237 831.1638,-128.6637 823.3237,-135.79 829.4789,-139.1237"/>
</g>
<!-- Node24 -->
<g id="node18" class="node">
<title>Node24</title>
<g id="a_node18"><a xlink:href="Assert_8h_source.html" target="_top" xlink:title="DGtal/base/Assert.h">
<polygon fill="#ffffff" stroke="#ff0000" points="523.2588,-110.5 523.2588,-128.5 628.7412,-128.5 628.7412,-110.5 523.2588,-110.5"/>
<text text-anchor="middle" x="576" y="-116.5" font-family="FreeSans" font-size="10.00" fill="#000000">DGtal/base/Assert.h</text>
</a>
</g>
</g>
<!-- Node2&#45;&gt;Node24 -->
<g id="edge28" class="edge">
<title>Node2&#45;&gt;Node24</title>
<path fill="none" stroke="#191970" d="M1459.9929,-238.9427C1254.8485,-236.7202 583.4329,-226.9467 552,-194 537.1209,-178.4043 549.8954,-153.5322 561.7662,-136.8673"/>
<polygon fill="#191970" stroke="#191970" points="564.8145,-138.6413 568.0868,-128.5644 559.2447,-134.4013 564.8145,-138.6413"/>
</g>
<!-- Node27 -->
<g id="node19" class="node">
<title>Node27</title>
<g id="a_node19"><a xlink:href="TraceWriterFile_8h_source.html" target="_top" xlink:title="DGtal/base/TraceWriterFile.h">
<polygon fill="#ffffff" stroke="#ff0000" points="927.5322,-55.5 927.5322,-73.5 1072.4678,-73.5 1072.4678,-55.5 927.5322,-55.5"/>
<text text-anchor="middle" x="1000" y="-61.5" font-family="FreeSans" font-size="10.00" fill="#000000">DGtal/base/TraceWriterFile.h</text>
</a>
</g>
</g>
<!-- Node2&#45;&gt;Node27 -->
<g id="edge26" class="edge">
<title>Node2&#45;&gt;Node27</title>
<path fill="none" stroke="#191970" d="M1516.3767,-230.3002C1511.3359,-214.3647 1498.7312,-181.7314 1476,-165 1414.4491,-119.6954 1202.0389,-88.22 1082.8252,-73.6624"/>
<polygon fill="#191970" stroke="#191970" points="1082.9926,-70.1573 1072.6451,-72.4328 1082.1531,-77.1068 1082.9926,-70.1573"/>
</g>
<!-- Node28 -->
<g id="node20" class="node">
<title>Node28</title>
<g id="a_node20"><a xlink:href="ConceptUtils_8h_source.html" target="_top" xlink:title="DGtal/base/ConceptUtils.h">
<polygon fill="#ffffff" stroke="#000000" points="1256.084,-55.5 1256.084,-73.5 1389.916,-73.5 1389.916,-55.5 1256.084,-55.5"/>
<text text-anchor="middle" x="1323" y="-61.5" font-family="FreeSans" font-size="10.00" fill="#000000">DGtal/base/ConceptUtils.h</text>
</a>
</g>
</g>
<!-- Node2&#45;&gt;Node28 -->
<g id="edge29" class="edge">
<title>Node2&#45;&gt;Node28</title>
<path fill="none" stroke="#191970" d="M1521.9699,-230.3722C1528.8724,-207.2416 1543.2798,-145.6383 1514,-110 1499.3084,-92.118 1446.4659,-80.4047 1400.0776,-73.3472"/>
<polygon fill="#191970" stroke="#191970" points="1400.3901,-69.8557 1389.9882,-71.8683 1399.3748,-76.7817 1400.3901,-69.8557"/>
</g>
<!-- Node29 -->
<g id="node21" class="node">
<title>Node29</title>
<g id="a_node21"><a xlink:href="BasicTypes_8h_source.html" target="_top" xlink:title="DGtal/base/BasicTypes.h">
<polygon fill="#ffffff" stroke="#ff0000" points="1490.8599,-55.5 1490.8599,-73.5 1619.1401,-73.5 1619.1401,-55.5 1490.8599,-55.5"/>
<text text-anchor="middle" x="1555" y="-61.5" font-family="FreeSans" font-size="10.00" fill="#000000">DGtal/base/BasicTypes.h</text>
</a>
</g>
</g>
<!-- Node2&#45;&gt;Node29 -->
<g id="edge31" class="edge">
<title>Node2&#45;&gt;Node29</title>
<path fill="none" stroke="#191970" d="M1528.2543,-230.3679C1536.2306,-221.8124 1547.1969,-208.2394 1552,-194 1564.6476,-156.5044 1561.326,-109.372 1558.0126,-83.5651"/>
<polygon fill="#191970" stroke="#191970" points="1561.4698,-83.0158 1556.594,-73.6096 1554.5398,-84.0034 1561.4698,-83.0158"/>
</g>
<!-- Node32 -->
<g id="node22" class="node">
<title>Node32</title>
<g id="a_node22"><a xlink:href="BasicFunctors_8h_source.html" target="_top" xlink:title="DGtal/base/BasicFunctors.h">
<polygon fill="#ffffff" stroke="#ff0000" points="2264.7515,-170.5 2264.7515,-188.5 2405.2485,-188.5 2405.2485,-170.5 2264.7515,-170.5"/>
<text text-anchor="middle" x="2335" y="-176.5" font-family="FreeSans" font-size="10.00" fill="#000000">DGtal/base/BasicFunctors.h</text>
</a>
</g>
</g>
<!-- Node2&#45;&gt;Node32 -->
<g id="edge33" class="edge">
<title>Node2&#45;&gt;Node32</title>
<path fill="none" stroke="#191970" d="M1578.2756,-237.8536C1702.0318,-234.0673 1996.3409,-222.7511 2242,-194 2250.8514,-192.9641 2260.1865,-191.6132 2269.4052,-190.1528"/>
<polygon fill="#191970" stroke="#191970" points="2270.0274,-193.5977 2279.3343,-188.5349 2268.9015,-186.6888 2270.0274,-193.5977"/>
</g>
<!-- Node37 -->
<g id="node23" class="node">
<title>Node37</title>
<g id="a_node23"><a xlink:href="BasicArchetypes_8h_source.html" target="_top" xlink:title="DGtal/base/BasicArchetypes.h">
<polygon fill="#ffffff" stroke="#000000" points="1604.1899,-110.5 1604.1899,-128.5 1755.8101,-128.5 1755.8101,-110.5 1604.1899,-110.5"/>
<text text-anchor="middle" x="1680" y="-116.5" font-family="FreeSans" font-size="10.00" fill="#000000">DGtal/base/BasicArchetypes.h</text>
</a>
</g>
</g>
<!-- Node2&#45;&gt;Node37 -->
<g id="edge37" class="edge">
<title>Node2&#45;&gt;Node37</title>
<path fill="none" stroke="#191970" d="M1534.3134,-230.4304C1548.9382,-221.5966 1571.4365,-207.5543 1590,-194 1615.9035,-175.0863 1644.1442,-151.1142 1661.952,-135.5486"/>
<polygon fill="#191970" stroke="#191970" points="1664.6056,-137.8757 1669.8,-128.6416 1659.9808,-132.6209 1664.6056,-137.8757"/>
</g>
<!-- Node38 -->
<g id="node24" class="node">
<title>Node38</title>
<g id="a_node24"><a xlink:href="Exceptions_8h_source.html" target="_top" xlink:title="DGtal/base/Exceptions.h">
<polygon fill="#ffffff" stroke="#000000" points="2612.9707,-170.5 2612.9707,-188.5 2739.0293,-188.5 2739.0293,-170.5 2612.9707,-170.5"/>
<text text-anchor="middle" x="2676" y="-176.5" font-family="FreeSans" font-size="10.00" fill="#000000">DGtal/base/Exceptions.h</text>
</a>
</g>
</g>
<!-- Node2&#45;&gt;Node38 -->
<g id="edge39" class="edge">
<title>Node2&#45;&gt;Node38</title>
<path fill="none" stroke="#191970" d="M1577.9102,-236.5968C1721.0994,-229.5203 2098.8057,-210.7338 2414,-194 2477.6528,-190.6206 2549.9937,-186.6037 2602.5098,-183.6557"/>
<polygon fill="#191970" stroke="#191970" points="2602.9524,-187.1364 2612.7403,-183.0808 2602.5597,-180.1474 2602.9524,-187.1364"/>
</g>
<!-- Node14&#45;&gt;Node1 -->
<g id="edge16" class="edge">
<title>Node14&#45;&gt;Node1</title>
<path fill="none" stroke="#191970" d="M819.0536,-55.4179C850.4373,-45.9338 899.7199,-31.0407 933.6002,-20.8021"/>
<polygon fill="#191970" stroke="#191970" points="935.0235,-24.0284 943.5834,-17.7852 932.9985,-17.3277 935.0235,-24.0284"/>
</g>
<!-- Node16&#45;&gt;Node1 -->
<g id="edge18" class="edge">
<title>Node16&#45;&gt;Node1</title>
<path fill="none" stroke="#191970" d="M617.3752,-170.4615C631.8096,-147.0657 673.9429,-84.3099 727,-55 761.9596,-35.6876 874.2255,-20.4867 933.5123,-13.5691"/>
<polygon fill="#191970" stroke="#191970" points="934.054,-17.03 943.5902,-12.4135 933.2565,-10.0755 934.054,-17.03"/>
</g>
<!-- Node16&#45;&gt;Node14 -->
<g id="edge19" class="edge">
<title>Node16&#45;&gt;Node14</title>
<path fill="none" stroke="#191970" d="M625.8889,-170.4761C656.2412,-150.7557 728.7438,-103.6495 766.0145,-79.4341"/>
<polygon fill="#191970" stroke="#191970" points="768.2053,-82.1846 774.684,-73.8014 764.3915,-76.3147 768.2053,-82.1846"/>
</g>
<!-- Node16&#45;&gt;Node23 -->
<g id="edge20" class="edge">
<title>Node16&#45;&gt;Node23</title>
<path fill="none" stroke="#191970" d="M646.1727,-170.3873C685.5514,-159.8863 750.3487,-142.607 793.3464,-131.141"/>
<polygon fill="#191970" stroke="#191970" points="794.4825,-134.4604 803.243,-128.5019 792.6788,-127.6967 794.4825,-134.4604"/>
</g>
<!-- Node16&#45;&gt;Node24 -->
<g id="edge23" class="edge">
<title>Node16&#45;&gt;Node24</title>
<path fill="none" stroke="#191970" d="M601.523,-170.3873C594.641,-161.8412 586.3915,-148.8057 580.8467,-138.0679"/>
<polygon fill="#191970" stroke="#191970" points="583.8808,-136.2918 576.4922,-128.6985 577.5329,-139.2421 583.8808,-136.2918"/>
</g>
<!-- Node23&#45;&gt;Node1 -->
<g id="edge21" class="edge">
<title>Node23&#45;&gt;Node1</title>
<path fill="none" stroke="#191970" d="M847.9658,-110.4982C870.7375,-91.805 923.3952,-48.5786 951.8789,-25.1964"/>
<polygon fill="#191970" stroke="#191970" points="954.3741,-27.6764 959.8827,-18.6261 949.9327,-22.2659 954.3741,-27.6764"/>
</g>
<!-- Node23&#45;&gt;Node14 -->
<g id="edge22" class="edge">
<title>Node23&#45;&gt;Node14</title>
<path fill="none" stroke="#191970" d="M829.0738,-110.4179C822.2363,-102.5833 812.1775,-91.0575 803.8483,-81.5137"/>
<polygon fill="#191970" stroke="#191970" points="806.3108,-79.0123 797.0984,-73.7795 801.0368,-83.6151 806.3108,-79.0123"/>
</g>
<!-- Node24&#45;&gt;Node16 -->
<g id="edge24" class="edge">
<title>Node24&#45;&gt;Node16</title>
<path fill="none" stroke="#191970" d="M586.546,-128.6985C593.437,-137.2744 601.6821,-150.3172 607.2088,-161.0396"/>
<polygon fill="#191970" stroke="#191970" points="604.1607,-162.7865 611.5417,-170.3873 610.5116,-159.8426 604.1607,-162.7865"/>
</g>
<!-- Node27&#45;&gt;Node1 -->
<g id="edge27" class="edge">
<title>Node27&#45;&gt;Node1</title>
<path fill="none" stroke="#191970" d="M995.2112,-55.4179C991.2472,-47.8998 985.491,-36.9829 980.5857,-27.6799"/>
<polygon fill="#191970" stroke="#191970" points="983.6529,-25.9927 975.8928,-18.7795 977.461,-29.2576 983.6529,-25.9927"/>
</g>
<!-- Node28&#45;&gt;Node1 -->
<g id="edge30" class="edge">
<title>Node28&#45;&gt;Node1</title>
<path fill="none" stroke="#191970" d="M1265.2685,-55.4795C1192.6246,-44.1288 1069.949,-24.9608 1008.4742,-15.3553"/>
<polygon fill="#191970" stroke="#191970" points="1008.8615,-11.8735 998.4411,-13.7877 1007.7808,-18.7896 1008.8615,-11.8735"/>
</g>
<!-- Node29&#45;&gt;Node1 -->
<g id="edge32" class="edge">
<title>Node29&#45;&gt;Node1</title>
<path fill="none" stroke="#191970" d="M1490.8312,-58.4567C1368.6148,-46.9466 1105.9434,-22.2087 1008.4388,-13.0259"/>
<polygon fill="#191970" stroke="#191970" points="1008.7372,-9.5386 998.4531,-12.0855 1008.0808,-16.5078 1008.7372,-9.5386"/>
</g>
<!-- Node32&#45;&gt;Node2 -->
<g id="edge36" class="edge">
<title>Node32&#45;&gt;Node2</title>
<path fill="none" stroke="#191970" d="M2296.7427,-188.5349C2285.0028,-190.5947 2272.0529,-192.5894 2260,-194 2014.3539,-222.7496 1720.0628,-234.0661 1588.4326,-237.853"/>
<polygon fill="#191970" stroke="#191970" points="1587.9979,-234.3638 1578.1005,-238.1443 1588.1952,-241.361 1587.9979,-234.3638"/>
</g>
<!-- Node32&#45;&gt;Node4 -->
<g id="edge34" class="edge">
<title>Node32&#45;&gt;Node4</title>
<path fill="none" stroke="#191970" d="M2358.5412,-170.3873C2384.8675,-160.1964 2427.6853,-143.6218 2457.2644,-132.1718"/>
<polygon fill="#191970" stroke="#191970" points="2458.683,-135.3759 2466.7452,-128.5019 2456.156,-128.8479 2458.683,-135.3759"/>
</g>
<!-- Node32&#45;&gt;Node12 -->
<g id="edge35" class="edge">
<title>Node32&#45;&gt;Node12</title>
<path fill="none" stroke="#191970" d="M2264.4471,-173.7458C2227.9166,-170.8814 2182.5804,-167.505 2142,-165 1785.8113,-143.0124 1353.2262,-125.453 1233.21,-120.7456"/>
<polygon fill="#191970" stroke="#191970" points="1233.0246,-117.2358 1222.8955,-120.3426 1232.7512,-124.2304 1233.0246,-117.2358"/>
</g>
<!-- Node37&#45;&gt;Node1 -->
<g id="edge38" class="edge">
<title>Node37&#45;&gt;Node1</title>
<path fill="none" stroke="#191970" d="M1675.7833,-110.4447C1668.4233,-95.8147 1651.7217,-67.3713 1628,-55 1573.0891,-26.3629 1140.5365,-13.6083 1008.8881,-10.3644"/>
<polygon fill="#191970" stroke="#191970" points="1008.5955,-6.8564 998.5137,-10.1133 1008.4261,-13.8544 1008.5955,-6.8564"/>
</g>
<!-- Node38&#45;&gt;Node1 -->
<g id="edge40" class="edge">
<title>Node38&#45;&gt;Node1</title>
<path fill="none" stroke="#191970" d="M2671.0671,-170.3338C2657.4145,-146.0538 2616.4443,-80.2152 2561,-55 2488.0817,-21.8378 1240.8538,-11.4098 1008.2056,-9.7493"/>
<polygon fill="#191970" stroke="#191970" points="1008.2299,-6.2495 998.2055,-9.6789 1008.1806,-13.2493 1008.2299,-6.2495"/>
</g>
<!-- Node39&#45;&gt;Node1 -->
<g id="edge42" class="edge">
<title>Node39&#45;&gt;Node1</title>
<path fill="none" stroke="#191970" d="M970.7583,-563.2568C752.9285,-558.0928 38,-533.9497 38,-439.5 38,-439.5 38,-439.5 38,-119.5 38,-88.9131 37.3264,-73.0768 62,-55 97.6633,-28.8718 765.8927,-13.6496 933.2461,-10.2369"/>
<polygon fill="#191970" stroke="#191970" points="933.6057,-13.7305 943.533,-10.0292 933.4643,-6.7319 933.6057,-13.7305"/>
</g>
<!-- Node39&#45;&gt;Node2 -->
<g id="edge43" class="edge">
<title>Node39&#45;&gt;Node2</title>
<path fill="none" stroke="#191970" d="M1082.8007,-555.4727C1113.6122,-548.4953 1153.2135,-536.9371 1185,-519 1319.8201,-442.9212 1318.6523,-377.2067 1443,-285 1458.8559,-273.2425 1477.9182,-261.8365 1492.9853,-253.3855"/>
<polygon fill="#191970" stroke="#191970" points="1494.7218,-256.4248 1501.786,-248.5287 1491.3396,-250.2961 1494.7218,-256.4248"/>
</g>
<!-- Node40 -->
<g id="node26" class="node">
<title>Node40</title>
<g id="a_node26"><a xlink:href="SpaceND_8h_source.html" target="_top" xlink:title="DGtal/kernel/SpaceND.h">
<polygon fill="#ffffff" stroke="#ff0000" points="1166.2539,-295.5 1166.2539,-313.5 1291.7461,-313.5 1291.7461,-295.5 1166.2539,-295.5"/>
<text text-anchor="middle" x="1229" y="-301.5" font-family="FreeSans" font-size="10.00" fill="#000000">DGtal/kernel/SpaceND.h</text>
</a>
</g>
</g>
<!-- Node39&#45;&gt;Node40 -->
<g id="edge44" class="edge">
<title>Node39&#45;&gt;Node40</title>
<path fill="none" stroke="#191970" d="M1037.5615,-555.2635C1052.702,-525.1328 1103.7084,-427.7483 1163,-360 1176.3452,-344.7514 1194.0285,-330.1126 1207.7321,-319.7014"/>
<polygon fill="#191970" stroke="#191970" points="1210.134,-322.2774 1216.077,-313.5064 1205.9614,-316.6569 1210.134,-322.2774"/>
</g>
<!-- Node62 -->
<g id="node27" class="node">
<title>Node62</title>
<g id="a_node27"><a xlink:href="HyperRectDomain_8h_source.html" target="_top" xlink:title="DGtal/kernel/domains\l/HyperRectDomain.h">
<polygon fill="#ffffff" stroke="#ff0000" points="141.9238,-290.5 141.9238,-318.5 254.0762,-318.5 254.0762,-290.5 141.9238,-290.5"/>
<text text-anchor="start" x="149.9238" y="-306.5" font-family="FreeSans" font-size="10.00" fill="#000000">DGtal/kernel/domains</text>
<text text-anchor="middle" x="198" y="-296.5" font-family="FreeSans" font-size="10.00" fill="#000000">/HyperRectDomain.h</text>
</a>
</g>
</g>
<!-- Node39&#45;&gt;Node62 -->
<g id="edge47" class="edge">
<title>Node39&#45;&gt;Node62</title>
<path fill="none" stroke="#191970" d="M970.8403,-562.9111C817.2261,-558.601 428.3274,-545.2124 376,-519 291.5524,-476.6975 232.4056,-374.2148 209.0677,-327.9063"/>
<polygon fill="#191970" stroke="#191970" points="212.0736,-326.088 204.513,-318.6659 205.7949,-329.1829 212.0736,-326.088"/>
</g>
<!-- Node84 -->
<g id="node28" class="node">
<title>Node84</title>
<g id="a_node28"><a xlink:href="DigitalSetSelector_8h_source.html" target="_top" xlink:title="DGtal/kernel/sets/Digital\lSetSelector.h">
<polygon fill="#ffffff" stroke="#ff0000" points="272.3696,-290.5 272.3696,-318.5 395.6304,-318.5 395.6304,-290.5 272.3696,-290.5"/>
<text text-anchor="start" x="280.3696" y="-306.5" font-family="FreeSans" font-size="10.00" fill="#000000">DGtal/kernel/sets/Digital</text>
<text text-anchor="middle" x="334" y="-296.5" font-family="FreeSans" font-size="10.00" fill="#000000">SetSelector.h</text>
</a>
</g>
</g>
<!-- Node39&#45;&gt;Node84 -->
<g id="edge50" class="edge">
<title>Node39&#45;&gt;Node84</title>
<path fill="none" stroke="#191970" d="M981.7554,-555.4508C877.0228,-535.6266 632.6713,-482.5068 447,-389 428.8578,-379.8633 386.7978,-347.1017 359.4231,-325.1593"/>
<polygon fill="#191970" stroke="#191970" points="361.4263,-322.2788 351.4417,-318.7351 357.0372,-327.7318 361.4263,-322.2788"/>
</g>
<!-- Node97 -->
<g id="node29" class="node">
<title>Node97</title>
<g id="a_node29"><a xlink:href="DigitalTopology_8h_source.html" target="_top" xlink:title="DGtal/topology/DigitalTopology.h">
<polygon fill="#ffffff" stroke="#ff0000" points="451.8271,-295.5 451.8271,-313.5 612.1729,-313.5 612.1729,-295.5 451.8271,-295.5"/>
<text text-anchor="middle" x="532" y="-301.5" font-family="FreeSans" font-size="10.00" fill="#000000">DGtal/topology/DigitalTopology.h</text>
</a>
</g>
</g>
<!-- Node39&#45;&gt;Node97 -->
<g id="edge53" class="edge">
<title>Node39&#45;&gt;Node97</title>
<path fill="none" stroke="#191970" d="M1015.4629,-555.3989C940.685,-516.592 648.2131,-364.8102 558.3864,-318.1935"/>
<polygon fill="#191970" stroke="#191970" points="559.8829,-315.027 549.3947,-313.5272 556.6585,-321.2401 559.8829,-315.027"/>
</g>
<!-- Node104 -->
<g id="node30" class="node">
<title>Node104</title>
<g id="a_node30"><a xlink:href="MetricAdjacency_8h_source.html" target="_top" xlink:title="DGtal/topology/MetricAdjacency.h">
<polygon fill="#ffffff" stroke="#ff0000" points="950.0562,-365.5 950.0562,-383.5 1115.9438,-383.5 1115.9438,-365.5 950.0562,-365.5"/>
<text text-anchor="middle" x="1033" y="-371.5" font-family="FreeSans" font-size="10.00" fill="#000000">DGtal/topology/MetricAdjacency.h</text>
</a>
</g>
</g>
<!-- Node39&#45;&gt;Node104 -->
<g id="edge56" class="edge">
<title>Node39&#45;&gt;Node104</title>
<path fill="none" stroke="#191970" d="M1033,-555.3359C1033,-525.9922 1033,-433.9249 1033,-393.6649"/>
<polygon fill="#191970" stroke="#191970" points="1036.5001,-393.5721 1033,-383.5721 1029.5001,-393.5722 1036.5001,-393.5721"/>
</g>
<!-- Node107 -->
<g id="node32" class="node">
<title>Node107</title>
<g id="a_node32"><a xlink:href="Object_8h_source.html" target="_top" xlink:title="DGtal/topology/Object.h">
<polygon fill="#ffffff" stroke="#ff0000" points="272.9165,-365.5 272.9165,-383.5 395.0835,-383.5 395.0835,-365.5 272.9165,-365.5"/>
<text text-anchor="middle" x="334" y="-371.5" font-family="FreeSans" font-size="10.00" fill="#000000">DGtal/topology/Object.h</text>
</a>
</g>
</g>
<!-- Node39&#45;&gt;Node107 -->
<g id="edge61" class="edge">
<title>Node39&#45;&gt;Node107</title>
<path fill="none" stroke="#191970" d="M970.8561,-563.3792C822.235,-560.2185 455.1504,-549.3958 409,-519 364.6579,-489.7952 345.0077,-425.6443 337.688,-393.5593"/>
<polygon fill="#191970" stroke="#191970" points="341.0873,-392.7165 335.5929,-383.6576 334.2389,-394.1655 341.0873,-392.7165"/>
</g>
<!-- Node39&#45;&gt;Node116 -->
<g id="edge65" class="edge">
<title>Node39&#45;&gt;Node116</title>
<path fill="none" stroke="#191970" d="M1094.9438,-558.7574C1164.5679,-551.5274 1272.633,-537.7471 1309,-519 1335.1284,-505.5309 1357.9306,-480.2724 1372.2331,-461.8299"/>
<polygon fill="#191970" stroke="#191970" points="1375.1654,-463.7536 1378.3683,-453.6544 1369.5666,-459.552 1375.1654,-463.7536"/>
</g>
<!-- Node117 -->
<g id="node34" class="node">
<title>Node117</title>
<g id="a_node34"><a xlink:href="KhalimskyPreSpaceND_8h_source.html" target="_top" xlink:title="DGtal/topology/Khalimsky\lPreSpaceND.h">
<polygon fill="#ffffff" stroke="#ff0000" points="1171.7539,-360.5 1171.7539,-388.5 1302.2461,-388.5 1302.2461,-360.5 1171.7539,-360.5"/>
<text text-anchor="start" x="1179.7539" y="-376.5" font-family="FreeSans" font-size="10.00" fill="#000000">DGtal/topology/Khalimsky</text>
<text text-anchor="middle" x="1237" y="-366.5" font-family="FreeSans" font-size="10.00" fill="#000000">PreSpaceND.h</text>
</a>
</g>
</g>
<!-- Node39&#45;&gt;Node117 -->
<g id="edge75" class="edge">
<title>Node39&#45;&gt;Node117</title>
<path fill="none" stroke="#191970" d="M1081.4084,-555.4882C1106.5145,-548.8294 1136.3664,-537.5867 1158,-519 1196.1885,-486.1901 1219.2195,-430.1462 1229.8764,-398.3564"/>
<polygon fill="#191970" stroke="#191970" points="1233.2927,-399.1653 1233.0201,-388.574 1226.6283,-397.0236 1233.2927,-399.1653"/>
</g>
<!-- Node39&#45;&gt;Node120 -->
<g id="edge76" class="edge">
<title>Node39&#45;&gt;Node120</title>
<path fill="none" stroke="#191970" d="M1095.098,-556.656C1183.6904,-545.4654 1345.853,-524.9817 1438.3988,-513.2917"/>
<polygon fill="#191970" stroke="#191970" points="1439.0231,-516.7408 1448.5056,-512.0151 1438.1458,-509.796 1439.0231,-516.7408"/>
</g>
<!-- Node151 -->
<g id="node36" class="node">
<title>Node151</title>
<g id="a_node36"><a xlink:href="ExactPredicateLpSeparableMetric_8h_source.html" target="_top" xlink:title="DGtal/geometry/volumes\l/distance/ExactPredicateLpSeparable\lMetric.h">
<polygon fill="#ffffff" stroke="#ff0000" points="889.6138,-285.5 889.6138,-323.5 1072.3862,-323.5 1072.3862,-285.5 889.6138,-285.5"/>
<text text-anchor="start" x="897.6138" y="-311.5" font-family="FreeSans" font-size="10.00" fill="#000000">DGtal/geometry/volumes</text>
<text text-anchor="start" x="897.6138" y="-301.5" font-family="FreeSans" font-size="10.00" fill="#000000">/distance/ExactPredicateLpSeparable</text>
<text text-anchor="middle" x="981" y="-291.5" font-family="FreeSans" font-size="10.00" fill="#000000">Metric.h</text>
</a>
</g>
</g>
<!-- Node39&#45;&gt;Node151 -->
<g id="edge81" class="edge">
<title>Node39&#45;&gt;Node151</title>
<path fill="none" stroke="#191970" d="M1026.0499,-555.2721C1007.6692,-530.216 958.025,-458.1458 941,-389 937.9185,-376.4849 937.0405,-372.2656 941,-360 944.2564,-349.9122 950.104,-340.1126 956.3403,-331.6263"/>
<polygon fill="#191970" stroke="#191970" points="959.206,-333.6439 962.6246,-323.6157 953.6985,-329.3233 959.206,-333.6439"/>
</g>
<!-- Node156 -->
<g id="node37" class="node">
<title>Node156</title>
<g id="a_node37"><a xlink:href="ExactPredicateLpPowerSeparableMetric_8h_source.html" target="_top" xlink:title="DGtal/geometry/volumes\l/distance/ExactPredicateLpPower\lSeparableMetric.h">
<polygon fill="#ffffff" stroke="#ff0000" points="706.2368,-285.5 706.2368,-323.5 871.7632,-323.5 871.7632,-285.5 706.2368,-285.5"/>
<text text-anchor="start" x="714.2368" y="-311.5" font-family="FreeSans" font-size="10.00" fill="#000000">DGtal/geometry/volumes</text>
<text text-anchor="start" x="714.2368" y="-301.5" font-family="FreeSans" font-size="10.00" fill="#000000">/distance/ExactPredicateLpPower</text>
<text text-anchor="middle" x="789" y="-291.5" font-family="FreeSans" font-size="10.00" fill="#000000">SeparableMetric.h</text>
</a>
</g>
</g>
<!-- Node39&#45;&gt;Node156 -->
<g id="edge85" class="edge">
<title>Node39&#45;&gt;Node156</title>
<path fill="none" stroke="#191970" d="M1021.2354,-555.1637C1010.226,-546.2517 993.4977,-532.2555 980,-519 914.9617,-455.1289 845.4112,-373.0946 810.9595,-331.4096"/>
<polygon fill="#191970" stroke="#191970" points="813.6087,-329.1207 804.5489,-323.6279 808.2059,-333.5716 813.6087,-329.1207"/>
</g>
<!-- Node40&#45;&gt;Node1 -->
<g id="edge45" class="edge">
<title>Node40&#45;&gt;Node1</title>
<path fill="none" stroke="#191970" d="M1165.9572,-295.8496C992.5533,-271.9238 520.4986,-205.8467 509,-194 462.4955,-146.0875 504.6858,-81.4355 566,-55 631.6462,-26.6967 845.9979,-14.7261 933.3941,-10.9387"/>
<polygon fill="#191970" stroke="#191970" points="933.8034,-14.4247 943.6472,-10.5069 933.5088,-7.4309 933.8034,-14.4247"/>
</g>
<!-- Node40&#45;&gt;Node2 -->
<g id="edge46" class="edge">
<title>Node40&#45;&gt;Node2</title>
<path fill="none" stroke="#191970" d="M1263.43,-295.4867C1276.7068,-292.0883 1292.0335,-288.259 1306,-285 1359.6936,-272.4709 1421.3223,-259.4535 1464.428,-250.5686"/>
<polygon fill="#191970" stroke="#191970" points="1465.334,-253.9557 1474.4245,-248.5138 1463.9245,-247.099 1465.334,-253.9557"/>
</g>
<!-- Node62&#45;&gt;Node1 -->
<g id="edge48" class="edge">
<title>Node62&#45;&gt;Node1</title>
<path fill="none" stroke="#191970" d="M189.3235,-290.4698C176.2471,-267.9473 153,-221.9392 153,-179.5 153,-179.5 153,-179.5 153,-119.5 153,-85.532 164.7185,-72.2168 194,-55 258.1355,-17.2899 786.9978,-10.7885 933.5033,-9.708"/>
<polygon fill="#191970" stroke="#191970" points="933.7951,-13.2061 943.7705,-9.6366 933.7464,-6.2063 933.7951,-13.2061"/>
</g>
<!-- Node62&#45;&gt;Node2 -->
<g id="edge49" class="edge">
<title>Node62&#45;&gt;Node2</title>
<path fill="none" stroke="#191970" d="M239.2389,-290.4132C247.0483,-288.2367 255.212,-286.2875 263,-285 379.9909,-265.6596 1203.9072,-246.3577 1449.8502,-240.9738"/>
<polygon fill="#191970" stroke="#191970" points="1450.1653,-244.4678 1460.0865,-240.7504 1450.0125,-237.4695 1450.1653,-244.4678"/>
</g>
<!-- Node84&#45;&gt;Node1 -->
<g id="edge51" class="edge">
<title>Node84&#45;&gt;Node1</title>
<path fill="none" stroke="#191970" d="M282.0401,-290.4841C258.7952,-281.8811 232.7023,-268.6441 215,-249 193.1236,-224.724 191,-212.1788 191,-179.5 191,-179.5 191,-179.5 191,-119.5 191,-88.9131 190.418,-73.2011 215,-55 244.1531,-33.4143 784.9389,-15.2296 933.5101,-10.6253"/>
<polygon fill="#191970" stroke="#191970" points="933.6294,-14.1234 943.517,-10.3174 933.414,-7.1267 933.6294,-14.1234"/>
</g>
<!-- Node84&#45;&gt;Node2 -->
<g id="edge52" class="edge">
<title>Node84&#45;&gt;Node2</title>
<path fill="none" stroke="#191970" d="M395.7563,-291.9594C411.1312,-289.25 427.6176,-286.6934 443,-285 639.3575,-263.3839 1244.6597,-246.4525 1450.0215,-241.1996"/>
<polygon fill="#191970" stroke="#191970" points="1450.1686,-244.6971 1460.0763,-240.9436 1449.9904,-237.6994 1450.1686,-244.6971"/>
</g>
<!-- Node97&#45;&gt;Node1 -->
<g id="edge54" class="edge">
<title>Node97&#45;&gt;Node1</title>
<path fill="none" stroke="#191970" d="M490.5441,-295.4874C422.6251,-280.6481 294.7465,-252.3685 291,-249 266.6992,-227.1511 267,-212.1788 267,-179.5 267,-179.5 267,-179.5 267,-119.5 267,-88.9131 266.4791,-73.2834 291,-55 342.6025,-16.524 797.8093,-10.5834 933.186,-9.667"/>
<polygon fill="#191970" stroke="#191970" points="933.4885,-13.1653 943.4665,-9.603 933.4448,-6.1654 933.4885,-13.1653"/>
</g>
<!-- Node97&#45;&gt;Node2 -->
<g id="edge55" class="edge">
<title>Node97&#45;&gt;Node2</title>
<path fill="none" stroke="#191970" d="M600.1382,-295.4802C629.8443,-291.7983 665.1015,-287.765 697,-285 975.5275,-260.8566 1308.3204,-247.0444 1449.842,-241.8711"/>
<polygon fill="#191970" stroke="#191970" points="1450.237,-245.3591 1460.1035,-241.4989 1449.9832,-238.3637 1450.237,-245.3591"/>
</g>
<!-- Node104&#45;&gt;Node1 -->
<g id="edge57" class="edge">
<title>Node104&#45;&gt;Node1</title>
<path fill="none" stroke="#191970" d="M950.0333,-368.8703C857.1848,-361.5729 713.2985,-346.9884 664,-324 640.6166,-313.0961 644.4556,-295.7477 621,-285 502.1249,-230.5299 430.6361,-331.2701 329,-249 303.5998,-228.4396 305,-212.1788 305,-179.5 305,-179.5 305,-179.5 305,-119.5 305,-88.9131 304.5152,-73.3317 329,-55 377.394,-18.7676 802.7769,-11.2782 933.1695,-9.8283"/>
<polygon fill="#191970" stroke="#191970" points="933.4896,-13.3252 943.4521,-9.7199 933.4157,-6.3256 933.4896,-13.3252"/>
</g>
<!-- Node104&#45;&gt;Node2 -->
<g id="edge59" class="edge">
<title>Node104&#45;&gt;Node2</title>
<path fill="none" stroke="#191970" d="M1049.3906,-365.4433C1066.1637,-355.9115 1092.713,-340.0844 1114,-324 1134.5852,-308.4459 1133.5571,-295.7754 1157,-285 1207.6376,-261.7247 1359.7009,-248.9491 1449.8292,-243.2359"/>
<polygon fill="#191970" stroke="#191970" points="1450.2005,-246.7197 1459.9644,-242.6066 1449.7667,-239.7331 1450.2005,-246.7197"/>
</g>
<!-- Node104&#45;&gt;Node40 -->
<g id="edge60" class="edge">
<title>Node104&#45;&gt;Node40</title>
<path fill="none" stroke="#191970" d="M1058.2223,-365.492C1092.6747,-353.1876 1154.6191,-331.0646 1193.6773,-317.1152"/>
<polygon fill="#191970" stroke="#191970" points="1195.3238,-320.2438 1203.564,-313.5843 1192.9694,-313.6516 1195.3238,-320.2438"/>
</g>
<!-- Node86 -->
<g id="node31" class="node">
<title>Node86</title>
<polygon fill="#ffffff" stroke="#bfbfbf" points="1348.3301,-295.5 1348.3301,-313.5 1377.6699,-313.5 1377.6699,-295.5 1348.3301,-295.5"/>
<text text-anchor="middle" x="1363" y="-301.5" font-family="FreeSans" font-size="10.00" fill="#000000">set</text>
</g>
<!-- Node104&#45;&gt;Node86 -->
<g id="edge58" class="edge">
<title>Node104&#45;&gt;Node86</title>
<path fill="none" stroke="#191970" d="M1091.7246,-365.4919C1146.3137,-356.6335 1229.6981,-341.8638 1301,-324 1313.4863,-320.8717 1327.1561,-316.6592 1338.475,-312.9501"/>
<polygon fill="#191970" stroke="#191970" points="1339.7328,-316.2201 1348.1077,-309.7307 1337.514,-309.581 1339.7328,-316.2201"/>
</g>
<!-- Node107&#45;&gt;Node1 -->
<g id="edge62" class="edge">
<title>Node107&#45;&gt;Node1</title>
<path fill="none" stroke="#191970" d="M272.9127,-366.2834C221.1522,-358.0796 152.3441,-343.8334 133,-324 106.1232,-296.4434 114,-277.9932 114,-239.5 114,-239.5 114,-239.5 114,-119.5 114,-82.9547 132.5689,-71.8458 165,-55 233.7009,-19.3145 784.2022,-11.3346 933.6687,-9.8184"/>
<polygon fill="#191970" stroke="#191970" points="933.7598,-13.3178 943.7251,-9.7201 933.6913,-6.3181 933.7598,-13.3178"/>
</g>
<!-- Node107&#45;&gt;Node2 -->
<g id="edge63" class="edge">
<title>Node107&#45;&gt;Node2</title>
<path fill="none" stroke="#191970" d="M395.3635,-373.0863C563.0503,-368.8409 1020.5321,-354.5652 1081,-324 1101.2641,-313.7569 1093.9681,-295.6901 1114,-285 1170.5779,-254.8069 1350.1009,-244.5593 1450.0847,-241.1494"/>
<polygon fill="#191970" stroke="#191970" points="1450.2162,-244.647 1460.0964,-240.8217 1449.9872,-237.6508 1450.2162,-244.647"/>
</g>
<!-- Node107&#45;&gt;Node84 -->
<g id="edge64" class="edge">
<title>Node107&#45;&gt;Node84</title>
<path fill="none" stroke="#191970" d="M334,-365.3487C334,-356.1766 334,-341.6532 334,-329.0956"/>
<polygon fill="#191970" stroke="#191970" points="337.5001,-328.7499 334,-318.7499 330.5001,-328.75 337.5001,-328.7499"/>
</g>
<!-- Node116&#45;&gt;Node1 -->
<g id="edge66" class="edge">
<title>Node116&#45;&gt;Node1</title>
<path fill="none" stroke="#191970" d="M1453.463,-435.4203C1575.5784,-427.3927 1828.968,-408.6138 1864,-389 1914.8831,-360.5114 1899.5025,-322.6917 1944,-285 1983.5987,-251.4578 1999.0903,-249.9449 2047,-230 2097.2273,-209.0903 2131.6774,-237.7635 2164,-194 2171.6573,-183.6323 2168.7069,-176.9987 2164,-165 2110.4578,-28.5129 1998.3763,-74.0066 1853,-55 1685.7659,-33.1357 1154.6108,-15.2485 1008.5092,-10.6495"/>
<polygon fill="#191970" stroke="#191970" points="1008.3804,-7.1438 998.2758,-10.3293 1008.1615,-14.1404 1008.3804,-7.1438"/>
</g>
<!-- Node116&#45;&gt;Node2 -->
<g id="edge68" class="edge">
<title>Node116&#45;&gt;Node2</title>
<path fill="none" stroke="#191970" d="M1397.763,-425.2211C1404.3868,-415.2715 1413.1505,-401.5796 1420,-389 1444.3442,-344.2902 1437.7056,-325.9128 1468,-285 1476.385,-273.6759 1487.9648,-263.0672 1497.9712,-254.9469"/>
<polygon fill="#191970" stroke="#191970" points="1500.1771,-257.665 1505.9019,-248.7499 1495.8671,-252.1492 1500.1771,-257.665"/>
</g>
<!-- Node116&#45;&gt;Node40 -->
<g id="edge69" class="edge">
<title>Node116&#45;&gt;Node40</title>
<path fill="none" stroke="#191970" d="M1375.9839,-425.4281C1361.4639,-408.8347 1335.8744,-380.8745 1311,-360 1292.6677,-344.6156 1270.0235,-329.5503 1253.1789,-319.0067"/>
<polygon fill="#191970" stroke="#191970" points="1254.83,-315.9129 1244.4816,-313.6411 1251.1546,-321.8704 1254.83,-315.9129"/>
</g>
<!-- Node116&#45;&gt;Node86 -->
<g id="edge67" class="edge">
<title>Node116&#45;&gt;Node86</title>
<path fill="none" stroke="#191970" d="M1385.3718,-425.3078C1380.8543,-400.9132 1371.6138,-351.0147 1366.5363,-323.5962"/>
<polygon fill="#191970" stroke="#191970" points="1369.9604,-322.8643 1364.6979,-313.6688 1363.0774,-324.139 1369.9604,-322.8643"/>
</g>
<!-- Node116&#45;&gt;Node117 -->
<g id="edge70" class="edge">
<title>Node116&#45;&gt;Node117</title>
<path fill="none" stroke="#191970" d="M1355.2352,-425.396C1332.8756,-415.7709 1303.0596,-402.9362 1278.9634,-392.5637"/>
<polygon fill="#191970" stroke="#191970" points="1280.2698,-389.3156 1269.7008,-388.5765 1277.5021,-395.7452 1280.2698,-389.3156"/>
</g>
<!-- Node117&#45;&gt;Node1 -->
<g id="edge71" class="edge">
<title>Node117&#45;&gt;Node1</title>
<path fill="none" stroke="#191970" d="M1171.6165,-365.5342C1156.3351,-363.5778 1140.1094,-361.6127 1125,-360 1030.0921,-349.8701 783.8244,-363.6439 697,-324 674.4137,-313.6872 678.9712,-296.5654 657,-285 584.4211,-246.7951 553.3541,-276.27 476,-249 413.0991,-226.8252 343,-246.1952 343,-179.5 343,-179.5 343,-179.5 343,-119.5 343,-82.6774 362.4336,-72.1851 395,-55 442.4725,-29.949 813.2166,-14.9811 933.4757,-10.7474"/>
<polygon fill="#191970" stroke="#191970" points="933.7916,-14.2386 943.6641,-10.3934 933.5485,-7.2428 933.7916,-14.2386"/>
</g>
<!-- Node117&#45;&gt;Node2 -->
<g id="edge73" class="edge">
<title>Node117&#45;&gt;Node2</title>
<path fill="none" stroke="#191970" d="M1256.291,-360.321C1269.2763,-350.5275 1286.5924,-336.9772 1301,-324 1318.9819,-307.8034 1318.0341,-297.0876 1339,-285 1372.8027,-265.5115 1414.8843,-254.2801 1449.8574,-247.8544"/>
<polygon fill="#191970" stroke="#191970" points="1450.7409,-251.2532 1459.9917,-246.0886 1449.5393,-244.3571 1450.7409,-251.2532"/>
</g>
<!-- Node117&#45;&gt;Node40 -->
<g id="edge74" class="edge">
<title>Node117&#45;&gt;Node40</title>
<path fill="none" stroke="#191970" d="M1235.3811,-360.3345C1234.177,-349.799 1232.5204,-335.3036 1231.1969,-323.7227"/>
<polygon fill="#191970" stroke="#191970" points="1234.6686,-323.2747 1230.0556,-313.7368 1227.7138,-324.0696 1234.6686,-323.2747"/>
</g>
<!-- Node117&#45;&gt;Node86 -->
<g id="edge72" class="edge">
<title>Node117&#45;&gt;Node86</title>
<path fill="none" stroke="#191970" d="M1266.3254,-360.3063C1285.8118,-350.6147 1311.8003,-337.1864 1334,-324 1336.5429,-322.4895 1339.169,-320.8472 1341.7543,-319.178"/>
<polygon fill="#191970" stroke="#191970" points="1343.8217,-322.0064 1350.2071,-313.552 1339.9432,-316.1791 1343.8217,-322.0064"/>
</g>
<!-- Node120&#45;&gt;Node1 -->
<g id="edge77" class="edge">
<title>Node120&#45;&gt;Node1</title>
<path fill="none" stroke="#191970" d="M1448.5356,-499.3002C1251.3677,-481.3119 621.5231,-417.6539 443,-324 421.5692,-312.7573 425.8639,-297.2628 405,-285 352.2055,-253.97 321.0992,-285.5977 272,-249 242.8772,-227.2924 229,-215.823 229,-179.5 229,-179.5 229,-179.5 229,-119.5 229,-85.532 240.773,-72.3093 270,-55 327.2717,-21.0815 796.6574,-11.9239 933.6191,-9.9627"/>
<polygon fill="#191970" stroke="#191970" points="933.683,-13.4622 943.6335,-9.8237 933.5858,-6.4629 933.683,-13.4622"/>
</g>
<!-- Node120&#45;&gt;Node2 -->
<g id="edge78" class="edge">
<title>Node120&#45;&gt;Node2</title>
<path fill="none" stroke="#191970" d="M1506.935,-490.3609C1506.2278,-480.2414 1505.3647,-466.2905 1505,-454 1502.8631,-381.9947 1511.9086,-296.6216 1516.4877,-258.9794"/>
<polygon fill="#191970" stroke="#191970" points="1519.9805,-259.2543 1517.7481,-248.8973 1513.0346,-258.3859 1519.9805,-259.2543"/>
</g>
<!-- Node120&#45;&gt;Node32 -->
<g id="edge79" class="edge">
<title>Node120&#45;&gt;Node32</title>
<path fill="none" stroke="#191970" d="M1567.2371,-497.8442C1647.6721,-486.4987 1793.2823,-457.5826 1897,-389 1947.0301,-355.9179 1933.0125,-318.1464 1983,-285 2066.3244,-229.7482 2179.5424,-202.6071 2254.8292,-189.8654"/>
<polygon fill="#191970" stroke="#191970" points="2255.4356,-193.3128 2264.7343,-188.235 2254.2986,-186.4057 2255.4356,-193.3128"/>
</g>
<!-- Node120&#45;&gt;Node116 -->
<g id="edge80" class="edge">
<title>Node120&#45;&gt;Node116</title>
<path fill="none" stroke="#191970" d="M1481.9618,-490.396C1464.6643,-481.0265 1441.7516,-468.6155 1422.883,-458.395"/>
<polygon fill="#191970" stroke="#191970" points="1424.4473,-455.2619 1413.9874,-453.5765 1421.1133,-461.4169 1424.4473,-455.2619"/>
</g>
<!-- Node151&#45;&gt;Node1 -->
<g id="edge82" class="edge">
<title>Node151&#45;&gt;Node1</title>
<path fill="none" stroke="#191970" d="M889.5585,-286.4723C736.9491,-256.283 446.5521,-198.3558 443,-194 403.9574,-146.1234 401.2338,-100.5201 443,-55 476.0628,-18.9655 818.4003,-11.4015 933.4908,-9.8727"/>
<polygon fill="#191970" stroke="#191970" points="933.6335,-13.3712 943.5889,-9.7464 933.5459,-6.3718 933.6335,-13.3712"/>
</g>
<!-- Node151&#45;&gt;Node2 -->
<g id="edge84" class="edge">
<title>Node151&#45;&gt;Node2</title>
<path fill="none" stroke="#191970" d="M1072.5545,-287.0571C1077.0955,-286.33 1081.5964,-285.6393 1086,-285 1213.9489,-266.4261 1364.2221,-252.3601 1449.8677,-245.07"/>
<polygon fill="#191970" stroke="#191970" points="1450.3164,-248.5447 1459.986,-244.2148 1449.7267,-241.5696 1450.3164,-248.5447"/>
</g>
<!-- Node151&#45;&gt;Node12 -->
<g id="edge83" class="edge">
<title>Node151&#45;&gt;Node12</title>
<path fill="none" stroke="#191970" d="M930.3003,-285.453C869.8194,-259.9944 781.8511,-212.5417 824,-165 846.8025,-139.28 1082.6532,-125.2692 1169.2976,-120.9591"/>
<polygon fill="#191970" stroke="#191970" points="1169.5163,-124.4527 1179.3342,-120.4703 1169.1757,-117.461 1169.5163,-124.4527"/>
</g>
<!-- Node156&#45;&gt;Node1 -->
<g id="edge86" class="edge">
<title>Node156&#45;&gt;Node1</title>
<path fill="none" stroke="#191970" d="M705.9433,-287.5488C586.6502,-262.0319 381,-213.1615 381,-179.5 381,-179.5 381,-179.5 381,-119.5 381,-84.7985 395.0179,-72.4721 425,-55 468.733,-29.5146 817.2093,-14.9539 933.4281,-10.7699"/>
<polygon fill="#191970" stroke="#191970" points="933.7477,-14.2608 943.6173,-10.4083 933.4994,-7.2652 933.7477,-14.2608"/>
</g>
<!-- Node156&#45;&gt;Node2 -->
<g id="edge88" class="edge">
<title>Node156&#45;&gt;Node2</title>
<path fill="none" stroke="#191970" d="M872.1537,-286.3393C875.1342,-285.8591 878.0899,-285.4102 881,-285 1086.4684,-256.0386 1331.9032,-245.1145 1449.4885,-241.3264"/>
<polygon fill="#191970" stroke="#191970" points="1449.8961,-244.8154 1459.7811,-241.0026 1449.6759,-237.8188 1449.8961,-244.8154"/>
</g>
<!-- Node156&#45;&gt;Node12 -->
<g id="edge87" class="edge">
<title>Node156&#45;&gt;Node12</title>
<path fill="none" stroke="#191970" d="M785.2015,-285.055C780.5234,-254.7298 776.743,-196.4025 809,-165 834.6803,-140 1080.2668,-125.4705 1169.118,-120.9971"/>
<polygon fill="#191970" stroke="#191970" points="1169.3362,-124.4907 1179.1512,-120.5014 1168.9907,-117.4992 1169.3362,-124.4907"/>
</g>
<!-- Node158&#45;&gt;Node1 -->
<g id="edge91" class="edge">
<title>Node158&#45;&gt;Node1</title>
<path fill="none" stroke="#191970" d="M2385.415,-295.4964C2474.1076,-275.404 2683.0664,-226.1504 2748,-194 2757.5196,-189.2866 2767,-190.1226 2767,-179.5 2767,-179.5 2767,-179.5 2767,-119.5 2767,-36.1904 2672.8155,-70.7075 2591,-55 2431.1166,-24.3046 1236.1355,-11.9209 1008.423,-9.8282"/>
<polygon fill="#191970" stroke="#191970" points="1008.3502,-6.3275 998.3187,-9.7363 1008.2864,-13.3272 1008.3502,-6.3275"/>
</g>
<!-- Node158&#45;&gt;Node2 -->
<g id="edge92" class="edge">
<title>Node158&#45;&gt;Node2</title>
<path fill="none" stroke="#191970" d="M2292.0971,-295.4677C2268.8171,-291.7612 2241.109,-287.7124 2216,-285 1986.7441,-260.2348 1713.5054,-247.1562 1588.1129,-242.0668"/>
<polygon fill="#191970" stroke="#191970" points="1588.0248,-238.5605 1577.8924,-241.6564 1587.7439,-245.5549 1588.0248,-238.5605"/>
</g>
<!-- Node161&#45;&gt;Node1 -->
<g id="edge94" class="edge">
<title>Node161&#45;&gt;Node1</title>
<path fill="none" stroke="#191970" d="M1779.7426,-365.4316C1788.1657,-339.2998 1816.3353,-263.5693 1869,-230 1974.1756,-162.9594 2219.8961,-262.4091 2142,-165 2003.145,8.6381 1874.0259,-86.9297 1654,-55 1409.7868,-19.5603 1112.3784,-11.6771 1008.751,-9.9635"/>
<polygon fill="#191970" stroke="#191970" points="1008.5414,-6.4599 998.4881,-9.8038 1008.4324,-13.4591 1008.5414,-6.4599"/>
</g>
<!-- Node161&#45;&gt;Node2 -->
<g id="edge96" class="edge">
<title>Node161&#45;&gt;Node2</title>
<path fill="none" stroke="#191970" d="M1770.2433,-365.3517C1756.3549,-347.211 1722.7181,-306.5747 1685,-285 1655.2747,-267.9972 1618.8979,-257.0992 1587.7812,-250.2477"/>
<polygon fill="#191970" stroke="#191970" points="1588.3849,-246.7981 1577.8783,-248.1627 1586.9427,-253.6479 1588.3849,-246.7981"/>
</g>
<!-- Node161&#45;&gt;Node86 -->
<g id="edge95" class="edge">
<title>Node161&#45;&gt;Node86</title>
<path fill="none" stroke="#191970" d="M1723.7243,-365.492C1633.3213,-350.2065 1453.3021,-319.7685 1387.6719,-308.6716"/>
<polygon fill="#191970" stroke="#191970" points="1388.2533,-305.2203 1377.8098,-307.0041 1387.0863,-312.1223 1388.2533,-305.2203"/>
</g>
<!-- Node170&#45;&gt;Node1 -->
<g id="edge98" class="edge">
<title>Node170&#45;&gt;Node1</title>
<path fill="none" stroke="#191970" d="M2419.9871,-369.9602C2598.0627,-359.0657 3032.5764,-331.7686 3046,-324 3085.2085,-301.3088 3103,-284.8012 3103,-239.5 3103,-239.5 3103,-239.5 3103,-119.5 3103,-29.4802 2999.664,-70.5642 2911,-55 2717.178,-20.9762 1261.1855,-11.1574 1008.366,-9.702"/>
<polygon fill="#191970" stroke="#191970" points="1008.2435,-6.2013 998.2238,-9.6444 1008.2037,-13.2012 1008.2435,-6.2013"/>
</g>
<!-- Node170&#45;&gt;Node2 -->
<g id="edge99" class="edge">
<title>Node170&#45;&gt;Node2</title>
<path fill="none" stroke="#191970" d="M2285.5467,-365.4548C2220.5368,-355.5125 2113.3015,-338.9611 2021,-324 1862.5439,-298.316 1676.2354,-266.5411 1581.3621,-250.2474"/>
<polygon fill="#191970" stroke="#191970" points="1581.8096,-246.7731 1571.3613,-248.529 1580.6241,-253.672 1581.8096,-246.7731"/>
</g>
<!-- Node170&#45;&gt;Node158 -->
<g id="edge100" class="edge">
<title>Node170&#45;&gt;Node158</title>
<path fill="none" stroke="#191970" d="M2345,-365.3487C2345,-354.9258 2345,-337.5928 2345,-324.0865"/>
<polygon fill="#191970" stroke="#191970" points="2348.5001,-323.8769 2345,-313.8769 2341.5001,-323.877 2348.5001,-323.8769"/>
</g>
<!-- Node176&#45;&gt;Node1 -->
<g id="edge102" class="edge">
<title>Node176&#45;&gt;Node1</title>
<path fill="none" stroke="#191970" d="M2678.4007,-290.4156C2752.6202,-268.5354 2881,-224.2246 2881,-179.5 2881,-179.5 2881,-179.5 2881,-119.5 2881,-52.6023 2810.0708,-70.5276 2745,-55 2657.6606,-34.1586 1257.8567,-13.538 1008.7615,-10.0243"/>
<polygon fill="#191970" stroke="#191970" points="1008.4714,-6.5199 998.4232,-9.879 1008.373,-13.5193 1008.4714,-6.5199"/>
</g>
<!-- Node176&#45;&gt;Node2 -->
<g id="edge103" class="edge">
<title>Node176&#45;&gt;Node2</title>
<path fill="none" stroke="#191970" d="M2571.7497,-290.4464C2561.5808,-288.2959 2551.0141,-286.3473 2541,-285 2356.0931,-260.1234 1786.3368,-245.433 1587.9577,-240.9646"/>
<polygon fill="#191970" stroke="#191970" points="1588.0266,-237.4654 1577.9508,-240.7408 1587.87,-244.4636 1588.0266,-237.4654"/>
</g>
<!-- Node179&#45;&gt;Node1 -->
<g id="edge105" class="edge">
<title>Node179&#45;&gt;Node1</title>
<path fill="none" stroke="#191970" d="M2707.9239,-370.3594C2819.1017,-362.1526 3051.5339,-342.971 3083,-324 3122.0098,-300.4809 3141,-285.0512 3141,-239.5 3141,-239.5 3141,-239.5 3141,-119.5 3141,-55.0016 3073.6278,-70.4212 3011,-55 2910.0151,-30.1339 1277.2975,-12.5972 1008.3619,-9.8708"/>
<polygon fill="#191970" stroke="#191970" points="1008.3551,-6.3706 998.3203,-9.7695 1008.2845,-13.3703 1008.3551,-6.3706"/>
</g>
<!-- Node179&#45;&gt;Node2 -->
<g id="edge106" class="edge">
<title>Node179&#45;&gt;Node2</title>
<path fill="none" stroke="#191970" d="M2589.9622,-370.1527C2449.9805,-359.75 2105.7663,-333.5778 2054,-324 1992.5887,-312.6377 1980.2425,-297.2391 1919,-285 1804.3778,-262.0932 1668.8047,-249.6972 1588.5734,-243.8551"/>
<polygon fill="#191970" stroke="#191970" points="1588.3323,-240.329 1578.1083,-243.1074 1587.8334,-247.3112 1588.3323,-240.329"/>
</g>
<!-- Node179&#45;&gt;Node38 -->
<g id="edge107" class="edge">
<title>Node179&#45;&gt;Node38</title>
<path fill="none" stroke="#191970" d="M2707.8901,-362.354C2712.6552,-361.5081 2717.403,-360.7106 2722,-360 2793.5928,-348.9331 2997.6862,-377.9794 3046,-324 3134.5271,-225.0918 2880.7493,-193.2282 2749.3734,-183.5056"/>
<polygon fill="#191970" stroke="#191970" points="2749.5871,-180.0121 2739.3629,-182.79 2749.0879,-186.9942 2749.5871,-180.0121"/>
</g>
<!-- Node179&#45;&gt;Node158 -->
<g id="edge108" class="edge">
<title>Node179&#45;&gt;Node158</title>
<path fill="none" stroke="#191970" d="M2590.0253,-360.9203C2533.0891,-347.81 2447.858,-328.1844 2394.3944,-315.8737"/>
<polygon fill="#191970" stroke="#191970" points="2394.9997,-312.4216 2384.4693,-313.5883 2393.4289,-319.2431 2394.9997,-312.4216"/>
</g>
<!-- Node181&#45;&gt;Node1 -->
<g id="edge111" class="edge">
<title>Node181&#45;&gt;Node1</title>
<path fill="none" stroke="#191970" d="M1870.0933,-495.2374C1889.2632,-461.2876 1960.7561,-342.6515 2054,-285 2194.3692,-198.2116 2312.6069,-324.2121 2414,-194 2421.9187,-183.8306 2421.9182,-175.1698 2414,-165 2291.4877,-7.6512 2176.2858,-84.0897 1979,-55 1786.2941,-26.5856 1167.7029,-13.202 1008.5967,-10.1776"/>
<polygon fill="#191970" stroke="#191970" points="1008.4318,-6.6739 998.3678,-9.9854 1008.3003,-13.6727 1008.4318,-6.6739"/>
</g>
<!-- Node181&#45;&gt;Node2 -->
<g id="edge110" class="edge">
<title>Node181&#45;&gt;Node2</title>
<path fill="none" stroke="#191970" d="M1843.4455,-495.4263C1807.1208,-479.1364 1733.4331,-441.6526 1690,-389 1658.1722,-350.4161 1683.2495,-319.463 1647,-285 1629.7285,-268.5797 1606.1492,-258.0332 1583.9327,-251.2818"/>
<polygon fill="#191970" stroke="#191970" points="1584.7591,-247.8783 1574.1841,-248.5271 1582.8556,-254.6145 1584.7591,-247.8783"/>
</g>
<!-- Node181&#45;&gt;Node4 -->
<g id="edge112" class="edge">
<title>Node181&#45;&gt;Node4</title>
<path fill="none" stroke="#191970" d="M1898.0495,-495.4632C1928.2213,-486.6589 1973.6708,-471.9897 2011,-454 2108.1893,-407.1625 2132.2304,-391.9864 2216,-324 2234.791,-308.7495 2232.8851,-296.8253 2254,-285 2317.2165,-249.5959 2349.0961,-283.1478 2413,-249 2444.3322,-232.2573 2453.0156,-224.6364 2471,-194 2481.0051,-176.9562 2485.7927,-154.7066 2488.0512,-138.9742"/>
<polygon fill="#191970" stroke="#191970" points="2491.5509,-139.1882 2489.2872,-128.8381 2484.6024,-138.3409 2491.5509,-139.1882"/>
</g>
<!-- Node181&#45;&gt;Node40 -->
<g id="edge113" class="edge">
<title>Node181&#45;&gt;Node40</title>
<path fill="none" stroke="#191970" d="M1822.4492,-495.4501C1780.1798,-486.1605 1713.666,-470.732 1657,-454 1507.4024,-409.8278 1332.9281,-344.4529 1261.7447,-317.1746"/>
<polygon fill="#191970" stroke="#191970" points="1262.9893,-313.9034 1252.3993,-313.5845 1260.479,-320.4378 1262.9893,-313.9034"/>
</g>
<!-- Node181&#45;&gt;Node116 -->
<g id="edge114" class="edge">
<title>Node181&#45;&gt;Node116</title>
<path fill="none" stroke="#191970" d="M1798.6752,-495.462C1710.7125,-483.4755 1555.8441,-462.3718 1463.4946,-449.7875"/>
<polygon fill="#191970" stroke="#191970" points="1463.7602,-446.2915 1453.3792,-448.4091 1462.815,-453.2274 1463.7602,-446.2915"/>
</g>
<!-- Node210&#45;&gt;Node1 -->
<g id="edge116" class="edge">
<title>Node210&#45;&gt;Node1</title>
<path fill="none" stroke="#191970" d="M2814.6412,-295.4863C2850.1447,-278.4223 2919,-237.8118 2919,-179.5 2919,-179.5 2919,-179.5 2919,-119.5 2919,-64.3526 2865.9125,-70.5404 2813,-55 2723.3609,-28.6729 1263.0128,-12.5017 1008.638,-9.878"/>
<polygon fill="#191970" stroke="#191970" points="1008.4662,-6.3762 998.4308,-9.7734 1008.3944,-13.3758 1008.4662,-6.3762"/>
</g>
<!-- Node210&#45;&gt;Node2 -->
<g id="edge117" class="edge">
<title>Node210&#45;&gt;Node2</title>
<path fill="none" stroke="#191970" d="M2762.3408,-295.4447C2747.2313,-291.5172 2728.8181,-287.298 2712,-285 2492.6653,-255.0311 1808.7438,-243.396 1588.259,-240.3644"/>
<polygon fill="#191970" stroke="#191970" points="1588.1604,-236.8628 1578.1137,-240.2265 1588.0652,-243.8622 1588.1604,-236.8628"/>
</g>
<!-- Node206&#45;&gt;Node1 -->
<g id="edge119" class="edge">
<title>Node206&#45;&gt;Node1</title>
<path fill="none" stroke="#191970" d="M1314.5702,-621.8404C1045.6452,-610.9449 76,-567.305 76,-504.5 76,-504.5 76,-504.5 76,-119.5 76,-81.8263 97.2327,-71.7056 131,-55 203.4666,-19.1487 779.0522,-11.276 933.1593,-9.8037"/>
<polygon fill="#191970" stroke="#191970" points="933.5466,-13.3004 943.5139,-9.7085 933.4821,-6.3007 933.5466,-13.3004"/>
</g>
<!-- Node206&#45;&gt;Node2 -->
<g id="edge120" class="edge">
<title>Node206&#45;&gt;Node2</title>
<path fill="none" stroke="#191970" d="M1431.7823,-610.4487C1476.0717,-595.153 1539.827,-566.3304 1576,-519 1598.0596,-490.1361 1595,-475.8284 1595,-439.5 1595,-439.5 1595,-439.5 1595,-374.5 1595,-326.6215 1558.2522,-280.0528 1535.8624,-256.1227"/>
<polygon fill="#191970" stroke="#191970" points="1538.0926,-253.3939 1528.6255,-248.6374 1533.06,-258.2595 1538.0926,-253.3939"/>
</g>
<!-- Node206&#45;&gt;Node39 -->
<g id="edge121" class="edge">
<title>Node206&#45;&gt;Node39</title>
<path fill="none" stroke="#191970" d="M1314.6856,-612.789C1251.1788,-601.9021 1157.3606,-585.819 1095.7168,-575.2514"/>
<polygon fill="#191970" stroke="#191970" points="1096.1792,-571.7797 1085.7315,-573.5397 1094.9964,-578.6791 1096.1792,-571.7797"/>
</g>
<!-- Node206&#45;&gt;Node116 -->
<g id="edge122" class="edge">
<title>Node206&#45;&gt;Node116</title>
<path fill="none" stroke="#191970" d="M1383.384,-610.2905C1384.235,-578.8039 1386.2875,-502.8613 1387.3454,-463.7213"/>
<polygon fill="#191970" stroke="#191970" points="1390.85,-463.5956 1387.6215,-453.5046 1383.8525,-463.4064 1390.85,-463.5956"/>
</g>
<!-- Node213&#45;&gt;Node1 -->
<g id="edge124" class="edge">
<title>Node213&#45;&gt;Node1</title>
<path fill="none" stroke="#191970" d="M2960.8774,-295.4034C2960.6104,-274.7833 2960,-222.9042 2960,-179.5 2960,-179.5 2960,-179.5 2960,-119.5 2960,-68.0974 2912.9865,-70.5738 2864,-55 2772.3604,-25.8659 1266.5473,-11.9762 1008.4867,-9.8047"/>
<polygon fill="#191970" stroke="#191970" points="1008.5107,-6.3049 998.4818,-9.7211 1008.4522,-13.3046 1008.5107,-6.3049"/>
</g>
<!-- Node213&#45;&gt;Node2 -->
<g id="edge125" class="edge">
<title>Node213&#45;&gt;Node2</title>
<path fill="none" stroke="#191970" d="M2928.1666,-295.418C2912.5008,-291.4847 2893.4156,-287.2683 2876,-285 2623.075,-252.0584 1828.0479,-242.2962 1588.1847,-240.0645"/>
<polygon fill="#191970" stroke="#191970" points="1587.8905,-236.5618 1577.8588,-239.9699 1587.8263,-243.5615 1587.8905,-236.5618"/>
</g>
<!-- Node231&#45;&gt;Node1 -->
<g id="edge127" class="edge">
<title>Node231&#45;&gt;Node1</title>
<path fill="none" stroke="#191970" d="M2189.5648,-295.4827C2258.3628,-283.7883 2372.543,-263.2091 2413,-249 2476.2989,-226.7686 2547,-246.5894 2547,-179.5 2547,-179.5 2547,-179.5 2547,-119.5 2547,-66.6125 2497.4966,-70.722 2447,-55 2376.3292,-32.9968 1231.7232,-13.6602 1008.5517,-10.0889"/>
<polygon fill="#191970" stroke="#191970" points="1008.3916,-6.586 998.3371,-9.9262 1008.28,-13.5851 1008.3916,-6.586"/>
</g>
<!-- Node231&#45;&gt;Node2 -->
<g id="edge129" class="edge">
<title>Node231&#45;&gt;Node2</title>
<path fill="none" stroke="#191970" d="M2100.0621,-295.4329C2084.5218,-291.6972 2065.943,-287.6354 2049,-285 1884.9013,-259.4756 1689.8287,-247.3592 1588.2661,-242.4085"/>
<polygon fill="#191970" stroke="#191970" points="1588.294,-238.9059 1578.138,-241.9235 1587.9592,-245.8979 1588.294,-238.9059"/>
</g>
<!-- Node231&#45;&gt;Node4 -->
<g id="edge128" class="edge">
<title>Node231&#45;&gt;Node4</title>
<path fill="none" stroke="#191970" d="M2174.8111,-295.4355C2189.344,-292.1365 2205.9128,-288.3868 2221,-285 2292.9654,-268.8451 2317.0515,-282.0272 2383,-249 2416.5346,-232.2057 2423.0638,-222.8734 2447,-194 2461.3859,-176.6468 2473.7559,-153.8582 2481.4863,-138.0761"/>
<polygon fill="#191970" stroke="#191970" points="2484.7422,-139.3789 2485.8708,-128.8443 2478.4191,-136.3758 2484.7422,-139.3789"/>
</g>
<!-- Node231&#45;&gt;Node32 -->
<g id="edge130" class="edge">
<title>Node231&#45;&gt;Node32</title>
<path fill="none" stroke="#191970" d="M2149.7065,-295.3085C2184.1759,-273.7651 2270.3964,-219.8773 2311.9273,-193.9204"/>
<polygon fill="#191970" stroke="#191970" points="2313.9167,-196.8045 2320.5417,-188.5364 2310.2067,-190.8685 2313.9167,-196.8045"/>
</g>
<!-- Node237&#45;&gt;Node1 -->
<g id="edge133" class="edge">
<title>Node237&#45;&gt;Node1</title>
<path fill="none" stroke="#191970" d="M3226.1096,-290.4511C3218.578,-267.525 3205,-220.5068 3205,-179.5 3205,-179.5 3205,-179.5 3205,-119.5 3205,-83.2287 3187.4022,-71.3004 3155,-55 3105.0613,-29.8775 1293.5335,-12.427 1008.5616,-9.8346"/>
<polygon fill="#191970" stroke="#191970" points="1008.3641,-6.3328 998.3328,-9.742 1008.3007,-13.3325 1008.3641,-6.3328"/>
</g>
<!-- Node237&#45;&gt;Node2 -->
<g id="edge132" class="edge">
<title>Node237&#45;&gt;Node2</title>
<path fill="none" stroke="#191970" d="M3169.0121,-296.7892C3133.1337,-292.6212 3087.0839,-287.7734 3046,-285 2756.4711,-265.4553 1846.1857,-246.0785 1587.9277,-240.8632"/>
<polygon fill="#191970" stroke="#191970" points="1587.9976,-237.364 1577.9291,-240.6618 1587.8565,-244.3626 1587.9976,-237.364"/>
</g>
<!-- Node189&#45;&gt;Node1 -->
<g id="edge135" class="edge">
<title>Node189&#45;&gt;Node1</title>
<path fill="none" stroke="#191970" d="M2513.533,-295.4812C2587.7786,-268.1012 2805,-187.3264 2805,-179.5 2805,-179.5 2805,-179.5 2805,-119.5 2805,-58.5588 2742.9218,-70.5578 2684,-55 2600.2998,-32.8997 1252.365,-13.3691 1008.6273,-10.0092"/>
<polygon fill="#191970" stroke="#191970" points="1008.544,-6.5079 998.4968,-9.8702 1008.4478,-13.5072 1008.544,-6.5079"/>
</g>
<!-- Node189&#45;&gt;Node2 -->
<g id="edge136" class="edge">
<title>Node189&#45;&gt;Node2</title>
<path fill="none" stroke="#191970" d="M2468.7829,-295.4208C2459.0708,-291.4881 2447.144,-287.2714 2436,-285 2274.0894,-251.9995 1772.965,-242.6081 1588.2736,-240.23"/>
<polygon fill="#191970" stroke="#191970" points="1588.1855,-236.7287 1578.1423,-240.1026 1588.0974,-243.7282 1588.1855,-236.7287"/>
</g>
<!-- Node189&#45;&gt;Node4 -->
<g id="edge137" class="edge">
<title>Node189&#45;&gt;Node4</title>
<path fill="none" stroke="#191970" d="M2496.7647,-295.4385C2505.1248,-285.0301 2517.9097,-267.0537 2523,-249 2533.1313,-213.0676 2534.5219,-200.5109 2523,-165 2519.5578,-154.3911 2512.6112,-144.1855 2505.9755,-136.1379"/>
<polygon fill="#191970" stroke="#191970" points="2508.5725,-133.791 2499.333,-128.606 2503.3225,-138.4211 2508.5725,-133.791"/>
</g>
</g>
</svg>
