<?xml version="1.0" encoding="UTF-8" standalone="no"?>
<!DOCTYPE svg PUBLIC "-//W3C//DTD SVG 1.1//EN"
 "http://www.w3.org/Graphics/SVG/1.1/DTD/svg11.dtd">
<!-- Generated by graphviz version 2.40.1 (20161225.0304)
 -->
<!-- Title: Graphical Class Hierarchy Pages: 1 -->
<svg width="296pt" height="466pt"
 viewBox="0.00 0.00 295.76 466.00" xmlns="http://www.w3.org/2000/svg" xmlns:xlink="http://www.w3.org/1999/xlink">
<g id="graph0" class="graph" transform="scale(1 1) rotate(0) translate(4 462)">
<title>Graphical Class Hierarchy</title>
<polygon fill="#ffffff" stroke="transparent" points="-4,4 -4,-462 291.7559,-462 291.7559,4 -4,4"/>
<!-- Node538 -->
<g id="node1" class="node">
<title>Node538</title>
<polygon fill="#ffffff" stroke="#bfbfbf" points="0,-199.5 0,-217.5 82.709,-217.5 82.709,-199.5 0,-199.5"/>
<text text-anchor="middle" x="41.3545" y="-205.5" font-family="FreeSans" font-size="10.00" fill="#000000">iterator_facade</text>
</g>
<!-- Node0 -->
<g id="node2" class="node">
<title>Node0</title>
<g id="a_node2"><a xlink:href="classboost_1_1graph__traits_3_01DGtal_1_1DigitalSurface_3_01TDigitalSurfaceContainer_01_4_01_4_1_1adjacency__iterator.html" target="_top" xlink:title="boost::graph_traits\l\&lt; DGtal::DigitalSurface\l\&lt; TDigitalSurfaceContainer\l \&gt; \&gt;::adjacency_iterator">
<polygon fill="#ffffff" stroke="#000000" points="135.1519,-409.5 135.1519,-457.5 271.313,-457.5 271.313,-409.5 135.1519,-409.5"/>
<text text-anchor="start" x="143.1519" y="-445.5" font-family="FreeSans" font-size="10.00" fill="#000000">boost::graph_traits</text>
<text text-anchor="start" x="143.1519" y="-435.5" font-family="FreeSans" font-size="10.00" fill="#000000">&lt; DGtal::DigitalSurface</text>
<text text-anchor="start" x="143.1519" y="-425.5" font-family="FreeSans" font-size="10.00" fill="#000000">&lt; TDigitalSurfaceContainer</text>
<text text-anchor="middle" x="203.2324" y="-415.5" font-family="FreeSans" font-size="10.00" fill="#000000"> &gt; &gt;::adjacency_iterator</text>
</a>
</g>
</g>
<!-- Node538&#45;&gt;Node0 -->
<g id="edge1" class="edge">
<title>Node538&#45;&gt;Node0</title>
<path fill="none" stroke="#191970" d="M43.9666,-227.7055C50.1154,-265.7487 68.9308,-351.2551 118.709,-400.5 123.5245,-405.2639 129.107,-409.3585 135.0629,-412.8742"/>
<polygon fill="#191970" stroke="#191970" points="47.3835,-226.8888 42.4447,-217.5155 40.4603,-227.9229 47.3835,-226.8888"/>
</g>
<!-- Node540 -->
<g id="node3" class="node">
<title>Node540</title>
<g id="a_node3"><a xlink:href="classboost_1_1graph__traits_3_01DGtal_1_1DigitalSurface_3_01TDigitalSurfaceContainer_01_4_01_4_1_1edge__iterator.html" target="_top" xlink:title="boost::graph_traits\l\&lt; DGtal::DigitalSurface\l\&lt; TDigitalSurfaceContainer\l \&gt; \&gt;::edge_iterator">
<polygon fill="#ffffff" stroke="#000000" points="135.1519,-342.5 135.1519,-390.5 271.313,-390.5 271.313,-342.5 135.1519,-342.5"/>
<text text-anchor="start" x="143.1519" y="-378.5" font-family="FreeSans" font-size="10.00" fill="#000000">boost::graph_traits</text>
<text text-anchor="start" x="143.1519" y="-368.5" font-family="FreeSans" font-size="10.00" fill="#000000">&lt; DGtal::DigitalSurface</text>
<text text-anchor="start" x="143.1519" y="-358.5" font-family="FreeSans" font-size="10.00" fill="#000000">&lt; TDigitalSurfaceContainer</text>
<text text-anchor="middle" x="203.2324" y="-348.5" font-family="FreeSans" font-size="10.00" fill="#000000"> &gt; &gt;::edge_iterator</text>
</a>
</g>
</g>
<!-- Node538&#45;&gt;Node540 -->
<g id="edge2" class="edge">
<title>Node538&#45;&gt;Node540</title>
<path fill="none" stroke="#191970" d="M48.4089,-227.1943C59.4825,-254.1952 83.3917,-304.0872 118.709,-333.5 123.672,-337.6333 129.2133,-341.289 135.0204,-344.5142"/>
<polygon fill="#191970" stroke="#191970" points="51.6091,-225.7689 44.6809,-217.7532 45.0983,-228.3398 51.6091,-225.7689"/>
</g>
<!-- Node541 -->
<g id="node4" class="node">
<title>Node541</title>
<g id="a_node4"><a xlink:href="classboost_1_1graph__traits_3_01DGtal_1_1DigitalSurface_3_01TDigitalSurfaceContainer_01_4_01_4_1_1out__edge__iterator.html" target="_top" xlink:title="boost::graph_traits\l\&lt; DGtal::DigitalSurface\l\&lt; TDigitalSurfaceContainer\l \&gt; \&gt;::out_edge_iterator">
<polygon fill="#ffffff" stroke="#000000" points="135.1519,-275.5 135.1519,-323.5 271.313,-323.5 271.313,-275.5 135.1519,-275.5"/>
<text text-anchor="start" x="143.1519" y="-311.5" font-family="FreeSans" font-size="10.00" fill="#000000">boost::graph_traits</text>
<text text-anchor="start" x="143.1519" y="-301.5" font-family="FreeSans" font-size="10.00" fill="#000000">&lt; DGtal::DigitalSurface</text>
<text text-anchor="start" x="143.1519" y="-291.5" font-family="FreeSans" font-size="10.00" fill="#000000">&lt; TDigitalSurfaceContainer</text>
<text text-anchor="middle" x="203.2324" y="-281.5" font-family="FreeSans" font-size="10.00" fill="#000000"> &gt; &gt;::out_edge_iterator</text>
</a>
</g>
</g>
<!-- Node538&#45;&gt;Node541 -->
<g id="edge3" class="edge">
<title>Node538&#45;&gt;Node541</title>
<path fill="none" stroke="#191970" d="M59.7184,-224.5329C74.8046,-237.1292 97.1297,-254.4918 118.709,-266.5 124.3527,-269.6406 130.3567,-272.6216 136.4608,-275.4137"/>
<polygon fill="#191970" stroke="#191970" points="61.6186,-221.5544 51.7328,-217.7437 57.0844,-226.8875 61.6186,-221.5544"/>
</g>
<!-- Node542 -->
<g id="node5" class="node">
<title>Node542</title>
<g id="a_node5"><a xlink:href="classboost_1_1graph__traits_3_01DGtal_1_1Object_3_01TDigitalTopology_00_01TDigitalSet_01_4_01_4_1_1edge__iterator.html" target="_top" xlink:title="boost::graph_traits\l\&lt; DGtal::Object\&lt; TDigitalTopology,\l TDigitalSet \&gt; \&gt;::edge_iterator">
<polygon fill="#ffffff" stroke="#000000" points="118.709,-218.5 118.709,-256.5 287.7559,-256.5 287.7559,-218.5 118.709,-218.5"/>
<text text-anchor="start" x="126.709" y="-244.5" font-family="FreeSans" font-size="10.00" fill="#000000">boost::graph_traits</text>
<text text-anchor="start" x="126.709" y="-234.5" font-family="FreeSans" font-size="10.00" fill="#000000">&lt; DGtal::Object&lt; TDigitalTopology,</text>
<text text-anchor="middle" x="203.2324" y="-224.5" font-family="FreeSans" font-size="10.00" fill="#000000"> TDigitalSet &gt; &gt;::edge_iterator</text>
</a>
</g>
</g>
<!-- Node538&#45;&gt;Node542 -->
<g id="edge4" class="edge">
<title>Node538&#45;&gt;Node542</title>
<path fill="none" stroke="#191970" d="M93.1085,-217.7716C101.2726,-219.2342 109.8942,-220.7787 118.5729,-222.3335"/>
<polygon fill="#191970" stroke="#191970" points="93.5026,-214.2865 83.0421,-215.9682 92.2682,-221.1769 93.5026,-214.2865"/>
</g>
<!-- Node543 -->
<g id="node6" class="node">
<title>Node543</title>
<g id="a_node6"><a xlink:href="classDGtal_1_1ArithmeticalDSL_1_1ConstIterator.html" target="_top" xlink:title="Aim: This class aims at representing an iterator that provides a way to scan the points of a DSL...">
<polygon fill="#ffffff" stroke="#000000" points="135.3398,-161.5 135.3398,-199.5 271.125,-199.5 271.125,-161.5 135.3398,-161.5"/>
<text text-anchor="start" x="143.3398" y="-187.5" font-family="FreeSans" font-size="10.00" fill="#000000">DGtal::ArithmeticalDSL</text>
<text text-anchor="start" x="143.3398" y="-177.5" font-family="FreeSans" font-size="10.00" fill="#000000">&lt; TCoordinate, TInteger,</text>
<text text-anchor="middle" x="203.2324" y="-167.5" font-family="FreeSans" font-size="10.00" fill="#000000"> adjacency &gt;::ConstIterator</text>
</a>
</g>
</g>
<!-- Node538&#45;&gt;Node543 -->
<g id="edge5" class="edge">
<title>Node538&#45;&gt;Node543</title>
<path fill="none" stroke="#191970" d="M93.0481,-199.5586C106.4884,-197.2338 121.1717,-194.694 135.3109,-192.2484"/>
<polygon fill="#191970" stroke="#191970" points="92.2992,-196.136 83.0421,-201.2893 93.4923,-203.0336 92.2992,-196.136"/>
</g>
<!-- Node544 -->
<g id="node7" class="node">
<title>Node544</title>
<g id="a_node7"><a xlink:href="classDGtal_1_1ArrayImageIterator.html" target="_top" xlink:title="Aim: Random access iterator over an image given his definition domain and viewable domain...">
<polygon fill="#ffffff" stroke="#000000" points="137.9912,-114.5 137.9912,-142.5 268.4736,-142.5 268.4736,-114.5 137.9912,-114.5"/>
<text text-anchor="start" x="145.9912" y="-130.5" font-family="FreeSans" font-size="10.00" fill="#000000">DGtal::ArrayImageIterator</text>
<text text-anchor="middle" x="203.2324" y="-120.5" font-family="FreeSans" font-size="10.00" fill="#000000">&lt; TIterableClass &gt;</text>
</a>
</g>
</g>
<!-- Node538&#45;&gt;Node544 -->
<g id="edge6" class="edge">
<title>Node538&#45;&gt;Node544</title>
<path fill="none" stroke="#191970" d="M59.5191,-192.5054C74.4922,-180.0513 96.7623,-163.1458 118.709,-152.5 126.5321,-148.7052 135.0618,-145.4104 143.5956,-142.5812"/>
<polygon fill="#191970" stroke="#191970" points="56.9502,-190.0957 51.604,-199.2427 61.4875,-195.4261 56.9502,-190.0957"/>
</g>
<!-- Node545 -->
<g id="node8" class="node">
<title>Node545</title>
<g id="a_node8"><a xlink:href="structDGtal_1_1CubicalComplex_1_1ConstIterator.html" target="_top" xlink:title="DGtal::CubicalComplex\l\&lt; TKSpace, TCellContainer\l \&gt;::ConstIterator">
<polygon fill="#ffffff" stroke="#000000" points="134.4072,-57.5 134.4072,-95.5 272.0576,-95.5 272.0576,-57.5 134.4072,-57.5"/>
<text text-anchor="start" x="142.4072" y="-83.5" font-family="FreeSans" font-size="10.00" fill="#000000">DGtal::CubicalComplex</text>
<text text-anchor="start" x="142.4072" y="-73.5" font-family="FreeSans" font-size="10.00" fill="#000000">&lt; TKSpace, TCellContainer</text>
<text text-anchor="middle" x="203.2324" y="-63.5" font-family="FreeSans" font-size="10.00" fill="#000000"> &gt;::ConstIterator</text>
</a>
</g>
</g>
<!-- Node538&#45;&gt;Node545 -->
<g id="edge7" class="edge">
<title>Node538&#45;&gt;Node545</title>
<path fill="none" stroke="#191970" d="M50.5321,-190.3512C62.9929,-167.4462 87.3524,-128.2945 118.709,-105.5 123.8539,-101.7599 129.5189,-98.474 135.4054,-95.5927"/>
<polygon fill="#191970" stroke="#191970" points="47.3579,-188.8675 45.7978,-199.3468 53.5524,-192.1276 47.3579,-188.8675"/>
</g>
<!-- Node546 -->
<g id="node9" class="node">
<title>Node546</title>
<g id="a_node9"><a xlink:href="structDGtal_1_1CubicalComplex_1_1Iterator.html" target="_top" xlink:title="DGtal::CubicalComplex\l\&lt; TKSpace, TCellContainer\l \&gt;::Iterator">
<polygon fill="#ffffff" stroke="#000000" points="134.4072,-.5 134.4072,-38.5 272.0576,-38.5 272.0576,-.5 134.4072,-.5"/>
<text text-anchor="start" x="142.4072" y="-26.5" font-family="FreeSans" font-size="10.00" fill="#000000">DGtal::CubicalComplex</text>
<text text-anchor="start" x="142.4072" y="-16.5" font-family="FreeSans" font-size="10.00" fill="#000000">&lt; TKSpace, TCellContainer</text>
<text text-anchor="middle" x="203.2324" y="-6.5" font-family="FreeSans" font-size="10.00" fill="#000000"> &gt;::Iterator</text>
</a>
</g>
</g>
<!-- Node538&#45;&gt;Node546 -->
<g id="edge8" class="edge">
<title>Node538&#45;&gt;Node546</title>
<path fill="none" stroke="#191970" d="M45.4375,-189.6098C53.5804,-156.3772 74.9484,-87.308 118.709,-48.5 123.3518,-44.3826 128.6073,-40.8439 134.1707,-37.8035"/>
<polygon fill="#191970" stroke="#191970" points="42.0142,-188.879 43.1697,-199.4106 48.834,-190.457 42.0142,-188.879"/>
</g>
</g>
</svg>
