<?xml version="1.0" encoding="UTF-8" standalone="no"?>
<!DOCTYPE svg PUBLIC "-//W3C//DTD SVG 1.1//EN"
 "http://www.w3.org/Graphics/SVG/1.1/DTD/svg11.dtd">
<!-- Generated by graphviz version 2.40.1 (20161225.0304)
 -->
<!-- Title: Graphical Class Hierarchy Pages: 1 -->
<svg width="302pt" height="1188pt"
 viewBox="0.00 0.00 302.25 1188.00" xmlns="http://www.w3.org/2000/svg" xmlns:xlink="http://www.w3.org/1999/xlink">
<g id="graph0" class="graph" transform="scale(1 1) rotate(0) translate(4 1184)">
<title>Graphical Class Hierarchy</title>
<polygon fill="#ffffff" stroke="transparent" points="-4,4 -4,-1184 298.2451,-1184 298.2451,4 -4,4"/>
<!-- Node44 -->
<g id="node1" class="node">
<title>Node44</title>
<polygon fill="#ffffff" stroke="#bfbfbf" points="0,-555.5 0,-573.5 81.6006,-573.5 81.6006,-555.5 0,-555.5"/>
<text text-anchor="middle" x="40.8003" y="-561.5" font-family="FreeSans" font-size="10.00" fill="#000000">unary_function</text>
</g>
<!-- Node0 -->
<g id="node2" class="node">
<title>Node0</title>
<g id="a_node2"><a xlink:href="classDGtal_1_1functors_1_1BackwardRigidTransformation2D.html" target="_top" xlink:title="DGtal::functors::Backward\lRigidTransformation2D\&lt;\l Space \&gt;">
<polygon fill="#ffffff" stroke="#000000" points="139.8467,-1141.5 139.8467,-1179.5 271.999,-1179.5 271.999,-1141.5 139.8467,-1141.5"/>
<text text-anchor="start" x="147.8467" y="-1167.5" font-family="FreeSans" font-size="10.00" fill="#000000">DGtal::functors::Backward</text>
<text text-anchor="start" x="147.8467" y="-1157.5" font-family="FreeSans" font-size="10.00" fill="#000000">RigidTransformation2D&lt;</text>
<text text-anchor="middle" x="205.9229" y="-1147.5" font-family="FreeSans" font-size="10.00" fill="#000000"> Space &gt;</text>
</a>
</g>
</g>
<!-- Node44&#45;&gt;Node0 -->
<g id="edge1" class="edge">
<title>Node44&#45;&gt;Node0</title>
<path fill="none" stroke="#8b1a1a" d="M42.1756,-583.6076C49.1092,-677.7394 81.3319,-1089.3613 117.6006,-1132.5 123.501,-1139.5181 131.1526,-1144.7991 139.4829,-1148.7686"/>
<polygon fill="#8b1a1a" stroke="#8b1a1a" points="45.6592,-583.255 41.4415,-573.5359 38.6778,-583.7639 45.6592,-583.255"/>
</g>
<!-- Node46 -->
<g id="node3" class="node">
<title>Node46</title>
<g id="a_node3"><a xlink:href="structDGtal_1_1functors_1_1Abs.html" target="_top" xlink:title="DGtal::functors::Abs\&lt; T \&gt;">
<polygon fill="#ffffff" stroke="#000000" points="141.6875,-1104.5 141.6875,-1122.5 270.1582,-1122.5 270.1582,-1104.5 141.6875,-1104.5"/>
<text text-anchor="middle" x="205.9229" y="-1110.5" font-family="FreeSans" font-size="10.00" fill="#000000">DGtal::functors::Abs&lt; T &gt;</text>
</a>
</g>
</g>
<!-- Node44&#45;&gt;Node46 -->
<g id="edge2" class="edge">
<title>Node44&#45;&gt;Node46</title>
<path fill="none" stroke="#191970" d="M42.289,-583.8576C49.4596,-674.8629 81.5725,-1057.3419 117.6006,-1095.5 124.154,-1102.4409 132.5991,-1107.096 141.6622,-1110.1606"/>
<polygon fill="#191970" stroke="#191970" points="45.774,-583.5278 41.5075,-573.83 38.7952,-584.0718 45.774,-583.5278"/>
</g>
<!-- Node47 -->
<g id="node4" class="node">
<title>Node47</title>
<g id="a_node4"><a xlink:href="classDGtal_1_1functors_1_1BackwardRigidTransformation2D.html" target="_top" xlink:title="Aim: implements backward rigid transformation of point in the 2D integer space. Warring: This version...">
<polygon fill="#ffffff" stroke="#000000" points="139.8467,-1047.5 139.8467,-1085.5 271.999,-1085.5 271.999,-1047.5 139.8467,-1047.5"/>
<text text-anchor="start" x="147.8467" y="-1073.5" font-family="FreeSans" font-size="10.00" fill="#000000">DGtal::functors::Backward</text>
<text text-anchor="start" x="147.8467" y="-1063.5" font-family="FreeSans" font-size="10.00" fill="#000000">RigidTransformation2D&lt;</text>
<text text-anchor="middle" x="205.9229" y="-1053.5" font-family="FreeSans" font-size="10.00" fill="#000000"> TSpace &gt;</text>
</a>
</g>
</g>
<!-- Node44&#45;&gt;Node47 -->
<g id="edge3" class="edge">
<title>Node44&#45;&gt;Node47</title>
<path fill="none" stroke="#8b1a1a" d="M41.3019,-583.5714C43.7732,-663.2259 57.1067,-968.4341 117.6006,-1038.5 123.5926,-1045.4401 131.2949,-1050.6778 139.6489,-1054.6272"/>
<polygon fill="#8b1a1a" stroke="#8b1a1a" points="44.7986,-583.4055 41.0117,-573.5106 37.8015,-583.6074 44.7986,-583.4055"/>
</g>
<!-- Node48 -->
<g id="node5" class="node">
<title>Node48</title>
<g id="a_node5"><a xlink:href="classDGtal_1_1functors_1_1BackwardRigidTransformation3D.html" target="_top" xlink:title="Aim: implements backward rigid transformation of point in 3D integer space around any arbitrary axis...">
<polygon fill="#ffffff" stroke="#000000" points="139.8467,-990.5 139.8467,-1028.5 271.999,-1028.5 271.999,-990.5 139.8467,-990.5"/>
<text text-anchor="start" x="147.8467" y="-1016.5" font-family="FreeSans" font-size="10.00" fill="#000000">DGtal::functors::Backward</text>
<text text-anchor="start" x="147.8467" y="-1006.5" font-family="FreeSans" font-size="10.00" fill="#000000">RigidTransformation3D&lt;</text>
<text text-anchor="middle" x="205.9229" y="-996.5" font-family="FreeSans" font-size="10.00" fill="#000000"> TSpace &gt;</text>
</a>
</g>
</g>
<!-- Node44&#45;&gt;Node48 -->
<g id="edge4" class="edge">
<title>Node44&#45;&gt;Node48</title>
<path fill="none" stroke="#8b1a1a" d="M41.792,-584.0524C45.9353,-658.2108 64.2047,-920.9829 117.6006,-981.5 123.6668,-988.3753 131.4104,-993.577 139.7835,-997.5097"/>
<polygon fill="#8b1a1a" stroke="#8b1a1a" points="45.2744,-583.6284 41.2451,-573.8297 38.2844,-584.0024 45.2744,-583.6284"/>
</g>
<!-- Node49 -->
<g id="node6" class="node">
<title>Node49</title>
<g id="a_node6"><a xlink:href="classDGtal_1_1functors_1_1ConstValue.html" target="_top" xlink:title="Aim: Define a simple functor that returns a constant value (0 by default). ">
<polygon fill="#ffffff" stroke="#000000" points="136.3188,-943.5 136.3188,-971.5 275.5269,-971.5 275.5269,-943.5 136.3188,-943.5"/>
<text text-anchor="start" x="144.3188" y="-959.5" font-family="FreeSans" font-size="10.00" fill="#000000">DGtal::functors::ConstValue</text>
<text text-anchor="middle" x="205.9229" y="-949.5" font-family="FreeSans" font-size="10.00" fill="#000000">&lt; TValue &gt;</text>
</a>
</g>
</g>
<!-- Node44&#45;&gt;Node49 -->
<g id="edge5" class="edge">
<title>Node44&#45;&gt;Node49</title>
<path fill="none" stroke="#8b1a1a" d="M42.1926,-584.1024C47.4808,-653.0397 68.5552,-882.9343 117.6006,-934.5 122.8422,-940.011 129.2233,-944.264 136.1323,-947.5369"/>
<polygon fill="#8b1a1a" stroke="#8b1a1a" points="45.6602,-583.5339 41.4309,-573.8198 38.6793,-584.0511 45.6602,-583.5339"/>
</g>
<!-- Node50 -->
<g id="node7" class="node">
<title>Node50</title>
<g id="a_node7"><a xlink:href="classDGtal_1_1functors_1_1ConstValueCell.html" target="_top" xlink:title="Aim: Define a simple functor that returns a constant quantity (0 by default). ">
<polygon fill="#ffffff" stroke="#000000" points="136.3188,-896.5 136.3188,-924.5 275.5269,-924.5 275.5269,-896.5 136.3188,-896.5"/>
<text text-anchor="start" x="144.3188" y="-912.5" font-family="FreeSans" font-size="10.00" fill="#000000">DGtal::functors::ConstValue</text>
<text text-anchor="middle" x="205.9229" y="-902.5" font-family="FreeSans" font-size="10.00" fill="#000000">Cell&lt; TQuantity, TCell &gt;</text>
</a>
</g>
</g>
<!-- Node44&#45;&gt;Node50 -->
<g id="edge6" class="edge">
<title>Node44&#45;&gt;Node50</title>
<path fill="none" stroke="#8b1a1a" d="M42.778,-583.6069C49.6292,-646.1535 74.3282,-843.2953 117.6006,-887.5 122.921,-892.935 129.3513,-897.1405 136.2883,-900.3864"/>
<polygon fill="#8b1a1a" stroke="#8b1a1a" points="46.2474,-583.1337 41.7059,-573.5616 39.287,-583.8766 46.2474,-583.1337"/>
</g>
<!-- Node51 -->
<g id="node8" class="node">
<title>Node51</title>
<g id="a_node8"><a xlink:href="classDGtal_1_1functors_1_1DomainRigidTransformation2D.html" target="_top" xlink:title="Aim: implements bounds of transformed domain. ">
<polygon fill="#ffffff" stroke="#000000" points="132.1978,-839.5 132.1978,-877.5 279.6479,-877.5 279.6479,-839.5 132.1978,-839.5"/>
<text text-anchor="start" x="140.1978" y="-865.5" font-family="FreeSans" font-size="10.00" fill="#000000">DGtal::functors::DomainRigid</text>
<text text-anchor="start" x="140.1978" y="-855.5" font-family="FreeSans" font-size="10.00" fill="#000000">Transformation2D&lt; TDomain,</text>
<text text-anchor="middle" x="205.9229" y="-845.5" font-family="FreeSans" font-size="10.00" fill="#000000"> TRigidTransformFunctor &gt;</text>
</a>
</g>
</g>
<!-- Node44&#45;&gt;Node51 -->
<g id="edge7" class="edge">
<title>Node44&#45;&gt;Node51</title>
<path fill="none" stroke="#8b1a1a" d="M43.9287,-583.6318C53.2464,-638.4278 82.3684,-794.3426 117.6006,-830.5 121.8665,-834.8779 126.812,-838.5731 132.1414,-841.6917"/>
<polygon fill="#8b1a1a" stroke="#8b1a1a" points="47.3451,-582.8403 42.2459,-573.5532 40.4407,-583.9931 47.3451,-582.8403"/>
</g>
<!-- Node52 -->
<g id="node9" class="node">
<title>Node52</title>
<g id="a_node9"><a xlink:href="classDGtal_1_1functors_1_1DomainRigidTransformation3D.html" target="_top" xlink:title="Aim: implements bounds of transformed domain. ">
<polygon fill="#ffffff" stroke="#000000" points="132.1978,-782.5 132.1978,-820.5 279.6479,-820.5 279.6479,-782.5 132.1978,-782.5"/>
<text text-anchor="start" x="140.1978" y="-808.5" font-family="FreeSans" font-size="10.00" fill="#000000">DGtal::functors::DomainRigid</text>
<text text-anchor="start" x="140.1978" y="-798.5" font-family="FreeSans" font-size="10.00" fill="#000000">Transformation3D&lt; TDomain,</text>
<text text-anchor="middle" x="205.9229" y="-788.5" font-family="FreeSans" font-size="10.00" fill="#000000"> TRigidTransformFunctor &gt;</text>
</a>
</g>
</g>
<!-- Node44&#45;&gt;Node52 -->
<g id="edge8" class="edge">
<title>Node44&#45;&gt;Node52</title>
<path fill="none" stroke="#8b1a1a" d="M42.3248,-583.7237C46.5981,-624.5808 62.2903,-720.6323 117.6006,-773.5 121.903,-777.6125 126.8068,-781.121 132.0482,-784.1144"/>
<polygon fill="#8b1a1a" stroke="#8b1a1a" points="45.7889,-583.1732 41.3824,-573.5382 38.8187,-583.8182 45.7889,-583.1732"/>
</g>
<!-- Node53 -->
<g id="node10" class="node">
<title>Node53</title>
<g id="a_node10"><a xlink:href="classDGtal_1_1functors_1_1ForwardRigidTransformation2D.html" target="_top" xlink:title="Aim: implements forward rigid transformation of point in the 2D integer space. Warring: This version ...">
<polygon fill="#ffffff" stroke="#000000" points="143.4624,-725.5 143.4624,-763.5 268.3833,-763.5 268.3833,-725.5 143.4624,-725.5"/>
<text text-anchor="start" x="151.4624" y="-751.5" font-family="FreeSans" font-size="10.00" fill="#000000">DGtal::functors::Forward</text>
<text text-anchor="start" x="151.4624" y="-741.5" font-family="FreeSans" font-size="10.00" fill="#000000">RigidTransformation2D</text>
<text text-anchor="middle" x="205.9229" y="-731.5" font-family="FreeSans" font-size="10.00" fill="#000000">&lt; TSpace &gt;</text>
</a>
</g>
</g>
<!-- Node44&#45;&gt;Node53 -->
<g id="edge9" class="edge">
<title>Node44&#45;&gt;Node53</title>
<path fill="none" stroke="#8b1a1a" d="M45.237,-583.4281C53.7255,-615.4929 75.2994,-680.5092 117.6006,-716.5 125.074,-722.8585 134.0006,-727.7766 143.2635,-731.5797"/>
<polygon fill="#8b1a1a" stroke="#8b1a1a" points="48.591,-582.4132 42.7677,-573.5622 41.8005,-584.1128 48.591,-582.4132"/>
</g>
<!-- Node54 -->
<g id="node11" class="node">
<title>Node54</title>
<g id="a_node11"><a xlink:href="classDGtal_1_1functors_1_1ForwardRigidTransformation3D.html" target="_top" xlink:title="Aim: implements forward rigid transformation of point in 3D integer space around any arbitrary axis...">
<polygon fill="#ffffff" stroke="#000000" points="143.4624,-668.5 143.4624,-706.5 268.3833,-706.5 268.3833,-668.5 143.4624,-668.5"/>
<text text-anchor="start" x="151.4624" y="-694.5" font-family="FreeSans" font-size="10.00" fill="#000000">DGtal::functors::Forward</text>
<text text-anchor="start" x="151.4624" y="-684.5" font-family="FreeSans" font-size="10.00" fill="#000000">RigidTransformation3D</text>
<text text-anchor="middle" x="205.9229" y="-674.5" font-family="FreeSans" font-size="10.00" fill="#000000">&lt; TSpace &gt;</text>
</a>
</g>
</g>
<!-- Node44&#45;&gt;Node54 -->
<g id="edge10" class="edge">
<title>Node44&#45;&gt;Node54</title>
<path fill="none" stroke="#8b1a1a" d="M50.7085,-582.2639C63.4893,-603.6029 87.6762,-639.0729 117.6006,-659.5 125.4391,-664.8507 134.3558,-669.2224 143.4375,-672.782"/>
<polygon fill="#8b1a1a" stroke="#8b1a1a" points="53.7042,-580.4527 45.6592,-573.5586 47.6491,-583.9649 53.7042,-580.4527"/>
</g>
<!-- Node55 -->
<g id="node12" class="node">
<title>Node55</title>
<g id="a_node12"><a xlink:href="classDGtal_1_1functors_1_1IntervalThresholder.html" target="_top" xlink:title="Aim: A small functor with an operator () that compares one value to an interval. ">
<polygon fill="#ffffff" stroke="#000000" points="145.4033,-621.5 145.4033,-649.5 266.4424,-649.5 266.4424,-621.5 145.4033,-621.5"/>
<text text-anchor="start" x="153.4033" y="-637.5" font-family="FreeSans" font-size="10.00" fill="#000000">DGtal::functors::Interval</text>
<text text-anchor="middle" x="205.9229" y="-627.5" font-family="FreeSans" font-size="10.00" fill="#000000">Thresholder&lt; T &gt;</text>
</a>
</g>
</g>
<!-- Node44&#45;&gt;Node55 -->
<g id="edge11" class="edge">
<title>Node44&#45;&gt;Node55</title>
<path fill="none" stroke="#191970" d="M61.1134,-579.5963C76.0745,-590.1023 97.2704,-603.7441 117.6006,-612.5 126.3323,-616.2606 135.8227,-619.5218 145.2365,-622.3112"/>
<polygon fill="#191970" stroke="#191970" points="62.8315,-576.5212 52.6671,-573.5318 58.7488,-582.2073 62.8315,-576.5212"/>
</g>
<!-- Node56 -->
<g id="node13" class="node">
<title>Node56</title>
<g id="a_node13"><a xlink:href="structDGtal_1_1functors_1_1Lambda64Function.html" target="_top" xlink:title="DGtal::functors::Lambda64\lFunction">
<polygon fill="#ffffff" stroke="#000000" points="138.1694,-574.5 138.1694,-602.5 273.6763,-602.5 273.6763,-574.5 138.1694,-574.5"/>
<text text-anchor="start" x="146.1694" y="-590.5" font-family="FreeSans" font-size="10.00" fill="#000000">DGtal::functors::Lambda64</text>
<text text-anchor="middle" x="205.9229" y="-580.5" font-family="FreeSans" font-size="10.00" fill="#000000">Function</text>
</a>
</g>
</g>
<!-- Node44&#45;&gt;Node56 -->
<g id="edge12" class="edge">
<title>Node44&#45;&gt;Node56</title>
<path fill="none" stroke="#191970" d="M91.9126,-571.929C106.4676,-574.0445 122.5558,-576.3829 137.9458,-578.6198"/>
<polygon fill="#191970" stroke="#191970" points="92.0166,-568.4074 81.6171,-570.4326 91.0097,-575.3346 92.0166,-568.4074"/>
</g>
<!-- Node57 -->
<g id="node14" class="node">
<title>Node57</title>
<g id="a_node14"><a xlink:href="structDGtal_1_1functors_1_1LambdaExponentialFunction.html" target="_top" xlink:title="DGtal::functors::LambdaExponential\lFunction">
<polygon fill="#ffffff" stroke="#000000" points="117.6006,-527.5 117.6006,-555.5 294.2451,-555.5 294.2451,-527.5 117.6006,-527.5"/>
<text text-anchor="start" x="125.6006" y="-543.5" font-family="FreeSans" font-size="10.00" fill="#000000">DGtal::functors::LambdaExponential</text>
<text text-anchor="middle" x="205.9229" y="-533.5" font-family="FreeSans" font-size="10.00" fill="#000000">Function</text>
</a>
</g>
</g>
<!-- Node44&#45;&gt;Node57 -->
<g id="edge13" class="edge">
<title>Node44&#45;&gt;Node57</title>
<path fill="none" stroke="#191970" d="M91.7221,-557.4071C99.9312,-556.2636 108.632,-555.0517 117.4231,-553.8272"/>
<polygon fill="#191970" stroke="#191970" points="91.0386,-553.9684 81.6171,-558.8146 92.0044,-560.9015 91.0386,-553.9684"/>
</g>
<!-- Node58 -->
<g id="node15" class="node">
<title>Node58</title>
<g id="a_node15"><a xlink:href="structDGtal_1_1functors_1_1LambdaSinFromPiFunction.html" target="_top" xlink:title="DGtal::functors::LambdaSin\lFromPiFunction">
<polygon fill="#ffffff" stroke="#000000" points="136.5044,-480.5 136.5044,-508.5 275.3413,-508.5 275.3413,-480.5 136.5044,-480.5"/>
<text text-anchor="start" x="144.5044" y="-496.5" font-family="FreeSans" font-size="10.00" fill="#000000">DGtal::functors::LambdaSin</text>
<text text-anchor="middle" x="205.9229" y="-486.5" font-family="FreeSans" font-size="10.00" fill="#000000">FromPiFunction</text>
</a>
</g>
</g>
<!-- Node44&#45;&gt;Node58 -->
<g id="edge14" class="edge">
<title>Node44&#45;&gt;Node58</title>
<path fill="none" stroke="#191970" d="M62.0347,-549.6089C77.0015,-539.6668 97.824,-526.9195 117.6006,-518.5 126.3726,-514.7655 135.8844,-511.4632 145.3074,-508.5956"/>
<polygon fill="#191970" stroke="#191970" points="59.8466,-546.8638 53.5343,-555.3729 63.7752,-552.6575 59.8466,-546.8638"/>
</g>
<!-- Node59 -->
<g id="node16" class="node">
<title>Node59</title>
<g id="a_node16"><a xlink:href="structDGtal_1_1functors_1_1MultiplicationByScalar.html" target="_top" xlink:title="DGtal::functors::Multiplication\lByScalar\&lt; T \&gt;">
<polygon fill="#ffffff" stroke="#000000" points="132.8984,-433.5 132.8984,-461.5 278.9473,-461.5 278.9473,-433.5 132.8984,-433.5"/>
<text text-anchor="start" x="140.8984" y="-449.5" font-family="FreeSans" font-size="10.00" fill="#000000">DGtal::functors::Multiplication</text>
<text text-anchor="middle" x="205.9229" y="-439.5" font-family="FreeSans" font-size="10.00" fill="#000000">ByScalar&lt; T &gt;</text>
</a>
</g>
</g>
<!-- Node44&#45;&gt;Node59 -->
<g id="edge15" class="edge">
<title>Node44&#45;&gt;Node59</title>
<path fill="none" stroke="#191970" d="M50.8582,-546.5869C63.6442,-525.4634 87.6929,-490.7933 117.6006,-471.5 123.6092,-467.6239 130.2345,-464.3688 137.074,-461.6364"/>
<polygon fill="#191970" stroke="#191970" points="47.8271,-544.8369 45.7956,-555.2351 53.8681,-548.3733 47.8271,-544.8369"/>
</g>
<!-- Node60 -->
<g id="node17" class="node">
<title>Node60</title>
<g id="a_node17"><a xlink:href="classDGtal_1_1functors_1_1Thresholder.html" target="_top" xlink:title="Aim: A small functor with an operator () that compares one value to a threshold value according to tw...">
<polygon fill="#ffffff" stroke="#000000" points="135.1201,-386.5 135.1201,-414.5 276.7256,-414.5 276.7256,-386.5 135.1201,-386.5"/>
<text text-anchor="start" x="143.1201" y="-402.5" font-family="FreeSans" font-size="10.00" fill="#000000">DGtal::functors::Thresholder</text>
<text text-anchor="middle" x="205.9229" y="-392.5" font-family="FreeSans" font-size="10.00" fill="#000000">&lt; T, isLower, isEqual &gt;</text>
</a>
</g>
</g>
<!-- Node44&#45;&gt;Node60 -->
<g id="edge16" class="edge">
<title>Node44&#45;&gt;Node60</title>
<path fill="none" stroke="#191970" d="M45.9116,-545.6128C55.0853,-515.375 77.2571,-456.278 117.6006,-424.5 122.8432,-420.3705 128.7429,-416.9499 134.943,-414.1169"/>
<polygon fill="#191970" stroke="#191970" points="42.5135,-544.7653 43.1103,-555.3433 49.2403,-546.7019 42.5135,-544.7653"/>
</g>
<!-- Node61 -->
<g id="node18" class="node">
<title>Node61</title>
<g id="a_node18"><a xlink:href="structDGtal_1_1functors_1_1Thresholder_3_01T_00_01false_00_01false_01_4.html" target="_top" xlink:title="DGtal::functors::Thresholder\l\&lt; T, false, false \&gt;">
<polygon fill="#ffffff" stroke="#000000" points="135.1201,-339.5 135.1201,-367.5 276.7256,-367.5 276.7256,-339.5 135.1201,-339.5"/>
<text text-anchor="start" x="143.1201" y="-355.5" font-family="FreeSans" font-size="10.00" fill="#000000">DGtal::functors::Thresholder</text>
<text text-anchor="middle" x="205.9229" y="-345.5" font-family="FreeSans" font-size="10.00" fill="#000000">&lt; T, false, false &gt;</text>
</a>
</g>
</g>
<!-- Node44&#45;&gt;Node61 -->
<g id="edge17" class="edge">
<title>Node44&#45;&gt;Node61</title>
<path fill="none" stroke="#191970" d="M43.0779,-545.3312C48.6172,-507.4491 66.3346,-422.7561 117.6006,-377.5 122.7229,-372.9782 128.6163,-369.2983 134.8772,-366.3051"/>
<polygon fill="#191970" stroke="#191970" points="39.5759,-545.1151 41.7261,-555.4894 46.5147,-546.0386 39.5759,-545.1151"/>
</g>
<!-- Node62 -->
<g id="node19" class="node">
<title>Node62</title>
<g id="a_node19"><a xlink:href="structDGtal_1_1functors_1_1Thresholder_3_01T_00_01false_00_01true_01_4.html" target="_top" xlink:title="DGtal::functors::Thresholder\l\&lt; T, false, true \&gt;">
<polygon fill="#ffffff" stroke="#000000" points="135.1201,-292.5 135.1201,-320.5 276.7256,-320.5 276.7256,-292.5 135.1201,-292.5"/>
<text text-anchor="start" x="143.1201" y="-308.5" font-family="FreeSans" font-size="10.00" fill="#000000">DGtal::functors::Thresholder</text>
<text text-anchor="middle" x="205.9229" y="-298.5" font-family="FreeSans" font-size="10.00" fill="#000000">&lt; T, false, true &gt;</text>
</a>
</g>
</g>
<!-- Node44&#45;&gt;Node62 -->
<g id="edge18" class="edge">
<title>Node44&#45;&gt;Node62</title>
<path fill="none" stroke="#191970" d="M44.5886,-545.6448C55.0074,-495.575 85.459,-361.0182 117.6006,-330.5 122.6707,-325.686 128.6071,-321.8178 134.9622,-318.7125"/>
<polygon fill="#191970" stroke="#191970" points="41.1532,-544.9751 42.5764,-555.4739 48.011,-546.3791 41.1532,-544.9751"/>
</g>
<!-- Node63 -->
<g id="node20" class="node">
<title>Node63</title>
<g id="a_node20"><a xlink:href="structDGtal_1_1functors_1_1Thresholder_3_01T_00_01true_00_01false_01_4.html" target="_top" xlink:title="DGtal::functors::Thresholder\l\&lt; T, true, false \&gt;">
<polygon fill="#ffffff" stroke="#000000" points="135.1201,-245.5 135.1201,-273.5 276.7256,-273.5 276.7256,-245.5 135.1201,-245.5"/>
<text text-anchor="start" x="143.1201" y="-261.5" font-family="FreeSans" font-size="10.00" fill="#000000">DGtal::functors::Thresholder</text>
<text text-anchor="middle" x="205.9229" y="-251.5" font-family="FreeSans" font-size="10.00" fill="#000000">&lt; T, true, false &gt;</text>
</a>
</g>
</g>
<!-- Node44&#45;&gt;Node63 -->
<g id="edge19" class="edge">
<title>Node44&#45;&gt;Node63</title>
<path fill="none" stroke="#191970" d="M43.5327,-545.3515C52.0401,-488.3322 79.7672,-321.2778 117.6006,-283.5 122.5479,-278.5599 128.4038,-274.609 134.7097,-271.4531"/>
<polygon fill="#191970" stroke="#191970" points="40.0338,-545.0902 42.0511,-555.4912 46.9603,-546.1024 40.0338,-545.0902"/>
</g>
<!-- Node64 -->
<g id="node21" class="node">
<title>Node64</title>
<g id="a_node21"><a xlink:href="structDGtal_1_1functors_1_1Thresholder_3_01T_00_01true_00_01true_01_4.html" target="_top" xlink:title="DGtal::functors::Thresholder\l\&lt; T, true, true \&gt;">
<polygon fill="#ffffff" stroke="#000000" points="135.1201,-198.5 135.1201,-226.5 276.7256,-226.5 276.7256,-198.5 135.1201,-198.5"/>
<text text-anchor="start" x="143.1201" y="-214.5" font-family="FreeSans" font-size="10.00" fill="#000000">DGtal::functors::Thresholder</text>
<text text-anchor="middle" x="205.9229" y="-204.5" font-family="FreeSans" font-size="10.00" fill="#000000">&lt; T, true, true &gt;</text>
</a>
</g>
</g>
<!-- Node44&#45;&gt;Node64 -->
<g id="edge20" class="edge">
<title>Node44&#45;&gt;Node64</title>
<path fill="none" stroke="#191970" d="M42.753,-545.1185C49.5261,-481.6697 74.0091,-281.659 117.6006,-236.5 122.5666,-231.3554 128.5158,-227.2779 134.9491,-224.0513"/>
<polygon fill="#191970" stroke="#191970" points="39.2465,-545.0001 41.6938,-555.3084 46.209,-545.7239 39.2465,-545.0001"/>
</g>
<!-- Node65 -->
<g id="node22" class="node">
<title>Node65</title>
<g id="a_node22"><a xlink:href="structDGtal_1_1functors_1_1UnaryMinus.html" target="_top" xlink:title="DGtal::functors::UnaryMinus\&lt; T \&gt;">
<polygon fill="#ffffff" stroke="#000000" points="123.6284,-161.5 123.6284,-179.5 288.2173,-179.5 288.2173,-161.5 123.6284,-161.5"/>
<text text-anchor="middle" x="205.9229" y="-167.5" font-family="FreeSans" font-size="10.00" fill="#000000">DGtal::functors::UnaryMinus&lt; T &gt;</text>
</a>
</g>
</g>
<!-- Node44&#45;&gt;Node65 -->
<g id="edge21" class="edge">
<title>Node44&#45;&gt;Node65</title>
<path fill="none" stroke="#191970" d="M42.0438,-545.0162C46.883,-475.4665 66.7692,-240.8363 117.6006,-189.5 121.5734,-185.4877 126.1755,-182.2281 131.1513,-179.5889"/>
<polygon fill="#191970" stroke="#191970" points="38.5271,-545.1506 41.352,-555.3619 45.5115,-545.6178 38.5271,-545.1506"/>
</g>
<!-- Node66 -->
<g id="node23" class="node">
<title>Node66</title>
<g id="a_node23"><a xlink:href="classDGtal_1_1functors_1_1DomainRigidTransformation2D.html" target="_top" xlink:title="DGtal::functors::DomainRigid\lTransformation2D\&lt; Domain,\l ForwardTrans \&gt;">
<polygon fill="#ffffff" stroke="#000000" points="133.1768,-104.5 133.1768,-142.5 278.6689,-142.5 278.6689,-104.5 133.1768,-104.5"/>
<text text-anchor="start" x="141.1768" y="-130.5" font-family="FreeSans" font-size="10.00" fill="#000000">DGtal::functors::DomainRigid</text>
<text text-anchor="start" x="141.1768" y="-120.5" font-family="FreeSans" font-size="10.00" fill="#000000">Transformation2D&lt; Domain,</text>
<text text-anchor="middle" x="205.9229" y="-110.5" font-family="FreeSans" font-size="10.00" fill="#000000"> ForwardTrans &gt;</text>
</a>
</g>
</g>
<!-- Node44&#45;&gt;Node66 -->
<g id="edge22" class="edge">
<title>Node44&#45;&gt;Node66</title>
<path fill="none" stroke="#8b1a1a" d="M41.8452,-545.1967C46.1826,-471.9808 65.0663,-212.5285 117.6006,-152.5 121.9584,-147.5206 127.1858,-143.3922 132.8925,-139.9701"/>
<polygon fill="#8b1a1a" stroke="#8b1a1a" points="38.3448,-545.1066 41.2711,-555.2893 45.3335,-545.5043 38.3448,-545.1066"/>
</g>
<!-- Node67 -->
<g id="node24" class="node">
<title>Node67</title>
<g id="a_node24"><a xlink:href="classDGtal_1_1functors_1_1ForwardRigidTransformation2D.html" target="_top" xlink:title="DGtal::functors::Forward\lRigidTransformation2D\l\&lt; Space \&gt;">
<polygon fill="#ffffff" stroke="#000000" points="143.4624,-47.5 143.4624,-85.5 268.3833,-85.5 268.3833,-47.5 143.4624,-47.5"/>
<text text-anchor="start" x="151.4624" y="-73.5" font-family="FreeSans" font-size="10.00" fill="#000000">DGtal::functors::Forward</text>
<text text-anchor="start" x="151.4624" y="-63.5" font-family="FreeSans" font-size="10.00" fill="#000000">RigidTransformation2D</text>
<text text-anchor="middle" x="205.9229" y="-53.5" font-family="FreeSans" font-size="10.00" fill="#000000">&lt; Space &gt;</text>
</a>
</g>
</g>
<!-- Node44&#45;&gt;Node67 -->
<g id="edge23" class="edge">
<title>Node44&#45;&gt;Node67</title>
<path fill="none" stroke="#8b1a1a" d="M41.3676,-545.1341C44.0773,-465.5943 58.154,-164.9524 117.6006,-95.5 124.4221,-87.5303 133.4736,-81.7381 143.1828,-77.5315"/>
<polygon fill="#8b1a1a" stroke="#8b1a1a" points="37.8669,-545.1049 41.0463,-555.2114 44.8633,-545.328 37.8669,-545.1049"/>
</g>
<!-- Node68 -->
<g id="node25" class="node">
<title>Node68</title>
<g id="a_node25"><a xlink:href="classDGtal_1_1functors_1_1Thresholder.html" target="_top" xlink:title="DGtal::functors::Thresholder\l\&lt; ResultInteger, false, false \&gt;">
<polygon fill="#ffffff" stroke="#000000" points="133.1597,-.5 133.1597,-28.5 278.686,-28.5 278.686,-.5 133.1597,-.5"/>
<text text-anchor="start" x="141.1597" y="-16.5" font-family="FreeSans" font-size="10.00" fill="#000000">DGtal::functors::Thresholder</text>
<text text-anchor="middle" x="205.9229" y="-6.5" font-family="FreeSans" font-size="10.00" fill="#000000">&lt; ResultInteger, false, false &gt;</text>
</a>
</g>
</g>
<!-- Node44&#45;&gt;Node68 -->
<g id="edge24" class="edge">
<title>Node44&#45;&gt;Node68</title>
<path fill="none" stroke="#191970" d="M42.3781,-545.0968C49.8959,-454.6728 83.147,-77.3709 117.6006,-38.5 121.9219,-33.6247 127.1245,-29.6953 132.8153,-26.5341"/>
<polygon fill="#191970" stroke="#191970" points="38.872,-545.0278 41.5399,-555.2812 45.8484,-545.6021 38.872,-545.0278"/>
</g>
</g>
</svg>
