<?xml version="1.0" encoding="UTF-8" standalone="no"?>
<!DOCTYPE svg PUBLIC "-//W3C//DTD SVG 1.1//EN"
 "http://www.w3.org/Graphics/SVG/1.1/DTD/svg11.dtd">
<!-- Generated by graphviz version 2.40.1 (20161225.0304)
 -->
<!-- Title: Graphical Class Hierarchy Pages: 1 -->
<svg width="306pt" height="178pt"
 viewBox="0.00 0.00 306.48 178.00" xmlns="http://www.w3.org/2000/svg" xmlns:xlink="http://www.w3.org/1999/xlink">
<g id="graph0" class="graph" transform="scale(1 1) rotate(0) translate(4 174)">
<title>Graphical Class Hierarchy</title>
<polygon fill="#ffffff" stroke="transparent" points="-4,4 -4,-174 302.4834,-174 302.4834,4 -4,4"/>
<!-- Node842 -->
<g id="node1" class="node">
<title>Node842</title>
<g id="a_node1"><a xlink:href="classDGtal_1_1Display3D.html" target="_top" xlink:title="Aim: This semi abstract class defines the stream mechanism to display 3d primitive (like BallVector...">
<polygon fill="#ffffff" stroke="#000000" points="0,-94.5 0,-122.5 132.4404,-122.5 132.4404,-94.5 0,-94.5"/>
<text text-anchor="start" x="8" y="-110.5" font-family="FreeSans" font-size="10.00" fill="#000000">DGtal::Display3D&lt; Space,</text>
<text text-anchor="middle" x="66.2202" y="-100.5" font-family="FreeSans" font-size="10.00" fill="#000000"> KSpace &gt;</text>
</a>
</g>
</g>
<!-- Node843 -->
<g id="node2" class="node">
<title>Node843</title>
<g id="a_node2"><a xlink:href="classDGtal_1_1Board3D.html" target="_top" xlink:title="The class Board3D is a type of Display3D which export the figures in the format OBJ/MTL when calling ...">
<polygon fill="#ffffff" stroke="#000000" points="170.2935,-141.5 170.2935,-169.5 296.6304,-169.5 296.6304,-141.5 170.2935,-141.5"/>
<text text-anchor="start" x="178.2935" y="-157.5" font-family="FreeSans" font-size="10.00" fill="#000000">DGtal::Board3D&lt; Space,</text>
<text text-anchor="middle" x="233.4619" y="-147.5" font-family="FreeSans" font-size="10.00" fill="#000000"> KSpace &gt;</text>
</a>
</g>
</g>
<!-- Node842&#45;&gt;Node843 -->
<g id="edge1" class="edge">
<title>Node842&#45;&gt;Node843</title>
<path fill="none" stroke="#191970" d="M126.0728,-125.3204C144.9229,-130.6179 165.5305,-136.4092 183.6077,-141.4894"/>
<polygon fill="#191970" stroke="#191970" points="126.9723,-121.9376 116.3982,-122.6015 125.0784,-128.6766 126.9723,-121.9376"/>
</g>
<!-- Node844 -->
<g id="node3" class="node">
<title>Node844</title>
<g id="a_node3"><a xlink:href="classDGtal_1_1Board3DTo2D.html" target="_top" xlink:title="Class for PDF, PNG, PS, EPS, SVG export drawings with Cairo with 3D&#45;&gt;2D projection. ">
<polygon fill="#ffffff" stroke="#000000" points="178.4966,-94.5 178.4966,-122.5 288.4272,-122.5 288.4272,-94.5 178.4966,-94.5"/>
<text text-anchor="start" x="186.4966" y="-110.5" font-family="FreeSans" font-size="10.00" fill="#000000">DGtal::Board3DTo2D</text>
<text text-anchor="middle" x="233.4619" y="-100.5" font-family="FreeSans" font-size="10.00" fill="#000000">&lt; Space, KSpace &gt;</text>
</a>
</g>
</g>
<!-- Node842&#45;&gt;Node844 -->
<g id="edge2" class="edge">
<title>Node842&#45;&gt;Node844</title>
<path fill="none" stroke="#191970" d="M142.8118,-108.5C154.8123,-108.5 167.0071,-108.5 178.3985,-108.5"/>
<polygon fill="#191970" stroke="#191970" points="142.7991,-105.0001 132.7991,-108.5 142.7991,-112.0001 142.7991,-105.0001"/>
</g>
<!-- Node0 -->
<g id="node4" class="node">
<title>Node0</title>
<g id="a_node4"><a xlink:href="classDGtal_1_1Viewer3D.html" target="_top" xlink:title="DGtal::Viewer3D\&lt; Space,\l KSpace \&gt;">
<polygon fill="#ffffff" stroke="#000000" points="168.4404,-47.5 168.4404,-75.5 298.4834,-75.5 298.4834,-47.5 168.4404,-47.5"/>
<text text-anchor="start" x="176.4404" y="-63.5" font-family="FreeSans" font-size="10.00" fill="#000000">DGtal::Viewer3D&lt; Space,</text>
<text text-anchor="middle" x="233.4619" y="-53.5" font-family="FreeSans" font-size="10.00" fill="#000000"> KSpace &gt;</text>
</a>
</g>
</g>
<!-- Node842&#45;&gt;Node0 -->
<g id="edge3" class="edge">
<title>Node842&#45;&gt;Node0</title>
<path fill="none" stroke="#191970" d="M126.0728,-91.6796C144.9229,-86.3821 165.5305,-80.5908 183.6077,-75.5106"/>
<polygon fill="#191970" stroke="#191970" points="125.0784,-88.3234 116.3982,-94.3985 126.9723,-95.0624 125.0784,-88.3234"/>
</g>
<!-- Node841 -->
<g id="node5" class="node">
<title>Node841</title>
<g id="a_node5"><a xlink:href="classDGtal_1_1Display3D.html" target="_top" xlink:title="DGtal::Display3D\&lt; DGtal\l::SpaceND, KSpace \&gt;">
<polygon fill="#ffffff" stroke="#000000" points="2.7856,-.5 2.7856,-28.5 129.6548,-28.5 129.6548,-.5 2.7856,-.5"/>
<text text-anchor="start" x="10.7856" y="-16.5" font-family="FreeSans" font-size="10.00" fill="#000000">DGtal::Display3D&lt; DGtal</text>
<text text-anchor="middle" x="66.2202" y="-6.5" font-family="FreeSans" font-size="10.00" fill="#000000">::SpaceND, KSpace &gt;</text>
</a>
</g>
</g>
<!-- Node277 -->
<g id="node6" class="node">
<title>Node277</title>
<g id="a_node6"><a xlink:href="classDGtal_1_1Viewer3D.html" target="_top" xlink:title="DGtal::Viewer3D\&lt; DGtal\l::SpaceND, KSpace \&gt;">
<polygon fill="#ffffff" stroke="#000000" points="171.2261,-.5 171.2261,-28.5 295.6978,-28.5 295.6978,-.5 171.2261,-.5"/>
<text text-anchor="start" x="179.2261" y="-16.5" font-family="FreeSans" font-size="10.00" fill="#000000">DGtal::Viewer3D&lt; DGtal</text>
<text text-anchor="middle" x="233.4619" y="-6.5" font-family="FreeSans" font-size="10.00" fill="#000000">::SpaceND, KSpace &gt;</text>
</a>
</g>
</g>
<!-- Node841&#45;&gt;Node277 -->
<g id="edge4" class="edge">
<title>Node841&#45;&gt;Node277</title>
<path fill="none" stroke="#191970" d="M140.1459,-14.5C150.4576,-14.5 160.9687,-14.5 171.0405,-14.5"/>
<polygon fill="#191970" stroke="#191970" points="139.9243,-11.0001 129.9242,-14.5 139.9242,-18.0001 139.9243,-11.0001"/>
</g>
<!-- Node275 -->
<g id="node7" class="node">
<title>Node275</title>
<polygon fill="#ffffff" stroke="#bfbfbf" points="32.8345,-50.5 32.8345,-68.5 99.606,-68.5 99.606,-50.5 32.8345,-50.5"/>
<text text-anchor="middle" x="66.2202" y="-56.5" font-family="FreeSans" font-size="10.00" fill="#000000">QGLViewer</text>
</g>
<!-- Node275&#45;&gt;Node0 -->
<g id="edge5" class="edge">
<title>Node275&#45;&gt;Node0</title>
<path fill="none" stroke="#191970" d="M109.7652,-60.0207C127.6094,-60.2341 148.6424,-60.4857 168.2538,-60.7202"/>
<polygon fill="#191970" stroke="#191970" points="109.7033,-56.5198 99.6621,-59.8999 109.6195,-63.5193 109.7033,-56.5198"/>
</g>
<!-- Node275&#45;&gt;Node277 -->
<g id="edge6" class="edge">
<title>Node275&#45;&gt;Node277</title>
<path fill="none" stroke="#191970" d="M109.3747,-47.8884C131.3327,-41.9801 158.1962,-34.7519 181.306,-28.5337"/>
<polygon fill="#191970" stroke="#191970" points="108.4092,-44.5236 99.6621,-50.5017 110.2281,-51.2831 108.4092,-44.5236"/>
</g>
</g>
</svg>
