<?xml version="1.0" encoding="UTF-8" standalone="no"?>
<!DOCTYPE svg PUBLIC "-//W3C//DTD SVG 1.1//EN"
 "http://www.w3.org/Graphics/SVG/1.1/DTD/svg11.dtd">
<!-- Generated by graphviz version 2.40.1 (20161225.0304)
 -->
<!-- Title: Graphical Class Hierarchy Pages: 1 -->
<svg width="253pt" height="47pt"
 viewBox="0.00 0.00 252.74 47.00" xmlns="http://www.w3.org/2000/svg" xmlns:xlink="http://www.w3.org/1999/xlink">
<g id="graph0" class="graph" transform="scale(1 1) rotate(0) translate(4 43)">
<title>Graphical Class Hierarchy</title>
<polygon fill="#ffffff" stroke="transparent" points="-4,4 -4,-43 248.7383,-43 248.7383,4 -4,4"/>
<!-- Node78 -->
<g id="node1" class="node">
<title>Node78</title>
<polygon fill="#ffffff" stroke="#bfbfbf" points="0,-10.5 0,-28.5 94.916,-28.5 94.916,-10.5 0,-10.5"/>
<text text-anchor="middle" x="47.458" y="-16.5" font-family="FreeSans" font-size="10.00" fill="#000000">transform_iterator</text>
</g>
<!-- Node0 -->
<g id="node2" class="node">
<title>Node0</title>
<g id="a_node2"><a xlink:href="classDGtal_1_1IteratorAdapter.html" target="_top" xlink:title="This class adapts any lvalue iterator so that operator* returns a member on the element pointed to by...">
<polygon fill="#ffffff" stroke="#000000" points="130.916,-.5 130.916,-38.5 244.7383,-38.5 244.7383,-.5 130.916,-.5"/>
<text text-anchor="start" x="138.916" y="-26.5" font-family="FreeSans" font-size="10.00" fill="#000000">DGtal::IteratorAdapter</text>
<text text-anchor="start" x="138.916" y="-16.5" font-family="FreeSans" font-size="10.00" fill="#000000">&lt; TIterator, TFunctor,</text>
<text text-anchor="middle" x="187.8271" y="-6.5" font-family="FreeSans" font-size="10.00" fill="#000000"> TReturnType &gt;</text>
</a>
</g>
</g>
<!-- Node78&#45;&gt;Node0 -->
<g id="edge1" class="edge">
<title>Node78&#45;&gt;Node0</title>
<path fill="none" stroke="#191970" d="M105.1045,-19.5C113.5337,-19.5 122.2123,-19.5 130.6324,-19.5"/>
<polygon fill="#191970" stroke="#191970" points="104.9806,-16.0001 94.9806,-19.5 104.9806,-23.0001 104.9806,-16.0001"/>
</g>
</g>
</svg>
