<?xml version="1.0" encoding="UTF-8" standalone="no"?>
<!DOCTYPE svg PUBLIC "-//W3C//DTD SVG 1.1//EN"
 "http://www.w3.org/Graphics/SVG/1.1/DTD/svg11.dtd">
<!-- Generated by graphviz version 2.40.1 (20161225.0304)
 -->
<!-- Title: logoDGtal.cpp Pages: 1 -->
<svg width="3222pt" height="747pt"
 viewBox="0.00 0.00 3222.00 747.00" xmlns="http://www.w3.org/2000/svg" xmlns:xlink="http://www.w3.org/1999/xlink">
<g id="graph0" class="graph" transform="scale(1 1) rotate(0) translate(4 743)">
<title>logoDGtal.cpp</title>
<polygon fill="#ffffff" stroke="transparent" points="-4,4 -4,-743 3218,-743 3218,4 -4,4"/>
<!-- Node0 -->
<g id="node1" class="node">
<title>Node0</title>
<polygon fill="#bfbfbf" stroke="#000000" points="1815.3154,-720.5 1815.3154,-738.5 1894.6846,-738.5 1894.6846,-720.5 1815.3154,-720.5"/>
<text text-anchor="middle" x="1855" y="-726.5" font-family="FreeSans" font-size="10.00" fill="#000000">logoDGtal.cpp</text>
</g>
<!-- Node1 -->
<g id="node2" class="node">
<title>Node1</title>
<polygon fill="#ffffff" stroke="#bfbfbf" points="2384.8276,-.5 2384.8276,-18.5 2439.1724,-18.5 2439.1724,-.5 2384.8276,-.5"/>
<text text-anchor="middle" x="2412" y="-6.5" font-family="FreeSans" font-size="10.00" fill="#000000">iostream</text>
</g>
<!-- Node0&#45;&gt;Node1 -->
<g id="edge1" class="edge">
<title>Node0&#45;&gt;Node1</title>
<path fill="none" stroke="#191970" d="M1894.9363,-728.4118C2119.4123,-722.0392 3214,-687.4799 3214,-619.5 3214,-619.5 3214,-619.5 3214,-119.5 3214,-74.5161 3177.8273,-71.5539 3136,-55 3071.9438,-29.6486 2588.5092,-14.3949 2449.3629,-10.4971"/>
<polygon fill="#191970" stroke="#191970" points="2449.2954,-6.994 2439.2023,-10.2156 2449.1015,-13.9913 2449.2954,-6.994"/>
</g>
<!-- Node2 -->
<g id="node3" class="node">
<title>Node2</title>
<g id="a_node3"><a xlink:href="Common_8h_source.html" target="_top" xlink:title="DGtal/base/Common.h">
<polygon fill="#ffffff" stroke="#000000" points="1877.1455,-230.5 1877.1455,-248.5 1994.8545,-248.5 1994.8545,-230.5 1877.1455,-230.5"/>
<text text-anchor="middle" x="1936" y="-236.5" font-family="FreeSans" font-size="10.00" fill="#000000">DGtal/base/Common.h</text>
</a>
</g>
</g>
<!-- Node0&#45;&gt;Node2 -->
<g id="edge2" class="edge">
<title>Node0&#45;&gt;Node2</title>
<path fill="none" stroke="#191970" d="M1815.2452,-728.6572C1646.1094,-724.5555 995,-703.3219 995,-619.5 995,-619.5 995,-619.5 995,-374.5 995,-328.7174 1007.0163,-309.0067 1046,-285 1080.7595,-263.5946 1663.2663,-246.5548 1866.6197,-241.2339"/>
<polygon fill="#191970" stroke="#191970" points="1866.9725,-244.726 1876.8781,-240.9671 1866.7904,-237.7284 1866.9725,-244.726"/>
</g>
<!-- Node39 -->
<g id="node32" class="node">
<title>Node39</title>
<g id="a_node32"><a xlink:href="Board2D_8h_source.html" target="_top" xlink:title="DGtal/io/boards/Board2D.h">
<polygon fill="#ffffff" stroke="#000000" points="1596.9683,-665.5 1596.9683,-683.5 1733.0317,-683.5 1733.0317,-665.5 1596.9683,-665.5"/>
<text text-anchor="middle" x="1665" y="-671.5" font-family="FreeSans" font-size="10.00" fill="#000000">DGtal/io/boards/Board2D.h</text>
</a>
</g>
</g>
<!-- Node0&#45;&gt;Node39 -->
<g id="edge57" class="edge">
<title>Node0&#45;&gt;Node39</title>
<path fill="none" stroke="#191970" d="M1823.6254,-720.4179C1791.4883,-711.115 1741.3732,-696.608 1706.0892,-686.3943"/>
<polygon fill="#191970" stroke="#191970" points="1706.6843,-682.9229 1696.1055,-683.5042 1704.7379,-689.6468 1706.6843,-682.9229"/>
</g>
<!-- Node297 -->
<g id="node44" class="node">
<title>Node297</title>
<g id="a_node44"><a xlink:href="StdDefs_8h_source.html" target="_top" xlink:title="DGtal/helpers/StdDefs.h">
<polygon fill="#ffffff" stroke="#000000" points="2000.0864,-555.5 2000.0864,-573.5 2123.9136,-573.5 2123.9136,-555.5 2000.0864,-555.5"/>
<text text-anchor="middle" x="2062" y="-561.5" font-family="FreeSans" font-size="10.00" fill="#000000">DGtal/helpers/StdDefs.h</text>
</a>
</g>
</g>
<!-- Node0&#45;&gt;Node297 -->
<g id="edge131" class="edge">
<title>Node0&#45;&gt;Node297</title>
<path fill="none" stroke="#191970" d="M1866.4241,-720.3939C1900.2824,-693.4053 2000.3651,-613.6293 2042.7198,-579.8682"/>
<polygon fill="#191970" stroke="#191970" points="2044.9731,-582.5481 2050.6112,-573.578 2040.6099,-577.0742 2044.9731,-582.5481"/>
</g>
<!-- Node2&#45;&gt;Node1 -->
<g id="edge3" class="edge">
<title>Node2&#45;&gt;Node1</title>
<path fill="none" stroke="#191970" d="M1995.2897,-237.2859C2128.4246,-231.9296 2442.7991,-216.994 2485,-194 2540.2617,-163.8896 2555.8066,-100.1826 2512,-55 2494.9992,-37.4652 2469.9871,-26.0883 2449.2313,-19.096"/>
<polygon fill="#191970" stroke="#191970" points="2450.0274,-15.6772 2439.4377,-16.0079 2447.9222,-22.3532 2450.0274,-15.6772"/>
</g>
<!-- Node3 -->
<g id="node4" class="node">
<title>Node3</title>
<polygon fill="#ffffff" stroke="#bfbfbf" points="2399.5962,-170.5 2399.5962,-188.5 2458.4038,-188.5 2458.4038,-170.5 2399.5962,-170.5"/>
<text text-anchor="middle" x="2429" y="-176.5" font-family="FreeSans" font-size="10.00" fill="#000000">exception</text>
</g>
<!-- Node2&#45;&gt;Node3 -->
<g id="edge4" class="edge">
<title>Node2&#45;&gt;Node3</title>
<path fill="none" stroke="#191970" d="M1994.9066,-237.7507C2081.5016,-234.2351 2247.8522,-223.879 2386,-194 2389.0584,-193.3385 2392.2029,-192.5332 2395.3332,-191.6447"/>
<polygon fill="#191970" stroke="#191970" points="2396.6456,-194.9022 2405.1601,-188.5973 2394.5721,-188.2164 2396.6456,-194.9022"/>
</g>
<!-- Node4 -->
<g id="node5" class="node">
<title>Node4</title>
<polygon fill="#ffffff" stroke="#bfbfbf" points="1196.436,-110.5 1196.436,-128.5 1253.564,-128.5 1253.564,-110.5 1196.436,-110.5"/>
<text text-anchor="middle" x="1225" y="-116.5" font-family="FreeSans" font-size="10.00" fill="#000000">algorithm</text>
</g>
<!-- Node2&#45;&gt;Node4 -->
<g id="edge5" class="edge">
<title>Node2&#45;&gt;Node4</title>
<path fill="none" stroke="#191970" d="M1876.9377,-237.8973C1710.3192,-233.0909 1247.1871,-217.6524 1225,-194 1211.3534,-179.4521 1214.1487,-155.3955 1218.5285,-138.5661"/>
<polygon fill="#191970" stroke="#191970" points="1221.9603,-139.3069 1221.4787,-128.723 1215.255,-137.2972 1221.9603,-139.3069"/>
</g>
<!-- Node5 -->
<g id="node6" class="node">
<title>Node5</title>
<polygon fill="#ffffff" stroke="#bfbfbf" points="1233.5298,-170.5 1233.5298,-188.5 1328.4702,-188.5 1328.4702,-170.5 1233.5298,-170.5"/>
<text text-anchor="middle" x="1281" y="-176.5" font-family="FreeSans" font-size="10.00" fill="#000000">boost/version.hpp</text>
</g>
<!-- Node2&#45;&gt;Node5 -->
<g id="edge6" class="edge">
<title>Node2&#45;&gt;Node5</title>
<path fill="none" stroke="#191970" d="M1876.9185,-238.4815C1768.9865,-235.8533 1532.9925,-226.5527 1337,-194 1331.9892,-193.1677 1326.7724,-192.0983 1321.6267,-190.918"/>
<polygon fill="#191970" stroke="#191970" points="1322.4361,-187.5129 1311.8916,-188.5446 1320.778,-194.3137 1322.4361,-187.5129"/>
</g>
<!-- Node6 -->
<g id="node7" class="node">
<title>Node6</title>
<polygon fill="#ffffff" stroke="#bfbfbf" points="1346.2935,-170.5 1346.2935,-188.5 1475.7065,-188.5 1475.7065,-170.5 1346.2935,-170.5"/>
<text text-anchor="middle" x="1411" y="-176.5" font-family="FreeSans" font-size="10.00" fill="#000000">boost/concept_check.hpp</text>
</g>
<!-- Node2&#45;&gt;Node6 -->
<g id="edge7" class="edge">
<title>Node2&#45;&gt;Node6</title>
<path fill="none" stroke="#191970" d="M1877.0443,-235.31C1790.7054,-228.7763 1624.9301,-214.7221 1485,-194 1478.1262,-192.9821 1470.9217,-191.7629 1463.819,-190.4697"/>
<polygon fill="#191970" stroke="#191970" points="1464.0105,-186.9445 1453.5361,-188.5369 1462.7174,-193.8241 1464.0105,-186.9445"/>
</g>
<!-- Node7 -->
<g id="node8" class="node">
<title>Node7</title>
<polygon fill="#ffffff" stroke="#bfbfbf" points="1493.5815,-170.5 1493.5815,-188.5 1612.4185,-188.5 1612.4185,-170.5 1493.5815,-170.5"/>
<text text-anchor="middle" x="1553" y="-176.5" font-family="FreeSans" font-size="10.00" fill="#000000">boost/static_assert.hpp</text>
</g>
<!-- Node2&#45;&gt;Node7 -->
<g id="edge8" class="edge">
<title>Node2&#45;&gt;Node7</title>
<path fill="none" stroke="#191970" d="M1876.8845,-232.1567C1813.4404,-223.9969 1709.7982,-209.8625 1621,-194 1615.2145,-192.9665 1609.1701,-191.8017 1603.1744,-190.5928"/>
<polygon fill="#191970" stroke="#191970" points="1603.6855,-187.1246 1593.1846,-188.5322 1602.2714,-193.9803 1603.6855,-187.1246"/>
</g>
<!-- Node8 -->
<g id="node9" class="node">
<title>Node8</title>
<polygon fill="#ffffff" stroke="#bfbfbf" points="1630.1309,-170.5 1630.1309,-188.5 1757.8691,-188.5 1757.8691,-170.5 1630.1309,-170.5"/>
<text text-anchor="middle" x="1694" y="-176.5" font-family="FreeSans" font-size="10.00" fill="#000000">boost/concept/assert.hpp</text>
</g>
<!-- Node2&#45;&gt;Node8 -->
<g id="edge9" class="edge">
<title>Node2&#45;&gt;Node8</title>
<path fill="none" stroke="#191970" d="M1899.5081,-230.4524C1856.9451,-219.8996 1786.5173,-202.4382 1740.1824,-190.9502"/>
<polygon fill="#191970" stroke="#191970" points="1740.9409,-187.5323 1730.3925,-188.5229 1739.2563,-194.3266 1740.9409,-187.5323"/>
</g>
<!-- Node9 -->
<g id="node10" class="node">
<title>Node9</title>
<polygon fill="#ffffff" stroke="#bfbfbf" points="1775.6826,-170.5 1775.6826,-188.5 1912.3174,-188.5 1912.3174,-170.5 1775.6826,-170.5"/>
<text text-anchor="middle" x="1844" y="-176.5" font-family="FreeSans" font-size="10.00" fill="#000000">boost/concept/requires.hpp</text>
</g>
<!-- Node2&#45;&gt;Node9 -->
<g id="edge10" class="edge">
<title>Node2&#45;&gt;Node9</title>
<path fill="none" stroke="#191970" d="M1922.0272,-230.3873C1907.2165,-220.7281 1883.6121,-205.334 1866.2398,-194.0042"/>
<polygon fill="#191970" stroke="#191970" points="1868.0909,-191.033 1857.8029,-188.5019 1864.267,-196.8962 1868.0909,-191.033"/>
</g>
<!-- Node10 -->
<g id="node11" class="node">
<title>Node10</title>
<polygon fill="#ffffff" stroke="#bfbfbf" points="1929.8672,-165.5 1929.8672,-193.5 2038.1328,-193.5 2038.1328,-165.5 1929.8672,-165.5"/>
<text text-anchor="start" x="1937.8672" y="-181.5" font-family="FreeSans" font-size="10.00" fill="#000000">boost/iterator/iterator</text>
<text text-anchor="middle" x="1984" y="-171.5" font-family="FreeSans" font-size="10.00" fill="#000000">_concepts.hpp</text>
</g>
<!-- Node2&#45;&gt;Node10 -->
<g id="edge11" class="edge">
<title>Node2&#45;&gt;Node10</title>
<path fill="none" stroke="#191970" d="M1943.2902,-230.3873C1949.355,-222.8063 1958.246,-211.6925 1966.1731,-201.7837"/>
<polygon fill="#191970" stroke="#191970" points="1969.0079,-203.8428 1972.5219,-193.8477 1963.5418,-199.4699 1969.0079,-203.8428"/>
</g>
<!-- Node11 -->
<g id="node12" class="node">
<title>Node11</title>
<polygon fill="#ffffff" stroke="#bfbfbf" points="2056.397,-170.5 2056.397,-188.5 2203.603,-188.5 2203.603,-170.5 2056.397,-170.5"/>
<text text-anchor="middle" x="2130" y="-176.5" font-family="FreeSans" font-size="10.00" fill="#000000">boost/concept_archetype.hpp</text>
</g>
<!-- Node2&#45;&gt;Node11 -->
<g id="edge12" class="edge">
<title>Node2&#45;&gt;Node11</title>
<path fill="none" stroke="#191970" d="M1965.4644,-230.3873C1998.9879,-220.0192 2053.8764,-203.0434 2090.9441,-191.5791"/>
<polygon fill="#191970" stroke="#191970" points="2092.3746,-194.8004 2100.8939,-188.5019 2090.3062,-188.1129 2092.3746,-194.8004"/>
</g>
<!-- Node12 -->
<g id="node13" class="node">
<title>Node12</title>
<polygon fill="#ffffff" stroke="#bfbfbf" points="2869.3843,-110.5 2869.3843,-128.5 2912.6157,-128.5 2912.6157,-110.5 2869.3843,-110.5"/>
<text text-anchor="middle" x="2891" y="-116.5" font-family="FreeSans" font-size="10.00" fill="#000000">cmath</text>
</g>
<!-- Node2&#45;&gt;Node12 -->
<g id="edge13" class="edge">
<title>Node2&#45;&gt;Node12</title>
<path fill="none" stroke="#191970" d="M1995.1319,-238.3771C2150.3484,-235.0473 2566.6745,-223.5508 2701,-194 2761.5715,-180.6746 2828.1407,-150.741 2864.1867,-133.1414"/>
<polygon fill="#191970" stroke="#191970" points="2866.1017,-136.099 2873.5137,-128.5285 2862.9985,-129.8244 2866.1017,-136.099"/>
</g>
<!-- Node13 -->
<g id="node14" class="node">
<title>Node13</title>
<polygon fill="#ffffff" stroke="#bfbfbf" points="2260.2686,-170.5 2260.2686,-188.5 2305.7314,-188.5 2305.7314,-170.5 2260.2686,-170.5"/>
<text text-anchor="middle" x="2283" y="-176.5" font-family="FreeSans" font-size="10.00" fill="#000000">stdio.h</text>
</g>
<!-- Node2&#45;&gt;Node13 -->
<g id="edge14" class="edge">
<title>Node2&#45;&gt;Node13</title>
<path fill="none" stroke="#191970" d="M1995.0822,-234.8601C2058.0604,-228.9837 2160.3057,-216.7612 2246,-194 2248.1671,-193.4244 2250.3803,-192.7612 2252.593,-192.042"/>
<polygon fill="#191970" stroke="#191970" points="2253.907,-195.2893 2262.1456,-188.6279 2251.551,-188.6977 2253.907,-195.2893"/>
</g>
<!-- Node14 -->
<g id="node15" class="node">
<title>Node14</title>
<g id="a_node15"><a xlink:href="Config_8h_source.html" target="_top" xlink:title="DGtal/base/Config.h">
<polygon fill="#ffffff" stroke="#000000" points="349.9756,-55.5 349.9756,-73.5 456.0244,-73.5 456.0244,-55.5 349.9756,-55.5"/>
<text text-anchor="middle" x="403" y="-61.5" font-family="FreeSans" font-size="10.00" fill="#000000">DGtal/base/Config.h</text>
</a>
</g>
</g>
<!-- Node2&#45;&gt;Node14 -->
<g id="edge15" class="edge">
<title>Node2&#45;&gt;Node14</title>
<path fill="none" stroke="#191970" d="M1876.8351,-238.9959C1606.1772,-236.5301 492.6265,-224.5954 340,-194 261.0946,-178.1827 216.5599,-195.3366 171,-129 166.2193,-122.0391 165.6341,-116.5204 171,-110 176.4267,-103.4056 272.8813,-86.1503 339.694,-74.8858"/>
<polygon fill="#191970" stroke="#191970" points="340.4502,-78.3079 349.7328,-73.2006 339.2913,-71.4045 340.4502,-78.3079"/>
</g>
<!-- Node16 -->
<g id="node17" class="node">
<title>Node16</title>
<g id="a_node17"><a xlink:href="Trace_8h_source.html" target="_top" xlink:title="DGtal/base/Trace.h">
<polygon fill="#ffffff" stroke="#000000" points="489.8311,-170.5 489.8311,-188.5 592.1689,-188.5 592.1689,-170.5 489.8311,-170.5"/>
<text text-anchor="middle" x="541" y="-176.5" font-family="FreeSans" font-size="10.00" fill="#000000">DGtal/base/Trace.h</text>
</a>
</g>
</g>
<!-- Node2&#45;&gt;Node16 -->
<g id="edge18" class="edge">
<title>Node2&#45;&gt;Node16</title>
<path fill="none" stroke="#191970" d="M1876.9496,-236.9602C1649.9262,-227.1957 834.4583,-192.1219 602.7817,-182.1573"/>
<polygon fill="#191970" stroke="#191970" points="602.6587,-178.6488 592.5175,-181.7158 602.3578,-185.6424 602.6587,-178.6488"/>
</g>
<!-- Node23 -->
<g id="node22" class="node">
<title>Node23</title>
<g id="a_node22"><a xlink:href="TraceWriterTerm_8h_source.html" target="_top" xlink:title="DGtal/base/TraceWriterTerm.h">
<polygon fill="#ffffff" stroke="#000000" points="342.478,-110.5 342.478,-128.5 493.522,-128.5 493.522,-110.5 342.478,-110.5"/>
<text text-anchor="middle" x="418" y="-116.5" font-family="FreeSans" font-size="10.00" fill="#000000">DGtal/base/TraceWriterTerm.h</text>
</a>
</g>
</g>
<!-- Node2&#45;&gt;Node23 -->
<g id="edge39" class="edge">
<title>Node2&#45;&gt;Node23</title>
<path fill="none" stroke="#191970" d="M1876.911,-238.992C1612.104,-236.5448 544.753,-224.8002 481,-194 456.4205,-182.1252 437.821,-155.6775 427.4132,-137.7105"/>
<polygon fill="#191970" stroke="#191970" points="430.3714,-135.826 422.4879,-128.7478 424.2366,-139.1973 430.3714,-135.826"/>
</g>
<!-- Node24 -->
<g id="node23" class="node">
<title>Node24</title>
<g id="a_node23"><a xlink:href="Assert_8h_source.html" target="_top" xlink:title="DGtal/base/Assert.h">
<polygon fill="#ffffff" stroke="#000000" points="180.2588,-110.5 180.2588,-128.5 285.7412,-128.5 285.7412,-110.5 180.2588,-110.5"/>
<text text-anchor="middle" x="233" y="-116.5" font-family="FreeSans" font-size="10.00" fill="#000000">DGtal/base/Assert.h</text>
</a>
</g>
</g>
<!-- Node2&#45;&gt;Node24 -->
<g id="edge44" class="edge">
<title>Node2&#45;&gt;Node24</title>
<path fill="none" stroke="#191970" d="M1876.8067,-238.7797C1617.1384,-235.4729 585.4052,-220.7512 443,-194 375.7053,-181.3585 301.0776,-150.5837 261.4268,-132.7937"/>
<polygon fill="#191970" stroke="#191970" points="262.6778,-129.5178 252.1254,-128.5695 259.7832,-135.8913 262.6778,-129.5178"/>
</g>
<!-- Node27 -->
<g id="node26" class="node">
<title>Node27</title>
<g id="a_node26"><a xlink:href="TraceWriterFile_8h_source.html" target="_top" xlink:title="DGtal/base/TraceWriterFile.h">
<polygon fill="#ffffff" stroke="#000000" points="767.5322,-110.5 767.5322,-128.5 912.4678,-128.5 912.4678,-110.5 767.5322,-110.5"/>
<text text-anchor="middle" x="840" y="-116.5" font-family="FreeSans" font-size="10.00" fill="#000000">DGtal/base/TraceWriterFile.h</text>
</a>
</g>
</g>
<!-- Node2&#45;&gt;Node27 -->
<g id="edge40" class="edge">
<title>Node2&#45;&gt;Node27</title>
<path fill="none" stroke="#191970" d="M1876.9225,-238.518C1752.8669,-235.859 1456.3561,-226.3689 1210,-194 1092.1941,-178.5214 955.639,-147.5919 886.0025,-130.8661"/>
<polygon fill="#191970" stroke="#191970" points="886.7662,-127.45 876.224,-128.505 885.1231,-134.2544 886.7662,-127.45"/>
</g>
<!-- Node28 -->
<g id="node27" class="node">
<title>Node28</title>
<g id="a_node27"><a xlink:href="ConceptUtils_8h_source.html" target="_top" xlink:title="DGtal/base/ConceptUtils.h">
<polygon fill="#ffffff" stroke="#000000" points="2038.084,-55.5 2038.084,-73.5 2171.916,-73.5 2171.916,-55.5 2038.084,-55.5"/>
<text text-anchor="middle" x="2105" y="-61.5" font-family="FreeSans" font-size="10.00" fill="#000000">DGtal/base/ConceptUtils.h</text>
</a>
</g>
</g>
<!-- Node2&#45;&gt;Node28 -->
<g id="edge45" class="edge">
<title>Node2&#45;&gt;Node28</title>
<path fill="none" stroke="#191970" d="M1994.8678,-233.8716C2071.9672,-225.8964 2199.0416,-210.4383 2213,-194 2248.4092,-152.3 2174.5792,-102.4767 2132.1213,-78.6082"/>
<polygon fill="#191970" stroke="#191970" points="2133.5381,-75.3934 2123.0872,-73.6528 2130.1716,-81.5308 2133.5381,-75.3934"/>
</g>
<!-- Node29 -->
<g id="node28" class="node">
<title>Node29</title>
<g id="a_node28"><a xlink:href="BasicTypes_8h_source.html" target="_top" xlink:title="DGtal/base/BasicTypes.h">
<polygon fill="#ffffff" stroke="#ff0000" points="2189.8599,-55.5 2189.8599,-73.5 2318.1401,-73.5 2318.1401,-55.5 2189.8599,-55.5"/>
<text text-anchor="middle" x="2254" y="-61.5" font-family="FreeSans" font-size="10.00" fill="#000000">DGtal/base/BasicTypes.h</text>
</a>
</g>
</g>
<!-- Node2&#45;&gt;Node29 -->
<g id="edge47" class="edge">
<title>Node2&#45;&gt;Node29</title>
<path fill="none" stroke="#191970" d="M1995.2183,-236.6387C2096.5036,-231.1334 2294.1648,-217.4861 2315,-194 2345.6219,-159.482 2299.7369,-106.9133 2272.2148,-80.6351"/>
<polygon fill="#191970" stroke="#191970" points="2274.4064,-77.8943 2264.6926,-73.6644 2269.6485,-83.0287 2274.4064,-77.8943"/>
</g>
<!-- Node32 -->
<g id="node29" class="node">
<title>Node32</title>
<g id="a_node29"><a xlink:href="BasicFunctors_8h_source.html" target="_top" xlink:title="DGtal/base/BasicFunctors.h">
<polygon fill="#ffffff" stroke="#ff0000" points="2551.7515,-170.5 2551.7515,-188.5 2692.2485,-188.5 2692.2485,-170.5 2551.7515,-170.5"/>
<text text-anchor="middle" x="2622" y="-176.5" font-family="FreeSans" font-size="10.00" fill="#000000">DGtal/base/BasicFunctors.h</text>
</a>
</g>
</g>
<!-- Node2&#45;&gt;Node32 -->
<g id="edge49" class="edge">
<title>Node2&#45;&gt;Node32</title>
<path fill="none" stroke="#191970" d="M1994.8839,-236.657C2101.6888,-231.3309 2333.9667,-218.1477 2529,-194 2537.5367,-192.943 2546.5273,-191.6185 2555.4309,-190.2025"/>
<polygon fill="#191970" stroke="#191970" points="2556.1111,-193.6379 2565.4175,-188.5742 2554.9846,-186.7291 2556.1111,-193.6379"/>
</g>
<!-- Node37 -->
<g id="node30" class="node">
<title>Node37</title>
<g id="a_node30"><a xlink:href="BasicArchetypes_8h_source.html" target="_top" xlink:title="DGtal/base/BasicArchetypes.h">
<polygon fill="#ffffff" stroke="#000000" points="2336.1899,-55.5 2336.1899,-73.5 2487.8101,-73.5 2487.8101,-55.5 2336.1899,-55.5"/>
<text text-anchor="middle" x="2412" y="-61.5" font-family="FreeSans" font-size="10.00" fill="#000000">DGtal/base/BasicArchetypes.h</text>
</a>
</g>
</g>
<!-- Node2&#45;&gt;Node37 -->
<g id="edge53" class="edge">
<title>Node2&#45;&gt;Node37</title>
<path fill="none" stroke="#191970" d="M1994.9504,-235.6339C2098.8083,-228.4027 2306.1005,-211.932 2334,-194 2355.0183,-180.4908 2387.9171,-115.4453 2403.3988,-82.994"/>
<polygon fill="#191970" stroke="#191970" points="2406.6772,-84.2474 2407.7761,-73.7097 2400.3457,-81.2622 2406.6772,-84.2474"/>
</g>
<!-- Node38 -->
<g id="node31" class="node">
<title>Node38</title>
<g id="a_node31"><a xlink:href="Exceptions_8h_source.html" target="_top" xlink:title="DGtal/base/Exceptions.h">
<polygon fill="#ffffff" stroke="#000000" points="2399.9707,-110.5 2399.9707,-128.5 2526.0293,-128.5 2526.0293,-110.5 2399.9707,-110.5"/>
<text text-anchor="middle" x="2463" y="-116.5" font-family="FreeSans" font-size="10.00" fill="#000000">DGtal/base/Exceptions.h</text>
</a>
</g>
</g>
<!-- Node2&#45;&gt;Node38 -->
<g id="edge55" class="edge">
<title>Node2&#45;&gt;Node38</title>
<path fill="none" stroke="#191970" d="M1995.1356,-238.8369C2126.9135,-236.7453 2435.5976,-228.2083 2467,-194 2480.5084,-179.2846 2476.2898,-155.2623 2470.8,-138.4867"/>
<polygon fill="#191970" stroke="#191970" points="2473.927,-136.8505 2467.1824,-128.6798 2467.3596,-139.2732 2473.927,-136.8505"/>
</g>
<!-- Node14&#45;&gt;Node1 -->
<g id="edge16" class="edge">
<title>Node14&#45;&gt;Node1</title>
<path fill="none" stroke="#191970" d="M456.278,-60.4274C483.1656,-58.5077 516.2976,-56.3481 546,-55 1281.5098,-21.6162 2181.2893,-11.65 2374.4016,-9.8304"/>
<polygon fill="#191970" stroke="#191970" points="2374.6235,-13.3286 2384.5906,-9.7358 2374.5585,-6.3289 2374.6235,-13.3286"/>
</g>
<!-- Node15 -->
<g id="node16" class="node">
<title>Node15</title>
<polygon fill="#ffffff" stroke="#bfbfbf" points="111.7734,-.5 111.7734,-18.5 152.2266,-18.5 152.2266,-.5 111.7734,-.5"/>
<text text-anchor="middle" x="132" y="-6.5" font-family="FreeSans" font-size="10.00" fill="#000000">string</text>
</g>
<!-- Node14&#45;&gt;Node15 -->
<g id="edge17" class="edge">
<title>Node14&#45;&gt;Node15</title>
<path fill="none" stroke="#191970" d="M358.5533,-55.4795C303.2709,-44.2598 210.3535,-25.402 162.5076,-15.6916"/>
<polygon fill="#191970" stroke="#191970" points="162.9574,-12.2116 152.461,-13.6526 161.5651,-19.0717 162.9574,-12.2116"/>
</g>
<!-- Node16&#45;&gt;Node1 -->
<g id="edge19" class="edge">
<title>Node16&#45;&gt;Node1</title>
<path fill="none" stroke="#191970" d="M592.3741,-177.5016C685.8,-173.1313 879.2921,-160.4749 938,-129 976.3227,-108.4541 962.7518,-73.7174 1002,-55 1065.6565,-24.6422 2156.4649,-12.0767 2374.3197,-9.8642"/>
<polygon fill="#191970" stroke="#191970" points="2374.6332,-13.3614 2384.5975,-9.761 2374.5629,-6.3617 2374.6332,-13.3614"/>
</g>
<!-- Node16&#45;&gt;Node14 -->
<g id="edge23" class="edge">
<title>Node16&#45;&gt;Node14</title>
<path fill="none" stroke="#191970" d="M489.5182,-174.2158C434.3555,-167.3662 352.1211,-153.3189 333,-129 317.422,-109.1873 345.2511,-90.0887 370.2956,-77.8855"/>
<polygon fill="#191970" stroke="#191970" points="372.0511,-80.93 379.6616,-73.559 369.1156,-74.5753 372.0511,-80.93"/>
</g>
<!-- Node16&#45;&gt;Node15 -->
<g id="edge21" class="edge">
<title>Node16&#45;&gt;Node15</title>
<path fill="none" stroke="#191970" d="M489.5411,-175.5025C393.6324,-167.6163 195.047,-149.0698 171,-129 141.0929,-104.0392 133.9312,-55.7886 132.3359,-28.8619"/>
<polygon fill="#191970" stroke="#191970" points="135.829,-28.614 131.943,-18.7576 128.8343,-28.8861 135.829,-28.614"/>
</g>
<!-- Node17 -->
<g id="node18" class="node">
<title>Node17</title>
<polygon fill="#ffffff" stroke="#bfbfbf" points="495.9385,-.5 495.9385,-18.5 548.0615,-18.5 548.0615,-.5 495.9385,-.5"/>
<text text-anchor="middle" x="522" y="-6.5" font-family="FreeSans" font-size="10.00" fill="#000000">ostream</text>
</g>
<!-- Node16&#45;&gt;Node17 -->
<g id="edge20" class="edge">
<title>Node16&#45;&gt;Node17</title>
<path fill="none" stroke="#191970" d="M539.9785,-170.3601C537.0016,-143.7251 528.2864,-65.7468 524.1835,-29.0366"/>
<polygon fill="#191970" stroke="#191970" points="527.6157,-28.2345 523.0266,-18.6851 520.659,-29.012 527.6157,-28.2345"/>
</g>
<!-- Node18 -->
<g id="node19" class="node">
<title>Node18</title>
<polygon fill="#ffffff" stroke="#bfbfbf" points="710.3301,-110.5 710.3301,-128.5 749.6699,-128.5 749.6699,-110.5 710.3301,-110.5"/>
<text text-anchor="middle" x="730" y="-116.5" font-family="FreeSans" font-size="10.00" fill="#000000">stack</text>
</g>
<!-- Node16&#45;&gt;Node18 -->
<g id="edge22" class="edge">
<title>Node16&#45;&gt;Node18</title>
<path fill="none" stroke="#191970" d="M569.9344,-170.4711C600.1252,-161.0275 649.0792,-145.6514 700.429,-129.1607"/>
<polygon fill="#191970" stroke="#191970" points="701.5926,-132.4631 710.041,-126.0697 699.4496,-125.7992 701.5926,-132.4631"/>
</g>
<!-- Node19 -->
<g id="node20" class="node">
<title>Node19</title>
<g id="a_node20"><a xlink:href="Clock_8h_source.html" target="_top" xlink:title="DGtal/base/Clock.h">
<polygon fill="#ffffff" stroke="#ff0000" points="847.9263,-55.5 847.9263,-73.5 950.0737,-73.5 950.0737,-55.5 847.9263,-55.5"/>
<text text-anchor="middle" x="899" y="-61.5" font-family="FreeSans" font-size="10.00" fill="#000000">DGtal/base/Clock.h</text>
</a>
</g>
</g>
<!-- Node16&#45;&gt;Node19 -->
<g id="edge24" class="edge">
<title>Node16&#45;&gt;Node19</title>
<path fill="none" stroke="#191970" d="M592.183,-176.3967C690.867,-169.8894 899.6503,-153.3746 921,-129 932.5106,-115.8585 923.4241,-96.4189 913.6712,-82.3183"/>
<polygon fill="#191970" stroke="#191970" points="916.1821,-79.8336 907.3757,-73.943 910.5866,-84.0396 916.1821,-79.8336"/>
</g>
<!-- Node22 -->
<g id="node21" class="node">
<title>Node22</title>
<g id="a_node21"><a xlink:href="TraceWriter_8h_source.html" target="_top" xlink:title="DGtal/base/TraceWriter.h">
<polygon fill="#ffffff" stroke="#000000" points="587.8623,-55.5 587.8623,-73.5 716.1377,-73.5 716.1377,-55.5 587.8623,-55.5"/>
<text text-anchor="middle" x="652" y="-61.5" font-family="FreeSans" font-size="10.00" fill="#000000">DGtal/base/TraceWriter.h</text>
</a>
</g>
</g>
<!-- Node16&#45;&gt;Node22 -->
<g id="edge26" class="edge">
<title>Node16&#45;&gt;Node22</title>
<path fill="none" stroke="#191970" d="M544.2036,-170.4649C549.5958,-156.2509 561.6251,-128.3948 579,-110 591.3655,-96.9086 608.2788,-86.0549 622.7119,-78.2355"/>
<polygon fill="#191970" stroke="#191970" points="624.4984,-81.2517 631.7656,-73.5421 621.2768,-75.0371 624.4984,-81.2517"/>
</g>
<!-- Node16&#45;&gt;Node23 -->
<g id="edge29" class="edge">
<title>Node16&#45;&gt;Node23</title>
<path fill="none" stroke="#191970" d="M522.3189,-170.3873C501.8819,-160.418 468.9208,-144.3394 445.5227,-132.9257"/>
<polygon fill="#191970" stroke="#191970" points="446.976,-129.7405 436.4538,-128.5019 443.907,-136.0319 446.976,-129.7405"/>
</g>
<!-- Node16&#45;&gt;Node24 -->
<g id="edge34" class="edge">
<title>Node16&#45;&gt;Node24</title>
<path fill="none" stroke="#191970" d="M489.5599,-170.4524C432.4994,-159.7669 341.1614,-141.9978 284.2003,-130.5195"/>
<polygon fill="#191970" stroke="#191970" points="284.8222,-127.0745 274.3269,-128.5229 283.4347,-133.9356 284.8222,-127.0745"/>
</g>
<!-- Node26 -->
<g id="node25" class="node">
<title>Node26</title>
<g id="a_node25"><a xlink:href="Trace_8ih_source.html" target="_top" xlink:title="DGtal/base/Trace.ih">
<polygon fill="#ffffff" stroke="#000000" points="587.7202,-110.5 587.7202,-128.5 692.2798,-128.5 692.2798,-110.5 587.7202,-110.5"/>
<text text-anchor="middle" x="640" y="-116.5" font-family="FreeSans" font-size="10.00" fill="#000000">DGtal/base/Trace.ih</text>
</a>
</g>
</g>
<!-- Node16&#45;&gt;Node26 -->
<g id="edge38" class="edge">
<title>Node16&#45;&gt;Node26</title>
<path fill="none" stroke="#191970" d="M556.036,-170.3873C572.1198,-160.6395 597.8408,-145.051 616.5809,-133.6934"/>
<polygon fill="#191970" stroke="#191970" points="618.409,-136.6781 625.1469,-128.5019 614.7808,-130.6917 618.409,-136.6781"/>
</g>
<!-- Node19&#45;&gt;Node1 -->
<g id="edge25" class="edge">
<title>Node19&#45;&gt;Node1</title>
<path fill="none" stroke="#191970" d="M950.3838,-56.4395C954.9804,-55.8852 959.5695,-55.3921 964,-55 1249.83,-29.7042 2176.4849,-13.3543 2374.5343,-10.0991"/>
<polygon fill="#191970" stroke="#191970" points="2374.776,-13.5958 2384.7174,-9.9328 2374.6616,-6.5967 2374.776,-13.5958"/>
</g>
<!-- Node22&#45;&gt;Node1 -->
<g id="edge27" class="edge">
<title>Node22&#45;&gt;Node1</title>
<path fill="none" stroke="#191970" d="M716.4125,-60.0471C743.9915,-58.2648 776.5642,-56.3245 806,-55 1433.0391,-26.7849 2198.6295,-13.0164 2374.7003,-10.0979"/>
<polygon fill="#191970" stroke="#191970" points="2374.8056,-13.5967 2384.7466,-9.9325 2374.6903,-6.5976 2374.8056,-13.5967"/>
</g>
<!-- Node22&#45;&gt;Node17 -->
<g id="edge28" class="edge">
<title>Node22&#45;&gt;Node17</title>
<path fill="none" stroke="#191970" d="M630.5331,-55.4179C609.363,-46.4613 576.7906,-32.6806 552.8502,-22.552"/>
<polygon fill="#191970" stroke="#191970" points="554.0722,-19.2687 543.4987,-18.5956 551.3447,-25.7155 554.0722,-19.2687"/>
</g>
<!-- Node23&#45;&gt;Node1 -->
<g id="edge30" class="edge">
<title>Node23&#45;&gt;Node1</title>
<path fill="none" stroke="#191970" d="M434.7636,-110.4419C463.3624,-95.5336 523.8478,-66.3482 579,-55 760.5525,-17.6434 2129.0349,-10.5988 2374.3932,-9.632"/>
<polygon fill="#191970" stroke="#191970" points="2374.5972,-13.1313 2384.5836,-9.5928 2374.5702,-6.1313 2374.5972,-13.1313"/>
</g>
<!-- Node23&#45;&gt;Node14 -->
<g id="edge33" class="edge">
<title>Node23&#45;&gt;Node14</title>
<path fill="none" stroke="#191970" d="M415.5231,-110.4179C413.5374,-103.1372 410.6824,-92.669 408.1998,-83.5659"/>
<polygon fill="#191970" stroke="#191970" points="411.5387,-82.5062 405.5308,-73.7795 404.7853,-84.348 411.5387,-82.5062"/>
</g>
<!-- Node23&#45;&gt;Node15 -->
<g id="edge31" class="edge">
<title>Node23&#45;&gt;Node15</title>
<path fill="none" stroke="#191970" d="M432.947,-110.3606C452.1589,-97.5067 481.2158,-73.5822 465,-55 445.2135,-32.3261 241.07,-16.6484 162.5458,-11.4153"/>
<polygon fill="#191970" stroke="#191970" points="162.539,-7.9075 152.3317,-10.7466 162.0816,-14.8925 162.539,-7.9075"/>
</g>
<!-- Node23&#45;&gt;Node22 -->
<g id="edge32" class="edge">
<title>Node23&#45;&gt;Node22</title>
<path fill="none" stroke="#191970" d="M456.3783,-110.4795C496.675,-101.008 560.1303,-86.0933 603.781,-75.8335"/>
<polygon fill="#191970" stroke="#191970" points="604.6669,-79.2208 613.6007,-73.5255 603.0652,-72.4065 604.6669,-79.2208"/>
</g>
<!-- Node24&#45;&gt;Node15 -->
<g id="edge37" class="edge">
<title>Node24&#45;&gt;Node15</title>
<path fill="none" stroke="#191970" d="M223.7744,-110.2064C214.7844,-101.0926 200.7863,-86.7486 189,-74 174.3536,-58.1577 158.0981,-39.6698 146.7068,-26.5591"/>
<polygon fill="#191970" stroke="#191970" points="149.1815,-24.0701 139.9894,-18.8018 143.8898,-28.6525 149.1815,-24.0701"/>
</g>
<!-- Node24&#45;&gt;Node16 -->
<g id="edge35" class="edge">
<title>Node24&#45;&gt;Node16</title>
<path fill="none" stroke="#191970" d="M284.3086,-128.5229C341.3163,-139.1976 432.6543,-156.966 489.6682,-168.454"/>
<polygon fill="#191970" stroke="#191970" points="489.0564,-171.901 499.5517,-170.4524 490.4438,-165.0399 489.0564,-171.901"/>
</g>
<!-- Node25 -->
<g id="node24" class="node">
<title>Node25</title>
<polygon fill="#ffffff" stroke="#bfbfbf" points="197.7935,-55.5 197.7935,-73.5 332.2065,-73.5 332.2065,-55.5 197.7935,-55.5"/>
<text text-anchor="middle" x="265" y="-61.5" font-family="FreeSans" font-size="10.00" fill="#000000">boost/current_function.hpp</text>
</g>
<!-- Node24&#45;&gt;Node25 -->
<g id="edge36" class="edge">
<title>Node24&#45;&gt;Node25</title>
<path fill="none" stroke="#191970" d="M238.2841,-110.4179C242.6583,-102.8998 249.01,-91.9829 254.4226,-82.6799"/>
<polygon fill="#191970" stroke="#191970" points="257.5973,-84.1831 259.601,-73.7795 251.5468,-80.6628 257.5973,-84.1831"/>
</g>
<!-- Node27&#45;&gt;Node1 -->
<g id="edge41" class="edge">
<title>Node27&#45;&gt;Node1</title>
<path fill="none" stroke="#191970" d="M836.2374,-110.1122C831.2944,-96.0523 824.7972,-69.6196 839,-55 866.6255,-26.5639 2138.0506,-12.2814 2374.4007,-9.8699"/>
<polygon fill="#191970" stroke="#191970" points="2374.5925,-13.3682 2384.5566,-9.7671 2374.5216,-6.3685 2374.5925,-13.3682"/>
</g>
<!-- Node27&#45;&gt;Node15 -->
<g id="edge42" class="edge">
<title>Node27&#45;&gt;Node15</title>
<path fill="none" stroke="#191970" d="M828.0482,-110.436C807.9941,-95.7936 765.7523,-67.3327 725,-55 618.0963,-22.6481 268.3699,-12.4817 162.5849,-10.1083"/>
<polygon fill="#191970" stroke="#191970" points="162.3656,-6.6028 152.292,-9.8849 162.2137,-13.6011 162.3656,-6.6028"/>
</g>
<!-- Node27&#45;&gt;Node22 -->
<g id="edge43" class="edge">
<title>Node27&#45;&gt;Node22</title>
<path fill="none" stroke="#191970" d="M808.9556,-110.4179C777.1569,-101.115 727.5693,-86.608 692.6567,-76.3943"/>
<polygon fill="#191970" stroke="#191970" points="693.3585,-72.9529 682.778,-73.5042 691.393,-79.6713 693.3585,-72.9529"/>
</g>
<!-- Node28&#45;&gt;Node1 -->
<g id="edge46" class="edge">
<title>Node28&#45;&gt;Node1</title>
<path fill="none" stroke="#191970" d="M2155.351,-55.4795C2216.8771,-44.4569 2319.5532,-26.0621 2374.5367,-16.2117"/>
<polygon fill="#191970" stroke="#191970" points="2375.3235,-19.6265 2384.5496,-14.4178 2374.089,-12.7362 2375.3235,-19.6265"/>
</g>
<!-- Node29&#45;&gt;Node1 -->
<g id="edge48" class="edge">
<title>Node29&#45;&gt;Node1</title>
<path fill="none" stroke="#191970" d="M2280.0905,-55.4179C2306.3562,-46.2748 2347.0632,-32.1046 2376.3091,-21.924"/>
<polygon fill="#191970" stroke="#191970" points="2377.8398,-25.0973 2386.1334,-18.5042 2375.5385,-18.4863 2377.8398,-25.0973"/>
</g>
<!-- Node32&#45;&gt;Node2 -->
<g id="edge52" class="edge">
<title>Node32&#45;&gt;Node2</title>
<path fill="none" stroke="#191970" d="M2582.8682,-188.5742C2571.3587,-190.5837 2558.7495,-192.5453 2547,-194 2351.8189,-218.166 2119.3367,-231.3509 2005.553,-236.6691"/>
<polygon fill="#191970" stroke="#191970" points="2005.0764,-233.1873 1995.2483,-237.1443 2005.3989,-240.1799 2005.0764,-233.1873"/>
</g>
<!-- Node32&#45;&gt;Node4 -->
<g id="edge50" class="edge">
<title>Node32&#45;&gt;Node4</title>
<path fill="none" stroke="#191970" d="M2551.4644,-172.0514C2525.0002,-169.4807 2494.6445,-166.798 2467,-165 1993.8964,-134.2298 1417.9591,-122.7607 1264.2449,-120.1283"/>
<polygon fill="#191970" stroke="#191970" points="1263.972,-116.6233 1253.9143,-119.9539 1263.8538,-123.6223 1263.972,-116.6233"/>
</g>
<!-- Node32&#45;&gt;Node12 -->
<g id="edge51" class="edge">
<title>Node32&#45;&gt;Node12</title>
<path fill="none" stroke="#191970" d="M2662.5633,-170.4524C2716.3018,-158.4661 2810.0003,-137.5669 2859.0267,-126.6316"/>
<polygon fill="#191970" stroke="#191970" points="2860.0655,-129.986 2869.0637,-124.3929 2858.5416,-123.1539 2860.0655,-129.986"/>
</g>
<!-- Node37&#45;&gt;Node1 -->
<g id="edge54" class="edge">
<title>Node37&#45;&gt;Node1</title>
<path fill="none" stroke="#191970" d="M2412,-55.4179C2412,-48.2164 2412,-37.8962 2412,-28.8632"/>
<polygon fill="#191970" stroke="#191970" points="2415.5001,-28.7794 2412,-18.7795 2408.5001,-28.7795 2415.5001,-28.7794"/>
</g>
<!-- Node38&#45;&gt;Node1 -->
<g id="edge56" class="edge">
<title>Node38&#45;&gt;Node1</title>
<path fill="none" stroke="#191970" d="M2474.2396,-110.1397C2488.0846,-97.4318 2508.4478,-74.1127 2497,-55 2486.5501,-37.5533 2466.8728,-26.4183 2449.0809,-19.5337"/>
<polygon fill="#191970" stroke="#191970" points="2450.0558,-16.1661 2439.461,-16.1331 2447.7228,-22.7659 2450.0558,-16.1661"/>
</g>
<!-- Node39&#45;&gt;Node1 -->
<g id="edge58" class="edge">
<title>Node39&#45;&gt;Node1</title>
<path fill="none" stroke="#191970" d="M1733.3546,-673.1531C2028.1609,-666.9031 3176,-637.8581 3176,-564.5 3176,-564.5 3176,-564.5 3176,-119.5 3176,-74.5161 3139.7985,-71.6264 3098,-55 3037.6647,-31.0002 2584.2361,-14.9255 2449.5891,-10.6438"/>
<polygon fill="#191970" stroke="#191970" points="2449.4706,-7.1384 2439.3654,-10.3219 2449.2503,-14.1349 2449.4706,-7.1384"/>
</g>
<!-- Node39&#45;&gt;Node2 -->
<g id="edge66" class="edge">
<title>Node39&#45;&gt;Node2</title>
<path fill="none" stroke="#191970" d="M1596.7644,-669.7132C1433.3431,-657.3373 1033,-621.23 1033,-564.5 1033,-564.5 1033,-564.5 1033,-374.5 1033,-274.2689 1142.5633,-308.5026 1240,-285 1357.5165,-256.654 1715.095,-244.8466 1866.7875,-241.0224"/>
<polygon fill="#191970" stroke="#191970" points="1867.0022,-244.5183 1876.9123,-240.7714 1866.8286,-237.5204 1867.0022,-244.5183"/>
</g>
<!-- Node40 -->
<g id="node33" class="node">
<title>Node40</title>
<g id="a_node33"><a xlink:href="Board_8h_source.html" target="_top" xlink:title="Board/Board.h">
<polygon fill="#ffffff" stroke="#ff0000" points="399.7563,-365.5 399.7563,-383.5 480.2437,-383.5 480.2437,-365.5 399.7563,-365.5"/>
<text text-anchor="middle" x="440" y="-371.5" font-family="FreeSans" font-size="10.00" fill="#000000">Board/Board.h</text>
</a>
</g>
</g>
<!-- Node39&#45;&gt;Node40 -->
<g id="edge59" class="edge">
<title>Node39&#45;&gt;Node40</title>
<path fill="none" stroke="#191970" d="M1596.7618,-673.8733C1424.8137,-671.7919 983.4199,-663.1481 927,-629 898.3409,-611.6541 888,-597.9996 888,-564.5 888,-564.5 888,-564.5 888,-504.5 888,-422.5454 607.9839,-388.9214 490.7087,-378.4331"/>
<polygon fill="#191970" stroke="#191970" points="490.8137,-374.929 480.5472,-377.5459 490.2048,-381.9025 490.8137,-374.929"/>
</g>
<!-- Node43 -->
<g id="node34" class="node">
<title>Node43</title>
<g id="a_node34"><a xlink:href="Color_8h_source.html" target="_top" xlink:title="DGtal/io/Color.h">
<polygon fill="#ffffff" stroke="#ff0000" points="880.7046,-295.5 880.7046,-313.5 967.2954,-313.5 967.2954,-295.5 880.7046,-295.5"/>
<text text-anchor="middle" x="924" y="-301.5" font-family="FreeSans" font-size="10.00" fill="#000000">DGtal/io/Color.h</text>
</a>
</g>
</g>
<!-- Node39&#45;&gt;Node43 -->
<g id="edge70" class="edge">
<title>Node39&#45;&gt;Node43</title>
<path fill="none" stroke="#191970" d="M1596.7809,-672.0524C1441.6126,-666.148 1071.5835,-650.0409 1019,-629 977.2355,-612.2882 941,-609.4839 941,-564.5 941,-564.5 941,-564.5 941,-439.5 941,-397.9335 932.9684,-349.728 927.9462,-323.648"/>
<polygon fill="#191970" stroke="#191970" points="931.3345,-322.7413 925.9501,-313.6167 924.4691,-324.1075 931.3345,-322.7413"/>
</g>
<!-- Node63 -->
<g id="node35" class="node">
<title>Node63</title>
<g id="a_node35"><a xlink:href="CountedPtr_8h_source.html" target="_top" xlink:title="DGtal/base/CountedPtr.h">
<polygon fill="#ffffff" stroke="#ff0000" points="2344.4092,-295.5 2344.4092,-313.5 2471.5908,-313.5 2471.5908,-295.5 2344.4092,-295.5"/>
<text text-anchor="middle" x="2408" y="-301.5" font-family="FreeSans" font-size="10.00" fill="#000000">DGtal/base/CountedPtr.h</text>
</a>
</g>
</g>
<!-- Node39&#45;&gt;Node63 -->
<g id="edge67" class="edge">
<title>Node39&#45;&gt;Node63</title>
<path fill="none" stroke="#191970" d="M1733.2057,-668.7496C1826.8325,-658.9059 1998.8219,-633.7575 2133,-574 2186.9695,-549.9642 2348.2876,-417.1461 2370,-389 2385.5317,-368.866 2396.3718,-341.3756 2402.3918,-323.2921"/>
<polygon fill="#191970" stroke="#191970" points="2405.7697,-324.2181 2405.4474,-313.6282 2399.0954,-322.1078 2405.7697,-324.2181"/>
</g>
<!-- Node65 -->
<g id="node36" class="node">
<title>Node65</title>
<g id="a_node36"><a xlink:href="Display2DFactory_8h_source.html" target="_top" xlink:title="Header file for module Display2DFactory. ">
<polygon fill="#ffffff" stroke="#ff0000" points="1487.2925,-610.5 1487.2925,-628.5 1628.7075,-628.5 1628.7075,-610.5 1487.2925,-610.5"/>
<text text-anchor="middle" x="1558" y="-616.5" font-family="FreeSans" font-size="10.00" fill="#000000">DGtal/io/Display2DFactory.h</text>
</a>
</g>
</g>
<!-- Node39&#45;&gt;Node65 -->
<g id="edge71" class="edge">
<title>Node39&#45;&gt;Node65</title>
<path fill="none" stroke="#191970" d="M1647.3311,-665.4179C1630.2937,-656.6603 1604.2838,-643.2907 1584.7161,-633.2326"/>
<polygon fill="#191970" stroke="#191970" points="1586.1891,-630.0544 1575.6951,-628.5956 1582.9889,-636.2801 1586.1891,-630.0544"/>
</g>
<!-- Node313 -->
<g id="node49" class="node">
<title>Node313</title>
<g id="a_node49"><a xlink:href="Style2DFactory_8h_source.html" target="_top" xlink:title="Header file for module Style2DFactory. ">
<polygon fill="#ffffff" stroke="#ff0000" points="1615.5708,-495.5 1615.5708,-513.5 1746.4292,-513.5 1746.4292,-495.5 1615.5708,-495.5"/>
<text text-anchor="middle" x="1681" y="-501.5" font-family="FreeSans" font-size="10.00" fill="#000000">DGtal/io/Style2DFactory.h</text>
</a>
</g>
</g>
<!-- Node39&#45;&gt;Node313 -->
<g id="edge125" class="edge">
<title>Node39&#45;&gt;Node313</title>
<path fill="none" stroke="#191970" d="M1665.8602,-665.3601C1668.3671,-638.7251 1675.7062,-560.7468 1679.1613,-524.0366"/>
<polygon fill="#191970" stroke="#191970" points="1682.683,-523.9691 1680.1355,-513.6851 1675.7138,-523.3131 1682.683,-523.9691"/>
</g>
<!-- Node319 -->
<g id="node50" class="node">
<title>Node319</title>
<g id="a_node50"><a xlink:href="Board2D_8ih_source.html" target="_top" xlink:title="DGtal/io/boards/Board2D.ih">
<polygon fill="#ffffff" stroke="#000000" points="1692.8574,-610.5 1692.8574,-628.5 1831.1426,-628.5 1831.1426,-610.5 1692.8574,-610.5"/>
<text text-anchor="middle" x="1762" y="-616.5" font-family="FreeSans" font-size="10.00" fill="#000000">DGtal/io/boards/Board2D.ih</text>
</a>
</g>
</g>
<!-- Node39&#45;&gt;Node319 -->
<g id="edge130" class="edge">
<title>Node39&#45;&gt;Node319</title>
<path fill="none" stroke="#191970" d="M1681.0176,-665.4179C1696.1819,-656.8195 1719.1871,-643.7754 1736.8075,-633.7844"/>
<polygon fill="#191970" stroke="#191970" points="1738.986,-636.5727 1745.9586,-628.5956 1735.5333,-630.4834 1738.986,-636.5727"/>
</g>
<!-- Node40&#45;&gt;Node15 -->
<g id="edge61" class="edge">
<title>Node40&#45;&gt;Node15</title>
<path fill="none" stroke="#191970" d="M399.5048,-371.7559C302.6807,-364.8717 63.6741,-345.847 35,-324 2.666,-299.3645 0,-280.1497 0,-239.5 0,-239.5 0,-239.5 0,-119.5 0,-66.7863 62.8943,-34.434 101.8549,-19.45"/>
<polygon fill="#191970" stroke="#191970" points="103.4842,-22.5802 111.6643,-15.847 101.0707,-16.0094 103.4842,-22.5802"/>
</g>
<!-- Node40&#45;&gt;Node17 -->
<g id="edge60" class="edge">
<title>Node40&#45;&gt;Node17</title>
<path fill="none" stroke="#191970" d="M399.671,-371.6019C307.4695,-364.6269 87.2496,-345.854 62,-324 32.4804,-298.4502 38,-278.541 38,-239.5 38,-239.5 38,-239.5 38,-179.5 38,-92.5191 109.3202,-89.8827 189,-55 241.6021,-31.9716 410.1559,-17.458 485.2743,-11.9784"/>
<polygon fill="#191970" stroke="#191970" points="485.9298,-15.4406 495.6544,-11.2356 485.4301,-8.4584 485.9298,-15.4406"/>
</g>
<!-- Node40&#45;&gt;Node43 -->
<g id="edge62" class="edge">
<title>Node40&#45;&gt;Node43</title>
<path fill="none" stroke="#191970" d="M480.4331,-368.6522C567.5471,-356.0531 772.9509,-326.3459 870.6165,-312.2208"/>
<polygon fill="#191970" stroke="#191970" points="871.1746,-315.6765 880.5706,-310.7811 870.1725,-308.7486 871.1746,-315.6765"/>
</g>
<!-- Node43&#45;&gt;Node1 -->
<g id="edge63" class="edge">
<title>Node43&#45;&gt;Node1</title>
<path fill="none" stroke="#191970" d="M924.6468,-295.4169C927.957,-256.8018 946.7092,-105.9255 1040,-55 1100.1715,-22.1536 2160.7428,-11.5937 2374.6013,-9.794"/>
<polygon fill="#191970" stroke="#191970" points="2374.7289,-13.2932 2384.6995,-9.7103 2374.6708,-6.2934 2374.7289,-13.2932"/>
</g>
<!-- Node43&#45;&gt;Node2 -->
<g id="edge64" class="edge">
<title>Node43&#45;&gt;Node2</title>
<path fill="none" stroke="#191970" d="M945.8038,-295.4239C956.2622,-291.4919 969.0828,-287.2748 981,-285 1150.9032,-252.568 1677.1322,-242.786 1866.8901,-240.2701"/>
<polygon fill="#191970" stroke="#191970" points="1867.0644,-243.7682 1877.018,-240.1385 1866.9734,-236.7688 1867.0644,-243.7682"/>
</g>
<!-- Node43&#45;&gt;Node4 -->
<g id="edge65" class="edge">
<title>Node43&#45;&gt;Node4</title>
<path fill="none" stroke="#191970" d="M938.9266,-295.3258C987.6826,-265.3596 1142.5113,-170.199 1201.6922,-133.8254"/>
<polygon fill="#191970" stroke="#191970" points="1203.6514,-136.7295 1210.3382,-128.5114 1199.986,-130.7659 1203.6514,-136.7295"/>
</g>
<!-- Node63&#45;&gt;Node1 -->
<g id="edge68" class="edge">
<title>Node63&#45;&gt;Node1</title>
<path fill="none" stroke="#191970" d="M2440.446,-295.4643C2454.3844,-291.8235 2470.908,-287.8258 2486,-285 2629.0519,-258.2149 2796,-325.0379 2796,-179.5 2796,-179.5 2796,-179.5 2796,-119.5 2796,-88.9131 2795.9718,-73.9976 2772,-55 2747.0283,-35.21 2536.6904,-18.2826 2449.5647,-12.053"/>
<polygon fill="#191970" stroke="#191970" points="2449.5502,-8.5433 2439.3284,-11.3299 2449.0569,-15.5259 2449.5502,-8.5433"/>
</g>
<!-- Node63&#45;&gt;Node2 -->
<g id="edge69" class="edge">
<title>Node63&#45;&gt;Node2</title>
<path fill="none" stroke="#191970" d="M2356.9626,-295.4739C2336.76,-292.018 2313.3128,-288.1521 2292,-285 2192.5681,-270.2943 2077.0884,-256.0548 2005.2681,-247.5334"/>
<polygon fill="#191970" stroke="#191970" points="2005.3376,-244.0173 1994.9956,-246.3182 2004.5152,-250.9688 2005.3376,-244.0173"/>
</g>
<!-- Node65&#45;&gt;Node2 -->
<g id="edge72" class="edge">
<title>Node65&#45;&gt;Node2</title>
<path fill="none" stroke="#191970" d="M1486.8785,-614.2537C1369.2449,-603.5994 1147,-574.2417 1147,-504.5 1147,-504.5 1147,-504.5 1147,-374.5 1147,-301.7567 1674.7909,-257.6983 1867.0278,-244.0636"/>
<polygon fill="#191970" stroke="#191970" points="1867.2896,-247.5539 1877.0194,-243.3609 1866.7985,-240.5711 1867.2896,-247.5539"/>
</g>
<!-- Node181 -->
<g id="node37" class="node">
<title>Node181</title>
<g id="a_node37"><a xlink:href="GridCurve_8h_source.html" target="_top" xlink:title="Header file for module GridCurve.cpp. ">
<polygon fill="#ffffff" stroke="#ff0000" points="1915.8721,-490.5 1915.8721,-518.5 2034.1279,-518.5 2034.1279,-490.5 1915.8721,-490.5"/>
<text text-anchor="start" x="1923.8721" y="-506.5" font-family="FreeSans" font-size="10.00" fill="#000000">DGtal/geometry/curves</text>
<text text-anchor="middle" x="1975" y="-496.5" font-family="FreeSans" font-size="10.00" fill="#000000">/GridCurve.h</text>
</a>
</g>
</g>
<!-- Node65&#45;&gt;Node181 -->
<g id="edge73" class="edge">
<title>Node65&#45;&gt;Node181</title>
<path fill="none" stroke="#191970" d="M1629.016,-612.3431C1705.5794,-604.0264 1822.1151,-589.456 1864,-574 1895.8243,-562.2565 1928.2556,-540.5955 1949.7773,-524.5653"/>
<polygon fill="#191970" stroke="#191970" points="1951.8967,-527.3507 1957.7443,-518.5157 1947.6635,-521.7758 1951.8967,-527.3507"/>
</g>
<!-- Node191 -->
<g id="node38" class="node">
<title>Node191</title>
<g id="a_node38"><a xlink:href="KhalimskySpaceND_8h_source.html" target="_top" xlink:title="DGtal/topology/Khalimsky\lSpaceND.h">
<polygon fill="#ffffff" stroke="#ff0000" points="1789.7539,-425.5 1789.7539,-453.5 1920.2461,-453.5 1920.2461,-425.5 1789.7539,-425.5"/>
<text text-anchor="start" x="1797.7539" y="-441.5" font-family="FreeSans" font-size="10.00" fill="#000000">DGtal/topology/Khalimsky</text>
<text text-anchor="middle" x="1855" y="-431.5" font-family="FreeSans" font-size="10.00" fill="#000000">SpaceND.h</text>
</a>
</g>
</g>
<!-- Node65&#45;&gt;Node191 -->
<g id="edge90" class="edge">
<title>Node65&#45;&gt;Node191</title>
<path fill="none" stroke="#191970" d="M1579.171,-610.3909C1616.0939,-594.1396 1694.1349,-558.1597 1755,-519 1782.7047,-501.1752 1811.925,-477.2712 1831.5754,-460.3432"/>
<polygon fill="#191970" stroke="#191970" points="1833.8754,-462.9814 1839.1236,-453.7777 1829.2814,-457.6998 1833.8754,-462.9814"/>
</g>
<!-- Node192 -->
<g id="node40" class="node">
<title>Node192</title>
<g id="a_node40"><a xlink:href="KhalimskyPreSpaceND_8h_source.html" target="_top" xlink:title="DGtal/topology/Khalimsky\lPreSpaceND.h">
<polygon fill="#ffffff" stroke="#ff0000" points="1673.7539,-360.5 1673.7539,-388.5 1804.2461,-388.5 1804.2461,-360.5 1673.7539,-360.5"/>
<text text-anchor="start" x="1681.7539" y="-376.5" font-family="FreeSans" font-size="10.00" fill="#000000">DGtal/topology/Khalimsky</text>
<text text-anchor="middle" x="1739" y="-366.5" font-family="FreeSans" font-size="10.00" fill="#000000">PreSpaceND.h</text>
</a>
</g>
</g>
<!-- Node65&#45;&gt;Node192 -->
<g id="edge91" class="edge">
<title>Node65&#45;&gt;Node192</title>
<path fill="none" stroke="#191970" d="M1559.8527,-610.3008C1564.6661,-588.0271 1579.1716,-530.0848 1607,-490 1634.6594,-450.1585 1678.9985,-415.1834 1708.5548,-394.442"/>
<polygon fill="#191970" stroke="#191970" points="1710.5998,-397.2833 1716.8451,-388.7248 1706.6258,-391.5207 1710.5998,-397.2833"/>
</g>
<!-- Node222 -->
<g id="node41" class="node">
<title>Node222</title>
<g id="a_node41"><a xlink:href="HyperRectDomain_8h_source.html" target="_top" xlink:title="DGtal/kernel/domains\l/HyperRectDomain.h">
<polygon fill="#ffffff" stroke="#ff0000" points="1383.9238,-425.5 1383.9238,-453.5 1496.0762,-453.5 1496.0762,-425.5 1383.9238,-425.5"/>
<text text-anchor="start" x="1391.9238" y="-441.5" font-family="FreeSans" font-size="10.00" fill="#000000">DGtal/kernel/domains</text>
<text text-anchor="middle" x="1440" y="-431.5" font-family="FreeSans" font-size="10.00" fill="#000000">/HyperRectDomain.h</text>
</a>
</g>
</g>
<!-- Node65&#45;&gt;Node222 -->
<g id="edge87" class="edge">
<title>Node65&#45;&gt;Node222</title>
<path fill="none" stroke="#191970" d="M1541.8784,-610.4971C1528.6143,-602.4045 1510.0935,-589.4365 1498,-574 1471.4396,-540.0974 1454.637,-492.1848 1446.3063,-463.6382"/>
<polygon fill="#191970" stroke="#191970" points="1449.5941,-462.3998 1443.5255,-453.7151 1442.8538,-464.2887 1449.5941,-462.3998"/>
</g>
<!-- Node255 -->
<g id="node42" class="node">
<title>Node255</title>
<g id="a_node42"><a xlink:href="Object_8h_source.html" target="_top" xlink:title="DGtal/topology/Object.h">
<polygon fill="#ffffff" stroke="#ff0000" points="1533.9165,-365.5 1533.9165,-383.5 1656.0835,-383.5 1656.0835,-365.5 1533.9165,-365.5"/>
<text text-anchor="middle" x="1595" y="-371.5" font-family="FreeSans" font-size="10.00" fill="#000000">DGtal/topology/Object.h</text>
</a>
</g>
</g>
<!-- Node65&#45;&gt;Node255 -->
<g id="edge92" class="edge">
<title>Node65&#45;&gt;Node255</title>
<path fill="none" stroke="#191970" d="M1551.9509,-610.2034C1546.5572,-601.3195 1539.0563,-587.3422 1536,-574 1527.6639,-537.6092 1527.266,-526.2973 1536,-490 1544.9479,-452.8136 1567.9974,-414.1245 1582.4953,-392.2989"/>
<polygon fill="#191970" stroke="#191970" points="1585.5625,-394.0129 1588.2964,-383.7769 1579.7759,-390.0739 1585.5625,-394.0129"/>
</g>
<!-- Node65&#45;&gt;Node297 -->
<g id="edge100" class="edge">
<title>Node65&#45;&gt;Node297</title>
<path fill="none" stroke="#191970" d="M1628.8756,-611.7656C1724.3587,-601.3458 1893.4043,-582.8983 1989.6419,-572.3962"/>
<polygon fill="#191970" stroke="#191970" points="1990.3034,-575.8449 1999.8647,-571.2806 1989.544,-568.8862 1990.3034,-575.8449"/>
</g>
<!-- Node181&#45;&gt;Node1 -->
<g id="edge74" class="edge">
<title>Node181&#45;&gt;Node1</title>
<path fill="none" stroke="#191970" d="M2034.3248,-490.6867C2112.5749,-471.672 2253.9446,-434.5567 2370,-389 2396.8275,-378.4691 2401.7552,-371.9091 2428,-360 2466.4809,-342.5386 2480.5233,-346.9583 2516,-324 2537.1139,-310.3364 2534.3404,-295.9105 2557,-285 2719.1726,-206.9146 2948,-359.4925 2948,-179.5 2948,-179.5 2948,-179.5 2948,-119.5 2948,-55.7966 2881.0631,-73.1498 2820,-55 2750.9738,-34.4833 2536.7089,-18.0067 2449.4992,-11.9753"/>
<polygon fill="#191970" stroke="#191970" points="2449.4853,-8.4663 2439.2697,-11.2756 2449.0076,-15.45 2449.4853,-8.4663"/>
</g>
<!-- Node181&#45;&gt;Node2 -->
<g id="edge75" class="edge">
<title>Node181&#45;&gt;Node2</title>
<path fill="none" stroke="#191970" d="M1971.6392,-490.0919C1964.6764,-459.6264 1948.6851,-386.3473 1941,-324 1938.283,-301.9578 1937.0314,-276.4925 1936.4619,-259.3271"/>
<polygon fill="#191970" stroke="#191970" points="1939.9488,-258.8104 1936.167,-248.9135 1932.9516,-259.0086 1939.9488,-258.8104"/>
</g>
<!-- Node181&#45;&gt;Node32 -->
<g id="edge76" class="edge">
<title>Node181&#45;&gt;Node32</title>
<path fill="none" stroke="#191970" d="M1977.8214,-490.2753C1981.9886,-472.7459 1991.3914,-443.0699 2010,-425 2095.6767,-341.8037 2150.4342,-373.7553 2259,-324 2293.5136,-308.1825 2300.2295,-300.2445 2335,-285 2422.4206,-246.6722 2528.6235,-210.1388 2584.0967,-191.7876"/>
<polygon fill="#191970" stroke="#191970" points="2585.4449,-195.0285 2593.8484,-188.5762 2583.2554,-188.3798 2585.4449,-195.0285"/>
</g>
<!-- Node181&#45;&gt;Node191 -->
<g id="edge77" class="edge">
<title>Node181&#45;&gt;Node191</title>
<path fill="none" stroke="#191970" d="M1948.9618,-490.396C1931.6643,-481.0265 1908.7516,-468.6155 1889.883,-458.395"/>
<polygon fill="#191970" stroke="#191970" points="1891.4473,-455.2619 1880.9874,-453.5765 1888.1133,-461.4169 1891.4473,-455.2619"/>
</g>
<!-- Node191&#45;&gt;Node1 -->
<g id="edge78" class="edge">
<title>Node191&#45;&gt;Node1</title>
<path fill="none" stroke="#191970" d="M1851.3509,-425.4906C1845.9688,-407.6233 1834.1759,-377.0089 1813,-360 1579.4278,-172.3905 984.0043,-330.3316 1187,-110 1269.479,-20.4772 2178.1218,-10.699 2374.658,-9.631"/>
<polygon fill="#191970" stroke="#191970" points="2374.791,-13.1304 2384.7733,-9.5804 2374.7559,-6.1305 2374.791,-13.1304"/>
</g>
<!-- Node191&#45;&gt;Node2 -->
<g id="edge79" class="edge">
<title>Node191&#45;&gt;Node2</title>
<path fill="none" stroke="#191970" d="M1857.7885,-425.276C1863.6143,-397.325 1878.5968,-333.72 1903,-285 1908.0066,-275.0045 1915.1409,-264.8432 1921.496,-256.6661"/>
<polygon fill="#191970" stroke="#191970" points="1924.3901,-258.6531 1927.9485,-248.6737 1918.9435,-254.2559 1924.3901,-258.6531"/>
</g>
<!-- Node115 -->
<g id="node39" class="node">
<title>Node115</title>
<g id="a_node39"><a xlink:href="SpaceND_8h_source.html" target="_top" xlink:title="DGtal/kernel/SpaceND.h">
<polygon fill="#ffffff" stroke="#ff0000" points="2124.2539,-295.5 2124.2539,-313.5 2249.7461,-313.5 2249.7461,-295.5 2124.2539,-295.5"/>
<text text-anchor="middle" x="2187" y="-301.5" font-family="FreeSans" font-size="10.00" fill="#000000">DGtal/kernel/SpaceND.h</text>
</a>
</g>
</g>
<!-- Node191&#45;&gt;Node115 -->
<g id="edge80" class="edge">
<title>Node191&#45;&gt;Node115</title>
<path fill="none" stroke="#191970" d="M1889.5903,-425.4347C1954.3833,-399.0881 2093.1114,-342.6776 2155.4831,-317.3156"/>
<polygon fill="#191970" stroke="#191970" points="2156.8697,-320.5301 2164.8147,-313.5211 2154.2329,-314.0457 2156.8697,-320.5301"/>
</g>
<!-- Node191&#45;&gt;Node192 -->
<g id="edge83" class="edge">
<title>Node191&#45;&gt;Node192</title>
<path fill="none" stroke="#191970" d="M1829.8297,-425.396C1813.2608,-416.1117 1791.3622,-403.8409 1773.2186,-393.6742"/>
<polygon fill="#191970" stroke="#191970" points="1774.5559,-390.4116 1764.1212,-388.5765 1771.134,-396.5182 1774.5559,-390.4116"/>
</g>
<!-- Node115&#45;&gt;Node1 -->
<g id="edge81" class="edge">
<title>Node115&#45;&gt;Node1</title>
<path fill="none" stroke="#191970" d="M2249.9454,-295.6272C2276.2091,-292.0758 2307.0521,-288.1007 2335,-285 2423.4839,-275.1832 2663.8959,-303.8744 2734,-249 2759.7328,-228.8575 2758,-212.1788 2758,-179.5 2758,-179.5 2758,-179.5 2758,-119.5 2758,-88.9131 2757.832,-74.1727 2734,-55 2690.9192,-20.3417 2525.2664,-12.0828 2449.8218,-10.1152"/>
<polygon fill="#191970" stroke="#191970" points="2449.4504,-6.6055 2439.3705,-9.8681 2449.2849,-13.6036 2449.4504,-6.6055"/>
</g>
<!-- Node115&#45;&gt;Node2 -->
<g id="edge82" class="edge">
<title>Node115&#45;&gt;Node2</title>
<path fill="none" stroke="#191970" d="M2154.5195,-295.4292C2142.4399,-292.0953 2128.6076,-288.3244 2116,-285 2070.7023,-273.0557 2018.8225,-260.0086 1982.4338,-250.9605"/>
<polygon fill="#191970" stroke="#191970" points="1983.1482,-247.5317 1972.5995,-248.5188 1981.4614,-254.3254 1983.1482,-247.5317"/>
</g>
<!-- Node192&#45;&gt;Node1 -->
<g id="edge84" class="edge">
<title>Node192&#45;&gt;Node1</title>
<path fill="none" stroke="#191970" d="M1673.6889,-361.3468C1670.7564,-360.8685 1667.8499,-360.4165 1665,-360 1501.0778,-336.0443 1445.0923,-391.9372 1294,-324 1171.0764,-268.7286 1060.4357,-152.0096 1154,-55 1175.7511,-32.448 2168.5588,-13.7795 2374.7451,-10.1418"/>
<polygon fill="#191970" stroke="#191970" points="2374.8403,-13.6407 2384.7773,-9.9657 2374.7174,-6.6418 2374.8403,-13.6407"/>
</g>
<!-- Node192&#45;&gt;Node2 -->
<g id="edge85" class="edge">
<title>Node192&#45;&gt;Node2</title>
<path fill="none" stroke="#191970" d="M1756.0892,-360.4471C1778.6034,-342.1907 1819.7183,-309.732 1857,-285 1874.0388,-273.6968 1893.9989,-262.2146 1909.5927,-253.6126"/>
<polygon fill="#191970" stroke="#191970" points="1911.5723,-256.5196 1918.6728,-248.6561 1908.2183,-250.3754 1911.5723,-256.5196"/>
</g>
<!-- Node192&#45;&gt;Node115 -->
<g id="edge86" class="edge">
<title>Node192&#45;&gt;Node115</title>
<path fill="none" stroke="#191970" d="M1804.3169,-366.8302C1895.9398,-355.8859 2057.9212,-335.8094 2116,-324 2126.3344,-321.8987 2137.3816,-319.1265 2147.609,-316.3342"/>
<polygon fill="#191970" stroke="#191970" points="2148.8226,-319.629 2157.5064,-313.5592 2146.9327,-312.8889 2148.8226,-319.629"/>
</g>
<!-- Node222&#45;&gt;Node1 -->
<g id="edge88" class="edge">
<title>Node222&#45;&gt;Node1</title>
<path fill="none" stroke="#191970" d="M1383.8203,-426.8769C1323.5957,-411.0741 1227.7875,-379.1456 1162,-324 1068.6801,-245.7757 1008.2831,-121.9427 1110,-55 1164.1737,-19.3468 2166.6272,-11.0556 2374.4686,-9.717"/>
<polygon fill="#191970" stroke="#191970" points="2374.6022,-13.2163 2384.58,-9.6534 2374.5581,-6.2165 2374.6022,-13.2163"/>
</g>
<!-- Node222&#45;&gt;Node2 -->
<g id="edge89" class="edge">
<title>Node222&#45;&gt;Node2</title>
<path fill="none" stroke="#191970" d="M1452.2898,-425.2259C1467.7996,-407.9183 1495.9743,-378.7434 1525,-360 1632.4049,-290.643 1780.9402,-260.0941 1866.9038,-247.5102"/>
<polygon fill="#191970" stroke="#191970" points="1867.4075,-250.9739 1876.814,-246.0987 1866.4204,-244.0438 1867.4075,-250.9739"/>
</g>
<!-- Node255&#45;&gt;Node1 -->
<g id="edge93" class="edge">
<title>Node255&#45;&gt;Node1</title>
<path fill="none" stroke="#191970" d="M1533.5446,-371.5532C1441.6072,-366.256 1273.4483,-352.8693 1221,-324 1111.0403,-263.4745 1033.4918,-128.8279 1135,-55 1186.3893,-17.6241 2168.9557,-10.7036 2374.4998,-9.6631"/>
<polygon fill="#191970" stroke="#191970" points="2374.7942,-13.1618 2384.7769,-9.6128 2374.7598,-6.1619 2374.7942,-13.1618"/>
</g>
<!-- Node255&#45;&gt;Node2 -->
<g id="edge95" class="edge">
<title>Node255&#45;&gt;Node2</title>
<path fill="none" stroke="#191970" d="M1614.2646,-365.4035C1650.3118,-348.537 1730.5912,-311.7016 1800,-285 1832.2853,-272.5798 1869.5853,-260.2391 1896.9472,-251.5499"/>
<polygon fill="#191970" stroke="#191970" points="1898.0668,-254.8669 1906.5506,-248.5205 1895.9609,-248.1911 1898.0668,-254.8669"/>
</g>
<!-- Node255&#45;&gt;Node15 -->
<g id="edge94" class="edge">
<title>Node255&#45;&gt;Node15</title>
<path fill="none" stroke="#191970" d="M1533.5721,-372.3163C1249.3913,-361.8181 76,-313.9623 76,-239.5 76,-239.5 76,-239.5 76,-179.5 76,-121.7097 105.5546,-58.1661 121.7226,-27.7279"/>
<polygon fill="#191970" stroke="#191970" points="124.9143,-29.1856 126.6305,-18.7306 118.7691,-25.8334 124.9143,-29.1856"/>
</g>
<!-- Node255&#45;&gt;Node63 -->
<g id="edge96" class="edge">
<title>Node255&#45;&gt;Node63</title>
<path fill="none" stroke="#191970" d="M1633.7074,-365.4472C1643.8412,-363.3621 1654.7892,-361.3598 1665,-360 1927.1699,-325.0863 1995.7165,-349.1758 2259,-324 2284.3361,-321.5773 2312.0007,-318.1692 2336.5395,-314.8785"/>
<polygon fill="#191970" stroke="#191970" points="2337.0515,-318.3412 2346.4899,-313.528 2336.11,-311.4048 2337.0515,-318.3412"/>
</g>
<!-- Node257 -->
<g id="node43" class="node">
<title>Node257</title>
<g id="a_node43"><a xlink:href="DigitalSetSelector_8h_source.html" target="_top" xlink:title="DGtal/kernel/sets/Digital\lSetSelector.h">
<polygon fill="#ffffff" stroke="#ff0000" points="1983.3696,-290.5 1983.3696,-318.5 2106.6304,-318.5 2106.6304,-290.5 1983.3696,-290.5"/>
<text text-anchor="start" x="1991.3696" y="-306.5" font-family="FreeSans" font-size="10.00" fill="#000000">DGtal/kernel/sets/Digital</text>
<text text-anchor="middle" x="2045" y="-296.5" font-family="FreeSans" font-size="10.00" fill="#000000">SetSelector.h</text>
</a>
</g>
</g>
<!-- Node255&#45;&gt;Node257 -->
<g id="edge97" class="edge">
<title>Node255&#45;&gt;Node257</title>
<path fill="none" stroke="#191970" d="M1636.7492,-365.4299C1646.0299,-363.5315 1655.8335,-361.6173 1665,-360 1771.9796,-341.1247 1896.7145,-323.794 1973.2676,-313.6879"/>
<polygon fill="#191970" stroke="#191970" points="1973.8233,-317.1451 1983.2815,-312.3709 1972.9105,-310.2048 1973.8233,-317.1451"/>
</g>
<!-- Node257&#45;&gt;Node1 -->
<g id="edge98" class="edge">
<title>Node257&#45;&gt;Node1</title>
<path fill="none" stroke="#191970" d="M2092.6349,-290.4235C2100.085,-288.4559 2107.7249,-286.5725 2115,-285 2248.3928,-256.1676 2720,-315.9733 2720,-179.5 2720,-179.5 2720,-179.5 2720,-119.5 2720,-62.5984 2531.2068,-27.3696 2449.2406,-14.756"/>
<polygon fill="#191970" stroke="#191970" points="2449.7431,-11.2923 2439.3329,-13.2618 2448.6991,-18.214 2449.7431,-11.2923"/>
</g>
<!-- Node257&#45;&gt;Node2 -->
<g id="edge99" class="edge">
<title>Node257&#45;&gt;Node2</title>
<path fill="none" stroke="#191970" d="M2021.3486,-290.396C2003.1371,-279.5359 1978.0732,-264.5895 1959.8197,-253.7044"/>
<polygon fill="#191970" stroke="#191970" points="1961.5984,-250.69 1951.2169,-248.5743 1958.0131,-256.7022 1961.5984,-250.69"/>
</g>
<!-- Node297&#45;&gt;Node1 -->
<g id="edge101" class="edge">
<title>Node297&#45;&gt;Node1</title>
<path fill="none" stroke="#191970" d="M2124.1076,-563.8576C2353.2488,-560.6785 3138,-542.2876 3138,-439.5 3138,-439.5 3138,-439.5 3138,-119.5 3138,-74.5161 3101.7663,-71.7073 3060,-55 3003.3476,-32.338 2579.3812,-15.4748 2449.6242,-10.8017"/>
<polygon fill="#191970" stroke="#191970" points="2449.5115,-7.2955 2439.3931,-10.4366 2449.2618,-14.2911 2449.5115,-7.2955"/>
</g>
<!-- Node297&#45;&gt;Node2 -->
<g id="edge102" class="edge">
<title>Node297&#45;&gt;Node2</title>
<path fill="none" stroke="#191970" d="M2060.1093,-555.1914C2057.1104,-540.9565 2050.7962,-513.0085 2043,-490 2027.2373,-443.4806 1966.6053,-307.5236 1944.2984,-257.9015"/>
<polygon fill="#191970" stroke="#191970" points="1947.4465,-256.3682 1940.15,-248.6863 1941.0634,-259.2417 1947.4465,-256.3682"/>
</g>
<!-- Node297&#45;&gt;Node181 -->
<g id="edge116" class="edge">
<title>Node297&#45;&gt;Node181</title>
<path fill="none" stroke="#191970" d="M2048.7866,-555.3873C2036.9451,-547.2208 2019.1594,-534.9548 2004.0169,-524.5116"/>
<polygon fill="#191970" stroke="#191970" points="2005.6907,-521.4144 1995.4715,-518.6183 2001.7166,-527.1769 2005.6907,-521.4144"/>
</g>
<!-- Node297&#45;&gt;Node191 -->
<g id="edge114" class="edge">
<title>Node297&#45;&gt;Node191</title>
<path fill="none" stroke="#191970" d="M1999.7441,-556.5243C1969.4721,-550.216 1933.9106,-538.9751 1907,-519 1887.6696,-504.6515 1873.4771,-480.8189 1864.848,-462.9827"/>
<polygon fill="#191970" stroke="#191970" points="1867.981,-461.4179 1860.6292,-453.7889 1861.6188,-464.3374 1867.981,-461.4179"/>
</g>
<!-- Node297&#45;&gt;Node115 -->
<g id="edge103" class="edge">
<title>Node297&#45;&gt;Node115</title>
<path fill="none" stroke="#191970" d="M2068.4097,-555.3301C2074.5791,-546.308 2083.9807,-532.03 2091,-519 2128.6878,-449.0397 2164.5986,-361.3686 2179.6202,-323.4343"/>
<polygon fill="#191970" stroke="#191970" points="2183.038,-324.3066 2183.4396,-313.7194 2176.5233,-321.7454 2183.038,-324.3066"/>
</g>
<!-- Node297&#45;&gt;Node192 -->
<g id="edge115" class="edge">
<title>Node297&#45;&gt;Node192</title>
<path fill="none" stroke="#191970" d="M2001.9837,-555.489C1964.6331,-548.5177 1916.2201,-536.9603 1876,-519 1829.2865,-498.1401 1815.0552,-492.1776 1781,-454 1766.3715,-437.6007 1755.1306,-415.1959 1747.9754,-398.3502"/>
<polygon fill="#191970" stroke="#191970" points="1751.0564,-396.6344 1744.0544,-388.6832 1744.5697,-399.2655 1751.0564,-396.6344"/>
</g>
<!-- Node297&#45;&gt;Node222 -->
<g id="edge104" class="edge">
<title>Node297&#45;&gt;Node222</title>
<path fill="none" stroke="#191970" d="M1999.6648,-560.923C1892.8271,-554.3495 1679.2629,-539.1539 1607,-519 1557.3823,-505.1618 1504.3731,-477.4494 1471.7062,-458.6846"/>
<polygon fill="#191970" stroke="#191970" points="1473.455,-455.6529 1463.0516,-453.6483 1469.9342,-461.7031 1473.455,-455.6529"/>
</g>
<!-- Node297&#45;&gt;Node255 -->
<g id="edge113" class="edge">
<title>Node297&#45;&gt;Node255</title>
<path fill="none" stroke="#191970" d="M1999.9692,-559.8553C1949.0607,-554.4518 1875.8731,-542.9824 1816,-519 1733.6615,-486.019 1649.5409,-420.3468 1613.3683,-390.2408"/>
<polygon fill="#191970" stroke="#191970" points="1615.5241,-387.4805 1605.6187,-383.721 1611.0177,-392.8371 1615.5241,-387.4805"/>
</g>
<!-- Node297&#45;&gt;Node257 -->
<g id="edge105" class="edge">
<title>Node297&#45;&gt;Node257</title>
<path fill="none" stroke="#191970" d="M2065.7305,-555.2787C2069.1805,-546.2185 2074.0583,-531.9132 2076,-519 2082.2122,-477.6867 2081.246,-466.4471 2076,-425 2071.6761,-390.8378 2060.7169,-352.4971 2053.0625,-328.4281"/>
<polygon fill="#191970" stroke="#191970" points="2056.3334,-327.1685 2049.9137,-318.7401 2049.6762,-329.3323 2056.3334,-327.1685"/>
</g>
<!-- Node298 -->
<g id="node45" class="node">
<title>Node298</title>
<g id="a_node45"><a xlink:href="DigitalTopology_8h_source.html" target="_top" xlink:title="DGtal/topology/DigitalTopology.h">
<polygon fill="#ffffff" stroke="#ff0000" points="2565.8271,-295.5 2565.8271,-313.5 2726.1729,-313.5 2726.1729,-295.5 2565.8271,-295.5"/>
<text text-anchor="middle" x="2646" y="-301.5" font-family="FreeSans" font-size="10.00" fill="#000000">DGtal/topology/DigitalTopology.h</text>
</a>
</g>
</g>
<!-- Node297&#45;&gt;Node298 -->
<g id="edge106" class="edge">
<title>Node297&#45;&gt;Node298</title>
<path fill="none" stroke="#191970" d="M2099.038,-555.421C2129.2501,-547.4536 2172.7116,-534.6992 2209,-519 2340.3445,-462.1772 2358.8069,-419.4134 2489,-360 2527.4463,-342.4551 2573.1768,-326.8508 2605.3371,-316.6915"/>
<polygon fill="#191970" stroke="#191970" points="2606.7729,-319.9099 2615.2755,-313.5888 2604.6868,-313.228 2606.7729,-319.9099"/>
</g>
<!-- Node305 -->
<g id="node46" class="node">
<title>Node305</title>
<g id="a_node46"><a xlink:href="MetricAdjacency_8h_source.html" target="_top" xlink:title="DGtal/topology/MetricAdjacency.h">
<polygon fill="#ffffff" stroke="#ff0000" points="2195.0562,-365.5 2195.0562,-383.5 2360.9438,-383.5 2360.9438,-365.5 2195.0562,-365.5"/>
<text text-anchor="middle" x="2278" y="-371.5" font-family="FreeSans" font-size="10.00" fill="#000000">DGtal/topology/MetricAdjacency.h</text>
</a>
</g>
</g>
<!-- Node297&#45;&gt;Node305 -->
<g id="edge109" class="edge">
<title>Node297&#45;&gt;Node305</title>
<path fill="none" stroke="#191970" d="M2103.1952,-555.4584C2127.7024,-548.5391 2158.332,-537.0477 2181,-519 2224.9814,-483.9832 2256.2709,-423.5354 2270.0845,-393.1211"/>
<polygon fill="#191970" stroke="#191970" points="2273.4035,-394.2688 2274.2339,-383.7066 2266.998,-391.4456 2273.4035,-394.2688"/>
</g>
<!-- Node307 -->
<g id="node47" class="node">
<title>Node307</title>
<g id="a_node47"><a xlink:href="ExactPredicateLpSeparableMetric_8h_source.html" target="_top" xlink:title="DGtal/geometry/volumes\l/distance/ExactPredicateLpSeparable\lMetric.h">
<polygon fill="#ffffff" stroke="#ff0000" points="2927.6138,-285.5 2927.6138,-323.5 3110.3862,-323.5 3110.3862,-285.5 2927.6138,-285.5"/>
<text text-anchor="start" x="2935.6138" y="-311.5" font-family="FreeSans" font-size="10.00" fill="#000000">DGtal/geometry/volumes</text>
<text text-anchor="start" x="2935.6138" y="-301.5" font-family="FreeSans" font-size="10.00" fill="#000000">/distance/ExactPredicateLpSeparable</text>
<text text-anchor="middle" x="3019" y="-291.5" font-family="FreeSans" font-size="10.00" fill="#000000">Metric.h</text>
</a>
</g>
</g>
<!-- Node297&#45;&gt;Node307 -->
<g id="edge117" class="edge">
<title>Node297&#45;&gt;Node307</title>
<path fill="none" stroke="#191970" d="M2121.2795,-555.4814C2171.5596,-547.3793 2245.4351,-534.406 2309,-519 2549.6411,-460.6767 2829.3634,-368.9475 2953.6824,-326.9045"/>
<polygon fill="#191970" stroke="#191970" points="2955.0887,-330.1235 2963.4368,-323.5997 2952.8425,-323.4937 2955.0887,-330.1235"/>
</g>
<!-- Node310 -->
<g id="node48" class="node">
<title>Node310</title>
<g id="a_node48"><a xlink:href="ExactPredicateLpPowerSeparableMetric_8h_source.html" target="_top" xlink:title="DGtal/geometry/volumes\l/distance/ExactPredicateLpPower\lSeparableMetric.h">
<polygon fill="#ffffff" stroke="#ff0000" points="2744.2368,-285.5 2744.2368,-323.5 2909.7632,-323.5 2909.7632,-285.5 2744.2368,-285.5"/>
<text text-anchor="start" x="2752.2368" y="-311.5" font-family="FreeSans" font-size="10.00" fill="#000000">DGtal/geometry/volumes</text>
<text text-anchor="start" x="2752.2368" y="-301.5" font-family="FreeSans" font-size="10.00" fill="#000000">/distance/ExactPredicateLpPower</text>
<text text-anchor="middle" x="2827" y="-291.5" font-family="FreeSans" font-size="10.00" fill="#000000">SeparableMetric.h</text>
</a>
</g>
</g>
<!-- Node297&#45;&gt;Node310 -->
<g id="edge121" class="edge">
<title>Node297&#45;&gt;Node310</title>
<path fill="none" stroke="#191970" d="M2105.9412,-555.4913C2144.506,-547.2134 2201.9365,-533.9819 2251,-519 2445.7691,-459.5256 2670.2533,-369.5182 2771.9064,-327.554"/>
<polygon fill="#191970" stroke="#191970" points="2773.4524,-330.7022 2781.3552,-323.6456 2770.7767,-324.2338 2773.4524,-330.7022"/>
</g>
<!-- Node298&#45;&gt;Node1 -->
<g id="edge107" class="edge">
<title>Node298&#45;&gt;Node1</title>
<path fill="none" stroke="#191970" d="M2684.8896,-295.463C2700.433,-291.9863 2718.5237,-288.1087 2735,-285 2835.3786,-266.0607 2883.7261,-314.6336 2962,-249 2987.0406,-228.0031 2986,-212.1788 2986,-179.5 2986,-179.5 2986,-179.5 2986,-119.5 2986,-88.9131 2986.3764,-73.4756 2962,-55 2921.3207,-24.1679 2567.2651,-13.1384 2449.7365,-10.3076"/>
<polygon fill="#191970" stroke="#191970" points="2449.5169,-6.8015 2439.4376,-10.066 2449.3528,-13.7996 2449.5169,-6.8015"/>
</g>
<!-- Node298&#45;&gt;Node2 -->
<g id="edge108" class="edge">
<title>Node298&#45;&gt;Node2</title>
<path fill="none" stroke="#191970" d="M2574.181,-295.4689C2545.2556,-291.9735 2511.5652,-288.0811 2481,-285 2310.037,-267.7662 2108.4287,-252.16 2004.9415,-244.4928"/>
<polygon fill="#191970" stroke="#191970" points="2005.1652,-240.9998 1994.9344,-243.7535 2004.6494,-247.9808 2005.1652,-240.9998"/>
</g>
<!-- Node305&#45;&gt;Node1 -->
<g id="edge110" class="edge">
<title>Node305&#45;&gt;Node1</title>
<path fill="none" stroke="#191970" d="M2325.7683,-365.4262C2376.9461,-355.2129 2454.407,-338.1925 2481,-324 2503.762,-311.8521 2500.6031,-295.8749 2524,-285 2632.9838,-234.3444 2691.4974,-314.8991 2792,-249 2822.1816,-229.2101 2834,-215.5911 2834,-179.5 2834,-179.5 2834,-179.5 2834,-119.5 2834,-85.7683 2822.4511,-73.1208 2794,-55 2765.2808,-36.7084 2539.9189,-18.6865 2449.4233,-12.1115"/>
<polygon fill="#191970" stroke="#191970" points="2449.5544,-8.612 2439.3289,-11.3851 2449.0519,-15.5939 2449.5544,-8.612"/>
</g>
<!-- Node305&#45;&gt;Node2 -->
<g id="edge111" class="edge">
<title>Node305&#45;&gt;Node2</title>
<path fill="none" stroke="#191970" d="M2279.1354,-365.2762C2280.817,-346.9996 2281.6474,-306.1312 2259,-285 2240.76,-267.9811 2094.599,-252.834 2005.259,-245.0451"/>
<polygon fill="#191970" stroke="#191970" points="2005.457,-241.5493 1995.1934,-244.1777 2004.8559,-248.5235 2005.457,-241.5493"/>
</g>
<!-- Node305&#45;&gt;Node115 -->
<g id="edge112" class="edge">
<title>Node305&#45;&gt;Node115</title>
<path fill="none" stroke="#191970" d="M2266.1033,-365.3487C2251.1158,-353.8198 2225.1376,-333.8366 2207.0578,-319.9291"/>
<polygon fill="#191970" stroke="#191970" points="2208.9598,-316.9765 2198.8996,-313.6535 2204.6918,-322.5249 2208.9598,-316.9765"/>
</g>
<!-- Node307&#45;&gt;Node1 -->
<g id="edge118" class="edge">
<title>Node307&#45;&gt;Node1</title>
<path fill="none" stroke="#191970" d="M3041.563,-285.3392C3065.5303,-262.7212 3100,-222.6851 3100,-179.5 3100,-179.5 3100,-179.5 3100,-119.5 3100,-74.5161 3063.7298,-71.7981 3022,-55 2968.9924,-33.6621 2573.9499,-16.0424 2449.4582,-10.9711"/>
<polygon fill="#191970" stroke="#191970" points="2449.4108,-7.4664 2439.2777,-10.5599 2449.1282,-14.4607 2449.4108,-7.4664"/>
</g>
<!-- Node307&#45;&gt;Node2 -->
<g id="edge120" class="edge">
<title>Node307&#45;&gt;Node2</title>
<path fill="none" stroke="#191970" d="M2927.5321,-286.108C2924.6593,-285.7084 2921.8099,-285.3372 2919,-285 2741.6283,-263.7173 2198.0329,-246.8421 2004.9413,-241.3766"/>
<polygon fill="#191970" stroke="#191970" points="2005.0119,-237.8773 1994.9173,-241.0943 2004.8147,-244.8746 2005.0119,-237.8773"/>
</g>
<!-- Node307&#45;&gt;Node12 -->
<g id="edge119" class="edge">
<title>Node307&#45;&gt;Node12</title>
<path fill="none" stroke="#191970" d="M3005.7839,-285.3985C2980.9117,-249.4505 2927.4801,-172.2252 2903.3158,-137.3001"/>
<polygon fill="#191970" stroke="#191970" points="2905.8924,-134.8727 2897.3243,-128.6406 2900.1359,-138.8556 2905.8924,-134.8727"/>
</g>
<!-- Node310&#45;&gt;Node1 -->
<g id="edge122" class="edge">
<title>Node310&#45;&gt;Node1</title>
<path fill="none" stroke="#191970" d="M2899.1551,-285.4721C2926.7604,-276.5574 2957.8679,-264.4454 2984,-249 3023.9718,-225.3746 3062,-225.9317 3062,-179.5 3062,-179.5 3062,-179.5 3062,-119.5 3062,-74.5161 3025.6883,-71.9008 2984,-55 2934.6551,-34.9951 2568.7784,-16.6694 2449.487,-11.1709"/>
<polygon fill="#191970" stroke="#191970" points="2449.5248,-7.6691 2439.3753,-10.7084 2449.2049,-14.6618 2449.5248,-7.6691"/>
</g>
<!-- Node310&#45;&gt;Node2 -->
<g id="edge124" class="edge">
<title>Node310&#45;&gt;Node2</title>
<path fill="none" stroke="#191970" d="M2743.8537,-286.2852C2740.8711,-285.8204 2737.913,-285.3894 2735,-285 2594.7976,-266.2602 2172.1734,-248.547 2005.0724,-242.0821"/>
<polygon fill="#191970" stroke="#191970" points="2005.0449,-238.5786 1994.9175,-241.6909 2004.7753,-245.5734 2005.0449,-238.5786"/>
</g>
<!-- Node310&#45;&gt;Node12 -->
<g id="edge123" class="edge">
<title>Node310&#45;&gt;Node12</title>
<path fill="none" stroke="#191970" d="M2834.4844,-285.3078C2838.5836,-274.6521 2843.6914,-261.1355 2848,-249 2861.8778,-209.9123 2876.8869,-163.7147 2884.988,-138.4172"/>
<polygon fill="#191970" stroke="#191970" points="2888.3989,-139.2411 2888.1046,-128.6503 2881.7302,-137.1131 2888.3989,-139.2411"/>
</g>
<!-- Node313&#45;&gt;Node191 -->
<g id="edge127" class="edge">
<title>Node313&#45;&gt;Node191</title>
<path fill="none" stroke="#191970" d="M1705.194,-495.462C1731.6259,-485.588 1774.6191,-469.5273 1807.7831,-457.1385"/>
<polygon fill="#191970" stroke="#191970" points="1809.1486,-460.3647 1817.2915,-453.5865 1806.6989,-453.8073 1809.1486,-460.3647"/>
</g>
<!-- Node313&#45;&gt;Node192 -->
<g id="edge128" class="edge">
<title>Node313&#45;&gt;Node192</title>
<path fill="none" stroke="#191970" d="M1685.1712,-495.1507C1694.1399,-475.0485 1715.4934,-427.1873 1728.4482,-398.1506"/>
<polygon fill="#191970" stroke="#191970" points="1731.768,-399.2997 1732.6462,-388.7413 1725.3754,-396.4476 1731.768,-399.2997"/>
</g>
<!-- Node313&#45;&gt;Node222 -->
<g id="edge126" class="edge">
<title>Node313&#45;&gt;Node222</title>
<path fill="none" stroke="#191970" d="M1647.49,-495.462C1610.016,-485.3549 1548.5081,-468.7657 1502.1685,-456.2674"/>
<polygon fill="#191970" stroke="#191970" points="1502.7949,-452.8114 1492.2285,-453.5865 1500.972,-459.5699 1502.7949,-452.8114"/>
</g>
<!-- Node313&#45;&gt;Node255 -->
<g id="edge129" class="edge">
<title>Node313&#45;&gt;Node255</title>
<path fill="none" stroke="#191970" d="M1668.3585,-495.3192C1656.347,-486.0449 1638.4642,-470.7294 1627,-454 1614.1676,-435.2741 1605.2644,-410.6293 1600.1651,-393.773"/>
<polygon fill="#191970" stroke="#191970" points="1603.4741,-392.6141 1597.3604,-383.9612 1596.7437,-394.538 1603.4741,-392.6141"/>
</g>
</g>
</svg>
