<?xml version="1.0" encoding="UTF-8" standalone="no"?>
<!DOCTYPE svg PUBLIC "-//W3C//DTD SVG 1.1//EN"
 "http://www.w3.org/Graphics/SVG/1.1/DTD/svg11.dtd">
<!-- Generated by graphviz version 2.40.1 (20161225.0304)
 -->
<!-- Title: DGtal::functors::Thresholder&lt; T, true, false &gt; Pages: 1 -->
<svg width="150pt" height="102pt"
 viewBox="0.00 0.00 149.61 102.00" xmlns="http://www.w3.org/2000/svg" xmlns:xlink="http://www.w3.org/1999/xlink">
<g id="graph0" class="graph" transform="scale(1 1) rotate(0) translate(4 98)">
<title>DGtal::functors::Thresholder&lt; T, true, false &gt;</title>
<polygon fill="#ffffff" stroke="transparent" points="-4,4 -4,-98 145.6055,-98 145.6055,4 -4,4"/>
<!-- Node0 -->
<g id="node1" class="node">
<title>Node0</title>
<polygon fill="#bfbfbf" stroke="#000000" points="0,-.5 0,-28.5 141.6055,-28.5 141.6055,-.5 0,-.5"/>
<text text-anchor="start" x="8" y="-16.5" font-family="FreeSans" font-size="10.00" fill="#000000">DGtal::functors::Thresholder</text>
<text text-anchor="middle" x="70.8027" y="-6.5" font-family="FreeSans" font-size="10.00" fill="#000000">&lt; T, true, false &gt;</text>
</g>
<!-- Node1 -->
<g id="node2" class="node">
<title>Node1</title>
<polygon fill="#ffffff" stroke="#bfbfbf" points="20.5542,-65.5 20.5542,-93.5 121.0513,-93.5 121.0513,-65.5 20.5542,-65.5"/>
<text text-anchor="start" x="28.5542" y="-81.5" font-family="FreeSans" font-size="10.00" fill="#000000">std::unary_function</text>
<text text-anchor="middle" x="70.8027" y="-71.5" font-family="FreeSans" font-size="10.00" fill="#000000">&lt; T, bool &gt;</text>
</g>
<!-- Node1&#45;&gt;Node0 -->
<g id="edge1" class="edge">
<title>Node1&#45;&gt;Node0</title>
<path fill="none" stroke="#191970" d="M70.8027,-55.1081C70.8027,-46.1539 70.8027,-36.3227 70.8027,-28.5765"/>
<polygon fill="#191970" stroke="#191970" points="67.3028,-55.3959 70.8027,-65.396 74.3028,-55.396 67.3028,-55.3959"/>
</g>
</g>
</svg>
