<?xml version="1.0" encoding="UTF-8" standalone="no"?>
<!DOCTYPE svg PUBLIC "-//W3C//DTD SVG 1.1//EN"
 "http://www.w3.org/Graphics/SVG/1.1/DTD/svg11.dtd">
<!-- Generated by graphviz version 2.40.1 (20161225.0304)
 -->
<!-- Title: testAngleLinearMinimizer.cpp Pages: 1 -->
<svg width="2606pt" height="587pt"
 viewBox="0.00 0.00 2606.00 587.00" xmlns="http://www.w3.org/2000/svg" xmlns:xlink="http://www.w3.org/1999/xlink">
<g id="graph0" class="graph" transform="scale(1 1) rotate(0) translate(4 583)">
<title>testAngleLinearMinimizer.cpp</title>
<polygon fill="#ffffff" stroke="transparent" points="-4,4 -4,-583 2602,-583 2602,4 -4,4"/>
<!-- Node0 -->
<g id="node1" class="node">
<title>Node0</title>
<polygon fill="#bfbfbf" stroke="#000000" points="756.6875,-560.5 756.6875,-578.5 903.3125,-578.5 903.3125,-560.5 756.6875,-560.5"/>
<text text-anchor="middle" x="830" y="-566.5" font-family="FreeSans" font-size="10.00" fill="#000000">testAngleLinearMinimizer.cpp</text>
</g>
<!-- Node1 -->
<g id="node2" class="node">
<title>Node1</title>
<polygon fill="#ffffff" stroke="#bfbfbf" points="1069.8276,-.5 1069.8276,-18.5 1124.1724,-18.5 1124.1724,-.5 1069.8276,-.5"/>
<text text-anchor="middle" x="1097" y="-6.5" font-family="FreeSans" font-size="10.00" fill="#000000">iostream</text>
</g>
<!-- Node0&#45;&gt;Node1 -->
<g id="edge1" class="edge">
<title>Node0&#45;&gt;Node1</title>
<path fill="none" stroke="#191970" d="M756.343,-567.4182C553.2109,-560.7047 0,-535.4491 0,-459.5 0,-459.5 0,-459.5 0,-349.5 0,-258.5288 114,-270.4712 114,-179.5 114,-179.5 114,-179.5 114,-119.5 114,-73.1322 152.5798,-71.2683 196,-55 236.9916,-39.6416 893.6892,-16.4025 1059.3058,-10.7646"/>
<polygon fill="#191970" stroke="#191970" points="1059.6173,-14.2562 1069.4928,-10.419 1059.3798,-7.2602 1059.6173,-14.2562"/>
</g>
<!-- Node2 -->
<g id="node3" class="node">
<title>Node2</title>
<g id="a_node3"><a xlink:href="Common_8h_source.html" target="_top" xlink:title="DGtal/base/Common.h">
<polygon fill="#ffffff" stroke="#000000" points="1224.1455,-230.5 1224.1455,-248.5 1341.8545,-248.5 1341.8545,-230.5 1224.1455,-230.5"/>
<text text-anchor="middle" x="1283" y="-236.5" font-family="FreeSans" font-size="10.00" fill="#000000">DGtal/base/Common.h</text>
</a>
</g>
</g>
<!-- Node0&#45;&gt;Node2 -->
<g id="edge2" class="edge">
<title>Node0&#45;&gt;Node2</title>
<path fill="none" stroke="#191970" d="M903.7071,-562.8681C1018.8913,-550.9816 1233.9095,-522.1783 1287,-469 1343.9623,-411.9435 1308.391,-301.7293 1290.9681,-258.0156"/>
<polygon fill="#191970" stroke="#191970" points="1294.1426,-256.533 1287.0906,-248.6261 1287.6725,-259.2049 1294.1426,-256.533"/>
</g>
<!-- Node39 -->
<g id="node37" class="node">
<title>Node39</title>
<g id="a_node37"><a xlink:href="AngleLinearMinimizer_8h_source.html" target="_top" xlink:title="DGtal/math/AngleLinearMinimizer.h">
<polygon fill="#ffffff" stroke="#000000" points="788.3525,-395.5 788.3525,-413.5 961.6475,-413.5 961.6475,-395.5 788.3525,-395.5"/>
<text text-anchor="middle" x="875" y="-401.5" font-family="FreeSans" font-size="10.00" fill="#000000">DGtal/math/AngleLinearMinimizer.h</text>
</a>
</g>
</g>
<!-- Node0&#45;&gt;Node39 -->
<g id="edge64" class="edge">
<title>Node0&#45;&gt;Node39</title>
<path fill="none" stroke="#191970" d="M821.7804,-560.182C814.7124,-551.5014 805.0382,-537.849 801,-524 791.7935,-492.426 784.9513,-478.7075 801,-450 809.0894,-435.5299 823.8753,-425.0974 838.1154,-417.903"/>
<polygon fill="#191970" stroke="#191970" points="839.7205,-421.0167 847.3186,-413.6329 836.7743,-414.6669 839.7205,-421.0167"/>
</g>
<!-- Node59 -->
<g id="node44" class="node">
<title>Node59</title>
<g id="a_node44"><a xlink:href="Board2D_8h_source.html" target="_top" xlink:title="DGtal/io/boards/Board2D.h">
<polygon fill="#ffffff" stroke="#000000" points="809.9683,-505.5 809.9683,-523.5 946.0317,-523.5 946.0317,-505.5 809.9683,-505.5"/>
<text text-anchor="middle" x="878" y="-511.5" font-family="FreeSans" font-size="10.00" fill="#000000">DGtal/io/boards/Board2D.h</text>
</a>
</g>
</g>
<!-- Node0&#45;&gt;Node59 -->
<g id="edge79" class="edge">
<title>Node0&#45;&gt;Node59</title>
<path fill="none" stroke="#191970" d="M837.9262,-560.4179C844.7637,-552.5833 854.8225,-541.0575 863.1517,-531.5137"/>
<polygon fill="#191970" stroke="#191970" points="865.9632,-533.6151 869.9016,-523.7795 860.6892,-529.0123 865.9632,-533.6151"/>
</g>
<!-- Node2&#45;&gt;Node1 -->
<g id="edge3" class="edge">
<title>Node2&#45;&gt;Node1</title>
<path fill="none" stroke="#191970" d="M1341.8767,-238.8569C1571.6183,-236.1342 2397.4407,-224.2721 2444,-194 2500.2654,-157.4172 2549.682,-103.2171 2503,-55 2478.4905,-29.6845 1354.9254,-13.0275 1134.3501,-9.9984"/>
<polygon fill="#191970" stroke="#191970" points="1134.2952,-6.4974 1124.2483,-9.8605 1134.1996,-13.4967 1134.2952,-6.4974"/>
</g>
<!-- Node3 -->
<g id="node4" class="node">
<title>Node3</title>
<polygon fill="#ffffff" stroke="#bfbfbf" points="1135.5962,-170.5 1135.5962,-188.5 1194.4038,-188.5 1194.4038,-170.5 1135.5962,-170.5"/>
<text text-anchor="middle" x="1165" y="-176.5" font-family="FreeSans" font-size="10.00" fill="#000000">exception</text>
</g>
<!-- Node2&#45;&gt;Node3 -->
<g id="edge4" class="edge">
<title>Node2&#45;&gt;Node3</title>
<path fill="none" stroke="#191970" d="M1265.0783,-230.3873C1245.5592,-220.4623 1214.1317,-204.4822 1191.7037,-193.0782"/>
<polygon fill="#191970" stroke="#191970" points="1193.2039,-189.9145 1182.7037,-188.5019 1190.0312,-196.1542 1193.2039,-189.9145"/>
</g>
<!-- Node4 -->
<g id="node5" class="node">
<title>Node4</title>
<polygon fill="#ffffff" stroke="#bfbfbf" points="1378.436,-110.5 1378.436,-128.5 1435.564,-128.5 1435.564,-110.5 1378.436,-110.5"/>
<text text-anchor="middle" x="1407" y="-116.5" font-family="FreeSans" font-size="10.00" fill="#000000">algorithm</text>
</g>
<!-- Node2&#45;&gt;Node4 -->
<g id="edge5" class="edge">
<title>Node2&#45;&gt;Node4</title>
<path fill="none" stroke="#191970" d="M1224.0662,-231.9055C1167.4755,-222.2456 1094.9554,-202.1642 1127,-165 1160.7012,-125.9145 1300.4219,-138.1498 1368.2003,-128.6762"/>
<polygon fill="#191970" stroke="#191970" points="1369.151,-132.0657 1378.4334,-126.9582 1367.9919,-125.1623 1369.151,-132.0657"/>
</g>
<!-- Node5 -->
<g id="node6" class="node">
<title>Node5</title>
<polygon fill="#ffffff" stroke="#bfbfbf" points="1371.5298,-170.5 1371.5298,-188.5 1466.4702,-188.5 1466.4702,-170.5 1371.5298,-170.5"/>
<text text-anchor="middle" x="1419" y="-176.5" font-family="FreeSans" font-size="10.00" fill="#000000">boost/version.hpp</text>
</g>
<!-- Node2&#45;&gt;Node5 -->
<g id="edge6" class="edge">
<title>Node2&#45;&gt;Node5</title>
<path fill="none" stroke="#191970" d="M1303.6555,-230.3873C1326.4534,-220.3294 1363.3463,-204.0531 1389.2558,-192.6225"/>
<polygon fill="#191970" stroke="#191970" points="1390.8593,-195.7405 1398.5958,-188.5019 1388.0338,-189.3361 1390.8593,-195.7405"/>
</g>
<!-- Node6 -->
<g id="node7" class="node">
<title>Node6</title>
<polygon fill="#ffffff" stroke="#bfbfbf" points="1484.2935,-170.5 1484.2935,-188.5 1613.7065,-188.5 1613.7065,-170.5 1484.2935,-170.5"/>
<text text-anchor="middle" x="1549" y="-176.5" font-family="FreeSans" font-size="10.00" fill="#000000">boost/concept_check.hpp</text>
</g>
<!-- Node2&#45;&gt;Node6 -->
<g id="edge7" class="edge">
<title>Node2&#45;&gt;Node6</title>
<path fill="none" stroke="#191970" d="M1323.1109,-230.4524C1370.1893,-219.8332 1448.2823,-202.2183 1499.1954,-190.7341"/>
<polygon fill="#191970" stroke="#191970" points="1500.0136,-194.1376 1508.9983,-188.5229 1498.4733,-187.3091 1500.0136,-194.1376"/>
</g>
<!-- Node7 -->
<g id="node8" class="node">
<title>Node7</title>
<polygon fill="#ffffff" stroke="#bfbfbf" points="1631.5815,-170.5 1631.5815,-188.5 1750.4185,-188.5 1750.4185,-170.5 1631.5815,-170.5"/>
<text text-anchor="middle" x="1691" y="-176.5" font-family="FreeSans" font-size="10.00" fill="#000000">boost/static_assert.hpp</text>
</g>
<!-- Node2&#45;&gt;Node7 -->
<g id="edge8" class="edge">
<title>Node2&#45;&gt;Node7</title>
<path fill="none" stroke="#191970" d="M1341.8714,-233.0173C1409.8311,-225.2109 1524.8582,-211.0045 1623,-194 1628.867,-192.9835 1634.9977,-191.8203 1641.0727,-190.6048"/>
<polygon fill="#191970" stroke="#191970" points="1642.0967,-193.9676 1651.1875,-188.5263 1640.6877,-187.1109 1642.0967,-193.9676"/>
</g>
<!-- Node8 -->
<g id="node9" class="node">
<title>Node8</title>
<polygon fill="#ffffff" stroke="#bfbfbf" points="1768.1309,-170.5 1768.1309,-188.5 1895.8691,-188.5 1895.8691,-170.5 1768.1309,-170.5"/>
<text text-anchor="middle" x="1832" y="-176.5" font-family="FreeSans" font-size="10.00" fill="#000000">boost/concept/assert.hpp</text>
</g>
<!-- Node2&#45;&gt;Node8 -->
<g id="edge9" class="edge">
<title>Node2&#45;&gt;Node8</title>
<path fill="none" stroke="#191970" d="M1342.2253,-235.7654C1432.4793,-229.64 1609.7176,-215.9039 1759,-194 1765.8716,-192.9917 1773.0757,-191.7677 1780.1699,-190.4628"/>
<polygon fill="#191970" stroke="#191970" points="1781.2643,-193.8174 1790.4334,-188.5091 1779.9552,-186.9409 1781.2643,-193.8174"/>
</g>
<!-- Node9 -->
<g id="node10" class="node">
<title>Node9</title>
<polygon fill="#ffffff" stroke="#bfbfbf" points="1913.6826,-170.5 1913.6826,-188.5 2050.3174,-188.5 2050.3174,-170.5 1913.6826,-170.5"/>
<text text-anchor="middle" x="1982" y="-176.5" font-family="FreeSans" font-size="10.00" fill="#000000">boost/concept/requires.hpp</text>
</g>
<!-- Node2&#45;&gt;Node9 -->
<g id="edge10" class="edge">
<title>Node2&#45;&gt;Node9</title>
<path fill="none" stroke="#191970" d="M1341.9678,-237.41C1452.6954,-232.993 1699.1239,-220.827 1905,-194 1912.6824,-192.9989 1920.7576,-191.7256 1928.6706,-190.3507"/>
<polygon fill="#191970" stroke="#191970" points="1929.3444,-193.7858 1938.5652,-188.5678 1928.103,-186.8967 1929.3444,-193.7858"/>
</g>
<!-- Node10 -->
<g id="node11" class="node">
<title>Node10</title>
<polygon fill="#ffffff" stroke="#bfbfbf" points="2067.8672,-165.5 2067.8672,-193.5 2176.1328,-193.5 2176.1328,-165.5 2067.8672,-165.5"/>
<text text-anchor="start" x="2075.8672" y="-181.5" font-family="FreeSans" font-size="10.00" fill="#000000">boost/iterator/iterator</text>
<text text-anchor="middle" x="2122" y="-171.5" font-family="FreeSans" font-size="10.00" fill="#000000">_concepts.hpp</text>
</g>
<!-- Node2&#45;&gt;Node10 -->
<g id="edge11" class="edge">
<title>Node2&#45;&gt;Node10</title>
<path fill="none" stroke="#191970" d="M1341.9265,-237.3267C1494.684,-231.4923 1901.8098,-214.6153 2057.4859,-194.0054"/>
<polygon fill="#191970" stroke="#191970" points="2058.3854,-197.4144 2067.8124,-192.5789 2057.4275,-190.4803 2058.3854,-197.4144"/>
</g>
<!-- Node11 -->
<g id="node12" class="node">
<title>Node11</title>
<polygon fill="#ffffff" stroke="#bfbfbf" points="2194.397,-170.5 2194.397,-188.5 2341.603,-188.5 2341.603,-170.5 2194.397,-170.5"/>
<text text-anchor="middle" x="2268" y="-176.5" font-family="FreeSans" font-size="10.00" fill="#000000">boost/concept_archetype.hpp</text>
</g>
<!-- Node2&#45;&gt;Node11 -->
<g id="edge12" class="edge">
<title>Node2&#45;&gt;Node11</title>
<path fill="none" stroke="#191970" d="M1342.0359,-239.0213C1486.379,-237.3079 1868.4915,-229.4944 2185,-194 2193.7664,-193.0169 2203.0084,-191.6924 2212.0155,-190.2418"/>
<polygon fill="#191970" stroke="#191970" points="2212.7626,-193.6655 2222.0472,-188.562 2211.6064,-186.7616 2212.7626,-193.6655"/>
</g>
<!-- Node12 -->
<g id="node13" class="node">
<title>Node12</title>
<polygon fill="#ffffff" stroke="#bfbfbf" points="1568.3843,-110.5 1568.3843,-128.5 1611.6157,-128.5 1611.6157,-110.5 1568.3843,-110.5"/>
<text text-anchor="middle" x="1590" y="-116.5" font-family="FreeSans" font-size="10.00" fill="#000000">cmath</text>
</g>
<!-- Node2&#45;&gt;Node12 -->
<g id="edge13" class="edge">
<title>Node2&#45;&gt;Node12</title>
<path fill="none" stroke="#191970" d="M1342.0261,-239.2175C1560.9746,-237.8845 2315.8892,-230.6384 2351,-194 2359.9177,-184.6942 2359.8865,-174.3356 2351,-165 2296.8126,-108.0745 1738.7203,-140.7307 1622.0076,-128.3253"/>
<polygon fill="#191970" stroke="#191970" points="1622.2344,-124.8237 1611.8513,-126.9311 1621.2824,-131.7586 1622.2344,-124.8237"/>
</g>
<!-- Node13 -->
<g id="node14" class="node">
<title>Node13</title>
<polygon fill="#ffffff" stroke="#bfbfbf" points="1034.2686,-170.5 1034.2686,-188.5 1079.7314,-188.5 1079.7314,-170.5 1034.2686,-170.5"/>
<text text-anchor="middle" x="1057" y="-176.5" font-family="FreeSans" font-size="10.00" fill="#000000">stdio.h</text>
</g>
<!-- Node2&#45;&gt;Node13 -->
<g id="edge14" class="edge">
<title>Node2&#45;&gt;Node13</title>
<path fill="none" stroke="#191970" d="M1237.8464,-230.455C1199.2558,-222.2922 1142.4514,-209.2468 1094,-194 1092.1244,-193.4098 1090.2078,-192.7713 1088.2826,-192.1025"/>
<polygon fill="#191970" stroke="#191970" points="1089.3286,-188.758 1078.735,-188.5905 1086.9119,-195.3277 1089.3286,-188.758"/>
</g>
<!-- Node14 -->
<g id="node15" class="node">
<title>Node14</title>
<g id="a_node15"><a xlink:href="Config_8h_source.html" target="_top" xlink:title="DGtal/base/Config.h">
<polygon fill="#ffffff" stroke="#000000" points="684.9756,-55.5 684.9756,-73.5 791.0244,-73.5 791.0244,-55.5 684.9756,-55.5"/>
<text text-anchor="middle" x="738" y="-61.5" font-family="FreeSans" font-size="10.00" fill="#000000">DGtal/base/Config.h</text>
</a>
</g>
</g>
<!-- Node2&#45;&gt;Node14 -->
<g id="edge15" class="edge">
<title>Node2&#45;&gt;Node14</title>
<path fill="none" stroke="#191970" d="M1224.0362,-234.9222C1086.7832,-224.2033 757.1959,-198.0732 753,-194 723.4667,-165.3304 728.3239,-112.0416 733.6143,-83.58"/>
<polygon fill="#191970" stroke="#191970" points="737.0651,-84.1758 735.6646,-73.6739 730.2104,-82.757 737.0651,-84.1758"/>
</g>
<!-- Node16 -->
<g id="node17" class="node">
<title>Node16</title>
<g id="a_node17"><a xlink:href="Trace_8h_source.html" target="_top" xlink:title="DGtal/base/Trace.h">
<polygon fill="#ffffff" stroke="#000000" points="761.8311,-170.5 761.8311,-188.5 864.1689,-188.5 864.1689,-170.5 761.8311,-170.5"/>
<text text-anchor="middle" x="813" y="-176.5" font-family="FreeSans" font-size="10.00" fill="#000000">DGtal/base/Trace.h</text>
</a>
</g>
</g>
<!-- Node2&#45;&gt;Node16 -->
<g id="edge18" class="edge">
<title>Node2&#45;&gt;Node16</title>
<path fill="none" stroke="#191970" d="M1223.9501,-231.9617C1134.4509,-220.5363 965.2834,-198.9404 874.4077,-187.3393"/>
<polygon fill="#191970" stroke="#191970" points="874.6215,-183.8382 864.2587,-186.0437 873.735,-190.7819 874.6215,-183.8382"/>
</g>
<!-- Node23 -->
<g id="node23" class="node">
<title>Node23</title>
<g id="a_node23"><a xlink:href="TraceWriterTerm_8h_source.html" target="_top" xlink:title="DGtal/base/TraceWriterTerm.h">
<polygon fill="#ffffff" stroke="#000000" points="556.478,-110.5 556.478,-128.5 707.522,-128.5 707.522,-110.5 556.478,-110.5"/>
<text text-anchor="middle" x="632" y="-116.5" font-family="FreeSans" font-size="10.00" fill="#000000">DGtal/base/TraceWriterTerm.h</text>
</a>
</g>
</g>
<!-- Node2&#45;&gt;Node23 -->
<g id="edge40" class="edge">
<title>Node2&#45;&gt;Node23</title>
<path fill="none" stroke="#191970" d="M1223.9184,-235.2022C1081.7757,-224.7995 731.5494,-198.7687 720,-194 689.6302,-181.4603 662.0278,-154.3736 646.1293,-136.5493"/>
<polygon fill="#191970" stroke="#191970" points="648.4895,-133.9274 639.3039,-128.6476 643.1921,-138.5032 648.4895,-133.9274"/>
</g>
<!-- Node24 -->
<g id="node24" class="node">
<title>Node24</title>
<g id="a_node24"><a xlink:href="Assert_8h_source.html" target="_top" xlink:title="DGtal/base/Assert.h">
<polygon fill="#ffffff" stroke="#000000" points="1058.2588,-110.5 1058.2588,-128.5 1163.7412,-128.5 1163.7412,-110.5 1058.2588,-110.5"/>
<text text-anchor="middle" x="1111" y="-116.5" font-family="FreeSans" font-size="10.00" fill="#000000">DGtal/base/Assert.h</text>
</a>
</g>
</g>
<!-- Node2&#45;&gt;Node24 -->
<g id="edge45" class="edge">
<title>Node2&#45;&gt;Node24</title>
<path fill="none" stroke="#191970" d="M1223.837,-233.0781C1151.6787,-224.6399 1037.6808,-209.1129 1025,-194 1016.7153,-184.1264 1018.3504,-176.0411 1025,-165 1034.2518,-149.6383 1050.6203,-139.1926 1066.6117,-132.2275"/>
<polygon fill="#191970" stroke="#191970" points="1067.9315,-135.4693 1075.927,-128.5179 1065.3416,-128.966 1067.9315,-135.4693"/>
</g>
<!-- Node27 -->
<g id="node27" class="node">
<title>Node27</title>
<g id="a_node27"><a xlink:href="TraceWriterFile_8h_source.html" target="_top" xlink:title="DGtal/base/TraceWriterFile.h">
<polygon fill="#ffffff" stroke="#000000" points="355.5322,-110.5 355.5322,-128.5 500.4678,-128.5 500.4678,-110.5 355.5322,-110.5"/>
<text text-anchor="middle" x="428" y="-116.5" font-family="FreeSans" font-size="10.00" fill="#000000">DGtal/base/TraceWriterFile.h</text>
</a>
</g>
</g>
<!-- Node2&#45;&gt;Node27 -->
<g id="edge41" class="edge">
<title>Node2&#45;&gt;Node27</title>
<path fill="none" stroke="#191970" d="M1224.059,-235.1963C1072.1679,-224.0946 678.7466,-195.2649 672,-194 594.7384,-179.5145 507.3307,-149.3072 460.9788,-132.1391"/>
<polygon fill="#191970" stroke="#191970" points="462.0515,-128.8036 451.4589,-128.582 459.6013,-135.3608 462.0515,-128.8036"/>
</g>
<!-- Node28 -->
<g id="node28" class="node">
<title>Node28</title>
<g id="a_node28"><a xlink:href="ConceptUtils_8h_source.html" target="_top" xlink:title="DGtal/base/ConceptUtils.h">
<polygon fill="#ffffff" stroke="#000000" points="1815.084,-55.5 1815.084,-73.5 1948.916,-73.5 1948.916,-55.5 1815.084,-55.5"/>
<text text-anchor="middle" x="1882" y="-61.5" font-family="FreeSans" font-size="10.00" fill="#000000">DGtal/base/ConceptUtils.h</text>
</a>
</g>
</g>
<!-- Node2&#45;&gt;Node28 -->
<g id="edge46" class="edge">
<title>Node2&#45;&gt;Node28</title>
<path fill="none" stroke="#191970" d="M1341.9809,-239.299C1565.3603,-238.2529 2348.6451,-231.8869 2385,-194 2446.5887,-129.8159 2114.4944,-87.6466 1958.9415,-71.6812"/>
<polygon fill="#191970" stroke="#191970" points="1959.2593,-68.1956 1948.9569,-70.6675 1958.5522,-75.1598 1959.2593,-68.1956"/>
</g>
<!-- Node29 -->
<g id="node29" class="node">
<title>Node29</title>
<g id="a_node29"><a xlink:href="BasicTypes_8h_source.html" target="_top" xlink:title="DGtal/base/BasicTypes.h">
<polygon fill="#ffffff" stroke="#000000" points="1629.8599,-110.5 1629.8599,-128.5 1758.1401,-128.5 1758.1401,-110.5 1629.8599,-110.5"/>
<text text-anchor="middle" x="1694" y="-116.5" font-family="FreeSans" font-size="10.00" fill="#000000">DGtal/base/BasicTypes.h</text>
</a>
</g>
</g>
<!-- Node2&#45;&gt;Node29 -->
<g id="edge48" class="edge">
<title>Node2&#45;&gt;Node29</title>
<path fill="none" stroke="#191970" d="M1342.2044,-239.2578C1563.6421,-238.0661 2332.2782,-231.2512 2368,-194 2376.9208,-184.6972 2376.8015,-174.4157 2368,-165 2347.7779,-143.3667 1939.8293,-127.5444 1768.6209,-121.8318"/>
<polygon fill="#191970" stroke="#191970" points="1768.5404,-118.3274 1758.43,-121.4944 1768.3087,-125.3235 1768.5404,-118.3274"/>
</g>
<!-- Node32 -->
<g id="node32" class="node">
<title>Node32</title>
<g id="a_node32"><a xlink:href="BasicFunctors_8h_source.html" target="_top" xlink:title="DGtal/base/BasicFunctors.h">
<polygon fill="#ffffff" stroke="#000000" points="1212.7515,-170.5 1212.7515,-188.5 1353.2485,-188.5 1353.2485,-170.5 1212.7515,-170.5"/>
<text text-anchor="middle" x="1283" y="-176.5" font-family="FreeSans" font-size="10.00" fill="#000000">DGtal/base/BasicFunctors.h</text>
</a>
</g>
</g>
<!-- Node2&#45;&gt;Node32 -->
<g id="edge53" class="edge">
<title>Node2&#45;&gt;Node32</title>
<path fill="none" stroke="#191970" d="M1277.9906,-230.3873C1276.2725,-222.0174 1275.8263,-209.3414 1276.6521,-198.735"/>
<polygon fill="#191970" stroke="#191970" points="1280.1381,-199.0697 1277.9731,-188.6985 1273.198,-198.1562 1280.1381,-199.0697"/>
</g>
<!-- Node37 -->
<g id="node35" class="node">
<title>Node37</title>
<g id="a_node35"><a xlink:href="BasicArchetypes_8h_source.html" target="_top" xlink:title="DGtal/base/BasicArchetypes.h">
<polygon fill="#ffffff" stroke="#000000" points="2121.1899,-55.5 2121.1899,-73.5 2272.8101,-73.5 2272.8101,-55.5 2121.1899,-55.5"/>
<text text-anchor="middle" x="2197" y="-61.5" font-family="FreeSans" font-size="10.00" fill="#000000">DGtal/base/BasicArchetypes.h</text>
</a>
</g>
</g>
<!-- Node2&#45;&gt;Node37 -->
<g id="edge60" class="edge">
<title>Node2&#45;&gt;Node37</title>
<path fill="none" stroke="#191970" d="M1342.1169,-239.3372C1567.8992,-238.4301 2365.0311,-232.5027 2402,-194 2455.8531,-137.9127 2325.2761,-95.3457 2248.3712,-75.9867"/>
<polygon fill="#191970" stroke="#191970" points="2248.9057,-72.5138 2238.3588,-73.5204 2247.2314,-79.3107 2248.9057,-72.5138"/>
</g>
<!-- Node38 -->
<g id="node36" class="node">
<title>Node38</title>
<g id="a_node36"><a xlink:href="Exceptions_8h_source.html" target="_top" xlink:title="DGtal/base/Exceptions.h">
<polygon fill="#ffffff" stroke="#000000" points="2367.9707,-55.5 2367.9707,-73.5 2494.0293,-73.5 2494.0293,-55.5 2367.9707,-55.5"/>
<text text-anchor="middle" x="2431" y="-61.5" font-family="FreeSans" font-size="10.00" fill="#000000">DGtal/base/Exceptions.h</text>
</a>
</g>
</g>
<!-- Node2&#45;&gt;Node38 -->
<g id="edge62" class="edge">
<title>Node2&#45;&gt;Node38</title>
<path fill="none" stroke="#191970" d="M1341.9212,-239.3029C1569.8381,-238.2656 2382.9547,-231.9117 2422,-194 2451.4048,-165.449 2443.5738,-112.1102 2436.5716,-83.6099"/>
<polygon fill="#191970" stroke="#191970" points="2439.8828,-82.4441 2433.916,-73.6893 2433.1209,-84.2542 2439.8828,-82.4441"/>
</g>
<!-- Node14&#45;&gt;Node1 -->
<g id="edge16" class="edge">
<title>Node14&#45;&gt;Node1</title>
<path fill="none" stroke="#191970" d="M791.3583,-56.3253C864.813,-45.0718 995.2537,-25.0879 1059.3397,-15.2697"/>
<polygon fill="#191970" stroke="#191970" points="1060.0499,-18.7018 1069.4045,-13.7277 1058.9898,-11.7825 1060.0499,-18.7018"/>
</g>
<!-- Node15 -->
<g id="node16" class="node">
<title>Node15</title>
<polygon fill="#ffffff" stroke="#bfbfbf" points="657.7734,-.5 657.7734,-18.5 698.2266,-18.5 698.2266,-.5 657.7734,-.5"/>
<text text-anchor="middle" x="678" y="-6.5" font-family="FreeSans" font-size="10.00" fill="#000000">string</text>
</g>
<!-- Node14&#45;&gt;Node15 -->
<g id="edge17" class="edge">
<title>Node14&#45;&gt;Node15</title>
<path fill="none" stroke="#191970" d="M728.0922,-55.4179C719.2864,-47.3458 706.2061,-35.3556 695.62,-25.6517"/>
<polygon fill="#191970" stroke="#191970" points="697.8597,-22.9567 688.123,-18.7795 693.1296,-28.1168 697.8597,-22.9567"/>
</g>
<!-- Node16&#45;&gt;Node1 -->
<g id="edge19" class="edge">
<title>Node16&#45;&gt;Node1</title>
<path fill="none" stroke="#191970" d="M853.1181,-170.4731C909.4269,-157.6307 1005.676,-134.9768 1011,-129 1033.0749,-104.2183 1002.7337,-82.7087 1021,-55 1030.4428,-40.676 1046.0888,-30.1954 1060.7382,-22.9288"/>
<polygon fill="#191970" stroke="#191970" points="1062.5182,-25.9629 1070.1458,-18.6096 1059.5975,-19.6013 1062.5182,-25.9629"/>
</g>
<!-- Node16&#45;&gt;Node14 -->
<g id="edge23" class="edge">
<title>Node16&#45;&gt;Node14</title>
<path fill="none" stroke="#191970" d="M807.1149,-170.4761C794.7442,-151.5078 765.8495,-107.2025 749.6097,-82.3015"/>
<polygon fill="#191970" stroke="#191970" points="752.4605,-80.2655 744.0661,-73.8014 746.5972,-84.0894 752.4605,-80.2655"/>
</g>
<!-- Node16&#45;&gt;Node15 -->
<g id="edge21" class="edge">
<title>Node16&#45;&gt;Node15</title>
<path fill="none" stroke="#191970" d="M815.0323,-170.1857C819.3587,-147.7281 827.0111,-89.8803 800,-55 788.4787,-40.1222 740.3465,-25.3523 708.0936,-16.8421"/>
<polygon fill="#191970" stroke="#191970" points="708.8033,-13.4108 698.2464,-14.3068 707.0579,-20.1897 708.8033,-13.4108"/>
</g>
<!-- Node17 -->
<g id="node18" class="node">
<title>Node17</title>
<polygon fill="#ffffff" stroke="#bfbfbf" points="294.9385,-.5 294.9385,-18.5 347.0615,-18.5 347.0615,-.5 294.9385,-.5"/>
<text text-anchor="middle" x="321" y="-6.5" font-family="FreeSans" font-size="10.00" fill="#000000">ostream</text>
</g>
<!-- Node16&#45;&gt;Node17 -->
<g id="edge20" class="edge">
<title>Node16&#45;&gt;Node17</title>
<path fill="none" stroke="#191970" d="M761.4964,-177.274C646.6708,-171.8399 377.372,-156.304 347,-129 318.8157,-103.6627 317.2946,-55.5606 318.9567,-28.7584"/>
<polygon fill="#191970" stroke="#191970" points="322.4519,-28.9607 319.7955,-18.7043 315.4761,-28.3787 322.4519,-28.9607"/>
</g>
<!-- Node18 -->
<g id="node19" class="node">
<title>Node18</title>
<polygon fill="#ffffff" stroke="#bfbfbf" points="962.3301,-110.5 962.3301,-128.5 1001.6699,-128.5 1001.6699,-110.5 962.3301,-110.5"/>
<text text-anchor="middle" x="982" y="-116.5" font-family="FreeSans" font-size="10.00" fill="#000000">stack</text>
</g>
<!-- Node16&#45;&gt;Node18 -->
<g id="edge22" class="edge">
<title>Node16&#45;&gt;Node18</title>
<path fill="none" stroke="#191970" d="M838.6675,-170.3873C869.2462,-159.5309 920.2312,-141.4298 952.4324,-129.9974"/>
<polygon fill="#191970" stroke="#191970" points="953.925,-133.1816 962.1777,-126.5375 951.583,-126.585 953.925,-133.1816"/>
</g>
<!-- Node19 -->
<g id="node20" class="node">
<title>Node19</title>
<g id="a_node20"><a xlink:href="Clock_8h_source.html" target="_top" xlink:title="DGtal/base/Clock.h">
<polygon fill="#ffffff" stroke="#ff0000" points="1257.9263,-110.5 1257.9263,-128.5 1360.0737,-128.5 1360.0737,-110.5 1257.9263,-110.5"/>
<text text-anchor="middle" x="1309" y="-116.5" font-family="FreeSans" font-size="10.00" fill="#000000">DGtal/base/Clock.h</text>
</a>
</g>
</g>
<!-- Node16&#45;&gt;Node19 -->
<g id="edge24" class="edge">
<title>Node16&#45;&gt;Node19</title>
<path fill="none" stroke="#191970" d="M864.3099,-172.0235C880.8037,-169.688 899.1631,-167.1594 916,-165 1033.1962,-149.9688 1170.3467,-134.5932 1247.7134,-126.1234"/>
<polygon fill="#191970" stroke="#191970" points="1248.2049,-129.5906 1257.7655,-125.025 1247.4444,-122.632 1248.2049,-129.5906"/>
</g>
<!-- Node22 -->
<g id="node22" class="node">
<title>Node22</title>
<g id="a_node22"><a xlink:href="TraceWriter_8h_source.html" target="_top" xlink:title="DGtal/base/TraceWriter.h">
<polygon fill="#ffffff" stroke="#000000" points="462.8623,-55.5 462.8623,-73.5 591.1377,-73.5 591.1377,-55.5 462.8623,-55.5"/>
<text text-anchor="middle" x="527" y="-61.5" font-family="FreeSans" font-size="10.00" fill="#000000">DGtal/base/TraceWriter.h</text>
</a>
</g>
</g>
<!-- Node16&#45;&gt;Node22 -->
<g id="edge27" class="edge">
<title>Node16&#45;&gt;Node22</title>
<path fill="none" stroke="#191970" d="M761.7943,-175.9804C693.6368,-170.2795 578.0743,-156.7457 547,-129 534.3031,-117.6632 529.5751,-98.4393 527.8609,-83.9209"/>
<polygon fill="#191970" stroke="#191970" points="531.3164,-83.2192 527.0377,-73.5268 524.3383,-83.7719 531.3164,-83.2192"/>
</g>
<!-- Node16&#45;&gt;Node23 -->
<g id="edge30" class="edge">
<title>Node16&#45;&gt;Node23</title>
<path fill="none" stroke="#191970" d="M785.51,-170.3873C754.3666,-160.0635 703.4598,-143.1883 668.8831,-131.7264"/>
<polygon fill="#191970" stroke="#191970" points="669.749,-128.3263 659.1557,-128.5019 667.5464,-134.9707 669.749,-128.3263"/>
</g>
<!-- Node16&#45;&gt;Node24 -->
<g id="edge35" class="edge">
<title>Node16&#45;&gt;Node24</title>
<path fill="none" stroke="#191970" d="M844.0391,-170.4369C852.1451,-168.5967 860.8516,-166.7042 869,-165 929.5766,-152.3311 999.2514,-138.8704 1048.3271,-129.9052"/>
<polygon fill="#191970" stroke="#191970" points="1048.9536,-133.3488 1058.1671,-128.1181 1047.7026,-126.4615 1048.9536,-133.3488"/>
</g>
<!-- Node26 -->
<g id="node26" class="node">
<title>Node26</title>
<g id="a_node26"><a xlink:href="Trace_8ih_source.html" target="_top" xlink:title="DGtal/base/Trace.ih">
<polygon fill="#ffffff" stroke="#000000" points="839.7202,-110.5 839.7202,-128.5 944.2798,-128.5 944.2798,-110.5 839.7202,-110.5"/>
<text text-anchor="middle" x="892" y="-116.5" font-family="FreeSans" font-size="10.00" fill="#000000">DGtal/base/Trace.ih</text>
</a>
</g>
</g>
<!-- Node16&#45;&gt;Node26 -->
<g id="edge39" class="edge">
<title>Node16&#45;&gt;Node26</title>
<path fill="none" stroke="#191970" d="M824.9984,-170.3873C837.4829,-160.9054 857.244,-145.897 872.0763,-134.6319"/>
<polygon fill="#191970" stroke="#191970" points="874.3009,-137.3374 880.1475,-128.5019 870.067,-131.7629 874.3009,-137.3374"/>
</g>
<!-- Node19&#45;&gt;Node1 -->
<g id="edge25" class="edge">
<title>Node19&#45;&gt;Node1</title>
<path fill="none" stroke="#191970" d="M1302.064,-110.1818C1291.193,-96.2128 1268.8041,-69.8971 1244,-55 1209.7405,-34.4241 1165.3263,-22.3587 1134.3226,-15.8835"/>
<polygon fill="#191970" stroke="#191970" points="1134.8477,-12.4194 1124.3565,-13.8977 1133.4797,-19.2845 1134.8477,-12.4194"/>
</g>
<!-- Node20 -->
<g id="node21" class="node">
<title>Node20</title>
<polygon fill="#ffffff" stroke="#bfbfbf" points="1310.8276,-55.5 1310.8276,-73.5 1355.1724,-73.5 1355.1724,-55.5 1310.8276,-55.5"/>
<text text-anchor="middle" x="1333" y="-61.5" font-family="FreeSans" font-size="10.00" fill="#000000">cstdlib</text>
</g>
<!-- Node19&#45;&gt;Node20 -->
<g id="edge26" class="edge">
<title>Node19&#45;&gt;Node20</title>
<path fill="none" stroke="#191970" d="M1312.9631,-110.4179C1316.2092,-102.9789 1320.9073,-92.2123 1324.9385,-82.9742"/>
<polygon fill="#191970" stroke="#191970" points="1328.1592,-84.3447 1328.9508,-73.7795 1321.7434,-81.545 1328.1592,-84.3447"/>
</g>
<!-- Node22&#45;&gt;Node1 -->
<g id="edge28" class="edge">
<title>Node22&#45;&gt;Node1</title>
<path fill="none" stroke="#191970" d="M591.2782,-58.2977C710.9675,-46.7488 964.4776,-22.2873 1059.7574,-13.0936"/>
<polygon fill="#191970" stroke="#191970" points="1060.1727,-16.5699 1069.7903,-12.1255 1059.5003,-9.6022 1060.1727,-16.5699"/>
</g>
<!-- Node22&#45;&gt;Node17 -->
<g id="edge29" class="edge">
<title>Node22&#45;&gt;Node17</title>
<path fill="none" stroke="#191970" d="M492.9833,-55.4179C455.4281,-45.391 395.2287,-29.3184 356.9262,-19.0919"/>
<polygon fill="#191970" stroke="#191970" points="357.7786,-15.697 347.2142,-16.4989 355.9729,-22.4601 357.7786,-15.697"/>
</g>
<!-- Node23&#45;&gt;Node1 -->
<g id="edge31" class="edge">
<title>Node23&#45;&gt;Node1</title>
<path fill="none" stroke="#191970" d="M635.4067,-110.1063C641.2354,-95.5328 654.6059,-67.8213 676,-55 708.5556,-35.4897 962.5421,-17.8484 1059.5297,-11.7566"/>
<polygon fill="#191970" stroke="#191970" points="1059.9918,-15.2347 1069.7552,-11.1207 1059.5573,-8.2482 1059.9918,-15.2347"/>
</g>
<!-- Node23&#45;&gt;Node14 -->
<g id="edge34" class="edge">
<title>Node23&#45;&gt;Node14</title>
<path fill="none" stroke="#191970" d="M649.5037,-110.4179C666.382,-101.6603 692.1488,-88.2907 711.5336,-78.2326"/>
<polygon fill="#191970" stroke="#191970" points="713.2059,-81.308 720.4703,-73.5956 709.982,-75.0946 713.2059,-81.308"/>
</g>
<!-- Node23&#45;&gt;Node15 -->
<g id="edge32" class="edge">
<title>Node23&#45;&gt;Node15</title>
<path fill="none" stroke="#191970" d="M632.1846,-110.3448C632.7444,-97.4722 634.8973,-73.5256 643,-55 647.5646,-44.5637 655.0301,-34.3766 661.8962,-26.2965"/>
<polygon fill="#191970" stroke="#191970" points="664.6212,-28.5001 668.6878,-18.7168 659.4078,-23.8288 664.6212,-28.5001"/>
</g>
<!-- Node23&#45;&gt;Node22 -->
<g id="edge33" class="edge">
<title>Node23&#45;&gt;Node22</title>
<path fill="none" stroke="#191970" d="M614.6614,-110.4179C598.0184,-101.7001 572.6505,-88.4122 553.4789,-78.3699"/>
<polygon fill="#191970" stroke="#191970" points="554.8467,-75.1353 544.3644,-73.5956 551.5987,-81.3362 554.8467,-75.1353"/>
</g>
<!-- Node24&#45;&gt;Node15 -->
<g id="edge38" class="edge">
<title>Node24&#45;&gt;Node15</title>
<path fill="none" stroke="#191970" d="M1075.5658,-110.4982C992.6165,-89.4257 786.947,-37.1771 708.7979,-17.324"/>
<polygon fill="#191970" stroke="#191970" points="709.1971,-13.8142 698.6431,-14.7442 707.4735,-20.5987 709.1971,-13.8142"/>
</g>
<!-- Node24&#45;&gt;Node16 -->
<g id="edge36" class="edge">
<title>Node24&#45;&gt;Node16</title>
<path fill="none" stroke="#191970" d="M1069.6142,-128.5377C1024.5564,-137.4617 950.7413,-151.6692 887,-165 882.0346,-166.0385 876.8619,-167.1469 871.6535,-168.2708"/>
<polygon fill="#191970" stroke="#191970" points="870.6728,-164.9019 861.6387,-170.4369 872.1526,-171.7437 870.6728,-164.9019"/>
</g>
<!-- Node25 -->
<g id="node25" class="node">
<title>Node25</title>
<polygon fill="#ffffff" stroke="#bfbfbf" points="1029.7935,-55.5 1029.7935,-73.5 1164.2065,-73.5 1164.2065,-55.5 1029.7935,-55.5"/>
<text text-anchor="middle" x="1097" y="-61.5" font-family="FreeSans" font-size="10.00" fill="#000000">boost/current_function.hpp</text>
</g>
<!-- Node24&#45;&gt;Node25 -->
<g id="edge37" class="edge">
<title>Node24&#45;&gt;Node25</title>
<path fill="none" stroke="#191970" d="M1108.6882,-110.4179C1106.8349,-103.1372 1104.1703,-92.669 1101.8531,-83.5659"/>
<polygon fill="#191970" stroke="#191970" points="1105.2208,-82.607 1099.362,-73.7795 1098.4371,-84.3338 1105.2208,-82.607"/>
</g>
<!-- Node27&#45;&gt;Node1 -->
<g id="edge42" class="edge">
<title>Node27&#45;&gt;Node1</title>
<path fill="none" stroke="#191970" d="M428.7506,-110.1659C430.4648,-95.674 436.0382,-68.0724 454,-55 503.0107,-19.3307 929.6224,-11.4469 1059.5841,-9.8662"/>
<polygon fill="#191970" stroke="#191970" points="1059.8678,-13.3633 1069.8264,-9.7474 1059.7865,-6.3637 1059.8678,-13.3633"/>
</g>
<!-- Node27&#45;&gt;Node15 -->
<g id="edge43" class="edge">
<title>Node27&#45;&gt;Node15</title>
<path fill="none" stroke="#191970" d="M423.2817,-110.3851C416.9232,-96.6818 407.8284,-70.7084 421,-55 449.5635,-20.9354 585.3254,-12.3596 647.1742,-10.212"/>
<polygon fill="#191970" stroke="#191970" points="647.5902,-13.7008 657.4761,-9.8905 647.3718,-6.7042 647.5902,-13.7008"/>
</g>
<!-- Node27&#45;&gt;Node22 -->
<g id="edge44" class="edge">
<title>Node27&#45;&gt;Node22</title>
<path fill="none" stroke="#191970" d="M444.3478,-110.4179C459.9681,-101.7399 483.7398,-88.5334 501.7862,-78.5077"/>
<polygon fill="#191970" stroke="#191970" points="503.5861,-81.5117 510.6279,-73.5956 500.1865,-75.3925 503.5861,-81.5117"/>
</g>
<!-- Node28&#45;&gt;Node1 -->
<g id="edge47" class="edge">
<title>Node28&#45;&gt;Node1</title>
<path fill="none" stroke="#191970" d="M1814.8069,-59.1051C1797.2937,-57.7317 1778.4423,-56.2823 1761,-55 1522.265,-37.4491 1235.0775,-18.507 1134.2029,-11.9192"/>
<polygon fill="#191970" stroke="#191970" points="1134.4103,-8.4254 1124.2036,-11.2668 1133.9545,-15.4105 1134.4103,-8.4254"/>
</g>
<!-- Node29&#45;&gt;Node1 -->
<g id="edge50" class="edge">
<title>Node29&#45;&gt;Node1</title>
<path fill="none" stroke="#191970" d="M1705.0637,-110.4546C1720.1487,-97.0714 1743.6076,-71.7736 1728,-55 1707.6714,-33.1528 1266.9567,-15.6031 1134.3911,-10.8035"/>
<polygon fill="#191970" stroke="#191970" points="1134.4326,-7.3028 1124.3135,-10.4417 1134.1815,-14.2983 1134.4326,-7.3028"/>
</g>
<!-- Node29&#45;&gt;Node20 -->
<g id="edge49" class="edge">
<title>Node29&#45;&gt;Node20</title>
<path fill="none" stroke="#191970" d="M1629.4925,-110.9979C1541.5598,-99.3354 1392.0757,-79.2232 1367,-74 1366.4,-73.875 1365.795,-73.7453 1365.1863,-73.6114"/>
<polygon fill="#191970" stroke="#191970" points="1365.7531,-70.1468 1355.2074,-71.1658 1364.0868,-76.9456 1365.7531,-70.1468"/>
</g>
<!-- Node30 -->
<g id="node30" class="node">
<title>Node30</title>
<polygon fill="#ffffff" stroke="#bfbfbf" points="1555.1973,-55.5 1555.1973,-73.5 1646.8027,-73.5 1646.8027,-55.5 1555.1973,-55.5"/>
<text text-anchor="middle" x="1601" y="-61.5" font-family="FreeSans" font-size="10.00" fill="#000000">boost/cstdint.hpp</text>
</g>
<!-- Node29&#45;&gt;Node30 -->
<g id="edge51" class="edge">
<title>Node29&#45;&gt;Node30</title>
<path fill="none" stroke="#191970" d="M1678.6429,-110.4179C1664.1039,-101.8195 1642.0475,-88.7754 1625.1537,-78.7844"/>
<polygon fill="#191970" stroke="#191970" points="1626.769,-75.6735 1616.3799,-73.5956 1623.2056,-81.6987 1626.769,-75.6735"/>
</g>
<!-- Node31 -->
<g id="node31" class="node">
<title>Node31</title>
<polygon fill="#ffffff" stroke="#bfbfbf" points="1665.1035,-55.5 1665.1035,-73.5 1718.8965,-73.5 1718.8965,-55.5 1665.1035,-55.5"/>
<text text-anchor="middle" x="1692" y="-61.5" font-family="FreeSans" font-size="10.00" fill="#000000">gmpxx.h</text>
</g>
<!-- Node29&#45;&gt;Node31 -->
<g id="edge52" class="edge">
<title>Node29&#45;&gt;Node31</title>
<path fill="none" stroke="#191970" d="M1693.6697,-110.4179C1693.4079,-103.2164 1693.0326,-92.8962 1692.7041,-83.8632"/>
<polygon fill="#191970" stroke="#191970" points="1696.1986,-83.6456 1692.3374,-73.7795 1689.2032,-83.9001 1696.1986,-83.6456"/>
</g>
<!-- Node32&#45;&gt;Node2 -->
<g id="edge57" class="edge">
<title>Node32&#45;&gt;Node2</title>
<path fill="none" stroke="#191970" d="M1288.0269,-188.6985C1289.7364,-197.0976 1290.1739,-209.7812 1289.3394,-220.3734"/>
<polygon fill="#191970" stroke="#191970" points="1285.8566,-220.0135 1288.0094,-230.3873 1292.7956,-220.9352 1285.8566,-220.0135"/>
</g>
<!-- Node32&#45;&gt;Node4 -->
<g id="edge54" class="edge">
<title>Node32&#45;&gt;Node4</title>
<path fill="none" stroke="#191970" d="M1301.8329,-170.3873C1322.4362,-160.418 1355.6652,-144.3394 1379.2535,-132.9257"/>
<polygon fill="#191970" stroke="#191970" points="1380.919,-136.0081 1388.3961,-128.5019 1377.87,-129.707 1380.919,-136.0081"/>
</g>
<!-- Node32&#45;&gt;Node12 -->
<g id="edge56" class="edge">
<title>Node32&#45;&gt;Node12</title>
<path fill="none" stroke="#191970" d="M1332.5153,-170.4778C1404.7454,-157.2854 1532.7546,-133.7759 1554,-129 1555.4584,-128.6722 1556.9471,-128.326 1558.4486,-127.9676"/>
<polygon fill="#191970" stroke="#191970" points="1559.5104,-131.3099 1568.3615,-125.4868 1557.8109,-124.5193 1559.5104,-131.3099"/>
</g>
<!-- Node33 -->
<g id="node33" class="node">
<title>Node33</title>
<polygon fill="#ffffff" stroke="#bfbfbf" points="1453.5962,-110.5 1453.5962,-128.5 1512.4038,-128.5 1512.4038,-110.5 1453.5962,-110.5"/>
<text text-anchor="middle" x="1483" y="-116.5" font-family="FreeSans" font-size="10.00" fill="#000000">functional</text>
</g>
<!-- Node32&#45;&gt;Node33 -->
<g id="edge55" class="edge">
<title>Node32&#45;&gt;Node33</title>
<path fill="none" stroke="#191970" d="M1313.3757,-170.3873C1348.184,-159.9448 1405.3353,-142.7994 1443.556,-131.3332"/>
<polygon fill="#191970" stroke="#191970" points="1444.7469,-134.6301 1453.3194,-128.4042 1442.7354,-127.9253 1444.7469,-134.6301"/>
</g>
<!-- Node34 -->
<g id="node34" class="node">
<title>Node34</title>
<g id="a_node34"><a xlink:href="BasicBoolFunctors_8h_source.html" target="_top" xlink:title="DGtal/base/BasicBoolFunctors.h">
<polygon fill="#ffffff" stroke="#ff0000" points="1375.7441,-55.5 1375.7441,-73.5 1536.2559,-73.5 1536.2559,-55.5 1375.7441,-55.5"/>
<text text-anchor="middle" x="1456" y="-61.5" font-family="FreeSans" font-size="10.00" fill="#000000">DGtal/base/BasicBoolFunctors.h</text>
</a>
</g>
</g>
<!-- Node32&#45;&gt;Node34 -->
<g id="edge58" class="edge">
<title>Node32&#45;&gt;Node34</title>
<path fill="none" stroke="#191970" d="M1333.3132,-170.4833C1401.3796,-158.0468 1515.0593,-136.3335 1521,-129 1536.2833,-110.1336 1510.1963,-90.8214 1486.6615,-78.3103"/>
<polygon fill="#191970" stroke="#191970" points="1488.0318,-75.0815 1477.5268,-73.7045 1484.8802,-81.332 1488.0318,-75.0815"/>
</g>
<!-- Node34&#45;&gt;Node1 -->
<g id="edge59" class="edge">
<title>Node34&#45;&gt;Node1</title>
<path fill="none" stroke="#191970" d="M1397.1205,-55.4795C1322.8438,-44.1 1197.2813,-24.8634 1134.7433,-15.2824"/>
<polygon fill="#191970" stroke="#191970" points="1134.9592,-11.7747 1124.5445,-13.7199 1133.8991,-18.694 1134.9592,-11.7747"/>
</g>
<!-- Node37&#45;&gt;Node1 -->
<g id="edge61" class="edge">
<title>Node37&#45;&gt;Node1</title>
<path fill="none" stroke="#191970" d="M2120.9585,-60.6979C1904.8965,-49.8948 1292.7703,-19.2885 1134.6499,-11.3825"/>
<polygon fill="#191970" stroke="#191970" points="1134.6422,-7.8778 1124.4798,-10.874 1134.2925,-14.8691 1134.6422,-7.8778"/>
</g>
<!-- Node38&#45;&gt;Node1 -->
<g id="edge63" class="edge">
<title>Node38&#45;&gt;Node1</title>
<path fill="none" stroke="#191970" d="M2367.9453,-60.1256C2341.4172,-58.3772 2310.2167,-56.441 2282,-55 1830.6658,-31.9507 1282.0899,-14.9761 1134.8609,-10.605"/>
<polygon fill="#191970" stroke="#191970" points="1134.6687,-7.0979 1124.5695,-10.3007 1134.4617,-14.0949 1134.6687,-7.0979"/>
</g>
<!-- Node39&#45;&gt;Node1 -->
<g id="edge65" class="edge">
<title>Node39&#45;&gt;Node1</title>
<path fill="none" stroke="#191970" d="M788.2462,-398.9633C608.9148,-386.3529 214,-352.0495 214,-294.5 214,-294.5 214,-294.5 214,-119.5 214,-79.116 241.1654,-71.5552 278,-55 314.0683,-38.7892 904.2482,-16.4509 1059.7119,-10.8262"/>
<polygon fill="#191970" stroke="#191970" points="1059.8602,-14.3232 1069.7277,-10.4652 1059.6081,-7.3278 1059.8602,-14.3232"/>
</g>
<!-- Node39&#45;&gt;Node2 -->
<g id="edge67" class="edge">
<title>Node39&#45;&gt;Node2</title>
<path fill="none" stroke="#191970" d="M961.7323,-397.4179C1034.4143,-390.3101 1131.648,-377.7126 1166,-359 1204.7002,-337.9187 1200.8404,-316.1642 1232,-285 1242.3561,-274.6424 1254.5825,-263.6947 1264.4678,-255.134"/>
<polygon fill="#191970" stroke="#191970" points="1266.8122,-257.7344 1272.1284,-248.5698 1262.2574,-252.4188 1266.8122,-257.7344"/>
</g>
<!-- Node40 -->
<g id="node38" class="node">
<title>Node40</title>
<polygon fill="#ffffff" stroke="#bfbfbf" points="104.3843,-285.5 104.3843,-303.5 147.6157,-303.5 147.6157,-285.5 104.3843,-285.5"/>
<text text-anchor="middle" x="126" y="-291.5" font-family="FreeSans" font-size="10.00" fill="#000000">vector</text>
</g>
<!-- Node39&#45;&gt;Node40 -->
<g id="edge66" class="edge">
<title>Node39&#45;&gt;Node40</title>
<path fill="none" stroke="#191970" d="M788.283,-401.7418C618.2627,-395.8848 253.0147,-380.9228 200,-359 175.2839,-348.7793 153.0613,-326.8499 139.5637,-311.4086"/>
<polygon fill="#191970" stroke="#191970" points="142.1195,-309.01 133.0022,-303.6132 136.7641,-313.5177 142.1195,-309.01"/>
</g>
<!-- Node41 -->
<g id="node39" class="node">
<title>Node41</title>
<g id="a_node39"><a xlink:href="AngleComputer_8h_source.html" target="_top" xlink:title="DGtal/math/AngleComputer.h">
<polygon fill="#ffffff" stroke="#000000" points="995.6875,-285.5 995.6875,-303.5 1142.3125,-303.5 1142.3125,-285.5 995.6875,-285.5"/>
<text text-anchor="middle" x="1069" y="-291.5" font-family="FreeSans" font-size="10.00" fill="#000000">DGtal/math/AngleComputer.h</text>
</a>
</g>
</g>
<!-- Node39&#45;&gt;Node41 -->
<g id="edge68" class="edge">
<title>Node39&#45;&gt;Node41</title>
<path fill="none" stroke="#191970" d="M961.8344,-395.7039C1037.4356,-387.1477 1136.8205,-373.3688 1149,-359 1166.6711,-338.1525 1134.5503,-319.1599 1105.8988,-307.2668"/>
<polygon fill="#191970" stroke="#191970" points="1106.9787,-303.9303 1096.3921,-303.5133 1104.408,-310.4412 1106.9787,-303.9303"/>
</g>
<!-- Node43 -->
<g id="node41" class="node">
<title>Node43</title>
<g id="a_node41"><a xlink:href="ModuloComputer_8h_source.html" target="_top" xlink:title="DGtal/arithmetic/ModuloComputer.h">
<polygon fill="#ffffff" stroke="#ff0000" points="771.52,-340.5 771.52,-358.5 946.48,-358.5 946.48,-340.5 771.52,-340.5"/>
<text text-anchor="middle" x="859" y="-346.5" font-family="FreeSans" font-size="10.00" fill="#000000">DGtal/arithmetic/ModuloComputer.h</text>
</a>
</g>
</g>
<!-- Node39&#45;&gt;Node43 -->
<g id="edge72" class="edge">
<title>Node39&#45;&gt;Node43</title>
<path fill="none" stroke="#191970" d="M872.3579,-395.4179C870.2399,-388.1372 867.1946,-377.669 864.5464,-368.5659"/>
<polygon fill="#191970" stroke="#191970" points="867.8535,-367.4037 861.6995,-358.7795 861.1322,-369.3591 867.8535,-367.4037"/>
</g>
<!-- Node58 -->
<g id="node43" class="node">
<title>Node58</title>
<g id="a_node43"><a xlink:href="AngleLinearMinimizer_8ih_source.html" target="_top" xlink:title="DGtal/math/AngleLinearMinimizer.ih">
<polygon fill="#ffffff" stroke="#000000" points="964.2417,-340.5 964.2417,-358.5 1139.7583,-358.5 1139.7583,-340.5 964.2417,-340.5"/>
<text text-anchor="middle" x="1052" y="-346.5" font-family="FreeSans" font-size="10.00" fill="#000000">DGtal/math/AngleLinearMinimizer.ih</text>
</a>
</g>
</g>
<!-- Node39&#45;&gt;Node58 -->
<g id="edge78" class="edge">
<title>Node39&#45;&gt;Node58</title>
<path fill="none" stroke="#191970" d="M904.228,-395.4179C934.0376,-386.155 980.4519,-371.7325 1013.2982,-361.526"/>
<polygon fill="#191970" stroke="#191970" points="1014.5118,-364.814 1023.0228,-358.5042 1012.4346,-358.1293 1014.5118,-364.814"/>
</g>
<!-- Node41&#45;&gt;Node1 -->
<g id="edge69" class="edge">
<title>Node41&#45;&gt;Node1</title>
<path fill="none" stroke="#191970" d="M1036.3477,-285.3792C1018.3938,-278.5105 997.6555,-267.0985 987,-249 968.3509,-217.3243 1006.0263,-178.5183 1025,-165 1091.7997,-117.4069 1153.9664,-192.402 1206,-129 1226.8647,-103.5767 1224.2346,-82.3711 1206,-55 1190.112,-31.1511 1159.0892,-19.7812 1134.1898,-14.3728"/>
<polygon fill="#191970" stroke="#191970" points="1134.7851,-10.9231 1124.3023,-12.4598 1133.4554,-17.7957 1134.7851,-10.9231"/>
</g>
<!-- Node41&#45;&gt;Node2 -->
<g id="edge70" class="edge">
<title>Node41&#45;&gt;Node2</title>
<path fill="none" stroke="#191970" d="M1104.3377,-285.4179C1141.0002,-275.9953 1198.4365,-261.2336 1238.2472,-251.0019"/>
<polygon fill="#191970" stroke="#191970" points="1239.1514,-254.3833 1247.9654,-248.5042 1237.4089,-247.6036 1239.1514,-254.3833"/>
</g>
<!-- Node42 -->
<g id="node40" class="node">
<title>Node42</title>
<g id="a_node40"><a xlink:href="AngleComputer_8ih_source.html" target="_top" xlink:title="DGtal/math/AngleComputer.ih">
<polygon fill="#ffffff" stroke="#000000" points="995.5767,-230.5 995.5767,-248.5 1144.4233,-248.5 1144.4233,-230.5 995.5767,-230.5"/>
<text text-anchor="middle" x="1070" y="-236.5" font-family="FreeSans" font-size="10.00" fill="#000000">DGtal/math/AngleComputer.ih</text>
</a>
</g>
</g>
<!-- Node41&#45;&gt;Node42 -->
<g id="edge71" class="edge">
<title>Node41&#45;&gt;Node42</title>
<path fill="none" stroke="#191970" d="M1069.1651,-285.4179C1069.2961,-278.2164 1069.4837,-267.8962 1069.6479,-258.8632"/>
<polygon fill="#191970" stroke="#191970" points="1073.1488,-258.8415 1069.8313,-248.7795 1066.15,-258.7141 1073.1488,-258.8415"/>
</g>
<!-- Node43&#45;&gt;Node1 -->
<g id="edge73" class="edge">
<title>Node43&#45;&gt;Node1</title>
<path fill="none" stroke="#191970" d="M771.3852,-342.5773C603.2883,-328.1116 252,-291.6435 252,-239.5 252,-239.5 252,-239.5 252,-119.5 252,-56.9844 316.7449,-71.6591 377,-55 507.4824,-18.9247 930.9984,-11.3312 1059.6171,-9.8417"/>
<polygon fill="#191970" stroke="#191970" points="1059.7914,-13.3401 1069.7522,-9.73 1059.7142,-6.3405 1059.7914,-13.3401"/>
</g>
<!-- Node43&#45;&gt;Node2 -->
<g id="edge74" class="edge">
<title>Node43&#45;&gt;Node2</title>
<path fill="none" stroke="#191970" d="M933.5122,-340.4694C1006.2644,-331.1881 1111.5991,-316.3847 1151,-304 1161.7315,-300.6268 1220.357,-271.2727 1255.7711,-253.3474"/>
<polygon fill="#191970" stroke="#191970" points="1257.7484,-256.2692 1265.0851,-248.6257 1254.5832,-250.0256 1257.7484,-256.2692"/>
</g>
<!-- Node44 -->
<g id="node42" class="node">
<title>Node44</title>
<g id="a_node42"><a xlink:href="NumberTraits_8h_source.html" target="_top" xlink:title="DGtal/kernel/NumberTraits.h">
<polygon fill="#ffffff" stroke="#ff0000" points="834.5527,-285.5 834.5527,-303.5 977.4473,-303.5 977.4473,-285.5 834.5527,-285.5"/>
<text text-anchor="middle" x="906" y="-291.5" font-family="FreeSans" font-size="10.00" fill="#000000">DGtal/kernel/NumberTraits.h</text>
</a>
</g>
</g>
<!-- Node43&#45;&gt;Node44 -->
<g id="edge75" class="edge">
<title>Node43&#45;&gt;Node44</title>
<path fill="none" stroke="#191970" d="M866.7611,-340.4179C873.4561,-332.5833 883.3054,-321.0575 891.461,-311.5137"/>
<polygon fill="#191970" stroke="#191970" points="894.2345,-313.6556 898.0703,-303.7795 888.9129,-309.108 894.2345,-313.6556"/>
</g>
<!-- Node44&#45;&gt;Node1 -->
<g id="edge76" class="edge">
<title>Node44&#45;&gt;Node1</title>
<path fill="none" stroke="#191970" d="M835.7941,-285.4696C674.8684,-263.1156 296.9003,-200.3923 347,-110 369.3583,-69.66 391.1279,-69.2283 435,-55 552.4085,-16.9228 937.0884,-10.7109 1059.344,-9.6975"/>
<polygon fill="#191970" stroke="#191970" points="1059.7086,-13.195 1069.6818,-9.6193 1059.6555,-6.1952 1059.7086,-13.195"/>
</g>
<!-- Node44&#45;&gt;Node2 -->
<g id="edge77" class="edge">
<title>Node44&#45;&gt;Node2</title>
<path fill="none" stroke="#191970" d="M967.8317,-285.4795C1035.427,-275.6181 1143.4686,-259.856 1213.8326,-249.5907"/>
<polygon fill="#191970" stroke="#191970" points="1214.5415,-253.0245 1223.9315,-248.1174 1213.5309,-246.0978 1214.5415,-253.0245"/>
</g>
<!-- Node59&#45;&gt;Node1 -->
<g id="edge80" class="edge">
<title>Node59&#45;&gt;Node1</title>
<path fill="none" stroke="#191970" d="M809.7316,-510.9142C633.3229,-500.7414 176,-468.2243 176,-404.5 176,-404.5 176,-404.5 176,-119.5 176,-80.3479 200.5299,-71.5758 236,-55 273.7809,-37.3443 898.3973,-15.9433 1059.3897,-10.7012"/>
<polygon fill="#191970" stroke="#191970" points="1059.8587,-14.1879 1069.7401,-10.3657 1059.6319,-7.1916 1059.8587,-14.1879"/>
</g>
<!-- Node59&#45;&gt;Node2 -->
<g id="edge89" class="edge">
<title>Node59&#45;&gt;Node2</title>
<path fill="none" stroke="#191970" d="M946.1208,-510.5428C1050.6635,-503.8712 1241.1478,-489.1182 1265,-469 1287.8439,-449.7323 1284,-434.3846 1284,-404.5 1284,-404.5 1284,-404.5 1284,-349.5 1284,-317.7704 1283.5788,-280.8948 1283.2831,-258.9165"/>
<polygon fill="#191970" stroke="#191970" points="1286.7788,-258.5764 1283.139,-248.6264 1279.7795,-258.6745 1286.7788,-258.5764"/>
</g>
<!-- Node60 -->
<g id="node45" class="node">
<title>Node60</title>
<g id="a_node45"><a xlink:href="Board_8h_source.html" target="_top" xlink:title="Board/Board.h">
<polygon fill="#ffffff" stroke="#ff0000" points="29.7563,-340.5 29.7563,-358.5 110.2437,-358.5 110.2437,-340.5 29.7563,-340.5"/>
<text text-anchor="middle" x="70" y="-346.5" font-family="FreeSans" font-size="10.00" fill="#000000">Board/Board.h</text>
</a>
</g>
</g>
<!-- Node59&#45;&gt;Node60 -->
<g id="edge81" class="edge">
<title>Node59&#45;&gt;Node60</title>
<path fill="none" stroke="#191970" d="M809.8615,-513.355C642.0335,-510.0855 218.2484,-498.9357 162,-469 119.9856,-446.6397 91.2513,-395.7826 78.121,-368.172"/>
<polygon fill="#191970" stroke="#191970" points="81.1954,-366.4785 73.8576,-358.8361 74.828,-369.3864 81.1954,-366.4785"/>
</g>
<!-- Node62 -->
<g id="node46" class="node">
<title>Node62</title>
<g id="a_node46"><a xlink:href="Color_8h_source.html" target="_top" xlink:title="DGtal/io/Color.h">
<polygon fill="#ffffff" stroke="#ff0000" points="729.7046,-285.5 729.7046,-303.5 816.2954,-303.5 816.2954,-285.5 729.7046,-285.5"/>
<text text-anchor="middle" x="773" y="-291.5" font-family="FreeSans" font-size="10.00" fill="#000000">DGtal/io/Color.h</text>
</a>
</g>
</g>
<!-- Node59&#45;&gt;Node62 -->
<g id="edge93" class="edge">
<title>Node59&#45;&gt;Node62</title>
<path fill="none" stroke="#191970" d="M854.3295,-505.4254C837.4737,-497.907 815.3522,-485.7385 801,-469 762.095,-423.6266 756.5474,-399.4198 763,-340 763.9485,-331.2659 765.8925,-321.7519 767.8164,-313.6922"/>
<polygon fill="#191970" stroke="#191970" points="771.256,-314.3677 770.3321,-303.8132 764.4725,-312.6402 771.256,-314.3677"/>
</g>
<!-- Node81 -->
<g id="node47" class="node">
<title>Node81</title>
<g id="a_node47"><a xlink:href="CountedPtr_8h_source.html" target="_top" xlink:title="DGtal/base/CountedPtr.h">
<polygon fill="#ffffff" stroke="#ff0000" points="1350.4092,-285.5 1350.4092,-303.5 1477.5908,-303.5 1477.5908,-285.5 1350.4092,-285.5"/>
<text text-anchor="middle" x="1414" y="-291.5" font-family="FreeSans" font-size="10.00" fill="#000000">DGtal/base/CountedPtr.h</text>
</a>
</g>
</g>
<!-- Node59&#45;&gt;Node81 -->
<g id="edge90" class="edge">
<title>Node59&#45;&gt;Node81</title>
<path fill="none" stroke="#191970" d="M946.2551,-510.2755C1057.5351,-502.9192 1268.6583,-486.8291 1298,-469 1358.5527,-432.206 1394.113,-350.3878 1407.659,-313.3561"/>
<polygon fill="#191970" stroke="#191970" points="1411.0091,-314.38 1411.0298,-303.7852 1404.4066,-312.0546 1411.0091,-314.38"/>
</g>
<!-- Node83 -->
<g id="node48" class="node">
<title>Node83</title>
<g id="a_node48"><a xlink:href="Display2DFactory_8h_source.html" target="_top" xlink:title="Header file for module Display2DFactory. ">
<polygon fill="#ffffff" stroke="#ff0000" points="958.2925,-450.5 958.2925,-468.5 1099.7075,-468.5 1099.7075,-450.5 958.2925,-450.5"/>
<text text-anchor="middle" x="1029" y="-456.5" font-family="FreeSans" font-size="10.00" fill="#000000">DGtal/io/Display2DFactory.h</text>
</a>
</g>
</g>
<!-- Node59&#45;&gt;Node83 -->
<g id="edge94" class="edge">
<title>Node59&#45;&gt;Node83</title>
<path fill="none" stroke="#191970" d="M902.9346,-505.4179C927.927,-496.3147 966.6006,-482.2283 994.5236,-472.0576"/>
<polygon fill="#191970" stroke="#191970" points="996.0811,-475.2153 1004.2794,-468.5042 993.6854,-468.6381 996.0811,-475.2153"/>
</g>
<!-- Node313 -->
<g id="node49" class="node">
<title>Node313</title>
<g id="a_node49"><a xlink:href="Style2DFactory_8h_source.html" target="_top" xlink:title="Header file for module Style2DFactory. ">
<polygon fill="#ffffff" stroke="#ff0000" points="809.5708,-450.5 809.5708,-468.5 940.4292,-468.5 940.4292,-450.5 809.5708,-450.5"/>
<text text-anchor="middle" x="875" y="-456.5" font-family="FreeSans" font-size="10.00" fill="#000000">DGtal/io/Style2DFactory.h</text>
</a>
</g>
</g>
<!-- Node59&#45;&gt;Node313 -->
<g id="edge97" class="edge">
<title>Node59&#45;&gt;Node313</title>
<path fill="none" stroke="#191970" d="M877.5046,-505.4179C877.1118,-498.2164 876.5489,-487.8962 876.0562,-478.8632"/>
<polygon fill="#191970" stroke="#191970" points="879.5457,-478.574 875.5062,-468.7795 872.5561,-478.9553 879.5457,-478.574"/>
</g>
<!-- Node319 -->
<g id="node50" class="node">
<title>Node319</title>
<g id="a_node50"><a xlink:href="Board2D_8ih_source.html" target="_top" xlink:title="DGtal/io/boards/Board2D.ih">
<polygon fill="#ffffff" stroke="#000000" points="1117.8574,-450.5 1117.8574,-468.5 1256.1426,-468.5 1256.1426,-450.5 1117.8574,-450.5"/>
<text text-anchor="middle" x="1187" y="-456.5" font-family="FreeSans" font-size="10.00" fill="#000000">DGtal/io/boards/Board2D.ih</text>
</a>
</g>
</g>
<!-- Node59&#45;&gt;Node319 -->
<g id="edge99" class="edge">
<title>Node59&#45;&gt;Node319</title>
<path fill="none" stroke="#191970" d="M928.6791,-505.4795C982.7876,-495.8485 1068.5161,-480.5894 1126.2161,-470.3191"/>
<polygon fill="#191970" stroke="#191970" points="1127.0614,-473.7238 1136.2933,-468.5255 1125.8346,-466.8321 1127.0614,-473.7238"/>
</g>
<!-- Node60&#45;&gt;Node15 -->
<g id="edge83" class="edge">
<title>Node60&#45;&gt;Node15</title>
<path fill="none" stroke="#191970" d="M70.8343,-340.3825C72.4829,-321.5516 76,-276.9862 76,-239.5 76,-239.5 76,-239.5 76,-119.5 76,-88.9131 75.5869,-73.4271 100,-55 143.9253,-21.8451 534.6214,-12.1317 647.5543,-10.0049"/>
<polygon fill="#191970" stroke="#191970" points="647.6605,-13.5036 657.5952,-9.8222 647.5331,-6.5048 647.6605,-13.5036"/>
</g>
<!-- Node60&#45;&gt;Node17 -->
<g id="edge82" class="edge">
<title>Node60&#45;&gt;Node17</title>
<path fill="none" stroke="#191970" d="M65.4152,-340.3458C56.5669,-321.8064 38,-278.2833 38,-239.5 38,-239.5 38,-239.5 38,-119.5 38,-88.9131 38.4928,-74.5695 62,-55 95.251,-27.319 221.2367,-15.6856 284.4143,-11.5108"/>
<polygon fill="#191970" stroke="#191970" points="284.959,-14.9834 294.7183,-10.8595 284.5173,-7.9974 284.959,-14.9834"/>
</g>
<!-- Node60&#45;&gt;Node40 -->
<g id="edge84" class="edge">
<title>Node60&#45;&gt;Node40</title>
<path fill="none" stroke="#191970" d="M79.2473,-340.4179C87.3855,-332.425 99.4353,-320.5903 109.2634,-310.9377"/>
<polygon fill="#191970" stroke="#191970" points="111.8698,-313.2836 116.5518,-303.7795 106.9648,-308.2895 111.8698,-313.2836"/>
</g>
<!-- Node60&#45;&gt;Node62 -->
<g id="edge85" class="edge">
<title>Node60&#45;&gt;Node62</title>
<path fill="none" stroke="#191970" d="M110.3213,-346.3454C230.0313,-336.9798 583.4601,-309.3289 719.1285,-298.7147"/>
<polygon fill="#191970" stroke="#191970" points="719.584,-302.1899 729.2805,-297.9204 719.0379,-295.2112 719.584,-302.1899"/>
</g>
<!-- Node62&#45;&gt;Node1 -->
<g id="edge86" class="edge">
<title>Node62&#45;&gt;Node1</title>
<path fill="none" stroke="#191970" d="M782.3571,-285.4506C807.8257,-261.3994 881.4868,-195.6396 956,-165 1046.417,-127.8208 1109.7808,-203.5712 1173,-129 1194.2679,-103.9131 1189.2182,-83.6121 1173,-55 1164.3965,-39.8216 1148.4919,-29.1602 1133.4474,-21.9932"/>
<polygon fill="#191970" stroke="#191970" points="1134.8284,-18.7772 1124.2641,-17.9732 1132.0213,-25.1897 1134.8284,-18.7772"/>
</g>
<!-- Node62&#45;&gt;Node2 -->
<g id="edge87" class="edge">
<title>Node62&#45;&gt;Node2</title>
<path fill="none" stroke="#191970" d="M816.3417,-286.4467C819.6053,-285.9275 822.852,-285.4382 826,-285 963.0633,-265.9226 1124.335,-251.7991 1213.989,-244.6813"/>
<polygon fill="#191970" stroke="#191970" points="1214.3361,-248.1648 1224.0301,-243.8896 1213.7859,-241.1865 1214.3361,-248.1648"/>
</g>
<!-- Node62&#45;&gt;Node4 -->
<g id="edge88" class="edge">
<title>Node62&#45;&gt;Node4</title>
<path fill="none" stroke="#191970" d="M792.7753,-285.3428C812.0792,-276.3302 842.2258,-262.0591 868,-249 938.5932,-213.2324 949.3454,-188.2184 1025,-165 1168.8014,-120.8673 1215.6055,-154.2065 1367.8606,-128.9358"/>
<polygon fill="#191970" stroke="#191970" points="1368.7817,-132.3289 1378.0441,-127.185 1367.5956,-125.4301 1368.7817,-132.3289"/>
</g>
<!-- Node81&#45;&gt;Node1 -->
<g id="edge91" class="edge">
<title>Node81&#45;&gt;Node1</title>
<path fill="none" stroke="#191970" d="M1477.657,-291.6865C1723.5859,-280.4037 2598,-236.2938 2598,-179.5 2598,-179.5 2598,-179.5 2598,-119.5 2598,-75.5354 2563.9722,-70.9427 2523,-55 2456.462,-29.1093 1352.7449,-12.9435 1134.3678,-9.9903"/>
<polygon fill="#191970" stroke="#191970" points="1134.4056,-6.4906 1124.3594,-9.8558 1134.3115,-13.49 1134.4056,-6.4906"/>
</g>
<!-- Node81&#45;&gt;Node2 -->
<g id="edge92" class="edge">
<title>Node81&#45;&gt;Node2</title>
<path fill="none" stroke="#191970" d="M1392.368,-285.4179C1371.035,-276.4613 1338.2121,-262.6806 1314.0875,-252.552"/>
<polygon fill="#191970" stroke="#191970" points="1315.2394,-249.2397 1304.6641,-248.5956 1312.5295,-255.6939 1315.2394,-249.2397"/>
</g>
<!-- Node83&#45;&gt;Node2 -->
<g id="edge95" class="edge">
<title>Node83&#45;&gt;Node2</title>
<path fill="none" stroke="#191970" d="M1048.7688,-450.4354C1081.2856,-434.8949 1147.0298,-400.7676 1193,-359 1227.11,-328.0083 1257.1742,-282.5663 1272.413,-257.5962"/>
<polygon fill="#191970" stroke="#191970" points="1275.5361,-259.1935 1277.6727,-248.8163 1269.5312,-255.5961 1275.5361,-259.1935"/>
</g>
<!-- Node83&#45;&gt;Node39 -->
<g id="edge96" class="edge">
<title>Node83&#45;&gt;Node39</title>
<path fill="none" stroke="#191970" d="M1003.57,-450.4179C977.9693,-441.2748 938.2929,-427.1046 909.7873,-416.924"/>
<polygon fill="#191970" stroke="#191970" points="910.8064,-413.5715 900.2118,-413.5042 908.452,-420.1637 910.8064,-413.5715"/>
</g>
<!-- Node313&#45;&gt;Node39 -->
<g id="edge98" class="edge">
<title>Node313&#45;&gt;Node39</title>
<path fill="none" stroke="#191970" d="M875,-450.4179C875,-443.2164 875,-432.8962 875,-423.8632"/>
<polygon fill="#191970" stroke="#191970" points="878.5001,-423.7794 875,-413.7795 871.5001,-423.7795 878.5001,-423.7794"/>
</g>
</g>
</svg>
