<?xml version="1.0" encoding="UTF-8" standalone="no"?>
<!DOCTYPE svg PUBLIC "-//W3C//DTD SVG 1.1//EN"
 "http://www.w3.org/Graphics/SVG/1.1/DTD/svg11.dtd">
<!-- Generated by graphviz version 2.40.1 (20161225.0304)
 -->
<!-- Title: testFreemanChain.cpp Pages: 1 -->
<!--zoomable 702 -->
<svg id="main" version="1.1" xmlns="http://www.w3.org/2000/svg" xmlns:xlink="http://www.w3.org/1999/xlink" xml:space="preserve" onload="init(evt)">
<style type="text/css"><![CDATA[
.edge:hover path { stroke: red; }
.edge:hover polygon { stroke: red; fill: red; }
]]></style>
<script type="text/javascript"><![CDATA[
var edges = document.getElementsByTagName('g');
if (edges && edges.length) {
  for (var i=0;i<edges.length;i++) {
    if (edges[i].id.substr(0,4)=='edge') {
      edges[i].setAttribute('class','edge');
    }
  }
}
]]></script>
        <defs>
                <circle id="rim" cx="0" cy="0" r="7"/>
                <circle id="rim2" cx="0" cy="0" r="3.5"/>
                <g id="zoomPlus">
                        <use xlink:href="#rim" fill="#404040">
                                <set attributeName="fill" to="#808080" begin="zoomplus.mouseover" end="zoomplus.mouseout"/>
                        </use>
                        <path d="M-4,0h8M0,-4v8" fill="none" stroke="white" stroke-width="1.5" pointer-events="none"/>
                </g>
                <g id="zoomMin">
                        <use xlink:href="#rim" fill="#404040">
                                <set attributeName="fill" to="#808080" begin="zoomminus.mouseover" end="zoomminus.mouseout"/>
                        </use>
                        <path d="M-4,0h8" fill="none" stroke="white" stroke-width="1.5" pointer-events="none"/>
                </g>
                <g id="dirArrow">
                        <path fill="none" stroke="white" stroke-width="1.5" d="M0,-3.0v7 M-2.5,-0.5L0,-3.0L2.5,-0.5"/>
                </g>
               <g id="resetDef">
                       <use xlink:href="#rim2" fill="#404040">
                               <set attributeName="fill" to="#808080" begin="reset.mouseover" end="reset.mouseout"/>
                       </use>
               </g>
        </defs>

<script type="text/javascript">
var viewWidth = 3055;
var viewHeight = 702;
var sectionId = 'dynsection-0';
</script>
<script xlink:href="svgpan.js"/>
<svg id="graph" class="graph">
<g id="viewport">
<title>testFreemanChain.cpp</title>
<polygon fill="#ffffff" stroke="transparent" points="-4,4 -4,-698 3050.793,-698 3050.793,4 -4,4"/>
<!-- Node0 -->
<g id="node1" class="node">
<title>Node0</title>
<polygon fill="#bfbfbf" stroke="#000000" points="2013.4189,-675.5 2013.4189,-693.5 2130.5811,-693.5 2130.5811,-675.5 2013.4189,-675.5"/>
<text text-anchor="middle" x="2072" y="-681.5" font-family="FreeSans" font-size="10.00" fill="#000000">testFreemanChain.cpp</text>
</g>
<!-- Node1 -->
<g id="node2" class="node">
<title>Node1</title>
<polygon fill="#ffffff" stroke="#bfbfbf" points="971.8276,-.5 971.8276,-18.5 1026.1724,-18.5 1026.1724,-.5 971.8276,-.5"/>
<text text-anchor="middle" x="999" y="-6.5" font-family="FreeSans" font-size="10.00" fill="#000000">iostream</text>
</g>
<!-- Node0&#45;&gt;Node1 -->
<g id="edge1" class="edge">
<title>Node0&#45;&gt;Node1</title>
<path fill="none" stroke="#191970" d="M2013.3267,-682.8172C1676.1354,-672.9587 0,-621.3459 0,-569.5 0,-569.5 0,-569.5 0,-119.5 0,-81.2436 22.5132,-71.5594 57,-55 139.5044,-15.3841 796.4761,-10.2606 961.4969,-9.5983"/>
<polygon fill="#191970" stroke="#191970" points="961.6568,-13.0978 971.6438,-9.5608 961.6309,-6.0979 961.6568,-13.0978"/>
</g>
<!-- Node2 -->
<g id="node3" class="node">
<title>Node2</title>
<polygon fill="#ffffff" stroke="#bfbfbf" points="2908.3301,-620.5 2908.3301,-638.5 2957.6699,-638.5 2957.6699,-620.5 2908.3301,-620.5"/>
<text text-anchor="middle" x="2933" y="-626.5" font-family="FreeSans" font-size="10.00" fill="#000000">fstream</text>
</g>
<!-- Node0&#45;&gt;Node2 -->
<g id="edge2" class="edge">
<title>Node0&#45;&gt;Node2</title>
<path fill="none" stroke="#191970" d="M2130.5891,-682.657C2292.9577,-677.3264 2746.4316,-660.8677 2894,-639 2895.2796,-638.8104 2896.5787,-638.5983 2897.8877,-638.368"/>
<polygon fill="#191970" stroke="#191970" points="2898.8582,-641.7423 2907.9586,-636.3171 2897.4613,-634.8831 2898.8582,-641.7423"/>
</g>
<!-- Node3 -->
<g id="node4" class="node">
<title>Node3</title>
<polygon fill="#ffffff" stroke="#bfbfbf" points="1485.2192,-495.5 1485.2192,-513.5 1536.7808,-513.5 1536.7808,-495.5 1485.2192,-495.5"/>
<text text-anchor="middle" x="1511" y="-501.5" font-family="FreeSans" font-size="10.00" fill="#000000">sstream</text>
</g>
<!-- Node0&#45;&gt;Node3 -->
<g id="edge3" class="edge">
<title>Node0&#45;&gt;Node3</title>
<path fill="none" stroke="#191970" d="M2043.7955,-675.4504C1950.2576,-645.4383 1650.3366,-549.2069 1546.6583,-515.9412"/>
<polygon fill="#191970" stroke="#191970" points="1547.5598,-512.5547 1536.9686,-512.8322 1545.4212,-519.2201 1547.5598,-512.5547"/>
</g>
<!-- Node4 -->
<g id="node5" class="node">
<title>Node4</title>
<g id="a_node5"><a xlink:href="SpaceND_8h_source.html" target="_top" xlink:title="DGtal/kernel/SpaceND.h">
<polygon fill="#ffffff" stroke="#000000" points="937.2539,-360.5 937.2539,-378.5 1062.7461,-378.5 1062.7461,-360.5 937.2539,-360.5"/>
<text text-anchor="middle" x="1000" y="-366.5" font-family="FreeSans" font-size="10.00" fill="#000000">DGtal/kernel/SpaceND.h</text>
</a>
</g>
</g>
<!-- Node0&#45;&gt;Node4 -->
<g id="edge4" class="edge">
<title>Node0&#45;&gt;Node4</title>
<path fill="none" stroke="#191970" d="M2013.0892,-682.897C1817.9506,-676.8152 1205,-651.2085 1205,-569.5 1205,-569.5 1205,-569.5 1205,-504.5 1205,-432.9493 1116.816,-397.1821 1056.1225,-381.0385"/>
<polygon fill="#191970" stroke="#191970" points="1056.8166,-377.6035 1046.2616,-378.522 1055.0856,-384.3861 1056.8166,-377.6035"/>
</g>
<!-- Node5 -->
<g id="node6" class="node">
<title>Node5</title>
<g id="a_node6"><a xlink:href="Common_8h_source.html" target="_top" xlink:title="DGtal/base/Common.h">
<polygon fill="#ffffff" stroke="#000000" points="1224.1455,-230.5 1224.1455,-248.5 1341.8545,-248.5 1341.8545,-230.5 1224.1455,-230.5"/>
<text text-anchor="middle" x="1283" y="-236.5" font-family="FreeSans" font-size="10.00" fill="#000000">DGtal/base/Common.h</text>
</a>
</g>
</g>
<!-- Node0&#45;&gt;Node5 -->
<g id="edge54" class="edge">
<title>Node0&#45;&gt;Node5</title>
<path fill="none" stroke="#191970" d="M2107.6257,-675.4898C2153.9473,-661.3844 2229,-629.3028 2229,-569.5 2229,-569.5 2229,-569.5 2229,-369.5 2229,-248.4174 2088.8864,-307.9567 1970,-285 1853.0492,-262.4171 1501.8267,-247.42 1351.9725,-241.8842"/>
<polygon fill="#191970" stroke="#191970" points="1352.0886,-238.3862 1341.9671,-241.5176 1351.8322,-245.3815 1352.0886,-238.3862"/>
</g>
<!-- Node63 -->
<g id="node31" class="node">
<title>Node63</title>
<g id="a_node31"><a xlink:href="StdDefs_8h_source.html" target="_top" xlink:title="DGtal/helpers/StdDefs.h">
<polygon fill="#ffffff" stroke="#000000" points="892.0864,-620.5 892.0864,-638.5 1015.9136,-638.5 1015.9136,-620.5 892.0864,-620.5"/>
<text text-anchor="middle" x="954" y="-626.5" font-family="FreeSans" font-size="10.00" fill="#000000">DGtal/helpers/StdDefs.h</text>
</a>
</g>
</g>
<!-- Node0&#45;&gt;Node63 -->
<g id="edge55" class="edge">
<title>Node0&#45;&gt;Node63</title>
<path fill="none" stroke="#191970" d="M2013.0738,-681.6011C1823.9619,-672.2978 1232.6835,-643.2098 1026.1054,-633.0472"/>
<polygon fill="#191970" stroke="#191970" points="1026.1357,-629.5446 1015.9758,-632.5489 1025.7917,-636.5361 1026.1357,-629.5446"/>
</g>
<!-- Node64 -->
<g id="node32" class="node">
<title>Node64</title>
<g id="a_node32"><a xlink:href="HyperRectDomain_8h_source.html" target="_top" xlink:title="DGtal/kernel/domains\l/HyperRectDomain.h">
<polygon fill="#ffffff" stroke="#ff0000" points="2085.9238,-555.5 2085.9238,-583.5 2198.0762,-583.5 2198.0762,-555.5 2085.9238,-555.5"/>
<text text-anchor="start" x="2093.9238" y="-571.5" font-family="FreeSans" font-size="10.00" fill="#000000">DGtal/kernel/domains</text>
<text text-anchor="middle" x="2142" y="-561.5" font-family="FreeSans" font-size="10.00" fill="#000000">/HyperRectDomain.h</text>
</a>
</g>
</g>
<!-- Node0&#45;&gt;Node64 -->
<g id="edge135" class="edge">
<title>Node0&#45;&gt;Node64</title>
<path fill="none" stroke="#191970" d="M2077.4928,-675.4761C2088.2859,-657.7447 2112.5557,-617.8728 2128.0561,-592.4078"/>
<polygon fill="#191970" stroke="#191970" points="2131.119,-594.1073 2133.3288,-583.7455 2125.1396,-590.4677 2131.119,-594.1073"/>
</g>
<!-- Node127 -->
<g id="node45" class="node">
<title>Node127</title>
<g id="a_node45"><a xlink:href="FreemanChain_8h_source.html" target="_top" xlink:title="Header file for module FreemanChain.cpp. ">
<polygon fill="#ffffff" stroke="#ff0000" points="1378.8721,-555.5 1378.8721,-583.5 1497.1279,-583.5 1497.1279,-555.5 1378.8721,-555.5"/>
<text text-anchor="start" x="1386.8721" y="-571.5" font-family="FreeSans" font-size="10.00" fill="#000000">DGtal/geometry/curves</text>
<text text-anchor="middle" x="1438" y="-561.5" font-family="FreeSans" font-size="10.00" fill="#000000">/FreemanChain.h</text>
</a>
</g>
</g>
<!-- Node0&#45;&gt;Node127 -->
<g id="edge114" class="edge">
<title>Node0&#45;&gt;Node127</title>
<path fill="none" stroke="#191970" d="M2022.2511,-675.4761C1909.9856,-655.1125 1636.7316,-605.5475 1507.6816,-582.1394"/>
<polygon fill="#191970" stroke="#191970" points="1507.9846,-578.6373 1497.5204,-580.2963 1506.7352,-585.5249 1507.9846,-578.6373"/>
</g>
<!-- Node159 -->
<g id="node49" class="node">
<title>Node159</title>
<g id="a_node49"><a xlink:href="Board2D_8h_source.html" target="_top" xlink:title="DGtal/io/boards/Board2D.h">
<polygon fill="#ffffff" stroke="#ff0000" points="2869.9683,-290.5 2869.9683,-308.5 3006.0317,-308.5 3006.0317,-290.5 2869.9683,-290.5"/>
<text text-anchor="middle" x="2938" y="-296.5" font-family="FreeSans" font-size="10.00" fill="#000000">DGtal/io/boards/Board2D.h</text>
</a>
</g>
</g>
<!-- Node0&#45;&gt;Node159 -->
<g id="edge136" class="edge">
<title>Node0&#45;&gt;Node159</title>
<path fill="none" stroke="#191970" d="M2130.7602,-682.3239C2316.6949,-674.6657 2880,-645.2164 2880,-569.5 2880,-569.5 2880,-569.5 2880,-439.5 2880,-392.4031 2908.3615,-342.7151 2925.4193,-317.0898"/>
<polygon fill="#191970" stroke="#191970" points="2928.3449,-319.0123 2931.1189,-308.787 2922.5738,-315.0506 2928.3449,-319.0123"/>
</g>
<!-- Node321 -->
<g id="node50" class="node">
<title>Node321</title>
<polygon fill="#ffffff" stroke="#bfbfbf" points="2975.207,-620.5 2975.207,-638.5 3046.793,-638.5 3046.793,-620.5 2975.207,-620.5"/>
<text text-anchor="middle" x="3011" y="-626.5" font-family="FreeSans" font-size="10.00" fill="#000000">ConfigTest.h</text>
</g>
<!-- Node0&#45;&gt;Node321 -->
<g id="edge139" class="edge">
<title>Node0&#45;&gt;Node321</title>
<path fill="none" stroke="#191970" d="M2130.7696,-682.7561C2299.6992,-677.5497 2785.4945,-661.1725 2964.9637,-639.0493"/>
<polygon fill="#191970" stroke="#191970" points="2965.591,-642.4977 2975.0647,-637.7545 2964.7009,-635.5545 2965.591,-642.4977"/>
</g>
<!-- Node4&#45;&gt;Node1 -->
<g id="edge5" class="edge">
<title>Node4&#45;&gt;Node1</title>
<path fill="none" stroke="#191970" d="M963.3171,-360.4642C898.6819,-343.7321 761.2905,-304.5032 655,-249 587.9969,-214.012 550.2118,-185.2828 557,-110 559.2312,-85.2552 548.7862,-71.898 567,-55 595.6715,-28.3998 861.5347,-15.0329 961.3621,-10.919"/>
<polygon fill="#191970" stroke="#191970" points="961.7429,-14.4065 971.5936,-10.5059 961.4605,-7.4122 961.7429,-14.4065"/>
</g>
<!-- Node4&#45;&gt;Node5 -->
<g id="edge6" class="edge">
<title>Node4&#45;&gt;Node5</title>
<path fill="none" stroke="#191970" d="M1005.4974,-360.4252C1016.6381,-342.8679 1043.6738,-304.2851 1077,-285 1100.1068,-271.6286 1163.6991,-258.7312 1214.1742,-250.1041"/>
<polygon fill="#191970" stroke="#191970" points="1214.7982,-253.5484 1224.0784,-248.4368 1213.6361,-246.6456 1214.7982,-253.5484"/>
</g>
<!-- Node42 -->
<g id="node28" class="node">
<title>Node42</title>
<g id="a_node28"><a xlink:href="CInteger_8h_source.html" target="_top" xlink:title="DGtal/kernel/CInteger.h">
<polygon fill="#ffffff" stroke="#ff0000" points="1453.749,-290.5 1453.749,-308.5 1574.251,-308.5 1574.251,-290.5 1453.749,-290.5"/>
<text text-anchor="middle" x="1514" y="-296.5" font-family="FreeSans" font-size="10.00" fill="#000000">DGtal/kernel/CInteger.h</text>
</a>
</g>
</g>
<!-- Node4&#45;&gt;Node42 -->
<g id="edge45" class="edge">
<title>Node4&#45;&gt;Node42</title>
<path fill="none" stroke="#191970" d="M1062.7693,-360.9516C1159.0861,-347.8346 1342.7357,-322.8239 1443.5018,-309.1009"/>
<polygon fill="#191970" stroke="#191970" points="1444.1473,-312.5454 1453.5836,-307.7279 1443.2027,-305.6094 1444.1473,-312.5454"/>
</g>
<!-- Node55 -->
<g id="node29" class="node">
<title>Node55</title>
<g id="a_node29"><a xlink:href="PointVector_8h_source.html" target="_top" xlink:title="DGtal/kernel/PointVector.h">
<polygon fill="#ffffff" stroke="#ff0000" points="861.3525,-290.5 861.3525,-308.5 994.6475,-308.5 994.6475,-290.5 861.3525,-290.5"/>
<text text-anchor="middle" x="928" y="-296.5" font-family="FreeSans" font-size="10.00" fill="#000000">DGtal/kernel/PointVector.h</text>
</a>
</g>
</g>
<!-- Node4&#45;&gt;Node55 -->
<g id="edge49" class="edge">
<title>Node4&#45;&gt;Node55</title>
<path fill="none" stroke="#191970" d="M990.5873,-360.3487C979.0089,-349.092 959.1403,-329.7753 944.8932,-315.924"/>
<polygon fill="#191970" stroke="#191970" points="947.2546,-313.3383 937.6449,-308.8769 942.375,-318.3573 947.2546,-313.3383"/>
</g>
<!-- Node5&#45;&gt;Node1 -->
<g id="edge7" class="edge">
<title>Node5&#45;&gt;Node1</title>
<path fill="none" stroke="#191970" d="M1282.7434,-230.0941C1281.3739,-199.6237 1272.7123,-102.8375 1218,-55 1191.3599,-31.7073 1091.6528,-18.5187 1036.4182,-12.8532"/>
<polygon fill="#191970" stroke="#191970" points="1036.6213,-9.3562 1026.3244,-11.8508 1035.9295,-16.322 1036.6213,-9.3562"/>
</g>
<!-- Node6 -->
<g id="node7" class="node">
<title>Node6</title>
<polygon fill="#ffffff" stroke="#bfbfbf" points="961.5962,-170.5 961.5962,-188.5 1020.4038,-188.5 1020.4038,-170.5 961.5962,-170.5"/>
<text text-anchor="middle" x="991" y="-176.5" font-family="FreeSans" font-size="10.00" fill="#000000">exception</text>
</g>
<!-- Node5&#45;&gt;Node6 -->
<g id="edge8" class="edge">
<title>Node5&#45;&gt;Node6</title>
<path fill="none" stroke="#191970" d="M1224.0578,-231.9332C1172.3561,-224.5795 1095.4323,-211.8942 1030,-194 1027.7072,-193.373 1025.3594,-192.6675 1023.0087,-191.9143"/>
<polygon fill="#191970" stroke="#191970" points="1024.0567,-188.5735 1013.462,-188.6263 1021.7772,-195.192 1024.0567,-188.5735"/>
</g>
<!-- Node7 -->
<g id="node8" class="node">
<title>Node7</title>
<polygon fill="#ffffff" stroke="#bfbfbf" points="626.436,-110.5 626.436,-128.5 683.564,-128.5 683.564,-110.5 626.436,-110.5"/>
<text text-anchor="middle" x="655" y="-116.5" font-family="FreeSans" font-size="10.00" fill="#000000">algorithm</text>
</g>
<!-- Node5&#45;&gt;Node7 -->
<g id="edge9" class="edge">
<title>Node5&#45;&gt;Node7</title>
<path fill="none" stroke="#191970" d="M1224.0739,-237.3823C1071.5326,-231.6157 674.2293,-214.673 655,-194 641.4147,-179.3948 644.1975,-155.35 648.5576,-138.539"/>
<polygon fill="#191970" stroke="#191970" points="651.9855,-139.2917 651.4945,-128.7083 645.2784,-137.2879 651.9855,-139.2917"/>
</g>
<!-- Node8 -->
<g id="node9" class="node">
<title>Node8</title>
<polygon fill="#ffffff" stroke="#bfbfbf" points="1386.5298,-170.5 1386.5298,-188.5 1481.4702,-188.5 1481.4702,-170.5 1386.5298,-170.5"/>
<text text-anchor="middle" x="1434" y="-176.5" font-family="FreeSans" font-size="10.00" fill="#000000">boost/version.hpp</text>
</g>
<!-- Node5&#45;&gt;Node8 -->
<g id="edge10" class="edge">
<title>Node5&#45;&gt;Node8</title>
<path fill="none" stroke="#191970" d="M1305.9336,-230.3873C1331.4691,-220.2407 1372.931,-203.7658 1401.7326,-192.3215"/>
<polygon fill="#191970" stroke="#191970" points="1403.3445,-195.4472 1411.3453,-188.5019 1400.7596,-188.942 1403.3445,-195.4472"/>
</g>
<!-- Node9 -->
<g id="node10" class="node">
<title>Node9</title>
<polygon fill="#ffffff" stroke="#bfbfbf" points="2418.2935,-170.5 2418.2935,-188.5 2547.7065,-188.5 2547.7065,-170.5 2418.2935,-170.5"/>
<text text-anchor="middle" x="2483" y="-176.5" font-family="FreeSans" font-size="10.00" fill="#000000">boost/concept_check.hpp</text>
</g>
<!-- Node5&#45;&gt;Node9 -->
<g id="edge11" class="edge">
<title>Node5&#45;&gt;Node9</title>
<path fill="none" stroke="#191970" d="M1341.858,-238.3129C1542.566,-234.0783 2199.2673,-218.6387 2409,-194 2416.7708,-193.0871 2424.9465,-191.8102 2432.9145,-190.3889"/>
<polygon fill="#191970" stroke="#191970" points="2433.6655,-193.8092 2442.8502,-188.528 2432.3767,-186.9289 2433.6655,-193.8092"/>
</g>
<!-- Node10 -->
<g id="node11" class="node">
<title>Node10</title>
<polygon fill="#ffffff" stroke="#bfbfbf" points="1499.5815,-170.5 1499.5815,-188.5 1618.4185,-188.5 1618.4185,-170.5 1499.5815,-170.5"/>
<text text-anchor="middle" x="1559" y="-176.5" font-family="FreeSans" font-size="10.00" fill="#000000">boost/static_assert.hpp</text>
</g>
<!-- Node5&#45;&gt;Node10 -->
<g id="edge12" class="edge">
<title>Node5&#45;&gt;Node10</title>
<path fill="none" stroke="#191970" d="M1324.6188,-230.4524C1373.5689,-219.8111 1454.8337,-202.1448 1507.6528,-190.6624"/>
<polygon fill="#191970" stroke="#191970" points="1508.4663,-194.0674 1517.4945,-188.5229 1506.9792,-187.2272 1508.4663,-194.0674"/>
</g>
<!-- Node11 -->
<g id="node12" class="node">
<title>Node11</title>
<polygon fill="#ffffff" stroke="#bfbfbf" points="1636.1309,-170.5 1636.1309,-188.5 1763.8691,-188.5 1763.8691,-170.5 1636.1309,-170.5"/>
<text text-anchor="middle" x="1700" y="-176.5" font-family="FreeSans" font-size="10.00" fill="#000000">boost/concept/assert.hpp</text>
</g>
<!-- Node5&#45;&gt;Node11 -->
<g id="edge13" class="edge">
<title>Node5&#45;&gt;Node11</title>
<path fill="none" stroke="#191970" d="M1341.9091,-232.8814C1410.5509,-224.8979 1527.2959,-210.4783 1627,-194 1633.3582,-192.9492 1640.0098,-191.7574 1646.599,-190.5196"/>
<polygon fill="#191970" stroke="#191970" points="1647.6912,-193.8738 1656.8512,-188.55 1646.3705,-186.9995 1647.6912,-193.8738"/>
</g>
<!-- Node12 -->
<g id="node13" class="node">
<title>Node12</title>
<polygon fill="#ffffff" stroke="#bfbfbf" points="1781.6826,-170.5 1781.6826,-188.5 1918.3174,-188.5 1918.3174,-170.5 1781.6826,-170.5"/>
<text text-anchor="middle" x="1850" y="-176.5" font-family="FreeSans" font-size="10.00" fill="#000000">boost/concept/requires.hpp</text>
</g>
<!-- Node5&#45;&gt;Node12 -->
<g id="edge14" class="edge">
<title>Node5&#45;&gt;Node12</title>
<path fill="none" stroke="#191970" d="M1342.0384,-235.8087C1434.3072,-229.6368 1618.169,-215.7183 1773,-194 1780.3997,-192.962 1788.1689,-191.7019 1795.8085,-190.3628"/>
<polygon fill="#191970" stroke="#191970" points="1796.5166,-193.7916 1805.7348,-188.5689 1795.2717,-186.9032 1796.5166,-193.7916"/>
</g>
<!-- Node13 -->
<g id="node14" class="node">
<title>Node13</title>
<polygon fill="#ffffff" stroke="#bfbfbf" points="1935.8672,-165.5 1935.8672,-193.5 2044.1328,-193.5 2044.1328,-165.5 1935.8672,-165.5"/>
<text text-anchor="start" x="1943.8672" y="-181.5" font-family="FreeSans" font-size="10.00" fill="#000000">boost/iterator/iterator</text>
<text text-anchor="middle" x="1990" y="-171.5" font-family="FreeSans" font-size="10.00" fill="#000000">_concepts.hpp</text>
</g>
<!-- Node5&#45;&gt;Node13 -->
<g id="edge15" class="edge">
<title>Node5&#45;&gt;Node13</title>
<path fill="none" stroke="#191970" d="M1341.9387,-238.3998C1453.9439,-235.6434 1705.2951,-226.2694 1925.6679,-194.0394"/>
<polygon fill="#191970" stroke="#191970" points="1926.4273,-197.4651 1935.8063,-192.537 1925.4012,-190.5407 1926.4273,-197.4651"/>
</g>
<!-- Node14 -->
<g id="node15" class="node">
<title>Node14</title>
<polygon fill="#ffffff" stroke="#bfbfbf" points="2062.397,-170.5 2062.397,-188.5 2209.603,-188.5 2209.603,-170.5 2062.397,-170.5"/>
<text text-anchor="middle" x="2136" y="-176.5" font-family="FreeSans" font-size="10.00" fill="#000000">boost/concept_archetype.hpp</text>
</g>
<!-- Node5&#45;&gt;Node14 -->
<g id="edge16" class="edge">
<title>Node5&#45;&gt;Node14</title>
<path fill="none" stroke="#191970" d="M1342.1268,-238.3007C1471.444,-235.1752 1788.9673,-224.7627 2053,-194 2061.6565,-192.9914 2070.7792,-191.6669 2079.6823,-190.2282"/>
<polygon fill="#191970" stroke="#191970" points="2080.3201,-193.6703 2089.6044,-188.5661 2079.1635,-186.7665 2080.3201,-193.6703"/>
</g>
<!-- Node15 -->
<g id="node16" class="node">
<title>Node15</title>
<polygon fill="#ffffff" stroke="#bfbfbf" points="2379.3843,-110.5 2379.3843,-128.5 2422.6157,-128.5 2422.6157,-110.5 2379.3843,-110.5"/>
<text text-anchor="middle" x="2401" y="-116.5" font-family="FreeSans" font-size="10.00" fill="#000000">cmath</text>
</g>
<!-- Node5&#45;&gt;Node15 -->
<g id="edge17" class="edge">
<title>Node5&#45;&gt;Node15</title>
<path fill="none" stroke="#191970" d="M1342.0202,-238.6657C1534.6007,-235.6625 2137.0047,-223.9512 2219,-194 2238.9555,-186.7107 2238.1454,-174.7909 2257,-165 2293.5287,-146.0312 2339.4091,-133.2163 2369.4342,-126.1412"/>
<polygon fill="#191970" stroke="#191970" points="2370.3816,-129.515 2379.3519,-123.8773 2368.8238,-122.6906 2370.3816,-129.515"/>
</g>
<!-- Node16 -->
<g id="node17" class="node">
<title>Node16</title>
<polygon fill="#ffffff" stroke="#bfbfbf" points="860.2686,-170.5 860.2686,-188.5 905.7314,-188.5 905.7314,-170.5 860.2686,-170.5"/>
<text text-anchor="middle" x="883" y="-176.5" font-family="FreeSans" font-size="10.00" fill="#000000">stdio.h</text>
</g>
<!-- Node5&#45;&gt;Node16 -->
<g id="edge18" class="edge">
<title>Node5&#45;&gt;Node16</title>
<path fill="none" stroke="#191970" d="M1224.0123,-236.618C1151.4911,-232.0485 1025.1029,-220.7359 920,-194 917.6869,-193.4116 915.3234,-192.7175 912.9652,-191.9569"/>
<polygon fill="#191970" stroke="#191970" points="914.0392,-188.624 903.4446,-188.557 911.685,-195.2163 914.0392,-188.624"/>
</g>
<!-- Node17 -->
<g id="node18" class="node">
<title>Node17</title>
<g id="a_node18"><a xlink:href="Config_8h_source.html" target="_top" xlink:title="DGtal/base/Config.h">
<polygon fill="#ffffff" stroke="#ff0000" points="864.9756,-55.5 864.9756,-73.5 971.0244,-73.5 971.0244,-55.5 864.9756,-55.5"/>
<text text-anchor="middle" x="918" y="-61.5" font-family="FreeSans" font-size="10.00" fill="#000000">DGtal/base/Config.h</text>
</a>
</g>
</g>
<!-- Node5&#45;&gt;Node17 -->
<g id="edge19" class="edge">
<title>Node5&#45;&gt;Node17</title>
<path fill="none" stroke="#191970" d="M1224.1288,-236.412C1113.0821,-230.1369 881.0872,-214.7155 851,-194 817.9625,-171.2532 796.2909,-143.7284 818,-110 828.191,-94.1668 845.3925,-83.7789 862.6824,-76.991"/>
<polygon fill="#191970" stroke="#191970" points="864.0093,-80.2338 872.253,-73.5786 861.6584,-73.6403 864.0093,-80.2338"/>
</g>
<!-- Node19 -->
<g id="node19" class="node">
<title>Node19</title>
<g id="a_node19"><a xlink:href="Trace_8h_source.html" target="_top" xlink:title="DGtal/base/Trace.h">
<polygon fill="#ffffff" stroke="#ff0000" points="1038.8311,-170.5 1038.8311,-188.5 1141.1689,-188.5 1141.1689,-170.5 1038.8311,-170.5"/>
<text text-anchor="middle" x="1090" y="-176.5" font-family="FreeSans" font-size="10.00" fill="#000000">DGtal/base/Trace.h</text>
</a>
</g>
</g>
<!-- Node5&#45;&gt;Node19 -->
<g id="edge21" class="edge">
<title>Node5&#45;&gt;Node19</title>
<path fill="none" stroke="#191970" d="M1253.6875,-230.3873C1220.3368,-220.0192 1165.7312,-203.0434 1128.8546,-191.5791"/>
<polygon fill="#191970" stroke="#191970" points="1129.5443,-188.1284 1118.956,-188.5019 1127.4662,-194.8128 1129.5443,-188.1284"/>
</g>
<!-- Node26 -->
<g id="node20" class="node">
<title>Node26</title>
<g id="a_node20"><a xlink:href="TraceWriterTerm_8h_source.html" target="_top" xlink:title="DGtal/base/TraceWriterTerm.h">
<polygon fill="#ffffff" stroke="#ff0000" points="1027.478,-110.5 1027.478,-128.5 1178.522,-128.5 1178.522,-110.5 1027.478,-110.5"/>
<text text-anchor="middle" x="1103" y="-116.5" font-family="FreeSans" font-size="10.00" fill="#000000">DGtal/base/TraceWriterTerm.h</text>
</a>
</g>
</g>
<!-- Node5&#45;&gt;Node26 -->
<g id="edge29" class="edge">
<title>Node5&#45;&gt;Node26</title>
<path fill="none" stroke="#191970" d="M1261.8993,-230.4571C1243.1807,-222.0611 1215.4103,-208.675 1193,-194 1165.8758,-176.2382 1137.5361,-151.6122 1120.0735,-135.6185"/>
<polygon fill="#191970" stroke="#191970" points="1122.1402,-132.7617 1112.4277,-128.5285 1117.3804,-137.8944 1122.1402,-132.7617"/>
</g>
<!-- Node27 -->
<g id="node21" class="node">
<title>Node27</title>
<g id="a_node21"><a xlink:href="Assert_8h_source.html" target="_top" xlink:title="DGtal/base/Assert.h">
<polygon fill="#ffffff" stroke="#ff0000" points="827.2588,-110.5 827.2588,-128.5 932.7412,-128.5 932.7412,-110.5 827.2588,-110.5"/>
<text text-anchor="middle" x="880" y="-116.5" font-family="FreeSans" font-size="10.00" fill="#000000">DGtal/base/Assert.h</text>
</a>
</g>
</g>
<!-- Node5&#45;&gt;Node27 -->
<g id="edge32" class="edge">
<title>Node5&#45;&gt;Node27</title>
<path fill="none" stroke="#191970" d="M1223.9435,-235.943C1142.1526,-230.244 999.2352,-217.2706 953,-194 926.8292,-180.828 904.5796,-154.5471 891.7485,-136.9889"/>
<polygon fill="#191970" stroke="#191970" points="894.5445,-134.8804 885.9263,-128.7178 888.8205,-138.9097 894.5445,-134.8804"/>
</g>
<!-- Node30 -->
<g id="node22" class="node">
<title>Node30</title>
<g id="a_node22"><a xlink:href="TraceWriterFile_8h_source.html" target="_top" xlink:title="DGtal/base/TraceWriterFile.h">
<polygon fill="#ffffff" stroke="#ff0000" points="1064.5322,-55.5 1064.5322,-73.5 1209.4678,-73.5 1209.4678,-55.5 1064.5322,-55.5"/>
<text text-anchor="middle" x="1137" y="-61.5" font-family="FreeSans" font-size="10.00" fill="#000000">DGtal/base/TraceWriterFile.h</text>
</a>
</g>
</g>
<!-- Node5&#45;&gt;Node30 -->
<g id="edge30" class="edge">
<title>Node5&#45;&gt;Node30</title>
<path fill="none" stroke="#191970" d="M1269.78,-230.1912C1258.445,-221.721 1242.216,-208.3759 1231,-194 1205.2012,-160.9328 1213.6392,-143.1911 1188,-110 1179.2728,-98.7023 1167.4842,-87.974 1157.4393,-79.7754"/>
<polygon fill="#191970" stroke="#191970" points="1159.5362,-76.9717 1149.5172,-73.5265 1155.201,-82.4677 1159.5362,-76.9717"/>
</g>
<!-- Node31 -->
<g id="node23" class="node">
<title>Node31</title>
<g id="a_node23"><a xlink:href="ConceptUtils_8h_source.html" target="_top" xlink:title="DGtal/base/ConceptUtils.h">
<polygon fill="#ffffff" stroke="#000000" points="2266.084,-170.5 2266.084,-188.5 2399.916,-188.5 2399.916,-170.5 2266.084,-170.5"/>
<text text-anchor="middle" x="2333" y="-176.5" font-family="FreeSans" font-size="10.00" fill="#000000">DGtal/base/ConceptUtils.h</text>
</a>
</g>
</g>
<!-- Node5&#45;&gt;Node31 -->
<g id="edge33" class="edge">
<title>Node5&#45;&gt;Node31</title>
<path fill="none" stroke="#191970" d="M1342.0241,-237.738C1523.8996,-232.1493 2074.1813,-214.0045 2252,-194 2260.6643,-193.0253 2269.8011,-191.6912 2278.6927,-190.2245"/>
<polygon fill="#191970" stroke="#191970" points="2279.3262,-193.667 2288.5892,-188.5242 2278.1409,-186.7681 2279.3262,-193.667"/>
</g>
<!-- Node32 -->
<g id="node24" class="node">
<title>Node32</title>
<g id="a_node24"><a xlink:href="BasicTypes_8h_source.html" target="_top" xlink:title="DGtal/base/BasicTypes.h">
<polygon fill="#ffffff" stroke="#ff0000" points="1264.8599,-55.5 1264.8599,-73.5 1393.1401,-73.5 1393.1401,-55.5 1264.8599,-55.5"/>
<text text-anchor="middle" x="1329" y="-61.5" font-family="FreeSans" font-size="10.00" fill="#000000">DGtal/base/BasicTypes.h</text>
</a>
</g>
</g>
<!-- Node5&#45;&gt;Node32 -->
<g id="edge35" class="edge">
<title>Node5&#45;&gt;Node32</title>
<path fill="none" stroke="#191970" d="M1283.8647,-230.1836C1286.0524,-208.5984 1292.6818,-153.6724 1307,-110 1310.0705,-100.6346 1314.6821,-90.7278 1318.8912,-82.5579"/>
<polygon fill="#191970" stroke="#191970" points="1322.0501,-84.0733 1323.6951,-73.6069 1315.8822,-80.763 1322.0501,-84.0733"/>
</g>
<!-- Node35 -->
<g id="node25" class="node">
<title>Node35</title>
<g id="a_node25"><a xlink:href="BasicFunctors_8h_source.html" target="_top" xlink:title="DGtal/base/BasicFunctors.h">
<polygon fill="#ffffff" stroke="#ff0000" points="663.7515,-170.5 663.7515,-188.5 804.2485,-188.5 804.2485,-170.5 663.7515,-170.5"/>
<text text-anchor="middle" x="734" y="-176.5" font-family="FreeSans" font-size="10.00" fill="#000000">DGtal/base/BasicFunctors.h</text>
</a>
</g>
</g>
<!-- Node5&#45;&gt;Node35 -->
<g id="edge37" class="edge">
<title>Node5&#45;&gt;Node35</title>
<path fill="none" stroke="#191970" d="M1223.8852,-235.5491C1133.8494,-228.8615 957.5113,-214.0563 809,-194 800.8673,-192.9017 792.3165,-191.5988 784.0018,-190.2316"/>
<polygon fill="#191970" stroke="#191970" points="784.4649,-186.7602 774.0208,-188.5413 783.296,-193.662 784.4649,-186.7602"/>
</g>
<!-- Node40 -->
<g id="node26" class="node">
<title>Node40</title>
<g id="a_node26"><a xlink:href="BasicArchetypes_8h_source.html" target="_top" xlink:title="DGtal/base/BasicArchetypes.h">
<polygon fill="#ffffff" stroke="#000000" points="1411.1899,-55.5 1411.1899,-73.5 1562.8101,-73.5 1562.8101,-55.5 1411.1899,-55.5"/>
<text text-anchor="middle" x="1487" y="-61.5" font-family="FreeSans" font-size="10.00" fill="#000000">DGtal/base/BasicArchetypes.h</text>
</a>
</g>
</g>
<!-- Node5&#45;&gt;Node40 -->
<g id="edge41" class="edge">
<title>Node5&#45;&gt;Node40</title>
<path fill="none" stroke="#191970" d="M1287.8262,-230.4298C1296.0627,-215.5293 1313.9955,-185.4823 1335,-165 1373.3431,-127.6103 1427.4441,-95.7226 1459.6947,-78.4106"/>
<polygon fill="#191970" stroke="#191970" points="1461.3653,-81.4865 1468.5703,-73.7187 1458.0939,-75.298 1461.3653,-81.4865"/>
</g>
<!-- Node41 -->
<g id="node27" class="node">
<title>Node41</title>
<g id="a_node27"><a xlink:href="Exceptions_8h_source.html" target="_top" xlink:title="DGtal/base/Exceptions.h">
<polygon fill="#ffffff" stroke="#000000" points="1438.9707,-110.5 1438.9707,-128.5 1565.0293,-128.5 1565.0293,-110.5 1438.9707,-110.5"/>
<text text-anchor="middle" x="1502" y="-116.5" font-family="FreeSans" font-size="10.00" fill="#000000">DGtal/base/Exceptions.h</text>
</a>
</g>
</g>
<!-- Node5&#45;&gt;Node41 -->
<g id="edge43" class="edge">
<title>Node5&#45;&gt;Node41</title>
<path fill="none" stroke="#191970" d="M1292.5222,-230.3387C1308.8529,-215.0362 1343.7617,-184.0778 1378,-165 1403.6164,-150.7263 1434.5826,-139.3592 1459.1615,-131.5566"/>
<polygon fill="#191970" stroke="#191970" points="1460.4072,-134.8349 1468.9264,-128.5362 1458.3387,-128.1475 1460.4072,-134.8349"/>
</g>
<!-- Node17&#45;&gt;Node1 -->
<g id="edge20" class="edge">
<title>Node17&#45;&gt;Node1</title>
<path fill="none" stroke="#191970" d="M931.3755,-55.4179C943.804,-46.9788 962.5397,-34.257 977.1409,-24.3426"/>
<polygon fill="#191970" stroke="#191970" points="979.2977,-27.1088 985.6046,-18.5956 975.3654,-21.3176 979.2977,-27.1088"/>
</g>
<!-- Node19&#45;&gt;Node1 -->
<g id="edge22" class="edge">
<title>Node19&#45;&gt;Node1</title>
<path fill="none" stroke="#191970" d="M1068.7615,-170.3524C1052.1664,-162.0485 1029.9726,-148.1644 1018,-129 998.5993,-97.9456 996.8093,-53.7802 997.6426,-28.7544"/>
<polygon fill="#191970" stroke="#191970" points="1001.1404,-28.8845 998.1562,-18.7187 994.1496,-28.5267 1001.1404,-28.8845"/>
</g>
<!-- Node19&#45;&gt;Node17 -->
<g id="edge23" class="edge">
<title>Node19&#45;&gt;Node17</title>
<path fill="none" stroke="#191970" d="M1065.8876,-170.4761C1043.8077,-161.6315 1010.7463,-146.8929 985,-129 965.0499,-115.1353 945.4053,-95.2861 932.5992,-81.2773"/>
<polygon fill="#191970" stroke="#191970" points="935.1768,-78.9091 925.8988,-73.7934 929.9616,-83.5784 935.1768,-78.9091"/>
</g>
<!-- Node19&#45;&gt;Node26 -->
<g id="edge24" class="edge">
<title>Node19&#45;&gt;Node26</title>
<path fill="none" stroke="#191970" d="M1091.9744,-170.3873C1093.7879,-162.0174 1096.5344,-149.3414 1098.8324,-138.735"/>
<polygon fill="#191970" stroke="#191970" points="1102.31,-139.2129 1101.007,-128.6985 1095.4688,-137.7305 1102.31,-139.2129"/>
</g>
<!-- Node19&#45;&gt;Node27 -->
<g id="edge27" class="edge">
<title>Node19&#45;&gt;Node27</title>
<path fill="none" stroke="#191970" d="M1053.0962,-170.3873C1014.5153,-159.9749 954.5778,-142.8982 916.2476,-131.4325"/>
<polygon fill="#191970" stroke="#191970" points="917.1046,-128.0354 906.5201,-128.5019 915.0854,-134.7378 917.1046,-128.0354"/>
</g>
<!-- Node26&#45;&gt;Node1 -->
<g id="edge25" class="edge">
<title>Node26&#45;&gt;Node1</title>
<path fill="none" stroke="#191970" d="M1093.0605,-110.3051C1083.3946,-101.2645 1068.3968,-86.9732 1056,-74 1041.0945,-58.4014 1024.8721,-39.8822 1013.559,-26.698"/>
<polygon fill="#191970" stroke="#191970" points="1016.0498,-24.2249 1006.8968,-18.8888 1010.7244,-28.7681 1016.0498,-24.2249"/>
</g>
<!-- Node26&#45;&gt;Node17 -->
<g id="edge26" class="edge">
<title>Node26&#45;&gt;Node17</title>
<path fill="none" stroke="#191970" d="M1072.451,-110.4179C1041.1597,-101.115 992.3634,-86.608 958.0079,-76.3943"/>
<polygon fill="#191970" stroke="#191970" points="958.8697,-72.9991 948.2869,-73.5042 956.8748,-79.7089 958.8697,-72.9991"/>
</g>
<!-- Node27&#45;&gt;Node19 -->
<g id="edge28" class="edge">
<title>Node27&#45;&gt;Node19</title>
<path fill="none" stroke="#191970" d="M916.493,-128.5019C954.9214,-138.8667 1014.8593,-155.9395 1053.3427,-167.445"/>
<polygon fill="#191970" stroke="#191970" points="1052.5304,-170.8556 1063.1149,-170.3873 1054.5486,-164.1528 1052.5304,-170.8556"/>
</g>
<!-- Node30&#45;&gt;Node1 -->
<g id="edge31" class="edge">
<title>Node30&#45;&gt;Node1</title>
<path fill="none" stroke="#191970" d="M1114.2121,-55.4179C1091.6393,-46.4215 1056.8548,-32.5581 1031.4103,-22.4172"/>
<polygon fill="#191970" stroke="#191970" points="1032.407,-19.0467 1021.8217,-18.5956 1029.8153,-25.5493 1032.407,-19.0467"/>
</g>
<!-- Node31&#45;&gt;Node1 -->
<g id="edge34" class="edge">
<title>Node31&#45;&gt;Node1</title>
<path fill="none" stroke="#191970" d="M2287.4255,-170.4362C2171.2803,-147.6536 1854.5225,-87.4996 1588,-55 1380.4226,-29.6882 1129.8715,-15.8333 1036.4741,-11.2418"/>
<polygon fill="#191970" stroke="#191970" points="1036.5453,-7.7413 1026.3873,-10.7521 1036.2058,-14.733 1036.5453,-7.7413"/>
</g>
<!-- Node32&#45;&gt;Node1 -->
<g id="edge36" class="edge">
<title>Node32&#45;&gt;Node1</title>
<path fill="none" stroke="#191970" d="M1274.8767,-55.4795C1207.6037,-44.2673 1094.5633,-25.4272 1036.2664,-15.7111"/>
<polygon fill="#191970" stroke="#191970" points="1036.8189,-12.2549 1026.3795,-14.0633 1035.668,-19.1597 1036.8189,-12.2549"/>
</g>
<!-- Node35&#45;&gt;Node5 -->
<g id="edge40" class="edge">
<title>Node35&#45;&gt;Node5</title>
<path fill="none" stroke="#191970" d="M791.5117,-188.5413C803.294,-190.5056 815.5606,-192.4551 827,-194 963.808,-212.4758 1124.2299,-226.4955 1213.7588,-233.8183"/>
<polygon fill="#191970" stroke="#191970" points="1213.5376,-237.3117 1223.7887,-234.6349 1214.1057,-230.3348 1213.5376,-237.3117"/>
</g>
<!-- Node35&#45;&gt;Node7 -->
<g id="edge38" class="edge">
<title>Node35&#45;&gt;Node7</title>
<path fill="none" stroke="#191970" d="M722.0016,-170.3873C709.5171,-160.9054 689.756,-145.897 674.9237,-134.6319"/>
<polygon fill="#191970" stroke="#191970" points="676.933,-131.7629 666.8525,-128.5019 672.6991,-137.3374 676.933,-131.7629"/>
</g>
<!-- Node35&#45;&gt;Node15 -->
<g id="edge39" class="edge">
<title>Node35&#45;&gt;Node15</title>
<path fill="none" stroke="#191970" d="M797.9548,-170.4721C815.147,-168.3468 833.755,-166.3188 851,-165 1161.5402,-141.252 2176.8973,-123.2636 2369.3555,-120.0228"/>
<polygon fill="#191970" stroke="#191970" points="2369.4385,-123.522 2379.3784,-119.8548 2369.3211,-116.523 2369.4385,-123.522"/>
</g>
<!-- Node40&#45;&gt;Node1 -->
<g id="edge42" class="edge">
<title>Node40&#45;&gt;Node1</title>
<path fill="none" stroke="#191970" d="M1411.0179,-55.9364C1304.8764,-43.9738 1116.276,-22.7176 1036.4003,-13.7152"/>
<polygon fill="#191970" stroke="#191970" points="1036.6454,-10.2207 1026.3163,-12.5787 1035.8614,-17.1767 1036.6454,-10.2207"/>
</g>
<!-- Node41&#45;&gt;Node1 -->
<g id="edge44" class="edge">
<title>Node41&#45;&gt;Node1</title>
<path fill="none" stroke="#191970" d="M1524.9505,-110.3875C1552.1608,-98.3283 1591.5108,-76.1215 1572,-55 1553.7828,-35.2789 1161.1846,-16.5574 1036.5891,-11.0941"/>
<polygon fill="#191970" stroke="#191970" points="1036.5364,-7.5886 1026.3937,-10.6505 1036.232,-14.582 1036.5364,-7.5886"/>
</g>
<!-- Node42&#45;&gt;Node1 -->
<g id="edge46" class="edge">
<title>Node42&#45;&gt;Node1</title>
<path fill="none" stroke="#191970" d="M1453.4525,-295.8152C1266.1259,-283.9194 704.7494,-244.3688 641,-194 610.5345,-169.929 593.2936,-140.75 617,-110 659.397,-55.0061 873.7759,-24.1275 961.4997,-13.6257"/>
<polygon fill="#191970" stroke="#191970" points="962.0261,-17.088 971.5498,-12.4457 961.2098,-10.1357 962.0261,-17.088"/>
</g>
<!-- Node42&#45;&gt;Node5 -->
<g id="edge47" class="edge">
<title>Node42&#45;&gt;Node5</title>
<path fill="none" stroke="#191970" d="M1479.1669,-290.4524C1438.7088,-279.9439 1371.8753,-262.5845 1327.6407,-251.095"/>
<polygon fill="#191970" stroke="#191970" points="1328.2971,-247.6494 1317.7383,-248.5229 1326.5372,-254.4246 1328.2971,-247.6494"/>
</g>
<!-- Node42&#45;&gt;Node31 -->
<g id="edge48" class="edge">
<title>Node42&#45;&gt;Node31</title>
<path fill="none" stroke="#191970" d="M1574.376,-291.6006C1700.4683,-274.942 2000.9056,-234.4092 2252,-194 2259.1757,-192.8452 2266.6983,-191.5767 2274.1466,-190.2854"/>
<polygon fill="#191970" stroke="#191970" points="2274.9728,-193.694 2284.2177,-188.5188 2273.7634,-186.7992 2274.9728,-193.694"/>
</g>
<!-- Node55&#45;&gt;Node1 -->
<g id="edge50" class="edge">
<title>Node55&#45;&gt;Node1</title>
<path fill="none" stroke="#191970" d="M868.4078,-290.4787C808.6873,-280.7878 721.3826,-264.6612 691,-249 603.4763,-203.8845 518.2767,-128.3229 584,-55 608.9762,-27.1358 863.7071,-14.6184 961.2659,-10.8199"/>
<polygon fill="#191970" stroke="#191970" points="961.6946,-14.3062 971.5545,-10.4291 961.4288,-7.3113 961.6946,-14.3062"/>
</g>
<!-- Node55&#45;&gt;Node5 -->
<g id="edge53" class="edge">
<title>Node55&#45;&gt;Node5</title>
<path fill="none" stroke="#191970" d="M981.5315,-290.4524C1045.278,-279.6784 1151.6322,-261.703 1219.4807,-250.2357"/>
<polygon fill="#191970" stroke="#191970" points="1220.3375,-253.6406 1229.6143,-248.5229 1219.1708,-246.7385 1220.3375,-253.6406"/>
</g>
<!-- Node55&#45;&gt;Node7 -->
<g id="edge51" class="edge">
<title>Node55&#45;&gt;Node7</title>
<path fill="none" stroke="#191970" d="M886.9326,-290.4585C814.7322,-273.6393 669.9364,-235.4664 641,-194 629.3995,-177.3763 636.827,-153.7862 644.5845,-137.6311"/>
<polygon fill="#191970" stroke="#191970" points="647.7436,-139.1432 649.2901,-128.6618 641.5449,-135.8911 647.7436,-139.1432"/>
</g>
<!-- Node58 -->
<g id="node30" class="node">
<title>Node58</title>
<polygon fill="#ffffff" stroke="#bfbfbf" points="512.3843,-230.5 512.3843,-248.5 555.6157,-248.5 555.6157,-230.5 512.3843,-230.5"/>
<text text-anchor="middle" x="534" y="-236.5" font-family="FreeSans" font-size="10.00" fill="#000000">vector</text>
</g>
<!-- Node55&#45;&gt;Node58 -->
<g id="edge52" class="edge">
<title>Node55&#45;&gt;Node58</title>
<path fill="none" stroke="#191970" d="M868.5876,-290.4524C784.0775,-277.5829 632.095,-254.4383 566.0717,-244.384"/>
<polygon fill="#191970" stroke="#191970" points="566.2837,-240.876 555.8708,-242.8306 565.2298,-247.7963 566.2837,-240.876"/>
</g>
<!-- Node63&#45;&gt;Node1 -->
<g id="edge56" class="edge">
<title>Node63&#45;&gt;Node1</title>
<path fill="none" stroke="#191970" d="M891.8724,-627.8231C743.4576,-623.4404 371.6151,-610.1319 250,-584 151.6162,-562.8599 38,-605.1294 38,-504.5 38,-504.5 38,-504.5 38,-119.5 38,-80.9478 61.1921,-71.5734 96,-55 174.882,-17.4412 799.5182,-10.7971 961.0007,-9.7032"/>
<polygon fill="#191970" stroke="#191970" points="961.4089,-13.2008 971.3861,-9.6363 961.3637,-6.2009 961.4089,-13.2008"/>
</g>
<!-- Node63&#45;&gt;Node4 -->
<g id="edge58" class="edge">
<title>Node63&#45;&gt;Node4</title>
<path fill="none" stroke="#191970" d="M947.8656,-620.2747C928.6872,-590.1784 873.3288,-492.8872 911,-425 922.0353,-405.1132 943.4875,-391.4206 962.5654,-382.6118"/>
<polygon fill="#191970" stroke="#191970" points="964.1716,-385.7308 971.9699,-378.5589 961.4012,-379.3023 964.1716,-385.7308"/>
</g>
<!-- Node63&#45;&gt;Node5 -->
<g id="edge57" class="edge">
<title>Node63&#45;&gt;Node5</title>
<path fill="none" stroke="#191970" d="M1016.0584,-627.5235C1151.5532,-622.7609 1465.0543,-609.143 1506,-584 1544.6907,-560.2417 1563.8841,-531.7324 1546,-490 1519.9479,-429.2077 1359.9913,-299.8397 1303.0779,-255.1049"/>
<polygon fill="#191970" stroke="#191970" points="1304.8964,-252.0836 1294.8647,-248.6754 1300.5815,-257.5955 1304.8964,-252.0836"/>
</g>
<!-- Node63&#45;&gt;Node64 -->
<g id="edge59" class="edge">
<title>Node63&#45;&gt;Node64</title>
<path fill="none" stroke="#191970" d="M1016.0955,-627.8621C1216.8527,-622.4188 1847.1049,-604.1334 2050,-584 2058.3268,-583.1737 2067.0465,-582.089 2075.6601,-580.884"/>
<polygon fill="#191970" stroke="#191970" points="2076.3021,-584.3276 2085.6931,-579.4226 2075.293,-577.4007 2076.3021,-584.3276"/>
</g>
<!-- Node86 -->
<g id="node33" class="node">
<title>Node86</title>
<g id="a_node33"><a xlink:href="DigitalSetSelector_8h_source.html" target="_top" xlink:title="DGtal/kernel/sets/Digital\lSetSelector.h">
<polygon fill="#ffffff" stroke="#ff0000" points="180.3696,-285.5 180.3696,-313.5 303.6304,-313.5 303.6304,-285.5 180.3696,-285.5"/>
<text text-anchor="start" x="188.3696" y="-301.5" font-family="FreeSans" font-size="10.00" fill="#000000">DGtal/kernel/sets/Digital</text>
<text text-anchor="middle" x="242" y="-291.5" font-family="FreeSans" font-size="10.00" fill="#000000">SetSelector.h</text>
</a>
</g>
</g>
<!-- Node63&#45;&gt;Node86 -->
<g id="edge62" class="edge">
<title>Node63&#45;&gt;Node86</title>
<path fill="none" stroke="#191970" d="M891.891,-626.3311C703.9275,-615.9215 154,-579.0921 154,-504.5 154,-504.5 154,-504.5 154,-439.5 154,-398.8358 150.9165,-384.1453 173,-350 181.0441,-337.5623 193.3,-327.1483 205.2625,-319.07"/>
<polygon fill="#191970" stroke="#191970" points="207.2963,-321.9244 213.8567,-313.6049 203.5401,-316.0175 207.2963,-321.9244"/>
</g>
<!-- Node99 -->
<g id="node34" class="node">
<title>Node99</title>
<g id="a_node34"><a xlink:href="DigitalTopology_8h_source.html" target="_top" xlink:title="DGtal/topology/DigitalTopology.h">
<polygon fill="#ffffff" stroke="#ff0000" points="359.8271,-360.5 359.8271,-378.5 520.1729,-378.5 520.1729,-360.5 359.8271,-360.5"/>
<text text-anchor="middle" x="440" y="-366.5" font-family="FreeSans" font-size="10.00" fill="#000000">DGtal/topology/DigitalTopology.h</text>
</a>
</g>
</g>
<!-- Node63&#45;&gt;Node99 -->
<g id="edge65" class="edge">
<title>Node63&#45;&gt;Node99</title>
<path fill="none" stroke="#191970" d="M891.9562,-621.3594C844.2364,-614.1625 777.0343,-601.9842 720,-584 584.5176,-541.2794 505.3716,-573.1393 428,-454 415.1223,-434.1705 422.9609,-406.2306 430.6933,-387.9954"/>
<polygon fill="#191970" stroke="#191970" points="433.9496,-389.2919 434.9609,-378.7454 427.5935,-386.3593 433.9496,-389.2919"/>
</g>
<!-- Node106 -->
<g id="node36" class="node">
<title>Node106</title>
<g id="a_node36"><a xlink:href="MetricAdjacency_8h_source.html" target="_top" xlink:title="DGtal/topology/MetricAdjacency.h">
<polygon fill="#ffffff" stroke="#ff0000" points="470.0562,-430.5 470.0562,-448.5 635.9438,-448.5 635.9438,-430.5 470.0562,-430.5"/>
<text text-anchor="middle" x="553" y="-436.5" font-family="FreeSans" font-size="10.00" fill="#000000">DGtal/topology/MetricAdjacency.h</text>
</a>
</g>
</g>
<!-- Node63&#45;&gt;Node106 -->
<g id="edge71" class="edge">
<title>Node63&#45;&gt;Node106</title>
<path fill="none" stroke="#191970" d="M917.1747,-620.4528C858.1952,-605.0317 740.0362,-570.2654 650,-519 618.8239,-501.2488 587.5973,-473.4153 569.2996,-455.8311"/>
<polygon fill="#191970" stroke="#191970" points="571.446,-453.0347 561.8489,-448.5461 566.5522,-458.0398 571.446,-453.0347"/>
</g>
<!-- Node109 -->
<g id="node37" class="node">
<title>Node109</title>
<g id="a_node37"><a xlink:href="Object_8h_source.html" target="_top" xlink:title="DGtal/topology/Object.h">
<polygon fill="#ffffff" stroke="#ff0000" points="181.9165,-360.5 181.9165,-378.5 304.0835,-378.5 304.0835,-360.5 181.9165,-360.5"/>
<text text-anchor="middle" x="243" y="-366.5" font-family="FreeSans" font-size="10.00" fill="#000000">DGtal/topology/Object.h</text>
</a>
</g>
</g>
<!-- Node63&#45;&gt;Node109 -->
<g id="edge75" class="edge">
<title>Node63&#45;&gt;Node109</title>
<path fill="none" stroke="#191970" d="M891.7814,-624.4063C801.8322,-616.6073 640.1011,-600.8314 584,-584 521.7461,-565.3226 508.7594,-552.3958 453,-519 379.7337,-475.1188 299.0086,-413.5873 262.6554,-385.1022"/>
<polygon fill="#191970" stroke="#191970" points="264.4228,-382.0391 254.4006,-378.603 260.0926,-387.539 264.4228,-382.0391"/>
</g>
<!-- Node118 -->
<g id="node38" class="node">
<title>Node118</title>
<g id="a_node38"><a xlink:href="KhalimskySpaceND_8h_source.html" target="_top" xlink:title="DGtal/topology/Khalimsky\lSpaceND.h">
<polygon fill="#ffffff" stroke="#ff0000" points="970.7539,-490.5 970.7539,-518.5 1101.2461,-518.5 1101.2461,-490.5 970.7539,-490.5"/>
<text text-anchor="start" x="978.7539" y="-506.5" font-family="FreeSans" font-size="10.00" fill="#000000">DGtal/topology/Khalimsky</text>
<text text-anchor="middle" x="1036" y="-496.5" font-family="FreeSans" font-size="10.00" fill="#000000">SpaceND.h</text>
</a>
</g>
</g>
<!-- Node63&#45;&gt;Node118 -->
<g id="edge80" class="edge">
<title>Node63&#45;&gt;Node118</title>
<path fill="none" stroke="#191970" d="M957.7775,-620.3888C963.9561,-605.9386 977.0434,-577.1366 992,-555 998.7786,-544.9673 1007.3222,-534.7414 1015.0735,-526.1393"/>
<polygon fill="#191970" stroke="#191970" points="1017.6851,-528.4702 1021.896,-518.748 1012.5414,-523.7223 1017.6851,-528.4702"/>
</g>
<!-- Node119 -->
<g id="node39" class="node">
<title>Node119</title>
<g id="a_node39"><a xlink:href="KhalimskyPreSpaceND_8h_source.html" target="_top" xlink:title="DGtal/topology/Khalimsky\lPreSpaceND.h">
<polygon fill="#ffffff" stroke="#ff0000" points="919.7539,-425.5 919.7539,-453.5 1050.2461,-453.5 1050.2461,-425.5 919.7539,-425.5"/>
<text text-anchor="start" x="927.7539" y="-441.5" font-family="FreeSans" font-size="10.00" fill="#000000">DGtal/topology/Khalimsky</text>
<text text-anchor="middle" x="985" y="-431.5" font-family="FreeSans" font-size="10.00" fill="#000000">PreSpaceND.h</text>
</a>
</g>
</g>
<!-- Node63&#45;&gt;Node119 -->
<g id="edge92" class="edge">
<title>Node63&#45;&gt;Node119</title>
<path fill="none" stroke="#191970" d="M953.3672,-620.1852C952.0766,-597.5122 950.183,-537.806 962,-490 964.293,-480.7236 968.2619,-471.0545 972.2638,-462.6896"/>
<polygon fill="#191970" stroke="#191970" points="975.486,-464.0737 976.8784,-453.5707 969.2401,-460.913 975.486,-464.0737"/>
</g>
<!-- Node122 -->
<g id="node40" class="node">
<title>Node122</title>
<g id="a_node40"><a xlink:href="GridCurve_8h_source.html" target="_top" xlink:title="Header file for module GridCurve.cpp. ">
<polygon fill="#ffffff" stroke="#ff0000" points="1000.8721,-555.5 1000.8721,-583.5 1119.1279,-583.5 1119.1279,-555.5 1000.8721,-555.5"/>
<text text-anchor="start" x="1008.8721" y="-571.5" font-family="FreeSans" font-size="10.00" fill="#000000">DGtal/geometry/curves</text>
<text text-anchor="middle" x="1060" y="-561.5" font-family="FreeSans" font-size="10.00" fill="#000000">/GridCurve.h</text>
</a>
</g>
</g>
<!-- Node63&#45;&gt;Node122 -->
<g id="edge93" class="edge">
<title>Node63&#45;&gt;Node122</title>
<path fill="none" stroke="#191970" d="M970.0991,-620.3873C984.9311,-611.9918 1007.4174,-599.2637 1026.1901,-588.6377"/>
<polygon fill="#191970" stroke="#191970" points="1028.0792,-591.5902 1035.0577,-583.6183 1024.631,-585.4984 1028.0792,-591.5902"/>
</g>
<!-- Node152 -->
<g id="node43" class="node">
<title>Node152</title>
<g id="a_node43"><a xlink:href="ExactPredicateLpSeparableMetric_8h_source.html" target="_top" xlink:title="DGtal/geometry/volumes\l/distance/ExactPredicateLpSeparable\lMetric.h">
<polygon fill="#ffffff" stroke="#ff0000" points="1752.6138,-350.5 1752.6138,-388.5 1935.3862,-388.5 1935.3862,-350.5 1752.6138,-350.5"/>
<text text-anchor="start" x="1760.6138" y="-376.5" font-family="FreeSans" font-size="10.00" fill="#000000">DGtal/geometry/volumes</text>
<text text-anchor="start" x="1760.6138" y="-366.5" font-family="FreeSans" font-size="10.00" fill="#000000">/distance/ExactPredicateLpSeparable</text>
<text text-anchor="middle" x="1844" y="-356.5" font-family="FreeSans" font-size="10.00" fill="#000000">Metric.h</text>
</a>
</g>
</g>
<!-- Node63&#45;&gt;Node152 -->
<g id="edge104" class="edge">
<title>Node63&#45;&gt;Node152</title>
<path fill="none" stroke="#191970" d="M1015.938,-627.452C1151.9828,-622.554 1473.1854,-608.6951 1579,-584 1653.7466,-566.5556 1678.9422,-566.7956 1739,-519 1781.0127,-485.5652 1813.3769,-430.9742 1830.4814,-397.8285"/>
<polygon fill="#191970" stroke="#191970" points="1833.7169,-399.1855 1835.0952,-388.6807 1827.4669,-396.0332 1833.7169,-399.1855"/>
</g>
<!-- Node157 -->
<g id="node44" class="node">
<title>Node157</title>
<g id="a_node44"><a xlink:href="ExactPredicateLpPowerSeparableMetric_8h_source.html" target="_top" xlink:title="DGtal/geometry/volumes\l/distance/ExactPredicateLpPower\lSeparableMetric.h">
<polygon fill="#ffffff" stroke="#ff0000" points="1953.2368,-350.5 1953.2368,-388.5 2118.7632,-388.5 2118.7632,-350.5 1953.2368,-350.5"/>
<text text-anchor="start" x="1961.2368" y="-376.5" font-family="FreeSans" font-size="10.00" fill="#000000">DGtal/geometry/volumes</text>
<text text-anchor="start" x="1961.2368" y="-366.5" font-family="FreeSans" font-size="10.00" fill="#000000">/distance/ExactPredicateLpPower</text>
<text text-anchor="middle" x="2036" y="-356.5" font-family="FreeSans" font-size="10.00" fill="#000000">SeparableMetric.h</text>
</a>
</g>
</g>
<!-- Node63&#45;&gt;Node157 -->
<g id="edge109" class="edge">
<title>Node63&#45;&gt;Node157</title>
<path fill="none" stroke="#191970" d="M1015.944,-628.7179C1162.4824,-626.3371 1526.9035,-617.165 1644,-584 1787.9408,-543.232 1937.4615,-442.1675 2002.4773,-394.7814"/>
<polygon fill="#191970" stroke="#191970" points="2004.7256,-397.4728 2010.7154,-388.7337 2000.5831,-391.8301 2004.7256,-397.4728"/>
</g>
<!-- Node64&#45;&gt;Node1 -->
<g id="edge60" class="edge">
<title>Node64&#45;&gt;Node1</title>
<path fill="none" stroke="#191970" d="M2198.1007,-565.0058C2364.208,-550.9544 2842,-504.8565 2842,-439.5 2842,-439.5 2842,-439.5 2842,-119.5 2842,-61.6722 2784.6943,-70.5628 2729,-55 2644.7537,-31.4589 1281.7758,-13.0907 1036.619,-9.9691"/>
<polygon fill="#191970" stroke="#191970" points="1036.4779,-6.4671 1026.4343,-9.84 1036.3891,-13.4665 1036.4779,-6.4671"/>
</g>
<!-- Node64&#45;&gt;Node5 -->
<g id="edge61" class="edge">
<title>Node64&#45;&gt;Node5</title>
<path fill="none" stroke="#191970" d="M2142.8939,-555.4636C2144.3321,-531.6339 2147,-481.7361 2147,-439.5 2147,-439.5 2147,-439.5 2147,-369.5 2147,-289.2744 1556.9693,-252.8649 1352.0885,-242.6404"/>
<polygon fill="#191970" stroke="#191970" points="1352.2065,-239.1421 1342.0462,-242.1449 1351.8615,-246.1336 1352.2065,-239.1421"/>
</g>
<!-- Node86&#45;&gt;Node1 -->
<g id="edge63" class="edge">
<title>Node86&#45;&gt;Node1</title>
<path fill="none" stroke="#191970" d="M247.1368,-285.308C254.714,-263.0679 268,-218.5096 268,-179.5 268,-179.5 268,-179.5 268,-119.5 268,-83.2287 285.9803,-72.0395 318,-55 374.9061,-24.7171 827.1226,-13.0409 961.4831,-10.2198"/>
<polygon fill="#191970" stroke="#191970" points="961.7597,-13.715 971.6856,-10.0099 961.6157,-6.7165 961.7597,-13.715"/>
</g>
<!-- Node86&#45;&gt;Node5 -->
<g id="edge64" class="edge">
<title>Node86&#45;&gt;Node5</title>
<path fill="none" stroke="#191970" d="M303.7007,-292.9933C331.3017,-290.2428 364.2574,-287.1787 394,-285 698.9849,-262.6592 1063.6305,-247.6709 1213.4918,-242.0165"/>
<polygon fill="#191970" stroke="#191970" points="1214.0453,-245.4983 1223.9069,-241.6255 1213.7826,-238.5032 1214.0453,-245.4983"/>
</g>
<!-- Node99&#45;&gt;Node1 -->
<g id="edge66" class="edge">
<title>Node99&#45;&gt;Node1</title>
<path fill="none" stroke="#191970" d="M430.8487,-360.3205C411.8744,-340.2647 370,-290.2541 370,-239.5 370,-239.5 370,-239.5 370,-119.5 370,-85.532 381.881,-72.4903 411,-55 458.0734,-26.7253 839.1622,-13.8871 961.4071,-10.4694"/>
<polygon fill="#191970" stroke="#191970" points="961.8518,-13.9586 971.752,-10.1855 961.6597,-6.9612 961.8518,-13.9586"/>
</g>
<!-- Node99&#45;&gt;Node5 -->
<g id="edge67" class="edge">
<title>Node99&#45;&gt;Node5</title>
<path fill="none" stroke="#191970" d="M473.9628,-360.4657C539.962,-343.2363 690.3563,-305.5701 819,-285 958.2986,-262.7262 1122.9848,-249.6918 1213.929,-243.64"/>
<polygon fill="#191970" stroke="#191970" points="1214.3605,-247.1193 1224.1095,-242.9713 1213.9016,-240.1343 1214.3605,-247.1193"/>
</g>
<!-- Node70 -->
<g id="node35" class="node">
<title>Node70</title>
<g id="a_node35"><a xlink:href="ConstAlias_8h_source.html" target="_top" xlink:title="DGtal/base/ConstAlias.h">
<polygon fill="#ffffff" stroke="#ff0000" points="435.5298,-290.5 435.5298,-308.5 560.4702,-308.5 560.4702,-290.5 435.5298,-290.5"/>
<text text-anchor="middle" x="498" y="-296.5" font-family="FreeSans" font-size="10.00" fill="#000000">DGtal/base/ConstAlias.h</text>
</a>
</g>
</g>
<!-- Node99&#45;&gt;Node70 -->
<g id="edge68" class="edge">
<title>Node99&#45;&gt;Node70</title>
<path fill="none" stroke="#191970" d="M447.5825,-360.3487C456.7368,-349.3004 472.3242,-330.488 483.7494,-316.699"/>
<polygon fill="#191970" stroke="#191970" points="486.5454,-318.8103 490.2305,-308.8769 481.1552,-314.3441 486.5454,-318.8103"/>
</g>
<!-- Node70&#45;&gt;Node1 -->
<g id="edge69" class="edge">
<title>Node70&#45;&gt;Node1</title>
<path fill="none" stroke="#191970" d="M481.1085,-290.4185C466.2446,-281.6325 445.0017,-267.0175 432,-249 412.8775,-222.5004 408,-212.1788 408,-179.5 408,-179.5 408,-179.5 408,-119.5 408,-88.9131 407.6009,-73.4456 432,-55 474.153,-23.1326 842.1813,-12.7466 961.6931,-10.198"/>
<polygon fill="#191970" stroke="#191970" points="961.8938,-13.6947 971.8191,-9.9883 961.7488,-6.6962 961.8938,-13.6947"/>
</g>
<!-- Node70&#45;&gt;Node5 -->
<g id="edge70" class="edge">
<title>Node70&#45;&gt;Node5</title>
<path fill="none" stroke="#191970" d="M540.4587,-290.433C551.3487,-288.3738 563.0731,-286.3875 574,-285 807.2697,-255.3791 1086.2974,-244.6424 1213.5693,-241.0907"/>
<polygon fill="#191970" stroke="#191970" points="1214.0381,-244.5794 1223.9389,-240.808 1213.8472,-237.582 1214.0381,-244.5794"/>
</g>
<!-- Node106&#45;&gt;Node1 -->
<g id="edge72" class="edge">
<title>Node106&#45;&gt;Node1</title>
<path fill="none" stroke="#191970" d="M469.8117,-436.4276C373.2201,-431.4964 220.9979,-419.0952 173,-389 132.6352,-363.6908 114,-347.1432 114,-299.5 114,-299.5 114,-299.5 114,-119.5 114,-79.4278 140.5131,-71.5675 177,-55 248.9642,-22.3236 810.2309,-12.1461 961.5325,-9.9825"/>
<polygon fill="#191970" stroke="#191970" points="961.7553,-13.4798 971.7054,-9.8404 961.6574,-6.4805 961.7553,-13.4798"/>
</g>
<!-- Node106&#45;&gt;Node4 -->
<g id="edge74" class="edge">
<title>Node106&#45;&gt;Node4</title>
<path fill="none" stroke="#191970" d="M610.5223,-430.492C692.9698,-417.5808 844.4522,-393.8587 932.2267,-380.1133"/>
<polygon fill="#191970" stroke="#191970" points="933.0068,-383.5338 942.3449,-378.5288 931.9237,-376.6181 933.0068,-383.5338"/>
</g>
<!-- Node106&#45;&gt;Node5 -->
<g id="edge73" class="edge">
<title>Node106&#45;&gt;Node5</title>
<path fill="none" stroke="#191970" d="M566.2318,-430.3325C606.7583,-402.7845 733.6178,-320.4631 852,-285 917.9183,-265.2532 1109.6639,-250.4967 1213.7815,-243.68"/>
<polygon fill="#191970" stroke="#191970" points="1214.1306,-247.1648 1223.8833,-243.0256 1213.678,-240.1795 1214.1306,-247.1648"/>
</g>
<!-- Node109&#45;&gt;Node1 -->
<g id="edge76" class="edge">
<title>Node109&#45;&gt;Node1</title>
<path fill="none" stroke="#191970" d="M225.4499,-360.4859C208.9195,-351.0909 184.7055,-334.8325 171,-314 152.2192,-285.453 152,-273.671 152,-239.5 152,-239.5 152,-239.5 152,-119.5 152,-54.2041 220.8825,-71.7253 284,-55 413.8098,-20.6022 833.3241,-11.8608 961.4724,-9.967"/>
<polygon fill="#191970" stroke="#191970" points="961.6273,-13.4653 971.5764,-9.8231 961.5275,-6.466 961.6273,-13.4653"/>
</g>
<!-- Node109&#45;&gt;Node5 -->
<g id="edge77" class="edge">
<title>Node109&#45;&gt;Node5</title>
<path fill="none" stroke="#191970" d="M257.5607,-360.4694C287.7863,-342.2658 360.1066,-301.4981 427,-285 502.3742,-266.4102 1023.5666,-247.8965 1213.7453,-241.6852"/>
<polygon fill="#191970" stroke="#191970" points="1214.0206,-245.1782 1223.9015,-241.3549 1213.793,-238.1818 1214.0206,-245.1782"/>
</g>
<!-- Node109&#45;&gt;Node86 -->
<g id="edge79" class="edge">
<title>Node109&#45;&gt;Node86</title>
<path fill="none" stroke="#191970" d="M242.8693,-360.3487C242.7382,-351.1766 242.5308,-336.6532 242.3514,-324.0956"/>
<polygon fill="#191970" stroke="#191970" points="245.8462,-323.6989 242.2036,-313.7499 238.8469,-323.7989 245.8462,-323.6989"/>
</g>
<!-- Node109&#45;&gt;Node70 -->
<g id="edge78" class="edge">
<title>Node109&#45;&gt;Node70</title>
<path fill="none" stroke="#191970" d="M275.8148,-360.492C321.5917,-347.9258 404.6745,-325.1188 455.247,-311.2361"/>
<polygon fill="#191970" stroke="#191970" points="456.1906,-314.6067 464.9073,-308.5843 454.3375,-307.8564 456.1906,-314.6067"/>
</g>
<!-- Node118&#45;&gt;Node1 -->
<g id="edge81" class="edge">
<title>Node118&#45;&gt;Node1</title>
<path fill="none" stroke="#191970" d="M992.2072,-490.3975C964.3024,-480.9979 927.5873,-467.8602 896,-454 884.7251,-449.0527 512.5558,-256.7645 503,-249 471.996,-223.8077 446,-219.4487 446,-179.5 446,-179.5 446,-179.5 446,-119.5 446,-63.9725 500.3276,-72.5763 553,-55 628.5338,-29.7951 868.2456,-15.8142 961.4349,-11.2172"/>
<polygon fill="#191970" stroke="#191970" points="961.7198,-14.7075 971.5386,-10.7274 961.3808,-7.7158 961.7198,-14.7075"/>
</g>
<!-- Node118&#45;&gt;Node4 -->
<g id="edge85" class="edge">
<title>Node118&#45;&gt;Node4</title>
<path fill="none" stroke="#191970" d="M1045.8587,-490.3411C1055.8317,-474.1459 1068.52,-447.0253 1059,-425 1051.7227,-408.1634 1036.5456,-394.0762 1023.4074,-384.3074"/>
<polygon fill="#191970" stroke="#191970" points="1025.3674,-381.4069 1015.1718,-378.5259 1021.3454,-387.1362 1025.3674,-381.4069"/>
</g>
<!-- Node118&#45;&gt;Node5 -->
<g id="edge82" class="edge">
<title>Node118&#45;&gt;Node5</title>
<path fill="none" stroke="#191970" d="M1047.2876,-490.2389C1076.0096,-454.2789 1154.8543,-357.5999 1229,-285 1239.6756,-274.547 1252.4253,-263.7344 1262.8548,-255.2737"/>
<polygon fill="#191970" stroke="#191970" points="1265.3507,-257.7592 1270.9733,-248.7794 1260.978,-252.293 1265.3507,-257.7592"/>
</g>
<!-- Node118&#45;&gt;Node42 -->
<g id="edge83" class="edge">
<title>Node118&#45;&gt;Node42</title>
<path fill="none" stroke="#191970" d="M1068.8549,-490.4095C1157.0115,-452.6018 1397.8707,-349.3044 1483.3821,-312.6311"/>
<polygon fill="#191970" stroke="#191970" points="1484.9787,-315.7548 1492.7896,-308.5965 1482.2196,-309.3214 1484.9787,-315.7548"/>
</g>
<!-- Node118&#45;&gt;Node55 -->
<g id="edge84" class="edge">
<title>Node118&#45;&gt;Node55</title>
<path fill="none" stroke="#191970" d="M970.5241,-493.5744C947.7941,-486.2983 924.6119,-474.18 911,-454 882.8006,-412.1937 904.8301,-349.0943 918.7828,-318.0663"/>
<polygon fill="#191970" stroke="#191970" points="922.0287,-319.3888 923.1208,-308.8504 915.6952,-316.4076 922.0287,-319.3888"/>
</g>
<!-- Node118&#45;&gt;Node119 -->
<g id="edge86" class="edge">
<title>Node118&#45;&gt;Node119</title>
<path fill="none" stroke="#191970" d="M1024.9338,-490.396C1018.3175,-481.9634 1009.7682,-471.0673 1002.2785,-461.5216"/>
<polygon fill="#191970" stroke="#191970" points="1004.9711,-459.2834 996.0446,-453.5765 999.464,-463.6044 1004.9711,-459.2834"/>
</g>
<!-- Node119&#45;&gt;Node1 -->
<g id="edge87" class="edge">
<title>Node119&#45;&gt;Node1</title>
<path fill="none" stroke="#191970" d="M919.4799,-436.3808C761.7138,-428.5894 372.1452,-407.5663 351,-389 320.4431,-362.1699 332,-340.1642 332,-299.5 332,-299.5 332,-299.5 332,-119.5 332,-82.9547 350.7162,-72.1263 383,-55 434.0294,-27.9294 835.5475,-14.195 961.4054,-10.5247"/>
<polygon fill="#191970" stroke="#191970" points="961.7967,-14.015 971.6921,-10.2293 961.5957,-7.0179 961.7967,-14.015"/>
</g>
<!-- Node119&#45;&gt;Node4 -->
<g id="edge91" class="edge">
<title>Node119&#45;&gt;Node4</title>
<path fill="none" stroke="#191970" d="M988.0355,-425.3345C990.2931,-414.799 993.3992,-400.3036 995.8808,-388.7227"/>
<polygon fill="#191970" stroke="#191970" points="999.3476,-389.2482 998.0207,-378.7368 992.503,-387.7814 999.3476,-389.2482"/>
</g>
<!-- Node119&#45;&gt;Node5 -->
<g id="edge88" class="edge">
<title>Node119&#45;&gt;Node5</title>
<path fill="none" stroke="#191970" d="M1020.4604,-425.4528C1037.8936,-417.0603 1058.0904,-404.9084 1072,-389 1104.9228,-351.3461 1077.45,-318.0413 1115,-285 1130.8229,-271.077 1179.286,-258.8173 1220.1188,-250.5424"/>
<polygon fill="#191970" stroke="#191970" points="1220.9111,-253.9535 1230.0409,-248.5781 1219.5516,-247.0868 1220.9111,-253.9535"/>
</g>
<!-- Node119&#45;&gt;Node42 -->
<g id="edge89" class="edge">
<title>Node119&#45;&gt;Node42</title>
<path fill="none" stroke="#191970" d="M1018.9855,-425.4891C1043.0709,-415.4886 1076.1079,-401.6277 1105,-389 1143.4562,-372.1922 1150.7887,-362.018 1191,-350 1275.7847,-324.6603 1377.1007,-311.4546 1443.3651,-305.0019"/>
<polygon fill="#191970" stroke="#191970" points="1444.0661,-308.4513 1453.6913,-304.0234 1443.4057,-301.4825 1444.0661,-308.4513"/>
</g>
<!-- Node119&#45;&gt;Node55 -->
<g id="edge90" class="edge">
<title>Node119&#45;&gt;Node55</title>
<path fill="none" stroke="#191970" d="M961.1211,-425.4102C948.7516,-416.6618 934.8367,-404.1909 928,-389 917.8659,-366.4824 920.3138,-337.4317 923.6278,-318.6365"/>
<polygon fill="#191970" stroke="#191970" points="927.0966,-319.1403 925.6443,-308.6455 920.235,-317.7553 927.0966,-319.1403"/>
</g>
<!-- Node122&#45;&gt;Node1 -->
<g id="edge94" class="edge">
<title>Node122&#45;&gt;Node1</title>
<path fill="none" stroke="#191970" d="M1000.5498,-565.8004C878.2931,-557.9041 602.4096,-538.5234 510,-519 332.8859,-481.581 262.2574,-505.8524 124,-389 89.5262,-359.8634 76,-344.6374 76,-299.5 76,-299.5 76,-299.5 76,-119.5 76,-80.3479 100.5288,-71.5737 136,-55 211.4899,-19.7278 805.8067,-11.4094 961.6752,-9.8261"/>
<polygon fill="#191970" stroke="#191970" points="961.7483,-13.3257 971.7133,-9.7274 961.6794,-6.326 961.7483,-13.3257"/>
</g>
<!-- Node122&#45;&gt;Node3 -->
<g id="edge95" class="edge">
<title>Node122&#45;&gt;Node3</title>
<path fill="none" stroke="#191970" d="M1119.4241,-560.9355C1214.3437,-547.2553 1397.3567,-520.8788 1474.8851,-509.705"/>
<polygon fill="#191970" stroke="#191970" points="1475.7061,-513.123 1485.1045,-508.2322 1474.7075,-506.1945 1475.7061,-513.123"/>
</g>
<!-- Node122&#45;&gt;Node5 -->
<g id="edge98" class="edge">
<title>Node122&#45;&gt;Node5</title>
<path fill="none" stroke="#191970" d="M1075.814,-555.3019C1086.1531,-545.6084 1099.6154,-532.1797 1110,-519 1182.2378,-427.3189 1249.4764,-303.7242 1273.5931,-257.7327"/>
<polygon fill="#191970" stroke="#191970" points="1276.7945,-259.1628 1278.3085,-248.6767 1270.5857,-255.9299 1276.7945,-259.1628"/>
</g>
<!-- Node122&#45;&gt;Node35 -->
<g id="edge100" class="edge">
<title>Node122&#45;&gt;Node35</title>
<path fill="none" stroke="#191970" d="M1000.7753,-562.0417C935.1662,-553.076 834.1235,-536.9739 800,-519 670.7016,-450.8945 685.4833,-373.2501 569,-285 542.3671,-264.8224 520.0563,-277.732 503,-249 498.6894,-241.7386 497.7048,-236.5779 503,-230 521.8286,-206.6105 594.5686,-193.462 653.4582,-186.4879"/>
<polygon fill="#191970" stroke="#191970" points="653.9879,-189.9503 663.5265,-185.3388 653.1941,-182.9954 653.9879,-189.9503"/>
</g>
<!-- Node122&#45;&gt;Node58 -->
<g id="edge96" class="edge">
<title>Node122&#45;&gt;Node58</title>
<path fill="none" stroke="#191970" d="M1000.5641,-556.9445C964.3862,-548.3442 917.6578,-535.5074 878,-519 824.1545,-496.5871 807.5393,-492.8073 764,-454 694.4547,-392.0132 712.9272,-342.9701 640,-285 617.8404,-267.3852 587.8351,-255.3508 565.4041,-248.1046"/>
<polygon fill="#191970" stroke="#191970" points="566.2737,-244.7102 555.6864,-245.1094 564.2118,-251.3997 566.2737,-244.7102"/>
</g>
<!-- Node122&#45;&gt;Node70 -->
<g id="edge99" class="edge">
<title>Node122&#45;&gt;Node70</title>
<path fill="none" stroke="#191970" d="M1000.8692,-567.9215C862.2495,-562.7792 523.3248,-541.3421 461,-454 453.5135,-443.5083 454.3518,-436.042 461,-425 478.6386,-395.7039 511.3614,-418.2961 529,-389 542.9854,-365.7715 526.0948,-335.3363 512.3001,-316.6143"/>
<polygon fill="#191970" stroke="#191970" points="515.0214,-314.4123 506.1139,-308.6757 509.4998,-318.715 515.0214,-314.4123"/>
</g>
<!-- Node122&#45;&gt;Node118 -->
<g id="edge103" class="edge">
<title>Node122&#45;&gt;Node118</title>
<path fill="none" stroke="#191970" d="M1054.7924,-555.396C1051.8361,-547.3893 1048.0597,-537.1616 1044.6687,-527.9778"/>
<polygon fill="#191970" stroke="#191970" points="1047.9446,-526.7451 1041.1975,-518.5765 1041.3779,-529.1698 1047.9446,-526.7451"/>
</g>
<!-- Node123 -->
<g id="node41" class="node">
<title>Node123</title>
<polygon fill="#ffffff" stroke="#bfbfbf" points="1271.4385,-430.5 1271.4385,-448.5 1318.5615,-448.5 1318.5615,-430.5 1271.4385,-430.5"/>
<text text-anchor="middle" x="1295" y="-436.5" font-family="FreeSans" font-size="10.00" fill="#000000">iterator</text>
</g>
<!-- Node122&#45;&gt;Node123 -->
<g id="edge97" class="edge">
<title>Node122&#45;&gt;Node123</title>
<path fill="none" stroke="#191970" d="M1085.5965,-555.3402C1130.9086,-530.274 1224.6993,-478.3898 1269.7575,-453.4639"/>
<polygon fill="#191970" stroke="#191970" points="1271.5417,-456.4768 1278.5978,-448.5736 1268.1532,-450.3516 1271.5417,-456.4768"/>
</g>
<!-- Node132 -->
<g id="node42" class="node">
<title>Node132</title>
<g id="a_node42"><a xlink:href="Circulator_8h_source.html" target="_top" xlink:title="DGtal/base/Circulator.h">
<polygon fill="#ffffff" stroke="#ff0000" points="1233.3081,-495.5 1233.3081,-513.5 1352.6919,-513.5 1352.6919,-495.5 1233.3081,-495.5"/>
<text text-anchor="middle" x="1293" y="-501.5" font-family="FreeSans" font-size="10.00" fill="#000000">DGtal/base/Circulator.h</text>
</a>
</g>
</g>
<!-- Node122&#45;&gt;Node132 -->
<g id="edge101" class="edge">
<title>Node122&#45;&gt;Node132</title>
<path fill="none" stroke="#191970" d="M1110.2707,-555.476C1152.2367,-543.7687 1211.3719,-527.2718 1250.8846,-516.2489"/>
<polygon fill="#191970" stroke="#191970" points="1252.0412,-519.56 1260.7329,-513.5016 1250.1601,-512.8175 1252.0412,-519.56"/>
</g>
<!-- Node132&#45;&gt;Node123 -->
<g id="edge102" class="edge">
<title>Node132&#45;&gt;Node123</title>
<path fill="none" stroke="#191970" d="M1293.2781,-495.462C1293.5674,-486.061 1294.0292,-471.0518 1294.4018,-458.943"/>
<polygon fill="#191970" stroke="#191970" points="1297.902,-458.9851 1294.7113,-448.8821 1290.9053,-458.7697 1297.902,-458.9851"/>
</g>
<!-- Node152&#45;&gt;Node1 -->
<g id="edge105" class="edge">
<title>Node152&#45;&gt;Node1</title>
<path fill="none" stroke="#191970" d="M1935.4753,-351.1675C1938.346,-350.7506 1941.1929,-350.3597 1944,-350 2198.8592,-317.3419 2271.3456,-374.7655 2521,-314 2600.757,-294.5873 2690,-321.5855 2690,-239.5 2690,-239.5 2690,-239.5 2690,-119.5 2690,26.0182 2513.5445,-71.8057 2369,-55 2100.1701,-23.7441 1227.5736,-12.1112 1036.2869,-9.9053"/>
<polygon fill="#191970" stroke="#191970" points="1036.2162,-6.4043 1026.177,-9.7902 1036.1365,-13.4039 1036.2162,-6.4043"/>
</g>
<!-- Node152&#45;&gt;Node5 -->
<g id="edge107" class="edge">
<title>Node152&#45;&gt;Node5</title>
<path fill="none" stroke="#191970" d="M1819.2559,-350.3867C1791.9417,-330.4058 1745.8757,-299.9245 1701,-285 1638.0501,-264.0645 1453.7793,-249.9211 1352.1934,-243.4784"/>
<polygon fill="#191970" stroke="#191970" points="1352.227,-239.9737 1342.0278,-242.8419 1351.7895,-246.9601 1352.227,-239.9737"/>
</g>
<!-- Node152&#45;&gt;Node15 -->
<g id="edge106" class="edge">
<title>Node152&#45;&gt;Node15</title>
<path fill="none" stroke="#191970" d="M1935.4819,-351.2174C1938.3506,-350.7861 1941.1953,-350.3786 1944,-350 2048.687,-335.8667 2320.4566,-354.5511 2418,-314 2501.6257,-279.2348 2611.3385,-237.4514 2557,-165 2542.0902,-145.1203 2473.8279,-131.0546 2432.702,-124.2151"/>
<polygon fill="#191970" stroke="#191970" points="2433.0612,-120.7279 2422.6321,-122.5941 2431.9487,-127.6389 2433.0612,-120.7279"/>
</g>
<!-- Node152&#45;&gt;Node42 -->
<g id="edge108" class="edge">
<title>Node152&#45;&gt;Node42</title>
<path fill="none" stroke="#191970" d="M1754.2619,-350.4647C1694.0882,-337.7005 1616.9184,-321.3312 1566.5011,-310.6366"/>
<polygon fill="#191970" stroke="#191970" points="1566.9847,-307.1614 1556.476,-308.5101 1565.5321,-314.009 1566.9847,-307.1614"/>
</g>
<!-- Node157&#45;&gt;Node1 -->
<g id="edge110" class="edge">
<title>Node157&#45;&gt;Node1</title>
<path fill="none" stroke="#191970" d="M2119.0379,-357.2494C2138.0587,-354.6566 2158.2099,-352.0789 2177,-350 2301.1251,-336.2673 2728,-364.3824 2728,-239.5 2728,-239.5 2728,-239.5 2728,-119.5 2728,-110.7207 2775.0889,-96.858 2538,-55 2386.1661,-28.1937 1257.9438,-12.7482 1036.613,-9.9592"/>
<polygon fill="#191970" stroke="#191970" points="1036.5197,-6.4579 1026.4767,-9.8324 1036.4321,-13.4573 1036.5197,-6.4579"/>
</g>
<!-- Node157&#45;&gt;Node5 -->
<g id="edge112" class="edge">
<title>Node157&#45;&gt;Node5</title>
<path fill="none" stroke="#191970" d="M1981.7607,-350.482C1923.8607,-330.956 1829.0719,-301.2025 1745,-285 1607.2626,-258.4551 1443.271,-246.9733 1352.3855,-242.3423"/>
<polygon fill="#191970" stroke="#191970" points="1352.3702,-238.8374 1342.2089,-241.837 1352.0229,-245.8287 1352.3702,-238.8374"/>
</g>
<!-- Node157&#45;&gt;Node15 -->
<g id="edge111" class="edge">
<title>Node157&#45;&gt;Node15</title>
<path fill="none" stroke="#191970" d="M2119.0329,-357.2037C2138.0539,-354.6132 2158.2064,-352.0479 2177,-350 2226.9747,-344.5543 2593.8969,-350.9338 2628,-314 2661.0684,-278.1869 2678.9737,-247.918 2590,-165 2567.4475,-143.9824 2480.8366,-129.7912 2433.0771,-123.3866"/>
<polygon fill="#191970" stroke="#191970" points="2433.3205,-119.8888 2422.9521,-122.0675 2432.4161,-126.8301 2433.3205,-119.8888"/>
</g>
<!-- Node157&#45;&gt;Node42 -->
<g id="edge113" class="edge">
<title>Node157&#45;&gt;Node42</title>
<path fill="none" stroke="#191970" d="M1952.82,-351.5114C1949.847,-350.9826 1946.9,-350.4766 1944,-350 1818.0239,-329.2969 1669.931,-313.8361 1584.5206,-305.7746"/>
<polygon fill="#191970" stroke="#191970" points="1584.7041,-302.2765 1574.4211,-304.8283 1584.051,-309.246 1584.7041,-302.2765"/>
</g>
<!-- Node127&#45;&gt;Node1 -->
<g id="edge115" class="edge">
<title>Node127&#45;&gt;Node1</title>
<path fill="none" stroke="#191970" d="M1497.1549,-558.1118C1643.6373,-529.8726 2034.978,-454.1898 2361,-389 2564.7647,-348.2562 2804,-447.2982 2804,-239.5 2804,-239.5 2804,-239.5 2804,-119.5 2804,-46.1138 2723.7057,-70.6149 2652,-55 2489.5143,-19.6166 1267.0995,-11.0107 1036.4699,-9.6957"/>
<polygon fill="#191970" stroke="#191970" points="1036.2649,-6.1946 1026.2454,-9.6385 1036.2257,-13.1944 1036.2649,-6.1946"/>
</g>
<!-- Node127&#45;&gt;Node3 -->
<g id="edge116" class="edge">
<title>Node127&#45;&gt;Node3</title>
<path fill="none" stroke="#191970" d="M1453.8399,-555.396C1465.424,-545.0814 1481.1478,-531.0807 1493.1719,-520.3743"/>
<polygon fill="#191970" stroke="#191970" points="1495.6679,-522.8383 1500.8089,-513.5743 1491.0129,-517.6104 1495.6679,-522.8383"/>
</g>
<!-- Node127&#45;&gt;Node55 -->
<g id="edge119" class="edge">
<title>Node127&#45;&gt;Node55</title>
<path fill="none" stroke="#191970" d="M1431.5895,-555.2065C1417.5091,-525.5955 1380.8694,-457.5983 1328,-425 1222.3299,-359.8458 1079.9015,-325.8005 996.6064,-310.3334"/>
<polygon fill="#191970" stroke="#191970" points="997.2133,-306.8865 986.7481,-308.5385 995.9594,-313.7733 997.2133,-306.8865"/>
</g>
<!-- Node127&#45;&gt;Node58 -->
<g id="edge117" class="edge">
<title>Node127&#45;&gt;Node58</title>
<path fill="none" stroke="#191970" d="M1378.7545,-567.3487C1268.4529,-562.6676 1036.0822,-549.4347 962,-519 807.8469,-455.6702 815.2938,-364.8246 669,-285 650.9967,-275.1766 599.6627,-258.9855 565.7386,-248.7997"/>
<polygon fill="#191970" stroke="#191970" points="566.4087,-245.3473 555.8256,-245.8451 564.4092,-252.0557 566.4087,-245.3473"/>
</g>
<!-- Node127&#45;&gt;Node70 -->
<g id="edge134" class="edge">
<title>Node127&#45;&gt;Node70</title>
<path fill="none" stroke="#191970" d="M1378.5177,-567.3346C1254.0583,-562.284 970.0909,-547.8981 878,-519 726.8544,-471.5706 570.5536,-356.3866 517.1793,-314.7976"/>
<polygon fill="#191970" stroke="#191970" points="519.2665,-311.9864 509.2409,-308.5604 514.9418,-317.4907 519.2665,-311.9864"/>
</g>
<!-- Node127&#45;&gt;Node118 -->
<g id="edge133" class="edge">
<title>Node127&#45;&gt;Node118</title>
<path fill="none" stroke="#191970" d="M1378.6835,-559.909C1307.8258,-548.4519 1189.1717,-529.2666 1111.7455,-516.7474"/>
<polygon fill="#191970" stroke="#191970" points="1112.0045,-513.2439 1101.5741,-515.1028 1110.8872,-520.1542 1112.0045,-513.2439"/>
</g>
<!-- Node127&#45;&gt;Node123 -->
<g id="edge118" class="edge">
<title>Node127&#45;&gt;Node123</title>
<path fill="none" stroke="#191970" d="M1425.73,-555.3332C1411.2101,-538.8937 1385.9703,-511.3177 1362,-490 1347.5357,-477.1364 1330.034,-464.0197 1316.5459,-454.379"/>
<polygon fill="#191970" stroke="#191970" points="1318.5225,-451.4901 1308.3342,-448.5833 1314.486,-457.2092 1318.5225,-451.4901"/>
</g>
<!-- Node127&#45;&gt;Node132 -->
<g id="edge127" class="edge">
<title>Node127&#45;&gt;Node132</title>
<path fill="none" stroke="#191970" d="M1406.5372,-555.396C1381.5365,-544.1888 1346.8282,-528.6299 1322.3866,-517.6733"/>
<polygon fill="#191970" stroke="#191970" points="1323.7995,-514.4711 1313.2427,-513.5743 1320.9361,-520.8587 1323.7995,-514.4711"/>
</g>
<!-- Node128 -->
<g id="node46" class="node">
<title>Node128</title>
<g id="a_node46"><a xlink:href="OrderedAlphabet_8h_source.html" target="_top" xlink:title="DGtal/base/OrderedAlphabet.h">
<polygon fill="#ffffff" stroke="#ff0000" points="1539.3477,-430.5 1539.3477,-448.5 1692.6523,-448.5 1692.6523,-430.5 1539.3477,-430.5"/>
<text text-anchor="middle" x="1616" y="-436.5" font-family="FreeSans" font-size="10.00" fill="#000000">DGtal/base/OrderedAlphabet.h</text>
</a>
</g>
</g>
<!-- Node127&#45;&gt;Node128 -->
<g id="edge120" class="edge">
<title>Node127&#45;&gt;Node128</title>
<path fill="none" stroke="#191970" d="M1477.8907,-555.4476C1499.2709,-546.8206 1525.3784,-534.454 1546,-519 1569.6848,-501.2504 1591.2565,-474.3961 1604.0106,-456.9009"/>
<polygon fill="#191970" stroke="#191970" points="1606.8974,-458.8807 1609.8408,-448.7029 1601.1929,-454.8237 1606.8974,-458.8807"/>
</g>
<!-- Node129 -->
<g id="node47" class="node">
<title>Node129</title>
<g id="a_node47"><a xlink:href="ModuloComputer_8h_source.html" target="_top" xlink:title="DGtal/arithmetic/ModuloComputer.h">
<polygon fill="#ffffff" stroke="#ff0000" points="1484.52,-360.5 1484.52,-378.5 1659.48,-378.5 1659.48,-360.5 1484.52,-360.5"/>
<text text-anchor="middle" x="1572" y="-366.5" font-family="FreeSans" font-size="10.00" fill="#000000">DGtal/arithmetic/ModuloComputer.h</text>
</a>
</g>
</g>
<!-- Node127&#45;&gt;Node129 -->
<g id="edge128" class="edge">
<title>Node127&#45;&gt;Node129</title>
<path fill="none" stroke="#191970" d="M1443.5497,-555.4986C1450.2598,-539.2144 1462.3637,-511.7842 1476,-490 1500.7911,-450.3958 1536.4482,-408.7338 1556.5992,-386.2625"/>
<polygon fill="#191970" stroke="#191970" points="1559.3894,-388.3956 1563.5081,-378.6341 1554.201,-383.6966 1559.3894,-388.3956"/>
</g>
<!-- Node61 -->
<g id="node48" class="node">
<title>Node61</title>
<g id="a_node48"><a xlink:href="CConstSinglePassRange_8h_source.html" target="_top" xlink:title="DGtal/base/CConstSinglePass\lRange.h">
<polygon fill="#ffffff" stroke="#000000" points="2256.9116,-285.5 2256.9116,-313.5 2409.0884,-313.5 2409.0884,-285.5 2256.9116,-285.5"/>
<text text-anchor="start" x="2264.9116" y="-301.5" font-family="FreeSans" font-size="10.00" fill="#000000">DGtal/base/CConstSinglePass</text>
<text text-anchor="middle" x="2333" y="-291.5" font-family="FreeSans" font-size="10.00" fill="#000000">Range.h</text>
</a>
</g>
</g>
<!-- Node127&#45;&gt;Node61 -->
<g id="edge129" class="edge">
<title>Node127&#45;&gt;Node61</title>
<path fill="none" stroke="#191970" d="M1497.3113,-558.1748C1556.8883,-543.8268 1647.4644,-513.4432 1702,-454 1735.6998,-417.2677 1703.905,-379.6197 1744,-350 1783.4652,-320.8456 2092.6338,-307.0685 2246.5492,-301.9633"/>
<polygon fill="#191970" stroke="#191970" points="2247.0272,-305.4497 2256.9077,-301.6251 2246.7987,-298.4534 2247.0272,-305.4497"/>
</g>
<!-- Node128&#45;&gt;Node1 -->
<g id="edge121" class="edge">
<title>Node128&#45;&gt;Node1</title>
<path fill="none" stroke="#191970" d="M1692.6664,-433.2868C1922.329,-414.2865 2594.407,-355.7195 2684,-314 2728.6374,-293.2143 2766,-288.7397 2766,-239.5 2766,-239.5 2766,-239.5 2766,-119.5 2766,-113.1933 2782.3991,-91.7362 2598,-55 2440.4863,-23.62 1261.9935,-11.799 1036.3031,-9.812"/>
<polygon fill="#191970" stroke="#191970" points="1036.3142,-6.312 1026.2841,-9.7248 1036.2532,-13.3118 1036.3142,-6.312"/>
</g>
<!-- Node128&#45;&gt;Node5 -->
<g id="edge122" class="edge">
<title>Node128&#45;&gt;Node5</title>
<path fill="none" stroke="#191970" d="M1630.5927,-430.3388C1643.1682,-421.4991 1660.4528,-406.85 1668,-389 1674.7502,-373.035 1674.7543,-365.9632 1668,-350 1651.8332,-311.7911 1638.2458,-303.2766 1601,-285 1558.4476,-264.1194 1432.2052,-250.9078 1352.1707,-244.3867"/>
<polygon fill="#191970" stroke="#191970" points="1352.4125,-240.8949 1342.1653,-243.5866 1351.8544,-247.8727 1352.4125,-240.8949"/>
</g>
<!-- Node128&#45;&gt;Node129 -->
<g id="edge123" class="edge">
<title>Node128&#45;&gt;Node129</title>
<path fill="none" stroke="#191970" d="M1610.2478,-430.3487C1603.4342,-419.5089 1591.9227,-401.1951 1583.3047,-387.4848"/>
<polygon fill="#191970" stroke="#191970" points="1586.1791,-385.4807 1577.8941,-378.8769 1580.2526,-389.2059 1586.1791,-385.4807"/>
</g>
<!-- Node129&#45;&gt;Node1 -->
<g id="edge124" class="edge">
<title>Node129&#45;&gt;Node1</title>
<path fill="none" stroke="#191970" d="M1643.0374,-360.4848C1674.0053,-356.8037 1710.757,-352.7697 1744,-350 2042.9467,-325.0924 2124.5018,-376.0352 2418,-314 2509.1773,-294.7283 2614,-332.6917 2614,-239.5 2614,-239.5 2614,-239.5 2614,-119.5 2614,-37.7236 1278.5776,-13.7136 1036.4208,-10.0321"/>
<polygon fill="#191970" stroke="#191970" points="1036.4051,-6.5315 1026.3537,-9.8812 1036.3001,-13.5307 1036.4051,-6.5315"/>
</g>
<!-- Node129&#45;&gt;Node5 -->
<g id="edge125" class="edge">
<title>Node129&#45;&gt;Node5</title>
<path fill="none" stroke="#191970" d="M1577.1909,-360.3353C1586.0714,-343.3003 1601.5179,-306.5382 1583,-285 1568.1285,-267.7029 1436.0458,-252.983 1352.1694,-245.2711"/>
<polygon fill="#191970" stroke="#191970" points="1352.4661,-241.7838 1342.1907,-244.3657 1351.8334,-248.7551 1352.4661,-241.7838"/>
</g>
<!-- Node129&#45;&gt;Node42 -->
<g id="edge126" class="edge">
<title>Node129&#45;&gt;Node42</title>
<path fill="none" stroke="#191970" d="M1564.4175,-360.3487C1555.2632,-349.3004 1539.6758,-330.488 1528.2506,-316.699"/>
<polygon fill="#191970" stroke="#191970" points="1530.8448,-314.3441 1521.7695,-308.8769 1525.4546,-318.8103 1530.8448,-314.3441"/>
</g>
<!-- Node61&#45;&gt;Node5 -->
<g id="edge130" class="edge">
<title>Node61&#45;&gt;Node5</title>
<path fill="none" stroke="#191970" d="M2256.4831,-286.5724C2251.9278,-285.9894 2247.4077,-285.4581 2243,-285 1910.2943,-250.4249 1509.9572,-242.0986 1351.9427,-240.1133"/>
<polygon fill="#191970" stroke="#191970" points="1351.93,-236.613 1341.8883,-239.9915 1351.8452,-243.6125 1351.93,-236.613"/>
</g>
<!-- Node61&#45;&gt;Node9 -->
<g id="edge131" class="edge">
<title>Node61&#45;&gt;Node9</title>
<path fill="none" stroke="#191970" d="M2350.5005,-285.4996C2378.7766,-262.8787 2434.3038,-218.457 2463.6941,-194.9447"/>
<polygon fill="#191970" stroke="#191970" points="2465.96,-197.6142 2471.5823,-188.6342 2461.5871,-192.1481 2465.96,-197.6142"/>
</g>
<!-- Node61&#45;&gt;Node31 -->
<g id="edge132" class="edge">
<title>Node61&#45;&gt;Node31</title>
<path fill="none" stroke="#191970" d="M2333,-285.2632C2333,-263.7178 2333,-222.7893 2333,-198.6524"/>
<polygon fill="#191970" stroke="#191970" points="2336.5001,-198.5918 2333,-188.5918 2329.5001,-198.5918 2336.5001,-198.5918"/>
</g>
<!-- Node159&#45;&gt;Node1 -->
<g id="edge137" class="edge">
<title>Node159&#45;&gt;Node1</title>
<path fill="none" stroke="#191970" d="M2934.2088,-290.3471C2926.348,-270.5141 2909,-221.9375 2909,-179.5 2909,-179.5 2909,-179.5 2909,-119.5 2909,-82.3969 2889.349,-71.263 2856,-55 2771.2995,-13.6948 1292.8302,-9.8854 1036.669,-9.5353"/>
<polygon fill="#191970" stroke="#191970" points="1036.3996,-6.0351 1026.3952,-9.5223 1036.3907,-13.0351 1036.3996,-6.0351"/>
</g>
<!-- Node159&#45;&gt;Node5 -->
<g id="edge138" class="edge">
<title>Node159&#45;&gt;Node5</title>
<path fill="none" stroke="#191970" d="M2869.7766,-297.0266C2601.7016,-287.3079 1622.1159,-251.7942 1352.2438,-242.0103"/>
<polygon fill="#191970" stroke="#191970" points="1352.3086,-238.5105 1342.1884,-241.6458 1352.055,-245.5059 1352.3086,-238.5105"/>
</g>
</g>
</svg>
        <g id="navigator" transform="translate(0 0)" fill="#404254">
                <rect fill="#f2f5e9" fill-opacity="0.5" stroke="#606060" stroke-width=".5" x="0" y="0" width="60" height="60"/>
                <use id="zoomplus" xlink:href="#zoomPlus" x="17" y="9" onmousedown="handleZoom(evt,'in')"/>
                <use id="zoomminus" xlink:href="#zoomMin" x="42" y="9" onmousedown="handleZoom(evt,'out')"/>
                <use id="reset" xlink:href="#resetDef" x="30" y="36" onmousedown="handleReset()"/>
                <g id="arrowUp" xlink:href="#dirArrow" transform="translate(30 24)" onmousedown="handlePan(0,-1)">
                  <use xlink:href="#rim" fill="#404040">
                        <set attributeName="fill" to="#808080" begin="arrowUp.mouseover" end="arrowUp.mouseout"/>
                  </use>
                  <path fill="none" stroke="white" stroke-width="1.5" d="M0,-3.0v7 M-2.5,-0.5L0,-3.0L2.5,-0.5"/>
                </g>
                <g id="arrowRight" xlink:href="#dirArrow" transform="rotate(90) translate(36 -43)" onmousedown="handlePan(1,0)">
                  <use xlink:href="#rim" fill="#404040">
                        <set attributeName="fill" to="#808080" begin="arrowRight.mouseover" end="arrowRight.mouseout"/>
                  </use>
                  <path fill="none" stroke="white" stroke-width="1.5" d="M0,-3.0v7 M-2.5,-0.5L0,-3.0L2.5,-0.5"/>
                </g>
                <g id="arrowDown" xlink:href="#dirArrow" transform="rotate(180) translate(-30 -48)" onmousedown="handlePan(0,1)">
                  <use xlink:href="#rim" fill="#404040">
                        <set attributeName="fill" to="#808080" begin="arrowDown.mouseover" end="arrowDown.mouseout"/>
                  </use>
                  <path fill="none" stroke="white" stroke-width="1.5" d="M0,-3.0v7 M-2.5,-0.5L0,-3.0L2.5,-0.5"/>
                </g>
                <g id="arrowLeft" xlink:href="#dirArrow" transform="rotate(270) translate(-36 17)" onmousedown="handlePan(-1,0)">
                  <use xlink:href="#rim" fill="#404040">
                        <set attributeName="fill" to="#808080" begin="arrowLeft.mouseover" end="arrowLeft.mouseout"/>
                  </use>
                  <path fill="none" stroke="white" stroke-width="1.5" d="M0,-3.0v7 M-2.5,-0.5L0,-3.0L2.5,-0.5"/>
                </g>
        </g>
        <svg viewBox="0 0 15 15" width="100%" height="30px" preserveAspectRatio="xMaxYMin meet">
         <g id="arrow_out" transform="scale(0.3 0.3)">
          <a xlink:href="testFreemanChain_8cpp__incl_org.svg" target="_base">
           <rect id="button" ry="5" rx="5" y="6" x="6" height="38" width="38"
                fill="#f2f5e9" fill-opacity="0.5" stroke="#606060" stroke-width="1.0"/>
           <path id="arrow"
             d="M 11.500037,31.436501 C 11.940474,20.09759 22.043105,11.32322 32.158766,21.979434 L 37.068811,17.246167 C 37.068811,17.246167 37.088388,32 37.088388,32 L 22.160133,31.978069 C 22.160133,31.978069 26.997745,27.140456 26.997745,27.140456 C 18.528582,18.264221 13.291696,25.230495 11.500037,31.436501 z"
             style="fill:#404040;"/>
          </a>
         </g>
        </svg>
</svg>
