<?xml version="1.0" encoding="UTF-8" standalone="no"?>
<!DOCTYPE svg PUBLIC "-//W3C//DTD SVG 1.1//EN"
 "http://www.w3.org/Graphics/SVG/1.1/DTD/svg11.dtd">
<!-- Generated by graphviz version 2.40.1 (20161225.0304)
 -->
<!-- Title: testBasicFunctors.cpp Pages: 1 -->
<!--zoomable 367 -->
<svg id="main" version="1.1" xmlns="http://www.w3.org/2000/svg" xmlns:xlink="http://www.w3.org/1999/xlink" xml:space="preserve" onload="init(evt)">
<style type="text/css"><![CDATA[
.edge:hover path { stroke: red; }
.edge:hover polygon { stroke: red; fill: red; }
]]></style>
<script type="text/javascript"><![CDATA[
var edges = document.getElementsByTagName('g');
if (edges && edges.length) {
  for (var i=0;i<edges.length;i++) {
    if (edges[i].id.substr(0,4)=='edge') {
      edges[i].setAttribute('class','edge');
    }
  }
}
]]></script>
        <defs>
                <circle id="rim" cx="0" cy="0" r="7"/>
                <circle id="rim2" cx="0" cy="0" r="3.5"/>
                <g id="zoomPlus">
                        <use xlink:href="#rim" fill="#404040">
                                <set attributeName="fill" to="#808080" begin="zoomplus.mouseover" end="zoomplus.mouseout"/>
                        </use>
                        <path d="M-4,0h8M0,-4v8" fill="none" stroke="white" stroke-width="1.5" pointer-events="none"/>
                </g>
                <g id="zoomMin">
                        <use xlink:href="#rim" fill="#404040">
                                <set attributeName="fill" to="#808080" begin="zoomminus.mouseover" end="zoomminus.mouseout"/>
                        </use>
                        <path d="M-4,0h8" fill="none" stroke="white" stroke-width="1.5" pointer-events="none"/>
                </g>
                <g id="dirArrow">
                        <path fill="none" stroke="white" stroke-width="1.5" d="M0,-3.0v7 M-2.5,-0.5L0,-3.0L2.5,-0.5"/>
                </g>
               <g id="resetDef">
                       <use xlink:href="#rim2" fill="#404040">
                               <set attributeName="fill" to="#808080" begin="reset.mouseover" end="reset.mouseout"/>
                       </use>
               </g>
        </defs>

<script type="text/javascript">
var viewWidth = 2097;
var viewHeight = 367;
var sectionId = 'dynsection-0';
</script>
<script xlink:href="svgpan.js"/>
<svg id="graph" class="graph">
<g id="viewport">
<title>testBasicFunctors.cpp</title>
<polygon fill="#ffffff" stroke="transparent" points="-4,4 -4,-363 2093.0092,-363 2093.0092,4 -4,4"/>
<!-- Node0 -->
<g id="node1" class="node">
<title>Node0</title>
<polygon fill="#bfbfbf" stroke="#000000" points="1803.8222,-340.5 1803.8222,-358.5 1918.1962,-358.5 1918.1962,-340.5 1803.8222,-340.5"/>
<text text-anchor="middle" x="1861.0092" y="-346.5" font-family="FreeSans" font-size="10.00" fill="#000000">testBasicFunctors.cpp</text>
</g>
<!-- Node1 -->
<g id="node2" class="node">
<title>Node1</title>
<polygon fill="#ffffff" stroke="#bfbfbf" points="1132.8368,-.5 1132.8368,-18.5 1187.1816,-18.5 1187.1816,-.5 1132.8368,-.5"/>
<text text-anchor="middle" x="1160.0092" y="-6.5" font-family="FreeSans" font-size="10.00" fill="#000000">iostream</text>
</g>
<!-- Node0&#45;&gt;Node1 -->
<g id="edge1" class="edge">
<title>Node0&#45;&gt;Node1</title>
<path fill="none" stroke="#191970" d="M1913.1383,-340.4846C1958.8321,-331.8527 2021.1279,-318.0927 2042.0092,-304 2071.4099,-284.1576 2089.0092,-274.97 2089.0092,-239.5 2089.0092,-239.5 2089.0092,-239.5 2089.0092,-119.5 2089.0092,-86.6705 2080.8882,-72.336 2053.0092,-55 2016.165,-32.0892 1362.4728,-14.4903 1197.5506,-10.4015"/>
<polygon fill="#191970" stroke="#191970" points="1197.4891,-6.899 1187.406,-10.1518 1197.3168,-13.8969 1197.4891,-6.899"/>
</g>
<!-- Node2 -->
<g id="node3" class="node">
<title>Node2</title>
<polygon fill="#ffffff" stroke="#bfbfbf" points="1740.6054,-110.5 1740.6054,-128.5 1799.413,-128.5 1799.413,-110.5 1740.6054,-110.5"/>
<text text-anchor="middle" x="1770.0092" y="-116.5" font-family="FreeSans" font-size="10.00" fill="#000000">functional</text>
</g>
<!-- Node0&#45;&gt;Node2 -->
<g id="edge2" class="edge">
<title>Node0&#45;&gt;Node2</title>
<path fill="none" stroke="#191970" d="M1862.7058,-340.1647C1867.403,-311.4734 1877.9765,-223.0217 1842.0092,-165 1833.1898,-150.7727 1818.0913,-140.2309 1803.9916,-132.8972"/>
<polygon fill="#191970" stroke="#191970" points="1805.4739,-129.7264 1794.9463,-128.5347 1802.433,-136.0314 1805.4739,-129.7264"/>
</g>
<!-- Node3 -->
<g id="node4" class="node">
<title>Node3</title>
<g id="a_node4"><a xlink:href="Common_8h_source.html" target="_top" xlink:title="DGtal/base/Common.h">
<polygon fill="#ffffff" stroke="#000000" points="1118.1547,-230.5 1118.1547,-248.5 1235.8637,-248.5 1235.8637,-230.5 1118.1547,-230.5"/>
<text text-anchor="middle" x="1177.0092" y="-236.5" font-family="FreeSans" font-size="10.00" fill="#000000">DGtal/base/Common.h</text>
</a>
</g>
</g>
<!-- Node0&#45;&gt;Node3 -->
<g id="edge3" class="edge">
<title>Node0&#45;&gt;Node3</title>
<path fill="none" stroke="#191970" d="M1805.0346,-340.4982C1679.8733,-320.37 1377.8387,-271.7971 1243.4339,-250.1823"/>
<polygon fill="#191970" stroke="#191970" points="1243.7056,-246.6811 1233.2767,-248.5489 1242.5941,-253.5923 1243.7056,-246.6811"/>
</g>
<!-- Node33 -->
<g id="node34" class="node">
<title>Node33</title>
<g id="a_node34"><a xlink:href="BasicFunctors_8h_source.html" target="_top" xlink:title="DGtal/base/BasicFunctors.h">
<polygon fill="#ffffff" stroke="#000000" points="1692.7607,-170.5 1692.7607,-188.5 1833.2577,-188.5 1833.2577,-170.5 1692.7607,-170.5"/>
<text text-anchor="middle" x="1763.0092" y="-176.5" font-family="FreeSans" font-size="10.00" fill="#000000">DGtal/base/BasicFunctors.h</text>
</a>
</g>
</g>
<!-- Node0&#45;&gt;Node33 -->
<g id="edge72" class="edge">
<title>Node0&#45;&gt;Node33</title>
<path fill="none" stroke="#191970" d="M1855.7403,-340.3601C1840.1866,-313.3792 1794.2612,-233.7127 1773.4591,-197.6274"/>
<polygon fill="#191970" stroke="#191970" points="1776.3307,-195.6007 1768.3042,-188.6851 1770.2662,-199.0967 1776.3307,-195.6007"/>
</g>
<!-- Node39 -->
<g id="node40" class="node">
<title>Node39</title>
<g id="a_node40"><a xlink:href="CUnaryFunctor_8h_source.html" target="_top" xlink:title="DGtal/base/CUnaryFunctor.h">
<polygon fill="#ffffff" stroke="#000000" points="1888.8124,-285.5 1888.8124,-303.5 2033.206,-303.5 2033.206,-285.5 1888.8124,-285.5"/>
<text text-anchor="middle" x="1961.0092" y="-291.5" font-family="FreeSans" font-size="10.00" fill="#000000">DGtal/base/CUnaryFunctor.h</text>
</a>
</g>
</g>
<!-- Node0&#45;&gt;Node39 -->
<g id="edge68" class="edge">
<title>Node0&#45;&gt;Node39</title>
<path fill="none" stroke="#191970" d="M1877.5222,-340.4179C1893.3003,-331.7399 1917.312,-318.5334 1935.5407,-308.5077"/>
<polygon fill="#191970" stroke="#191970" points="1937.3963,-311.4816 1944.4717,-303.5956 1934.0228,-305.3481 1937.3963,-311.4816"/>
</g>
<!-- Node3&#45;&gt;Node1 -->
<g id="edge4" class="edge">
<title>Node3&#45;&gt;Node1</title>
<path fill="none" stroke="#191970" d="M1235.8753,-237.5759C1348.0642,-233.2996 1583.5657,-221.1597 1608.0092,-194 1616.6314,-184.4197 1610.785,-177.5864 1608.0092,-165 1605.1078,-151.8442 1567.9314,-62.8866 1557.0092,-55 1528.1703,-34.1763 1290.726,-17.5145 1197.4371,-11.7116"/>
<polygon fill="#191970" stroke="#191970" points="1197.5096,-8.2095 1187.3137,-11.0894 1197.0802,-15.1963 1197.5096,-8.2095"/>
</g>
<!-- Node4 -->
<g id="node5" class="node">
<title>Node4</title>
<polygon fill="#ffffff" stroke="#bfbfbf" points="1242.6054,-170.5 1242.6054,-188.5 1301.413,-188.5 1301.413,-170.5 1242.6054,-170.5"/>
<text text-anchor="middle" x="1272.0092" y="-176.5" font-family="FreeSans" font-size="10.00" fill="#000000">exception</text>
</g>
<!-- Node3&#45;&gt;Node4 -->
<g id="edge5" class="edge">
<title>Node3&#45;&gt;Node4</title>
<path fill="none" stroke="#191970" d="M1191.4377,-230.3873C1206.7313,-220.7281 1231.1054,-205.334 1249.0442,-194.0042"/>
<polygon fill="#191970" stroke="#191970" points="1251.1703,-196.8011 1257.7562,-188.5019 1247.4323,-190.8826 1251.1703,-196.8011"/>
</g>
<!-- Node5 -->
<g id="node6" class="node">
<title>Node5</title>
<polygon fill="#ffffff" stroke="#bfbfbf" points="1665.4452,-110.5 1665.4452,-128.5 1722.5732,-128.5 1722.5732,-110.5 1665.4452,-110.5"/>
<text text-anchor="middle" x="1694.0092" y="-116.5" font-family="FreeSans" font-size="10.00" fill="#000000">algorithm</text>
</g>
<!-- Node3&#45;&gt;Node5 -->
<g id="edge6" class="edge">
<title>Node3&#45;&gt;Node5</title>
<path fill="none" stroke="#191970" d="M1235.871,-236.4499C1352.9343,-229.9911 1606.6911,-213.8823 1641.0092,-194 1662.9383,-181.2952 1678.1299,-155.4586 1686.458,-137.8124"/>
<polygon fill="#191970" stroke="#191970" points="1689.7195,-139.0912 1690.5674,-128.5303 1683.3188,-136.2574 1689.7195,-139.0912"/>
</g>
<!-- Node6 -->
<g id="node7" class="node">
<title>Node6</title>
<polygon fill="#ffffff" stroke="#bfbfbf" points="1356.539,-170.5 1356.539,-188.5 1451.4794,-188.5 1451.4794,-170.5 1356.539,-170.5"/>
<text text-anchor="middle" x="1404.0092" y="-176.5" font-family="FreeSans" font-size="10.00" fill="#000000">boost/version.hpp</text>
</g>
<!-- Node3&#45;&gt;Node6 -->
<g id="edge7" class="edge">
<title>Node3&#45;&gt;Node6</title>
<path fill="none" stroke="#191970" d="M1211.4856,-230.3873C1251.2982,-219.8641 1316.8636,-202.5341 1360.2418,-191.0685"/>
<polygon fill="#191970" stroke="#191970" points="1361.1785,-194.4412 1369.9521,-188.5019 1359.3897,-187.6736 1361.1785,-194.4412"/>
</g>
<!-- Node7 -->
<g id="node8" class="node">
<title>Node7</title>
<polygon fill="#ffffff" stroke="#bfbfbf" points="1469.3027,-170.5 1469.3027,-188.5 1598.7157,-188.5 1598.7157,-170.5 1469.3027,-170.5"/>
<text text-anchor="middle" x="1534.0092" y="-176.5" font-family="FreeSans" font-size="10.00" fill="#000000">boost/concept_check.hpp</text>
</g>
<!-- Node3&#45;&gt;Node7 -->
<g id="edge8" class="edge">
<title>Node3&#45;&gt;Node7</title>
<path fill="none" stroke="#191970" d="M1235.9164,-230.6277C1293.2296,-221.8543 1382.7271,-207.78 1460.0092,-194 1466.1835,-192.8991 1472.6383,-191.7024 1479.0525,-190.4844"/>
<polygon fill="#191970" stroke="#191970" points="1479.8922,-193.8872 1489.0524,-188.5635 1478.5716,-187.0129 1479.8922,-193.8872"/>
</g>
<!-- Node8 -->
<g id="node9" class="node">
<title>Node8</title>
<polygon fill="#ffffff" stroke="#bfbfbf" points="260.5907,-170.5 260.5907,-188.5 379.4277,-188.5 379.4277,-170.5 260.5907,-170.5"/>
<text text-anchor="middle" x="320.0092" y="-176.5" font-family="FreeSans" font-size="10.00" fill="#000000">boost/static_assert.hpp</text>
</g>
<!-- Node3&#45;&gt;Node8 -->
<g id="edge9" class="edge">
<title>Node3&#45;&gt;Node8</title>
<path fill="none" stroke="#191970" d="M1117.973,-237.265C959.827,-231.0908 529.088,-212.9965 388.0092,-194 381.2576,-193.0909 374.1779,-191.8779 367.243,-190.5392"/>
<polygon fill="#191970" stroke="#191970" points="367.7377,-187.0683 357.2412,-188.5086 366.3449,-193.9283 367.7377,-187.0683"/>
</g>
<!-- Node9 -->
<g id="node10" class="node">
<title>Node9</title>
<polygon fill="#ffffff" stroke="#bfbfbf" points="397.1401,-170.5 397.1401,-188.5 524.8783,-188.5 524.8783,-170.5 397.1401,-170.5"/>
<text text-anchor="middle" x="461.0092" y="-176.5" font-family="FreeSans" font-size="10.00" fill="#000000">boost/concept/assert.hpp</text>
</g>
<!-- Node3&#45;&gt;Node9 -->
<g id="edge10" class="edge">
<title>Node3&#45;&gt;Node9</title>
<path fill="none" stroke="#191970" d="M1117.8036,-237.7926C1004.1718,-233.967 747.8024,-222.682 534.0092,-194 526.7896,-193.0314 519.2095,-191.7863 511.778,-190.4333"/>
<polygon fill="#191970" stroke="#191970" points="512.261,-186.9626 501.7839,-188.5374 510.9563,-193.84 512.261,-186.9626"/>
</g>
<!-- Node10 -->
<g id="node11" class="node">
<title>Node10</title>
<polygon fill="#ffffff" stroke="#bfbfbf" points="542.6918,-170.5 542.6918,-188.5 679.3266,-188.5 679.3266,-170.5 542.6918,-170.5"/>
<text text-anchor="middle" x="611.0092" y="-176.5" font-family="FreeSans" font-size="10.00" fill="#000000">boost/concept/requires.hpp</text>
</g>
<!-- Node3&#45;&gt;Node10 -->
<g id="edge11" class="edge">
<title>Node3&#45;&gt;Node10</title>
<path fill="none" stroke="#191970" d="M1118.0914,-235.8015C1026.0112,-229.62 842.5249,-215.6889 688.0092,-194 680.6096,-192.9613 672.8405,-191.7008 665.2009,-190.3615"/>
<polygon fill="#191970" stroke="#191970" points="665.7377,-186.9019 655.2746,-188.5674 664.4927,-193.7903 665.7377,-186.9019"/>
</g>
<!-- Node11 -->
<g id="node12" class="node">
<title>Node11</title>
<polygon fill="#ffffff" stroke="#bfbfbf" points="696.8764,-165.5 696.8764,-193.5 805.142,-193.5 805.142,-165.5 696.8764,-165.5"/>
<text text-anchor="start" x="704.8764" y="-181.5" font-family="FreeSans" font-size="10.00" fill="#000000">boost/iterator/iterator</text>
<text text-anchor="middle" x="751.0092" y="-171.5" font-family="FreeSans" font-size="10.00" fill="#000000">_concepts.hpp</text>
</g>
<!-- Node3&#45;&gt;Node11 -->
<g id="edge12" class="edge">
<title>Node3&#45;&gt;Node11</title>
<path fill="none" stroke="#191970" d="M1117.9476,-233.9582C1047.9951,-226.9793 927.7836,-213.6837 815.3875,-194.1353"/>
<polygon fill="#191970" stroke="#191970" points="815.6891,-190.6346 805.2338,-192.3482 814.4757,-197.5287 815.6891,-190.6346"/>
</g>
<!-- Node12 -->
<g id="node13" class="node">
<title>Node12</title>
<polygon fill="#ffffff" stroke="#bfbfbf" points="823.4062,-170.5 823.4062,-188.5 970.6122,-188.5 970.6122,-170.5 823.4062,-170.5"/>
<text text-anchor="middle" x="897.0092" y="-176.5" font-family="FreeSans" font-size="10.00" fill="#000000">boost/concept_archetype.hpp</text>
</g>
<!-- Node3&#45;&gt;Node12 -->
<g id="edge13" class="edge">
<title>Node3&#45;&gt;Node12</title>
<path fill="none" stroke="#191970" d="M1134.7872,-230.4524C1085.1277,-219.8111 1002.6851,-202.1448 949.1006,-190.6624"/>
<polygon fill="#191970" stroke="#191970" points="949.6276,-187.196 939.1162,-188.5229 948.1609,-194.0406 949.6276,-187.196"/>
</g>
<!-- Node13 -->
<g id="node14" class="node">
<title>Node13</title>
<polygon fill="#ffffff" stroke="#bfbfbf" points="1604.3935,-110.5 1604.3935,-128.5 1647.6249,-128.5 1647.6249,-110.5 1604.3935,-110.5"/>
<text text-anchor="middle" x="1626.0092" y="-116.5" font-family="FreeSans" font-size="10.00" fill="#000000">cmath</text>
</g>
<!-- Node3&#45;&gt;Node13 -->
<g id="edge14" class="edge">
<title>Node3&#45;&gt;Node13</title>
<path fill="none" stroke="#191970" d="M1213.5946,-230.424C1241.0722,-222.8024 1279.1223,-210.5043 1310.0092,-194 1328.7471,-183.9875 1328.4999,-173.411 1348.0092,-165 1391.843,-146.102 1530.4704,-129.5686 1593.8389,-122.7819"/>
<polygon fill="#191970" stroke="#191970" points="1594.4713,-126.2346 1604.0482,-121.7033 1593.7358,-119.2734 1594.4713,-126.2346"/>
</g>
<!-- Node14 -->
<g id="node15" class="node">
<title>Node14</title>
<polygon fill="#ffffff" stroke="#bfbfbf" points="1027.2778,-170.5 1027.2778,-188.5 1072.7406,-188.5 1072.7406,-170.5 1027.2778,-170.5"/>
<text text-anchor="middle" x="1050.0092" y="-176.5" font-family="FreeSans" font-size="10.00" fill="#000000">stdio.h</text>
</g>
<!-- Node3&#45;&gt;Node14 -->
<g id="edge15" class="edge">
<title>Node3&#45;&gt;Node14</title>
<path fill="none" stroke="#191970" d="M1157.7206,-230.3873C1136.5251,-220.3737 1102.2832,-204.1964 1078.1054,-192.7738"/>
<polygon fill="#191970" stroke="#191970" points="1079.6,-189.609 1069.0632,-188.5019 1076.6098,-195.9382 1079.6,-189.609"/>
</g>
<!-- Node15 -->
<g id="node16" class="node">
<title>Node15</title>
<g id="a_node16"><a xlink:href="Config_8h_source.html" target="_top" xlink:title="DGtal/base/Config.h">
<polygon fill="#ffffff" stroke="#000000" points="381.9848,-55.5 381.9848,-73.5 488.0336,-73.5 488.0336,-55.5 381.9848,-55.5"/>
<text text-anchor="middle" x="435.0092" y="-61.5" font-family="FreeSans" font-size="10.00" fill="#000000">DGtal/base/Config.h</text>
</a>
</g>
</g>
<!-- Node3&#45;&gt;Node15 -->
<g id="edge16" class="edge">
<title>Node3&#45;&gt;Node15</title>
<path fill="none" stroke="#191970" d="M1127.9562,-230.4292C1095.5995,-223.2667 1052.9065,-211.5205 1018.0092,-194 999.0226,-184.4676 999.686,-173.0113 980.0092,-165 857.6762,-115.1927 813.2349,-160.6904 685.0092,-129 661.931,-123.2963 657.7658,-116.8757 635.0092,-110 588.0297,-95.8056 533.6676,-83.7072 493.4881,-75.5621"/>
<polygon fill="#191970" stroke="#191970" points="494.0846,-72.1121 483.5916,-73.5776 492.7083,-78.9755 494.0846,-72.1121"/>
</g>
<!-- Node17 -->
<g id="node18" class="node">
<title>Node17</title>
<g id="a_node18"><a xlink:href="Trace_8h_source.html" target="_top" xlink:title="DGtal/base/Trace.h">
<polygon fill="#ffffff" stroke="#000000" points="102.8403,-170.5 102.8403,-188.5 205.1781,-188.5 205.1781,-170.5 102.8403,-170.5"/>
<text text-anchor="middle" x="154.0092" y="-176.5" font-family="FreeSans" font-size="10.00" fill="#000000">DGtal/base/Trace.h</text>
</a>
</g>
</g>
<!-- Node3&#45;&gt;Node17 -->
<g id="edge19" class="edge">
<title>Node3&#45;&gt;Node17</title>
<path fill="none" stroke="#191970" d="M1117.9787,-238.0279C937.4076,-233.3145 394.143,-217.5151 219.0092,-194 212.6171,-193.1417 205.9245,-191.9691 199.3659,-190.6597"/>
<polygon fill="#191970" stroke="#191970" points="199.7401,-187.1615 189.2321,-188.5153 198.2909,-194.0098 199.7401,-187.1615"/>
</g>
<!-- Node24 -->
<g id="node25" class="node">
<title>Node24</title>
<g id="a_node25"><a xlink:href="TraceWriterTerm_8h_source.html" target="_top" xlink:title="DGtal/base/TraceWriterTerm.h">
<polygon fill="#ffffff" stroke="#000000" points="56.4872,-110.5 56.4872,-128.5 207.5312,-128.5 207.5312,-110.5 56.4872,-110.5"/>
<text text-anchor="middle" x="132.0092" y="-116.5" font-family="FreeSans" font-size="10.00" fill="#000000">DGtal/base/TraceWriterTerm.h</text>
</a>
</g>
</g>
<!-- Node3&#45;&gt;Node24 -->
<g id="edge42" class="edge">
<title>Node3&#45;&gt;Node24</title>
<path fill="none" stroke="#191970" d="M1117.9138,-239.2536C896.884,-238.0466 129.6639,-231.1841 94.0092,-194 77.8602,-177.1583 96.9607,-152.1033 113.4189,-135.7835"/>
<polygon fill="#191970" stroke="#191970" points="116.2287,-137.9461 121.1201,-128.548 111.4355,-132.8445 116.2287,-137.9461"/>
</g>
<!-- Node25 -->
<g id="node26" class="node">
<title>Node25</title>
<g id="a_node26"><a xlink:href="Assert_8h_source.html" target="_top" xlink:title="DGtal/base/Assert.h">
<polygon fill="#ffffff" stroke="#000000" points="694.268,-110.5 694.268,-128.5 799.7504,-128.5 799.7504,-110.5 694.268,-110.5"/>
<text text-anchor="middle" x="747.0092" y="-116.5" font-family="FreeSans" font-size="10.00" fill="#000000">DGtal/base/Assert.h</text>
</a>
</g>
</g>
<!-- Node3&#45;&gt;Node25 -->
<g id="edge47" class="edge">
<title>Node3&#45;&gt;Node25</title>
<path fill="none" stroke="#191970" d="M1166.9176,-230.4593C1146.5647,-212.4201 1100.9281,-172.9992 1082.0092,-165 1069.6338,-159.7675 903.5267,-138.7365 809.9711,-127.1883"/>
<polygon fill="#191970" stroke="#191970" points="810.1205,-123.6804 799.7675,-125.9309 809.2643,-130.6278 810.1205,-123.6804"/>
</g>
<!-- Node28 -->
<g id="node29" class="node">
<title>Node28</title>
<g id="a_node29"><a xlink:href="TraceWriterFile_8h_source.html" target="_top" xlink:title="DGtal/base/TraceWriterFile.h">
<polygon fill="#ffffff" stroke="#000000" points="481.5414,-110.5 481.5414,-128.5 626.477,-128.5 626.477,-110.5 481.5414,-110.5"/>
<text text-anchor="middle" x="554.0092" y="-116.5" font-family="FreeSans" font-size="10.00" fill="#000000">DGtal/base/TraceWriterFile.h</text>
</a>
</g>
</g>
<!-- Node3&#45;&gt;Node28 -->
<g id="edge43" class="edge">
<title>Node3&#45;&gt;Node28</title>
<path fill="none" stroke="#191970" d="M1117.8183,-238.8084C918.4079,-236.1927 281.9078,-225.4054 252.0092,-194 243.1221,-184.665 243.6016,-174.7692 252.0092,-165 259.1934,-156.6524 384.2945,-139.9709 471.2049,-129.2918"/>
<polygon fill="#191970" stroke="#191970" points="471.8378,-132.7406 481.339,-128.0525 470.988,-125.7923 471.8378,-132.7406"/>
</g>
<!-- Node29 -->
<g id="node30" class="node">
<title>Node29</title>
<g id="a_node30"><a xlink:href="ConceptUtils_8h_source.html" target="_top" xlink:title="DGtal/base/ConceptUtils.h">
<polygon fill="#ffffff" stroke="#000000" points="1889.0932,-170.5 1889.0932,-188.5 2022.9252,-188.5 2022.9252,-170.5 1889.0932,-170.5"/>
<text text-anchor="middle" x="1956.0092" y="-176.5" font-family="FreeSans" font-size="10.00" fill="#000000">DGtal/base/ConceptUtils.h</text>
</a>
</g>
</g>
<!-- Node3&#45;&gt;Node29 -->
<g id="edge48" class="edge">
<title>Node3&#45;&gt;Node29</title>
<path fill="none" stroke="#191970" d="M1236.2651,-236.6055C1352.5741,-230.6676 1618.8621,-215.8067 1842.0092,-194 1854.387,-192.7904 1867.4961,-191.3101 1880.2464,-189.7628"/>
<polygon fill="#191970" stroke="#191970" points="1880.879,-193.2113 1890.3742,-188.5113 1880.0205,-186.2641 1880.879,-193.2113"/>
</g>
<!-- Node30 -->
<g id="node31" class="node">
<title>Node30</title>
<g id="a_node31"><a xlink:href="BasicTypes_8h_source.html" target="_top" xlink:title="DGtal/base/BasicTypes.h">
<polygon fill="#ffffff" stroke="#000000" points="1147.8691,-110.5 1147.8691,-128.5 1276.1493,-128.5 1276.1493,-110.5 1147.8691,-110.5"/>
<text text-anchor="middle" x="1212.0092" y="-116.5" font-family="FreeSans" font-size="10.00" fill="#000000">DGtal/base/BasicTypes.h</text>
</a>
</g>
</g>
<!-- Node3&#45;&gt;Node30 -->
<g id="edge50" class="edge">
<title>Node3&#45;&gt;Node30</title>
<path fill="none" stroke="#191970" d="M1179.6399,-230.4805C1185.3154,-211.0216 1198.8135,-164.7423 1206.4661,-138.505"/>
<polygon fill="#191970" stroke="#191970" points="1209.9079,-139.2042 1209.348,-128.6242 1203.1879,-137.2441 1209.9079,-139.2042"/>
</g>
<!-- Node3&#45;&gt;Node33 -->
<g id="edge55" class="edge">
<title>Node3&#45;&gt;Node33</title>
<path fill="none" stroke="#191970" d="M1235.9195,-235.3045C1328.5857,-228.7195 1513.6169,-214.5517 1670.0092,-194 1678.3406,-192.9052 1687.1087,-191.5826 1695.808,-190.1873"/>
<polygon fill="#191970" stroke="#191970" points="1696.6554,-193.5953 1705.9584,-188.5252 1695.5242,-186.6873 1696.6554,-193.5953"/>
</g>
<!-- Node37 -->
<g id="node38" class="node">
<title>Node37</title>
<g id="a_node38"><a xlink:href="BasicArchetypes_8h_source.html" target="_top" xlink:title="DGtal/base/BasicArchetypes.h">
<polygon fill="#ffffff" stroke="#000000" points="1032.1991,-55.5 1032.1991,-73.5 1183.8193,-73.5 1183.8193,-55.5 1032.1991,-55.5"/>
<text text-anchor="middle" x="1108.0092" y="-61.5" font-family="FreeSans" font-size="10.00" fill="#000000">DGtal/base/BasicArchetypes.h</text>
</a>
</g>
</g>
<!-- Node3&#45;&gt;Node37 -->
<g id="edge64" class="edge">
<title>Node3&#45;&gt;Node37</title>
<path fill="none" stroke="#191970" d="M1173.2995,-230.0912C1162.3442,-202.3062 1129.9886,-120.2449 1115.3501,-83.1183"/>
<polygon fill="#191970" stroke="#191970" points="1118.4948,-81.5518 1111.5706,-73.5326 1111.9827,-84.1195 1118.4948,-81.5518"/>
</g>
<!-- Node38 -->
<g id="node39" class="node">
<title>Node38</title>
<g id="a_node39"><a xlink:href="Exceptions_8h_source.html" target="_top" xlink:title="DGtal/base/Exceptions.h">
<polygon fill="#ffffff" stroke="#000000" points="1421.9799,-55.5 1421.9799,-73.5 1548.0385,-73.5 1548.0385,-55.5 1421.9799,-55.5"/>
<text text-anchor="middle" x="1485.0092" y="-61.5" font-family="FreeSans" font-size="10.00" fill="#000000">DGtal/base/Exceptions.h</text>
</a>
</g>
</g>
<!-- Node3&#45;&gt;Node38 -->
<g id="edge66" class="edge">
<title>Node3&#45;&gt;Node38</title>
<path fill="none" stroke="#191970" d="M1181.7759,-230.4413C1190.3132,-215.0124 1209.6223,-183.5111 1234.0092,-165 1295.3018,-118.4751 1381.0229,-90.3241 1434.7516,-76.0935"/>
<polygon fill="#191970" stroke="#191970" points="1435.9207,-79.4063 1444.7261,-73.5143 1434.1683,-72.6292 1435.9207,-79.4063"/>
</g>
<!-- Node15&#45;&gt;Node1 -->
<g id="edge17" class="edge">
<title>Node15&#45;&gt;Node1</title>
<path fill="none" stroke="#191970" d="M488.1408,-59.5163C504.7463,-58.0062 523.1349,-56.3824 540.0092,-55 760.8502,-36.9074 1026.2308,-18.5708 1122.678,-12.0178"/>
<polygon fill="#191970" stroke="#191970" points="1123.0611,-15.4999 1132.8012,-11.3311 1122.5873,-8.516 1123.0611,-15.4999"/>
</g>
<!-- Node16 -->
<g id="node17" class="node">
<title>Node16</title>
<polygon fill="#ffffff" stroke="#bfbfbf" points="414.7826,-.5 414.7826,-18.5 455.2358,-18.5 455.2358,-.5 414.7826,-.5"/>
<text text-anchor="middle" x="435.0092" y="-6.5" font-family="FreeSans" font-size="10.00" fill="#000000">string</text>
</g>
<!-- Node15&#45;&gt;Node16 -->
<g id="edge18" class="edge">
<title>Node15&#45;&gt;Node16</title>
<path fill="none" stroke="#191970" d="M435.0092,-55.4179C435.0092,-48.2164 435.0092,-37.8962 435.0092,-28.8632"/>
<polygon fill="#191970" stroke="#191970" points="438.5093,-28.7794 435.0092,-18.7795 431.5093,-28.7795 438.5093,-28.7794"/>
</g>
<!-- Node17&#45;&gt;Node1 -->
<g id="edge20" class="edge">
<title>Node17&#45;&gt;Node1</title>
<path fill="none" stroke="#191970" d="M205.2646,-170.9733C220.2914,-168.7292 236.7771,-166.515 252.0092,-165 329.5074,-157.2917 881.1774,-161.3765 952.0092,-129 993.4628,-110.052 984.4741,-79.3409 1023.0092,-55 1053.7698,-35.57 1093.6991,-23.5449 1122.5066,-16.7746"/>
<polygon fill="#191970" stroke="#191970" points="1123.5882,-20.119 1132.579,-14.514 1122.0553,-13.2889 1123.5882,-20.119"/>
</g>
<!-- Node17&#45;&gt;Node15 -->
<g id="edge24" class="edge">
<title>Node17&#45;&gt;Node15</title>
<path fill="none" stroke="#191970" d="M192.7763,-170.49C201.3941,-168.5882 210.4975,-166.6574 219.0092,-165 266.7742,-155.6991 403.5552,-166.1302 435.0092,-129 445.5066,-116.6082 444.1099,-97.5554 440.9265,-83.3662"/>
<polygon fill="#191970" stroke="#191970" points="444.2912,-82.4004 438.3114,-73.6545 437.532,-84.2206 444.2912,-82.4004"/>
</g>
<!-- Node17&#45;&gt;Node16 -->
<g id="edge22" class="edge">
<title>Node17&#45;&gt;Node16</title>
<path fill="none" stroke="#191970" d="M112.4286,-170.4187C75.4031,-160.1474 29.5771,-140.7311 47.0092,-110 70.5138,-68.5637 94.1885,-71.1413 139.0092,-55 231.8751,-21.5562 349.7878,-12.6926 404.5287,-10.3449"/>
<polygon fill="#191970" stroke="#191970" points="404.7505,-13.8391 414.6084,-9.9569 404.4811,-6.8443 404.7505,-13.8391"/>
</g>
<!-- Node18 -->
<g id="node19" class="node">
<title>Node18</title>
<polygon fill="#ffffff" stroke="#bfbfbf" points="99.9477,-.5 99.9477,-18.5 152.0707,-18.5 152.0707,-.5 99.9477,-.5"/>
<text text-anchor="middle" x="126.0092" y="-6.5" font-family="FreeSans" font-size="10.00" fill="#000000">ostream</text>
</g>
<!-- Node17&#45;&gt;Node18 -->
<g id="edge21" class="edge">
<title>Node17&#45;&gt;Node18</title>
<path fill="none" stroke="#191970" d="M114.0268,-170.4836C76.9623,-161.2194 25.8156,-145.8097 14.0092,-129 -4.8938,-102.0862 -4.356,-82.2837 14.0092,-55 30.77,-30.0998 63.7585,-18.8205 89.6123,-13.7146"/>
<polygon fill="#191970" stroke="#191970" points="90.2284,-17.16 99.4763,-11.9902 89.0229,-10.2646 90.2284,-17.16"/>
</g>
<!-- Node19 -->
<g id="node20" class="node">
<title>Node19</title>
<polygon fill="#ffffff" stroke="#bfbfbf" points="264.3393,-110.5 264.3393,-128.5 303.6791,-128.5 303.6791,-110.5 264.3393,-110.5"/>
<text text-anchor="middle" x="284.0092" y="-116.5" font-family="FreeSans" font-size="10.00" fill="#000000">stack</text>
</g>
<!-- Node17&#45;&gt;Node19 -->
<g id="edge23" class="edge">
<title>Node17&#45;&gt;Node19</title>
<path fill="none" stroke="#191970" d="M173.7534,-170.3873C195.4496,-160.3737 230.5004,-144.1964 255.2493,-132.7738"/>
<polygon fill="#191970" stroke="#191970" points="256.8923,-135.8704 264.5051,-128.5019 253.9588,-129.5147 256.8923,-135.8704"/>
</g>
<!-- Node20 -->
<g id="node21" class="node">
<title>Node20</title>
<g id="a_node21"><a xlink:href="Clock_8h_source.html" target="_top" xlink:title="DGtal/base/Clock.h">
<polygon fill="#ffffff" stroke="#000000" points="840.9355,-110.5 840.9355,-128.5 943.0829,-128.5 943.0829,-110.5 840.9355,-110.5"/>
<text text-anchor="middle" x="892.0092" y="-116.5" font-family="FreeSans" font-size="10.00" fill="#000000">DGtal/base/Clock.h</text>
</a>
</g>
</g>
<!-- Node17&#45;&gt;Node20 -->
<g id="edge25" class="edge">
<title>Node17&#45;&gt;Node20</title>
<path fill="none" stroke="#191970" d="M205.2778,-171.1012C220.3048,-168.8599 236.7874,-166.6152 252.0092,-165 498.6963,-138.8232 561.9245,-151.1116 809.0092,-129 815.9004,-128.3833 823.1054,-127.6666 830.2679,-126.9085"/>
<polygon fill="#191970" stroke="#191970" points="831.1271,-130.3358 840.69,-125.7751 830.3702,-123.3768 831.1271,-130.3358"/>
</g>
<!-- Node23 -->
<g id="node24" class="node">
<title>Node23</title>
<g id="a_node24"><a xlink:href="TraceWriter_8h_source.html" target="_top" xlink:title="DGtal/base/TraceWriter.h">
<polygon fill="#ffffff" stroke="#000000" points="197.8715,-55.5 197.8715,-73.5 326.1469,-73.5 326.1469,-55.5 197.8715,-55.5"/>
<text text-anchor="middle" x="262.0092" y="-61.5" font-family="FreeSans" font-size="10.00" fill="#000000">DGtal/base/TraceWriter.h</text>
</a>
</g>
</g>
<!-- Node17&#45;&gt;Node23 -->
<g id="edge29" class="edge">
<title>Node17&#45;&gt;Node23</title>
<path fill="none" stroke="#191970" d="M167.4785,-170.431C180.9077,-161.0101 201.6864,-145.378 217.0092,-129 230.3704,-114.7187 242.8675,-96.2267 251.2846,-82.7066"/>
<polygon fill="#191970" stroke="#191970" points="254.4502,-84.2366 256.6466,-73.8719 248.4661,-80.6047 254.4502,-84.2366"/>
</g>
<!-- Node17&#45;&gt;Node24 -->
<g id="edge32" class="edge">
<title>Node17&#45;&gt;Node24</title>
<path fill="none" stroke="#191970" d="M150.6679,-170.3873C147.5666,-161.9293 142.853,-149.074 138.9395,-138.4007"/>
<polygon fill="#191970" stroke="#191970" points="142.1107,-136.8823 135.382,-128.6985 135.5385,-139.2922 142.1107,-136.8823"/>
</g>
<!-- Node17&#45;&gt;Node25 -->
<g id="edge37" class="edge">
<title>Node17&#45;&gt;Node25</title>
<path fill="none" stroke="#191970" d="M202.4492,-170.4955C215.5716,-168.5408 229.7746,-166.5861 243.0092,-165 326.1855,-155.0316 567.8871,-134.0149 683.7645,-124.44"/>
<polygon fill="#191970" stroke="#191970" points="684.2258,-127.914 693.9047,-123.605 683.6512,-120.9376 684.2258,-127.914"/>
</g>
<!-- Node27 -->
<g id="node28" class="node">
<title>Node27</title>
<g id="a_node28"><a xlink:href="Trace_8ih_source.html" target="_top" xlink:title="DGtal/base/Trace.ih">
<polygon fill="#ffffff" stroke="#000000" points="321.7294,-110.5 321.7294,-128.5 426.289,-128.5 426.289,-110.5 321.7294,-110.5"/>
<text text-anchor="middle" x="374.0092" y="-116.5" font-family="FreeSans" font-size="10.00" fill="#000000">DGtal/base/Trace.ih</text>
</a>
</g>
</g>
<!-- Node17&#45;&gt;Node27 -->
<g id="edge41" class="edge">
<title>Node17&#45;&gt;Node27</title>
<path fill="none" stroke="#191970" d="M187.4225,-170.3873C225.9262,-159.8863 289.2835,-142.607 331.3257,-131.141"/>
<polygon fill="#191970" stroke="#191970" points="332.2756,-134.5098 341.0023,-128.5019 330.4338,-127.7564 332.2756,-134.5098"/>
</g>
<!-- Node20&#45;&gt;Node1 -->
<g id="edge26" class="edge">
<title>Node20&#45;&gt;Node1</title>
<path fill="none" stroke="#191970" d="M893.6882,-110.3736C896.8064,-96.1664 904.8969,-68.9478 923.0092,-55 953.698,-31.3675 1063.6894,-18.1371 1122.4202,-12.6109"/>
<polygon fill="#191970" stroke="#191970" points="1122.7761,-16.093 1132.4164,-11.6982 1122.1395,-9.122 1122.7761,-16.093"/>
</g>
<!-- Node21 -->
<g id="node22" class="node">
<title>Node21</title>
<polygon fill="#ffffff" stroke="#bfbfbf" points="931.8368,-55.5 931.8368,-73.5 976.1816,-73.5 976.1816,-55.5 931.8368,-55.5"/>
<text text-anchor="middle" x="954.0092" y="-61.5" font-family="FreeSans" font-size="10.00" fill="#000000">cstdlib</text>
</g>
<!-- Node20&#45;&gt;Node21 -->
<g id="edge27" class="edge">
<title>Node20&#45;&gt;Node21</title>
<path fill="none" stroke="#191970" d="M902.2472,-110.4179C911.3466,-102.3458 924.8629,-90.3556 935.8018,-80.6517"/>
<polygon fill="#191970" stroke="#191970" points="938.3906,-83.0339 943.5487,-73.7795 933.7453,-77.7974 938.3906,-83.0339"/>
</g>
<!-- Node22 -->
<g id="node23" class="node">
<title>Node22</title>
<g id="a_node23"><a xlink:href="Clock_8ih_source.html" target="_top" xlink:title="DGtal/base/Clock.ih">
<polygon fill="#ffffff" stroke="#000000" points="771.8246,-55.5 771.8246,-73.5 876.1938,-73.5 876.1938,-55.5 771.8246,-55.5"/>
<text text-anchor="middle" x="824.0092" y="-61.5" font-family="FreeSans" font-size="10.00" fill="#000000">DGtal/base/Clock.ih</text>
</a>
</g>
</g>
<!-- Node20&#45;&gt;Node22 -->
<g id="edge28" class="edge">
<title>Node20&#45;&gt;Node22</title>
<path fill="none" stroke="#191970" d="M880.7804,-110.4179C870.6047,-102.1876 855.3929,-89.8839 843.2761,-80.0836"/>
<polygon fill="#191970" stroke="#191970" points="845.4582,-77.3469 835.482,-73.7795 841.0561,-82.7895 845.4582,-77.3469"/>
</g>
<!-- Node23&#45;&gt;Node1 -->
<g id="edge30" class="edge">
<title>Node23&#45;&gt;Node1</title>
<path fill="none" stroke="#191970" d="M326.2573,-58.6977C341.5715,-57.3987 357.8652,-56.0856 373.0092,-55 661.3008,-34.3334 1009.5279,-16.7999 1122.6075,-11.2947"/>
<polygon fill="#191970" stroke="#191970" points="1122.9881,-14.7805 1132.8067,-10.7998 1122.6488,-7.7887 1122.9881,-14.7805"/>
</g>
<!-- Node23&#45;&gt;Node18 -->
<g id="edge31" class="edge">
<title>Node23&#45;&gt;Node18</title>
<path fill="none" stroke="#191970" d="M239.5516,-55.4179C217.3059,-46.4215 183.0255,-32.5581 157.9498,-22.4172"/>
<polygon fill="#191970" stroke="#191970" points="159.083,-19.1001 148.5002,-18.5956 156.4586,-25.5895 159.083,-19.1001"/>
</g>
<!-- Node24&#45;&gt;Node1 -->
<g id="edge33" class="edge">
<title>Node24&#45;&gt;Node1</title>
<path fill="none" stroke="#191970" d="M136.8416,-110.3644C145.2116,-95.619 163.9437,-67.0134 189.0092,-55 231.7952,-34.4934 948.9133,-14.8987 1122.4307,-10.4426"/>
<polygon fill="#191970" stroke="#191970" points="1122.6962,-13.937 1132.6035,-10.1827 1122.5174,-6.9393 1122.6962,-13.937"/>
</g>
<!-- Node24&#45;&gt;Node15 -->
<g id="edge36" class="edge">
<title>Node24&#45;&gt;Node15</title>
<path fill="none" stroke="#191970" d="M181.7042,-110.4795C234.7621,-100.8485 318.8259,-85.5894 375.4056,-75.3191"/>
<polygon fill="#191970" stroke="#191970" points="376.073,-78.7553 385.2871,-73.5255 374.8227,-71.8678 376.073,-78.7553"/>
</g>
<!-- Node24&#45;&gt;Node16 -->
<g id="edge34" class="edge">
<title>Node24&#45;&gt;Node16</title>
<path fill="none" stroke="#191970" d="M132.6068,-110.377C134.0586,-96.1744 139.0276,-68.9619 156.0092,-55 193.5477,-24.1367 339.978,-13.7953 404.3561,-10.6946"/>
<polygon fill="#191970" stroke="#191970" points="404.8373,-14.1765 414.6684,-10.2267 404.5199,-7.1837 404.8373,-14.1765"/>
</g>
<!-- Node24&#45;&gt;Node23 -->
<g id="edge35" class="edge">
<title>Node24&#45;&gt;Node23</title>
<path fill="none" stroke="#191970" d="M153.4761,-110.4179C174.6462,-101.4613 207.2186,-87.6806 231.159,-77.552"/>
<polygon fill="#191970" stroke="#191970" points="232.6645,-80.7155 240.5105,-73.5956 229.937,-74.2687 232.6645,-80.7155"/>
</g>
<!-- Node25&#45;&gt;Node16 -->
<g id="edge40" class="edge">
<title>Node25&#45;&gt;Node16</title>
<path fill="none" stroke="#191970" d="M719.3204,-110.492C691.7836,-101.4734 648.3686,-87.0922 611.0092,-74 559.4371,-55.9271 499.7945,-33.8115 464.8593,-20.7331"/>
<polygon fill="#191970" stroke="#191970" points="465.8597,-17.3703 455.2675,-17.1369 463.4022,-23.9248 465.8597,-17.3703"/>
</g>
<!-- Node25&#45;&gt;Node17 -->
<g id="edge38" class="edge">
<title>Node25&#45;&gt;Node17</title>
<path fill="none" stroke="#191970" d="M694.0963,-124.4239C586.1595,-133.9912 344.2323,-155.026 261.0092,-165 246.3017,-166.7626 230.3983,-168.9804 215.4256,-171.1476"/>
<polygon fill="#191970" stroke="#191970" points="214.625,-167.7273 205.2347,-172.6337 215.6351,-174.654 214.625,-167.7273"/>
</g>
<!-- Node26 -->
<g id="node27" class="node">
<title>Node26</title>
<polygon fill="#ffffff" stroke="#bfbfbf" points="619.8027,-55.5 619.8027,-73.5 754.2157,-73.5 754.2157,-55.5 619.8027,-55.5"/>
<text text-anchor="middle" x="687.0092" y="-61.5" font-family="FreeSans" font-size="10.00" fill="#000000">boost/current_function.hpp</text>
</g>
<!-- Node25&#45;&gt;Node26 -->
<g id="edge39" class="edge">
<title>Node25&#45;&gt;Node26</title>
<path fill="none" stroke="#191970" d="M737.1014,-110.4179C728.2956,-102.3458 715.2153,-90.3556 704.6292,-80.6517"/>
<polygon fill="#191970" stroke="#191970" points="706.8689,-77.9567 697.1322,-73.7795 702.1388,-83.1168 706.8689,-77.9567"/>
</g>
<!-- Node28&#45;&gt;Node1 -->
<g id="edge44" class="edge">
<title>Node28&#45;&gt;Node1</title>
<path fill="none" stroke="#191970" d="M558.8908,-110.4648C567.3316,-95.8637 586.1632,-67.461 611.0092,-55 656.5017,-32.1843 1005.8855,-15.8538 1122.3604,-10.9974"/>
<polygon fill="#191970" stroke="#191970" points="1122.7243,-14.4854 1132.5716,-10.5762 1122.4358,-7.4914 1122.7243,-14.4854"/>
</g>
<!-- Node28&#45;&gt;Node16 -->
<g id="edge45" class="edge">
<title>Node28&#45;&gt;Node16</title>
<path fill="none" stroke="#191970" d="M546.8294,-110.181C536.5358,-97.1139 516.6513,-72.9376 497.0092,-55 484.7125,-43.7703 469.6807,-32.6825 457.4978,-24.264"/>
<polygon fill="#191970" stroke="#191970" points="459.4506,-21.3594 449.2102,-18.6419 455.5209,-27.1523 459.4506,-21.3594"/>
</g>
<!-- Node28&#45;&gt;Node23 -->
<g id="edge46" class="edge">
<title>Node28&#45;&gt;Node23</title>
<path fill="none" stroke="#191970" d="M506.1183,-110.4795C455.0925,-100.8684 374.3099,-85.6525 319.788,-75.383"/>
<polygon fill="#191970" stroke="#191970" points="320.4013,-71.937 309.9262,-73.5255 319.1056,-78.8161 320.4013,-71.937"/>
</g>
<!-- Node29&#45;&gt;Node1 -->
<g id="edge49" class="edge">
<title>Node29&#45;&gt;Node1</title>
<path fill="none" stroke="#191970" d="M1935.641,-170.3934C1913.4891,-160.4326 1877.0852,-143.8973 1846.0092,-129 1828.9822,-120.8376 1825.7116,-116.5703 1808.0092,-110 1714.3286,-75.2303 1688.3856,-72.5236 1590.0092,-55 1446.3078,-29.4028 1272.8397,-16.4411 1197.7192,-11.6874"/>
<polygon fill="#191970" stroke="#191970" points="1197.5622,-8.171 1187.3647,-11.0451 1197.1288,-15.1576 1197.5622,-8.171"/>
</g>
<!-- Node30&#45;&gt;Node1 -->
<g id="edge52" class="edge">
<title>Node30&#45;&gt;Node1</title>
<path fill="none" stroke="#191970" d="M1210.346,-110.3786C1207.782,-97.5461 1202.1778,-73.6469 1193.0092,-55 1188.0765,-44.9679 1180.9499,-34.8026 1174.5808,-26.6325"/>
<polygon fill="#191970" stroke="#191970" points="1177.1245,-24.2124 1168.1067,-18.6508 1171.688,-28.6221 1177.1245,-24.2124"/>
</g>
<!-- Node30&#45;&gt;Node21 -->
<g id="edge51" class="edge">
<title>Node30&#45;&gt;Node21</title>
<path fill="none" stroke="#191970" d="M1169.6946,-110.4795C1118.2603,-99.5148 1032.6065,-81.2552 986.2246,-71.3676"/>
<polygon fill="#191970" stroke="#191970" points="986.9167,-67.9366 976.4067,-69.2747 985.4572,-74.7828 986.9167,-67.9366"/>
</g>
<!-- Node31 -->
<g id="node32" class="node">
<title>Node31</title>
<polygon fill="#ffffff" stroke="#bfbfbf" points="1240.2065,-55.5 1240.2065,-73.5 1331.8119,-73.5 1331.8119,-55.5 1240.2065,-55.5"/>
<text text-anchor="middle" x="1286.0092" y="-61.5" font-family="FreeSans" font-size="10.00" fill="#000000">boost/cstdint.hpp</text>
</g>
<!-- Node30&#45;&gt;Node31 -->
<g id="edge53" class="edge">
<title>Node30&#45;&gt;Node31</title>
<path fill="none" stroke="#191970" d="M1224.2288,-110.4179C1235.4761,-102.0584 1252.3774,-89.4966 1265.6607,-79.6239"/>
<polygon fill="#191970" stroke="#191970" points="1267.8333,-82.37 1273.7715,-73.5956 1263.6576,-76.7518 1267.8333,-82.37"/>
</g>
<!-- Node32 -->
<g id="node33" class="node">
<title>Node32</title>
<polygon fill="#ffffff" stroke="#bfbfbf" points="1350.1127,-55.5 1350.1127,-73.5 1403.9057,-73.5 1403.9057,-55.5 1350.1127,-55.5"/>
<text text-anchor="middle" x="1377.0092" y="-61.5" font-family="FreeSans" font-size="10.00" fill="#000000">gmpxx.h</text>
</g>
<!-- Node30&#45;&gt;Node32 -->
<g id="edge54" class="edge">
<title>Node30&#45;&gt;Node32</title>
<path fill="none" stroke="#191970" d="M1239.2556,-110.4179C1266.8047,-101.2348 1309.567,-86.9807 1340.1365,-76.7909"/>
<polygon fill="#191970" stroke="#191970" points="1341.6166,-79.9869 1349.9966,-73.5042 1339.4029,-73.3462 1341.6166,-79.9869"/>
</g>
<!-- Node33&#45;&gt;Node2 -->
<g id="edge57" class="edge">
<title>Node33&#45;&gt;Node2</title>
<path fill="none" stroke="#191970" d="M1764.0723,-170.3873C1765.0488,-162.0174 1766.5277,-149.3414 1767.7651,-138.735"/>
<polygon fill="#191970" stroke="#191970" points="1771.2536,-139.0367 1768.936,-128.6985 1764.3007,-138.2255 1771.2536,-139.0367"/>
</g>
<!-- Node33&#45;&gt;Node3 -->
<g id="edge59" class="edge">
<title>Node33&#45;&gt;Node3</title>
<path fill="none" stroke="#191970" d="M1723.4294,-188.5252C1712.0375,-190.5128 1699.6008,-192.4767 1688.0092,-194 1530.887,-214.6476 1344.8579,-228.8516 1246.2564,-235.3962"/>
<polygon fill="#191970" stroke="#191970" points="1245.8707,-231.9139 1236.1218,-236.0622 1246.3298,-238.8988 1245.8707,-231.9139"/>
</g>
<!-- Node33&#45;&gt;Node5 -->
<g id="edge56" class="edge">
<title>Node33&#45;&gt;Node5</title>
<path fill="none" stroke="#191970" d="M1752.5296,-170.3873C1741.891,-161.1364 1725.203,-146.625 1712.3653,-135.4618"/>
<polygon fill="#191970" stroke="#191970" points="1714.4302,-132.6192 1704.5874,-128.6985 1709.8369,-137.9014 1714.4302,-132.6192"/>
</g>
<!-- Node33&#45;&gt;Node13 -->
<g id="edge58" class="edge">
<title>Node33&#45;&gt;Node13</title>
<path fill="none" stroke="#191970" d="M1742.2018,-170.3873C1719.2362,-160.3294 1682.0721,-144.0531 1655.9722,-132.6225"/>
<polygon fill="#191970" stroke="#191970" points="1657.1276,-129.3076 1646.5635,-128.5019 1654.3194,-135.7196 1657.1276,-129.3076"/>
</g>
<!-- Node34 -->
<g id="node35" class="node">
<title>Node34</title>
<g id="a_node35"><a xlink:href="BasicBoolFunctors_8h_source.html" target="_top" xlink:title="DGtal/base/BasicBoolFunctors.h">
<polygon fill="#ffffff" stroke="#000000" points="1854.7533,-110.5 1854.7533,-128.5 2015.2651,-128.5 2015.2651,-110.5 1854.7533,-110.5"/>
<text text-anchor="middle" x="1935.0092" y="-116.5" font-family="FreeSans" font-size="10.00" fill="#000000">DGtal/base/BasicBoolFunctors.h</text>
</a>
</g>
</g>
<!-- Node33&#45;&gt;Node34 -->
<g id="edge60" class="edge">
<title>Node33&#45;&gt;Node34</title>
<path fill="none" stroke="#191970" d="M1789.1323,-170.3873C1818.6001,-160.1078 1866.6877,-143.3331 1899.5362,-131.8743"/>
<polygon fill="#191970" stroke="#191970" points="1900.9146,-135.1004 1909.2038,-128.5019 1898.609,-128.491 1900.9146,-135.1004"/>
</g>
<!-- Node34&#45;&gt;Node1 -->
<g id="edge61" class="edge">
<title>Node34&#45;&gt;Node1</title>
<path fill="none" stroke="#191970" d="M1883.1424,-110.4644C1842.5424,-102.7189 1784.9501,-90.2414 1736.0092,-74 1716.179,-67.4192 1713.2501,-60.1816 1693.0092,-55 1598.8504,-30.8959 1302.3499,-15.7908 1197.3321,-11.083"/>
<polygon fill="#191970" stroke="#191970" points="1197.3505,-7.5804 1187.2055,-10.6347 1197.041,-14.5736 1197.3505,-7.5804"/>
</g>
<!-- Node35 -->
<g id="node36" class="node">
<title>Node35</title>
<polygon fill="#ffffff" stroke="#bfbfbf" points="1745.1449,-55.5 1745.1449,-73.5 1842.8735,-73.5 1842.8735,-55.5 1745.1449,-55.5"/>
<text text-anchor="middle" x="1794.0092" y="-61.5" font-family="FreeSans" font-size="10.00" fill="#000000">boost/function.hpp</text>
</g>
<!-- Node34&#45;&gt;Node35 -->
<g id="edge62" class="edge">
<title>Node34&#45;&gt;Node35</title>
<path fill="none" stroke="#191970" d="M1911.7259,-110.4179C1888.5604,-101.3817 1852.8069,-87.4353 1826.7796,-77.2828"/>
<polygon fill="#191970" stroke="#191970" points="1827.9153,-73.969 1817.3271,-73.5956 1825.3715,-80.4904 1827.9153,-73.969"/>
</g>
<!-- Node36 -->
<g id="node37" class="node">
<title>Node36</title>
<g id="a_node37"><a xlink:href="BasicBoolFunctors_8ih_source.html" target="_top" xlink:title="DGtal/base/BasicBoolFunctors.ih">
<polygon fill="#ffffff" stroke="#000000" points="1860.6425,-55.5 1860.6425,-73.5 2023.3759,-73.5 2023.3759,-55.5 1860.6425,-55.5"/>
<text text-anchor="middle" x="1942.0092" y="-61.5" font-family="FreeSans" font-size="10.00" fill="#000000">DGtal/base/BasicBoolFunctors.ih</text>
</a>
</g>
</g>
<!-- Node34&#45;&gt;Node36 -->
<g id="edge63" class="edge">
<title>Node34&#45;&gt;Node36</title>
<path fill="none" stroke="#191970" d="M1936.1651,-110.4179C1937.0817,-103.2164 1938.3951,-92.8962 1939.5448,-83.8632"/>
<polygon fill="#191970" stroke="#191970" points="1943.0375,-84.1414 1940.8282,-73.7795 1936.0936,-83.2575 1943.0375,-84.1414"/>
</g>
<!-- Node37&#45;&gt;Node1 -->
<g id="edge65" class="edge">
<title>Node37&#45;&gt;Node1</title>
<path fill="none" stroke="#191970" d="M1116.5959,-55.4179C1124.078,-47.5041 1135.1208,-35.8243 1144.1964,-26.2251"/>
<polygon fill="#191970" stroke="#191970" points="1146.909,-28.4505 1151.2359,-18.7795 1141.8225,-23.6414 1146.909,-28.4505"/>
</g>
<!-- Node38&#45;&gt;Node1 -->
<g id="edge67" class="edge">
<title>Node38&#45;&gt;Node1</title>
<path fill="none" stroke="#191970" d="M1431.706,-55.4795C1365.759,-44.3192 1255.1543,-25.6015 1197.5118,-15.8466"/>
<polygon fill="#191970" stroke="#191970" points="1197.8315,-12.351 1187.3877,-14.1333 1196.6634,-19.2529 1197.8315,-12.351"/>
</g>
<!-- Node39&#45;&gt;Node1 -->
<g id="edge69" class="edge">
<title>Node39&#45;&gt;Node1</title>
<path fill="none" stroke="#191970" d="M1975.4693,-285.3886C2000.9102,-268.1054 2051.0092,-227.9234 2051.0092,-179.5 2051.0092,-179.5 2051.0092,-179.5 2051.0092,-119.5 2051.0092,-89.6154 2055.4662,-73.5164 2032.0092,-55 1998.7893,-28.777 1359.8012,-13.6774 1197.3307,-10.2521"/>
<polygon fill="#191970" stroke="#191970" points="1197.4006,-6.7529 1187.3297,-10.0433 1197.2545,-13.7513 1197.4006,-6.7529"/>
</g>
<!-- Node39&#45;&gt;Node3 -->
<g id="edge70" class="edge">
<title>Node39&#45;&gt;Node3</title>
<path fill="none" stroke="#191970" d="M1888.6576,-289.4243C1738.3607,-278.8805 1394.0846,-254.7285 1246.3864,-244.367"/>
<polygon fill="#191970" stroke="#191970" points="1246.3177,-240.8537 1236.0972,-243.6452 1245.8277,-247.8365 1246.3177,-240.8537"/>
</g>
<!-- Node39&#45;&gt;Node29 -->
<g id="edge71" class="edge">
<title>Node39&#45;&gt;Node29</title>
<path fill="none" stroke="#191970" d="M1960.6169,-285.4761C1959.8103,-266.9256 1957.9502,-224.142 1956.8559,-198.9748"/>
<polygon fill="#191970" stroke="#191970" points="1960.3448,-198.6399 1956.4136,-188.8014 1953.3514,-198.944 1960.3448,-198.6399"/>
</g>
</g>
</svg>
        <g id="navigator" transform="translate(0 0)" fill="#404254">
                <rect fill="#f2f5e9" fill-opacity="0.5" stroke="#606060" stroke-width=".5" x="0" y="0" width="60" height="60"/>
                <use id="zoomplus" xlink:href="#zoomPlus" x="17" y="9" onmousedown="handleZoom(evt,'in')"/>
                <use id="zoomminus" xlink:href="#zoomMin" x="42" y="9" onmousedown="handleZoom(evt,'out')"/>
                <use id="reset" xlink:href="#resetDef" x="30" y="36" onmousedown="handleReset()"/>
                <g id="arrowUp" xlink:href="#dirArrow" transform="translate(30 24)" onmousedown="handlePan(0,-1)">
                  <use xlink:href="#rim" fill="#404040">
                        <set attributeName="fill" to="#808080" begin="arrowUp.mouseover" end="arrowUp.mouseout"/>
                  </use>
                  <path fill="none" stroke="white" stroke-width="1.5" d="M0,-3.0v7 M-2.5,-0.5L0,-3.0L2.5,-0.5"/>
                </g>
                <g id="arrowRight" xlink:href="#dirArrow" transform="rotate(90) translate(36 -43)" onmousedown="handlePan(1,0)">
                  <use xlink:href="#rim" fill="#404040">
                        <set attributeName="fill" to="#808080" begin="arrowRight.mouseover" end="arrowRight.mouseout"/>
                  </use>
                  <path fill="none" stroke="white" stroke-width="1.5" d="M0,-3.0v7 M-2.5,-0.5L0,-3.0L2.5,-0.5"/>
                </g>
                <g id="arrowDown" xlink:href="#dirArrow" transform="rotate(180) translate(-30 -48)" onmousedown="handlePan(0,1)">
                  <use xlink:href="#rim" fill="#404040">
                        <set attributeName="fill" to="#808080" begin="arrowDown.mouseover" end="arrowDown.mouseout"/>
                  </use>
                  <path fill="none" stroke="white" stroke-width="1.5" d="M0,-3.0v7 M-2.5,-0.5L0,-3.0L2.5,-0.5"/>
                </g>
                <g id="arrowLeft" xlink:href="#dirArrow" transform="rotate(270) translate(-36 17)" onmousedown="handlePan(-1,0)">
                  <use xlink:href="#rim" fill="#404040">
                        <set attributeName="fill" to="#808080" begin="arrowLeft.mouseover" end="arrowLeft.mouseout"/>
                  </use>
                  <path fill="none" stroke="white" stroke-width="1.5" d="M0,-3.0v7 M-2.5,-0.5L0,-3.0L2.5,-0.5"/>
                </g>
        </g>
        <svg viewBox="0 0 15 15" width="100%" height="30px" preserveAspectRatio="xMaxYMin meet">
         <g id="arrow_out" transform="scale(0.3 0.3)">
          <a xlink:href="testBasicFunctors_8cpp__incl_org.svg" target="_base">
           <rect id="button" ry="5" rx="5" y="6" x="6" height="38" width="38"
                fill="#f2f5e9" fill-opacity="0.5" stroke="#606060" stroke-width="1.0"/>
           <path id="arrow"
             d="M 11.500037,31.436501 C 11.940474,20.09759 22.043105,11.32322 32.158766,21.979434 L 37.068811,17.246167 C 37.068811,17.246167 37.088388,32 37.088388,32 L 22.160133,31.978069 C 22.160133,31.978069 26.997745,27.140456 26.997745,27.140456 C 18.528582,18.264221 13.291696,25.230495 11.500037,31.436501 z"
             style="fill:#404040;"/>
          </a>
         </g>
        </svg>
</svg>
