<?xml version="1.0" encoding="UTF-8" standalone="no"?>
<!DOCTYPE svg PUBLIC "-//W3C//DTD SVG 1.1//EN"
 "http://www.w3.org/Graphics/SVG/1.1/DTD/svg11.dtd">
<!-- Generated by graphviz version 2.40.1 (20161225.0304)
 -->
<!-- Title: testHalfPlane.cpp Pages: 1 -->
<!--zoomable 682 -->
<svg id="main" version="1.1" xmlns="http://www.w3.org/2000/svg" xmlns:xlink="http://www.w3.org/1999/xlink" xml:space="preserve" onload="init(evt)">
<style type="text/css"><![CDATA[
.edge:hover path { stroke: red; }
.edge:hover polygon { stroke: red; fill: red; }
]]></style>
<script type="text/javascript"><![CDATA[
var edges = document.getElementsByTagName('g');
if (edges && edges.length) {
  for (var i=0;i<edges.length;i++) {
    if (edges[i].id.substr(0,4)=='edge') {
      edges[i].setAttribute('class','edge');
    }
  }
}
]]></script>
        <defs>
                <circle id="rim" cx="0" cy="0" r="7"/>
                <circle id="rim2" cx="0" cy="0" r="3.5"/>
                <g id="zoomPlus">
                        <use xlink:href="#rim" fill="#404040">
                                <set attributeName="fill" to="#808080" begin="zoomplus.mouseover" end="zoomplus.mouseout"/>
                        </use>
                        <path d="M-4,0h8M0,-4v8" fill="none" stroke="white" stroke-width="1.5" pointer-events="none"/>
                </g>
                <g id="zoomMin">
                        <use xlink:href="#rim" fill="#404040">
                                <set attributeName="fill" to="#808080" begin="zoomminus.mouseover" end="zoomminus.mouseout"/>
                        </use>
                        <path d="M-4,0h8" fill="none" stroke="white" stroke-width="1.5" pointer-events="none"/>
                </g>
                <g id="dirArrow">
                        <path fill="none" stroke="white" stroke-width="1.5" d="M0,-3.0v7 M-2.5,-0.5L0,-3.0L2.5,-0.5"/>
                </g>
               <g id="resetDef">
                       <use xlink:href="#rim2" fill="#404040">
                               <set attributeName="fill" to="#808080" begin="reset.mouseover" end="reset.mouseout"/>
                       </use>
               </g>
        </defs>

<script type="text/javascript">
var viewWidth = 2957;
var viewHeight = 682;
var sectionId = 'dynsection-0';
</script>
<script xlink:href="svgpan.js"/>
<svg id="graph" class="graph">
<g id="viewport">
<title>testHalfPlane.cpp</title>
<polygon fill="#ffffff" stroke="transparent" points="-4,4 -4,-678 2952.5615,-678 2952.5615,4 -4,4"/>
<!-- Node0 -->
<g id="node1" class="node">
<title>Node0</title>
<polygon fill="#bfbfbf" stroke="#000000" points="1629.8105,-655.5 1629.8105,-673.5 1724.1895,-673.5 1724.1895,-655.5 1629.8105,-655.5"/>
<text text-anchor="middle" x="1677" y="-661.5" font-family="FreeSans" font-size="10.00" fill="#000000">testHalfPlane.cpp</text>
</g>
<!-- Node1 -->
<g id="node2" class="node">
<title>Node1</title>
<polygon fill="#ffffff" stroke="#bfbfbf" points="45.9385,-600.5 45.9385,-618.5 88.0615,-618.5 88.0615,-600.5 45.9385,-600.5"/>
<text text-anchor="middle" x="67" y="-606.5" font-family="FreeSans" font-size="10.00" fill="#000000">cstdio</text>
</g>
<!-- Node0&#45;&gt;Node1 -->
<g id="edge1" class="edge">
<title>Node0&#45;&gt;Node1</title>
<path fill="none" stroke="#191970" d="M1629.7286,-663.7994C1383.8137,-660.0658 256.1591,-641.82 102,-619 100.7388,-618.8133 99.458,-618.5967 98.1688,-618.3561"/>
<polygon fill="#191970" stroke="#191970" points="98.8257,-614.9165 88.3017,-616.1395 97.2914,-621.7463 98.8257,-614.9165"/>
</g>
<!-- Node2 -->
<g id="node3" class="node">
<title>Node2</title>
<polygon fill="#ffffff" stroke="#bfbfbf" points="445.3843,-110.5 445.3843,-128.5 488.6157,-128.5 488.6157,-110.5 445.3843,-110.5"/>
<text text-anchor="middle" x="467" y="-116.5" font-family="FreeSans" font-size="10.00" fill="#000000">cmath</text>
</g>
<!-- Node0&#45;&gt;Node2 -->
<g id="edge2" class="edge">
<title>Node0&#45;&gt;Node2</title>
<path fill="none" stroke="#191970" d="M1629.7755,-662.6402C1409.1938,-653.6486 491,-612.7233 491,-554.5 491,-554.5 491,-554.5 491,-494.5 491,-409.9617 447.1989,-396.9718 431,-314 428.5303,-301.3499 429.6223,-297.815 431,-285 436.7944,-231.1005 452.9135,-169.001 461.4814,-138.4655"/>
<polygon fill="#191970" stroke="#191970" points="464.8847,-139.2939 464.2632,-128.7173 458.1534,-137.3729 464.8847,-139.2939"/>
</g>
<!-- Node3 -->
<g id="node4" class="node">
<title>Node3</title>
<polygon fill="#ffffff" stroke="#bfbfbf" points="2834.3301,-600.5 2834.3301,-618.5 2883.6699,-618.5 2883.6699,-600.5 2834.3301,-600.5"/>
<text text-anchor="middle" x="2859" y="-606.5" font-family="FreeSans" font-size="10.00" fill="#000000">fstream</text>
</g>
<!-- Node0&#45;&gt;Node3 -->
<g id="edge3" class="edge">
<title>Node0&#45;&gt;Node3</title>
<path fill="none" stroke="#191970" d="M1724.3346,-663.8724C1911.8883,-661.1911 2603.1721,-649.4146 2820,-619 2821.281,-618.8203 2822.5814,-618.6167 2823.8914,-618.3937"/>
<polygon fill="#191970" stroke="#191970" points="2824.8492,-621.7714 2833.967,-616.3755 2823.4744,-614.9078 2824.8492,-621.7714"/>
</g>
<!-- Node4 -->
<g id="node5" class="node">
<title>Node4</title>
<polygon fill="#ffffff" stroke="#bfbfbf" points="1159.3843,-290.5 1159.3843,-308.5 1202.6157,-308.5 1202.6157,-290.5 1159.3843,-290.5"/>
<text text-anchor="middle" x="1181" y="-296.5" font-family="FreeSans" font-size="10.00" fill="#000000">vector</text>
</g>
<!-- Node0&#45;&gt;Node4 -->
<g id="edge4" class="edge">
<title>Node0&#45;&gt;Node4</title>
<path fill="none" stroke="#191970" d="M1664.7622,-655.4232C1617.19,-620.124 1440.0229,-488.5271 1295,-379 1278.0466,-366.1961 1274.3012,-362.3299 1257,-350 1239.4791,-337.5134 1219.1584,-324.0624 1203.9398,-314.1845"/>
<polygon fill="#191970" stroke="#191970" points="1205.4933,-311.0214 1195.194,-308.5365 1201.6957,-316.9018 1205.4933,-311.0214"/>
</g>
<!-- Node5 -->
<g id="node6" class="node">
<title>Node5</title>
<polygon fill="#ffffff" stroke="#bfbfbf" points="1857.8276,-.5 1857.8276,-18.5 1912.1724,-18.5 1912.1724,-.5 1857.8276,-.5"/>
<text text-anchor="middle" x="1885" y="-6.5" font-family="FreeSans" font-size="10.00" fill="#000000">iostream</text>
</g>
<!-- Node0&#45;&gt;Node5 -->
<g id="edge5" class="edge">
<title>Node0&#45;&gt;Node5</title>
<path fill="none" stroke="#191970" d="M1724.3591,-663.3797C1908.767,-658.8728 2573.1591,-641.2342 2665,-619 2731.9774,-602.7851 2806,-623.4122 2806,-554.5 2806,-554.5 2806,-554.5 2806,-119.5 2806,-85.047 2792.9454,-72.0378 2763,-55 2725.9622,-33.9269 2085.251,-14.9912 1922.4032,-10.5034"/>
<polygon fill="#191970" stroke="#191970" points="1922.4713,-7.0041 1912.3792,-10.2288 1922.2796,-14.0014 1922.4713,-7.0041"/>
</g>
<!-- Node6 -->
<g id="node7" class="node">
<title>Node6</title>
<polygon fill="#ffffff" stroke="#bfbfbf" points="2901.4385,-600.5 2901.4385,-618.5 2948.5615,-618.5 2948.5615,-600.5 2901.4385,-600.5"/>
<text text-anchor="middle" x="2925" y="-606.5" font-family="FreeSans" font-size="10.00" fill="#000000">iterator</text>
</g>
<!-- Node0&#45;&gt;Node6 -->
<g id="edge6" class="edge">
<title>Node0&#45;&gt;Node6</title>
<path fill="none" stroke="#191970" d="M1724.3919,-664.314C1916.9329,-663.3169 2641.8039,-657.16 2891.2912,-618.8414"/>
<polygon fill="#191970" stroke="#191970" points="2892.066,-622.2621 2901.3892,-617.2293 2890.9624,-615.3496 2892.066,-622.2621"/>
</g>
<!-- Node7 -->
<g id="node8" class="node">
<title>Node7</title>
<g id="a_node8"><a xlink:href="Common_8h_source.html" target="_top" xlink:title="DGtal/base/Common.h">
<polygon fill="#ffffff" stroke="#000000" points="1385.1455,-230.5 1385.1455,-248.5 1502.8545,-248.5 1502.8545,-230.5 1385.1455,-230.5"/>
<text text-anchor="middle" x="1444" y="-236.5" font-family="FreeSans" font-size="10.00" fill="#000000">DGtal/base/Common.h</text>
</a>
</g>
</g>
<!-- Node0&#45;&gt;Node7 -->
<g id="edge7" class="edge">
<title>Node0&#45;&gt;Node7</title>
<path fill="none" stroke="#191970" d="M1678.8835,-655.3768C1684.1434,-627.9991 1697.319,-544.4593 1677,-480 1644.2089,-375.9748 1613.5373,-352.6747 1528,-285 1511.6907,-272.0966 1491.2057,-260.9176 1474.5484,-252.8694"/>
<polygon fill="#191970" stroke="#191970" points="1475.7833,-249.5827 1465.2436,-248.5032 1472.8096,-255.9197 1475.7833,-249.5827"/>
</g>
<!-- Node42 -->
<g id="node28" class="node">
<title>Node42</title>
<g id="a_node28"><a xlink:href="Exceptions_8h_source.html" target="_top" xlink:title="DGtal/base/Exceptions.h">
<polygon fill="#ffffff" stroke="#000000" points="2458.9707,-170.5 2458.9707,-188.5 2585.0293,-188.5 2585.0293,-170.5 2458.9707,-170.5"/>
<text text-anchor="middle" x="2522" y="-176.5" font-family="FreeSans" font-size="10.00" fill="#000000">DGtal/base/Exceptions.h</text>
</a>
</g>
</g>
<!-- Node0&#45;&gt;Node42 -->
<g id="edge46" class="edge">
<title>Node0&#45;&gt;Node42</title>
<path fill="none" stroke="#191970" d="M1724.3556,-663.5012C1882.1442,-659.9429 2389.1039,-646.5971 2550,-619 2649.5865,-601.9188 2768,-655.5408 2768,-554.5 2768,-554.5 2768,-554.5 2768,-364.5 2768,-328.1716 2771.9887,-313.1296 2749,-285 2705.8551,-232.2067 2630.3358,-204.498 2578.3275,-190.956"/>
<polygon fill="#191970" stroke="#191970" points="2579.1309,-187.5492 2568.5798,-188.5113 2577.428,-194.3389 2579.1309,-187.5492"/>
</g>
<!-- Node43 -->
<g id="node29" class="node">
<title>Node43</title>
<g id="a_node29"><a xlink:href="SpaceND_8h_source.html" target="_top" xlink:title="DGtal/kernel/SpaceND.h">
<polygon fill="#ffffff" stroke="#000000" points="1775.2539,-420.5 1775.2539,-438.5 1900.7461,-438.5 1900.7461,-420.5 1775.2539,-420.5"/>
<text text-anchor="middle" x="1838" y="-426.5" font-family="FreeSans" font-size="10.00" fill="#000000">DGtal/kernel/SpaceND.h</text>
</a>
</g>
</g>
<!-- Node0&#45;&gt;Node43 -->
<g id="edge47" class="edge">
<title>Node0&#45;&gt;Node43</title>
<path fill="none" stroke="#191970" d="M1683.6639,-655.4994C1690.3937,-646.3662 1701.0458,-631.7903 1710,-619 1753.726,-556.5411 1803.8806,-481.1501 1826.2118,-447.3783"/>
<polygon fill="#191970" stroke="#191970" points="1829.3882,-448.9196 1831.9786,-438.6463 1823.5471,-445.062 1829.3882,-448.9196"/>
</g>
<!-- Node64 -->
<g id="node33" class="node">
<title>Node64</title>
<g id="a_node33"><a xlink:href="DomainPredicate_8h_source.html" target="_top" xlink:title="DGtal/kernel/domains\l/DomainPredicate.h">
<polygon fill="#ffffff" stroke="#000000" points="141.9238,-480.5 141.9238,-508.5 254.0762,-508.5 254.0762,-480.5 141.9238,-480.5"/>
<text text-anchor="start" x="149.9238" y="-496.5" font-family="FreeSans" font-size="10.00" fill="#000000">DGtal/kernel/domains</text>
<text text-anchor="middle" x="198" y="-486.5" font-family="FreeSans" font-size="10.00" fill="#000000">/DomainPredicate.h</text>
</a>
</g>
</g>
<!-- Node0&#45;&gt;Node64 -->
<g id="edge63" class="edge">
<title>Node0&#45;&gt;Node64</title>
<path fill="none" stroke="#191970" d="M1629.7247,-663.7694C1421.3883,-660.406 590.5173,-645.4368 477,-619 382.4107,-596.9713 280.4003,-542.7629 229.9746,-513.6772"/>
<polygon fill="#191970" stroke="#191970" points="231.5757,-510.5594 221.1727,-508.552 228.0533,-516.6086 231.5757,-510.5594"/>
</g>
<!-- Node82 -->
<g id="node38" class="node">
<title>Node82</title>
<g id="a_node38"><a xlink:href="HyperRectDomain_8h_source.html" target="_top" xlink:title="DGtal/kernel/domains\l/HyperRectDomain.h">
<polygon fill="#ffffff" stroke="#000000" points="1555.9238,-480.5 1555.9238,-508.5 1668.0762,-508.5 1668.0762,-480.5 1555.9238,-480.5"/>
<text text-anchor="start" x="1563.9238" y="-496.5" font-family="FreeSans" font-size="10.00" fill="#000000">DGtal/kernel/domains</text>
<text text-anchor="middle" x="1612" y="-486.5" font-family="FreeSans" font-size="10.00" fill="#000000">/HyperRectDomain.h</text>
</a>
</g>
</g>
<!-- Node0&#45;&gt;Node82 -->
<g id="edge77" class="edge">
<title>Node0&#45;&gt;Node82</title>
<path fill="none" stroke="#191970" d="M1673.5053,-655.3601C1663.7194,-629.766 1635.8066,-556.7635 1621.1858,-518.5243"/>
<polygon fill="#191970" stroke="#191970" points="1624.2811,-516.8195 1617.4405,-508.729 1617.7428,-519.3195 1624.2811,-516.8195"/>
</g>
<!-- Node88 -->
<g id="node44" class="node">
<title>Node88</title>
<g id="a_node44"><a xlink:href="Board2D_8h_source.html" target="_top" xlink:title="DGtal/io/boards/Board2D.h">
<polygon fill="#ffffff" stroke="#ff0000" points="1074.9683,-600.5 1074.9683,-618.5 1211.0317,-618.5 1211.0317,-600.5 1074.9683,-600.5"/>
<text text-anchor="middle" x="1143" y="-606.5" font-family="FreeSans" font-size="10.00" fill="#000000">DGtal/io/boards/Board2D.h</text>
</a>
</g>
</g>
<!-- Node0&#45;&gt;Node88 -->
<g id="edge102" class="edge">
<title>Node0&#45;&gt;Node88</title>
<path fill="none" stroke="#191970" d="M1629.6858,-659.9021C1547.6672,-651.89 1373.7844,-634.7205 1227,-619 1225.2443,-618.812 1223.4681,-618.6206 1221.6772,-618.4267"/>
<polygon fill="#191970" stroke="#191970" points="1221.6208,-614.8998 1211.2998,-617.2928 1220.8604,-621.8584 1221.6208,-614.8998"/>
</g>
<!-- Node225 -->
<g id="node48" class="node">
<title>Node225</title>
<g id="a_node48"><a xlink:href="StraightLineFrom2Points_8h_source.html" target="_top" xlink:title="Representation of a StraightLineFrom2Points uniquely defined by two 2D points. ">
<polygon fill="#ffffff" stroke="#ff0000" points="1046.4141,-415.5 1046.4141,-443.5 1183.5859,-443.5 1183.5859,-415.5 1046.4141,-415.5"/>
<text text-anchor="start" x="1054.4141" y="-431.5" font-family="FreeSans" font-size="10.00" fill="#000000">DGtal/shapes/fromPoints</text>
<text text-anchor="middle" x="1115" y="-421.5" font-family="FreeSans" font-size="10.00" fill="#000000">/StraightLineFrom2Points.h</text>
</a>
</g>
</g>
<!-- Node0&#45;&gt;Node225 -->
<g id="edge127" class="edge">
<title>Node0&#45;&gt;Node225</title>
<path fill="none" stroke="#191970" d="M1629.5231,-661.5126C1548.76,-654.6584 1381.579,-632.664 1260,-564 1206.9834,-534.0579 1157.8413,-481.0615 1132.6443,-451.3164"/>
<polygon fill="#191970" stroke="#191970" points="1135.2838,-449.0167 1126.1891,-443.5818 1129.9096,-453.502 1135.2838,-449.0167"/>
</g>
<!-- Node222 -->
<g id="node50" class="node">
<title>Node222</title>
<g id="a_node50"><a xlink:href="Point2ShapePredicate_8h_source.html" target="_top" xlink:title="Header file for module Point2ShapePredicate.cpp. ">
<polygon fill="#ffffff" stroke="#ff0000" points="2612.4214,-285.5 2612.4214,-313.5 2739.5786,-313.5 2739.5786,-285.5 2612.4214,-285.5"/>
<text text-anchor="start" x="2620.4214" y="-301.5" font-family="FreeSans" font-size="10.00" fill="#000000">DGtal/shapes/fromPoints</text>
<text text-anchor="middle" x="2676" y="-291.5" font-family="FreeSans" font-size="10.00" fill="#000000">/Point2ShapePredicate.h</text>
</a>
</g>
</g>
<!-- Node0&#45;&gt;Node222 -->
<g id="edge128" class="edge">
<title>Node0&#45;&gt;Node222</title>
<path fill="none" stroke="#191970" d="M1724.2101,-664.1789C1918.8652,-662.2426 2649,-648.701 2649,-554.5 2649,-554.5 2649,-554.5 2649,-429.5 2649,-391.8169 2660.0102,-349.2491 2667.9688,-323.4018"/>
<polygon fill="#191970" stroke="#191970" points="2671.3503,-324.3175 2671.0478,-313.727 2664.6799,-322.1946 2671.3503,-324.3175"/>
</g>
<!-- Node7&#45;&gt;Node2 -->
<g id="edge18" class="edge">
<title>Node7&#45;&gt;Node2</title>
<path fill="none" stroke="#191970" d="M1384.9092,-238.1399C1185.7656,-233.358 549.5149,-216.3908 512,-194 491.4771,-181.7509 479.136,-156.1979 472.7009,-138.4569"/>
<polygon fill="#191970" stroke="#191970" points="475.9054,-137.0001 469.437,-128.609 469.2608,-139.2024 475.9054,-137.0001"/>
</g>
<!-- Node7&#45;&gt;Node5 -->
<g id="edge8" class="edge">
<title>Node7&#45;&gt;Node5</title>
<path fill="none" stroke="#191970" d="M1442.0415,-230.3768C1436.1041,-199.9462 1421.7517,-101.2406 1474,-55 1501.7223,-30.4653 1751.5944,-15.9286 1847.6321,-11.2065"/>
<polygon fill="#191970" stroke="#191970" points="1847.945,-14.6956 1857.7644,-10.7168 1847.607,-7.7037 1847.945,-14.6956"/>
</g>
<!-- Node8 -->
<g id="node9" class="node">
<title>Node8</title>
<polygon fill="#ffffff" stroke="#bfbfbf" points="1225.5962,-170.5 1225.5962,-188.5 1284.4038,-188.5 1284.4038,-170.5 1225.5962,-170.5"/>
<text text-anchor="middle" x="1255" y="-176.5" font-family="FreeSans" font-size="10.00" fill="#000000">exception</text>
</g>
<!-- Node7&#45;&gt;Node8 -->
<g id="edge9" class="edge">
<title>Node7&#45;&gt;Node8</title>
<path fill="none" stroke="#191970" d="M1412.216,-230.4742C1381.7298,-221.6721 1334.4852,-207.652 1294,-194 1292.1519,-193.3768 1290.2597,-192.7237 1288.3535,-192.0541"/>
<polygon fill="#191970" stroke="#191970" points="1289.4368,-188.7242 1278.8424,-188.6286 1287.0648,-195.3101 1289.4368,-188.7242"/>
</g>
<!-- Node9 -->
<g id="node10" class="node">
<title>Node9</title>
<polygon fill="#ffffff" stroke="#bfbfbf" points="534.436,-110.5 534.436,-128.5 591.564,-128.5 591.564,-110.5 534.436,-110.5"/>
<text text-anchor="middle" x="563" y="-116.5" font-family="FreeSans" font-size="10.00" fill="#000000">algorithm</text>
</g>
<!-- Node7&#45;&gt;Node9 -->
<g id="edge10" class="edge">
<title>Node7&#45;&gt;Node9</title>
<path fill="none" stroke="#191970" d="M1385.0229,-237.8247C1221.5728,-232.9056 770.6784,-217.364 708,-194 688.0929,-186.5794 688.363,-175.6845 670,-165 647.4067,-151.854 620.2928,-140.3655 599.0123,-132.2213"/>
<polygon fill="#191970" stroke="#191970" points="599.974,-128.844 589.3818,-128.6101 597.5163,-135.3983 599.974,-128.844"/>
</g>
<!-- Node10 -->
<g id="node11" class="node">
<title>Node10</title>
<polygon fill="#ffffff" stroke="#bfbfbf" points="1302.5298,-170.5 1302.5298,-188.5 1397.4702,-188.5 1397.4702,-170.5 1302.5298,-170.5"/>
<text text-anchor="middle" x="1350" y="-176.5" font-family="FreeSans" font-size="10.00" fill="#000000">boost/version.hpp</text>
</g>
<!-- Node7&#45;&gt;Node10 -->
<g id="edge11" class="edge">
<title>Node7&#45;&gt;Node10</title>
<path fill="none" stroke="#191970" d="M1429.7234,-230.3873C1414.5907,-220.7281 1390.4732,-205.334 1372.7233,-194.0042"/>
<polygon fill="#191970" stroke="#191970" points="1374.4153,-190.932 1364.1029,-188.5019 1370.649,-196.8325 1374.4153,-190.932"/>
</g>
<!-- Node11 -->
<g id="node12" class="node">
<title>Node11</title>
<polygon fill="#ffffff" stroke="#bfbfbf" points="2311.2935,-170.5 2311.2935,-188.5 2440.7065,-188.5 2440.7065,-170.5 2311.2935,-170.5"/>
<text text-anchor="middle" x="2376" y="-176.5" font-family="FreeSans" font-size="10.00" fill="#000000">boost/concept_check.hpp</text>
</g>
<!-- Node7&#45;&gt;Node11 -->
<g id="edge12" class="edge">
<title>Node7&#45;&gt;Node11</title>
<path fill="none" stroke="#191970" d="M1502.9923,-237.4536C1670.4857,-231.4714 2146.8394,-213.219 2302,-194 2309.6735,-193.0495 2317.7452,-191.7658 2325.6229,-190.3532"/>
<polygon fill="#191970" stroke="#191970" points="2326.2691,-193.7931 2335.4529,-188.5104 2324.9792,-186.913 2326.2691,-193.7931"/>
</g>
<!-- Node12 -->
<g id="node13" class="node">
<title>Node12</title>
<polygon fill="#ffffff" stroke="#bfbfbf" points="1528.5815,-170.5 1528.5815,-188.5 1647.4185,-188.5 1647.4185,-170.5 1528.5815,-170.5"/>
<text text-anchor="middle" x="1588" y="-176.5" font-family="FreeSans" font-size="10.00" fill="#000000">boost/static_assert.hpp</text>
</g>
<!-- Node7&#45;&gt;Node12 -->
<g id="edge13" class="edge">
<title>Node7&#45;&gt;Node12</title>
<path fill="none" stroke="#191970" d="M1465.8705,-230.3873C1490.1159,-220.2851 1529.417,-203.9096 1556.868,-192.4717"/>
<polygon fill="#191970" stroke="#191970" points="1558.5109,-195.5789 1566.3955,-188.5019 1555.8186,-189.1173 1558.5109,-195.5789"/>
</g>
<!-- Node13 -->
<g id="node14" class="node">
<title>Node13</title>
<polygon fill="#ffffff" stroke="#bfbfbf" points="1665.1309,-170.5 1665.1309,-188.5 1792.8691,-188.5 1792.8691,-170.5 1665.1309,-170.5"/>
<text text-anchor="middle" x="1729" y="-176.5" font-family="FreeSans" font-size="10.00" fill="#000000">boost/concept/assert.hpp</text>
</g>
<!-- Node7&#45;&gt;Node13 -->
<g id="edge14" class="edge">
<title>Node7&#45;&gt;Node13</title>
<path fill="none" stroke="#191970" d="M1486.976,-230.4524C1537.6273,-219.789 1621.786,-202.0714 1676.3182,-190.5909"/>
<polygon fill="#191970" stroke="#191970" points="1677.0766,-194.008 1686.1411,-188.5229 1675.6345,-187.1582 1677.0766,-194.008"/>
</g>
<!-- Node14 -->
<g id="node15" class="node">
<title>Node14</title>
<polygon fill="#ffffff" stroke="#bfbfbf" points="716.6826,-170.5 716.6826,-188.5 853.3174,-188.5 853.3174,-170.5 716.6826,-170.5"/>
<text text-anchor="middle" x="785" y="-176.5" font-family="FreeSans" font-size="10.00" fill="#000000">boost/concept/requires.hpp</text>
</g>
<!-- Node7&#45;&gt;Node14 -->
<g id="edge15" class="edge">
<title>Node7&#45;&gt;Node14</title>
<path fill="none" stroke="#191970" d="M1385.1269,-237.0044C1279.8163,-232.0719 1052.3855,-219.2926 862,-194 854.3201,-192.9797 846.2463,-191.6958 838.334,-190.3159"/>
<polygon fill="#191970" stroke="#191970" points="838.9026,-186.8621 828.4398,-188.5295 837.6588,-193.7507 838.9026,-186.8621"/>
</g>
<!-- Node15 -->
<g id="node16" class="node">
<title>Node15</title>
<polygon fill="#ffffff" stroke="#bfbfbf" points="870.8672,-165.5 870.8672,-193.5 979.1328,-193.5 979.1328,-165.5 870.8672,-165.5"/>
<text text-anchor="start" x="878.8672" y="-181.5" font-family="FreeSans" font-size="10.00" fill="#000000">boost/iterator/iterator</text>
<text text-anchor="middle" x="925" y="-171.5" font-family="FreeSans" font-size="10.00" fill="#000000">_concepts.hpp</text>
</g>
<!-- Node7&#45;&gt;Node15 -->
<g id="edge16" class="edge">
<title>Node7&#45;&gt;Node15</title>
<path fill="none" stroke="#191970" d="M1385.0213,-236.0129C1299.7698,-230.4434 1137.029,-217.8319 989.3633,-194.0903"/>
<polygon fill="#191970" stroke="#191970" points="989.6423,-190.5897 979.2096,-192.4361 988.5166,-197.4986 989.6423,-190.5897"/>
</g>
<!-- Node16 -->
<g id="node17" class="node">
<title>Node16</title>
<polygon fill="#ffffff" stroke="#bfbfbf" points="997.397,-170.5 997.397,-188.5 1144.603,-188.5 1144.603,-170.5 997.397,-170.5"/>
<text text-anchor="middle" x="1071" y="-176.5" font-family="FreeSans" font-size="10.00" fill="#000000">boost/concept_archetype.hpp</text>
</g>
<!-- Node7&#45;&gt;Node16 -->
<g id="edge17" class="edge">
<title>Node7&#45;&gt;Node16</title>
<path fill="none" stroke="#191970" d="M1385.1438,-230.6491C1326.3232,-221.7208 1233.3252,-207.3803 1153,-194 1145.9411,-192.8241 1138.5461,-191.5609 1131.2091,-190.288"/>
<polygon fill="#191970" stroke="#191970" points="1131.7299,-186.8261 1121.2769,-188.5536 1130.5257,-193.7217 1131.7299,-186.8261"/>
</g>
<!-- Node17 -->
<g id="node18" class="node">
<title>Node17</title>
<polygon fill="#ffffff" stroke="#bfbfbf" points="1162.2686,-170.5 1162.2686,-188.5 1207.7314,-188.5 1207.7314,-170.5 1162.2686,-170.5"/>
<text text-anchor="middle" x="1185" y="-176.5" font-family="FreeSans" font-size="10.00" fill="#000000">stdio.h</text>
</g>
<!-- Node7&#45;&gt;Node17 -->
<g id="edge19" class="edge">
<title>Node7&#45;&gt;Node17</title>
<path fill="none" stroke="#191970" d="M1384.7447,-231.409C1338.3828,-224.1778 1272.6648,-211.9313 1217,-194 1215.5486,-193.5325 1214.0755,-193.018 1212.5988,-192.4701"/>
<polygon fill="#191970" stroke="#191970" points="1213.572,-189.0858 1202.9925,-188.5155 1210.9072,-195.5588 1213.572,-189.0858"/>
</g>
<!-- Node18 -->
<g id="node19" class="node">
<title>Node18</title>
<g id="a_node19"><a xlink:href="Config_8h_source.html" target="_top" xlink:title="DGtal/base/Config.h">
<polygon fill="#ffffff" stroke="#ff0000" points="1920.9756,-55.5 1920.9756,-73.5 2027.0244,-73.5 2027.0244,-55.5 1920.9756,-55.5"/>
<text text-anchor="middle" x="1974" y="-61.5" font-family="FreeSans" font-size="10.00" fill="#000000">DGtal/base/Config.h</text>
</a>
</g>
</g>
<!-- Node7&#45;&gt;Node18 -->
<g id="edge20" class="edge">
<title>Node7&#45;&gt;Node18</title>
<path fill="none" stroke="#191970" d="M1502.8909,-239.0681C1638.735,-237.46 1964.9594,-229.8655 1998,-194 2026.41,-163.1611 2001.8036,-110.0544 1985.5569,-82.406"/>
<polygon fill="#191970" stroke="#191970" points="1988.4704,-80.4618 1980.2595,-73.7663 1982.5029,-84.1209 1988.4704,-80.4618"/>
</g>
<!-- Node20 -->
<g id="node20" class="node">
<title>Node20</title>
<g id="a_node20"><a xlink:href="Trace_8h_source.html" target="_top" xlink:title="DGtal/base/Trace.h">
<polygon fill="#ffffff" stroke="#ff0000" points="1886.8311,-170.5 1886.8311,-188.5 1989.1689,-188.5 1989.1689,-170.5 1886.8311,-170.5"/>
<text text-anchor="middle" x="1938" y="-176.5" font-family="FreeSans" font-size="10.00" fill="#000000">DGtal/base/Trace.h</text>
</a>
</g>
</g>
<!-- Node7&#45;&gt;Node20 -->
<g id="edge22" class="edge">
<title>Node7&#45;&gt;Node20</title>
<path fill="none" stroke="#191970" d="M1502.9191,-235.3853C1585.8656,-229.1087 1741.6262,-215.5482 1873,-194 1878.8474,-193.0409 1884.9587,-191.8847 1890.9938,-190.6487"/>
<polygon fill="#191970" stroke="#191970" points="1891.9667,-194.0201 1901.0185,-188.5141 1890.5088,-187.1736 1891.9667,-194.0201"/>
</g>
<!-- Node27 -->
<g id="node21" class="node">
<title>Node27</title>
<g id="a_node21"><a xlink:href="TraceWriterTerm_8h_source.html" target="_top" xlink:title="DGtal/base/TraceWriterTerm.h">
<polygon fill="#ffffff" stroke="#ff0000" points="1636.478,-110.5 1636.478,-128.5 1787.522,-128.5 1787.522,-110.5 1636.478,-110.5"/>
<text text-anchor="middle" x="1712" y="-116.5" font-family="FreeSans" font-size="10.00" fill="#000000">DGtal/base/TraceWriterTerm.h</text>
</a>
</g>
</g>
<!-- Node7&#45;&gt;Node27 -->
<g id="edge30" class="edge">
<title>Node7&#45;&gt;Node27</title>
<path fill="none" stroke="#191970" d="M1503.0092,-236.2037C1599.5646,-230.2013 1782.5866,-216.0369 1802,-194 1810.5199,-184.3287 1808.7518,-175.9789 1802,-165 1792.4931,-149.5409 1775.9295,-139.1411 1759.5825,-132.238"/>
<polygon fill="#191970" stroke="#191970" points="1760.6276,-128.89 1750.0377,-128.5658 1758.114,-135.4232 1760.6276,-128.89"/>
</g>
<!-- Node28 -->
<g id="node22" class="node">
<title>Node28</title>
<g id="a_node22"><a xlink:href="Assert_8h_source.html" target="_top" xlink:title="DGtal/base/Assert.h">
<polygon fill="#ffffff" stroke="#ff0000" points="1805.2588,-110.5 1805.2588,-128.5 1910.7412,-128.5 1910.7412,-110.5 1805.2588,-110.5"/>
<text text-anchor="middle" x="1858" y="-116.5" font-family="FreeSans" font-size="10.00" fill="#000000">DGtal/base/Assert.h</text>
</a>
</g>
</g>
<!-- Node7&#45;&gt;Node28 -->
<g id="edge33" class="edge">
<title>Node7&#45;&gt;Node28</title>
<path fill="none" stroke="#191970" d="M1503.1617,-235.3425C1602.2746,-227.9338 1793.5739,-211.5686 1819,-194 1837.8982,-180.9419 1848.2986,-155.7922 1853.508,-138.3472"/>
<polygon fill="#191970" stroke="#191970" points="1856.8966,-139.2236 1856.1104,-128.6579 1850.1362,-137.4078 1856.8966,-139.2236"/>
</g>
<!-- Node31 -->
<g id="node23" class="node">
<title>Node31</title>
<g id="a_node23"><a xlink:href="TraceWriterFile_8h_source.html" target="_top" xlink:title="DGtal/base/TraceWriterFile.h">
<polygon fill="#ffffff" stroke="#ff0000" points="1482.5322,-55.5 1482.5322,-73.5 1627.4678,-73.5 1627.4678,-55.5 1482.5322,-55.5"/>
<text text-anchor="middle" x="1555" y="-61.5" font-family="FreeSans" font-size="10.00" fill="#000000">DGtal/base/TraceWriterFile.h</text>
</a>
</g>
</g>
<!-- Node7&#45;&gt;Node31 -->
<g id="edge31" class="edge">
<title>Node7&#45;&gt;Node31</title>
<path fill="none" stroke="#191970" d="M1444.9776,-230.4002C1447.7999,-207.8531 1457.7207,-148.4475 1487,-110 1497.1389,-96.6863 1512.3475,-85.9903 1525.8123,-78.3223"/>
<polygon fill="#191970" stroke="#191970" points="1527.6233,-81.3224 1534.7717,-73.5025 1524.307,-75.1578 1527.6233,-81.3224"/>
</g>
<!-- Node32 -->
<g id="node24" class="node">
<title>Node32</title>
<g id="a_node24"><a xlink:href="ConceptUtils_8h_source.html" target="_top" xlink:title="DGtal/base/ConceptUtils.h">
<polygon fill="#ffffff" stroke="#000000" points="2159.084,-170.5 2159.084,-188.5 2292.916,-188.5 2292.916,-170.5 2159.084,-170.5"/>
<text text-anchor="middle" x="2226" y="-176.5" font-family="FreeSans" font-size="10.00" fill="#000000">DGtal/base/ConceptUtils.h</text>
</a>
</g>
</g>
<!-- Node7&#45;&gt;Node32 -->
<g id="edge34" class="edge">
<title>Node7&#45;&gt;Node32</title>
<path fill="none" stroke="#191970" d="M1503.0977,-234.9657C1642.7144,-224.2534 1992.9175,-197.3836 2148.9286,-185.4134"/>
<polygon fill="#191970" stroke="#191970" points="2149.2167,-188.9017 2158.9197,-184.6468 2148.6812,-181.9222 2149.2167,-188.9017"/>
</g>
<!-- Node33 -->
<g id="node25" class="node">
<title>Node33</title>
<g id="a_node25"><a xlink:href="BasicTypes_8h_source.html" target="_top" xlink:title="DGtal/base/BasicTypes.h">
<polygon fill="#ffffff" stroke="#ff0000" points="1660.8599,-55.5 1660.8599,-73.5 1789.1401,-73.5 1789.1401,-55.5 1660.8599,-55.5"/>
<text text-anchor="middle" x="1725" y="-61.5" font-family="FreeSans" font-size="10.00" fill="#000000">DGtal/base/BasicTypes.h</text>
</a>
</g>
</g>
<!-- Node7&#45;&gt;Node33 -->
<g id="edge36" class="edge">
<title>Node7&#45;&gt;Node33</title>
<path fill="none" stroke="#191970" d="M1451.6888,-230.3465C1464.6401,-215.3262 1492.1325,-185.1109 1520,-165 1575.0486,-125.2736 1648.1958,-93.72 1690.5856,-77.1849"/>
<polygon fill="#191970" stroke="#191970" points="1692.0856,-80.3579 1700.1624,-73.5011 1689.5725,-73.8246 1692.0856,-80.3579"/>
</g>
<!-- Node36 -->
<g id="node26" class="node">
<title>Node36</title>
<g id="a_node26"><a xlink:href="BasicFunctors_8h_source.html" target="_top" xlink:title="DGtal/base/BasicFunctors.h">
<polygon fill="#ffffff" stroke="#ff0000" points="520.7515,-170.5 520.7515,-188.5 661.2485,-188.5 661.2485,-170.5 520.7515,-170.5"/>
<text text-anchor="middle" x="591" y="-176.5" font-family="FreeSans" font-size="10.00" fill="#000000">DGtal/base/BasicFunctors.h</text>
</a>
</g>
</g>
<!-- Node7&#45;&gt;Node36 -->
<g id="edge38" class="edge">
<title>Node7&#45;&gt;Node36</title>
<path fill="none" stroke="#191970" d="M1385.1003,-238.3738C1254.8104,-235.3055 933.0422,-224.8505 666,-194 657.3355,-192.999 648.2082,-191.6904 639.4004,-190.2688"/>
<polygon fill="#191970" stroke="#191970" points="639.6968,-186.7695 629.2544,-188.5598 638.5341,-193.6723 639.6968,-186.7695"/>
</g>
<!-- Node41 -->
<g id="node27" class="node">
<title>Node41</title>
<g id="a_node27"><a xlink:href="BasicArchetypes_8h_source.html" target="_top" xlink:title="DGtal/base/BasicArchetypes.h">
<polygon fill="#ffffff" stroke="#000000" points="826.1899,-55.5 826.1899,-73.5 977.8101,-73.5 977.8101,-55.5 826.1899,-55.5"/>
<text text-anchor="middle" x="902" y="-61.5" font-family="FreeSans" font-size="10.00" fill="#000000">DGtal/base/BasicArchetypes.h</text>
</a>
</g>
</g>
<!-- Node7&#45;&gt;Node41 -->
<g id="edge42" class="edge">
<title>Node7&#45;&gt;Node41</title>
<path fill="none" stroke="#191970" d="M1384.8417,-238.1286C1181.5198,-233.2298 521.6628,-215.7243 482,-194 450.9598,-176.9985 446.7268,-162.7265 436,-129 433.4406,-120.9528 430.3264,-116.2545 436,-110 460.9755,-82.4671 688.1811,-71.0502 815.8638,-66.7755"/>
<polygon fill="#191970" stroke="#191970" points="816.132,-70.2687 826.0122,-66.4438 815.9032,-63.2725 816.132,-70.2687"/>
</g>
<!-- Node7&#45;&gt;Node42 -->
<g id="edge44" class="edge">
<title>Node7&#45;&gt;Node42</title>
<path fill="none" stroke="#191970" d="M1502.9841,-238.0232C1689.4637,-233.1664 2264.8624,-216.6928 2450,-194 2457.48,-193.0832 2465.3438,-191.8168 2473.0155,-190.4112"/>
<polygon fill="#191970" stroke="#191970" points="2473.7833,-193.8278 2482.9416,-188.5009 2472.4603,-186.9539 2473.7833,-193.8278"/>
</g>
<!-- Node18&#45;&gt;Node5 -->
<g id="edge21" class="edge">
<title>Node18&#45;&gt;Node5</title>
<path fill="none" stroke="#191970" d="M1959.3035,-55.4179C1945.5186,-46.8992 1924.6722,-34.0166 1908.5651,-24.0627"/>
<polygon fill="#191970" stroke="#191970" points="1910.0651,-20.8753 1899.7184,-18.5956 1906.3852,-26.83 1910.0651,-20.8753"/>
</g>
<!-- Node20&#45;&gt;Node5 -->
<g id="edge23" class="edge">
<title>Node20&#45;&gt;Node5</title>
<path fill="none" stroke="#191970" d="M1935.9032,-170.4378C1932.7626,-157.1081 1926.5073,-131.4709 1920,-110 1911.2332,-81.0735 1899.3777,-48.075 1891.9614,-28.0223"/>
<polygon fill="#191970" stroke="#191970" points="1895.2083,-26.712 1888.4367,-18.5637 1888.649,-29.1564 1895.2083,-26.712"/>
</g>
<!-- Node20&#45;&gt;Node18 -->
<g id="edge24" class="edge">
<title>Node20&#45;&gt;Node18</title>
<path fill="none" stroke="#191970" d="M1940.8249,-170.4761C1946.6581,-151.842 1960.1459,-108.7561 1968.0097,-83.6357"/>
<polygon fill="#191970" stroke="#191970" points="1971.4409,-84.3903 1971.0883,-73.8014 1964.7606,-82.2991 1971.4409,-84.3903"/>
</g>
<!-- Node20&#45;&gt;Node27 -->
<g id="edge25" class="edge">
<title>Node20&#45;&gt;Node27</title>
<path fill="none" stroke="#191970" d="M1903.6755,-170.3873C1864.0382,-159.8641 1798.7617,-142.5341 1755.5746,-131.0685"/>
<polygon fill="#191970" stroke="#191970" points="1756.4704,-127.6851 1745.9071,-128.5019 1754.6741,-134.4507 1756.4704,-127.6851"/>
</g>
<!-- Node20&#45;&gt;Node28 -->
<g id="edge28" class="edge">
<title>Node20&#45;&gt;Node28</title>
<path fill="none" stroke="#191970" d="M1920.8404,-170.3873C1906.6068,-161.1364 1886.9131,-146.625 1873.2376,-135.4618"/>
<polygon fill="#191970" stroke="#191970" points="1875.134,-132.4819 1865.2377,-128.6985 1870.6146,-137.8275 1875.134,-132.4819"/>
</g>
<!-- Node27&#45;&gt;Node5 -->
<g id="edge26" class="edge">
<title>Node27&#45;&gt;Node5</title>
<path fill="none" stroke="#191970" d="M1731.2528,-110.3595C1748.9948,-101.6939 1775.8494,-87.9583 1798,-74 1822.2476,-58.7203 1848.4644,-38.769 1865.7086,-25.1265"/>
<polygon fill="#191970" stroke="#191970" points="1868.2197,-27.6004 1873.8504,-18.6256 1863.852,-22.1302 1868.2197,-27.6004"/>
</g>
<!-- Node27&#45;&gt;Node18 -->
<g id="edge27" class="edge">
<title>Node27&#45;&gt;Node18</title>
<path fill="none" stroke="#191970" d="M1754.9706,-110.4795C1800.3741,-100.9482 1872.0358,-85.9047 1920.9346,-75.6397"/>
<polygon fill="#191970" stroke="#191970" points="1921.9383,-79.0053 1931.0059,-73.5255 1920.5002,-72.1547 1921.9383,-79.0053"/>
</g>
<!-- Node28&#45;&gt;Node20 -->
<g id="edge29" class="edge">
<title>Node28&#45;&gt;Node20</title>
<path fill="none" stroke="#191970" d="M1874.989,-128.5019C1889.3971,-137.8523 1909.482,-152.6619 1923.2274,-163.9183"/>
<polygon fill="#191970" stroke="#191970" points="1920.9677,-166.5911 1930.8591,-170.3873 1925.4939,-161.2513 1920.9677,-166.5911"/>
</g>
<!-- Node31&#45;&gt;Node5 -->
<g id="edge32" class="edge">
<title>Node31&#45;&gt;Node5</title>
<path fill="none" stroke="#191970" d="M1609.1233,-55.4795C1676.3963,-44.2673 1789.4367,-25.4272 1847.7336,-15.7111"/>
<polygon fill="#191970" stroke="#191970" points="1848.332,-19.1597 1857.6205,-14.0633 1847.1811,-12.2549 1848.332,-19.1597"/>
</g>
<!-- Node32&#45;&gt;Node5 -->
<g id="edge35" class="edge">
<title>Node32&#45;&gt;Node5</title>
<path fill="none" stroke="#191970" d="M2223.0101,-170.4572C2214.7647,-147.0508 2189.3273,-84.2719 2145,-55 2109.0324,-31.2485 1985.5305,-17.8347 1922.5623,-12.391"/>
<polygon fill="#191970" stroke="#191970" points="1922.5284,-8.8759 1912.2703,-11.5258 1921.942,-15.8513 1922.5284,-8.8759"/>
</g>
<!-- Node33&#45;&gt;Node5 -->
<g id="edge37" class="edge">
<title>Node33&#45;&gt;Node5</title>
<path fill="none" stroke="#191970" d="M1751.4207,-55.4179C1778.1351,-46.2348 1819.6015,-31.9807 1849.2447,-21.7909"/>
<polygon fill="#191970" stroke="#191970" points="1850.4869,-25.065 1858.8059,-18.5042 1848.2113,-18.4452 1850.4869,-25.065"/>
</g>
<!-- Node36&#45;&gt;Node2 -->
<g id="edge40" class="edge">
<title>Node36&#45;&gt;Node2</title>
<path fill="none" stroke="#191970" d="M572.1671,-170.3873C551.5638,-160.418 518.3348,-144.3394 494.7465,-132.9257"/>
<polygon fill="#191970" stroke="#191970" points="496.13,-129.707 485.6039,-128.5019 493.081,-136.0081 496.13,-129.707"/>
</g>
<!-- Node36&#45;&gt;Node7 -->
<g id="edge41" class="edge">
<title>Node36&#45;&gt;Node7</title>
<path fill="none" stroke="#191970" d="M646.6628,-188.5598C658.9943,-190.6191 671.945,-192.6073 684,-194 937.7876,-223.3192 1241.0035,-234.2174 1374.8361,-237.8608"/>
<polygon fill="#191970" stroke="#191970" points="1374.8572,-241.3625 1384.9472,-238.131 1375.0443,-234.365 1374.8572,-241.3625"/>
</g>
<!-- Node36&#45;&gt;Node9 -->
<g id="edge39" class="edge">
<title>Node36&#45;&gt;Node9</title>
<path fill="none" stroke="#191970" d="M586.7474,-170.3873C582.7592,-161.8412 576.676,-148.8057 571.665,-138.0679"/>
<polygon fill="#191970" stroke="#191970" points="574.6932,-136.2802 567.2926,-128.6985 568.3499,-139.2404 574.6932,-136.2802"/>
</g>
<!-- Node41&#45;&gt;Node5 -->
<g id="edge43" class="edge">
<title>Node41&#45;&gt;Node5</title>
<path fill="none" stroke="#191970" d="M977.9088,-60.2528C1175.8318,-49.1788 1702.3528,-19.7193 1847.4937,-11.5985"/>
<polygon fill="#191970" stroke="#191970" points="1847.8737,-15.0828 1857.6626,-11.0296 1847.4826,-8.0938 1847.8737,-15.0828"/>
</g>
<!-- Node42&#45;&gt;Node5 -->
<g id="edge45" class="edge">
<title>Node42&#45;&gt;Node5</title>
<path fill="none" stroke="#191970" d="M2500.5272,-170.3872C2446.079,-147.6216 2297.7962,-87.7452 2169,-55 2082.1163,-32.9106 1977.4197,-19.4261 1922.6249,-13.3411"/>
<polygon fill="#191970" stroke="#191970" points="1922.6715,-9.8256 1912.3513,-12.2224 1921.9137,-16.7845 1922.6715,-9.8256"/>
</g>
<!-- Node43&#45;&gt;Node5 -->
<g id="edge48" class="edge">
<title>Node43&#45;&gt;Node5</title>
<path fill="none" stroke="#191970" d="M1881.751,-420.4996C1891.0664,-418.6363 1900.8519,-416.7188 1910,-415 2166.7273,-366.7659 2248.0442,-414.8749 2489,-314 2494.7309,-311.6008 2575.2381,-252.9904 2580,-249 2613.8449,-220.638 2651,-223.6574 2651,-179.5 2651,-179.5 2651,-179.5 2651,-119.5 2651,-45.0432 2076.6182,-17.0531 1922.6107,-10.8864"/>
<polygon fill="#191970" stroke="#191970" points="1922.3921,-7.3752 1912.2623,-10.4797 1922.1172,-14.3698 1922.3921,-7.3752"/>
</g>
<!-- Node43&#45;&gt;Node7 -->
<g id="edge49" class="edge">
<title>Node43&#45;&gt;Node7</title>
<path fill="none" stroke="#191970" d="M1824.5959,-420.4945C1810.6523,-410.88 1788.4598,-394.8736 1771,-379 1729.1026,-340.9089 1734.4681,-312.5541 1685,-285 1656.1216,-268.9146 1573.6195,-255.6036 1513.1638,-247.6188"/>
<polygon fill="#191970" stroke="#191970" points="1513.275,-244.1039 1502.9075,-246.287 1512.3736,-251.0457 1513.275,-244.1039"/>
</g>
<!-- Node44 -->
<g id="node30" class="node">
<title>Node44</title>
<g id="a_node30"><a xlink:href="CInteger_8h_source.html" target="_top" xlink:title="DGtal/kernel/CInteger.h">
<polygon fill="#ffffff" stroke="#ff0000" points="1917.749,-355.5 1917.749,-373.5 2038.251,-373.5 2038.251,-355.5 1917.749,-355.5"/>
<text text-anchor="middle" x="1978" y="-361.5" font-family="FreeSans" font-size="10.00" fill="#000000">DGtal/kernel/CInteger.h</text>
</a>
</g>
</g>
<!-- Node43&#45;&gt;Node44 -->
<g id="edge50" class="edge">
<title>Node43&#45;&gt;Node44</title>
<path fill="none" stroke="#191970" d="M1857.4664,-420.462C1881.2584,-409.4158 1921.7273,-390.6266 1949.1433,-377.8977"/>
<polygon fill="#191970" stroke="#191970" points="1950.6514,-381.0565 1958.2476,-373.6708 1947.7036,-374.7074 1950.6514,-381.0565"/>
</g>
<!-- Node57 -->
<g id="node32" class="node">
<title>Node57</title>
<g id="a_node32"><a xlink:href="PointVector_8h_source.html" target="_top" xlink:title="DGtal/kernel/PointVector.h">
<polygon fill="#ffffff" stroke="#ff0000" points="1114.3525,-355.5 1114.3525,-373.5 1247.6475,-373.5 1247.6475,-355.5 1114.3525,-355.5"/>
<text text-anchor="middle" x="1181" y="-361.5" font-family="FreeSans" font-size="10.00" fill="#000000">DGtal/kernel/PointVector.h</text>
</a>
</g>
</g>
<!-- Node43&#45;&gt;Node57 -->
<g id="edge57" class="edge">
<title>Node43&#45;&gt;Node57</title>
<path fill="none" stroke="#191970" d="M1775.2211,-424.3548C1674.0308,-415.9056 1468.6317,-398.1109 1295,-379 1283.0702,-377.6869 1270.4522,-376.1903 1258.1282,-374.6689"/>
<polygon fill="#191970" stroke="#191970" points="1258.2231,-371.1537 1247.8667,-373.3886 1257.3564,-378.0998 1258.2231,-371.1537"/>
</g>
<!-- Node44&#45;&gt;Node5 -->
<g id="edge51" class="edge">
<title>Node44&#45;&gt;Node5</title>
<path fill="none" stroke="#191970" d="M1985.3225,-355.4071C2017.4546,-314.3925 2140.6309,-144.7264 2055,-55 2036.9364,-36.0725 1966.9524,-22.1055 1922.6048,-14.9334"/>
<polygon fill="#191970" stroke="#191970" points="1922.8955,-11.4361 1912.4732,-13.3404 1921.8082,-18.3512 1922.8955,-11.4361"/>
</g>
<!-- Node44&#45;&gt;Node7 -->
<g id="edge52" class="edge">
<title>Node44&#45;&gt;Node7</title>
<path fill="none" stroke="#191970" d="M1979.5318,-355.487C1981.7932,-338.8092 1983.8364,-303.1809 1964,-285 1931.4446,-255.1616 1646.9951,-244.3833 1513.1167,-240.9387"/>
<polygon fill="#191970" stroke="#191970" points="1513.0516,-237.436 1502.967,-240.6842 1512.8761,-244.4338 1513.0516,-237.436"/>
</g>
<!-- Node44&#45;&gt;Node32 -->
<g id="edge53" class="edge">
<title>Node44&#45;&gt;Node32</title>
<path fill="none" stroke="#191970" d="M1996.0982,-355.3329C2014.2996,-345.8357 2042.8995,-330.1455 2066,-314 2121.2258,-275.4014 2180.5084,-222.0411 2208.9125,-195.636"/>
<polygon fill="#191970" stroke="#191970" points="2211.4751,-198.0315 2216.3878,-188.6445 2206.6935,-192.9191 2211.4751,-198.0315"/>
</g>
<!-- Node48 -->
<g id="node31" class="node">
<title>Node48</title>
<g id="a_node31"><a xlink:href="NumberTraits_8h_source.html" target="_top" xlink:title="DGtal/kernel/NumberTraits.h">
<polygon fill="#ffffff" stroke="#ff0000" points="1812.5527,-290.5 1812.5527,-308.5 1955.4473,-308.5 1955.4473,-290.5 1812.5527,-290.5"/>
<text text-anchor="middle" x="1884" y="-296.5" font-family="FreeSans" font-size="10.00" fill="#000000">DGtal/kernel/NumberTraits.h</text>
</a>
</g>
</g>
<!-- Node44&#45;&gt;Node48 -->
<g id="edge54" class="edge">
<title>Node44&#45;&gt;Node48</title>
<path fill="none" stroke="#191970" d="M1964.9297,-355.462C1949.5829,-344.8499 1923.9016,-327.0915 1905.585,-314.4258"/>
<polygon fill="#191970" stroke="#191970" points="1907.4781,-311.4796 1897.2623,-308.6708 1903.4968,-317.2371 1907.4781,-311.4796"/>
</g>
<!-- Node48&#45;&gt;Node5 -->
<g id="edge55" class="edge">
<title>Node48&#45;&gt;Node5</title>
<path fill="none" stroke="#191970" d="M1903.5298,-290.4033C1933.8524,-275.1558 1991.6109,-241.3855 2019,-194 2050.1455,-140.1155 2073.1215,-104.9557 2036,-55 2022.4045,-36.7041 1962.6157,-22.9597 1922.4745,-15.5861"/>
<polygon fill="#191970" stroke="#191970" points="1922.9406,-12.1141 1912.4818,-13.8065 1921.7132,-19.0057 1922.9406,-12.1141"/>
</g>
<!-- Node48&#45;&gt;Node7 -->
<g id="edge56" class="edge">
<title>Node48&#45;&gt;Node7</title>
<path fill="none" stroke="#191970" d="M1833.2652,-290.4909C1821.9981,-288.5891 1810.1045,-286.658 1799,-285 1700.0097,-270.2195 1585.0441,-256.0253 1513.3978,-247.5314"/>
<polygon fill="#191970" stroke="#191970" points="1513.4901,-244.018 1503.1484,-246.3201 1512.6685,-250.9696 1513.4901,-244.018"/>
</g>
<!-- Node57&#45;&gt;Node4 -->
<g id="edge60" class="edge">
<title>Node57&#45;&gt;Node4</title>
<path fill="none" stroke="#191970" d="M1181,-355.462C1181,-346.061 1181,-331.0518 1181,-318.943"/>
<polygon fill="#191970" stroke="#191970" points="1184.5001,-318.8821 1181,-308.8821 1177.5001,-318.8822 1184.5001,-318.8821"/>
</g>
<!-- Node57&#45;&gt;Node5 -->
<g id="edge58" class="edge">
<title>Node57&#45;&gt;Node5</title>
<path fill="none" stroke="#191970" d="M1114.2041,-358.5169C992.3191,-347.4385 742.7663,-323.9554 704,-314 551.3684,-274.8033 356.4513,-256.7002 414,-110 426.1742,-78.9662 434.6648,-68.8234 465,-55 529.6649,-25.533 1628.9295,-12.2441 1847.4185,-9.8877"/>
<polygon fill="#191970" stroke="#191970" points="1847.7597,-13.3844 1857.7217,-9.7777 1847.6849,-6.3848 1847.7597,-13.3844"/>
</g>
<!-- Node57&#45;&gt;Node7 -->
<g id="edge61" class="edge">
<title>Node57&#45;&gt;Node7</title>
<path fill="none" stroke="#191970" d="M1171.9969,-355.3823C1157.359,-339.4597 1131.7785,-306.2584 1150,-285 1164.4799,-268.1068 1292.6668,-253.3409 1374.9286,-245.4922"/>
<polygon fill="#191970" stroke="#191970" points="1375.3427,-248.9688 1384.9705,-244.5465 1374.6864,-241.9996 1375.3427,-248.9688"/>
</g>
<!-- Node57&#45;&gt;Node9 -->
<g id="edge59" class="edge">
<title>Node57&#45;&gt;Node9</title>
<path fill="none" stroke="#191970" d="M1114.1726,-357.7009C959.8702,-340.4827 586.2819,-289.5877 512,-194 496.5993,-174.182 520.4175,-150.0088 540.418,-134.6821"/>
<polygon fill="#191970" stroke="#191970" points="542.6126,-137.4136 548.6304,-128.6937 538.4883,-131.7576 542.6126,-137.4136"/>
</g>
<!-- Node57&#45;&gt;Node48 -->
<g id="edge62" class="edge">
<title>Node57&#45;&gt;Node48</title>
<path fill="none" stroke="#191970" d="M1247.8579,-355.5307C1263.3238,-353.5852 1279.7239,-351.6257 1295,-350 1475.7953,-330.7597 1688.4231,-313.9652 1802.2493,-305.4451"/>
<polygon fill="#191970" stroke="#191970" points="1802.5701,-308.931 1812.2819,-304.6964 1802.0491,-301.9504 1802.5701,-308.931"/>
</g>
<!-- Node64&#45;&gt;Node5 -->
<g id="edge64" class="edge">
<title>Node64&#45;&gt;Node5</title>
<path fill="none" stroke="#191970" d="M141.7908,-482.9059C83.2533,-467.1584 0,-432.7626 0,-364.5 0,-364.5 0,-364.5 0,-119.5 0,-79.4278 26.266,-71.0123 63,-55 147.7132,-18.0737 1595.4675,-10.6505 1847.6803,-9.6355"/>
<polygon fill="#191970" stroke="#191970" points="1847.8146,-13.1351 1857.8007,-9.5957 1847.787,-6.1352 1847.8146,-13.1351"/>
</g>
<!-- Node64&#45;&gt;Node7 -->
<g id="edge65" class="edge">
<title>Node64&#45;&gt;Node7</title>
<path fill="none" stroke="#191970" d="M206.3122,-480.2946C230.4754,-440.5634 305.1702,-328.3773 402,-285 446.3494,-265.1326 1149.2229,-246.5863 1374.8542,-241.1193"/>
<polygon fill="#191970" stroke="#191970" points="1375.0026,-244.6168 1384.9153,-240.8765 1374.8337,-237.6189 1375.0026,-244.6168"/>
</g>
<!-- Node65 -->
<g id="node34" class="node">
<title>Node65</title>
<g id="a_node34"><a xlink:href="ConstAlias_8h_source.html" target="_top" xlink:title="DGtal/base/ConstAlias.h">
<polygon fill="#ffffff" stroke="#ff0000" points="104.5298,-355.5 104.5298,-373.5 229.4702,-373.5 229.4702,-355.5 104.5298,-355.5"/>
<text text-anchor="middle" x="167" y="-361.5" font-family="FreeSans" font-size="10.00" fill="#000000">DGtal/base/ConstAlias.h</text>
</a>
</g>
</g>
<!-- Node64&#45;&gt;Node65 -->
<g id="edge66" class="edge">
<title>Node64&#45;&gt;Node65</title>
<path fill="none" stroke="#191970" d="M200.943,-480.3674C203.724,-464.1964 206.58,-437.0979 200,-415 196.376,-402.8292 188.782,-390.8588 181.7917,-381.6293"/>
<polygon fill="#191970" stroke="#191970" points="184.4155,-379.3068 175.4239,-373.703 178.9584,-383.6909 184.4155,-379.3068"/>
</g>
<!-- Node75 -->
<g id="node36" class="node">
<title>Node75</title>
<g id="a_node36"><a xlink:href="BasicPointPredicates_8h_source.html" target="_top" xlink:title="DGtal/kernel/BasicPointPredicates.h">
<polygon fill="#ffffff" stroke="#ff0000" points="285.4067,-420.5 285.4067,-438.5 462.5933,-438.5 462.5933,-420.5 285.4067,-420.5"/>
<text text-anchor="middle" x="374" y="-426.5" font-family="FreeSans" font-size="10.00" fill="#000000">DGtal/kernel/BasicPointPredicates.h</text>
</a>
</g>
</g>
<!-- Node64&#45;&gt;Node75 -->
<g id="edge72" class="edge">
<title>Node64&#45;&gt;Node75</title>
<path fill="none" stroke="#191970" d="M236.1894,-480.396C267.0722,-468.9904 310.1587,-453.0778 339.8941,-442.0959"/>
<polygon fill="#191970" stroke="#191970" points="341.2615,-445.3221 349.4296,-438.5743 338.8363,-438.7556 341.2615,-445.3221"/>
</g>
<!-- Node81 -->
<g id="node37" class="node">
<title>Node81</title>
<g id="a_node37"><a xlink:href="DomainPredicate_8ih_source.html" target="_top" xlink:title="DGtal/kernel/domains\l/DomainPredicate.ih">
<polygon fill="#ffffff" stroke="#000000" points="78.9238,-415.5 78.9238,-443.5 191.0762,-443.5 191.0762,-415.5 78.9238,-415.5"/>
<text text-anchor="start" x="86.9238" y="-431.5" font-family="FreeSans" font-size="10.00" fill="#000000">DGtal/kernel/domains</text>
<text text-anchor="middle" x="135" y="-421.5" font-family="FreeSans" font-size="10.00" fill="#000000">/DomainPredicate.ih</text>
</a>
</g>
</g>
<!-- Node64&#45;&gt;Node81 -->
<g id="edge76" class="edge">
<title>Node64&#45;&gt;Node81</title>
<path fill="none" stroke="#191970" d="M184.3299,-480.396C175.9917,-471.7931 165.1683,-460.626 155.7849,-450.9448"/>
<polygon fill="#191970" stroke="#191970" points="158.1164,-448.3213 148.6434,-443.5765 153.0899,-453.1931 158.1164,-448.3213"/>
</g>
<!-- Node65&#45;&gt;Node5 -->
<g id="edge67" class="edge">
<title>Node65&#45;&gt;Node5</title>
<path fill="none" stroke="#191970" d="M127.0808,-355.4276C103.4547,-348.0638 74.7642,-335.3032 57,-314 35.1159,-287.7562 38,-273.671 38,-239.5 38,-239.5 38,-239.5 38,-119.5 38,-74.5161 73.8732,-70.7763 116,-55 199.8516,-23.5979 1598.3734,-11.6535 1847.2676,-9.7721"/>
<polygon fill="#191970" stroke="#191970" points="1847.6241,-13.2696 1857.5976,-9.6948 1847.5716,-6.2698 1847.6241,-13.2696"/>
</g>
<!-- Node65&#45;&gt;Node7 -->
<g id="edge68" class="edge">
<title>Node65&#45;&gt;Node7</title>
<path fill="none" stroke="#191970" d="M179.8864,-355.3959C205.5028,-337.8849 265.2591,-299.9257 322,-285 423.3719,-258.334 1146.3162,-244.3594 1374.9003,-240.5724"/>
<polygon fill="#191970" stroke="#191970" points="1375.1444,-244.069 1385.0855,-240.405 1375.0293,-237.0699 1375.1444,-244.069"/>
</g>
<!-- Node66 -->
<g id="node35" class="node">
<title>Node66</title>
<g id="a_node35"><a xlink:href="CountedPtr_8h_source.html" target="_top" xlink:title="DGtal/base/CountedPtr.h">
<polygon fill="#ffffff" stroke="#ff0000" points="66.4092,-290.5 66.4092,-308.5 193.5908,-308.5 193.5908,-290.5 66.4092,-290.5"/>
<text text-anchor="middle" x="130" y="-296.5" font-family="FreeSans" font-size="10.00" fill="#000000">DGtal/base/CountedPtr.h</text>
</a>
</g>
</g>
<!-- Node65&#45;&gt;Node66 -->
<g id="edge69" class="edge">
<title>Node65&#45;&gt;Node66</title>
<path fill="none" stroke="#191970" d="M161.8553,-355.462C156.3401,-345.7732 147.4342,-330.1276 140.4393,-317.8393"/>
<polygon fill="#191970" stroke="#191970" points="143.3294,-315.8413 135.3406,-308.8821 137.2459,-319.3043 143.3294,-315.8413"/>
</g>
<!-- Node66&#45;&gt;Node5 -->
<g id="edge70" class="edge">
<title>Node66&#45;&gt;Node5</title>
<path fill="none" stroke="#191970" d="M127.7775,-290.2277C123.1695,-270.1627 113,-221.1619 113,-179.5 113,-179.5 113,-179.5 113,-119.5 113,-88.9131 112.1114,-72.7795 137,-55 173.0527,-29.2453 1597.828,-12.6168 1847.7672,-9.8951"/>
<polygon fill="#191970" stroke="#191970" points="1847.841,-13.3946 1857.8025,-9.7865 1847.7651,-6.395 1847.841,-13.3946"/>
</g>
<!-- Node66&#45;&gt;Node7 -->
<g id="edge71" class="edge">
<title>Node66&#45;&gt;Node7</title>
<path fill="none" stroke="#191970" d="M193.6242,-292.7218C221.3549,-289.9713 254.2576,-286.982 284,-285 697.5235,-257.4428 1195.1703,-244.7991 1374.9829,-240.8906"/>
<polygon fill="#191970" stroke="#191970" points="1375.1703,-244.3875 1385.0926,-240.6728 1375.0195,-237.3891 1375.1703,-244.3875"/>
</g>
<!-- Node75&#45;&gt;Node5 -->
<g id="edge73" class="edge">
<title>Node75&#45;&gt;Node5</title>
<path fill="none" stroke="#191970" d="M359.8642,-420.4931C333.6379,-403.0754 277.2759,-362.2132 246,-314 182.7847,-216.5507 117.8891,-124.4471 211,-55 244.925,-29.6969 1602.793,-12.7729 1847.4374,-9.9261"/>
<polygon fill="#191970" stroke="#191970" points="1847.6433,-13.424 1857.6021,-9.8084 1847.5623,-6.4245 1847.6433,-13.424"/>
</g>
<!-- Node75&#45;&gt;Node7 -->
<g id="edge74" class="edge">
<title>Node75&#45;&gt;Node7</title>
<path fill="none" stroke="#191970" d="M374.3951,-420.3673C376.0793,-394.061 384.907,-317.9047 431,-285 469.346,-257.6256 1152.0997,-244.2143 1374.5594,-240.5576"/>
<polygon fill="#191970" stroke="#191970" points="1374.8587,-244.0533 1384.8004,-240.3908 1374.7447,-237.0542 1374.8587,-244.0533"/>
</g>
<!-- Node75&#45;&gt;Node65 -->
<g id="edge75" class="edge">
<title>Node75&#45;&gt;Node65</title>
<path fill="none" stroke="#191970" d="M345.2175,-420.462C308.8617,-409.0459 246.1691,-389.3599 205.6619,-376.6402"/>
<polygon fill="#191970" stroke="#191970" points="206.4602,-373.2224 195.8709,-373.5658 204.363,-379.9009 206.4602,-373.2224"/>
</g>
<!-- Node82&#45;&gt;Node5 -->
<g id="edge78" class="edge">
<title>Node82&#45;&gt;Node5</title>
<path fill="none" stroke="#191970" d="M1668.1688,-491.2947C1790.0593,-484.0334 2075.4626,-465.2951 2170,-444 2333.103,-407.2602 2376.5065,-394.5733 2523,-314 2543.8003,-302.5596 2689,-203.2389 2689,-179.5 2689,-179.5 2689,-179.5 2689,-119.5 2689,-44.8846 2606.6135,-72.1677 2534,-55 2416.4972,-27.2192 2042.6011,-14.1056 1922.5179,-10.537"/>
<polygon fill="#191970" stroke="#191970" points="1922.4509,-7.0336 1912.3528,-10.2398 1922.2463,-14.0306 1922.4509,-7.0336"/>
</g>
<!-- Node82&#45;&gt;Node7 -->
<g id="edge79" class="edge">
<title>Node82&#45;&gt;Node7</title>
<path fill="none" stroke="#191970" d="M1612.3598,-480.3612C1612.2646,-463.9479 1610.4942,-436.3966 1601,-415 1569.8172,-344.7252 1499.7219,-282.9895 1464.7141,-255.1719"/>
<polygon fill="#191970" stroke="#191970" points="1466.6503,-252.2431 1456.6149,-248.8458 1462.3414,-257.7598 1466.6503,-252.2431"/>
</g>
<!-- Node82&#45;&gt;Node48 -->
<g id="edge96" class="edge">
<title>Node82&#45;&gt;Node48</title>
<path fill="none" stroke="#191970" d="M1631.5616,-480.4761C1681.2033,-444.8873 1811.7522,-351.2953 1862.96,-314.5838"/>
<polygon fill="#191970" stroke="#191970" points="1865.203,-317.2823 1871.291,-308.6112 1861.1244,-311.5933 1865.203,-317.2823"/>
</g>
<!-- Node82&#45;&gt;Node75 -->
<g id="edge86" class="edge">
<title>Node82&#45;&gt;Node75</title>
<path fill="none" stroke="#191970" d="M1555.5887,-491.5382C1361.6172,-481.3539 720.415,-447.6882 472.7895,-434.6868"/>
<polygon fill="#191970" stroke="#191970" points="472.8911,-431.1875 462.7213,-434.1582 472.524,-438.1778 472.8911,-431.1875"/>
</g>
<!-- Node83 -->
<g id="node39" class="node">
<title>Node83</title>
<g id="a_node39"><a xlink:href="CSpace_8h_source.html" target="_top" xlink:title="DGtal/kernel/CSpace.h">
<polygon fill="#ffffff" stroke="#ff0000" points="1918.8647,-420.5 1918.8647,-438.5 2037.1353,-438.5 2037.1353,-420.5 1918.8647,-420.5"/>
<text text-anchor="middle" x="1978" y="-426.5" font-family="FreeSans" font-size="10.00" fill="#000000">DGtal/kernel/CSpace.h</text>
</a>
</g>
</g>
<!-- Node82&#45;&gt;Node83 -->
<g id="edge80" class="edge">
<title>Node82&#45;&gt;Node83</title>
<path fill="none" stroke="#191970" d="M1668.1488,-485.7099C1728.1495,-476.1474 1825.9906,-460.0677 1910,-444 1915.4834,-442.9512 1921.205,-441.8081 1926.8998,-440.639"/>
<polygon fill="#191970" stroke="#191970" points="1927.9882,-443.9875 1937.064,-438.5213 1926.5603,-437.1347 1927.9882,-443.9875"/>
</g>
<!-- Node85 -->
<g id="node40" class="node">
<title>Node85</title>
<g id="a_node40"><a xlink:href="CDomain_8h_source.html" target="_top" xlink:title="DGtal/kernel/domains\l/CDomain.h">
<polygon fill="#ffffff" stroke="#ff0000" points="2367.9238,-285.5 2367.9238,-313.5 2480.0762,-313.5 2480.0762,-285.5 2367.9238,-285.5"/>
<text text-anchor="start" x="2375.9238" y="-301.5" font-family="FreeSans" font-size="10.00" fill="#000000">DGtal/kernel/domains</text>
<text text-anchor="middle" x="2424" y="-291.5" font-family="FreeSans" font-size="10.00" fill="#000000">/CDomain.h</text>
</a>
</g>
</g>
<!-- Node82&#45;&gt;Node85 -->
<g id="edge87" class="edge">
<title>Node82&#45;&gt;Node85</title>
<path fill="none" stroke="#191970" d="M1668.3889,-491.2563C1781.6235,-484.3487 2032.926,-466.9259 2116,-444 2222.5687,-414.5903 2337.9504,-350.9411 2392.29,-318.8415"/>
<polygon fill="#191970" stroke="#191970" points="2394.2922,-321.7229 2401.0944,-313.6 2390.7114,-315.708 2394.2922,-321.7229"/>
</g>
<!-- Node86 -->
<g id="node41" class="node">
<title>Node86</title>
<g id="a_node41"><a xlink:href="HyperRectDomain__Iterator_8h_source.html" target="_top" xlink:title="DGtal/kernel/domains\l/HyperRectDomain_Iterator.h">
<polygon fill="#ffffff" stroke="#000000" points="1304.2466,-350.5 1304.2466,-378.5 1449.7534,-378.5 1449.7534,-350.5 1304.2466,-350.5"/>
<text text-anchor="start" x="1312.2466" y="-366.5" font-family="FreeSans" font-size="10.00" fill="#000000">DGtal/kernel/domains</text>
<text text-anchor="middle" x="1377" y="-356.5" font-family="FreeSans" font-size="10.00" fill="#000000">/HyperRectDomain_Iterator.h</text>
</a>
</g>
</g>
<!-- Node82&#45;&gt;Node86 -->
<g id="edge92" class="edge">
<title>Node82&#45;&gt;Node86</title>
<path fill="none" stroke="#191970" d="M1609.5071,-480.4645C1605.5804,-462.5691 1596.2135,-431.9242 1576,-415 1558.0818,-399.9976 1506.3081,-387.1146 1460.0632,-378.116"/>
<polygon fill="#191970" stroke="#191970" points="1460.4664,-374.63 1449.9883,-376.1986 1459.1576,-381.5066 1460.4664,-374.63"/>
</g>
<!-- Node61 -->
<g id="node42" class="node">
<title>Node61</title>
<g id="a_node42"><a xlink:href="CConstBidirectionalRange_8h_source.html" target="_top" xlink:title="DGtal/base/CConstBidirectional\lRange.h">
<polygon fill="#ffffff" stroke="#ff0000" points="2193.6899,-285.5 2193.6899,-313.5 2350.3101,-313.5 2350.3101,-285.5 2193.6899,-285.5"/>
<text text-anchor="start" x="2201.6899" y="-301.5" font-family="FreeSans" font-size="10.00" fill="#000000">DGtal/base/CConstBidirectional</text>
<text text-anchor="middle" x="2272" y="-291.5" font-family="FreeSans" font-size="10.00" fill="#000000">Range.h</text>
</a>
</g>
</g>
<!-- Node82&#45;&gt;Node61 -->
<g id="edge97" class="edge">
<title>Node82&#45;&gt;Node61</title>
<path fill="none" stroke="#191970" d="M1668.2653,-492.3566C1751.7699,-488.1908 1912.9589,-476.3569 2046,-444 2125.4063,-424.6876 2153.8301,-429.6018 2218,-379 2237.1242,-363.9194 2251.9958,-340.1896 2261.2469,-322.577"/>
<polygon fill="#191970" stroke="#191970" points="2264.4376,-324.0223 2265.7994,-313.5153 2258.1826,-320.8798 2264.4376,-324.0223"/>
</g>
<!-- Node87 -->
<g id="node43" class="node">
<title>Node87</title>
<g id="a_node43"><a xlink:href="HyperRectDomain_8ih_source.html" target="_top" xlink:title="DGtal/kernel/domains\l/HyperRectDomain.ih">
<polygon fill="#ffffff" stroke="#000000" points="1454.9238,-415.5 1454.9238,-443.5 1567.0762,-443.5 1567.0762,-415.5 1454.9238,-415.5"/>
<text text-anchor="start" x="1462.9238" y="-431.5" font-family="FreeSans" font-size="10.00" fill="#000000">DGtal/kernel/domains</text>
<text text-anchor="middle" x="1511" y="-421.5" font-family="FreeSans" font-size="10.00" fill="#000000">/HyperRectDomain.ih</text>
</a>
</g>
</g>
<!-- Node82&#45;&gt;Node87 -->
<g id="edge101" class="edge">
<title>Node82&#45;&gt;Node87</title>
<path fill="none" stroke="#191970" d="M1590.0845,-480.396C1575.9228,-471.282 1557.2893,-459.2902 1541.6667,-449.236"/>
<polygon fill="#191970" stroke="#191970" points="1543.176,-446.0452 1532.8727,-443.5765 1539.3877,-451.9315 1543.176,-446.0452"/>
</g>
<!-- Node83&#45;&gt;Node5 -->
<g id="edge81" class="edge">
<title>Node83&#45;&gt;Node5</title>
<path fill="none" stroke="#191970" d="M1997.0185,-420.3902C2012.7819,-411.8612 2034.5512,-397.641 2047,-379 2114.534,-277.8738 2119.9961,-229.4091 2097,-110 2092.0213,-84.1476 2094.9199,-72.2144 2075,-55 2052.4058,-35.4745 1971.0063,-21.2834 1922.3846,-14.3257"/>
<polygon fill="#191970" stroke="#191970" points="1922.635,-10.8268 1912.2473,-12.9118 1921.6679,-17.7597 1922.635,-10.8268"/>
</g>
<!-- Node83&#45;&gt;Node7 -->
<g id="edge82" class="edge">
<title>Node83&#45;&gt;Node7</title>
<path fill="none" stroke="#191970" d="M1962.4482,-420.4842C1910.2873,-390.3018 1743.349,-294.1842 1717,-285 1649.9393,-261.6253 1569.3143,-250.0748 1513.1408,-244.4865"/>
<polygon fill="#191970" stroke="#191970" points="1513.2333,-240.9795 1502.9453,-243.511 1512.5665,-247.9477 1513.2333,-240.9795"/>
</g>
<!-- Node83&#45;&gt;Node32 -->
<g id="edge83" class="edge">
<title>Node83&#45;&gt;Node32</title>
<path fill="none" stroke="#191970" d="M2012.8048,-420.4661C2057.9893,-408.483 2132.2526,-387.82 2142,-379 2149.1891,-372.4949 2199.3846,-246.8078 2218.5691,-198.3391"/>
<polygon fill="#191970" stroke="#191970" points="2221.9375,-199.3385 2222.3577,-188.752 2215.4274,-196.7658 2221.9375,-199.3385"/>
</g>
<!-- Node83&#45;&gt;Node44 -->
<g id="edge84" class="edge">
<title>Node83&#45;&gt;Node44</title>
<path fill="none" stroke="#191970" d="M1978,-420.462C1978,-411.061 1978,-396.0518 1978,-383.943"/>
<polygon fill="#191970" stroke="#191970" points="1981.5001,-383.8821 1978,-373.8821 1974.5001,-383.8822 1981.5001,-383.8821"/>
</g>
<!-- Node83&#45;&gt;Node48 -->
<g id="edge85" class="edge">
<title>Node83&#45;&gt;Node48</title>
<path fill="none" stroke="#191970" d="M1959.5973,-420.349C1944.0048,-411.7047 1922.1441,-397.3403 1909,-379 1896.0021,-360.8637 1889.5918,-335.7276 1886.5492,-318.607"/>
<polygon fill="#191970" stroke="#191970" points="1889.9985,-318.01 1885.0007,-308.668 1883.082,-319.0877 1889.9985,-318.01"/>
</g>
<!-- Node85&#45;&gt;Node5 -->
<g id="edge88" class="edge">
<title>Node85&#45;&gt;Node5</title>
<path fill="none" stroke="#191970" d="M2470.2871,-285.4739C2533.5601,-263.8946 2634.8126,-219.3024 2594,-165 2511.6233,-55.3954 2057.0063,-19.7687 1922.4986,-11.5478"/>
<polygon fill="#191970" stroke="#191970" points="1922.4793,-8.0405 1912.2888,-10.9392 1922.0628,-15.0281 1922.4793,-8.0405"/>
</g>
<!-- Node85&#45;&gt;Node7 -->
<g id="edge90" class="edge">
<title>Node85&#45;&gt;Node7</title>
<path fill="none" stroke="#191970" d="M2367.7353,-286.3352C2364.7892,-285.8382 2361.8644,-285.3878 2359,-285 2195.7078,-262.8897 1697.3049,-246.7631 1513.2505,-241.4189"/>
<polygon fill="#191970" stroke="#191970" points="1513.2499,-237.9176 1503.153,-241.1274 1513.0478,-244.9147 1513.2499,-237.9176"/>
</g>
<!-- Node85&#45;&gt;Node11 -->
<g id="edge89" class="edge">
<title>Node85&#45;&gt;Node11</title>
<path fill="none" stroke="#191970" d="M2418.3053,-285.2632C2409.6091,-263.5228 2393.0188,-222.0469 2383.4005,-198.0012"/>
<polygon fill="#191970" stroke="#191970" points="2386.6004,-196.5767 2379.6367,-188.5918 2380.101,-199.1765 2386.6004,-196.5767"/>
</g>
<!-- Node85&#45;&gt;Node32 -->
<g id="edge91" class="edge">
<title>Node85&#45;&gt;Node32</title>
<path fill="none" stroke="#191970" d="M2400.8994,-285.4996C2363.0943,-262.5875 2288.3856,-217.3095 2250.0026,-194.047"/>
<polygon fill="#191970" stroke="#191970" points="2251.4375,-190.8241 2241.0714,-188.6342 2247.8093,-196.8105 2251.4375,-190.8241"/>
</g>
<!-- Node86&#45;&gt;Node4 -->
<g id="edge94" class="edge">
<title>Node86&#45;&gt;Node4</title>
<path fill="none" stroke="#191970" d="M1329.0709,-350.4287C1297.1153,-340.7887 1254.2897,-327.372 1217,-314 1215.3866,-313.4215 1213.7385,-312.8147 1212.0783,-312.1911"/>
<polygon fill="#191970" stroke="#191970" points="1213.1872,-308.8672 1202.5983,-308.5137 1210.6556,-315.3934 1213.1872,-308.8672"/>
</g>
<!-- Node86&#45;&gt;Node5 -->
<g id="edge93" class="edge">
<title>Node86&#45;&gt;Node5</title>
<path fill="none" stroke="#191970" d="M1354.2075,-350.4931C1323.2395,-332.184 1265.5751,-300.616 1212,-285 1047.4292,-237.0312 575.2557,-306.5945 446,-194 417.2787,-168.9809 404.0277,-138.7619 429,-110 543.1866,21.5144 643.5633,-70.9481 817,-55 1219.5523,-17.9838 1710.2854,-11.0184 1847.6905,-9.7642"/>
<polygon fill="#191970" stroke="#191970" points="1847.7331,-13.2641 1857.7023,-9.6774 1847.6723,-6.2643 1847.7331,-13.2641"/>
</g>
<!-- Node86&#45;&gt;Node7 -->
<g id="edge95" class="edge">
<title>Node86&#45;&gt;Node7</title>
<path fill="none" stroke="#191970" d="M1384.6858,-350.1609C1396.9449,-327.2893 1420.9066,-282.5847 1434.3183,-257.5628"/>
<polygon fill="#191970" stroke="#191970" points="1437.4101,-259.2032 1439.0495,-248.736 1431.2405,-255.8962 1437.4101,-259.2032"/>
</g>
<!-- Node61&#45;&gt;Node7 -->
<g id="edge98" class="edge">
<title>Node61&#45;&gt;Node7</title>
<path fill="none" stroke="#191970" d="M2193.3573,-293.8013C2032.0604,-282.1131 1666.1319,-255.5965 1513.2,-244.5145"/>
<polygon fill="#191970" stroke="#191970" points="1513.2276,-241.0074 1503.0007,-243.7754 1512.7216,-247.9891 1513.2276,-241.0074"/>
</g>
<!-- Node61&#45;&gt;Node11 -->
<g id="edge99" class="edge">
<title>Node61&#45;&gt;Node11</title>
<path fill="none" stroke="#191970" d="M2284.3386,-285.2632C2303.6027,-263.0354 2340.7465,-220.1771 2361.3442,-196.4105"/>
<polygon fill="#191970" stroke="#191970" points="2364.216,-198.441 2368.1204,-188.5918 2358.9262,-193.8564 2364.216,-198.441"/>
</g>
<!-- Node61&#45;&gt;Node32 -->
<g id="edge100" class="edge">
<title>Node61&#45;&gt;Node32</title>
<path fill="none" stroke="#191970" d="M2266.5426,-285.2632C2258.2087,-263.5228 2242.3097,-222.0469 2233.0921,-198.0012"/>
<polygon fill="#191970" stroke="#191970" points="2236.3327,-196.6765 2229.4852,-188.5918 2229.7965,-199.1821 2236.3327,-196.6765"/>
</g>
<!-- Node88&#45;&gt;Node5 -->
<g id="edge103" class="edge">
<title>Node88&#45;&gt;Node5</title>
<path fill="none" stroke="#191970" d="M1211.2972,-603.2748C1385.1171,-586.5587 1857.7096,-535.6365 2242,-444 2331.6839,-422.6143 2354.4179,-415.6935 2439,-379 2537.6302,-336.2121 2558.8659,-315.9341 2643,-249 2680.919,-218.833 2727,-227.9551 2727,-179.5 2727,-179.5 2727,-179.5 2727,-119.5 2727,-61.2858 2668.8058,-71.5712 2613,-55 2546.5962,-35.2817 2061.905,-16.0321 1922.4431,-10.854"/>
<polygon fill="#191970" stroke="#191970" points="1922.382,-7.3494 1912.2597,-10.4782 1922.1237,-14.3447 1922.382,-7.3494"/>
</g>
<!-- Node88&#45;&gt;Node7 -->
<g id="edge110" class="edge">
<title>Node88&#45;&gt;Node7</title>
<path fill="none" stroke="#191970" d="M1211.1258,-606.089C1279.9514,-601.2327 1380.0057,-589.8483 1408,-564 1458.2112,-517.6378 1425.9261,-480.3273 1446,-415 1450.9967,-398.7391 1456.0672,-395.7565 1459,-379 1461.2221,-366.3041 1459.8688,-362.8596 1459,-350 1456.8218,-317.7605 1451.1077,-280.5891 1447.3943,-258.621"/>
<polygon fill="#191970" stroke="#191970" points="1450.8186,-257.882 1445.6642,-248.6255 1443.9211,-259.076 1450.8186,-257.882"/>
</g>
<!-- Node88&#45;&gt;Node66 -->
<g id="edge111" class="edge">
<title>Node88&#45;&gt;Node66</title>
<path fill="none" stroke="#191970" d="M1074.8053,-608.7564C875.926,-605.6509 300.0919,-589.7352 133,-509 87.716,-487.1198 60.4892,-464.3855 70,-415 77.291,-377.1407 101.5167,-338.4399 116.8641,-316.8374"/>
<polygon fill="#191970" stroke="#191970" points="119.7515,-318.8183 122.8228,-308.6784 114.0985,-314.6898 119.7515,-318.8183"/>
</g>
<!-- Node89 -->
<g id="node45" class="node">
<title>Node89</title>
<g id="a_node45"><a xlink:href="Board_8h_source.html" target="_top" xlink:title="Board/Board.h">
<polygon fill="#ffffff" stroke="#ff0000" points="871.7563,-355.5 871.7563,-373.5 952.2437,-373.5 952.2437,-355.5 871.7563,-355.5"/>
<text text-anchor="middle" x="912" y="-361.5" font-family="FreeSans" font-size="10.00" fill="#000000">Board/Board.h</text>
</a>
</g>
</g>
<!-- Node88&#45;&gt;Node89 -->
<g id="edge104" class="edge">
<title>Node88&#45;&gt;Node89</title>
<path fill="none" stroke="#191970" d="M1123.8604,-600.4424C1106.9158,-592.0368 1081.8625,-578.6448 1062,-564 1033.4068,-542.918 1026.5978,-536.411 1004,-509 969.3087,-466.9196 937.1108,-410.9798 921.6349,-382.6285"/>
<polygon fill="#191970" stroke="#191970" points="924.7103,-380.9575 916.8816,-373.8188 918.5498,-384.2815 924.7103,-380.9575"/>
</g>
<!-- Node91 -->
<g id="node46" class="node">
<title>Node91</title>
<g id="a_node46"><a xlink:href="Color_8h_source.html" target="_top" xlink:title="DGtal/io/Color.h">
<polygon fill="#ffffff" stroke="#ff0000" points="439.7046,-290.5 439.7046,-308.5 526.2954,-308.5 526.2954,-290.5 439.7046,-290.5"/>
<text text-anchor="middle" x="483" y="-296.5" font-family="FreeSans" font-size="10.00" fill="#000000">DGtal/io/Color.h</text>
</a>
</g>
</g>
<!-- Node88&#45;&gt;Node91 -->
<g id="edge112" class="edge">
<title>Node88&#45;&gt;Node91</title>
<path fill="none" stroke="#191970" d="M1074.8014,-604.6093C957.4979,-594.3055 730,-565.2077 730,-494.5 730,-494.5 730,-494.5 730,-429.5 730,-383.4283 593.7293,-334.0763 523.6227,-311.7349"/>
<polygon fill="#191970" stroke="#191970" points="524.3728,-308.3018 513.7833,-308.6382 522.2713,-314.9789 524.3728,-308.3018"/>
</g>
<!-- Node110 -->
<g id="node47" class="node">
<title>Node110</title>
<g id="a_node47"><a xlink:href="Display2DFactory_8h_source.html" target="_top" xlink:title="Header file for module Display2DFactory. ">
<polygon fill="#ffffff" stroke="#ff0000" points="1071.2925,-545.5 1071.2925,-563.5 1212.7075,-563.5 1212.7075,-545.5 1071.2925,-545.5"/>
<text text-anchor="middle" x="1142" y="-551.5" font-family="FreeSans" font-size="10.00" fill="#000000">DGtal/io/Display2DFactory.h</text>
</a>
</g>
</g>
<!-- Node88&#45;&gt;Node110 -->
<g id="edge113" class="edge">
<title>Node88&#45;&gt;Node110</title>
<path fill="none" stroke="#191970" d="M1142.8349,-600.4179C1142.7039,-593.2164 1142.5163,-582.8962 1142.3521,-573.8632"/>
<polygon fill="#191970" stroke="#191970" points="1145.85,-573.7141 1142.1687,-563.7795 1138.8512,-573.8415 1145.85,-573.7141"/>
</g>
<!-- Node317 -->
<g id="node49" class="node">
<title>Node317</title>
<g id="a_node49"><a xlink:href="Style2DFactory_8h_source.html" target="_top" xlink:title="Header file for module Style2DFactory. ">
<polygon fill="#ffffff" stroke="#ff0000" points="1268.5708,-545.5 1268.5708,-563.5 1399.4292,-563.5 1399.4292,-545.5 1268.5708,-545.5"/>
<text text-anchor="middle" x="1334" y="-551.5" font-family="FreeSans" font-size="10.00" fill="#000000">DGtal/io/Style2DFactory.h</text>
</a>
</g>
</g>
<!-- Node88&#45;&gt;Node317 -->
<g id="edge123" class="edge">
<title>Node88&#45;&gt;Node317</title>
<path fill="none" stroke="#191970" d="M1174.5398,-600.4179C1206.8459,-591.115 1257.2248,-576.608 1292.6945,-566.3943"/>
<polygon fill="#191970" stroke="#191970" points="1294.0898,-569.6348 1302.7308,-563.5042 1292.1528,-562.9081 1294.0898,-569.6348"/>
</g>
<!-- Node89&#45;&gt;Node4 -->
<g id="edge105" class="edge">
<title>Node89&#45;&gt;Node4</title>
<path fill="none" stroke="#191970" d="M949.4033,-355.462C1002.64,-342.5982 1099.333,-319.2337 1149.266,-307.1681"/>
<polygon fill="#191970" stroke="#191970" points="1150.2808,-310.5237 1159.1789,-304.7728 1148.6366,-303.7195 1150.2808,-310.5237"/>
</g>
<!-- Node89&#45;&gt;Node91 -->
<g id="edge106" class="edge">
<title>Node89&#45;&gt;Node91</title>
<path fill="none" stroke="#191970" d="M871.5681,-360.5407C802.9862,-353.4841 659.6387,-337.259 540,-314 535.2984,-313.086 530.4061,-312.0201 525.5509,-310.8887"/>
<polygon fill="#191970" stroke="#191970" points="526.253,-307.4576 515.7098,-308.502 524.6031,-314.2604 526.253,-307.4576"/>
</g>
<!-- Node91&#45;&gt;Node5 -->
<g id="edge107" class="edge">
<title>Node91&#45;&gt;Node5</title>
<path fill="none" stroke="#191970" d="M453.2981,-290.4236C396.1121,-272.2828 274.2929,-230.1804 251,-194 217.5586,-142.0561 207.9288,-99.2873 251,-55 279.7717,-25.4159 1605.9488,-12.0234 1847.4663,-9.8278"/>
<polygon fill="#191970" stroke="#191970" points="1847.5426,-13.3273 1857.5107,-9.7373 1847.4795,-6.3276 1847.5426,-13.3273"/>
</g>
<!-- Node91&#45;&gt;Node7 -->
<g id="edge108" class="edge">
<title>Node91&#45;&gt;Node7</title>
<path fill="none" stroke="#191970" d="M526.4737,-296.7857C678.6844,-287.2824 1188.4344,-255.4562 1374.9122,-243.8135"/>
<polygon fill="#191970" stroke="#191970" points="1375.3749,-247.2915 1385.1374,-243.1751 1374.9387,-240.3051 1375.3749,-247.2915"/>
</g>
<!-- Node91&#45;&gt;Node9 -->
<g id="edge109" class="edge">
<title>Node91&#45;&gt;Node9</title>
<path fill="none" stroke="#191970" d="M479.5533,-290.1742C471.6329,-267.0424 454.6132,-205.9441 479,-165 488.9325,-148.3239 507.3387,-137.3858 524.3953,-130.4246"/>
<polygon fill="#191970" stroke="#191970" points="526.0569,-133.5408 534.2078,-126.7722 523.615,-126.9805 526.0569,-133.5408"/>
</g>
<!-- Node110&#45;&gt;Node7 -->
<g id="edge114" class="edge">
<title>Node110&#45;&gt;Node7</title>
<path fill="none" stroke="#191970" d="M1121.5239,-545.4398C1086.3044,-528.3023 1018,-487.579 1018,-429.5 1018,-429.5 1018,-429.5 1018,-364.5 1018,-310.7953 1060.1067,-307.2181 1109,-285 1155.038,-264.0794 1290.8751,-250.7078 1374.7662,-244.201"/>
<polygon fill="#191970" stroke="#191970" points="1375.2767,-247.6724 1384.9818,-243.4226 1374.7448,-240.6926 1375.2767,-247.6724"/>
</g>
<!-- Node110&#45;&gt;Node57 -->
<g id="edge116" class="edge">
<title>Node110&#45;&gt;Node57</title>
<path fill="none" stroke="#191970" d="M1147.9779,-545.2402C1159.4525,-526.8501 1184.2067,-484.0354 1193,-444 1197.4766,-423.618 1192.6323,-399.929 1187.8268,-383.7466"/>
<polygon fill="#191970" stroke="#191970" points="1191.0388,-382.3055 1184.6212,-373.8755 1184.3811,-384.4676 1191.0388,-382.3055"/>
</g>
<!-- Node110&#45;&gt;Node82 -->
<g id="edge115" class="edge">
<title>Node110&#45;&gt;Node82</title>
<path fill="none" stroke="#191970" d="M1212.618,-545.4849C1302.715,-533.9832 1457.3963,-514.2366 1545.4813,-502.9917"/>
<polygon fill="#191970" stroke="#191970" points="1546.1466,-506.4353 1555.6229,-501.6971 1545.2602,-499.4917 1546.1466,-506.4353"/>
</g>
<!-- Node110&#45;&gt;Node225 -->
<g id="edge117" class="edge">
<title>Node110&#45;&gt;Node225</title>
<path fill="none" stroke="#191970" d="M1139.9706,-545.1047C1135.8348,-525.9573 1126.3141,-481.8799 1120.2964,-454.0202"/>
<polygon fill="#191970" stroke="#191970" points="1123.6384,-452.9147 1118.1059,-443.8791 1116.7962,-454.3927 1123.6384,-452.9147"/>
</g>
<!-- Node225&#45;&gt;Node5 -->
<g id="edge118" class="edge">
<title>Node225&#45;&gt;Node5</title>
<path fill="none" stroke="#191970" d="M1045.9846,-424.429C920.8173,-413.7975 649.1335,-384.0986 431,-314 293.0529,-269.6698 119.8378,-145.4924 233,-55 265.6019,-28.9292 1604.929,-12.6491 1847.5259,-9.9113"/>
<polygon fill="#191970" stroke="#191970" points="1847.6503,-13.4103 1857.6104,-9.7982 1847.5717,-6.4107 1847.6503,-13.4103"/>
</g>
<!-- Node225&#45;&gt;Node7 -->
<g id="edge119" class="edge">
<title>Node225&#45;&gt;Node7</title>
<path fill="none" stroke="#191970" d="M1111.4532,-415.461C1109.0974,-405.3886 1106.2211,-391.4529 1105,-379 1100.6495,-334.633 1103.5296,-310.6373 1140,-285 1176.8204,-259.1166 1297.0982,-247.5886 1374.869,-242.7357"/>
<polygon fill="#191970" stroke="#191970" points="1375.304,-246.2159 1385.0758,-242.1217 1374.8836,-239.2286 1375.304,-246.2159"/>
</g>
<!-- Node225&#45;&gt;Node44 -->
<g id="edge121" class="edge">
<title>Node225&#45;&gt;Node44</title>
<path fill="none" stroke="#191970" d="M1183.8014,-424.318C1344.6898,-412.2001 1744.169,-382.1118 1907.1051,-369.8397"/>
<polygon fill="#191970" stroke="#191970" points="1907.7815,-373.2988 1917.4903,-369.0575 1907.2556,-366.3185 1907.7815,-373.2988"/>
</g>
<!-- Node225&#45;&gt;Node57 -->
<g id="edge120" class="edge">
<title>Node225&#45;&gt;Node57</title>
<path fill="none" stroke="#191970" d="M1129.321,-415.396C1139.6936,-405.1805 1153.7373,-391.3496 1164.567,-380.6841"/>
<polygon fill="#191970" stroke="#191970" points="1167.1171,-383.0849 1171.7861,-373.5743 1162.2053,-378.0975 1167.1171,-383.0849"/>
</g>
<!-- Node225&#45;&gt;Node91 -->
<g id="edge122" class="edge">
<title>Node225&#45;&gt;Node91</title>
<path fill="none" stroke="#191970" d="M1094.1884,-415.3626C1065.5889,-396.7523 1011.8798,-364.6818 961,-350 780.5678,-297.9349 725.175,-345.2536 540,-314 534.9688,-313.1508 529.7301,-312.0808 524.5565,-310.9083"/>
<polygon fill="#191970" stroke="#191970" points="525.2999,-307.4874 514.7593,-308.5587 523.6673,-314.2944 525.2999,-307.4874"/>
</g>
<!-- Node317&#45;&gt;Node57 -->
<g id="edge125" class="edge">
<title>Node317&#45;&gt;Node57</title>
<path fill="none" stroke="#191970" d="M1328.9932,-545.4407C1320.8928,-531.0616 1304.089,-502.3552 1287,-480 1258.1465,-442.2549 1219.356,-402.2818 1197.5963,-380.6693"/>
<polygon fill="#191970" stroke="#191970" points="1199.9787,-378.1032 1190.4,-373.5757 1195.0647,-383.0884 1199.9787,-378.1032"/>
</g>
<!-- Node317&#45;&gt;Node82 -->
<g id="edge124" class="edge">
<title>Node317&#45;&gt;Node82</title>
<path fill="none" stroke="#191970" d="M1375.9204,-545.4524C1420.9502,-535.7338 1493.1293,-520.1555 1545.8358,-508.78"/>
<polygon fill="#191970" stroke="#191970" points="1546.7348,-512.1667 1555.7713,-506.6357 1545.258,-505.3242 1546.7348,-512.1667"/>
</g>
<!-- Node317&#45;&gt;Node225 -->
<g id="edge126" class="edge">
<title>Node317&#45;&gt;Node225</title>
<path fill="none" stroke="#191970" d="M1326.6304,-545.4515C1313.6457,-530.038 1285.1938,-498.5594 1255,-480 1231.8748,-465.7855 1204.1529,-454.7331 1179.5013,-446.6412"/>
<polygon fill="#191970" stroke="#191970" points="1180.4551,-443.2718 1169.8646,-443.5748 1178.3325,-449.9423 1180.4551,-443.2718"/>
</g>
<!-- Node222&#45;&gt;Node5 -->
<g id="edge129" class="edge">
<title>Node222&#45;&gt;Node5</title>
<path fill="none" stroke="#191970" d="M2700.5134,-285.4042C2714.1012,-276.4973 2730.3512,-263.8723 2741,-249 2760.0246,-222.43 2765,-212.1788 2765,-179.5 2765,-179.5 2765,-179.5 2765,-119.5 2765,-88.9131 2765.6456,-73.1149 2741,-55 2707.5922,-30.4448 2083.5242,-14.158 1922.6005,-10.3547"/>
<polygon fill="#191970" stroke="#191970" points="1922.3334,-6.8476 1912.2541,-10.1124 1922.1694,-13.8457 1922.3334,-6.8476"/>
</g>
<!-- Node222&#45;&gt;Node7 -->
<g id="edge130" class="edge">
<title>Node222&#45;&gt;Node7</title>
<path fill="none" stroke="#191970" d="M2612.421,-294.0329C2576.2592,-291.0582 2530.1166,-287.4885 2489,-285 2121.4788,-262.7565 1680.6099,-247.2059 1513.1171,-241.6994"/>
<polygon fill="#191970" stroke="#191970" points="1513.0686,-238.196 1502.9593,-241.3668 1512.8394,-245.1923 1513.0686,-238.196"/>
</g>
</g>
</svg>
        <g id="navigator" transform="translate(0 0)" fill="#404254">
                <rect fill="#f2f5e9" fill-opacity="0.5" stroke="#606060" stroke-width=".5" x="0" y="0" width="60" height="60"/>
                <use id="zoomplus" xlink:href="#zoomPlus" x="17" y="9" onmousedown="handleZoom(evt,'in')"/>
                <use id="zoomminus" xlink:href="#zoomMin" x="42" y="9" onmousedown="handleZoom(evt,'out')"/>
                <use id="reset" xlink:href="#resetDef" x="30" y="36" onmousedown="handleReset()"/>
                <g id="arrowUp" xlink:href="#dirArrow" transform="translate(30 24)" onmousedown="handlePan(0,-1)">
                  <use xlink:href="#rim" fill="#404040">
                        <set attributeName="fill" to="#808080" begin="arrowUp.mouseover" end="arrowUp.mouseout"/>
                  </use>
                  <path fill="none" stroke="white" stroke-width="1.5" d="M0,-3.0v7 M-2.5,-0.5L0,-3.0L2.5,-0.5"/>
                </g>
                <g id="arrowRight" xlink:href="#dirArrow" transform="rotate(90) translate(36 -43)" onmousedown="handlePan(1,0)">
                  <use xlink:href="#rim" fill="#404040">
                        <set attributeName="fill" to="#808080" begin="arrowRight.mouseover" end="arrowRight.mouseout"/>
                  </use>
                  <path fill="none" stroke="white" stroke-width="1.5" d="M0,-3.0v7 M-2.5,-0.5L0,-3.0L2.5,-0.5"/>
                </g>
                <g id="arrowDown" xlink:href="#dirArrow" transform="rotate(180) translate(-30 -48)" onmousedown="handlePan(0,1)">
                  <use xlink:href="#rim" fill="#404040">
                        <set attributeName="fill" to="#808080" begin="arrowDown.mouseover" end="arrowDown.mouseout"/>
                  </use>
                  <path fill="none" stroke="white" stroke-width="1.5" d="M0,-3.0v7 M-2.5,-0.5L0,-3.0L2.5,-0.5"/>
                </g>
                <g id="arrowLeft" xlink:href="#dirArrow" transform="rotate(270) translate(-36 17)" onmousedown="handlePan(-1,0)">
                  <use xlink:href="#rim" fill="#404040">
                        <set attributeName="fill" to="#808080" begin="arrowLeft.mouseover" end="arrowLeft.mouseout"/>
                  </use>
                  <path fill="none" stroke="white" stroke-width="1.5" d="M0,-3.0v7 M-2.5,-0.5L0,-3.0L2.5,-0.5"/>
                </g>
        </g>
        <svg viewBox="0 0 15 15" width="100%" height="30px" preserveAspectRatio="xMaxYMin meet">
         <g id="arrow_out" transform="scale(0.3 0.3)">
          <a xlink:href="testHalfPlane_8cpp__incl_org.svg" target="_base">
           <rect id="button" ry="5" rx="5" y="6" x="6" height="38" width="38"
                fill="#f2f5e9" fill-opacity="0.5" stroke="#606060" stroke-width="1.0"/>
           <path id="arrow"
             d="M 11.500037,31.436501 C 11.940474,20.09759 22.043105,11.32322 32.158766,21.979434 L 37.068811,17.246167 C 37.068811,17.246167 37.088388,32 37.088388,32 L 22.160133,31.978069 C 22.160133,31.978069 26.997745,27.140456 26.997745,27.140456 C 18.528582,18.264221 13.291696,25.230495 11.500037,31.436501 z"
             style="fill:#404040;"/>
          </a>
         </g>
        </svg>
</svg>
