<?xml version="1.0" encoding="UTF-8" standalone="no"?>
<!DOCTYPE svg PUBLIC "-//W3C//DTD SVG 1.1//EN"
 "http://www.w3.org/Graphics/SVG/1.1/DTD/svg11.dtd">
<!-- Generated by graphviz version 2.40.1 (20161225.0304)
 -->
<!-- Title: testHashTree.cpp Pages: 1 -->
<!--zoomable 682 -->
<svg id="main" version="1.1" xmlns="http://www.w3.org/2000/svg" xmlns:xlink="http://www.w3.org/1999/xlink" xml:space="preserve" onload="init(evt)">
<style type="text/css"><![CDATA[
.edge:hover path { stroke: red; }
.edge:hover polygon { stroke: red; fill: red; }
]]></style>
<script type="text/javascript"><![CDATA[
var edges = document.getElementsByTagName('g');
if (edges && edges.length) {
  for (var i=0;i<edges.length;i++) {
    if (edges[i].id.substr(0,4)=='edge') {
      edges[i].setAttribute('class','edge');
    }
  }
}
]]></script>
        <defs>
                <circle id="rim" cx="0" cy="0" r="7"/>
                <circle id="rim2" cx="0" cy="0" r="3.5"/>
                <g id="zoomPlus">
                        <use xlink:href="#rim" fill="#404040">
                                <set attributeName="fill" to="#808080" begin="zoomplus.mouseover" end="zoomplus.mouseout"/>
                        </use>
                        <path d="M-4,0h8M0,-4v8" fill="none" stroke="white" stroke-width="1.5" pointer-events="none"/>
                </g>
                <g id="zoomMin">
                        <use xlink:href="#rim" fill="#404040">
                                <set attributeName="fill" to="#808080" begin="zoomminus.mouseover" end="zoomminus.mouseout"/>
                        </use>
                        <path d="M-4,0h8" fill="none" stroke="white" stroke-width="1.5" pointer-events="none"/>
                </g>
                <g id="dirArrow">
                        <path fill="none" stroke="white" stroke-width="1.5" d="M0,-3.0v7 M-2.5,-0.5L0,-3.0L2.5,-0.5"/>
                </g>
               <g id="resetDef">
                       <use xlink:href="#rim2" fill="#404040">
                               <set attributeName="fill" to="#808080" begin="reset.mouseover" end="reset.mouseout"/>
                       </use>
               </g>
        </defs>

<script type="text/javascript">
var viewWidth = 2900;
var viewHeight = 682;
var sectionId = 'dynsection-0';
</script>
<script xlink:href="svgpan.js"/>
<svg id="graph" class="graph">
<g id="viewport">
<title>testHashTree.cpp</title>
<polygon fill="#ffffff" stroke="transparent" points="-4,4 -4,-678 2896.4088,-678 2896.4088,4 -4,4"/>
<!-- Node0 -->
<g id="node1" class="node">
<title>Node0</title>
<polygon fill="#bfbfbf" stroke="#000000" points="1148.7202,-655.5 1148.7202,-673.5 1243.2798,-673.5 1243.2798,-655.5 1148.7202,-655.5"/>
<text text-anchor="middle" x="1196" y="-661.5" font-family="FreeSans" font-size="10.00" fill="#000000">testHashTree.cpp</text>
</g>
<!-- Node1 -->
<g id="node2" class="node">
<title>Node1</title>
<polygon fill="#ffffff" stroke="#bfbfbf" points="1129.8276,-.5 1129.8276,-18.5 1184.1724,-18.5 1184.1724,-.5 1129.8276,-.5"/>
<text text-anchor="middle" x="1157" y="-6.5" font-family="FreeSans" font-size="10.00" fill="#000000">iostream</text>
</g>
<!-- Node0&#45;&gt;Node1 -->
<g id="edge1" class="edge">
<title>Node0&#45;&gt;Node1</title>
<path fill="none" stroke="#191970" d="M1148.3773,-662.6612C925.9357,-653.7655 0,-613.2101 0,-554.5 0,-554.5 0,-554.5 0,-119.5 0,-81.5364 21.7921,-71.4637 56,-55 104.907,-31.4619 932.5389,-13.8959 1119.6211,-10.2146"/>
<polygon fill="#191970" stroke="#191970" points="1119.8522,-13.7108 1129.7818,-10.0159 1119.7153,-6.7122 1119.8522,-13.7108"/>
</g>
<!-- Node2 -->
<g id="node3" class="node">
<title>Node2</title>
<g id="a_node3"><a xlink:href="Common_8h_source.html" target="_top" xlink:title="DGtal/base/Common.h">
<polygon fill="#ffffff" stroke="#000000" points="1321.1455,-230.5 1321.1455,-248.5 1438.8545,-248.5 1438.8545,-230.5 1321.1455,-230.5"/>
<text text-anchor="middle" x="1380" y="-236.5" font-family="FreeSans" font-size="10.00" fill="#000000">DGtal/base/Common.h</text>
</a>
</g>
</g>
<!-- Node0&#45;&gt;Node2 -->
<g id="edge2" class="edge">
<title>Node0&#45;&gt;Node2</title>
<path fill="none" stroke="#191970" d="M1188.0102,-655.3513C1173.9881,-638.6162 1145.447,-601.3461 1135,-564 1132.7251,-555.8677 1131.1863,-552.5342 1135,-545 1147.2044,-520.8893 1169.0578,-531.5167 1184,-509 1204.0871,-478.7302 1203,-465.8284 1203,-429.5 1203,-429.5 1203,-429.5 1203,-364.5 1203,-301.5916 1278.5238,-267.5324 1330.905,-251.4753"/>
<polygon fill="#191970" stroke="#191970" points="1332.1102,-254.7693 1340.718,-248.5922 1330.1368,-248.0532 1332.1102,-254.7693"/>
</g>
<!-- Node39 -->
<g id="node25" class="node">
<title>Node39</title>
<g id="a_node25"><a xlink:href="Board2D_8h_source.html" target="_top" xlink:title="DGtal/io/boards/Board2D.h">
<polygon fill="#ffffff" stroke="#000000" points="1495.9683,-600.5 1495.9683,-618.5 1632.0317,-618.5 1632.0317,-600.5 1495.9683,-600.5"/>
<text text-anchor="middle" x="1564" y="-606.5" font-family="FreeSans" font-size="10.00" fill="#000000">DGtal/io/boards/Board2D.h</text>
</a>
</g>
</g>
<!-- Node0&#45;&gt;Node39 -->
<g id="edge41" class="edge">
<title>Node0&#45;&gt;Node39</title>
<path fill="none" stroke="#191970" d="M1243.3562,-657.4223C1306.8566,-647.9318 1420.0994,-631.0069 1493.6042,-620.0211"/>
<polygon fill="#191970" stroke="#191970" points="1494.3303,-623.4516 1503.703,-618.5118 1493.2955,-616.5285 1494.3303,-623.4516"/>
</g>
<!-- Node222 -->
<g id="node30" class="node">
<title>Node222</title>
<g id="a_node30"><a xlink:href="HyperRectDomain_8h_source.html" target="_top" xlink:title="DGtal/kernel/domains\l/HyperRectDomain.h">
<polygon fill="#ffffff" stroke="#ff0000" points="779.9238,-415.5 779.9238,-443.5 892.0762,-443.5 892.0762,-415.5 779.9238,-415.5"/>
<text text-anchor="start" x="787.9238" y="-431.5" font-family="FreeSans" font-size="10.00" fill="#000000">DGtal/kernel/domains</text>
<text text-anchor="middle" x="836" y="-421.5" font-family="FreeSans" font-size="10.00" fill="#000000">/HyperRectDomain.h</text>
</a>
</g>
</g>
<!-- Node0&#45;&gt;Node222 -->
<g id="edge136" class="edge">
<title>Node0&#45;&gt;Node222</title>
<path fill="none" stroke="#191970" d="M1148.4465,-659.9213C1080.5039,-652.8307 959.4928,-638.0067 920,-619 854.2142,-587.3392 827.6723,-575.7063 798,-509 789.2641,-489.3608 801.5651,-467.3308 814.4421,-451.4507"/>
<polygon fill="#191970" stroke="#191970" points="817.2112,-453.5997 821.12,-443.7523 811.9234,-449.0129 817.2112,-453.5997"/>
</g>
<!-- Node229 -->
<g id="node36" class="node">
<title>Node229</title>
<g id="a_node36"><a xlink:href="ImageContainerByHashTree_8h_source.html" target="_top" xlink:title="DGtal/images/ImageContainer\lByHashTree.h">
<polygon fill="#ffffff" stroke="#ff0000" points="1347.7466,-480.5 1347.7466,-508.5 1498.2534,-508.5 1498.2534,-480.5 1347.7466,-480.5"/>
<text text-anchor="start" x="1355.7466" y="-496.5" font-family="FreeSans" font-size="10.00" fill="#000000">DGtal/images/ImageContainer</text>
<text text-anchor="middle" x="1423" y="-486.5" font-family="FreeSans" font-size="10.00" fill="#000000">ByHashTree.h</text>
</a>
</g>
</g>
<!-- Node0&#45;&gt;Node229 -->
<g id="edge137" class="edge">
<title>Node0&#45;&gt;Node229</title>
<path fill="none" stroke="#191970" d="M1205.0752,-655.3859C1226.2684,-634.38 1281.1595,-581.5655 1333,-545 1349.5535,-533.324 1369.0403,-522.1112 1385.6405,-513.2298"/>
<polygon fill="#191970" stroke="#191970" points="1387.3127,-516.3049 1394.5289,-508.5475 1384.0501,-510.1117 1387.3127,-516.3049"/>
</g>
<!-- Node115 -->
<g id="node37" class="node">
<title>Node115</title>
<g id="a_node37"><a xlink:href="SpaceND_8h_source.html" target="_top" xlink:title="DGtal/kernel/SpaceND.h">
<polygon fill="#ffffff" stroke="#000000" points="948.2539,-420.5 948.2539,-438.5 1073.7461,-438.5 1073.7461,-420.5 948.2539,-420.5"/>
<text text-anchor="middle" x="1011" y="-426.5" font-family="FreeSans" font-size="10.00" fill="#000000">DGtal/kernel/SpaceND.h</text>
</a>
</g>
</g>
<!-- Node0&#45;&gt;Node115 -->
<g id="edge135" class="edge">
<title>Node0&#45;&gt;Node115</title>
<path fill="none" stroke="#191970" d="M1152.5032,-655.4971C1115.2645,-646.9779 1065.4407,-633.3832 1051,-619 1004.5818,-572.7666 1005.6507,-487.1358 1008.8105,-448.8613"/>
<polygon fill="#191970" stroke="#191970" points="1012.324,-448.8911 1009.808,-438.5994 1005.3568,-448.2138 1012.324,-448.8911"/>
</g>
<!-- Node240 -->
<g id="node39" class="node">
<title>Node240</title>
<g id="a_node39"><a xlink:href="ImageContainerBySTLVector_8h_source.html" target="_top" xlink:title="DGtal/images/ImageContainer\lBySTLVector.h">
<polygon fill="#ffffff" stroke="#ff0000" points="1024.7466,-480.5 1024.7466,-508.5 1175.2534,-508.5 1175.2534,-480.5 1024.7466,-480.5"/>
<text text-anchor="start" x="1032.7466" y="-496.5" font-family="FreeSans" font-size="10.00" fill="#000000">DGtal/images/ImageContainer</text>
<text text-anchor="middle" x="1100" y="-486.5" font-family="FreeSans" font-size="10.00" fill="#000000">BySTLVector.h</text>
</a>
</g>
</g>
<!-- Node0&#45;&gt;Node240 -->
<g id="edge138" class="edge">
<title>Node0&#45;&gt;Node240</title>
<path fill="none" stroke="#191970" d="M1153.3005,-655.4183C1118.9326,-647.1407 1074.6602,-633.9503 1064,-619 1044.9057,-592.2215 1053.9777,-576.3246 1064,-545 1067.2631,-534.8011 1073.4241,-524.9049 1079.7389,-516.6155"/>
<polygon fill="#191970" stroke="#191970" points="1082.6561,-518.5762 1086.2603,-508.6133 1077.2297,-514.1541 1082.6561,-518.5762"/>
</g>
<!-- Node297 -->
<g id="node40" class="node">
<title>Node297</title>
<g id="a_node40"><a xlink:href="StdDefs_8h_source.html" target="_top" xlink:title="DGtal/helpers/StdDefs.h">
<polygon fill="#ffffff" stroke="#ff0000" points="807.0864,-485.5 807.0864,-503.5 930.9136,-503.5 930.9136,-485.5 807.0864,-485.5"/>
<text text-anchor="middle" x="869" y="-491.5" font-family="FreeSans" font-size="10.00" fill="#000000">DGtal/helpers/StdDefs.h</text>
</a>
</g>
</g>
<!-- Node0&#45;&gt;Node297 -->
<g id="edge139" class="edge">
<title>Node0&#45;&gt;Node297</title>
<path fill="none" stroke="#191970" d="M1148.5473,-660.533C1085.2435,-654.4676 977.3707,-641.195 945,-619 907.0174,-592.9572 884.6461,-541.0863 874.8739,-513.2258"/>
<polygon fill="#191970" stroke="#191970" points="878.1211,-511.899 871.6413,-503.5167 871.4795,-514.1103 878.1211,-511.899"/>
</g>
<!-- Node314 -->
<g id="node42" class="node">
<title>Node314</title>
<g id="a_node42"><a xlink:href="GradientColorMap_8h_source.html" target="_top" xlink:title="DGtal/io/colormaps\l/GradientColorMap.h">
<polygon fill="#ffffff" stroke="#000000" points="1802.5889,-415.5 1802.5889,-443.5 1911.4111,-443.5 1911.4111,-415.5 1802.5889,-415.5"/>
<text text-anchor="start" x="1810.5889" y="-431.5" font-family="FreeSans" font-size="10.00" fill="#000000">DGtal/io/colormaps</text>
<text text-anchor="middle" x="1857" y="-421.5" font-family="FreeSans" font-size="10.00" fill="#000000">/GradientColorMap.h</text>
</a>
</g>
</g>
<!-- Node0&#45;&gt;Node314 -->
<g id="edge128" class="edge">
<title>Node0&#45;&gt;Node314</title>
<path fill="none" stroke="#191970" d="M1243.3227,-663.282C1342.8623,-660.1374 1570.5201,-649.718 1641,-619 1728.9505,-580.6676 1806.6609,-492.98 1839.8796,-451.7275"/>
<polygon fill="#191970" stroke="#191970" points="1842.8045,-453.6724 1846.2805,-443.664 1837.3218,-449.3202 1842.8045,-453.6724"/>
</g>
<!-- Node316 -->
<g id="node44" class="node">
<title>Node316</title>
<g id="a_node44"><a xlink:href="HueShadeColorMap_8h_source.html" target="_top" xlink:title="DGtal/io/colormaps\l/HueShadeColorMap.h">
<polygon fill="#ffffff" stroke="#000000" points="1982.1357,-415.5 1982.1357,-443.5 2099.8643,-443.5 2099.8643,-415.5 1982.1357,-415.5"/>
<text text-anchor="start" x="1990.1357" y="-431.5" font-family="FreeSans" font-size="10.00" fill="#000000">DGtal/io/colormaps</text>
<text text-anchor="middle" x="2041" y="-421.5" font-family="FreeSans" font-size="10.00" fill="#000000">/HueShadeColorMap.h</text>
</a>
</g>
</g>
<!-- Node0&#45;&gt;Node316 -->
<g id="edge121" class="edge">
<title>Node0&#45;&gt;Node316</title>
<path fill="none" stroke="#191970" d="M1243.3194,-662.25C1347.231,-656.9411 1592.4295,-642.3004 1672,-619 1807.4233,-579.3443 1951.7134,-489.3782 2011.9618,-449.3481"/>
<polygon fill="#191970" stroke="#191970" points="2014.1994,-452.0621 2020.5634,-443.5916 2010.3061,-446.2447 2014.1994,-452.0621"/>
</g>
<!-- Node320 -->
<g id="node47" class="node">
<title>Node320</title>
<g id="a_node47"><a xlink:href="GrayscaleColorMap_8h_source.html" target="_top" xlink:title="DGtal/io/colormaps\l/GrayscaleColorMap.h">
<polygon fill="#ffffff" stroke="#000000" points="2659.2588,-415.5 2659.2588,-443.5 2774.7412,-443.5 2774.7412,-415.5 2659.2588,-415.5"/>
<text text-anchor="start" x="2667.2588" y="-431.5" font-family="FreeSans" font-size="10.00" fill="#000000">DGtal/io/colormaps</text>
<text text-anchor="middle" x="2717" y="-421.5" font-family="FreeSans" font-size="10.00" fill="#000000">/GrayscaleColorMap.h</text>
</a>
</g>
</g>
<!-- Node0&#45;&gt;Node320 -->
<g id="edge122" class="edge">
<title>Node0&#45;&gt;Node320</title>
<path fill="none" stroke="#191970" d="M1243.5377,-662.6485C1342.2253,-658.3851 1576.3545,-646.0906 1771,-619 2103.3819,-572.7394 2494.9269,-482.8198 2649.4477,-445.9126"/>
<polygon fill="#191970" stroke="#191970" points="2650.3692,-449.291 2659.2798,-443.5593 2648.7397,-442.4833 2650.3692,-449.291"/>
</g>
<!-- Node322 -->
<g id="node49" class="node">
<title>Node322</title>
<g id="a_node49"><a xlink:href="ColorBrightnessColorMap_8h_source.html" target="_top" xlink:title="DGtal/io/colormaps\l/ColorBrightnessColorMap.h">
<polygon fill="#ffffff" stroke="#000000" points="2382.1948,-415.5 2382.1948,-443.5 2523.8052,-443.5 2523.8052,-415.5 2382.1948,-415.5"/>
<text text-anchor="start" x="2390.1948" y="-431.5" font-family="FreeSans" font-size="10.00" fill="#000000">DGtal/io/colormaps</text>
<text text-anchor="middle" x="2453" y="-421.5" font-family="FreeSans" font-size="10.00" fill="#000000">/ColorBrightnessColorMap.h</text>
</a>
</g>
</g>
<!-- Node0&#45;&gt;Node322 -->
<g id="edge129" class="edge">
<title>Node0&#45;&gt;Node322</title>
<path fill="none" stroke="#191970" d="M1243.2847,-662.8985C1334.5107,-659.2431 1540.9107,-648.2207 1712,-619 1972.9888,-574.4251 2276.9534,-484.3253 2398.6155,-446.6597"/>
<polygon fill="#191970" stroke="#191970" points="2399.9266,-449.9175 2408.439,-443.6096 2397.8509,-443.2324 2399.9266,-449.9175"/>
</g>
<!-- Node2&#45;&gt;Node1 -->
<g id="edge3" class="edge">
<title>Node2&#45;&gt;Node1</title>
<path fill="none" stroke="#191970" d="M1381.8494,-230.38C1385.8303,-208.7557 1393.7145,-152.9665 1379,-110 1369.0351,-80.9023 1362.6743,-71.9353 1337,-55 1293.4681,-26.2855 1233.0658,-15.6923 1194.504,-11.7844"/>
<polygon fill="#191970" stroke="#191970" points="1194.515,-8.271 1184.2389,-10.8499 1193.8804,-15.2422 1194.515,-8.271"/>
</g>
<!-- Node3 -->
<g id="node4" class="node">
<title>Node3</title>
<polygon fill="#ffffff" stroke="#bfbfbf" points="1641.5962,-170.5 1641.5962,-188.5 1700.4038,-188.5 1700.4038,-170.5 1641.5962,-170.5"/>
<text text-anchor="middle" x="1671" y="-176.5" font-family="FreeSans" font-size="10.00" fill="#000000">exception</text>
</g>
<!-- Node2&#45;&gt;Node3 -->
<g id="edge4" class="edge">
<title>Node2&#45;&gt;Node3</title>
<path fill="none" stroke="#191970" d="M1438.8949,-231.1384C1489.4734,-223.3778 1564.1168,-210.5397 1628,-194 1630.7886,-193.278 1633.6577,-192.4665 1636.5275,-191.6058"/>
<polygon fill="#191970" stroke="#191970" points="1637.6968,-194.9068 1646.1713,-188.5481 1635.5811,-188.2342 1637.6968,-194.9068"/>
</g>
<!-- Node4 -->
<g id="node5" class="node">
<title>Node4</title>
<polygon fill="#ffffff" stroke="#bfbfbf" points="2311.436,-110.5 2311.436,-128.5 2368.564,-128.5 2368.564,-110.5 2311.436,-110.5"/>
<text text-anchor="middle" x="2340" y="-116.5" font-family="FreeSans" font-size="10.00" fill="#000000">algorithm</text>
</g>
<!-- Node2&#45;&gt;Node4 -->
<g id="edge5" class="edge">
<title>Node2&#45;&gt;Node4</title>
<path fill="none" stroke="#191970" d="M1439.05,-237.856C1633.5052,-232.2677 2243.5814,-213.2775 2281,-194 2304.527,-181.8793 2321.7351,-155.6973 2331.3057,-137.8347"/>
<polygon fill="#191970" stroke="#191970" points="2334.5467,-139.1815 2335.9386,-128.6785 2328.3008,-136.0211 2334.5467,-139.1815"/>
</g>
<!-- Node5 -->
<g id="node6" class="node">
<title>Node5</title>
<polygon fill="#ffffff" stroke="#bfbfbf" points="1877.5298,-170.5 1877.5298,-188.5 1972.4702,-188.5 1972.4702,-170.5 1877.5298,-170.5"/>
<text text-anchor="middle" x="1925" y="-176.5" font-family="FreeSans" font-size="10.00" fill="#000000">boost/version.hpp</text>
</g>
<!-- Node2&#45;&gt;Node5 -->
<g id="edge6" class="edge">
<title>Node2&#45;&gt;Node5</title>
<path fill="none" stroke="#191970" d="M1438.9821,-236.9759C1531.1213,-232.3656 1714.5579,-220.503 1868,-194 1873.0279,-193.1316 1878.2646,-192.0497 1883.4371,-190.8709"/>
<polygon fill="#191970" stroke="#191970" points="1884.3289,-194.2563 1893.2332,-188.5149 1882.692,-187.4503 1884.3289,-194.2563"/>
</g>
<!-- Node6 -->
<g id="node7" class="node">
<title>Node6</title>
<polygon fill="#ffffff" stroke="#bfbfbf" points="560.2935,-170.5 560.2935,-188.5 689.7065,-188.5 689.7065,-170.5 560.2935,-170.5"/>
<text text-anchor="middle" x="625" y="-176.5" font-family="FreeSans" font-size="10.00" fill="#000000">boost/concept_check.hpp</text>
</g>
<!-- Node2&#45;&gt;Node6 -->
<g id="edge7" class="edge">
<title>Node2&#45;&gt;Node6</title>
<path fill="none" stroke="#191970" d="M1320.999,-238.074C1202.6055,-234.6584 927.8143,-223.9389 699,-194 691.5989,-193.0316 683.8238,-191.7753 676.2086,-190.4074"/>
<polygon fill="#191970" stroke="#191970" points="676.8076,-186.9589 666.3344,-188.5597 675.52,-193.8394 676.8076,-186.9589"/>
</g>
<!-- Node7 -->
<g id="node8" class="node">
<title>Node7</title>
<polygon fill="#ffffff" stroke="#bfbfbf" points="1990.5815,-170.5 1990.5815,-188.5 2109.4185,-188.5 2109.4185,-170.5 1990.5815,-170.5"/>
<text text-anchor="middle" x="2050" y="-176.5" font-family="FreeSans" font-size="10.00" fill="#000000">boost/static_assert.hpp</text>
</g>
<!-- Node2&#45;&gt;Node7 -->
<g id="edge8" class="edge">
<title>Node2&#45;&gt;Node7</title>
<path fill="none" stroke="#191970" d="M1439.1408,-237.6034C1547.2119,-233.5655 1783.6509,-222.082 1981,-194 1987.6767,-193.0499 1994.6753,-191.8372 2001.5481,-190.5189"/>
<polygon fill="#191970" stroke="#191970" points="2002.3578,-193.9264 2011.4754,-188.5302 2000.9827,-187.0627 2002.3578,-193.9264"/>
</g>
<!-- Node8 -->
<g id="node9" class="node">
<title>Node8</title>
<polygon fill="#ffffff" stroke="#bfbfbf" points="2127.1309,-170.5 2127.1309,-188.5 2254.8691,-188.5 2254.8691,-170.5 2127.1309,-170.5"/>
<text text-anchor="middle" x="2191" y="-176.5" font-family="FreeSans" font-size="10.00" fill="#000000">boost/concept/assert.hpp</text>
</g>
<!-- Node2&#45;&gt;Node8 -->
<g id="edge9" class="edge">
<title>Node2&#45;&gt;Node8</title>
<path fill="none" stroke="#191970" d="M1439.0891,-238.5506C1564.6077,-235.9431 1866.8918,-226.5296 2118,-194 2125.3952,-193.042 2133.166,-191.779 2140.7672,-190.3973"/>
<polygon fill="#191970" stroke="#191970" points="2141.4443,-193.8314 2150.6163,-188.5281 2140.1391,-186.9541 2141.4443,-193.8314"/>
</g>
<!-- Node9 -->
<g id="node10" class="node">
<title>Node9</title>
<polygon fill="#ffffff" stroke="#bfbfbf" points="707.6826,-170.5 707.6826,-188.5 844.3174,-188.5 844.3174,-170.5 707.6826,-170.5"/>
<text text-anchor="middle" x="776" y="-176.5" font-family="FreeSans" font-size="10.00" fill="#000000">boost/concept/requires.hpp</text>
</g>
<!-- Node2&#45;&gt;Node9 -->
<g id="edge10" class="edge">
<title>Node2&#45;&gt;Node9</title>
<path fill="none" stroke="#191970" d="M1320.9052,-236.3312C1223.2056,-230.6595 1022.0025,-217.1492 853,-194 845.5033,-192.9731 837.6291,-191.7079 829.8953,-190.3565"/>
<polygon fill="#191970" stroke="#191970" points="830.3158,-186.8758 819.8529,-188.5429 829.0717,-193.7644 830.3158,-186.8758"/>
</g>
<!-- Node10 -->
<g id="node11" class="node">
<title>Node10</title>
<polygon fill="#ffffff" stroke="#bfbfbf" points="861.8672,-165.5 861.8672,-193.5 970.1328,-193.5 970.1328,-165.5 861.8672,-165.5"/>
<text text-anchor="start" x="869.8672" y="-181.5" font-family="FreeSans" font-size="10.00" fill="#000000">boost/iterator/iterator</text>
<text text-anchor="middle" x="916" y="-171.5" font-family="FreeSans" font-size="10.00" fill="#000000">_concepts.hpp</text>
</g>
<!-- Node2&#45;&gt;Node10 -->
<g id="edge11" class="edge">
<title>Node2&#45;&gt;Node10</title>
<path fill="none" stroke="#191970" d="M1320.9294,-234.9047C1244.4494,-228.4869 1106.8903,-215.355 980.1035,-194.0692"/>
<polygon fill="#191970" stroke="#191970" points="980.6626,-190.6141 970.2175,-192.389 979.4896,-197.5151 980.6626,-190.6141"/>
</g>
<!-- Node11 -->
<g id="node12" class="node">
<title>Node11</title>
<polygon fill="#ffffff" stroke="#bfbfbf" points="988.397,-170.5 988.397,-188.5 1135.603,-188.5 1135.603,-170.5 988.397,-170.5"/>
<text text-anchor="middle" x="1062" y="-176.5" font-family="FreeSans" font-size="10.00" fill="#000000">boost/concept_archetype.hpp</text>
</g>
<!-- Node2&#45;&gt;Node11 -->
<g id="edge12" class="edge">
<title>Node2&#45;&gt;Node11</title>
<path fill="none" stroke="#191970" d="M1332.0479,-230.4524C1275.1799,-219.7226 1180.4578,-201.8505 1119.6495,-190.3773"/>
<polygon fill="#191970" stroke="#191970" points="1120.2971,-186.9378 1109.8216,-188.5229 1118.9992,-193.8164 1120.2971,-186.9378"/>
</g>
<!-- Node12 -->
<g id="node13" class="node">
<title>Node12</title>
<polygon fill="#ffffff" stroke="#bfbfbf" points="1664.3843,-110.5 1664.3843,-128.5 1707.6157,-128.5 1707.6157,-110.5 1664.3843,-110.5"/>
<text text-anchor="middle" x="1686" y="-116.5" font-family="FreeSans" font-size="10.00" fill="#000000">cmath</text>
</g>
<!-- Node2&#45;&gt;Node12 -->
<g id="edge13" class="edge">
<title>Node2&#45;&gt;Node12</title>
<path fill="none" stroke="#191970" d="M1439.0045,-234.6386C1483.629,-229.1891 1545.4644,-217.763 1595,-194 1603.1514,-190.0896 1643.583,-155.9288 1667.7259,-135.2477"/>
<polygon fill="#191970" stroke="#191970" points="1670.2,-137.7365 1675.5066,-128.5664 1665.6397,-132.4258 1670.2,-137.7365"/>
</g>
<!-- Node13 -->
<g id="node14" class="node">
<title>Node13</title>
<polygon fill="#ffffff" stroke="#bfbfbf" points="1192.2686,-170.5 1192.2686,-188.5 1237.7314,-188.5 1237.7314,-170.5 1192.2686,-170.5"/>
<text text-anchor="middle" x="1215" y="-176.5" font-family="FreeSans" font-size="10.00" fill="#000000">stdio.h</text>
</g>
<!-- Node2&#45;&gt;Node13 -->
<g id="edge14" class="edge">
<title>Node2&#45;&gt;Node13</title>
<path fill="none" stroke="#191970" d="M1353.4345,-230.3346C1327.4836,-221.3159 1286.9072,-207.0403 1252,-194 1250.4004,-193.4024 1248.7643,-192.7849 1247.1136,-192.1568"/>
<polygon fill="#191970" stroke="#191970" points="1248.2439,-188.8415 1237.6542,-188.5101 1245.7259,-195.373 1248.2439,-188.8415"/>
</g>
<!-- Node14 -->
<g id="node15" class="node">
<title>Node14</title>
<g id="a_node15"><a xlink:href="Config_8h_source.html" target="_top" xlink:title="DGtal/base/Config.h">
<polygon fill="#ffffff" stroke="#ff0000" points="1463.9756,-55.5 1463.9756,-73.5 1570.0244,-73.5 1570.0244,-55.5 1463.9756,-55.5"/>
<text text-anchor="middle" x="1517" y="-61.5" font-family="FreeSans" font-size="10.00" fill="#000000">DGtal/base/Config.h</text>
</a>
</g>
</g>
<!-- Node2&#45;&gt;Node14 -->
<g id="edge15" class="edge">
<title>Node2&#45;&gt;Node14</title>
<path fill="none" stroke="#191970" d="M1383.7836,-230.1941C1393.2553,-207.6835 1419.7764,-149.255 1455,-110 1465.8346,-97.9253 1480.3517,-87.0625 1492.6147,-78.9814"/>
<polygon fill="#191970" stroke="#191970" points="1494.5001,-81.9303 1501.0608,-73.6112 1490.7442,-76.0232 1494.5001,-81.9303"/>
</g>
<!-- Node16 -->
<g id="node16" class="node">
<title>Node16</title>
<g id="a_node16"><a xlink:href="Trace_8h_source.html" target="_top" xlink:title="DGtal/base/Trace.h">
<polygon fill="#ffffff" stroke="#ff0000" points="1483.8311,-170.5 1483.8311,-188.5 1586.1689,-188.5 1586.1689,-170.5 1483.8311,-170.5"/>
<text text-anchor="middle" x="1535" y="-176.5" font-family="FreeSans" font-size="10.00" fill="#000000">DGtal/base/Trace.h</text>
</a>
</g>
</g>
<!-- Node2&#45;&gt;Node16 -->
<g id="edge17" class="edge">
<title>Node2&#45;&gt;Node16</title>
<path fill="none" stroke="#191970" d="M1403.5412,-230.3873C1429.8675,-220.1964 1472.6853,-203.6218 1502.2644,-192.1718"/>
<polygon fill="#191970" stroke="#191970" points="1503.683,-195.3759 1511.7452,-188.5019 1501.156,-188.8479 1503.683,-195.3759"/>
</g>
<!-- Node23 -->
<g id="node17" class="node">
<title>Node23</title>
<g id="a_node17"><a xlink:href="TraceWriterTerm_8h_source.html" target="_top" xlink:title="DGtal/base/TraceWriterTerm.h">
<polygon fill="#ffffff" stroke="#ff0000" points="1725.478,-110.5 1725.478,-128.5 1876.522,-128.5 1876.522,-110.5 1725.478,-110.5"/>
<text text-anchor="middle" x="1801" y="-116.5" font-family="FreeSans" font-size="10.00" fill="#000000">DGtal/base/TraceWriterTerm.h</text>
</a>
</g>
</g>
<!-- Node2&#45;&gt;Node23 -->
<g id="edge25" class="edge">
<title>Node2&#45;&gt;Node23</title>
<path fill="none" stroke="#191970" d="M1438.9089,-238.6716C1632.0733,-235.6709 2235.5733,-223.9274 2264,-194 2272.8765,-184.6549 2272.6567,-174.5491 2264,-165 2239.2088,-137.6531 2013.7467,-126.1613 1886.8368,-121.8252"/>
<polygon fill="#191970" stroke="#191970" points="1886.8601,-118.3241 1876.7489,-121.4885 1886.6266,-125.3202 1886.8601,-118.3241"/>
</g>
<!-- Node24 -->
<g id="node18" class="node">
<title>Node24</title>
<g id="a_node18"><a xlink:href="Assert_8h_source.html" target="_top" xlink:title="DGtal/base/Assert.h">
<polygon fill="#ffffff" stroke="#ff0000" points="1464.2588,-110.5 1464.2588,-128.5 1569.7412,-128.5 1569.7412,-110.5 1464.2588,-110.5"/>
<text text-anchor="middle" x="1517" y="-116.5" font-family="FreeSans" font-size="10.00" fill="#000000">DGtal/base/Assert.h</text>
</a>
</g>
</g>
<!-- Node2&#45;&gt;Node24 -->
<g id="edge28" class="edge">
<title>Node2&#45;&gt;Node24</title>
<path fill="none" stroke="#191970" d="M1390.3616,-230.4381C1400.8581,-221.2571 1417.5608,-206.6449 1432,-194 1455.0892,-173.78 1481.6935,-150.4583 1498.8991,-135.3726"/>
<polygon fill="#191970" stroke="#191970" points="1501.3224,-137.9027 1506.5339,-128.6782 1496.7074,-132.6394 1501.3224,-137.9027"/>
</g>
<!-- Node27 -->
<g id="node19" class="node">
<title>Node27</title>
<g id="a_node19"><a xlink:href="TraceWriterFile_8h_source.html" target="_top" xlink:title="DGtal/base/TraceWriterFile.h">
<polygon fill="#ffffff" stroke="#ff0000" points="850.5322,-55.5 850.5322,-73.5 995.4678,-73.5 995.4678,-55.5 850.5322,-55.5"/>
<text text-anchor="middle" x="923" y="-61.5" font-family="FreeSans" font-size="10.00" fill="#000000">DGtal/base/TraceWriterFile.h</text>
</a>
</g>
</g>
<!-- Node2&#45;&gt;Node27 -->
<g id="edge26" class="edge">
<title>Node2&#45;&gt;Node27</title>
<path fill="none" stroke="#191970" d="M1320.9616,-232.5456C1280.6594,-226.2194 1226.8384,-214.6076 1183,-194 1163.7732,-184.9619 1163.2387,-175.8953 1145,-165 1081.857,-127.2802 1002.0922,-94.4427 957.4024,-77.2522"/>
<polygon fill="#191970" stroke="#191970" points="958.4777,-73.9165 947.8869,-73.6249 955.9843,-80.4574 958.4777,-73.9165"/>
</g>
<!-- Node28 -->
<g id="node20" class="node">
<title>Node28</title>
<g id="a_node20"><a xlink:href="ConceptUtils_8h_source.html" target="_top" xlink:title="DGtal/base/ConceptUtils.h">
<polygon fill="#ffffff" stroke="#000000" points="408.084,-170.5 408.084,-188.5 541.916,-188.5 541.916,-170.5 408.084,-170.5"/>
<text text-anchor="middle" x="475" y="-176.5" font-family="FreeSans" font-size="10.00" fill="#000000">DGtal/base/ConceptUtils.h</text>
</a>
</g>
</g>
<!-- Node2&#45;&gt;Node28 -->
<g id="edge29" class="edge">
<title>Node2&#45;&gt;Node28</title>
<path fill="none" stroke="#191970" d="M1320.9617,-238.9646C1184.7601,-237.1397 838.2221,-229.1219 551,-194 543.2189,-193.0485 535.0358,-191.7773 527.0384,-190.3816"/>
<polygon fill="#191970" stroke="#191970" points="527.5174,-186.9113 517.0519,-188.5618 526.2624,-193.7979 527.5174,-186.9113"/>
</g>
<!-- Node29 -->
<g id="node21" class="node">
<title>Node29</title>
<g id="a_node21"><a xlink:href="BasicTypes_8h_source.html" target="_top" xlink:title="DGtal/base/BasicTypes.h">
<polygon fill="#ffffff" stroke="#ff0000" points="1013.8599,-55.5 1013.8599,-73.5 1142.1401,-73.5 1142.1401,-55.5 1013.8599,-55.5"/>
<text text-anchor="middle" x="1078" y="-61.5" font-family="FreeSans" font-size="10.00" fill="#000000">DGtal/base/BasicTypes.h</text>
</a>
</g>
</g>
<!-- Node2&#45;&gt;Node29 -->
<g id="edge31" class="edge">
<title>Node2&#45;&gt;Node29</title>
<path fill="none" stroke="#191970" d="M1354.702,-230.386C1333.826,-222.3134 1303.8654,-209.4316 1280,-194 1263.6038,-183.3981 1262.7915,-176.4832 1247,-165 1199.3042,-130.3168 1139.019,-96.6765 1104.8567,-78.4664"/>
<polygon fill="#191970" stroke="#191970" points="1106.4219,-75.3349 1095.9461,-73.7513 1103.1479,-81.5221 1106.4219,-75.3349"/>
</g>
<!-- Node32 -->
<g id="node22" class="node">
<title>Node32</title>
<g id="a_node22"><a xlink:href="BasicFunctors_8h_source.html" target="_top" xlink:title="DGtal/base/BasicFunctors.h">
<polygon fill="#ffffff" stroke="#ff0000" points="1718.7515,-170.5 1718.7515,-188.5 1859.2485,-188.5 1859.2485,-170.5 1718.7515,-170.5"/>
<text text-anchor="middle" x="1789" y="-176.5" font-family="FreeSans" font-size="10.00" fill="#000000">DGtal/base/BasicFunctors.h</text>
</a>
</g>
</g>
<!-- Node2&#45;&gt;Node32 -->
<g id="edge33" class="edge">
<title>Node2&#45;&gt;Node32</title>
<path fill="none" stroke="#191970" d="M1438.8603,-231.2416C1503.1562,-222.6856 1608.8958,-208.5495 1700,-194 1707.0912,-192.8675 1714.5235,-191.6125 1721.9518,-190.3284"/>
<polygon fill="#191970" stroke="#191970" points="1722.7964,-193.734 1732.0465,-188.568 1721.5938,-186.838 1722.7964,-193.734"/>
</g>
<!-- Node37 -->
<g id="node23" class="node">
<title>Node37</title>
<g id="a_node23"><a xlink:href="BasicArchetypes_8h_source.html" target="_top" xlink:title="DGtal/base/BasicArchetypes.h">
<polygon fill="#ffffff" stroke="#000000" points="1160.1899,-55.5 1160.1899,-73.5 1311.8101,-73.5 1311.8101,-55.5 1160.1899,-55.5"/>
<text text-anchor="middle" x="1236" y="-61.5" font-family="FreeSans" font-size="10.00" fill="#000000">DGtal/base/BasicArchetypes.h</text>
</a>
</g>
</g>
<!-- Node2&#45;&gt;Node37 -->
<g id="edge37" class="edge">
<title>Node2&#45;&gt;Node37</title>
<path fill="none" stroke="#191970" d="M1367.8159,-230.4394C1333.2348,-204.6947 1236.8435,-132.7226 1235,-129 1228.0886,-115.0436 1228.981,-97.2171 1231.2384,-83.8434"/>
<polygon fill="#191970" stroke="#191970" points="1234.7094,-84.342 1233.3143,-73.8394 1227.8554,-82.9197 1234.7094,-84.342"/>
</g>
<!-- Node38 -->
<g id="node24" class="node">
<title>Node38</title>
<g id="a_node24"><a xlink:href="Exceptions_8h_source.html" target="_top" xlink:title="DGtal/base/Exceptions.h">
<polygon fill="#ffffff" stroke="#000000" points="1243.9707,-110.5 1243.9707,-128.5 1370.0293,-128.5 1370.0293,-110.5 1243.9707,-110.5"/>
<text text-anchor="middle" x="1307" y="-116.5" font-family="FreeSans" font-size="10.00" fill="#000000">DGtal/base/Exceptions.h</text>
</a>
</g>
</g>
<!-- Node2&#45;&gt;Node38 -->
<g id="edge39" class="edge">
<title>Node2&#45;&gt;Node38</title>
<path fill="none" stroke="#191970" d="M1374.5131,-230.4805C1362.5171,-210.761 1333.7654,-163.4979 1317.9267,-137.4618"/>
<polygon fill="#191970" stroke="#191970" points="1320.738,-135.3485 1312.5505,-128.6242 1314.7576,-138.9866 1320.738,-135.3485"/>
</g>
<!-- Node14&#45;&gt;Node1 -->
<g id="edge16" class="edge">
<title>Node14&#45;&gt;Node1</title>
<path fill="none" stroke="#191970" d="M1463.8808,-56.3846C1390.1425,-45.119 1258.6041,-25.0228 1194.3697,-15.2093"/>
<polygon fill="#191970" stroke="#191970" points="1194.7032,-11.7197 1184.2892,-13.6692 1193.6459,-18.6394 1194.7032,-11.7197"/>
</g>
<!-- Node16&#45;&gt;Node1 -->
<g id="edge18" class="edge">
<title>Node16&#45;&gt;Node1</title>
<path fill="none" stroke="#191970" d="M1552.0572,-170.4854C1566.2371,-161.9287 1585.43,-147.616 1594,-129 1603.8615,-107.5786 1586.3672,-61.2809 1579,-55 1549.9867,-30.2646 1292.0797,-15.7859 1194.3318,-11.1463"/>
<polygon fill="#191970" stroke="#191970" points="1194.4558,-7.6484 1184.3035,-10.6783 1194.1295,-14.6408 1194.4558,-7.6484"/>
</g>
<!-- Node16&#45;&gt;Node14 -->
<g id="edge19" class="edge">
<title>Node16&#45;&gt;Node14</title>
<path fill="none" stroke="#191970" d="M1547.964,-170.3912C1564.7272,-157.419 1590.4862,-132.6767 1579,-110 1572.1549,-96.4861 1559.1986,-86.0134 1546.8928,-78.5407"/>
<polygon fill="#191970" stroke="#191970" points="1548.5771,-75.4725 1538.1438,-73.6291 1545.1503,-81.5764 1548.5771,-75.4725"/>
</g>
<!-- Node16&#45;&gt;Node23 -->
<g id="edge20" class="edge">
<title>Node16&#45;&gt;Node23</title>
<path fill="none" stroke="#191970" d="M1575.1109,-170.4524C1622.1893,-159.8332 1700.2823,-142.2183 1751.1954,-130.7341"/>
<polygon fill="#191970" stroke="#191970" points="1752.0136,-134.1376 1760.9983,-128.5229 1750.4733,-127.3091 1752.0136,-134.1376"/>
</g>
<!-- Node16&#45;&gt;Node24 -->
<g id="edge23" class="edge">
<title>Node16&#45;&gt;Node24</title>
<path fill="none" stroke="#191970" d="M1527.2568,-170.3873C1523.0277,-162.0174 1518.7787,-149.3414 1516.4226,-138.735"/>
<polygon fill="#191970" stroke="#191970" points="1519.8446,-137.9785 1514.7327,-128.6985 1512.9417,-139.1408 1519.8446,-137.9785"/>
</g>
<!-- Node23&#45;&gt;Node1 -->
<g id="edge21" class="edge">
<title>Node23&#45;&gt;Node1</title>
<path fill="none" stroke="#191970" d="M1784.3958,-110.3536C1757.2159,-95.8606 1701.1258,-67.9382 1650,-55 1563.6729,-33.1536 1294.129,-16.8645 1194.5027,-11.4482"/>
<polygon fill="#191970" stroke="#191970" points="1194.4798,-7.942 1184.3062,-10.8997 1194.1038,-14.9319 1194.4798,-7.942"/>
</g>
<!-- Node23&#45;&gt;Node14 -->
<g id="edge22" class="edge">
<title>Node23&#45;&gt;Node14</title>
<path fill="none" stroke="#191970" d="M1754.4212,-110.4795C1704.8963,-100.8884 1626.5499,-85.7156 1573.5262,-75.447"/>
<polygon fill="#191970" stroke="#191970" points="1574.0873,-71.9907 1563.6042,-73.5255 1572.7564,-78.863 1574.0873,-71.9907"/>
</g>
<!-- Node24&#45;&gt;Node16 -->
<g id="edge24" class="edge">
<title>Node24&#45;&gt;Node16</title>
<path fill="none" stroke="#191970" d="M1524.7864,-128.6985C1529.0157,-137.0976 1533.2583,-149.7812 1535.6014,-160.3734"/>
<polygon fill="#191970" stroke="#191970" points="1532.1745,-161.1013 1537.2755,-170.3873 1539.0787,-159.947 1532.1745,-161.1013"/>
</g>
<!-- Node27&#45;&gt;Node1 -->
<g id="edge27" class="edge">
<title>Node27&#45;&gt;Node1</title>
<path fill="none" stroke="#191970" d="M961.3783,-55.4795C1005.1912,-45.1815 1076.3806,-28.449 1119.7268,-18.2608"/>
<polygon fill="#191970" stroke="#191970" points="1120.6527,-21.6386 1129.5865,-15.9433 1119.051,-14.8243 1120.6527,-21.6386"/>
</g>
<!-- Node28&#45;&gt;Node1 -->
<g id="edge30" class="edge">
<title>Node28&#45;&gt;Node1</title>
<path fill="none" stroke="#191970" d="M496.9233,-170.4731C553.2193,-147.6452 707.8717,-87.1494 842,-55 940.8447,-31.3077 1060.2849,-18.1709 1119.6834,-12.6532"/>
<polygon fill="#191970" stroke="#191970" points="1120.0737,-16.1323 1129.7157,-11.7411 1119.4398,-9.161 1120.0737,-16.1323"/>
</g>
<!-- Node29&#45;&gt;Node1 -->
<g id="edge32" class="edge">
<title>Node29&#45;&gt;Node1</title>
<path fill="none" stroke="#191970" d="M1091.0452,-55.4179C1103.1669,-46.9788 1121.44,-34.257 1135.6807,-24.3426"/>
<polygon fill="#191970" stroke="#191970" points="1137.7282,-27.1818 1143.9354,-18.5956 1133.7286,-21.4369 1137.7282,-27.1818"/>
</g>
<!-- Node32&#45;&gt;Node2 -->
<g id="edge36" class="edge">
<title>Node32&#45;&gt;Node2</title>
<path fill="none" stroke="#191970" d="M1749.6117,-188.568C1739.3505,-190.4462 1728.3145,-192.3527 1718,-194 1625.522,-208.7689 1517.964,-223.1118 1449.3839,-231.6248"/>
<polygon fill="#191970" stroke="#191970" points="1448.6339,-228.1907 1439.1378,-232.889 1449.4912,-235.1381 1448.6339,-228.1907"/>
</g>
<!-- Node32&#45;&gt;Node4 -->
<g id="edge34" class="edge">
<title>Node32&#45;&gt;Node4</title>
<path fill="none" stroke="#191970" d="M1835.0064,-170.4871C1846.108,-168.499 1857.9547,-166.5318 1869,-165 2028.6463,-142.8598 2220.2265,-127.9315 2301.0295,-122.1646"/>
<polygon fill="#191970" stroke="#191970" points="2301.5021,-125.6401 2311.2303,-121.4435 2301.0084,-118.6575 2301.5021,-125.6401"/>
</g>
<!-- Node32&#45;&gt;Node12 -->
<g id="edge35" class="edge">
<title>Node32&#45;&gt;Node12</title>
<path fill="none" stroke="#191970" d="M1773.3565,-170.3873C1756.5468,-160.5952 1729.6191,-144.9092 1710.1,-133.5388"/>
<polygon fill="#191970" stroke="#191970" points="1711.8558,-130.5111 1701.4532,-128.5019 1708.3323,-136.5597 1711.8558,-130.5111"/>
</g>
<!-- Node37&#45;&gt;Node1 -->
<g id="edge38" class="edge">
<title>Node37&#45;&gt;Node1</title>
<path fill="none" stroke="#191970" d="M1222.9548,-55.4179C1210.8331,-46.9788 1192.56,-34.257 1178.3193,-24.3426"/>
<polygon fill="#191970" stroke="#191970" points="1180.2714,-21.4369 1170.0646,-18.5956 1176.2718,-27.1818 1180.2714,-21.4369"/>
</g>
<!-- Node38&#45;&gt;Node1 -->
<g id="edge40" class="edge">
<title>Node38&#45;&gt;Node1</title>
<path fill="none" stroke="#191970" d="M1313.2698,-110.1624C1321.4908,-96.6364 1333.4837,-71.4187 1321,-55 1305.7266,-34.9123 1237.826,-21.3748 1194.3246,-14.5892"/>
<polygon fill="#191970" stroke="#191970" points="1194.7827,-11.1188 1184.3724,-13.0875 1193.7382,-18.0404 1194.7827,-11.1188"/>
</g>
<!-- Node39&#45;&gt;Node1 -->
<g id="edge42" class="edge">
<title>Node39&#45;&gt;Node1</title>
<path fill="none" stroke="#191970" d="M1495.6209,-602.4626C1410.9404,-593.698 1262.2896,-578.1504 1135,-564 888.7408,-536.6241 38,-612.2762 38,-364.5 38,-364.5 38,-364.5 38,-119.5 38,-81.5364 59.8042,-71.4889 94,-55 141.0797,-32.2986 936.0407,-14.1686 1119.4574,-10.2754"/>
<polygon fill="#191970" stroke="#191970" points="1119.7559,-13.7699 1129.6798,-10.0597 1119.6082,-6.7715 1119.7559,-13.7699"/>
</g>
<!-- Node39&#45;&gt;Node2 -->
<g id="edge48" class="edge">
<title>Node39&#45;&gt;Node2</title>
<path fill="none" stroke="#191970" d="M1588.012,-600.3467C1604.3927,-592.919 1625.3368,-580.8952 1638,-564 1657.2054,-538.3761 1657,-526.5224 1657,-494.5 1657,-494.5 1657,-494.5 1657,-364.5 1657,-324.5389 1647.1001,-308.8007 1615,-285 1589.1636,-265.8435 1508.6506,-253.2178 1449.0298,-246.229"/>
<polygon fill="#191970" stroke="#191970" points="1449.2395,-242.7303 1438.9068,-245.0725 1448.4449,-249.6851 1449.2395,-242.7303"/>
</g>
<!-- Node40 -->
<g id="node26" class="node">
<title>Node40</title>
<g id="a_node26"><a xlink:href="Board_8h_source.html" target="_top" xlink:title="Board/Board.h">
<polygon fill="#ffffff" stroke="#ff0000" points="2256.7563,-355.5 2256.7563,-373.5 2337.2437,-373.5 2337.2437,-355.5 2256.7563,-355.5"/>
<text text-anchor="middle" x="2297" y="-361.5" font-family="FreeSans" font-size="10.00" fill="#000000">Board/Board.h</text>
</a>
</g>
</g>
<!-- Node39&#45;&gt;Node40 -->
<g id="edge43" class="edge">
<title>Node39&#45;&gt;Node40</title>
<path fill="none" stroke="#191970" d="M1632.335,-604.8677C1727.6094,-597.8362 1895.172,-583.2271 1953,-564 2087.1101,-519.4101 2226.7038,-418.5658 2277.257,-379.9463"/>
<polygon fill="#191970" stroke="#191970" points="2279.5938,-382.5643 2285.3794,-373.6886 2275.3217,-377.0191 2279.5938,-382.5643"/>
</g>
<!-- Node43 -->
<g id="node27" class="node">
<title>Node43</title>
<g id="a_node27"><a xlink:href="Color_8h_source.html" target="_top" xlink:title="DGtal/io/Color.h">
<polygon fill="#ffffff" stroke="#ff0000" points="2200.7046,-290.5 2200.7046,-308.5 2287.2954,-308.5 2287.2954,-290.5 2200.7046,-290.5"/>
<text text-anchor="middle" x="2244" y="-296.5" font-family="FreeSans" font-size="10.00" fill="#000000">DGtal/io/Color.h</text>
</a>
</g>
</g>
<!-- Node39&#45;&gt;Node43 -->
<g id="edge52" class="edge">
<title>Node39&#45;&gt;Node43</title>
<path fill="none" stroke="#191970" d="M1609.2338,-600.4412C1708.9723,-579.8419 1939,-528.6335 1939,-494.5 1939,-494.5 1939,-494.5 1939,-429.5 1939,-374.444 1984.8244,-374.7572 2034,-350 2083.766,-324.9455 2146.5082,-311.9624 2190.3977,-305.4784"/>
<polygon fill="#191970" stroke="#191970" points="2191.1611,-308.9054 2200.5734,-304.0413 2190.1823,-301.9741 2191.1611,-308.9054"/>
</g>
<!-- Node63 -->
<g id="node28" class="node">
<title>Node63</title>
<g id="a_node28"><a xlink:href="CountedPtr_8h_source.html" target="_top" xlink:title="DGtal/base/CountedPtr.h">
<polygon fill="#ffffff" stroke="#ff0000" points="2431.4092,-290.5 2431.4092,-308.5 2558.5908,-308.5 2558.5908,-290.5 2431.4092,-290.5"/>
<text text-anchor="middle" x="2495" y="-296.5" font-family="FreeSans" font-size="10.00" fill="#000000">DGtal/base/CountedPtr.h</text>
</a>
</g>
</g>
<!-- Node39&#45;&gt;Node63 -->
<g id="edge49" class="edge">
<title>Node39&#45;&gt;Node63</title>
<path fill="none" stroke="#191970" d="M1632.2698,-604.6022C1827.0902,-589.5867 2381.3882,-539.3297 2533,-444 2573.2375,-418.6997 2607.9192,-391.0735 2584,-350 2573.7411,-332.3836 2554.7971,-320.4135 2537.0154,-312.5674"/>
<polygon fill="#191970" stroke="#191970" points="2537.9006,-309.149 2527.3188,-308.6231 2535.263,-315.6331 2537.9006,-309.149"/>
</g>
<!-- Node65 -->
<g id="node29" class="node">
<title>Node65</title>
<g id="a_node29"><a xlink:href="Display2DFactory_8h_source.html" target="_top" xlink:title="Header file for module Display2DFactory. ">
<polygon fill="#ffffff" stroke="#ff0000" points="1144.2925,-545.5 1144.2925,-563.5 1285.7075,-563.5 1285.7075,-545.5 1144.2925,-545.5"/>
<text text-anchor="middle" x="1215" y="-551.5" font-family="FreeSans" font-size="10.00" fill="#000000">DGtal/io/Display2DFactory.h</text>
</a>
</g>
</g>
<!-- Node39&#45;&gt;Node65 -->
<g id="edge53" class="edge">
<title>Node39&#45;&gt;Node65</title>
<path fill="none" stroke="#191970" d="M1506.7605,-600.4795C1445.2681,-590.7887 1347.6175,-575.3996 1282.4417,-565.1283"/>
<polygon fill="#191970" stroke="#191970" points="1282.6937,-561.6249 1272.2707,-563.5255 1281.6039,-568.5396 1282.6937,-561.6249"/>
</g>
<!-- Node313 -->
<g id="node41" class="node">
<title>Node313</title>
<g id="a_node41"><a xlink:href="Style2DFactory_8h_source.html" target="_top" xlink:title="Header file for module Style2DFactory. ">
<polygon fill="#ffffff" stroke="#ff0000" points="1498.5708,-545.5 1498.5708,-563.5 1629.4292,-563.5 1629.4292,-545.5 1498.5708,-545.5"/>
<text text-anchor="middle" x="1564" y="-551.5" font-family="FreeSans" font-size="10.00" fill="#000000">DGtal/io/Style2DFactory.h</text>
</a>
</g>
</g>
<!-- Node39&#45;&gt;Node313 -->
<g id="edge103" class="edge">
<title>Node39&#45;&gt;Node313</title>
<path fill="none" stroke="#191970" d="M1564,-600.4179C1564,-593.2164 1564,-582.8962 1564,-573.8632"/>
<polygon fill="#191970" stroke="#191970" points="1567.5001,-573.7794 1564,-563.7795 1560.5001,-573.7795 1567.5001,-573.7794"/>
</g>
<!-- Node319 -->
<g id="node46" class="node">
<title>Node319</title>
<g id="a_node46"><a xlink:href="Board2D_8ih_source.html" target="_top" xlink:title="DGtal/io/boards/Board2D.ih">
<polygon fill="#ffffff" stroke="#000000" points="1341.8574,-545.5 1341.8574,-563.5 1480.1426,-563.5 1480.1426,-545.5 1341.8574,-545.5"/>
<text text-anchor="middle" x="1411" y="-551.5" font-family="FreeSans" font-size="10.00" fill="#000000">DGtal/io/boards/Board2D.ih</text>
</a>
</g>
</g>
<!-- Node39&#45;&gt;Node319 -->
<g id="edge120" class="edge">
<title>Node39&#45;&gt;Node319</title>
<path fill="none" stroke="#191970" d="M1538.7352,-600.4179C1513.3007,-591.2748 1473.8819,-577.1046 1445.5614,-566.924"/>
<polygon fill="#191970" stroke="#191970" points="1446.6425,-563.5935 1436.0481,-563.5042 1444.2745,-570.1808 1446.6425,-563.5935"/>
</g>
<!-- Node40&#45;&gt;Node43 -->
<g id="edge44" class="edge">
<title>Node40&#45;&gt;Node43</title>
<path fill="none" stroke="#191970" d="M2289.6306,-355.462C2281.4958,-345.4854 2268.2111,-329.1929 2258.0682,-316.7535"/>
<polygon fill="#191970" stroke="#191970" points="2260.682,-314.4206 2251.6501,-308.8821 2255.2569,-318.8441 2260.682,-314.4206"/>
</g>
<!-- Node43&#45;&gt;Node1 -->
<g id="edge45" class="edge">
<title>Node43&#45;&gt;Node1</title>
<path fill="none" stroke="#191970" d="M2287.3227,-295.6167C2348.9757,-289.2576 2457.805,-274.6886 2487,-249 2511.5336,-227.4129 2511,-212.1788 2511,-179.5 2511,-179.5 2511,-179.5 2511,-119.5 2511,-88.9131 2511.8158,-72.8811 2487,-55 2433.1954,-16.231 1405.7829,-10.4039 1194.7098,-9.6148"/>
<polygon fill="#191970" stroke="#191970" points="1194.4622,-6.114 1184.4497,-9.578 1194.4371,-13.1139 1194.4622,-6.114"/>
</g>
<!-- Node43&#45;&gt;Node2 -->
<g id="edge46" class="edge">
<title>Node43&#45;&gt;Node2</title>
<path fill="none" stroke="#191970" d="M2200.562,-296.4835C2060.5552,-286.7608 1620.3232,-256.1891 1449.093,-244.2981"/>
<polygon fill="#191970" stroke="#191970" points="1449.1592,-240.7944 1438.9407,-243.5931 1448.6742,-247.7776 1449.1592,-240.7944"/>
</g>
<!-- Node43&#45;&gt;Node4 -->
<g id="edge47" class="edge">
<title>Node43&#45;&gt;Node4</title>
<path fill="none" stroke="#191970" d="M2279.2817,-290.494C2313.578,-280.9414 2362.0528,-265.0417 2373,-249 2394.044,-218.1629 2384.5219,-200.5109 2373,-165 2369.5578,-154.3911 2362.6112,-144.1855 2355.9755,-136.1379"/>
<polygon fill="#191970" stroke="#191970" points="2358.5725,-133.791 2349.333,-128.606 2353.3225,-138.4211 2358.5725,-133.791"/>
</g>
<!-- Node63&#45;&gt;Node1 -->
<g id="edge50" class="edge">
<title>Node63&#45;&gt;Node1</title>
<path fill="none" stroke="#191970" d="M2502.2827,-290.4878C2517.0224,-271.3062 2549,-224.5057 2549,-179.5 2549,-179.5 2549,-179.5 2549,-119.5 2549,-85.7683 2538.1945,-71.897 2509,-55 2450.5922,-21.1952 1406.9159,-11.413 1194.5334,-9.7686"/>
<polygon fill="#191970" stroke="#191970" points="1194.2452,-6.2664 1184.2188,-9.6902 1194.1919,-13.2662 1194.2452,-6.2664"/>
</g>
<!-- Node63&#45;&gt;Node2 -->
<g id="edge51" class="edge">
<title>Node63&#45;&gt;Node2</title>
<path fill="none" stroke="#191970" d="M2452.2498,-290.4386C2440.8444,-288.327 2428.495,-286.3141 2417,-285 2228.6992,-263.4738 1649.7434,-246.6041 1449.2211,-241.2715"/>
<polygon fill="#191970" stroke="#191970" points="1449.1981,-237.7697 1439.1089,-241.0038 1449.0128,-244.7673 1449.1981,-237.7697"/>
</g>
<!-- Node65&#45;&gt;Node2 -->
<g id="edge54" class="edge">
<title>Node65&#45;&gt;Node2</title>
<path fill="none" stroke="#191970" d="M1219.7602,-545.4124C1242.4371,-502.12 1339.6855,-316.4641 1370.5565,-257.5286"/>
<polygon fill="#191970" stroke="#191970" points="1373.6808,-259.1069 1375.2205,-248.6245 1367.48,-255.8588 1373.6808,-259.1069"/>
</g>
<!-- Node65&#45;&gt;Node222 -->
<g id="edge55" class="edge">
<title>Node65&#45;&gt;Node222</title>
<path fill="none" stroke="#191970" d="M1163.1339,-545.4622C1122.5343,-537.7155 1064.9422,-525.2374 1016,-509 964.805,-492.0151 908.2893,-465.7402 872.4903,-448.0956"/>
<polygon fill="#191970" stroke="#191970" points="873.9211,-444.8984 863.408,-443.5849 870.8074,-451.1677 873.9211,-444.8984"/>
</g>
<!-- Node65&#45;&gt;Node229 -->
<g id="edge77" class="edge">
<title>Node65&#45;&gt;Node229</title>
<path fill="none" stroke="#191970" d="M1246.5907,-545.3873C1277.7838,-536.3893 1326.2296,-522.4145 1364.4662,-511.3847"/>
<polygon fill="#191970" stroke="#191970" points="1365.8146,-514.6386 1374.4527,-508.504 1363.8744,-507.9128 1365.8146,-514.6386"/>
</g>
<!-- Node116 -->
<g id="node38" class="node">
<title>Node116</title>
<g id="a_node38"><a xlink:href="PointVector_8h_source.html" target="_top" xlink:title="DGtal/kernel/PointVector.h">
<polygon fill="#ffffff" stroke="#ff0000" points="1472.3525,-290.5 1472.3525,-308.5 1605.6475,-308.5 1605.6475,-290.5 1472.3525,-290.5"/>
<text text-anchor="middle" x="1539" y="-296.5" font-family="FreeSans" font-size="10.00" fill="#000000">DGtal/kernel/PointVector.h</text>
</a>
</g>
</g>
<!-- Node65&#45;&gt;Node116 -->
<g id="edge97" class="edge">
<title>Node65&#45;&gt;Node116</title>
<path fill="none" stroke="#191970" d="M1233.6448,-545.3792C1250.4829,-536.8313 1275.6642,-523.2631 1296,-509 1387.1525,-445.0675 1484.1044,-353.2521 1522.2295,-316.071"/>
<polygon fill="#191970" stroke="#191970" points="1525.1514,-318.1079 1529.8423,-308.6081 1520.2511,-313.1091 1525.1514,-318.1079"/>
</g>
<!-- Node65&#45;&gt;Node240 -->
<g id="edge91" class="edge">
<title>Node65&#45;&gt;Node240</title>
<path fill="none" stroke="#191970" d="M1197.534,-545.3873C1181.2964,-536.9155 1156.6029,-524.032 1136.1261,-513.3484"/>
<polygon fill="#191970" stroke="#191970" points="1137.5449,-510.1409 1127.06,-508.6183 1134.3069,-516.347 1137.5449,-510.1409"/>
</g>
<!-- Node65&#45;&gt;Node297 -->
<g id="edge98" class="edge">
<title>Node65&#45;&gt;Node297</title>
<path fill="none" stroke="#191970" d="M1162.8257,-545.4524C1100.6953,-534.6784 997.0374,-516.703 930.9089,-505.2357"/>
<polygon fill="#191970" stroke="#191970" points="931.4832,-501.7831 921.0323,-503.5229 930.2872,-508.6802 931.4832,-501.7831"/>
</g>
<!-- Node222&#45;&gt;Node1 -->
<g id="edge56" class="edge">
<title>Node222&#45;&gt;Node1</title>
<path fill="none" stroke="#191970" d="M779.9099,-427.4526C636.6621,-421.8695 265.1481,-405.0343 216,-379 175.9163,-357.7672 152,-344.86 152,-299.5 152,-299.5 152,-299.5 152,-119.5 152,-83.2287 169.819,-71.7328 202,-55 243.3813,-33.4834 948.4498,-14.6711 1119.7314,-10.4043"/>
<polygon fill="#191970" stroke="#191970" points="1119.8666,-13.9021 1129.7769,-10.1556 1119.6932,-6.9043 1119.8666,-13.9021"/>
</g>
<!-- Node222&#45;&gt;Node2 -->
<g id="edge57" class="edge">
<title>Node222&#45;&gt;Node2</title>
<path fill="none" stroke="#191970" d="M852.5895,-415.3318C888.349,-385.6508 976.478,-317.0462 1063,-285 1107.0966,-268.6674 1231.323,-254.0531 1310.5327,-246.0173"/>
<polygon fill="#191970" stroke="#191970" points="1311.3176,-249.4562 1320.9182,-244.9751 1310.6187,-242.4912 1311.3176,-249.4562"/>
</g>
<!-- Node148 -->
<g id="node31" class="node">
<title>Node148</title>
<g id="a_node31"><a xlink:href="CSpace_8h_source.html" target="_top" xlink:title="DGtal/kernel/CSpace.h">
<polygon fill="#ffffff" stroke="#ff0000" points="493.8647,-355.5 493.8647,-373.5 612.1353,-373.5 612.1353,-355.5 493.8647,-355.5"/>
<text text-anchor="middle" x="553" y="-361.5" font-family="FreeSans" font-size="10.00" fill="#000000">DGtal/kernel/CSpace.h</text>
</a>
</g>
</g>
<!-- Node222&#45;&gt;Node148 -->
<g id="edge58" class="edge">
<title>Node222&#45;&gt;Node148</title>
<path fill="none" stroke="#191970" d="M779.7499,-416.5804C727.8732,-404.6652 651.6237,-387.1521 602.138,-375.7861"/>
<polygon fill="#191970" stroke="#191970" points="602.8378,-372.3558 592.3081,-373.5284 601.2708,-379.1782 602.8378,-372.3558"/>
</g>
<!-- Node223 -->
<g id="node33" class="node">
<title>Node223</title>
<g id="a_node33"><a xlink:href="BasicPointPredicates_8h_source.html" target="_top" xlink:title="DGtal/kernel/BasicPointPredicates.h">
<polygon fill="#ffffff" stroke="#ff0000" points="218.4067,-290.5 218.4067,-308.5 395.5933,-308.5 395.5933,-290.5 218.4067,-290.5"/>
<text text-anchor="middle" x="307" y="-296.5" font-family="FreeSans" font-size="10.00" fill="#000000">DGtal/kernel/BasicPointPredicates.h</text>
</a>
</g>
</g>
<!-- Node222&#45;&gt;Node223 -->
<g id="edge66" class="edge">
<title>Node222&#45;&gt;Node223</title>
<path fill="none" stroke="#191970" d="M779.6722,-426.212C709.4861,-421.0252 586.429,-408.3279 485,-379 428.1834,-362.5716 365.9928,-331.5275 332.2396,-313.4767"/>
<polygon fill="#191970" stroke="#191970" points="333.5688,-310.2165 323.1078,-308.5375 330.2385,-316.3735 333.5688,-310.2165"/>
</g>
<!-- Node78 -->
<g id="node34" class="node">
<title>Node78</title>
<g id="a_node34"><a xlink:href="CDomain_8h_source.html" target="_top" xlink:title="DGtal/kernel/domains\l/CDomain.h">
<polygon fill="#ffffff" stroke="#ff0000" points="838.9238,-285.5 838.9238,-313.5 951.0762,-313.5 951.0762,-285.5 838.9238,-285.5"/>
<text text-anchor="start" x="846.9238" y="-301.5" font-family="FreeSans" font-size="10.00" fill="#000000">DGtal/kernel/domains</text>
<text text-anchor="middle" x="895" y="-291.5" font-family="FreeSans" font-size="10.00" fill="#000000">/CDomain.h</text>
</a>
</g>
</g>
<!-- Node222&#45;&gt;Node78 -->
<g id="edge69" class="edge">
<title>Node222&#45;&gt;Node78</title>
<path fill="none" stroke="#191970" d="M842.4263,-415.3402C852.4899,-393.1664 872.0778,-350.0066 884.2952,-323.0868"/>
<polygon fill="#191970" stroke="#191970" points="887.6359,-324.1948 888.5816,-313.6423 881.2616,-321.3019 887.6359,-324.1948"/>
</g>
<!-- Node227 -->
<g id="node35" class="node">
<title>Node227</title>
<g id="a_node35"><a xlink:href="HyperRectDomain__Iterator_8h_source.html" target="_top" xlink:title="DGtal/kernel/domains\l/HyperRectDomain_Iterator.h">
<polygon fill="#ffffff" stroke="#ff0000" points="637.2466,-285.5 637.2466,-313.5 782.7534,-313.5 782.7534,-285.5 637.2466,-285.5"/>
<text text-anchor="start" x="645.2466" y="-301.5" font-family="FreeSans" font-size="10.00" fill="#000000">DGtal/kernel/domains</text>
<text text-anchor="middle" x="710" y="-291.5" font-family="FreeSans" font-size="10.00" fill="#000000">/HyperRectDomain_Iterator.h</text>
</a>
</g>
</g>
<!-- Node222&#45;&gt;Node227 -->
<g id="edge74" class="edge">
<title>Node222&#45;&gt;Node227</title>
<path fill="none" stroke="#191970" d="M822.2759,-415.3402C800.2163,-392.5803 756.727,-347.7104 730.8258,-320.9869"/>
<polygon fill="#191970" stroke="#191970" points="733.1802,-318.3871 723.7071,-313.6423 728.1537,-323.2589 733.1802,-318.3871"/>
</g>
<!-- Node148&#45;&gt;Node1 -->
<g id="edge59" class="edge">
<title>Node148&#45;&gt;Node1</title>
<path fill="none" stroke="#191970" d="M535.4789,-355.3931C473.167,-322.7351 266,-211.7341 266,-179.5 266,-179.5 266,-179.5 266,-119.5 266,-57.773 329.527,-71.5283 389,-55 459.6992,-35.3518 974.9248,-15.9089 1119.4178,-10.7966"/>
<polygon fill="#191970" stroke="#191970" points="1119.6856,-14.2895 1129.5563,-10.44 1119.4394,-7.2938 1119.6856,-14.2895"/>
</g>
<!-- Node148&#45;&gt;Node2 -->
<g id="edge60" class="edge">
<title>Node148&#45;&gt;Node2</title>
<path fill="none" stroke="#191970" d="M612.2547,-359.3369C662.0625,-353.3011 734.1786,-340.5217 792,-314 811.3107,-305.1425 810.1711,-292.6272 830,-285 915.9787,-251.9283 1183.1112,-242.8679 1310.7423,-240.4066"/>
<polygon fill="#191970" stroke="#191970" points="1310.8647,-243.905 1320.7983,-240.2208 1310.7353,-236.9062 1310.8647,-243.905"/>
</g>
<!-- Node148&#45;&gt;Node28 -->
<g id="edge61" class="edge">
<title>Node148&#45;&gt;Node28</title>
<path fill="none" stroke="#191970" d="M532.174,-355.3981C515.9963,-347.1208 494.589,-333.2501 484,-314 463.7762,-277.2346 467.4662,-225.9923 471.493,-198.5863"/>
<polygon fill="#191970" stroke="#191970" points="474.9471,-199.1513 473.115,-188.7161 468.0397,-198.0162 474.9471,-199.1513"/>
</g>
<!-- Node95 -->
<g id="node32" class="node">
<title>Node95</title>
<g id="a_node32"><a xlink:href="CInteger_8h_source.html" target="_top" xlink:title="DGtal/kernel/CInteger.h">
<polygon fill="#ffffff" stroke="#ff0000" points="492.749,-290.5 492.749,-308.5 613.251,-308.5 613.251,-290.5 492.749,-290.5"/>
<text text-anchor="middle" x="553" y="-296.5" font-family="FreeSans" font-size="10.00" fill="#000000">DGtal/kernel/CInteger.h</text>
</a>
</g>
</g>
<!-- Node148&#45;&gt;Node95 -->
<g id="edge62" class="edge">
<title>Node148&#45;&gt;Node95</title>
<path fill="none" stroke="#191970" d="M553,-355.462C553,-346.061 553,-331.0518 553,-318.943"/>
<polygon fill="#191970" stroke="#191970" points="556.5001,-318.8821 553,-308.8821 549.5001,-318.8822 556.5001,-318.8821"/>
</g>
<!-- Node95&#45;&gt;Node1 -->
<g id="edge63" class="edge">
<title>Node95&#45;&gt;Node1</title>
<path fill="none" stroke="#191970" d="M518.1154,-290.4928C449.5871,-271.7703 304,-226.4676 304,-179.5 304,-179.5 304,-179.5 304,-119.5 304,-36.0355 954.6944,-14.4557 1119.448,-10.3295"/>
<polygon fill="#191970" stroke="#191970" points="1119.6735,-13.8251 1129.5853,-10.0825 1119.5029,-6.8272 1119.6735,-13.8251"/>
</g>
<!-- Node95&#45;&gt;Node2 -->
<g id="edge64" class="edge">
<title>Node95&#45;&gt;Node2</title>
<path fill="none" stroke="#191970" d="M594.4991,-290.475C605.3563,-288.3894 617.0794,-286.38 628,-285 878.0896,-253.396 1177.8387,-243.5895 1310.7296,-240.6726"/>
<polygon fill="#191970" stroke="#191970" points="1310.8492,-244.171 1320.7723,-240.4584 1310.6999,-237.1726 1310.8492,-244.171"/>
</g>
<!-- Node95&#45;&gt;Node28 -->
<g id="edge65" class="edge">
<title>Node95&#45;&gt;Node28</title>
<path fill="none" stroke="#191970" d="M547.1373,-290.4805C534.2632,-270.6742 503.3276,-223.081 486.4523,-197.1189"/>
<polygon fill="#191970" stroke="#191970" points="489.3152,-195.1011 480.9307,-188.6242 483.4461,-198.9161 489.3152,-195.1011"/>
</g>
<!-- Node223&#45;&gt;Node1 -->
<g id="edge67" class="edge">
<title>Node223&#45;&gt;Node1</title>
<path fill="none" stroke="#191970" d="M293.9276,-290.495C281.5478,-281.3511 263.229,-266.1292 252,-249 234.084,-221.6702 228,-212.1788 228,-179.5 228,-179.5 228,-179.5 228,-119.5 228,-88.9131 227.3284,-73.0795 252,-55 287.5039,-28.9826 952.7946,-13.6774 1119.4121,-10.2422"/>
<polygon fill="#191970" stroke="#191970" points="1119.7273,-13.7366 1129.6538,-10.0331 1119.5844,-6.738 1119.7273,-13.7366"/>
</g>
<!-- Node223&#45;&gt;Node2 -->
<g id="edge68" class="edge">
<title>Node223&#45;&gt;Node2</title>
<path fill="none" stroke="#191970" d="M395.6434,-291.6963C423.8711,-289.3567 455.2352,-286.9081 484,-285 792.2152,-264.5545 1160.6102,-248.4806 1310.9756,-242.275"/>
<polygon fill="#191970" stroke="#191970" points="1311.1441,-245.7711 1320.9918,-241.8629 1310.8563,-238.777 1311.1441,-245.7711"/>
</g>
<!-- Node78&#45;&gt;Node1 -->
<g id="edge70" class="edge">
<title>Node78&#45;&gt;Node1</title>
<path fill="none" stroke="#191970" d="M838.6194,-291.545C714.5619,-273.4798 426.7127,-228.271 399,-194 390.8957,-183.9778 391.2783,-175.3198 399,-165 487.0465,-47.3282 978.2996,-17.2104 1119.2116,-10.9421"/>
<polygon fill="#191970" stroke="#191970" points="1119.6578,-14.4262 1129.4981,-10.4996 1119.3569,-7.4327 1119.6578,-14.4262"/>
</g>
<!-- Node78&#45;&gt;Node2 -->
<g id="edge72" class="edge">
<title>Node78&#45;&gt;Node2</title>
<path fill="none" stroke="#191970" d="M951.4094,-289.3007C960.6163,-287.769 970.0634,-286.2772 979,-285 1095.2352,-268.3876 1231.1299,-254.0269 1311.1352,-246.0887"/>
<polygon fill="#191970" stroke="#191970" points="1311.4805,-249.5717 1321.0881,-245.1057 1310.7924,-242.6056 1311.4805,-249.5717"/>
</g>
<!-- Node78&#45;&gt;Node6 -->
<g id="edge71" class="edge">
<title>Node78&#45;&gt;Node6</title>
<path fill="none" stroke="#191970" d="M863.4991,-285.4996C810.9638,-262.1506 706.1679,-215.5746 654.7915,-192.7407"/>
<polygon fill="#191970" stroke="#191970" points="656.1116,-189.4973 645.5519,-188.6342 653.2686,-195.894 656.1116,-189.4973"/>
</g>
<!-- Node78&#45;&gt;Node28 -->
<g id="edge73" class="edge">
<title>Node78&#45;&gt;Node28</title>
<path fill="none" stroke="#191970" d="M845.9987,-285.4996C762.6444,-261.6841 594.7153,-213.7044 516.6532,-191.4009"/>
<polygon fill="#191970" stroke="#191970" points="517.2748,-187.9385 506.698,-188.5566 515.3517,-194.6692 517.2748,-187.9385"/>
</g>
<!-- Node227&#45;&gt;Node1 -->
<g id="edge75" class="edge">
<title>Node227&#45;&gt;Node1</title>
<path fill="none" stroke="#191970" d="M636.8657,-286.8959C594.894,-278.5186 541.6329,-265.926 496,-249 439.6418,-228.0959 367.7774,-220.8515 390,-165 428.3713,-68.5625 494.5323,-76.8368 596,-55 696.5393,-33.363 1011.0162,-16.5464 1119.6484,-11.2512"/>
<polygon fill="#191970" stroke="#191970" points="1119.9809,-14.7393 1129.8004,-10.7607 1119.6431,-7.7474 1119.9809,-14.7393"/>
</g>
<!-- Node227&#45;&gt;Node2 -->
<g id="edge76" class="edge">
<title>Node227&#45;&gt;Node2</title>
<path fill="none" stroke="#191970" d="M783.0344,-286.8527C787.7542,-286.1823 792.4401,-285.5568 797,-285 981.9998,-262.4079 1201.4713,-248.8198 1310.8417,-242.9398"/>
<polygon fill="#191970" stroke="#191970" points="1311.2776,-246.4216 1321.0773,-242.3947 1310.9053,-239.4315 1311.2776,-246.4216"/>
</g>
<!-- Node229&#45;&gt;Node1 -->
<g id="edge78" class="edge">
<title>Node229&#45;&gt;Node1</title>
<path fill="none" stroke="#191970" d="M1448.5689,-480.4906C1502.7871,-451.4171 1634.0096,-384.3806 1752,-350 1769.6481,-344.8576 2389.6822,-257.4634 2406,-249 2444.0868,-229.2457 2473,-222.405 2473,-179.5 2473,-179.5 2473,-179.5 2473,-119.5 2473,-13.3343 2347.8493,-71.667 2243,-55 2034.6501,-21.8805 1361.8126,-11.9055 1194.7917,-9.9106"/>
<polygon fill="#191970" stroke="#191970" points="1194.5724,-6.4079 1184.5321,-9.7906 1194.4904,-13.4074 1194.5724,-6.4079"/>
</g>
<!-- Node229&#45;&gt;Node2 -->
<g id="edge79" class="edge">
<title>Node229&#45;&gt;Node2</title>
<path fill="none" stroke="#191970" d="M1420.6269,-480.4269C1413.3746,-437.4189 1391.4957,-307.6721 1383.219,-258.5896"/>
<polygon fill="#191970" stroke="#191970" points="1386.66,-257.946 1381.5459,-248.6673 1379.7575,-259.11 1386.66,-257.946"/>
</g>
<!-- Node229&#45;&gt;Node43 -->
<g id="edge90" class="edge">
<title>Node229&#45;&gt;Node43</title>
<path fill="none" stroke="#191970" d="M1447.6196,-480.4635C1501.0732,-450.7249 1632.5691,-381.5238 1752,-350 1833.7346,-328.4262 2080.7908,-310.1645 2190.5079,-302.8824"/>
<polygon fill="#191970" stroke="#191970" points="2190.9384,-306.3617 2200.6868,-302.2122 2190.4785,-299.3769 2190.9384,-306.3617"/>
</g>
<!-- Node229&#45;&gt;Node222 -->
<g id="edge81" class="edge">
<title>Node229&#45;&gt;Node222</title>
<path fill="none" stroke="#191970" d="M1347.4536,-487.4645C1252.1388,-478.3932 1083.2339,-461.6712 939,-444 927.0972,-442.5417 914.4389,-440.8643 902.2179,-439.1796"/>
<polygon fill="#191970" stroke="#191970" points="902.4687,-435.6808 892.0814,-437.7673 901.5027,-442.6138 902.4687,-435.6808"/>
</g>
<!-- Node229&#45;&gt;Node78 -->
<g id="edge80" class="edge">
<title>Node229&#45;&gt;Node78</title>
<path fill="none" stroke="#191970" d="M1387.3723,-480.4047C1320.4048,-454.0247 1171.048,-395.7314 1044,-350 1012.1606,-338.5393 976.2411,-326.3438 947.648,-316.8089"/>
<polygon fill="#191970" stroke="#191970" points="948.4521,-313.3879 937.8585,-313.5529 946.2428,-320.0301 948.4521,-313.3879"/>
</g>
<!-- Node229&#45;&gt;Node115 -->
<g id="edge82" class="edge">
<title>Node229&#45;&gt;Node115</title>
<path fill="none" stroke="#191970" d="M1347.4328,-482.578C1270.4437,-470.4316 1152.1633,-451.7709 1078.3035,-440.1183"/>
<polygon fill="#191970" stroke="#191970" points="1078.6086,-436.6232 1068.1853,-438.522 1077.5177,-443.5377 1078.6086,-436.6232"/>
</g>
<!-- Node115&#45;&gt;Node1 -->
<g id="edge83" class="edge">
<title>Node115&#45;&gt;Node1</title>
<path fill="none" stroke="#191970" d="M948.2346,-420.7334C932.8058,-418.7145 916.319,-416.6717 901,-415 741.8735,-397.6356 190,-459.5712 190,-299.5 190,-299.5 190,-299.5 190,-119.5 190,-85.532 201.6379,-72.0791 231,-55 269.9905,-32.3204 950.8731,-14.4684 1119.4711,-10.3824"/>
<polygon fill="#191970" stroke="#191970" points="1119.6875,-13.8783 1129.6003,-10.1385 1119.5189,-6.8803 1119.6875,-13.8783"/>
</g>
<!-- Node115&#45;&gt;Node2 -->
<g id="edge84" class="edge">
<title>Node115&#45;&gt;Node2</title>
<path fill="none" stroke="#191970" d="M1030.473,-420.3666C1047.8156,-411.5456 1073.1375,-396.9085 1091,-379 1125.8334,-344.0769 1109.3681,-312.9649 1150,-285 1175.6608,-267.339 1252.8558,-254.5316 1310.7883,-247.0874"/>
<polygon fill="#191970" stroke="#191970" points="1311.5139,-250.5238 1320.9997,-245.8046 1310.6414,-243.5784 1311.5139,-250.5238"/>
</g>
<!-- Node115&#45;&gt;Node95 -->
<g id="edge85" class="edge">
<title>Node115&#45;&gt;Node95</title>
<path fill="none" stroke="#191970" d="M979.158,-420.4619C898.3064,-397.5127 685.0947,-336.9941 594.5836,-311.3032"/>
<polygon fill="#191970" stroke="#191970" points="595.511,-307.9282 584.9353,-308.5646 593.5995,-314.6622 595.511,-307.9282"/>
</g>
<!-- Node115&#45;&gt;Node116 -->
<g id="edge86" class="edge">
<title>Node115&#45;&gt;Node116</title>
<path fill="none" stroke="#191970" d="M1047.7087,-420.4619C1141.2953,-397.4197 1388.7109,-336.503 1492.3225,-310.9926"/>
<polygon fill="#191970" stroke="#191970" points="1493.3106,-314.3539 1502.1838,-308.5646 1491.637,-307.5569 1493.3106,-314.3539"/>
</g>
<!-- Node116&#45;&gt;Node1 -->
<g id="edge87" class="edge">
<title>Node116&#45;&gt;Node1</title>
<path fill="none" stroke="#191970" d="M1605.81,-292.5833C1629.5472,-290.1508 1656.4621,-287.4213 1681,-285 1998.849,-253.6365 2594.3832,-344.9254 2378,-110 2295.8446,-20.8046 1391.0908,-10.7705 1194.5372,-9.6427"/>
<polygon fill="#191970" stroke="#191970" points="1194.4353,-6.1422 1184.4169,-9.589 1194.3981,-13.1421 1194.4353,-6.1422"/>
</g>
<!-- Node116&#45;&gt;Node2 -->
<g id="edge89" class="edge">
<title>Node116&#45;&gt;Node2</title>
<path fill="none" stroke="#191970" d="M1514.8513,-290.3873C1487.8456,-280.1964 1443.9228,-263.6218 1413.5803,-252.1718"/>
<polygon fill="#191970" stroke="#191970" points="1414.4467,-248.7579 1403.855,-248.5019 1411.9753,-255.3071 1414.4467,-248.7579"/>
</g>
<!-- Node116&#45;&gt;Node4 -->
<g id="edge88" class="edge">
<title>Node116&#45;&gt;Node4</title>
<path fill="none" stroke="#191970" d="M1605.684,-292.2423C1788.0394,-272.15 2283.299,-215.8427 2311,-194 2327.9868,-180.6057 2335.039,-155.9062 2337.957,-138.6321"/>
<polygon fill="#191970" stroke="#191970" points="2341.4489,-138.9292 2339.3404,-128.5463 2334.5138,-137.9778 2341.4489,-138.9292"/>
</g>
<!-- Node240&#45;&gt;Node1 -->
<g id="edge92" class="edge">
<title>Node240&#45;&gt;Node1</title>
<path fill="none" stroke="#191970" d="M1024.6744,-486.5447C794.1828,-461.9546 114,-387.4452 114,-364.5 114,-364.5 114,-364.5 114,-119.5 114,-82.1131 134.4973,-71.5936 168,-55 211.3723,-33.518 944.2458,-14.6101 1119.5506,-10.3807"/>
<polygon fill="#191970" stroke="#191970" points="1119.6724,-13.8789 1129.5856,-10.14 1119.5045,-6.8809 1119.6724,-13.8789"/>
</g>
<!-- Node240&#45;&gt;Node2 -->
<g id="edge93" class="edge">
<title>Node240&#45;&gt;Node2</title>
<path fill="none" stroke="#191970" d="M1101.6282,-480.4887C1106.7941,-442.6893 1126.3615,-337.9172 1189,-285 1207.4371,-269.4243 1263.9205,-257.1579 1310.7171,-249.3056"/>
<polygon fill="#191970" stroke="#191970" points="1311.5393,-252.7177 1320.8429,-247.6489 1310.409,-245.8096 1311.5393,-252.7177"/>
</g>
<!-- Node240&#45;&gt;Node222 -->
<g id="edge96" class="edge">
<title>Node240&#45;&gt;Node222</title>
<path fill="none" stroke="#191970" d="M1043.041,-480.476C1001.697,-470.2966 945.646,-456.4962 902.2905,-445.8215"/>
<polygon fill="#191970" stroke="#191970" points="902.9499,-442.3794 892.4031,-443.3871 901.2763,-449.1764 902.9499,-442.3794"/>
</g>
<!-- Node240&#45;&gt;Node78 -->
<g id="edge94" class="edge">
<title>Node240&#45;&gt;Node78</title>
<path fill="none" stroke="#191970" d="M1100.2222,-480.246C1099.8014,-463.2225 1096.8489,-434.5939 1083,-415 1049.2895,-367.3053 989.0469,-335.4529 945.8339,-317.4902"/>
<polygon fill="#191970" stroke="#191970" points="946.9233,-314.1554 936.3404,-313.6521 944.2995,-320.6452 946.9233,-314.1554"/>
</g>
<!-- Node240&#45;&gt;Node115 -->
<g id="edge95" class="edge">
<title>Node240&#45;&gt;Node115</title>
<path fill="none" stroke="#191970" d="M1080.6883,-480.396C1066.2937,-469.883 1046.6559,-455.5408 1031.8949,-444.7603"/>
<polygon fill="#191970" stroke="#191970" points="1033.5647,-441.6458 1023.4248,-438.5743 1029.4361,-447.2987 1033.5647,-441.6458"/>
</g>
<!-- Node297&#45;&gt;Node1 -->
<g id="edge99" class="edge">
<title>Node297&#45;&gt;Node1</title>
<path fill="none" stroke="#191970" d="M825.7149,-485.4919C815.0526,-483.4803 803.6406,-481.5013 793,-480 633.1954,-457.4526 76,-525.8874 76,-364.5 76,-364.5 76,-364.5 76,-119.5 76,-81.5364 97.8173,-71.516 132,-55 177.2617,-33.131 939.8593,-14.4475 1119.3737,-10.3391"/>
<polygon fill="#191970" stroke="#191970" points="1119.7165,-13.8323 1129.6342,-10.1056 1119.5572,-6.8341 1119.7165,-13.8323"/>
</g>
<!-- Node297&#45;&gt;Node2 -->
<g id="edge100" class="edge">
<title>Node297&#45;&gt;Node2</title>
<path fill="none" stroke="#191970" d="M876.1519,-485.0683C888.1816,-469.5234 913.6452,-437.9593 939,-415 1012.4164,-348.5198 1028.7001,-323.3915 1120,-285 1181.5111,-259.1347 1257.1675,-247.973 1310.9757,-243.1564"/>
<polygon fill="#191970" stroke="#191970" points="1311.4273,-246.6308 1321.0974,-242.3019 1310.8384,-239.6556 1311.4273,-246.6308"/>
</g>
<!-- Node297&#45;&gt;Node222 -->
<g id="edge102" class="edge">
<title>Node297&#45;&gt;Node222</title>
<path fill="none" stroke="#191970" d="M864.4115,-485.462C860.15,-477.0682 853.6188,-464.2037 847.8924,-452.9245"/>
<polygon fill="#191970" stroke="#191970" points="850.987,-451.2881 843.3391,-443.9559 844.7453,-454.457 850.987,-451.2881"/>
</g>
<!-- Node297&#45;&gt;Node115 -->
<g id="edge101" class="edge">
<title>Node297&#45;&gt;Node115</title>
<path fill="none" stroke="#191970" d="M888.7445,-485.462C912.8763,-474.4158 953.9234,-455.6266 981.7311,-442.8977"/>
<polygon fill="#191970" stroke="#191970" points="983.3295,-446.0154 990.9654,-438.6708 980.416,-439.6505 983.3295,-446.0154"/>
</g>
<!-- Node313&#45;&gt;Node222 -->
<g id="edge104" class="edge">
<title>Node313&#45;&gt;Node222</title>
<path fill="none" stroke="#191970" d="M1519.2414,-545.4356C1433.3638,-528.0921 1248.2839,-490.9589 1184,-480 1156.8819,-475.377 995.4391,-452.2299 902.2639,-438.9352"/>
<polygon fill="#191970" stroke="#191970" points="902.4778,-435.4304 892.0837,-437.4831 901.4892,-442.3602 902.4778,-435.4304"/>
</g>
<!-- Node313&#45;&gt;Node229 -->
<g id="edge105" class="edge">
<title>Node313&#45;&gt;Node229</title>
<path fill="none" stroke="#191970" d="M1542.5851,-545.3873C1522.1597,-536.6956 1490.8216,-523.3602 1465.3496,-512.5211"/>
<polygon fill="#191970" stroke="#191970" points="1466.4815,-509.1991 1455.9095,-508.504 1463.7406,-515.6402 1466.4815,-509.1991"/>
</g>
<!-- Node313&#45;&gt;Node116 -->
<g id="edge107" class="edge">
<title>Node313&#45;&gt;Node116</title>
<path fill="none" stroke="#191970" d="M1563.1102,-545.4244C1559.5036,-508.6368 1545.9259,-370.1445 1540.8926,-318.8046"/>
<polygon fill="#191970" stroke="#191970" points="1544.3643,-318.3441 1539.9052,-308.7333 1537.3977,-319.0271 1544.3643,-318.3441"/>
</g>
<!-- Node313&#45;&gt;Node240 -->
<g id="edge106" class="edge">
<title>Node313&#45;&gt;Node240</title>
<path fill="none" stroke="#191970" d="M1498.5043,-546.0307C1416.5179,-535.429 1275.897,-517.2453 1185.4997,-505.556"/>
<polygon fill="#191970" stroke="#191970" points="1185.9173,-502.0809 1175.551,-504.2695 1185.0195,-509.0231 1185.9173,-502.0809"/>
</g>
<!-- Node313&#45;&gt;Node314 -->
<g id="edge108" class="edge">
<title>Node313&#45;&gt;Node314</title>
<path fill="none" stroke="#191970" d="M1585.545,-545.3085C1633.8156,-524.7152 1751.3618,-474.5675 1814.7787,-447.5125"/>
<polygon fill="#191970" stroke="#191970" points="1816.276,-450.679 1824.1005,-443.5356 1813.5291,-444.2404 1816.276,-450.679"/>
</g>
<!-- Node313&#45;&gt;Node316 -->
<g id="edge114" class="edge">
<title>Node313&#45;&gt;Node316</title>
<path fill="none" stroke="#191970" d="M1598.6889,-545.4096C1678.3603,-524.5314 1875.3983,-472.8967 1977.4533,-446.1527"/>
<polygon fill="#191970" stroke="#191970" points="1978.5386,-449.4866 1987.3247,-443.5658 1976.7641,-442.7152 1978.5386,-449.4866"/>
</g>
<!-- Node314&#45;&gt;Node1 -->
<g id="edge109" class="edge">
<title>Node314&#45;&gt;Node1</title>
<path fill="none" stroke="#191970" d="M1880.9181,-415.429C1914.036,-396.7375 1976.315,-364.4061 2034,-350 2091.696,-335.5912 2522.2949,-352.0459 2568,-314 2594.2626,-292.1384 2587,-273.671 2587,-239.5 2587,-239.5 2587,-239.5 2587,-119.5 2587,-82.6774 2567.9516,-71.4346 2535,-55 2473.3858,-24.27 1409.1175,-12.0217 1194.526,-9.8589"/>
<polygon fill="#191970" stroke="#191970" points="1194.4277,-6.3579 1184.3933,-9.758 1194.3579,-13.3575 1194.4277,-6.3579"/>
</g>
<!-- Node314&#45;&gt;Node2 -->
<g id="edge110" class="edge">
<title>Node314&#45;&gt;Node2</title>
<path fill="none" stroke="#191970" d="M1818.42,-415.4452C1797.5731,-406.7815 1772.0688,-394.3809 1752,-379 1708.2282,-345.4529 1719.2026,-311.7935 1671,-285 1633.9696,-264.4166 1522.9538,-251.4163 1449.2476,-244.8062"/>
<polygon fill="#191970" stroke="#191970" points="1449.3744,-241.304 1439.1065,-243.9158 1448.7621,-248.2772 1449.3744,-241.304"/>
</g>
<!-- Node314&#45;&gt;Node40 -->
<g id="edge111" class="edge">
<title>Node314&#45;&gt;Node40</title>
<path fill="none" stroke="#191970" d="M1911.8367,-421.3991C1997.8628,-408.6907 2163.2889,-384.2528 2246.5339,-371.9552"/>
<polygon fill="#191970" stroke="#191970" points="2247.1284,-375.4055 2256.5095,-370.4815 2246.1054,-368.4806 2247.1284,-375.4055"/>
</g>
<!-- Node314&#45;&gt;Node43 -->
<g id="edge112" class="edge">
<title>Node314&#45;&gt;Node43</title>
<path fill="none" stroke="#191970" d="M1864.7844,-415.3206C1875.6708,-396.9711 1897.2623,-365.5192 1925,-350 1969.4892,-325.1084 2111.7196,-310.0993 2190.395,-303.4921"/>
<polygon fill="#191970" stroke="#191970" points="2190.914,-306.9613 2200.5932,-302.6528 2190.3398,-299.9849 2190.914,-306.9613"/>
</g>
<!-- Node315 -->
<g id="node43" class="node">
<title>Node315</title>
<g id="a_node43"><a xlink:href="GradientColorMap_8ih_source.html" target="_top" xlink:title="DGtal/io/colormaps\l/GradientColorMap.ih">
<polygon fill="#ffffff" stroke="#000000" points="1761.478,-350.5 1761.478,-378.5 1872.522,-378.5 1872.522,-350.5 1761.478,-350.5"/>
<text text-anchor="start" x="1769.478" y="-366.5" font-family="FreeSans" font-size="10.00" fill="#000000">DGtal/io/colormaps</text>
<text text-anchor="middle" x="1817" y="-356.5" font-family="FreeSans" font-size="10.00" fill="#000000">/GradientColorMap.ih</text>
</a>
</g>
</g>
<!-- Node314&#45;&gt;Node315 -->
<g id="edge113" class="edge">
<title>Node314&#45;&gt;Node315</title>
<path fill="none" stroke="#191970" d="M1848.3206,-415.396C1843.2362,-407.1338 1836.6963,-396.5065 1830.9088,-387.1017"/>
<polygon fill="#191970" stroke="#191970" points="1833.8843,-385.2587 1825.6625,-378.5765 1827.9227,-388.9275 1833.8843,-385.2587"/>
</g>
<!-- Node316&#45;&gt;Node1 -->
<g id="edge115" class="edge">
<title>Node316&#45;&gt;Node1</title>
<path fill="none" stroke="#191970" d="M2097.0578,-415.4762C2128.3471,-406.7484 2167.6283,-394.2761 2201,-379 2223.3181,-368.7838 2224.7689,-357.9237 2248,-350 2320.5376,-325.2588 2528.7849,-358.7561 2591,-314 2620.5456,-292.7456 2625,-275.8963 2625,-239.5 2625,-239.5 2625,-239.5 2625,-119.5 2625,-80.0438 2599.9818,-71.1896 2564,-55 2499.8222,-26.1239 1411.8599,-12.3734 1194.5804,-9.9088"/>
<polygon fill="#191970" stroke="#191970" points="1194.3684,-6.4063 1184.3297,-9.7936 1194.2897,-13.4059 1194.3684,-6.4063"/>
</g>
<!-- Node316&#45;&gt;Node2 -->
<g id="edge116" class="edge">
<title>Node316&#45;&gt;Node2</title>
<path fill="none" stroke="#191970" d="M2015.2818,-415.4509C1984.2063,-398.7553 1930.0961,-370.5738 1882,-350 1803.4137,-316.3835 1783.9675,-305.549 1701,-285 1615.5591,-263.8384 1514.7188,-251.5518 1449.177,-245.1941"/>
<polygon fill="#191970" stroke="#191970" points="1449.2551,-241.6858 1438.9688,-244.2241 1448.5929,-248.6544 1449.2551,-241.6858"/>
</g>
<!-- Node316&#45;&gt;Node40 -->
<g id="edge117" class="edge">
<title>Node316&#45;&gt;Node40</title>
<path fill="none" stroke="#191970" d="M2098.5338,-415.3981C2138.9883,-405.4137 2194.361,-391.6091 2243,-379 2246.5442,-378.0812 2250.2163,-377.1184 2253.9017,-376.1444"/>
<polygon fill="#191970" stroke="#191970" points="2254.8445,-379.5154 2263.6092,-373.563 2253.0456,-372.7505 2254.8445,-379.5154"/>
</g>
<!-- Node316&#45;&gt;Node43 -->
<g id="edge118" class="edge">
<title>Node316&#45;&gt;Node43</title>
<path fill="none" stroke="#191970" d="M2093.4859,-415.4836C2118.5992,-407.2742 2148.2846,-395.2734 2172,-379 2196.8422,-361.9534 2219.0432,-334.6982 2232.0184,-316.9477"/>
<polygon fill="#191970" stroke="#191970" points="2234.9857,-318.8143 2237.9277,-308.6362 2229.2806,-314.7581 2234.9857,-318.8143"/>
</g>
<!-- Node317 -->
<g id="node45" class="node">
<title>Node317</title>
<g id="a_node45"><a xlink:href="HueShadeColorMap_8ih_source.html" target="_top" xlink:title="DGtal/io/colormaps\l/HueShadeColorMap.ih">
<polygon fill="#ffffff" stroke="#000000" points="2043.0249,-350.5 2043.0249,-378.5 2162.9751,-378.5 2162.9751,-350.5 2043.0249,-350.5"/>
<text text-anchor="start" x="2051.0249" y="-366.5" font-family="FreeSans" font-size="10.00" fill="#000000">DGtal/io/colormaps</text>
<text text-anchor="middle" x="2103" y="-356.5" font-family="FreeSans" font-size="10.00" fill="#000000">/HueShadeColorMap.ih</text>
</a>
</g>
</g>
<!-- Node316&#45;&gt;Node317 -->
<g id="edge119" class="edge">
<title>Node316&#45;&gt;Node317</title>
<path fill="none" stroke="#191970" d="M2054.4531,-415.396C2062.6589,-406.7931 2073.3106,-395.626 2082.545,-385.9448"/>
<polygon fill="#191970" stroke="#191970" points="2085.2037,-388.2284 2089.5732,-378.5765 2080.1384,-383.3969 2085.2037,-388.2284"/>
</g>
<!-- Node320&#45;&gt;Node1 -->
<g id="edge123" class="edge">
<title>Node320&#45;&gt;Node1</title>
<path fill="none" stroke="#191970" d="M2774.9501,-416.8602C2813.1461,-407.3965 2858.5174,-393.6122 2872,-379 2896.6354,-352.3007 2891,-335.8284 2891,-299.5 2891,-299.5 2891,-299.5 2891,-119.5 2891,-.0103 2748.377,-71.2687 2630,-55 2340.5105,-15.215 1394.8944,-10.2033 1194.5202,-9.5852"/>
<polygon fill="#191970" stroke="#191970" points="1194.2359,-6.0845 1184.2258,-9.5554 1194.2156,-13.0844 1194.2359,-6.0845"/>
</g>
<!-- Node320&#45;&gt;Node2 -->
<g id="edge124" class="edge">
<title>Node320&#45;&gt;Node2</title>
<path fill="none" stroke="#191970" d="M2707.9349,-415.3931C2687.3953,-384.874 2633.9314,-313.2003 2568,-285 2516.435,-262.9445 1695.8639,-245.5384 1449.4411,-240.7884"/>
<polygon fill="#191970" stroke="#191970" points="1449.2472,-237.2841 1439.1819,-240.5916 1449.1129,-244.2828 1449.2472,-237.2841"/>
</g>
<!-- Node320&#45;&gt;Node40 -->
<g id="edge125" class="edge">
<title>Node320&#45;&gt;Node40</title>
<path fill="none" stroke="#191970" d="M2659.0418,-420.5303C2576.342,-407.7315 2425.8382,-384.4392 2347.473,-372.3113"/>
<polygon fill="#191970" stroke="#191970" points="2347.7843,-368.8179 2337.3666,-370.7472 2346.7137,-375.7355 2347.7843,-368.8179"/>
</g>
<!-- Node320&#45;&gt;Node43 -->
<g id="edge126" class="edge">
<title>Node320&#45;&gt;Node43</title>
<path fill="none" stroke="#191970" d="M2698.7957,-415.4161C2674.2052,-397.1723 2628.3327,-365.8372 2584,-350 2532.3309,-331.542 2379.4643,-313.545 2297.4399,-304.8702"/>
<polygon fill="#191970" stroke="#191970" points="2297.6281,-301.3709 2287.3176,-303.809 2296.8982,-308.3327 2297.6281,-301.3709"/>
</g>
<!-- Node321 -->
<g id="node48" class="node">
<title>Node321</title>
<g id="a_node48"><a xlink:href="GrayscaleColorMap_8ih_source.html" target="_top" xlink:title="DGtal/io/colormaps\l/GrayscaleColorMap.ih">
<polygon fill="#ffffff" stroke="#000000" points="2745.1479,-350.5 2745.1479,-378.5 2862.8521,-378.5 2862.8521,-350.5 2745.1479,-350.5"/>
<text text-anchor="start" x="2753.1479" y="-366.5" font-family="FreeSans" font-size="10.00" fill="#000000">DGtal/io/colormaps</text>
<text text-anchor="middle" x="2804" y="-356.5" font-family="FreeSans" font-size="10.00" fill="#000000">/GrayscaleColorMap.ih</text>
</a>
</g>
</g>
<!-- Node320&#45;&gt;Node321 -->
<g id="edge127" class="edge">
<title>Node320&#45;&gt;Node321</title>
<path fill="none" stroke="#191970" d="M2735.8777,-415.396C2747.8484,-406.4524 2763.5283,-394.7375 2776.8269,-384.8018"/>
<polygon fill="#191970" stroke="#191970" points="2779.2429,-387.3657 2785.1591,-378.5765 2775.0532,-381.7579 2779.2429,-387.3657"/>
</g>
<!-- Node322&#45;&gt;Node1 -->
<g id="edge130" class="edge">
<title>Node322&#45;&gt;Node1</title>
<path fill="none" stroke="#191970" d="M2514.4038,-415.4037C2538.1254,-407.6514 2564.2509,-396.0344 2584,-379 2637.9541,-332.4624 2663,-310.7516 2663,-239.5 2663,-239.5 2663,-239.5 2663,-119.5 2663,-78.1661 2634.0872,-71.0581 2596,-55 2529.576,-26.9947 1414.0375,-12.5114 1194.3788,-9.9241"/>
<polygon fill="#191970" stroke="#191970" points="1194.3562,-6.4237 1184.316,-9.8066 1194.2744,-13.4232 1194.3562,-6.4237"/>
</g>
<!-- Node322&#45;&gt;Node2 -->
<g id="edge131" class="edge">
<title>Node322&#45;&gt;Node2</title>
<path fill="none" stroke="#191970" d="M2443.7352,-415.4408C2422.2601,-384.3482 2365.5655,-310.4911 2296,-285 2217.337,-256.1753 1648.8922,-243.9925 1449.1639,-240.5706"/>
<polygon fill="#191970" stroke="#191970" points="1449.1427,-237.0698 1439.0848,-240.4 1449.0241,-244.0688 1449.1427,-237.0698"/>
</g>
<!-- Node322&#45;&gt;Node40 -->
<g id="edge132" class="edge">
<title>Node322&#45;&gt;Node40</title>
<path fill="none" stroke="#191970" d="M2419.1503,-415.396C2392.134,-404.1392 2354.5811,-388.4921 2328.2675,-377.5281"/>
<polygon fill="#191970" stroke="#191970" points="2329.3553,-374.1897 2318.7783,-373.5743 2326.6629,-380.6513 2329.3553,-374.1897"/>
</g>
<!-- Node322&#45;&gt;Node43 -->
<g id="edge133" class="edge">
<title>Node322&#45;&gt;Node43</title>
<path fill="none" stroke="#191970" d="M2435.8833,-415.2711C2415.303,-398.5268 2379.3562,-370.4214 2346,-350 2322.7227,-335.7491 2294.8702,-322.175 2274.156,-312.6961"/>
<polygon fill="#191970" stroke="#191970" points="2275.4523,-309.4412 2264.8981,-308.5143 2272.5707,-315.8206 2275.4523,-309.4412"/>
</g>
<!-- Node323 -->
<g id="node50" class="node">
<title>Node323</title>
<g id="a_node50"><a xlink:href="ColorBrightnessColorMap_8ih_source.html" target="_top" xlink:title="DGtal/io/colormaps\l/ColorBrightnessColorMap.ih">
<polygon fill="#ffffff" stroke="#000000" points="2431.084,-350.5 2431.084,-378.5 2574.916,-378.5 2574.916,-350.5 2431.084,-350.5"/>
<text text-anchor="start" x="2439.084" y="-366.5" font-family="FreeSans" font-size="10.00" fill="#000000">DGtal/io/colormaps</text>
<text text-anchor="middle" x="2503" y="-356.5" font-family="FreeSans" font-size="10.00" fill="#000000">/ColorBrightnessColorMap.ih</text>
</a>
</g>
</g>
<!-- Node322&#45;&gt;Node323 -->
<g id="edge134" class="edge">
<title>Node322&#45;&gt;Node323</title>
<path fill="none" stroke="#191970" d="M2463.8493,-415.396C2470.3358,-406.9634 2478.7175,-396.0673 2486.0603,-386.5216"/>
<polygon fill="#191970" stroke="#191970" points="2488.849,-388.6368 2492.1719,-378.5765 2483.3006,-384.3688 2488.849,-388.6368"/>
</g>
</g>
</svg>
        <g id="navigator" transform="translate(0 0)" fill="#404254">
                <rect fill="#f2f5e9" fill-opacity="0.5" stroke="#606060" stroke-width=".5" x="0" y="0" width="60" height="60"/>
                <use id="zoomplus" xlink:href="#zoomPlus" x="17" y="9" onmousedown="handleZoom(evt,'in')"/>
                <use id="zoomminus" xlink:href="#zoomMin" x="42" y="9" onmousedown="handleZoom(evt,'out')"/>
                <use id="reset" xlink:href="#resetDef" x="30" y="36" onmousedown="handleReset()"/>
                <g id="arrowUp" xlink:href="#dirArrow" transform="translate(30 24)" onmousedown="handlePan(0,-1)">
                  <use xlink:href="#rim" fill="#404040">
                        <set attributeName="fill" to="#808080" begin="arrowUp.mouseover" end="arrowUp.mouseout"/>
                  </use>
                  <path fill="none" stroke="white" stroke-width="1.5" d="M0,-3.0v7 M-2.5,-0.5L0,-3.0L2.5,-0.5"/>
                </g>
                <g id="arrowRight" xlink:href="#dirArrow" transform="rotate(90) translate(36 -43)" onmousedown="handlePan(1,0)">
                  <use xlink:href="#rim" fill="#404040">
                        <set attributeName="fill" to="#808080" begin="arrowRight.mouseover" end="arrowRight.mouseout"/>
                  </use>
                  <path fill="none" stroke="white" stroke-width="1.5" d="M0,-3.0v7 M-2.5,-0.5L0,-3.0L2.5,-0.5"/>
                </g>
                <g id="arrowDown" xlink:href="#dirArrow" transform="rotate(180) translate(-30 -48)" onmousedown="handlePan(0,1)">
                  <use xlink:href="#rim" fill="#404040">
                        <set attributeName="fill" to="#808080" begin="arrowDown.mouseover" end="arrowDown.mouseout"/>
                  </use>
                  <path fill="none" stroke="white" stroke-width="1.5" d="M0,-3.0v7 M-2.5,-0.5L0,-3.0L2.5,-0.5"/>
                </g>
                <g id="arrowLeft" xlink:href="#dirArrow" transform="rotate(270) translate(-36 17)" onmousedown="handlePan(-1,0)">
                  <use xlink:href="#rim" fill="#404040">
                        <set attributeName="fill" to="#808080" begin="arrowLeft.mouseover" end="arrowLeft.mouseout"/>
                  </use>
                  <path fill="none" stroke="white" stroke-width="1.5" d="M0,-3.0v7 M-2.5,-0.5L0,-3.0L2.5,-0.5"/>
                </g>
        </g>
        <svg viewBox="0 0 15 15" width="100%" height="30px" preserveAspectRatio="xMaxYMin meet">
         <g id="arrow_out" transform="scale(0.3 0.3)">
          <a xlink:href="testHashTree_8cpp__incl_org.svg" target="_base">
           <rect id="button" ry="5" rx="5" y="6" x="6" height="38" width="38"
                fill="#f2f5e9" fill-opacity="0.5" stroke="#606060" stroke-width="1.0"/>
           <path id="arrow"
             d="M 11.500037,31.436501 C 11.940474,20.09759 22.043105,11.32322 32.158766,21.979434 L 37.068811,17.246167 C 37.068811,17.246167 37.088388,32 37.088388,32 L 22.160133,31.978069 C 22.160133,31.978069 26.997745,27.140456 26.997745,27.140456 C 18.528582,18.264221 13.291696,25.230495 11.500037,31.436501 z"
             style="fill:#404040;"/>
          </a>
         </g>
        </svg>
</svg>
