<?xml version="1.0" encoding="UTF-8" standalone="no"?>
<!DOCTYPE svg PUBLIC "-//W3C//DTD SVG 1.1//EN"
 "http://www.w3.org/Graphics/SVG/1.1/DTD/svg11.dtd">
<!-- Generated by graphviz version 2.40.1 (20161225.0304)
 -->
<!-- Title: testReverseDT.cpp Pages: 1 -->
<svg width="3221pt" height="637pt"
 viewBox="0.00 0.00 3221.19 637.00" xmlns="http://www.w3.org/2000/svg" xmlns:xlink="http://www.w3.org/1999/xlink">
<g id="graph0" class="graph" transform="scale(1 1) rotate(0) translate(4 633)">
<title>testReverseDT.cpp</title>
<polygon fill="#ffffff" stroke="transparent" points="-4,4 -4,-633 3217.1943,-633 3217.1943,4 -4,4"/>
<!-- Node0 -->
<g id="node1" class="node">
<title>Node0</title>
<polygon fill="#bfbfbf" stroke="#000000" points="2331.7612,-610.5 2331.7612,-628.5 2432.2388,-628.5 2432.2388,-610.5 2331.7612,-610.5"/>
<text text-anchor="middle" x="2382" y="-616.5" font-family="FreeSans" font-size="10.00" fill="#000000">testReverseDT.cpp</text>
</g>
<!-- Node1 -->
<g id="node2" class="node">
<title>Node1</title>
<polygon fill="#ffffff" stroke="#bfbfbf" points="1138.8276,-.5 1138.8276,-18.5 1193.1724,-18.5 1193.1724,-.5 1138.8276,-.5"/>
<text text-anchor="middle" x="1166" y="-6.5" font-family="FreeSans" font-size="10.00" fill="#000000">iostream</text>
</g>
<!-- Node0&#45;&gt;Node1 -->
<g id="edge1" class="edge">
<title>Node0&#45;&gt;Node1</title>
<path fill="none" stroke="#191970" d="M2331.3164,-619.0696C2030.9788,-616.4306 490.6609,-601.6302 282,-574 154.0335,-557.0551 0,-633.5836 0,-504.5 0,-504.5 0,-504.5 0,-119.5 0,-80.9478 23.1153,-71.4113 58,-55 107.4248,-31.7483 940.1587,-13.9609 1128.3914,-10.2256"/>
<polygon fill="#191970" stroke="#191970" points="1128.6856,-13.7206 1138.6146,-10.0241 1128.5476,-6.722 1128.6856,-13.7206"/>
</g>
<!-- Node2 -->
<g id="node3" class="node">
<title>Node2</title>
<g id="a_node3"><a xlink:href="Common_8h_source.html" target="_top" xlink:title="DGtal/base/Common.h">
<polygon fill="#ffffff" stroke="#000000" points="1397.1455,-230.5 1397.1455,-248.5 1514.8545,-248.5 1514.8545,-230.5 1397.1455,-230.5"/>
<text text-anchor="middle" x="1456" y="-236.5" font-family="FreeSans" font-size="10.00" fill="#000000">DGtal/base/Common.h</text>
</a>
</g>
</g>
<!-- Node0&#45;&gt;Node2 -->
<g id="edge2" class="edge">
<title>Node0&#45;&gt;Node2</title>
<path fill="none" stroke="#191970" d="M2331.5285,-618.8391C2133.1782,-615.5855 1418,-597.412 1418,-504.5 1418,-504.5 1418,-504.5 1418,-439.5 1418,-371.8892 1439.2187,-293.6457 1449.9447,-258.4131"/>
<polygon fill="#191970" stroke="#191970" points="1453.3835,-259.1419 1453.0182,-248.5533 1446.7007,-257.0586 1453.3835,-259.1419"/>
</g>
<!-- Node39 -->
<g id="node25" class="node">
<title>Node39</title>
<g id="a_node25"><a xlink:href="StdDefs_8h_source.html" target="_top" xlink:title="DGtal/helpers/StdDefs.h">
<polygon fill="#ffffff" stroke="#000000" points="948.0864,-555.5 948.0864,-573.5 1071.9136,-573.5 1071.9136,-555.5 948.0864,-555.5"/>
<text text-anchor="middle" x="1010" y="-561.5" font-family="FreeSans" font-size="10.00" fill="#000000">DGtal/helpers/StdDefs.h</text>
</a>
</g>
</g>
<!-- Node0&#45;&gt;Node39 -->
<g id="edge41" class="edge">
<title>Node0&#45;&gt;Node39</title>
<path fill="none" stroke="#191970" d="M2331.5426,-617.4773C2122.9086,-609.1137 1327.1071,-577.212 1082.1755,-567.3933"/>
<polygon fill="#191970" stroke="#191970" points="1082.0977,-563.8875 1071.9655,-566.984 1081.8173,-570.8819 1082.0977,-563.8875"/>
</g>
<!-- Node151 -->
<g id="node37" class="node">
<title>Node151</title>
<g id="a_node37"><a xlink:href="ExactPredicateLpSeparableMetric_8h_source.html" target="_top" xlink:title="DGtal/geometry/volumes\l/distance/ExactPredicateLpSeparable\lMetric.h">
<polygon fill="#ffffff" stroke="#ff0000" points="357.6138,-285.5 357.6138,-323.5 540.3862,-323.5 540.3862,-285.5 357.6138,-285.5"/>
<text text-anchor="start" x="365.6138" y="-311.5" font-family="FreeSans" font-size="10.00" fill="#000000">DGtal/geometry/volumes</text>
<text text-anchor="start" x="365.6138" y="-301.5" font-family="FreeSans" font-size="10.00" fill="#000000">/distance/ExactPredicateLpSeparable</text>
<text text-anchor="middle" x="449" y="-291.5" font-family="FreeSans" font-size="10.00" fill="#000000">Metric.h</text>
</a>
</g>
</g>
<!-- Node0&#45;&gt;Node151 -->
<g id="edge122" class="edge">
<title>Node0&#45;&gt;Node151</title>
<path fill="none" stroke="#191970" d="M2331.4555,-619.1866C2145.7389,-617.7631 1483.5725,-610.2885 939,-574 786.9966,-563.871 257,-656.8405 257,-504.5 257,-504.5 257,-504.5 257,-439.5 257,-382.1507 315.0307,-347.056 367.2854,-327.0797"/>
<polygon fill="#191970" stroke="#191970" points="368.7815,-330.2588 376.96,-323.5237 366.3665,-323.6886 368.7815,-330.2588"/>
</g>
<!-- Node158 -->
<g id="node39" class="node">
<title>Node158</title>
<g id="a_node39"><a xlink:href="ImageSelector_8h_source.html" target="_top" xlink:title="DGtal/images/ImageSelector.h">
<polygon fill="#ffffff" stroke="#000000" points="1876.1875,-495.5 1876.1875,-513.5 2027.8125,-513.5 2027.8125,-495.5 1876.1875,-495.5"/>
<text text-anchor="middle" x="1952" y="-501.5" font-family="FreeSans" font-size="10.00" fill="#000000">DGtal/images/ImageSelector.h</text>
</a>
</g>
</g>
<!-- Node0&#45;&gt;Node158 -->
<g id="edge90" class="edge">
<title>Node0&#45;&gt;Node158</title>
<path fill="none" stroke="#191970" d="M2348.2586,-610.4761C2271.0332,-589.8228 2081.4912,-539.1314 1995.5849,-516.1564"/>
<polygon fill="#191970" stroke="#191970" points="1996.4464,-512.7639 1985.8816,-513.5614 1994.6378,-519.5262 1996.4464,-512.7639"/>
</g>
<!-- Node183 -->
<g id="node45" class="node">
<title>Node183</title>
<g id="a_node45"><a xlink:href="DistanceTransformation_8h_source.html" target="_top" xlink:title="Linear in time distance transformation. ">
<polygon fill="#ffffff" stroke="#ff0000" points="2428.5356,-425.5 2428.5356,-453.5 2601.4644,-453.5 2601.4644,-425.5 2428.5356,-425.5"/>
<text text-anchor="start" x="2436.5356" y="-441.5" font-family="FreeSans" font-size="10.00" fill="#000000">DGtal/geometry/volumes</text>
<text text-anchor="middle" x="2515" y="-431.5" font-family="FreeSans" font-size="10.00" fill="#000000">/distance/DistanceTransformation.h</text>
</a>
</g>
</g>
<!-- Node0&#45;&gt;Node183 -->
<g id="edge116" class="edge">
<title>Node0&#45;&gt;Node183</title>
<path fill="none" stroke="#191970" d="M2397.6378,-610.2494C2422.5123,-594.6869 2470.8448,-560.8301 2496,-519 2506.1386,-502.1406 2510.8684,-480.227 2513.0741,-463.6774"/>
<polygon fill="#191970" stroke="#191970" points="2516.5586,-464.0103 2514.1907,-453.6835 2509.6019,-463.2331 2516.5586,-464.0103"/>
</g>
<!-- Node193 -->
<g id="node46" class="node">
<title>Node193</title>
<g id="a_node46"><a xlink:href="ReverseDistanceTransformation_8h_source.html" target="_top" xlink:title="Linear in time distance transformation. ">
<polygon fill="#ffffff" stroke="#ff0000" points="2276.9175,-490.5 2276.9175,-518.5 2487.0825,-518.5 2487.0825,-490.5 2276.9175,-490.5"/>
<text text-anchor="start" x="2284.9175" y="-506.5" font-family="FreeSans" font-size="10.00" fill="#000000">DGtal/geometry/volumes</text>
<text text-anchor="middle" x="2382" y="-496.5" font-family="FreeSans" font-size="10.00" fill="#000000">/distance/ReverseDistanceTransformation.h</text>
</a>
</g>
</g>
<!-- Node0&#45;&gt;Node193 -->
<g id="edge123" class="edge">
<title>Node0&#45;&gt;Node193</title>
<path fill="none" stroke="#191970" d="M2382,-610.4761C2382,-593.0557 2382,-554.265 2382,-528.7612"/>
<polygon fill="#191970" stroke="#191970" points="2385.5001,-528.7455 2382,-518.7455 2378.5001,-528.7455 2385.5001,-528.7455"/>
</g>
<!-- Node198 -->
<g id="node47" class="node">
<title>Node198</title>
<g id="a_node47"><a xlink:href="HueShadeColorMap_8h_source.html" target="_top" xlink:title="DGtal/io/colormaps\l/HueShadeColorMap.h">
<polygon fill="#ffffff" stroke="#ff0000" points="2552.1357,-290.5 2552.1357,-318.5 2669.8643,-318.5 2669.8643,-290.5 2552.1357,-290.5"/>
<text text-anchor="start" x="2560.1357" y="-306.5" font-family="FreeSans" font-size="10.00" fill="#000000">DGtal/io/colormaps</text>
<text text-anchor="middle" x="2611" y="-296.5" font-family="FreeSans" font-size="10.00" fill="#000000">/HueShadeColorMap.h</text>
</a>
</g>
</g>
<!-- Node0&#45;&gt;Node198 -->
<g id="edge130" class="edge">
<title>Node0&#45;&gt;Node198</title>
<path fill="none" stroke="#191970" d="M2432.3262,-612.5878C2524.4889,-598.5089 2711,-562.8135 2711,-504.5 2711,-504.5 2711,-504.5 2711,-439.5 2711,-390.9777 2668.7706,-348.5093 2639.1967,-324.7174"/>
<polygon fill="#191970" stroke="#191970" points="2641.2753,-321.8999 2631.2365,-318.5126 2636.9718,-327.4208 2641.2753,-321.8999"/>
</g>
<!-- Node217 -->
<g id="node48" class="node">
<title>Node217</title>
<g id="a_node48"><a xlink:href="DigitalSetBySTLSet_8h_source.html" target="_top" xlink:title="DGtal/kernel/sets/Digital\lSetBySTLSet.h">
<polygon fill="#ffffff" stroke="#ff0000" points="2687.3696,-290.5 2687.3696,-318.5 2810.6304,-318.5 2810.6304,-290.5 2687.3696,-290.5"/>
<text text-anchor="start" x="2695.3696" y="-306.5" font-family="FreeSans" font-size="10.00" fill="#000000">DGtal/kernel/sets/Digital</text>
<text text-anchor="middle" x="2749" y="-296.5" font-family="FreeSans" font-size="10.00" fill="#000000">SetBySTLSet.h</text>
</a>
</g>
</g>
<!-- Node0&#45;&gt;Node217 -->
<g id="edge133" class="edge">
<title>Node0&#45;&gt;Node217</title>
<path fill="none" stroke="#191970" d="M2432.4231,-613.5695C2498.5437,-605.3368 2610.6429,-589.6807 2649,-574 2699.0995,-553.5189 2749,-558.6242 2749,-504.5 2749,-504.5 2749,-504.5 2749,-439.5 2749,-400.7732 2749,-355.7974 2749,-328.773"/>
<polygon fill="#191970" stroke="#191970" points="2752.5001,-328.6885 2749,-318.6885 2745.5001,-328.6885 2752.5001,-328.6885"/>
</g>
<!-- Node219 -->
<g id="node49" class="node">
<title>Node219</title>
<g id="a_node49"><a xlink:href="Board2D_8h_source.html" target="_top" xlink:title="DGtal/io/boards/Board2D.h">
<polygon fill="#ffffff" stroke="#ff0000" points="2866.9683,-295.5 2866.9683,-313.5 3003.0317,-313.5 3003.0317,-295.5 2866.9683,-295.5"/>
<text text-anchor="middle" x="2935" y="-301.5" font-family="FreeSans" font-size="10.00" fill="#000000">DGtal/io/boards/Board2D.h</text>
</a>
</g>
</g>
<!-- Node0&#45;&gt;Node219 -->
<g id="edge136" class="edge">
<title>Node0&#45;&gt;Node219</title>
<path fill="none" stroke="#191970" d="M2432.3561,-618.0273C2555.3375,-613.0683 2861,-591.9471 2861,-504.5 2861,-504.5 2861,-504.5 2861,-439.5 2861,-391.9216 2896.7807,-345.2357 2918.5813,-321.2063"/>
<polygon fill="#191970" stroke="#191970" points="2921.3435,-323.3773 2925.6278,-313.6873 2916.2359,-318.5906 2921.3435,-323.3773"/>
</g>
<!-- Node334 -->
<g id="node50" class="node">
<title>Node334</title>
<g id="a_node50"><a xlink:href="SimpleThresholdForegroundPredicate_8h_source.html" target="_top" xlink:title="DGtal/images/SimpleThreshold\lForegroundPredicate.h">
<polygon fill="#ffffff" stroke="#ff0000" points="3058.8057,-290.5 3058.8057,-318.5 3213.1943,-318.5 3213.1943,-290.5 3058.8057,-290.5"/>
<text text-anchor="start" x="3066.8057" y="-306.5" font-family="FreeSans" font-size="10.00" fill="#000000">DGtal/images/SimpleThreshold</text>
<text text-anchor="middle" x="3136" y="-296.5" font-family="FreeSans" font-size="10.00" fill="#000000">ForegroundPredicate.h</text>
</a>
</g>
</g>
<!-- Node0&#45;&gt;Node334 -->
<g id="edge139" class="edge">
<title>Node0&#45;&gt;Node334</title>
<path fill="none" stroke="#191970" d="M2432.5092,-616.191C2588.7905,-605.2853 3054,-567.5281 3054,-504.5 3054,-504.5 3054,-504.5 3054,-439.5 3054,-393.7733 3088.7909,-350.3386 3113.0494,-325.611"/>
<polygon fill="#191970" stroke="#191970" points="3115.5364,-328.074 3120.1896,-318.5557 3110.6163,-323.0947 3115.5364,-328.074"/>
</g>
<!-- Node2&#45;&gt;Node1 -->
<g id="edge3" class="edge">
<title>Node2&#45;&gt;Node1</title>
<path fill="none" stroke="#191970" d="M1515.0946,-233.7728C1591.7016,-225.7425 1717.1883,-210.2846 1731,-194 1765.6264,-153.1737 1757.1467,-108.3336 1683,-55 1644.2922,-27.1576 1316.1377,-14.2508 1203.654,-10.6158"/>
<polygon fill="#191970" stroke="#191970" points="1203.5645,-7.1113 1193.4587,-10.2928 1203.3428,-14.1078 1203.5645,-7.1113"/>
</g>
<!-- Node3 -->
<g id="node4" class="node">
<title>Node3</title>
<polygon fill="#ffffff" stroke="#bfbfbf" points="1346.5962,-170.5 1346.5962,-188.5 1405.4038,-188.5 1405.4038,-170.5 1346.5962,-170.5"/>
<text text-anchor="middle" x="1376" y="-176.5" font-family="FreeSans" font-size="10.00" fill="#000000">exception</text>
</g>
<!-- Node2&#45;&gt;Node3 -->
<g id="edge4" class="edge">
<title>Node2&#45;&gt;Node3</title>
<path fill="none" stroke="#191970" d="M1443.8497,-230.3873C1431.2072,-220.9054 1411.1959,-205.897 1396.1759,-194.6319"/>
<polygon fill="#191970" stroke="#191970" points="1398.1025,-191.7019 1388.0025,-188.5019 1393.9025,-197.3019 1398.1025,-191.7019"/>
</g>
<!-- Node4 -->
<g id="node5" class="node">
<title>Node4</title>
<polygon fill="#ffffff" stroke="#bfbfbf" points="746.436,-110.5 746.436,-128.5 803.564,-128.5 803.564,-110.5 746.436,-110.5"/>
<text text-anchor="middle" x="775" y="-116.5" font-family="FreeSans" font-size="10.00" fill="#000000">algorithm</text>
</g>
<!-- Node2&#45;&gt;Node4 -->
<g id="edge5" class="edge">
<title>Node2&#45;&gt;Node4</title>
<path fill="none" stroke="#191970" d="M1397.0559,-231.6396C1392.3029,-231.0636 1387.5727,-230.5095 1383,-230 1210.88,-210.8221 1158.1009,-252.2339 995,-194 973.291,-186.249 973.0244,-174.4516 952,-165 927.5019,-153.9868 857.9862,-137.6389 813.7156,-127.8301"/>
<polygon fill="#191970" stroke="#191970" points="814.3815,-124.393 803.863,-125.6626 812.8774,-131.2295 814.3815,-124.393"/>
</g>
<!-- Node5 -->
<g id="node6" class="node">
<title>Node5</title>
<polygon fill="#ffffff" stroke="#bfbfbf" points="1460.5298,-170.5 1460.5298,-188.5 1555.4702,-188.5 1555.4702,-170.5 1460.5298,-170.5"/>
<text text-anchor="middle" x="1508" y="-176.5" font-family="FreeSans" font-size="10.00" fill="#000000">boost/version.hpp</text>
</g>
<!-- Node2&#45;&gt;Node5 -->
<g id="edge6" class="edge">
<title>Node2&#45;&gt;Node5</title>
<path fill="none" stroke="#191970" d="M1463.8977,-230.3873C1471.6861,-221.4007 1483.7767,-207.4499 1493.3302,-196.4267"/>
<polygon fill="#191970" stroke="#191970" points="1496.1236,-198.5477 1500.028,-188.6985 1490.8337,-193.9631 1496.1236,-198.5477"/>
</g>
<!-- Node6 -->
<g id="node7" class="node">
<title>Node6</title>
<polygon fill="#ffffff" stroke="#bfbfbf" points="1573.2935,-170.5 1573.2935,-188.5 1702.7065,-188.5 1702.7065,-170.5 1573.2935,-170.5"/>
<text text-anchor="middle" x="1638" y="-176.5" font-family="FreeSans" font-size="10.00" fill="#000000">boost/concept_check.hpp</text>
</g>
<!-- Node2&#45;&gt;Node6 -->
<g id="edge7" class="edge">
<title>Node2&#45;&gt;Node6</title>
<path fill="none" stroke="#191970" d="M1483.6419,-230.3873C1514.9573,-220.0635 1566.1453,-203.1883 1600.9132,-191.7264"/>
<polygon fill="#191970" stroke="#191970" points="1602.2929,-194.9569 1610.6943,-188.5019 1600.1012,-188.3089 1602.2929,-194.9569"/>
</g>
<!-- Node7 -->
<g id="node8" class="node">
<title>Node7</title>
<polygon fill="#ffffff" stroke="#bfbfbf" points="1796.5815,-170.5 1796.5815,-188.5 1915.4185,-188.5 1915.4185,-170.5 1796.5815,-170.5"/>
<text text-anchor="middle" x="1856" y="-176.5" font-family="FreeSans" font-size="10.00" fill="#000000">boost/static_assert.hpp</text>
</g>
<!-- Node2&#45;&gt;Node7 -->
<g id="edge8" class="edge">
<title>Node2&#45;&gt;Node7</title>
<path fill="none" stroke="#191970" d="M1514.933,-232.342C1580.5283,-224.1326 1689.6027,-209.76 1783,-194 1789.3546,-192.9277 1796.004,-191.7229 1802.5921,-190.4778"/>
<polygon fill="#191970" stroke="#191970" points="1803.6866,-193.8313 1812.8431,-188.5015 1802.3614,-186.9579 1803.6866,-193.8313"/>
</g>
<!-- Node8 -->
<g id="node9" class="node">
<title>Node8</title>
<polygon fill="#ffffff" stroke="#bfbfbf" points="1933.1309,-170.5 1933.1309,-188.5 2060.8691,-188.5 2060.8691,-170.5 1933.1309,-170.5"/>
<text text-anchor="middle" x="1997" y="-176.5" font-family="FreeSans" font-size="10.00" fill="#000000">boost/concept/assert.hpp</text>
</g>
<!-- Node2&#45;&gt;Node8 -->
<g id="edge9" class="edge">
<title>Node2&#45;&gt;Node8</title>
<path fill="none" stroke="#191970" d="M1514.9629,-235.6519C1603.9225,-229.4211 1777.6249,-215.5984 1924,-194 1930.7849,-192.9989 1937.8944,-191.7895 1944.9023,-190.5014"/>
<polygon fill="#191970" stroke="#191970" points="1945.8769,-193.8789 1955.0472,-188.5728 1944.5695,-187.002 1945.8769,-193.8789"/>
</g>
<!-- Node9 -->
<g id="node10" class="node">
<title>Node9</title>
<polygon fill="#ffffff" stroke="#bfbfbf" points="2078.6826,-170.5 2078.6826,-188.5 2215.3174,-188.5 2215.3174,-170.5 2078.6826,-170.5"/>
<text text-anchor="middle" x="2147" y="-176.5" font-family="FreeSans" font-size="10.00" fill="#000000">boost/concept/requires.hpp</text>
</g>
<!-- Node2&#45;&gt;Node9 -->
<g id="edge10" class="edge">
<title>Node2&#45;&gt;Node9</title>
<path fill="none" stroke="#191970" d="M1515.0668,-237.328C1624.7803,-232.805 1867.3001,-220.5108 2070,-194 2077.6819,-192.9953 2085.7569,-191.72 2093.6697,-190.3441"/>
<polygon fill="#191970" stroke="#191970" points="2094.3438,-193.7791 2103.5643,-188.5605 2093.1019,-186.8902 2094.3438,-193.7791"/>
</g>
<!-- Node10 -->
<g id="node11" class="node">
<title>Node10</title>
<polygon fill="#ffffff" stroke="#bfbfbf" points="2232.8672,-165.5 2232.8672,-193.5 2341.1328,-193.5 2341.1328,-165.5 2232.8672,-165.5"/>
<text text-anchor="start" x="2240.8672" y="-181.5" font-family="FreeSans" font-size="10.00" fill="#000000">boost/iterator/iterator</text>
<text text-anchor="middle" x="2287" y="-171.5" font-family="FreeSans" font-size="10.00" fill="#000000">_concepts.hpp</text>
</g>
<!-- Node2&#45;&gt;Node10 -->
<g id="edge11" class="edge">
<title>Node2&#45;&gt;Node10</title>
<path fill="none" stroke="#191970" d="M1514.8803,-237.2871C1666.501,-231.3893 2068.6339,-214.4331 2222.5983,-193.9912"/>
<polygon fill="#191970" stroke="#191970" points="2223.3868,-197.4155 2232.8121,-192.5767 2222.4265,-190.4817 2223.3868,-197.4155"/>
</g>
<!-- Node11 -->
<g id="node12" class="node">
<title>Node11</title>
<polygon fill="#ffffff" stroke="#bfbfbf" points="2359.397,-170.5 2359.397,-188.5 2506.603,-188.5 2506.603,-170.5 2359.397,-170.5"/>
<text text-anchor="middle" x="2433" y="-176.5" font-family="FreeSans" font-size="10.00" fill="#000000">boost/concept_archetype.hpp</text>
</g>
<!-- Node2&#45;&gt;Node11 -->
<g id="edge12" class="edge">
<title>Node2&#45;&gt;Node11</title>
<path fill="none" stroke="#191970" d="M1515.0417,-238.9835C1658.5076,-237.1877 2036.6855,-229.2077 2350,-194 2358.7662,-193.0149 2368.0081,-191.6893 2377.0152,-190.2383"/>
<polygon fill="#191970" stroke="#191970" points="2377.7623,-193.662 2387.0468,-188.5582 2376.606,-186.7582 2377.7623,-193.662"/>
</g>
<!-- Node12 -->
<g id="node13" class="node">
<title>Node12</title>
<polygon fill="#ffffff" stroke="#bfbfbf" points="575.3843,-110.5 575.3843,-128.5 618.6157,-128.5 618.6157,-110.5 575.3843,-110.5"/>
<text text-anchor="middle" x="597" y="-116.5" font-family="FreeSans" font-size="10.00" fill="#000000">cmath</text>
</g>
<!-- Node2&#45;&gt;Node12 -->
<g id="edge13" class="edge">
<title>Node2&#45;&gt;Node12</title>
<path fill="none" stroke="#191970" d="M1397.0666,-231.5386C1392.3112,-230.9852 1387.5775,-230.4639 1383,-230 1273.2716,-218.8791 991.1335,-233.083 888,-194 868.1335,-186.4715 869.4426,-173.564 850,-165 810.7823,-147.7256 688.0235,-130.7629 629.1366,-123.3658"/>
<polygon fill="#191970" stroke="#191970" points="629.2739,-119.8561 618.919,-122.098 628.4119,-126.8028 629.2739,-119.8561"/>
</g>
<!-- Node13 -->
<g id="node14" class="node">
<title>Node13</title>
<polygon fill="#ffffff" stroke="#bfbfbf" points="897.2686,-170.5 897.2686,-188.5 942.7314,-188.5 942.7314,-170.5 897.2686,-170.5"/>
<text text-anchor="middle" x="920" y="-176.5" font-family="FreeSans" font-size="10.00" fill="#000000">stdio.h</text>
</g>
<!-- Node2&#45;&gt;Node13 -->
<g id="edge14" class="edge">
<title>Node2&#45;&gt;Node13</title>
<path fill="none" stroke="#191970" d="M1397.0605,-231.598C1392.3064,-231.0313 1387.5747,-230.4907 1383,-230 1194.0756,-209.7347 1142.052,-237.1144 957,-194 954.5307,-193.4247 952.0078,-192.7157 949.4977,-191.9234"/>
<polygon fill="#191970" stroke="#191970" points="950.6144,-188.6059 940.0197,-188.5602 948.2735,-195.2029 950.6144,-188.6059"/>
</g>
<!-- Node14 -->
<g id="node15" class="node">
<title>Node14</title>
<g id="a_node15"><a xlink:href="Config_8h_source.html" target="_top" xlink:title="DGtal/base/Config.h">
<polygon fill="#ffffff" stroke="#ff0000" points="782.9756,-55.5 782.9756,-73.5 889.0244,-73.5 889.0244,-55.5 782.9756,-55.5"/>
<text text-anchor="middle" x="836" y="-61.5" font-family="FreeSans" font-size="10.00" fill="#000000">DGtal/base/Config.h</text>
</a>
</g>
</g>
<!-- Node2&#45;&gt;Node14 -->
<g id="edge15" class="edge">
<title>Node2&#45;&gt;Node14</title>
<path fill="none" stroke="#191970" d="M1397.051,-231.6829C1392.2991,-231.0971 1387.5705,-230.529 1383,-230 1225.4648,-211.7654 1176.1859,-250.4868 1028,-194 1007.4817,-186.1787 1007.6475,-174.8055 988,-165 939.3198,-140.7052 913.0964,-163.4659 871,-129 856.7031,-117.2946 847.372,-98.1506 841.9688,-83.7531"/>
<polygon fill="#191970" stroke="#191970" points="845.1358,-82.1977 838.5854,-73.8704 838.5132,-84.465 845.1358,-82.1977"/>
</g>
<!-- Node16 -->
<g id="node16" class="node">
<title>Node16</title>
<g id="a_node16"><a xlink:href="Trace_8h_source.html" target="_top" xlink:title="DGtal/base/Trace.h">
<polygon fill="#ffffff" stroke="#ff0000" points="1036.8311,-170.5 1036.8311,-188.5 1139.1689,-188.5 1139.1689,-170.5 1036.8311,-170.5"/>
<text text-anchor="middle" x="1088" y="-176.5" font-family="FreeSans" font-size="10.00" fill="#000000">DGtal/base/Trace.h</text>
</a>
</g>
</g>
<!-- Node2&#45;&gt;Node16 -->
<g id="edge17" class="edge">
<title>Node2&#45;&gt;Node16</title>
<path fill="none" stroke="#191970" d="M1396.9766,-231.1415C1322.4793,-220.5037 1198.5606,-202.4917 1153,-194 1147.601,-192.9937 1141.9677,-191.8617 1136.373,-190.6852"/>
<polygon fill="#191970" stroke="#191970" points="1136.9159,-187.2219 1126.403,-188.537 1135.4415,-194.0648 1136.9159,-187.2219"/>
</g>
<!-- Node23 -->
<g id="node17" class="node">
<title>Node23</title>
<g id="a_node17"><a xlink:href="TraceWriterTerm_8h_source.html" target="_top" xlink:title="DGtal/base/TraceWriterTerm.h">
<polygon fill="#ffffff" stroke="#ff0000" points="1063.478,-110.5 1063.478,-128.5 1214.522,-128.5 1214.522,-110.5 1063.478,-110.5"/>
<text text-anchor="middle" x="1139" y="-116.5" font-family="FreeSans" font-size="10.00" fill="#000000">DGtal/base/TraceWriterTerm.h</text>
</a>
</g>
</g>
<!-- Node2&#45;&gt;Node23 -->
<g id="edge25" class="edge">
<title>Node2&#45;&gt;Node23</title>
<path fill="none" stroke="#191970" d="M1396.9556,-231.0206C1339.9525,-222.236 1258.1191,-207.8739 1229,-194 1199.2581,-179.8293 1171.0277,-153.6509 1154.3632,-136.4058"/>
<polygon fill="#191970" stroke="#191970" points="1156.5585,-133.6316 1147.1555,-128.7495 1151.4616,-138.4298 1156.5585,-133.6316"/>
</g>
<!-- Node24 -->
<g id="node18" class="node">
<title>Node24</title>
<g id="a_node18"><a xlink:href="Assert_8h_source.html" target="_top" xlink:title="DGtal/base/Assert.h">
<polygon fill="#ffffff" stroke="#ff0000" points="940.2588,-110.5 940.2588,-128.5 1045.7412,-128.5 1045.7412,-110.5 940.2588,-110.5"/>
<text text-anchor="middle" x="993" y="-116.5" font-family="FreeSans" font-size="10.00" fill="#000000">DGtal/base/Assert.h</text>
</a>
</g>
</g>
<!-- Node2&#45;&gt;Node24 -->
<g id="edge28" class="edge">
<title>Node2&#45;&gt;Node24</title>
<path fill="none" stroke="#191970" d="M1397.0455,-231.3407C1322.6729,-220.79 1202.1208,-202.7353 1183,-194 1164.6253,-185.6055 1165.8365,-174.4846 1148,-165 1118.0776,-149.0888 1081.8678,-138.0607 1051.9734,-130.8511"/>
<polygon fill="#191970" stroke="#191970" points="1052.6288,-127.4101 1042.0956,-128.5509 1051.0412,-134.2277 1052.6288,-127.4101"/>
</g>
<!-- Node27 -->
<g id="node19" class="node">
<title>Node27</title>
<g id="a_node19"><a xlink:href="TraceWriterFile_8h_source.html" target="_top" xlink:title="DGtal/base/TraceWriterFile.h">
<polygon fill="#ffffff" stroke="#ff0000" points="1015.5322,-55.5 1015.5322,-73.5 1160.4678,-73.5 1160.4678,-55.5 1015.5322,-55.5"/>
<text text-anchor="middle" x="1088" y="-61.5" font-family="FreeSans" font-size="10.00" fill="#000000">DGtal/base/TraceWriterFile.h</text>
</a>
</g>
</g>
<!-- Node2&#45;&gt;Node27 -->
<g id="edge26" class="edge">
<title>Node2&#45;&gt;Node27</title>
<path fill="none" stroke="#191970" d="M1397.0687,-231.2441C1365.2586,-224.7728 1326.3992,-213.4684 1296,-194 1254.5928,-167.4817 1264.7893,-137.4593 1224,-110 1200.2058,-93.9817 1170.2843,-83.1659 1144.5693,-76.1141"/>
<polygon fill="#191970" stroke="#191970" points="1145.1355,-72.6446 1134.5754,-73.5015 1143.365,-79.417 1145.1355,-72.6446"/>
</g>
<!-- Node28 -->
<g id="node20" class="node">
<title>Node28</title>
<g id="a_node20"><a xlink:href="ConceptUtils_8h_source.html" target="_top" xlink:title="DGtal/base/ConceptUtils.h">
<polygon fill="#ffffff" stroke="#000000" points="1178.084,-55.5 1178.084,-73.5 1311.916,-73.5 1311.916,-55.5 1178.084,-55.5"/>
<text text-anchor="middle" x="1245" y="-61.5" font-family="FreeSans" font-size="10.00" fill="#000000">DGtal/base/ConceptUtils.h</text>
</a>
</g>
</g>
<!-- Node2&#45;&gt;Node28 -->
<g id="edge29" class="edge">
<title>Node2&#45;&gt;Node28</title>
<path fill="none" stroke="#191970" d="M1406.4285,-230.4489C1380.3865,-223.7653 1349.1622,-212.5116 1326,-194 1288.3443,-163.905 1263.3249,-111.2556 1251.9824,-83.2558"/>
<polygon fill="#191970" stroke="#191970" points="1255.2008,-81.8753 1248.3071,-73.83 1248.6791,-84.4183 1255.2008,-81.8753"/>
</g>
<!-- Node29 -->
<g id="node21" class="node">
<title>Node29</title>
<g id="a_node21"><a xlink:href="BasicTypes_8h_source.html" target="_top" xlink:title="DGtal/base/BasicTypes.h">
<polygon fill="#ffffff" stroke="#ff0000" points="1329.8599,-55.5 1329.8599,-73.5 1458.1401,-73.5 1458.1401,-55.5 1329.8599,-55.5"/>
<text text-anchor="middle" x="1394" y="-61.5" font-family="FreeSans" font-size="10.00" fill="#000000">DGtal/base/BasicTypes.h</text>
</a>
</g>
</g>
<!-- Node2&#45;&gt;Node29 -->
<g id="edge31" class="edge">
<title>Node2&#45;&gt;Node29</title>
<path fill="none" stroke="#191970" d="M1420.1868,-230.4768C1389.1209,-221.8396 1347.6585,-208.076 1338,-194 1312.6141,-157.0037 1352.2281,-106.6494 1376.8203,-80.9948"/>
<polygon fill="#191970" stroke="#191970" points="1379.6169,-83.1455 1384.1755,-73.5815 1374.6477,-78.2152 1379.6169,-83.1455"/>
</g>
<!-- Node32 -->
<g id="node22" class="node">
<title>Node32</title>
<g id="a_node22"><a xlink:href="BasicFunctors_8h_source.html" target="_top" xlink:title="DGtal/base/BasicFunctors.h">
<polygon fill="#ffffff" stroke="#ff0000" points="700.7515,-170.5 700.7515,-188.5 841.2485,-188.5 841.2485,-170.5 700.7515,-170.5"/>
<text text-anchor="middle" x="771" y="-176.5" font-family="FreeSans" font-size="10.00" fill="#000000">DGtal/base/BasicFunctors.h</text>
</a>
</g>
</g>
<!-- Node2&#45;&gt;Node32 -->
<g id="edge33" class="edge">
<title>Node2&#45;&gt;Node32</title>
<path fill="none" stroke="#191970" d="M1396.8863,-232.5534C1389.1578,-231.618 1381.3766,-230.7308 1374,-230 1139.9343,-206.8122 1079.5339,-222.0422 846,-194 837.4457,-192.9728 828.4378,-191.6629 819.7309,-190.252"/>
<polygon fill="#191970" stroke="#191970" points="820.1359,-186.771 809.6932,-188.5602 818.9724,-193.6736 820.1359,-186.771"/>
</g>
<!-- Node37 -->
<g id="node23" class="node">
<title>Node37</title>
<g id="a_node23"><a xlink:href="BasicArchetypes_8h_source.html" target="_top" xlink:title="DGtal/base/BasicArchetypes.h">
<polygon fill="#ffffff" stroke="#000000" points="1383.1899,-110.5 1383.1899,-128.5 1534.8101,-128.5 1534.8101,-110.5 1383.1899,-110.5"/>
<text text-anchor="middle" x="1459" y="-116.5" font-family="FreeSans" font-size="10.00" fill="#000000">DGtal/base/BasicArchetypes.h</text>
</a>
</g>
</g>
<!-- Node2&#45;&gt;Node37 -->
<g id="edge37" class="edge">
<title>Node2&#45;&gt;Node37</title>
<path fill="none" stroke="#191970" d="M1454.74,-230.3159C1452.9825,-216.2436 1450.2025,-188.5052 1452,-165 1452.6704,-156.2341 1454.057,-146.6007 1455.4207,-138.4637"/>
<polygon fill="#191970" stroke="#191970" points="1458.8843,-138.9769 1457.1965,-128.5174 1451.9933,-137.7466 1458.8843,-138.9769"/>
</g>
<!-- Node38 -->
<g id="node24" class="node">
<title>Node38</title>
<g id="a_node24"><a xlink:href="Exceptions_8h_source.html" target="_top" xlink:title="DGtal/base/Exceptions.h">
<polygon fill="#ffffff" stroke="#000000" points="1547.9707,-55.5 1547.9707,-73.5 1674.0293,-73.5 1674.0293,-55.5 1547.9707,-55.5"/>
<text text-anchor="middle" x="1611" y="-61.5" font-family="FreeSans" font-size="10.00" fill="#000000">DGtal/base/Exceptions.h</text>
</a>
</g>
</g>
<!-- Node2&#45;&gt;Node38 -->
<g id="edge39" class="edge">
<title>Node2&#45;&gt;Node38</title>
<path fill="none" stroke="#191970" d="M1514.9176,-237.5025C1582.552,-233.8243 1687.3564,-223.4098 1712,-194 1746.2327,-153.1465 1676.6134,-102.904 1636.5595,-78.7692"/>
<polygon fill="#191970" stroke="#191970" points="1638.1954,-75.671 1627.8007,-73.6213 1634.6484,-81.7059 1638.1954,-75.671"/>
</g>
<!-- Node14&#45;&gt;Node1 -->
<g id="edge16" class="edge">
<title>Node14&#45;&gt;Node1</title>
<path fill="none" stroke="#191970" d="M889.387,-55.6022C956.4998,-44.4167 1069.9904,-25.5016 1128.5534,-15.7411"/>
<polygon fill="#191970" stroke="#191970" points="1129.1975,-19.1821 1138.4861,-14.0857 1128.0467,-12.2774 1129.1975,-19.1821"/>
</g>
<!-- Node16&#45;&gt;Node1 -->
<g id="edge18" class="edge">
<title>Node16&#45;&gt;Node1</title>
<path fill="none" stroke="#191970" d="M1052.6315,-170.4733C1008.6318,-158.8913 938.3568,-139.0944 931,-129 926.0264,-122.1756 927.39,-117.6339 931,-110 947.4697,-75.1719 963.7554,-72.6509 998,-55 1039.9888,-33.3574 1093.3436,-21.1802 1128.5252,-14.9787"/>
<polygon fill="#191970" stroke="#191970" points="1129.5485,-18.3557 1138.8275,-13.2421 1128.3849,-11.4531 1129.5485,-18.3557"/>
</g>
<!-- Node16&#45;&gt;Node14 -->
<g id="edge19" class="edge">
<title>Node16&#45;&gt;Node14</title>
<path fill="none" stroke="#191970" d="M1049.4773,-170.4398C997.8314,-158.1134 911.0857,-136.7106 898,-129 877.8308,-117.1155 859.9202,-96.8678 848.5997,-82.224"/>
<polygon fill="#191970" stroke="#191970" points="851.2216,-79.8847 842.4415,-73.9551 845.6075,-84.0659 851.2216,-79.8847"/>
</g>
<!-- Node16&#45;&gt;Node23 -->
<g id="edge20" class="edge">
<title>Node16&#45;&gt;Node23</title>
<path fill="none" stroke="#191970" d="M1095.7458,-170.3873C1103.3844,-161.4007 1115.2426,-147.4499 1124.6123,-136.4267"/>
<polygon fill="#191970" stroke="#191970" points="1127.3716,-138.5847 1131.1813,-128.6985 1122.038,-134.0511 1127.3716,-138.5847"/>
</g>
<!-- Node16&#45;&gt;Node24 -->
<g id="edge23" class="edge">
<title>Node16&#45;&gt;Node24</title>
<path fill="none" stroke="#191970" d="M1068.5622,-170.3873C1051.4442,-160.8168 1027.0747,-145.6159 1010.5464,-134.3171"/>
<polygon fill="#191970" stroke="#191970" points="1012.4615,-131.3851 1002.2665,-128.5019 1008.4383,-137.1135 1012.4615,-131.3851"/>
</g>
<!-- Node23&#45;&gt;Node1 -->
<g id="edge21" class="edge">
<title>Node23&#45;&gt;Node1</title>
<path fill="none" stroke="#191970" d="M1074.4123,-110.4776C1030.6675,-101.5321 984.581,-84.7344 1007,-55 1021.6515,-35.5677 1086.6209,-21.9195 1128.8428,-14.916"/>
<polygon fill="#191970" stroke="#191970" points="1129.4633,-18.3613 1138.7817,-13.3197 1128.3532,-11.4499 1129.4633,-18.3613"/>
</g>
<!-- Node23&#45;&gt;Node14 -->
<g id="edge22" class="edge">
<title>Node23&#45;&gt;Node14</title>
<path fill="none" stroke="#191970" d="M1089.305,-110.4795C1036.2471,-100.8485 952.1833,-85.5894 895.6036,-75.3191"/>
<polygon fill="#191970" stroke="#191970" points="896.1865,-71.8678 885.7221,-73.5255 894.9362,-78.7553 896.1865,-71.8678"/>
</g>
<!-- Node24&#45;&gt;Node16 -->
<g id="edge24" class="edge">
<title>Node24&#45;&gt;Node16</title>
<path fill="none" stroke="#191970" d="M1012.2394,-128.5019C1029.3011,-138.0287 1053.6726,-153.2227 1070.2614,-164.5516"/>
<polygon fill="#191970" stroke="#191970" points="1068.3842,-167.51 1078.5809,-170.3873 1072.4041,-161.7793 1068.3842,-167.51"/>
</g>
<!-- Node27&#45;&gt;Node1 -->
<g id="edge27" class="edge">
<title>Node27&#45;&gt;Node1</title>
<path fill="none" stroke="#191970" d="M1100.8801,-55.4179C1112.7354,-47.0584 1130.5502,-34.4966 1144.5516,-24.6239"/>
<polygon fill="#191970" stroke="#191970" points="1146.9451,-27.2188 1153.1008,-18.5956 1142.9112,-21.498 1146.9451,-27.2188"/>
</g>
<!-- Node28&#45;&gt;Node1 -->
<g id="edge30" class="edge">
<title>Node28&#45;&gt;Node1</title>
<path fill="none" stroke="#191970" d="M1231.9548,-55.4179C1219.8331,-46.9788 1201.56,-34.257 1187.3193,-24.3426"/>
<polygon fill="#191970" stroke="#191970" points="1189.2714,-21.4369 1179.0646,-18.5956 1185.2718,-27.1818 1189.2714,-21.4369"/>
</g>
<!-- Node29&#45;&gt;Node1 -->
<g id="edge32" class="edge">
<title>Node29&#45;&gt;Node1</title>
<path fill="none" stroke="#191970" d="M1356.6057,-55.4795C1314.2397,-45.2596 1245.6019,-28.7022 1203.2822,-18.4935"/>
<polygon fill="#191970" stroke="#191970" points="1203.9223,-15.0476 1193.3804,-16.1049 1202.2808,-21.8524 1203.9223,-15.0476"/>
</g>
<!-- Node32&#45;&gt;Node2 -->
<g id="edge36" class="edge">
<title>Node32&#45;&gt;Node2</title>
<path fill="none" stroke="#191970" d="M827.1231,-188.5602C839.3187,-190.5945 852.0983,-192.5709 864,-194 1094.227,-221.6451 1156.189,-207.2349 1386.9639,-229.5301"/>
<polygon fill="#191970" stroke="#191970" points="1386.7202,-233.0229 1397.0136,-230.5137 1387.4021,-226.0562 1386.7202,-233.0229"/>
</g>
<!-- Node32&#45;&gt;Node4 -->
<g id="edge34" class="edge">
<title>Node32&#45;&gt;Node4</title>
<path fill="none" stroke="#191970" d="M771.6075,-170.3873C772.1655,-162.0174 773.0106,-149.3414 773.7177,-138.735"/>
<polygon fill="#191970" stroke="#191970" points="777.2137,-138.9092 774.3868,-128.6985 770.2292,-138.4435 777.2137,-138.9092"/>
</g>
<!-- Node32&#45;&gt;Node12 -->
<g id="edge35" class="edge">
<title>Node32&#45;&gt;Node12</title>
<path fill="none" stroke="#191970" d="M744.5731,-170.3873C713.3842,-159.6325 661.5765,-141.7678 628.3778,-130.3199"/>
<polygon fill="#191970" stroke="#191970" points="629.3103,-126.9393 618.7156,-126.9881 627.0283,-133.5569 629.3103,-126.9393"/>
</g>
<!-- Node37&#45;&gt;Node1 -->
<g id="edge38" class="edge">
<title>Node37&#45;&gt;Node1</title>
<path fill="none" stroke="#191970" d="M1463.976,-110.3501C1470.699,-96.6011 1480.3923,-70.5689 1467,-55 1450.0066,-35.2448 1280.5462,-18.9233 1203.6274,-12.47"/>
<polygon fill="#191970" stroke="#191970" points="1203.6679,-8.9615 1193.4135,-11.6255 1203.0911,-15.9377 1203.6679,-8.9615"/>
</g>
<!-- Node38&#45;&gt;Node1 -->
<g id="edge40" class="edge">
<title>Node38&#45;&gt;Node1</title>
<path fill="none" stroke="#191970" d="M1547.7149,-56.6783C1453.524,-45.0367 1279.3927,-23.5148 1203.2618,-14.1054"/>
<polygon fill="#191970" stroke="#191970" points="1203.5422,-10.6135 1193.1883,-12.8604 1202.6835,-17.5606 1203.5422,-10.6135"/>
</g>
<!-- Node39&#45;&gt;Node1 -->
<g id="edge42" class="edge">
<title>Node39&#45;&gt;Node1</title>
<path fill="none" stroke="#191970" d="M947.7184,-563.0677C733.1878,-557.3195 38,-531.5881 38,-439.5 38,-439.5 38,-439.5 38,-119.5 38,-41.59 124.8335,-71.3902 201,-55 382.7412,-15.8912 973.3309,-10.3959 1128.4177,-9.6253"/>
<polygon fill="#191970" stroke="#191970" points="1128.8359,-13.1236 1138.8197,-9.5776 1128.8037,-6.1236 1128.8359,-13.1236"/>
</g>
<!-- Node39&#45;&gt;Node2 -->
<g id="edge43" class="edge">
<title>Node39&#45;&gt;Node2</title>
<path fill="none" stroke="#191970" d="M1072.0754,-562.0867C1153.6437,-557.8565 1291.4288,-546.7387 1333,-519 1367.1432,-496.2177 1380,-480.5462 1380,-439.5 1380,-439.5 1380,-439.5 1380,-374.5 1380,-326.6215 1416.7478,-280.0528 1439.1376,-256.1227"/>
<polygon fill="#191970" stroke="#191970" points="1441.94,-258.2595 1446.3745,-248.6374 1436.9074,-253.3939 1441.94,-258.2595"/>
</g>
<!-- Node40 -->
<g id="node26" class="node">
<title>Node40</title>
<g id="a_node26"><a xlink:href="SpaceND_8h_source.html" target="_top" xlink:title="DGtal/kernel/SpaceND.h">
<polygon fill="#ffffff" stroke="#ff0000" points="558.2539,-295.5 558.2539,-313.5 683.7461,-313.5 683.7461,-295.5 558.2539,-295.5"/>
<text text-anchor="middle" x="621" y="-301.5" font-family="FreeSans" font-size="10.00" fill="#000000">DGtal/kernel/SpaceND.h</text>
</a>
</g>
</g>
<!-- Node39&#45;&gt;Node40 -->
<g id="edge44" class="edge">
<title>Node39&#45;&gt;Node40</title>
<path fill="none" stroke="#191970" d="M948.0443,-555.6257C905.1233,-548.4152 847.099,-536.5359 798,-519 678.9454,-476.4791 610.8702,-496.9034 545,-389 528.0972,-361.3112 564.2539,-334.3341 592.288,-318.5754"/>
<polygon fill="#191970" stroke="#191970" points="594.2467,-321.4961 601.3954,-313.6765 590.9306,-315.3314 594.2467,-321.4961"/>
</g>
<!-- Node62 -->
<g id="node27" class="node">
<title>Node62</title>
<g id="a_node27"><a xlink:href="HyperRectDomain_8h_source.html" target="_top" xlink:title="DGtal/kernel/domains\l/HyperRectDomain.h">
<polygon fill="#ffffff" stroke="#ff0000" points="2170.9238,-360.5 2170.9238,-388.5 2283.0762,-388.5 2283.0762,-360.5 2170.9238,-360.5"/>
<text text-anchor="start" x="2178.9238" y="-376.5" font-family="FreeSans" font-size="10.00" fill="#000000">DGtal/kernel/domains</text>
<text text-anchor="middle" x="2227" y="-366.5" font-family="FreeSans" font-size="10.00" fill="#000000">/HyperRectDomain.h</text>
</a>
</g>
</g>
<!-- Node39&#45;&gt;Node62 -->
<g id="edge47" class="edge">
<title>Node39&#45;&gt;Node62</title>
<path fill="none" stroke="#191970" d="M1072.0545,-564.0261C1264.6411,-562.1972 1850.3732,-553.8414 2037,-519 2125.9746,-502.3893 2177.1909,-527.5091 2230,-454 2241.4117,-438.1152 2239.2804,-415.4781 2235.0972,-398.4195"/>
<polygon fill="#191970" stroke="#191970" points="2238.4181,-397.3003 2232.3301,-388.6292 2231.6819,-399.2042 2238.4181,-397.3003"/>
</g>
<!-- Node84 -->
<g id="node29" class="node">
<title>Node84</title>
<g id="a_node29"><a xlink:href="DigitalSetSelector_8h_source.html" target="_top" xlink:title="DGtal/kernel/sets/Digital\lSetSelector.h">
<polygon fill="#ffffff" stroke="#ff0000" points="1038.3696,-290.5 1038.3696,-318.5 1161.6304,-318.5 1161.6304,-290.5 1038.3696,-290.5"/>
<text text-anchor="start" x="1046.3696" y="-306.5" font-family="FreeSans" font-size="10.00" fill="#000000">DGtal/kernel/sets/Digital</text>
<text text-anchor="middle" x="1100" y="-296.5" font-family="FreeSans" font-size="10.00" fill="#000000">SetSelector.h</text>
</a>
</g>
</g>
<!-- Node39&#45;&gt;Node84 -->
<g id="edge53" class="edge">
<title>Node39&#45;&gt;Node84</title>
<path fill="none" stroke="#191970" d="M1025.298,-555.2948C1037.2596,-547.2541 1053.2765,-534.4628 1062,-519 1096.9701,-457.0141 1101.0614,-370.2516 1100.775,-328.6334"/>
<polygon fill="#191970" stroke="#191970" points="1104.2742,-328.5494 1100.6122,-318.6075 1097.2751,-328.6631 1104.2742,-328.5494"/>
</g>
<!-- Node97 -->
<g id="node30" class="node">
<title>Node97</title>
<g id="a_node30"><a xlink:href="DigitalTopology_8h_source.html" target="_top" xlink:title="DGtal/topology/DigitalTopology.h">
<polygon fill="#ffffff" stroke="#ff0000" points="65.8271,-295.5 65.8271,-313.5 226.1729,-313.5 226.1729,-295.5 65.8271,-295.5"/>
<text text-anchor="middle" x="146" y="-301.5" font-family="FreeSans" font-size="10.00" fill="#000000">DGtal/topology/DigitalTopology.h</text>
</a>
</g>
</g>
<!-- Node39&#45;&gt;Node97 -->
<g id="edge56" class="edge">
<title>Node39&#45;&gt;Node97</title>
<path fill="none" stroke="#191970" d="M948.0004,-559.6315C853.0591,-551.7917 676.2196,-535.565 615,-519 476.3035,-481.471 449.3578,-449.4316 319,-389 267.1097,-364.9445 207.2976,-335.2956 173.3357,-318.2773"/>
<polygon fill="#191970" stroke="#191970" points="174.5739,-314.9827 164.0665,-313.6243 171.4334,-321.2387 174.5739,-314.9827"/>
</g>
<!-- Node104 -->
<g id="node31" class="node">
<title>Node104</title>
<g id="a_node31"><a xlink:href="MetricAdjacency_8h_source.html" target="_top" xlink:title="DGtal/topology/MetricAdjacency.h">
<polygon fill="#ffffff" stroke="#ff0000" points="816.0562,-365.5 816.0562,-383.5 981.9438,-383.5 981.9438,-365.5 816.0562,-365.5"/>
<text text-anchor="middle" x="899" y="-371.5" font-family="FreeSans" font-size="10.00" fill="#000000">DGtal/topology/MetricAdjacency.h</text>
</a>
</g>
</g>
<!-- Node39&#45;&gt;Node104 -->
<g id="edge59" class="edge">
<title>Node39&#45;&gt;Node104</title>
<path fill="none" stroke="#191970" d="M1004.6462,-555.3359C987.3198,-525.678 932.5607,-431.9462 909.4513,-392.3897"/>
<polygon fill="#191970" stroke="#191970" points="912.3665,-390.4411 904.3,-383.5721 906.3224,-393.9722 912.3665,-390.4411"/>
</g>
<!-- Node107 -->
<g id="node32" class="node">
<title>Node107</title>
<g id="a_node32"><a xlink:href="Object_8h_source.html" target="_top" xlink:title="DGtal/topology/Object.h">
<polygon fill="#ffffff" stroke="#ff0000" points="1115.9165,-365.5 1115.9165,-383.5 1238.0835,-383.5 1238.0835,-365.5 1115.9165,-365.5"/>
<text text-anchor="middle" x="1177" y="-371.5" font-family="FreeSans" font-size="10.00" fill="#000000">DGtal/topology/Object.h</text>
</a>
</g>
</g>
<!-- Node39&#45;&gt;Node107 -->
<g id="edge63" class="edge">
<title>Node39&#45;&gt;Node107</title>
<path fill="none" stroke="#191970" d="M1038.6591,-555.442C1058.1407,-548.1192 1083.4616,-536.1817 1101,-519 1138.3287,-482.4304 1161.3078,-423.5915 1171.2457,-393.5237"/>
<polygon fill="#191970" stroke="#191970" points="1174.6292,-394.4326 1174.3194,-383.8423 1167.9574,-392.3144 1174.6292,-394.4326"/>
</g>
<!-- Node116 -->
<g id="node33" class="node">
<title>Node116</title>
<g id="a_node33"><a xlink:href="KhalimskySpaceND_8h_source.html" target="_top" xlink:title="DGtal/topology/Khalimsky\lSpaceND.h">
<polygon fill="#ffffff" stroke="#ff0000" points="735.7539,-425.5 735.7539,-453.5 866.2461,-453.5 866.2461,-425.5 735.7539,-425.5"/>
<text text-anchor="start" x="743.7539" y="-441.5" font-family="FreeSans" font-size="10.00" fill="#000000">DGtal/topology/Khalimsky</text>
<text text-anchor="middle" x="801" y="-431.5" font-family="FreeSans" font-size="10.00" fill="#000000">SpaceND.h</text>
</a>
</g>
</g>
<!-- Node39&#45;&gt;Node116 -->
<g id="edge67" class="edge">
<title>Node39&#45;&gt;Node116</title>
<path fill="none" stroke="#191970" d="M991.1547,-555.4657C973.1256,-546.6575 945.3084,-532.6331 922,-519 889.5364,-500.012 853.6864,-476.0621 829.4983,-459.4369"/>
<polygon fill="#191970" stroke="#191970" points="831.3598,-456.4689 821.1424,-453.666 827.3818,-462.2288 831.3598,-456.4689"/>
</g>
<!-- Node117 -->
<g id="node34" class="node">
<title>Node117</title>
<g id="a_node34"><a xlink:href="KhalimskyPreSpaceND_8h_source.html" target="_top" xlink:title="DGtal/topology/Khalimsky\lPreSpaceND.h">
<polygon fill="#ffffff" stroke="#ff0000" points="553.7539,-360.5 553.7539,-388.5 684.2461,-388.5 684.2461,-360.5 553.7539,-360.5"/>
<text text-anchor="start" x="561.7539" y="-376.5" font-family="FreeSans" font-size="10.00" fill="#000000">DGtal/topology/Khalimsky</text>
<text text-anchor="middle" x="619" y="-366.5" font-family="FreeSans" font-size="10.00" fill="#000000">PreSpaceND.h</text>
</a>
</g>
</g>
<!-- Node39&#45;&gt;Node117 -->
<g id="edge75" class="edge">
<title>Node39&#45;&gt;Node117</title>
<path fill="none" stroke="#191970" d="M977.5671,-555.3991C923.404,-539.4369 812.0987,-503.341 727,-454 696.772,-436.4736 664.8684,-412.174 643.6426,-395.0662"/>
<polygon fill="#191970" stroke="#191970" points="645.7475,-392.2666 635.7832,-388.6662 641.3274,-397.6946 645.7475,-392.2666"/>
</g>
<!-- Node120 -->
<g id="node35" class="node">
<title>Node120</title>
<g id="a_node35"><a xlink:href="GridCurve_8h_source.html" target="_top" xlink:title="Header file for module GridCurve.cpp. ">
<polygon fill="#ffffff" stroke="#ff0000" points="1205.8721,-490.5 1205.8721,-518.5 1324.1279,-518.5 1324.1279,-490.5 1205.8721,-490.5"/>
<text text-anchor="start" x="1213.8721" y="-506.5" font-family="FreeSans" font-size="10.00" fill="#000000">DGtal/geometry/curves</text>
<text text-anchor="middle" x="1265" y="-496.5" font-family="FreeSans" font-size="10.00" fill="#000000">/GridCurve.h</text>
</a>
</g>
</g>
<!-- Node39&#45;&gt;Node120 -->
<g id="edge76" class="edge">
<title>Node39&#45;&gt;Node120</title>
<path fill="none" stroke="#191970" d="M1048.4522,-555.4524C1087.4205,-546.2834 1148.555,-531.8988 1195.9437,-520.7485"/>
<polygon fill="#191970" stroke="#191970" points="1196.9019,-524.1188 1205.8344,-518.4213 1195.2985,-517.3048 1196.9019,-524.1188"/>
</g>
<!-- Node39&#45;&gt;Node151 -->
<g id="edge82" class="edge">
<title>Node39&#45;&gt;Node151</title>
<path fill="none" stroke="#191970" d="M948.0257,-561.9585C882.6932,-557.8378 777.4641,-547.0705 691,-519 632.191,-499.9077 615.5947,-493.4684 568,-454 524.8188,-418.1916 486.7613,-364.4585 465.8997,-332.1054"/>
<polygon fill="#191970" stroke="#191970" points="468.7993,-330.1425 460.4817,-323.5798 462.8913,-333.897 468.7993,-330.1425"/>
</g>
<!-- Node156 -->
<g id="node38" class="node">
<title>Node156</title>
<g id="a_node38"><a xlink:href="ExactPredicateLpPowerSeparableMetric_8h_source.html" target="_top" xlink:title="DGtal/geometry/volumes\l/distance/ExactPredicateLpPower\lSeparableMetric.h">
<polygon fill="#ffffff" stroke="#ff0000" points="740.2368,-285.5 740.2368,-323.5 905.7632,-323.5 905.7632,-285.5 740.2368,-285.5"/>
<text text-anchor="start" x="748.2368" y="-311.5" font-family="FreeSans" font-size="10.00" fill="#000000">DGtal/geometry/volumes</text>
<text text-anchor="start" x="748.2368" y="-301.5" font-family="FreeSans" font-size="10.00" fill="#000000">/distance/ExactPredicateLpPower</text>
<text text-anchor="middle" x="823" y="-291.5" font-family="FreeSans" font-size="10.00" fill="#000000">SeparableMetric.h</text>
</a>
</g>
</g>
<!-- Node39&#45;&gt;Node156 -->
<g id="edge86" class="edge">
<title>Node39&#45;&gt;Node156</title>
<path fill="none" stroke="#191970" d="M1012.266,-555.496C1019.5135,-524.4188 1038.9588,-420.2636 991,-360 980.6417,-346.9841 948.9767,-335.0474 915.8879,-325.6065"/>
<polygon fill="#191970" stroke="#191970" points="916.6382,-322.1826 906.0667,-322.885 914.7689,-328.9284 916.6382,-322.1826"/>
</g>
<!-- Node40&#45;&gt;Node1 -->
<g id="edge45" class="edge">
<title>Node40&#45;&gt;Node1</title>
<path fill="none" stroke="#191970" d="M588.5233,-295.4222C535.0213,-280.4113 433.9233,-251.7854 431,-249 407.3413,-226.4574 407,-212.1788 407,-179.5 407,-179.5 407,-179.5 407,-119.5 407,-88.9131 406.4336,-73.2222 431,-55 459.2374,-34.0549 981.7326,-15.507 1128.1477,-10.704"/>
<polygon fill="#191970" stroke="#191970" points="1128.5389,-14.1932 1138.4197,-10.3694 1128.311,-7.1969 1128.5389,-14.1932"/>
</g>
<!-- Node40&#45;&gt;Node2 -->
<g id="edge46" class="edge">
<title>Node40&#45;&gt;Node2</title>
<path fill="none" stroke="#191970" d="M665.2535,-295.4808C685.2564,-291.7077 709.2388,-287.6033 731,-285 970.8797,-256.3034 1257.7153,-245.0764 1386.9157,-241.2426"/>
<polygon fill="#191970" stroke="#191970" points="1387.1677,-244.7369 1397.0616,-240.9472 1386.9639,-237.7398 1387.1677,-244.7369"/>
</g>
<!-- Node62&#45;&gt;Node1 -->
<g id="edge48" class="edge">
<title>Node62&#45;&gt;Node1</title>
<path fill="none" stroke="#191970" d="M2283.3525,-361.2432C2313.8575,-352.8532 2351.6121,-340.4591 2383,-324 2408.2709,-310.7485 2408.0311,-296.8253 2434,-285 2506.6629,-251.912 2545.5137,-296.0769 2610,-249 2638.6078,-228.1155 2649,-214.9199 2649,-179.5 2649,-179.5 2649,-179.5 2649,-119.5 2649,-86.0004 2638.9167,-71.9129 2610,-55 2547.5261,-18.4599 1423.5655,-10.8215 1203.2791,-9.6732"/>
<polygon fill="#191970" stroke="#191970" points="1203.2095,-6.1729 1193.1918,-9.6219 1203.1739,-13.1728 1203.2095,-6.1729"/>
</g>
<!-- Node62&#45;&gt;Node2 -->
<g id="edge49" class="edge">
<title>Node62&#45;&gt;Node2</title>
<path fill="none" stroke="#191970" d="M2215.1609,-360.168C2196.9696,-339.3261 2159.9279,-301.3594 2119,-285 2064.9461,-263.3939 1684.0628,-247.5759 1525.2598,-241.8482"/>
<polygon fill="#191970" stroke="#191970" points="1525.2455,-238.3455 1515.1267,-241.4855 1524.9951,-245.341 1525.2455,-238.3455"/>
</g>
<!-- Node45 -->
<g id="node28" class="node">
<title>Node45</title>
<g id="a_node28"><a xlink:href="NumberTraits_8h_source.html" target="_top" xlink:title="DGtal/kernel/NumberTraits.h">
<polygon fill="#ffffff" stroke="#ff0000" points="2231.5527,-295.5 2231.5527,-313.5 2374.4473,-313.5 2374.4473,-295.5 2231.5527,-295.5"/>
<text text-anchor="middle" x="2303" y="-301.5" font-family="FreeSans" font-size="10.00" fill="#000000">DGtal/kernel/NumberTraits.h</text>
</a>
</g>
</g>
<!-- Node62&#45;&gt;Node45 -->
<g id="edge50" class="edge">
<title>Node62&#45;&gt;Node45</title>
<path fill="none" stroke="#191970" d="M2242.3797,-360.3345C2254.8795,-348.8215 2272.5135,-332.5796 2285.5418,-320.5799"/>
<polygon fill="#191970" stroke="#191970" points="2287.9872,-323.086 2292.9715,-313.7368 2283.2448,-317.9372 2287.9872,-323.086"/>
</g>
<!-- Node45&#45;&gt;Node1 -->
<g id="edge51" class="edge">
<title>Node45&#45;&gt;Node1</title>
<path fill="none" stroke="#191970" d="M2345.0921,-295.4846C2361.0254,-292.1219 2379.3351,-288.3173 2396,-285 2480.7214,-268.1355 2521.6194,-305.4579 2587,-249 2611.7334,-227.6421 2611,-212.1788 2611,-179.5 2611,-179.5 2611,-179.5 2611,-119.5 2611,-88.9131 2611.8353,-72.8539 2587,-55 2558.0846,-34.213 1425.8626,-13.9175 1203.6286,-10.1295"/>
<polygon fill="#191970" stroke="#191970" points="1203.5089,-6.6271 1193.4509,-9.9568 1203.3901,-13.6261 1203.5089,-6.6271"/>
</g>
<!-- Node45&#45;&gt;Node2 -->
<g id="edge52" class="edge">
<title>Node45&#45;&gt;Node2</title>
<path fill="none" stroke="#191970" d="M2244.3888,-295.4852C2218.8286,-291.8042 2188.4821,-287.7702 2161,-285 1928.654,-261.5797 1651.9478,-247.8283 1525.3884,-242.3185"/>
<polygon fill="#191970" stroke="#191970" points="1525.2166,-238.8079 1515.075,-241.8733 1524.9147,-245.8014 1525.2166,-238.8079"/>
</g>
<!-- Node84&#45;&gt;Node1 -->
<g id="edge54" class="edge">
<title>Node84&#45;&gt;Node1</title>
<path fill="none" stroke="#191970" d="M1038.2716,-295.2328C925.4118,-277.4854 690.9486,-236.6582 621,-194 582.9017,-170.7658 546.9234,-150.3409 566,-110 582.4697,-75.1719 597.3124,-69.5136 633,-55 723.0344,-18.3844 1022.1549,-11.2272 1128.2656,-9.8345"/>
<polygon fill="#191970" stroke="#191970" points="1128.5422,-13.3315 1138.499,-9.7104 1128.4572,-6.332 1128.5422,-13.3315"/>
</g>
<!-- Node84&#45;&gt;Node2 -->
<g id="edge55" class="edge">
<title>Node84&#45;&gt;Node2</title>
<path fill="none" stroke="#191970" d="M1162.0105,-293.1779C1227.9102,-281.1456 1331.3786,-262.2539 1396.3601,-250.3893"/>
<polygon fill="#191970" stroke="#191970" points="1397.2384,-253.7869 1406.4471,-248.5476 1395.981,-246.9007 1397.2384,-253.7869"/>
</g>
<!-- Node97&#45;&gt;Node1 -->
<g id="edge57" class="edge">
<title>Node97&#45;&gt;Node1</title>
<path fill="none" stroke="#191970" d="M150.4328,-295.3386C159.8508,-275.0037 181,-224.3467 181,-179.5 181,-179.5 181,-179.5 181,-119.5 181,-80.6492 204.8414,-71.5305 240,-55 321.3322,-16.7601 965.5846,-10.6118 1128.6152,-9.6655"/>
<polygon fill="#191970" stroke="#191970" points="1128.6662,-13.1654 1138.6467,-9.6104 1128.6276,-6.1655 1128.6662,-13.1654"/>
</g>
<!-- Node97&#45;&gt;Node2 -->
<g id="edge58" class="edge">
<title>Node97&#45;&gt;Node2</title>
<path fill="none" stroke="#191970" d="M226.4291,-295.7535C263.6808,-291.9648 308.5558,-287.7716 349,-285 741.2962,-258.1163 1212.9661,-245.1541 1387.085,-241.0226"/>
<polygon fill="#191970" stroke="#191970" points="1387.2185,-244.5205 1397.1333,-240.7861 1387.0537,-237.5224 1387.2185,-244.5205"/>
</g>
<!-- Node104&#45;&gt;Node1 -->
<g id="edge60" class="edge">
<title>Node104&#45;&gt;Node1</title>
<path fill="none" stroke="#191970" d="M844.6767,-365.4438C810.2885,-358.0081 765.8944,-345.1639 731,-324 710.3077,-311.4499 713.7241,-297.4977 693,-285 590.427,-223.143 445,-299.2811 445,-179.5 445,-179.5 445,-179.5 445,-119.5 445,-78.4851 473.577,-71.7853 511,-55 567.3349,-29.7322 997.4687,-14.6438 1128.34,-10.6032"/>
<polygon fill="#191970" stroke="#191970" points="1128.7642,-14.0919 1138.6528,-10.2886 1128.5507,-7.0952 1128.7642,-14.0919"/>
</g>
<!-- Node104&#45;&gt;Node2 -->
<g id="edge61" class="edge">
<title>Node104&#45;&gt;Node2</title>
<path fill="none" stroke="#191970" d="M908.3872,-365.1923C930.6137,-343.2493 985.3911,-289.7618 996,-285 1064.0688,-254.4472 1275.9417,-244.2734 1386.8033,-240.9932"/>
<polygon fill="#191970" stroke="#191970" points="1386.9872,-244.4894 1396.8833,-240.7057 1386.7876,-237.4923 1386.9872,-244.4894"/>
</g>
<!-- Node104&#45;&gt;Node40 -->
<g id="edge62" class="edge">
<title>Node104&#45;&gt;Node40</title>
<path fill="none" stroke="#191970" d="M863.0489,-365.4892C822.8296,-355.4035 755.7389,-338.5644 698,-324 687.7658,-321.4185 676.7682,-318.6375 666.3786,-316.0071"/>
<polygon fill="#191970" stroke="#191970" points="667.2018,-312.6051 656.6485,-313.5428 665.4831,-319.3909 667.2018,-312.6051"/>
</g>
<!-- Node107&#45;&gt;Node1 -->
<g id="edge64" class="edge">
<title>Node107&#45;&gt;Node1</title>
<path fill="none" stroke="#191970" d="M1179.6379,-365.4878C1184.2667,-347.5916 1191.5334,-307.3733 1171,-285 1135.4258,-246.2382 988.8175,-258.1075 937,-249 812.9511,-227.197 738.9522,-291.3198 659,-194 636.0349,-166.0463 600.7718,-124.0443 671,-55 703.4583,-23.0889 1018.6082,-12.8725 1128.4616,-10.266"/>
<polygon fill="#191970" stroke="#191970" points="1128.8178,-13.7588 1138.7349,-10.0304 1128.6572,-6.7607 1128.8178,-13.7588"/>
</g>
<!-- Node107&#45;&gt;Node2 -->
<g id="edge65" class="edge">
<title>Node107&#45;&gt;Node2</title>
<path fill="none" stroke="#191970" d="M1185.7741,-365.4317C1203.6871,-347.4348 1246.462,-307.0445 1290,-285 1321.8747,-268.861 1360.1842,-257.8725 1391.9655,-250.7437"/>
<polygon fill="#191970" stroke="#191970" points="1393.0052,-254.0998 1402.0383,-248.5632 1391.5242,-247.2583 1393.0052,-254.0998"/>
</g>
<!-- Node107&#45;&gt;Node84 -->
<g id="edge66" class="edge">
<title>Node107&#45;&gt;Node84</title>
<path fill="none" stroke="#191970" d="M1166.9336,-365.3487C1155.927,-355.3427 1137.9153,-338.9684 1123.3475,-325.725"/>
<polygon fill="#191970" stroke="#191970" points="1125.4287,-322.8869 1115.6749,-318.7499 1120.72,-328.0665 1125.4287,-322.8869"/>
</g>
<!-- Node116&#45;&gt;Node1 -->
<g id="edge68" class="edge">
<title>Node116&#45;&gt;Node1</title>
<path fill="none" stroke="#191970" d="M735.3669,-431.3718C619.6213,-415.8007 385.7834,-378.411 326,-324 296.0616,-296.752 292,-279.9817 292,-239.5 292,-239.5 292,-239.5 292,-119.5 292,-81.8263 313.2443,-71.729 347,-55 417.5583,-20.032 977.6089,-11.5229 1128.6058,-9.8554"/>
<polygon fill="#191970" stroke="#191970" points="1128.7963,-13.3537 1138.7583,-9.7469 1128.7215,-6.3541 1128.7963,-13.3537"/>
</g>
<!-- Node116&#45;&gt;Node2 -->
<g id="edge69" class="edge">
<title>Node116&#45;&gt;Node2</title>
<path fill="none" stroke="#191970" d="M866.3911,-428.7556C913.7961,-419.7691 972.6656,-405.7454 991,-389 1027.3364,-355.8128 990.224,-315.301 1029,-285 1056.5488,-263.4723 1273.0005,-249.0631 1386.7192,-242.8992"/>
<polygon fill="#191970" stroke="#191970" points="1386.9283,-246.3931 1396.7269,-242.3637 1386.5542,-239.4031 1386.9283,-246.3931"/>
</g>
<!-- Node116&#45;&gt;Node40 -->
<g id="edge70" class="edge">
<title>Node116&#45;&gt;Node40</title>
<path fill="none" stroke="#191970" d="M782.0771,-425.3078C747.9607,-399.7205 676.4331,-346.0748 641.3221,-319.7416"/>
<polygon fill="#191970" stroke="#191970" points="643.3251,-316.8689 633.2251,-313.6688 639.1251,-322.4689 643.3251,-316.8689"/>
</g>
<!-- Node116&#45;&gt;Node117 -->
<g id="edge71" class="edge">
<title>Node116&#45;&gt;Node117</title>
<path fill="none" stroke="#191970" d="M761.5087,-425.396C734.0817,-415.6006 697.3466,-402.4809 668.0429,-392.0153"/>
<polygon fill="#191970" stroke="#191970" points="669.0088,-388.6438 658.4142,-388.5765 666.6544,-395.236 669.0088,-388.6438"/>
</g>
<!-- Node117&#45;&gt;Node1 -->
<g id="edge72" class="edge">
<title>Node117&#45;&gt;Node1</title>
<path fill="none" stroke="#191970" d="M553.5499,-370.4037C483.1935,-364.6313 377.5767,-351.5585 349,-324 321.292,-297.2793 330,-277.9932 330,-239.5 330,-239.5 330,-239.5 330,-119.5 330,-82.9547 348.5816,-71.8702 381,-55 447.676,-20.3026 980.6286,-11.6302 1128.2273,-9.8843"/>
<polygon fill="#191970" stroke="#191970" points="1128.6116,-13.3803 1138.5709,-9.766 1128.5315,-6.3807 1128.6116,-13.3803"/>
</g>
<!-- Node117&#45;&gt;Node2 -->
<g id="edge73" class="edge">
<title>Node117&#45;&gt;Node2</title>
<path fill="none" stroke="#191970" d="M684.2959,-368.41C759.0952,-360.5625 876.3163,-345.344 915,-324 935.3918,-312.7487 929.1782,-295.4341 950,-285 988.0999,-265.9076 1257.0643,-249.7102 1386.5981,-242.9183"/>
<polygon fill="#191970" stroke="#191970" points="1387.003,-246.4021 1396.8077,-242.3873 1386.6394,-239.4115 1387.003,-246.4021"/>
</g>
<!-- Node117&#45;&gt;Node40 -->
<g id="edge74" class="edge">
<title>Node117&#45;&gt;Node40</title>
<path fill="none" stroke="#191970" d="M619.4047,-360.3345C619.7026,-349.9076 620.1114,-335.6021 620.4405,-324.0818"/>
<polygon fill="#191970" stroke="#191970" points="623.949,-323.8327 620.7361,-313.7368 616.9518,-323.6327 623.949,-323.8327"/>
</g>
<!-- Node120&#45;&gt;Node1 -->
<g id="edge77" class="edge">
<title>Node120&#45;&gt;Node1</title>
<path fill="none" stroke="#191970" d="M1205.8114,-500.4814C1034.9399,-488.2794 543.5953,-448.7972 395,-389 310.2689,-354.9028 254,-330.8344 254,-239.5 254,-239.5 254,-239.5 254,-119.5 254,-81.2436 276.5539,-71.6439 311,-55 385.2495,-19.1236 973.1806,-11.2564 1128.4856,-9.7972"/>
<polygon fill="#191970" stroke="#191970" points="1128.5264,-13.297 1138.4942,-9.7065 1128.4629,-6.2973 1128.5264,-13.297"/>
</g>
<!-- Node120&#45;&gt;Node2 -->
<g id="edge79" class="edge">
<title>Node120&#45;&gt;Node2</title>
<path fill="none" stroke="#191970" d="M1270.0784,-490.4204C1285.8966,-447.1479 1335.0699,-317.0908 1366,-285 1380.1473,-270.3218 1400.0439,-259.5831 1417.5332,-252.2368"/>
<polygon fill="#191970" stroke="#191970" points="1418.9453,-255.442 1426.95,-248.5011 1416.364,-248.9353 1418.9453,-255.442"/>
</g>
<!-- Node120&#45;&gt;Node32 -->
<g id="edge80" class="edge">
<title>Node120&#45;&gt;Node32</title>
<path fill="none" stroke="#191970" d="M1265.1788,-490.4571C1265.4664,-466.6177 1266,-416.7061 1266,-374.5 1266,-374.5 1266,-374.5 1266,-304.5 1266,-282.0355 955.4828,-216.7426 826.3247,-190.5559"/>
<polygon fill="#191970" stroke="#191970" points="826.7356,-187.0682 816.2402,-188.5161 825.3477,-193.9293 826.7356,-187.0682"/>
</g>
<!-- Node120&#45;&gt;Node116 -->
<g id="edge81" class="edge">
<title>Node120&#45;&gt;Node116</title>
<path fill="none" stroke="#191970" d="M1205.7628,-496.2017C1121.9298,-484.4578 968.6642,-462.9874 876.6858,-450.1025"/>
<polygon fill="#191970" stroke="#191970" points="876.9958,-446.6119 866.607,-448.6906 876.0247,-453.5442 876.9958,-446.6119"/>
</g>
<!-- Node57 -->
<g id="node36" class="node">
<title>Node57</title>
<polygon fill="#ffffff" stroke="#bfbfbf" points="2339.3843,-365.5 2339.3843,-383.5 2382.6157,-383.5 2382.6157,-365.5 2339.3843,-365.5"/>
<text text-anchor="middle" x="2361" y="-371.5" font-family="FreeSans" font-size="10.00" fill="#000000">vector</text>
</g>
<!-- Node120&#45;&gt;Node57 -->
<g id="edge78" class="edge">
<title>Node120&#45;&gt;Node57</title>
<path fill="none" stroke="#191970" d="M1324.3539,-503.0806C1521.0226,-498.1445 2143.7742,-480.566 2230,-454 2273.9281,-440.4658 2318.2336,-408.9865 2342.3967,-389.9505"/>
<polygon fill="#191970" stroke="#191970" points="2344.7491,-392.5501 2350.3496,-383.5565 2340.363,-387.0947 2344.7491,-392.5501"/>
</g>
<!-- Node151&#45;&gt;Node1 -->
<g id="edge83" class="edge">
<title>Node151&#45;&gt;Node1</title>
<path fill="none" stroke="#191970" d="M426.7155,-285.2823C403.0442,-262.612 369,-222.5281 369,-179.5 369,-179.5 369,-179.5 369,-119.5 369,-85.532 380.7324,-72.2405 410,-55 472.2402,-18.3364 984.687,-11.0902 1128.5626,-9.7732"/>
<polygon fill="#191970" stroke="#191970" points="1128.6898,-13.2723 1138.6588,-9.6851 1128.6286,-6.2725 1128.6898,-13.2723"/>
</g>
<!-- Node151&#45;&gt;Node2 -->
<g id="edge85" class="edge">
<title>Node151&#45;&gt;Node2</title>
<path fill="none" stroke="#191970" d="M540.4697,-286.1223C543.342,-285.7185 546.1907,-285.3426 549,-285 711.0479,-265.2378 1204.4315,-247.6745 1387.0612,-241.6842"/>
<polygon fill="#191970" stroke="#191970" points="1387.2014,-245.1816 1397.0817,-241.3569 1386.9728,-238.1853 1387.2014,-245.1816"/>
</g>
<!-- Node151&#45;&gt;Node12 -->
<g id="edge84" class="edge">
<title>Node151&#45;&gt;Node12</title>
<path fill="none" stroke="#191970" d="M464.2812,-285.3985C493.1625,-249.2969 555.3485,-171.5644 583.1162,-136.8547"/>
<polygon fill="#191970" stroke="#191970" points="586.1736,-138.6358 589.6875,-128.6406 580.7075,-134.2629 586.1736,-138.6358"/>
</g>
<!-- Node156&#45;&gt;Node1 -->
<g id="edge87" class="edge">
<title>Node156&#45;&gt;Node1</title>
<path fill="none" stroke="#191970" d="M750.8947,-285.4736C651.0908,-258.1017 483,-207.8008 483,-179.5 483,-179.5 483,-179.5 483,-119.5 483,-63.9725 537.1303,-71.9737 590,-55 690.8526,-22.6214 1017.3018,-12.6996 1128.5006,-10.2181"/>
<polygon fill="#191970" stroke="#191970" points="1128.6529,-13.7157 1138.5751,-10.0007 1128.5018,-6.7173 1128.6529,-13.7157"/>
</g>
<!-- Node156&#45;&gt;Node2 -->
<g id="edge89" class="edge">
<title>Node156&#45;&gt;Node2</title>
<path fill="none" stroke="#191970" d="M905.9685,-287.1755C910.7066,-286.3874 915.4085,-285.6542 920,-285 1086.7059,-261.2463 1284.4777,-248.3819 1386.8556,-242.8511"/>
<polygon fill="#191970" stroke="#191970" points="1387.2614,-246.3346 1397.0609,-242.3071 1386.8888,-239.3445 1387.2614,-246.3346"/>
</g>
<!-- Node156&#45;&gt;Node12 -->
<g id="edge88" class="edge">
<title>Node156&#45;&gt;Node12</title>
<path fill="none" stroke="#191970" d="M762.8356,-285.3853C717.8361,-268.1857 657.937,-238.668 621,-194 607.9133,-178.1742 601.9138,-155.0707 599.1945,-138.7972"/>
<polygon fill="#191970" stroke="#191970" points="602.6466,-138.2112 597.7892,-128.7955 595.7147,-139.1852 602.6466,-138.2112"/>
</g>
<!-- Node158&#45;&gt;Node1 -->
<g id="edge91" class="edge">
<title>Node158&#45;&gt;Node1</title>
<path fill="none" stroke="#191970" d="M2027.9867,-501.4061C2196.9383,-494.159 2590.4637,-475.0931 2610,-454 2664.9037,-394.7211 2494.7689,-349.8241 2543,-285 2576.2381,-240.327 2616.0291,-278.9028 2663,-249 2697.9181,-226.7703 2725,-220.8936 2725,-179.5 2725,-179.5 2725,-179.5 2725,-119.5 2725,-80.9478 2701.9723,-71.2238 2667,-55 2598.6473,-23.2909 1429.3543,-11.744 1203.5668,-9.8053"/>
<polygon fill="#191970" stroke="#191970" points="1203.2711,-6.3027 1193.2417,-9.7177 1203.2116,-13.3025 1203.2711,-6.3027"/>
</g>
<!-- Node158&#45;&gt;Node2 -->
<g id="edge92" class="edge">
<title>Node158&#45;&gt;Node2</title>
<path fill="none" stroke="#191970" d="M1875.9034,-500.5072C1796.2691,-494.8846 1678.03,-481.9994 1643,-454 1607.8001,-425.8648 1631.8193,-396.2125 1605,-360 1570.3992,-313.2806 1513.6076,-274.1952 1481.0437,-254.0913"/>
<polygon fill="#191970" stroke="#191970" points="1482.5193,-250.893 1472.1532,-248.7035 1478.8914,-256.8795 1482.5193,-250.893"/>
</g>
<!-- Node52 -->
<g id="node40" class="node">
<title>Node52</title>
<g id="a_node40"><a xlink:href="CLabel_8h_source.html" target="_top" xlink:title="DGtal/base/CLabel.h">
<polygon fill="#ffffff" stroke="#000000" points="1841.584,-295.5 1841.584,-313.5 1950.416,-313.5 1950.416,-295.5 1841.584,-295.5"/>
<text text-anchor="middle" x="1896" y="-301.5" font-family="FreeSans" font-size="10.00" fill="#000000">DGtal/base/CLabel.h</text>
</a>
</g>
</g>
<!-- Node158&#45;&gt;Node52 -->
<g id="edge93" class="edge">
<title>Node158&#45;&gt;Node52</title>
<path fill="none" stroke="#191970" d="M1960.6749,-495.3449C1969.0157,-485.8571 1981.0627,-470.174 1986,-454 1989.7631,-441.6727 1990.0636,-437.2315 1986,-425 1971.7027,-381.9651 1935.383,-341.8622 1913.5013,-320.5193"/>
<polygon fill="#191970" stroke="#191970" points="1915.8176,-317.892 1906.1604,-313.5342 1910.9922,-322.9631 1915.8176,-317.892"/>
</g>
<!-- Node159 -->
<g id="node41" class="node">
<title>Node159</title>
<g id="a_node41"><a xlink:href="ImageContainerBySTLMap_8h_source.html" target="_top" xlink:title="DGtal/images/ImageContainer\lBySTLMap.h">
<polygon fill="#ffffff" stroke="#ff0000" points="1445.7466,-360.5 1445.7466,-388.5 1596.2534,-388.5 1596.2534,-360.5 1445.7466,-360.5"/>
<text text-anchor="start" x="1453.7466" y="-376.5" font-family="FreeSans" font-size="10.00" fill="#000000">DGtal/images/ImageContainer</text>
<text text-anchor="middle" x="1521" y="-366.5" font-family="FreeSans" font-size="10.00" fill="#000000">BySTLMap.h</text>
</a>
</g>
</g>
<!-- Node158&#45;&gt;Node159 -->
<g id="edge96" class="edge">
<title>Node158&#45;&gt;Node159</title>
<path fill="none" stroke="#191970" d="M1875.8828,-498.3826C1789.8678,-490.5786 1655.8639,-475.4709 1610,-454 1581.3962,-440.6093 1555.2995,-414.9763 1538.8668,-396.4293"/>
<polygon fill="#191970" stroke="#191970" points="1541.4077,-394.0162 1532.2296,-388.7235 1536.1039,-398.5846 1541.4077,-394.0162"/>
</g>
<!-- Node166 -->
<g id="node42" class="node">
<title>Node166</title>
<g id="a_node42"><a xlink:href="ImageContainerBySTLVector_8h_source.html" target="_top" xlink:title="DGtal/images/ImageContainer\lBySTLVector.h">
<polygon fill="#ffffff" stroke="#ff0000" points="2070.7466,-425.5 2070.7466,-453.5 2221.2534,-453.5 2221.2534,-425.5 2070.7466,-425.5"/>
<text text-anchor="start" x="2078.7466" y="-441.5" font-family="FreeSans" font-size="10.00" fill="#000000">DGtal/images/ImageContainer</text>
<text text-anchor="middle" x="2146" y="-431.5" font-family="FreeSans" font-size="10.00" fill="#000000">BySTLVector.h</text>
</a>
</g>
</g>
<!-- Node158&#45;&gt;Node166 -->
<g id="edge101" class="edge">
<title>Node158&#45;&gt;Node166</title>
<path fill="none" stroke="#191970" d="M1978.9749,-495.462C2008.6979,-485.5033 2057.2042,-469.2512 2094.3056,-456.8203"/>
<polygon fill="#191970" stroke="#191970" points="2095.5872,-460.0822 2103.9572,-453.5865 2093.3633,-453.4448 2095.5872,-460.0822"/>
</g>
<!-- Node174 -->
<g id="node43" class="node">
<title>Node174</title>
<g id="a_node43"><a xlink:href="ImageContainerByHashTree_8h_source.html" target="_top" xlink:title="DGtal/images/ImageContainer\lByHashTree.h">
<polygon fill="#ffffff" stroke="#ff0000" points="1651.7466,-425.5 1651.7466,-453.5 1802.2534,-453.5 1802.2534,-425.5 1651.7466,-425.5"/>
<text text-anchor="start" x="1659.7466" y="-441.5" font-family="FreeSans" font-size="10.00" fill="#000000">DGtal/images/ImageContainer</text>
<text text-anchor="middle" x="1727" y="-431.5" font-family="FreeSans" font-size="10.00" fill="#000000">ByHashTree.h</text>
</a>
</g>
</g>
<!-- Node158&#45;&gt;Node174 -->
<g id="edge109" class="edge">
<title>Node158&#45;&gt;Node174</title>
<path fill="none" stroke="#191970" d="M1920.7147,-495.462C1885.8754,-485.3973 1828.7854,-468.9047 1785.5861,-456.4249"/>
<polygon fill="#191970" stroke="#191970" points="1786.3396,-452.9995 1775.761,-453.5865 1784.3967,-459.7245 1786.3396,-452.9995"/>
</g>
<!-- Node182 -->
<g id="node44" class="node">
<title>Node182</title>
<g id="a_node44"><a xlink:href="ImageSelector_8ih_source.html" target="_top" xlink:title="DGtal/images//ImageSelector.ih">
<polygon fill="#ffffff" stroke="#000000" points="1820.6875,-430.5 1820.6875,-448.5 1977.3125,-448.5 1977.3125,-430.5 1820.6875,-430.5"/>
<text text-anchor="middle" x="1899" y="-436.5" font-family="FreeSans" font-size="10.00" fill="#000000">DGtal/images//ImageSelector.ih</text>
</a>
</g>
</g>
<!-- Node158&#45;&gt;Node182 -->
<g id="edge115" class="edge">
<title>Node158&#45;&gt;Node182</title>
<path fill="none" stroke="#191970" d="M1944.6306,-495.462C1936.4958,-485.4854 1923.2111,-469.1929 1913.0682,-456.7535"/>
<polygon fill="#191970" stroke="#191970" points="1915.682,-454.4206 1906.6501,-448.8821 1910.2569,-458.8441 1915.682,-454.4206"/>
</g>
<!-- Node52&#45;&gt;Node1 -->
<g id="edge94" class="edge">
<title>Node52&#45;&gt;Node1</title>
<path fill="none" stroke="#191970" d="M1950.4808,-299.591C2105.0089,-284.9416 2535,-238.8461 2535,-179.5 2535,-179.5 2535,-179.5 2535,-119.5 2535,-50.7336 1423.0138,-16.5706 1203.409,-10.4943"/>
<polygon fill="#191970" stroke="#191970" points="1203.4385,-6.9939 1193.3463,-10.2184 1203.2466,-13.9913 1203.4385,-6.9939"/>
</g>
<!-- Node52&#45;&gt;Node2 -->
<g id="edge95" class="edge">
<title>Node52&#45;&gt;Node2</title>
<path fill="none" stroke="#191970" d="M1841.1633,-296.3991C1761.1669,-284.5815 1612.5108,-262.6209 1525.1259,-249.7118"/>
<polygon fill="#191970" stroke="#191970" points="1525.4465,-246.2212 1515.0424,-248.2222 1524.4235,-253.1461 1525.4465,-246.2212"/>
</g>
<!-- Node159&#45;&gt;Node1 -->
<g id="edge97" class="edge">
<title>Node159&#45;&gt;Node1</title>
<path fill="none" stroke="#191970" d="M1474.4611,-360.4867C1411.0074,-341.6915 1293.6056,-308.0219 1192,-285 1164.4639,-278.7608 710.089,-215.6784 692,-194 646.5202,-139.4958 675.8694,-111.5621 774,-55 833.8305,-20.514 1042.5133,-12.1264 1128.5143,-10.1189"/>
<polygon fill="#191970" stroke="#191970" points="1128.6937,-13.6159 1138.6154,-9.8996 1128.5417,-6.6176 1128.6937,-13.6159"/>
</g>
<!-- Node159&#45;&gt;Node2 -->
<g id="edge98" class="edge">
<title>Node159&#45;&gt;Node2</title>
<path fill="none" stroke="#191970" d="M1514.1667,-360.3078C1502.3167,-335.6963 1477.9679,-285.1256 1464.845,-257.8704"/>
<polygon fill="#191970" stroke="#191970" points="1467.9063,-256.1605 1460.4146,-248.6688 1461.5993,-259.1972 1467.9063,-256.1605"/>
</g>
<!-- Node159&#45;&gt;Node32 -->
<g id="edge99" class="edge">
<title>Node159&#45;&gt;Node32</title>
<path fill="none" stroke="#191970" d="M1503.938,-360.396C1466.3053,-330.2078 1372.1794,-259.6737 1280,-230 1095.7596,-170.6907 1037.7413,-220.4085 846,-194 838.6007,-192.9809 830.827,-191.7084 823.2019,-190.3433"/>
<polygon fill="#191970" stroke="#191970" points="823.7779,-186.8905 813.3074,-188.509 822.5018,-193.7732 823.7779,-186.8905"/>
</g>
<!-- Node159&#45;&gt;Node52 -->
<g id="edge100" class="edge">
<title>Node159&#45;&gt;Node52</title>
<path fill="none" stroke="#191970" d="M1596.4357,-360.4187C1667.5936,-347.1359 1772.7645,-327.504 1837.6982,-315.383"/>
<polygon fill="#191970" stroke="#191970" points="1838.5749,-318.7799 1847.7628,-313.5043 1837.2903,-311.8988 1838.5749,-318.7799"/>
</g>
<!-- Node166&#45;&gt;Node1 -->
<g id="edge102" class="edge">
<title>Node166&#45;&gt;Node1</title>
<path fill="none" stroke="#191970" d="M2199.7363,-425.4004C2228.0906,-416.8638 2262.9303,-404.5966 2292,-389 2310.7209,-378.9558 2311.4646,-370.3826 2330,-360 2368.6688,-338.3397 2382.0973,-341.0709 2423,-324 2462.1049,-307.6794 2470.2083,-299.5664 2510,-285 2564.2904,-265.1261 2587.4294,-281.8551 2635,-249 2666.7428,-227.0765 2687,-218.0778 2687,-179.5 2687,-179.5 2687,-179.5 2687,-119.5 2687,-83.2287 2669.3195,-71.4637 2637,-55 2571.2705,-21.517 1426.7596,-11.4151 1203.5593,-9.7596"/>
<polygon fill="#191970" stroke="#191970" points="1203.3686,-6.2582 1193.3433,-9.685 1203.3174,-13.258 1203.3686,-6.2582"/>
</g>
<!-- Node166&#45;&gt;Node2 -->
<g id="edge104" class="edge">
<title>Node166&#45;&gt;Node2</title>
<path fill="none" stroke="#191970" d="M2144.8169,-425.4275C2141.3575,-394.1482 2128.2792,-318.9402 2081,-285 2036.6959,-253.1955 1678.349,-243.2992 1525.1026,-240.5035"/>
<polygon fill="#191970" stroke="#191970" points="1524.9309,-237 1514.8703,-240.3219 1524.8065,-243.9989 1524.9309,-237"/>
</g>
<!-- Node166&#45;&gt;Node40 -->
<g id="edge106" class="edge">
<title>Node166&#45;&gt;Node40</title>
<path fill="none" stroke="#191970" d="M2070.3773,-431.7106C2043.7351,-429.2147 2013.5623,-426.6682 1986,-425 1855.1783,-417.082 931.0352,-431.3351 807,-389 786.2187,-381.907 786.3197,-370.4365 767,-360 732.9181,-341.589 691.4111,-326.4436 661.3781,-316.6521"/>
<polygon fill="#191970" stroke="#191970" points="662.2512,-313.2567 651.6601,-313.5398 660.1161,-319.9232 662.2512,-313.2567"/>
</g>
<!-- Node166&#45;&gt;Node62 -->
<g id="edge107" class="edge">
<title>Node166&#45;&gt;Node62</title>
<path fill="none" stroke="#191970" d="M2163.5758,-425.396C2174.6148,-416.5375 2189.0417,-404.9604 2201.3465,-395.0861"/>
<polygon fill="#191970" stroke="#191970" points="2203.8498,-397.565 2209.4585,-388.5765 2199.4686,-392.1055 2203.8498,-397.565"/>
</g>
<!-- Node166&#45;&gt;Node45 -->
<g id="edge108" class="edge">
<title>Node166&#45;&gt;Node45</title>
<path fill="none" stroke="#191970" d="M2145.0154,-425.4351C2144.5738,-408.0706 2146.4517,-378.5646 2162,-360 2180.7295,-337.637 2209.6867,-324.2342 2236.4979,-316.2252"/>
<polygon fill="#191970" stroke="#191970" points="2237.5589,-319.563 2246.2557,-313.5119 2235.6835,-312.8189 2237.5589,-319.563"/>
</g>
<!-- Node166&#45;&gt;Node57 -->
<g id="edge103" class="edge">
<title>Node166&#45;&gt;Node57</title>
<path fill="none" stroke="#191970" d="M2201.7114,-425.442C2237.2793,-416.0599 2284.2047,-402.925 2325,-389 2326.6221,-388.4463 2328.2772,-387.8595 2329.9429,-387.2516"/>
<polygon fill="#191970" stroke="#191970" points="2331.3477,-390.4617 2339.4401,-383.6234 2328.8495,-383.9227 2331.3477,-390.4617"/>
</g>
<!-- Node166&#45;&gt;Node52 -->
<g id="edge105" class="edge">
<title>Node166&#45;&gt;Node52</title>
<path fill="none" stroke="#191970" d="M2119.7181,-425.3078C2071.5143,-399.2777 1969.5364,-344.2097 1921.7393,-318.3992"/>
<polygon fill="#191970" stroke="#191970" points="1923.1295,-315.1723 1912.6674,-313.5004 1919.8034,-321.3316 1923.1295,-315.1723"/>
</g>
<!-- Node174&#45;&gt;Node1 -->
<g id="edge110" class="edge">
<title>Node174&#45;&gt;Node1</title>
<path fill="none" stroke="#191970" d="M1767.0997,-425.4532C1850.9512,-396.427 2051.2919,-328.8841 2223,-285 2301.6215,-264.9064 2324.049,-271.5551 2402,-249 2480.8047,-226.1979 2573,-261.5373 2573,-179.5 2573,-179.5 2573,-179.5 2573,-119.5 2573,-109.6859 2589.6362,-92.9085 2267,-55 2054.248,-30.0024 1371.1688,-13.9208 1203.4522,-10.2856"/>
<polygon fill="#191970" stroke="#191970" points="1203.4553,-6.785 1193.3823,-10.0689 1203.3046,-13.7833 1203.4553,-6.785"/>
</g>
<!-- Node174&#45;&gt;Node2 -->
<g id="edge111" class="edge">
<title>Node174&#45;&gt;Node2</title>
<path fill="none" stroke="#191970" d="M1723.0405,-425.452C1713.6739,-394.885 1687.1666,-322.1116 1638,-285 1619.6325,-271.136 1566.0863,-258.7137 1521.7955,-250.366"/>
<polygon fill="#191970" stroke="#191970" points="1522.3937,-246.9174 1511.9243,-248.5431 1521.1224,-253.801 1522.3937,-246.9174"/>
</g>
<!-- Node174&#45;&gt;Node40 -->
<g id="edge114" class="edge">
<title>Node174&#45;&gt;Node40</title>
<path fill="none" stroke="#191970" d="M1651.4854,-437.8163C1440.7308,-432.7922 856.1871,-416.5232 774,-389 752.1419,-381.6801 750.8851,-371.6594 731,-360 704.3177,-344.3551 672.6823,-328.6767 650.2024,-317.9942"/>
<polygon fill="#191970" stroke="#191970" points="651.4077,-314.693 640.8698,-313.5962 648.4237,-321.0252 651.4077,-314.693"/>
</g>
<!-- Node174&#45;&gt;Node62 -->
<g id="edge113" class="edge">
<title>Node174&#45;&gt;Node62</title>
<path fill="none" stroke="#191970" d="M1802.514,-426.4252C1805.7169,-425.9317 1808.8893,-425.4543 1812,-425 1934.7652,-407.0699 2078.6158,-390.5686 2160.6565,-381.5824"/>
<polygon fill="#191970" stroke="#191970" points="2161.2763,-385.0356 2170.8374,-380.4711 2160.5166,-378.077 2161.2763,-385.0356"/>
</g>
<!-- Node174&#45;&gt;Node52 -->
<g id="edge112" class="edge">
<title>Node174&#45;&gt;Node52</title>
<path fill="none" stroke="#191970" d="M1744.7665,-425.3078C1776.6623,-399.829 1843.386,-346.5289 1876.4989,-320.0778"/>
<polygon fill="#191970" stroke="#191970" points="1878.8932,-322.6448 1884.522,-313.6688 1874.5243,-317.1755 1878.8932,-322.6448"/>
</g>
<!-- Node183&#45;&gt;Node1 -->
<g id="edge117" class="edge">
<title>Node183&#45;&gt;Node1</title>
<path fill="none" stroke="#191970" d="M2536.0268,-425.3688C2563.2816,-407.6575 2612.8021,-377.5058 2659,-360 2727.565,-334.0186 2768.1223,-375.816 2820,-324 2847.235,-296.7974 2839,-277.9932 2839,-239.5 2839,-239.5 2839,-239.5 2839,-119.5 2839,-83.2287 2821.3433,-71.4169 2789,-55 2716.0499,-17.9717 1440.3865,-10.6826 1203.6402,-9.6467"/>
<polygon fill="#191970" stroke="#191970" points="1203.4835,-6.1461 1193.4686,-9.6033 1203.4536,-13.146 1203.4835,-6.1461"/>
</g>
<!-- Node183&#45;&gt;Node2 -->
<g id="edge119" class="edge">
<title>Node183&#45;&gt;Node2</title>
<path fill="none" stroke="#191970" d="M2508.3166,-425.1491C2492.2302,-392.5917 2447.8289,-313.735 2383,-285 2305.3555,-250.5846 1726.8467,-241.995 1525.1323,-240.0353"/>
<polygon fill="#191970" stroke="#191970" points="1524.9898,-236.5339 1514.957,-239.939 1524.9234,-243.5336 1524.9898,-236.5339"/>
</g>
<!-- Node183&#45;&gt;Node62 -->
<g id="edge121" class="edge">
<title>Node183&#45;&gt;Node62</title>
<path fill="none" stroke="#191970" d="M2452.8629,-425.476C2405.7774,-414.8491 2341.2059,-400.2756 2293.1613,-389.4322"/>
<polygon fill="#191970" stroke="#191970" points="2293.6974,-385.9653 2283.1722,-387.1777 2292.1562,-392.7935 2293.6974,-385.9653"/>
</g>
<!-- Node183&#45;&gt;Node45 -->
<g id="edge120" class="edge">
<title>Node183&#45;&gt;Node45</title>
<path fill="none" stroke="#191970" d="M2501.7159,-425.4413C2485.0203,-408.3508 2454.9127,-379.3947 2425,-360 2397.4218,-342.1189 2363.1353,-327.0737 2337.939,-317.1785"/>
<polygon fill="#191970" stroke="#191970" points="2339.0124,-313.8414 2328.4226,-313.5156 2336.4979,-320.3742 2339.0124,-313.8414"/>
</g>
<!-- Node183&#45;&gt;Node57 -->
<g id="edge118" class="edge">
<title>Node183&#45;&gt;Node57</title>
<path fill="none" stroke="#191970" d="M2481.5843,-425.396C2454.9143,-414.1392 2417.8428,-398.4921 2391.8667,-387.5281"/>
<polygon fill="#191970" stroke="#191970" points="2393.0731,-384.2384 2382.4991,-383.5743 2390.3511,-390.6875 2393.0731,-384.2384"/>
</g>
<!-- Node193&#45;&gt;Node1 -->
<g id="edge124" class="edge">
<title>Node193&#45;&gt;Node1</title>
<path fill="none" stroke="#191970" d="M2464.1523,-490.4845C2512.7439,-481.5227 2575.289,-468.8154 2630,-454 2825.0914,-401.1705 3031,-441.6178 3031,-239.5 3031,-239.5 3031,-239.5 3031,-119.5 3031,-47.747 2953.0432,-70.5706 2883,-55 2714.0361,-17.4394 1439.1981,-10.5835 1203.4365,-9.6329"/>
<polygon fill="#191970" stroke="#191970" points="1203.3238,-6.1325 1193.3101,-9.5932 1203.2962,-13.1325 1203.3238,-6.1325"/>
</g>
<!-- Node193&#45;&gt;Node2 -->
<g id="edge126" class="edge">
<title>Node193&#45;&gt;Node2</title>
<path fill="none" stroke="#191970" d="M2276.8537,-497.4113C2197.448,-490.3259 2096.4672,-477.0769 2062,-454 1988.9081,-405.0627 2033.6739,-331.4875 1959,-285 1923.0345,-262.6101 1654.6916,-248.0941 1525.3343,-242.3242"/>
<polygon fill="#191970" stroke="#191970" points="1525.2825,-238.8187 1515.138,-241.8747 1524.9741,-245.8119 1525.2825,-238.8187"/>
</g>
<!-- Node193&#45;&gt;Node62 -->
<g id="edge128" class="edge">
<title>Node193&#45;&gt;Node62</title>
<path fill="none" stroke="#191970" d="M2365.1172,-490.3402C2337.7474,-467.3849 2283.5612,-421.9385 2251.8033,-395.3028"/>
<polygon fill="#191970" stroke="#191970" points="2253.7731,-392.3868 2243.862,-388.6423 2249.2747,-397.7501 2253.7731,-392.3868"/>
</g>
<!-- Node193&#45;&gt;Node45 -->
<g id="edge127" class="edge">
<title>Node193&#45;&gt;Node45</title>
<path fill="none" stroke="#191970" d="M2387.7973,-490.2639C2397.9067,-463.0173 2415.5489,-402.4374 2392,-360 2380.9647,-340.1132 2359.5125,-326.4206 2340.4346,-317.6118"/>
<polygon fill="#191970" stroke="#191970" points="2341.5988,-314.3023 2331.0301,-313.5589 2338.8284,-320.7308 2341.5988,-314.3023"/>
</g>
<!-- Node193&#45;&gt;Node57 -->
<g id="edge125" class="edge">
<title>Node193&#45;&gt;Node57</title>
<path fill="none" stroke="#191970" d="M2379.7127,-490.3402C2375.9176,-466.8472 2368.3172,-419.7968 2364.0631,-393.4623"/>
<polygon fill="#191970" stroke="#191970" points="2367.5157,-392.8874 2362.4657,-383.5736 2360.6053,-394.0038 2367.5157,-392.8874"/>
</g>
<!-- Node193&#45;&gt;Node166 -->
<g id="edge129" class="edge">
<title>Node193&#45;&gt;Node166</title>
<path fill="none" stroke="#191970" d="M2331.0821,-490.476C2294.7609,-480.4723 2245.7423,-466.9714 2207.2763,-456.3769"/>
<polygon fill="#191970" stroke="#191970" points="2207.8039,-452.892 2197.2335,-453.6109 2205.9451,-459.6407 2207.8039,-452.892"/>
</g>
<!-- Node198&#45;&gt;Node1 -->
<g id="edge131" class="edge">
<title>Node198&#45;&gt;Node1</title>
<path fill="none" stroke="#191970" d="M2652.9651,-290.4563C2685.3888,-278.8682 2726.7385,-262.239 2739,-249 2761.2053,-225.0245 2763,-212.1788 2763,-179.5 2763,-179.5 2763,-179.5 2763,-119.5 2763,-88.9131 2763.8629,-72.8155 2739,-55 2706.7736,-31.9081 1439.0932,-13.2759 1203.4798,-10.0086"/>
<polygon fill="#191970" stroke="#191970" points="1203.4031,-6.5073 1193.3557,-9.8689 1203.3065,-13.5067 1203.4031,-6.5073"/>
</g>
<!-- Node198&#45;&gt;Node2 -->
<g id="edge132" class="edge">
<title>Node198&#45;&gt;Node2</title>
<path fill="none" stroke="#191970" d="M2551.8699,-292.6407C2535.1619,-289.691 2516.9219,-286.8472 2500,-285 2310.2118,-264.283 1726.8457,-246.8767 1525.325,-241.3401"/>
<polygon fill="#191970" stroke="#191970" points="1525.2559,-237.837 1515.1638,-241.0621 1525.0644,-244.8344 1525.2559,-237.837"/>
</g>
<!-- Node217&#45;&gt;Node1 -->
<g id="edge134" class="edge">
<title>Node217&#45;&gt;Node1</title>
<path fill="none" stroke="#191970" d="M2759.2735,-290.2967C2774.4279,-267.906 2801,-222.5128 2801,-179.5 2801,-179.5 2801,-179.5 2801,-119.5 2801,-86.0004 2790.942,-71.8696 2762,-55 2692.5322,-14.509 1437.569,-10.0389 1203.4437,-9.557"/>
<polygon fill="#191970" stroke="#191970" points="1203.3869,-6.057 1193.3801,-9.5375 1203.3732,-13.057 1203.3869,-6.057"/>
</g>
<!-- Node217&#45;&gt;Node2 -->
<g id="edge135" class="edge">
<title>Node217&#45;&gt;Node2</title>
<path fill="none" stroke="#191970" d="M2704.5312,-290.4339C2696.1267,-288.2555 2687.3518,-286.3002 2679,-285 2454.2527,-250.0126 1749.9997,-241.7223 1525.4957,-239.9458"/>
<polygon fill="#191970" stroke="#191970" points="1525.1983,-236.4435 1515.1715,-239.8661 1525.1441,-243.4433 1525.1983,-236.4435"/>
</g>
<!-- Node219&#45;&gt;Node1 -->
<g id="edge137" class="edge">
<title>Node219&#45;&gt;Node1</title>
<path fill="none" stroke="#191970" d="M2931.3271,-295.2622C2923.5236,-274.7748 2906,-223.8327 2906,-179.5 2906,-179.5 2906,-179.5 2906,-119.5 2906,-82.3969 2886.3289,-71.3042 2853,-55 2776.4167,-17.5362 1444.1546,-10.5832 1203.2004,-9.6304"/>
<polygon fill="#191970" stroke="#191970" points="1203.1989,-6.1304 1193.1854,-9.5918 1203.1718,-13.1304 1203.1989,-6.1304"/>
</g>
<!-- Node219&#45;&gt;Node2 -->
<g id="edge138" class="edge">
<title>Node219&#45;&gt;Node2</title>
<path fill="none" stroke="#191970" d="M2890.1322,-295.4501C2868.9521,-291.5492 2843.2707,-287.3503 2820,-285 2564.7959,-259.2249 1765.5882,-244.5023 1525.123,-240.5738"/>
<polygon fill="#191970" stroke="#191970" points="1525.1658,-237.0742 1515.1103,-240.4112 1525.0521,-244.0732 1525.1658,-237.0742"/>
</g>
<!-- Node334&#45;&gt;Node1 -->
<g id="edge140" class="edge">
<title>Node334&#45;&gt;Node1</title>
<path fill="none" stroke="#191970" d="M3129.4445,-290.2187C3119.5645,-267.3522 3102,-220.8813 3102,-179.5 3102,-179.5 3102,-179.5 3102,-119.5 3102,-81.2436 3079.6835,-71.1435 3045,-55 2958.5088,-14.7425 1461.6055,-10.0662 1203.6898,-9.5587"/>
<polygon fill="#191970" stroke="#191970" points="1203.3574,-6.0582 1193.3508,-9.5393 1203.3442,-13.0581 1203.3574,-6.0582"/>
</g>
<!-- Node334&#45;&gt;Node2 -->
<g id="edge141" class="edge">
<title>Node334&#45;&gt;Node2</title>
<path fill="none" stroke="#191970" d="M3058.7985,-290.8106C3043.3432,-288.5079 3027.1893,-286.4107 3012,-285 2717.241,-257.625 1787.4806,-243.7822 1525.3867,-240.3582"/>
<polygon fill="#191970" stroke="#191970" points="1525.2874,-236.8568 1515.2428,-240.2266 1525.1965,-243.8562 1525.2874,-236.8568"/>
</g>
</g>
</svg>
