<?xml version="1.0" encoding="UTF-8" standalone="no"?>
<!DOCTYPE svg PUBLIC "-//W3C//DTD SVG 1.1//EN"
 "http://www.w3.org/Graphics/SVG/1.1/DTD/svg11.dtd">
<!-- Generated by graphviz version 2.40.1 (20161225.0304)
 -->
<!-- Title: volDistanceTraversal.cpp Pages: 1 -->
<!--zoomable 462 -->
<svg id="main" version="1.1" xmlns="http://www.w3.org/2000/svg" xmlns:xlink="http://www.w3.org/1999/xlink" xml:space="preserve" onload="init(evt)">
<style type="text/css"><![CDATA[
.edge:hover path { stroke: red; }
.edge:hover polygon { stroke: red; fill: red; }
]]></style>
<script type="text/javascript"><![CDATA[
var edges = document.getElementsByTagName('g');
if (edges && edges.length) {
  for (var i=0;i<edges.length;i++) {
    if (edges[i].id.substr(0,4)=='edge') {
      edges[i].setAttribute('class','edge');
    }
  }
}
]]></script>
        <defs>
                <circle id="rim" cx="0" cy="0" r="7"/>
                <circle id="rim2" cx="0" cy="0" r="3.5"/>
                <g id="zoomPlus">
                        <use xlink:href="#rim" fill="#404040">
                                <set attributeName="fill" to="#808080" begin="zoomplus.mouseover" end="zoomplus.mouseout"/>
                        </use>
                        <path d="M-4,0h8M0,-4v8" fill="none" stroke="white" stroke-width="1.5" pointer-events="none"/>
                </g>
                <g id="zoomMin">
                        <use xlink:href="#rim" fill="#404040">
                                <set attributeName="fill" to="#808080" begin="zoomminus.mouseover" end="zoomminus.mouseout"/>
                        </use>
                        <path d="M-4,0h8" fill="none" stroke="white" stroke-width="1.5" pointer-events="none"/>
                </g>
                <g id="dirArrow">
                        <path fill="none" stroke="white" stroke-width="1.5" d="M0,-3.0v7 M-2.5,-0.5L0,-3.0L2.5,-0.5"/>
                </g>
               <g id="resetDef">
                       <use xlink:href="#rim2" fill="#404040">
                               <set attributeName="fill" to="#808080" begin="reset.mouseover" end="reset.mouseout"/>
                       </use>
               </g>
        </defs>

<script type="text/javascript">
var viewWidth = 4208;
var viewHeight = 462;
var sectionId = 'dynsection-0';
</script>
<script xlink:href="svgpan.js"/>
<svg id="graph" class="graph">
<g id="viewport">
<title>volDistanceTraversal.cpp</title>
<polygon fill="#ffffff" stroke="transparent" points="-4,4 -4,-458 4204,-458 4204,4 -4,4"/>
<!-- Node0 -->
<g id="node1" class="node">
<title>Node0</title>
<polygon fill="#bfbfbf" stroke="#000000" points="2562.0503,-435.5 2562.0503,-453.5 2689.9497,-453.5 2689.9497,-435.5 2562.0503,-435.5"/>
<text text-anchor="middle" x="2626" y="-441.5" font-family="FreeSans" font-size="10.00" fill="#000000">volDistanceTraversal.cpp</text>
</g>
<!-- Node1 -->
<g id="node2" class="node">
<title>Node1</title>
<polygon fill="#ffffff" stroke="#bfbfbf" points="2011.8276,-.5 2011.8276,-18.5 2066.1724,-18.5 2066.1724,-.5 2011.8276,-.5"/>
<text text-anchor="middle" x="2039" y="-6.5" font-family="FreeSans" font-size="10.00" fill="#000000">iostream</text>
</g>
<!-- Node0&#45;&gt;Node1 -->
<g id="edge1" class="edge">
<title>Node0&#45;&gt;Node1</title>
<path fill="none" stroke="#191970" d="M2690.1278,-443.6697C2946.3341,-440.18 3888.9717,-425.6361 4020,-399 4104.0374,-381.9165 4200,-415.2562 4200,-329.5 4200,-329.5 4200,-329.5 4200,-129.5 4200,-59.0163 4128.1908,-72.8317 4060,-55 3960.3709,-28.9473 2344.2037,-12.4164 2076.4423,-9.8503"/>
<polygon fill="#191970" stroke="#191970" points="2076.4725,-6.3505 2066.4395,-9.7549 2076.4057,-13.3502 2076.4725,-6.3505"/>
</g>
<!-- Node2 -->
<g id="node3" class="node">
<title>Node2</title>
<polygon fill="#ffffff" stroke="#bfbfbf" points="2276.0962,-190.5 2276.0962,-208.5 2319.9038,-208.5 2319.9038,-190.5 2276.0962,-190.5"/>
<text text-anchor="middle" x="2298" y="-196.5" font-family="FreeSans" font-size="10.00" fill="#000000">queue</text>
</g>
<!-- Node0&#45;&gt;Node2 -->
<g id="edge2" class="edge">
<title>Node0&#45;&gt;Node2</title>
<path fill="none" stroke="#191970" d="M2613.9373,-435.4898C2564.9163,-398.8735 2380.3026,-260.976 2318.3865,-214.7277"/>
<polygon fill="#191970" stroke="#191970" points="2320.2786,-211.7725 2310.1724,-208.5922 2316.0896,-217.3807 2320.2786,-211.7725"/>
</g>
<!-- Node3 -->
<g id="node4" class="node">
<title>Node3</title>
<polygon fill="#ffffff" stroke="#bfbfbf" points="870.8154,-380.5 870.8154,-398.5 955.1846,-398.5 955.1846,-380.5 870.8154,-380.5"/>
<text text-anchor="middle" x="913" y="-386.5" font-family="FreeSans" font-size="10.00" fill="#000000">QImageReader</text>
</g>
<!-- Node0&#45;&gt;Node3 -->
<g id="edge3" class="edge">
<title>Node0&#45;&gt;Node3</title>
<path fill="none" stroke="#191970" d="M2561.8029,-444.0889C2298.915,-442.1997 1302.967,-432.9784 965.5008,-398.9583"/>
<polygon fill="#191970" stroke="#191970" points="965.5335,-395.443 955.2258,-397.893 964.8115,-402.4057 965.5335,-395.443"/>
</g>
<!-- Node4 -->
<g id="node5" class="node">
<title>Node4</title>
<g id="a_node5"><a xlink:href="BasicFunctors_8h_source.html" target="_top" xlink:title="DGtal/base/BasicFunctors.h">
<polygon fill="#ffffff" stroke="#000000" points="525.7515,-120.5 525.7515,-138.5 666.2485,-138.5 666.2485,-120.5 525.7515,-120.5"/>
<text text-anchor="middle" x="596" y="-126.5" font-family="FreeSans" font-size="10.00" fill="#000000">DGtal/base/BasicFunctors.h</text>
</a>
</g>
</g>
<!-- Node0&#45;&gt;Node4 -->
<g id="edge4" class="edge">
<title>Node0&#45;&gt;Node4</title>
<path fill="none" stroke="#191970" d="M2561.6491,-443.8892C2264.4551,-440.9268 1031.9294,-427.0393 862,-399 780.722,-385.5887 750.6188,-393.8012 685,-344 620.7306,-295.223 602.556,-191.6308 597.6838,-148.7284"/>
<polygon fill="#191970" stroke="#191970" points="601.1644,-148.3589 596.6729,-138.7632 594.2001,-149.0655 601.1644,-148.3589"/>
</g>
<!-- Node41 -->
<g id="node11" class="node">
<title>Node41</title>
<g id="a_node11"><a xlink:href="CanonicSCellEmbedder_8h_source.html" target="_top" xlink:title="DGtal/topology/CanonicSCell\lEmbedder.h">
<polygon fill="#ffffff" stroke="#000000" points="1287.2441,-250.5 1287.2441,-278.5 1432.7559,-278.5 1432.7559,-250.5 1287.2441,-250.5"/>
<text text-anchor="start" x="1295.2441" y="-266.5" font-family="FreeSans" font-size="10.00" fill="#000000">DGtal/topology/CanonicSCell</text>
<text text-anchor="middle" x="1360" y="-256.5" font-family="FreeSans" font-size="10.00" fill="#000000">Embedder.h</text>
</a>
</g>
</g>
<!-- Node0&#45;&gt;Node41 -->
<g id="edge15" class="edge">
<title>Node0&#45;&gt;Node41</title>
<path fill="none" stroke="#191970" d="M2561.7787,-435.5807C2495.8402,-426.4189 2390.2536,-411.7375 2299,-399 1921.343,-346.2853 1823.5353,-339.2789 1442.7633,-279.0909"/>
<polygon fill="#191970" stroke="#191970" points="1443.2789,-275.629 1432.8547,-277.5227 1442.1847,-282.5429 1443.2789,-275.629"/>
</g>
<!-- Node69 -->
<g id="node16" class="node">
<title>Node69</title>
<g id="a_node16"><a xlink:href="StdDefs_8h_source.html" target="_top" xlink:title="DGtal/helpers/StdDefs.h">
<polygon fill="#ffffff" stroke="#000000" points="973.0864,-380.5 973.0864,-398.5 1096.9136,-398.5 1096.9136,-380.5 973.0864,-380.5"/>
<text text-anchor="middle" x="1035" y="-386.5" font-family="FreeSans" font-size="10.00" fill="#000000">DGtal/helpers/StdDefs.h</text>
</a>
</g>
</g>
<!-- Node0&#45;&gt;Node69 -->
<g id="edge28" class="edge">
<title>Node0&#45;&gt;Node69</title>
<path fill="none" stroke="#191970" d="M2561.6604,-442.2758C2307.6614,-433.4952 1375.4481,-401.2691 1107.4846,-392.0058"/>
<polygon fill="#191970" stroke="#191970" points="1107.2187,-388.4946 1097.1037,-391.6469 1106.9768,-395.4904 1107.2187,-388.4946"/>
</g>
<!-- Node153 -->
<g id="node30" class="node">
<title>Node153</title>
<g id="a_node30"><a xlink:href="ExactPredicateLpSeparableMetric_8h_source.html" target="_top" xlink:title="DGtal/geometry/volumes\l/distance/ExactPredicateLpSeparable\lMetric.h">
<polygon fill="#ffffff" stroke="#ff0000" points="65.6138,-110.5 65.6138,-148.5 248.3862,-148.5 248.3862,-110.5 65.6138,-110.5"/>
<text text-anchor="start" x="73.6138" y="-136.5" font-family="FreeSans" font-size="10.00" fill="#000000">DGtal/geometry/volumes</text>
<text text-anchor="start" x="73.6138" y="-126.5" font-family="FreeSans" font-size="10.00" fill="#000000">/distance/ExactPredicateLpSeparable</text>
<text text-anchor="middle" x="157" y="-116.5" font-family="FreeSans" font-size="10.00" fill="#000000">Metric.h</text>
</a>
</g>
</g>
<!-- Node0&#45;&gt;Node153 -->
<g id="edge131" class="edge">
<title>Node0&#45;&gt;Node153</title>
<path fill="none" stroke="#191970" d="M2561.8406,-444.1521C2322.3104,-442.5973 1457.6578,-434.6938 746,-399 579.7134,-390.6597 0,-495.9957 0,-329.5 0,-329.5 0,-329.5 0,-264.5 0,-211.3061 52.4559,-174.5017 96.7259,-152.9126"/>
<polygon fill="#191970" stroke="#191970" points="98.4684,-155.9608 106.0266,-148.5362 95.4881,-149.627 98.4684,-155.9608"/>
</g>
<!-- Node160 -->
<g id="node32" class="node">
<title>Node160</title>
<g id="a_node32"><a xlink:href="DistanceBreadthFirstVisitor_8h_source.html" target="_top" xlink:title="DGtal/graph/DistanceBreadth\lFirstVisitor.h">
<polygon fill="#ffffff" stroke="#000000" points="2117.6875,-250.5 2117.6875,-278.5 2264.3125,-278.5 2264.3125,-250.5 2117.6875,-250.5"/>
<text text-anchor="start" x="2125.6875" y="-266.5" font-family="FreeSans" font-size="10.00" fill="#000000">DGtal/graph/DistanceBreadth</text>
<text text-anchor="middle" x="2191" y="-256.5" font-family="FreeSans" font-size="10.00" fill="#000000">FirstVisitor.h</text>
</a>
</g>
</g>
<!-- Node0&#45;&gt;Node160 -->
<g id="edge84" class="edge">
<title>Node0&#45;&gt;Node160</title>
<path fill="none" stroke="#191970" d="M2561.7621,-439.0821C2487.7655,-432.0577 2371.3257,-418.3702 2332,-399 2277.9062,-372.3557 2230.7855,-317.6117 2207.1512,-286.8138"/>
<polygon fill="#191970" stroke="#191970" points="2209.9326,-284.6891 2201.1216,-278.8054 2204.3404,-288.8995 2209.9326,-284.6891"/>
</g>
<!-- Node162 -->
<g id="node35" class="node">
<title>Node162</title>
<g id="a_node35"><a xlink:href="DigitalSurface_8h_source.html" target="_top" xlink:title="DGtal/topology/DigitalSurface.h">
<polygon fill="#ffffff" stroke="#000000" points="2913.2417,-255.5 2913.2417,-273.5 3068.7583,-273.5 3068.7583,-255.5 2913.2417,-255.5"/>
<text text-anchor="middle" x="2991" y="-261.5" font-family="FreeSans" font-size="10.00" fill="#000000">DGtal/topology/DigitalSurface.h</text>
</a>
</g>
</g>
<!-- Node0&#45;&gt;Node162 -->
<g id="edge94" class="edge">
<title>Node0&#45;&gt;Node162</title>
<path fill="none" stroke="#191970" d="M2644.3505,-435.4504C2703.8579,-406.1043 2891.7492,-313.4456 2963.123,-278.2476"/>
<polygon fill="#191970" stroke="#191970" points="2964.9747,-281.2369 2972.3953,-273.6749 2961.8786,-274.9588 2964.9747,-281.2369"/>
</g>
<!-- Node171 -->
<g id="node43" class="node">
<title>Node171</title>
<g id="a_node43"><a xlink:href="LightImplicitDigitalSurface_8h_source.html" target="_top" xlink:title="DGtal/topology/LightImplicit\lDigitalSurface.h">
<polygon fill="#ffffff" stroke="#ff0000" points="2469.1382,-250.5 2469.1382,-278.5 2606.8618,-278.5 2606.8618,-250.5 2469.1382,-250.5"/>
<text text-anchor="start" x="2477.1382" y="-266.5" font-family="FreeSans" font-size="10.00" fill="#000000">DGtal/topology/LightImplicit</text>
<text text-anchor="middle" x="2538" y="-256.5" font-family="FreeSans" font-size="10.00" fill="#000000">DigitalSurface.h</text>
</a>
</g>
</g>
<!-- Node0&#45;&gt;Node171 -->
<g id="edge123" class="edge">
<title>Node0&#45;&gt;Node171</title>
<path fill="none" stroke="#191970" d="M2621.5151,-435.3263C2608.2488,-408.1907 2568.9047,-327.7141 2549.3271,-287.669"/>
<polygon fill="#191970" stroke="#191970" points="2552.4497,-286.0873 2544.9132,-278.6407 2546.161,-289.1618 2552.4497,-286.0873"/>
</g>
<!-- Node188 -->
<g id="node45" class="node">
<title>Node188</title>
<g id="a_node45"><a xlink:href="VolReader_8h_source.html" target="_top" xlink:title="DGtal/io/readers/VolReader.h">
<polygon fill="#ffffff" stroke="#ff0000" points="3353.9585,-120.5 3353.9585,-138.5 3500.0415,-138.5 3500.0415,-120.5 3353.9585,-120.5"/>
<text text-anchor="middle" x="3427" y="-126.5" font-family="FreeSans" font-size="10.00" fill="#000000">DGtal/io/readers/VolReader.h</text>
</a>
</g>
</g>
<!-- Node0&#45;&gt;Node188 -->
<g id="edge132" class="edge">
<title>Node0&#45;&gt;Node188</title>
<path fill="none" stroke="#191970" d="M2690.2745,-441.3853C2930.3766,-429.3325 3761,-383.7182 3761,-329.5 3761,-329.5 3761,-329.5 3761,-264.5 3761,-208.7594 3713.9884,-209.6611 3664,-185 3633.3692,-169.8887 3546.9258,-151.7325 3487.3673,-140.4017"/>
<polygon fill="#191970" stroke="#191970" points="3487.7922,-136.9202 3477.3167,-138.5057 3486.4945,-143.7989 3487.7922,-136.9202"/>
</g>
<!-- Node191 -->
<g id="node46" class="node">
<title>Node191</title>
<g id="a_node46"><a xlink:href="Viewer3D_8h_source.html" target="_top" xlink:title="DGtal/io/viewers/Viewer3D.h">
<polygon fill="#ffffff" stroke="#ff0000" points="2610.4551,-320.5 2610.4551,-338.5 2753.5449,-338.5 2753.5449,-320.5 2610.4551,-320.5"/>
<text text-anchor="middle" x="2682" y="-326.5" font-family="FreeSans" font-size="10.00" fill="#000000">DGtal/io/viewers/Viewer3D.h</text>
</a>
</g>
</g>
<!-- Node0&#45;&gt;Node191 -->
<g id="edge135" class="edge">
<title>Node0&#45;&gt;Node191</title>
<path fill="none" stroke="#191970" d="M2630.3942,-435.4761C2639.5496,-416.6749 2660.8265,-372.9813 2673.0087,-347.9642"/>
<polygon fill="#191970" stroke="#191970" points="2676.2393,-349.3244 2677.4706,-338.8014 2669.9458,-346.2597 2676.2393,-349.3244"/>
</g>
<!-- Node199 -->
<g id="node47" class="node">
<title>Node199</title>
<g id="a_node47"><a xlink:href="Color_8h_source.html" target="_top" xlink:title="DGtal/io/Color.h">
<polygon fill="#ffffff" stroke="#ff0000" points="4047.7046,-120.5 4047.7046,-138.5 4134.2954,-138.5 4134.2954,-120.5 4047.7046,-120.5"/>
<text text-anchor="middle" x="4091" y="-126.5" font-family="FreeSans" font-size="10.00" fill="#000000">DGtal/io/Color.h</text>
</a>
</g>
</g>
<!-- Node0&#45;&gt;Node199 -->
<g id="edge143" class="edge">
<title>Node0&#45;&gt;Node199</title>
<path fill="none" stroke="#191970" d="M2690.1603,-443.9417C2938.9277,-441.5532 3832.0772,-430.8234 3955,-399 4020.7132,-381.9875 4091,-397.3797 4091,-329.5 4091,-329.5 4091,-329.5 4091,-264.5 4091,-223.2592 4091,-174.9316 4091,-148.7435"/>
<polygon fill="#191970" stroke="#191970" points="4094.5001,-148.6666 4091,-138.6666 4087.5001,-148.6666 4094.5001,-148.6666"/>
</g>
<!-- Node220 -->
<g id="node48" class="node">
<title>Node220</title>
<g id="a_node48"><a xlink:href="HueShadeColorMap_8h_source.html" target="_top" xlink:title="DGtal/io/colormaps\l/HueShadeColorMap.h">
<polygon fill="#ffffff" stroke="#ff0000" points="3945.1357,-185.5 3945.1357,-213.5 4062.8643,-213.5 4062.8643,-185.5 3945.1357,-185.5"/>
<text text-anchor="start" x="3953.1357" y="-201.5" font-family="FreeSans" font-size="10.00" fill="#000000">DGtal/io/colormaps</text>
<text text-anchor="middle" x="4004" y="-191.5" font-family="FreeSans" font-size="10.00" fill="#000000">/HueShadeColorMap.h</text>
</a>
</g>
</g>
<!-- Node0&#45;&gt;Node220 -->
<g id="edge147" class="edge">
<title>Node0&#45;&gt;Node220</title>
<path fill="none" stroke="#191970" d="M2690.0995,-444.2406C2945.6383,-442.9541 3880.3307,-435.7449 3931,-399 3987.8545,-357.7697 4000.5184,-267.4933 4003.2757,-223.9488"/>
<polygon fill="#191970" stroke="#191970" points="4006.7843,-223.8667 4003.7932,-213.7028 3999.7932,-223.5135 4006.7843,-223.8667"/>
</g>
<!-- Node239 -->
<g id="node49" class="node">
<title>Node239</title>
<g id="a_node49"><a xlink:href="ImageSelector_8h_source.html" target="_top" xlink:title="DGtal/images/ImageSelector.h">
<polygon fill="#ffffff" stroke="#ff0000" points="3556.1875,-120.5 3556.1875,-138.5 3707.8125,-138.5 3707.8125,-120.5 3556.1875,-120.5"/>
<text text-anchor="middle" x="3632" y="-126.5" font-family="FreeSans" font-size="10.00" fill="#000000">DGtal/images/ImageSelector.h</text>
</a>
</g>
</g>
<!-- Node0&#45;&gt;Node239 -->
<g id="edge151" class="edge">
<title>Node0&#45;&gt;Node239</title>
<path fill="none" stroke="#191970" d="M2690.0265,-443.522C2829.2438,-440.838 3169.7596,-431.2513 3453,-399 3608.8424,-381.255 3799,-486.3494 3799,-329.5 3799,-329.5 3799,-329.5 3799,-264.5 3799,-199.3155 3721.1001,-160.1979 3671.709,-141.9471"/>
<polygon fill="#191970" stroke="#191970" points="3672.8371,-138.6335 3662.2424,-138.5736 3670.4873,-145.2274 3672.8371,-138.6335"/>
</g>
<!-- Node257 -->
<g id="node50" class="node">
<title>Node257</title>
<g id="a_node50"><a xlink:href="SetFromImage_8h_source.html" target="_top" xlink:title="DGtal/images/imagesSetsUtils\l/SetFromImage.h">
<polygon fill="#ffffff" stroke="#ff0000" points="3764.478,-115.5 3764.478,-143.5 3915.522,-143.5 3915.522,-115.5 3764.478,-115.5"/>
<text text-anchor="start" x="3772.478" y="-131.5" font-family="FreeSans" font-size="10.00" fill="#000000">DGtal/images/imagesSetsUtils</text>
<text text-anchor="middle" x="3840" y="-121.5" font-family="FreeSans" font-size="10.00" fill="#000000">/SetFromImage.h</text>
</a>
</g>
</g>
<!-- Node0&#45;&gt;Node257 -->
<g id="edge154" class="edge">
<title>Node0&#45;&gt;Node257</title>
<path fill="none" stroke="#191970" d="M2690.2281,-443.2549C2882.4908,-439.2663 3451.4677,-425.4913 3635,-399 3762.7595,-380.5591 3917,-458.5836 3917,-329.5 3917,-329.5 3917,-329.5 3917,-264.5 3917,-219.7017 3884.6115,-176.2271 3861.8463,-151.2028"/>
<polygon fill="#191970" stroke="#191970" points="3864.2431,-148.6422 3854.8464,-143.748 3859.1401,-153.4338 3864.2431,-148.6422"/>
</g>
<!-- Node5 -->
<g id="node6" class="node">
<title>Node5</title>
<polygon fill="#ffffff" stroke="#bfbfbf" points="3573.436,-.5 3573.436,-18.5 3630.564,-18.5 3630.564,-.5 3573.436,-.5"/>
<text text-anchor="middle" x="3602" y="-6.5" font-family="FreeSans" font-size="10.00" fill="#000000">algorithm</text>
</g>
<!-- Node4&#45;&gt;Node5 -->
<g id="edge5" class="edge">
<title>Node4&#45;&gt;Node5</title>
<path fill="none" stroke="#191970" d="M641.3721,-120.4702C662.9745,-116.5483 689.226,-112.3264 713,-110 1244.9211,-57.9486 1380.8485,-92.2099 1915,-74 2574.8219,-51.5059 3379.5913,-18.66 3563.3918,-11.0944"/>
<polygon fill="#191970" stroke="#191970" points="3563.5409,-14.5913 3573.3883,-10.6827 3563.2527,-7.5973 3563.5409,-14.5913"/>
</g>
<!-- Node6 -->
<g id="node7" class="node">
<title>Node6</title>
<polygon fill="#ffffff" stroke="#bfbfbf" points="702.5962,-55.5 702.5962,-73.5 761.4038,-73.5 761.4038,-55.5 702.5962,-55.5"/>
<text text-anchor="middle" x="732" y="-61.5" font-family="FreeSans" font-size="10.00" fill="#000000">functional</text>
</g>
<!-- Node4&#45;&gt;Node6 -->
<g id="edge6" class="edge">
<title>Node4&#45;&gt;Node6</title>
<path fill="none" stroke="#191970" d="M614.9102,-120.462C637.9215,-109.464 676.9921,-90.7906 703.6182,-78.0648"/>
<polygon fill="#191970" stroke="#191970" points="705.2988,-81.1409 712.812,-73.6708 702.2802,-74.8252 705.2988,-81.1409"/>
</g>
<!-- Node7 -->
<g id="node8" class="node">
<title>Node7</title>
<polygon fill="#ffffff" stroke="#bfbfbf" points="286.3843,-.5 286.3843,-18.5 329.6157,-18.5 329.6157,-.5 286.3843,-.5"/>
<text text-anchor="middle" x="308" y="-6.5" font-family="FreeSans" font-size="10.00" fill="#000000">cmath</text>
</g>
<!-- Node4&#45;&gt;Node7 -->
<g id="edge7" class="edge">
<title>Node4&#45;&gt;Node7</title>
<path fill="none" stroke="#191970" d="M574.3532,-120.4805C523.8992,-99.458 398.3154,-47.1314 339.4221,-22.5925"/>
<polygon fill="#191970" stroke="#191970" points="340.475,-19.2396 329.898,-18.6242 337.7826,-25.7012 340.475,-19.2396"/>
</g>
<!-- Node8 -->
<g id="node9" class="node">
<title>Node8</title>
<g id="a_node9"><a xlink:href="Common_8h_source.html" target="_top" xlink:title="DGtal/base/Common.h">
<polygon fill="#ffffff" stroke="#ff0000" points="1788.1455,-55.5 1788.1455,-73.5 1905.8545,-73.5 1905.8545,-55.5 1788.1455,-55.5"/>
<text text-anchor="middle" x="1847" y="-61.5" font-family="FreeSans" font-size="10.00" fill="#000000">DGtal/base/Common.h</text>
</a>
</g>
</g>
<!-- Node4&#45;&gt;Node8 -->
<g id="edge8" class="edge">
<title>Node4&#45;&gt;Node8</title>
<path fill="none" stroke="#191970" d="M633.7586,-120.4777C654.4402,-116.6075 680.443,-112.4261 704,-110 913.4709,-88.4272 1563.7174,-71.1586 1777.8858,-66.0461"/>
<polygon fill="#191970" stroke="#191970" points="1778.1394,-69.5412 1788.0535,-65.8048 1777.9732,-62.5432 1778.1394,-69.5412"/>
</g>
<!-- Node38 -->
<g id="node10" class="node">
<title>Node38</title>
<g id="a_node10"><a xlink:href="BasicBoolFunctors_8h_source.html" target="_top" xlink:title="DGtal/base/BasicBoolFunctors.h">
<polygon fill="#ffffff" stroke="#ff0000" points="523.7441,-55.5 523.7441,-73.5 684.2559,-73.5 684.2559,-55.5 523.7441,-55.5"/>
<text text-anchor="middle" x="604" y="-61.5" font-family="FreeSans" font-size="10.00" fill="#000000">DGtal/base/BasicBoolFunctors.h</text>
</a>
</g>
</g>
<!-- Node4&#45;&gt;Node38 -->
<g id="edge13" class="edge">
<title>Node4&#45;&gt;Node38</title>
<path fill="none" stroke="#191970" d="M597.1124,-120.462C598.2694,-111.061 600.1167,-96.0518 601.607,-83.943"/>
<polygon fill="#191970" stroke="#191970" points="605.0974,-84.2348 602.8453,-73.8821 598.1498,-83.3797 605.0974,-84.2348"/>
</g>
<!-- Node8&#45;&gt;Node1 -->
<g id="edge9" class="edge">
<title>Node8&#45;&gt;Node1</title>
<path fill="none" stroke="#191970" d="M1878.7049,-55.4179C1912.4404,-45.754 1965.7807,-30.4743 2001.5595,-20.2251"/>
<polygon fill="#191970" stroke="#191970" points="2002.9564,-23.4658 2011.6058,-17.3473 2001.0286,-16.7365 2002.9564,-23.4658"/>
</g>
<!-- Node8&#45;&gt;Node4 -->
<g id="edge12" class="edge">
<title>Node8&#45;&gt;Node4</title>
<path fill="none" stroke="#191970" d="M1787.8888,-65.9839C1587.0522,-71.0172 932.329,-88.3388 722,-110 701.8477,-112.0754 679.9055,-115.4355 660.0145,-118.7863"/>
<polygon fill="#191970" stroke="#191970" points="659.3935,-115.3416 650.1269,-120.4777 660.5739,-122.2414 659.3935,-115.3416"/>
</g>
<!-- Node8&#45;&gt;Node5 -->
<g id="edge10" class="edge">
<title>Node8&#45;&gt;Node5</title>
<path fill="none" stroke="#191970" d="M1905.8938,-62.6543C2181.1096,-54.0293 3336.6398,-17.8161 3563.3205,-10.7122"/>
<polygon fill="#191970" stroke="#191970" points="3563.52,-14.2077 3573.4055,-10.3961 3563.3007,-7.2112 3563.52,-14.2077"/>
</g>
<!-- Node8&#45;&gt;Node7 -->
<g id="edge11" class="edge">
<title>Node8&#45;&gt;Node7</title>
<path fill="none" stroke="#191970" d="M1788.0814,-62.3944C1533.4901,-53.2959 532.0725,-17.5078 339.9641,-10.6423"/>
<polygon fill="#191970" stroke="#191970" points="339.8211,-7.1351 329.7024,-10.2756 339.571,-14.1306 339.8211,-7.1351"/>
</g>
<!-- Node38&#45;&gt;Node1 -->
<g id="edge14" class="edge">
<title>Node38&#45;&gt;Node1</title>
<path fill="none" stroke="#191970" d="M684.4456,-55.7212C687.6709,-55.4603 690.8652,-55.2182 694,-55 1211.2002,-19.0012 1842.3403,-11.2238 2001.2973,-9.7907"/>
<polygon fill="#191970" stroke="#191970" points="2001.5303,-13.2889 2011.4994,-9.7016 2001.4692,-6.2891 2001.5303,-13.2889"/>
</g>
<!-- Node41&#45;&gt;Node1 -->
<g id="edge16" class="edge">
<title>Node41&#45;&gt;Node1</title>
<path fill="none" stroke="#191970" d="M1286.874,-257.4349C1260.1756,-254.949 1229.7323,-252.2231 1202,-250 1084.8184,-240.6066 603.2071,-276.5115 677,-185 724.3882,-126.2333 778.29,-187.8815 843,-149 862.4627,-137.3057 858.2533,-124.1637 876,-110 917.4832,-76.8921 930.7198,-68.6869 982,-55 1081.9993,-28.3098 1825.29,-13.3471 2001.5798,-10.151"/>
<polygon fill="#191970" stroke="#191970" points="2001.7282,-13.649 2011.6636,-9.9699 2001.6024,-6.6501 2001.7282,-13.649"/>
</g>
<!-- Node41&#45;&gt;Node8 -->
<g id="edge17" class="edge">
<title>Node41&#45;&gt;Node8</title>
<path fill="none" stroke="#191970" d="M1429.4006,-250.4095C1473.0229,-240.5996 1524.4383,-226.9956 1543,-214 1589.4714,-181.4641 1569.3576,-140.7958 1617,-110 1643.1211,-93.1154 1720.021,-80.1751 1777.7639,-72.4869"/>
<polygon fill="#191970" stroke="#191970" points="1778.4793,-75.9234 1787.9425,-71.1592 1777.5738,-68.9822 1778.4793,-75.9234"/>
</g>
<!-- Node42 -->
<g id="node12" class="node">
<title>Node42</title>
<g id="a_node12"><a xlink:href="ConstAlias_8h_source.html" target="_top" xlink:title="DGtal/base/ConstAlias.h">
<polygon fill="#ffffff" stroke="#ff0000" points="1703.5298,-190.5 1703.5298,-208.5 1828.4702,-208.5 1828.4702,-190.5 1703.5298,-190.5"/>
<text text-anchor="middle" x="1766" y="-196.5" font-family="FreeSans" font-size="10.00" fill="#000000">DGtal/base/ConstAlias.h</text>
</a>
</g>
</g>
<!-- Node41&#45;&gt;Node42 -->
<g id="edge18" class="edge">
<title>Node41&#45;&gt;Node42</title>
<path fill="none" stroke="#191970" d="M1432.8643,-251.536C1435.9499,-251.0121 1439.0052,-250.4981 1442,-250 1529.1551,-235.5036 1629.715,-220.0237 1695.3948,-210.0806"/>
<polygon fill="#191970" stroke="#191970" points="1696.2648,-213.4889 1705.6292,-208.5333 1695.2183,-206.5676 1696.2648,-213.4889"/>
</g>
<!-- Node52 -->
<g id="node14" class="node">
<title>Node52</title>
<g id="a_node14"><a xlink:href="CPreCellularGridSpaceND_8h_source.html" target="_top" xlink:title="DGtal/topology/CPreCellular\lGridSpaceND.h">
<polygon fill="#ffffff" stroke="#ff0000" points="1392.1948,-115.5 1392.1948,-143.5 1533.8052,-143.5 1533.8052,-115.5 1392.1948,-115.5"/>
<text text-anchor="start" x="1400.1948" y="-131.5" font-family="FreeSans" font-size="10.00" fill="#000000">DGtal/topology/CPreCellular</text>
<text text-anchor="middle" x="1463" y="-121.5" font-family="FreeSans" font-size="10.00" fill="#000000">GridSpaceND.h</text>
</a>
</g>
</g>
<!-- Node41&#45;&gt;Node52 -->
<g id="edge24" class="edge">
<title>Node41&#45;&gt;Node52</title>
<path fill="none" stroke="#191970" d="M1360.308,-250.3033C1361.326,-233.3361 1365.1649,-204.763 1379,-185 1389.7257,-169.6787 1406.16,-157.4693 1421.6571,-148.447"/>
<polygon fill="#191970" stroke="#191970" points="1423.5557,-151.397 1430.6231,-143.5038 1420.176,-145.267 1423.5557,-151.397"/>
</g>
<!-- Node68 -->
<g id="node15" class="node">
<title>Node68</title>
<g id="a_node15"><a xlink:href="CanonicSCellEmbedder_8ih_source.html" target="_top" xlink:title="DGtal/topology/CanonicSCell\lEmbedder.ih">
<polygon fill="#ffffff" stroke="#000000" points="1388.2441,-185.5 1388.2441,-213.5 1533.7559,-213.5 1533.7559,-185.5 1388.2441,-185.5"/>
<text text-anchor="start" x="1396.2441" y="-201.5" font-family="FreeSans" font-size="10.00" fill="#000000">DGtal/topology/CanonicSCell</text>
<text text-anchor="middle" x="1461" y="-191.5" font-family="FreeSans" font-size="10.00" fill="#000000">Embedder.ih</text>
</a>
</g>
</g>
<!-- Node41&#45;&gt;Node68 -->
<g id="edge27" class="edge">
<title>Node41&#45;&gt;Node68</title>
<path fill="none" stroke="#191970" d="M1381.9155,-250.396C1396.0772,-241.282 1414.7107,-229.2902 1430.3333,-219.236"/>
<polygon fill="#191970" stroke="#191970" points="1432.6123,-221.9315 1439.1273,-213.5765 1428.824,-216.0452 1432.6123,-221.9315"/>
</g>
<!-- Node42&#45;&gt;Node1 -->
<g id="edge19" class="edge">
<title>Node42&#45;&gt;Node1</title>
<path fill="none" stroke="#191970" d="M1763.1302,-190.1621C1755.7251,-163.9687 1739.2108,-89.4692 1779,-55 1811.7272,-26.6486 1937.8205,-15.3605 2001.5996,-11.3932"/>
<polygon fill="#191970" stroke="#191970" points="2001.8701,-14.8834 2011.6452,-10.797 2001.4553,-7.8957 2001.8701,-14.8834"/>
</g>
<!-- Node42&#45;&gt;Node8 -->
<g id="edge20" class="edge">
<title>Node42&#45;&gt;Node8</title>
<path fill="none" stroke="#191970" d="M1764.5914,-190.2961C1762.4521,-173.0918 1760.1542,-135.4961 1776,-110 1784.665,-96.0578 1799.3599,-85.6002 1813.1404,-78.2494"/>
<polygon fill="#191970" stroke="#191970" points="1815.0329,-81.2183 1822.4492,-73.652 1811.9332,-74.942 1815.0329,-81.2183"/>
</g>
<!-- Node43 -->
<g id="node13" class="node">
<title>Node43</title>
<g id="a_node13"><a xlink:href="CountedPtr_8h_source.html" target="_top" xlink:title="DGtal/base/CountedPtr.h">
<polygon fill="#ffffff" stroke="#ff0000" points="2070.4092,-120.5 2070.4092,-138.5 2197.5908,-138.5 2197.5908,-120.5 2070.4092,-120.5"/>
<text text-anchor="middle" x="2134" y="-126.5" font-family="FreeSans" font-size="10.00" fill="#000000">DGtal/base/CountedPtr.h</text>
</a>
</g>
</g>
<!-- Node42&#45;&gt;Node43 -->
<g id="edge21" class="edge">
<title>Node42&#45;&gt;Node43</title>
<path fill="none" stroke="#191970" d="M1828.4755,-190.503C1888.4077,-181.4726 1981.3055,-166.4272 2061,-149 2071.2842,-146.7511 2082.2942,-143.996 2092.5644,-141.2729"/>
<polygon fill="#191970" stroke="#191970" points="2093.7921,-144.5668 2102.5336,-138.5806 2091.9669,-137.8089 2093.7921,-144.5668"/>
</g>
<!-- Node43&#45;&gt;Node1 -->
<g id="edge22" class="edge">
<title>Node43&#45;&gt;Node1</title>
<path fill="none" stroke="#191970" d="M2126.8596,-120.4805C2111.1108,-100.5873 2073.1707,-52.6629 2052.6789,-26.7786"/>
<polygon fill="#191970" stroke="#191970" points="2055.1745,-24.2922 2046.2233,-18.6242 2049.6862,-28.6371 2055.1745,-24.2922"/>
</g>
<!-- Node43&#45;&gt;Node8 -->
<g id="edge23" class="edge">
<title>Node43&#45;&gt;Node8</title>
<path fill="none" stroke="#191970" d="M2101.386,-120.4033C2088.8023,-116.9946 2074.2669,-113.1801 2061,-110 2007.655,-97.2131 1946.3907,-84.3727 1903.1201,-75.6087"/>
<polygon fill="#191970" stroke="#191970" points="1903.5683,-72.1286 1893.0736,-73.5816 1902.1838,-78.9904 1903.5683,-72.1286"/>
</g>
<!-- Node52&#45;&gt;Node1 -->
<g id="edge25" class="edge">
<title>Node52&#45;&gt;Node1</title>
<path fill="none" stroke="#191970" d="M1480.4857,-115.3991C1503.2643,-97.895 1545.0338,-68.6827 1586,-55 1662.8805,-29.322 1907.3324,-15.584 2001.5086,-11.1358"/>
<polygon fill="#191970" stroke="#191970" points="2001.8823,-14.6223 2011.7094,-10.6627 2001.5579,-7.6298 2001.8823,-14.6223"/>
</g>
<!-- Node52&#45;&gt;Node8 -->
<g id="edge26" class="edge">
<title>Node52&#45;&gt;Node8</title>
<path fill="none" stroke="#191970" d="M1521.407,-115.4987C1530.2932,-113.5432 1539.3738,-111.6435 1548,-110 1626.3798,-95.0672 1717.061,-81.8304 1777.8226,-73.5378"/>
<polygon fill="#191970" stroke="#191970" points="1778.6208,-76.9616 1788.0594,-72.1488 1777.6796,-70.0252 1778.6208,-76.9616"/>
</g>
<!-- Node69&#45;&gt;Node1 -->
<g id="edge29" class="edge">
<title>Node69&#45;&gt;Node1</title>
<path fill="none" stroke="#191970" d="M973.0698,-380.9928C970.005,-380.6411 966.9688,-380.3076 964,-380 860.866,-369.3134 38,-368.1862 38,-264.5 38,-264.5 38,-264.5 38,-199.5 38,-158.8358 28.2135,-138.7214 57,-110 141.2286,-25.962 200.8265,-68.8518 319,-55 661.0748,-14.9035 1782.4856,-10.1243 2001.6613,-9.5707"/>
<polygon fill="#191970" stroke="#191970" points="2001.7048,-13.0707 2011.6963,-9.5468 2001.688,-6.0707 2001.7048,-13.0707"/>
</g>
<!-- Node69&#45;&gt;Node8 -->
<g id="edge30" class="edge">
<title>Node69&#45;&gt;Node8</title>
<path fill="none" stroke="#191970" d="M1097.1395,-383.5479C1229.2748,-369.9752 1533.1709,-333.6263 1620,-279 1665.2382,-250.5395 1660.6693,-225.9622 1695,-185 1723.5213,-150.9693 1726.1384,-137.4995 1761,-110 1777.5185,-96.9699 1798.3212,-85.8483 1815.329,-77.8626"/>
<polygon fill="#191970" stroke="#191970" points="1817.1916,-80.8604 1824.8434,-73.5323 1814.2918,-74.4892 1817.1916,-80.8604"/>
</g>
<!-- Node70 -->
<g id="node17" class="node">
<title>Node70</title>
<g id="a_node17"><a xlink:href="SpaceND_8h_source.html" target="_top" xlink:title="DGtal/kernel/SpaceND.h">
<polygon fill="#ffffff" stroke="#ff0000" points="966.2539,-120.5 966.2539,-138.5 1091.7461,-138.5 1091.7461,-120.5 966.2539,-120.5"/>
<text text-anchor="middle" x="1029" y="-126.5" font-family="FreeSans" font-size="10.00" fill="#000000">DGtal/kernel/SpaceND.h</text>
</a>
</g>
</g>
<!-- Node69&#45;&gt;Node70 -->
<g id="edge31" class="edge">
<title>Node69&#45;&gt;Node70</title>
<path fill="none" stroke="#191970" d="M980.0376,-380.4659C858.2132,-358.221 583.4079,-294.505 677,-185 686.0229,-174.4429 855.6039,-151.3861 956.0418,-138.5616"/>
<polygon fill="#191970" stroke="#191970" points="956.6576,-142.0115 966.1359,-137.2774 955.7741,-135.0675 956.6576,-142.0115"/>
</g>
<!-- Node78 -->
<g id="node18" class="node">
<title>Node78</title>
<g id="a_node18"><a xlink:href="HyperRectDomain_8h_source.html" target="_top" xlink:title="DGtal/kernel/domains\l/HyperRectDomain.h">
<polygon fill="#ffffff" stroke="#ff0000" points="721.9238,-115.5 721.9238,-143.5 834.0762,-143.5 834.0762,-115.5 721.9238,-115.5"/>
<text text-anchor="start" x="729.9238" y="-131.5" font-family="FreeSans" font-size="10.00" fill="#000000">DGtal/kernel/domains</text>
<text text-anchor="middle" x="778" y="-121.5" font-family="FreeSans" font-size="10.00" fill="#000000">/HyperRectDomain.h</text>
</a>
</g>
</g>
<!-- Node69&#45;&gt;Node78 -->
<g id="edge34" class="edge">
<title>Node69&#45;&gt;Node78</title>
<path fill="none" stroke="#191970" d="M973.1604,-380.4582C891.9288,-368.4695 758.3095,-348.3188 748,-344 703.1527,-325.2126 682.8991,-321.8938 660,-279 640.3148,-242.1265 634.4307,-220.1822 657,-185 669.5552,-165.4283 690.9312,-152.668 712.2555,-144.3882"/>
<polygon fill="#191970" stroke="#191970" points="713.4621,-147.6738 721.6901,-140.9992 711.0956,-141.0859 713.4621,-147.6738"/>
</g>
<!-- Node89 -->
<g id="node19" class="node">
<title>Node89</title>
<g id="a_node19"><a xlink:href="DigitalSetSelector_8h_source.html" target="_top" xlink:title="DGtal/kernel/sets/Digital\lSetSelector.h">
<polygon fill="#ffffff" stroke="#ff0000" points="686.3696,-185.5 686.3696,-213.5 809.6304,-213.5 809.6304,-185.5 686.3696,-185.5"/>
<text text-anchor="start" x="694.3696" y="-201.5" font-family="FreeSans" font-size="10.00" fill="#000000">DGtal/kernel/sets/Digital</text>
<text text-anchor="middle" x="748" y="-191.5" font-family="FreeSans" font-size="10.00" fill="#000000">SetSelector.h</text>
</a>
</g>
</g>
<!-- Node69&#45;&gt;Node89 -->
<g id="edge37" class="edge">
<title>Node69&#45;&gt;Node89</title>
<path fill="none" stroke="#191970" d="M1021.1574,-380.3359C977.0809,-351.1564 839.3161,-259.9532 777.9771,-219.3455"/>
<polygon fill="#191970" stroke="#191970" points="779.7723,-216.3365 769.5019,-213.7347 775.9082,-222.1733 779.7723,-216.3365"/>
</g>
<!-- Node102 -->
<g id="node20" class="node">
<title>Node102</title>
<g id="a_node20"><a xlink:href="DigitalTopology_8h_source.html" target="_top" xlink:title="DGtal/topology/DigitalTopology.h">
<polygon fill="#ffffff" stroke="#ff0000" points="1450.8271,-255.5 1450.8271,-273.5 1611.1729,-273.5 1611.1729,-255.5 1450.8271,-255.5"/>
<text text-anchor="middle" x="1531" y="-261.5" font-family="FreeSans" font-size="10.00" fill="#000000">DGtal/topology/DigitalTopology.h</text>
</a>
</g>
</g>
<!-- Node69&#45;&gt;Node102 -->
<g id="edge40" class="edge">
<title>Node69&#45;&gt;Node102</title>
<path fill="none" stroke="#191970" d="M1091.3995,-380.4403C1139.654,-372.2684 1210.8086,-359.2179 1272,-344 1352.7096,-323.9281 1445.4866,-293.657 1495.1576,-276.8513"/>
<polygon fill="#191970" stroke="#191970" points="1496.4497,-280.1088 1504.7918,-273.5774 1494.1974,-273.4811 1496.4497,-280.1088"/>
</g>
<!-- Node109 -->
<g id="node21" class="node">
<title>Node109</title>
<g id="a_node21"><a xlink:href="MetricAdjacency_8h_source.html" target="_top" xlink:title="DGtal/topology/MetricAdjacency.h">
<polygon fill="#ffffff" stroke="#ff0000" points="904.0562,-190.5 904.0562,-208.5 1069.9438,-208.5 1069.9438,-190.5 904.0562,-190.5"/>
<text text-anchor="middle" x="987" y="-196.5" font-family="FreeSans" font-size="10.00" fill="#000000">DGtal/topology/MetricAdjacency.h</text>
</a>
</g>
</g>
<!-- Node69&#45;&gt;Node109 -->
<g id="edge44" class="edge">
<title>Node69&#45;&gt;Node109</title>
<path fill="none" stroke="#191970" d="M1032.0303,-380.4878C1029.0643,-371.3455 1024.4608,-356.7628 1021,-344 1008.9068,-299.4023 997.0752,-246.3936 991.0709,-218.6321"/>
<polygon fill="#191970" stroke="#191970" points="994.4562,-217.726 988.9355,-208.6832 987.612,-219.195 994.4562,-217.726"/>
</g>
<!-- Node112 -->
<g id="node23" class="node">
<title>Node112</title>
<g id="a_node23"><a xlink:href="Object_8h_source.html" target="_top" xlink:title="DGtal/topology/Object.h">
<polygon fill="#ffffff" stroke="#ff0000" points="1724.9165,-255.5 1724.9165,-273.5 1847.0835,-273.5 1847.0835,-255.5 1724.9165,-255.5"/>
<text text-anchor="middle" x="1786" y="-261.5" font-family="FreeSans" font-size="10.00" fill="#000000">DGtal/topology/Object.h</text>
</a>
</g>
</g>
<!-- Node69&#45;&gt;Node112 -->
<g id="edge49" class="edge">
<title>Node69&#45;&gt;Node112</title>
<path fill="none" stroke="#191970" d="M1097.1102,-387.3752C1250.1354,-381.8306 1636.8306,-365.8263 1691,-344 1724.5365,-330.4872 1754.9967,-300.4356 1771.9574,-281.3958"/>
<polygon fill="#191970" stroke="#191970" points="1774.671,-283.6087 1778.5664,-273.7559 1769.3769,-279.029 1774.671,-283.6087"/>
</g>
<!-- Node121 -->
<g id="node26" class="node">
<title>Node121</title>
<g id="a_node26"><a xlink:href="KhalimskySpaceND_8h_source.html" target="_top" xlink:title="DGtal/topology/Khalimsky\lSpaceND.h">
<polygon fill="#ffffff" stroke="#ff0000" points="1062.7539,-250.5 1062.7539,-278.5 1193.2461,-278.5 1193.2461,-250.5 1062.7539,-250.5"/>
<text text-anchor="start" x="1070.7539" y="-266.5" font-family="FreeSans" font-size="10.00" fill="#000000">DGtal/topology/Khalimsky</text>
<text text-anchor="middle" x="1128" y="-256.5" font-family="FreeSans" font-size="10.00" fill="#000000">SpaceND.h</text>
</a>
</g>
</g>
<!-- Node69&#45;&gt;Node121 -->
<g id="edge57" class="edge">
<title>Node69&#45;&gt;Node121</title>
<path fill="none" stroke="#191970" d="M1041.9901,-380.1047C1056.5509,-360.5337 1090.4895,-314.9174 1111.1147,-287.1953"/>
<polygon fill="#191970" stroke="#191970" points="1114.1408,-288.9914 1117.3019,-278.8791 1108.5247,-284.813 1114.1408,-288.9914"/>
</g>
<!-- Node122 -->
<g id="node27" class="node">
<title>Node122</title>
<g id="a_node27"><a xlink:href="KhalimskyPreSpaceND_8h_source.html" target="_top" xlink:title="DGtal/topology/Khalimsky\lPreSpaceND.h">
<polygon fill="#ffffff" stroke="#ff0000" points="1087.7539,-185.5 1087.7539,-213.5 1218.2461,-213.5 1218.2461,-185.5 1087.7539,-185.5"/>
<text text-anchor="start" x="1095.7539" y="-201.5" font-family="FreeSans" font-size="10.00" fill="#000000">DGtal/topology/Khalimsky</text>
<text text-anchor="middle" x="1153" y="-191.5" font-family="FreeSans" font-size="10.00" fill="#000000">PreSpaceND.h</text>
</a>
</g>
</g>
<!-- Node69&#45;&gt;Node122 -->
<g id="edge67" class="edge">
<title>Node69&#45;&gt;Node122</title>
<path fill="none" stroke="#191970" d="M1033.5562,-380.3132C1030.3133,-356.3686 1024.8576,-291.0606 1054,-250 1064.082,-235.7949 1079.3655,-225.3283 1094.928,-217.73"/>
<polygon fill="#191970" stroke="#191970" points="1096.4214,-220.8959 1104.0859,-213.5811 1093.5327,-214.5197 1096.4214,-220.8959"/>
</g>
<!-- Node125 -->
<g id="node28" class="node">
<title>Node125</title>
<g id="a_node28"><a xlink:href="GridCurve_8h_source.html" target="_top" xlink:title="Header file for module GridCurve.cpp. ">
<polygon fill="#ffffff" stroke="#ff0000" points="1144.8721,-315.5 1144.8721,-343.5 1263.1279,-343.5 1263.1279,-315.5 1144.8721,-315.5"/>
<text text-anchor="start" x="1152.8721" y="-331.5" font-family="FreeSans" font-size="10.00" fill="#000000">DGtal/geometry/curves</text>
<text text-anchor="middle" x="1204" y="-321.5" font-family="FreeSans" font-size="10.00" fill="#000000">/GridCurve.h</text>
</a>
</g>
</g>
<!-- Node69&#45;&gt;Node125 -->
<g id="edge68" class="edge">
<title>Node69&#45;&gt;Node125</title>
<path fill="none" stroke="#191970" d="M1060.6675,-380.3873C1085.5804,-371.5425 1124.0381,-357.8888 1154.8478,-346.9505"/>
<polygon fill="#191970" stroke="#191970" points="1156.3026,-350.1481 1164.5553,-343.504 1153.9606,-343.5515 1156.3026,-350.1481"/>
</g>
<!-- Node69&#45;&gt;Node153 -->
<g id="edge76" class="edge">
<title>Node69&#45;&gt;Node153</title>
<path fill="none" stroke="#191970" d="M973.0643,-381.0443C970.0009,-380.679 966.9666,-380.3285 964,-380 782.1882,-359.8651 730.7861,-390.9852 554,-344 487.3102,-326.2756 474.1988,-310.8809 413,-279 334.4148,-238.0618 245.7469,-184.5718 196.0996,-153.9276"/>
<polygon fill="#191970" stroke="#191970" points="197.9351,-150.9475 187.5896,-148.6626 194.2521,-156.9003 197.9351,-150.9475"/>
</g>
<!-- Node158 -->
<g id="node31" class="node">
<title>Node158</title>
<g id="a_node31"><a xlink:href="ExactPredicateLpPowerSeparableMetric_8h_source.html" target="_top" xlink:title="DGtal/geometry/volumes\l/distance/ExactPredicateLpPower\lSeparableMetric.h">
<polygon fill="#ffffff" stroke="#ff0000" points="266.2368,-110.5 266.2368,-148.5 431.7632,-148.5 431.7632,-110.5 266.2368,-110.5"/>
<text text-anchor="start" x="274.2368" y="-136.5" font-family="FreeSans" font-size="10.00" fill="#000000">DGtal/geometry/volumes</text>
<text text-anchor="start" x="274.2368" y="-126.5" font-family="FreeSans" font-size="10.00" fill="#000000">/distance/ExactPredicateLpPower</text>
<text text-anchor="middle" x="349" y="-116.5" font-family="FreeSans" font-size="10.00" fill="#000000">SeparableMetric.h</text>
</a>
</g>
</g>
<!-- Node69&#45;&gt;Node158 -->
<g id="edge80" class="edge">
<title>Node69&#45;&gt;Node158</title>
<path fill="none" stroke="#191970" d="M973.0463,-381.193C969.9877,-380.7884 966.9593,-380.3889 964,-380 840.0379,-363.7093 805.6819,-376.6786 685,-344 541.9773,-305.2719 479.0461,-322.3746 378,-214 363.8533,-198.8273 356.5728,-176.4433 352.8454,-158.5249"/>
<polygon fill="#191970" stroke="#191970" points="356.2695,-157.7912 351.0363,-148.5791 349.3825,-159.044 356.2695,-157.7912"/>
</g>
<!-- Node70&#45;&gt;Node1 -->
<g id="edge32" class="edge">
<title>Node70&#45;&gt;Node1</title>
<path fill="none" stroke="#191970" d="M1035.0664,-120.2618C1046.5828,-103.6427 1073.4,-69.123 1106,-55 1189.089,-19.0041 1837.3609,-11.1843 2001.3883,-9.775"/>
<polygon fill="#191970" stroke="#191970" points="2001.5105,-13.2742 2011.4811,-9.6913 2001.4524,-6.2745 2001.5105,-13.2742"/>
</g>
<!-- Node70&#45;&gt;Node8 -->
<g id="edge33" class="edge">
<title>Node70&#45;&gt;Node8</title>
<path fill="none" stroke="#191970" d="M1091.808,-120.6544C1119.4305,-116.9816 1152.2852,-112.9076 1182,-110 1398.8248,-88.7834 1656.3856,-74.1651 1777.5053,-67.9146"/>
<polygon fill="#191970" stroke="#191970" points="1777.936,-71.3972 1787.7436,-67.3894 1777.5774,-64.4064 1777.936,-71.3972"/>
</g>
<!-- Node78&#45;&gt;Node1 -->
<g id="edge35" class="edge">
<title>Node78&#45;&gt;Node1</title>
<path fill="none" stroke="#191970" d="M786.8037,-115.393C798.8198,-97.5911 822.1907,-67.7593 851,-55 904.7981,-31.1734 1805.5296,-13.6897 2001.543,-10.1564"/>
<polygon fill="#191970" stroke="#191970" points="2001.7012,-13.6543 2011.6369,-9.9756 2001.5757,-6.6554 2001.7012,-13.6543"/>
</g>
<!-- Node78&#45;&gt;Node8 -->
<g id="edge36" class="edge">
<title>Node78&#45;&gt;Node8</title>
<path fill="none" stroke="#191970" d="M834.3822,-120.8517C861.43,-116.9894 894.3316,-112.7078 924,-110 1242.2268,-80.9561 1623.9873,-69.5638 1777.7919,-65.9372"/>
<polygon fill="#191970" stroke="#191970" points="1778.1132,-69.4308 1788.0292,-65.6994 1777.9506,-62.4327 1778.1132,-69.4308"/>
</g>
<!-- Node89&#45;&gt;Node1 -->
<g id="edge38" class="edge">
<title>Node89&#45;&gt;Node1</title>
<path fill="none" stroke="#191970" d="M797.4756,-185.4352C822.2694,-177.069 852.0335,-164.9459 876,-149 896.1486,-135.5943 893.5694,-122.9719 914,-110 977.1259,-69.9197 999.5713,-69.1254 1073,-55 1255.7432,-19.8459 1846.3493,-11.4562 2001.4226,-9.8386"/>
<polygon fill="#191970" stroke="#191970" points="2001.8595,-13.3344 2011.8236,-9.7335 2001.7888,-6.3348 2001.8595,-13.3344"/>
</g>
<!-- Node89&#45;&gt;Node8 -->
<g id="edge39" class="edge">
<title>Node89&#45;&gt;Node8</title>
<path fill="none" stroke="#191970" d="M809.7646,-187.5743C842.192,-179.6533 881.772,-167.2812 914,-149 936.4416,-136.27 933.1748,-119.9014 957,-110 1031.9161,-78.8661 1581.5214,-68.2059 1777.6764,-65.3702"/>
<polygon fill="#191970" stroke="#191970" points="1777.9121,-68.8673 1787.8613,-65.2254 1777.8126,-61.868 1777.9121,-68.8673"/>
</g>
<!-- Node102&#45;&gt;Node1 -->
<g id="edge41" class="edge">
<title>Node102&#45;&gt;Node1</title>
<path fill="none" stroke="#191970" d="M1481.7053,-255.437C1468.822,-253.3519 1454.9232,-251.3523 1442,-250 1399.684,-245.5719 706.3697,-244.7843 677,-214 668.103,-204.6744 674.14,-197.5676 677,-185 685.2045,-148.9473 687.2649,-136.5484 713,-110 731.4708,-90.9455 793.3404,-61.7698 819,-55 935.5969,-24.2382 1808.9902,-12.2121 2001.5233,-9.9206"/>
<polygon fill="#191970" stroke="#191970" points="2001.7452,-13.4183 2011.7033,-9.801 2001.6629,-6.4188 2001.7452,-13.4183"/>
</g>
<!-- Node102&#45;&gt;Node8 -->
<g id="edge42" class="edge">
<title>Node102&#45;&gt;Node8</title>
<path fill="none" stroke="#191970" d="M1539.3976,-255.2831C1548.5154,-245.228 1563.4551,-228.6126 1576,-214 1615.0691,-168.4913 1611.199,-141.8855 1662,-110 1696.6972,-88.2222 1741.124,-76.8667 1777.7443,-70.9463"/>
<polygon fill="#191970" stroke="#191970" points="1778.488,-74.3737 1787.8515,-69.4165 1777.4403,-67.4525 1778.488,-74.3737"/>
</g>
<!-- Node102&#45;&gt;Node42 -->
<g id="edge43" class="edge">
<title>Node102&#45;&gt;Node42</title>
<path fill="none" stroke="#191970" d="M1563.6757,-255.462C1605.3865,-243.925 1677.6333,-223.9419 1723.5614,-211.2383"/>
<polygon fill="#191970" stroke="#191970" points="1724.5188,-214.605 1733.2238,-208.5658 1722.6526,-207.8583 1724.5188,-214.605"/>
</g>
<!-- Node109&#45;&gt;Node1 -->
<g id="edge45" class="edge">
<title>Node109&#45;&gt;Node1</title>
<path fill="none" stroke="#191970" d="M1009.1498,-190.4436C1032.3386,-180.7877 1069.6673,-164.7479 1101,-149 1132.4745,-133.1809 1137.548,-123.7025 1170,-110 1250.2014,-76.1357 1272.2819,-70.2143 1358,-55 1483.2685,-32.7658 1877.5576,-15.8175 2001.3966,-10.932"/>
<polygon fill="#191970" stroke="#191970" points="2001.6667,-14.4242 2011.5222,-10.5358 2001.3929,-7.4296 2001.6667,-14.4242"/>
</g>
<!-- Node109&#45;&gt;Node8 -->
<g id="edge47" class="edge">
<title>Node109&#45;&gt;Node8</title>
<path fill="none" stroke="#191970" d="M1017.3178,-190.4827C1047.3776,-181.2177 1094.5232,-165.8075 1134,-149 1168.9313,-134.1277 1173.4375,-120.2258 1210,-110 1315.1444,-80.5931 1635.5214,-69.5035 1777.7344,-65.952"/>
<polygon fill="#191970" stroke="#191970" points="1778.1587,-69.4428 1788.0701,-65.6994 1777.9875,-62.4449 1778.1587,-69.4428"/>
</g>
<!-- Node109&#45;&gt;Node70 -->
<g id="edge48" class="edge">
<title>Node109&#45;&gt;Node70</title>
<path fill="none" stroke="#191970" d="M992.4908,-190.3487C998.9947,-179.5089 1009.9829,-161.1951 1018.2091,-147.4848"/>
<polygon fill="#191970" stroke="#191970" points="1021.2301,-149.2526 1023.3738,-138.8769 1015.2276,-145.6511 1021.2301,-149.2526"/>
</g>
<!-- Node91 -->
<g id="node22" class="node">
<title>Node91</title>
<polygon fill="#ffffff" stroke="#bfbfbf" points="1262.3301,-120.5 1262.3301,-138.5 1291.6699,-138.5 1291.6699,-120.5 1262.3301,-120.5"/>
<text text-anchor="middle" x="1277" y="-126.5" font-family="FreeSans" font-size="10.00" fill="#000000">set</text>
</g>
<!-- Node109&#45;&gt;Node91 -->
<g id="edge46" class="edge">
<title>Node109&#45;&gt;Node91</title>
<path fill="none" stroke="#191970" d="M1030.3538,-190.4952C1075.4259,-180.9435 1147.9318,-165.0445 1210,-149 1224.1115,-145.3522 1239.7575,-140.8261 1252.3788,-137.053"/>
<polygon fill="#191970" stroke="#191970" points="1253.608,-140.3379 1262.1692,-134.0964 1251.5843,-133.6368 1253.608,-140.3379"/>
</g>
<!-- Node112&#45;&gt;Node1 -->
<g id="edge50" class="edge">
<title>Node112&#45;&gt;Node1</title>
<path fill="none" stroke="#191970" d="M1752.5225,-255.4071C1732.0044,-247.9141 1707.3749,-235.02 1695,-214 1661.9347,-157.8351 1688.6027,-107.966 1761,-55 1798.6536,-27.4525 1934.5969,-15.6935 2001.4075,-11.4904"/>
<polygon fill="#191970" stroke="#191970" points="2001.7406,-14.9768 2011.511,-10.8795 2001.318,-7.9895 2001.7406,-14.9768"/>
</g>
<!-- Node112&#45;&gt;Node8 -->
<g id="edge51" class="edge">
<title>Node112&#45;&gt;Node8</title>
<path fill="none" stroke="#191970" d="M1800.3192,-255.2722C1812.6577,-246.3877 1829.613,-231.7103 1837,-214 1841.9617,-202.1044 1840.6147,-197.3716 1837,-185 1831.6752,-166.7753 1819.3248,-167.2247 1814,-149 1809.1389,-132.3623 1808.6505,-126.4872 1814,-110 1817.4422,-99.3911 1824.3888,-89.1855 1831.0245,-81.1379"/>
<polygon fill="#191970" stroke="#191970" points="1833.6775,-83.4211 1837.667,-73.606 1828.4275,-78.791 1833.6775,-83.4211"/>
</g>
<!-- Node112&#45;&gt;Node42 -->
<g id="edge53" class="edge">
<title>Node112&#45;&gt;Node42</title>
<path fill="none" stroke="#191970" d="M1783.2191,-255.462C1780.2969,-245.9651 1775.6138,-230.7449 1771.8687,-218.5732"/>
<polygon fill="#191970" stroke="#191970" points="1775.173,-217.4106 1768.8868,-208.8821 1768.4825,-219.4693 1775.173,-217.4106"/>
</g>
<!-- Node112&#45;&gt;Node43 -->
<g id="edge52" class="edge">
<title>Node112&#45;&gt;Node43</title>
<path fill="none" stroke="#191970" d="M1809.1148,-255.3808C1846.7671,-240.5412 1923.7024,-210.2823 1989,-185 2027.2788,-170.179 2071.3264,-153.3516 2100.734,-142.1494"/>
<polygon fill="#191970" stroke="#191970" points="2102.0163,-145.4064 2110.1163,-138.5771 2099.5254,-138.8645 2102.0163,-145.4064"/>
</g>
<!-- Node112&#45;&gt;Node89 -->
<g id="edge54" class="edge">
<title>Node112&#45;&gt;Node89</title>
<path fill="none" stroke="#191970" d="M1724.5527,-258.5792C1693.2731,-255.7059 1654.6339,-252.3717 1620,-250 1298.1346,-227.9593 1216.7371,-237.8417 895,-214 870.4964,-212.1842 843.7434,-209.6965 819.8571,-207.2942"/>
<polygon fill="#191970" stroke="#191970" points="820.1135,-203.8023 809.8106,-206.272 819.4049,-210.7663 820.1135,-203.8023"/>
</g>
<!-- Node115 -->
<g id="node24" class="node">
<title>Node115</title>
<polygon fill="#ffffff" stroke="#bfbfbf" points="2414.0669,-190.5 2414.0669,-208.5 2557.9331,-208.5 2557.9331,-190.5 2414.0669,-190.5"/>
<text text-anchor="middle" x="2486" y="-196.5" font-family="FreeSans" font-size="10.00" fill="#000000">boost/graph/graph_traits.hpp</text>
</g>
<!-- Node112&#45;&gt;Node115 -->
<g id="edge55" class="edge">
<title>Node112&#45;&gt;Node115</title>
<path fill="none" stroke="#191970" d="M1847.201,-258.817C1973.2614,-247.1114 2261.9336,-220.3062 2403.9832,-207.1158"/>
<polygon fill="#191970" stroke="#191970" points="2404.3196,-210.5998 2413.9532,-206.1901 2403.6724,-203.6297 2404.3196,-210.5998"/>
</g>
<!-- Node116 -->
<g id="node25" class="node">
<title>Node116</title>
<polygon fill="#ffffff" stroke="#bfbfbf" points="2614.2368,-190.5 2614.2368,-208.5 2749.7632,-208.5 2749.7632,-190.5 2614.2368,-190.5"/>
<text text-anchor="middle" x="2682" y="-196.5" font-family="FreeSans" font-size="10.00" fill="#000000">boost/graph/properties.hpp</text>
</g>
<!-- Node112&#45;&gt;Node116 -->
<g id="edge56" class="edge">
<title>Node112&#45;&gt;Node116</title>
<path fill="none" stroke="#191970" d="M1847.1101,-261.8162C1978.8521,-255.7521 2299.3527,-239.5027 2567,-214 2579.5666,-212.8026 2592.8797,-211.3214 2605.8189,-209.7673"/>
<polygon fill="#191970" stroke="#191970" points="2606.5937,-213.1987 2616.0943,-208.5094 2605.7431,-206.2505 2606.5937,-213.1987"/>
</g>
<!-- Node121&#45;&gt;Node1 -->
<g id="edge58" class="edge">
<title>Node121&#45;&gt;Node1</title>
<path fill="none" stroke="#191970" d="M1062.5149,-263.1408C873.3278,-257.1872 349.7222,-225.2859 515,-55 541.7112,-27.4794 1769.7523,-12.4905 2001.4956,-9.9045"/>
<polygon fill="#191970" stroke="#191970" points="2001.8086,-13.4014 2011.7692,-9.7907 2001.731,-6.4018 2001.8086,-13.4014"/>
</g>
<!-- Node121&#45;&gt;Node8 -->
<g id="edge60" class="edge">
<title>Node121&#45;&gt;Node8</title>
<path fill="none" stroke="#191970" d="M1176.8385,-250.4396C1200.8143,-242.1343 1229.3387,-230.0637 1252,-214 1302.3462,-178.3117 1288.9341,-137.8594 1344,-110 1381.755,-90.8987 1648.5356,-74.7348 1777.5094,-67.938"/>
<polygon fill="#191970" stroke="#191970" points="1777.8736,-71.4239 1787.6772,-67.4066 1777.5082,-64.4334 1777.8736,-71.4239"/>
</g>
<!-- Node121&#45;&gt;Node70 -->
<g id="edge61" class="edge">
<title>Node121&#45;&gt;Node70</title>
<path fill="none" stroke="#191970" d="M1062.6643,-261.3727C992.286,-256.4738 886.9944,-244.186 862,-214 853.78,-204.0726 854.459,-195.4526 862,-185 869.468,-174.6485 938.3497,-154.1614 985.2827,-141.1826"/>
<polygon fill="#191970" stroke="#191970" points="986.2176,-144.5555 994.9345,-138.5334 984.3648,-137.8052 986.2176,-144.5555"/>
</g>
<!-- Node121&#45;&gt;Node91 -->
<g id="edge59" class="edge">
<title>Node121&#45;&gt;Node91</title>
<path fill="none" stroke="#191970" d="M1167.8457,-250.307C1187.316,-241.9383 1210.1237,-229.8514 1227,-214 1247.0348,-195.1819 1261.6681,-166.5446 1269.7556,-147.9242"/>
<polygon fill="#191970" stroke="#191970" points="1273.0652,-149.08 1273.6604,-138.5019 1266.5985,-146.4 1273.0652,-149.08"/>
</g>
<!-- Node121&#45;&gt;Node122 -->
<g id="edge62" class="edge">
<title>Node121&#45;&gt;Node122</title>
<path fill="none" stroke="#191970" d="M1133.4246,-250.396C1136.5041,-242.3893 1140.4378,-232.1616 1143.9701,-222.9778"/>
<polygon fill="#191970" stroke="#191970" points="1147.2628,-224.1664 1147.586,-213.5765 1140.7294,-221.6535 1147.2628,-224.1664"/>
</g>
<!-- Node122&#45;&gt;Node1 -->
<g id="edge63" class="edge">
<title>Node122&#45;&gt;Node1</title>
<path fill="none" stroke="#191970" d="M1157.1416,-185.3648C1163.8575,-165.1284 1179.1535,-128.3258 1206,-110 1272.6018,-64.5365 1847.2312,-22.5297 2001.187,-12.0152"/>
<polygon fill="#191970" stroke="#191970" points="2001.792,-15.4822 2011.532,-11.3129 2001.3179,-8.4983 2001.792,-15.4822"/>
</g>
<!-- Node122&#45;&gt;Node8 -->
<g id="edge65" class="edge">
<title>Node122&#45;&gt;Node8</title>
<path fill="none" stroke="#191970" d="M1169.0144,-185.4005C1180.4625,-175.2997 1196.2176,-161.3548 1210,-149 1229.2118,-131.7783 1229.3023,-120.2028 1253,-110 1300.1678,-89.6924 1631.6699,-73.5088 1777.9355,-67.2731"/>
<polygon fill="#191970" stroke="#191970" points="1778.2969,-70.7611 1788.14,-66.8414 1778.001,-63.7673 1778.2969,-70.7611"/>
</g>
<!-- Node122&#45;&gt;Node70 -->
<g id="edge66" class="edge">
<title>Node122&#45;&gt;Node70</title>
<path fill="none" stroke="#191970" d="M1127.9067,-185.3345C1106.3308,-173.1545 1075.3794,-155.6819 1053.8688,-143.5389"/>
<polygon fill="#191970" stroke="#191970" points="1055.4294,-140.4006 1045.0005,-138.5325 1051.9882,-146.4964 1055.4294,-140.4006"/>
</g>
<!-- Node122&#45;&gt;Node91 -->
<g id="edge64" class="edge">
<title>Node122&#45;&gt;Node91</title>
<path fill="none" stroke="#191970" d="M1181.2731,-185.4413C1200.391,-175.7 1226.0553,-162.1627 1248,-149 1250.5364,-147.4786 1253.1585,-145.8295 1255.7415,-144.1566"/>
<polygon fill="#191970" stroke="#191970" points="1257.8101,-146.9842 1264.1925,-138.5275 1253.9294,-141.1582 1257.8101,-146.9842"/>
</g>
<!-- Node125&#45;&gt;Node1 -->
<g id="edge69" class="edge">
<title>Node125&#45;&gt;Node1</title>
<path fill="none" stroke="#191970" d="M1144.4798,-327.0102C1023.5699,-321.449 753.2101,-306.3116 665,-279 546.883,-242.4286 399.7824,-127.426 500,-55 531.3899,-32.3149 1767.9364,-13.4039 2001.2447,-10.0339"/>
<polygon fill="#191970" stroke="#191970" points="2001.6388,-13.5287 2011.5875,-9.8852 2001.5382,-6.5294 2001.6388,-13.5287"/>
</g>
<!-- Node125&#45;&gt;Node4 -->
<g id="edge73" class="edge">
<title>Node125&#45;&gt;Node4</title>
<path fill="none" stroke="#191970" d="M1144.8545,-326.6775C1008.5923,-318.8791 678.6649,-292.1729 606,-214 589.7735,-196.5435 590.0277,-167.5285 592.4345,-148.4571"/>
<polygon fill="#191970" stroke="#191970" points="595.8981,-148.9616 593.992,-138.5397 588.9829,-147.8755 595.8981,-148.9616"/>
</g>
<!-- Node125&#45;&gt;Node8 -->
<g id="edge71" class="edge">
<title>Node125&#45;&gt;Node8</title>
<path fill="none" stroke="#191970" d="M1213.3373,-315.4107C1243.1403,-270.9053 1336.7397,-134.8064 1383,-110 1416.9201,-91.8108 1656.5815,-75.5327 1777.5302,-68.367"/>
<polygon fill="#191970" stroke="#191970" points="1778.0176,-71.8445 1787.795,-67.7639 1777.6069,-64.8566 1778.0176,-71.8445"/>
</g>
<!-- Node125&#45;&gt;Node41 -->
<g id="edge75" class="edge">
<title>Node125&#45;&gt;Node41</title>
<path fill="none" stroke="#191970" d="M1237.8497,-315.396C1261.0519,-305.7284 1292.0258,-292.8226 1316.9772,-282.4262"/>
<polygon fill="#191970" stroke="#191970" points="1318.3318,-285.6535 1326.2164,-278.5765 1315.6394,-279.1919 1318.3318,-285.6535"/>
</g>
<!-- Node125&#45;&gt;Node42 -->
<g id="edge72" class="edge">
<title>Node125&#45;&gt;Node42</title>
<path fill="none" stroke="#191970" d="M1263.4618,-325.053C1362.0763,-317.2152 1555.0398,-299.7881 1620,-279 1667.4171,-263.8259 1717.2227,-233.0048 1744.6685,-214.5131"/>
<polygon fill="#191970" stroke="#191970" points="1746.8069,-217.2908 1753.0832,-208.7551 1742.8539,-211.5139 1746.8069,-217.2908"/>
</g>
<!-- Node125&#45;&gt;Node121 -->
<g id="edge74" class="edge">
<title>Node125&#45;&gt;Node121</title>
<path fill="none" stroke="#191970" d="M1187.5091,-315.396C1177.1516,-306.5375 1163.6152,-294.9604 1152.0699,-285.0861"/>
<polygon fill="#191970" stroke="#191970" points="1154.3332,-282.4163 1144.4587,-278.5765 1149.7834,-287.7361 1154.3332,-282.4163"/>
</g>
<!-- Node74 -->
<g id="node29" class="node">
<title>Node74</title>
<polygon fill="#ffffff" stroke="#bfbfbf" points="2767.3843,-190.5 2767.3843,-208.5 2810.6157,-208.5 2810.6157,-190.5 2767.3843,-190.5"/>
<text text-anchor="middle" x="2789" y="-196.5" font-family="FreeSans" font-size="10.00" fill="#000000">vector</text>
</g>
<!-- Node125&#45;&gt;Node74 -->
<g id="edge70" class="edge">
<title>Node125&#45;&gt;Node74</title>
<path fill="none" stroke="#191970" d="M1263.3868,-328.7381C1514.6072,-325.3305 2483.1845,-310.2644 2616,-279 2672.8112,-265.6268 2733.5542,-232.8812 2765.7788,-213.8486"/>
<polygon fill="#191970" stroke="#191970" points="2767.6804,-216.7894 2774.4568,-208.645 2764.0805,-210.7859 2767.6804,-216.7894"/>
</g>
<!-- Node153&#45;&gt;Node1 -->
<g id="edge77" class="edge">
<title>Node153&#45;&gt;Node1</title>
<path fill="none" stroke="#191970" d="M206.6457,-110.4191C256.2655,-92.3627 335.1633,-66.3798 406,-55 568.1173,-28.9561 1773.183,-12.7985 2001.6655,-9.9523"/>
<polygon fill="#191970" stroke="#191970" points="2001.8436,-13.4505 2011.7994,-9.8269 2001.7568,-6.451 2001.8436,-13.4505"/>
</g>
<!-- Node153&#45;&gt;Node7 -->
<g id="edge78" class="edge">
<title>Node153&#45;&gt;Node7</title>
<path fill="none" stroke="#191970" d="M180.9264,-110.4856C210.6418,-86.8708 260.7742,-47.0304 288.3518,-25.1145"/>
<polygon fill="#191970" stroke="#191970" points="290.8072,-27.6338 296.4585,-18.6721 286.452,-22.1536 290.8072,-27.6338"/>
</g>
<!-- Node153&#45;&gt;Node8 -->
<g id="edge79" class="edge">
<title>Node153&#45;&gt;Node8</title>
<path fill="none" stroke="#191970" d="M248.4604,-111.0426C251.3354,-110.6618 254.1872,-110.3124 257,-110 558.3196,-76.5388 1512.4002,-67.0051 1777.8624,-64.9692"/>
<polygon fill="#191970" stroke="#191970" points="1778.1567,-68.4672 1788.13,-64.8916 1778.1038,-61.4674 1778.1567,-68.4672"/>
</g>
<!-- Node158&#45;&gt;Node1 -->
<g id="edge81" class="edge">
<title>Node158&#45;&gt;Node1</title>
<path fill="none" stroke="#191970" d="M366.0822,-110.3961C383.6016,-92.3223 412.6579,-66.3265 444,-55 519.5733,-27.6891 1768.7513,-12.5042 2001.7411,-9.9028"/>
<polygon fill="#191970" stroke="#191970" points="2001.7952,-13.4025 2011.7557,-9.7918 2001.7175,-6.403 2001.7952,-13.4025"/>
</g>
<!-- Node158&#45;&gt;Node7 -->
<g id="edge82" class="edge">
<title>Node158&#45;&gt;Node7</title>
<path fill="none" stroke="#191970" d="M342.5034,-110.4856C334.8192,-87.9953 322.1067,-50.7879 314.4451,-28.3636"/>
<polygon fill="#191970" stroke="#191970" points="317.679,-27.0033 311.1338,-18.6721 311.055,-29.2666 317.679,-27.0033"/>
</g>
<!-- Node158&#45;&gt;Node8 -->
<g id="edge83" class="edge">
<title>Node158&#45;&gt;Node8</title>
<path fill="none" stroke="#191970" d="M432.1873,-118.488C459.196,-115.2761 489.3302,-112.0757 517,-110 998.5398,-73.8768 1580.3343,-66.4093 1777.6913,-64.885"/>
<polygon fill="#191970" stroke="#191970" points="1777.9395,-68.3833 1787.913,-64.8088 1777.8872,-61.3835 1777.9395,-68.3833"/>
</g>
<!-- Node160&#45;&gt;Node1 -->
<g id="edge85" class="edge">
<title>Node160&#45;&gt;Node1</title>
<path fill="none" stroke="#191970" d="M2200.5316,-250.3518C2213.4374,-232.3345 2238.1961,-201.558 2267,-185 2326.4387,-150.8315 2374.553,-202.8396 2417,-149 2427.7315,-135.3882 2427.5652,-123.7412 2417,-110 2375.1387,-55.5546 2163.4335,-24.4036 2076.4226,-13.727"/>
<polygon fill="#191970" stroke="#191970" points="2076.7962,-10.2468 2066.4495,-12.5263 2075.9594,-17.1966 2076.7962,-10.2468"/>
</g>
<!-- Node160&#45;&gt;Node2 -->
<g id="edge86" class="edge">
<title>Node160&#45;&gt;Node2</title>
<path fill="none" stroke="#191970" d="M2214.2174,-250.396C2232.0132,-239.5855 2256.4742,-224.7259 2274.3715,-213.8537"/>
<polygon fill="#191970" stroke="#191970" points="2276.3328,-216.7575 2283.0623,-208.5743 2272.6985,-210.7749 2276.3328,-216.7575"/>
</g>
<!-- Node160&#45;&gt;Node8 -->
<g id="edge87" class="edge">
<title>Node160&#45;&gt;Node8</title>
<path fill="none" stroke="#191970" d="M2117.399,-256.5121C2047.3713,-244.9332 1944.1697,-216.8177 1885,-149 1868.1945,-129.7383 1857.6102,-101.828 1851.9993,-83.4295"/>
<polygon fill="#191970" stroke="#191970" points="1855.3047,-82.2575 1849.1989,-73.599 1848.5726,-84.1753 1855.3047,-82.2575"/>
</g>
<!-- Node160&#45;&gt;Node42 -->
<g id="edge88" class="edge">
<title>Node160&#45;&gt;Node42</title>
<path fill="none" stroke="#191970" d="M2117.4558,-253.2521C2038.1035,-241.1158 1912.716,-221.9389 1835.1249,-210.072"/>
<polygon fill="#191970" stroke="#191970" points="1835.3856,-206.5713 1824.9714,-208.5192 1834.3273,-213.4908 1835.3856,-206.5713"/>
</g>
<!-- Node160&#45;&gt;Node43 -->
<g id="edge89" class="edge">
<title>Node160&#45;&gt;Node43</title>
<path fill="none" stroke="#191970" d="M2192.9003,-250.3368C2194.4885,-233.9007 2195.2148,-206.3278 2186,-185 2179.1732,-169.1992 2165.8154,-155.0993 2154.3481,-145.0651"/>
<polygon fill="#191970" stroke="#191970" points="2156.3827,-142.2053 2146.4527,-138.5111 2151.9116,-147.5913 2156.3827,-142.2053"/>
</g>
<!-- Node104 -->
<g id="node33" class="node">
<title>Node104</title>
<g id="a_node33"><a xlink:href="CUndirectedSimpleLocalGraph_8h_source.html" target="_top" xlink:title="DGtal/graph/CUndirectedSimple\lLocalGraph.h">
<polygon fill="#ffffff" stroke="#ff0000" points="1893.5791,-115.5 1893.5791,-143.5 2052.4209,-143.5 2052.4209,-115.5 1893.5791,-115.5"/>
<text text-anchor="start" x="1901.5791" y="-131.5" font-family="FreeSans" font-size="10.00" fill="#000000">DGtal/graph/CUndirectedSimple</text>
<text text-anchor="middle" x="1973" y="-121.5" font-family="FreeSans" font-size="10.00" fill="#000000">LocalGraph.h</text>
</a>
</g>
</g>
<!-- Node160&#45;&gt;Node104 -->
<g id="edge90" class="edge">
<title>Node160&#45;&gt;Node104</title>
<path fill="none" stroke="#191970" d="M2187.925,-250.3011C2183.3457,-232.5182 2173.0356,-202.2909 2153,-185 2136.6353,-170.8771 2089.1694,-156.5398 2047.0887,-145.9758"/>
<polygon fill="#191970" stroke="#191970" points="2047.9177,-142.5755 2037.3704,-143.5778 2046.2407,-149.3716 2047.9177,-142.5755"/>
</g>
<!-- Node161 -->
<g id="node34" class="node">
<title>Node161</title>
<g id="a_node34"><a xlink:href="DistanceBreadthFirstVisitor_8ih_source.html" target="_top" xlink:title="DGtal/graph/DistanceBreadth\lFirstVisitor.ih">
<polygon fill="#ffffff" stroke="#000000" points="1997.6875,-185.5 1997.6875,-213.5 2144.3125,-213.5 2144.3125,-185.5 1997.6875,-185.5"/>
<text text-anchor="start" x="2005.6875" y="-201.5" font-family="FreeSans" font-size="10.00" fill="#000000">DGtal/graph/DistanceBreadth</text>
<text text-anchor="middle" x="2071" y="-191.5" font-family="FreeSans" font-size="10.00" fill="#000000">FirstVisitor.ih</text>
</a>
</g>
</g>
<!-- Node160&#45;&gt;Node161 -->
<g id="edge93" class="edge">
<title>Node160&#45;&gt;Node161</title>
<path fill="none" stroke="#191970" d="M2164.9618,-250.396C2147.6643,-241.0265 2124.7516,-228.6155 2105.883,-218.395"/>
<polygon fill="#191970" stroke="#191970" points="2107.4473,-215.2619 2096.9874,-213.5765 2104.1133,-221.4169 2107.4473,-215.2619"/>
</g>
<!-- Node104&#45;&gt;Node1 -->
<g id="edge91" class="edge">
<title>Node104&#45;&gt;Node1</title>
<path fill="none" stroke="#191970" d="M1980.8302,-115.2632C1992.8947,-93.3278 2016.0092,-51.3014 2029.1778,-27.3585"/>
<polygon fill="#191970" stroke="#191970" points="2032.247,-29.0407 2033.9995,-18.5918 2026.1135,-25.6672 2032.247,-29.0407"/>
</g>
<!-- Node104&#45;&gt;Node8 -->
<g id="edge92" class="edge">
<title>Node104&#45;&gt;Node8</title>
<path fill="none" stroke="#191970" d="M1945.6599,-115.396C1924.3196,-104.3871 1894.8398,-89.1793 1873.672,-78.2594"/>
<polygon fill="#191970" stroke="#191970" points="1875.082,-75.0485 1864.5902,-73.5743 1871.8727,-81.2695 1875.082,-75.0485"/>
</g>
<!-- Node162&#45;&gt;Node1 -->
<g id="edge95" class="edge">
<title>Node162&#45;&gt;Node1</title>
<path fill="none" stroke="#191970" d="M3068.8246,-262.3226C3191.9681,-258.02 3439.0145,-245.9012 3646,-214 3776.7905,-193.8422 4000.0465,-218.9978 3925,-110 3886.1486,-53.5722 3848.2046,-68.307 3781,-55 3608.6463,-20.8726 2314.6487,-11.2155 2076.5804,-9.7201"/>
<polygon fill="#191970" stroke="#191970" points="2076.3812,-6.2189 2066.3597,-9.6569 2076.3378,-13.2188 2076.3812,-6.2189"/>
</g>
<!-- Node162&#45;&gt;Node8 -->
<g id="edge100" class="edge">
<title>Node162&#45;&gt;Node8</title>
<path fill="none" stroke="#191970" d="M2986.6717,-255.315C2977.9624,-238.0129 2956.5129,-200.9027 2926,-185 2737.8593,-86.9448 2638.9611,-245.4648 2450,-149 2429.7769,-138.6761 2437.2015,-120.366 2417,-110 2373.4316,-87.6437 2058.4114,-72.7201 1916.265,-67.0526"/>
<polygon fill="#191970" stroke="#191970" points="1916.0554,-63.5417 1905.9251,-66.6445 1915.7793,-70.5362 1916.0554,-63.5417"/>
</g>
<!-- Node162&#45;&gt;Node43 -->
<g id="edge101" class="edge">
<title>Node162&#45;&gt;Node43</title>
<path fill="none" stroke="#191970" d="M2981.0868,-255.3095C2960.1192,-236.0965 2911.5211,-192.8105 2891,-185 2756.6255,-133.8561 2387.8321,-165.4675 2245,-149 2226.472,-146.8639 2206.3522,-143.6149 2188.3948,-140.378"/>
<polygon fill="#191970" stroke="#191970" points="2188.8518,-136.9034 2178.3834,-138.5354 2187.5846,-143.7878 2188.8518,-136.9034"/>
</g>
<!-- Node162&#45;&gt;Node91 -->
<g id="edge97" class="edge">
<title>Node162&#45;&gt;Node91</title>
<path fill="none" stroke="#191970" d="M2972.6263,-255.4382C2931.8205,-235.3888 2835.9779,-188.7431 2820,-185 2508.9868,-112.1402 1700.7245,-181.9984 1383,-149 1354.9781,-146.0897 1323.2518,-139.8576 1301.8714,-135.2177"/>
<polygon fill="#191970" stroke="#191970" points="1302.509,-131.7741 1291.9884,-133.026 1300.9935,-138.6081 1302.509,-131.7741"/>
</g>
<!-- Node162&#45;&gt;Node115 -->
<g id="edge98" class="edge">
<title>Node162&#45;&gt;Node115</title>
<path fill="none" stroke="#191970" d="M2921.0472,-255.4962C2828.0695,-243.5287 2664.1494,-222.4301 2566.2483,-209.829"/>
<polygon fill="#191970" stroke="#191970" points="2566.4735,-206.3292 2556.1085,-208.5239 2565.5798,-213.2719 2566.4735,-206.3292"/>
</g>
<!-- Node162&#45;&gt;Node116 -->
<g id="edge99" class="edge">
<title>Node162&#45;&gt;Node116</title>
<path fill="none" stroke="#191970" d="M2948.0349,-255.462C2892.3848,-243.7557 2795.396,-223.3535 2735.1661,-210.6838"/>
<polygon fill="#191970" stroke="#191970" points="2735.6035,-207.1993 2725.0972,-208.5658 2734.1625,-214.0494 2735.6035,-207.1993"/>
</g>
<!-- Node162&#45;&gt;Node74 -->
<g id="edge96" class="edge">
<title>Node162&#45;&gt;Node74</title>
<path fill="none" stroke="#191970" d="M2962.9128,-255.462C2925.4956,-243.4219 2859.4911,-222.1828 2820.4471,-209.6191"/>
<polygon fill="#191970" stroke="#191970" points="2821.2569,-206.203 2810.6655,-206.4716 2819.1126,-212.8665 2821.2569,-206.203"/>
</g>
<!-- Node163 -->
<g id="node36" class="node">
<title>Node163</title>
<g id="a_node36"><a xlink:href="CWithGradientMap_8h_source.html" target="_top" xlink:title="DGtal/kernel/CWithGradient\lMap.h">
<polygon fill="#ffffff" stroke="#ff0000" points="3158.0347,-115.5 3158.0347,-143.5 3297.9653,-143.5 3297.9653,-115.5 3158.0347,-115.5"/>
<text text-anchor="start" x="3166.0347" y="-131.5" font-family="FreeSans" font-size="10.00" fill="#000000">DGtal/kernel/CWithGradient</text>
<text text-anchor="middle" x="3228" y="-121.5" font-family="FreeSans" font-size="10.00" fill="#000000">Map.h</text>
</a>
</g>
</g>
<!-- Node162&#45;&gt;Node163 -->
<g id="edge102" class="edge">
<title>Node162&#45;&gt;Node163</title>
<path fill="none" stroke="#191970" d="M3068.8914,-261.1188C3234.7453,-253.5415 3609.2739,-234.2695 3628,-214 3636.7463,-204.5329 3636.5825,-194.6158 3628,-185 3580.9375,-132.2716 3381.6484,-161.0108 3312,-149 3306.2347,-148.0058 3300.2721,-146.8607 3294.3069,-145.634"/>
<polygon fill="#191970" stroke="#191970" points="3294.8093,-142.1626 3284.2998,-143.5047 3293.3524,-149.0093 3294.8093,-142.1626"/>
</g>
<!-- Node164 -->
<g id="node37" class="node">
<title>Node164</title>
<g id="a_node37"><a xlink:href="CCellEmbedder_8h_source.html" target="_top" xlink:title="DGtal/topology/CCellEmbedder.h">
<polygon fill="#ffffff" stroke="#ff0000" points="2540.3477,-120.5 2540.3477,-138.5 2703.6523,-138.5 2703.6523,-120.5 2540.3477,-120.5"/>
<text text-anchor="middle" x="2622" y="-126.5" font-family="FreeSans" font-size="10.00" fill="#000000">DGtal/topology/CCellEmbedder.h</text>
</a>
</g>
</g>
<!-- Node162&#45;&gt;Node164 -->
<g id="edge105" class="edge">
<title>Node162&#45;&gt;Node164</title>
<path fill="none" stroke="#191970" d="M2991.1888,-255.4581C2991.0034,-238.7321 2988.0068,-203.0268 2967,-185 2923.7372,-147.8744 2769.1284,-158.9786 2713,-149 2699.4361,-146.5886 2684.8125,-143.6203 2671.3399,-140.7335"/>
<polygon fill="#191970" stroke="#191970" points="2671.8134,-137.2548 2661.2983,-138.5525 2670.3276,-144.0953 2671.8134,-137.2548"/>
</g>
<!-- Node165 -->
<g id="node38" class="node">
<title>Node165</title>
<g id="a_node38"><a xlink:href="CSCellEmbedder_8h_source.html" target="_top" xlink:title="DGtal/topology/CSCellEmbedder.h">
<polygon fill="#ffffff" stroke="#ff0000" points="2722.0127,-120.5 2722.0127,-138.5 2891.9873,-138.5 2891.9873,-120.5 2722.0127,-120.5"/>
<text text-anchor="middle" x="2807" y="-126.5" font-family="FreeSans" font-size="10.00" fill="#000000">DGtal/topology/CSCellEmbedder.h</text>
</a>
</g>
</g>
<!-- Node162&#45;&gt;Node165 -->
<g id="edge108" class="edge">
<title>Node162&#45;&gt;Node165</title>
<path fill="none" stroke="#191970" d="M2996.6635,-255.351C3005.746,-239.3799 3021.0035,-206.1061 3005,-185 2989.4547,-164.4981 2928.6441,-149.4885 2878.4696,-140.286"/>
<polygon fill="#191970" stroke="#191970" points="2879.0525,-136.8348 2868.5931,-138.523 2877.8224,-143.7258 2879.0525,-136.8348"/>
</g>
<!-- Node166 -->
<g id="node39" class="node">
<title>Node166</title>
<g id="a_node39"><a xlink:href="CDigitalSurfaceContainer_8h_source.html" target="_top" xlink:title="DGtal/topology/CDigitalSurface\lContainer.h">
<polygon fill="#ffffff" stroke="#ff0000" points="3056.8008,-185.5 3056.8008,-213.5 3211.1992,-213.5 3211.1992,-185.5 3056.8008,-185.5"/>
<text text-anchor="start" x="3064.8008" y="-201.5" font-family="FreeSans" font-size="10.00" fill="#000000">DGtal/topology/CDigitalSurface</text>
<text text-anchor="middle" x="3134" y="-191.5" font-family="FreeSans" font-size="10.00" fill="#000000">Container.h</text>
</a>
</g>
</g>
<!-- Node162&#45;&gt;Node166 -->
<g id="edge111" class="edge">
<title>Node162&#45;&gt;Node166</title>
<path fill="none" stroke="#191970" d="M3010.8835,-255.462C3032.2334,-245.7575 3066.7307,-230.077 3093.7846,-217.7797"/>
<polygon fill="#191970" stroke="#191970" points="3095.3543,-220.9109 3103.0097,-213.5865 3092.4577,-214.5383 3095.3543,-220.9109"/>
</g>
<!-- Node167 -->
<g id="node40" class="node">
<title>Node167</title>
<g id="a_node40"><a xlink:href="CDigitalSurfaceTracker_8h_source.html" target="_top" xlink:title="DGtal/topology/CDigitalSurface\lTracker.h">
<polygon fill="#ffffff" stroke="#000000" points="2947.8008,-115.5 2947.8008,-143.5 3102.1992,-143.5 3102.1992,-115.5 2947.8008,-115.5"/>
<text text-anchor="start" x="2955.8008" y="-131.5" font-family="FreeSans" font-size="10.00" fill="#000000">DGtal/topology/CDigitalSurface</text>
<text text-anchor="middle" x="3025" y="-121.5" font-family="FreeSans" font-size="10.00" fill="#000000">Tracker.h</text>
</a>
</g>
</g>
<!-- Node162&#45;&gt;Node167 -->
<g id="edge117" class="edge">
<title>Node162&#45;&gt;Node167</title>
<path fill="none" stroke="#191970" d="M3068.8069,-257.6593C3127.5398,-250.6941 3201.1297,-237.4851 3220,-214 3228.0731,-203.9527 3227.7669,-195.2859 3220,-185 3212.2785,-174.7742 3150.25,-158.2247 3098.1934,-145.854"/>
<polygon fill="#191970" stroke="#191970" points="3098.8059,-142.4026 3088.2699,-143.5171 3097.2013,-149.2162 3098.8059,-142.4026"/>
</g>
<!-- Node168 -->
<g id="node41" class="node">
<title>Node168</title>
<g id="a_node41"><a xlink:href="UmbrellaComputer_8h_source.html" target="_top" xlink:title="DGtal/topology/UmbrellaComputer.h">
<polygon fill="#ffffff" stroke="#ff0000" points="3266.6826,-190.5 3266.6826,-208.5 3443.3174,-208.5 3443.3174,-190.5 3266.6826,-190.5"/>
<text text-anchor="middle" x="3355" y="-196.5" font-family="FreeSans" font-size="10.00" fill="#000000">DGtal/topology/UmbrellaComputer.h</text>
</a>
</g>
</g>
<!-- Node162&#45;&gt;Node168 -->
<g id="edge118" class="edge">
<title>Node162&#45;&gt;Node168</title>
<path fill="none" stroke="#191970" d="M3041.6126,-255.462C3107.8029,-243.6423 3223.6378,-222.9575 3294.4198,-210.3179"/>
<polygon fill="#191970" stroke="#191970" points="3295.2958,-213.7169 3304.5248,-208.5134 3294.0653,-206.8259 3295.2958,-213.7169"/>
</g>
<!-- Node170 -->
<g id="node42" class="node">
<title>Node170</title>
<g id="a_node42"><a xlink:href="DigitalSurface_8ih_source.html" target="_top" xlink:title="DGtal/topology/DigitalSurface.ih">
<polygon fill="#ffffff" stroke="#000000" points="3461.1309,-190.5 3461.1309,-208.5 3618.8691,-208.5 3618.8691,-190.5 3461.1309,-190.5"/>
<text text-anchor="middle" x="3540" y="-196.5" font-family="FreeSans" font-size="10.00" fill="#000000">DGtal/topology/DigitalSurface.ih</text>
</a>
</g>
</g>
<!-- Node162&#45;&gt;Node170 -->
<g id="edge122" class="edge">
<title>Node162&#45;&gt;Node170</title>
<path fill="none" stroke="#191970" d="M3069.0551,-257.251C3160.8658,-248.4234 3317.7907,-232.3942 3452,-214 3460.3797,-212.8515 3469.19,-211.533 3477.8655,-210.1692"/>
<polygon fill="#191970" stroke="#191970" points="3478.6328,-213.5911 3487.9542,-208.555 3477.5268,-206.679 3478.6328,-213.5911"/>
</g>
<!-- Node163&#45;&gt;Node1 -->
<g id="edge103" class="edge">
<title>Node163&#45;&gt;Node1</title>
<path fill="none" stroke="#191970" d="M3188.978,-115.4273C3138.171,-97.8089 3046.2511,-68.3264 2965,-55 2789.5285,-26.2201 2227.1708,-13.2257 2076.4593,-10.2068"/>
<polygon fill="#191970" stroke="#191970" points="2076.3977,-6.705 2066.3304,-10.0066 2076.2593,-13.7036 2076.3977,-6.705"/>
</g>
<!-- Node163&#45;&gt;Node8 -->
<g id="edge104" class="edge">
<title>Node163&#45;&gt;Node8</title>
<path fill="none" stroke="#191970" d="M3174.5096,-115.4599C3164.4366,-113.279 3153.9439,-111.3161 3144,-110 2903.2739,-78.1401 2148.4465,-67.6747 1915.8949,-65.1628"/>
<polygon fill="#191970" stroke="#191970" points="1915.9099,-61.6628 1905.8731,-65.0559 1915.8352,-68.6624 1915.9099,-61.6628"/>
</g>
<!-- Node164&#45;&gt;Node1 -->
<g id="edge106" class="edge">
<title>Node164&#45;&gt;Node1</title>
<path fill="none" stroke="#191970" d="M2613.8231,-120.396C2598.4674,-103.9952 2563.4713,-69.8172 2526,-55 2444.19,-22.6499 2175.7816,-12.86 2076.4242,-10.3032"/>
<polygon fill="#191970" stroke="#191970" points="2076.3372,-6.8 2066.2538,-10.0517 2076.1642,-13.7979 2076.3372,-6.8"/>
</g>
<!-- Node164&#45;&gt;Node8 -->
<g id="edge107" class="edge">
<title>Node164&#45;&gt;Node8</title>
<path fill="none" stroke="#191970" d="M2566.3741,-120.4687C2542.3239,-116.8068 2513.8269,-112.792 2488,-110 2280.4682,-87.5649 2033.8897,-73.6193 1916.1986,-67.7379"/>
<polygon fill="#191970" stroke="#191970" points="1916.0603,-64.2269 1905.8993,-67.2274 1915.7137,-71.2183 1916.0603,-64.2269"/>
</g>
<!-- Node165&#45;&gt;Node1 -->
<g id="edge109" class="edge">
<title>Node165&#45;&gt;Node1</title>
<path fill="none" stroke="#191970" d="M2782.5716,-120.415C2738.2927,-104.357 2641.5229,-71.1342 2557,-55 2379.0883,-21.0391 2161.8789,-12.363 2076.2444,-10.1987"/>
<polygon fill="#191970" stroke="#191970" points="2076.3087,-6.6993 2066.2282,-9.9605 2076.1422,-13.6973 2076.3087,-6.6993"/>
</g>
<!-- Node165&#45;&gt;Node8 -->
<g id="edge110" class="edge">
<title>Node165&#45;&gt;Node8</title>
<path fill="none" stroke="#191970" d="M2769.7131,-120.4045C2752.5451,-116.5684 2731.8436,-112.4352 2713,-110 2559.375,-90.1469 2093.1867,-72.8119 1916.1786,-66.7743"/>
<polygon fill="#191970" stroke="#191970" points="1916.0625,-63.2684 1905.9495,-66.427 1915.8249,-70.2644 1916.0625,-63.2684"/>
</g>
<!-- Node166&#45;&gt;Node1 -->
<g id="edge112" class="edge">
<title>Node166&#45;&gt;Node1</title>
<path fill="none" stroke="#191970" d="M3211.3394,-190.3693C3319.697,-177.3961 3504.1219,-154.579 3509,-149 3520.4094,-135.9512 3518.7265,-124.3471 3509,-110 3471.9503,-55.35 3435.6196,-68.5505 3371,-55 3241.4757,-27.8393 2279.6424,-12.8854 2076.578,-10.0126"/>
<polygon fill="#191970" stroke="#191970" points="2076.464,-6.5107 2066.4158,-9.87 2076.3657,-13.51 2076.464,-6.5107"/>
</g>
<!-- Node166&#45;&gt;Node8 -->
<g id="edge113" class="edge">
<title>Node166&#45;&gt;Node8</title>
<path fill="none" stroke="#191970" d="M3056.6825,-192.7182C3028.4607,-190.2609 2996.2883,-187.4806 2967,-185 2773.2565,-168.5905 2718.6217,-200.0286 2531,-149 2492.445,-138.514 2488.5918,-120.3497 2450,-110 2351.0493,-83.463 2052.5076,-70.9431 1916.2077,-66.4914"/>
<polygon fill="#191970" stroke="#191970" points="1915.999,-62.983 1905.8917,-66.1598 1915.7741,-69.9793 1915.999,-62.983"/>
</g>
<!-- Node166&#45;&gt;Node167 -->
<g id="edge114" class="edge">
<title>Node166&#45;&gt;Node167</title>
<path fill="none" stroke="#191970" d="M3111.9422,-185.3345C3095.6906,-174.8976 3073.3877,-160.5746 3055.4401,-149.0487"/>
<polygon fill="#191970" stroke="#191970" points="3057.3306,-146.1032 3047.025,-143.6445 3053.548,-151.9932 3057.3306,-146.1032"/>
</g>
<!-- Node167&#45;&gt;Node1 -->
<g id="edge115" class="edge">
<title>Node167&#45;&gt;Node1</title>
<path fill="none" stroke="#191970" d="M3013.1729,-115.4038C2997.272,-97.6136 2967.1431,-67.7944 2934,-55 2853.2153,-23.8141 2236.0364,-12.4583 2076.53,-10.028"/>
<polygon fill="#191970" stroke="#191970" points="2076.3233,-6.5246 2066.272,-9.8745 2076.2185,-13.5238 2076.3233,-6.5246"/>
</g>
<!-- Node167&#45;&gt;Node8 -->
<g id="edge116" class="edge">
<title>Node167&#45;&gt;Node8</title>
<path fill="none" stroke="#191970" d="M2947.7823,-115.9779C2932.3284,-113.6613 2916.1791,-111.5163 2901,-110 2708.9898,-90.8198 2119.0003,-72.3884 1916.261,-66.4673"/>
<polygon fill="#191970" stroke="#191970" points="1916.1389,-62.9624 1906.0413,-66.1699 1915.9352,-69.9594 1916.1389,-62.9624"/>
</g>
<!-- Node168&#45;&gt;Node1 -->
<g id="edge119" class="edge">
<title>Node168&#45;&gt;Node1</title>
<path fill="none" stroke="#191970" d="M3414.4877,-190.4791C3426.8804,-188.6359 3439.8632,-186.7314 3452,-185 3573.177,-167.7129 3786.4148,-210.8182 3717,-110 3678.1486,-53.5722 3640.1809,-68.4259 3573,-55 3422.2984,-24.8827 2297.2287,-12.0943 2076.5095,-9.8623"/>
<polygon fill="#191970" stroke="#191970" points="2076.4357,-6.3615 2066.4011,-9.7612 2076.3656,-13.3612 2076.4357,-6.3615"/>
</g>
<!-- Node168&#45;&gt;Node8 -->
<g id="edge120" class="edge">
<title>Node168&#45;&gt;Node8</title>
<path fill="none" stroke="#191970" d="M3274.8349,-190.4558C3235.0211,-183.3996 3187.36,-170.9326 3149,-149 3127.9908,-136.9878 3133.1252,-119.8058 3111,-110 3056.1454,-85.6885 2173.3594,-69.7205 1916.5568,-65.5732"/>
<polygon fill="#191970" stroke="#191970" points="1916.2975,-62.0687 1906.2425,-65.4076 1916.185,-69.0678 1916.2975,-62.0687"/>
</g>
<!-- Node168&#45;&gt;Node167 -->
<g id="edge121" class="edge">
<title>Node168&#45;&gt;Node167</title>
<path fill="none" stroke="#191970" d="M3311.8162,-190.4141C3263.9441,-180.3328 3184.4428,-163.564 3116,-149 3110.9923,-147.9344 3105.83,-146.8338 3100.6282,-145.7233"/>
<polygon fill="#191970" stroke="#191970" points="3101.1169,-142.2488 3090.6063,-143.5819 3099.6542,-149.0943 3101.1169,-142.2488"/>
</g>
<!-- Node171&#45;&gt;Node1 -->
<g id="edge124" class="edge">
<title>Node171&#45;&gt;Node1</title>
<path fill="none" stroke="#191970" d="M2545.3531,-250.4887C2555.8676,-232.0214 2577.0569,-200.1123 2605,-185 2724.3733,-120.44 2987.5952,-214.4952 2901,-110 2847.4916,-45.431 2235.105,-17.1589 2076.3845,-10.8861"/>
<polygon fill="#191970" stroke="#191970" points="2076.3032,-7.3803 2066.1745,-10.4883 2076.0307,-14.375 2076.3032,-7.3803"/>
</g>
<!-- Node171&#45;&gt;Node8 -->
<g id="edge126" class="edge">
<title>Node171&#45;&gt;Node8</title>
<path fill="none" stroke="#191970" d="M2472.673,-250.4582C2440.4859,-242.1866 2401.6713,-230.1397 2369,-214 2349.3128,-204.2744 2348.0984,-195.8363 2329,-185 2293.673,-164.9556 2278.4854,-171.9892 2245,-149 2225.0486,-135.3025 2228.6631,-120.7884 2207,-110 2157.3846,-85.2911 2005.8832,-73.0527 1916.0063,-67.8156"/>
<polygon fill="#191970" stroke="#191970" points="1916.0814,-64.3143 1905.8989,-67.2409 1915.684,-71.303 1916.0814,-64.3143"/>
</g>
<!-- Node171&#45;&gt;Node42 -->
<g id="edge127" class="edge">
<title>Node171&#45;&gt;Node42</title>
<path fill="none" stroke="#191970" d="M2468.8107,-258.6745C2323.4295,-246.4338 1987.4254,-218.1433 1838.8796,-205.6362"/>
<polygon fill="#191970" stroke="#191970" points="1838.7719,-202.1149 1828.5135,-204.7634 1838.1845,-209.0902 1838.7719,-202.1149"/>
</g>
<!-- Node171&#45;&gt;Node74 -->
<g id="edge125" class="edge">
<title>Node171&#45;&gt;Node74</title>
<path fill="none" stroke="#191970" d="M2607.3252,-252.8256C2651.4517,-244.3808 2709.4214,-231.395 2759,-214 2760.1975,-213.5799 2761.41,-213.1252 2762.6263,-212.6452"/>
<polygon fill="#191970" stroke="#191970" points="2764.0757,-215.8314 2771.8332,-208.6154 2761.2689,-209.4187 2764.0757,-215.8314"/>
</g>
<!-- Node84 -->
<g id="node44" class="node">
<title>Node84</title>
<g id="a_node44"><a xlink:href="CPointPredicate_8h_source.html" target="_top" xlink:title="DGtal/kernel/CPointPredicate.h">
<polygon fill="#ffffff" stroke="#ff0000" points="2253.5225,-120.5 2253.5225,-138.5 2408.4775,-138.5 2408.4775,-120.5 2253.5225,-120.5"/>
<text text-anchor="middle" x="2331" y="-126.5" font-family="FreeSans" font-size="10.00" fill="#000000">DGtal/kernel/CPointPredicate.h</text>
</a>
</g>
</g>
<!-- Node171&#45;&gt;Node84 -->
<g id="edge128" class="edge">
<title>Node171&#45;&gt;Node84</title>
<path fill="none" stroke="#191970" d="M2483.6126,-250.4818C2458.2972,-242.3514 2428.6304,-230.418 2405,-214 2378.6962,-195.7246 2355.6832,-166.1156 2342.5663,-147.2394"/>
<polygon fill="#191970" stroke="#191970" points="2345.2947,-145.0257 2336.7973,-138.6976 2339.4938,-148.9435 2345.2947,-145.0257"/>
</g>
<!-- Node84&#45;&gt;Node1 -->
<g id="edge129" class="edge">
<title>Node84&#45;&gt;Node1</title>
<path fill="none" stroke="#191970" d="M2309.0525,-120.4805C2257.7921,-99.4145 2130.0433,-46.9151 2070.4893,-22.4408"/>
<polygon fill="#191970" stroke="#191970" points="2071.782,-19.1881 2061.2021,-18.6242 2069.1211,-25.6626 2071.782,-19.1881"/>
</g>
<!-- Node84&#45;&gt;Node8 -->
<g id="edge130" class="edge">
<title>Node84&#45;&gt;Node8</title>
<path fill="none" stroke="#191970" d="M2292.633,-120.4252C2276.4543,-116.8209 2257.3775,-112.8611 2240,-110 2127.305,-91.4457 1995.2001,-77.7982 1916.448,-70.5114"/>
<polygon fill="#191970" stroke="#191970" points="1916.4477,-66.9967 1906.1698,-69.5685 1915.8082,-73.9675 1916.4477,-66.9967"/>
</g>
<!-- Node188&#45;&gt;Node1 -->
<g id="edge133" class="edge">
<title>Node188&#45;&gt;Node1</title>
<path fill="none" stroke="#191970" d="M3420.0765,-120.4585C3406.7248,-103.8371 3375.5745,-68.8618 3340,-55 3279.6185,-31.4721 2282.885,-13.5766 2076.3,-10.1101"/>
<polygon fill="#191970" stroke="#191970" points="2076.307,-6.6099 2066.25,-9.9425 2076.1902,-13.6089 2076.307,-6.6099"/>
</g>
<!-- Node188&#45;&gt;Node8 -->
<g id="edge134" class="edge">
<title>Node188&#45;&gt;Node8</title>
<path fill="none" stroke="#191970" d="M3380.453,-120.4912C3358.2941,-116.5739 3331.3706,-112.3498 3307,-110 3032.0399,-83.4883 2167.7343,-69.1484 1916.2706,-65.4637"/>
<polygon fill="#191970" stroke="#191970" points="1916.2201,-61.9627 1906.1702,-65.3166 1916.1181,-68.9619 1916.2201,-61.9627"/>
</g>
<!-- Node191&#45;&gt;Node1 -->
<g id="edge137" class="edge">
<title>Node191&#45;&gt;Node1</title>
<path fill="none" stroke="#191970" d="M2753.8964,-326.2864C2967.447,-316.0119 3586.8463,-280.6642 3646,-214 3654.5546,-204.3593 3654.5556,-194.6398 3646,-185 3601.2831,-134.6162 3405.4016,-178.8289 3345,-149 3323.301,-138.2841 3328.294,-121.4997 3307,-110 3194.2589,-49.1146 3151.2241,-70.2189 3024,-55 2835.4088,-32.4403 2233.6843,-14.8039 2076.7334,-10.5059"/>
<polygon fill="#191970" stroke="#191970" points="2076.7211,-7.0044 2066.6295,-10.2309 2076.5305,-14.0018 2076.7211,-7.0044"/>
</g>
<!-- Node191&#45;&gt;Node5 -->
<g id="edge139" class="edge">
<title>Node191&#45;&gt;Node5</title>
<path fill="none" stroke="#191970" d="M2753.6021,-326.362C3020.905,-314.2648 3951.2691,-268.5972 4072,-214 4110.9816,-196.3717 4125.7607,-188.1552 4143,-149 4162.068,-105.6915 4135.3447,-76.1219 4093,-55 4052.9191,-35.0074 3750.2293,-17.2946 3641.0847,-11.4955"/>
<polygon fill="#191970" stroke="#191970" points="3641.0122,-7.9869 3630.842,-10.9561 3640.6441,-14.9772 3641.0122,-7.9869"/>
</g>
<!-- Node191&#45;&gt;Node8 -->
<g id="edge136" class="edge">
<title>Node191&#45;&gt;Node8</title>
<path fill="none" stroke="#191970" d="M2610.2991,-325.408C2478.5326,-317.5188 2202.7838,-299.1905 2109,-279 2023.3923,-260.5698 1997.1563,-260.5746 1923,-214 1888.4026,-192.2708 1876.0432,-185.6549 1858,-149 1847.8222,-128.3237 1845.9578,-101.5221 1846.058,-83.7058"/>
<polygon fill="#191970" stroke="#191970" points="1849.5574,-83.7702 1846.3285,-73.6794 1842.56,-83.5813 1849.5574,-83.7702"/>
</g>
<!-- Node191&#45;&gt;Node43 -->
<g id="edge142" class="edge">
<title>Node191&#45;&gt;Node43</title>
<path fill="none" stroke="#191970" d="M2702.7656,-320.4204C2752.0517,-297.7129 2868.4507,-236.579 2820,-185 2776.1723,-138.3425 2308.5672,-156.5497 2245,-149 2226.5611,-146.81 2206.5387,-143.5639 2188.641,-140.3457"/>
<polygon fill="#191970" stroke="#191970" points="2189.1267,-136.8765 2178.6593,-138.5151 2187.8639,-143.7616 2189.1267,-136.8765"/>
</g>
<!-- Node191&#45;&gt;Node70 -->
<g id="edge140" class="edge">
<title>Node191&#45;&gt;Node70</title>
<path fill="none" stroke="#191970" d="M2610.2351,-328.2968C2342.2483,-323.6146 1408.7965,-305.5464 1278,-279 1242.5691,-271.809 1237.1117,-258.6158 1202,-250 1135.2894,-233.6304 940.655,-265.3215 895,-214 864.8378,-180.0942 929.2229,-154.7921 978.808,-141.0881"/>
<polygon fill="#191970" stroke="#191970" points="979.7359,-144.463 988.4952,-138.5028 977.9309,-137.6997 979.7359,-144.463"/>
</g>
<!-- Node191&#45;&gt;Node121 -->
<g id="edge141" class="edge">
<title>Node191&#45;&gt;Node121</title>
<path fill="none" stroke="#191970" d="M2610.0381,-327.8124C2357.8355,-321.7665 1514.6916,-300.4086 1245,-279 1231.5367,-277.9313 1217.2408,-276.4501 1203.436,-274.8402"/>
<polygon fill="#191970" stroke="#191970" points="1203.8348,-271.3631 1193.4896,-273.6493 1203.0025,-278.3134 1203.8348,-271.3631"/>
</g>
<!-- Node191&#45;&gt;Node74 -->
<g id="edge138" class="edge">
<title>Node191&#45;&gt;Node74</title>
<path fill="none" stroke="#191970" d="M2689.6952,-320.1507C2707.5095,-298.5071 2751.81,-244.6841 2774.741,-216.8241"/>
<polygon fill="#191970" stroke="#191970" points="2777.7219,-218.7099 2781.3746,-208.7646 2772.3172,-214.2613 2777.7219,-218.7099"/>
</g>
<!-- Node199&#45;&gt;Node1 -->
<g id="edge144" class="edge">
<title>Node199&#45;&gt;Node1</title>
<path fill="none" stroke="#191970" d="M4087.2049,-120.2562C4079.8105,-103.628 4061.7289,-69.0941 4034,-55 3988.6658,-31.9574 2347.3632,-12.8984 2076.6304,-9.9081"/>
<polygon fill="#191970" stroke="#191970" points="2076.5585,-6.4072 2066.5206,-9.7969 2076.4814,-13.4068 2076.5585,-6.4072"/>
</g>
<!-- Node199&#45;&gt;Node5 -->
<g id="edge146" class="edge">
<title>Node199&#45;&gt;Node5</title>
<path fill="none" stroke="#191970" d="M4091.7016,-120.4896C4092.3933,-104.5498 4091.2529,-71.5082 4072,-55 4039.5144,-27.1456 3747.3641,-14.4603 3640.7315,-10.7293"/>
<polygon fill="#191970" stroke="#191970" points="3640.8266,-7.2306 3630.7126,-10.3861 3640.5869,-14.2265 3640.8266,-7.2306"/>
</g>
<!-- Node199&#45;&gt;Node8 -->
<g id="edge145" class="edge">
<title>Node199&#45;&gt;Node8</title>
<path fill="none" stroke="#191970" d="M4047.429,-121.7195C4021.537,-117.4446 3987.9999,-112.5128 3958,-110 3548.042,-75.6619 2234.2094,-66.5601 1916.6036,-64.8383"/>
<polygon fill="#191970" stroke="#191970" points="1916.1884,-61.3361 1906.1698,-64.7824 1916.1509,-68.336 1916.1884,-61.3361"/>
</g>
<!-- Node220&#45;&gt;Node1 -->
<g id="edge148" class="edge">
<title>Node220&#45;&gt;Node1</title>
<path fill="none" stroke="#191970" d="M4008.5868,-185.499C4017.1265,-156.4417 4031.556,-89.4339 3996,-55 3960.1831,-20.3135 2344.6139,-10.9823 2076.5118,-9.6716"/>
<polygon fill="#191970" stroke="#191970" points="2076.5117,-6.1717 2066.4949,-9.6234 2076.4779,-13.1716 2076.5117,-6.1717"/>
</g>
<!-- Node220&#45;&gt;Node8 -->
<g id="edge149" class="edge">
<title>Node220&#45;&gt;Node8</title>
<path fill="none" stroke="#191970" d="M3996.5889,-185.3709C3984.7075,-164.4212 3959.2112,-125.8876 3925,-110 3878.4382,-88.3768 2271.7272,-69.2333 1916.1882,-65.2558"/>
<polygon fill="#191970" stroke="#191970" points="1916.0755,-61.7545 1906.0371,-65.1426 1915.9974,-68.754 1916.0755,-61.7545"/>
</g>
<!-- Node220&#45;&gt;Node199 -->
<g id="edge150" class="edge">
<title>Node220&#45;&gt;Node199</title>
<path fill="none" stroke="#191970" d="M4021.6057,-185.3345C4036.1327,-173.6461 4056.7175,-157.0837 4071.6929,-145.0344"/>
<polygon fill="#191970" stroke="#191970" points="4074.1767,-147.5283 4079.7738,-138.5325 4069.7886,-142.0744 4074.1767,-147.5283"/>
</g>
<!-- Node239&#45;&gt;Node1 -->
<g id="edge152" class="edge">
<title>Node239&#45;&gt;Node1</title>
<path fill="none" stroke="#191970" d="M3624.7693,-120.4376C3610.8433,-103.7815 3578.4365,-68.7505 3542,-55 3471.4095,-28.3605 2302.2895,-12.7257 2076.5565,-9.9478"/>
<polygon fill="#191970" stroke="#191970" points="2076.276,-6.4442 2066.2339,-9.8217 2076.1904,-13.4437 2076.276,-6.4442"/>
</g>
<!-- Node239&#45;&gt;Node8 -->
<g id="edge153" class="edge">
<title>Node239&#45;&gt;Node8</title>
<path fill="none" stroke="#191970" d="M3584.2835,-120.4569C3561.5693,-116.5321 3533.9734,-112.3116 3509,-110 3192.2392,-80.68 2188.867,-68.119 1916.0479,-65.1935"/>
<polygon fill="#191970" stroke="#191970" points="1915.9259,-61.6921 1905.8891,-65.0854 1915.8513,-68.6917 1915.9259,-61.6921"/>
</g>
<!-- Node257&#45;&gt;Node1 -->
<g id="edge155" class="edge">
<title>Node257&#45;&gt;Node1</title>
<path fill="none" stroke="#191970" d="M3828.3843,-115.2825C3812.7462,-97.3613 3783.0434,-67.4006 3750,-55 3669.0024,-24.603 2319.0893,-11.8541 2076.2625,-9.8018"/>
<polygon fill="#191970" stroke="#191970" points="2076.2036,-6.3013 2066.1746,-9.7173 2076.1449,-13.301 2076.2036,-6.3013"/>
</g>
<!-- Node257&#45;&gt;Node8 -->
<g id="edge156" class="edge">
<title>Node257&#45;&gt;Node8</title>
<path fill="none" stroke="#191970" d="M3764.4144,-115.8974C3748.7857,-113.5411 3732.3953,-111.4014 3717,-110 3357.2258,-77.2506 2210.3625,-67.0586 1916.2545,-64.9514"/>
<polygon fill="#191970" stroke="#191970" points="1916.1792,-61.4509 1906.1546,-64.8798 1916.1295,-68.4507 1916.1792,-61.4509"/>
</g>
</g>
</svg>
        <g id="navigator" transform="translate(0 0)" fill="#404254">
                <rect fill="#f2f5e9" fill-opacity="0.5" stroke="#606060" stroke-width=".5" x="0" y="0" width="60" height="60"/>
                <use id="zoomplus" xlink:href="#zoomPlus" x="17" y="9" onmousedown="handleZoom(evt,'in')"/>
                <use id="zoomminus" xlink:href="#zoomMin" x="42" y="9" onmousedown="handleZoom(evt,'out')"/>
                <use id="reset" xlink:href="#resetDef" x="30" y="36" onmousedown="handleReset()"/>
                <g id="arrowUp" xlink:href="#dirArrow" transform="translate(30 24)" onmousedown="handlePan(0,-1)">
                  <use xlink:href="#rim" fill="#404040">
                        <set attributeName="fill" to="#808080" begin="arrowUp.mouseover" end="arrowUp.mouseout"/>
                  </use>
                  <path fill="none" stroke="white" stroke-width="1.5" d="M0,-3.0v7 M-2.5,-0.5L0,-3.0L2.5,-0.5"/>
                </g>
                <g id="arrowRight" xlink:href="#dirArrow" transform="rotate(90) translate(36 -43)" onmousedown="handlePan(1,0)">
                  <use xlink:href="#rim" fill="#404040">
                        <set attributeName="fill" to="#808080" begin="arrowRight.mouseover" end="arrowRight.mouseout"/>
                  </use>
                  <path fill="none" stroke="white" stroke-width="1.5" d="M0,-3.0v7 M-2.5,-0.5L0,-3.0L2.5,-0.5"/>
                </g>
                <g id="arrowDown" xlink:href="#dirArrow" transform="rotate(180) translate(-30 -48)" onmousedown="handlePan(0,1)">
                  <use xlink:href="#rim" fill="#404040">
                        <set attributeName="fill" to="#808080" begin="arrowDown.mouseover" end="arrowDown.mouseout"/>
                  </use>
                  <path fill="none" stroke="white" stroke-width="1.5" d="M0,-3.0v7 M-2.5,-0.5L0,-3.0L2.5,-0.5"/>
                </g>
                <g id="arrowLeft" xlink:href="#dirArrow" transform="rotate(270) translate(-36 17)" onmousedown="handlePan(-1,0)">
                  <use xlink:href="#rim" fill="#404040">
                        <set attributeName="fill" to="#808080" begin="arrowLeft.mouseover" end="arrowLeft.mouseout"/>
                  </use>
                  <path fill="none" stroke="white" stroke-width="1.5" d="M0,-3.0v7 M-2.5,-0.5L0,-3.0L2.5,-0.5"/>
                </g>
        </g>
        <svg viewBox="0 0 15 15" width="100%" height="30px" preserveAspectRatio="xMaxYMin meet">
         <g id="arrow_out" transform="scale(0.3 0.3)">
          <a xlink:href="volDistanceTraversal_8cpp__incl_org.svg" target="_base">
           <rect id="button" ry="5" rx="5" y="6" x="6" height="38" width="38"
                fill="#f2f5e9" fill-opacity="0.5" stroke="#606060" stroke-width="1.0"/>
           <path id="arrow"
             d="M 11.500037,31.436501 C 11.940474,20.09759 22.043105,11.32322 32.158766,21.979434 L 37.068811,17.246167 C 37.068811,17.246167 37.088388,32 37.088388,32 L 22.160133,31.978069 C 22.160133,31.978069 26.997745,27.140456 26.997745,27.140456 C 18.528582,18.264221 13.291696,25.230495 11.500037,31.436501 z"
             style="fill:#404040;"/>
          </a>
         </g>
        </svg>
</svg>
