<?xml version="1.0" encoding="UTF-8" standalone="no"?>
<!DOCTYPE svg PUBLIC "-//W3C//DTD SVG 1.1//EN"
 "http://www.w3.org/Graphics/SVG/1.1/DTD/svg11.dtd">
<!-- Generated by graphviz version 2.40.1 (20161225.0304)
 -->
<!-- Title: DGtal::ChordNaivePlaneComputer&lt; TSpace, TInputPoint, TInternalScalar &gt; Pages: 1 -->
<!--zoomable 159 -->
<svg id="main" version="1.1" xmlns="http://www.w3.org/2000/svg" xmlns:xlink="http://www.w3.org/1999/xlink" xml:space="preserve" onload="init(evt)">
<style type="text/css"><![CDATA[
.edge:hover path { stroke: red; }
.edge:hover polygon { stroke: red; fill: red; }
]]></style>
<script type="text/javascript"><![CDATA[
var edges = document.getElementsByTagName('g');
if (edges && edges.length) {
  for (var i=0;i<edges.length;i++) {
    if (edges[i].id.substr(0,4)=='edge') {
      edges[i].setAttribute('class','edge');
    }
  }
}
]]></script>
        <defs>
                <circle id="rim" cx="0" cy="0" r="7"/>
                <circle id="rim2" cx="0" cy="0" r="3.5"/>
                <g id="zoomPlus">
                        <use xlink:href="#rim" fill="#404040">
                                <set attributeName="fill" to="#808080" begin="zoomplus.mouseover" end="zoomplus.mouseout"/>
                        </use>
                        <path d="M-4,0h8M0,-4v8" fill="none" stroke="white" stroke-width="1.5" pointer-events="none"/>
                </g>
                <g id="zoomMin">
                        <use xlink:href="#rim" fill="#404040">
                                <set attributeName="fill" to="#808080" begin="zoomminus.mouseover" end="zoomminus.mouseout"/>
                        </use>
                        <path d="M-4,0h8" fill="none" stroke="white" stroke-width="1.5" pointer-events="none"/>
                </g>
                <g id="dirArrow">
                        <path fill="none" stroke="white" stroke-width="1.5" d="M0,-3.0v7 M-2.5,-0.5L0,-3.0L2.5,-0.5"/>
                </g>
               <g id="resetDef">
                       <use xlink:href="#rim2" fill="#404040">
                               <set attributeName="fill" to="#808080" begin="reset.mouseover" end="reset.mouseout"/>
                       </use>
               </g>
        </defs>

<script type="text/javascript">
var viewWidth = 1081;
var viewHeight = 159;
var sectionId = 'dynsection-1';
</script>
<script xlink:href="svgpan.js"/>
<svg id="graph" class="graph">
<g id="viewport">
<title>DGtal::ChordNaivePlaneComputer&lt; TSpace, TInputPoint, TInternalScalar &gt;</title>
<polygon fill="#ffffff" stroke="transparent" points="-4,4 -4,-155 1076.6523,-155 1076.6523,4 -4,4"/>
<!-- Node2 -->
<g id="node1" class="node">
<title>Node2</title>
<g id="a_node1"><a xlink:title="Aim: A class that contains the chord&#45;based algorithm for recognizing pieces of digital planes of give...">
<polygon fill="#bfbfbf" stroke="#000000" points="875.417,-74.5 875.417,-102.5 1072.6523,-102.5 1072.6523,-74.5 875.417,-74.5"/>
<text text-anchor="start" x="883.417" y="-90.5" font-family="FreeSans" font-size="10.00" fill="#000000">DGtal::ChordNaivePlaneComputer</text>
<text text-anchor="middle" x="974.0347" y="-80.5" font-family="FreeSans" font-size="10.00" fill="#000000">&lt; TSpace, TInputPoint, TInternalScalar &gt;</text>
</a>
</g>
</g>
<!-- Node3 -->
<g id="node2" class="node">
<title>Node3</title>
<g id="a_node2"><a xlink:title=" ">
<polygon fill="#ffffff" stroke="#bfbfbf" points="635.9438,-125.5 635.9438,-143.5 746.4507,-143.5 746.4507,-125.5 635.9438,-125.5"/>
<text text-anchor="middle" x="691.1973" y="-131.5" font-family="FreeSans" font-size="10.00" fill="#000000">std::set&lt; InputPoint &gt;</text>
</a>
</g>
</g>
<!-- Node3&#45;&gt;Node2 -->
<g id="edge1" class="edge">
<title>Node3&#45;&gt;Node2</title>
<path fill="none" stroke="#9a32cd" stroke-dasharray="5,2" d="M756.8547,-126.2956C787.4773,-122.2436 824.3757,-117.0396 857.417,-111.5 873.2916,-108.8385 890.3188,-105.6637 906.3224,-102.5354"/>
<polygon fill="#9a32cd" stroke="#9a32cd" points="756.1847,-122.8534 746.7249,-127.6244 757.0952,-129.7939 756.1847,-122.8534"/>
<text text-anchor="middle" x="830.4614" y="-120.5" font-family="FreeSans" font-size="10.00" fill="#000000"> myPointSet</text>
</g>
<!-- Node4 -->
<g id="node3" class="node">
<title>Node4</title>
<g id="a_node3"><a xlink:title="STL class.">
<polygon fill="#ffffff" stroke="#bfbfbf" points="406.7417,-131.5 406.7417,-149.5 478.8843,-149.5 478.8843,-131.5 406.7417,-131.5"/>
<text text-anchor="middle" x="442.813" y="-137.5" font-family="FreeSans" font-size="10.00" fill="#000000">std::set&lt; K &gt;</text>
</a>
</g>
</g>
<!-- Node4&#45;&gt;Node3 -->
<g id="edge2" class="edge">
<title>Node4&#45;&gt;Node3</title>
<path fill="none" stroke="#ffa500" stroke-dasharray="5,2" d="M489.0449,-139.3832C530.571,-138.3801 591.6213,-136.9054 635.7569,-135.8392"/>
<polygon fill="#ffa500" stroke="#ffa500" points="488.8427,-135.887 478.9302,-139.6275 489.0118,-142.8849 488.8427,-135.887"/>
<text text-anchor="middle" x="546.3643" y="-140.5" font-family="FreeSans" font-size="10.00" fill="#000000"> &lt; InputPoint &gt;</text>
</g>
<!-- Node5 -->
<g id="node4" class="node">
<title>Node5</title>
<g id="a_node4"><a xlink:title=" ">
<polygon fill="#ffffff" stroke="#bfbfbf" points="186.7109,-132.5 186.7109,-150.5 215.7109,-150.5 215.7109,-132.5 186.7109,-132.5"/>
<text text-anchor="middle" x="201.2109" y="-138.5" font-family="FreeSans" font-size="10.00" fill="#000000">K</text>
</a>
</g>
</g>
<!-- Node5&#45;&gt;Node4 -->
<g id="edge3" class="edge">
<title>Node5&#45;&gt;Node4</title>
<path fill="none" stroke="#9a32cd" stroke-dasharray="5,2" d="M226.0812,-141.3971C268.9787,-141.2195 357.0451,-140.855 406.6988,-140.6495"/>
<polygon fill="#9a32cd" stroke="#9a32cd" points="225.9459,-137.8975 215.9605,-141.439 225.975,-144.8974 225.9459,-137.8975"/>
<text text-anchor="middle" x="325.3701" y="-142.5" font-family="FreeSans" font-size="10.00" fill="#000000"> keys</text>
</g>
<!-- Node6 -->
<g id="node5" class="node">
<title>Node6</title>
<g id="a_node5"><a xlink:href="structDGtal_1_1ChordNaivePlaneComputer_1_1State.html" target="_top" xlink:title=" ">
<polygon fill="#ffffff" stroke="#000000" points="596.8887,-67.5 596.8887,-105.5 785.5059,-105.5 785.5059,-67.5 596.8887,-67.5"/>
<text text-anchor="start" x="604.8887" y="-93.5" font-family="FreeSans" font-size="10.00" fill="#000000">DGtal::ChordNaivePlaneComputer</text>
<text text-anchor="start" x="604.8887" y="-83.5" font-family="FreeSans" font-size="10.00" fill="#000000">&lt; TSpace, TInputPoint, TInternalScalar</text>
<text text-anchor="middle" x="691.1973" y="-73.5" font-family="FreeSans" font-size="10.00" fill="#000000"> &gt;::State</text>
</a>
</g>
</g>
<!-- Node6&#45;&gt;Node2 -->
<g id="edge4" class="edge">
<title>Node6&#45;&gt;Node2</title>
<path fill="none" stroke="#9a32cd" stroke-dasharray="5,2" d="M795.9882,-87.241C821.9005,-87.4242 849.5749,-87.6199 875.1933,-87.8011"/>
<polygon fill="#9a32cd" stroke="#9a32cd" points="795.7958,-83.7396 785.7713,-87.1688 795.7462,-90.7395 795.7958,-83.7396"/>
<text text-anchor="middle" x="830.4614" y="-99.5" font-family="FreeSans" font-size="10.00" fill="#000000"> _state</text>
<text text-anchor="middle" x="830.4614" y="-89.5" font-family="FreeSans" font-size="10.00" fill="#000000">myState</text>
</g>
<!-- Node7 -->
<g id="node6" class="node">
<title>Node7</title>
<g id="a_node6"><a xlink:href="classDGtal_1_1PointVector.html" target="_top" xlink:title=" ">
<polygon fill="#ffffff" stroke="#000000" points="389.7861,-61.5 389.7861,-89.5 495.8398,-89.5 495.8398,-61.5 389.7861,-61.5"/>
<text text-anchor="start" x="397.7861" y="-77.5" font-family="FreeSans" font-size="10.00" fill="#000000">DGtal::PointVector</text>
<text text-anchor="middle" x="442.813" y="-67.5" font-family="FreeSans" font-size="10.00" fill="#000000">&lt; 3, InternalScalar &gt;</text>
</a>
</g>
</g>
<!-- Node7&#45;&gt;Node6 -->
<g id="edge5" class="edge">
<title>Node7&#45;&gt;Node6</title>
<path fill="none" stroke="#9a32cd" stroke-dasharray="5,2" d="M506.3158,-78.3123C533.6847,-79.5244 566.2677,-80.9673 596.401,-82.3018"/>
<polygon fill="#9a32cd" stroke="#9a32cd" points="506.2427,-74.8057 496.0976,-77.8598 505.933,-81.7989 506.2427,-74.8057"/>
<text text-anchor="middle" x="546.3643" y="-83.5" font-family="FreeSans" font-size="10.00" fill="#000000"> N</text>
</g>
<!-- Node8 -->
<g id="node7" class="node">
<title>Node8</title>
<g id="a_node7"><a xlink:title=" ">
<polygon fill="#ffffff" stroke="#bfbfbf" points="0,-52.5 0,-70.5 65.4678,-70.5 65.4678,-52.5 0,-52.5"/>
<text text-anchor="middle" x="32.7339" y="-58.5" font-family="FreeSans" font-size="10.00" fill="#000000">TContainer</text>
</a>
</g>
</g>
<!-- Node8&#45;&gt;Node7 -->
<g id="edge6" class="edge">
<title>Node8&#45;&gt;Node7</title>
<path fill="none" stroke="#9a32cd" stroke-dasharray="5,2" d="M75.9407,-68.3543C95.8378,-71.178 119.7936,-74.1104 141.4678,-75.5 228.2664,-81.0649 329.4174,-79.4019 389.6732,-77.552"/>
<polygon fill="#9a32cd" stroke="#9a32cd" points="76.3397,-64.8756 65.9394,-66.8964 75.3299,-71.8024 76.3397,-64.8756"/>
<text text-anchor="middle" x="201.2109" y="-81.5" font-family="FreeSans" font-size="10.00" fill="#000000"> myArray</text>
</g>
<!-- Node9 -->
<g id="node8" class="node">
<title>Node9</title>
<g id="a_node8"><a xlink:href="classDGtal_1_1PointVector.html" target="_top" xlink:title="Aim: Implements basic operations that will be used in Point and Vector classes.">
<polygon fill="#ffffff" stroke="#000000" points="141.4678,-.5 141.4678,-38.5 260.9541,-38.5 260.9541,-.5 141.4678,-.5"/>
<text text-anchor="start" x="149.4678" y="-26.5" font-family="FreeSans" font-size="10.00" fill="#000000">DGtal::PointVector</text>
<text text-anchor="start" x="149.4678" y="-16.5" font-family="FreeSans" font-size="10.00" fill="#000000">&lt; dim, TEuclideanRing,</text>
<text text-anchor="middle" x="201.2109" y="-6.5" font-family="FreeSans" font-size="10.00" fill="#000000"> TContainer &gt;</text>
</a>
</g>
</g>
<!-- Node8&#45;&gt;Node9 -->
<g id="edge8" class="edge">
<title>Node8&#45;&gt;Node9</title>
<path fill="none" stroke="#9a32cd" stroke-dasharray="5,2" d="M75.3376,-50.8792C95.2787,-45.9081 119.3781,-39.9003 141.1301,-34.4777"/>
<polygon fill="#9a32cd" stroke="#9a32cd" points="74.4743,-47.4872 65.6179,-53.3023 76.1676,-54.2794 74.4743,-47.4872"/>
<text text-anchor="middle" x="103.4678" y="-50.5" font-family="FreeSans" font-size="10.00" fill="#000000"> myArray</text>
</g>
<!-- Node9&#45;&gt;Node7 -->
<g id="edge7" class="edge">
<title>Node9&#45;&gt;Node7</title>
<path fill="none" stroke="#9a32cd" stroke-dasharray="5,2" d="M270.8912,-38.5149C273.6111,-39.1959 276.3063,-39.8601 278.9541,-40.5 315.7121,-49.3836 357.3927,-58.2703 389.5173,-64.8662"/>
<polygon fill="#9a32cd" stroke="#9a32cd" points="271.5293,-35.0657 260.9747,-35.9886 269.8011,-41.8491 271.5293,-35.0657"/>
<text text-anchor="middle" x="325.3701" y="-62.5" font-family="FreeSans" font-size="10.00" fill="#000000"> zero</text>
</g>
<!-- Node9&#45;&gt;Node7 -->
<g id="edge10" class="edge">
<title>Node9&#45;&gt;Node7</title>
<path fill="none" stroke="#ffa500" stroke-dasharray="5,2" d="M271.1082,-13.685C302.6083,-13.2471 339.8252,-15.8212 371.7861,-26.5 393.3833,-33.716 414.3735,-49.6374 427.8638,-61.3827"/>
<polygon fill="#ffa500" stroke="#ffa500" points="271.0083,-10.1863 261.0957,-13.9266 271.1772,-17.1843 271.0083,-10.1863"/>
<text text-anchor="middle" x="325.3701" y="-28.5" font-family="FreeSans" font-size="10.00" fill="#000000"> &lt; 3, InternalScalar &gt;</text>
</g>
<!-- Node9&#45;&gt;Node9 -->
<g id="edge9" class="edge">
<title>Node9&#45;&gt;Node9</title>
<path fill="none" stroke="#9a32cd" stroke-dasharray="5,2" d="M184.4997,-48.7834C186.8515,-53.6472 192.4219,-57 201.2109,-57 215.2734,-57 221.0962,-48.4169 218.6792,-38.7945"/>
<polygon fill="#9a32cd" stroke="#9a32cd" points="187.9885,-48.5014 183.7427,-38.7945 181.0085,-49.0304 187.9885,-48.5014"/>
<text text-anchor="middle" x="201.2109" y="-59" font-family="FreeSans" font-size="10.00" fill="#000000"> zero</text>
</g>
<!-- Node10 -->
<g id="node9" class="node">
<title>Node10</title>
<g id="a_node9"><a xlink:title=" ">
<polygon fill="#ffffff" stroke="#bfbfbf" points="649.2935,-26.5 649.2935,-44.5 733.1011,-44.5 733.1011,-26.5 649.2935,-26.5"/>
<text text-anchor="middle" x="691.1973" y="-32.5" font-family="FreeSans" font-size="10.00" fill="#000000">TInternalScalar</text>
</a>
</g>
</g>
<!-- Node10&#45;&gt;Node2 -->
<g id="edge11" class="edge">
<title>Node10&#45;&gt;Node2</title>
<path fill="none" stroke="#9a32cd" stroke-dasharray="5,2" d="M743.5214,-38.1952C776.4543,-40.5447 819.7114,-44.8304 857.417,-52.5 883.8907,-57.885 912.9212,-66.8358 935.3949,-74.4649"/>
<polygon fill="#9a32cd" stroke="#9a32cd" points="743.4251,-34.6808 733.2119,-37.4986 742.9531,-41.6649 743.4251,-34.6808"/>
<text text-anchor="middle" x="830.4614" y="-74.5" font-family="FreeSans" font-size="10.00" fill="#000000"> myWidth0</text>
<text text-anchor="middle" x="830.4614" y="-64.5" font-family="FreeSans" font-size="10.00" fill="#000000">myWidth1</text>
<text text-anchor="middle" x="830.4614" y="-54.5" font-family="FreeSans" font-size="10.00" fill="#000000">_d</text>
</g>
</g>
</svg>
        <g id="navigator" transform="translate(0 0)" fill="#404254">
                <rect fill="#f2f5e9" fill-opacity="0.5" stroke="#606060" stroke-width=".5" x="0" y="0" width="60" height="60"/>
                <use id="zoomplus" xlink:href="#zoomPlus" x="17" y="9" onmousedown="handleZoom(evt,'in')"/>
                <use id="zoomminus" xlink:href="#zoomMin" x="42" y="9" onmousedown="handleZoom(evt,'out')"/>
                <use id="reset" xlink:href="#resetDef" x="30" y="36" onmousedown="handleReset()"/>
                <g id="arrowUp" xlink:href="#dirArrow" transform="translate(30 24)" onmousedown="handlePan(0,-1)">
                  <use xlink:href="#rim" fill="#404040">
                        <set attributeName="fill" to="#808080" begin="arrowUp.mouseover" end="arrowUp.mouseout"/>
                  </use>
                  <path fill="none" stroke="white" stroke-width="1.5" d="M0,-3.0v7 M-2.5,-0.5L0,-3.0L2.5,-0.5"/>
                </g>
                <g id="arrowRight" xlink:href="#dirArrow" transform="rotate(90) translate(36 -43)" onmousedown="handlePan(1,0)">
                  <use xlink:href="#rim" fill="#404040">
                        <set attributeName="fill" to="#808080" begin="arrowRight.mouseover" end="arrowRight.mouseout"/>
                  </use>
                  <path fill="none" stroke="white" stroke-width="1.5" d="M0,-3.0v7 M-2.5,-0.5L0,-3.0L2.5,-0.5"/>
                </g>
                <g id="arrowDown" xlink:href="#dirArrow" transform="rotate(180) translate(-30 -48)" onmousedown="handlePan(0,1)">
                  <use xlink:href="#rim" fill="#404040">
                        <set attributeName="fill" to="#808080" begin="arrowDown.mouseover" end="arrowDown.mouseout"/>
                  </use>
                  <path fill="none" stroke="white" stroke-width="1.5" d="M0,-3.0v7 M-2.5,-0.5L0,-3.0L2.5,-0.5"/>
                </g>
                <g id="arrowLeft" xlink:href="#dirArrow" transform="rotate(270) translate(-36 17)" onmousedown="handlePan(-1,0)">
                  <use xlink:href="#rim" fill="#404040">
                        <set attributeName="fill" to="#808080" begin="arrowLeft.mouseover" end="arrowLeft.mouseout"/>
                  </use>
                  <path fill="none" stroke="white" stroke-width="1.5" d="M0,-3.0v7 M-2.5,-0.5L0,-3.0L2.5,-0.5"/>
                </g>
        </g>
        <svg viewBox="0 0 15 15" width="100%" height="30px" preserveAspectRatio="xMaxYMin meet">
         <g id="arrow_out" transform="scale(0.3 0.3)">
          <a xlink:href="classDGtal_1_1ChordNaivePlaneComputer__coll__graph_org.svg" target="_base">
           <rect id="button" ry="5" rx="5" y="6" x="6" height="38" width="38"
                fill="#f2f5e9" fill-opacity="0.5" stroke="#606060" stroke-width="1.0"/>
           <path id="arrow"
             d="M 11.500037,31.436501 C 11.940474,20.09759 22.043105,11.32322 32.158766,21.979434 L 37.068811,17.246167 C 37.068811,17.246167 37.088388,32 37.088388,32 L 22.160133,31.978069 C 22.160133,31.978069 26.997745,27.140456 26.997745,27.140456 C 18.528582,18.264221 13.291696,25.230495 11.500037,31.436501 z"
             style="fill:#404040;"/>
          </a>
         </g>
        </svg>
</svg>
