<?xml version="1.0" encoding="UTF-8" standalone="no"?>
<!DOCTYPE svg PUBLIC "-//W3C//DTD SVG 1.1//EN"
 "http://www.w3.org/Graphics/SVG/1.1/DTD/svg11.dtd">
<!-- Generated by graphviz version 2.40.1 (20161225.0304)
 -->
<!-- Title: DGtal::LightImplicitDigitalSurface&lt; TKSpace, TPointPredicate &gt;::Tracker Pages: 1 -->
<svg width="2256pt" height="196pt"
 viewBox="0.00 0.00 2256.44 196.00" xmlns="http://www.w3.org/2000/svg" xmlns:xlink="http://www.w3.org/1999/xlink">
<g id="graph0" class="graph" transform="scale(1 1) rotate(0) translate(4 192)">
<title>DGtal::LightImplicitDigitalSurface&lt; TKSpace, TPointPredicate &gt;::Tracker</title>
<polygon fill="#ffffff" stroke="transparent" points="-4,4 -4,-192 2252.4434,-192 2252.4434,4 -4,4"/>
<!-- Node1 -->
<g id="node1" class="node">
<title>Node1</title>
<g id="a_node1"><a xlink:title=" ">
<polygon fill="#bfbfbf" stroke="#000000" points="1800.1211,-70 1800.1211,-108 1976.6875,-108 1976.6875,-70 1800.1211,-70"/>
<text text-anchor="start" x="1808.1211" y="-96" font-family="FreeSans" font-size="10.00" fill="#000000">DGtal::LightImplicitDigital</text>
<text text-anchor="start" x="1808.1211" y="-86" font-family="FreeSans" font-size="10.00" fill="#000000">Surface&lt; TKSpace, TPointPredicate</text>
<text text-anchor="middle" x="1888.4043" y="-76" font-family="FreeSans" font-size="10.00" fill="#000000"> &gt;::Tracker</text>
</a>
</g>
</g>
<!-- Node12 -->
<g id="node12" class="node">
<title>Node12</title>
<g id="a_node12"><a xlink:href="classDGtal_1_1LightImplicitDigitalSurface.html" target="_top" xlink:title="Aim: A model of CDigitalSurfaceContainer which defines the digital surface as the boundary of an impl...">
<polygon fill="#ffffff" stroke="#000000" points="2063.2588,-74 2063.2588,-102 2248.4434,-102 2248.4434,-74 2063.2588,-74"/>
<text text-anchor="start" x="2071.2588" y="-90" font-family="FreeSans" font-size="10.00" fill="#000000">DGtal::LightImplicitDigital</text>
<text text-anchor="middle" x="2155.8511" y="-80" font-family="FreeSans" font-size="10.00" fill="#000000">Surface&lt; TKSpace, TPointPredicate &gt;</text>
</a>
</g>
</g>
<!-- Node1&#45;&gt;Node12 -->
<g id="edge19" class="edge">
<title>Node1&#45;&gt;Node12</title>
<path fill="none" stroke="#9a32cd" stroke-dasharray="5,2" d="M1986.9229,-75.5681C1989.5363,-75.3582 1992.1281,-75.1678 1994.6875,-75 2016.8158,-73.5489 2040.6344,-74.2313 2062.9928,-75.8688"/>
<polygon fill="#9a32cd" stroke="#9a32cd" points="1986.4111,-72.0997 1976.7592,-76.4688 1987.0291,-79.0723 1986.4111,-72.0997"/>
<text text-anchor="middle" x="2019.9731" y="-77" font-family="FreeSans" font-size="10.00" fill="#000000"> myTracker</text>
</g>
<!-- Node2 -->
<g id="node2" class="node">
<title>Node2</title>
<g id="a_node2"><a xlink:href="classDGtal_1_1SurfelNeighborhood.html" target="_top" xlink:title=" ">
<polygon fill="#ffffff" stroke="#000000" points="1549.1172,-75 1549.1172,-103 1685.1855,-103 1685.1855,-75 1549.1172,-75"/>
<text text-anchor="start" x="1557.1172" y="-91" font-family="FreeSans" font-size="10.00" fill="#000000">DGtal::SurfelNeighborhood</text>
<text text-anchor="middle" x="1617.1514" y="-81" font-family="FreeSans" font-size="10.00" fill="#000000">&lt; KSpace &gt;</text>
</a>
</g>
</g>
<!-- Node2&#45;&gt;Node1 -->
<g id="edge1" class="edge">
<title>Node2&#45;&gt;Node1</title>
<path fill="none" stroke="#9a32cd" stroke-dasharray="5,2" d="M1695.6485,-89C1728.3,-89 1766.357,-89 1799.9888,-89"/>
<polygon fill="#9a32cd" stroke="#9a32cd" points="1695.2498,-85.5001 1685.2498,-89 1695.2498,-92.5001 1695.2498,-85.5001"/>
<text text-anchor="middle" x="1742.6533" y="-91" font-family="FreeSans" font-size="10.00" fill="#000000"> myNeighborhood</text>
</g>
<!-- Node3 -->
<g id="node3" class="node">
<title>Node3</title>
<g id="a_node3"><a xlink:href="structDGtal_1_1SignedKhalimskyCell.html" target="_top" xlink:title="Represents a signed cell in a cellular grid space by its Khalimsky coordinates and a boolean value.">
<polygon fill="#ffffff" stroke="#000000" points="1088.2764,-126 1088.2764,-154 1229.3252,-154 1229.3252,-126 1088.2764,-126"/>
<text text-anchor="start" x="1096.2764" y="-142" font-family="FreeSans" font-size="10.00" fill="#000000">DGtal::SignedKhalimskyCell</text>
<text text-anchor="middle" x="1158.8008" y="-132" font-family="FreeSans" font-size="10.00" fill="#000000">&lt; dim, TInteger &gt;</text>
</a>
</g>
</g>
<!-- Node3&#45;&gt;Node2 -->
<g id="edge2" class="edge">
<title>Node3&#45;&gt;Node2</title>
<path fill="none" stroke="#9a32cd" stroke-dasharray="5,2" d="M1239.5547,-133.7289C1299.8418,-128.8009 1384.2087,-121.3845 1458.0781,-113 1490.6337,-109.3048 1498.7141,-107.8538 1531.1172,-103 1536.9539,-102.1257 1543.009,-101.1928 1549.0805,-100.2396"/>
<polygon fill="#9a32cd" stroke="#9a32cd" points="1239.0238,-130.2604 1229.3401,-134.5589 1239.5908,-137.2374 1239.0238,-130.2604"/>
<text text-anchor="middle" x="1390.0439" y="-128" font-family="FreeSans" font-size="10.00" fill="#000000"> mySurfel</text>
</g>
<!-- Node11 -->
<g id="node11" class="node">
<title>Node11</title>
<g id="a_node11"><a xlink:href="classDGtal_1_1SurfelNeighborhood.html" target="_top" xlink:title="Aim: This helper class is useful to compute the neighboring surfels of a given surfel,...">
<polygon fill="#ffffff" stroke="#000000" points="1322.0098,-75 1322.0098,-103 1458.0781,-103 1458.0781,-75 1322.0098,-75"/>
<text text-anchor="start" x="1330.0098" y="-91" font-family="FreeSans" font-size="10.00" fill="#000000">DGtal::SurfelNeighborhood</text>
<text text-anchor="middle" x="1390.0439" y="-81" font-family="FreeSans" font-size="10.00" fill="#000000">&lt; TKSpace &gt;</text>
</a>
</g>
</g>
<!-- Node3&#45;&gt;Node11 -->
<g id="edge15" class="edge">
<title>Node3&#45;&gt;Node11</title>
<path fill="none" stroke="#9a32cd" stroke-dasharray="5,2" d="M1217.5668,-123.3817C1227.4677,-120.7792 1237.6645,-118.2198 1247.3252,-116 1271.5331,-110.4375 1298.2411,-105.1583 1321.9413,-100.7679"/>
<polygon fill="#9a32cd" stroke="#9a32cd" points="1216.5558,-120.0289 1207.7954,-125.9876 1218.3596,-126.7926 1216.5558,-120.0289"/>
<text text-anchor="middle" x="1275.6675" y="-118" font-family="FreeSans" font-size="10.00" fill="#000000"> mySurfel</text>
</g>
<!-- Node3&#45;&gt;Node12 -->
<g id="edge18" class="edge">
<title>Node3&#45;&gt;Node12</title>
<path fill="none" stroke="#9a32cd" stroke-dasharray="5,2" d="M1222.9166,-156.2892C1269.0734,-166.6008 1332.999,-178 1390.0439,-178 1390.0439,-178 1390.0439,-178 1888.4043,-178 1982.4656,-178 2085.8738,-127.375 2131.699,-102.0625"/>
<polygon fill="#9a32cd" stroke="#9a32cd" points="1223.5807,-152.8509 1213.053,-154.0418 1222.0256,-159.676 1223.5807,-152.8509"/>
<text text-anchor="middle" x="1617.1514" y="-180" font-family="FreeSans" font-size="10.00" fill="#000000"> mySurfel</text>
</g>
<!-- Node4 -->
<g id="node4" class="node">
<title>Node4</title>
<g id="a_node4"><a xlink:href="structDGtal_1_1SignedKhalimskyPreCell.html" target="_top" xlink:title=" ">
<polygon fill="#ffffff" stroke="#000000" points="806.7158,-126 806.7158,-154 946.0996,-154 946.0996,-126 806.7158,-126"/>
<text text-anchor="start" x="814.7158" y="-142" font-family="FreeSans" font-size="10.00" fill="#000000">DGtal::SignedKhalimskyPre</text>
<text text-anchor="middle" x="876.4077" y="-132" font-family="FreeSans" font-size="10.00" fill="#000000">Cell&lt; dim, Integer &gt;</text>
</a>
</g>
</g>
<!-- Node4&#45;&gt;Node3 -->
<g id="edge3" class="edge">
<title>Node4&#45;&gt;Node3</title>
<path fill="none" stroke="#9a32cd" stroke-dasharray="5,2" d="M956.2654,-140C997.6683,-140 1047.8056,-140 1087.8373,-140"/>
<polygon fill="#9a32cd" stroke="#9a32cd" points="956.2128,-136.5001 946.2128,-140 956.2127,-143.5001 956.2128,-136.5001"/>
<text text-anchor="middle" x="1017.188" y="-142" font-family="FreeSans" font-size="10.00" fill="#000000"> mySPreCell</text>
</g>
<!-- Node5 -->
<g id="node5" class="node">
<title>Node5</title>
<g id="a_node5"><a xlink:href="classDGtal_1_1PointVector.html" target="_top" xlink:title=" ">
<polygon fill="#ffffff" stroke="#000000" points="369.7715,-119 369.7715,-147 468.0371,-147 468.0371,-119 369.7715,-119"/>
<text text-anchor="start" x="377.7715" y="-135" font-family="FreeSans" font-size="10.00" fill="#000000">DGtal::PointVector</text>
<text text-anchor="middle" x="418.9043" y="-125" font-family="FreeSans" font-size="10.00" fill="#000000">&lt; dim, Integer &gt;</text>
</a>
</g>
</g>
<!-- Node5&#45;&gt;Node4 -->
<g id="edge4" class="edge">
<title>Node5&#45;&gt;Node4</title>
<path fill="none" stroke="#9a32cd" stroke-dasharray="5,2" d="M478.3994,-137.625C480.9794,-137.7644 483.534,-137.8906 486.0371,-138 620.4392,-143.8766 654.1875,-141.767 788.7158,-141 794.5013,-140.967 800.5014,-140.9218 806.525,-140.8687"/>
<polygon fill="#9a32cd" stroke="#9a32cd" points="478.5679,-134.129 468.378,-137.0299 478.1529,-141.1167 478.5679,-134.129"/>
<text text-anchor="middle" x="628.2065" y="-144" font-family="FreeSans" font-size="10.00" fill="#000000"> coordinates</text>
</g>
<!-- Node8 -->
<g id="node8" class="node">
<title>Node8</title>
<g id="a_node8"><a xlink:href="structDGtal_1_1SignedKhalimskyPreCell.html" target="_top" xlink:title="Represents a signed cell in an unbounded cellular grid space by its Khalimsky coordinates and a boole...">
<polygon fill="#ffffff" stroke="#000000" points="558.5146,-94 558.5146,-122 697.8984,-122 697.8984,-94 558.5146,-94"/>
<text text-anchor="start" x="566.5146" y="-110" font-family="FreeSans" font-size="10.00" fill="#000000">DGtal::SignedKhalimskyPre</text>
<text text-anchor="middle" x="628.2065" y="-100" font-family="FreeSans" font-size="10.00" fill="#000000">Cell&lt; dim, TInteger &gt;</text>
</a>
</g>
</g>
<!-- Node5&#45;&gt;Node8 -->
<g id="edge11" class="edge">
<title>Node5&#45;&gt;Node8</title>
<path fill="none" stroke="#9a32cd" stroke-dasharray="5,2" d="M478.2679,-125.9093C503.1571,-122.9365 532.2807,-119.4578 558.2061,-116.3612"/>
<polygon fill="#9a32cd" stroke="#9a32cd" points="477.7553,-122.4456 468.241,-127.107 478.5855,-129.3962 477.7553,-122.4456"/>
<text text-anchor="middle" x="513.2759" y="-126" font-family="FreeSans" font-size="10.00" fill="#000000"> coordinates</text>
</g>
<!-- Node6 -->
<g id="node6" class="node">
<title>Node6</title>
<g id="a_node6"><a xlink:title=" ">
<polygon fill="#ffffff" stroke="#bfbfbf" points="0,-133 0,-151 65.4678,-151 65.4678,-133 0,-133"/>
<text text-anchor="middle" x="32.7339" y="-139" font-family="FreeSans" font-size="10.00" fill="#000000">TContainer</text>
</a>
</g>
</g>
<!-- Node6&#45;&gt;Node5 -->
<g id="edge5" class="edge">
<title>Node6&#45;&gt;Node5</title>
<path fill="none" stroke="#9a32cd" stroke-dasharray="5,2" d="M75.9227,-149.3435C95.816,-152.3688 119.7739,-155.5107 141.4678,-157 194.4481,-160.6371 207.9999,-161.0001 260.9541,-157 297.6008,-154.2317 338.6252,-147.8998 369.6786,-142.4347"/>
<polygon fill="#9a32cd" stroke="#9a32cd" points="76.3441,-145.867 65.9237,-147.7815 75.2636,-152.7831 76.3441,-145.867"/>
<text text-anchor="middle" x="201.2109" y="-161" font-family="FreeSans" font-size="10.00" fill="#000000"> myArray</text>
</g>
<!-- Node7 -->
<g id="node7" class="node">
<title>Node7</title>
<g id="a_node7"><a xlink:href="classDGtal_1_1PointVector.html" target="_top" xlink:title="Aim: Implements basic operations that will be used in Point and Vector classes.">
<polygon fill="#ffffff" stroke="#000000" points="141.4678,-81 141.4678,-119 260.9541,-119 260.9541,-81 141.4678,-81"/>
<text text-anchor="start" x="149.4678" y="-107" font-family="FreeSans" font-size="10.00" fill="#000000">DGtal::PointVector</text>
<text text-anchor="start" x="149.4678" y="-97" font-family="FreeSans" font-size="10.00" fill="#000000">&lt; dim, TEuclideanRing,</text>
<text text-anchor="middle" x="201.2109" y="-87" font-family="FreeSans" font-size="10.00" fill="#000000"> TContainer &gt;</text>
</a>
</g>
</g>
<!-- Node6&#45;&gt;Node7 -->
<g id="edge7" class="edge">
<title>Node6&#45;&gt;Node7</title>
<path fill="none" stroke="#9a32cd" stroke-dasharray="5,2" d="M75.3376,-131.3792C95.2787,-126.4081 119.3781,-120.4003 141.1301,-114.9777"/>
<polygon fill="#9a32cd" stroke="#9a32cd" points="74.4743,-127.9872 65.6179,-133.8023 76.1676,-134.7794 74.4743,-127.9872"/>
<text text-anchor="middle" x="103.4678" y="-130" font-family="FreeSans" font-size="10.00" fill="#000000"> myArray</text>
</g>
<!-- Node7&#45;&gt;Node5 -->
<g id="edge6" class="edge">
<title>Node7&#45;&gt;Node5</title>
<path fill="none" stroke="#9a32cd" stroke-dasharray="5,2" d="M271.1938,-110.6087C303.2505,-115.4681 340.4844,-121.1124 369.5494,-125.5183"/>
<polygon fill="#9a32cd" stroke="#9a32cd" points="271.3962,-107.0994 260.9845,-109.061 270.347,-114.0204 271.3962,-107.0994"/>
<text text-anchor="middle" x="315.3628" y="-124" font-family="FreeSans" font-size="10.00" fill="#000000"> zero</text>
</g>
<!-- Node7&#45;&gt;Node5 -->
<g id="edge9" class="edge">
<title>Node7&#45;&gt;Node5</title>
<path fill="none" stroke="#ffa500" stroke-dasharray="5,2" d="M271.2803,-93.4354C296.8981,-92.7474 325.9237,-93.9905 351.7715,-100 367.71,-103.7056 384.2219,-111.7577 396.8816,-118.9801"/>
<polygon fill="#ffa500" stroke="#ffa500" points="271.1381,-89.9382 261.2741,-93.8049 271.3965,-96.9334 271.1381,-89.9382"/>
<text text-anchor="middle" x="315.3628" y="-102" font-family="FreeSans" font-size="10.00" fill="#000000"> &lt; dim, Integer &gt;</text>
</g>
<!-- Node7&#45;&gt;Node7 -->
<g id="edge8" class="edge">
<title>Node7&#45;&gt;Node7</title>
<path fill="none" stroke="#9a32cd" stroke-dasharray="5,2" d="M184.4997,-129.2834C186.8515,-134.1472 192.4219,-137.5 201.2109,-137.5 215.2734,-137.5 221.0962,-128.9169 218.6792,-119.2945"/>
<polygon fill="#9a32cd" stroke="#9a32cd" points="187.9885,-129.0014 183.7427,-119.2945 181.0085,-129.5304 187.9885,-129.0014"/>
<text text-anchor="middle" x="201.2109" y="-139.5" font-family="FreeSans" font-size="10.00" fill="#000000"> zero</text>
</g>
<!-- Node8&#45;&gt;Node4 -->
<g id="edge10" class="edge">
<title>Node8&#45;&gt;Node4</title>
<path fill="none" stroke="#ffa500" stroke-dasharray="5,2" d="M708.1414,-118.3058C739.8805,-122.3979 776.0518,-127.0614 806.7036,-131.0132"/>
<polygon fill="#ffa500" stroke="#ffa500" points="708.3704,-114.8065 698.0049,-116.9989 707.4753,-121.749 708.3704,-114.8065"/>
<text text-anchor="middle" x="752.3071" y="-129" font-family="FreeSans" font-size="10.00" fill="#000000"> &lt; dim, Integer &gt;</text>
</g>
<!-- Node9 -->
<g id="node9" class="node">
<title>Node9</title>
<g id="a_node9"><a xlink:href="classDGtal_1_1SurfelAdjacency.html" target="_top" xlink:title=" ">
<polygon fill="#ffffff" stroke="#000000" points="1099.1016,-32 1099.1016,-60 1218.5,-60 1218.5,-32 1099.1016,-32"/>
<text text-anchor="start" x="1107.1016" y="-48" font-family="FreeSans" font-size="10.00" fill="#000000">DGtal::SurfelAdjacency</text>
<text text-anchor="middle" x="1158.8008" y="-38" font-family="FreeSans" font-size="10.00" fill="#000000">&lt; KSpace::dimension &gt;</text>
</a>
</g>
</g>
<!-- Node9&#45;&gt;Node2 -->
<g id="edge12" class="edge">
<title>Node9&#45;&gt;Node2</title>
<path fill="none" stroke="#9a32cd" stroke-dasharray="5,2" d="M1228.9122,-44.5475C1289.734,-44.1358 1380.0247,-45.5633 1458.0781,-55 1493.5443,-59.2879 1532.8016,-67.6401 1563.4434,-74.9929"/>
<polygon fill="#9a32cd" stroke="#9a32cd" points="1228.6295,-41.0497 1218.6602,-44.6362 1228.6902,-48.0495 1228.6295,-41.0497"/>
<text text-anchor="middle" x="1390.0439" y="-57" font-family="FreeSans" font-size="10.00" fill="#000000"> mySurfelAdj</text>
</g>
<!-- Node9&#45;&gt;Node11 -->
<g id="edge16" class="edge">
<title>Node9&#45;&gt;Node11</title>
<path fill="none" stroke="#9a32cd" stroke-dasharray="5,2" d="M1228.4868,-58.9582C1258.0687,-64.459 1292.4413,-70.8506 1321.858,-76.3207"/>
<polygon fill="#9a32cd" stroke="#9a32cd" points="1229.1237,-55.5167 1218.6524,-57.1295 1227.844,-62.3988 1229.1237,-55.5167"/>
<text text-anchor="middle" x="1275.6675" y="-75" font-family="FreeSans" font-size="10.00" fill="#000000"> mySurfelAdj</text>
</g>
<!-- Node9&#45;&gt;Node12 -->
<g id="edge20" class="edge">
<title>Node9&#45;&gt;Node12</title>
<path fill="none" stroke="#9a32cd" stroke-dasharray="5,2" d="M1212.4687,-29.1131C1258.9564,-15.9884 1328.2655,0 1390.0439,0 1390.0439,0 1390.0439,0 1888.4043,0 1981.7663,0 2084.6905,-48.9857 2130.9378,-73.8613"/>
<polygon fill="#9a32cd" stroke="#9a32cd" points="1211.2582,-25.8194 1202.6162,-31.9485 1213.1942,-32.5464 1211.2582,-25.8194"/>
<text text-anchor="middle" x="1617.1514" y="-2" font-family="FreeSans" font-size="10.00" fill="#000000"> mySurfelAdjacency</text>
</g>
<!-- Node10 -->
<g id="node10" class="node">
<title>Node10</title>
<g id="a_node10"><a xlink:href="classDGtal_1_1SurfelAdjacency.html" target="_top" xlink:title="Aim: Represent adjacencies between surfel elements, telling if it follows an interior to exterior ord...">
<polygon fill="#ffffff" stroke="#000000" points="816.7183,-32 816.7183,-60 936.0972,-60 936.0972,-32 816.7183,-32"/>
<text text-anchor="start" x="824.7183" y="-48" font-family="FreeSans" font-size="10.00" fill="#000000">DGtal::SurfelAdjacency</text>
<text text-anchor="middle" x="876.4077" y="-38" font-family="FreeSans" font-size="10.00" fill="#000000">&lt; dim &gt;</text>
</a>
</g>
</g>
<!-- Node10&#45;&gt;Node9 -->
<g id="edge13" class="edge">
<title>Node10&#45;&gt;Node9</title>
<path fill="none" stroke="#ffa500" stroke-dasharray="5,2" d="M946.3776,-46C993.2741,-46 1054.373,-46 1098.9988,-46"/>
<polygon fill="#ffa500" stroke="#ffa500" points="946.2961,-42.5001 936.296,-46 946.296,-49.5001 946.2961,-42.5001"/>
<text text-anchor="middle" x="1017.188" y="-48" font-family="FreeSans" font-size="10.00" fill="#000000"> &lt; KSpace::dimension &gt;</text>
</g>
<!-- Node11&#45;&gt;Node2 -->
<g id="edge14" class="edge">
<title>Node11&#45;&gt;Node2</title>
<path fill="none" stroke="#ffa500" stroke-dasharray="5,2" d="M1468.4656,-89C1494.6905,-89 1523.6885,-89 1549.0597,-89"/>
<polygon fill="#ffa500" stroke="#ffa500" points="1468.1837,-85.5001 1458.1837,-89 1468.1836,-92.5001 1468.1837,-85.5001"/>
<text text-anchor="middle" x="1503.5977" y="-91" font-family="FreeSans" font-size="10.00" fill="#000000"> &lt; KSpace &gt;</text>
</g>
<!-- Node12&#45;&gt;Node1 -->
<g id="edge17" class="edge">
<title>Node12&#45;&gt;Node1</title>
<path fill="none" stroke="#9a32cd" stroke-dasharray="5,2" d="M2052.7655,-88.3854C2027.6713,-88.4793 2001.0558,-88.5788 1976.7176,-88.6698"/>
<polygon fill="#9a32cd" stroke="#9a32cd" points="2053.0544,-91.8845 2063.0412,-88.347 2053.0282,-84.8845 2053.0544,-91.8845"/>
<text text-anchor="middle" x="2019.9731" y="-91" font-family="FreeSans" font-size="10.00" fill="#000000"> mySurface</text>
</g>
</g>
</svg>
