<?xml version="1.0" encoding="UTF-8" standalone="no"?>
<!DOCTYPE svg PUBLIC "-//W3C//DTD SVG 1.1//EN"
 "http://www.w3.org/Graphics/SVG/1.1/DTD/svg11.dtd">
<!-- Generated by graphviz version 2.40.1 (20161225.0304)
 -->
<!-- Title: DGtal::ImplicitDigitalSurface&lt; TKSpace, TPointPredicate &gt; Pages: 1 -->
<svg width="1723pt" height="136pt"
 viewBox="0.00 0.00 1723.38 135.50" xmlns="http://www.w3.org/2000/svg" xmlns:xlink="http://www.w3.org/1999/xlink">
<g id="graph0" class="graph" transform="scale(1 1) rotate(0) translate(4 131.5)">
<title>DGtal::ImplicitDigitalSurface&lt; TKSpace, TPointPredicate &gt;</title>
<polygon fill="#ffffff" stroke="transparent" points="-4,4 -4,-131.5 1719.3809,-131.5 1719.3809,4 -4,4"/>
<!-- Node1 -->
<g id="node1" class="node">
<title>Node1</title>
<g id="a_node1"><a xlink:title="Aim: A model of CDigitalSurfaceContainer which defines the digital surface as the boundary of an impl...">
<polygon fill="#bfbfbf" stroke="#000000" points="1564.6592,-20.5 1564.6592,-48.5 1715.3809,-48.5 1715.3809,-20.5 1564.6592,-20.5"/>
<text text-anchor="start" x="1572.6592" y="-36.5" font-family="FreeSans" font-size="10.00" fill="#000000">DGtal::ImplicitDigitalSurface</text>
<text text-anchor="middle" x="1640.02" y="-26.5" font-family="FreeSans" font-size="10.00" fill="#000000">&lt; TKSpace, TPointPredicate &gt;</text>
</a>
</g>
</g>
<!-- Node2 -->
<g id="node2" class="node">
<title>Node2</title>
<g id="a_node2"><a xlink:title=" ">
<polygon fill="#ffffff" stroke="#bfbfbf" points="1327.8472,-47.5 1327.8472,-65.5 1433.3345,-65.5 1433.3345,-47.5 1327.8472,-47.5"/>
<text text-anchor="middle" x="1380.5908" y="-53.5" font-family="FreeSans" font-size="10.00" fill="#000000">std::vector&lt; Surfel &gt;</text>
</a>
</g>
</g>
<!-- Node2&#45;&gt;Node1 -->
<g id="edge1" class="edge">
<title>Node2&#45;&gt;Node1</title>
<path fill="none" stroke="#9a32cd" stroke-dasharray="5,2" d="M1443.3895,-51.1746C1479.756,-48.0906 1525.7859,-44.1872 1564.1663,-40.9325"/>
<polygon fill="#9a32cd" stroke="#9a32cd" points="1443.0714,-47.6889 1433.4029,-52.0215 1443.6629,-54.6639 1443.0714,-47.6889"/>
<text text-anchor="middle" x="1502.4746" y="-51.5" font-family="FreeSans" font-size="10.00" fill="#000000"> mySurfels</text>
</g>
<!-- Node3 -->
<g id="node3" class="node">
<title>Node3</title>
<g id="a_node3"><a xlink:href="structDGtal_1_1SignedKhalimskyCell.html" target="_top" xlink:title="Represents a signed cell in a cellular grid space by its Khalimsky coordinates and a boolean value.">
<polygon fill="#ffffff" stroke="#000000" points="1037.666,-84.5 1037.666,-112.5 1178.7148,-112.5 1178.7148,-84.5 1037.666,-84.5"/>
<text text-anchor="start" x="1045.666" y="-100.5" font-family="FreeSans" font-size="10.00" fill="#000000">DGtal::SignedKhalimskyCell</text>
<text text-anchor="middle" x="1108.1904" y="-90.5" font-family="FreeSans" font-size="10.00" fill="#000000">&lt; dim, TInteger &gt;</text>
</a>
</g>
</g>
<!-- Node3&#45;&gt;Node2 -->
<g id="edge2" class="edge">
<title>Node3&#45;&gt;Node2</title>
<path fill="none" stroke="#9a32cd" stroke-dasharray="5,2" d="M1189.202,-87.5041C1224.2099,-82.5832 1265.6128,-76.5371 1302.8916,-70.5 1312.3629,-68.9662 1322.464,-67.2244 1332.1423,-65.5031"/>
<polygon fill="#9a32cd" stroke="#9a32cd" points="1188.4503,-84.0751 1179.0319,-88.9273 1189.4205,-91.0075 1188.4503,-84.0751"/>
<text text-anchor="middle" x="1249.8032" y="-87.5" font-family="FreeSans" font-size="10.00" fill="#000000"> elements</text>
</g>
<!-- Node4 -->
<g id="node4" class="node">
<title>Node4</title>
<g id="a_node4"><a xlink:href="structDGtal_1_1SignedKhalimskyPreCell.html" target="_top" xlink:title=" ">
<polygon fill="#ffffff" stroke="#000000" points="806.7158,-84.5 806.7158,-112.5 946.0996,-112.5 946.0996,-84.5 806.7158,-84.5"/>
<text text-anchor="start" x="814.7158" y="-100.5" font-family="FreeSans" font-size="10.00" fill="#000000">DGtal::SignedKhalimskyPre</text>
<text text-anchor="middle" x="876.4077" y="-90.5" font-family="FreeSans" font-size="10.00" fill="#000000">Cell&lt; dim, Integer &gt;</text>
</a>
</g>
</g>
<!-- Node4&#45;&gt;Node3 -->
<g id="edge3" class="edge">
<title>Node4&#45;&gt;Node3</title>
<path fill="none" stroke="#9a32cd" stroke-dasharray="5,2" d="M956.5586,-98.5C982.8043,-98.5 1011.761,-98.5 1037.2751,-98.5"/>
<polygon fill="#9a32cd" stroke="#9a32cd" points="956.2645,-95.0001 946.2645,-98.5 956.2645,-102.0001 956.2645,-95.0001"/>
<text text-anchor="middle" x="991.8828" y="-100.5" font-family="FreeSans" font-size="10.00" fill="#000000"> mySPreCell</text>
</g>
<!-- Node5 -->
<g id="node5" class="node">
<title>Node5</title>
<g id="a_node5"><a xlink:href="classDGtal_1_1PointVector.html" target="_top" xlink:title=" ">
<polygon fill="#ffffff" stroke="#000000" points="369.7715,-77.5 369.7715,-105.5 468.0371,-105.5 468.0371,-77.5 369.7715,-77.5"/>
<text text-anchor="start" x="377.7715" y="-93.5" font-family="FreeSans" font-size="10.00" fill="#000000">DGtal::PointVector</text>
<text text-anchor="middle" x="418.9043" y="-83.5" font-family="FreeSans" font-size="10.00" fill="#000000">&lt; dim, Integer &gt;</text>
</a>
</g>
</g>
<!-- Node5&#45;&gt;Node4 -->
<g id="edge4" class="edge">
<title>Node5&#45;&gt;Node4</title>
<path fill="none" stroke="#9a32cd" stroke-dasharray="5,2" d="M478.3994,-96.125C480.9794,-96.2644 483.534,-96.3906 486.0371,-96.5 620.4392,-102.3766 654.1875,-100.267 788.7158,-99.5 794.5013,-99.467 800.5014,-99.4218 806.525,-99.3687"/>
<polygon fill="#9a32cd" stroke="#9a32cd" points="478.5679,-92.629 468.378,-95.5299 478.1529,-99.6167 478.5679,-92.629"/>
<text text-anchor="middle" x="628.2065" y="-102.5" font-family="FreeSans" font-size="10.00" fill="#000000"> coordinates</text>
</g>
<!-- Node8 -->
<g id="node8" class="node">
<title>Node8</title>
<g id="a_node8"><a xlink:href="structDGtal_1_1SignedKhalimskyPreCell.html" target="_top" xlink:title="Represents a signed cell in an unbounded cellular grid space by its Khalimsky coordinates and a boole...">
<polygon fill="#ffffff" stroke="#000000" points="558.5146,-52.5 558.5146,-80.5 697.8984,-80.5 697.8984,-52.5 558.5146,-52.5"/>
<text text-anchor="start" x="566.5146" y="-68.5" font-family="FreeSans" font-size="10.00" fill="#000000">DGtal::SignedKhalimskyPre</text>
<text text-anchor="middle" x="628.2065" y="-58.5" font-family="FreeSans" font-size="10.00" fill="#000000">Cell&lt; dim, TInteger &gt;</text>
</a>
</g>
</g>
<!-- Node5&#45;&gt;Node8 -->
<g id="edge11" class="edge">
<title>Node5&#45;&gt;Node8</title>
<path fill="none" stroke="#9a32cd" stroke-dasharray="5,2" d="M478.2679,-84.4093C503.1571,-81.4365 532.2807,-77.9578 558.2061,-74.8612"/>
<polygon fill="#9a32cd" stroke="#9a32cd" points="477.7553,-80.9456 468.241,-85.607 478.5855,-87.8962 477.7553,-80.9456"/>
<text text-anchor="middle" x="513.2759" y="-84.5" font-family="FreeSans" font-size="10.00" fill="#000000"> coordinates</text>
</g>
<!-- Node6 -->
<g id="node6" class="node">
<title>Node6</title>
<g id="a_node6"><a xlink:title=" ">
<polygon fill="#ffffff" stroke="#bfbfbf" points="0,-91.5 0,-109.5 65.4678,-109.5 65.4678,-91.5 0,-91.5"/>
<text text-anchor="middle" x="32.7339" y="-97.5" font-family="FreeSans" font-size="10.00" fill="#000000">TContainer</text>
</a>
</g>
</g>
<!-- Node6&#45;&gt;Node5 -->
<g id="edge5" class="edge">
<title>Node6&#45;&gt;Node5</title>
<path fill="none" stroke="#9a32cd" stroke-dasharray="5,2" d="M75.9227,-107.8435C95.816,-110.8688 119.7739,-114.0107 141.4678,-115.5 194.4481,-119.1371 207.9999,-119.5001 260.9541,-115.5 297.6008,-112.7317 338.6252,-106.3998 369.6786,-100.9347"/>
<polygon fill="#9a32cd" stroke="#9a32cd" points="76.3441,-104.367 65.9237,-106.2815 75.2636,-111.2831 76.3441,-104.367"/>
<text text-anchor="middle" x="201.2109" y="-119.5" font-family="FreeSans" font-size="10.00" fill="#000000"> myArray</text>
</g>
<!-- Node7 -->
<g id="node7" class="node">
<title>Node7</title>
<g id="a_node7"><a xlink:href="classDGtal_1_1PointVector.html" target="_top" xlink:title="Aim: Implements basic operations that will be used in Point and Vector classes.">
<polygon fill="#ffffff" stroke="#000000" points="141.4678,-39.5 141.4678,-77.5 260.9541,-77.5 260.9541,-39.5 141.4678,-39.5"/>
<text text-anchor="start" x="149.4678" y="-65.5" font-family="FreeSans" font-size="10.00" fill="#000000">DGtal::PointVector</text>
<text text-anchor="start" x="149.4678" y="-55.5" font-family="FreeSans" font-size="10.00" fill="#000000">&lt; dim, TEuclideanRing,</text>
<text text-anchor="middle" x="201.2109" y="-45.5" font-family="FreeSans" font-size="10.00" fill="#000000"> TContainer &gt;</text>
</a>
</g>
</g>
<!-- Node6&#45;&gt;Node7 -->
<g id="edge7" class="edge">
<title>Node6&#45;&gt;Node7</title>
<path fill="none" stroke="#9a32cd" stroke-dasharray="5,2" d="M75.3376,-89.8792C95.2787,-84.9081 119.3781,-78.9003 141.1301,-73.4777"/>
<polygon fill="#9a32cd" stroke="#9a32cd" points="74.4743,-86.4872 65.6179,-92.3023 76.1676,-93.2794 74.4743,-86.4872"/>
<text text-anchor="middle" x="103.4678" y="-88.5" font-family="FreeSans" font-size="10.00" fill="#000000"> myArray</text>
</g>
<!-- Node7&#45;&gt;Node5 -->
<g id="edge6" class="edge">
<title>Node7&#45;&gt;Node5</title>
<path fill="none" stroke="#9a32cd" stroke-dasharray="5,2" d="M271.1938,-69.1087C303.2505,-73.9681 340.4844,-79.6124 369.5494,-84.0183"/>
<polygon fill="#9a32cd" stroke="#9a32cd" points="271.3962,-65.5994 260.9845,-67.561 270.347,-72.5204 271.3962,-65.5994"/>
<text text-anchor="middle" x="315.3628" y="-82.5" font-family="FreeSans" font-size="10.00" fill="#000000"> zero</text>
</g>
<!-- Node7&#45;&gt;Node5 -->
<g id="edge9" class="edge">
<title>Node7&#45;&gt;Node5</title>
<path fill="none" stroke="#ffa500" stroke-dasharray="5,2" d="M271.2803,-51.9354C296.8981,-51.2474 325.9237,-52.4905 351.7715,-58.5 367.71,-62.2056 384.2219,-70.2577 396.8816,-77.4801"/>
<polygon fill="#ffa500" stroke="#ffa500" points="271.1381,-48.4382 261.2741,-52.3049 271.3965,-55.4334 271.1381,-48.4382"/>
<text text-anchor="middle" x="315.3628" y="-60.5" font-family="FreeSans" font-size="10.00" fill="#000000"> &lt; dim, Integer &gt;</text>
</g>
<!-- Node7&#45;&gt;Node7 -->
<g id="edge8" class="edge">
<title>Node7&#45;&gt;Node7</title>
<path fill="none" stroke="#9a32cd" stroke-dasharray="5,2" d="M184.4997,-87.7834C186.8515,-92.6472 192.4219,-96 201.2109,-96 215.2734,-96 221.0962,-87.4169 218.6792,-77.7945"/>
<polygon fill="#9a32cd" stroke="#9a32cd" points="187.9885,-87.5014 183.7427,-77.7945 181.0085,-88.0304 187.9885,-87.5014"/>
<text text-anchor="middle" x="201.2109" y="-98" font-family="FreeSans" font-size="10.00" fill="#000000"> zero</text>
</g>
<!-- Node8&#45;&gt;Node4 -->
<g id="edge10" class="edge">
<title>Node8&#45;&gt;Node4</title>
<path fill="none" stroke="#ffa500" stroke-dasharray="5,2" d="M708.1414,-76.8058C739.8805,-80.8979 776.0518,-85.5614 806.7036,-89.5132"/>
<polygon fill="#ffa500" stroke="#ffa500" points="708.3704,-73.3065 698.0049,-75.4989 707.4753,-80.249 708.3704,-73.3065"/>
<text text-anchor="middle" x="752.3071" y="-87.5" font-family="FreeSans" font-size="10.00" fill="#000000"> &lt; dim, Integer &gt;</text>
</g>
<!-- Node9 -->
<g id="node9" class="node">
<title>Node9</title>
<g id="a_node9"><a xlink:title="STL class.">
<polygon fill="#ffffff" stroke="#bfbfbf" points="1065.6299,-47.5 1065.6299,-65.5 1150.751,-65.5 1150.751,-47.5 1065.6299,-47.5"/>
<text text-anchor="middle" x="1108.1904" y="-53.5" font-family="FreeSans" font-size="10.00" fill="#000000">std::vector&lt; T &gt;</text>
</a>
</g>
</g>
<!-- Node9&#45;&gt;Node2 -->
<g id="edge12" class="edge">
<title>Node9&#45;&gt;Node2</title>
<path fill="none" stroke="#ffa500" stroke-dasharray="5,2" d="M1160.9412,-56.5C1208.9575,-56.5 1279.4886,-56.5 1327.5845,-56.5"/>
<polygon fill="#ffa500" stroke="#ffa500" points="1160.753,-53.0001 1150.753,-56.5 1160.753,-60.0001 1160.753,-53.0001"/>
<text text-anchor="middle" x="1249.8032" y="-58.5" font-family="FreeSans" font-size="10.00" fill="#000000"> &lt; Surfel &gt;</text>
</g>
<!-- Node10 -->
<g id="node10" class="node">
<title>Node10</title>
<g id="a_node10"><a xlink:title=" ">
<polygon fill="#ffffff" stroke="#bfbfbf" points="861.9077,-47.5 861.9077,-65.5 890.9077,-65.5 890.9077,-47.5 861.9077,-47.5"/>
<text text-anchor="middle" x="876.4077" y="-53.5" font-family="FreeSans" font-size="10.00" fill="#000000">T</text>
</a>
</g>
</g>
<!-- Node10&#45;&gt;Node9 -->
<g id="edge13" class="edge">
<title>Node10&#45;&gt;Node9</title>
<path fill="none" stroke="#9a32cd" stroke-dasharray="5,2" d="M901.2769,-56.5C940.5161,-56.5 1017.2756,-56.5 1065.469,-56.5"/>
<polygon fill="#9a32cd" stroke="#9a32cd" points="901.2594,-53.0001 891.2594,-56.5 901.2593,-60.0001 901.2594,-53.0001"/>
<text text-anchor="middle" x="991.8828" y="-58.5" font-family="FreeSans" font-size="10.00" fill="#000000"> elements</text>
</g>
<!-- Node11 -->
<g id="node11" class="node">
<title>Node11</title>
<g id="a_node11"><a xlink:href="classDGtal_1_1SurfelAdjacency.html" target="_top" xlink:title=" ">
<polygon fill="#ffffff" stroke="#000000" points="1320.8916,-.5 1320.8916,-28.5 1440.29,-28.5 1440.29,-.5 1320.8916,-.5"/>
<text text-anchor="start" x="1328.8916" y="-16.5" font-family="FreeSans" font-size="10.00" fill="#000000">DGtal::SurfelAdjacency</text>
<text text-anchor="middle" x="1380.5908" y="-6.5" font-family="FreeSans" font-size="10.00" fill="#000000">&lt; KSpace::dimension &gt;</text>
</a>
</g>
</g>
<!-- Node11&#45;&gt;Node1 -->
<g id="edge14" class="edge">
<title>Node11&#45;&gt;Node1</title>
<path fill="none" stroke="#9a32cd" stroke-dasharray="5,2" d="M1450.882,-15.966C1480.492,-16.9715 1515.295,-18.662 1546.6592,-21.5 1552.4451,-22.0235 1558.4216,-22.6519 1564.4246,-23.3459"/>
<polygon fill="#9a32cd" stroke="#9a32cd" points="1450.7462,-12.4599 1440.6393,-15.6381 1450.5222,-19.4564 1450.7462,-12.4599"/>
<text text-anchor="middle" x="1502.4746" y="-23.5" font-family="FreeSans" font-size="10.00" fill="#000000"> mySurfelAdjacency</text>
</g>
<!-- Node12 -->
<g id="node12" class="node">
<title>Node12</title>
<g id="a_node12"><a xlink:href="classDGtal_1_1SurfelAdjacency.html" target="_top" xlink:title="Aim: Represent adjacencies between surfel elements, telling if it follows an interior to exterior ord...">
<polygon fill="#ffffff" stroke="#000000" points="1048.501,-.5 1048.501,-28.5 1167.8799,-28.5 1167.8799,-.5 1048.501,-.5"/>
<text text-anchor="start" x="1056.501" y="-16.5" font-family="FreeSans" font-size="10.00" fill="#000000">DGtal::SurfelAdjacency</text>
<text text-anchor="middle" x="1108.1904" y="-6.5" font-family="FreeSans" font-size="10.00" fill="#000000">&lt; dim &gt;</text>
</a>
</g>
</g>
<!-- Node12&#45;&gt;Node11 -->
<g id="edge15" class="edge">
<title>Node12&#45;&gt;Node11</title>
<path fill="none" stroke="#ffa500" stroke-dasharray="5,2" d="M1178.0306,-14.5C1222.092,-14.5 1278.4156,-14.5 1320.4808,-14.5"/>
<polygon fill="#ffa500" stroke="#ffa500" points="1177.9699,-11.0001 1167.9699,-14.5 1177.9698,-18.0001 1177.9699,-11.0001"/>
<text text-anchor="middle" x="1249.8032" y="-16.5" font-family="FreeSans" font-size="10.00" fill="#000000"> &lt; KSpace::dimension &gt;</text>
</g>
</g>
</svg>
