<?xml version="1.0" encoding="UTF-8" standalone="no"?>
<!DOCTYPE svg PUBLIC "-//W3C//DTD SVG 1.1//EN"
 "http://www.w3.org/Graphics/SVG/1.1/DTD/svg11.dtd">
<!-- Generated by graphviz version 2.40.1 (20161225.0304)
 -->
<!-- Title: DGtal::SetOfSurfels&lt; TKSpace, TSurfelSet &gt;::Tracker Pages: 1 -->
<!--zoomable 223 -->
<svg id="main" version="1.1" xmlns="http://www.w3.org/2000/svg" xmlns:xlink="http://www.w3.org/1999/xlink" xml:space="preserve" onload="init(evt)">
<style type="text/css"><![CDATA[
.edge:hover path { stroke: red; }
.edge:hover polygon { stroke: red; fill: red; }
]]></style>
<script type="text/javascript"><![CDATA[
var edges = document.getElementsByTagName('g');
if (edges && edges.length) {
  for (var i=0;i<edges.length;i++) {
    if (edges[i].id.substr(0,4)=='edge') {
      edges[i].setAttribute('class','edge');
    }
  }
}
]]></script>
        <defs>
                <circle id="rim" cx="0" cy="0" r="7"/>
                <circle id="rim2" cx="0" cy="0" r="3.5"/>
                <g id="zoomPlus">
                        <use xlink:href="#rim" fill="#404040">
                                <set attributeName="fill" to="#808080" begin="zoomplus.mouseover" end="zoomplus.mouseout"/>
                        </use>
                        <path d="M-4,0h8M0,-4v8" fill="none" stroke="white" stroke-width="1.5" pointer-events="none"/>
                </g>
                <g id="zoomMin">
                        <use xlink:href="#rim" fill="#404040">
                                <set attributeName="fill" to="#808080" begin="zoomminus.mouseover" end="zoomminus.mouseout"/>
                        </use>
                        <path d="M-4,0h8" fill="none" stroke="white" stroke-width="1.5" pointer-events="none"/>
                </g>
                <g id="dirArrow">
                        <path fill="none" stroke="white" stroke-width="1.5" d="M0,-3.0v7 M-2.5,-0.5L0,-3.0L2.5,-0.5"/>
                </g>
               <g id="resetDef">
                       <use xlink:href="#rim2" fill="#404040">
                               <set attributeName="fill" to="#808080" begin="reset.mouseover" end="reset.mouseout"/>
                       </use>
               </g>
        </defs>

<script type="text/javascript">
var viewWidth = 2121;
var viewHeight = 223;
var sectionId = 'dynsection-0';
</script>
<script xlink:href="svgpan.js"/>
<svg id="graph" class="graph">
<g id="viewport">
<title>DGtal::SetOfSurfels&lt; TKSpace, TSurfelSet &gt;::Tracker</title>
<polygon fill="#ffffff" stroke="transparent" points="-4,4 -4,-219 2117.0791,-219 2117.0791,4 -4,4"/>
<!-- Node1 -->
<g id="node1" class="node">
<title>Node1</title>
<polygon fill="#bfbfbf" stroke="#000000" points="1994.8818,-118.5 1994.8818,-156.5 2113.0791,-156.5 2113.0791,-118.5 1994.8818,-118.5"/>
<text text-anchor="start" x="2002.8818" y="-144.5" font-family="FreeSans" font-size="10.00" fill="#000000">DGtal::SetOfSurfels</text>
<text text-anchor="start" x="2002.8818" y="-134.5" font-family="FreeSans" font-size="10.00" fill="#000000">&lt; TKSpace, TSurfelSet</text>
<text text-anchor="middle" x="2053.9805" y="-124.5" font-family="FreeSans" font-size="10.00" fill="#000000"> &gt;::Tracker</text>
</g>
<!-- Node2 -->
<g id="node2" class="node">
<title>Node2</title>
<g id="a_node2"><a xlink:href="classDGtal_1_1SetOfSurfels.html" target="_top" xlink:title="Aim: A model of CDigitalSurfaceContainer which defines the digital surface as connected surfels...">
<polygon fill="#ffffff" stroke="#000000" points="1521.397,-158.5 1521.397,-186.5 1648.2124,-186.5 1648.2124,-158.5 1521.397,-158.5"/>
<text text-anchor="start" x="1529.397" y="-174.5" font-family="FreeSans" font-size="10.00" fill="#000000">DGtal::SetOfSurfels</text>
<text text-anchor="middle" x="1584.8047" y="-164.5" font-family="FreeSans" font-size="10.00" fill="#000000">&lt; TKSpace, TSurfelSet &gt;</text>
</a>
</g>
</g>
<!-- Node2&#45;&gt;Node1 -->
<g id="edge1" class="edge">
<title>Node2&#45;&gt;Node1</title>
<path fill="none" stroke="#9a32cd" stroke-dasharray="5,2" d="M1658.7415,-166.9844C1751.6939,-160.0502 1909.4029,-148.2853 1994.8005,-141.9148"/>
<polygon fill="#9a32cd" stroke="#9a32cd" points="1658.28,-163.509 1648.5681,-167.7433 1658.8008,-170.4896 1658.28,-163.509"/>
<text text-anchor="middle" x="1811.9121" y="-161.5" font-family="FreeSans" font-size="10.00" fill="#000000"> mySurface</text>
</g>
<!-- Node3 -->
<g id="node3" class="node">
<title>Node3</title>
<g id="a_node3"><a xlink:href="structDGtal_1_1functors_1_1SurfelSetPredicate.html" target="_top" xlink:title="DGtal::functors::SurfelSet\lPredicate\&lt; SurfelSet, Surfel \&gt;">
<polygon fill="#ffffff" stroke="#000000" points="1244.1064,-181.5 1244.1064,-209.5 1392.4014,-209.5 1392.4014,-181.5 1244.1064,-181.5"/>
<text text-anchor="start" x="1252.1064" y="-197.5" font-family="FreeSans" font-size="10.00" fill="#000000">DGtal::functors::SurfelSet</text>
<text text-anchor="middle" x="1318.2539" y="-187.5" font-family="FreeSans" font-size="10.00" fill="#000000">Predicate&lt; SurfelSet, Surfel &gt;</text>
</a>
</g>
</g>
<!-- Node3&#45;&gt;Node2 -->
<g id="edge2" class="edge">
<title>Node3&#45;&gt;Node2</title>
<path fill="none" stroke="#9a32cd" stroke-dasharray="5,2" d="M1402.6463,-188.218C1441.0858,-184.9011 1485.8233,-181.0409 1521.3427,-177.976"/>
<polygon fill="#9a32cd" stroke="#9a32cd" points="1402.1652,-184.7464 1392.5032,-189.0932 1402.7671,-191.7205 1402.1652,-184.7464"/>
<text text-anchor="middle" x="1454.5859" y="-188.5" font-family="FreeSans" font-size="10.00" fill="#000000"> mySurfelPredicate</text>
</g>
<!-- Node4 -->
<g id="node4" class="node">
<title>Node4</title>
<g id="a_node4"><a xlink:href="structDGtal_1_1functors_1_1SurfelSetPredicate.html" target="_top" xlink:title="Aim: The predicate returning true iff the point is in the domain given at construction. ">
<polygon fill="#ffffff" stroke="#000000" points="967.5483,-176.5 967.5483,-214.5 1096.9272,-214.5 1096.9272,-176.5 967.5483,-176.5"/>
<text text-anchor="start" x="975.5483" y="-202.5" font-family="FreeSans" font-size="10.00" fill="#000000">DGtal::functors::SurfelSet</text>
<text text-anchor="start" x="975.5483" y="-192.5" font-family="FreeSans" font-size="10.00" fill="#000000">Predicate&lt; TSurfelSet,</text>
<text text-anchor="middle" x="1032.2378" y="-182.5" font-family="FreeSans" font-size="10.00" fill="#000000"> TSurfel &gt;</text>
</a>
</g>
</g>
<!-- Node4&#45;&gt;Node3 -->
<g id="edge3" class="edge">
<title>Node4&#45;&gt;Node3</title>
<path fill="none" stroke="#ffa500" stroke-dasharray="5,2" d="M1107.3526,-195.5C1149.5352,-195.5 1201.9805,-195.5 1244.0191,-195.5"/>
<polygon fill="#ffa500" stroke="#ffa500" points="1107.1393,-192.0001 1097.1393,-195.5 1107.1392,-199.0001 1107.1393,-192.0001"/>
<text text-anchor="middle" x="1173.0181" y="-197.5" font-family="FreeSans" font-size="10.00" fill="#000000"> &lt; SurfelSet, Surfel &gt;</text>
</g>
<!-- Node5 -->
<g id="node5" class="node">
<title>Node5</title>
<g id="a_node5"><a xlink:href="classDGtal_1_1SurfelAdjacency.html" target="_top" xlink:title="DGtal::SurfelAdjacency\l\&lt; KSpace::dimension \&gt;">
<polygon fill="#ffffff" stroke="#000000" points="1258.5547,-115.5 1258.5547,-143.5 1377.9531,-143.5 1377.9531,-115.5 1258.5547,-115.5"/>
<text text-anchor="start" x="1266.5547" y="-131.5" font-family="FreeSans" font-size="10.00" fill="#000000">DGtal::SurfelAdjacency</text>
<text text-anchor="middle" x="1318.2539" y="-121.5" font-family="FreeSans" font-size="10.00" fill="#000000">&lt; KSpace::dimension &gt;</text>
</a>
</g>
</g>
<!-- Node5&#45;&gt;Node2 -->
<g id="edge4" class="edge">
<title>Node5&#45;&gt;Node2</title>
<path fill="none" stroke="#9a32cd" stroke-dasharray="5,2" d="M1388.029,-140.7561C1429.1983,-147.3976 1480.9175,-155.7409 1521.0002,-162.207"/>
<polygon fill="#9a32cd" stroke="#9a32cd" points="1388.5029,-137.2874 1378.0731,-139.15 1387.388,-144.1981 1388.5029,-137.2874"/>
<text text-anchor="middle" x="1454.5859" y="-160.5" font-family="FreeSans" font-size="10.00" fill="#000000"> mySurfelAdjacency</text>
</g>
<!-- Node7 -->
<g id="node7" class="node">
<title>Node7</title>
<g id="a_node7"><a xlink:href="classDGtal_1_1SurfelNeighborhood.html" target="_top" xlink:title="DGtal::SurfelNeighborhood\l\&lt; KSpace \&gt;">
<polygon fill="#ffffff" stroke="#000000" points="1743.8779,-86.5 1743.8779,-114.5 1879.9463,-114.5 1879.9463,-86.5 1743.8779,-86.5"/>
<text text-anchor="start" x="1751.8779" y="-102.5" font-family="FreeSans" font-size="10.00" fill="#000000">DGtal::SurfelNeighborhood</text>
<text text-anchor="middle" x="1811.9121" y="-92.5" font-family="FreeSans" font-size="10.00" fill="#000000">&lt; KSpace &gt;</text>
</a>
</g>
</g>
<!-- Node5&#45;&gt;Node7 -->
<g id="edge19" class="edge">
<title>Node5&#45;&gt;Node7</title>
<path fill="none" stroke="#9a32cd" stroke-dasharray="5,2" d="M1388.1157,-125.8404C1469.312,-121.5216 1607.33,-113.9779 1725.8779,-106.5 1731.7057,-106.1324 1737.7546,-105.7375 1743.8219,-105.3323"/>
<polygon fill="#9a32cd" stroke="#9a32cd" points="1387.8156,-122.3513 1378.0153,-126.3766 1388.1868,-129.3415 1387.8156,-122.3513"/>
<text text-anchor="middle" x="1584.8047" y="-121.5" font-family="FreeSans" font-size="10.00" fill="#000000"> mySurfelAdj</text>
</g>
<!-- Node17 -->
<g id="node17" class="node">
<title>Node17</title>
<g id="a_node17"><a xlink:href="classDGtal_1_1SurfelNeighborhood.html" target="_top" xlink:title="Aim: This helper class is useful to compute the neighboring surfels of a given surfel, especially over a digital surface or over an object boundary. Two signed surfels are incident if they share a common n&#45;2 cell. This class uses a SurfelAdjacency so as to determine adjacent surfels (either looking for them from interior to exterior or inversely). ">
<polygon fill="#ffffff" stroke="#000000" points="1516.7705,-64.5 1516.7705,-92.5 1652.8389,-92.5 1652.8389,-64.5 1516.7705,-64.5"/>
<text text-anchor="start" x="1524.7705" y="-80.5" font-family="FreeSans" font-size="10.00" fill="#000000">DGtal::SurfelNeighborhood</text>
<text text-anchor="middle" x="1584.8047" y="-70.5" font-family="FreeSans" font-size="10.00" fill="#000000">&lt; TKSpace &gt;</text>
</a>
</g>
</g>
<!-- Node5&#45;&gt;Node17 -->
<g id="edge22" class="edge">
<title>Node5&#45;&gt;Node17</title>
<path fill="none" stroke="#9a32cd" stroke-dasharray="5,2" d="M1377.9857,-113.0045C1388.7329,-110.3049 1399.8665,-107.6816 1410.4014,-105.5 1445.2043,-98.293 1484.276,-92.0737 1516.602,-87.4267"/>
<polygon fill="#9a32cd" stroke="#9a32cd" points="1377.0733,-109.6251 1368.2529,-115.4946 1378.8084,-116.4067 1377.0733,-109.6251"/>
<text text-anchor="middle" x="1454.5859" y="-107.5" font-family="FreeSans" font-size="10.00" fill="#000000"> mySurfelAdj</text>
</g>
<!-- Node6 -->
<g id="node6" class="node">
<title>Node6</title>
<g id="a_node6"><a xlink:href="classDGtal_1_1SurfelAdjacency.html" target="_top" xlink:title="Aim: Represent adjacencies between surfel elements, telling if it follows an interior to exterior ord...">
<polygon fill="#ffffff" stroke="#000000" points="972.5483,-115.5 972.5483,-143.5 1091.9272,-143.5 1091.9272,-115.5 972.5483,-115.5"/>
<text text-anchor="start" x="980.5483" y="-131.5" font-family="FreeSans" font-size="10.00" fill="#000000">DGtal::SurfelAdjacency</text>
<text text-anchor="middle" x="1032.2378" y="-121.5" font-family="FreeSans" font-size="10.00" fill="#000000">&lt; dim &gt;</text>
</a>
</g>
</g>
<!-- Node6&#45;&gt;Node5 -->
<g id="edge5" class="edge">
<title>Node6&#45;&gt;Node5</title>
<path fill="none" stroke="#ffa500" stroke-dasharray="5,2" d="M1102.4713,-129.5C1150.2931,-129.5 1212.9168,-129.5 1258.3745,-129.5"/>
<polygon fill="#ffa500" stroke="#ffa500" points="1102.1962,-126.0001 1092.1961,-129.5 1102.1961,-133.0001 1102.1962,-126.0001"/>
<text text-anchor="middle" x="1173.0181" y="-131.5" font-family="FreeSans" font-size="10.00" fill="#000000"> &lt; KSpace::dimension &gt;</text>
</g>
<!-- Node7&#45;&gt;Node1 -->
<g id="edge6" class="edge">
<title>Node7&#45;&gt;Node1</title>
<path fill="none" stroke="#9a32cd" stroke-dasharray="5,2" d="M1889.8872,-112.4184C1923.8781,-117.6139 1963.079,-123.6058 1994.6404,-128.4299"/>
<polygon fill="#9a32cd" stroke="#9a32cd" points="1890.3999,-108.9562 1879.9858,-110.905 1889.3422,-115.8759 1890.3999,-108.9562"/>
<text text-anchor="middle" x="1937.4141" y="-128.5" font-family="FreeSans" font-size="10.00" fill="#000000"> myNeighborhood</text>
</g>
<!-- Node8 -->
<g id="node8" class="node">
<title>Node8</title>
<g id="a_node8"><a xlink:href="structDGtal_1_1SignedKhalimskyCell.html" target="_top" xlink:title="Represents a signed cell in a cellular grid space by its Khalimsky coordinates and a boolean value...">
<polygon fill="#ffffff" stroke="#000000" points="1247.7295,-38.5 1247.7295,-66.5 1388.7783,-66.5 1388.7783,-38.5 1247.7295,-38.5"/>
<text text-anchor="start" x="1255.7295" y="-54.5" font-family="FreeSans" font-size="10.00" fill="#000000">DGtal::SignedKhalimskyCell</text>
<text text-anchor="middle" x="1318.2539" y="-44.5" font-family="FreeSans" font-size="10.00" fill="#000000">&lt; dim, TInteger &gt;</text>
</a>
</g>
</g>
<!-- Node8&#45;&gt;Node7 -->
<g id="edge7" class="edge">
<title>Node8&#45;&gt;Node7</title>
<path fill="none" stroke="#9a32cd" stroke-dasharray="5,2" d="M1399.2378,-41.9114C1467.3945,-35.0594 1567.173,-29.8614 1652.8389,-44.5 1699.4476,-52.4645 1750.5577,-72.6671 1781.9403,-86.4971"/>
<polygon fill="#9a32cd" stroke="#9a32cd" points="1398.5815,-38.4607 1388.9976,-42.9773 1399.3062,-45.4231 1398.5815,-38.4607"/>
<text text-anchor="middle" x="1584.8047" y="-46.5" font-family="FreeSans" font-size="10.00" fill="#000000"> mySurfel</text>
</g>
<!-- Node8&#45;&gt;Node17 -->
<g id="edge21" class="edge">
<title>Node8&#45;&gt;Node17</title>
<path fill="none" stroke="#9a32cd" stroke-dasharray="5,2" d="M1399.3617,-60.4115C1436.8095,-64.0642 1480.7821,-68.3534 1516.5074,-71.8381"/>
<polygon fill="#9a32cd" stroke="#9a32cd" points="1399.2774,-56.8867 1388.9848,-59.3993 1398.5978,-63.8536 1399.2774,-56.8867"/>
<text text-anchor="middle" x="1454.5859" y="-72.5" font-family="FreeSans" font-size="10.00" fill="#000000"> mySurfel</text>
</g>
<!-- Node9 -->
<g id="node9" class="node">
<title>Node9</title>
<g id="a_node9"><a xlink:href="structDGtal_1_1SignedKhalimskyPreCell.html" target="_top" xlink:title="DGtal::SignedKhalimskyPre\lCell\&lt; dim, Integer \&gt;">
<polygon fill="#ffffff" stroke="#000000" points="962.5459,-38.5 962.5459,-66.5 1101.9297,-66.5 1101.9297,-38.5 962.5459,-38.5"/>
<text text-anchor="start" x="970.5459" y="-54.5" font-family="FreeSans" font-size="10.00" fill="#000000">DGtal::SignedKhalimskyPre</text>
<text text-anchor="middle" x="1032.2378" y="-44.5" font-family="FreeSans" font-size="10.00" fill="#000000">Cell&lt; dim, Integer &gt;</text>
</a>
</g>
</g>
<!-- Node9&#45;&gt;Node8 -->
<g id="edge8" class="edge">
<title>Node9&#45;&gt;Node8</title>
<path fill="none" stroke="#9a32cd" stroke-dasharray="5,2" d="M1112.2365,-52.5C1154.7322,-52.5 1206.506,-52.5 1247.5203,-52.5"/>
<polygon fill="#9a32cd" stroke="#9a32cd" points="1112.2052,-49.0001 1102.2052,-52.5 1112.2052,-56.0001 1112.2052,-49.0001"/>
<text text-anchor="middle" x="1173.0181" y="-54.5" font-family="FreeSans" font-size="10.00" fill="#000000"> mySPreCell</text>
</g>
<!-- Node10 -->
<g id="node10" class="node">
<title>Node10</title>
<g id="a_node10"><a xlink:href="classDGtal_1_1PointVector.html" target="_top" xlink:title="DGtal::PointVector\l\&lt; dim, Integer \&gt;">
<polygon fill="#ffffff" stroke="#000000" points="525.6016,-38.5 525.6016,-66.5 623.8672,-66.5 623.8672,-38.5 525.6016,-38.5"/>
<text text-anchor="start" x="533.6016" y="-54.5" font-family="FreeSans" font-size="10.00" fill="#000000">DGtal::PointVector</text>
<text text-anchor="middle" x="574.7344" y="-44.5" font-family="FreeSans" font-size="10.00" fill="#000000">&lt; dim, Integer &gt;</text>
</a>
</g>
</g>
<!-- Node10&#45;&gt;Node9 -->
<g id="edge9" class="edge">
<title>Node10&#45;&gt;Node9</title>
<path fill="none" stroke="#9a32cd" stroke-dasharray="5,2" d="M634.2221,-58.0993C636.8041,-58.2531 639.3612,-58.3882 641.8672,-58.5 688.6942,-60.5884 679.511,-65.5841 944.5459,-57.5 950.3378,-57.3233 956.3425,-57.0889 962.369,-56.8179"/>
<polygon fill="#9a32cd" stroke="#9a32cd" points="634.4076,-54.604 624.1949,-57.4236 633.9369,-61.5881 634.4076,-54.604"/>
<text text-anchor="middle" x="784.0366" y="-64.5" font-family="FreeSans" font-size="10.00" fill="#000000"> coordinates</text>
</g>
<!-- Node16 -->
<g id="node16" class="node">
<title>Node16</title>
<g id="a_node16"><a xlink:href="structDGtal_1_1SignedKhalimskyPreCell.html" target="_top" xlink:title="DGtal::SignedKhalimskyPre\lCell\&lt; dim, TInteger \&gt;">
<polygon fill="#ffffff" stroke="#000000" points="714.3447,-13.5 714.3447,-41.5 853.7285,-41.5 853.7285,-13.5 714.3447,-13.5"/>
<text text-anchor="start" x="722.3447" y="-29.5" font-family="FreeSans" font-size="10.00" fill="#000000">DGtal::SignedKhalimskyPre</text>
<text text-anchor="middle" x="784.0366" y="-19.5" font-family="FreeSans" font-size="10.00" fill="#000000">Cell&lt; dim, TInteger &gt;</text>
</a>
</g>
</g>
<!-- Node10&#45;&gt;Node16 -->
<g id="edge18" class="edge">
<title>Node10&#45;&gt;Node16</title>
<path fill="none" stroke="#9a32cd" stroke-dasharray="5,2" d="M634.098,-45.4093C658.9872,-42.4365 688.1108,-38.9578 714.0362,-35.8612"/>
<polygon fill="#9a32cd" stroke="#9a32cd" points="633.5853,-41.9456 624.071,-46.607 634.4156,-48.8962 633.5853,-41.9456"/>
<text text-anchor="middle" x="669.106" y="-46.5" font-family="FreeSans" font-size="10.00" fill="#000000"> coordinates</text>
</g>
<!-- Node11 -->
<g id="node11" class="node">
<title>Node11</title>
<polygon fill="#ffffff" stroke="#bfbfbf" points="307.21,-85.5 307.21,-113.5 406.8721,-113.5 406.8721,-85.5 307.21,-85.5"/>
<text text-anchor="start" x="315.21" y="-101.5" font-family="FreeSans" font-size="10.00" fill="#000000">std::array&lt; Integer,</text>
<text text-anchor="middle" x="357.041" y="-91.5" font-family="FreeSans" font-size="10.00" fill="#000000"> dim &gt;</text>
</g>
<!-- Node11&#45;&gt;Node10 -->
<g id="edge10" class="edge">
<title>Node11&#45;&gt;Node10</title>
<path fill="none" stroke="#9a32cd" stroke-dasharray="5,2" d="M416.8318,-86.5912C450.9468,-79.2257 493.1916,-70.1051 525.3991,-63.1515"/>
<polygon fill="#9a32cd" stroke="#9a32cd" points="416.0204,-83.1856 406.9843,-88.7173 417.4977,-90.028 416.0204,-83.1856"/>
<text text-anchor="middle" x="471.1929" y="-84.5" font-family="FreeSans" font-size="10.00" fill="#000000"> myArray</text>
</g>
<!-- Node12 -->
<g id="node12" class="node">
<title>Node12</title>
<g id="a_node12"><a xlink:title="STL class. ">
<polygon fill="#ffffff" stroke="#bfbfbf" points="108.3545,-90.5 108.3545,-108.5 189.0273,-108.5 189.0273,-90.5 108.3545,-90.5"/>
<text text-anchor="middle" x="148.6909" y="-96.5" font-family="FreeSans" font-size="10.00" fill="#000000">std::array&lt; T &gt;</text>
</a>
</g>
</g>
<!-- Node12&#45;&gt;Node11 -->
<g id="edge11" class="edge">
<title>Node12&#45;&gt;Node11</title>
<path fill="none" stroke="#ffa500" stroke-dasharray="5,2" d="M199.5951,-99.5C232.2349,-99.5 274.4203,-99.5 306.9081,-99.5"/>
<polygon fill="#ffa500" stroke="#ffa500" points="199.3576,-96.0001 189.3575,-99.5 199.3575,-103.0001 199.3576,-96.0001"/>
<text text-anchor="middle" x="243.1626" y="-101.5" font-family="FreeSans" font-size="10.00" fill="#000000"> &lt; Integer, dim &gt;</text>
</g>
<!-- Node13 -->
<g id="node13" class="node">
<title>Node13</title>
<polygon fill="#ffffff" stroke="#bfbfbf" points="0,-90.5 0,-108.5 29,-108.5 29,-90.5 0,-90.5"/>
<text text-anchor="middle" x="14.5" y="-96.5" font-family="FreeSans" font-size="10.00" fill="#000000">T</text>
</g>
<!-- Node13&#45;&gt;Node12 -->
<g id="edge12" class="edge">
<title>Node13&#45;&gt;Node12</title>
<path fill="none" stroke="#9a32cd" stroke-dasharray="5,2" d="M39.1956,-99.5C58.4766,-99.5 85.6719,-99.5 108.1355,-99.5"/>
<polygon fill="#9a32cd" stroke="#9a32cd" points="39.1163,-96.0001 29.1162,-99.5 39.1162,-103.0001 39.1163,-96.0001"/>
<text text-anchor="middle" x="68.6772" y="-101.5" font-family="FreeSans" font-size="10.00" fill="#000000"> elements</text>
</g>
<!-- Node14 -->
<g id="node14" class="node">
<title>Node14</title>
<g id="a_node14"><a xlink:href="classDGtal_1_1PointVector.html" target="_top" xlink:title="Aim: Implements basic operations that will be used in Point and Vector classes. ">
<polygon fill="#ffffff" stroke="#000000" points="297.2979,-.5 297.2979,-38.5 416.7842,-38.5 416.7842,-.5 297.2979,-.5"/>
<text text-anchor="start" x="305.2979" y="-26.5" font-family="FreeSans" font-size="10.00" fill="#000000">DGtal::PointVector</text>
<text text-anchor="start" x="305.2979" y="-16.5" font-family="FreeSans" font-size="10.00" fill="#000000">&lt; dim, TEuclideanRing,</text>
<text text-anchor="middle" x="357.041" y="-6.5" font-family="FreeSans" font-size="10.00" fill="#000000"> TContainer &gt;</text>
</a>
</g>
</g>
<!-- Node14&#45;&gt;Node10 -->
<g id="edge13" class="edge">
<title>Node14&#45;&gt;Node10</title>
<path fill="none" stroke="#9a32cd" stroke-dasharray="5,2" d="M427.0921,-13.6648C452.7079,-13.1747 481.737,-14.5605 507.6016,-20.5 523.0797,-24.0544 539.1819,-31.5804 551.7354,-38.4411"/>
<polygon fill="#9a32cd" stroke="#9a32cd" points="426.982,-10.1665 417.0869,-13.953 427.1835,-17.1636 426.982,-10.1665"/>
<text text-anchor="middle" x="471.1929" y="-22.5" font-family="FreeSans" font-size="10.00" fill="#000000"> zero</text>
</g>
<!-- Node14&#45;&gt;Node10 -->
<g id="edge16" class="edge">
<title>Node14&#45;&gt;Node10</title>
<path fill="none" stroke="#ffa500" stroke-dasharray="5,2" d="M427.0238,-30.1087C459.0806,-34.9681 496.3145,-40.6124 525.3794,-45.0183"/>
<polygon fill="#ffa500" stroke="#ffa500" points="427.2263,-26.5994 416.8146,-28.561 426.1771,-33.5204 427.2263,-26.5994"/>
<text text-anchor="middle" x="471.1929" y="-44.5" font-family="FreeSans" font-size="10.00" fill="#000000"> &lt; dim, Integer &gt;</text>
</g>
<!-- Node14&#45;&gt;Node14 -->
<g id="edge15" class="edge">
<title>Node14&#45;&gt;Node14</title>
<path fill="none" stroke="#9a32cd" stroke-dasharray="5,2" d="M337.5446,-48.7834C340.2883,-53.6472 346.7871,-57 357.041,-57 373.4473,-57 380.2405,-48.4169 377.4207,-38.7945"/>
<polygon fill="#9a32cd" stroke="#9a32cd" points="341.0286,-48.4474 336.6614,-38.7945 334.0558,-49.0639 341.0286,-48.4474"/>
<text text-anchor="middle" x="357.041" y="-59" font-family="FreeSans" font-size="10.00" fill="#000000"> zero</text>
</g>
<!-- Node15 -->
<g id="node15" class="node">
<title>Node15</title>
<polygon fill="#ffffff" stroke="#bfbfbf" points="115.957,-10.5 115.957,-28.5 181.4248,-28.5 181.4248,-10.5 115.957,-10.5"/>
<text text-anchor="middle" x="148.6909" y="-16.5" font-family="FreeSans" font-size="10.00" fill="#000000">TContainer</text>
</g>
<!-- Node15&#45;&gt;Node14 -->
<g id="edge14" class="edge">
<title>Node15&#45;&gt;Node14</title>
<path fill="none" stroke="#9a32cd" stroke-dasharray="5,2" d="M191.974,-19.5C222.3456,-19.5 263.3576,-19.5 296.9031,-19.5"/>
<polygon fill="#9a32cd" stroke="#9a32cd" points="191.7046,-16.0001 181.7046,-19.5 191.7046,-23.0001 191.7046,-16.0001"/>
<text text-anchor="middle" x="243.1626" y="-21.5" font-family="FreeSans" font-size="10.00" fill="#000000"> myArray</text>
</g>
<!-- Node16&#45;&gt;Node9 -->
<g id="edge17" class="edge">
<title>Node16&#45;&gt;Node9</title>
<path fill="none" stroke="#ffa500" stroke-dasharray="5,2" d="M863.9715,-35.5514C895.7105,-38.7483 931.8819,-42.3917 962.5337,-45.4791"/>
<polygon fill="#ffa500" stroke="#ffa500" points="864.1354,-32.0503 853.835,-34.5304 863.4339,-39.0151 864.1354,-32.0503"/>
<text text-anchor="middle" x="908.1372" y="-45.5" font-family="FreeSans" font-size="10.00" fill="#000000"> &lt; dim, Integer &gt;</text>
</g>
<!-- Node17&#45;&gt;Node7 -->
<g id="edge20" class="edge">
<title>Node17&#45;&gt;Node7</title>
<path fill="none" stroke="#ffa500" stroke-dasharray="5,2" d="M1663.2264,-86.0967C1689.4512,-88.6372 1718.4492,-91.4462 1743.8205,-93.9039"/>
<polygon fill="#ffa500" stroke="#ffa500" points="1663.2353,-82.5813 1652.9444,-85.1007 1662.5603,-89.5487 1663.2353,-82.5813"/>
<text text-anchor="middle" x="1698.3584" y="-94.5" font-family="FreeSans" font-size="10.00" fill="#000000"> &lt; KSpace &gt;</text>
</g>
</g>
</svg>
        <g id="navigator" transform="translate(0 0)" fill="#404254">
                <rect fill="#f2f5e9" fill-opacity="0.5" stroke="#606060" stroke-width=".5" x="0" y="0" width="60" height="60"/>
                <use id="zoomplus" xlink:href="#zoomPlus" x="17" y="9" onmousedown="handleZoom(evt,'in')"/>
                <use id="zoomminus" xlink:href="#zoomMin" x="42" y="9" onmousedown="handleZoom(evt,'out')"/>
                <use id="reset" xlink:href="#resetDef" x="30" y="36" onmousedown="handleReset()"/>
                <g id="arrowUp" xlink:href="#dirArrow" transform="translate(30 24)" onmousedown="handlePan(0,-1)">
                  <use xlink:href="#rim" fill="#404040">
                        <set attributeName="fill" to="#808080" begin="arrowUp.mouseover" end="arrowUp.mouseout"/>
                  </use>
                  <path fill="none" stroke="white" stroke-width="1.5" d="M0,-3.0v7 M-2.5,-0.5L0,-3.0L2.5,-0.5"/>
                </g>
                <g id="arrowRight" xlink:href="#dirArrow" transform="rotate(90) translate(36 -43)" onmousedown="handlePan(1,0)">
                  <use xlink:href="#rim" fill="#404040">
                        <set attributeName="fill" to="#808080" begin="arrowRight.mouseover" end="arrowRight.mouseout"/>
                  </use>
                  <path fill="none" stroke="white" stroke-width="1.5" d="M0,-3.0v7 M-2.5,-0.5L0,-3.0L2.5,-0.5"/>
                </g>
                <g id="arrowDown" xlink:href="#dirArrow" transform="rotate(180) translate(-30 -48)" onmousedown="handlePan(0,1)">
                  <use xlink:href="#rim" fill="#404040">
                        <set attributeName="fill" to="#808080" begin="arrowDown.mouseover" end="arrowDown.mouseout"/>
                  </use>
                  <path fill="none" stroke="white" stroke-width="1.5" d="M0,-3.0v7 M-2.5,-0.5L0,-3.0L2.5,-0.5"/>
                </g>
                <g id="arrowLeft" xlink:href="#dirArrow" transform="rotate(270) translate(-36 17)" onmousedown="handlePan(-1,0)">
                  <use xlink:href="#rim" fill="#404040">
                        <set attributeName="fill" to="#808080" begin="arrowLeft.mouseover" end="arrowLeft.mouseout"/>
                  </use>
                  <path fill="none" stroke="white" stroke-width="1.5" d="M0,-3.0v7 M-2.5,-0.5L0,-3.0L2.5,-0.5"/>
                </g>
        </g>
        <svg viewBox="0 0 15 15" width="100%" height="30px" preserveAspectRatio="xMaxYMin meet">
         <g id="arrow_out" transform="scale(0.3 0.3)">
          <a xlink:href="classDGtal_1_1SetOfSurfels_1_1Tracker__coll__graph_org.svg" target="_base">
           <rect id="button" ry="5" rx="5" y="6" x="6" height="38" width="38"
                fill="#f2f5e9" fill-opacity="0.5" stroke="#606060" stroke-width="1.0"/>
           <path id="arrow"
             d="M 11.500037,31.436501 C 11.940474,20.09759 22.043105,11.32322 32.158766,21.979434 L 37.068811,17.246167 C 37.068811,17.246167 37.088388,32 37.088388,32 L 22.160133,31.978069 C 22.160133,31.978069 26.997745,27.140456 26.997745,27.140456 C 18.528582,18.264221 13.291696,25.230495 11.500037,31.436501 z"
             style="fill:#404040;"/>
          </a>
         </g>
        </svg>
</svg>
