<?xml version="1.0" encoding="UTF-8" standalone="no"?>
<!DOCTYPE svg PUBLIC "-//W3C//DTD SVG 1.1//EN"
 "http://www.w3.org/Graphics/SVG/1.1/DTD/svg11.dtd">
<!-- Generated by graphviz version 2.40.1 (20161225.0304)
 -->
<!-- Title: greedy&#45;plane&#45;segmentation&#45;ex2.cpp Pages: 1 -->
<svg width="3325pt" height="627pt"
 viewBox="0.00 0.00 3325.08 627.00" xmlns="http://www.w3.org/2000/svg" xmlns:xlink="http://www.w3.org/1999/xlink">
<g id="graph0" class="graph" transform="scale(1 1) rotate(0) translate(4 623)">
<title>greedy&#45;plane&#45;segmentation&#45;ex2.cpp</title>
<polygon fill="#ffffff" stroke="transparent" points="-4,4 -4,-623 3321.0776,-623 3321.0776,4 -4,4"/>
<!-- Node0 -->
<g id="node1" class="node">
<title>Node0</title>
<polygon fill="#bfbfbf" stroke="#000000" points="2497.6299,-590.5 2497.6299,-618.5 2635.373,-618.5 2635.373,-590.5 2497.6299,-590.5"/>
<text text-anchor="start" x="2505.6299" y="-606.5" font-family="FreeSans" font-size="10.00" fill="#000000">greedy&#45;plane&#45;segmentation</text>
<text text-anchor="middle" x="2566.5015" y="-596.5" font-family="FreeSans" font-size="10.00" fill="#000000">&#45;ex2.cpp</text>
</g>
<!-- Node1 -->
<g id="node2" class="node">
<title>Node1</title>
<polygon fill="#ffffff" stroke="#bfbfbf" points="1651.3291,-.5 1651.3291,-18.5 1705.6738,-18.5 1705.6738,-.5 1651.3291,-.5"/>
<text text-anchor="middle" x="1678.5015" y="-6.5" font-family="FreeSans" font-size="10.00" fill="#000000">iostream</text>
</g>
<!-- Node0&#45;&gt;Node1 -->
<g id="edge1" class="edge">
<title>Node0&#45;&gt;Node1</title>
<path fill="none" stroke="#191970" d="M2635.476,-602.597C2726.9633,-598.8071 2892.9234,-587.5176 3030.5015,-554 3106.2246,-535.5519 3191.5015,-562.4379 3191.5015,-484.5 3191.5015,-484.5 3191.5015,-484.5 3191.5015,-119.5 3191.5015,-48.561 3114.6582,-70.8017 3045.5015,-55 2912.8197,-24.6834 1921.4113,-12.1752 1715.7765,-9.8932"/>
<polygon fill="#191970" stroke="#191970" points="1715.8095,-6.3934 1705.7717,-9.7834 1715.7326,-13.393 1715.8095,-6.3934"/>
</g>
<!-- Node2 -->
<g id="node3" class="node">
<title>Node2</title>
<polygon fill="#ffffff" stroke="#bfbfbf" points="2465.8857,-410.5 2465.8857,-428.5 2509.1172,-428.5 2509.1172,-410.5 2465.8857,-410.5"/>
<text text-anchor="middle" x="2487.5015" y="-416.5" font-family="FreeSans" font-size="10.00" fill="#000000">vector</text>
</g>
<!-- Node0&#45;&gt;Node2 -->
<g id="edge2" class="edge">
<title>Node0&#45;&gt;Node2</title>
<path fill="none" stroke="#191970" d="M2560.4336,-590.2905C2546.3591,-557.3312 2511.4832,-475.6598 2495.606,-438.4791"/>
<polygon fill="#191970" stroke="#191970" points="2498.6439,-436.6807 2491.4979,-428.8587 2492.2063,-439.4298 2498.6439,-436.6807"/>
</g>
<!-- Node3 -->
<g id="node4" class="node">
<title>Node3</title>
<polygon fill="#ffffff" stroke="#bfbfbf" points="3029.8315,-410.5 3029.8315,-428.5 3059.1714,-428.5 3059.1714,-410.5 3029.8315,-410.5"/>
<text text-anchor="middle" x="3044.5015" y="-416.5" font-family="FreeSans" font-size="10.00" fill="#000000">set</text>
</g>
<!-- Node0&#45;&gt;Node3 -->
<g id="edge3" class="edge">
<title>Node0&#45;&gt;Node3</title>
<path fill="none" stroke="#191970" d="M2635.6214,-599.1723C2741.7579,-590.4698 2935.4084,-572.3308 2961.5015,-554 2995.8199,-529.8907 2981.8157,-505.2756 3004.5015,-470 3012.005,-458.3323 3021.6271,-446.1163 3029.5536,-436.6221"/>
<polygon fill="#191970" stroke="#191970" points="3032.4283,-438.6448 3036.2469,-428.762 3027.0988,-434.1064 3032.4283,-438.6448"/>
</g>
<!-- Node4 -->
<g id="node5" class="node">
<title>Node4</title>
<polygon fill="#ffffff" stroke="#bfbfbf" points="1539.7749,-410.5 1539.7749,-428.5 1575.228,-428.5 1575.228,-410.5 1539.7749,-410.5"/>
<text text-anchor="middle" x="1557.5015" y="-416.5" font-family="FreeSans" font-size="10.00" fill="#000000">map</text>
</g>
<!-- Node0&#45;&gt;Node4 -->
<g id="edge4" class="edge">
<title>Node0&#45;&gt;Node4</title>
<path fill="none" stroke="#191970" d="M2497.3628,-601.3984C2353.9176,-594.5879 2028.2698,-577.0759 1919.5015,-554 1763.1537,-520.8299 1724.3233,-503.7149 1580.5015,-434 1580.1988,-433.8533 1579.8952,-433.7035 1579.5909,-433.551"/>
<polygon fill="#191970" stroke="#191970" points="1581.264,-430.4763 1570.8358,-428.6041 1577.8204,-436.5707 1581.264,-430.4763"/>
</g>
<!-- Node5 -->
<g id="node6" class="node">
<title>Node5</title>
<polygon fill="#ffffff" stroke="#bfbfbf" points="3015.5976,-350.5 3015.5976,-368.5 3059.4053,-368.5 3059.4053,-350.5 3015.5976,-350.5"/>
<text text-anchor="middle" x="3037.5015" y="-356.5" font-family="FreeSans" font-size="10.00" fill="#000000">queue</text>
</g>
<!-- Node0&#45;&gt;Node5 -->
<g id="edge5" class="edge">
<title>Node0&#45;&gt;Node5</title>
<path fill="none" stroke="#191970" d="M2635.6612,-600.7764C2721.7051,-595.036 2862.6533,-581.6593 2906.5015,-554 2974.632,-511.0234 3015.7016,-418.2933 3030.8422,-378.3897"/>
<polygon fill="#191970" stroke="#191970" points="3034.1927,-379.419 3034.3537,-368.8254 3027.6216,-377.0064 3034.1927,-379.419"/>
</g>
<!-- Node6 -->
<g id="node7" class="node">
<title>Node6</title>
<g id="a_node7"><a xlink:href="Common_8h_source.html" target="_top" xlink:title="DGtal/base/Common.h">
<polygon fill="#ffffff" stroke="#000000" points="1626.647,-230.5 1626.647,-248.5 1744.3559,-248.5 1744.3559,-230.5 1626.647,-230.5"/>
<text text-anchor="middle" x="1685.5015" y="-236.5" font-family="FreeSans" font-size="10.00" fill="#000000">DGtal/base/Common.h</text>
</a>
</g>
</g>
<!-- Node0&#45;&gt;Node6 -->
<g id="edge6" class="edge">
<title>Node0&#45;&gt;Node6</title>
<path fill="none" stroke="#191970" d="M2497.4614,-603.0161C2316.8258,-598.7445 1833.4135,-584.7095 1676.5015,-554 1582.9136,-535.6838 1473.5015,-579.8634 1473.5015,-484.5 1473.5015,-484.5 1473.5015,-484.5 1473.5015,-419.5 1473.5015,-387.4776 1472.8974,-375.3202 1492.5015,-350 1531.9467,-299.0532 1601.9781,-267.5725 1645.9575,-251.8282"/>
<polygon fill="#191970" stroke="#191970" points="1647.1675,-255.1131 1655.4645,-248.5244 1644.8697,-248.501 1647.1675,-255.1131"/>
</g>
<!-- Node46 -->
<g id="node31" class="node">
<title>Node46</title>
<g id="a_node31"><a xlink:href="VolReader_8h_source.html" target="_top" xlink:title="DGtal/io/readers/VolReader.h">
<polygon fill="#ffffff" stroke="#000000" points="199.4599,-350.5 199.4599,-368.5 345.543,-368.5 345.543,-350.5 199.4599,-350.5"/>
<text text-anchor="middle" x="272.5015" y="-356.5" font-family="FreeSans" font-size="10.00" fill="#000000">DGtal/io/readers/VolReader.h</text>
</a>
</g>
</g>
<!-- Node0&#45;&gt;Node46 -->
<g id="edge54" class="edge">
<title>Node0&#45;&gt;Node46</title>
<path fill="none" stroke="#191970" d="M2497.3152,-603.7077C2308.7194,-601.112 1769.8698,-590.7855 1323.5015,-554 893.209,-518.5394 754.43,-608.4722 359.5015,-434 329.6454,-420.8101 302.3091,-393.907 286.5353,-376.2982"/>
<polygon fill="#191970" stroke="#191970" points="288.9614,-373.754 279.7603,-368.5013 283.6775,-378.3454 288.9614,-373.754"/>
</g>
<!-- Node51 -->
<g id="node36" class="node">
<title>Node51</title>
<g id="a_node36"><a xlink:href="Display3D_8h_source.html" target="_top" xlink:title="DGtal/io/Display3D.h">
<polygon fill="#ffffff" stroke="#ff0000" points="1836.0952,-475.5 1836.0952,-493.5 1944.9077,-493.5 1944.9077,-475.5 1836.0952,-475.5"/>
<text text-anchor="middle" x="1890.5015" y="-481.5" font-family="FreeSans" font-size="10.00" fill="#000000">DGtal/io/Display3D.h</text>
</a>
</g>
</g>
<!-- Node0&#45;&gt;Node51 -->
<g id="edge65" class="edge">
<title>Node0&#45;&gt;Node51</title>
<path fill="none" stroke="#191970" d="M2497.3344,-592.2218C2364.8079,-568.6964 2077.1108,-517.6259 1951.3734,-495.3057"/>
<polygon fill="#191970" stroke="#191970" points="1951.9786,-491.8585 1941.5207,-493.5567 1950.755,-498.7507 1951.9786,-491.8585"/>
</g>
<!-- Node103 -->
<g id="node41" class="node">
<title>Node103</title>
<g id="a_node41"><a xlink:href="StdDefs_8h_source.html" target="_top" xlink:title="DGtal/helpers/StdDefs.h">
<polygon fill="#ffffff" stroke="#ff0000" points="1501.5879,-350.5 1501.5879,-368.5 1625.415,-368.5 1625.415,-350.5 1501.5879,-350.5"/>
<text text-anchor="middle" x="1563.5015" y="-356.5" font-family="FreeSans" font-size="10.00" fill="#000000">DGtal/helpers/StdDefs.h</text>
</a>
</g>
</g>
<!-- Node0&#45;&gt;Node103 -->
<g id="edge134" class="edge">
<title>Node0&#45;&gt;Node103</title>
<path fill="none" stroke="#191970" d="M2497.3875,-601.7154C2340.339,-595.0661 1960.5067,-577.0822 1834.5015,-554 1691.6224,-527.8268 1605.2618,-558.5405 1530.5015,-434 1519.1982,-415.1703 1533.7411,-391.7796 1546.9388,-376.2851"/>
<polygon fill="#191970" stroke="#191970" points="1549.8187,-378.3206 1553.9597,-368.5685 1544.641,-373.6097 1549.8187,-378.3206"/>
</g>
<!-- Node180 -->
<g id="node42" class="node">
<title>Node180</title>
<g id="a_node42"><a xlink:href="DrawWithDisplay3DModifier_8h_source.html" target="_top" xlink:title="DGtal/io/DrawWithDisplay3\lDModifier.h">
<polygon fill="#ffffff" stroke="#ff0000" points="1707.2085,-405.5 1707.2085,-433.5 1843.7944,-433.5 1843.7944,-405.5 1707.2085,-405.5"/>
<text text-anchor="start" x="1715.2085" y="-421.5" font-family="FreeSans" font-size="10.00" fill="#000000">DGtal/io/DrawWithDisplay3</text>
<text text-anchor="middle" x="1775.5015" y="-411.5" font-family="FreeSans" font-size="10.00" fill="#000000">DModifier.h</text>
</a>
</g>
</g>
<!-- Node0&#45;&gt;Node180 -->
<g id="edge107" class="edge">
<title>Node0&#45;&gt;Node180</title>
<path fill="none" stroke="#191970" d="M2497.6194,-601.9126C2336.0071,-594.7102 1937.8187,-570.0538 1827.5015,-499 1807.0285,-485.8137 1792.8732,-461.3907 1784.5586,-443.0802"/>
<polygon fill="#191970" stroke="#191970" points="1787.6784,-441.4732 1780.5372,-433.6466 1781.239,-444.2182 1787.6784,-441.4732"/>
</g>
<!-- Node183 -->
<g id="node43" class="node">
<title>Node183</title>
<g id="a_node43"><a xlink:href="Viewer3D_8h_source.html" target="_top" xlink:title="DGtal/io/viewers/Viewer3D.h">
<polygon fill="#ffffff" stroke="#ff0000" points="2327.9565,-535.5 2327.9565,-553.5 2471.0464,-553.5 2471.0464,-535.5 2327.9565,-535.5"/>
<text text-anchor="middle" x="2399.5015" y="-541.5" font-family="FreeSans" font-size="10.00" fill="#000000">DGtal/io/viewers/Viewer3D.h</text>
</a>
</g>
</g>
<!-- Node0&#45;&gt;Node183 -->
<g id="edge100" class="edge">
<title>Node0&#45;&gt;Node183</title>
<path fill="none" stroke="#191970" d="M2527.3474,-590.4327C2499.1846,-580.3143 2461.5404,-566.7895 2434.4022,-557.0392"/>
<polygon fill="#191970" stroke="#191970" points="2435.5107,-553.7185 2424.9162,-553.6311 2433.1438,-560.3062 2435.5107,-553.7185"/>
</g>
<!-- Node191 -->
<g id="node44" class="node">
<title>Node191</title>
<g id="a_node44"><a xlink:href="ImageSelector_8h_source.html" target="_top" xlink:title="DGtal/images/ImageSelector.h">
<polygon fill="#ffffff" stroke="#ff0000" points="2834.689,-290.5 2834.689,-308.5 2986.314,-308.5 2986.314,-290.5 2834.689,-290.5"/>
<text text-anchor="middle" x="2910.5015" y="-296.5" font-family="FreeSans" font-size="10.00" fill="#000000">DGtal/images/ImageSelector.h</text>
</a>
</g>
</g>
<!-- Node0&#45;&gt;Node191 -->
<g id="edge108" class="edge">
<title>Node0&#45;&gt;Node191</title>
<path fill="none" stroke="#191970" d="M2628.2857,-590.4269C2704.2146,-571.7349 2826.2495,-536.665 2852.5015,-499 2859.8713,-488.4261 2855.1771,-482.6081 2852.5015,-470 2848.8667,-452.8723 2840.1362,-451.1277 2836.5015,-434 2833.8258,-421.3919 2832.6207,-417.2908 2836.5015,-405 2847.7593,-369.3452 2875.8562,-335.2806 2894.0081,-315.9256"/>
<polygon fill="#191970" stroke="#191970" points="2896.6792,-318.1977 2901.1005,-308.5695 2891.64,-313.3391 2896.6792,-318.1977"/>
</g>
<!-- Node210 -->
<g id="node45" class="node">
<title>Node210</title>
<g id="a_node45"><a xlink:href="SetFromImage_8h_source.html" target="_top" xlink:title="DGtal/images/imagesSetsUtils\l/SetFromImage.h">
<polygon fill="#ffffff" stroke="#ff0000" points="983.9795,-470.5 983.9795,-498.5 1135.0234,-498.5 1135.0234,-470.5 983.9795,-470.5"/>
<text text-anchor="start" x="991.9795" y="-486.5" font-family="FreeSans" font-size="10.00" fill="#000000">DGtal/images/imagesSetsUtils</text>
<text text-anchor="middle" x="1059.5015" y="-476.5" font-family="FreeSans" font-size="10.00" fill="#000000">/SetFromImage.h</text>
</a>
</g>
</g>
<!-- Node0&#45;&gt;Node210 -->
<g id="edge111" class="edge">
<title>Node0&#45;&gt;Node210</title>
<path fill="none" stroke="#191970" d="M2497.6031,-602.5C2288.3587,-596.2451 1662.226,-576.1459 1459.5015,-554 1345.7753,-541.5764 1215.4671,-516.969 1135.3185,-500.6212"/>
<polygon fill="#191970" stroke="#191970" points="1135.8144,-497.1501 1125.3152,-498.5705 1134.4086,-504.0075 1135.8144,-497.1501"/>
</g>
<!-- Node213 -->
<g id="node46" class="node">
<title>Node213</title>
<g id="a_node46"><a xlink:href="DigitalSurface_8h_source.html" target="_top" xlink:title="DGtal/topology/DigitalSurface.h">
<polygon fill="#ffffff" stroke="#ff0000" points="2541.7432,-475.5 2541.7432,-493.5 2697.2598,-493.5 2697.2598,-475.5 2541.7432,-475.5"/>
<text text-anchor="middle" x="2619.5015" y="-481.5" font-family="FreeSans" font-size="10.00" fill="#000000">DGtal/topology/DigitalSurface.h</text>
</a>
</g>
</g>
<!-- Node0&#45;&gt;Node213 -->
<g id="edge115" class="edge">
<title>Node0&#45;&gt;Node213</title>
<path fill="none" stroke="#191970" d="M2572.7894,-590.2632C2582.3914,-568.5228 2600.7099,-527.0469 2611.3301,-503.0012"/>
<polygon fill="#191970" stroke="#191970" points="2614.6473,-504.1534 2615.4859,-493.5918 2608.2441,-501.3252 2614.6473,-504.1534"/>
</g>
<!-- Node222 -->
<g id="node47" class="node">
<title>Node222</title>
<g id="a_node47"><a xlink:href="DigitalSetBoundary_8h_source.html" target="_top" xlink:title="DGtal/topology/DigitalSet\lBoundary.h">
<polygon fill="#ffffff" stroke="#ff0000" points="2715.6396,-470.5 2715.6396,-498.5 2843.3633,-498.5 2843.3633,-470.5 2715.6396,-470.5"/>
<text text-anchor="start" x="2723.6396" y="-486.5" font-family="FreeSans" font-size="10.00" fill="#000000">DGtal/topology/DigitalSet</text>
<text text-anchor="middle" x="2779.5015" y="-476.5" font-family="FreeSans" font-size="10.00" fill="#000000">Boundary.h</text>
</a>
</g>
</g>
<!-- Node0&#45;&gt;Node222 -->
<g id="edge121" class="edge">
<title>Node0&#45;&gt;Node222</title>
<path fill="none" stroke="#191970" d="M2591.3521,-590.4996C2629.4871,-569.0151 2702.5282,-527.8652 2745.5258,-503.6412"/>
<polygon fill="#191970" stroke="#191970" points="2747.4853,-506.5546 2754.4798,-498.5967 2744.0494,-500.4558 2747.4853,-506.5546"/>
</g>
<!-- Node228 -->
<g id="node48" class="node">
<title>Node228</title>
<g id="a_node48"><a xlink:href="BreadthFirstVisitor_8h_source.html" target="_top" xlink:title="DGtal/graph/BreadthFirst\lVisitor.h">
<polygon fill="#ffffff" stroke="#ff0000" points="2845.9228,-405.5 2845.9228,-433.5 2973.0801,-433.5 2973.0801,-405.5 2845.9228,-405.5"/>
<text text-anchor="start" x="2853.9228" y="-421.5" font-family="FreeSans" font-size="10.00" fill="#000000">DGtal/graph/BreadthFirst</text>
<text text-anchor="middle" x="2909.5015" y="-411.5" font-family="FreeSans" font-size="10.00" fill="#000000">Visitor.h</text>
</a>
</g>
</g>
<!-- Node0&#45;&gt;Node228 -->
<g id="edge125" class="edge">
<title>Node0&#45;&gt;Node228</title>
<path fill="none" stroke="#191970" d="M2635.5161,-602.678C2718.5207,-598.9856 2851.0215,-587.8115 2885.5015,-554 2914.763,-525.3057 2915.4584,-474.0763 2912.8183,-443.8018"/>
<polygon fill="#191970" stroke="#191970" points="2916.2795,-443.2504 2911.7415,-433.6767 2909.3188,-443.9908 2916.2795,-443.2504"/>
</g>
<!-- Node236 -->
<g id="node49" class="node">
<title>Node236</title>
<g id="a_node49"><a xlink:href="COBANaivePlaneComputer_8h_source.html" target="_top" xlink:title="DGtal/geometry/surfaces\l/COBANaivePlaneComputer.h">
<polygon fill="#ffffff" stroke="#ff0000" points="3013.5215,-470.5 3013.5215,-498.5 3163.4814,-498.5 3163.4814,-470.5 3013.5215,-470.5"/>
<text text-anchor="start" x="3021.5215" y="-486.5" font-family="FreeSans" font-size="10.00" fill="#000000">DGtal/geometry/surfaces</text>
<text text-anchor="middle" x="3088.5015" y="-476.5" font-family="FreeSans" font-size="10.00" fill="#000000">/COBANaivePlaneComputer.h</text>
</a>
</g>
</g>
<!-- Node0&#45;&gt;Node236 -->
<g id="edge130" class="edge">
<title>Node0&#45;&gt;Node236</title>
<path fill="none" stroke="#191970" d="M2635.5599,-600.9883C2740.6428,-594.8833 2935.2644,-580.3707 2999.5015,-554 3025.8407,-543.1871 3050.9393,-522.2742 3067.7276,-506.2013"/>
<polygon fill="#191970" stroke="#191970" points="3070.6063,-508.2782 3075.2705,-498.7652 3065.692,-503.2932 3070.6063,-508.2782"/>
</g>
<!-- Node246 -->
<g id="node50" class="node">
<title>Node246</title>
<polygon fill="#ffffff" stroke="#bfbfbf" points="3219.9253,-535.5 3219.9253,-553.5 3317.0776,-553.5 3317.0776,-535.5 3219.9253,-535.5"/>
<text text-anchor="middle" x="3268.5015" y="-541.5" font-family="FreeSans" font-size="10.00" fill="#000000">ConfigExamples.h</text>
</g>
<!-- Node0&#45;&gt;Node246 -->
<g id="edge135" class="edge">
<title>Node0&#45;&gt;Node246</title>
<path fill="none" stroke="#191970" d="M2635.684,-600.6427C2753.0936,-593.7364 2998.7586,-577.727 3205.5015,-554 3206.7995,-553.851 3208.112,-553.6956 3209.4346,-553.5346"/>
<polygon fill="#191970" stroke="#191970" points="3210.2392,-556.9598 3219.7078,-552.2064 3209.3416,-550.0175 3210.2392,-556.9598"/>
</g>
<!-- Node6&#45;&gt;Node1 -->
<g id="edge7" class="edge">
<title>Node6&#45;&gt;Node1</title>
<path fill="none" stroke="#191970" d="M1627.1968,-230.4416C1586.7515,-222.8291 1537.9897,-210.5347 1525.5015,-194 1483.0806,-137.8338 1565.3635,-132.1332 1621.5015,-74 1636.4888,-58.4799 1652.7007,-39.9508 1663.9891,-26.7428"/>
<polygon fill="#191970" stroke="#191970" points="1666.8295,-28.8051 1670.6339,-18.9168 1661.4935,-24.2744 1666.8295,-28.8051"/>
</g>
<!-- Node7 -->
<g id="node8" class="node">
<title>Node7</title>
<polygon fill="#ffffff" stroke="#bfbfbf" points="2454.0976,-170.5 2454.0976,-188.5 2512.9053,-188.5 2512.9053,-170.5 2454.0976,-170.5"/>
<text text-anchor="middle" x="2483.5015" y="-176.5" font-family="FreeSans" font-size="10.00" fill="#000000">exception</text>
</g>
<!-- Node6&#45;&gt;Node7 -->
<g id="edge8" class="edge">
<title>Node6&#45;&gt;Node7</title>
<path fill="none" stroke="#191970" d="M1744.5123,-238.2843C1898.8986,-234.7336 2312.0042,-222.7557 2445.5015,-194 2448.1289,-193.434 2450.815,-192.7159 2453.4843,-191.9032"/>
<polygon fill="#191970" stroke="#191970" points="2454.6252,-195.2121 2462.9429,-188.6496 2452.3483,-188.5928 2454.6252,-195.2121"/>
</g>
<!-- Node8 -->
<g id="node9" class="node">
<title>Node8</title>
<polygon fill="#ffffff" stroke="#bfbfbf" points="1988.9375,-55.5 1988.9375,-73.5 2046.0654,-73.5 2046.0654,-55.5 1988.9375,-55.5"/>
<text text-anchor="middle" x="2017.5015" y="-61.5" font-family="FreeSans" font-size="10.00" fill="#000000">algorithm</text>
</g>
<!-- Node6&#45;&gt;Node8 -->
<g id="edge9" class="edge">
<title>Node6&#45;&gt;Node8</title>
<path fill="none" stroke="#191970" d="M1714.2801,-230.3667C1738.1006,-222.2827 1772.457,-209.3948 1800.5015,-194 1819.7504,-183.4335 1820.5025,-174.0672 1840.5015,-165 1906.0964,-135.2602 1946.0092,-178.3125 1998.5015,-129 2010.72,-117.5216 2015.2091,-98.6237 2016.7958,-84.2428"/>
<polygon fill="#191970" stroke="#191970" points="2020.3127,-84.1311 2017.5381,-73.906 2013.3307,-83.6296 2020.3127,-84.1311"/>
</g>
<!-- Node9 -->
<g id="node10" class="node">
<title>Node9</title>
<polygon fill="#ffffff" stroke="#bfbfbf" points="1849.0312,-170.5 1849.0312,-188.5 1943.9717,-188.5 1943.9717,-170.5 1849.0312,-170.5"/>
<text text-anchor="middle" x="1896.5015" y="-176.5" font-family="FreeSans" font-size="10.00" fill="#000000">boost/version.hpp</text>
</g>
<!-- Node6&#45;&gt;Node9 -->
<g id="edge10" class="edge">
<title>Node6&#45;&gt;Node9</title>
<path fill="none" stroke="#191970" d="M1717.5478,-230.3873C1754.3205,-219.9306 1814.7294,-202.7527 1855.0526,-191.2864"/>
<polygon fill="#191970" stroke="#191970" points="1856.1835,-194.6036 1864.8449,-188.5019 1854.2689,-187.8706 1856.1835,-194.6036"/>
</g>
<!-- Node10 -->
<g id="node11" class="node">
<title>Node10</title>
<polygon fill="#ffffff" stroke="#bfbfbf" points="739.7949,-170.5 739.7949,-188.5 869.208,-188.5 869.208,-170.5 739.7949,-170.5"/>
<text text-anchor="middle" x="804.5015" y="-176.5" font-family="FreeSans" font-size="10.00" fill="#000000">boost/concept_check.hpp</text>
</g>
<!-- Node6&#45;&gt;Node10 -->
<g id="edge11" class="edge">
<title>Node6&#45;&gt;Node10</title>
<path fill="none" stroke="#191970" d="M1626.5226,-238.9402C1492.8844,-237.0681 1156.9683,-228.9648 878.5015,-194 871.0051,-193.0587 863.1279,-191.805 855.4225,-190.4274"/>
<polygon fill="#191970" stroke="#191970" points="855.9114,-186.9583 845.4385,-188.5611 854.625,-193.8391 855.9114,-186.9583"/>
</g>
<!-- Node11 -->
<g id="node12" class="node">
<title>Node11</title>
<polygon fill="#ffffff" stroke="#bfbfbf" points="1962.083,-170.5 1962.083,-188.5 2080.9199,-188.5 2080.9199,-170.5 1962.083,-170.5"/>
<text text-anchor="middle" x="2021.5015" y="-176.5" font-family="FreeSans" font-size="10.00" fill="#000000">boost/static_assert.hpp</text>
</g>
<!-- Node6&#45;&gt;Node11 -->
<g id="edge12" class="edge">
<title>Node6&#45;&gt;Node11</title>
<path fill="none" stroke="#191970" d="M1742.1287,-230.4963C1796.253,-221.738 1880.092,-207.7727 1952.5015,-194 1957.988,-192.9564 1963.7105,-191.8243 1969.4107,-190.6682"/>
<polygon fill="#191970" stroke="#191970" points="1970.5005,-194.0175 1979.591,-188.5756 1969.091,-187.1608 1970.5005,-194.0175"/>
</g>
<!-- Node12 -->
<g id="node13" class="node">
<title>Node12</title>
<polygon fill="#ffffff" stroke="#bfbfbf" points="401.6323,-170.5 401.6323,-188.5 529.3706,-188.5 529.3706,-170.5 401.6323,-170.5"/>
<text text-anchor="middle" x="465.5015" y="-176.5" font-family="FreeSans" font-size="10.00" fill="#000000">boost/concept/assert.hpp</text>
</g>
<!-- Node6&#45;&gt;Node12 -->
<g id="edge13" class="edge">
<title>Node6&#45;&gt;Node12</title>
<path fill="none" stroke="#191970" d="M1626.6048,-238.3824C1423.4108,-234.3359 752.4872,-219.3384 538.5015,-194 530.9178,-193.102 522.9449,-191.8458 515.1668,-190.4447"/>
<polygon fill="#191970" stroke="#191970" points="515.5797,-186.9607 505.1028,-188.5372 514.2761,-193.8383 515.5797,-186.9607"/>
</g>
<!-- Node13 -->
<g id="node14" class="node">
<title>Node13</title>
<polygon fill="#ffffff" stroke="#bfbfbf" points="547.1841,-170.5 547.1841,-188.5 683.8188,-188.5 683.8188,-170.5 547.1841,-170.5"/>
<text text-anchor="middle" x="615.5015" y="-176.5" font-family="FreeSans" font-size="10.00" fill="#000000">boost/concept/requires.hpp</text>
</g>
<!-- Node6&#45;&gt;Node13 -->
<g id="edge14" class="edge">
<title>Node6&#45;&gt;Node13</title>
<path fill="none" stroke="#191970" d="M1626.4376,-238.2841C1476.4719,-234.8499 1068.8813,-223.3487 730.5015,-194 717.4013,-192.8638 703.4962,-191.3629 690.0507,-189.7575"/>
<polygon fill="#191970" stroke="#191970" points="690.2302,-186.2535 679.8793,-188.5138 689.3806,-193.2018 690.2302,-186.2535"/>
</g>
<!-- Node14 -->
<g id="node15" class="node">
<title>Node14</title>
<polygon fill="#ffffff" stroke="#bfbfbf" points="2099.3686,-165.5 2099.3686,-193.5 2207.6343,-193.5 2207.6343,-165.5 2099.3686,-165.5"/>
<text text-anchor="start" x="2107.3686" y="-181.5" font-family="FreeSans" font-size="10.00" fill="#000000">boost/iterator/iterator</text>
<text text-anchor="middle" x="2153.5015" y="-171.5" font-family="FreeSans" font-size="10.00" fill="#000000">_concepts.hpp</text>
</g>
<!-- Node6&#45;&gt;Node14 -->
<g id="edge15" class="edge">
<title>Node6&#45;&gt;Node14</title>
<path fill="none" stroke="#191970" d="M1744.6653,-234.9011C1821.6361,-228.4595 1960.4366,-215.2812 2089.083,-193.937"/>
<polygon fill="#191970" stroke="#191970" points="2089.8334,-197.3601 2099.1156,-192.2522 2088.674,-190.4568 2089.8334,-197.3601"/>
</g>
<!-- Node15 -->
<g id="node16" class="node">
<title>Node15</title>
<polygon fill="#ffffff" stroke="#bfbfbf" points="2225.8984,-170.5 2225.8984,-188.5 2373.1045,-188.5 2373.1045,-170.5 2225.8984,-170.5"/>
<text text-anchor="middle" x="2299.5015" y="-176.5" font-family="FreeSans" font-size="10.00" fill="#000000">boost/concept_archetype.hpp</text>
</g>
<!-- Node6&#45;&gt;Node15 -->
<g id="edge16" class="edge">
<title>Node6&#45;&gt;Node15</title>
<path fill="none" stroke="#191970" d="M1744.6148,-236.1287C1842.8593,-230.1466 2045.8391,-216.1759 2216.5015,-194 2224.7381,-192.9297 2233.4043,-191.6209 2241.9041,-190.232"/>
<polygon fill="#191970" stroke="#191970" points="2242.4884,-193.6829 2251.7702,-188.5742 2241.3284,-186.7797 2242.4884,-193.6829"/>
</g>
<!-- Node16 -->
<g id="node17" class="node">
<title>Node16</title>
<polygon fill="#ffffff" stroke="#bfbfbf" points="1945.8857,-110.5 1945.8857,-128.5 1989.1172,-128.5 1989.1172,-110.5 1945.8857,-110.5"/>
<text text-anchor="middle" x="1967.5015" y="-116.5" font-family="FreeSans" font-size="10.00" fill="#000000">cmath</text>
</g>
<!-- Node6&#45;&gt;Node16 -->
<g id="edge17" class="edge">
<title>Node6&#45;&gt;Node16</title>
<path fill="none" stroke="#191970" d="M1702.0422,-230.4224C1718.1661,-221.4688 1743.2866,-207.2401 1764.5015,-194 1784.0568,-181.7956 1786.599,-174.7183 1807.5015,-165 1819.2293,-159.5473 1892.8901,-139.446 1936.0647,-127.8672"/>
<polygon fill="#191970" stroke="#191970" points="1937.0577,-131.2247 1945.8131,-125.2586 1935.2482,-124.4626 1937.0577,-131.2247"/>
</g>
<!-- Node17 -->
<g id="node18" class="node">
<title>Node17</title>
<polygon fill="#ffffff" stroke="#bfbfbf" points="2390.77,-170.5 2390.77,-188.5 2436.2329,-188.5 2436.2329,-170.5 2390.77,-170.5"/>
<text text-anchor="middle" x="2413.5015" y="-176.5" font-family="FreeSans" font-size="10.00" fill="#000000">stdio.h</text>
</g>
<!-- Node6&#45;&gt;Node17 -->
<g id="edge18" class="edge">
<title>Node6&#45;&gt;Node17</title>
<path fill="none" stroke="#191970" d="M1744.4608,-238.4552C1889.8631,-235.4294 2262.478,-224.8195 2382.5015,-194 2384.2027,-193.5631 2385.9245,-193.0338 2387.6393,-192.4392"/>
<polygon fill="#191970" stroke="#191970" points="2389.2771,-195.5501 2397.1938,-188.509 2386.6142,-189.0764 2389.2771,-195.5501"/>
</g>
<!-- Node18 -->
<g id="node19" class="node">
<title>Node18</title>
<g id="a_node19"><a xlink:href="Config_8h_source.html" target="_top" xlink:title="DGtal/base/Config.h">
<polygon fill="#ffffff" stroke="#000000" points="1268.477,-55.5 1268.477,-73.5 1374.5259,-73.5 1374.5259,-55.5 1268.477,-55.5"/>
<text text-anchor="middle" x="1321.5015" y="-61.5" font-family="FreeSans" font-size="10.00" fill="#000000">DGtal/base/Config.h</text>
</a>
</g>
</g>
<!-- Node6&#45;&gt;Node18 -->
<g id="edge19" class="edge">
<title>Node6&#45;&gt;Node18</title>
<path fill="none" stroke="#191970" d="M1626.5162,-237.1763C1547.8591,-233.0289 1413.9435,-221.9836 1374.5015,-194 1338.2954,-168.3123 1326.7729,-113.3098 1323.1432,-83.934"/>
<polygon fill="#191970" stroke="#191970" points="1326.5962,-83.3009 1322.0757,-73.7189 1319.6341,-84.0286 1326.5962,-83.3009"/>
</g>
<!-- Node20 -->
<g id="node21" class="node">
<title>Node20</title>
<g id="a_node21"><a xlink:href="Trace_8h_source.html" target="_top" xlink:title="DGtal/base/Trace.h">
<polygon fill="#ffffff" stroke="#ff0000" points="1191.3325,-170.5 1191.3325,-188.5 1293.6704,-188.5 1293.6704,-170.5 1191.3325,-170.5"/>
<text text-anchor="middle" x="1242.5015" y="-176.5" font-family="FreeSans" font-size="10.00" fill="#000000">DGtal/base/Trace.h</text>
</a>
</g>
</g>
<!-- Node6&#45;&gt;Node20 -->
<g id="edge22" class="edge">
<title>Node6&#45;&gt;Node20</title>
<path fill="none" stroke="#191970" d="M1626.6356,-234.2488C1552.0588,-227.1759 1419.7222,-213.2217 1307.5015,-194 1301.8069,-193.0246 1295.859,-191.8776 1289.9735,-190.663"/>
<polygon fill="#191970" stroke="#191970" points="1290.6937,-187.238 1280.1835,-188.5737 1289.2327,-194.0838 1290.6937,-187.238"/>
</g>
<!-- Node27 -->
<g id="node22" class="node">
<title>Node27</title>
<g id="a_node22"><a xlink:href="TraceWriterTerm_8h_source.html" target="_top" xlink:title="DGtal/base/TraceWriterTerm.h">
<polygon fill="#ffffff" stroke="#ff0000" points="1349.9795,-110.5 1349.9795,-128.5 1501.0234,-128.5 1501.0234,-110.5 1349.9795,-110.5"/>
<text text-anchor="middle" x="1425.5015" y="-116.5" font-family="FreeSans" font-size="10.00" fill="#000000">DGtal/base/TraceWriterTerm.h</text>
</a>
</g>
</g>
<!-- Node6&#45;&gt;Node27 -->
<g id="edge33" class="edge">
<title>Node6&#45;&gt;Node27</title>
<path fill="none" stroke="#191970" d="M1626.6112,-234.7244C1543.2406,-227.3585 1399.1305,-212.1601 1383.5015,-194 1367.9632,-175.9454 1388.3944,-151.2616 1405.8148,-135.3478"/>
<polygon fill="#191970" stroke="#191970" points="1408.2073,-137.9057 1413.4668,-128.7085 1403.6198,-132.6185 1408.2073,-137.9057"/>
</g>
<!-- Node28 -->
<g id="node23" class="node">
<title>Node28</title>
<g id="a_node23"><a xlink:href="Assert_8h_source.html" target="_top" xlink:title="DGtal/base/Assert.h">
<polygon fill="#ffffff" stroke="#ff0000" points="1073.7602,-110.5 1073.7602,-128.5 1179.2427,-128.5 1179.2427,-110.5 1073.7602,-110.5"/>
<text text-anchor="middle" x="1126.5015" y="-116.5" font-family="FreeSans" font-size="10.00" fill="#000000">DGtal/base/Assert.h</text>
</a>
</g>
</g>
<!-- Node6&#45;&gt;Node28 -->
<g id="edge37" class="edge">
<title>Node6&#45;&gt;Node28</title>
<path fill="none" stroke="#191970" d="M1626.526,-236.8495C1501.9967,-230.8678 1220.5147,-215.1741 1182.5015,-194 1159.932,-181.4284 1143.7319,-155.5588 1134.7354,-137.869"/>
<polygon fill="#191970" stroke="#191970" points="1137.7536,-136.068 1130.2771,-128.5611 1131.4404,-139.0919 1137.7536,-136.068"/>
</g>
<!-- Node31 -->
<g id="node24" class="node">
<title>Node31</title>
<g id="a_node24"><a xlink:href="TraceWriterFile_8h_source.html" target="_top" xlink:title="DGtal/base/TraceWriterFile.h">
<polygon fill="#ffffff" stroke="#ff0000" points="1468.0337,-55.5 1468.0337,-73.5 1612.9692,-73.5 1612.9692,-55.5 1468.0337,-55.5"/>
<text text-anchor="middle" x="1540.5015" y="-61.5" font-family="FreeSans" font-size="10.00" fill="#000000">DGtal/base/TraceWriterFile.h</text>
</a>
</g>
</g>
<!-- Node6&#45;&gt;Node31 -->
<g id="edge34" class="edge">
<title>Node6&#45;&gt;Node31</title>
<path fill="none" stroke="#191970" d="M1626.5582,-233.3555C1552.826,-225.0656 1434.5921,-209.5397 1421.5015,-194 1373.3725,-136.8666 1481.7846,-156.289 1510.5015,-129 1523.4853,-116.6618 1531.3863,-97.6019 1535.7964,-83.3964"/>
<polygon fill="#191970" stroke="#191970" points="1539.1935,-84.2444 1538.5148,-73.6713 1532.4519,-82.3599 1539.1935,-84.2444"/>
</g>
<!-- Node32 -->
<g id="node25" class="node">
<title>Node32</title>
<g id="a_node25"><a xlink:href="ConceptUtils_8h_source.html" target="_top" xlink:title="DGtal/base/ConceptUtils.h">
<polygon fill="#ffffff" stroke="#000000" points="887.5854,-170.5 887.5854,-188.5 1021.4175,-188.5 1021.4175,-170.5 887.5854,-170.5"/>
<text text-anchor="middle" x="954.5015" y="-176.5" font-family="FreeSans" font-size="10.00" fill="#000000">DGtal/base/ConceptUtils.h</text>
</a>
</g>
</g>
<!-- Node6&#45;&gt;Node32 -->
<g id="edge38" class="edge">
<title>Node6&#45;&gt;Node32</title>
<path fill="none" stroke="#191970" d="M1626.6084,-234.6661C1495.3769,-223.8947 1178.9538,-197.9229 1031.96,-185.8577"/>
<polygon fill="#191970" stroke="#191970" points="1031.927,-182.3434 1021.6741,-185.0135 1031.3543,-189.3199 1031.927,-182.3434"/>
</g>
<!-- Node33 -->
<g id="node26" class="node">
<title>Node33</title>
<g id="a_node26"><a xlink:href="BasicTypes_8h_source.html" target="_top" xlink:title="DGtal/base/BasicTypes.h">
<polygon fill="#ffffff" stroke="#ff0000" points="2270.3613,-55.5 2270.3613,-73.5 2398.6416,-73.5 2398.6416,-55.5 2270.3613,-55.5"/>
<text text-anchor="middle" x="2334.5015" y="-61.5" font-family="FreeSans" font-size="10.00" fill="#000000">DGtal/base/BasicTypes.h</text>
</a>
</g>
</g>
<!-- Node6&#45;&gt;Node33 -->
<g id="edge40" class="edge">
<title>Node6&#45;&gt;Node33</title>
<path fill="none" stroke="#191970" d="M1744.442,-238.4892C1930.5217,-235.0133 2494.812,-222.1815 2521.5015,-194 2571.9703,-140.7097 2450.5903,-96.5395 2380.2886,-76.3358"/>
<polygon fill="#191970" stroke="#191970" points="2380.8875,-72.8685 2370.3133,-73.5306 2378.9924,-79.6072 2380.8875,-72.8685"/>
</g>
<!-- Node36 -->
<g id="node27" class="node">
<title>Node36</title>
<g id="a_node27"><a xlink:href="BasicFunctors_8h_source.html" target="_top" xlink:title="DGtal/base/BasicFunctors.h">
<polygon fill="#ffffff" stroke="#ff0000" points="1615.2529,-170.5 1615.2529,-188.5 1755.75,-188.5 1755.75,-170.5 1615.2529,-170.5"/>
<text text-anchor="middle" x="1685.5015" y="-176.5" font-family="FreeSans" font-size="10.00" fill="#000000">DGtal/base/BasicFunctors.h</text>
</a>
</g>
</g>
<!-- Node6&#45;&gt;Node36 -->
<g id="edge42" class="edge">
<title>Node6&#45;&gt;Node36</title>
<path fill="none" stroke="#191970" d="M1680.4921,-230.3873C1678.7739,-222.0174 1678.3277,-209.3414 1679.1535,-198.735"/>
<polygon fill="#191970" stroke="#191970" points="1682.6396,-199.0697 1680.4746,-188.6985 1675.6995,-198.1562 1682.6396,-199.0697"/>
</g>
<!-- Node44 -->
<g id="node29" class="node">
<title>Node44</title>
<g id="a_node29"><a xlink:href="BasicArchetypes_8h_source.html" target="_top" xlink:title="DGtal/base/BasicArchetypes.h">
<polygon fill="#ffffff" stroke="#000000" points="1595.6914,-110.5 1595.6914,-128.5 1747.3115,-128.5 1747.3115,-110.5 1595.6914,-110.5"/>
<text text-anchor="middle" x="1671.5015" y="-116.5" font-family="FreeSans" font-size="10.00" fill="#000000">DGtal/base/BasicArchetypes.h</text>
</a>
</g>
</g>
<!-- Node6&#45;&gt;Node44 -->
<g id="edge50" class="edge">
<title>Node6&#45;&gt;Node44</title>
<path fill="none" stroke="#191970" d="M1633.1656,-230.4357C1594.783,-222.5975 1547.3761,-210.0109 1535.5015,-194 1511.6705,-161.8681 1561.3275,-141.9373 1607.1888,-130.8694"/>
<polygon fill="#191970" stroke="#191970" points="1608.2278,-134.222 1617.1922,-128.5749 1606.6628,-127.3992 1608.2278,-134.222"/>
</g>
<!-- Node45 -->
<g id="node30" class="node">
<title>Node45</title>
<g id="a_node30"><a xlink:href="Exceptions_8h_source.html" target="_top" xlink:title="DGtal/base/Exceptions.h">
<polygon fill="#ffffff" stroke="#000000" points="1706.4722,-55.5 1706.4722,-73.5 1832.5307,-73.5 1832.5307,-55.5 1706.4722,-55.5"/>
<text text-anchor="middle" x="1769.5015" y="-61.5" font-family="FreeSans" font-size="10.00" fill="#000000">DGtal/base/Exceptions.h</text>
</a>
</g>
</g>
<!-- Node6&#45;&gt;Node45 -->
<g id="edge52" class="edge">
<title>Node6&#45;&gt;Node45</title>
<path fill="none" stroke="#191970" d="M1648.7364,-230.3766C1629.9228,-223.6426 1608.68,-212.3642 1597.5015,-194 1590.7998,-182.9904 1589.4566,-175.0699 1597.5015,-165 1642.7258,-108.3914 1705.8804,-180.8391 1756.5015,-129 1767.9626,-117.2631 1770.6559,-98.3968 1770.8117,-84.0934"/>
<polygon fill="#191970" stroke="#191970" points="1774.3023,-83.7174 1770.5117,-73.8239 1767.3053,-83.9219 1774.3023,-83.7174"/>
</g>
<!-- Node18&#45;&gt;Node1 -->
<g id="edge20" class="edge">
<title>Node18&#45;&gt;Node1</title>
<path fill="none" stroke="#191970" d="M1374.5625,-56.3253C1447.608,-45.0718 1577.322,-25.0879 1641.051,-15.2697"/>
<polygon fill="#191970" stroke="#191970" points="1641.7093,-18.7096 1651.0597,-13.7277 1640.6434,-11.7913 1641.7093,-18.7096"/>
</g>
<!-- Node19 -->
<g id="node20" class="node">
<title>Node19</title>
<polygon fill="#ffffff" stroke="#bfbfbf" points="1223.2749,-.5 1223.2749,-18.5 1263.728,-18.5 1263.728,-.5 1223.2749,-.5"/>
<text text-anchor="middle" x="1243.5015" y="-6.5" font-family="FreeSans" font-size="10.00" fill="#000000">string</text>
</g>
<!-- Node18&#45;&gt;Node19 -->
<g id="edge21" class="edge">
<title>Node18&#45;&gt;Node19</title>
<path fill="none" stroke="#191970" d="M1308.6213,-55.4179C1296.7661,-47.0584 1278.9512,-34.4966 1264.9499,-24.6239"/>
<polygon fill="#191970" stroke="#191970" points="1266.5903,-21.498 1256.4007,-18.5956 1262.5563,-27.2188 1266.5903,-21.498"/>
</g>
<!-- Node20&#45;&gt;Node1 -->
<g id="edge23" class="edge">
<title>Node20&#45;&gt;Node1</title>
<path fill="none" stroke="#191970" d="M1240.4401,-170.3582C1235.8283,-147.2606 1227.4465,-86.1842 1259.5015,-55 1286.6374,-28.6012 1543.7418,-15.1486 1641.2511,-10.9632"/>
<polygon fill="#191970" stroke="#191970" points="1641.4114,-14.4596 1651.2555,-10.5424 1641.1172,-7.4658 1641.4114,-14.4596"/>
</g>
<!-- Node20&#45;&gt;Node18 -->
<g id="edge25" class="edge">
<title>Node20&#45;&gt;Node18</title>
<path fill="none" stroke="#191970" d="M1248.7004,-170.4761C1261.7309,-151.5078 1292.1667,-107.2025 1309.2726,-82.3015"/>
<polygon fill="#191970" stroke="#191970" points="1312.3344,-84.0257 1315.1118,-73.8014 1306.5646,-80.0621 1312.3344,-84.0257"/>
</g>
<!-- Node20&#45;&gt;Node19 -->
<g id="edge24" class="edge">
<title>Node20&#45;&gt;Node19</title>
<path fill="none" stroke="#191970" d="M1239.4269,-170.3909C1232.8761,-149.7531 1218.7507,-97.89 1226.5015,-55 1228.1674,-45.7812 1231.5889,-35.9949 1234.9285,-27.8698"/>
<polygon fill="#191970" stroke="#191970" points="1238.1677,-29.1981 1238.9767,-18.6342 1231.7566,-26.388 1238.1677,-29.1981"/>
</g>
<!-- Node20&#45;&gt;Node27 -->
<g id="edge26" class="edge">
<title>Node20&#45;&gt;Node27</title>
<path fill="none" stroke="#191970" d="M1270.2952,-170.3873C1301.7827,-160.0635 1353.252,-143.1883 1388.2109,-131.7264"/>
<polygon fill="#191970" stroke="#191970" points="1389.6339,-134.9433 1398.0457,-128.5019 1387.453,-128.2916 1389.6339,-134.9433"/>
</g>
<!-- Node20&#45;&gt;Node28 -->
<g id="edge30" class="edge">
<title>Node20&#45;&gt;Node28</title>
<path fill="none" stroke="#191970" d="M1219.8742,-170.3873C1198.9327,-160.5952 1168.3373,-144.9092 1147.8264,-133.5388"/>
<polygon fill="#191970" stroke="#191970" points="1149.3461,-130.3774 1138.9186,-128.5019 1145.9006,-136.4707 1149.3461,-130.3774"/>
</g>
<!-- Node27&#45;&gt;Node1 -->
<g id="edge27" class="edge">
<title>Node27&#45;&gt;Node1</title>
<path fill="none" stroke="#191970" d="M1427.6411,-110.3879C1431.4697,-96.2002 1440.8929,-69.0077 1459.5015,-55 1487.7008,-33.7727 1586.279,-19.7495 1641.0657,-13.4028"/>
<polygon fill="#191970" stroke="#191970" points="1641.5384,-16.8717 1651.0824,-12.2714 1640.7527,-9.916 1641.5384,-16.8717"/>
</g>
<!-- Node27&#45;&gt;Node18 -->
<g id="edge29" class="edge">
<title>Node27&#45;&gt;Node18</title>
<path fill="none" stroke="#191970" d="M1408.328,-110.4179C1391.8435,-101.7001 1366.7172,-88.4122 1347.7282,-78.3699"/>
<polygon fill="#191970" stroke="#191970" points="1349.1767,-75.1767 1338.7004,-73.5956 1345.9041,-81.3646 1349.1767,-75.1767"/>
</g>
<!-- Node27&#45;&gt;Node19 -->
<g id="edge28" class="edge">
<title>Node27&#45;&gt;Node19</title>
<path fill="none" stroke="#191970" d="M1421.8408,-110.1559C1415.8892,-96.1531 1402.8045,-69.7939 1383.5015,-55 1351.0213,-30.107 1304.4018,-18.5535 1274.0372,-13.391"/>
<polygon fill="#191970" stroke="#191970" points="1274.4463,-9.9124 1264.0246,-11.8201 1273.3613,-16.8278 1274.4463,-9.9124"/>
</g>
<!-- Node28&#45;&gt;Node19 -->
<g id="edge32" class="edge">
<title>Node28&#45;&gt;Node19</title>
<path fill="none" stroke="#191970" d="M1127.6988,-110.4875C1129.9314,-96.9178 1135.9031,-71.1167 1150.5015,-55 1167.2245,-36.5376 1193.0962,-24.7302 1213.3103,-17.783"/>
<polygon fill="#191970" stroke="#191970" points="1214.5502,-21.0609 1223,-14.6694 1212.4087,-14.3965 1214.5502,-21.0609"/>
</g>
<!-- Node28&#45;&gt;Node20 -->
<g id="edge31" class="edge">
<title>Node28&#45;&gt;Node20</title>
<path fill="none" stroke="#191970" d="M1148.8915,-128.5019C1169.7597,-138.2492 1200.3565,-153.9291 1220.9434,-165.332"/>
<polygon fill="#191970" stroke="#191970" points="1219.4645,-168.5164 1229.8929,-170.3873 1222.9074,-162.4216 1219.4645,-168.5164"/>
</g>
<!-- Node31&#45;&gt;Node1 -->
<g id="edge35" class="edge">
<title>Node31&#45;&gt;Node1</title>
<path fill="none" stroke="#191970" d="M1563.2893,-55.4179C1585.8621,-46.4215 1620.6467,-32.5581 1646.0911,-22.4172"/>
<polygon fill="#191970" stroke="#191970" points="1647.6861,-25.5493 1655.6797,-18.5956 1645.0945,-19.0467 1647.6861,-25.5493"/>
</g>
<!-- Node31&#45;&gt;Node19 -->
<g id="edge36" class="edge">
<title>Node31&#45;&gt;Node19</title>
<path fill="none" stroke="#191970" d="M1491.7905,-55.4795C1430.0279,-44.0419 1325.4022,-24.6668 1273.9381,-15.1364"/>
<polygon fill="#191970" stroke="#191970" points="1274.2678,-11.638 1263.7977,-13.2586 1272.9931,-18.521 1274.2678,-11.638"/>
</g>
<!-- Node32&#45;&gt;Node1 -->
<g id="edge39" class="edge">
<title>Node32&#45;&gt;Node1</title>
<path fill="none" stroke="#191970" d="M950.9777,-170.4767C942.7228,-147.6573 925.0391,-87.1798 955.5015,-55 979.2778,-29.8832 1496.1173,-14.3336 1641.0298,-10.4564"/>
<polygon fill="#191970" stroke="#191970" points="1641.293,-13.9508 1651.1968,-10.1873 1641.1077,-6.9533 1641.293,-13.9508"/>
</g>
<!-- Node33&#45;&gt;Node1 -->
<g id="edge41" class="edge">
<title>Node33&#45;&gt;Node1</title>
<path fill="none" stroke="#191970" d="M2270.107,-59.1011C2134.5187,-47.7332 1823.2624,-21.637 1715.7979,-12.627"/>
<polygon fill="#191970" stroke="#191970" points="1716.0117,-9.1327 1705.7542,-11.7849 1715.4268,-16.1082 1716.0117,-9.1327"/>
</g>
<!-- Node36&#45;&gt;Node6 -->
<g id="edge49" class="edge">
<title>Node36&#45;&gt;Node6</title>
<path fill="none" stroke="#191970" d="M1690.5283,-188.6985C1692.2378,-197.0976 1692.6753,-209.7812 1691.8409,-220.3734"/>
<polygon fill="#191970" stroke="#191970" points="1688.358,-220.0135 1690.5108,-230.3873 1695.2971,-220.9352 1688.358,-220.0135"/>
</g>
<!-- Node36&#45;&gt;Node8 -->
<g id="edge43" class="edge">
<title>Node36&#45;&gt;Node8</title>
<path fill="none" stroke="#191970" d="M1729.8504,-170.4256C1782.8097,-159.3383 1868.0566,-140.6247 1898.5015,-129 1908.1423,-125.3189 1960.5817,-96.3208 1992.546,-78.4826"/>
<polygon fill="#191970" stroke="#191970" points="1994.3304,-81.4949 2001.3524,-73.5613 1990.9156,-75.3843 1994.3304,-81.4949"/>
</g>
<!-- Node36&#45;&gt;Node16 -->
<g id="edge44" class="edge">
<title>Node36&#45;&gt;Node16</title>
<path fill="none" stroke="#191970" d="M1733.7547,-170.4163C1783.4802,-160.8631 1863.1594,-145.0191 1931.5015,-129 1932.9568,-128.6589 1934.443,-128.3019 1935.9425,-127.9346"/>
<polygon fill="#191970" stroke="#191970" points="1937.0155,-131.2734 1945.8481,-125.4223 1935.2946,-124.4882 1937.0155,-131.2734"/>
</g>
<!-- Node38 -->
<g id="node28" class="node">
<title>Node38</title>
<g id="a_node28"><a xlink:href="Color_8h_source.html" target="_top" xlink:title="DGtal/io/Color.h">
<polygon fill="#ffffff" stroke="#ff0000" points="1803.206,-110.5 1803.206,-128.5 1889.7969,-128.5 1889.7969,-110.5 1803.206,-110.5"/>
<text text-anchor="middle" x="1846.5015" y="-116.5" font-family="FreeSans" font-size="10.00" fill="#000000">DGtal/io/Color.h</text>
</a>
</g>
</g>
<!-- Node36&#45;&gt;Node38 -->
<g id="edge45" class="edge">
<title>Node36&#45;&gt;Node38</title>
<path fill="none" stroke="#191970" d="M1709.9539,-170.3873C1737.4182,-160.1521 1782.1616,-143.4776 1812.8987,-132.0228"/>
<polygon fill="#191970" stroke="#191970" points="1814.1982,-135.2737 1822.3464,-128.5019 1811.7537,-128.7144 1814.1982,-135.2737"/>
</g>
<!-- Node38&#45;&gt;Node1 -->
<g id="edge46" class="edge">
<title>Node38&#45;&gt;Node1</title>
<path fill="none" stroke="#191970" d="M1848.7433,-110.406C1851.5325,-96.7299 1854.4812,-70.7916 1841.5015,-55 1825.6455,-35.709 1758.9799,-21.9756 1715.9709,-14.9247"/>
<polygon fill="#191970" stroke="#191970" points="1716.2819,-11.4303 1705.8565,-13.3176 1715.1834,-18.3436 1716.2819,-11.4303"/>
</g>
<!-- Node38&#45;&gt;Node6 -->
<g id="edge47" class="edge">
<title>Node38&#45;&gt;Node6</title>
<path fill="none" stroke="#191970" d="M1803.1871,-126.9937C1734.9155,-138.9045 1609.6461,-161.2031 1606.5015,-165 1598.2801,-174.9264 1600.0511,-182.8413 1606.5015,-194 1615.0944,-208.8654 1630.5913,-219.3027 1645.5976,-226.3953"/>
<polygon fill="#191970" stroke="#191970" points="1644.2445,-229.6234 1654.8117,-230.389 1647.0283,-223.2008 1644.2445,-229.6234"/>
</g>
<!-- Node38&#45;&gt;Node8 -->
<g id="edge48" class="edge">
<title>Node38&#45;&gt;Node8</title>
<path fill="none" stroke="#191970" d="M1874.7386,-110.4179C1903.4137,-101.1949 1947.9925,-86.8567 1979.7005,-76.6582"/>
<polygon fill="#191970" stroke="#191970" points="1981.0585,-79.8981 1989.5065,-73.5042 1978.9151,-73.2343 1981.0585,-79.8981"/>
</g>
<!-- Node44&#45;&gt;Node1 -->
<g id="edge51" class="edge">
<title>Node44&#45;&gt;Node1</title>
<path fill="none" stroke="#191970" d="M1672.0743,-110.4982C1673.2075,-92.6913 1675.7573,-52.6225 1677.2827,-28.6515"/>
<polygon fill="#191970" stroke="#191970" points="1680.7785,-28.8283 1677.9207,-18.6261 1673.7926,-28.3836 1680.7785,-28.8283"/>
</g>
<!-- Node45&#45;&gt;Node1 -->
<g id="edge53" class="edge">
<title>Node45&#45;&gt;Node1</title>
<path fill="none" stroke="#191970" d="M1754.4747,-55.4179C1740.2483,-46.8195 1718.6662,-33.7754 1702.1357,-23.7844"/>
<polygon fill="#191970" stroke="#191970" points="1703.9193,-20.7729 1693.5506,-18.5956 1700.2985,-26.7637 1703.9193,-20.7729"/>
</g>
<!-- Node46&#45;&gt;Node1 -->
<g id="edge55" class="edge">
<title>Node46&#45;&gt;Node1</title>
<path fill="none" stroke="#191970" d="M284.3553,-350.2943C294.3744,-341.89 308.3595,-328.584 316.5015,-314 333.1583,-284.1637 335.5015,-273.671 335.5015,-239.5 335.5015,-239.5 335.5015,-239.5 335.5015,-119.5 335.5015,-88.9131 334.6882,-72.8846 359.5015,-55 372.8682,-45.3657 1427.9552,-16.2878 1641.1832,-10.506"/>
<polygon fill="#191970" stroke="#191970" points="1641.3519,-14.0028 1651.2534,-10.2333 1641.1623,-7.0053 1641.3519,-14.0028"/>
</g>
<!-- Node46&#45;&gt;Node6 -->
<g id="edge59" class="edge">
<title>Node46&#45;&gt;Node6</title>
<path fill="none" stroke="#191970" d="M345.6693,-356.7665C484.9905,-351.2309 797.9072,-337.2101 1060.5015,-314 1263.1078,-296.0921 1501.4951,-264.8411 1616.5255,-249.1169"/>
<polygon fill="#191970" stroke="#191970" points="1617.1671,-252.5618 1626.5992,-247.7364 1616.2166,-245.6266 1617.1671,-252.5618"/>
</g>
<!-- Node46&#45;&gt;Node19 -->
<g id="edge57" class="edge">
<title>Node46&#45;&gt;Node19</title>
<path fill="none" stroke="#191970" d="M199.4252,-354.9675C134.4685,-349.4345 45.9587,-337.7092 20.5015,-314 -4.5044,-290.7113 1.5015,-273.671 1.5015,-239.5 1.5015,-239.5 1.5015,-239.5 1.5015,-119.5 1.5015,25.5825 177.5348,-72.959 321.5015,-55 499.7592,-32.7633 1072.8513,-14.5803 1212.5689,-10.4035"/>
<polygon fill="#191970" stroke="#191970" points="1213.0584,-13.8906 1222.9501,-10.0952 1212.8505,-6.8937 1213.0584,-13.8906"/>
</g>
<!-- Node47 -->
<g id="node32" class="node">
<title>Node47</title>
<polygon fill="#ffffff" stroke="#bfbfbf" points="255.7207,-290.5 255.7207,-308.5 307.2822,-308.5 307.2822,-290.5 255.7207,-290.5"/>
<text text-anchor="middle" x="281.5015" y="-296.5" font-family="FreeSans" font-size="10.00" fill="#000000">sstream</text>
</g>
<!-- Node46&#45;&gt;Node47 -->
<g id="edge56" class="edge">
<title>Node46&#45;&gt;Node47</title>
<path fill="none" stroke="#191970" d="M273.8684,-350.3873C275.1238,-342.0174 277.0252,-329.3414 278.6162,-318.735"/>
<polygon fill="#191970" stroke="#191970" points="282.0995,-319.1071 280.1217,-308.6985 275.1769,-318.0686 282.0995,-319.1071"/>
</g>
<!-- Node48 -->
<g id="node33" class="node">
<title>Node48</title>
<polygon fill="#ffffff" stroke="#bfbfbf" points="29.4399,-290.5 29.4399,-308.5 71.563,-308.5 71.563,-290.5 29.4399,-290.5"/>
<text text-anchor="middle" x="50.5015" y="-296.5" font-family="FreeSans" font-size="10.00" fill="#000000">cstdio</text>
</g>
<!-- Node46&#45;&gt;Node48 -->
<g id="edge58" class="edge">
<title>Node46&#45;&gt;Node48</title>
<path fill="none" stroke="#191970" d="M221.0983,-350.4786C181.9228,-342.8501 126.983,-330.5184 80.5015,-314 79.3057,-313.5751 78.0945,-313.1165 76.8795,-312.6331"/>
<polygon fill="#191970" stroke="#191970" points="78.2402,-309.4081 67.677,-308.5906 75.4248,-315.817 78.2402,-309.4081"/>
</g>
<!-- Node49 -->
<g id="node34" class="node">
<title>Node49</title>
<g id="a_node34"><a xlink:href="CUnaryFunctor_8h_source.html" target="_top" xlink:title="DGtal/base/CUnaryFunctor.h">
<polygon fill="#ffffff" stroke="#000000" points="777.3047,-290.5 777.3047,-308.5 921.6982,-308.5 921.6982,-290.5 777.3047,-290.5"/>
<text text-anchor="middle" x="849.5015" y="-296.5" font-family="FreeSans" font-size="10.00" fill="#000000">DGtal/base/CUnaryFunctor.h</text>
</a>
</g>
</g>
<!-- Node46&#45;&gt;Node49 -->
<g id="edge60" class="edge">
<title>Node46&#45;&gt;Node49</title>
<path fill="none" stroke="#191970" d="M345.5789,-351.901C453.3158,-340.6978 654.1732,-319.8114 767.0432,-308.0745"/>
<polygon fill="#191970" stroke="#191970" points="767.433,-311.5529 777.0174,-307.0373 766.709,-304.5905 767.433,-311.5529"/>
</g>
<!-- Node50 -->
<g id="node35" class="node">
<title>Node50</title>
<g id="a_node35"><a xlink:href="VolReader_8ih_source.html" target="_top" xlink:title="DGtal/io/readers/VolReader.ih">
<polygon fill="#ffffff" stroke="#000000" points="89.3491,-290.5 89.3491,-308.5 237.6538,-308.5 237.6538,-290.5 89.3491,-290.5"/>
<text text-anchor="middle" x="163.5015" y="-296.5" font-family="FreeSans" font-size="10.00" fill="#000000">DGtal/io/readers/VolReader.ih</text>
</a>
</g>
</g>
<!-- Node46&#45;&gt;Node50 -->
<g id="edge64" class="edge">
<title>Node46&#45;&gt;Node50</title>
<path fill="none" stroke="#191970" d="M255.9467,-350.3873C238.0773,-340.5509 209.4034,-324.7671 188.7254,-313.3847"/>
<polygon fill="#191970" stroke="#191970" points="190.3031,-310.258 179.8549,-308.5019 186.9275,-316.3904 190.3031,-310.258"/>
</g>
<!-- Node49&#45;&gt;Node1 -->
<g id="edge61" class="edge">
<title>Node49&#45;&gt;Node1</title>
<path fill="none" stroke="#191970" d="M823.5447,-290.4829C783.5695,-274.7483 711.5015,-238.2365 711.5015,-179.5 711.5015,-179.5 711.5015,-179.5 711.5015,-119.5 711.5015,-24.1868 1462.7448,-11.4364 1640.9274,-9.7527"/>
<polygon fill="#191970" stroke="#191970" points="1641.15,-13.251 1651.1187,-9.6628 1641.0882,-6.2513 1641.15,-13.251"/>
</g>
<!-- Node49&#45;&gt;Node6 -->
<g id="edge62" class="edge">
<title>Node49&#45;&gt;Node6</title>
<path fill="none" stroke="#191970" d="M894.7723,-290.4321C906.3784,-288.3729 918.8693,-286.3868 930.5015,-285 1182.12,-255.001 1483.3999,-244.3747 1616.4988,-240.9607"/>
<polygon fill="#191970" stroke="#191970" points="1616.646,-244.4582 1626.555,-240.7084 1616.4703,-237.4604 1616.646,-244.4582"/>
</g>
<!-- Node49&#45;&gt;Node32 -->
<g id="edge63" class="edge">
<title>Node49&#45;&gt;Node32</title>
<path fill="none" stroke="#191970" d="M857.3935,-290.4805C874.8761,-270.5004 917.1006,-222.2439 939.6783,-196.4407"/>
<polygon fill="#191970" stroke="#191970" points="942.5668,-198.4547 946.5178,-188.6242 937.2987,-193.8452 942.5668,-198.4547"/>
</g>
<!-- Node51&#45;&gt;Node1 -->
<g id="edge66" class="edge">
<title>Node51&#45;&gt;Node1</title>
<path fill="none" stroke="#191970" d="M1912.3086,-475.3277C1936.0351,-465.3106 1975.0558,-448.7275 2008.5015,-434 2126.8282,-381.8959 2468.4281,-302.6544 2538.5015,-194 2545.487,-183.1683 2542.105,-177.3749 2538.5015,-165 2517.2455,-92.0059 2480.3246,-76.8345 2407.5015,-55 2341.0593,-35.0787 1855.6648,-15.9731 1715.9993,-10.8411"/>
<polygon fill="#191970" stroke="#191970" points="1715.9221,-7.3361 1705.801,-10.4687 1715.6666,-14.3314 1715.9221,-7.3361"/>
</g>
<!-- Node51&#45;&gt;Node2 -->
<g id="edge67" class="edge">
<title>Node51&#45;&gt;Node2</title>
<path fill="none" stroke="#191970" d="M1945.0639,-478.5594C2067.1391,-465.2681 2359.1559,-433.474 2455.8229,-422.9491"/>
<polygon fill="#191970" stroke="#191970" points="2456.289,-426.4191 2465.8514,-421.8572 2455.5313,-419.4602 2456.289,-426.4191"/>
</g>
<!-- Node51&#45;&gt;Node4 -->
<g id="edge69" class="edge">
<title>Node51&#45;&gt;Node4</title>
<path fill="none" stroke="#191970" d="M1835.9734,-479.6432C1774.9168,-473.2234 1673.5126,-459.605 1589.5015,-434 1588.0429,-433.5555 1586.564,-433.0594 1585.0827,-432.5263"/>
<polygon fill="#191970" stroke="#191970" points="1586.0434,-429.1389 1575.4613,-428.6198 1583.41,-435.6247 1586.0434,-429.1389"/>
</g>
<!-- Node51&#45;&gt;Node6 -->
<g id="edge75" class="edge">
<title>Node51&#45;&gt;Node6</title>
<path fill="none" stroke="#191970" d="M1892.2034,-475.0595C1894.5262,-459.5018 1897.1775,-427.9199 1885.5015,-405 1847.4942,-330.392 1759.3176,-276.9089 1713.8072,-253.1832"/>
<polygon fill="#191970" stroke="#191970" points="1715.275,-250.0029 1704.7768,-248.5752 1712.0933,-256.238 1715.275,-250.0029"/>
</g>
<!-- Node51&#45;&gt;Node8 -->
<g id="edge68" class="edge">
<title>Node51&#45;&gt;Node8</title>
<path fill="none" stroke="#191970" d="M1904.3888,-475.3687C1950.6871,-445.2006 2104.5844,-347.1169 2241.5015,-285 2309.2139,-254.28 2328.7123,-252.7507 2399.5015,-230 2453.3237,-212.7022 2487.6524,-239.2802 2521.5015,-194 2579.7041,-116.1417 2183.901,-77.6714 2056.261,-67.3867"/>
<polygon fill="#191970" stroke="#191970" points="2056.3932,-63.8863 2046.1481,-66.5858 2055.8405,-70.8644 2056.3932,-63.8863"/>
</g>
<!-- Node51&#45;&gt;Node38 -->
<g id="edge79" class="edge">
<title>Node51&#45;&gt;Node38</title>
<path fill="none" stroke="#191970" d="M1887.875,-475.2476C1883.0157,-459.4084 1871.3638,-426.7102 1852.5015,-405 1756.0237,-293.956 1623.0239,-338.87 1597.5015,-194 1595.2652,-181.3066 1589.2473,-174.8991 1597.5015,-165 1609.8986,-150.1322 1723.1951,-134.1755 1792.6198,-125.6726"/>
<polygon fill="#191970" stroke="#191970" points="1793.4379,-129.0992 1802.945,-124.4232 1792.597,-122.1499 1793.4379,-129.0992"/>
</g>
<!-- Node52 -->
<g id="node37" class="node">
<title>Node52</title>
<g id="a_node37"><a xlink:href="CDomain_8h_source.html" target="_top" xlink:title="DGtal/kernel/domains\l/CDomain.h">
<polygon fill="#ffffff" stroke="#ff0000" points="939.4253,-285.5 939.4253,-313.5 1051.5776,-313.5 1051.5776,-285.5 939.4253,-285.5"/>
<text text-anchor="start" x="947.4253" y="-301.5" font-family="FreeSans" font-size="10.00" fill="#000000">DGtal/kernel/domains</text>
<text text-anchor="middle" x="995.5015" y="-291.5" font-family="FreeSans" font-size="10.00" fill="#000000">/CDomain.h</text>
</a>
</g>
</g>
<!-- Node51&#45;&gt;Node52 -->
<g id="edge70" class="edge">
<title>Node51&#45;&gt;Node52</title>
<path fill="none" stroke="#191970" d="M1835.8452,-480.1998C1786.6149,-474.6325 1713.3176,-462.0567 1655.5015,-434 1637.3269,-425.1804 1638.8675,-413.4135 1620.5015,-405 1570.1361,-381.9274 1212.2814,-329.874 1061.852,-308.7096"/>
<polygon fill="#191970" stroke="#191970" points="1062.2071,-305.2252 1051.8175,-307.3003 1061.2335,-312.1571 1062.2071,-305.2252"/>
</g>
<!-- Node54 -->
<g id="node38" class="node">
<title>Node54</title>
<g id="a_node38"><a xlink:href="CountedPtr_8h_source.html" target="_top" xlink:title="DGtal/base/CountedPtr.h">
<polygon fill="#ffffff" stroke="#ff0000" points="2263.9106,-350.5 2263.9106,-368.5 2391.0923,-368.5 2391.0923,-350.5 2263.9106,-350.5"/>
<text text-anchor="middle" x="2327.5015" y="-356.5" font-family="FreeSans" font-size="10.00" fill="#000000">DGtal/base/CountedPtr.h</text>
</a>
</g>
</g>
<!-- Node51&#45;&gt;Node54 -->
<g id="edge76" class="edge">
<title>Node51&#45;&gt;Node54</title>
<path fill="none" stroke="#191970" d="M1945.232,-480.91C2032.0688,-474.5327 2196.9642,-459.4498 2249.5015,-434 2276.7688,-420.7913 2300.7262,-394.52 2314.6656,-376.9739"/>
<polygon fill="#191970" stroke="#191970" points="2317.6962,-378.7737 2321.0063,-368.7092 2312.1423,-374.5128 2317.6962,-378.7737"/>
</g>
<!-- Node56 -->
<g id="node39" class="node">
<title>Node56</title>
<g id="a_node39"><a xlink:href="CImage_8h_source.html" target="_top" xlink:title="DGtal/images/CImage.h">
<polygon fill="#ffffff" stroke="#ff0000" points="724.147,-410.5 724.147,-428.5 846.8559,-428.5 846.8559,-410.5 724.147,-410.5"/>
<text text-anchor="middle" x="785.5015" y="-416.5" font-family="FreeSans" font-size="10.00" fill="#000000">DGtal/images/CImage.h</text>
</a>
</g>
</g>
<!-- Node51&#45;&gt;Node56 -->
<g id="edge80" class="edge">
<title>Node51&#45;&gt;Node56</title>
<path fill="none" stroke="#191970" d="M1836.0812,-481.2988C1653.5681,-470.5627 1063.1255,-435.8308 857.1701,-423.7158"/>
<polygon fill="#191970" stroke="#191970" points="857.2603,-420.2151 847.072,-423.1218 856.8492,-427.2031 857.2603,-420.2151"/>
</g>
<!-- Node57 -->
<g id="node40" class="node">
<title>Node57</title>
<g id="a_node40"><a xlink:href="CConstImage_8h_source.html" target="_top" xlink:title="DGtal/images/CConstImage.h">
<polygon fill="#ffffff" stroke="#ff0000" points="711.0854,-350.5 711.0854,-368.5 859.9175,-368.5 859.9175,-350.5 711.0854,-350.5"/>
<text text-anchor="middle" x="785.5015" y="-356.5" font-family="FreeSans" font-size="10.00" fill="#000000">DGtal/images/CConstImage.h</text>
</a>
</g>
</g>
<!-- Node51&#45;&gt;Node57 -->
<g id="edge90" class="edge">
<title>Node51&#45;&gt;Node57</title>
<path fill="none" stroke="#191970" d="M1836.0394,-480.4717C1781.5392,-474.9776 1696.1548,-462.343 1627.5015,-434 1606.1946,-425.2036 1606.3451,-412.363 1584.5015,-405 1518.2111,-382.6549 1061.7177,-367.3077 869.9981,-361.7772"/>
<polygon fill="#191970" stroke="#191970" points="870.0612,-358.2777 859.965,-361.4898 869.8607,-365.2748 870.0612,-358.2777"/>
</g>
<!-- Node51&#45;&gt;Node103 -->
<g id="edge91" class="edge">
<title>Node51&#45;&gt;Node103</title>
<path fill="none" stroke="#191970" d="M1837.1278,-475.4717C1797.6648,-467.6155 1743.2421,-454.2636 1698.5015,-434 1677.5035,-424.4898 1675.4329,-416.5799 1655.5015,-405 1635.1278,-393.1632 1611.2548,-381.4147 1592.9337,-372.8216"/>
<polygon fill="#191970" stroke="#191970" points="1594.1902,-369.5462 1583.646,-368.5119 1591.2438,-375.8959 1594.1902,-369.5462"/>
</g>
<!-- Node51&#45;&gt;Node180 -->
<g id="edge94" class="edge">
<title>Node51&#45;&gt;Node180</title>
<path fill="none" stroke="#191970" d="M1874.5112,-475.462C1857.7706,-465.9999 1830.9785,-450.8566 1809.4839,-438.7075"/>
<polygon fill="#191970" stroke="#191970" points="1811.0688,-435.5829 1800.641,-433.7093 1807.6244,-441.6769 1811.0688,-435.5829"/>
</g>
<!-- Node52&#45;&gt;Node1 -->
<g id="edge71" class="edge">
<title>Node52&#45;&gt;Node1</title>
<path fill="none" stroke="#191970" d="M1001.8872,-285.1938C1010.4079,-265.2448 1025.0541,-227.7196 1030.5015,-194 1032.557,-181.2761 1035.5153,-176.8737 1030.5015,-165 1021.5763,-143.8633 1002.4266,-150.1367 993.5015,-129 980.7076,-98.7015 971.0294,-79.0143 993.5015,-55 1015.7743,-31.1987 1500.3598,-14.8454 1640.7229,-10.5953"/>
<polygon fill="#191970" stroke="#191970" points="1641.0874,-14.0861 1650.978,-10.2879 1640.8776,-7.0892 1641.0874,-14.0861"/>
</g>
<!-- Node52&#45;&gt;Node6 -->
<g id="edge73" class="edge">
<title>Node52&#45;&gt;Node6</title>
<path fill="none" stroke="#191970" d="M1051.9342,-287.1487C1056.5118,-286.3488 1061.0765,-285.618 1065.5015,-285 1264.2008,-257.2512 1501.2419,-245.8103 1616.1749,-241.625"/>
<polygon fill="#191970" stroke="#191970" points="1616.3745,-245.1202 1626.2432,-241.2656 1616.1247,-238.1246 1616.3745,-245.1202"/>
</g>
<!-- Node52&#45;&gt;Node10 -->
<g id="edge72" class="edge">
<title>Node52&#45;&gt;Node10</title>
<path fill="none" stroke="#191970" d="M973.2175,-285.4996C936.749,-262.5875 864.6815,-217.3095 827.6555,-194.047"/>
<polygon fill="#191970" stroke="#191970" points="829.3696,-190.9905 819.0401,-188.6342 825.6456,-196.9178 829.3696,-190.9905"/>
</g>
<!-- Node52&#45;&gt;Node32 -->
<g id="edge74" class="edge">
<title>Node52&#45;&gt;Node32</title>
<path fill="none" stroke="#191970" d="M990.6372,-285.2632C983.2426,-263.6203 969.1653,-222.4185 960.9336,-198.3258"/>
<polygon fill="#191970" stroke="#191970" points="964.1531,-196.9231 957.6078,-188.5918 957.529,-199.1863 964.1531,-196.9231"/>
</g>
<!-- Node54&#45;&gt;Node1 -->
<g id="edge77" class="edge">
<title>Node54&#45;&gt;Node1</title>
<path fill="none" stroke="#191970" d="M2385.5302,-350.4855C2465.3633,-334.6239 2606.2465,-293.4144 2668.5015,-194 2701.2894,-141.6412 2711.1704,-99.675 2668.5015,-55 2635.0017,-19.9253 1892.247,-11.3376 1715.8419,-9.7898"/>
<polygon fill="#191970" stroke="#191970" points="1715.7804,-6.2892 1705.7508,-9.7036 1715.7205,-13.289 1715.7804,-6.2892"/>
</g>
<!-- Node54&#45;&gt;Node6 -->
<g id="edge78" class="edge">
<title>Node54&#45;&gt;Node6</title>
<path fill="none" stroke="#191970" d="M2279.2471,-350.4805C2163.3816,-328.8234 1869.7756,-273.9438 1744.0727,-250.4479"/>
<polygon fill="#191970" stroke="#191970" points="1744.3499,-246.9392 1733.877,-248.5422 1743.0637,-253.82 1744.3499,-246.9392"/>
</g>
<!-- Node56&#45;&gt;Node10 -->
<g id="edge81" class="edge">
<title>Node56&#45;&gt;Node10</title>
<path fill="none" stroke="#191970" d="M756.9478,-410.47C737.8108,-402.7583 714.0726,-389.585 702.5015,-369 698.3636,-361.6388 700.3487,-358.1654 702.5015,-350 718.9175,-287.733 765.6347,-225.6098 789.7288,-196.5344"/>
<polygon fill="#191970" stroke="#191970" points="792.644,-198.5071 796.4214,-188.6085 787.2956,-193.991 792.644,-198.5071"/>
</g>
<!-- Node56&#45;&gt;Node12 -->
<g id="edge82" class="edge">
<title>Node56&#45;&gt;Node12</title>
<path fill="none" stroke="#191970" d="M761.7535,-410.4374C739.5801,-401.4645 706.019,-386.5513 679.5015,-369 597.8993,-314.9895 515.0374,-231.7494 481.2735,-196.3555"/>
<polygon fill="#191970" stroke="#191970" points="483.5423,-193.6611 474.1257,-188.8053 478.4589,-198.4735 483.5423,-193.6611"/>
</g>
<!-- Node56&#45;&gt;Node13 -->
<g id="edge83" class="edge">
<title>Node56&#45;&gt;Node13</title>
<path fill="none" stroke="#191970" d="M760.3013,-410.4212C740.6661,-402.2332 713.9035,-388.4725 696.5015,-369 650.2642,-317.2616 627.596,-235.158 619.3225,-198.3899"/>
<polygon fill="#191970" stroke="#191970" points="622.7249,-197.5628 617.2069,-188.5183 615.8803,-199.0298 622.7249,-197.5628"/>
</g>
<!-- Node56&#45;&gt;Node52 -->
<g id="edge84" class="edge">
<title>Node56&#45;&gt;Node52</title>
<path fill="none" stroke="#191970" d="M801.2856,-410.4805C835.267,-391.0625 915.9873,-344.9367 961.9528,-318.6707"/>
<polygon fill="#191970" stroke="#191970" points="963.7124,-321.6964 970.6583,-313.6961 960.2394,-315.6186 963.7124,-321.6964"/>
</g>
<!-- Node56&#45;&gt;Node57 -->
<g id="edge85" class="edge">
<title>Node56&#45;&gt;Node57</title>
<path fill="none" stroke="#191970" d="M785.5015,-410.3873C785.5015,-402.0174 785.5015,-389.3414 785.5015,-378.735"/>
<polygon fill="#191970" stroke="#191970" points="789.0016,-378.6984 785.5015,-368.6985 782.0016,-378.6985 789.0016,-378.6984"/>
</g>
<!-- Node57&#45;&gt;Node10 -->
<g id="edge86" class="edge">
<title>Node57&#45;&gt;Node10</title>
<path fill="none" stroke="#191970" d="M780.9767,-350.3658C776.7911,-341.3702 770.8708,-327.1112 768.5015,-314 760.8357,-271.5804 781.3186,-222.9941 794.4535,-197.4162"/>
<polygon fill="#191970" stroke="#191970" points="797.5841,-198.9838 799.2127,-188.5149 791.4111,-195.6833 797.5841,-198.9838"/>
</g>
<!-- Node57&#45;&gt;Node12 -->
<g id="edge87" class="edge">
<title>Node57&#45;&gt;Node12</title>
<path fill="none" stroke="#191970" d="M769.1927,-350.3263C716.9796,-320.9565 553.6804,-229.1006 490.6612,-193.6524"/>
<polygon fill="#191970" stroke="#191970" points="492.2091,-190.5074 481.7774,-188.6552 488.7772,-196.6084 492.2091,-190.5074"/>
</g>
<!-- Node57&#45;&gt;Node13 -->
<g id="edge88" class="edge">
<title>Node57&#45;&gt;Node13</title>
<path fill="none" stroke="#191970" d="M776.8374,-350.3263C749.7887,-321.6865 666.6225,-233.6282 631.461,-196.3983"/>
<polygon fill="#191970" stroke="#191970" points="633.7627,-193.738 624.3519,-188.8711 628.6736,-198.5444 633.7627,-193.738"/>
</g>
<!-- Node57&#45;&gt;Node52 -->
<g id="edge89" class="edge">
<title>Node57&#45;&gt;Node52</title>
<path fill="none" stroke="#191970" d="M817.3959,-350.3873C848.8889,-341.3893 897.8006,-327.4145 936.4048,-316.3847"/>
<polygon fill="#191970" stroke="#191970" points="937.8337,-319.6166 946.4874,-313.504 935.9106,-312.886 937.8337,-319.6166"/>
</g>
<!-- Node103&#45;&gt;Node1 -->
<g id="edge92" class="edge">
<title>Node103&#45;&gt;Node1</title>
<path fill="none" stroke="#191970" d="M1501.334,-353.913C1426.0776,-346.4914 1304.2327,-332.1756 1262.5015,-314 1183.9097,-279.7701 1178.3232,-247.6954 1111.5015,-194 1071.3133,-161.7063 1001.6753,-152.0521 1031.5015,-110 1074.275,-49.6934 1116.2646,-70.7577 1188.5015,-55 1274.8783,-36.1578 1541.842,-18.0437 1640.9548,-11.7951"/>
<polygon fill="#191970" stroke="#191970" points="1641.3418,-15.2778 1651.1035,-11.1599 1640.9044,-8.2915 1641.3418,-15.2778"/>
</g>
<!-- Node103&#45;&gt;Node6 -->
<g id="edge93" class="edge">
<title>Node103&#45;&gt;Node6</title>
<path fill="none" stroke="#191970" d="M1572.6713,-350.4805C1593.161,-330.3267 1642.9006,-281.4025 1668.9575,-255.7727"/>
<polygon fill="#191970" stroke="#191970" points="1671.5503,-258.1318 1676.2252,-248.6242 1666.6416,-253.1413 1671.5503,-258.1318"/>
</g>
<!-- Node180&#45;&gt;Node1 -->
<g id="edge95" class="edge">
<title>Node180&#45;&gt;Node1</title>
<path fill="none" stroke="#191970" d="M1749.7829,-405.383C1721.9134,-390.4289 1675.8735,-366.7157 1634.5015,-350 1423.7735,-264.8587 1348.3365,-300.3982 1147.5015,-194 1126.7998,-183.0327 1074.7592,-150.0622 1064.5015,-129 1060.804,-121.4081 1059.4833,-116.7916 1064.5015,-110 1076.866,-93.2658 1223.1144,-59.1573 1243.5015,-55 1388.5207,-25.4276 1564.8809,-14.5105 1640.7888,-10.9843"/>
<polygon fill="#191970" stroke="#191970" points="1641.4103,-14.4601 1651.2438,-10.5163 1641.0972,-7.4671 1641.4103,-14.4601"/>
</g>
<!-- Node180&#45;&gt;Node6 -->
<g id="edge96" class="edge">
<title>Node180&#45;&gt;Node6</title>
<path fill="none" stroke="#191970" d="M1768.4393,-405.3757C1752.297,-373.091 1712.7078,-293.9127 1694.6944,-257.8859"/>
<polygon fill="#191970" stroke="#191970" points="1697.6367,-255.9441 1690.034,-248.5651 1691.3757,-259.0746 1697.6367,-255.9441"/>
</g>
<!-- Node180&#45;&gt;Node54 -->
<g id="edge99" class="edge">
<title>Node180&#45;&gt;Node54</title>
<path fill="none" stroke="#191970" d="M1844.0186,-412.0525C1948.3503,-400.7121 2146.2322,-379.2032 2253.6525,-367.5271"/>
<polygon fill="#191970" stroke="#191970" points="2254.1962,-370.9887 2263.7594,-366.4285 2253.4397,-364.0297 2254.1962,-370.9887"/>
</g>
<!-- Node180&#45;&gt;Node57 -->
<g id="edge98" class="edge">
<title>Node180&#45;&gt;Node57</title>
<path fill="none" stroke="#191970" d="M1707.1084,-412.6687C1679.3218,-410.038 1646.8968,-407.1519 1617.5015,-405 1344.6013,-385.0224 1020.7555,-369.7264 870.2387,-363.1004"/>
<polygon fill="#191970" stroke="#191970" points="870.2845,-359.5991 860.1407,-362.6575 869.9776,-366.5924 870.2845,-359.5991"/>
</g>
<!-- Node180&#45;&gt;Node103 -->
<g id="edge97" class="edge">
<title>Node180&#45;&gt;Node103</title>
<path fill="none" stroke="#191970" d="M1725.7969,-405.4327C1689.1499,-395.0609 1639.8562,-381.1098 1605.2435,-371.3138"/>
<polygon fill="#191970" stroke="#191970" points="1606.0241,-367.8973 1595.4489,-368.5417 1604.1178,-374.6327 1606.0241,-367.8973"/>
</g>
<!-- Node183&#45;&gt;Node1 -->
<g id="edge102" class="edge">
<title>Node183&#45;&gt;Node1</title>
<path fill="none" stroke="#191970" d="M2402.8694,-535.3293C2413.6986,-505.9831 2447.4447,-415.6719 2456.5015,-405 2506.4647,-346.1261 2548.0092,-366.6412 2604.5015,-314 2652.5059,-269.268 2661.3621,-252.7901 2690.5015,-194 2717.9365,-138.6483 2740.2927,-91.5694 2690.5015,-55 2650.5213,-25.6364 1894.8158,-12.6874 1716.1372,-10.029"/>
<polygon fill="#191970" stroke="#191970" points="1715.9706,-6.5263 1705.9202,-9.879 1715.8677,-13.5256 1715.9706,-6.5263"/>
</g>
<!-- Node183&#45;&gt;Node2 -->
<g id="edge103" class="edge">
<title>Node183&#45;&gt;Node2</title>
<path fill="none" stroke="#191970" d="M2412.8935,-535.3222C2424.3389,-526.936 2440.6331,-513.6405 2451.5015,-499 2465.429,-480.2385 2475.6408,-455.2304 2481.5593,-438.3106"/>
<polygon fill="#191970" stroke="#191970" points="2484.9852,-439.1003 2484.8245,-428.5067 2478.3439,-436.8883 2484.9852,-439.1003"/>
</g>
<!-- Node183&#45;&gt;Node6 -->
<g id="edge101" class="edge">
<title>Node183&#45;&gt;Node6</title>
<path fill="none" stroke="#191970" d="M2395.771,-535.2787C2392.321,-526.2185 2387.4432,-511.9132 2385.5015,-499 2379.2893,-457.6867 2377.3082,-445.9665 2385.5015,-405 2390.4705,-380.1548 2416.8375,-369.3677 2400.5015,-350 2359.0097,-300.8084 1925.7309,-259.5609 1754.5386,-245.0636"/>
<polygon fill="#191970" stroke="#191970" points="1754.639,-241.5597 1744.3807,-244.2088 1754.0519,-248.5351 1754.639,-241.5597"/>
</g>
<!-- Node183&#45;&gt;Node8 -->
<g id="edge104" class="edge">
<title>Node183&#45;&gt;Node8</title>
<path fill="none" stroke="#191970" d="M2399.0191,-535.3132C2398.2047,-511.9118 2398.6375,-448.8145 2423.5015,-405 2479.2709,-306.7248 2616.5015,-352.4967 2616.5015,-239.5 2616.5015,-239.5 2616.5015,-239.5 2616.5015,-179.5 2616.5015,-92.914 2518.6726,-130.3066 2434.5015,-110 2298.2001,-77.1167 2131.0541,-67.9593 2056.5529,-65.4398"/>
<polygon fill="#191970" stroke="#191970" points="2056.3534,-61.9318 2046.2478,-65.1142 2056.1323,-68.9283 2056.3534,-61.9318"/>
</g>
<!-- Node183&#45;&gt;Node51 -->
<g id="edge106" class="edge">
<title>Node183&#45;&gt;Node51</title>
<path fill="none" stroke="#191970" d="M2327.9227,-536.0624C2228.7183,-524.3684 2050.8859,-503.4058 1955.3756,-492.1473"/>
<polygon fill="#191970" stroke="#191970" points="1955.6119,-488.651 1945.2709,-490.9561 1954.7924,-495.6028 1955.6119,-488.651"/>
</g>
<!-- Node183&#45;&gt;Node54 -->
<g id="edge105" class="edge">
<title>Node183&#45;&gt;Node54</title>
<path fill="none" stroke="#191970" d="M2384.0668,-535.3704C2372.026,-527.3736 2355.9692,-514.6044 2347.5015,-499 2326.4763,-460.2546 2325.1396,-406.9467 2326.1923,-378.7674"/>
<polygon fill="#191970" stroke="#191970" points="2329.694,-378.8231 2326.7182,-368.6547 2322.7035,-378.4594 2329.694,-378.8231"/>
</g>
<!-- Node191&#45;&gt;Node1 -->
<g id="edge109" class="edge">
<title>Node191&#45;&gt;Node1</title>
<path fill="none" stroke="#191970" d="M2906.1873,-290.4001C2897.2422,-270.67 2877.5015,-222.2813 2877.5015,-179.5 2877.5015,-179.5 2877.5015,-179.5 2877.5015,-119.5 2877.5015,-81.2436 2855.0579,-71.4137 2820.5015,-55 2769.544,-30.796 1907.6518,-13.6841 1716.043,-10.1684"/>
<polygon fill="#191970" stroke="#191970" points="1715.9665,-6.6665 1705.9043,-9.9836 1715.8388,-13.6653 1715.9665,-6.6665"/>
</g>
<!-- Node191&#45;&gt;Node6 -->
<g id="edge110" class="edge">
<title>Node191&#45;&gt;Node6</title>
<path fill="none" stroke="#191970" d="M2834.5271,-292.1532C2806.2808,-289.6091 2773.9468,-286.9176 2744.5015,-285 2371.3125,-260.696 1923.264,-246.3056 1754.3871,-241.4052"/>
<polygon fill="#191970" stroke="#191970" points="1754.4867,-237.9067 1744.3899,-241.1168 1754.2848,-244.9038 1754.4867,-237.9067"/>
</g>
<!-- Node210&#45;&gt;Node1 -->
<g id="edge112" class="edge">
<title>Node210&#45;&gt;Node1</title>
<path fill="none" stroke="#191970" d="M983.796,-478.5728C805.3893,-463.5912 373.5015,-420.9749 373.5015,-359.5 373.5015,-359.5 373.5015,-359.5 373.5015,-119.5 373.5015,-54.0995 1427.9401,-17.3945 1641.1737,-10.6405"/>
<polygon fill="#191970" stroke="#191970" points="1641.3596,-14.1365 1651.2447,-10.324 1641.1396,-7.1399 1641.3596,-14.1365"/>
</g>
<!-- Node210&#45;&gt;Node6 -->
<g id="edge113" class="edge">
<title>Node210&#45;&gt;Node6</title>
<path fill="none" stroke="#191970" d="M1085.9369,-470.2974C1153.0151,-434.7424 1335.9803,-340.7636 1497.5015,-285 1540.0082,-270.325 1589.486,-258.5529 1627.0112,-250.6621"/>
<polygon fill="#191970" stroke="#191970" points="1628.1796,-253.9946 1637.2626,-248.5403 1626.7607,-247.1398 1628.1796,-253.9946"/>
</g>
<!-- Node210&#45;&gt;Node56 -->
<g id="edge114" class="edge">
<title>Node210&#45;&gt;Node56</title>
<path fill="none" stroke="#191970" d="M1000.3849,-470.476C950.4056,-458.6196 879.7182,-441.8507 833.2633,-430.8304"/>
<polygon fill="#191970" stroke="#191970" points="833.9843,-427.4044 823.4465,-428.5016 832.3686,-434.2153 833.9843,-427.4044"/>
</g>
<!-- Node213&#45;&gt;Node1 -->
<g id="edge116" class="edge">
<title>Node213&#45;&gt;Node1</title>
<path fill="none" stroke="#191970" d="M2630.2172,-475.4829C2664.3815,-445.661 2768.5015,-346.0359 2768.5015,-239.5 2768.5015,-239.5 2768.5015,-239.5 2768.5015,-119.5 2768.5015,-88.9131 2769.2414,-72.9859 2744.5015,-55 2702.0835,-24.1623 1900.3322,-12.2759 1716.0439,-9.9451"/>
<polygon fill="#191970" stroke="#191970" points="1715.8195,-6.4422 1705.7766,-9.8172 1715.7322,-13.4416 1715.8195,-6.4422"/>
</g>
<!-- Node213&#45;&gt;Node2 -->
<g id="edge117" class="edge">
<title>Node213&#45;&gt;Node2</title>
<path fill="none" stroke="#191970" d="M2601.1474,-475.462C2578.9109,-464.5122 2541.2239,-445.9542 2515.3893,-433.2326"/>
<polygon fill="#191970" stroke="#191970" points="2516.6426,-429.9485 2506.1251,-428.6708 2513.5502,-436.2284 2516.6426,-429.9485"/>
</g>
<!-- Node213&#45;&gt;Node3 -->
<g id="edge118" class="edge">
<title>Node213&#45;&gt;Node3</title>
<path fill="none" stroke="#191970" d="M2671.9005,-475.4581C2683.2951,-473.5783 2695.2931,-471.6645 2706.5015,-470 2828.8653,-451.8286 2860.7882,-456.1132 2982.5015,-434 2994.8647,-431.7538 3008.4728,-428.6435 3019.7826,-425.8793"/>
<polygon fill="#191970" stroke="#191970" points="3020.9529,-429.1946 3029.8062,-423.3747 3019.2559,-422.4034 3020.9529,-429.1946"/>
</g>
<!-- Node213&#45;&gt;Node6 -->
<g id="edge119" class="edge">
<title>Node213&#45;&gt;Node6</title>
<path fill="none" stroke="#191970" d="M2614.6454,-475.4194C2596.3255,-442.2517 2527.6305,-327.3832 2433.5015,-285 2372.5824,-257.5702 1927.8557,-244.8652 1754.4574,-240.9148"/>
<polygon fill="#191970" stroke="#191970" points="1754.4994,-237.415 1744.4232,-240.6891 1754.3419,-244.4132 1754.4994,-237.415"/>
</g>
<!-- Node213&#45;&gt;Node54 -->
<g id="edge120" class="edge">
<title>Node213&#45;&gt;Node54</title>
<path fill="none" stroke="#191970" d="M2609.0334,-475.3029C2587.4329,-456.4883 2538.2903,-414.5677 2518.5015,-405 2481.8942,-387.3008 2437.9325,-376.2169 2401.4182,-369.4263"/>
<polygon fill="#191970" stroke="#191970" points="2401.7889,-365.9371 2391.3291,-367.6229 2400.5572,-372.8279 2401.7889,-365.9371"/>
</g>
<!-- Node222&#45;&gt;Node1 -->
<g id="edge122" class="edge">
<title>Node222&#45;&gt;Node1</title>
<path fill="none" stroke="#191970" d="M2782.1395,-470.4737C2788.9334,-433.0867 2806.5015,-327.866 2806.5015,-239.5 2806.5015,-239.5 2806.5015,-239.5 2806.5015,-119.5 2806.5015,-86.0004 2796.331,-72.061 2767.5015,-55 2721.3246,-27.673 1901.8949,-13.0491 1715.8579,-10.0727"/>
<polygon fill="#191970" stroke="#191970" points="1715.8041,-6.5715 1705.7498,-9.9125 1715.6931,-13.5706 1715.8041,-6.5715"/>
</g>
<!-- Node222&#45;&gt;Node2 -->
<g id="edge123" class="edge">
<title>Node222&#45;&gt;Node2</title>
<path fill="none" stroke="#191970" d="M2716.5013,-470.476C2655.7128,-456.9443 2566.1789,-437.0138 2519.0972,-426.5333"/>
<polygon fill="#191970" stroke="#191970" points="2519.6957,-423.0809 2509.1741,-424.3244 2518.1747,-429.9137 2519.6957,-423.0809"/>
</g>
<!-- Node222&#45;&gt;Node6 -->
<g id="edge124" class="edge">
<title>Node222&#45;&gt;Node6</title>
<path fill="none" stroke="#191970" d="M2764.3017,-470.437C2721.8369,-432.1605 2596.7605,-326.2249 2470.5015,-285 2403.5098,-263.1265 1933.8571,-246.9367 1754.7078,-241.4927"/>
<polygon fill="#191970" stroke="#191970" points="1754.7091,-237.9913 1744.608,-241.1879 1754.4978,-244.9881 1754.7091,-237.9913"/>
</g>
<!-- Node228&#45;&gt;Node1 -->
<g id="edge126" class="edge">
<title>Node228&#45;&gt;Node1</title>
<path fill="none" stroke="#191970" d="M2932.4769,-405.3233C2972.8997,-378.4089 3052.5015,-315.7306 3052.5015,-239.5 3052.5015,-239.5 3052.5015,-239.5 3052.5015,-119.5 3052.5015,-26.1029 2944.4663,-71.2937 2852.5015,-55 2738.5378,-34.8087 1903.8254,-14.655 1715.9739,-10.3437"/>
<polygon fill="#191970" stroke="#191970" points="1715.8525,-6.8401 1705.7751,-10.1107 1715.6925,-13.8383 1715.8525,-6.8401"/>
</g>
<!-- Node228&#45;&gt;Node5 -->
<g id="edge127" class="edge">
<title>Node228&#45;&gt;Node5</title>
<path fill="none" stroke="#191970" d="M2939.5118,-405.4327C2960.4349,-395.625 2988.1858,-382.6167 3008.813,-372.9477"/>
<polygon fill="#191970" stroke="#191970" points="3010.4528,-376.0446 3018.0219,-368.6311 3007.4817,-369.7063 3010.4528,-376.0446"/>
</g>
<!-- Node228&#45;&gt;Node6 -->
<g id="edge128" class="edge">
<title>Node228&#45;&gt;Node6</title>
<path fill="none" stroke="#191970" d="M2894.7429,-405.4704C2863.2159,-376.536 2785.6928,-310.7909 2706.5015,-285 2616.658,-255.74 1969.4378,-243.6711 1754.6037,-240.4429"/>
<polygon fill="#191970" stroke="#191970" points="1754.4517,-236.9404 1744.4008,-240.2914 1754.3477,-243.9396 1754.4517,-236.9404"/>
</g>
<!-- Node228&#45;&gt;Node54 -->
<g id="edge129" class="edge">
<title>Node228&#45;&gt;Node54</title>
<path fill="none" stroke="#191970" d="M2845.8311,-412.936C2737.1764,-401.7345 2516.549,-378.9894 2401.3244,-367.1106"/>
<polygon fill="#191970" stroke="#191970" points="2401.4919,-363.6094 2391.1856,-366.0654 2400.774,-370.5725 2401.4919,-363.6094"/>
</g>
<!-- Node236&#45;&gt;Node1 -->
<g id="edge131" class="edge">
<title>Node236&#45;&gt;Node1</title>
<path fill="none" stroke="#191970" d="M3095.6354,-470.2808C3106.3872,-447.4994 3125.5015,-401.1431 3125.5015,-359.5 3125.5015,-359.5 3125.5015,-359.5 3125.5015,-119.5 3125.5015,-39.9342 3036.4486,-70.9675 2958.5015,-55 2834.1701,-29.5307 1913.6127,-13.3021 1715.8509,-10.0883"/>
<polygon fill="#191970" stroke="#191970" points="1715.7339,-6.586 1705.6787,-9.9241 1715.6209,-13.5851 1715.7339,-6.586"/>
</g>
<!-- Node236&#45;&gt;Node3 -->
<g id="edge132" class="edge">
<title>Node236&#45;&gt;Node3</title>
<path fill="none" stroke="#191970" d="M3078.9541,-470.396C3072.3076,-460.5773 3063.4,-447.4184 3056.3074,-436.9406"/>
<polygon fill="#191970" stroke="#191970" points="3059.1482,-434.8934 3050.6441,-428.5743 3053.3514,-438.8174 3059.1482,-434.8934"/>
</g>
<!-- Node236&#45;&gt;Node6 -->
<g id="edge133" class="edge">
<title>Node236&#45;&gt;Node6</title>
<path fill="none" stroke="#191970" d="M3089.4512,-470.1585C3090.5142,-444.4351 3089.8268,-389.4604 3068.5015,-350 3047.8475,-311.7819 3035.8267,-301.1581 2995.5015,-285 2937.5898,-261.7951 2017.4098,-244.9549 1754.9092,-240.6055"/>
<polygon fill="#191970" stroke="#191970" points="1754.8006,-237.1033 1744.7442,-240.4378 1754.6851,-244.1023 1754.8006,-237.1033"/>
</g>
</g>
</svg>
