<?xml version="1.0" encoding="UTF-8" standalone="no"?>
<!DOCTYPE svg PUBLIC "-//W3C//DTD SVG 1.1//EN"
 "http://www.w3.org/Graphics/SVG/1.1/DTD/svg11.dtd">
<!-- Generated by graphviz version 2.40.1 (20161225.0304)
 -->
<!-- Title: Graphical Class Hierarchy Pages: 1 -->
<svg width="239pt" height="47pt"
 viewBox="0.00 0.00 238.60 47.00" xmlns="http://www.w3.org/2000/svg" xmlns:xlink="http://www.w3.org/1999/xlink">
<g id="graph0" class="graph" transform="scale(1 1) rotate(0) translate(4 43)">
<title>Graphical Class Hierarchy</title>
<polygon fill="#ffffff" stroke="transparent" points="-4,4 -4,-43 234.6025,-43 234.6025,4 -4,4"/>
<!-- Node348 -->
<g id="node1" class="node">
<title>Node348</title>
<polygon fill="#ffffff" stroke="#bfbfbf" points="0,-10.5 0,-28.5 32.6748,-28.5 32.6748,-10.5 0,-10.5"/>
<text text-anchor="middle" x="16.3374" y="-16.5" font-family="FreeSans" font-size="10.00" fill="#000000">pair</text>
</g>
<!-- Node0 -->
<g id="node2" class="node">
<title>Node0</title>
<g id="a_node2"><a xlink:href="structDGtal_1_1DistanceBreadthFirstVisitor_1_1Node.html" target="_top" xlink:title="DGtal::DistanceBreadthFirst\lVisitor\&lt; TGraph, TVertexFunctor,\l TMarkSet \&gt;::Node">
<polygon fill="#ffffff" stroke="#000000" points="68.6748,-.5 68.6748,-38.5 230.6025,-38.5 230.6025,-.5 68.6748,-.5"/>
<text text-anchor="start" x="76.6748" y="-26.5" font-family="FreeSans" font-size="10.00" fill="#000000">DGtal::DistanceBreadthFirst</text>
<text text-anchor="start" x="76.6748" y="-16.5" font-family="FreeSans" font-size="10.00" fill="#000000">Visitor&lt; TGraph, TVertexFunctor,</text>
<text text-anchor="middle" x="149.6387" y="-6.5" font-family="FreeSans" font-size="10.00" fill="#000000"> TMarkSet &gt;::Node</text>
</a>
</g>
</g>
<!-- Node348&#45;&gt;Node0 -->
<g id="edge1" class="edge">
<title>Node348&#45;&gt;Node0</title>
<path fill="none" stroke="#191970" d="M42.7638,-19.5C50.4944,-19.5 59.3783,-19.5 68.651,-19.5"/>
<polygon fill="#191970" stroke="#191970" points="42.6828,-16.0001 32.6828,-19.5 42.6827,-23.0001 42.6828,-16.0001"/>
</g>
</g>
</svg>
