<?xml version="1.0" encoding="UTF-8" standalone="no"?>
<!DOCTYPE svg PUBLIC "-//W3C//DTD SVG 1.1//EN"
 "http://www.w3.org/Graphics/SVG/1.1/DTD/svg11.dtd">
<!-- Generated by graphviz version 2.40.1 (20161225.0304)
 -->
<!-- Title: khalimskySpaceScanner.cpp Pages: 1 -->
<!--zoomable 812 -->
<svg id="main" version="1.1" xmlns="http://www.w3.org/2000/svg" xmlns:xlink="http://www.w3.org/1999/xlink" xml:space="preserve" onload="init(evt)">
<style type="text/css"><![CDATA[
.edge:hover path { stroke: red; }
.edge:hover polygon { stroke: red; fill: red; }
]]></style>
<script type="text/javascript"><![CDATA[
var edges = document.getElementsByTagName('g');
if (edges && edges.length) {
  for (var i=0;i<edges.length;i++) {
    if (edges[i].id.substr(0,4)=='edge') {
      edges[i].setAttribute('class','edge');
    }
  }
}
]]></script>
        <defs>
                <circle id="rim" cx="0" cy="0" r="7"/>
                <circle id="rim2" cx="0" cy="0" r="3.5"/>
                <g id="zoomPlus">
                        <use xlink:href="#rim" fill="#404040">
                                <set attributeName="fill" to="#808080" begin="zoomplus.mouseover" end="zoomplus.mouseout"/>
                        </use>
                        <path d="M-4,0h8M0,-4v8" fill="none" stroke="white" stroke-width="1.5" pointer-events="none"/>
                </g>
                <g id="zoomMin">
                        <use xlink:href="#rim" fill="#404040">
                                <set attributeName="fill" to="#808080" begin="zoomminus.mouseover" end="zoomminus.mouseout"/>
                        </use>
                        <path d="M-4,0h8" fill="none" stroke="white" stroke-width="1.5" pointer-events="none"/>
                </g>
                <g id="dirArrow">
                        <path fill="none" stroke="white" stroke-width="1.5" d="M0,-3.0v7 M-2.5,-0.5L0,-3.0L2.5,-0.5"/>
                </g>
               <g id="resetDef">
                       <use xlink:href="#rim2" fill="#404040">
                               <set attributeName="fill" to="#808080" begin="reset.mouseover" end="reset.mouseout"/>
                       </use>
               </g>
        </defs>

<script type="text/javascript">
var viewWidth = 2982;
var viewHeight = 812;
var sectionId = 'dynsection-0';
</script>
<script xlink:href="svgpan.js"/>
<svg id="graph" class="graph">
<g id="viewport">
<title>khalimskySpaceScanner.cpp</title>
<polygon fill="#ffffff" stroke="transparent" points="-4,4 -4,-808 2978,-808 2978,4 -4,4"/>
<!-- Node0 -->
<g id="node1" class="node">
<title>Node0</title>
<polygon fill="#bfbfbf" stroke="#000000" points="1432.0742,-785.5 1432.0742,-803.5 1575.9258,-803.5 1575.9258,-785.5 1432.0742,-785.5"/>
<text text-anchor="middle" x="1504" y="-791.5" font-family="FreeSans" font-size="10.00" fill="#000000">khalimskySpaceScanner.cpp</text>
</g>
<!-- Node1 -->
<g id="node2" class="node">
<title>Node1</title>
<polygon fill="#ffffff" stroke="#bfbfbf" points="2272.8276,-.5 2272.8276,-18.5 2327.1724,-18.5 2327.1724,-.5 2272.8276,-.5"/>
<text text-anchor="middle" x="2300" y="-6.5" font-family="FreeSans" font-size="10.00" fill="#000000">iostream</text>
</g>
<!-- Node0&#45;&gt;Node1 -->
<g id="edge1" class="edge">
<title>Node0&#45;&gt;Node1</title>
<path fill="none" stroke="#191970" d="M1576.3961,-792.9176C1872.2707,-785.9824 2974,-755.3984 2974,-684.5 2974,-684.5 2974,-684.5 2974,-119.5 2974,-76.5375 2941.5212,-71.848 2902,-55 2850.18,-32.909 2460.8445,-15.8331 2337.4174,-10.9285"/>
<polygon fill="#191970" stroke="#191970" points="2337.4478,-7.427 2327.3178,-10.5308 2337.1724,-14.4216 2337.4478,-7.427"/>
</g>
<!-- Node2 -->
<g id="node3" class="node">
<title>Node2</title>
<g id="a_node3"><a xlink:href="Common_8h_source.html" target="_top" xlink:title="DGtal/base/Common.h">
<polygon fill="#ffffff" stroke="#000000" points="1573.1455,-230.5 1573.1455,-248.5 1690.8545,-248.5 1690.8545,-230.5 1573.1455,-230.5"/>
<text text-anchor="middle" x="1632" y="-236.5" font-family="FreeSans" font-size="10.00" fill="#000000">DGtal/base/Common.h</text>
</a>
</g>
</g>
<!-- Node0&#45;&gt;Node2 -->
<g id="edge2" class="edge">
<title>Node0&#45;&gt;Node2</title>
<path fill="none" stroke="#191970" d="M1431.9252,-789.3609C1317.2325,-779.1777 1106,-751.3488 1106,-684.5 1106,-684.5 1106,-684.5 1106,-369.5 1106,-316.5453 1142.2133,-307.8173 1190,-285 1254.2344,-254.3291 1455.5547,-244.2334 1562.933,-240.987"/>
<polygon fill="#191970" stroke="#191970" points="1563.1293,-244.4829 1573.0234,-240.6938 1562.9259,-237.4859 1563.1293,-244.4829"/>
</g>
<!-- Node34 -->
<g id="node23" class="node">
<title>Node34</title>
<g id="a_node23"><a xlink:href="Color_8h_source.html" target="_top" xlink:title="DGtal/io/Color.h">
<polygon fill="#ffffff" stroke="#000000" points="186.7046,-110.5 186.7046,-128.5 273.2954,-128.5 273.2954,-110.5 186.7046,-110.5"/>
<text text-anchor="middle" x="230" y="-116.5" font-family="FreeSans" font-size="10.00" fill="#000000">DGtal/io/Color.h</text>
</a>
</g>
</g>
<!-- Node0&#45;&gt;Node34 -->
<g id="edge120" class="edge">
<title>Node0&#45;&gt;Node34</title>
<path fill="none" stroke="#191970" d="M1431.8009,-792.9072C1136.7314,-785.9309 38,-755.2065 38,-684.5 38,-684.5 38,-684.5 38,-239.5 38,-173.8652 119.6812,-142.7995 176.4914,-129.1305"/>
<polygon fill="#191970" stroke="#191970" points="177.4665,-132.4978 186.4322,-126.8528 175.9031,-125.6746 177.4665,-132.4978"/>
</g>
<!-- Node42 -->
<g id="node28" class="node">
<title>Node42</title>
<g id="a_node28"><a xlink:href="KhalimskySpaceND_8h_source.html" target="_top" xlink:title="DGtal/topology/Khalimsky\lSpaceND.h">
<polygon fill="#ffffff" stroke="#000000" points="2483.7539,-490.5 2483.7539,-518.5 2614.2461,-518.5 2614.2461,-490.5 2483.7539,-490.5"/>
<text text-anchor="start" x="2491.7539" y="-506.5" font-family="FreeSans" font-size="10.00" fill="#000000">DGtal/topology/Khalimsky</text>
<text text-anchor="middle" x="2549" y="-496.5" font-family="FreeSans" font-size="10.00" fill="#000000">SpaceND.h</text>
</a>
</g>
</g>
<!-- Node0&#45;&gt;Node42 -->
<g id="edge47" class="edge">
<title>Node0&#45;&gt;Node42</title>
<path fill="none" stroke="#191970" d="M1576.3183,-790.9558C1818.6718,-778.6063 2587,-735.4382 2587,-684.5 2587,-684.5 2587,-684.5 2587,-629.5 2587,-592.8189 2571.8356,-552.5989 2560.666,-527.9492"/>
<polygon fill="#191970" stroke="#191970" points="2563.7419,-526.2649 2556.3268,-518.6974 2557.4043,-529.2373 2563.7419,-526.2649"/>
</g>
<!-- Node70 -->
<g id="node37" class="node">
<title>Node70</title>
<g id="a_node37"><a xlink:href="StdDefs_8h_source.html" target="_top" xlink:title="DGtal/helpers/StdDefs.h">
<polygon fill="#ffffff" stroke="#000000" points="1841.0864,-620.5 1841.0864,-638.5 1964.9136,-638.5 1964.9136,-620.5 1841.0864,-620.5"/>
<text text-anchor="middle" x="1903" y="-626.5" font-family="FreeSans" font-size="10.00" fill="#000000">DGtal/helpers/StdDefs.h</text>
</a>
</g>
</g>
<!-- Node0&#45;&gt;Node70 -->
<g id="edge76" class="edge">
<title>Node0&#45;&gt;Node70</title>
<path fill="none" stroke="#191970" d="M1566.978,-785.4481C1662.8539,-770.4495 1839.0528,-737.7096 1884,-694 1896.0186,-682.3124 1900.5321,-663.44 1902.1787,-649.1218"/>
<polygon fill="#191970" stroke="#191970" points="1905.6923,-649.0795 1902.9732,-638.8396 1898.7131,-648.5402 1905.6923,-649.0795"/>
</g>
<!-- Node161 -->
<g id="node47" class="node">
<title>Node161</title>
<g id="a_node47"><a xlink:href="Board2D_8h_source.html" target="_top" xlink:title="DGtal/io/boards/Board2D.h">
<polygon fill="#ffffff" stroke="#ff0000" points="665.9683,-730.5 665.9683,-748.5 802.0317,-748.5 802.0317,-730.5 665.9683,-730.5"/>
<text text-anchor="middle" x="734" y="-736.5" font-family="FreeSans" font-size="10.00" fill="#000000">DGtal/io/boards/Board2D.h</text>
</a>
</g>
</g>
<!-- Node0&#45;&gt;Node161 -->
<g id="edge121" class="edge">
<title>Node0&#45;&gt;Node161</title>
<path fill="none" stroke="#191970" d="M1431.9063,-789.3505C1287.091,-779.0065 961.9422,-755.7816 812.2059,-745.0861"/>
<polygon fill="#191970" stroke="#191970" points="812.3905,-741.5905 802.1665,-744.369 811.8917,-748.5727 812.3905,-741.5905"/>
</g>
<!-- Node2&#45;&gt;Node1 -->
<g id="edge3" class="edge">
<title>Node2&#45;&gt;Node1</title>
<path fill="none" stroke="#191970" d="M1629.3912,-230.341C1623.3888,-207.1371 1611.2841,-145.3759 1641,-110 1681.4505,-61.8449 2128.3031,-23.011 2262.263,-12.3859"/>
<polygon fill="#191970" stroke="#191970" points="2262.749,-15.8586 2272.4437,-11.5852 2262.2,-8.8802 2262.749,-15.8586"/>
</g>
<!-- Node3 -->
<g id="node4" class="node">
<title>Node3</title>
<polygon fill="#ffffff" stroke="#bfbfbf" points="1687.5962,-170.5 1687.5962,-188.5 1746.4038,-188.5 1746.4038,-170.5 1687.5962,-170.5"/>
<text text-anchor="middle" x="1717" y="-176.5" font-family="FreeSans" font-size="10.00" fill="#000000">exception</text>
</g>
<!-- Node2&#45;&gt;Node3 -->
<g id="edge4" class="edge">
<title>Node2&#45;&gt;Node3</title>
<path fill="none" stroke="#191970" d="M1644.9097,-230.3873C1658.4679,-220.8168 1680.0024,-205.6159 1696.0092,-194.3171"/>
<polygon fill="#191970" stroke="#191970" points="1698.0961,-197.1281 1704.2473,-188.5019 1694.0592,-191.4094 1698.0961,-197.1281"/>
</g>
<!-- Node4 -->
<g id="node5" class="node">
<title>Node4</title>
<polygon fill="#ffffff" stroke="#bfbfbf" points="680.436,-55.5 680.436,-73.5 737.564,-73.5 737.564,-55.5 680.436,-55.5"/>
<text text-anchor="middle" x="709" y="-61.5" font-family="FreeSans" font-size="10.00" fill="#000000">algorithm</text>
</g>
<!-- Node2&#45;&gt;Node4 -->
<g id="edge5" class="edge">
<title>Node2&#45;&gt;Node4</title>
<path fill="none" stroke="#191970" d="M1573.0969,-237.7434C1410.9756,-232.6384 966.0624,-216.7129 904,-194 845.2334,-172.4933 843.5863,-143.9225 791,-110 773.1588,-98.491 752.2162,-86.9006 735.9615,-78.2983"/>
<polygon fill="#191970" stroke="#191970" points="737.4742,-75.1396 726.9915,-73.6018 734.2272,-81.341 737.4742,-75.1396"/>
</g>
<!-- Node5 -->
<g id="node6" class="node">
<title>Node5</title>
<polygon fill="#ffffff" stroke="#bfbfbf" points="1801.5298,-170.5 1801.5298,-188.5 1896.4702,-188.5 1896.4702,-170.5 1801.5298,-170.5"/>
<text text-anchor="middle" x="1849" y="-176.5" font-family="FreeSans" font-size="10.00" fill="#000000">boost/version.hpp</text>
</g>
<!-- Node2&#45;&gt;Node5 -->
<g id="edge6" class="edge">
<title>Node2&#45;&gt;Node5</title>
<path fill="none" stroke="#191970" d="M1664.9576,-230.3873C1702.8562,-219.9084 1765.1661,-202.6799 1806.6358,-191.2136"/>
<polygon fill="#191970" stroke="#191970" points="1807.7376,-194.5404 1816.4432,-188.5019 1805.8721,-187.7935 1807.7376,-194.5404"/>
</g>
<!-- Node6 -->
<g id="node7" class="node">
<title>Node6</title>
<polygon fill="#ffffff" stroke="#bfbfbf" points="1914.2935,-170.5 1914.2935,-188.5 2043.7065,-188.5 2043.7065,-170.5 1914.2935,-170.5"/>
<text text-anchor="middle" x="1979" y="-176.5" font-family="FreeSans" font-size="10.00" fill="#000000">boost/concept_check.hpp</text>
</g>
<!-- Node2&#45;&gt;Node6 -->
<g id="edge7" class="edge">
<title>Node2&#45;&gt;Node6</title>
<path fill="none" stroke="#191970" d="M1689.0748,-230.4705C1744.363,-221.6096 1830.5354,-207.4981 1905,-194 1911.1711,-192.8814 1917.624,-191.6736 1924.037,-190.4493"/>
<polygon fill="#191970" stroke="#191970" points="1924.8789,-193.8516 1934.0357,-188.5221 1923.554,-186.9781 1924.8789,-193.8516"/>
</g>
<!-- Node7 -->
<g id="node8" class="node">
<title>Node7</title>
<polygon fill="#ffffff" stroke="#bfbfbf" points="2061.5815,-170.5 2061.5815,-188.5 2180.4185,-188.5 2180.4185,-170.5 2061.5815,-170.5"/>
<text text-anchor="middle" x="2121" y="-176.5" font-family="FreeSans" font-size="10.00" fill="#000000">boost/static_assert.hpp</text>
</g>
<!-- Node2&#45;&gt;Node7 -->
<g id="edge8" class="edge">
<title>Node2&#45;&gt;Node7</title>
<path fill="none" stroke="#191970" d="M1691.1709,-235.0286C1772.8746,-228.4173 1924.6971,-214.5572 2053,-194 2059.1792,-193.0099 2065.6445,-191.8262 2072.0266,-190.5678"/>
<polygon fill="#191970" stroke="#191970" points="2072.8357,-193.975 2081.934,-188.5461 2071.436,-187.1163 2072.8357,-193.975"/>
</g>
<!-- Node8 -->
<g id="node9" class="node">
<title>Node8</title>
<polygon fill="#ffffff" stroke="#bfbfbf" points="957.1309,-170.5 957.1309,-188.5 1084.8691,-188.5 1084.8691,-170.5 957.1309,-170.5"/>
<text text-anchor="middle" x="1021" y="-176.5" font-family="FreeSans" font-size="10.00" fill="#000000">boost/concept/assert.hpp</text>
</g>
<!-- Node2&#45;&gt;Node8 -->
<g id="edge9" class="edge">
<title>Node2&#45;&gt;Node8</title>
<path fill="none" stroke="#191970" d="M1572.8471,-236.6628C1473.5245,-231.4151 1267.1021,-218.4336 1094,-194 1086.8751,-192.9943 1079.3957,-191.74 1072.0531,-190.3929"/>
<polygon fill="#191970" stroke="#191970" points="1072.6494,-186.9437 1062.1715,-188.513 1071.3411,-193.8203 1072.6494,-186.9437"/>
</g>
<!-- Node9 -->
<g id="node10" class="node">
<title>Node9</title>
<polygon fill="#ffffff" stroke="#bfbfbf" points="1102.6826,-170.5 1102.6826,-188.5 1239.3174,-188.5 1239.3174,-170.5 1102.6826,-170.5"/>
<text text-anchor="middle" x="1171" y="-176.5" font-family="FreeSans" font-size="10.00" fill="#000000">boost/concept/requires.hpp</text>
</g>
<!-- Node2&#45;&gt;Node9 -->
<g id="edge10" class="edge">
<title>Node2&#45;&gt;Node9</title>
<path fill="none" stroke="#191970" d="M1572.9538,-233.7667C1497.416,-226.1425 1362.6345,-211.5641 1248,-194 1240.882,-192.9094 1233.4152,-191.6498 1226.0483,-190.3377"/>
<polygon fill="#191970" stroke="#191970" points="1226.5718,-186.8756 1216.1065,-188.527 1225.3174,-193.7623 1226.5718,-186.8756"/>
</g>
<!-- Node10 -->
<g id="node11" class="node">
<title>Node10</title>
<polygon fill="#ffffff" stroke="#bfbfbf" points="1256.8672,-165.5 1256.8672,-193.5 1365.1328,-193.5 1365.1328,-165.5 1256.8672,-165.5"/>
<text text-anchor="start" x="1264.8672" y="-181.5" font-family="FreeSans" font-size="10.00" fill="#000000">boost/iterator/iterator</text>
<text text-anchor="middle" x="1311" y="-171.5" font-family="FreeSans" font-size="10.00" fill="#000000">_concepts.hpp</text>
</g>
<!-- Node2&#45;&gt;Node10 -->
<g id="edge11" class="edge">
<title>Node2&#45;&gt;Node10</title>
<path fill="none" stroke="#191970" d="M1575.9786,-230.4778C1525.8618,-222.2124 1450.1599,-209.2514 1375.3291,-194.213"/>
<polygon fill="#191970" stroke="#191970" points="1375.753,-190.7279 1365.2575,-192.1751 1374.3647,-197.5889 1375.753,-190.7279"/>
</g>
<!-- Node11 -->
<g id="node12" class="node">
<title>Node11</title>
<polygon fill="#ffffff" stroke="#bfbfbf" points="1383.397,-170.5 1383.397,-188.5 1530.603,-188.5 1530.603,-170.5 1383.397,-170.5"/>
<text text-anchor="middle" x="1457" y="-176.5" font-family="FreeSans" font-size="10.00" fill="#000000">boost/concept_archetype.hpp</text>
</g>
<!-- Node2&#45;&gt;Node11 -->
<g id="edge12" class="edge">
<title>Node2&#45;&gt;Node11</title>
<path fill="none" stroke="#191970" d="M1605.4213,-230.3873C1575.4395,-220.1078 1526.5131,-203.3331 1493.0917,-191.8743"/>
<polygon fill="#191970" stroke="#191970" points="1493.8501,-188.4344 1483.2555,-188.5019 1491.5798,-195.056 1493.8501,-188.4344"/>
</g>
<!-- Node12 -->
<g id="node13" class="node">
<title>Node12</title>
<polygon fill="#ffffff" stroke="#bfbfbf" points="692.3843,-110.5 692.3843,-128.5 735.6157,-128.5 735.6157,-110.5 692.3843,-110.5"/>
<text text-anchor="middle" x="714" y="-116.5" font-family="FreeSans" font-size="10.00" fill="#000000">cmath</text>
</g>
<!-- Node2&#45;&gt;Node12 -->
<g id="edge13" class="edge">
<title>Node2&#45;&gt;Node12</title>
<path fill="none" stroke="#191970" d="M1572.9419,-237.7334C1400.9956,-232.3631 908.4667,-215.2904 839,-194 798.0913,-181.4622 756.6007,-152.9065 733.2032,-135.0145"/>
<polygon fill="#191970" stroke="#191970" points="735.1967,-132.1306 725.1607,-128.735 730.8887,-137.648 735.1967,-132.1306"/>
</g>
<!-- Node13 -->
<g id="node14" class="node">
<title>Node13</title>
<polygon fill="#ffffff" stroke="#bfbfbf" points="1548.2686,-170.5 1548.2686,-188.5 1593.7314,-188.5 1593.7314,-170.5 1548.2686,-170.5"/>
<text text-anchor="middle" x="1571" y="-176.5" font-family="FreeSans" font-size="10.00" fill="#000000">stdio.h</text>
</g>
<!-- Node2&#45;&gt;Node13 -->
<g id="edge14" class="edge">
<title>Node2&#45;&gt;Node13</title>
<path fill="none" stroke="#191970" d="M1622.7354,-230.3873C1613.4199,-221.2245 1598.8576,-206.9009 1587.553,-195.7817"/>
<polygon fill="#191970" stroke="#191970" points="1589.9354,-193.2156 1580.3518,-188.6985 1585.0267,-198.2061 1589.9354,-193.2156"/>
</g>
<!-- Node14 -->
<g id="node15" class="node">
<title>Node14</title>
<g id="a_node15"><a xlink:href="Config_8h_source.html" target="_top" xlink:title="DGtal/base/Config.h">
<polygon fill="#ffffff" stroke="#ff0000" points="2154.9756,-55.5 2154.9756,-73.5 2261.0244,-73.5 2261.0244,-55.5 2154.9756,-55.5"/>
<text text-anchor="middle" x="2208" y="-61.5" font-family="FreeSans" font-size="10.00" fill="#000000">DGtal/base/Config.h</text>
</a>
</g>
</g>
<!-- Node2&#45;&gt;Node14 -->
<g id="edge15" class="edge">
<title>Node2&#45;&gt;Node14</title>
<path fill="none" stroke="#191970" d="M1691.0742,-236.8093C1831.011,-230.1507 2172.2944,-212.1259 2189,-194 2197.7349,-184.5224 2196.8617,-175.2136 2189,-165 2149.2304,-113.3334 2013.9251,-162.194 2053,-110 2064.3788,-94.8008 2107.0812,-82.9512 2144.7894,-75.1599"/>
<polygon fill="#191970" stroke="#191970" points="2145.6326,-78.5607 2154.7529,-73.1689 2144.2608,-71.6964 2145.6326,-78.5607"/>
</g>
<!-- Node16 -->
<g id="node16" class="node">
<title>Node16</title>
<g id="a_node16"><a xlink:href="Trace_8h_source.html" target="_top" xlink:title="DGtal/base/Trace.h">
<polygon fill="#ffffff" stroke="#ff0000" points="2273.8311,-170.5 2273.8311,-188.5 2376.1689,-188.5 2376.1689,-170.5 2273.8311,-170.5"/>
<text text-anchor="middle" x="2325" y="-176.5" font-family="FreeSans" font-size="10.00" fill="#000000">DGtal/base/Trace.h</text>
</a>
</g>
</g>
<!-- Node2&#45;&gt;Node16 -->
<g id="edge17" class="edge">
<title>Node2&#45;&gt;Node16</title>
<path fill="none" stroke="#191970" d="M1691.1902,-238.112C1802.924,-234.8509 2052.348,-224.5142 2260,-194 2266.2308,-193.0844 2272.7528,-191.902 2279.1599,-190.6078"/>
<polygon fill="#191970" stroke="#191970" points="2280.0195,-194.0034 2289.0754,-188.5042 2278.5667,-187.1558 2280.0195,-194.0034"/>
</g>
<!-- Node23 -->
<g id="node17" class="node">
<title>Node23</title>
<g id="a_node17"><a xlink:href="TraceWriterTerm_8h_source.html" target="_top" xlink:title="DGtal/base/TraceWriterTerm.h">
<polygon fill="#ffffff" stroke="#ff0000" points="2224.478,-110.5 2224.478,-128.5 2375.522,-128.5 2375.522,-110.5 2224.478,-110.5"/>
<text text-anchor="middle" x="2300" y="-116.5" font-family="FreeSans" font-size="10.00" fill="#000000">DGtal/base/TraceWriterTerm.h</text>
</a>
</g>
</g>
<!-- Node2&#45;&gt;Node23 -->
<g id="edge25" class="edge">
<title>Node2&#45;&gt;Node23</title>
<path fill="none" stroke="#191970" d="M1691.1179,-238.1157C1864.5475,-233.7693 2361.3087,-219.1661 2385,-194 2393.8347,-184.6154 2391.6228,-176.0572 2385,-165 2375.9544,-149.8979 2359.9949,-139.5251 2344.3291,-132.5446"/>
<polygon fill="#191970" stroke="#191970" points="2345.2594,-129.1448 2334.6773,-128.6247 2342.6253,-135.6304 2345.2594,-129.1448"/>
</g>
<!-- Node24 -->
<g id="node18" class="node">
<title>Node24</title>
<g id="a_node18"><a xlink:href="Assert_8h_source.html" target="_top" xlink:title="DGtal/base/Assert.h">
<polygon fill="#ffffff" stroke="#ff0000" points="2062.2588,-110.5 2062.2588,-128.5 2167.7412,-128.5 2167.7412,-110.5 2062.2588,-110.5"/>
<text text-anchor="middle" x="2115" y="-116.5" font-family="FreeSans" font-size="10.00" fill="#000000">DGtal/base/Assert.h</text>
</a>
</g>
</g>
<!-- Node2&#45;&gt;Node24 -->
<g id="edge28" class="edge">
<title>Node2&#45;&gt;Node24</title>
<path fill="none" stroke="#191970" d="M1691.0555,-237.0907C1836.9842,-230.8523 2204.1258,-213.3058 2222,-194 2246.7908,-167.2238 2197.9287,-144.6279 2158.3443,-131.5654"/>
<polygon fill="#191970" stroke="#191970" points="2159.3788,-128.2218 2148.7885,-128.5318 2157.2607,-134.8936 2159.3788,-128.2218"/>
</g>
<!-- Node27 -->
<g id="node19" class="node">
<title>Node27</title>
<g id="a_node19"><a xlink:href="TraceWriterFile_8h_source.html" target="_top" xlink:title="DGtal/base/TraceWriterFile.h">
<polygon fill="#ffffff" stroke="#ff0000" points="861.5322,-110.5 861.5322,-128.5 1006.4678,-128.5 1006.4678,-110.5 861.5322,-110.5"/>
<text text-anchor="middle" x="934" y="-116.5" font-family="FreeSans" font-size="10.00" fill="#000000">DGtal/base/TraceWriterFile.h</text>
</a>
</g>
</g>
<!-- Node2&#45;&gt;Node27 -->
<g id="edge26" class="edge">
<title>Node2&#45;&gt;Node27</title>
<path fill="none" stroke="#191970" d="M1573.0394,-237.9332C1405.5307,-233.1971 937.4066,-217.8736 915,-194 900.6442,-178.7043 911.0746,-154.1121 921.2693,-137.4019"/>
<polygon fill="#191970" stroke="#191970" points="924.4849,-138.8821 927.0554,-128.6039 918.6363,-135.0358 924.4849,-138.8821"/>
</g>
<!-- Node28 -->
<g id="node20" class="node">
<title>Node28</title>
<g id="a_node20"><a xlink:href="ConceptUtils_8h_source.html" target="_top" xlink:title="DGtal/base/ConceptUtils.h">
<polygon fill="#ffffff" stroke="#000000" points="2508.084,-170.5 2508.084,-188.5 2641.916,-188.5 2641.916,-170.5 2508.084,-170.5"/>
<text text-anchor="middle" x="2575" y="-176.5" font-family="FreeSans" font-size="10.00" fill="#000000">DGtal/base/ConceptUtils.h</text>
</a>
</g>
</g>
<!-- Node2&#45;&gt;Node28 -->
<g id="edge29" class="edge">
<title>Node2&#45;&gt;Node28</title>
<path fill="none" stroke="#191970" d="M1691.2062,-236.767C1822.2612,-230.5652 2146.7571,-214.3704 2418,-194 2443.9099,-192.0542 2472.1907,-189.5578 2497.5219,-187.1867"/>
<polygon fill="#191970" stroke="#191970" points="2498.1834,-190.6399 2507.8102,-186.2155 2497.5255,-183.6709 2498.1834,-190.6399"/>
</g>
<!-- Node29 -->
<g id="node21" class="node">
<title>Node29</title>
<g id="a_node21"><a xlink:href="BasicTypes_8h_source.html" target="_top" xlink:title="DGtal/base/BasicTypes.h">
<polygon fill="#ffffff" stroke="#ff0000" points="1208.8599,-55.5 1208.8599,-73.5 1337.1401,-73.5 1337.1401,-55.5 1208.8599,-55.5"/>
<text text-anchor="middle" x="1273" y="-61.5" font-family="FreeSans" font-size="10.00" fill="#000000">DGtal/base/BasicTypes.h</text>
</a>
</g>
</g>
<!-- Node2&#45;&gt;Node29 -->
<g id="edge31" class="edge">
<title>Node2&#45;&gt;Node29</title>
<path fill="none" stroke="#191970" d="M1572.866,-237.7396C1410.6414,-232.6248 969.2178,-216.6761 948,-194 939.1938,-184.5886 940.35,-175.3731 948,-165 964.8174,-142.1965 1139.0472,-97.1073 1225.2414,-75.9577"/>
<polygon fill="#191970" stroke="#191970" points="1226.167,-79.3346 1235.0505,-73.561 1224.5055,-72.5346 1226.167,-79.3346"/>
</g>
<!-- Node32 -->
<g id="node22" class="node">
<title>Node32</title>
<g id="a_node22"><a xlink:href="BasicFunctors_8h_source.html" target="_top" xlink:title="DGtal/base/BasicFunctors.h">
<polygon fill="#ffffff" stroke="#ff0000" points="532.7515,-170.5 532.7515,-188.5 673.2485,-188.5 673.2485,-170.5 532.7515,-170.5"/>
<text text-anchor="middle" x="603" y="-176.5" font-family="FreeSans" font-size="10.00" fill="#000000">DGtal/base/BasicFunctors.h</text>
</a>
</g>
</g>
<!-- Node2&#45;&gt;Node32 -->
<g id="edge33" class="edge">
<title>Node2&#45;&gt;Node32</title>
<path fill="none" stroke="#191970" d="M1573.0193,-236.8652C1435.7325,-230.3657 1084.7098,-212.7297 792,-194 756.308,-191.7162 717.0198,-188.9015 683.5141,-186.3615"/>
<polygon fill="#191970" stroke="#191970" points="683.5492,-182.8541 673.3118,-185.5829 683.0165,-189.8338 683.5492,-182.8541"/>
</g>
<!-- Node40 -->
<g id="node26" class="node">
<title>Node40</title>
<g id="a_node26"><a xlink:href="BasicArchetypes_8h_source.html" target="_top" xlink:title="DGtal/base/BasicArchetypes.h">
<polygon fill="#ffffff" stroke="#000000" points="1650.1899,-110.5 1650.1899,-128.5 1801.8101,-128.5 1801.8101,-110.5 1650.1899,-110.5"/>
<text text-anchor="middle" x="1726" y="-116.5" font-family="FreeSans" font-size="10.00" fill="#000000">DGtal/base/BasicArchetypes.h</text>
</a>
</g>
</g>
<!-- Node2&#45;&gt;Node40 -->
<g id="edge43" class="edge">
<title>Node2&#45;&gt;Node40</title>
<path fill="none" stroke="#191970" d="M1636.8519,-230.3186C1644.74,-215.7722 1661.2582,-186.8408 1679,-165 1687.6398,-154.3641 1698.5759,-143.6467 1707.7245,-135.2872"/>
<polygon fill="#191970" stroke="#191970" points="1710.0746,-137.8811 1715.2015,-128.6093 1705.4116,-132.6602 1710.0746,-137.8811"/>
</g>
<!-- Node41 -->
<g id="node27" class="node">
<title>Node41</title>
<g id="a_node27"><a xlink:href="Exceptions_8h_source.html" target="_top" xlink:title="DGtal/base/Exceptions.h">
<polygon fill="#ffffff" stroke="#000000" points="1946.9707,-55.5 1946.9707,-73.5 2073.0293,-73.5 2073.0293,-55.5 1946.9707,-55.5"/>
<text text-anchor="middle" x="2010" y="-61.5" font-family="FreeSans" font-size="10.00" fill="#000000">DGtal/base/Exceptions.h</text>
</a>
</g>
</g>
<!-- Node2&#45;&gt;Node41 -->
<g id="edge45" class="edge">
<title>Node2&#45;&gt;Node41</title>
<path fill="none" stroke="#191970" d="M1664.2203,-230.4747C1689.7198,-222.6583 1725.7772,-210.0819 1755,-194 1773.6129,-183.757 1774.8084,-175.9738 1793,-165 1854.84,-127.6959 1932.8315,-94.6856 1976.4727,-77.3576"/>
<polygon fill="#191970" stroke="#191970" points="1977.9985,-80.5185 1986.0218,-73.5992 1975.4347,-74.0049 1977.9985,-80.5185"/>
</g>
<!-- Node14&#45;&gt;Node1 -->
<g id="edge16" class="edge">
<title>Node14&#45;&gt;Node1</title>
<path fill="none" stroke="#191970" d="M2223.1919,-55.4179C2237.5746,-46.8195 2259.3939,-33.7754 2276.1061,-23.7844"/>
<polygon fill="#191970" stroke="#191970" points="2277.9983,-26.731 2284.7855,-18.5956 2274.4064,-20.7228 2277.9983,-26.731"/>
</g>
<!-- Node16&#45;&gt;Node1 -->
<g id="edge18" class="edge">
<title>Node16&#45;&gt;Node1</title>
<path fill="none" stroke="#191970" d="M2342.8218,-170.4864C2363.7479,-158.5307 2394.4824,-135.8953 2385,-110 2372.0856,-74.7322 2340.7182,-43.325 2319.9151,-25.358"/>
<polygon fill="#191970" stroke="#191970" points="2321.9071,-22.461 2311.9939,-18.7221 2317.4119,-27.8269 2321.9071,-22.461"/>
</g>
<!-- Node16&#45;&gt;Node14 -->
<g id="edge19" class="edge">
<title>Node16&#45;&gt;Node14</title>
<path fill="none" stroke="#191970" d="M2281.2379,-170.4493C2257.7924,-163.2517 2230.5985,-150.654 2215,-129 2205.7419,-116.1478 2204.5428,-97.9527 2205.3425,-84.1627"/>
<polygon fill="#191970" stroke="#191970" points="2208.863,-84.1219 2206.3512,-73.8291 2201.8961,-83.4417 2208.863,-84.1219"/>
</g>
<!-- Node16&#45;&gt;Node23 -->
<g id="edge20" class="edge">
<title>Node16&#45;&gt;Node23</title>
<path fill="none" stroke="#191970" d="M2321.203,-170.3873C2317.6422,-161.8412 2312.2107,-148.8057 2307.7366,-138.0679"/>
<polygon fill="#191970" stroke="#191970" points="2310.9097,-136.5831 2303.8327,-128.6985 2304.4481,-139.2754 2310.9097,-136.5831"/>
</g>
<!-- Node16&#45;&gt;Node24 -->
<g id="edge23" class="edge">
<title>Node16&#45;&gt;Node24</title>
<path fill="none" stroke="#191970" d="M2288.0962,-170.3873C2249.5153,-159.9749 2189.5778,-142.8982 2151.2476,-131.4325"/>
<polygon fill="#191970" stroke="#191970" points="2152.1046,-128.0354 2141.5201,-128.5019 2150.0854,-134.7378 2152.1046,-128.0354"/>
</g>
<!-- Node23&#45;&gt;Node1 -->
<g id="edge21" class="edge">
<title>Node23&#45;&gt;Node1</title>
<path fill="none" stroke="#191970" d="M2300,-110.4982C2300,-92.6913 2300,-52.6225 2300,-28.6515"/>
<polygon fill="#191970" stroke="#191970" points="2303.5001,-28.6261 2300,-18.6261 2296.5001,-28.6262 2303.5001,-28.6261"/>
</g>
<!-- Node23&#45;&gt;Node14 -->
<g id="edge22" class="edge">
<title>Node23&#45;&gt;Node14</title>
<path fill="none" stroke="#191970" d="M2284.8081,-110.4179C2270.4254,-101.8195 2248.6061,-88.7754 2231.8939,-78.7844"/>
<polygon fill="#191970" stroke="#191970" points="2233.5936,-75.7228 2223.2145,-73.5956 2230.0017,-81.731 2233.5936,-75.7228"/>
</g>
<!-- Node24&#45;&gt;Node16 -->
<g id="edge24" class="edge">
<title>Node24&#45;&gt;Node16</title>
<path fill="none" stroke="#191970" d="M2151.493,-128.5019C2189.9214,-138.8667 2249.8593,-155.9395 2288.3427,-167.445"/>
<polygon fill="#191970" stroke="#191970" points="2287.5304,-170.8556 2298.1149,-170.3873 2289.5486,-164.1528 2287.5304,-170.8556"/>
</g>
<!-- Node27&#45;&gt;Node1 -->
<g id="edge27" class="edge">
<title>Node27&#45;&gt;Node1</title>
<path fill="none" stroke="#191970" d="M963.1563,-110.4286C1011.7152,-95.7756 1112.475,-67.2998 1200,-55 1411.9388,-25.2164 2094.8623,-12.7223 2262.5527,-10.0605"/>
<polygon fill="#191970" stroke="#191970" points="2262.6772,-13.5591 2272.6211,-9.9028 2262.5674,-6.56 2262.6772,-13.5591"/>
</g>
<!-- Node28&#45;&gt;Node1 -->
<g id="edge30" class="edge">
<title>Node28&#45;&gt;Node1</title>
<path fill="none" stroke="#191970" d="M2571.7877,-170.2621C2563.1786,-146.9393 2537.2622,-85.3777 2494,-55 2469.0219,-37.461 2386.3124,-22.4839 2337.3211,-14.8694"/>
<polygon fill="#191970" stroke="#191970" points="2337.825,-11.4058 2327.4116,-13.358 2336.7696,-18.3258 2337.825,-11.4058"/>
</g>
<!-- Node29&#45;&gt;Node1 -->
<g id="edge32" class="edge">
<title>Node29&#45;&gt;Node1</title>
<path fill="none" stroke="#191970" d="M1337.2434,-61.0595C1531.5077,-50.6559 2108.8141,-19.7388 2262.2165,-11.5235"/>
<polygon fill="#191970" stroke="#191970" points="2262.7193,-15.0016 2272.5178,-10.9718 2262.3449,-8.0117 2262.7193,-15.0016"/>
</g>
<!-- Node32&#45;&gt;Node2 -->
<g id="edge42" class="edge">
<title>Node32&#45;&gt;Node2</title>
<path fill="none" stroke="#191970" d="M673.6267,-184.3991C713.7611,-187.3589 764.7683,-191.1057 810,-194 1089.0575,-211.8562 1421.1152,-228.7182 1562.6654,-235.8841"/>
<polygon fill="#191970" stroke="#191970" points="1562.7664,-239.3936 1572.9306,-236.4038 1563.1204,-232.4026 1562.7664,-239.3936"/>
</g>
<!-- Node32&#45;&gt;Node4 -->
<g id="edge34" class="edge">
<title>Node32&#45;&gt;Node4</title>
<path fill="none" stroke="#191970" d="M611.3176,-170.4761C629.0326,-151.2571 670.7229,-106.027 693.4921,-81.3246"/>
<polygon fill="#191970" stroke="#191970" points="696.2226,-83.5265 700.4266,-73.8014 691.0755,-78.7822 696.2226,-83.5265"/>
</g>
<!-- Node32&#45;&gt;Node12 -->
<g id="edge35" class="edge">
<title>Node32&#45;&gt;Node12</title>
<path fill="none" stroke="#191970" d="M619.8585,-170.3873C638.0558,-160.5509 667.2558,-144.7671 688.3133,-133.3847"/>
<polygon fill="#191970" stroke="#191970" points="690.2138,-136.3361 697.3465,-128.5019 686.8851,-130.1781 690.2138,-136.3361"/>
</g>
<!-- Node32&#45;&gt;Node34 -->
<g id="edge36" class="edge">
<title>Node32&#45;&gt;Node34</title>
<path fill="none" stroke="#191970" d="M546.7543,-170.4524C475.3705,-158.9698 353.1364,-139.3075 283.2237,-128.0615"/>
<polygon fill="#191970" stroke="#191970" points="283.7296,-124.5979 273.3006,-126.4652 282.6178,-131.5091 283.7296,-124.5979"/>
</g>
<!-- Node34&#45;&gt;Node1 -->
<g id="edge37" class="edge">
<title>Node34&#45;&gt;Node1</title>
<path fill="none" stroke="#191970" d="M186.588,-117.0398C122.8604,-111.9761 15.7761,-97.0686 57,-55 97.2442,-13.9312 1972.774,-9.9132 2262.5666,-9.5374"/>
<polygon fill="#191970" stroke="#191970" points="2262.5816,-13.0375 2272.5773,-9.5251 2262.5729,-6.0375 2262.5816,-13.0375"/>
</g>
<!-- Node34&#45;&gt;Node2 -->
<g id="edge38" class="edge">
<title>Node34&#45;&gt;Node2</title>
<path fill="none" stroke="#191970" d="M257.5826,-128.5375C309.2046,-144.9896 424.2183,-179.4692 524,-194 725.8706,-223.3976 1352.8155,-235.3039 1562.7235,-238.5324"/>
<polygon fill="#191970" stroke="#191970" points="1562.9417,-242.036 1572.9938,-238.6885 1563.0482,-235.0368 1562.9417,-242.036"/>
</g>
<!-- Node34&#45;&gt;Node4 -->
<g id="edge40" class="edge">
<title>Node34&#45;&gt;Node4</title>
<path fill="none" stroke="#191970" d="M273.3529,-114.5221C365.9659,-103.8881 581.8595,-79.0986 670.2349,-68.9511"/>
<polygon fill="#191970" stroke="#191970" points="670.8279,-72.4061 680.3634,-67.7881 670.0293,-65.4518 670.8279,-72.4061"/>
</g>
<!-- Node35 -->
<g id="node24" class="node">
<title>Node35</title>
<polygon fill="#ffffff" stroke="#bfbfbf" points="172.8032,-55.5 172.8032,-73.5 287.1968,-73.5 287.1968,-55.5 172.8032,-55.5"/>
<text text-anchor="middle" x="230" y="-61.5" font-family="FreeSans" font-size="10.00" fill="#000000">boost/lexical_cast.hpp</text>
</g>
<!-- Node34&#45;&gt;Node35 -->
<g id="edge39" class="edge">
<title>Node34&#45;&gt;Node35</title>
<path fill="none" stroke="#191970" d="M230,-110.4179C230,-103.2164 230,-92.8962 230,-83.8632"/>
<polygon fill="#191970" stroke="#191970" points="233.5001,-83.7794 230,-73.7795 226.5001,-83.7795 233.5001,-83.7794"/>
</g>
<!-- Node36 -->
<g id="node25" class="node">
<title>Node36</title>
<g id="a_node25"><a xlink:href="Color_8ih_source.html" target="_top" xlink:title="DGtal/io/Color.ih">
<polygon fill="#ffffff" stroke="#000000" points="65.5938,-55.5 65.5938,-73.5 154.4063,-73.5 154.4063,-55.5 65.5938,-55.5"/>
<text text-anchor="middle" x="110" y="-61.5" font-family="FreeSans" font-size="10.00" fill="#000000">DGtal/io/Color.ih</text>
</a>
</g>
</g>
<!-- Node34&#45;&gt;Node36 -->
<g id="edge41" class="edge">
<title>Node34&#45;&gt;Node36</title>
<path fill="none" stroke="#191970" d="M210.1844,-110.4179C190.8165,-101.5409 161.1097,-87.9253 139.0683,-77.823"/>
<polygon fill="#191970" stroke="#191970" points="140.394,-74.5805 129.845,-73.5956 137.4773,-80.944 140.394,-74.5805"/>
</g>
<!-- Node40&#45;&gt;Node1 -->
<g id="edge44" class="edge">
<title>Node40&#45;&gt;Node1</title>
<path fill="none" stroke="#191970" d="M1750.7669,-110.4547C1789.9695,-96.4828 1868.9588,-69.7294 1938,-55 2054.7749,-30.087 2195.8562,-17.1927 2262.131,-12.1253"/>
<polygon fill="#191970" stroke="#191970" points="2262.7757,-15.587 2272.4869,-11.3511 2262.2538,-8.6065 2262.7757,-15.587"/>
</g>
<!-- Node41&#45;&gt;Node1 -->
<g id="edge46" class="edge">
<title>Node41&#45;&gt;Node1</title>
<path fill="none" stroke="#191970" d="M2057.5629,-55.4795C2114.9586,-44.5941 2210.2639,-26.5189 2262.651,-16.5834"/>
<polygon fill="#191970" stroke="#191970" points="2263.3596,-20.0115 2272.5322,-14.7094 2262.0552,-13.1341 2263.3596,-20.0115"/>
</g>
<!-- Node42&#45;&gt;Node1 -->
<g id="edge48" class="edge">
<title>Node42&#45;&gt;Node1</title>
<path fill="none" stroke="#191970" d="M2614.303,-497.9476C2678.2469,-490.3726 2770.0226,-476.0437 2798,-454 2880.6202,-388.9028 2898,-344.6844 2898,-239.5 2898,-239.5 2898,-239.5 2898,-119.5 2898,-80.0438 2872.547,-72.1231 2837,-55 2792.2466,-33.4421 2452.1886,-16.3393 2337.5769,-11.1358"/>
<polygon fill="#191970" stroke="#191970" points="2337.6651,-7.6363 2327.5179,-10.6835 2337.3506,-14.6293 2337.6651,-7.6363"/>
</g>
<!-- Node42&#45;&gt;Node2 -->
<g id="edge52" class="edge">
<title>Node42&#45;&gt;Node2</title>
<path fill="none" stroke="#191970" d="M2483.4507,-501.0494C2387.8563,-495.1697 2215.5332,-481.1212 2160,-454 2063.9851,-407.1084 2085.0695,-331.7797 1989,-285 1939.7104,-260.9991 1790.2407,-248.5226 1701.0982,-243.0487"/>
<polygon fill="#191970" stroke="#191970" points="1701.2615,-239.5523 1691.0697,-242.4468 1700.842,-246.5398 1701.2615,-239.5523"/>
</g>
<!-- Node43 -->
<g id="node29" class="node">
<title>Node43</title>
<polygon fill="#ffffff" stroke="#bfbfbf" points="2291.3301,-360.5 2291.3301,-378.5 2320.6699,-378.5 2320.6699,-360.5 2291.3301,-360.5"/>
<text text-anchor="middle" x="2306" y="-366.5" font-family="FreeSans" font-size="10.00" fill="#000000">set</text>
</g>
<!-- Node42&#45;&gt;Node43 -->
<g id="edge49" class="edge">
<title>Node42&#45;&gt;Node43</title>
<path fill="none" stroke="#191970" d="M2483.5329,-490.4694C2454.4805,-482.4803 2420.6803,-470.6657 2393,-454 2362.8092,-435.8227 2334.9085,-405.2958 2319.2078,-386.3365"/>
<polygon fill="#191970" stroke="#191970" points="2321.8989,-384.0981 2312.8881,-378.5254 2316.457,-388.501 2321.8989,-384.0981"/>
</g>
<!-- Node44 -->
<g id="node30" class="node">
<title>Node44</title>
<polygon fill="#ffffff" stroke="#bfbfbf" points="2199.2734,-360.5 2199.2734,-378.5 2234.7266,-378.5 2234.7266,-360.5 2199.2734,-360.5"/>
<text text-anchor="middle" x="2217" y="-366.5" font-family="FreeSans" font-size="10.00" fill="#000000">map</text>
</g>
<!-- Node42&#45;&gt;Node44 -->
<g id="edge50" class="edge">
<title>Node42&#45;&gt;Node44</title>
<path fill="none" stroke="#191970" d="M2483.388,-500.3763C2380.6104,-493.2406 2191.2225,-477.1038 2171,-454 2152.6291,-433.0116 2177.7989,-403.4494 2197.5222,-385.4298"/>
<polygon fill="#191970" stroke="#191970" points="2200.0073,-387.9064 2205.2361,-378.6917 2195.4022,-382.6344 2200.0073,-387.9064"/>
</g>
<!-- Node45 -->
<g id="node31" class="node">
<title>Node45</title>
<polygon fill="#ffffff" stroke="#bfbfbf" points="2679.6084,-230.5 2679.6084,-248.5 2718.3916,-248.5 2718.3916,-230.5 2679.6084,-230.5"/>
<text text-anchor="middle" x="2699" y="-236.5" font-family="FreeSans" font-size="10.00" fill="#000000">array</text>
</g>
<!-- Node42&#45;&gt;Node45 -->
<g id="edge51" class="edge">
<title>Node42&#45;&gt;Node45</title>
<path fill="none" stroke="#191970" d="M2614.2725,-499.0074C2674.2789,-492.4439 2756.8866,-479.0558 2777,-454 2826.8123,-391.9474 2750.4817,-295.2596 2715.2566,-256.4562"/>
<polygon fill="#191970" stroke="#191970" points="2717.411,-253.6325 2708.0421,-248.6854 2712.281,-258.3953 2717.411,-253.6325"/>
</g>
<!-- Node46 -->
<g id="node32" class="node">
<title>Node46</title>
<g id="a_node32"><a xlink:href="CInteger_8h_source.html" target="_top" xlink:title="DGtal/kernel/CInteger.h">
<polygon fill="#ffffff" stroke="#ff0000" points="2367.749,-290.5 2367.749,-308.5 2488.251,-308.5 2488.251,-290.5 2367.749,-290.5"/>
<text text-anchor="middle" x="2428" y="-296.5" font-family="FreeSans" font-size="10.00" fill="#000000">DGtal/kernel/CInteger.h</text>
</a>
</g>
</g>
<!-- Node42&#45;&gt;Node46 -->
<g id="edge53" class="edge">
<title>Node42&#45;&gt;Node46</title>
<path fill="none" stroke="#191970" d="M2614.4135,-498.0479C2678.2988,-489.0944 2761.2816,-468.7613 2727,-425 2685.7856,-372.3888 2642.927,-414.1319 2581,-389 2531.0837,-368.7424 2477.892,-334.3399 2449.2449,-314.6095"/>
<polygon fill="#191970" stroke="#191970" points="2451.0476,-311.5998 2440.8416,-308.7556 2447.0463,-317.3435 2451.0476,-311.5998"/>
</g>
<!-- Node59 -->
<g id="node33" class="node">
<title>Node59</title>
<g id="a_node33"><a xlink:href="PointVector_8h_source.html" target="_top" xlink:title="DGtal/kernel/PointVector.h">
<polygon fill="#ffffff" stroke="#ff0000" points="2506.3525,-290.5 2506.3525,-308.5 2639.6475,-308.5 2639.6475,-290.5 2506.3525,-290.5"/>
<text text-anchor="middle" x="2573" y="-296.5" font-family="FreeSans" font-size="10.00" fill="#000000">DGtal/kernel/PointVector.h</text>
</a>
</g>
</g>
<!-- Node42&#45;&gt;Node59 -->
<g id="edge57" class="edge">
<title>Node42&#45;&gt;Node59</title>
<path fill="none" stroke="#191970" d="M2550.6496,-490.4095C2554.8509,-454.5239 2565.9594,-359.6384 2570.7494,-318.7237"/>
<polygon fill="#191970" stroke="#191970" points="2574.2353,-319.0479 2571.9219,-308.7088 2567.2828,-318.2339 2574.2353,-319.0479"/>
</g>
<!-- Node66 -->
<g id="node34" class="node">
<title>Node66</title>
<g id="a_node34"><a xlink:href="SpaceND_8h_source.html" target="_top" xlink:title="DGtal/kernel/SpaceND.h">
<polygon fill="#ffffff" stroke="#000000" points="2590.2539,-360.5 2590.2539,-378.5 2715.7461,-378.5 2715.7461,-360.5 2590.2539,-360.5"/>
<text text-anchor="middle" x="2653" y="-366.5" font-family="FreeSans" font-size="10.00" fill="#000000">DGtal/kernel/SpaceND.h</text>
</a>
</g>
</g>
<!-- Node42&#45;&gt;Node66 -->
<g id="edge62" class="edge">
<title>Node42&#45;&gt;Node66</title>
<path fill="none" stroke="#191970" d="M2614.5106,-497.6467C2669.5649,-490.3756 2742.0655,-476.7334 2760,-454 2784.3793,-423.0973 2731.9394,-396.6876 2692.1922,-381.973"/>
<polygon fill="#191970" stroke="#191970" points="2693.2641,-378.6394 2682.6694,-378.5758 2690.912,-385.2324 2693.2641,-378.6394"/>
</g>
<!-- Node67 -->
<g id="node35" class="node">
<title>Node67</title>
<g id="a_node35"><a xlink:href="KhalimskyPreSpaceND_8h_source.html" target="_top" xlink:title="DGtal/topology/Khalimsky\lPreSpaceND.h">
<polygon fill="#ffffff" stroke="#ff0000" points="2401.7539,-425.5 2401.7539,-453.5 2532.2461,-453.5 2532.2461,-425.5 2401.7539,-425.5"/>
<text text-anchor="start" x="2409.7539" y="-441.5" font-family="FreeSans" font-size="10.00" fill="#000000">DGtal/topology/Khalimsky</text>
<text text-anchor="middle" x="2467" y="-431.5" font-family="FreeSans" font-size="10.00" fill="#000000">PreSpaceND.h</text>
</a>
</g>
</g>
<!-- Node42&#45;&gt;Node67 -->
<g id="edge67" class="edge">
<title>Node42&#45;&gt;Node67</title>
<path fill="none" stroke="#191970" d="M2531.2072,-490.396C2519.9245,-481.4524 2505.1457,-469.7375 2492.6114,-459.8018"/>
<polygon fill="#191970" stroke="#191970" points="2494.7688,-457.0457 2484.7581,-453.5765 2490.4205,-462.5313 2494.7688,-457.0457"/>
</g>
<!-- Node69 -->
<g id="node36" class="node">
<title>Node69</title>
<g id="a_node36"><a xlink:href="KhalimskySpaceND_8ih_source.html" target="_top" xlink:title="DGtal/topology/Khalimsky\lSpaceND.ih">
<polygon fill="#ffffff" stroke="#000000" points="2587.7539,-425.5 2587.7539,-453.5 2718.2461,-453.5 2718.2461,-425.5 2587.7539,-425.5"/>
<text text-anchor="start" x="2595.7539" y="-441.5" font-family="FreeSans" font-size="10.00" fill="#000000">DGtal/topology/Khalimsky</text>
<text text-anchor="middle" x="2653" y="-431.5" font-family="FreeSans" font-size="10.00" fill="#000000">SpaceND.ih</text>
</a>
</g>
</g>
<!-- Node42&#45;&gt;Node69 -->
<g id="edge75" class="edge">
<title>Node42&#45;&gt;Node69</title>
<path fill="none" stroke="#191970" d="M2571.5665,-490.396C2586.2851,-481.1968 2605.6948,-469.0658 2621.8727,-458.9546"/>
<polygon fill="#191970" stroke="#191970" points="2623.8526,-461.8445 2630.4776,-453.5765 2620.1426,-455.9085 2623.8526,-461.8445"/>
</g>
<!-- Node46&#45;&gt;Node1 -->
<g id="edge54" class="edge">
<title>Node46&#45;&gt;Node1</title>
<path fill="none" stroke="#191970" d="M2456.1454,-290.394C2510.9661,-272.0264 2628.6611,-229.281 2651,-194 2657.8949,-183.1104 2656.4885,-176.6619 2651,-165 2594.889,-45.7767 2416.1068,-17.9582 2337.5888,-11.471"/>
<polygon fill="#191970" stroke="#191970" points="2337.4324,-7.9495 2327.1982,-10.6899 2336.9076,-14.9298 2337.4324,-7.9495"/>
</g>
<!-- Node46&#45;&gt;Node2 -->
<g id="edge55" class="edge">
<title>Node46&#45;&gt;Node2</title>
<path fill="none" stroke="#191970" d="M2367.6276,-290.9831C2350.9277,-288.8183 2332.7816,-286.6429 2316,-285 2091.6335,-263.0353 1824.8045,-248.664 1701.1958,-242.6746"/>
<polygon fill="#191970" stroke="#191970" points="1701.2714,-239.1743 1691.1147,-242.1894 1700.9348,-246.1662 1701.2714,-239.1743"/>
</g>
<!-- Node46&#45;&gt;Node28 -->
<g id="edge56" class="edge">
<title>Node46&#45;&gt;Node28</title>
<path fill="none" stroke="#191970" d="M2440.3232,-290.3941C2453.7017,-280.4339 2475.6183,-263.899 2494,-249 2516.0646,-231.1159 2540.7457,-209.7319 2556.9997,-195.4508"/>
<polygon fill="#191970" stroke="#191970" points="2559.4862,-197.9247 2564.6729,-188.6863 2554.8571,-192.6738 2559.4862,-197.9247"/>
</g>
<!-- Node59&#45;&gt;Node1 -->
<g id="edge58" class="edge">
<title>Node59&#45;&gt;Node1</title>
<path fill="none" stroke="#191970" d="M2585.8989,-290.2461C2607.5846,-273.7933 2650.5847,-237.0992 2667,-194 2681.3954,-156.2042 2659.732,-139.4396 2632,-110 2603.4105,-79.6502 2594.3845,-71.2818 2556,-55 2482.673,-23.8966 2388.8095,-14.0537 2337.5549,-10.9399"/>
<polygon fill="#191970" stroke="#191970" points="2337.4651,-7.4297 2327.2872,-10.3724 2337.0787,-14.419 2337.4651,-7.4297"/>
</g>
<!-- Node59&#45;&gt;Node2 -->
<g id="edge61" class="edge">
<title>Node59&#45;&gt;Node2</title>
<path fill="none" stroke="#191970" d="M2531.3475,-290.4964C2520.2345,-288.3843 2508.2014,-286.3568 2497,-285 2343.3985,-266.395 1877.8421,-248.3016 1701.081,-241.9184"/>
<polygon fill="#191970" stroke="#191970" points="1700.9855,-238.4128 1690.8661,-241.5509 1700.7338,-245.4082 1700.9855,-238.4128"/>
</g>
<!-- Node59&#45;&gt;Node4 -->
<g id="edge59" class="edge">
<title>Node59&#45;&gt;Node4</title>
<path fill="none" stroke="#191970" d="M2531.7564,-290.4657C2520.5335,-288.3267 2508.3441,-286.2936 2497,-285 2133.2431,-243.5188 1188.2805,-338.7591 852,-194 794.0094,-169.0367 743.8874,-110.6236 721.4876,-81.5553"/>
<polygon fill="#191970" stroke="#191970" points="724.2632,-79.4229 715.4479,-73.5457 718.6741,-83.6374 724.2632,-79.4229"/>
</g>
<!-- Node59&#45;&gt;Node45 -->
<g id="edge60" class="edge">
<title>Node59&#45;&gt;Node45</title>
<path fill="none" stroke="#191970" d="M2592.1367,-290.3873C2613.0722,-280.418 2646.8372,-264.3394 2670.806,-252.9257"/>
<polygon fill="#191970" stroke="#191970" points="2672.5722,-255.9613 2680.0961,-248.5019 2669.5627,-249.6413 2672.5722,-255.9613"/>
</g>
<!-- Node66&#45;&gt;Node1 -->
<g id="edge63" class="edge">
<title>Node66&#45;&gt;Node1</title>
<path fill="none" stroke="#191970" d="M2666.6983,-360.4703C2681.3388,-350.36 2704.6466,-332.8978 2721,-314 2764.195,-264.0844 2784,-245.5105 2784,-179.5 2784,-179.5 2784,-179.5 2784,-119.5 2784,-88.9131 2784.2273,-73.6707 2760,-55 2726.7761,-29.3961 2441.015,-15.2656 2337.3595,-10.9453"/>
<polygon fill="#191970" stroke="#191970" points="2337.4768,-7.4472 2327.3419,-10.5348 2337.1901,-14.4414 2337.4768,-7.4472"/>
</g>
<!-- Node66&#45;&gt;Node2 -->
<g id="edge64" class="edge">
<title>Node66&#45;&gt;Node2</title>
<path fill="none" stroke="#191970" d="M2656.0387,-360.3031C2661.1512,-342.8798 2669.069,-305.017 2649,-285 2615.4719,-251.5587 1925.1078,-242.2195 1701.3447,-240.0657"/>
<polygon fill="#191970" stroke="#191970" points="1701.0791,-236.5632 1691.0465,-239.9685 1701.013,-243.5628 1701.0791,-236.5632"/>
</g>
<!-- Node66&#45;&gt;Node46 -->
<g id="edge65" class="edge">
<title>Node66&#45;&gt;Node46</title>
<path fill="none" stroke="#191970" d="M2624.0458,-360.492C2583.991,-348.0305 2511.5656,-325.4982 2466.8448,-311.585"/>
<polygon fill="#191970" stroke="#191970" points="2467.7878,-308.213 2457.1995,-308.5843 2465.7083,-314.897 2467.7878,-308.213"/>
</g>
<!-- Node66&#45;&gt;Node59 -->
<g id="edge66" class="edge">
<title>Node66&#45;&gt;Node59</title>
<path fill="none" stroke="#191970" d="M2642.5414,-360.3487C2629.4853,-348.9246 2606.942,-329.1992 2591.0685,-315.3099"/>
<polygon fill="#191970" stroke="#191970" points="2593.2917,-312.6046 2583.4612,-308.6535 2588.6822,-317.8726 2593.2917,-312.6046"/>
</g>
<!-- Node67&#45;&gt;Node1 -->
<g id="edge68" class="edge">
<title>Node67&#45;&gt;Node1</title>
<path fill="none" stroke="#191970" d="M2532.3473,-430.7299C2611.4601,-419.6973 2736.4694,-400.7743 2755,-389 2823.5311,-345.4555 2860,-320.6951 2860,-239.5 2860,-239.5 2860,-239.5 2860,-119.5 2860,-82.6774 2840.4758,-72.3559 2808,-55 2766.7684,-32.9648 2447.8484,-16.3208 2337.4586,-11.1689"/>
<polygon fill="#191970" stroke="#191970" points="2337.5939,-7.6715 2327.443,-10.7064 2337.2709,-14.6641 2337.5939,-7.6715"/>
</g>
<!-- Node67&#45;&gt;Node2 -->
<g id="edge71" class="edge">
<title>Node67&#45;&gt;Node2</title>
<path fill="none" stroke="#191970" d="M2448.3344,-425.2796C2422.7205,-406.2498 2374.7465,-372.3153 2330,-350 2253.8839,-312.0407 2233.0601,-303.319 2150,-285 2066.373,-266.556 1822.1999,-250.4599 1701.3705,-243.3615"/>
<polygon fill="#191970" stroke="#191970" points="1701.3138,-239.8524 1691.1269,-242.764 1700.9061,-246.8405 1701.3138,-239.8524"/>
</g>
<!-- Node67&#45;&gt;Node43 -->
<g id="edge69" class="edge">
<title>Node67&#45;&gt;Node43</title>
<path fill="none" stroke="#191970" d="M2422.8198,-425.4149C2396.6508,-416.3869 2363.2034,-403.6358 2335,-389 2332.2351,-387.5652 2329.4127,-385.9215 2326.6671,-384.2105"/>
<polygon fill="#191970" stroke="#191970" points="2328.593,-381.288 2318.3221,-378.6879 2324.7298,-387.1255 2328.593,-381.288"/>
</g>
<!-- Node67&#45;&gt;Node44 -->
<g id="edge70" class="edge">
<title>Node67&#45;&gt;Node44</title>
<path fill="none" stroke="#191970" d="M2414.2724,-425.4822C2377.206,-415.5362 2326.4884,-401.7432 2282,-389 2269.7731,-385.4977 2256.2996,-381.4817 2244.8051,-378.0079"/>
<polygon fill="#191970" stroke="#191970" points="2245.4834,-374.5561 2234.8978,-375.0005 2243.45,-381.2543 2245.4834,-374.5561"/>
</g>
<!-- Node67&#45;&gt;Node46 -->
<g id="edge72" class="edge">
<title>Node67&#45;&gt;Node46</title>
<path fill="none" stroke="#191970" d="M2463.0458,-425.3056C2456.0024,-400.0214 2441.2802,-347.1724 2433.3435,-318.6818"/>
<polygon fill="#191970" stroke="#191970" points="2436.6306,-317.439 2430.5754,-308.745 2429.8874,-319.3175 2436.6306,-317.439"/>
</g>
<!-- Node67&#45;&gt;Node59 -->
<g id="edge73" class="edge">
<title>Node67&#45;&gt;Node59</title>
<path fill="none" stroke="#191970" d="M2477.7472,-425.3056C2497.3145,-399.462 2538.6859,-344.8205 2559.8809,-316.8271"/>
<polygon fill="#191970" stroke="#191970" points="2562.7542,-318.8304 2566.0002,-308.745 2557.1734,-314.6049 2562.7542,-318.8304"/>
</g>
<!-- Node67&#45;&gt;Node66 -->
<g id="edge74" class="edge">
<title>Node67&#45;&gt;Node66</title>
<path fill="none" stroke="#191970" d="M2504.6399,-425.3345C2538.3099,-412.6629 2587.2013,-394.263 2619.5323,-382.0954"/>
<polygon fill="#191970" stroke="#191970" points="2620.8729,-385.3306 2628.9993,-378.5325 2618.4073,-378.7792 2620.8729,-385.3306"/>
</g>
<!-- Node70&#45;&gt;Node1 -->
<g id="edge77" class="edge">
<title>Node70&#45;&gt;Node1</title>
<path fill="none" stroke="#191970" d="M1965.2925,-628.5484C2188.6282,-624.324 2936,-602.8405 2936,-504.5 2936,-504.5 2936,-504.5 2936,-119.5 2936,-78.1661 2906.6893,-71.971 2869,-55 2820.7022,-33.2522 2456.2161,-16.0947 2337.3547,-11.0288"/>
<polygon fill="#191970" stroke="#191970" points="2337.418,-7.5285 2327.2792,-10.6034 2337.1226,-14.5222 2337.418,-7.5285"/>
</g>
<!-- Node70&#45;&gt;Node2 -->
<g id="edge78" class="edge">
<title>Node70&#45;&gt;Node2</title>
<path fill="none" stroke="#191970" d="M1840.8821,-621.5557C1774.8982,-609.23 1680,-578.6191 1680,-504.5 1680,-504.5 1680,-504.5 1680,-369.5 1680,-327.2092 1657.3689,-281.7033 1643.1857,-257.3369"/>
<polygon fill="#191970" stroke="#191970" points="1646.0419,-255.2952 1637.8857,-248.5331 1640.0448,-258.9056 1646.0419,-255.2952"/>
</g>
<!-- Node70&#45;&gt;Node42 -->
<g id="edge103" class="edge">
<title>Node70&#45;&gt;Node42</title>
<path fill="none" stroke="#191970" d="M1964.9398,-627.5899C2048.7134,-623.9474 2202.3424,-613.5119 2330,-584 2394.1168,-569.1775 2465.1908,-541.0855 2508.4825,-522.577"/>
<polygon fill="#191970" stroke="#191970" points="2510.0175,-525.7267 2517.8132,-518.5519 2507.2447,-519.2992 2510.0175,-525.7267"/>
</g>
<!-- Node70&#45;&gt;Node66 -->
<g id="edge79" class="edge">
<title>Node70&#45;&gt;Node66</title>
<path fill="none" stroke="#191970" d="M1965.1715,-627.7862C2149.6251,-621.168 2686.5826,-590.3046 2777,-454 2800.1614,-419.0841 2745.2748,-394.6875 2701.2678,-381.3743"/>
<polygon fill="#191970" stroke="#191970" points="2702.0873,-377.9678 2691.5081,-378.5441 2700.1376,-384.6908 2702.0873,-377.9678"/>
</g>
<!-- Node70&#45;&gt;Node67 -->
<g id="edge104" class="edge">
<title>Node70&#45;&gt;Node67</title>
<path fill="none" stroke="#191970" d="M1965.01,-623.0098C2040.1386,-614.651 2161.9963,-599.3628 2205,-584 2281.9474,-556.5111 2291.073,-528.7693 2363,-490 2383.8018,-478.7876 2407.467,-467.2073 2426.962,-457.9689"/>
<polygon fill="#191970" stroke="#191970" points="2428.611,-461.061 2436.1665,-453.6337 2425.6283,-454.7283 2428.611,-461.061"/>
</g>
<!-- Node71 -->
<g id="node38" class="node">
<title>Node71</title>
<g id="a_node38"><a xlink:href="HyperRectDomain_8h_source.html" target="_top" xlink:title="DGtal/kernel/domains\l/HyperRectDomain.h">
<polygon fill="#ffffff" stroke="#ff0000" points="1783.9238,-490.5 1783.9238,-518.5 1896.0762,-518.5 1896.0762,-490.5 1783.9238,-490.5"/>
<text text-anchor="start" x="1791.9238" y="-506.5" font-family="FreeSans" font-size="10.00" fill="#000000">DGtal/kernel/domains</text>
<text text-anchor="middle" x="1840" y="-496.5" font-family="FreeSans" font-size="10.00" fill="#000000">/HyperRectDomain.h</text>
</a>
</g>
</g>
<!-- Node70&#45;&gt;Node71 -->
<g id="edge80" class="edge">
<title>Node70&#45;&gt;Node71</title>
<path fill="none" stroke="#191970" d="M1898.2648,-620.1047C1888.4864,-600.7031 1865.8075,-555.7053 1851.8034,-527.9194"/>
<polygon fill="#191970" stroke="#191970" points="1854.8733,-526.2338 1847.2471,-518.8791 1848.6223,-529.3843 1854.8733,-526.2338"/>
</g>
<!-- Node93 -->
<g id="node39" class="node">
<title>Node93</title>
<g id="a_node39"><a xlink:href="DigitalSetSelector_8h_source.html" target="_top" xlink:title="DGtal/kernel/sets/Digital\lSetSelector.h">
<polygon fill="#ffffff" stroke="#ff0000" points="1856.3696,-285.5 1856.3696,-313.5 1979.6304,-313.5 1979.6304,-285.5 1856.3696,-285.5"/>
<text text-anchor="start" x="1864.3696" y="-301.5" font-family="FreeSans" font-size="10.00" fill="#000000">DGtal/kernel/sets/Digital</text>
<text text-anchor="middle" x="1918" y="-291.5" font-family="FreeSans" font-size="10.00" fill="#000000">SetSelector.h</text>
</a>
</g>
</g>
<!-- Node70&#45;&gt;Node93 -->
<g id="edge83" class="edge">
<title>Node70&#45;&gt;Node93</title>
<path fill="none" stroke="#191970" d="M1882.4724,-620.4743C1841.3545,-600.9219 1754.5107,-551.4249 1775,-490 1798.623,-419.1805 1860.0407,-353.5097 1894.2012,-320.9436"/>
<polygon fill="#191970" stroke="#191970" points="1896.9573,-323.1573 1901.858,-313.764 1892.1692,-318.051 1896.9573,-323.1573"/>
</g>
<!-- Node105 -->
<g id="node40" class="node">
<title>Node105</title>
<g id="a_node40"><a xlink:href="DigitalTopology_8h_source.html" target="_top" xlink:title="DGtal/topology/DigitalTopology.h">
<polygon fill="#ffffff" stroke="#ff0000" points="418.8271,-290.5 418.8271,-308.5 579.1729,-308.5 579.1729,-290.5 418.8271,-290.5"/>
<text text-anchor="middle" x="499" y="-296.5" font-family="FreeSans" font-size="10.00" fill="#000000">DGtal/topology/DigitalTopology.h</text>
</a>
</g>
</g>
<!-- Node70&#45;&gt;Node105 -->
<g id="edge86" class="edge">
<title>Node70&#45;&gt;Node105</title>
<path fill="none" stroke="#191970" d="M1840.9061,-622.9055C1775.7907,-615.4822 1670.6617,-602.0584 1581,-584 1168.1481,-500.8492 678.4624,-354.4629 538.2562,-311.6068"/>
<polygon fill="#191970" stroke="#191970" points="538.9801,-308.1681 528.3935,-308.5865 536.9303,-314.8613 538.9801,-308.1681"/>
</g>
<!-- Node112 -->
<g id="node41" class="node">
<title>Node112</title>
<g id="a_node41"><a xlink:href="MetricAdjacency_8h_source.html" target="_top" xlink:title="DGtal/topology/MetricAdjacency.h">
<polygon fill="#ffffff" stroke="#ff0000" points="2180.0562,-430.5 2180.0562,-448.5 2345.9438,-448.5 2345.9438,-430.5 2180.0562,-430.5"/>
<text text-anchor="middle" x="2263" y="-436.5" font-family="FreeSans" font-size="10.00" fill="#000000">DGtal/topology/MetricAdjacency.h</text>
</a>
</g>
</g>
<!-- Node70&#45;&gt;Node112 -->
<g id="edge89" class="edge">
<title>Node70&#45;&gt;Node112</title>
<path fill="none" stroke="#191970" d="M1920.3635,-620.3359C1978.5814,-589.6098 2167.105,-490.1112 2236.7921,-453.3319"/>
<polygon fill="#191970" stroke="#191970" points="2238.6005,-456.3351 2245.8107,-448.5721 2235.3331,-450.1444 2238.6005,-456.3351"/>
</g>
<!-- Node114 -->
<g id="node42" class="node">
<title>Node114</title>
<g id="a_node42"><a xlink:href="Object_8h_source.html" target="_top" xlink:title="DGtal/topology/Object.h">
<polygon fill="#ffffff" stroke="#ff0000" points="1887.9165,-430.5 1887.9165,-448.5 2010.0835,-448.5 2010.0835,-430.5 1887.9165,-430.5"/>
<text text-anchor="middle" x="1949" y="-436.5" font-family="FreeSans" font-size="10.00" fill="#000000">DGtal/topology/Object.h</text>
</a>
</g>
</g>
<!-- Node70&#45;&gt;Node114 -->
<g id="edge95" class="edge">
<title>Node70&#45;&gt;Node114</title>
<path fill="none" stroke="#191970" d="M1905.2187,-620.3359C1912.3382,-590.9293 1934.7085,-498.5303 1944.4225,-458.407"/>
<polygon fill="#191970" stroke="#191970" points="1947.8522,-459.115 1946.8036,-448.5721 1941.0487,-457.4678 1947.8522,-459.115"/>
</g>
<!-- Node123 -->
<g id="node44" class="node">
<title>Node123</title>
<g id="a_node44"><a xlink:href="GridCurve_8h_source.html" target="_top" xlink:title="Header file for module GridCurve.cpp. ">
<polygon fill="#ffffff" stroke="#ff0000" points="1171.8721,-555.5 1171.8721,-583.5 1290.1279,-583.5 1290.1279,-555.5 1171.8721,-555.5"/>
<text text-anchor="start" x="1179.8721" y="-571.5" font-family="FreeSans" font-size="10.00" fill="#000000">DGtal/geometry/curves</text>
<text text-anchor="middle" x="1231" y="-561.5" font-family="FreeSans" font-size="10.00" fill="#000000">/GridCurve.h</text>
</a>
</g>
</g>
<!-- Node70&#45;&gt;Node123 -->
<g id="edge105" class="edge">
<title>Node70&#45;&gt;Node123</title>
<path fill="none" stroke="#191970" d="M1840.6528,-627.2353C1731.4801,-622.7195 1498.7778,-610.6436 1304,-584 1302.7398,-583.8276 1301.4686,-583.6471 1300.1891,-583.4592"/>
<polygon fill="#191970" stroke="#191970" points="1300.6855,-579.9943 1290.2618,-581.8907 1299.593,-586.9085 1300.6855,-579.9943"/>
</g>
<!-- Node154 -->
<g id="node45" class="node">
<title>Node154</title>
<g id="a_node45"><a xlink:href="ExactPredicateLpSeparableMetric_8h_source.html" target="_top" xlink:title="DGtal/geometry/volumes\l/distance/ExactPredicateLpSeparable\lMetric.h">
<polygon fill="#ffffff" stroke="#ff0000" points="1285.6138,-350.5 1285.6138,-388.5 1468.3862,-388.5 1468.3862,-350.5 1285.6138,-350.5"/>
<text text-anchor="start" x="1293.6138" y="-376.5" font-family="FreeSans" font-size="10.00" fill="#000000">DGtal/geometry/volumes</text>
<text text-anchor="start" x="1293.6138" y="-366.5" font-family="FreeSans" font-size="10.00" fill="#000000">/distance/ExactPredicateLpSeparable</text>
<text text-anchor="middle" x="1377" y="-356.5" font-family="FreeSans" font-size="10.00" fill="#000000">Metric.h</text>
</a>
</g>
</g>
<!-- Node70&#45;&gt;Node154 -->
<g id="edge110" class="edge">
<title>Node70&#45;&gt;Node154</title>
<path fill="none" stroke="#191970" d="M1840.7903,-622.788C1773.1421,-614.8217 1669.8701,-600.5173 1634,-584 1533.9463,-537.9277 1441.1718,-442.4984 1399.7424,-396.0517"/>
<polygon fill="#191970" stroke="#191970" points="1402.3186,-393.6814 1393.0762,-388.5016 1397.0711,-398.3144 1402.3186,-393.6814"/>
</g>
<!-- Node159 -->
<g id="node46" class="node">
<title>Node159</title>
<g id="a_node46"><a xlink:href="ExactPredicateLpPowerSeparableMetric_8h_source.html" target="_top" xlink:title="DGtal/geometry/volumes\l/distance/ExactPredicateLpPower\lSeparableMetric.h">
<polygon fill="#ffffff" stroke="#ff0000" points="1486.2368,-350.5 1486.2368,-388.5 1651.7632,-388.5 1651.7632,-350.5 1486.2368,-350.5"/>
<text text-anchor="start" x="1494.2368" y="-376.5" font-family="FreeSans" font-size="10.00" fill="#000000">DGtal/geometry/volumes</text>
<text text-anchor="start" x="1494.2368" y="-366.5" font-family="FreeSans" font-size="10.00" fill="#000000">/distance/ExactPredicateLpPower</text>
<text text-anchor="middle" x="1569" y="-356.5" font-family="FreeSans" font-size="10.00" fill="#000000">SeparableMetric.h</text>
</a>
</g>
</g>
<!-- Node70&#45;&gt;Node159 -->
<g id="edge115" class="edge">
<title>Node70&#45;&gt;Node159</title>
<path fill="none" stroke="#191970" d="M1840.817,-624.0428C1779.9327,-617.5776 1692.5626,-604.9532 1666,-584 1606.4607,-537.034 1582.2722,-445.4672 1573.468,-398.6246"/>
<polygon fill="#191970" stroke="#191970" points="1576.8714,-397.771 1571.6812,-388.5345 1569.9786,-398.9917 1576.8714,-397.771"/>
</g>
<!-- Node71&#45;&gt;Node1 -->
<g id="edge81" class="edge">
<title>Node71&#45;&gt;Node1</title>
<path fill="none" stroke="#191970" d="M1843.3843,-490.4344C1848.3254,-472.7923 1859.1614,-442.7137 1879,-425 1986.6134,-328.9128 2480,-323.7685 2480,-179.5 2480,-179.5 2480,-179.5 2480,-119.5 2480,-53.2347 2390.0814,-25.69 2337.3507,-15.2342"/>
<polygon fill="#191970" stroke="#191970" points="2337.8107,-11.7597 2327.3381,-13.3645 2336.5257,-18.6407 2337.8107,-11.7597"/>
</g>
<!-- Node71&#45;&gt;Node2 -->
<g id="edge82" class="edge">
<title>Node71&#45;&gt;Node2</title>
<path fill="none" stroke="#191970" d="M1832.9186,-490.4544C1813.9722,-453.7667 1759.111,-353.1873 1694,-285 1682.7221,-273.1893 1668.0678,-262.2779 1655.838,-254.1026"/>
<polygon fill="#191970" stroke="#191970" points="1657.7389,-251.1638 1647.4442,-248.6595 1653.9303,-257.037 1657.7389,-251.1638"/>
</g>
<!-- Node93&#45;&gt;Node1 -->
<g id="edge84" class="edge">
<title>Node93&#45;&gt;Node1</title>
<path fill="none" stroke="#191970" d="M1979.6503,-298.2678C2118.1655,-293.8293 2442,-273.4105 2442,-179.5 2442,-179.5 2442,-179.5 2442,-119.5 2442,-66.3794 2379.1275,-35.2482 2337.0539,-20.3626"/>
<polygon fill="#191970" stroke="#191970" points="2337.9733,-16.9789 2327.379,-17.0928 2335.732,-23.6104 2337.9733,-16.9789"/>
</g>
<!-- Node93&#45;&gt;Node2 -->
<g id="edge85" class="edge">
<title>Node93&#45;&gt;Node2</title>
<path fill="none" stroke="#191970" d="M1856.2944,-286.5548C1805.2433,-275.8447 1733.493,-260.7922 1685.0029,-250.6195"/>
<polygon fill="#191970" stroke="#191970" points="1685.53,-247.154 1675.0244,-248.5261 1684.0927,-254.0048 1685.53,-247.154"/>
</g>
<!-- Node105&#45;&gt;Node1 -->
<g id="edge87" class="edge">
<title>Node105&#45;&gt;Node1</title>
<path fill="none" stroke="#191970" d="M493.5674,-290.3729C472.3477,-253.4709 399.7514,-114.4512 473,-55 509.0124,-25.771 2004.2694,-11.9711 2262.2772,-9.8055"/>
<polygon fill="#191970" stroke="#191970" points="2262.6507,-13.3026 2272.6212,-9.7193 2262.5923,-6.3028 2262.6507,-13.3026"/>
</g>
<!-- Node105&#45;&gt;Node2 -->
<g id="edge88" class="edge">
<title>Node105&#45;&gt;Node2</title>
<path fill="none" stroke="#191970" d="M547.8263,-290.4817C560.8398,-288.3697 574.9188,-286.3459 588,-285 777.913,-265.46 1361.1987,-247.2954 1562.6869,-241.4518"/>
<polygon fill="#191970" stroke="#191970" points="1562.9517,-244.9457 1572.8464,-241.1582 1562.7494,-237.9487 1562.9517,-244.9457"/>
</g>
<!-- Node112&#45;&gt;Node1 -->
<g id="edge90" class="edge">
<title>Node112&#45;&gt;Node1</title>
<path fill="none" stroke="#191970" d="M2343.4385,-430.489C2359.8364,-428.6631 2376.973,-426.7627 2393,-425 2466.7654,-416.8868 2664.714,-432.2754 2725,-389 2766.6774,-359.0825 2822,-230.8036 2822,-179.5 2822,-179.5 2822,-179.5 2822,-119.5 2822,-85.7683 2810.6703,-72.7719 2782,-55 2744.4925,-31.7501 2444.1578,-16.0263 2337.4517,-11.1268"/>
<polygon fill="#191970" stroke="#191970" points="2337.6011,-7.6301 2327.4528,-10.6735 2337.284,-14.6229 2337.6011,-7.6301"/>
</g>
<!-- Node112&#45;&gt;Node2 -->
<g id="edge93" class="edge">
<title>Node112&#45;&gt;Node2</title>
<path fill="none" stroke="#191970" d="M2263.8551,-430.2962C2264.9824,-412.415 2264.7918,-372.7446 2244,-350 2171.9263,-271.1572 1845.6285,-248.179 1701.174,-241.8092"/>
<polygon fill="#191970" stroke="#191970" points="1701.2338,-238.3086 1691.0935,-241.3787 1700.9351,-245.3022 1701.2338,-238.3086"/>
</g>
<!-- Node112&#45;&gt;Node43 -->
<g id="edge91" class="edge">
<title>Node112&#45;&gt;Node43</title>
<path fill="none" stroke="#191970" d="M2268.6215,-430.3487C2275.2803,-419.5089 2286.5301,-401.1951 2294.9522,-387.4848"/>
<polygon fill="#191970" stroke="#191970" points="2297.9879,-389.2297 2300.2399,-378.8769 2292.0234,-385.5657 2297.9879,-389.2297"/>
</g>
<!-- Node112&#45;&gt;Node44 -->
<g id="edge92" class="edge">
<title>Node112&#45;&gt;Node44</title>
<path fill="none" stroke="#191970" d="M2256.9863,-430.3487C2249.863,-419.5089 2237.8282,-401.1951 2228.8186,-387.4848"/>
<polygon fill="#191970" stroke="#191970" points="2231.5788,-385.3119 2223.162,-378.8769 2225.7288,-389.1562 2231.5788,-385.3119"/>
</g>
<!-- Node112&#45;&gt;Node66 -->
<g id="edge94" class="edge">
<title>Node112&#45;&gt;Node66</title>
<path fill="none" stroke="#191970" d="M2313.1873,-430.492C2384.7561,-417.6463 2515.9469,-394.0993 2592.6984,-380.3234"/>
<polygon fill="#191970" stroke="#191970" points="2593.4725,-383.7404 2602.6969,-378.5288 2592.2358,-376.8505 2593.4725,-383.7404"/>
</g>
<!-- Node114&#45;&gt;Node1 -->
<g id="edge96" class="edge">
<title>Node114&#45;&gt;Node1</title>
<path fill="none" stroke="#191970" d="M1967.82,-430.4452C2007.7066,-411.7229 2104.135,-368.9243 2190,-350 2442.4113,-294.3697 2746,-437.9689 2746,-179.5 2746,-179.5 2746,-179.5 2746,-119.5 2746,-35.566 2444.4767,-15.2913 2337.2728,-10.7353"/>
<polygon fill="#191970" stroke="#191970" points="2337.3607,-7.2361 2327.2279,-10.3307 2337.0789,-14.2304 2337.3607,-7.2361"/>
</g>
<!-- Node114&#45;&gt;Node2 -->
<g id="edge98" class="edge">
<title>Node114&#45;&gt;Node2</title>
<path fill="none" stroke="#191970" d="M1941.3686,-430.3797C1918.8246,-403.9995 1849.4907,-326.8351 1776,-285 1748.503,-269.3471 1714.9303,-258.3408 1687.1207,-251.0786"/>
<polygon fill="#191970" stroke="#191970" points="1687.7096,-247.6178 1677.1577,-248.5708 1686.0009,-254.406 1687.7096,-247.6178"/>
</g>
<!-- Node114&#45;&gt;Node44 -->
<g id="edge97" class="edge">
<title>Node114&#45;&gt;Node44</title>
<path fill="none" stroke="#191970" d="M2010.2962,-432.1529C2058.9288,-424.9691 2127.9739,-411.7138 2185,-389 2188.5962,-387.5676 2192.2493,-385.7477 2195.7387,-383.7977"/>
<polygon fill="#191970" stroke="#191970" points="2197.713,-386.6936 2204.4411,-378.5093 2194.0777,-380.7116 2197.713,-386.6936"/>
</g>
<!-- Node114&#45;&gt;Node93 -->
<g id="edge102" class="edge">
<title>Node114&#45;&gt;Node93</title>
<path fill="none" stroke="#191970" d="M1946.966,-430.3142C1942.2426,-408.9829 1930.4025,-355.5112 1923.4093,-323.929"/>
<polygon fill="#191970" stroke="#191970" points="1926.7367,-322.7662 1921.1574,-313.7594 1919.9022,-324.2796 1926.7367,-322.7662"/>
</g>
<!-- Node78 -->
<g id="node43" class="node">
<title>Node78</title>
<g id="a_node43"><a xlink:href="CountedPtr_8h_source.html" target="_top" xlink:title="DGtal/base/CountedPtr.h">
<polygon fill="#ffffff" stroke="#ff0000" points="597.4092,-290.5 597.4092,-308.5 724.5908,-308.5 724.5908,-290.5 597.4092,-290.5"/>
<text text-anchor="middle" x="661" y="-296.5" font-family="FreeSans" font-size="10.00" fill="#000000">DGtal/base/CountedPtr.h</text>
</a>
</g>
</g>
<!-- Node114&#45;&gt;Node78 -->
<g id="edge99" class="edge">
<title>Node114&#45;&gt;Node78</title>
<path fill="none" stroke="#191970" d="M1887.7292,-436.2017C1769.4517,-429.5454 1501.516,-413.0608 1277,-389 1036.9512,-363.2745 977.2951,-352.7386 739,-314 732.1493,-312.8863 724.9734,-311.6492 717.8658,-310.3805"/>
<polygon fill="#191970" stroke="#191970" points="718.011,-306.8499 707.547,-308.5097 716.7622,-313.7376 718.011,-306.8499"/>
</g>
<!-- Node78&#45;&gt;Node1 -->
<g id="edge100" class="edge">
<title>Node78&#45;&gt;Node1</title>
<path fill="none" stroke="#191970" d="M628.46,-290.4511C587.4605,-277.0585 518.98,-247.5729 491,-194 462.4005,-139.2409 447.8692,-99.2293 491,-55 523.0459,-22.138 2004.9993,-11.352 2262.1628,-9.7264"/>
<polygon fill="#191970" stroke="#191970" points="2262.5002,-13.2244 2272.4781,-9.6619 2262.4564,-6.2245 2262.5002,-13.2244"/>
</g>
<!-- Node78&#45;&gt;Node2 -->
<g id="edge101" class="edge">
<title>Node78&#45;&gt;Node2</title>
<path fill="none" stroke="#191970" d="M724.6408,-292.9568C752.3745,-290.248 785.2749,-287.2263 815,-285 1091.755,-264.2721 1421.9035,-248.6827 1562.7805,-242.4603"/>
<polygon fill="#191970" stroke="#191970" points="1563.161,-245.947 1572.9975,-242.0108 1562.8533,-238.9538 1563.161,-245.947"/>
</g>
<!-- Node123&#45;&gt;Node1 -->
<g id="edge106" class="edge">
<title>Node123&#45;&gt;Node1</title>
<path fill="none" stroke="#191970" d="M1171.5342,-565.1467C1091.8196,-558.6245 946.1898,-544.2961 824,-519 571.2743,-466.6799 315,-497.5846 315,-239.5 315,-239.5 315,-239.5 315,-119.5 315,-78.8018 342.556,-70.9466 380,-55 469.826,-16.7449 2002.9108,-10.4026 2262.7321,-9.6011"/>
<polygon fill="#191970" stroke="#191970" points="2262.806,-13.101 2272.7954,-9.5709 2262.7849,-6.101 2262.806,-13.101"/>
</g>
<!-- Node123&#45;&gt;Node2 -->
<g id="edge107" class="edge">
<title>Node123&#45;&gt;Node2</title>
<path fill="none" stroke="#191970" d="M1229.0334,-555.4897C1225.8694,-531.6984 1220,-481.8557 1220,-439.5 1220,-439.5 1220,-439.5 1220,-369.5 1220,-298.4421 1445.7006,-261.3545 1562.9988,-246.8779"/>
<polygon fill="#191970" stroke="#191970" points="1563.4642,-250.3472 1572.9704,-245.6695 1562.622,-243.3981 1563.4642,-250.3472"/>
</g>
<!-- Node123&#45;&gt;Node32 -->
<g id="edge108" class="edge">
<title>Node123&#45;&gt;Node32</title>
<path fill="none" stroke="#191970" d="M1171.8559,-560.2478C999.3797,-531.9432 503.2499,-440.681 410,-314 365.5787,-253.6531 483.969,-210.72 554.6128,-191.2377"/>
<polygon fill="#191970" stroke="#191970" points="555.9164,-194.5115 564.6641,-188.5341 554.0982,-187.7517 555.9164,-194.5115"/>
</g>
<!-- Node123&#45;&gt;Node42 -->
<g id="edge109" class="edge">
<title>Node123&#45;&gt;Node42</title>
<path fill="none" stroke="#191970" d="M1290.1922,-566.5808C1503.7808,-556.0472 2234.7261,-519.9991 2473.1362,-508.2414"/>
<polygon fill="#191970" stroke="#191970" points="2473.6237,-511.7217 2483.4391,-507.7333 2473.2788,-504.7302 2473.6237,-511.7217"/>
</g>
<!-- Node154&#45;&gt;Node1 -->
<g id="edge111" class="edge">
<title>Node154&#45;&gt;Node1</title>
<path fill="none" stroke="#191970" d="M1285.3942,-368.5655C1059.0268,-365.6467 486.0481,-354.3208 410,-314 373.1662,-294.4707 353,-281.1908 353,-239.5 353,-239.5 353,-239.5 353,-119.5 353,-66.9855 401.8469,-70.5707 452,-55 541.5618,-27.1944 2008.5095,-12.2302 2262.6328,-9.8408"/>
<polygon fill="#191970" stroke="#191970" points="2262.858,-13.3389 2272.8248,-9.7456 2262.7925,-6.3392 2262.858,-13.3389"/>
</g>
<!-- Node154&#45;&gt;Node2 -->
<g id="edge113" class="edge">
<title>Node154&#45;&gt;Node2</title>
<path fill="none" stroke="#191970" d="M1414.3523,-350.4577C1466.4001,-323.9235 1559.4819,-276.47 1605.1855,-253.1701"/>
<polygon fill="#191970" stroke="#191970" points="1606.8678,-256.2411 1614.1872,-248.581 1603.6885,-250.0048 1606.8678,-256.2411"/>
</g>
<!-- Node154&#45;&gt;Node12 -->
<g id="edge112" class="edge">
<title>Node154&#45;&gt;Node12</title>
<path fill="none" stroke="#191970" d="M1285.4155,-358.7563C1114.8516,-337.8662 762.3508,-290.2037 725,-249 697.5746,-218.7456 703.428,-166.5479 709.2142,-138.5521"/>
<polygon fill="#191970" stroke="#191970" points="712.6293,-139.3181 711.4369,-128.7906 705.804,-137.764 712.6293,-139.3181"/>
</g>
<!-- Node154&#45;&gt;Node46 -->
<g id="edge114" class="edge">
<title>Node154&#45;&gt;Node46</title>
<path fill="none" stroke="#191970" d="M1468.471,-351.1332C1471.3429,-350.7263 1474.1912,-350.3467 1477,-350 1647.3916,-328.967 2167.1963,-308.8248 2357.3561,-301.9703"/>
<polygon fill="#191970" stroke="#191970" points="2357.6453,-305.4623 2367.5132,-301.6056 2357.394,-298.4668 2357.6453,-305.4623"/>
</g>
<!-- Node159&#45;&gt;Node1 -->
<g id="edge116" class="edge">
<title>Node159&#45;&gt;Node1</title>
<path fill="none" stroke="#191970" d="M1485.8472,-351.3329C1482.8664,-350.8546 1479.9104,-350.4078 1477,-350 1248.8936,-318.0426 1187.0508,-352.7528 960,-314 859.0691,-296.7732 478.1597,-256.5558 524,-165 560.5324,-92.0346 593.9406,-81.8405 671,-55 748.5427,-27.9912 2025.4035,-12.547 2262.3329,-9.9069"/>
<polygon fill="#191970" stroke="#191970" points="2262.5516,-13.4048 2272.5122,-9.7943 2262.4741,-6.4052 2262.5516,-13.4048"/>
</g>
<!-- Node159&#45;&gt;Node2 -->
<g id="edge118" class="edge">
<title>Node159&#45;&gt;Node2</title>
<path fill="none" stroke="#191970" d="M1578.2959,-350.3181C1590.3354,-325.4746 1611.1799,-282.4621 1623.0486,-257.9711"/>
<polygon fill="#191970" stroke="#191970" points="1626.3224,-259.2412 1627.5339,-248.7158 1620.0231,-256.1884 1626.3224,-259.2412"/>
</g>
<!-- Node159&#45;&gt;Node12 -->
<g id="edge117" class="edge">
<title>Node159&#45;&gt;Node12</title>
<path fill="none" stroke="#191970" d="M1485.8049,-351.6001C1482.8361,-351.0462 1479.8941,-350.5108 1477,-350 1437.5482,-343.037 794.2815,-274.028 763,-249 728.6995,-221.5565 718.4003,-167.305 715.3147,-138.5027"/>
<polygon fill="#191970" stroke="#191970" points="718.7974,-138.1522 714.428,-128.5003 711.8248,-138.7704 718.7974,-138.1522"/>
</g>
<!-- Node159&#45;&gt;Node46 -->
<g id="edge119" class="edge">
<title>Node159&#45;&gt;Node46</title>
<path fill="none" stroke="#191970" d="M1652.145,-362.7245C1820.7565,-348.9843 2200.2394,-318.0602 2357.5824,-305.2383"/>
<polygon fill="#191970" stroke="#191970" points="2357.9378,-308.7211 2367.6205,-304.4203 2357.3692,-301.7442 2357.9378,-308.7211"/>
</g>
<!-- Node161&#45;&gt;Node1 -->
<g id="edge122" class="edge">
<title>Node161&#45;&gt;Node1</title>
<path fill="none" stroke="#191970" d="M665.773,-737.7164C548.2712,-733.9086 312.921,-722.8461 236,-694 169.4811,-669.0548 0,-527.4967 0,-504.5 0,-504.5 0,-504.5 0,-119.5 0,-84.7985 13.4827,-71.5195 44,-55 94.8596,-27.4689 1972.4829,-12.0067 2262.5358,-9.7802"/>
<polygon fill="#191970" stroke="#191970" points="2262.5824,-13.2801 2272.5554,-9.7037 2262.5289,-6.2803 2262.5824,-13.2801"/>
</g>
<!-- Node161&#45;&gt;Node2 -->
<g id="edge125" class="edge">
<title>Node161&#45;&gt;Node2</title>
<path fill="none" stroke="#191970" d="M743.2646,-730.4506C760.3291,-712.7647 795,-671.6456 795,-629.5 795,-629.5 795,-629.5 795,-504.5 795,-340.3626 938.3994,-342.8614 1092,-285 1176.3506,-253.2251 1436.9578,-243.5258 1562.7129,-240.6568"/>
<polygon fill="#191970" stroke="#191970" points="1563.0715,-244.1499 1572.9921,-240.4307 1562.9175,-237.1516 1563.0715,-244.1499"/>
</g>
<!-- Node161&#45;&gt;Node34 -->
<g id="edge127" class="edge">
<title>Node161&#45;&gt;Node34</title>
<path fill="none" stroke="#191970" d="M665.5825,-737.15C538.0948,-730.8974 277,-708.4541 277,-629.5 277,-629.5 277,-629.5 277,-239.5 277,-200.9323 255.6908,-159.8966 241.7691,-137.2025"/>
<polygon fill="#191970" stroke="#191970" points="244.6572,-135.2215 236.3386,-128.6601 238.7498,-138.9769 244.6572,-135.2215"/>
</g>
<!-- Node161&#45;&gt;Node78 -->
<g id="edge126" class="edge">
<title>Node161&#45;&gt;Node78</title>
<path fill="none" stroke="#191970" d="M724.7354,-730.4506C707.6709,-712.7647 673,-671.6456 673,-629.5 673,-629.5 673,-629.5 673,-439.5 673,-396.169 667.2229,-345.5688 663.6856,-318.6474"/>
<polygon fill="#191970" stroke="#191970" points="667.1419,-318.0887 662.3301,-308.6496 660.2054,-319.0292 667.1419,-318.0887"/>
</g>
<!-- Node162 -->
<g id="node48" class="node">
<title>Node162</title>
<g id="a_node48"><a xlink:href="Board_8h_source.html" target="_top" xlink:title="Board/Board.h">
<polygon fill="#ffffff" stroke="#ff0000" points="168.7563,-620.5 168.7563,-638.5 249.2437,-638.5 249.2437,-620.5 168.7563,-620.5"/>
<text text-anchor="middle" x="209" y="-626.5" font-family="FreeSans" font-size="10.00" fill="#000000">Board/Board.h</text>
</a>
</g>
</g>
<!-- Node161&#45;&gt;Node162 -->
<g id="edge123" class="edge">
<title>Node161&#45;&gt;Node162</title>
<path fill="none" stroke="#191970" d="M665.5167,-735.7548C543.4494,-728.6582 297.7481,-712.3134 263,-694 243.4993,-683.7225 228.2219,-663.1422 218.9667,-647.9809"/>
<polygon fill="#191970" stroke="#191970" points="221.7957,-645.8802 213.7705,-638.9631 215.7306,-649.3751 221.7957,-645.8802"/>
</g>
<!-- Node179 -->
<g id="node49" class="node">
<title>Node179</title>
<g id="a_node49"><a xlink:href="Display2DFactory_8h_source.html" target="_top" xlink:title="Header file for module Display2DFactory. ">
<polygon fill="#ffffff" stroke="#ff0000" points="1733.2925,-675.5 1733.2925,-693.5 1874.7075,-693.5 1874.7075,-675.5 1733.2925,-675.5"/>
<text text-anchor="middle" x="1804" y="-681.5" font-family="FreeSans" font-size="10.00" fill="#000000">DGtal/io/Display2DFactory.h</text>
</a>
</g>
</g>
<!-- Node161&#45;&gt;Node179 -->
<g id="edge128" class="edge">
<title>Node161&#45;&gt;Node179</title>
<path fill="none" stroke="#191970" d="M802.1525,-735.9968C990.92,-726.2938 1519.9848,-699.0989 1723.1441,-688.6561"/>
<polygon fill="#191970" stroke="#191970" points="1723.3442,-692.1506 1733.1513,-688.1418 1722.9848,-685.1598 1723.3442,-692.1506"/>
</g>
<!-- Node313 -->
<g id="node50" class="node">
<title>Node313</title>
<g id="a_node50"><a xlink:href="Style2DFactory_8h_source.html" target="_top" xlink:title="Header file for module Style2DFactory. ">
<polygon fill="#ffffff" stroke="#ff0000" points="2065.5708,-560.5 2065.5708,-578.5 2196.4292,-578.5 2196.4292,-560.5 2065.5708,-560.5"/>
<text text-anchor="middle" x="2131" y="-566.5" font-family="FreeSans" font-size="10.00" fill="#000000">DGtal/io/Style2DFactory.h</text>
</a>
</g>
</g>
<!-- Node161&#45;&gt;Node313 -->
<g id="edge137" class="edge">
<title>Node161&#45;&gt;Node313</title>
<path fill="none" stroke="#191970" d="M802.3324,-739.2705C1016.754,-738.1611 1674.4414,-731.6927 1884,-694 1961.3253,-680.0917 1983.7777,-677.9662 2052,-639 2076.8543,-624.8041 2100.8787,-601.9497 2115.7783,-586.354"/>
<polygon fill="#191970" stroke="#191970" points="2118.4295,-588.643 2122.6941,-578.9443 2113.3122,-583.8667 2118.4295,-588.643"/>
</g>
<!-- Node162&#45;&gt;Node34 -->
<g id="edge124" class="edge">
<title>Node162&#45;&gt;Node34</title>
<path fill="none" stroke="#191970" d="M210.3488,-620.4273C213.2861,-599.856 220,-548.0705 220,-504.5 220,-504.5 220,-504.5 220,-239.5 220,-203.7482 224.4626,-162.2113 227.4256,-138.5733"/>
<polygon fill="#191970" stroke="#191970" points="230.9153,-138.8785 228.7335,-128.5107 223.9736,-137.9761 230.9153,-138.8785"/>
</g>
<!-- Node179&#45;&gt;Node2 -->
<g id="edge129" class="edge">
<title>Node179&#45;&gt;Node2</title>
<path fill="none" stroke="#191970" d="M1733.0552,-679.5116C1562.593,-666.5777 1144,-628.7816 1144,-569.5 1144,-569.5 1144,-569.5 1144,-369.5 1144,-283.8357 1428.3347,-253.2045 1562.929,-243.5036"/>
<polygon fill="#191970" stroke="#191970" points="1563.4053,-246.9789 1573.1358,-242.7875 1562.9153,-239.9961 1563.4053,-246.9789"/>
</g>
<!-- Node179&#45;&gt;Node42 -->
<g id="edge132" class="edge">
<title>Node179&#45;&gt;Node42</title>
<path fill="none" stroke="#191970" d="M1874.9171,-681.4608C2020.7122,-674.857 2344.3753,-658.2358 2391,-639 2450.9152,-614.2809 2504.6562,-557.8709 2531.3063,-526.5261"/>
<polygon fill="#191970" stroke="#191970" points="2534.0646,-528.6835 2537.7868,-518.764 2528.6912,-524.1972 2534.0646,-528.6835"/>
</g>
<!-- Node179&#45;&gt;Node59 -->
<g id="edge135" class="edge">
<title>Node179&#45;&gt;Node59</title>
<path fill="none" stroke="#191970" d="M1871.6355,-675.4404C1904.2976,-668.8798 1943.0222,-657.7398 1974,-639 2009.9281,-617.2656 2038,-611.4906 2038,-569.5 2038,-569.5 2038,-569.5 2038,-504.5 2038,-418.8994 2078.6123,-392.3549 2153,-350 2219.7937,-311.969 2420.9603,-325.2123 2497,-314 2504.1261,-312.9492 2511.6015,-311.7024 2518.9673,-310.3879"/>
<polygon fill="#191970" stroke="#191970" points="2519.6963,-313.8126 2528.9004,-308.5653 2518.4329,-306.9276 2519.6963,-313.8126"/>
</g>
<!-- Node179&#45;&gt;Node67 -->
<g id="edge133" class="edge">
<title>Node179&#45;&gt;Node67</title>
<path fill="none" stroke="#191970" d="M1861.4342,-675.4828C1911.8943,-667.1995 1987.168,-653.9649 2052,-639 2140.5748,-618.5546 2165.7496,-620.5085 2249,-584 2299.264,-561.9573 2308.2026,-549.248 2354,-519 2383.639,-499.4243 2416.7986,-475.8949 2439.4887,-459.5358"/>
<polygon fill="#191970" stroke="#191970" points="2441.5898,-462.3357 2447.6431,-453.6403 2437.4886,-456.663 2441.5898,-462.3357"/>
</g>
<!-- Node179&#45;&gt;Node70 -->
<g id="edge136" class="edge">
<title>Node179&#45;&gt;Node70</title>
<path fill="none" stroke="#191970" d="M1820.3478,-675.4179C1835.9681,-666.7399 1859.7398,-653.5334 1877.7862,-643.5077"/>
<polygon fill="#191970" stroke="#191970" points="1879.5861,-646.5117 1886.6279,-638.5956 1876.1865,-640.3925 1879.5861,-646.5117"/>
</g>
<!-- Node179&#45;&gt;Node71 -->
<g id="edge131" class="edge">
<title>Node179&#45;&gt;Node71</title>
<path fill="none" stroke="#191970" d="M1805.8347,-675.3263C1811.216,-648.4201 1827.0857,-569.0714 1835.1613,-528.6936"/>
<polygon fill="#191970" stroke="#191970" points="1838.6426,-529.133 1837.1719,-518.6407 1831.7786,-527.7601 1838.6426,-529.133"/>
</g>
<!-- Node179&#45;&gt;Node114 -->
<g id="edge134" class="edge">
<title>Node179&#45;&gt;Node114</title>
<path fill="none" stroke="#191970" d="M1798.3715,-675.2294C1780.8684,-645.0839 1731.1247,-548.4197 1775,-490 1788.1872,-472.4413 1838.7491,-459.0137 1881.9941,-450.4341"/>
<polygon fill="#191970" stroke="#191970" points="1882.7877,-453.8457 1891.9455,-448.5178 1881.464,-446.972 1882.7877,-453.8457"/>
</g>
<!-- Node179&#45;&gt;Node123 -->
<g id="edge130" class="edge">
<title>Node179&#45;&gt;Node123</title>
<path fill="none" stroke="#191970" d="M1759.0377,-675.4761C1659.4436,-655.4878 1419.6638,-607.3645 1300.5565,-583.4599"/>
<polygon fill="#191970" stroke="#191970" points="1300.9493,-579.969 1290.4561,-581.4327 1299.5718,-586.8321 1300.9493,-579.969"/>
</g>
<!-- Node313&#45;&gt;Node42 -->
<g id="edge139" class="edge">
<title>Node313&#45;&gt;Node42</title>
<path fill="none" stroke="#191970" d="M2189.1211,-560.462C2263.2318,-548.9376 2391.5386,-528.9856 2473.2448,-516.2801"/>
<polygon fill="#191970" stroke="#191970" points="2474.1215,-519.6859 2483.4649,-514.6909 2473.0459,-512.7691 2474.1215,-519.6859"/>
</g>
<!-- Node313&#45;&gt;Node59 -->
<g id="edge142" class="edge">
<title>Node313&#45;&gt;Node59</title>
<path fill="none" stroke="#191970" d="M2130.0414,-560.3624C2126.9891,-525.8234 2121.3881,-402.5402 2190,-350 2244.5365,-308.2382 2429.1088,-324.4433 2497,-314 2503.8684,-312.9435 2511.0646,-311.7218 2518.1755,-310.4449"/>
<polygon fill="#191970" stroke="#191970" points="2519.2836,-313.7998 2528.4848,-308.5473 2518.0164,-306.9154 2519.2836,-313.7998"/>
</g>
<!-- Node313&#45;&gt;Node67 -->
<g id="edge140" class="edge">
<title>Node313&#45;&gt;Node67</title>
<path fill="none" stroke="#191970" d="M2148.6211,-560.3159C2179.2473,-544.5799 2244.5294,-512.0331 2302,-490 2335.3176,-477.2267 2373.3505,-465.4074 2404.4984,-456.4195"/>
<polygon fill="#191970" stroke="#191970" points="2405.7011,-459.716 2414.3547,-453.6032 2403.7779,-452.9854 2405.7011,-459.716"/>
</g>
<!-- Node313&#45;&gt;Node71 -->
<g id="edge138" class="edge">
<title>Node313&#45;&gt;Node71</title>
<path fill="none" stroke="#191970" d="M2090.5377,-560.462C2042.8784,-549.8165 1963.0241,-531.9796 1906.2865,-519.3063"/>
<polygon fill="#191970" stroke="#191970" points="1906.8512,-515.8462 1896.3287,-517.082 1905.3252,-522.6779 1906.8512,-515.8462"/>
</g>
<!-- Node313&#45;&gt;Node114 -->
<g id="edge141" class="edge">
<title>Node313&#45;&gt;Node114</title>
<path fill="none" stroke="#191970" d="M2118.2021,-560.3587C2087.3404,-538.3146 2008.558,-482.0414 1970.3807,-454.7719"/>
<polygon fill="#191970" stroke="#191970" points="1972.1991,-451.7696 1962.0274,-448.8053 1968.1304,-457.4657 1972.1991,-451.7696"/>
</g>
</g>
</svg>
        <g id="navigator" transform="translate(0 0)" fill="#404254">
                <rect fill="#f2f5e9" fill-opacity="0.5" stroke="#606060" stroke-width=".5" x="0" y="0" width="60" height="60"/>
                <use id="zoomplus" xlink:href="#zoomPlus" x="17" y="9" onmousedown="handleZoom(evt,'in')"/>
                <use id="zoomminus" xlink:href="#zoomMin" x="42" y="9" onmousedown="handleZoom(evt,'out')"/>
                <use id="reset" xlink:href="#resetDef" x="30" y="36" onmousedown="handleReset()"/>
                <g id="arrowUp" xlink:href="#dirArrow" transform="translate(30 24)" onmousedown="handlePan(0,-1)">
                  <use xlink:href="#rim" fill="#404040">
                        <set attributeName="fill" to="#808080" begin="arrowUp.mouseover" end="arrowUp.mouseout"/>
                  </use>
                  <path fill="none" stroke="white" stroke-width="1.5" d="M0,-3.0v7 M-2.5,-0.5L0,-3.0L2.5,-0.5"/>
                </g>
                <g id="arrowRight" xlink:href="#dirArrow" transform="rotate(90) translate(36 -43)" onmousedown="handlePan(1,0)">
                  <use xlink:href="#rim" fill="#404040">
                        <set attributeName="fill" to="#808080" begin="arrowRight.mouseover" end="arrowRight.mouseout"/>
                  </use>
                  <path fill="none" stroke="white" stroke-width="1.5" d="M0,-3.0v7 M-2.5,-0.5L0,-3.0L2.5,-0.5"/>
                </g>
                <g id="arrowDown" xlink:href="#dirArrow" transform="rotate(180) translate(-30 -48)" onmousedown="handlePan(0,1)">
                  <use xlink:href="#rim" fill="#404040">
                        <set attributeName="fill" to="#808080" begin="arrowDown.mouseover" end="arrowDown.mouseout"/>
                  </use>
                  <path fill="none" stroke="white" stroke-width="1.5" d="M0,-3.0v7 M-2.5,-0.5L0,-3.0L2.5,-0.5"/>
                </g>
                <g id="arrowLeft" xlink:href="#dirArrow" transform="rotate(270) translate(-36 17)" onmousedown="handlePan(-1,0)">
                  <use xlink:href="#rim" fill="#404040">
                        <set attributeName="fill" to="#808080" begin="arrowLeft.mouseover" end="arrowLeft.mouseout"/>
                  </use>
                  <path fill="none" stroke="white" stroke-width="1.5" d="M0,-3.0v7 M-2.5,-0.5L0,-3.0L2.5,-0.5"/>
                </g>
        </g>
        <svg viewBox="0 0 15 15" width="100%" height="30px" preserveAspectRatio="xMaxYMin meet">
         <g id="arrow_out" transform="scale(0.3 0.3)">
          <a xlink:href="khalimskySpaceScanner_8cpp__incl_org.svg" target="_base">
           <rect id="button" ry="5" rx="5" y="6" x="6" height="38" width="38"
                fill="#f2f5e9" fill-opacity="0.5" stroke="#606060" stroke-width="1.0"/>
           <path id="arrow"
             d="M 11.500037,31.436501 C 11.940474,20.09759 22.043105,11.32322 32.158766,21.979434 L 37.068811,17.246167 C 37.068811,17.246167 37.088388,32 37.088388,32 L 22.160133,31.978069 C 22.160133,31.978069 26.997745,27.140456 26.997745,27.140456 C 18.528582,18.264221 13.291696,25.230495 11.500037,31.436501 z"
             style="fill:#404040;"/>
          </a>
         </g>
        </svg>
</svg>
