<?xml version="1.0" encoding="UTF-8" standalone="no"?>
<!DOCTYPE svg PUBLIC "-//W3C//DTD SVG 1.1//EN"
 "http://www.w3.org/Graphics/SVG/1.1/DTD/svg11.dtd">
<!-- Generated by graphviz version 2.40.1 (20161225.0304)
 -->
<!-- Title: DGtal::UniqueAssociativeCategory Pages: 1 -->
<!--zoomable 158 -->
<svg id="main" version="1.1" xmlns="http://www.w3.org/2000/svg" xmlns:xlink="http://www.w3.org/1999/xlink" xml:space="preserve" onload="init(evt)">
<style type="text/css"><![CDATA[
.edge:hover path { stroke: red; }
.edge:hover polygon { stroke: red; fill: red; }
]]></style>
<script type="text/javascript"><![CDATA[
var edges = document.getElementsByTagName('g');
if (edges && edges.length) {
  for (var i=0;i<edges.length;i++) {
    if (edges[i].id.substr(0,4)=='edge') {
      edges[i].setAttribute('class','edge');
    }
  }
}
]]></script>
        <defs>
                <circle id="rim" cx="0" cy="0" r="7"/>
                <circle id="rim2" cx="0" cy="0" r="3.5"/>
                <g id="zoomPlus">
                        <use xlink:href="#rim" fill="#404040">
                                <set attributeName="fill" to="#808080" begin="zoomplus.mouseover" end="zoomplus.mouseout"/>
                        </use>
                        <path d="M-4,0h8M0,-4v8" fill="none" stroke="white" stroke-width="1.5" pointer-events="none"/>
                </g>
                <g id="zoomMin">
                        <use xlink:href="#rim" fill="#404040">
                                <set attributeName="fill" to="#808080" begin="zoomminus.mouseover" end="zoomminus.mouseout"/>
                        </use>
                        <path d="M-4,0h8" fill="none" stroke="white" stroke-width="1.5" pointer-events="none"/>
                </g>
                <g id="dirArrow">
                        <path fill="none" stroke="white" stroke-width="1.5" d="M0,-3.0v7 M-2.5,-0.5L0,-3.0L2.5,-0.5"/>
                </g>
               <g id="resetDef">
                       <use xlink:href="#rim2" fill="#404040">
                               <set attributeName="fill" to="#808080" begin="reset.mouseover" end="reset.mouseout"/>
                       </use>
               </g>
        </defs>

<script type="text/javascript">
var viewWidth = 679;
var viewHeight = 158;
var sectionId = 'dynsection-0';
</script>
<script xlink:href="svgpan.js"/>
<svg id="graph" class="graph">
<g id="viewport">
<title>DGtal::UniqueAssociativeCategory</title>
<polygon fill="#ffffff" stroke="transparent" points="-4,4 -4,-154 675.1064,-154 675.1064,4 -4,4"/>
<!-- Node0 -->
<g id="node1" class="node">
<title>Node0</title>
<g id="a_node1"><a xlink:title=" ">
<polygon fill="#bfbfbf" stroke="#000000" points="341.3242,-68.5 341.3242,-96.5 470.708,-96.5 470.708,-68.5 341.3242,-68.5"/>
<text text-anchor="start" x="349.3242" y="-84.5" font-family="FreeSans" font-size="10.00" fill="#000000">DGtal::UniqueAssociative</text>
<text text-anchor="middle" x="406.0161" y="-74.5" font-family="FreeSans" font-size="10.00" fill="#000000">Category</text>
</a>
</g>
</g>
<!-- Node3 -->
<g id="node4" class="node">
<title>Node3</title>
<g id="a_node4"><a xlink:href="structDGtal_1_1MapAssociativeCategory.html" target="_top" xlink:title=" ">
<polygon fill="#ffffff" stroke="#000000" points="510.0454,-131.5 510.0454,-149.5 667.769,-149.5 667.769,-131.5 510.0454,-131.5"/>
<text text-anchor="middle" x="588.9072" y="-137.5" font-family="FreeSans" font-size="10.00" fill="#000000">DGtal::MapAssociativeCategory</text>
</a>
</g>
</g>
<!-- Node0&#45;&gt;Node3 -->
<g id="edge3" class="edge">
<title>Node0&#45;&gt;Node3</title>
<path fill="none" stroke="#191970" d="M447.3455,-100.6776C465.3422,-108.1316 486.8264,-116.4183 506.708,-122.5 517.7442,-125.8759 529.7968,-128.8824 541.1876,-131.426"/>
<polygon fill="#191970" stroke="#191970" points="448.3136,-97.288 437.7385,-96.6415 445.6023,-103.7416 448.3136,-97.288"/>
</g>
<!-- Node4 -->
<g id="node5" class="node">
<title>Node4</title>
<g id="a_node5"><a xlink:href="structDGtal_1_1SetAssociativeCategory.html" target="_top" xlink:title=" ">
<polygon fill="#ffffff" stroke="#000000" points="512.2671,-94.5 512.2671,-112.5 665.5474,-112.5 665.5474,-94.5 512.2671,-94.5"/>
<text text-anchor="middle" x="588.9072" y="-100.5" font-family="FreeSans" font-size="10.00" fill="#000000">DGtal::SetAssociativeCategory</text>
</a>
</g>
</g>
<!-- Node0&#45;&gt;Node4 -->
<g id="edge4" class="edge">
<title>Node0&#45;&gt;Node4</title>
<path fill="none" stroke="#191970" d="M480.9092,-91.0994C491.1804,-92.2788 501.7399,-93.4912 512.0457,-94.6746"/>
<polygon fill="#191970" stroke="#191970" points="481.0881,-87.597 470.7541,-89.9334 480.2895,-94.5513 481.0881,-87.597"/>
</g>
<!-- Node5 -->
<g id="node6" class="node">
<title>Node5</title>
<g id="a_node6"><a xlink:href="structDGtal_1_1UnorderedMapAssociativeCategory.html" target="_top" xlink:title=" ">
<polygon fill="#ffffff" stroke="#000000" points="506.708,-47.5 506.708,-75.5 671.1064,-75.5 671.1064,-47.5 506.708,-47.5"/>
<text text-anchor="start" x="514.708" y="-63.5" font-family="FreeSans" font-size="10.00" fill="#000000">DGtal::UnorderedMapAssociative</text>
<text text-anchor="middle" x="588.9072" y="-53.5" font-family="FreeSans" font-size="10.00" fill="#000000">Category</text>
</a>
</g>
</g>
<!-- Node0&#45;&gt;Node5 -->
<g id="edge5" class="edge">
<title>Node0&#45;&gt;Node5</title>
<path fill="none" stroke="#191970" d="M480.961,-73.8946C489.4249,-72.9228 498.0839,-71.9286 506.6347,-70.9467"/>
<polygon fill="#191970" stroke="#191970" points="480.2895,-70.4487 470.7541,-75.0666 481.0881,-77.403 480.2895,-70.4487"/>
</g>
<!-- Node6 -->
<g id="node7" class="node">
<title>Node6</title>
<g id="a_node7"><a xlink:href="structDGtal_1_1UnorderedSetAssociativeCategory.html" target="_top" xlink:title=" ">
<polygon fill="#ffffff" stroke="#000000" points="508.9297,-.5 508.9297,-28.5 668.8848,-28.5 668.8848,-.5 508.9297,-.5"/>
<text text-anchor="start" x="516.9297" y="-16.5" font-family="FreeSans" font-size="10.00" fill="#000000">DGtal::UnorderedSetAssociative</text>
<text text-anchor="middle" x="588.9072" y="-6.5" font-family="FreeSans" font-size="10.00" fill="#000000">Category</text>
</a>
</g>
</g>
<!-- Node0&#45;&gt;Node6 -->
<g id="edge6" class="edge">
<title>Node0&#45;&gt;Node6</title>
<path fill="none" stroke="#191970" d="M443.6983,-64.071C462.3822,-55.3441 485.4473,-45.1779 506.708,-37.5 515.4888,-34.329 524.926,-31.3258 534.1647,-28.5998"/>
<polygon fill="#191970" stroke="#191970" points="442.181,-60.9168 434.6333,-68.352 445.1703,-67.2464 442.181,-60.9168"/>
</g>
<!-- Node1 -->
<g id="node2" class="node">
<title>Node1</title>
<g id="a_node2"><a xlink:href="structDGtal_1_1AssociativeCategory.html" target="_top" xlink:title=" ">
<polygon fill="#ffffff" stroke="#000000" points="167.0537,-73.5 167.0537,-91.5 305.3242,-91.5 305.3242,-73.5 167.0537,-73.5"/>
<text text-anchor="middle" x="236.189" y="-79.5" font-family="FreeSans" font-size="10.00" fill="#000000">DGtal::AssociativeCategory</text>
</a>
</g>
</g>
<!-- Node1&#45;&gt;Node0 -->
<g id="edge1" class="edge">
<title>Node1&#45;&gt;Node0</title>
<path fill="none" stroke="#191970" d="M316.0006,-82.5C324.4468,-82.5 332.9606,-82.5 341.2061,-82.5"/>
<polygon fill="#191970" stroke="#191970" points="315.7542,-79.0001 305.7542,-82.5 315.7541,-86.0001 315.7542,-79.0001"/>
</g>
<!-- Node2 -->
<g id="node3" class="node">
<title>Node2</title>
<g id="a_node3"><a xlink:href="structDGtal_1_1ContainerCategory.html" target="_top" xlink:title=" ">
<polygon fill="#ffffff" stroke="#000000" points="0,-73.5 0,-91.5 131.0537,-91.5 131.0537,-73.5 0,-73.5"/>
<text text-anchor="middle" x="65.5269" y="-79.5" font-family="FreeSans" font-size="10.00" fill="#000000">DGtal::ContainerCategory</text>
</a>
</g>
</g>
<!-- Node2&#45;&gt;Node1 -->
<g id="edge2" class="edge">
<title>Node2&#45;&gt;Node1</title>
<path fill="none" stroke="#191970" d="M141.6999,-82.5C150.1218,-82.5 158.664,-82.5 166.9933,-82.5"/>
<polygon fill="#191970" stroke="#191970" points="141.5093,-79.0001 131.5093,-82.5 141.5092,-86.0001 141.5093,-79.0001"/>
</g>
</g>
</svg>
        <g id="navigator" transform="translate(0 0)" fill="#404254">
                <rect fill="#f2f5e9" fill-opacity="0.5" stroke="#606060" stroke-width=".5" x="0" y="0" width="60" height="60"/>
                <use id="zoomplus" xlink:href="#zoomPlus" x="17" y="9" onmousedown="handleZoom(evt,'in')"/>
                <use id="zoomminus" xlink:href="#zoomMin" x="42" y="9" onmousedown="handleZoom(evt,'out')"/>
                <use id="reset" xlink:href="#resetDef" x="30" y="36" onmousedown="handleReset()"/>
                <g id="arrowUp" xlink:href="#dirArrow" transform="translate(30 24)" onmousedown="handlePan(0,-1)">
                  <use xlink:href="#rim" fill="#404040">
                        <set attributeName="fill" to="#808080" begin="arrowUp.mouseover" end="arrowUp.mouseout"/>
                  </use>
                  <path fill="none" stroke="white" stroke-width="1.5" d="M0,-3.0v7 M-2.5,-0.5L0,-3.0L2.5,-0.5"/>
                </g>
                <g id="arrowRight" xlink:href="#dirArrow" transform="rotate(90) translate(36 -43)" onmousedown="handlePan(1,0)">
                  <use xlink:href="#rim" fill="#404040">
                        <set attributeName="fill" to="#808080" begin="arrowRight.mouseover" end="arrowRight.mouseout"/>
                  </use>
                  <path fill="none" stroke="white" stroke-width="1.5" d="M0,-3.0v7 M-2.5,-0.5L0,-3.0L2.5,-0.5"/>
                </g>
                <g id="arrowDown" xlink:href="#dirArrow" transform="rotate(180) translate(-30 -48)" onmousedown="handlePan(0,1)">
                  <use xlink:href="#rim" fill="#404040">
                        <set attributeName="fill" to="#808080" begin="arrowDown.mouseover" end="arrowDown.mouseout"/>
                  </use>
                  <path fill="none" stroke="white" stroke-width="1.5" d="M0,-3.0v7 M-2.5,-0.5L0,-3.0L2.5,-0.5"/>
                </g>
                <g id="arrowLeft" xlink:href="#dirArrow" transform="rotate(270) translate(-36 17)" onmousedown="handlePan(-1,0)">
                  <use xlink:href="#rim" fill="#404040">
                        <set attributeName="fill" to="#808080" begin="arrowLeft.mouseover" end="arrowLeft.mouseout"/>
                  </use>
                  <path fill="none" stroke="white" stroke-width="1.5" d="M0,-3.0v7 M-2.5,-0.5L0,-3.0L2.5,-0.5"/>
                </g>
        </g>
        <svg viewBox="0 0 15 15" width="100%" height="30px" preserveAspectRatio="xMaxYMin meet">
         <g id="arrow_out" transform="scale(0.3 0.3)">
          <a xlink:href="structDGtal_1_1UniqueAssociativeCategory__inherit__graph_org.svg" target="_base">
           <rect id="button" ry="5" rx="5" y="6" x="6" height="38" width="38"
                fill="#f2f5e9" fill-opacity="0.5" stroke="#606060" stroke-width="1.0"/>
           <path id="arrow"
             d="M 11.500037,31.436501 C 11.940474,20.09759 22.043105,11.32322 32.158766,21.979434 L 37.068811,17.246167 C 37.068811,17.246167 37.088388,32 37.088388,32 L 22.160133,31.978069 C 22.160133,31.978069 26.997745,27.140456 26.997745,27.140456 C 18.528582,18.264221 13.291696,25.230495 11.500037,31.436501 z"
             style="fill:#404040;"/>
          </a>
         </g>
        </svg>
</svg>
