<?xml version="1.0" encoding="UTF-8" standalone="no"?>
<!DOCTYPE svg PUBLIC "-//W3C//DTD SVG 1.1//EN"
 "http://www.w3.org/Graphics/SVG/1.1/DTD/svg11.dtd">
<!-- Generated by graphviz version 2.40.1 (20161225.0304)
 -->
<!-- Title: DGtal::Display3DFactory&lt; TSpace, TKSpace &gt; Pages: 1 -->
<svg width="313pt" height="84pt"
 viewBox="0.00 0.00 313.30 84.00" xmlns="http://www.w3.org/2000/svg" xmlns:xlink="http://www.w3.org/1999/xlink">
<g id="graph0" class="graph" transform="scale(1 1) rotate(0) translate(4 80)">
<title>DGtal::Display3DFactory&lt; TSpace, TKSpace &gt;</title>
<polygon fill="#ffffff" stroke="transparent" points="-4,4 -4,-80 309.2998,-80 309.2998,4 -4,4"/>
<!-- Node0 -->
<g id="node1" class="node">
<title>Node0</title>
<g id="a_node1"><a xlink:title="Factory for GPL Display3D:">
<polygon fill="#bfbfbf" stroke="#000000" points="0,-23.5 0,-51.5 126.0293,-51.5 126.0293,-23.5 0,-23.5"/>
<text text-anchor="start" x="8" y="-39.5" font-family="FreeSans" font-size="10.00" fill="#000000">DGtal::Display3DFactory</text>
<text text-anchor="middle" x="63.0146" y="-29.5" font-family="FreeSans" font-size="10.00" fill="#000000">&lt; TSpace, TKSpace &gt;</text>
</a>
</g>
</g>
<!-- Node1 -->
<g id="node2" class="node">
<title>Node1</title>
<g id="a_node2"><a xlink:href="structDGtal_1_1Board3DTo2DFactory.html" target="_top" xlink:title="Factory for GPL Display3D:">
<polygon fill="#ffffff" stroke="#000000" points="162.0293,-47.5 162.0293,-75.5 305.2998,-75.5 305.2998,-47.5 162.0293,-47.5"/>
<text text-anchor="start" x="170.0293" y="-63.5" font-family="FreeSans" font-size="10.00" fill="#000000">DGtal::Board3DTo2DFactory</text>
<text text-anchor="middle" x="233.6646" y="-53.5" font-family="FreeSans" font-size="10.00" fill="#000000">&lt; TSpace, TKSpace &gt;</text>
</a>
</g>
</g>
<!-- Node0&#45;&gt;Node1 -->
<g id="edge1" class="edge">
<title>Node0&#45;&gt;Node1</title>
<path fill="none" stroke="#191970" d="M136.0476,-47.7713C144.6286,-48.9781 153.379,-50.2087 161.9417,-51.413"/>
<polygon fill="#191970" stroke="#191970" points="136.4635,-44.2954 126.0735,-46.3685 135.4886,-51.2272 136.4635,-44.2954"/>
</g>
<!-- Node2 -->
<g id="node3" class="node">
<title>Node2</title>
<g id="a_node3"><a xlink:href="structDGtal_1_1Viewer3DFactory.html" target="_top" xlink:title="Factory for GPL Viewer3D:">
<polygon fill="#ffffff" stroke="#000000" points="171.8486,-.5 171.8486,-28.5 295.4805,-28.5 295.4805,-.5 171.8486,-.5"/>
<text text-anchor="start" x="179.8486" y="-16.5" font-family="FreeSans" font-size="10.00" fill="#000000">DGtal::Viewer3DFactory</text>
<text text-anchor="middle" x="233.6646" y="-6.5" font-family="FreeSans" font-size="10.00" fill="#000000">&lt; TSpace, TKSpace &gt;</text>
</a>
</g>
</g>
<!-- Node0&#45;&gt;Node2 -->
<g id="edge2" class="edge">
<title>Node0&#45;&gt;Node2</title>
<path fill="none" stroke="#191970" d="M136.3321,-27.6184C148.1234,-26.0291 160.227,-24.3978 171.7176,-22.8491"/>
<polygon fill="#191970" stroke="#191970" points="135.5164,-24.1966 126.0735,-29.001 136.4515,-31.1338 135.5164,-24.1966"/>
</g>
</g>
</svg>
