<?xml version="1.0" encoding="UTF-8" standalone="no"?>
<!DOCTYPE svg PUBLIC "-//W3C//DTD SVG 1.1//EN"
 "http://www.w3.org/Graphics/SVG/1.1/DTD/svg11.dtd">
<!-- Generated by graphviz version 2.40.1 (20161225.0304)
 -->
<!-- Title: DGtal::concepts::CConstSinglePassRangeFromPoint&lt; T &gt; Pages: 1 -->
<svg width="803pt" height="89pt"
 viewBox="0.00 0.00 803.07 89.00" xmlns="http://www.w3.org/2000/svg" xmlns:xlink="http://www.w3.org/1999/xlink">
<g id="graph0" class="graph" transform="scale(1 1) rotate(0) translate(4 85)">
<title>DGtal::concepts::CConstSinglePassRangeFromPoint&lt; T &gt;</title>
<polygon fill="#ffffff" stroke="transparent" points="-4,4 -4,-85 799.0742,-85 799.0742,4 -4,4"/>
<!-- Node0 -->
<g id="node1" class="node">
<title>Node0</title>
<g id="a_node1"><a xlink:title="Aim: refined concept of const single pass range with a begin() method from a point.">
<polygon fill="#bfbfbf" stroke="#000000" points="190.8418,-28.5 190.8418,-56.5 344.6836,-56.5 344.6836,-28.5 190.8418,-28.5"/>
<text text-anchor="start" x="198.8418" y="-44.5" font-family="FreeSans" font-size="10.00" fill="#000000">DGtal::concepts::CConstSingle</text>
<text text-anchor="middle" x="267.7627" y="-34.5" font-family="FreeSans" font-size="10.00" fill="#000000">PassRangeFromPoint&lt; T &gt;</text>
</a>
</g>
</g>
<!-- Node2 -->
<g id="node3" class="node">
<title>Node2</title>
<g id="a_node3"><a xlink:href="structDGtal_1_1concepts_1_1CSinglePassRangeFromPoint.html" target="_top" xlink:title="Aim: refined concept of single pass range with a begin() method from a point.">
<polygon fill="#ffffff" stroke="#000000" points="450.6494,-52.5 450.6494,-80.5 587.4648,-80.5 587.4648,-52.5 450.6494,-52.5"/>
<text text-anchor="start" x="458.6494" y="-68.5" font-family="FreeSans" font-size="10.00" fill="#000000">DGtal::concepts::CSingle</text>
<text text-anchor="middle" x="519.0571" y="-58.5" font-family="FreeSans" font-size="10.00" fill="#000000">PassRangeFromPoint&lt; T &gt;</text>
</a>
</g>
</g>
<!-- Node0&#45;&gt;Node2 -->
<g id="edge2" class="edge">
<title>Node0&#45;&gt;Node2</title>
<path fill="none" stroke="#191970" d="M354.9047,-50.8225C386.2378,-53.815 421.1075,-57.1453 450.622,-59.9641"/>
<polygon fill="#191970" stroke="#191970" points="355.1546,-47.3306 344.8671,-49.8639 354.489,-54.2989 355.1546,-47.3306"/>
</g>
<!-- Node3 -->
<g id="node4" class="node">
<title>Node3</title>
<g id="a_node4"><a xlink:href="structDGtal_1_1concepts_1_1CConstSinglePassRangeFromPoint.html" target="_top" xlink:title=" ">
<polygon fill="#ffffff" stroke="#000000" points="435.918,-5.5 435.918,-33.5 602.1963,-33.5 602.1963,-5.5 435.918,-5.5"/>
<text text-anchor="start" x="443.918" y="-21.5" font-family="FreeSans" font-size="10.00" fill="#000000">DGtal::concepts::CConstSingle</text>
<text text-anchor="middle" x="519.0571" y="-11.5" font-family="FreeSans" font-size="10.00" fill="#000000">PassRangeFromPoint&lt; T, Value &gt;</text>
</a>
</g>
</g>
<!-- Node0&#45;&gt;Node3 -->
<g id="edge3" class="edge">
<title>Node0&#45;&gt;Node3</title>
<path fill="none" stroke="#ffa500" stroke-dasharray="5,2" d="M355.1134,-34.5051C381.1963,-32.1179 409.7136,-29.5078 435.5441,-27.1436"/>
<polygon fill="#ffa500" stroke="#ffa500" points="354.5064,-31.046 344.8671,-35.4429 355.1445,-38.0168 354.5064,-31.046"/>
<text text-anchor="middle" x="390.3008" y="-36.5" font-family="FreeSans" font-size="10.00" fill="#000000"> &lt; T, Value &gt;</text>
</g>
<!-- Node1 -->
<g id="node2" class="node">
<title>Node1</title>
<g id="a_node2"><a xlink:href="structDGtal_1_1concepts_1_1CConstSinglePassRange.html" target="_top" xlink:title="Aim: Defines the concept describing a const single pass range.">
<polygon fill="#ffffff" stroke="#000000" points="0,-28.5 0,-56.5 153.8418,-56.5 153.8418,-28.5 0,-28.5"/>
<text text-anchor="start" x="8" y="-44.5" font-family="FreeSans" font-size="10.00" fill="#000000">DGtal::concepts::CConstSingle</text>
<text text-anchor="middle" x="76.9209" y="-34.5" font-family="FreeSans" font-size="10.00" fill="#000000">PassRange&lt; T &gt;</text>
</a>
</g>
</g>
<!-- Node1&#45;&gt;Node0 -->
<g id="edge1" class="edge">
<title>Node1&#45;&gt;Node0</title>
<path fill="none" stroke="#191970" d="M163.9972,-42.5C172.9092,-42.5 181.9191,-42.5 190.7127,-42.5"/>
<polygon fill="#191970" stroke="#191970" points="163.9935,-39.0001 153.9935,-42.5 163.9934,-46.0001 163.9935,-39.0001"/>
</g>
<!-- Node4 -->
<g id="node5" class="node">
<title>Node4</title>
<g id="a_node5"><a xlink:href="structDGtal_1_1concepts_1_1CSinglePassRangeWithWritableIteratorFromPoint.html" target="_top" xlink:title="Aim: refined concept of single pass range with a outputIterator() method from a point.">
<polygon fill="#ffffff" stroke="#000000" points="639.1963,-.5 639.1963,-38.5 795.0742,-38.5 795.0742,-.5 639.1963,-.5"/>
<text text-anchor="start" x="647.1963" y="-26.5" font-family="FreeSans" font-size="10.00" fill="#000000">DGtal::concepts::CSingle</text>
<text text-anchor="start" x="647.1963" y="-16.5" font-family="FreeSans" font-size="10.00" fill="#000000">PassRangeWithWritableIterator</text>
<text text-anchor="middle" x="717.1353" y="-6.5" font-family="FreeSans" font-size="10.00" fill="#000000">FromPoint&lt; T, Value &gt;</text>
</a>
</g>
</g>
<!-- Node3&#45;&gt;Node4 -->
<g id="edge4" class="edge">
<title>Node3&#45;&gt;Node4</title>
<path fill="none" stroke="#191970" d="M612.2449,-19.5C621.1803,-19.5 630.1795,-19.5 638.9501,-19.5"/>
<polygon fill="#191970" stroke="#191970" points="612.1992,-16.0001 602.1991,-19.5 612.1991,-23.0001 612.1992,-16.0001"/>
</g>
</g>
</svg>
