<?xml version="1.0" encoding="UTF-8" standalone="no"?>
<!DOCTYPE svg PUBLIC "-//W3C//DTD SVG 1.1//EN"
 "http://www.w3.org/Graphics/SVG/1.1/DTD/svg11.dtd">
<!-- Generated by graphviz version 2.40.1 (20161225.0304)
 -->
<!-- Title: DGtal::concepts::CDiscreteExteriorCalculusVectorSpace&lt; T &gt; Pages: 1 -->
<svg width="196pt" height="168pt"
 viewBox="0.00 0.00 196.22 168.00" xmlns="http://www.w3.org/2000/svg" xmlns:xlink="http://www.w3.org/1999/xlink">
<g id="graph0" class="graph" transform="scale(1 1) rotate(0) translate(4 164)">
<title>DGtal::concepts::CDiscreteExteriorCalculusVectorSpace&lt; T &gt;</title>
<polygon fill="#ffffff" stroke="transparent" points="-4,4 -4,-164 192.2192,-164 192.2192,4 -4,4"/>
<!-- Node3 -->
<g id="node1" class="node">
<title>Node3</title>
<polygon fill="#bfbfbf" stroke="#000000" points="19.7144,-.5 19.7144,-28.5 188.2192,-28.5 188.2192,-.5 19.7144,-.5"/>
<text text-anchor="start" x="27.7144" y="-16.5" font-family="FreeSans" font-size="10.00" fill="#000000">DGtal::concepts::CDiscrete</text>
<text text-anchor="middle" x="103.9668" y="-6.5" font-family="FreeSans" font-size="10.00" fill="#000000">ExteriorCalculusVectorSpace&lt; T &gt;</text>
</g>
<!-- Node4 -->
<g id="node2" class="node">
<title>Node4</title>
<g id="a_node2"><a xlink:href="structDGtal_1_1concepts_1_1CVectorSpace.html" target="_top" xlink:title="Aim: Base concept for vector space structure. ">
<polygon fill="#ffffff" stroke="#000000" points="39.8291,-66.5 39.8291,-94.5 168.1045,-94.5 168.1045,-66.5 39.8291,-66.5"/>
<text text-anchor="start" x="47.8291" y="-82.5" font-family="FreeSans" font-size="10.00" fill="#000000">DGtal::concepts::CVector</text>
<text text-anchor="middle" x="103.9668" y="-72.5" font-family="FreeSans" font-size="10.00" fill="#000000">Space&lt; T &gt;</text>
</a>
</g>
</g>
<!-- Node4&#45;&gt;Node3 -->
<g id="edge1" class="edge">
<title>Node4&#45;&gt;Node3</title>
<path fill="none" stroke="#191970" d="M103.9668,-56.0322C103.9668,-46.8606 103.9668,-36.7449 103.9668,-28.7931"/>
<polygon fill="#191970" stroke="#191970" points="100.4669,-56.1789 103.9668,-66.179 107.4669,-56.179 100.4669,-56.1789"/>
</g>
<!-- Node5 -->
<g id="node3" class="node">
<title>Node5</title>
<g id="a_node3"><a xlink:href="structboost_1_1Assignable.html" target="_top" xlink:title="Go to http://www.sgi.com/tech/stl/Assignable.html. ">
<polygon fill="#ffffff" stroke="#000000" points="0,-141.5 0,-159.5 117.9336,-159.5 117.9336,-141.5 0,-141.5"/>
<text text-anchor="middle" x="58.9668" y="-147.5" font-family="FreeSans" font-size="10.00" fill="#000000">boost::Assignable&lt; T &gt;</text>
</a>
</g>
</g>
<!-- Node5&#45;&gt;Node4 -->
<g id="edge2" class="edge">
<title>Node5&#45;&gt;Node4</title>
<path fill="none" stroke="#191970" d="M70.3463,-132.7986C77.9191,-121.0186 87.7373,-105.7459 94.8061,-94.7499"/>
<polygon fill="#191970" stroke="#191970" points="67.3133,-131.0443 64.8498,-141.3487 73.2015,-134.8296 67.3133,-131.0443"/>
</g>
<!-- Node6 -->
<g id="node4" class="node">
<title>Node6</title>
<polygon fill="#ffffff" stroke="#bfbfbf" points="135.4668,-141.5 135.4668,-159.5 164.4668,-159.5 164.4668,-141.5 135.4668,-141.5"/>
<text text-anchor="middle" x="149.521" y="-147.5" font-family="FreeSans" font-size="10.00" fill="#000000">T</text>
</g>
<!-- Node6&#45;&gt;Node4 -->
<g id="edge3" class="edge">
<title>Node6&#45;&gt;Node4</title>
<path fill="none" stroke="#9a32cd" stroke-dasharray="5,2" d="M138.3344,-132.7986C130.5933,-121.0186 120.557,-105.7459 113.331,-94.7499"/>
<polygon fill="#9a32cd" stroke="#9a32cd" points="135.5363,-134.9138 143.9531,-141.3487 141.3863,-131.0695 135.5363,-134.9138"/>
<text text-anchor="middle" x="134.856" y="-115" font-family="FreeSans" font-size="10.00" fill="#000000"> z</text>
</g>
</g>
</svg>
