<?xml version="1.0" encoding="UTF-8" standalone="no"?>
<!DOCTYPE svg PUBLIC "-//W3C//DTD SVG 1.1//EN"
 "http://www.w3.org/Graphics/SVG/1.1/DTD/svg11.dtd">
<!-- Generated by graphviz version 2.40.1 (20161225.0304)
 -->
<!-- Title: LibBoard::Line Pages: 1 -->
<svg width="99pt" height="137pt"
 viewBox="0.00 0.00 98.50 137.00" xmlns="http://www.w3.org/2000/svg" xmlns:xlink="http://www.w3.org/1999/xlink">
<g id="graph0" class="graph" transform="scale(1 1) rotate(0) translate(4 133)">
<title>LibBoard::Line</title>
<polygon fill="#ffffff" stroke="transparent" points="-4,4 -4,-133 94.502,-133 94.502,4 -4,4"/>
<!-- Node0 -->
<g id="node1" class="node">
<title>Node0</title>
<g id="a_node1"><a xlink:title="A line between two points.">
<polygon fill="#bfbfbf" stroke="#000000" points="5.0049,-55.5 5.0049,-73.5 85.4971,-73.5 85.4971,-55.5 5.0049,-55.5"/>
<text text-anchor="middle" x="45.251" y="-61.5" font-family="FreeSans" font-size="10.00" fill="#000000">LibBoard::Line</text>
</a>
</g>
</g>
<!-- Node2 -->
<g id="node3" class="node">
<title>Node2</title>
<g id="a_node3"><a xlink:href="structLibBoard_1_1Arrow.html" target="_top" xlink:title="A line between two points with an arrow at one extremity.">
<polygon fill="#ffffff" stroke="#000000" points="1.4014,-.5 1.4014,-18.5 89.1006,-18.5 89.1006,-.5 1.4014,-.5"/>
<text text-anchor="middle" x="45.251" y="-6.5" font-family="FreeSans" font-size="10.00" fill="#000000">LibBoard::Arrow</text>
</a>
</g>
</g>
<!-- Node0&#45;&gt;Node2 -->
<g id="edge2" class="edge">
<title>Node0&#45;&gt;Node2</title>
<path fill="none" stroke="#191970" d="M45.251,-45.383C45.251,-36.3738 45.251,-26.0373 45.251,-18.7795"/>
<polygon fill="#191970" stroke="#191970" points="41.7511,-45.4178 45.251,-55.4179 48.7511,-45.4179 41.7511,-45.4178"/>
</g>
<!-- Node1 -->
<g id="node2" class="node">
<title>Node1</title>
<g id="a_node2"><a xlink:href="structLibBoard_1_1Shape.html" target="_top" xlink:title="Abstract structure for a 2D shape.">
<polygon fill="#ffffff" stroke="#000000" points="0,-110.5 0,-128.5 90.502,-128.5 90.502,-110.5 0,-110.5"/>
<text text-anchor="middle" x="45.251" y="-116.5" font-family="FreeSans" font-size="10.00" fill="#000000">LibBoard::Shape</text>
</a>
</g>
</g>
<!-- Node1&#45;&gt;Node0 -->
<g id="edge1" class="edge">
<title>Node1&#45;&gt;Node0</title>
<path fill="none" stroke="#191970" d="M45.251,-100.383C45.251,-91.3738 45.251,-81.0373 45.251,-73.7795"/>
<polygon fill="#191970" stroke="#191970" points="41.7511,-100.4178 45.251,-110.4179 48.7511,-100.4179 41.7511,-100.4178"/>
</g>
</g>
</svg>
