<?xml version="1.0" encoding="UTF-8" standalone="no"?>
<!DOCTYPE svg PUBLIC "-//W3C//DTD SVG 1.1//EN"
 "http://www.w3.org/Graphics/SVG/1.1/DTD/svg11.dtd">
<!-- Generated by graphviz version 2.40.1 (20161225.0304)
 -->
<!-- Title: testVoronoiMap.cpp Pages: 1 -->
<!--zoomable 647 -->
<svg id="main" version="1.1" xmlns="http://www.w3.org/2000/svg" xmlns:xlink="http://www.w3.org/1999/xlink" xml:space="preserve" onload="init(evt)">
<style type="text/css"><![CDATA[
.edge:hover path { stroke: red; }
.edge:hover polygon { stroke: red; fill: red; }
]]></style>
<script type="text/javascript"><![CDATA[
var edges = document.getElementsByTagName('g');
if (edges && edges.length) {
  for (var i=0;i<edges.length;i++) {
    if (edges[i].id.substr(0,4)=='edge') {
      edges[i].setAttribute('class','edge');
    }
  }
}
]]></script>
        <defs>
                <circle id="rim" cx="0" cy="0" r="7"/>
                <circle id="rim2" cx="0" cy="0" r="3.5"/>
                <g id="zoomPlus">
                        <use xlink:href="#rim" fill="#404040">
                                <set attributeName="fill" to="#808080" begin="zoomplus.mouseover" end="zoomplus.mouseout"/>
                        </use>
                        <path d="M-4,0h8M0,-4v8" fill="none" stroke="white" stroke-width="1.5" pointer-events="none"/>
                </g>
                <g id="zoomMin">
                        <use xlink:href="#rim" fill="#404040">
                                <set attributeName="fill" to="#808080" begin="zoomminus.mouseover" end="zoomminus.mouseout"/>
                        </use>
                        <path d="M-4,0h8" fill="none" stroke="white" stroke-width="1.5" pointer-events="none"/>
                </g>
                <g id="dirArrow">
                        <path fill="none" stroke="white" stroke-width="1.5" d="M0,-3.0v7 M-2.5,-0.5L0,-3.0L2.5,-0.5"/>
                </g>
               <g id="resetDef">
                       <use xlink:href="#rim2" fill="#404040">
                               <set attributeName="fill" to="#808080" begin="reset.mouseover" end="reset.mouseout"/>
                       </use>
               </g>
        </defs>

<script type="text/javascript">
var viewWidth = 3365;
var viewHeight = 647;
var sectionId = 'dynsection-0';
</script>
<script xlink:href="svgpan.js"/>
<svg id="graph" class="graph">
<g id="viewport">
<title>testVoronoiMap.cpp</title>
<polygon fill="#ffffff" stroke="transparent" points="-4,4 -4,-643 3361.3174,-643 3361.3174,4 -4,4"/>
<!-- Node0 -->
<g id="node1" class="node">
<title>Node0</title>
<g id="a_node1"><a xlink:title=" ">
<polygon fill="#bfbfbf" stroke="#000000" points="1509.8032,-620.5 1509.8032,-638.5 1614.1968,-638.5 1614.1968,-620.5 1509.8032,-620.5"/>
<text text-anchor="middle" x="1562" y="-626.5" font-family="FreeSans" font-size="10.00" fill="#000000">testVoronoiMap.cpp</text>
</a>
</g>
</g>
<!-- Node1 -->
<g id="node2" class="node">
<title>Node1</title>
<g id="a_node2"><a xlink:title=" ">
<polygon fill="#ffffff" stroke="#bfbfbf" points="1637.8276,-.5 1637.8276,-18.5 1692.1724,-18.5 1692.1724,-.5 1637.8276,-.5"/>
<text text-anchor="middle" x="1665" y="-6.5" font-family="FreeSans" font-size="10.00" fill="#000000">iostream</text>
</a>
</g>
</g>
<!-- Node0&#45;&gt;Node1 -->
<g id="edge1" class="edge">
<title>Node0&#45;&gt;Node1</title>
<path fill="none" stroke="#191970" d="M1509.5828,-628.1112C1237.6404,-620.5698 0,-581.991 0,-504.5 0,-504.5 0,-504.5 0,-119.5 0,-82.9547 18.3345,-71.3867 51,-55 123.7192,-18.5203 1392.1673,-10.7846 1627.5731,-9.661"/>
<polygon fill="#191970" stroke="#191970" points="1627.7035,-13.1605 1637.687,-9.6138 1627.6707,-6.1606 1627.7035,-13.1605"/>
</g>
<!-- Node2 -->
<g id="node3" class="node">
<title>Node2</title>
<g id="a_node3"><a xlink:title=" ">
<polygon fill="#ffffff" stroke="#bfbfbf" points="1508.6084,-365.5 1508.6084,-383.5 1547.3916,-383.5 1547.3916,-365.5 1508.6084,-365.5"/>
<text text-anchor="middle" x="1528" y="-371.5" font-family="FreeSans" font-size="10.00" fill="#000000">array</text>
</a>
</g>
</g>
<!-- Node0&#45;&gt;Node2 -->
<g id="edge2" class="edge">
<title>Node0&#45;&gt;Node2</title>
<path fill="none" stroke="#191970" d="M1558.5386,-620.2317C1555.2881,-611.1366 1550.5538,-596.8062 1548,-584 1534.2664,-515.1324 1529.8812,-431.585 1528.5485,-394.2187"/>
<polygon fill="#191970" stroke="#191970" points="1532.0328,-393.6698 1528.215,-383.7867 1525.0364,-393.8935 1532.0328,-393.6698"/>
</g>
<!-- Node3 -->
<g id="node4" class="node">
<title>Node3</title>
<g id="a_node4"><a xlink:title=" ">
<polygon fill="#ffffff" stroke="#bfbfbf" points="1051.436,-110.5 1051.436,-128.5 1108.564,-128.5 1108.564,-110.5 1051.436,-110.5"/>
<text text-anchor="middle" x="1080" y="-116.5" font-family="FreeSans" font-size="10.00" fill="#000000">algorithm</text>
</a>
</g>
</g>
<!-- Node0&#45;&gt;Node3 -->
<g id="edge3" class="edge">
<title>Node0&#45;&gt;Node3</title>
<path fill="none" stroke="#191970" d="M1547.0482,-620.495C1532.7848,-611.7081 1510.885,-597.6984 1493,-584 1333.7729,-462.0455 1316.67,-403.697 1155,-285 1091.8393,-238.6278 1042.5395,-262.2229 1004,-194 997.6606,-182.7779 997.6442,-176.2128 1004,-165 1012.2736,-150.4038 1027.2988,-139.9847 1041.8182,-132.8334"/>
<polygon fill="#191970" stroke="#191970" points="1043.5353,-135.8985 1051.2104,-128.5948 1040.6559,-129.5181 1043.5353,-135.8985"/>
</g>
<!-- Node4 -->
<g id="node5" class="node">
<title>Node4</title>
<g id="a_node5"><a xlink:href="Common_8h_source.html" target="_top" xlink:title=" ">
<polygon fill="#ffffff" stroke="#000000" points="1496.1455,-230.5 1496.1455,-248.5 1613.8545,-248.5 1613.8545,-230.5 1496.1455,-230.5"/>
<text text-anchor="middle" x="1555" y="-236.5" font-family="FreeSans" font-size="10.00" fill="#000000">DGtal/base/Common.h</text>
</a>
</g>
</g>
<!-- Node0&#45;&gt;Node4 -->
<g id="edge4" class="edge">
<title>Node0&#45;&gt;Node4</title>
<path fill="none" stroke="#191970" d="M1562.507,-620.4318C1564.6219,-580.6935 1572.1699,-417.9858 1562,-285 1561.3296,-276.2341 1559.943,-266.6007 1558.5793,-258.4637"/>
<polygon fill="#191970" stroke="#191970" points="1562.0067,-257.7466 1556.8035,-248.5174 1555.1157,-258.9769 1562.0067,-257.7466"/>
</g>
<!-- Node43 -->
<g id="node26" class="node">
<title>Node43</title>
<g id="a_node26"><a xlink:href="StdDefs_8h_source.html" target="_top" xlink:title=" ">
<polygon fill="#ffffff" stroke="#000000" points="869.0864,-560.5 869.0864,-578.5 992.9136,-578.5 992.9136,-560.5 869.0864,-560.5"/>
<text text-anchor="middle" x="931" y="-566.5" font-family="FreeSans" font-size="10.00" fill="#000000">DGtal/helpers/StdDefs.h</text>
</a>
</g>
</g>
<!-- Node0&#45;&gt;Node43 -->
<g id="edge43" class="edge">
<title>Node0&#45;&gt;Node43</title>
<path fill="none" stroke="#191970" d="M1509.5565,-624.5133C1396.9722,-613.808 1131.9563,-588.6084 1003.4274,-576.3869"/>
<polygon fill="#191970" stroke="#191970" points="1003.5777,-572.8855 993.2912,-575.4231 1002.915,-579.8541 1003.5777,-572.8855"/>
</g>
<!-- Node68 -->
<g id="node29" class="node">
<title>Node68</title>
<g id="a_node29"><a xlink:href="BasicPointPredicates_8h_source.html" target="_top" xlink:title=" ">
<polygon fill="#ffffff" stroke="#ff0000" points="1895.4067,-365.5 1895.4067,-383.5 2072.5933,-383.5 2072.5933,-365.5 1895.4067,-365.5"/>
<text text-anchor="middle" x="1984" y="-371.5" font-family="FreeSans" font-size="10.00" fill="#000000">DGtal/kernel/BasicPointPredicates.h</text>
</a>
</g>
</g>
<!-- Node0&#45;&gt;Node68 -->
<g id="edge138" class="edge">
<title>Node0&#45;&gt;Node68</title>
<path fill="none" stroke="#191970" d="M1614.3027,-627.2012C1690.4267,-622.9494 1827.0325,-611.6246 1867,-584 1935.5801,-536.599 1968.4358,-435.2869 1979.5122,-393.3144"/>
<polygon fill="#191970" stroke="#191970" points="1982.9194,-394.1167 1981.9698,-383.5645 1976.1317,-392.4057 1982.9194,-394.1167"/>
</g>
<!-- Node152 -->
<g id="node40" class="node">
<title>Node152</title>
<g id="a_node40"><a xlink:href="ExactPredicateLpSeparableMetric_8h_source.html" target="_top" xlink:title=" ">
<polygon fill="#ffffff" stroke="#ff0000" points="244.6138,-285.5 244.6138,-323.5 427.3862,-323.5 427.3862,-285.5 244.6138,-285.5"/>
<text text-anchor="start" x="252.6138" y="-311.5" font-family="FreeSans" font-size="10.00" fill="#000000">DGtal/geometry/volumes</text>
<text text-anchor="start" x="252.6138" y="-301.5" font-family="FreeSans" font-size="10.00" fill="#000000">/distance/ExactPredicateLpSeparable</text>
<text text-anchor="middle" x="336" y="-291.5" font-family="FreeSans" font-size="10.00" fill="#000000">Metric.h</text>
</a>
</g>
</g>
<!-- Node0&#45;&gt;Node152 -->
<g id="edge127" class="edge">
<title>Node0&#45;&gt;Node152</title>
<path fill="none" stroke="#191970" d="M1509.6781,-627.4242C1369.053,-621.635 985.1366,-604.3902 860,-584 748.3864,-565.8133 718.5039,-562.2121 614,-519 512.9094,-477.1993 485.9148,-462.6167 405,-389 386.0984,-371.8032 367.9544,-349.2617 355.0198,-331.7858"/>
<polygon fill="#191970" stroke="#191970" points="357.8212,-329.687 349.108,-323.6594 352.1605,-333.805 357.8212,-329.687"/>
</g>
<!-- Node159 -->
<g id="node42" class="node">
<title>Node159</title>
<g id="a_node42"><a xlink:href="CConstImage_8h_source.html" target="_top" xlink:title=" ">
<polygon fill="#ffffff" stroke="#000000" points="2892.584,-430.5 2892.584,-448.5 3041.416,-448.5 3041.416,-430.5 2892.584,-430.5"/>
<text text-anchor="middle" x="2967" y="-436.5" font-family="FreeSans" font-size="10.00" fill="#000000">DGtal/images/CConstImage.h</text>
</a>
</g>
</g>
<!-- Node0&#45;&gt;Node159 -->
<g id="edge102" class="edge">
<title>Node0&#45;&gt;Node159</title>
<path fill="none" stroke="#191970" d="M1614.2209,-627.852C1769.9821,-622.7363 2229.6859,-606.1335 2378,-584 2589.2487,-552.4745 2835.5502,-480.1768 2928.7039,-451.5195"/>
<polygon fill="#191970" stroke="#191970" points="2929.7464,-454.8608 2938.2676,-448.5648 2927.6801,-448.1727 2929.7464,-454.8608"/>
</g>
<!-- Node162 -->
<g id="node46" class="node">
<title>Node162</title>
<g id="a_node46"><a xlink:href="VoronoiMap_8h_source.html" target="_top" xlink:title="Linear in time distance transformation.">
<polygon fill="#ffffff" stroke="#ff0000" points="1636.9805,-490.5 1636.9805,-518.5 1763.0195,-518.5 1763.0195,-490.5 1636.9805,-490.5"/>
<text text-anchor="start" x="1644.9805" y="-506.5" font-family="FreeSans" font-size="10.00" fill="#000000">DGtal/geometry/volumes</text>
<text text-anchor="middle" x="1700" y="-496.5" font-family="FreeSans" font-size="10.00" fill="#000000">/distance/VoronoiMap.h</text>
</a>
</g>
</g>
<!-- Node0&#45;&gt;Node162 -->
<g id="edge121" class="edge">
<title>Node0&#45;&gt;Node162</title>
<path fill="none" stroke="#191970" d="M1572.3724,-620.1047C1594.353,-600.1948 1646.0919,-553.3298 1676.5162,-525.7715"/>
<polygon fill="#191970" stroke="#191970" points="1679.0636,-528.1865 1684.1255,-518.8791 1674.3642,-522.9984 1679.0636,-528.1865"/>
</g>
<!-- Node178 -->
<g id="node47" class="node">
<title>Node178</title>
<g id="a_node47"><a xlink:href="InexactPredicateLpSeparableMetric_8h_source.html" target="_top" xlink:title=" ">
<polygon fill="#ffffff" stroke="#ff0000" points="1408.7935,-285.5 1408.7935,-323.5 1553.2065,-323.5 1553.2065,-285.5 1408.7935,-285.5"/>
<text text-anchor="start" x="1416.7935" y="-311.5" font-family="FreeSans" font-size="10.00" fill="#000000">DGtal/geometry/volumes</text>
<text text-anchor="start" x="1416.7935" y="-301.5" font-family="FreeSans" font-size="10.00" fill="#000000">/distance/InexactPredicateLp</text>
<text text-anchor="middle" x="1481" y="-291.5" font-family="FreeSans" font-size="10.00" fill="#000000">SeparableMetric.h</text>
</a>
</g>
</g>
<!-- Node0&#45;&gt;Node178 -->
<g id="edge128" class="edge">
<title>Node0&#45;&gt;Node178</title>
<path fill="none" stroke="#191970" d="M1550.7373,-620.4718C1528.4807,-601.531 1481,-555.1843 1481,-504.5 1481,-504.5 1481,-504.5 1481,-439.5 1481,-403.084 1481,-361.1424 1481,-333.7971"/>
<polygon fill="#191970" stroke="#191970" points="1484.5001,-333.726 1481,-323.7261 1477.5001,-333.7261 1484.5001,-333.726"/>
</g>
<!-- Node180 -->
<g id="node48" class="node">
<title>Node180</title>
<g id="a_node48"><a xlink:href="DistanceTransformation_8h_source.html" target="_top" xlink:title="Linear in time distance transformation.">
<polygon fill="#ffffff" stroke="#ff0000" points="1685.5356,-555.5 1685.5356,-583.5 1858.4644,-583.5 1858.4644,-555.5 1685.5356,-555.5"/>
<text text-anchor="start" x="1693.5356" y="-571.5" font-family="FreeSans" font-size="10.00" fill="#000000">DGtal/geometry/volumes</text>
<text text-anchor="middle" x="1772" y="-561.5" font-family="FreeSans" font-size="10.00" fill="#000000">/distance/DistanceTransformation.h</text>
</a>
</g>
</g>
<!-- Node0&#45;&gt;Node180 -->
<g id="edge132" class="edge">
<title>Node0&#45;&gt;Node180</title>
<path fill="none" stroke="#191970" d="M1593.8945,-620.3873C1625.3875,-611.3893 1674.2991,-597.4145 1712.9034,-586.3847"/>
<polygon fill="#191970" stroke="#191970" points="1714.3322,-589.6166 1722.9859,-583.504 1712.4091,-582.886 1714.3322,-589.6166"/>
</g>
<!-- Node183 -->
<g id="node49" class="node">
<title>Node183</title>
<g id="a_node49"><a xlink:href="Board2D_8h_source.html" target="_top" xlink:title=" ">
<polygon fill="#ffffff" stroke="#ff0000" points="2204.9683,-295.5 2204.9683,-313.5 2341.0317,-313.5 2341.0317,-295.5 2204.9683,-295.5"/>
<text text-anchor="middle" x="2273" y="-301.5" font-family="FreeSans" font-size="10.00" fill="#000000">DGtal/io/boards/Board2D.h</text>
</a>
</g>
</g>
<!-- Node0&#45;&gt;Node183 -->
<g id="edge139" class="edge">
<title>Node0&#45;&gt;Node183</title>
<path fill="none" stroke="#191970" d="M1614.383,-625.4383C1774.0817,-612.3615 2244,-568.4493 2244,-504.5 2244,-504.5 2244,-504.5 2244,-439.5 2244,-397.1292 2257.8241,-348.9129 2266.3832,-323.1208"/>
<polygon fill="#191970" stroke="#191970" points="2269.7415,-324.117 2269.6733,-313.5224 2263.1198,-321.8472 2269.7415,-324.117"/>
</g>
<!-- Node321 -->
<g id="node50" class="node">
<title>Node321</title>
<g id="a_node50"><a xlink:href="HueShadeColorMap_8h_source.html" target="_top" xlink:title=" ">
<polygon fill="#ffffff" stroke="#ff0000" points="2359.1357,-290.5 2359.1357,-318.5 2476.8643,-318.5 2476.8643,-290.5 2359.1357,-290.5"/>
<text text-anchor="start" x="2367.1357" y="-306.5" font-family="FreeSans" font-size="10.00" fill="#000000">DGtal/io/colormaps</text>
<text text-anchor="middle" x="2418" y="-296.5" font-family="FreeSans" font-size="10.00" fill="#000000">/HueShadeColorMap.h</text>
</a>
</g>
</g>
<!-- Node0&#45;&gt;Node321 -->
<g id="edge142" class="edge">
<title>Node0&#45;&gt;Node321</title>
<path fill="none" stroke="#191970" d="M1614.3121,-626.8884C1792.3839,-617.3115 2364,-580.6393 2364,-504.5 2364,-504.5 2364,-504.5 2364,-439.5 2364,-397.6835 2386.6115,-353.4567 2402.5709,-327.4489"/>
<polygon fill="#191970" stroke="#191970" points="2405.6998,-329.05 2408.0956,-318.7296 2399.7868,-325.3034 2405.6998,-329.05"/>
</g>
<!-- Node4&#45;&gt;Node1 -->
<g id="edge5" class="edge">
<title>Node4&#45;&gt;Node1</title>
<path fill="none" stroke="#191970" d="M1548.3288,-230.2473C1538.2865,-215.0843 1521.9772,-184.6686 1537,-165 1573.9109,-116.6744 1632.0891,-177.3256 1669,-129 1691.2706,-99.8422 1680.8819,-53.9824 1672.3155,-28.383"/>
<polygon fill="#191970" stroke="#191970" points="1675.5328,-26.9865 1668.8563,-18.7601 1668.9455,-29.3545 1675.5328,-26.9865"/>
</g>
<!-- Node4&#45;&gt;Node3 -->
<g id="edge7" class="edge">
<title>Node4&#45;&gt;Node3</title>
<path fill="none" stroke="#191970" d="M1495.9951,-235.2331C1410.3067,-228.4649 1255.9862,-213.9609 1204,-194 1182.8233,-185.8689 1181.2739,-176.9618 1162,-165 1143.8449,-153.7326 1122.7531,-142.0594 1106.5073,-133.3579"/>
<polygon fill="#191970" stroke="#191970" points="1108.0338,-130.2057 1097.5608,-128.6035 1104.7488,-136.387 1108.0338,-130.2057"/>
</g>
<!-- Node5 -->
<g id="node6" class="node">
<title>Node5</title>
<g id="a_node6"><a xlink:title=" ">
<polygon fill="#ffffff" stroke="#bfbfbf" points="1556.5962,-170.5 1556.5962,-188.5 1615.4038,-188.5 1615.4038,-170.5 1556.5962,-170.5"/>
<text text-anchor="middle" x="1586" y="-176.5" font-family="FreeSans" font-size="10.00" fill="#000000">exception</text>
</a>
</g>
</g>
<!-- Node4&#45;&gt;Node5 -->
<g id="edge6" class="edge">
<title>Node4&#45;&gt;Node5</title>
<path fill="none" stroke="#191970" d="M1559.7082,-230.3873C1564.1692,-221.7531 1570.9978,-208.5365 1576.5778,-197.7366"/>
<polygon fill="#191970" stroke="#191970" points="1579.7667,-199.1893 1581.2475,-188.6985 1573.5477,-195.9761 1579.7667,-199.1893"/>
</g>
<!-- Node6 -->
<g id="node7" class="node">
<title>Node6</title>
<g id="a_node7"><a xlink:title=" ">
<polygon fill="#ffffff" stroke="#bfbfbf" points="1633.5298,-170.5 1633.5298,-188.5 1728.4702,-188.5 1728.4702,-170.5 1633.5298,-170.5"/>
<text text-anchor="middle" x="1681" y="-176.5" font-family="FreeSans" font-size="10.00" fill="#000000">boost/version.hpp</text>
</a>
</g>
</g>
<!-- Node4&#45;&gt;Node6 -->
<g id="edge8" class="edge">
<title>Node4&#45;&gt;Node6</title>
<path fill="none" stroke="#191970" d="M1574.1367,-230.3873C1595.0722,-220.418 1628.8372,-204.3394 1652.806,-192.9257"/>
<polygon fill="#191970" stroke="#191970" points="1654.5722,-195.9613 1662.0961,-188.5019 1651.5627,-189.6413 1654.5722,-195.9613"/>
</g>
<!-- Node7 -->
<g id="node8" class="node">
<title>Node7</title>
<g id="a_node8"><a xlink:title=" ">
<polygon fill="#ffffff" stroke="#bfbfbf" points="2926.2935,-170.5 2926.2935,-188.5 3055.7065,-188.5 3055.7065,-170.5 2926.2935,-170.5"/>
<text text-anchor="middle" x="2991" y="-176.5" font-family="FreeSans" font-size="10.00" fill="#000000">boost/concept_check.hpp</text>
</a>
</g>
</g>
<!-- Node4&#45;&gt;Node7 -->
<g id="edge9" class="edge">
<title>Node4&#45;&gt;Node7</title>
<path fill="none" stroke="#191970" d="M1613.9701,-237.0361C1841.5821,-227.5258 2662.7717,-193.2143 2916.0703,-182.6308"/>
<polygon fill="#191970" stroke="#191970" points="2916.4279,-186.119 2926.273,-182.2045 2916.1356,-179.1251 2916.4279,-186.119"/>
</g>
<!-- Node8 -->
<g id="node9" class="node">
<title>Node8</title>
<g id="a_node9"><a xlink:title=" ">
<polygon fill="#ffffff" stroke="#bfbfbf" points="1746.5815,-170.5 1746.5815,-188.5 1865.4185,-188.5 1865.4185,-170.5 1746.5815,-170.5"/>
<text text-anchor="middle" x="1806" y="-176.5" font-family="FreeSans" font-size="10.00" fill="#000000">boost/static_assert.hpp</text>
</a>
</g>
</g>
<!-- Node4&#45;&gt;Node8 -->
<g id="edge10" class="edge">
<title>Node4&#45;&gt;Node8</title>
<path fill="none" stroke="#191970" d="M1592.849,-230.4524C1637.0875,-219.8775 1710.3483,-202.3649 1758.402,-190.878"/>
<polygon fill="#191970" stroke="#191970" points="1759.3418,-194.252 1768.2541,-188.5229 1757.7143,-187.4439 1759.3418,-194.252"/>
</g>
<!-- Node9 -->
<g id="node10" class="node">
<title>Node9</title>
<g id="a_node10"><a xlink:title=" ">
<polygon fill="#ffffff" stroke="#bfbfbf" points="3075.1309,-170.5 3075.1309,-188.5 3202.8691,-188.5 3202.8691,-170.5 3075.1309,-170.5"/>
<text text-anchor="middle" x="3139" y="-176.5" font-family="FreeSans" font-size="10.00" fill="#000000">boost/concept/assert.hpp</text>
</a>
</g>
</g>
<!-- Node4&#45;&gt;Node9 -->
<g id="edge11" class="edge">
<title>Node4&#45;&gt;Node9</title>
<path fill="none" stroke="#191970" d="M1614.1538,-239.0095C1856.7671,-236.7979 2776.3477,-226.409 3065,-194 3072.8669,-193.1167 3081.146,-191.8417 3089.2038,-190.4093"/>
<polygon fill="#191970" stroke="#191970" points="3090.0597,-193.81 3099.2442,-188.5284 3088.7707,-186.9297 3090.0597,-193.81"/>
</g>
<!-- Node10 -->
<g id="node11" class="node">
<title>Node10</title>
<g id="a_node11"><a xlink:title=" ">
<polygon fill="#ffffff" stroke="#bfbfbf" points="3220.6826,-170.5 3220.6826,-188.5 3357.3174,-188.5 3357.3174,-170.5 3220.6826,-170.5"/>
<text text-anchor="middle" x="3289" y="-176.5" font-family="FreeSans" font-size="10.00" fill="#000000">boost/concept/requires.hpp</text>
</a>
</g>
</g>
<!-- Node4&#45;&gt;Node10 -->
<g id="edge12" class="edge">
<title>Node4&#45;&gt;Node10</title>
<path fill="none" stroke="#191970" d="M1614.166,-239.1347C1871.2621,-237.3536 2892.7722,-228.2212 3212,-194 3220.3605,-193.1038 3229.1727,-191.795 3237.7312,-190.3251"/>
<polygon fill="#191970" stroke="#191970" points="3238.3997,-193.7611 3247.6192,-188.5407 3237.1565,-186.8723 3238.3997,-193.7611"/>
</g>
<!-- Node11 -->
<g id="node12" class="node">
<title>Node11</title>
<g id="a_node12"><a xlink:title=" ">
<polygon fill="#ffffff" stroke="#bfbfbf" points="1883.8672,-165.5 1883.8672,-193.5 1992.1328,-193.5 1992.1328,-165.5 1883.8672,-165.5"/>
<text text-anchor="start" x="1891.8672" y="-181.5" font-family="FreeSans" font-size="10.00" fill="#000000">boost/iterator/iterator</text>
<text text-anchor="middle" x="1938" y="-171.5" font-family="FreeSans" font-size="10.00" fill="#000000">_concepts.hpp</text>
</a>
</g>
</g>
<!-- Node4&#45;&gt;Node11 -->
<g id="edge13" class="edge">
<title>Node4&#45;&gt;Node11</title>
<path fill="none" stroke="#191970" d="M1614.0269,-232.5369C1676.1003,-224.8868 1776.8106,-211.55 1873.6343,-193.9683"/>
<polygon fill="#191970" stroke="#191970" points="1874.3899,-197.3881 1883.5946,-192.1418 1873.1273,-190.5029 1874.3899,-197.3881"/>
</g>
<!-- Node12 -->
<g id="node13" class="node">
<title>Node12</title>
<g id="a_node13"><a xlink:title=" ">
<polygon fill="#ffffff" stroke="#bfbfbf" points="2010.397,-170.5 2010.397,-188.5 2157.603,-188.5 2157.603,-170.5 2010.397,-170.5"/>
<text text-anchor="middle" x="2084" y="-176.5" font-family="FreeSans" font-size="10.00" fill="#000000">boost/concept_archetype.hpp</text>
</a>
</g>
</g>
<!-- Node4&#45;&gt;Node12 -->
<g id="edge14" class="edge">
<title>Node4&#45;&gt;Node12</title>
<path fill="none" stroke="#191970" d="M1613.9604,-234.8326C1699.4711,-227.7579 1862.7985,-213.0966 2001,-194 2009.0353,-192.8897 2017.484,-191.58 2025.7899,-190.2095"/>
<polygon fill="#191970" stroke="#191970" points="2026.5356,-193.6332 2035.8132,-188.5168 2025.37,-186.7309 2026.5356,-193.6332"/>
</g>
<!-- Node13 -->
<g id="node14" class="node">
<title>Node13</title>
<g id="a_node14"><a xlink:title=" ">
<polygon fill="#ffffff" stroke="#bfbfbf" points="899.3843,-110.5 899.3843,-128.5 942.6157,-128.5 942.6157,-110.5 899.3843,-110.5"/>
<text text-anchor="middle" x="921" y="-116.5" font-family="FreeSans" font-size="10.00" fill="#000000">cmath</text>
</a>
</g>
</g>
<!-- Node4&#45;&gt;Node13 -->
<g id="edge15" class="edge">
<title>Node4&#45;&gt;Node13</title>
<path fill="none" stroke="#191970" d="M1495.7628,-236.7454C1362.7077,-230.2523 1048.2938,-213.0904 1004,-194 974.8128,-181.4205 948.9321,-154.345 934.1168,-136.5339"/>
<polygon fill="#191970" stroke="#191970" points="936.7614,-134.2375 927.7667,-128.6387 931.3067,-138.6246 936.7614,-134.2375"/>
</g>
<!-- Node14 -->
<g id="node15" class="node">
<title>Node14</title>
<g id="a_node15"><a xlink:title=" ">
<polygon fill="#ffffff" stroke="#bfbfbf" points="2214.2686,-170.5 2214.2686,-188.5 2259.7314,-188.5 2259.7314,-170.5 2214.2686,-170.5"/>
<text text-anchor="middle" x="2237" y="-176.5" font-family="FreeSans" font-size="10.00" fill="#000000">stdio.h</text>
</a>
</g>
</g>
<!-- Node4&#45;&gt;Node14 -->
<g id="edge16" class="edge">
<title>Node4&#45;&gt;Node14</title>
<path fill="none" stroke="#191970" d="M1613.9715,-237.6211C1751.3336,-232.8763 2089.333,-218.9753 2200,-194 2202.4733,-193.4418 2204.999,-192.7451 2207.511,-191.9611"/>
<polygon fill="#191970" stroke="#191970" points="2208.7284,-195.2431 2216.9925,-188.6133 2206.3977,-188.6425 2208.7284,-195.2431"/>
</g>
<!-- Node15 -->
<g id="node16" class="node">
<title>Node15</title>
<g id="a_node16"><a xlink:href="Config_8h_source.html" target="_top" xlink:title=" ">
<polygon fill="#ffffff" stroke="#ff0000" points="1341.9756,-55.5 1341.9756,-73.5 1448.0244,-73.5 1448.0244,-55.5 1341.9756,-55.5"/>
<text text-anchor="middle" x="1395" y="-61.5" font-family="FreeSans" font-size="10.00" fill="#000000">DGtal/base/Config.h</text>
</a>
</g>
</g>
<!-- Node4&#45;&gt;Node15 -->
<g id="edge17" class="edge">
<title>Node4&#45;&gt;Node15</title>
<path fill="none" stroke="#191970" d="M1512.1383,-230.4874C1463.2192,-217.566 1385.9818,-188.453 1355,-129 1346.0921,-111.9061 1360.4267,-93.2863 1374.3492,-80.4665"/>
<polygon fill="#191970" stroke="#191970" points="1376.9989,-82.8057 1382.3201,-73.644 1372.447,-77.4876 1376.9989,-82.8057"/>
</g>
<!-- Node17 -->
<g id="node17" class="node">
<title>Node17</title>
<g id="a_node17"><a xlink:href="Trace_8h_source.html" target="_top" xlink:title=" ">
<polygon fill="#ffffff" stroke="#ff0000" points="1246.8311,-170.5 1246.8311,-188.5 1349.1689,-188.5 1349.1689,-170.5 1246.8311,-170.5"/>
<text text-anchor="middle" x="1298" y="-176.5" font-family="FreeSans" font-size="10.00" fill="#000000">DGtal/base/Trace.h</text>
</a>
</g>
</g>
<!-- Node4&#45;&gt;Node17 -->
<g id="edge19" class="edge">
<title>Node4&#45;&gt;Node17</title>
<path fill="none" stroke="#191970" d="M1516.2462,-230.4524C1470.8555,-219.8554 1395.6242,-202.2916 1346.4273,-190.806"/>
<polygon fill="#191970" stroke="#191970" points="1347.1821,-187.3882 1336.6482,-188.5229 1345.5906,-194.2049 1347.1821,-187.3882"/>
</g>
<!-- Node24 -->
<g id="node18" class="node">
<title>Node24</title>
<g id="a_node18"><a xlink:href="TraceWriterTerm_8h_source.html" target="_top" xlink:title=" ">
<polygon fill="#ffffff" stroke="#ff0000" points="1364.478,-110.5 1364.478,-128.5 1515.522,-128.5 1515.522,-110.5 1364.478,-110.5"/>
<text text-anchor="middle" x="1440" y="-116.5" font-family="FreeSans" font-size="10.00" fill="#000000">DGtal/base/TraceWriterTerm.h</text>
</a>
</g>
</g>
<!-- Node4&#45;&gt;Node24 -->
<g id="edge27" class="edge">
<title>Node4&#45;&gt;Node24</title>
<path fill="none" stroke="#191970" d="M1526.1097,-230.4837C1507.3,-223.2919 1483.4717,-211.4909 1468,-194 1454.165,-178.3594 1446.9067,-155.2224 1443.2816,-138.8904"/>
<polygon fill="#191970" stroke="#191970" points="1446.6716,-137.9883 1441.3162,-128.8466 1439.8019,-139.3326 1446.6716,-137.9883"/>
</g>
<!-- Node25 -->
<g id="node19" class="node">
<title>Node25</title>
<g id="a_node19"><a xlink:href="Assert_8h_source.html" target="_top" xlink:title=" ">
<polygon fill="#ffffff" stroke="#ff0000" points="1126.2588,-110.5 1126.2588,-128.5 1231.7412,-128.5 1231.7412,-110.5 1126.2588,-110.5"/>
<text text-anchor="middle" x="1179" y="-116.5" font-family="FreeSans" font-size="10.00" fill="#000000">DGtal/base/Assert.h</text>
</a>
</g>
</g>
<!-- Node4&#45;&gt;Node25 -->
<g id="edge30" class="edge">
<title>Node4&#45;&gt;Node25</title>
<path fill="none" stroke="#191970" d="M1495.9261,-236.2265C1416.6318,-230.9569 1280.778,-218.5939 1238,-194 1215.2822,-180.9391 1198.0431,-155.4079 1188.2292,-137.9076"/>
<polygon fill="#191970" stroke="#191970" points="1191.1104,-135.8712 1183.3236,-128.6867 1184.9305,-139.1589 1191.1104,-135.8712"/>
</g>
<!-- Node28 -->
<g id="node20" class="node">
<title>Node28</title>
<g id="a_node20"><a xlink:href="TraceWriterFile_8h_source.html" target="_top" xlink:title=" ">
<polygon fill="#ffffff" stroke="#ff0000" points="1715.5322,-55.5 1715.5322,-73.5 1860.4678,-73.5 1860.4678,-55.5 1715.5322,-55.5"/>
<text text-anchor="middle" x="1788" y="-61.5" font-family="FreeSans" font-size="10.00" fill="#000000">DGtal/base/TraceWriterFile.h</text>
</a>
</g>
</g>
<!-- Node4&#45;&gt;Node28 -->
<g id="edge28" class="edge">
<title>Node4&#45;&gt;Node28</title>
<path fill="none" stroke="#191970" d="M1550.3479,-230.0819C1543.4834,-214.6809 1532.984,-183.931 1548,-165 1591.6807,-109.9306 1638.303,-158.721 1702,-129 1728.3561,-116.7023 1754.4924,-95.4757 1770.9101,-80.7479"/>
<polygon fill="#191970" stroke="#191970" points="1773.5632,-83.0632 1778.5592,-73.7203 1768.8273,-77.9084 1773.5632,-83.0632"/>
</g>
<!-- Node29 -->
<g id="node21" class="node">
<title>Node29</title>
<g id="a_node21"><a xlink:href="ConceptUtils_8h_source.html" target="_top" xlink:title=" ">
<polygon fill="#ffffff" stroke="#000000" points="2468.084,-170.5 2468.084,-188.5 2601.916,-188.5 2601.916,-170.5 2468.084,-170.5"/>
<text text-anchor="middle" x="2535" y="-176.5" font-family="FreeSans" font-size="10.00" fill="#000000">DGtal/base/ConceptUtils.h</text>
</a>
</g>
</g>
<!-- Node4&#45;&gt;Node29 -->
<g id="edge31" class="edge">
<title>Node4&#45;&gt;Node29</title>
<path fill="none" stroke="#191970" d="M1614.0722,-235.9284C1740.3385,-228.2883 2045.8775,-209.7697 2302,-194 2353.994,-190.7987 2412.5117,-187.1569 2457.8963,-184.3239"/>
<polygon fill="#191970" stroke="#191970" points="2458.1973,-187.812 2467.9597,-183.6955 2457.761,-180.8256 2458.1973,-187.812"/>
</g>
<!-- Node30 -->
<g id="node22" class="node">
<title>Node30</title>
<g id="a_node22"><a xlink:href="BasicTypes_8h_source.html" target="_top" xlink:title=" ">
<polygon fill="#ffffff" stroke="#ff0000" points="1909.8599,-55.5 1909.8599,-73.5 2038.1401,-73.5 2038.1401,-55.5 1909.8599,-55.5"/>
<text text-anchor="middle" x="1974" y="-61.5" font-family="FreeSans" font-size="10.00" fill="#000000">DGtal/base/BasicTypes.h</text>
</a>
</g>
</g>
<!-- Node4&#45;&gt;Node30 -->
<g id="edge33" class="edge">
<title>Node4&#45;&gt;Node30</title>
<path fill="none" stroke="#191970" d="M1614.0548,-237.261C1763.892,-231.2951 2148.3449,-214.0935 2167,-194 2217.8686,-139.2091 2094.0011,-95.8926 2021.6879,-76.1426"/>
<polygon fill="#191970" stroke="#191970" points="2022.4145,-72.714 2011.8499,-73.5135 2020.6072,-79.4767 2022.4145,-72.714"/>
</g>
<!-- Node33 -->
<g id="node23" class="node">
<title>Node33</title>
<g id="a_node23"><a xlink:href="BasicFunctors_8h_source.html" target="_top" xlink:title=" ">
<polygon fill="#ffffff" stroke="#ff0000" points="1012.7515,-170.5 1012.7515,-188.5 1153.2485,-188.5 1153.2485,-170.5 1012.7515,-170.5"/>
<text text-anchor="middle" x="1083" y="-176.5" font-family="FreeSans" font-size="10.00" fill="#000000">DGtal/base/BasicFunctors.h</text>
</a>
</g>
</g>
<!-- Node4&#45;&gt;Node33 -->
<g id="edge35" class="edge">
<title>Node4&#45;&gt;Node33</title>
<path fill="none" stroke="#191970" d="M1495.8624,-234.1891C1417.9933,-226.4996 1277.3099,-211.2802 1158,-194 1150.1734,-192.8664 1141.9542,-191.5743 1133.9292,-190.2392"/>
<polygon fill="#191970" stroke="#191970" points="1134.3577,-186.7619 1123.9121,-188.5338 1133.1828,-193.6626 1134.3577,-186.7619"/>
</g>
<!-- Node41 -->
<g id="node24" class="node">
<title>Node41</title>
<g id="a_node24"><a xlink:href="BasicArchetypes_8h_source.html" target="_top" xlink:title=" ">
<polygon fill="#ffffff" stroke="#000000" points="2116.1899,-55.5 2116.1899,-73.5 2267.8101,-73.5 2267.8101,-55.5 2116.1899,-55.5"/>
<text text-anchor="middle" x="2192" y="-61.5" font-family="FreeSans" font-size="10.00" fill="#000000">DGtal/base/BasicArchetypes.h</text>
</a>
</g>
</g>
<!-- Node4&#45;&gt;Node41 -->
<g id="edge39" class="edge">
<title>Node4&#45;&gt;Node41</title>
<path fill="none" stroke="#191970" d="M1614.0124,-237.9153C1781.0775,-233.1441 2246.7032,-217.7629 2269,-194 2302.5164,-158.2797 2245.7951,-105.523 2212.9203,-79.7684"/>
<polygon fill="#191970" stroke="#191970" points="2214.833,-76.8254 2204.7597,-73.5422 2210.587,-82.3906 2214.833,-76.8254"/>
</g>
<!-- Node42 -->
<g id="node25" class="node">
<title>Node42</title>
<g id="a_node25"><a xlink:href="Exceptions_8h_source.html" target="_top" xlink:title=" ">
<polygon fill="#ffffff" stroke="#000000" points="1533.9707,-110.5 1533.9707,-128.5 1660.0293,-128.5 1660.0293,-110.5 1533.9707,-110.5"/>
<text text-anchor="middle" x="1597" y="-116.5" font-family="FreeSans" font-size="10.00" fill="#000000">DGtal/base/Exceptions.h</text>
</a>
</g>
</g>
<!-- Node4&#45;&gt;Node42 -->
<g id="edge41" class="edge">
<title>Node4&#45;&gt;Node42</title>
<path fill="none" stroke="#191970" d="M1525.0821,-230.4465C1507.7225,-223.4809 1487.3068,-211.9446 1477,-194 1470.5806,-182.8235 1469.6779,-175.6071 1477,-165 1485.8133,-152.2327 1520.5473,-139.8918 1550.3936,-131.2912"/>
<polygon fill="#191970" stroke="#191970" points="1551.5972,-134.5889 1560.2835,-128.5227 1549.7102,-127.8481 1551.5972,-134.5889"/>
</g>
<!-- Node15&#45;&gt;Node1 -->
<g id="edge18" class="edge">
<title>Node15&#45;&gt;Node1</title>
<path fill="none" stroke="#191970" d="M1439.2827,-55.4795C1491.799,-44.7817 1578.4044,-27.1398 1627.6697,-17.1043"/>
<polygon fill="#191970" stroke="#191970" points="1628.4897,-20.5092 1637.5899,-15.0835 1627.0925,-13.6501 1628.4897,-20.5092"/>
</g>
<!-- Node17&#45;&gt;Node1 -->
<g id="edge20" class="edge">
<title>Node17&#45;&gt;Node1</title>
<path fill="none" stroke="#191970" d="M1297.2153,-170.2373C1295.7667,-146.3001 1295.7008,-82.35 1333,-55 1379.2091,-21.1167 1550.878,-12.4379 1627.5712,-10.2372"/>
<polygon fill="#191970" stroke="#191970" points="1627.8359,-13.7315 1637.7397,-9.9677 1627.6504,-6.734 1627.8359,-13.7315"/>
</g>
<!-- Node17&#45;&gt;Node15 -->
<g id="edge21" class="edge">
<title>Node17&#45;&gt;Node15</title>
<path fill="none" stroke="#191970" d="M1299.1533,-170.4583C1301.3665,-156.2352 1307.3598,-128.3669 1322,-110 1332.9192,-96.3013 1349.1591,-85.6031 1363.551,-78.032"/>
<polygon fill="#191970" stroke="#191970" points="1365.2653,-81.0886 1372.6672,-73.5082 1362.1536,-74.8183 1365.2653,-81.0886"/>
</g>
<!-- Node17&#45;&gt;Node24 -->
<g id="edge22" class="edge">
<title>Node17&#45;&gt;Node24</title>
<path fill="none" stroke="#191970" d="M1319.5667,-170.3873C1343.4754,-160.2851 1382.2306,-143.9096 1409.3004,-132.4717"/>
<polygon fill="#191970" stroke="#191970" points="1410.8464,-135.6181 1418.6956,-128.5019 1408.1218,-129.1701 1410.8464,-135.6181"/>
</g>
<!-- Node17&#45;&gt;Node25 -->
<g id="edge25" class="edge">
<title>Node17&#45;&gt;Node25</title>
<path fill="none" stroke="#191970" d="M1274.9171,-170.3873C1253.3891,-160.5509 1221.8221,-144.7671 1200.7414,-133.3847"/>
<polygon fill="#191970" stroke="#191970" points="1202.3158,-130.2562 1191.8672,-128.5019 1198.9413,-136.3891 1202.3158,-130.2562"/>
</g>
<!-- Node24&#45;&gt;Node1 -->
<g id="edge23" class="edge">
<title>Node24&#45;&gt;Node1</title>
<path fill="none" stroke="#191970" d="M1458.4127,-110.4982C1497.8025,-91.241 1590.4478,-45.9478 1637.1095,-23.1354"/>
<polygon fill="#191970" stroke="#191970" points="1638.8863,-26.1626 1646.3329,-18.6261 1635.8118,-19.874 1638.8863,-26.1626"/>
</g>
<!-- Node24&#45;&gt;Node15 -->
<g id="edge24" class="edge">
<title>Node24&#45;&gt;Node15</title>
<path fill="none" stroke="#191970" d="M1432.5692,-110.4179C1426.2238,-102.6624 1416.9191,-91.29 1409.1574,-81.8035"/>
<polygon fill="#191970" stroke="#191970" points="1411.6336,-79.3027 1402.5923,-73.7795 1406.2158,-83.7354 1411.6336,-79.3027"/>
</g>
<!-- Node25&#45;&gt;Node17 -->
<g id="edge26" class="edge">
<title>Node25&#45;&gt;Node17</title>
<path fill="none" stroke="#191970" d="M1201.8402,-128.5019C1223.2924,-138.2933 1254.8607,-154.0712 1276.0201,-165.4865"/>
<polygon fill="#191970" stroke="#191970" points="1274.4865,-168.6374 1284.9358,-170.3873 1277.8584,-162.503 1274.4865,-168.6374"/>
</g>
<!-- Node28&#45;&gt;Node1 -->
<g id="edge29" class="edge">
<title>Node28&#45;&gt;Node1</title>
<path fill="none" stroke="#191970" d="M1767.6891,-55.4179C1747.7479,-46.5011 1717.1141,-32.803 1694.4915,-22.6873"/>
<polygon fill="#191970" stroke="#191970" points="1695.8988,-19.4826 1685.3411,-18.5956 1693.0413,-25.8728 1695.8988,-19.4826"/>
</g>
<!-- Node29&#45;&gt;Node1 -->
<g id="edge32" class="edge">
<title>Node29&#45;&gt;Node1</title>
<path fill="none" stroke="#191970" d="M2532.1953,-170.1584C2524.3965,-146.0311 2499.9449,-81.6613 2454,-55 2388.5866,-17.0413 1850.5942,-10.7167 1702.5706,-9.6925"/>
<polygon fill="#191970" stroke="#191970" points="1702.2265,-6.1902 1692.2039,-9.6251 1702.1809,-13.1901 1702.2265,-6.1902"/>
</g>
<!-- Node30&#45;&gt;Node1 -->
<g id="edge34" class="edge">
<title>Node30&#45;&gt;Node1</title>
<path fill="none" stroke="#191970" d="M1923.3209,-55.4795C1861.2332,-44.4282 1757.512,-25.9665 1702.2771,-16.1351"/>
<polygon fill="#191970" stroke="#191970" points="1702.6845,-12.6527 1692.2259,-14.346 1701.4578,-19.5443 1702.6845,-12.6527"/>
</g>
<!-- Node33&#45;&gt;Node3 -->
<g id="edge36" class="edge">
<title>Node33&#45;&gt;Node3</title>
<path fill="none" stroke="#191970" d="M1082.5444,-170.3873C1082.1259,-162.0174 1081.4921,-149.3414 1080.9617,-138.735"/>
<polygon fill="#191970" stroke="#191970" points="1084.455,-138.5112 1080.4599,-128.6985 1077.4638,-138.8608 1084.455,-138.5112"/>
</g>
<!-- Node33&#45;&gt;Node4 -->
<g id="edge38" class="edge">
<title>Node33&#45;&gt;Node4</title>
<path fill="none" stroke="#191970" d="M1141.4411,-188.5338C1152.9436,-190.4549 1164.8689,-192.3878 1176,-194 1284.0204,-209.6451 1409.5607,-223.6009 1485.6701,-231.8086"/>
<polygon fill="#191970" stroke="#191970" points="1485.7573,-235.3381 1496.0744,-232.9282 1486.5063,-228.3783 1485.7573,-235.3381"/>
</g>
<!-- Node33&#45;&gt;Node13 -->
<g id="edge37" class="edge">
<title>Node33&#45;&gt;Node13</title>
<path fill="none" stroke="#191970" d="M1058.3957,-170.3873C1029.9621,-159.8563 983.1225,-142.5083 952.1659,-131.0429"/>
<polygon fill="#191970" stroke="#191970" points="953.3098,-127.7343 942.7167,-127.5432 950.8785,-134.2985 953.3098,-127.7343"/>
</g>
<!-- Node41&#45;&gt;Node1 -->
<g id="edge40" class="edge">
<title>Node41&#45;&gt;Node1</title>
<path fill="none" stroke="#191970" d="M2115.9325,-56.5613C2001.2811,-44.5958 1788.4725,-22.3861 1702.4878,-13.4124"/>
<polygon fill="#191970" stroke="#191970" points="1702.7163,-9.9173 1692.407,-12.3603 1701.9896,-16.8795 1702.7163,-9.9173"/>
</g>
<!-- Node42&#45;&gt;Node1 -->
<g id="edge42" class="edge">
<title>Node42&#45;&gt;Node1</title>
<path fill="none" stroke="#191970" d="M1602.5647,-110.4982C1613.7719,-92.369 1639.2436,-51.1647 1653.9556,-27.3659"/>
<polygon fill="#191970" stroke="#191970" points="1657.0772,-28.9725 1659.3584,-18.6261 1651.123,-25.2917 1657.0772,-28.9725"/>
</g>
<!-- Node43&#45;&gt;Node1 -->
<g id="edge44" class="edge">
<title>Node43&#45;&gt;Node1</title>
<path fill="none" stroke="#191970" d="M868.994,-562.6319C764.3943,-550.9084 561.09,-527.4808 529,-519 286.2331,-454.8415 38,-490.6018 38,-239.5 38,-239.5 38,-239.5 38,-119.5 38,-26.1029 145.9798,-70.978 238,-55 378.2741,-30.6434 1416.1713,-13.357 1627.5044,-10.0686"/>
<polygon fill="#191970" stroke="#191970" points="1627.8245,-13.5642 1637.7691,-9.9098 1627.7161,-6.565 1627.8245,-13.5642"/>
</g>
<!-- Node43&#45;&gt;Node4 -->
<g id="edge45" class="edge">
<title>Node43&#45;&gt;Node4</title>
<path fill="none" stroke="#191970" d="M992.9998,-568.207C1085.075,-565.11 1252.1492,-554.6053 1299,-519 1389.1858,-450.4614 1315.1715,-360.0675 1400,-285 1414.8935,-271.8203 1460.8582,-259.2788 1498.8954,-250.7136"/>
<polygon fill="#191970" stroke="#191970" points="1499.8622,-254.0846 1508.8749,-248.515 1498.3561,-247.2485 1499.8622,-254.0846"/>
</g>
<!-- Node44 -->
<g id="node27" class="node">
<title>Node44</title>
<g id="a_node27"><a xlink:href="SpaceND_8h_source.html" target="_top" xlink:title=" ">
<polygon fill="#ffffff" stroke="#ff0000" points="705.2539,-295.5 705.2539,-313.5 830.7461,-313.5 830.7461,-295.5 705.2539,-295.5"/>
<text text-anchor="middle" x="768" y="-301.5" font-family="FreeSans" font-size="10.00" fill="#000000">DGtal/kernel/SpaceND.h</text>
</a>
</g>
</g>
<!-- Node43&#45;&gt;Node44 -->
<g id="edge46" class="edge">
<title>Node43&#45;&gt;Node44</title>
<path fill="none" stroke="#191970" d="M912.3151,-560.4512C880.7413,-544.0729 817.4032,-506.2973 788,-454 764.548,-412.2877 764.3865,-353.9473 766.2146,-323.9733"/>
<polygon fill="#191970" stroke="#191970" points="769.7318,-323.8776 766.9979,-313.6416 762.7519,-323.3483 769.7318,-323.8776"/>
</g>
<!-- Node65 -->
<g id="node28" class="node">
<title>Node65</title>
<g id="a_node28"><a xlink:href="HyperRectDomain_8h_source.html" target="_top" xlink:title=" ">
<polygon fill="#ffffff" stroke="#ff0000" points="1727.9238,-425.5 1727.9238,-453.5 1840.0762,-453.5 1840.0762,-425.5 1727.9238,-425.5"/>
<text text-anchor="start" x="1735.9238" y="-441.5" font-family="FreeSans" font-size="10.00" fill="#000000">DGtal/kernel/domains</text>
<text text-anchor="middle" x="1784" y="-431.5" font-family="FreeSans" font-size="10.00" fill="#000000">/HyperRectDomain.h</text>
</a>
</g>
</g>
<!-- Node43&#45;&gt;Node65 -->
<g id="edge49" class="edge">
<title>Node43&#45;&gt;Node65</title>
<path fill="none" stroke="#191970" d="M992.9952,-563.697C1077.384,-555.4765 1233.0269,-539.1718 1365,-519 1490.2391,-499.8575 1635.2536,-470.7867 1717.654,-453.6123"/>
<polygon fill="#191970" stroke="#191970" points="1718.5593,-456.9988 1727.6317,-451.527 1717.1272,-450.1468 1718.5593,-456.9988"/>
</g>
<!-- Node86 -->
<g id="node32" class="node">
<title>Node86</title>
<g id="a_node32"><a xlink:href="DigitalSetSelector_8h_source.html" target="_top" xlink:title=" ">
<polygon fill="#ffffff" stroke="#ff0000" points="963.3696,-290.5 963.3696,-318.5 1086.6304,-318.5 1086.6304,-290.5 963.3696,-290.5"/>
<text text-anchor="start" x="971.3696" y="-306.5" font-family="FreeSans" font-size="10.00" fill="#000000">DGtal/kernel/sets/Digital</text>
<text text-anchor="middle" x="1025" y="-296.5" font-family="FreeSans" font-size="10.00" fill="#000000">SetSelector.h</text>
</a>
</g>
</g>
<!-- Node43&#45;&gt;Node86 -->
<g id="edge63" class="edge">
<title>Node43&#45;&gt;Node86</title>
<path fill="none" stroke="#191970" d="M936.6383,-560.2558C942.751,-550.1773 952.7398,-533.542 961,-519 984.4756,-477.6713 977.0186,-457.1786 1012,-425 1041.2933,-398.0538 1072.2357,-422.3244 1094,-389 1109.3786,-365.453 1083.7011,-340.7923 1059.4224,-324.2324"/>
<polygon fill="#191970" stroke="#191970" points="1061.2533,-321.2481 1050.9626,-318.7279 1057.4356,-327.1154 1061.2533,-321.2481"/>
</g>
<!-- Node99 -->
<g id="node33" class="node">
<title>Node99</title>
<g id="a_node33"><a xlink:href="DigitalTopology_8h_source.html" target="_top" xlink:title=" ">
<polygon fill="#ffffff" stroke="#ff0000" points="65.8271,-295.5 65.8271,-313.5 226.1729,-313.5 226.1729,-295.5 65.8271,-295.5"/>
<text text-anchor="middle" x="146" y="-301.5" font-family="FreeSans" font-size="10.00" fill="#000000">DGtal/topology/DigitalTopology.h</text>
</a>
</g>
</g>
<!-- Node43&#45;&gt;Node99 -->
<g id="edge66" class="edge">
<title>Node43&#45;&gt;Node99</title>
<path fill="none" stroke="#191970" d="M868.8184,-564.6224C804.0797,-558.3861 700.2768,-545.1102 614,-519 436.2516,-465.2075 238.7369,-357.4301 170.6375,-318.7377"/>
<polygon fill="#191970" stroke="#191970" points="171.966,-315.4659 161.5468,-313.545 168.494,-321.5442 171.966,-315.4659"/>
</g>
<!-- Node106 -->
<g id="node34" class="node">
<title>Node106</title>
<g id="a_node34"><a xlink:href="MetricAdjacency_8h_source.html" target="_top" xlink:title=" ">
<polygon fill="#ffffff" stroke="#ff0000" points="1021.0562,-430.5 1021.0562,-448.5 1186.9438,-448.5 1186.9438,-430.5 1021.0562,-430.5"/>
<text text-anchor="middle" x="1104" y="-436.5" font-family="FreeSans" font-size="10.00" fill="#000000">DGtal/topology/MetricAdjacency.h</text>
</a>
</g>
</g>
<!-- Node43&#45;&gt;Node106 -->
<g id="edge69" class="edge">
<title>Node43&#45;&gt;Node106</title>
<path fill="none" stroke="#191970" d="M945.5812,-560.4252C961.1016,-550.6251 986.2349,-534.3488 1007,-519 1035.3697,-498.0303 1066.6838,-471.7591 1085.8514,-455.2968"/>
<polygon fill="#191970" stroke="#191970" points="1088.2315,-457.866 1093.5138,-448.6819 1083.6571,-452.5673 1088.2315,-457.866"/>
</g>
<!-- Node109 -->
<g id="node35" class="node">
<title>Node109</title>
<g id="a_node35"><a xlink:href="Object_8h_source.html" target="_top" xlink:title=" ">
<polygon fill="#ffffff" stroke="#ff0000" points="962.9165,-365.5 962.9165,-383.5 1085.0835,-383.5 1085.0835,-365.5 962.9165,-365.5"/>
<text text-anchor="middle" x="1024" y="-371.5" font-family="FreeSans" font-size="10.00" fill="#000000">DGtal/topology/Object.h</text>
</a>
</g>
</g>
<!-- Node43&#45;&gt;Node109 -->
<g id="edge74" class="edge">
<title>Node43&#45;&gt;Node109</title>
<path fill="none" stroke="#191970" d="M932.7261,-560.1658C937.4111,-536.3522 951.872,-471.9121 979,-425 986.3483,-412.2927 997.2493,-399.9548 1006.4817,-390.6551"/>
<polygon fill="#191970" stroke="#191970" points="1008.9941,-393.0941 1013.7298,-383.6166 1004.1174,-388.0723 1008.9941,-393.0941"/>
</g>
<!-- Node118 -->
<g id="node36" class="node">
<title>Node118</title>
<g id="a_node36"><a xlink:href="KhalimskySpaceND_8h_source.html" target="_top" xlink:title=" ">
<polygon fill="#ffffff" stroke="#ff0000" points="796.7539,-425.5 796.7539,-453.5 927.2461,-453.5 927.2461,-425.5 796.7539,-425.5"/>
<text text-anchor="start" x="804.7539" y="-441.5" font-family="FreeSans" font-size="10.00" fill="#000000">DGtal/topology/Khalimsky</text>
<text text-anchor="middle" x="862" y="-431.5" font-family="FreeSans" font-size="10.00" fill="#000000">SpaceND.h</text>
</a>
</g>
</g>
<!-- Node43&#45;&gt;Node118 -->
<g id="edge78" class="edge">
<title>Node43&#45;&gt;Node118</title>
<path fill="none" stroke="#191970" d="M926.0377,-560.1507C915.3215,-539.9608 889.7426,-491.7687 874.3517,-462.7712"/>
<polygon fill="#191970" stroke="#191970" points="877.3387,-460.9334 869.5589,-453.7413 871.1556,-464.2152 877.3387,-460.9334"/>
</g>
<!-- Node119 -->
<g id="node37" class="node">
<title>Node119</title>
<g id="a_node37"><a xlink:href="KhalimskyPreSpaceND_8h_source.html" target="_top" xlink:title=" ">
<polygon fill="#ffffff" stroke="#ff0000" points="610.7539,-360.5 610.7539,-388.5 741.2461,-388.5 741.2461,-360.5 610.7539,-360.5"/>
<text text-anchor="start" x="618.7539" y="-376.5" font-family="FreeSans" font-size="10.00" fill="#000000">DGtal/topology/Khalimsky</text>
<text text-anchor="middle" x="676" y="-366.5" font-family="FreeSans" font-size="10.00" fill="#000000">PreSpaceND.h</text>
</a>
</g>
</g>
<!-- Node43&#45;&gt;Node119 -->
<g id="edge87" class="edge">
<title>Node43&#45;&gt;Node119</title>
<path fill="none" stroke="#191970" d="M884.9507,-560.4932C839.8409,-550.94 775.0409,-535.0397 755,-519 715.692,-487.54 693.0817,-430.9889 682.7964,-398.751"/>
<polygon fill="#191970" stroke="#191970" points="686.0345,-397.3693 679.7746,-388.8216 679.3378,-399.4074 686.0345,-397.3693"/>
</g>
<!-- Node122 -->
<g id="node38" class="node">
<title>Node122</title>
<g id="a_node38"><a xlink:href="GridCurve_8h_source.html" target="_top" xlink:title="Header file for module GridCurve.cpp.">
<polygon fill="#ffffff" stroke="#ff0000" points="1171.8721,-490.5 1171.8721,-518.5 1290.1279,-518.5 1290.1279,-490.5 1171.8721,-490.5"/>
<text text-anchor="start" x="1179.8721" y="-506.5" font-family="FreeSans" font-size="10.00" fill="#000000">DGtal/geometry/curves</text>
<text text-anchor="middle" x="1231" y="-496.5" font-family="FreeSans" font-size="10.00" fill="#000000">/GridCurve.h</text>
</a>
</g>
</g>
<!-- Node43&#45;&gt;Node122 -->
<g id="edge88" class="edge">
<title>Node43&#45;&gt;Node122</title>
<path fill="none" stroke="#191970" d="M972.7137,-560.462C1021.6444,-549.8604 1103.4924,-532.1266 1161.9384,-519.4634"/>
<polygon fill="#191970" stroke="#191970" points="1162.8039,-522.8571 1171.836,-517.3189 1161.3216,-516.0158 1162.8039,-522.8571"/>
</g>
<!-- Node43&#45;&gt;Node152 -->
<g id="edge94" class="edge">
<title>Node43&#45;&gt;Node152</title>
<path fill="none" stroke="#191970" d="M868.8942,-563.3777C816.7714,-556.7663 741.0933,-543.6799 679,-519 554.8947,-469.6725 425.9179,-375.2823 367.7757,-329.9858"/>
<polygon fill="#191970" stroke="#191970" points="369.7495,-327.0858 359.7203,-323.6702 365.4304,-332.5946 369.7495,-327.0858"/>
</g>
<!-- Node157 -->
<g id="node41" class="node">
<title>Node157</title>
<g id="a_node41"><a xlink:href="ExactPredicateLpPowerSeparableMetric_8h_source.html" target="_top" xlink:title=" ">
<polygon fill="#ffffff" stroke="#ff0000" points="483.2368,-285.5 483.2368,-323.5 648.7632,-323.5 648.7632,-285.5 483.2368,-285.5"/>
<text text-anchor="start" x="491.2368" y="-311.5" font-family="FreeSans" font-size="10.00" fill="#000000">DGtal/geometry/volumes</text>
<text text-anchor="start" x="491.2368" y="-301.5" font-family="FreeSans" font-size="10.00" fill="#000000">/distance/ExactPredicateLpPower</text>
<text text-anchor="middle" x="566" y="-291.5" font-family="FreeSans" font-size="10.00" fill="#000000">SeparableMetric.h</text>
</a>
</g>
</g>
<!-- Node43&#45;&gt;Node157 -->
<g id="edge98" class="edge">
<title>Node43&#45;&gt;Node157</title>
<path fill="none" stroke="#191970" d="M868.9707,-563.6205C826.1755,-557.4076 769.246,-544.7306 725,-519 656.2407,-479.014 645.6063,-455.5222 602,-389 590.7064,-371.7714 581.6434,-350.4124 575.4357,-333.4792"/>
<polygon fill="#191970" stroke="#191970" points="578.5726,-331.8504 571.9452,-323.5844 571.9713,-334.1792 578.5726,-331.8504"/>
</g>
<!-- Node44&#45;&gt;Node1 -->
<g id="edge47" class="edge">
<title>Node44&#45;&gt;Node1</title>
<path fill="none" stroke="#191970" d="M718.0826,-295.4329C688.6139,-287.6952 652.5824,-273.7271 629,-249 606.4465,-225.3517 605,-212.1788 605,-179.5 605,-179.5 605,-179.5 605,-119.5 605,-88.9131 604.2712,-73.0011 629,-55 670.141,-25.0518 1446.8804,-12.5105 1627.6364,-9.9909"/>
<polygon fill="#191970" stroke="#191970" points="1627.7677,-13.4895 1637.7186,-9.8522 1627.6713,-6.4902 1627.7677,-13.4895"/>
</g>
<!-- Node44&#45;&gt;Node4 -->
<g id="edge48" class="edge">
<title>Node44&#45;&gt;Node4</title>
<path fill="none" stroke="#191970" d="M814.8457,-295.4613C835.6497,-291.7308 860.4768,-287.6653 883,-285 1102.1818,-259.0633 1363.4649,-246.6386 1485.617,-241.9005"/>
<polygon fill="#191970" stroke="#191970" points="1486.0797,-245.3855 1495.9386,-241.5057 1485.8121,-238.3906 1486.0797,-245.3855"/>
</g>
<!-- Node65&#45;&gt;Node1 -->
<g id="edge50" class="edge">
<title>Node65&#45;&gt;Node1</title>
<path fill="none" stroke="#191970" d="M1840.2871,-436.3808C1916.0454,-431.1242 2045.5416,-418.0809 2082,-389 2121.1018,-357.8106 2085.7336,-315.9819 2125,-285 2205.1933,-221.7259 2265.0334,-302.5852 2352,-249 2384.3961,-229.0389 2402,-217.5519 2402,-179.5 2402,-179.5 2402,-179.5 2402,-119.5 2402,-79.116 2374.7346,-71.776 2338,-55 2280.1137,-28.5644 1835.3409,-14.2181 1702.4059,-10.4899"/>
<polygon fill="#191970" stroke="#191970" points="1702.3988,-6.9885 1692.3058,-10.2103 1702.2051,-13.9858 1702.3988,-6.9885"/>
</g>
<!-- Node65&#45;&gt;Node4 -->
<g id="edge51" class="edge">
<title>Node65&#45;&gt;Node4</title>
<path fill="none" stroke="#191970" d="M1781.6458,-425.1684C1775.8749,-394.6853 1758.1391,-323.0966 1714,-285 1698.6364,-271.7396 1651.755,-259.2495 1612.8501,-250.7227"/>
<polygon fill="#191970" stroke="#191970" points="1613.1511,-247.2078 1602.6396,-248.534 1611.6839,-254.0523 1613.1511,-247.2078"/>
</g>
<!-- Node65&#45;&gt;Node68 -->
<g id="edge52" class="edge">
<title>Node65&#45;&gt;Node68</title>
<path fill="none" stroke="#191970" d="M1827.397,-425.396C1862.9488,-413.8416 1912.7327,-397.6619 1946.5577,-386.6687"/>
<polygon fill="#191970" stroke="#191970" points="1947.6505,-389.9939 1956.0791,-383.5743 1945.4869,-383.3366 1947.6505,-389.9939"/>
</g>
<!-- Node83 -->
<g id="node31" class="node">
<title>Node83</title>
<g id="a_node31"><a xlink:href="CDomain_8h_source.html" target="_top" xlink:title=" ">
<polygon fill="#ffffff" stroke="#ff0000" points="2832.9238,-290.5 2832.9238,-318.5 2945.0762,-318.5 2945.0762,-290.5 2832.9238,-290.5"/>
<text text-anchor="start" x="2840.9238" y="-306.5" font-family="FreeSans" font-size="10.00" fill="#000000">DGtal/kernel/domains</text>
<text text-anchor="middle" x="2889" y="-296.5" font-family="FreeSans" font-size="10.00" fill="#000000">/CDomain.h</text>
</a>
</g>
</g>
<!-- Node65&#45;&gt;Node83 -->
<g id="edge58" class="edge">
<title>Node65&#45;&gt;Node83</title>
<path fill="none" stroke="#191970" d="M1840.0764,-436.8433C1996.9505,-428.6472 2453.0777,-399.5877 2824,-324 2828.091,-323.1663 2832.295,-322.1898 2836.5022,-321.1259"/>
<polygon fill="#191970" stroke="#191970" points="2837.518,-324.4773 2846.2733,-318.5112 2835.7085,-317.7152 2837.518,-324.4773"/>
</g>
<!-- Node68&#45;&gt;Node1 -->
<g id="edge53" class="edge">
<title>Node68&#45;&gt;Node1</title>
<path fill="none" stroke="#191970" d="M1992.1633,-365.2829C2008.4849,-347.3785 2047.0221,-307.6692 2087,-285 2201.5965,-220.0188 2364,-311.238 2364,-179.5 2364,-179.5 2364,-179.5 2364,-119.5 2364,-80.9478 2340.6361,-71.9297 2306,-55 2251.7704,-28.4933 1831.1331,-14.2858 1702.3476,-10.5259"/>
<polygon fill="#191970" stroke="#191970" points="1702.2894,-7.0229 1692.1928,-10.2335 1702.0879,-14.02 1702.2894,-7.0229"/>
</g>
<!-- Node68&#45;&gt;Node4 -->
<g id="edge54" class="edge">
<title>Node68&#45;&gt;Node4</title>
<path fill="none" stroke="#191970" d="M1976.6429,-365.2245C1961.1871,-346.4776 1923.2622,-304.2305 1881,-285 1836.5438,-264.7711 1706.1055,-251.2703 1624.3322,-244.5318"/>
<polygon fill="#191970" stroke="#191970" points="1624.3675,-241.0233 1614.1175,-243.7043 1623.8022,-248.0004 1624.3675,-241.0233"/>
</g>
<!-- Node80 -->
<g id="node30" class="node">
<title>Node80</title>
<g id="a_node30"><a xlink:href="CPointFunctor_8h_source.html" target="_top" xlink:title=" ">
<polygon fill="#ffffff" stroke="#ff0000" points="2494.9683,-295.5 2494.9683,-313.5 2641.0317,-313.5 2641.0317,-295.5 2494.9683,-295.5"/>
<text text-anchor="middle" x="2568" y="-301.5" font-family="FreeSans" font-size="10.00" fill="#000000">DGtal/kernel/CPointFunctor.h</text>
</a>
</g>
</g>
<!-- Node68&#45;&gt;Node80 -->
<g id="edge55" class="edge">
<title>Node68&#45;&gt;Node80</title>
<path fill="none" stroke="#191970" d="M2072.8903,-369.1496C2173.5988,-362.2568 2342.3998,-348.1866 2486,-324 2498.5134,-321.8924 2511.9584,-318.975 2524.2681,-316.0384"/>
<polygon fill="#191970" stroke="#191970" points="2525.4143,-319.3613 2534.2957,-313.5845 2523.7504,-312.5619 2525.4143,-319.3613"/>
</g>
<!-- Node80&#45;&gt;Node1 -->
<g id="edge56" class="edge">
<title>Node80&#45;&gt;Node1</title>
<path fill="none" stroke="#191970" d="M2594.2406,-295.3492C2651.3848,-274.618 2782,-222.5265 2782,-179.5 2782,-179.5 2782,-179.5 2782,-119.5 2782,-71.0082 2739.7426,-71.0957 2694,-55 2599.1001,-21.6069 1875.896,-11.763 1702.3497,-9.8703"/>
<polygon fill="#191970" stroke="#191970" points="1702.2195,-6.3688 1692.1827,-9.7617 1702.1447,-13.3684 1702.2195,-6.3688"/>
</g>
<!-- Node80&#45;&gt;Node4 -->
<g id="edge57" class="edge">
<title>Node80&#45;&gt;Node4</title>
<path fill="none" stroke="#191970" d="M2535.938,-295.4243C2520.9002,-291.5429 2502.6607,-287.3674 2486,-285 2319.6175,-261.3578 1810.3903,-246.1284 1624.1532,-241.2231"/>
<polygon fill="#191970" stroke="#191970" points="1624.0295,-237.7188 1613.9413,-240.956 1623.8464,-244.7164 1624.0295,-237.7188"/>
</g>
<!-- Node83&#45;&gt;Node1 -->
<g id="edge59" class="edge">
<title>Node83&#45;&gt;Node1</title>
<path fill="none" stroke="#191970" d="M2883.5453,-290.4989C2875.1447,-267.6398 2860,-220.7139 2860,-179.5 2860,-179.5 2860,-179.5 2860,-119.5 2860,-73.4807 2822.1234,-71.067 2779,-55 2676.4081,-16.776 1885.0759,-10.5767 1702.4969,-9.652"/>
<polygon fill="#191970" stroke="#191970" points="1702.3376,-6.1513 1692.3207,-9.6028 1702.3037,-13.1512 1702.3376,-6.1513"/>
</g>
<!-- Node83&#45;&gt;Node4 -->
<g id="edge61" class="edge">
<title>Node83&#45;&gt;Node4</title>
<path fill="none" stroke="#191970" d="M2847.7615,-290.4108C2839.9521,-288.2346 2831.7882,-286.286 2824,-285 2705.7292,-265.4705 1872.4095,-246.2822 1624.4434,-240.9526"/>
<polygon fill="#191970" stroke="#191970" points="1624.1972,-237.4466 1614.1245,-240.7315 1624.0472,-244.445 1624.1972,-237.4466"/>
</g>
<!-- Node83&#45;&gt;Node7 -->
<g id="edge60" class="edge">
<title>Node83&#45;&gt;Node7</title>
<path fill="none" stroke="#191970" d="M2900.7007,-290.1609C2919.6117,-266.9857 2956.8145,-221.394 2977.0653,-196.5769"/>
<polygon fill="#191970" stroke="#191970" points="2979.8529,-198.6966 2983.4635,-188.736 2974.4294,-194.271 2979.8529,-198.6966"/>
</g>
<!-- Node83&#45;&gt;Node29 -->
<g id="edge62" class="edge">
<title>Node83&#45;&gt;Node29</title>
<path fill="none" stroke="#191970" d="M2849.0798,-290.4039C2779.4234,-265.8077 2636.7863,-215.4415 2570.4207,-192.0073"/>
<polygon fill="#191970" stroke="#191970" points="2571.4181,-188.6478 2560.8233,-188.6184 2569.0873,-195.2483 2571.4181,-188.6478"/>
</g>
<!-- Node86&#45;&gt;Node1 -->
<g id="edge64" class="edge">
<title>Node86&#45;&gt;Node1</title>
<path fill="none" stroke="#191970" d="M970.2429,-290.4746C928.5035,-279.0437 875.1963,-262.6226 857,-249 786.6657,-196.3446 758.5644,-118.7734 819,-55 847.1563,-25.2887 1466.1854,-12.8427 1627.0681,-10.1031"/>
<polygon fill="#191970" stroke="#191970" points="1627.4797,-13.5968 1637.4196,-9.9296 1627.3623,-6.5978 1627.4797,-13.5968"/>
</g>
<!-- Node86&#45;&gt;Node4 -->
<g id="edge65" class="edge">
<title>Node86&#45;&gt;Node4</title>
<path fill="none" stroke="#191970" d="M1075.4592,-290.4181C1083.9386,-288.379 1092.6842,-286.4748 1101,-285 1236.185,-261.0251 1396.422,-248.6578 1485.8239,-243.1701"/>
<polygon fill="#191970" stroke="#191970" points="1486.0682,-246.6618 1495.8393,-242.566 1485.6467,-239.6745 1486.0682,-246.6618"/>
</g>
<!-- Node99&#45;&gt;Node1 -->
<g id="edge67" class="edge">
<title>Node99&#45;&gt;Node1</title>
<path fill="none" stroke="#191970" d="M156.5675,-295.3227C177.4502,-276.1069 222,-229.2795 222,-179.5 222,-179.5 222,-179.5 222,-119.5 222,-36.6075 315.6704,-71.0207 397,-55 520.2881,-30.714 1431.1535,-13.5738 1627.6908,-10.1349"/>
<polygon fill="#191970" stroke="#191970" points="1627.8665,-13.6325 1637.8041,-9.9591 1627.7448,-6.6336 1627.8665,-13.6325"/>
</g>
<!-- Node99&#45;&gt;Node4 -->
<g id="edge68" class="edge">
<title>Node99&#45;&gt;Node4</title>
<path fill="none" stroke="#191970" d="M180.7978,-295.4397C197.3924,-291.5111 217.5967,-287.2924 236,-285 481.3254,-254.4414 1250.2698,-243.071 1485.7627,-240.2532"/>
<polygon fill="#191970" stroke="#191970" points="1485.9503,-243.7513 1495.9082,-240.1331 1485.8675,-236.7518 1485.9503,-243.7513"/>
</g>
<!-- Node106&#45;&gt;Node1 -->
<g id="edge70" class="edge">
<title>Node106&#45;&gt;Node1</title>
<path fill="none" stroke="#191970" d="M1107.2199,-430.1515C1115.8602,-403.1528 1136.2836,-324.4791 1096,-285 1031.1827,-221.4771 971.3227,-298.1049 895,-249 821.1112,-201.461 796.6448,-118.8495 857,-55 883.8006,-26.6478 1472.514,-13.2396 1627.7519,-10.1892"/>
<polygon fill="#191970" stroke="#191970" points="1627.8237,-13.6886 1637.754,-9.9953 1627.688,-6.6899 1627.8237,-13.6886"/>
</g>
<!-- Node106&#45;&gt;Node4 -->
<g id="edge71" class="edge">
<title>Node106&#45;&gt;Node4</title>
<path fill="none" stroke="#191970" d="M1115.6737,-430.2692C1128.3677,-420.2022 1149.2232,-403.5766 1167,-389 1222.6207,-343.3922 1225.7485,-315.265 1291,-285 1324.8108,-269.3179 1419.7626,-255.4378 1486.0467,-247.25"/>
<polygon fill="#191970" stroke="#191970" points="1486.5131,-250.7192 1496.016,-246.0346 1485.6658,-243.7706 1486.5131,-250.7192"/>
</g>
<!-- Node106&#45;&gt;Node44 -->
<g id="edge72" class="edge">
<title>Node106&#45;&gt;Node44</title>
<path fill="none" stroke="#191970" d="M1074.0794,-430.414C1043.5711,-420.9199 995.0278,-405.1774 954,-389 896.6962,-366.4049 831.5393,-335.5773 795.5576,-318.0862"/>
<polygon fill="#191970" stroke="#191970" points="796.7352,-314.7663 786.2134,-313.5244 793.6642,-321.0567 796.7352,-314.7663"/>
</g>
<!-- Node106&#45;&gt;Node68 -->
<g id="edge73" class="edge">
<title>Node106&#45;&gt;Node68</title>
<path fill="none" stroke="#191970" d="M1187.1846,-433.3557C1350.0694,-421.3244 1710.3877,-394.71 1885.1304,-381.8029"/>
<polygon fill="#191970" stroke="#191970" points="1885.6343,-385.2753 1895.3493,-381.0481 1885.1186,-378.2943 1885.6343,-385.2753"/>
</g>
<!-- Node109&#45;&gt;Node1 -->
<g id="edge75" class="edge">
<title>Node109&#45;&gt;Node1</title>
<path fill="none" stroke="#191970" d="M1009.0921,-365.4451C982.1047,-349.1023 923.2836,-313.7067 873,-285 788.4423,-236.7264 681,-276.8671 681,-179.5 681,-179.5 681,-179.5 681,-119.5 681,-58.9507 742.6915,-71.3198 801,-55 881.2445,-32.5405 1471.5398,-14.8307 1627.3682,-10.5113"/>
<polygon fill="#191970" stroke="#191970" points="1627.5101,-14.0088 1637.41,-10.2349 1627.3175,-7.0115 1627.5101,-14.0088"/>
</g>
<!-- Node109&#45;&gt;Node4 -->
<g id="edge76" class="edge">
<title>Node109&#45;&gt;Node4</title>
<path fill="none" stroke="#191970" d="M1042.8159,-365.4755C1081.3416,-347.3763 1172.3774,-306.5386 1253,-285 1331.4882,-264.0316 1424.2065,-251.864 1486.0048,-245.4736"/>
<polygon fill="#191970" stroke="#191970" points="1486.4335,-248.9482 1496.0304,-244.4596 1485.729,-241.9838 1486.4335,-248.9482"/>
</g>
<!-- Node109&#45;&gt;Node86 -->
<g id="edge77" class="edge">
<title>Node109&#45;&gt;Node86</title>
<path fill="none" stroke="#191970" d="M1024.1307,-365.3487C1024.2618,-356.1766 1024.4692,-341.6532 1024.6486,-329.0956"/>
<polygon fill="#191970" stroke="#191970" points="1028.1531,-328.7989 1024.7964,-318.7499 1021.1538,-328.6989 1028.1531,-328.7989"/>
</g>
<!-- Node118&#45;&gt;Node1 -->
<g id="edge79" class="edge">
<title>Node118&#45;&gt;Node1</title>
<path fill="none" stroke="#191970" d="M864.6501,-425.4421C869.4216,-395.4908 875.8864,-324.8743 840,-285 796.1573,-236.2852 751.8767,-284.831 697,-249 664.2468,-227.6142 643,-218.6168 643,-179.5 643,-179.5 643,-179.5 643,-119.5 643,-78.8018 670.7486,-71.3913 708,-55 793.1954,-17.5124 1461.0354,-10.7951 1627.509,-9.699"/>
<polygon fill="#191970" stroke="#191970" points="1627.7601,-13.1976 1637.7378,-9.6346 1627.716,-6.1977 1627.7601,-13.1976"/>
</g>
<!-- Node118&#45;&gt;Node2 -->
<g id="edge80" class="edge">
<title>Node118&#45;&gt;Node2</title>
<path fill="none" stroke="#191970" d="M927.3761,-433.1194C1068.7254,-419.3241 1398.1211,-387.1759 1498.4642,-377.3826"/>
<polygon fill="#191970" stroke="#191970" points="1498.8877,-380.858 1508.5004,-376.4031 1498.2077,-373.8911 1498.8877,-380.858"/>
</g>
<!-- Node118&#45;&gt;Node4 -->
<g id="edge81" class="edge">
<title>Node118&#45;&gt;Node4</title>
<path fill="none" stroke="#191970" d="M865.6616,-425.2755C874.6266,-393.6849 900.9233,-317.8814 954,-285 998.2754,-257.5711 1337.1981,-245.2856 1485.6811,-241.1792"/>
<polygon fill="#191970" stroke="#191970" points="1486.135,-244.6682 1496.0361,-240.8975 1485.9446,-237.6708 1486.135,-244.6682"/>
</g>
<!-- Node118&#45;&gt;Node44 -->
<g id="edge82" class="edge">
<title>Node118&#45;&gt;Node44</title>
<path fill="none" stroke="#191970" d="M852.118,-425.3078C834.8302,-400.4795 799.1471,-349.2325 780.2934,-322.1554"/>
<polygon fill="#191970" stroke="#191970" points="782.9708,-319.8754 774.3842,-313.6688 777.2262,-323.8754 782.9708,-319.8754"/>
</g>
<!-- Node118&#45;&gt;Node119 -->
<g id="edge83" class="edge">
<title>Node118&#45;&gt;Node119</title>
<path fill="none" stroke="#191970" d="M821.6408,-425.396C793.4891,-415.558 755.7418,-402.3668 725.7306,-391.879"/>
<polygon fill="#191970" stroke="#191970" points="726.8753,-388.5715 716.2805,-388.5765 724.566,-395.1796 726.8753,-388.5715"/>
</g>
<!-- Node119&#45;&gt;Node1 -->
<g id="edge84" class="edge">
<title>Node119&#45;&gt;Node1</title>
<path fill="none" stroke="#191970" d="M610.525,-365.6727C559.0369,-357.4014 492.9412,-343.3976 474,-324 447.1071,-296.4591 455,-277.9932 455,-239.5 455,-239.5 455,-239.5 455,-119.5 455,-57.3791 518.9791,-71.0157 579,-55 681.9071,-27.5408 1447.9179,-13.127 1627.4343,-10.1051"/>
<polygon fill="#191970" stroke="#191970" points="1627.7509,-13.6004 1637.6911,-9.9342 1627.6342,-6.6014 1627.7509,-13.6004"/>
</g>
<!-- Node119&#45;&gt;Node4 -->
<g id="edge85" class="edge">
<title>Node119&#45;&gt;Node4</title>
<path fill="none" stroke="#191970" d="M674.4554,-360.4121C673.1189,-340.2346 674.1164,-303.5047 696,-285 726.0009,-259.6314 1287.2706,-245.222 1485.9859,-240.8986"/>
<polygon fill="#191970" stroke="#191970" points="1486.0954,-244.3972 1496.0176,-240.6823 1485.9444,-237.3988 1486.0954,-244.3972"/>
</g>
<!-- Node119&#45;&gt;Node44 -->
<g id="edge86" class="edge">
<title>Node119&#45;&gt;Node44</title>
<path fill="none" stroke="#191970" d="M694.6176,-360.3345C710.123,-348.5368 732.1546,-331.7736 748.0257,-319.6978"/>
<polygon fill="#191970" stroke="#191970" points="750.2897,-322.3732 756.1287,-313.5325 746.051,-316.8024 750.2897,-322.3732"/>
</g>
<!-- Node122&#45;&gt;Node1 -->
<g id="edge89" class="edge">
<title>Node122&#45;&gt;Node1</title>
<path fill="none" stroke="#191970" d="M1228.4955,-490.3578C1220.6697,-450.6807 1192.7688,-337.779 1121,-285 1052.4639,-234.5983 997.6297,-304.322 933,-249 883.8736,-206.9486 847.3236,-158.5845 890,-110 939.3542,-53.8132 1478.5649,-19.8615 1627.2357,-11.5222"/>
<polygon fill="#191970" stroke="#191970" points="1627.859,-14.993 1637.6497,-10.9442 1627.4711,-8.0038 1627.859,-14.993"/>
</g>
<!-- Node122&#45;&gt;Node4 -->
<g id="edge91" class="edge">
<title>Node122&#45;&gt;Node4</title>
<path fill="none" stroke="#191970" d="M1241.7301,-490.1413C1249.0688,-480.1562 1258.8969,-466.4545 1267,-454 1314.5958,-380.8452 1296.8393,-336.9083 1367,-285 1385.9886,-270.9513 1440.8792,-258.6029 1486.4797,-250.3284"/>
<polygon fill="#191970" stroke="#191970" points="1487.1167,-253.7702 1496.3497,-248.5737 1485.8914,-246.8782 1487.1167,-253.7702"/>
</g>
<!-- Node122&#45;&gt;Node33 -->
<g id="edge92" class="edge">
<title>Node122&#45;&gt;Node33</title>
<path fill="none" stroke="#191970" d="M1232.8885,-490.2627C1237.045,-453.5372 1243.7575,-353.6771 1205,-285 1181.902,-244.071 1136.6521,-211.4625 1108.2243,-193.8567"/>
<polygon fill="#191970" stroke="#191970" points="1110.0057,-190.8439 1099.635,-188.6762 1106.3904,-196.838 1110.0057,-190.8439"/>
</g>
<!-- Node122&#45;&gt;Node118 -->
<g id="edge93" class="edge">
<title>Node122&#45;&gt;Node118</title>
<path fill="none" stroke="#191970" d="M1171.7138,-494.0566C1108.0239,-482.8375 1006.6419,-464.9789 937.3423,-452.7717"/>
<polygon fill="#191970" stroke="#191970" points="937.8145,-449.301 927.3589,-451.0131 936.6001,-456.1949 937.8145,-449.301"/>
</g>
<!-- Node58 -->
<g id="node39" class="node">
<title>Node58</title>
<g id="a_node39"><a xlink:title=" ">
<polygon fill="#ffffff" stroke="#bfbfbf" points="1590.3843,-430.5 1590.3843,-448.5 1633.6157,-448.5 1633.6157,-430.5 1590.3843,-430.5"/>
<text text-anchor="middle" x="1612" y="-436.5" font-family="FreeSans" font-size="10.00" fill="#000000">vector</text>
</a>
</g>
</g>
<!-- Node122&#45;&gt;Node58 -->
<g id="edge90" class="edge">
<title>Node122&#45;&gt;Node58</title>
<path fill="none" stroke="#191970" d="M1290.5313,-494.3438C1372.2408,-480.4038 1516.2562,-455.8342 1580.0478,-444.9512"/>
<polygon fill="#191970" stroke="#191970" points="1581.017,-448.3365 1590.2859,-443.2045 1579.8397,-441.4362 1581.017,-448.3365"/>
</g>
<!-- Node152&#45;&gt;Node1 -->
<g id="edge95" class="edge">
<title>Node152&#45;&gt;Node1</title>
<path fill="none" stroke="#191970" d="M346.301,-285.1958C358.1527,-261.1467 376,-218.4631 376,-179.5 376,-179.5 376,-179.5 376,-119.5 376,-78.8018 403.6642,-71.1983 441,-55 496.7002,-30.8342 1427.4931,-13.5685 1627.3868,-10.129"/>
<polygon fill="#191970" stroke="#191970" points="1627.7293,-13.6237 1637.668,-9.9532 1627.6096,-6.6247 1627.7293,-13.6237"/>
</g>
<!-- Node152&#45;&gt;Node4 -->
<g id="edge97" class="edge">
<title>Node152&#45;&gt;Node4</title>
<path fill="none" stroke="#191970" d="M427.5279,-290.2805C443.0083,-288.2448 458.9402,-286.3776 474,-285 855.0639,-250.1425 1314.1787,-241.9493 1485.8256,-240.0565"/>
<polygon fill="#191970" stroke="#191970" points="1486.0199,-243.5548 1495.982,-239.9483 1485.9453,-236.5552 1486.0199,-243.5548"/>
</g>
<!-- Node152&#45;&gt;Node13 -->
<g id="edge96" class="edge">
<title>Node152&#45;&gt;Node13</title>
<path fill="none" stroke="#191970" d="M396.1287,-285.4849C519.2205,-246.5585 796.1776,-158.9737 889.5686,-129.4398"/>
<polygon fill="#191970" stroke="#191970" points="890.8006,-132.7212 899.2799,-126.3688 888.6899,-126.0469 890.8006,-132.7212"/>
</g>
<!-- Node157&#45;&gt;Node1 -->
<g id="edge99" class="edge">
<title>Node157&#45;&gt;Node1</title>
<path fill="none" stroke="#191970" d="M566,-285.4406C566,-260.9296 566,-217.0434 566,-179.5 566,-179.5 566,-179.5 566,-119.5 566,-85.2915 578.2845,-71.9474 608,-55 653.1464,-29.252 1444.9018,-13.4632 1627.6023,-10.1529"/>
<polygon fill="#191970" stroke="#191970" points="1627.8494,-13.6491 1637.7849,-9.9699 1627.7236,-6.6502 1627.8494,-13.6491"/>
</g>
<!-- Node157&#45;&gt;Node4 -->
<g id="edge101" class="edge">
<title>Node157&#45;&gt;Node4</title>
<path fill="none" stroke="#191970" d="M648.9436,-286.9895C653.688,-286.2487 658.3982,-285.5767 663,-285 821.947,-265.0798 1305.3644,-247.6761 1485.9648,-241.7026"/>
<polygon fill="#191970" stroke="#191970" points="1486.2563,-245.195 1496.1357,-241.3677 1486.0259,-238.1988 1486.2563,-245.195"/>
</g>
<!-- Node157&#45;&gt;Node13 -->
<g id="edge100" class="edge">
<title>Node157&#45;&gt;Node13</title>
<path fill="none" stroke="#191970" d="M638.0546,-285.427C668.1709,-276.2221 703.0529,-263.9127 733,-249 799.7629,-215.7542 869.9598,-161.4092 902.4661,-134.9494"/>
<polygon fill="#191970" stroke="#191970" points="904.7411,-137.61 910.2482,-128.5589 900.2988,-132.2003 904.7411,-137.61"/>
</g>
<!-- Node159&#45;&gt;Node7 -->
<g id="edge103" class="edge">
<title>Node159&#45;&gt;Node7</title>
<path fill="none" stroke="#191970" d="M3024.8306,-430.4438C3070.1121,-422.033 3127.7432,-407.9527 3142,-389 3196.3954,-316.6881 3071.1707,-228.1822 3015.7335,-193.9607"/>
<polygon fill="#191970" stroke="#191970" points="3017.2266,-190.7729 3006.8612,-188.5801 3013.5968,-196.7583 3017.2266,-190.7729"/>
</g>
<!-- Node159&#45;&gt;Node9 -->
<g id="edge104" class="edge">
<title>Node159&#45;&gt;Node9</title>
<path fill="none" stroke="#191970" d="M3036.9505,-430.4763C3086.3999,-422.4946 3146.5347,-408.9806 3162,-389 3206.502,-331.505 3168.0639,-237.0477 3148.6285,-197.6457"/>
<polygon fill="#191970" stroke="#191970" points="3151.712,-195.988 3144.0522,-188.6683 3145.4756,-199.1671 3151.712,-195.988"/>
</g>
<!-- Node159&#45;&gt;Node10 -->
<g id="edge105" class="edge">
<title>Node159&#45;&gt;Node10</title>
<path fill="none" stroke="#191970" d="M3031.9763,-430.4788C3086.7307,-421.7807 3159.7596,-407.2626 3183,-389 3246.7085,-338.9372 3275.3894,-240.311 3285.0283,-198.72"/>
<polygon fill="#191970" stroke="#191970" points="3288.4803,-199.3185 3287.2117,-188.7999 3281.6439,-197.8138 3288.4803,-199.3185"/>
</g>
<!-- Node159&#45;&gt;Node80 -->
<g id="edge106" class="edge">
<title>Node159&#45;&gt;Node80</title>
<path fill="none" stroke="#191970" d="M2940.2009,-430.4326C2870.4954,-406.8481 2683.4473,-343.5611 2604.2365,-316.7605"/>
<polygon fill="#191970" stroke="#191970" points="2605.2767,-313.4176 2594.6824,-313.5279 2603.0332,-320.0483 2605.2767,-313.4176"/>
</g>
<!-- Node159&#45;&gt;Node83 -->
<g id="edge107" class="edge">
<title>Node159&#45;&gt;Node83</title>
<path fill="none" stroke="#191970" d="M2961.6387,-430.2209C2949.5263,-409.257 2919.748,-357.7177 2902.3107,-327.5378"/>
<polygon fill="#191970" stroke="#191970" points="2905.1543,-325.4631 2897.1209,-318.5554 2899.0932,-328.9651 2905.1543,-325.4631"/>
</g>
<!-- Node160 -->
<g id="node43" class="node">
<title>Node160</title>
<g id="a_node43"><a xlink:href="CConstBidirectionalRangeFromPoint_8h_source.html" target="_top" xlink:title=" ">
<polygon fill="#ffffff" stroke="#ff0000" points="2658.6899,-290.5 2658.6899,-318.5 2815.3101,-318.5 2815.3101,-290.5 2658.6899,-290.5"/>
<text text-anchor="start" x="2666.6899" y="-306.5" font-family="FreeSans" font-size="10.00" fill="#000000">DGtal/base/CConstBidirectional</text>
<text text-anchor="middle" x="2737" y="-296.5" font-family="FreeSans" font-size="10.00" fill="#000000">RangeFromPoint.h</text>
</a>
</g>
</g>
<!-- Node159&#45;&gt;Node160 -->
<g id="edge108" class="edge">
<title>Node159&#45;&gt;Node160</title>
<path fill="none" stroke="#191970" d="M2951.5519,-430.4326C2914.5726,-408.7274 2820.3025,-353.395 2769.9219,-323.8237"/>
<polygon fill="#191970" stroke="#191970" points="2771.4451,-320.6594 2761.0492,-318.6158 2767.9016,-326.6963 2771.4451,-320.6594"/>
</g>
<!-- Node54 -->
<g id="node44" class="node">
<title>Node54</title>
<g id="a_node44"><a xlink:href="CLabel_8h_source.html" target="_top" xlink:title=" ">
<polygon fill="#ffffff" stroke="#000000" points="2962.584,-295.5 2962.584,-313.5 3071.416,-313.5 3071.416,-295.5 2962.584,-295.5"/>
<text text-anchor="middle" x="3017" y="-301.5" font-family="FreeSans" font-size="10.00" fill="#000000">DGtal/base/CLabel.h</text>
</a>
</g>
</g>
<!-- Node159&#45;&gt;Node54 -->
<g id="edge111" class="edge">
<title>Node159&#45;&gt;Node54</title>
<path fill="none" stroke="#191970" d="M2968.333,-430.434C2970.7234,-415.4149 2976.4062,-384.5896 2986,-360 2991.1598,-346.7751 2998.9605,-332.8288 3005.4457,-322.2247"/>
<polygon fill="#191970" stroke="#191970" points="3008.5468,-323.8684 3010.9181,-313.5424 3002.625,-320.1359 3008.5468,-323.8684"/>
</g>
<!-- Node161 -->
<g id="node45" class="node">
<title>Node161</title>
<g id="a_node45"><a xlink:href="CTrivialConstImage_8h_source.html" target="_top" xlink:title=" ">
<polygon fill="#ffffff" stroke="#000000" points="2994.501,-360.5 2994.501,-388.5 3133.499,-388.5 3133.499,-360.5 2994.501,-360.5"/>
<text text-anchor="start" x="3002.501" y="-376.5" font-family="FreeSans" font-size="10.00" fill="#000000">DGtal/images/CTrivialConst</text>
<text text-anchor="middle" x="3064" y="-366.5" font-family="FreeSans" font-size="10.00" fill="#000000">Image.h</text>
</a>
</g>
</g>
<!-- Node159&#45;&gt;Node161 -->
<g id="edge114" class="edge">
<title>Node159&#45;&gt;Node161</title>
<path fill="none" stroke="#191970" d="M2980.4874,-430.462C2994.3556,-421.1689 3016.4019,-406.3956 3034.3611,-394.3611"/>
<polygon fill="#191970" stroke="#191970" points="3036.4364,-397.1836 3042.7954,-388.7093 3032.5397,-391.3685 3036.4364,-397.1836"/>
</g>
<!-- Node160&#45;&gt;Node1 -->
<g id="edge109" class="edge">
<title>Node160&#45;&gt;Node1</title>
<path fill="none" stroke="#191970" d="M2754.6022,-290.3885C2778.9661,-269.1388 2820,-226.3896 2820,-179.5 2820,-179.5 2820,-179.5 2820,-119.5 2820,-72.782 2780.8611,-71.0863 2737,-55 2638.3456,-18.8181 1880.785,-11.0702 1702.4915,-9.7414"/>
<polygon fill="#191970" stroke="#191970" points="1702.3255,-6.2402 1692.3005,-9.6678 1702.2749,-13.24 1702.3255,-6.2402"/>
</g>
<!-- Node160&#45;&gt;Node4 -->
<g id="edge110" class="edge">
<title>Node160&#45;&gt;Node4</title>
<path fill="none" stroke="#191970" d="M2681.104,-290.4255C2670.8172,-288.2772 2660.1285,-286.3346 2650,-285 2450.3492,-258.6928 1832.2142,-244.7821 1624.1531,-240.7537"/>
<polygon fill="#191970" stroke="#191970" points="1624.0358,-237.2509 1613.9704,-240.5581 1623.9013,-244.2496 1624.0358,-237.2509"/>
</g>
<!-- Node54&#45;&gt;Node1 -->
<g id="edge112" class="edge">
<title>Node54&#45;&gt;Node1</title>
<path fill="none" stroke="#191970" d="M2997.8806,-295.485C2964.2421,-278.1436 2898,-236.7291 2898,-179.5 2898,-179.5 2898,-179.5 2898,-119.5 2898,-74.1727 2861.3889,-71.0546 2819,-55 2712.6631,-14.7253 1888.6528,-10.1 1702.3527,-9.5689"/>
<polygon fill="#191970" stroke="#191970" points="1702.243,-6.0687 1692.2339,-9.5424 1702.2246,-13.0687 1702.243,-6.0687"/>
</g>
<!-- Node54&#45;&gt;Node4 -->
<g id="edge113" class="edge">
<title>Node54&#45;&gt;Node4</title>
<path fill="none" stroke="#191970" d="M2993.1338,-295.458C2981.5056,-291.4817 2967.211,-287.218 2954,-285 2822.5227,-262.9259 1888.4755,-245.2626 1624.3934,-240.6681"/>
<polygon fill="#191970" stroke="#191970" points="1624.2306,-237.1648 1614.1714,-240.491 1624.1092,-244.1638 1624.2306,-237.1648"/>
</g>
<!-- Node161&#45;&gt;Node7 -->
<g id="edge115" class="edge">
<title>Node161&#45;&gt;Node7</title>
<path fill="none" stroke="#191970" d="M3070.911,-360.4646C3078.7712,-342.5041 3089.3734,-310.6481 3080,-285 3066.2757,-247.4468 3032.6345,-214.0293 3010.8687,-195.3089"/>
<polygon fill="#191970" stroke="#191970" points="3012.8217,-192.3798 3002.9031,-188.6555 3008.3343,-197.7523 3012.8217,-192.3798"/>
</g>
<!-- Node161&#45;&gt;Node9 -->
<g id="edge116" class="edge">
<title>Node161&#45;&gt;Node9</title>
<path fill="none" stroke="#191970" d="M3073.9722,-360.454C3080.6186,-350.6084 3089.1715,-336.9451 3095,-324 3114.3985,-280.9164 3128.2867,-226.9001 3134.8119,-198.6817"/>
<polygon fill="#191970" stroke="#191970" points="3138.3035,-199.1078 3137.0848,-188.5833 3131.4743,-197.5706 3138.3035,-199.1078"/>
</g>
<!-- Node161&#45;&gt;Node10 -->
<g id="edge117" class="edge">
<title>Node161&#45;&gt;Node10</title>
<path fill="none" stroke="#191970" d="M3080.1814,-360.4761C3120.9903,-325.1084 3227.8972,-232.4557 3270.7987,-195.2745"/>
<polygon fill="#191970" stroke="#191970" points="3273.2224,-197.8055 3278.487,-188.6112 3268.6378,-192.5157 3273.2224,-197.8055"/>
</g>
<!-- Node161&#45;&gt;Node80 -->
<g id="edge118" class="edge">
<title>Node161&#45;&gt;Node80</title>
<path fill="none" stroke="#191970" d="M2994.4221,-368.4156C2911.8712,-360.6432 2770.2699,-345.5656 2650,-324 2637.6221,-321.7805 2624.314,-318.8537 2612.095,-315.9446"/>
<polygon fill="#191970" stroke="#191970" points="2612.6755,-312.4838 2602.1316,-313.521 2611.021,-319.2855 2612.6755,-312.4838"/>
</g>
<!-- Node161&#45;&gt;Node83 -->
<g id="edge119" class="edge">
<title>Node161&#45;&gt;Node83</title>
<path fill="none" stroke="#191970" d="M3028.5861,-360.3345C3001.2183,-349.3873 2963.1619,-334.1648 2933.6973,-322.3789"/>
<polygon fill="#191970" stroke="#191970" points="2934.6468,-318.9892 2924.0622,-318.5249 2932.047,-325.4885 2934.6468,-318.9892"/>
</g>
<!-- Node161&#45;&gt;Node54 -->
<g id="edge120" class="edge">
<title>Node161&#45;&gt;Node54</title>
<path fill="none" stroke="#191970" d="M3054.4888,-360.3345C3047.1233,-349.3645 3036.8752,-334.1014 3028.955,-322.3054"/>
<polygon fill="#191970" stroke="#191970" points="3031.682,-320.088 3023.2018,-313.7368 3025.8704,-323.99 3031.682,-320.088"/>
</g>
<!-- Node162&#45;&gt;Node1 -->
<g id="edge122" class="edge">
<title>Node162&#45;&gt;Node1</title>
<path fill="none" stroke="#191970" d="M1763.3243,-492.6892C1863.5594,-472.9884 2052.8632,-431.3837 2106,-389 2147.2066,-356.1323 2120.0068,-315.4935 2163,-285 2270.4543,-208.7866 2440,-311.238 2440,-179.5 2440,-179.5 2440,-179.5 2440,-119.5 2440,-77.8447 2410.1758,-71.6664 2372,-55 2310.4778,-28.1414 1839.7277,-14.0025 1702.4564,-10.4217"/>
<polygon fill="#191970" stroke="#191970" points="1702.5067,-6.9219 1692.4199,-10.1633 1702.3265,-13.9196 1702.5067,-6.9219"/>
</g>
<!-- Node162&#45;&gt;Node2 -->
<g id="edge124" class="edge">
<title>Node162&#45;&gt;Node2</title>
<path fill="none" stroke="#191970" d="M1692.9454,-490.3808C1683.6212,-472.9603 1665.6902,-443.3965 1643,-425 1617.3947,-404.2401 1581.9286,-390.3885 1557.1764,-382.5254"/>
<polygon fill="#191970" stroke="#191970" points="1558.1952,-379.1771 1547.6094,-379.614 1556.1572,-385.8738 1558.1952,-379.1771"/>
</g>
<!-- Node162&#45;&gt;Node4 -->
<g id="edge125" class="edge">
<title>Node162&#45;&gt;Node4</title>
<path fill="none" stroke="#191970" d="M1695.3373,-490.4881C1689.8501,-474.4279 1680.1876,-447.4309 1670,-425 1640.8099,-360.7298 1635.2341,-342.9994 1595,-285 1587.9859,-274.8888 1579.028,-264.516 1571.3682,-256.2326"/>
<polygon fill="#191970" stroke="#191970" points="1573.6801,-253.5839 1564.2611,-248.7329 1568.5991,-258.3989 1573.6801,-253.5839"/>
</g>
<!-- Node162&#45;&gt;Node65 -->
<g id="edge126" class="edge">
<title>Node162&#45;&gt;Node65</title>
<path fill="none" stroke="#191970" d="M1718.2267,-490.396C1729.7846,-481.4524 1744.9239,-469.7375 1757.7639,-459.8018"/>
<polygon fill="#191970" stroke="#191970" points="1760.042,-462.4644 1765.8088,-453.5765 1755.7581,-456.9283 1760.042,-462.4644"/>
</g>
<!-- Node162&#45;&gt;Node58 -->
<g id="edge123" class="edge">
<title>Node162&#45;&gt;Node58</title>
<path fill="none" stroke="#191970" d="M1680.9053,-490.396C1666.6724,-479.883 1647.2553,-465.5408 1632.6602,-454.7603"/>
<polygon fill="#191970" stroke="#191970" points="1634.4084,-451.7004 1624.2852,-448.5743 1630.2494,-457.331 1634.4084,-451.7004"/>
</g>
<!-- Node178&#45;&gt;Node1 -->
<g id="edge129" class="edge">
<title>Node178&#45;&gt;Node1</title>
<path fill="none" stroke="#191970" d="M1553.4095,-301.3664C1758.0656,-291.5529 2326,-257.31 2326,-179.5 2326,-179.5 2326,-179.5 2326,-119.5 2326,-83.4993 2308.6338,-72.1859 2277,-55 2226.6264,-27.6332 1828.3753,-14.122 1702.7947,-10.5123"/>
<polygon fill="#191970" stroke="#191970" points="1702.6196,-7.006 1692.5246,-10.2218 1702.4216,-14.0032 1702.6196,-7.006"/>
</g>
<!-- Node178&#45;&gt;Node4 -->
<g id="edge131" class="edge">
<title>Node178&#45;&gt;Node4</title>
<path fill="none" stroke="#191970" d="M1502.8022,-285.3494C1513.7016,-275.7756 1526.7307,-264.3311 1537.0451,-255.2712"/>
<polygon fill="#191970" stroke="#191970" points="1539.4391,-257.8269 1544.6425,-248.5978 1534.8194,-252.5677 1539.4391,-257.8269"/>
</g>
<!-- Node178&#45;&gt;Node13 -->
<g id="edge130" class="edge">
<title>Node178&#45;&gt;Node13</title>
<path fill="none" stroke="#191970" d="M1408.5356,-297.0182C1282.0299,-282.7048 1027.7006,-247.9865 958,-194 940.299,-180.2897 930.4674,-155.861 925.4658,-138.7251"/>
<polygon fill="#191970" stroke="#191970" points="928.7608,-137.4911 922.8424,-128.7034 921.989,-139.2639 928.7608,-137.4911"/>
</g>
<!-- Node180&#45;&gt;Node1 -->
<g id="edge133" class="edge">
<title>Node180&#45;&gt;Node1</title>
<path fill="none" stroke="#191970" d="M1858.8827,-559.3669C1977.885,-543.0242 2177,-505.7768 2177,-439.5 2177,-439.5 2177,-439.5 2177,-374.5 2177,-333.8358 2166.5192,-313.0082 2196,-285 2232.8692,-249.9724 2372.3767,-260.1267 2422,-249 2511.6956,-228.8882 2649.8337,-248.317 2611,-165 2578.8821,-96.0914 2550.6834,-82.9965 2480,-55 2407.2229,-26.1742 1852.9774,-13.2132 1702.562,-10.2042"/>
<polygon fill="#191970" stroke="#191970" points="1702.5093,-6.7026 1692.4422,-10.0047 1702.3712,-13.7012 1702.5093,-6.7026"/>
</g>
<!-- Node180&#45;&gt;Node4 -->
<g id="edge135" class="edge">
<title>Node180&#45;&gt;Node4</title>
<path fill="none" stroke="#191970" d="M1788.5532,-555.4611C1815.9234,-530.4399 1865.9895,-475.9686 1849,-425 1824.4045,-351.2135 1808.9826,-327.7392 1744,-285 1723.7063,-271.6528 1666.4835,-258.9306 1620.2748,-250.3501"/>
<polygon fill="#191970" stroke="#191970" points="1620.7658,-246.882 1610.2999,-248.5296 1619.5089,-253.7682 1620.7658,-246.882"/>
</g>
<!-- Node180&#45;&gt;Node65 -->
<g id="edge137" class="edge">
<title>Node180&#45;&gt;Node65</title>
<path fill="none" stroke="#191970" d="M1773.3071,-555.3402C1775.3358,-533.3618 1779.2678,-490.7655 1781.7567,-463.8021"/>
<polygon fill="#191970" stroke="#191970" points="1785.2605,-463.9217 1782.6946,-453.6423 1778.2901,-463.2782 1785.2605,-463.9217"/>
</g>
<!-- Node180&#45;&gt;Node58 -->
<g id="edge134" class="edge">
<title>Node180&#45;&gt;Node58</title>
<path fill="none" stroke="#191970" d="M1714.1521,-555.467C1679.4339,-545.8951 1639.7819,-532.5406 1628,-519 1613.5276,-502.3672 1610.7742,-476.3343 1610.8178,-458.626"/>
<polygon fill="#191970" stroke="#191970" points="1614.3167,-458.7115 1611.1408,-448.6039 1607.3204,-458.4859 1614.3167,-458.7115"/>
</g>
<!-- Node180&#45;&gt;Node162 -->
<g id="edge136" class="edge">
<title>Node180&#45;&gt;Node162</title>
<path fill="none" stroke="#191970" d="M1756.3771,-555.396C1746.659,-546.6227 1733.987,-535.1827 1723.1191,-525.3714"/>
<polygon fill="#191970" stroke="#191970" points="1725.3605,-522.6796 1715.5924,-518.5765 1720.6698,-527.8755 1725.3605,-522.6796"/>
</g>
<!-- Node183&#45;&gt;Node1 -->
<g id="edge140" class="edge">
<title>Node183&#45;&gt;Node1</title>
<path fill="none" stroke="#191970" d="M2306.2106,-295.4372C2319.7347,-291.9173 2335.5561,-288.0159 2350,-285 2495.7646,-254.5638 2668,-328.4083 2668,-179.5 2668,-179.5 2668,-179.5 2668,-119.5 2668,-88.9131 2668.7058,-73.0327 2644,-55 2605.3191,-26.767 1877.3453,-12.9999 1702.5148,-10.0927"/>
<polygon fill="#191970" stroke="#191970" points="1702.3284,-6.5892 1692.2722,-9.9243 1702.2133,-13.5883 1702.3284,-6.5892"/>
</g>
<!-- Node183&#45;&gt;Node4 -->
<g id="edge141" class="edge">
<title>Node183&#45;&gt;Node4</title>
<path fill="none" stroke="#191970" d="M2204.805,-298.3264C2068.0333,-285.9445 1761.5861,-258.2021 1624.0833,-245.7541"/>
<polygon fill="#191970" stroke="#191970" points="1624.3578,-242.2647 1614.0829,-244.8487 1623.7266,-249.2362 1624.3578,-242.2647"/>
</g>
<!-- Node321&#45;&gt;Node1 -->
<g id="edge143" class="edge">
<title>Node321&#45;&gt;Node1</title>
<path fill="none" stroke="#191970" d="M2465.0579,-290.4723C2472.0545,-288.5418 2479.1984,-286.6563 2486,-285 2564.8444,-265.7999 2598.8675,-296.0274 2665,-249 2694.227,-228.2164 2706,-215.3633 2706,-179.5 2706,-179.5 2706,-179.5 2706,-119.5 2706,-86.0004 2695.7986,-72.1132 2667,-55 2624.7996,-29.923 1879.3612,-13.7185 1702.4403,-10.215"/>
<polygon fill="#191970" stroke="#191970" points="1702.3871,-6.7134 1692.3202,-10.0163 1702.2495,-13.7121 1702.3871,-6.7134"/>
</g>
<!-- Node321&#45;&gt;Node4 -->
<g id="edge144" class="edge">
<title>Node321&#45;&gt;Node4</title>
<path fill="none" stroke="#191970" d="M2374.4346,-290.4627C2366.3818,-288.3106 2357.9913,-286.3571 2350,-285 2211.3267,-261.4498 1790.8016,-246.5903 1624.1207,-241.4852"/>
<polygon fill="#191970" stroke="#191970" points="1624.0916,-237.9828 1613.9899,-241.1774 1623.879,-244.9796 1624.0916,-237.9828"/>
</g>
</g>
</svg>
        <g id="navigator" transform="translate(0 0)" fill="#404254">
                <rect fill="#f2f5e9" fill-opacity="0.5" stroke="#606060" stroke-width=".5" x="0" y="0" width="60" height="60"/>
                <use id="zoomplus" xlink:href="#zoomPlus" x="17" y="9" onmousedown="handleZoom(evt,'in')"/>
                <use id="zoomminus" xlink:href="#zoomMin" x="42" y="9" onmousedown="handleZoom(evt,'out')"/>
                <use id="reset" xlink:href="#resetDef" x="30" y="36" onmousedown="handleReset()"/>
                <g id="arrowUp" xlink:href="#dirArrow" transform="translate(30 24)" onmousedown="handlePan(0,-1)">
                  <use xlink:href="#rim" fill="#404040">
                        <set attributeName="fill" to="#808080" begin="arrowUp.mouseover" end="arrowUp.mouseout"/>
                  </use>
                  <path fill="none" stroke="white" stroke-width="1.5" d="M0,-3.0v7 M-2.5,-0.5L0,-3.0L2.5,-0.5"/>
                </g>
                <g id="arrowRight" xlink:href="#dirArrow" transform="rotate(90) translate(36 -43)" onmousedown="handlePan(1,0)">
                  <use xlink:href="#rim" fill="#404040">
                        <set attributeName="fill" to="#808080" begin="arrowRight.mouseover" end="arrowRight.mouseout"/>
                  </use>
                  <path fill="none" stroke="white" stroke-width="1.5" d="M0,-3.0v7 M-2.5,-0.5L0,-3.0L2.5,-0.5"/>
                </g>
                <g id="arrowDown" xlink:href="#dirArrow" transform="rotate(180) translate(-30 -48)" onmousedown="handlePan(0,1)">
                  <use xlink:href="#rim" fill="#404040">
                        <set attributeName="fill" to="#808080" begin="arrowDown.mouseover" end="arrowDown.mouseout"/>
                  </use>
                  <path fill="none" stroke="white" stroke-width="1.5" d="M0,-3.0v7 M-2.5,-0.5L0,-3.0L2.5,-0.5"/>
                </g>
                <g id="arrowLeft" xlink:href="#dirArrow" transform="rotate(270) translate(-36 17)" onmousedown="handlePan(-1,0)">
                  <use xlink:href="#rim" fill="#404040">
                        <set attributeName="fill" to="#808080" begin="arrowLeft.mouseover" end="arrowLeft.mouseout"/>
                  </use>
                  <path fill="none" stroke="white" stroke-width="1.5" d="M0,-3.0v7 M-2.5,-0.5L0,-3.0L2.5,-0.5"/>
                </g>
        </g>
        <svg viewBox="0 0 15 15" width="100%" height="30px" preserveAspectRatio="xMaxYMin meet">
         <g id="arrow_out" transform="scale(0.3 0.3)">
          <a xlink:href="testVoronoiMap_8cpp__incl_org.svg" target="_base">
           <rect id="button" ry="5" rx="5" y="6" x="6" height="38" width="38"
                fill="#f2f5e9" fill-opacity="0.5" stroke="#606060" stroke-width="1.0"/>
           <path id="arrow"
             d="M 11.500037,31.436501 C 11.940474,20.09759 22.043105,11.32322 32.158766,21.979434 L 37.068811,17.246167 C 37.068811,17.246167 37.088388,32 37.088388,32 L 22.160133,31.978069 C 22.160133,31.978069 26.997745,27.140456 26.997745,27.140456 C 18.528582,18.264221 13.291696,25.230495 11.500037,31.436501 z"
             style="fill:#404040;"/>
          </a>
         </g>
        </svg>
</svg>
