<?xml version="1.0" encoding="UTF-8" standalone="no"?>
<!DOCTYPE svg PUBLIC "-//W3C//DTD SVG 1.1//EN"
 "http://www.w3.org/Graphics/SVG/1.1/DTD/svg11.dtd">
<!-- Generated by graphviz version 2.40.1 (20161225.0304)
 -->
<!-- Title: testSphericalHoughNormalVectorEstimator.cpp Pages: 1 -->
<svg width="3323pt" height="667pt"
 viewBox="0.00 0.00 3322.86 667.00" xmlns="http://www.w3.org/2000/svg" xmlns:xlink="http://www.w3.org/1999/xlink">
<g id="graph0" class="graph" transform="scale(1 1) rotate(0) translate(4 663)">
<title>testSphericalHoughNormalVectorEstimator.cpp</title>
<polygon fill="#ffffff" stroke="transparent" points="-4,4 -4,-663 3318.8618,-663 3318.8618,4 -4,4"/>
<!-- Node0 -->
<g id="node1" class="node">
<title>Node0</title>
<g id="a_node1"><a xlink:title=" ">
<polygon fill="#bfbfbf" stroke="#000000" points="2083.249,-630.5 2083.249,-658.5 2218.751,-658.5 2218.751,-630.5 2083.249,-630.5"/>
<text text-anchor="start" x="2091.249" y="-646.5" font-family="FreeSans" font-size="10.00" fill="#000000">testSphericalHoughNormal</text>
<text text-anchor="middle" x="2151" y="-636.5" font-family="FreeSans" font-size="10.00" fill="#000000">VectorEstimator.cpp</text>
</a>
</g>
</g>
<!-- Node1 -->
<g id="node2" class="node">
<title>Node1</title>
<g id="a_node2"><a xlink:title=" ">
<polygon fill="#ffffff" stroke="#bfbfbf" points="1013.8276,-.5 1013.8276,-18.5 1068.1724,-18.5 1068.1724,-.5 1013.8276,-.5"/>
<text text-anchor="middle" x="1041" y="-6.5" font-family="FreeSans" font-size="10.00" fill="#000000">iostream</text>
</a>
</g>
</g>
<!-- Node0&#45;&gt;Node1 -->
<g id="edge1" class="edge">
<title>Node0&#45;&gt;Node1</title>
<path fill="none" stroke="#191970" d="M2083.0722,-644.3457C1717.4444,-643.0806 0,-631.4458 0,-524.5 0,-524.5 0,-524.5 0,-119.5 0,-79.116 27.0916,-71.39 64,-55 150.9799,-16.3746 834.9124,-10.5059 1003.5273,-9.6438"/>
<polygon fill="#191970" stroke="#191970" points="1003.6709,-13.1433 1013.6538,-9.595 1003.6371,-6.1434 1003.6709,-13.1433"/>
</g>
<!-- Node2 -->
<g id="node3" class="node">
<title>Node2</title>
<g id="a_node3"><a xlink:href="Common_8h_source.html" target="_top" xlink:title=" ">
<polygon fill="#ffffff" stroke="#000000" points="1610.1455,-235.5 1610.1455,-253.5 1727.8545,-253.5 1727.8545,-235.5 1610.1455,-235.5"/>
<text text-anchor="middle" x="1669" y="-241.5" font-family="FreeSans" font-size="10.00" fill="#000000">DGtal/base/Common.h</text>
</a>
</g>
</g>
<!-- Node0&#45;&gt;Node2 -->
<g id="edge2" class="edge">
<title>Node0&#45;&gt;Node2</title>
<path fill="none" stroke="#191970" d="M2126.5614,-630.3636C2111.9906,-621.1857 2093.7203,-608.2971 2080,-594 2025.2872,-536.9872 2035.3303,-504.2072 1983,-445 1914.4865,-367.4828 1894.3721,-347.1118 1805,-295 1775.933,-278.0514 1740.1667,-265.0395 1712.6088,-256.4712"/>
<polygon fill="#191970" stroke="#191970" points="1713.4402,-253.066 1702.855,-253.5164 1711.4107,-259.7653 1713.4402,-253.066"/>
</g>
<!-- Node32 -->
<g id="node22" class="node">
<title>Node32</title>
<g id="a_node22"><a xlink:href="BasicFunctors_8h_source.html" target="_top" xlink:title=" ">
<polygon fill="#ffffff" stroke="#ff0000" points="2508.7515,-170.5 2508.7515,-188.5 2649.2485,-188.5 2649.2485,-170.5 2508.7515,-170.5"/>
<text text-anchor="middle" x="2579" y="-176.5" font-family="FreeSans" font-size="10.00" fill="#000000">DGtal/base/BasicFunctors.h</text>
</a>
</g>
</g>
<!-- Node0&#45;&gt;Node32 -->
<g id="edge112" class="edge">
<title>Node0&#45;&gt;Node32</title>
<path fill="none" stroke="#191970" d="M2169.1985,-630.3769C2193.3563,-609.8848 2233,-569.4144 2233,-524.5 2233,-524.5 2233,-524.5 2233,-314.5 2233,-254.1871 2417.7688,-209.9311 2517.2622,-190.4724"/>
<polygon fill="#191970" stroke="#191970" points="2518.0441,-193.8862 2527.2003,-188.5557 2516.7184,-187.0129 2518.0441,-193.8862"/>
</g>
<!-- Node42 -->
<g id="node25" class="node">
<title>Node42</title>
<g id="a_node25"><a xlink:title=" ">
<polygon fill="#ffffff" stroke="#bfbfbf" points="1796.207,-575.5 1796.207,-593.5 1867.793,-593.5 1867.793,-575.5 1796.207,-575.5"/>
<text text-anchor="middle" x="1832" y="-581.5" font-family="FreeSans" font-size="10.00" fill="#000000">ConfigTest.h</text>
</a>
</g>
</g>
<!-- Node0&#45;&gt;Node42 -->
<g id="edge41" class="edge">
<title>Node0&#45;&gt;Node42</title>
<path fill="none" stroke="#191970" d="M2083.0646,-632.4818C2029.9474,-622.9694 1953.9787,-609.1122 1878.0668,-594.1727"/>
<polygon fill="#191970" stroke="#191970" points="1878.3329,-590.6577 1867.8443,-592.1541 1876.9768,-597.5251 1878.3329,-590.6577"/>
</g>
<!-- Node43 -->
<g id="node26" class="node">
<title>Node43</title>
<g id="a_node26"><a xlink:title=" ">
<polygon fill="#ffffff" stroke="#bfbfbf" points="1885.9878,-575.5 1885.9878,-593.5 1962.0122,-593.5 1962.0122,-575.5 1885.9878,-575.5"/>
<text text-anchor="middle" x="1924" y="-581.5" font-family="FreeSans" font-size="10.00" fill="#000000">DGtalCatch.h</text>
</a>
</g>
</g>
<!-- Node0&#45;&gt;Node43 -->
<g id="edge42" class="edge">
<title>Node0&#45;&gt;Node43</title>
<path fill="none" stroke="#191970" d="M2097.7786,-630.4327C2058.3703,-620.0164 2005.3039,-605.99 1968.2192,-596.1879"/>
<polygon fill="#191970" stroke="#191970" points="1968.7703,-592.7134 1958.2079,-593.5417 1966.9814,-599.481 1968.7703,-592.7134"/>
</g>
<!-- Node44 -->
<g id="node27" class="node">
<title>Node44</title>
<g id="a_node27"><a xlink:href="StdDefs_8h_source.html" target="_top" xlink:title=" ">
<polygon fill="#ffffff" stroke="#000000" points="819.0864,-575.5 819.0864,-593.5 942.9136,-593.5 942.9136,-575.5 819.0864,-575.5"/>
<text text-anchor="middle" x="881" y="-581.5" font-family="FreeSans" font-size="10.00" fill="#000000">DGtal/helpers/StdDefs.h</text>
</a>
</g>
</g>
<!-- Node0&#45;&gt;Node44 -->
<g id="edge43" class="edge">
<title>Node0&#45;&gt;Node44</title>
<path fill="none" stroke="#191970" d="M2083.1683,-641.2954C1864.3491,-630.9574 1178.32,-598.5466 953.288,-587.9152"/>
<polygon fill="#191970" stroke="#191970" points="953.3964,-584.4165 943.2423,-587.4406 953.066,-591.4087 953.3964,-584.4165"/>
</g>
<!-- Node151 -->
<g id="node38" class="node">
<title>Node151</title>
<g id="a_node38"><a xlink:href="CanonicSCellEmbedder_8h_source.html" target="_top" xlink:title=" ">
<polygon fill="#ffffff" stroke="#ff0000" points="2443.2441,-300.5 2443.2441,-328.5 2588.7559,-328.5 2588.7559,-300.5 2443.2441,-300.5"/>
<text text-anchor="start" x="2451.2441" y="-316.5" font-family="FreeSans" font-size="10.00" fill="#000000">DGtal/topology/CanonicSCell</text>
<text text-anchor="middle" x="2516" y="-306.5" font-family="FreeSans" font-size="10.00" fill="#000000">Embedder.h</text>
</a>
</g>
</g>
<!-- Node0&#45;&gt;Node151 -->
<g id="edge111" class="edge">
<title>Node0&#45;&gt;Node151</title>
<path fill="none" stroke="#191970" d="M2212.0421,-630.4912C2292.2368,-610.2823 2423,-570.3071 2423,-524.5 2423,-524.5 2423,-524.5 2423,-459.5 2423,-408.8716 2463.6687,-361.7946 2491.2189,-335.7117"/>
<polygon fill="#191970" stroke="#191970" points="2493.9449,-337.9603 2498.9424,-328.6181 2489.2098,-332.8048 2493.9449,-337.9603"/>
</g>
<!-- Node161 -->
<g id="node41" class="node">
<title>Node161</title>
<g id="a_node41"><a xlink:href="ImplicitHyperCube_8h_source.html" target="_top" xlink:title=" ">
<polygon fill="#ffffff" stroke="#000000" points="3011.0396,-300.5 3011.0396,-328.5 3120.9604,-328.5 3120.9604,-300.5 3011.0396,-300.5"/>
<text text-anchor="start" x="3019.0396" y="-316.5" font-family="FreeSans" font-size="10.00" fill="#000000">DGtal/shapes/implicit</text>
<text text-anchor="middle" x="3066" y="-306.5" font-family="FreeSans" font-size="10.00" fill="#000000">/ImplicitHyperCube.h</text>
</a>
</g>
</g>
<!-- Node0&#45;&gt;Node161 -->
<g id="edge93" class="edge">
<title>Node0&#45;&gt;Node161</title>
<path fill="none" stroke="#191970" d="M2218.9482,-641.9052C2418.6852,-633.3816 2990,-602.2094 2990,-524.5 2990,-524.5 2990,-524.5 2990,-459.5 2990,-411.3338 3023.3053,-363.3955 3045.8205,-336.4911"/>
<polygon fill="#191970" stroke="#191970" points="3048.537,-338.7003 3052.4127,-328.8397 3043.2338,-334.1311 3048.537,-338.7003"/>
</g>
<!-- Node163 -->
<g id="node43" class="node">
<title>Node163</title>
<g id="a_node43"><a xlink:href="ImplicitBall_8h_source.html" target="_top" xlink:title=" ">
<polygon fill="#ffffff" stroke="#ff0000" points="1713.0396,-375.5 1713.0396,-403.5 1822.9604,-403.5 1822.9604,-375.5 1713.0396,-375.5"/>
<text text-anchor="start" x="1721.0396" y="-391.5" font-family="FreeSans" font-size="10.00" fill="#000000">DGtal/shapes/implicit</text>
<text text-anchor="middle" x="1768" y="-381.5" font-family="FreeSans" font-size="10.00" fill="#000000">/ImplicitBall.h</text>
</a>
</g>
</g>
<!-- Node0&#45;&gt;Node163 -->
<g id="edge97" class="edge">
<title>Node0&#45;&gt;Node163</title>
<path fill="none" stroke="#191970" d="M2083.1877,-639.6058C1983.5385,-631.748 1807.1124,-615.0429 1787,-594 1740.1002,-544.9303 1752.4453,-455.7561 1761.8581,-413.2569"/>
<polygon fill="#191970" stroke="#191970" points="1765.2679,-414.0461 1764.1501,-403.5104 1758.4538,-412.4436 1765.2679,-414.0461"/>
</g>
<!-- Node166 -->
<g id="node44" class="node">
<title>Node166</title>
<g id="a_node44"><a xlink:href="GaussDigitizer_8h_source.html" target="_top" xlink:title="Computes the Gauss digitization of some Euclidean shape.">
<polygon fill="#ffffff" stroke="#ff0000" points="1821.9116,-450.5 1821.9116,-468.5 1974.0884,-468.5 1974.0884,-450.5 1821.9116,-450.5"/>
<text text-anchor="middle" x="1898" y="-456.5" font-family="FreeSans" font-size="10.00" fill="#000000">DGtal/shapes/GaussDigitizer.h</text>
</a>
</g>
</g>
<!-- Node0&#45;&gt;Node166 -->
<g id="edge101" class="edge">
<title>Node0&#45;&gt;Node166</title>
<path fill="none" stroke="#191970" d="M2093.5667,-630.4256C2067.7764,-622.3817 2037.8541,-610.5354 2014,-594 1967.0969,-561.4875 1927.382,-505.686 1908.9767,-477.263"/>
<polygon fill="#191970" stroke="#191970" points="1911.8856,-475.3147 1903.5722,-468.7467 1905.9752,-479.0655 1911.8856,-475.3147"/>
</g>
<!-- Node172 -->
<g id="node45" class="node">
<title>Node172</title>
<g id="a_node45"><a xlink:href="LightImplicitDigitalSurface_8h_source.html" target="_top" xlink:title=" ">
<polygon fill="#ffffff" stroke="#ff0000" points="3177.1382,-300.5 3177.1382,-328.5 3314.8618,-328.5 3314.8618,-300.5 3177.1382,-300.5"/>
<text text-anchor="start" x="3185.1382" y="-316.5" font-family="FreeSans" font-size="10.00" fill="#000000">DGtal/topology/LightImplicit</text>
<text text-anchor="middle" x="3246" y="-306.5" font-family="FreeSans" font-size="10.00" fill="#000000">DigitalSurface.h</text>
</a>
</g>
</g>
<!-- Node0&#45;&gt;Node172 -->
<g id="edge105" class="edge">
<title>Node0&#45;&gt;Node172</title>
<path fill="none" stroke="#191970" d="M2218.7718,-643.3843C2441.5372,-638.8298 3137,-617.1885 3137,-524.5 3137,-524.5 3137,-524.5 3137,-459.5 3137,-406.1617 3184.7084,-359.9335 3216.9991,-334.7533"/>
<polygon fill="#191970" stroke="#191970" points="3219.3786,-337.3419 3225.2414,-328.517 3215.1549,-331.7597 3219.3786,-337.3419"/>
</g>
<!-- Node190 -->
<g id="node46" class="node">
<title>Node190</title>
<g id="a_node46"><a xlink:href="DigitalSurface_8h_source.html" target="_top" xlink:title=" ">
<polygon fill="#ffffff" stroke="#ff0000" points="2799.2417,-305.5 2799.2417,-323.5 2954.7583,-323.5 2954.7583,-305.5 2799.2417,-305.5"/>
<text text-anchor="middle" x="2877" y="-311.5" font-family="FreeSans" font-size="10.00" fill="#000000">DGtal/topology/DigitalSurface.h</text>
</a>
</g>
</g>
<!-- Node0&#45;&gt;Node190 -->
<g id="edge108" class="edge">
<title>Node0&#45;&gt;Node190</title>
<path fill="none" stroke="#191970" d="M2219.0072,-640.5824C2345.7552,-632.9017 2613.4441,-614.7898 2704,-594 2784.7605,-575.459 2877,-607.3615 2877,-524.5 2877,-524.5 2877,-524.5 2877,-459.5 2877,-414.5651 2877,-361.7973 2877,-333.9663"/>
<polygon fill="#191970" stroke="#191970" points="2880.5001,-333.6609 2877,-323.661 2873.5001,-333.661 2880.5001,-333.6609"/>
</g>
<!-- Node199 -->
<g id="node47" class="node">
<title>Node199</title>
<g id="a_node47"><a xlink:href="LpMetric_8h_source.html" target="_top" xlink:title=" ">
<polygon fill="#ffffff" stroke="#ff0000" points="2260.9805,-300.5 2260.9805,-328.5 2387.0195,-328.5 2387.0195,-300.5 2260.9805,-300.5"/>
<text text-anchor="start" x="2268.9805" y="-316.5" font-family="FreeSans" font-size="10.00" fill="#000000">DGtal/geometry/volumes</text>
<text text-anchor="middle" x="2324" y="-306.5" font-family="FreeSans" font-size="10.00" fill="#000000">/distance/LpMetric.h</text>
</a>
</g>
</g>
<!-- Node0&#45;&gt;Node199 -->
<g id="edge113" class="edge">
<title>Node0&#45;&gt;Node199</title>
<path fill="none" stroke="#191970" d="M2192.8377,-630.4713C2235.9805,-613.0455 2297,-578.8009 2297,-524.5 2297,-524.5 2297,-524.5 2297,-459.5 2297,-416.3594 2308.694,-367.2004 2316.6901,-338.6292"/>
<polygon fill="#191970" stroke="#191970" points="2320.1332,-339.3208 2319.5415,-328.7425 2313.4073,-337.3809 2320.1332,-339.3208"/>
</g>
<!-- Node200 -->
<g id="node48" class="node">
<title>Node200</title>
<g id="a_node48"><a xlink:href="LocalEstimatorFromSurfelFunctorAdapter_8h_source.html" target="_top" xlink:title=" ">
<polygon fill="#ffffff" stroke="#ff0000" points="2487.6997,-370.5 2487.6997,-408.5 2644.3003,-408.5 2644.3003,-370.5 2487.6997,-370.5"/>
<text text-anchor="start" x="2495.6997" y="-396.5" font-family="FreeSans" font-size="10.00" fill="#000000">DGtal/geometry/surfaces</text>
<text text-anchor="start" x="2495.6997" y="-386.5" font-family="FreeSans" font-size="10.00" fill="#000000">/estimation/LocalEstimatorFrom</text>
<text text-anchor="middle" x="2566" y="-376.5" font-family="FreeSans" font-size="10.00" fill="#000000">SurfelFunctorAdapter.h</text>
</a>
</g>
</g>
<!-- Node0&#45;&gt;Node200 -->
<g id="edge117" class="edge">
<title>Node0&#45;&gt;Node200</title>
<path fill="none" stroke="#191970" d="M2218.9797,-638.8474C2291.9862,-631.6822 2402.206,-617.3672 2437,-594 2501.3089,-550.8109 2539.9364,-463.6199 2556.4901,-418.3098"/>
<polygon fill="#191970" stroke="#191970" points="2559.8241,-419.3799 2559.8687,-408.7852 2553.2269,-417.0397 2559.8241,-419.3799"/>
</g>
<!-- Node206 -->
<g id="node49" class="node">
<title>Node206</title>
<g id="a_node49"><a xlink:href="SphericalHoughNormalVectorEstimator_8h_source.html" target="_top" xlink:title="Computes normal vector directions using Hough (spherical) accumulator.">
<polygon fill="#ffffff" stroke="#ff0000" points="1966.7295,-295.5 1966.7295,-333.5 2167.2705,-333.5 2167.2705,-295.5 1966.7295,-295.5"/>
<text text-anchor="start" x="1974.7295" y="-321.5" font-family="FreeSans" font-size="10.00" fill="#000000">DGtal/geometry/surfaces</text>
<text text-anchor="start" x="1974.7295" y="-311.5" font-family="FreeSans" font-size="10.00" fill="#000000">/estimation/estimationFunctors</text>
<text text-anchor="middle" x="2067" y="-301.5" font-family="FreeSans" font-size="10.00" fill="#000000">/SphericalHoughNormalVectorEstimator.h</text>
</a>
</g>
</g>
<!-- Node0&#45;&gt;Node206 -->
<g id="edge123" class="edge">
<title>Node0&#45;&gt;Node206</title>
<path fill="none" stroke="#191970" d="M2132.5796,-630.4257C2108.1271,-609.9915 2068,-569.5895 2068,-524.5 2068,-524.5 2068,-524.5 2068,-459.5 2068,-419.5428 2067.6156,-373.3935 2067.3234,-344.0905"/>
<polygon fill="#191970" stroke="#191970" points="2070.8197,-343.6962 2067.217,-333.7327 2063.82,-343.7682 2070.8197,-343.6962"/>
</g>
<!-- Node214 -->
<g id="node50" class="node">
<title>Node214</title>
<g id="a_node50"><a xlink:href="Board3D_8h_source.html" target="_top" xlink:title="Header file for module Board3D.cpp.">
<polygon fill="#ffffff" stroke="#ff0000" points="2644.9683,-305.5 2644.9683,-323.5 2781.0317,-323.5 2781.0317,-305.5 2644.9683,-305.5"/>
<text text-anchor="middle" x="2713" y="-311.5" font-family="FreeSans" font-size="10.00" fill="#000000">DGtal/io/boards/Board3D.h</text>
</a>
</g>
</g>
<!-- Node0&#45;&gt;Node214 -->
<g id="edge126" class="edge">
<title>Node0&#45;&gt;Node214</title>
<path fill="none" stroke="#191970" d="M2218.851,-639.7488C2392.4229,-626.6905 2839,-587.0183 2839,-524.5 2839,-524.5 2839,-524.5 2839,-459.5 2839,-398.9332 2775.5886,-351.3266 2738.7354,-328.7731"/>
<polygon fill="#191970" stroke="#191970" points="2740.3791,-325.6786 2729.9929,-323.5863 2736.8074,-331.6989 2740.3791,-325.6786"/>
</g>
<!-- Node2&#45;&gt;Node1 -->
<g id="edge3" class="edge">
<title>Node2&#45;&gt;Node1</title>
<path fill="none" stroke="#191970" d="M1728.1236,-242.4112C1893.1677,-236.2957 2348.2456,-217.378 2370,-194 2378.7803,-184.5644 2373.3567,-177.4441 2370,-165 2340.9068,-57.1446 2254.3058,-72.6587 2144,-55 1932.0943,-21.0762 1246.8502,-11.6856 1078.5782,-9.8658"/>
<polygon fill="#191970" stroke="#191970" points="1078.5113,-6.365 1068.4748,-9.759 1078.4372,-13.3646 1078.5113,-6.365"/>
</g>
<!-- Node3 -->
<g id="node4" class="node">
<title>Node3</title>
<g id="a_node4"><a xlink:title=" ">
<polygon fill="#ffffff" stroke="#bfbfbf" points="1737.5962,-170.5 1737.5962,-188.5 1796.4038,-188.5 1796.4038,-170.5 1737.5962,-170.5"/>
<text text-anchor="middle" x="1767" y="-176.5" font-family="FreeSans" font-size="10.00" fill="#000000">exception</text>
</a>
</g>
</g>
<!-- Node2&#45;&gt;Node3 -->
<g id="edge4" class="edge">
<title>Node2&#45;&gt;Node3</title>
<path fill="none" stroke="#191970" d="M1682.6265,-235.462C1698.699,-224.8017 1725.6441,-206.9299 1744.7565,-194.2534"/>
<polygon fill="#191970" stroke="#191970" points="1746.7743,-197.1149 1753.1733,-188.6708 1742.9052,-191.2814 1746.7743,-197.1149"/>
</g>
<!-- Node4 -->
<g id="node5" class="node">
<title>Node4</title>
<g id="a_node5"><a xlink:title=" ">
<polygon fill="#ffffff" stroke="#bfbfbf" points="2550.436,-110.5 2550.436,-128.5 2607.564,-128.5 2607.564,-110.5 2550.436,-110.5"/>
<text text-anchor="middle" x="2579" y="-116.5" font-family="FreeSans" font-size="10.00" fill="#000000">algorithm</text>
</a>
</g>
</g>
<!-- Node2&#45;&gt;Node4 -->
<g id="edge5" class="edge">
<title>Node2&#45;&gt;Node4</title>
<path fill="none" stroke="#191970" d="M1727.9187,-243.3206C1881.0231,-239.8115 2288.5736,-227.512 2419,-194 2470.1483,-180.8579 2524.946,-151.6446 2555.2967,-133.956"/>
<polygon fill="#191970" stroke="#191970" points="2557.4334,-136.7585 2564.2562,-128.6529 2553.8679,-130.7346 2557.4334,-136.7585"/>
</g>
<!-- Node5 -->
<g id="node6" class="node">
<title>Node5</title>
<g id="a_node6"><a xlink:title=" ">
<polygon fill="#ffffff" stroke="#bfbfbf" points="1814.5298,-170.5 1814.5298,-188.5 1909.4702,-188.5 1909.4702,-170.5 1814.5298,-170.5"/>
<text text-anchor="middle" x="1862" y="-176.5" font-family="FreeSans" font-size="10.00" fill="#000000">boost/version.hpp</text>
</a>
</g>
</g>
<!-- Node2&#45;&gt;Node5 -->
<g id="edge6" class="edge">
<title>Node2&#45;&gt;Node5</title>
<path fill="none" stroke="#191970" d="M1695.8358,-235.462C1729.5892,-224.0943 1787.6904,-204.5265 1825.4718,-191.8023"/>
<polygon fill="#191970" stroke="#191970" points="1826.7218,-195.0745 1835.0817,-188.5658 1824.4876,-188.4406 1826.7218,-195.0745"/>
</g>
<!-- Node6 -->
<g id="node7" class="node">
<title>Node6</title>
<g id="a_node7"><a xlink:title=" ">
<polygon fill="#ffffff" stroke="#bfbfbf" points="1927.2935,-170.5 1927.2935,-188.5 2056.7065,-188.5 2056.7065,-170.5 1927.2935,-170.5"/>
<text text-anchor="middle" x="1992" y="-176.5" font-family="FreeSans" font-size="10.00" fill="#000000">boost/concept_check.hpp</text>
</a>
</g>
</g>
<!-- Node2&#45;&gt;Node6 -->
<g id="edge7" class="edge">
<title>Node2&#45;&gt;Node6</title>
<path fill="none" stroke="#191970" d="M1713.9118,-235.462C1772.2855,-223.715 1874.172,-203.2115 1937.0805,-190.5519"/>
<polygon fill="#191970" stroke="#191970" points="1938.0973,-193.9175 1947.2102,-188.5134 1936.7162,-187.0551 1938.0973,-193.9175"/>
</g>
<!-- Node7 -->
<g id="node8" class="node">
<title>Node7</title>
<g id="a_node8"><a xlink:title=" ">
<polygon fill="#ffffff" stroke="#bfbfbf" points="2074.5815,-170.5 2074.5815,-188.5 2193.4185,-188.5 2193.4185,-170.5 2074.5815,-170.5"/>
<text text-anchor="middle" x="2134" y="-176.5" font-family="FreeSans" font-size="10.00" fill="#000000">boost/static_assert.hpp</text>
</a>
</g>
</g>
<!-- Node2&#45;&gt;Node7 -->
<g id="edge8" class="edge">
<title>Node2&#45;&gt;Node7</title>
<path fill="none" stroke="#191970" d="M1728.0823,-238.544C1805.8389,-230.3493 1946.6435,-214.2803 2066,-194 2071.8702,-193.0026 2078.003,-191.8511 2084.0791,-190.6421"/>
<polygon fill="#191970" stroke="#191970" points="2085.1008,-194.0056 2094.195,-188.5701 2083.696,-187.148 2085.1008,-194.0056"/>
</g>
<!-- Node8 -->
<g id="node9" class="node">
<title>Node8</title>
<g id="a_node9"><a xlink:title=" ">
<polygon fill="#ffffff" stroke="#bfbfbf" points="2211.1309,-170.5 2211.1309,-188.5 2338.8691,-188.5 2338.8691,-170.5 2211.1309,-170.5"/>
<text text-anchor="middle" x="2275" y="-176.5" font-family="FreeSans" font-size="10.00" fill="#000000">boost/concept/assert.hpp</text>
</a>
</g>
</g>
<!-- Node2&#45;&gt;Node8 -->
<g id="edge9" class="edge">
<title>Node2&#45;&gt;Node8</title>
<path fill="none" stroke="#191970" d="M1727.9926,-240.8774C1826.5341,-234.3864 2030.7057,-219.0607 2202,-194 2208.872,-192.9946 2216.0764,-191.7722 2223.1707,-190.4682"/>
<polygon fill="#191970" stroke="#191970" points="2224.2648,-193.8229 2233.4343,-188.5151 2222.9562,-186.9463 2224.2648,-193.8229"/>
</g>
<!-- Node9 -->
<g id="node10" class="node">
<title>Node9</title>
<g id="a_node10"><a xlink:title=" ">
<polygon fill="#ffffff" stroke="#bfbfbf" points="1037.6826,-170.5 1037.6826,-188.5 1174.3174,-188.5 1174.3174,-170.5 1037.6826,-170.5"/>
<text text-anchor="middle" x="1106" y="-176.5" font-family="FreeSans" font-size="10.00" fill="#000000">boost/concept/requires.hpp</text>
</a>
</g>
</g>
<!-- Node2&#45;&gt;Node9 -->
<g id="edge10" class="edge">
<title>Node2&#45;&gt;Node9</title>
<path fill="none" stroke="#191970" d="M1610.079,-239.958C1518.4556,-232.5394 1336.4024,-216.3747 1183,-194 1175.7818,-192.9472 1168.2089,-191.6992 1160.7467,-190.384"/>
<polygon fill="#191970" stroke="#191970" points="1161.1471,-186.8996 1150.6833,-188.5609 1159.8992,-193.7875 1161.1471,-186.8996"/>
</g>
<!-- Node10 -->
<g id="node11" class="node">
<title>Node10</title>
<g id="a_node11"><a xlink:title=" ">
<polygon fill="#ffffff" stroke="#bfbfbf" points="1191.8672,-165.5 1191.8672,-193.5 1300.1328,-193.5 1300.1328,-165.5 1191.8672,-165.5"/>
<text text-anchor="start" x="1199.8672" y="-181.5" font-family="FreeSans" font-size="10.00" fill="#000000">boost/iterator/iterator</text>
<text text-anchor="middle" x="1246" y="-171.5" font-family="FreeSans" font-size="10.00" fill="#000000">_concepts.hpp</text>
</a>
</g>
</g>
<!-- Node2&#45;&gt;Node10 -->
<g id="edge11" class="edge">
<title>Node2&#45;&gt;Node10</title>
<path fill="none" stroke="#191970" d="M1610.1335,-237.8347C1540.7318,-229.6209 1421.7311,-214.4265 1310.3008,-194.1472"/>
<polygon fill="#191970" stroke="#191970" points="1310.7018,-190.6623 1300.2338,-192.2972 1309.4365,-197.547 1310.7018,-190.6623"/>
</g>
<!-- Node11 -->
<g id="node12" class="node">
<title>Node11</title>
<g id="a_node12"><a xlink:title=" ">
<polygon fill="#ffffff" stroke="#bfbfbf" points="1318.397,-170.5 1318.397,-188.5 1465.603,-188.5 1465.603,-170.5 1318.397,-170.5"/>
<text text-anchor="middle" x="1392" y="-176.5" font-family="FreeSans" font-size="10.00" fill="#000000">boost/concept_archetype.hpp</text>
</a>
</g>
</g>
<!-- Node2&#45;&gt;Node11 -->
<g id="edge12" class="edge">
<title>Node2&#45;&gt;Node11</title>
<path fill="none" stroke="#191970" d="M1630.4843,-235.462C1580.9066,-223.8283 1494.7291,-203.6061 1440.668,-190.9203"/>
<polygon fill="#191970" stroke="#191970" points="1441.1692,-187.4429 1430.6341,-188.5658 1439.57,-194.2578 1441.1692,-187.4429"/>
</g>
<!-- Node12 -->
<g id="node13" class="node">
<title>Node12</title>
<g id="a_node13"><a xlink:title=" ">
<polygon fill="#ffffff" stroke="#bfbfbf" points="2433.3843,-110.5 2433.3843,-128.5 2476.6157,-128.5 2476.6157,-110.5 2433.3843,-110.5"/>
<text text-anchor="middle" x="2455" y="-116.5" font-family="FreeSans" font-size="10.00" fill="#000000">cmath</text>
</a>
</g>
</g>
<!-- Node2&#45;&gt;Node12 -->
<g id="edge13" class="edge">
<title>Node2&#45;&gt;Node12</title>
<path fill="none" stroke="#191970" d="M1672.7726,-235.2976C1680.4311,-217.966 1699.608,-180.8073 1729,-165 1790.6641,-131.8364 2290.3025,-121.9857 2422.8311,-119.9442"/>
<polygon fill="#191970" stroke="#191970" points="2423.1735,-123.4396 2433.1199,-119.7902 2423.0686,-116.4404 2423.1735,-123.4396"/>
</g>
<!-- Node13 -->
<g id="node14" class="node">
<title>Node13</title>
<g id="a_node14"><a xlink:title=" ">
<polygon fill="#ffffff" stroke="#bfbfbf" points="1522.2686,-170.5 1522.2686,-188.5 1567.7314,-188.5 1567.7314,-170.5 1522.2686,-170.5"/>
<text text-anchor="middle" x="1545" y="-176.5" font-family="FreeSans" font-size="10.00" fill="#000000">stdio.h</text>
</a>
</g>
</g>
<!-- Node2&#45;&gt;Node13 -->
<g id="edge14" class="edge">
<title>Node2&#45;&gt;Node13</title>
<path fill="none" stroke="#191970" d="M1651.7583,-235.462C1630.9615,-224.5605 1595.7781,-206.1176 1571.519,-193.4011"/>
<polygon fill="#191970" stroke="#191970" points="1572.9769,-190.2136 1562.495,-188.6708 1569.7269,-196.4135 1572.9769,-190.2136"/>
</g>
<!-- Node14 -->
<g id="node15" class="node">
<title>Node14</title>
<g id="a_node15"><a xlink:href="Config_8h_source.html" target="_top" xlink:title=" ">
<polygon fill="#ffffff" stroke="#ff0000" points="855.9756,-55.5 855.9756,-73.5 962.0244,-73.5 962.0244,-55.5 855.9756,-55.5"/>
<text text-anchor="middle" x="909" y="-61.5" font-family="FreeSans" font-size="10.00" fill="#000000">DGtal/base/Config.h</text>
</a>
</g>
</g>
<!-- Node2&#45;&gt;Node14 -->
<g id="edge15" class="edge">
<title>Node2&#45;&gt;Node14</title>
<path fill="none" stroke="#191970" d="M1609.9493,-243.4379C1412.5524,-239.6031 786.3582,-225.0288 757,-194 712.2911,-146.7469 814.7891,-99.1892 872.7134,-77.1611"/>
<polygon fill="#191970" stroke="#191970" points="874.131,-80.3681 882.2818,-73.5993 871.689,-73.8079 874.131,-80.3681"/>
</g>
<!-- Node16 -->
<g id="node16" class="node">
<title>Node16</title>
<g id="a_node16"><a xlink:href="Trace_8h_source.html" target="_top" xlink:title=" ">
<polygon fill="#ffffff" stroke="#ff0000" points="765.8311,-170.5 765.8311,-188.5 868.1689,-188.5 868.1689,-170.5 765.8311,-170.5"/>
<text text-anchor="middle" x="817" y="-176.5" font-family="FreeSans" font-size="10.00" fill="#000000">DGtal/base/Trace.h</text>
</a>
</g>
</g>
<!-- Node2&#45;&gt;Node16 -->
<g id="edge17" class="edge">
<title>Node2&#45;&gt;Node16</title>
<path fill="none" stroke="#191970" d="M1609.9368,-243.8383C1478.4852,-241.6828 1152.0617,-232.5484 882,-194 875.7655,-193.1101 869.2414,-191.9424 862.8332,-190.6555"/>
<polygon fill="#191970" stroke="#191970" points="863.4247,-187.2033 852.9169,-188.5579 861.976,-194.0517 863.4247,-187.2033"/>
</g>
<!-- Node23 -->
<g id="node17" class="node">
<title>Node23</title>
<g id="a_node17"><a xlink:href="TraceWriterTerm_8h_source.html" target="_top" xlink:title=" ">
<polygon fill="#ffffff" stroke="#ff0000" points="965.478,-110.5 965.478,-128.5 1116.522,-128.5 1116.522,-110.5 965.478,-110.5"/>
<text text-anchor="middle" x="1041" y="-116.5" font-family="FreeSans" font-size="10.00" fill="#000000">DGtal/base/TraceWriterTerm.h</text>
</a>
</g>
</g>
<!-- Node2&#45;&gt;Node23 -->
<g id="edge25" class="edge">
<title>Node2&#45;&gt;Node23</title>
<path fill="none" stroke="#191970" d="M1610.0657,-241.9981C1455.4314,-235.1499 1048.5858,-215.1922 1029,-194 1015.1566,-179.0212 1022.5892,-154.7073 1030.5397,-137.9526"/>
<polygon fill="#191970" stroke="#191970" points="1033.8689,-139.1361 1035.3714,-128.6483 1027.6566,-135.91 1033.8689,-139.1361"/>
</g>
<!-- Node24 -->
<g id="node18" class="node">
<title>Node24</title>
<g id="a_node18"><a xlink:href="Assert_8h_source.html" target="_top" xlink:title=" ">
<polygon fill="#ffffff" stroke="#ff0000" points="842.2588,-110.5 842.2588,-128.5 947.7412,-128.5 947.7412,-110.5 842.2588,-110.5"/>
<text text-anchor="middle" x="895" y="-116.5" font-family="FreeSans" font-size="10.00" fill="#000000">DGtal/base/Assert.h</text>
</a>
</g>
</g>
<!-- Node2&#45;&gt;Node24 -->
<g id="edge28" class="edge">
<title>Node2&#45;&gt;Node24</title>
<path fill="none" stroke="#191970" d="M1609.9046,-243.4072C1471.0063,-240.2788 1127.2711,-229.1238 1018,-194 977.7456,-181.0608 936.919,-152.6348 913.8959,-134.8766"/>
<polygon fill="#191970" stroke="#191970" points="916.0047,-132.0823 905.9821,-128.6475 911.6751,-137.5828 916.0047,-132.0823"/>
</g>
<!-- Node27 -->
<g id="node19" class="node">
<title>Node27</title>
<g id="a_node19"><a xlink:href="TraceWriterFile_8h_source.html" target="_top" xlink:title=" ">
<polygon fill="#ffffff" stroke="#ff0000" points="1092.5322,-55.5 1092.5322,-73.5 1237.4678,-73.5 1237.4678,-55.5 1092.5322,-55.5"/>
<text text-anchor="middle" x="1165" y="-61.5" font-family="FreeSans" font-size="10.00" fill="#000000">DGtal/base/TraceWriterFile.h</text>
</a>
</g>
</g>
<!-- Node2&#45;&gt;Node27 -->
<g id="edge26" class="edge">
<title>Node2&#45;&gt;Node27</title>
<path fill="none" stroke="#191970" d="M1628.7309,-235.4738C1596.3173,-227.2784 1550.1959,-213.4816 1513,-194 1494.1799,-184.1429 1493.818,-174.8612 1475,-165 1389.8526,-120.3803 1281.1728,-90.7182 1217.7066,-75.8143"/>
<polygon fill="#191970" stroke="#191970" points="1218.4511,-72.3941 1207.9194,-73.549 1216.8725,-79.2139 1218.4511,-72.3941"/>
</g>
<!-- Node28 -->
<g id="node20" class="node">
<title>Node28</title>
<g id="a_node20"><a xlink:href="ConceptUtils_8h_source.html" target="_top" xlink:title=" ">
<polygon fill="#ffffff" stroke="#000000" points="1348.084,-55.5 1348.084,-73.5 1481.916,-73.5 1481.916,-55.5 1348.084,-55.5"/>
<text text-anchor="middle" x="1415" y="-61.5" font-family="FreeSans" font-size="10.00" fill="#000000">DGtal/base/ConceptUtils.h</text>
</a>
</g>
</g>
<!-- Node2&#45;&gt;Node28 -->
<g id="edge29" class="edge">
<title>Node2&#45;&gt;Node28</title>
<path fill="none" stroke="#191970" d="M1659.8897,-235.3649C1636.3832,-212.1509 1571.101,-149.9127 1508,-110 1488.208,-97.4811 1464.4729,-85.9195 1445.9349,-77.5834"/>
<polygon fill="#191970" stroke="#191970" points="1447.3243,-74.371 1436.7629,-73.5303 1444.4949,-80.7737 1447.3243,-74.371"/>
</g>
<!-- Node29 -->
<g id="node21" class="node">
<title>Node29</title>
<g id="a_node21"><a xlink:href="BasicTypes_8h_source.html" target="_top" xlink:title=" ">
<polygon fill="#ffffff" stroke="#ff0000" points="1546.8599,-55.5 1546.8599,-73.5 1675.1401,-73.5 1675.1401,-55.5 1546.8599,-55.5"/>
<text text-anchor="middle" x="1611" y="-61.5" font-family="FreeSans" font-size="10.00" fill="#000000">DGtal/base/BasicTypes.h</text>
</a>
</g>
</g>
<!-- Node2&#45;&gt;Node29 -->
<g id="edge31" class="edge">
<title>Node2&#45;&gt;Node29</title>
<path fill="none" stroke="#191970" d="M1666.044,-235.3263C1657.0095,-207.2881 1629.6251,-122.3019 1617.2224,-83.811"/>
<polygon fill="#191970" stroke="#191970" points="1620.4179,-82.3157 1614.0196,-73.8711 1613.7552,-84.4626 1620.4179,-82.3157"/>
</g>
<!-- Node2&#45;&gt;Node32 -->
<g id="edge33" class="edge">
<title>Node2&#45;&gt;Node32</title>
<path fill="none" stroke="#191970" d="M1727.8718,-242.9897C1862.5625,-239.1741 2202.9089,-226.9862 2486,-194 2494.8519,-192.9686 2504.1873,-191.6201 2513.4061,-190.1607"/>
<polygon fill="#191970" stroke="#191970" points="2514.028,-193.6056 2523.3353,-188.5434 2512.9026,-186.6967 2514.028,-193.6056"/>
</g>
<!-- Node40 -->
<g id="node23" class="node">
<title>Node40</title>
<g id="a_node23"><a xlink:href="BasicArchetypes_8h_source.html" target="_top" xlink:title=" ">
<polygon fill="#ffffff" stroke="#000000" points="1662.1899,-110.5 1662.1899,-128.5 1813.8101,-128.5 1813.8101,-110.5 1662.1899,-110.5"/>
<text text-anchor="middle" x="1738" y="-116.5" font-family="FreeSans" font-size="10.00" fill="#000000">DGtal/base/BasicArchetypes.h</text>
</a>
</g>
</g>
<!-- Node2&#45;&gt;Node40 -->
<g id="edge37" class="edge">
<title>Node2&#45;&gt;Node40</title>
<path fill="none" stroke="#191970" d="M1670.8443,-235.1457C1674.1696,-219.7119 1682.1443,-188.3041 1696,-165 1702.4116,-154.2162 1711.7059,-143.8087 1719.9221,-135.6755"/>
<polygon fill="#191970" stroke="#191970" points="1722.4952,-138.0588 1727.3399,-128.6365 1717.6768,-132.9811 1722.4952,-138.0588"/>
</g>
<!-- Node41 -->
<g id="node24" class="node">
<title>Node41</title>
<g id="a_node24"><a xlink:href="Exceptions_8h_source.html" target="_top" xlink:title=" ">
<polygon fill="#ffffff" stroke="#000000" points="2008.9707,-55.5 2008.9707,-73.5 2135.0293,-73.5 2135.0293,-55.5 2008.9707,-55.5"/>
<text text-anchor="middle" x="2072" y="-61.5" font-family="FreeSans" font-size="10.00" fill="#000000">DGtal/base/Exceptions.h</text>
</a>
</g>
</g>
<!-- Node2&#45;&gt;Node41 -->
<g id="edge39" class="edge">
<title>Node2&#45;&gt;Node41</title>
<path fill="none" stroke="#191970" d="M1727.9991,-242.2728C1889.2934,-235.9 2327.0264,-216.5914 2348,-194 2413.346,-123.6134 2247.3862,-87.9456 2145.1969,-73.1418"/>
<polygon fill="#191970" stroke="#191970" points="2145.6024,-69.6645 2135.2113,-71.7318 2144.6237,-76.5957 2145.6024,-69.6645"/>
</g>
<!-- Node14&#45;&gt;Node1 -->
<g id="edge16" class="edge">
<title>Node14&#45;&gt;Node1</title>
<path fill="none" stroke="#191970" d="M930.7971,-55.4179C952.2929,-46.4613 985.3664,-32.6806 1009.6752,-22.552"/>
<polygon fill="#191970" stroke="#191970" points="1011.2859,-25.6726 1019.1705,-18.5956 1008.5936,-19.2111 1011.2859,-25.6726"/>
</g>
<!-- Node16&#45;&gt;Node1 -->
<g id="edge18" class="edge">
<title>Node16&#45;&gt;Node1</title>
<path fill="none" stroke="#191970" d="M815.8857,-170.3721C813.578,-146.7602 811.1692,-83.5279 847,-55 870.9403,-35.9391 954.4437,-21.493 1003.751,-14.3867"/>
<polygon fill="#191970" stroke="#191970" points="1004.3057,-17.8432 1013.7198,-12.9826 1003.3294,-10.9116 1004.3057,-17.8432"/>
</g>
<!-- Node16&#45;&gt;Node14 -->
<g id="edge19" class="edge">
<title>Node16&#45;&gt;Node14</title>
<path fill="none" stroke="#191970" d="M816.9051,-170.4719C817.1969,-156.2676 819.6,-128.4246 833,-110 843.2395,-95.9211 859.2843,-85.3964 873.9979,-78.0357"/>
<polygon fill="#191970" stroke="#191970" points="875.8172,-81.0492 883.4002,-73.65 872.8581,-74.7054 875.8172,-81.0492"/>
</g>
<!-- Node16&#45;&gt;Node23 -->
<g id="edge20" class="edge">
<title>Node16&#45;&gt;Node23</title>
<path fill="none" stroke="#191970" d="M851.0208,-170.3873C890.2245,-159.8863 954.7338,-142.607 997.5404,-131.141"/>
<polygon fill="#191970" stroke="#191970" points="998.6391,-134.4701 1007.393,-128.5019 996.8279,-127.7085 998.6391,-134.4701"/>
</g>
<!-- Node16&#45;&gt;Node24 -->
<g id="edge23" class="edge">
<title>Node16&#45;&gt;Node24</title>
<path fill="none" stroke="#191970" d="M823.8372,-170.3873C834.3142,-160.8168 853.7737,-145.6159 869.8238,-134.3171"/>
<polygon fill="#191970" stroke="#191970" points="872.04,-137.0414 878.3111,-128.5019 868.0834,-131.2668 872.04,-137.0414"/>
</g>
<!-- Node23&#45;&gt;Node1 -->
<g id="edge21" class="edge">
<title>Node23&#45;&gt;Node1</title>
<path fill="none" stroke="#191970" d="M1041,-110.4982C1041,-92.6913 1041,-52.6225 1041,-28.6515"/>
<polygon fill="#191970" stroke="#191970" points="1044.5001,-28.6261 1041,-18.6261 1037.5001,-28.6262 1044.5001,-28.6261"/>
</g>
<!-- Node23&#45;&gt;Node14 -->
<g id="edge22" class="edge">
<title>Node23&#45;&gt;Node14</title>
<path fill="none" stroke="#191970" d="M1019.2029,-110.4179C997.7071,-101.4613 964.6336,-87.6806 940.3248,-77.552"/>
<polygon fill="#191970" stroke="#191970" points="941.4064,-74.2111 930.8295,-73.5956 938.7141,-80.6726 941.4064,-74.2111"/>
</g>
<!-- Node24&#45;&gt;Node16 -->
<g id="edge24" class="edge">
<title>Node24&#45;&gt;Node16</title>
<path fill="none" stroke="#191970" d="M888.0689,-128.6985C877.5992,-138.247 858.2872,-153.3328 842.311,-164.588"/>
<polygon fill="#191970" stroke="#191970" points="840.1228,-161.8447 833.8559,-170.3873 844.0822,-167.6173 840.1228,-161.8447"/>
</g>
<!-- Node27&#45;&gt;Node1 -->
<g id="edge27" class="edge">
<title>Node27&#45;&gt;Node1</title>
<path fill="none" stroke="#191970" d="M1144.5239,-55.4179C1124.4206,-46.5011 1093.5378,-32.803 1070.7313,-22.6873"/>
<polygon fill="#191970" stroke="#191970" points="1072.0668,-19.4508 1061.5065,-18.5956 1069.2285,-25.8496 1072.0668,-19.4508"/>
</g>
<!-- Node28&#45;&gt;Node1 -->
<g id="edge30" class="edge">
<title>Node28&#45;&gt;Node1</title>
<path fill="none" stroke="#191970" d="M1353.6603,-55.4795C1275.5314,-43.9899 1142.9347,-24.4904 1078.4475,-15.007"/>
<polygon fill="#191970" stroke="#191970" points="1078.7347,-11.5117 1068.3319,-13.5194 1077.7162,-18.4372 1078.7347,-11.5117"/>
</g>
<!-- Node29&#45;&gt;Node1 -->
<g id="edge32" class="edge">
<title>Node29&#45;&gt;Node1</title>
<path fill="none" stroke="#191970" d="M1546.7218,-58.2977C1427.0325,-46.7488 1173.5224,-22.2873 1078.2426,-13.0936"/>
<polygon fill="#191970" stroke="#191970" points="1078.4997,-9.6022 1068.2097,-12.1255 1077.8273,-16.5699 1078.4997,-9.6022"/>
</g>
<!-- Node32&#45;&gt;Node2 -->
<g id="edge36" class="edge">
<title>Node32&#45;&gt;Node2</title>
<path fill="none" stroke="#191970" d="M2540.7437,-188.5434C2529.0038,-190.603 2516.0536,-192.5955 2504,-194 2221.5553,-226.9108 1882.1166,-239.1184 1738.4795,-242.9635"/>
<polygon fill="#191970" stroke="#191970" points="1737.9725,-239.4755 1728.0677,-243.2366 1738.1561,-246.4731 1737.9725,-239.4755"/>
</g>
<!-- Node32&#45;&gt;Node4 -->
<g id="edge34" class="edge">
<title>Node32&#45;&gt;Node4</title>
<path fill="none" stroke="#191970" d="M2579,-170.3873C2579,-162.0174 2579,-149.3414 2579,-138.735"/>
<polygon fill="#191970" stroke="#191970" points="2582.5001,-138.6984 2579,-128.6985 2575.5001,-138.6985 2582.5001,-138.6984"/>
</g>
<!-- Node32&#45;&gt;Node12 -->
<g id="edge35" class="edge">
<title>Node32&#45;&gt;Node12</title>
<path fill="none" stroke="#191970" d="M2560.1671,-170.3873C2539.5638,-160.418 2506.3348,-144.3394 2482.7465,-132.9257"/>
<polygon fill="#191970" stroke="#191970" points="2484.13,-129.707 2473.6039,-128.5019 2481.081,-136.0081 2484.13,-129.707"/>
</g>
<!-- Node40&#45;&gt;Node1 -->
<g id="edge38" class="edge">
<title>Node40&#45;&gt;Node1</title>
<path fill="none" stroke="#191970" d="M1733.5218,-110.4411C1725.7358,-95.8061 1708.1912,-67.3556 1684,-55 1630.0777,-27.4593 1207.7988,-13.966 1078.4983,-10.4517"/>
<polygon fill="#191970" stroke="#191970" points="1078.3929,-6.9478 1068.3028,-10.1789 1078.2056,-13.9453 1078.3929,-6.9478"/>
</g>
<!-- Node41&#45;&gt;Node1 -->
<g id="edge40" class="edge">
<title>Node41&#45;&gt;Node1</title>
<path fill="none" stroke="#191970" d="M2008.6719,-61.1217C1814.6441,-50.771 1232.2705,-19.7036 1078.5464,-11.503"/>
<polygon fill="#191970" stroke="#191970" points="1078.4025,-7.9904 1068.2302,-10.9526 1078.0296,-14.9805 1078.4025,-7.9904"/>
</g>
<!-- Node44&#45;&gt;Node1 -->
<g id="edge44" class="edge">
<title>Node44&#45;&gt;Node1</title>
<path fill="none" stroke="#191970" d="M819.0122,-581.838C624.3317,-572.662 38,-538.4706 38,-459.5 38,-459.5 38,-459.5 38,-119.5 38,-60.1217 97.8945,-71.2707 155,-55 237.3549,-31.5352 845.2529,-14.5017 1003.4535,-10.4335"/>
<polygon fill="#191970" stroke="#191970" points="1003.7269,-13.9278 1013.6343,-10.1737 1003.5483,-6.93 1003.7269,-13.9278"/>
</g>
<!-- Node44&#45;&gt;Node2 -->
<g id="edge45" class="edge">
<title>Node44&#45;&gt;Node2</title>
<path fill="none" stroke="#191970" d="M943.1534,-580.1331C1065.9768,-569.7898 1328,-538.4697 1328,-459.5 1328,-459.5 1328,-459.5 1328,-389.5 1328,-327.9112 1518.7627,-277.3363 1614.9282,-255.7539"/>
<polygon fill="#191970" stroke="#191970" points="1615.7643,-259.1536 1624.7698,-253.5722 1614.2493,-252.3195 1615.7643,-259.1536"/>
</g>
<!-- Node45 -->
<g id="node28" class="node">
<title>Node45</title>
<g id="a_node28"><a xlink:href="SpaceND_8h_source.html" target="_top" xlink:title=" ">
<polygon fill="#ffffff" stroke="#ff0000" points="614.2539,-305.5 614.2539,-323.5 739.7461,-323.5 739.7461,-305.5 614.2539,-305.5"/>
<text text-anchor="middle" x="677" y="-311.5" font-family="FreeSans" font-size="10.00" fill="#000000">DGtal/kernel/SpaceND.h</text>
</a>
</g>
</g>
<!-- Node44&#45;&gt;Node45 -->
<g id="edge46" class="edge">
<title>Node44&#45;&gt;Node45</title>
<path fill="none" stroke="#191970" d="M863.5384,-575.2735C833.8115,-558.7444 773.1825,-521.3431 738,-474 705.0838,-429.7065 687.7849,-365.4993 680.7948,-333.755"/>
<polygon fill="#191970" stroke="#191970" points="684.1494,-332.6971 678.6761,-323.6256 677.2976,-334.1303 684.1494,-332.6971"/>
</g>
<!-- Node67 -->
<g id="node29" class="node">
<title>Node67</title>
<g id="a_node29"><a xlink:href="HyperRectDomain_8h_source.html" target="_top" xlink:title=" ">
<polygon fill="#ffffff" stroke="#ff0000" points="1513.9238,-375.5 1513.9238,-403.5 1626.0762,-403.5 1626.0762,-375.5 1513.9238,-375.5"/>
<text text-anchor="start" x="1521.9238" y="-391.5" font-family="FreeSans" font-size="10.00" fill="#000000">DGtal/kernel/domains</text>
<text text-anchor="middle" x="1570" y="-381.5" font-family="FreeSans" font-size="10.00" fill="#000000">/HyperRectDomain.h</text>
</a>
</g>
</g>
<!-- Node44&#45;&gt;Node67 -->
<g id="edge49" class="edge">
<title>Node44&#45;&gt;Node67</title>
<path fill="none" stroke="#191970" d="M943.0175,-583.1765C1088.521,-579.6019 1442.9602,-567.9941 1488,-539 1532.8896,-510.1026 1555.2272,-447.7267 1564.5095,-413.3824"/>
<polygon fill="#191970" stroke="#191970" points="1567.901,-414.2467 1566.9816,-403.6918 1561.1183,-412.5163 1567.901,-414.2467"/>
</g>
<!-- Node88 -->
<g id="node31" class="node">
<title>Node88</title>
<g id="a_node31"><a xlink:href="DigitalSetSelector_8h_source.html" target="_top" xlink:title=" ">
<polygon fill="#ffffff" stroke="#ff0000" points="282.3696,-300.5 282.3696,-328.5 405.6304,-328.5 405.6304,-300.5 282.3696,-300.5"/>
<text text-anchor="start" x="290.3696" y="-316.5" font-family="FreeSans" font-size="10.00" fill="#000000">DGtal/kernel/sets/Digital</text>
<text text-anchor="middle" x="344" y="-306.5" font-family="FreeSans" font-size="10.00" fill="#000000">SetSelector.h</text>
</a>
</g>
</g>
<!-- Node44&#45;&gt;Node88 -->
<g id="edge54" class="edge">
<title>Node44&#45;&gt;Node88</title>
<path fill="none" stroke="#191970" d="M818.9312,-579.2663C768.1616,-573.5234 695.1849,-561.8851 635,-539 530.6257,-499.312 504.0495,-482.5175 420,-409 395.4286,-387.5076 372.7414,-357.3829 358.6701,-336.9673"/>
<polygon fill="#191970" stroke="#191970" points="361.5129,-334.9231 353.011,-328.6011 355.7148,-338.8451 361.5129,-334.9231"/>
</g>
<!-- Node101 -->
<g id="node32" class="node">
<title>Node101</title>
<g id="a_node32"><a xlink:href="DigitalTopology_8h_source.html" target="_top" xlink:title=" ">
<polygon fill="#ffffff" stroke="#ff0000" points="103.8271,-305.5 103.8271,-323.5 264.1729,-323.5 264.1729,-305.5 103.8271,-305.5"/>
<text text-anchor="middle" x="184" y="-311.5" font-family="FreeSans" font-size="10.00" fill="#000000">DGtal/topology/DigitalTopology.h</text>
</a>
</g>
</g>
<!-- Node44&#45;&gt;Node101 -->
<g id="edge57" class="edge">
<title>Node44&#45;&gt;Node101</title>
<path fill="none" stroke="#191970" d="M818.9864,-581.7754C688.0237,-575.6479 391.8965,-559.6845 351,-539 262.7128,-494.3464 209.2013,-378.6435 191.0138,-333.2084"/>
<polygon fill="#191970" stroke="#191970" points="194.2064,-331.761 187.321,-323.7086 187.682,-334.2973 194.2064,-331.761"/>
</g>
<!-- Node108 -->
<g id="node33" class="node">
<title>Node108</title>
<g id="a_node33"><a xlink:href="MetricAdjacency_8h_source.html" target="_top" xlink:title=" ">
<polygon fill="#ffffff" stroke="#ff0000" points="500.0562,-380.5 500.0562,-398.5 665.9438,-398.5 665.9438,-380.5 500.0562,-380.5"/>
<text text-anchor="middle" x="583" y="-386.5" font-family="FreeSans" font-size="10.00" fill="#000000">DGtal/topology/MetricAdjacency.h</text>
</a>
</g>
</g>
<!-- Node44&#45;&gt;Node108 -->
<g id="edge60" class="edge">
<title>Node44&#45;&gt;Node108</title>
<path fill="none" stroke="#191970" d="M818.951,-577.0592C764.6362,-569.5268 690.7895,-556.4985 667,-539 621.9489,-505.8625 597.7841,-440.8582 588.1111,-408.5976"/>
<polygon fill="#191970" stroke="#191970" points="591.3862,-407.3187 585.2835,-398.6581 584.6534,-409.2341 591.3862,-407.3187"/>
</g>
<!-- Node111 -->
<g id="node34" class="node">
<title>Node111</title>
<g id="a_node34"><a xlink:href="Object_8h_source.html" target="_top" xlink:title=" ">
<polygon fill="#ffffff" stroke="#ff0000" points="245.9165,-380.5 245.9165,-398.5 368.0835,-398.5 368.0835,-380.5 245.9165,-380.5"/>
<text text-anchor="middle" x="307" y="-386.5" font-family="FreeSans" font-size="10.00" fill="#000000">DGtal/topology/Object.h</text>
</a>
</g>
</g>
<!-- Node44&#45;&gt;Node111 -->
<g id="edge64" class="edge">
<title>Node44&#45;&gt;Node111</title>
<path fill="none" stroke="#191970" d="M818.8648,-582.1897C693.1127,-577.0328 417.3545,-563.1029 382,-539 336.7148,-508.1269 317.4365,-441.5111 310.4328,-408.6405"/>
<polygon fill="#191970" stroke="#191970" points="313.8093,-407.6713 308.4448,-398.5349 306.9409,-409.0225 313.8093,-407.6713"/>
</g>
<!-- Node120 -->
<g id="node35" class="node">
<title>Node120</title>
<g id="a_node35"><a xlink:href="KhalimskySpaceND_8h_source.html" target="_top" xlink:title=" ">
<polygon fill="#ffffff" stroke="#ff0000" points="746.7539,-445.5 746.7539,-473.5 877.2461,-473.5 877.2461,-445.5 746.7539,-445.5"/>
<text text-anchor="start" x="754.7539" y="-461.5" font-family="FreeSans" font-size="10.00" fill="#000000">DGtal/topology/Khalimsky</text>
<text text-anchor="middle" x="812" y="-451.5" font-family="FreeSans" font-size="10.00" fill="#000000">SpaceND.h</text>
</a>
</g>
</g>
<!-- Node44&#45;&gt;Node120 -->
<g id="edge68" class="edge">
<title>Node44&#45;&gt;Node120</title>
<path fill="none" stroke="#191970" d="M875.8138,-575.1047C865.1041,-555.7031 840.2653,-510.7053 824.9275,-482.9194"/>
<polygon fill="#191970" stroke="#191970" points="827.8341,-480.9424 819.9373,-473.8791 821.7058,-484.3253 827.8341,-480.9424"/>
</g>
<!-- Node121 -->
<g id="node36" class="node">
<title>Node121</title>
<g id="a_node36"><a xlink:href="KhalimskyPreSpaceND_8h_source.html" target="_top" xlink:title=" ">
<polygon fill="#ffffff" stroke="#ff0000" points="759.7539,-375.5 759.7539,-403.5 890.2461,-403.5 890.2461,-375.5 759.7539,-375.5"/>
<text text-anchor="start" x="767.7539" y="-391.5" font-family="FreeSans" font-size="10.00" fill="#000000">DGtal/topology/Khalimsky</text>
<text text-anchor="middle" x="825" y="-381.5" font-family="FreeSans" font-size="10.00" fill="#000000">PreSpaceND.h</text>
</a>
</g>
</g>
<!-- Node44&#45;&gt;Node121 -->
<g id="edge76" class="edge">
<title>Node44&#45;&gt;Node121</title>
<path fill="none" stroke="#191970" d="M884.0096,-575.1678C890.9463,-551.9528 905.9911,-490.2158 886,-445 879.8038,-430.9854 868.1271,-418.9887 856.6352,-409.7721"/>
<polygon fill="#191970" stroke="#191970" points="858.4766,-406.7775 848.3811,-403.5633 854.2686,-412.3716 858.4766,-406.7775"/>
</g>
<!-- Node124 -->
<g id="node37" class="node">
<title>Node124</title>
<g id="a_node37"><a xlink:href="GridCurve_8h_source.html" target="_top" xlink:title="Header file for module GridCurve.cpp.">
<polygon fill="#ffffff" stroke="#ff0000" points="1360.8721,-510.5 1360.8721,-538.5 1479.1279,-538.5 1479.1279,-510.5 1360.8721,-510.5"/>
<text text-anchor="start" x="1368.8721" y="-526.5" font-family="FreeSans" font-size="10.00" fill="#000000">DGtal/geometry/curves</text>
<text text-anchor="middle" x="1420" y="-516.5" font-family="FreeSans" font-size="10.00" fill="#000000">/GridCurve.h</text>
</a>
</g>
</g>
<!-- Node44&#45;&gt;Node124 -->
<g id="edge77" class="edge">
<title>Node44&#45;&gt;Node124</title>
<path fill="none" stroke="#191970" d="M943.0907,-580.0652C1031.8162,-573.3438 1199.8703,-559.1871 1342,-539 1344.8126,-538.6005 1347.6783,-538.1713 1350.5702,-537.7197"/>
<polygon fill="#191970" stroke="#191970" points="1351.1575,-541.1703 1360.4652,-536.1089 1350.0327,-534.2612 1351.1575,-541.1703"/>
</g>
<!-- Node154 -->
<g id="node39" class="node">
<title>Node154</title>
<g id="a_node39"><a xlink:href="ExactPredicateLpSeparableMetric_8h_source.html" target="_top" xlink:title=" ">
<polygon fill="#ffffff" stroke="#ff0000" points="838.6138,-295.5 838.6138,-333.5 1021.3862,-333.5 1021.3862,-295.5 838.6138,-295.5"/>
<text text-anchor="start" x="846.6138" y="-321.5" font-family="FreeSans" font-size="10.00" fill="#000000">DGtal/geometry/volumes</text>
<text text-anchor="start" x="846.6138" y="-311.5" font-family="FreeSans" font-size="10.00" fill="#000000">/distance/ExactPredicateLpSeparable</text>
<text text-anchor="middle" x="930" y="-301.5" font-family="FreeSans" font-size="10.00" fill="#000000">Metric.h</text>
</a>
</g>
</g>
<!-- Node44&#45;&gt;Node154 -->
<g id="edge85" class="edge">
<title>Node44&#45;&gt;Node154</title>
<path fill="none" stroke="#191970" d="M888.3805,-575.3779C895.0202,-566.6174 904.4146,-552.7235 909,-539 931.4151,-471.914 932.6501,-387.6892 931.4368,-343.9392"/>
<polygon fill="#191970" stroke="#191970" points="934.9272,-343.5978 931.087,-333.7234 927.9313,-343.8374 934.9272,-343.5978"/>
</g>
<!-- Node159 -->
<g id="node40" class="node">
<title>Node159</title>
<g id="a_node40"><a xlink:href="ExactPredicateLpPowerSeparableMetric_8h_source.html" target="_top" xlink:title=" ">
<polygon fill="#ffffff" stroke="#ff0000" points="1039.2368,-295.5 1039.2368,-333.5 1204.7632,-333.5 1204.7632,-295.5 1039.2368,-295.5"/>
<text text-anchor="start" x="1047.2368" y="-321.5" font-family="FreeSans" font-size="10.00" fill="#000000">DGtal/geometry/volumes</text>
<text text-anchor="start" x="1047.2368" y="-311.5" font-family="FreeSans" font-size="10.00" fill="#000000">/distance/ExactPredicateLpPower</text>
<text text-anchor="middle" x="1122" y="-301.5" font-family="FreeSans" font-size="10.00" fill="#000000">SeparableMetric.h</text>
</a>
</g>
</g>
<!-- Node44&#45;&gt;Node159 -->
<g id="edge89" class="edge">
<title>Node44&#45;&gt;Node159</title>
<path fill="none" stroke="#191970" d="M890.7263,-575.2946C900.1853,-566.2462 914.8631,-551.9493 927,-539 992.0067,-469.6423 1064.3816,-383.9137 1099.8942,-341.2464"/>
<polygon fill="#191970" stroke="#191970" points="1102.5908,-343.4777 1106.2893,-333.5493 1097.2066,-339.0043 1102.5908,-343.4777"/>
</g>
<!-- Node45&#45;&gt;Node1 -->
<g id="edge47" class="edge">
<title>Node45&#45;&gt;Node1</title>
<path fill="none" stroke="#191970" d="M646.1005,-305.4369C622.5968,-297.0228 591.1359,-282.239 572,-259 548.5387,-230.5081 548,-216.4083 548,-179.5 548,-179.5 548,-179.5 548,-119.5 548,-88.9131 547.7552,-73.6479 572,-55 605.9706,-28.8715 898.5813,-15.0315 1003.6414,-10.8695"/>
<polygon fill="#191970" stroke="#191970" points="1003.9278,-14.3611 1013.7841,-10.4749 1003.6555,-7.3664 1003.9278,-14.3611"/>
</g>
<!-- Node45&#45;&gt;Node2 -->
<g id="edge48" class="edge">
<title>Node45&#45;&gt;Node2</title>
<path fill="none" stroke="#191970" d="M739.7968,-305.538C767.4173,-301.8441 800.2735,-297.7858 830,-295 1115.182,-268.274 1456.2931,-252.843 1599.9037,-247.0985"/>
<polygon fill="#191970" stroke="#191970" points="1600.0457,-250.5958 1609.8989,-246.7017 1599.7679,-243.6013 1600.0457,-250.5958"/>
</g>
<!-- Node67&#45;&gt;Node1 -->
<g id="edge50" class="edge">
<title>Node67&#45;&gt;Node1</title>
<path fill="none" stroke="#191970" d="M1513.8378,-387.2888C1352.0825,-380.6412 892.6947,-359.701 830,-334 805.1996,-323.8333 806.6989,-309.2541 784,-295 709.7267,-248.3591 624,-267.2035 624,-179.5 624,-179.5 624,-179.5 624,-119.5 624,-78.8018 652.4431,-72.8869 689,-55 743.7792,-28.1971 924.2881,-15.6405 1003.3483,-11.3236"/>
<polygon fill="#191970" stroke="#191970" points="1004.0067,-14.7937 1013.8071,-10.7685 1003.6356,-7.8035 1004.0067,-14.7937"/>
</g>
<!-- Node67&#45;&gt;Node2 -->
<g id="edge51" class="edge">
<title>Node67&#45;&gt;Node2</title>
<path fill="none" stroke="#191970" d="M1569.5115,-375.3599C1569.5191,-355.6368 1572.1054,-319.5331 1589,-295 1600.3693,-278.4903 1619.081,-266.2445 1635.5501,-257.9494"/>
<polygon fill="#191970" stroke="#191970" points="1637.3721,-260.9595 1644.9152,-253.5196 1634.3789,-254.6316 1637.3721,-260.9595"/>
</g>
<!-- Node50 -->
<g id="node30" class="node">
<title>Node50</title>
<g id="a_node30"><a xlink:href="NumberTraits_8h_source.html" target="_top" xlink:title=" ">
<polygon fill="#ffffff" stroke="#ff0000" points="1597.5527,-305.5 1597.5527,-323.5 1740.4473,-323.5 1740.4473,-305.5 1597.5527,-305.5"/>
<text text-anchor="middle" x="1669" y="-311.5" font-family="FreeSans" font-size="10.00" fill="#000000">DGtal/kernel/NumberTraits.h</text>
</a>
</g>
</g>
<!-- Node67&#45;&gt;Node50 -->
<g id="edge52" class="edge">
<title>Node67&#45;&gt;Node50</title>
<path fill="none" stroke="#191970" d="M1588.6211,-375.3931C1605.6968,-362.457 1630.9349,-343.3372 1648.5612,-329.9839"/>
<polygon fill="#191970" stroke="#191970" points="1651.1439,-332.4184 1657.0013,-323.5899 1646.9168,-326.8387 1651.1439,-332.4184"/>
</g>
<!-- Node50&#45;&gt;Node2 -->
<g id="edge53" class="edge">
<title>Node50&#45;&gt;Node2</title>
<path fill="none" stroke="#191970" d="M1669,-305.3487C1669,-294.9258 1669,-277.5928 1669,-264.0865"/>
<polygon fill="#191970" stroke="#191970" points="1672.5001,-263.8769 1669,-253.8769 1665.5001,-263.877 1672.5001,-263.8769"/>
</g>
<!-- Node88&#45;&gt;Node1 -->
<g id="edge55" class="edge">
<title>Node88&#45;&gt;Node1</title>
<path fill="none" stroke="#191970" d="M348.5289,-300.4829C355.978,-276.1448 370,-224.3722 370,-179.5 370,-179.5 370,-179.5 370,-119.5 370,-83.2287 388.0352,-72.1422 420,-55 471.3178,-27.4791 876.1809,-14.0524 1003.0908,-10.4908"/>
<polygon fill="#191970" stroke="#191970" points="1003.5639,-13.9792 1013.4635,-10.2045 1003.3707,-6.9819 1003.5639,-13.9792"/>
</g>
<!-- Node88&#45;&gt;Node2 -->
<g id="edge56" class="edge">
<title>Node88&#45;&gt;Node2</title>
<path fill="none" stroke="#191970" d="M405.994,-305.3414C433.5057,-301.5887 466.3106,-297.5389 496,-295 914.125,-259.2434 1418.3739,-248.3373 1599.7975,-245.4375"/>
<polygon fill="#191970" stroke="#191970" points="1600.0514,-248.934 1609.9953,-245.2775 1599.9416,-241.9349 1600.0514,-248.934"/>
</g>
<!-- Node101&#45;&gt;Node1 -->
<g id="edge58" class="edge">
<title>Node101&#45;&gt;Node1</title>
<path fill="none" stroke="#191970" d="M191.4798,-305.3305C207.7686,-284.4016 245,-230.9381 245,-179.5 245,-179.5 245,-179.5 245,-119.5 245,-50.5878 319.2164,-71.9952 386,-55 504.2233,-24.9144 882.6348,-13.3307 1003.5066,-10.3416"/>
<polygon fill="#191970" stroke="#191970" points="1003.8203,-13.8352 1013.7327,-10.0942 1003.6509,-6.8372 1003.8203,-13.8352"/>
</g>
<!-- Node101&#45;&gt;Node2 -->
<g id="edge59" class="edge">
<title>Node101&#45;&gt;Node2</title>
<path fill="none" stroke="#191970" d="M218.407,-305.4505C234.8162,-301.5243 254.7965,-297.3045 273,-295 534.0599,-261.9509 1355.6548,-248.6444 1599.8768,-245.3577"/>
<polygon fill="#191970" stroke="#191970" points="1600.0873,-248.8553 1610.0397,-245.2222 1599.994,-241.8559 1600.0873,-248.8553"/>
</g>
<!-- Node108&#45;&gt;Node1 -->
<g id="edge61" class="edge">
<title>Node108&#45;&gt;Node1</title>
<path fill="none" stroke="#191970" d="M577.2718,-380.2735C560.0627,-351.6446 510,-261.3284 510,-179.5 510,-179.5 510,-179.5 510,-119.5 510,-85.532 522.0162,-72.7135 551,-55 589.3615,-31.5553 895.9091,-15.9036 1003.687,-11.0798"/>
<polygon fill="#191970" stroke="#191970" points="1003.9398,-14.5721 1013.7755,-10.634 1003.6307,-7.5789 1003.9398,-14.5721"/>
</g>
<!-- Node108&#45;&gt;Node2 -->
<g id="edge62" class="edge">
<title>Node108&#45;&gt;Node2</title>
<path fill="none" stroke="#191970" d="M581.9305,-380.4339C580.2294,-361.2057 579.3777,-316.3523 605,-295 643.2364,-263.1358 1369.8382,-249.1479 1599.8199,-245.5066"/>
<polygon fill="#191970" stroke="#191970" points="1600.1238,-249.0024 1610.0677,-245.346 1600.014,-242.0033 1600.1238,-249.0024"/>
</g>
<!-- Node108&#45;&gt;Node45 -->
<g id="edge63" class="edge">
<title>Node108&#45;&gt;Node45</title>
<path fill="none" stroke="#191970" d="M594.5262,-380.3035C610.2563,-367.7529 638.6606,-345.09 657.6761,-329.918"/>
<polygon fill="#191970" stroke="#191970" points="660.0392,-332.5102 665.6731,-323.5374 655.6734,-327.0384 660.0392,-332.5102"/>
</g>
<!-- Node111&#45;&gt;Node1 -->
<g id="edge65" class="edge">
<title>Node111&#45;&gt;Node1</title>
<path fill="none" stroke="#191970" d="M245.6574,-380.7136C190.6828,-371.5863 115.6179,-355.6074 95,-334 66.9276,-304.5803 76,-285.1642 76,-244.5 76,-244.5 76,-244.5 76,-119.5 76,-24.3814 825.6896,-11.4826 1003.5037,-9.7609"/>
<polygon fill="#191970" stroke="#191970" points="1003.706,-13.2594 1013.6739,-9.6688 1003.6425,-6.2596 1003.706,-13.2594"/>
</g>
<!-- Node111&#45;&gt;Node2 -->
<g id="edge66" class="edge">
<title>Node111&#45;&gt;Node2</title>
<path fill="none" stroke="#191970" d="M326.7407,-380.4822C371.0786,-360.7261 482.4056,-313.8849 581,-295 777.4446,-257.3728 1392.2146,-247.4477 1599.7643,-245.1355"/>
<polygon fill="#191970" stroke="#191970" points="1599.9624,-248.6337 1609.9236,-245.0248 1599.886,-241.6341 1599.9624,-248.6337"/>
</g>
<!-- Node111&#45;&gt;Node88 -->
<g id="edge67" class="edge">
<title>Node111&#45;&gt;Node88</title>
<path fill="none" stroke="#191970" d="M311.5369,-380.3035C316.7109,-369.8157 325.3686,-352.2663 332.4424,-337.9276"/>
<polygon fill="#191970" stroke="#191970" points="335.7388,-339.1565 337.0243,-328.64 329.4612,-336.0595 335.7388,-339.1565"/>
</g>
<!-- Node120&#45;&gt;Node1 -->
<g id="edge69" class="edge">
<title>Node120&#45;&gt;Node1</title>
<path fill="none" stroke="#191970" d="M746.5051,-447.3025C741.9377,-446.5061 737.4019,-445.7312 733,-445 679.3653,-436.0911 530.4079,-446.4576 491,-409 459.9486,-379.4853 472,-357.3405 472,-314.5 472,-314.5 472,-314.5 472,-119.5 472,-82.9547 490.8358,-72.35 523,-55 565.0456,-32.3198 891.7019,-16.0386 1003.5667,-11.0802"/>
<polygon fill="#191970" stroke="#191970" points="1003.8679,-14.5704 1013.7051,-10.6359 1003.5614,-7.5771 1003.8679,-14.5704"/>
</g>
<!-- Node120&#45;&gt;Node2 -->
<g id="edge70" class="edge">
<title>Node120&#45;&gt;Node2</title>
<path fill="none" stroke="#191970" d="M877.34,-448C966.2243,-430.83 1128.8463,-393.9361 1257,-334 1284.805,-320.9959 1285.3891,-306.1194 1314,-295 1364.7214,-275.2875 1511.7308,-258.9469 1599.8584,-250.5663"/>
<polygon fill="#191970" stroke="#191970" points="1600.4116,-254.0298 1610.0398,-249.6085 1599.756,-247.0605 1600.4116,-254.0298"/>
</g>
<!-- Node120&#45;&gt;Node45 -->
<g id="edge71" class="edge">
<title>Node120&#45;&gt;Node45</title>
<path fill="none" stroke="#191970" d="M792.9517,-445.447C780.4414,-435.8148 764.0406,-422.3998 751,-409 726.786,-384.1189 702.7454,-351.5961 688.9091,-331.9177"/>
<polygon fill="#191970" stroke="#191970" points="691.7223,-329.8326 683.1429,-323.616 685.9731,-333.8259 691.7223,-329.8326"/>
</g>
<!-- Node120&#45;&gt;Node121 -->
<g id="edge72" class="edge">
<title>Node120&#45;&gt;Node121</title>
<path fill="none" stroke="#191970" d="M814.6307,-445.3345C816.3223,-436.2259 818.5636,-424.1575 820.5295,-413.5717"/>
<polygon fill="#191970" stroke="#191970" points="823.9883,-414.1155 822.3732,-403.6445 817.106,-412.8373 823.9883,-414.1155"/>
</g>
<!-- Node121&#45;&gt;Node1 -->
<g id="edge73" class="edge">
<title>Node121&#45;&gt;Node1</title>
<path fill="none" stroke="#191970" d="M817.4954,-375.2431C805.7485,-354.3539 781.0113,-315.6745 749,-295 695.3924,-260.3775 656.013,-303.2188 610,-259 583.3882,-233.4259 586,-216.4083 586,-179.5 586,-179.5 586,-179.5 586,-119.5 586,-88.9131 585.8343,-73.7504 610,-55 640.7933,-31.1072 904.0833,-16.0844 1003.3433,-11.2251"/>
<polygon fill="#191970" stroke="#191970" points="1003.7012,-14.712 1013.521,-10.7345 1003.3641,-7.7201 1003.7012,-14.712"/>
</g>
<!-- Node121&#45;&gt;Node2 -->
<g id="edge74" class="edge">
<title>Node121&#45;&gt;Node2</title>
<path fill="none" stroke="#191970" d="M890.3915,-383.7989C985.355,-374.9062 1156.3804,-356.4071 1214,-334 1242.6086,-322.8747 1242.306,-305.9032 1271,-295 1329.5606,-272.7481 1502.3351,-256.8335 1599.8995,-249.337"/>
<polygon fill="#191970" stroke="#191970" points="1600.2603,-252.8197 1609.9667,-248.5728 1599.7305,-245.8398 1600.2603,-252.8197"/>
</g>
<!-- Node121&#45;&gt;Node45 -->
<g id="edge75" class="edge">
<title>Node121&#45;&gt;Node45</title>
<path fill="none" stroke="#191970" d="M797.1623,-375.3931C770.4642,-361.8636 730.4183,-341.5701 704.0028,-328.1839"/>
<polygon fill="#191970" stroke="#191970" points="705.4396,-324.9883 694.9375,-323.5899 702.2754,-331.2323 705.4396,-324.9883"/>
</g>
<!-- Node124&#45;&gt;Node1 -->
<g id="edge78" class="edge">
<title>Node124&#45;&gt;Node1</title>
<path fill="none" stroke="#191970" d="M1360.794,-523.3276C1242.0151,-520.2695 966.4609,-509.6179 738,-474 615.6178,-454.9202 558.8738,-492.07 467,-409 434.0015,-379.1636 434,-358.9872 434,-314.5 434,-314.5 434,-314.5 434,-119.5 434,-81.8263 455.471,-72.1789 489,-55 534.5919,-31.6406 886.7673,-15.6431 1003.5277,-10.9372"/>
<polygon fill="#191970" stroke="#191970" points="1003.9055,-14.425 1013.7582,-10.5296 1003.6267,-7.4306 1003.9055,-14.425"/>
</g>
<!-- Node124&#45;&gt;Node2 -->
<g id="edge79" class="edge">
<title>Node124&#45;&gt;Node2</title>
<path fill="none" stroke="#191970" d="M1425.3904,-510.3345C1441.259,-470.4836 1491.6665,-356.324 1570,-295 1589.976,-279.3617 1615.548,-266.4657 1635.6981,-257.6203"/>
<polygon fill="#191970" stroke="#191970" points="1637.28,-260.7508 1645.1062,-253.6092 1634.5346,-254.3116 1637.28,-260.7508"/>
</g>
<!-- Node124&#45;&gt;Node32 -->
<g id="edge80" class="edge">
<title>Node124&#45;&gt;Node32</title>
<path fill="none" stroke="#191970" d="M1479.5927,-523.1475C1604.9863,-519.6562 1892.0229,-508.0894 1983,-474 2082.2315,-436.8176 2110.3905,-417.2155 2176,-334 2206.9676,-294.7223 2179.4577,-260.629 2219,-230 2220.4047,-228.9119 2398.1815,-204.3371 2503.3528,-189.8772"/>
<polygon fill="#191970" stroke="#191970" points="2503.8655,-193.3397 2513.2957,-188.5105 2502.9122,-186.4049 2503.8655,-193.3397"/>
</g>
<!-- Node124&#45;&gt;Node120 -->
<g id="edge81" class="edge">
<title>Node124&#45;&gt;Node120</title>
<path fill="none" stroke="#191970" d="M1360.5954,-518.1492C1249.4274,-506.2644 1010.1546,-480.6843 887.6476,-467.5873"/>
<polygon fill="#191970" stroke="#191970" points="887.9134,-464.0959 877.598,-466.5129 887.1692,-471.0562 887.9134,-464.0959"/>
</g>
<!-- Node124&#45;&gt;Node151 -->
<g id="edge82" class="edge">
<title>Node124&#45;&gt;Node151</title>
<path fill="none" stroke="#191970" d="M1479.2709,-523.2985C1632.7821,-519.7426 2040.4326,-507.3528 2171,-474 2234.0746,-457.8879 2404.8673,-371.8616 2479.8621,-333.2646"/>
<polygon fill="#191970" stroke="#191970" points="2481.6593,-336.2758 2488.943,-328.5817 2478.451,-330.0544 2481.6593,-336.2758"/>
</g>
<!-- Node151&#45;&gt;Node1 -->
<g id="edge83" class="edge">
<title>Node151&#45;&gt;Node1</title>
<path fill="none" stroke="#191970" d="M2589.0089,-301.4345C2657.8369,-288.6238 2752.5496,-269.5291 2767,-259 2841.5382,-204.6885 2869.3675,-121.0492 2805,-55 2773.7775,-22.9618 1330.1873,-11.5042 1078.2938,-9.7474"/>
<polygon fill="#191970" stroke="#191970" points="1078.2088,-6.2468 1068.1849,-9.6777 1078.1604,-13.2466 1078.2088,-6.2468"/>
</g>
<!-- Node151&#45;&gt;Node2 -->
<g id="edge84" class="edge">
<title>Node151&#45;&gt;Node2</title>
<path fill="none" stroke="#191970" d="M2443.1718,-301.5681C2427.64,-299.1182 2411.3057,-296.7714 2396,-295 2155.2436,-267.1361 1867.7235,-252.6959 1738.234,-247.1918"/>
<polygon fill="#191970" stroke="#191970" points="1738.2038,-243.6875 1728.0655,-246.7642 1737.9096,-250.6814 1738.2038,-243.6875"/>
</g>
<!-- Node154&#45;&gt;Node1 -->
<g id="edge86" class="edge">
<title>Node154&#45;&gt;Node1</title>
<path fill="none" stroke="#191970" d="M864.0966,-295.4485C784.7443,-270.5056 662,-224.6295 662,-179.5 662,-179.5 662,-179.5 662,-119.5 662,-74.8577 698.2999,-73.3424 739,-55 785.5544,-34.0192 933.0147,-18.8527 1003.1852,-12.6284"/>
<polygon fill="#191970" stroke="#191970" points="1003.6988,-16.0969 1013.3567,-11.7409 1003.0902,-9.1234 1003.6988,-16.0969"/>
</g>
<!-- Node154&#45;&gt;Node2 -->
<g id="edge88" class="edge">
<title>Node154&#45;&gt;Node2</title>
<path fill="none" stroke="#191970" d="M1021.4834,-296.2287C1024.3517,-295.7942 1027.1959,-295.3829 1030,-295 1236.0322,-266.8634 1481.7405,-252.8961 1599.4324,-247.404"/>
<polygon fill="#191970" stroke="#191970" points="1599.9058,-250.886 1609.7342,-246.9297 1599.5838,-243.8934 1599.9058,-250.886"/>
</g>
<!-- Node154&#45;&gt;Node12 -->
<g id="edge87" class="edge">
<title>Node154&#45;&gt;Node12</title>
<path fill="none" stroke="#191970" d="M934.1703,-295.4078C942.5697,-262.1388 964.9746,-194.297 1013,-165 1044.1481,-145.9987 2213.8538,-123.8815 2423.1223,-120.0723"/>
<polygon fill="#191970" stroke="#191970" points="2423.221,-123.5712 2433.1558,-119.8903 2423.094,-116.5723 2423.221,-123.5712"/>
</g>
<!-- Node159&#45;&gt;Node1 -->
<g id="edge90" class="edge">
<title>Node159&#45;&gt;Node1</title>
<path fill="none" stroke="#191970" d="M1039.1299,-296.5271C916.2323,-268.7026 700,-214.7397 700,-179.5 700,-179.5 700,-179.5 700,-119.5 700,-56.2874 914.9243,-24.1133 1003.5163,-13.5362"/>
<polygon fill="#191970" stroke="#191970" points="1004.1434,-16.9869 1013.671,-12.3528 1003.333,-10.034 1004.1434,-16.9869"/>
</g>
<!-- Node159&#45;&gt;Node2 -->
<g id="edge92" class="edge">
<title>Node159&#45;&gt;Node2</title>
<path fill="none" stroke="#191970" d="M1204.8533,-297.8134C1210.6472,-296.8098 1216.4055,-295.8601 1222,-295 1355.0951,-274.5386 1511.6806,-258.7311 1599.7364,-250.5904"/>
<polygon fill="#191970" stroke="#191970" points="1600.23,-254.0599 1609.8679,-249.6597 1599.5896,-247.0893 1600.23,-254.0599"/>
</g>
<!-- Node159&#45;&gt;Node12 -->
<g id="edge91" class="edge">
<title>Node159&#45;&gt;Node12</title>
<path fill="none" stroke="#191970" d="M1094.7828,-295.2618C1055.0329,-264.9565 989.8693,-205.3992 1029,-165 1054.0911,-139.0955 2214.3551,-122.659 2423.0284,-119.9099"/>
<polygon fill="#191970" stroke="#191970" points="2423.3503,-123.4061 2433.3037,-119.7755 2423.2587,-116.4067 2423.3503,-123.4061"/>
</g>
<!-- Node161&#45;&gt;Node1 -->
<g id="edge94" class="edge">
<title>Node161&#45;&gt;Node1</title>
<path fill="none" stroke="#191970" d="M3074.0451,-300.4334C3086.9887,-276.438 3111,-225.6989 3111,-179.5 3111,-179.5 3111,-179.5 3111,-119.5 3111,-45.2947 3029.5721,-70.4825 2957,-55 2767.0251,-14.4709 1329.3489,-10.0221 1078.331,-9.5534"/>
<polygon fill="#191970" stroke="#191970" points="1078.2623,-6.0533 1068.2561,-9.5355 1078.2499,-13.0533 1078.2623,-6.0533"/>
</g>
<!-- Node161&#45;&gt;Node2 -->
<g id="edge95" class="edge">
<title>Node161&#45;&gt;Node2</title>
<path fill="none" stroke="#191970" d="M3010.913,-302.4046C2995.7775,-299.5095 2979.3149,-296.7525 2964,-295 2723.224,-267.4474 1970.6657,-250.5058 1738.1452,-245.8274"/>
<polygon fill="#191970" stroke="#191970" points="1738.1913,-242.3277 1728.1232,-245.6269 1738.0512,-249.3263 1738.1913,-242.3277"/>
</g>
<!-- Node162 -->
<g id="node42" class="node">
<title>Node162</title>
<g id="a_node42"><a xlink:href="ImplicitHyperCube_8ih_source.html" target="_top" xlink:title=" ">
<polygon fill="#ffffff" stroke="#000000" points="2971.4829,-230.5 2971.4829,-258.5 3082.5171,-258.5 3082.5171,-230.5 2971.4829,-230.5"/>
<text text-anchor="start" x="2979.4829" y="-246.5" font-family="FreeSans" font-size="10.00" fill="#000000">DGtal/shapes/implicit</text>
<text text-anchor="middle" x="3027" y="-236.5" font-family="FreeSans" font-size="10.00" fill="#000000">/ImplicitHyperCube.ih</text>
</a>
</g>
</g>
<!-- Node161&#45;&gt;Node162 -->
<g id="edge96" class="edge">
<title>Node161&#45;&gt;Node162</title>
<path fill="none" stroke="#191970" d="M3058.1078,-300.3345C3052.8744,-290.9413 3045.8874,-278.4004 3039.8609,-267.5837"/>
<polygon fill="#191970" stroke="#191970" points="3042.8051,-265.6767 3034.8805,-258.6445 3036.6901,-269.0836 3042.8051,-265.6767"/>
</g>
<!-- Node163&#45;&gt;Node1 -->
<g id="edge98" class="edge">
<title>Node163&#45;&gt;Node1</title>
<path fill="none" stroke="#191970" d="M1823.1114,-386.8221C1966.726,-379.5355 2344.8941,-358.2639 2396,-334 2417.8619,-323.6205 2412.5754,-306.2545 2434,-295 2518.2199,-250.7588 2563.9892,-308.8751 2645,-259 2684.9459,-234.4069 2708.7703,-209.1791 2693,-165 2644.6953,-29.6789 2531.625,-72.4138 2389,-55 2124.9485,-22.7606 1267.7944,-11.9075 1078.3062,-9.8738"/>
<polygon fill="#191970" stroke="#191970" points="1078.3201,-6.3739 1068.2836,-9.7679 1078.246,-13.3735 1078.3201,-6.3739"/>
</g>
<!-- Node163&#45;&gt;Node2 -->
<g id="edge99" class="edge">
<title>Node163&#45;&gt;Node2</title>
<path fill="none" stroke="#191970" d="M1768.4885,-375.3599C1768.4809,-355.6368 1765.8946,-319.5331 1749,-295 1737.6307,-278.4903 1718.919,-266.2445 1702.4499,-257.9494"/>
<polygon fill="#191970" stroke="#191970" points="1703.6211,-254.6316 1693.0848,-253.5196 1700.6279,-260.9595 1703.6211,-254.6316"/>
</g>
<!-- Node163&#45;&gt;Node50 -->
<g id="edge100" class="edge">
<title>Node163&#45;&gt;Node50</title>
<path fill="none" stroke="#191970" d="M1749.3789,-375.3931C1732.3032,-362.457 1707.0651,-343.3372 1689.4388,-329.9839"/>
<polygon fill="#191970" stroke="#191970" points="1691.0832,-326.8387 1680.9987,-323.5899 1686.8561,-332.4184 1691.0832,-326.8387"/>
</g>
<!-- Node166&#45;&gt;Node1 -->
<g id="edge102" class="edge">
<title>Node166&#45;&gt;Node1</title>
<path fill="none" stroke="#191970" d="M1974.0937,-456.0568C2138.7587,-448.337 2523.7078,-428.7673 2653,-409 2793.5515,-387.5113 2876.0312,-445.7049 2964,-334 2974.724,-320.3824 2965.5566,-312.2633 2964,-295 2959.3144,-243.0359 2943,-231.6749 2943,-179.5 2943,-179.5 2943,-179.5 2943,-119.5 2943,-80.6492 2919.3577,-71.1001 2884,-55 2798.9284,-16.2627 1333.9776,-10.3342 1078.764,-9.5941"/>
<polygon fill="#191970" stroke="#191970" points="1078.5329,-6.0936 1068.5231,-9.5654 1078.5132,-13.0935 1078.5329,-6.0936"/>
</g>
<!-- Node166&#45;&gt;Node2 -->
<g id="edge103" class="edge">
<title>Node166&#45;&gt;Node2</title>
<path fill="none" stroke="#191970" d="M1893.1215,-450.4418C1878.1898,-423.4515 1830.4889,-342.5041 1771,-295 1750.872,-278.927 1724.7952,-266.1289 1704.0469,-257.438"/>
<polygon fill="#191970" stroke="#191970" points="1705.2171,-254.1357 1694.6348,-253.6211 1702.5865,-260.6226 1705.2171,-254.1357"/>
</g>
<!-- Node166&#45;&gt;Node67 -->
<g id="edge104" class="edge">
<title>Node166&#45;&gt;Node67</title>
<path fill="none" stroke="#191970" d="M1855.7912,-450.492C1800.1651,-438.6206 1701.7132,-417.6095 1636.1507,-403.6175"/>
<polygon fill="#191970" stroke="#191970" points="1636.8343,-400.1847 1626.324,-401.5204 1635.3732,-407.0305 1636.8343,-400.1847"/>
</g>
<!-- Node172&#45;&gt;Node1 -->
<g id="edge106" class="edge">
<title>Node172&#45;&gt;Node1</title>
<path fill="none" stroke="#191970" d="M3240.6366,-300.1497C3232.0075,-275.7363 3216,-224.3973 3216,-179.5 3216,-179.5 3216,-179.5 3216,-119.5 3216,-82.3969 3196.3738,-71.212 3163,-55 3114.1949,-31.2919 1358.0063,-12.6848 1078.3631,-9.8692"/>
<polygon fill="#191970" stroke="#191970" points="1078.3495,-6.369 1068.3149,-9.7685 1078.2792,-13.3687 1078.3495,-6.369"/>
</g>
<!-- Node172&#45;&gt;Node2 -->
<g id="edge107" class="edge">
<title>Node172&#45;&gt;Node2</title>
<path fill="none" stroke="#191970" d="M3176.8885,-301.3461C3161.5049,-298.8477 3145.2387,-296.5374 3130,-295 2854.941,-267.2495 1989.9806,-250.1583 1738.324,-245.6811"/>
<polygon fill="#191970" stroke="#191970" points="1738.2762,-242.1798 1728.2158,-245.5022 1738.1523,-249.1787 1738.2762,-242.1798"/>
</g>
<!-- Node190&#45;&gt;Node1 -->
<g id="edge109" class="edge">
<title>Node190&#45;&gt;Node1</title>
<path fill="none" stroke="#191970" d="M2880.212,-305.4679C2887.5667,-283.9519 2905,-227.8513 2905,-179.5 2905,-179.5 2905,-179.5 2905,-119.5 2905,-82.9547 2886.6908,-71.3362 2854,-55 2771.7868,-13.9166 1330.9793,-9.9248 1078.5806,-9.5405"/>
<polygon fill="#191970" stroke="#191970" points="1078.4527,-6.0405 1068.4477,-9.5261 1078.4426,-13.0405 1078.4527,-6.0405"/>
</g>
<!-- Node190&#45;&gt;Node2 -->
<g id="edge110" class="edge">
<title>Node190&#45;&gt;Node2</title>
<path fill="none" stroke="#191970" d="M2842.9534,-305.4141C2826.9925,-301.5306 2807.6441,-297.3562 2790,-295 2585.0486,-267.6305 1949.229,-250.9283 1738.0042,-246.0212"/>
<polygon fill="#191970" stroke="#191970" points="1738.05,-242.5214 1727.9719,-245.7896 1737.8884,-249.5195 1738.05,-242.5214"/>
</g>
<!-- Node199&#45;&gt;Node1 -->
<g id="edge114" class="edge">
<title>Node199&#45;&gt;Node1</title>
<path fill="none" stroke="#191970" d="M2378.6391,-300.4712C2386.1443,-298.6002 2393.7575,-296.7315 2401,-295 2527.2302,-264.8211 2609.803,-306.2239 2675,-194 2697.79,-154.7714 2657.8654,-129.7051 2617,-110 2458.9286,-33.7788 2400.793,-70.6089 2226,-55 1995.1478,-34.3851 1253.7526,-14.8369 1078.42,-10.4249"/>
<polygon fill="#191970" stroke="#191970" points="1078.4772,-6.9253 1068.3926,-10.1736 1078.3017,-13.9231 1078.4772,-6.9253"/>
</g>
<!-- Node199&#45;&gt;Node2 -->
<g id="edge116" class="edge">
<title>Node199&#45;&gt;Node2</title>
<path fill="none" stroke="#191970" d="M2260.6766,-305.7077C2234.4898,-302.1887 2203.8045,-298.2156 2176,-295 2019.632,-276.9158 1835.6722,-259.5716 1738.0374,-250.6769"/>
<polygon fill="#191970" stroke="#191970" points="1738.2769,-247.1843 1728.0011,-249.7646 1737.6432,-254.1556 1738.2769,-247.1843"/>
</g>
<!-- Node199&#45;&gt;Node12 -->
<g id="edge115" class="edge">
<title>Node199&#45;&gt;Node12</title>
<path fill="none" stroke="#191970" d="M2372.3084,-300.4171C2460.6867,-274.1785 2640.9498,-218.2773 2658,-194 2665.4076,-183.4525 2666.0558,-175.0612 2658,-165 2647.3126,-151.652 2541.3506,-133.1536 2486.9204,-124.4291"/>
<polygon fill="#191970" stroke="#191970" points="2487.1897,-120.9281 2476.765,-122.8189 2486.0935,-127.8418 2487.1897,-120.9281"/>
</g>
<!-- Node200&#45;&gt;Node1 -->
<g id="edge118" class="edge">
<title>Node200&#45;&gt;Node1</title>
<path fill="none" stroke="#191970" d="M2644.3774,-386.8548C2790.846,-381.1841 3094.5509,-365.7145 3130,-334 3160.306,-306.8868 3149,-285.1642 3149,-244.5 3149,-244.5 3149,-244.5 3149,-119.5 3149,-61.6722 3091.7213,-70.4655 3036,-55 2938.1478,-27.841 1345.5967,-12.2598 1078.782,-9.8342"/>
<polygon fill="#191970" stroke="#191970" points="1078.4896,-6.3315 1068.4584,-9.7409 1078.4263,-13.3312 1078.4896,-6.3315"/>
</g>
<!-- Node200&#45;&gt;Node2 -->
<g id="edge119" class="edge">
<title>Node200&#45;&gt;Node2</title>
<path fill="none" stroke="#191970" d="M2487.6353,-388.4838C2345.4292,-385.636 2050.9828,-374.8388 1958,-334 1934.3773,-323.6247 1938.0082,-306.6748 1915,-295 1884.6155,-279.5824 1799.6336,-264.1665 1738.0485,-254.4973"/>
<polygon fill="#191970" stroke="#191970" points="1738.4127,-251.012 1727.9942,-252.9369 1737.3391,-257.9292 1738.4127,-251.012"/>
</g>
<!-- Node200&#45;&gt;Node32 -->
<g id="edge122" class="edge">
<title>Node200&#45;&gt;Node32</title>
<path fill="none" stroke="#191970" d="M2580.4084,-370.3218C2587.1814,-360.1103 2594.5206,-347.0004 2598,-334 2610.7627,-286.3134 2595.6388,-228.0184 2585.9264,-198.5325"/>
<polygon fill="#191970" stroke="#191970" points="2589.1117,-197.0336 2582.5384,-188.7244 2582.4953,-199.3192 2589.1117,-197.0336"/>
</g>
<!-- Node200&#45;&gt;Node151 -->
<g id="edge120" class="edge">
<title>Node200&#45;&gt;Node151</title>
<path fill="none" stroke="#191970" d="M2553.1238,-370.1856C2546.3422,-360.0132 2537.9901,-347.4851 2530.9265,-336.8897"/>
<polygon fill="#191970" stroke="#191970" points="2533.818,-334.9172 2525.3588,-328.5382 2527.9936,-338.8002 2533.818,-334.9172"/>
</g>
<!-- Node200&#45;&gt;Node190 -->
<g id="edge121" class="edge">
<title>Node200&#45;&gt;Node190</title>
<path fill="none" stroke="#191970" d="M2644.4784,-370.5743C2702.8944,-356.4869 2780.7117,-337.7207 2829.8428,-325.8723"/>
<polygon fill="#191970" stroke="#191970" points="2830.6724,-329.2727 2839.5731,-323.5258 2829.0312,-322.4678 2830.6724,-329.2727"/>
</g>
<!-- Node206&#45;&gt;Node2 -->
<g id="edge125" class="edge">
<title>Node206&#45;&gt;Node2</title>
<path fill="none" stroke="#191970" d="M1966.5678,-296.836C1892.2918,-283.7724 1793.506,-266.398 1730.5684,-255.3286"/>
<polygon fill="#191970" stroke="#191970" points="1730.856,-251.8256 1720.4009,-253.5404 1729.6434,-258.7197 1730.856,-251.8256"/>
</g>
<!-- Node206&#45;&gt;Node12 -->
<g id="edge124" class="edge">
<title>Node206&#45;&gt;Node12</title>
<path fill="none" stroke="#191970" d="M2086.5232,-295.2504C2107.8424,-275.4573 2143.9203,-245.4152 2181,-230 2279.7845,-188.9323 2332.8975,-257.4925 2419,-194 2437.0196,-180.7122 2446.4417,-155.9895 2451.0557,-138.681"/>
<polygon fill="#191970" stroke="#191970" points="2454.5508,-139.1081 2453.4356,-128.5722 2447.7371,-137.504 2454.5508,-139.1081"/>
</g>
<!-- Node214&#45;&gt;Node1 -->
<g id="edge127" class="edge">
<title>Node214&#45;&gt;Node1</title>
<path fill="none" stroke="#191970" d="M2739.124,-305.4077C2783.0609,-288.2571 2867,-246.6984 2867,-179.5 2867,-179.5 2867,-179.5 2867,-119.5 2867,-85.7683 2856.2633,-71.7776 2827,-55 2787.7066,-32.4719 1332.4523,-13.1652 1078.5832,-9.965"/>
<polygon fill="#191970" stroke="#191970" points="1078.4383,-6.463 1068.3951,-9.8371 1078.3504,-13.4624 1078.4383,-6.463"/>
</g>
<!-- Node214&#45;&gt;Node2 -->
<g id="edge129" class="edge">
<title>Node214&#45;&gt;Node2</title>
<path fill="none" stroke="#191970" d="M2667.0042,-305.4699C2646.0351,-301.671 2620.8423,-297.5491 2598,-295 2277.8816,-259.2759 1892.7714,-248.5646 1738.1728,-245.5749"/>
<polygon fill="#191970" stroke="#191970" points="1737.9491,-242.0702 1727.8848,-245.3809 1737.817,-249.0689 1737.9491,-242.0702"/>
</g>
<!-- Node214&#45;&gt;Node4 -->
<g id="edge128" class="edge">
<title>Node214&#45;&gt;Node4</title>
<path fill="none" stroke="#191970" d="M2713.2262,-305.2398C2713.359,-279.8228 2710.3947,-208.0118 2675,-165 2660.4626,-147.3341 2637.4742,-136.1054 2617.6375,-129.2234"/>
<polygon fill="#191970" stroke="#191970" points="2618.5006,-125.8245 2607.9092,-126.0973 2616.359,-132.4889 2618.5006,-125.8245"/>
</g>
</g>
</svg>
