<?xml version="1.0" encoding="UTF-8" standalone="no"?>
<!DOCTYPE svg PUBLIC "-//W3C//DTD SVG 1.1//EN"
 "http://www.w3.org/Graphics/SVG/1.1/DTD/svg11.dtd">
<!-- Generated by graphviz version 2.40.1 (20161225.0304)
 -->
<!-- Title: testStabbingCircleComputer.cpp Pages: 1 -->
<!--zoomable 692 -->
<svg id="main" version="1.1" xmlns="http://www.w3.org/2000/svg" xmlns:xlink="http://www.w3.org/1999/xlink" xml:space="preserve" onload="init(evt)">
<style type="text/css"><![CDATA[
.edge:hover path { stroke: red; }
.edge:hover polygon { stroke: red; fill: red; }
]]></style>
<script type="text/javascript"><![CDATA[
var edges = document.getElementsByTagName('g');
if (edges && edges.length) {
  for (var i=0;i<edges.length;i++) {
    if (edges[i].id.substr(0,4)=='edge') {
      edges[i].setAttribute('class','edge');
    }
  }
}
]]></script>
        <defs>
                <circle id="rim" cx="0" cy="0" r="7"/>
                <circle id="rim2" cx="0" cy="0" r="3.5"/>
                <g id="zoomPlus">
                        <use xlink:href="#rim" fill="#404040">
                                <set attributeName="fill" to="#808080" begin="zoomplus.mouseover" end="zoomplus.mouseout"/>
                        </use>
                        <path d="M-4,0h8M0,-4v8" fill="none" stroke="white" stroke-width="1.5" pointer-events="none"/>
                </g>
                <g id="zoomMin">
                        <use xlink:href="#rim" fill="#404040">
                                <set attributeName="fill" to="#808080" begin="zoomminus.mouseover" end="zoomminus.mouseout"/>
                        </use>
                        <path d="M-4,0h8" fill="none" stroke="white" stroke-width="1.5" pointer-events="none"/>
                </g>
                <g id="dirArrow">
                        <path fill="none" stroke="white" stroke-width="1.5" d="M0,-3.0v7 M-2.5,-0.5L0,-3.0L2.5,-0.5"/>
                </g>
               <g id="resetDef">
                       <use xlink:href="#rim2" fill="#404040">
                               <set attributeName="fill" to="#808080" begin="reset.mouseover" end="reset.mouseout"/>
                       </use>
               </g>
        </defs>

<script type="text/javascript">
var viewWidth = 3286;
var viewHeight = 692;
var sectionId = 'dynsection-0';
</script>
<script xlink:href="svgpan.js"/>
<svg id="graph" class="graph">
<g id="viewport">
<title>testStabbingCircleComputer.cpp</title>
<polygon fill="#ffffff" stroke="transparent" points="-4,4 -4,-688 3281.793,-688 3281.793,4 -4,4"/>
<!-- Node0 -->
<g id="node1" class="node">
<title>Node0</title>
<g id="a_node1"><a xlink:title="Functions for testing class StabbingCircleComputer.">
<polygon fill="#bfbfbf" stroke="#000000" points="2181.2935,-665.5 2181.2935,-683.5 2340.7065,-683.5 2340.7065,-665.5 2181.2935,-665.5"/>
<text text-anchor="middle" x="2261" y="-671.5" font-family="FreeSans" font-size="10.00" fill="#000000">testStabbingCircleComputer.cpp</text>
</a>
</g>
</g>
<!-- Node1 -->
<g id="node2" class="node">
<title>Node1</title>
<g id="a_node2"><a xlink:title=" ">
<polygon fill="#ffffff" stroke="#bfbfbf" points="984.8276,-.5 984.8276,-18.5 1039.1724,-18.5 1039.1724,-.5 984.8276,-.5"/>
<text text-anchor="middle" x="1012" y="-6.5" font-family="FreeSans" font-size="10.00" fill="#000000">iostream</text>
</a>
</g>
</g>
<!-- Node0&#45;&gt;Node1 -->
<g id="edge1" class="edge">
<title>Node0&#45;&gt;Node1</title>
<path fill="none" stroke="#191970" d="M2181.1939,-672.5703C1779.7152,-662.6069 0,-615.2936 0,-559.5 0,-559.5 0,-559.5 0,-119.5 0,-81.5364 21.8437,-71.5706 56,-55 98.0072,-34.6206 803.3734,-14.9483 974.7183,-10.455"/>
<polygon fill="#191970" stroke="#191970" points="974.8622,-13.9526 984.7675,-10.1929 974.6796,-6.9549 974.8622,-13.9526"/>
</g>
<!-- Node2 -->
<g id="node3" class="node">
<title>Node2</title>
<g id="a_node3"><a xlink:href="Common_8h_source.html" target="_top" xlink:title=" ">
<polygon fill="#ffffff" stroke="#000000" points="1277.1455,-235.5 1277.1455,-253.5 1394.8545,-253.5 1394.8545,-235.5 1277.1455,-235.5"/>
<text text-anchor="middle" x="1336" y="-241.5" font-family="FreeSans" font-size="10.00" fill="#000000">DGtal/base/Common.h</text>
</a>
</g>
</g>
<!-- Node0&#45;&gt;Node2 -->
<g id="edge2" class="edge">
<title>Node0&#45;&gt;Node2</title>
<path fill="none" stroke="#191970" d="M2180.9509,-670.4871C1987.9873,-659.7478 1513,-626.5073 1513,-559.5 1513,-559.5 1513,-559.5 1513,-369.5 1513,-306.5916 1437.4762,-272.5324 1385.095,-256.4753"/>
<polygon fill="#191970" stroke="#191970" points="1385.8632,-253.0532 1375.282,-253.5922 1383.8898,-259.7693 1385.8632,-253.0532"/>
</g>
<!-- Node42 -->
<g id="node25" class="node">
<title>Node42</title>
<g id="a_node25"><a xlink:href="SpaceND_8h_source.html" target="_top" xlink:title=" ">
<polygon fill="#ffffff" stroke="#000000" points="1359.2539,-420.5 1359.2539,-438.5 1484.7461,-438.5 1484.7461,-420.5 1359.2539,-420.5"/>
<text text-anchor="middle" x="1422" y="-426.5" font-family="FreeSans" font-size="10.00" fill="#000000">DGtal/kernel/SpaceND.h</text>
</a>
</g>
</g>
<!-- Node0&#45;&gt;Node42 -->
<g id="edge41" class="edge">
<title>Node0&#45;&gt;Node42</title>
<path fill="none" stroke="#191970" d="M2181.0864,-672.0422C1991.1009,-665.8884 1526.2025,-648.8772 1499,-629 1439.5427,-585.5536 1425.9962,-489.6665 1422.9102,-448.6842"/>
<polygon fill="#191970" stroke="#191970" points="1426.4015,-448.4338 1422.2877,-438.6702 1419.415,-448.8681 1426.4015,-448.4338"/>
</g>
<!-- Node64 -->
<g id="node29" class="node">
<title>Node64</title>
<g id="a_node29"><a xlink:href="HyperRectDomain_8h_source.html" target="_top" xlink:title=" ">
<polygon fill="#ffffff" stroke="#000000" points="671.9238,-480.5 671.9238,-508.5 784.0762,-508.5 784.0762,-480.5 671.9238,-480.5"/>
<text text-anchor="start" x="679.9238" y="-496.5" font-family="FreeSans" font-size="10.00" fill="#000000">DGtal/kernel/domains</text>
<text text-anchor="middle" x="728" y="-486.5" font-family="FreeSans" font-size="10.00" fill="#000000">/HyperRectDomain.h</text>
</a>
</g>
</g>
<!-- Node0&#45;&gt;Node64 -->
<g id="edge55" class="edge">
<title>Node0&#45;&gt;Node64</title>
<path fill="none" stroke="#191970" d="M2180.9016,-674.0121C1958.1767,-672.219 1334.655,-664.1166 1133,-629 995.4947,-605.0546 841.044,-543.5144 769.0528,-512.6786"/>
<polygon fill="#191970" stroke="#191970" points="770.0207,-509.2844 759.4522,-508.5384 767.2487,-515.7122 770.0207,-509.2844"/>
</g>
<!-- Node85 -->
<g id="node36" class="node">
<title>Node85</title>
<g id="a_node36"><a xlink:href="KhalimskySpaceND_8h_source.html" target="_top" xlink:title=" ">
<polygon fill="#ffffff" stroke="#ff0000" points="1540.7539,-480.5 1540.7539,-508.5 1671.2461,-508.5 1671.2461,-480.5 1540.7539,-480.5"/>
<text text-anchor="start" x="1548.7539" y="-496.5" font-family="FreeSans" font-size="10.00" fill="#000000">DGtal/topology/Khalimsky</text>
<text text-anchor="middle" x="1606" y="-486.5" font-family="FreeSans" font-size="10.00" fill="#000000">SpaceND.h</text>
</a>
</g>
</g>
<!-- Node0&#45;&gt;Node85 -->
<g id="edge81" class="edge">
<title>Node0&#45;&gt;Node85</title>
<path fill="none" stroke="#191970" d="M2181.2445,-668.0287C2078.2861,-657.6338 1895.0167,-632.138 1749,-574 1708.0417,-557.692 1664.1861,-531.9373 1636.0007,-514.1844"/>
<polygon fill="#191970" stroke="#191970" points="1637.7389,-511.1419 1627.4237,-508.7237 1633.9795,-517.0467 1637.7389,-511.1419"/>
</g>
<!-- Node91 -->
<g id="node38" class="node">
<title>Node91</title>
<g id="a_node38"><a xlink:href="ShapeFactory_8h_source.html" target="_top" xlink:title=" ">
<polygon fill="#ffffff" stroke="#ff0000" points="1980.3887,-300.5 1980.3887,-318.5 2129.6113,-318.5 2129.6113,-300.5 1980.3887,-300.5"/>
<text text-anchor="middle" x="2055" y="-306.5" font-family="FreeSans" font-size="10.00" fill="#000000">DGtal/shapes/ShapeFactory.h</text>
</a>
</g>
</g>
<!-- Node0&#45;&gt;Node91 -->
<g id="edge88" class="edge">
<title>Node0&#45;&gt;Node91</title>
<path fill="none" stroke="#191970" d="M2287.9948,-665.3997C2327.3912,-650.2092 2396,-615.6889 2396,-559.5 2396,-559.5 2396,-559.5 2396,-429.5 2396,-398.6933 2195.4063,-344.5524 2101.9198,-320.9929"/>
<polygon fill="#191970" stroke="#191970" points="2102.693,-317.5785 2092.1421,-318.542 2100.991,-324.3685 2102.693,-317.5785"/>
</g>
<!-- Node117 -->
<g id="node39" class="node">
<title>Node117</title>
<g id="a_node39"><a xlink:href="DGtal_2shapes_2Shapes_8h_source.html" target="_top" xlink:title=" ">
<polygon fill="#ffffff" stroke="#ff0000" points="1194.1899,-610.5 1194.1899,-628.5 1315.8101,-628.5 1315.8101,-610.5 1194.1899,-610.5"/>
<text text-anchor="middle" x="1255" y="-616.5" font-family="FreeSans" font-size="10.00" fill="#000000">DGtal/shapes/Shapes.h</text>
</a>
</g>
</g>
<!-- Node0&#45;&gt;Node117 -->
<g id="edge91" class="edge">
<title>Node0&#45;&gt;Node117</title>
<path fill="none" stroke="#191970" d="M2181.22,-670.1383C1989.9982,-659.6838 1507.9203,-633.3277 1325.9843,-623.3808"/>
<polygon fill="#191970" stroke="#191970" points="1326.1675,-619.8857 1315.9913,-622.8345 1325.7853,-626.8753 1326.1675,-619.8857"/>
</g>
<!-- Node121 -->
<g id="node40" class="node">
<title>Node121</title>
<g id="a_node40"><a xlink:href="Surfaces_8h_source.html" target="_top" xlink:title=" ">
<polygon fill="#ffffff" stroke="#ff0000" points="1845.1382,-295.5 1845.1382,-323.5 1962.8618,-323.5 1962.8618,-295.5 1845.1382,-295.5"/>
<text text-anchor="start" x="1853.1382" y="-311.5" font-family="FreeSans" font-size="10.00" fill="#000000">DGtal/topology/helpers</text>
<text text-anchor="middle" x="1904" y="-301.5" font-family="FreeSans" font-size="10.00" fill="#000000">/Surfaces.h</text>
</a>
</g>
</g>
<!-- Node0&#45;&gt;Node121 -->
<g id="edge106" class="edge">
<title>Node0&#45;&gt;Node121</title>
<path fill="none" stroke="#191970" d="M2188.2932,-665.4591C2126.5888,-653.2392 2048,-624.8483 2048,-559.5 2048,-559.5 2048,-559.5 2048,-429.5 2048,-379.2775 1995.6674,-345.9971 1954.0989,-327.4839"/>
<polygon fill="#191970" stroke="#191970" points="1955.4498,-324.255 1944.8794,-323.5359 1952.6943,-330.6899 1955.4498,-324.255"/>
</g>
<!-- Node129 -->
<g id="node41" class="node">
<title>Node129</title>
<g id="a_node41"><a xlink:href="GaussDigitizer_8h_source.html" target="_top" xlink:title="Computes the Gauss digitization of some Euclidean shape.">
<polygon fill="#ffffff" stroke="#ff0000" points="966.9116,-550.5 966.9116,-568.5 1119.0884,-568.5 1119.0884,-550.5 966.9116,-550.5"/>
<text text-anchor="middle" x="1043" y="-556.5" font-family="FreeSans" font-size="10.00" fill="#000000">DGtal/shapes/GaussDigitizer.h</text>
</a>
</g>
</g>
<!-- Node0&#45;&gt;Node129 -->
<g id="edge107" class="edge">
<title>Node0&#45;&gt;Node129</title>
<path fill="none" stroke="#191970" d="M2180.9803,-673.0107C1947.9887,-668.409 1280.48,-653.249 1185,-629 1140.0239,-617.5774 1092.5205,-590.9298 1065.4442,-574.1488"/>
<polygon fill="#191970" stroke="#191970" points="1067.0812,-571.0432 1056.7565,-568.6658 1063.3451,-576.9628 1067.0812,-571.0432"/>
</g>
<!-- Node134 -->
<g id="node42" class="node">
<title>Node134</title>
<g id="a_node42"><a xlink:href="GridCurve_8h_source.html" target="_top" xlink:title="Header file for module GridCurve.cpp.">
<polygon fill="#ffffff" stroke="#ff0000" points="1757.8721,-545.5 1757.8721,-573.5 1876.1279,-573.5 1876.1279,-545.5 1757.8721,-545.5"/>
<text text-anchor="start" x="1765.8721" y="-561.5" font-family="FreeSans" font-size="10.00" fill="#000000">DGtal/geometry/curves</text>
<text text-anchor="middle" x="1817" y="-551.5" font-family="FreeSans" font-size="10.00" fill="#000000">/GridCurve.h</text>
</a>
</g>
</g>
<!-- Node0&#45;&gt;Node134 -->
<g id="edge108" class="edge">
<title>Node0&#45;&gt;Node134</title>
<path fill="none" stroke="#191970" d="M2206.951,-665.4279C2160.7145,-657.2482 2092.5522,-644.1935 2034,-629 1975.4409,-613.8047 1909.4042,-591.9613 1865.7229,-576.8358"/>
<polygon fill="#191970" stroke="#191970" points="1866.8033,-573.506 1856.2085,-573.5251 1864.5028,-580.1172 1866.8033,-573.506"/>
</g>
<!-- Node164 -->
<g id="node43" class="node">
<title>Node164</title>
<g id="a_node43"><a xlink:href="CBidirectionalSegmentComputer_8h_source.html" target="_top" xlink:title=" ">
<polygon fill="#ffffff" stroke="#ff0000" points="2147.9019,-295.5 2147.9019,-323.5 2320.0981,-323.5 2320.0981,-295.5 2147.9019,-295.5"/>
<text text-anchor="start" x="2155.9019" y="-311.5" font-family="FreeSans" font-size="10.00" fill="#000000">DGtal/geometry/curves</text>
<text text-anchor="middle" x="2234" y="-301.5" font-family="FreeSans" font-size="10.00" fill="#000000">/CBidirectionalSegmentComputer.h</text>
</a>
</g>
</g>
<!-- Node0&#45;&gt;Node164 -->
<g id="edge113" class="edge">
<title>Node0&#45;&gt;Node164</title>
<path fill="none" stroke="#191970" d="M2305.9738,-665.4721C2344.135,-656.9867 2395.0099,-643.4581 2410,-629 2433.521,-606.3138 2434,-592.1788 2434,-559.5 2434,-559.5 2434,-559.5 2434,-429.5 2434,-396.8212 2433.7124,-382.4861 2410,-360 2396.0779,-346.7979 2356.1526,-334.8179 2317.8424,-325.8429"/>
<polygon fill="#191970" stroke="#191970" points="2318.1588,-322.3251 2307.6304,-323.5101 2316.5998,-329.1493 2318.1588,-322.3251"/>
</g>
<!-- Node169 -->
<g id="node44" class="node">
<title>Node169</title>
<g id="a_node44"><a xlink:href="StabbingCircleComputer_8h_source.html" target="_top" xlink:title="Header file for module StabbingCircleComputer.cpp.">
<polygon fill="#ffffff" stroke="#ff0000" points="2724.2441,-295.5 2724.2441,-323.5 2859.7559,-323.5 2859.7559,-295.5 2724.2441,-295.5"/>
<text text-anchor="start" x="2732.2441" y="-311.5" font-family="FreeSans" font-size="10.00" fill="#000000">DGtal/geometry/curves</text>
<text text-anchor="middle" x="2792" y="-301.5" font-family="FreeSans" font-size="10.00" fill="#000000">/StabbingCircleComputer.h</text>
</a>
</g>
</g>
<!-- Node0&#45;&gt;Node169 -->
<g id="edge116" class="edge">
<title>Node0&#45;&gt;Node169</title>
<path fill="none" stroke="#191970" d="M2340.855,-669.6475C2466.2022,-659.8139 2695,-631.9425 2695,-559.5 2695,-559.5 2695,-559.5 2695,-429.5 2695,-386.7724 2732.6542,-350.7049 2761.0419,-329.5847"/>
<polygon fill="#191970" stroke="#191970" points="2763.4145,-332.1903 2769.5024,-323.5192 2759.3359,-326.5012 2763.4145,-332.1903"/>
</g>
<!-- Node170 -->
<g id="node45" class="node">
<title>Node170</title>
<g id="a_node45"><a xlink:href="SegmentComputerUtils_8h_source.html" target="_top" xlink:title=" ">
<polygon fill="#ffffff" stroke="#ff0000" points="2886.7539,-230.5 2886.7539,-258.5 3017.2461,-258.5 3017.2461,-230.5 2886.7539,-230.5"/>
<text text-anchor="start" x="2894.7539" y="-246.5" font-family="FreeSans" font-size="10.00" fill="#000000">DGtal/geometry/curves</text>
<text text-anchor="middle" x="2952" y="-236.5" font-family="FreeSans" font-size="10.00" fill="#000000">/SegmentComputerUtils.h</text>
</a>
</g>
</g>
<!-- Node0&#45;&gt;Node170 -->
<g id="edge121" class="edge">
<title>Node0&#45;&gt;Node170</title>
<path fill="none" stroke="#191970" d="M2340.7736,-672.8134C2563.874,-667.0452 3178,-643.5349 3178,-559.5 3178,-559.5 3178,-559.5 3178,-369.5 3178,-335.329 3183.2881,-319.0363 3159,-295 3140.3279,-276.5215 3078.6573,-263.0026 3027.4477,-254.6278"/>
<polygon fill="#191970" stroke="#191970" points="3027.7871,-251.1378 3017.3611,-253.0215 3026.6862,-258.0507 3027.7871,-251.1378"/>
</g>
<!-- Node186 -->
<g id="node46" class="node">
<title>Node186</title>
<g id="a_node46"><a xlink:href="GreedySegmentation_8h_source.html" target="_top" xlink:title="Header file for module GreedySegmentation.cpp.">
<polygon fill="#ffffff" stroke="#ff0000" points="2878.1899,-295.5 2878.1899,-323.5 2999.8101,-323.5 2999.8101,-295.5 2878.1899,-295.5"/>
<text text-anchor="start" x="2886.1899" y="-311.5" font-family="FreeSans" font-size="10.00" fill="#000000">DGtal/geometry/curves</text>
<text text-anchor="middle" x="2939" y="-301.5" font-family="FreeSans" font-size="10.00" fill="#000000">/GreedySegmentation.h</text>
</a>
</g>
</g>
<!-- Node0&#45;&gt;Node186 -->
<g id="edge122" class="edge">
<title>Node0&#45;&gt;Node186</title>
<path fill="none" stroke="#191970" d="M2340.866,-669.7723C2417.3754,-664.0817 2535.692,-652.2321 2636,-629 2727.6762,-607.7671 2836,-653.6029 2836,-559.5 2836,-559.5 2836,-559.5 2836,-429.5 2836,-385.77 2875.8718,-350.0031 2906.0007,-329.2184"/>
<polygon fill="#191970" stroke="#191970" points="2908.2004,-331.959 2914.5904,-323.508 2904.325,-326.1295 2908.2004,-331.959"/>
</g>
<!-- Node188 -->
<g id="node47" class="node">
<title>Node188</title>
<g id="a_node47"><a xlink:href="SaturatedSegmentation_8h_source.html" target="_top" xlink:title="Header file for module SaturatedSegmentation.cpp.">
<polygon fill="#ffffff" stroke="#ff0000" points="3017.9043,-295.5 3017.9043,-323.5 3150.0957,-323.5 3150.0957,-295.5 3017.9043,-295.5"/>
<text text-anchor="start" x="3025.9043" y="-311.5" font-family="FreeSans" font-size="10.00" fill="#000000">DGtal/geometry/curves</text>
<text text-anchor="middle" x="3084" y="-301.5" font-family="FreeSans" font-size="10.00" fill="#000000">/SaturatedSegmentation.h</text>
</a>
</g>
</g>
<!-- Node0&#45;&gt;Node188 -->
<g id="edge126" class="edge">
<title>Node0&#45;&gt;Node188</title>
<path fill="none" stroke="#191970" d="M2341.1037,-669.3969C2456.9561,-661.5859 2665.4513,-645.7949 2739,-629 2825.8468,-609.1685 2927,-648.5823 2927,-559.5 2927,-559.5 2927,-559.5 2927,-429.5 2927,-377.4532 2982.1369,-344.9508 3027.061,-327.1066"/>
<polygon fill="#191970" stroke="#191970" points="3028.3719,-330.3526 3036.4688,-323.5196 3025.878,-323.8119 3028.3719,-330.3526"/>
</g>
<!-- Node190 -->
<g id="node48" class="node">
<title>Node190</title>
<g id="a_node48"><a xlink:href="Board2D_8h_source.html" target="_top" xlink:title=" ">
<polygon fill="#ffffff" stroke="#ff0000" points="2375.9683,-300.5 2375.9683,-318.5 2512.0317,-318.5 2512.0317,-300.5 2375.9683,-300.5"/>
<text text-anchor="middle" x="2444" y="-306.5" font-family="FreeSans" font-size="10.00" fill="#000000">DGtal/io/boards/Board2D.h</text>
</a>
</g>
</g>
<!-- Node0&#45;&gt;Node190 -->
<g id="edge130" class="edge">
<title>Node0&#45;&gt;Node190</title>
<path fill="none" stroke="#191970" d="M2311.8685,-665.4427C2355.1621,-656.9376 2413.2307,-643.3965 2432,-629 2460.2789,-607.3095 2472,-595.1395 2472,-559.5 2472,-559.5 2472,-559.5 2472,-429.5 2472,-392.9331 2459.5172,-351.6994 2451.2209,-328.3329"/>
<polygon fill="#191970" stroke="#191970" points="2454.4008,-326.8394 2447.6605,-318.6651 2447.8321,-329.2586 2454.4008,-326.8394"/>
</g>
<!-- Node369 -->
<g id="node49" class="node">
<title>Node369</title>
<g id="a_node49"><a xlink:href="CDrawableWithBoard2D_8h_source.html" target="_top" xlink:title=" ">
<polygon fill="#ffffff" stroke="#ff0000" points="2568.1406,-295.5 2568.1406,-323.5 2705.8594,-323.5 2705.8594,-295.5 2568.1406,-295.5"/>
<text text-anchor="start" x="2576.1406" y="-311.5" font-family="FreeSans" font-size="10.00" fill="#000000">DGtal/io/boards/CDrawable</text>
<text text-anchor="middle" x="2637" y="-301.5" font-family="FreeSans" font-size="10.00" fill="#000000">WithBoard2D.h</text>
</a>
</g>
</g>
<!-- Node0&#45;&gt;Node369 -->
<g id="edge133" class="edge">
<title>Node0&#45;&gt;Node369</title>
<path fill="none" stroke="#191970" d="M2323.4704,-665.4924C2418.1299,-650.0629 2587,-614.7893 2587,-559.5 2587,-559.5 2587,-559.5 2587,-429.5 2587,-393.4365 2606.4798,-355.6415 2621.1217,-332.3266"/>
<polygon fill="#191970" stroke="#191970" points="2624.12,-334.1361 2626.64,-323.8453 2618.2526,-330.3186 2624.12,-334.1361"/>
</g>
<!-- Node370 -->
<g id="node50" class="node">
<title>Node370</title>
<g id="a_node50"><a xlink:title=" ">
<polygon fill="#ffffff" stroke="#bfbfbf" points="3206.207,-610.5 3206.207,-628.5 3277.793,-628.5 3277.793,-610.5 3206.207,-610.5"/>
<text text-anchor="middle" x="3242" y="-616.5" font-family="FreeSans" font-size="10.00" fill="#000000">ConfigTest.h</text>
</a>
</g>
</g>
<!-- Node0&#45;&gt;Node370 -->
<g id="edge136" class="edge">
<title>Node0&#45;&gt;Node370</title>
<path fill="none" stroke="#191970" d="M2341.059,-672.0191C2535.4284,-665.7646 3028.2931,-648.457 3192,-629 3193.2832,-628.8475 3194.583,-628.6814 3195.8933,-628.5038"/>
<polygon fill="#191970" stroke="#191970" points="3196.6873,-631.9231 3206.0426,-626.9503 3195.6282,-625.0037 3196.6873,-631.9231"/>
</g>
<!-- Node2&#45;&gt;Node1 -->
<g id="edge3" class="edge">
<title>Node2&#45;&gt;Node1</title>
<path fill="none" stroke="#191970" d="M1277.022,-240.2428C1124.953,-229.1926 730.5144,-200.0349 718,-194 682.3147,-176.7913 671.5784,-165.8381 657,-129 653.8926,-121.1481 652.1953,-116.9443 657,-110 693.567,-57.1491 890.9309,-25.4029 974.54,-14.1485"/>
<polygon fill="#191970" stroke="#191970" points="975.1666,-17.5963 984.6221,-12.8169 974.2499,-10.6565 975.1666,-17.5963"/>
</g>
<!-- Node3 -->
<g id="node4" class="node">
<title>Node3</title>
<g id="a_node4"><a xlink:title=" ">
<polygon fill="#ffffff" stroke="#bfbfbf" points="903.5962,-170.5 903.5962,-188.5 962.4038,-188.5 962.4038,-170.5 903.5962,-170.5"/>
<text text-anchor="middle" x="933" y="-176.5" font-family="FreeSans" font-size="10.00" fill="#000000">exception</text>
</a>
</g>
</g>
<!-- Node2&#45;&gt;Node3 -->
<g id="edge4" class="edge">
<title>Node2&#45;&gt;Node3</title>
<path fill="none" stroke="#191970" d="M1276.8,-237.5519C1189.8316,-227.1134 1031.8124,-207.2037 976,-194 973.0292,-193.2972 969.9725,-192.4749 966.924,-191.5854"/>
<polygon fill="#191970" stroke="#191970" points="967.919,-188.2295 957.33,-188.5795 965.8261,-194.9093 967.919,-188.2295"/>
</g>
<!-- Node4 -->
<g id="node5" class="node">
<title>Node4</title>
<g id="a_node5"><a xlink:title=" ">
<polygon fill="#ffffff" stroke="#bfbfbf" points="2213.436,-110.5 2213.436,-128.5 2270.564,-128.5 2270.564,-110.5 2213.436,-110.5"/>
<text text-anchor="middle" x="2242" y="-116.5" font-family="FreeSans" font-size="10.00" fill="#000000">algorithm</text>
</a>
</g>
</g>
<!-- Node2&#45;&gt;Node4 -->
<g id="edge5" class="edge">
<title>Node2&#45;&gt;Node4</title>
<path fill="none" stroke="#191970" d="M1395.1785,-243.0394C1588.5202,-238.0197 2191.0401,-220.3229 2223,-194 2239.0586,-180.7738 2242.6062,-156.0377 2242.9243,-138.7092"/>
<polygon fill="#191970" stroke="#191970" points="2246.422,-138.5312 2242.7661,-128.5871 2239.4229,-138.6406 2246.422,-138.5312"/>
</g>
<!-- Node5 -->
<g id="node6" class="node">
<title>Node5</title>
<g id="a_node6"><a xlink:title=" ">
<polygon fill="#ffffff" stroke="#bfbfbf" points="1169.5298,-170.5 1169.5298,-188.5 1264.4702,-188.5 1264.4702,-170.5 1169.5298,-170.5"/>
<text text-anchor="middle" x="1217" y="-176.5" font-family="FreeSans" font-size="10.00" fill="#000000">boost/version.hpp</text>
</a>
</g>
</g>
<!-- Node2&#45;&gt;Node5 -->
<g id="edge6" class="edge">
<title>Node2&#45;&gt;Node5</title>
<path fill="none" stroke="#191970" d="M1319.4536,-235.462C1299.5836,-224.6087 1266.0292,-206.2806 1242.7594,-193.5702"/>
<polygon fill="#191970" stroke="#191970" points="1244.2435,-190.3928 1233.7895,-188.6708 1240.8879,-196.5361 1244.2435,-190.3928"/>
</g>
<!-- Node6 -->
<g id="node7" class="node">
<title>Node6</title>
<g id="a_node7"><a xlink:title=" ">
<polygon fill="#ffffff" stroke="#bfbfbf" points="294.2935,-170.5 294.2935,-188.5 423.7065,-188.5 423.7065,-170.5 294.2935,-170.5"/>
<text text-anchor="middle" x="359" y="-176.5" font-family="FreeSans" font-size="10.00" fill="#000000">boost/concept_check.hpp</text>
</a>
</g>
</g>
<!-- Node2&#45;&gt;Node6 -->
<g id="edge7" class="edge">
<title>Node2&#45;&gt;Node6</title>
<path fill="none" stroke="#191970" d="M1277.1145,-244.0063C1132.7027,-242.188 749.6573,-233.6868 433,-194 425.5034,-193.0604 417.6261,-191.8076 409.9207,-190.4305"/>
<polygon fill="#191970" stroke="#191970" points="410.4094,-186.9613 399.9366,-188.5644 409.1233,-193.8422 410.4094,-186.9613"/>
</g>
<!-- Node7 -->
<g id="node8" class="node">
<title>Node7</title>
<g id="a_node8"><a xlink:title=" ">
<polygon fill="#ffffff" stroke="#bfbfbf" points="1282.5815,-170.5 1282.5815,-188.5 1401.4185,-188.5 1401.4185,-170.5 1282.5815,-170.5"/>
<text text-anchor="middle" x="1342" y="-176.5" font-family="FreeSans" font-size="10.00" fill="#000000">boost/static_assert.hpp</text>
</a>
</g>
</g>
<!-- Node2&#45;&gt;Node7 -->
<g id="edge8" class="edge">
<title>Node2&#45;&gt;Node7</title>
<path fill="none" stroke="#191970" d="M1336.8343,-235.462C1337.7021,-226.061 1339.0875,-211.0518 1340.2053,-198.943"/>
<polygon fill="#191970" stroke="#191970" points="1343.6999,-199.1615 1341.134,-188.8821 1336.7295,-198.5181 1343.6999,-199.1615"/>
</g>
<!-- Node8 -->
<g id="node9" class="node">
<title>Node8</title>
<g id="a_node9"><a xlink:title=" ">
<polygon fill="#ffffff" stroke="#bfbfbf" points="1419.1309,-170.5 1419.1309,-188.5 1546.8691,-188.5 1546.8691,-170.5 1419.1309,-170.5"/>
<text text-anchor="middle" x="1483" y="-176.5" font-family="FreeSans" font-size="10.00" fill="#000000">boost/concept/assert.hpp</text>
</a>
</g>
</g>
<!-- Node2&#45;&gt;Node8 -->
<g id="edge9" class="edge">
<title>Node2&#45;&gt;Node8</title>
<path fill="none" stroke="#191970" d="M1356.4397,-235.462C1381.5304,-224.3675 1424.2851,-205.4624 1453.0768,-192.7313"/>
<polygon fill="#191970" stroke="#191970" points="1454.5296,-195.9159 1462.26,-188.6708 1451.6987,-189.5138 1454.5296,-195.9159"/>
</g>
<!-- Node9 -->
<g id="node10" class="node">
<title>Node9</title>
<g id="a_node10"><a xlink:title=" ">
<polygon fill="#ffffff" stroke="#bfbfbf" points="1564.6826,-170.5 1564.6826,-188.5 1701.3174,-188.5 1701.3174,-170.5 1564.6826,-170.5"/>
<text text-anchor="middle" x="1633" y="-176.5" font-family="FreeSans" font-size="10.00" fill="#000000">boost/concept/requires.hpp</text>
</a>
</g>
</g>
<!-- Node2&#45;&gt;Node9 -->
<g id="edge10" class="edge">
<title>Node2&#45;&gt;Node9</title>
<path fill="none" stroke="#191970" d="M1377.2966,-235.462C1430.675,-223.7799 1523.6227,-203.4378 1581.5393,-190.7624"/>
<polygon fill="#191970" stroke="#191970" points="1582.556,-194.1229 1591.5765,-188.5658 1581.0594,-187.2847 1582.556,-194.1229"/>
</g>
<!-- Node10 -->
<g id="node11" class="node">
<title>Node10</title>
<g id="a_node11"><a xlink:title=" ">
<polygon fill="#ffffff" stroke="#bfbfbf" points="1718.8672,-165.5 1718.8672,-193.5 1827.1328,-193.5 1827.1328,-165.5 1718.8672,-165.5"/>
<text text-anchor="start" x="1726.8672" y="-181.5" font-family="FreeSans" font-size="10.00" fill="#000000">boost/iterator/iterator</text>
<text text-anchor="middle" x="1773" y="-171.5" font-family="FreeSans" font-size="10.00" fill="#000000">_concepts.hpp</text>
</a>
</g>
</g>
<!-- Node2&#45;&gt;Node10 -->
<g id="edge11" class="edge">
<title>Node2&#45;&gt;Node10</title>
<path fill="none" stroke="#191970" d="M1394.8879,-238.2452C1466.6996,-230.2398 1591.946,-215.0611 1708.5936,-194.1574"/>
<polygon fill="#191970" stroke="#191970" points="1709.553,-197.5407 1718.7695,-192.3151 1708.3059,-190.6527 1709.553,-197.5407"/>
</g>
<!-- Node11 -->
<g id="node12" class="node">
<title>Node11</title>
<g id="a_node12"><a xlink:title=" ">
<polygon fill="#ffffff" stroke="#bfbfbf" points="1845.397,-170.5 1845.397,-188.5 1992.603,-188.5 1992.603,-170.5 1845.397,-170.5"/>
<text text-anchor="middle" x="1919" y="-176.5" font-family="FreeSans" font-size="10.00" fill="#000000">boost/concept_archetype.hpp</text>
</a>
</g>
</g>
<!-- Node2&#45;&gt;Node11 -->
<g id="edge12" class="edge">
<title>Node2&#45;&gt;Node11</title>
<path fill="none" stroke="#191970" d="M1395.0473,-239.9277C1488.7549,-232.3587 1677.1812,-215.8639 1836,-194 1844.0359,-192.8937 1852.4849,-191.5864 1860.791,-190.2169"/>
<polygon fill="#191970" stroke="#191970" points="1861.5363,-193.6407 1870.8143,-188.5251 1860.3712,-186.7384 1861.5363,-193.6407"/>
</g>
<!-- Node12 -->
<g id="node13" class="node">
<title>Node12</title>
<g id="a_node13"><a xlink:title=" ">
<polygon fill="#ffffff" stroke="#bfbfbf" points="1655.3843,-110.5 1655.3843,-128.5 1698.6157,-128.5 1698.6157,-110.5 1655.3843,-110.5"/>
<text text-anchor="middle" x="1677" y="-116.5" font-family="FreeSans" font-size="10.00" fill="#000000">cmath</text>
</a>
</g>
</g>
<!-- Node2&#45;&gt;Node12 -->
<g id="edge13" class="edge">
<title>Node2&#45;&gt;Node12</title>
<path fill="none" stroke="#191970" d="M1277.0501,-237.7771C1212.4309,-228.1679 1122.6887,-206.8382 1161,-165 1193.7348,-129.2516 1537.3068,-121.4448 1644.9428,-119.871"/>
<polygon fill="#191970" stroke="#191970" points="1645.2248,-123.3675 1655.1756,-119.73 1645.1283,-116.3682 1645.2248,-123.3675"/>
</g>
<!-- Node13 -->
<g id="node14" class="node">
<title>Node13</title>
<g id="a_node14"><a xlink:title=" ">
<polygon fill="#ffffff" stroke="#bfbfbf" points="2010.2686,-170.5 2010.2686,-188.5 2055.7314,-188.5 2055.7314,-170.5 2010.2686,-170.5"/>
<text text-anchor="middle" x="2033" y="-176.5" font-family="FreeSans" font-size="10.00" fill="#000000">stdio.h</text>
</a>
</g>
</g>
<!-- Node2&#45;&gt;Node13 -->
<g id="edge14" class="edge">
<title>Node2&#45;&gt;Node13</title>
<path fill="none" stroke="#191970" d="M1394.9197,-242.7521C1535.6478,-238.14 1888.087,-223.8884 2002,-194 2003.6595,-193.5646 2005.339,-193.0429 2007.0129,-192.46"/>
<polygon fill="#191970" stroke="#191970" points="2008.4367,-195.659 2016.3603,-188.6257 2005.7801,-189.1827 2008.4367,-195.659"/>
</g>
<!-- Node14 -->
<g id="node15" class="node">
<title>Node14</title>
<g id="a_node15"><a xlink:href="Config_8h_source.html" target="_top" xlink:title=" ">
<polygon fill="#ffffff" stroke="#ff0000" points="827.9756,-55.5 827.9756,-73.5 934.0244,-73.5 934.0244,-55.5 827.9756,-55.5"/>
<text text-anchor="middle" x="881" y="-61.5" font-family="FreeSans" font-size="10.00" fill="#000000">DGtal/base/Config.h</text>
</a>
</g>
</g>
<!-- Node2&#45;&gt;Node14 -->
<g id="edge15" class="edge">
<title>Node2&#45;&gt;Node14</title>
<path fill="none" stroke="#191970" d="M1276.874,-239.6852C1159.7443,-229.88 908.3082,-207.3926 895,-194 866.0123,-164.8284 871.1445,-111.7508 876.5486,-83.4537"/>
<polygon fill="#191970" stroke="#191970" points="879.9856,-84.1173 878.6358,-73.6088 873.1378,-82.6654 879.9856,-84.1173"/>
</g>
<!-- Node16 -->
<g id="node16" class="node">
<title>Node16</title>
<g id="a_node16"><a xlink:href="Trace_8h_source.html" target="_top" xlink:title=" ">
<polygon fill="#ffffff" stroke="#ff0000" points="745.8311,-170.5 745.8311,-188.5 848.1689,-188.5 848.1689,-170.5 745.8311,-170.5"/>
<text text-anchor="middle" x="797" y="-176.5" font-family="FreeSans" font-size="10.00" fill="#000000">DGtal/base/Trace.h</text>
</a>
</g>
</g>
<!-- Node2&#45;&gt;Node16 -->
<g id="edge17" class="edge">
<title>Node2&#45;&gt;Node16</title>
<path fill="none" stroke="#191970" d="M1277.0678,-237.7102C1255.3606,-235.2392 1230.567,-232.4522 1208,-230 1054.2968,-213.2984 1014.5941,-218.8727 862,-194 856.1516,-193.0467 850.0398,-191.894 844.0044,-190.6599"/>
<polygon fill="#191970" stroke="#191970" points="844.4889,-187.1847 833.9794,-188.527 843.0321,-194.0314 844.4889,-187.1847"/>
</g>
<!-- Node23 -->
<g id="node17" class="node">
<title>Node23</title>
<g id="a_node17"><a xlink:href="TraceWriterTerm_8h_source.html" target="_top" xlink:title=" ">
<polygon fill="#ffffff" stroke="#ff0000" points="904.478,-110.5 904.478,-128.5 1055.522,-128.5 1055.522,-110.5 904.478,-110.5"/>
<text text-anchor="middle" x="980" y="-116.5" font-family="FreeSans" font-size="10.00" fill="#000000">DGtal/base/TraceWriterTerm.h</text>
</a>
</g>
</g>
<!-- Node2&#45;&gt;Node23 -->
<g id="edge25" class="edge">
<title>Node2&#45;&gt;Node23</title>
<path fill="none" stroke="#191970" d="M1277.1092,-236.7285C1187.0582,-224.6368 1024.3961,-201.8885 1014,-194 996.3476,-180.6054 987.587,-155.9059 983.4342,-138.6319"/>
<polygon fill="#191970" stroke="#191970" points="986.7977,-137.6172 981.3235,-128.5462 979.9461,-139.0511 986.7977,-137.6172"/>
</g>
<!-- Node24 -->
<g id="node18" class="node">
<title>Node24</title>
<g id="a_node18"><a xlink:href="Assert_8h_source.html" target="_top" xlink:title=" ">
<polygon fill="#ffffff" stroke="#ff0000" points="666.2588,-110.5 666.2588,-128.5 771.7412,-128.5 771.7412,-110.5 666.2588,-110.5"/>
<text text-anchor="middle" x="719" y="-116.5" font-family="FreeSans" font-size="10.00" fill="#000000">DGtal/base/Assert.h</text>
</a>
</g>
</g>
<!-- Node2&#45;&gt;Node24 -->
<g id="edge28" class="edge">
<title>Node2&#45;&gt;Node24</title>
<path fill="none" stroke="#191970" d="M1277.1021,-237.3722C1255.3986,-234.8659 1230.5984,-232.1429 1208,-230 1155.7484,-225.0452 776.9737,-228.013 737,-194 721.2051,-180.5604 717.9708,-155.8707 717.8574,-138.6113"/>
<polygon fill="#191970" stroke="#191970" points="721.3582,-138.6272 718.1329,-128.5352 714.3608,-138.4358 721.3582,-138.6272"/>
</g>
<!-- Node27 -->
<g id="node19" class="node">
<title>Node27</title>
<g id="a_node19"><a xlink:href="TraceWriterFile_8h_source.html" target="_top" xlink:title=" ">
<polygon fill="#ffffff" stroke="#ff0000" points="989.5322,-55.5 989.5322,-73.5 1134.4678,-73.5 1134.4678,-55.5 989.5322,-55.5"/>
<text text-anchor="middle" x="1062" y="-61.5" font-family="FreeSans" font-size="10.00" fill="#000000">DGtal/base/TraceWriterFile.h</text>
</a>
</g>
</g>
<!-- Node2&#45;&gt;Node27 -->
<g id="edge26" class="edge">
<title>Node2&#45;&gt;Node27</title>
<path fill="none" stroke="#191970" d="M1276.9042,-236.0087C1223.2441,-227.2953 1149.0742,-212.4274 1126,-194 1090.3625,-165.5395 1073.0602,-112.1626 1066.0274,-83.6326"/>
<polygon fill="#191970" stroke="#191970" points="1069.3967,-82.6661 1063.7508,-73.701 1062.5737,-84.2302 1069.3967,-82.6661"/>
</g>
<!-- Node28 -->
<g id="node20" class="node">
<title>Node28</title>
<g id="a_node20"><a xlink:href="ConceptUtils_8h_source.html" target="_top" xlink:title=" ">
<polygon fill="#ffffff" stroke="#000000" points="442.084,-170.5 442.084,-188.5 575.916,-188.5 575.916,-170.5 442.084,-170.5"/>
<text text-anchor="middle" x="509" y="-176.5" font-family="FreeSans" font-size="10.00" fill="#000000">DGtal/base/ConceptUtils.h</text>
</a>
</g>
</g>
<!-- Node2&#45;&gt;Node28 -->
<g id="edge29" class="edge">
<title>Node2&#45;&gt;Node28</title>
<path fill="none" stroke="#191970" d="M1277.1135,-237.2492C1255.4112,-234.7301 1230.6088,-232.0303 1208,-230 967.5479,-208.4069 906.6627,-213.1027 666,-194 640.0986,-191.9441 611.82,-189.4192 586.4882,-187.0559"/>
<polygon fill="#191970" stroke="#191970" points="586.4829,-183.5401 576.1995,-186.0899 585.8285,-190.5094 586.4829,-183.5401"/>
</g>
<!-- Node29 -->
<g id="node21" class="node">
<title>Node29</title>
<g id="a_node21"><a xlink:href="BasicTypes_8h_source.html" target="_top" xlink:title=" ">
<polygon fill="#ffffff" stroke="#ff0000" points="1152.8599,-55.5 1152.8599,-73.5 1281.1401,-73.5 1281.1401,-55.5 1152.8599,-55.5"/>
<text text-anchor="middle" x="1217" y="-61.5" font-family="FreeSans" font-size="10.00" fill="#000000">DGtal/base/BasicTypes.h</text>
</a>
</g>
</g>
<!-- Node2&#45;&gt;Node29 -->
<g id="edge31" class="edge">
<title>Node2&#45;&gt;Node29</title>
<path fill="none" stroke="#191970" d="M1276.7378,-237.4054C1224.7883,-229.8234 1154.9772,-215.8507 1138,-194 1108.0381,-155.4371 1162.9293,-104.7955 1195.4693,-79.8057"/>
<polygon fill="#191970" stroke="#191970" points="1197.663,-82.5358 1203.5809,-73.7478 1193.4744,-76.9273 1197.663,-82.5358"/>
</g>
<!-- Node32 -->
<g id="node22" class="node">
<title>Node32</title>
<g id="a_node22"><a xlink:href="BasicFunctors_8h_source.html" target="_top" xlink:title=" ">
<polygon fill="#ffffff" stroke="#ff0000" points="2073.7515,-170.5 2073.7515,-188.5 2214.2485,-188.5 2214.2485,-170.5 2073.7515,-170.5"/>
<text text-anchor="middle" x="2144" y="-176.5" font-family="FreeSans" font-size="10.00" fill="#000000">DGtal/base/BasicFunctors.h</text>
</a>
</g>
</g>
<!-- Node2&#45;&gt;Node32 -->
<g id="edge33" class="edge">
<title>Node2&#45;&gt;Node32</title>
<path fill="none" stroke="#191970" d="M1395.0379,-242.4803C1518.3165,-237.9385 1811.4965,-224.8084 2056,-194 2064.154,-192.9726 2072.7408,-191.6497 2081.2387,-190.2218"/>
<polygon fill="#191970" stroke="#191970" points="2081.8852,-193.662 2091.1424,-188.5088 2080.6921,-186.7644 2081.8852,-193.662"/>
</g>
<!-- Node40 -->
<g id="node23" class="node">
<title>Node40</title>
<g id="a_node23"><a xlink:href="BasicArchetypes_8h_source.html" target="_top" xlink:title=" ">
<polygon fill="#ffffff" stroke="#000000" points="1299.1899,-55.5 1299.1899,-73.5 1450.8101,-73.5 1450.8101,-55.5 1299.1899,-55.5"/>
<text text-anchor="middle" x="1375" y="-61.5" font-family="FreeSans" font-size="10.00" fill="#000000">DGtal/base/BasicArchetypes.h</text>
</a>
</g>
</g>
<!-- Node2&#45;&gt;Node40 -->
<g id="edge37" class="edge">
<title>Node2&#45;&gt;Node40</title>
<path fill="none" stroke="#191970" d="M1276.9448,-240.8528C1210.2085,-234.251 1114.8949,-215.8612 1148,-165 1181.6286,-113.3345 1248.541,-88.0293 1301.047,-75.7565"/>
<polygon fill="#191970" stroke="#191970" points="1302.0044,-79.1292 1311.0066,-73.5425 1300.4853,-72.296 1302.0044,-79.1292"/>
</g>
<!-- Node41 -->
<g id="node24" class="node">
<title>Node41</title>
<g id="a_node24"><a xlink:href="Exceptions_8h_source.html" target="_top" xlink:title=" ">
<polygon fill="#ffffff" stroke="#000000" points="2307.9707,-170.5 2307.9707,-188.5 2434.0293,-188.5 2434.0293,-170.5 2307.9707,-170.5"/>
<text text-anchor="middle" x="2371" y="-176.5" font-family="FreeSans" font-size="10.00" fill="#000000">DGtal/base/Exceptions.h</text>
</a>
</g>
</g>
<!-- Node2&#45;&gt;Node41 -->
<g id="edge39" class="edge">
<title>Node2&#45;&gt;Node41</title>
<path fill="none" stroke="#191970" d="M1395.033,-242.7051C1541.1982,-237.9465 1931.5981,-223.318 2256,-194 2269.5469,-192.7757 2283.9574,-191.187 2297.8309,-189.5118"/>
<polygon fill="#191970" stroke="#191970" points="2298.3215,-192.9779 2307.8181,-188.2806 2297.465,-186.0305 2298.3215,-192.9779"/>
</g>
<!-- Node14&#45;&gt;Node1 -->
<g id="edge16" class="edge">
<title>Node14&#45;&gt;Node1</title>
<path fill="none" stroke="#191970" d="M902.632,-55.4179C923.965,-46.4613 956.7879,-32.6806 980.9125,-22.552"/>
<polygon fill="#191970" stroke="#191970" points="982.4705,-25.6939 990.3359,-18.5956 979.7606,-19.2397 982.4705,-25.6939"/>
</g>
<!-- Node16&#45;&gt;Node1 -->
<g id="edge18" class="edge">
<title>Node16&#45;&gt;Node1</title>
<path fill="none" stroke="#191970" d="M795.5478,-170.2048C792.5363,-147.2804 788.2469,-87.5456 819,-55 839.9699,-32.8078 924.5414,-19.5245 974.5073,-13.4589"/>
<polygon fill="#191970" stroke="#191970" points="975.0849,-16.9152 984.6088,-12.2735 974.269,-9.9629 975.0849,-16.9152"/>
</g>
<!-- Node16&#45;&gt;Node14 -->
<g id="edge19" class="edge">
<title>Node16&#45;&gt;Node14</title>
<path fill="none" stroke="#191970" d="M803.5913,-170.4761C817.5075,-151.4242 850.0941,-106.8117 868.2367,-81.9736"/>
<polygon fill="#191970" stroke="#191970" points="871.1338,-83.941 874.206,-73.8014 865.4812,-79.8121 871.1338,-83.941"/>
</g>
<!-- Node16&#45;&gt;Node23 -->
<g id="edge20" class="edge">
<title>Node16&#45;&gt;Node23</title>
<path fill="none" stroke="#191970" d="M824.7938,-170.3873C856.2813,-160.0635 907.7505,-143.1883 942.7094,-131.7264"/>
<polygon fill="#191970" stroke="#191970" points="944.1324,-134.9433 952.5443,-128.5019 941.9515,-128.2916 944.1324,-134.9433"/>
</g>
<!-- Node16&#45;&gt;Node24 -->
<g id="edge23" class="edge">
<title>Node16&#45;&gt;Node24</title>
<path fill="none" stroke="#191970" d="M780.1441,-170.3873C766.2189,-161.1364 747.009,-146.625 733.7055,-135.4618"/>
<polygon fill="#191970" stroke="#191970" points="735.773,-132.6213 725.9311,-128.6985 731.1785,-137.9026 735.773,-132.6213"/>
</g>
<!-- Node23&#45;&gt;Node1 -->
<g id="edge21" class="edge">
<title>Node23&#45;&gt;Node1</title>
<path fill="none" stroke="#191970" d="M978.5453,-110.478C976.8479,-97.7636 974.9797,-74.0039 981,-55 984.2646,-44.6947 990.6949,-34.6147 996.8566,-26.5721"/>
<polygon fill="#191970" stroke="#191970" points="999.6495,-28.6858 1003.2749,-18.7305 994.2326,-24.2521 999.6495,-28.6858"/>
</g>
<!-- Node23&#45;&gt;Node14 -->
<g id="edge22" class="edge">
<title>Node23&#45;&gt;Node14</title>
<path fill="none" stroke="#191970" d="M963.6522,-110.4179C948.0319,-101.7399 924.2602,-88.5334 906.2138,-78.5077"/>
<polygon fill="#191970" stroke="#191970" points="907.8135,-75.3925 897.3721,-73.5956 904.4139,-81.5117 907.8135,-75.3925"/>
</g>
<!-- Node24&#45;&gt;Node16 -->
<g id="edge24" class="edge">
<title>Node24&#45;&gt;Node16</title>
<path fill="none" stroke="#191970" d="M735.6889,-128.5019C749.6523,-137.7641 769.0075,-152.3829 782.3667,-163.5988"/>
<polygon fill="#191970" stroke="#191970" points="780.3228,-166.46 790.1628,-170.3873 784.9196,-161.1808 780.3228,-166.46"/>
</g>
<!-- Node27&#45;&gt;Node1 -->
<g id="edge27" class="edge">
<title>Node27&#45;&gt;Node1</title>
<path fill="none" stroke="#191970" d="M1053.7435,-55.4179C1046.5492,-47.5041 1035.9312,-35.8243 1027.2046,-26.2251"/>
<polygon fill="#191970" stroke="#191970" points="1029.7524,-23.8245 1020.4359,-18.7795 1024.5728,-28.5332 1029.7524,-23.8245"/>
</g>
<!-- Node28&#45;&gt;Node1 -->
<g id="edge30" class="edge">
<title>Node28&#45;&gt;Node1</title>
<path fill="none" stroke="#191970" d="M508.7384,-170.4752C508.6028,-147.1123 511.7919,-84.4293 548,-55 580.8679,-28.2855 870.1762,-14.8387 974.6093,-10.8225"/>
<polygon fill="#191970" stroke="#191970" points="974.8361,-14.3165 984.697,-10.4419 974.5721,-7.3215 974.8361,-14.3165"/>
</g>
<!-- Node29&#45;&gt;Node1 -->
<g id="edge32" class="edge">
<title>Node29&#45;&gt;Node1</title>
<path fill="none" stroke="#191970" d="M1183.1484,-55.4179C1146.1932,-45.503 1087.2043,-29.6768 1049.0375,-19.4369"/>
<polygon fill="#191970" stroke="#191970" points="1049.9004,-16.0447 1039.335,-16.8338 1048.0865,-22.8056 1049.9004,-16.0447"/>
</g>
<!-- Node32&#45;&gt;Node2 -->
<g id="edge36" class="edge">
<title>Node32&#45;&gt;Node2</title>
<path fill="none" stroke="#191970" d="M2108.5508,-188.5088C2097.5271,-190.5691 2085.3447,-192.5705 2074,-194 1829.5094,-224.8067 1536.3475,-237.9372 1405.1948,-242.4796"/>
<polygon fill="#191970" stroke="#191970" points="1404.7752,-238.9918 1394.9001,-242.8299 1405.0134,-245.9877 1404.7752,-238.9918"/>
</g>
<!-- Node32&#45;&gt;Node4 -->
<g id="edge34" class="edge">
<title>Node32&#45;&gt;Node4</title>
<path fill="none" stroke="#191970" d="M2158.8841,-170.3873C2174.7331,-160.6838 2200.0354,-145.1926 2218.564,-133.8486"/>
<polygon fill="#191970" stroke="#191970" points="2220.596,-136.7084 2227.2969,-128.5019 2216.9409,-130.7385 2220.596,-136.7084"/>
</g>
<!-- Node32&#45;&gt;Node12 -->
<g id="edge35" class="edge">
<title>Node32&#45;&gt;Node12</title>
<path fill="none" stroke="#191970" d="M2097.7155,-170.4861C2086.9957,-168.5427 2075.618,-166.5953 2065,-165 1933.4866,-145.2408 1775.806,-129.0567 1709.2007,-122.5634"/>
<polygon fill="#191970" stroke="#191970" points="1709.2347,-119.0504 1698.9439,-121.5701 1708.5599,-126.0178 1709.2347,-119.0504"/>
</g>
<!-- Node40&#45;&gt;Node1 -->
<g id="edge38" class="edge">
<title>Node40&#45;&gt;Node1</title>
<path fill="none" stroke="#191970" d="M1315.4644,-55.4795C1240.0145,-44.0476 1112.2287,-24.6862 1049.2947,-15.1507"/>
<polygon fill="#191970" stroke="#191970" points="1049.8187,-11.6902 1039.4072,-13.6526 1048.77,-18.6112 1049.8187,-11.6902"/>
</g>
<!-- Node41&#45;&gt;Node1 -->
<g id="edge40" class="edge">
<title>Node41&#45;&gt;Node1</title>
<path fill="none" stroke="#191970" d="M2362.5367,-170.2227C2347.6186,-154.5811 2314.9021,-123.3634 2280,-110 2162.358,-64.9569 1247.0738,-20.3675 1049.5093,-11.2072"/>
<polygon fill="#191970" stroke="#191970" points="1049.4936,-7.7028 1039.3428,-10.7378 1049.1707,-14.6954 1049.4936,-7.7028"/>
</g>
<!-- Node42&#45;&gt;Node1 -->
<g id="edge42" class="edge">
<title>Node42&#45;&gt;Node1</title>
<path fill="none" stroke="#191970" d="M1417.4926,-420.4355C1404.6729,-395.6945 1365.3881,-326.7426 1311,-295 1168.3118,-211.7227 1108.265,-255.2892 945,-230 884.747,-220.667 720.3659,-232.3927 673,-194 642.9299,-169.6266 634.714,-145.5614 650,-110 664.0292,-77.3625 676.0692,-70.5708 708,-55 754.3087,-32.418 903.7041,-18.0163 974.3353,-12.3017"/>
<polygon fill="#191970" stroke="#191970" points="974.8735,-15.7701 984.5655,-11.4903 974.32,-8.792 974.8735,-15.7701"/>
</g>
<!-- Node42&#45;&gt;Node2 -->
<g id="edge43" class="edge">
<title>Node42&#45;&gt;Node2</title>
<path fill="none" stroke="#191970" d="M1420.8547,-420.4464C1417.7047,-397.9357 1407.4661,-338.1431 1383,-295 1375.7071,-282.1399 1364.5199,-269.9405 1354.8894,-260.7545"/>
<polygon fill="#191970" stroke="#191970" points="1357.0265,-257.966 1347.2856,-253.7988 1352.3017,-263.1309 1357.0265,-257.966"/>
</g>
<!-- Node43 -->
<g id="node26" class="node">
<title>Node43</title>
<g id="a_node26"><a xlink:href="CInteger_8h_source.html" target="_top" xlink:title=" ">
<polygon fill="#ffffff" stroke="#ff0000" points="1070.749,-360.5 1070.749,-378.5 1191.251,-378.5 1191.251,-360.5 1070.749,-360.5"/>
<text text-anchor="middle" x="1131" y="-366.5" font-family="FreeSans" font-size="10.00" fill="#000000">DGtal/kernel/CInteger.h</text>
</a>
</g>
</g>
<!-- Node42&#45;&gt;Node43 -->
<g id="edge44" class="edge">
<title>Node42&#45;&gt;Node43</title>
<path fill="none" stroke="#191970" d="M1378.1193,-420.4524C1326.4016,-409.789 1240.4711,-392.0714 1184.7909,-380.5909"/>
<polygon fill="#191970" stroke="#191970" points="1185.262,-377.1145 1174.7612,-378.5229 1183.8484,-383.9703 1185.262,-377.1145"/>
</g>
<!-- Node54 -->
<g id="node28" class="node">
<title>Node54</title>
<g id="a_node28"><a xlink:href="PointVector_8h_source.html" target="_top" xlink:title=" ">
<polygon fill="#ffffff" stroke="#ff0000" points="1579.3525,-360.5 1579.3525,-378.5 1712.6475,-378.5 1712.6475,-360.5 1579.3525,-360.5"/>
<text text-anchor="middle" x="1646" y="-366.5" font-family="FreeSans" font-size="10.00" fill="#000000">DGtal/kernel/PointVector.h</text>
</a>
</g>
</g>
<!-- Node42&#45;&gt;Node54 -->
<g id="edge50" class="edge">
<title>Node42&#45;&gt;Node54</title>
<path fill="none" stroke="#191970" d="M1456.0208,-420.3873C1495.2245,-409.8863 1559.7338,-392.607 1602.5404,-381.141"/>
<polygon fill="#191970" stroke="#191970" points="1603.6391,-384.4701 1612.393,-378.5019 1601.8279,-377.7085 1603.6391,-384.4701"/>
</g>
<!-- Node43&#45;&gt;Node1 -->
<g id="edge45" class="edge">
<title>Node43&#45;&gt;Node1</title>
<path fill="none" stroke="#191970" d="M1119.7297,-360.4057C1087.4574,-334.9095 991.0272,-262.4903 898,-230 783.7082,-190.0829 730.2579,-258.8022 628,-194 598.9475,-175.589 595.7309,-161.9897 586,-129 576.6952,-97.4548 564.0136,-79.4597 586,-55 611.7864,-26.3128 875.5005,-14.2411 974.6164,-10.6937"/>
<polygon fill="#191970" stroke="#191970" points="974.9039,-14.1859 984.7759,-10.3395 974.6599,-7.1901 974.9039,-14.1859"/>
</g>
<!-- Node43&#45;&gt;Node2 -->
<g id="edge46" class="edge">
<title>Node43&#45;&gt;Node2</title>
<path fill="none" stroke="#191970" d="M1130.7234,-360.2993C1130.7761,-344.656 1133.2347,-312.8402 1151,-295 1167.8525,-278.0765 1223.9226,-264.2605 1269.9588,-255.3844"/>
<polygon fill="#191970" stroke="#191970" points="1270.7311,-258.8006 1279.911,-253.5111 1269.4361,-251.9214 1270.7311,-258.8006"/>
</g>
<!-- Node43&#45;&gt;Node28 -->
<g id="edge47" class="edge">
<title>Node43&#45;&gt;Node28</title>
<path fill="none" stroke="#191970" d="M1070.3473,-362.8471C1034.2592,-356.8078 988.7012,-345.4021 953,-324 904.4338,-294.8856 917.2379,-256.1242 867,-230 756.8556,-172.7239 712.6927,-212.9434 590,-194 582.6373,-192.8632 574.9131,-191.5879 567.2802,-190.2776"/>
<polygon fill="#191970" stroke="#191970" points="567.7892,-186.8136 557.3365,-188.5437 566.5866,-193.7096 567.7892,-186.8136"/>
</g>
<!-- Node47 -->
<g id="node27" class="node">
<title>Node47</title>
<g id="a_node27"><a xlink:href="NumberTraits_8h_source.html" target="_top" xlink:title=" ">
<polygon fill="#ffffff" stroke="#ff0000" points="1159.5527,-300.5 1159.5527,-318.5 1302.4473,-318.5 1302.4473,-300.5 1159.5527,-300.5"/>
<text text-anchor="middle" x="1231" y="-306.5" font-family="FreeSans" font-size="10.00" fill="#000000">DGtal/kernel/NumberTraits.h</text>
</a>
</g>
</g>
<!-- Node43&#45;&gt;Node47 -->
<g id="edge48" class="edge">
<title>Node43&#45;&gt;Node47</title>
<path fill="none" stroke="#191970" d="M1146.1878,-360.3873C1162.4341,-350.6395 1188.415,-335.051 1207.3443,-323.6934"/>
<polygon fill="#191970" stroke="#191970" points="1209.2227,-326.6481 1215.9969,-318.5019 1205.6212,-320.6456 1209.2227,-326.6481"/>
</g>
<!-- Node47&#45;&gt;Node2 -->
<g id="edge49" class="edge">
<title>Node47&#45;&gt;Node2</title>
<path fill="none" stroke="#191970" d="M1245.5998,-300.462C1262.8983,-289.7534 1291.9516,-271.7681 1312.4451,-259.0816"/>
<polygon fill="#191970" stroke="#191970" points="1314.5253,-261.9103 1321.1857,-253.6708 1310.8408,-255.9584 1314.5253,-261.9103"/>
</g>
<!-- Node54&#45;&gt;Node1 -->
<g id="edge51" class="edge">
<title>Node54&#45;&gt;Node1</title>
<path fill="none" stroke="#191970" d="M1667.5502,-360.3914C1709.8893,-342.6059 1802.6995,-304.1904 1836,-295 1967.8155,-258.6209 2354.5985,-298.3262 2443,-194 2451.3324,-184.1666 2450.1495,-175.7242 2443,-165 2407.7457,-112.1186 2372.216,-127.0855 2311,-110 2152.9855,-65.8979 2109.2484,-71.2341 1946,-55 1598.6969,-20.4628 1176.0234,-11.8449 1049.4986,-9.97"/>
<polygon fill="#191970" stroke="#191970" points="1049.2486,-6.4661 1039.1996,-9.8227 1049.1485,-13.4654 1049.2486,-6.4661"/>
</g>
<!-- Node54&#45;&gt;Node2 -->
<g id="edge53" class="edge">
<title>Node54&#45;&gt;Node2</title>
<path fill="none" stroke="#191970" d="M1638.8401,-360.2909C1625.9125,-344.3409 1597.0242,-311.6858 1565,-295 1515.049,-268.9736 1452.2061,-256.3289 1404.9941,-250.2035"/>
<polygon fill="#191970" stroke="#191970" points="1405.2177,-246.7047 1394.8652,-248.9577 1404.3631,-253.6523 1405.2177,-246.7047"/>
</g>
<!-- Node54&#45;&gt;Node4 -->
<g id="edge52" class="edge">
<title>Node54&#45;&gt;Node4</title>
<path fill="none" stroke="#191970" d="M1657.4067,-360.4012C1677.773,-344.6219 1722.2728,-312.2227 1765,-295 1777.6625,-289.8959 2237.3951,-204.5994 2246,-194 2258.4561,-178.6567 2254.6435,-155.1385 2249.5299,-138.6404"/>
<polygon fill="#191970" stroke="#191970" points="2252.7507,-137.2481 2246.1396,-128.969 2246.1449,-139.5638 2252.7507,-137.2481"/>
</g>
<!-- Node54&#45;&gt;Node47 -->
<g id="edge54" class="edge">
<title>Node54&#45;&gt;Node47</title>
<path fill="none" stroke="#191970" d="M1583.421,-360.4524C1508.2883,-349.5899 1382.5251,-331.4072 1303.3097,-319.9544"/>
<polygon fill="#191970" stroke="#191970" points="1303.8066,-316.4899 1293.4086,-318.5229 1302.8049,-323.4179 1303.8066,-316.4899"/>
</g>
<!-- Node64&#45;&gt;Node1 -->
<g id="edge56" class="edge">
<title>Node64&#45;&gt;Node1</title>
<path fill="none" stroke="#191970" d="M671.755,-487.3494C614.9308,-479.4206 524.9286,-464.9254 449,-444 267.7568,-394.0506 76,-432.5001 76,-244.5 76,-244.5 76,-244.5 76,-119.5 76,-83.2287 93.85,-71.7923 126,-55 164.1145,-35.0924 810.1129,-15.2885 974.2921,-10.5603"/>
<polygon fill="#191970" stroke="#191970" points="974.5023,-14.0558 984.398,-10.2708 974.3018,-7.0587 974.5023,-14.0558"/>
</g>
<!-- Node64&#45;&gt;Node2 -->
<g id="edge57" class="edge">
<title>Node64&#45;&gt;Node2</title>
<path fill="none" stroke="#191970" d="M784.246,-487.512C842.3013,-479.3391 927.9602,-464.2996 954,-444 1012.4707,-398.4185 969.2585,-338.9026 1029,-295 1065.8131,-267.9469 1188.0153,-254.5965 1266.6897,-248.6519"/>
<polygon fill="#191970" stroke="#191970" points="1267.2944,-252.1171 1277.0118,-247.8954 1266.7827,-245.1358 1267.2944,-252.1171"/>
</g>
<!-- Node64&#45;&gt;Node47 -->
<g id="edge75" class="edge">
<title>Node64&#45;&gt;Node47</title>
<path fill="none" stroke="#191970" d="M784.4964,-487.5947C896.16,-472.8704 1139.55,-435.0902 1200,-379 1214.3397,-365.6945 1222.462,-344.5315 1226.7619,-329.0509"/>
<polygon fill="#191970" stroke="#191970" points="1230.2502,-329.5241 1229.2517,-318.9765 1223.4547,-327.8447 1230.2502,-329.5241"/>
</g>
<!-- Node65 -->
<g id="node30" class="node">
<title>Node65</title>
<g id="a_node30"><a xlink:href="CSpace_8h_source.html" target="_top" xlink:title=" ">
<polygon fill="#ffffff" stroke="#ff0000" points="826.8647,-420.5 826.8647,-438.5 945.1353,-438.5 945.1353,-420.5 826.8647,-420.5"/>
<text text-anchor="middle" x="886" y="-426.5" font-family="FreeSans" font-size="10.00" fill="#000000">DGtal/kernel/CSpace.h</text>
</a>
</g>
</g>
<!-- Node64&#45;&gt;Node65 -->
<g id="edge58" class="edge">
<title>Node64&#45;&gt;Node65</title>
<path fill="none" stroke="#191970" d="M762.2836,-480.396C789.7669,-469.0896 828.016,-453.3542 854.6831,-442.3835"/>
<polygon fill="#191970" stroke="#191970" points="856.0261,-445.6157 863.9425,-438.5743 853.3628,-439.1421 856.0261,-445.6157"/>
</g>
<!-- Node67 -->
<g id="node31" class="node">
<title>Node67</title>
<g id="a_node31"><a xlink:href="BasicPointPredicates_8h_source.html" target="_top" xlink:title=" ">
<polygon fill="#ffffff" stroke="#ff0000" points="310.4067,-300.5 310.4067,-318.5 487.5933,-318.5 487.5933,-300.5 310.4067,-300.5"/>
<text text-anchor="middle" x="399" y="-306.5" font-family="FreeSans" font-size="10.00" fill="#000000">DGtal/kernel/BasicPointPredicates.h</text>
</a>
</g>
</g>
<!-- Node64&#45;&gt;Node67 -->
<g id="edge64" class="edge">
<title>Node64&#45;&gt;Node67</title>
<path fill="none" stroke="#191970" d="M717.5682,-480.4415C704.0777,-463.0836 679.0782,-433.5844 652,-415 584.9119,-368.956 494.5807,-337.3554 441.9809,-321.4442"/>
<polygon fill="#191970" stroke="#191970" points="442.8803,-318.0603 432.2974,-318.5637 440.8844,-324.7697 442.8803,-318.0603"/>
</g>
<!-- Node82 -->
<g id="node32" class="node">
<title>Node82</title>
<g id="a_node32"><a xlink:href="CDomain_8h_source.html" target="_top" xlink:title=" ">
<polygon fill="#ffffff" stroke="#ff0000" points="179.9238,-295.5 179.9238,-323.5 292.0762,-323.5 292.0762,-295.5 179.9238,-295.5"/>
<text text-anchor="start" x="187.9238" y="-311.5" font-family="FreeSans" font-size="10.00" fill="#000000">DGtal/kernel/domains</text>
<text text-anchor="middle" x="236" y="-301.5" font-family="FreeSans" font-size="10.00" fill="#000000">/CDomain.h</text>
</a>
</g>
</g>
<!-- Node64&#45;&gt;Node82 -->
<g id="edge67" class="edge">
<title>Node64&#45;&gt;Node82</title>
<path fill="none" stroke="#191970" d="M671.599,-483.8413C629.6938,-475.1639 571.4688,-461.4988 522,-444 427.8189,-410.6849 322.9396,-356.7258 270.2173,-328.3381"/>
<polygon fill="#191970" stroke="#191970" points="271.759,-325.1928 261.2984,-323.5113 268.4273,-331.3491 271.759,-325.1928"/>
</g>
<!-- Node83 -->
<g id="node33" class="node">
<title>Node83</title>
<g id="a_node33"><a xlink:href="HyperRectDomain__Iterator_8h_source.html" target="_top" xlink:title=" ">
<polygon fill="#ffffff" stroke="#ff0000" points="505.2466,-295.5 505.2466,-323.5 650.7534,-323.5 650.7534,-295.5 505.2466,-295.5"/>
<text text-anchor="start" x="513.2466" y="-311.5" font-family="FreeSans" font-size="10.00" fill="#000000">DGtal/kernel/domains</text>
<text text-anchor="middle" x="578" y="-301.5" font-family="FreeSans" font-size="10.00" fill="#000000">/HyperRectDomain_Iterator.h</text>
</a>
</g>
</g>
<!-- Node64&#45;&gt;Node83 -->
<g id="edge72" class="edge">
<title>Node64&#45;&gt;Node83</title>
<path fill="none" stroke="#191970" d="M727.0981,-480.1215C724.6992,-453.3553 716.0234,-395.398 685,-360 672.4912,-345.7274 655.0746,-335.1792 637.9219,-327.5261"/>
<polygon fill="#191970" stroke="#191970" points="639.0289,-324.1953 628.4527,-323.5669 636.3286,-330.6536 639.0289,-324.1953"/>
</g>
<!-- Node60 -->
<g id="node34" class="node">
<title>Node60</title>
<g id="a_node34"><a xlink:href="CConstBidirectionalRange_8h_source.html" target="_top" xlink:title=" ">
<polygon fill="#ffffff" stroke="#ff0000" points="668.6899,-295.5 668.6899,-323.5 825.3101,-323.5 825.3101,-295.5 668.6899,-295.5"/>
<text text-anchor="start" x="676.6899" y="-311.5" font-family="FreeSans" font-size="10.00" fill="#000000">DGtal/base/CConstBidirectional</text>
<text text-anchor="middle" x="747" y="-301.5" font-family="FreeSans" font-size="10.00" fill="#000000">Range.h</text>
</a>
</g>
</g>
<!-- Node64&#45;&gt;Node60 -->
<g id="edge76" class="edge">
<title>Node64&#45;&gt;Node60</title>
<path fill="none" stroke="#191970" d="M729.4593,-480.2905C732.7,-448.7365 740.526,-372.5358 744.5382,-333.4704"/>
<polygon fill="#191970" stroke="#191970" points="748.0216,-333.8099 745.5617,-323.5046 741.0583,-333.0947 748.0216,-333.8099"/>
</g>
<!-- Node84 -->
<g id="node35" class="node">
<title>Node84</title>
<g id="a_node35"><a xlink:href="HyperRectDomain_8ih_source.html" target="_top" xlink:title=" ">
<polygon fill="#ffffff" stroke="#000000" points="530.9238,-415.5 530.9238,-443.5 643.0762,-443.5 643.0762,-415.5 530.9238,-415.5"/>
<text text-anchor="start" x="538.9238" y="-431.5" font-family="FreeSans" font-size="10.00" fill="#000000">DGtal/kernel/domains</text>
<text text-anchor="middle" x="587" y="-421.5" font-family="FreeSans" font-size="10.00" fill="#000000">/HyperRectDomain.ih</text>
</a>
</g>
</g>
<!-- Node64&#45;&gt;Node84 -->
<g id="edge80" class="edge">
<title>Node64&#45;&gt;Node84</title>
<path fill="none" stroke="#191970" d="M697.4051,-480.396C676.711,-470.8561 649.177,-458.1632 626.783,-447.8397"/>
<polygon fill="#191970" stroke="#191970" points="628.082,-444.5845 617.5352,-443.5765 625.1514,-450.9416 628.082,-444.5845"/>
</g>
<!-- Node65&#45;&gt;Node1 -->
<g id="edge59" class="edge">
<title>Node65&#45;&gt;Node1</title>
<path fill="none" stroke="#191970" d="M826.6328,-426.655C675.64,-418.4995 281.1394,-391.1684 171,-324 133.8813,-301.3632 114,-287.9767 114,-244.5 114,-244.5 114,-244.5 114,-119.5 114,-85.532 125.6717,-72.137 155,-55 190.8398,-34.0583 813.8631,-15.093 974.4758,-10.5362"/>
<polygon fill="#191970" stroke="#191970" points="974.9045,-14.0256 984.8019,-10.245 974.7072,-7.0283 974.9045,-14.0256"/>
</g>
<!-- Node65&#45;&gt;Node2 -->
<g id="edge60" class="edge">
<title>Node65&#45;&gt;Node2</title>
<path fill="none" stroke="#191970" d="M890.0719,-420.3541C901.7082,-395.4052 937.7323,-325.9712 991,-295 1036.6192,-268.4759 1180.1187,-254.657 1267.0182,-248.5401"/>
<polygon fill="#191970" stroke="#191970" points="1267.3281,-252.0272 1277.0645,-247.8495 1266.848,-245.0437 1267.3281,-252.0272"/>
</g>
<!-- Node65&#45;&gt;Node28 -->
<g id="edge61" class="edge">
<title>Node65&#45;&gt;Node28</title>
<path fill="none" stroke="#191970" d="M885.0542,-420.2276C882.1103,-396.1398 870.9642,-330.9631 834,-295 793.4584,-255.5564 635.7595,-211.4281 555.8989,-191.0102"/>
<polygon fill="#191970" stroke="#191970" points="556.6481,-187.5895 546.0944,-188.5228 554.9266,-194.3745 556.6481,-187.5895"/>
</g>
<!-- Node65&#45;&gt;Node43 -->
<g id="edge62" class="edge">
<title>Node65&#45;&gt;Node43</title>
<path fill="none" stroke="#191970" d="M922.9442,-420.4524C966.0349,-409.8996 1037.3357,-392.4382 1084.2451,-380.9502"/>
<polygon fill="#191970" stroke="#191970" points="1085.2759,-384.3012 1094.1564,-378.5229 1083.6108,-377.5022 1085.2759,-384.3012"/>
</g>
<!-- Node65&#45;&gt;Node47 -->
<g id="edge63" class="edge">
<title>Node65&#45;&gt;Node47</title>
<path fill="none" stroke="#191970" d="M907.1824,-420.4524C940.0215,-406.5817 1005.3438,-379.6109 1062,-360 1104.4039,-345.3224 1153.6356,-330.9017 1187.9851,-321.2529"/>
<polygon fill="#191970" stroke="#191970" points="1189.0114,-324.6003 1197.7014,-318.5393 1187.1285,-317.8583 1189.0114,-324.6003"/>
</g>
<!-- Node67&#45;&gt;Node1 -->
<g id="edge65" class="edge">
<title>Node67&#45;&gt;Node1</title>
<path fill="none" stroke="#191970" d="M365.2159,-300.4641C315.3813,-284.8513 228,-247.7452 228,-179.5 228,-179.5 228,-179.5 228,-119.5 228,-43.1683 818.3535,-16.4811 974.4939,-10.7576"/>
<polygon fill="#191970" stroke="#191970" points="974.6889,-14.253 984.5567,-10.3959 974.4374,-7.2575 974.6889,-14.253"/>
</g>
<!-- Node67&#45;&gt;Node2 -->
<g id="edge66" class="edge">
<title>Node67&#45;&gt;Node2</title>
<path fill="none" stroke="#191970" d="M453.5274,-300.4854C467.3527,-298.4377 482.198,-296.4436 496,-295 781.3932,-265.1492 1123.3218,-251.3768 1267.0396,-246.5826"/>
<polygon fill="#191970" stroke="#191970" points="1267.1621,-250.0806 1277.0413,-246.2529 1266.9313,-243.0844 1267.1621,-250.0806"/>
</g>
<!-- Node82&#45;&gt;Node1 -->
<g id="edge68" class="edge">
<title>Node82&#45;&gt;Node1</title>
<path fill="none" stroke="#191970" d="M219.0013,-295.4517C194.4563,-273.4796 152,-228.4053 152,-179.5 152,-179.5 152,-179.5 152,-119.5 152,-88.9131 151.3659,-73.1305 176,-55 208.5427,-31.0489 815.4404,-14.374 974.2369,-10.4084"/>
<polygon fill="#191970" stroke="#191970" points="974.5505,-13.9018 984.4608,-10.1552 974.3772,-6.9039 974.5505,-13.9018"/>
</g>
<!-- Node82&#45;&gt;Node2 -->
<g id="edge70" class="edge">
<title>Node82&#45;&gt;Node2</title>
<path fill="none" stroke="#191970" d="M292.2642,-296.332C295.2105,-295.8358 298.1354,-295.3865 301,-295 488.5055,-269.7002 1066.6227,-251.8825 1266.8712,-246.3317"/>
<polygon fill="#191970" stroke="#191970" points="1267.0699,-249.8277 1276.9696,-246.0534 1266.8769,-242.8304 1267.0699,-249.8277"/>
</g>
<!-- Node82&#45;&gt;Node6 -->
<g id="edge69" class="edge">
<title>Node82&#45;&gt;Node6</title>
<path fill="none" stroke="#191970" d="M249.3973,-295.3402C272.32,-271.113 318.9463,-221.8331 343.3359,-196.0555"/>
<polygon fill="#191970" stroke="#191970" points="346.0846,-198.243 350.415,-188.5736 340.9998,-193.432 346.0846,-198.243"/>
</g>
<!-- Node82&#45;&gt;Node28 -->
<g id="edge71" class="edge">
<title>Node82&#45;&gt;Node28</title>
<path fill="none" stroke="#191970" d="M265.4752,-295.4642C318.3221,-270.299 428.5253,-217.8213 480.5903,-193.0284"/>
<polygon fill="#191970" stroke="#191970" points="482.3777,-196.0539 489.9015,-188.5945 479.3681,-189.7339 482.3777,-196.0539"/>
</g>
<!-- Node83&#45;&gt;Node1 -->
<g id="edge73" class="edge">
<title>Node83&#45;&gt;Node1</title>
<path fill="none" stroke="#191970" d="M521.897,-295.4177C444.8147,-274.8043 312.5367,-234.4538 285,-194 277.7474,-183.3453 278.0137,-175.8312 285,-165 349.2586,-65.3759 413.4163,-85.4087 528,-55 612.3145,-32.6243 876.051,-16.717 974.4694,-11.4217"/>
<polygon fill="#191970" stroke="#191970" points="974.7527,-14.9117 984.5526,-10.8853 974.3808,-7.9216 974.7527,-14.9117"/>
</g>
<!-- Node83&#45;&gt;Node2 -->
<g id="edge74" class="edge">
<title>Node83&#45;&gt;Node2</title>
<path fill="none" stroke="#191970" d="M650.8199,-296.232C653.9177,-295.7913 656.9876,-295.3779 660,-295 880.9129,-267.2876 1144.4892,-252.9552 1267.031,-247.3614"/>
<polygon fill="#191970" stroke="#191970" points="1267.1954,-250.8576 1277.0274,-246.9102 1266.8797,-243.8647 1267.1954,-250.8576"/>
</g>
<!-- Node60&#45;&gt;Node2 -->
<g id="edge77" class="edge">
<title>Node60&#45;&gt;Node2</title>
<path fill="none" stroke="#191970" d="M825.5191,-300.8349C941.5397,-288.0313 1156.8944,-264.2655 1267.1129,-252.1021"/>
<polygon fill="#191970" stroke="#191970" points="1267.5662,-255.5735 1277.1219,-250.9976 1266.7983,-248.6157 1267.5662,-255.5735"/>
</g>
<!-- Node60&#45;&gt;Node6 -->
<g id="edge78" class="edge">
<title>Node60&#45;&gt;Node6</title>
<path fill="none" stroke="#191970" d="M705.1086,-295.4642C628.7509,-269.8805 468.1417,-216.0681 395.7543,-191.8146"/>
<polygon fill="#191970" stroke="#191970" points="396.7375,-188.4528 386.1436,-188.5945 394.5136,-195.0902 396.7375,-188.4528"/>
</g>
<!-- Node60&#45;&gt;Node28 -->
<g id="edge79" class="edge">
<title>Node60&#45;&gt;Node28</title>
<path fill="none" stroke="#191970" d="M721.0768,-295.3402C675.1862,-270.274 580.1982,-218.3898 534.5647,-193.4639"/>
<polygon fill="#191970" stroke="#191970" points="536.0655,-190.2956 525.6116,-188.5736 532.7099,-196.4389 536.0655,-190.2956"/>
</g>
<!-- Node85&#45;&gt;Node1 -->
<g id="edge82" class="edge">
<title>Node85&#45;&gt;Node1</title>
<path fill="none" stroke="#191970" d="M1671.3664,-488.329C1801.9325,-474.0518 2101.9506,-431.3708 2329,-324 2348.2059,-314.9176 2347.6966,-303.8734 2367,-295 2477.1105,-244.3844 2614,-300.6869 2614,-179.5 2614,-179.5 2614,-179.5 2614,-119.5 2614,-80.9478 2590.9791,-71.2091 2556,-55 2485.5675,-22.3621 1279.1395,-11.5402 1049.5624,-9.7722"/>
<polygon fill="#191970" stroke="#191970" points="1049.4033,-6.271 1039.377,-9.6948 1049.35,-13.2708 1049.4033,-6.271"/>
</g>
<!-- Node85&#45;&gt;Node2 -->
<g id="edge84" class="edge">
<title>Node85&#45;&gt;Node2</title>
<path fill="none" stroke="#191970" d="M1597.5917,-480.2112C1591.9266,-470.2572 1584.5113,-456.564 1579,-444 1550.8245,-379.7688 1578.4751,-342.6426 1527,-295 1508.8458,-278.1975 1450.5138,-264.2974 1403.0426,-255.3633"/>
<polygon fill="#191970" stroke="#191970" points="1403.5643,-251.9007 1393.096,-253.533 1402.2974,-258.7851 1403.5643,-251.9007"/>
</g>
<!-- Node85&#45;&gt;Node42 -->
<g id="edge87" class="edge">
<title>Node85&#45;&gt;Node42</title>
<path fill="none" stroke="#191970" d="M1566.0747,-480.396C1533.6478,-468.9408 1488.3513,-452.9393 1457.2515,-441.953"/>
<polygon fill="#191970" stroke="#191970" points="1458.2821,-438.6051 1447.6873,-438.5743 1455.9504,-445.2054 1458.2821,-438.6051"/>
</g>
<!-- Node85&#45;&gt;Node43 -->
<g id="edge85" class="edge">
<title>Node85&#45;&gt;Node43</title>
<path fill="none" stroke="#191970" d="M1540.7462,-484.0974C1488.6832,-475.2068 1414.1125,-461.1469 1350,-444 1282.8342,-426.0365 1206.3577,-398.2985 1163.8795,-382.2211"/>
<polygon fill="#191970" stroke="#191970" points="1164.9321,-378.8768 1154.3411,-378.5903 1162.4418,-385.4189 1164.9321,-378.8768"/>
</g>
<!-- Node85&#45;&gt;Node54 -->
<g id="edge86" class="edge">
<title>Node85&#45;&gt;Node54</title>
<path fill="none" stroke="#191970" d="M1612.6297,-480.1259C1617.076,-470.1339 1622.8545,-456.4303 1627,-444 1633.1245,-425.6355 1638.4077,-404.1679 1641.8372,-389.0074"/>
<polygon fill="#191970" stroke="#191970" points="1645.3525,-389.3176 1644.0816,-378.7993 1638.5158,-387.8144 1645.3525,-389.3176"/>
</g>
<!-- Node86 -->
<g id="node37" class="node">
<title>Node86</title>
<g id="a_node37"><a xlink:title=" ">
<polygon fill="#ffffff" stroke="#bfbfbf" points="1588.3301,-420.5 1588.3301,-438.5 1617.6699,-438.5 1617.6699,-420.5 1588.3301,-420.5"/>
<text text-anchor="middle" x="1603" y="-426.5" font-family="FreeSans" font-size="10.00" fill="#000000">set</text>
</a>
</g>
</g>
<!-- Node85&#45;&gt;Node86 -->
<g id="edge83" class="edge">
<title>Node85&#45;&gt;Node86</title>
<path fill="none" stroke="#191970" d="M1605.349,-480.396C1604.9233,-471.1723 1604.3616,-459.0011 1603.8942,-448.8738"/>
<polygon fill="#191970" stroke="#191970" points="1607.3762,-448.4023 1603.4188,-438.5743 1600.3837,-448.7251 1607.3762,-448.4023"/>
</g>
<!-- Node91&#45;&gt;Node1 -->
<g id="edge89" class="edge">
<title>Node91&#45;&gt;Node1</title>
<path fill="none" stroke="#191970" d="M2104.6771,-300.4693C2115.944,-298.548 2127.8692,-296.6143 2139,-295 2274.5202,-275.3461 2319.5319,-313.8612 2445,-259 2494.8227,-237.2149 2538,-233.8773 2538,-179.5 2538,-179.5 2538,-179.5 2538,-119.5 2538,-86.0004 2527.9244,-71.8998 2499,-55 2434.5819,-17.3621 1274.7646,-10.5992 1049.6668,-9.6395"/>
<polygon fill="#191970" stroke="#191970" points="1049.3828,-6.1384 1039.3684,-9.5969 1049.3538,-13.1383 1049.3828,-6.1384"/>
</g>
<!-- Node91&#45;&gt;Node2 -->
<g id="edge90" class="edge">
<title>Node91&#45;&gt;Node2</title>
<path fill="none" stroke="#191970" d="M2007.7123,-300.4499C1996.0685,-298.4396 1983.6095,-296.4717 1972,-295 1766.6689,-268.9707 1522.2365,-254.0344 1405.1827,-247.8651"/>
<polygon fill="#191970" stroke="#191970" points="1405.1058,-244.3564 1394.9369,-247.3304 1404.7409,-251.3469 1405.1058,-244.3564"/>
</g>
<!-- Node117&#45;&gt;Node1 -->
<g id="edge92" class="edge">
<title>Node117&#45;&gt;Node1</title>
<path fill="none" stroke="#191970" d="M1193.9415,-611.3261C1133.7612,-602.9922 1039.2776,-589.1636 958,-574 597.2234,-506.6915 372.6323,-630.6506 171,-324 163.9188,-313.2306 169.9504,-307.8461 171,-295 175.2363,-243.1495 190,-231.5233 190,-179.5 190,-179.5 190,-179.5 190,-119.5 190,-54.2041 258.9017,-71.7977 322,-55 446.8438,-21.7646 849.479,-12.2526 974.5669,-10.0657"/>
<polygon fill="#191970" stroke="#191970" points="974.8439,-13.5616 984.7832,-9.8927 974.7254,-6.5626 974.8439,-13.5616"/>
</g>
<!-- Node117&#45;&gt;Node2 -->
<g id="edge93" class="edge">
<title>Node117&#45;&gt;Node2</title>
<path fill="none" stroke="#191970" d="M1265.5675,-610.3227C1286.4502,-591.1069 1331,-544.2795 1331,-494.5 1331,-494.5 1331,-494.5 1331,-369.5 1331,-332.0012 1333.2743,-288.2253 1334.7552,-263.6963"/>
<polygon fill="#191970" stroke="#191970" points="1338.256,-263.7907 1335.3869,-253.5918 1331.2697,-263.3539 1338.256,-263.7907"/>
</g>
<!-- Node117&#45;&gt;Node47 -->
<g id="edge94" class="edge">
<title>Node117&#45;&gt;Node47</title>
<path fill="none" stroke="#191970" d="M1254.2817,-610.2223C1250.9694,-567.4382 1237.1338,-388.7282 1232.5113,-329.0208"/>
<polygon fill="#191970" stroke="#191970" points="1235.977,-328.4415 1231.7155,-318.7415 1228.9979,-328.9819 1235.977,-328.4415"/>
</g>
<!-- Node117&#45;&gt;Node64 -->
<g id="edge96" class="edge">
<title>Node117&#45;&gt;Node64</title>
<path fill="none" stroke="#191970" d="M1243.1967,-610.3182C1221.6645,-594.1066 1173.9783,-560.6487 1128,-545 1067.7618,-524.4979 891.3245,-507.6451 794.126,-499.5994"/>
<polygon fill="#191970" stroke="#191970" points="794.3656,-496.1074 784.1131,-498.7785 793.7936,-503.084 794.3656,-496.1074"/>
</g>
<!-- Node117&#45;&gt;Node82 -->
<g id="edge95" class="edge">
<title>Node117&#45;&gt;Node82</title>
<path fill="none" stroke="#191970" d="M1193.9063,-618.1667C966.2467,-613.0518 177.7144,-593.9685 128,-574 78.4749,-554.1075 38,-547.8708 38,-494.5 38,-494.5 38,-494.5 38,-429.5 38,-366.4247 112.3965,-335.5879 169.9829,-321.1667"/>
<polygon fill="#191970" stroke="#191970" points="170.8767,-324.5518 179.7908,-318.8256 169.2514,-317.743 170.8767,-324.5518"/>
</g>
<!-- Node117&#45;&gt;Node85 -->
<g id="edge97" class="edge">
<title>Node117&#45;&gt;Node85</title>
<path fill="none" stroke="#191970" d="M1280.5258,-610.4096C1338.5012,-589.7631 1480.9341,-539.0392 1556.7129,-512.0524"/>
<polygon fill="#191970" stroke="#191970" points="1558.2569,-515.2179 1566.5031,-508.5658 1555.9084,-508.6236 1558.2569,-515.2179"/>
</g>
<!-- Node117&#45;&gt;Node121 -->
<g id="edge98" class="edge">
<title>Node117&#45;&gt;Node121</title>
<path fill="none" stroke="#191970" d="M1316.0425,-619.1233C1465.7884,-617.6377 1842.2704,-610.2948 1885,-574 1912.6881,-550.4815 1904,-530.8284 1904,-494.5 1904,-494.5 1904,-494.5 1904,-429.5 1904,-396.2578 1904,-357.8357 1904,-333.6052"/>
<polygon fill="#191970" stroke="#191970" points="1907.5001,-333.5405 1904,-323.5405 1900.5001,-333.5406 1907.5001,-333.5405"/>
</g>
<!-- Node117&#45;&gt;Node129 -->
<g id="edge102" class="edge">
<title>Node117&#45;&gt;Node129</title>
<path fill="none" stroke="#191970" d="M1222.8018,-610.3873C1185.8548,-599.9306 1125.1596,-582.7527 1084.6453,-571.2864"/>
<polygon fill="#191970" stroke="#191970" points="1085.3818,-567.8574 1074.8066,-568.5019 1083.4755,-574.5929 1085.3818,-567.8574"/>
</g>
<!-- Node121&#45;&gt;Node1 -->
<g id="edge99" class="edge">
<title>Node121&#45;&gt;Node1</title>
<path fill="none" stroke="#191970" d="M1963.1433,-296.4746C1965.7956,-295.9617 1968.4238,-295.4675 1971,-295 2089.3914,-273.5159 2500,-299.8249 2500,-179.5 2500,-179.5 2500,-179.5 2500,-119.5 2500,-88.9131 2500.8437,-72.8422 2476,-55 2446.138,-33.5538 1274.831,-13.7137 1049.3401,-10.0888"/>
<polygon fill="#191970" stroke="#191970" points="1049.3804,-6.5891 1039.3257,-9.9285 1049.2683,-13.5882 1049.3804,-6.5891"/>
</g>
<!-- Node121&#45;&gt;Node2 -->
<g id="edge100" class="edge">
<title>Node121&#45;&gt;Node2</title>
<path fill="none" stroke="#191970" d="M1845.0877,-302.7583C1739.4107,-290.665 1518.1644,-265.3463 1405.3535,-252.4366"/>
<polygon fill="#191970" stroke="#191970" points="1405.4451,-248.9243 1395.1119,-251.2646 1404.6491,-255.8789 1405.4451,-248.9243"/>
</g>
<!-- Node121&#45;&gt;Node41 -->
<g id="edge101" class="edge">
<title>Node121&#45;&gt;Node41</title>
<path fill="none" stroke="#191970" d="M1954.4209,-295.4642C2047.0968,-269.6658 2242.8877,-215.163 2328.933,-191.2103"/>
<polygon fill="#191970" stroke="#191970" points="2329.9292,-194.5661 2338.6243,-188.5125 2328.0519,-187.8225 2329.9292,-194.5661"/>
</g>
<!-- Node129&#45;&gt;Node1 -->
<g id="edge103" class="edge">
<title>Node129&#45;&gt;Node1</title>
<path fill="none" stroke="#191970" d="M968.2436,-550.481C891.518,-541.0096 768.7403,-525.2573 663,-509 364.8744,-463.164 38,-546.1286 38,-244.5 38,-244.5 38,-244.5 38,-119.5 38,-82.1131 58.5259,-71.6513 92,-55 132.125,-35.0403 807.5535,-15.1444 974.7785,-10.5083"/>
<polygon fill="#191970" stroke="#191970" points="974.9254,-14.0057 984.8251,-10.2313 974.7324,-7.0084 974.9254,-14.0057"/>
</g>
<!-- Node129&#45;&gt;Node2 -->
<g id="edge104" class="edge">
<title>Node129&#45;&gt;Node2</title>
<path fill="none" stroke="#191970" d="M1043,-550.3586C1043,-529.1337 1043,-474.8646 1043,-429.5 1043,-429.5 1043,-429.5 1043,-369.5 1043,-317.9152 1086.0042,-318.3532 1132,-295 1174.2267,-273.5605 1226.0763,-260.8795 1266.9355,-253.5869"/>
<polygon fill="#191970" stroke="#191970" points="1267.5436,-257.0338 1276.8066,-251.8911 1266.3583,-250.1349 1267.5436,-257.0338"/>
</g>
<!-- Node129&#45;&gt;Node64 -->
<g id="edge105" class="edge">
<title>Node129&#45;&gt;Node64</title>
<path fill="none" stroke="#191970" d="M999.2006,-550.462C946.0358,-539.4915 855.8609,-520.884 794.2009,-508.1605"/>
<polygon fill="#191970" stroke="#191970" points="794.6805,-504.6858 784.1795,-506.0926 793.2658,-511.5414 794.6805,-504.6858"/>
</g>
<!-- Node134&#45;&gt;Node1 -->
<g id="edge109" class="edge">
<title>Node134&#45;&gt;Node1</title>
<path fill="none" stroke="#191970" d="M1876.1975,-546.6847C2000.7023,-518.26 2296.6657,-442.8925 2521,-324 2539.7718,-314.0513 2540.4646,-305.3826 2559,-295 2597.6688,-273.3397 2619.4833,-289.1182 2652,-259 2680.7312,-232.3881 2690,-218.6622 2690,-179.5 2690,-179.5 2690,-179.5 2690,-119.5 2690,-86.0004 2679.9483,-71.8588 2651,-55 2615.2299,-34.1684 1290.6454,-13.6189 1049.4763,-10.0459"/>
<polygon fill="#191970" stroke="#191970" points="1049.4972,-6.5459 1039.4466,-9.8979 1049.3939,-13.5452 1049.4972,-6.5459"/>
</g>
<!-- Node134&#45;&gt;Node2 -->
<g id="edge110" class="edge">
<title>Node134&#45;&gt;Node2</title>
<path fill="none" stroke="#191970" d="M1801.9848,-545.4869C1779.8361,-523.2153 1741,-477.3423 1741,-429.5 1741,-429.5 1741,-429.5 1741,-369.5 1741,-300.0348 1520.7139,-265.0422 1405.0667,-251.4579"/>
<polygon fill="#191970" stroke="#191970" points="1405.2253,-247.9531 1394.8905,-250.286 1404.4244,-254.9071 1405.2253,-247.9531"/>
</g>
<!-- Node134&#45;&gt;Node32 -->
<g id="edge111" class="edge">
<title>Node134&#45;&gt;Node32</title>
<path fill="none" stroke="#191970" d="M1817,-545.4568C1817,-521.6171 1817,-471.7049 1817,-429.5 1817,-429.5 1817,-429.5 1817,-309.5 1817,-252.6182 1990.02,-209.7035 2084.35,-190.5335"/>
<polygon fill="#191970" stroke="#191970" points="2085.2181,-193.9292 2094.3357,-188.533 2083.843,-187.0655 2085.2181,-193.9292"/>
</g>
<!-- Node134&#45;&gt;Node85 -->
<g id="edge112" class="edge">
<title>Node134&#45;&gt;Node85</title>
<path fill="none" stroke="#191970" d="M1771.4759,-545.476C1739.2787,-535.5574 1695.9216,-522.201 1661.6652,-511.6481"/>
<polygon fill="#191970" stroke="#191970" points="1662.3935,-508.2101 1651.8062,-508.6109 1660.3326,-514.8999 1662.3935,-508.2101"/>
</g>
<!-- Node164&#45;&gt;Node1 -->
<g id="edge114" class="edge">
<title>Node164&#45;&gt;Node1</title>
<path fill="none" stroke="#191970" d="M2318.4877,-295.4696C2387.9682,-283.5273 2477.4427,-267.064 2493,-259 2538.3504,-235.493 2576,-230.5807 2576,-179.5 2576,-179.5 2576,-179.5 2576,-119.5 2576,-83.2287 2558.3267,-71.4495 2526,-55 2458.194,-20.4968 1275.4401,-11.1906 1049.2259,-9.7231"/>
<polygon fill="#191970" stroke="#191970" points="1049.2072,-6.223 1039.1851,-9.6591 1049.1625,-13.2229 1049.2072,-6.223"/>
</g>
<!-- Node164&#45;&gt;Node2 -->
<g id="edge115" class="edge">
<title>Node164&#45;&gt;Node2</title>
<path fill="none" stroke="#191970" d="M2147.8301,-296.0069C2144.853,-295.6495 2141.903,-295.3122 2139,-295 1868.3517,-265.8928 1544.4435,-251.837 1405.1912,-246.7841"/>
<polygon fill="#191970" stroke="#191970" points="1405.2065,-243.2825 1395.0874,-246.4216 1404.9555,-250.278 1405.2065,-243.2825"/>
</g>
<!-- Node169&#45;&gt;Node1 -->
<g id="edge117" class="edge">
<title>Node169&#45;&gt;Node1</title>
<path fill="none" stroke="#191970" d="M2789.6156,-295.1191C2785.8626,-271.198 2779,-221.6885 2779,-179.5 2779,-179.5 2779,-179.5 2779,-119.5 2779,-82.6774 2760.0047,-71.3277 2727,-55 2649.2754,-16.549 1293.3686,-10.4014 1049.4341,-9.6052"/>
<polygon fill="#191970" stroke="#191970" points="1049.3111,-6.1049 1039.3001,-9.5732 1049.2889,-13.1049 1049.3111,-6.1049"/>
</g>
<!-- Node169&#45;&gt;Node2 -->
<g id="edge118" class="edge">
<title>Node169&#45;&gt;Node2</title>
<path fill="none" stroke="#191970" d="M2724.063,-296.1365C2721.0057,-295.7151 2717.9741,-295.3326 2715,-295 2456.9605,-266.1432 1647.2337,-249.9483 1405.0738,-245.6617"/>
<polygon fill="#191970" stroke="#191970" points="1405.0536,-242.1609 1394.9936,-245.4844 1404.9304,-249.1598 1405.0536,-242.1609"/>
</g>
<!-- Node169&#45;&gt;Node28 -->
<g id="edge119" class="edge">
<title>Node169&#45;&gt;Node28</title>
<path fill="none" stroke="#191970" d="M2724.0677,-296.0928C2721.0092,-295.6832 2717.976,-295.3151 2715,-295 2075.2669,-227.2547 1909.9675,-300.5406 1268,-259 1017.9259,-242.8181 723.0581,-207.1505 586.0966,-189.6239"/>
<polygon fill="#191970" stroke="#191970" points="586.4783,-186.1443 576.1141,-188.3428 585.5872,-193.0874 586.4783,-186.1443"/>
</g>
<!-- Node169&#45;&gt;Node170 -->
<g id="edge120" class="edge">
<title>Node169&#45;&gt;Node170</title>
<path fill="none" stroke="#191970" d="M2826.7176,-295.396C2850.5148,-285.7284 2882.2828,-272.8226 2907.874,-262.4262"/>
<polygon fill="#191970" stroke="#191970" points="2909.4028,-265.583 2917.3501,-258.5765 2906.7681,-259.0977 2909.4028,-265.583"/>
</g>
<!-- Node186&#45;&gt;Node1 -->
<g id="edge123" class="edge">
<title>Node186&#45;&gt;Node1</title>
<path fill="none" stroke="#191970" d="M2915.2989,-295.3712C2883.5074,-274.4148 2831,-231.8751 2831,-179.5 2831,-179.5 2831,-179.5 2831,-119.5 2831,-75.8714 2797.6526,-70.8374 2757,-55 2674.7436,-22.9546 1296.2694,-11.5477 1049.6206,-9.7591"/>
<polygon fill="#191970" stroke="#191970" points="1049.4036,-6.2576 1039.3788,-9.6857 1049.3534,-13.2574 1049.4036,-6.2576"/>
</g>
<!-- Node186&#45;&gt;Node2 -->
<g id="edge124" class="edge">
<title>Node186&#45;&gt;Node2</title>
<path fill="none" stroke="#191970" d="M2878.0176,-296.2267C2874.976,-295.7662 2871.9577,-295.3524 2869,-295 2579.6896,-260.5283 1664.8652,-248.0901 1405.2843,-245.2047"/>
<polygon fill="#191970" stroke="#191970" points="1405.2724,-241.7044 1395.2344,-245.0941 1405.1953,-248.704 1405.2724,-241.7044"/>
</g>
<!-- Node186&#45;&gt;Node170 -->
<g id="edge125" class="edge">
<title>Node186&#45;&gt;Node170</title>
<path fill="none" stroke="#191970" d="M2941.8208,-295.396C2943.3881,-287.5597 2945.3808,-277.5958 2947.1869,-268.5653"/>
<polygon fill="#191970" stroke="#191970" points="2950.6555,-269.0687 2949.1847,-258.5765 2943.7914,-267.6959 2950.6555,-269.0687"/>
</g>
<!-- Node188&#45;&gt;Node1 -->
<g id="edge127" class="edge">
<title>Node188&#45;&gt;Node1</title>
<path fill="none" stroke="#191970" d="M3081.6156,-295.1191C3077.8626,-271.198 3071,-221.6885 3071,-179.5 3071,-179.5 3071,-179.5 3071,-119.5 3071,6.4718 2919.9485,-71.0235 2795,-55 2616.4392,-32.1013 1290.9679,-13.2587 1049.6443,-9.999"/>
<polygon fill="#191970" stroke="#191970" points="1049.3399,-6.4946 1039.2937,-9.8597 1049.2457,-13.494 1049.3399,-6.4946"/>
</g>
<!-- Node188&#45;&gt;Node2 -->
<g id="edge128" class="edge">
<title>Node188&#45;&gt;Node2</title>
<path fill="none" stroke="#191970" d="M3017.8349,-296.1099C3014.8551,-295.6957 3011.8998,-295.322 3009,-295 2690.5315,-259.6406 1679.1556,-247.7255 1405.077,-245.1031"/>
<polygon fill="#191970" stroke="#191970" points="1404.9057,-241.6014 1394.873,-245.0065 1404.8394,-248.6011 1404.9057,-241.6014"/>
</g>
<!-- Node188&#45;&gt;Node170 -->
<g id="edge129" class="edge">
<title>Node188&#45;&gt;Node170</title>
<path fill="none" stroke="#191970" d="M3055.358,-295.396C3036.1577,-285.9413 3010.668,-273.3896 2989.8064,-263.1168"/>
<polygon fill="#191970" stroke="#191970" points="2991.1036,-259.8543 2980.5861,-258.5765 2988.0112,-266.1342 2991.1036,-259.8543"/>
</g>
<!-- Node190&#45;&gt;Node1 -->
<g id="edge131" class="edge">
<title>Node190&#45;&gt;Node1</title>
<path fill="none" stroke="#191970" d="M2484.9265,-300.4714C2535.9192,-288.8874 2617.653,-269.0883 2628,-259 2654.4265,-233.2345 2652,-216.4083 2652,-179.5 2652,-179.5 2652,-179.5 2652,-119.5 2652,-88.9131 2652.8697,-72.8059 2628,-55 2594.8491,-31.265 1289.7935,-13.1224 1049.7377,-9.9826"/>
<polygon fill="#191970" stroke="#191970" points="1049.4771,-6.479 1039.4324,-9.8485 1049.3859,-13.4784 1049.4771,-6.479"/>
</g>
<!-- Node190&#45;&gt;Node2 -->
<g id="edge132" class="edge">
<title>Node190&#45;&gt;Node2</title>
<path fill="none" stroke="#191970" d="M2379.3174,-300.485C2362.9274,-298.4373 2345.3369,-296.4433 2329,-295 1982.816,-264.4155 1566.9762,-250.7031 1405.154,-246.2411"/>
<polygon fill="#191970" stroke="#191970" points="1404.9575,-242.7346 1394.8658,-245.9605 1404.7666,-249.732 1404.9575,-242.7346"/>
</g>
<!-- Node369&#45;&gt;Node1 -->
<g id="edge134" class="edge">
<title>Node369&#45;&gt;Node1</title>
<path fill="none" stroke="#191970" d="M2663.1624,-295.3037C2677.1057,-286.5219 2693.5004,-274.0531 2704,-259 2725.1148,-228.7281 2728,-216.4083 2728,-179.5 2728,-179.5 2728,-179.5 2728,-119.5 2728,-88.9131 2728.881,-72.7902 2704,-55 2669.1847,-30.1066 1295.6985,-12.8309 1049.5629,-9.9318"/>
<polygon fill="#191970" stroke="#191970" points="1049.3815,-6.4295 1039.3411,-9.812 1049.2994,-13.429 1049.3815,-6.4295"/>
</g>
<!-- Node369&#45;&gt;Node2 -->
<g id="edge135" class="edge">
<title>Node369&#45;&gt;Node2</title>
<path fill="none" stroke="#191970" d="M2568.0909,-299.9451C2552.6224,-298.0628 2536.2698,-296.2776 2521,-295 2098.0366,-259.6119 1587.9538,-248.4716 1405.2503,-245.4739"/>
<polygon fill="#191970" stroke="#191970" points="1405.0383,-241.9702 1394.9832,-245.3084 1404.9254,-248.9693 1405.0383,-241.9702"/>
</g>
</g>
</svg>
        <g id="navigator" transform="translate(0 0)" fill="#404254">
                <rect fill="#f2f5e9" fill-opacity="0.5" stroke="#606060" stroke-width=".5" x="0" y="0" width="60" height="60"/>
                <use id="zoomplus" xlink:href="#zoomPlus" x="17" y="9" onmousedown="handleZoom(evt,'in')"/>
                <use id="zoomminus" xlink:href="#zoomMin" x="42" y="9" onmousedown="handleZoom(evt,'out')"/>
                <use id="reset" xlink:href="#resetDef" x="30" y="36" onmousedown="handleReset()"/>
                <g id="arrowUp" xlink:href="#dirArrow" transform="translate(30 24)" onmousedown="handlePan(0,-1)">
                  <use xlink:href="#rim" fill="#404040">
                        <set attributeName="fill" to="#808080" begin="arrowUp.mouseover" end="arrowUp.mouseout"/>
                  </use>
                  <path fill="none" stroke="white" stroke-width="1.5" d="M0,-3.0v7 M-2.5,-0.5L0,-3.0L2.5,-0.5"/>
                </g>
                <g id="arrowRight" xlink:href="#dirArrow" transform="rotate(90) translate(36 -43)" onmousedown="handlePan(1,0)">
                  <use xlink:href="#rim" fill="#404040">
                        <set attributeName="fill" to="#808080" begin="arrowRight.mouseover" end="arrowRight.mouseout"/>
                  </use>
                  <path fill="none" stroke="white" stroke-width="1.5" d="M0,-3.0v7 M-2.5,-0.5L0,-3.0L2.5,-0.5"/>
                </g>
                <g id="arrowDown" xlink:href="#dirArrow" transform="rotate(180) translate(-30 -48)" onmousedown="handlePan(0,1)">
                  <use xlink:href="#rim" fill="#404040">
                        <set attributeName="fill" to="#808080" begin="arrowDown.mouseover" end="arrowDown.mouseout"/>
                  </use>
                  <path fill="none" stroke="white" stroke-width="1.5" d="M0,-3.0v7 M-2.5,-0.5L0,-3.0L2.5,-0.5"/>
                </g>
                <g id="arrowLeft" xlink:href="#dirArrow" transform="rotate(270) translate(-36 17)" onmousedown="handlePan(-1,0)">
                  <use xlink:href="#rim" fill="#404040">
                        <set attributeName="fill" to="#808080" begin="arrowLeft.mouseover" end="arrowLeft.mouseout"/>
                  </use>
                  <path fill="none" stroke="white" stroke-width="1.5" d="M0,-3.0v7 M-2.5,-0.5L0,-3.0L2.5,-0.5"/>
                </g>
        </g>
        <svg viewBox="0 0 15 15" width="100%" height="30px" preserveAspectRatio="xMaxYMin meet">
         <g id="arrow_out" transform="scale(0.3 0.3)">
          <a xlink:href="testStabbingCircleComputer_8cpp__incl_org.svg" target="_base">
           <rect id="button" ry="5" rx="5" y="6" x="6" height="38" width="38"
                fill="#f2f5e9" fill-opacity="0.5" stroke="#606060" stroke-width="1.0"/>
           <path id="arrow"
             d="M 11.500037,31.436501 C 11.940474,20.09759 22.043105,11.32322 32.158766,21.979434 L 37.068811,17.246167 C 37.068811,17.246167 37.088388,32 37.088388,32 L 22.160133,31.978069 C 22.160133,31.978069 26.997745,27.140456 26.997745,27.140456 C 18.528582,18.264221 13.291696,25.230495 11.500037,31.436501 z"
             style="fill:#404040;"/>
          </a>
         </g>
        </svg>
</svg>
