<?xml version="1.0" encoding="UTF-8" standalone="no"?>
<!DOCTYPE svg PUBLIC "-//W3C//DTD SVG 1.1//EN"
 "http://www.w3.org/Graphics/SVG/1.1/DTD/svg11.dtd">
<!-- Generated by graphviz version 2.40.1 (20161225.0304)
 -->
<!-- Title: testSliceImageFromFunctor.cpp Pages: 1 -->
<!--zoomable 692 -->
<svg id="main" version="1.1" xmlns="http://www.w3.org/2000/svg" xmlns:xlink="http://www.w3.org/1999/xlink" xml:space="preserve" onload="init(evt)">
<style type="text/css"><![CDATA[
.edge:hover path { stroke: red; }
.edge:hover polygon { stroke: red; fill: red; }
]]></style>
<script type="text/javascript"><![CDATA[
var edges = document.getElementsByTagName('g');
if (edges && edges.length) {
  for (var i=0;i<edges.length;i++) {
    if (edges[i].id.substr(0,4)=='edge') {
      edges[i].setAttribute('class','edge');
    }
  }
}
]]></script>
        <defs>
                <circle id="rim" cx="0" cy="0" r="7"/>
                <circle id="rim2" cx="0" cy="0" r="3.5"/>
                <g id="zoomPlus">
                        <use xlink:href="#rim" fill="#404040">
                                <set attributeName="fill" to="#808080" begin="zoomplus.mouseover" end="zoomplus.mouseout"/>
                        </use>
                        <path d="M-4,0h8M0,-4v8" fill="none" stroke="white" stroke-width="1.5" pointer-events="none"/>
                </g>
                <g id="zoomMin">
                        <use xlink:href="#rim" fill="#404040">
                                <set attributeName="fill" to="#808080" begin="zoomminus.mouseover" end="zoomminus.mouseout"/>
                        </use>
                        <path d="M-4,0h8" fill="none" stroke="white" stroke-width="1.5" pointer-events="none"/>
                </g>
                <g id="dirArrow">
                        <path fill="none" stroke="white" stroke-width="1.5" d="M0,-3.0v7 M-2.5,-0.5L0,-3.0L2.5,-0.5"/>
                </g>
               <g id="resetDef">
                       <use xlink:href="#rim2" fill="#404040">
                               <set attributeName="fill" to="#808080" begin="reset.mouseover" end="reset.mouseout"/>
                       </use>
               </g>
        </defs>

<script type="text/javascript">
var viewWidth = 2987;
var viewHeight = 692;
var sectionId = 'dynsection-0';
</script>
<script xlink:href="svgpan.js"/>
<svg id="graph" class="graph">
<g id="viewport">
<title>testSliceImageFromFunctor.cpp</title>
<polygon fill="#ffffff" stroke="transparent" points="-4,4 -4,-688 2983.0415,-688 2983.0415,4 -4,4"/>
<!-- Node0 -->
<g id="node1" class="node">
<title>Node0</title>
<g id="a_node1"><a xlink:title=" ">
<polygon fill="#bfbfbf" stroke="#000000" points="1761.4141,-665.5 1761.4141,-683.5 1918.5859,-683.5 1918.5859,-665.5 1761.4141,-665.5"/>
<text text-anchor="middle" x="1840" y="-671.5" font-family="FreeSans" font-size="10.00" fill="#000000">testSliceImageFromFunctor.cpp</text>
</a>
</g>
</g>
<!-- Node1 -->
<g id="node2" class="node">
<title>Node1</title>
<g id="a_node2"><a xlink:title=" ">
<polygon fill="#ffffff" stroke="#bfbfbf" points="924.8276,-.5 924.8276,-18.5 979.1724,-18.5 979.1724,-.5 924.8276,-.5"/>
<text text-anchor="middle" x="952" y="-6.5" font-family="FreeSans" font-size="10.00" fill="#000000">iostream</text>
</a>
</g>
</g>
<!-- Node0&#45;&gt;Node1 -->
<g id="edge1" class="edge">
<title>Node0&#45;&gt;Node1</title>
<path fill="none" stroke="#191970" d="M1761.2321,-673.976C1409.5362,-671.1293 0,-654.1291 0,-564.5 0,-564.5 0,-564.5 0,-119.5 0,-81.5364 21.8701,-71.6249 56,-55 133.9372,-17.0363 753.9776,-10.6916 914.2783,-9.6826"/>
<polygon fill="#191970" stroke="#191970" points="914.6088,-13.1808 924.5877,-9.6212 914.567,-6.1809 914.6088,-13.1808"/>
</g>
<!-- Node2 -->
<g id="node3" class="node">
<title>Node2</title>
<g id="a_node3"><a xlink:href="Common_8h_source.html" target="_top" xlink:title=" ">
<polygon fill="#ffffff" stroke="#000000" points="1213.1455,-230.5 1213.1455,-248.5 1330.8545,-248.5 1330.8545,-230.5 1213.1455,-230.5"/>
<text text-anchor="middle" x="1272" y="-236.5" font-family="FreeSans" font-size="10.00" fill="#000000">DGtal/base/Common.h</text>
</a>
</g>
</g>
<!-- Node0&#45;&gt;Node2 -->
<g id="edge2" class="edge">
<title>Node0&#45;&gt;Node2</title>
<path fill="none" stroke="#191970" d="M1918.641,-668.7235C2053.1473,-656.9152 2310.3531,-624.9919 2282,-555 2189.9578,-327.7862 2072.4236,-387.9469 1635,-285 1534.3239,-261.3061 1414.8505,-249.3452 1341.2291,-243.7777"/>
<polygon fill="#191970" stroke="#191970" points="1341.3824,-240.2796 1331.1519,-243.034 1340.8671,-247.2606 1341.3824,-240.2796"/>
</g>
<!-- Node42 -->
<g id="node26" class="node">
<title>Node42</title>
<g id="a_node26"><a xlink:href="StdDefs_8h_source.html" target="_top" xlink:title=" ">
<polygon fill="#ffffff" stroke="#000000" points="1249.0864,-555.5 1249.0864,-573.5 1372.9136,-573.5 1372.9136,-555.5 1249.0864,-555.5"/>
<text text-anchor="middle" x="1311" y="-561.5" font-family="FreeSans" font-size="10.00" fill="#000000">DGtal/helpers/StdDefs.h</text>
</a>
</g>
</g>
<!-- Node0&#45;&gt;Node42 -->
<g id="edge43" class="edge">
<title>Node0&#45;&gt;Node42</title>
<path fill="none" stroke="#191970" d="M1796.7097,-665.4982C1700.5899,-645.5111 1469.59,-597.4771 1364.5786,-575.6411"/>
<polygon fill="#191970" stroke="#191970" points="1365.02,-572.1581 1354.5168,-573.5489 1363.5948,-579.0115 1365.02,-572.1581"/>
</g>
<!-- Node159 -->
<g id="node43" class="node">
<title>Node159</title>
<g id="a_node43"><a xlink:href="BasicPointFunctors_8h_source.html" target="_top" xlink:title=" ">
<polygon fill="#ffffff" stroke="#ff0000" points="1755.5791,-610.5 1755.5791,-628.5 1924.4209,-628.5 1924.4209,-610.5 1755.5791,-610.5"/>
<text text-anchor="middle" x="1840" y="-616.5" font-family="FreeSans" font-size="10.00" fill="#000000">DGtal/kernel/BasicPointFunctors.h</text>
</a>
</g>
</g>
<!-- Node0&#45;&gt;Node159 -->
<g id="edge102" class="edge">
<title>Node0&#45;&gt;Node159</title>
<path fill="none" stroke="#191970" d="M1840,-665.4179C1840,-658.2164 1840,-647.8962 1840,-638.8632"/>
<polygon fill="#191970" stroke="#191970" points="1843.5001,-638.7794 1840,-628.7795 1836.5001,-638.7795 1843.5001,-638.7794"/>
</g>
<!-- Node161 -->
<g id="node46" class="node">
<title>Node161</title>
<g id="a_node46"><a xlink:href="VolReader_8h_source.html" target="_top" xlink:title=" ">
<polygon fill="#ffffff" stroke="#ff0000" points="2832.9585,-295.5 2832.9585,-313.5 2979.0415,-313.5 2979.0415,-295.5 2832.9585,-295.5"/>
<text text-anchor="middle" x="2906" y="-301.5" font-family="FreeSans" font-size="10.00" fill="#000000">DGtal/io/readers/VolReader.h</text>
</a>
</g>
</g>
<!-- Node0&#45;&gt;Node161 -->
<g id="edge120" class="edge">
<title>Node0&#45;&gt;Node161</title>
<path fill="none" stroke="#191970" d="M1918.8401,-672.1794C2090.4737,-666.7636 2493.3415,-651.9799 2628,-629 2726.3412,-612.2177 2843,-664.2629 2843,-564.5 2843,-564.5 2843,-564.5 2843,-439.5 2843,-393.4298 2873.5007,-346.1122 2892.0573,-321.5875"/>
<polygon fill="#191970" stroke="#191970" points="2894.8772,-323.6631 2898.275,-313.6279 2889.3608,-319.3539 2894.8772,-323.6631"/>
</g>
<!-- Node164 -->
<g id="node47" class="node">
<title>Node164</title>
<g id="a_node47"><a xlink:href="PGMWriter_8h_source.html" target="_top" xlink:title=" ">
<polygon fill="#ffffff" stroke="#ff0000" points="2556.9106,-295.5 2556.9106,-313.5 2701.0894,-313.5 2701.0894,-295.5 2556.9106,-295.5"/>
<text text-anchor="middle" x="2629" y="-301.5" font-family="FreeSans" font-size="10.00" fill="#000000">DGtal/io/writers/PGMWriter.h</text>
</a>
</g>
</g>
<!-- Node0&#45;&gt;Node164 -->
<g id="edge123" class="edge">
<title>Node0&#45;&gt;Node164</title>
<path fill="none" stroke="#191970" d="M1918.8414,-672.1173C2108.713,-666.07 2577.7432,-649.1668 2605,-629 2629.5884,-610.8076 2629,-595.0869 2629,-564.5 2629,-564.5 2629,-564.5 2629,-439.5 2629,-398.2592 2629,-349.9316 2629,-323.7435"/>
<polygon fill="#191970" stroke="#191970" points="2632.5001,-323.6666 2629,-313.6666 2625.5001,-323.6666 2632.5001,-323.6666"/>
</g>
<!-- Node167 -->
<g id="node48" class="node">
<title>Node167</title>
<g id="a_node48"><a xlink:href="ImageContainerBySTLVector_8h_source.html" target="_top" xlink:title=" ">
<polygon fill="#ffffff" stroke="#ff0000" points="875.7466,-425.5 875.7466,-453.5 1026.2534,-453.5 1026.2534,-425.5 875.7466,-425.5"/>
<text text-anchor="start" x="883.7466" y="-441.5" font-family="FreeSans" font-size="10.00" fill="#000000">DGtal/images/ImageContainer</text>
<text text-anchor="middle" x="951" y="-431.5" font-family="FreeSans" font-size="10.00" fill="#000000">BySTLVector.h</text>
</a>
</g>
</g>
<!-- Node0&#45;&gt;Node167 -->
<g id="edge128" class="edge">
<title>Node0&#45;&gt;Node167</title>
<path fill="none" stroke="#191970" d="M1761.1342,-668.4903C1644.8022,-658.0268 1421.3912,-631.7952 1240,-574 1143.4991,-543.2527 1037.2748,-487.7287 984.5478,-458.5672"/>
<polygon fill="#191970" stroke="#191970" points="986.0826,-455.4158 975.6427,-453.6107 982.6782,-461.5323 986.0826,-455.4158"/>
</g>
<!-- Node175 -->
<g id="node49" class="node">
<title>Node175</title>
<g id="a_node49"><a xlink:href="ConstImageAdapter_8h_source.html" target="_top" xlink:title=" ">
<polygon fill="#ffffff" stroke="#ff0000" points="103.9561,-365.5 103.9561,-383.5 280.0439,-383.5 280.0439,-365.5 103.9561,-365.5"/>
<text text-anchor="middle" x="192" y="-371.5" font-family="FreeSans" font-size="10.00" fill="#000000">DGtal/images/ConstImageAdapter.h</text>
</a>
</g>
</g>
<!-- Node0&#45;&gt;Node175 -->
<g id="edge135" class="edge">
<title>Node0&#45;&gt;Node175</title>
<path fill="none" stroke="#191970" d="M1761.3054,-673.2876C1438.2671,-667.8022 231,-642.1104 231,-564.5 231,-564.5 231,-564.5 231,-504.5 231,-463.2644 212.7753,-417.6566 201.2425,-392.9235"/>
<polygon fill="#191970" stroke="#191970" points="204.2788,-391.1621 196.7822,-383.6753 197.9738,-394.203 204.2788,-391.1621"/>
</g>
<!-- Node186 -->
<g id="node50" class="node">
<title>Node186</title>
<g id="a_node50"><a xlink:title=" ">
<polygon fill="#ffffff" stroke="#bfbfbf" points="2871.207,-610.5 2871.207,-628.5 2942.793,-628.5 2942.793,-610.5 2871.207,-610.5"/>
<text text-anchor="middle" x="2907" y="-616.5" font-family="FreeSans" font-size="10.00" fill="#000000">ConfigTest.h</text>
</a>
</g>
</g>
<!-- Node0&#45;&gt;Node186 -->
<g id="edge141" class="edge">
<title>Node0&#45;&gt;Node186</title>
<path fill="none" stroke="#191970" d="M1918.6621,-672.4384C2124.5094,-666.8098 2675.6385,-650.1762 2857,-629 2858.2835,-628.8501 2859.5836,-628.6864 2860.8941,-628.5108"/>
<polygon fill="#191970" stroke="#191970" points="2861.6841,-631.931 2871.0447,-626.9682 2860.6324,-625.0105 2861.6841,-631.931"/>
</g>
<!-- Node2&#45;&gt;Node1 -->
<g id="edge3" class="edge">
<title>Node2&#45;&gt;Node1</title>
<path fill="none" stroke="#191970" d="M1212.8728,-236.6837C1111.177,-231.2293 911.9786,-217.6329 891,-194 868.4475,-168.594 919.1314,-68.9759 941.7796,-27.6343"/>
<polygon fill="#191970" stroke="#191970" points="944.9616,-29.1132 946.7532,-18.671 938.8408,-25.7168 944.9616,-29.1132"/>
</g>
<!-- Node3 -->
<g id="node4" class="node">
<title>Node3</title>
<g id="a_node4"><a xlink:title=" ">
<polygon fill="#ffffff" stroke="#bfbfbf" points="1109.5962,-170.5 1109.5962,-188.5 1168.4038,-188.5 1168.4038,-170.5 1109.5962,-170.5"/>
<text text-anchor="middle" x="1139" y="-176.5" font-family="FreeSans" font-size="10.00" fill="#000000">exception</text>
</a>
</g>
</g>
<!-- Node2&#45;&gt;Node3 -->
<g id="edge4" class="edge">
<title>Node2&#45;&gt;Node3</title>
<path fill="none" stroke="#191970" d="M1251.8002,-230.3873C1229.5051,-220.3294 1193.4261,-204.0531 1168.0881,-192.6225"/>
<polygon fill="#191970" stroke="#191970" points="1169.5088,-189.4237 1158.9542,-188.5019 1166.6302,-195.8045 1169.5088,-189.4237"/>
</g>
<!-- Node4 -->
<g id="node5" class="node">
<title>Node4</title>
<g id="a_node5"><a xlink:title=" ">
<polygon fill="#ffffff" stroke="#bfbfbf" points="2143.436,-110.5 2143.436,-128.5 2200.564,-128.5 2200.564,-110.5 2143.436,-110.5"/>
<text text-anchor="middle" x="2172" y="-116.5" font-family="FreeSans" font-size="10.00" fill="#000000">algorithm</text>
</a>
</g>
</g>
<!-- Node2&#45;&gt;Node4 -->
<g id="edge5" class="edge">
<title>Node2&#45;&gt;Node4</title>
<path fill="none" stroke="#191970" d="M1271.2255,-230.4026C1270.4181,-214.3247 1271.3813,-181.0717 1291,-165 1324.004,-137.9629 1967.1949,-123.518 2133.1832,-120.2309"/>
<polygon fill="#191970" stroke="#191970" points="2133.4854,-123.7258 2143.4149,-120.0305 2133.3483,-116.7271 2133.4854,-123.7258"/>
</g>
<!-- Node5 -->
<g id="node6" class="node">
<title>Node5</title>
<g id="a_node6"><a xlink:title=" ">
<polygon fill="#ffffff" stroke="#bfbfbf" points="1299.5298,-170.5 1299.5298,-188.5 1394.4702,-188.5 1394.4702,-170.5 1299.5298,-170.5"/>
<text text-anchor="middle" x="1347" y="-176.5" font-family="FreeSans" font-size="10.00" fill="#000000">boost/version.hpp</text>
</a>
</g>
</g>
<!-- Node2&#45;&gt;Node5 -->
<g id="edge6" class="edge">
<title>Node2&#45;&gt;Node5</title>
<path fill="none" stroke="#191970" d="M1283.3909,-230.3873C1295.0646,-221.0483 1313.4399,-206.3481 1327.4453,-195.1438"/>
<polygon fill="#191970" stroke="#191970" points="1329.8797,-197.6785 1335.5019,-188.6985 1325.5068,-192.2124 1329.8797,-197.6785"/>
</g>
<!-- Node6 -->
<g id="node7" class="node">
<title>Node6</title>
<g id="a_node7"><a xlink:title=" ">
<polygon fill="#ffffff" stroke="#bfbfbf" points="614.2935,-170.5 614.2935,-188.5 743.7065,-188.5 743.7065,-170.5 614.2935,-170.5"/>
<text text-anchor="middle" x="679" y="-176.5" font-family="FreeSans" font-size="10.00" fill="#000000">boost/concept_check.hpp</text>
</a>
</g>
</g>
<!-- Node2&#45;&gt;Node6 -->
<g id="edge7" class="edge">
<title>Node2&#45;&gt;Node6</title>
<path fill="none" stroke="#191970" d="M1212.8287,-236.0614C1116.9939,-230.0886 922.0045,-216.2607 758,-194 750.2276,-192.945 742.0566,-191.6536 734.0376,-190.2806"/>
<polygon fill="#191970" stroke="#191970" points="734.459,-186.8009 724.0028,-188.5094 733.2422,-193.6944 734.459,-186.8009"/>
</g>
<!-- Node7 -->
<g id="node8" class="node">
<title>Node7</title>
<g id="a_node8"><a xlink:title=" ">
<polygon fill="#ffffff" stroke="#bfbfbf" points="2452.5815,-170.5 2452.5815,-188.5 2571.4185,-188.5 2571.4185,-170.5 2452.5815,-170.5"/>
<text text-anchor="middle" x="2512" y="-176.5" font-family="FreeSans" font-size="10.00" fill="#000000">boost/static_assert.hpp</text>
</a>
</g>
</g>
<!-- Node2&#45;&gt;Node7 -->
<g id="edge8" class="edge">
<title>Node2&#45;&gt;Node7</title>
<path fill="none" stroke="#191970" d="M1330.8784,-238.2749C1495.1519,-234.5936 1972.4023,-222.1043 2368,-194 2392.234,-192.2784 2418.7044,-189.7887 2442.2645,-187.3568"/>
<polygon fill="#191970" stroke="#191970" points="2442.9349,-190.8058 2452.5161,-186.2836 2442.206,-183.8439 2442.9349,-190.8058"/>
</g>
<!-- Node8 -->
<g id="node9" class="node">
<title>Node8</title>
<g id="a_node9"><a xlink:title=" ">
<polygon fill="#ffffff" stroke="#bfbfbf" points="1412.1309,-170.5 1412.1309,-188.5 1539.8691,-188.5 1539.8691,-170.5 1412.1309,-170.5"/>
<text text-anchor="middle" x="1476" y="-176.5" font-family="FreeSans" font-size="10.00" fill="#000000">boost/concept/assert.hpp</text>
</a>
</g>
</g>
<!-- Node2&#45;&gt;Node8 -->
<g id="edge9" class="edge">
<title>Node2&#45;&gt;Node8</title>
<path fill="none" stroke="#191970" d="M1302.9832,-230.3873C1338.3853,-219.9749 1396.4463,-202.8982 1435.4296,-191.4325"/>
<polygon fill="#191970" stroke="#191970" points="1436.7876,-194.6814 1445.3936,-188.5019 1434.8124,-187.9658 1436.7876,-194.6814"/>
</g>
<!-- Node9 -->
<g id="node10" class="node">
<title>Node9</title>
<g id="a_node10"><a xlink:title=" ">
<polygon fill="#ffffff" stroke="#bfbfbf" points="1557.6826,-170.5 1557.6826,-188.5 1694.3174,-188.5 1694.3174,-170.5 1557.6826,-170.5"/>
<text text-anchor="middle" x="1626" y="-176.5" font-family="FreeSans" font-size="10.00" fill="#000000">boost/concept/requires.hpp</text>
</a>
</g>
</g>
<!-- Node2&#45;&gt;Node9 -->
<g id="edge10" class="edge">
<title>Node2&#45;&gt;Node9</title>
<path fill="none" stroke="#191970" d="M1329.3617,-230.4779C1385.4262,-221.5654 1473.1681,-207.3662 1549,-194 1555.3298,-192.8843 1561.9462,-191.6865 1568.5276,-190.4749"/>
<polygon fill="#191970" stroke="#191970" points="1569.6016,-193.8354 1578.795,-188.5694 1568.3242,-186.9529 1569.6016,-193.8354"/>
</g>
<!-- Node10 -->
<g id="node11" class="node">
<title>Node10</title>
<g id="a_node11"><a xlink:title=" ">
<polygon fill="#ffffff" stroke="#bfbfbf" points="1711.8672,-165.5 1711.8672,-193.5 1820.1328,-193.5 1820.1328,-165.5 1711.8672,-165.5"/>
<text text-anchor="start" x="1719.8672" y="-181.5" font-family="FreeSans" font-size="10.00" fill="#000000">boost/iterator/iterator</text>
<text text-anchor="middle" x="1766" y="-171.5" font-family="FreeSans" font-size="10.00" fill="#000000">_concepts.hpp</text>
</a>
</g>
</g>
<!-- Node2&#45;&gt;Node10 -->
<g id="edge11" class="edge">
<title>Node2&#45;&gt;Node10</title>
<path fill="none" stroke="#191970" d="M1330.8635,-235.5544C1412.1809,-229.6019 1563.5951,-216.7135 1701.8562,-194.0638"/>
<polygon fill="#191970" stroke="#191970" points="1702.4949,-197.5058 1711.7871,-192.4161 1701.3491,-190.6002 1702.4949,-197.5058"/>
</g>
<!-- Node11 -->
<g id="node12" class="node">
<title>Node11</title>
<g id="a_node12"><a xlink:title=" ">
<polygon fill="#ffffff" stroke="#bfbfbf" points="1838.397,-170.5 1838.397,-188.5 1985.603,-188.5 1985.603,-170.5 1838.397,-170.5"/>
<text text-anchor="middle" x="1912" y="-176.5" font-family="FreeSans" font-size="10.00" fill="#000000">boost/concept_archetype.hpp</text>
</a>
</g>
</g>
<!-- Node2&#45;&gt;Node11 -->
<g id="edge12" class="edge">
<title>Node2&#45;&gt;Node11</title>
<path fill="none" stroke="#191970" d="M1331.1312,-236.451C1433.0605,-230.7977 1648.3108,-217.1139 1829,-194 1837.3431,-192.9327 1846.1256,-191.6134 1854.7292,-190.2091"/>
<polygon fill="#191970" stroke="#191970" points="1855.4285,-193.6407 1864.71,-188.5315 1854.2681,-186.7376 1855.4285,-193.6407"/>
</g>
<!-- Node12 -->
<g id="node13" class="node">
<title>Node12</title>
<g id="a_node13"><a xlink:title=" ">
<polygon fill="#ffffff" stroke="#bfbfbf" points="2415.3843,-110.5 2415.3843,-128.5 2458.6157,-128.5 2458.6157,-110.5 2415.3843,-110.5"/>
<text text-anchor="middle" x="2437" y="-116.5" font-family="FreeSans" font-size="10.00" fill="#000000">cmath</text>
</a>
</g>
</g>
<!-- Node2&#45;&gt;Node12 -->
<g id="edge13" class="edge">
<title>Node2&#45;&gt;Node12</title>
<path fill="none" stroke="#191970" d="M1330.9185,-238.8275C1462.0633,-236.7323 1787.8092,-228.2142 2058,-194 2075.4004,-191.7966 2317.5573,-143.4234 2405.432,-125.8271"/>
<polygon fill="#191970" stroke="#191970" points="2406.2403,-129.2348 2415.3581,-123.839 2404.8654,-122.3711 2406.2403,-129.2348"/>
</g>
<!-- Node13 -->
<g id="node14" class="node">
<title>Node13</title>
<g id="a_node14"><a xlink:title=" ">
<polygon fill="#ffffff" stroke="#bfbfbf" points="2003.2686,-170.5 2003.2686,-188.5 2048.7314,-188.5 2048.7314,-170.5 2003.2686,-170.5"/>
<text text-anchor="middle" x="2026" y="-176.5" font-family="FreeSans" font-size="10.00" fill="#000000">stdio.h</text>
</a>
</g>
</g>
<!-- Node2&#45;&gt;Node13 -->
<g id="edge14" class="edge">
<title>Node2&#45;&gt;Node13</title>
<path fill="none" stroke="#191970" d="M1330.9596,-238.6169C1480.1888,-235.9299 1869.8715,-225.9745 1995,-194 1996.7018,-193.5651 1998.4239,-193.0373 2000.1391,-192.4439"/>
<polygon fill="#191970" stroke="#191970" points="2001.7756,-195.5554 2009.6943,-188.5167 1999.1145,-189.0809 2001.7756,-195.5554"/>
</g>
<!-- Node14 -->
<g id="node15" class="node">
<title>Node14</title>
<g id="a_node15"><a xlink:href="Config_8h_source.html" target="_top" xlink:title=" ">
<polygon fill="#ffffff" stroke="#ff0000" points="998.9756,-55.5 998.9756,-73.5 1105.0244,-73.5 1105.0244,-55.5 998.9756,-55.5"/>
<text text-anchor="middle" x="1052" y="-61.5" font-family="FreeSans" font-size="10.00" fill="#000000">DGtal/base/Config.h</text>
</a>
</g>
</g>
<!-- Node2&#45;&gt;Node14 -->
<g id="edge15" class="edge">
<title>Node2&#45;&gt;Node14</title>
<path fill="none" stroke="#191970" d="M1213.0891,-236.4069C1114.5449,-230.6251 925.0347,-216.672 905,-194 862.8265,-146.2751 961.003,-99.0799 1016.7703,-77.1748"/>
<polygon fill="#191970" stroke="#191970" points="1018.237,-80.3608 1026.3171,-73.508 1015.7271,-73.8262 1018.237,-80.3608"/>
</g>
<!-- Node16 -->
<g id="node16" class="node">
<title>Node16</title>
<g id="a_node16"><a xlink:href="Trace_8h_source.html" target="_top" xlink:title=" ">
<polygon fill="#ffffff" stroke="#ff0000" points="913.8311,-170.5 913.8311,-188.5 1016.1689,-188.5 1016.1689,-170.5 913.8311,-170.5"/>
<text text-anchor="middle" x="965" y="-176.5" font-family="FreeSans" font-size="10.00" fill="#000000">DGtal/base/Trace.h</text>
</a>
</g>
</g>
<!-- Node2&#45;&gt;Node16 -->
<g id="edge17" class="edge">
<title>Node2&#45;&gt;Node16</title>
<path fill="none" stroke="#191970" d="M1221.3815,-230.4946C1172.3533,-221.6514 1095.9533,-207.5525 1030,-194 1024.9619,-192.9647 1019.7121,-191.8515 1014.4762,-190.7185"/>
<polygon fill="#191970" stroke="#191970" points="1015.001,-187.2506 1004.4838,-188.5309 1013.5039,-194.0886 1015.001,-187.2506"/>
</g>
<!-- Node23 -->
<g id="node17" class="node">
<title>Node23</title>
<g id="a_node17"><a xlink:href="TraceWriterTerm_8h_source.html" target="_top" xlink:title=" ">
<polygon fill="#ffffff" stroke="#ff0000" points="1113.478,-110.5 1113.478,-128.5 1264.522,-128.5 1264.522,-110.5 1113.478,-110.5"/>
<text text-anchor="middle" x="1189" y="-116.5" font-family="FreeSans" font-size="10.00" fill="#000000">DGtal/base/TraceWriterTerm.h</text>
</a>
</g>
</g>
<!-- Node2&#45;&gt;Node23 -->
<g id="edge25" class="edge">
<title>Node2&#45;&gt;Node23</title>
<path fill="none" stroke="#191970" d="M1212.8816,-231.5143C1169.1018,-224.2469 1114.7612,-211.9016 1101,-194 1093.1448,-183.7814 1094.2983,-176.0096 1101,-165 1110.3446,-149.6487 1126.722,-139.2488 1142.8341,-132.3159"/>
<polygon fill="#191970" stroke="#191970" points="1144.2068,-135.5371 1152.2349,-128.6234 1141.6476,-129.0217 1144.2068,-135.5371"/>
</g>
<!-- Node24 -->
<g id="node18" class="node">
<title>Node24</title>
<g id="a_node18"><a xlink:href="Assert_8h_source.html" target="_top" xlink:title=" ">
<polygon fill="#ffffff" stroke="#ff0000" points="990.2588,-110.5 990.2588,-128.5 1095.7412,-128.5 1095.7412,-110.5 990.2588,-110.5"/>
<text text-anchor="middle" x="1043" y="-116.5" font-family="FreeSans" font-size="10.00" fill="#000000">DGtal/base/Assert.h</text>
</a>
</g>
</g>
<!-- Node2&#45;&gt;Node24 -->
<g id="edge28" class="edge">
<title>Node2&#45;&gt;Node24</title>
<path fill="none" stroke="#191970" d="M1218.6767,-230.438C1173.2542,-221.9298 1112.2244,-208.3866 1092,-194 1072.2559,-179.955 1058.3384,-155.2361 1050.5032,-138.145"/>
<polygon fill="#191970" stroke="#191970" points="1053.5845,-136.4514 1046.4129,-128.6528 1047.156,-139.2216 1053.5845,-136.4514"/>
</g>
<!-- Node27 -->
<g id="node19" class="node">
<title>Node27</title>
<g id="a_node19"><a xlink:href="TraceWriterFile_8h_source.html" target="_top" xlink:title=" ">
<polygon fill="#ffffff" stroke="#ff0000" points="613.5322,-55.5 613.5322,-73.5 758.4678,-73.5 758.4678,-55.5 613.5322,-55.5"/>
<text text-anchor="middle" x="686" y="-61.5" font-family="FreeSans" font-size="10.00" fill="#000000">DGtal/base/TraceWriterFile.h</text>
</a>
</g>
</g>
<!-- Node2&#45;&gt;Node27 -->
<g id="edge26" class="edge">
<title>Node2&#45;&gt;Node27</title>
<path fill="none" stroke="#191970" d="M1213.0032,-238.4518C1106.267,-235.7636 885.7842,-226.3532 817,-194 762.947,-168.5757 718.0323,-111.3115 697.6963,-82.205"/>
<polygon fill="#191970" stroke="#191970" points="700.5035,-80.1091 691.977,-73.8202 694.7206,-84.0537 700.5035,-80.1091"/>
</g>
<!-- Node28 -->
<g id="node20" class="node">
<title>Node28</title>
<g id="a_node20"><a xlink:href="ConceptUtils_8h_source.html" target="_top" xlink:title=" ">
<polygon fill="#ffffff" stroke="#000000" points="158.084,-170.5 158.084,-188.5 291.916,-188.5 291.916,-170.5 158.084,-170.5"/>
<text text-anchor="middle" x="225" y="-176.5" font-family="FreeSans" font-size="10.00" fill="#000000">DGtal/base/ConceptUtils.h</text>
</a>
</g>
</g>
<!-- Node2&#45;&gt;Node28 -->
<g id="edge29" class="edge">
<title>Node2&#45;&gt;Node28</title>
<path fill="none" stroke="#191970" d="M1213.0876,-236.1239C1035.0108,-225.919 502.3271,-195.3927 302.1621,-183.9219"/>
<polygon fill="#191970" stroke="#191970" points="302.2104,-180.419 292.0265,-183.3411 301.8099,-187.4075 302.2104,-180.419"/>
</g>
<!-- Node29 -->
<g id="node21" class="node">
<title>Node29</title>
<g id="a_node21"><a xlink:href="BasicTypes_8h_source.html" target="_top" xlink:title=" ">
<polygon fill="#ffffff" stroke="#ff0000" points="776.8599,-55.5 776.8599,-73.5 905.1401,-73.5 905.1401,-55.5 776.8599,-55.5"/>
<text text-anchor="middle" x="841" y="-61.5" font-family="FreeSans" font-size="10.00" fill="#000000">DGtal/base/BasicTypes.h</text>
</a>
</g>
</g>
<!-- Node2&#45;&gt;Node29 -->
<g id="edge31" class="edge">
<title>Node2&#45;&gt;Node29</title>
<path fill="none" stroke="#191970" d="M1213.0589,-237.6803C1099.4093,-233.5613 858.9231,-221.6463 834,-194 806.5954,-163.6011 821.6384,-111.0794 832.665,-83.1792"/>
<polygon fill="#191970" stroke="#191970" points="835.9629,-84.365 836.5975,-73.7892 829.5062,-81.661 835.9629,-84.365"/>
</g>
<!-- Node32 -->
<g id="node22" class="node">
<title>Node32</title>
<g id="a_node22"><a xlink:href="BasicFunctors_8h_source.html" target="_top" xlink:title=" ">
<polygon fill="#ffffff" stroke="#ff0000" points="2218.7515,-170.5 2218.7515,-188.5 2359.2485,-188.5 2359.2485,-170.5 2218.7515,-170.5"/>
<text text-anchor="middle" x="2289" y="-176.5" font-family="FreeSans" font-size="10.00" fill="#000000">DGtal/base/BasicFunctors.h</text>
</a>
</g>
</g>
<!-- Node2&#45;&gt;Node32 -->
<g id="edge33" class="edge">
<title>Node2&#45;&gt;Node32</title>
<path fill="none" stroke="#191970" d="M1331.0014,-236.9304C1469.1175,-231.0133 1823.7061,-215.2838 2120,-194 2148.7415,-191.9354 2180.3431,-189.1757 2208.4071,-186.6181"/>
<polygon fill="#191970" stroke="#191970" points="2208.9355,-190.0844 2218.5745,-185.6867 2208.2968,-183.1136 2208.9355,-190.0844"/>
</g>
<!-- Node40 -->
<g id="node24" class="node">
<title>Node40</title>
<g id="a_node24"><a xlink:href="BasicArchetypes_8h_source.html" target="_top" xlink:title=" ">
<polygon fill="#ffffff" stroke="#000000" points="1161.1899,-55.5 1161.1899,-73.5 1312.8101,-73.5 1312.8101,-55.5 1161.1899,-55.5"/>
<text text-anchor="middle" x="1237" y="-61.5" font-family="FreeSans" font-size="10.00" fill="#000000">DGtal/base/BasicArchetypes.h</text>
</a>
</g>
</g>
<!-- Node2&#45;&gt;Node40 -->
<g id="edge39" class="edge">
<title>Node2&#45;&gt;Node40</title>
<path fill="none" stroke="#191970" d="M1255.4568,-230.3511C1243.1327,-222.5051 1227.237,-209.9487 1220,-194 1214.6741,-182.263 1213.9183,-176.3638 1220,-165 1233.6105,-139.5686 1260.3895,-154.4314 1274,-129 1282.9621,-112.2542 1269.4023,-93.4527 1256.2476,-80.4892"/>
<polygon fill="#191970" stroke="#191970" points="1258.459,-77.7683 1248.7225,-73.5909 1253.7288,-82.9283 1258.459,-77.7683"/>
</g>
<!-- Node41 -->
<g id="node25" class="node">
<title>Node41</title>
<g id="a_node25"><a xlink:href="Exceptions_8h_source.html" target="_top" xlink:title=" ">
<polygon fill="#ffffff" stroke="#000000" points="1330.9707,-55.5 1330.9707,-73.5 1457.0293,-73.5 1457.0293,-55.5 1330.9707,-55.5"/>
<text text-anchor="middle" x="1394" y="-61.5" font-family="FreeSans" font-size="10.00" fill="#000000">DGtal/base/Exceptions.h</text>
</a>
</g>
</g>
<!-- Node2&#45;&gt;Node41 -->
<g id="edge41" class="edge">
<title>Node2&#45;&gt;Node41</title>
<path fill="none" stroke="#191970" d="M1269.3868,-230.2388C1265.7795,-215.5832 1260.8007,-186.5046 1271,-165 1290.3002,-124.3068 1335.038,-94.6309 1364.9001,-78.4777"/>
<polygon fill="#191970" stroke="#191970" points="1366.7797,-81.4447 1374.0218,-73.7115 1363.5379,-75.2405 1366.7797,-81.4447"/>
</g>
<!-- Node14&#45;&gt;Node1 -->
<g id="edge16" class="edge">
<title>Node14&#45;&gt;Node1</title>
<path fill="none" stroke="#191970" d="M1035.487,-55.4179C1019.7089,-46.7399 995.6972,-33.5334 977.4685,-23.5077"/>
<polygon fill="#191970" stroke="#191970" points="978.9864,-20.3481 968.5375,-18.5956 975.6129,-26.4816 978.9864,-20.3481"/>
</g>
<!-- Node16&#45;&gt;Node1 -->
<g id="edge18" class="edge">
<title>Node16&#45;&gt;Node1</title>
<path fill="none" stroke="#191970" d="M964.3011,-170.3601C962.2643,-143.7251 956.3012,-65.7468 953.494,-29.0366"/>
<polygon fill="#191970" stroke="#191970" points="956.9548,-28.3891 952.7024,-18.6851 949.9751,-28.9229 956.9548,-28.3891"/>
</g>
<!-- Node16&#45;&gt;Node14 -->
<g id="edge19" class="edge">
<title>Node16&#45;&gt;Node14</title>
<path fill="none" stroke="#191970" d="M964.9853,-170.054C965.4117,-155.7789 968.0247,-128.424 981,-110 990.6574,-96.2871 1005.8901,-85.7354 1019.774,-78.2619"/>
<polygon fill="#191970" stroke="#191970" points="1021.7244,-81.1988 1029.0854,-73.5786 1018.579,-74.9452 1021.7244,-81.1988"/>
</g>
<!-- Node16&#45;&gt;Node23 -->
<g id="edge20" class="edge">
<title>Node16&#45;&gt;Node23</title>
<path fill="none" stroke="#191970" d="M999.0208,-170.3873C1038.2245,-159.8863 1102.7338,-142.607 1145.5404,-131.141"/>
<polygon fill="#191970" stroke="#191970" points="1146.6391,-134.4701 1155.393,-128.5019 1144.8279,-127.7085 1146.6391,-134.4701"/>
</g>
<!-- Node16&#45;&gt;Node24 -->
<g id="edge23" class="edge">
<title>Node16&#45;&gt;Node24</title>
<path fill="none" stroke="#191970" d="M971.8372,-170.3873C982.3142,-160.8168 1001.7737,-145.6159 1017.8238,-134.3171"/>
<polygon fill="#191970" stroke="#191970" points="1020.04,-137.0414 1026.3111,-128.5019 1016.0834,-131.2668 1020.04,-137.0414"/>
</g>
<!-- Node23&#45;&gt;Node1 -->
<g id="edge21" class="edge">
<title>Node23&#45;&gt;Node1</title>
<path fill="none" stroke="#191970" d="M1180.7282,-110.1489C1167.8337,-96.1371 1141.5482,-69.7662 1114,-55 1074.2158,-33.6752 1023.4398,-21.5168 989.4344,-15.2283"/>
<polygon fill="#191970" stroke="#191970" points="989.9071,-11.7577 979.4502,-13.4615 988.6873,-18.6506 989.9071,-11.7577"/>
</g>
<!-- Node23&#45;&gt;Node14 -->
<g id="edge22" class="edge">
<title>Node23&#45;&gt;Node14</title>
<path fill="none" stroke="#191970" d="M1166.3772,-110.4179C1143.968,-101.4215 1109.4355,-87.5581 1084.1755,-77.4172"/>
<polygon fill="#191970" stroke="#191970" points="1085.2404,-74.0732 1074.6564,-73.5956 1082.6325,-80.5693 1085.2404,-74.0732"/>
</g>
<!-- Node24&#45;&gt;Node16 -->
<g id="edge24" class="edge">
<title>Node24&#45;&gt;Node16</title>
<path fill="none" stroke="#191970" d="M1036.0689,-128.6985C1025.5992,-138.247 1006.2872,-153.3328 990.311,-164.588"/>
<polygon fill="#191970" stroke="#191970" points="988.1228,-161.8447 981.8559,-170.3873 992.0822,-167.6173 988.1228,-161.8447"/>
</g>
<!-- Node27&#45;&gt;Node1 -->
<g id="edge27" class="edge">
<title>Node27&#45;&gt;Node1</title>
<path fill="none" stroke="#191970" d="M729.6266,-55.4795C781.2274,-44.8101 866.2337,-27.2336 914.8347,-17.1846"/>
<polygon fill="#191970" stroke="#191970" points="915.5438,-20.6121 924.6279,-15.1596 914.1263,-13.7571 915.5438,-20.6121"/>
</g>
<!-- Node28&#45;&gt;Node1 -->
<g id="edge30" class="edge">
<title>Node28&#45;&gt;Node1</title>
<path fill="none" stroke="#191970" d="M227.8243,-170.1918C235.6701,-146.1449 260.2256,-81.9529 306,-55 358.4176,-24.1355 783.8799,-12.9382 914.2008,-10.2133"/>
<polygon fill="#191970" stroke="#191970" points="914.5507,-13.707 924.4771,-10.0034 914.4076,-6.7085 914.5507,-13.707"/>
</g>
<!-- Node29&#45;&gt;Node1 -->
<g id="edge32" class="edge">
<title>Node29&#45;&gt;Node1</title>
<path fill="none" stroke="#191970" d="M859.3294,-55.4179C877.0841,-46.6205 904.2314,-33.1691 924.5616,-23.0956"/>
<polygon fill="#191970" stroke="#191970" points="926.237,-26.1716 933.6434,-18.5956 923.1291,-19.8994 926.237,-26.1716"/>
</g>
<!-- Node32&#45;&gt;Node2 -->
<g id="edge36" class="edge">
<title>Node32&#45;&gt;Node2</title>
<path fill="none" stroke="#191970" d="M2218.6478,-187.2389C2193.2763,-189.6153 2164.4289,-192.1015 2138,-194 1842.1197,-215.2541 1488.1074,-230.9694 1341.1137,-236.9056"/>
<polygon fill="#191970" stroke="#191970" points="1340.7431,-233.4175 1330.8916,-237.316 1341.024,-240.4119 1340.7431,-233.4175"/>
</g>
<!-- Node32&#45;&gt;Node4 -->
<g id="edge34" class="edge">
<title>Node32&#45;&gt;Node4</title>
<path fill="none" stroke="#191970" d="M2271.2302,-170.3873C2251.8765,-160.4623 2220.7154,-144.4822 2198.4774,-133.0782"/>
<polygon fill="#191970" stroke="#191970" points="2200.049,-129.9507 2189.5537,-128.5019 2196.8547,-136.1795 2200.049,-129.9507"/>
</g>
<!-- Node32&#45;&gt;Node12 -->
<g id="edge35" class="edge">
<title>Node32&#45;&gt;Node12</title>
<path fill="none" stroke="#191970" d="M2311.478,-170.3873C2336.6508,-160.1821 2377.6146,-143.5751 2405.862,-132.1235"/>
<polygon fill="#191970" stroke="#191970" points="2407.324,-135.3076 2415.2764,-128.3069 2404.694,-128.8204 2407.324,-135.3076"/>
</g>
<!-- Node37 -->
<g id="node23" class="node">
<title>Node37</title>
<g id="a_node23"><a xlink:href="BasicBoolFunctors_8h_source.html" target="_top" xlink:title=" ">
<polygon fill="#ffffff" stroke="#ff0000" points="2476.7441,-110.5 2476.7441,-128.5 2637.2559,-128.5 2637.2559,-110.5 2476.7441,-110.5"/>
<text text-anchor="middle" x="2557" y="-116.5" font-family="FreeSans" font-size="10.00" fill="#000000">DGtal/base/BasicBoolFunctors.h</text>
</a>
</g>
</g>
<!-- Node32&#45;&gt;Node37 -->
<g id="edge37" class="edge">
<title>Node32&#45;&gt;Node37</title>
<path fill="none" stroke="#191970" d="M2329.4125,-170.4524C2376.8449,-159.8332 2455.5251,-142.2183 2506.8209,-130.7341"/>
<polygon fill="#191970" stroke="#191970" points="2507.7038,-134.1232 2516.6976,-128.5229 2506.1744,-127.2923 2507.7038,-134.1232"/>
</g>
<!-- Node37&#45;&gt;Node1 -->
<g id="edge38" class="edge">
<title>Node37&#45;&gt;Node1</title>
<path fill="none" stroke="#191970" d="M2540.7877,-110.4787C2513.1223,-95.6245 2454.5803,-66.5168 2401,-55 2259.5166,-24.5888 1202.7127,-12.0962 989.4461,-9.8718"/>
<polygon fill="#191970" stroke="#191970" points="989.4104,-6.3713 979.3748,-9.7679 989.3382,-13.371 989.4104,-6.3713"/>
</g>
<!-- Node40&#45;&gt;Node1 -->
<g id="edge40" class="edge">
<title>Node40&#45;&gt;Node1</title>
<path fill="none" stroke="#191970" d="M1190.2572,-55.4795C1134.1163,-44.6453 1041.069,-26.6888 989.4341,-16.7241"/>
<polygon fill="#191970" stroke="#191970" points="989.8596,-13.2417 979.3775,-14.7834 988.5331,-20.1149 989.8596,-13.2417"/>
</g>
<!-- Node41&#45;&gt;Node1 -->
<g id="edge42" class="edge">
<title>Node41&#45;&gt;Node1</title>
<path fill="none" stroke="#191970" d="M1330.788,-56.1274C1327.8176,-55.7441 1324.8766,-55.3666 1322,-55 1200.4238,-39.5044 1056.2526,-22.0365 989.4399,-13.9933"/>
<polygon fill="#191970" stroke="#191970" points="989.7428,-10.5046 979.3963,-12.7851 988.9067,-17.4545 989.7428,-10.5046"/>
</g>
<!-- Node42&#45;&gt;Node1 -->
<g id="edge44" class="edge">
<title>Node42&#45;&gt;Node1</title>
<path fill="none" stroke="#191970" d="M1248.8213,-562.5518C1090.3663,-557.3123 674.3278,-541.7598 538,-519 325.916,-483.5928 232.205,-532.4142 72,-389 41.8382,-361.9994 38,-344.9817 38,-304.5 38,-304.5 38,-304.5 38,-119.5 38,-81.5364 59.8888,-71.6631 94,-55 168.354,-18.6785 758.4625,-11.1379 914.3456,-9.7735"/>
<polygon fill="#191970" stroke="#191970" points="914.4214,-13.2731 924.3916,-9.6889 914.3624,-6.2733 914.4214,-13.2731"/>
</g>
<!-- Node42&#45;&gt;Node2 -->
<g id="edge45" class="edge">
<title>Node42&#45;&gt;Node2</title>
<path fill="none" stroke="#191970" d="M1315.8518,-555.0584C1334.2188,-517.8973 1395.876,-379.1491 1344,-285 1336.039,-270.5516 1321.3428,-260.0551 1307.2937,-252.81"/>
<polygon fill="#191970" stroke="#191970" points="1308.767,-249.6351 1298.2321,-248.5096 1305.7658,-255.9591 1308.767,-249.6351"/>
</g>
<!-- Node43 -->
<g id="node27" class="node">
<title>Node43</title>
<g id="a_node27"><a xlink:href="SpaceND_8h_source.html" target="_top" xlink:title=" ">
<polygon fill="#ffffff" stroke="#ff0000" points="1209.2539,-295.5 1209.2539,-313.5 1334.7461,-313.5 1334.7461,-295.5 1209.2539,-295.5"/>
<text text-anchor="middle" x="1272" y="-301.5" font-family="FreeSans" font-size="10.00" fill="#000000">DGtal/kernel/SpaceND.h</text>
</a>
</g>
</g>
<!-- Node42&#45;&gt;Node43 -->
<g id="edge46" class="edge">
<title>Node42&#45;&gt;Node43</title>
<path fill="none" stroke="#191970" d="M1309.612,-555.2465C1303.973,-517.6534 1282.7094,-375.8959 1274.8999,-323.8324"/>
<polygon fill="#191970" stroke="#191970" points="1278.3162,-323.0128 1273.3714,-313.6427 1271.3936,-324.0512 1278.3162,-323.0128"/>
</g>
<!-- Node65 -->
<g id="node28" class="node">
<title>Node65</title>
<g id="a_node28"><a xlink:href="HyperRectDomain_8h_source.html" target="_top" xlink:title=" ">
<polygon fill="#ffffff" stroke="#ff0000" points="810.9238,-360.5 810.9238,-388.5 923.0762,-388.5 923.0762,-360.5 810.9238,-360.5"/>
<text text-anchor="start" x="818.9238" y="-376.5" font-family="FreeSans" font-size="10.00" fill="#000000">DGtal/kernel/domains</text>
<text text-anchor="middle" x="867" y="-366.5" font-family="FreeSans" font-size="10.00" fill="#000000">/HyperRectDomain.h</text>
</a>
</g>
</g>
<!-- Node42&#45;&gt;Node65 -->
<g id="edge49" class="edge">
<title>Node42&#45;&gt;Node65</title>
<path fill="none" stroke="#191970" d="M1248.699,-558.3058C1137.8787,-545.8617 913.7169,-513.7686 867,-454 854.8932,-438.5108 856.2588,-415.6465 859.8527,-398.4092"/>
<polygon fill="#191970" stroke="#191970" points="863.2953,-399.0657 862.2779,-388.5199 856.4968,-397.3984 863.2953,-399.0657"/>
</g>
<!-- Node86 -->
<g id="node31" class="node">
<title>Node86</title>
<g id="a_node31"><a xlink:href="DigitalSetSelector_8h_source.html" target="_top" xlink:title=" ">
<polygon fill="#ffffff" stroke="#ff0000" points="386.3696,-290.5 386.3696,-318.5 509.6304,-318.5 509.6304,-290.5 386.3696,-290.5"/>
<text text-anchor="start" x="394.3696" y="-306.5" font-family="FreeSans" font-size="10.00" fill="#000000">DGtal/kernel/sets/Digital</text>
<text text-anchor="middle" x="448" y="-296.5" font-family="FreeSans" font-size="10.00" fill="#000000">SetSelector.h</text>
</a>
</g>
</g>
<!-- Node42&#45;&gt;Node86 -->
<g id="edge59" class="edge">
<title>Node42&#45;&gt;Node86</title>
<path fill="none" stroke="#191970" d="M1248.9067,-562.6901C1112.5299,-558.2763 790.5958,-545.3388 685,-519 553.0479,-486.0871 479.4968,-504.6842 408,-389 395.4205,-368.6459 410.5941,-343.7122 425.7283,-326.2232"/>
<polygon fill="#191970" stroke="#191970" points="428.3985,-328.49 432.5792,-318.7548 423.2401,-323.758 428.3985,-328.49"/>
</g>
<!-- Node99 -->
<g id="node32" class="node">
<title>Node99</title>
<g id="a_node32"><a xlink:href="DigitalTopology_8h_source.html" target="_top" xlink:title=" ">
<polygon fill="#ffffff" stroke="#ff0000" points="632.8271,-365.5 632.8271,-383.5 793.1729,-383.5 793.1729,-365.5 632.8271,-365.5"/>
<text text-anchor="middle" x="713" y="-371.5" font-family="FreeSans" font-size="10.00" fill="#000000">DGtal/topology/DigitalTopology.h</text>
</a>
</g>
</g>
<!-- Node42&#45;&gt;Node99 -->
<g id="edge62" class="edge">
<title>Node42&#45;&gt;Node99</title>
<path fill="none" stroke="#191970" d="M1248.7887,-560.9711C1154.1,-554.9764 978.6241,-541.243 920,-519 840.6708,-488.9011 762.9446,-421.6891 729.7634,-390.7086"/>
<polygon fill="#191970" stroke="#191970" points="731.9822,-387.9895 722.3135,-383.6575 727.1704,-393.0735 731.9822,-387.9895"/>
</g>
<!-- Node106 -->
<g id="node34" class="node">
<title>Node106</title>
<g id="a_node34"><a xlink:href="MetricAdjacency_8h_source.html" target="_top" xlink:title=" ">
<polygon fill="#ffffff" stroke="#ff0000" points="1017.0562,-365.5 1017.0562,-383.5 1182.9438,-383.5 1182.9438,-365.5 1017.0562,-365.5"/>
<text text-anchor="middle" x="1100" y="-371.5" font-family="FreeSans" font-size="10.00" fill="#000000">DGtal/topology/MetricAdjacency.h</text>
</a>
</g>
</g>
<!-- Node42&#45;&gt;Node106 -->
<g id="edge68" class="edge">
<title>Node42&#45;&gt;Node106</title>
<path fill="none" stroke="#191970" d="M1300.823,-555.3359C1267.3289,-525.1753 1160.2466,-428.7505 1117.6858,-390.4256"/>
<polygon fill="#191970" stroke="#191970" points="1119.8481,-387.6628 1110.0749,-383.5721 1115.164,-392.8647 1119.8481,-387.6628"/>
</g>
<!-- Node109 -->
<g id="node35" class="node">
<title>Node109</title>
<g id="a_node35"><a xlink:href="Object_8h_source.html" target="_top" xlink:title=" ">
<polygon fill="#ffffff" stroke="#ff0000" points="416.9165,-365.5 416.9165,-383.5 539.0835,-383.5 539.0835,-365.5 416.9165,-365.5"/>
<text text-anchor="middle" x="478" y="-371.5" font-family="FreeSans" font-size="10.00" fill="#000000">DGtal/topology/Object.h</text>
</a>
</g>
</g>
<!-- Node42&#45;&gt;Node109 -->
<g id="edge72" class="edge">
<title>Node42&#45;&gt;Node109</title>
<path fill="none" stroke="#191970" d="M1248.8582,-560.9598C1161.3891,-555.3617 997.1889,-542.5979 859,-519 738.1845,-498.3689 702.6346,-504.5939 591,-454 554.324,-437.3781 517.1579,-408.3704 495.9153,-390.3683"/>
<polygon fill="#191970" stroke="#191970" points="497.9435,-387.4956 488.0848,-383.6154 493.3719,-392.7967 497.9435,-387.4956"/>
</g>
<!-- Node118 -->
<g id="node36" class="node">
<title>Node118</title>
<g id="a_node36"><a xlink:href="KhalimskySpaceND_8h_source.html" target="_top" xlink:title=" ">
<polygon fill="#ffffff" stroke="#ff0000" points="1466.7539,-425.5 1466.7539,-453.5 1597.2461,-453.5 1597.2461,-425.5 1466.7539,-425.5"/>
<text text-anchor="start" x="1474.7539" y="-441.5" font-family="FreeSans" font-size="10.00" fill="#000000">DGtal/topology/Khalimsky</text>
<text text-anchor="middle" x="1532" y="-431.5" font-family="FreeSans" font-size="10.00" fill="#000000">SpaceND.h</text>
</a>
</g>
</g>
<!-- Node42&#45;&gt;Node118 -->
<g id="edge77" class="edge">
<title>Node42&#45;&gt;Node118</title>
<path fill="none" stroke="#191970" d="M1327.2507,-555.3085C1363.211,-534.9689 1450.1439,-485.7987 1498.3675,-458.5229"/>
<polygon fill="#191970" stroke="#191970" points="1500.204,-461.5053 1507.185,-453.5356 1496.7577,-455.4124 1500.204,-461.5053"/>
</g>
<!-- Node119 -->
<g id="node38" class="node">
<title>Node119</title>
<g id="a_node38"><a xlink:href="KhalimskyPreSpaceND_8h_source.html" target="_top" xlink:title=" ">
<polygon fill="#ffffff" stroke="#ff0000" points="1428.7539,-360.5 1428.7539,-388.5 1559.2461,-388.5 1559.2461,-360.5 1428.7539,-360.5"/>
<text text-anchor="start" x="1436.7539" y="-376.5" font-family="FreeSans" font-size="10.00" fill="#000000">DGtal/topology/Khalimsky</text>
<text text-anchor="middle" x="1494" y="-366.5" font-family="FreeSans" font-size="10.00" fill="#000000">PreSpaceND.h</text>
</a>
</g>
</g>
<!-- Node42&#45;&gt;Node119 -->
<g id="edge86" class="edge">
<title>Node42&#45;&gt;Node119</title>
<path fill="none" stroke="#191970" d="M1319.8265,-555.3359C1347.5278,-526.5749 1433.2663,-437.5569 1473.1728,-396.1239"/>
<polygon fill="#191970" stroke="#191970" points="1475.8734,-398.3653 1480.2897,-388.7347 1470.8317,-393.5092 1475.8734,-398.3653"/>
</g>
<!-- Node122 -->
<g id="node39" class="node">
<title>Node122</title>
<g id="a_node39"><a xlink:href="GridCurve_8h_source.html" target="_top" xlink:title="Header file for module GridCurve.cpp.">
<polygon fill="#ffffff" stroke="#ff0000" points="1565.8721,-490.5 1565.8721,-518.5 1684.1279,-518.5 1684.1279,-490.5 1565.8721,-490.5"/>
<text text-anchor="start" x="1573.8721" y="-506.5" font-family="FreeSans" font-size="10.00" fill="#000000">DGtal/geometry/curves</text>
<text text-anchor="middle" x="1625" y="-496.5" font-family="FreeSans" font-size="10.00" fill="#000000">/GridCurve.h</text>
</a>
</g>
</g>
<!-- Node42&#45;&gt;Node122 -->
<g id="edge87" class="edge">
<title>Node42&#45;&gt;Node122</title>
<path fill="none" stroke="#191970" d="M1358.3489,-555.4524C1410.7418,-545.4411 1495.6748,-529.2118 1555.5856,-517.7639"/>
<polygon fill="#191970" stroke="#191970" points="1556.5556,-521.1419 1565.721,-515.8272 1555.2418,-514.2663 1556.5556,-521.1419"/>
</g>
<!-- Node152 -->
<g id="node41" class="node">
<title>Node152</title>
<g id="a_node41"><a xlink:href="ExactPredicateLpSeparableMetric_8h_source.html" target="_top" xlink:title=" ">
<polygon fill="#ffffff" stroke="#ff0000" points="1860.6138,-285.5 1860.6138,-323.5 2043.3862,-323.5 2043.3862,-285.5 1860.6138,-285.5"/>
<text text-anchor="start" x="1868.6138" y="-311.5" font-family="FreeSans" font-size="10.00" fill="#000000">DGtal/geometry/volumes</text>
<text text-anchor="start" x="1868.6138" y="-301.5" font-family="FreeSans" font-size="10.00" fill="#000000">/distance/ExactPredicateLpSeparable</text>
<text text-anchor="middle" x="1952" y="-291.5" font-family="FreeSans" font-size="10.00" fill="#000000">Metric.h</text>
</a>
</g>
</g>
<!-- Node42&#45;&gt;Node152 -->
<g id="edge94" class="edge">
<title>Node42&#45;&gt;Node152</title>
<path fill="none" stroke="#191970" d="M1372.9617,-559.7722C1465.371,-552.2719 1634.6745,-536.6731 1693,-519 1754.0621,-500.4977 1770.6178,-493.1477 1821,-454 1867.0805,-418.1948 1909.443,-364.4607 1932.8931,-332.1066"/>
<polygon fill="#191970" stroke="#191970" points="1936.0208,-333.75 1938.9931,-323.5806 1930.3278,-329.6769 1936.0208,-333.75"/>
</g>
<!-- Node157 -->
<g id="node42" class="node">
<title>Node157</title>
<g id="a_node42"><a xlink:href="ExactPredicateLpPowerSeparableMetric_8h_source.html" target="_top" xlink:title=" ">
<polygon fill="#ffffff" stroke="#ff0000" points="2061.2368,-285.5 2061.2368,-323.5 2226.7632,-323.5 2226.7632,-285.5 2061.2368,-285.5"/>
<text text-anchor="start" x="2069.2368" y="-311.5" font-family="FreeSans" font-size="10.00" fill="#000000">DGtal/geometry/volumes</text>
<text text-anchor="start" x="2069.2368" y="-301.5" font-family="FreeSans" font-size="10.00" fill="#000000">/distance/ExactPredicateLpPower</text>
<text text-anchor="middle" x="2144" y="-291.5" font-family="FreeSans" font-size="10.00" fill="#000000">SeparableMetric.h</text>
</a>
</g>
</g>
<!-- Node42&#45;&gt;Node157 -->
<g id="edge98" class="edge">
<title>Node42&#45;&gt;Node157</title>
<path fill="none" stroke="#191970" d="M1373.0119,-560.9621C1475.8596,-554.5994 1677.1233,-539.9122 1745,-519 1889.5803,-474.4562 2042.1674,-375.7412 2109.094,-329.4164"/>
<polygon fill="#191970" stroke="#191970" points="2111.3775,-332.0912 2117.582,-323.5032 2107.3761,-326.3476 2111.3775,-332.0912"/>
</g>
<!-- Node43&#45;&gt;Node1 -->
<g id="edge47" class="edge">
<title>Node43&#45;&gt;Node1</title>
<path fill="none" stroke="#191970" d="M1212.831,-295.4926C1054.8132,-271.3312 632.979,-206.0948 605,-194 595.2494,-189.785 586,-190.1226 586,-179.5 586,-179.5 586,-179.5 586,-119.5 586,-89.6154 582.2852,-74.4197 605,-55 628.251,-35.1219 829.6596,-18.3612 914.5356,-12.1147"/>
<polygon fill="#191970" stroke="#191970" points="915.0434,-15.5871 924.7635,-11.3715 914.5361,-8.6055 915.0434,-15.5871"/>
</g>
<!-- Node43&#45;&gt;Node2 -->
<g id="edge48" class="edge">
<title>Node43&#45;&gt;Node2</title>
<path fill="none" stroke="#191970" d="M1272,-295.462C1272,-286.061 1272,-271.0518 1272,-258.943"/>
<polygon fill="#191970" stroke="#191970" points="1275.5001,-258.8821 1272,-248.8821 1268.5001,-258.8822 1275.5001,-258.8821"/>
</g>
<!-- Node65&#45;&gt;Node1 -->
<g id="edge50" class="edge">
<title>Node65&#45;&gt;Node1</title>
<path fill="none" stroke="#191970" d="M840.0694,-360.2951C822.5366,-350.7038 799.4038,-337.3926 780,-324 757.3779,-308.3861 756.9726,-296.4858 732,-285 650.7401,-247.6258 601.8839,-307.2389 534,-249 509.198,-227.7219 510,-212.1788 510,-179.5 510,-179.5 510,-179.5 510,-119.5 510,-88.9131 509.8648,-73.7896 534,-55 563.7376,-31.8489 817.5003,-16.4407 914.5067,-11.3483"/>
<polygon fill="#191970" stroke="#191970" points="914.9295,-14.8312 924.7353,-10.8193 914.5678,-7.8406 914.9295,-14.8312"/>
</g>
<!-- Node65&#45;&gt;Node2 -->
<g id="edge51" class="edge">
<title>Node65&#45;&gt;Node2</title>
<path fill="none" stroke="#191970" d="M873.7027,-360.1925C884.108,-339.7416 906.2042,-302.6744 937,-285 981.0254,-259.7329 1118.4911,-247.8382 1203.0313,-242.7804"/>
<polygon fill="#191970" stroke="#191970" points="1203.2888,-246.2715 1213.0688,-242.1971 1202.8826,-239.2832 1203.2888,-246.2715"/>
</g>
<!-- Node83 -->
<g id="node29" class="node">
<title>Node83</title>
<g id="a_node29"><a xlink:href="CDomain_8h_source.html" target="_top" xlink:title=" ">
<polygon fill="#ffffff" stroke="#ff0000" points="179.9238,-290.5 179.9238,-318.5 292.0762,-318.5 292.0762,-290.5 179.9238,-290.5"/>
<text text-anchor="start" x="187.9238" y="-306.5" font-family="FreeSans" font-size="10.00" fill="#000000">DGtal/kernel/domains</text>
<text text-anchor="middle" x="236" y="-296.5" font-family="FreeSans" font-size="10.00" fill="#000000">/CDomain.h</text>
</a>
</g>
</g>
<!-- Node65&#45;&gt;Node83 -->
<g id="edge52" class="edge">
<title>Node65&#45;&gt;Node83</title>
<path fill="none" stroke="#191970" d="M810.7178,-361.4569C807.7762,-360.9281 804.8572,-360.4377 802,-360 614.6201,-331.2981 565.3994,-344.992 377,-324 352.5012,-321.2703 325.6868,-317.7072 302.0809,-314.3747"/>
<polygon fill="#191970" stroke="#191970" points="302.5703,-310.9091 292.1766,-312.9637 301.583,-317.8392 302.5703,-310.9091"/>
</g>
<!-- Node48 -->
<g id="node30" class="node">
<title>Node48</title>
<g id="a_node30"><a xlink:href="NumberTraits_8h_source.html" target="_top" xlink:title=" ">
<polygon fill="#ffffff" stroke="#ff0000" points="986.5527,-295.5 986.5527,-313.5 1129.4473,-313.5 1129.4473,-295.5 986.5527,-295.5"/>
<text text-anchor="middle" x="1058" y="-301.5" font-family="FreeSans" font-size="10.00" fill="#000000">DGtal/kernel/NumberTraits.h</text>
</a>
</g>
</g>
<!-- Node65&#45;&gt;Node48 -->
<g id="edge57" class="edge">
<title>Node65&#45;&gt;Node48</title>
<path fill="none" stroke="#191970" d="M905.6517,-360.3345C940.2268,-347.6629 990.4325,-329.263 1023.6327,-317.0954"/>
<polygon fill="#191970" stroke="#191970" points="1025.1692,-320.26 1033.3541,-313.5325 1022.7604,-313.6875 1025.1692,-320.26"/>
</g>
<!-- Node83&#45;&gt;Node1 -->
<g id="edge53" class="edge">
<title>Node83&#45;&gt;Node1</title>
<path fill="none" stroke="#191970" d="M253.8142,-290.4344C278.4717,-269.2418 320,-226.5632 320,-179.5 320,-179.5 320,-179.5 320,-119.5 320,-88.9131 319.5514,-73.3799 344,-55 389.5764,-20.7368 789.1535,-11.9175 914.5335,-9.9838"/>
<polygon fill="#191970" stroke="#191970" points="914.8351,-13.4798 924.782,-9.8318 914.7312,-6.4806 914.8351,-13.4798"/>
</g>
<!-- Node83&#45;&gt;Node2 -->
<g id="edge55" class="edge">
<title>Node83&#45;&gt;Node2</title>
<path fill="none" stroke="#191970" d="M280.856,-290.4037C289.1447,-288.2575 297.7793,-286.3214 306,-285 478.9449,-257.2011 1011.7312,-244.4907 1202.8614,-240.7404"/>
<polygon fill="#191970" stroke="#191970" points="1203.1296,-244.236 1213.0598,-240.5425 1202.9937,-237.2373 1203.1296,-244.236"/>
</g>
<!-- Node83&#45;&gt;Node6 -->
<g id="edge54" class="edge">
<title>Node83&#45;&gt;Node6</title>
<path fill="none" stroke="#191970" d="M285.9566,-290.4039C374.0396,-265.5498 555.377,-214.3824 637.2551,-191.279"/>
<polygon fill="#191970" stroke="#191970" points="638.2935,-194.6228 646.9672,-188.5386 636.3925,-187.8858 638.2935,-194.6228"/>
</g>
<!-- Node83&#45;&gt;Node28 -->
<g id="edge56" class="edge">
<title>Node83&#45;&gt;Node28</title>
<path fill="none" stroke="#191970" d="M234.7382,-290.1609C232.7611,-267.6941 228.9301,-224.1603 226.7081,-198.9097"/>
<polygon fill="#191970" stroke="#191970" points="230.176,-198.3906 225.8128,-188.736 223.2029,-199.0043 230.176,-198.3906"/>
</g>
<!-- Node48&#45;&gt;Node2 -->
<g id="edge58" class="edge">
<title>Node48&#45;&gt;Node2</title>
<path fill="none" stroke="#191970" d="M1087.7558,-295.462C1125.5003,-283.9976 1190.7035,-264.1929 1232.5618,-251.4789"/>
<polygon fill="#191970" stroke="#191970" points="1233.6016,-254.821 1242.1528,-248.5658 1231.5672,-248.1232 1233.6016,-254.821"/>
</g>
<!-- Node86&#45;&gt;Node1 -->
<g id="edge60" class="edge">
<title>Node86&#45;&gt;Node1</title>
<path fill="none" stroke="#191970" d="M437.7265,-290.2967C422.5721,-267.906 396,-222.5128 396,-179.5 396,-179.5 396,-179.5 396,-119.5 396,-85.532 407.9767,-72.6487 437,-55 477.5838,-30.3215 803.1446,-15.3465 914.6739,-10.9004"/>
<polygon fill="#191970" stroke="#191970" points="914.9274,-14.3933 924.7822,-10.5031 914.6524,-7.3987 914.9274,-14.3933"/>
</g>
<!-- Node86&#45;&gt;Node2 -->
<g id="edge61" class="edge">
<title>Node86&#45;&gt;Node2</title>
<path fill="none" stroke="#191970" d="M497.1825,-290.4297C506.0486,-288.3093 515.2533,-286.3753 524,-285 653.6123,-264.6205 1043.3087,-248.1099 1202.8037,-242.0224"/>
<polygon fill="#191970" stroke="#191970" points="1203.1112,-245.5134 1212.9713,-241.6366 1202.8457,-238.5184 1203.1112,-245.5134"/>
</g>
<!-- Node99&#45;&gt;Node1 -->
<g id="edge63" class="edge">
<title>Node99&#45;&gt;Node1</title>
<path fill="none" stroke="#191970" d="M714.6189,-365.4384C717.2644,-347.4533 720.2804,-307.0832 699,-285 640.8762,-224.6832 582.6718,-296.9654 514,-249 484.4118,-228.3334 472,-215.5911 472,-179.5 472,-179.5 472,-179.5 472,-119.5 472,-85.532 484.1113,-72.8681 513,-55 546.7952,-34.0971 814.0748,-17.1942 914.2551,-11.5339"/>
<polygon fill="#191970" stroke="#191970" points="914.7319,-15.0128 924.5211,-10.9603 914.3413,-8.0237 914.7319,-15.0128"/>
</g>
<!-- Node99&#45;&gt;Node2 -->
<g id="edge64" class="edge">
<title>Node99&#45;&gt;Node2</title>
<path fill="none" stroke="#191970" d="M727.2278,-365.2837C756.7661,-346.646 827.4615,-304.5898 893,-285 949.3049,-268.1702 1109.4946,-252.8216 1202.6074,-244.9793"/>
<polygon fill="#191970" stroke="#191970" points="1203.1132,-248.4494 1212.7873,-244.1293 1202.5307,-241.4737 1203.1132,-248.4494"/>
</g>
<!-- Node71 -->
<g id="node33" class="node">
<title>Node71</title>
<g id="a_node33"><a xlink:href="ConstAlias_8h_source.html" target="_top" xlink:title=" ">
<polygon fill="#ffffff" stroke="#ff0000" points="565.5298,-295.5 565.5298,-313.5 690.4702,-313.5 690.4702,-295.5 565.5298,-295.5"/>
<text text-anchor="middle" x="628" y="-301.5" font-family="FreeSans" font-size="10.00" fill="#000000">DGtal/base/ConstAlias.h</text>
</a>
</g>
</g>
<!-- Node99&#45;&gt;Node71 -->
<g id="edge65" class="edge">
<title>Node99&#45;&gt;Node71</title>
<path fill="none" stroke="#191970" d="M701.8877,-365.3487C688.0156,-353.9246 664.0633,-334.1992 647.1977,-320.3099"/>
<polygon fill="#191970" stroke="#191970" points="649.0593,-317.3089 639.115,-313.6535 644.6093,-322.7124 649.0593,-317.3089"/>
</g>
<!-- Node71&#45;&gt;Node1 -->
<g id="edge66" class="edge">
<title>Node71&#45;&gt;Node1</title>
<path fill="none" stroke="#191970" d="M586.5528,-295.4432C542.4001,-285.0391 476.3751,-267.0664 458,-249 434.6977,-226.0892 434,-212.1788 434,-179.5 434,-179.5 434,-179.5 434,-119.5 434,-88.9131 433.7099,-73.5888 458,-55 494.0334,-27.4242 805.4857,-14.4162 914.5044,-10.6782"/>
<polygon fill="#191970" stroke="#191970" points="914.8275,-14.1694 924.7042,-10.3354 914.5923,-7.1734 914.8275,-14.1694"/>
</g>
<!-- Node71&#45;&gt;Node2 -->
<g id="edge67" class="edge">
<title>Node71&#45;&gt;Node2</title>
<path fill="none" stroke="#191970" d="M690.628,-298.1789C811.605,-285.9684 1076.5914,-259.2229 1202.678,-246.4968"/>
<polygon fill="#191970" stroke="#191970" points="1203.3782,-249.944 1212.9762,-245.4574 1202.6752,-242.9794 1203.3782,-249.944"/>
</g>
<!-- Node106&#45;&gt;Node1 -->
<g id="edge69" class="edge">
<title>Node106&#45;&gt;Node1</title>
<path fill="none" stroke="#191970" d="M1069.5358,-365.4389C953.8151,-330.8107 548,-207.3867 548,-179.5 548,-179.5 548,-179.5 548,-119.5 548,-86.0004 558.8964,-73.232 587,-55 640.5041,-20.2896 832.7246,-12.0448 914.6209,-10.0974"/>
<polygon fill="#191970" stroke="#191970" points="914.8123,-13.5942 924.7332,-9.8759 914.6589,-6.5958 914.8123,-13.5942"/>
</g>
<!-- Node106&#45;&gt;Node2 -->
<g id="edge70" class="edge">
<title>Node106&#45;&gt;Node2</title>
<path fill="none" stroke="#191970" d="M1109.1985,-365.3071C1126.3008,-348.4394 1164.4877,-311.8184 1200,-285 1215.1003,-273.5965 1233.0952,-262.2242 1247.3176,-253.7015"/>
<polygon fill="#191970" stroke="#191970" points="1249.2222,-256.6415 1256.0506,-248.5406 1245.6608,-250.6151 1249.2222,-256.6415"/>
</g>
<!-- Node106&#45;&gt;Node43 -->
<g id="edge71" class="edge">
<title>Node106&#45;&gt;Node43</title>
<path fill="none" stroke="#191970" d="M1122.1339,-365.492C1152.1103,-353.2923 1205.8034,-331.4405 1240.1231,-317.4732"/>
<polygon fill="#191970" stroke="#191970" points="1241.7357,-320.5957 1249.6786,-313.5843 1239.097,-314.1121 1241.7357,-320.5957"/>
</g>
<!-- Node109&#45;&gt;Node1 -->
<g id="edge73" class="edge">
<title>Node109&#45;&gt;Node1</title>
<path fill="none" stroke="#191970" d="M443.0615,-365.4533C420.9122,-357.9349 393.4344,-344.9946 377,-324 353.2728,-293.6891 358,-277.9932 358,-239.5 358,-239.5 358,-239.5 358,-119.5 358,-82.9547 376.8011,-72.2854 409,-55 453.3538,-31.1895 799.3445,-15.5185 914.708,-10.9126"/>
<polygon fill="#191970" stroke="#191970" points="914.9676,-14.4052 924.8219,-10.5137 914.6917,-7.4106 914.9676,-14.4052"/>
</g>
<!-- Node109&#45;&gt;Node2 -->
<g id="edge74" class="edge">
<title>Node109&#45;&gt;Node2</title>
<path fill="none" stroke="#191970" d="M485.2795,-365.4976C502.9782,-343.7227 547.5081,-289.6507 557,-285 613.9934,-257.0749 1034.593,-244.7559 1202.7851,-240.9087"/>
<polygon fill="#191970" stroke="#191970" points="1203.0934,-244.4028 1213.0119,-240.6781 1202.9356,-237.4045 1203.0934,-244.4028"/>
</g>
<!-- Node109&#45;&gt;Node86 -->
<g id="edge76" class="edge">
<title>Node109&#45;&gt;Node86</title>
<path fill="none" stroke="#191970" d="M474.078,-365.3487C470.028,-355.8986 463.5435,-340.7681 458.0541,-327.9596"/>
<polygon fill="#191970" stroke="#191970" points="461.2634,-326.5626 454.1071,-318.7499 454.8294,-329.3201 461.2634,-326.5626"/>
</g>
<!-- Node109&#45;&gt;Node71 -->
<g id="edge75" class="edge">
<title>Node109&#45;&gt;Node71</title>
<path fill="none" stroke="#191970" d="M497.3028,-365.492C523.1492,-353.4304 569.2134,-331.9337 599.178,-317.9503"/>
<polygon fill="#191970" stroke="#191970" points="600.7133,-321.0962 608.295,-313.6957 597.753,-314.7529 600.7133,-321.0962"/>
</g>
<!-- Node118&#45;&gt;Node1 -->
<g id="edge78" class="edge">
<title>Node118&#45;&gt;Node1</title>
<path fill="none" stroke="#191970" d="M1547.1332,-425.2396C1596.2492,-379.0195 1748.8087,-235.9766 1762,-230 1894.1915,-170.1073 2161.8338,-286.1953 2082,-165 2047.9389,-113.292 2013.4848,-127.1883 1954,-110 1803.5678,-66.5321 1761.5859,-72.6729 1606,-55 1372.2252,-28.4456 1089.557,-15.1082 989.3885,-10.9571"/>
<polygon fill="#191970" stroke="#191970" points="989.3116,-7.4512 979.177,-10.5398 989.0257,-14.4453 989.3116,-7.4512"/>
</g>
<!-- Node118&#45;&gt;Node2 -->
<g id="edge80" class="edge">
<title>Node118&#45;&gt;Node2</title>
<path fill="none" stroke="#191970" d="M1546.5603,-425.4647C1561.6561,-409.1487 1581.3236,-381.6885 1568,-360 1540.7267,-315.6038 1394.1474,-271.4909 1318.0026,-251.1423"/>
<polygon fill="#191970" stroke="#191970" points="1318.752,-247.7202 1308.1895,-248.5473 1316.9624,-254.4876 1318.752,-247.7202"/>
</g>
<!-- Node118&#45;&gt;Node43 -->
<g id="edge81" class="edge">
<title>Node118&#45;&gt;Node43</title>
<path fill="none" stroke="#191970" d="M1498.2811,-425.2943C1475.8412,-415.5976 1445.8472,-402.1682 1420,-389 1375.0393,-366.0942 1324.3003,-336.2062 1295.4354,-318.8044"/>
<polygon fill="#191970" stroke="#191970" points="1297.2345,-315.8023 1286.8673,-313.6179 1293.6096,-321.7906 1297.2345,-315.8023"/>
</g>
<!-- Node57 -->
<g id="node37" class="node">
<title>Node57</title>
<g id="a_node37"><a xlink:title=" ">
<polygon fill="#ffffff" stroke="#bfbfbf" points="1690.6084,-365.5 1690.6084,-383.5 1729.3916,-383.5 1729.3916,-365.5 1690.6084,-365.5"/>
<text text-anchor="middle" x="1710" y="-371.5" font-family="FreeSans" font-size="10.00" fill="#000000">array</text>
</a>
</g>
</g>
<!-- Node118&#45;&gt;Node57 -->
<g id="edge79" class="edge">
<title>Node118&#45;&gt;Node57</title>
<path fill="none" stroke="#191970" d="M1575.1524,-425.4639C1604.1609,-415.7861 1643.1365,-402.3127 1677,-389 1678.3832,-388.4562 1679.7938,-387.8886 1681.2147,-387.3061"/>
<polygon fill="#191970" stroke="#191970" points="1682.7217,-390.4688 1690.5632,-383.3441 1679.9902,-384.0238 1682.7217,-390.4688"/>
</g>
<!-- Node118&#45;&gt;Node119 -->
<g id="edge82" class="edge">
<title>Node118&#45;&gt;Node119</title>
<path fill="none" stroke="#191970" d="M1523.7546,-425.396C1518.9742,-417.219 1512.8394,-406.7254 1507.3836,-397.393"/>
<polygon fill="#191970" stroke="#191970" points="1510.2979,-395.443 1502.2293,-388.5765 1504.2548,-398.9759 1510.2979,-395.443"/>
</g>
<!-- Node119&#45;&gt;Node1 -->
<g id="edge83" class="edge">
<title>Node119&#45;&gt;Node1</title>
<path fill="none" stroke="#191970" d="M1507.245,-360.2187C1536.259,-330.0044 1609.0113,-259.9337 1686,-230 1842.4304,-169.1788 2165.2929,-294.0655 2058,-165 1987.7413,-80.4839 1174.4313,-23.7018 989.329,-11.8199"/>
<polygon fill="#191970" stroke="#191970" points="989.4716,-8.322 979.2692,-11.1788 989.0264,-15.3078 989.4716,-8.322"/>
</g>
<!-- Node119&#45;&gt;Node2 -->
<g id="edge84" class="edge">
<title>Node119&#45;&gt;Node2</title>
<path fill="none" stroke="#191970" d="M1478.2349,-360.4191C1456.5592,-341.5473 1415.8135,-307.7914 1377,-285 1354.6677,-271.8864 1327.8536,-260.3302 1306.9125,-252.1456"/>
<polygon fill="#191970" stroke="#191970" points="1308.0365,-248.8281 1297.4462,-248.5178 1305.5315,-255.3646 1308.0365,-248.8281"/>
</g>
<!-- Node119&#45;&gt;Node43 -->
<g id="edge85" class="edge">
<title>Node119&#45;&gt;Node43</title>
<path fill="none" stroke="#191970" d="M1449.342,-360.4187C1408.6615,-347.5915 1349.203,-328.8433 1310.5527,-316.6563"/>
<polygon fill="#191970" stroke="#191970" points="1311.3075,-313.2245 1300.7178,-313.5552 1309.2024,-319.9004 1311.3075,-313.2245"/>
</g>
<!-- Node122&#45;&gt;Node1 -->
<g id="edge88" class="edge">
<title>Node122&#45;&gt;Node1</title>
<path fill="none" stroke="#191970" d="M1640.4996,-490.3301C1663.1259,-469.2866 1705.9854,-428.0487 1738,-389 1773.4837,-345.72 1764.3988,-318.8079 1809,-285 1918.006,-202.373 1977.393,-248.1518 2103,-194 2158.5193,-170.0644 2250.3364,-155.0365 2210,-110 2168.1523,-63.2761 1194.3092,-19.7163 989.5599,-11.0559"/>
<polygon fill="#191970" stroke="#191970" points="989.4562,-7.5485 979.3178,-10.6247 989.1617,-14.5423 989.4562,-7.5485"/>
</g>
<!-- Node122&#45;&gt;Node2 -->
<g id="edge90" class="edge">
<title>Node122&#45;&gt;Node2</title>
<path fill="none" stroke="#191970" d="M1624.1887,-490.4617C1621.9845,-463.0317 1613.9308,-401.3899 1585,-360 1553.9809,-315.6224 1538.1027,-307.814 1489,-285 1442.2019,-263.2568 1384.9104,-251.8087 1340.9485,-245.8358"/>
<polygon fill="#191970" stroke="#191970" points="1341.2961,-242.3517 1330.9292,-244.5374 1340.3965,-249.2936 1341.2961,-242.3517"/>
</g>
<!-- Node122&#45;&gt;Node32 -->
<g id="edge92" class="edge">
<title>Node122&#45;&gt;Node32</title>
<path fill="none" stroke="#191970" d="M1654.2453,-490.4249C1671.8437,-481.2694 1694.2082,-468.3828 1712,-454 1742.341,-429.4725 1745.8844,-418.856 1771,-389 1808.7152,-344.1664 1802.7698,-316.7629 1852,-285 1884.2357,-264.2018 2124.7201,-213.1213 2234.5624,-190.5409"/>
<polygon fill="#191970" stroke="#191970" points="2235.3647,-193.9492 2244.4574,-188.5112 2233.9581,-187.092 2235.3647,-193.9492"/>
</g>
<!-- Node122&#45;&gt;Node71 -->
<g id="edge91" class="edge">
<title>Node122&#45;&gt;Node71</title>
<path fill="none" stroke="#191970" d="M1565.7291,-502.0468C1411.6653,-495.4306 1001.268,-476.2123 867,-454 756.7021,-435.7532 692.0767,-477.6799 624,-389 609.6463,-370.3022 614.8631,-341.8353 620.7528,-323.1983"/>
<polygon fill="#191970" stroke="#191970" points="624.1442,-324.1041 624.1555,-313.5092 617.5397,-321.7846 624.1442,-324.1041"/>
</g>
<!-- Node122&#45;&gt;Node118 -->
<g id="edge93" class="edge">
<title>Node122&#45;&gt;Node118</title>
<path fill="none" stroke="#191970" d="M1604.8204,-490.396C1591.9023,-481.3672 1574.9432,-469.5141 1560.6417,-459.5184"/>
<polygon fill="#191970" stroke="#191970" points="1562.3418,-456.4365 1552.1402,-453.5765 1558.3316,-462.174 1562.3418,-456.4365"/>
</g>
<!-- Node124 -->
<g id="node40" class="node">
<title>Node124</title>
<g id="a_node40"><a xlink:title=" ">
<polygon fill="#ffffff" stroke="#bfbfbf" points="1764.4385,-430.5 1764.4385,-448.5 1811.5615,-448.5 1811.5615,-430.5 1764.4385,-430.5"/>
<text text-anchor="middle" x="1788" y="-436.5" font-family="FreeSans" font-size="10.00" fill="#000000">iterator</text>
</a>
</g>
</g>
<!-- Node122&#45;&gt;Node124 -->
<g id="edge89" class="edge">
<title>Node122&#45;&gt;Node124</title>
<path fill="none" stroke="#191970" d="M1660.3686,-490.396C1688.7215,-479.0896 1728.1811,-463.3542 1755.6921,-452.3835"/>
<polygon fill="#191970" stroke="#191970" points="1757.2522,-455.5295 1765.2444,-448.5743 1754.6593,-449.0274 1757.2522,-455.5295"/>
</g>
<!-- Node152&#45;&gt;Node1 -->
<g id="edge95" class="edge">
<title>Node152&#45;&gt;Node1</title>
<path fill="none" stroke="#191970" d="M2039.6998,-285.4464C2143.8043,-262.0937 2310.5461,-222.1619 2368,-194 2377.5384,-189.3246 2387,-190.1226 2387,-179.5 2387,-179.5 2387,-179.5 2387,-119.5 2387,-49.3731 2311.3092,-70.8627 2243,-55 2118.3152,-26.0458 1189.2865,-12.548 989.6955,-9.9659"/>
<polygon fill="#191970" stroke="#191970" points="989.4732,-6.4628 979.4292,-9.8344 989.3835,-13.4623 989.4732,-6.4628"/>
</g>
<!-- Node152&#45;&gt;Node2 -->
<g id="edge97" class="edge">
<title>Node152&#45;&gt;Node2</title>
<path fill="none" stroke="#191970" d="M1860.5427,-291.3222C1843.4331,-289.0576 1825.6861,-286.8434 1809,-285 1641.3185,-266.4755 1443.4493,-251.4742 1341.0991,-244.2226"/>
<polygon fill="#191970" stroke="#191970" points="1341.1185,-240.7154 1330.8971,-243.5031 1340.626,-247.698 1341.1185,-240.7154"/>
</g>
<!-- Node152&#45;&gt;Node12 -->
<g id="edge96" class="edge">
<title>Node152&#45;&gt;Node12</title>
<path fill="none" stroke="#191970" d="M2043.496,-286.317C2046.3607,-285.857 2049.2007,-285.4164 2052,-285 2129.1183,-273.5272 2341.4288,-299.3004 2401,-249 2433.4244,-221.6216 2437.9485,-167.7894 2437.8493,-138.9049"/>
<polygon fill="#191970" stroke="#191970" points="2441.3469,-138.7589 2437.6198,-128.8413 2434.3488,-138.9185 2441.3469,-138.7589"/>
</g>
<!-- Node157&#45;&gt;Node1 -->
<g id="edge99" class="edge">
<title>Node157&#45;&gt;Node1</title>
<path fill="none" stroke="#191970" d="M2227.1776,-286.497C2230.1513,-285.9722 2233.0991,-285.471 2236,-285 2343.1582,-267.5999 2713,-288.0617 2713,-179.5 2713,-179.5 2713,-179.5 2713,-119.5 2713,3.4443 2565.86,-71.2925 2444,-55 2150.3306,-15.7368 1190.9494,-10.3132 989.3716,-9.6026"/>
<polygon fill="#191970" stroke="#191970" points="989.299,-6.1024 979.2873,-9.5688 989.2755,-13.1024 989.299,-6.1024"/>
</g>
<!-- Node157&#45;&gt;Node2 -->
<g id="edge101" class="edge">
<title>Node157&#45;&gt;Node2</title>
<path fill="none" stroke="#191970" d="M2060.853,-286.2905C2057.8706,-285.8241 2054.9127,-285.3914 2052,-285 1915.6809,-266.6833 1505.8547,-248.8335 1341.3999,-242.2054"/>
<polygon fill="#191970" stroke="#191970" points="1341.0602,-238.689 1330.9279,-241.7851 1340.7795,-245.6834 1341.0602,-238.689"/>
</g>
<!-- Node157&#45;&gt;Node12 -->
<g id="edge100" class="edge">
<title>Node157&#45;&gt;Node12</title>
<path fill="none" stroke="#191970" d="M2227.2194,-286.7312C2230.1813,-286.1402 2233.1152,-285.5614 2236,-285 2391.2361,-254.7923 2490.7762,-324.5752 2580,-194 2587.2716,-183.3583 2587.6077,-175.4042 2580,-165 2579.1454,-163.8313 2510.4701,-142.3292 2468.6132,-129.3079"/>
<polygon fill="#191970" stroke="#191970" points="2469.4478,-125.9022 2458.8596,-126.2761 2467.37,-132.5868 2469.4478,-125.9022"/>
</g>
<!-- Node159&#45;&gt;Node1 -->
<g id="edge103" class="edge">
<title>Node159&#45;&gt;Node1</title>
<path fill="none" stroke="#191970" d="M1924.7916,-618.2256C2160.2694,-613.5694 2805,-592.7617 2805,-504.5 2805,-504.5 2805,-504.5 2805,-374.5 2805,-333.8358 2812.3749,-323.9671 2824,-285 2838.3812,-236.7942 2865,-229.8052 2865,-179.5 2865,-179.5 2865,-179.5 2865,-119.5 2865,-69.1987 2819.8156,-70.6171 2772,-55 2684.2979,-26.3555 1242.1907,-12.1093 989.6061,-9.8283"/>
<polygon fill="#191970" stroke="#191970" points="989.4968,-6.3273 979.4658,-9.7374 989.434,-13.327 989.4968,-6.3273"/>
</g>
<!-- Node159&#45;&gt;Node2 -->
<g id="edge107" class="edge">
<title>Node159&#45;&gt;Node2</title>
<path fill="none" stroke="#191970" d="M1846.3211,-610.2442C1851.9578,-601.3892 1859.7981,-587.4315 1863,-574 1878.4938,-509.0051 1883.4594,-478.1736 1843,-425 1752.1927,-305.6571 1680.8022,-324.0003 1536,-285 1470.817,-267.444 1394.6827,-255.1691 1340.9691,-247.8305"/>
<polygon fill="#191970" stroke="#191970" points="1341.2493,-244.3367 1330.872,-246.473 1340.3165,-251.2743 1341.2493,-244.3367"/>
</g>
<!-- Node159&#45;&gt;Node12 -->
<g id="edge106" class="edge">
<title>Node159&#45;&gt;Node12</title>
<path fill="none" stroke="#191970" d="M1924.4523,-616.7302C2014.1139,-612.4183 2159.4991,-601.4924 2282,-574 2496.9489,-525.7597 2624.1572,-526.8822 2710,-324 2716.7543,-308.0368 2717.8281,-300.465 2710,-285 2697.7956,-260.8893 2680.2745,-267.9411 2661,-249 2627.524,-216.1029 2635.8443,-191.3435 2597,-165 2550.2381,-133.2869 2527.492,-144.409 2468.4552,-128.936"/>
<polygon fill="#191970" stroke="#191970" points="2469.2314,-125.5191 2458.6593,-126.2137 2467.357,-132.2635 2469.2314,-125.5191"/>
</g>
<!-- Node159&#45;&gt;Node37 -->
<g id="edge111" class="edge">
<title>Node159&#45;&gt;Node37</title>
<path fill="none" stroke="#191970" d="M1924.7296,-615.8271C2024.7729,-610.5643 2195.9165,-598.6524 2341,-574 2439.9378,-557.1886 2468.6976,-560.6555 2560,-519 2605.8789,-498.0683 2617.0569,-489.371 2653,-454 2711.4432,-396.4869 2755.2893,-361.9615 2727,-285 2700.5661,-213.0861 2622.794,-158.3017 2582.2447,-133.7213"/>
<polygon fill="#191970" stroke="#191970" points="2583.8758,-130.6196 2573.4884,-128.5333 2580.3076,-136.6419 2583.8758,-130.6196"/>
</g>
<!-- Node159&#45;&gt;Node42 -->
<g id="edge108" class="edge">
<title>Node159&#45;&gt;Node42</title>
<path fill="none" stroke="#191970" d="M1755.1923,-611.601C1664.1268,-602.9744 1515.2235,-588.4513 1387,-574 1385.7365,-573.8576 1384.4613,-573.7126 1383.1771,-573.5653"/>
<polygon fill="#191970" stroke="#191970" points="1383.5375,-570.0837 1373.1989,-572.3995 1382.7251,-577.0364 1383.5375,-570.0837"/>
</g>
<!-- Node159&#45;&gt;Node43 -->
<g id="edge109" class="edge">
<title>Node159&#45;&gt;Node43</title>
<path fill="none" stroke="#191970" d="M1806.2642,-610.3764C1752.1158,-595.1092 1643.1483,-561.8006 1557,-519 1509.8611,-495.5802 1501.7225,-483.3072 1458,-454 1415.5042,-425.5151 1402.9656,-420.938 1363,-389 1335.3959,-366.9406 1305.8375,-338.4914 1288.1418,-320.8762"/>
<polygon fill="#191970" stroke="#191970" points="1290.4344,-318.2185 1280.8958,-313.607 1285.4768,-323.1603 1290.4344,-318.2185"/>
</g>
<!-- Node159&#45;&gt;Node83 -->
<g id="edge118" class="edge">
<title>Node159&#45;&gt;Node83</title>
<path fill="none" stroke="#191970" d="M1755.4508,-617.6163C1434.2839,-609.913 308,-577.6814 308,-504.5 308,-504.5 308,-504.5 308,-439.5 308,-403.1716 306.3682,-391.9077 289,-360 281.9954,-347.1316 271.2287,-335.0776 261.2247,-325.5129"/>
<polygon fill="#191970" stroke="#191970" points="263.5367,-322.8843 253.7981,-318.7117 258.8091,-328.0466 263.5367,-322.8843"/>
</g>
<!-- Node159&#45;&gt;Node48 -->
<g id="edge110" class="edge">
<title>Node159&#45;&gt;Node48</title>
<path fill="none" stroke="#191970" d="M1787.3334,-610.4264C1745.732,-602.6219 1686.4782,-590.0846 1636,-574 1427.2815,-507.493 1390.9937,-451.5864 1192,-360 1157.9786,-344.3417 1118.2574,-328.1439 1090.9436,-317.319"/>
<polygon fill="#191970" stroke="#191970" points="1092.0623,-313.9979 1081.4755,-313.585 1089.4941,-320.5098 1092.0623,-313.9979"/>
</g>
<!-- Node159&#45;&gt;Node71 -->
<g id="edge119" class="edge">
<title>Node159&#45;&gt;Node71</title>
<path fill="none" stroke="#191970" d="M1755.4891,-616.3036C1471.17,-604.9993 567,-564.3455 567,-504.5 567,-504.5 567,-504.5 567,-439.5 567,-393.6879 596.5325,-346.2693 614.5,-321.6592"/>
<polygon fill="#191970" stroke="#191970" points="617.2976,-323.7623 620.5202,-313.6695 611.707,-319.5498 617.2976,-323.7623"/>
</g>
<!-- Node159&#45;&gt;Node57 -->
<g id="edge105" class="edge">
<title>Node159&#45;&gt;Node57</title>
<path fill="none" stroke="#191970" d="M1842.043,-610.2817C1848.1313,-580.2963 1863.2224,-484.0671 1821,-425 1801.9552,-398.3573 1765.3981,-385.4738 1739.4459,-379.4493"/>
<polygon fill="#191970" stroke="#191970" points="1739.9032,-375.9689 1729.3964,-377.3317 1738.4598,-382.8185 1739.9032,-375.9689"/>
</g>
<!-- Node159&#45;&gt;Node124 -->
<g id="edge104" class="edge">
<title>Node159&#45;&gt;Node124</title>
<path fill="none" stroke="#191970" d="M1837.1491,-610.4542C1834.2755,-601.2857 1829.7424,-586.6831 1826,-574 1813.8625,-532.8654 1800.3709,-484.4166 1793.1808,-458.3622"/>
<polygon fill="#191970" stroke="#191970" points="1796.5367,-457.3656 1790.5075,-448.6536 1789.7879,-459.224 1796.5367,-457.3656"/>
</g>
<!-- Node81 -->
<g id="node44" class="node">
<title>Node81</title>
<g id="a_node44"><a xlink:href="CPointPredicate_8h_source.html" target="_top" xlink:title=" ">
<polygon fill="#ffffff" stroke="#ff0000" points="2244.5225,-295.5 2244.5225,-313.5 2399.4775,-313.5 2399.4775,-295.5 2244.5225,-295.5"/>
<text text-anchor="middle" x="2322" y="-301.5" font-family="FreeSans" font-size="10.00" fill="#000000">DGtal/kernel/CPointPredicate.h</text>
</a>
</g>
</g>
<!-- Node159&#45;&gt;Node81 -->
<g id="edge112" class="edge">
<title>Node159&#45;&gt;Node81</title>
<path fill="none" stroke="#191970" d="M1921.0053,-610.4458C2028.5373,-596.1305 2205,-563.6306 2205,-504.5 2205,-504.5 2205,-504.5 2205,-439.5 2205,-383.9824 2262.2046,-340.0991 2296.615,-318.724"/>
<polygon fill="#191970" stroke="#191970" points="2298.4697,-321.6928 2305.2368,-313.5406 2294.8629,-315.6935 2298.4697,-321.6928"/>
</g>
<!-- Node52 -->
<g id="node45" class="node">
<title>Node52</title>
<g id="a_node45"><a xlink:href="CQuantity_8h_source.html" target="_top" xlink:title=" ">
<polygon fill="#ffffff" stroke="#ff0000" points="2417.5659,-295.5 2417.5659,-313.5 2538.4341,-313.5 2538.4341,-295.5 2417.5659,-295.5"/>
<text text-anchor="middle" x="2478" y="-301.5" font-family="FreeSans" font-size="10.00" fill="#000000">DGtal/base/CQuantity.h</text>
</a>
</g>
</g>
<!-- Node159&#45;&gt;Node52 -->
<g id="edge115" class="edge">
<title>Node159&#45;&gt;Node52</title>
<path fill="none" stroke="#191970" d="M1924.7279,-611.5837C2087.2863,-595.2478 2427,-555.0605 2427,-504.5 2427,-504.5 2427,-504.5 2427,-439.5 2427,-395.0425 2451.503,-347.3552 2466.5407,-322.2751"/>
<polygon fill="#191970" stroke="#191970" points="2469.6591,-323.8874 2471.9494,-313.543 2463.7081,-320.2014 2469.6591,-323.8874"/>
</g>
<!-- Node81&#45;&gt;Node1 -->
<g id="edge113" class="edge">
<title>Node81&#45;&gt;Node1</title>
<path fill="none" stroke="#191970" d="M2359.1205,-295.4816C2374.4983,-291.9279 2392.5524,-287.9901 2409,-285 2565.5026,-256.5483 2751,-338.5678 2751,-179.5 2751,-179.5 2751,-179.5 2751,-119.5 2751,-113.5413 2763.8346,-91.0263 2586,-55 2424.9746,-22.379 1218.207,-11.5434 989.3898,-9.7727"/>
<polygon fill="#191970" stroke="#191970" points="989.2676,-6.2718 979.2411,-9.6952 989.214,-13.2716 989.2676,-6.2718"/>
</g>
<!-- Node81&#45;&gt;Node2 -->
<g id="edge114" class="edge">
<title>Node81&#45;&gt;Node2</title>
<path fill="none" stroke="#191970" d="M2288.3487,-295.4274C2272.572,-291.5466 2253.4456,-287.3708 2236,-285 2062.891,-261.4751 1532.124,-246.0843 1341.2681,-241.1861"/>
<polygon fill="#191970" stroke="#191970" points="1341.1691,-237.6825 1331.0831,-240.9264 1340.9906,-244.6803 1341.1691,-237.6825"/>
</g>
<!-- Node52&#45;&gt;Node1 -->
<g id="edge116" class="edge">
<title>Node52&#45;&gt;Node1</title>
<path fill="none" stroke="#191970" d="M2508.1604,-295.4197C2520.4506,-291.8974 2534.8387,-287.9988 2548,-285 2636.9136,-264.7411 2675.6693,-301.8299 2750,-249 2778.8706,-228.4804 2789,-214.9199 2789,-179.5 2789,-179.5 2789,-179.5 2789,-119.5 2789,-47.3393 2710.4568,-70.5884 2640,-55 2474.0271,-18.2789 1223.2334,-10.7484 989.5439,-9.6571"/>
<polygon fill="#191970" stroke="#191970" points="989.5133,-6.1571 979.4974,-9.6113 989.4813,-13.157 989.5133,-6.1571"/>
</g>
<!-- Node52&#45;&gt;Node2 -->
<g id="edge117" class="edge">
<title>Node52&#45;&gt;Node2</title>
<path fill="none" stroke="#191970" d="M2451.0633,-295.421C2438.1845,-291.4883 2422.4566,-287.2716 2408,-285 2200.8064,-252.4433 1554.7365,-242.5842 1341.2493,-240.1743"/>
<polygon fill="#191970" stroke="#191970" points="1341.1505,-236.6731 1331.1123,-240.0618 1341.0728,-243.6726 1341.1505,-236.6731"/>
</g>
<!-- Node161&#45;&gt;Node1 -->
<g id="edge121" class="edge">
<title>Node161&#45;&gt;Node1</title>
<path fill="none" stroke="#191970" d="M2905.7548,-295.404C2905.2207,-274.7851 2904,-222.9083 2904,-179.5 2904,-179.5 2904,-179.5 2904,-119.5 2904,-88.7553 2904.1589,-72.671 2879,-55 2838.8649,-26.8101 1255.3491,-12.0867 989.6449,-9.8124"/>
<polygon fill="#191970" stroke="#191970" points="989.3925,-6.3102 979.3631,-9.725 989.3329,-13.31 989.3925,-6.3102"/>
</g>
<!-- Node161&#45;&gt;Node2 -->
<g id="edge122" class="edge">
<title>Node161&#45;&gt;Node2</title>
<path fill="none" stroke="#191970" d="M2832.5688,-296.0082C2795.8127,-292.0598 2750.606,-287.6593 2710,-285 2184.2477,-250.5683 1548.5936,-241.9867 1341.1077,-240.0325"/>
<polygon fill="#191970" stroke="#191970" points="1341,-236.5315 1330.9682,-239.9391 1340.9355,-243.5312 1341,-236.5315"/>
</g>
<!-- Node164&#45;&gt;Node1 -->
<g id="edge124" class="edge">
<title>Node164&#45;&gt;Node1</title>
<path fill="none" stroke="#191970" d="M2679.2197,-295.4818C2737.8793,-281.7188 2827,-249.3199 2827,-179.5 2827,-179.5 2827,-179.5 2827,-119.5 2827,-62.8264 2771.4969,-70.556 2717,-55 2631.0949,-30.4786 1237.5782,-12.8813 989.5936,-9.9364"/>
<polygon fill="#191970" stroke="#191970" points="989.342,-6.4333 979.3013,-9.8148 989.2593,-13.4328 989.342,-6.4333"/>
</g>
<!-- Node164&#45;&gt;Node2 -->
<g id="edge126" class="edge">
<title>Node164&#45;&gt;Node2</title>
<path fill="none" stroke="#191970" d="M2597.3433,-295.4262C2582.2343,-291.4946 2563.8209,-287.2774 2547,-285 2310.9692,-253.0443 1571.6376,-242.6679 1341.2556,-240.1668"/>
<polygon fill="#191970" stroke="#191970" points="1341.0344,-236.6643 1330.9975,-240.057 1340.9594,-243.6639 1341.0344,-236.6643"/>
</g>
<!-- Node164&#45;&gt;Node7 -->
<g id="edge125" class="edge">
<title>Node164&#45;&gt;Node7</title>
<path fill="none" stroke="#191970" d="M2623.3993,-295.1859C2614.3004,-280.4578 2595.2737,-251.2818 2575,-230 2562.4307,-216.8057 2546.3811,-203.9892 2533.6271,-194.5693"/>
<polygon fill="#191970" stroke="#191970" points="2535.562,-191.6494 2525.4072,-188.6276 2531.4612,-197.3224 2535.562,-191.6494"/>
</g>
<!-- Node164&#45;&gt;Node32 -->
<g id="edge127" class="edge">
<title>Node164&#45;&gt;Node32</title>
<path fill="none" stroke="#191970" d="M2604.2742,-295.4096C2544.4124,-273.4016 2391.5943,-217.2185 2323.1051,-192.0386"/>
<polygon fill="#191970" stroke="#191970" points="2324.2267,-188.722 2313.6331,-188.5563 2321.8112,-195.2921 2324.2267,-188.722"/>
</g>
<!-- Node167&#45;&gt;Node1 -->
<g id="edge129" class="edge">
<title>Node167&#45;&gt;Node1</title>
<path fill="none" stroke="#191970" d="M875.4823,-437.4931C671.8124,-431.7572 124.5149,-414.0765 95,-389 65.665,-364.0764 76,-342.9932 76,-304.5 76,-304.5 76,-304.5 76,-119.5 76,-81.5364 97.9092,-71.7049 132,-55 202.8005,-20.3068 763.4214,-11.5976 914.5688,-9.8706"/>
<polygon fill="#191970" stroke="#191970" points="914.7708,-13.3687 924.7314,-9.7581 914.6933,-6.3691 914.7708,-13.3687"/>
</g>
<!-- Node167&#45;&gt;Node2 -->
<g id="edge130" class="edge">
<title>Node167&#45;&gt;Node2</title>
<path fill="none" stroke="#191970" d="M948.6023,-425.1151C944.4066,-394.5284 939.5076,-322.7503 978,-285 993.8631,-269.4427 1121.2301,-254.2425 1203.0371,-245.9482"/>
<polygon fill="#191970" stroke="#191970" points="1203.4233,-249.4271 1213.0242,-244.9468 1202.7249,-242.462 1203.4233,-249.4271"/>
</g>
<!-- Node167&#45;&gt;Node43 -->
<g id="edge132" class="edge">
<title>Node167&#45;&gt;Node43</title>
<path fill="none" stroke="#191970" d="M1026.3445,-428.741C1086.0823,-419.2914 1164.0128,-404.642 1192,-389 1221.5336,-372.4936 1246.6639,-341.4197 1260.5123,-321.903"/>
<polygon fill="#191970" stroke="#191970" points="1263.4365,-323.8276 1266.2156,-313.6037 1257.6674,-319.863 1263.4365,-323.8276"/>
</g>
<!-- Node167&#45;&gt;Node65 -->
<g id="edge133" class="edge">
<title>Node167&#45;&gt;Node65</title>
<path fill="none" stroke="#191970" d="M932.7733,-425.396C921.2154,-416.4524 906.0761,-404.7375 893.2361,-394.8018"/>
<polygon fill="#191970" stroke="#191970" points="895.2419,-391.9283 885.1912,-388.5765 890.958,-397.4644 895.2419,-391.9283"/>
</g>
<!-- Node167&#45;&gt;Node83 -->
<g id="edge131" class="edge">
<title>Node167&#45;&gt;Node83</title>
<path fill="none" stroke="#191970" d="M875.5686,-435.8671C747.6959,-429.1442 493.8882,-413.2046 408,-389 355.7516,-374.2756 300.2359,-343.9957 266.8414,-323.9698"/>
<polygon fill="#191970" stroke="#191970" points="268.3935,-320.8175 258.0301,-318.6149 264.758,-326.7994 268.3935,-320.8175"/>
</g>
<!-- Node167&#45;&gt;Node48 -->
<g id="edge134" class="edge">
<title>Node167&#45;&gt;Node48</title>
<path fill="none" stroke="#191970" d="M960.4299,-425.3663C971.3793,-409.1942 990.2177,-382.0948 1008,-360 1018.8858,-346.4743 1032.0599,-331.9172 1042.152,-321.1064"/>
<polygon fill="#191970" stroke="#191970" points="1044.8688,-323.3268 1049.1798,-313.6487 1039.7744,-318.526 1044.8688,-323.3268"/>
</g>
<!-- Node175&#45;&gt;Node1 -->
<g id="edge136" class="edge">
<title>Node175&#45;&gt;Node1</title>
<path fill="none" stroke="#191970" d="M182.1212,-365.4135C161.1325,-345.0627 114,-293.3659 114,-239.5 114,-239.5 114,-239.5 114,-119.5 114,-40.3486 202.7409,-72.2039 280,-55 402.5509,-27.7107 792.3488,-14.1881 914.8108,-10.5381"/>
<polygon fill="#191970" stroke="#191970" points="914.9311,-14.0362 924.824,-10.244 914.7255,-7.0392 914.9311,-14.0362"/>
</g>
<!-- Node175&#45;&gt;Node2 -->
<g id="edge137" class="edge">
<title>Node175&#45;&gt;Node2</title>
<path fill="none" stroke="#191970" d="M212.2042,-365.4333C234.1727,-355.5066 270.261,-339.0002 301,-324 335.1198,-307.35 340.3346,-294.8503 377,-285 455.7887,-263.8331 1006.2773,-246.8075 1202.6249,-241.3463"/>
<polygon fill="#191970" stroke="#191970" points="1202.9202,-244.8395 1212.8196,-241.0643 1202.7266,-237.8422 1202.9202,-244.8395"/>
</g>
<!-- Node175&#45;&gt;Node28 -->
<g id="edge139" class="edge">
<title>Node175&#45;&gt;Node28</title>
<path fill="none" stroke="#191970" d="M186.8033,-365.1753C181.621,-355.3005 174.0114,-339.0846 171,-324 167.6066,-307.0021 166.9381,-301.8507 171,-285 179.0337,-251.6725 199.4837,-217.0382 212.7852,-196.9151"/>
<polygon fill="#191970" stroke="#191970" points="215.7704,-198.7491 218.4893,-188.5091 209.9781,-194.8186 215.7704,-198.7491"/>
</g>
<!-- Node175&#45;&gt;Node83 -->
<g id="edge140" class="edge">
<title>Node175&#45;&gt;Node83</title>
<path fill="none" stroke="#191970" d="M197.7522,-365.3487C203.7505,-355.806 213.3897,-340.4709 221.4904,-327.5835"/>
<polygon fill="#191970" stroke="#191970" points="224.6844,-329.0789 227.0429,-318.7499 218.7579,-325.3537 224.6844,-329.0789"/>
</g>
<!-- Node175&#45;&gt;Node71 -->
<g id="edge138" class="edge">
<title>Node175&#45;&gt;Node71</title>
<path fill="none" stroke="#191970" d="M253.2413,-365.4869C318.9963,-355.7057 426.4985,-339.4147 519,-324 535.253,-321.2916 552.8412,-318.2109 569.0487,-315.3108"/>
<polygon fill="#191970" stroke="#191970" points="569.7144,-318.7473 578.9375,-313.5333 568.476,-311.8577 569.7144,-318.7473"/>
</g>
</g>
</svg>
        <g id="navigator" transform="translate(0 0)" fill="#404254">
                <rect fill="#f2f5e9" fill-opacity="0.5" stroke="#606060" stroke-width=".5" x="0" y="0" width="60" height="60"/>
                <use id="zoomplus" xlink:href="#zoomPlus" x="17" y="9" onmousedown="handleZoom(evt,'in')"/>
                <use id="zoomminus" xlink:href="#zoomMin" x="42" y="9" onmousedown="handleZoom(evt,'out')"/>
                <use id="reset" xlink:href="#resetDef" x="30" y="36" onmousedown="handleReset()"/>
                <g id="arrowUp" xlink:href="#dirArrow" transform="translate(30 24)" onmousedown="handlePan(0,-1)">
                  <use xlink:href="#rim" fill="#404040">
                        <set attributeName="fill" to="#808080" begin="arrowUp.mouseover" end="arrowUp.mouseout"/>
                  </use>
                  <path fill="none" stroke="white" stroke-width="1.5" d="M0,-3.0v7 M-2.5,-0.5L0,-3.0L2.5,-0.5"/>
                </g>
                <g id="arrowRight" xlink:href="#dirArrow" transform="rotate(90) translate(36 -43)" onmousedown="handlePan(1,0)">
                  <use xlink:href="#rim" fill="#404040">
                        <set attributeName="fill" to="#808080" begin="arrowRight.mouseover" end="arrowRight.mouseout"/>
                  </use>
                  <path fill="none" stroke="white" stroke-width="1.5" d="M0,-3.0v7 M-2.5,-0.5L0,-3.0L2.5,-0.5"/>
                </g>
                <g id="arrowDown" xlink:href="#dirArrow" transform="rotate(180) translate(-30 -48)" onmousedown="handlePan(0,1)">
                  <use xlink:href="#rim" fill="#404040">
                        <set attributeName="fill" to="#808080" begin="arrowDown.mouseover" end="arrowDown.mouseout"/>
                  </use>
                  <path fill="none" stroke="white" stroke-width="1.5" d="M0,-3.0v7 M-2.5,-0.5L0,-3.0L2.5,-0.5"/>
                </g>
                <g id="arrowLeft" xlink:href="#dirArrow" transform="rotate(270) translate(-36 17)" onmousedown="handlePan(-1,0)">
                  <use xlink:href="#rim" fill="#404040">
                        <set attributeName="fill" to="#808080" begin="arrowLeft.mouseover" end="arrowLeft.mouseout"/>
                  </use>
                  <path fill="none" stroke="white" stroke-width="1.5" d="M0,-3.0v7 M-2.5,-0.5L0,-3.0L2.5,-0.5"/>
                </g>
        </g>
        <svg viewBox="0 0 15 15" width="100%" height="30px" preserveAspectRatio="xMaxYMin meet">
         <g id="arrow_out" transform="scale(0.3 0.3)">
          <a xlink:href="testSliceImageFromFunctor_8cpp__incl_org.svg" target="_base">
           <rect id="button" ry="5" rx="5" y="6" x="6" height="38" width="38"
                fill="#f2f5e9" fill-opacity="0.5" stroke="#606060" stroke-width="1.0"/>
           <path id="arrow"
             d="M 11.500037,31.436501 C 11.940474,20.09759 22.043105,11.32322 32.158766,21.979434 L 37.068811,17.246167 C 37.068811,17.246167 37.088388,32 37.088388,32 L 22.160133,31.978069 C 22.160133,31.978069 26.997745,27.140456 26.997745,27.140456 C 18.528582,18.264221 13.291696,25.230495 11.500037,31.436501 z"
             style="fill:#404040;"/>
          </a>
         </g>
        </svg>
</svg>
