<?xml version="1.0" encoding="UTF-8" standalone="no"?>
<!DOCTYPE svg PUBLIC "-//W3C//DTD SVG 1.1//EN"
 "http://www.w3.org/Graphics/SVG/1.1/DTD/svg11.dtd">
<!-- Generated by graphviz version 2.40.1 (20161225.0304)
 -->
<!-- Title: testDepthFirstPropagation.cpp Pages: 1 -->
<svg width="3209pt" height="562pt"
 viewBox="0.00 0.00 3208.56 562.00" xmlns="http://www.w3.org/2000/svg" xmlns:xlink="http://www.w3.org/1999/xlink">
<g id="graph0" class="graph" transform="scale(1 1) rotate(0) translate(4 558)">
<title>testDepthFirstPropagation.cpp</title>
<polygon fill="#ffffff" stroke="transparent" points="-4,4 -4,-558 3204.5615,-558 3204.5615,4 -4,4"/>
<!-- Node0 -->
<g id="node1" class="node">
<title>Node0</title>
<g id="a_node1"><a xlink:title=" ">
<polygon fill="#bfbfbf" stroke="#000000" points="1701.4634,-535.5 1701.4634,-553.5 1852.5366,-553.5 1852.5366,-535.5 1701.4634,-535.5"/>
<text text-anchor="middle" x="1777" y="-541.5" font-family="FreeSans" font-size="10.00" fill="#000000">testDepthFirstPropagation.cpp</text>
</a>
</g>
</g>
<!-- Node1 -->
<g id="node2" class="node">
<title>Node1</title>
<g id="a_node2"><a xlink:title=" ">
<polygon fill="#ffffff" stroke="#bfbfbf" points="2052.8276,-.5 2052.8276,-18.5 2107.1724,-18.5 2107.1724,-.5 2052.8276,-.5"/>
<text text-anchor="middle" x="2080" y="-6.5" font-family="FreeSans" font-size="10.00" fill="#000000">iostream</text>
</a>
</g>
</g>
<!-- Node0&#45;&gt;Node1 -->
<g id="edge1" class="edge">
<title>Node0&#45;&gt;Node1</title>
<path fill="none" stroke="#191970" d="M1852.849,-542.3138C2137.371,-533.621 3125,-498.8147 3125,-434.5 3125,-434.5 3125,-434.5 3125,-119.5 3125,-44.8846 3042.7726,-71.4803 2970,-55 2803.8358,-17.3701 2264.8623,-10.8109 2117.523,-9.7127"/>
<polygon fill="#191970" stroke="#191970" points="2117.2336,-6.2106 2107.2092,-9.6401 2117.1843,-13.2105 2117.2336,-6.2106"/>
</g>
<!-- Node2 -->
<g id="node3" class="node">
<title>Node2</title>
<g id="a_node3"><a xlink:href="Common_8h_source.html" target="_top" xlink:title=" ">
<polygon fill="#ffffff" stroke="#000000" points="1678.1455,-235.5 1678.1455,-253.5 1795.8545,-253.5 1795.8545,-235.5 1678.1455,-235.5"/>
<text text-anchor="middle" x="1737" y="-241.5" font-family="FreeSans" font-size="10.00" fill="#000000">DGtal/base/Common.h</text>
</a>
</g>
</g>
<!-- Node0&#45;&gt;Node2 -->
<g id="edge2" class="edge">
<title>Node0&#45;&gt;Node2</title>
<path fill="none" stroke="#191970" d="M1777,-535.3733C1777,-516.5256 1777,-471.9306 1777,-434.5 1777,-434.5 1777,-434.5 1777,-374.5 1777,-333.1761 1758.308,-287.6007 1746.4794,-262.897"/>
<polygon fill="#191970" stroke="#191970" points="1749.4796,-261.0685 1741.9048,-253.6608 1743.2069,-264.1754 1749.4796,-261.0685"/>
</g>
<!-- Node34 -->
<g id="node23" class="node">
<title>Node34</title>
<g id="a_node23"><a xlink:href="Color_8h_source.html" target="_top" xlink:title=" ">
<polygon fill="#ffffff" stroke="#000000" points="271.7046,-110.5 271.7046,-128.5 358.2954,-128.5 358.2954,-110.5 271.7046,-110.5"/>
<text text-anchor="middle" x="315" y="-116.5" font-family="FreeSans" font-size="10.00" fill="#000000">DGtal/io/Color.h</text>
</a>
</g>
</g>
<!-- Node0&#45;&gt;Node34 -->
<g id="edge82" class="edge">
<title>Node0&#45;&gt;Node34</title>
<path fill="none" stroke="#191970" d="M1701.2196,-543.7146C1446.7582,-540.8185 624.1307,-529.2901 361,-499 215.5706,-482.259 38,-580.8898 38,-434.5 38,-434.5 38,-434.5 38,-244.5 38,-195.0423 186.565,-150.9833 266.092,-130.9414"/>
<polygon fill="#191970" stroke="#191970" points="267.04,-134.3124 275.9002,-128.5031 265.3511,-127.5191 267.04,-134.3124"/>
</g>
<!-- Node42 -->
<g id="node28" class="node">
<title>Node42</title>
<g id="a_node28"><a xlink:href="Board2D_8h_source.html" target="_top" xlink:title=" ">
<polygon fill="#ffffff" stroke="#000000" points="450.9683,-480.5 450.9683,-498.5 587.0317,-498.5 587.0317,-480.5 450.9683,-480.5"/>
<text text-anchor="middle" x="519" y="-486.5" font-family="FreeSans" font-size="10.00" fill="#000000">DGtal/io/boards/Board2D.h</text>
</a>
</g>
</g>
<!-- Node0&#45;&gt;Node42 -->
<g id="edge47" class="edge">
<title>Node0&#45;&gt;Node42</title>
<path fill="none" stroke="#191970" d="M1701.1395,-541.1834C1477.745,-531.4165 823.8148,-502.8266 597.3084,-492.9237"/>
<polygon fill="#191970" stroke="#191970" points="597.314,-489.4207 587.1706,-492.4804 597.0082,-496.414 597.314,-489.4207"/>
</g>
<!-- Node67 -->
<g id="node36" class="node">
<title>Node67</title>
<g id="a_node36"><a xlink:title=" ">
<polygon fill="#ffffff" stroke="#bfbfbf" points="330.3301,-300.5 330.3301,-318.5 359.6699,-318.5 359.6699,-300.5 330.3301,-300.5"/>
<text text-anchor="middle" x="345" y="-306.5" font-family="FreeSans" font-size="10.00" fill="#000000">set</text>
</a>
</g>
</g>
<!-- Node0&#45;&gt;Node67 -->
<g id="edge120" class="edge">
<title>Node0&#45;&gt;Node67</title>
<path fill="none" stroke="#191970" d="M1701.4013,-543.2501C1427.6642,-538.5524 501.2079,-521.0891 442,-499 405.5815,-485.4131 394.3678,-477.1069 374,-444 351.6576,-407.6835 346.3732,-356.6204 345.2213,-329.0316"/>
<polygon fill="#191970" stroke="#191970" points="348.7125,-328.658 344.9429,-318.7564 341.7151,-328.8476 348.7125,-328.658"/>
</g>
<!-- Node314 -->
<g id="node38" class="node">
<title>Node314</title>
<g id="a_node38"><a xlink:href="HueShadeColorMap_8h_source.html" target="_top" xlink:title=" ">
<polygon fill="#ffffff" stroke="#000000" points="149.1357,-295.5 149.1357,-323.5 266.8643,-323.5 266.8643,-295.5 149.1357,-295.5"/>
<text text-anchor="start" x="157.1357" y="-311.5" font-family="FreeSans" font-size="10.00" fill="#000000">DGtal/io/colormaps</text>
<text text-anchor="middle" x="208" y="-301.5" font-family="FreeSans" font-size="10.00" fill="#000000">/HueShadeColorMap.h</text>
</a>
</g>
</g>
<!-- Node0&#45;&gt;Node314 -->
<g id="edge83" class="edge">
<title>Node0&#45;&gt;Node314</title>
<path fill="none" stroke="#191970" d="M1701.3586,-543.5243C1421.8128,-539.7211 460.0547,-524.8121 400,-499 317.2203,-463.4204 250.4262,-374.2966 222.3412,-332.199"/>
<polygon fill="#191970" stroke="#191970" points="225.2013,-330.1778 216.7932,-323.7315 219.3462,-334.0142 225.2013,-330.1778"/>
</g>
<!-- Node318 -->
<g id="node41" class="node">
<title>Node318</title>
<g id="a_node41"><a xlink:href="DGtal_2shapes_2Shapes_8h_source.html" target="_top" xlink:title=" ">
<polygon fill="#ffffff" stroke="#ff0000" points="1912.1899,-425.5 1912.1899,-443.5 2033.8101,-443.5 2033.8101,-425.5 1912.1899,-425.5"/>
<text text-anchor="middle" x="1973" y="-431.5" font-family="FreeSans" font-size="10.00" fill="#000000">DGtal/shapes/Shapes.h</text>
</a>
</g>
</g>
<!-- Node0&#45;&gt;Node318 -->
<g id="edge84" class="edge">
<title>Node0&#45;&gt;Node318</title>
<path fill="none" stroke="#191970" d="M1793.0395,-535.4982C1827.1371,-516.3619 1907.0455,-471.5153 1947.9342,-448.5675"/>
<polygon fill="#191970" stroke="#191970" points="1949.7313,-451.5725 1956.7389,-443.6261 1946.3054,-445.4682 1949.7313,-451.5725"/>
</g>
<!-- Node334 -->
<g id="node47" class="node">
<title>Node334</title>
<g id="a_node47"><a xlink:href="CUndirectedSimpleGraph_8h_source.html" target="_top" xlink:title=" ">
<polygon fill="#ffffff" stroke="#ff0000" points="2738.5791,-295.5 2738.5791,-323.5 2897.4209,-323.5 2897.4209,-295.5 2738.5791,-295.5"/>
<text text-anchor="start" x="2746.5791" y="-311.5" font-family="FreeSans" font-size="10.00" fill="#000000">DGtal/graph/CUndirectedSimple</text>
<text text-anchor="middle" x="2818" y="-301.5" font-family="FreeSans" font-size="10.00" fill="#000000">Graph.h</text>
</a>
</g>
</g>
<!-- Node0&#45;&gt;Node334 -->
<g id="edge110" class="edge">
<title>Node0&#45;&gt;Node334</title>
<path fill="none" stroke="#191970" d="M1852.8198,-537.3754C2049.0328,-518.1016 2569.0187,-461.4709 2725,-389 2754.4972,-375.2952 2781.9805,-349.5421 2799.3056,-331.0571"/>
<polygon fill="#191970" stroke="#191970" points="2801.9243,-333.38 2806.085,-323.6363 2796.7562,-328.6586 2801.9243,-333.38"/>
</g>
<!-- Node335 -->
<g id="node48" class="node">
<title>Node335</title>
<g id="a_node48"><a xlink:href="DepthFirstVisitor_8h_source.html" target="_top" xlink:title=" ">
<polygon fill="#ffffff" stroke="#ff0000" points="601.8911,-365.5 601.8911,-383.5 756.1089,-383.5 756.1089,-365.5 601.8911,-365.5"/>
<text text-anchor="middle" x="679" y="-371.5" font-family="FreeSans" font-size="10.00" fill="#000000">DGtal/graph/DepthFirstVisitor.h</text>
</a>
</g>
</g>
<!-- Node0&#45;&gt;Node335 -->
<g id="edge113" class="edge">
<title>Node0&#45;&gt;Node335</title>
<path fill="none" stroke="#191970" d="M1718.742,-535.4801C1531.9027,-506.5523 948.2314,-416.1843 747.5657,-385.1158"/>
<polygon fill="#191970" stroke="#191970" points="747.8681,-381.621 737.4503,-383.5497 746.797,-388.5386 747.8681,-381.621"/>
</g>
<!-- Node343 -->
<g id="node49" class="node">
<title>Node343</title>
<g id="a_node49"><a xlink:href="CGraphVisitor_8h_source.html" target="_top" xlink:title=" ">
<polygon fill="#ffffff" stroke="#ff0000" points="2953.4453,-300.5 2953.4453,-318.5 3096.5547,-318.5 3096.5547,-300.5 2953.4453,-300.5"/>
<text text-anchor="middle" x="3025" y="-306.5" font-family="FreeSans" font-size="10.00" fill="#000000">DGtal/graph/CGraphVisitor.h</text>
</a>
</g>
</g>
<!-- Node0&#45;&gt;Node343 -->
<g id="edge117" class="edge">
<title>Node0&#45;&gt;Node343</title>
<path fill="none" stroke="#191970" d="M1852.7342,-540.8104C1997.5373,-532.5109 2322.9333,-507.8455 2589,-444 2740.5489,-407.6342 2916.6798,-347.7227 2990.0955,-321.9367"/>
<polygon fill="#191970" stroke="#191970" points="2991.4918,-325.1556 2999.7598,-318.5306 2989.165,-318.5536 2991.4918,-325.1556"/>
</g>
<!-- Node106 -->
<g id="node50" class="node">
<title>Node106</title>
<g id="a_node50"><a xlink:title=" ">
<polygon fill="#ffffff" stroke="#bfbfbf" points="3153.4385,-480.5 3153.4385,-498.5 3200.5615,-498.5 3200.5615,-480.5 3153.4385,-480.5"/>
<text text-anchor="middle" x="3177" y="-486.5" font-family="FreeSans" font-size="10.00" fill="#000000">iterator</text>
</a>
</g>
</g>
<!-- Node0&#45;&gt;Node106 -->
<g id="edge121" class="edge">
<title>Node0&#45;&gt;Node106</title>
<path fill="none" stroke="#191970" d="M1852.962,-544.0759C2101.3207,-542.3575 2887.7109,-534.2037 3139,-499 3140.4732,-498.7936 3141.972,-498.5531 3143.4815,-498.2859"/>
<polygon fill="#191970" stroke="#191970" points="3144.3598,-501.6781 3153.4355,-496.2117 3142.9317,-494.8253 3144.3598,-501.6781"/>
</g>
<!-- Node2&#45;&gt;Node1 -->
<g id="edge3" class="edge">
<title>Node2&#45;&gt;Node1</title>
<path fill="none" stroke="#191970" d="M1739.4815,-235.4388C1744.1887,-219.6037 1755.7062,-186.5336 1775,-165 1795.246,-142.4037 1812.4339,-151.3054 1833,-129 1858.0618,-101.8188 1841.6881,-77.5328 1871,-55 1897.4969,-34.6312 1990.0589,-20.4115 2042.6824,-13.7638"/>
<polygon fill="#191970" stroke="#191970" points="2043.1466,-17.2331 2052.6431,-12.5356 2042.2899,-10.2857 2043.1466,-17.2331"/>
</g>
<!-- Node3 -->
<g id="node4" class="node">
<title>Node3</title>
<g id="a_node4"><a xlink:title=" ">
<polygon fill="#ffffff" stroke="#bfbfbf" points="2055.5962,-170.5 2055.5962,-188.5 2114.4038,-188.5 2114.4038,-170.5 2055.5962,-170.5"/>
<text text-anchor="middle" x="2085" y="-176.5" font-family="FreeSans" font-size="10.00" fill="#000000">exception</text>
</a>
</g>
</g>
<!-- Node2&#45;&gt;Node3 -->
<g id="edge4" class="edge">
<title>Node2&#45;&gt;Node3</title>
<path fill="none" stroke="#191970" d="M1796.0455,-237.5928C1857.9105,-229.6898 1957.6402,-215.0614 2042,-194 2044.7947,-193.3023 2047.6683,-192.5081 2050.5411,-191.6592"/>
<polygon fill="#191970" stroke="#191970" points="2051.7019,-194.9632 2060.1903,-188.6231 2049.6009,-188.2859 2051.7019,-194.9632"/>
</g>
<!-- Node4 -->
<g id="node5" class="node">
<title>Node4</title>
<g id="a_node5"><a xlink:title=" ">
<polygon fill="#ffffff" stroke="#bfbfbf" points="1880.436,-55.5 1880.436,-73.5 1937.564,-73.5 1937.564,-55.5 1880.436,-55.5"/>
<text text-anchor="middle" x="1909" y="-61.5" font-family="FreeSans" font-size="10.00" fill="#000000">algorithm</text>
</a>
</g>
</g>
<!-- Node2&#45;&gt;Node4 -->
<g id="edge5" class="edge">
<title>Node2&#45;&gt;Node4</title>
<path fill="none" stroke="#191970" d="M1795.969,-237.5242C1851.9587,-229.7315 1930.7783,-215.3399 1953,-194 1980.5388,-167.554 1988.2524,-144.0607 1971,-110 1964.1549,-96.4861 1951.1986,-86.0134 1938.8928,-78.5407"/>
<polygon fill="#191970" stroke="#191970" points="1940.5771,-75.4725 1930.1438,-73.6291 1937.1503,-81.5764 1940.5771,-75.4725"/>
</g>
<!-- Node5 -->
<g id="node6" class="node">
<title>Node5</title>
<g id="a_node6"><a xlink:title=" ">
<polygon fill="#ffffff" stroke="#bfbfbf" points="606.5298,-170.5 606.5298,-188.5 701.4702,-188.5 701.4702,-170.5 606.5298,-170.5"/>
<text text-anchor="middle" x="654" y="-176.5" font-family="FreeSans" font-size="10.00" fill="#000000">boost/version.hpp</text>
</a>
</g>
</g>
<!-- Node2&#45;&gt;Node5 -->
<g id="edge6" class="edge">
<title>Node2&#45;&gt;Node5</title>
<path fill="none" stroke="#191970" d="M1678.1197,-243.1498C1489.19,-238.5738 899.5959,-222.3379 711,-194 705.7697,-193.2141 700.3225,-192.1526 694.9602,-190.9593"/>
<polygon fill="#191970" stroke="#191970" points="695.3719,-187.4592 684.8323,-188.5396 693.7453,-194.2676 695.3719,-187.4592"/>
</g>
<!-- Node6 -->
<g id="node7" class="node">
<title>Node6</title>
<g id="a_node7"><a xlink:title=" ">
<polygon fill="#ffffff" stroke="#bfbfbf" points="2398.2935,-170.5 2398.2935,-188.5 2527.7065,-188.5 2527.7065,-170.5 2398.2935,-170.5"/>
<text text-anchor="middle" x="2463" y="-176.5" font-family="FreeSans" font-size="10.00" fill="#000000">boost/concept_check.hpp</text>
</a>
</g>
</g>
<!-- Node2&#45;&gt;Node6 -->
<g id="edge7" class="edge">
<title>Node2&#45;&gt;Node6</title>
<path fill="none" stroke="#191970" d="M1795.9286,-240.5727C1905.4159,-233.0716 2147.5797,-215.5214 2351,-194 2362.9577,-192.7349 2375.6139,-191.2438 2387.9476,-189.7075"/>
<polygon fill="#191970" stroke="#191970" points="2388.7276,-193.1369 2398.2097,-188.4105 2387.8497,-186.1922 2388.7276,-193.1369"/>
</g>
<!-- Node7 -->
<g id="node8" class="node">
<title>Node7</title>
<g id="a_node8"><a xlink:title=" ">
<polygon fill="#ffffff" stroke="#bfbfbf" points="719.5815,-170.5 719.5815,-188.5 838.4185,-188.5 838.4185,-170.5 719.5815,-170.5"/>
<text text-anchor="middle" x="779" y="-176.5" font-family="FreeSans" font-size="10.00" fill="#000000">boost/static_assert.hpp</text>
</a>
</g>
</g>
<!-- Node2&#45;&gt;Node7 -->
<g id="edge8" class="edge">
<title>Node2&#45;&gt;Node7</title>
<path fill="none" stroke="#191970" d="M1677.9494,-242.3342C1506.1346,-235.8444 1008.4406,-215.6623 847,-194 840.248,-193.094 833.1681,-191.8827 826.233,-190.5449"/>
<polygon fill="#191970" stroke="#191970" points="826.7275,-187.0739 816.2311,-188.5149 825.3352,-193.9341 826.7275,-187.0739"/>
</g>
<!-- Node8 -->
<g id="node9" class="node">
<title>Node8</title>
<g id="a_node9"><a xlink:title=" ">
<polygon fill="#ffffff" stroke="#bfbfbf" points="856.1309,-170.5 856.1309,-188.5 983.8691,-188.5 983.8691,-170.5 856.1309,-170.5"/>
<text text-anchor="middle" x="920" y="-176.5" font-family="FreeSans" font-size="10.00" fill="#000000">boost/concept/assert.hpp</text>
</a>
</g>
</g>
<!-- Node2&#45;&gt;Node8 -->
<g id="edge9" class="edge">
<title>Node2&#45;&gt;Node8</title>
<path fill="none" stroke="#191970" d="M1677.9106,-243.0631C1551.6634,-239.4289 1246.4693,-227.6343 993,-194 985.779,-193.0418 978.1982,-191.8024 970.7663,-190.4522"/>
<polygon fill="#191970" stroke="#191970" points="971.2487,-186.9814 960.7719,-188.5583 969.9454,-193.8591 971.2487,-186.9814"/>
</g>
<!-- Node9 -->
<g id="node10" class="node">
<title>Node9</title>
<g id="a_node10"><a xlink:title=" ">
<polygon fill="#ffffff" stroke="#bfbfbf" points="1001.6826,-170.5 1001.6826,-188.5 1138.3174,-188.5 1138.3174,-170.5 1001.6826,-170.5"/>
<text text-anchor="middle" x="1070" y="-176.5" font-family="FreeSans" font-size="10.00" fill="#000000">boost/concept/requires.hpp</text>
</a>
</g>
</g>
<!-- Node2&#45;&gt;Node9 -->
<g id="edge10" class="edge">
<title>Node2&#45;&gt;Node9</title>
<path fill="none" stroke="#191970" d="M1677.7437,-241.4087C1571.1786,-235.4092 1340.2778,-220.4015 1147,-194 1139.5029,-192.9759 1131.6285,-191.7123 1123.8946,-190.3615"/>
<polygon fill="#191970" stroke="#191970" points="1124.3149,-186.8809 1113.8522,-188.5485 1123.0712,-193.7696 1124.3149,-186.8809"/>
</g>
<!-- Node10 -->
<g id="node11" class="node">
<title>Node10</title>
<g id="a_node11"><a xlink:title=" ">
<polygon fill="#ffffff" stroke="#bfbfbf" points="1155.8672,-165.5 1155.8672,-193.5 1264.1328,-193.5 1264.1328,-165.5 1155.8672,-165.5"/>
<text text-anchor="start" x="1163.8672" y="-181.5" font-family="FreeSans" font-size="10.00" fill="#000000">boost/iterator/iterator</text>
<text text-anchor="middle" x="1210" y="-171.5" font-family="FreeSans" font-size="10.00" fill="#000000">_concepts.hpp</text>
</a>
</g>
</g>
<!-- Node2&#45;&gt;Node10 -->
<g id="edge11" class="edge">
<title>Node2&#45;&gt;Node10</title>
<path fill="none" stroke="#191970" d="M1678.097,-240.3256C1591.5872,-233.7016 1424.9734,-219.0714 1274.127,-194.0669"/>
<polygon fill="#191970" stroke="#191970" points="1274.6559,-190.6068 1264.2148,-192.4049 1273.4983,-197.5104 1274.6559,-190.6068"/>
</g>
<!-- Node11 -->
<g id="node12" class="node">
<title>Node11</title>
<g id="a_node12"><a xlink:title=" ">
<polygon fill="#ffffff" stroke="#bfbfbf" points="1282.397,-170.5 1282.397,-188.5 1429.603,-188.5 1429.603,-170.5 1282.397,-170.5"/>
<text text-anchor="middle" x="1356" y="-176.5" font-family="FreeSans" font-size="10.00" fill="#000000">boost/concept_archetype.hpp</text>
</a>
</g>
</g>
<!-- Node2&#45;&gt;Node11 -->
<g id="edge12" class="edge">
<title>Node2&#45;&gt;Node11</title>
<path fill="none" stroke="#191970" d="M1684.0236,-235.462C1614.6,-223.6181 1493.0001,-202.8727 1418.9547,-190.2403"/>
<polygon fill="#191970" stroke="#191970" points="1419.2787,-186.7451 1408.8325,-188.5134 1418.1015,-193.6454 1419.2787,-186.7451"/>
</g>
<!-- Node12 -->
<g id="node13" class="node">
<title>Node12</title>
<g id="a_node13"><a xlink:title=" ">
<polygon fill="#ffffff" stroke="#bfbfbf" points="1918.3843,-110.5 1918.3843,-128.5 1961.6157,-128.5 1961.6157,-110.5 1918.3843,-110.5"/>
<text text-anchor="middle" x="1940" y="-116.5" font-family="FreeSans" font-size="10.00" fill="#000000">cmath</text>
</a>
</g>
</g>
<!-- Node2&#45;&gt;Node12 -->
<g id="edge13" class="edge">
<title>Node2&#45;&gt;Node12</title>
<path fill="none" stroke="#191970" d="M1796.2,-236.7965C1847.2038,-228.8626 1915.3283,-214.7204 1933,-194 1945.8769,-178.9017 1945.8792,-155.2971 1943.7864,-138.7127"/>
<polygon fill="#191970" stroke="#191970" points="1947.1928,-137.8533 1942.1353,-128.5435 1940.2833,-138.9752 1947.1928,-137.8533"/>
</g>
<!-- Node13 -->
<g id="node14" class="node">
<title>Node13</title>
<g id="a_node14"><a xlink:title=" ">
<polygon fill="#ffffff" stroke="#bfbfbf" points="1486.2686,-170.5 1486.2686,-188.5 1531.7314,-188.5 1531.7314,-170.5 1486.2686,-170.5"/>
<text text-anchor="middle" x="1509" y="-176.5" font-family="FreeSans" font-size="10.00" fill="#000000">stdio.h</text>
</a>
</g>
</g>
<!-- Node2&#45;&gt;Node13 -->
<g id="edge14" class="edge">
<title>Node2&#45;&gt;Node13</title>
<path fill="none" stroke="#191970" d="M1693.1464,-235.4888C1652.9921,-226.702 1592.2036,-212.044 1541,-194 1539.7704,-193.5667 1538.523,-193.1047 1537.2694,-192.6217"/>
<polygon fill="#191970" stroke="#191970" points="1538.3059,-189.2617 1527.7294,-188.6399 1535.6097,-195.7216 1538.3059,-189.2617"/>
</g>
<!-- Node14 -->
<g id="node15" class="node">
<title>Node14</title>
<g id="a_node15"><a xlink:href="Config_8h_source.html" target="_top" xlink:title=" ">
<polygon fill="#ffffff" stroke="#ff0000" points="1393.9756,-55.5 1393.9756,-73.5 1500.0244,-73.5 1500.0244,-55.5 1393.9756,-55.5"/>
<text text-anchor="middle" x="1447" y="-61.5" font-family="FreeSans" font-size="10.00" fill="#000000">DGtal/base/Config.h</text>
</a>
</g>
</g>
<!-- Node2&#45;&gt;Node14 -->
<g id="edge15" class="edge">
<title>Node2&#45;&gt;Node14</title>
<path fill="none" stroke="#191970" d="M1677.9947,-244.1184C1449.7632,-242.3579 635.6277,-233.333 598,-194 589.0903,-184.6865 589.4386,-174.6346 598,-165 650.1561,-106.3058 1196.1671,-75.977 1383.9678,-67.2233"/>
<polygon fill="#191970" stroke="#191970" points="1384.1366,-70.7194 1393.9646,-66.762 1383.8138,-63.7268 1384.1366,-70.7194"/>
</g>
<!-- Node16 -->
<g id="node16" class="node">
<title>Node16</title>
<g id="a_node16"><a xlink:href="Trace_8h_source.html" target="_top" xlink:title=" ">
<polygon fill="#ffffff" stroke="#ff0000" points="1549.8311,-170.5 1549.8311,-188.5 1652.1689,-188.5 1652.1689,-170.5 1549.8311,-170.5"/>
<text text-anchor="middle" x="1601" y="-176.5" font-family="FreeSans" font-size="10.00" fill="#000000">DGtal/base/Trace.h</text>
</a>
</g>
</g>
<!-- Node2&#45;&gt;Node16 -->
<g id="edge17" class="edge">
<title>Node2&#45;&gt;Node16</title>
<path fill="none" stroke="#191970" d="M1718.0898,-235.462C1695.0785,-224.464 1656.0079,-205.7906 1629.3818,-193.0648"/>
<polygon fill="#191970" stroke="#191970" points="1630.7198,-189.8252 1620.188,-188.6708 1627.7012,-196.1409 1630.7198,-189.8252"/>
</g>
<!-- Node23 -->
<g id="node17" class="node">
<title>Node23</title>
<g id="a_node17"><a xlink:href="TraceWriterTerm_8h_source.html" target="_top" xlink:title=" ">
<polygon fill="#ffffff" stroke="#ff0000" points="1310.478,-110.5 1310.478,-128.5 1461.522,-128.5 1461.522,-110.5 1310.478,-110.5"/>
<text text-anchor="middle" x="1386" y="-116.5" font-family="FreeSans" font-size="10.00" fill="#000000">DGtal/base/TraceWriterTerm.h</text>
</a>
</g>
</g>
<!-- Node2&#45;&gt;Node23 -->
<g id="edge25" class="edge">
<title>Node2&#45;&gt;Node23</title>
<path fill="none" stroke="#191970" d="M1677.9128,-241.2882C1623.4852,-236.4521 1541.6205,-224.3381 1477,-194 1468.8162,-190.1579 1428.397,-155.9708 1404.2649,-135.2672"/>
<polygon fill="#191970" stroke="#191970" points="1406.3517,-132.4455 1396.4878,-128.5782 1401.7871,-137.7525 1406.3517,-132.4455"/>
</g>
<!-- Node24 -->
<g id="node18" class="node">
<title>Node24</title>
<g id="a_node18"><a xlink:href="Assert_8h_source.html" target="_top" xlink:title=" ">
<polygon fill="#ffffff" stroke="#ff0000" points="1556.2588,-110.5 1556.2588,-128.5 1661.7412,-128.5 1661.7412,-110.5 1556.2588,-110.5"/>
<text text-anchor="middle" x="1609" y="-116.5" font-family="FreeSans" font-size="10.00" fill="#000000">DGtal/base/Assert.h</text>
</a>
</g>
</g>
<!-- Node2&#45;&gt;Node24 -->
<g id="edge28" class="edge">
<title>Node2&#45;&gt;Node24</title>
<path fill="none" stroke="#191970" d="M1728.8161,-235.426C1715.1528,-220.3954 1686.6603,-189.5538 1661,-165 1650.3015,-154.7628 1637.8304,-143.8194 1627.7835,-135.2309"/>
<polygon fill="#191970" stroke="#191970" points="1629.8974,-132.4345 1620.0063,-128.6376 1625.3708,-137.774 1629.8974,-132.4345"/>
</g>
<!-- Node27 -->
<g id="node19" class="node">
<title>Node27</title>
<g id="a_node19"><a xlink:href="TraceWriterFile_8h_source.html" target="_top" xlink:title=" ">
<polygon fill="#ffffff" stroke="#ff0000" points="1679.5322,-110.5 1679.5322,-128.5 1824.4678,-128.5 1824.4678,-110.5 1679.5322,-110.5"/>
<text text-anchor="middle" x="1752" y="-116.5" font-family="FreeSans" font-size="10.00" fill="#000000">DGtal/base/TraceWriterFile.h</text>
</a>
</g>
</g>
<!-- Node2&#45;&gt;Node27 -->
<g id="edge26" class="edge">
<title>Node2&#45;&gt;Node27</title>
<path fill="none" stroke="#191970" d="M1737.124,-235.1513C1737.4257,-220.244 1738.4599,-190.1986 1742,-165 1743.2223,-156.3 1745.2077,-146.7911 1747.0886,-138.7261"/>
<polygon fill="#191970" stroke="#191970" points="1750.5317,-139.3802 1749.5072,-128.835 1743.7321,-137.7175 1750.5317,-139.3802"/>
</g>
<!-- Node28 -->
<g id="node20" class="node">
<title>Node28</title>
<g id="a_node20"><a xlink:href="ConceptUtils_8h_source.html" target="_top" xlink:title=" ">
<polygon fill="#ffffff" stroke="#000000" points="2208.084,-170.5 2208.084,-188.5 2341.916,-188.5 2341.916,-170.5 2208.084,-170.5"/>
<text text-anchor="middle" x="2275" y="-176.5" font-family="FreeSans" font-size="10.00" fill="#000000">DGtal/base/ConceptUtils.h</text>
</a>
</g>
</g>
<!-- Node2&#45;&gt;Node28 -->
<g id="edge29" class="edge">
<title>Node2&#45;&gt;Node28</title>
<path fill="none" stroke="#191970" d="M1795.984,-237.4155C1877.0933,-227.668 2027.6186,-209.5581 2156,-194 2169.5501,-192.3579 2183.9675,-190.6055 2197.9184,-188.9072"/>
<polygon fill="#191970" stroke="#191970" points="2198.4719,-192.3657 2207.9754,-187.6824 2197.6256,-185.4171 2198.4719,-192.3657"/>
</g>
<!-- Node29 -->
<g id="node21" class="node">
<title>Node29</title>
<g id="a_node21"><a xlink:href="BasicTypes_8h_source.html" target="_top" xlink:title=" ">
<polygon fill="#ffffff" stroke="#ff0000" points="1966.8599,-55.5 1966.8599,-73.5 2095.1401,-73.5 2095.1401,-55.5 1966.8599,-55.5"/>
<text text-anchor="middle" x="2031" y="-61.5" font-family="FreeSans" font-size="10.00" fill="#000000">DGtal/base/BasicTypes.h</text>
</a>
</g>
</g>
<!-- Node2&#45;&gt;Node29 -->
<g id="edge31" class="edge">
<title>Node2&#45;&gt;Node29</title>
<path fill="none" stroke="#191970" d="M1795.8576,-238.6129C1858.3279,-231.2752 1951.7345,-216.8418 1979,-194 2012.7742,-165.7055 2024.8047,-112.2588 2028.9402,-83.6744"/>
<polygon fill="#191970" stroke="#191970" points="2032.4163,-84.0834 2030.2022,-73.7225 2025.4719,-83.2028 2032.4163,-84.0834"/>
</g>
<!-- Node32 -->
<g id="node22" class="node">
<title>Node32</title>
<g id="a_node22"><a xlink:href="BasicFunctors_8h_source.html" target="_top" xlink:title=" ">
<polygon fill="#ffffff" stroke="#ff0000" points="1783.7515,-170.5 1783.7515,-188.5 1924.2485,-188.5 1924.2485,-170.5 1783.7515,-170.5"/>
<text text-anchor="middle" x="1854" y="-176.5" font-family="FreeSans" font-size="10.00" fill="#000000">DGtal/base/BasicFunctors.h</text>
</a>
</g>
</g>
<!-- Node2&#45;&gt;Node32 -->
<g id="edge33" class="edge">
<title>Node2&#45;&gt;Node32</title>
<path fill="none" stroke="#191970" d="M1748.4234,-235.462C1765.8887,-224.5122 1799.0318,-205.9542 1823.6523,-193.2326"/>
<polygon fill="#191970" stroke="#191970" points="1825.2943,-196.3242 1832.6206,-188.6708 1822.1206,-190.085 1825.2943,-196.3242"/>
</g>
<!-- Node40 -->
<g id="node26" class="node">
<title>Node40</title>
<g id="a_node26"><a xlink:href="BasicArchetypes_8h_source.html" target="_top" xlink:title=" ">
<polygon fill="#ffffff" stroke="#000000" points="2056.1899,-110.5 2056.1899,-128.5 2207.8101,-128.5 2207.8101,-110.5 2056.1899,-110.5"/>
<text text-anchor="middle" x="2132" y="-116.5" font-family="FreeSans" font-size="10.00" fill="#000000">DGtal/base/BasicArchetypes.h</text>
</a>
</g>
</g>
<!-- Node2&#45;&gt;Node40 -->
<g id="edge43" class="edge">
<title>Node2&#45;&gt;Node40</title>
<path fill="none" stroke="#191970" d="M1796.236,-240.7097C1898.728,-233.5799 2100.4121,-216.8119 2123,-194 2137.1367,-179.7231 2137.5072,-155.611 2135.5672,-138.6946"/>
<polygon fill="#191970" stroke="#191970" points="2139.0265,-138.1622 2134.0801,-128.793 2132.1042,-139.2019 2139.0265,-138.1622"/>
</g>
<!-- Node41 -->
<g id="node27" class="node">
<title>Node41</title>
<g id="a_node27"><a xlink:href="Exceptions_8h_source.html" target="_top" xlink:title=" ">
<polygon fill="#ffffff" stroke="#000000" points="2545.9707,-170.5 2545.9707,-188.5 2672.0293,-188.5 2672.0293,-170.5 2545.9707,-170.5"/>
<text text-anchor="middle" x="2609" y="-176.5" font-family="FreeSans" font-size="10.00" fill="#000000">DGtal/base/Exceptions.h</text>
</a>
</g>
</g>
<!-- Node2&#45;&gt;Node41 -->
<g id="edge45" class="edge">
<title>Node2&#45;&gt;Node41</title>
<path fill="none" stroke="#191970" d="M1795.9796,-243.5119C1928.8232,-240.6892 2261.3949,-230.2803 2537,-194 2544.2138,-193.0504 2551.7889,-191.8037 2559.206,-190.4395"/>
<polygon fill="#191970" stroke="#191970" points="2560.0139,-193.8484 2569.1733,-188.5234 2558.6923,-186.9743 2560.0139,-193.8484"/>
</g>
<!-- Node14&#45;&gt;Node1 -->
<g id="edge16" class="edge">
<title>Node14&#45;&gt;Node1</title>
<path fill="none" stroke="#191970" d="M1500.3567,-56.6372C1504.9668,-56.048 1509.5629,-55.4925 1514,-55 1712.6269,-32.9551 1951.6044,-17.2919 2042.4699,-11.7273"/>
<polygon fill="#191970" stroke="#191970" points="2042.7856,-15.2147 2052.5547,-11.1141 2042.3607,-8.2276 2042.7856,-15.2147"/>
</g>
<!-- Node16&#45;&gt;Node1 -->
<g id="edge18" class="edge">
<title>Node16&#45;&gt;Node1</title>
<path fill="none" stroke="#191970" d="M1584.9754,-170.4156C1563.4285,-157.0581 1529.706,-131.3866 1547,-110 1609.5214,-32.6829 1931.6188,-14.5367 2042.4685,-10.553"/>
<polygon fill="#191970" stroke="#191970" points="2042.6458,-14.0491 2052.5207,-10.2102 2042.4071,-7.0531 2042.6458,-14.0491"/>
</g>
<!-- Node16&#45;&gt;Node14 -->
<g id="edge19" class="edge">
<title>Node16&#45;&gt;Node14</title>
<path fill="none" stroke="#191970" d="M1582.5427,-170.4449C1564.3618,-161.1513 1536.1703,-145.7199 1514,-129 1494.603,-114.3715 1474.8613,-94.6564 1461.8812,-80.888"/>
<polygon fill="#191970" stroke="#191970" points="1464.4414,-78.5014 1455.0738,-73.5519 1459.3102,-83.2629 1464.4414,-78.5014"/>
</g>
<!-- Node16&#45;&gt;Node23 -->
<g id="edge20" class="edge">
<title>Node16&#45;&gt;Node23</title>
<path fill="none" stroke="#191970" d="M1568.3461,-170.3873C1530.7969,-159.9084 1469.0613,-142.6799 1427.9738,-131.2136"/>
<polygon fill="#191970" stroke="#191970" points="1428.8295,-127.8187 1418.2567,-128.5019 1426.9479,-134.5611 1428.8295,-127.8187"/>
</g>
<!-- Node16&#45;&gt;Node24 -->
<g id="edge23" class="edge">
<title>Node16&#45;&gt;Node24</title>
<path fill="none" stroke="#191970" d="M1597.2057,-170.3873C1596.5972,-161.9293 1597.8738,-149.074 1600.1585,-138.4007"/>
<polygon fill="#191970" stroke="#191970" points="1603.5509,-139.2627 1602.7467,-128.6985 1596.7874,-137.4585 1603.5509,-139.2627"/>
</g>
<!-- Node23&#45;&gt;Node1 -->
<g id="edge21" class="edge">
<title>Node23&#45;&gt;Node1</title>
<path fill="none" stroke="#191970" d="M1382.3048,-110.1765C1377.4498,-96.2006 1371.066,-69.876 1385,-55 1407.6332,-30.8366 1900.3562,-14.7121 2042.145,-10.5602"/>
<polygon fill="#191970" stroke="#191970" points="2042.6032,-14.0485 2052.4976,-10.2602 2042.4004,-7.0514 2042.6032,-14.0485"/>
</g>
<!-- Node23&#45;&gt;Node14 -->
<g id="edge22" class="edge">
<title>Node23&#45;&gt;Node14</title>
<path fill="none" stroke="#191970" d="M1396.0729,-110.4179C1405.0255,-102.3458 1418.3238,-90.3556 1429.0863,-80.6517"/>
<polygon fill="#191970" stroke="#191970" points="1431.6251,-83.0753 1436.7082,-73.7795 1426.9376,-77.8764 1431.6251,-83.0753"/>
</g>
<!-- Node24&#45;&gt;Node16 -->
<g id="edge24" class="edge">
<title>Node24&#45;&gt;Node16</title>
<path fill="none" stroke="#191970" d="M1612.8004,-128.6985C1613.3962,-137.186 1612.1098,-150.0487 1609.8183,-160.7072"/>
<polygon fill="#191970" stroke="#191970" points="1606.4321,-159.8221 1607.2244,-170.3873 1613.1936,-161.634 1606.4321,-159.8221"/>
</g>
<!-- Node27&#45;&gt;Node1 -->
<g id="edge27" class="edge">
<title>Node27&#45;&gt;Node1</title>
<path fill="none" stroke="#191970" d="M1761.1232,-110.347C1775.893,-96.1032 1806.5701,-68.8354 1838,-55 1906.1656,-24.9935 1993.6299,-14.7557 2042.5567,-11.2768"/>
<polygon fill="#191970" stroke="#191970" points="2042.931,-14.7599 2052.6814,-10.615 2042.4744,-7.7748 2042.931,-14.7599"/>
</g>
<!-- Node28&#45;&gt;Node1 -->
<g id="edge30" class="edge">
<title>Node28&#45;&gt;Node1</title>
<path fill="none" stroke="#191970" d="M2276.1343,-170.2354C2278.3789,-147.3807 2280.7783,-87.7926 2250,-55 2232.0946,-35.9228 2162.0571,-22.0064 2117.6568,-14.8842"/>
<polygon fill="#191970" stroke="#191970" points="2117.9324,-11.3849 2107.5126,-13.3031 2116.8543,-18.3014 2117.9324,-11.3849"/>
</g>
<!-- Node29&#45;&gt;Node1 -->
<g id="edge32" class="edge">
<title>Node29&#45;&gt;Node1</title>
<path fill="none" stroke="#191970" d="M2039.0914,-55.4179C2046.0713,-47.5833 2056.3397,-36.0575 2064.8423,-26.5137"/>
<polygon fill="#191970" stroke="#191970" points="2067.6941,-28.5743 2071.7328,-18.7795 2062.4674,-23.9178 2067.6941,-28.5743"/>
</g>
<!-- Node32&#45;&gt;Node2 -->
<g id="edge42" class="edge">
<title>Node32&#45;&gt;Node2</title>
<path fill="none" stroke="#191970" d="M1842.3647,-188.6708C1824.7733,-199.6817 1791.6017,-218.2466 1767.0504,-230.9209"/>
<polygon fill="#191970" stroke="#191970" points="1765.4429,-227.8117 1758.1133,-235.462 1768.614,-234.0523 1765.4429,-227.8117"/>
</g>
<!-- Node32&#45;&gt;Node4 -->
<g id="edge34" class="edge">
<title>Node32&#45;&gt;Node4</title>
<path fill="none" stroke="#191970" d="M1858.3158,-170.4761C1867.3077,-151.6749 1888.2046,-107.9813 1900.1693,-82.9642"/>
<polygon fill="#191970" stroke="#191970" points="1903.3944,-84.3328 1904.5515,-73.8014 1897.0794,-81.3126 1903.3944,-84.3328"/>
</g>
<!-- Node32&#45;&gt;Node12 -->
<g id="edge35" class="edge">
<title>Node32&#45;&gt;Node12</title>
<path fill="none" stroke="#191970" d="M1867.0615,-170.3873C1880.7793,-160.8168 1902.5671,-145.6159 1918.7622,-134.3171"/>
<polygon fill="#191970" stroke="#191970" points="1920.8987,-137.0942 1927.0973,-128.5019 1916.8934,-131.3533 1920.8987,-137.0942"/>
</g>
<!-- Node32&#45;&gt;Node34 -->
<g id="edge36" class="edge">
<title>Node32&#45;&gt;Node34</title>
<path fill="none" stroke="#191970" d="M1783.4614,-173.4998C1746.9347,-170.5705 1701.5975,-167.2103 1661,-165 1158.5822,-137.6466 549.7154,-124.1287 368.3902,-120.5145"/>
<polygon fill="#191970" stroke="#191970" points="368.3848,-117.0138 358.3175,-120.3152 368.2463,-124.0124 368.3848,-117.0138"/>
</g>
<!-- Node34&#45;&gt;Node1 -->
<g id="edge37" class="edge">
<title>Node34&#45;&gt;Node1</title>
<path fill="none" stroke="#191970" d="M320.4441,-110.288C329.8184,-95.4327 350.573,-66.673 377,-55 455.7258,-20.2264 1799.4641,-11.071 2042.4817,-9.6967"/>
<polygon fill="#191970" stroke="#191970" points="2042.6021,-13.1962 2052.5824,-9.6405 2042.563,-6.1963 2042.6021,-13.1962"/>
</g>
<!-- Node34&#45;&gt;Node2 -->
<g id="edge38" class="edge">
<title>Node34&#45;&gt;Node2</title>
<path fill="none" stroke="#191970" d="M338.3246,-128.57C382.0067,-145.0756 479.4687,-179.6399 565,-194 779.1464,-229.9537 1449.7166,-241.0495 1667.7532,-243.7532"/>
<polygon fill="#191970" stroke="#191970" points="1667.7482,-247.2533 1677.7902,-243.8756 1667.8337,-240.2538 1667.7482,-247.2533"/>
</g>
<!-- Node34&#45;&gt;Node4 -->
<g id="edge40" class="edge">
<title>Node34&#45;&gt;Node4</title>
<path fill="none" stroke="#191970" d="M358.4623,-118.0004C587.4896,-110.0979 1652.0263,-73.3667 1869.9596,-65.8471"/>
<polygon fill="#191970" stroke="#191970" points="1870.3917,-69.3343 1880.265,-65.4915 1870.1502,-62.3385 1870.3917,-69.3343"/>
</g>
<!-- Node35 -->
<g id="node24" class="node">
<title>Node35</title>
<g id="a_node24"><a xlink:title=" ">
<polygon fill="#ffffff" stroke="#bfbfbf" points="103.8032,-55.5 103.8032,-73.5 218.1968,-73.5 218.1968,-55.5 103.8032,-55.5"/>
<text text-anchor="middle" x="161" y="-61.5" font-family="FreeSans" font-size="10.00" fill="#000000">boost/lexical_cast.hpp</text>
</a>
</g>
</g>
<!-- Node34&#45;&gt;Node35 -->
<g id="edge39" class="edge">
<title>Node34&#45;&gt;Node35</title>
<path fill="none" stroke="#191970" d="M289.57,-110.4179C263.9693,-101.2748 224.2929,-87.1046 195.7873,-76.924"/>
<polygon fill="#191970" stroke="#191970" points="196.8064,-73.5715 186.2118,-73.5042 194.452,-80.1637 196.8064,-73.5715"/>
</g>
<!-- Node36 -->
<g id="node25" class="node">
<title>Node36</title>
<g id="a_node25"><a xlink:href="Color_8ih_source.html" target="_top" xlink:title=" ">
<polygon fill="#ffffff" stroke="#000000" points="236.5938,-55.5 236.5938,-73.5 325.4063,-73.5 325.4063,-55.5 236.5938,-55.5"/>
<text text-anchor="middle" x="281" y="-61.5" font-family="FreeSans" font-size="10.00" fill="#000000">DGtal/io/Color.ih</text>
</a>
</g>
</g>
<!-- Node34&#45;&gt;Node36 -->
<g id="edge41" class="edge">
<title>Node34&#45;&gt;Node36</title>
<path fill="none" stroke="#191970" d="M309.3856,-110.4179C304.6891,-102.8207 297.8471,-91.7527 292.0572,-82.3866"/>
<polygon fill="#191970" stroke="#191970" points="294.9717,-80.445 286.7364,-73.7795 289.0176,-84.1258 294.9717,-80.445"/>
</g>
<!-- Node40&#45;&gt;Node1 -->
<g id="edge44" class="edge">
<title>Node40&#45;&gt;Node1</title>
<path fill="none" stroke="#191970" d="M2128.2294,-110.2151C2123.0446,-97.5925 2113.2964,-74.3699 2104,-55 2099.6593,-45.9558 2094.5072,-36.0884 2090.0914,-27.8615"/>
<polygon fill="#191970" stroke="#191970" points="2093.0219,-25.9236 2085.1743,-18.8056 2086.8702,-29.2638 2093.0219,-25.9236"/>
</g>
<!-- Node41&#45;&gt;Node1 -->
<g id="edge46" class="edge">
<title>Node41&#45;&gt;Node1</title>
<path fill="none" stroke="#191970" d="M2596.5706,-170.4877C2563.7133,-147.1549 2471.0934,-84.5384 2384,-55 2291.463,-23.6153 2175.7795,-13.8494 2117.4006,-10.8325"/>
<polygon fill="#191970" stroke="#191970" points="2117.3412,-7.3257 2107.1854,-10.344 2117.0067,-14.3178 2117.3412,-7.3257"/>
</g>
<!-- Node42&#45;&gt;Node1 -->
<g id="edge48" class="edge">
<title>Node42&#45;&gt;Node1</title>
<path fill="none" stroke="#191970" d="M450.8832,-481.4674C310.0768,-463.9386 0,-420.1545 0,-374.5 0,-374.5 0,-374.5 0,-119.5 0,-75.1974 34.5878,-70.7399 76,-55 171.4041,-18.739 1775.2206,-10.7257 2042.4077,-9.6403"/>
<polygon fill="#191970" stroke="#191970" points="2042.7545,-13.139 2052.7404,-9.5991 2042.7265,-6.1391 2042.7545,-13.139"/>
</g>
<!-- Node42&#45;&gt;Node2 -->
<g id="edge51" class="edge">
<title>Node42&#45;&gt;Node2</title>
<path fill="none" stroke="#191970" d="M587.1972,-486.9809C806.2305,-478.3366 1482.1226,-447.1571 1560,-389 1596.1057,-362.0371 1565.5726,-326.2903 1598,-295 1618.0694,-275.6344 1646.1328,-263.6108 1671.7931,-256.1853"/>
<polygon fill="#191970" stroke="#191970" points="1672.7515,-259.5519 1681.4884,-253.5588 1670.9211,-252.7955 1672.7515,-259.5519"/>
</g>
<!-- Node42&#45;&gt;Node34 -->
<g id="edge55" class="edge">
<title>Node42&#45;&gt;Node34</title>
<path fill="none" stroke="#191970" d="M493.4309,-480.4157C455.3075,-465.0409 388,-430.0329 388,-374.5 388,-374.5 388,-374.5 388,-309.5 388,-241.9594 347.3076,-169.3604 326.6857,-136.9054"/>
<polygon fill="#191970" stroke="#191970" points="329.6114,-134.9844 321.2239,-128.5113 323.7441,-138.8021 329.6114,-134.9844"/>
</g>
<!-- Node43 -->
<g id="node29" class="node">
<title>Node43</title>
<g id="a_node29"><a xlink:href="Board_8h_source.html" target="_top" xlink:title=" ">
<polygon fill="#ffffff" stroke="#ff0000" points="279.7563,-235.5 279.7563,-253.5 360.2437,-253.5 360.2437,-235.5 279.7563,-235.5"/>
<text text-anchor="middle" x="320" y="-241.5" font-family="FreeSans" font-size="10.00" fill="#000000">Board/Board.h</text>
</a>
</g>
</g>
<!-- Node42&#45;&gt;Node43 -->
<g id="edge49" class="edge">
<title>Node42&#45;&gt;Node43</title>
<path fill="none" stroke="#191970" d="M450.9465,-480.5035C424.3695,-474.0565 395.2434,-462.9911 374,-444 330.5334,-405.1418 333.3956,-380.9707 321,-324 316.6549,-304.0299 317.0015,-280.5664 318.0661,-264.3306"/>
<polygon fill="#191970" stroke="#191970" points="321.589,-264.1901 318.9114,-253.9392 314.6121,-263.6224 321.589,-264.1901"/>
</g>
<!-- Node63 -->
<g id="node30" class="node">
<title>Node63</title>
<g id="a_node30"><a xlink:href="CountedPtr_8h_source.html" target="_top" xlink:title=" ">
<polygon fill="#ffffff" stroke="#ff0000" points="454.4092,-300.5 454.4092,-318.5 581.5908,-318.5 581.5908,-300.5 454.4092,-300.5"/>
<text text-anchor="middle" x="518" y="-306.5" font-family="FreeSans" font-size="10.00" fill="#000000">DGtal/base/CountedPtr.h</text>
</a>
</g>
</g>
<!-- Node42&#45;&gt;Node63 -->
<g id="edge52" class="edge">
<title>Node42&#45;&gt;Node63</title>
<path fill="none" stroke="#191970" d="M491.3186,-480.3671C474.6742,-473.2793 454.8614,-461.6398 445,-444 426.7826,-411.4132 427.6675,-393.066 445,-360 453.5911,-343.6104 470.1837,-331.4854 485.3814,-323.2303"/>
<polygon fill="#191970" stroke="#191970" points="487.2301,-326.2178 494.5799,-318.5868 484.0755,-319.9688 487.2301,-326.2178"/>
</g>
<!-- Node65 -->
<g id="node31" class="node">
<title>Node65</title>
<g id="a_node31"><a xlink:href="Display2DFactory_8h_source.html" target="_top" xlink:title="Header file for module Display2DFactory.">
<polygon fill="#ffffff" stroke="#ff0000" points="759.2925,-425.5 759.2925,-443.5 900.7075,-443.5 900.7075,-425.5 759.2925,-425.5"/>
<text text-anchor="middle" x="830" y="-431.5" font-family="FreeSans" font-size="10.00" fill="#000000">DGtal/io/Display2DFactory.h</text>
</a>
</g>
</g>
<!-- Node42&#45;&gt;Node65 -->
<g id="edge56" class="edge">
<title>Node42&#45;&gt;Node65</title>
<path fill="none" stroke="#191970" d="M570.0071,-480.4795C624.4658,-470.8485 710.7492,-455.5894 768.8227,-445.3191"/>
<polygon fill="#191970" stroke="#191970" points="769.7274,-448.7135 778.9651,-443.5255 768.5083,-441.8205 769.7274,-448.7135"/>
</g>
<!-- Node311 -->
<g id="node37" class="node">
<title>Node311</title>
<g id="a_node37"><a xlink:href="Style2DFactory_8h_source.html" target="_top" xlink:title="Header file for module Style2DFactory.">
<polygon fill="#ffffff" stroke="#ff0000" points="453.5708,-425.5 453.5708,-443.5 584.4292,-443.5 584.4292,-425.5 453.5708,-425.5"/>
<text text-anchor="middle" x="519" y="-431.5" font-family="FreeSans" font-size="10.00" fill="#000000">DGtal/io/Style2DFactory.h</text>
</a>
</g>
</g>
<!-- Node42&#45;&gt;Node311 -->
<g id="edge72" class="edge">
<title>Node42&#45;&gt;Node311</title>
<path fill="none" stroke="#191970" d="M519,-480.4179C519,-473.2164 519,-462.8962 519,-453.8632"/>
<polygon fill="#191970" stroke="#191970" points="522.5001,-453.7794 519,-443.7795 515.5001,-453.7795 522.5001,-453.7794"/>
</g>
<!-- Node317 -->
<g id="node40" class="node">
<title>Node317</title>
<g id="a_node40"><a xlink:href="Board2D_8ih_source.html" target="_top" xlink:title=" ">
<polygon fill="#ffffff" stroke="#000000" points="602.8574,-425.5 602.8574,-443.5 741.1426,-443.5 741.1426,-425.5 602.8574,-425.5"/>
<text text-anchor="middle" x="672" y="-431.5" font-family="FreeSans" font-size="10.00" fill="#000000">DGtal/io/boards/Board2D.ih</text>
</a>
</g>
</g>
<!-- Node42&#45;&gt;Node317 -->
<g id="edge81" class="edge">
<title>Node42&#45;&gt;Node317</title>
<path fill="none" stroke="#191970" d="M544.2648,-480.4179C569.6993,-471.2748 609.1181,-457.1046 637.4386,-446.924"/>
<polygon fill="#191970" stroke="#191970" points="638.7255,-450.1808 646.9519,-443.5042 636.3575,-443.5935 638.7255,-450.1808"/>
</g>
<!-- Node43&#45;&gt;Node34 -->
<g id="edge50" class="edge">
<title>Node43&#45;&gt;Node34</title>
<path fill="none" stroke="#191970" d="M319.6242,-235.1047C318.8094,-214.7357 316.8662,-166.1541 315.7759,-138.8965"/>
<polygon fill="#191970" stroke="#191970" points="319.2636,-138.5167 315.3666,-128.6646 312.2692,-138.7966 319.2636,-138.5167"/>
</g>
<!-- Node63&#45;&gt;Node1 -->
<g id="edge53" class="edge">
<title>Node63&#45;&gt;Node1</title>
<path fill="none" stroke="#191970" d="M511.2875,-300.249C497.026,-279.6529 465,-228.0024 465,-179.5 465,-179.5 465,-179.5 465,-119.5 465,-88.9131 464.1342,-72.8114 489,-55 521.616,-31.6371 1805.1425,-13.2082 2042.4696,-9.9968"/>
<polygon fill="#191970" stroke="#191970" points="2042.7106,-13.494 2052.6626,-9.8596 2042.6163,-6.4946 2042.7106,-13.494"/>
</g>
<!-- Node63&#45;&gt;Node2 -->
<g id="edge54" class="edge">
<title>Node63&#45;&gt;Node2</title>
<path fill="none" stroke="#191970" d="M560.7506,-300.4415C572.156,-298.3299 584.5052,-296.3163 596,-295 805.4495,-271.0156 1454.1847,-252.0331 1667.923,-246.2911"/>
<polygon fill="#191970" stroke="#191970" points="1668.1676,-249.7859 1678.0704,-246.0197 1667.9804,-242.7884 1668.1676,-249.7859"/>
</g>
<!-- Node65&#45;&gt;Node2 -->
<g id="edge57" class="edge">
<title>Node65&#45;&gt;Node2</title>
<path fill="none" stroke="#191970" d="M873.1363,-425.4637C1022.879,-394.0954 1520.017,-289.954 1684.0078,-255.6009"/>
<polygon fill="#191970" stroke="#191970" points="1684.7941,-259.0122 1693.864,-253.5362 1683.3588,-252.161 1684.7941,-259.0122"/>
</g>
<!-- Node220 -->
<g id="node32" class="node">
<title>Node220</title>
<g id="a_node32"><a xlink:href="HyperRectDomain_8h_source.html" target="_top" xlink:title=" ">
<polygon fill="#ffffff" stroke="#ff0000" points="1438.9238,-360.5 1438.9238,-388.5 1551.0762,-388.5 1551.0762,-360.5 1438.9238,-360.5"/>
<text text-anchor="start" x="1446.9238" y="-376.5" font-family="FreeSans" font-size="10.00" fill="#000000">DGtal/kernel/domains</text>
<text text-anchor="middle" x="1495" y="-366.5" font-family="FreeSans" font-size="10.00" fill="#000000">/HyperRectDomain.h</text>
</a>
</g>
</g>
<!-- Node65&#45;&gt;Node220 -->
<g id="edge58" class="edge">
<title>Node65&#45;&gt;Node220</title>
<path fill="none" stroke="#191970" d="M900.8516,-428.1074C1030.0812,-416.4476 1302.3357,-391.8832 1428.3737,-380.5114"/>
<polygon fill="#191970" stroke="#191970" points="1429.0053,-383.9687 1438.6503,-379.5842 1428.3762,-376.997 1429.0053,-383.9687"/>
</g>
<!-- Node189 -->
<g id="node35" class="node">
<title>Node189</title>
<g id="a_node35"><a xlink:href="KhalimskySpaceND_8h_source.html" target="_top" xlink:title=" ">
<polygon fill="#ffffff" stroke="#ff0000" points="453.7539,-360.5 453.7539,-388.5 584.2461,-388.5 584.2461,-360.5 453.7539,-360.5"/>
<text text-anchor="start" x="461.7539" y="-376.5" font-family="FreeSans" font-size="10.00" fill="#000000">DGtal/topology/Khalimsky</text>
<text text-anchor="middle" x="519" y="-366.5" font-family="FreeSans" font-size="10.00" fill="#000000">SpaceND.h</text>
</a>
</g>
</g>
<!-- Node65&#45;&gt;Node189 -->
<g id="edge68" class="edge">
<title>Node65&#45;&gt;Node189</title>
<path fill="none" stroke="#191970" d="M782.7749,-425.4886C737.084,-416.7575 665.5914,-403.0637 594.407,-389.2691"/>
<polygon fill="#191970" stroke="#191970" points="594.8508,-385.7901 584.3673,-387.3225 593.5183,-392.6621 594.8508,-385.7901"/>
</g>
<!-- Node220&#45;&gt;Node1 -->
<g id="edge59" class="edge">
<title>Node220&#45;&gt;Node1</title>
<path fill="none" stroke="#191970" d="M1438.7545,-372.0331C1226.7166,-361.5754 492.5009,-314.344 588,-165 619.3888,-115.9133 650.6589,-124.8474 707,-110 969.836,-40.7359 1849.4577,-15.2171 2042.3859,-10.3867"/>
<polygon fill="#191970" stroke="#191970" points="2042.6725,-13.8808 2052.5829,-10.1348 2042.4995,-6.8829 2042.6725,-13.8808"/>
</g>
<!-- Node220&#45;&gt;Node2 -->
<g id="edge60" class="edge">
<title>Node220&#45;&gt;Node2</title>
<path fill="none" stroke="#191970" d="M1503.8417,-360.2388C1515.6333,-342.3902 1538.1677,-312.0936 1565,-295 1595.9233,-275.3003 1634.8121,-263.037 1667.7858,-255.5379"/>
<polygon fill="#191970" stroke="#191970" points="1668.784,-258.9027 1677.8137,-253.3605 1667.2987,-252.0621 1668.784,-258.9027"/>
</g>
<!-- Node78 -->
<g id="node33" class="node">
<title>Node78</title>
<g id="a_node33"><a xlink:href="CDomain_8h_source.html" target="_top" xlink:title=" ">
<polygon fill="#ffffff" stroke="#ff0000" points="2066.9238,-295.5 2066.9238,-323.5 2179.0762,-323.5 2179.0762,-295.5 2066.9238,-295.5"/>
<text text-anchor="start" x="2074.9238" y="-311.5" font-family="FreeSans" font-size="10.00" fill="#000000">DGtal/kernel/domains</text>
<text text-anchor="middle" x="2123" y="-301.5" font-family="FreeSans" font-size="10.00" fill="#000000">/CDomain.h</text>
</a>
</g>
</g>
<!-- Node220&#45;&gt;Node78 -->
<g id="edge61" class="edge">
<title>Node220&#45;&gt;Node78</title>
<path fill="none" stroke="#191970" d="M1551.4144,-369.8926C1647.6658,-361.8485 1849.7315,-344.1641 2020,-324 2031.8386,-322.598 2044.4208,-320.9549 2056.5759,-319.2882"/>
<polygon fill="#191970" stroke="#191970" points="2057.2367,-322.7301 2066.66,-317.8874 2056.2735,-315.7966 2057.2367,-322.7301"/>
</g>
<!-- Node90 -->
<g id="node34" class="node">
<title>Node90</title>
<g id="a_node34"><a xlink:href="NumberTraits_8h_source.html" target="_top" xlink:title=" ">
<polygon fill="#ffffff" stroke="#ff0000" points="1606.5527,-300.5 1606.5527,-318.5 1749.4473,-318.5 1749.4473,-300.5 1606.5527,-300.5"/>
<text text-anchor="middle" x="1678" y="-306.5" font-family="FreeSans" font-size="10.00" fill="#000000">DGtal/kernel/NumberTraits.h</text>
</a>
</g>
</g>
<!-- Node220&#45;&gt;Node90 -->
<g id="edge66" class="edge">
<title>Node220&#45;&gt;Node90</title>
<path fill="none" stroke="#191970" d="M1534.7083,-360.396C1566.959,-348.9408 1612.0093,-332.9393 1642.9401,-321.953"/>
<polygon fill="#191970" stroke="#191970" points="1644.2006,-325.2196 1652.4523,-318.5743 1641.8576,-318.6233 1644.2006,-325.2196"/>
</g>
<!-- Node78&#45;&gt;Node1 -->
<g id="edge62" class="edge">
<title>Node78&#45;&gt;Node1</title>
<path fill="none" stroke="#191970" d="M2151.3338,-295.422C2171.5991,-285.3312 2199.5094,-271.3896 2224,-259 2286.6616,-227.3001 2372.7162,-231.7815 2351,-165 2332.3059,-107.5122 2321.3007,-88.5285 2271,-55 2246.0944,-38.3989 2165.4769,-23.1626 2117.3037,-15.2308"/>
<polygon fill="#191970" stroke="#191970" points="2117.6891,-11.7478 2107.2584,-13.6052 2116.5708,-18.6579 2117.6891,-11.7478"/>
</g>
<!-- Node78&#45;&gt;Node2 -->
<g id="edge64" class="edge">
<title>Node78&#45;&gt;Node2</title>
<path fill="none" stroke="#191970" d="M2066.8803,-297.6395C2062.19,-296.72 2057.5167,-295.8283 2053,-295 1968.1908,-279.4479 1870.0727,-264.1923 1805.952,-254.5896"/>
<polygon fill="#191970" stroke="#191970" points="1806.3675,-251.1129 1795.9602,-253.0977 1805.3337,-258.0361 1806.3675,-251.1129"/>
</g>
<!-- Node78&#45;&gt;Node6 -->
<g id="edge63" class="edge">
<title>Node78&#45;&gt;Node6</title>
<path fill="none" stroke="#191970" d="M2179.2515,-297.3084C2242.745,-283.4651 2338.2744,-262.3556 2346,-259 2366.0204,-250.3041 2414.6506,-215.3526 2442.5052,-194.8011"/>
<polygon fill="#191970" stroke="#191970" points="2444.8062,-197.4523 2450.7563,-188.6861 2440.6382,-191.8284 2444.8062,-197.4523"/>
</g>
<!-- Node78&#45;&gt;Node28 -->
<g id="edge65" class="edge">
<title>Node78&#45;&gt;Node28</title>
<path fill="none" stroke="#191970" d="M2144.7797,-295.3205C2159.1757,-285.6348 2178.2281,-272.2079 2194,-259 2218.147,-238.7786 2243.7186,-212.8152 2259.5218,-196.1639"/>
<polygon fill="#191970" stroke="#191970" points="2262.1432,-198.4854 2266.4459,-188.8036 2257.0447,-193.6889 2262.1432,-198.4854"/>
</g>
<!-- Node90&#45;&gt;Node2 -->
<g id="edge67" class="edge">
<title>Node90&#45;&gt;Node2</title>
<path fill="none" stroke="#191970" d="M1686.2037,-300.462C1695.3465,-290.3895 1710.3329,-273.879 1721.6639,-261.3957"/>
<polygon fill="#191970" stroke="#191970" points="1724.3544,-263.6391 1728.4839,-253.8821 1719.1712,-258.9343 1724.3544,-263.6391"/>
</g>
<!-- Node189&#45;&gt;Node1 -->
<g id="edge69" class="edge">
<title>Node189&#45;&gt;Node1</title>
<path fill="none" stroke="#191970" d="M485.146,-360.4444C469.9644,-352.2256 453.5724,-340.2284 445,-324 388.9549,-217.9011 372.4489,-127.581 468,-55 500.3868,-30.3989 1802.7685,-12.9629 2042.3384,-9.9605"/>
<polygon fill="#191970" stroke="#191970" points="2042.6673,-13.4568 2052.6229,-9.8324 2042.58,-6.4573 2042.6673,-13.4568"/>
</g>
<!-- Node189&#45;&gt;Node2 -->
<g id="edge71" class="edge">
<title>Node189&#45;&gt;Node2</title>
<path fill="none" stroke="#191970" d="M546.3509,-360.4779C584.5312,-341.6839 656.4994,-309.063 722,-295 903.0151,-256.136 1469.3964,-247.0538 1667.6378,-245.0425"/>
<polygon fill="#191970" stroke="#191970" points="1667.9561,-248.5397 1677.9211,-244.9412 1667.8871,-241.54 1667.9561,-248.5397"/>
</g>
<!-- Node189&#45;&gt;Node67 -->
<g id="edge70" class="edge">
<title>Node189&#45;&gt;Node67</title>
<path fill="none" stroke="#191970" d="M481.2446,-360.396C447.2691,-347.704 398.3536,-329.4309 369.3112,-318.5818"/>
<polygon fill="#191970" stroke="#191970" points="370.517,-315.296 359.9245,-315.0752 368.0674,-321.8534 370.517,-315.296"/>
</g>
<!-- Node311&#45;&gt;Node220 -->
<g id="edge73" class="edge">
<title>Node311&#45;&gt;Node220</title>
<path fill="none" stroke="#191970" d="M584.8217,-425.898C587.9223,-425.576 590.9938,-425.2743 594,-425 905.3944,-396.5868 1278.8915,-381.7822 1428.3851,-376.6369"/>
<polygon fill="#191970" stroke="#191970" points="1428.8828,-380.1221 1438.7576,-376.2831 1428.6441,-373.1262 1428.8828,-380.1221"/>
</g>
<!-- Node311&#45;&gt;Node189 -->
<g id="edge74" class="edge">
<title>Node311&#45;&gt;Node189</title>
<path fill="none" stroke="#191970" d="M519,-425.3873C519,-418.3369 519,-408.2311 519,-398.8806"/>
<polygon fill="#191970" stroke="#191970" points="522.5001,-398.8476 519,-388.8477 515.5001,-398.8477 522.5001,-398.8476"/>
</g>
<!-- Node311&#45;&gt;Node314 -->
<g id="edge75" class="edge">
<title>Node311&#45;&gt;Node314</title>
<path fill="none" stroke="#191970" d="M496.3831,-425.4096C445.2243,-404.8474 319.8424,-354.4527 252.4954,-327.384"/>
<polygon fill="#191970" stroke="#191970" points="253.5797,-324.0477 242.9958,-323.5658 250.9691,-330.5427 253.5797,-324.0477"/>
</g>
<!-- Node314&#45;&gt;Node1 -->
<g id="edge76" class="edge">
<title>Node314&#45;&gt;Node1</title>
<path fill="none" stroke="#191970" d="M176.3827,-295.4276C137.3317,-275.6395 76,-235.627 76,-179.5 76,-179.5 76,-179.5 76,-119.5 76,-89.6154 71.275,-73.1718 95,-55 135.1702,-24.2322 1772.3673,-11.6227 2042.4573,-9.7501"/>
<polygon fill="#191970" stroke="#191970" points="2042.5675,-13.2495 2052.5432,-9.6808 2042.5193,-6.2497 2042.5675,-13.2495"/>
</g>
<!-- Node314&#45;&gt;Node2 -->
<g id="edge77" class="edge">
<title>Node314&#45;&gt;Node2</title>
<path fill="none" stroke="#191970" d="M267.1248,-300.8716C284.452,-298.6253 303.4554,-296.4354 321,-295 587.3218,-273.2104 1421.4289,-252.0338 1667.8122,-246.1228"/>
<polygon fill="#191970" stroke="#191970" points="1668.1484,-249.6159 1678.0618,-245.8776 1667.9809,-242.6179 1668.1484,-249.6159"/>
</g>
<!-- Node314&#45;&gt;Node34 -->
<g id="edge79" class="edge">
<title>Node314&#45;&gt;Node34</title>
<path fill="none" stroke="#191970" d="M173.3097,-295.3424C158.0362,-287.1543 141.6289,-275.2127 133,-259 126.9444,-247.6222 126.679,-241.2325 133,-230 162.6625,-177.289 228.7585,-146.8175 272.5964,-131.69"/>
<polygon fill="#191970" stroke="#191970" points="273.7508,-134.9947 282.1355,-128.5181 271.542,-128.3523 273.7508,-134.9947"/>
</g>
<!-- Node314&#45;&gt;Node43 -->
<g id="edge78" class="edge">
<title>Node314&#45;&gt;Node43</title>
<path fill="none" stroke="#191970" d="M232.3023,-295.396C251.0151,-284.5359 276.7688,-269.5895 295.5248,-258.7044"/>
<polygon fill="#191970" stroke="#191970" points="297.4721,-261.621 304.3643,-253.5743 293.9584,-255.5667 297.4721,-261.621"/>
</g>
<!-- Node315 -->
<g id="node39" class="node">
<title>Node315</title>
<g id="a_node39"><a xlink:href="HueShadeColorMap_8ih_source.html" target="_top" xlink:title=" ">
<polygon fill="#ffffff" stroke="#000000" points="142.0249,-230.5 142.0249,-258.5 261.9751,-258.5 261.9751,-230.5 142.0249,-230.5"/>
<text text-anchor="start" x="150.0249" y="-246.5" font-family="FreeSans" font-size="10.00" fill="#000000">DGtal/io/colormaps</text>
<text text-anchor="middle" x="202" y="-236.5" font-family="FreeSans" font-size="10.00" fill="#000000">/HueShadeColorMap.ih</text>
</a>
</g>
</g>
<!-- Node314&#45;&gt;Node315 -->
<g id="edge80" class="edge">
<title>Node314&#45;&gt;Node315</title>
<path fill="none" stroke="#191970" d="M206.6981,-295.396C205.9747,-287.5597 205.055,-277.5958 204.2214,-268.5653"/>
<polygon fill="#191970" stroke="#191970" points="207.7038,-268.2124 203.2994,-258.5765 200.7334,-268.8559 207.7038,-268.2124"/>
</g>
<!-- Node318&#45;&gt;Node1 -->
<g id="edge85" class="edge">
<title>Node318&#45;&gt;Node1</title>
<path fill="none" stroke="#191970" d="M2034.0323,-431.8357C2158.0555,-426.0386 2435.5996,-411.0096 2528,-389 2602.6662,-371.2146 2623.4096,-365.466 2688,-324 2723.852,-300.9836 2814,-222.1043 2814,-179.5 2814,-179.5 2814,-179.5 2814,-119.5 2814,-61.6722 2756.3145,-71.8628 2701,-55 2590.9505,-21.451 2234.5874,-12.2359 2117.5937,-10.0827"/>
<polygon fill="#191970" stroke="#191970" points="2117.4118,-6.5791 2107.3513,-9.9012 2117.2876,-13.578 2117.4118,-6.5791"/>
</g>
<!-- Node318&#45;&gt;Node2 -->
<g id="edge86" class="edge">
<title>Node318&#45;&gt;Node2</title>
<path fill="none" stroke="#191970" d="M1961.4208,-425.3898C1937.5185,-406.5632 1881.017,-361.9522 1834,-324 1806.6965,-301.9605 1775.3298,-276.1652 1755.8351,-260.0763"/>
<polygon fill="#191970" stroke="#191970" points="1757.9511,-257.2845 1748.0121,-253.6149 1753.4934,-262.6817 1757.9511,-257.2845"/>
</g>
<!-- Node318&#45;&gt;Node220 -->
<g id="edge89" class="edge">
<title>Node318&#45;&gt;Node220</title>
<path fill="none" stroke="#191970" d="M1911.9755,-426.84C1821.9741,-415.5428 1654.2907,-394.4946 1561.3384,-382.827"/>
<polygon fill="#191970" stroke="#191970" points="1561.566,-379.3282 1551.2079,-381.5554 1560.6941,-386.2737 1561.566,-379.3282"/>
</g>
<!-- Node318&#45;&gt;Node78 -->
<g id="edge88" class="edge">
<title>Node318&#45;&gt;Node78</title>
<path fill="none" stroke="#191970" d="M1979.2794,-425.3967C1989.9047,-410.4486 2012.6615,-380.3347 2037,-360 2051.4394,-347.9359 2069.1169,-337.0142 2084.6815,-328.4388"/>
<polygon fill="#191970" stroke="#191970" points="2086.4071,-331.4849 2093.561,-323.67 2083.0951,-325.318 2086.4071,-331.4849"/>
</g>
<!-- Node318&#45;&gt;Node90 -->
<g id="edge87" class="edge">
<title>Node318&#45;&gt;Node90</title>
<path fill="none" stroke="#191970" d="M1922.2872,-425.4739C1887.2624,-418.1947 1840.1281,-406.2957 1801,-389 1761.8196,-371.6812 1720.9367,-342.7255 1697.5617,-324.9506"/>
<polygon fill="#191970" stroke="#191970" points="1699.5563,-322.0689 1689.5002,-318.7332 1695.2812,-327.6119 1699.5563,-322.0689"/>
</g>
<!-- Node318&#45;&gt;Node189 -->
<g id="edge90" class="edge">
<title>Node318&#45;&gt;Node189</title>
<path fill="none" stroke="#191970" d="M1911.9906,-433.7918C1683.0228,-430.934 874.1829,-418.9875 594.4092,-389.0015"/>
<polygon fill="#191970" stroke="#191970" points="594.6056,-385.5019 584.2815,-387.8815 593.8362,-392.4595 594.6056,-385.5019"/>
</g>
<!-- Node319 -->
<g id="node42" class="node">
<title>Node319</title>
<g id="a_node42"><a xlink:href="SurfelAdjacency_8h_source.html" target="_top" xlink:title=" ">
<polygon fill="#ffffff" stroke="#ff0000" points="2234.6055,-300.5 2234.6055,-318.5 2399.3945,-318.5 2399.3945,-300.5 2234.6055,-300.5"/>
<text text-anchor="middle" x="2317" y="-306.5" font-family="FreeSans" font-size="10.00" fill="#000000">DGtal/topology/SurfelAdjacency.h</text>
</a>
</g>
</g>
<!-- Node318&#45;&gt;Node319 -->
<g id="edge91" class="edge">
<title>Node318&#45;&gt;Node319</title>
<path fill="none" stroke="#191970" d="M2033.8588,-430.2054C2082.8596,-425.0204 2152.6157,-413.6746 2209,-389 2244.9931,-373.2489 2280.4623,-343.7192 2300.4586,-325.4203"/>
<polygon fill="#191970" stroke="#191970" points="2302.8834,-327.9448 2307.8035,-318.5616 2298.1059,-322.8285 2302.8834,-327.9448"/>
</g>
<!-- Node321 -->
<g id="node43" class="node">
<title>Node321</title>
<g id="a_node43"><a xlink:href="Surfaces_8h_source.html" target="_top" xlink:title=" ">
<polygon fill="#ffffff" stroke="#ff0000" points="2368.1382,-360.5 2368.1382,-388.5 2485.8618,-388.5 2485.8618,-360.5 2368.1382,-360.5"/>
<text text-anchor="start" x="2376.1382" y="-376.5" font-family="FreeSans" font-size="10.00" fill="#000000">DGtal/topology/helpers</text>
<text text-anchor="middle" x="2427" y="-366.5" font-family="FreeSans" font-size="10.00" fill="#000000">/Surfaces.h</text>
</a>
</g>
</g>
<!-- Node318&#45;&gt;Node321 -->
<g id="edge94" class="edge">
<title>Node318&#45;&gt;Node321</title>
<path fill="none" stroke="#191970" d="M2034.2285,-426.4081C2118.3922,-415.2852 2269.4052,-395.3275 2357.6426,-383.6662"/>
<polygon fill="#191970" stroke="#191970" points="2358.3651,-387.1012 2367.8203,-382.3211 2357.4479,-380.1616 2358.3651,-387.1012"/>
</g>
<!-- Node325 -->
<g id="node44" class="node">
<title>Node325</title>
<g id="a_node44"><a xlink:href="CDigitalOrientedShape_8h_source.html" target="_top" xlink:title=" ">
<polygon fill="#ffffff" stroke="#ff0000" points="2492.6357,-295.5 2492.6357,-323.5 2645.3643,-323.5 2645.3643,-295.5 2492.6357,-295.5"/>
<text text-anchor="start" x="2500.6357" y="-311.5" font-family="FreeSans" font-size="10.00" fill="#000000">DGtal/shapes/CDigitalOriented</text>
<text text-anchor="middle" x="2569" y="-301.5" font-family="FreeSans" font-size="10.00" fill="#000000">Shape.h</text>
</a>
</g>
</g>
<!-- Node318&#45;&gt;Node325 -->
<g id="edge99" class="edge">
<title>Node318&#45;&gt;Node325</title>
<path fill="none" stroke="#191970" d="M2034.0337,-431.6417C2162.9334,-425.2511 2454.4314,-408.8014 2495,-389 2520.7462,-376.4334 2541.9978,-350.7797 2555.0208,-332"/>
<polygon fill="#191970" stroke="#191970" points="2557.937,-333.9354 2560.5743,-323.674 2552.1136,-330.0511 2557.937,-333.9354"/>
</g>
<!-- Node326 -->
<g id="node45" class="node">
<title>Node326</title>
<g id="a_node45"><a xlink:href="CDigitalBoundedShape_8h_source.html" target="_top" xlink:title=" ">
<polygon fill="#ffffff" stroke="#ff0000" points="2045.7935,-360.5 2045.7935,-388.5 2200.2065,-388.5 2200.2065,-360.5 2045.7935,-360.5"/>
<text text-anchor="start" x="2053.7935" y="-376.5" font-family="FreeSans" font-size="10.00" fill="#000000">DGtal/shapes/CDigitalBounded</text>
<text text-anchor="middle" x="2123" y="-366.5" font-family="FreeSans" font-size="10.00" fill="#000000">Shape.h</text>
</a>
</g>
</g>
<!-- Node318&#45;&gt;Node326 -->
<g id="edge102" class="edge">
<title>Node318&#45;&gt;Node326</title>
<path fill="none" stroke="#191970" d="M1995.7818,-425.3873C2017.7024,-416.619 2051.4378,-403.1249 2078.662,-392.2352"/>
<polygon fill="#191970" stroke="#191970" points="2080.0051,-395.4677 2087.9899,-388.504 2077.4053,-388.9683 2080.0051,-395.4677"/>
</g>
<!-- Node327 -->
<g id="node46" class="node">
<title>Node327</title>
<g id="a_node46"><a xlink:href="CEuclideanOrientedShape_8h_source.html" target="_top" xlink:title=" ">
<polygon fill="#ffffff" stroke="#ff0000" points="1842.5693,-295.5 1842.5693,-323.5 2011.4307,-323.5 2011.4307,-295.5 1842.5693,-295.5"/>
<text text-anchor="start" x="1850.5693" y="-311.5" font-family="FreeSans" font-size="10.00" fill="#000000">DGtal/shapes/CEuclideanOriented</text>
<text text-anchor="middle" x="1927" y="-301.5" font-family="FreeSans" font-size="10.00" fill="#000000">Shape.h</text>
</a>
</g>
</g>
<!-- Node318&#45;&gt;Node327 -->
<g id="edge107" class="edge">
<title>Node318&#45;&gt;Node327</title>
<path fill="none" stroke="#191970" d="M1969.5425,-425.1047C1962.4339,-405.7878 1945.988,-361.0978 1935.7526,-333.2844"/>
<polygon fill="#191970" stroke="#191970" points="1939.0298,-332.0551 1932.2915,-323.8791 1932.4605,-334.4726 1939.0298,-332.0551"/>
</g>
<!-- Node319&#45;&gt;Node1 -->
<g id="edge92" class="edge">
<title>Node319&#45;&gt;Node1</title>
<path fill="none" stroke="#191970" d="M2386.3584,-300.4362C2496.7285,-284.0487 2700,-244.9792 2700,-179.5 2700,-179.5 2700,-179.5 2700,-119.5 2700,-60.0281 2252.0215,-22.1816 2117.6522,-12.1673"/>
<polygon fill="#191970" stroke="#191970" points="2117.6708,-8.6593 2107.4406,-11.4151 2117.1564,-15.6404 2117.6708,-8.6593"/>
</g>
<!-- Node319&#45;&gt;Node2 -->
<g id="edge93" class="edge">
<title>Node319&#45;&gt;Node2</title>
<path fill="none" stroke="#191970" d="M2236.8327,-300.4836C2220.6657,-298.6668 2203.7894,-296.7714 2188,-295 2052.81,-279.8333 1894.8199,-262.1527 1806.2842,-252.2488"/>
<polygon fill="#191970" stroke="#191970" points="1806.4273,-248.743 1796.1002,-251.1096 1805.6491,-255.6996 1806.4273,-248.743"/>
</g>
<!-- Node321&#45;&gt;Node1 -->
<g id="edge95" class="edge">
<title>Node321&#45;&gt;Node1</title>
<path fill="none" stroke="#191970" d="M2486.1496,-370.4755C2533.938,-365.1443 2601.6241,-352.7595 2654,-324 2690.8374,-303.7727 2776,-221.5254 2776,-179.5 2776,-179.5 2776,-179.5 2776,-119.5 2776,-45.2947 2694.075,-72.6527 2622,-55 2525.9016,-31.4635 2223.9608,-15.972 2117.5603,-11.1255"/>
<polygon fill="#191970" stroke="#191970" points="2117.4533,-7.6172 2107.306,-10.6639 2117.1384,-14.6101 2117.4533,-7.6172"/>
</g>
<!-- Node321&#45;&gt;Node2 -->
<g id="edge96" class="edge">
<title>Node321&#45;&gt;Node2</title>
<path fill="none" stroke="#191970" d="M2428.1746,-360.4968C2428.8408,-342.3423 2426.9031,-311.1057 2408,-295 2362.9437,-256.6114 1968.6548,-247.3545 1806.3485,-245.1637"/>
<polygon fill="#191970" stroke="#191970" points="1806.0439,-241.6595 1795.9993,-245.0294 1805.953,-248.6589 1806.0439,-241.6595"/>
</g>
<!-- Node321&#45;&gt;Node41 -->
<g id="edge97" class="edge">
<title>Node321&#45;&gt;Node41</title>
<path fill="none" stroke="#191970" d="M2435.8801,-360.3571C2446.4671,-343.94 2465.1127,-316.3851 2484,-295 2518.2675,-256.2007 2564.1756,-216.4128 2589.7427,-195.1608"/>
<polygon fill="#191970" stroke="#191970" points="2592.0986,-197.7547 2597.5873,-188.6924 2587.6452,-192.3539 2592.0986,-197.7547"/>
</g>
<!-- Node321&#45;&gt;Node319 -->
<g id="edge98" class="edge">
<title>Node321&#45;&gt;Node319</title>
<path fill="none" stroke="#191970" d="M2403.1316,-360.396C2384.753,-349.5359 2359.4592,-334.5895 2341.0382,-323.7044"/>
<polygon fill="#191970" stroke="#191970" points="2342.7464,-320.6484 2332.3565,-318.5743 2339.1852,-326.6749 2342.7464,-320.6484"/>
</g>
<!-- Node325&#45;&gt;Node1 -->
<g id="edge100" class="edge">
<title>Node325&#45;&gt;Node1</title>
<path fill="none" stroke="#191970" d="M2616.9766,-295.379C2666.9404,-277.3666 2738,-240.9476 2738,-179.5 2738,-179.5 2738,-179.5 2738,-119.5 2738,-114.3399 2753.1943,-97.619 2571,-55 2484.7415,-34.8224 2217.0512,-17.5321 2117.6558,-11.6481"/>
<polygon fill="#191970" stroke="#191970" points="2117.6658,-8.1427 2107.4779,-11.0507 2117.2556,-15.1307 2117.6658,-8.1427"/>
</g>
<!-- Node325&#45;&gt;Node2 -->
<g id="edge101" class="edge">
<title>Node325&#45;&gt;Node2</title>
<path fill="none" stroke="#191970" d="M2492.5694,-300.3205C2475.604,-298.4284 2457.702,-296.5444 2441,-295 2208.6851,-273.5184 1932.5169,-256.0562 1806.2311,-248.5172"/>
<polygon fill="#191970" stroke="#191970" points="1806.1304,-245.0051 1795.9402,-247.905 1805.7147,-251.9927 1806.1304,-245.0051"/>
</g>
<!-- Node326&#45;&gt;Node1 -->
<g id="edge103" class="edge">
<title>Node326&#45;&gt;Node1</title>
<path fill="none" stroke="#191970" d="M2200.3884,-369.6574C2397.7212,-357.2904 2904.3227,-325.4137 2906,-324 2933.7784,-300.5881 2925,-280.8284 2925,-244.5 2925,-244.5 2925,-244.5 2925,-119.5 2925,-75.8714 2891.3868,-71.5035 2851,-55 2782.7337,-27.1039 2262.422,-13.5518 2117.4129,-10.2915"/>
<polygon fill="#191970" stroke="#191970" points="2117.3195,-6.7887 2107.2443,-10.066 2117.1643,-13.787 2117.3195,-6.7887"/>
</g>
<!-- Node326&#45;&gt;Node2 -->
<g id="edge105" class="edge">
<title>Node326&#45;&gt;Node2</title>
<path fill="none" stroke="#191970" d="M2104.8487,-360.4035C2075.6098,-337.7082 2021.2069,-295.5346 2020,-295 1982.6503,-278.4566 1877.3494,-262.4213 1806.2723,-253.0088"/>
<polygon fill="#191970" stroke="#191970" points="1806.416,-249.4978 1796.046,-251.6689 1805.5066,-256.4385 1806.416,-249.4978"/>
</g>
<!-- Node326&#45;&gt;Node6 -->
<g id="edge104" class="edge">
<title>Node326&#45;&gt;Node6</title>
<path fill="none" stroke="#191970" d="M2141.1542,-360.4099C2170.3974,-337.7239 2224.8065,-295.5639 2226,-295 2290.7282,-264.4189 2320.307,-293.562 2383,-259 2411.2933,-243.4022 2436.3484,-214.885 2450.5859,-196.582"/>
<polygon fill="#191970" stroke="#191970" points="2453.4413,-198.6086 2456.6731,-188.5187 2447.8545,-194.391 2453.4413,-198.6086"/>
</g>
<!-- Node326&#45;&gt;Node78 -->
<g id="edge106" class="edge">
<title>Node326&#45;&gt;Node78</title>
<path fill="none" stroke="#191970" d="M2123,-360.396C2123,-352.6448 2123,-342.8122 2123,-333.8601"/>
<polygon fill="#191970" stroke="#191970" points="2126.5001,-333.5765 2123,-323.5765 2119.5001,-333.5765 2126.5001,-333.5765"/>
</g>
<!-- Node327&#45;&gt;Node1 -->
<g id="edge108" class="edge">
<title>Node327&#45;&gt;Node1</title>
<path fill="none" stroke="#191970" d="M1982.051,-295.4432C2053.5755,-273.6932 2174.344,-224.0963 2217,-129 2239.9607,-77.8119 2164.9849,-40.095 2117.0074,-21.8209"/>
<polygon fill="#191970" stroke="#191970" points="2118.11,-18.4972 2107.5166,-18.3228 2115.6891,-25.0653 2118.11,-18.4972"/>
</g>
<!-- Node327&#45;&gt;Node2 -->
<g id="edge109" class="edge">
<title>Node327&#45;&gt;Node2</title>
<path fill="none" stroke="#191970" d="M1885.7728,-295.396C1852.2885,-283.9408 1805.5149,-267.9393 1773.401,-256.953"/>
<polygon fill="#191970" stroke="#191970" points="1774.1195,-253.4997 1763.5249,-253.5743 1771.8536,-260.1228 1774.1195,-253.4997"/>
</g>
<!-- Node334&#45;&gt;Node1 -->
<g id="edge111" class="edge">
<title>Node334&#45;&gt;Node1</title>
<path fill="none" stroke="#191970" d="M2824.2361,-295.3888C2834.0516,-271.8556 2852,-222.8912 2852,-179.5 2852,-179.5 2852,-179.5 2852,-119.5 2852,-88.9131 2852.5762,-73.209 2828,-55 2799.1899,-33.654 2265.1634,-15.3265 2117.5357,-10.6518"/>
<polygon fill="#191970" stroke="#191970" points="2117.2975,-7.1427 2107.1925,-10.3267 2117.0775,-14.1392 2117.2975,-7.1427"/>
</g>
<!-- Node334&#45;&gt;Node2 -->
<g id="edge112" class="edge">
<title>Node334&#45;&gt;Node2</title>
<path fill="none" stroke="#191970" d="M2738.3812,-301.9257C2711.5861,-299.5192 2681.5122,-296.9733 2654,-295 2337.6348,-272.3094 1959.2284,-254.3894 1806.233,-247.5273"/>
<polygon fill="#191970" stroke="#191970" points="1806.1938,-244.0221 1796.0474,-247.0718 1805.881,-251.0151 1806.1938,-244.0221"/>
</g>
<!-- Node335&#45;&gt;Node1 -->
<g id="edge114" class="edge">
<title>Node335&#45;&gt;Node1</title>
<path fill="none" stroke="#191970" d="M670.6225,-365.2636C648.5633,-340.1253 589.6344,-267.4303 576,-194 568.1503,-151.7239 586.6271,-131.2639 624,-110 741.82,-42.9645 789.2686,-69.9255 924,-55 1148.3761,-30.1437 1870.0469,-13.8568 2042.6569,-10.2554"/>
<polygon fill="#191970" stroke="#191970" points="2042.8418,-13.7525 2052.7671,-10.046 2042.6967,-6.754 2042.8418,-13.7525"/>
</g>
<!-- Node335&#45;&gt;Node2 -->
<g id="edge115" class="edge">
<title>Node335&#45;&gt;Node2</title>
<path fill="none" stroke="#191970" d="M685.7905,-365.4598C699.4713,-348.0608 732.2828,-310.2888 770,-295 852.4946,-261.5605 1460.3925,-248.8858 1667.8507,-245.5059"/>
<polygon fill="#191970" stroke="#191970" points="1668.0683,-249.003 1678.0107,-245.3426 1667.9557,-242.0039 1668.0683,-249.003"/>
</g>
<!-- Node335&#45;&gt;Node63 -->
<g id="edge116" class="edge">
<title>Node335&#45;&gt;Node63</title>
<path fill="none" stroke="#191970" d="M656.6136,-365.462C628.936,-354.2878 581.6329,-335.1903 550.0957,-322.4579"/>
<polygon fill="#191970" stroke="#191970" points="551.0383,-319.064 540.4552,-318.5658 548.4177,-325.555 551.0383,-319.064"/>
</g>
<!-- Node343&#45;&gt;Node1 -->
<g id="edge118" class="edge">
<title>Node343&#45;&gt;Node1</title>
<path fill="none" stroke="#191970" d="M3021.1988,-300.221C3012.9209,-279.1477 2994,-225.9045 2994,-179.5 2994,-179.5 2994,-179.5 2994,-119.5 2994,-81.8263 2972.7773,-71.6855 2939,-55 2864.6394,-18.2669 2272.504,-11.023 2117.1927,-9.7495"/>
<polygon fill="#191970" stroke="#191970" points="2117.2176,-6.2497 2107.1904,-9.6709 2117.1625,-13.2495 2117.2176,-6.2497"/>
</g>
<!-- Node343&#45;&gt;Node2 -->
<g id="edge119" class="edge">
<title>Node343&#45;&gt;Node2</title>
<path fill="none" stroke="#191970" d="M2958.691,-300.4901C2941.554,-298.4171 2923.1123,-296.41 2906,-295 2489.4381,-260.6764 1987.3264,-248.9045 1806.2771,-245.6058"/>
<polygon fill="#191970" stroke="#191970" points="1806.1603,-242.1032 1796.0991,-245.4231 1806.0347,-249.1021 1806.1603,-242.1032"/>
</g>
</g>
</svg>
