<?xml version="1.0" encoding="UTF-8" standalone="no"?>
<!DOCTYPE svg PUBLIC "-//W3C//DTD SVG 1.1//EN"
 "http://www.w3.org/Graphics/SVG/1.1/DTD/svg11.dtd">
<!-- Generated by graphviz version 2.40.1 (20161225.0304)
 -->
<!-- Title: testProjection.cpp Pages: 1 -->
<svg width="4542pt" height="462pt"
 viewBox="0.00 0.00 4542.01 462.00" xmlns="http://www.w3.org/2000/svg" xmlns:xlink="http://www.w3.org/1999/xlink">
<g id="graph0" class="graph" transform="scale(1 1) rotate(0) translate(4 458)">
<title>testProjection.cpp</title>
<polygon fill="#ffffff" stroke="transparent" points="-4,4 -4,-458 4538.0122,-458 4538.0122,4 -4,4"/>
<!-- Node0 -->
<g id="node1" class="node">
<title>Node0</title>
<g id="a_node1"><a xlink:title=" ">
<polygon fill="#bfbfbf" stroke="#000000" points="3323.2563,-435.5 3323.2563,-453.5 3418.7437,-453.5 3418.7437,-435.5 3323.2563,-435.5"/>
<text text-anchor="middle" x="3371" y="-441.5" font-family="FreeSans" font-size="10.00" fill="#000000">testProjection.cpp</text>
</a>
</g>
</g>
<!-- Node1 -->
<g id="node2" class="node">
<title>Node1</title>
<g id="a_node2"><a xlink:title=" ">
<polygon fill="#ffffff" stroke="#bfbfbf" points="2068.8276,-.5 2068.8276,-18.5 2123.1724,-18.5 2123.1724,-.5 2068.8276,-.5"/>
<text text-anchor="middle" x="2096" y="-6.5" font-family="FreeSans" font-size="10.00" fill="#000000">iostream</text>
</a>
</g>
</g>
<!-- Node0&#45;&gt;Node1 -->
<g id="edge1" class="edge">
<title>Node0&#45;&gt;Node1</title>
<path fill="none" stroke="#191970" d="M3323.1793,-444.069C3016.4985,-441.2423 1322.3226,-424.6678 805,-399 625.6663,-390.1021 0,-509.0544 0,-329.5 0,-329.5 0,-329.5 0,-129.5 0,-85.8487 24.5386,-73.661 64,-55 110.8743,-32.8335 1785.5379,-13.0053 2058.5491,-9.9167"/>
<polygon fill="#191970" stroke="#191970" points="2058.7735,-13.4145 2068.7334,-9.8019 2058.6945,-6.4149 2058.7735,-13.4145"/>
</g>
<!-- Node2 -->
<g id="node3" class="node">
<title>Node2</title>
<g id="a_node3"><a xlink:href="StdDefs_8h_source.html" target="_top" xlink:title=" ">
<polygon fill="#ffffff" stroke="#000000" points="905.0864,-380.5 905.0864,-398.5 1028.9136,-398.5 1028.9136,-380.5 905.0864,-380.5"/>
<text text-anchor="middle" x="967" y="-386.5" font-family="FreeSans" font-size="10.00" fill="#000000">DGtal/helpers/StdDefs.h</text>
</a>
</g>
</g>
<!-- Node0&#45;&gt;Node2 -->
<g id="edge2" class="edge">
<title>Node0&#45;&gt;Node2</title>
<path fill="none" stroke="#191970" d="M3323.2497,-443.4075C3023.5186,-436.5501 1402.6191,-399.4663 1039.296,-391.154"/>
<polygon fill="#191970" stroke="#191970" points="1039.2465,-387.6521 1029.169,-390.9223 1039.0863,-394.6502 1039.2465,-387.6521"/>
</g>
<!-- Node148 -->
<g id="node24" class="node">
<title>Node148</title>
<g id="a_node24"><a xlink:href="SCellsFunctors_8h_source.html" target="_top" xlink:title=" ">
<polygon fill="#ffffff" stroke="#000000" points="376.4683,-255.5 376.4683,-273.5 537.5317,-273.5 537.5317,-255.5 376.4683,-255.5"/>
<text text-anchor="middle" x="457" y="-261.5" font-family="FreeSans" font-size="10.00" fill="#000000">DGtal/topology/SCellsFunctors.h</text>
</a>
</g>
</g>
<!-- Node0&#45;&gt;Node148 -->
<g id="edge137" class="edge">
<title>Node0&#45;&gt;Node148</title>
<path fill="none" stroke="#191970" d="M3323.0058,-444.4217C2999.6038,-443.788 1143.8202,-438.444 896,-399 738.8097,-373.981 559.7491,-306.162 488.5701,-277.5325"/>
<polygon fill="#191970" stroke="#191970" points="489.4491,-274.1123 478.8665,-273.6025 486.8214,-280.6004 489.4491,-274.1123"/>
</g>
<!-- Node159 -->
<g id="node28" class="node">
<title>Node159</title>
<g id="a_node28"><a xlink:href="SurfelAdjacency_8h_source.html" target="_top" xlink:title=" ">
<polygon fill="#ffffff" stroke="#000000" points="3821.6055,-190.5 3821.6055,-208.5 3986.3945,-208.5 3986.3945,-190.5 3821.6055,-190.5"/>
<text text-anchor="middle" x="3904" y="-196.5" font-family="FreeSans" font-size="10.00" fill="#000000">DGtal/topology/SurfelAdjacency.h</text>
</a>
</g>
</g>
<!-- Node0&#45;&gt;Node159 -->
<g id="edge75" class="edge">
<title>Node0&#45;&gt;Node159</title>
<path fill="none" stroke="#191970" d="M3419.0809,-440.2957C3560.3138,-426.8504 3968.9068,-379.7508 4047,-279 4073.8367,-244.377 4016.444,-222.618 3966.5652,-210.7888"/>
<polygon fill="#191970" stroke="#191970" points="3967.2434,-207.3538 3956.7168,-208.5545 3965.6946,-214.1803 3967.2434,-207.3538"/>
</g>
<!-- Node162 -->
<g id="node31" class="node">
<title>Node162</title>
<g id="a_node31"><a xlink:href="DigitalSurface_8h_source.html" target="_top" xlink:title=" ">
<polygon fill="#ffffff" stroke="#000000" points="2322.2417,-255.5 2322.2417,-273.5 2477.7583,-273.5 2477.7583,-255.5 2322.2417,-255.5"/>
<text text-anchor="middle" x="2400" y="-261.5" font-family="FreeSans" font-size="10.00" fill="#000000">DGtal/topology/DigitalSurface.h</text>
</a>
</g>
</g>
<!-- Node0&#45;&gt;Node162 -->
<g id="edge80" class="edge">
<title>Node0&#45;&gt;Node162</title>
<path fill="none" stroke="#191970" d="M3323.1792,-435.6352C3161.512,-405.666 2635.6083,-308.1761 2458.6869,-275.3791"/>
<polygon fill="#191970" stroke="#191970" points="2459.2536,-271.9246 2448.7831,-273.5432 2457.9776,-278.8074 2459.2536,-271.9246"/>
</g>
<!-- Node171 -->
<g id="node39" class="node">
<title>Node171</title>
<g id="a_node39"><a xlink:href="BoundaryPredicate_8h_source.html" target="_top" xlink:title=" ">
<polygon fill="#ffffff" stroke="#000000" points="4114.1382,-250.5 4114.1382,-278.5 4231.8618,-278.5 4231.8618,-250.5 4114.1382,-250.5"/>
<text text-anchor="start" x="4122.1382" y="-266.5" font-family="FreeSans" font-size="10.00" fill="#000000">DGtal/topology/helpers</text>
<text text-anchor="middle" x="4173" y="-256.5" font-family="FreeSans" font-size="10.00" fill="#000000">/BoundaryPredicate.h</text>
</a>
</g>
</g>
<!-- Node0&#45;&gt;Node171 -->
<g id="edge113" class="edge">
<title>Node0&#45;&gt;Node171</title>
<path fill="none" stroke="#191970" d="M3418.8096,-444.1745C3571.8148,-442.769 4042.8077,-435.492 4100,-399 4139.269,-373.9441 4158.9902,-320.1207 4167.52,-288.6867"/>
<polygon fill="#191970" stroke="#191970" points="4171.016,-289.1395 4170.084,-278.5857 4164.2311,-287.4172 4171.016,-289.1395"/>
</g>
<!-- Node176 -->
<g id="node42" class="node">
<title>Node176</title>
<g id="a_node42"><a xlink:href="SetOfSurfels_8h_source.html" target="_top" xlink:title=" ">
<polygon fill="#ffffff" stroke="#000000" points="3369.0225,-320.5 3369.0225,-338.5 3518.9775,-338.5 3518.9775,-320.5 3369.0225,-320.5"/>
<text text-anchor="middle" x="3444" y="-326.5" font-family="FreeSans" font-size="10.00" fill="#000000">DGtal/topology/SetOfSurfels.h</text>
</a>
</g>
</g>
<!-- Node0&#45;&gt;Node176 -->
<g id="edge121" class="edge">
<title>Node0&#45;&gt;Node176</title>
<path fill="none" stroke="#191970" d="M3376.7282,-435.4761C3388.769,-416.5078 3416.8932,-372.2025 3432.6999,-347.3015"/>
<polygon fill="#191970" stroke="#191970" points="3435.6913,-349.1198 3438.0956,-338.8014 3429.7814,-345.3683 3435.6913,-349.1198"/>
</g>
<!-- Node182 -->
<g id="node46" class="node">
<title>Node182</title>
<g id="a_node46"><a xlink:href="DGtal_2shapes_2Shapes_8h_source.html" target="_top" xlink:title=" ">
<polygon fill="#ffffff" stroke="#ff0000" points="3098.1899,-320.5 3098.1899,-338.5 3219.8101,-338.5 3219.8101,-320.5 3098.1899,-320.5"/>
<text text-anchor="middle" x="3159" y="-326.5" font-family="FreeSans" font-size="10.00" fill="#000000">DGtal/shapes/Shapes.h</text>
</a>
</g>
</g>
<!-- Node0&#45;&gt;Node182 -->
<g id="edge138" class="edge">
<title>Node0&#45;&gt;Node182</title>
<path fill="none" stroke="#191970" d="M3333.8682,-435.4232C3306.9849,-427.9366 3270.365,-415.8085 3241,-399 3215.6228,-384.4742 3190.5917,-361.6938 3174.9898,-346.205"/>
<polygon fill="#191970" stroke="#191970" points="3177.2524,-343.5148 3167.7386,-338.8524 3172.2684,-348.4301 3177.2524,-343.5148"/>
</g>
<!-- Node189 -->
<g id="node47" class="node">
<title>Node189</title>
<g id="a_node47"><a xlink:href="GaussDigitizer_8h_source.html" target="_top" xlink:title="Computes the Gauss digitization of some Euclidean shape.">
<polygon fill="#ffffff" stroke="#ff0000" points="3163.9116,-255.5 3163.9116,-273.5 3316.0884,-273.5 3316.0884,-255.5 3163.9116,-255.5"/>
<text text-anchor="middle" x="3240" y="-261.5" font-family="FreeSans" font-size="10.00" fill="#000000">DGtal/shapes/GaussDigitizer.h</text>
</a>
</g>
</g>
<!-- Node0&#45;&gt;Node189 -->
<g id="edge153" class="edge">
<title>Node0&#45;&gt;Node189</title>
<path fill="none" stroke="#191970" d="M3364.3236,-435.3263C3343.6553,-406.9271 3280.4673,-320.104 3252.9891,-282.3476"/>
<polygon fill="#191970" stroke="#191970" points="3255.5344,-279.897 3246.8201,-273.8711 3249.8746,-284.0161 3255.5344,-279.897"/>
</g>
<!-- Node194 -->
<g id="node48" class="node">
<title>Node194</title>
<g id="a_node48"><a xlink:href="ShapeFactory_8h_source.html" target="_top" xlink:title=" ">
<polygon fill="#ffffff" stroke="#ff0000" points="4118.3887,-120.5 4118.3887,-138.5 4267.6113,-138.5 4267.6113,-120.5 4118.3887,-120.5"/>
<text text-anchor="middle" x="4193" y="-126.5" font-family="FreeSans" font-size="10.00" fill="#000000">DGtal/shapes/ShapeFactory.h</text>
</a>
</g>
</g>
<!-- Node0&#45;&gt;Node194 -->
<g id="edge150" class="edge">
<title>Node0&#45;&gt;Node194</title>
<path fill="none" stroke="#191970" d="M3418.7935,-442.651C3562.3759,-436.933 3988.461,-418.7294 4126,-399 4263.1927,-379.3203 4430,-468.097 4430,-329.5 4430,-329.5 4430,-329.5 4430,-264.5 4430,-228.1716 4436.4986,-210.8761 4411,-185 4391.0005,-164.7043 4322.9739,-149.514 4268.1679,-140.2028"/>
<polygon fill="#191970" stroke="#191970" points="4268.541,-136.7169 4258.1029,-138.5327 4267.3951,-143.6225 4268.541,-136.7169"/>
</g>
<!-- Node220 -->
<g id="node49" class="node">
<title>Node220</title>
<g id="a_node49"><a xlink:href="Board2D_8h_source.html" target="_top" xlink:title=" ">
<polygon fill="#ffffff" stroke="#ff0000" points="3485.9683,-190.5 3485.9683,-208.5 3622.0317,-208.5 3622.0317,-190.5 3485.9683,-190.5"/>
<text text-anchor="middle" x="3554" y="-196.5" font-family="FreeSans" font-size="10.00" fill="#000000">DGtal/io/boards/Board2D.h</text>
</a>
</g>
</g>
<!-- Node0&#45;&gt;Node220 -->
<g id="edge154" class="edge">
<title>Node0&#45;&gt;Node220</title>
<path fill="none" stroke="#191970" d="M3408.2927,-435.4913C3502.48,-411.908 3745.682,-345.5669 3791,-279 3798.2533,-268.3457 3799.1087,-260.0186 3791,-250 3785.375,-243.0502 3682.6826,-223.0566 3614.3383,-210.4107"/>
<polygon fill="#191970" stroke="#191970" points="3614.5711,-206.8948 3604.1023,-208.5241 3613.3022,-213.7788 3614.5711,-206.8948"/>
</g>
<!-- Node375 -->
<g id="node50" class="node">
<title>Node375</title>
<g id="a_node50"><a xlink:title=" ">
<polygon fill="#ffffff" stroke="#bfbfbf" points="4457.9878,-380.5 4457.9878,-398.5 4534.0122,-398.5 4534.0122,-380.5 4457.9878,-380.5"/>
<text text-anchor="middle" x="4496" y="-386.5" font-family="FreeSans" font-size="10.00" fill="#000000">DGtalCatch.h</text>
</a>
</g>
</g>
<!-- Node0&#45;&gt;Node375 -->
<g id="edge158" class="edge">
<title>Node0&#45;&gt;Node375</title>
<path fill="none" stroke="#191970" d="M3419.0484,-443.3475C3600.1001,-438.8671 4241.1036,-421.7252 4444,-399 4445.2569,-398.8592 4446.5291,-398.7061 4447.8114,-398.5423"/>
<polygon fill="#191970" stroke="#191970" points="4448.3543,-402.0003 4457.7516,-397.1073 4447.3541,-395.0721 4448.3543,-402.0003"/>
</g>
<!-- Node2&#45;&gt;Node1 -->
<g id="edge3" class="edge">
<title>Node2&#45;&gt;Node1</title>
<path fill="none" stroke="#191970" d="M904.9652,-387.6993C697.0737,-380.8519 38,-352.226 38,-264.5 38,-264.5 38,-264.5 38,-129.5 38,-85.8487 62.5426,-73.6694 102,-55 147.9453,-33.2609 1787.8961,-13.1136 2058.4014,-9.9348"/>
<polygon fill="#191970" stroke="#191970" points="2058.5444,-13.4334 2068.5027,-9.8165 2058.4624,-6.4339 2058.5444,-13.4334"/>
</g>
<!-- Node3 -->
<g id="node4" class="node">
<title>Node3</title>
<g id="a_node4"><a xlink:href="Common_8h_source.html" target="_top" xlink:title=" ">
<polygon fill="#ffffff" stroke="#ff0000" points="2293.1455,-55.5 2293.1455,-73.5 2410.8545,-73.5 2410.8545,-55.5 2293.1455,-55.5"/>
<text text-anchor="middle" x="2352" y="-61.5" font-family="FreeSans" font-size="10.00" fill="#000000">DGtal/base/Common.h</text>
</a>
</g>
</g>
<!-- Node2&#45;&gt;Node3 -->
<g id="edge4" class="edge">
<title>Node2&#45;&gt;Node3</title>
<path fill="none" stroke="#191970" d="M1028.9773,-384.78C1244.3068,-367.7136 1958.1925,-305.3614 2167,-214 2171.8303,-211.8866 2286.757,-117.9466 2332.9928,-80.079"/>
<polygon fill="#191970" stroke="#191970" points="2335.2672,-82.7404 2340.7847,-73.6956 2330.831,-77.3255 2335.2672,-82.7404"/>
</g>
<!-- Node43 -->
<g id="node5" class="node">
<title>Node43</title>
<g id="a_node5"><a xlink:href="SpaceND_8h_source.html" target="_top" xlink:title=" ">
<polygon fill="#ffffff" stroke="#ff0000" points="640.2539,-120.5 640.2539,-138.5 765.7461,-138.5 765.7461,-120.5 640.2539,-120.5"/>
<text text-anchor="middle" x="703" y="-126.5" font-family="FreeSans" font-size="10.00" fill="#000000">DGtal/kernel/SpaceND.h</text>
</a>
</g>
</g>
<!-- Node2&#45;&gt;Node43 -->
<g id="edge6" class="edge">
<title>Node2&#45;&gt;Node43</title>
<path fill="none" stroke="#191970" d="M904.9881,-387.7077C765.7381,-382.243 435.0711,-360.7523 367,-279 340.333,-246.9734 394.9272,-192.6988 406,-185 408.4468,-183.2988 557.2049,-156.0234 643.2304,-140.3555"/>
<polygon fill="#191970" stroke="#191970" points="643.9293,-143.7859 653.1407,-138.5514 642.6755,-136.8991 643.9293,-143.7859"/>
</g>
<!-- Node65 -->
<g id="node6" class="node">
<title>Node65</title>
<g id="a_node6"><a xlink:href="HyperRectDomain_8h_source.html" target="_top" xlink:title=" ">
<polygon fill="#ffffff" stroke="#ff0000" points="3061.9238,-185.5 3061.9238,-213.5 3174.0762,-213.5 3174.0762,-185.5 3061.9238,-185.5"/>
<text text-anchor="start" x="3069.9238" y="-201.5" font-family="FreeSans" font-size="10.00" fill="#000000">DGtal/kernel/domains</text>
<text text-anchor="middle" x="3118" y="-191.5" font-family="FreeSans" font-size="10.00" fill="#000000">/HyperRectDomain.h</text>
</a>
</g>
</g>
<!-- Node2&#45;&gt;Node65 -->
<g id="edge9" class="edge">
<title>Node2&#45;&gt;Node65</title>
<path fill="none" stroke="#191970" d="M1029.1388,-388.3081C1250.3713,-383.4515 2020.0578,-361.3039 2649,-279 2793.4385,-260.0987 2961.4901,-229.502 3052.0443,-212.2998"/>
<polygon fill="#191970" stroke="#191970" points="3052.7279,-215.7326 3061.8962,-210.423 3051.4179,-208.8562 3052.7279,-215.7326"/>
</g>
<!-- Node86 -->
<g id="node8" class="node">
<title>Node86</title>
<g id="a_node8"><a xlink:href="DigitalSetSelector_8h_source.html" target="_top" xlink:title=" ">
<polygon fill="#ffffff" stroke="#ff0000" points="1098.3696,-115.5 1098.3696,-143.5 1221.6304,-143.5 1221.6304,-115.5 1098.3696,-115.5"/>
<text text-anchor="start" x="1106.3696" y="-131.5" font-family="FreeSans" font-size="10.00" fill="#000000">DGtal/kernel/sets/Digital</text>
<text text-anchor="middle" x="1160" y="-121.5" font-family="FreeSans" font-size="10.00" fill="#000000">SetSelector.h</text>
</a>
</g>
</g>
<!-- Node2&#45;&gt;Node86 -->
<g id="edge14" class="edge">
<title>Node2&#45;&gt;Node86</title>
<path fill="none" stroke="#191970" d="M1011.4062,-380.462C1034.1985,-373.7956 1060.9007,-362.5541 1079,-344 1132.0424,-289.6248 1151.0148,-197.1267 1157.2371,-153.5548"/>
<polygon fill="#191970" stroke="#191970" points="1160.7143,-153.9573 1158.5573,-143.5844 1153.7748,-153.0384 1160.7143,-153.9573"/>
</g>
<!-- Node99 -->
<g id="node9" class="node">
<title>Node99</title>
<g id="a_node9"><a xlink:href="DigitalTopology_8h_source.html" target="_top" xlink:title=" ">
<polygon fill="#ffffff" stroke="#ff0000" points="1341.8271,-255.5 1341.8271,-273.5 1502.1729,-273.5 1502.1729,-255.5 1341.8271,-255.5"/>
<text text-anchor="middle" x="1422" y="-261.5" font-family="FreeSans" font-size="10.00" fill="#000000">DGtal/topology/DigitalTopology.h</text>
</a>
</g>
</g>
<!-- Node2&#45;&gt;Node99 -->
<g id="edge17" class="edge">
<title>Node2&#45;&gt;Node99</title>
<path fill="none" stroke="#191970" d="M1007.3479,-380.4535C1045.7236,-371.6918 1105.0021,-357.7487 1156,-344 1237.586,-322.0049 1332.1757,-292.8517 1383.6974,-276.6595"/>
<polygon fill="#191970" stroke="#191970" points="1384.9244,-279.9426 1393.4109,-273.5998 1382.8213,-273.266 1384.9244,-279.9426"/>
</g>
<!-- Node106 -->
<g id="node12" class="node">
<title>Node106</title>
<g id="a_node12"><a xlink:href="MetricAdjacency_8h_source.html" target="_top" xlink:title=" ">
<polygon fill="#ffffff" stroke="#ff0000" points="752.0562,-190.5 752.0562,-208.5 917.9438,-208.5 917.9438,-190.5 752.0562,-190.5"/>
<text text-anchor="middle" x="835" y="-196.5" font-family="FreeSans" font-size="10.00" fill="#000000">DGtal/topology/MetricAdjacency.h</text>
</a>
</g>
</g>
<!-- Node2&#45;&gt;Node106 -->
<g id="edge26" class="edge">
<title>Node2&#45;&gt;Node106</title>
<path fill="none" stroke="#191970" d="M957.9529,-380.3652C940.278,-362.1944 900.5702,-319.7462 874,-279 861.1876,-259.3519 849.794,-234.8842 842.6793,-218.3214"/>
<polygon fill="#191970" stroke="#191970" points="845.7437,-216.5784 838.6498,-208.709 839.288,-219.2846 845.7437,-216.5784"/>
</g>
<!-- Node109 -->
<g id="node14" class="node">
<title>Node109</title>
<g id="a_node14"><a xlink:href="Object_8h_source.html" target="_top" xlink:title=" ">
<polygon fill="#ffffff" stroke="#ff0000" points="1201.9165,-255.5 1201.9165,-273.5 1324.0835,-273.5 1324.0835,-255.5 1201.9165,-255.5"/>
<text text-anchor="middle" x="1263" y="-261.5" font-family="FreeSans" font-size="10.00" fill="#000000">DGtal/topology/Object.h</text>
</a>
</g>
</g>
<!-- Node2&#45;&gt;Node109 -->
<g id="edge31" class="edge">
<title>Node2&#45;&gt;Node109</title>
<path fill="none" stroke="#191970" d="M1001.9022,-380.4595C1031.6697,-372.2995 1075.3398,-359.2556 1112,-344 1158.6483,-324.588 1210.1578,-295.7578 1239.3491,-278.6729"/>
<polygon fill="#191970" stroke="#191970" points="1241.173,-281.6606 1248.0081,-273.5654 1237.6166,-275.6313 1241.173,-281.6606"/>
</g>
<!-- Node118 -->
<g id="node18" class="node">
<title>Node118</title>
<g id="a_node18"><a xlink:href="KhalimskySpaceND_8h_source.html" target="_top" xlink:title=" ">
<polygon fill="#ffffff" stroke="#ff0000" points="882.7539,-250.5 882.7539,-278.5 1013.2461,-278.5 1013.2461,-250.5 882.7539,-250.5"/>
<text text-anchor="start" x="890.7539" y="-266.5" font-family="FreeSans" font-size="10.00" fill="#000000">DGtal/topology/Khalimsky</text>
<text text-anchor="middle" x="948" y="-256.5" font-family="FreeSans" font-size="10.00" fill="#000000">SpaceND.h</text>
</a>
</g>
</g>
<!-- Node2&#45;&gt;Node118 -->
<g id="edge40" class="edge">
<title>Node2&#45;&gt;Node118</title>
<path fill="none" stroke="#191970" d="M960.4073,-380.2865C954.5278,-371.4614 946.3481,-357.5238 943,-344 938.4905,-325.7852 940.166,-304.5451 942.7369,-288.6039"/>
<polygon fill="#191970" stroke="#191970" points="946.2255,-288.985 944.5948,-278.5165 939.3413,-287.7171 946.2255,-288.985"/>
</g>
<!-- Node119 -->
<g id="node19" class="node">
<title>Node119</title>
<g id="a_node19"><a xlink:href="KhalimskyPreSpaceND_8h_source.html" target="_top" xlink:title=" ">
<polygon fill="#ffffff" stroke="#ff0000" points="527.7539,-185.5 527.7539,-213.5 658.2461,-213.5 658.2461,-185.5 527.7539,-185.5"/>
<text text-anchor="start" x="535.7539" y="-201.5" font-family="FreeSans" font-size="10.00" fill="#000000">DGtal/topology/Khalimsky</text>
<text text-anchor="middle" x="593" y="-191.5" font-family="FreeSans" font-size="10.00" fill="#000000">PreSpaceND.h</text>
</a>
</g>
</g>
<!-- Node2&#45;&gt;Node119 -->
<g id="edge50" class="edge">
<title>Node2&#45;&gt;Node119</title>
<path fill="none" stroke="#191970" d="M948.9612,-380.3359C890.9827,-350.8816 708.6051,-258.2299 629.8327,-218.2118"/>
<polygon fill="#191970" stroke="#191970" points="631.256,-215.0091 620.7552,-213.6003 628.0855,-221.25 631.256,-215.0091"/>
</g>
<!-- Node122 -->
<g id="node20" class="node">
<title>Node122</title>
<g id="a_node20"><a xlink:href="GridCurve_8h_source.html" target="_top" xlink:title="Header file for module GridCurve.cpp.">
<polygon fill="#ffffff" stroke="#ff0000" points="951.8721,-315.5 951.8721,-343.5 1070.1279,-343.5 1070.1279,-315.5 951.8721,-315.5"/>
<text text-anchor="start" x="959.8721" y="-331.5" font-family="FreeSans" font-size="10.00" fill="#000000">DGtal/geometry/curves</text>
<text text-anchor="middle" x="1011" y="-321.5" font-family="FreeSans" font-size="10.00" fill="#000000">/GridCurve.h</text>
</a>
</g>
</g>
<!-- Node2&#45;&gt;Node122 -->
<g id="edge51" class="edge">
<title>Node2&#45;&gt;Node122</title>
<path fill="none" stroke="#191970" d="M973.6827,-380.3873C979.1865,-372.8821 987.2294,-361.9144 994.4404,-352.0813"/>
<polygon fill="#191970" stroke="#191970" points="997.3871,-353.9815 1000.4784,-343.8477 991.7423,-349.8419 997.3871,-353.9815"/>
</g>
<!-- Node152 -->
<g id="node26" class="node">
<title>Node152</title>
<g id="a_node26"><a xlink:href="ExactPredicateLpSeparableMetric_8h_source.html" target="_top" xlink:title=" ">
<polygon fill="#ffffff" stroke="#ff0000" points="179.6138,-110.5 179.6138,-148.5 362.3862,-148.5 362.3862,-110.5 179.6138,-110.5"/>
<text text-anchor="start" x="187.6138" y="-136.5" font-family="FreeSans" font-size="10.00" fill="#000000">DGtal/geometry/volumes</text>
<text text-anchor="start" x="187.6138" y="-126.5" font-family="FreeSans" font-size="10.00" fill="#000000">/distance/ExactPredicateLpSeparable</text>
<text text-anchor="middle" x="271" y="-116.5" font-family="FreeSans" font-size="10.00" fill="#000000">Metric.h</text>
</a>
</g>
</g>
<!-- Node2&#45;&gt;Node152 -->
<g id="edge69" class="edge">
<title>Node2&#45;&gt;Node152</title>
<path fill="none" stroke="#191970" d="M904.9449,-388.1757C762.1098,-384.6398 419.0024,-373.1806 376,-344 312.048,-300.6034 285.5585,-206.6804 275.882,-158.819"/>
<polygon fill="#191970" stroke="#191970" points="279.2807,-157.9573 273.9661,-148.7919 272.4051,-159.2711 279.2807,-157.9573"/>
</g>
<!-- Node157 -->
<g id="node27" class="node">
<title>Node157</title>
<g id="a_node27"><a xlink:href="ExactPredicateLpPowerSeparableMetric_8h_source.html" target="_top" xlink:title=" ">
<polygon fill="#ffffff" stroke="#ff0000" points="418.2368,-110.5 418.2368,-148.5 583.7632,-148.5 583.7632,-110.5 418.2368,-110.5"/>
<text text-anchor="start" x="426.2368" y="-136.5" font-family="FreeSans" font-size="10.00" fill="#000000">DGtal/geometry/volumes</text>
<text text-anchor="start" x="426.2368" y="-126.5" font-family="FreeSans" font-size="10.00" fill="#000000">/distance/ExactPredicateLpPower</text>
<text text-anchor="middle" x="501" y="-116.5" font-family="FreeSans" font-size="10.00" fill="#000000">SeparableMetric.h</text>
</a>
</g>
</g>
<!-- Node2&#45;&gt;Node157 -->
<g id="edge72" class="edge">
<title>Node2&#45;&gt;Node157</title>
<path fill="none" stroke="#191970" d="M904.9928,-386.8051C770.8003,-380.621 462.0394,-364.3637 419,-344 352.7217,-312.641 326.6446,-240.1177 375,-185 387.1036,-171.2037 403.2813,-160.6906 420.0004,-152.7323"/>
<polygon fill="#191970" stroke="#191970" points="421.6186,-155.8429 429.3221,-148.5693 418.764,-149.4514 421.6186,-155.8429"/>
</g>
<!-- Node3&#45;&gt;Node1 -->
<g id="edge5" class="edge">
<title>Node3&#45;&gt;Node1</title>
<path fill="none" stroke="#191970" d="M2310.0135,-55.4795C2260.956,-44.9398 2180.5253,-27.6597 2133.4885,-17.5542"/>
<polygon fill="#191970" stroke="#191970" points="2133.9295,-14.0691 2123.4174,-15.3904 2132.4591,-20.9129 2133.9295,-14.0691"/>
</g>
<!-- Node43&#45;&gt;Node1 -->
<g id="edge7" class="edge">
<title>Node43&#45;&gt;Node1</title>
<path fill="none" stroke="#191970" d="M708.868,-120.4777C720.2523,-103.8885 747.1296,-68.9645 780,-55 840.3634,-29.3556 1850.2288,-13.1221 2058.5811,-10.037"/>
<polygon fill="#191970" stroke="#191970" points="2058.7654,-13.5348 2068.7128,-9.888 2058.6624,-6.5355 2058.7654,-13.5348"/>
</g>
<!-- Node43&#45;&gt;Node3 -->
<g id="edge8" class="edge">
<title>Node43&#45;&gt;Node3</title>
<path fill="none" stroke="#191970" d="M747.5891,-120.462C768.8207,-116.5383 794.6243,-112.3173 818,-110 1108.095,-81.2421 2023.0933,-68.4028 2282.7082,-65.2804"/>
<polygon fill="#191970" stroke="#191970" points="2282.8019,-68.7797 2292.7594,-65.1605 2282.7183,-61.7802 2282.8019,-68.7797"/>
</g>
<!-- Node65&#45;&gt;Node1 -->
<g id="edge10" class="edge">
<title>Node65&#45;&gt;Node1</title>
<path fill="none" stroke="#191970" d="M3174.3101,-194.749C3250.9679,-186.1839 3373.6063,-163.7574 3327,-110 3214.0615,20.2672 3114.5817,-71.8629 2943,-55 2631.0928,-24.346 2252.3925,-13.2134 2133.5311,-10.3302"/>
<polygon fill="#191970" stroke="#191970" points="2133.5684,-6.8302 2123.488,-10.0914 2133.402,-13.8283 2133.5684,-6.8302"/>
</g>
<!-- Node65&#45;&gt;Node3 -->
<g id="edge11" class="edge">
<title>Node65&#45;&gt;Node3</title>
<path fill="none" stroke="#191970" d="M3061.5319,-185.9402C3019.1307,-175.2171 2965.0666,-160.2333 2945,-149 2922.4868,-136.3971 2925.6665,-120.2749 2902,-110 2858.9151,-91.2945 2559.13,-74.5489 2421.1824,-67.7358"/>
<polygon fill="#191970" stroke="#191970" points="2421.2961,-64.2373 2411.1366,-67.2431 2420.9531,-71.2289 2421.2961,-64.2373"/>
</g>
<!-- Node48 -->
<g id="node7" class="node">
<title>Node48</title>
<g id="a_node7"><a xlink:href="NumberTraits_8h_source.html" target="_top" xlink:title=" ">
<polygon fill="#ffffff" stroke="#ff0000" points="2953.5527,-120.5 2953.5527,-138.5 3096.4473,-138.5 3096.4473,-120.5 2953.5527,-120.5"/>
<text text-anchor="middle" x="3025" y="-126.5" font-family="FreeSans" font-size="10.00" fill="#000000">DGtal/kernel/NumberTraits.h</text>
</a>
</g>
</g>
<!-- Node65&#45;&gt;Node48 -->
<g id="edge12" class="edge">
<title>Node65&#45;&gt;Node48</title>
<path fill="none" stroke="#191970" d="M3099.1801,-185.3345C3083.5061,-173.5368 3061.235,-156.7736 3045.1914,-144.6978"/>
<polygon fill="#191970" stroke="#191970" points="3047.0949,-141.7499 3037.0004,-138.5325 3042.8853,-147.3427 3047.0949,-141.7499"/>
</g>
<!-- Node48&#45;&gt;Node3 -->
<g id="edge13" class="edge">
<title>Node48&#45;&gt;Node3</title>
<path fill="none" stroke="#191970" d="M2990.8953,-120.4589C2975.4562,-116.6815 2956.9129,-112.5798 2940,-110 2753.7536,-81.5909 2531.4643,-70.5143 2421.1664,-66.5311"/>
<polygon fill="#191970" stroke="#191970" points="2421.2855,-63.0332 2411.1684,-66.1785 2421.0387,-70.0289 2421.2855,-63.0332"/>
</g>
<!-- Node86&#45;&gt;Node1 -->
<g id="edge15" class="edge">
<title>Node86&#45;&gt;Node1</title>
<path fill="none" stroke="#191970" d="M1169.3385,-115.4477C1182.0355,-97.7049 1206.5687,-67.9371 1236,-55 1311.9316,-21.6229 1902.3855,-11.9222 2058.3326,-9.9302"/>
<polygon fill="#191970" stroke="#191970" points="2058.427,-13.4294 2068.3825,-9.8049 2058.3396,-6.4299 2058.427,-13.4294"/>
</g>
<!-- Node86&#45;&gt;Node3 -->
<g id="edge16" class="edge">
<title>Node86&#45;&gt;Node3</title>
<path fill="none" stroke="#191970" d="M1221.9246,-117.4342C1238.7588,-114.5575 1257.0282,-111.8023 1274,-110 1470.8036,-89.1006 2077.1781,-71.7027 2282.9007,-66.2651"/>
<polygon fill="#191970" stroke="#191970" points="2283.0687,-69.762 2292.9731,-66 2282.8845,-62.7644 2283.0687,-69.762"/>
</g>
<!-- Node99&#45;&gt;Node1 -->
<g id="edge18" class="edge">
<title>Node99&#45;&gt;Node1</title>
<path fill="none" stroke="#191970" d="M1391.5951,-255.4202C1371.9339,-247.7912 1347.8707,-234.7365 1336,-214 1314.4891,-176.4233 1372.3496,-112.5501 1376,-110 1488.0847,-31.7014 1926.1607,-13.9502 2058.1564,-10.3435"/>
<polygon fill="#191970" stroke="#191970" points="2058.6438,-13.832 2068.5488,-10.0718 2058.4608,-6.8344 2058.6438,-13.832"/>
</g>
<!-- Node99&#45;&gt;Node3 -->
<g id="edge19" class="edge">
<title>Node99&#45;&gt;Node3</title>
<path fill="none" stroke="#191970" d="M1401.2171,-255.4687C1371.9236,-241.4567 1324.2525,-213.1511 1345,-185 1411.8053,-94.3559 1476.2162,-130.1557 1587,-110 1719.409,-85.9099 2120.2995,-71.4793 2282.6357,-66.4858"/>
<polygon fill="#191970" stroke="#191970" points="2283.0894,-69.9737 2292.9781,-66.1705 2282.8761,-62.9769 2283.0894,-69.9737"/>
</g>
<!-- Node71 -->
<g id="node10" class="node">
<title>Node71</title>
<g id="a_node10"><a xlink:href="ConstAlias_8h_source.html" target="_top" xlink:title=" ">
<polygon fill="#ffffff" stroke="#ff0000" points="3305.5298,-190.5 3305.5298,-208.5 3430.4702,-208.5 3430.4702,-190.5 3305.5298,-190.5"/>
<text text-anchor="middle" x="3368" y="-196.5" font-family="FreeSans" font-size="10.00" fill="#000000">DGtal/base/ConstAlias.h</text>
</a>
</g>
</g>
<!-- Node99&#45;&gt;Node71 -->
<g id="edge20" class="edge">
<title>Node99&#45;&gt;Node71</title>
<path fill="none" stroke="#191970" d="M1502.3589,-263.6124C1751.8254,-260.553 2535.1317,-248.6575 3183,-214 3219.8805,-212.0271 3260.8293,-208.9134 3294.8068,-206.0762"/>
<polygon fill="#191970" stroke="#191970" points="3295.4453,-209.5349 3305.1155,-205.2062 3294.8565,-202.5597 3295.4453,-209.5349"/>
</g>
<!-- Node71&#45;&gt;Node1 -->
<g id="edge21" class="edge">
<title>Node71&#45;&gt;Node1</title>
<path fill="none" stroke="#191970" d="M3368.7063,-190.4585C3369.5786,-172.5096 3368.8105,-132.2014 3347,-110 3277.2746,-39.0251 3228.434,-69.4846 3130,-55 2932.1077,-25.88 2296.3819,-12.9968 2134.0302,-10.1333"/>
<polygon fill="#191970" stroke="#191970" points="2133.6594,-6.6264 2123.5999,-9.9517 2133.5375,-13.6253 2133.6594,-6.6264"/>
</g>
<!-- Node71&#45;&gt;Node3 -->
<g id="edge22" class="edge">
<title>Node71&#45;&gt;Node3</title>
<path fill="none" stroke="#191970" d="M3366.9169,-190.4321C3364.141,-171.685 3354.9033,-128.8421 3327,-110 3308.2294,-97.3249 2640.418,-74.0746 2421.047,-66.7629"/>
<polygon fill="#191970" stroke="#191970" points="2421.055,-63.2613 2410.9441,-66.4268 2420.8222,-70.2574 2421.055,-63.2613"/>
</g>
<!-- Node72 -->
<g id="node11" class="node">
<title>Node72</title>
<g id="a_node11"><a xlink:href="CountedPtr_8h_source.html" target="_top" xlink:title=" ">
<polygon fill="#ffffff" stroke="#ff0000" points="3190.4092,-120.5 3190.4092,-138.5 3317.5908,-138.5 3317.5908,-120.5 3190.4092,-120.5"/>
<text text-anchor="middle" x="3254" y="-126.5" font-family="FreeSans" font-size="10.00" fill="#000000">DGtal/base/CountedPtr.h</text>
</a>
</g>
</g>
<!-- Node71&#45;&gt;Node72 -->
<g id="edge23" class="edge">
<title>Node71&#45;&gt;Node72</title>
<path fill="none" stroke="#191970" d="M3353.0965,-190.3487C3333.8941,-178.5578 3300.2903,-157.9239 3277.5987,-143.9905"/>
<polygon fill="#191970" stroke="#191970" points="3279.2603,-140.9036 3268.9072,-138.6535 3275.5975,-146.8688 3279.2603,-140.9036"/>
</g>
<!-- Node72&#45;&gt;Node1 -->
<g id="edge24" class="edge">
<title>Node72&#45;&gt;Node1</title>
<path fill="none" stroke="#191970" d="M3219.954,-120.4138C3206.3368,-116.9303 3190.4758,-113.061 3176,-110 3036.0997,-80.4174 3001.0381,-71.5042 2859,-55 2581.5836,-22.7654 2244.6138,-12.7797 2133.5072,-10.2471"/>
<polygon fill="#191970" stroke="#191970" points="2133.5447,-6.7471 2123.4696,-10.0247 2133.3896,-13.7454 2133.5447,-6.7471"/>
</g>
<!-- Node72&#45;&gt;Node3 -->
<g id="edge25" class="edge">
<title>Node72&#45;&gt;Node3</title>
<path fill="none" stroke="#191970" d="M3223.5236,-120.4539C3209.224,-116.5787 3191.8718,-112.3999 3176,-110 3031.1859,-88.103 2592.1257,-72.161 2421.168,-66.6283"/>
<polygon fill="#191970" stroke="#191970" points="2421.1386,-63.1256 2411.0312,-66.3023 2420.9135,-70.122 2421.1386,-63.1256"/>
</g>
<!-- Node106&#45;&gt;Node1 -->
<g id="edge27" class="edge">
<title>Node106&#45;&gt;Node1</title>
<path fill="none" stroke="#191970" d="M837.3644,-190.3755C842.6592,-171.9072 857.3162,-130.147 886,-110 1003.0139,-27.8115 1060.8918,-70.8894 1203,-55 1533.1666,-18.0834 1935.3972,-11.0916 2058.4584,-9.7912"/>
<polygon fill="#191970" stroke="#191970" points="2058.5337,-13.2907 2068.4983,-9.6914 2058.464,-6.2911 2058.5337,-13.2907"/>
</g>
<!-- Node106&#45;&gt;Node3 -->
<g id="edge29" class="edge">
<title>Node106&#45;&gt;Node3</title>
<path fill="none" stroke="#191970" d="M844.0421,-190.47C866.0107,-168.6322 921.1855,-114.4279 932,-110 995.0316,-84.1923 2006.6739,-69.0437 2282.8265,-65.3756"/>
<polygon fill="#191970" stroke="#191970" points="2283.158,-68.8716 2293.1108,-65.2398 2283.0655,-61.8723 2283.158,-68.8716"/>
</g>
<!-- Node106&#45;&gt;Node43 -->
<g id="edge30" class="edge">
<title>Node106&#45;&gt;Node43</title>
<path fill="none" stroke="#191970" d="M818.0135,-190.492C795.5641,-178.587 755.7821,-157.4905 729.3978,-143.4989"/>
<polygon fill="#191970" stroke="#191970" points="730.8148,-140.2886 720.3404,-138.6957 727.5353,-146.4729 730.8148,-140.2886"/>
</g>
<!-- Node88 -->
<g id="node13" class="node">
<title>Node88</title>
<g id="a_node13"><a xlink:title=" ">
<polygon fill="#ffffff" stroke="#bfbfbf" points="974.3301,-120.5 974.3301,-138.5 1003.6699,-138.5 1003.6699,-120.5 974.3301,-120.5"/>
<text text-anchor="middle" x="989" y="-126.5" font-family="FreeSans" font-size="10.00" fill="#000000">set</text>
</a>
</g>
</g>
<!-- Node106&#45;&gt;Node88 -->
<g id="edge28" class="edge">
<title>Node106&#45;&gt;Node88</title>
<path fill="none" stroke="#191970" d="M854.8175,-190.492C882.99,-177.6864 934.559,-154.2459 964.9047,-140.4524"/>
<polygon fill="#191970" stroke="#191970" points="966.6624,-143.4981 974.3177,-136.1738 963.7657,-137.1256 966.6624,-143.4981"/>
</g>
<!-- Node109&#45;&gt;Node1 -->
<g id="edge32" class="edge">
<title>Node109&#45;&gt;Node1</title>
<path fill="none" stroke="#191970" d="M1201.6772,-260.7342C1067.4362,-252.1956 758.249,-230.8016 743,-214 734.3378,-204.4559 737.0264,-196.421 743,-185 768.2624,-136.7002 898.486,-69.6061 951,-55 1059.6381,-24.7837 1873.9368,-12.4007 2058.7633,-9.9636"/>
<polygon fill="#191970" stroke="#191970" points="2058.8523,-13.4628 2068.8058,-9.8328 2058.7611,-6.4634 2058.8523,-13.4628"/>
</g>
<!-- Node109&#45;&gt;Node3 -->
<g id="edge33" class="edge">
<title>Node109&#45;&gt;Node3</title>
<path fill="none" stroke="#191970" d="M1266.3667,-255.3313C1277.1714,-227.415 1313.9369,-143.3391 1376,-110 1415.8346,-88.6016 2066.5975,-71.2798 2282.7938,-66.0921"/>
<polygon fill="#191970" stroke="#191970" points="2283.148,-69.5847 2293.0616,-65.847 2282.9809,-62.5867 2283.148,-69.5847"/>
</g>
<!-- Node109&#45;&gt;Node86 -->
<g id="edge36" class="edge">
<title>Node109&#45;&gt;Node86</title>
<path fill="none" stroke="#191970" d="M1247.3026,-255.4242C1232.9036,-246.4421 1211.7813,-231.5227 1198,-214 1183.7026,-195.8212 1173.4784,-171.4073 1167.2621,-153.4966"/>
<polygon fill="#191970" stroke="#191970" points="1170.52,-152.1999 1164.0646,-143.7988 1163.872,-154.3919 1170.52,-152.1999"/>
</g>
<!-- Node109&#45;&gt;Node71 -->
<g id="edge35" class="edge">
<title>Node109&#45;&gt;Node71</title>
<path fill="none" stroke="#191970" d="M1300.2128,-255.4615C1310.7486,-253.2659 1322.2701,-251.2052 1333,-250 1741.6193,-204.1021 2772.3013,-234.0736 3183,-214 3219.8892,-212.197 3260.8389,-209.101 3294.8147,-206.2316"/>
<polygon fill="#191970" stroke="#191970" points="3295.4575,-209.6895 3305.1228,-205.3501 3294.8609,-202.715 3295.4575,-209.6895"/>
</g>
<!-- Node109&#45;&gt;Node72 -->
<g id="edge34" class="edge">
<title>Node109&#45;&gt;Node72</title>
<path fill="none" stroke="#191970" d="M1300.5836,-255.4475C1311.0205,-253.2806 1322.3988,-251.238 1333,-250 1895.6249,-184.2975 2045.9897,-292.3013 2607,-214 2658.7784,-206.7732 2669.4847,-193.9114 2721,-185 2889.9065,-155.7818 2934.6552,-168.1251 3105,-149 3129.4998,-146.2493 3156.2154,-142.8723 3180.1723,-139.7061"/>
<polygon fill="#191970" stroke="#191970" points="3180.8051,-143.1528 3190.2562,-138.3645 3179.8819,-136.214 3180.8051,-143.1528"/>
</g>
<!-- Node111 -->
<g id="node15" class="node">
<title>Node111</title>
<g id="a_node15"><a xlink:href="Topology_8h_source.html" target="_top" xlink:title=" ">
<polygon fill="#ffffff" stroke="#000000" points="1595.7212,-120.5 1595.7212,-138.5 1728.2788,-138.5 1728.2788,-120.5 1595.7212,-120.5"/>
<text text-anchor="middle" x="1662" y="-126.5" font-family="FreeSans" font-size="10.00" fill="#000000">DGtal/topology/Topology.h</text>
</a>
</g>
</g>
<!-- Node109&#45;&gt;Node111 -->
<g id="edge37" class="edge">
<title>Node109&#45;&gt;Node111</title>
<path fill="none" stroke="#191970" d="M1269.4535,-255.3212C1281.9178,-238.367 1311.0856,-202.2966 1345,-185 1385.989,-164.0953 1505.4537,-147.1164 1585.4475,-137.6649"/>
<polygon fill="#191970" stroke="#191970" points="1585.9586,-141.1291 1595.4856,-136.4938 1585.1474,-134.1763 1585.9586,-141.1291"/>
</g>
<!-- Node112 -->
<g id="node16" class="node">
<title>Node112</title>
<g id="a_node16"><a xlink:title=" ">
<polygon fill="#ffffff" stroke="#bfbfbf" points="1354.0669,-190.5 1354.0669,-208.5 1497.9331,-208.5 1497.9331,-190.5 1354.0669,-190.5"/>
<text text-anchor="middle" x="1426" y="-196.5" font-family="FreeSans" font-size="10.00" fill="#000000">boost/graph/graph_traits.hpp</text>
</a>
</g>
</g>
<!-- Node109&#45;&gt;Node112 -->
<g id="edge38" class="edge">
<title>Node109&#45;&gt;Node112</title>
<path fill="none" stroke="#191970" d="M1285.6645,-255.462C1313.8073,-244.2394 1361.9916,-225.0248 1393.9194,-212.2929"/>
<polygon fill="#191970" stroke="#191970" points="1395.2736,-215.5209 1403.2659,-208.5658 1392.6807,-209.0188 1395.2736,-215.5209"/>
</g>
<!-- Node113 -->
<g id="node17" class="node">
<title>Node113</title>
<g id="a_node17"><a xlink:title=" ">
<polygon fill="#ffffff" stroke="#bfbfbf" points="1516.2368,-190.5 1516.2368,-208.5 1651.7632,-208.5 1651.7632,-190.5 1516.2368,-190.5"/>
<text text-anchor="middle" x="1584" y="-196.5" font-family="FreeSans" font-size="10.00" fill="#000000">boost/graph/properties.hpp</text>
</a>
</g>
</g>
<!-- Node109&#45;&gt;Node113 -->
<g id="edge39" class="edge">
<title>Node109&#45;&gt;Node113</title>
<path fill="none" stroke="#191970" d="M1306.3074,-255.4889C1315.1375,-253.663 1324.3665,-251.7627 1333,-250 1400.3682,-236.2456 1477.9663,-220.675 1528.8342,-210.505"/>
<polygon fill="#191970" stroke="#191970" points="1529.5203,-213.9372 1538.6405,-208.5452 1528.1484,-207.0729 1529.5203,-213.9372"/>
</g>
<!-- Node118&#45;&gt;Node1 -->
<g id="edge41" class="edge">
<title>Node118&#45;&gt;Node1</title>
<path fill="none" stroke="#191970" d="M882.3301,-261.4924C768.1084,-255.5828 542.7015,-240.6552 519,-214 510.4355,-204.3682 512.1644,-195.927 519,-185 538.397,-153.993 563.352,-170.4168 593,-149 612.6177,-134.8288 611.3114,-124.0726 631,-110 677.4188,-76.8216 691.5544,-68.4645 747,-55 877.383,-23.3376 1854.1817,-11.9108 2058.5709,-9.8544"/>
<polygon fill="#191970" stroke="#191970" points="2058.8263,-13.3521 2068.791,-9.753 2058.7567,-6.3525 2058.8263,-13.3521"/>
</g>
<!-- Node118&#45;&gt;Node3 -->
<g id="edge43" class="edge">
<title>Node118&#45;&gt;Node3</title>
<path fill="none" stroke="#191970" d="M957.5726,-250.4562C983.3014,-212.7561 1052.2621,-112.0319 1056,-110 1110.1972,-80.539 2021.7342,-68.1712 2282.7052,-65.2241"/>
<polygon fill="#191970" stroke="#191970" points="2282.8526,-68.7228 2292.8128,-65.111 2282.7742,-61.7232 2282.8526,-68.7228"/>
</g>
<!-- Node118&#45;&gt;Node43 -->
<g id="edge44" class="edge">
<title>Node118&#45;&gt;Node43</title>
<path fill="none" stroke="#191970" d="M882.703,-259.279C820.2683,-252.8271 732.4068,-239.4352 710,-214 694.3825,-196.2717 695.5964,-167.5586 698.6755,-148.6031"/>
<polygon fill="#191970" stroke="#191970" points="702.1229,-149.2102 700.5908,-138.7267 695.2509,-147.8774 702.1229,-149.2102"/>
</g>
<!-- Node118&#45;&gt;Node88 -->
<g id="edge42" class="edge">
<title>Node118&#45;&gt;Node88</title>
<path fill="none" stroke="#191970" d="M952.3102,-250.3078C959.719,-225.9132 974.8733,-176.0147 983.2004,-148.5962"/>
<polygon fill="#191970" stroke="#191970" points="986.6583,-149.2544 986.2154,-138.6688 979.9604,-147.2202 986.6583,-149.2544"/>
</g>
<!-- Node118&#45;&gt;Node119 -->
<g id="edge45" class="edge">
<title>Node118&#45;&gt;Node119</title>
<path fill="none" stroke="#191970" d="M882.7526,-252.5722C826.825,-242.3455 744.1109,-227.2149 672,-214 670.9027,-213.7989 669.7969,-213.5962 668.6841,-213.3923"/>
<polygon fill="#191970" stroke="#191970" points="668.9915,-209.8904 658.5242,-211.5295 667.729,-216.7756 668.9915,-209.8904"/>
</g>
<!-- Node119&#45;&gt;Node1 -->
<g id="edge46" class="edge">
<title>Node119&#45;&gt;Node1</title>
<path fill="none" stroke="#191970" d="M527.6518,-191.9235C462.1001,-181.4836 375.3364,-158.1985 409,-110 449.6587,-51.7862 489.2779,-68.4465 559,-55 710.1957,-25.8406 1837.3056,-12.2834 2058.423,-9.8904"/>
<polygon fill="#191970" stroke="#191970" points="2058.5877,-13.3889 2068.5496,-9.7818 2058.5126,-6.3893 2058.5877,-13.3889"/>
</g>
<!-- Node119&#45;&gt;Node3 -->
<g id="edge48" class="edge">
<title>Node119&#45;&gt;Node3</title>
<path fill="none" stroke="#191970" d="M647.4335,-185.4213C683.7467,-175.7782 732.4527,-162.3608 775,-149 824.8879,-133.3341 834.5972,-119.5904 886,-110 1023.9345,-84.2651 2011.1204,-69.1156 2282.8947,-65.4013"/>
<polygon fill="#191970" stroke="#191970" points="2283.0689,-68.8993 2293.0204,-65.2637 2282.9738,-61.9 2283.0689,-68.8993"/>
</g>
<!-- Node119&#45;&gt;Node43 -->
<g id="edge49" class="edge">
<title>Node119&#45;&gt;Node43</title>
<path fill="none" stroke="#191970" d="M615.2601,-185.3345C634.1426,-173.3184 661.1197,-156.1511 680.1643,-144.0318"/>
<polygon fill="#191970" stroke="#191970" points="682.2485,-146.8542 688.806,-138.5325 678.4903,-140.9485 682.2485,-146.8542"/>
</g>
<!-- Node119&#45;&gt;Node88 -->
<g id="edge47" class="edge">
<title>Node119&#45;&gt;Node88</title>
<path fill="none" stroke="#191970" d="M658.3913,-187.9409C747.7316,-172.1485 903.7351,-144.5721 964.1315,-133.8959"/>
<polygon fill="#191970" stroke="#191970" points="965.0205,-137.2931 974.2586,-132.1058 963.802,-130.4 965.0205,-137.2931"/>
</g>
<!-- Node122&#45;&gt;Node1 -->
<g id="edge52" class="edge">
<title>Node122&#45;&gt;Node1</title>
<path fill="none" stroke="#191970" d="M951.6908,-326.6869C814.3909,-319.8773 477.9608,-301.4048 367,-279 277.0391,-260.8354 247.0364,-265.3943 171,-214 109.6263,-172.5165 66.8778,-105.5805 121,-55 157.7822,-20.6248 1789.391,-11.0269 2058.5812,-9.6763"/>
<polygon fill="#191970" stroke="#191970" points="2058.6511,-13.1761 2068.6336,-9.6266 2058.6164,-6.1762 2058.6511,-13.1761"/>
</g>
<!-- Node122&#45;&gt;Node3 -->
<g id="edge55" class="edge">
<title>Node122&#45;&gt;Node3</title>
<path fill="none" stroke="#191970" d="M1013.8568,-315.4704C1023.1887,-271.145 1054.1842,-135.5281 1089,-110 1137.3761,-74.5289 2025.0108,-66.4561 2282.5204,-64.857"/>
<polygon fill="#191970" stroke="#191970" points="2282.8831,-68.355 2292.8616,-64.7942 2282.8405,-61.3551 2282.8831,-68.355"/>
</g>
<!-- Node122&#45;&gt;Node71 -->
<g id="edge56" class="edge">
<title>Node122&#45;&gt;Node71</title>
<path fill="none" stroke="#191970" d="M1070.292,-328.3036C1325.6259,-323.054 2332.736,-301.3246 2649,-279 2885.9311,-262.2754 3165.2107,-226.8714 3294.9494,-209.5164"/>
<polygon fill="#191970" stroke="#191970" points="3295.7113,-212.9456 3305.1571,-208.1468 3294.7804,-206.0078 3295.7113,-212.9456"/>
</g>
<!-- Node122&#45;&gt;Node118 -->
<g id="edge60" class="edge">
<title>Node122&#45;&gt;Node118</title>
<path fill="none" stroke="#191970" d="M997.3299,-315.396C988.9917,-306.7931 978.1683,-295.626 968.7849,-285.9448"/>
<polygon fill="#191970" stroke="#191970" points="971.1164,-283.3213 961.6434,-278.5765 966.0899,-288.1931 971.1164,-283.3213"/>
</g>
<!-- Node58 -->
<g id="node21" class="node">
<title>Node58</title>
<g id="a_node21"><a xlink:title=" ">
<polygon fill="#ffffff" stroke="#bfbfbf" points="2962.3843,-190.5 2962.3843,-208.5 3005.6157,-208.5 3005.6157,-190.5 2962.3843,-190.5"/>
<text text-anchor="middle" x="2984" y="-196.5" font-family="FreeSans" font-size="10.00" fill="#000000">vector</text>
</a>
</g>
</g>
<!-- Node122&#45;&gt;Node58 -->
<g id="edge53" class="edge">
<title>Node122&#45;&gt;Node58</title>
<path fill="none" stroke="#191970" d="M1070.397,-328.3089C1309.8274,-323.3774 2204.753,-303.6568 2487,-279 2693.1304,-260.9927 2748.1182,-267.4912 2948,-214 2950.1683,-213.4197 2952.3818,-212.745 2954.5922,-212.0101"/>
<polygon fill="#191970" stroke="#191970" points="2955.9336,-215.2461 2964.1117,-208.5104 2953.5181,-208.676 2955.9336,-215.2461"/>
</g>
<!-- Node124 -->
<g id="node22" class="node">
<title>Node124</title>
<g id="a_node22"><a xlink:title=" ">
<polygon fill="#ffffff" stroke="#bfbfbf" points="424.4385,-190.5 424.4385,-208.5 471.5615,-208.5 471.5615,-190.5 424.4385,-190.5"/>
<text text-anchor="middle" x="448" y="-196.5" font-family="FreeSans" font-size="10.00" fill="#000000">iterator</text>
</a>
</g>
</g>
<!-- Node122&#45;&gt;Node124 -->
<g id="edge54" class="edge">
<title>Node122&#45;&gt;Node124</title>
<path fill="none" stroke="#191970" d="M951.6157,-319.3995C853.5525,-302.0626 652.0869,-263.6598 486,-214 484.0719,-213.4235 482.1021,-212.7957 480.1239,-212.135"/>
<polygon fill="#191970" stroke="#191970" points="480.9101,-208.6999 470.3154,-208.6448 478.5633,-215.2948 480.9101,-208.6999"/>
</g>
<!-- Node146 -->
<g id="node23" class="node">
<title>Node146</title>
<g id="a_node23"><a xlink:href="CCellularGridSpaceND_8h_source.html" target="_top" xlink:title=" ">
<polygon fill="#ffffff" stroke="#ff0000" points="1941.9756,-115.5 1941.9756,-143.5 2068.0244,-143.5 2068.0244,-115.5 1941.9756,-115.5"/>
<text text-anchor="start" x="1949.9756" y="-131.5" font-family="FreeSans" font-size="10.00" fill="#000000">DGtal/topology/CCellular</text>
<text text-anchor="middle" x="2005" y="-121.5" font-family="FreeSans" font-size="10.00" fill="#000000">GridSpaceND.h</text>
</a>
</g>
</g>
<!-- Node122&#45;&gt;Node146 -->
<g id="edge57" class="edge">
<title>Node122&#45;&gt;Node146</title>
<path fill="none" stroke="#191970" d="M1042.8582,-315.4951C1079.1652,-299.5551 1140.3021,-272.7768 1193,-250 1260.4433,-220.85 1273.703,-202.7498 1345,-185 1373.0919,-178.0064 1765.5054,-147.6641 1931.592,-135.0411"/>
<polygon fill="#191970" stroke="#191970" points="1932.0148,-138.5192 1941.7211,-134.2719 1931.4847,-131.5393 1932.0148,-138.5192"/>
</g>
<!-- Node122&#45;&gt;Node148 -->
<g id="edge61" class="edge">
<title>Node122&#45;&gt;Node148</title>
<path fill="none" stroke="#191970" d="M951.7123,-322.5439C853.7614,-311.0514 657.6938,-288.0471 544.0124,-274.709"/>
<polygon fill="#191970" stroke="#191970" points="544.2892,-271.2176 533.9494,-273.5284 543.4734,-278.1699 544.2892,-271.2176"/>
</g>
<!-- Node146&#45;&gt;Node1 -->
<g id="edge58" class="edge">
<title>Node146&#45;&gt;Node1</title>
<path fill="none" stroke="#191970" d="M2015.7962,-115.2632C2032.5784,-93.1328 2064.8684,-50.5526 2082.9382,-26.7243"/>
<polygon fill="#191970" stroke="#191970" points="2085.8518,-28.6747 2089.1054,-18.5918 2080.2741,-24.445 2085.8518,-28.6747"/>
</g>
<!-- Node146&#45;&gt;Node3 -->
<g id="edge59" class="edge">
<title>Node146&#45;&gt;Node3</title>
<path fill="none" stroke="#191970" d="M2068.2417,-117.6536C2132.4968,-105.6173 2231.202,-87.1279 2293.6406,-75.4319"/>
<polygon fill="#191970" stroke="#191970" points="2294.5345,-78.8254 2303.7191,-73.544 2293.2456,-71.9451 2294.5345,-78.8254"/>
</g>
<!-- Node148&#45;&gt;Node1 -->
<g id="edge62" class="edge">
<title>Node148&#45;&gt;Node1</title>
<path fill="none" stroke="#191970" d="M390.2627,-255.4802C329.4742,-246.3797 244.917,-231.2374 216,-214 148.5564,-173.7968 84.129,-111.1615 139,-55 173.8441,-19.3364 1790.2245,-10.82 2058.4681,-9.6514"/>
<polygon fill="#191970" stroke="#191970" points="2058.5054,-13.1514 2068.4902,-9.6085 2058.4753,-6.1514 2058.5054,-13.1514"/>
</g>
<!-- Node148&#45;&gt;Node3 -->
<g id="edge64" class="edge">
<title>Node148&#45;&gt;Node3</title>
<path fill="none" stroke="#191970" d="M537.7366,-260.4402C664.0254,-253.4082 897.0422,-237.4314 927,-214 965.7627,-183.6819 925.1388,-138.8586 965,-110 1018.7985,-71.0511 2009.266,-65.4419 2282.6306,-64.6352"/>
<polygon fill="#191970" stroke="#191970" points="2282.8265,-68.1348 2292.8166,-64.6064 2282.8067,-61.1348 2282.8265,-68.1348"/>
</g>
<!-- Node148&#45;&gt;Node43 -->
<g id="edge68" class="edge">
<title>Node148&#45;&gt;Node43</title>
<path fill="none" stroke="#191970" d="M445.7291,-255.4421C427.7245,-239.8967 396.3151,-207.6294 415,-185 418.6314,-180.602 558.3218,-155.1622 641.7931,-140.2969"/>
<polygon fill="#191970" stroke="#191970" points="642.4482,-143.7354 651.681,-138.5386 641.2226,-136.8436 642.4482,-143.7354"/>
</g>
<!-- Node148&#45;&gt;Node71 -->
<g id="edge65" class="edge">
<title>Node148&#45;&gt;Node71</title>
<path fill="none" stroke="#191970" d="M537.7067,-261.235C621.6968,-257.9449 757.0471,-252.9448 874,-250 1900.0217,-224.1654 2157.7818,-262.1223 3183,-214 3219.8926,-212.2683 3260.8427,-209.1798 3294.8179,-206.2969"/>
<polygon fill="#191970" stroke="#191970" points="3295.4624,-209.7545 3305.1257,-205.4105 3294.8626,-202.7802 3295.4624,-209.7545"/>
</g>
<!-- Node148&#45;&gt;Node124 -->
<g id="edge63" class="edge">
<title>Node148&#45;&gt;Node124</title>
<path fill="none" stroke="#191970" d="M455.7486,-255.462C454.4469,-246.061 452.3687,-231.0518 450.6921,-218.943"/>
<polygon fill="#191970" stroke="#191970" points="454.1376,-218.3076 449.2991,-208.8821 447.2038,-219.2677 454.1376,-218.3076"/>
</g>
<!-- Node38 -->
<g id="node25" class="node">
<title>Node38</title>
<g id="a_node25"><a xlink:href="BasicBoolFunctors_8h_source.html" target="_top" xlink:title=" ">
<polygon fill="#ffffff" stroke="#ff0000" points="147.7441,-55.5 147.7441,-73.5 308.2559,-73.5 308.2559,-55.5 147.7441,-55.5"/>
<text text-anchor="middle" x="228" y="-61.5" font-family="FreeSans" font-size="10.00" fill="#000000">DGtal/base/BasicBoolFunctors.h</text>
</a>
</g>
</g>
<!-- Node148&#45;&gt;Node38 -->
<g id="edge66" class="edge">
<title>Node148&#45;&gt;Node38</title>
<path fill="none" stroke="#191970" d="M421.5347,-255.4673C351.6301,-236.8689 200.2738,-192.3929 171,-149 161.3062,-134.6308 163.483,-125.6186 171,-110 177.2393,-97.0361 189.1691,-86.6167 200.5087,-79.0369"/>
<polygon fill="#191970" stroke="#191970" points="202.6874,-81.8051 209.3564,-73.5725 199.0091,-75.8494 202.6874,-81.8051"/>
</g>
<!-- Node38&#45;&gt;Node1 -->
<g id="edge67" class="edge">
<title>Node38&#45;&gt;Node1</title>
<path fill="none" stroke="#191970" d="M308.468,-56.3037C314.7346,-55.8104 320.9679,-55.3665 327,-55 680.9468,-33.4922 1834.9836,-13.7758 2058.3665,-10.1087"/>
<polygon fill="#191970" stroke="#191970" points="2058.6438,-13.6047 2068.5852,-9.9415 2058.5292,-6.6056 2058.6438,-13.6047"/>
</g>
<!-- Node152&#45;&gt;Node1 -->
<g id="edge70" class="edge">
<title>Node152&#45;&gt;Node1</title>
<path fill="none" stroke="#191970" d="M290.2792,-110.3584C309.9458,-92.256 342.285,-66.239 376,-55 458.5048,-27.4968 1814.6324,-12.376 2058.5679,-9.8724"/>
<polygon fill="#191970" stroke="#191970" points="2058.738,-13.3709 2068.7018,-9.7691 2058.6666,-6.3713 2058.738,-13.3709"/>
</g>
<!-- Node152&#45;&gt;Node3 -->
<g id="edge71" class="edge">
<title>Node152&#45;&gt;Node3</title>
<path fill="none" stroke="#191970" d="M362.507,-115.0397C377.9899,-113.0324 393.928,-111.2371 409,-110 784.1368,-79.2097 1981.1475,-67.529 2282.5805,-65.0356"/>
<polygon fill="#191970" stroke="#191970" points="2282.9519,-68.5327 2292.9228,-64.9507 2282.8944,-61.533 2282.9519,-68.5327"/>
</g>
<!-- Node157&#45;&gt;Node1 -->
<g id="edge73" class="edge">
<title>Node157&#45;&gt;Node1</title>
<path fill="none" stroke="#191970" d="M518.529,-110.4035C536.4836,-92.3354 566.2006,-66.3437 598,-55 668.7898,-29.7473 1832.4388,-13.0095 2058.222,-9.9913"/>
<polygon fill="#191970" stroke="#191970" points="2058.5989,-13.4867 2068.5515,-9.854 2058.5059,-6.4873 2058.5989,-13.4867"/>
</g>
<!-- Node157&#45;&gt;Node3 -->
<g id="edge74" class="edge">
<title>Node157&#45;&gt;Node3</title>
<path fill="none" stroke="#191970" d="M584.0403,-115.4969C599.6044,-113.3123 615.768,-111.3387 631,-110 959.8695,-81.0969 2002.6899,-68.1951 2282.3949,-65.2011"/>
<polygon fill="#191970" stroke="#191970" points="2282.8408,-68.6967 2292.8031,-65.0906 2282.7664,-61.6971 2282.8408,-68.6967"/>
</g>
<!-- Node159&#45;&gt;Node1 -->
<g id="edge76" class="edge">
<title>Node159&#45;&gt;Node1</title>
<path fill="none" stroke="#191970" d="M3911.5231,-190.4539C3924.9252,-173.1874 3949.837,-135.0267 3931,-110 3877.8762,-39.4201 3827.2926,-68.5522 3740,-55 3576.6557,-29.6407 2363.5818,-12.9292 2133.5823,-9.971"/>
<polygon fill="#191970" stroke="#191970" points="2133.4251,-6.4688 2123.3811,-9.8406 2133.3355,-13.4682 2133.4251,-6.4688"/>
</g>
<!-- Node159&#45;&gt;Node3 -->
<g id="edge78" class="edge">
<title>Node159&#45;&gt;Node3</title>
<path fill="none" stroke="#191970" d="M3876.4054,-190.4064C3817.3343,-171.4125 3673.9251,-127.8176 3550,-110 3329.8368,-78.3455 2642.2387,-67.8317 2421.1849,-65.2227"/>
<polygon fill="#191970" stroke="#191970" points="2421.055,-61.7211 2411.0149,-65.1044 2420.9735,-68.7206 2421.055,-61.7211"/>
</g>
<!-- Node160 -->
<g id="node29" class="node">
<title>Node160</title>
<g id="a_node29"><a xlink:title=" ">
<polygon fill="#ffffff" stroke="#bfbfbf" points="3977.625,-120.5 3977.625,-138.5 4062.375,-138.5 4062.375,-120.5 3977.625,-120.5"/>
<text text-anchor="middle" x="4020" y="-126.5" font-family="FreeSans" font-size="10.00" fill="#000000">boost/array.hpp</text>
</a>
</g>
</g>
<!-- Node159&#45;&gt;Node160 -->
<g id="edge77" class="edge">
<title>Node159&#45;&gt;Node160</title>
<path fill="none" stroke="#191970" d="M3919.165,-190.3487C3938.7042,-178.5578 3972.8975,-157.9239 3995.9873,-143.9905"/>
<polygon fill="#191970" stroke="#191970" points="3998.0778,-146.8169 4004.8313,-138.6535 3994.4611,-140.8236 3998.0778,-146.8169"/>
</g>
<!-- Node161 -->
<g id="node30" class="node">
<title>Node161</title>
<g id="a_node30"><a xlink:href="SurfelAdjacency_8ih_source.html" target="_top" xlink:title=" ">
<polygon fill="#ffffff" stroke="#000000" points="3754.4946,-120.5 3754.4946,-138.5 3921.5054,-138.5 3921.5054,-120.5 3754.4946,-120.5"/>
<text text-anchor="middle" x="3838" y="-126.5" font-family="FreeSans" font-size="10.00" fill="#000000">DGtal/topology/SurfelAdjacency.ih</text>
</a>
</g>
</g>
<!-- Node159&#45;&gt;Node161 -->
<g id="edge79" class="edge">
<title>Node159&#45;&gt;Node161</title>
<path fill="none" stroke="#191970" d="M3895.3717,-190.3487C3884.8564,-179.1962 3866.8819,-160.1324 3853.8496,-146.3101"/>
<polygon fill="#191970" stroke="#191970" points="3856.2479,-143.7518 3846.8411,-138.8769 3851.1547,-148.5539 3856.2479,-143.7518"/>
</g>
<!-- Node162&#45;&gt;Node1 -->
<g id="edge81" class="edge">
<title>Node162&#45;&gt;Node1</title>
<path fill="none" stroke="#191970" d="M2322.0347,-260.9916C2158.5359,-253.2564 1793.3029,-233.8414 1775,-214 1681.2225,-112.3396 1955.3852,-40.2092 2058.5063,-17.2807"/>
<polygon fill="#191970" stroke="#191970" points="2059.483,-20.6499 2068.5038,-15.0933 2057.9868,-13.8116 2059.483,-20.6499"/>
</g>
<!-- Node162&#45;&gt;Node3 -->
<g id="edge86" class="edge">
<title>Node162&#45;&gt;Node3</title>
<path fill="none" stroke="#191970" d="M2397.7817,-255.197C2394.2408,-240.3523 2387.0895,-210.391 2381,-185 2372.3791,-149.0539 2362.269,-107.0874 2356.5507,-83.3684"/>
<polygon fill="#191970" stroke="#191970" points="2359.9343,-82.4695 2354.1876,-73.5686 2353.1294,-84.1104 2359.9343,-82.4695"/>
</g>
<!-- Node162&#45;&gt;Node72 -->
<g id="edge87" class="edge">
<title>Node162&#45;&gt;Node72</title>
<path fill="none" stroke="#191970" d="M2477.7921,-257.9974C2616.7351,-246.2257 2894.9878,-221.8729 2915,-214 2934.7703,-206.2223 2933.5762,-193.6067 2953,-185 2992.7529,-167.3854 3104.6877,-149.6109 3180.2719,-139.0794"/>
<polygon fill="#191970" stroke="#191970" points="3180.7957,-142.5403 3190.223,-137.7053 3179.8382,-135.6061 3180.7957,-142.5403"/>
</g>
<!-- Node162&#45;&gt;Node88 -->
<g id="edge83" class="edge">
<title>Node162&#45;&gt;Node88</title>
<path fill="none" stroke="#191970" d="M2322.0352,-261.129C2172.5222,-254.2333 1850.6887,-237.1891 1742,-214 1704.6039,-206.0214 1698.45,-192.7214 1661,-185 1411.5222,-133.5629 1341.6505,-181.4448 1089,-149 1063.1239,-145.6771 1033.8705,-139.7103 1013.7207,-135.2491"/>
<polygon fill="#191970" stroke="#191970" points="1014.3362,-131.8001 1003.8111,-133.0138 1012.7958,-138.6285 1014.3362,-131.8001"/>
</g>
<!-- Node162&#45;&gt;Node112 -->
<g id="edge84" class="edge">
<title>Node162&#45;&gt;Node112</title>
<path fill="none" stroke="#191970" d="M2322.0856,-263.2514C2166.603,-260.0635 1806.966,-249.2003 1507,-214 1498.5356,-213.0067 1489.6175,-211.689 1480.9168,-210.2519"/>
<polygon fill="#191970" stroke="#191970" points="1481.2912,-206.765 1470.8431,-208.5224 1480.1066,-213.6641 1481.2912,-206.765"/>
</g>
<!-- Node162&#45;&gt;Node113 -->
<g id="edge85" class="edge">
<title>Node162&#45;&gt;Node113</title>
<path fill="none" stroke="#191970" d="M2322.0637,-261.8616C2187.7217,-256.706 1904.0381,-243.1509 1666,-214 1657.6457,-212.9769 1648.8504,-211.6692 1640.2466,-210.2593"/>
<polygon fill="#191970" stroke="#191970" points="1640.7168,-206.7892 1630.2724,-208.5682 1639.5466,-213.6907 1640.7168,-206.7892"/>
</g>
<!-- Node162&#45;&gt;Node58 -->
<g id="edge82" class="edge">
<title>Node162&#45;&gt;Node58</title>
<path fill="none" stroke="#191970" d="M2477.8158,-258.5892C2618.2073,-247.7389 2903.4841,-224.771 2948,-214 2950.3208,-213.4385 2952.6889,-212.7545 2955.0467,-211.9929"/>
<polygon fill="#191970" stroke="#191970" points="2956.3351,-215.2486 2964.5342,-208.5385 2953.9402,-208.671 2956.3351,-215.2486"/>
</g>
<!-- Node163 -->
<g id="node32" class="node">
<title>Node163</title>
<g id="a_node32"><a xlink:href="CWithGradientMap_8h_source.html" target="_top" xlink:title=" ">
<polygon fill="#ffffff" stroke="#ff0000" points="2467.0347,-115.5 2467.0347,-143.5 2606.9653,-143.5 2606.9653,-115.5 2467.0347,-115.5"/>
<text text-anchor="start" x="2475.0347" y="-131.5" font-family="FreeSans" font-size="10.00" fill="#000000">DGtal/kernel/CWithGradient</text>
<text text-anchor="middle" x="2537" y="-121.5" font-family="FreeSans" font-size="10.00" fill="#000000">Map.h</text>
</a>
</g>
</g>
<!-- Node162&#45;&gt;Node163 -->
<g id="edge88" class="edge">
<title>Node162&#45;&gt;Node163</title>
<path fill="none" stroke="#191970" d="M2477.7602,-255.5412C2529.5156,-247.7934 2590.8637,-234.5462 2607,-214 2624.7597,-191.3867 2597.2433,-166.0644 2571.6665,-149.0886"/>
<polygon fill="#191970" stroke="#191970" points="2573.4525,-146.0767 2563.1352,-143.6676 2569.6983,-151.9848 2573.4525,-146.0767"/>
</g>
<!-- Node164 -->
<g id="node33" class="node">
<title>Node164</title>
<g id="a_node33"><a xlink:href="CCellEmbedder_8h_source.html" target="_top" xlink:title=" ">
<polygon fill="#ffffff" stroke="#ff0000" points="1784.3477,-190.5 1784.3477,-208.5 1947.6523,-208.5 1947.6523,-190.5 1784.3477,-190.5"/>
<text text-anchor="middle" x="1866" y="-196.5" font-family="FreeSans" font-size="10.00" fill="#000000">DGtal/topology/CCellEmbedder.h</text>
</a>
</g>
</g>
<!-- Node162&#45;&gt;Node164 -->
<g id="edge91" class="edge">
<title>Node162&#45;&gt;Node164</title>
<path fill="none" stroke="#191970" d="M2321.9644,-256.3388C2234.2859,-246.9748 2087.7645,-230.7427 1962,-214 1952.7615,-212.7701 1943.0353,-211.3951 1933.4631,-209.9949"/>
<polygon fill="#191970" stroke="#191970" points="1933.975,-206.5326 1923.5705,-208.5318 1932.9508,-213.4573 1933.975,-206.5326"/>
</g>
<!-- Node165 -->
<g id="node34" class="node">
<title>Node165</title>
<g id="a_node34"><a xlink:href="CSCellEmbedder_8h_source.html" target="_top" xlink:title=" ">
<polygon fill="#ffffff" stroke="#ff0000" points="2428.0127,-190.5 2428.0127,-208.5 2597.9873,-208.5 2597.9873,-190.5 2428.0127,-190.5"/>
<text text-anchor="middle" x="2513" y="-196.5" font-family="FreeSans" font-size="10.00" fill="#000000">DGtal/topology/CSCellEmbedder.h</text>
</a>
</g>
</g>
<!-- Node162&#45;&gt;Node165 -->
<g id="edge95" class="edge">
<title>Node162&#45;&gt;Node165</title>
<path fill="none" stroke="#191970" d="M2415.7122,-255.462C2434.4964,-244.6569 2466.1599,-226.4434 2488.2442,-213.74"/>
<polygon fill="#191970" stroke="#191970" points="2490.1339,-216.6908 2497.057,-208.6708 2486.6436,-210.6231 2490.1339,-216.6908"/>
</g>
<!-- Node166 -->
<g id="node35" class="node">
<title>Node166</title>
<g id="a_node35"><a xlink:href="CDigitalSurfaceContainer_8h_source.html" target="_top" xlink:title=" ">
<polygon fill="#ffffff" stroke="#000000" points="2003.8008,-185.5 2003.8008,-213.5 2158.1992,-213.5 2158.1992,-185.5 2003.8008,-185.5"/>
<text text-anchor="start" x="2011.8008" y="-201.5" font-family="FreeSans" font-size="10.00" fill="#000000">DGtal/topology/CDigitalSurface</text>
<text text-anchor="middle" x="2081" y="-191.5" font-family="FreeSans" font-size="10.00" fill="#000000">Container.h</text>
</a>
</g>
</g>
<!-- Node162&#45;&gt;Node166 -->
<g id="edge99" class="edge">
<title>Node162&#45;&gt;Node166</title>
<path fill="none" stroke="#191970" d="M2355.6444,-255.462C2305.129,-245.1689 2221.6191,-228.1528 2159.9232,-215.5815"/>
<polygon fill="#191970" stroke="#191970" points="2160.3291,-212.0924 2149.8316,-213.5253 2158.9315,-218.9515 2160.3291,-212.0924"/>
</g>
<!-- Node167 -->
<g id="node36" class="node">
<title>Node167</title>
<g id="a_node36"><a xlink:href="CDigitalSurfaceTracker_8h_source.html" target="_top" xlink:title=" ">
<polygon fill="#ffffff" stroke="#000000" points="2624.8008,-115.5 2624.8008,-143.5 2779.1992,-143.5 2779.1992,-115.5 2624.8008,-115.5"/>
<text text-anchor="start" x="2632.8008" y="-131.5" font-family="FreeSans" font-size="10.00" fill="#000000">DGtal/topology/CDigitalSurface</text>
<text text-anchor="middle" x="2702" y="-121.5" font-family="FreeSans" font-size="10.00" fill="#000000">Tracker.h</text>
</a>
</g>
</g>
<!-- Node162&#45;&gt;Node167 -->
<g id="edge107" class="edge">
<title>Node162&#45;&gt;Node167</title>
<path fill="none" stroke="#191970" d="M2457.9016,-255.4712C2514.5226,-245.9311 2596.1643,-230.0694 2624,-214 2650.5393,-198.6789 2673.2944,-171.3529 2687.2624,-151.9257"/>
<polygon fill="#191970" stroke="#191970" points="2690.1994,-153.8328 2693.0438,-143.6269 2684.4557,-149.8314 2690.1994,-153.8328"/>
</g>
<!-- Node168 -->
<g id="node37" class="node">
<title>Node168</title>
<g id="a_node37"><a xlink:href="UmbrellaComputer_8h_source.html" target="_top" xlink:title=" ">
<polygon fill="#ffffff" stroke="#ff0000" points="2729.6826,-190.5 2729.6826,-208.5 2906.3174,-208.5 2906.3174,-190.5 2729.6826,-190.5"/>
<text text-anchor="middle" x="2818" y="-196.5" font-family="FreeSans" font-size="10.00" fill="#000000">DGtal/topology/UmbrellaComputer.h</text>
</a>
</g>
</g>
<!-- Node162&#45;&gt;Node168 -->
<g id="edge108" class="edge">
<title>Node162&#45;&gt;Node168</title>
<path fill="none" stroke="#191970" d="M2458.1211,-255.462C2534.5981,-243.5697 2668.7876,-222.7029 2749.9258,-210.0857"/>
<polygon fill="#191970" stroke="#191970" points="2750.6933,-213.5085 2760.0368,-208.5134 2749.6177,-206.5916 2750.6933,-213.5085"/>
</g>
<!-- Node170 -->
<g id="node38" class="node">
<title>Node170</title>
<g id="a_node38"><a xlink:href="DigitalSurface_8ih_source.html" target="_top" xlink:title=" ">
<polygon fill="#ffffff" stroke="#000000" points="2214.1309,-190.5 2214.1309,-208.5 2371.8691,-208.5 2371.8691,-190.5 2214.1309,-190.5"/>
<text text-anchor="middle" x="2293" y="-196.5" font-family="FreeSans" font-size="10.00" fill="#000000">DGtal/topology/DigitalSurface.ih</text>
</a>
</g>
</g>
<!-- Node162&#45;&gt;Node170 -->
<g id="edge112" class="edge">
<title>Node162&#45;&gt;Node170</title>
<path fill="none" stroke="#191970" d="M2385.1221,-255.462C2367.4147,-244.7052 2337.6205,-226.6059 2316.7219,-213.9105"/>
<polygon fill="#191970" stroke="#191970" points="2318.4603,-210.8714 2308.0965,-208.6708 2314.8259,-216.854 2318.4603,-210.8714"/>
</g>
<!-- Node163&#45;&gt;Node1 -->
<g id="edge89" class="edge">
<title>Node163&#45;&gt;Node1</title>
<path fill="none" stroke="#191970" d="M2525.9193,-115.4802C2511.2722,-98.0617 2483.7063,-68.9397 2453,-55 2396.5103,-29.3554 2212.8398,-16.1176 2133.2937,-11.4697"/>
<polygon fill="#191970" stroke="#191970" points="2133.4132,-7.9709 2123.2299,-10.8952 2133.0142,-14.9595 2133.4132,-7.9709"/>
</g>
<!-- Node163&#45;&gt;Node3 -->
<g id="edge90" class="edge">
<title>Node163&#45;&gt;Node3</title>
<path fill="none" stroke="#191970" d="M2496.8578,-115.396C2464.2546,-103.9408 2418.7119,-87.9393 2387.443,-76.953"/>
<polygon fill="#191970" stroke="#191970" points="2388.4217,-73.5871 2377.8269,-73.5743 2386.1013,-80.1913 2388.4217,-73.5871"/>
</g>
<!-- Node164&#45;&gt;Node1 -->
<g id="edge92" class="edge">
<title>Node164&#45;&gt;Node1</title>
<path fill="none" stroke="#191970" d="M1866.1799,-190.2566C1866.9922,-172.6529 1871.092,-133.9408 1891,-110 1934.7057,-57.4407 2012.5586,-30.0869 2058.7169,-17.8311"/>
<polygon fill="#191970" stroke="#191970" points="2059.7932,-21.1687 2068.6175,-15.3051 2058.0626,-14.386 2059.7932,-21.1687"/>
</g>
<!-- Node164&#45;&gt;Node3 -->
<g id="edge93" class="edge">
<title>Node164&#45;&gt;Node3</title>
<path fill="none" stroke="#191970" d="M1869.7428,-190.4475C1878.0129,-171.7296 1899.7825,-128.9388 1933,-110 1962.6646,-93.0868 2171.8562,-76.6464 2282.9835,-68.9822"/>
<polygon fill="#191970" stroke="#191970" points="2283.3582,-72.4649 2293.096,-68.2903 2282.8804,-65.4812 2283.3582,-72.4649"/>
</g>
<!-- Node164&#45;&gt;Node146 -->
<g id="edge94" class="edge">
<title>Node164&#45;&gt;Node146</title>
<path fill="none" stroke="#191970" d="M1883.8873,-190.492C1905.0073,-179.856 1940.6953,-161.8837 1967.8758,-148.1957"/>
<polygon fill="#191970" stroke="#191970" points="1969.74,-151.1756 1977.0972,-143.5518 1966.5915,-144.9237 1969.74,-151.1756"/>
</g>
<!-- Node165&#45;&gt;Node1 -->
<g id="edge96" class="edge">
<title>Node165&#45;&gt;Node1</title>
<path fill="none" stroke="#191970" d="M2500.1205,-190.365C2487.8837,-181.1246 2469.6677,-165.8335 2458,-149 2432.3296,-111.9643 2455.5138,-82.7378 2420,-55 2376.0159,-20.6466 2208.6495,-12.2235 2133.2352,-10.1639"/>
<polygon fill="#191970" stroke="#191970" points="2133.3111,-6.6648 2123.2266,-9.9134 2133.1359,-13.6626 2133.3111,-6.6648"/>
</g>
<!-- Node165&#45;&gt;Node3 -->
<g id="edge97" class="edge">
<title>Node165&#45;&gt;Node3</title>
<path fill="none" stroke="#191970" d="M2492.9115,-190.4063C2474.2398,-181.4116 2446.1994,-166.4836 2425,-149 2400.6739,-128.9378 2377.7913,-100.2589 2364.3375,-82.0108"/>
<polygon fill="#191970" stroke="#191970" points="2366.8968,-79.5766 2358.2038,-73.5199 2361.2225,-83.6756 2366.8968,-79.5766"/>
</g>
<!-- Node165&#45;&gt;Node146 -->
<g id="edge98" class="edge">
<title>Node165&#45;&gt;Node146</title>
<path fill="none" stroke="#191970" d="M2447.6279,-190.492C2352.6763,-177.4082 2177.1568,-153.2224 2078.0598,-139.5673"/>
<polygon fill="#191970" stroke="#191970" points="2078.5107,-136.0964 2068.1265,-138.1985 2077.5551,-143.0309 2078.5107,-136.0964"/>
</g>
<!-- Node166&#45;&gt;Node1 -->
<g id="edge100" class="edge">
<title>Node166&#45;&gt;Node1</title>
<path fill="none" stroke="#191970" d="M2082.1274,-185.2191C2084.7825,-151.5883 2091.4322,-67.3592 2094.4577,-29.0353"/>
<polygon fill="#191970" stroke="#191970" points="2097.974,-28.9667 2095.2719,-18.7223 2090.9957,-28.4158 2097.974,-28.9667"/>
</g>
<!-- Node166&#45;&gt;Node3 -->
<g id="edge101" class="edge">
<title>Node166&#45;&gt;Node3</title>
<path fill="none" stroke="#191970" d="M2091.3625,-185.3572C2106.7122,-165.4542 2137.428,-129.4445 2172,-110 2205.8804,-90.9445 2247.7847,-79.7451 2282.6346,-73.2289"/>
<polygon fill="#191970" stroke="#191970" points="2283.5014,-76.6298 2292.7342,-71.4331 2282.2759,-69.7379 2283.5014,-76.6298"/>
</g>
<!-- Node166&#45;&gt;Node111 -->
<g id="edge102" class="edge">
<title>Node166&#45;&gt;Node111</title>
<path fill="none" stroke="#191970" d="M2003.6607,-186.5793C1923.8269,-173.242 1800.7168,-152.6747 1726.1184,-140.2119"/>
<polygon fill="#191970" stroke="#191970" points="1726.3638,-136.7045 1715.9237,-138.5087 1725.2103,-143.6088 1726.3638,-136.7045"/>
</g>
<!-- Node166&#45;&gt;Node146 -->
<g id="edge103" class="edge">
<title>Node166&#45;&gt;Node146</title>
<path fill="none" stroke="#191970" d="M2065.6203,-185.3345C2054.8039,-175.372 2040.1432,-161.8687 2027.9489,-150.6371"/>
<polygon fill="#191970" stroke="#191970" points="2030.0835,-147.8448 2020.3569,-143.6445 2025.3412,-152.9937 2030.0835,-147.8448"/>
</g>
<!-- Node166&#45;&gt;Node167 -->
<g id="edge104" class="edge">
<title>Node166&#45;&gt;Node167</title>
<path fill="none" stroke="#191970" d="M2158.3533,-190.1034C2173.7961,-188.3266 2189.9066,-186.5432 2205,-185 2387.4151,-166.3496 2434.8371,-177.3391 2616,-149 2622.1542,-148.0373 2628.5246,-146.888 2634.887,-145.6358"/>
<polygon fill="#191970" stroke="#191970" points="2635.7522,-149.0314 2644.8462,-143.5954 2634.3472,-142.1738 2635.7522,-149.0314"/>
</g>
<!-- Node167&#45;&gt;Node1 -->
<g id="edge105" class="edge">
<title>Node167&#45;&gt;Node1</title>
<path fill="none" stroke="#191970" d="M2667.9655,-115.4831C2625.27,-98.4842 2549.4613,-70.2221 2482,-55 2356.1559,-26.6044 2202.9904,-15.2444 2133.4998,-11.3124"/>
<polygon fill="#191970" stroke="#191970" points="2133.6506,-7.8155 2123.4744,-10.7642 2133.2684,-14.805 2133.6506,-7.8155"/>
</g>
<!-- Node167&#45;&gt;Node3 -->
<g id="edge106" class="edge">
<title>Node167&#45;&gt;Node3</title>
<path fill="none" stroke="#191970" d="M2641.9405,-115.461C2633.2525,-113.5527 2624.4078,-111.6766 2616,-110 2549.4762,-96.7348 2473.0617,-83.8159 2419.6195,-75.1545"/>
<polygon fill="#191970" stroke="#191970" points="2420.0116,-71.6725 2409.5816,-73.5339 2418.8959,-78.583 2420.0116,-71.6725"/>
</g>
<!-- Node168&#45;&gt;Node1 -->
<g id="edge109" class="edge">
<title>Node168&#45;&gt;Node1</title>
<path fill="none" stroke="#191970" d="M2820.8791,-190.3133C2825.8471,-172.4621 2833.7162,-132.8419 2814,-110 2768.9627,-57.8225 2275.3365,-21.3574 2133.7539,-11.9164"/>
<polygon fill="#191970" stroke="#191970" points="2133.6282,-8.4006 2123.4193,-11.2338 2133.1668,-15.3854 2133.6282,-8.4006"/>
</g>
<!-- Node168&#45;&gt;Node3 -->
<g id="edge110" class="edge">
<title>Node168&#45;&gt;Node3</title>
<path fill="none" stroke="#191970" d="M2817.9589,-190.3659C2817.3337,-171.8799 2813.0629,-130.0888 2788,-110 2760.0426,-87.5912 2537.2869,-73.5296 2421.4528,-67.6605"/>
<polygon fill="#191970" stroke="#191970" points="2421.4275,-64.155 2411.2653,-67.1515 2421.0782,-71.1463 2421.4275,-64.155"/>
</g>
<!-- Node168&#45;&gt;Node167 -->
<g id="edge111" class="edge">
<title>Node168&#45;&gt;Node167</title>
<path fill="none" stroke="#191970" d="M2802.835,-190.3487C2785.5628,-179.9258 2756.8396,-162.5928 2734.4577,-149.0865"/>
<polygon fill="#191970" stroke="#191970" points="2735.9844,-145.92 2725.6142,-143.7499 2732.3677,-151.9133 2735.9844,-145.92"/>
</g>
<!-- Node171&#45;&gt;Node1 -->
<g id="edge114" class="edge">
<title>Node171&#45;&gt;Node1</title>
<path fill="none" stroke="#191970" d="M4232.0975,-260.2912C4295.1295,-254.4277 4388.8988,-241.2828 4411,-214 4419.113,-203.9849 4417.139,-196.3329 4411,-185 4347.754,-68.2449 4272.5765,-79.1158 4142,-55 3937.3874,-17.2107 2394.0851,-10.4817 2133.3561,-9.6111"/>
<polygon fill="#191970" stroke="#191970" points="2133.2716,-6.1109 2123.2602,-9.5783 2133.2487,-13.1109 2133.2716,-6.1109"/>
</g>
<!-- Node171&#45;&gt;Node3 -->
<g id="edge116" class="edge">
<title>Node171&#45;&gt;Node3</title>
<path fill="none" stroke="#191970" d="M4149.2792,-250.4659C4135.8729,-241.4977 4119.7055,-228.7902 4109,-214 4080.1454,-174.136 4110.9523,-138.7323 4071,-110 4036.962,-85.5211 2738.3532,-68.9604 2421.2901,-65.2765"/>
<polygon fill="#191970" stroke="#191970" points="2420.9095,-61.772 2410.8697,-65.156 2420.8285,-68.7715 2420.9095,-61.772"/>
</g>
<!-- Node171&#45;&gt;Node71 -->
<g id="edge117" class="edge">
<title>Node171&#45;&gt;Node71</title>
<path fill="none" stroke="#191970" d="M4113.8419,-258.069C4087.8362,-255.3646 4056.9201,-252.3154 4029,-250 3783.9866,-229.681 3721.6583,-238.2236 3477,-214 3465.1266,-212.8244 3452.5539,-211.3586 3440.331,-209.8143"/>
<polygon fill="#191970" stroke="#191970" points="3440.5347,-206.3117 3430.169,-208.5033 3439.639,-213.2541 3440.5347,-206.3117"/>
</g>
<!-- Node171&#45;&gt;Node146 -->
<g id="edge119" class="edge">
<title>Node171&#45;&gt;Node146</title>
<path fill="none" stroke="#191970" d="M4113.8869,-257.4356C4087.8893,-254.6164 4056.9672,-251.6527 4029,-250 3972.5896,-246.6664 2034.6027,-254.3098 1995,-214 1979.4836,-198.2065 1985.5628,-171.9432 1993.2697,-152.8823"/>
<polygon fill="#191970" stroke="#191970" points="1996.5022,-154.2263 1997.3424,-143.6649 1990.0994,-151.3972 1996.5022,-154.2263"/>
</g>
<!-- Node171&#45;&gt;Node160 -->
<g id="edge115" class="edge">
<title>Node171&#45;&gt;Node160</title>
<path fill="none" stroke="#191970" d="M4135.7155,-250.4204C4116.4291,-241.8894 4093.3586,-229.6212 4076,-214 4054.9175,-195.0276 4038.1863,-166.4555 4028.6827,-147.8886"/>
<polygon fill="#191970" stroke="#191970" points="4031.7269,-146.1481 4024.1648,-138.7275 4025.4489,-149.2443 4031.7269,-146.1481"/>
</g>
<!-- Node172 -->
<g id="node40" class="node">
<title>Node172</title>
<g id="a_node40"><a xlink:href="CConstImage_8h_source.html" target="_top" xlink:title=" ">
<polygon fill="#ffffff" stroke="#ff0000" points="4117.584,-190.5 4117.584,-208.5 4266.416,-208.5 4266.416,-190.5 4117.584,-190.5"/>
<text text-anchor="middle" x="4192" y="-196.5" font-family="FreeSans" font-size="10.00" fill="#000000">DGtal/images/CConstImage.h</text>
</a>
</g>
</g>
<!-- Node171&#45;&gt;Node172 -->
<g id="edge118" class="edge">
<title>Node171&#45;&gt;Node172</title>
<path fill="none" stroke="#191970" d="M4177.1227,-250.396C4179.8768,-240.974 4183.53,-228.4763 4186.527,-218.2233"/>
<polygon fill="#191970" stroke="#191970" points="4189.9012,-219.1547 4189.3475,-208.5743 4183.1823,-217.1906 4189.9012,-219.1547"/>
</g>
<!-- Node175 -->
<g id="node41" class="node">
<title>Node175</title>
<g id="a_node41"><a xlink:href="BoundaryPredicate_8ih_source.html" target="_top" xlink:title=" ">
<polygon fill="#ffffff" stroke="#000000" points="4284.1382,-185.5 4284.1382,-213.5 4401.8618,-213.5 4401.8618,-185.5 4284.1382,-185.5"/>
<text text-anchor="start" x="4292.1382" y="-201.5" font-family="FreeSans" font-size="10.00" fill="#000000">DGtal/topology/helpers</text>
<text text-anchor="middle" x="4343" y="-191.5" font-family="FreeSans" font-size="10.00" fill="#000000">/BoundaryPredicate.ih</text>
</a>
</g>
</g>
<!-- Node171&#45;&gt;Node175 -->
<g id="edge120" class="edge">
<title>Node171&#45;&gt;Node175</title>
<path fill="none" stroke="#191970" d="M4209.8875,-250.396C4235.3948,-240.6432 4269.5209,-227.5949 4296.8333,-217.152"/>
<polygon fill="#191970" stroke="#191970" points="4298.094,-220.4171 4306.1845,-213.5765 4295.594,-213.8788 4298.094,-220.4171"/>
</g>
<!-- Node176&#45;&gt;Node1 -->
<g id="edge122" class="edge">
<title>Node176&#45;&gt;Node1</title>
<path fill="none" stroke="#191970" d="M3519.1009,-328.2026C3761.2803,-323.0351 4506,-299.0511 4506,-199.5 4506,-199.5 4506,-199.5 4506,-129.5 4506,4.8658 4346.1389,-73.1162 4213,-55 3999.4513,-25.9424 2400.7949,-11.9409 2133.7708,-9.794"/>
<polygon fill="#191970" stroke="#191970" points="2133.4693,-6.2916 2123.4417,-9.7116 2133.4134,-13.2914 2133.4693,-6.2916"/>
</g>
<!-- Node176&#45;&gt;Node3 -->
<g id="edge124" class="edge">
<title>Node176&#45;&gt;Node3</title>
<path fill="none" stroke="#191970" d="M3430.5753,-320.4836C3380.246,-286.654 3204.4397,-168.2321 3181,-149 3161.8049,-133.2506 3163.72,-120.0148 3141,-110 3076.1102,-81.3969 2601.4704,-69.3182 2421.1989,-65.7287"/>
<polygon fill="#191970" stroke="#191970" points="2421.1051,-62.2262 2411.0383,-65.5292 2420.9676,-69.2249 2421.1051,-62.2262"/>
</g>
<!-- Node176&#45;&gt;Node71 -->
<g id="edge125" class="edge">
<title>Node176&#45;&gt;Node71</title>
<path fill="none" stroke="#191970" d="M3434.4533,-320.1503C3425.0124,-310.5111 3410.6207,-294.7128 3401,-279 3389.0937,-259.5543 3379.6575,-235.0478 3373.9764,-218.4206"/>
<polygon fill="#191970" stroke="#191970" points="3377.2489,-217.1682 3370.7971,-208.7644 3370.6,-219.3574 3377.2489,-217.1682"/>
</g>
<!-- Node176&#45;&gt;Node111 -->
<g id="edge126" class="edge">
<title>Node176&#45;&gt;Node111</title>
<path fill="none" stroke="#191970" d="M3368.9087,-323.9173C3327.6333,-320.9792 3275.5107,-317.4819 3229,-315 2822.1534,-293.2902 2719.2396,-310.0622 2313,-279 2058.3266,-259.527 1970.5202,-328.0887 1742,-214 1711.5734,-198.8095 1686.5699,-167.0584 1673.0139,-147.0949"/>
<polygon fill="#191970" stroke="#191970" points="1675.8644,-145.0589 1667.4586,-138.6096 1670.0078,-148.8932 1675.8644,-145.0589"/>
</g>
<!-- Node176&#45;&gt;Node58 -->
<g id="edge123" class="edge">
<title>Node176&#45;&gt;Node58</title>
<path fill="none" stroke="#191970" d="M3368.7754,-321.8366C3309.6854,-314.515 3225.8301,-301.2281 3155,-279 3100.6977,-261.9587 3041.2923,-231.4021 3008.7545,-213.5439"/>
<polygon fill="#191970" stroke="#191970" points="3010.3776,-210.4418 2999.935,-208.6518 3006.9821,-216.5632 3010.3776,-210.4418"/>
</g>
<!-- Node176&#45;&gt;Node159 -->
<g id="edge127" class="edge">
<title>Node176&#45;&gt;Node159</title>
<path fill="none" stroke="#191970" d="M3519.2021,-328.5542C3669.4257,-325.8815 3995.1895,-315.855 4029,-279 4057.184,-248.2782 3999.5527,-224.5866 3953.4858,-211.3405"/>
<polygon fill="#191970" stroke="#191970" points="3954.142,-207.8905 3943.5706,-208.5947 3952.2738,-214.6366 3954.142,-207.8905"/>
</g>
<!-- Node177 -->
<g id="node43" class="node">
<title>Node177</title>
<g id="a_node43"><a xlink:href="SurfelNeighborhood_8h_source.html" target="_top" xlink:title=" ">
<polygon fill="#ffffff" stroke="#ff0000" points="3837.8921,-255.5 3837.8921,-273.5 4020.1079,-273.5 4020.1079,-255.5 3837.8921,-255.5"/>
<text text-anchor="middle" x="3929" y="-261.5" font-family="FreeSans" font-size="10.00" fill="#000000">DGtal/topology/SurfelNeighborhood.h</text>
</a>
</g>
</g>
<!-- Node176&#45;&gt;Node177 -->
<g id="edge128" class="edge">
<title>Node176&#45;&gt;Node177</title>
<path fill="none" stroke="#191970" d="M3511.1824,-320.4962C3600.3875,-308.5408 3757.5878,-287.4728 3851.6445,-274.8672"/>
<polygon fill="#191970" stroke="#191970" points="3852.2217,-278.3213 3861.6681,-273.5239 3851.2918,-271.3833 3852.2217,-278.3213"/>
</g>
<!-- Node179 -->
<g id="node44" class="node">
<title>Node179</title>
<g id="a_node44"><a xlink:href="SurfelSetPredicate_8h_source.html" target="_top" xlink:title=" ">
<polygon fill="#ffffff" stroke="#ff0000" points="3409.9707,-250.5 3409.9707,-278.5 3536.0293,-278.5 3536.0293,-250.5 3409.9707,-250.5"/>
<text text-anchor="start" x="3417.9707" y="-266.5" font-family="FreeSans" font-size="10.00" fill="#000000">DGtal/topology/SurfelSet</text>
<text text-anchor="middle" x="3473" y="-256.5" font-family="FreeSans" font-size="10.00" fill="#000000">Predicate.h</text>
</a>
</g>
</g>
<!-- Node176&#45;&gt;Node179 -->
<g id="edge132" class="edge">
<title>Node176&#45;&gt;Node179</title>
<path fill="none" stroke="#191970" d="M3448.0323,-320.462C3451.7398,-312.1522 3457.4022,-299.4605 3462.3979,-288.2634"/>
<polygon fill="#191970" stroke="#191970" points="3465.6723,-289.5143 3466.5505,-278.9559 3459.2797,-286.6621 3465.6723,-289.5143"/>
</g>
<!-- Node181 -->
<g id="node45" class="node">
<title>Node181</title>
<g id="a_node45"><a xlink:href="SetOfSurfels_8ih_source.html" target="_top" xlink:title=" ">
<polygon fill="#ffffff" stroke="#000000" points="3629.9116,-255.5 3629.9116,-273.5 3782.0884,-273.5 3782.0884,-255.5 3629.9116,-255.5"/>
<text text-anchor="middle" x="3706" y="-261.5" font-family="FreeSans" font-size="10.00" fill="#000000">DGtal/topology/SetOfSurfels.ih</text>
</a>
</g>
</g>
<!-- Node176&#45;&gt;Node181 -->
<g id="edge136" class="edge">
<title>Node176&#45;&gt;Node181</title>
<path fill="none" stroke="#191970" d="M3480.43,-320.462C3527.2255,-308.8524 3608.4951,-288.6902 3659.6481,-275.9995"/>
<polygon fill="#191970" stroke="#191970" points="3660.5951,-279.3708 3669.458,-273.5658 3658.9095,-272.5767 3660.5951,-279.3708"/>
</g>
<!-- Node177&#45;&gt;Node1 -->
<g id="edge129" class="edge">
<title>Node177&#45;&gt;Node1</title>
<path fill="none" stroke="#191970" d="M3946.4113,-255.3636C3978.0113,-239.1132 4047.2553,-205.0169 4109,-185 4181.6399,-161.451 4228.9931,-208.3839 4277,-149 4287.8971,-135.5205 4287.9148,-123.4652 4277,-110 4202.6245,-18.2454 4134.318,-68.679 4017,-55 3823.5539,-32.4447 2384.5788,-13.1787 2133.3596,-9.9691"/>
<polygon fill="#191970" stroke="#191970" points="2133.3205,-6.4684 2123.2767,-9.8408 2133.2313,-13.4679 2133.3205,-6.4684"/>
</g>
<!-- Node177&#45;&gt;Node3 -->
<g id="edge130" class="edge">
<title>Node177&#45;&gt;Node3</title>
<path fill="none" stroke="#191970" d="M3888.6337,-255.4612C3818.155,-238.9698 3668.8393,-200.8601 3550,-149 3518.4207,-135.2192 3516.0781,-119.6436 3483,-110 3381.505,-80.4102 2651.4758,-68.4161 2421.3159,-65.3442"/>
<polygon fill="#191970" stroke="#191970" points="2421.1073,-61.8413 2411.062,-65.2089 2421.0149,-68.8407 2421.1073,-61.8413"/>
</g>
<!-- Node177&#45;&gt;Node159 -->
<g id="edge131" class="edge">
<title>Node177&#45;&gt;Node159</title>
<path fill="none" stroke="#191970" d="M3925.5239,-255.462C3921.8712,-245.9651 3916.0173,-230.7449 3911.3359,-218.5732"/>
<polygon fill="#191970" stroke="#191970" points="3914.4651,-216.9592 3907.6085,-208.8821 3907.9317,-219.4721 3914.4651,-216.9592"/>
</g>
<!-- Node179&#45;&gt;Node1 -->
<g id="edge133" class="edge">
<title>Node179&#45;&gt;Node1</title>
<path fill="none" stroke="#191970" d="M3534.9727,-250.4558C3582.4071,-239.0807 3640.8954,-223.4447 3648,-214 3678.1558,-173.9116 3614.2236,-122.5811 3596,-110 3512.7038,-52.4945 3475.2317,-69.0979 3375,-55 3125.9713,-19.9733 2317.3179,-11.315 2133.4373,-9.7799"/>
<polygon fill="#191970" stroke="#191970" points="2133.2298,-6.2782 2123.2015,-9.6965 2133.1727,-13.2779 2133.2298,-6.2782"/>
</g>
<!-- Node179&#45;&gt;Node3 -->
<g id="edge134" class="edge">
<title>Node179&#45;&gt;Node3</title>
<path fill="none" stroke="#191970" d="M3468.9963,-250.3491C3463.8371,-233.6798 3453.7416,-205.6465 3439,-185 3410.1095,-144.5372 3401.9839,-128.9045 3356,-110 3270.2099,-74.7307 2634.2262,-66.6603 2421.2601,-64.9383"/>
<polygon fill="#191970" stroke="#191970" points="2421.1687,-61.4376 2411.1414,-64.8587 2421.1136,-68.4374 2421.1687,-61.4376"/>
</g>
<!-- Node179&#45;&gt;Node71 -->
<g id="edge135" class="edge">
<title>Node179&#45;&gt;Node71</title>
<path fill="none" stroke="#191970" d="M3450.2166,-250.396C3432.7535,-239.5855 3408.7496,-224.7259 3391.1868,-213.8537"/>
<polygon fill="#191970" stroke="#191970" points="3393.0034,-210.862 3382.6585,-208.5743 3389.3189,-216.8138 3393.0034,-210.862"/>
</g>
<!-- Node182&#45;&gt;Node1 -->
<g id="edge139" class="edge">
<title>Node182&#45;&gt;Node1</title>
<path fill="none" stroke="#191970" d="M3219.9854,-325.8541C3313.7357,-319.5263 3488.3669,-304.6674 3545,-279 3562.784,-270.9399 3561.4018,-260.2828 3578,-250 3613.9224,-227.7456 3642.4462,-249.0842 3666,-214 3688.094,-181.0902 3641.9382,-119.731 3631,-110 3572.9313,-58.3404 3541.5133,-68.6531 3465,-55 3330.8194,-31.0566 2338.9927,-13.5064 2133.2869,-10.1017"/>
<polygon fill="#191970" stroke="#191970" points="2133.3349,-6.6021 2123.2787,-9.937 2133.2197,-13.6012 2133.3349,-6.6021"/>
</g>
<!-- Node182&#45;&gt;Node3 -->
<g id="edge140" class="edge">
<title>Node182&#45;&gt;Node3</title>
<path fill="none" stroke="#191970" d="M3150.3528,-320.3308C3121.7741,-290.0969 3031.2512,-194.914 3015,-185 2970.0028,-157.5496 2951.2784,-167.7059 2902,-149 2862.0046,-133.8179 2855.3676,-120.9015 2814,-110 2741.6358,-90.9301 2531.1503,-75.5844 2421.0087,-68.5946"/>
<polygon fill="#191970" stroke="#191970" points="2421.194,-65.0994 2410.9939,-67.9645 2420.7544,-72.0856 2421.194,-65.0994"/>
</g>
<!-- Node182&#45;&gt;Node65 -->
<g id="edge142" class="edge">
<title>Node182&#45;&gt;Node65</title>
<path fill="none" stroke="#191970" d="M3149.7485,-320.4347C3140.8186,-311.0168 3127.8206,-295.387 3122,-279 3115.7238,-261.3302 3114.977,-240.0574 3115.6613,-223.965"/>
<polygon fill="#191970" stroke="#191970" points="3119.1685,-223.9625 3116.3133,-213.7597 3112.1827,-223.5161 3119.1685,-223.9625"/>
</g>
<!-- Node182&#45;&gt;Node48 -->
<g id="edge141" class="edge">
<title>Node182&#45;&gt;Node48</title>
<path fill="none" stroke="#191970" d="M3156.3952,-320.372C3152.5495,-305.2637 3146.658,-274.3131 3155,-250 3161.5783,-230.8274 3176.4217,-233.1726 3183,-214 3187.1829,-201.8087 3190.4521,-195.5162 3183,-185 3170.3824,-167.1944 3118.2297,-151.1863 3077.2489,-140.9905"/>
<polygon fill="#191970" stroke="#191970" points="3077.9119,-137.5499 3067.3682,-138.5893 3076.2589,-144.3519 3077.9119,-137.5499"/>
</g>
<!-- Node182&#45;&gt;Node118 -->
<g id="edge143" class="edge">
<title>Node182&#45;&gt;Node118</title>
<path fill="none" stroke="#191970" d="M3097.8221,-328.6737C2856.0121,-325.2499 1943.4754,-310.8376 1193,-279 1136.1662,-276.5889 1071.9794,-272.7492 1023.5653,-269.6265"/>
<polygon fill="#191970" stroke="#191970" points="1023.6878,-266.1272 1013.482,-268.9719 1023.2342,-273.1125 1023.6878,-266.1272"/>
</g>
<!-- Node182&#45;&gt;Node159 -->
<g id="edge144" class="edge">
<title>Node182&#45;&gt;Node159</title>
<path fill="none" stroke="#191970" d="M3219.9178,-325.6844C3319.8224,-318.8394 3513.804,-302.9182 3578,-279 3599.6006,-270.952 3599.6359,-258.6564 3621,-250 3657.0412,-235.3966 3754.0711,-219.8593 3824.4825,-209.9364"/>
<polygon fill="#191970" stroke="#191970" points="3825.2478,-213.3636 3834.6675,-208.5139 3824.2795,-206.4309 3825.2478,-213.3636"/>
</g>
<!-- Node182&#45;&gt;Node189 -->
<g id="edge145" class="edge">
<title>Node182&#45;&gt;Node189</title>
<path fill="none" stroke="#191970" d="M3170.2627,-320.462C3183.2466,-310.0428 3204.8149,-292.7349 3220.5331,-280.1216"/>
<polygon fill="#191970" stroke="#191970" points="3222.9631,-282.6592 3228.5718,-273.6708 3218.582,-277.1997 3222.9631,-282.6592"/>
</g>
<!-- Node189&#45;&gt;Node1 -->
<g id="edge146" class="edge">
<title>Node189&#45;&gt;Node1</title>
<path fill="none" stroke="#191970" d="M3316.091,-257.257C3426.9008,-246.3418 3620.7046,-225.7107 3631,-214 3639.5101,-204.3201 3638.2308,-195.6696 3631,-185 3536.737,-45.908 3441.359,-84.808 3276,-55 3161.516,-34.3629 2322.4896,-14.5539 2133.6663,-10.3265"/>
<polygon fill="#191970" stroke="#191970" points="2133.4903,-6.8218 2123.4148,-10.098 2133.3343,-13.8201 2133.4903,-6.8218"/>
</g>
<!-- Node189&#45;&gt;Node3 -->
<g id="edge147" class="edge">
<title>Node189&#45;&gt;Node3</title>
<path fill="none" stroke="#191970" d="M3237.0668,-255.2919C3231.6975,-239.5198 3219.0594,-206.9199 3200,-185 3181.5562,-163.788 3170.0133,-166.4796 3148,-149 3127.7945,-132.9558 3128.7791,-120.0117 3105,-110 3042.9784,-83.887 2595.1801,-70.3757 2421.0279,-66.0632"/>
<polygon fill="#191970" stroke="#191970" points="2421.0341,-62.5624 2410.9514,-65.8164 2420.8627,-69.5603 2421.0341,-62.5624"/>
</g>
<!-- Node189&#45;&gt;Node65 -->
<g id="edge149" class="edge">
<title>Node189&#45;&gt;Node65</title>
<path fill="none" stroke="#191970" d="M3223.0364,-255.462C3205.1975,-245.9577 3176.6,-230.7213 3153.7459,-218.5449"/>
<polygon fill="#191970" stroke="#191970" points="3155.141,-215.3225 3144.6697,-213.7093 3151.8495,-221.5004 3155.141,-215.3225"/>
</g>
<!-- Node189&#45;&gt;Node71 -->
<g id="edge148" class="edge">
<title>Node189&#45;&gt;Node71</title>
<path fill="none" stroke="#191970" d="M3257.7979,-255.462C3279.3605,-244.5122 3315.9055,-225.9542 3340.9573,-213.2326"/>
<polygon fill="#191970" stroke="#191970" points="3342.6092,-216.3193 3349.9407,-208.6708 3339.4397,-210.0779 3342.6092,-216.3193"/>
</g>
<!-- Node194&#45;&gt;Node1 -->
<g id="edge151" class="edge">
<title>Node194&#45;&gt;Node1</title>
<path fill="none" stroke="#191970" d="M4172.0541,-120.3974C4132.3733,-103.6744 4043.1217,-68.5362 3964,-55 3777.6151,-23.1131 2381.208,-11.567 2133.5074,-9.7605"/>
<polygon fill="#191970" stroke="#191970" points="2133.2547,-6.2587 2123.2297,-9.6863 2133.2041,-13.2585 2133.2547,-6.2587"/>
</g>
<!-- Node194&#45;&gt;Node3 -->
<g id="edge152" class="edge">
<title>Node194&#45;&gt;Node3</title>
<path fill="none" stroke="#191970" d="M4159.0268,-120.4692C4142.541,-116.4955 4122.372,-112.2307 4104,-110 3935.2479,-89.5101 2726.0241,-70.1206 2421.4833,-65.5245"/>
<polygon fill="#191970" stroke="#191970" points="2421.0863,-62.0182 2411.0347,-65.3673 2420.9809,-69.0174 2421.0863,-62.0182"/>
</g>
<!-- Node220&#45;&gt;Node1 -->
<g id="edge155" class="edge">
<title>Node220&#45;&gt;Node1</title>
<path fill="none" stroke="#191970" d="M3539.4969,-190.32C3495.0941,-162.8373 3356.2289,-81.484 3228,-55 3118.993,-32.486 2317.6721,-14.212 2133.6128,-10.2829"/>
<polygon fill="#191970" stroke="#191970" points="2133.4305,-6.7783 2123.3584,-10.0652 2133.2819,-13.7767 2133.4305,-6.7783"/>
</g>
<!-- Node220&#45;&gt;Node3 -->
<g id="edge156" class="edge">
<title>Node220&#45;&gt;Node3</title>
<path fill="none" stroke="#191970" d="M3545.9502,-190.454C3528.2943,-171.3504 3483.9029,-127.238 3436,-110 3341.0258,-75.8232 2645.1414,-66.9802 2421.2086,-65.0073"/>
<polygon fill="#191970" stroke="#191970" points="2420.936,-61.5049 2410.9062,-64.9185 2420.8756,-68.5047 2420.936,-61.5049"/>
</g>
<!-- Node220&#45;&gt;Node72 -->
<g id="edge157" class="edge">
<title>Node220&#45;&gt;Node72</title>
<path fill="none" stroke="#191970" d="M3515.3944,-190.492C3461.0903,-177.8211 3362.1626,-154.7379 3302.8183,-140.8909"/>
<polygon fill="#191970" stroke="#191970" points="3303.4663,-137.4482 3292.9326,-138.5843 3301.8757,-144.2651 3303.4663,-137.4482"/>
</g>
</g>
</svg>
