<?xml version="1.0" encoding="UTF-8" standalone="no"?>
<!DOCTYPE svg PUBLIC "-//W3C//DTD SVG 1.1//EN"
 "http://www.w3.org/Graphics/SVG/1.1/DTD/svg11.dtd">
<!-- Generated by graphviz version 2.40.1 (20161225.0304)
 -->
<!-- Title: testMeshDisplay.cpp Pages: 1 -->
<!--zoomable 802 -->
<svg id="main" version="1.1" xmlns="http://www.w3.org/2000/svg" xmlns:xlink="http://www.w3.org/1999/xlink" xml:space="preserve" onload="init(evt)">
<style type="text/css"><![CDATA[
.edge:hover path { stroke: red; }
.edge:hover polygon { stroke: red; fill: red; }
]]></style>
<script type="text/javascript"><![CDATA[
var edges = document.getElementsByTagName('g');
if (edges && edges.length) {
  for (var i=0;i<edges.length;i++) {
    if (edges[i].id.substr(0,4)=='edge') {
      edges[i].setAttribute('class','edge');
    }
  }
}
]]></script>
        <defs>
                <circle id="rim" cx="0" cy="0" r="7"/>
                <circle id="rim2" cx="0" cy="0" r="3.5"/>
                <g id="zoomPlus">
                        <use xlink:href="#rim" fill="#404040">
                                <set attributeName="fill" to="#808080" begin="zoomplus.mouseover" end="zoomplus.mouseout"/>
                        </use>
                        <path d="M-4,0h8M0,-4v8" fill="none" stroke="white" stroke-width="1.5" pointer-events="none"/>
                </g>
                <g id="zoomMin">
                        <use xlink:href="#rim" fill="#404040">
                                <set attributeName="fill" to="#808080" begin="zoomminus.mouseover" end="zoomminus.mouseout"/>
                        </use>
                        <path d="M-4,0h8" fill="none" stroke="white" stroke-width="1.5" pointer-events="none"/>
                </g>
                <g id="dirArrow">
                        <path fill="none" stroke="white" stroke-width="1.5" d="M0,-3.0v7 M-2.5,-0.5L0,-3.0L2.5,-0.5"/>
                </g>
               <g id="resetDef">
                       <use xlink:href="#rim2" fill="#404040">
                               <set attributeName="fill" to="#808080" begin="reset.mouseover" end="reset.mouseout"/>
                       </use>
               </g>
        </defs>

<script type="text/javascript">
var viewWidth = 2831;
var viewHeight = 802;
var sectionId = 'dynsection-0';
</script>
<script xlink:href="svgpan.js"/>
<svg id="graph" class="graph">
<g id="viewport">
<title>testMeshDisplay.cpp</title>
<polygon fill="#ffffff" stroke="transparent" points="-4,4 -4,-798 2827,-798 2827,4 -4,4"/>
<!-- Node0 -->
<g id="node1" class="node">
<title>Node0</title>
<g id="a_node1"><a xlink:title=" ">
<polygon fill="#bfbfbf" stroke="#000000" points="1103.2383,-775.5 1103.2383,-793.5 1210.7617,-793.5 1210.7617,-775.5 1103.2383,-775.5"/>
<text text-anchor="middle" x="1157" y="-781.5" font-family="FreeSans" font-size="10.00" fill="#000000">testMeshDisplay.cpp</text>
</a>
</g>
</g>
<!-- Node1 -->
<g id="node2" class="node">
<title>Node1</title>
<g id="a_node2"><a xlink:href="Common_8h_source.html" target="_top" xlink:title=" ">
<polygon fill="#ffffff" stroke="#000000" points="1299.1455,-230.5 1299.1455,-248.5 1416.8545,-248.5 1416.8545,-230.5 1299.1455,-230.5"/>
<text text-anchor="middle" x="1358" y="-236.5" font-family="FreeSans" font-size="10.00" fill="#000000">DGtal/base/Common.h</text>
</a>
</g>
</g>
<!-- Node0&#45;&gt;Node1 -->
<g id="edge1" class="edge">
<title>Node0&#45;&gt;Node1</title>
<path fill="none" stroke="#191970" d="M1103.0075,-781.4315C991.0589,-773.5887 744,-747.959 744,-674.5 744,-674.5 744,-674.5 744,-494.5 744,-475.4702 997.4355,-292.3227 1015,-285 1063.0177,-264.9814 1203.0781,-251.2227 1288.6477,-244.4172"/>
<polygon fill="#191970" stroke="#191970" points="1289.1069,-247.892 1298.8031,-243.6218 1288.5603,-240.9134 1289.1069,-247.892"/>
</g>
<!-- Node42 -->
<g id="node26" class="node">
<title>Node42</title>
<g id="a_node26"><a xlink:href="StdDefs_8h_source.html" target="_top" xlink:title=" ">
<polygon fill="#ffffff" stroke="#000000" points="1322.0864,-610.5 1322.0864,-628.5 1445.9136,-628.5 1445.9136,-610.5 1322.0864,-610.5"/>
<text text-anchor="middle" x="1384" y="-616.5" font-family="FreeSans" font-size="10.00" fill="#000000">DGtal/helpers/StdDefs.h</text>
</a>
</g>
</g>
<!-- Node0&#45;&gt;Node42 -->
<g id="edge44" class="edge">
<title>Node0&#45;&gt;Node42</title>
<path fill="none" stroke="#191970" d="M1169.5278,-775.3939C1206.7351,-748.349 1316.8686,-668.2959 1363.1471,-634.6574"/>
<polygon fill="#191970" stroke="#191970" points="1365.4798,-637.2888 1371.5109,-628.578 1361.3641,-631.6265 1365.4798,-637.2888"/>
</g>
<!-- Node159 -->
<g id="node41" class="node">
<title>Node159</title>
<g id="a_node41"><a xlink:href="Mesh_8h_source.html" target="_top" xlink:title=" ">
<polygon fill="#ffffff" stroke="#000000" points="1570.9214,-360.5 1570.9214,-378.5 1683.0786,-378.5 1683.0786,-360.5 1570.9214,-360.5"/>
<text text-anchor="middle" x="1627" y="-366.5" font-family="FreeSans" font-size="10.00" fill="#000000">DGtal/shapes/Mesh.h</text>
</a>
</g>
</g>
<!-- Node0&#45;&gt;Node159 -->
<g id="edge100" class="edge">
<title>Node0&#45;&gt;Node159</title>
<path fill="none" stroke="#191970" d="M1211.1277,-779.9683C1314.9767,-769.7739 1532,-740.5663 1532,-674.5 1532,-674.5 1532,-674.5 1532,-619.5 1532,-527.0446 1589.4772,-427.1631 1615.0163,-387.3456"/>
<polygon fill="#191970" stroke="#191970" points="1618.2199,-388.8419 1620.7668,-378.5577 1612.3625,-385.009 1618.2199,-388.8419"/>
</g>
<!-- Node161 -->
<g id="node43" class="node">
<title>Node161</title>
<g id="a_node43"><a xlink:href="Viewer3D_8h_source.html" target="_top" xlink:title=" ">
<polygon fill="#ffffff" stroke="#ff0000" points="1679.4551,-720.5 1679.4551,-738.5 1822.5449,-738.5 1822.5449,-720.5 1679.4551,-720.5"/>
<text text-anchor="middle" x="1751" y="-726.5" font-family="FreeSans" font-size="10.00" fill="#000000">DGtal/io/viewers/Viewer3D.h</text>
</a>
</g>
</g>
<!-- Node0&#45;&gt;Node161 -->
<g id="edge107" class="edge">
<title>Node0&#45;&gt;Node161</title>
<path fill="none" stroke="#191970" d="M1211.0244,-779.4977C1315.4777,-769.8261 1545.6809,-748.511 1669.0758,-737.0856"/>
<polygon fill="#191970" stroke="#191970" points="1669.5895,-740.5531 1679.2242,-736.1459 1668.944,-733.5829 1669.5895,-740.5531"/>
</g>
<!-- Node2 -->
<g id="node3" class="node">
<title>Node2</title>
<g id="a_node3"><a xlink:title=" ">
<polygon fill="#ffffff" stroke="#bfbfbf" points="1679.8276,-.5 1679.8276,-18.5 1734.1724,-18.5 1734.1724,-.5 1679.8276,-.5"/>
<text text-anchor="middle" x="1707" y="-6.5" font-family="FreeSans" font-size="10.00" fill="#000000">iostream</text>
</a>
</g>
</g>
<!-- Node1&#45;&gt;Node2 -->
<g id="edge2" class="edge">
<title>Node1&#45;&gt;Node2</title>
<path fill="none" stroke="#191970" d="M1416.9598,-233.9933C1475.2044,-227.4571 1559.0897,-214.7477 1584,-194 1607.9078,-174.0873 1601.6818,-158.9818 1610,-129 1618.9075,-96.8942 1602.6397,-82.1165 1622,-55 1633.5451,-38.8297 1652.6588,-27.8726 1669.8401,-20.7708"/>
<polygon fill="#191970" stroke="#191970" points="1671.5652,-23.8588 1679.6611,-17.0246 1669.0703,-17.3185 1671.5652,-23.8588"/>
</g>
<!-- Node3 -->
<g id="node4" class="node">
<title>Node3</title>
<g id="a_node4"><a xlink:title=" ">
<polygon fill="#ffffff" stroke="#bfbfbf" points="1732.5962,-170.5 1732.5962,-188.5 1791.4038,-188.5 1791.4038,-170.5 1732.5962,-170.5"/>
<text text-anchor="middle" x="1762" y="-176.5" font-family="FreeSans" font-size="10.00" fill="#000000">exception</text>
</a>
</g>
</g>
<!-- Node1&#45;&gt;Node3 -->
<g id="edge3" class="edge">
<title>Node1&#45;&gt;Node3</title>
<path fill="none" stroke="#191970" d="M1417.0923,-235.692C1489.1115,-230.2193 1614.1721,-218.0263 1719,-194 1721.9757,-193.318 1725.0357,-192.5102 1728.0864,-191.6304"/>
<polygon fill="#191970" stroke="#191970" points="1729.1778,-194.9564 1737.6842,-188.6404 1727.0957,-188.2732 1729.1778,-194.9564"/>
</g>
<!-- Node4 -->
<g id="node5" class="node">
<title>Node4</title>
<g id="a_node5"><a xlink:title=" ">
<polygon fill="#ffffff" stroke="#bfbfbf" points="2193.436,-55.5 2193.436,-73.5 2250.564,-73.5 2250.564,-55.5 2193.436,-55.5"/>
<text text-anchor="middle" x="2222" y="-61.5" font-family="FreeSans" font-size="10.00" fill="#000000">algorithm</text>
</a>
</g>
</g>
<!-- Node1&#45;&gt;Node4 -->
<g id="edge4" class="edge">
<title>Node1&#45;&gt;Node4</title>
<path fill="none" stroke="#191970" d="M1417.2364,-235.575C1520.466,-228.373 1729.089,-212.1144 1800,-194 1811.6764,-191.0172 1988.4865,-113.5602 2000,-110 2062.809,-90.5783 2138.2109,-77.1249 2183.004,-70.1234"/>
<polygon fill="#191970" stroke="#191970" points="2183.8113,-73.5406 2193.1646,-68.5642 2182.7494,-66.6216 2183.8113,-73.5406"/>
</g>
<!-- Node5 -->
<g id="node6" class="node">
<title>Node5</title>
<g id="a_node6"><a xlink:title=" ">
<polygon fill="#ffffff" stroke="#bfbfbf" points="376.5298,-170.5 376.5298,-188.5 471.4702,-188.5 471.4702,-170.5 376.5298,-170.5"/>
<text text-anchor="middle" x="424" y="-176.5" font-family="FreeSans" font-size="10.00" fill="#000000">boost/version.hpp</text>
</a>
</g>
</g>
<!-- Node1&#45;&gt;Node5 -->
<g id="edge5" class="edge">
<title>Node1&#45;&gt;Node5</title>
<path fill="none" stroke="#191970" d="M1299.0942,-237.9964C1128.9097,-233.4066 638.5937,-218.3862 480,-194 474.8585,-193.2094 469.5051,-192.1452 464.236,-190.9503"/>
<polygon fill="#191970" stroke="#191970" points="464.8289,-187.4926 454.2849,-188.5293 463.1741,-194.2942 464.8289,-187.4926"/>
</g>
<!-- Node6 -->
<g id="node7" class="node">
<title>Node6</title>
<g id="a_node7"><a xlink:title=" ">
<polygon fill="#ffffff" stroke="#bfbfbf" points="489.2935,-170.5 489.2935,-188.5 618.7065,-188.5 618.7065,-170.5 489.2935,-170.5"/>
<text text-anchor="middle" x="554" y="-176.5" font-family="FreeSans" font-size="10.00" fill="#000000">boost/concept_check.hpp</text>
</a>
</g>
</g>
<!-- Node1&#45;&gt;Node6 -->
<g id="edge6" class="edge">
<title>Node1&#45;&gt;Node6</title>
<path fill="none" stroke="#191970" d="M1299.085,-238.4469C1174.6544,-235.6483 876.1123,-225.9005 628,-194 620.5064,-193.0365 612.6308,-191.7706 604.9261,-190.3875"/>
<polygon fill="#191970" stroke="#191970" points="605.4161,-186.9184 594.9426,-188.5173 604.1272,-193.7988 605.4161,-186.9184"/>
</g>
<!-- Node7 -->
<g id="node8" class="node">
<title>Node7</title>
<g id="a_node8"><a xlink:title=" ">
<polygon fill="#ffffff" stroke="#bfbfbf" points="636.5815,-170.5 636.5815,-188.5 755.4185,-188.5 755.4185,-170.5 636.5815,-170.5"/>
<text text-anchor="middle" x="696" y="-176.5" font-family="FreeSans" font-size="10.00" fill="#000000">boost/static_assert.hpp</text>
</a>
</g>
</g>
<!-- Node1&#45;&gt;Node7 -->
<g id="edge7" class="edge">
<title>Node1&#45;&gt;Node7</title>
<path fill="none" stroke="#191970" d="M1299.1188,-237.5973C1192.1016,-233.5608 958.754,-222.0948 764,-194 757.5709,-193.0725 750.8399,-191.8943 744.2182,-190.6117"/>
<polygon fill="#191970" stroke="#191970" points="744.4577,-187.0891 733.9615,-188.5313 743.0661,-193.9494 744.4577,-187.0891"/>
</g>
<!-- Node8 -->
<g id="node9" class="node">
<title>Node8</title>
<g id="a_node9"><a xlink:title=" ">
<polygon fill="#ffffff" stroke="#bfbfbf" points="773.1309,-170.5 773.1309,-188.5 900.8691,-188.5 900.8691,-170.5 773.1309,-170.5"/>
<text text-anchor="middle" x="837" y="-176.5" font-family="FreeSans" font-size="10.00" fill="#000000">boost/concept/assert.hpp</text>
</a>
</g>
</g>
<!-- Node1&#45;&gt;Node8 -->
<g id="edge8" class="edge">
<title>Node1&#45;&gt;Node8</title>
<path fill="none" stroke="#191970" d="M1299.0717,-235.3067C1213.1994,-228.7907 1048.7818,-214.7828 910,-194 903.2173,-192.9843 896.109,-191.7664 889.1018,-190.4739"/>
<polygon fill="#191970" stroke="#191970" points="889.4357,-186.9746 878.9574,-188.5417 888.1259,-193.851 889.4357,-186.9746"/>
</g>
<!-- Node9 -->
<g id="node10" class="node">
<title>Node9</title>
<g id="a_node10"><a xlink:title=" ">
<polygon fill="#ffffff" stroke="#bfbfbf" points="918.6826,-170.5 918.6826,-188.5 1055.3174,-188.5 1055.3174,-170.5 918.6826,-170.5"/>
<text text-anchor="middle" x="987" y="-176.5" font-family="FreeSans" font-size="10.00" fill="#000000">boost/concept/requires.hpp</text>
</a>
</g>
</g>
<!-- Node1&#45;&gt;Node9 -->
<g id="edge9" class="edge">
<title>Node1&#45;&gt;Node9</title>
<path fill="none" stroke="#191970" d="M1299.0595,-230.9552C1239.6359,-222.2047 1145.3226,-207.946 1064,-194 1057.4241,-192.8723 1050.5416,-191.6445 1043.7113,-190.3963"/>
<polygon fill="#191970" stroke="#191970" points="1044.2527,-186.9371 1033.7833,-188.5622 1042.981,-193.8207 1044.2527,-186.9371"/>
</g>
<!-- Node10 -->
<g id="node11" class="node">
<title>Node10</title>
<g id="a_node11"><a xlink:title=" ">
<polygon fill="#ffffff" stroke="#bfbfbf" points="1072.8672,-165.5 1072.8672,-193.5 1181.1328,-193.5 1181.1328,-165.5 1072.8672,-165.5"/>
<text text-anchor="start" x="1080.8672" y="-181.5" font-family="FreeSans" font-size="10.00" fill="#000000">boost/iterator/iterator</text>
<text text-anchor="middle" x="1127" y="-171.5" font-family="FreeSans" font-size="10.00" fill="#000000">_concepts.hpp</text>
</a>
</g>
</g>
<!-- Node1&#45;&gt;Node10 -->
<g id="edge10" class="edge">
<title>Node1&#45;&gt;Node10</title>
<path fill="none" stroke="#191970" d="M1323.1669,-230.4524C1288.2046,-221.3713 1233.5457,-207.1742 1190.7952,-196.0702"/>
<polygon fill="#191970" stroke="#191970" points="1191.5955,-192.662 1181.0368,-193.5355 1189.8357,-199.4372 1191.5955,-192.662"/>
</g>
<!-- Node11 -->
<g id="node12" class="node">
<title>Node11</title>
<g id="a_node12"><a xlink:title=" ">
<polygon fill="#ffffff" stroke="#bfbfbf" points="1199.397,-170.5 1199.397,-188.5 1346.603,-188.5 1346.603,-170.5 1199.397,-170.5"/>
<text text-anchor="middle" x="1273" y="-176.5" font-family="FreeSans" font-size="10.00" fill="#000000">boost/concept_archetype.hpp</text>
</a>
</g>
</g>
<!-- Node1&#45;&gt;Node11 -->
<g id="edge11" class="edge">
<title>Node1&#45;&gt;Node11</title>
<path fill="none" stroke="#191970" d="M1345.0903,-230.3873C1331.5321,-220.8168 1309.9976,-205.6159 1293.9908,-194.3171"/>
<polygon fill="#191970" stroke="#191970" points="1295.9408,-191.4094 1285.7527,-188.5019 1291.9039,-197.1281 1295.9408,-191.4094"/>
</g>
<!-- Node12 -->
<g id="node13" class="node">
<title>Node12</title>
<g id="a_node13"><a xlink:title=" ">
<polygon fill="#ffffff" stroke="#bfbfbf" points="2202.3843,-110.5 2202.3843,-128.5 2245.6157,-128.5 2245.6157,-110.5 2202.3843,-110.5"/>
<text text-anchor="middle" x="2224" y="-116.5" font-family="FreeSans" font-size="10.00" fill="#000000">cmath</text>
</a>
</g>
</g>
<!-- Node1&#45;&gt;Node12 -->
<g id="edge12" class="edge">
<title>Node1&#45;&gt;Node12</title>
<path fill="none" stroke="#191970" d="M1416.8674,-237.8687C1600.7072,-232.5645 2153.8371,-214.9351 2186,-194 2205.2474,-181.4718 2215.2169,-155.9846 2220.0257,-138.3346"/>
<polygon fill="#191970" stroke="#191970" points="2223.4448,-139.086 2222.3898,-128.5438 2216.6404,-137.4429 2223.4448,-139.086"/>
</g>
<!-- Node13 -->
<g id="node14" class="node">
<title>Node13</title>
<g id="a_node14"><a xlink:title=" ">
<polygon fill="#ffffff" stroke="#bfbfbf" points="1403.2686,-170.5 1403.2686,-188.5 1448.7314,-188.5 1448.7314,-170.5 1403.2686,-170.5"/>
<text text-anchor="middle" x="1426" y="-176.5" font-family="FreeSans" font-size="10.00" fill="#000000">stdio.h</text>
</a>
</g>
</g>
<!-- Node1&#45;&gt;Node13 -->
<g id="edge13" class="edge">
<title>Node1&#45;&gt;Node13</title>
<path fill="none" stroke="#191970" d="M1368.3277,-230.3873C1378.8121,-221.1364 1395.2583,-206.625 1407.9099,-195.4618"/>
<polygon fill="#191970" stroke="#191970" points="1410.3924,-197.9392 1415.5751,-188.6985 1405.761,-192.6903 1410.3924,-197.9392"/>
</g>
<!-- Node14 -->
<g id="node15" class="node">
<title>Node14</title>
<g id="a_node15"><a xlink:href="Config_8h_source.html" target="_top" xlink:title=" ">
<polygon fill="#ffffff" stroke="#ff0000" points="545.9756,-55.5 545.9756,-73.5 652.0244,-73.5 652.0244,-55.5 545.9756,-55.5"/>
<text text-anchor="middle" x="599" y="-61.5" font-family="FreeSans" font-size="10.00" fill="#000000">DGtal/base/Config.h</text>
</a>
</g>
</g>
<!-- Node1&#45;&gt;Node14 -->
<g id="edge14" class="edge">
<title>Node1&#45;&gt;Node14</title>
<path fill="none" stroke="#191970" d="M1298.9713,-238.1809C1071.7543,-232.9661 265.3706,-213.1384 247,-194 158.6245,-101.9311 411.8826,-74.9327 535.4729,-67.3343"/>
<polygon fill="#191970" stroke="#191970" points="535.8016,-70.8211 545.5783,-66.7385 535.3895,-63.8332 535.8016,-70.8211"/>
</g>
<!-- Node16 -->
<g id="node16" class="node">
<title>Node16</title>
<g id="a_node16"><a xlink:href="Trace_8h_source.html" target="_top" xlink:title=" ">
<polygon fill="#ffffff" stroke="#ff0000" points="255.8311,-170.5 255.8311,-188.5 358.1689,-188.5 358.1689,-170.5 255.8311,-170.5"/>
<text text-anchor="middle" x="307" y="-176.5" font-family="FreeSans" font-size="10.00" fill="#000000">DGtal/base/Trace.h</text>
</a>
</g>
</g>
<!-- Node1&#45;&gt;Node16 -->
<g id="edge16" class="edge">
<title>Node1&#45;&gt;Node16</title>
<path fill="none" stroke="#191970" d="M1298.9476,-238.239C1114.3112,-234.0671 549.4562,-219.5065 368,-194 362.1303,-193.1749 355.9977,-192.0448 349.9797,-190.7767"/>
<polygon fill="#191970" stroke="#191970" points="350.5505,-187.3178 340.0266,-188.5419 349.0169,-194.1478 350.5505,-187.3178"/>
</g>
<!-- Node23 -->
<g id="node17" class="node">
<title>Node23</title>
<g id="a_node17"><a xlink:href="TraceWriterTerm_8h_source.html" target="_top" xlink:title=" ">
<polygon fill="#ffffff" stroke="#ff0000" points="816.478,-110.5 816.478,-128.5 967.522,-128.5 967.522,-110.5 816.478,-110.5"/>
<text text-anchor="middle" x="892" y="-116.5" font-family="FreeSans" font-size="10.00" fill="#000000">DGtal/base/TraceWriterTerm.h</text>
</a>
</g>
</g>
<!-- Node1&#45;&gt;Node23 -->
<g id="edge24" class="edge">
<title>Node1&#45;&gt;Node23</title>
<path fill="none" stroke="#191970" d="M1388.7639,-230.4245C1426.8849,-217.7139 1483.8409,-193.0015 1458,-165 1441.978,-147.6383 1132.5073,-130.762 978.1048,-123.3816"/>
<polygon fill="#191970" stroke="#191970" points="977.8676,-119.8665 967.7128,-122.888 977.5354,-126.8586 977.8676,-119.8665"/>
</g>
<!-- Node24 -->
<g id="node18" class="node">
<title>Node24</title>
<g id="a_node18"><a xlink:href="Assert_8h_source.html" target="_top" xlink:title=" ">
<polygon fill="#ffffff" stroke="#ff0000" points="373.2588,-110.5 373.2588,-128.5 478.7412,-128.5 478.7412,-110.5 373.2588,-110.5"/>
<text text-anchor="middle" x="426" y="-116.5" font-family="FreeSans" font-size="10.00" fill="#000000">DGtal/base/Assert.h</text>
</a>
</g>
</g>
<!-- Node1&#45;&gt;Node24 -->
<g id="edge27" class="edge">
<title>Node1&#45;&gt;Node24</title>
<path fill="none" stroke="#191970" d="M1361.252,-230.2038C1366.1149,-214.4161 1373.0095,-182.3887 1356,-165 1340.8195,-149.4811 695.9359,-127.9588 489.1214,-121.4441"/>
<polygon fill="#191970" stroke="#191970" points="489.1318,-117.9428 479.0268,-121.1271 488.912,-124.9393 489.1318,-117.9428"/>
</g>
<!-- Node27 -->
<g id="node19" class="node">
<title>Node27</title>
<g id="a_node19"><a xlink:href="TraceWriterFile_8h_source.html" target="_top" xlink:title=" ">
<polygon fill="#ffffff" stroke="#ff0000" points="1240.5322,-55.5 1240.5322,-73.5 1385.4678,-73.5 1385.4678,-55.5 1240.5322,-55.5"/>
<text text-anchor="middle" x="1313" y="-61.5" font-family="FreeSans" font-size="10.00" fill="#000000">DGtal/base/TraceWriterFile.h</text>
</a>
</g>
</g>
<!-- Node1&#45;&gt;Node27 -->
<g id="edge25" class="edge">
<title>Node1&#45;&gt;Node27</title>
<path fill="none" stroke="#191970" d="M1393.8132,-230.4768C1424.8791,-221.8396 1466.3415,-208.076 1476,-194 1483.2923,-183.3724 1482.2824,-176.2541 1476,-165 1468.3194,-151.2413 1382.6159,-102.7412 1338.6666,-78.5034"/>
<polygon fill="#191970" stroke="#191970" points="1340.1635,-75.3323 1329.714,-73.5833 1336.792,-81.4669 1340.1635,-75.3323"/>
</g>
<!-- Node28 -->
<g id="node20" class="node">
<title>Node28</title>
<g id="a_node20"><a xlink:href="ConceptUtils_8h_source.html" target="_top" xlink:title=" ">
<polygon fill="#ffffff" stroke="#000000" points="1403.084,-55.5 1403.084,-73.5 1536.916,-73.5 1536.916,-55.5 1403.084,-55.5"/>
<text text-anchor="middle" x="1470" y="-61.5" font-family="FreeSans" font-size="10.00" fill="#000000">DGtal/base/ConceptUtils.h</text>
</a>
</g>
</g>
<!-- Node1&#45;&gt;Node28 -->
<g id="edge28" class="edge">
<title>Node1&#45;&gt;Node28</title>
<path fill="none" stroke="#191970" d="M1402.0048,-230.4703C1437.0955,-222.2716 1482.1067,-209.1667 1493,-194 1500.5188,-183.5315 1497.2868,-177.1551 1493,-165 1486.1665,-145.6241 1470.8335,-148.3759 1464,-129 1458.7984,-114.251 1461.0184,-96.4931 1464.1319,-83.3473"/>
<polygon fill="#191970" stroke="#191970" points="1467.5474,-84.1263 1466.8141,-73.5569 1460.7962,-82.2767 1467.5474,-84.1263"/>
</g>
<!-- Node29 -->
<g id="node21" class="node">
<title>Node29</title>
<g id="a_node21"><a xlink:href="BasicTypes_8h_source.html" target="_top" xlink:title=" ">
<polygon fill="#ffffff" stroke="#ff0000" points="1472.8599,-110.5 1472.8599,-128.5 1601.1401,-128.5 1601.1401,-110.5 1472.8599,-110.5"/>
<text text-anchor="middle" x="1537" y="-116.5" font-family="FreeSans" font-size="10.00" fill="#000000">DGtal/base/BasicTypes.h</text>
</a>
</g>
</g>
<!-- Node1&#45;&gt;Node29 -->
<g id="edge30" class="edge">
<title>Node1&#45;&gt;Node29</title>
<path fill="none" stroke="#191970" d="M1417.0421,-234.7817C1472.1007,-229.0106 1548.4486,-217.0247 1567,-194 1580.8562,-176.8027 1566.0822,-152.3667 1552.8015,-136.2326"/>
<polygon fill="#191970" stroke="#191970" points="1555.3717,-133.8549 1546.1522,-128.6346 1550.104,-138.4649 1555.3717,-133.8549"/>
</g>
<!-- Node32 -->
<g id="node22" class="node">
<title>Node32</title>
<g id="a_node22"><a xlink:href="BasicFunctors_8h_source.html" target="_top" xlink:title=" ">
<polygon fill="#ffffff" stroke="#ff0000" points="2036.7515,-170.5 2036.7515,-188.5 2177.2485,-188.5 2177.2485,-170.5 2036.7515,-170.5"/>
<text text-anchor="middle" x="2107" y="-176.5" font-family="FreeSans" font-size="10.00" fill="#000000">DGtal/base/BasicFunctors.h</text>
</a>
</g>
</g>
<!-- Node1&#45;&gt;Node32 -->
<g id="edge32" class="edge">
<title>Node1&#45;&gt;Node32</title>
<path fill="none" stroke="#191970" d="M1416.9979,-234.7977C1521.9033,-226.835 1747.3928,-209.9983 1938,-194 1966.7146,-191.5899 1998.311,-188.7635 2026.3783,-186.2494"/>
<polygon fill="#191970" stroke="#191970" points="2026.8995,-189.7168 2036.5474,-185.3386 2026.275,-182.7447 2026.8995,-189.7168"/>
</g>
<!-- Node40 -->
<g id="node24" class="node">
<title>Node40</title>
<g id="a_node24"><a xlink:href="BasicArchetypes_8h_source.html" target="_top" xlink:title=" ">
<polygon fill="#ffffff" stroke="#000000" points="1631.1899,-55.5 1631.1899,-73.5 1782.8101,-73.5 1782.8101,-55.5 1631.1899,-55.5"/>
<text text-anchor="middle" x="1707" y="-61.5" font-family="FreeSans" font-size="10.00" fill="#000000">DGtal/base/BasicArchetypes.h</text>
</a>
</g>
</g>
<!-- Node1&#45;&gt;Node40 -->
<g id="edge40" class="edge">
<title>Node1&#45;&gt;Node40</title>
<path fill="none" stroke="#191970" d="M1417.131,-236.3821C1489.8802,-231.4849 1608.0579,-219.7482 1643,-194 1647.8924,-190.3949 1682.0771,-117.9855 1698.3836,-83.0472"/>
<polygon fill="#191970" stroke="#191970" points="1701.5954,-84.4411 1702.6446,-73.8983 1695.2498,-81.4857 1701.5954,-84.4411"/>
</g>
<!-- Node41 -->
<g id="node25" class="node">
<title>Node41</title>
<g id="a_node25"><a xlink:href="Exceptions_8h_source.html" target="_top" xlink:title=" ">
<polygon fill="#ffffff" stroke="#000000" points="1694.9707,-110.5 1694.9707,-128.5 1821.0293,-128.5 1821.0293,-110.5 1694.9707,-110.5"/>
<text text-anchor="middle" x="1758" y="-116.5" font-family="FreeSans" font-size="10.00" fill="#000000">DGtal/base/Exceptions.h</text>
</a>
</g>
</g>
<!-- Node1&#45;&gt;Node41 -->
<g id="edge42" class="edge">
<title>Node1&#45;&gt;Node41</title>
<path fill="none" stroke="#191970" d="M1417.0719,-235.5634C1497.2466,-229.4786 1635.7142,-216.1231 1681,-194 1708.0414,-180.7897 1731.659,-154.5188 1745.3789,-136.9733"/>
<polygon fill="#191970" stroke="#191970" points="1748.386,-138.799 1751.617,-128.7088 1742.7989,-134.5818 1748.386,-138.799"/>
</g>
<!-- Node14&#45;&gt;Node2 -->
<g id="edge15" class="edge">
<title>Node14&#45;&gt;Node2</title>
<path fill="none" stroke="#191970" d="M652.0679,-61.8658C844.6707,-52.3052 1504.1767,-19.5679 1669.2883,-11.372"/>
<polygon fill="#191970" stroke="#191970" points="1669.6246,-14.8597 1679.4387,-10.8681 1669.2775,-7.8683 1669.6246,-14.8597"/>
</g>
<!-- Node16&#45;&gt;Node2 -->
<g id="edge17" class="edge">
<title>Node16&#45;&gt;Node2</title>
<path fill="none" stroke="#191970" d="M308.5073,-170.3474C311.4476,-155.453 319.3711,-126.0265 338,-110 407.5609,-50.1566 446.3293,-69.0989 537,-55 762.8883,-19.8754 1494.9773,-11.3488 1669.4308,-9.796"/>
<polygon fill="#191970" stroke="#191970" points="1669.6762,-13.2941 1679.6454,-9.7075 1669.6154,-6.2944 1669.6762,-13.2941"/>
</g>
<!-- Node16&#45;&gt;Node14 -->
<g id="edge18" class="edge">
<title>Node16&#45;&gt;Node14</title>
<path fill="none" stroke="#191970" d="M311.8625,-170.0863C320.2757,-154.8165 339.0686,-124.8624 364,-110 392.4284,-93.0529 476.4585,-79.58 535.8929,-71.819"/>
<polygon fill="#191970" stroke="#191970" points="536.4719,-75.2735 545.9455,-70.5298 535.5815,-68.3303 536.4719,-75.2735"/>
</g>
<!-- Node16&#45;&gt;Node23 -->
<g id="edge19" class="edge">
<title>Node16&#45;&gt;Node23</title>
<path fill="none" stroke="#191970" d="M341.0208,-170.4809C349.7626,-168.4208 359.188,-166.422 368,-165 521.1117,-140.2918 701.708,-128.3413 805.924,-123.0961"/>
<polygon fill="#191970" stroke="#191970" points="806.2622,-126.5837 816.0771,-122.5942 805.9165,-119.5923 806.2622,-126.5837"/>
</g>
<!-- Node16&#45;&gt;Node24 -->
<g id="edge22" class="edge">
<title>Node16&#45;&gt;Node24</title>
<path fill="none" stroke="#191970" d="M320.0642,-170.3873C337.8689,-160.3737 369.7189,-144.1964 393.9594,-132.7738"/>
<polygon fill="#191970" stroke="#191970" points="395.5638,-135.8878 403.1598,-128.5019 392.6158,-129.5388 395.5638,-135.8878"/>
</g>
<!-- Node23&#45;&gt;Node2 -->
<g id="edge20" class="edge">
<title>Node23&#45;&gt;Node2</title>
<path fill="none" stroke="#191970" d="M932.8811,-110.4827C996.5286,-96.7301 1123.3,-70.4832 1232,-55 1394.0836,-31.9128 1588.9945,-17.3555 1669.4543,-11.9171"/>
<polygon fill="#191970" stroke="#191970" points="1669.842,-15.3991 1679.5863,-11.2398 1669.375,-8.4147 1669.842,-15.3991"/>
</g>
<!-- Node23&#45;&gt;Node14 -->
<g id="edge21" class="edge">
<title>Node23&#45;&gt;Node14</title>
<path fill="none" stroke="#191970" d="M843.9451,-110.4795C792.7445,-100.8684 711.6853,-85.6525 656.9767,-75.383"/>
<polygon fill="#191970" stroke="#191970" points="657.5552,-71.9305 647.0811,-73.5255 656.2637,-78.8104 657.5552,-71.9305"/>
</g>
<!-- Node24&#45;&gt;Node16 -->
<g id="edge23" class="edge">
<title>Node24&#45;&gt;Node16</title>
<path fill="none" stroke="#191970" d="M413.1328,-128.5019C395.4322,-138.4698 363.6063,-154.6417 339.3098,-166.0993"/>
<polygon fill="#191970" stroke="#191970" points="337.6764,-162.9988 330.0829,-170.3873 340.6265,-169.3468 337.6764,-162.9988"/>
</g>
<!-- Node27&#45;&gt;Node2 -->
<g id="edge26" class="edge">
<title>Node27&#45;&gt;Node2</title>
<path fill="none" stroke="#191970" d="M1377.6199,-55.4795C1460.7182,-43.8794 1602.3058,-24.1147 1669.4896,-14.7362"/>
<polygon fill="#191970" stroke="#191970" points="1670.1929,-18.1721 1679.613,-13.3231 1669.2251,-11.2393 1670.1929,-18.1721"/>
</g>
<!-- Node28&#45;&gt;Node2 -->
<g id="edge29" class="edge">
<title>Node28&#45;&gt;Node2</title>
<path fill="none" stroke="#191970" d="M1508.8703,-55.4795C1553.3666,-45.1533 1625.7423,-28.3573 1669.6091,-18.1772"/>
<polygon fill="#191970" stroke="#191970" points="1670.6308,-21.5332 1679.5807,-15.8631 1669.0483,-14.7144 1670.6308,-21.5332"/>
</g>
<!-- Node29&#45;&gt;Node2 -->
<g id="edge31" class="edge">
<title>Node29&#45;&gt;Node2</title>
<path fill="none" stroke="#191970" d="M1542.2211,-110.3144C1550.4898,-96.5187 1567.8494,-70.4262 1589,-55 1613.3222,-37.2605 1645.4396,-25.4713 1670.0253,-18.3472"/>
<polygon fill="#191970" stroke="#191970" points="1671.0141,-21.7052 1679.7184,-15.6649 1669.1471,-14.9588 1671.0141,-21.7052"/>
</g>
<!-- Node32&#45;&gt;Node1 -->
<g id="edge39" class="edge">
<title>Node32&#45;&gt;Node1</title>
<path fill="none" stroke="#191970" d="M2036.6184,-186.8619C2011.2452,-189.2156 1982.4042,-191.7838 1956,-194 1764.9689,-210.0339 1538.9001,-226.9099 1427.2935,-234.8507"/>
<polygon fill="#191970" stroke="#191970" points="1426.9074,-231.3692 1417.1801,-235.568 1427.4027,-238.3517 1426.9074,-231.3692"/>
</g>
<!-- Node32&#45;&gt;Node4 -->
<g id="edge33" class="edge">
<title>Node32&#45;&gt;Node4</title>
<path fill="none" stroke="#191970" d="M2116.0239,-170.4761C2135.3265,-151.1735 2180.8668,-105.6332 2205.4965,-81.0035"/>
<polygon fill="#191970" stroke="#191970" points="2208.1024,-83.3474 2212.6986,-73.8014 2203.1526,-78.3976 2208.1024,-83.3474"/>
</g>
<!-- Node32&#45;&gt;Node12 -->
<g id="edge34" class="edge">
<title>Node32&#45;&gt;Node12</title>
<path fill="none" stroke="#191970" d="M2124.7698,-170.3873C2144.1235,-160.4623 2175.2846,-144.4822 2197.5226,-133.0782"/>
<polygon fill="#191970" stroke="#191970" points="2199.1453,-136.1795 2206.4463,-128.5019 2195.951,-129.9507 2199.1453,-136.1795"/>
</g>
<!-- Node34 -->
<g id="node23" class="node">
<title>Node34</title>
<g id="a_node23"><a xlink:href="Color_8h_source.html" target="_top" xlink:title=" ">
<polygon fill="#ffffff" stroke="#ff0000" points="2008.7046,-110.5 2008.7046,-128.5 2095.2954,-128.5 2095.2954,-110.5 2008.7046,-110.5"/>
<text text-anchor="middle" x="2052" y="-116.5" font-family="FreeSans" font-size="10.00" fill="#000000">DGtal/io/Color.h</text>
</a>
</g>
</g>
<!-- Node32&#45;&gt;Node34 -->
<g id="edge35" class="edge">
<title>Node32&#45;&gt;Node34</title>
<path fill="none" stroke="#191970" d="M2098.6467,-170.3873C2090.3282,-161.3126 2077.3696,-147.1759 2067.2197,-136.1033"/>
<polygon fill="#191970" stroke="#191970" points="2069.7693,-133.705 2060.4319,-128.6985 2064.6092,-138.4351 2069.7693,-133.705"/>
</g>
<!-- Node34&#45;&gt;Node1 -->
<g id="edge37" class="edge">
<title>Node34&#45;&gt;Node1</title>
<path fill="none" stroke="#191970" d="M2034.6185,-128.7486C2003.0436,-145.0662 1933.7222,-178.6864 1871,-194 1788.7092,-214.0913 1547.2028,-229.3673 1427.2468,-235.9496"/>
<polygon fill="#191970" stroke="#191970" points="1426.8701,-232.4649 1417.0749,-236.5029 1427.2503,-239.4545 1426.8701,-232.4649"/>
</g>
<!-- Node34&#45;&gt;Node2 -->
<g id="edge36" class="edge">
<title>Node34&#45;&gt;Node2</title>
<path fill="none" stroke="#191970" d="M2045.3854,-110.2208C2034.5543,-95.8042 2011.5635,-68.3038 1985,-55 1943.474,-34.2026 1810.5483,-19.2204 1744.6986,-12.8721"/>
<polygon fill="#191970" stroke="#191970" points="1744.6374,-9.3507 1734.3521,-11.8926 1743.9777,-16.3196 1744.6374,-9.3507"/>
</g>
<!-- Node34&#45;&gt;Node4 -->
<g id="edge38" class="edge">
<title>Node34&#45;&gt;Node4</title>
<path fill="none" stroke="#191970" d="M2080.072,-110.4179C2108.5794,-101.1949 2152.8975,-86.8567 2184.4201,-76.6582"/>
<polygon fill="#191970" stroke="#191970" points="2185.7317,-79.9125 2194.1688,-73.5042 2183.577,-73.2524 2185.7317,-79.9125"/>
</g>
<!-- Node40&#45;&gt;Node2 -->
<g id="edge41" class="edge">
<title>Node40&#45;&gt;Node2</title>
<path fill="none" stroke="#191970" d="M1707,-55.4179C1707,-48.2164 1707,-37.8962 1707,-28.8632"/>
<polygon fill="#191970" stroke="#191970" points="1710.5001,-28.7794 1707,-18.7795 1703.5001,-28.7795 1710.5001,-28.7794"/>
</g>
<!-- Node41&#45;&gt;Node2 -->
<g id="edge43" class="edge">
<title>Node41&#45;&gt;Node2</title>
<path fill="none" stroke="#191970" d="M1769.2396,-110.1397C1783.0846,-97.4318 1803.4478,-74.1127 1792,-55 1781.5501,-37.5533 1761.8728,-26.4183 1744.0809,-19.5337"/>
<polygon fill="#191970" stroke="#191970" points="1745.0558,-16.1661 1734.461,-16.1331 1742.7228,-22.7659 1745.0558,-16.1661"/>
</g>
<!-- Node42&#45;&gt;Node1 -->
<g id="edge46" class="edge">
<title>Node42&#45;&gt;Node1</title>
<path fill="none" stroke="#191970" d="M1333.1701,-610.4784C1299.0006,-603.2842 1253.5252,-591.4826 1216,-574 1170.1239,-552.6268 1052.4451,-488.8526 1029,-444 969.5746,-330.3139 1181.3514,-272.5105 1293.1806,-250.4284"/>
<polygon fill="#191970" stroke="#191970" points="1293.8686,-253.8603 1303.0227,-248.5261 1292.5402,-246.9875 1293.8686,-253.8603"/>
</g>
<!-- Node42&#45;&gt;Node2 -->
<g id="edge45" class="edge">
<title>Node42&#45;&gt;Node2</title>
<path fill="none" stroke="#191970" d="M1445.9167,-617.918C1592.4238,-613.7735 1956.9707,-601.0027 2076,-574 2354.0163,-510.9299 2586.7418,-530.9311 2629,-249 2643.6925,-150.9769 2610.4914,-93.1275 2519,-55 2447.0103,-24.9995 1894.4277,-12.8915 1744.453,-10.1382"/>
<polygon fill="#191970" stroke="#191970" points="1744.4243,-6.6372 1734.3627,-9.956 1744.2979,-13.636 1744.4243,-6.6372"/>
</g>
<!-- Node43 -->
<g id="node27" class="node">
<title>Node43</title>
<g id="a_node27"><a xlink:href="SpaceND_8h_source.html" target="_top" xlink:title=" ">
<polygon fill="#ffffff" stroke="#ff0000" points="1164.2539,-360.5 1164.2539,-378.5 1289.7461,-378.5 1289.7461,-360.5 1164.2539,-360.5"/>
<text text-anchor="middle" x="1227" y="-366.5" font-family="FreeSans" font-size="10.00" fill="#000000">DGtal/kernel/SpaceND.h</text>
</a>
</g>
</g>
<!-- Node42&#45;&gt;Node43 -->
<g id="edge47" class="edge">
<title>Node42&#45;&gt;Node43</title>
<path fill="none" stroke="#191970" d="M1377.6934,-610.4404C1364.7064,-591.707 1334.1684,-547.2591 1310,-509 1282.9081,-466.1129 1252.8793,-414.5674 1237.4381,-387.7433"/>
<polygon fill="#191970" stroke="#191970" points="1240.2851,-385.6726 1232.2709,-378.7427 1234.2144,-389.1578 1240.2851,-385.6726"/>
</g>
<!-- Node65 -->
<g id="node30" class="node">
<title>Node65</title>
<g id="a_node30"><a xlink:href="HyperRectDomain_8h_source.html" target="_top" xlink:title=" ">
<polygon fill="#ffffff" stroke="#ff0000" points="1956.9238,-290.5 1956.9238,-318.5 2069.0762,-318.5 2069.0762,-290.5 1956.9238,-290.5"/>
<text text-anchor="start" x="1964.9238" y="-306.5" font-family="FreeSans" font-size="10.00" fill="#000000">DGtal/kernel/domains</text>
<text text-anchor="middle" x="2013" y="-296.5" font-family="FreeSans" font-size="10.00" fill="#000000">/HyperRectDomain.h</text>
</a>
</g>
</g>
<!-- Node42&#45;&gt;Node65 -->
<g id="edge55" class="edge">
<title>Node42&#45;&gt;Node65</title>
<path fill="none" stroke="#191970" d="M1445.9978,-616.2456C1552.8275,-610.1481 1767.0629,-595.6348 1839,-574 1911.6306,-552.1566 1990,-570.3442 1990,-494.5 1990,-494.5 1990,-494.5 1990,-429.5 1990,-393.7812 1999.1962,-353.2549 2005.9586,-328.2824"/>
<polygon fill="#191970" stroke="#191970" points="2009.346,-329.1651 2008.6739,-318.5916 2002.6056,-327.2765 2009.346,-329.1651"/>
</g>
<!-- Node86 -->
<g id="node31" class="node">
<title>Node86</title>
<g id="a_node31"><a xlink:href="DigitalSetSelector_8h_source.html" target="_top" xlink:title=" ">
<polygon fill="#ffffff" stroke="#ff0000" points="586.3696,-290.5 586.3696,-318.5 709.6304,-318.5 709.6304,-290.5 586.3696,-290.5"/>
<text text-anchor="start" x="594.3696" y="-306.5" font-family="FreeSans" font-size="10.00" fill="#000000">DGtal/kernel/sets/Digital</text>
<text text-anchor="middle" x="648" y="-296.5" font-family="FreeSans" font-size="10.00" fill="#000000">SetSelector.h</text>
</a>
</g>
</g>
<!-- Node42&#45;&gt;Node86 -->
<g id="edge58" class="edge">
<title>Node42&#45;&gt;Node86</title>
<path fill="none" stroke="#191970" d="M1321.9065,-615.3259C1242.5907,-609.1869 1110.388,-596.0044 1067,-574 1014.864,-547.559 1021.5027,-515.4229 975,-480 948.7297,-459.989 937.6443,-462.0655 910,-444 892.2156,-432.3779 891.0722,-424.36 872,-415 816.2547,-387.6419 792.1146,-407.6074 737,-379 710.6342,-365.3147 685.1203,-342.6854 668.2208,-325.9515"/>
<polygon fill="#191970" stroke="#191970" points="670.6072,-323.3869 661.0901,-318.7311 665.6265,-328.3056 670.6072,-323.3869"/>
</g>
<!-- Node99 -->
<g id="node32" class="node">
<title>Node99</title>
<g id="a_node32"><a xlink:href="DigitalTopology_8h_source.html" target="_top" xlink:title=" ">
<polygon fill="#ffffff" stroke="#ff0000" points="407.8271,-295.5 407.8271,-313.5 568.1729,-313.5 568.1729,-295.5 407.8271,-295.5"/>
<text text-anchor="middle" x="488" y="-301.5" font-family="FreeSans" font-size="10.00" fill="#000000">DGtal/topology/DigitalTopology.h</text>
</a>
</g>
</g>
<!-- Node42&#45;&gt;Node99 -->
<g id="edge61" class="edge">
<title>Node42&#45;&gt;Node99</title>
<path fill="none" stroke="#191970" d="M1321.9375,-615.749C1234.1436,-609.7401 1078.6181,-596.3083 1027,-574 1001.4955,-562.9775 858.6494,-427.8211 834,-415 780.8124,-387.335 760.8418,-398.0598 704,-379 682.2465,-371.7058 677.5686,-367.824 656,-360 611.9784,-344.0311 560.809,-327.3993 526.6165,-316.5573"/>
<polygon fill="#191970" stroke="#191970" points="527.6002,-313.1976 517.0103,-313.522 525.4911,-319.8723 527.6002,-313.1976"/>
</g>
<!-- Node106 -->
<g id="node33" class="node">
<title>Node106</title>
<g id="a_node33"><a xlink:href="MetricAdjacency_8h_source.html" target="_top" xlink:title=" ">
<polygon fill="#ffffff" stroke="#ff0000" points="1038.0562,-420.5 1038.0562,-438.5 1203.9438,-438.5 1203.9438,-420.5 1038.0562,-420.5"/>
<text text-anchor="middle" x="1121" y="-426.5" font-family="FreeSans" font-size="10.00" fill="#000000">DGtal/topology/MetricAdjacency.h</text>
</a>
</g>
</g>
<!-- Node42&#45;&gt;Node106 -->
<g id="edge64" class="edge">
<title>Node42&#45;&gt;Node106</title>
<path fill="none" stroke="#191970" d="M1343.6723,-610.475C1317.2701,-603.332 1282.8214,-591.59 1256,-574 1201.8843,-538.5098 1154.2683,-476.9396 1132.9205,-446.9383"/>
<polygon fill="#191970" stroke="#191970" points="1135.7608,-444.8925 1127.1606,-438.7049 1130.025,-448.9052 1135.7608,-444.8925"/>
</g>
<!-- Node109 -->
<g id="node34" class="node">
<title>Node109</title>
<g id="a_node34"><a xlink:href="Object_8h_source.html" target="_top" xlink:title=" ">
<polygon fill="#ffffff" stroke="#ff0000" points="745.9165,-360.5 745.9165,-378.5 868.0835,-378.5 868.0835,-360.5 745.9165,-360.5"/>
<text text-anchor="middle" x="807" y="-366.5" font-family="FreeSans" font-size="10.00" fill="#000000">DGtal/topology/Object.h</text>
</a>
</g>
</g>
<!-- Node42&#45;&gt;Node109 -->
<g id="edge68" class="edge">
<title>Node42&#45;&gt;Node109</title>
<path fill="none" stroke="#191970" d="M1322.0126,-615.1955C1249.6701,-609.2161 1135.3051,-596.5061 1099,-574 1055.3949,-546.9686 1070.5523,-513.85 1032,-480 985.8326,-439.4637 965.2479,-441.8755 910,-415 886.1738,-403.4097 858.7054,-391.3383 838.13,-382.544"/>
<polygon fill="#191970" stroke="#191970" points="839.4871,-379.3179 828.9148,-378.6273 836.7489,-385.7601 839.4871,-379.3179"/>
</g>
<!-- Node118 -->
<g id="node36" class="node">
<title>Node118</title>
<g id="a_node36"><a xlink:href="KhalimskySpaceND_8h_source.html" target="_top" xlink:title=" ">
<polygon fill="#ffffff" stroke="#ff0000" points="1318.7539,-480.5 1318.7539,-508.5 1449.2461,-508.5 1449.2461,-480.5 1318.7539,-480.5"/>
<text text-anchor="start" x="1326.7539" y="-496.5" font-family="FreeSans" font-size="10.00" fill="#000000">DGtal/topology/Khalimsky</text>
<text text-anchor="middle" x="1384" y="-486.5" font-family="FreeSans" font-size="10.00" fill="#000000">SpaceND.h</text>
</a>
</g>
</g>
<!-- Node42&#45;&gt;Node118 -->
<g id="edge75" class="edge">
<title>Node42&#45;&gt;Node118</title>
<path fill="none" stroke="#191970" d="M1384,-610.1047C1384,-590.9573 1384,-546.8799 1384,-519.0202"/>
<polygon fill="#191970" stroke="#191970" points="1387.5001,-518.8791 1384,-508.8791 1380.5001,-518.8791 1387.5001,-518.8791"/>
</g>
<!-- Node119 -->
<g id="node37" class="node">
<title>Node119</title>
<g id="a_node37"><a xlink:href="KhalimskyPreSpaceND_8h_source.html" target="_top" xlink:title=" ">
<polygon fill="#ffffff" stroke="#ff0000" points="1411.7539,-415.5 1411.7539,-443.5 1542.2461,-443.5 1542.2461,-415.5 1411.7539,-415.5"/>
<text text-anchor="start" x="1419.7539" y="-431.5" font-family="FreeSans" font-size="10.00" fill="#000000">DGtal/topology/Khalimsky</text>
<text text-anchor="middle" x="1477" y="-421.5" font-family="FreeSans" font-size="10.00" fill="#000000">PreSpaceND.h</text>
</a>
</g>
</g>
<!-- Node42&#45;&gt;Node119 -->
<g id="edge85" class="edge">
<title>Node42&#45;&gt;Node119</title>
<path fill="none" stroke="#191970" d="M1391.7603,-610.4165C1406.8085,-592.3354 1440.0495,-550.0375 1458,-509 1465.7166,-491.3587 1470.5908,-470.0842 1473.4679,-453.9839"/>
<polygon fill="#191970" stroke="#191970" points="1476.9781,-454.2085 1475.1511,-443.7724 1470.0713,-453.07 1476.9781,-454.2085"/>
</g>
<!-- Node122 -->
<g id="node38" class="node">
<title>Node122</title>
<g id="a_node38"><a xlink:href="GridCurve_8h_source.html" target="_top" xlink:title="Header file for module GridCurve.cpp.">
<polygon fill="#ffffff" stroke="#ff0000" points="1711.8721,-545.5 1711.8721,-573.5 1830.1279,-573.5 1830.1279,-545.5 1711.8721,-545.5"/>
<text text-anchor="start" x="1719.8721" y="-561.5" font-family="FreeSans" font-size="10.00" fill="#000000">DGtal/geometry/curves</text>
<text text-anchor="middle" x="1771" y="-551.5" font-family="FreeSans" font-size="10.00" fill="#000000">/GridCurve.h</text>
</a>
</g>
</g>
<!-- Node42&#45;&gt;Node122 -->
<g id="edge86" class="edge">
<title>Node42&#45;&gt;Node122</title>
<path fill="none" stroke="#191970" d="M1442.3568,-610.4524C1511.8324,-599.681 1627.7335,-581.7119 1701.7004,-570.2441"/>
<polygon fill="#191970" stroke="#191970" points="1702.5043,-573.6614 1711.85,-568.6706 1701.4318,-566.744 1702.5043,-573.6614"/>
</g>
<!-- Node152 -->
<g id="node39" class="node">
<title>Node152</title>
<g id="a_node39"><a xlink:href="ExactPredicateLpSeparableMetric_8h_source.html" target="_top" xlink:title=" ">
<polygon fill="#ffffff" stroke="#ff0000" points="2384.6138,-285.5 2384.6138,-323.5 2567.3862,-323.5 2567.3862,-285.5 2384.6138,-285.5"/>
<text text-anchor="start" x="2392.6138" y="-311.5" font-family="FreeSans" font-size="10.00" fill="#000000">DGtal/geometry/volumes</text>
<text text-anchor="start" x="2392.6138" y="-301.5" font-family="FreeSans" font-size="10.00" fill="#000000">/distance/ExactPredicateLpSeparable</text>
<text text-anchor="middle" x="2476" y="-291.5" font-family="FreeSans" font-size="10.00" fill="#000000">Metric.h</text>
</a>
</g>
</g>
<!-- Node42&#45;&gt;Node152 -->
<g id="edge92" class="edge">
<title>Node42&#45;&gt;Node152</title>
<path fill="none" stroke="#191970" d="M1446.0176,-618.521C1584.7201,-615.7767 1916.1885,-605.9807 2023,-574 2198.2224,-521.5362 2375.9747,-386.7116 2445.4927,-330.1159"/>
<polygon fill="#191970" stroke="#191970" points="2447.9115,-332.6589 2453.4266,-323.6126 2443.4739,-327.2452 2447.9115,-332.6589"/>
</g>
<!-- Node157 -->
<g id="node40" class="node">
<title>Node157</title>
<g id="a_node40"><a xlink:href="ExactPredicateLpPowerSeparableMetric_8h_source.html" target="_top" xlink:title=" ">
<polygon fill="#ffffff" stroke="#ff0000" points="2163.2368,-285.5 2163.2368,-323.5 2328.7632,-323.5 2328.7632,-285.5 2163.2368,-285.5"/>
<text text-anchor="start" x="2171.2368" y="-311.5" font-family="FreeSans" font-size="10.00" fill="#000000">DGtal/geometry/volumes</text>
<text text-anchor="start" x="2171.2368" y="-301.5" font-family="FreeSans" font-size="10.00" fill="#000000">/distance/ExactPredicateLpPower</text>
<text text-anchor="middle" x="2246" y="-291.5" font-family="FreeSans" font-size="10.00" fill="#000000">SeparableMetric.h</text>
</a>
</g>
</g>
<!-- Node42&#45;&gt;Node157 -->
<g id="edge96" class="edge">
<title>Node42&#45;&gt;Node157</title>
<path fill="none" stroke="#191970" d="M1446.0238,-616.3518C1566.3353,-609.8882 1827.2768,-594.0297 1915,-574 2011.8885,-551.8776 2124,-593.882 2124,-494.5 2124,-494.5 2124,-494.5 2124,-429.5 2124,-384.9611 2164.1583,-350.383 2198.3949,-328.9968"/>
<polygon fill="#191970" stroke="#191970" points="2200.6328,-331.7352 2207.3984,-323.5818 2197.025,-325.7365 2200.6328,-331.7352"/>
</g>
<!-- Node43&#45;&gt;Node1 -->
<g id="edge49" class="edge">
<title>Node43&#45;&gt;Node1</title>
<path fill="none" stroke="#191970" d="M1227.1186,-360.4145C1227.8163,-343.5115 1231.6327,-306.9606 1251,-285 1265.0492,-269.0697 1285.626,-258.548 1304.991,-251.6801"/>
<polygon fill="#191970" stroke="#191970" points="1306.256,-254.9487 1314.665,-248.5036 1304.0721,-248.298 1306.256,-254.9487"/>
</g>
<!-- Node43&#45;&gt;Node2 -->
<g id="edge48" class="edge">
<title>Node43&#45;&gt;Node2</title>
<path fill="none" stroke="#191970" d="M1195.8697,-360.4882C1108.3555,-335.5197 852.3625,-264.9901 635,-230 589.9597,-222.7496 256.8117,-227.6428 226,-194 209.6094,-176.1033 236.9361,-116.3719 243,-110 292.2386,-58.2603 323.8877,-68.6273 394,-55 521.9907,-30.1231 1468.8543,-13.3862 1669.6481,-10.0949"/>
<polygon fill="#191970" stroke="#191970" points="1669.7592,-13.5936 1679.7008,-9.9311 1669.6451,-6.5945 1669.7592,-13.5936"/>
</g>
<!-- Node55 -->
<g id="node28" class="node">
<title>Node55</title>
<g id="a_node28"><a xlink:href="PointVector_8h_source.html" target="_top" xlink:title=" ">
<polygon fill="#ffffff" stroke="#ff0000" points="1691.3525,-295.5 1691.3525,-313.5 1824.6475,-313.5 1824.6475,-295.5 1691.3525,-295.5"/>
<text text-anchor="middle" x="1758" y="-301.5" font-family="FreeSans" font-size="10.00" fill="#000000">DGtal/kernel/PointVector.h</text>
</a>
</g>
</g>
<!-- Node43&#45;&gt;Node55 -->
<g id="edge50" class="edge">
<title>Node43&#45;&gt;Node55</title>
<path fill="none" stroke="#191970" d="M1290.0555,-362.0885C1365.2858,-353.2094 1494.8554,-337.8007 1606,-324 1630.3727,-320.9737 1656.9325,-317.5943 1680.9329,-314.5101"/>
<polygon fill="#191970" stroke="#191970" points="1681.5768,-317.9562 1691.0482,-313.2082 1680.6832,-311.0134 1681.5768,-317.9562"/>
</g>
<!-- Node55&#45;&gt;Node1 -->
<g id="edge54" class="edge">
<title>Node55&#45;&gt;Node1</title>
<path fill="none" stroke="#191970" d="M1702.3817,-295.462C1629.347,-283.5939 1501.3098,-262.7878 1423.6179,-250.1629"/>
<polygon fill="#191970" stroke="#191970" points="1423.8992,-246.6628 1413.4672,-248.5134 1422.7763,-253.5722 1423.8992,-246.6628"/>
</g>
<!-- Node55&#45;&gt;Node2 -->
<g id="edge51" class="edge">
<title>Node55&#45;&gt;Node2</title>
<path fill="none" stroke="#191970" d="M1781.5607,-295.4786C1816.8568,-280.5161 1882.1757,-246.8693 1909,-194 1923.9018,-164.6293 1955.7598,-116.4227 1905,-55 1884.873,-30.6451 1795.9434,-18.0945 1744.3694,-12.7544"/>
<polygon fill="#191970" stroke="#191970" points="1744.5736,-9.2576 1734.2766,-11.7519 1743.8817,-16.2233 1744.5736,-9.2576"/>
</g>
<!-- Node55&#45;&gt;Node4 -->
<g id="edge52" class="edge">
<title>Node55&#45;&gt;Node4</title>
<path fill="none" stroke="#191970" d="M1790.5606,-295.4547C1802.8929,-292.0885 1817.0731,-288.2894 1830,-285 1851.1423,-279.6201 2194.1198,-206.4996 2212,-194 2246.3739,-169.9699 2267.9438,-149.8932 2255,-110 2251.5578,-99.3911 2244.6112,-89.1855 2237.9755,-81.1379"/>
<polygon fill="#191970" stroke="#191970" points="2240.5725,-78.791 2231.333,-73.606 2235.3225,-83.4211 2240.5725,-78.791"/>
</g>
<!-- Node58 -->
<g id="node29" class="node">
<title>Node58</title>
<g id="a_node29"><a xlink:title=" ">
<polygon fill="#ffffff" stroke="#bfbfbf" points="2094.3843,-230.5 2094.3843,-248.5 2137.6157,-248.5 2137.6157,-230.5 2094.3843,-230.5"/>
<text text-anchor="middle" x="2116" y="-236.5" font-family="FreeSans" font-size="10.00" fill="#000000">vector</text>
</a>
</g>
</g>
<!-- Node55&#45;&gt;Node58 -->
<g id="edge53" class="edge">
<title>Node55&#45;&gt;Node58</title>
<path fill="none" stroke="#191970" d="M1792.9607,-295.4896C1807.191,-291.9774 1823.8303,-288.0676 1839,-285 1927.2996,-267.1444 2032.5073,-251.3516 2084.1663,-243.9524"/>
<polygon fill="#191970" stroke="#191970" points="2084.9445,-247.377 2094.3517,-242.5031 2083.9583,-240.4468 2084.9445,-247.377"/>
</g>
<!-- Node65&#45;&gt;Node1 -->
<g id="edge57" class="edge">
<title>Node65&#45;&gt;Node1</title>
<path fill="none" stroke="#191970" d="M1956.5869,-298.1614C1921.3572,-294.2509 1875.0495,-289.1977 1834,-285 1689.3254,-270.2057 1519.7547,-254.3525 1427.109,-245.8175"/>
<polygon fill="#191970" stroke="#191970" points="1427.2982,-242.3202 1417.0195,-244.8889 1426.6566,-249.2907 1427.2982,-242.3202"/>
</g>
<!-- Node65&#45;&gt;Node2 -->
<g id="edge56" class="edge">
<title>Node65&#45;&gt;Node2</title>
<path fill="none" stroke="#191970" d="M2069.3654,-292.011C2175.6251,-267.6778 2395,-213.3432 2395,-179.5 2395,-179.5 2395,-179.5 2395,-119.5 2395,-88.9131 2395.5062,-73.303 2371,-55 2320.6927,-17.4268 1877.117,-10.8563 1744.3707,-9.7288"/>
<polygon fill="#191970" stroke="#191970" points="1744.3113,-6.2284 1734.2838,-9.6487 1744.2556,-13.2281 1744.3113,-6.2284"/>
</g>
<!-- Node86&#45;&gt;Node1 -->
<g id="edge60" class="edge">
<title>Node86&#45;&gt;Node1</title>
<path fill="none" stroke="#191970" d="M709.6771,-295.93C737.2736,-292.2652 770.2324,-288.1214 800,-285 975.6426,-266.5824 1183.0562,-251.3878 1288.6586,-244.1192"/>
<polygon fill="#191970" stroke="#191970" points="1289.1274,-247.5954 1298.8646,-243.4196 1288.6486,-240.6118 1289.1274,-247.5954"/>
</g>
<!-- Node86&#45;&gt;Node2 -->
<g id="edge59" class="edge">
<title>Node86&#45;&gt;Node2</title>
<path fill="none" stroke="#191970" d="M598.8579,-290.4587C591.5538,-288.5302 584.0972,-286.6489 577,-285 466.1765,-259.253 76,-293.275 76,-179.5 76,-179.5 76,-179.5 76,-119.5 76,-88.9131 75.1317,-72.8079 100,-55 132.9646,-31.3945 1430.7533,-13.1463 1669.4725,-9.9859"/>
<polygon fill="#191970" stroke="#191970" points="1669.7674,-13.4824 1679.7204,-9.8509 1669.6751,-6.483 1669.7674,-13.4824"/>
</g>
<!-- Node99&#45;&gt;Node1 -->
<g id="edge63" class="edge">
<title>Node99&#45;&gt;Node1</title>
<path fill="none" stroke="#191970" d="M523.2829,-295.429C539.5336,-291.5979 559.1364,-287.4617 577,-285 713.5667,-266.1804 1124.6386,-248.5972 1288.9953,-242.1232"/>
<polygon fill="#191970" stroke="#191970" points="1289.1344,-245.6206 1298.9895,-241.7313 1288.86,-238.6259 1289.1344,-245.6206"/>
</g>
<!-- Node99&#45;&gt;Node2 -->
<g id="edge62" class="edge">
<title>Node99&#45;&gt;Node2</title>
<path fill="none" stroke="#191970" d="M450.4718,-295.4917C434.6479,-291.8982 415.991,-287.9284 399,-285 234.273,-256.6096 38,-346.6556 38,-179.5 38,-179.5 38,-179.5 38,-119.5 38,-85.532 49.4589,-71.7675 79,-55 150.4045,-14.4708 1432.7906,-10.0304 1669.5742,-9.5556"/>
<polygon fill="#191970" stroke="#191970" points="1669.7494,-13.0554 1679.7427,-9.5364 1669.7361,-6.0554 1669.7494,-13.0554"/>
</g>
<!-- Node106&#45;&gt;Node1 -->
<g id="edge66" class="edge">
<title>Node106&#45;&gt;Node1</title>
<path fill="none" stroke="#191970" d="M1124.3355,-420.4345C1129.6398,-406.6564 1140.8585,-379.9418 1155,-360 1182.0874,-321.8023 1189.4653,-310.0958 1229,-285 1253.2492,-269.6071 1283.3788,-258.6031 1308.42,-251.2766"/>
<polygon fill="#191970" stroke="#191970" points="1309.4204,-254.6311 1318.0975,-248.5517 1307.5231,-247.8931 1309.4204,-254.6311"/>
</g>
<!-- Node106&#45;&gt;Node2 -->
<g id="edge65" class="edge">
<title>Node106&#45;&gt;Node2</title>
<path fill="none" stroke="#191970" d="M1102.0456,-420.3711C1048.697,-395.0416 892.2074,-323.238 755,-285 517.6675,-218.8584 105.3113,-323.0787 229,-110 247.3262,-78.4295 256.1396,-68.6387 290,-55 355.777,-28.5057 1451.7194,-12.8366 1669.5351,-9.9763"/>
<polygon fill="#191970" stroke="#191970" points="1669.853,-13.4726 1679.8065,-9.8424 1669.7617,-6.4732 1669.853,-13.4726"/>
</g>
<!-- Node106&#45;&gt;Node43 -->
<g id="edge67" class="edge">
<title>Node106&#45;&gt;Node43</title>
<path fill="none" stroke="#191970" d="M1137.0991,-420.3873C1154.3985,-410.5952 1182.1104,-394.9092 1202.1981,-383.5388"/>
<polygon fill="#191970" stroke="#191970" points="1204.1182,-386.4738 1211.0967,-378.5019 1200.67,-380.382 1204.1182,-386.4738"/>
</g>
<!-- Node109&#45;&gt;Node1 -->
<g id="edge70" class="edge">
<title>Node109&#45;&gt;Node1</title>
<path fill="none" stroke="#191970" d="M811.9372,-360.3444C822.2328,-342.2851 847.8995,-302.3259 882,-285 917.3635,-267.0324 1165.2435,-250.5321 1288.6033,-243.3233"/>
<polygon fill="#191970" stroke="#191970" points="1288.9238,-246.8106 1298.7044,-242.7375 1288.5185,-239.8224 1288.9238,-246.8106"/>
</g>
<!-- Node109&#45;&gt;Node2 -->
<g id="edge69" class="edge">
<title>Node109&#45;&gt;Node2</title>
<path fill="none" stroke="#191970" d="M798.1845,-360.4409C777.8335,-339.6156 728.5833,-289.7509 719,-285 484.826,-168.9095 307.9169,-392.6019 138,-194 97.8383,-147.0582 94.9543,-99.3121 138,-55 165.5542,-26.6351 1433.7471,-12.2947 1669.4963,-9.8717"/>
<polygon fill="#191970" stroke="#191970" points="1669.6626,-13.3703 1679.6263,-9.7684 1669.5911,-6.3707 1669.6626,-13.3703"/>
</g>
<!-- Node109&#45;&gt;Node86 -->
<g id="edge74" class="edge">
<title>Node109&#45;&gt;Node86</title>
<path fill="none" stroke="#191970" d="M784.8917,-360.462C760.9457,-350.6728 722.1249,-334.8026 691.9288,-322.4583"/>
<polygon fill="#191970" stroke="#191970" points="693.0386,-319.1309 682.4578,-318.5865 690.3897,-325.6104 693.0386,-319.1309"/>
</g>
<!-- Node72 -->
<g id="node35" class="node">
<title>Node72</title>
<g id="a_node35"><a xlink:href="CountedPtr_8h_source.html" target="_top" xlink:title=" ">
<polygon fill="#ffffff" stroke="#ff0000" points="262.4092,-295.5 262.4092,-313.5 389.5908,-313.5 389.5908,-295.5 262.4092,-295.5"/>
<text text-anchor="middle" x="326" y="-301.5" font-family="FreeSans" font-size="10.00" fill="#000000">DGtal/base/CountedPtr.h</text>
</a>
</g>
</g>
<!-- Node109&#45;&gt;Node72 -->
<g id="edge71" class="edge">
<title>Node109&#45;&gt;Node72</title>
<path fill="none" stroke="#191970" d="M745.7474,-365.5464C665.5614,-359.7153 520.874,-346.9393 399,-324 388.1559,-321.9589 376.5567,-319.1538 365.8693,-316.3071"/>
<polygon fill="#191970" stroke="#191970" points="366.526,-312.8581 355.9564,-313.5887 364.6747,-319.6089 366.526,-312.8581"/>
</g>
<!-- Node72&#45;&gt;Node1 -->
<g id="edge73" class="edge">
<title>Node72&#45;&gt;Node1</title>
<path fill="none" stroke="#191970" d="M354.127,-295.4801C367.5656,-291.5604 383.9637,-287.3374 399,-285 570.6323,-258.3191 1098.4262,-244.9241 1288.7061,-240.8662"/>
<polygon fill="#191970" stroke="#191970" points="1288.938,-244.3622 1298.8618,-240.6517 1288.7901,-237.3638 1288.938,-244.3622"/>
</g>
<!-- Node72&#45;&gt;Node2 -->
<g id="edge72" class="edge">
<title>Node72&#45;&gt;Node2</title>
<path fill="none" stroke="#191970" d="M262.1123,-297.7182C190.446,-289.111 79.6814,-272.5033 45,-249 14.5377,-228.356 0,-216.2984 0,-179.5 0,-179.5 0,-179.5 0,-119.5 0,-83.2287 17.652,-71.4076 50,-55 124.567,-17.178 1429.6308,-10.5282 1669.3369,-9.6243"/>
<polygon fill="#191970" stroke="#191970" points="1669.6389,-13.1233 1679.626,-9.5866 1669.6132,-6.1233 1669.6389,-13.1233"/>
</g>
<!-- Node118&#45;&gt;Node1 -->
<g id="edge77" class="edge">
<title>Node118&#45;&gt;Node1</title>
<path fill="none" stroke="#191970" d="M1376.5927,-480.4197C1362.0456,-451.8789 1330.1876,-384.7521 1319,-324 1315.8608,-306.9533 1312.9863,-301.2567 1319,-285 1323.115,-273.8762 1331.2989,-263.6367 1339.1118,-255.6998"/>
<polygon fill="#191970" stroke="#191970" points="1341.7763,-257.9973 1346.6366,-248.5831 1336.9663,-252.9116 1341.7763,-257.9973"/>
</g>
<!-- Node118&#45;&gt;Node2 -->
<g id="edge76" class="edge">
<title>Node118&#45;&gt;Node2</title>
<path fill="none" stroke="#191970" d="M1385.5429,-480.294C1390.5062,-442.0039 1409.6963,-336.1085 1474,-285 1503.4407,-261.6006 1771.3654,-218.3792 1800,-194 1847.0983,-153.901 1850.0574,-99.4099 1807,-55 1789.9992,-37.4652 1764.9871,-26.0883 1744.2313,-19.096"/>
<polygon fill="#191970" stroke="#191970" points="1745.0274,-15.6772 1734.4377,-16.0079 1742.9222,-22.3532 1745.0274,-15.6772"/>
</g>
<!-- Node118&#45;&gt;Node43 -->
<g id="edge79" class="edge">
<title>Node118&#45;&gt;Node43</title>
<path fill="none" stroke="#191970" d="M1366.2953,-480.4039C1336.681,-456.8257 1277.3234,-409.5664 1246.5328,-385.0516"/>
<polygon fill="#191970" stroke="#191970" points="1248.6576,-382.2695 1238.6543,-378.7789 1244.2975,-387.7458 1248.6576,-382.2695"/>
</g>
<!-- Node118&#45;&gt;Node55 -->
<g id="edge78" class="edge">
<title>Node118&#45;&gt;Node55</title>
<path fill="none" stroke="#191970" d="M1449.549,-486.9013C1522.8768,-475.2901 1641.3951,-446.8161 1718,-379 1734.9517,-363.9931 1745.9957,-340.0305 1752.0979,-323.3485"/>
<polygon fill="#191970" stroke="#191970" points="1755.5053,-324.199 1755.4067,-313.6046 1748.877,-321.9481 1755.5053,-324.199"/>
</g>
<!-- Node118&#45;&gt;Node119 -->
<g id="edge80" class="edge">
<title>Node118&#45;&gt;Node119</title>
<path fill="none" stroke="#191970" d="M1404.1796,-480.396C1417.0977,-471.3672 1434.0568,-459.5141 1448.3583,-449.5184"/>
<polygon fill="#191970" stroke="#191970" points="1450.6684,-452.174 1456.8598,-443.5765 1446.6582,-446.4365 1450.6684,-452.174"/>
</g>
<!-- Node119&#45;&gt;Node1 -->
<g id="edge82" class="edge">
<title>Node119&#45;&gt;Node1</title>
<path fill="none" stroke="#191970" d="M1440.1199,-415.4916C1403.8597,-399.4912 1350.6211,-369.4919 1327,-324 1319.0125,-308.6168 1321.8936,-301.5641 1327,-285 1330.1847,-274.6697 1336.6056,-264.5868 1342.7818,-256.5488"/>
<polygon fill="#191970" stroke="#191970" points="1345.5758,-258.6616 1349.223,-248.7143 1340.1686,-254.216 1345.5758,-258.6616"/>
</g>
<!-- Node119&#45;&gt;Node2 -->
<g id="edge81" class="edge">
<title>Node119&#45;&gt;Node2</title>
<path fill="none" stroke="#191970" d="M1542.4241,-427.0892C1746.3662,-418.7137 2357,-386.7673 2357,-304.5 2357,-304.5 2357,-304.5 2357,-119.5 2357,-67.7279 2308.9034,-71.9943 2260,-55 2164.3435,-21.7586 1852.8065,-12.4284 1744.5086,-10.1552"/>
<polygon fill="#191970" stroke="#191970" points="1744.4499,-6.6534 1734.3813,-9.9509 1744.3087,-13.6519 1744.4499,-6.6534"/>
</g>
<!-- Node119&#45;&gt;Node43 -->
<g id="edge84" class="edge">
<title>Node119&#45;&gt;Node43</title>
<path fill="none" stroke="#191970" d="M1418.3861,-415.4327C1374.6139,-404.9273 1315.5417,-390.75 1274.6562,-380.9375"/>
<polygon fill="#191970" stroke="#191970" points="1275.2146,-377.4722 1264.6739,-378.5417 1273.5809,-384.2789 1275.2146,-377.4722"/>
</g>
<!-- Node119&#45;&gt;Node55 -->
<g id="edge83" class="edge">
<title>Node119&#45;&gt;Node55</title>
<path fill="none" stroke="#191970" d="M1542.486,-424.5552C1587.2151,-418.7715 1646.4049,-406.2235 1692,-379 1715.6591,-364.8738 1735.4529,-339.4381 1747.0163,-322.2643"/>
<polygon fill="#191970" stroke="#191970" points="1750.0665,-323.9933 1752.566,-313.6976 1744.1915,-320.1874 1750.0665,-323.9933"/>
</g>
<!-- Node122&#45;&gt;Node1 -->
<g id="edge89" class="edge">
<title>Node122&#45;&gt;Node1</title>
<path fill="none" stroke="#191970" d="M1754.7028,-545.3301C1723.0758,-518.1966 1650.6205,-457.8017 1584,-415 1565.727,-403.2601 1426.9299,-338.7637 1411,-324 1390.5315,-305.0299 1374.8301,-276.4572 1366.0053,-257.8896"/>
<polygon fill="#191970" stroke="#191970" points="1369.16,-256.3718 1361.8235,-248.7281 1362.792,-259.2785 1369.16,-256.3718"/>
</g>
<!-- Node122&#45;&gt;Node2 -->
<g id="edge87" class="edge">
<title>Node122&#45;&gt;Node2</title>
<path fill="none" stroke="#191970" d="M1830.3535,-551.5149C2000.9834,-527.2052 2486.3818,-448.1019 2576,-324 2602.5397,-287.2482 2659.0448,-279.6361 2561,-110 2539.5916,-72.9594 2522.4263,-69.0011 2482,-55 2411.9546,-30.7407 1889.9676,-14.5748 1744.5224,-10.5073"/>
<polygon fill="#191970" stroke="#191970" points="1744.4166,-7.0032 1734.3235,-10.2248 1744.2227,-14.0005 1744.4166,-7.0032"/>
</g>
<!-- Node122&#45;&gt;Node32 -->
<g id="edge90" class="edge">
<title>Node122&#45;&gt;Node32</title>
<path fill="none" stroke="#191970" d="M1798.5304,-545.3598C1833.9585,-524.9656 1891,-483.7119 1891,-429.5 1891,-429.5 1891,-429.5 1891,-369.5 1891,-329.1821 1897.7171,-315.5735 1924,-285 1963.8641,-238.6281 2029.4396,-207.9048 2070.3174,-192.1189"/>
<polygon fill="#191970" stroke="#191970" points="2071.7676,-195.313 2079.8969,-188.5184 2069.3048,-188.7605 2071.7676,-195.313"/>
</g>
<!-- Node122&#45;&gt;Node58 -->
<g id="edge88" class="edge">
<title>Node122&#45;&gt;Node58</title>
<path fill="none" stroke="#191970" d="M1830.402,-549.4229C1856.4504,-542.1961 1885.4744,-529.8843 1905,-509 1930.2064,-482.0397 1929,-466.4083 1929,-429.5 1929,-429.5 1929,-429.5 1929,-369.5 1929,-331.0068 1921.377,-312.8019 1948,-285 1949.2073,-283.7393 2036.2653,-260.5758 2084.563,-247.7978"/>
<polygon fill="#191970" stroke="#191970" points="2085.4629,-251.1802 2094.2361,-245.2404 2083.6736,-244.4128 2085.4629,-251.1802"/>
</g>
<!-- Node122&#45;&gt;Node118 -->
<g id="edge91" class="edge">
<title>Node122&#45;&gt;Node118</title>
<path fill="none" stroke="#191970" d="M1711.8018,-549.5571C1644.1568,-538.1956 1533.3023,-519.5766 1459.4983,-507.1806"/>
<polygon fill="#191970" stroke="#191970" points="1459.7801,-503.679 1449.3385,-505.4742 1458.6206,-510.5823 1459.7801,-503.679"/>
</g>
<!-- Node152&#45;&gt;Node1 -->
<g id="edge95" class="edge">
<title>Node152&#45;&gt;Node1</title>
<path fill="none" stroke="#191970" d="M2384.4669,-290.3364C2368.9871,-288.2941 2353.0568,-286.4102 2338,-285 1997.2075,-253.0822 1587.5499,-243.237 1427.1572,-240.4791"/>
<polygon fill="#191970" stroke="#191970" points="1427.0137,-236.9763 1416.9562,-240.3075 1426.8959,-243.9753 1427.0137,-236.9763"/>
</g>
<!-- Node152&#45;&gt;Node2 -->
<g id="edge93" class="edge">
<title>Node152&#45;&gt;Node2</title>
<path fill="none" stroke="#191970" d="M2495.4011,-285.2067C2516.4229,-262.1592 2547,-221.429 2547,-179.5 2547,-179.5 2547,-179.5 2547,-119.5 2547,-55.7966 2480.4748,-71.7025 2419,-55 2289.9496,-19.9374 1872.048,-11.6527 1744.3859,-9.9182"/>
<polygon fill="#191970" stroke="#191970" points="1744.365,-6.4177 1734.3202,-9.787 1744.2737,-13.4171 1744.365,-6.4177"/>
</g>
<!-- Node152&#45;&gt;Node12 -->
<g id="edge94" class="edge">
<title>Node152&#45;&gt;Node12</title>
<path fill="none" stroke="#191970" d="M2449.9807,-285.3985C2399.7581,-248.5288 2290.3887,-168.2377 2244.7027,-134.6984"/>
<polygon fill="#191970" stroke="#191970" points="2246.5833,-131.7371 2236.451,-128.6406 2242.4408,-137.3798 2246.5833,-131.7371"/>
</g>
<!-- Node157&#45;&gt;Node1 -->
<g id="edge99" class="edge">
<title>Node157&#45;&gt;Node1</title>
<path fill="none" stroke="#191970" d="M2163.2019,-294.0159C2136.0813,-290.8155 2105.7831,-287.4886 2078,-285 1839.3299,-263.6221 1555.2634,-248.7848 1426.9546,-242.6519"/>
<polygon fill="#191970" stroke="#191970" points="1427.0319,-239.1517 1416.877,-242.1729 1426.6994,-246.1438 1427.0319,-239.1517"/>
</g>
<!-- Node157&#45;&gt;Node2 -->
<g id="edge97" class="edge">
<title>Node157&#45;&gt;Node2</title>
<path fill="none" stroke="#191970" d="M2323.4099,-285.4835C2374.8548,-267.6881 2433,-235.2446 2433,-179.5 2433,-179.5 2433,-179.5 2433,-119.5 2433,-85.7683 2421.9153,-72.3704 2393,-55 2337.2759,-21.5246 1879.6157,-12.0734 1744.4502,-10"/>
<polygon fill="#191970" stroke="#191970" points="1744.2438,-6.4966 1734.1928,-9.8474 1744.1396,-13.4958 1744.2438,-6.4966"/>
</g>
<!-- Node157&#45;&gt;Node12 -->
<g id="edge98" class="edge">
<title>Node157&#45;&gt;Node12</title>
<path fill="none" stroke="#191970" d="M2243.7285,-285.3985C2239.5084,-249.9114 2230.5047,-174.1985 2226.279,-138.6641"/>
<polygon fill="#191970" stroke="#191970" points="2229.7435,-138.1573 2225.087,-128.6406 2222.7924,-138.984 2229.7435,-138.1573"/>
</g>
<!-- Node159&#45;&gt;Node1 -->
<g id="edge103" class="edge">
<title>Node159&#45;&gt;Node1</title>
<path fill="none" stroke="#191970" d="M1582.3106,-360.4556C1550.9704,-353.1095 1508.6519,-341.1385 1474,-324 1436.145,-305.2773 1397.5652,-274.3037 1375.8156,-255.5099"/>
<polygon fill="#191970" stroke="#191970" points="1377.9101,-252.6913 1368.085,-248.7266 1373.2932,-257.953 1377.9101,-252.6913"/>
</g>
<!-- Node159&#45;&gt;Node2 -->
<g id="edge101" class="edge">
<title>Node159&#45;&gt;Node2</title>
<path fill="none" stroke="#191970" d="M1626.6054,-360.279C1626.3723,-343.473 1628.176,-307.5193 1646,-285 1703.3639,-212.5252 1768.3154,-260.0236 1833,-194 1855.2666,-171.2724 1856.1744,-160.0766 1863,-129 1870.0554,-96.8768 1882.7333,-81.3111 1863,-55 1848.7608,-36.0143 1785.86,-22.3315 1744.4081,-15.1816"/>
<polygon fill="#191970" stroke="#191970" points="1744.8143,-11.701 1734.3743,-13.5053 1743.6608,-18.6053 1744.8143,-11.701"/>
</g>
<!-- Node159&#45;&gt;Node34 -->
<g id="edge105" class="edge">
<title>Node159&#45;&gt;Node34</title>
<path fill="none" stroke="#191970" d="M1630.6784,-360.2398C1637.9548,-343.0458 1655.7845,-306.0291 1682,-285 1687.6224,-280.4899 1918.4924,-197.0989 1925,-194 1963.0644,-175.8741 2004.7958,-150.1812 2029.6699,-134.1949"/>
<polygon fill="#191970" stroke="#191970" points="2031.8467,-136.955 2038.335,-128.5793 2028.0397,-131.0807 2031.8467,-136.955"/>
</g>
<!-- Node159&#45;&gt;Node55 -->
<g id="edge104" class="edge">
<title>Node159&#45;&gt;Node55</title>
<path fill="none" stroke="#191970" d="M1645.215,-360.462C1667.283,-349.5122 1704.6846,-330.9542 1730.3235,-318.2326"/>
<polygon fill="#191970" stroke="#191970" points="1732.1152,-321.2508 1739.5174,-313.6708 1729.0038,-314.9803 1732.1152,-321.2508"/>
</g>
<!-- Node159&#45;&gt;Node58 -->
<g id="edge102" class="edge">
<title>Node159&#45;&gt;Node58</title>
<path fill="none" stroke="#191970" d="M1683.319,-360.771C1725.5039,-353.3612 1784.2652,-341.1769 1834,-324 1871.7666,-310.9565 1877.2744,-298.1614 1915,-285 1973.1452,-264.7148 2043.964,-251.1388 2084.1304,-244.4201"/>
<polygon fill="#191970" stroke="#191970" points="2084.8297,-247.8523 2094.1332,-242.7832 2083.6992,-240.9441 2084.8297,-247.8523"/>
</g>
<!-- Node160 -->
<g id="node42" class="node">
<title>Node160</title>
<g id="a_node42"><a xlink:href="Mesh_8ih_source.html" target="_top" xlink:title=" ">
<polygon fill="#ffffff" stroke="#000000" points="1482.8105,-295.5 1482.8105,-313.5 1597.1895,-313.5 1597.1895,-295.5 1482.8105,-295.5"/>
<text text-anchor="middle" x="1540" y="-301.5" font-family="FreeSans" font-size="10.00" fill="#000000">DGtal/shapes/Mesh.ih</text>
</a>
</g>
</g>
<!-- Node159&#45;&gt;Node160 -->
<g id="edge106" class="edge">
<title>Node159&#45;&gt;Node160</title>
<path fill="none" stroke="#191970" d="M1614.903,-360.462C1600.8282,-349.9464 1577.3616,-332.4138 1560.4416,-319.7725"/>
<polygon fill="#191970" stroke="#191970" points="1562.3806,-316.8522 1552.2747,-313.6708 1558.1909,-322.4599 1562.3806,-316.8522"/>
</g>
<!-- Node161&#45;&gt;Node1 -->
<g id="edge108" class="edge">
<title>Node161&#45;&gt;Node1</title>
<path fill="none" stroke="#191970" d="M1679.3766,-727.1556C1505.1648,-721.1643 1068.9269,-704.322 1006,-684 962.4684,-669.9416 944.582,-666.9237 919,-629 825.2223,-489.9804 931.6762,-373.6827 1074,-285 1108.8901,-263.2598 1216.3822,-250.663 1288.652,-244.4413"/>
<polygon fill="#191970" stroke="#191970" points="1289.374,-247.8931 1299.0463,-243.5692 1288.7887,-240.9176 1289.374,-247.8931"/>
</g>
<!-- Node161&#45;&gt;Node2 -->
<g id="edge109" class="edge">
<title>Node161&#45;&gt;Node2</title>
<path fill="none" stroke="#191970" d="M1822.8646,-728.714C2007.1876,-726.2425 2493.3151,-716.727 2651,-684 2730.9391,-667.4089 2823,-701.1427 2823,-619.5 2823,-619.5 2823,-619.5 2823,-119.5 2823,-47.3393 2744.2968,-71.2946 2674,-55 2582.3804,-33.7628 1911.7053,-14.8786 1744.6206,-10.4686"/>
<polygon fill="#191970" stroke="#191970" points="1744.4432,-6.9628 1734.3548,-10.1991 1744.2595,-13.9604 1744.4432,-6.9628"/>
</g>
<!-- Node161&#45;&gt;Node4 -->
<g id="edge111" class="edge">
<title>Node161&#45;&gt;Node4</title>
<path fill="none" stroke="#191970" d="M1822.6972,-727.1295C1987.6603,-721.3756 2390.1972,-705.5427 2524,-684 2633.895,-666.3065 2766,-730.8103 2766,-619.5 2766,-619.5 2766,-619.5 2766,-429.5 2766,-185.852 2385.0486,-94.3845 2260.7261,-71.0217"/>
<polygon fill="#191970" stroke="#191970" points="2261.3314,-67.5744 2250.8637,-69.2109 2260.0672,-74.4593 2261.3314,-67.5744"/>
</g>
<!-- Node161&#45;&gt;Node43 -->
<g id="edge118" class="edge">
<title>Node161&#45;&gt;Node43</title>
<path fill="none" stroke="#191970" d="M1679.3291,-727.4602C1478.1835,-720.7899 923,-695.4959 923,-619.5 923,-619.5 923,-619.5 923,-559.5 923,-420.7648 1124.8221,-551.1079 1213,-444 1225.6409,-428.6453 1228.2361,-405.4567 1228.2408,-389.0344"/>
<polygon fill="#191970" stroke="#191970" points="1231.7356,-388.8102 1227.9219,-378.9255 1224.7391,-389.031 1231.7356,-388.8102"/>
</g>
<!-- Node161&#45;&gt;Node58 -->
<g id="edge110" class="edge">
<title>Node161&#45;&gt;Node58</title>
<path fill="none" stroke="#191970" d="M1822.7342,-727.2395C2029.0197,-719.9801 2612.5153,-693.8364 2666,-629 2834.5496,-424.6771 2332.9891,-519.2427 2154,-324 2136.6449,-305.0689 2126.1566,-276.8826 2120.7206,-258.3498"/>
<polygon fill="#191970" stroke="#191970" points="2124.0961,-257.4244 2118.09,-248.6964 2117.3424,-259.2649 2124.0961,-257.4244"/>
</g>
<!-- Node161&#45;&gt;Node72 -->
<g id="edge120" class="edge">
<title>Node161&#45;&gt;Node72</title>
<path fill="none" stroke="#191970" d="M1679.3569,-727.7174C1471.3421,-722.3028 879.764,-705.1198 844,-684 781.4469,-647.0603 810.5382,-595.1714 758,-545 633.873,-426.4646 440.1088,-346.3792 361.2093,-316.9921"/>
<polygon fill="#191970" stroke="#191970" points="362.324,-313.6729 351.7305,-313.5006 359.9044,-320.2414 362.324,-313.6729"/>
</g>
<!-- Node161&#45;&gt;Node118 -->
<g id="edge119" class="edge">
<title>Node161&#45;&gt;Node118</title>
<path fill="none" stroke="#191970" d="M1679.4358,-723.6744C1567.2179,-712.8884 1357.9793,-685.5591 1313,-629 1284.3351,-592.9554 1327.6858,-543.5938 1358.2285,-515.7921"/>
<polygon fill="#191970" stroke="#191970" points="1360.8739,-518.1252 1366.0492,-508.8803 1356.2383,-512.88 1360.8739,-518.1252"/>
</g>
<!-- Node162 -->
<g id="node44" class="node">
<title>Node162</title>
<g id="a_node44"><a xlink:title=" ">
<polygon fill="#ffffff" stroke="#bfbfbf" points="1559.8794,-665.5 1559.8794,-683.5 1608.1206,-683.5 1608.1206,-665.5 1559.8794,-665.5"/>
<text text-anchor="middle" x="1584" y="-671.5" font-family="FreeSans" font-size="10.00" fill="#000000">GL/gl.h</text>
</a>
</g>
</g>
<!-- Node161&#45;&gt;Node162 -->
<g id="edge112" class="edge">
<title>Node161&#45;&gt;Node162</title>
<path fill="none" stroke="#191970" d="M1723.4233,-720.4179C1694.4995,-710.8921 1649.0072,-695.9096 1617.908,-685.6673"/>
<polygon fill="#191970" stroke="#191970" points="1618.9489,-682.3252 1608.3558,-682.5214 1616.7591,-688.9739 1618.9489,-682.3252"/>
</g>
<!-- Node163 -->
<g id="node45" class="node">
<title>Node163</title>
<g id="a_node45"><a xlink:title=" ">
<polygon fill="#ffffff" stroke="#bfbfbf" points="1626.0986,-665.5 1626.0986,-683.5 1679.9014,-683.5 1679.9014,-665.5 1626.0986,-665.5"/>
<text text-anchor="middle" x="1653" y="-671.5" font-family="FreeSans" font-size="10.00" fill="#000000">GL/glu.h</text>
</a>
</g>
</g>
<!-- Node161&#45;&gt;Node163 -->
<g id="edge113" class="edge">
<title>Node161&#45;&gt;Node163</title>
<path fill="none" stroke="#191970" d="M1734.8173,-720.4179C1719.3548,-711.7399 1695.8232,-698.5334 1677.9591,-688.5077"/>
<polygon fill="#191970" stroke="#191970" points="1679.6402,-685.4377 1669.2067,-683.5956 1676.2143,-691.542 1679.6402,-685.4377"/>
</g>
<!-- Node164 -->
<g id="node46" class="node">
<title>Node164</title>
<g id="a_node46"><a xlink:title=" ">
<polygon fill="#ffffff" stroke="#bfbfbf" points="1697.6948,-665.5 1697.6948,-683.5 1804.3052,-683.5 1804.3052,-665.5 1697.6948,-665.5"/>
<text text-anchor="middle" x="1751" y="-671.5" font-family="FreeSans" font-size="10.00" fill="#000000">QtGui/qapplication.h</text>
</a>
</g>
</g>
<!-- Node161&#45;&gt;Node164 -->
<g id="edge114" class="edge">
<title>Node161&#45;&gt;Node164</title>
<path fill="none" stroke="#191970" d="M1751,-720.4179C1751,-713.2164 1751,-702.8962 1751,-693.8632"/>
<polygon fill="#191970" stroke="#191970" points="1754.5001,-693.7794 1751,-683.7795 1747.5001,-693.7795 1754.5001,-693.7794"/>
</g>
<!-- Node165 -->
<g id="node47" class="node">
<title>Node165</title>
<g id="a_node47"><a xlink:title=" ">
<polygon fill="#ffffff" stroke="#bfbfbf" points="1822.208,-665.5 1822.208,-683.5 1941.792,-683.5 1941.792,-665.5 1822.208,-665.5"/>
<text text-anchor="middle" x="1882" y="-671.5" font-family="FreeSans" font-size="10.00" fill="#000000">QGLViewer/qglviewer.h</text>
</a>
</g>
</g>
<!-- Node161&#45;&gt;Node165 -->
<g id="edge115" class="edge">
<title>Node161&#45;&gt;Node165</title>
<path fill="none" stroke="#191970" d="M1772.632,-720.4179C1793.965,-711.4613 1826.7879,-697.6806 1850.9125,-687.552"/>
<polygon fill="#191970" stroke="#191970" points="1852.4705,-690.6939 1860.3359,-683.5956 1849.7606,-684.2397 1852.4705,-690.6939"/>
</g>
<!-- Node166 -->
<g id="node48" class="node">
<title>Node166</title>
<g id="a_node48"><a xlink:title=" ">
<polygon fill="#ffffff" stroke="#bfbfbf" points="1960.248,-665.5 1960.248,-683.5 2027.752,-683.5 2027.752,-665.5 1960.248,-665.5"/>
<text text-anchor="middle" x="1994" y="-671.5" font-family="FreeSans" font-size="10.00" fill="#000000">QGLWidget</text>
</a>
</g>
</g>
<!-- Node161&#45;&gt;Node166 -->
<g id="edge116" class="edge">
<title>Node161&#45;&gt;Node166</title>
<path fill="none" stroke="#191970" d="M1790.8544,-720.4795C1834.6668,-710.5631 1904.8409,-694.68 1950.1739,-684.4195"/>
<polygon fill="#191970" stroke="#191970" points="1951.0304,-687.8142 1960.0111,-682.193 1949.4851,-680.9869 1951.0304,-687.8142"/>
</g>
<!-- Node167 -->
<g id="node49" class="node">
<title>Node167</title>
<g id="a_node49"><a xlink:title=" ">
<polygon fill="#ffffff" stroke="#bfbfbf" points="2045.7095,-665.5 2045.7095,-683.5 2112.2905,-683.5 2112.2905,-665.5 2045.7095,-665.5"/>
<text text-anchor="middle" x="2079" y="-671.5" font-family="FreeSans" font-size="10.00" fill="#000000">QKeyEvent</text>
</a>
</g>
</g>
<!-- Node161&#45;&gt;Node167 -->
<g id="edge117" class="edge">
<title>Node161&#45;&gt;Node167</title>
<path fill="none" stroke="#191970" d="M1815.385,-720.4721C1871.2171,-712.3663 1954.4063,-699.6269 2035.6715,-684.1653"/>
<polygon fill="#191970" stroke="#191970" points="2036.4088,-687.5877 2045.5703,-682.2663 2035.09,-680.7131 2036.4088,-687.5877"/>
</g>
<!-- Node168 -->
<g id="node50" class="node">
<title>Node168</title>
<g id="a_node50"><a xlink:href="Display3D_8h_source.html" target="_top" xlink:title=" ">
<polygon fill="#ffffff" stroke="#ff0000" points="2264.5938,-665.5 2264.5938,-683.5 2373.4063,-683.5 2373.4063,-665.5 2264.5938,-665.5"/>
<text text-anchor="middle" x="2319" y="-671.5" font-family="FreeSans" font-size="10.00" fill="#000000">DGtal/io/Display3D.h</text>
</a>
</g>
</g>
<!-- Node161&#45;&gt;Node168 -->
<g id="edge121" class="edge">
<title>Node161&#45;&gt;Node168</title>
<path fill="none" stroke="#191970" d="M1822.6498,-722.5621C1934.1718,-711.7633 2147.5507,-691.1016 2254.5182,-680.7438"/>
<polygon fill="#191970" stroke="#191970" points="2254.9146,-684.2219 2264.5307,-679.7743 2254.2399,-677.2545 2254.9146,-684.2219"/>
</g>
<!-- Node168&#45;&gt;Node1 -->
<g id="edge125" class="edge">
<title>Node168&#45;&gt;Node1</title>
<path fill="none" stroke="#191970" d="M2264.5304,-671.8815C2092.1727,-662.8784 1570,-629.8016 1570,-559.5 1570,-559.5 1570,-559.5 1570,-494.5 1570,-458.1716 1573.8856,-443.2135 1551,-415 1527.4547,-385.9732 1508.2054,-396.1563 1475,-379 1430.6267,-356.0735 1406.8386,-364.0534 1377,-324 1362.7914,-304.9274 1358.8874,-277.1653 1357.9785,-258.7324"/>
<polygon fill="#191970" stroke="#191970" points="1361.4749,-258.5346 1357.7343,-248.6221 1354.4769,-258.7037 1361.4749,-258.5346"/>
</g>
<!-- Node168&#45;&gt;Node2 -->
<g id="edge122" class="edge">
<title>Node168&#45;&gt;Node2</title>
<path fill="none" stroke="#191970" d="M2361.5419,-665.4764C2394.7667,-657.7373 2441.7289,-645.2628 2481,-629 2527.1458,-609.8903 2539.6743,-604.7913 2579,-574 2716.4714,-466.3626 2785,-414.0972 2785,-239.5 2785,-239.5 2785,-239.5 2785,-119.5 2785,-11.6215 2657.4763,-72.3372 2551,-55 2392.3762,-29.1719 1887.2947,-14.2315 1744.7718,-10.4561"/>
<polygon fill="#191970" stroke="#191970" points="1744.4718,-6.9471 1734.3835,-10.1838 1744.2883,-13.9447 1744.4718,-6.9471"/>
</g>
<!-- Node168&#45;&gt;Node4 -->
<g id="edge124" class="edge">
<title>Node168&#45;&gt;Node4</title>
<path fill="none" stroke="#191970" d="M2351.7839,-665.4314C2413.2239,-646.7323 2545.8906,-598.0014 2617,-509 2658.5451,-457.0016 2646.95,-424.8562 2632,-360 2616.2153,-291.5229 2599.6141,-270.2354 2542,-230 2443.6359,-161.3064 2313.0156,-102.6367 2253.7051,-77.5374"/>
<polygon fill="#191970" stroke="#191970" points="2255.0556,-74.3085 2244.4806,-73.6617 2252.3442,-80.762 2255.0556,-74.3085"/>
</g>
<!-- Node168&#45;&gt;Node34 -->
<g id="edge127" class="edge">
<title>Node168&#45;&gt;Node34</title>
<path fill="none" stroke="#191970" d="M2373.4299,-666.1112C2427.2781,-654.8316 2507.8538,-629.3724 2552,-574 2632.3463,-473.2219 2652.1863,-388.9586 2576,-285 2519.2176,-207.5186 2227.5152,-149.525 2105.6265,-128.3054"/>
<polygon fill="#191970" stroke="#191970" points="2105.861,-124.7942 2095.4116,-126.5441 2104.6715,-131.6925 2105.861,-124.7942"/>
</g>
<!-- Node168&#45;&gt;Node42 -->
<g id="edge129" class="edge">
<title>Node168&#45;&gt;Node42</title>
<path fill="none" stroke="#191970" d="M2264.3461,-671.2851C2104.2796,-661.8694 1636.4837,-634.352 1456.0997,-623.7412"/>
<polygon fill="#191970" stroke="#191970" points="1456.1121,-620.2359 1445.9238,-623.1426 1455.701,-627.2238 1456.1121,-620.2359"/>
</g>
<!-- Node168&#45;&gt;Node58 -->
<g id="edge123" class="edge">
<title>Node168&#45;&gt;Node58</title>
<path fill="none" stroke="#191970" d="M2322.8067,-665.3275C2334.2404,-636.2652 2365.5425,-544.3499 2333,-480 2280.2073,-375.6071 2176.8542,-426.7874 2121,-324 2110.0119,-303.7788 2110.5961,-276.6767 2112.7064,-258.679"/>
<polygon fill="#191970" stroke="#191970" points="2116.2022,-258.9589 2114.1673,-248.5614 2109.274,-257.9585 2116.2022,-258.9589"/>
</g>
<!-- Node168&#45;&gt;Node72 -->
<g id="edge126" class="edge">
<title>Node168&#45;&gt;Node72</title>
<path fill="none" stroke="#191970" d="M2264.3752,-671.8288C2224.6149,-669.8968 2169.4727,-667.2427 2121,-665 1868.0175,-653.2953 1214.905,-680.2112 985,-574 960.0872,-562.4908 820.3979,-427.564 796,-415 738.8822,-385.5864 716.1806,-401.4921 656,-379 638.3126,-372.3894 635.9633,-365.8193 618,-360 524.1616,-329.6005 495.4318,-344.7531 399,-324 388.5041,-321.7412 377.258,-318.9336 366.8142,-316.1589"/>
<polygon fill="#191970" stroke="#191970" points="367.6648,-312.7633 357.0976,-313.5278 365.8351,-319.5199 367.6648,-312.7633"/>
</g>
<!-- Node168&#45;&gt;Node159 -->
<g id="edge128" class="edge">
<title>Node168&#45;&gt;Node159</title>
<path fill="none" stroke="#191970" d="M2319,-665.258C2319,-645.7299 2319,-598.8316 2319,-559.5 2319,-559.5 2319,-559.5 2319,-494.5 2319,-431.3215 1866.5475,-388.5861 1693.3482,-374.5414"/>
<polygon fill="#191970" stroke="#191970" points="1693.5843,-371.0492 1683.3359,-373.7363 1693.0231,-378.0266 1693.5843,-371.0492"/>
</g>
</g>
</svg>
        <g id="navigator" transform="translate(0 0)" fill="#404254">
                <rect fill="#f2f5e9" fill-opacity="0.5" stroke="#606060" stroke-width=".5" x="0" y="0" width="60" height="60"/>
                <use id="zoomplus" xlink:href="#zoomPlus" x="17" y="9" onmousedown="handleZoom(evt,'in')"/>
                <use id="zoomminus" xlink:href="#zoomMin" x="42" y="9" onmousedown="handleZoom(evt,'out')"/>
                <use id="reset" xlink:href="#resetDef" x="30" y="36" onmousedown="handleReset()"/>
                <g id="arrowUp" xlink:href="#dirArrow" transform="translate(30 24)" onmousedown="handlePan(0,-1)">
                  <use xlink:href="#rim" fill="#404040">
                        <set attributeName="fill" to="#808080" begin="arrowUp.mouseover" end="arrowUp.mouseout"/>
                  </use>
                  <path fill="none" stroke="white" stroke-width="1.5" d="M0,-3.0v7 M-2.5,-0.5L0,-3.0L2.5,-0.5"/>
                </g>
                <g id="arrowRight" xlink:href="#dirArrow" transform="rotate(90) translate(36 -43)" onmousedown="handlePan(1,0)">
                  <use xlink:href="#rim" fill="#404040">
                        <set attributeName="fill" to="#808080" begin="arrowRight.mouseover" end="arrowRight.mouseout"/>
                  </use>
                  <path fill="none" stroke="white" stroke-width="1.5" d="M0,-3.0v7 M-2.5,-0.5L0,-3.0L2.5,-0.5"/>
                </g>
                <g id="arrowDown" xlink:href="#dirArrow" transform="rotate(180) translate(-30 -48)" onmousedown="handlePan(0,1)">
                  <use xlink:href="#rim" fill="#404040">
                        <set attributeName="fill" to="#808080" begin="arrowDown.mouseover" end="arrowDown.mouseout"/>
                  </use>
                  <path fill="none" stroke="white" stroke-width="1.5" d="M0,-3.0v7 M-2.5,-0.5L0,-3.0L2.5,-0.5"/>
                </g>
                <g id="arrowLeft" xlink:href="#dirArrow" transform="rotate(270) translate(-36 17)" onmousedown="handlePan(-1,0)">
                  <use xlink:href="#rim" fill="#404040">
                        <set attributeName="fill" to="#808080" begin="arrowLeft.mouseover" end="arrowLeft.mouseout"/>
                  </use>
                  <path fill="none" stroke="white" stroke-width="1.5" d="M0,-3.0v7 M-2.5,-0.5L0,-3.0L2.5,-0.5"/>
                </g>
        </g>
        <svg viewBox="0 0 15 15" width="100%" height="30px" preserveAspectRatio="xMaxYMin meet">
         <g id="arrow_out" transform="scale(0.3 0.3)">
          <a xlink:href="testMeshDisplay_8cpp__incl_org.svg" target="_base">
           <rect id="button" ry="5" rx="5" y="6" x="6" height="38" width="38"
                fill="#f2f5e9" fill-opacity="0.5" stroke="#606060" stroke-width="1.0"/>
           <path id="arrow"
             d="M 11.500037,31.436501 C 11.940474,20.09759 22.043105,11.32322 32.158766,21.979434 L 37.068811,17.246167 C 37.068811,17.246167 37.088388,32 37.088388,32 L 22.160133,31.978069 C 22.160133,31.978069 26.997745,27.140456 26.997745,27.140456 C 18.528582,18.264221 13.291696,25.230495 11.500037,31.436501 z"
             style="fill:#404040;"/>
          </a>
         </g>
        </svg>
</svg>
