<?xml version="1.0" encoding="UTF-8" standalone="no"?>
<!DOCTYPE svg PUBLIC "-//W3C//DTD SVG 1.1//EN"
 "http://www.w3.org/Graphics/SVG/1.1/DTD/svg11.dtd">
<!-- Generated by graphviz version 2.40.1 (20161225.0304)
 -->
<!-- Title: testHashTree.cpp Pages: 1 -->
<!--zoomable 682 -->
<svg id="main" version="1.1" xmlns="http://www.w3.org/2000/svg" xmlns:xlink="http://www.w3.org/1999/xlink" xml:space="preserve" onload="init(evt)">
<style type="text/css"><![CDATA[
.edge:hover path { stroke: red; }
.edge:hover polygon { stroke: red; fill: red; }
]]></style>
<script type="text/javascript"><![CDATA[
var edges = document.getElementsByTagName('g');
if (edges && edges.length) {
  for (var i=0;i<edges.length;i++) {
    if (edges[i].id.substr(0,4)=='edge') {
      edges[i].setAttribute('class','edge');
    }
  }
}
]]></script>
        <defs>
                <circle id="rim" cx="0" cy="0" r="7"/>
                <circle id="rim2" cx="0" cy="0" r="3.5"/>
                <g id="zoomPlus">
                        <use xlink:href="#rim" fill="#404040">
                                <set attributeName="fill" to="#808080" begin="zoomplus.mouseover" end="zoomplus.mouseout"/>
                        </use>
                        <path d="M-4,0h8M0,-4v8" fill="none" stroke="white" stroke-width="1.5" pointer-events="none"/>
                </g>
                <g id="zoomMin">
                        <use xlink:href="#rim" fill="#404040">
                                <set attributeName="fill" to="#808080" begin="zoomminus.mouseover" end="zoomminus.mouseout"/>
                        </use>
                        <path d="M-4,0h8" fill="none" stroke="white" stroke-width="1.5" pointer-events="none"/>
                </g>
                <g id="dirArrow">
                        <path fill="none" stroke="white" stroke-width="1.5" d="M0,-3.0v7 M-2.5,-0.5L0,-3.0L2.5,-0.5"/>
                </g>
               <g id="resetDef">
                       <use xlink:href="#rim2" fill="#404040">
                               <set attributeName="fill" to="#808080" begin="reset.mouseover" end="reset.mouseout"/>
                       </use>
               </g>
        </defs>

<script type="text/javascript">
var viewWidth = 3486;
var viewHeight = 682;
var sectionId = 'dynsection-0';
</script>
<script xlink:href="svgpan.js"/>
<svg id="graph" class="graph">
<g id="viewport">
<title>testHashTree.cpp</title>
<polygon fill="#ffffff" stroke="transparent" points="-4,4 -4,-678 3482.3197,-678 3482.3197,4 -4,4"/>
<!-- Node0 -->
<g id="node1" class="node">
<title>Node0</title>
<g id="a_node1"><a xlink:title=" ">
<polygon fill="#bfbfbf" stroke="#000000" points="1970.7202,-655.5 1970.7202,-673.5 2065.2798,-673.5 2065.2798,-655.5 1970.7202,-655.5"/>
<text text-anchor="middle" x="2018" y="-661.5" font-family="FreeSans" font-size="10.00" fill="#000000">testHashTree.cpp</text>
</a>
</g>
</g>
<!-- Node1 -->
<g id="node2" class="node">
<title>Node1</title>
<g id="a_node2"><a xlink:title=" ">
<polygon fill="#ffffff" stroke="#bfbfbf" points="1203.8276,-.5 1203.8276,-18.5 1258.1724,-18.5 1258.1724,-.5 1203.8276,-.5"/>
<text text-anchor="middle" x="1231" y="-6.5" font-family="FreeSans" font-size="10.00" fill="#000000">iostream</text>
</a>
</g>
</g>
<!-- Node0&#45;&gt;Node1 -->
<g id="edge1" class="edge">
<title>Node0&#45;&gt;Node1</title>
<path fill="none" stroke="#191970" d="M2065.3995,-663.2494C2307.5312,-656.5563 3395,-622.7 3395,-554.5 3395,-554.5 3395,-554.5 3395,-119.5 3395,-101.9252 3675.042,-136.6698 3206,-55 3008.5315,-20.6167 1524.849,-11.0877 1268.6328,-9.6919"/>
<polygon fill="#191970" stroke="#191970" points="1268.3782,-6.1906 1258.3595,-9.6368 1268.3405,-13.1905 1268.3782,-6.1906"/>
</g>
<!-- Node2 -->
<g id="node3" class="node">
<title>Node2</title>
<g id="a_node3"><a xlink:href="Common_8h_source.html" target="_top" xlink:title=" ">
<polygon fill="#ffffff" stroke="#000000" points="1379.1455,-235.5 1379.1455,-253.5 1496.8545,-253.5 1496.8545,-235.5 1379.1455,-235.5"/>
<text text-anchor="middle" x="1438" y="-241.5" font-family="FreeSans" font-size="10.00" fill="#000000">DGtal/base/Common.h</text>
</a>
</g>
</g>
<!-- Node0&#45;&gt;Node2 -->
<g id="edge2" class="edge">
<title>Node0&#45;&gt;Node2</title>
<path fill="none" stroke="#191970" d="M2001.9354,-655.2953C1977.1259,-640.0315 1930.4288,-606.8676 1912,-564 1901.2451,-538.9827 1930.3888,-534.8337 1939,-509 1943.0758,-496.7725 1944.8121,-491.504 1939,-480 1876.5077,-356.3074 1814.6937,-351.1591 1688,-295 1630.0303,-269.304 1558.6871,-256.5539 1507.0719,-250.3067"/>
<polygon fill="#191970" stroke="#191970" points="1507.3581,-246.8166 1497.0217,-249.1421 1506.5523,-253.77 1507.3581,-246.8166"/>
</g>
<!-- Node42 -->
<g id="node26" class="node">
<title>Node42</title>
<g id="a_node26"><a xlink:href="Board2D_8h_source.html" target="_top" xlink:title=" ">
<polygon fill="#ffffff" stroke="#000000" points="2074.9683,-600.5 2074.9683,-618.5 2211.0317,-618.5 2211.0317,-600.5 2074.9683,-600.5"/>
<text text-anchor="middle" x="2143" y="-606.5" font-family="FreeSans" font-size="10.00" fill="#000000">DGtal/io/boards/Board2D.h</text>
</a>
</g>
</g>
<!-- Node0&#45;&gt;Node42 -->
<g id="edge45" class="edge">
<title>Node0&#45;&gt;Node42</title>
<path fill="none" stroke="#191970" d="M2038.6412,-655.4179C2058.9066,-646.5011 2090.0385,-632.803 2113.029,-622.6873"/>
<polygon fill="#191970" stroke="#191970" points="2114.5846,-625.8267 2122.3281,-618.5956 2111.7654,-619.4195 2114.5846,-625.8267"/>
</g>
<!-- Node220 -->
<g id="node30" class="node">
<title>Node220</title>
<g id="a_node30"><a xlink:href="HyperRectDomain_8h_source.html" target="_top" xlink:title=" ">
<polygon fill="#ffffff" stroke="#ff0000" points="1439.9238,-415.5 1439.9238,-443.5 1552.0762,-443.5 1552.0762,-415.5 1439.9238,-415.5"/>
<text text-anchor="start" x="1447.9238" y="-431.5" font-family="FreeSans" font-size="10.00" fill="#000000">DGtal/kernel/domains</text>
<text text-anchor="middle" x="1496" y="-421.5" font-family="FreeSans" font-size="10.00" fill="#000000">/HyperRectDomain.h</text>
</a>
</g>
</g>
<!-- Node0&#45;&gt;Node220 -->
<g id="edge137" class="edge">
<title>Node0&#45;&gt;Node220</title>
<path fill="none" stroke="#191970" d="M1970.4511,-660.5866C1889.8751,-653.5511 1730.0812,-637.739 1677,-619 1588.2338,-587.6633 1542.148,-591.0475 1496,-509 1486.6198,-492.3228 1487.399,-470.394 1490.0851,-453.7922"/>
<polygon fill="#191970" stroke="#191970" points="1493.5626,-454.245 1492.038,-443.7605 1486.6916,-452.9074 1493.5626,-454.245"/>
</g>
<!-- Node227 -->
<g id="node36" class="node">
<title>Node227</title>
<g id="a_node36"><a xlink:href="ImageContainerByHashTree_8h_source.html" target="_top" xlink:title=" ">
<polygon fill="#ffffff" stroke="#ff0000" points="1779.7466,-480.5 1779.7466,-508.5 1930.2534,-508.5 1930.2534,-480.5 1779.7466,-480.5"/>
<text text-anchor="start" x="1787.7466" y="-496.5" font-family="FreeSans" font-size="10.00" fill="#000000">DGtal/images/ImageContainer</text>
<text text-anchor="middle" x="1855" y="-486.5" font-family="FreeSans" font-size="10.00" fill="#000000">ByHashTree.h</text>
</a>
</g>
</g>
<!-- Node0&#45;&gt;Node227 -->
<g id="edge138" class="edge">
<title>Node0&#45;&gt;Node227</title>
<path fill="none" stroke="#191970" d="M1975.1912,-655.4897C1939.2938,-647.0661 1891.886,-633.62 1879,-619 1854.5861,-591.301 1851.8615,-546.4512 1852.885,-518.8167"/>
<polygon fill="#191970" stroke="#191970" points="1856.381,-518.9832 1853.4487,-508.8022 1849.3921,-518.5897 1856.381,-518.9832"/>
</g>
<!-- Node112 -->
<g id="node37" class="node">
<title>Node112</title>
<g id="a_node37"><a xlink:href="SpaceND_8h_source.html" target="_top" xlink:title=" ">
<polygon fill="#ffffff" stroke="#000000" points="1296.2539,-420.5 1296.2539,-438.5 1421.7461,-438.5 1421.7461,-420.5 1296.2539,-420.5"/>
<text text-anchor="middle" x="1359" y="-426.5" font-family="FreeSans" font-size="10.00" fill="#000000">DGtal/kernel/SpaceND.h</text>
</a>
</g>
</g>
<!-- Node0&#45;&gt;Node112 -->
<g id="edge136" class="edge">
<title>Node0&#45;&gt;Node112</title>
<path fill="none" stroke="#191970" d="M1970.3162,-662.4345C1837.2435,-656.4538 1468.2182,-638.3153 1417,-619 1340.9813,-590.332 1307.2542,-581.7071 1271,-509 1265.2485,-497.4655 1264.5409,-491.1537 1271,-480 1281.2038,-462.3798 1300.1348,-450.3757 1317.8313,-442.5085"/>
<polygon fill="#191970" stroke="#191970" points="1319.5486,-445.5871 1327.4724,-438.554 1316.8922,-439.1107 1319.5486,-445.5871"/>
</g>
<!-- Node238 -->
<g id="node39" class="node">
<title>Node238</title>
<g id="a_node39"><a xlink:href="ImageContainerBySTLVector_8h_source.html" target="_top" xlink:title=" ">
<polygon fill="#ffffff" stroke="#ff0000" points="1279.7466,-480.5 1279.7466,-508.5 1430.2534,-508.5 1430.2534,-480.5 1279.7466,-480.5"/>
<text text-anchor="start" x="1287.7466" y="-496.5" font-family="FreeSans" font-size="10.00" fill="#000000">DGtal/images/ImageContainer</text>
<text text-anchor="middle" x="1355" y="-486.5" font-family="FreeSans" font-size="10.00" fill="#000000">BySTLVector.h</text>
</a>
</g>
</g>
<!-- Node0&#45;&gt;Node238 -->
<g id="edge139" class="edge">
<title>Node0&#45;&gt;Node238</title>
<path fill="none" stroke="#191970" d="M1970.2681,-663.0153C1840.7414,-658.6658 1489.3033,-644.6172 1444,-619 1404.0708,-596.4217 1377.5198,-547.6734 1364.4628,-518.3215"/>
<polygon fill="#191970" stroke="#191970" points="1367.5529,-516.6455 1360.4073,-508.823 1361.1151,-519.3942 1367.5529,-516.6455"/>
</g>
<!-- Node295 -->
<g id="node40" class="node">
<title>Node295</title>
<g id="a_node40"><a xlink:href="StdDefs_8h_source.html" target="_top" xlink:title=" ">
<polygon fill="#ffffff" stroke="#ff0000" points="1524.0864,-485.5 1524.0864,-503.5 1647.9136,-503.5 1647.9136,-485.5 1524.0864,-485.5"/>
<text text-anchor="middle" x="1586" y="-491.5" font-family="FreeSans" font-size="10.00" fill="#000000">DGtal/helpers/StdDefs.h</text>
</a>
</g>
</g>
<!-- Node0&#45;&gt;Node295 -->
<g id="edge140" class="edge">
<title>Node0&#45;&gt;Node295</title>
<path fill="none" stroke="#191970" d="M1970.6055,-659.02C1873.5918,-646.869 1657.1159,-614.6687 1605,-564 1591.5764,-550.9492 1587.3546,-529.4022 1586.1632,-513.7548"/>
<polygon fill="#191970" stroke="#191970" points="1589.654,-513.4561 1585.7431,-503.6095 1582.66,-513.7458 1589.654,-513.4561"/>
</g>
<!-- Node312 -->
<g id="node42" class="node">
<title>Node312</title>
<g id="a_node42"><a xlink:href="GradientColorMap_8h_source.html" target="_top" xlink:title=" ">
<polygon fill="#ffffff" stroke="#000000" points="2342.5889,-295.5 2342.5889,-323.5 2451.4111,-323.5 2451.4111,-295.5 2342.5889,-295.5"/>
<text text-anchor="start" x="2350.5889" y="-311.5" font-family="FreeSans" font-size="10.00" fill="#000000">DGtal/io/colormaps</text>
<text text-anchor="middle" x="2397" y="-301.5" font-family="FreeSans" font-size="10.00" fill="#000000">/GradientColorMap.h</text>
</a>
</g>
</g>
<!-- Node0&#45;&gt;Node312 -->
<g id="edge129" class="edge">
<title>Node0&#45;&gt;Node312</title>
<path fill="none" stroke="#191970" d="M2065.3752,-662.6429C2181.2541,-657.0066 2473.8508,-635.8076 2533,-564 2596.4704,-486.9464 2478.7266,-375.6465 2423.4259,-330.1023"/>
<polygon fill="#191970" stroke="#191970" points="2425.4073,-327.2029 2415.436,-323.6217 2420.9977,-332.6394 2425.4073,-327.2029"/>
</g>
<!-- Node314 -->
<g id="node44" class="node">
<title>Node314</title>
<g id="a_node44"><a xlink:href="HueShadeColorMap_8h_source.html" target="_top" xlink:title=" ">
<polygon fill="#ffffff" stroke="#000000" points="2614.1357,-295.5 2614.1357,-323.5 2731.8643,-323.5 2731.8643,-295.5 2614.1357,-295.5"/>
<text text-anchor="start" x="2622.1357" y="-311.5" font-family="FreeSans" font-size="10.00" fill="#000000">DGtal/io/colormaps</text>
<text text-anchor="middle" x="2673" y="-301.5" font-family="FreeSans" font-size="10.00" fill="#000000">/HueShadeColorMap.h</text>
</a>
</g>
</g>
<!-- Node0&#45;&gt;Node314 -->
<g id="edge122" class="edge">
<title>Node0&#45;&gt;Node314</title>
<path fill="none" stroke="#191970" d="M2065.3695,-661.553C2215.8261,-651.5676 2673,-616.1536 2673,-554.5 2673,-554.5 2673,-554.5 2673,-429.5 2673,-396.2578 2673,-357.8357 2673,-333.6052"/>
<polygon fill="#191970" stroke="#191970" points="2676.5001,-333.5405 2673,-323.5405 2669.5001,-333.5406 2676.5001,-333.5405"/>
</g>
<!-- Node318 -->
<g id="node47" class="node">
<title>Node318</title>
<g id="a_node47"><a xlink:href="GrayscaleColorMap_8h_source.html" target="_top" xlink:title=" ">
<polygon fill="#ffffff" stroke="#000000" points="2781.2588,-295.5 2781.2588,-323.5 2896.7412,-323.5 2896.7412,-295.5 2781.2588,-295.5"/>
<text text-anchor="start" x="2789.2588" y="-311.5" font-family="FreeSans" font-size="10.00" fill="#000000">DGtal/io/colormaps</text>
<text text-anchor="middle" x="2839" y="-301.5" font-family="FreeSans" font-size="10.00" fill="#000000">/GrayscaleColorMap.h</text>
</a>
</g>
</g>
<!-- Node0&#45;&gt;Node318 -->
<g id="edge123" class="edge">
<title>Node0&#45;&gt;Node318</title>
<path fill="none" stroke="#191970" d="M2065.3246,-662.5056C2228.9824,-654.9881 2761,-625.1192 2761,-554.5 2761,-554.5 2761,-554.5 2761,-429.5 2761,-389.7632 2791.439,-352.8439 2814.2868,-330.729"/>
<polygon fill="#191970" stroke="#191970" points="2816.7709,-333.1981 2821.6893,-323.814 2811.9924,-328.0828 2816.7709,-333.1981"/>
</g>
<!-- Node320 -->
<g id="node49" class="node">
<title>Node320</title>
<g id="a_node49"><a xlink:href="ColorBrightnessColorMap_8h_source.html" target="_top" xlink:title=" ">
<polygon fill="#ffffff" stroke="#000000" points="2955.1948,-295.5 2955.1948,-323.5 3096.8052,-323.5 3096.8052,-295.5 2955.1948,-295.5"/>
<text text-anchor="start" x="2963.1948" y="-311.5" font-family="FreeSans" font-size="10.00" fill="#000000">DGtal/io/colormaps</text>
<text text-anchor="middle" x="3026" y="-301.5" font-family="FreeSans" font-size="10.00" fill="#000000">/ColorBrightnessColorMap.h</text>
</a>
</g>
</g>
<!-- Node0&#45;&gt;Node320 -->
<g id="edge130" class="edge">
<title>Node0&#45;&gt;Node320</title>
<path fill="none" stroke="#191970" d="M2065.6013,-663.9524C2255.9323,-661.1444 2952,-644.7086 2952,-554.5 2952,-554.5 2952,-554.5 2952,-429.5 2952,-390.3086 2980.95,-353.1976 3002.6351,-330.8968"/>
<polygon fill="#191970" stroke="#191970" points="3005.3086,-333.1747 3009.9431,-323.6472 3000.3788,-328.2051 3005.3086,-333.1747"/>
</g>
<!-- Node2&#45;&gt;Node1 -->
<g id="edge3" class="edge">
<title>Node2&#45;&gt;Node1</title>
<path fill="none" stroke="#191970" d="M1438.2549,-235.2959C1439.273,-197.8214 1442.8577,-58.5467 1440,-55 1418.8675,-28.7719 1322.7376,-16.8679 1268.5107,-12.1575"/>
<polygon fill="#191970" stroke="#191970" points="1268.5133,-8.6458 1258.2587,-11.3092 1267.936,-15.622 1268.5133,-8.6458"/>
</g>
<!-- Node3 -->
<g id="node4" class="node">
<title>Node3</title>
<g id="a_node4"><a xlink:title=" ">
<polygon fill="#ffffff" stroke="#bfbfbf" points="1661.5962,-170.5 1661.5962,-188.5 1720.4038,-188.5 1720.4038,-170.5 1661.5962,-170.5"/>
<text text-anchor="middle" x="1691" y="-176.5" font-family="FreeSans" font-size="10.00" fill="#000000">exception</text>
</a>
</g>
</g>
<!-- Node2&#45;&gt;Node3 -->
<g id="edge4" class="edge">
<title>Node2&#45;&gt;Node3</title>
<path fill="none" stroke="#191970" d="M1480.5246,-235.4435C1523.1541,-226.0911 1590.5306,-210.5639 1648,-194 1650.4508,-193.2936 1652.9695,-192.534 1655.4996,-191.7459"/>
<polygon fill="#191970" stroke="#191970" points="1656.7536,-195.0191 1665.1958,-188.6175 1654.6042,-188.3572 1656.7536,-195.0191"/>
</g>
<!-- Node4 -->
<g id="node5" class="node">
<title>Node4</title>
<g id="a_node5"><a xlink:title=" ">
<polygon fill="#ffffff" stroke="#bfbfbf" points="1927.436,-55.5 1927.436,-73.5 1984.564,-73.5 1984.564,-55.5 1927.436,-55.5"/>
<text text-anchor="middle" x="1956" y="-61.5" font-family="FreeSans" font-size="10.00" fill="#000000">algorithm</text>
</a>
</g>
</g>
<!-- Node2&#45;&gt;Node4 -->
<g id="edge5" class="edge">
<title>Node2&#45;&gt;Node4</title>
<path fill="none" stroke="#191970" d="M1487.9084,-235.4788C1524.4165,-227.6564 1574.4393,-214.3438 1615,-194 1633.9904,-184.4751 1634.2155,-174.9247 1653,-165 1742.2191,-117.8614 1857.7932,-86.9391 1917.1066,-73.0101"/>
<polygon fill="#191970" stroke="#191970" points="1918.2093,-76.3476 1927.164,-70.6851 1916.6326,-69.5274 1918.2093,-76.3476"/>
</g>
<!-- Node5 -->
<g id="node6" class="node">
<title>Node5</title>
<g id="a_node6"><a xlink:title=" ">
<polygon fill="#ffffff" stroke="#bfbfbf" points="1738.5298,-170.5 1738.5298,-188.5 1833.4702,-188.5 1833.4702,-170.5 1738.5298,-170.5"/>
<text text-anchor="middle" x="1786" y="-176.5" font-family="FreeSans" font-size="10.00" fill="#000000">boost/version.hpp</text>
</a>
</g>
</g>
<!-- Node2&#45;&gt;Node5 -->
<g id="edge6" class="edge">
<title>Node2&#45;&gt;Node5</title>
<path fill="none" stroke="#191970" d="M1497.0577,-235.6229C1556.0321,-226.4365 1649.1449,-211.0594 1729,-194 1733.3875,-193.0627 1737.9479,-192.02 1742.4928,-190.9357"/>
<polygon fill="#191970" stroke="#191970" points="1743.4652,-194.3011 1752.3441,-188.5204 1741.7983,-187.5024 1743.4652,-194.3011"/>
</g>
<!-- Node6 -->
<g id="node7" class="node">
<title>Node6</title>
<g id="a_node7"><a xlink:title=" ">
<polygon fill="#ffffff" stroke="#bfbfbf" points="500.2935,-170.5 500.2935,-188.5 629.7065,-188.5 629.7065,-170.5 500.2935,-170.5"/>
<text text-anchor="middle" x="565" y="-176.5" font-family="FreeSans" font-size="10.00" fill="#000000">boost/concept_check.hpp</text>
</a>
</g>
</g>
<!-- Node2&#45;&gt;Node6 -->
<g id="edge7" class="edge">
<title>Node2&#45;&gt;Node6</title>
<path fill="none" stroke="#191970" d="M1379.0105,-243.1275C1246.9216,-239.5342 917.4952,-227.6774 644,-194 635.9318,-193.0065 627.4415,-191.7136 619.1397,-190.3091"/>
<polygon fill="#191970" stroke="#191970" points="619.6028,-186.8369 609.1479,-188.5532 618.3912,-193.7312 619.6028,-186.8369"/>
</g>
<!-- Node7 -->
<g id="node8" class="node">
<title>Node7</title>
<g id="a_node8"><a xlink:title=" ">
<polygon fill="#ffffff" stroke="#bfbfbf" points="1851.5815,-170.5 1851.5815,-188.5 1970.4185,-188.5 1970.4185,-170.5 1851.5815,-170.5"/>
<text text-anchor="middle" x="1911" y="-176.5" font-family="FreeSans" font-size="10.00" fill="#000000">boost/static_assert.hpp</text>
</a>
</g>
</g>
<!-- Node2&#45;&gt;Node7 -->
<g id="edge8" class="edge">
<title>Node2&#45;&gt;Node7</title>
<path fill="none" stroke="#191970" d="M1497.1001,-238.6616C1576.0055,-230.5134 1719.9969,-214.4084 1842,-194 1848.1007,-192.9795 1854.4813,-191.7969 1860.7937,-190.556"/>
<polygon fill="#191970" stroke="#191970" points="1861.4984,-193.9844 1870.607,-188.5729 1860.1118,-187.1231 1861.4984,-193.9844"/>
</g>
<!-- Node8 -->
<g id="node9" class="node">
<title>Node8</title>
<g id="a_node9"><a xlink:title=" ">
<polygon fill="#ffffff" stroke="#bfbfbf" points="1988.1309,-170.5 1988.1309,-188.5 2115.8691,-188.5 2115.8691,-170.5 1988.1309,-170.5"/>
<text text-anchor="middle" x="2052" y="-176.5" font-family="FreeSans" font-size="10.00" fill="#000000">boost/concept/assert.hpp</text>
</a>
</g>
</g>
<!-- Node2&#45;&gt;Node8 -->
<g id="edge9" class="edge">
<title>Node2&#45;&gt;Node8</title>
<path fill="none" stroke="#191970" d="M1497.0759,-240.985C1596.7885,-234.6054 1804.6731,-219.3807 1979,-194 1985.8727,-192.9994 1993.0775,-191.7797 2000.172,-190.4771"/>
<polygon fill="#191970" stroke="#191970" points="2001.2657,-193.832 2010.4357,-188.5252 1999.9579,-186.9552 2001.2657,-193.832"/>
</g>
<!-- Node9 -->
<g id="node10" class="node">
<title>Node9</title>
<g id="a_node10"><a xlink:title=" ">
<polygon fill="#ffffff" stroke="#bfbfbf" points="2133.6826,-170.5 2133.6826,-188.5 2270.3174,-188.5 2270.3174,-170.5 2133.6826,-170.5"/>
<text text-anchor="middle" x="2202" y="-176.5" font-family="FreeSans" font-size="10.00" fill="#000000">boost/concept/requires.hpp</text>
</a>
</g>
</g>
<!-- Node2&#45;&gt;Node9 -->
<g id="edge10" class="edge">
<title>Node2&#45;&gt;Node9</title>
<path fill="none" stroke="#191970" d="M1497.0415,-242.4043C1616.1892,-237.6809 1893.7547,-224.1745 2125,-194 2132.6822,-192.9976 2140.7573,-191.7235 2148.6703,-190.3483"/>
<polygon fill="#191970" stroke="#191970" points="2149.3442,-193.7833 2158.5648,-188.565 2148.1026,-186.8943 2149.3442,-193.7833"/>
</g>
<!-- Node10 -->
<g id="node11" class="node">
<title>Node10</title>
<g id="a_node11"><a xlink:title=" ">
<polygon fill="#ffffff" stroke="#bfbfbf" points="843.8672,-165.5 843.8672,-193.5 952.1328,-193.5 952.1328,-165.5 843.8672,-165.5"/>
<text text-anchor="start" x="851.8672" y="-181.5" font-family="FreeSans" font-size="10.00" fill="#000000">boost/iterator/iterator</text>
<text text-anchor="middle" x="898" y="-171.5" font-family="FreeSans" font-size="10.00" fill="#000000">_concepts.hpp</text>
</a>
</g>
</g>
<!-- Node2&#45;&gt;Node10 -->
<g id="edge11" class="edge">
<title>Node2&#45;&gt;Node10</title>
<path fill="none" stroke="#191970" d="M1378.9427,-240.5526C1290.453,-234.1306 1118.0907,-219.6603 962.4402,-194.1139"/>
<polygon fill="#191970" stroke="#191970" points="962.6514,-190.6011 952.2131,-192.4151 961.5044,-197.5064 962.6514,-190.6011"/>
</g>
<!-- Node11 -->
<g id="node12" class="node">
<title>Node11</title>
<g id="a_node12"><a xlink:title=" ">
<polygon fill="#ffffff" stroke="#bfbfbf" points="970.397,-170.5 970.397,-188.5 1117.603,-188.5 1117.603,-170.5 970.397,-170.5"/>
<text text-anchor="middle" x="1044" y="-176.5" font-family="FreeSans" font-size="10.00" fill="#000000">boost/concept_archetype.hpp</text>
</a>
</g>
</g>
<!-- Node2&#45;&gt;Node11 -->
<g id="edge12" class="edge">
<title>Node2&#45;&gt;Node11</title>
<path fill="none" stroke="#191970" d="M1383.216,-235.462C1311.2768,-223.5939 1185.1601,-202.7878 1108.6336,-190.1629"/>
<polygon fill="#191970" stroke="#191970" points="1109.0716,-186.6879 1098.6352,-188.5134 1107.9321,-193.5946 1109.0716,-186.6879"/>
</g>
<!-- Node12 -->
<g id="node13" class="node">
<title>Node12</title>
<g id="a_node13"><a xlink:title=" ">
<polygon fill="#ffffff" stroke="#bfbfbf" points="1497.3843,-110.5 1497.3843,-128.5 1540.6157,-128.5 1540.6157,-110.5 1497.3843,-110.5"/>
<text text-anchor="middle" x="1519" y="-116.5" font-family="FreeSans" font-size="10.00" fill="#000000">cmath</text>
</a>
</g>
</g>
<!-- Node2&#45;&gt;Node12 -->
<g id="edge13" class="edge">
<title>Node2&#45;&gt;Node12</title>
<path fill="none" stroke="#191970" d="M1438.1858,-235.3566C1438.9133,-219.6821 1442.2426,-187.2254 1457,-165 1465.6173,-152.022 1479.259,-141.4222 1491.5549,-133.7288"/>
<polygon fill="#191970" stroke="#191970" points="1493.3399,-136.7395 1500.1794,-128.648 1489.7868,-130.7083 1493.3399,-136.7395"/>
</g>
<!-- Node13 -->
<g id="node14" class="node">
<title>Node13</title>
<g id="a_node14"><a xlink:title=" ">
<polygon fill="#ffffff" stroke="#bfbfbf" points="1174.2686,-170.5 1174.2686,-188.5 1219.7314,-188.5 1219.7314,-170.5 1174.2686,-170.5"/>
<text text-anchor="middle" x="1197" y="-176.5" font-family="FreeSans" font-size="10.00" fill="#000000">stdio.h</text>
</a>
</g>
</g>
<!-- Node2&#45;&gt;Node13 -->
<g id="edge14" class="edge">
<title>Node2&#45;&gt;Node13</title>
<path fill="none" stroke="#191970" d="M1394.561,-235.4773C1352.9457,-226.4283 1288.5855,-211.37 1234,-194 1232.1263,-193.4038 1230.2112,-192.7606 1228.2872,-192.0882"/>
<polygon fill="#191970" stroke="#191970" points="1229.3359,-188.7446 1218.7426,-188.5667 1226.9129,-195.3119 1229.3359,-188.7446"/>
</g>
<!-- Node14 -->
<g id="node15" class="node">
<title>Node14</title>
<g id="a_node15"><a xlink:href="Config_8h_source.html" target="_top" xlink:title=" ">
<polygon fill="#ffffff" stroke="#ff0000" points="753.9756,-55.5 753.9756,-73.5 860.0244,-73.5 860.0244,-55.5 753.9756,-55.5"/>
<text text-anchor="middle" x="807" y="-61.5" font-family="FreeSans" font-size="10.00" fill="#000000">DGtal/base/Config.h</text>
</a>
</g>
</g>
<!-- Node2&#45;&gt;Node14 -->
<g id="edge15" class="edge">
<title>Node2&#45;&gt;Node14</title>
<path fill="none" stroke="#191970" d="M1379.0166,-242.6034C1209.0503,-236.8542 728.8709,-218.5031 706,-194 694.2127,-181.3715 706.4288,-121.5879 715,-110 726.2495,-94.7911 743.9906,-84.3715 760.9045,-77.3846"/>
<polygon fill="#191970" stroke="#191970" points="762.608,-80.4815 770.7122,-73.6572 760.1211,-73.9381 762.608,-80.4815"/>
</g>
<!-- Node16 -->
<g id="node16" class="node">
<title>Node16</title>
<g id="a_node16"><a xlink:href="Trace_8h_source.html" target="_top" xlink:title=" ">
<polygon fill="#ffffff" stroke="#ff0000" points="723.8311,-170.5 723.8311,-188.5 826.1689,-188.5 826.1689,-170.5 723.8311,-170.5"/>
<text text-anchor="middle" x="775" y="-176.5" font-family="FreeSans" font-size="10.00" fill="#000000">DGtal/base/Trace.h</text>
</a>
</g>
</g>
<!-- Node2&#45;&gt;Node16 -->
<g id="edge17" class="edge">
<title>Node2&#45;&gt;Node16</title>
<path fill="none" stroke="#191970" d="M1379.0018,-242.5654C1270.6273,-238.3462 1032.8202,-225.9924 835,-194 829.5782,-193.1232 823.9226,-192.0163 818.344,-190.8066"/>
<polygon fill="#191970" stroke="#191970" points="818.9815,-187.3621 808.453,-188.5456 817.4216,-194.1861 818.9815,-187.3621"/>
</g>
<!-- Node23 -->
<g id="node17" class="node">
<title>Node23</title>
<g id="a_node17"><a xlink:href="TraceWriterTerm_8h_source.html" target="_top" xlink:title=" ">
<polygon fill="#ffffff" stroke="#ff0000" points="724.478,-110.5 724.478,-128.5 875.522,-128.5 875.522,-110.5 724.478,-110.5"/>
<text text-anchor="middle" x="800" y="-116.5" font-family="FreeSans" font-size="10.00" fill="#000000">DGtal/base/TraceWriterTerm.h</text>
</a>
</g>
</g>
<!-- Node2&#45;&gt;Node23 -->
<g id="edge25" class="edge">
<title>Node2&#45;&gt;Node23</title>
<path fill="none" stroke="#191970" d="M1379.1415,-242.5551C1210.7361,-236.707 737.5538,-218.1841 715,-194 706.2094,-184.574 708.3772,-176.0572 715,-165 724.0456,-149.8979 740.0051,-139.5251 755.6709,-132.5446"/>
<polygon fill="#191970" stroke="#191970" points="757.3747,-135.6304 765.3227,-128.6247 754.7406,-129.1448 757.3747,-135.6304"/>
</g>
<!-- Node24 -->
<g id="node18" class="node">
<title>Node24</title>
<g id="a_node18"><a xlink:href="Assert_8h_source.html" target="_top" xlink:title=" ">
<polygon fill="#ffffff" stroke="#ff0000" points="932.2588,-110.5 932.2588,-128.5 1037.7412,-128.5 1037.7412,-110.5 932.2588,-110.5"/>
<text text-anchor="middle" x="985" y="-116.5" font-family="FreeSans" font-size="10.00" fill="#000000">DGtal/base/Assert.h</text>
</a>
</g>
</g>
<!-- Node2&#45;&gt;Node24 -->
<g id="edge28" class="edge">
<title>Node2&#45;&gt;Node24</title>
<path fill="none" stroke="#191970" d="M1378.9457,-241.5146C1322.015,-236.8347 1234.5077,-224.823 1165,-194 1145.5787,-185.3877 1145.8348,-174.829 1127,-165 1098.1794,-149.9599 1063.4648,-138.7267 1035.5737,-131.1846"/>
<polygon fill="#191970" stroke="#191970" points="1036.1914,-127.7282 1025.6303,-128.5727 1034.413,-134.4985 1036.1914,-127.7282"/>
</g>
<!-- Node27 -->
<g id="node19" class="node">
<title>Node27</title>
<g id="a_node19"><a xlink:href="TraceWriterFile_8h_source.html" target="_top" xlink:title=" ">
<polygon fill="#ffffff" stroke="#ff0000" points="957.5322,-55.5 957.5322,-73.5 1102.4678,-73.5 1102.4678,-55.5 957.5322,-55.5"/>
<text text-anchor="middle" x="1030" y="-61.5" font-family="FreeSans" font-size="10.00" fill="#000000">DGtal/base/TraceWriterFile.h</text>
</a>
</g>
</g>
<!-- Node2&#45;&gt;Node27 -->
<g id="edge26" class="edge">
<title>Node2&#45;&gt;Node27</title>
<path fill="none" stroke="#191970" d="M1398.7382,-235.4242C1365.0436,-226.9164 1315.6349,-212.7083 1275,-194 1253.0468,-183.8928 1250.0324,-176.9053 1229,-165 1169.6921,-131.429 1097.8266,-96.4945 1058.7351,-77.9538"/>
<polygon fill="#191970" stroke="#191970" points="1060.067,-74.7121 1049.5303,-73.604 1057.0762,-81.041 1060.067,-74.7121"/>
</g>
<!-- Node28 -->
<g id="node20" class="node">
<title>Node28</title>
<g id="a_node20"><a xlink:href="ConceptUtils_8h_source.html" target="_top" xlink:title=" ">
<polygon fill="#ffffff" stroke="#000000" points="348.084,-170.5 348.084,-188.5 481.916,-188.5 481.916,-170.5 348.084,-170.5"/>
<text text-anchor="middle" x="415" y="-176.5" font-family="FreeSans" font-size="10.00" fill="#000000">DGtal/base/ConceptUtils.h</text>
</a>
</g>
</g>
<!-- Node2&#45;&gt;Node28 -->
<g id="edge29" class="edge">
<title>Node2&#45;&gt;Node28</title>
<path fill="none" stroke="#191970" d="M1379.0443,-242.4027C1199.9981,-235.8678 664.248,-215.0483 491,-194 483.2181,-193.0546 475.0347,-191.7866 467.0371,-190.3924"/>
<polygon fill="#191970" stroke="#191970" points="467.5158,-186.9221 457.0505,-188.5735 466.2615,-193.8088 467.5158,-186.9221"/>
</g>
<!-- Node29 -->
<g id="node21" class="node">
<title>Node29</title>
<g id="a_node21"><a xlink:href="BasicTypes_8h_source.html" target="_top" xlink:title=" ">
<polygon fill="#ffffff" stroke="#ff0000" points="1120.8599,-55.5 1120.8599,-73.5 1249.1401,-73.5 1249.1401,-55.5 1120.8599,-55.5"/>
<text text-anchor="middle" x="1185" y="-61.5" font-family="FreeSans" font-size="10.00" fill="#000000">DGtal/base/BasicTypes.h</text>
</a>
</g>
</g>
<!-- Node2&#45;&gt;Node29 -->
<g id="edge31" class="edge">
<title>Node2&#45;&gt;Node29</title>
<path fill="none" stroke="#191970" d="M1413.1612,-235.4903C1371.5746,-219.4182 1287.0144,-182.406 1232,-129 1217.4605,-114.8856 1204.1941,-95.847 1195.4914,-82.1171"/>
<polygon fill="#191970" stroke="#191970" points="1198.4608,-80.2642 1190.236,-73.5857 1192.5008,-83.9356 1198.4608,-80.2642"/>
</g>
<!-- Node32 -->
<g id="node22" class="node">
<title>Node32</title>
<g id="a_node22"><a xlink:href="BasicFunctors_8h_source.html" target="_top" xlink:title=" ">
<polygon fill="#ffffff" stroke="#ff0000" points="1465.7515,-170.5 1465.7515,-188.5 1606.2485,-188.5 1606.2485,-170.5 1465.7515,-170.5"/>
<text text-anchor="middle" x="1536" y="-176.5" font-family="FreeSans" font-size="10.00" fill="#000000">DGtal/base/BasicFunctors.h</text>
</a>
</g>
</g>
<!-- Node2&#45;&gt;Node32 -->
<g id="edge33" class="edge">
<title>Node2&#45;&gt;Node32</title>
<path fill="none" stroke="#191970" d="M1446.7815,-235.462C1460.7948,-224.7052 1487.7919,-206.6059 1508.5553,-193.9105"/>
<polygon fill="#191970" stroke="#191970" points="1510.5217,-196.8125 1517.3013,-188.6708 1506.9242,-190.8077 1510.5217,-196.8125"/>
</g>
<!-- Node40 -->
<g id="node24" class="node">
<title>Node40</title>
<g id="a_node24"><a xlink:href="BasicArchetypes_8h_source.html" target="_top" xlink:title=" ">
<polygon fill="#ffffff" stroke="#000000" points="1241.1899,-110.5 1241.1899,-128.5 1392.8101,-128.5 1392.8101,-110.5 1241.1899,-110.5"/>
<text text-anchor="middle" x="1317" y="-116.5" font-family="FreeSans" font-size="10.00" fill="#000000">DGtal/base/BasicArchetypes.h</text>
</a>
</g>
</g>
<!-- Node2&#45;&gt;Node40 -->
<g id="edge41" class="edge">
<title>Node2&#45;&gt;Node40</title>
<path fill="none" stroke="#191970" d="M1412.0582,-235.3679C1392.212,-227.2234 1365.3835,-213.5467 1348,-194 1333.9307,-178.1799 1325.6693,-155.0754 1321.2616,-138.8001"/>
<polygon fill="#191970" stroke="#191970" points="1324.5885,-137.672 1318.8018,-128.797 1317.791,-139.3435 1324.5885,-137.672"/>
</g>
<!-- Node41 -->
<g id="node25" class="node">
<title>Node41</title>
<g id="a_node25"><a xlink:href="Exceptions_8h_source.html" target="_top" xlink:title=" ">
<polygon fill="#ffffff" stroke="#000000" points="1304.9707,-55.5 1304.9707,-73.5 1431.0293,-73.5 1431.0293,-55.5 1304.9707,-55.5"/>
<text text-anchor="middle" x="1368" y="-61.5" font-family="FreeSans" font-size="10.00" fill="#000000">DGtal/base/Exceptions.h</text>
</a>
</g>
</g>
<!-- Node2&#45;&gt;Node41 -->
<g id="edge43" class="edge">
<title>Node2&#45;&gt;Node41</title>
<path fill="none" stroke="#191970" d="M1423.4073,-235.3388C1410.8318,-226.4991 1393.5472,-211.85 1386,-194 1380.9806,-182.1286 1383.3244,-177.6081 1386,-165 1391.2848,-140.0968 1410.0292,-134.1585 1402,-110 1398.4452,-99.3043 1391.2872,-89.0894 1384.452,-81.058"/>
<polygon fill="#191970" stroke="#191970" points="1386.933,-78.5843 1377.6105,-73.5503 1381.759,-83.2992 1386.933,-78.5843"/>
</g>
<!-- Node14&#45;&gt;Node1 -->
<g id="edge16" class="edge">
<title>Node14&#45;&gt;Node1</title>
<path fill="none" stroke="#191970" d="M860.2706,-57.5899C947.3652,-46.2923 1118.09,-24.1463 1193.5783,-14.3542"/>
<polygon fill="#191970" stroke="#191970" points="1194.1127,-17.8143 1203.5794,-13.0569 1193.2122,-10.8725 1194.1127,-17.8143"/>
</g>
<!-- Node16&#45;&gt;Node1 -->
<g id="edge18" class="edge">
<title>Node16&#45;&gt;Node1</title>
<path fill="none" stroke="#191970" d="M757.3768,-170.3894C742.9908,-161.8598 723.6746,-147.6393 715,-129 700.026,-96.8249 715.3617,-74.5199 745,-55 782.2001,-30.4999 1086.1073,-15.5528 1193.5452,-10.9927"/>
<polygon fill="#191970" stroke="#191970" points="1193.7625,-14.4868 1203.6074,-10.5718 1193.4698,-7.4929 1193.7625,-14.4868"/>
</g>
<!-- Node16&#45;&gt;Node14 -->
<g id="edge19" class="edge">
<title>Node16&#45;&gt;Node14</title>
<path fill="none" stroke="#191970" d="M803.2691,-170.4253C832.6507,-160.3538 875.6419,-143.5935 885,-129 899.108,-106.9995 870.4935,-88.7911 844.0373,-77.3947"/>
<polygon fill="#191970" stroke="#191970" points="845.0531,-74.0297 834.471,-73.5099 842.4193,-80.5153 845.0531,-74.0297"/>
</g>
<!-- Node16&#45;&gt;Node23 -->
<g id="edge20" class="edge">
<title>Node16&#45;&gt;Node23</title>
<path fill="none" stroke="#191970" d="M778.797,-170.3873C782.3578,-161.8412 787.7893,-148.8057 792.2634,-138.0679"/>
<polygon fill="#191970" stroke="#191970" points="795.5519,-139.2754 796.1673,-128.6985 789.0903,-136.5831 795.5519,-139.2754"/>
</g>
<!-- Node16&#45;&gt;Node24 -->
<g id="edge23" class="edge">
<title>Node16&#45;&gt;Node24</title>
<path fill="none" stroke="#191970" d="M801.8851,-170.3873C836.483,-159.8863 896.807,-142.607 938.7869,-131.141"/>
<polygon fill="#191970" stroke="#191970" points="939.7735,-134.4999 948.507,-128.5019 937.9392,-127.7445 939.7735,-134.4999"/>
</g>
<!-- Node23&#45;&gt;Node1 -->
<g id="edge21" class="edge">
<title>Node23&#45;&gt;Node1</title>
<path fill="none" stroke="#191970" d="M817.3591,-110.2857C844.6225,-96.2097 899.4863,-69.466 949,-55 1034.4596,-30.032 1138.7459,-17.7063 1193.4227,-12.5706"/>
<polygon fill="#191970" stroke="#191970" points="1194.0346,-16.0295 1203.6763,-11.6377 1193.4003,-9.0582 1194.0346,-16.0295"/>
</g>
<!-- Node23&#45;&gt;Node14 -->
<g id="edge22" class="edge">
<title>Node23&#45;&gt;Node14</title>
<path fill="none" stroke="#191970" d="M801.1559,-110.4179C802.0725,-103.2164 803.3859,-92.8962 804.5356,-83.8632"/>
<polygon fill="#191970" stroke="#191970" points="808.0283,-84.1414 805.819,-73.7795 801.0844,-83.2575 808.0283,-84.1414"/>
</g>
<!-- Node24&#45;&gt;Node16 -->
<g id="edge24" class="edge">
<title>Node24&#45;&gt;Node16</title>
<path fill="none" stroke="#191970" d="M958.4799,-128.5019C924.064,-138.9549 863.7666,-156.2306 821.6578,-167.7375"/>
<polygon fill="#191970" stroke="#191970" points="820.6365,-164.3881 811.9038,-170.3873 822.4717,-171.1432 820.6365,-164.3881"/>
</g>
<!-- Node27&#45;&gt;Node1 -->
<g id="edge27" class="edge">
<title>Node27&#45;&gt;Node1</title>
<path fill="none" stroke="#191970" d="M1063.1911,-55.4179C1099.0672,-45.601 1156.1222,-29.9889 1193.5699,-19.7421"/>
<polygon fill="#191970" stroke="#191970" points="1194.8566,-23.0187 1203.5782,-17.0035 1193.009,-16.2669 1194.8566,-23.0187"/>
</g>
<!-- Node28&#45;&gt;Node1 -->
<g id="edge30" class="edge">
<title>Node28&#45;&gt;Node1</title>
<path fill="none" stroke="#191970" d="M431.8671,-170.4586C476.9431,-146.7754 604.5667,-82.8423 719,-55 809.2362,-33.045 1091.1804,-16.714 1193.4591,-11.3746"/>
<polygon fill="#191970" stroke="#191970" points="1193.8203,-14.8607 1203.6263,-10.8492 1193.459,-7.87 1193.8203,-14.8607"/>
</g>
<!-- Node29&#45;&gt;Node1 -->
<g id="edge32" class="edge">
<title>Node29&#45;&gt;Node1</title>
<path fill="none" stroke="#191970" d="M1192.596,-55.4179C1199.1485,-47.5833 1208.7882,-36.0575 1216.7704,-26.5137"/>
<polygon fill="#191970" stroke="#191970" points="1219.5082,-28.6957 1223.239,-18.7795 1214.1386,-24.2048 1219.5082,-28.6957"/>
</g>
<!-- Node32&#45;&gt;Node2 -->
<g id="edge40" class="edge">
<title>Node32&#45;&gt;Node2</title>
<path fill="none" stroke="#191970" d="M1527.0453,-188.6708C1512.9258,-199.4876 1485.9013,-217.5947 1465.1894,-230.2455"/>
<polygon fill="#191970" stroke="#191970" points="1463.2554,-227.324 1456.4715,-235.462 1466.8497,-233.3307 1463.2554,-227.324"/>
</g>
<!-- Node32&#45;&gt;Node4 -->
<g id="edge34" class="edge">
<title>Node32&#45;&gt;Node4</title>
<path fill="none" stroke="#191970" d="M1543.7326,-170.4165C1557.3828,-155.0675 1587.4063,-124.279 1620,-110 1672.6551,-86.9323 1840.5442,-72.5785 1917.1837,-67.0695"/>
<polygon fill="#191970" stroke="#191970" points="1917.6418,-70.546 1927.3707,-66.3509 1917.1492,-63.5634 1917.6418,-70.546"/>
</g>
<!-- Node32&#45;&gt;Node12 -->
<g id="edge35" class="edge">
<title>Node32&#45;&gt;Node12</title>
<path fill="none" stroke="#191970" d="M1533.4181,-170.3873C1531.0216,-161.9293 1527.3793,-149.074 1524.3552,-138.4007"/>
<polygon fill="#191970" stroke="#191970" points="1527.6998,-137.3656 1521.6062,-128.6985 1520.9649,-139.2739 1527.6998,-137.3656"/>
</g>
<!-- Node34 -->
<g id="node23" class="node">
<title>Node34</title>
<g id="a_node23"><a xlink:href="Color_8h_source.html" target="_top" xlink:title=" ">
<polygon fill="#ffffff" stroke="#ff0000" points="2482.7046,-110.5 2482.7046,-128.5 2569.2954,-128.5 2569.2954,-110.5 2482.7046,-110.5"/>
<text text-anchor="middle" x="2526" y="-116.5" font-family="FreeSans" font-size="10.00" fill="#000000">DGtal/io/Color.h</text>
</a>
</g>
</g>
<!-- Node32&#45;&gt;Node34 -->
<g id="edge36" class="edge">
<title>Node32&#45;&gt;Node34</title>
<path fill="none" stroke="#191970" d="M1602.1198,-170.4717C1618.7073,-168.4367 1636.4847,-166.4519 1653,-165 1962.4275,-137.7973 2335.09,-125.0084 2472.0984,-120.9734"/>
<polygon fill="#191970" stroke="#191970" points="2472.4275,-124.4654 2482.3214,-120.6757 2472.2237,-117.4683 2472.4275,-124.4654"/>
</g>
<!-- Node34&#45;&gt;Node1 -->
<g id="edge37" class="edge">
<title>Node34&#45;&gt;Node1</title>
<path fill="none" stroke="#191970" d="M2520.5425,-110.3181C2511.149,-95.5062 2490.3673,-66.8072 2464,-55 2408.121,-29.9775 1468.3733,-13.3551 1268.2769,-10.0899"/>
<polygon fill="#191970" stroke="#191970" points="1268.3112,-6.5901 1258.2558,-9.9275 1268.1977,-13.5892 1268.3112,-6.5901"/>
</g>
<!-- Node34&#45;&gt;Node2 -->
<g id="edge38" class="edge">
<title>Node34&#45;&gt;Node2</title>
<path fill="none" stroke="#191970" d="M2502.6039,-128.5652C2459.2623,-144.903 2363.2206,-178.9823 2279,-194 2131.3723,-220.324 1680.7213,-236.8761 1507.1575,-242.4227"/>
<polygon fill="#191970" stroke="#191970" points="1507.0036,-238.9258 1497.1196,-242.7411 1507.2256,-245.9222 1507.0036,-238.9258"/>
</g>
<!-- Node34&#45;&gt;Node4 -->
<g id="edge39" class="edge">
<title>Node34&#45;&gt;Node4</title>
<path fill="none" stroke="#191970" d="M2482.6895,-115.3209C2375.17,-104.9462 2097.349,-78.1389 1994.7881,-68.2427"/>
<polygon fill="#191970" stroke="#191970" points="1994.8632,-64.7338 1984.5733,-67.2571 1994.1909,-71.7014 1994.8632,-64.7338"/>
</g>
<!-- Node40&#45;&gt;Node1 -->
<g id="edge42" class="edge">
<title>Node40&#45;&gt;Node1</title>
<path fill="none" stroke="#191970" d="M1309.9623,-110.4982C1295.6625,-92.2079 1263.0001,-50.4304 1244.475,-26.7354"/>
<polygon fill="#191970" stroke="#191970" points="1247.0516,-24.3485 1238.135,-18.6261 1241.5369,-28.66 1247.0516,-24.3485"/>
</g>
<!-- Node41&#45;&gt;Node1 -->
<g id="edge44" class="edge">
<title>Node41&#45;&gt;Node1</title>
<path fill="none" stroke="#191970" d="M1345.3772,-55.4179C1322.968,-46.4215 1288.4355,-32.5581 1263.1755,-22.4172"/>
<polygon fill="#191970" stroke="#191970" points="1264.2404,-19.0732 1253.6564,-18.5956 1261.6325,-25.5693 1264.2404,-19.0732"/>
</g>
<!-- Node42&#45;&gt;Node1 -->
<g id="edge46" class="edge">
<title>Node42&#45;&gt;Node1</title>
<path fill="none" stroke="#191970" d="M2211.1959,-607.2768C2293.4933,-603.3794 2435.5767,-592.7518 2554,-564 2746.2609,-517.3213 3357,-377.3463 3357,-179.5 3357,-179.5 3357,-179.5 3357,-119.5 3357,-107.4747 3458.7336,-103.2048 3137,-55 2945.9972,-26.3824 1518.9788,-12.1264 1268.4829,-9.8322"/>
<polygon fill="#191970" stroke="#191970" points="1268.4556,-6.3319 1258.4242,-9.7407 1268.3919,-13.3316 1268.4556,-6.3319"/>
</g>
<!-- Node42&#45;&gt;Node2 -->
<g id="edge49" class="edge">
<title>Node42&#45;&gt;Node2</title>
<path fill="none" stroke="#191970" d="M2170.6814,-600.3671C2187.3258,-593.2793 2207.1386,-581.6398 2217,-564 2221.1206,-556.6292 2218.314,-553.3416 2217,-545 2196.8365,-417.0017 2179.3847,-359.4966 2067,-295 2019.3683,-267.6646 1660.4526,-252.1688 1507.1159,-246.736"/>
<polygon fill="#191970" stroke="#191970" points="1506.9945,-243.2297 1496.8781,-246.3774 1506.7494,-250.2254 1506.9945,-243.2297"/>
</g>
<!-- Node42&#45;&gt;Node34 -->
<g id="edge53" class="edge">
<title>Node42&#45;&gt;Node34</title>
<path fill="none" stroke="#191970" d="M2211.0908,-602.7492C2319.4436,-590.0972 2519,-558.155 2519,-494.5 2519,-494.5 2519,-494.5 2519,-309.5 2519,-258.1186 2522.1994,-245.3499 2524,-194 2524.6576,-175.2464 2525.212,-153.8306 2525.5691,-138.7881"/>
<polygon fill="#191970" stroke="#191970" points="2529.0707,-138.7549 2525.8021,-128.6769 2522.0725,-138.5936 2529.0707,-138.7549"/>
</g>
<!-- Node43 -->
<g id="node27" class="node">
<title>Node43</title>
<g id="a_node27"><a xlink:href="Board_8h_source.html" target="_top" xlink:title=" ">
<polygon fill="#ffffff" stroke="#ff0000" points="2546.7563,-235.5 2546.7563,-253.5 2627.2437,-253.5 2627.2437,-235.5 2546.7563,-235.5"/>
<text text-anchor="middle" x="2587" y="-241.5" font-family="FreeSans" font-size="10.00" fill="#000000">Board/Board.h</text>
</a>
</g>
</g>
<!-- Node42&#45;&gt;Node43 -->
<g id="edge47" class="edge">
<title>Node42&#45;&gt;Node43</title>
<path fill="none" stroke="#191970" d="M2211.0814,-605.9526C2316.6507,-599.8062 2510.1424,-585.7143 2533,-564 2618.8527,-482.4415 2600.0291,-318.9907 2590.6253,-263.4631"/>
<polygon fill="#191970" stroke="#191970" points="2594.0642,-262.8102 2588.8532,-253.5855 2587.1742,-264.0464 2594.0642,-262.8102"/>
</g>
<!-- Node63 -->
<g id="node28" class="node">
<title>Node63</title>
<g id="a_node28"><a xlink:href="CountedPtr_8h_source.html" target="_top" xlink:title=" ">
<polygon fill="#ffffff" stroke="#ff0000" points="66.4092,-300.5 66.4092,-318.5 193.5908,-318.5 193.5908,-300.5 66.4092,-300.5"/>
<text text-anchor="middle" x="130" y="-306.5" font-family="FreeSans" font-size="10.00" fill="#000000">DGtal/base/CountedPtr.h</text>
</a>
</g>
</g>
<!-- Node42&#45;&gt;Node63 -->
<g id="edge50" class="edge">
<title>Node42&#45;&gt;Node63</title>
<path fill="none" stroke="#191970" d="M2074.8895,-605.3774C1972.6185,-598.817 1773.407,-584.6026 1605,-564 1089.8419,-500.9765 962.0628,-474.8946 452,-379 354.5681,-360.6823 241.4416,-335.3044 178.5509,-320.8271"/>
<polygon fill="#191970" stroke="#191970" points="179.0569,-317.352 168.5259,-318.5137 177.4828,-324.1727 179.0569,-317.352"/>
</g>
<!-- Node65 -->
<g id="node29" class="node">
<title>Node65</title>
<g id="a_node29"><a xlink:href="Display2DFactory_8h_source.html" target="_top" xlink:title="Header file for module Display2DFactory.">
<polygon fill="#ffffff" stroke="#ff0000" points="1614.2925,-545.5 1614.2925,-563.5 1755.7075,-563.5 1755.7075,-545.5 1614.2925,-545.5"/>
<text text-anchor="middle" x="1685" y="-551.5" font-family="FreeSans" font-size="10.00" fill="#000000">DGtal/io/Display2DFactory.h</text>
</a>
</g>
</g>
<!-- Node42&#45;&gt;Node65 -->
<g id="edge54" class="edge">
<title>Node42&#45;&gt;Node65</title>
<path fill="none" stroke="#191970" d="M2074.9273,-601.3253C1992.591,-591.4378 1854.1317,-574.8106 1766.2778,-564.2604"/>
<polygon fill="#191970" stroke="#191970" points="1766.4329,-560.754 1756.0869,-563.0366 1765.5983,-567.7041 1766.4329,-560.754"/>
</g>
<!-- Node311 -->
<g id="node41" class="node">
<title>Node311</title>
<g id="a_node41"><a xlink:href="Style2DFactory_8h_source.html" target="_top" xlink:title="Header file for module Style2DFactory.">
<polygon fill="#ffffff" stroke="#ff0000" points="2077.5708,-545.5 2077.5708,-563.5 2208.4292,-563.5 2208.4292,-545.5 2077.5708,-545.5"/>
<text text-anchor="middle" x="2143" y="-551.5" font-family="FreeSans" font-size="10.00" fill="#000000">DGtal/io/Style2DFactory.h</text>
</a>
</g>
</g>
<!-- Node42&#45;&gt;Node311 -->
<g id="edge104" class="edge">
<title>Node42&#45;&gt;Node311</title>
<path fill="none" stroke="#191970" d="M2143,-600.4179C2143,-593.2164 2143,-582.8962 2143,-573.8632"/>
<polygon fill="#191970" stroke="#191970" points="2146.5001,-573.7794 2143,-563.7795 2139.5001,-573.7795 2146.5001,-573.7794"/>
</g>
<!-- Node317 -->
<g id="node46" class="node">
<title>Node317</title>
<g id="a_node46"><a xlink:href="Board2D_8ih_source.html" target="_top" xlink:title=" ">
<polygon fill="#ffffff" stroke="#000000" points="1920.8574,-545.5 1920.8574,-563.5 2059.1426,-563.5 2059.1426,-545.5 1920.8574,-545.5"/>
<text text-anchor="middle" x="1990" y="-551.5" font-family="FreeSans" font-size="10.00" fill="#000000">DGtal/io/boards/Board2D.ih</text>
</a>
</g>
</g>
<!-- Node42&#45;&gt;Node317 -->
<g id="edge121" class="edge">
<title>Node42&#45;&gt;Node317</title>
<path fill="none" stroke="#191970" d="M2117.7352,-600.4179C2092.3007,-591.2748 2052.8819,-577.1046 2024.5614,-566.924"/>
<polygon fill="#191970" stroke="#191970" points="2025.6425,-563.5935 2015.0481,-563.5042 2023.2745,-570.1808 2025.6425,-563.5935"/>
</g>
<!-- Node43&#45;&gt;Node34 -->
<g id="edge48" class="edge">
<title>Node43&#45;&gt;Node34</title>
<path fill="none" stroke="#191970" d="M2588.0374,-235.0524C2589.3049,-219.4845 2589.9842,-187.8882 2578,-165 2571.5662,-152.7123 2560.3363,-142.2425 2549.9553,-134.455"/>
<polygon fill="#191970" stroke="#191970" points="2551.755,-131.4422 2541.5587,-128.5635 2547.7343,-137.1724 2551.755,-131.4422"/>
</g>
<!-- Node63&#45;&gt;Node1 -->
<g id="edge51" class="edge">
<title>Node63&#45;&gt;Node1</title>
<path fill="none" stroke="#191970" d="M130,-300.3586C130,-279.1337 130,-224.8646 130,-179.5 130,-179.5 130,-179.5 130,-119.5 130,-88.9131 129.2562,-72.9805 154,-55 196.9061,-23.8216 1008.5662,-12.1806 1193.6489,-9.9258"/>
<polygon fill="#191970" stroke="#191970" points="1193.7519,-13.4249 1203.7092,-9.805 1193.6678,-6.4254 1193.7519,-13.4249"/>
</g>
<!-- Node63&#45;&gt;Node2 -->
<g id="edge52" class="edge">
<title>Node63&#45;&gt;Node2</title>
<path fill="none" stroke="#191970" d="M191.5438,-300.4832C207.6109,-298.3975 224.929,-296.386 241,-295 668.8672,-258.0997 1185.1957,-247.872 1368.9689,-245.2957"/>
<polygon fill="#191970" stroke="#191970" points="1369.0815,-248.7946 1379.0325,-245.1577 1368.9854,-241.7953 1369.0815,-248.7946"/>
</g>
<!-- Node65&#45;&gt;Node2 -->
<g id="edge55" class="edge">
<title>Node65&#45;&gt;Node2</title>
<path fill="none" stroke="#191970" d="M1682.6012,-545.3702C1678.5757,-530.8946 1669.6415,-502.0583 1657,-480 1604.3666,-388.1596 1583.6788,-367.9747 1507,-295 1492.8862,-281.568 1475.1075,-268.6348 1461.1317,-259.2196"/>
<polygon fill="#191970" stroke="#191970" points="1462.8475,-256.1585 1452.5735,-253.5706 1458.9913,-262.0006 1462.8475,-256.1585"/>
</g>
<!-- Node65&#45;&gt;Node220 -->
<g id="edge56" class="edge">
<title>Node65&#45;&gt;Node220</title>
<path fill="none" stroke="#191970" d="M1626.8676,-545.4498C1584.0272,-537.6195 1530.6105,-525.0366 1515,-509 1500.819,-494.4319 1496.5597,-471.271 1495.5584,-453.6974"/>
<polygon fill="#191970" stroke="#191970" points="1499.0548,-453.5099 1495.2964,-443.6041 1492.0572,-453.6916 1499.0548,-453.5099"/>
</g>
<!-- Node65&#45;&gt;Node227 -->
<g id="edge78" class="edge">
<title>Node65&#45;&gt;Node227</title>
<path fill="none" stroke="#191970" d="M1710.8193,-545.3873C1735.8797,-536.5425 1774.565,-522.8888 1805.557,-511.9505"/>
<polygon fill="#191970" stroke="#191970" points="1807.0569,-515.1328 1815.3219,-508.504 1804.7271,-508.5318 1807.0569,-515.1328"/>
</g>
<!-- Node113 -->
<g id="node38" class="node">
<title>Node113</title>
<g id="a_node38"><a xlink:href="PointVector_8h_source.html" target="_top" xlink:title=" ">
<polygon fill="#ffffff" stroke="#ff0000" points="1875.3525,-360.5 1875.3525,-378.5 2008.6475,-378.5 2008.6475,-360.5 1875.3525,-360.5"/>
<text text-anchor="middle" x="1942" y="-366.5" font-family="FreeSans" font-size="10.00" fill="#000000">DGtal/kernel/PointVector.h</text>
</a>
</g>
</g>
<!-- Node65&#45;&gt;Node113 -->
<g id="edge98" class="edge">
<title>Node65&#45;&gt;Node113</title>
<path fill="none" stroke="#191970" d="M1694.7263,-545.3701C1710.3225,-530.8945 1742.1116,-502.058 1771,-480 1812.2463,-448.5059 1824.3324,-443.0406 1868,-415 1884.552,-404.3714 1903.4468,-392.7622 1918.0005,-383.9306"/>
<polygon fill="#191970" stroke="#191970" points="1920.1242,-386.7366 1926.8693,-378.5663 1916.5013,-380.747 1920.1242,-386.7366"/>
</g>
<!-- Node65&#45;&gt;Node238 -->
<g id="edge92" class="edge">
<title>Node65&#45;&gt;Node238</title>
<path fill="none" stroke="#191970" d="M1635.2384,-545.4524C1583.7291,-536.0871 1502.2929,-521.2805 1440.4532,-510.0369"/>
<polygon fill="#191970" stroke="#191970" points="1440.7808,-506.5392 1430.316,-508.1938 1439.5286,-513.4263 1440.7808,-506.5392"/>
</g>
<!-- Node65&#45;&gt;Node295 -->
<g id="edge99" class="edge">
<title>Node65&#45;&gt;Node295</title>
<path fill="none" stroke="#191970" d="M1669.964,-545.3873C1653.8802,-535.6395 1628.1592,-520.051 1609.4191,-508.6934"/>
<polygon fill="#191970" stroke="#191970" points="1611.2192,-505.6917 1600.8531,-503.5019 1607.591,-511.6781 1611.2192,-505.6917"/>
</g>
<!-- Node220&#45;&gt;Node1 -->
<g id="edge57" class="edge">
<title>Node220&#45;&gt;Node1</title>
<path fill="none" stroke="#191970" d="M1439.7399,-416.3009C1436.7926,-415.8129 1433.8663,-415.3738 1431,-415 1033.1611,-363.1144 927.5903,-424.7564 529,-379 399.537,-364.1382 345.0664,-402.4329 241,-324 183.5398,-280.6934 168,-251.4523 168,-179.5 168,-179.5 168,-179.5 168,-119.5 168,-82.9547 186.4729,-71.6596 219,-55 263.1507,-32.387 1015.6748,-14.2885 1193.5403,-10.3139"/>
<polygon fill="#191970" stroke="#191970" points="1193.7906,-13.8093 1203.7104,-10.088 1193.6352,-6.811 1193.7906,-13.8093"/>
</g>
<!-- Node220&#45;&gt;Node2 -->
<g id="edge58" class="edge">
<title>Node220&#45;&gt;Node2</title>
<path fill="none" stroke="#191970" d="M1491.5451,-415.2905C1481.2119,-382.3312 1455.6069,-300.6598 1443.9502,-263.4791"/>
<polygon fill="#191970" stroke="#191970" points="1447.2654,-262.3536 1440.9341,-253.8587 1440.586,-264.4478 1447.2654,-262.3536"/>
</g>
<!-- Node146 -->
<g id="node31" class="node">
<title>Node146</title>
<g id="a_node31"><a xlink:href="CSpace_8h_source.html" target="_top" xlink:title=" ">
<polygon fill="#ffffff" stroke="#ff0000" points="572.8647,-360.5 572.8647,-378.5 691.1353,-378.5 691.1353,-360.5 572.8647,-360.5"/>
<text text-anchor="middle" x="632" y="-366.5" font-family="FreeSans" font-size="10.00" fill="#000000">DGtal/kernel/CSpace.h</text>
</a>
</g>
</g>
<!-- Node220&#45;&gt;Node146 -->
<g id="edge59" class="edge">
<title>Node220&#45;&gt;Node146</title>
<path fill="none" stroke="#191970" d="M1439.7319,-416.3604C1436.7867,-415.8568 1433.863,-415.3982 1431,-415 1290.9833,-395.5278 868.7232,-378.2633 701.3869,-371.9999"/>
<polygon fill="#191970" stroke="#191970" points="701.3399,-368.4958 691.2165,-371.6211 701.0792,-375.491 701.3399,-368.4958"/>
</g>
<!-- Node221 -->
<g id="node33" class="node">
<title>Node221</title>
<g id="a_node33"><a xlink:href="BasicPointPredicates_8h_source.html" target="_top" xlink:title=" ">
<polygon fill="#ffffff" stroke="#ff0000" points="388.4067,-300.5 388.4067,-318.5 565.5933,-318.5 565.5933,-300.5 388.4067,-300.5"/>
<text text-anchor="middle" x="477" y="-306.5" font-family="FreeSans" font-size="10.00" fill="#000000">DGtal/kernel/BasicPointPredicates.h</text>
</a>
</g>
</g>
<!-- Node220&#45;&gt;Node221 -->
<g id="edge67" class="edge">
<title>Node220&#45;&gt;Node221</title>
<path fill="none" stroke="#191970" d="M1439.7392,-416.3066C1436.792,-415.8171 1433.8659,-415.3761 1431,-415 1239.8068,-389.9084 744.6226,-446.5272 564,-379 534.5889,-368.0044 507.4772,-342.9848 491.5862,-326.1627"/>
<polygon fill="#191970" stroke="#191970" points="494.057,-323.6782 484.7257,-318.6605 488.8913,-328.4021 494.057,-323.6782"/>
</g>
<!-- Node78 -->
<g id="node34" class="node">
<title>Node78</title>
<g id="a_node34"><a xlink:href="CDomain_8h_source.html" target="_top" xlink:title=" ">
<polygon fill="#ffffff" stroke="#ff0000" points="1089.9238,-295.5 1089.9238,-323.5 1202.0762,-323.5 1202.0762,-295.5 1089.9238,-295.5"/>
<text text-anchor="start" x="1097.9238" y="-311.5" font-family="FreeSans" font-size="10.00" fill="#000000">DGtal/kernel/domains</text>
<text text-anchor="middle" x="1146" y="-301.5" font-family="FreeSans" font-size="10.00" fill="#000000">/CDomain.h</text>
</a>
</g>
</g>
<!-- Node220&#45;&gt;Node78 -->
<g id="edge70" class="edge">
<title>Node220&#45;&gt;Node78</title>
<path fill="none" stroke="#191970" d="M1455.1656,-415.4996C1390.8399,-393.4451 1266.0728,-350.6678 1196.3111,-326.7495"/>
<polygon fill="#191970" stroke="#191970" points="1197.4391,-323.4363 1186.8445,-323.5038 1195.1688,-330.058 1197.4391,-323.4363"/>
</g>
<!-- Node225 -->
<g id="node35" class="node">
<title>Node225</title>
<g id="a_node35"><a xlink:href="HyperRectDomain__Iterator_8h_source.html" target="_top" xlink:title=" ">
<polygon fill="#ffffff" stroke="#ff0000" points="1912.2466,-295.5 1912.2466,-323.5 2057.7534,-323.5 2057.7534,-295.5 1912.2466,-295.5"/>
<text text-anchor="start" x="1920.2466" y="-311.5" font-family="FreeSans" font-size="10.00" fill="#000000">DGtal/kernel/domains</text>
<text text-anchor="middle" x="1985" y="-301.5" font-family="FreeSans" font-size="10.00" fill="#000000">/HyperRectDomain_Iterator.h</text>
</a>
</g>
</g>
<!-- Node220&#45;&gt;Node225 -->
<g id="edge75" class="edge">
<title>Node220&#45;&gt;Node225</title>
<path fill="none" stroke="#191970" d="M1552.0945,-415.7345C1642.6827,-393.5043 1820.8226,-349.7889 1917.9598,-325.9516"/>
<polygon fill="#191970" stroke="#191970" points="1918.7967,-329.3501 1927.6744,-323.5676 1917.1284,-322.5518 1918.7967,-329.3501"/>
</g>
<!-- Node146&#45;&gt;Node1 -->
<g id="edge60" class="edge">
<title>Node146&#45;&gt;Node1</title>
<path fill="none" stroke="#191970" d="M627.2133,-360.4675C618.6458,-345.0781 599.2924,-313.6349 575,-295 481.5499,-223.3139 395.5166,-291.8743 330,-194 307.4058,-160.2468 335.169,-136.4429 366,-110 410.8396,-71.5424 429.675,-69.2627 487,-55 623.0397,-21.1526 1061.7136,-12.0069 1193.3274,-9.9953"/>
<polygon fill="#191970" stroke="#191970" points="1193.7387,-13.4897 1203.6858,-9.8422 1193.6351,-6.4905 1193.7387,-13.4897"/>
</g>
<!-- Node146&#45;&gt;Node2 -->
<g id="edge61" class="edge">
<title>Node146&#45;&gt;Node2</title>
<path fill="none" stroke="#191970" d="M691.2433,-368.6556C818.9515,-366.2197 1116.2798,-357.0683 1211,-324 1232.7631,-316.4022 1233.0531,-304.6221 1254,-295 1293.7591,-276.7365 1341.4718,-263.8759 1378.3471,-255.7047"/>
<polygon fill="#191970" stroke="#191970" points="1379.4092,-259.0561 1388.4449,-253.5237 1377.9313,-252.2138 1379.4092,-259.0561"/>
</g>
<!-- Node146&#45;&gt;Node28 -->
<g id="edge62" class="edge">
<title>Node146&#45;&gt;Node28</title>
<path fill="none" stroke="#191970" d="M631.1256,-360.2736C629.27,-345.1485 623.7267,-314.786 608,-295 566.6366,-242.96 494.9376,-209.0564 451.541,-192.181"/>
<polygon fill="#191970" stroke="#191970" points="452.5342,-188.8146 441.9427,-188.5469 450.0555,-195.3611 452.5342,-188.8146"/>
</g>
<!-- Node92 -->
<g id="node32" class="node">
<title>Node92</title>
<g id="a_node32"><a xlink:href="CInteger_8h_source.html" target="_top" xlink:title=" ">
<polygon fill="#ffffff" stroke="#ff0000" points="249.749,-300.5 249.749,-318.5 370.251,-318.5 370.251,-300.5 249.749,-300.5"/>
<text text-anchor="middle" x="310" y="-306.5" font-family="FreeSans" font-size="10.00" fill="#000000">DGtal/kernel/CInteger.h</text>
</a>
</g>
</g>
<!-- Node146&#45;&gt;Node92 -->
<g id="edge63" class="edge">
<title>Node146&#45;&gt;Node92</title>
<path fill="none" stroke="#191970" d="M579.0983,-360.449C527.8544,-351.5724 447.9907,-337.4498 379,-324 373.5183,-322.9313 367.7989,-321.783 362.1006,-320.6174"/>
<polygon fill="#191970" stroke="#191970" points="362.4237,-317.1103 351.9223,-318.5141 361.0071,-323.9655 362.4237,-317.1103"/>
</g>
<!-- Node92&#45;&gt;Node1 -->
<g id="edge64" class="edge">
<title>Node92&#45;&gt;Node1</title>
<path fill="none" stroke="#191970" d="M295.0993,-300.4743C266.3424,-281.7875 206,-235.8608 206,-179.5 206,-179.5 206,-179.5 206,-119.5 206,-84.7985 219.7016,-71.9176 250,-55 291.8974,-31.606 1018.9769,-14.1657 1193.5452,-10.3033"/>
<polygon fill="#191970" stroke="#191970" points="1193.8515,-13.7975 1203.7721,-10.0786 1193.6976,-6.7992 1193.8515,-13.7975"/>
</g>
<!-- Node92&#45;&gt;Node2 -->
<g id="edge65" class="edge">
<title>Node92&#45;&gt;Node2</title>
<path fill="none" stroke="#191970" d="M347.7765,-300.4281C357.8662,-298.3165 368.801,-296.3063 379,-295 571.4617,-270.3487 1165.199,-252.049 1368.7129,-246.3591"/>
<polygon fill="#191970" stroke="#191970" points="1369.0716,-249.8506 1378.9704,-246.0738 1368.8769,-242.8533 1369.0716,-249.8506"/>
</g>
<!-- Node92&#45;&gt;Node28 -->
<g id="edge66" class="edge">
<title>Node92&#45;&gt;Node28</title>
<path fill="none" stroke="#191970" d="M317.5513,-300.1507C335.0327,-278.5071 378.5051,-224.6841 401.0075,-196.8241"/>
<polygon fill="#191970" stroke="#191970" points="403.9565,-198.7432 407.5171,-188.7646 398.5109,-194.3448 403.9565,-198.7432"/>
</g>
<!-- Node221&#45;&gt;Node1 -->
<g id="edge68" class="edge">
<title>Node221&#45;&gt;Node1</title>
<path fill="none" stroke="#191970" d="M436.8287,-300.4297C387.0755,-286.8024 304.4405,-255.7729 268,-194 236.6112,-140.7906 225.3598,-99.7024 268,-55 300.4969,-20.9315 1020.0087,-11.5996 1193.5746,-9.8407"/>
<polygon fill="#191970" stroke="#191970" points="1193.7824,-13.3389 1203.7473,-9.74 1193.7131,-6.3392 1193.7824,-13.3389"/>
</g>
<!-- Node221&#45;&gt;Node2 -->
<g id="edge69" class="edge">
<title>Node221&#45;&gt;Node2</title>
<path fill="none" stroke="#191970" d="M565.686,-303.5015C755.5685,-290.6582 1198.0416,-260.7303 1368.933,-249.1715"/>
<polygon fill="#191970" stroke="#191970" points="1369.3207,-252.6534 1379.0617,-248.4865 1368.8483,-245.6694 1369.3207,-252.6534"/>
</g>
<!-- Node78&#45;&gt;Node1 -->
<g id="edge71" class="edge">
<title>Node78&#45;&gt;Node1</title>
<path fill="none" stroke="#191970" d="M1089.7388,-305.7527C997.2132,-299.152 807.2901,-283.7585 648,-259 613.3315,-253.6115 361.1082,-221.2427 339,-194 330.8782,-183.992 331.5383,-175.5093 339,-165 424.8497,-44.087 508.8851,-85.5254 654,-55 757.8331,-33.1584 1083.0259,-16.3885 1193.6934,-11.1867"/>
<polygon fill="#191970" stroke="#191970" points="1193.8926,-14.6813 1203.7189,-10.7196 1193.5668,-7.6889 1193.8926,-14.6813"/>
</g>
<!-- Node78&#45;&gt;Node2 -->
<g id="edge73" class="edge">
<title>Node78&#45;&gt;Node2</title>
<path fill="none" stroke="#191970" d="M1202.3005,-296.9673C1255.9026,-285.0354 1335.8411,-267.2408 1387.4513,-255.7523"/>
<polygon fill="#191970" stroke="#191970" points="1388.3789,-259.1315 1397.3795,-253.5422 1386.8579,-252.2988 1388.3789,-259.1315"/>
</g>
<!-- Node78&#45;&gt;Node6 -->
<g id="edge72" class="edge">
<title>Node78&#45;&gt;Node6</title>
<path fill="none" stroke="#191970" d="M1089.7634,-296.9169C976.6513,-271.6079 723.2322,-214.9048 615.2651,-190.7469"/>
<polygon fill="#191970" stroke="#191970" points="615.8033,-187.2809 605.2803,-188.5128 614.2748,-194.112 615.8033,-187.2809"/>
</g>
<!-- Node78&#45;&gt;Node28 -->
<g id="edge74" class="edge">
<title>Node78&#45;&gt;Node28</title>
<path fill="none" stroke="#191970" d="M1089.8054,-302.3299C1021.2166,-293.3408 901.7861,-276.9212 800,-259 678.9886,-237.6939 537.7736,-207.0372 464.6191,-190.7187"/>
<polygon fill="#191970" stroke="#191970" points="465.2803,-187.2802 454.7576,-188.5137 463.7528,-194.1115 465.2803,-187.2802"/>
</g>
<!-- Node225&#45;&gt;Node1 -->
<g id="edge76" class="edge">
<title>Node225&#45;&gt;Node1</title>
<path fill="none" stroke="#191970" d="M2019.992,-295.436C2059.8744,-279.4425 2127.0438,-252.6157 2185,-230 2226.6761,-213.7371 2253.6466,-230.859 2279,-194 2286.3044,-183.3807 2284.6342,-176.5922 2279,-165 2219.6481,-42.8856 2128.1462,-75.9612 1994,-55 1851.6673,-32.7596 1401.9279,-15.5156 1268.6029,-10.7907"/>
<polygon fill="#191970" stroke="#191970" points="1268.5966,-7.2884 1258.4797,-10.4346 1268.3504,-14.2841 1268.5966,-7.2884"/>
</g>
<!-- Node225&#45;&gt;Node2 -->
<g id="edge77" class="edge">
<title>Node225&#45;&gt;Node2</title>
<path fill="none" stroke="#191970" d="M1911.9438,-297.0202C1907.2293,-296.3088 1902.5506,-295.6285 1898,-295 1759.6791,-275.8958 1597.1494,-259.4552 1507.0375,-250.867"/>
<polygon fill="#191970" stroke="#191970" points="1507.2331,-247.3699 1496.9471,-249.9094 1506.5716,-254.3386 1507.2331,-247.3699"/>
</g>
<!-- Node227&#45;&gt;Node1 -->
<g id="edge79" class="edge">
<title>Node227&#45;&gt;Node1</title>
<path fill="none" stroke="#191970" d="M1883.9092,-480.387C1977.2361,-434.1445 2267.1064,-284.9542 2313,-194 2330.6052,-159.1092 2314.9655,-137.2991 2287,-110 2243.8583,-67.8864 2221.6581,-68.9281 2163,-55 2074.9927,-34.103 1431.1455,-15.0361 1268.3269,-10.512"/>
<polygon fill="#191970" stroke="#191970" points="1268.4019,-7.0129 1258.309,-10.2352 1268.2085,-14.0102 1268.4019,-7.0129"/>
</g>
<!-- Node227&#45;&gt;Node2 -->
<g id="edge80" class="edge">
<title>Node227&#45;&gt;Node2</title>
<path fill="none" stroke="#191970" d="M1844.9928,-480.2698C1818.2609,-443.3909 1741.1237,-344.1782 1652,-295 1607.1945,-270.2764 1550.6313,-257.5982 1506.9112,-251.1298"/>
<polygon fill="#191970" stroke="#191970" points="1507.3297,-247.6543 1496.9399,-249.7284 1506.3555,-254.5861 1507.3297,-247.6543"/>
</g>
<!-- Node227&#45;&gt;Node34 -->
<g id="edge91" class="edge">
<title>Node227&#45;&gt;Node34</title>
<path fill="none" stroke="#191970" d="M1910.615,-480.4242C1991.8594,-457.8108 2144.8486,-407.2784 2251,-324 2292.1922,-291.6837 2278.382,-258.9586 2322,-230 2376.2417,-193.9882 2408.924,-228.7223 2464,-194 2486.4892,-179.8218 2504.8344,-154.7682 2515.5849,-137.6631"/>
<polygon fill="#191970" stroke="#191970" points="2518.8504,-139.0249 2521.0108,-128.6526 2512.8537,-135.4137 2518.8504,-139.0249"/>
</g>
<!-- Node227&#45;&gt;Node220 -->
<g id="edge82" class="edge">
<title>Node227&#45;&gt;Node220</title>
<path fill="none" stroke="#191970" d="M1779.7418,-480.8739C1715.4699,-469.2369 1623.9113,-452.6594 1562.3435,-441.512"/>
<polygon fill="#191970" stroke="#191970" points="1562.8133,-438.0403 1552.3497,-439.7026 1561.5661,-444.9283 1562.8133,-438.0403"/>
</g>
<!-- Node227&#45;&gt;Node78 -->
<g id="edge81" class="edge">
<title>Node227&#45;&gt;Node78</title>
<path fill="none" stroke="#191970" d="M1804.0744,-480.4781C1745.5002,-464.4086 1646.4117,-437.4032 1561,-415 1437.9564,-382.7261 1293.9895,-346.4621 1212.0425,-325.9612"/>
<polygon fill="#191970" stroke="#191970" points="1212.6687,-322.5101 1202.1184,-323.4797 1210.9706,-329.301 1212.6687,-322.5101"/>
</g>
<!-- Node227&#45;&gt;Node112 -->
<g id="edge83" class="edge">
<title>Node227&#45;&gt;Node112</title>
<path fill="none" stroke="#191970" d="M1779.6884,-487.3719C1694.7185,-478.9025 1552.5129,-463.4399 1431,-444 1424.4016,-442.9444 1417.4874,-441.7133 1410.6633,-440.4228"/>
<polygon fill="#191970" stroke="#191970" points="1411.2607,-436.9735 1400.7769,-438.5032 1409.9264,-443.8452 1411.2607,-436.9735"/>
</g>
<!-- Node112&#45;&gt;Node1 -->
<g id="edge84" class="edge">
<title>Node112&#45;&gt;Node1</title>
<path fill="none" stroke="#191970" d="M1296.1741,-427.1287C1033.6494,-416.8137 38,-373.4759 38,-309.5 38,-309.5 38,-309.5 38,-119.5 38,-68.4658 84.5394,-71.0021 133,-55 235.3585,-21.2003 1012.712,-11.6175 1193.5103,-9.8356"/>
<polygon fill="#191970" stroke="#191970" points="1193.629,-13.3347 1203.5947,-9.7383 1193.5614,-6.3351 1193.629,-13.3347"/>
</g>
<!-- Node112&#45;&gt;Node2 -->
<g id="edge85" class="edge">
<title>Node112&#45;&gt;Node2</title>
<path fill="none" stroke="#191970" d="M1362.9176,-420.3258C1375.2116,-391.5361 1413.2022,-302.5707 1429.9403,-263.3739"/>
<polygon fill="#191970" stroke="#191970" points="1433.3503,-264.3007 1434.0587,-253.7296 1426.9127,-261.5516 1433.3503,-264.3007"/>
</g>
<!-- Node112&#45;&gt;Node92 -->
<g id="edge86" class="edge">
<title>Node112&#45;&gt;Node92</title>
<path fill="none" stroke="#191970" d="M1296.1672,-427.6818C1128.9987,-422.5242 676.0707,-406.3757 529,-379 460.5644,-366.2614 383.6648,-338.5944 341.6417,-322.2712"/>
<polygon fill="#191970" stroke="#191970" points="342.8171,-318.9727 332.2296,-318.5776 340.2599,-325.4889 342.8171,-318.9727"/>
</g>
<!-- Node112&#45;&gt;Node113 -->
<g id="edge87" class="edge">
<title>Node112&#45;&gt;Node113</title>
<path fill="none" stroke="#191970" d="M1399.9856,-420.4354C1410.0874,-418.4256 1420.9045,-416.4615 1431,-415 1584.184,-392.8239 1764.8721,-379.7885 1865.1331,-373.7028"/>
<polygon fill="#191970" stroke="#191970" points="1865.4017,-377.1931 1875.174,-373.1003 1864.9823,-370.2056 1865.4017,-377.1931"/>
</g>
<!-- Node113&#45;&gt;Node1 -->
<g id="edge88" class="edge">
<title>Node113&#45;&gt;Node1</title>
<path fill="none" stroke="#191970" d="M1991.7727,-360.4981C2024.3107,-353.3901 2067.09,-341.6789 2102,-324 2162.7527,-293.234 2165.3776,-266.2918 2223,-230 2253.2731,-210.9333 2276.1909,-224.4338 2295,-194 2316.0033,-160.016 2293.994,-135.2076 2263,-110 2203.03,-61.226 2173.9512,-69.3779 2098,-55 1935.2771,-24.1957 1413.0659,-12.7495 1268.4397,-10.1256"/>
<polygon fill="#191970" stroke="#191970" points="1268.3636,-6.6238 1258.3028,-9.945 1268.2389,-13.6227 1268.3636,-6.6238"/>
</g>
<!-- Node113&#45;&gt;Node2 -->
<g id="edge90" class="edge">
<title>Node113&#45;&gt;Node2</title>
<path fill="none" stroke="#191970" d="M1935.2887,-360.4813C1922.6163,-344.2192 1893.4189,-310.2582 1860,-295 1798.6955,-267.01 1610.0188,-253.2524 1506.954,-247.6672"/>
<polygon fill="#191970" stroke="#191970" points="1507.1221,-244.1713 1496.9506,-247.1363 1506.751,-251.1615 1507.1221,-244.1713"/>
</g>
<!-- Node113&#45;&gt;Node4 -->
<g id="edge89" class="edge">
<title>Node113&#45;&gt;Node4</title>
<path fill="none" stroke="#191970" d="M1975.6467,-360.4903C2001.5666,-352.7958 2037.789,-340.3733 2067,-324 2125.4893,-291.2158 2126.7857,-263.2701 2185,-230 2223.841,-207.8019 2253.6466,-230.859 2279,-194 2286.3044,-183.3807 2286.641,-175.3797 2279,-165 2244.7637,-118.4923 2072.4977,-84.1283 1994.4886,-70.698"/>
<polygon fill="#191970" stroke="#191970" points="1995.0167,-67.2377 1984.5723,-69.0164 1993.8463,-74.1391 1995.0167,-67.2377"/>
</g>
<!-- Node238&#45;&gt;Node1 -->
<g id="edge93" class="edge">
<title>Node238&#45;&gt;Node1</title>
<path fill="none" stroke="#191970" d="M1279.7332,-492.2193C995.0242,-482.6102 0,-439.713 0,-309.5 0,-309.5 0,-309.5 0,-119.5 0,-78.4851 28.3269,-71.216 66,-55 118.9161,-32.2227 999.3262,-13.9685 1193.3647,-10.2103"/>
<polygon fill="#191970" stroke="#191970" points="1193.693,-13.7048 1203.6237,-10.0128 1193.5582,-6.7061 1193.693,-13.7048"/>
</g>
<!-- Node238&#45;&gt;Node2 -->
<g id="edge94" class="edge">
<title>Node238&#45;&gt;Node2</title>
<path fill="none" stroke="#191970" d="M1324.8836,-480.4422C1310.6236,-472.047 1294.9949,-459.8958 1287,-444 1281.2087,-432.4855 1282.4305,-427.0517 1287,-415 1313.2337,-345.8103 1381.8053,-286.6654 1416.7963,-259.8535"/>
<polygon fill="#191970" stroke="#191970" points="1419.0306,-262.5526 1424.9226,-253.7471 1414.8255,-256.9564 1419.0306,-262.5526"/>
</g>
<!-- Node238&#45;&gt;Node220 -->
<g id="edge97" class="edge">
<title>Node238&#45;&gt;Node220</title>
<path fill="none" stroke="#191970" d="M1385.5949,-480.396C1406.289,-470.8561 1433.823,-458.1632 1456.217,-447.8397"/>
<polygon fill="#191970" stroke="#191970" points="1457.8486,-450.9416 1465.4648,-443.5765 1454.918,-444.5845 1457.8486,-450.9416"/>
</g>
<!-- Node238&#45;&gt;Node78 -->
<g id="edge95" class="edge">
<title>Node238&#45;&gt;Node78</title>
<path fill="none" stroke="#191970" d="M1317.7065,-480.4514C1297.5983,-471.7896 1273.0711,-459.3888 1254,-444 1213.6228,-411.4189 1178.4327,-361.3356 1159.9016,-332.3619"/>
<polygon fill="#191970" stroke="#191970" points="1162.7703,-330.3488 1154.4849,-323.7455 1156.844,-334.0744 1162.7703,-330.3488"/>
</g>
<!-- Node238&#45;&gt;Node112 -->
<g id="edge96" class="edge">
<title>Node238&#45;&gt;Node112</title>
<path fill="none" stroke="#191970" d="M1355.8679,-480.396C1356.4355,-471.1723 1357.1845,-459.0011 1357.8078,-448.8738"/>
<polygon fill="#191970" stroke="#191970" points="1361.3207,-448.7704 1358.4416,-438.5743 1354.3339,-448.3404 1361.3207,-448.7704"/>
</g>
<!-- Node295&#45;&gt;Node1 -->
<g id="edge100" class="edge">
<title>Node295&#45;&gt;Node1</title>
<path fill="none" stroke="#191970" d="M1648.077,-488.4199C1915.4637,-462.1113 2961.8886,-357.8817 3106,-324 3217.3589,-297.8187 3319,-293.8952 3319,-179.5 3319,-179.5 3319,-179.5 3319,-119.5 3319,-111.7895 3283.4915,-83.5351 3064,-55 2880.1909,-31.1038 1513.5581,-13.0266 1268.5517,-9.9604"/>
<polygon fill="#191970" stroke="#191970" points="1268.4189,-6.4586 1258.376,-9.8336 1268.3316,-13.458 1268.4189,-6.4586"/>
</g>
<!-- Node295&#45;&gt;Node2 -->
<g id="edge101" class="edge">
<title>Node295&#45;&gt;Node2</title>
<path fill="none" stroke="#191970" d="M1584.1204,-485.3144C1580.7943,-470.1232 1573.0631,-439.0562 1561,-415 1530.3244,-353.827 1478.605,-290.8034 1453.1208,-261.453"/>
<polygon fill="#191970" stroke="#191970" points="1455.6132,-258.9869 1446.3863,-253.7798 1450.3521,-263.6044 1455.6132,-258.9869"/>
</g>
<!-- Node295&#45;&gt;Node220 -->
<g id="edge103" class="edge">
<title>Node295&#45;&gt;Node220</title>
<path fill="none" stroke="#191970" d="M1573.4859,-485.462C1560.7355,-476.2534 1540.5345,-461.6638 1523.9554,-449.69"/>
<polygon fill="#191970" stroke="#191970" points="1525.8304,-446.7269 1515.6744,-443.7093 1521.732,-452.4016 1525.8304,-446.7269"/>
</g>
<!-- Node295&#45;&gt;Node112 -->
<g id="edge102" class="edge">
<title>Node295&#45;&gt;Node112</title>
<path fill="none" stroke="#191970" d="M1554.4366,-485.462C1514.3147,-473.9734 1444.9432,-454.1093 1400.5533,-441.3985"/>
<polygon fill="#191970" stroke="#191970" points="1401.2375,-437.9539 1390.6604,-438.5658 1399.3105,-444.6834 1401.2375,-437.9539"/>
</g>
<!-- Node311&#45;&gt;Node220 -->
<g id="edge105" class="edge">
<title>Node311&#45;&gt;Node220</title>
<path fill="none" stroke="#191970" d="M2077.5561,-546.1894C2074.3251,-545.7857 2071.1261,-545.3874 2068,-545 1936.0435,-528.6455 1901.2886,-535.5494 1771,-509 1728.9368,-500.4286 1618.4137,-467.2227 1550.9818,-446.5332"/>
<polygon fill="#191970" stroke="#191970" points="1551.9457,-443.1679 1541.3587,-443.5759 1549.8894,-449.8591 1551.9457,-443.1679"/>
</g>
<!-- Node311&#45;&gt;Node227 -->
<g id="edge106" class="edge">
<title>Node311&#45;&gt;Node227</title>
<path fill="none" stroke="#191970" d="M2099.5717,-545.4524C2055.34,-536.2375 1985.8223,-521.7547 1932.1902,-510.5813"/>
<polygon fill="#191970" stroke="#191970" points="1932.8742,-507.1487 1922.3705,-508.5355 1931.4464,-514.0016 1932.8742,-507.1487"/>
</g>
<!-- Node311&#45;&gt;Node113 -->
<g id="edge108" class="edge">
<title>Node311&#45;&gt;Node113</title>
<path fill="none" stroke="#191970" d="M2133.0324,-545.3258C2101.0175,-515.8594 2000.5131,-423.3553 1959.5945,-385.694"/>
<polygon fill="#191970" stroke="#191970" points="1961.7559,-382.9265 1952.0278,-378.7296 1957.0154,-388.077 1961.7559,-382.9265"/>
</g>
<!-- Node311&#45;&gt;Node238 -->
<g id="edge107" class="edge">
<title>Node311&#45;&gt;Node238</title>
<path fill="none" stroke="#191970" d="M2077.1752,-545.9316C2074.0754,-545.6007 2071.005,-545.2879 2068,-545 1822.8243,-521.5139 1760.555,-528.1164 1515,-509 1490.7901,-507.1153 1464.5416,-504.8354 1440.4413,-502.6472"/>
<polygon fill="#191970" stroke="#191970" points="1440.5334,-499.1411 1430.2563,-501.7164 1439.8962,-506.1121 1440.5334,-499.1411"/>
</g>
<!-- Node311&#45;&gt;Node312 -->
<g id="edge109" class="edge">
<title>Node311&#45;&gt;Node312</title>
<path fill="none" stroke="#191970" d="M2148.5311,-545.2406C2157.5082,-530.5875 2176.2455,-501.5123 2196,-480 2251.7676,-419.2701 2328.6062,-359.5641 2369.2275,-329.5259"/>
<polygon fill="#191970" stroke="#191970" points="2371.3386,-332.318 2377.3253,-323.5767 2367.1942,-326.6767 2371.3386,-332.318"/>
</g>
<!-- Node311&#45;&gt;Node314 -->
<g id="edge115" class="edge">
<title>Node311&#45;&gt;Node314</title>
<path fill="none" stroke="#191970" d="M2163.8442,-545.4526C2222.3683,-519.979 2393.0583,-445.1933 2533,-379 2568.3721,-362.2688 2608.3151,-342.3351 2636.4566,-328.1152"/>
<polygon fill="#191970" stroke="#191970" points="2638.1832,-331.1642 2645.5242,-323.5248 2635.0215,-324.9189 2638.1832,-331.1642"/>
</g>
<!-- Node312&#45;&gt;Node1 -->
<g id="edge110" class="edge">
<title>Node312&#45;&gt;Node1</title>
<path fill="none" stroke="#191970" d="M2421.512,-295.3001C2463.9792,-268.9971 2549.4312,-208.0957 2578,-129 2595.3598,-80.9376 2538.8588,-69.9727 2490,-55 2370.7733,-18.4632 1464.8407,-10.9147 1268.4715,-9.7021"/>
<polygon fill="#191970" stroke="#191970" points="1268.3834,-6.2016 1258.3625,-9.6414 1268.3413,-13.2014 1268.3834,-6.2016"/>
</g>
<!-- Node312&#45;&gt;Node2 -->
<g id="edge111" class="edge">
<title>Node312&#45;&gt;Node2</title>
<path fill="none" stroke="#191970" d="M2342.3444,-305.7955C2178.0657,-294.6609 1688.8847,-261.5047 1507.0651,-249.1812"/>
<polygon fill="#191970" stroke="#191970" points="1507.3006,-245.6892 1497.0867,-248.5048 1506.8271,-252.6732 1507.3006,-245.6892"/>
</g>
<!-- Node312&#45;&gt;Node34 -->
<g id="edge113" class="edge">
<title>Node312&#45;&gt;Node34</title>
<path fill="none" stroke="#191970" d="M2371.6385,-295.4564C2346.2291,-279.594 2313.3667,-252.9923 2332,-230 2380.6258,-169.9986 2444.6514,-245.7279 2502,-194 2517.495,-180.0237 2523.0363,-156.0079 2524.99,-139.0262"/>
<polygon fill="#191970" stroke="#191970" points="2528.5157,-138.8565 2525.8476,-128.6031 2521.5392,-138.2824 2528.5157,-138.8565"/>
</g>
<!-- Node312&#45;&gt;Node43 -->
<g id="edge112" class="edge">
<title>Node312&#45;&gt;Node43</title>
<path fill="none" stroke="#191970" d="M2438.2272,-295.396C2471.7115,-283.9408 2518.4851,-267.9393 2550.599,-256.953"/>
<polygon fill="#191970" stroke="#191970" points="2552.1464,-260.1228 2560.4751,-253.5743 2549.8805,-253.4997 2552.1464,-260.1228"/>
</g>
<!-- Node313 -->
<g id="node43" class="node">
<title>Node313</title>
<g id="a_node43"><a xlink:href="GradientColorMap_8ih_source.html" target="_top" xlink:title=" ">
<polygon fill="#ffffff" stroke="#000000" points="2341.478,-230.5 2341.478,-258.5 2452.522,-258.5 2452.522,-230.5 2341.478,-230.5"/>
<text text-anchor="start" x="2349.478" y="-246.5" font-family="FreeSans" font-size="10.00" fill="#000000">DGtal/io/colormaps</text>
<text text-anchor="middle" x="2397" y="-236.5" font-family="FreeSans" font-size="10.00" fill="#000000">/GradientColorMap.ih</text>
</a>
</g>
</g>
<!-- Node312&#45;&gt;Node313 -->
<g id="edge114" class="edge">
<title>Node312&#45;&gt;Node313</title>
<path fill="none" stroke="#191970" d="M2397,-295.396C2397,-287.6448 2397,-277.8122 2397,-268.8601"/>
<polygon fill="#191970" stroke="#191970" points="2400.5001,-268.5765 2397,-258.5765 2393.5001,-268.5765 2400.5001,-268.5765"/>
</g>
<!-- Node314&#45;&gt;Node1 -->
<g id="edge116" class="edge">
<title>Node314&#45;&gt;Node1</title>
<path fill="none" stroke="#191970" d="M2731.9552,-299.4217C2778.5906,-288.471 2832.6866,-267.3238 2812,-230 2740.8598,-101.6455 2672.3354,-97.916 2532,-55 2408.5187,-17.2381 1468.6787,-10.6366 1268.4447,-9.6548"/>
<polygon fill="#191970" stroke="#191970" points="1268.4322,-6.1548 1258.4158,-9.6074 1268.3991,-13.1547 1268.4322,-6.1548"/>
</g>
<!-- Node314&#45;&gt;Node2 -->
<g id="edge117" class="edge">
<title>Node314&#45;&gt;Node2</title>
<path fill="none" stroke="#191970" d="M2613.7974,-305.1734C2571.0678,-302.123 2511.9864,-298.0536 2460,-295 2101.5174,-273.9431 1671.9482,-254.6534 1507.0689,-247.469"/>
<polygon fill="#191970" stroke="#191970" points="1507.2065,-243.9718 1497.0638,-247.0337 1506.9022,-250.9651 1507.2065,-243.9718"/>
</g>
<!-- Node314&#45;&gt;Node34 -->
<g id="edge119" class="edge">
<title>Node314&#45;&gt;Node34</title>
<path fill="none" stroke="#191970" d="M2668.4147,-295.1245C2658.8727,-267.1035 2634.5098,-204.4738 2596,-165 2583.7465,-152.4397 2567.4279,-141.5836 2553.6293,-133.6287"/>
<polygon fill="#191970" stroke="#191970" points="2555.0028,-130.3883 2544.56,-128.5998 2551.6082,-136.5101 2555.0028,-130.3883"/>
</g>
<!-- Node314&#45;&gt;Node43 -->
<g id="edge118" class="edge">
<title>Node314&#45;&gt;Node43</title>
<path fill="none" stroke="#191970" d="M2654.3393,-295.396C2640.4298,-284.883 2621.454,-270.5408 2607.1906,-259.7603"/>
<polygon fill="#191970" stroke="#191970" points="2609.0941,-256.8118 2599.006,-253.5743 2604.8733,-262.3962 2609.0941,-256.8118"/>
</g>
<!-- Node315 -->
<g id="node45" class="node">
<title>Node315</title>
<g id="a_node45"><a xlink:href="HueShadeColorMap_8ih_source.html" target="_top" xlink:title=" ">
<polygon fill="#ffffff" stroke="#000000" points="2683.0249,-230.5 2683.0249,-258.5 2802.9751,-258.5 2802.9751,-230.5 2683.0249,-230.5"/>
<text text-anchor="start" x="2691.0249" y="-246.5" font-family="FreeSans" font-size="10.00" fill="#000000">DGtal/io/colormaps</text>
<text text-anchor="middle" x="2743" y="-236.5" font-family="FreeSans" font-size="10.00" fill="#000000">/HueShadeColorMap.ih</text>
</a>
</g>
</g>
<!-- Node314&#45;&gt;Node315 -->
<g id="edge120" class="edge">
<title>Node314&#45;&gt;Node315</title>
<path fill="none" stroke="#191970" d="M2688.189,-295.396C2697.5453,-286.7079 2709.7181,-275.4046 2720.2149,-265.6576"/>
<polygon fill="#191970" stroke="#191970" points="2722.8943,-267.9458 2727.8407,-258.5765 2718.1311,-262.8163 2722.8943,-267.9458"/>
</g>
<!-- Node318&#45;&gt;Node1 -->
<g id="edge124" class="edge">
<title>Node318&#45;&gt;Node1</title>
<path fill="none" stroke="#191970" d="M2897.0731,-300.267C2944.4768,-291.5702 3006.3957,-277.1748 3024,-259 3049.2753,-232.9057 3043,-215.8284 3043,-179.5 3043,-179.5 3043,-179.5 3043,-119.5 3043,-27.2639 1527.3775,-11.7323 1268.4149,-9.7518"/>
<polygon fill="#191970" stroke="#191970" points="1268.4037,-6.2517 1258.3779,-9.6771 1268.3515,-13.2515 1268.4037,-6.2517"/>
</g>
<!-- Node318&#45;&gt;Node2 -->
<g id="edge125" class="edge">
<title>Node318&#45;&gt;Node2</title>
<path fill="none" stroke="#191970" d="M2781.0866,-299.8719C2767.9396,-297.9816 2754.0151,-296.2115 2741,-295 2498.0685,-272.3873 1740.4959,-252.0527 1507.1318,-246.1906"/>
<polygon fill="#191970" stroke="#191970" points="1507.1596,-242.6903 1497.0751,-245.9388 1506.9843,-249.6881 1507.1596,-242.6903"/>
</g>
<!-- Node318&#45;&gt;Node34 -->
<g id="edge127" class="edge">
<title>Node318&#45;&gt;Node34</title>
<path fill="none" stroke="#191970" d="M2837.7935,-295.2819C2835.5796,-277.7594 2829.3583,-248.0904 2812,-230 2749.2481,-164.6017 2643.449,-137.3153 2579.6265,-126.3741"/>
<polygon fill="#191970" stroke="#191970" points="2579.8066,-122.857 2569.3724,-124.695 2578.6754,-129.765 2579.8066,-122.857"/>
</g>
<!-- Node318&#45;&gt;Node43 -->
<g id="edge126" class="edge">
<title>Node318&#45;&gt;Node43</title>
<path fill="none" stroke="#191970" d="M2784.63,-295.476C2738.9527,-283.6942 2674.4689,-267.0614 2631.7357,-256.039"/>
<polygon fill="#191970" stroke="#191970" points="2632.4556,-252.6102 2621.8984,-253.5016 2630.7072,-259.3883 2632.4556,-252.6102"/>
</g>
<!-- Node319 -->
<g id="node48" class="node">
<title>Node319</title>
<g id="a_node48"><a xlink:href="GrayscaleColorMap_8ih_source.html" target="_top" xlink:title=" ">
<polygon fill="#ffffff" stroke="#000000" points="2897.1479,-230.5 2897.1479,-258.5 3014.8521,-258.5 3014.8521,-230.5 2897.1479,-230.5"/>
<text text-anchor="start" x="2905.1479" y="-246.5" font-family="FreeSans" font-size="10.00" fill="#000000">DGtal/io/colormaps</text>
<text text-anchor="middle" x="2956" y="-236.5" font-family="FreeSans" font-size="10.00" fill="#000000">/GrayscaleColorMap.ih</text>
</a>
</g>
</g>
<!-- Node318&#45;&gt;Node319 -->
<g id="edge128" class="edge">
<title>Node318&#45;&gt;Node319</title>
<path fill="none" stroke="#191970" d="M2864.3873,-295.396C2881.1757,-286.0691 2903.3892,-273.7282 2921.738,-263.5345"/>
<polygon fill="#191970" stroke="#191970" points="2923.6205,-266.4925 2930.6623,-258.5765 2920.2209,-260.3734 2923.6205,-266.4925"/>
</g>
<!-- Node320&#45;&gt;Node1 -->
<g id="edge131" class="edge">
<title>Node320&#45;&gt;Node1</title>
<path fill="none" stroke="#191970" d="M3096.9577,-302.6438C3157.6779,-295.3254 3238.8421,-281.6135 3262,-259 3287.9918,-233.6193 3281,-215.8284 3281,-179.5 3281,-179.5 3281,-179.5 3281,-119.5 3281,84.3039 3030.0714,-72.2646 2827,-55 2510.0479,-28.0535 1478.6181,-12.8526 1268.5505,-9.9952"/>
<polygon fill="#191970" stroke="#191970" points="1268.3926,-6.4928 1258.3462,-9.8573 1268.2979,-13.4922 1268.3926,-6.4928"/>
</g>
<!-- Node320&#45;&gt;Node2 -->
<g id="edge132" class="edge">
<title>Node320&#45;&gt;Node2</title>
<path fill="none" stroke="#191970" d="M2955.0323,-299.9022C2938.9368,-298.0103 2921.9009,-296.2319 2906,-295 2368.7501,-253.3776 1718.2376,-246.0605 1507.48,-244.7743"/>
<polygon fill="#191970" stroke="#191970" points="1507.205,-241.2727 1497.1847,-244.7142 1507.1641,-248.2726 1507.205,-241.2727"/>
</g>
<!-- Node320&#45;&gt;Node34 -->
<g id="edge134" class="edge">
<title>Node320&#45;&gt;Node34</title>
<path fill="none" stroke="#191970" d="M3030.3174,-295.4037C3034.7002,-278.0067 3038.9293,-248.4673 3024,-230 2968.401,-161.2247 2696.4436,-132.5049 2579.5589,-123.2014"/>
<polygon fill="#191970" stroke="#191970" points="2579.6512,-119.6981 2569.4097,-122.4116 2579.108,-126.677 2579.6512,-119.6981"/>
</g>
<!-- Node320&#45;&gt;Node43 -->
<g id="edge133" class="edge">
<title>Node320&#45;&gt;Node43</title>
<path fill="none" stroke="#191970" d="M2955.1376,-299.814C2884.0028,-289.9778 2771.3076,-274.0871 2674,-259 2662.0601,-257.1488 2649.2153,-255.0612 2637.1577,-253.0588"/>
<polygon fill="#191970" stroke="#191970" points="2637.6917,-249.5996 2627.2516,-251.4039 2636.5382,-256.5039 2637.6917,-249.5996"/>
</g>
<!-- Node321 -->
<g id="node50" class="node">
<title>Node321</title>
<g id="a_node50"><a xlink:href="ColorBrightnessColorMap_8ih_source.html" target="_top" xlink:title=" ">
<polygon fill="#ffffff" stroke="#000000" points="3109.084,-230.5 3109.084,-258.5 3252.916,-258.5 3252.916,-230.5 3109.084,-230.5"/>
<text text-anchor="start" x="3117.084" y="-246.5" font-family="FreeSans" font-size="10.00" fill="#000000">DGtal/io/colormaps</text>
<text text-anchor="middle" x="3181" y="-236.5" font-family="FreeSans" font-size="10.00" fill="#000000">/ColorBrightnessColorMap.ih</text>
</a>
</g>
</g>
<!-- Node320&#45;&gt;Node321 -->
<g id="edge135" class="edge">
<title>Node320&#45;&gt;Node321</title>
<path fill="none" stroke="#191970" d="M3059.6327,-295.396C3082.5847,-285.7709 3113.1905,-272.9362 3137.925,-262.5637"/>
<polygon fill="#191970" stroke="#191970" points="3139.5646,-265.6715 3147.4329,-258.5765 3136.8574,-259.2161 3139.5646,-265.6715"/>
</g>
</g>
</svg>
        <g id="navigator" transform="translate(0 0)" fill="#404254">
                <rect fill="#f2f5e9" fill-opacity="0.5" stroke="#606060" stroke-width=".5" x="0" y="0" width="60" height="60"/>
                <use id="zoomplus" xlink:href="#zoomPlus" x="17" y="9" onmousedown="handleZoom(evt,'in')"/>
                <use id="zoomminus" xlink:href="#zoomMin" x="42" y="9" onmousedown="handleZoom(evt,'out')"/>
                <use id="reset" xlink:href="#resetDef" x="30" y="36" onmousedown="handleReset()"/>
                <g id="arrowUp" xlink:href="#dirArrow" transform="translate(30 24)" onmousedown="handlePan(0,-1)">
                  <use xlink:href="#rim" fill="#404040">
                        <set attributeName="fill" to="#808080" begin="arrowUp.mouseover" end="arrowUp.mouseout"/>
                  </use>
                  <path fill="none" stroke="white" stroke-width="1.5" d="M0,-3.0v7 M-2.5,-0.5L0,-3.0L2.5,-0.5"/>
                </g>
                <g id="arrowRight" xlink:href="#dirArrow" transform="rotate(90) translate(36 -43)" onmousedown="handlePan(1,0)">
                  <use xlink:href="#rim" fill="#404040">
                        <set attributeName="fill" to="#808080" begin="arrowRight.mouseover" end="arrowRight.mouseout"/>
                  </use>
                  <path fill="none" stroke="white" stroke-width="1.5" d="M0,-3.0v7 M-2.5,-0.5L0,-3.0L2.5,-0.5"/>
                </g>
                <g id="arrowDown" xlink:href="#dirArrow" transform="rotate(180) translate(-30 -48)" onmousedown="handlePan(0,1)">
                  <use xlink:href="#rim" fill="#404040">
                        <set attributeName="fill" to="#808080" begin="arrowDown.mouseover" end="arrowDown.mouseout"/>
                  </use>
                  <path fill="none" stroke="white" stroke-width="1.5" d="M0,-3.0v7 M-2.5,-0.5L0,-3.0L2.5,-0.5"/>
                </g>
                <g id="arrowLeft" xlink:href="#dirArrow" transform="rotate(270) translate(-36 17)" onmousedown="handlePan(-1,0)">
                  <use xlink:href="#rim" fill="#404040">
                        <set attributeName="fill" to="#808080" begin="arrowLeft.mouseover" end="arrowLeft.mouseout"/>
                  </use>
                  <path fill="none" stroke="white" stroke-width="1.5" d="M0,-3.0v7 M-2.5,-0.5L0,-3.0L2.5,-0.5"/>
                </g>
        </g>
        <svg viewBox="0 0 15 15" width="100%" height="30px" preserveAspectRatio="xMaxYMin meet">
         <g id="arrow_out" transform="scale(0.3 0.3)">
          <a xlink:href="testHashTree_8cpp__incl_org.svg" target="_base">
           <rect id="button" ry="5" rx="5" y="6" x="6" height="38" width="38"
                fill="#f2f5e9" fill-opacity="0.5" stroke="#606060" stroke-width="1.0"/>
           <path id="arrow"
             d="M 11.500037,31.436501 C 11.940474,20.09759 22.043105,11.32322 32.158766,21.979434 L 37.068811,17.246167 C 37.068811,17.246167 37.088388,32 37.088388,32 L 22.160133,31.978069 C 22.160133,31.978069 26.997745,27.140456 26.997745,27.140456 C 18.528582,18.264221 13.291696,25.230495 11.500037,31.436501 z"
             style="fill:#404040;"/>
          </a>
         </g>
        </svg>
</svg>
