<?xml version="1.0" encoding="UTF-8" standalone="no"?>
<!DOCTYPE svg PUBLIC "-//W3C//DTD SVG 1.1//EN"
 "http://www.w3.org/Graphics/SVG/1.1/DTD/svg11.dtd">
<!-- Generated by graphviz version 2.44.1 (20200629.0846)
 -->
<!-- Title: DGtal::SpatialCubicalSubdivision&lt; TSpace &gt; Pages: 1 -->
<svg width="1544pt" height="396pt"
 viewBox="0.00 0.00 1544.00 395.50" xmlns="http://www.w3.org/2000/svg" xmlns:xlink="http://www.w3.org/1999/xlink">
<g id="graph0" class="graph" transform="scale(1 1) rotate(0) translate(4 391.5)">
<title>DGtal::SpatialCubicalSubdivision&lt; TSpace &gt;</title>
<polygon fill="white" stroke="transparent" points="-4,4 -4,-391.5 1540,-391.5 1540,4 -4,4"/>
<!-- Node1 -->
<g id="node1" class="node">
<title>Node1</title>
<g id="a_node1"><a xlink:title="Aim: This class is a data structure that subdivides a rectangular domains into cubical domains of siz...">
<polygon fill="#bfbfbf" stroke="black" points="1375,-227.5 1375,-257.5 1536,-257.5 1536,-227.5 1375,-227.5"/>
<text text-anchor="start" x="1383" y="-245.5" font-family="FreeSans" font-size="10.00">DGtal::SpatialCubicalSubdivision</text>
<text text-anchor="middle" x="1455.5" y="-234.5" font-family="FreeSans" font-size="10.00">&lt; TSpace &gt;</text>
</a>
</g>
</g>
<!-- Node2 -->
<g id="node2" class="node">
<title>Node2</title>
<g id="a_node2"><a xlink:href="classDGtal_1_1ImageContainerBySTLVector.html" target="_top" xlink:title=" ">
<polygon fill="white" stroke="black" points="1124,-227.5 1124,-257.5 1299,-257.5 1299,-227.5 1124,-227.5"/>
<text text-anchor="start" x="1132" y="-245.5" font-family="FreeSans" font-size="10.00">DGtal::ImageContainerBySTLVector</text>
<text text-anchor="middle" x="1211.5" y="-234.5" font-family="FreeSans" font-size="10.00">&lt; Domain, Storage * &gt;</text>
</a>
</g>
</g>
<!-- Node2&#45;&gt;Node1 -->
<g id="edge1" class="edge">
<title>Node2&#45;&gt;Node1</title>
<path fill="none" stroke="#9a32cd" stroke-dasharray="5,2" d="M1309.41,-242.5C1331.14,-242.5 1353.94,-242.5 1374.87,-242.5"/>
<polygon fill="#9a32cd" stroke="#9a32cd" points="1309.18,-239 1299.18,-242.5 1309.18,-246 1309.18,-239"/>
<text text-anchor="middle" x="1337" y="-245.5" font-family="FreeSans" font-size="10.00"> myArray</text>
</g>
<!-- Node3 -->
<g id="node3" class="node">
<title>Node3</title>
<g id="a_node3"><a xlink:title="STL class.">
<polygon fill="white" stroke="#bfbfbf" points="671,-253 671,-272 793,-272 793,-253 671,-253"/>
<text text-anchor="middle" x="732" y="-260" font-family="FreeSans" font-size="10.00">std::vector&lt; Storage * &gt;</text>
</a>
</g>
</g>
<!-- Node3&#45;&gt;Node2 -->
<g id="edge2" class="edge">
<title>Node3&#45;&gt;Node2</title>
<path fill="none" stroke="midnightblue" d="M803.57,-259.54C888.78,-255.98 1032.05,-249.97 1123.87,-246.13"/>
<polygon fill="midnightblue" stroke="midnightblue" points="803.32,-256.05 793.48,-259.97 803.61,-263.05 803.32,-256.05"/>
</g>
<!-- Node4 -->
<g id="node4" class="node">
<title>Node4</title>
<g id="a_node4"><a xlink:title=" ">
<polygon fill="white" stroke="#bfbfbf" points="336,-270 336,-289 365,-289 365,-270 336,-270"/>
<text text-anchor="middle" x="350.5" y="-277" font-family="FreeSans" font-size="10.00">T</text>
</a>
</g>
</g>
<!-- Node4&#45;&gt;Node3 -->
<g id="edge3" class="edge">
<title>Node4&#45;&gt;Node3</title>
<path fill="none" stroke="#9a32cd" stroke-dasharray="5,2" d="M375.25,-276.74C391.49,-274.96 413.52,-272.75 433,-271.5 515.26,-266.23 610.49,-264.03 670.73,-263.13"/>
<polygon fill="#9a32cd" stroke="#9a32cd" points="374.58,-273.29 365.03,-277.89 375.36,-280.25 374.58,-273.29"/>
<text text-anchor="middle" x="469.5" y="-274.5" font-family="FreeSans" font-size="10.00"> elements</text>
</g>
<!-- Node13 -->
<g id="node13" class="node">
<title>Node13</title>
<g id="a_node13"><a xlink:title="STL class.">
<polygon fill="white" stroke="#bfbfbf" points="533,-291 533,-310 644,-310 644,-291 533,-291"/>
<text text-anchor="middle" x="588.5" y="-298" font-family="FreeSans" font-size="10.00">std::vector&lt; TValue &gt;</text>
</a>
</g>
</g>
<!-- Node4&#45;&gt;Node13 -->
<g id="edge19" class="edge">
<title>Node4&#45;&gt;Node13</title>
<path fill="none" stroke="#9a32cd" stroke-dasharray="5,2" d="M375.43,-281.63C412.13,-284.89 483.27,-291.23 533,-295.65"/>
<polygon fill="#9a32cd" stroke="#9a32cd" points="375.48,-278.12 365.21,-280.72 374.86,-285.09 375.48,-278.12"/>
<text text-anchor="middle" x="469.5" y="-295.5" font-family="FreeSans" font-size="10.00"> elements</text>
</g>
<!-- Node5 -->
<g id="node5" class="node">
<title>Node5</title>
<g id="a_node5"><a xlink:href="classDGtal_1_1HyperRectDomain.html" target="_top" xlink:title=" ">
<polygon fill="white" stroke="black" points="834,-115.5 834,-145.5 963,-145.5 963,-115.5 834,-115.5"/>
<text text-anchor="start" x="842" y="-133.5" font-family="FreeSans" font-size="10.00">DGtal::HyperRectDomain</text>
<text text-anchor="middle" x="898.5" y="-122.5" font-family="FreeSans" font-size="10.00">&lt; Space &gt;</text>
</a>
</g>
</g>
<!-- Node5&#45;&gt;Node1 -->
<g id="edge21" class="edge">
<title>Node5&#45;&gt;Node1</title>
<path fill="none" stroke="#9a32cd" stroke-dasharray="5,2" d="M973.12,-138.64C1012.67,-143.47 1062.17,-150.27 1106,-158.5 1210.75,-178.17 1331.3,-209.11 1399.65,-227.45"/>
<polygon fill="#9a32cd" stroke="#9a32cd" points="973.38,-135.14 963.03,-137.42 972.54,-142.09 973.38,-135.14"/>
<text text-anchor="middle" x="1211.5" y="-203.5" font-family="FreeSans" font-size="10.00"> myDomain</text>
</g>
<!-- Node5&#45;&gt;Node2 -->
<g id="edge4" class="edge">
<title>Node5&#45;&gt;Node2</title>
<path fill="none" stroke="#9a32cd" stroke-dasharray="5,2" d="M958.8,-148.64C1000.32,-161.67 1056.91,-180.12 1106,-198.5 1129.78,-207.41 1156.13,-218.51 1176.42,-227.33"/>
<polygon fill="#9a32cd" stroke="#9a32cd" points="959.71,-145.25 949.12,-145.61 957.62,-151.93 959.71,-145.25"/>
<text text-anchor="middle" x="1055" y="-201.5" font-family="FreeSans" font-size="10.00"> myDomain</text>
</g>
<!-- Node6 -->
<g id="node6" class="node">
<title>Node6</title>
<g id="a_node6"><a xlink:href="classDGtal_1_1HyperRectDomain__Iterator.html" target="_top" xlink:title="Iterator for HyperRectDomain.">
<polygon fill="white" stroke="black" points="286,-68.5 286,-98.5 415,-98.5 415,-68.5 286,-68.5"/>
<text text-anchor="start" x="294" y="-86.5" font-family="FreeSans" font-size="10.00">DGtal::HyperRectDomain</text>
<text text-anchor="middle" x="350.5" y="-75.5" font-family="FreeSans" font-size="10.00">_Iterator&lt; TPoint &gt;</text>
</a>
</g>
</g>
<!-- Node6&#45;&gt;Node5 -->
<g id="edge5" class="edge">
<title>Node6&#45;&gt;Node5</title>
<path fill="none" stroke="#9a32cd" stroke-dasharray="5,2" d="M385.43,-63.63C399.63,-56.41 416.62,-49.13 433,-45.5 464.68,-38.48 473.67,-42.77 506,-45.5 631.1,-56.06 774.42,-93.99 848.07,-115.44"/>
<polygon fill="#9a32cd" stroke="#9a32cd" points="383.74,-60.57 376.54,-68.33 387.01,-66.76 383.74,-60.57"/>
<text text-anchor="middle" x="588.5" y="-81.5" font-family="FreeSans" font-size="10.00"> myIteratorBegin</text>
<text text-anchor="middle" x="588.5" y="-70.5" font-family="FreeSans" font-size="10.00">myIteratorEnd</text>
</g>
<!-- Node11 -->
<g id="node11" class="node">
<title>Node11</title>
<g id="a_node11"><a xlink:href="classDGtal_1_1HyperRectDomain.html" target="_top" xlink:title="Aim: Parallelepidec region of a digital space, model of a &#39;CDomain&#39;.">
<polygon fill="white" stroke="black" points="524,-101.5 524,-131.5 653,-131.5 653,-101.5 524,-101.5"/>
<text text-anchor="start" x="532" y="-119.5" font-family="FreeSans" font-size="10.00">DGtal::HyperRectDomain</text>
<text text-anchor="middle" x="588.5" y="-108.5" font-family="FreeSans" font-size="10.00">&lt; TSpace &gt;</text>
</a>
</g>
</g>
<!-- Node6&#45;&gt;Node11 -->
<g id="edge13" class="edge">
<title>Node6&#45;&gt;Node11</title>
<path fill="none" stroke="#9a32cd" stroke-dasharray="5,2" d="M425.23,-89.58C450.87,-92.11 479.77,-95.42 506,-99.5 511.86,-100.41 517.93,-101.47 523.99,-102.6"/>
<polygon fill="#9a32cd" stroke="#9a32cd" points="425.5,-86.09 415.21,-88.62 424.83,-93.06 425.5,-86.09"/>
<text text-anchor="middle" x="469.5" y="-113.5" font-family="FreeSans" font-size="10.00"> myIteratorBegin</text>
<text text-anchor="middle" x="469.5" y="-102.5" font-family="FreeSans" font-size="10.00">myIteratorEnd</text>
</g>
<!-- Node7 -->
<g id="node7" class="node">
<title>Node7</title>
<g id="a_node7"><a xlink:title=" ">
<polygon fill="white" stroke="#bfbfbf" points="0,-49.5 0,-145.5 179,-145.5 179,-49.5 0,-49.5"/>
<text text-anchor="start" x="8" y="-133.5" font-family="FreeSans" font-size="10.00">boost::iterator_facade</text>
<text text-anchor="start" x="8" y="-122.5" font-family="FreeSans" font-size="10.00">&lt; HyperRectDomain_Iterator</text>
<text text-anchor="start" x="8" y="-111.5" font-family="FreeSans" font-size="10.00">&lt; TPoint &gt;, TPoint const,</text>
<text text-anchor="start" x="8" y="-100.5" font-family="FreeSans" font-size="10.00"> std::random_access_iterator</text>
<text text-anchor="start" x="8" y="-89.5" font-family="FreeSans" font-size="10.00">_tag, TPoint const &amp;, std::conditional</text>
<text text-anchor="start" x="8" y="-78.5" font-family="FreeSans" font-size="10.00">&lt; std::is_same&lt; TPoint::Component,</text>
<text text-anchor="start" x="8" y="-67.5" font-family="FreeSans" font-size="10.00"> BigInteger &gt;::value, BigInteger, std</text>
<text text-anchor="middle" x="89.5" y="-56.5" font-family="FreeSans" font-size="10.00">::ptrdiff_t &gt;::type &gt;</text>
</a>
</g>
</g>
<!-- Node7&#45;&gt;Node6 -->
<g id="edge6" class="edge">
<title>Node7&#45;&gt;Node6</title>
<path fill="none" stroke="midnightblue" d="M189.64,-92.14C221.9,-90.4 256.82,-88.51 285.77,-86.94"/>
<polygon fill="midnightblue" stroke="midnightblue" points="189.07,-88.67 179.27,-92.7 189.45,-95.66 189.07,-88.67"/>
</g>
<!-- Node8 -->
<g id="node8" class="node">
<title>Node8</title>
<g id="a_node8"><a xlink:href="structDGtal_1_1functors_1_1IsWithinPointPredicate.html" target="_top" xlink:title=" ">
<polygon fill="white" stroke="black" points="288,-3.5 288,-33.5 413,-33.5 413,-3.5 288,-3.5"/>
<text text-anchor="start" x="296" y="-21.5" font-family="FreeSans" font-size="10.00">DGtal::functors::IsWithin</text>
<text text-anchor="middle" x="350.5" y="-10.5" font-family="FreeSans" font-size="10.00">PointPredicate&lt; Point &gt;</text>
</a>
</g>
</g>
<!-- Node8&#45;&gt;Node5 -->
<g id="edge7" class="edge">
<title>Node8&#45;&gt;Node5</title>
<path fill="none" stroke="#9a32cd" stroke-dasharray="5,2" d="M423.09,-14.82C512.96,-12.8 670.21,-17.99 793,-68.5 823.43,-81.02 855.58,-101.3 876.05,-115.24"/>
<polygon fill="#9a32cd" stroke="#9a32cd" points="422.91,-11.32 413.01,-15.08 423.1,-18.32 422.91,-11.32"/>
<text text-anchor="middle" x="588.5" y="-33.5" font-family="FreeSans" font-size="10.00"> myPredicate</text>
</g>
<!-- Node8&#45;&gt;Node11 -->
<g id="edge14" class="edge">
<title>Node8&#45;&gt;Node11</title>
<path fill="none" stroke="#9a32cd" stroke-dasharray="5,2" d="M407.5,-36.86C437.14,-47.06 473.94,-60.5 506,-74.5 524.53,-82.59 544.73,-92.99 560.38,-101.42"/>
<polygon fill="#9a32cd" stroke="#9a32cd" points="408.33,-33.44 397.74,-33.53 406.07,-40.07 408.33,-33.44"/>
<text text-anchor="middle" x="469.5" y="-77.5" font-family="FreeSans" font-size="10.00"> myPredicate</text>
</g>
<!-- Node9 -->
<g id="node9" class="node">
<title>Node9</title>
<g id="a_node9"><a xlink:href="classDGtal_1_1PointVector.html" target="_top" xlink:title="Aim: Implements basic operations that will be used in Point and Vector classes.">
<polygon fill="white" stroke="black" points="30,-184 30,-225 149,-225 149,-184 30,-184"/>
<text text-anchor="start" x="38" y="-213" font-family="FreeSans" font-size="10.00">DGtal::PointVector</text>
<text text-anchor="start" x="38" y="-202" font-family="FreeSans" font-size="10.00">&lt; dim, TEuclideanRing,</text>
<text text-anchor="middle" x="89.5" y="-191" font-family="FreeSans" font-size="10.00"> TContainer &gt;</text>
</a>
</g>
</g>
<!-- Node9&#45;&gt;Node1 -->
<g id="edge22" class="edge">
<title>Node9&#45;&gt;Node1</title>
<path fill="none" stroke="#9a32cd" stroke-dasharray="5,2" d="M112.87,-232.96C154.02,-281.83 246.98,-376.5 349.5,-376.5 349.5,-376.5 349.5,-376.5 1212.5,-376.5 1309.75,-376.5 1404.57,-292.66 1439.95,-257.61"/>
<polygon fill="#9a32cd" stroke="#9a32cd" points="115.55,-230.72 106.48,-225.25 110.16,-235.18 115.55,-230.72"/>
<text text-anchor="middle" x="732" y="-379.5" font-family="FreeSans" font-size="10.00"> myDiag</text>
</g>
<!-- Node9&#45;&gt;Node2 -->
<g id="edge16" class="edge">
<title>Node9&#45;&gt;Node2</title>
<path fill="none" stroke="#9a32cd" stroke-dasharray="5,2" d="M159.18,-212.29C211.32,-217.54 284.83,-223.5 349.5,-223.5 349.5,-223.5 349.5,-223.5 899.5,-223.5 975.37,-223.5 1061.45,-229.2 1123.78,-234.36"/>
<polygon fill="#9a32cd" stroke="#9a32cd" points="159.35,-208.79 149.04,-211.25 158.63,-215.75 159.35,-208.79"/>
<text text-anchor="middle" x="588.5" y="-226.5" font-family="FreeSans" font-size="10.00"> myExtent</text>
</g>
<!-- Node9&#45;&gt;Node5 -->
<g id="edge11" class="edge">
<title>Node9&#45;&gt;Node5</title>
<path fill="none" stroke="#9a32cd" stroke-dasharray="5,2" d="M159.52,-198.32C285.42,-187.01 560.84,-162.18 793,-140.5 806.25,-139.26 820.44,-137.92 833.95,-136.63"/>
<polygon fill="#9a32cd" stroke="#9a32cd" points="158.9,-194.86 149.26,-199.24 159.53,-201.83 158.9,-194.86"/>
<text text-anchor="middle" x="469.5" y="-186.5" font-family="FreeSans" font-size="10.00"> myLowerBound</text>
<text text-anchor="middle" x="469.5" y="-175.5" font-family="FreeSans" font-size="10.00">myUpperBound</text>
</g>
<!-- Node9&#45;&gt;Node8 -->
<g id="edge8" class="edge">
<title>Node9&#45;&gt;Node8</title>
<path fill="none" stroke="#9a32cd" stroke-dasharray="5,2" d="M151.68,-178.73C161.85,-172.32 171.51,-164.62 179,-155.5 195.6,-135.31 180.22,-119.55 197,-99.5 223.84,-67.43 266.71,-46.26 300.17,-33.63"/>
<polygon fill="#9a32cd" stroke="#9a32cd" points="149.9,-175.72 143.06,-183.81 153.45,-181.75 149.9,-175.72"/>
<text text-anchor="middle" x="232.5" y="-113.5" font-family="FreeSans" font-size="10.00"> myLowerBound</text>
<text text-anchor="middle" x="232.5" y="-102.5" font-family="FreeSans" font-size="10.00">myUpperBound</text>
</g>
<!-- Node9&#45;&gt;Node9 -->
<g id="edge9" class="edge">
<title>Node9&#45;&gt;Node9</title>
<path fill="none" stroke="#9a32cd" stroke-dasharray="5,2" d="M65.07,-235.36C68.7,-240.2 76.85,-243.5 89.5,-243.5 109.75,-243.5 118.45,-235.04 115.6,-225.36"/>
<polygon fill="#9a32cd" stroke="#9a32cd" points="68.5,-234.65 63.4,-225.36 61.6,-235.8 68.5,-234.65"/>
<text text-anchor="middle" x="89.5" y="-246.5" font-family="FreeSans" font-size="10.00"> zero</text>
</g>
<!-- Node9&#45;&gt;Node11 -->
<g id="edge15" class="edge">
<title>Node9&#45;&gt;Node11</title>
<path fill="none" stroke="#9a32cd" stroke-dasharray="5,2" d="M158.77,-182.7C171.44,-178.84 184.59,-174.95 197,-171.5 236.25,-160.58 245.88,-156.62 286,-149.5 367.53,-135.03 462.66,-125.88 523.92,-120.98"/>
<polygon fill="#9a32cd" stroke="#9a32cd" points="157.72,-179.36 149.19,-185.64 159.78,-186.05 157.72,-179.36"/>
<text text-anchor="middle" x="350.5" y="-163.5" font-family="FreeSans" font-size="10.00"> myLowerBound</text>
<text text-anchor="middle" x="350.5" y="-152.5" font-family="FreeSans" font-size="10.00">myUpperBound</text>
</g>
<!-- Node12 -->
<g id="node12" class="node">
<title>Node12</title>
<g id="a_node12"><a xlink:href="classDGtal_1_1ImageContainerBySTLVector.html" target="_top" xlink:title=" ">
<polygon fill="white" stroke="black" points="811,-290.5 811,-320.5 986,-320.5 986,-290.5 811,-290.5"/>
<text text-anchor="start" x="819" y="-308.5" font-family="FreeSans" font-size="10.00">DGtal::ImageContainerBySTLVector</text>
<text text-anchor="middle" x="898.5" y="-297.5" font-family="FreeSans" font-size="10.00">&lt; TDomain, TValue &gt;</text>
</a>
</g>
</g>
<!-- Node9&#45;&gt;Node12 -->
<g id="edge20" class="edge">
<title>Node9&#45;&gt;Node12</title>
<path fill="none" stroke="#9a32cd" stroke-dasharray="5,2" d="M132.48,-230.2C170.93,-252.37 230.19,-283.17 286,-298.5 467.34,-348.31 690.48,-332.55 810.77,-318.1"/>
<polygon fill="#9a32cd" stroke="#9a32cd" points="134.05,-227.06 123.65,-225.04 130.52,-233.11 134.05,-227.06"/>
<text text-anchor="middle" x="469.5" y="-332.5" font-family="FreeSans" font-size="10.00"> myExtent</text>
</g>
<!-- Node10 -->
<g id="node10" class="node">
<title>Node10</title>
<g id="a_node10"><a xlink:href="structDGtal_1_1functors_1_1IsWithinPointPredicate.html" target="_top" xlink:title="Aim: The predicate returns true when the point is within the given bounds.">
<polygon fill="white" stroke="black" points="26,-0.5 26,-30.5 153,-30.5 153,-0.5 26,-0.5"/>
<text text-anchor="start" x="34" y="-18.5" font-family="FreeSans" font-size="10.00">DGtal::functors::IsWithin</text>
<text text-anchor="middle" x="89.5" y="-7.5" font-family="FreeSans" font-size="10.00">PointPredicate&lt; TPoint &gt;</text>
</a>
</g>
</g>
<!-- Node10&#45;&gt;Node8 -->
<g id="edge10" class="edge">
<title>Node10&#45;&gt;Node8</title>
<path fill="none" stroke="orange" stroke-dasharray="5,2" d="M163.24,-16.34C202.49,-16.8 250.42,-17.35 287.83,-17.79"/>
<polygon fill="orange" stroke="orange" points="163.24,-12.84 153.2,-16.23 163.16,-19.84 163.24,-12.84"/>
<text text-anchor="middle" x="232.5" y="-21.5" font-family="FreeSans" font-size="10.00"> &lt; Point &gt;</text>
</g>
<!-- Node11&#45;&gt;Node5 -->
<g id="edge12" class="edge">
<title>Node11&#45;&gt;Node5</title>
<path fill="none" stroke="orange" stroke-dasharray="5,2" d="M663.47,-119.86C715.44,-122.22 784.23,-125.35 833.76,-127.6"/>
<polygon fill="orange" stroke="orange" points="663.47,-116.36 653.32,-119.4 663.15,-123.35 663.47,-116.36"/>
<text text-anchor="middle" x="732" y="-128.5" font-family="FreeSans" font-size="10.00"> &lt; Space &gt;</text>
</g>
<!-- Node12&#45;&gt;Node2 -->
<g id="edge17" class="edge">
<title>Node12&#45;&gt;Node2</title>
<path fill="none" stroke="orange" stroke-dasharray="5,2" d="M996.39,-294.71C1031.18,-289.98 1070.56,-283.61 1106,-275.5 1126.77,-270.74 1149.37,-263.83 1168.22,-257.56"/>
<polygon fill="orange" stroke="orange" points="995.68,-291.28 986.23,-296.07 996.6,-298.21 995.68,-291.28"/>
<text text-anchor="middle" x="1055" y="-296.5" font-family="FreeSans" font-size="10.00"> &lt; Domain, Storage * &gt;</text>
</g>
<!-- Node13&#45;&gt;Node12 -->
<g id="edge18" class="edge">
<title>Node13&#45;&gt;Node12</title>
<path fill="none" stroke="midnightblue" d="M654.24,-301.55C699.71,-302.29 761.02,-303.28 810.72,-304.09"/>
<polygon fill="midnightblue" stroke="midnightblue" points="654.26,-298.05 644.21,-301.39 654.15,-305.05 654.26,-298.05"/>
</g>
</g>
</svg>
