<?xml version="1.0" encoding="UTF-8" standalone="no"?>
<!DOCTYPE svg PUBLIC "-//W3C//DTD SVG 1.1//EN"
 "http://www.w3.org/Graphics/SVG/1.1/DTD/svg11.dtd">
<!-- Generated by graphviz version 2.44.1 (20200629.0846)
 -->
<!-- Title: DGtal::AngleLinearMinimizerByRelaxation Pages: 1 -->
<svg width="149pt" height="174pt"
 viewBox="0.00 0.00 149.00 174.00" xmlns="http://www.w3.org/2000/svg" xmlns:xlink="http://www.w3.org/1999/xlink">
<g id="graph0" class="graph" transform="scale(1 1) rotate(0) translate(4 170)">
<title>DGtal::AngleLinearMinimizerByRelaxation</title>
<polygon fill="white" stroke="transparent" points="-4,4 -4,-170 145,-170 145,4 -4,4"/>
<!-- Node1 -->
<g id="node1" class="node">
<title>Node1</title>
<g id="a_node1"><a xlink:title=" ">
<polygon fill="#bfbfbf" stroke="black" points="0,-0.5 0,-30.5 141,-30.5 141,-0.5 0,-0.5"/>
<text text-anchor="start" x="8" y="-18.5" font-family="FreeSans" font-size="10.00">DGtal::AngleLinearMinimizer</text>
<text text-anchor="middle" x="70.5" y="-7.5" font-family="FreeSans" font-size="10.00">ByRelaxation</text>
</a>
</g>
</g>
<!-- Node2 -->
<g id="node2" class="node">
<title>Node2</title>
<g id="a_node2"><a xlink:href="classDGtal_1_1AngleLinearMinimizer.html" target="_top" xlink:title="Aim: Used to minimize the angle variation between different angles while taking into accounts min and...">
<polygon fill="white" stroke="black" points="0,-68.5 0,-87.5 141,-87.5 141,-68.5 0,-68.5"/>
<text text-anchor="middle" x="70.5" y="-75.5" font-family="FreeSans" font-size="10.00">DGtal::AngleLinearMinimizer</text>
</a>
</g>
</g>
<!-- Node2&#45;&gt;Node1 -->
<g id="edge1" class="edge">
<title>Node2&#45;&gt;Node1</title>
<path fill="none" stroke="midnightblue" d="M70.5,-58.22C70.5,-49.36 70.5,-38.96 70.5,-30.76"/>
<polygon fill="midnightblue" stroke="midnightblue" points="67,-58.33 70.5,-68.33 74,-58.33 67,-58.33"/>
</g>
<!-- Node3 -->
<g id="node3" class="node">
<title>Node3</title>
<g id="a_node3"><a xlink:href="structDGtal_1_1AngleLinearMinimizer_1_1ValueInfo.html" target="_top" xlink:title=" ">
<polygon fill="white" stroke="black" points="0,-135.5 0,-165.5 141,-165.5 141,-135.5 0,-135.5"/>
<text text-anchor="start" x="8" y="-153.5" font-family="FreeSans" font-size="10.00">DGtal::AngleLinearMinimizer</text>
<text text-anchor="middle" x="70.5" y="-142.5" font-family="FreeSans" font-size="10.00">::ValueInfo</text>
</a>
</g>
</g>
<!-- Node3&#45;&gt;Node2 -->
<g id="edge2" class="edge">
<title>Node3&#45;&gt;Node2</title>
<path fill="none" stroke="#9a32cd" stroke-dasharray="5,2" d="M70.5,-125.09C70.5,-112.21 70.5,-97.2 70.5,-87.89"/>
<polygon fill="#9a32cd" stroke="#9a32cd" points="67,-125.23 70.5,-135.23 74,-125.23 67,-125.23"/>
<text text-anchor="middle" x="93.5" y="-109" font-family="FreeSans" font-size="10.00"> myValues</text>
</g>
</g>
</svg>
