<?xml version="1.0" encoding="UTF-8" standalone="no"?>
<!DOCTYPE svg PUBLIC "-//W3C//DTD SVG 1.1//EN"
 "http://www.w3.org/Graphics/SVG/1.1/DTD/svg11.dtd">
<!-- Generated by graphviz version 2.44.1 (20200629.0846)
 -->
<!-- Title: DGtal::COBAGenericNaivePlaneComputer&lt; TSpace, TInternalInteger &gt; Pages: 1 -->
<!--zoomable 875 -->
<svg id="main" version="1.1" xmlns="http://www.w3.org/2000/svg" xmlns:xlink="http://www.w3.org/1999/xlink" xml:space="preserve" onload="init(evt)">
<style type="text/css"><![CDATA[
.edge:hover path { stroke: red; }
.edge:hover polygon { stroke: red; fill: red; }
]]></style>
<script type="text/javascript"><![CDATA[
var edges = document.getElementsByTagName('g');
if (edges && edges.length) {
  for (var i=0;i<edges.length;i++) {
    if (edges[i].id.substr(0,4)=='edge') {
      edges[i].setAttribute('class','edge');
    }
  }
}
]]></script>
        <defs>
                <circle id="rim" cx="0" cy="0" r="7"/>
                <circle id="rim2" cx="0" cy="0" r="3.5"/>
                <g id="zoomPlus">
                        <use xlink:href="#rim" fill="#404040">
                                <set attributeName="fill" to="#808080" begin="zoomplus.mouseover" end="zoomplus.mouseout"/>
                        </use>
                        <path d="M-4,0h8M0,-4v8" fill="none" stroke="white" stroke-width="1.5" pointer-events="none"/>
                </g>
                <g id="zoomMin">
                        <use xlink:href="#rim" fill="#404040">
                                <set attributeName="fill" to="#808080" begin="zoomminus.mouseover" end="zoomminus.mouseout"/>
                        </use>
                        <path d="M-4,0h8" fill="none" stroke="white" stroke-width="1.5" pointer-events="none"/>
                </g>
                <g id="dirArrow">
                        <path fill="none" stroke="white" stroke-width="1.5" d="M0,-3.0v7 M-2.5,-0.5L0,-3.0L2.5,-0.5"/>
                </g>
               <g id="resetDef">
                       <use xlink:href="#rim2" fill="#404040">
                               <set attributeName="fill" to="#808080" begin="reset.mouseover" end="reset.mouseout"/>
                       </use>
               </g>
        </defs>

<script type="text/javascript">
var viewWidth = 3041;
var viewHeight = 875;
var sectionId = 'dynsection-0';
</script>
<script xlink:href="svgpan.js"/>
<svg id="graph" class="graph">
<g id="viewport">
<title>DGtal::COBAGenericNaivePlaneComputer&lt; TSpace, TInternalInteger &gt;</title>
<polygon fill="white" stroke="transparent" points="-4,4 -4,-871 3037,-871 3037,4 -4,4"/>
<!-- Node1 -->
<g id="node1" class="node">
<title>Node1</title>
<g id="a_node1"><a xlink:title="Aim: A class that recognizes pieces of digital planes of given axis width. When the width is 1,...">
<polygon fill="#bfbfbf" stroke="black" points="2848,-1 2848,-31 3033,-31 3033,-1 2848,-1"/>
<text text-anchor="start" x="2856" y="-19" font-family="FreeSans" font-size="10.00">DGtal::COBAGenericNaivePlane</text>
<text text-anchor="middle" x="2940.5" y="-8" font-family="FreeSans" font-size="10.00">Computer&lt; TSpace, TInternalInteger &gt;</text>
</a>
</g>
</g>
<!-- Node2 -->
<g id="node2" class="node">
<title>Node2</title>
<g id="a_node2"><a xlink:href="classDGtal_1_1COBANaivePlaneComputer.html" target="_top" xlink:title=" ">
<polygon fill="white" stroke="black" points="2577,-89 2577,-119 2747,-119 2747,-89 2577,-89"/>
<text text-anchor="start" x="2585" y="-107" font-family="FreeSans" font-size="10.00">DGtal::COBANaivePlaneComputer</text>
<text text-anchor="middle" x="2662" y="-96" font-family="FreeSans" font-size="10.00">&lt; Space, InternalInteger &gt;</text>
</a>
</g>
</g>
<!-- Node2&#45;&gt;Node1 -->
<g id="edge1" class="edge">
<title>Node2&#45;&gt;Node1</title>
<path fill="none" stroke="#9a32cd" stroke-dasharray="5,2" d="M2720.06,-85.84C2770.87,-69.67 2844.34,-46.29 2892.01,-31.11"/>
<polygon fill="#9a32cd" stroke="#9a32cd" points="2718.69,-82.6 2710.22,-88.97 2720.81,-89.27 2718.69,-82.6"/>
<text text-anchor="middle" x="2797.5" y="-74" font-family="FreeSans" font-size="10.00"> myComputers</text>
</g>
<!-- Node3 -->
<g id="node3" class="node">
<title>Node3</title>
<g id="a_node3"><a xlink:title=" ">
<polygon fill="white" stroke="#bfbfbf" points="2032,-94.5 2032,-113.5 2122,-113.5 2122,-94.5 2032,-94.5"/>
<text text-anchor="middle" x="2077" y="-101.5" font-family="FreeSans" font-size="10.00">std::set&lt; Point &gt;</text>
</a>
</g>
</g>
<!-- Node3&#45;&gt;Node2 -->
<g id="edge2" class="edge">
<title>Node3&#45;&gt;Node2</title>
<path fill="none" stroke="#9a32cd" stroke-dasharray="5,2" d="M2123.47,-92C2158.57,-83.39 2208.48,-72.53 2253,-68 2369.37,-56.15 2504.65,-74.4 2586.49,-88.95"/>
<polygon fill="#9a32cd" stroke="#9a32cd" points="2122.39,-88.66 2113.53,-94.48 2124.08,-95.46 2122.39,-88.66"/>
<text text-anchor="middle" x="2338" y="-71" font-family="FreeSans" font-size="10.00"> myPointSet</text>
</g>
<!-- Node28 -->
<g id="node28" class="node">
<title>Node28</title>
<g id="a_node28"><a xlink:href="classDGtal_1_1COBANaivePlaneComputer.html" target="_top" xlink:title="Aim: A class that contains the COBA algorithm (Emilie Charrier, Lilian Buzer, DGCI2008) for recognizi...">
<polygon fill="white" stroke="black" points="2253,-89 2253,-119 2423,-119 2423,-89 2253,-89"/>
<text text-anchor="start" x="2261" y="-107" font-family="FreeSans" font-size="10.00">DGtal::COBANaivePlaneComputer</text>
<text text-anchor="middle" x="2338" y="-96" font-family="FreeSans" font-size="10.00">&lt; TSpace, TInternalInteger &gt;</text>
</a>
</g>
</g>
<!-- Node3&#45;&gt;Node28 -->
<g id="edge46" class="edge">
<title>Node3&#45;&gt;Node28</title>
<path fill="none" stroke="#9a32cd" stroke-dasharray="5,2" d="M2132.68,-104C2167.55,-104 2213.44,-104 2252.9,-104"/>
<polygon fill="#9a32cd" stroke="#9a32cd" points="2132.23,-100.5 2122.23,-104 2132.23,-107.5 2132.23,-100.5"/>
<text text-anchor="middle" x="2207.5" y="-107" font-family="FreeSans" font-size="10.00"> myPointSet</text>
</g>
<!-- Node4 -->
<g id="node4" class="node">
<title>Node4</title>
<g id="a_node4"><a xlink:href="classDGtal_1_1PointVector.html" target="_top" xlink:title="Aim: Implements basic operations that will be used in Point and Vector classes.">
<polygon fill="white" stroke="black" points="1072,-209.5 1072,-250.5 1191,-250.5 1191,-209.5 1072,-209.5"/>
<text text-anchor="start" x="1080" y="-238.5" font-family="FreeSans" font-size="10.00">DGtal::PointVector</text>
<text text-anchor="start" x="1080" y="-227.5" font-family="FreeSans" font-size="10.00">&lt; dim, TEuclideanRing,</text>
<text text-anchor="middle" x="1131.5" y="-216.5" font-family="FreeSans" font-size="10.00"> TContainer &gt;</text>
</a>
</g>
</g>
<!-- Node4&#45;&gt;Node2 -->
<g id="edge44" class="edge">
<title>Node4&#45;&gt;Node2</title>
<path fill="none" stroke="#9a32cd" stroke-dasharray="5,2" d="M1201.17,-247.86C1251.1,-259.3 1320.53,-272 1382.5,-272 1382.5,-272 1382.5,-272 2339,-272 2470.47,-272 2601.38,-160.56 2645.44,-119.21"/>
<polygon fill="#9a32cd" stroke="#9a32cd" points="1201.67,-244.38 1191.13,-245.52 1200.08,-251.2 1201.67,-244.38"/>
<text text-anchor="middle" x="1848" y="-286" font-family="FreeSans" font-size="10.00"> _grad</text>
<text text-anchor="middle" x="1848" y="-275" font-family="FreeSans" font-size="10.00">myWidth</text>
</g>
<!-- Node4&#45;&gt;Node3 -->
<g id="edge3" class="edge">
<title>Node4&#45;&gt;Node3</title>
<path fill="none" stroke="#9a32cd" stroke-dasharray="5,2" d="M1156.21,-202.07C1170.29,-187.39 1189.39,-170.52 1210,-161 1280.27,-128.53 1305.09,-137 1382.5,-137 1382.5,-137 1382.5,-137 1849,-137 1914.71,-137 1990.02,-123.29 2035.25,-113.54"/>
<polygon fill="#9a32cd" stroke="#9a32cd" points="1153.56,-199.78 1149.32,-209.49 1158.69,-204.54 1153.56,-199.78"/>
<text text-anchor="middle" x="1597" y="-140" font-family="FreeSans" font-size="10.00"> keys</text>
</g>
<!-- Node4&#45;&gt;Node4 -->
<g id="edge4" class="edge">
<title>Node4&#45;&gt;Node4</title>
<path fill="none" stroke="#9a32cd" stroke-dasharray="5,2" d="M1109.82,-260.86C1113.05,-265.7 1120.27,-269 1131.5,-269 1149.46,-269 1157.18,-260.54 1154.66,-250.86"/>
<polygon fill="#9a32cd" stroke="#9a32cd" points="1113.27,-260.24 1108.34,-250.86 1106.35,-261.27 1113.27,-260.24"/>
<text text-anchor="middle" x="1131.5" y="-272" font-family="FreeSans" font-size="10.00"> zero</text>
</g>
<!-- Node7 -->
<g id="node7" class="node">
<title>Node7</title>
<g id="a_node7"><a xlink:href="structDGtal_1_1COBANaivePlaneComputer_1_1State.html" target="_top" xlink:title=" ">
<polygon fill="white" stroke="black" points="1992,-155.5 1992,-196.5 2162,-196.5 2162,-155.5 1992,-155.5"/>
<text text-anchor="start" x="2000" y="-184.5" font-family="FreeSans" font-size="10.00">DGtal::COBANaivePlaneComputer</text>
<text text-anchor="start" x="2000" y="-173.5" font-family="FreeSans" font-size="10.00">&lt; TSpace, TInternalInteger</text>
<text text-anchor="middle" x="2077" y="-162.5" font-family="FreeSans" font-size="10.00"> &gt;::State</text>
</a>
</g>
</g>
<!-- Node4&#45;&gt;Node7 -->
<g id="edge43" class="edge">
<title>Node4&#45;&gt;Node7</title>
<path fill="none" stroke="#9a32cd" stroke-dasharray="5,2" d="M1201.5,-229.25C1345.45,-227.14 1688.15,-219.2 1974,-190 1979.78,-189.41 1985.73,-188.74 1991.73,-188.03"/>
<polygon fill="#9a32cd" stroke="#9a32cd" points="1201.02,-225.76 1191.07,-229.4 1201.12,-232.76 1201.02,-225.76"/>
<text text-anchor="middle" x="1597" y="-233" font-family="FreeSans" font-size="10.00"> ptMax</text>
<text text-anchor="middle" x="1597" y="-222" font-family="FreeSans" font-size="10.00">ptMin</text>
</g>
<!-- Node8 -->
<g id="node8" class="node">
<title>Node8</title>
<g id="a_node8"><a xlink:href="classDGtal_1_1PointVector.html" target="_top" xlink:title=" ">
<polygon fill="white" stroke="black" points="1329.5,-166 1329.5,-196 1437.5,-196 1437.5,-166 1329.5,-166"/>
<text text-anchor="start" x="1337.5" y="-184" font-family="FreeSans" font-size="10.00">DGtal::PointVector</text>
<text text-anchor="middle" x="1383.5" y="-173" font-family="FreeSans" font-size="10.00">&lt; 3, InternalInteger &gt;</text>
</a>
</g>
</g>
<!-- Node4&#45;&gt;Node8 -->
<g id="edge9" class="edge">
<title>Node4&#45;&gt;Node8</title>
<path fill="none" stroke="#9a32cd" stroke-dasharray="5,2" d="M1200.87,-207.24C1203.94,-206.44 1207,-205.69 1210,-205 1249.49,-195.95 1294.91,-189.8 1329.22,-185.99"/>
<polygon fill="#9a32cd" stroke="#9a32cd" points="1199.74,-203.92 1191.02,-209.94 1201.59,-210.67 1199.74,-203.92"/>
<text text-anchor="middle" x="1257.5" y="-208" font-family="FreeSans" font-size="10.00"> zero</text>
</g>
<!-- Node4&#45;&gt;Node8 -->
<g id="edge10" class="edge">
<title>Node4&#45;&gt;Node8</title>
<path fill="none" stroke="orange" stroke-dasharray="5,2" d="M1160.77,-202.96C1174.5,-191.67 1191.91,-179.85 1210,-174 1248.5,-161.55 1294.36,-164.17 1329.12,-169.44"/>
<polygon fill="orange" stroke="orange" points="1158.47,-200.32 1153.14,-209.49 1163.02,-205.64 1158.47,-200.32"/>
<text text-anchor="middle" x="1257.5" y="-177" font-family="FreeSans" font-size="10.00"> &lt; 3, InternalInteger &gt;</text>
</g>
<!-- Node9 -->
<g id="node9" class="node">
<title>Node9</title>
<g id="a_node9"><a xlink:href="classDGtal_1_1LatticePolytope2D.html" target="_top" xlink:title=" ">
<polygon fill="white" stroke="black" points="1784,-475 1784,-505 1912,-505 1912,-475 1784,-475"/>
<text text-anchor="start" x="1792" y="-493" font-family="FreeSans" font-size="10.00">DGtal::LatticePolytope2D</text>
<text text-anchor="middle" x="1848" y="-482" font-family="FreeSans" font-size="10.00">&lt; InternalSpace2 &gt;</text>
</a>
</g>
</g>
<!-- Node4&#45;&gt;Node9 -->
<g id="edge34" class="edge">
<title>Node4&#45;&gt;Node9</title>
<path fill="none" stroke="#9a32cd" stroke-dasharray="5,2" d="M1161.96,-257.28C1175.56,-268.21 1192.55,-279.68 1210,-286 1337.77,-332.24 1384.65,-268.63 1515,-307 1643.48,-344.82 1777.49,-438.15 1827.05,-474.84"/>
<polygon fill="#9a32cd" stroke="#9a32cd" points="1163.87,-254.32 1153.95,-250.59 1159.39,-259.69 1163.87,-254.32"/>
<text text-anchor="middle" x="1488.5" y="-420" font-family="FreeSans" font-size="10.00"> _A</text>
<text text-anchor="middle" x="1488.5" y="-409" font-family="FreeSans" font-size="10.00">_A1</text>
<text text-anchor="middle" x="1488.5" y="-398" font-family="FreeSans" font-size="10.00">_A2</text>
<text text-anchor="middle" x="1488.5" y="-387" font-family="FreeSans" font-size="10.00">_B</text>
<text text-anchor="middle" x="1488.5" y="-376" font-family="FreeSans" font-size="10.00">_B1</text>
<text text-anchor="middle" x="1488.5" y="-365" font-family="FreeSans" font-size="10.00">_B2</text>
<text text-anchor="middle" x="1488.5" y="-354" font-family="FreeSans" font-size="10.00">_DV</text>
<text text-anchor="middle" x="1488.5" y="-343" font-family="FreeSans" font-size="10.00">_N</text>
<text text-anchor="middle" x="1488.5" y="-332" font-family="FreeSans" font-size="10.00">_u</text>
<text text-anchor="middle" x="1488.5" y="-321" font-family="FreeSans" font-size="10.00">_v</text>
<text text-anchor="middle" x="1488.5" y="-310" font-family="FreeSans" font-size="10.00">...</text>
</g>
<!-- Node24 -->
<g id="node24" class="node">
<title>Node24</title>
<g id="a_node24"><a xlink:title=" ">
<polygon fill="white" stroke="#bfbfbf" points="1334.5,-496 1334.5,-526 1432.5,-526 1432.5,-496 1334.5,-496"/>
<text text-anchor="start" x="1342.5" y="-514" font-family="FreeSans" font-size="10.00">std::vector&lt; DGtal</text>
<text text-anchor="middle" x="1383.5" y="-503" font-family="FreeSans" font-size="10.00">::PointVector &gt;</text>
</a>
</g>
</g>
<!-- Node4&#45;&gt;Node24 -->
<g id="edge32" class="edge">
<title>Node4&#45;&gt;Node24</title>
<path fill="none" stroke="#9a32cd" stroke-dasharray="5,2" d="M1141.61,-260.29C1152.67,-291.76 1174.38,-340.11 1210,-367 1244.67,-393.18 1274.94,-358.64 1305,-390 1333.53,-419.76 1298.06,-448.17 1323,-481 1327.55,-486.99 1333.62,-491.87 1340.15,-495.82"/>
<polygon fill="#9a32cd" stroke="#9a32cd" points="1144.9,-259.08 1138.39,-250.71 1138.26,-261.31 1144.9,-259.08"/>
<text text-anchor="middle" x="1257.5" y="-393" font-family="FreeSans" font-size="10.00"> elements</text>
</g>
<!-- Node27 -->
<g id="node27" class="node">
<title>Node27</title>
<g id="a_node27"><a xlink:href="classDGtal_1_1LatticePolytope2D.html" target="_top" xlink:title="Aim: Represents a 2D polytope, i.e. a convex polygon, in the two&#45;dimensional digital plane....">
<polygon fill="white" stroke="black" points="1533,-515 1533,-545 1661,-545 1661,-515 1533,-515"/>
<text text-anchor="start" x="1541" y="-533" font-family="FreeSans" font-size="10.00">DGtal::LatticePolytope2D</text>
<text text-anchor="middle" x="1597" y="-522" font-family="FreeSans" font-size="10.00">&lt; TSpace, TSequence &gt;</text>
</a>
</g>
</g>
<!-- Node4&#45;&gt;Node27 -->
<g id="edge41" class="edge">
<title>Node4&#45;&gt;Node27</title>
<path fill="none" stroke="#9a32cd" stroke-dasharray="5,2" d="M1148.82,-259.23C1162.37,-280.65 1183.64,-308.58 1210,-324 1301.19,-377.37 1366.05,-294.67 1444,-366 1466.43,-386.53 1447.36,-405.35 1462,-432 1484.57,-473.09 1493.53,-484.71 1533,-510 1535.8,-511.8 1538.78,-513.44 1541.85,-514.95"/>
<polygon fill="#9a32cd" stroke="#9a32cd" points="1151.69,-257.22 1143.5,-250.51 1145.72,-260.87 1151.69,-257.22"/>
<text text-anchor="middle" x="1383.5" y="-479" font-family="FreeSans" font-size="10.00"> _A</text>
<text text-anchor="middle" x="1383.5" y="-468" font-family="FreeSans" font-size="10.00">_A1</text>
<text text-anchor="middle" x="1383.5" y="-457" font-family="FreeSans" font-size="10.00">_A2</text>
<text text-anchor="middle" x="1383.5" y="-446" font-family="FreeSans" font-size="10.00">_B</text>
<text text-anchor="middle" x="1383.5" y="-435" font-family="FreeSans" font-size="10.00">_B1</text>
<text text-anchor="middle" x="1383.5" y="-424" font-family="FreeSans" font-size="10.00">_B2</text>
<text text-anchor="middle" x="1383.5" y="-413" font-family="FreeSans" font-size="10.00">_DV</text>
<text text-anchor="middle" x="1383.5" y="-402" font-family="FreeSans" font-size="10.00">_N</text>
<text text-anchor="middle" x="1383.5" y="-391" font-family="FreeSans" font-size="10.00">_u</text>
<text text-anchor="middle" x="1383.5" y="-380" font-family="FreeSans" font-size="10.00">_v</text>
<text text-anchor="middle" x="1383.5" y="-369" font-family="FreeSans" font-size="10.00">...</text>
</g>
<!-- Node4&#45;&gt;Node28 -->
<g id="edge48" class="edge">
<title>Node4&#45;&gt;Node28</title>
<path fill="none" stroke="#9a32cd" stroke-dasharray="5,2" d="M1147.9,-200.68C1161.26,-178.25 1182.74,-148.44 1210,-132 1335.03,-56.6 1387.85,-87.88 1533,-72 1794.41,-43.41 2106.12,-74.17 2252.8,-92.45"/>
<polygon fill="#9a32cd" stroke="#9a32cd" points="1144.79,-199.07 1142.84,-209.48 1150.86,-202.56 1144.79,-199.07"/>
<text text-anchor="middle" x="1722.5" y="-76" font-family="FreeSans" font-size="10.00"> _grad</text>
<text text-anchor="middle" x="1722.5" y="-65" font-family="FreeSans" font-size="10.00">myWidth</text>
</g>
<!-- Node5 -->
<g id="node5" class="node">
<title>Node5</title>
<g id="a_node5"><a xlink:title="STL class.">
<polygon fill="white" stroke="#bfbfbf" points="1811,-89.5 1811,-108.5 1885,-108.5 1885,-89.5 1811,-89.5"/>
<text text-anchor="middle" x="1848" y="-96.5" font-family="FreeSans" font-size="10.00">std::set&lt; K &gt;</text>
</a>
</g>
</g>
<!-- Node5&#45;&gt;Node3 -->
<g id="edge5" class="edge">
<title>Node5&#45;&gt;Node3</title>
<path fill="none" stroke="orange" stroke-dasharray="5,2" d="M1895.22,-100.02C1935.13,-100.9 1992.4,-102.16 2031.73,-103.02"/>
<polygon fill="orange" stroke="orange" points="1895.29,-96.52 1885.22,-99.8 1895.14,-103.52 1895.29,-96.52"/>
<text text-anchor="middle" x="1952" y="-104" font-family="FreeSans" font-size="10.00"> &lt; Point &gt;</text>
</g>
<!-- Node6 -->
<g id="node6" class="node">
<title>Node6</title>
<g id="a_node6"><a xlink:title=" ">
<polygon fill="white" stroke="#bfbfbf" points="1582.5,-81.5 1582.5,-100.5 1611.5,-100.5 1611.5,-81.5 1582.5,-81.5"/>
<text text-anchor="middle" x="1597" y="-88.5" font-family="FreeSans" font-size="10.00">K</text>
</a>
</g>
</g>
<!-- Node6&#45;&gt;Node5 -->
<g id="edge6" class="edge">
<title>Node6&#45;&gt;Node5</title>
<path fill="none" stroke="#9a32cd" stroke-dasharray="5,2" d="M1622,-91.77C1665.78,-93.18 1758.88,-96.17 1810.54,-97.83"/>
<polygon fill="#9a32cd" stroke="#9a32cd" points="1621.85,-88.26 1611.74,-91.44 1621.62,-95.26 1621.85,-88.26"/>
<text text-anchor="middle" x="1722.5" y="-99" font-family="FreeSans" font-size="10.00"> keys</text>
</g>
<!-- Node7&#45;&gt;Node2 -->
<g id="edge7" class="edge">
<title>Node7&#45;&gt;Node2</title>
<path fill="none" stroke="#9a32cd" stroke-dasharray="5,2" d="M2172.42,-167.5C2193.06,-165.5 2214.77,-163.28 2235,-161 2379.29,-144.76 2415.16,-138.9 2559,-119 2564.85,-118.19 2570.89,-117.34 2576.97,-116.47"/>
<polygon fill="#9a32cd" stroke="#9a32cd" points="2172,-164.02 2162.39,-168.46 2172.67,-170.99 2172,-164.02"/>
<text text-anchor="middle" x="2338" y="-172" font-family="FreeSans" font-size="10.00"> _state</text>
<text text-anchor="middle" x="2338" y="-161" font-family="FreeSans" font-size="10.00">myState</text>
</g>
<!-- Node7&#45;&gt;Node28 -->
<g id="edge47" class="edge">
<title>Node7&#45;&gt;Node28</title>
<path fill="none" stroke="#9a32cd" stroke-dasharray="5,2" d="M2139.92,-152.1C2153.05,-147.44 2166.9,-142.82 2180,-139 2205.87,-131.46 2234.55,-124.63 2260.24,-119.05"/>
<polygon fill="#9a32cd" stroke="#9a32cd" points="2138.73,-148.81 2130.51,-155.49 2141.11,-155.39 2138.73,-148.81"/>
<text text-anchor="middle" x="2207.5" y="-153" font-family="FreeSans" font-size="10.00"> _state</text>
<text text-anchor="middle" x="2207.5" y="-142" font-family="FreeSans" font-size="10.00">myState</text>
</g>
<!-- Node8&#45;&gt;Node7 -->
<g id="edge8" class="edge">
<title>Node8&#45;&gt;Node7</title>
<path fill="none" stroke="#9a32cd" stroke-dasharray="5,2" d="M1447.79,-180.54C1572.87,-179.64 1851.7,-177.62 1991.99,-176.61"/>
<polygon fill="#9a32cd" stroke="#9a32cd" points="1447.59,-177.04 1437.61,-180.62 1447.64,-184.04 1447.59,-177.04"/>
<text text-anchor="middle" x="1722.5" y="-192" font-family="FreeSans" font-size="10.00"> N</text>
<text text-anchor="middle" x="1722.5" y="-181" font-family="FreeSans" font-size="10.00">centroid</text>
</g>
<!-- Node9&#45;&gt;Node7 -->
<g id="edge11" class="edge">
<title>Node9&#45;&gt;Node7</title>
<path fill="none" stroke="#9a32cd" stroke-dasharray="5,2" d="M1865.97,-466.53C1908.69,-407.43 2020.21,-253.17 2060.88,-196.92"/>
<polygon fill="#9a32cd" stroke="#9a32cd" points="1862.97,-464.7 1859.95,-474.86 1868.64,-468.8 1862.97,-464.7"/>
<text text-anchor="middle" x="1952" y="-373" font-family="FreeSans" font-size="10.00"> cip</text>
</g>
<!-- Node10 -->
<g id="node10" class="node">
<title>Node10</title>
<g id="a_node10"><a xlink:href="classDGtal_1_1IntegerComputer.html" target="_top" xlink:title=" ">
<polygon fill="white" stroke="black" points="1323,-561 1323,-591 1444,-591 1444,-561 1323,-561"/>
<text text-anchor="start" x="1331" y="-579" font-family="FreeSans" font-size="10.00">DGtal::IntegerComputer</text>
<text text-anchor="middle" x="1383.5" y="-568" font-family="FreeSans" font-size="10.00">&lt; Integer &gt;</text>
</a>
</g>
</g>
<!-- Node10&#45;&gt;Node9 -->
<g id="edge12" class="edge">
<title>Node10&#45;&gt;Node9</title>
<path fill="none" stroke="#9a32cd" stroke-dasharray="5,2" d="M1439.33,-593.58C1446.88,-595.4 1454.58,-596.97 1462,-598 1485.33,-601.25 1491.65,-601.11 1515,-598 1629.57,-582.76 1657.9,-570.89 1766,-530 1784.48,-523.01 1804.39,-513.21 1819.85,-505.06"/>
<polygon fill="#9a32cd" stroke="#9a32cd" points="1440.1,-590.16 1429.54,-591.05 1438.35,-596.94 1440.1,-590.16"/>
<text text-anchor="middle" x="1597" y="-598" font-family="FreeSans" font-size="10.00"> _ic</text>
</g>
<!-- Node10&#45;&gt;Node27 -->
<g id="edge39" class="edge">
<title>Node10&#45;&gt;Node27</title>
<path fill="none" stroke="#9a32cd" stroke-dasharray="5,2" d="M1441.7,-558.2C1448.51,-556.32 1455.39,-554.54 1462,-553 1484.99,-547.64 1510.46,-542.95 1532.97,-539.24"/>
<polygon fill="#9a32cd" stroke="#9a32cd" points="1440.48,-554.91 1431.81,-560.99 1442.38,-561.64 1440.48,-554.91"/>
<text text-anchor="middle" x="1488.5" y="-556" font-family="FreeSans" font-size="10.00"> _ic</text>
</g>
<!-- Node11 -->
<g id="node11" class="node">
<title>Node11</title>
<g id="a_node11"><a xlink:title=" ">
<polygon fill="white" stroke="#bfbfbf" points="796,-447.5 796,-466.5 907,-466.5 907,-447.5 796,-447.5"/>
<text text-anchor="middle" x="851.5" y="-454.5" font-family="FreeSans" font-size="10.00">std::vector&lt; Integer &gt;</text>
</a>
</g>
</g>
<!-- Node11&#45;&gt;Node10 -->
<g id="edge13" class="edge">
<title>Node11&#45;&gt;Node10</title>
<path fill="none" stroke="#9a32cd" stroke-dasharray="5,2" d="M917.45,-457.62C956.95,-458.96 1008.23,-462.43 1053,-471 1161.8,-491.82 1284.92,-537.17 1345.21,-560.88"/>
<polygon fill="#9a32cd" stroke="#9a32cd" points="917.52,-454.12 907.42,-457.32 917.31,-461.12 917.52,-454.12"/>
<text text-anchor="middle" x="1131.5" y="-509" font-family="FreeSans" font-size="10.00"> _m_bezout</text>
</g>
<!-- Node21 -->
<g id="node21" class="node">
<title>Node21</title>
<g id="a_node21"><a xlink:href="classDGtal_1_1IntegerComputer.html" target="_top" xlink:title="Aim: This class gathers several types and methods to make computation with integers.">
<polygon fill="white" stroke="black" points="1071,-543 1071,-573 1192,-573 1192,-543 1071,-543"/>
<text text-anchor="start" x="1079" y="-561" font-family="FreeSans" font-size="10.00">DGtal::IntegerComputer</text>
<text text-anchor="middle" x="1131.5" y="-550" font-family="FreeSans" font-size="10.00">&lt; TInteger &gt;</text>
</a>
</g>
</g>
<!-- Node11&#45;&gt;Node21 -->
<g id="edge25" class="edge">
<title>Node11&#45;&gt;Node21</title>
<path fill="none" stroke="#9a32cd" stroke-dasharray="5,2" d="M917.14,-467.11C973.34,-476.03 1046.76,-488.06 1053,-491 1079.22,-503.36 1103.47,-527.14 1117.63,-542.79"/>
<polygon fill="#9a32cd" stroke="#9a32cd" points="917.64,-463.64 907.22,-465.53 916.55,-470.56 917.64,-463.64"/>
<text text-anchor="middle" x="989" y="-494" font-family="FreeSans" font-size="10.00"> _m_bezout</text>
</g>
<!-- Node12 -->
<g id="node12" class="node">
<title>Node12</title>
<g id="a_node12"><a xlink:title="STL class.">
<polygon fill="white" stroke="#bfbfbf" points="578,-424.5 578,-443.5 665,-443.5 665,-424.5 578,-424.5"/>
<text text-anchor="middle" x="621.5" y="-431.5" font-family="FreeSans" font-size="10.00">std::vector&lt; T &gt;</text>
</a>
</g>
</g>
<!-- Node12&#45;&gt;Node11 -->
<g id="edge14" class="edge">
<title>Node12&#45;&gt;Node11</title>
<path fill="none" stroke="orange" stroke-dasharray="5,2" d="M675.47,-439.34C711.66,-442.99 759.48,-447.82 795.99,-451.5"/>
<polygon fill="orange" stroke="orange" points="675.42,-435.82 665.12,-438.3 674.72,-442.79 675.42,-435.82"/>
<text text-anchor="middle" x="741.5" y="-452" font-family="FreeSans" font-size="10.00"> &lt; Integer &gt;</text>
</g>
<!-- Node12&#45;&gt;Node24 -->
<g id="edge33" class="edge">
<title>Node12&#45;&gt;Node24</title>
<path fill="none" stroke="orange" stroke-dasharray="5,2" d="M675.64,-431.66C757.16,-428.81 917.82,-426.17 1053,-442 1115.68,-449.34 1130.23,-458.07 1192,-471 1240.46,-481.14 1295.84,-492.78 1334.35,-500.87"/>
<polygon fill="orange" stroke="orange" points="675.02,-428.18 665.15,-432.04 675.27,-435.17 675.02,-428.18"/>
<text text-anchor="middle" x="989" y="-445" font-family="FreeSans" font-size="10.00"> &lt; DGtal::PointVector &gt;</text>
</g>
<!-- Node29 -->
<g id="node29" class="node">
<title>Node29</title>
<g id="a_node29"><a xlink:title=" ">
<polygon fill="white" stroke="#bfbfbf" points="925,-85.5 925,-104.5 1053,-104.5 1053,-85.5 925,-85.5"/>
<text text-anchor="middle" x="989" y="-92.5" font-family="FreeSans" font-size="10.00">std::vector&lt; Dimension &gt;</text>
</a>
</g>
</g>
<!-- Node12&#45;&gt;Node29 -->
<g id="edge50" class="edge">
<title>Node12&#45;&gt;Node29</title>
<path fill="none" stroke="orange" stroke-dasharray="5,2" d="M640.49,-417.31C705.4,-357.11 926.36,-152.17 977.41,-104.82"/>
<polygon fill="orange" stroke="orange" points="638,-414.85 633.04,-424.22 642.76,-419.99 638,-414.85"/>
<text text-anchor="middle" x="741.5" y="-357" font-family="FreeSans" font-size="10.00"> &lt; Dimension &gt;</text>
</g>
<!-- Node13 -->
<g id="node13" class="node">
<title>Node13</title>
<g id="a_node13"><a xlink:title=" ">
<polygon fill="white" stroke="#bfbfbf" points="315,-467.5 315,-486.5 344,-486.5 344,-467.5 315,-467.5"/>
<text text-anchor="middle" x="329.5" y="-474.5" font-family="FreeSans" font-size="10.00">T</text>
</a>
</g>
</g>
<!-- Node13&#45;&gt;Node12 -->
<g id="edge15" class="edge">
<title>Node13&#45;&gt;Node12</title>
<path fill="none" stroke="#9a32cd" stroke-dasharray="5,2" d="M354.03,-473.51C402.85,-466.27 515.78,-449.53 577.8,-440.33"/>
<polygon fill="#9a32cd" stroke="#9a32cd" points="353.48,-470.05 344.1,-474.98 354.5,-476.98 353.48,-470.05"/>
<text text-anchor="middle" x="475" y="-467" font-family="FreeSans" font-size="10.00"> elements</text>
</g>
<!-- Node26 -->
<g id="node26" class="node">
<title>Node26</title>
<g id="a_node26"><a xlink:title="STL class.">
<polygon fill="white" stroke="#bfbfbf" points="705,-506.5 705,-525.5 778,-525.5 778,-506.5 705,-506.5"/>
<text text-anchor="middle" x="741.5" y="-513.5" font-family="FreeSans" font-size="10.00">std::list&lt; T &gt;</text>
</a>
</g>
</g>
<!-- Node13&#45;&gt;Node26 -->
<g id="edge37" class="edge">
<title>Node13&#45;&gt;Node26</title>
<path fill="none" stroke="#9a32cd" stroke-dasharray="5,2" d="M354.4,-479.27C423.34,-485.83 622.89,-504.81 704.78,-512.6"/>
<polygon fill="#9a32cd" stroke="#9a32cd" points="354.43,-475.76 344.14,-478.3 353.77,-482.73 354.43,-475.76"/>
<text text-anchor="middle" x="475" y="-499" font-family="FreeSans" font-size="10.00"> elements</text>
</g>
<!-- Node14 -->
<g id="node14" class="node">
<title>Node14</title>
<g id="a_node14"><a xlink:href="classDGtal_1_1SpaceND.html" target="_top" xlink:title=" ">
<polygon fill="white" stroke="black" points="797.5,-682 797.5,-712 905.5,-712 905.5,-682 797.5,-682"/>
<text text-anchor="start" x="805.5" y="-700" font-family="FreeSans" font-size="10.00">DGtal::SpaceND&lt; 2,</text>
<text text-anchor="middle" x="851.5" y="-689" font-family="FreeSans" font-size="10.00"> Integer &gt;</text>
</a>
</g>
</g>
<!-- Node14&#45;&gt;Node10 -->
<g id="edge16" class="edge">
<title>Node14&#45;&gt;Node10</title>
<path fill="none" stroke="#9a32cd" stroke-dasharray="5,2" d="M893.3,-715.76C903.45,-719.58 914.45,-723.03 925,-725 980.93,-735.42 999.82,-745.22 1053,-725 1063,-721.2 1061.96,-714.73 1071,-709 1157.78,-653.97 1271.24,-612.1 1334.51,-591.06"/>
<polygon fill="#9a32cd" stroke="#9a32cd" points="894.46,-712.46 883.88,-712.02 891.88,-718.97 894.46,-712.46"/>
<text text-anchor="middle" x="1131.5" y="-734" font-family="FreeSans" font-size="10.00"> _m_v</text>
<text text-anchor="middle" x="1131.5" y="-723" font-family="FreeSans" font-size="10.00">_m_v0</text>
<text text-anchor="middle" x="1131.5" y="-712" font-family="FreeSans" font-size="10.00">_m_v1</text>
</g>
<!-- Node14&#45;&gt;Node21 -->
<g id="edge30" class="edge">
<title>Node14&#45;&gt;Node21</title>
<path fill="none" stroke="#9a32cd" stroke-dasharray="5,2" d="M915.73,-691.78C970.64,-686.67 1042.93,-678.3 1053,-669 1080.1,-643.99 1048.35,-617.11 1071,-588 1075.69,-581.97 1081.91,-577.06 1088.57,-573.09"/>
<polygon fill="#9a32cd" stroke="#9a32cd" points="915.34,-688.3 905.7,-692.7 915.97,-695.27 915.34,-688.3"/>
<text text-anchor="middle" x="989" y="-715" font-family="FreeSans" font-size="10.00"> _m_v</text>
<text text-anchor="middle" x="989" y="-704" font-family="FreeSans" font-size="10.00">_m_v0</text>
<text text-anchor="middle" x="989" y="-693" font-family="FreeSans" font-size="10.00">_m_v1</text>
</g>
<!-- Node15 -->
<g id="node15" class="node">
<title>Node15</title>
<g id="a_node15"><a xlink:href="classDGtal_1_1SpaceND.html" target="_top" xlink:title=" ">
<polygon fill="white" stroke="black" points="562,-682 562,-712 681,-712 681,-682 562,-682"/>
<text text-anchor="start" x="570" y="-700" font-family="FreeSans" font-size="10.00">DGtal::SpaceND&lt; dim,</text>
<text text-anchor="middle" x="621.5" y="-689" font-family="FreeSans" font-size="10.00"> TInteger &gt;</text>
</a>
</g>
</g>
<!-- Node15&#45;&gt;Node14 -->
<g id="edge17" class="edge">
<title>Node15&#45;&gt;Node14</title>
<path fill="none" stroke="orange" stroke-dasharray="5,2" d="M691.55,-697C725.55,-697 765.9,-697 797.44,-697"/>
<polygon fill="orange" stroke="orange" points="691.22,-693.5 681.22,-697 691.22,-700.5 691.22,-693.5"/>
<text text-anchor="middle" x="741.5" y="-700" font-family="FreeSans" font-size="10.00"> &lt; 2, Integer &gt;</text>
</g>
<!-- Node16 -->
<g id="node16" class="node">
<title>Node16</title>
<g id="a_node16"><a xlink:href="structDGtal_1_1NumberTraits.html" target="_top" xlink:title=" ">
<polygon fill="white" stroke="black" points="798,-742 798,-772 905,-772 905,-742 798,-742"/>
<text text-anchor="start" x="806" y="-760" font-family="FreeSans" font-size="10.00">DGtal::NumberTraits</text>
<text text-anchor="middle" x="851.5" y="-749" font-family="FreeSans" font-size="10.00">&lt; Integer &gt;</text>
</a>
</g>
</g>
<!-- Node16&#45;&gt;Node10 -->
<g id="edge18" class="edge">
<title>Node16&#45;&gt;Node10</title>
<path fill="none" stroke="#9a32cd" stroke-dasharray="5,2" d="M915.06,-766.22C985.2,-773.87 1101.02,-778.39 1192,-742 1213.03,-733.59 1324.08,-630.74 1366.25,-591.28"/>
<polygon fill="#9a32cd" stroke="#9a32cd" points="915.38,-762.73 905.05,-765.07 914.58,-769.68 915.38,-762.73"/>
<text text-anchor="middle" x="1131.5" y="-859" font-family="FreeSans" font-size="10.00"> _m_a</text>
<text text-anchor="middle" x="1131.5" y="-848" font-family="FreeSans" font-size="10.00">_m_a0</text>
<text text-anchor="middle" x="1131.5" y="-837" font-family="FreeSans" font-size="10.00">_m_a1</text>
<text text-anchor="middle" x="1131.5" y="-826" font-family="FreeSans" font-size="10.00">_m_b</text>
<text text-anchor="middle" x="1131.5" y="-815" font-family="FreeSans" font-size="10.00">_m_c0</text>
<text text-anchor="middle" x="1131.5" y="-804" font-family="FreeSans" font-size="10.00">_m_c1</text>
<text text-anchor="middle" x="1131.5" y="-793" font-family="FreeSans" font-size="10.00">_m_c2</text>
<text text-anchor="middle" x="1131.5" y="-782" font-family="FreeSans" font-size="10.00">_m_q</text>
<text text-anchor="middle" x="1131.5" y="-771" font-family="FreeSans" font-size="10.00">_m_r</text>
</g>
<!-- Node17 -->
<g id="node17" class="node">
<title>Node17</title>
<g id="a_node17"><a xlink:href="structDGtal_1_1NumberTraitsImpl.html" target="_top" xlink:title=" ">
<polygon fill="white" stroke="black" points="412,-725.5 412,-766.5 538,-766.5 538,-725.5 412,-725.5"/>
<text text-anchor="start" x="420" y="-754.5" font-family="FreeSans" font-size="10.00">DGtal::NumberTraitsImpl</text>
<text text-anchor="start" x="420" y="-743.5" font-family="FreeSans" font-size="10.00">&lt; std::decay&lt; Integer</text>
<text text-anchor="middle" x="475" y="-732.5" font-family="FreeSans" font-size="10.00"> &gt;::type &gt;</text>
</a>
</g>
</g>
<!-- Node17&#45;&gt;Node16 -->
<g id="edge19" class="edge">
<title>Node17&#45;&gt;Node16</title>
<path fill="none" stroke="midnightblue" d="M548.31,-748.12C621.41,-750.27 732.62,-753.54 797.78,-755.45"/>
<polygon fill="midnightblue" stroke="midnightblue" points="548.36,-744.62 538.26,-747.83 548.15,-751.62 548.36,-744.62"/>
</g>
<!-- Node18 -->
<g id="node18" class="node">
<title>Node18</title>
<g id="a_node18"><a xlink:href="structDGtal_1_1NumberTraitsImpl.html" target="_top" xlink:title="Aim: The traits class for all models of Cinteger (implementation)">
<polygon fill="white" stroke="black" points="0,-642 0,-672 126,-672 126,-642 0,-642"/>
<text text-anchor="start" x="8" y="-660" font-family="FreeSans" font-size="10.00">DGtal::NumberTraitsImpl</text>
<text text-anchor="middle" x="63" y="-649" font-family="FreeSans" font-size="10.00">&lt; T, Enable &gt;</text>
</a>
</g>
</g>
<!-- Node18&#45;&gt;Node17 -->
<g id="edge20" class="edge">
<title>Node18&#45;&gt;Node17</title>
<path fill="none" stroke="orange" stroke-dasharray="5,2" d="M116.59,-675.13C125.67,-677.96 135.07,-680.71 144,-683 236.22,-706.69 345.02,-725.79 411.75,-736.51"/>
<polygon fill="orange" stroke="orange" points="117.48,-671.74 106.89,-672.04 115.35,-678.41 117.48,-671.74"/>
<text text-anchor="start" x="147" y="-720" font-family="FreeSans" font-size="10.00"> &lt; std::decay&lt; Integer</text>
<text text-anchor="middle" x="195.5" y="-709" font-family="FreeSans" font-size="10.00"> &gt;::type &gt;</text>
</g>
<!-- Node20 -->
<g id="node20" class="node">
<title>Node20</title>
<g id="a_node20"><a xlink:href="structDGtal_1_1NumberTraitsImpl.html" target="_top" xlink:title=" ">
<polygon fill="white" stroke="black" points="265,-642 265,-672 394,-672 394,-642 265,-642"/>
<text text-anchor="start" x="273" y="-660" font-family="FreeSans" font-size="10.00">DGtal::NumberTraitsImpl</text>
<text text-anchor="middle" x="329.5" y="-649" font-family="FreeSans" font-size="10.00">&lt; std::decay&lt; T &gt;::type &gt;</text>
</a>
</g>
</g>
<!-- Node18&#45;&gt;Node20 -->
<g id="edge23" class="edge">
<title>Node18&#45;&gt;Node20</title>
<path fill="none" stroke="orange" stroke-dasharray="5,2" d="M136.27,-657C176.39,-657 225.87,-657 264.58,-657"/>
<polygon fill="orange" stroke="orange" points="136.01,-653.5 126.01,-657 136.01,-660.5 136.01,-653.5"/>
<text text-anchor="start" x="151.5" y="-671" font-family="FreeSans" font-size="10.00"> &lt; std::decay&lt; T &gt;::</text>
<text text-anchor="middle" x="195.5" y="-660" font-family="FreeSans" font-size="10.00">type &gt;</text>
</g>
<!-- Node23 -->
<g id="node23" class="node">
<title>Node23</title>
<g id="a_node23"><a xlink:href="structDGtal_1_1NumberTraitsImpl.html" target="_top" xlink:title=" ">
<polygon fill="white" stroke="black" points="412,-591.5 412,-632.5 538,-632.5 538,-591.5 412,-591.5"/>
<text text-anchor="start" x="420" y="-620.5" font-family="FreeSans" font-size="10.00">DGtal::NumberTraitsImpl</text>
<text text-anchor="start" x="420" y="-609.5" font-family="FreeSans" font-size="10.00">&lt; std::decay&lt; TInteger</text>
<text text-anchor="middle" x="475" y="-598.5" font-family="FreeSans" font-size="10.00"> &gt;::type &gt;</text>
</a>
</g>
</g>
<!-- Node18&#45;&gt;Node23 -->
<g id="edge28" class="edge">
<title>Node18&#45;&gt;Node23</title>
<path fill="none" stroke="orange" stroke-dasharray="5,2" d="M112.89,-638.92C123.05,-635.79 133.78,-632.92 144,-631 236.21,-613.66 345.24,-610.72 412,-610.86"/>
<polygon fill="orange" stroke="orange" points="111.8,-635.6 103.35,-641.99 113.95,-642.26 111.8,-635.6"/>
<text text-anchor="start" x="144" y="-645" font-family="FreeSans" font-size="10.00"> &lt; std::decay&lt; TInteger</text>
<text text-anchor="middle" x="195.5" y="-634" font-family="FreeSans" font-size="10.00"> &gt;::type &gt;</text>
</g>
<!-- Node19 -->
<g id="node19" class="node">
<title>Node19</title>
<g id="a_node19"><a xlink:href="structDGtal_1_1NumberTraits.html" target="_top" xlink:title="Aim: The traits class for all models of Cinteger.">
<polygon fill="white" stroke="black" points="556,-643.5 556,-662.5 687,-662.5 687,-643.5 556,-643.5"/>
<text text-anchor="middle" x="621.5" y="-650.5" font-family="FreeSans" font-size="10.00">DGtal::NumberTraits&lt; T &gt;</text>
</a>
</g>
</g>
<!-- Node19&#45;&gt;Node16 -->
<g id="edge21" class="edge">
<title>Node19&#45;&gt;Node16</title>
<path fill="none" stroke="orange" stroke-dasharray="5,2" d="M678.75,-667.19C681.67,-668.91 684.45,-670.84 687,-673 700.64,-684.58 691.39,-697.39 705,-709 730.88,-731.07 745.7,-721.34 778,-732 787.48,-735.13 797.63,-738.57 807.24,-741.87"/>
<polygon fill="orange" stroke="orange" points="680.11,-663.96 669.6,-662.63 676.98,-670.22 680.11,-663.96"/>
<text text-anchor="middle" x="741.5" y="-735" font-family="FreeSans" font-size="10.00"> &lt; Integer &gt;</text>
</g>
<!-- Node22 -->
<g id="node22" class="node">
<title>Node22</title>
<g id="a_node22"><a xlink:href="structDGtal_1_1NumberTraits.html" target="_top" xlink:title=" ">
<polygon fill="white" stroke="black" points="798,-597 798,-627 905,-627 905,-597 798,-597"/>
<text text-anchor="start" x="806" y="-615" font-family="FreeSans" font-size="10.00">DGtal::NumberTraits</text>
<text text-anchor="middle" x="851.5" y="-604" font-family="FreeSans" font-size="10.00">&lt; TInteger &gt;</text>
</a>
</g>
</g>
<!-- Node19&#45;&gt;Node22 -->
<g id="edge29" class="edge">
<title>Node19&#45;&gt;Node22</title>
<path fill="none" stroke="orange" stroke-dasharray="5,2" d="M685.58,-641.66C720.91,-635.3 764.44,-627.48 797.91,-621.46"/>
<polygon fill="orange" stroke="orange" points="684.6,-638.28 675.38,-643.49 685.84,-645.17 684.6,-638.28"/>
<text text-anchor="middle" x="741.5" y="-640" font-family="FreeSans" font-size="10.00"> &lt; TInteger &gt;</text>
</g>
<!-- Node20&#45;&gt;Node19 -->
<g id="edge22" class="edge">
<title>Node20&#45;&gt;Node19</title>
<path fill="none" stroke="midnightblue" d="M404.21,-655.98C450.95,-655.34 510.85,-654.51 555.75,-653.89"/>
<polygon fill="midnightblue" stroke="midnightblue" points="404.09,-652.48 394.14,-656.12 404.19,-659.48 404.09,-652.48"/>
</g>
<!-- Node21&#45;&gt;Node10 -->
<g id="edge24" class="edge">
<title>Node21&#45;&gt;Node10</title>
<path fill="none" stroke="orange" stroke-dasharray="5,2" d="M1202.52,-563.04C1240.44,-565.77 1286.79,-569.11 1322.96,-571.71"/>
<polygon fill="orange" stroke="orange" points="1202.29,-559.52 1192.06,-562.29 1201.79,-566.5 1202.29,-559.52"/>
<text text-anchor="middle" x="1257.5" y="-573" font-family="FreeSans" font-size="10.00"> &lt; Integer &gt;</text>
</g>
<!-- Node22&#45;&gt;Node21 -->
<g id="edge26" class="edge">
<title>Node22&#45;&gt;Node21</title>
<path fill="none" stroke="#9a32cd" stroke-dasharray="5,2" d="M880.94,-591.38C893.76,-583.2 909.49,-574.66 925,-570 972.58,-555.71 1029.07,-553.4 1070.78,-554.28"/>
<polygon fill="#9a32cd" stroke="#9a32cd" points="878.97,-588.49 872.56,-596.93 882.83,-594.32 878.97,-588.49"/>
<text text-anchor="middle" x="989" y="-661" font-family="FreeSans" font-size="10.00"> _m_a</text>
<text text-anchor="middle" x="989" y="-650" font-family="FreeSans" font-size="10.00">_m_a0</text>
<text text-anchor="middle" x="989" y="-639" font-family="FreeSans" font-size="10.00">_m_a1</text>
<text text-anchor="middle" x="989" y="-628" font-family="FreeSans" font-size="10.00">_m_b</text>
<text text-anchor="middle" x="989" y="-617" font-family="FreeSans" font-size="10.00">_m_c0</text>
<text text-anchor="middle" x="989" y="-606" font-family="FreeSans" font-size="10.00">_m_c1</text>
<text text-anchor="middle" x="989" y="-595" font-family="FreeSans" font-size="10.00">_m_c2</text>
<text text-anchor="middle" x="989" y="-584" font-family="FreeSans" font-size="10.00">_m_q</text>
<text text-anchor="middle" x="989" y="-573" font-family="FreeSans" font-size="10.00">_m_r</text>
</g>
<!-- Node23&#45;&gt;Node22 -->
<g id="edge27" class="edge">
<title>Node23&#45;&gt;Node22</title>
<path fill="none" stroke="midnightblue" d="M548.31,-612C621.41,-612 732.62,-612 797.78,-612"/>
<polygon fill="midnightblue" stroke="midnightblue" points="548.26,-608.5 538.26,-612 548.26,-615.5 548.26,-608.5"/>
</g>
<!-- Node24&#45;&gt;Node9 -->
<g id="edge31" class="edge">
<title>Node24&#45;&gt;Node9</title>
<path fill="none" stroke="#9a32cd" stroke-dasharray="5,2" d="M1442.83,-497.89C1470.07,-492.41 1503.03,-486.7 1533,-484 1619.61,-476.19 1720.19,-480.44 1783.71,-484.76"/>
<polygon fill="#9a32cd" stroke="#9a32cd" points="1441.78,-494.53 1432.69,-499.97 1443.19,-501.39 1441.78,-494.53"/>
<text text-anchor="middle" x="1597" y="-498" font-family="FreeSans" font-size="10.00"> _inPts</text>
<text text-anchor="middle" x="1597" y="-487" font-family="FreeSans" font-size="10.00">_outPts</text>
</g>
<!-- Node24&#45;&gt;Node27 -->
<g id="edge40" class="edge">
<title>Node24&#45;&gt;Node27</title>
<path fill="none" stroke="#9a32cd" stroke-dasharray="5,2" d="M1442.86,-505.8C1465.47,-504.79 1491.53,-504.87 1515,-508 1526.12,-509.48 1537.88,-512.06 1548.89,-514.95"/>
<polygon fill="#9a32cd" stroke="#9a32cd" points="1442.53,-502.31 1432.73,-506.33 1442.9,-509.3 1442.53,-502.31"/>
<text text-anchor="middle" x="1488.5" y="-522" font-family="FreeSans" font-size="10.00"> _inPts</text>
<text text-anchor="middle" x="1488.5" y="-511" font-family="FreeSans" font-size="10.00">_outPts</text>
</g>
<!-- Node25 -->
<g id="node25" class="node">
<title>Node25</title>
<g id="a_node25"><a xlink:title=" ">
<polygon fill="white" stroke="#bfbfbf" points="1333,-644 1333,-674 1434,-674 1434,-644 1333,-644"/>
<text text-anchor="start" x="1341" y="-662" font-family="FreeSans" font-size="10.00">std::list&lt; typename</text>
<text text-anchor="middle" x="1383.5" y="-651" font-family="FreeSans" font-size="10.00"> TSpace::Point &gt;</text>
</a>
</g>
</g>
<!-- Node25&#45;&gt;Node9 -->
<g id="edge35" class="edge">
<title>Node25&#45;&gt;Node9</title>
<path fill="none" stroke="#9a32cd" stroke-dasharray="5,2" d="M1444.44,-653.22C1501.24,-646.62 1588.43,-633.55 1661,-610 1710.35,-593.99 1722.57,-587.38 1766,-559 1790.74,-542.83 1816.2,-519.92 1831.81,-505.01"/>
<polygon fill="#9a32cd" stroke="#9a32cd" points="1443.74,-649.78 1434.2,-654.38 1444.53,-656.73 1443.74,-649.78"/>
<text text-anchor="middle" x="1597" y="-642" font-family="FreeSans" font-size="10.00"> myVertices</text>
</g>
<!-- Node25&#45;&gt;Node27 -->
<g id="edge42" class="edge">
<title>Node25&#45;&gt;Node27</title>
<path fill="none" stroke="#9a32cd" stroke-dasharray="5,2" d="M1417.78,-638.7C1460.35,-612.74 1533.11,-568.36 1571.15,-545.15"/>
<polygon fill="#9a32cd" stroke="#9a32cd" points="1415.89,-635.75 1409.18,-643.95 1419.54,-641.73 1415.89,-635.75"/>
<text text-anchor="middle" x="1488.5" y="-612" font-family="FreeSans" font-size="10.00"> myVertices</text>
</g>
<!-- Node26&#45;&gt;Node25 -->
<g id="edge36" class="edge">
<title>Node26&#45;&gt;Node25</title>
<path fill="none" stroke="orange" stroke-dasharray="5,2" d="M788.44,-510.91C865.33,-503.47 1015.37,-493.95 1053,-528 1095.93,-566.84 1027.45,-618.86 1071,-657 1146.06,-722.74 1274.73,-694.76 1340.74,-674"/>
<polygon fill="orange" stroke="orange" points="787.7,-507.46 778.1,-511.94 788.39,-514.43 787.7,-507.46"/>
<text text-anchor="start" x="940" y="-542" font-family="FreeSans" font-size="10.00"> &lt; typename TSpace::</text>
<text text-anchor="middle" x="989" y="-531" font-family="FreeSans" font-size="10.00">Point &gt;</text>
</g>
<!-- Node27&#45;&gt;Node9 -->
<g id="edge38" class="edge">
<title>Node27&#45;&gt;Node9</title>
<path fill="none" stroke="orange" stroke-dasharray="5,2" d="M1671.06,-518.26C1706.86,-512.51 1749.55,-505.65 1783.91,-500.13"/>
<polygon fill="orange" stroke="orange" points="1670.47,-514.81 1661.16,-519.85 1671.58,-521.72 1670.47,-514.81"/>
<text text-anchor="middle" x="1722.5" y="-518" font-family="FreeSans" font-size="10.00"> &lt; InternalSpace2 &gt;</text>
</g>
<!-- Node28&#45;&gt;Node2 -->
<g id="edge45" class="edge">
<title>Node28&#45;&gt;Node2</title>
<path fill="none" stroke="orange" stroke-dasharray="5,2" d="M2433.33,-104C2478.74,-104 2532.74,-104 2576.75,-104"/>
<polygon fill="orange" stroke="orange" points="2433.18,-100.5 2423.18,-104 2433.18,-107.5 2433.18,-100.5"/>
<text text-anchor="middle" x="2500" y="-107" font-family="FreeSans" font-size="10.00"> &lt; Space, InternalInteger &gt;</text>
</g>
<!-- Node29&#45;&gt;Node1 -->
<g id="edge49" class="edge">
<title>Node29&#45;&gt;Node1</title>
<path fill="none" stroke="#9a32cd" stroke-dasharray="5,2" d="M1014.06,-80.1C1059.6,-53.36 1162.26,0 1256.5,0 1256.5,0 1256.5,0 2663,0 2724.67,0 2793.94,-4.02 2847.73,-8.02"/>
<polygon fill="#9a32cd" stroke="#9a32cd" points="1012.03,-77.23 1005.24,-85.37 1015.62,-83.24 1012.03,-77.23"/>
<text text-anchor="middle" x="1848" y="-14" font-family="FreeSans" font-size="10.00"> _axesToErase</text>
<text text-anchor="middle" x="1848" y="-3" font-family="FreeSans" font-size="10.00">myAxes</text>
</g>
</g>
</svg>
        <g id="navigator" transform="translate(0 0)" fill="#404254">
                <rect fill="#f2f5e9" fill-opacity="0.5" stroke="#606060" stroke-width=".5" x="0" y="0" width="60" height="60"/>
                <use id="zoomplus" xlink:href="#zoomPlus" x="17" y="9" onmousedown="handleZoom(evt,'in')"/>
                <use id="zoomminus" xlink:href="#zoomMin" x="42" y="9" onmousedown="handleZoom(evt,'out')"/>
                <use id="reset" xlink:href="#resetDef" x="30" y="36" onmousedown="handleReset()"/>
                <g id="arrowUp" xlink:href="#dirArrow" transform="translate(30 24)" onmousedown="handlePan(0,-1)">
                  <use xlink:href="#rim" fill="#404040">
                        <set attributeName="fill" to="#808080" begin="arrowUp.mouseover" end="arrowUp.mouseout"/>
                  </use>
                  <path fill="none" stroke="white" stroke-width="1.5" d="M0,-3.0v7 M-2.5,-0.5L0,-3.0L2.5,-0.5"/>
                </g>
                <g id="arrowRight" xlink:href="#dirArrow" transform="rotate(90) translate(36 -43)" onmousedown="handlePan(1,0)">
                  <use xlink:href="#rim" fill="#404040">
                        <set attributeName="fill" to="#808080" begin="arrowRight.mouseover" end="arrowRight.mouseout"/>
                  </use>
                  <path fill="none" stroke="white" stroke-width="1.5" d="M0,-3.0v7 M-2.5,-0.5L0,-3.0L2.5,-0.5"/>
                </g>
                <g id="arrowDown" xlink:href="#dirArrow" transform="rotate(180) translate(-30 -48)" onmousedown="handlePan(0,1)">
                  <use xlink:href="#rim" fill="#404040">
                        <set attributeName="fill" to="#808080" begin="arrowDown.mouseover" end="arrowDown.mouseout"/>
                  </use>
                  <path fill="none" stroke="white" stroke-width="1.5" d="M0,-3.0v7 M-2.5,-0.5L0,-3.0L2.5,-0.5"/>
                </g>
                <g id="arrowLeft" xlink:href="#dirArrow" transform="rotate(270) translate(-36 17)" onmousedown="handlePan(-1,0)">
                  <use xlink:href="#rim" fill="#404040">
                        <set attributeName="fill" to="#808080" begin="arrowLeft.mouseover" end="arrowLeft.mouseout"/>
                  </use>
                  <path fill="none" stroke="white" stroke-width="1.5" d="M0,-3.0v7 M-2.5,-0.5L0,-3.0L2.5,-0.5"/>
                </g>
        </g>
        <svg viewBox="0 0 15 15" width="100%" height="30px" preserveAspectRatio="xMaxYMin meet">
         <g id="arrow_out" transform="scale(0.3 0.3)">
          <a xlink:href="classDGtal_1_1COBAGenericNaivePlaneComputer__coll__graph_org.svg" target="_base">
           <rect id="button" ry="5" rx="5" y="6" x="6" height="38" width="38"
                fill="#f2f5e9" fill-opacity="0.5" stroke="#606060" stroke-width="1.0"/>
           <path id="arrow"
             d="M 11.500037,31.436501 C 11.940474,20.09759 22.043105,11.32322 32.158766,21.979434 L 37.068811,17.246167 C 37.068811,17.246167 37.088388,32 37.088388,32 L 22.160133,31.978069 C 22.160133,31.978069 26.997745,27.140456 26.997745,27.140456 C 18.528582,18.264221 13.291696,25.230495 11.500037,31.436501 z"
             style="fill:#404040;"/>
          </a>
         </g>
        </svg>
</svg>
