<?xml version="1.0" encoding="UTF-8" standalone="no"?>
<!DOCTYPE svg PUBLIC "-//W3C//DTD SVG 1.1//EN"
 "http://www.w3.org/Graphics/SVG/1.1/DTD/svg11.dtd">
<!-- Generated by graphviz version 2.44.1 (20200629.0846)
 -->
<!-- Title: DGtal::StabbingCircleComputer&lt; TConstIterator &gt; Pages: 1 -->
<svg width="1131pt" height="140pt"
 viewBox="0.00 0.00 1131.00 139.50" xmlns="http://www.w3.org/2000/svg" xmlns:xlink="http://www.w3.org/1999/xlink">
<g id="graph0" class="graph" transform="scale(1 1) rotate(0) translate(4 135.5)">
<title>DGtal::StabbingCircleComputer&lt; TConstIterator &gt;</title>
<polygon fill="white" stroke="transparent" points="-4,4 -4,-135.5 1127,-135.5 1127,4 -4,4"/>
<!-- Node1 -->
<g id="node1" class="node">
<title>Node1</title>
<g id="a_node1"><a xlink:title="Aim: On&#45;line recognition of a digital circular arcs (DCA) defined as a sequence of connected grid edg...">
<polygon fill="#bfbfbf" stroke="black" points="968,-24.5 968,-54.5 1123,-54.5 1123,-24.5 968,-24.5"/>
<text text-anchor="start" x="976" y="-42.5" font-family="FreeSans" font-size="10.00">DGtal::StabbingCircleComputer</text>
<text text-anchor="middle" x="1045.5" y="-31.5" font-family="FreeSans" font-size="10.00">&lt; TConstIterator &gt;</text>
</a>
</g>
</g>
<!-- Node2 -->
<g id="node2" class="node">
<title>Node2</title>
<g id="a_node2"><a xlink:href="classDGtal_1_1CowPtr.html" target="_top" xlink:title=" ">
<polygon fill="white" stroke="black" points="739,-49.5 739,-79.5 885,-79.5 885,-49.5 739,-49.5"/>
<text text-anchor="start" x="747" y="-67.5" font-family="FreeSans" font-size="10.00">DGtal::CowPtr&lt; StabbingLine</text>
<text text-anchor="middle" x="812" y="-56.5" font-family="FreeSans" font-size="10.00">Computer&lt; ConstIterator &gt; &gt;</text>
</a>
</g>
</g>
<!-- Node2&#45;&gt;Node1 -->
<g id="edge1" class="edge">
<title>Node2&#45;&gt;Node1</title>
<path fill="none" stroke="#9a32cd" stroke-dasharray="5,2" d="M895.3,-55.61C918.95,-53.06 944.65,-50.28 967.95,-47.77"/>
<polygon fill="#9a32cd" stroke="#9a32cd" points="894.86,-52.14 885.3,-56.69 895.61,-59.1 894.86,-52.14"/>
<text text-anchor="middle" x="926.5" y="-56.5" font-family="FreeSans" font-size="10.00"> mySegPtr</text>
</g>
<!-- Node3 -->
<g id="node3" class="node">
<title>Node3</title>
<g id="a_node3"><a xlink:href="classDGtal_1_1CountedPtr.html" target="_top" xlink:title=" ">
<polygon fill="white" stroke="black" points="467,-90 467,-131 586,-131 586,-90 467,-90"/>
<text text-anchor="start" x="475" y="-119" font-family="FreeSans" font-size="10.00">DGtal::CountedPtr&lt;</text>
<text text-anchor="start" x="475" y="-108" font-family="FreeSans" font-size="10.00"> StabbingLineComputer</text>
<text text-anchor="middle" x="526.5" y="-97" font-family="FreeSans" font-size="10.00">&lt; ConstIterator &gt; &gt;</text>
</a>
</g>
</g>
<!-- Node3&#45;&gt;Node2 -->
<g id="edge2" class="edge">
<title>Node3&#45;&gt;Node2</title>
<path fill="none" stroke="#9a32cd" stroke-dasharray="5,2" d="M596.4,-103.92C633.48,-99.89 679.91,-94.04 721,-86.5 731.6,-84.55 742.82,-82.12 753.6,-79.59"/>
<polygon fill="#9a32cd" stroke="#9a32cd" points="595.77,-100.47 586.2,-105.01 596.51,-107.43 595.77,-100.47"/>
<text text-anchor="middle" x="665" y="-104.5" font-family="FreeSans" font-size="10.00"> myPtr</text>
</g>
<!-- Node4 -->
<g id="node4" class="node">
<title>Node4</title>
<g id="a_node4"><a xlink:href="structDGtal_1_1CountedPtr_1_1Counter.html" target="_top" xlink:title=" ">
<polygon fill="white" stroke="black" points="0,-92.5 0,-122.5 104,-122.5 104,-92.5 0,-92.5"/>
<text text-anchor="start" x="8" y="-110.5" font-family="FreeSans" font-size="10.00">DGtal::CountedPtr&lt;</text>
<text text-anchor="middle" x="52" y="-99.5" font-family="FreeSans" font-size="10.00"> T &gt;::Counter</text>
</a>
</g>
</g>
<!-- Node4&#45;&gt;Node3 -->
<g id="edge3" class="edge">
<title>Node4&#45;&gt;Node3</title>
<path fill="none" stroke="#9a32cd" stroke-dasharray="5,2" d="M114.31,-113.06C116.91,-113.23 119.48,-113.37 122,-113.5 264.93,-120.73 300.98,-121.76 444,-116.5 451.37,-116.23 459.11,-115.82 466.77,-115.34"/>
<polygon fill="#9a32cd" stroke="#9a32cd" points="114.43,-109.56 104.22,-112.37 113.95,-116.55 114.43,-109.56"/>
<text text-anchor="middle" x="253" y="-122.5" font-family="FreeSans" font-size="10.00"> myCounter</text>
</g>
<!-- Node5 -->
<g id="node5" class="node">
<title>Node5</title>
<g id="a_node5"><a xlink:href="classDGtal_1_1CountedPtr.html" target="_top" xlink:title="Aim: Smart pointer based on reference counts.">
<polygon fill="white" stroke="black" points="192,-75 192,-94 314,-94 314,-75 192,-75"/>
<text text-anchor="middle" x="253" y="-82" font-family="FreeSans" font-size="10.00">DGtal::CountedPtr&lt; T &gt;</text>
</a>
</g>
</g>
<!-- Node4&#45;&gt;Node5 -->
<g id="edge5" class="edge">
<title>Node4&#45;&gt;Node5</title>
<path fill="none" stroke="#9a32cd" stroke-dasharray="5,2" d="M114.2,-100.43C138.85,-97.58 167.19,-94.3 191.74,-91.47"/>
<polygon fill="#9a32cd" stroke="#9a32cd" points="113.78,-96.95 104.25,-101.58 114.58,-103.91 113.78,-96.95"/>
<text text-anchor="middle" x="148" y="-101.5" font-family="FreeSans" font-size="10.00"> myCounter</text>
</g>
<!-- Node5&#45;&gt;Node3 -->
<g id="edge4" class="edge">
<title>Node5&#45;&gt;Node3</title>
<path fill="none" stroke="orange" stroke-dasharray="5,2" d="M324.46,-85.84C360.35,-87.12 404.62,-89.62 444,-94.5 451.44,-95.42 459.22,-96.63 466.9,-97.97"/>
<polygon fill="orange" stroke="orange" points="324.2,-82.33 314.09,-85.49 323.97,-89.32 324.2,-82.33"/>
<text text-anchor="start" x="332" y="-108.5" font-family="FreeSans" font-size="10.00"> &lt; StabbingLineComputer</text>
<text text-anchor="middle" x="388" y="-97.5" font-family="FreeSans" font-size="10.00">&lt; ConstIterator &gt; &gt;</text>
</g>
<!-- Node6 -->
<g id="node6" class="node">
<title>Node6</title>
<g id="a_node6"><a xlink:href="classDGtal_1_1CowPtr.html" target="_top" xlink:title="Aim: Copy on write shared pointer.">
<polygon fill="white" stroke="black" points="474,-52 474,-71 579,-71 579,-52 474,-52"/>
<text text-anchor="middle" x="526.5" y="-59" font-family="FreeSans" font-size="10.00">DGtal::CowPtr&lt; T &gt;</text>
</a>
</g>
</g>
<!-- Node6&#45;&gt;Node2 -->
<g id="edge6" class="edge">
<title>Node6&#45;&gt;Node2</title>
<path fill="none" stroke="orange" stroke-dasharray="5,2" d="M589.17,-62.15C633.22,-62.62 692.63,-63.25 738.88,-63.74"/>
<polygon fill="orange" stroke="orange" points="589.21,-58.65 579.17,-62.05 589.13,-65.65 589.21,-58.65"/>
<text text-anchor="start" x="609" y="-77.5" font-family="FreeSans" font-size="10.00"> &lt; StabbingLineComputer</text>
<text text-anchor="middle" x="665" y="-66.5" font-family="FreeSans" font-size="10.00">&lt; ConstIterator &gt; &gt;</text>
</g>
<!-- Node7 -->
<g id="node7" class="node">
<title>Node7</title>
<g id="a_node7"><a xlink:href="classDGtal_1_1CircleFrom3Points.html" target="_top" xlink:title=" ">
<polygon fill="white" stroke="black" points="747.5,-0.5 747.5,-30.5 876.5,-30.5 876.5,-0.5 747.5,-0.5"/>
<text text-anchor="start" x="755.5" y="-18.5" font-family="FreeSans" font-size="10.00">DGtal::CircleFrom3Points</text>
<text text-anchor="middle" x="812" y="-7.5" font-family="FreeSans" font-size="10.00">&lt; Point &gt;</text>
</a>
</g>
</g>
<!-- Node7&#45;&gt;Node1 -->
<g id="edge7" class="edge">
<title>Node7&#45;&gt;Node1</title>
<path fill="none" stroke="#9a32cd" stroke-dasharray="5,2" d="M887.01,-21.45C907.44,-23.24 929.59,-25.31 950,-27.5 955.84,-28.13 961.87,-28.81 967.94,-29.52"/>
<polygon fill="#9a32cd" stroke="#9a32cd" points="887.09,-17.95 876.83,-20.57 886.49,-24.92 887.09,-17.95"/>
<text text-anchor="middle" x="926.5" y="-30.5" font-family="FreeSans" font-size="10.00"> myCircle</text>
</g>
<!-- Node8 -->
<g id="node8" class="node">
<title>Node8</title>
<g id="a_node8"><a xlink:href="classDGtal_1_1CircleFrom3Points.html" target="_top" xlink:title="Aim: Represents a circle uniquely defined by three 2D points and that is able to return for any given...">
<polygon fill="white" stroke="black" points="462,-0.5 462,-30.5 591,-30.5 591,-0.5 462,-0.5"/>
<text text-anchor="start" x="470" y="-18.5" font-family="FreeSans" font-size="10.00">DGtal::CircleFrom3Points</text>
<text text-anchor="middle" x="526.5" y="-7.5" font-family="FreeSans" font-size="10.00">&lt; TPoint &gt;</text>
</a>
</g>
</g>
<!-- Node8&#45;&gt;Node7 -->
<g id="edge8" class="edge">
<title>Node8&#45;&gt;Node7</title>
<path fill="none" stroke="orange" stroke-dasharray="5,2" d="M601.17,-15.5C646.41,-15.5 703.78,-15.5 747.1,-15.5"/>
<polygon fill="orange" stroke="orange" points="601.12,-12 591.12,-15.5 601.12,-19 601.12,-12"/>
<text text-anchor="middle" x="665" y="-18.5" font-family="FreeSans" font-size="10.00"> &lt; Point &gt;</text>
</g>
</g>
</svg>
