<?xml version="1.0" encoding="UTF-8" standalone="no"?>
<!DOCTYPE svg PUBLIC "-//W3C//DTD SVG 1.1//EN"
 "http://www.w3.org/Graphics/SVG/1.1/DTD/svg11.dtd">
<!-- Generated by graphviz version 2.44.1 (20200629.0846)
 -->
<!-- Title: DGtal::ImplicitRoundedHyperCube&lt; TSpace &gt; Pages: 1 -->
<svg width="180pt" height="128pt"
 viewBox="0.00 0.00 180.00 128.00" xmlns="http://www.w3.org/2000/svg" xmlns:xlink="http://www.w3.org/1999/xlink">
<g id="graph0" class="graph" transform="scale(1 1) rotate(0) translate(4 124)">
<title>DGtal::ImplicitRoundedHyperCube&lt; TSpace &gt;</title>
<polygon fill="white" stroke="transparent" points="-4,4 -4,-124 176,-124 176,4 -4,4"/>
<!-- Node1 -->
<g id="node1" class="node">
<title>Node1</title>
<g id="a_node1"><a xlink:title="Aim: model of CEuclideanOrientedShape and CEuclideanBoundedShape concepts to create a rounded hypercu...">
<polygon fill="#bfbfbf" stroke="black" points="0,-0.5 0,-30.5 145,-30.5 145,-0.5 0,-0.5"/>
<text text-anchor="start" x="8" y="-18.5" font-family="FreeSans" font-size="10.00">DGtal::ImplicitRoundedHyper</text>
<text text-anchor="middle" x="72.5" y="-7.5" font-family="FreeSans" font-size="10.00">Cube&lt; TSpace &gt;</text>
</a>
</g>
</g>
<!-- Node2 -->
<g id="node2" class="node">
<title>Node2</title>
<g id="a_node2"><a xlink:href="classDGtal_1_1PointVector.html" target="_top" xlink:title="Aim: Implements basic operations that will be used in Point and Vector classes.">
<polygon fill="white" stroke="black" points="13,-78.5 13,-119.5 132,-119.5 132,-78.5 13,-78.5"/>
<text text-anchor="start" x="21" y="-107.5" font-family="FreeSans" font-size="10.00">DGtal::PointVector</text>
<text text-anchor="start" x="21" y="-96.5" font-family="FreeSans" font-size="10.00">&lt; dim, TEuclideanRing,</text>
<text text-anchor="middle" x="72.5" y="-85.5" font-family="FreeSans" font-size="10.00"> TContainer &gt;</text>
</a>
</g>
</g>
<!-- Node2&#45;&gt;Node1 -->
<g id="edge1" class="edge">
<title>Node2&#45;&gt;Node1</title>
<path fill="none" stroke="#9a32cd" stroke-dasharray="5,2" d="M72.5,-68.03C72.5,-55.26 72.5,-40.97 72.5,-30.68"/>
<polygon fill="#9a32cd" stroke="#9a32cd" points="69,-68.27 72.5,-78.27 76,-68.27 69,-68.27"/>
<text text-anchor="middle" x="95.5" y="-52" font-family="FreeSans" font-size="10.00"> myCenter</text>
</g>
<!-- Node2&#45;&gt;Node2 -->
<g id="edge2" class="edge">
<title>Node2&#45;&gt;Node2</title>
<path fill="none" stroke="#9a32cd" stroke-dasharray="5,2" d="M142.48,-104.92C147.16,-103.55 150,-101.58 150,-99 150,-94.88 142.73,-92.3 132.29,-91.27"/>
<polygon fill="#9a32cd" stroke="#9a32cd" points="141.52,-101.54 132.29,-106.73 142.75,-108.43 141.52,-101.54"/>
<text text-anchor="middle" x="161" y="-96.5" font-family="FreeSans" font-size="10.00"> zero</text>
</g>
</g>
</svg>
