<?xml version="1.0" encoding="UTF-8" standalone="no"?>
<!DOCTYPE svg PUBLIC "-//W3C//DTD SVG 1.1//EN"
 "http://www.w3.org/Graphics/SVG/1.1/DTD/svg11.dtd">
<!-- Generated by graphviz version 2.44.1 (20200629.0846)
 -->
<!-- Title: DGtal::Color Pages: 1 -->
<svg width="135pt" height="129pt"
 viewBox="0.00 0.00 135.00 129.00" xmlns="http://www.w3.org/2000/svg" xmlns:xlink="http://www.w3.org/1999/xlink">
<g id="graph0" class="graph" transform="scale(1 1) rotate(0) translate(4 125)">
<title>DGtal::Color</title>
<polygon fill="white" stroke="transparent" points="-4,4 -4,-125 131,-125 131,4 -4,4"/>
<!-- Node1 -->
<g id="node1" class="node">
<title>Node1</title>
<g id="a_node1"><a xlink:title="Structure representing an RGB triple with alpha component.">
<polygon fill="#bfbfbf" stroke="black" points="0,-51 0,-70 71,-70 71,-51 0,-51"/>
<text text-anchor="middle" x="35.5" y="-58" font-family="FreeSans" font-size="10.00">DGtal::Color</text>
</a>
</g>
</g>
<!-- Node1&#45;&gt;Node1 -->
<g id="edge1" class="edge">
<title>Node1&#45;&gt;Node1</title>
<path fill="none" stroke="#9a32cd" stroke-dasharray="5,2" d="M81.28,-63.59C85.99,-62.98 89,-61.95 89,-60.5 89,-58.18 81.29,-56.93 71.25,-56.77"/>
<polygon fill="#9a32cd" stroke="#9a32cd" points="81.01,-60.1 71.25,-64.23 81.46,-67.09 81.01,-60.1"/>
<text text-anchor="middle" x="108" y="-113" font-family="FreeSans" font-size="10.00"> Aqua</text>
<text text-anchor="middle" x="108" y="-102" font-family="FreeSans" font-size="10.00">Black</text>
<text text-anchor="middle" x="108" y="-91" font-family="FreeSans" font-size="10.00">Blue</text>
<text text-anchor="middle" x="108" y="-80" font-family="FreeSans" font-size="10.00">Cyan</text>
<text text-anchor="middle" x="108" y="-69" font-family="FreeSans" font-size="10.00">Gray</text>
<text text-anchor="middle" x="108" y="-58" font-family="FreeSans" font-size="10.00">Green</text>
<text text-anchor="middle" x="108" y="-47" font-family="FreeSans" font-size="10.00">Lime</text>
<text text-anchor="middle" x="108" y="-36" font-family="FreeSans" font-size="10.00">Magenta</text>
<text text-anchor="middle" x="108" y="-25" font-family="FreeSans" font-size="10.00">Navy</text>
<text text-anchor="middle" x="108" y="-14" font-family="FreeSans" font-size="10.00">None</text>
<text text-anchor="middle" x="108" y="-3" font-family="FreeSans" font-size="10.00">...</text>
</g>
</g>
</svg>
