<?xml version="1.0" encoding="UTF-8" standalone="no"?>
<!DOCTYPE svg PUBLIC "-//W3C//DTD SVG 1.1//EN"
 "http://www.w3.org/Graphics/SVG/1.1/DTD/svg11.dtd">
<!-- Generated by graphviz version 2.44.1 (20200629.0846)
 -->
<!-- Title: DGtal::OneBalancedWordComputer&lt; TConstIterator, TInteger &gt;::CodeHandler&lt; TIterator, iterator_type &gt; Pages: 1 -->
<svg width="467pt" height="61pt"
 viewBox="0.00 0.00 467.00 61.00" xmlns="http://www.w3.org/2000/svg" xmlns:xlink="http://www.w3.org/1999/xlink">
<g id="graph0" class="graph" transform="scale(1 1) rotate(0) translate(4 57)">
<title>DGtal::OneBalancedWordComputer&lt; TConstIterator, TInteger &gt;::CodeHandler&lt; TIterator, iterator_type &gt;</title>
<polygon fill="white" stroke="transparent" points="-4,4 -4,-57 463,-57 463,4 -4,4"/>
<!-- Node1 -->
<g id="node1" class="node">
<title>Node1</title>
<g id="a_node1"><a xlink:title=" ">
<polygon fill="#bfbfbf" stroke="black" points="0,-0.5 0,-52.5 172,-52.5 172,-0.5 0,-0.5"/>
<text text-anchor="start" x="8" y="-40.5" font-family="FreeSans" font-size="10.00">DGtal::OneBalancedWordComputer</text>
<text text-anchor="start" x="8" y="-29.5" font-family="FreeSans" font-size="10.00">&lt; TConstIterator, TInteger</text>
<text text-anchor="start" x="8" y="-18.5" font-family="FreeSans" font-size="10.00"> &gt;::CodeHandler&lt; TIterator,</text>
<text text-anchor="middle" x="86" y="-7.5" font-family="FreeSans" font-size="10.00"> iterator_type &gt;</text>
</a>
</g>
</g>
<!-- Node2 -->
<g id="node2" class="node">
<title>Node2</title>
<g id="a_node2"><a xlink:href="classDGtal_1_1OneBalancedWordComputer_1_1CodeHandler.html" target="_top" xlink:title=" ">
<polygon fill="white" stroke="black" points="287,-6 287,-47 459,-47 459,-6 287,-6"/>
<text text-anchor="start" x="295" y="-35" font-family="FreeSans" font-size="10.00">DGtal::OneBalancedWordComputer</text>
<text text-anchor="start" x="295" y="-24" font-family="FreeSans" font-size="10.00">&lt; TConstIterator, TInteger</text>
<text text-anchor="middle" x="373" y="-13" font-family="FreeSans" font-size="10.00"> &gt;::CodeHandler&lt; ConstIterator &gt;</text>
</a>
</g>
</g>
<!-- Node1&#45;&gt;Node2 -->
<g id="edge1" class="edge">
<title>Node1&#45;&gt;Node2</title>
<path fill="none" stroke="orange" stroke-dasharray="5,2" d="M182.47,-26.5C216.23,-26.5 253.97,-26.5 286.82,-26.5"/>
<polygon fill="orange" stroke="orange" points="182.12,-23 172.12,-26.5 182.12,-30 182.12,-23"/>
<text text-anchor="middle" x="229.5" y="-29.5" font-family="FreeSans" font-size="10.00"> &lt; ConstIterator &gt;</text>
</g>
</g>
</svg>
