<?xml version="1.0" encoding="UTF-8" standalone="no"?>
<!DOCTYPE svg PUBLIC "-//W3C//DTD SVG 1.1//EN"
 "http://www.w3.org/Graphics/SVG/1.1/DTD/svg11.dtd">
<!-- Generated by graphviz version 2.44.1 (20200629.0846)
 -->
<!-- Title: DGtal::IVector&lt; T, TAlloc, usePointers &gt; Pages: 1 -->
<svg width="197pt" height="240pt"
 viewBox="0.00 0.00 197.00 240.00" xmlns="http://www.w3.org/2000/svg" xmlns:xlink="http://www.w3.org/1999/xlink">
<g id="graph0" class="graph" transform="scale(1 1) rotate(0) translate(4 236)">
<title>DGtal::IVector&lt; T, TAlloc, usePointers &gt;</title>
<polygon fill="white" stroke="transparent" points="-4,4 -4,-236 193,-236 193,4 -4,4"/>
<!-- Node1 -->
<g id="node1" class="node">
<title>Node1</title>
<g id="a_node1"><a xlink:title=" ">
<polygon fill="#bfbfbf" stroke="black" points="0,-0.5 0,-30.5 113,-30.5 113,-0.5 0,-0.5"/>
<text text-anchor="start" x="8" y="-18.5" font-family="FreeSans" font-size="10.00">DGtal::IVector&lt; T,</text>
<text text-anchor="middle" x="56.5" y="-7.5" font-family="FreeSans" font-size="10.00"> TAlloc, usePointers &gt;</text>
</a>
</g>
</g>
<!-- Node2 -->
<g id="node2" class="node">
<title>Node2</title>
<g id="a_node2"><a xlink:title=" ">
<polygon fill="white" stroke="#bfbfbf" points="0,-78.5 0,-97.5 113,-97.5 113,-78.5 0,-78.5"/>
<text text-anchor="middle" x="56.5" y="-85.5" font-family="FreeSans" font-size="10.00">std::vector&lt; T, Alloc &gt;</text>
</a>
</g>
</g>
<!-- Node2&#45;&gt;Node1 -->
<g id="edge1" class="edge">
<title>Node2&#45;&gt;Node1</title>
<path fill="none" stroke="#9a32cd" stroke-dasharray="5,2" d="M56.5,-68.24C56.5,-56.41 56.5,-41.38 56.5,-30.58"/>
<polygon fill="#9a32cd" stroke="#9a32cd" points="53,-68.36 56.5,-78.36 60,-68.36 53,-68.36"/>
<text text-anchor="middle" x="73.5" y="-52" font-family="FreeSans" font-size="10.00"> myVec</text>
</g>
<!-- Node3 -->
<g id="node3" class="node">
<title>Node3</title>
<g id="a_node3"><a xlink:title=" ">
<polygon fill="white" stroke="#bfbfbf" points="42,-212.5 42,-231.5 71,-231.5 71,-212.5 42,-212.5"/>
<text text-anchor="middle" x="56.5" y="-219.5" font-family="FreeSans" font-size="10.00">T</text>
</a>
</g>
</g>
<!-- Node3&#45;&gt;Node2 -->
<g id="edge2" class="edge">
<title>Node3&#45;&gt;Node2</title>
<path fill="none" stroke="#9a32cd" stroke-dasharray="5,2" d="M53.99,-202.29C52.66,-191.42 51.17,-177.46 50.5,-165 49.2,-140.68 52.87,-112.06 55.03,-97.88"/>
<polygon fill="#9a32cd" stroke="#9a32cd" points="50.53,-202.82 55.28,-212.29 57.47,-201.93 50.53,-202.82"/>
<text text-anchor="middle" x="72" y="-152.5" font-family="FreeSans" font-size="10.00"> elements</text>
</g>
<!-- Node4 -->
<g id="node4" class="node">
<title>Node4</title>
<g id="a_node4"><a xlink:title="STL class.">
<polygon fill="white" stroke="#bfbfbf" points="102,-145.5 102,-164.5 189,-164.5 189,-145.5 102,-145.5"/>
<text text-anchor="middle" x="145.5" y="-152.5" font-family="FreeSans" font-size="10.00">std::vector&lt; T &gt;</text>
</a>
</g>
</g>
<!-- Node3&#45;&gt;Node4 -->
<g id="edge4" class="edge">
<title>Node3&#45;&gt;Node4</title>
<path fill="none" stroke="#9a32cd" stroke-dasharray="5,2" d="M76.95,-206.07C94.51,-193.24 119.23,-175.19 133.69,-164.63"/>
<polygon fill="#9a32cd" stroke="#9a32cd" points="74.51,-203.51 68.5,-212.23 78.64,-209.16 74.51,-203.51"/>
<text text-anchor="middle" x="127" y="-186" font-family="FreeSans" font-size="10.00"> elements</text>
</g>
<!-- Node4&#45;&gt;Node2 -->
<g id="edge3" class="edge">
<title>Node4&#45;&gt;Node2</title>
<path fill="none" stroke="orange" stroke-dasharray="5,2" d="M125.05,-139.07C107.49,-126.24 82.77,-108.19 68.31,-97.63"/>
<polygon fill="orange" stroke="orange" points="123.36,-142.16 133.5,-145.23 127.49,-136.51 123.36,-142.16"/>
<text text-anchor="middle" x="132" y="-119" font-family="FreeSans" font-size="10.00"> &lt; T, Alloc &gt;</text>
</g>
</g>
</svg>
