<?xml version="1.0" encoding="UTF-8" standalone="no"?>
<!DOCTYPE svg PUBLIC "-//W3C//DTD SVG 1.1//EN"
 "http://www.w3.org/Graphics/SVG/1.1/DTD/svg11.dtd">
<!-- Generated by graphviz version 2.44.1 (20200629.0846)
 -->
<!-- Title: boost::graph_traits&lt; DGtal::Object&lt; TDigitalTopology, TDigitalSet &gt; &gt;::out_edge_iterator Pages: 1 -->
<svg width="857pt" height="182pt"
 viewBox="0.00 0.00 857.00 181.50" xmlns="http://www.w3.org/2000/svg" xmlns:xlink="http://www.w3.org/1999/xlink">
<g id="graph0" class="graph" transform="scale(1 1) rotate(0) translate(4 177.5)">
<title>boost::graph_traits&lt; DGtal::Object&lt; TDigitalTopology, TDigitalSet &gt; &gt;::out_edge_iterator</title>
<polygon fill="white" stroke="transparent" points="-4,4 -4,-177.5 853,-177.5 853,4 -4,4"/>
<!-- Node1 -->
<g id="node1" class="node">
<title>Node1</title>
<g id="a_node1"><a xlink:title=" ">
<polygon fill="#bfbfbf" stroke="black" points="680,-66.5 680,-107.5 849,-107.5 849,-66.5 680,-66.5"/>
<text text-anchor="start" x="688" y="-95.5" font-family="FreeSans" font-size="10.00">boost::graph_traits</text>
<text text-anchor="start" x="688" y="-84.5" font-family="FreeSans" font-size="10.00">&lt; DGtal::Object&lt; TDigitalTopology,</text>
<text text-anchor="middle" x="764.5" y="-73.5" font-family="FreeSans" font-size="10.00"> TDigitalSet &gt; &gt;::out_edge_iterator</text>
</a>
</g>
</g>
<!-- Node2 -->
<g id="node2" class="node">
<title>Node2</title>
<g id="a_node2"><a xlink:title=" ">
<polygon fill="white" stroke="#bfbfbf" points="452,-121 452,-173 583,-173 583,-121 452,-121"/>
<text text-anchor="start" x="460" y="-161" font-family="FreeSans" font-size="10.00">boost::iterator_facade</text>
<text text-anchor="start" x="460" y="-150" font-family="FreeSans" font-size="10.00">&lt; out_edge_iterator, Edge,</text>
<text text-anchor="start" x="460" y="-139" font-family="FreeSans" font-size="10.00"> bidirectional_traversal</text>
<text text-anchor="middle" x="517.5" y="-128" font-family="FreeSans" font-size="10.00">_tag, const Edge &amp; &gt;</text>
</a>
</g>
</g>
<!-- Node2&#45;&gt;Node1 -->
<g id="edge1" class="edge">
<title>Node2&#45;&gt;Node1</title>
<path fill="none" stroke="midnightblue" d="M593.11,-128.73C620.54,-122.01 651.76,-114.36 679.93,-107.47"/>
<polygon fill="midnightblue" stroke="midnightblue" points="592.07,-125.38 583.19,-131.16 593.74,-132.18 592.07,-125.38"/>
</g>
<!-- Node3 -->
<g id="node3" class="node">
<title>Node3</title>
<g id="a_node3"><a xlink:title="STL iterator class.">
<polygon fill="white" stroke="#bfbfbf" points="459,-72 459,-102 576,-102 576,-72 459,-72"/>
<text text-anchor="start" x="467" y="-90" font-family="FreeSans" font-size="10.00">std::vector&lt; T &gt;::const</text>
<text text-anchor="middle" x="517.5" y="-79" font-family="FreeSans" font-size="10.00">_iterator</text>
</a>
</g>
</g>
<!-- Node3&#45;&gt;Node1 -->
<g id="edge2" class="edge">
<title>Node3&#45;&gt;Node1</title>
<path fill="none" stroke="#9a32cd" stroke-dasharray="5,2" d="M586.25,-87C615.17,-87 649.21,-87 679.69,-87"/>
<polygon fill="#9a32cd" stroke="#9a32cd" points="586.25,-83.5 576.25,-87 586.25,-90.5 586.25,-83.5"/>
<text text-anchor="middle" x="631.5" y="-90" font-family="FreeSans" font-size="10.00"> myIterator</text>
</g>
<!-- Node4 -->
<g id="node4" class="node">
<title>Node4</title>
<g id="a_node4"><a xlink:href="classDGtal_1_1CountedPtr.html" target="_top" xlink:title=" ">
<polygon fill="white" stroke="black" points="463,-23 463,-53 572,-53 572,-23 463,-23"/>
<text text-anchor="start" x="471" y="-41" font-family="FreeSans" font-size="10.00">DGtal::CountedPtr&lt;</text>
<text text-anchor="middle" x="517.5" y="-30" font-family="FreeSans" font-size="10.00"> OutEdgeContainer &gt;</text>
</a>
</g>
</g>
<!-- Node4&#45;&gt;Node1 -->
<g id="edge3" class="edge">
<title>Node4&#45;&gt;Node1</title>
<path fill="none" stroke="#9a32cd" stroke-dasharray="5,2" d="M582.14,-50.73C612,-56.7 647.98,-63.9 680,-70.3"/>
<polygon fill="#9a32cd" stroke="#9a32cd" points="582.76,-47.28 572.27,-48.75 581.39,-54.15 582.76,-47.28"/>
<text text-anchor="middle" x="631.5" y="-68" font-family="FreeSans" font-size="10.00"> myOutEdges</text>
</g>
<!-- Node5 -->
<g id="node5" class="node">
<title>Node5</title>
<g id="a_node5"><a xlink:href="structDGtal_1_1CountedPtr_1_1Counter.html" target="_top" xlink:title=" ">
<polygon fill="white" stroke="black" points="0,-18 0,-48 104,-48 104,-18 0,-18"/>
<text text-anchor="start" x="8" y="-36" font-family="FreeSans" font-size="10.00">DGtal::CountedPtr&lt;</text>
<text text-anchor="middle" x="52" y="-25" font-family="FreeSans" font-size="10.00"> T &gt;::Counter</text>
</a>
</g>
</g>
<!-- Node5&#45;&gt;Node4 -->
<g id="edge4" class="edge">
<title>Node5&#45;&gt;Node4</title>
<path fill="none" stroke="#9a32cd" stroke-dasharray="5,2" d="M114.31,-38.56C116.91,-38.73 119.48,-38.87 122,-39 260.5,-46 295.37,-45.36 434,-42 443.32,-41.77 453.22,-41.41 462.82,-40.98"/>
<polygon fill="#9a32cd" stroke="#9a32cd" points="114.43,-35.06 104.22,-37.87 113.95,-42.05 114.43,-35.06"/>
<text text-anchor="middle" x="253" y="-47" font-family="FreeSans" font-size="10.00"> myCounter</text>
</g>
<!-- Node6 -->
<g id="node6" class="node">
<title>Node6</title>
<g id="a_node6"><a xlink:href="classDGtal_1_1CountedPtr.html" target="_top" xlink:title="Aim: Smart pointer based on reference counts.">
<polygon fill="white" stroke="black" points="192,-0.5 192,-19.5 314,-19.5 314,-0.5 192,-0.5"/>
<text text-anchor="middle" x="253" y="-7.5" font-family="FreeSans" font-size="10.00">DGtal::CountedPtr&lt; T &gt;</text>
</a>
</g>
</g>
<!-- Node5&#45;&gt;Node6 -->
<g id="edge6" class="edge">
<title>Node5&#45;&gt;Node6</title>
<path fill="none" stroke="#9a32cd" stroke-dasharray="5,2" d="M114.2,-25.93C138.85,-23.08 167.19,-19.8 191.74,-16.97"/>
<polygon fill="#9a32cd" stroke="#9a32cd" points="113.78,-22.45 104.25,-27.08 114.58,-29.41 113.78,-22.45"/>
<text text-anchor="middle" x="148" y="-27" font-family="FreeSans" font-size="10.00"> myCounter</text>
</g>
<!-- Node6&#45;&gt;Node4 -->
<g id="edge5" class="edge">
<title>Node6&#45;&gt;Node4</title>
<path fill="none" stroke="orange" stroke-dasharray="5,2" d="M324.17,-17.48C367.7,-22.13 422.75,-28 462.8,-32.27"/>
<polygon fill="orange" stroke="orange" points="324.54,-14 314.22,-16.42 323.8,-20.96 324.54,-14"/>
<text text-anchor="middle" x="383" y="-31" font-family="FreeSans" font-size="10.00"> &lt; OutEdgeContainer &gt;</text>
</g>
</g>
</svg>
