<?xml version="1.0" encoding="UTF-8" standalone="no"?>
<!DOCTYPE svg PUBLIC "-//W3C//DTD SVG 1.1//EN"
 "http://www.w3.org/Graphics/SVG/1.1/DTD/svg11.dtd">
<!-- Generated by graphviz version 2.44.1 (20200629.0846)
 -->
<!-- Title: DGtal::FrechetShortcut&lt; TIterator, TInteger &gt; Pages: 1 -->
<!--zoomable 188 -->
<svg id="main" version="1.1" xmlns="http://www.w3.org/2000/svg" xmlns:xlink="http://www.w3.org/1999/xlink" xml:space="preserve" onload="init(evt)">
<style type="text/css"><![CDATA[
.edge:hover path { stroke: red; }
.edge:hover polygon { stroke: red; fill: red; }
]]></style>
<script type="text/javascript"><![CDATA[
var edges = document.getElementsByTagName('g');
if (edges && edges.length) {
  for (var i=0;i<edges.length;i++) {
    if (edges[i].id.substr(0,4)=='edge') {
      edges[i].setAttribute('class','edge');
    }
  }
}
]]></script>
        <defs>
                <circle id="rim" cx="0" cy="0" r="7"/>
                <circle id="rim2" cx="0" cy="0" r="3.5"/>
                <g id="zoomPlus">
                        <use xlink:href="#rim" fill="#404040">
                                <set attributeName="fill" to="#808080" begin="zoomplus.mouseover" end="zoomplus.mouseout"/>
                        </use>
                        <path d="M-4,0h8M0,-4v8" fill="none" stroke="white" stroke-width="1.5" pointer-events="none"/>
                </g>
                <g id="zoomMin">
                        <use xlink:href="#rim" fill="#404040">
                                <set attributeName="fill" to="#808080" begin="zoomminus.mouseover" end="zoomminus.mouseout"/>
                        </use>
                        <path d="M-4,0h8" fill="none" stroke="white" stroke-width="1.5" pointer-events="none"/>
                </g>
                <g id="dirArrow">
                        <path fill="none" stroke="white" stroke-width="1.5" d="M0,-3.0v7 M-2.5,-0.5L0,-3.0L2.5,-0.5"/>
                </g>
               <g id="resetDef">
                       <use xlink:href="#rim2" fill="#404040">
                               <set attributeName="fill" to="#808080" begin="reset.mouseover" end="reset.mouseout"/>
                       </use>
               </g>
        </defs>

<script type="text/javascript">
var viewWidth = 1210;
var viewHeight = 188;
var sectionId = 'dynsection-1';
</script>
<script xlink:href="svgpan.js"/>
<svg id="graph" class="graph">
<g id="viewport">
<title>DGtal::FrechetShortcut&lt; TIterator, TInteger &gt;</title>
<polygon fill="white" stroke="transparent" points="-4,4 -4,-183.5 1206,-183.5 1206,4 -4,4"/>
<!-- Node1 -->
<g id="node1" class="node">
<title>Node1</title>
<g id="a_node1"><a xlink:title="Aim: On&#45;line computation Computation of the longest shortcut according to the Fréchet distance for a ...">
<polygon fill="#bfbfbf" stroke="black" points="1084,-23 1084,-53 1202,-53 1202,-23 1084,-23"/>
<text text-anchor="start" x="1092" y="-41" font-family="FreeSans" font-size="10.00">DGtal::FrechetShortcut</text>
<text text-anchor="middle" x="1143" y="-30" font-family="FreeSans" font-size="10.00">&lt; TIterator, TInteger &gt;</text>
</a>
</g>
</g>
<!-- Node2 -->
<g id="node2" class="node">
<title>Node2</title>
<g id="a_node2"><a xlink:title=" ">
<polygon fill="white" stroke="#bfbfbf" points="841,-61 841,-91 990,-91 990,-61 841,-61"/>
<text text-anchor="start" x="849" y="-79" font-family="FreeSans" font-size="10.00">std::vector&lt; DGtal</text>
<text text-anchor="middle" x="915.5" y="-68" font-family="FreeSans" font-size="10.00">::FrechetShortcut::Backpath &gt;</text>
</a>
</g>
</g>
<!-- Node2&#45;&gt;Node1 -->
<g id="edge1" class="edge">
<title>Node2&#45;&gt;Node1</title>
<path fill="none" stroke="#9a32cd" stroke-dasharray="5,2" d="M1000.16,-61.9C1028.03,-57.21 1058.44,-52.08 1083.93,-47.79"/>
<polygon fill="#9a32cd" stroke="#9a32cd" points="999.3,-58.5 990.03,-63.61 1000.47,-65.4 999.3,-58.5"/>
<text text-anchor="middle" x="1037" y="-63" font-family="FreeSans" font-size="10.00"> myBackpath</text>
</g>
<!-- Node3 -->
<g id="node3" class="node">
<title>Node3</title>
<g id="a_node3"><a xlink:href="classDGtal_1_1FrechetShortcut_1_1Backpath.html" target="_top" xlink:title=" ">
<polygon fill="white" stroke="black" points="644,-83.5 644,-124.5 762,-124.5 762,-83.5 644,-83.5"/>
<text text-anchor="start" x="652" y="-112.5" font-family="FreeSans" font-size="10.00">DGtal::FrechetShortcut</text>
<text text-anchor="start" x="652" y="-101.5" font-family="FreeSans" font-size="10.00">&lt; TIterator, TInteger</text>
<text text-anchor="middle" x="703" y="-90.5" font-family="FreeSans" font-size="10.00"> &gt;::Backpath</text>
</a>
</g>
</g>
<!-- Node3&#45;&gt;Node2 -->
<g id="edge2" class="edge">
<title>Node3&#45;&gt;Node2</title>
<path fill="none" stroke="#9a32cd" stroke-dasharray="5,2" d="M772.28,-94.92C794.18,-92 818.52,-88.77 840.79,-85.8"/>
<polygon fill="#9a32cd" stroke="#9a32cd" points="771.53,-91.49 762.08,-96.27 772.45,-98.43 771.53,-91.49"/>
<text text-anchor="middle" x="801.5" y="-96" font-family="FreeSans" font-size="10.00"> elements</text>
</g>
<!-- Node4 -->
<g id="node4" class="node">
<title>Node4</title>
<g id="a_node4"><a xlink:title=" ">
<polygon fill="white" stroke="#bfbfbf" points="371,-89 371,-119 494,-119 494,-89 371,-89"/>
<text text-anchor="start" x="379" y="-107" font-family="FreeSans" font-size="10.00">std::map&lt; ConstIterator,</text>
<text text-anchor="middle" x="432.5" y="-96" font-family="FreeSans" font-size="10.00"> occulter_attributes &gt;</text>
</a>
</g>
</g>
<!-- Node4&#45;&gt;Node3 -->
<g id="edge3" class="edge">
<title>Node4&#45;&gt;Node3</title>
<path fill="none" stroke="#9a32cd" stroke-dasharray="5,2" d="M504.33,-104C547.87,-104 602.97,-104 643.93,-104"/>
<polygon fill="#9a32cd" stroke="#9a32cd" points="504.09,-100.5 494.09,-104 504.09,-107.5 504.09,-100.5"/>
<text text-anchor="middle" x="569" y="-107" font-family="FreeSans" font-size="10.00"> myOcculters</text>
</g>
<!-- Node5 -->
<g id="node5" class="node">
<title>Node5</title>
<g id="a_node5"><a xlink:href="structDGtal_1_1FrechetShortcut_1_1Backpath_1_1occulter__attributes.html" target="_top" xlink:title=" ">
<polygon fill="white" stroke="black" points="108,-127 108,-179 226,-179 226,-127 108,-127"/>
<text text-anchor="start" x="116" y="-167" font-family="FreeSans" font-size="10.00">DGtal::FrechetShortcut</text>
<text text-anchor="start" x="116" y="-156" font-family="FreeSans" font-size="10.00">&lt; TIterator, TInteger</text>
<text text-anchor="start" x="116" y="-145" font-family="FreeSans" font-size="10.00"> &gt;::Backpath::occulter</text>
<text text-anchor="middle" x="167" y="-134" font-family="FreeSans" font-size="10.00">_attributes</text>
</a>
</g>
</g>
<!-- Node5&#45;&gt;Node4 -->
<g id="edge4" class="edge">
<title>Node5&#45;&gt;Node4</title>
<path fill="none" stroke="#9a32cd" stroke-dasharray="5,2" d="M236.47,-146.43C271.56,-142.39 314.82,-136.36 353,-128 364,-125.59 375.68,-122.39 386.59,-119.1"/>
<polygon fill="#9a32cd" stroke="#9a32cd" points="235.88,-142.98 226.34,-147.57 236.66,-149.93 235.88,-142.98"/>
<text text-anchor="middle" x="298.5" y="-148" font-family="FreeSans" font-size="10.00"> elements</text>
</g>
<!-- Node6 -->
<g id="node6" class="node">
<title>Node6</title>
<g id="a_node6"><a xlink:title="STL class.">
<polygon fill="white" stroke="#bfbfbf" points="121,-88.5 121,-107.5 213,-107.5 213,-88.5 121,-88.5"/>
<text text-anchor="middle" x="167" y="-95.5" font-family="FreeSans" font-size="10.00">std::map&lt; K, T &gt;</text>
</a>
</g>
</g>
<!-- Node6&#45;&gt;Node4 -->
<g id="edge5" class="edge">
<title>Node6&#45;&gt;Node4</title>
<path fill="none" stroke="orange" stroke-dasharray="5,2" d="M223.32,-99.26C266.38,-100.24 326.09,-101.6 370.53,-102.61"/>
<polygon fill="orange" stroke="orange" points="223.37,-95.76 213.3,-99.03 223.21,-102.76 223.37,-95.76"/>
<text text-anchor="start" x="244" y="-116" font-family="FreeSans" font-size="10.00"> &lt; ConstIterator, occulter</text>
<text text-anchor="middle" x="298.5" y="-105" font-family="FreeSans" font-size="10.00">_attributes &gt;</text>
</g>
<!-- Node7 -->
<g id="node7" class="node">
<title>Node7</title>
<g id="a_node7"><a xlink:title=" ">
<polygon fill="white" stroke="#bfbfbf" points="0,-113.5 0,-132.5 29,-132.5 29,-113.5 0,-113.5"/>
<text text-anchor="middle" x="14.5" y="-120.5" font-family="FreeSans" font-size="10.00">K</text>
</a>
</g>
</g>
<!-- Node7&#45;&gt;Node6 -->
<g id="edge6" class="edge">
<title>Node7&#45;&gt;Node6</title>
<path fill="none" stroke="#9a32cd" stroke-dasharray="5,2" d="M39.16,-119.07C61.02,-115.44 94.08,-109.95 120.97,-105.48"/>
<polygon fill="#9a32cd" stroke="#9a32cd" points="38.41,-115.65 29.12,-120.74 39.56,-122.55 38.41,-115.65"/>
<text text-anchor="middle" x="68.5" y="-120" font-family="FreeSans" font-size="10.00"> keys</text>
</g>
<!-- Node8 -->
<g id="node8" class="node">
<title>Node8</title>
<g id="a_node8"><a xlink:title=" ">
<polygon fill="white" stroke="#bfbfbf" points="0,-60.5 0,-79.5 29,-79.5 29,-60.5 0,-60.5"/>
<text text-anchor="middle" x="14.5" y="-67.5" font-family="FreeSans" font-size="10.00">T</text>
</a>
</g>
</g>
<!-- Node8&#45;&gt;Node6 -->
<g id="edge7" class="edge">
<title>Node8&#45;&gt;Node6</title>
<path fill="none" stroke="#9a32cd" stroke-dasharray="5,2" d="M39.16,-74.4C61.02,-78.47 94.08,-84.62 120.97,-89.62"/>
<polygon fill="#9a32cd" stroke="#9a32cd" points="39.59,-70.92 29.12,-72.53 38.31,-77.8 39.59,-70.92"/>
<text text-anchor="middle" x="68.5" y="-86" font-family="FreeSans" font-size="10.00"> elements</text>
</g>
<!-- Node9 -->
<g id="node9" class="node">
<title>Node9</title>
<g id="a_node9"><a xlink:title="STL class.">
<polygon fill="white" stroke="#bfbfbf" points="255,-45.5 255,-64.5 342,-64.5 342,-45.5 255,-45.5"/>
<text text-anchor="middle" x="298.5" y="-52.5" font-family="FreeSans" font-size="10.00">std::vector&lt; T &gt;</text>
</a>
</g>
</g>
<!-- Node8&#45;&gt;Node9 -->
<g id="edge9" class="edge">
<title>Node8&#45;&gt;Node9</title>
<path fill="none" stroke="#9a32cd" stroke-dasharray="5,2" d="M39.03,-62.58C41.7,-61.95 44.39,-61.4 47,-61 119.25,-50 204.55,-50.85 254.66,-52.74"/>
<polygon fill="#9a32cd" stroke="#9a32cd" points="37.85,-59.27 29.13,-65.29 39.7,-66.02 37.85,-59.27"/>
<text text-anchor="middle" x="68.5" y="-64" font-family="FreeSans" font-size="10.00"> elements</text>
</g>
<!-- Node9&#45;&gt;Node2 -->
<g id="edge8" class="edge">
<title>Node9&#45;&gt;Node2</title>
<path fill="none" stroke="orange" stroke-dasharray="5,2" d="M352.43,-56.81C462.29,-60.56 715.25,-69.2 840.9,-73.49"/>
<polygon fill="orange" stroke="orange" points="352.37,-53.3 342.26,-56.46 352.13,-60.3 352.37,-53.3"/>
<text text-anchor="start" x="512" y="-80" font-family="FreeSans" font-size="10.00"> &lt; DGtal::FrechetShortcut</text>
<text text-anchor="middle" x="569" y="-69" font-family="FreeSans" font-size="10.00">::Backpath &gt;</text>
</g>
<!-- Node10 -->
<g id="node10" class="node">
<title>Node10</title>
<g id="a_node10"><a xlink:href="classDGtal_1_1FrechetShortcut_1_1Cone.html" target="_top" xlink:title=" ">
<polygon fill="white" stroke="black" points="856.5,-0.5 856.5,-41.5 974.5,-41.5 974.5,-0.5 856.5,-0.5"/>
<text text-anchor="start" x="864.5" y="-29.5" font-family="FreeSans" font-size="10.00">DGtal::FrechetShortcut</text>
<text text-anchor="start" x="864.5" y="-18.5" font-family="FreeSans" font-size="10.00">&lt; TIterator, TInteger</text>
<text text-anchor="middle" x="915.5" y="-7.5" font-family="FreeSans" font-size="10.00"> &gt;::Cone</text>
</a>
</g>
</g>
<!-- Node10&#45;&gt;Node1 -->
<g id="edge10" class="edge">
<title>Node10&#45;&gt;Node1</title>
<path fill="none" stroke="#9a32cd" stroke-dasharray="5,2" d="M985.01,-25.96C1010.45,-27.83 1039.54,-29.98 1066,-32 1071.81,-32.44 1077.86,-32.91 1083.91,-33.38"/>
<polygon fill="#9a32cd" stroke="#9a32cd" points="984.95,-22.45 974.72,-25.21 984.44,-29.43 984.95,-22.45"/>
<text text-anchor="middle" x="1037" y="-35" font-family="FreeSans" font-size="10.00"> myCone</text>
</g>
</g>
</svg>
        <g id="navigator" transform="translate(0 0)" fill="#404254">
                <rect fill="#f2f5e9" fill-opacity="0.5" stroke="#606060" stroke-width=".5" x="0" y="0" width="60" height="60"/>
                <use id="zoomplus" xlink:href="#zoomPlus" x="17" y="9" onmousedown="handleZoom(evt,'in')"/>
                <use id="zoomminus" xlink:href="#zoomMin" x="42" y="9" onmousedown="handleZoom(evt,'out')"/>
                <use id="reset" xlink:href="#resetDef" x="30" y="36" onmousedown="handleReset()"/>
                <g id="arrowUp" xlink:href="#dirArrow" transform="translate(30 24)" onmousedown="handlePan(0,-1)">
                  <use xlink:href="#rim" fill="#404040">
                        <set attributeName="fill" to="#808080" begin="arrowUp.mouseover" end="arrowUp.mouseout"/>
                  </use>
                  <path fill="none" stroke="white" stroke-width="1.5" d="M0,-3.0v7 M-2.5,-0.5L0,-3.0L2.5,-0.5"/>
                </g>
                <g id="arrowRight" xlink:href="#dirArrow" transform="rotate(90) translate(36 -43)" onmousedown="handlePan(1,0)">
                  <use xlink:href="#rim" fill="#404040">
                        <set attributeName="fill" to="#808080" begin="arrowRight.mouseover" end="arrowRight.mouseout"/>
                  </use>
                  <path fill="none" stroke="white" stroke-width="1.5" d="M0,-3.0v7 M-2.5,-0.5L0,-3.0L2.5,-0.5"/>
                </g>
                <g id="arrowDown" xlink:href="#dirArrow" transform="rotate(180) translate(-30 -48)" onmousedown="handlePan(0,1)">
                  <use xlink:href="#rim" fill="#404040">
                        <set attributeName="fill" to="#808080" begin="arrowDown.mouseover" end="arrowDown.mouseout"/>
                  </use>
                  <path fill="none" stroke="white" stroke-width="1.5" d="M0,-3.0v7 M-2.5,-0.5L0,-3.0L2.5,-0.5"/>
                </g>
                <g id="arrowLeft" xlink:href="#dirArrow" transform="rotate(270) translate(-36 17)" onmousedown="handlePan(-1,0)">
                  <use xlink:href="#rim" fill="#404040">
                        <set attributeName="fill" to="#808080" begin="arrowLeft.mouseover" end="arrowLeft.mouseout"/>
                  </use>
                  <path fill="none" stroke="white" stroke-width="1.5" d="M0,-3.0v7 M-2.5,-0.5L0,-3.0L2.5,-0.5"/>
                </g>
        </g>
        <svg viewBox="0 0 15 15" width="100%" height="30px" preserveAspectRatio="xMaxYMin meet">
         <g id="arrow_out" transform="scale(0.3 0.3)">
          <a xlink:href="classDGtal_1_1FrechetShortcut__coll__graph_org.svg" target="_base">
           <rect id="button" ry="5" rx="5" y="6" x="6" height="38" width="38"
                fill="#f2f5e9" fill-opacity="0.5" stroke="#606060" stroke-width="1.0"/>
           <path id="arrow"
             d="M 11.500037,31.436501 C 11.940474,20.09759 22.043105,11.32322 32.158766,21.979434 L 37.068811,17.246167 C 37.068811,17.246167 37.088388,32 37.088388,32 L 22.160133,31.978069 C 22.160133,31.978069 26.997745,27.140456 26.997745,27.140456 C 18.528582,18.264221 13.291696,25.230495 11.500037,31.436501 z"
             style="fill:#404040;"/>
          </a>
         </g>
        </svg>
</svg>
