<?xml version="1.0" encoding="UTF-8" standalone="no"?>
<!DOCTYPE svg PUBLIC "-//W3C//DTD SVG 1.1//EN"
 "http://www.w3.org/Graphics/SVG/1.1/DTD/svg11.dtd">
<!-- Generated by graphviz version 2.44.1 (20200629.0846)
 -->
<!-- Title: DGtal::TangentAngleFromDSSEstimator&lt; DSSComputer &gt; Pages: 1 -->
<svg width="2263pt" height="95pt"
 viewBox="0.00 0.00 2263.00 95.00" xmlns="http://www.w3.org/2000/svg" xmlns:xlink="http://www.w3.org/1999/xlink">
<g id="graph0" class="graph" transform="scale(1 1) rotate(0) translate(4 91)">
<title>DGtal::TangentAngleFromDSSEstimator&lt; DSSComputer &gt;</title>
<polygon fill="white" stroke="transparent" points="-4,4 -4,-91 2259,-91 2259,4 -4,4"/>
<!-- Node1 -->
<g id="node1" class="node">
<title>Node1</title>
<g id="a_node1"><a xlink:title=" ">
<polygon fill="#bfbfbf" stroke="black" points="2062,-34 2062,-64 2255,-64 2255,-34 2062,-34"/>
<text text-anchor="start" x="2070" y="-52" font-family="FreeSans" font-size="10.00">DGtal::TangentAngleFromDSSEstimator</text>
<text text-anchor="middle" x="2158.5" y="-41" font-family="FreeSans" font-size="10.00">&lt; DSSComputer &gt;</text>
</a>
</g>
</g>
<!-- Node2 -->
<g id="node2" class="node">
<title>Node2</title>
<g id="a_node2"><a xlink:href="classDGtal_1_1detail_1_1PosIndepScaleIndepSCEstimator.html" target="_top" xlink:title=" ">
<polygon fill="white" stroke="black" points="1853,-28.5 1853,-69.5 2025,-69.5 2025,-28.5 1853,-28.5"/>
<text text-anchor="start" x="1861" y="-57.5" font-family="FreeSans" font-size="10.00">DGtal::detail::PosIndepScale</text>
<text text-anchor="start" x="1861" y="-46.5" font-family="FreeSans" font-size="10.00">IndepSCEstimator&lt; DSSComputer,</text>
<text text-anchor="middle" x="1939" y="-35.5" font-family="FreeSans" font-size="10.00"> detail::TangentAngleFromDSS &gt;</text>
</a>
</g>
</g>
<!-- Node2&#45;&gt;Node1 -->
<g id="edge1" class="edge">
<title>Node2&#45;&gt;Node1</title>
<path fill="none" stroke="midnightblue" d="M2035.26,-49C2044.04,-49 2052.94,-49 2061.72,-49"/>
<polygon fill="midnightblue" stroke="midnightblue" points="2035.03,-45.5 2025.03,-49 2035.03,-52.5 2035.03,-45.5"/>
</g>
<!-- Node3 -->
<g id="node3" class="node">
<title>Node3</title>
<g id="a_node3"><a xlink:href="classDGtal_1_1InHalfPlaneBySimple3x3Matrix.html" target="_top" xlink:title=" ">
<polygon fill="white" stroke="black" points="1260,-35 1260,-65 1417,-65 1417,-35 1260,-35"/>
<text text-anchor="start" x="1268" y="-53" font-family="FreeSans" font-size="10.00">DGtal::InHalfPlaneBySimple3x3</text>
<text text-anchor="middle" x="1338.5" y="-42" font-family="FreeSans" font-size="10.00">Matrix&lt; Point, double &gt;</text>
</a>
</g>
</g>
<!-- Node3&#45;&gt;Node2 -->
<g id="edge2" class="edge">
<title>Node3&#45;&gt;Node2</title>
<path fill="none" stroke="#9a32cd" stroke-dasharray="5,2" d="M1427.25,-57.79C1526.38,-65.36 1692.48,-74.32 1835,-64 1840.86,-63.58 1846.89,-63.02 1852.95,-62.37"/>
<polygon fill="#9a32cd" stroke="#9a32cd" points="1427.52,-54.31 1417.28,-57.02 1426.98,-61.28 1427.52,-54.31"/>
<text text-anchor="middle" x="1601" y="-72" font-family="FreeSans" font-size="10.00"> myFunctor</text>
</g>
<!-- Node10 -->
<g id="node10" class="node">
<title>Node10</title>
<g id="a_node10"><a xlink:href="classDGtal_1_1detail_1_1PosIndepScaleIndepSCEstimator.html" target="_top" xlink:title=" ">
<polygon fill="white" stroke="black" points="1503,-0.5 1503,-41.5 1699,-41.5 1699,-0.5 1503,-0.5"/>
<text text-anchor="start" x="1511" y="-29.5" font-family="FreeSans" font-size="10.00">DGtal::detail::PosIndepScale</text>
<text text-anchor="start" x="1511" y="-18.5" font-family="FreeSans" font-size="10.00">IndepSCEstimator&lt; TSegmentComputer,</text>
<text text-anchor="middle" x="1601" y="-7.5" font-family="FreeSans" font-size="10.00"> Functor, ReturnType &gt;</text>
</a>
</g>
</g>
<!-- Node3&#45;&gt;Node10 -->
<g id="edge12" class="edge">
<title>Node3&#45;&gt;Node10</title>
<path fill="none" stroke="#9a32cd" stroke-dasharray="5,2" d="M1427.53,-40.2C1451.71,-37.51 1478.07,-34.57 1502.74,-31.83"/>
<polygon fill="#9a32cd" stroke="#9a32cd" points="1426.86,-36.75 1417.31,-41.34 1427.63,-43.71 1426.86,-36.75"/>
<text text-anchor="middle" x="1460" y="-42" font-family="FreeSans" font-size="10.00"> myFunctor</text>
</g>
<!-- Node4 -->
<g id="node4" class="node">
<title>Node4</title>
<g id="a_node4"><a xlink:href="classDGtal_1_1SimpleMatrix.html" target="_top" xlink:title=" ">
<polygon fill="white" stroke="black" points="803,-35 803,-65 908,-65 908,-35 803,-35"/>
<text text-anchor="start" x="811" y="-53" font-family="FreeSans" font-size="10.00">DGtal::SimpleMatrix</text>
<text text-anchor="middle" x="855.5" y="-42" font-family="FreeSans" font-size="10.00">&lt; Integer, 3, 3 &gt;</text>
</a>
</g>
</g>
<!-- Node4&#45;&gt;Node3 -->
<g id="edge3" class="edge">
<title>Node4&#45;&gt;Node3</title>
<path fill="none" stroke="#9a32cd" stroke-dasharray="5,2" d="M918.25,-55.61C920.87,-55.76 923.46,-55.89 926,-56 1066.31,-62.05 1101.62,-60.41 1242,-56 1247.81,-55.82 1253.82,-55.57 1259.86,-55.29"/>
<polygon fill="#9a32cd" stroke="#9a32cd" points="918.29,-52.1 908.08,-54.95 917.84,-59.09 918.29,-52.1"/>
<text text-anchor="middle" x="1066.5" y="-63" font-family="FreeSans" font-size="10.00"> myMatrix</text>
</g>
<!-- Node9 -->
<g id="node9" class="node">
<title>Node9</title>
<g id="a_node9"><a xlink:href="classDGtal_1_1InHalfPlaneBySimple3x3Matrix.html" target="_top" xlink:title="Aim: Class that implements an orientation functor, ie. it provides a way to compute the orientation o...">
<polygon fill="white" stroke="black" points="988,-9 988,-39 1145,-39 1145,-9 988,-9"/>
<text text-anchor="start" x="996" y="-27" font-family="FreeSans" font-size="10.00">DGtal::InHalfPlaneBySimple3x3</text>
<text text-anchor="middle" x="1066.5" y="-16" font-family="FreeSans" font-size="10.00">Matrix&lt; TPoint, TInteger &gt;</text>
</a>
</g>
</g>
<!-- Node4&#45;&gt;Node9 -->
<g id="edge10" class="edge">
<title>Node4&#45;&gt;Node9</title>
<path fill="none" stroke="#9a32cd" stroke-dasharray="5,2" d="M918.29,-42.31C940.14,-39.6 964.98,-36.5 987.96,-33.65"/>
<polygon fill="#9a32cd" stroke="#9a32cd" points="917.65,-38.87 908.16,-43.57 918.52,-45.81 917.65,-38.87"/>
<text text-anchor="middle" x="948" y="-44" font-family="FreeSans" font-size="10.00"> myMatrix</text>
</g>
<!-- Node5 -->
<g id="node5" class="node">
<title>Node5</title>
<g id="a_node5"><a xlink:title=" ">
<polygon fill="white" stroke="#bfbfbf" points="326,-35 326,-65 446,-65 446,-35 326,-35"/>
<text text-anchor="start" x="334" y="-53" font-family="FreeSans" font-size="10.00">std::array&lt; Component,</text>
<text text-anchor="middle" x="386" y="-42" font-family="FreeSans" font-size="10.00"> M *N &gt;</text>
</a>
</g>
</g>
<!-- Node5&#45;&gt;Node4 -->
<g id="edge4" class="edge">
<title>Node5&#45;&gt;Node4</title>
<path fill="none" stroke="#9a32cd" stroke-dasharray="5,2" d="M456.28,-61.31C458.88,-61.57 461.46,-61.8 464,-62 523.66,-66.62 681.54,-63.28 785,-57 790.81,-56.65 796.89,-56.18 802.92,-55.66"/>
<polygon fill="#9a32cd" stroke="#9a32cd" points="456.5,-57.81 446.17,-60.17 455.71,-64.77 456.5,-57.81"/>
<text text-anchor="middle" x="628.5" y="-79" font-family="FreeSans" font-size="10.00"> myCofactorCoefs</text>
<text text-anchor="middle" x="628.5" y="-68" font-family="FreeSans" font-size="10.00">myValues</text>
</g>
<!-- Node8 -->
<g id="node8" class="node">
<title>Node8</title>
<g id="a_node8"><a xlink:href="classDGtal_1_1SimpleMatrix.html" target="_top" xlink:title="Aim: implements basic MxN Matrix services (M,N&gt;=1).">
<polygon fill="white" stroke="black" points="563,-9 563,-39 694,-39 694,-9 563,-9"/>
<text text-anchor="start" x="571" y="-27" font-family="FreeSans" font-size="10.00">DGtal::SimpleMatrix</text>
<text text-anchor="middle" x="628.5" y="-16" font-family="FreeSans" font-size="10.00">&lt; TComponent, TM, TN &gt;</text>
</a>
</g>
</g>
<!-- Node5&#45;&gt;Node8 -->
<g id="edge8" class="edge">
<title>Node5&#45;&gt;Node8</title>
<path fill="none" stroke="#9a32cd" stroke-dasharray="5,2" d="M456.32,-40.89C458.92,-40.59 461.48,-40.29 464,-40 496.59,-36.29 532.89,-32.68 563,-29.84"/>
<polygon fill="#9a32cd" stroke="#9a32cd" points="455.76,-37.44 446.25,-42.11 456.6,-44.38 455.76,-37.44"/>
<text text-anchor="middle" x="504.5" y="-54" font-family="FreeSans" font-size="10.00"> myCofactorCoefs</text>
<text text-anchor="middle" x="504.5" y="-43" font-family="FreeSans" font-size="10.00">myValues</text>
</g>
<!-- Node6 -->
<g id="node6" class="node">
<title>Node6</title>
<g id="a_node6"><a xlink:title="STL class.">
<polygon fill="white" stroke="#bfbfbf" points="108,-40.5 108,-59.5 190,-59.5 190,-40.5 108,-40.5"/>
<text text-anchor="middle" x="149" y="-47.5" font-family="FreeSans" font-size="10.00">std::array&lt; T &gt;</text>
</a>
</g>
</g>
<!-- Node6&#45;&gt;Node5 -->
<g id="edge5" class="edge">
<title>Node6&#45;&gt;Node5</title>
<path fill="none" stroke="orange" stroke-dasharray="5,2" d="M200.59,-50C237.29,-50 287.05,-50 325.64,-50"/>
<polygon fill="orange" stroke="orange" points="200.13,-46.5 190.13,-50 200.13,-53.5 200.13,-46.5"/>
<text text-anchor="middle" x="258" y="-53" font-family="FreeSans" font-size="10.00"> &lt; Component, M *N &gt;</text>
</g>
<!-- Node7 -->
<g id="node7" class="node">
<title>Node7</title>
<g id="a_node7"><a xlink:title=" ">
<polygon fill="white" stroke="#bfbfbf" points="0,-40.5 0,-59.5 29,-59.5 29,-40.5 0,-40.5"/>
<text text-anchor="middle" x="14.5" y="-47.5" font-family="FreeSans" font-size="10.00">T</text>
</a>
</g>
</g>
<!-- Node7&#45;&gt;Node6 -->
<g id="edge6" class="edge">
<title>Node7&#45;&gt;Node6</title>
<path fill="none" stroke="#9a32cd" stroke-dasharray="5,2" d="M39.35,-50C58.36,-50 85.4,-50 107.75,-50"/>
<polygon fill="#9a32cd" stroke="#9a32cd" points="39.18,-46.5 29.18,-50 39.18,-53.5 39.18,-46.5"/>
<text text-anchor="middle" x="68.5" y="-53" font-family="FreeSans" font-size="10.00"> elements</text>
</g>
<!-- Node8&#45;&gt;Node4 -->
<g id="edge7" class="edge">
<title>Node8&#45;&gt;Node4</title>
<path fill="none" stroke="orange" stroke-dasharray="5,2" d="M704.59,-32.68C736.9,-36.41 773.86,-40.68 803,-44.05"/>
<polygon fill="orange" stroke="orange" points="704.61,-29.16 694.28,-31.49 703.81,-36.11 704.61,-29.16"/>
<text text-anchor="middle" x="748.5" y="-45" font-family="FreeSans" font-size="10.00"> &lt; Integer, 3, 3 &gt;</text>
</g>
<!-- Node9&#45;&gt;Node3 -->
<g id="edge9" class="edge">
<title>Node9&#45;&gt;Node3</title>
<path fill="none" stroke="orange" stroke-dasharray="5,2" d="M1155.52,-32.48C1189.16,-35.72 1227.24,-39.38 1259.85,-42.52"/>
<polygon fill="orange" stroke="orange" points="1155.52,-28.96 1145.23,-31.49 1154.85,-35.93 1155.52,-28.96"/>
<text text-anchor="middle" x="1202.5" y="-44" font-family="FreeSans" font-size="10.00"> &lt; Point, double &gt;</text>
</g>
<!-- Node10&#45;&gt;Node2 -->
<g id="edge11" class="edge">
<title>Node10&#45;&gt;Node2</title>
<path fill="none" stroke="orange" stroke-dasharray="5,2" d="M1709.27,-29.94C1755.64,-33.8 1809.14,-38.26 1852.74,-41.89"/>
<polygon fill="orange" stroke="orange" points="1709.44,-26.44 1699.19,-29.1 1708.86,-33.42 1709.44,-26.44"/>
<text text-anchor="start" x="1717" y="-54" font-family="FreeSans" font-size="10.00"> &lt; DSSComputer, detail</text>
<text text-anchor="middle" x="1776" y="-43" font-family="FreeSans" font-size="10.00">::TangentAngleFromDSS &gt;</text>
</g>
</g>
</svg>
