<?xml version="1.0" encoding="UTF-8" standalone="no"?>
<!DOCTYPE svg PUBLIC "-//W3C//DTD SVG 1.1//EN"
 "http://www.w3.org/Graphics/SVG/1.1/DTD/svg11.dtd">
<!-- Generated by graphviz version 2.44.1 (20200629.0846)
 -->
<!-- Title: DGtal::functors::SimpleThresholdForegroundPredicate&lt; Image &gt; Pages: 1 -->
<svg width="250pt" height="396pt"
 viewBox="0.00 0.00 250.00 396.00" xmlns="http://www.w3.org/2000/svg" xmlns:xlink="http://www.w3.org/1999/xlink">
<g id="graph0" class="graph" transform="scale(1 1) rotate(0) translate(4 392)">
<title>DGtal::functors::SimpleThresholdForegroundPredicate&lt; Image &gt;</title>
<polygon fill="white" stroke="transparent" points="-4,4 -4,-392 246,-392 246,4 -4,4"/>
<!-- Node1 -->
<g id="node1" class="node">
<title>Node1</title>
<g id="a_node1"><a xlink:title="Aim: Define a simple Foreground predicate thresholding image values given a single thresold....">
<polygon fill="#bfbfbf" stroke="black" points="32,-0.5 32,-30.5 194,-30.5 194,-0.5 32,-0.5"/>
<text text-anchor="start" x="40" y="-18.5" font-family="FreeSans" font-size="10.00">DGtal::functors::SimpleThreshold</text>
<text text-anchor="middle" x="113" y="-7.5" font-family="FreeSans" font-size="10.00">ForegroundPredicate&lt; Image &gt;</text>
</a>
</g>
</g>
<!-- Node2 -->
<g id="node2" class="node">
<title>Node2</title>
<g id="a_node2"><a xlink:href="classDGtal_1_1Image.html" target="_top" xlink:title="Aim: implements association bewteen points lying in a digital domain and values.">
<polygon fill="white" stroke="black" points="29,-78.5 29,-97.5 197,-97.5 197,-78.5 29,-78.5"/>
<text text-anchor="middle" x="113" y="-85.5" font-family="FreeSans" font-size="10.00">DGtal::Image&lt; TImageContainer &gt;</text>
</a>
</g>
</g>
<!-- Node2&#45;&gt;Node1 -->
<g id="edge1" class="edge">
<title>Node2&#45;&gt;Node1</title>
<path fill="none" stroke="#9a32cd" stroke-dasharray="5,2" d="M113,-68.24C113,-56.41 113,-41.38 113,-30.58"/>
<polygon fill="#9a32cd" stroke="#9a32cd" points="109.5,-68.36 113,-78.36 116.5,-68.36 109.5,-68.36"/>
<text text-anchor="middle" x="135" y="-52" font-family="FreeSans" font-size="10.00"> myImage</text>
</g>
<!-- Node3 -->
<g id="node3" class="node">
<title>Node3</title>
<g id="a_node3"><a xlink:href="classDGtal_1_1CowPtr.html" target="_top" xlink:title=" ">
<polygon fill="white" stroke="black" points="26,-145.5 26,-164.5 200,-164.5 200,-145.5 26,-145.5"/>
<text text-anchor="middle" x="113" y="-152.5" font-family="FreeSans" font-size="10.00">DGtal::CowPtr&lt; TImageContainer &gt;</text>
</a>
</g>
</g>
<!-- Node3&#45;&gt;Node2 -->
<g id="edge2" class="edge">
<title>Node3&#45;&gt;Node2</title>
<path fill="none" stroke="#9a32cd" stroke-dasharray="5,2" d="M113,-135.04C113,-122.67 113,-107.12 113,-97.63"/>
<polygon fill="#9a32cd" stroke="#9a32cd" points="109.5,-135.23 113,-145.23 116.5,-135.23 109.5,-135.23"/>
<text text-anchor="middle" x="150.5" y="-119" font-family="FreeSans" font-size="10.00"> myImagePointer</text>
</g>
<!-- Node4 -->
<g id="node4" class="node">
<title>Node4</title>
<g id="a_node4"><a xlink:href="classDGtal_1_1CountedPtr.html" target="_top" xlink:title=" ">
<polygon fill="white" stroke="black" points="0,-212.5 0,-242.5 104,-242.5 104,-212.5 0,-212.5"/>
<text text-anchor="start" x="8" y="-230.5" font-family="FreeSans" font-size="10.00">DGtal::CountedPtr&lt;</text>
<text text-anchor="middle" x="52" y="-219.5" font-family="FreeSans" font-size="10.00"> TImageContainer &gt;</text>
</a>
</g>
</g>
<!-- Node4&#45;&gt;Node3 -->
<g id="edge3" class="edge">
<title>Node4&#45;&gt;Node3</title>
<path fill="none" stroke="#9a32cd" stroke-dasharray="5,2" d="M71.14,-204.38C82.69,-191.04 96.77,-174.76 105.31,-164.89"/>
<polygon fill="#9a32cd" stroke="#9a32cd" points="68.24,-202.38 64.34,-212.23 73.53,-206.96 68.24,-202.38"/>
<text text-anchor="middle" x="103" y="-186" font-family="FreeSans" font-size="10.00"> myPtr</text>
</g>
<!-- Node5 -->
<g id="node5" class="node">
<title>Node5</title>
<g id="a_node5"><a xlink:href="structDGtal_1_1CountedPtr_1_1Counter.html" target="_top" xlink:title=" ">
<polygon fill="white" stroke="black" points="0,-357.5 0,-387.5 104,-387.5 104,-357.5 0,-357.5"/>
<text text-anchor="start" x="8" y="-375.5" font-family="FreeSans" font-size="10.00">DGtal::CountedPtr&lt;</text>
<text text-anchor="middle" x="52" y="-364.5" font-family="FreeSans" font-size="10.00"> T &gt;::Counter</text>
</a>
</g>
</g>
<!-- Node5&#45;&gt;Node4 -->
<g id="edge4" class="edge">
<title>Node5&#45;&gt;Node4</title>
<path fill="none" stroke="#9a32cd" stroke-dasharray="5,2" d="M48.09,-347.16C45.94,-330.98 43.91,-309.24 45,-290 45.93,-273.69 48.22,-255.07 49.93,-242.63"/>
<polygon fill="#9a32cd" stroke="#9a32cd" points="44.67,-347.98 49.56,-357.38 51.6,-346.99 44.67,-347.98"/>
<text text-anchor="middle" x="71" y="-297.5" font-family="FreeSans" font-size="10.00"> myCounter</text>
</g>
<!-- Node6 -->
<g id="node6" class="node">
<title>Node6</title>
<g id="a_node6"><a xlink:href="classDGtal_1_1CountedPtr.html" target="_top" xlink:title="Aim: Smart pointer based on reference counts.">
<polygon fill="white" stroke="black" points="106,-290.5 106,-309.5 228,-309.5 228,-290.5 106,-290.5"/>
<text text-anchor="middle" x="167" y="-297.5" font-family="FreeSans" font-size="10.00">DGtal::CountedPtr&lt; T &gt;</text>
</a>
</g>
</g>
<!-- Node5&#45;&gt;Node6 -->
<g id="edge6" class="edge">
<title>Node5&#45;&gt;Node6</title>
<path fill="none" stroke="#9a32cd" stroke-dasharray="5,2" d="M83.65,-352.1C106.4,-338.15 135.97,-320.02 153.08,-309.53"/>
<polygon fill="#9a32cd" stroke="#9a32cd" points="81.69,-349.19 75,-357.4 85.35,-355.16 81.69,-349.19"/>
<text text-anchor="middle" x="146" y="-331" font-family="FreeSans" font-size="10.00"> myCounter</text>
</g>
<!-- Node6&#45;&gt;Node4 -->
<g id="edge5" class="edge">
<title>Node6&#45;&gt;Node4</title>
<path fill="none" stroke="orange" stroke-dasharray="5,2" d="M144.11,-284.97C124.05,-272.67 95.04,-254.89 74.96,-242.58"/>
<polygon fill="orange" stroke="orange" points="142.54,-288.11 152.9,-290.36 146.2,-282.14 142.54,-288.11"/>
<text text-anchor="middle" x="168.5" y="-264" font-family="FreeSans" font-size="10.00"> &lt; TImageContainer &gt;</text>
</g>
<!-- Node7 -->
<g id="node7" class="node">
<title>Node7</title>
<g id="a_node7"><a xlink:href="classDGtal_1_1CowPtr.html" target="_top" xlink:title="Aim: Copy on write shared pointer.">
<polygon fill="white" stroke="black" points="122.5,-218 122.5,-237 227.5,-237 227.5,-218 122.5,-218"/>
<text text-anchor="middle" x="175" y="-225" font-family="FreeSans" font-size="10.00">DGtal::CowPtr&lt; T &gt;</text>
</a>
</g>
</g>
<!-- Node7&#45;&gt;Node3 -->
<g id="edge7" class="edge">
<title>Node7&#45;&gt;Node3</title>
<path fill="none" stroke="orange" stroke-dasharray="5,2" d="M160.75,-210.3C148.28,-196.12 130.64,-176.06 120.66,-164.72"/>
<polygon fill="orange" stroke="orange" points="158.17,-212.66 167.4,-217.86 163.42,-208.03 158.17,-212.66"/>
<text text-anchor="middle" x="193.5" y="-186" font-family="FreeSans" font-size="10.00"> &lt; TImageContainer &gt;</text>
</g>
</g>
</svg>
