<?xml version="1.0" encoding="UTF-8" standalone="no"?>
<!DOCTYPE svg PUBLIC "-//W3C//DTD SVG 1.1//EN"
 "http://www.w3.org/Graphics/SVG/1.1/DTD/svg11.dtd">
<!-- Generated by graphviz version 2.44.1 (20200629.0846)
 -->
<!-- Title: DGtal::ModuloComputer&lt; TInteger &gt; Pages: 1 -->
<svg width="1063pt" height="88pt"
 viewBox="0.00 0.00 1063.00 87.50" xmlns="http://www.w3.org/2000/svg" xmlns:xlink="http://www.w3.org/1999/xlink">
<g id="graph0" class="graph" transform="scale(1 1) rotate(0) translate(4 83.5)">
<title>DGtal::ModuloComputer&lt; TInteger &gt;</title>
<polygon fill="white" stroke="transparent" points="-4,4 -4,-83.5 1059,-83.5 1059,4 -4,4"/>
<!-- Node1 -->
<g id="node1" class="node">
<title>Node1</title>
<g id="a_node1"><a xlink:title="implements basic functions on modular arithmetic.">
<polygon fill="#bfbfbf" stroke="black" points="933,-27.5 933,-57.5 1055,-57.5 1055,-27.5 933,-27.5"/>
<text text-anchor="start" x="941" y="-45.5" font-family="FreeSans" font-size="10.00">DGtal::ModuloComputer</text>
<text text-anchor="middle" x="994" y="-34.5" font-family="FreeSans" font-size="10.00">&lt; TInteger &gt;</text>
</a>
</g>
</g>
<!-- Node2 -->
<g id="node2" class="node">
<title>Node2</title>
<g id="a_node2"><a xlink:href="structDGtal_1_1NumberTraits.html" target="_top" xlink:title=" ">
<polygon fill="white" stroke="black" points="781,-27.5 781,-57.5 888,-57.5 888,-27.5 781,-27.5"/>
<text text-anchor="start" x="789" y="-45.5" font-family="FreeSans" font-size="10.00">DGtal::NumberTraits</text>
<text text-anchor="middle" x="834.5" y="-34.5" font-family="FreeSans" font-size="10.00">&lt; TInteger &gt;</text>
</a>
</g>
</g>
<!-- Node2&#45;&gt;Node1 -->
<g id="edge1" class="edge">
<title>Node2&#45;&gt;Node1</title>
<path fill="none" stroke="#9a32cd" stroke-dasharray="5,2" d="M898.62,-42.5C909.93,-42.5 921.7,-42.5 932.92,-42.5"/>
<polygon fill="#9a32cd" stroke="#9a32cd" points="898.38,-39 888.38,-42.5 898.38,-46 898.38,-39"/>
<text text-anchor="middle" x="910.5" y="-45.5" font-family="FreeSans" font-size="10.00"> k</text>
</g>
<!-- Node3 -->
<g id="node3" class="node">
<title>Node3</title>
<g id="a_node3"><a xlink:href="structDGtal_1_1NumberTraitsImpl.html" target="_top" xlink:title=" ">
<polygon fill="white" stroke="black" points="412,-38 412,-79 538,-79 538,-38 412,-38"/>
<text text-anchor="start" x="420" y="-67" font-family="FreeSans" font-size="10.00">DGtal::NumberTraitsImpl</text>
<text text-anchor="start" x="420" y="-56" font-family="FreeSans" font-size="10.00">&lt; std::decay&lt; TInteger</text>
<text text-anchor="middle" x="475" y="-45" font-family="FreeSans" font-size="10.00"> &gt;::type &gt;</text>
</a>
</g>
</g>
<!-- Node3&#45;&gt;Node2 -->
<g id="edge2" class="edge">
<title>Node3&#45;&gt;Node2</title>
<path fill="none" stroke="midnightblue" d="M548.62,-55.25C617.57,-52.16 719.54,-47.6 780.95,-44.85"/>
<polygon fill="midnightblue" stroke="midnightblue" points="548.11,-51.77 538.27,-55.71 548.42,-58.76 548.11,-51.77"/>
</g>
<!-- Node4 -->
<g id="node4" class="node">
<title>Node4</title>
<g id="a_node4"><a xlink:href="structDGtal_1_1NumberTraitsImpl.html" target="_top" xlink:title="Aim: The traits class for all models of Cinteger (implementation)">
<polygon fill="white" stroke="black" points="0,-21.5 0,-51.5 126,-51.5 126,-21.5 0,-21.5"/>
<text text-anchor="start" x="8" y="-39.5" font-family="FreeSans" font-size="10.00">DGtal::NumberTraitsImpl</text>
<text text-anchor="middle" x="63" y="-28.5" font-family="FreeSans" font-size="10.00">&lt; T, Enable &gt;</text>
</a>
</g>
</g>
<!-- Node4&#45;&gt;Node3 -->
<g id="edge3" class="edge">
<title>Node4&#45;&gt;Node3</title>
<path fill="none" stroke="orange" stroke-dasharray="5,2" d="M136.52,-40.39C214.72,-44.59 337.89,-51.2 411.82,-55.16"/>
<polygon fill="orange" stroke="orange" points="136.44,-36.88 126.27,-39.84 136.07,-43.87 136.44,-36.88"/>
<text text-anchor="start" x="144" y="-60.5" font-family="FreeSans" font-size="10.00"> &lt; std::decay&lt; TInteger</text>
<text text-anchor="middle" x="195.5" y="-49.5" font-family="FreeSans" font-size="10.00"> &gt;::type &gt;</text>
</g>
<!-- Node6 -->
<g id="node6" class="node">
<title>Node6</title>
<g id="a_node6"><a xlink:href="structDGtal_1_1NumberTraitsImpl.html" target="_top" xlink:title=" ">
<polygon fill="white" stroke="black" points="265,-0.5 265,-30.5 394,-30.5 394,-0.5 265,-0.5"/>
<text text-anchor="start" x="273" y="-18.5" font-family="FreeSans" font-size="10.00">DGtal::NumberTraitsImpl</text>
<text text-anchor="middle" x="329.5" y="-7.5" font-family="FreeSans" font-size="10.00">&lt; std::decay&lt; T &gt;::type &gt;</text>
</a>
</g>
</g>
<!-- Node4&#45;&gt;Node6 -->
<g id="edge6" class="edge">
<title>Node4&#45;&gt;Node6</title>
<path fill="none" stroke="orange" stroke-dasharray="5,2" d="M123.21,-19.16C130.17,-17.66 137.21,-16.38 144,-15.5 183.87,-10.35 228.99,-10.25 264.63,-11.49"/>
<polygon fill="orange" stroke="orange" points="122.06,-15.83 113.11,-21.49 123.64,-22.65 122.06,-15.83"/>
<text text-anchor="start" x="151.5" y="-29.5" font-family="FreeSans" font-size="10.00"> &lt; std::decay&lt; T &gt;::</text>
<text text-anchor="middle" x="195.5" y="-18.5" font-family="FreeSans" font-size="10.00">type &gt;</text>
</g>
<!-- Node5 -->
<g id="node5" class="node">
<title>Node5</title>
<g id="a_node5"><a xlink:href="structDGtal_1_1NumberTraits.html" target="_top" xlink:title="Aim: The traits class for all models of Cinteger.">
<polygon fill="white" stroke="black" points="556,-10 556,-29 687,-29 687,-10 556,-10"/>
<text text-anchor="middle" x="621.5" y="-17" font-family="FreeSans" font-size="10.00">DGtal::NumberTraits&lt; T &gt;</text>
</a>
</g>
</g>
<!-- Node5&#45;&gt;Node2 -->
<g id="edge4" class="edge">
<title>Node5&#45;&gt;Node2</title>
<path fill="none" stroke="orange" stroke-dasharray="5,2" d="M697.48,-26.58C718.68,-28.69 741.75,-31.09 763,-33.5 768.76,-34.15 774.78,-34.87 780.78,-35.61"/>
<polygon fill="orange" stroke="orange" points="697.54,-23.07 687.24,-25.57 696.85,-30.04 697.54,-23.07"/>
<text text-anchor="middle" x="734" y="-36.5" font-family="FreeSans" font-size="10.00"> &lt; TInteger &gt;</text>
</g>
<!-- Node6&#45;&gt;Node5 -->
<g id="edge5" class="edge">
<title>Node6&#45;&gt;Node5</title>
<path fill="none" stroke="midnightblue" d="M404.21,-16.52C450.95,-17.16 510.85,-17.99 555.75,-18.61"/>
<polygon fill="midnightblue" stroke="midnightblue" points="404.19,-13.02 394.14,-16.38 404.09,-20.02 404.19,-13.02"/>
</g>
</g>
</svg>
