<?xml version="1.0" encoding="UTF-8" standalone="no"?>
<!DOCTYPE svg PUBLIC "-//W3C//DTD SVG 1.1//EN"
 "http://www.w3.org/Graphics/SVG/1.1/DTD/svg11.dtd">
<!-- Generated by graphviz version 2.44.1 (20200629.0846)
 -->
<!-- Title: Graphical Class Hierarchy Pages: 1 -->
<svg width="295pt" height="963pt"
 viewBox="0.00 0.00 295.00 963.00" xmlns="http://www.w3.org/2000/svg" xmlns:xlink="http://www.w3.org/1999/xlink">
<g id="graph0" class="graph" transform="scale(1 1) rotate(0) translate(4 959)">
<title>Graphical Class Hierarchy</title>
<polygon fill="white" stroke="transparent" points="-4,4 -4,-959 291,-959 291,4 -4,4"/>
<!-- Node614 -->
<g id="node1" class="node">
<title>Node614</title>
<g id="a_node1"><a xlink:title=" ">
<polygon fill="white" stroke="#bfbfbf" points="0,-437 0,-456 81,-456 81,-437 0,-437"/>
<text text-anchor="middle" x="40.5" y="-444" font-family="FreeSans" font-size="10.00">iterator_facade</text>
</a>
</g>
</g>
<!-- Node0 -->
<g id="node2" class="node">
<title>Node0</title>
<g id="a_node2"><a xlink:href="classboost_1_1graph__traits_3_01DGtal_1_1DigitalSurface_3_01TDigitalSurfaceContainer_01_4_01_4_1_1adjacency__iterator.html" target="_top" xlink:title=" ">
<polygon fill="white" stroke="black" points="134.5,-902.5 134.5,-954.5 269.5,-954.5 269.5,-902.5 134.5,-902.5"/>
<text text-anchor="start" x="142.5" y="-942.5" font-family="FreeSans" font-size="10.00">boost::graph_traits</text>
<text text-anchor="start" x="142.5" y="-931.5" font-family="FreeSans" font-size="10.00">&lt; DGtal::DigitalSurface</text>
<text text-anchor="start" x="142.5" y="-920.5" font-family="FreeSans" font-size="10.00">&lt; TDigitalSurfaceContainer</text>
<text text-anchor="middle" x="202" y="-909.5" font-family="FreeSans" font-size="10.00"> &gt; &gt;::adjacency_iterator</text>
</a>
</g>
</g>
<!-- Node614&#45;&gt;Node0 -->
<g id="edge1" class="edge">
<title>Node614&#45;&gt;Node0</title>
<path fill="none" stroke="midnightblue" d="M42.35,-466.3C46.06,-543.82 63.08,-825.67 117,-893.5 121.72,-899.44 127.62,-904.38 134.1,-908.49"/>
<polygon fill="midnightblue" stroke="midnightblue" points="45.84,-465.87 41.88,-456.04 38.84,-466.19 45.84,-465.87"/>
</g>
<!-- Node616 -->
<g id="node3" class="node">
<title>Node616</title>
<g id="a_node3"><a xlink:href="classboost_1_1graph__traits_3_01DGtal_1_1DigitalSurface_3_01TDigitalSurfaceContainer_01_4_01_4_1_1edge__iterator.html" target="_top" xlink:title=" ">
<polygon fill="white" stroke="black" points="134.5,-831.5 134.5,-883.5 269.5,-883.5 269.5,-831.5 134.5,-831.5"/>
<text text-anchor="start" x="142.5" y="-871.5" font-family="FreeSans" font-size="10.00">boost::graph_traits</text>
<text text-anchor="start" x="142.5" y="-860.5" font-family="FreeSans" font-size="10.00">&lt; DGtal::DigitalSurface</text>
<text text-anchor="start" x="142.5" y="-849.5" font-family="FreeSans" font-size="10.00">&lt; TDigitalSurfaceContainer</text>
<text text-anchor="middle" x="202" y="-838.5" font-family="FreeSans" font-size="10.00"> &gt; &gt;::edge_iterator</text>
</a>
</g>
</g>
<!-- Node614&#45;&gt;Node616 -->
<g id="edge2" class="edge">
<title>Node614&#45;&gt;Node616</title>
<path fill="none" stroke="midnightblue" d="M43.04,-466.2C48.81,-535.48 71.2,-766.67 117,-822.5 121.81,-828.36 127.77,-833.26 134.28,-837.34"/>
<polygon fill="midnightblue" stroke="midnightblue" points="46.52,-465.88 42.23,-456.2 39.55,-466.45 46.52,-465.88"/>
</g>
<!-- Node617 -->
<g id="node4" class="node">
<title>Node617</title>
<g id="a_node4"><a xlink:href="classboost_1_1graph__traits_3_01DGtal_1_1DigitalSurface_3_01TDigitalSurfaceContainer_01_4_01_4_1_1out__edge__iterator.html" target="_top" xlink:title=" ">
<polygon fill="white" stroke="black" points="134.5,-760.5 134.5,-812.5 269.5,-812.5 269.5,-760.5 134.5,-760.5"/>
<text text-anchor="start" x="142.5" y="-800.5" font-family="FreeSans" font-size="10.00">boost::graph_traits</text>
<text text-anchor="start" x="142.5" y="-789.5" font-family="FreeSans" font-size="10.00">&lt; DGtal::DigitalSurface</text>
<text text-anchor="start" x="142.5" y="-778.5" font-family="FreeSans" font-size="10.00">&lt; TDigitalSurfaceContainer</text>
<text text-anchor="middle" x="202" y="-767.5" font-family="FreeSans" font-size="10.00"> &gt; &gt;::out_edge_iterator</text>
</a>
</g>
</g>
<!-- Node614&#45;&gt;Node617 -->
<g id="edge3" class="edge">
<title>Node614&#45;&gt;Node617</title>
<path fill="none" stroke="midnightblue" d="M40.66,-466.11C39.47,-518.87 43.35,-665.7 117,-751.5 121.84,-757.13 127.73,-761.88 134.12,-765.87"/>
<polygon fill="midnightblue" stroke="midnightblue" points="44.16,-466.18 40.98,-456.07 37.16,-465.95 44.16,-466.18"/>
</g>
<!-- Node618 -->
<g id="node5" class="node">
<title>Node618</title>
<g id="a_node5"><a xlink:href="classboost_1_1graph__traits_3_01DGtal_1_1Object_3_01TDigitalTopology_00_01TDigitalSet_01_4_01_4_1_1adjacency__iterator.html" target="_top" xlink:title=" ">
<polygon fill="white" stroke="black" points="117.5,-689.5 117.5,-741.5 286.5,-741.5 286.5,-689.5 117.5,-689.5"/>
<text text-anchor="start" x="125.5" y="-729.5" font-family="FreeSans" font-size="10.00">boost::graph_traits</text>
<text text-anchor="start" x="125.5" y="-718.5" font-family="FreeSans" font-size="10.00">&lt; DGtal::Object&lt; TDigitalTopology,</text>
<text text-anchor="start" x="125.5" y="-707.5" font-family="FreeSans" font-size="10.00"> TDigitalSet &gt; &gt;::adjacency</text>
<text text-anchor="middle" x="202" y="-696.5" font-family="FreeSans" font-size="10.00">_iterator</text>
</a>
</g>
</g>
<!-- Node614&#45;&gt;Node618 -->
<g id="edge4" class="edge">
<title>Node614&#45;&gt;Node618</title>
<path fill="none" stroke="midnightblue" d="M42.57,-466.58C45.95,-510.66 59.91,-616.93 117,-679.5 120.32,-683.13 124.06,-686.41 128.08,-689.38"/>
<polygon fill="midnightblue" stroke="midnightblue" points="46.04,-466.08 41.89,-456.33 39.06,-466.54 46.04,-466.08"/>
</g>
<!-- Node619 -->
<g id="node6" class="node">
<title>Node619</title>
<g id="a_node6"><a xlink:href="classboost_1_1graph__traits_3_01DGtal_1_1Object_3_01TDigitalTopology_00_01TDigitalSet_01_4_01_4_1_1edge__iterator.html" target="_top" xlink:title=" ">
<polygon fill="white" stroke="black" points="117.5,-629 117.5,-670 286.5,-670 286.5,-629 117.5,-629"/>
<text text-anchor="start" x="125.5" y="-658" font-family="FreeSans" font-size="10.00">boost::graph_traits</text>
<text text-anchor="start" x="125.5" y="-647" font-family="FreeSans" font-size="10.00">&lt; DGtal::Object&lt; TDigitalTopology,</text>
<text text-anchor="middle" x="202" y="-636" font-family="FreeSans" font-size="10.00"> TDigitalSet &gt; &gt;::edge_iterator</text>
</a>
</g>
</g>
<!-- Node614&#45;&gt;Node619 -->
<g id="edge5" class="edge">
<title>Node614&#45;&gt;Node619</title>
<path fill="none" stroke="midnightblue" d="M44.85,-466.37C51.87,-501.98 71.4,-576.92 117,-619.5 120.74,-622.99 124.9,-626.07 129.33,-628.81"/>
<polygon fill="midnightblue" stroke="midnightblue" points="48.24,-465.48 42.99,-456.28 41.36,-466.75 48.24,-465.48"/>
</g>
<!-- Node620 -->
<g id="node7" class="node">
<title>Node620</title>
<g id="a_node7"><a xlink:href="classboost_1_1graph__traits_3_01DGtal_1_1Object_3_01TDigitalTopology_00_01TDigitalSet_01_4_01_4_1_1out__edge__iterator.html" target="_top" xlink:title=" ">
<polygon fill="white" stroke="black" points="117.5,-569 117.5,-610 286.5,-610 286.5,-569 117.5,-569"/>
<text text-anchor="start" x="125.5" y="-598" font-family="FreeSans" font-size="10.00">boost::graph_traits</text>
<text text-anchor="start" x="125.5" y="-587" font-family="FreeSans" font-size="10.00">&lt; DGtal::Object&lt; TDigitalTopology,</text>
<text text-anchor="middle" x="202" y="-576" font-family="FreeSans" font-size="10.00"> TDigitalSet &gt; &gt;::out_edge_iterator</text>
</a>
</g>
</g>
<!-- Node614&#45;&gt;Node620 -->
<g id="edge6" class="edge">
<title>Node614&#45;&gt;Node620</title>
<path fill="none" stroke="midnightblue" d="M49.61,-465.65C61.12,-490.63 84.44,-534.11 117,-559.5 121.52,-563.02 126.48,-566.16 131.68,-568.94"/>
<polygon fill="midnightblue" stroke="midnightblue" points="52.67,-463.91 45.42,-456.19 46.27,-466.75 52.67,-463.91"/>
</g>
<!-- Node621 -->
<g id="node8" class="node">
<title>Node621</title>
<g id="a_node8"><a xlink:href="classDGtal_1_1ArithmeticalDSL_1_1ConstIterator.html" target="_top" xlink:title="Aim: This class aims at representing an iterator that provides a way to scan the points of a DSL....">
<polygon fill="white" stroke="black" points="134,-509 134,-550 270,-550 270,-509 134,-509"/>
<text text-anchor="start" x="142" y="-538" font-family="FreeSans" font-size="10.00">DGtal::ArithmeticalDSL</text>
<text text-anchor="start" x="142" y="-527" font-family="FreeSans" font-size="10.00">&lt; TCoordinate, TInteger,</text>
<text text-anchor="middle" x="202" y="-516" font-family="FreeSans" font-size="10.00"> adjacency &gt;::ConstIterator</text>
</a>
</g>
</g>
<!-- Node614&#45;&gt;Node621 -->
<g id="edge7" class="edge">
<title>Node614&#45;&gt;Node621</title>
<path fill="none" stroke="midnightblue" d="M61.03,-462.43C75.75,-473.86 96.79,-489.04 117,-499.5 123.46,-502.85 130.39,-505.97 137.38,-508.85"/>
<polygon fill="midnightblue" stroke="midnightblue" points="63.16,-459.65 53.15,-456.19 58.82,-465.14 63.16,-459.65"/>
</g>
<!-- Node622 -->
<g id="node9" class="node">
<title>Node622</title>
<g id="a_node9"><a xlink:href="classDGtal_1_1ArrayImageIterator.html" target="_top" xlink:title="Aim: Random access iterator over an image given his definition domain and viewable domain.">
<polygon fill="white" stroke="black" points="137.5,-459.5 137.5,-489.5 266.5,-489.5 266.5,-459.5 137.5,-459.5"/>
<text text-anchor="start" x="145.5" y="-477.5" font-family="FreeSans" font-size="10.00">DGtal::ArrayImageIterator</text>
<text text-anchor="middle" x="202" y="-466.5" font-family="FreeSans" font-size="10.00">&lt; TIterableClass &gt;</text>
</a>
</g>
</g>
<!-- Node614&#45;&gt;Node622 -->
<g id="edge8" class="edge">
<title>Node614&#45;&gt;Node622</title>
<path fill="none" stroke="midnightblue" d="M91.2,-455.22C105.86,-457.8 122.1,-460.65 137.5,-463.35"/>
<polygon fill="midnightblue" stroke="midnightblue" points="91.79,-451.78 81.34,-453.49 90.58,-458.67 91.79,-451.78"/>
</g>
<!-- Node623 -->
<g id="node10" class="node">
<title>Node623</title>
<g id="a_node10"><a xlink:href="structDGtal_1_1CubicalComplex_1_1ConstIterator.html" target="_top" xlink:title=" ">
<polygon fill="white" stroke="black" points="133.5,-399 133.5,-440 270.5,-440 270.5,-399 133.5,-399"/>
<text text-anchor="start" x="141.5" y="-428" font-family="FreeSans" font-size="10.00">DGtal::CubicalComplex</text>
<text text-anchor="start" x="141.5" y="-417" font-family="FreeSans" font-size="10.00">&lt; TKSpace, TCellContainer</text>
<text text-anchor="middle" x="202" y="-406" font-family="FreeSans" font-size="10.00"> &gt;::ConstIterator</text>
</a>
</g>
</g>
<!-- Node614&#45;&gt;Node623 -->
<g id="edge9" class="edge">
<title>Node614&#45;&gt;Node623</title>
<path fill="none" stroke="midnightblue" d="M91.27,-438.08C104.63,-435.81 119.31,-433.33 133.46,-430.93"/>
<polygon fill="midnightblue" stroke="midnightblue" points="90.61,-434.64 81.34,-439.76 91.78,-441.54 90.61,-434.64"/>
</g>
<!-- Node624 -->
<g id="node11" class="node">
<title>Node624</title>
<g id="a_node11"><a xlink:href="structDGtal_1_1CubicalComplex_1_1Iterator.html" target="_top" xlink:title=" ">
<polygon fill="white" stroke="black" points="133.5,-339 133.5,-380 270.5,-380 270.5,-339 133.5,-339"/>
<text text-anchor="start" x="141.5" y="-368" font-family="FreeSans" font-size="10.00">DGtal::CubicalComplex</text>
<text text-anchor="start" x="141.5" y="-357" font-family="FreeSans" font-size="10.00">&lt; TKSpace, TCellContainer</text>
<text text-anchor="middle" x="202" y="-346" font-family="FreeSans" font-size="10.00"> &gt;::Iterator</text>
</a>
</g>
</g>
<!-- Node614&#45;&gt;Node624 -->
<g id="edge10" class="edge">
<title>Node614&#45;&gt;Node624</title>
<path fill="none" stroke="midnightblue" d="M59.82,-430.14C74.47,-417.7 95.98,-400.84 117,-389.5 123.27,-386.12 130,-382.98 136.82,-380.11"/>
<polygon fill="midnightblue" stroke="midnightblue" points="57.3,-427.69 52.04,-436.88 61.89,-432.98 57.3,-427.69"/>
</g>
<!-- Node625 -->
<g id="node12" class="node">
<title>Node625</title>
<g id="a_node12"><a xlink:href="classDGtal_1_1HyperRectDomain__Iterator.html" target="_top" xlink:title="Iterator for HyperRectDomain.">
<polygon fill="white" stroke="black" points="137.5,-289.5 137.5,-319.5 266.5,-319.5 266.5,-289.5 137.5,-289.5"/>
<text text-anchor="start" x="145.5" y="-307.5" font-family="FreeSans" font-size="10.00">DGtal::HyperRectDomain</text>
<text text-anchor="middle" x="202" y="-296.5" font-family="FreeSans" font-size="10.00">_Iterator&lt; TPoint &gt;</text>
</a>
</g>
</g>
<!-- Node614&#45;&gt;Node625 -->
<g id="edge11" class="edge">
<title>Node614&#45;&gt;Node625</title>
<path fill="none" stroke="midnightblue" d="M48.75,-427.52C59.64,-401.56 82.66,-355.25 117,-329.5 123.09,-324.94 130,-321.2 137.18,-318.14"/>
<polygon fill="midnightblue" stroke="midnightblue" points="45.43,-426.41 44.95,-436.99 51.92,-429.02 45.43,-426.41"/>
</g>
<!-- Node626 -->
<g id="node13" class="node">
<title>Node626</title>
<g id="a_node13"><a xlink:href="classDGtal_1_1HyperRectDomain__ReverseIterator.html" target="_top" xlink:title="Reverse iterator for HyperRectDomain.">
<polygon fill="white" stroke="black" points="130,-240.5 130,-270.5 274,-270.5 274,-240.5 130,-240.5"/>
<text text-anchor="start" x="138" y="-258.5" font-family="FreeSans" font-size="10.00">DGtal::HyperRectDomain</text>
<text text-anchor="middle" x="202" y="-247.5" font-family="FreeSans" font-size="10.00">_ReverseIterator&lt; TIterator &gt;</text>
</a>
</g>
</g>
<!-- Node614&#45;&gt;Node626 -->
<g id="edge12" class="edge">
<title>Node614&#45;&gt;Node626</title>
<path fill="none" stroke="midnightblue" d="M44.97,-426.73C52.11,-391.99 71.74,-319.92 117,-280.5 121.47,-276.6 126.54,-273.31 131.9,-270.53"/>
<polygon fill="midnightblue" stroke="midnightblue" points="41.45,-426.5 43.01,-436.98 48.33,-427.82 41.45,-426.5"/>
</g>
<!-- Node627 -->
<g id="node14" class="node">
<title>Node627</title>
<g id="a_node14"><a xlink:href="classDGtal_1_1HyperRectDomain__subIterator.html" target="_top" xlink:title=" ">
<polygon fill="white" stroke="black" points="137.5,-191.5 137.5,-221.5 266.5,-221.5 266.5,-191.5 137.5,-191.5"/>
<text text-anchor="start" x="145.5" y="-209.5" font-family="FreeSans" font-size="10.00">DGtal::HyperRectDomain</text>
<text text-anchor="middle" x="202" y="-198.5" font-family="FreeSans" font-size="10.00">_subIterator&lt; TPoint &gt;</text>
</a>
</g>
</g>
<!-- Node614&#45;&gt;Node627 -->
<g id="edge13" class="edge">
<title>Node614&#45;&gt;Node627</title>
<path fill="none" stroke="midnightblue" d="M42.64,-426.62C46.16,-384.46 60.33,-285.49 117,-231.5 122.84,-225.94 129.86,-221.61 137.32,-218.24"/>
<polygon fill="midnightblue" stroke="midnightblue" points="39.15,-426.49 41.92,-436.71 46.13,-426.99 39.15,-426.49"/>
</g>
<!-- Node628 -->
<g id="node15" class="node">
<title>Node628</title>
<g id="a_node15"><a xlink:href="classDGtal_1_1IntegerSequenceIterator.html" target="_top" xlink:title="Aim: It is a simple class that mimics a (non mutable) iterator over integers. You can increment it,...">
<polygon fill="white" stroke="black" points="126,-142.5 126,-172.5 278,-172.5 278,-142.5 126,-142.5"/>
<text text-anchor="start" x="134" y="-160.5" font-family="FreeSans" font-size="10.00">DGtal::IntegerSequenceIterator</text>
<text text-anchor="middle" x="202" y="-149.5" font-family="FreeSans" font-size="10.00">&lt; TInteger &gt;</text>
</a>
</g>
</g>
<!-- Node614&#45;&gt;Node628 -->
<g id="edge14" class="edge">
<title>Node614&#45;&gt;Node628</title>
<path fill="none" stroke="midnightblue" d="M41.11,-426.9C41.26,-378.4 48.56,-251.68 117,-182.5 120.85,-178.61 125.28,-175.31 130.05,-172.53"/>
<polygon fill="midnightblue" stroke="midnightblue" points="37.61,-427.01 41.19,-436.99 44.61,-426.96 37.61,-427.01"/>
</g>
<!-- Node629 -->
<g id="node16" class="node">
<title>Node629</title>
<g id="a_node16"><a xlink:href="structDGtal_1_1UnorderedSetByBlock_1_1const__iterator.html" target="_top" xlink:title="Read iterator on set elements. Model of ForwardIterator.">
<polygon fill="white" stroke="black" points="117,-71.5 117,-123.5 287,-123.5 287,-71.5 117,-71.5"/>
<text text-anchor="start" x="125" y="-111.5" font-family="FreeSans" font-size="10.00">DGtal::UnorderedSetByBlock</text>
<text text-anchor="start" x="125" y="-100.5" font-family="FreeSans" font-size="10.00">&lt; Key, TSplitter, Hash,</text>
<text text-anchor="start" x="125" y="-89.5" font-family="FreeSans" font-size="10.00"> KeyEqual, UnorderedMapAllocator</text>
<text text-anchor="middle" x="202" y="-78.5" font-family="FreeSans" font-size="10.00"> &gt;::const_iterator</text>
</a>
</g>
</g>
<!-- Node614&#45;&gt;Node629 -->
<g id="edge15" class="edge">
<title>Node614&#45;&gt;Node629</title>
<path fill="none" stroke="midnightblue" d="M43.95,-426.64C51.88,-365.09 78.63,-178.94 117,-133.5 120.07,-129.86 123.58,-126.58 127.37,-123.63"/>
<polygon fill="midnightblue" stroke="midnightblue" points="40.43,-426.56 42.65,-436.92 47.38,-427.43 40.43,-426.56"/>
</g>
<!-- Node630 -->
<g id="node17" class="node">
<title>Node630</title>
<g id="a_node17"><a xlink:href="structDGtal_1_1UnorderedSetByBlock_1_1iterator.html" target="_top" xlink:title="Read&#45;write iterator on set elements. Model of ForwardIterator.">
<polygon fill="white" stroke="black" points="117,-0.5 117,-52.5 287,-52.5 287,-0.5 117,-0.5"/>
<text text-anchor="start" x="125" y="-40.5" font-family="FreeSans" font-size="10.00">DGtal::UnorderedSetByBlock</text>
<text text-anchor="start" x="125" y="-29.5" font-family="FreeSans" font-size="10.00">&lt; Key, TSplitter, Hash,</text>
<text text-anchor="start" x="125" y="-18.5" font-family="FreeSans" font-size="10.00"> KeyEqual, UnorderedMapAllocator</text>
<text text-anchor="middle" x="202" y="-7.5" font-family="FreeSans" font-size="10.00"> &gt;::iterator</text>
</a>
</g>
</g>
<!-- Node614&#45;&gt;Node630 -->
<g id="edge16" class="edge">
<title>Node614&#45;&gt;Node630</title>
<path fill="none" stroke="midnightblue" d="M42.96,-426.86C48.55,-356.74 70.56,-119.93 117,-62.5 119.89,-58.92 123.21,-55.69 126.81,-52.78"/>
<polygon fill="midnightblue" stroke="midnightblue" points="39.47,-426.72 42.18,-436.96 46.44,-427.26 39.47,-426.72"/>
</g>
</g>
</svg>
