<?xml version="1.0" encoding="UTF-8" standalone="no"?>
<!DOCTYPE svg PUBLIC "-//W3C//DTD SVG 1.1//EN"
 "http://www.w3.org/Graphics/SVG/1.1/DTD/svg11.dtd">
<!-- Generated by graphviz version 2.44.1 (20200629.0846)
 -->
<!-- Title: Graphical Class Hierarchy Pages: 1 -->
<svg width="256pt" height="78pt"
 viewBox="0.00 0.00 256.00 77.50" xmlns="http://www.w3.org/2000/svg" xmlns:xlink="http://www.w3.org/1999/xlink">
<g id="graph0" class="graph" transform="scale(1 1) rotate(0) translate(4 73.5)">
<title>Graphical Class Hierarchy</title>
<polygon fill="white" stroke="transparent" points="-4,4 -4,-73.5 252,-73.5 252,4 -4,4"/>
<!-- Node844 -->
<g id="node1" class="node">
<title>Node844</title>
<g id="a_node1"><a xlink:title=" ">
<polygon fill="white" stroke="#bfbfbf" points="0,-28 0,-47 62,-47 62,-28 0,-28"/>
<text text-anchor="middle" x="31" y="-35" font-family="FreeSans" font-size="10.00">false_type</text>
</a>
</g>
</g>
<!-- Node0 -->
<g id="node2" class="node">
<title>Node0</title>
<g id="a_node2"><a xlink:href="structDGtal_1_1IsAPointVector.html" target="_top" xlink:title="Type trait to check if a given type is a PointVector.">
<polygon fill="white" stroke="black" points="104,-50 104,-69 242,-69 242,-50 104,-50"/>
<text text-anchor="middle" x="173" y="-57" font-family="FreeSans" font-size="10.00">DGtal::IsAPointVector&lt; T &gt;</text>
</a>
</g>
</g>
<!-- Node844&#45;&gt;Node0 -->
<g id="edge1" class="edge">
<title>Node844&#45;&gt;Node0</title>
<path fill="none" stroke="midnightblue" d="M71.97,-43.78C84.28,-45.72 98.12,-47.89 111.49,-49.99"/>
<polygon fill="midnightblue" stroke="midnightblue" points="72.46,-40.31 62.03,-42.22 71.37,-47.23 72.46,-40.31"/>
</g>
<!-- Node846 -->
<g id="node3" class="node">
<title>Node846</title>
<g id="a_node3"><a xlink:href="structDGtal_1_1IsArithmeticConversionValid.html" target="_top" xlink:title="Helper to determine if an arithmetic operation between two given types has a valid result type (ie is...">
<polygon fill="white" stroke="black" points="98,-0.5 98,-30.5 248,-30.5 248,-0.5 98,-0.5"/>
<text text-anchor="start" x="106" y="-18.5" font-family="FreeSans" font-size="10.00">DGtal::IsArithmeticConversion</text>
<text text-anchor="middle" x="173" y="-7.5" font-family="FreeSans" font-size="10.00">Valid&lt; T, U, Enable &gt;</text>
</a>
</g>
</g>
<!-- Node844&#45;&gt;Node846 -->
<g id="edge2" class="edge">
<title>Node844&#45;&gt;Node846</title>
<path fill="none" stroke="midnightblue" d="M71.92,-31.23C80.05,-29.95 88.84,-28.57 97.72,-27.17"/>
<polygon fill="midnightblue" stroke="midnightblue" points="71.37,-27.77 62.03,-32.78 72.46,-34.69 71.37,-27.77"/>
</g>
</g>
</svg>
