<?xml version="1.0" encoding="UTF-8" standalone="no"?>
<!DOCTYPE svg PUBLIC "-//W3C//DTD SVG 1.1//EN"
 "http://www.w3.org/Graphics/SVG/1.1/DTD/svg11.dtd">
<!-- Generated by graphviz version 2.44.1 (20200629.0846)
 -->
<!-- Title: Graphical Class Hierarchy Pages: 1 -->
<svg width="255pt" height="50pt"
 viewBox="0.00 0.00 255.00 50.00" xmlns="http://www.w3.org/2000/svg" xmlns:xlink="http://www.w3.org/1999/xlink">
<g id="graph0" class="graph" transform="scale(1 1) rotate(0) translate(4 46)">
<title>Graphical Class Hierarchy</title>
<polygon fill="white" stroke="transparent" points="-4,4 -4,-46 251,-46 251,4 -4,4"/>
<!-- Node170 -->
<g id="node1" class="node">
<title>Node170</title>
<g id="a_node1"><a xlink:title=" ">
<polygon fill="white" stroke="#bfbfbf" points="0,-11.5 0,-30.5 72,-30.5 72,-11.5 0,-11.5"/>
<text text-anchor="middle" x="36" y="-18.5" font-family="FreeSans" font-size="10.00">static_visitor</text>
</a>
</g>
</g>
<!-- Node0 -->
<g id="node2" class="node">
<title>Node0</title>
<g id="a_node2"><a xlink:href="structDGtal_1_1MPolynomialReader_1_1ExprNodeMaker.html" target="_top" xlink:title=" ">
<polygon fill="white" stroke="black" points="108,-0.5 108,-41.5 247,-41.5 247,-0.5 108,-0.5"/>
<text text-anchor="start" x="116" y="-29.5" font-family="FreeSans" font-size="10.00">DGtal::MPolynomialReader</text>
<text text-anchor="start" x="116" y="-18.5" font-family="FreeSans" font-size="10.00">&lt; n, TRing, TAlloc, TIterator</text>
<text text-anchor="middle" x="177.5" y="-7.5" font-family="FreeSans" font-size="10.00"> &gt;::ExprNodeMaker</text>
</a>
</g>
</g>
<!-- Node170&#45;&gt;Node0 -->
<g id="edge1" class="edge">
<title>Node170&#45;&gt;Node0</title>
<path fill="none" stroke="midnightblue" d="M82.26,-21C90.46,-21 99.17,-21 107.85,-21"/>
<polygon fill="midnightblue" stroke="midnightblue" points="82.2,-17.5 72.2,-21 82.2,-24.5 82.2,-17.5"/>
</g>
</g>
</svg>
