<?xml version="1.0" encoding="UTF-8" standalone="no"?>
<!DOCTYPE svg PUBLIC "-//W3C//DTD SVG 1.1//EN"
 "http://www.w3.org/Graphics/SVG/1.1/DTD/svg11.dtd">
<!-- Generated by graphviz version 2.44.1 (20200629.0846)
 -->
<!-- Title: Graphical Class Hierarchy Pages: 1 -->
<svg width="299pt" height="280pt"
 viewBox="0.00 0.00 299.00 279.50" xmlns="http://www.w3.org/2000/svg" xmlns:xlink="http://www.w3.org/1999/xlink">
<g id="graph0" class="graph" transform="scale(1 1) rotate(0) translate(4 275.5)">
<title>Graphical Class Hierarchy</title>
<polygon fill="white" stroke="transparent" points="-4,4 -4,-275.5 295,-275.5 295,4 -4,4"/>
<!-- Node0 -->
<g id="node1" class="node">
<title>Node0</title>
<g id="a_node1"><a xlink:href="classDGtal_1_1StarShaped2D.html" target="_top" xlink:title=" ">
<polygon fill="white" stroke="black" points="0,-121 0,-151 112,-151 112,-121 0,-121"/>
<text text-anchor="start" x="8" y="-139" font-family="FreeSans" font-size="10.00">DGtal::StarShaped2D</text>
<text text-anchor="middle" x="56" y="-128" font-family="FreeSans" font-size="10.00">&lt; TSpace &gt;</text>
</a>
</g>
</g>
<!-- Node1 -->
<g id="node2" class="node">
<title>Node1</title>
<g id="a_node2"><a xlink:href="classDGtal_1_1AccFlower2D.html" target="_top" xlink:title="Aim: Model of the concept StarShaped represents any accelerated flower in the plane.">
<polygon fill="white" stroke="black" points="166,-241 166,-271 273,-271 273,-241 166,-241"/>
<text text-anchor="start" x="174" y="-259" font-family="FreeSans" font-size="10.00">DGtal::AccFlower2D</text>
<text text-anchor="middle" x="219.5" y="-248" font-family="FreeSans" font-size="10.00">&lt; TSpace &gt;</text>
</a>
</g>
</g>
<!-- Node0&#45;&gt;Node1 -->
<g id="edge1" class="edge">
<title>Node0&#45;&gt;Node1</title>
<path fill="none" stroke="midnightblue" d="M74.25,-159.49C90.98,-180.78 118.16,-211.71 148,-231 153.89,-234.81 160.43,-238.12 167.09,-240.98"/>
<polygon fill="midnightblue" stroke="midnightblue" points="76.82,-157.08 67.95,-151.29 71.27,-161.35 76.82,-157.08"/>
</g>
<!-- Node2 -->
<g id="node3" class="node">
<title>Node2</title>
<g id="a_node3"><a xlink:href="classDGtal_1_1Astroid2D.html" target="_top" xlink:title="Aim: Model of the concept StarShaped represents an astroid.">
<polygon fill="white" stroke="black" points="148,-202.5 148,-221.5 291,-221.5 291,-202.5 148,-202.5"/>
<text text-anchor="middle" x="219.5" y="-209.5" font-family="FreeSans" font-size="10.00">DGtal::Astroid2D&lt; TSpace &gt;</text>
</a>
</g>
</g>
<!-- Node0&#45;&gt;Node2 -->
<g id="edge2" class="edge">
<title>Node0&#45;&gt;Node2</title>
<path fill="none" stroke="midnightblue" d="M85.86,-157.18C103.17,-169.08 126.03,-183.41 148,-193 156.48,-196.7 165.86,-199.84 174.93,-202.43"/>
<polygon fill="midnightblue" stroke="midnightblue" points="87.55,-154.09 77.35,-151.22 83.53,-159.82 87.55,-154.09"/>
</g>
<!-- Node3 -->
<g id="node4" class="node">
<title>Node3</title>
<g id="a_node4"><a xlink:href="classDGtal_1_1Ball2D.html" target="_top" xlink:title="Aim: Model of the concept StarShaped represents any circle in the plane.">
<polygon fill="white" stroke="black" points="155,-164.5 155,-183.5 284,-183.5 284,-164.5 155,-164.5"/>
<text text-anchor="middle" x="219.5" y="-171.5" font-family="FreeSans" font-size="10.00">DGtal::Ball2D&lt; TSpace &gt;</text>
</a>
</g>
</g>
<!-- Node0&#45;&gt;Node3 -->
<g id="edge3" class="edge">
<title>Node0&#45;&gt;Node3</title>
<path fill="none" stroke="midnightblue" d="M121.89,-151.27C140.81,-155.72 160.93,-160.46 177.89,-164.45"/>
<polygon fill="midnightblue" stroke="midnightblue" points="122.66,-147.85 112.13,-148.97 121.06,-154.67 122.66,-147.85"/>
</g>
<!-- Node4 -->
<g id="node5" class="node">
<title>Node4</title>
<g id="a_node5"><a xlink:href="classDGtal_1_1Ellipse2D.html" target="_top" xlink:title="Aim: Model of the concept StarShaped represents any ellipse in the plane.">
<polygon fill="white" stroke="black" points="148.5,-126.5 148.5,-145.5 290.5,-145.5 290.5,-126.5 148.5,-126.5"/>
<text text-anchor="middle" x="219.5" y="-133.5" font-family="FreeSans" font-size="10.00">DGtal::Ellipse2D&lt; TSpace &gt;</text>
</a>
</g>
</g>
<!-- Node0&#45;&gt;Node4 -->
<g id="edge4" class="edge">
<title>Node0&#45;&gt;Node4</title>
<path fill="none" stroke="midnightblue" d="M122.16,-136C130.83,-136 139.74,-136 148.49,-136"/>
<polygon fill="midnightblue" stroke="midnightblue" points="122.13,-132.5 112.13,-136 122.13,-139.5 122.13,-132.5"/>
</g>
<!-- Node5 -->
<g id="node6" class="node">
<title>Node5</title>
<g id="a_node6"><a xlink:href="classDGtal_1_1Flower2D.html" target="_top" xlink:title="Aim: Model of the concept StarShaped represents any flower with k&#45;petals in the plane.">
<polygon fill="white" stroke="black" points="148.5,-88.5 148.5,-107.5 290.5,-107.5 290.5,-88.5 148.5,-88.5"/>
<text text-anchor="middle" x="219.5" y="-95.5" font-family="FreeSans" font-size="10.00">DGtal::Flower2D&lt; TSpace &gt;</text>
</a>
</g>
</g>
<!-- Node0&#45;&gt;Node5 -->
<g id="edge5" class="edge">
<title>Node0&#45;&gt;Node5</title>
<path fill="none" stroke="midnightblue" d="M121.89,-120.73C140.81,-116.28 160.93,-111.54 177.89,-107.55"/>
<polygon fill="midnightblue" stroke="midnightblue" points="121.06,-117.33 112.13,-123.03 122.66,-124.15 121.06,-117.33"/>
</g>
<!-- Node6 -->
<g id="node7" class="node">
<title>Node6</title>
<g id="a_node7"><a xlink:href="classDGtal_1_1Lemniscate2D.html" target="_top" xlink:title="Aim: Model of the concept StarShaped represents a lemniscate.">
<polygon fill="white" stroke="black" points="164,-39 164,-69 275,-69 275,-39 164,-39"/>
<text text-anchor="start" x="172" y="-57" font-family="FreeSans" font-size="10.00">DGtal::Lemniscate2D</text>
<text text-anchor="middle" x="219.5" y="-46" font-family="FreeSans" font-size="10.00">&lt; TSpace &gt;</text>
</a>
</g>
</g>
<!-- Node0&#45;&gt;Node6 -->
<g id="edge6" class="edge">
<title>Node0&#45;&gt;Node6</title>
<path fill="none" stroke="midnightblue" d="M86.84,-114.98C104.16,-103.38 126.7,-89.29 148,-79 155.37,-75.44 163.38,-72.12 171.27,-69.13"/>
<polygon fill="midnightblue" stroke="midnightblue" points="84.6,-112.27 78.3,-120.79 88.54,-118.06 84.6,-112.27"/>
</g>
<!-- Node7 -->
<g id="node8" class="node">
<title>Node7</title>
<g id="a_node8"><a xlink:href="classDGtal_1_1NGon2D.html" target="_top" xlink:title="Aim: Model of the concept StarShaped represents any regular k&#45;gon in the plane.">
<polygon fill="white" stroke="black" points="150.5,-0.5 150.5,-19.5 288.5,-19.5 288.5,-0.5 150.5,-0.5"/>
<text text-anchor="middle" x="219.5" y="-7.5" font-family="FreeSans" font-size="10.00">DGtal::NGon2D&lt; TSpace &gt;</text>
</a>
</g>
</g>
<!-- Node0&#45;&gt;Node7 -->
<g id="edge7" class="edge">
<title>Node0&#45;&gt;Node7</title>
<path fill="none" stroke="midnightblue" d="M71.33,-112.3C87.16,-88.11 114.84,-51.2 148,-30 154.75,-25.68 162.45,-22.28 170.22,-19.6"/>
<polygon fill="midnightblue" stroke="midnightblue" points="68.28,-110.58 65.86,-120.89 74.18,-114.34 68.28,-110.58"/>
</g>
</g>
</svg>
