<?xml version="1.0" encoding="UTF-8" standalone="no"?>
<!DOCTYPE svg PUBLIC "-//W3C//DTD SVG 1.1//EN"
 "http://www.w3.org/Graphics/SVG/1.1/DTD/svg11.dtd">
<!-- Generated by graphviz version 2.44.1 (20200629.0846)
 -->
<!-- Title: sphereCotangentLaplaceOperator.cpp Pages: 1 -->
<svg width="4134pt" height="620pt"
 viewBox="0.00 0.00 4134.06 620.00" xmlns="http://www.w3.org/2000/svg" xmlns:xlink="http://www.w3.org/1999/xlink">
<g id="graph0" class="graph" transform="scale(1 1) rotate(0) translate(4 616)">
<title>sphereCotangentLaplaceOperator.cpp</title>
<polygon fill="white" stroke="transparent" points="-4,4 -4,-616 4130.06,-616 4130.06,4 -4,4"/>
<!-- Node1 -->
<g id="node1" class="node">
<title>Node1</title>
<g id="a_node1"><a xlink:title=" ">
<polygon fill="#bfbfbf" stroke="black" points="2410.06,-592.5 2410.06,-611.5 2590.06,-611.5 2590.06,-592.5 2410.06,-592.5"/>
<text text-anchor="middle" x="2500.06" y="-599.5" font-family="FreeSans" font-size="10.00">sphereCotangentLaplaceOperator.cpp</text>
</a>
</g>
</g>
<!-- Node2 -->
<g id="node2" class="node">
<title>Node2</title>
<g id="a_node2"><a xlink:href="StdDefs_8h_source.html" target="_top" xlink:title=" ">
<polygon fill="white" stroke="black" points="926.06,-525.5 926.06,-544.5 1050.06,-544.5 1050.06,-525.5 926.06,-525.5"/>
<text text-anchor="middle" x="988.06" y="-532.5" font-family="FreeSans" font-size="10.00">DGtal/helpers/StdDefs.h</text>
</a>
</g>
</g>
<!-- Node1&#45;&gt;Node2 -->
<g id="edge1" class="edge">
<title>Node1&#45;&gt;Node2</title>
<path fill="none" stroke="midnightblue" d="M2409.7,-601.18C2190.78,-600.92 1614.76,-596.14 1136.06,-556 1108.23,-553.67 1077.62,-549.76 1051.5,-546.01"/>
<polygon fill="midnightblue" stroke="midnightblue" points="1051.75,-542.51 1041.35,-544.53 1050.74,-549.44 1051.75,-542.51"/>
</g>
<!-- Node34 -->
<g id="node7" class="node">
<title>Node34</title>
<g id="a_node7"><a xlink:href="BasicFunctors_8h_source.html" target="_top" xlink:title=" ">
<polygon fill="white" stroke="black" points="2066.06,-112.5 2066.06,-131.5 2206.06,-131.5 2206.06,-112.5 2066.06,-112.5"/>
<text text-anchor="middle" x="2136.06" y="-119.5" font-family="FreeSans" font-size="10.00">DGtal/base/BasicFunctors.h</text>
</a>
</g>
</g>
<!-- Node1&#45;&gt;Node34 -->
<g id="edge75" class="edge">
<title>Node1&#45;&gt;Node34</title>
<path fill="none" stroke="midnightblue" d="M2529.49,-592.43C2548.61,-585.46 2572.74,-573.83 2588.06,-556 2611.88,-528.29 2608.21,-514.07 2614.06,-478 2623.39,-420.49 2592.94,-262.33 2549.06,-224 2521.97,-200.33 2296.61,-154.13 2190.68,-133.45"/>
<polygon fill="midnightblue" stroke="midnightblue" points="2191.3,-130.01 2180.81,-131.53 2189.96,-136.88 2191.3,-130.01"/>
</g>
<!-- Node160 -->
<g id="node28" class="node">
<title>Node160</title>
<g id="a_node28"><a xlink:href="DigitalSurface_8h_source.html" target="_top" xlink:title=" ">
<polygon fill="white" stroke="black" points="2866.56,-375 2866.56,-394 3021.56,-394 3021.56,-375 2866.56,-375"/>
<text text-anchor="middle" x="2944.06" y="-382" font-family="FreeSans" font-size="10.00">DGtal/topology/DigitalSurface.h</text>
</a>
</g>
</g>
<!-- Node1&#45;&gt;Node160 -->
<g id="edge76" class="edge">
<title>Node1&#45;&gt;Node160</title>
<path fill="none" stroke="midnightblue" d="M2577.65,-592.48C2624.27,-585.81 2684.21,-574.49 2735.06,-556 2802,-531.66 2821.47,-524.92 2875.06,-478 2900.45,-455.77 2922.3,-422.75 2934.28,-402.76"/>
<polygon fill="midnightblue" stroke="midnightblue" points="2937.31,-404.5 2939.33,-394.1 2931.27,-400.97 2937.31,-404.5"/>
</g>
<!-- Node169 -->
<g id="node36" class="node">
<title>Node169</title>
<g id="a_node36"><a xlink:href="SetOfSurfels_8h_source.html" target="_top" xlink:title=" ">
<polygon fill="white" stroke="red" points="1536.56,-375 1536.56,-394 1685.56,-394 1685.56,-375 1536.56,-375"/>
<text text-anchor="middle" x="1611.06" y="-382" font-family="FreeSans" font-size="10.00">DGtal/topology/SetOfSurfels.h</text>
</a>
</g>
</g>
<!-- Node1&#45;&gt;Node169 -->
<g id="edge105" class="edge">
<title>Node1&#45;&gt;Node169</title>
<path fill="none" stroke="midnightblue" d="M2409.72,-599.42C2316.82,-596.09 2168.57,-586.04 2044.06,-556 1883.45,-517.25 1703.13,-431.61 1637.08,-398.72"/>
<polygon fill="midnightblue" stroke="midnightblue" points="1638.34,-395.43 1627.83,-394.08 1635.2,-401.69 1638.34,-395.43"/>
</g>
<!-- Node178 -->
<g id="node37" class="node">
<title>Node178</title>
<g id="a_node37"><a xlink:href="CanonicCellEmbedder_8h_source.html" target="_top" xlink:title=" ">
<polygon fill="white" stroke="red" points="874.06,-369.5 874.06,-399.5 1012.06,-399.5 1012.06,-369.5 874.06,-369.5"/>
<text text-anchor="start" x="882.06" y="-387.5" font-family="FreeSans" font-size="10.00">DGtal/topology/CanonicCell</text>
<text text-anchor="middle" x="943.06" y="-376.5" font-family="FreeSans" font-size="10.00">Embedder.h</text>
</a>
</g>
</g>
<!-- Node1&#45;&gt;Node178 -->
<g id="edge110" class="edge">
<title>Node1&#45;&gt;Node178</title>
<path fill="none" stroke="midnightblue" d="M2409.75,-596.79C2210.59,-586.37 1719.23,-554.49 1315.06,-478 1203.27,-456.84 1074.89,-422.69 1001.93,-402.34"/>
<polygon fill="midnightblue" stroke="midnightblue" points="1002.58,-398.89 992.01,-399.56 1000.7,-405.63 1002.58,-398.89"/>
</g>
<!-- Node180 -->
<g id="node38" class="node">
<title>Node180</title>
<g id="a_node38"><a xlink:href="LightImplicitDigitalSurface_8h_source.html" target="_top" xlink:title=" ">
<polygon fill="white" stroke="red" points="1780.56,-369.5 1780.56,-399.5 1917.56,-399.5 1917.56,-369.5 1780.56,-369.5"/>
<text text-anchor="start" x="1788.56" y="-387.5" font-family="FreeSans" font-size="10.00">DGtal/topology/LightImplicit</text>
<text text-anchor="middle" x="1849.06" y="-376.5" font-family="FreeSans" font-size="10.00">DigitalSurface.h</text>
</a>
</g>
</g>
<!-- Node1&#45;&gt;Node180 -->
<g id="edge114" class="edge">
<title>Node1&#45;&gt;Node180</title>
<path fill="none" stroke="midnightblue" d="M2410.03,-597.6C2337.48,-592.96 2233.51,-581.98 2146.06,-556 2069.84,-533.36 2053.89,-517.8 1985.06,-478 1945.8,-455.3 1902.91,-425.17 1876.01,-405.56"/>
<polygon fill="midnightblue" stroke="midnightblue" points="1877.99,-402.67 1867.86,-399.58 1873.85,-408.32 1877.99,-402.67"/>
</g>
<!-- Node193 -->
<g id="node39" class="node">
<title>Node193</title>
<g id="a_node39"><a xlink:href="ColorBrightnessColorMap_8h_source.html" target="_top" xlink:title=" ">
<polygon fill="white" stroke="red" points="2400.06,-230 2400.06,-260 2540.06,-260 2540.06,-230 2400.06,-230"/>
<text text-anchor="start" x="2408.06" y="-248" font-family="FreeSans" font-size="10.00">DGtal/io/colormaps</text>
<text text-anchor="middle" x="2470.06" y="-237" font-family="FreeSans" font-size="10.00">/ColorBrightnessColorMap.h</text>
</a>
</g>
</g>
<!-- Node1&#45;&gt;Node193 -->
<g id="edge119" class="edge">
<title>Node1&#45;&gt;Node193</title>
<path fill="none" stroke="midnightblue" d="M2518.91,-592.36C2533.11,-584.83 2551.84,-572.51 2562.06,-556 2606.21,-484.64 2610.37,-449.89 2588.06,-369 2578.84,-335.57 2571.53,-327.54 2548.06,-302 2535.26,-288.07 2518.49,-275.49 2503.78,-265.8"/>
<polygon fill="midnightblue" stroke="midnightblue" points="2505.25,-262.59 2494.94,-260.15 2501.48,-268.48 2505.25,-262.59"/>
</g>
<!-- Node212 -->
<g id="node40" class="node">
<title>Node212</title>
<g id="a_node40"><a xlink:href="LocalEstimatorFromSurfelFunctorAdapter_8h_source.html" target="_top" xlink:title=" ">
<polygon fill="white" stroke="red" points="2711.56,-436.5 2711.56,-477.5 2866.56,-477.5 2866.56,-436.5 2711.56,-436.5"/>
<text text-anchor="start" x="2719.56" y="-465.5" font-family="FreeSans" font-size="10.00">DGtal/geometry/surfaces</text>
<text text-anchor="start" x="2719.56" y="-454.5" font-family="FreeSans" font-size="10.00">/estimation/LocalEstimatorFrom</text>
<text text-anchor="middle" x="2789.06" y="-443.5" font-family="FreeSans" font-size="10.00">SurfelFunctorAdapter.h</text>
</a>
</g>
</g>
<!-- Node1&#45;&gt;Node212 -->
<g id="edge123" class="edge">
<title>Node1&#45;&gt;Node212</title>
<path fill="none" stroke="midnightblue" d="M2587.03,-592.43C2622.88,-586.11 2663.74,-575.11 2697.06,-556 2727.22,-538.7 2753.43,-508.35 2770.08,-486"/>
<polygon fill="midnightblue" stroke="midnightblue" points="2772.94,-488.01 2775.98,-477.86 2767.27,-483.9 2772.94,-488.01"/>
</g>
<!-- Node218 -->
<g id="node41" class="node">
<title>Node218</title>
<g id="a_node41"><a xlink:href="IIGeometricFunctors_8h_source.html" target="_top" xlink:title=" ">
<polygon fill="white" stroke="red" points="2334.56,-442 2334.56,-472 2499.56,-472 2499.56,-442 2334.56,-442"/>
<text text-anchor="start" x="2342.56" y="-460" font-family="FreeSans" font-size="10.00">DGtal/geometry/surfaces</text>
<text text-anchor="middle" x="2417.06" y="-449" font-family="FreeSans" font-size="10.00">/estimation/IIGeometricFunctors.h</text>
</a>
</g>
</g>
<!-- Node1&#45;&gt;Node218 -->
<g id="edge132" class="edge">
<title>Node1&#45;&gt;Node218</title>
<path fill="none" stroke="midnightblue" d="M2495.12,-592.48C2482.6,-570.92 2449.33,-513.59 2430.51,-481.18"/>
<polygon fill="midnightblue" stroke="midnightblue" points="2433.44,-479.25 2425.4,-472.36 2427.39,-482.77 2433.44,-479.25"/>
</g>
<!-- Node228 -->
<g id="node42" class="node">
<title>Node228</title>
<g id="a_node42"><a xlink:href="IntegralInvariantCovarianceEstimator_8h_source.html" target="_top" xlink:title=" ">
<polygon fill="white" stroke="red" points="2276.56,-514.5 2276.56,-555.5 2413.56,-555.5 2413.56,-514.5 2276.56,-514.5"/>
<text text-anchor="start" x="2284.56" y="-543.5" font-family="FreeSans" font-size="10.00">DGtal/geometry/surfaces</text>
<text text-anchor="start" x="2284.56" y="-532.5" font-family="FreeSans" font-size="10.00">/estimation/IntegralInvariant</text>
<text text-anchor="middle" x="2345.06" y="-521.5" font-family="FreeSans" font-size="10.00">CovarianceEstimator.h</text>
</a>
</g>
</g>
<!-- Node1&#45;&gt;Node228 -->
<g id="edge135" class="edge">
<title>Node1&#45;&gt;Node228</title>
<path fill="none" stroke="midnightblue" d="M2479.48,-592.37C2459.59,-584.03 2428.55,-571.01 2401.31,-559.59"/>
<polygon fill="midnightblue" stroke="midnightblue" points="2402.43,-556.27 2391.86,-555.63 2399.73,-562.72 2402.43,-556.27"/>
</g>
<!-- Node234 -->
<g id="node43" class="node">
<title>Node234</title>
<g id="a_node43"><a xlink:href="GaussDigitizer_8h_source.html" target="_top" xlink:title="Computes the Gauss digitization of some Euclidean shape.">
<polygon fill="white" stroke="red" points="2050.06,-375 2050.06,-394 2202.06,-394 2202.06,-375 2050.06,-375"/>
<text text-anchor="middle" x="2126.06" y="-382" font-family="FreeSans" font-size="10.00">DGtal/shapes/GaussDigitizer.h</text>
</a>
</g>
</g>
<!-- Node1&#45;&gt;Node234 -->
<g id="edge154" class="edge">
<title>Node1&#45;&gt;Node234</title>
<path fill="none" stroke="midnightblue" d="M2409.95,-596.36C2356.29,-591.08 2287.81,-579.85 2231.06,-556 2176.81,-533.2 2150.74,-530.46 2124.06,-478 2112.2,-454.67 2116.24,-423.57 2120.76,-404.04"/>
<polygon fill="midnightblue" stroke="midnightblue" points="2124.17,-404.82 2123.28,-394.26 2117.39,-403.07 2124.17,-404.82"/>
</g>
<!-- Node240 -->
<g id="node44" class="node">
<title>Node240</title>
<g id="a_node44"><a xlink:href="DGtal_2shapes_2Shapes_8h_source.html" target="_top" xlink:title=" ">
<polygon fill="white" stroke="red" points="2156.56,-447.5 2156.56,-466.5 2277.56,-466.5 2277.56,-447.5 2156.56,-447.5"/>
<text text-anchor="middle" x="2217.06" y="-454.5" font-family="FreeSans" font-size="10.00">DGtal/shapes/Shapes.h</text>
</a>
</g>
</g>
<!-- Node1&#45;&gt;Node240 -->
<g id="edge153" class="edge">
<title>Node1&#45;&gt;Node240</title>
<path fill="none" stroke="midnightblue" d="M2415.3,-592.49C2358.6,-585.34 2290.27,-573.46 2267.06,-556 2240.94,-536.36 2227.4,-499.2 2221.29,-476.71"/>
<polygon fill="midnightblue" stroke="midnightblue" points="2224.62,-475.58 2218.81,-466.72 2217.83,-477.27 2224.62,-475.58"/>
</g>
<!-- Node253 -->
<g id="node45" class="node">
<title>Node253</title>
<g id="a_node45"><a xlink:href="Ball3D_8h_source.html" target="_top" xlink:title=" ">
<polygon fill="white" stroke="red" points="3900.56,-230 3900.56,-260 4025.56,-260 4025.56,-230 3900.56,-230"/>
<text text-anchor="start" x="3908.56" y="-248" font-family="FreeSans" font-size="10.00">DGtal/shapes/parametric</text>
<text text-anchor="middle" x="3963.06" y="-237" font-family="FreeSans" font-size="10.00">/Ball3D.h</text>
</a>
</g>
</g>
<!-- Node1&#45;&gt;Node253 -->
<g id="edge150" class="edge">
<title>Node1&#45;&gt;Node253</title>
<path fill="none" stroke="midnightblue" d="M2590.22,-601.53C2905.14,-602.18 3937.06,-593.97 3937.06,-458 3937.06,-458 3937.06,-458 3937.06,-383.5 3937.06,-343.18 3947.99,-297.35 3955.67,-270.1"/>
<polygon fill="midnightblue" stroke="midnightblue" points="3959.1,-270.86 3958.53,-260.28 3952.38,-268.91 3959.1,-270.86"/>
</g>
<!-- Node257 -->
<g id="node46" class="node">
<title>Node257</title>
<g id="a_node46"><a xlink:href="Mesh_8h_source.html" target="_top" xlink:title=" ">
<polygon fill="white" stroke="red" points="2467.06,-375 2467.06,-394 2579.06,-394 2579.06,-375 2467.06,-375"/>
<text text-anchor="middle" x="2523.06" y="-382" font-family="FreeSans" font-size="10.00">DGtal/shapes/Mesh.h</text>
</a>
</g>
</g>
<!-- Node1&#45;&gt;Node257 -->
<g id="edge155" class="edge">
<title>Node1&#45;&gt;Node257</title>
<path fill="none" stroke="midnightblue" d="M2512.27,-592.24C2522.41,-584.14 2536.1,-571.11 2542.06,-556 2561.62,-506.38 2551.6,-488.47 2542.06,-436 2540.02,-424.76 2535.61,-412.78 2531.56,-403.3"/>
<polygon fill="midnightblue" stroke="midnightblue" points="2534.73,-401.83 2527.42,-394.16 2528.35,-404.72 2534.73,-401.83"/>
</g>
<!-- Node259 -->
<g id="node47" class="node">
<title>Node259</title>
<g id="a_node47"><a xlink:href="MeshHelpers_8h_source.html" target="_top" xlink:title=" ">
<polygon fill="white" stroke="red" points="3337.06,-447.5 3337.06,-466.5 3483.06,-466.5 3483.06,-447.5 3337.06,-447.5"/>
<text text-anchor="middle" x="3410.06" y="-454.5" font-family="FreeSans" font-size="10.00">DGtal/shapes/MeshHelpers.h</text>
</a>
</g>
</g>
<!-- Node1&#45;&gt;Node259 -->
<g id="edge160" class="edge">
<title>Node1&#45;&gt;Node259</title>
<path fill="none" stroke="midnightblue" d="M2590.17,-594.29C2678.18,-587.12 2815.77,-574.26 2934.06,-556 3093.71,-531.35 3280.82,-488.75 3365,-468.84"/>
<polygon fill="midnightblue" stroke="midnightblue" points="3365.83,-472.25 3374.75,-466.53 3364.21,-465.43 3365.83,-472.25"/>
</g>
<!-- Node260 -->
<g id="node48" class="node">
<title>Node260</title>
<g id="a_node48"><a xlink:href="TriangulatedSurface_8h_source.html" target="_top" xlink:title=" ">
<polygon fill="white" stroke="red" points="2334.56,-302.5 2334.56,-332.5 2467.56,-332.5 2467.56,-302.5 2334.56,-302.5"/>
<text text-anchor="start" x="2342.56" y="-320.5" font-family="FreeSans" font-size="10.00">DGtal/shapes/Triangulated</text>
<text text-anchor="middle" x="2401.06" y="-309.5" font-family="FreeSans" font-size="10.00">Surface.h</text>
</a>
</g>
</g>
<!-- Node1&#45;&gt;Node260 -->
<g id="edge171" class="edge">
<title>Node1&#45;&gt;Node260</title>
<path fill="none" stroke="midnightblue" d="M2503.8,-592.18C2514.34,-565.85 2541.37,-486.52 2508.06,-436 2485.7,-402.09 2450.86,-430.52 2424.06,-400 2410.16,-384.17 2404.62,-360.53 2402.43,-342.79"/>
<polygon fill="midnightblue" stroke="midnightblue" points="2405.89,-342.24 2401.45,-332.62 2398.92,-342.91 2405.89,-342.24"/>
</g>
<!-- Node272 -->
<g id="node49" class="node">
<title>Node272</title>
<g id="a_node49"><a xlink:href="Viewer3D_8h_source.html" target="_top" xlink:title=" ">
<polygon fill="white" stroke="red" points="560.56,-447.5 560.56,-466.5 703.56,-466.5 703.56,-447.5 560.56,-447.5"/>
<text text-anchor="middle" x="632.06" y="-454.5" font-family="FreeSans" font-size="10.00">DGtal/io/viewers/Viewer3D.h</text>
</a>
</g>
</g>
<!-- Node1&#45;&gt;Node272 -->
<g id="edge172" class="edge">
<title>Node1&#45;&gt;Node272</title>
<path fill="none" stroke="midnightblue" d="M2409.9,-600.03C2096.21,-596.42 1063.6,-582.64 917.06,-556 819.33,-538.24 709.82,-492.92 659.74,-470.69"/>
<polygon fill="midnightblue" stroke="midnightblue" points="661.1,-467.46 650.54,-466.57 658.23,-473.85 661.1,-467.46"/>
</g>
<!-- Node294 -->
<g id="node50" class="node">
<title>Node294</title>
<g id="a_node50"><a xlink:href="EigenSupport_8h_source.html" target="_top" xlink:title=" ">
<polygon fill="white" stroke="red" points="3964.06,-168.5 3964.06,-187.5 4126.06,-187.5 4126.06,-168.5 3964.06,-168.5"/>
<text text-anchor="middle" x="4045.06" y="-175.5" font-family="FreeSans" font-size="10.00">DGtal/math/linalg/EigenSupport.h</text>
</a>
</g>
</g>
<!-- Node1&#45;&gt;Node294 -->
<g id="edge180" class="edge">
<title>Node1&#45;&gt;Node294</title>
<path fill="none" stroke="midnightblue" d="M2590.28,-601.36C2842.01,-601.81 3548.46,-599.08 3776.06,-556 3904.78,-531.63 4054.06,-589.01 4054.06,-458 4054.06,-458 4054.06,-458 4054.06,-316.5 4054.06,-273.99 4049.72,-224.24 4047.07,-197.79"/>
<polygon fill="midnightblue" stroke="midnightblue" points="4050.53,-197.26 4046.02,-187.67 4043.57,-197.98 4050.53,-197.26"/>
</g>
<!-- Node3 -->
<g id="node3" class="node">
<title>Node3</title>
<g id="a_node3"><a xlink:title=" ">
<polygon fill="white" stroke="#bfbfbf" points="2445.06,-0.5 2445.06,-19.5 2499.06,-19.5 2499.06,-0.5 2445.06,-0.5"/>
<text text-anchor="middle" x="2472.06" y="-7.5" font-family="FreeSans" font-size="10.00">iostream</text>
</a>
</g>
</g>
<!-- Node2&#45;&gt;Node3 -->
<g id="edge2" class="edge">
<title>Node2&#45;&gt;Node3</title>
<path fill="none" stroke="midnightblue" d="M1050.25,-533.41C1302.5,-530.73 2238.24,-518.11 2286.06,-478 2347.45,-426.51 2265.57,-355.67 2325.06,-302 2376.72,-255.4 2573.69,-296.83 2636.06,-266 2684.24,-242.18 2720.06,-232.75 2720.06,-179 2720.06,-179 2720.06,-179 2720.06,-121 2720.06,-29.83 2578.28,-13.64 2509.12,-11.17"/>
<polygon fill="midnightblue" stroke="midnightblue" points="2509.17,-7.67 2499.07,-10.89 2508.97,-14.67 2509.17,-7.67"/>
</g>
<!-- Node4 -->
<g id="node4" class="node">
<title>Node4</title>
<g id="a_node4"><a xlink:href="Common_8h_source.html" target="_top" xlink:title=" ">
<polygon fill="white" stroke="red" points="1781.56,-168.5 1781.56,-187.5 1898.56,-187.5 1898.56,-168.5 1781.56,-168.5"/>
<text text-anchor="middle" x="1840.06" y="-175.5" font-family="FreeSans" font-size="10.00">DGtal/base/Common.h</text>
</a>
</g>
</g>
<!-- Node2&#45;&gt;Node4 -->
<g id="edge3" class="edge">
<title>Node2&#45;&gt;Node4</title>
<path fill="none" stroke="midnightblue" d="M1050.06,-532.69C1160.26,-529.37 1384.87,-517.78 1451.06,-478 1501.68,-447.58 1479.57,-404.1 1527.06,-369 1569.11,-337.92 1595.47,-361.88 1639.06,-333 1665.73,-315.34 1707.19,-242.81 1733.06,-224 1753.32,-209.27 1779.14,-198.23 1800.33,-190.78"/>
<polygon fill="midnightblue" stroke="midnightblue" points="1801.66,-194.02 1810.02,-187.5 1799.42,-187.39 1801.66,-194.02"/>
</g>
<!-- Node44 -->
<g id="node11" class="node">
<title>Node44</title>
<g id="a_node11"><a xlink:href="SpaceND_8h_source.html" target="_top" xlink:title=" ">
<polygon fill="white" stroke="red" points="288.56,-235.5 288.56,-254.5 413.56,-254.5 413.56,-235.5 288.56,-235.5"/>
<text text-anchor="middle" x="351.06" y="-242.5" font-family="FreeSans" font-size="10.00">DGtal/kernel/SpaceND.h</text>
</a>
</g>
</g>
<!-- Node2&#45;&gt;Node44 -->
<g id="edge18" class="edge">
<title>Node2&#45;&gt;Node44</title>
<path fill="none" stroke="midnightblue" d="M925.94,-534.22C793.41,-533.71 487.69,-527.07 398.06,-478 331.53,-441.58 323.44,-407.27 308.06,-333 305.27,-319.51 303.63,-315.05 308.06,-302 313.22,-286.8 324.36,-272.49 334.01,-262.14"/>
<polygon fill="midnightblue" stroke="midnightblue" points="336.76,-264.34 341.28,-254.75 331.77,-259.43 336.76,-264.34"/>
</g>
<!-- Node66 -->
<g id="node12" class="node">
<title>Node66</title>
<g id="a_node12"><a xlink:href="HyperRectDomain_8h_source.html" target="_top" xlink:title=" ">
<polygon fill="white" stroke="red" points="2052.56,-302.5 2052.56,-332.5 2163.56,-332.5 2163.56,-302.5 2052.56,-302.5"/>
<text text-anchor="start" x="2060.56" y="-320.5" font-family="FreeSans" font-size="10.00">DGtal/kernel/domains</text>
<text text-anchor="middle" x="2108.06" y="-309.5" font-family="FreeSans" font-size="10.00">/HyperRectDomain.h</text>
</a>
</g>
</g>
<!-- Node2&#45;&gt;Node66 -->
<g id="edge21" class="edge">
<title>Node2&#45;&gt;Node66</title>
<path fill="none" stroke="midnightblue" d="M1050.27,-529.98C1242.48,-516.91 1824.43,-472.21 1998.06,-400 2000.41,-399.02 2049.07,-362.71 2080.88,-338.89"/>
<polygon fill="midnightblue" stroke="midnightblue" points="2083.05,-341.64 2088.95,-332.84 2078.85,-336.03 2083.05,-341.64"/>
</g>
<!-- Node89 -->
<g id="node13" class="node">
<title>Node89</title>
<g id="a_node13"><a xlink:href="DigitalSetSelector_8h_source.html" target="_top" xlink:title=" ">
<polygon fill="white" stroke="red" points="782.06,-230 782.06,-260 906.06,-260 906.06,-230 782.06,-230"/>
<text text-anchor="start" x="790.06" y="-248" font-family="FreeSans" font-size="10.00">DGtal/kernel/sets/Digital</text>
<text text-anchor="middle" x="844.06" y="-237" font-family="FreeSans" font-size="10.00">SetSelector.h</text>
</a>
</g>
</g>
<!-- Node2&#45;&gt;Node89 -->
<g id="edge24" class="edge">
<title>Node2&#45;&gt;Node89</title>
<path fill="none" stroke="midnightblue" d="M925.78,-531.9C808.55,-527.17 559.87,-513.2 482.06,-478 394.92,-438.58 361.68,-420.49 323.06,-333 272.71,-218.94 346.72,-342.35 773.06,-266 778.42,-265.04 783.95,-263.85 789.46,-262.53"/>
<polygon fill="midnightblue" stroke="midnightblue" points="790.46,-265.88 799.3,-260.03 788.74,-259.1 790.46,-265.88"/>
</g>
<!-- Node102 -->
<g id="node14" class="node">
<title>Node102</title>
<g id="a_node14"><a xlink:href="DigitalTopology_8h_source.html" target="_top" xlink:title=" ">
<polygon fill="white" stroke="red" points="1068.06,-375 1068.06,-394 1226.06,-394 1226.06,-375 1068.06,-375"/>
<text text-anchor="middle" x="1147.06" y="-382" font-family="FreeSans" font-size="10.00">DGtal/topology/DigitalTopology.h</text>
</a>
</g>
</g>
<!-- Node2&#45;&gt;Node102 -->
<g id="edge27" class="edge">
<title>Node2&#45;&gt;Node102</title>
<path fill="none" stroke="midnightblue" d="M997.53,-525.16C1023.66,-500.75 1097.04,-432.21 1130.3,-401.15"/>
<polygon fill="midnightblue" stroke="midnightblue" points="1132.92,-403.5 1137.84,-394.11 1128.14,-398.38 1132.92,-403.5"/>
</g>
<!-- Node109 -->
<g id="node17" class="node">
<title>Node109</title>
<g id="a_node17"><a xlink:href="MetricAdjacency_8h_source.html" target="_top" xlink:title=" ">
<polygon fill="white" stroke="red" points="332.06,-308 332.06,-327 496.06,-327 496.06,-308 332.06,-308"/>
<text text-anchor="middle" x="414.06" y="-315" font-family="FreeSans" font-size="10.00">DGtal/topology/MetricAdjacency.h</text>
</a>
</g>
</g>
<!-- Node2&#45;&gt;Node109 -->
<g id="edge36" class="edge">
<title>Node2&#45;&gt;Node109</title>
<path fill="none" stroke="midnightblue" d="M925.81,-532.37C816.99,-528.53 597.51,-516.18 532.06,-478 474.63,-444.5 436.72,-370.84 421.54,-336.62"/>
<polygon fill="midnightblue" stroke="midnightblue" points="424.73,-335.17 417.57,-327.36 418.29,-337.93 424.73,-335.17"/>
</g>
<!-- Node112 -->
<g id="node19" class="node">
<title>Node112</title>
<g id="a_node19"><a xlink:href="Object_8h_source.html" target="_top" xlink:title=" ">
<polygon fill="white" stroke="red" points="1244.06,-375 1244.06,-394 1366.06,-394 1366.06,-375 1244.06,-375"/>
<text text-anchor="middle" x="1305.06" y="-382" font-family="FreeSans" font-size="10.00">DGtal/topology/Object.h</text>
</a>
</g>
</g>
<!-- Node2&#45;&gt;Node112 -->
<g id="edge41" class="edge">
<title>Node2&#45;&gt;Node112</title>
<path fill="none" stroke="midnightblue" d="M1006.47,-525.37C1059.66,-500.46 1213.73,-428.29 1277.21,-398.54"/>
<polygon fill="midnightblue" stroke="midnightblue" points="1279.02,-401.56 1286.6,-394.15 1276.06,-395.22 1279.02,-401.56"/>
</g>
<!-- Node121 -->
<g id="node22" class="node">
<title>Node121</title>
<g id="a_node22"><a xlink:href="KhalimskySpaceND_8h_source.html" target="_top" xlink:title=" ">
<polygon fill="white" stroke="red" points="610.56,-369.5 610.56,-399.5 741.56,-399.5 741.56,-369.5 610.56,-369.5"/>
<text text-anchor="start" x="618.56" y="-387.5" font-family="FreeSans" font-size="10.00">DGtal/topology/Khalimsky</text>
<text text-anchor="middle" x="676.06" y="-376.5" font-family="FreeSans" font-size="10.00">SpaceND.h</text>
</a>
</g>
</g>
<!-- Node2&#45;&gt;Node121 -->
<g id="edge49" class="edge">
<title>Node2&#45;&gt;Node121</title>
<path fill="none" stroke="midnightblue" d="M937.29,-525.49C878.57,-515.01 786.14,-496.33 756.06,-478 740.9,-468.76 711.39,-432.1 692.76,-407.8"/>
<polygon fill="midnightblue" stroke="midnightblue" points="695.51,-405.63 686.67,-399.79 689.93,-409.86 695.51,-405.63"/>
</g>
<!-- Node122 -->
<g id="node23" class="node">
<title>Node122</title>
<g id="a_node23"><a xlink:href="KhalimskyPreSpaceND_8h_source.html" target="_top" xlink:title=" ">
<polygon fill="white" stroke="red" points="514.56,-302.5 514.56,-332.5 645.56,-332.5 645.56,-302.5 514.56,-302.5"/>
<text text-anchor="start" x="522.56" y="-320.5" font-family="FreeSans" font-size="10.00">DGtal/topology/Khalimsky</text>
<text text-anchor="middle" x="580.06" y="-309.5" font-family="FreeSans" font-size="10.00">PreSpaceND.h</text>
</a>
</g>
</g>
<!-- Node2&#45;&gt;Node122 -->
<g id="edge59" class="edge">
<title>Node2&#45;&gt;Node122</title>
<path fill="none" stroke="midnightblue" d="M925.67,-530.5C810.83,-523.42 575.41,-505.67 551.06,-478 517.41,-439.76 545.83,-375.87 565.38,-341.71"/>
<polygon fill="midnightblue" stroke="midnightblue" points="568.51,-343.3 570.6,-332.91 562.49,-339.73 568.51,-343.3"/>
</g>
<!-- Node125 -->
<g id="node24" class="node">
<title>Node125</title>
<g id="a_node24"><a xlink:href="GridCurve_8h_source.html" target="_top" xlink:title="Header file for module GridCurve.cpp.">
<polygon fill="white" stroke="red" points="1324.06,-442 1324.06,-472 1442.06,-472 1442.06,-442 1324.06,-442"/>
<text text-anchor="start" x="1332.06" y="-460" font-family="FreeSans" font-size="10.00">DGtal/geometry/curves</text>
<text text-anchor="middle" x="1383.06" y="-449" font-family="FreeSans" font-size="10.00">/GridCurve.h</text>
</a>
</g>
</g>
<!-- Node2&#45;&gt;Node125 -->
<g id="edge60" class="edge">
<title>Node2&#45;&gt;Node125</title>
<path fill="none" stroke="midnightblue" d="M1037.13,-525.49C1097.3,-514.94 1202.37,-496.11 1292.06,-478 1299.15,-476.57 1306.53,-475.03 1313.89,-473.46"/>
<polygon fill="midnightblue" stroke="midnightblue" points="1314.85,-476.83 1323.89,-471.31 1313.38,-469.99 1314.85,-476.83"/>
</g>
<!-- Node153 -->
<g id="node26" class="node">
<title>Node153</title>
<g id="a_node26"><a xlink:href="ExactPredicateLpSeparableMetric_8h_source.html" target="_top" xlink:title=" ">
<polygon fill="white" stroke="red" points="584.06,-224.5 584.06,-265.5 764.06,-265.5 764.06,-224.5 584.06,-224.5"/>
<text text-anchor="start" x="592.06" y="-253.5" font-family="FreeSans" font-size="10.00">DGtal/geometry/volumes</text>
<text text-anchor="start" x="592.06" y="-242.5" font-family="FreeSans" font-size="10.00">/distance/ExactPredicateLpSeparable</text>
<text text-anchor="middle" x="674.06" y="-231.5" font-family="FreeSans" font-size="10.00">Metric.h</text>
</a>
</g>
</g>
<!-- Node2&#45;&gt;Node153 -->
<g id="edge67" class="edge">
<title>Node2&#45;&gt;Node153</title>
<path fill="none" stroke="midnightblue" d="M961.19,-525.46C935.35,-516.39 896.06,-500.28 867.06,-478 789.2,-418.17 721.9,-321.59 691.43,-274.15"/>
<polygon fill="midnightblue" stroke="midnightblue" points="694.32,-272.17 686,-265.61 688.41,-275.92 694.32,-272.17"/>
</g>
<!-- Node158 -->
<g id="node27" class="node">
<title>Node158</title>
<g id="a_node27"><a xlink:href="ExactPredicateLpPowerSeparableMetric_8h_source.html" target="_top" xlink:title=" ">
<polygon fill="white" stroke="red" points="972.06,-224.5 972.06,-265.5 1136.06,-265.5 1136.06,-224.5 972.06,-224.5"/>
<text text-anchor="start" x="980.06" y="-253.5" font-family="FreeSans" font-size="10.00">DGtal/geometry/volumes</text>
<text text-anchor="start" x="980.06" y="-242.5" font-family="FreeSans" font-size="10.00">/distance/ExactPredicateLpPower</text>
<text text-anchor="middle" x="1054.06" y="-231.5" font-family="FreeSans" font-size="10.00">SeparableMetric.h</text>
</a>
</g>
</g>
<!-- Node2&#45;&gt;Node158 -->
<g id="edge71" class="edge">
<title>Node2&#45;&gt;Node158</title>
<path fill="none" stroke="midnightblue" d="M972.68,-525.49C932.48,-502.1 829.72,-434.17 865.06,-369 890.97,-321.23 944.35,-289.1 987.79,-269.69"/>
<polygon fill="midnightblue" stroke="midnightblue" points="989.4,-272.81 997.18,-265.63 986.61,-266.39 989.4,-272.81"/>
</g>
<!-- Node4&#45;&gt;Node3 -->
<g id="edge4" class="edge">
<title>Node4&#45;&gt;Node3</title>
<path fill="none" stroke="midnightblue" d="M1841.03,-168.41C1844.12,-145.6 1855.94,-83.4 1895.06,-56 1939.15,-25.12 2313.7,-14.41 2434.6,-11.74"/>
<polygon fill="midnightblue" stroke="midnightblue" points="2434.91,-15.23 2444.84,-11.52 2434.76,-8.23 2434.91,-15.23"/>
</g>
<!-- Node6 -->
<g id="node5" class="node">
<title>Node6</title>
<g id="a_node5"><a xlink:title=" ">
<polygon fill="white" stroke="#bfbfbf" points="1311.06,-0.5 1311.06,-19.5 1367.06,-19.5 1367.06,-0.5 1311.06,-0.5"/>
<text text-anchor="middle" x="1339.06" y="-7.5" font-family="FreeSans" font-size="10.00">algorithm</text>
</a>
</g>
</g>
<!-- Node4&#45;&gt;Node6 -->
<g id="edge5" class="edge">
<title>Node4&#45;&gt;Node6</title>
<path fill="none" stroke="midnightblue" d="M1814.18,-168.42C1730.95,-140.85 1470.07,-54.41 1374.55,-22.76"/>
<polygon fill="midnightblue" stroke="midnightblue" points="1375.38,-19.35 1364.79,-19.52 1373.18,-25.99 1375.38,-19.35"/>
</g>
<!-- Node14 -->
<g id="node6" class="node">
<title>Node14</title>
<g id="a_node6"><a xlink:title=" ">
<polygon fill="white" stroke="#bfbfbf" points="1656.06,-56.5 1656.06,-75.5 1700.06,-75.5 1700.06,-56.5 1656.06,-56.5"/>
<text text-anchor="middle" x="1678.06" y="-63.5" font-family="FreeSans" font-size="10.00">cmath</text>
</a>
</g>
</g>
<!-- Node4&#45;&gt;Node14 -->
<g id="edge6" class="edge">
<title>Node4&#45;&gt;Node14</title>
<path fill="none" stroke="midnightblue" d="M1827.35,-168.37C1799.55,-149.49 1733.12,-104.38 1699.03,-81.24"/>
<polygon fill="midnightblue" stroke="midnightblue" points="1700.95,-78.31 1690.71,-75.59 1697.02,-84.1 1700.95,-78.31"/>
</g>
<!-- Node4&#45;&gt;Node34 -->
<g id="edge7" class="edge">
<title>Node4&#45;&gt;Node34</title>
<path fill="none" stroke="midnightblue" d="M1881.87,-168.44C1932.07,-158.9 2016.48,-143.48 2074.2,-133.29"/>
<polygon fill="midnightblue" stroke="midnightblue" points="2075.06,-136.7 2084.3,-131.52 2073.84,-129.8 2075.06,-136.7"/>
</g>
<!-- Node34&#45;&gt;Node4 -->
<g id="edge15" class="edge">
<title>Node34&#45;&gt;Node4</title>
<path fill="none" stroke="midnightblue" d="M2094.46,-131.52C2044.36,-141.04 1959.95,-156.46 1902.16,-166.66"/>
<polygon fill="midnightblue" stroke="midnightblue" points="1901.29,-163.26 1892.05,-168.44 1902.51,-170.16 1901.29,-163.26"/>
</g>
<!-- Node34&#45;&gt;Node6 -->
<g id="edge8" class="edge">
<title>Node34&#45;&gt;Node6</title>
<path fill="none" stroke="midnightblue" d="M2116.18,-112.37C2096.08,-103.55 2064.19,-89.29 2037.06,-76 2019.92,-67.6 2017.42,-61.21 1999.06,-56 1880.96,-22.51 1499.89,-13.57 1377.37,-11.54"/>
<polygon fill="midnightblue" stroke="midnightblue" points="1377.39,-8.04 1367.33,-11.37 1377.28,-15.04 1377.39,-8.04"/>
</g>
<!-- Node34&#45;&gt;Node14 -->
<g id="edge10" class="edge">
<title>Node34&#45;&gt;Node14</title>
<path fill="none" stroke="midnightblue" d="M2066,-112.74C1965.45,-100.88 1784.23,-79.52 1710.54,-70.83"/>
<polygon fill="midnightblue" stroke="midnightblue" points="1710.81,-67.34 1700.47,-69.64 1709.99,-74.29 1710.81,-67.34"/>
</g>
<!-- Node35 -->
<g id="node8" class="node">
<title>Node35</title>
<g id="a_node8"><a xlink:title=" ">
<polygon fill="white" stroke="#bfbfbf" points="2262.56,-56.5 2262.56,-75.5 2321.56,-75.5 2321.56,-56.5 2262.56,-56.5"/>
<text text-anchor="middle" x="2292.06" y="-63.5" font-family="FreeSans" font-size="10.00">functional</text>
</a>
</g>
</g>
<!-- Node34&#45;&gt;Node35 -->
<g id="edge9" class="edge">
<title>Node34&#45;&gt;Node35</title>
<path fill="none" stroke="midnightblue" d="M2160.78,-112.44C2186.91,-103.4 2228.32,-89.06 2257.64,-78.92"/>
<polygon fill="midnightblue" stroke="midnightblue" points="2259.15,-82.1 2267.46,-75.52 2256.86,-75.48 2259.15,-82.1"/>
</g>
<!-- Node36 -->
<g id="node9" class="node">
<title>Node36</title>
<g id="a_node9"><a xlink:href="Color_8h_source.html" target="_top" xlink:title=" ">
<polygon fill="white" stroke="red" points="1904.06,-56.5 1904.06,-75.5 1990.06,-75.5 1990.06,-56.5 1904.06,-56.5"/>
<text text-anchor="middle" x="1947.06" y="-63.5" font-family="FreeSans" font-size="10.00">DGtal/io/Color.h</text>
</a>
</g>
</g>
<!-- Node34&#45;&gt;Node36 -->
<g id="edge11" class="edge">
<title>Node34&#45;&gt;Node36</title>
<path fill="none" stroke="midnightblue" d="M2106.11,-112.44C2073.9,-103.24 2022.53,-88.56 1986.92,-78.39"/>
<polygon fill="midnightblue" stroke="midnightblue" points="1987.44,-74.9 1976.87,-75.52 1985.52,-81.63 1987.44,-74.9"/>
</g>
<!-- Node39 -->
<g id="node10" class="node">
<title>Node39</title>
<g id="a_node10"><a xlink:href="BasicBoolFunctors_8h_source.html" target="_top" xlink:title=" ">
<polygon fill="white" stroke="red" points="2046.06,-56.5 2046.06,-75.5 2206.06,-75.5 2206.06,-56.5 2046.06,-56.5"/>
<text text-anchor="middle" x="2126.06" y="-63.5" font-family="FreeSans" font-size="10.00">DGtal/base/BasicBoolFunctors.h</text>
</a>
</g>
</g>
<!-- Node34&#45;&gt;Node39 -->
<g id="edge16" class="edge">
<title>Node34&#45;&gt;Node39</title>
<path fill="none" stroke="midnightblue" d="M2134.41,-112.08C2133.08,-104.93 2131.18,-94.64 2129.52,-85.69"/>
<polygon fill="midnightblue" stroke="midnightblue" points="2132.94,-84.95 2127.68,-75.75 2126.06,-86.22 2132.94,-84.95"/>
</g>
<!-- Node36&#45;&gt;Node3 -->
<g id="edge12" class="edge">
<title>Node36&#45;&gt;Node3</title>
<path fill="none" stroke="midnightblue" d="M1990.47,-60.54C2091.36,-50.16 2340.24,-24.56 2434.79,-14.83"/>
<polygon fill="midnightblue" stroke="midnightblue" points="2435.43,-18.29 2445.02,-13.78 2434.72,-11.32 2435.43,-18.29"/>
</g>
<!-- Node36&#45;&gt;Node4 -->
<g id="edge13" class="edge">
<title>Node36&#45;&gt;Node4</title>
<path fill="none" stroke="midnightblue" d="M1938.7,-75.59C1920.85,-93.95 1878.73,-137.25 1855.72,-160.9"/>
<polygon fill="midnightblue" stroke="midnightblue" points="1852.92,-158.76 1848.46,-168.37 1857.94,-163.64 1852.92,-158.76"/>
</g>
<!-- Node36&#45;&gt;Node6 -->
<g id="edge14" class="edge">
<title>Node36&#45;&gt;Node6</title>
<path fill="none" stroke="midnightblue" d="M1903.82,-61.16C1790.27,-51.07 1484.94,-23.96 1377.28,-14.39"/>
<polygon fill="midnightblue" stroke="midnightblue" points="1377.46,-10.9 1367.19,-13.5 1376.84,-17.87 1377.46,-10.9"/>
</g>
<!-- Node39&#45;&gt;Node3 -->
<g id="edge17" class="edge">
<title>Node39&#45;&gt;Node3</title>
<path fill="none" stroke="midnightblue" d="M2180.88,-56.44C2251.86,-45.37 2373.66,-26.36 2434.78,-16.82"/>
<polygon fill="midnightblue" stroke="midnightblue" points="2435.41,-20.26 2444.75,-15.26 2434.33,-13.35 2435.41,-20.26"/>
</g>
<!-- Node44&#45;&gt;Node3 -->
<g id="edge19" class="edge">
<title>Node44&#45;&gt;Node3</title>
<path fill="none" stroke="midnightblue" d="M351.48,-235.26C353.51,-204.29 364.98,-99.34 428.06,-56 471.07,-26.45 2160.86,-13.21 2434.74,-11.26"/>
<polygon fill="midnightblue" stroke="midnightblue" points="2434.97,-14.76 2444.95,-11.18 2434.92,-7.76 2434.97,-14.76"/>
</g>
<!-- Node44&#45;&gt;Node4 -->
<g id="edge20" class="edge">
<title>Node44&#45;&gt;Node4</title>
<path fill="none" stroke="midnightblue" d="M413.75,-237.5C458.63,-233.07 520.51,-227.4 575.06,-224 1031.1,-195.55 1580.84,-183.63 1771.23,-180.15"/>
<polygon fill="midnightblue" stroke="midnightblue" points="1771.43,-183.65 1781.37,-179.97 1771.31,-176.65 1771.43,-183.65"/>
</g>
<!-- Node66&#45;&gt;Node3 -->
<g id="edge22" class="edge">
<title>Node66&#45;&gt;Node3</title>
<path fill="none" stroke="midnightblue" d="M2129.43,-302.32C2163.38,-279.49 2231.3,-232.63 2285.06,-188 2351.99,-132.43 2425.23,-59.06 2456.5,-27.07"/>
<polygon fill="midnightblue" stroke="midnightblue" points="2459.38,-29.13 2463.85,-19.52 2454.36,-24.25 2459.38,-29.13"/>
</g>
<!-- Node66&#45;&gt;Node4 -->
<g id="edge23" class="edge">
<title>Node66&#45;&gt;Node4</title>
<path fill="none" stroke="midnightblue" d="M2052.44,-302.5C2011.42,-291.68 1959.51,-276.76 1940.06,-266 1915.26,-252.28 1913.44,-242.61 1892.06,-224 1880.66,-214.08 1867.82,-202.97 1857.76,-194.27"/>
<polygon fill="midnightblue" stroke="midnightblue" points="1859.9,-191.5 1850.04,-187.61 1855.32,-196.8 1859.9,-191.5"/>
</g>
<!-- Node89&#45;&gt;Node3 -->
<g id="edge25" class="edge">
<title>Node89&#45;&gt;Node3</title>
<path fill="none" stroke="midnightblue" d="M878.58,-229.88C970.15,-193.19 1227.54,-95 1452.06,-56 1646.47,-22.23 2274.18,-13.16 2434.5,-11.37"/>
<polygon fill="midnightblue" stroke="midnightblue" points="2434.84,-14.87 2444.8,-11.26 2434.77,-7.87 2434.84,-14.87"/>
</g>
<!-- Node89&#45;&gt;Node4 -->
<g id="edge26" class="edge">
<title>Node89&#45;&gt;Node4</title>
<path fill="none" stroke="midnightblue" d="M888.03,-229.95C896.9,-227.59 906.21,-225.44 915.06,-224 1079.85,-197.14 1586.12,-184.24 1771.3,-180.33"/>
<polygon fill="midnightblue" stroke="midnightblue" points="1771.53,-183.83 1781.45,-180.12 1771.38,-176.83 1771.53,-183.83"/>
</g>
<!-- Node102&#45;&gt;Node3 -->
<g id="edge28" class="edge">
<title>Node102&#45;&gt;Node3</title>
<path fill="none" stroke="midnightblue" d="M1074.11,-374.98C960.66,-361.67 753.17,-337.03 737.06,-333 734.55,-332.37 564.99,-267.73 563.06,-266 530.64,-236.95 518.06,-222.53 518.06,-179 518.06,-179 518.06,-179 518.06,-121 518.06,0.27 662.87,-72.15 783.06,-56 1117.91,-11 2217.76,-10.55 2434.71,-10.91"/>
<polygon fill="midnightblue" stroke="midnightblue" points="2434.92,-14.41 2444.93,-10.93 2434.94,-7.41 2434.92,-14.41"/>
</g>
<!-- Node102&#45;&gt;Node4 -->
<g id="edge29" class="edge">
<title>Node102&#45;&gt;Node4</title>
<path fill="none" stroke="midnightblue" d="M1136.68,-374.86C1118.92,-359.06 1086.44,-325.03 1106.06,-302 1171.46,-225.25 1240,-311.35 1330.06,-266 1353.92,-253.98 1348.83,-235.25 1373.06,-224 1442.01,-191.97 1658.72,-182.73 1771.03,-180.07"/>
<polygon fill="midnightblue" stroke="midnightblue" points="1771.32,-183.56 1781.24,-179.84 1771.16,-176.56 1771.32,-183.56"/>
</g>
<!-- Node73 -->
<g id="node15" class="node">
<title>Node73</title>
<g id="a_node15"><a xlink:href="ConstAlias_8h_source.html" target="_top" xlink:title=" ">
<polygon fill="white" stroke="red" points="1196.56,-308 1196.56,-327 1321.56,-327 1321.56,-308 1196.56,-308"/>
<text text-anchor="middle" x="1259.06" y="-315" font-family="FreeSans" font-size="10.00">DGtal/base/ConstAlias.h</text>
</a>
</g>
</g>
<!-- Node102&#45;&gt;Node73 -->
<g id="edge30" class="edge">
<title>Node102&#45;&gt;Node73</title>
<path fill="none" stroke="midnightblue" d="M1162.16,-374.73C1180.97,-363.82 1213.31,-345.05 1235.42,-332.22"/>
<polygon fill="midnightblue" stroke="midnightblue" points="1237.3,-335.17 1244.19,-327.13 1233.79,-329.12 1237.3,-335.17"/>
</g>
<!-- Node73&#45;&gt;Node3 -->
<g id="edge31" class="edge">
<title>Node73&#45;&gt;Node3</title>
<path fill="none" stroke="midnightblue" d="M1301.31,-307.94C1311.08,-305.97 1321.43,-303.9 1331.06,-302 1413.67,-285.69 1447.14,-312.92 1517.06,-266 1555.45,-240.24 1574.06,-225.23 1574.06,-179 1574.06,-179 1574.06,-179 1574.06,-121 1574.06,-77.56 1606.9,-72.56 1647.06,-56 1720.39,-25.77 2282.9,-14.18 2434.52,-11.59"/>
<polygon fill="midnightblue" stroke="midnightblue" points="2434.77,-15.09 2444.71,-11.42 2434.65,-8.09 2434.77,-15.09"/>
</g>
<!-- Node73&#45;&gt;Node4 -->
<g id="edge32" class="edge">
<title>Node73&#45;&gt;Node4</title>
<path fill="none" stroke="midnightblue" d="M1298.57,-307.97C1309.1,-305.86 1320.49,-303.71 1331.06,-302 1461.46,-280.95 1505.46,-319.87 1626.06,-266 1651.94,-254.44 1649.07,-237.39 1674.06,-224 1705.05,-207.4 1742.66,-196.55 1774.23,-189.67"/>
<polygon fill="midnightblue" stroke="midnightblue" points="1775.18,-193.05 1784.26,-187.57 1773.75,-186.2 1775.18,-193.05"/>
</g>
<!-- Node74 -->
<g id="node16" class="node">
<title>Node74</title>
<g id="a_node16"><a xlink:href="CountedPtr_8h_source.html" target="_top" xlink:title=" ">
<polygon fill="white" stroke="red" points="1382.06,-235.5 1382.06,-254.5 1508.06,-254.5 1508.06,-235.5 1382.06,-235.5"/>
<text text-anchor="middle" x="1445.06" y="-242.5" font-family="FreeSans" font-size="10.00">DGtal/base/CountedPtr.h</text>
</a>
</g>
</g>
<!-- Node73&#45;&gt;Node74 -->
<g id="edge33" class="edge">
<title>Node73&#45;&gt;Node74</title>
<path fill="none" stroke="midnightblue" d="M1281.5,-308C1314.31,-295.56 1375.57,-272.34 1413.09,-258.12"/>
<polygon fill="midnightblue" stroke="midnightblue" points="1414.43,-261.35 1422.54,-254.53 1411.95,-254.81 1414.43,-261.35"/>
</g>
<!-- Node74&#45;&gt;Node3 -->
<g id="edge34" class="edge">
<title>Node74&#45;&gt;Node3</title>
<path fill="none" stroke="midnightblue" d="M1447.28,-235.19C1455.68,-203.99 1488.66,-98.37 1560.06,-56 1636.11,-10.87 2272.39,-10.23 2434.56,-10.8"/>
<polygon fill="midnightblue" stroke="midnightblue" points="2434.96,-14.3 2444.98,-10.84 2434.99,-7.3 2434.96,-14.3"/>
</g>
<!-- Node74&#45;&gt;Node4 -->
<g id="edge35" class="edge">
<title>Node74&#45;&gt;Node4</title>
<path fill="none" stroke="midnightblue" d="M1474.86,-235.42C1489.07,-231.54 1506.35,-227.14 1522.06,-224 1607.31,-206.96 1706.67,-193.98 1771.33,-186.44"/>
<polygon fill="midnightblue" stroke="midnightblue" points="1771.87,-189.9 1781.4,-185.28 1771.07,-182.95 1771.87,-189.9"/>
</g>
<!-- Node109&#45;&gt;Node3 -->
<g id="edge37" class="edge">
<title>Node109&#45;&gt;Node3</title>
<path fill="none" stroke="midnightblue" d="M417.06,-307.94C424.28,-286.5 442.06,-228.7 442.06,-179 442.06,-179 442.06,-179 442.06,-121 442.06,-87.08 452.64,-72.88 482.06,-56 526.08,-30.74 2165.99,-13.94 2434.92,-11.35"/>
<polygon fill="midnightblue" stroke="midnightblue" points="2435,-14.85 2444.96,-11.25 2434.93,-7.85 2435,-14.85"/>
</g>
<!-- Node109&#45;&gt;Node4 -->
<g id="edge39" class="edge">
<title>Node109&#45;&gt;Node4</title>
<path fill="none" stroke="midnightblue" d="M461.64,-307.98C475.59,-305.74 490.9,-303.52 505.06,-302 575.88,-294.39 1081.9,-298.92 1145.06,-266 1166.11,-255.03 1157.07,-235.1 1178.06,-224 1229.54,-196.78 1612.63,-184.49 1771.42,-180.52"/>
<polygon fill="midnightblue" stroke="midnightblue" points="1771.64,-184.02 1781.55,-180.27 1771.47,-177.02 1771.64,-184.02"/>
</g>
<!-- Node109&#45;&gt;Node44 -->
<g id="edge40" class="edge">
<title>Node109&#45;&gt;Node44</title>
<path fill="none" stroke="midnightblue" d="M406.34,-307.86C396.23,-296.54 378.31,-276.5 365.62,-262.29"/>
<polygon fill="midnightblue" stroke="midnightblue" points="368.12,-259.84 358.85,-254.72 362.9,-264.5 368.12,-259.84"/>
</g>
<!-- Node91 -->
<g id="node18" class="node">
<title>Node91</title>
<g id="a_node18"><a xlink:title=" ">
<polygon fill="white" stroke="#bfbfbf" points="924.06,-235.5 924.06,-254.5 954.06,-254.5 954.06,-235.5 924.06,-235.5"/>
<text text-anchor="middle" x="939.06" y="-242.5" font-family="FreeSans" font-size="10.00">set</text>
</a>
</g>
</g>
<!-- Node109&#45;&gt;Node91 -->
<g id="edge38" class="edge">
<title>Node109&#45;&gt;Node91</title>
<path fill="none" stroke="midnightblue" d="M463.56,-307.96C477,-305.82 491.56,-303.67 505.06,-302 595.83,-290.8 830.51,-300.87 915.06,-266 917.88,-264.84 920.62,-263.22 923.18,-261.4"/>
<polygon fill="midnightblue" stroke="midnightblue" points="925.61,-263.94 931.03,-254.84 921.11,-258.57 925.61,-263.94"/>
</g>
<!-- Node112&#45;&gt;Node3 -->
<g id="edge42" class="edge">
<title>Node112&#45;&gt;Node3</title>
<path fill="none" stroke="midnightblue" d="M1265.52,-374.95C1255.59,-372.91 1244.95,-370.8 1235.06,-369 1198.55,-362.37 599.19,-294.19 575.06,-266 562.92,-251.82 563.54,-238.69 575.06,-224 768.52,22.64 949.61,-99.37 1260.06,-56 1495.33,-23.13 2257.44,-13.24 2434.89,-11.36"/>
<polygon fill="midnightblue" stroke="midnightblue" points="2435.06,-14.86 2445.03,-11.26 2434.99,-7.86 2435.06,-14.86"/>
</g>
<!-- Node112&#45;&gt;Node4 -->
<g id="edge43" class="edge">
<title>Node112&#45;&gt;Node4</title>
<path fill="none" stroke="midnightblue" d="M1261.98,-374.92C1222.04,-366 1166.9,-350.83 1154.06,-333 1146.01,-321.82 1144.81,-312.21 1154.06,-302 1208.48,-241.92 1439.35,-289.07 1517.06,-266 1555.93,-254.46 1559.71,-237.18 1598.06,-224 1654.65,-204.55 1721.75,-192.91 1770.92,-186.36"/>
<polygon fill="midnightblue" stroke="midnightblue" points="1771.66,-189.79 1781.13,-185.04 1770.76,-182.85 1771.66,-189.79"/>
</g>
<!-- Node112&#45;&gt;Node89 -->
<g id="edge46" class="edge">
<title>Node112&#45;&gt;Node89</title>
<path fill="none" stroke="midnightblue" d="M1268.17,-374.98C1228.06,-365.52 1162.16,-349.41 1106.06,-333 1031.08,-311.07 945.37,-281.8 892.99,-263.42"/>
<polygon fill="midnightblue" stroke="midnightblue" points="893.88,-260.03 883.29,-260.01 891.56,-266.63 893.88,-260.03"/>
</g>
<!-- Node112&#45;&gt;Node73 -->
<g id="edge45" class="edge">
<title>Node112&#45;&gt;Node73</title>
<path fill="none" stroke="midnightblue" d="M1298.86,-374.73C1291.75,-364.7 1279.95,-348.01 1271.04,-335.42"/>
<polygon fill="midnightblue" stroke="midnightblue" points="1273.8,-333.27 1265.17,-327.13 1268.09,-337.31 1273.8,-333.27"/>
</g>
<!-- Node112&#45;&gt;Node74 -->
<g id="edge44" class="edge">
<title>Node112&#45;&gt;Node74</title>
<path fill="none" stroke="midnightblue" d="M1268.43,-374.92C1214.82,-362.19 1120.78,-339.15 1116.06,-333 1107.67,-322.07 1107.03,-312.41 1116.06,-302 1153.12,-259.27 1312.6,-277.13 1368.06,-266 1380.33,-263.54 1393.57,-260.31 1405.54,-257.17"/>
<polygon fill="midnightblue" stroke="midnightblue" points="1406.5,-260.54 1415.26,-254.57 1404.69,-253.78 1406.5,-260.54"/>
</g>
<!-- Node115 -->
<g id="node20" class="node">
<title>Node115</title>
<g id="a_node20"><a xlink:title=" ">
<polygon fill="white" stroke="#bfbfbf" points="1340.06,-308 1340.06,-327 1480.06,-327 1480.06,-308 1340.06,-308"/>
<text text-anchor="middle" x="1410.06" y="-315" font-family="FreeSans" font-size="10.00">boost/graph/graph_traits.hpp</text>
</a>
</g>
</g>
<!-- Node112&#45;&gt;Node115 -->
<g id="edge47" class="edge">
<title>Node112&#45;&gt;Node115</title>
<path fill="none" stroke="midnightblue" d="M1319.22,-374.73C1336.78,-363.87 1366.9,-345.22 1387.62,-332.39"/>
<polygon fill="midnightblue" stroke="midnightblue" points="1389.46,-335.37 1396.12,-327.13 1385.78,-329.41 1389.46,-335.37"/>
</g>
<!-- Node116 -->
<g id="node21" class="node">
<title>Node116</title>
<g id="a_node21"><a xlink:title=" ">
<polygon fill="white" stroke="#bfbfbf" points="1498.06,-308 1498.06,-327 1630.06,-327 1630.06,-308 1498.06,-308"/>
<text text-anchor="middle" x="1564.06" y="-315" font-family="FreeSans" font-size="10.00">boost/graph/properties.hpp</text>
</a>
</g>
</g>
<!-- Node112&#45;&gt;Node116 -->
<g id="edge48" class="edge">
<title>Node112&#45;&gt;Node116</title>
<path fill="none" stroke="midnightblue" d="M1339.19,-374.94C1385.67,-363.27 1468.96,-342.37 1520.08,-329.54"/>
<polygon fill="midnightblue" stroke="midnightblue" points="1521.01,-332.91 1529.86,-327.08 1519.31,-326.12 1521.01,-332.91"/>
</g>
<!-- Node121&#45;&gt;Node3 -->
<g id="edge50" class="edge">
<title>Node121&#45;&gt;Node3</title>
<path fill="none" stroke="midnightblue" d="M610.49,-381.22C462.24,-374.28 114.06,-347.2 114.06,-246 114.06,-246 114.06,-246 114.06,-121 114.06,-40.94 203.51,-71.5 282.06,-56 391.93,-34.32 2154.38,-14.43 2434.63,-11.4"/>
<polygon fill="midnightblue" stroke="midnightblue" points="2434.74,-14.9 2444.7,-11.29 2434.67,-7.9 2434.74,-14.9"/>
</g>
<!-- Node121&#45;&gt;Node4 -->
<g id="edge52" class="edge">
<title>Node121&#45;&gt;Node4</title>
<path fill="none" stroke="midnightblue" d="M714.07,-369.41C738.47,-359.97 770.6,-346.78 798.06,-333 822.11,-320.93 824.5,-310.41 850.06,-302 1005.33,-250.92 1066.05,-330.92 1216.06,-266 1242.08,-254.74 1237.93,-235 1264.06,-224 1353.82,-186.22 1638.84,-179.86 1771.24,-179"/>
<polygon fill="midnightblue" stroke="midnightblue" points="1771.29,-182.5 1781.27,-178.94 1771.25,-175.5 1771.29,-182.5"/>
</g>
<!-- Node121&#45;&gt;Node44 -->
<g id="edge53" class="edge">
<title>Node121&#45;&gt;Node44</title>
<path fill="none" stroke="midnightblue" d="M610.47,-383.92C518.81,-382.94 359.51,-375.04 323.06,-333 305.65,-312.92 323,-281.88 337.09,-262.81"/>
<polygon fill="midnightblue" stroke="midnightblue" points="339.99,-264.78 343.38,-254.74 334.47,-260.48 339.99,-264.78"/>
</g>
<!-- Node121&#45;&gt;Node91 -->
<g id="edge51" class="edge">
<title>Node121&#45;&gt;Node91</title>
<path fill="none" stroke="midnightblue" d="M696.53,-369.42C722.53,-351.97 769.19,-322.08 812.06,-302 855.97,-281.43 872.87,-289.91 915.06,-266 917.46,-264.64 919.84,-263.04 922.13,-261.34"/>
<polygon fill="midnightblue" stroke="midnightblue" points="924.8,-263.68 930.29,-254.62 920.35,-258.28 924.8,-263.68"/>
</g>
<!-- Node121&#45;&gt;Node122 -->
<g id="edge54" class="edge">
<title>Node121&#45;&gt;Node122</title>
<path fill="none" stroke="midnightblue" d="M655.23,-369.4C641.77,-360.28 624.06,-348.29 609.21,-338.24"/>
<polygon fill="midnightblue" stroke="midnightblue" points="611.09,-335.28 600.85,-332.58 607.17,-341.08 611.09,-335.28"/>
</g>
<!-- Node122&#45;&gt;Node3 -->
<g id="edge55" class="edge">
<title>Node122&#45;&gt;Node3</title>
<path fill="none" stroke="midnightblue" d="M548.71,-302.34C533.19,-293.86 515.4,-281.65 504.06,-266 480.53,-233.51 480.06,-219.11 480.06,-179 480.06,-179 480.06,-179 480.06,-121 480.06,-90.2 479,-73.89 504.06,-56 544.87,-26.87 2165.62,-13.32 2434.46,-11.28"/>
<polygon fill="midnightblue" stroke="midnightblue" points="2434.88,-14.77 2444.85,-11.2 2434.83,-7.77 2434.88,-14.77"/>
</g>
<!-- Node122&#45;&gt;Node4 -->
<g id="edge57" class="edge">
<title>Node122&#45;&gt;Node4</title>
<path fill="none" stroke="midnightblue" d="M645.7,-312.06C795.96,-301.75 1153.86,-276.28 1178.06,-266 1204.15,-254.92 1199.91,-234.93 1226.06,-224 1322.87,-183.53 1632.34,-178.67 1771.33,-178.6"/>
<polygon fill="midnightblue" stroke="midnightblue" points="1771.44,-182.1 1781.44,-178.6 1771.44,-175.1 1771.44,-182.1"/>
</g>
<!-- Node122&#45;&gt;Node44 -->
<g id="edge58" class="edge">
<title>Node122&#45;&gt;Node44</title>
<path fill="none" stroke="midnightblue" d="M534.54,-302.49C491.74,-289.31 428.42,-269.82 388.47,-257.52"/>
<polygon fill="midnightblue" stroke="midnightblue" points="389.44,-254.15 378.85,-254.55 387.38,-260.84 389.44,-254.15"/>
</g>
<!-- Node122&#45;&gt;Node91 -->
<g id="edge56" class="edge">
<title>Node122&#45;&gt;Node91</title>
<path fill="none" stroke="midnightblue" d="M645.71,-310.83C729.2,-302.9 868.18,-287.06 915.06,-266 917.84,-264.75 920.56,-263.08 923.11,-261.24"/>
<polygon fill="midnightblue" stroke="midnightblue" points="925.54,-263.78 930.96,-254.68 921.05,-258.41 925.54,-263.78"/>
</g>
<!-- Node125&#45;&gt;Node3 -->
<g id="edge61" class="edge">
<title>Node125&#45;&gt;Node3</title>
<path fill="none" stroke="midnightblue" d="M1323.81,-455.78C1107.96,-454.09 365.58,-440.43 159.06,-333 111.65,-308.34 76.06,-299.44 76.06,-246 76.06,-246 76.06,-246 76.06,-121 76.06,-82.87 97.55,-72.22 132.06,-56 186.43,-30.44 2138.69,-13.69 2434.63,-11.3"/>
<polygon fill="midnightblue" stroke="midnightblue" points="2434.87,-14.79 2444.84,-11.21 2434.81,-7.79 2434.87,-14.79"/>
</g>
<!-- Node125&#45;&gt;Node4 -->
<g id="edge63" class="edge">
<title>Node125&#45;&gt;Node4</title>
<path fill="none" stroke="midnightblue" d="M1386.4,-441.94C1390.02,-422.86 1393.1,-388.89 1375.06,-369 1317.91,-305.98 1241.27,-398.57 1187.06,-333 1178.28,-322.38 1177.78,-312.19 1187.06,-302 1244.92,-238.47 1492.17,-297.64 1572.06,-266 1600.33,-254.8 1598.48,-236.79 1626.06,-224 1671.98,-202.71 1728.1,-191.39 1771.36,-185.43"/>
<polygon fill="midnightblue" stroke="midnightblue" points="1772.04,-188.87 1781.5,-184.1 1771.13,-181.93 1772.04,-188.87"/>
</g>
<!-- Node125&#45;&gt;Node34 -->
<g id="edge65" class="edge">
<title>Node125&#45;&gt;Node34</title>
<path fill="none" stroke="midnightblue" d="M1442.15,-450.53C1580.7,-437.61 1915.59,-405.89 1926.06,-400 2036.3,-337.98 2106.79,-191.84 2128.73,-140.89"/>
<polygon fill="midnightblue" stroke="midnightblue" points="2132.01,-142.11 2132.67,-131.53 2125.56,-139.39 2132.01,-142.11"/>
</g>
<!-- Node125&#45;&gt;Node73 -->
<g id="edge64" class="edge">
<title>Node125&#45;&gt;Node73</title>
<path fill="none" stroke="midnightblue" d="M1394.02,-441.78C1406.72,-423.43 1423.99,-391.22 1408.06,-369 1396.41,-352.75 1349.35,-338.57 1311.19,-329.41"/>
<polygon fill="midnightblue" stroke="midnightblue" points="1311.74,-325.94 1301.2,-327.07 1310.14,-332.76 1311.74,-325.94"/>
</g>
<!-- Node125&#45;&gt;Node121 -->
<g id="edge66" class="edge">
<title>Node125&#45;&gt;Node121</title>
<path fill="none" stroke="midnightblue" d="M1324,-450.11C1196.11,-437.36 893.69,-407.2 751.9,-393.06"/>
<polygon fill="midnightblue" stroke="midnightblue" points="751.86,-389.54 741.56,-392.03 751.17,-396.51 751.86,-389.54"/>
</g>
<!-- Node59 -->
<g id="node25" class="node">
<title>Node59</title>
<g id="a_node25"><a xlink:title=" ">
<polygon fill="white" stroke="#bfbfbf" points="1762.06,-308 1762.06,-327 1806.06,-327 1806.06,-308 1762.06,-308"/>
<text text-anchor="middle" x="1784.06" y="-315" font-family="FreeSans" font-size="10.00">vector</text>
</a>
</g>
</g>
<!-- Node125&#45;&gt;Node59 -->
<g id="edge62" class="edge">
<title>Node125&#45;&gt;Node59</title>
<path fill="none" stroke="midnightblue" d="M1442.25,-451.99C1527.99,-445.26 1681.61,-429.44 1728.06,-400 1751.92,-384.88 1768.24,-355.53 1776.86,-336.49"/>
<polygon fill="midnightblue" stroke="midnightblue" points="1780.15,-337.7 1780.85,-327.12 1773.71,-334.95 1780.15,-337.7"/>
</g>
<!-- Node153&#45;&gt;Node3 -->
<g id="edge68" class="edge">
<title>Node153&#45;&gt;Node3</title>
<path fill="none" stroke="midnightblue" d="M744.05,-224.45C836.68,-198.59 1005.07,-151.67 1149.06,-112 1240.12,-86.91 1260.72,-70.44 1354.06,-56 1569.25,-22.72 2264.97,-13.22 2434.54,-11.37"/>
<polygon fill="midnightblue" stroke="midnightblue" points="2434.75,-14.87 2444.71,-11.26 2434.67,-7.87 2434.75,-14.87"/>
</g>
<!-- Node153&#45;&gt;Node4 -->
<g id="edge70" class="edge">
<title>Node153&#45;&gt;Node4</title>
<path fill="none" stroke="midnightblue" d="M764.07,-225.19C767.1,-224.76 770.1,-224.36 773.06,-224 967.31,-200.43 1566.63,-185.14 1770.98,-180.49"/>
<polygon fill="midnightblue" stroke="midnightblue" points="1771.35,-183.99 1781.27,-180.26 1771.2,-176.99 1771.35,-183.99"/>
</g>
<!-- Node153&#45;&gt;Node14 -->
<g id="edge69" class="edge">
<title>Node153&#45;&gt;Node14</title>
<path fill="none" stroke="midnightblue" d="M764.15,-225.69C767.15,-225.12 770.13,-224.55 773.06,-224 1113.88,-160.02 1528.7,-91.45 1645.88,-72.25"/>
<polygon fill="midnightblue" stroke="midnightblue" points="1646.67,-75.67 1655.97,-70.6 1645.54,-68.76 1646.67,-75.67"/>
</g>
<!-- Node158&#45;&gt;Node3 -->
<g id="edge72" class="edge">
<title>Node158&#45;&gt;Node3</title>
<path fill="none" stroke="midnightblue" d="M1091.29,-224.36C1169.79,-184.07 1359.16,-92.77 1530.06,-56 1707.08,-17.91 2281.45,-12.05 2434.37,-11.16"/>
<polygon fill="midnightblue" stroke="midnightblue" points="2434.66,-14.66 2444.64,-11.1 2434.62,-7.66 2434.66,-14.66"/>
</g>
<!-- Node158&#45;&gt;Node4 -->
<g id="edge74" class="edge">
<title>Node158&#45;&gt;Node4</title>
<path fill="none" stroke="midnightblue" d="M1136.15,-226.11C1140.84,-225.33 1145.51,-224.62 1150.06,-224 1375.96,-193.26 1646.42,-183.36 1771.01,-180.3"/>
<polygon fill="midnightblue" stroke="midnightblue" points="1771.26,-183.8 1781.17,-180.06 1771.09,-176.8 1771.26,-183.8"/>
</g>
<!-- Node158&#45;&gt;Node14 -->
<g id="edge73" class="edge">
<title>Node158&#45;&gt;Node14</title>
<path fill="none" stroke="midnightblue" d="M1122.92,-224.47C1257.18,-186.39 1549.23,-103.54 1646.11,-76.06"/>
<polygon fill="midnightblue" stroke="midnightblue" points="1647.24,-79.38 1655.91,-73.28 1645.33,-72.65 1647.24,-79.38"/>
</g>
<!-- Node160&#45;&gt;Node3 -->
<g id="edge77" class="edge">
<title>Node160&#45;&gt;Node3</title>
<path fill="none" stroke="midnightblue" d="M3021.62,-382.04C3182.83,-378.34 3542.87,-366.41 3587.06,-333 3645.28,-288.99 3644.06,-251.98 3644.06,-179 3644.06,-179 3644.06,-179 3644.06,-121 3644.06,-58.78 3580.15,-72.17 3520.06,-56 3420.97,-29.34 2683.96,-14.74 2509.16,-11.63"/>
<polygon fill="midnightblue" stroke="midnightblue" points="2509.23,-8.13 2499.17,-11.46 2509.1,-15.13 2509.23,-8.13"/>
</g>
<!-- Node160&#45;&gt;Node4 -->
<g id="edge82" class="edge">
<title>Node160&#45;&gt;Node4</title>
<path fill="none" stroke="midnightblue" d="M2912.94,-374.95C2852.12,-358.54 2713.04,-322.43 2594.06,-302 2452.13,-277.63 2400.23,-331.65 2272.06,-266 2249.65,-254.52 2256.45,-235.5 2234.06,-224 2178.91,-195.67 2006.31,-184.93 1908.84,-181.05"/>
<polygon fill="midnightblue" stroke="midnightblue" points="1908.91,-177.55 1898.78,-180.66 1908.64,-184.54 1908.91,-177.55"/>
</g>
<!-- Node160&#45;&gt;Node74 -->
<g id="edge83" class="edge">
<title>Node160&#45;&gt;Node74</title>
<path fill="none" stroke="midnightblue" d="M2904.53,-374.99C2824.23,-358.05 2636.06,-320.21 2476.06,-302 2118.47,-261.3 1687.63,-249.99 1518.38,-247.01"/>
<polygon fill="midnightblue" stroke="midnightblue" points="1518.39,-243.51 1508.33,-246.84 1518.27,-250.51 1518.39,-243.51"/>
</g>
<!-- Node160&#45;&gt;Node91 -->
<g id="edge79" class="edge">
<title>Node160&#45;&gt;Node91</title>
<path fill="none" stroke="midnightblue" d="M2866.53,-380.13C2748.98,-374.35 2518.82,-360.44 2325.06,-333 2256.36,-323.27 2240.98,-309.95 2172.06,-302 2038.55,-286.6 1088.73,-313.63 963.06,-266 960.01,-264.85 957.08,-263.13 954.36,-261.18"/>
<polygon fill="midnightblue" stroke="midnightblue" points="956.49,-258.4 946.61,-254.57 951.94,-263.72 956.49,-258.4"/>
</g>
<!-- Node160&#45;&gt;Node115 -->
<g id="edge80" class="edge">
<title>Node160&#45;&gt;Node115</title>
<path fill="none" stroke="midnightblue" d="M2866.29,-380.15C2794.17,-377.09 2683.87,-372.52 2588.06,-369 2099.68,-351.06 1974.96,-385.26 1489.06,-333 1479.59,-331.98 1469.56,-330.48 1459.93,-328.81"/>
<polygon fill="midnightblue" stroke="midnightblue" points="1460.54,-325.37 1450.08,-327.04 1459.3,-332.26 1460.54,-325.37"/>
</g>
<!-- Node160&#45;&gt;Node116 -->
<g id="edge81" class="edge">
<title>Node160&#45;&gt;Node116</title>
<path fill="none" stroke="midnightblue" d="M2866.47,-380.28C2610.9,-369.68 1808.58,-336.31 1753.06,-333 1715.84,-330.78 1674.53,-327.69 1640.06,-324.93"/>
<polygon fill="midnightblue" stroke="midnightblue" points="1640.31,-321.44 1630.06,-324.12 1639.75,-328.41 1640.31,-321.44"/>
</g>
<!-- Node160&#45;&gt;Node59 -->
<g id="edge78" class="edge">
<title>Node160&#45;&gt;Node59</title>
<path fill="none" stroke="midnightblue" d="M2866.15,-379.13C2636.96,-366.29 1971.44,-329 1816.55,-320.32"/>
<polygon fill="midnightblue" stroke="midnightblue" points="1816.47,-316.81 1806.29,-319.75 1816.08,-323.8 1816.47,-316.81"/>
</g>
<!-- Node161 -->
<g id="node29" class="node">
<title>Node161</title>
<g id="a_node29"><a xlink:href="CWithGradientMap_8h_source.html" target="_top" xlink:title=" ">
<polygon fill="white" stroke="red" points="3144.56,-230 3144.56,-260 3283.56,-260 3283.56,-230 3144.56,-230"/>
<text text-anchor="start" x="3152.56" y="-248" font-family="FreeSans" font-size="10.00">DGtal/kernel/CWithGradient</text>
<text text-anchor="middle" x="3214.06" y="-237" font-family="FreeSans" font-size="10.00">Map.h</text>
</a>
</g>
</g>
<!-- Node160&#45;&gt;Node161 -->
<g id="edge84" class="edge">
<title>Node160&#45;&gt;Node161</title>
<path fill="none" stroke="midnightblue" d="M2984.79,-374.98C3018.12,-367.01 3065.84,-353.26 3104.06,-333 3137.63,-315.2 3171.15,-286.77 3192.21,-267.29"/>
<polygon fill="midnightblue" stroke="midnightblue" points="3194.75,-269.7 3199.64,-260.3 3189.96,-264.6 3194.75,-269.7"/>
</g>
<!-- Node162 -->
<g id="node30" class="node">
<title>Node162</title>
<g id="a_node30"><a xlink:href="CCellEmbedder_8h_source.html" target="_top" xlink:title=" ">
<polygon fill="white" stroke="red" points="3416.56,-235.5 3416.56,-254.5 3577.56,-254.5 3577.56,-235.5 3416.56,-235.5"/>
<text text-anchor="middle" x="3497.06" y="-242.5" font-family="FreeSans" font-size="10.00">DGtal/topology/CCellEmbedder.h</text>
</a>
</g>
</g>
<!-- Node160&#45;&gt;Node162 -->
<g id="edge87" class="edge">
<title>Node160&#45;&gt;Node162</title>
<path fill="none" stroke="midnightblue" d="M3021.75,-379.53C3128.35,-373.22 3313.83,-358.87 3376.06,-333 3396.51,-324.5 3397.24,-315.14 3415.06,-302 3435.08,-287.24 3458.58,-271.33 3475.28,-260.25"/>
<polygon fill="midnightblue" stroke="midnightblue" points="3477.37,-263.06 3483.79,-254.64 3473.52,-257.22 3477.37,-263.06"/>
</g>
<!-- Node163 -->
<g id="node31" class="node">
<title>Node163</title>
<g id="a_node31"><a xlink:href="CSCellEmbedder_8h_source.html" target="_top" xlink:title=" ">
<polygon fill="white" stroke="red" points="2748.06,-235.5 2748.06,-254.5 2916.06,-254.5 2916.06,-235.5 2748.06,-235.5"/>
<text text-anchor="middle" x="2832.06" y="-242.5" font-family="FreeSans" font-size="10.00">DGtal/topology/CSCellEmbedder.h</text>
</a>
</g>
</g>
<!-- Node160&#45;&gt;Node163 -->
<g id="edge90" class="edge">
<title>Node160&#45;&gt;Node163</title>
<path fill="none" stroke="midnightblue" d="M2934.99,-374.92C2924.83,-365.15 2908.1,-348.53 2895.06,-333 2875.73,-309.99 2855.77,-281.47 2843.64,-263.5"/>
<polygon fill="midnightblue" stroke="midnightblue" points="2846.22,-261.07 2837.75,-254.7 2840.4,-264.96 2846.22,-261.07"/>
</g>
<!-- Node164 -->
<g id="node32" class="node">
<title>Node164</title>
<g id="a_node32"><a xlink:href="CDigitalSurfaceContainer_8h_source.html" target="_top" xlink:title=" ">
<polygon fill="white" stroke="red" points="3424.06,-302.5 3424.06,-332.5 3578.06,-332.5 3578.06,-302.5 3424.06,-302.5"/>
<text text-anchor="start" x="3432.06" y="-320.5" font-family="FreeSans" font-size="10.00">DGtal/topology/CDigitalSurface</text>
<text text-anchor="middle" x="3501.06" y="-309.5" font-family="FreeSans" font-size="10.00">Container.h</text>
</a>
</g>
</g>
<!-- Node160&#45;&gt;Node164 -->
<g id="edge93" class="edge">
<title>Node160&#45;&gt;Node164</title>
<path fill="none" stroke="midnightblue" d="M3021.71,-376.28C3114.32,-367.4 3273.75,-351.23 3410.06,-333 3411.17,-332.85 3412.29,-332.7 3413.41,-332.55"/>
<polygon fill="midnightblue" stroke="midnightblue" points="3414.24,-335.96 3423.65,-331.1 3413.26,-329.03 3414.24,-335.96"/>
</g>
<!-- Node165 -->
<g id="node33" class="node">
<title>Node165</title>
<g id="a_node33"><a xlink:href="CDigitalSurfaceTracker_8h_source.html" target="_top" xlink:title=" ">
<polygon fill="white" stroke="black" points="2934.06,-230 2934.06,-260 3088.06,-260 3088.06,-230 2934.06,-230"/>
<text text-anchor="start" x="2942.06" y="-248" font-family="FreeSans" font-size="10.00">DGtal/topology/CDigitalSurface</text>
<text text-anchor="middle" x="3011.06" y="-237" font-family="FreeSans" font-size="10.00">Tracker.h</text>
</a>
</g>
</g>
<!-- Node160&#45;&gt;Node165 -->
<g id="edge99" class="edge">
<title>Node160&#45;&gt;Node165</title>
<path fill="none" stroke="midnightblue" d="M3018.34,-374.97C3044.43,-368 3071.17,-355.46 3087.06,-333 3104.62,-308.18 3074.73,-282.25 3047.43,-265.22"/>
<polygon fill="midnightblue" stroke="midnightblue" points="3049.11,-262.15 3038.73,-260.02 3045.52,-268.15 3049.11,-262.15"/>
</g>
<!-- Node166 -->
<g id="node34" class="node">
<title>Node166</title>
<g id="a_node34"><a xlink:href="UmbrellaComputer_8h_source.html" target="_top" xlink:title=" ">
<polygon fill="white" stroke="red" points="2904.06,-308 2904.06,-327 3078.06,-327 3078.06,-308 2904.06,-308"/>
<text text-anchor="middle" x="2991.06" y="-315" font-family="FreeSans" font-size="10.00">DGtal/topology/UmbrellaComputer.h</text>
</a>
</g>
</g>
<!-- Node160&#45;&gt;Node166 -->
<g id="edge100" class="edge">
<title>Node160&#45;&gt;Node166</title>
<path fill="none" stroke="midnightblue" d="M2950.4,-374.73C2957.66,-364.7 2969.72,-348.01 2978.82,-335.42"/>
<polygon fill="midnightblue" stroke="midnightblue" points="2981.8,-337.28 2984.82,-327.13 2976.13,-333.18 2981.8,-337.28"/>
</g>
<!-- Node168 -->
<g id="node35" class="node">
<title>Node168</title>
<g id="a_node35"><a xlink:href="DigitalSurface_8ih_source.html" target="_top" xlink:title=" ">
<polygon fill="white" stroke="black" points="3210.56,-308 3210.56,-327 3367.56,-327 3367.56,-308 3210.56,-308"/>
<text text-anchor="middle" x="3289.06" y="-315" font-family="FreeSans" font-size="10.00">DGtal/topology/DigitalSurface.ih</text>
</a>
</g>
</g>
<!-- Node160&#45;&gt;Node168 -->
<g id="edge104" class="edge">
<title>Node160&#45;&gt;Node168</title>
<path fill="none" stroke="midnightblue" d="M2989.52,-374.94C3052.43,-363.08 3165.94,-341.7 3233.71,-328.93"/>
<polygon fill="midnightblue" stroke="midnightblue" points="3234.6,-332.32 3243.78,-327.03 3233.3,-325.44 3234.6,-332.32"/>
</g>
<!-- Node161&#45;&gt;Node3 -->
<g id="edge85" class="edge">
<title>Node161&#45;&gt;Node3</title>
<path fill="none" stroke="midnightblue" d="M3189.37,-229.98C3125.87,-194.6 2950.78,-101.29 2793.06,-56 2693.05,-27.28 2570.05,-16.57 2509.45,-12.84"/>
<polygon fill="midnightblue" stroke="midnightblue" points="2509.41,-9.33 2499.22,-12.24 2509,-16.32 2509.41,-9.33"/>
</g>
<!-- Node161&#45;&gt;Node4 -->
<g id="edge86" class="edge">
<title>Node161&#45;&gt;Node4</title>
<path fill="none" stroke="midnightblue" d="M3162.39,-229.99C3151.77,-227.6 3140.61,-225.43 3130.06,-224 2890.84,-191.68 2140.65,-181.89 1908.93,-179.6"/>
<polygon fill="midnightblue" stroke="midnightblue" points="1908.65,-176.09 1898.62,-179.5 1908.59,-183.09 1908.65,-176.09"/>
</g>
<!-- Node162&#45;&gt;Node3 -->
<g id="edge88" class="edge">
<title>Node162&#45;&gt;Node3</title>
<path fill="none" stroke="midnightblue" d="M3495.75,-235.25C3490.6,-204.24 3468.63,-99.2 3402.06,-56 3326.26,-6.81 2673.44,-9.22 2509.36,-10.62"/>
<polygon fill="midnightblue" stroke="midnightblue" points="2509.24,-7.12 2499.27,-10.71 2509.3,-14.12 2509.24,-7.12"/>
</g>
<!-- Node162&#45;&gt;Node4 -->
<g id="edge89" class="edge">
<title>Node162&#45;&gt;Node4</title>
<path fill="none" stroke="midnightblue" d="M3422.18,-235.49C3383.4,-231.39 3335.24,-226.77 3292.06,-224 2760.23,-189.85 2117.09,-181.42 1908.74,-179.51"/>
<polygon fill="midnightblue" stroke="midnightblue" points="1908.6,-176.01 1898.57,-179.42 1908.53,-183.01 1908.6,-176.01"/>
</g>
<!-- Node163&#45;&gt;Node3 -->
<g id="edge91" class="edge">
<title>Node163&#45;&gt;Node3</title>
<path fill="none" stroke="midnightblue" d="M2830.33,-235.1C2823.9,-204.48 2798.29,-102.85 2734.06,-56 2698.83,-30.3 2572.84,-18.02 2509.28,-13.35"/>
<polygon fill="midnightblue" stroke="midnightblue" points="2509.5,-9.86 2499.28,-12.64 2509,-16.84 2509.5,-9.86"/>
</g>
<!-- Node163&#45;&gt;Node4 -->
<g id="edge92" class="edge">
<title>Node163&#45;&gt;Node4</title>
<path fill="none" stroke="midnightblue" d="M2747.87,-237.89C2691.59,-233.85 2615.9,-228.48 2549.06,-224 2314.45,-208.27 2036.08,-191.01 1909.23,-183.23"/>
<polygon fill="midnightblue" stroke="midnightblue" points="1909.09,-179.71 1898.89,-182.59 1908.66,-186.7 1909.09,-179.71"/>
</g>
<!-- Node164&#45;&gt;Node3 -->
<g id="edge94" class="edge">
<title>Node164&#45;&gt;Node3</title>
<path fill="none" stroke="midnightblue" d="M3538.56,-302.35C3555.45,-294.17 3574.22,-282.22 3586.06,-266 3609.45,-233.95 3606.06,-218.68 3606.06,-179 3606.06,-179 3606.06,-179 3606.06,-121 3606.06,-8.17 2705.16,-9.08 2509.33,-10.62"/>
<polygon fill="midnightblue" stroke="midnightblue" points="2509.22,-7.12 2499.25,-10.7 2509.28,-14.12 2509.22,-7.12"/>
</g>
<!-- Node164&#45;&gt;Node4 -->
<g id="edge95" class="edge">
<title>Node164&#45;&gt;Node4</title>
<path fill="none" stroke="midnightblue" d="M3423.8,-306.57C3408.03,-304.82 3391.53,-303.18 3376.06,-302 3266.86,-293.68 2495.16,-300.03 2391.06,-266 2359.42,-255.66 2360.4,-235.21 2329.06,-224 2253.58,-196.99 2025.07,-185.38 1909.13,-181.12"/>
<polygon fill="midnightblue" stroke="midnightblue" points="1909.07,-177.61 1898.95,-180.75 1908.81,-184.61 1909.07,-177.61"/>
</g>
<!-- Node164&#45;&gt;Node165 -->
<g id="edge96" class="edge">
<title>Node164&#45;&gt;Node165</title>
<path fill="none" stroke="midnightblue" d="M3423.74,-307.56C3325.67,-296.07 3162.09,-276.37 3102.06,-266 3095.31,-264.83 3088.31,-263.51 3081.32,-262.1"/>
<polygon fill="midnightblue" stroke="midnightblue" points="3081.62,-258.59 3071.12,-260 3080.21,-265.45 3081.62,-258.59"/>
</g>
<!-- Node165&#45;&gt;Node3 -->
<g id="edge97" class="edge">
<title>Node165&#45;&gt;Node3</title>
<path fill="none" stroke="midnightblue" d="M2997.32,-229.76C2961.75,-193.84 2862.2,-99.39 2759.06,-56 2674.77,-20.54 2565.91,-12.73 2509.57,-11.2"/>
<polygon fill="midnightblue" stroke="midnightblue" points="2509.42,-7.7 2499.35,-10.98 2509.27,-14.69 2509.42,-7.7"/>
</g>
<!-- Node165&#45;&gt;Node4 -->
<g id="edge98" class="edge">
<title>Node165&#45;&gt;Node4</title>
<path fill="none" stroke="midnightblue" d="M2957.67,-229.96C2946.94,-227.59 2935.69,-225.44 2925.06,-224 2727.45,-197.17 2115.49,-183.95 1908.95,-180.17"/>
<polygon fill="midnightblue" stroke="midnightblue" points="1908.9,-176.67 1898.84,-179.99 1908.78,-183.67 1908.9,-176.67"/>
</g>
<!-- Node166&#45;&gt;Node3 -->
<g id="edge101" class="edge">
<title>Node166&#45;&gt;Node3</title>
<path fill="none" stroke="midnightblue" d="M3048.4,-307.99C3141.25,-294.15 3314.46,-268.11 3317.06,-266 3349.19,-239.97 3350.06,-220.35 3350.06,-179 3350.06,-179 3350.06,-179 3350.06,-121 3350.06,-49.16 3271.88,-72.92 3202.06,-56 3068.52,-23.65 2639.06,-13.84 2509.45,-11.57"/>
<polygon fill="midnightblue" stroke="midnightblue" points="2509.3,-8.07 2499.24,-11.4 2509.18,-15.07 2509.3,-8.07"/>
</g>
<!-- Node166&#45;&gt;Node4 -->
<g id="edge102" class="edge">
<title>Node166&#45;&gt;Node4</title>
<path fill="none" stroke="midnightblue" d="M2903.74,-309.29C2875.16,-306.95 2843.26,-304.35 2814.06,-302 2611.42,-285.7 2554.18,-319.55 2358.06,-266 2317.03,-254.8 2312.95,-235.72 2272.06,-224 2205.68,-204.98 2013.16,-190.14 1908.97,-183.24"/>
<polygon fill="midnightblue" stroke="midnightblue" points="1909.07,-179.74 1898.86,-182.57 1908.61,-186.72 1909.07,-179.74"/>
</g>
<!-- Node166&#45;&gt;Node165 -->
<g id="edge103" class="edge">
<title>Node166&#45;&gt;Node165</title>
<path fill="none" stroke="midnightblue" d="M2993.51,-307.86C2996.18,-298.46 3000.56,-283.02 3004.27,-269.92"/>
<polygon fill="midnightblue" stroke="midnightblue" points="3007.7,-270.65 3007.07,-260.08 3000.97,-268.74 3007.7,-270.65"/>
</g>
<!-- Node169&#45;&gt;Node3 -->
<g id="edge106" class="edge">
<title>Node169&#45;&gt;Node3</title>
<path fill="none" stroke="midnightblue" d="M1626.95,-374.93C1645.19,-365.03 1675.97,-348.16 1702.06,-333 1724.99,-319.67 1729.17,-313.52 1753.06,-302 1851.6,-254.48 2133.53,-204.94 2215.06,-132 2243.2,-106.82 2223.11,-79 2253.06,-56 2281.11,-34.46 2380.22,-20.78 2434.99,-14.69"/>
<polygon fill="midnightblue" stroke="midnightblue" points="2435.44,-18.16 2445,-13.6 2434.68,-11.2 2435.44,-18.16"/>
</g>
<!-- Node169&#45;&gt;Node4 -->
<g id="edge108" class="edge">
<title>Node169&#45;&gt;Node4</title>
<path fill="none" stroke="midnightblue" d="M1622.15,-374.89C1634.59,-365.09 1655.25,-348.44 1672.06,-333 1722.05,-287.07 1727.81,-268.51 1779.06,-224 1791.57,-213.14 1806.53,-202.07 1818.5,-193.63"/>
<polygon fill="midnightblue" stroke="midnightblue" points="1820.77,-196.32 1826.99,-187.74 1816.78,-190.57 1820.77,-196.32"/>
</g>
<!-- Node169&#45;&gt;Node73 -->
<g id="edge109" class="edge">
<title>Node169&#45;&gt;Node73</title>
<path fill="none" stroke="midnightblue" d="M1562.19,-375C1506.27,-365.19 1411.97,-348.44 1331.06,-333 1324.41,-331.73 1317.43,-330.37 1310.53,-329"/>
<polygon fill="midnightblue" stroke="midnightblue" points="1311.02,-325.53 1300.53,-327 1309.65,-332.39 1311.02,-325.53"/>
</g>
<!-- Node169&#45;&gt;Node59 -->
<g id="edge107" class="edge">
<title>Node169&#45;&gt;Node59</title>
<path fill="none" stroke="midnightblue" d="M1634.9,-374.96C1662.3,-365.08 1708.56,-348.23 1748.06,-333 1749.9,-332.29 1751.79,-331.55 1753.69,-330.81"/>
<polygon fill="midnightblue" stroke="midnightblue" points="1755.16,-333.99 1763.16,-327.04 1752.58,-327.48 1755.16,-333.99"/>
</g>
<!-- Node178&#45;&gt;Node3 -->
<g id="edge111" class="edge">
<title>Node178&#45;&gt;Node3</title>
<path fill="none" stroke="midnightblue" d="M873.91,-378.26C713.45,-366.06 328.94,-336.49 323.06,-333 259.46,-295.27 260.06,-252.95 260.06,-179 260.06,-179 260.06,-179 260.06,-121 260.06,-51.59 334.41,-71.52 402.06,-56 504.97,-32.39 2163.06,-14.21 2434.59,-11.38"/>
<polygon fill="midnightblue" stroke="midnightblue" points="2434.76,-14.88 2444.72,-11.28 2434.68,-7.88 2434.76,-14.88"/>
</g>
<!-- Node178&#45;&gt;Node4 -->
<g id="edge112" class="edge">
<title>Node178&#45;&gt;Node4</title>
<path fill="none" stroke="midnightblue" d="M964.38,-369.39C993.09,-351.06 1046.33,-319.34 1096.06,-302 1179.69,-272.84 1214.7,-309.12 1292.06,-266 1314.05,-253.74 1307.52,-235.21 1330.06,-224 1405.74,-186.34 1650.5,-179.8 1771.31,-178.93"/>
<polygon fill="midnightblue" stroke="midnightblue" points="1771.57,-182.43 1781.55,-178.86 1771.53,-175.43 1771.57,-182.43"/>
</g>
<!-- Node178&#45;&gt;Node73 -->
<g id="edge113" class="edge">
<title>Node178&#45;&gt;Node73</title>
<path fill="none" stroke="midnightblue" d="M1011.24,-369.48C1070.21,-357.34 1154.19,-340.07 1207.66,-329.07"/>
<polygon fill="midnightblue" stroke="midnightblue" points="1208.51,-332.47 1217.6,-327.03 1207.1,-325.62 1208.51,-332.47"/>
</g>
<!-- Node180&#45;&gt;Node3 -->
<g id="edge115" class="edge">
<title>Node180&#45;&gt;Node3</title>
<path fill="none" stroke="midnightblue" d="M1872.72,-369.35C1971.56,-310.26 2350.83,-83.49 2448.83,-24.89"/>
<polygon fill="midnightblue" stroke="midnightblue" points="2450.88,-27.74 2457.67,-19.6 2447.29,-21.73 2450.88,-27.74"/>
</g>
<!-- Node180&#45;&gt;Node4 -->
<g id="edge117" class="edge">
<title>Node180&#45;&gt;Node4</title>
<path fill="none" stroke="midnightblue" d="M1844.4,-369.45C1838.62,-352.81 1827.92,-324.49 1815.06,-302 1805.13,-284.64 1794.38,-284.97 1788.06,-266 1782.16,-248.29 1780.3,-240.98 1788.06,-224 1793.84,-211.36 1805.11,-200.91 1815.69,-193.27"/>
<polygon fill="midnightblue" stroke="midnightblue" points="1817.91,-196 1824.28,-187.53 1814.02,-190.18 1817.91,-196"/>
</g>
<!-- Node180&#45;&gt;Node73 -->
<g id="edge118" class="edge">
<title>Node180&#45;&gt;Node73</title>
<path fill="none" stroke="midnightblue" d="M1780.38,-376.99C1644.59,-364.1 1352.94,-336.26 1331.06,-333 1323.52,-331.88 1315.57,-330.49 1307.82,-329.02"/>
<polygon fill="midnightblue" stroke="midnightblue" points="1308.28,-325.54 1297.79,-327.05 1306.94,-332.41 1308.28,-325.54"/>
</g>
<!-- Node180&#45;&gt;Node59 -->
<g id="edge116" class="edge">
<title>Node180&#45;&gt;Node59</title>
<path fill="none" stroke="midnightblue" d="M1834.96,-369.4C1824.62,-359.06 1810.58,-345.02 1799.87,-334.31"/>
<polygon fill="midnightblue" stroke="midnightblue" points="1802.3,-331.79 1792.75,-327.19 1797.35,-336.74 1802.3,-331.79"/>
</g>
<!-- Node193&#45;&gt;Node3 -->
<g id="edge120" class="edge">
<title>Node193&#45;&gt;Node3</title>
<path fill="none" stroke="midnightblue" d="M2475.25,-229.97C2479.1,-218.78 2484.01,-202.62 2486.06,-188 2494.2,-129.9 2494.87,-114 2486.06,-56 2484.69,-47 2481.87,-37.33 2479.11,-29.26"/>
<polygon fill="midnightblue" stroke="midnightblue" points="2482.37,-27.98 2475.66,-19.78 2475.79,-30.37 2482.37,-27.98"/>
</g>
<!-- Node193&#45;&gt;Node4 -->
<g id="edge121" class="edge">
<title>Node193&#45;&gt;Node4</title>
<path fill="none" stroke="midnightblue" d="M2416.53,-229.98C2406.46,-227.7 2395.98,-225.58 2386.06,-224 2215.62,-196.85 2012.48,-185.58 1908.63,-181.32"/>
<polygon fill="midnightblue" stroke="midnightblue" points="1908.72,-177.82 1898.59,-180.91 1908.44,-184.81 1908.72,-177.82"/>
</g>
<!-- Node193&#45;&gt;Node36 -->
<g id="edge122" class="edge">
<title>Node193&#45;&gt;Node36</title>
<path fill="none" stroke="midnightblue" d="M2410.57,-229.96C2312.44,-206.44 2121.14,-159.04 2057.06,-132 2023.98,-118.04 1988.75,-95.75 1967.32,-81.24"/>
<polygon fill="midnightblue" stroke="midnightblue" points="1969.25,-78.32 1959.03,-75.54 1965.29,-84.09 1969.25,-78.32"/>
</g>
<!-- Node212&#45;&gt;Node3 -->
<g id="edge124" class="edge">
<title>Node212&#45;&gt;Node3</title>
<path fill="none" stroke="midnightblue" d="M2866.87,-452.87C3058.6,-444.86 3543.29,-422.63 3613.06,-400 3714.17,-367.2 3796.06,-352.3 3796.06,-246 3796.06,-246 3796.06,-246 3796.06,-121 3796.06,-76.55 3761.47,-72.15 3720.06,-56 3604.9,-11.09 2704.52,-10.48 2509.31,-10.89"/>
<polygon fill="midnightblue" stroke="midnightblue" points="2509.25,-7.39 2499.26,-10.91 2509.27,-14.39 2509.25,-7.39"/>
</g>
<!-- Node212&#45;&gt;Node4 -->
<g id="edge126" class="edge">
<title>Node212&#45;&gt;Node4</title>
<path fill="none" stroke="midnightblue" d="M2761.1,-436.36C2711.75,-402.76 2604.89,-334.74 2504.06,-302 2388.92,-264.61 2349.43,-302.7 2234.06,-266 2195.79,-253.83 2192.27,-236.36 2154.06,-224 2072.24,-197.53 1973.42,-186.61 1908.77,-182.12"/>
<polygon fill="midnightblue" stroke="midnightblue" points="1908.9,-178.62 1898.69,-181.45 1908.44,-185.6 1908.9,-178.62"/>
</g>
<!-- Node212&#45;&gt;Node34 -->
<g id="edge131" class="edge">
<title>Node212&#45;&gt;Node34</title>
<path fill="none" stroke="midnightblue" d="M2773.9,-436.2C2734.68,-385.46 2629.64,-252.76 2582.06,-224 2467.51,-154.75 2310.38,-132.91 2216.45,-126.06"/>
<polygon fill="midnightblue" stroke="midnightblue" points="2216.66,-122.57 2206.44,-125.37 2216.18,-129.55 2216.66,-122.57"/>
</g>
<!-- Node212&#45;&gt;Node35 -->
<g id="edge125" class="edge">
<title>Node212&#45;&gt;Node35</title>
<path fill="none" stroke="midnightblue" d="M2781.14,-436.29C2773.5,-418.18 2761.06,-390.91 2747.06,-369 2700.93,-296.81 2688.98,-274.88 2620.06,-224 2523.88,-153 2390.51,-101.13 2327.61,-78.94"/>
<polygon fill="midnightblue" stroke="midnightblue" points="2328.73,-75.62 2318.13,-75.64 2326.42,-82.23 2328.73,-75.62"/>
</g>
<!-- Node212&#45;&gt;Node73 -->
<g id="edge127" class="edge">
<title>Node212&#45;&gt;Node73</title>
<path fill="none" stroke="midnightblue" d="M2711.28,-449.74C2654.89,-445.38 2576.8,-439.71 2508.06,-436 2290.23,-424.25 1742.16,-436.31 1527.06,-400 1480.76,-392.18 1470.98,-382.68 1426.06,-369 1381.95,-355.56 1331.24,-340.24 1297.38,-330.04"/>
<polygon fill="midnightblue" stroke="midnightblue" points="1298.02,-326.58 1287.44,-327.04 1296,-333.28 1298.02,-326.58"/>
</g>
<!-- Node212&#45;&gt;Node160 -->
<g id="edge130" class="edge">
<title>Node212&#45;&gt;Node160</title>
<path fill="none" stroke="midnightblue" d="M2832.24,-436.36C2858.89,-424.24 2892.32,-409.03 2915.66,-398.42"/>
<polygon fill="midnightblue" stroke="midnightblue" points="2917.34,-401.5 2924.99,-394.17 2914.44,-395.13 2917.34,-401.5"/>
</g>
<!-- Node212&#45;&gt;Node163 -->
<g id="edge128" class="edge">
<title>Node212&#45;&gt;Node163</title>
<path fill="none" stroke="midnightblue" d="M2793.11,-436.24C2801.38,-395.83 2820.15,-304.18 2828.23,-264.69"/>
<polygon fill="midnightblue" stroke="midnightblue" points="2831.68,-265.31 2830.26,-254.82 2824.82,-263.91 2831.68,-265.31"/>
</g>
<!-- Node212&#45;&gt;Node164 -->
<g id="edge129" class="edge">
<title>Node212&#45;&gt;Node164</title>
<path fill="none" stroke="midnightblue" d="M2866.61,-441.02C3001.81,-414.91 3279.45,-361.3 3418.25,-334.49"/>
<polygon fill="midnightblue" stroke="midnightblue" points="3419.25,-337.86 3428.41,-332.53 3417.92,-330.99 3419.25,-337.86"/>
</g>
<!-- Node218&#45;&gt;Node3 -->
<g id="edge133" class="edge">
<title>Node218&#45;&gt;Node3</title>
<path fill="none" stroke="midnightblue" d="M2499.64,-449.61C2556.52,-445.35 2633.84,-439.85 2702.06,-436 2889.04,-425.44 3361.67,-442.5 3544.06,-400 3615.96,-383.24 3647.8,-388.87 3696.06,-333 3722.28,-302.64 3720.06,-286.11 3720.06,-246 3720.06,-246 3720.06,-246 3720.06,-121 3720.06,-90.2 3721,-74.07 3696.06,-56 3646.84,-20.34 2709.04,-12.48 2509.28,-11.21"/>
<polygon fill="midnightblue" stroke="midnightblue" points="2509.3,-7.71 2499.27,-11.15 2509.25,-14.71 2509.3,-7.71"/>
</g>
<!-- Node218&#45;&gt;Node4 -->
<g id="edge134" class="edge">
<title>Node218&#45;&gt;Node4</title>
<path fill="none" stroke="midnightblue" d="M2399.87,-441.94C2361.54,-411.35 2265.1,-338.59 2172.06,-302 2092.48,-270.7 2060.82,-301.58 1983.06,-266 1955.73,-253.49 1955.41,-240.14 1930.06,-224 1910.66,-211.65 1887.42,-200.11 1869.41,-191.8"/>
<polygon fill="midnightblue" stroke="midnightblue" points="1870.56,-188.48 1860.01,-187.54 1867.67,-194.85 1870.56,-188.48"/>
</g>
<!-- Node228&#45;&gt;Node3 -->
<g id="edge136" class="edge">
<title>Node228&#45;&gt;Node3</title>
<path fill="none" stroke="midnightblue" d="M2413.64,-534.63C2710.77,-536.47 3872.06,-534.16 3872.06,-385.5 3872.06,-385.5 3872.06,-385.5 3872.06,-121 3872.06,-77.23 3838.76,-72.13 3798.06,-56 3675.52,-7.43 2711.96,-9.74 2509.36,-10.77"/>
<polygon fill="midnightblue" stroke="midnightblue" points="2509.21,-7.27 2499.23,-10.83 2509.24,-14.27 2509.21,-7.27"/>
</g>
<!-- Node228&#45;&gt;Node4 -->
<g id="edge137" class="edge">
<title>Node228&#45;&gt;Node4</title>
<path fill="none" stroke="midnightblue" d="M2276.51,-523.65C2231.65,-515.2 2172.58,-500.85 2124.06,-478 2053.13,-444.6 1876.88,-336.24 1842.06,-266 1831.39,-244.48 1833.2,-216.13 1836.11,-197.74"/>
<polygon fill="midnightblue" stroke="midnightblue" points="1839.58,-198.19 1837.96,-187.72 1832.7,-196.92 1839.58,-198.19"/>
</g>
<!-- Node228&#45;&gt;Node218 -->
<g id="edge149" class="edge">
<title>Node228&#45;&gt;Node218</title>
<path fill="none" stroke="midnightblue" d="M2363.6,-514.43C2373.66,-503.81 2386.12,-490.66 2396.48,-479.73"/>
<polygon fill="midnightblue" stroke="midnightblue" points="2399.25,-481.89 2403.58,-472.23 2394.17,-477.08 2399.25,-481.89"/>
</g>
<!-- Node228&#45;&gt;Node234 -->
<g id="edge138" class="edge">
<title>Node228&#45;&gt;Node234</title>
<path fill="none" stroke="midnightblue" d="M2276.42,-531.74C2233.5,-526.64 2180.26,-512.98 2147.06,-478 2128.22,-458.14 2124.99,-425.08 2125.04,-404.32"/>
<polygon fill="midnightblue" stroke="midnightblue" points="2128.55,-404.32 2125.33,-394.23 2121.55,-404.12 2128.55,-404.32"/>
</g>
<!-- Node228&#45;&gt;Node240 -->
<g id="edge143" class="edge">
<title>Node228&#45;&gt;Node240</title>
<path fill="none" stroke="midnightblue" d="M2312.1,-514.43C2289.59,-501.06 2260.32,-483.69 2240.25,-471.77"/>
<polygon fill="midnightblue" stroke="midnightblue" points="2241.85,-468.65 2231.46,-466.55 2238.28,-474.67 2241.85,-468.65"/>
</g>
<!-- Node234&#45;&gt;Node3 -->
<g id="edge139" class="edge">
<title>Node234&#45;&gt;Node3</title>
<path fill="none" stroke="midnightblue" d="M2139.65,-374.95C2167.22,-358.04 2232.21,-320.37 2292.06,-302 2450.49,-253.38 2644.06,-344.72 2644.06,-179 2644.06,-179 2644.06,-179 2644.06,-121 2644.06,-57.5 2559.82,-29 2509.25,-17.62"/>
<polygon fill="midnightblue" stroke="midnightblue" points="2509.82,-14.16 2499.31,-15.5 2508.37,-21.01 2509.82,-14.16"/>
</g>
<!-- Node234&#45;&gt;Node4 -->
<g id="edge140" class="edge">
<title>Node234&#45;&gt;Node4</title>
<path fill="none" stroke="midnightblue" d="M2104.09,-374.91C2044.1,-351.29 1880.9,-285.79 1864.06,-266 1847.59,-246.64 1842.36,-216.87 1840.73,-197.67"/>
<polygon fill="midnightblue" stroke="midnightblue" points="1844.21,-197.28 1840.13,-187.5 1837.23,-197.69 1844.21,-197.28"/>
</g>
<!-- Node234&#45;&gt;Node66 -->
<g id="edge142" class="edge">
<title>Node234&#45;&gt;Node66</title>
<path fill="none" stroke="midnightblue" d="M2123.63,-374.73C2121.34,-366.46 2117.8,-353.66 2114.67,-342.37"/>
<polygon fill="midnightblue" stroke="midnightblue" points="2118,-341.29 2111.96,-332.59 2111.26,-343.16 2118,-341.29"/>
</g>
<!-- Node234&#45;&gt;Node73 -->
<g id="edge141" class="edge">
<title>Node234&#45;&gt;Node73</title>
<path fill="none" stroke="midnightblue" d="M2049.62,-377.74C2012.36,-374.99 1966.88,-371.71 1926.06,-369 1661.72,-351.42 1593.77,-367.23 1331.06,-333 1322.97,-331.95 1314.43,-330.51 1306.16,-328.96"/>
<polygon fill="midnightblue" stroke="midnightblue" points="1306.75,-325.51 1296.27,-327.01 1305.4,-332.37 1306.75,-325.51"/>
</g>
<!-- Node240&#45;&gt;Node3 -->
<g id="edge144" class="edge">
<title>Node240&#45;&gt;Node3</title>
<path fill="none" stroke="midnightblue" d="M2256.12,-447.48C2276.55,-443.35 2302.05,-438.71 2325.06,-436 2611.11,-402.36 3367.31,-476.46 3617.06,-333 3658.91,-308.96 3682.06,-294.27 3682.06,-246 3682.06,-246 3682.06,-246 3682.06,-121 3682.06,-68.36 3633.18,-72.09 3583.06,-56 3479.1,-22.62 2691.16,-13.09 2509.39,-11.33"/>
<polygon fill="midnightblue" stroke="midnightblue" points="2509.29,-7.83 2499.26,-11.23 2509.22,-14.83 2509.29,-7.83"/>
</g>
<!-- Node240&#45;&gt;Node4 -->
<g id="edge145" class="edge">
<title>Node240&#45;&gt;Node4</title>
<path fill="none" stroke="midnightblue" d="M2219.49,-447.33C2223.76,-430.11 2230.4,-391.31 2211.06,-369 2161.04,-311.3 2115.35,-357.6 2043.06,-333 2012.76,-322.69 2007.28,-315.07 1978.06,-302 1940.24,-285.08 1923.37,-293.14 1892.06,-266 1886.1,-260.83 1862.98,-220.23 1849.66,-196.36"/>
<polygon fill="midnightblue" stroke="midnightblue" points="1852.7,-194.62 1844.79,-187.58 1846.58,-198.02 1852.7,-194.62"/>
</g>
<!-- Node240&#45;&gt;Node66 -->
<g id="edge146" class="edge">
<title>Node240&#45;&gt;Node66</title>
<path fill="none" stroke="midnightblue" d="M2224.33,-447.34C2237.29,-430.78 2261.49,-394.06 2244.06,-369 2235.27,-356.36 2203.85,-344.27 2173.43,-335.1"/>
<polygon fill="midnightblue" stroke="midnightblue" points="2174.2,-331.67 2163.62,-332.22 2172.23,-338.39 2174.2,-331.67"/>
</g>
<!-- Node240&#45;&gt;Node121 -->
<g id="edge147" class="edge">
<title>Node240&#45;&gt;Node121</title>
<path fill="none" stroke="midnightblue" d="M2156.38,-454.25C1965.99,-448.59 1363.4,-429.43 865.06,-400 827.68,-397.79 786.2,-394.68 751.64,-391.91"/>
<polygon fill="midnightblue" stroke="midnightblue" points="751.87,-388.42 741.62,-391.1 751.31,-395.39 751.87,-388.42"/>
</g>
<!-- Node240&#45;&gt;Node234 -->
<g id="edge148" class="edge">
<title>Node240&#45;&gt;Node234</title>
<path fill="none" stroke="midnightblue" d="M2205.9,-447.36C2190.89,-435.73 2163.96,-414.86 2145.57,-400.61"/>
<polygon fill="midnightblue" stroke="midnightblue" points="2147.36,-397.57 2137.31,-394.22 2143.07,-403.11 2147.36,-397.57"/>
</g>
<!-- Node253&#45;&gt;Node3 -->
<g id="edge151" class="edge">
<title>Node253&#45;&gt;Node3</title>
<path fill="none" stroke="midnightblue" d="M3959.37,-229.73C3948.65,-189.56 3916.41,-77.07 3886.06,-56 3827.94,-15.64 2728.3,-11.48 2509.67,-11.05"/>
<polygon fill="midnightblue" stroke="midnightblue" points="2509.37,-7.55 2499.36,-11.03 2509.35,-14.55 2509.37,-7.55"/>
</g>
<!-- Node253&#45;&gt;Node4 -->
<g id="edge152" class="edge">
<title>Node253&#45;&gt;Node4</title>
<path fill="none" stroke="midnightblue" d="M3900.38,-240.15C3825.59,-235.68 3696.74,-228.36 3586.06,-224 2933.72,-198.3 2143.68,-184 1908.96,-180.1"/>
<polygon fill="midnightblue" stroke="midnightblue" points="1908.92,-176.6 1898.86,-179.93 1908.8,-183.6 1908.92,-176.6"/>
</g>
<!-- Node257&#45;&gt;Node3 -->
<g id="edge156" class="edge">
<title>Node257&#45;&gt;Node3</title>
<path fill="none" stroke="midnightblue" d="M2579.13,-381.75C2681,-377.85 2902.96,-366.01 3087.06,-333 3138.74,-323.73 3150.24,-315.22 3201.06,-302 3265.32,-285.29 3294.52,-307.87 3346.06,-266 3379.39,-238.93 3388.06,-221.94 3388.06,-179 3388.06,-179 3388.06,-179 3388.06,-121 3388.06,-64.6 3333,-72.49 3279.06,-56 3132.42,-11.17 2647.97,-10.09 2509.39,-10.73"/>
<polygon fill="midnightblue" stroke="midnightblue" points="2509.26,-7.23 2499.28,-10.78 2509.3,-14.23 2509.26,-7.23"/>
</g>
<!-- Node257&#45;&gt;Node4 -->
<g id="edge158" class="edge">
<title>Node257&#45;&gt;Node4</title>
<path fill="none" stroke="midnightblue" d="M2520.83,-374.84C2515.94,-357.73 2502.52,-319.72 2476.06,-302 2375.47,-234.63 2324.22,-292.33 2206.06,-266 2145.56,-252.52 2133.15,-239.24 2073.06,-224 2016.32,-209.61 1950.8,-197.34 1903.71,-189.26"/>
<polygon fill="midnightblue" stroke="midnightblue" points="1904.1,-185.77 1893.66,-187.55 1902.93,-192.67 1904.1,-185.77"/>
</g>
<!-- Node257&#45;&gt;Node36 -->
<g id="edge159" class="edge">
<title>Node257&#45;&gt;Node36</title>
<path fill="none" stroke="midnightblue" d="M2523.64,-374.61C2524.21,-358.09 2522.99,-322.49 2504.06,-302 2468.3,-263.28 2441.08,-282.63 2391.06,-266 2222.72,-210.02 2165.46,-226.08 2015.06,-132 1993.76,-118.68 1973.51,-97.9 1960.74,-83.43"/>
<polygon fill="midnightblue" stroke="midnightblue" points="1963.3,-81.05 1954.13,-75.75 1957.99,-85.61 1963.3,-81.05"/>
</g>
<!-- Node257&#45;&gt;Node59 -->
<g id="edge157" class="edge">
<title>Node257&#45;&gt;Node59</title>
<path fill="none" stroke="midnightblue" d="M2466.91,-378.56C2320.72,-365.7 1931.73,-331.49 1816.6,-321.36"/>
<polygon fill="midnightblue" stroke="midnightblue" points="1816.6,-317.85 1806.33,-320.46 1815.98,-324.82 1816.6,-317.85"/>
</g>
<!-- Node259&#45;&gt;Node3 -->
<g id="edge161" class="edge">
<title>Node259&#45;&gt;Node3</title>
<path fill="none" stroke="midnightblue" d="M3483.43,-447.51C3604.79,-431.41 3834.06,-391.34 3834.06,-318.5 3834.06,-318.5 3834.06,-318.5 3834.06,-121 3834.06,-77.23 3800.75,-72.15 3760.06,-56 3641.3,-8.86 2709.03,-10.02 2509.55,-10.81"/>
<polygon fill="midnightblue" stroke="midnightblue" points="2509.27,-7.31 2499.29,-10.86 2509.3,-14.31 2509.27,-7.31"/>
</g>
<!-- Node259&#45;&gt;Node4 -->
<g id="edge162" class="edge">
<title>Node259&#45;&gt;Node4</title>
<path fill="none" stroke="midnightblue" d="M3435.08,-447.4C3496.13,-425.19 3643.71,-363.34 3587.06,-302 3518.7,-227.98 3225.46,-310.5 3135.06,-266 3112.48,-254.88 3119.88,-234.62 3097.06,-224 3042.93,-198.81 2163.75,-183.82 1908.83,-179.98"/>
<polygon fill="midnightblue" stroke="midnightblue" points="1908.64,-176.48 1898.59,-179.83 1908.54,-183.48 1908.64,-176.48"/>
</g>
<!-- Node259&#45;&gt;Node160 -->
<g id="edge165" class="edge">
<title>Node259&#45;&gt;Node160</title>
<path fill="none" stroke="midnightblue" d="M3353.85,-447.5C3267.52,-434.44 3102.64,-409.49 3010.52,-395.55"/>
<polygon fill="midnightblue" stroke="midnightblue" points="3010.88,-392.07 3000.47,-394.03 3009.83,-398.99 3010.88,-392.07"/>
</g>
<!-- Node259&#45;&gt;Node162 -->
<g id="edge163" class="edge">
<title>Node259&#45;&gt;Node162</title>
<path fill="none" stroke="midnightblue" d="M3483.25,-449.46C3548.33,-441.95 3636.46,-427.02 3658.06,-400 3685.26,-365.98 3683.3,-337.5 3658.06,-302 3641.57,-278.8 3614.74,-265.13 3587.67,-257.1"/>
<polygon fill="midnightblue" stroke="midnightblue" points="3588.27,-253.64 3577.7,-254.39 3586.44,-260.39 3588.27,-253.64"/>
</g>
<!-- Node259&#45;&gt;Node164 -->
<g id="edge164" class="edge">
<title>Node259&#45;&gt;Node164</title>
<path fill="none" stroke="midnightblue" d="M3415.75,-447.4C3429.64,-426.42 3465.59,-372.09 3486.12,-341.07"/>
<polygon fill="midnightblue" stroke="midnightblue" points="3489.11,-342.9 3491.71,-332.62 3483.27,-339.03 3489.11,-342.9"/>
</g>
<!-- Node259&#45;&gt;Node257 -->
<g id="edge170" class="edge">
<title>Node259&#45;&gt;Node257</title>
<path fill="none" stroke="midnightblue" d="M3336.72,-450.17C3167.46,-436.72 2751.66,-403.67 2589.42,-390.77"/>
<polygon fill="midnightblue" stroke="midnightblue" points="2589.35,-387.26 2579.1,-389.95 2588.79,-394.24 2589.35,-387.26"/>
</g>
<!-- Node259&#45;&gt;Node260 -->
<g id="edge166" class="edge">
<title>Node259&#45;&gt;Node260</title>
<path fill="none" stroke="midnightblue" d="M3336.84,-453.43C3120.4,-445.62 2496.25,-421.34 2458.06,-400 2435.34,-387.3 2419.62,-361.31 2410.52,-342.07"/>
<polygon fill="midnightblue" stroke="midnightblue" points="2413.63,-340.45 2406.37,-332.73 2407.24,-343.29 2413.63,-340.45"/>
</g>
<!-- Node260&#45;&gt;Node3 -->
<g id="edge167" class="edge">
<title>Node260&#45;&gt;Node3</title>
<path fill="none" stroke="midnightblue" d="M2467.84,-314.89C2669.54,-309.75 3260.66,-292.49 3292.06,-266 3322.39,-240.42 3312.06,-218.68 3312.06,-179 3312.06,-179 3312.06,-179 3312.06,-121 3312.06,-38.88 2672.68,-16.32 2509.57,-11.9"/>
<polygon fill="midnightblue" stroke="midnightblue" points="2509.62,-8.4 2499.53,-11.64 2509.43,-15.4 2509.62,-8.4"/>
</g>
<!-- Node260&#45;&gt;Node4 -->
<g id="edge169" class="edge">
<title>Node260&#45;&gt;Node4</title>
<path fill="none" stroke="midnightblue" d="M2334.37,-306.12C2279.26,-297.06 2199.13,-282.74 2130.06,-266 2036.96,-243.43 1929.44,-208.9 1875.21,-190.88"/>
<polygon fill="midnightblue" stroke="midnightblue" points="1876.01,-187.45 1865.41,-187.61 1873.79,-194.1 1876.01,-187.45"/>
</g>
<!-- Node260&#45;&gt;Node91 -->
<g id="edge168" class="edge">
<title>Node260&#45;&gt;Node91</title>
<path fill="none" stroke="midnightblue" d="M2334.32,-310.79C2296.68,-307.75 2248.78,-304.21 2206.06,-302 2068.07,-294.88 1092.28,-314.91 963.06,-266 960.01,-264.85 957.08,-263.13 954.36,-261.19"/>
<polygon fill="midnightblue" stroke="midnightblue" points="956.48,-258.4 946.61,-254.57 951.94,-263.72 956.48,-258.4"/>
</g>
<!-- Node272&#45;&gt;Node3 -->
<g id="edge174" class="edge">
<title>Node272&#45;&gt;Node3</title>
<path fill="none" stroke="midnightblue" d="M560.34,-450.02C485.61,-442.65 365.6,-427.56 265.06,-400 188.33,-378.97 161.35,-382.5 99.06,-333 62.09,-303.62 38.06,-293.22 38.06,-246 38.06,-246 38.06,-246 38.06,-121 38.06,-83.16 58.88,-72.25 93.06,-56 148.25,-29.76 2135.19,-13.57 2434.47,-11.28"/>
<polygon fill="midnightblue" stroke="midnightblue" points="2434.82,-14.78 2444.79,-11.2 2434.76,-7.78 2434.82,-14.78"/>
</g>
<!-- Node272&#45;&gt;Node4 -->
<g id="edge173" class="edge">
<title>Node272&#45;&gt;Node4</title>
<path fill="none" stroke="midnightblue" d="M649.95,-447.33C704.61,-421.18 874.8,-342.47 1024.06,-302 1123.92,-274.92 1163.03,-315.18 1254.06,-266 1276.21,-254.04 1269.49,-235.14 1292.06,-224 1374.56,-183.26 1643.57,-178.36 1771.4,-178.42"/>
<polygon fill="midnightblue" stroke="midnightblue" points="1771.46,-181.92 1781.47,-178.44 1771.47,-174.92 1771.46,-181.92"/>
</g>
<!-- Node272&#45;&gt;Node6 -->
<g id="edge176" class="edge">
<title>Node272&#45;&gt;Node6</title>
<path fill="none" stroke="midnightblue" d="M560.48,-455.38C395.02,-452.03 0.06,-432.12 0.06,-318.5 0.06,-318.5 0.06,-318.5 0.06,-121 0.06,-90.2 -0.9,-74.03 24.06,-56 77.12,-17.66 1089.81,-11.9 1300.76,-11.12"/>
<polygon fill="midnightblue" stroke="midnightblue" points="1301.04,-14.61 1311.03,-11.08 1301.02,-7.61 1301.04,-14.61"/>
</g>
<!-- Node272&#45;&gt;Node44 -->
<g id="edge177" class="edge">
<title>Node272&#45;&gt;Node44</title>
<path fill="none" stroke="midnightblue" d="M560.24,-451.06C484.17,-441.56 367.58,-413.82 312.06,-333 296.46,-310.28 317.65,-280.31 334.37,-262.14"/>
<polygon fill="midnightblue" stroke="midnightblue" points="337.15,-264.3 341.59,-254.68 332.12,-259.43 337.15,-264.3"/>
</g>
<!-- Node272&#45;&gt;Node74 -->
<g id="edge179" class="edge">
<title>Node272&#45;&gt;Node74</title>
<path fill="none" stroke="midnightblue" d="M703.96,-451.65C800.98,-444.76 967.83,-429.05 1021.06,-400 1071.67,-372.38 1055.68,-330.04 1106.06,-302 1194.17,-252.97 1230.61,-282.64 1330.06,-266 1348.61,-262.9 1368.83,-259.41 1387.06,-256.24"/>
<polygon fill="midnightblue" stroke="midnightblue" points="1387.72,-259.67 1396.96,-254.51 1386.51,-252.78 1387.72,-259.67"/>
</g>
<!-- Node272&#45;&gt;Node121 -->
<g id="edge178" class="edge">
<title>Node272&#45;&gt;Node121</title>
<path fill="none" stroke="midnightblue" d="M637.46,-447.36C643.5,-437.68 653.53,-421.6 661.86,-408.26"/>
<polygon fill="midnightblue" stroke="midnightblue" points="664.95,-409.91 667.28,-399.58 659.01,-406.21 664.95,-409.91"/>
</g>
<!-- Node272&#45;&gt;Node59 -->
<g id="edge175" class="edge">
<title>Node272&#45;&gt;Node59</title>
<path fill="none" stroke="midnightblue" d="M703.95,-453.54C935.33,-445.44 1648.44,-419.07 1694.06,-400 1712.93,-392.11 1712.91,-382.74 1728.06,-369 1741.04,-357.23 1755.76,-343.96 1766.85,-333.98"/>
<polygon fill="midnightblue" stroke="midnightblue" points="1769.44,-336.35 1774.53,-327.06 1764.76,-331.15 1769.44,-336.35"/>
</g>
<!-- Node294&#45;&gt;Node3 -->
<g id="edge181" class="edge">
<title>Node294&#45;&gt;Node3</title>
<path fill="none" stroke="midnightblue" d="M4040.44,-168.44C4027.32,-145.13 3987.24,-80.68 3933.06,-56 3866.39,-25.63 2730.77,-13.43 2509.32,-11.34"/>
<polygon fill="midnightblue" stroke="midnightblue" points="2509.22,-7.83 2499.19,-11.24 2509.16,-14.83 2509.22,-7.83"/>
</g>
</g>
</svg>
