<?xml version="1.0" encoding="UTF-8" standalone="no"?>
<!DOCTYPE svg PUBLIC "-//W3C//DTD SVG 1.1//EN"
 "http://www.w3.org/Graphics/SVG/1.1/DTD/svg11.dtd">
<!-- Generated by graphviz version 2.44.1 (20200629.0846)
 -->
<!-- Title: DGtal::concepts::CImplicitFunctionDiff1&lt; T &gt; Pages: 1 -->
<svg width="190pt" height="117pt"
 viewBox="0.00 0.00 190.00 117.00" xmlns="http://www.w3.org/2000/svg" xmlns:xlink="http://www.w3.org/1999/xlink">
<g id="graph0" class="graph" transform="scale(1 1) rotate(0) translate(4 113)">
<title>DGtal::concepts::CImplicitFunctionDiff1&lt; T &gt;</title>
<polygon fill="white" stroke="transparent" points="-4,4 -4,-113 186,-113 186,4 -4,4"/>
<!-- Node1 -->
<g id="node1" class="node">
<title>Node1</title>
<g id="a_node1"><a xlink:title="Aim: Describes a 1&#45;differentiable function of the form f(x), where x is some real point in the given ...">
<polygon fill="#bfbfbf" stroke="black" points="49,-0.5 49,-30.5 182,-30.5 182,-0.5 49,-0.5"/>
<text text-anchor="start" x="57" y="-18.5" font-family="FreeSans" font-size="10.00">DGtal::concepts::CImplicit</text>
<text text-anchor="middle" x="115.5" y="-7.5" font-family="FreeSans" font-size="10.00">FunctionDiff1&lt; T &gt;</text>
</a>
</g>
</g>
<!-- Node2 -->
<g id="node2" class="node">
<title>Node2</title>
<g id="a_node2"><a xlink:href="structDGtal_1_1concepts_1_1CImplicitFunction.html" target="_top" xlink:title="Aim: Describes any function of the form f(x), where x is some real point in the given space,...">
<polygon fill="white" stroke="black" points="0,-78.5 0,-108.5 133,-108.5 133,-78.5 0,-78.5"/>
<text text-anchor="start" x="8" y="-96.5" font-family="FreeSans" font-size="10.00">DGtal::concepts::CImplicit</text>
<text text-anchor="middle" x="66.5" y="-85.5" font-family="FreeSans" font-size="10.00">Function&lt; T &gt;</text>
</a>
</g>
</g>
<!-- Node2&#45;&gt;Node1 -->
<g id="edge1" class="edge">
<title>Node2&#45;&gt;Node1</title>
<path fill="none" stroke="midnightblue" d="M81.28,-69.57C89.43,-56.94 99.29,-41.65 106.32,-30.73"/>
<polygon fill="midnightblue" stroke="midnightblue" points="78.19,-67.9 75.72,-78.2 84.08,-71.7 78.19,-67.9"/>
</g>
<!-- Node3 -->
<g id="node3" class="node">
<title>Node3</title>
<g id="a_node3"><a xlink:title=" ">
<polygon fill="white" stroke="#bfbfbf" points="151,-84 151,-103 180,-103 180,-84 151,-84"/>
<text text-anchor="middle" x="165.5" y="-91" font-family="FreeSans" font-size="10.00">T</text>
</a>
</g>
</g>
<!-- Node3&#45;&gt;Node1 -->
<g id="edge2" class="edge">
<title>Node3&#45;&gt;Node1</title>
<path fill="none" stroke="#9a32cd" stroke-dasharray="5,2" d="M154.23,-75.37C145.32,-61.83 133.05,-43.17 124.72,-30.52"/>
<polygon fill="#9a32cd" stroke="#9a32cd" points="151.34,-77.35 159.76,-83.78 157.19,-73.5 151.34,-77.35"/>
<text text-anchor="middle" x="154.5" y="-52" font-family="FreeSans" font-size="10.00"> myX</text>
</g>
</g>
</svg>
