<?xml version="1.0" encoding="UTF-8" standalone="no"?>
<!DOCTYPE svg PUBLIC "-//W3C//DTD SVG 1.1//EN"
 "http://www.w3.org/Graphics/SVG/1.1/DTD/svg11.dtd">
<!-- Generated by graphviz version 2.44.1 (20200629.0846)
 -->
<!-- Title: DGtal::concepts::CSegmentFactory&lt; T &gt; Pages: 1 -->
<svg width="568pt" height="142pt"
 viewBox="0.00 0.00 568.00 142.00" xmlns="http://www.w3.org/2000/svg" xmlns:xlink="http://www.w3.org/1999/xlink">
<g id="graph0" class="graph" transform="scale(1 1) rotate(0) translate(4 138)">
<title>DGtal::concepts::CSegmentFactory&lt; T &gt;</title>
<polygon fill="white" stroke="transparent" points="-4,4 -4,-138 564,-138 564,4 -4,4"/>
<!-- Node1 -->
<g id="node1" class="node">
<title>Node1</title>
<g id="a_node1"><a xlink:title="Aim: Defines the concept describing a segment ie. a valid and not empty subrange, which can construct...">
<polygon fill="#bfbfbf" stroke="black" points="420,-27 420,-57 560,-57 560,-27 420,-27"/>
<text text-anchor="start" x="428" y="-45" font-family="FreeSans" font-size="10.00">DGtal::concepts::CSegment</text>
<text text-anchor="middle" x="490" y="-34" font-family="FreeSans" font-size="10.00">Factory&lt; T &gt;</text>
</a>
</g>
</g>
<!-- Node2 -->
<g id="node2" class="node">
<title>Node2</title>
<g id="a_node2"><a xlink:href="structDGtal_1_1concepts_1_1CSegment.html" target="_top" xlink:title="Aim: Defines the concept describing a segment, ie. a valid and not empty range.">
<polygon fill="white" stroke="black" points="197,-57.5 197,-76.5 361,-76.5 361,-57.5 197,-57.5"/>
<text text-anchor="middle" x="279" y="-64.5" font-family="FreeSans" font-size="10.00">DGtal::concepts::CSegment&lt; T &gt;</text>
</a>
</g>
</g>
<!-- Node2&#45;&gt;Node1 -->
<g id="edge1" class="edge">
<title>Node2&#45;&gt;Node1</title>
<path fill="none" stroke="midnightblue" d="M369.94,-56.24C386.66,-54.24 403.88,-52.18 419.85,-50.27"/>
<polygon fill="midnightblue" stroke="midnightblue" points="369.12,-52.81 359.61,-57.48 369.96,-59.76 369.12,-52.81"/>
</g>
<!-- Node3 -->
<g id="node3" class="node">
<title>Node3</title>
<g id="a_node3"><a xlink:href="structboost_1_1DefaultConstructible.html" target="_top" xlink:title="Go to http://www.sgi.com/tech/stl/DefaultConstructible.html.">
<polygon fill="white" stroke="black" points="0,-114.5 0,-133.5 160,-133.5 160,-114.5 0,-114.5"/>
<text text-anchor="middle" x="80" y="-121.5" font-family="FreeSans" font-size="10.00">boost::DefaultConstructible&lt; T &gt;</text>
</a>
</g>
</g>
<!-- Node3&#45;&gt;Node2 -->
<g id="edge2" class="edge">
<title>Node3&#45;&gt;Node2</title>
<path fill="none" stroke="midnightblue" d="M133.32,-112.01C142.25,-109.79 151.42,-107.41 160,-105 191.08,-96.27 226.25,-84.73 250.05,-76.66"/>
<polygon fill="midnightblue" stroke="midnightblue" points="132.27,-108.66 123.38,-114.43 133.93,-115.46 132.27,-108.66"/>
</g>
<!-- Node4 -->
<g id="node4" class="node">
<title>Node4</title>
<g id="a_node4"><a xlink:href="structboost_1_1CopyConstructible.html" target="_top" xlink:title="Go to http://www.sgi.com/tech/stl/CopyConstructible.html.">
<polygon fill="white" stroke="black" points="4,-76.5 4,-95.5 156,-95.5 156,-76.5 4,-76.5"/>
<text text-anchor="middle" x="80" y="-83.5" font-family="FreeSans" font-size="10.00">boost::CopyConstructible&lt; T &gt;</text>
</a>
</g>
</g>
<!-- Node4&#45;&gt;Node2 -->
<g id="edge3" class="edge">
<title>Node4&#45;&gt;Node2</title>
<path fill="none" stroke="midnightblue" d="M166.17,-77.79C176.38,-76.8 186.78,-75.8 196.93,-74.82"/>
<polygon fill="midnightblue" stroke="midnightblue" points="165.66,-74.32 156.04,-78.76 166.33,-81.29 165.66,-74.32"/>
</g>
<!-- Node5 -->
<g id="node5" class="node">
<title>Node5</title>
<g id="a_node5"><a xlink:href="structboost_1_1Assignable.html" target="_top" xlink:title="Go to http://www.sgi.com/tech/stl/Assignable.html.">
<polygon fill="white" stroke="black" points="20.5,-38.5 20.5,-57.5 139.5,-57.5 139.5,-38.5 20.5,-38.5"/>
<text text-anchor="middle" x="80" y="-45.5" font-family="FreeSans" font-size="10.00">boost::Assignable&lt; T &gt;</text>
</a>
</g>
</g>
<!-- Node5&#45;&gt;Node2 -->
<g id="edge4" class="edge">
<title>Node5&#45;&gt;Node2</title>
<path fill="none" stroke="midnightblue" d="M149.86,-54.64C164.98,-56.1 181.13,-57.66 196.68,-59.16"/>
<polygon fill="midnightblue" stroke="midnightblue" points="149.86,-51.13 139.57,-53.65 149.19,-58.09 149.86,-51.13"/>
</g>
<!-- Node6 -->
<g id="node6" class="node">
<title>Node6</title>
<g id="a_node6"><a xlink:href="structboost_1_1EqualityComparable.html" target="_top" xlink:title="Go to http://www.sgi.com/tech/stl/EqualityComparable.html.">
<polygon fill="white" stroke="black" points="1,-0.5 1,-19.5 159,-19.5 159,-0.5 1,-0.5"/>
<text text-anchor="middle" x="80" y="-7.5" font-family="FreeSans" font-size="10.00">boost::EqualityComparable&lt; T &gt;</text>
</a>
</g>
</g>
<!-- Node6&#45;&gt;Node2 -->
<g id="edge5" class="edge">
<title>Node6&#45;&gt;Node2</title>
<path fill="none" stroke="midnightblue" d="M138.63,-22.16C145.9,-24.19 153.18,-26.47 160,-29 177.33,-35.43 179.65,-41.62 197,-48 207.03,-51.69 218.03,-54.83 228.6,-57.44"/>
<polygon fill="midnightblue" stroke="midnightblue" points="139.32,-18.72 128.76,-19.55 137.53,-25.49 139.32,-18.72"/>
</g>
<!-- Node7 -->
<g id="node7" class="node">
<title>Node7</title>
<g id="a_node7"><a xlink:title=" ">
<polygon fill="white" stroke="#bfbfbf" points="264.5,-19.5 264.5,-38.5 293.5,-38.5 293.5,-19.5 264.5,-19.5"/>
<text text-anchor="middle" x="279" y="-26.5" font-family="FreeSans" font-size="10.00">T</text>
</a>
</g>
</g>
<!-- Node7&#45;&gt;Node1 -->
<g id="edge6" class="edge">
<title>Node7&#45;&gt;Node1</title>
<path fill="none" stroke="#9a32cd" stroke-dasharray="5,2" d="M303.71,-30.28C328.3,-31.62 367.85,-33.84 402,-36 407.74,-36.36 413.7,-36.75 419.67,-37.15"/>
<polygon fill="#9a32cd" stroke="#9a32cd" points="303.72,-26.77 293.54,-29.73 303.34,-33.76 303.72,-26.77"/>
<text text-anchor="middle" x="390.5" y="-39" font-family="FreeSans" font-size="10.00"> myT</text>
</g>
</g>
</svg>
