<?xml version="1.0" encoding="UTF-8" standalone="no"?>
<!DOCTYPE svg PUBLIC "-//W3C//DTD SVG 1.1//EN"
 "http://www.w3.org/Graphics/SVG/1.1/DTD/svg11.dtd">
<!-- Generated by graphviz version 2.44.1 (20200629.0846)
 -->
<!-- Title: DGtal::concepts::C3DParametricCurveDecorator&lt; T &gt; Pages: 1 -->
<svg width="225pt" height="117pt"
 viewBox="0.00 0.00 225.00 117.00" xmlns="http://www.w3.org/2000/svg" xmlns:xlink="http://www.w3.org/1999/xlink">
<g id="graph0" class="graph" transform="scale(1 1) rotate(0) translate(4 113)">
<title>DGtal::concepts::C3DParametricCurveDecorator&lt; T &gt;</title>
<polygon fill="white" stroke="transparent" points="-4,4 -4,-113 221,-113 221,4 -4,4"/>
<!-- Node1 -->
<g id="node1" class="node">
<title>Node1</title>
<g id="a_node1"><a xlink:title="Aim:">
<polygon fill="#bfbfbf" stroke="black" points="56,-0.5 56,-30.5 217,-30.5 217,-0.5 56,-0.5"/>
<text text-anchor="start" x="64" y="-18.5" font-family="FreeSans" font-size="10.00">DGtal::concepts::C3DParametric</text>
<text text-anchor="middle" x="136.5" y="-7.5" font-family="FreeSans" font-size="10.00">CurveDecorator&lt; T &gt;</text>
</a>
</g>
</g>
<!-- Node2 -->
<g id="node2" class="node">
<title>Node2</title>
<g id="a_node2"><a xlink:href="structDGtal_1_1concepts_1_1C3DParametricCurve.html" target="_top" xlink:title="Aim:">
<polygon fill="white" stroke="black" points="0,-78.5 0,-108.5 161,-108.5 161,-78.5 0,-78.5"/>
<text text-anchor="start" x="8" y="-96.5" font-family="FreeSans" font-size="10.00">DGtal::concepts::C3DParametric</text>
<text text-anchor="middle" x="80.5" y="-85.5" font-family="FreeSans" font-size="10.00">Curve&lt; T &gt;</text>
</a>
</g>
</g>
<!-- Node2&#45;&gt;Node1 -->
<g id="edge1" class="edge">
<title>Node2&#45;&gt;Node1</title>
<path fill="none" stroke="midnightblue" d="M97.12,-69.94C106.48,-57.23 117.89,-41.75 126.01,-30.73"/>
<polygon fill="midnightblue" stroke="midnightblue" points="94.15,-68.08 91.03,-78.2 99.78,-72.23 94.15,-68.08"/>
</g>
<!-- Node3 -->
<g id="node3" class="node">
<title>Node3</title>
<g id="a_node3"><a xlink:title=" ">
<polygon fill="white" stroke="#bfbfbf" points="179,-84 179,-103 208,-103 208,-84 179,-84"/>
<text text-anchor="middle" x="193.5" y="-91" font-family="FreeSans" font-size="10.00">T</text>
</a>
</g>
</g>
<!-- Node3&#45;&gt;Node1 -->
<g id="edge2" class="edge">
<title>Node3&#45;&gt;Node1</title>
<path fill="none" stroke="#9a32cd" stroke-dasharray="5,2" d="M180.94,-75.75C170.77,-62.19 156.6,-43.3 147.01,-30.52"/>
<polygon fill="#9a32cd" stroke="#9a32cd" points="178.16,-77.88 186.96,-83.78 183.76,-73.68 178.16,-77.88"/>
<text text-anchor="middle" x="177" y="-52" font-family="FreeSans" font-size="10.00"> self</text>
</g>
</g>
</svg>
