<?xml version="1.0" encoding="UTF-8" standalone="no"?>
<!DOCTYPE svg PUBLIC "-//W3C//DTD SVG 1.1//EN"
 "http://www.w3.org/Graphics/SVG/1.1/DTD/svg11.dtd">
<!-- Generated by graphviz version 2.44.1 (20200629.0846)
 -->
<!-- Title: DGtal::functors::Projector&lt; S &gt; Pages: 1 -->
<svg width="203pt" height="240pt"
 viewBox="0.00 0.00 202.50 240.00" xmlns="http://www.w3.org/2000/svg" xmlns:xlink="http://www.w3.org/1999/xlink">
<g id="graph0" class="graph" transform="scale(1 1) rotate(0) translate(4 236)">
<title>DGtal::functors::Projector&lt; S &gt;</title>
<polygon fill="white" stroke="transparent" points="-4,4 -4,-236 198.5,-236 198.5,4 -4,4"/>
<!-- Node1 -->
<g id="node1" class="node">
<title>Node1</title>
<g id="a_node1"><a xlink:title="Aim: Functor that maps a point P of dimension i to a point Q of dimension j. The member myDims is an ...">
<polygon fill="#bfbfbf" stroke="black" points="0,-0.5 0,-19.5 153,-19.5 153,-0.5 0,-0.5"/>
<text text-anchor="middle" x="76.5" y="-7.5" font-family="FreeSans" font-size="10.00">DGtal::functors::Projector&lt; S &gt;</text>
</a>
</g>
</g>
<!-- Node2 -->
<g id="node2" class="node">
<title>Node2</title>
<g id="a_node2"><a xlink:title=" ">
<polygon fill="white" stroke="#bfbfbf" points="18.5,-67.5 18.5,-97.5 134.5,-97.5 134.5,-67.5 18.5,-67.5"/>
<text text-anchor="start" x="26.5" y="-85.5" font-family="FreeSans" font-size="10.00">std::array&lt; Dimension,</text>
<text text-anchor="middle" x="76.5" y="-74.5" font-family="FreeSans" font-size="10.00"> dimension &gt;</text>
</a>
</g>
</g>
<!-- Node2&#45;&gt;Node1 -->
<g id="edge1" class="edge">
<title>Node2&#45;&gt;Node1</title>
<path fill="none" stroke="#9a32cd" stroke-dasharray="5,2" d="M76.5,-57.09C76.5,-44.21 76.5,-29.2 76.5,-19.89"/>
<polygon fill="#9a32cd" stroke="#9a32cd" points="73,-57.23 76.5,-67.23 80,-57.23 73,-57.23"/>
<text text-anchor="middle" x="96.5" y="-41" font-family="FreeSans" font-size="10.00"> myDims</text>
</g>
<!-- Node3 -->
<g id="node3" class="node">
<title>Node3</title>
<g id="a_node3"><a xlink:title="STL class.">
<polygon fill="white" stroke="#bfbfbf" points="35.5,-145.5 35.5,-164.5 117.5,-164.5 117.5,-145.5 35.5,-145.5"/>
<text text-anchor="middle" x="76.5" y="-152.5" font-family="FreeSans" font-size="10.00">std::array&lt; T &gt;</text>
</a>
</g>
</g>
<!-- Node3&#45;&gt;Node2 -->
<g id="edge2" class="edge">
<title>Node3&#45;&gt;Node2</title>
<path fill="none" stroke="orange" stroke-dasharray="5,2" d="M76.5,-135.24C76.5,-123.41 76.5,-108.38 76.5,-97.58"/>
<polygon fill="orange" stroke="orange" points="73,-135.36 76.5,-145.36 80,-135.36 73,-135.36"/>
<text text-anchor="middle" x="135.5" y="-119" font-family="FreeSans" font-size="10.00"> &lt; Dimension, dimension &gt;</text>
</g>
<!-- Node4 -->
<g id="node4" class="node">
<title>Node4</title>
<g id="a_node4"><a xlink:title=" ">
<polygon fill="white" stroke="#bfbfbf" points="62,-212.5 62,-231.5 91,-231.5 91,-212.5 62,-212.5"/>
<text text-anchor="middle" x="76.5" y="-219.5" font-family="FreeSans" font-size="10.00">T</text>
</a>
</g>
</g>
<!-- Node4&#45;&gt;Node3 -->
<g id="edge3" class="edge">
<title>Node4&#45;&gt;Node3</title>
<path fill="none" stroke="#9a32cd" stroke-dasharray="5,2" d="M76.5,-202.04C76.5,-189.67 76.5,-174.12 76.5,-164.63"/>
<polygon fill="#9a32cd" stroke="#9a32cd" points="73,-202.23 76.5,-212.23 80,-202.23 73,-202.23"/>
<text text-anchor="middle" x="98" y="-186" font-family="FreeSans" font-size="10.00"> elements</text>
</g>
</g>
</svg>
