<?xml version="1.0" encoding="UTF-8" standalone="no"?>
<!DOCTYPE svg PUBLIC "-//W3C//DTD SVG 1.1//EN"
 "http://www.w3.org/Graphics/SVG/1.1/DTD/svg11.dtd">
<!-- Generated by graphviz version 2.44.1 (20200629.0846)
 -->
<!-- Title: DGtal::concepts::CPositiveIrreducibleFraction&lt; T &gt; Pages: 1 -->
<svg width="372pt" height="192pt"
 viewBox="0.00 0.00 372.00 191.50" xmlns="http://www.w3.org/2000/svg" xmlns:xlink="http://www.w3.org/1999/xlink">
<g id="graph0" class="graph" transform="scale(1 1) rotate(0) translate(4 187.5)">
<title>DGtal::concepts::CPositiveIrreducibleFraction&lt; T &gt;</title>
<polygon fill="white" stroke="transparent" points="-4,4 -4,-187.5 368,-187.5 368,4 -4,4"/>
<!-- Node1 -->
<g id="node1" class="node">
<title>Node1</title>
<g id="a_node1"><a xlink:title="Aim: Defines positive irreducible fractions, i.e. fraction p/q, p and q non&#45;negative integers,...">
<polygon fill="#bfbfbf" stroke="black" points="227,-82.5 227,-112.5 364,-112.5 364,-82.5 227,-82.5"/>
<text text-anchor="start" x="235" y="-100.5" font-family="FreeSans" font-size="10.00">DGtal::concepts::CPositive</text>
<text text-anchor="middle" x="295.5" y="-89.5" font-family="FreeSans" font-size="10.00">IrreducibleFraction&lt; T &gt;</text>
</a>
</g>
</g>
<!-- Node2 -->
<g id="node2" class="node">
<title>Node2</title>
<g id="a_node2"><a xlink:href="structboost_1_1CopyConstructible.html" target="_top" xlink:title="Go to http://www.sgi.com/tech/stl/CopyConstructible.html.">
<polygon fill="white" stroke="black" points="19.5,-164 19.5,-183 171.5,-183 171.5,-164 19.5,-164"/>
<text text-anchor="middle" x="95.5" y="-171" font-family="FreeSans" font-size="10.00">boost::CopyConstructible&lt; T &gt;</text>
</a>
</g>
</g>
<!-- Node2&#45;&gt;Node1 -->
<g id="edge1" class="edge">
<title>Node2&#45;&gt;Node1</title>
<path fill="none" stroke="midnightblue" d="M167.97,-161.56C175.84,-159.53 183.65,-157.19 191,-154.5 220.47,-143.71 251.69,-125.46 272.03,-112.52"/>
<polygon fill="midnightblue" stroke="midnightblue" points="166.9,-158.22 158,-163.97 168.55,-165.02 166.9,-158.22"/>
</g>
<!-- Node3 -->
<g id="node3" class="node">
<title>Node3</title>
<g id="a_node3"><a xlink:href="structboost_1_1DefaultConstructible.html" target="_top" xlink:title="Go to http://www.sgi.com/tech/stl/DefaultConstructible.html.">
<polygon fill="white" stroke="black" points="15.5,-126 15.5,-145 175.5,-145 175.5,-126 15.5,-126"/>
<text text-anchor="middle" x="95.5" y="-133" font-family="FreeSans" font-size="10.00">boost::DefaultConstructible&lt; T &gt;</text>
</a>
</g>
</g>
<!-- Node3&#45;&gt;Node1 -->
<g id="edge2" class="edge">
<title>Node3&#45;&gt;Node1</title>
<path fill="none" stroke="midnightblue" d="M156.19,-124.04C178.46,-119.77 203.88,-114.89 226.81,-110.49"/>
<polygon fill="midnightblue" stroke="midnightblue" points="155.37,-120.64 146.21,-125.96 156.69,-127.51 155.37,-120.64"/>
</g>
<!-- Node4 -->
<g id="node4" class="node">
<title>Node4</title>
<g id="a_node4"><a xlink:href="structboost_1_1Assignable.html" target="_top" xlink:title="Go to http://www.sgi.com/tech/stl/Assignable.html.">
<polygon fill="white" stroke="black" points="36,-88 36,-107 155,-107 155,-88 36,-88"/>
<text text-anchor="middle" x="95.5" y="-95" font-family="FreeSans" font-size="10.00">boost::Assignable&lt; T &gt;</text>
</a>
</g>
</g>
<!-- Node4&#45;&gt;Node1 -->
<g id="edge3" class="edge">
<title>Node4&#45;&gt;Node1</title>
<path fill="none" stroke="midnightblue" d="M165.36,-97.5C185.33,-97.5 207.11,-97.5 227,-97.5"/>
<polygon fill="midnightblue" stroke="midnightblue" points="165.1,-94 155.1,-97.5 165.1,-101 165.1,-94"/>
</g>
<!-- Node5 -->
<g id="node5" class="node">
<title>Node5</title>
<g id="a_node5"><a xlink:href="structDGtal_1_1concepts_1_1CBackInsertable.html" target="_top" xlink:title="Aim: Represents types for which a std::back_insert_iterator can be constructed with std::back_inserte...">
<polygon fill="white" stroke="black" points="0,-50 0,-69 191,-69 191,-50 0,-50"/>
<text text-anchor="middle" x="95.5" y="-57" font-family="FreeSans" font-size="10.00">DGtal::concepts::CBackInsertable&lt; T &gt;</text>
</a>
</g>
</g>
<!-- Node5&#45;&gt;Node1 -->
<g id="edge4" class="edge">
<title>Node5&#45;&gt;Node1</title>
<path fill="none" stroke="midnightblue" d="M156.19,-70.96C178.46,-75.23 203.88,-80.11 226.81,-84.51"/>
<polygon fill="midnightblue" stroke="midnightblue" points="156.69,-67.49 146.21,-69.04 155.37,-74.36 156.69,-67.49"/>
</g>
<!-- Node6 -->
<g id="node6" class="node">
<title>Node6</title>
<g id="a_node6"><a xlink:href="structDGtal_1_1concepts_1_1CConstSinglePassRange.html" target="_top" xlink:title="Aim: Defines the concept describing a const single pass range.">
<polygon fill="white" stroke="black" points="18,-0.5 18,-30.5 173,-30.5 173,-0.5 18,-0.5"/>
<text text-anchor="start" x="26" y="-18.5" font-family="FreeSans" font-size="10.00">DGtal::concepts::CConstSingle</text>
<text text-anchor="middle" x="95.5" y="-7.5" font-family="FreeSans" font-size="10.00">PassRange&lt; T &gt;</text>
</a>
</g>
</g>
<!-- Node6&#45;&gt;Node1 -->
<g id="edge5" class="edge">
<title>Node6&#45;&gt;Node1</title>
<path fill="none" stroke="midnightblue" d="M171.52,-33.53C178.18,-35.67 184.76,-38 191,-40.5 219.75,-52.02 250.6,-69.78 271.06,-82.41"/>
<polygon fill="midnightblue" stroke="midnightblue" points="172.33,-30.11 161.74,-30.51 170.27,-36.8 172.33,-30.11"/>
</g>
</g>
</svg>
