<?xml version="1.0" encoding="UTF-8" standalone="no"?>
<!DOCTYPE svg PUBLIC "-//W3C//DTD SVG 1.1//EN"
 "http://www.w3.org/Graphics/SVG/1.1/DTD/svg11.dtd">
<!-- Generated by graphviz version 2.44.1 (20200629.0846)
 -->
<!-- Title: DGtal::GraphVisitorRange&lt; TGraphVisitor &gt;::GenericConstIterator&lt; TAccessor &gt; Pages: 1 -->
<svg width="265pt" height="273pt"
 viewBox="0.00 0.00 264.50 273.00" xmlns="http://www.w3.org/2000/svg" xmlns:xlink="http://www.w3.org/1999/xlink">
<g id="graph0" class="graph" transform="scale(1 1) rotate(0) translate(4 269)">
<title>DGtal::GraphVisitorRange&lt; TGraphVisitor &gt;::GenericConstIterator&lt; TAccessor &gt;</title>
<polygon fill="white" stroke="transparent" points="-4,4 -4,-269 260.5,-269 260.5,4 -4,4"/>
<!-- Node1 -->
<g id="node1" class="node">
<title>Node1</title>
<g id="a_node1"><a xlink:title=" ">
<polygon fill="#bfbfbf" stroke="black" points="0,-0.5 0,-41.5 161,-41.5 161,-0.5 0,-0.5"/>
<text text-anchor="start" x="8" y="-29.5" font-family="FreeSans" font-size="10.00">DGtal::GraphVisitorRange</text>
<text text-anchor="start" x="8" y="-18.5" font-family="FreeSans" font-size="10.00">&lt; TGraphVisitor &gt;::GenericConst</text>
<text text-anchor="middle" x="80.5" y="-7.5" font-family="FreeSans" font-size="10.00">Iterator&lt; TAccessor &gt;</text>
</a>
</g>
</g>
<!-- Node2 -->
<g id="node2" class="node">
<title>Node2</title>
<g id="a_node2"><a xlink:href="classDGtal_1_1CountedPtr.html" target="_top" xlink:title=" ">
<polygon fill="white" stroke="black" points="28.5,-89.5 28.5,-119.5 132.5,-119.5 132.5,-89.5 28.5,-89.5"/>
<text text-anchor="start" x="36.5" y="-107.5" font-family="FreeSans" font-size="10.00">DGtal::CountedPtr&lt;</text>
<text text-anchor="middle" x="80.5" y="-96.5" font-family="FreeSans" font-size="10.00"> GraphVisitor &gt;</text>
</a>
</g>
</g>
<!-- Node2&#45;&gt;Node1 -->
<g id="edge1" class="edge">
<title>Node2&#45;&gt;Node1</title>
<path fill="none" stroke="#9a32cd" stroke-dasharray="5,2" d="M80.5,-79.07C80.5,-67.06 80.5,-52.79 80.5,-41.53"/>
<polygon fill="#9a32cd" stroke="#9a32cd" points="77,-79.3 80.5,-89.3 84,-79.3 77,-79.3"/>
<text text-anchor="middle" x="103" y="-63" font-family="FreeSans" font-size="10.00"> myVisitor</text>
</g>
<!-- Node3 -->
<g id="node3" class="node">
<title>Node3</title>
<g id="a_node3"><a xlink:href="structDGtal_1_1CountedPtr_1_1Counter.html" target="_top" xlink:title=" ">
<polygon fill="white" stroke="black" points="28.5,-234.5 28.5,-264.5 132.5,-264.5 132.5,-234.5 28.5,-234.5"/>
<text text-anchor="start" x="36.5" y="-252.5" font-family="FreeSans" font-size="10.00">DGtal::CountedPtr&lt;</text>
<text text-anchor="middle" x="80.5" y="-241.5" font-family="FreeSans" font-size="10.00"> T &gt;::Counter</text>
</a>
</g>
</g>
<!-- Node3&#45;&gt;Node2 -->
<g id="edge2" class="edge">
<title>Node3&#45;&gt;Node2</title>
<path fill="none" stroke="#9a32cd" stroke-dasharray="5,2" d="M76.59,-224.16C74.44,-207.98 72.41,-186.24 73.5,-167 74.43,-150.69 76.72,-132.07 78.43,-119.63"/>
<polygon fill="#9a32cd" stroke="#9a32cd" points="73.17,-224.98 78.06,-234.38 80.1,-223.99 73.17,-224.98"/>
<text text-anchor="middle" x="99.5" y="-174.5" font-family="FreeSans" font-size="10.00"> myCounter</text>
</g>
<!-- Node4 -->
<g id="node4" class="node">
<title>Node4</title>
<g id="a_node4"><a xlink:href="classDGtal_1_1CountedPtr.html" target="_top" xlink:title="Aim: Smart pointer based on reference counts.">
<polygon fill="white" stroke="black" points="134.5,-167.5 134.5,-186.5 256.5,-186.5 256.5,-167.5 134.5,-167.5"/>
<text text-anchor="middle" x="195.5" y="-174.5" font-family="FreeSans" font-size="10.00">DGtal::CountedPtr&lt; T &gt;</text>
</a>
</g>
</g>
<!-- Node3&#45;&gt;Node4 -->
<g id="edge4" class="edge">
<title>Node3&#45;&gt;Node4</title>
<path fill="none" stroke="#9a32cd" stroke-dasharray="5,2" d="M112.15,-229.1C134.9,-215.15 164.47,-197.02 181.58,-186.53"/>
<polygon fill="#9a32cd" stroke="#9a32cd" points="110.19,-226.19 103.5,-234.4 113.85,-232.16 110.19,-226.19"/>
<text text-anchor="middle" x="173.5" y="-208" font-family="FreeSans" font-size="10.00"> myCounter</text>
</g>
<!-- Node4&#45;&gt;Node2 -->
<g id="edge3" class="edge">
<title>Node4&#45;&gt;Node2</title>
<path fill="none" stroke="orange" stroke-dasharray="5,2" d="M172.61,-161.97C152.55,-149.67 123.54,-131.89 103.46,-119.58"/>
<polygon fill="orange" stroke="orange" points="171.04,-165.11 181.4,-167.36 174.7,-159.14 171.04,-165.11"/>
<text text-anchor="middle" x="185.5" y="-141" font-family="FreeSans" font-size="10.00"> &lt; GraphVisitor &gt;</text>
</g>
</g>
</svg>
