<?xml version="1.0" encoding="UTF-8" standalone="no"?>
<!DOCTYPE svg PUBLIC "-//W3C//DTD SVG 1.1//EN"
 "http://www.w3.org/Graphics/SVG/1.1/DTD/svg11.dtd">
<!-- Generated by graphviz version 2.44.1 (20200629.0846)
 -->
<!-- Title: DGtal::SimpleAssociativeCategory Pages: 1 -->
<svg width="673pt" height="176pt"
 viewBox="0.00 0.00 673.00 176.00" xmlns="http://www.w3.org/2000/svg" xmlns:xlink="http://www.w3.org/1999/xlink">
<g id="graph0" class="graph" transform="scale(1 1) rotate(0) translate(4 172)">
<title>DGtal::SimpleAssociativeCategory</title>
<polygon fill="white" stroke="transparent" points="-4,4 -4,-172 669,-172 669,4 -4,4"/>
<!-- Node1 -->
<g id="node1" class="node">
<title>Node1</title>
<g id="a_node1"><a xlink:title=" ">
<polygon fill="#bfbfbf" stroke="black" points="341,-71.5 341,-101.5 470,-101.5 470,-71.5 341,-71.5"/>
<text text-anchor="start" x="349" y="-89.5" font-family="FreeSans" font-size="10.00">DGtal::SimpleAssociative</text>
<text text-anchor="middle" x="405.5" y="-78.5" font-family="FreeSans" font-size="10.00">Category</text>
</a>
</g>
</g>
<!-- Node4 -->
<g id="node4" class="node">
<title>Node4</title>
<g id="a_node4"><a xlink:href="structDGtal_1_1MultisetAssociativeCategory.html" target="_top" xlink:title=" ">
<polygon fill="white" stroke="black" points="518.5,-137.5 518.5,-167.5 652.5,-167.5 652.5,-137.5 518.5,-137.5"/>
<text text-anchor="start" x="526.5" y="-155.5" font-family="FreeSans" font-size="10.00">DGtal::MultisetAssociative</text>
<text text-anchor="middle" x="585.5" y="-144.5" font-family="FreeSans" font-size="10.00">Category</text>
</a>
</g>
</g>
<!-- Node1&#45;&gt;Node4 -->
<g id="edge3" class="edge">
<title>Node1&#45;&gt;Node4</title>
<path fill="none" stroke="midnightblue" d="M450.46,-105.53C467.66,-112.73 487.63,-120.8 506,-127.5 515.27,-130.88 525.25,-134.25 534.88,-137.38"/>
<polygon fill="midnightblue" stroke="midnightblue" points="451.79,-102.29 441.22,-101.63 449.07,-108.74 451.79,-102.29"/>
</g>
<!-- Node5 -->
<g id="node5" class="node">
<title>Node5</title>
<g id="a_node5"><a xlink:href="structDGtal_1_1SetAssociativeCategory.html" target="_top" xlink:title=" ">
<polygon fill="white" stroke="black" points="508.5,-99 508.5,-118 662.5,-118 662.5,-99 508.5,-99"/>
<text text-anchor="middle" x="585.5" y="-106" font-family="FreeSans" font-size="10.00">DGtal::SetAssociativeCategory</text>
</a>
</g>
</g>
<!-- Node1&#45;&gt;Node5 -->
<g id="edge4" class="edge">
<title>Node1&#45;&gt;Node5</title>
<path fill="none" stroke="midnightblue" d="M480.01,-95.58C489.32,-96.74 498.87,-97.92 508.23,-99.07"/>
<polygon fill="midnightblue" stroke="midnightblue" points="480.36,-92.1 470.01,-94.35 479.5,-99.05 480.36,-92.1"/>
</g>
<!-- Node6 -->
<g id="node6" class="node">
<title>Node6</title>
<g id="a_node6"><a xlink:href="structDGtal_1_1UnorderedMultisetAssociativeCategory.html" target="_top" xlink:title=" ">
<polygon fill="white" stroke="black" points="521.5,-49.5 521.5,-79.5 649.5,-79.5 649.5,-49.5 521.5,-49.5"/>
<text text-anchor="start" x="529.5" y="-67.5" font-family="FreeSans" font-size="10.00">DGtal::UnorderedMultiset</text>
<text text-anchor="middle" x="585.5" y="-56.5" font-family="FreeSans" font-size="10.00">AssociativeCategory</text>
</a>
</g>
</g>
<!-- Node1&#45;&gt;Node6 -->
<g id="edge5" class="edge">
<title>Node1&#45;&gt;Node6</title>
<path fill="none" stroke="midnightblue" d="M480.31,-77.38C493.93,-75.69 508.04,-73.95 521.32,-72.31"/>
<polygon fill="midnightblue" stroke="midnightblue" points="479.5,-73.95 470.01,-78.65 480.36,-80.9 479.5,-73.95"/>
</g>
<!-- Node7 -->
<g id="node7" class="node">
<title>Node7</title>
<g id="a_node7"><a xlink:href="structDGtal_1_1UnorderedSetAssociativeCategory.html" target="_top" xlink:title=" ">
<polygon fill="white" stroke="black" points="506,-0.5 506,-30.5 665,-30.5 665,-0.5 506,-0.5"/>
<text text-anchor="start" x="514" y="-18.5" font-family="FreeSans" font-size="10.00">DGtal::UnorderedSetAssociative</text>
<text text-anchor="middle" x="585.5" y="-7.5" font-family="FreeSans" font-size="10.00">Category</text>
</a>
</g>
</g>
<!-- Node1&#45;&gt;Node7 -->
<g id="edge6" class="edge">
<title>Node1&#45;&gt;Node7</title>
<path fill="none" stroke="midnightblue" d="M444.77,-66.83C463.04,-57.86 485.36,-47.48 506,-39.5 514.11,-36.36 522.81,-33.36 531.36,-30.6"/>
<polygon fill="midnightblue" stroke="midnightblue" points="443.02,-63.8 435.62,-71.38 446.13,-70.06 443.02,-63.8"/>
</g>
<!-- Node2 -->
<g id="node2" class="node">
<title>Node2</title>
<g id="a_node2"><a xlink:href="structDGtal_1_1AssociativeCategory.html" target="_top" xlink:title=" ">
<polygon fill="white" stroke="black" points="166,-77 166,-96 305,-96 305,-77 166,-77"/>
<text text-anchor="middle" x="235.5" y="-84" font-family="FreeSans" font-size="10.00">DGtal::AssociativeCategory</text>
</a>
</g>
</g>
<!-- Node2&#45;&gt;Node1 -->
<g id="edge1" class="edge">
<title>Node2&#45;&gt;Node1</title>
<path fill="none" stroke="midnightblue" d="M315.33,-86.5C323.91,-86.5 332.56,-86.5 340.92,-86.5"/>
<polygon fill="midnightblue" stroke="midnightblue" points="315.32,-83 305.32,-86.5 315.32,-90 315.32,-83"/>
</g>
<!-- Node3 -->
<g id="node3" class="node">
<title>Node3</title>
<g id="a_node3"><a xlink:href="structDGtal_1_1ContainerCategory.html" target="_top" xlink:title=" ">
<polygon fill="white" stroke="black" points="0,-77 0,-96 130,-96 130,-77 0,-77"/>
<text text-anchor="middle" x="65" y="-84" font-family="FreeSans" font-size="10.00">DGtal::ContainerCategory</text>
</a>
</g>
</g>
<!-- Node3&#45;&gt;Node2 -->
<g id="edge2" class="edge">
<title>Node3&#45;&gt;Node2</title>
<path fill="none" stroke="midnightblue" d="M140.38,-86.5C148.81,-86.5 157.37,-86.5 165.73,-86.5"/>
<polygon fill="midnightblue" stroke="midnightblue" points="140.18,-83 130.18,-86.5 140.18,-90 140.18,-83"/>
</g>
</g>
</svg>
