<?xml version="1.0" encoding="UTF-8" standalone="no"?>
<!DOCTYPE svg PUBLIC "-//W3C//DTD SVG 1.1//EN"
 "http://www.w3.org/Graphics/SVG/1.1/DTD/svg11.dtd">
<!-- Generated by graphviz version 2.44.1 (20200629.0846)
 -->
<!-- Title: DGtal::UnorderedSetByBlock&lt; Key, TSplitter, Hash, KeyEqual, UnorderedMapAllocator &gt;::const_iterator Pages: 1 -->
<svg width="1113pt" height="198pt"
 viewBox="0.00 0.00 1113.00 198.00" xmlns="http://www.w3.org/2000/svg" xmlns:xlink="http://www.w3.org/1999/xlink">
<g id="graph0" class="graph" transform="scale(1 1) rotate(0) translate(4 194)">
<title>DGtal::UnorderedSetByBlock&lt; Key, TSplitter, Hash, KeyEqual, UnorderedMapAllocator &gt;::const_iterator</title>
<polygon fill="white" stroke="transparent" points="-4,4 -4,-194 1109,-194 1109,4 -4,4"/>
<!-- Node1 -->
<g id="node1" class="node">
<title>Node1</title>
<g id="a_node1"><a xlink:title="Read iterator on set elements. Model of ForwardIterator.">
<polygon fill="#bfbfbf" stroke="black" points="935,-77.5 935,-129.5 1105,-129.5 1105,-77.5 935,-77.5"/>
<text text-anchor="start" x="943" y="-117.5" font-family="FreeSans" font-size="10.00">DGtal::UnorderedSetByBlock</text>
<text text-anchor="start" x="943" y="-106.5" font-family="FreeSans" font-size="10.00">&lt; Key, TSplitter, Hash,</text>
<text text-anchor="start" x="943" y="-95.5" font-family="FreeSans" font-size="10.00"> KeyEqual, UnorderedMapAllocator</text>
<text text-anchor="middle" x="1020" y="-84.5" font-family="FreeSans" font-size="10.00"> &gt;::const_iterator</text>
</a>
</g>
</g>
<!-- Node2 -->
<g id="node2" class="node">
<title>Node2</title>
<g id="a_node2"><a xlink:title=" ">
<polygon fill="white" stroke="#bfbfbf" points="696,-137.5 696,-189.5 833,-189.5 833,-137.5 696,-137.5"/>
<text text-anchor="start" x="704" y="-177.5" font-family="FreeSans" font-size="10.00">boost::iterator_facade</text>
<text text-anchor="start" x="704" y="-166.5" font-family="FreeSans" font-size="10.00">&lt; const_iterator, Key</text>
<text text-anchor="start" x="704" y="-155.5" font-family="FreeSans" font-size="10.00"> const, boost::forward</text>
<text text-anchor="middle" x="764.5" y="-144.5" font-family="FreeSans" font-size="10.00">_traversal_tag, Key const &gt;</text>
</a>
</g>
</g>
<!-- Node2&#45;&gt;Node1 -->
<g id="edge1" class="edge">
<title>Node2&#45;&gt;Node1</title>
<path fill="none" stroke="midnightblue" d="M843.18,-145.11C872.19,-138.25 905.25,-130.42 934.81,-123.43"/>
<polygon fill="midnightblue" stroke="midnightblue" points="842.03,-141.79 833.1,-147.5 843.64,-148.6 842.03,-141.79"/>
</g>
<!-- Node3 -->
<g id="node3" class="node">
<title>Node3</title>
<g id="a_node3"><a xlink:title="STL iterator class.">
<polygon fill="white" stroke="#bfbfbf" points="705,-88.5 705,-118.5 824,-118.5 824,-88.5 705,-88.5"/>
<text text-anchor="start" x="713" y="-106.5" font-family="FreeSans" font-size="10.00">std::unordered_map</text>
<text text-anchor="middle" x="764.5" y="-95.5" font-family="FreeSans" font-size="10.00">&lt; K, T &gt;::const_iterator</text>
</a>
</g>
</g>
<!-- Node3&#45;&gt;Node1 -->
<g id="edge2" class="edge">
<title>Node3&#45;&gt;Node1</title>
<path fill="none" stroke="#9a32cd" stroke-dasharray="5,2" d="M834.53,-103.5C865.41,-103.5 902.09,-103.5 934.59,-103.5"/>
<polygon fill="#9a32cd" stroke="#9a32cd" points="834.3,-100 824.3,-103.5 834.3,-107 834.3,-100"/>
<text text-anchor="middle" x="894.5" y="-106.5" font-family="FreeSans" font-size="10.00"> it</text>
</g>
<!-- Node4 -->
<g id="node4" class="node">
<title>Node4</title>
<g id="a_node4"><a xlink:href="structDGtal_1_1UnorderedSetByBlock.html" target="_top" xlink:title=" ">
<polygon fill="white" stroke="black" points="675,-28 675,-69 854,-69 854,-28 675,-28"/>
<text text-anchor="start" x="683" y="-57" font-family="FreeSans" font-size="10.00">DGtal::UnorderedSetByBlock</text>
<text text-anchor="start" x="683" y="-46" font-family="FreeSans" font-size="10.00">&lt; Key, TSplitter, Hash,</text>
<text text-anchor="middle" x="764.5" y="-35" font-family="FreeSans" font-size="10.00"> KeyEqual, UnorderedMapAllocator &gt;</text>
</a>
</g>
</g>
<!-- Node4&#45;&gt;Node1 -->
<g id="edge3" class="edge">
<title>Node4&#45;&gt;Node1</title>
<path fill="none" stroke="#9a32cd" stroke-dasharray="5,2" d="M864.06,-69.88C887.38,-74.94 912.03,-80.29 934.65,-85.2"/>
<polygon fill="#9a32cd" stroke="#9a32cd" points="864.68,-66.44 854.16,-67.74 863.19,-73.28 864.68,-66.44"/>
<text text-anchor="middle" x="894.5" y="-83.5" font-family="FreeSans" font-size="10.00"> collection</text>
</g>
<!-- Node5 -->
<g id="node5" class="node">
<title>Node5</title>
<g id="a_node5"><a xlink:title=" ">
<polygon fill="white" stroke="#bfbfbf" points="419,-44.5 419,-118.5 577,-118.5 577,-44.5 419,-44.5"/>
<text text-anchor="start" x="427" y="-106.5" font-family="FreeSans" font-size="10.00">std::unordered_map</text>
<text text-anchor="start" x="427" y="-95.5" font-family="FreeSans" font-size="10.00">&lt; Key, Word, std::hash</text>
<text text-anchor="start" x="427" y="-84.5" font-family="FreeSans" font-size="10.00">&lt; Key &gt;, std::equal_to</text>
<text text-anchor="start" x="427" y="-73.5" font-family="FreeSans" font-size="10.00">&lt; Key &gt;, std::allocator</text>
<text text-anchor="start" x="427" y="-62.5" font-family="FreeSans" font-size="10.00">&lt; std::pair&lt; const Key,</text>
<text text-anchor="middle" x="498" y="-51.5" font-family="FreeSans" font-size="10.00"> typename TSplitter::Word &gt; &gt; &gt;</text>
</a>
</g>
</g>
<!-- Node5&#45;&gt;Node4 -->
<g id="edge4" class="edge">
<title>Node5&#45;&gt;Node4</title>
<path fill="none" stroke="#9a32cd" stroke-dasharray="5,2" d="M587.49,-70.46C615.58,-66.96 646.63,-63.08 674.74,-59.57"/>
<polygon fill="#9a32cd" stroke="#9a32cd" points="586.77,-67.02 577.29,-71.73 587.64,-73.97 586.77,-67.02"/>
<text text-anchor="middle" x="626" y="-71.5" font-family="FreeSans" font-size="10.00"> my_elements</text>
</g>
<!-- Node6 -->
<g id="node6" class="node">
<title>Node6</title>
<g id="a_node6"><a xlink:title="STL class.">
<polygon fill="white" stroke="#bfbfbf" points="123,-66.5 123,-96.5 226,-96.5 226,-66.5 123,-66.5"/>
<text text-anchor="start" x="131" y="-84.5" font-family="FreeSans" font-size="10.00">std::unordered_map</text>
<text text-anchor="middle" x="174.5" y="-73.5" font-family="FreeSans" font-size="10.00">&lt; K, T &gt;</text>
</a>
</g>
</g>
<!-- Node6&#45;&gt;Node5 -->
<g id="edge5" class="edge">
<title>Node6&#45;&gt;Node5</title>
<path fill="none" stroke="orange" stroke-dasharray="5,2" d="M236.12,-81.5C287.86,-81.5 362.6,-81.5 418.84,-81.5"/>
<polygon fill="orange" stroke="orange" points="236.09,-78 226.09,-81.5 236.09,-85 236.09,-78"/>
<text text-anchor="start" x="259" y="-128.5" font-family="FreeSans" font-size="10.00"> &lt; Key, Word, std::hash</text>
<text text-anchor="start" x="259" y="-117.5" font-family="FreeSans" font-size="10.00">&lt; Key &gt;, std::equal_to</text>
<text text-anchor="start" x="259" y="-106.5" font-family="FreeSans" font-size="10.00">&lt; Key &gt;, std::allocator</text>
<text text-anchor="start" x="259" y="-95.5" font-family="FreeSans" font-size="10.00">&lt; std::pair&lt; const Key,</text>
<text text-anchor="middle" x="330" y="-84.5" font-family="FreeSans" font-size="10.00"> typename TSplitter::Word &gt; &gt; &gt;</text>
</g>
<!-- Node7 -->
<g id="node7" class="node">
<title>Node7</title>
<g id="a_node7"><a xlink:title=" ">
<polygon fill="white" stroke="#bfbfbf" points="0,-91 0,-110 29,-110 29,-91 0,-91"/>
<text text-anchor="middle" x="14.5" y="-98" font-family="FreeSans" font-size="10.00">K</text>
</a>
</g>
</g>
<!-- Node7&#45;&gt;Node6 -->
<g id="edge6" class="edge">
<title>Node7&#45;&gt;Node6</title>
<path fill="none" stroke="#9a32cd" stroke-dasharray="5,2" d="M39.33,-97.63C61.32,-94.99 94.7,-90.98 122.66,-87.61"/>
<polygon fill="#9a32cd" stroke="#9a32cd" points="38.76,-94.18 29.25,-98.85 39.59,-101.13 38.76,-94.18"/>
<text text-anchor="middle" x="68.5" y="-98.5" font-family="FreeSans" font-size="10.00"> keys</text>
</g>
<!-- Node8 -->
<g id="node8" class="node">
<title>Node8</title>
<g id="a_node8"><a xlink:title=" ">
<polygon fill="white" stroke="#bfbfbf" points="0,-53 0,-72 29,-72 29,-53 0,-53"/>
<text text-anchor="middle" x="14.5" y="-60" font-family="FreeSans" font-size="10.00">T</text>
</a>
</g>
</g>
<!-- Node8&#45;&gt;Node6 -->
<g id="edge7" class="edge">
<title>Node8&#45;&gt;Node6</title>
<path fill="none" stroke="#9a32cd" stroke-dasharray="5,2" d="M39.33,-65.37C61.32,-68.01 94.7,-72.02 122.66,-75.39"/>
<polygon fill="#9a32cd" stroke="#9a32cd" points="39.59,-61.87 29.25,-64.15 38.76,-68.82 39.59,-61.87"/>
<text text-anchor="middle" x="68.5" y="-73.5" font-family="FreeSans" font-size="10.00"> elements</text>
</g>
<!-- Node9 -->
<g id="node9" class="node">
<title>Node9</title>
<g id="a_node9"><a xlink:href="structDGtal_1_1Splitter.html" target="_top" xlink:title=" ">
<polygon fill="white" stroke="black" points="441,-6 441,-25 555,-25 555,-6 441,-6"/>
<text text-anchor="middle" x="498" y="-13" font-family="FreeSans" font-size="10.00">DGtal::Splitter&lt; Key &gt;</text>
</a>
</g>
</g>
<!-- Node9&#45;&gt;Node4 -->
<g id="edge8" class="edge">
<title>Node9&#45;&gt;Node4</title>
<path fill="none" stroke="#9a32cd" stroke-dasharray="5,2" d="M565.15,-23.75C598.37,-27.9 639.08,-32.98 674.96,-37.45"/>
<polygon fill="#9a32cd" stroke="#9a32cd" points="565.45,-20.26 555.09,-22.5 564.58,-27.21 565.45,-20.26"/>
<text text-anchor="middle" x="626" y="-37.5" font-family="FreeSans" font-size="10.00"> my_splitter</text>
</g>
<!-- Node10 -->
<g id="node10" class="node">
<title>Node10</title>
<g id="a_node10"><a xlink:href="structDGtal_1_1Splitter.html" target="_top" xlink:title=" ">
<polygon fill="white" stroke="black" points="108,-0.5 108,-30.5 241,-30.5 241,-0.5 108,-0.5"/>
<text text-anchor="start" x="116" y="-18.5" font-family="FreeSans" font-size="10.00">DGtal::Splitter&lt; TElement,</text>
<text text-anchor="middle" x="174.5" y="-7.5" font-family="FreeSans" font-size="10.00"> TWord &gt;</text>
</a>
</g>
</g>
<!-- Node10&#45;&gt;Node9 -->
<g id="edge9" class="edge">
<title>Node10&#45;&gt;Node9</title>
<path fill="none" stroke="orange" stroke-dasharray="5,2" d="M251.57,-15.5C309.68,-15.5 388.44,-15.5 440.91,-15.5"/>
<polygon fill="orange" stroke="orange" points="251.34,-12 241.34,-15.5 251.34,-19 251.34,-12"/>
<text text-anchor="middle" x="330" y="-18.5" font-family="FreeSans" font-size="10.00"> &lt; Key &gt;</text>
</g>
</g>
</svg>
