<?xml version="1.0" encoding="UTF-8" standalone="no"?>
<!DOCTYPE svg PUBLIC "-//W3C//DTD SVG 1.1//EN"
 "http://www.w3.org/Graphics/SVG/1.1/DTD/svg11.dtd">
<!-- Generated by graphviz version 2.44.1 (20200629.0846)
 -->
<!-- Title: DGtal::VoronoiCovarianceMeasureOnDigitalSurface&lt; TDigitalSurfaceContainer, TSeparableMetric, TKernelFunction &gt;::Normals Pages: 1 -->
<svg width="194pt" height="172pt"
 viewBox="0.00 0.00 194.00 172.00" xmlns="http://www.w3.org/2000/svg" xmlns:xlink="http://www.w3.org/1999/xlink">
<g id="graph0" class="graph" transform="scale(1 1) rotate(0) translate(4 168)">
<title>DGtal::VoronoiCovarianceMeasureOnDigitalSurface&lt; TDigitalSurfaceContainer, TSeparableMetric, TKernelFunction &gt;::Normals</title>
<polygon fill="white" stroke="transparent" points="-4,4 -4,-168 190,-168 190,4 -4,4"/>
<!-- Node1 -->
<g id="node1" class="node">
<title>Node1</title>
<g id="a_node1"><a xlink:title="Structure to hold the normals for each surfel (the VCM one and the trivial one).">
<polygon fill="#bfbfbf" stroke="black" points="0,-0.5 0,-63.5 173,-63.5 173,-0.5 0,-0.5"/>
<text text-anchor="start" x="8" y="-51.5" font-family="FreeSans" font-size="10.00">DGtal::VoronoiCovariance</text>
<text text-anchor="start" x="8" y="-40.5" font-family="FreeSans" font-size="10.00">MeasureOnDigitalSurface</text>
<text text-anchor="start" x="8" y="-29.5" font-family="FreeSans" font-size="10.00">&lt; TDigitalSurfaceContainer,</text>
<text text-anchor="start" x="8" y="-18.5" font-family="FreeSans" font-size="10.00"> TSeparableMetric, TKernelFunction</text>
<text text-anchor="middle" x="86.5" y="-7.5" font-family="FreeSans" font-size="10.00"> &gt;::Normals</text>
</a>
</g>
</g>
<!-- Node2 -->
<g id="node2" class="node">
<title>Node2</title>
<g id="a_node2"><a xlink:href="classDGtal_1_1PointVector.html" target="_top" xlink:title="Aim: Implements basic operations that will be used in Point and Vector classes.">
<polygon fill="white" stroke="black" points="27,-122.5 27,-163.5 146,-163.5 146,-122.5 27,-122.5"/>
<text text-anchor="start" x="35" y="-151.5" font-family="FreeSans" font-size="10.00">DGtal::PointVector</text>
<text text-anchor="start" x="35" y="-140.5" font-family="FreeSans" font-size="10.00">&lt; dim, TEuclideanRing,</text>
<text text-anchor="middle" x="86.5" y="-129.5" font-family="FreeSans" font-size="10.00"> TContainer &gt;</text>
</a>
</g>
</g>
<!-- Node2&#45;&gt;Node1 -->
<g id="edge1" class="edge">
<title>Node2&#45;&gt;Node1</title>
<path fill="none" stroke="#9a32cd" stroke-dasharray="5,2" d="M86.5,-111.97C86.5,-96.96 86.5,-78.82 86.5,-63.72"/>
<polygon fill="#9a32cd" stroke="#9a32cd" points="83,-112.26 86.5,-122.26 90,-112.26 83,-112.26"/>
<text text-anchor="middle" x="115.5" y="-96" font-family="FreeSans" font-size="10.00"> trivialNormal</text>
<text text-anchor="middle" x="115.5" y="-85" font-family="FreeSans" font-size="10.00">vcmNormal</text>
</g>
<!-- Node2&#45;&gt;Node2 -->
<g id="edge2" class="edge">
<title>Node2&#45;&gt;Node2</title>
<path fill="none" stroke="#9a32cd" stroke-dasharray="5,2" d="M156.13,-149.84C161.02,-148.28 164,-146 164,-143 164,-138.31 156.73,-135.38 146.29,-134.21"/>
<polygon fill="#9a32cd" stroke="#9a32cd" points="155.42,-146.42 146.29,-151.79 156.78,-153.28 155.42,-146.42"/>
<text text-anchor="middle" x="175" y="-140.5" font-family="FreeSans" font-size="10.00"> zero</text>
</g>
</g>
</svg>
