<?xml version="1.0" encoding="UTF-8" standalone="no"?>
<!DOCTYPE svg PUBLIC "-//W3C//DTD SVG 1.1//EN"
 "http://www.w3.org/Graphics/SVG/1.1/DTD/svg11.dtd">
<!-- Generated by graphviz version 2.44.1 (20200629.0846)
 -->
<!-- Title: DGtal::concepts::CVector&lt; T &gt; Pages: 1 -->
<svg width="701pt" height="127pt"
 viewBox="0.00 0.00 701.00 126.50" xmlns="http://www.w3.org/2000/svg" xmlns:xlink="http://www.w3.org/1999/xlink">
<g id="graph0" class="graph" transform="scale(1 1) rotate(0) translate(4 122.5)">
<title>DGtal::concepts::CVector&lt; T &gt;</title>
<polygon fill="white" stroke="transparent" points="-4,4 -4,-122.5 697,-122.5 697,4 -4,4"/>
<!-- Node1 -->
<g id="node1" class="node">
<title>Node1</title>
<g id="a_node1"><a xlink:title="Aim: Represent any static or dynamic sized column vector having sparse or dense representation.">
<polygon fill="#bfbfbf" stroke="black" points="321,-55 321,-74 475,-74 475,-55 321,-55"/>
<text text-anchor="middle" x="398" y="-62" font-family="FreeSans" font-size="10.00">DGtal::concepts::CVector&lt; T &gt;</text>
</a>
</g>
</g>
<!-- Node4 -->
<g id="node4" class="node">
<title>Node4</title>
<g id="a_node4"><a xlink:href="structDGtal_1_1concepts_1_1CDenseVector.html" target="_top" xlink:title="Aim: Represent any dynamic or static sized matrix having dense representation.">
<polygon fill="white" stroke="black" points="511,-99 511,-118 693,-118 693,-99 511,-99"/>
<text text-anchor="middle" x="602" y="-106" font-family="FreeSans" font-size="10.00">DGtal::concepts::CDenseVector&lt; T &gt;</text>
</a>
</g>
</g>
<!-- Node1&#45;&gt;Node4 -->
<g id="edge3" class="edge">
<title>Node1&#45;&gt;Node4</title>
<path fill="none" stroke="midnightblue" d="M451.14,-76.27C469.99,-80.49 491.44,-85.25 511,-89.5 525.36,-92.62 541.02,-95.95 555.19,-98.94"/>
<polygon fill="midnightblue" stroke="midnightblue" points="451.78,-72.83 441.26,-74.05 450.25,-79.66 451.78,-72.83"/>
</g>
<!-- Node5 -->
<g id="node5" class="node">
<title>Node5</title>
<g id="a_node5"><a xlink:href="structDGtal_1_1concepts_1_1CDynamicVector.html" target="_top" xlink:title="Aim: Represent any dynamic sized column vector having sparse or dense representation.">
<polygon fill="white" stroke="black" points="532,-49.5 532,-79.5 672,-79.5 672,-49.5 532,-49.5"/>
<text text-anchor="start" x="540" y="-67.5" font-family="FreeSans" font-size="10.00">DGtal::concepts::CDynamic</text>
<text text-anchor="middle" x="602" y="-56.5" font-family="FreeSans" font-size="10.00">Vector&lt; T &gt;</text>
</a>
</g>
</g>
<!-- Node1&#45;&gt;Node5 -->
<g id="edge4" class="edge">
<title>Node1&#45;&gt;Node5</title>
<path fill="none" stroke="midnightblue" d="M485.25,-64.5C500.85,-64.5 516.94,-64.5 531.97,-64.5"/>
<polygon fill="midnightblue" stroke="midnightblue" points="485.08,-61 475.08,-64.5 485.08,-68 485.08,-61"/>
</g>
<!-- Node6 -->
<g id="node6" class="node">
<title>Node6</title>
<g id="a_node6"><a xlink:href="structDGtal_1_1concepts_1_1CStaticVector.html" target="_top" xlink:title="Aim: Represent any static sized column vector having sparse or dense representation.">
<polygon fill="white" stroke="black" points="538.5,-0.5 538.5,-30.5 665.5,-30.5 665.5,-0.5 538.5,-0.5"/>
<text text-anchor="start" x="546.5" y="-18.5" font-family="FreeSans" font-size="10.00">DGtal::concepts::CStatic</text>
<text text-anchor="middle" x="602" y="-7.5" font-family="FreeSans" font-size="10.00">Vector&lt; T &gt;</text>
</a>
</g>
</g>
<!-- Node1&#45;&gt;Node6 -->
<g id="edge5" class="edge">
<title>Node1&#45;&gt;Node6</title>
<path fill="none" stroke="midnightblue" d="M448.17,-52.57C475.52,-45.94 509.83,-37.61 539.01,-30.54"/>
<polygon fill="midnightblue" stroke="midnightblue" points="447.32,-49.18 438.43,-54.94 448.97,-55.98 447.32,-49.18"/>
</g>
<!-- Node2 -->
<g id="node2" class="node">
<title>Node2</title>
<g id="a_node2"><a xlink:href="structDGtal_1_1concepts_1_1CVectorSpace.html" target="_top" xlink:title="Aim: Base concept for vector space structure.">
<polygon fill="white" stroke="black" points="155,-49.5 155,-79.5 285,-79.5 285,-49.5 155,-49.5"/>
<text text-anchor="start" x="163" y="-67.5" font-family="FreeSans" font-size="10.00">DGtal::concepts::CVector</text>
<text text-anchor="middle" x="220" y="-56.5" font-family="FreeSans" font-size="10.00">Space&lt; T &gt;</text>
</a>
</g>
</g>
<!-- Node2&#45;&gt;Node1 -->
<g id="edge1" class="edge">
<title>Node2&#45;&gt;Node1</title>
<path fill="none" stroke="midnightblue" d="M295.22,-64.5C303.66,-64.5 312.28,-64.5 320.74,-64.5"/>
<polygon fill="midnightblue" stroke="midnightblue" points="295.04,-61 285.04,-64.5 295.04,-68 295.04,-61"/>
</g>
<!-- Node3 -->
<g id="node3" class="node">
<title>Node3</title>
<g id="a_node3"><a xlink:href="structboost_1_1Assignable.html" target="_top" xlink:title="Go to http://www.sgi.com/tech/stl/Assignable.html.">
<polygon fill="white" stroke="black" points="0,-55 0,-74 119,-74 119,-55 0,-55"/>
<text text-anchor="middle" x="59.5" y="-62" font-family="FreeSans" font-size="10.00">boost::Assignable&lt; T &gt;</text>
</a>
</g>
</g>
<!-- Node3&#45;&gt;Node2 -->
<g id="edge2" class="edge">
<title>Node3&#45;&gt;Node2</title>
<path fill="none" stroke="midnightblue" d="M129.3,-64.5C137.77,-64.5 146.41,-64.5 154.81,-64.5"/>
<polygon fill="midnightblue" stroke="midnightblue" points="129.07,-61 119.07,-64.5 129.07,-68 129.07,-61"/>
</g>
</g>
</svg>
