<?xml version="1.0" encoding="UTF-8" standalone="no"?>
<!DOCTYPE svg PUBLIC "-//W3C//DTD SVG 1.1//EN"
 "http://www.w3.org/Graphics/SVG/1.1/DTD/svg11.dtd">
<!-- Generated by graphviz version 2.44.1 (20200629.0846)
 -->
<!-- Title: LibBoard::Circle Pages: 1 -->
<svg width="306pt" height="399pt"
 viewBox="0.00 0.00 306.00 399.00" xmlns="http://www.w3.org/2000/svg" xmlns:xlink="http://www.w3.org/1999/xlink">
<g id="graph0" class="graph" transform="scale(1 1) rotate(0) translate(4 395)">
<title>LibBoard::Circle</title>
<polygon fill="white" stroke="transparent" points="-4,4 -4,-395 302,-395 302,4 -4,4"/>
<!-- Node1 -->
<g id="node1" class="node">
<title>Node1</title>
<g id="a_node1"><a xlink:title="A circle.">
<polygon fill="#bfbfbf" stroke="black" points="0,-0.5 0,-19.5 86,-19.5 86,-0.5 0,-0.5"/>
<text text-anchor="middle" x="43" y="-7.5" font-family="FreeSans" font-size="10.00">LibBoard::Circle</text>
</a>
</g>
</g>
<!-- Node2 -->
<g id="node2" class="node">
<title>Node2</title>
<g id="a_node2"><a xlink:href="structLibBoard_1_1Ellipse.html" target="_top" xlink:title="An ellipse.">
<polygon fill="white" stroke="black" points="85,-57.5 85,-76.5 175,-76.5 175,-57.5 85,-57.5"/>
<text text-anchor="middle" x="130" y="-64.5" font-family="FreeSans" font-size="10.00">LibBoard::Ellipse</text>
</a>
</g>
</g>
<!-- Node2&#45;&gt;Node1 -->
<g id="edge1" class="edge">
<title>Node2&#45;&gt;Node1</title>
<path fill="none" stroke="midnightblue" d="M107.58,-51.82C91.41,-41.61 70.13,-28.15 56.5,-19.53"/>
<polygon fill="midnightblue" stroke="midnightblue" points="106.08,-55.02 116.41,-57.41 109.82,-49.1 106.08,-55.02"/>
</g>
<!-- Node3 -->
<g id="node3" class="node">
<title>Node3</title>
<g id="a_node3"><a xlink:href="structLibBoard_1_1Shape.html" target="_top" xlink:title="Abstract structure for a 2D shape.">
<polygon fill="white" stroke="black" points="130.5,-124.5 130.5,-143.5 219.5,-143.5 219.5,-124.5 130.5,-124.5"/>
<text text-anchor="middle" x="175" y="-131.5" font-family="FreeSans" font-size="10.00">LibBoard::Shape</text>
</a>
</g>
</g>
<!-- Node3&#45;&gt;Node2 -->
<g id="edge2" class="edge">
<title>Node3&#45;&gt;Node2</title>
<path fill="none" stroke="midnightblue" d="M163.16,-115.9C154.42,-103.27 142.88,-86.6 135.97,-76.63"/>
<polygon fill="midnightblue" stroke="midnightblue" points="160.36,-118 168.93,-124.23 166.12,-114.02 160.36,-118"/>
</g>
<!-- Node4 -->
<g id="node4" class="node">
<title>Node4</title>
<g id="a_node4"><a xlink:title="STL class.">
<polygon fill="white" stroke="#bfbfbf" points="49,-253 49,-272 109,-272 109,-253 49,-253"/>
<text text-anchor="middle" x="79" y="-260" font-family="FreeSans" font-size="10.00">std::string</text>
</a>
</g>
</g>
<!-- Node4&#45;&gt;Node1 -->
<g id="edge9" class="edge">
<title>Node4&#45;&gt;Node1</title>
<path fill="none" stroke="#9a32cd" stroke-dasharray="5,2" d="M76.31,-242.77C69.06,-192.36 49.36,-55.27 44.23,-19.59"/>
<polygon fill="#9a32cd" stroke="#9a32cd" points="72.87,-243.48 77.76,-252.88 79.8,-242.48 72.87,-243.48"/>
<text text-anchor="middle" x="73.5" y="-98" font-family="FreeSans" font-size="10.00"> _name</text>
</g>
<!-- Node4&#45;&gt;Node2 -->
<g id="edge8" class="edge">
<title>Node4&#45;&gt;Node2</title>
<path fill="none" stroke="#9a32cd" stroke-dasharray="5,2" d="M76.93,-242.73C74.67,-215.6 73.11,-164.24 88,-124 95.09,-104.85 110.96,-86.72 121.04,-76.51"/>
<polygon fill="#9a32cd" stroke="#9a32cd" points="73.46,-243.16 77.9,-252.78 80.43,-242.49 73.46,-243.16"/>
<text text-anchor="middle" x="104.5" y="-131.5" font-family="FreeSans" font-size="10.00"> _name</text>
</g>
<!-- Node4&#45;&gt;Node3 -->
<g id="edge3" class="edge">
<title>Node4&#45;&gt;Node3</title>
<path fill="none" stroke="#9a32cd" stroke-dasharray="5,2" d="M86.98,-243.36C96.87,-222.23 115.23,-187.04 138,-162 144.53,-154.82 153.23,-148.35 160.56,-143.55"/>
<polygon fill="#9a32cd" stroke="#9a32cd" points="83.67,-242.19 82.72,-252.75 90.04,-245.09 83.67,-242.19"/>
<text text-anchor="middle" x="154.5" y="-170.5" font-family="FreeSans" font-size="10.00"> _name</text>
</g>
<!-- Node5 -->
<g id="node5" class="node">
<title>Node5</title>
<g id="a_node5"><a xlink:title="STL class.">
<polygon fill="white" stroke="#bfbfbf" points="31.5,-360.5 31.5,-390.5 126.5,-390.5 126.5,-360.5 31.5,-360.5"/>
<text text-anchor="start" x="39.5" y="-378.5" font-family="FreeSans" font-size="10.00">std::basic_string&lt;</text>
<text text-anchor="middle" x="79" y="-367.5" font-family="FreeSans" font-size="10.00"> char &gt;</text>
</a>
</g>
</g>
<!-- Node5&#45;&gt;Node4 -->
<g id="edge4" class="edge">
<title>Node5&#45;&gt;Node4</title>
<path fill="none" stroke="midnightblue" d="M79,-350.39C79,-325.69 79,-288.61 79,-272.04"/>
<polygon fill="midnightblue" stroke="midnightblue" points="75.5,-350.44 79,-360.44 82.5,-350.44 75.5,-350.44"/>
</g>
<!-- Node6 -->
<g id="node6" class="node">
<title>Node6</title>
<g id="a_node6"><a xlink:href="classDGtal_1_1Color.html" target="_top" xlink:title="Structure representing an RGB triple with alpha component.">
<polygon fill="white" stroke="black" points="139.5,-253 139.5,-272 210.5,-272 210.5,-253 139.5,-253"/>
<text text-anchor="middle" x="175" y="-260" font-family="FreeSans" font-size="10.00">DGtal::Color</text>
</a>
</g>
</g>
<!-- Node6&#45;&gt;Node3 -->
<g id="edge5" class="edge">
<title>Node6&#45;&gt;Node3</title>
<path fill="none" stroke="#9a32cd" stroke-dasharray="5,2" d="M175,-242.44C175,-214.62 175,-164.04 175,-143.76"/>
<polygon fill="#9a32cd" stroke="#9a32cd" points="171.5,-242.81 175,-252.81 178.5,-242.81 171.5,-242.81"/>
<text text-anchor="middle" x="197.5" y="-176" font-family="FreeSans" font-size="10.00"> _fillColor</text>
<text text-anchor="middle" x="197.5" y="-165" font-family="FreeSans" font-size="10.00">_penColor</text>
</g>
<!-- Node6&#45;&gt;Node6 -->
<g id="edge6" class="edge">
<title>Node6&#45;&gt;Node6</title>
<path fill="none" stroke="#9a32cd" stroke-dasharray="5,2" d="M197.51,-275.69C213.12,-279.7 228.5,-275.31 228.5,-262.5 228.5,-247.04 206.07,-243.84 187.89,-252.9"/>
<polygon fill="#9a32cd" stroke="#9a32cd" points="198.49,-272.32 187.89,-272.1 196.04,-278.88 198.49,-272.32"/>
<text text-anchor="middle" x="247.5" y="-315" font-family="FreeSans" font-size="10.00"> Aqua</text>
<text text-anchor="middle" x="247.5" y="-304" font-family="FreeSans" font-size="10.00">Black</text>
<text text-anchor="middle" x="247.5" y="-293" font-family="FreeSans" font-size="10.00">Blue</text>
<text text-anchor="middle" x="247.5" y="-282" font-family="FreeSans" font-size="10.00">Cyan</text>
<text text-anchor="middle" x="247.5" y="-271" font-family="FreeSans" font-size="10.00">Gray</text>
<text text-anchor="middle" x="247.5" y="-260" font-family="FreeSans" font-size="10.00">Green</text>
<text text-anchor="middle" x="247.5" y="-249" font-family="FreeSans" font-size="10.00">Lime</text>
<text text-anchor="middle" x="247.5" y="-238" font-family="FreeSans" font-size="10.00">Magenta</text>
<text text-anchor="middle" x="247.5" y="-227" font-family="FreeSans" font-size="10.00">Navy</text>
<text text-anchor="middle" x="247.5" y="-216" font-family="FreeSans" font-size="10.00">None</text>
<text text-anchor="middle" x="247.5" y="-205" font-family="FreeSans" font-size="10.00">...</text>
</g>
<!-- Node7 -->
<g id="node7" class="node">
<title>Node7</title>
<g id="a_node7"><a xlink:title=" ">
<polygon fill="white" stroke="#bfbfbf" points="238,-124.5 238,-143.5 298,-143.5 298,-124.5 238,-124.5"/>
<text text-anchor="middle" x="268" y="-131.5" font-family="FreeSans" font-size="10.00">MyPointD</text>
</a>
</g>
</g>
<!-- Node7&#45;&gt;Node2 -->
<g id="edge7" class="edge">
<title>Node7&#45;&gt;Node2</title>
<path fill="none" stroke="#9a32cd" stroke-dasharray="5,2" d="M240.28,-119.94C212.95,-107.07 171.95,-87.76 148.4,-76.67"/>
<polygon fill="#9a32cd" stroke="#9a32cd" points="239.14,-123.27 249.67,-124.37 242.12,-116.94 239.14,-123.27"/>
<text text-anchor="middle" x="226" y="-98" font-family="FreeSans" font-size="10.00"> _center</text>
</g>
</g>
</svg>
