<?xml version="1.0" encoding="UTF-8" standalone="no"?>
<!DOCTYPE svg PUBLIC "-//W3C//DTD SVG 1.1//EN"
 "http://www.w3.org/Graphics/SVG/1.1/DTD/svg11.dtd">
<!-- Generated by graphviz version 2.44.1 (20200629.0846)
 -->
<!-- Title: LibBoard::Group Pages: 1 -->
<svg width="492pt" height="487pt"
 viewBox="0.00 0.00 491.50 487.00" xmlns="http://www.w3.org/2000/svg" xmlns:xlink="http://www.w3.org/1999/xlink">
<g id="graph0" class="graph" transform="scale(1 1) rotate(0) translate(4 483)">
<title>LibBoard::Group</title>
<polygon fill="white" stroke="transparent" points="-4,4 -4,-483 487.5,-483 487.5,4 -4,4"/>
<!-- Node1 -->
<g id="node1" class="node">
<title>Node1</title>
<g id="a_node1"><a xlink:title="A group of shapes. A group is basically a ShapeList except that when rendered in either an SVG of a F...">
<polygon fill="#bfbfbf" stroke="black" points="65.5,-0.5 65.5,-19.5 152.5,-19.5 152.5,-0.5 65.5,-0.5"/>
<text text-anchor="middle" x="109" y="-7.5" font-family="FreeSans" font-size="10.00">LibBoard::Group</text>
</a>
</g>
</g>
<!-- Node2 -->
<g id="node2" class="node">
<title>Node2</title>
<g id="a_node2"><a xlink:href="structLibBoard_1_1ShapeList.html" target="_top" xlink:title="A group of shapes.">
<polygon fill="white" stroke="black" points="57,-67.5 57,-86.5 161,-86.5 161,-67.5 57,-67.5"/>
<text text-anchor="middle" x="109" y="-74.5" font-family="FreeSans" font-size="10.00">LibBoard::ShapeList</text>
</a>
</g>
</g>
<!-- Node2&#45;&gt;Node1 -->
<g id="edge1" class="edge">
<title>Node2&#45;&gt;Node1</title>
<path fill="none" stroke="midnightblue" d="M109,-57.04C109,-44.67 109,-29.12 109,-19.63"/>
<polygon fill="midnightblue" stroke="midnightblue" points="105.5,-57.23 109,-67.23 112.5,-57.23 105.5,-57.23"/>
</g>
<!-- Node3 -->
<g id="node3" class="node">
<title>Node3</title>
<g id="a_node3"><a xlink:href="structLibBoard_1_1Shape.html" target="_top" xlink:title="Abstract structure for a 2D shape.">
<polygon fill="white" stroke="black" points="93.5,-212.5 93.5,-231.5 182.5,-231.5 182.5,-212.5 93.5,-212.5"/>
<text text-anchor="middle" x="138" y="-219.5" font-family="FreeSans" font-size="10.00">LibBoard::Shape</text>
</a>
</g>
</g>
<!-- Node3&#45;&gt;Node2 -->
<g id="edge2" class="edge">
<title>Node3&#45;&gt;Node2</title>
<path fill="none" stroke="midnightblue" d="M134.25,-202.51C127.92,-171.31 115.37,-109.41 110.75,-86.65"/>
<polygon fill="midnightblue" stroke="midnightblue" points="130.85,-203.38 136.27,-212.48 137.72,-201.99 130.85,-203.38"/>
</g>
<!-- Node7 -->
<g id="node7" class="node">
<title>Node7</title>
<g id="a_node7"><a xlink:title=" ">
<polygon fill="white" stroke="#bfbfbf" points="137,-134.5 137,-164.5 247,-164.5 247,-134.5 137,-134.5"/>
<text text-anchor="start" x="145" y="-152.5" font-family="FreeSans" font-size="10.00">std::vector&lt; LibBoard</text>
<text text-anchor="middle" x="192" y="-141.5" font-family="FreeSans" font-size="10.00">::Shape * &gt;</text>
</a>
</g>
</g>
<!-- Node3&#45;&gt;Node7 -->
<g id="edge8" class="edge">
<title>Node3&#45;&gt;Node7</title>
<path fill="none" stroke="#9a32cd" stroke-dasharray="5,2" d="M137.36,-202.39C137.91,-195.85 139.43,-188.71 143,-183 147.65,-175.55 154.7,-169.44 162.02,-164.61"/>
<polygon fill="#9a32cd" stroke="#9a32cd" points="133.86,-202.42 137.19,-212.48 140.86,-202.54 133.86,-202.42"/>
<text text-anchor="middle" x="164.5" y="-186" font-family="FreeSans" font-size="10.00"> elements</text>
</g>
<!-- Node4 -->
<g id="node4" class="node">
<title>Node4</title>
<g id="a_node4"><a xlink:title="STL class.">
<polygon fill="white" stroke="#bfbfbf" points="31,-341 31,-360 91,-360 91,-341 31,-341"/>
<text text-anchor="middle" x="61" y="-348" font-family="FreeSans" font-size="10.00">std::string</text>
</a>
</g>
</g>
<!-- Node4&#45;&gt;Node1 -->
<g id="edge12" class="edge">
<title>Node4&#45;&gt;Node1</title>
<path fill="none" stroke="#9a32cd" stroke-dasharray="5,2" d="M47.02,-332.95C29.02,-309.89 0,-266.05 0,-223 0,-223 0,-223 0,-76 0,-44.05 34.97,-27.44 65.29,-19.04"/>
<polygon fill="#9a32cd" stroke="#9a32cd" points="44.51,-335.41 53.52,-340.99 49.96,-331.01 44.51,-335.41"/>
<text text-anchor="middle" x="16.5" y="-147" font-family="FreeSans" font-size="10.00"> _name</text>
</g>
<!-- Node4&#45;&gt;Node2 -->
<g id="edge11" class="edge">
<title>Node4&#45;&gt;Node2</title>
<path fill="none" stroke="#9a32cd" stroke-dasharray="5,2" d="M64.04,-330.67C68.33,-304.16 76.51,-254.35 84,-212 92.37,-164.69 103.19,-108.15 107.31,-86.77"/>
<polygon fill="#9a32cd" stroke="#9a32cd" points="60.54,-330.37 62.4,-340.8 67.45,-331.49 60.54,-330.37"/>
<text text-anchor="middle" x="106.5" y="-186" font-family="FreeSans" font-size="10.00"> _name</text>
</g>
<!-- Node4&#45;&gt;Node3 -->
<g id="edge3" class="edge">
<title>Node4&#45;&gt;Node3</title>
<path fill="none" stroke="#9a32cd" stroke-dasharray="5,2" d="M65.96,-331.12C72.3,-310 84.8,-275.06 104,-250 109.5,-242.82 117.32,-236.44 124.07,-231.68"/>
<polygon fill="#9a32cd" stroke="#9a32cd" points="62.58,-330.19 63.21,-340.77 69.32,-332.11 62.58,-330.19"/>
<text text-anchor="middle" x="120.5" y="-258.5" font-family="FreeSans" font-size="10.00"> _name</text>
</g>
<!-- Node5 -->
<g id="node5" class="node">
<title>Node5</title>
<g id="a_node5"><a xlink:title="STL class.">
<polygon fill="white" stroke="#bfbfbf" points="13.5,-448.5 13.5,-478.5 108.5,-478.5 108.5,-448.5 13.5,-448.5"/>
<text text-anchor="start" x="21.5" y="-466.5" font-family="FreeSans" font-size="10.00">std::basic_string&lt;</text>
<text text-anchor="middle" x="61" y="-455.5" font-family="FreeSans" font-size="10.00"> char &gt;</text>
</a>
</g>
</g>
<!-- Node5&#45;&gt;Node4 -->
<g id="edge4" class="edge">
<title>Node5&#45;&gt;Node4</title>
<path fill="none" stroke="midnightblue" d="M61,-438.39C61,-413.69 61,-376.61 61,-360.04"/>
<polygon fill="midnightblue" stroke="midnightblue" points="57.5,-438.44 61,-448.44 64.5,-438.44 57.5,-438.44"/>
</g>
<!-- Node6 -->
<g id="node6" class="node">
<title>Node6</title>
<g id="a_node6"><a xlink:href="classDGtal_1_1Color.html" target="_top" xlink:title="Structure representing an RGB triple with alpha component.">
<polygon fill="white" stroke="black" points="114.5,-341 114.5,-360 185.5,-360 185.5,-341 114.5,-341"/>
<text text-anchor="middle" x="150" y="-348" font-family="FreeSans" font-size="10.00">DGtal::Color</text>
</a>
</g>
</g>
<!-- Node6&#45;&gt;Node3 -->
<g id="edge5" class="edge">
<title>Node6&#45;&gt;Node3</title>
<path fill="none" stroke="#9a32cd" stroke-dasharray="5,2" d="M148.23,-330.81C145.6,-303.08 140.76,-252.13 138.83,-231.76"/>
<polygon fill="#9a32cd" stroke="#9a32cd" points="144.75,-331.18 149.18,-340.81 151.72,-330.52 144.75,-331.18"/>
<text text-anchor="middle" x="165.5" y="-264" font-family="FreeSans" font-size="10.00"> _fillColor</text>
<text text-anchor="middle" x="165.5" y="-253" font-family="FreeSans" font-size="10.00">_penColor</text>
</g>
<!-- Node6&#45;&gt;Node6 -->
<g id="edge6" class="edge">
<title>Node6&#45;&gt;Node6</title>
<path fill="none" stroke="#9a32cd" stroke-dasharray="5,2" d="M172.51,-363.69C188.12,-367.7 203.5,-363.31 203.5,-350.5 203.5,-335.04 181.07,-331.84 162.89,-340.9"/>
<polygon fill="#9a32cd" stroke="#9a32cd" points="173.49,-360.32 162.89,-360.1 171.04,-366.88 173.49,-360.32"/>
<text text-anchor="middle" x="222.5" y="-403" font-family="FreeSans" font-size="10.00"> Aqua</text>
<text text-anchor="middle" x="222.5" y="-392" font-family="FreeSans" font-size="10.00">Black</text>
<text text-anchor="middle" x="222.5" y="-381" font-family="FreeSans" font-size="10.00">Blue</text>
<text text-anchor="middle" x="222.5" y="-370" font-family="FreeSans" font-size="10.00">Cyan</text>
<text text-anchor="middle" x="222.5" y="-359" font-family="FreeSans" font-size="10.00">Gray</text>
<text text-anchor="middle" x="222.5" y="-348" font-family="FreeSans" font-size="10.00">Green</text>
<text text-anchor="middle" x="222.5" y="-337" font-family="FreeSans" font-size="10.00">Lime</text>
<text text-anchor="middle" x="222.5" y="-326" font-family="FreeSans" font-size="10.00">Magenta</text>
<text text-anchor="middle" x="222.5" y="-315" font-family="FreeSans" font-size="10.00">Navy</text>
<text text-anchor="middle" x="222.5" y="-304" font-family="FreeSans" font-size="10.00">None</text>
<text text-anchor="middle" x="222.5" y="-293" font-family="FreeSans" font-size="10.00">...</text>
</g>
<!-- Node7&#45;&gt;Node2 -->
<g id="edge7" class="edge">
<title>Node7&#45;&gt;Node2</title>
<path fill="none" stroke="#9a32cd" stroke-dasharray="5,2" d="M167.29,-127.51C151.34,-113.96 131.41,-97.03 119.47,-86.89"/>
<polygon fill="#9a32cd" stroke="#9a32cd" points="165.32,-130.43 175.2,-134.23 169.85,-125.09 165.32,-130.43"/>
<text text-anchor="middle" x="173" y="-108" font-family="FreeSans" font-size="10.00"> _shapes</text>
</g>
<!-- Node8 -->
<g id="node8" class="node">
<title>Node8</title>
<g id="a_node8"><a xlink:title="STL class.">
<polygon fill="white" stroke="#bfbfbf" points="258.5,-212.5 258.5,-231.5 345.5,-231.5 345.5,-212.5 258.5,-212.5"/>
<text text-anchor="middle" x="302" y="-219.5" font-family="FreeSans" font-size="10.00">std::vector&lt; T &gt;</text>
</a>
</g>
</g>
<!-- Node8&#45;&gt;Node7 -->
<g id="edge9" class="edge">
<title>Node8&#45;&gt;Node7</title>
<path fill="none" stroke="orange" stroke-dasharray="5,2" d="M248.4,-214.24C234.24,-210.25 219.89,-203.95 209,-194 200.74,-186.45 196.45,-174.4 194.24,-164.9"/>
<polygon fill="orange" stroke="orange" points="247.58,-217.64 258.13,-216.64 249.26,-210.85 247.58,-217.64"/>
<text text-anchor="middle" x="259" y="-186" font-family="FreeSans" font-size="10.00"> &lt; LibBoard::Shape * &gt;</text>
</g>
<!-- Node11 -->
<g id="node11" class="node">
<title>Node11</title>
<g id="a_node11"><a xlink:title=" ">
<polygon fill="white" stroke="#bfbfbf" points="276,-134.5 276,-164.5 386,-164.5 386,-134.5 276,-134.5"/>
<text text-anchor="start" x="284" y="-152.5" font-family="FreeSans" font-size="10.00">std::vector&lt; LibBoard</text>
<text text-anchor="middle" x="331" y="-141.5" font-family="FreeSans" font-size="10.00">::Point &gt;</text>
</a>
</g>
</g>
<!-- Node8&#45;&gt;Node11 -->
<g id="edge16" class="edge">
<title>Node8&#45;&gt;Node11</title>
<path fill="none" stroke="orange" stroke-dasharray="5,2" d="M309.42,-202.96C314.33,-191.03 320.67,-175.61 325.21,-164.58"/>
<polygon fill="orange" stroke="orange" points="306.12,-201.78 305.56,-212.36 312.6,-204.44 306.12,-201.78"/>
<text text-anchor="middle" x="361" y="-186" font-family="FreeSans" font-size="10.00"> &lt; LibBoard::Point &gt;</text>
</g>
<!-- Node9 -->
<g id="node9" class="node">
<title>Node9</title>
<g id="a_node9"><a xlink:title=" ">
<polygon fill="white" stroke="#bfbfbf" points="287.5,-341 287.5,-360 316.5,-360 316.5,-341 287.5,-341"/>
<text text-anchor="middle" x="302" y="-348" font-family="FreeSans" font-size="10.00">T</text>
</a>
</g>
</g>
<!-- Node9&#45;&gt;Node8 -->
<g id="edge10" class="edge">
<title>Node9&#45;&gt;Node8</title>
<path fill="none" stroke="#9a32cd" stroke-dasharray="5,2" d="M302,-330.44C302,-302.62 302,-252.04 302,-231.76"/>
<polygon fill="#9a32cd" stroke="#9a32cd" points="298.5,-330.81 302,-340.81 305.5,-330.81 298.5,-330.81"/>
<text text-anchor="middle" x="323.5" y="-258.5" font-family="FreeSans" font-size="10.00"> elements</text>
</g>
<!-- Node10 -->
<g id="node10" class="node">
<title>Node10</title>
<g id="a_node10"><a xlink:href="structLibBoard_1_1Path.html" target="_top" xlink:title="A path, according to Postscript and SVG definition.">
<polygon fill="white" stroke="black" points="196.5,-67.5 196.5,-86.5 277.5,-86.5 277.5,-67.5 196.5,-67.5"/>
<text text-anchor="middle" x="237" y="-74.5" font-family="FreeSans" font-size="10.00">LibBoard::Path</text>
</a>
</g>
</g>
<!-- Node10&#45;&gt;Node1 -->
<g id="edge13" class="edge">
<title>Node10&#45;&gt;Node1</title>
<path fill="none" stroke="#9a32cd" stroke-dasharray="5,2" d="M210.95,-62.77C185.6,-49.9 147.81,-30.71 126.07,-19.67"/>
<polygon fill="#9a32cd" stroke="#9a32cd" points="209.5,-65.96 220,-67.37 212.67,-59.72 209.5,-65.96"/>
<text text-anchor="middle" x="211" y="-41" font-family="FreeSans" font-size="10.00"> _clippingPath</text>
</g>
<!-- Node11&#45;&gt;Node10 -->
<g id="edge14" class="edge">
<title>Node11&#45;&gt;Node10</title>
<path fill="none" stroke="#9a32cd" stroke-dasharray="5,2" d="M303.96,-128.22C285.62,-114.47 262.31,-96.98 248.59,-86.69"/>
<polygon fill="#9a32cd" stroke="#9a32cd" points="301.88,-131.03 311.98,-134.23 306.08,-125.43 301.88,-131.03"/>
<text text-anchor="middle" x="303.5" y="-108" font-family="FreeSans" font-size="10.00"> _points</text>
</g>
<!-- Node12 -->
<g id="node12" class="node">
<title>Node12</title>
<g id="a_node12"><a xlink:href="structLibBoard_1_1Point.html" target="_top" xlink:title="Struct representing a 2D point.">
<polygon fill="white" stroke="black" points="400.5,-212.5 400.5,-231.5 483.5,-231.5 483.5,-212.5 400.5,-212.5"/>
<text text-anchor="middle" x="442" y="-219.5" font-family="FreeSans" font-size="10.00">LibBoard::Point</text>
</a>
</g>
</g>
<!-- Node12&#45;&gt;Node11 -->
<g id="edge15" class="edge">
<title>Node12&#45;&gt;Node11</title>
<path fill="none" stroke="#9a32cd" stroke-dasharray="5,2" d="M430.03,-203.99C424.31,-196.79 416.97,-188.75 409,-183 398.65,-175.53 386.33,-169.38 374.57,-164.52"/>
<polygon fill="#9a32cd" stroke="#9a32cd" points="427.55,-206.52 436.34,-212.43 433.16,-202.32 427.55,-206.52"/>
<text text-anchor="middle" x="442.5" y="-186" font-family="FreeSans" font-size="10.00"> elements</text>
</g>
</g>
</svg>
