<?xml version="1.0" encoding="UTF-8" standalone="no"?>
<!DOCTYPE svg PUBLIC "-//W3C//DTD SVG 1.1//EN"
 "http://www.w3.org/Graphics/SVG/1.1/DTD/svg11.dtd">
<!-- Generated by graphviz version 2.44.1 (20200629.0846)
 -->
<!-- Title: DGtal::LabelledMap&lt; TData, L, TWord, N, M &gt;::BlockPointer Pages: 1 -->
<!--zoomable 104 -->
<svg id="main" version="1.1" xmlns="http://www.w3.org/2000/svg" xmlns:xlink="http://www.w3.org/1999/xlink" xml:space="preserve" onload="init(evt)">
<style type="text/css"><![CDATA[
.edge:hover path { stroke: red; }
.edge:hover polygon { stroke: red; fill: red; }
]]></style>
<script type="text/javascript"><![CDATA[
var edges = document.getElementsByTagName('g');
if (edges && edges.length) {
  for (var i=0;i<edges.length;i++) {
    if (edges[i].id.substr(0,4)=='edge') {
      edges[i].setAttribute('class','edge');
    }
  }
}
]]></script>
        <defs>
                <circle id="rim" cx="0" cy="0" r="7"/>
                <circle id="rim2" cx="0" cy="0" r="3.5"/>
                <g id="zoomPlus">
                        <use xlink:href="#rim" fill="#404040">
                                <set attributeName="fill" to="#808080" begin="zoomplus.mouseover" end="zoomplus.mouseout"/>
                        </use>
                        <path d="M-4,0h8M0,-4v8" fill="none" stroke="white" stroke-width="1.5" pointer-events="none"/>
                </g>
                <g id="zoomMin">
                        <use xlink:href="#rim" fill="#404040">
                                <set attributeName="fill" to="#808080" begin="zoomminus.mouseover" end="zoomminus.mouseout"/>
                        </use>
                        <path d="M-4,0h8" fill="none" stroke="white" stroke-width="1.5" pointer-events="none"/>
                </g>
                <g id="dirArrow">
                        <path fill="none" stroke="white" stroke-width="1.5" d="M0,-3.0v7 M-2.5,-0.5L0,-3.0L2.5,-0.5"/>
                </g>
               <g id="resetDef">
                       <use xlink:href="#rim2" fill="#404040">
                               <set attributeName="fill" to="#808080" begin="reset.mouseover" end="reset.mouseout"/>
                       </use>
               </g>
        </defs>

<script type="text/javascript">
var viewWidth = 680;
var viewHeight = 104;
var sectionId = 'dynsection-0';
</script>
<script xlink:href="svgpan.js"/>
<svg id="graph" class="graph">
<g id="viewport">
<title>DGtal::LabelledMap&lt; TData, L, TWord, N, M &gt;::BlockPointer</title>
<polygon fill="white" stroke="transparent" points="-4,4 -4,-100 676,-100 676,4 -4,4"/>
<!-- Node1 -->
<g id="node1" class="node">
<title>Node1</title>
<g id="a_node1"><a xlink:title="Forward declaration.">
<polygon fill="#bfbfbf" stroke="black" points="557,-30.5 557,-71.5 672,-71.5 672,-30.5 557,-30.5"/>
<text text-anchor="start" x="565" y="-59.5" font-family="FreeSans" font-size="10.00">DGtal::LabelledMap</text>
<text text-anchor="start" x="565" y="-48.5" font-family="FreeSans" font-size="10.00">&lt; TData, L, TWord, N,</text>
<text text-anchor="middle" x="614.5" y="-37.5" font-family="FreeSans" font-size="10.00"> M &gt;::BlockPointer</text>
</a>
</g>
</g>
<!-- Node2 -->
<g id="node2" class="node">
<title>Node2</title>
<g id="a_node2"><a xlink:href="structDGtal_1_1LabelledMap_1_1____AnyBlock.html" target="_top" xlink:title=" ">
<polygon fill="white" stroke="black" points="0,-25.5 0,-66.5 115,-66.5 115,-25.5 0,-25.5"/>
<text text-anchor="start" x="8" y="-54.5" font-family="FreeSans" font-size="10.00">DGtal::LabelledMap</text>
<text text-anchor="start" x="8" y="-43.5" font-family="FreeSans" font-size="10.00">&lt; TData, L, TWord, N,</text>
<text text-anchor="middle" x="57.5" y="-32.5" font-family="FreeSans" font-size="10.00"> M &gt;::__AnyBlock</text>
</a>
</g>
</g>
<!-- Node2&#45;&gt;Node1 -->
<g id="edge1" class="edge">
<title>Node2&#45;&gt;Node1</title>
<path fill="none" stroke="#9a32cd" stroke-dasharray="5,2" d="M125.23,-50.7C127.85,-50.81 130.45,-50.91 133,-51 286.2,-56.14 467.03,-53.9 556.89,-52.23"/>
<polygon fill="#9a32cd" stroke="#9a32cd" points="125.18,-47.19 115.02,-50.19 124.84,-54.18 125.18,-47.19"/>
<text text-anchor="middle" x="357" y="-57" font-family="FreeSans" font-size="10.00"> any</text>
</g>
<!-- Node2&#45;&gt;Node2 -->
<g id="edge2" class="edge">
<title>Node2&#45;&gt;Node2</title>
<path fill="none" stroke="#9a32cd" stroke-dasharray="5,2" d="M40.64,-76.86C43.15,-81.7 48.77,-85 57.5,-85 71.47,-85 77.48,-76.54 75.51,-66.86"/>
<polygon fill="#9a32cd" stroke="#9a32cd" points="44.11,-76.4 39.49,-66.86 37.16,-77.2 44.11,-76.4"/>
<text text-anchor="middle" x="57.5" y="-88" font-family="FreeSans" font-size="10.00"> next</text>
</g>
<!-- Node4 -->
<g id="node4" class="node">
<title>Node4</title>
<g id="a_node4"><a xlink:href="unionDGtal_1_1LabelledMap_1_1DataOrBlockPointer.html" target="_top" xlink:title="Used in first block to finish it or to point to the next block.">
<polygon fill="white" stroke="black" points="198,-0.5 198,-41.5 328,-41.5 328,-0.5 198,-0.5"/>
<text text-anchor="start" x="206" y="-29.5" font-family="FreeSans" font-size="10.00">DGtal::LabelledMap</text>
<text text-anchor="start" x="206" y="-18.5" font-family="FreeSans" font-size="10.00">&lt; TData, L, TWord, N,</text>
<text text-anchor="middle" x="263" y="-7.5" font-family="FreeSans" font-size="10.00"> M &gt;::DataOrBlockPointer</text>
</a>
</g>
</g>
<!-- Node2&#45;&gt;Node4 -->
<g id="edge5" class="edge">
<title>Node2&#45;&gt;Node4</title>
<path fill="none" stroke="#9a32cd" stroke-dasharray="5,2" d="M125.32,-37.79C148.6,-34.93 174.66,-31.73 197.73,-28.9"/>
<polygon fill="#9a32cd" stroke="#9a32cd" points="124.68,-34.34 115.19,-39.04 125.54,-41.29 124.68,-34.34"/>
<text text-anchor="middle" x="156.5" y="-39" font-family="FreeSans" font-size="10.00"> nextBlock</text>
</g>
<!-- Node3 -->
<g id="node3" class="node">
<title>Node3</title>
<g id="a_node3"><a xlink:href="structDGtal_1_1LabelledMap_1_1____FirstBlock.html" target="_top" xlink:title=" ">
<polygon fill="white" stroke="black" points="386,-0.5 386,-41.5 501,-41.5 501,-0.5 386,-0.5"/>
<text text-anchor="start" x="394" y="-29.5" font-family="FreeSans" font-size="10.00">DGtal::LabelledMap</text>
<text text-anchor="start" x="394" y="-18.5" font-family="FreeSans" font-size="10.00">&lt; TData, L, TWord, N,</text>
<text text-anchor="middle" x="443.5" y="-7.5" font-family="FreeSans" font-size="10.00"> M &gt;::__FirstBlock</text>
</a>
</g>
</g>
<!-- Node3&#45;&gt;Node1 -->
<g id="edge3" class="edge">
<title>Node3&#45;&gt;Node1</title>
<path fill="none" stroke="#9a32cd" stroke-dasharray="5,2" d="M511.5,-32.89C526.54,-35.56 542.34,-38.37 556.91,-40.95"/>
<polygon fill="#9a32cd" stroke="#9a32cd" points="511.7,-29.37 501.24,-31.07 510.48,-36.27 511.7,-29.37"/>
<text text-anchor="middle" x="529" y="-39" font-family="FreeSans" font-size="10.00"> first</text>
</g>
<!-- Node4&#45;&gt;Node3 -->
<g id="edge4" class="edge">
<title>Node4&#45;&gt;Node3</title>
<path fill="none" stroke="#9a32cd" stroke-dasharray="5,2" d="M338.51,-21C354.39,-21 370.9,-21 385.97,-21"/>
<polygon fill="#9a32cd" stroke="#9a32cd" points="338.19,-17.5 328.19,-21 338.19,-24.5 338.19,-17.5"/>
<text text-anchor="middle" x="357" y="-24" font-family="FreeSans" font-size="10.00"> data</text>
</g>
</g>
</svg>
        <g id="navigator" transform="translate(0 0)" fill="#404254">
                <rect fill="#f2f5e9" fill-opacity="0.5" stroke="#606060" stroke-width=".5" x="0" y="0" width="60" height="60"/>
                <use id="zoomplus" xlink:href="#zoomPlus" x="17" y="9" onmousedown="handleZoom(evt,'in')"/>
                <use id="zoomminus" xlink:href="#zoomMin" x="42" y="9" onmousedown="handleZoom(evt,'out')"/>
                <use id="reset" xlink:href="#resetDef" x="30" y="36" onmousedown="handleReset()"/>
                <g id="arrowUp" xlink:href="#dirArrow" transform="translate(30 24)" onmousedown="handlePan(0,-1)">
                  <use xlink:href="#rim" fill="#404040">
                        <set attributeName="fill" to="#808080" begin="arrowUp.mouseover" end="arrowUp.mouseout"/>
                  </use>
                  <path fill="none" stroke="white" stroke-width="1.5" d="M0,-3.0v7 M-2.5,-0.5L0,-3.0L2.5,-0.5"/>
                </g>
                <g id="arrowRight" xlink:href="#dirArrow" transform="rotate(90) translate(36 -43)" onmousedown="handlePan(1,0)">
                  <use xlink:href="#rim" fill="#404040">
                        <set attributeName="fill" to="#808080" begin="arrowRight.mouseover" end="arrowRight.mouseout"/>
                  </use>
                  <path fill="none" stroke="white" stroke-width="1.5" d="M0,-3.0v7 M-2.5,-0.5L0,-3.0L2.5,-0.5"/>
                </g>
                <g id="arrowDown" xlink:href="#dirArrow" transform="rotate(180) translate(-30 -48)" onmousedown="handlePan(0,1)">
                  <use xlink:href="#rim" fill="#404040">
                        <set attributeName="fill" to="#808080" begin="arrowDown.mouseover" end="arrowDown.mouseout"/>
                  </use>
                  <path fill="none" stroke="white" stroke-width="1.5" d="M0,-3.0v7 M-2.5,-0.5L0,-3.0L2.5,-0.5"/>
                </g>
                <g id="arrowLeft" xlink:href="#dirArrow" transform="rotate(270) translate(-36 17)" onmousedown="handlePan(-1,0)">
                  <use xlink:href="#rim" fill="#404040">
                        <set attributeName="fill" to="#808080" begin="arrowLeft.mouseover" end="arrowLeft.mouseout"/>
                  </use>
                  <path fill="none" stroke="white" stroke-width="1.5" d="M0,-3.0v7 M-2.5,-0.5L0,-3.0L2.5,-0.5"/>
                </g>
        </g>
        <svg viewBox="0 0 15 15" width="100%" height="30px" preserveAspectRatio="xMaxYMin meet">
         <g id="arrow_out" transform="scale(0.3 0.3)">
          <a xlink:href="unionDGtal_1_1LabelledMap_1_1BlockPointer__coll__graph_org.svg" target="_base">
           <rect id="button" ry="5" rx="5" y="6" x="6" height="38" width="38"
                fill="#f2f5e9" fill-opacity="0.5" stroke="#606060" stroke-width="1.0"/>
           <path id="arrow"
             d="M 11.500037,31.436501 C 11.940474,20.09759 22.043105,11.32322 32.158766,21.979434 L 37.068811,17.246167 C 37.068811,17.246167 37.088388,32 37.088388,32 L 22.160133,31.978069 C 22.160133,31.978069 26.997745,27.140456 26.997745,27.140456 C 18.528582,18.264221 13.291696,25.230495 11.500037,31.436501 z"
             style="fill:#404040;"/>
          </a>
         </g>
        </svg>
</svg>
