<?xml version="1.0" encoding="UTF-8" standalone="no"?>
<!DOCTYPE svg PUBLIC "-//W3C//DTD SVG 1.1//EN"
 "http://www.w3.org/Graphics/SVG/1.1/DTD/svg11.dtd">
<!-- Generated by graphviz version 2.40.1 (20161225.0304)
 -->
<!-- Title: DGtal::ImageContainerBySTLVector&lt; TDomain, TValue &gt; Pages: 1 -->
<svg width="645pt" height="84pt"
 viewBox="0.00 0.00 644.65 84.00" xmlns="http://www.w3.org/2000/svg" xmlns:xlink="http://www.w3.org/1999/xlink">
<g id="graph0" class="graph" transform="scale(1 1) rotate(0) translate(4 80)">
<title>DGtal::ImageContainerBySTLVector&lt; TDomain, TValue &gt;</title>
<polygon fill="#ffffff" stroke="transparent" points="-4,4 -4,-80 640.6543,-80 640.6543,4 -4,4"/>
<!-- Node0 -->
<g id="node1" class="node">
<title>Node0</title>
<polygon fill="#bfbfbf" stroke="#000000" points="147.1357,-23.5 147.1357,-51.5 323.0332,-51.5 323.0332,-23.5 147.1357,-23.5"/>
<text text-anchor="start" x="155.1357" y="-39.5" font-family="FreeSans" font-size="10.00" fill="#000000">DGtal::ImageContainerBySTLVector</text>
<text text-anchor="middle" x="235.0845" y="-29.5" font-family="FreeSans" font-size="10.00" fill="#000000">&lt; TDomain, TValue &gt;</text>
</g>
<!-- Node2 -->
<g id="node3" class="node">
<title>Node2</title>
<g id="a_node3"><a xlink:href="classDGtal_1_1ImageContainerBySTLVector.html" target="_top" xlink:title="DGtal::ImageContainerBySTLVector\l\&lt; Domain, Value \&gt;">
<polygon fill="#ffffff" stroke="#000000" points="460.7568,-47.5 460.7568,-75.5 636.6543,-75.5 636.6543,-47.5 460.7568,-47.5"/>
<text text-anchor="start" x="468.7568" y="-63.5" font-family="FreeSans" font-size="10.00" fill="#000000">DGtal::ImageContainerBySTLVector</text>
<text text-anchor="middle" x="548.7056" y="-53.5" font-family="FreeSans" font-size="10.00" fill="#000000">&lt; Domain, Value &gt;</text>
</a>
</g>
</g>
<!-- Node0&#45;&gt;Node2 -->
<g id="edge2" class="edge">
<title>Node0&#45;&gt;Node2</title>
<path fill="none" stroke="#ffa500" stroke-dasharray="5,2" d="M333.4921,-45.0307C374.2111,-48.1467 421.0599,-51.7319 460.6291,-54.7599"/>
<polygon fill="#ffa500" stroke="#ffa500" points="333.518,-41.5225 323.28,-44.2492 332.9838,-48.5021 333.518,-41.5225"/>
<text text-anchor="middle" x="391.895" y="-54.5" font-family="FreeSans" font-size="10.00" fill="#000000"> &lt; Domain, Value &gt;</text>
</g>
<!-- Node3 -->
<g id="node4" class="node">
<title>Node3</title>
<g id="a_node4"><a xlink:href="classDGtal_1_1ImageContainerBySTLVector.html" target="_top" xlink:title="DGtal::ImageContainerBySTLVector\l\&lt; Domain, Storage * \&gt;">
<polygon fill="#ffffff" stroke="#000000" points="460.7568,-.5 460.7568,-28.5 636.6543,-28.5 636.6543,-.5 460.7568,-.5"/>
<text text-anchor="start" x="468.7568" y="-16.5" font-family="FreeSans" font-size="10.00" fill="#000000">DGtal::ImageContainerBySTLVector</text>
<text text-anchor="middle" x="548.7056" y="-6.5" font-family="FreeSans" font-size="10.00" fill="#000000">&lt; Domain, Storage * &gt;</text>
</a>
</g>
</g>
<!-- Node0&#45;&gt;Node3 -->
<g id="edge3" class="edge">
<title>Node0&#45;&gt;Node3</title>
<path fill="none" stroke="#ffa500" stroke-dasharray="5,2" d="M333.3363,-30.07C335.9287,-29.8776 338.498,-29.6873 341.0332,-29.5 380.2375,-26.604 423.6098,-23.4616 460.5342,-20.8048"/>
<polygon fill="#ffa500" stroke="#ffa500" points="332.9588,-26.5883 323.2462,-30.8211 333.4785,-33.569 332.9588,-26.5883"/>
<text text-anchor="middle" x="391.895" y="-31.5" font-family="FreeSans" font-size="10.00" fill="#000000"> &lt; Domain, Storage * &gt;</text>
</g>
<!-- Node1 -->
<g id="node2" class="node">
<title>Node1</title>
<g id="a_node2"><a xlink:title="STL class. ">
<polygon fill="#ffffff" stroke="#bfbfbf" points="0,-28.5 0,-46.5 110.1357,-46.5 110.1357,-28.5 0,-28.5"/>
<text text-anchor="middle" x="55.0679" y="-34.5" font-family="FreeSans" font-size="10.00" fill="#000000">std::vector&lt; TValue &gt;</text>
</a>
</g>
</g>
<!-- Node1&#45;&gt;Node0 -->
<g id="edge1" class="edge">
<title>Node1&#45;&gt;Node0</title>
<path fill="none" stroke="#191970" d="M120.7834,-37.5C129.3218,-37.5 138.1754,-37.5 147.0043,-37.5"/>
<polygon fill="#191970" stroke="#191970" points="120.5477,-34.0001 110.5477,-37.5 120.5476,-41.0001 120.5477,-34.0001"/>
</g>
</g>
</svg>
