<?xml version="1.0" encoding="UTF-8" standalone="no"?>
<!DOCTYPE svg PUBLIC "-//W3C//DTD SVG 1.1//EN"
 "http://www.w3.org/Graphics/SVG/1.1/DTD/svg11.dtd">
<!-- Generated by graphviz version 2.40.1 (20161225.0304)
 -->
<!-- Title: DGtal::ModuloComputer&lt; TInteger &gt; Pages: 1 -->
<svg width="138pt" height="252pt"
 viewBox="0.00 0.00 138.31 252.00" xmlns="http://www.w3.org/2000/svg" xmlns:xlink="http://www.w3.org/1999/xlink">
<g id="graph0" class="graph" transform="scale(1 1) rotate(0) translate(4 248)">
<title>DGtal::ModuloComputer&lt; TInteger &gt;</title>
<polygon fill="#ffffff" stroke="transparent" points="-4,4 -4,-248 134.3115,-248 134.3115,4 -4,4"/>
<!-- Node1 -->
<g id="node1" class="node">
<title>Node1</title>
<polygon fill="#bfbfbf" stroke="#000000" points="3.2446,-.5 3.2446,-28.5 127.0669,-28.5 127.0669,-.5 3.2446,-.5"/>
<text text-anchor="start" x="11.2446" y="-16.5" font-family="FreeSans" font-size="10.00" fill="#000000">DGtal::ModuloComputer</text>
<text text-anchor="middle" x="65.1558" y="-6.5" font-family="FreeSans" font-size="10.00" fill="#000000">&lt; TInteger &gt;</text>
</g>
<!-- Node2 -->
<g id="node2" class="node">
<title>Node2</title>
<g id="a_node2"><a xlink:href="structDGtal_1_1NumberTraits.html" target="_top" xlink:title="DGtal::NumberTraits\l\&lt; TInteger \&gt;">
<polygon fill="#ffffff" stroke="#000000" points="11.4966,-75.5 11.4966,-103.5 118.8149,-103.5 118.8149,-75.5 11.4966,-75.5"/>
<text text-anchor="start" x="19.4966" y="-91.5" font-family="FreeSans" font-size="10.00" fill="#000000">DGtal::NumberTraits</text>
<text text-anchor="middle" x="65.1558" y="-81.5" font-family="FreeSans" font-size="10.00" fill="#000000">&lt; TInteger &gt;</text>
</a>
</g>
</g>
<!-- Node2&#45;&gt;Node1 -->
<g id="edge1" class="edge">
<title>Node2&#45;&gt;Node1</title>
<path fill="none" stroke="#9a32cd" stroke-dasharray="5,2" d="M65.1558,-65.0415C65.1558,-52.9507 65.1558,-38.7938 65.1558,-28.5437"/>
<polygon fill="#9a32cd" stroke="#9a32cd" points="61.6559,-65.393 65.1558,-75.3931 68.6559,-65.3931 61.6559,-65.393"/>
<text text-anchor="middle" x="69.0449" y="-49" font-family="FreeSans" font-size="10.00" fill="#000000"> k</text>
</g>
<!-- Node3 -->
<g id="node3" class="node">
<title>Node3</title>
<g id="a_node3"><a xlink:href="structDGtal_1_1NumberTraits.html" target="_top" xlink:title="Aim: The traits class for all models of Cinteger. ">
<polygon fill="#ffffff" stroke="#000000" points="0,-150.5 0,-168.5 130.3115,-168.5 130.3115,-150.5 0,-150.5"/>
<text text-anchor="middle" x="65.1558" y="-156.5" font-family="FreeSans" font-size="10.00" fill="#000000">DGtal::NumberTraits&lt; T &gt;</text>
</a>
</g>
</g>
<!-- Node3&#45;&gt;Node2 -->
<g id="edge2" class="edge">
<title>Node3&#45;&gt;Node2</title>
<path fill="none" stroke="#ffa500" stroke-dasharray="5,2" d="M65.1558,-140.0243C65.1558,-128.5169 65.1558,-114.2016 65.1558,-103.7499"/>
<polygon fill="#ffa500" stroke="#ffa500" points="61.6559,-140.3487 65.1558,-150.3487 68.6559,-140.3488 61.6559,-140.3487"/>
<text text-anchor="middle" x="93.6958" y="-124" font-family="FreeSans" font-size="10.00" fill="#000000"> &lt; TInteger &gt;</text>
</g>
<!-- Node4 -->
<g id="node4" class="node">
<title>Node4</title>
<polygon fill="#ffffff" stroke="#bfbfbf" points="50.6558,-225.5 50.6558,-243.5 79.6558,-243.5 79.6558,-225.5 50.6558,-225.5"/>
<text text-anchor="middle" x="64.71" y="-231.5" font-family="FreeSans" font-size="10.00" fill="#000000">T</text>
</g>
<!-- Node4&#45;&gt;Node3 -->
<g id="edge3" class="edge">
<title>Node4&#45;&gt;Node3</title>
<path fill="none" stroke="#9a32cd" stroke-dasharray="5,2" d="M65.1558,-215.1079C65.1558,-200.2042 65.1558,-180.2791 65.1558,-168.7717"/>
<polygon fill="#9a32cd" stroke="#9a32cd" points="61.6559,-215.3035 65.1558,-225.3035 68.6559,-215.3036 61.6559,-215.3035"/>
<text text-anchor="middle" x="79.0449" y="-199" font-family="FreeSans" font-size="10.00" fill="#000000"> ONE</text>
<text text-anchor="middle" x="79.0449" y="-189" font-family="FreeSans" font-size="10.00" fill="#000000">ZERO</text>
</g>
</g>
</svg>
