<?xml version="1.0" encoding="UTF-8" standalone="no"?>
<!DOCTYPE svg PUBLIC "-//W3C//DTD SVG 1.1//EN"
 "http://www.w3.org/Graphics/SVG/1.1/DTD/svg11.dtd">
<!-- Generated by graphviz version 2.40.1 (20161225.0304)
 -->
<!-- Title: DGtal::ImplicitRoundedHyperCube&lt; TSpace &gt; Pages: 1 -->
<svg width="181pt" height="187pt"
 viewBox="0.00 0.00 180.72 187.00" xmlns="http://www.w3.org/2000/svg" xmlns:xlink="http://www.w3.org/1999/xlink">
<g id="graph0" class="graph" transform="scale(1 1) rotate(0) translate(4 183)">
<title>DGtal::ImplicitRoundedHyperCube&lt; TSpace &gt;</title>
<polygon fill="#ffffff" stroke="transparent" points="-4,4 -4,-183 176.7231,-183 176.7231,4 -4,4"/>
<!-- Node1 -->
<g id="node1" class="node">
<title>Node1</title>
<polygon fill="#bfbfbf" stroke="#000000" points="0,-.5 0,-28.5 145.4971,-28.5 145.4971,-.5 0,-.5"/>
<text text-anchor="start" x="8" y="-16.5" font-family="FreeSans" font-size="10.00" fill="#000000">DGtal::ImplicitRoundedHyper</text>
<text text-anchor="middle" x="72.7485" y="-6.5" font-family="FreeSans" font-size="10.00" fill="#000000">Cube&lt; TSpace &gt;</text>
</g>
<!-- Node2 -->
<g id="node2" class="node">
<title>Node2</title>
<g id="a_node2"><a xlink:href="classDGtal_1_1PointVector.html" target="_top" xlink:title="Aim: Implements basic operations that will be used in Point and Vector classes. ">
<polygon fill="#ffffff" stroke="#000000" points="13.0054,-75.5 13.0054,-113.5 132.4917,-113.5 132.4917,-75.5 13.0054,-75.5"/>
<text text-anchor="start" x="21.0054" y="-101.5" font-family="FreeSans" font-size="10.00" fill="#000000">DGtal::PointVector</text>
<text text-anchor="start" x="21.0054" y="-91.5" font-family="FreeSans" font-size="10.00" fill="#000000">&lt; dim, TEuclideanRing,</text>
<text text-anchor="middle" x="72.7485" y="-81.5" font-family="FreeSans" font-size="10.00" fill="#000000"> TContainer &gt;</text>
</a>
</g>
</g>
<!-- Node2&#45;&gt;Node1 -->
<g id="edge1" class="edge">
<title>Node2&#45;&gt;Node1</title>
<path fill="none" stroke="#9a32cd" stroke-dasharray="5,2" d="M72.7485,-64.7707C72.7485,-52.4196 72.7485,-38.6672 72.7485,-28.6728"/>
<polygon fill="#9a32cd" stroke="#9a32cd" points="69.2486,-65.1342 72.7485,-75.1342 76.2486,-65.1343 69.2486,-65.1342"/>
<text text-anchor="middle" x="95.8101" y="-49" font-family="FreeSans" font-size="10.00" fill="#000000"> myCenter</text>
</g>
<!-- Node2&#45;&gt;Node2 -->
<g id="edge3" class="edge">
<title>Node2&#45;&gt;Node2</title>
<path fill="none" stroke="#9a32cd" stroke-dasharray="5,2" d="M142.5961,-100.2494C147.5005,-98.9389 150.4917,-97.0225 150.4917,-94.5 150.4917,-90.5625 143.2033,-88.1016 132.7262,-87.1172"/>
<polygon fill="#9a32cd" stroke="#9a32cd" points="142.0205,-96.797 132.7262,-101.8828 143.1635,-103.7031 142.0205,-96.797"/>
<text text-anchor="middle" x="161.6074" y="-91.5" font-family="FreeSans" font-size="10.00" fill="#000000"> zero</text>
</g>
<!-- Node3 -->
<g id="node3" class="node">
<title>Node3</title>
<polygon fill="#ffffff" stroke="#bfbfbf" points="40.0146,-160.5 40.0146,-178.5 105.4824,-178.5 105.4824,-160.5 40.0146,-160.5"/>
<text text-anchor="middle" x="72.7485" y="-166.5" font-family="FreeSans" font-size="10.00" fill="#000000">TContainer</text>
</g>
<!-- Node3&#45;&gt;Node2 -->
<g id="edge2" class="edge">
<title>Node3&#45;&gt;Node2</title>
<path fill="none" stroke="#9a32cd" stroke-dasharray="5,2" d="M72.7485,-150.2222C72.7485,-138.9591 72.7485,-124.7985 72.7485,-113.5712"/>
<polygon fill="#9a32cd" stroke="#9a32cd" points="69.2486,-150.3035 72.7485,-160.3035 76.2486,-150.3036 69.2486,-150.3035"/>
<text text-anchor="middle" x="92.7485" y="-134" font-family="FreeSans" font-size="10.00" fill="#000000"> myArray</text>
</g>
</g>
</svg>
