<?xml version="1.0" encoding="UTF-8" standalone="no"?>
<!DOCTYPE svg PUBLIC "-//W3C//DTD SVG 1.1//EN"
 "http://www.w3.org/Graphics/SVG/1.1/DTD/svg11.dtd">
<!-- Generated by graphviz version 2.40.1 (20161225.0304)
 -->
<!-- Title: DGtal::Object&lt; TDigitalTopology, TDigitalSet &gt; Pages: 1 -->
<svg width="1250pt" height="203pt"
 viewBox="0.00 0.00 1249.76 203.00" xmlns="http://www.w3.org/2000/svg" xmlns:xlink="http://www.w3.org/1999/xlink">
<g id="graph0" class="graph" transform="scale(1 1) rotate(0) translate(4 199)">
<title>DGtal::Object&lt; TDigitalTopology, TDigitalSet &gt;</title>
<polygon fill="#ffffff" stroke="transparent" points="-4,4 -4,-199 1245.7637,-199 1245.7637,4 -4,4"/>
<!-- Node2 -->
<g id="node1" class="node">
<title>Node2</title>
<polygon fill="#bfbfbf" stroke="#000000" points="1081.335,-85.5 1081.335,-113.5 1241.7637,-113.5 1241.7637,-85.5 1081.335,-85.5"/>
<text text-anchor="start" x="1089.335" y="-101.5" font-family="FreeSans" font-size="10.00" fill="#000000">DGtal::Object&lt; TDigitalTopology,</text>
<text text-anchor="middle" x="1161.5493" y="-91.5" font-family="FreeSans" font-size="10.00" fill="#000000"> TDigitalSet &gt;</text>
</g>
<!-- Node3 -->
<g id="node2" class="node">
<title>Node3</title>
<g id="a_node2"><a xlink:href="classDGtal_1_1CountedPtrOrPtr.html" target="_top" xlink:title="DGtal::CountedPtrOrPtr\l\&lt; std::unordered_map\&lt;\l Point, unsigned int \&gt; \&gt;">
<polygon fill="#ffffff" stroke="#000000" points="766.437,-156.5 766.437,-194.5 888.0278,-194.5 888.0278,-156.5 766.437,-156.5"/>
<text text-anchor="start" x="774.437" y="-182.5" font-family="FreeSans" font-size="10.00" fill="#000000">DGtal::CountedPtrOrPtr</text>
<text text-anchor="start" x="774.437" y="-172.5" font-family="FreeSans" font-size="10.00" fill="#000000">&lt; std::unordered_map&lt;</text>
<text text-anchor="middle" x="827.2324" y="-162.5" font-family="FreeSans" font-size="10.00" fill="#000000"> Point, unsigned int &gt; &gt;</text>
</a>
</g>
</g>
<!-- Node3&#45;&gt;Node2 -->
<g id="edge1" class="edge">
<title>Node3&#45;&gt;Node2</title>
<path fill="none" stroke="#9a32cd" stroke-dasharray="5,2" d="M898.3703,-163.6315C945.453,-155.2886 1008.4095,-143.1997 1063.335,-129.5 1081.6717,-124.9264 1101.662,-118.9968 1118.7927,-113.6184"/>
<polygon fill="#9a32cd" stroke="#9a32cd" points="897.5151,-160.2281 888.2721,-165.4066 898.727,-167.1224 897.5151,-160.2281"/>
<text text-anchor="middle" x="995.5225" y="-159.5" font-family="FreeSans" font-size="10.00" fill="#000000"> myNeighborConfigurationMap</text>
</g>
<!-- Node4 -->
<g id="node3" class="node">
<title>Node4</title>
<g id="a_node3"><a xlink:href="classDGtal_1_1CountedPtrOrPtr.html" target="_top" xlink:title="Aim: Smart or simple pointer on T. It can be a smart pointer based on reference counts or a simple po...">
<polygon fill="#ffffff" stroke="#000000" points="435.7578,-152.5 435.7578,-170.5 580.3418,-170.5 580.3418,-152.5 435.7578,-152.5"/>
<text text-anchor="middle" x="508.0498" y="-158.5" font-family="FreeSans" font-size="10.00" fill="#000000">DGtal::CountedPtrOrPtr&lt; T &gt;</text>
</a>
</g>
</g>
<!-- Node4&#45;&gt;Node3 -->
<g id="edge2" class="edge">
<title>Node4&#45;&gt;Node3</title>
<path fill="none" stroke="#ffa500" stroke-dasharray="5,2" d="M590.5429,-165.1183C645.4971,-167.5287 716.5051,-170.6433 766.3541,-172.8298"/>
<polygon fill="#ffa500" stroke="#ffa500" points="590.6211,-161.6185 580.4773,-164.6768 590.3143,-168.6117 590.6211,-161.6185"/>
<text text-anchor="start" x="608.481" y="-182.5" font-family="FreeSans" font-size="10.00" fill="#000000"> &lt; std::unordered_map</text>
<text text-anchor="middle" x="662.5483" y="-172.5" font-family="FreeSans" font-size="10.00" fill="#000000">&lt; Point, unsigned int &gt; &gt;</text>
</g>
<!-- Node10 -->
<g id="node9" class="node">
<title>Node10</title>
<g id="a_node9"><a xlink:href="classDGtal_1_1CountedPtrOrPtr.html" target="_top" xlink:title="DGtal::CountedPtrOrPtr\l\&lt; boost::dynamic_bitset\&lt;\&gt; \&gt;">
<polygon fill="#ffffff" stroke="#000000" points="756.415,-109.5 756.415,-137.5 898.0498,-137.5 898.0498,-109.5 756.415,-109.5"/>
<text text-anchor="start" x="764.415" y="-125.5" font-family="FreeSans" font-size="10.00" fill="#000000">DGtal::CountedPtrOrPtr</text>
<text text-anchor="middle" x="827.2324" y="-115.5" font-family="FreeSans" font-size="10.00" fill="#000000">&lt; boost::dynamic_bitset&lt;&gt; &gt;</text>
</a>
</g>
</g>
<!-- Node4&#45;&gt;Node10 -->
<g id="edge10" class="edge">
<title>Node4&#45;&gt;Node10</title>
<path fill="none" stroke="#ffa500" stroke-dasharray="5,2" d="M590.5451,-151.6786C641.8626,-145.569 707.1785,-137.7929 756.1911,-131.9578"/>
<polygon fill="#ffa500" stroke="#ffa500" points="589.9934,-148.2195 580.4773,-152.8772 590.821,-155.1704 589.9934,-148.2195"/>
<text text-anchor="middle" x="662.5483" y="-151.5" font-family="FreeSans" font-size="10.00" fill="#000000"> &lt; boost::dynamic_bitset&lt;&gt; &gt;</text>
</g>
<!-- Node5 -->
<g id="node4" class="node">
<title>Node5</title>
<g id="a_node4"><a xlink:href="classDGtal_1_1CowPtr.html" target="_top" xlink:title="DGtal::CowPtr\&lt; DigitalTopology \&gt;">
<polygon fill="#ffffff" stroke="#000000" points="744.7549,-72.5 744.7549,-90.5 909.71,-90.5 909.71,-72.5 744.7549,-72.5"/>
<text text-anchor="middle" x="827.2324" y="-78.5" font-family="FreeSans" font-size="10.00" fill="#000000">DGtal::CowPtr&lt; DigitalTopology &gt;</text>
</a>
</g>
</g>
<!-- Node5&#45;&gt;Node2 -->
<g id="edge3" class="edge">
<title>Node5&#45;&gt;Node2</title>
<path fill="none" stroke="#9a32cd" stroke-dasharray="5,2" d="M919.8245,-82.4924C963.412,-83.4083 1016.0874,-85.1594 1063.335,-88.5 1069.1541,-88.9114 1075.1599,-89.4076 1081.2002,-89.9588"/>
<polygon fill="#9a32cd" stroke="#9a32cd" points="919.8788,-78.9928 909.8111,-82.2932 919.7395,-85.9915 919.8788,-78.9928"/>
<text text-anchor="middle" x="995.5225" y="-90.5" font-family="FreeSans" font-size="10.00" fill="#000000"> myTopo</text>
</g>
<!-- Node6 -->
<g id="node5" class="node">
<title>Node6</title>
<g id="a_node5"><a xlink:href="classDGtal_1_1CountedPtr.html" target="_top" xlink:title="DGtal::CountedPtr\&lt;\l DigitalTopology \&gt;">
<polygon fill="#ffffff" stroke="#000000" points="456.2778,-91.5 456.2778,-119.5 559.8218,-119.5 559.8218,-91.5 456.2778,-91.5"/>
<text text-anchor="start" x="464.2778" y="-107.5" font-family="FreeSans" font-size="10.00" fill="#000000">DGtal::CountedPtr&lt;</text>
<text text-anchor="middle" x="508.0498" y="-97.5" font-family="FreeSans" font-size="10.00" fill="#000000"> DigitalTopology &gt;</text>
</a>
</g>
</g>
<!-- Node6&#45;&gt;Node5 -->
<g id="edge4" class="edge">
<title>Node6&#45;&gt;Node5</title>
<path fill="none" stroke="#9a32cd" stroke-dasharray="5,2" d="M570.0254,-100.8399C619.802,-97.0971 690.15,-91.8075 744.6961,-87.7061"/>
<polygon fill="#9a32cd" stroke="#9a32cd" points="569.7518,-97.3505 560.0424,-101.5906 570.2767,-104.3308 569.7518,-97.3505"/>
<text text-anchor="middle" x="662.5483" y="-99.5" font-family="FreeSans" font-size="10.00" fill="#000000"> myPtr</text>
</g>
<!-- Node7 -->
<g id="node6" class="node">
<title>Node7</title>
<g id="a_node6"><a xlink:href="structDGtal_1_1CountedPtr_1_1Counter.html" target="_top" xlink:title="DGtal::CountedPtr\&lt;\l T \&gt;::Counter">
<polygon fill="#ffffff" stroke="#000000" points="0,-41.5 0,-69.5 103.5439,-69.5 103.5439,-41.5 0,-41.5"/>
<text text-anchor="start" x="8" y="-57.5" font-family="FreeSans" font-size="10.00" fill="#000000">DGtal::CountedPtr&lt;</text>
<text text-anchor="middle" x="51.772" y="-47.5" font-family="FreeSans" font-size="10.00" fill="#000000"> T &gt;::Counter</text>
</a>
</g>
</g>
<!-- Node7&#45;&gt;Node6 -->
<g id="edge5" class="edge">
<title>Node7&#45;&gt;Node6</title>
<path fill="none" stroke="#9a32cd" stroke-dasharray="5,2" d="M113.8936,-68.27C116.4747,-68.704 119.0327,-69.1163 121.5439,-69.5 240.6257,-87.693 381.8495,-98.0313 456.237,-102.614"/>
<polygon fill="#9a32cd" stroke="#9a32cd" points="114.3303,-64.7931 103.8745,-66.5041 113.1152,-71.6868 114.3303,-64.7931"/>
<text text-anchor="middle" x="251.5771" y="-92.5" font-family="FreeSans" font-size="10.00" fill="#000000"> myCounter</text>
</g>
<!-- Node8 -->
<g id="node7" class="node">
<title>Node8</title>
<g id="a_node7"><a xlink:href="classDGtal_1_1CountedPtr.html" target="_top" xlink:title="Aim: Smart pointer based on reference counts. ">
<polygon fill="#ffffff" stroke="#000000" points="191.2285,-46.5 191.2285,-64.5 311.9258,-64.5 311.9258,-46.5 191.2285,-46.5"/>
<text text-anchor="middle" x="251.5771" y="-52.5" font-family="FreeSans" font-size="10.00" fill="#000000">DGtal::CountedPtr&lt; T &gt;</text>
</a>
</g>
</g>
<!-- Node7&#45;&gt;Node8 -->
<g id="edge7" class="edge">
<title>Node7&#45;&gt;Node8</title>
<path fill="none" stroke="#9a32cd" stroke-dasharray="5,2" d="M114.0227,-55.5C138.5561,-55.5 166.638,-55.5 191.0051,-55.5"/>
<polygon fill="#9a32cd" stroke="#9a32cd" points="113.7469,-52.0001 103.7468,-55.5 113.7468,-59.0001 113.7469,-52.0001"/>
<text text-anchor="middle" x="147.3862" y="-57.5" font-family="FreeSans" font-size="10.00" fill="#000000"> myCounter</text>
</g>
<!-- Node12 -->
<g id="node11" class="node">
<title>Node12</title>
<g id="a_node11"><a xlink:href="classDGtal_1_1CountedPtr.html" target="_top" xlink:title="DGtal::CountedPtr\&lt;\l DigitalSet \&gt;">
<polygon fill="#ffffff" stroke="#000000" points="456.2778,-.5 456.2778,-28.5 559.8218,-28.5 559.8218,-.5 456.2778,-.5"/>
<text text-anchor="start" x="464.2778" y="-16.5" font-family="FreeSans" font-size="10.00" fill="#000000">DGtal::CountedPtr&lt;</text>
<text text-anchor="middle" x="508.0498" y="-6.5" font-family="FreeSans" font-size="10.00" fill="#000000"> DigitalSet &gt;</text>
</a>
</g>
</g>
<!-- Node7&#45;&gt;Node12 -->
<g id="edge13" class="edge">
<title>Node7&#45;&gt;Node12</title>
<path fill="none" stroke="#9a32cd" stroke-dasharray="5,2" d="M113.7951,-40.2839C137.8303,-34.9989 165.6689,-29.6194 191.2285,-26.5 284.1127,-15.1641 393.3466,-13.5919 456.2558,-13.8149"/>
<polygon fill="#9a32cd" stroke="#9a32cd" points="112.7374,-36.934 103.7449,-42.5362 114.2683,-43.7646 112.7374,-36.934"/>
<text text-anchor="middle" x="251.5771" y="-28.5" font-family="FreeSans" font-size="10.00" fill="#000000"> myCounter</text>
</g>
<!-- Node8&#45;&gt;Node6 -->
<g id="edge6" class="edge">
<title>Node8&#45;&gt;Node6</title>
<path fill="none" stroke="#ffa500" stroke-dasharray="5,2" d="M322.4786,-64.9247C352.0609,-69.2886 386.7005,-74.9616 417.7578,-81.5 431.2491,-84.3403 445.7355,-87.9403 459.0689,-91.4825"/>
<polygon fill="#ffa500" stroke="#ffa500" points="322.6396,-61.4114 312.2401,-63.4365 321.6326,-68.3386 322.6396,-61.4114"/>
<text text-anchor="middle" x="373.8418" y="-83.5" font-family="FreeSans" font-size="10.00" fill="#000000"> &lt; DigitalTopology &gt;</text>
</g>
<!-- Node8&#45;&gt;Node12 -->
<g id="edge14" class="edge">
<title>Node8&#45;&gt;Node12</title>
<path fill="none" stroke="#ffa500" stroke-dasharray="5,2" d="M318.2605,-44.8399C361.2062,-37.9746 416.2262,-29.179 455.9574,-22.8275"/>
<polygon fill="#ffa500" stroke="#ffa500" points="317.5008,-41.4169 308.1787,-46.4516 318.6058,-48.3291 317.5008,-41.4169"/>
<text text-anchor="middle" x="373.8418" y="-44.5" font-family="FreeSans" font-size="10.00" fill="#000000"> &lt; DigitalSet &gt;</text>
</g>
<!-- Node9 -->
<g id="node8" class="node">
<title>Node9</title>
<g id="a_node8"><a xlink:href="classDGtal_1_1CowPtr.html" target="_top" xlink:title="Aim: Copy on write shared pointer. ">
<polygon fill="#ffffff" stroke="#000000" points="456.6025,-51.5 456.6025,-69.5 559.4971,-69.5 559.4971,-51.5 456.6025,-51.5"/>
<text text-anchor="middle" x="508.0498" y="-57.5" font-family="FreeSans" font-size="10.00" fill="#000000">DGtal::CowPtr&lt; T &gt;</text>
</a>
</g>
</g>
<!-- Node9&#45;&gt;Node5 -->
<g id="edge8" class="edge">
<title>Node9&#45;&gt;Node5</title>
<path fill="none" stroke="#ffa500" stroke-dasharray="5,2" d="M569.9721,-64.5741C619.6953,-67.8455 689.9708,-72.4691 744.5103,-76.0575"/>
<polygon fill="#ffa500" stroke="#ffa500" points="569.895,-61.0615 559.6868,-63.8974 569.4354,-68.0464 569.895,-61.0615"/>
<text text-anchor="middle" x="662.5483" y="-76.5" font-family="FreeSans" font-size="10.00" fill="#000000"> &lt; DigitalTopology &gt;</text>
</g>
<!-- Node11 -->
<g id="node10" class="node">
<title>Node11</title>
<g id="a_node10"><a xlink:href="classDGtal_1_1CowPtr.html" target="_top" xlink:title="DGtal::CowPtr\&lt; DigitalSet \&gt;">
<polygon fill="#ffffff" stroke="#000000" points="757.2646,-34.5 757.2646,-52.5 897.2002,-52.5 897.2002,-34.5 757.2646,-34.5"/>
<text text-anchor="middle" x="827.2324" y="-40.5" font-family="FreeSans" font-size="10.00" fill="#000000">DGtal::CowPtr&lt; DigitalSet &gt;</text>
</a>
</g>
</g>
<!-- Node9&#45;&gt;Node11 -->
<g id="edge15" class="edge">
<title>Node9&#45;&gt;Node11</title>
<path fill="none" stroke="#ffa500" stroke-dasharray="5,2" d="M560.6787,-49.6136C572.9834,-47.503 586.0784,-45.6052 598.3418,-44.5 651.4752,-39.7117 711.828,-39.6705 757.2161,-40.7143"/>
<polygon fill="#ffa500" stroke="#ffa500" points="559.7911,-46.2168 550.5642,-51.4239 561.0244,-53.1073 559.7911,-46.2168"/>
<text text-anchor="middle" x="662.5483" y="-46.5" font-family="FreeSans" font-size="10.00" fill="#000000"> &lt; DigitalSet &gt;</text>
</g>
<!-- Node10&#45;&gt;Node2 -->
<g id="edge9" class="edge">
<title>Node10&#45;&gt;Node2</title>
<path fill="none" stroke="#9a32cd" stroke-dasharray="5,2" d="M908.4025,-117.673C960.8328,-113.9091 1028.7726,-109.0318 1081.0666,-105.2777"/>
<polygon fill="#9a32cd" stroke="#9a32cd" points="907.8561,-114.2031 898.1324,-118.4102 908.3574,-121.1851 907.8561,-114.2031"/>
<text text-anchor="middle" x="995.5225" y="-117.5" font-family="FreeSans" font-size="10.00" fill="#000000"> myTable</text>
</g>
<!-- Node11&#45;&gt;Node2 -->
<g id="edge11" class="edge">
<title>Node11&#45;&gt;Node2</title>
<path fill="none" stroke="#9a32cd" stroke-dasharray="5,2" d="M907.4837,-47.9934C953.4578,-51.5626 1012.0349,-57.8007 1063.335,-68.5 1083.4642,-72.6982 1105.328,-79.3803 1123.3059,-85.4675"/>
<polygon fill="#9a32cd" stroke="#9a32cd" points="907.5111,-44.4857 897.2775,-47.2286 906.988,-51.4661 907.5111,-44.4857"/>
<text text-anchor="middle" x="995.5225" y="-70.5" font-family="FreeSans" font-size="10.00" fill="#000000"> myPointSet</text>
</g>
<!-- Node12&#45;&gt;Node11 -->
<g id="edge12" class="edge">
<title>Node12&#45;&gt;Node11</title>
<path fill="none" stroke="#9a32cd" stroke-dasharray="5,2" d="M570.1114,-16.0416C613.9762,-17.5859 674.0995,-20.62 726.7549,-26.5 744.4254,-28.4733 763.7072,-31.5172 780.6118,-34.4871"/>
<polygon fill="#9a32cd" stroke="#9a32cd" points="569.9992,-12.5359 559.8873,-15.6982 569.7642,-19.532 569.9992,-12.5359"/>
<text text-anchor="middle" x="662.5483" y="-28.5" font-family="FreeSans" font-size="10.00" fill="#000000"> myPtr</text>
</g>
</g>
</svg>
