<?xml version="1.0" encoding="UTF-8" standalone="no"?>
<!DOCTYPE svg PUBLIC "-//W3C//DTD SVG 1.1//EN"
 "http://www.w3.org/Graphics/SVG/1.1/DTD/svg11.dtd">
<!-- Generated by graphviz version 2.40.1 (20161225.0304)
 -->
<!-- Title: GMath Pages: 1 -->
<svg width="2690pt" height="876pt"
 viewBox="0.00 0.00 2690.00 876.00" xmlns="http://www.w3.org/2000/svg" xmlns:xlink="http://www.w3.org/1999/xlink">
<g id="graph0" class="graph" transform="scale(1 1) rotate(0) translate(4 872)">
<title>GMath</title>
<polygon fill="#ffffff" stroke="transparent" points="-4,4 -4,-872 2686,-872 2686,4 -4,4"/>
<g id="clust1" class="cluster">
<title>cluster_ext</title>
<polygon fill="none" stroke="#000000" points="1356,-428 1356,-518 2674,-518 2674,-428 1356,-428"/>
</g>
<g id="clust2" class="cluster">
<title>cluster_kernel</title>
<polygon fill="#ddddee" stroke="#ddddee" points="2332,-436 2332,-510 2666,-510 2666,-436 2332,-436"/>
<text text-anchor="middle" x="2499" y="-442.8" font-family="Times,serif" font-size="14.00" fill="#000000">kernel</text>
</g>
<g id="clust4" class="cluster">
<title>cluster_boost</title>
<polygon fill="#ffffff" stroke="#ffffff" points="1364,-436 1364,-510 2324,-510 2324,-436 1364,-436"/>
<text text-anchor="middle" x="1844" y="-442.8" font-family="Times,serif" font-size="14.00" fill="#000000">boost</text>
</g>
<g id="clust6" class="cluster">
<title>cluster_math_cc</title>
<polygon fill="none" stroke="#000000" points="8,-114 8,-860 1348,-860 1348,-114 8,-114"/>
</g>
<g id="clust7" class="cluster">
<title>cluster_math_linalg</title>
<polygon fill="#e4e4ff" stroke="#e4e4ff" points="16,-122 16,-852 1194,-852 1194,-122 16,-122"/>
<text text-anchor="middle" x="605" y="-128.8" font-family="Times,serif" font-size="14.00" fill="#000000">math/linalg</text>
</g>
<g id="clust8" class="cluster">
<title>cluster_concepts</title>
<polygon fill="#d3d3d3" stroke="#d3d3d3" points="1202,-122 1202,-196 1340,-196 1340,-122 1202,-122"/>
<text text-anchor="middle" x="1271" y="-128.8" font-family="Times,serif" font-size="14.00" fill="#000000">Math (main concepts)</text>
</g>
<g id="clust9" class="cluster">
<title>cluster_models</title>
<polygon fill="#ccffcc" stroke="#ccffcc" points="1721,-8 1721,-82 2206,-82 2206,-8 1721,-8"/>
<text text-anchor="middle" x="1963.5" y="-14.8" font-family="Times,serif" font-size="14.00" fill="#000000">Math (main models and classes)</text>
</g>
<!-- CCommutativeRing -->
<g id="node1" class="node">
<title>CCommutativeRing</title>
<g id="a_node1"><a xlink:href="structDGtal_1_1concepts_1_1CCommutativeRing.html" target="_top" xlink:title="CCommutativeRing">
<ellipse fill="#ffffff" stroke="#ffffff" cx="2577" cy="-484" rx="81.1939" ry="18"/>
<text text-anchor="middle" x="2577" y="-479.8" font-family="Times,serif" font-size="14.00" fill="#000000">CCommutativeRing</text>
</a>
</g>
</g>
<!-- CEuclideanRing -->
<g id="node2" class="node">
<title>CEuclideanRing</title>
<g id="a_node2"><a xlink:href="structDGtal_1_1concepts_1_1CEuclideanRing.html" target="_top" xlink:title="CEuclideanRing">
<ellipse fill="#ffffff" stroke="#ffffff" cx="2409" cy="-484" rx="68.6219" ry="18"/>
<text text-anchor="middle" x="2409" y="-479.8" font-family="Times,serif" font-size="14.00" fill="#000000">CEuclideanRing</text>
</a>
</g>
</g>
<!-- boost_CopyConstructible -->
<g id="node3" class="node">
<title>boost_CopyConstructible</title>
<g id="a_node3"><a xlink:href="structboost_1_1CopyConstructible.html" target="_top" xlink:title="boost::CopyConstructible">
<ellipse fill="#ffa500" stroke="#ffa500" cx="1707" cy="-484" rx="100.997" ry="18"/>
<text text-anchor="middle" x="1707" y="-479.8" font-family="Times,serif" font-size="14.00" fill="#000000">boost::CopyConstructible</text>
</a>
</g>
</g>
<!-- boost_DefaultConstructible -->
<g id="node4" class="node">
<title>boost_DefaultConstructible</title>
<g id="a_node4"><a xlink:href="structboost_1_1DefaultConstructible.html" target="_top" xlink:title="boost::DefaultConstructible">
<ellipse fill="#ffa500" stroke="#ffa500" cx="1480" cy="-484" rx="108.2046" ry="18"/>
<text text-anchor="middle" x="1480" y="-479.8" font-family="Times,serif" font-size="14.00" fill="#000000">boost::DefaultConstructible</text>
</a>
</g>
</g>
<!-- boost_InputIterator -->
<g id="node5" class="node">
<title>boost_InputIterator</title>
<g id="a_node5"><a xlink:href="structboost_1_1InputIterator.html" target="_top" xlink:title="boost::InputIterator">
<ellipse fill="#ffa500" stroke="#ffa500" cx="2237" cy="-484" rx="78.7453" ry="18"/>
<text text-anchor="middle" x="2237" y="-479.8" font-family="Times,serif" font-size="14.00" fill="#000000">boost::InputIterator</text>
</a>
</g>
</g>
<!-- boost_is_integral -->
<g id="node6" class="node">
<title>boost_is_integral</title>
<g id="a_node6"><a xlink:href="structboost_1_1is__integral.html" target="_top" xlink:title="boost::is_integral">
<ellipse fill="#ffa500" stroke="#ffa500" cx="1898" cy="-484" rx="71.529" ry="18"/>
<text text-anchor="middle" x="1898" y="-479.8" font-family="Times,serif" font-size="14.00" fill="#000000">boost::is_integral</text>
</a>
</g>
</g>
<!-- boost_is_unsigned -->
<g id="node7" class="node">
<title>boost_is_unsigned</title>
<g id="a_node7"><a xlink:href="structboost_1_1is__unsigned.html" target="_top" xlink:title="boost::is_unsigned">
<ellipse fill="#ffa500" stroke="#ffa500" cx="2064" cy="-484" rx="76.3743" ry="18"/>
<text text-anchor="middle" x="2064" y="-479.8" font-family="Times,serif" font-size="14.00" fill="#000000">boost::is_unsigned</text>
</a>
</g>
</g>
<!-- CVectorSpace -->
<g id="node8" class="node">
<title>CVectorSpace</title>
<g id="a_node8"><a xlink:href="structDGtal_1_1concepts_1_1CVectorSpace.html" target="_top" xlink:title="CVectorSpace">
<ellipse fill="#ffffff" stroke="#ffffff" cx="492" cy="-826" rx="60.4028" ry="18"/>
<text text-anchor="middle" x="492" y="-821.8" font-family="Times,serif" font-size="14.00" fill="#000000">CVectorSpace</text>
</a>
</g>
</g>
<!-- CMatrix -->
<g id="node9" class="node">
<title>CMatrix</title>
<g id="a_node9"><a xlink:href="structDGtal_1_1concepts_1_1CMatrix.html" target="_top" xlink:title="CMatrix">
<ellipse fill="#ffffff" stroke="#ffffff" cx="573" cy="-639" rx="40.149" ry="18"/>
<text text-anchor="middle" x="573" y="-634.8" font-family="Times,serif" font-size="14.00" fill="#000000">CMatrix</text>
</a>
</g>
</g>
<!-- CMatrix&#45;&gt;CVectorSpace -->
<g id="edge6" class="edge">
<title>CMatrix&#45;&gt;CVectorSpace</title>
<path fill="none" stroke="#000000" d="M560.5,-656.6049C554.25,-667.0982 548,-680.9732 548,-694.5 548,-694.5 548,-694.5 548,-770.5 548,-783.9164 539.7908,-795.1951 529.6587,-804.0063"/>
<polygon fill="#000000" stroke="#000000" points="527.3744,-801.3491 521.6398,-810.2579 531.6783,-806.8697 527.3744,-801.3491"/>
</g>
<!-- CStaticMatrix -->
<g id="node10" class="node">
<title>CStaticMatrix</title>
<g id="a_node10"><a xlink:href="structDGtal_1_1concepts_1_1CStaticMatrix.html" target="_top" xlink:title="CStaticMatrix">
<ellipse fill="#ffffff" stroke="#ffffff" cx="1126" cy="-383" rx="60.4288" ry="18"/>
<text text-anchor="middle" x="1126" y="-378.8" font-family="Times,serif" font-size="14.00" fill="#000000">CStaticMatrix</text>
</a>
</g>
</g>
<!-- CStaticMatrix&#45;&gt;boost_DefaultConstructible -->
<g id="edge8" class="edge">
<title>CStaticMatrix&#45;&gt;boost_DefaultConstructible</title>
<path fill="none" stroke="#000000" d="M1169.7624,-395.4859C1231.4224,-413.0782 1344.2857,-445.2793 1415.5504,-465.6118"/>
<polygon fill="#000000" stroke="#000000" points="1414.7439,-469.0213 1425.3204,-468.3993 1416.6644,-462.2899 1414.7439,-469.0213"/>
</g>
<!-- CStaticMatrix&#45;&gt;CMatrix -->
<g id="edge7" class="edge">
<title>CStaticMatrix&#45;&gt;CMatrix</title>
<path fill="none" stroke="#000000" d="M1081.1669,-395.0293C1073.1367,-397.0887 1064.833,-399.1565 1057,-401 969.6908,-421.5486 662,-394.3053 662,-484 662,-484 662,-484 662,-583.5 662,-606.2623 640.7801,-620.028 619.0631,-628.156"/>
<polygon fill="#000000" stroke="#000000" points="617.8081,-624.8856 609.4565,-631.4049 620.0507,-631.5167 617.8081,-624.8856"/>
</g>
<!-- CDynamicMatrix -->
<g id="node11" class="node">
<title>CDynamicMatrix</title>
<g id="a_node11"><a xlink:href="structDGtal_1_1concepts_1_1CDynamicMatrix.html" target="_top" xlink:title="CDynamicMatrix">
<ellipse fill="#ffffff" stroke="#ffffff" cx="830" cy="-383" rx="72.4808" ry="18"/>
<text text-anchor="middle" x="830" y="-378.8" font-family="Times,serif" font-size="14.00" fill="#000000">CDynamicMatrix</text>
</a>
</g>
</g>
<!-- CDynamicMatrix&#45;&gt;CMatrix -->
<g id="edge9" class="edge">
<title>CDynamicMatrix&#45;&gt;CMatrix</title>
<path fill="none" stroke="#000000" d="M776.2849,-395.2918C766.8783,-397.301 757.1688,-399.284 748,-401 696.7178,-410.5977 674.7788,-389.1345 632,-419 604.9222,-437.904 596,-450.9763 596,-484 596,-484 596,-484 596,-583.5 596,-593.3042 592.899,-603.3914 588.9743,-612.2318"/>
<polygon fill="#000000" stroke="#000000" points="585.8032,-610.7484 584.5,-621.2628 592.0756,-613.856 585.8032,-610.7484"/>
</g>
<!-- CDenseMatrix -->
<g id="node12" class="node">
<title>CDenseMatrix</title>
<g id="a_node12"><a xlink:href="structDGtal_1_1concepts_1_1CDenseMatrix.html" target="_top" xlink:title="CDenseMatrix">
<ellipse fill="#ffffff" stroke="#ffffff" cx="541" cy="-383" rx="62.3494" ry="18"/>
<text text-anchor="middle" x="541" y="-378.8" font-family="Times,serif" font-size="14.00" fill="#000000">CDenseMatrix</text>
</a>
</g>
</g>
<!-- CDenseMatrix&#45;&gt;CMatrix -->
<g id="edge10" class="edge">
<title>CDenseMatrix&#45;&gt;CMatrix</title>
<path fill="none" stroke="#000000" d="M541.2892,-401.2454C541.5846,-421.4725 542,-455.0663 542,-484 542,-484 542,-484 542,-583.5 542,-594.2607 546.4967,-604.8752 552.0648,-613.8941"/>
<polygon fill="#000000" stroke="#000000" points="549.3135,-616.0702 557.8633,-622.3274 555.0816,-612.1042 549.3135,-616.0702"/>
</g>
<!-- CSparseMatrix -->
<g id="node13" class="node">
<title>CSparseMatrix</title>
<g id="a_node13"><a xlink:href="structDGtal_1_1concepts_1_1CSparseMatrix.html" target="_top" xlink:title="CSparseMatrix">
<ellipse fill="#ffffff" stroke="#ffffff" cx="984" cy="-383" rx="63.8028" ry="18"/>
<text text-anchor="middle" x="984" y="-378.8" font-family="Times,serif" font-size="14.00" fill="#000000">CSparseMatrix</text>
</a>
</g>
</g>
<!-- CSparseMatrix&#45;&gt;CMatrix -->
<g id="edge11" class="edge">
<title>CSparseMatrix&#45;&gt;CMatrix</title>
<path fill="none" stroke="#000000" d="M938.2928,-395.5384C929.3012,-397.6447 919.897,-399.5984 911,-401 883.0517,-405.4028 679.1499,-401.3967 657,-419 633.3372,-437.8057 637,-453.7745 637,-484 637,-484 637,-484 637,-583.5 637,-599.8203 624.9745,-612.4201 611.349,-621.4584"/>
<polygon fill="#000000" stroke="#000000" points="609.5186,-618.4749 602.7516,-626.6271 613.1254,-624.4742 609.5186,-618.4749"/>
</g>
<!-- CVector -->
<g id="node14" class="node">
<title>CVector</title>
<g id="a_node14"><a xlink:href="structDGtal_1_1concepts_1_1CVector.html" target="_top" xlink:title="CVector">
<ellipse fill="#ffffff" stroke="#ffffff" cx="389" cy="-639" rx="39.1713" ry="18"/>
<text text-anchor="middle" x="389" y="-634.8" font-family="Times,serif" font-size="14.00" fill="#000000">CVector</text>
</a>
</g>
</g>
<!-- CVector&#45;&gt;CVectorSpace -->
<g id="edge1" class="edge">
<title>CVector&#45;&gt;CVectorSpace</title>
<path fill="none" stroke="#000000" d="M411.1916,-654.0484C422.9546,-663.9569 435,-678.1057 435,-694.5 435,-694.5 435,-694.5 435,-770.5 435,-784.0378 443.3558,-795.345 453.6689,-804.145"/>
<polygon fill="#000000" stroke="#000000" points="451.7599,-807.0911 461.8309,-810.3812 456.0097,-801.5288 451.7599,-807.0911"/>
</g>
<!-- CStaticVector -->
<g id="node15" class="node">
<title>CStaticVector</title>
<g id="a_node15"><a xlink:href="structDGtal_1_1concepts_1_1CStaticVector.html" target="_top" xlink:title="CStaticVector">
<ellipse fill="#ffffff" stroke="#ffffff" cx="680" cy="-383" rx="59.4512" ry="18"/>
<text text-anchor="middle" x="680" y="-378.8" font-family="Times,serif" font-size="14.00" fill="#000000">CStaticVector</text>
</a>
</g>
</g>
<!-- CStaticVector&#45;&gt;boost_DefaultConstructible -->
<g id="edge3" class="edge">
<title>CStaticVector&#45;&gt;boost_DefaultConstructible</title>
<path fill="none" stroke="#000000" d="M722.7902,-395.5442C731.4043,-397.6775 740.4414,-399.6397 749,-401 946.4377,-432.3808 999.7206,-402.4714 1198,-428 1270.0373,-437.2749 1351.2927,-454.0989 1408.0122,-466.8935"/>
<polygon fill="#000000" stroke="#000000" points="1407.4293,-470.3502 1417.9561,-469.152 1408.9797,-463.524 1407.4293,-470.3502"/>
</g>
<!-- CStaticVector&#45;&gt;CVector -->
<g id="edge2" class="edge">
<title>CStaticVector&#45;&gt;CVector</title>
<path fill="none" stroke="#000000" d="M640.5404,-396.647C623.9518,-403.9204 605.4294,-414.2521 592,-428 572.6924,-447.7655 565,-456.3693 565,-484 565,-484 565,-484 565,-583.5 565,-610.3825 489.3722,-625.8697 437.2673,-633.3496"/>
<polygon fill="#000000" stroke="#000000" points="436.6172,-629.9061 427.1894,-634.7399 437.5739,-636.8404 436.6172,-629.9061"/>
</g>
<!-- CDynamicVector -->
<g id="node16" class="node">
<title>CDynamicVector</title>
<g id="a_node16"><a xlink:href="structDGtal_1_1concepts_1_1CDynamicVector.html" target="_top" xlink:title="CDynamicVector">
<ellipse fill="#ffffff" stroke="#ffffff" cx="389" cy="-383" rx="71.5031" ry="18"/>
<text text-anchor="middle" x="389" y="-378.8" font-family="Times,serif" font-size="14.00" fill="#000000">CDynamicVector</text>
</a>
</g>
</g>
<!-- CDynamicVector&#45;&gt;CVector -->
<g id="edge4" class="edge">
<title>CDynamicVector&#45;&gt;CVector</title>
<path fill="none" stroke="#000000" d="M389,-401.2459C389,-421.4735 389,-455.0677 389,-484 389,-484 389,-484 389,-583.5 389,-592.2682 389,-601.8157 389,-610.4804"/>
<polygon fill="#000000" stroke="#000000" points="385.5001,-610.5 389,-620.5 392.5001,-610.5 385.5001,-610.5"/>
</g>
<!-- CDenseVector -->
<g id="node17" class="node">
<title>CDenseVector</title>
<g id="a_node17"><a xlink:href="structDGtal_1_1concepts_1_1CDenseVector.html" target="_top" xlink:title="CDenseVector">
<ellipse fill="#ffffff" stroke="#ffffff" cx="85" cy="-383" rx="61.3718" ry="18"/>
<text text-anchor="middle" x="85" y="-378.8" font-family="Times,serif" font-size="14.00" fill="#000000">CDenseVector</text>
</a>
</g>
</g>
<!-- CDenseVector&#45;&gt;CVector -->
<g id="edge5" class="edge">
<title>CDenseVector&#45;&gt;CVector</title>
<path fill="none" stroke="#000000" d="M127.8566,-395.8893C166.3998,-410.4452 217,-438.264 217,-484 217,-484 217,-484 217,-583.5 217,-609.6258 289.7813,-625.2467 340.6557,-632.9745"/>
<polygon fill="#000000" stroke="#000000" points="340.4268,-636.4781 350.8276,-634.4602 341.4385,-629.5516 340.4268,-636.4781"/>
</g>
<!-- CLinearAlgebra -->
<g id="node18" class="node">
<title>CLinearAlgebra</title>
<g id="a_node18"><a xlink:href="structDGtal_1_1concepts_1_1CLinearAlgebra.html" target="_top" xlink:title="CLinearAlgebra">
<ellipse fill="#ffffff" stroke="#ffffff" cx="232" cy="-383" rx="67.6269" ry="18"/>
<text text-anchor="middle" x="232" y="-378.8" font-family="Times,serif" font-size="14.00" fill="#000000">CLinearAlgebra</text>
</a>
</g>
</g>
<!-- CLinearAlgebra&#45;&gt;CMatrix -->
<g id="edge12" class="edge">
<title>CLinearAlgebra&#45;&gt;CMatrix</title>
<path fill="none" stroke="#000000" d="M274.9192,-396.9099C342.473,-419.4308 466,-463.4248 466,-484 466,-484 466,-484 466,-583.5 466,-611.8601 495.9861,-625.7471 524.2102,-632.5369"/>
<polygon fill="#000000" stroke="#000000" points="523.5558,-635.9761 534.0679,-634.6546 525.0261,-629.1322 523.5558,-635.9761"/>
</g>
<!-- CLinearAlgebra&#45;&gt;CVector -->
<g id="edge13" class="edge">
<title>CLinearAlgebra&#45;&gt;CVector</title>
<path fill="none" stroke="#000000" d="M253.1429,-400.3433C273.1044,-418.7933 300,-449.967 300,-484 300,-484 300,-484 300,-583.5 300,-606.5002 321.6659,-620.3148 343.618,-628.409"/>
<polygon fill="#000000" stroke="#000000" points="342.7195,-631.7987 353.3131,-631.6378 344.9313,-625.1574 342.7195,-631.7987"/>
</g>
<!-- CLinearAlgebraSolver -->
<g id="node19" class="node">
<title>CLinearAlgebraSolver</title>
<g id="a_node19"><a xlink:href="structDGtal_1_1concepts_1_1CLinearAlgebraSolver.html" target="_top" xlink:title="CLinearAlgebraSolver">
<ellipse fill="#ffffff" stroke="#ffffff" cx="879" cy="-170" rx="90.8049" ry="18"/>
<text text-anchor="middle" x="879" y="-165.8" font-family="Times,serif" font-size="14.00" fill="#000000">CLinearAlgebraSolver</text>
</a>
</g>
</g>
<!-- CLinearAlgebraSolver&#45;&gt;boost_DefaultConstructible -->
<g id="edge15" class="edge">
<title>CLinearAlgebraSolver&#45;&gt;boost_DefaultConstructible</title>
<path fill="none" stroke="#000000" d="M962.233,-177.1997C1118.2316,-190.8328 1439,-219.5847 1439,-225.5 1439,-225.5 1439,-225.5 1439,-383 1439,-409.6295 1451.3875,-437.4998 1462.5445,-457.2012"/>
<polygon fill="#000000" stroke="#000000" points="1459.5932,-459.0865 1467.6986,-465.9095 1465.6172,-455.5211 1459.5932,-459.0865"/>
</g>
<!-- CLinearAlgebraSolver&#45;&gt;CLinearAlgebra -->
<g id="edge14" class="edge">
<title>CLinearAlgebraSolver&#45;&gt;CLinearAlgebra</title>
<path fill="none" stroke="#000000" d="M789.1729,-172.7302C662.8592,-177.7905 448,-191.4086 448,-225.5 448,-225.5 448,-225.5 448,-327.5 448,-329.5242 355.7504,-352.6058 291.8241,-368.3576"/>
<polygon fill="#000000" stroke="#000000" points="290.6997,-365.0298 281.826,-370.8184 292.3727,-371.8269 290.6997,-365.0298"/>
</g>
<!-- CBinner -->
<g id="node20" class="node">
<title>CBinner</title>
<g id="a_node20"><a xlink:href="structDGtal_1_1concepts_1_1CBinner.html" target="_top" xlink:title="CBinner">
<ellipse fill="#ffffff" stroke="#ffffff" cx="1292" cy="-170" rx="40.149" ry="18"/>
<text text-anchor="middle" x="1292" y="-165.8" font-family="Times,serif" font-size="14.00" fill="#000000">CBinner</text>
</a>
</g>
</g>
<!-- CBinner&#45;&gt;CEuclideanRing -->
<g id="edge17" class="edge">
<title>CBinner&#45;&gt;CEuclideanRing</title>
<path fill="none" stroke="#000000" stroke-dasharray="5,2" d="M1332.2857,-170.6004C1496.9289,-173.3143 2110,-186.0673 2110,-225.5 2110,-225.5 2110,-225.5 2110,-383 2110,-405.6361 2124.4097,-410.596 2145,-420 2182.0265,-436.9108 2289.4162,-415.0296 2328,-428 2348.0992,-434.7566 2367.7361,-448.1114 2382.6407,-460.0847"/>
<polygon fill="#000000" stroke="#000000" points="2380.4805,-462.8404 2390.407,-466.5438 2384.9565,-457.4585 2380.4805,-462.8404"/>
<text text-anchor="middle" x="2119.3311" y="-297.8" font-family="Times,serif" font-size="14.00" fill="#000000">use</text>
</g>
<!-- CBinner&#45;&gt;boost_CopyConstructible -->
<g id="edge16" class="edge">
<title>CBinner&#45;&gt;boost_CopyConstructible</title>
<path fill="none" stroke="#000000" d="M1331.8812,-172.8074C1417.6628,-179.3814 1612,-197.378 1612,-225.5 1612,-225.5 1612,-225.5 1612,-383 1612,-416.631 1640.2931,-443.6351 1665.9984,-461.2292"/>
<polygon fill="#000000" stroke="#000000" points="1664.2862,-464.2913 1674.5721,-466.8312 1668.1151,-458.4313 1664.2862,-464.2913"/>
</g>
<!-- CBinner&#45;&gt;boost_is_integral -->
<g id="edge18" class="edge">
<title>CBinner&#45;&gt;boost_is_integral</title>
<path fill="none" stroke="#000000" stroke-dasharray="5,2" d="M1332.1567,-171.2534C1435.575,-175.0132 1703,-188.3291 1703,-225.5 1703,-225.5 1703,-225.5 1703,-383 1703,-412.461 1730.4638,-409.5258 1758,-420 1782.7333,-429.408 1792.327,-418.4349 1817,-428 1836.5018,-435.5604 1855.8634,-448.6845 1870.7648,-460.3277"/>
<polygon fill="#000000" stroke="#000000" points="1868.5722,-463.0558 1878.557,-466.5991 1872.9611,-457.6026 1868.5722,-463.0558"/>
<text text-anchor="middle" x="1712.3311" y="-297.8" font-family="Times,serif" font-size="14.00" fill="#000000">use</text>
</g>
<!-- CBinner&#45;&gt;boost_is_unsigned -->
<g id="edge19" class="edge">
<title>CBinner&#45;&gt;boost_is_unsigned</title>
<path fill="none" stroke="#000000" stroke-dasharray="5,2" d="M1332.0989,-170.4528C1447.462,-172.2827 1772,-181.3537 1772,-225.5 1772,-225.5 1772,-225.5 1772,-383 1772,-430.0744 1935.6106,-409.7418 1979,-428 1998.6529,-436.2699 2018.662,-449.184 2034.326,-460.5275"/>
<polygon fill="#000000" stroke="#000000" points="2032.4344,-463.4822 2042.5513,-466.6284 2036.6046,-457.8599 2032.4344,-463.4822"/>
<text text-anchor="middle" x="1781.3311" y="-297.8" font-family="Times,serif" font-size="14.00" fill="#000000">use</text>
</g>
<!-- Statistic -->
<g id="node21" class="node">
<title>Statistic</title>
<g id="a_node21"><a xlink:href="classDGtal_1_1Statistic.html" target="_top" xlink:title="Statistic">
<ellipse fill="#ffffff" stroke="#ffffff" cx="2159" cy="-56" rx="38.7042" ry="18"/>
<text text-anchor="middle" x="2159" y="-51.8" font-family="Times,serif" font-size="14.00" fill="#000000">Statistic</text>
</a>
</g>
</g>
<!-- Statistic&#45;&gt;CCommutativeRing -->
<g id="edge20" class="edge">
<title>Statistic&#45;&gt;CCommutativeRing</title>
<path fill="none" stroke="#000000" stroke-dasharray="5,2" d="M2194.6695,-62.9654C2269.0778,-78.5185 2434,-118.7694 2434,-170 2434,-170 2434,-170 2434,-383 2434,-389.5934 2499.7166,-433.6626 2542.0504,-461.3674"/>
<polygon fill="#000000" stroke="#000000" points="2540.151,-464.3072 2550.4379,-466.8429 2543.9775,-458.4456 2540.151,-464.3072"/>
<text text-anchor="middle" x="2453.4346" y="-265.8" font-family="Times,serif" font-size="14.00" fill="#000000">tparam</text>
</g>
<!-- Statistic&#45;&gt;boost_InputIterator -->
<g id="edge21" class="edge">
<title>Statistic&#45;&gt;boost_InputIterator</title>
<path fill="none" stroke="#000000" stroke-dasharray="5,2" d="M2178.8294,-71.8505C2201.644,-92.0145 2236,-129.1595 2236,-170 2236,-170 2236,-170 2236,-383 2236,-407.5258 2236.2985,-435.4001 2236.5693,-455.6433"/>
<polygon fill="#000000" stroke="#000000" points="2233.0711,-455.8046 2236.7108,-465.7546 2240.0704,-455.7066 2233.0711,-455.8046"/>
<text text-anchor="middle" x="2245.3311" y="-265.8" font-family="Times,serif" font-size="14.00" fill="#000000">use</text>
</g>
<!-- RegularBinner -->
<g id="node22" class="node">
<title>RegularBinner</title>
<g id="a_node22"><a xlink:href="structDGtal_1_1RegularBinner.html" target="_top" xlink:title="RegularBinner">
<ellipse fill="#ffffff" stroke="#ffffff" cx="1791" cy="-56" rx="62.3407" ry="18"/>
<text text-anchor="middle" x="1791" y="-51.8" font-family="Times,serif" font-size="14.00" fill="#000000">RegularBinner</text>
</a>
</g>
</g>
<!-- RegularBinner&#45;&gt;CBinner -->
<g id="edge22" class="edge">
<title>RegularBinner&#45;&gt;CBinner</title>
<path fill="none" stroke="#000000" d="M1728.8553,-58.0905C1614.2609,-62.3732 1378.3573,-73.3449 1346,-92 1326.2558,-103.3832 1312.079,-125.2498 1303.2196,-142.9408"/>
<polygon fill="#000000" stroke="#000000" points="1299.9318,-141.7077 1298.8431,-152.2465 1306.2662,-144.6868 1299.9318,-141.7077"/>
</g>
<!-- Histogram -->
<g id="node23" class="node">
<title>Histogram</title>
<g id="a_node23"><a xlink:href="classDGtal_1_1Histogram.html" target="_top" xlink:title="Histogram">
<ellipse fill="#ffffff" stroke="#ffffff" cx="2055" cy="-56" rx="47.3823" ry="18"/>
<text text-anchor="middle" x="2055" y="-51.8" font-family="Times,serif" font-size="14.00" fill="#000000">Histogram</text>
</a>
</g>
</g>
<!-- Histogram&#45;&gt;CEuclideanRing -->
<g id="edge24" class="edge">
<title>Histogram&#45;&gt;CEuclideanRing</title>
<path fill="none" stroke="#000000" stroke-dasharray="5,2" d="M2082.597,-70.6974C2113.4076,-89.3369 2159,-124.5907 2159,-170 2159,-170 2159,-170 2159,-383 2159,-460.7282 2257.4311,-395.416 2328,-428 2346.4244,-436.5071 2365.1778,-449.1652 2379.9938,-460.2957"/>
<polygon fill="#000000" stroke="#000000" points="2378.1694,-463.3079 2388.2301,-466.6297 2382.4368,-457.759 2378.1694,-463.3079"/>
<text text-anchor="middle" x="2178.4346" y="-265.8" font-family="Times,serif" font-size="14.00" fill="#000000">tparam</text>
</g>
<!-- Histogram&#45;&gt;boost_InputIterator -->
<g id="edge25" class="edge">
<title>Histogram&#45;&gt;boost_InputIterator</title>
<path fill="none" stroke="#000000" stroke-dasharray="5,2" d="M2055.2575,-74.1641C2055.5538,-96.66 2056,-136.1549 2056,-170 2056,-170 2056,-170 2056,-383 2056,-428.9178 2108.8963,-405.6363 2149,-428 2167.2823,-438.195 2186.9963,-450.6008 2203.1215,-461.1423"/>
<polygon fill="#000000" stroke="#000000" points="2201.4029,-464.2013 2211.6789,-466.7809 2205.2545,-458.3562 2201.4029,-464.2013"/>
<text text-anchor="middle" x="2065.3311" y="-265.8" font-family="Times,serif" font-size="14.00" fill="#000000">use</text>
</g>
<!-- Histogram&#45;&gt;CBinner -->
<g id="edge23" class="edge">
<title>Histogram&#45;&gt;CBinner</title>
<path fill="none" stroke="#000000" stroke-dasharray="5,2" d="M2027.2296,-70.711C2018.1353,-74.9686 2007.8372,-79.2141 1998,-82 1758.9119,-149.7107 1459.5995,-165.3458 1342.3699,-168.9371"/>
<polygon fill="#000000" stroke="#000000" points="1342.154,-165.4418 1332.2597,-169.2304 1342.3571,-172.4388 1342.154,-165.4418"/>
<text text-anchor="middle" x="1961.4346" y="-94.8" font-family="Times,serif" font-size="14.00" fill="#000000">tparam</text>
</g>
<!-- SimpleMatrix -->
<g id="node24" class="node">
<title>SimpleMatrix</title>
<g id="a_node24"><a xlink:href="classDGtal_1_1SimpleMatrix.html" target="_top" xlink:title="SimpleMatrix">
<ellipse fill="#ffffff" stroke="#ffffff" cx="1930" cy="-56" rx="59.4686" ry="18"/>
<text text-anchor="middle" x="1930" y="-51.8" font-family="Times,serif" font-size="14.00" fill="#000000">SimpleMatrix</text>
</a>
</g>
</g>
<!-- SimpleMatrix&#45;&gt;CStaticMatrix -->
<g id="edge26" class="edge">
<title>SimpleMatrix&#45;&gt;CStaticMatrix</title>
<path fill="none" stroke="#000000" d="M1899.6243,-71.6556C1867.9904,-90.3842 1823,-124.9411 1823,-170 1823,-170 1823,-170 1823,-327.5 1823,-358.7053 1373.195,-375.5907 1196.2716,-381.0253"/>
<polygon fill="#000000" stroke="#000000" points="1195.9182,-377.5344 1186.0291,-381.3365 1196.1308,-384.5311 1195.9182,-377.5344"/>
</g>
<!-- SimpleMatrix&#45;&gt;CDenseMatrix -->
<g id="edge27" class="edge">
<title>SimpleMatrix&#45;&gt;CDenseMatrix</title>
<path fill="none" stroke="#000000" d="M1895.4855,-70.6651C1884.8839,-74.7691 1873.0868,-78.9392 1862,-82 1752.8275,-112.1402 1360,-56.7434 1360,-170 1360,-170 1360,-170 1360,-327.5 1360,-369.1077 653.1456,-358.8155 612,-365 606.577,-365.8151 600.9663,-366.8664 595.3849,-368.0512"/>
<polygon fill="#000000" stroke="#000000" points="594.3986,-364.6858 585.4172,-370.3057 595.943,-371.5133 594.3986,-364.6858"/>
</g>
</g>
</svg>
