<?xml version="1.0" encoding="UTF-8" standalone="no"?>
<!DOCTYPE svg PUBLIC "-//W3C//DTD SVG 1.1//EN"
 "http://www.w3.org/Graphics/SVG/1.1/DTD/svg11.dtd">
<!-- Generated by graphviz version 2.40.1 (20161225.0304)
 -->
<!-- Title: exampleNaive3DDSSComputer.cpp Pages: 1 -->
<svg width="3251pt" height="832pt"
 viewBox="0.00 0.00 3251.27 832.00" xmlns="http://www.w3.org/2000/svg" xmlns:xlink="http://www.w3.org/1999/xlink">
<g id="graph0" class="graph" transform="scale(1 1) rotate(0) translate(4 828)">
<title>exampleNaive3DDSSComputer.cpp</title>
<polygon fill="#ffffff" stroke="transparent" points="-4,4 -4,-828 3247.2716,-828 3247.2716,4 -4,4"/>
<!-- Node0 -->
<g id="node1" class="node">
<title>Node0</title>
<polygon fill="#bfbfbf" stroke="#000000" points="3068.3019,-805.5 3068.3019,-823.5 3243.2716,-823.5 3243.2716,-805.5 3068.3019,-805.5"/>
<text text-anchor="middle" x="3155.7868" y="-811.5" font-family="FreeSans" font-size="10.00" fill="#000000">exampleNaive3DDSSComputer.cpp</text>
</g>
<!-- Node1 -->
<g id="node2" class="node">
<title>Node1</title>
<polygon fill="#ffffff" stroke="#bfbfbf" points="2352.6144,-.5 2352.6144,-18.5 2406.9591,-18.5 2406.9591,-.5 2352.6144,-.5"/>
<text text-anchor="middle" x="2379.7868" y="-6.5" font-family="FreeSans" font-size="10.00" fill="#000000">iostream</text>
</g>
<!-- Node0&#45;&gt;Node1 -->
<g id="edge1" class="edge">
<title>Node0&#45;&gt;Node1</title>
<path fill="none" stroke="#191970" d="M3166.3542,-805.3227C3187.2369,-786.1069 3231.7868,-739.2795 3231.7868,-689.5 3231.7868,-689.5 3231.7868,-689.5 3231.7868,-119.5 3231.7868,-63.2093 3176.6007,-71.5137 3122.7868,-55 3055.1305,-34.2386 2559.2897,-15.6944 2417.5391,-10.7729"/>
<polygon fill="#191970" stroke="#191970" points="2417.3099,-7.263 2407.1952,-10.4162 2417.0686,-14.2588 2417.3099,-7.263"/>
</g>
<!-- Node2 -->
<g id="node3" class="node">
<title>Node2</title>
<g id="a_node3"><a xlink:href="Common_8h_source.html" target="_top" xlink:title="DGtal/base/Common.h">
<polygon fill="#ffffff" stroke="#000000" points="1215.9323,-230.5 1215.9323,-248.5 1333.6412,-248.5 1333.6412,-230.5 1215.9323,-230.5"/>
<text text-anchor="middle" x="1274.7868" y="-236.5" font-family="FreeSans" font-size="10.00" fill="#000000">DGtal/base/Common.h</text>
</a>
</g>
</g>
<!-- Node0&#45;&gt;Node2 -->
<g id="edge2" class="edge">
<title>Node0&#45;&gt;Node2</title>
<path fill="none" stroke="#191970" d="M3068.2003,-813.6953C2664.6455,-809.8714 994.2148,-792.7316 761.7868,-769 570.1808,-749.4364 335.7868,-882.1021 335.7868,-689.5 335.7868,-689.5 335.7868,-689.5 335.7868,-629.5 335.7868,-468.96 818.5398,-335.9308 970.7868,-285 1048.6894,-258.9394 1142.8194,-247.7682 1205.4961,-243.003"/>
<polygon fill="#191970" stroke="#191970" points="1205.9426,-246.4799 1215.6631,-242.2652 1205.4359,-239.4982 1205.9426,-246.4799"/>
</g>
<!-- Node29 -->
<g id="node22" class="node">
<title>Node29</title>
<g id="a_node22"><a xlink:href="BasicTypes_8h_source.html" target="_top" xlink:title="DGtal/base/BasicTypes.h">
<polygon fill="#ffffff" stroke="#000000" points="2727.6466,-170.5 2727.6466,-188.5 2855.9269,-188.5 2855.9269,-170.5 2727.6466,-170.5"/>
<text text-anchor="middle" x="2791.7868" y="-176.5" font-family="FreeSans" font-size="10.00" fill="#000000">DGtal/base/BasicTypes.h</text>
</a>
</g>
</g>
<!-- Node0&#45;&gt;Node29 -->
<g id="edge49" class="edge">
<title>Node0&#45;&gt;Node29</title>
<path fill="none" stroke="#191970" d="M3160.5995,-805.3818C3170.8247,-785.1331 3193.7868,-734.6372 3193.7868,-689.5 3193.7868,-689.5 3193.7868,-689.5 3193.7868,-369.5 3193.7868,-291.7267 2944.7312,-218.6728 2838.688,-191.0926"/>
<polygon fill="#191970" stroke="#191970" points="2839.4424,-187.6728 2828.8854,-188.5669 2837.6958,-194.4514 2839.4424,-187.6728"/>
</g>
<!-- Node42 -->
<g id="node29" class="node">
<title>Node42</title>
<g id="a_node29"><a xlink:href="StdDefs_8h_source.html" target="_top" xlink:title="DGtal/helpers/StdDefs.h">
<polygon fill="#ffffff" stroke="#000000" points="1764.8732,-620.5 1764.8732,-638.5 1888.7003,-638.5 1888.7003,-620.5 1764.8732,-620.5"/>
<text text-anchor="middle" x="1826.7868" y="-626.5" font-family="FreeSans" font-size="10.00" fill="#000000">DGtal/helpers/StdDefs.h</text>
</a>
</g>
</g>
<!-- Node0&#45;&gt;Node42 -->
<g id="edge50" class="edge">
<title>Node0&#45;&gt;Node42</title>
<path fill="none" stroke="#191970" d="M3090.7867,-805.4518C2867.5406,-774.3754 2133.0187,-672.1282 1899.0531,-639.5597"/>
<polygon fill="#191970" stroke="#191970" points="1899.3409,-636.066 1888.9538,-638.1538 1898.3757,-642.9992 1899.3409,-636.066"/>
</g>
<!-- Node161 -->
<g id="node46" class="node">
<title>Node161</title>
<g id="a_node46"><a xlink:href="Naive3DDSSComputer_8h_source.html" target="_top" xlink:title="DGtal/geometry/curves\l/Naive3DDSSComputer.h">
<polygon fill="#ffffff" stroke="#000000" points="771.0924,-740.5 771.0924,-768.5 900.4811,-768.5 900.4811,-740.5 771.0924,-740.5"/>
<text text-anchor="start" x="779.0924" y="-756.5" font-family="FreeSans" font-size="10.00" fill="#000000">DGtal/geometry/curves</text>
<text text-anchor="middle" x="835.7868" y="-746.5" font-family="FreeSans" font-size="10.00" fill="#000000">/Naive3DDSSComputer.h</text>
</a>
</g>
</g>
<!-- Node0&#45;&gt;Node161 -->
<g id="edge117" class="edge">
<title>Node0&#45;&gt;Node161</title>
<path fill="none" stroke="#191970" d="M3068.0242,-812.2303C2696.483,-802.6215 1256.3032,-765.3754 910.6654,-756.4365"/>
<polygon fill="#191970" stroke="#191970" points="910.6063,-752.9339 900.5191,-756.1741 910.4253,-759.9316 910.6063,-752.9339"/>
</g>
<!-- Node2&#45;&gt;Node1 -->
<g id="edge3" class="edge">
<title>Node2&#45;&gt;Node1</title>
<path fill="none" stroke="#191970" d="M1333.8816,-238.6923C1517.5156,-235.8663 2070.3948,-224.8621 2144.7868,-194 2166.0777,-185.1673 2280.0671,-68.4498 2298.7868,-55 2315.6495,-42.8844 2336.0357,-31.448 2352.1376,-23.0715"/>
<polygon fill="#191970" stroke="#191970" points="2353.7512,-26.1775 2361.064,-18.5111 2350.5665,-19.9438 2353.7512,-26.1775"/>
</g>
<!-- Node3 -->
<g id="node4" class="node">
<title>Node3</title>
<polygon fill="#ffffff" stroke="#bfbfbf" points="1380.3829,-170.5 1380.3829,-188.5 1439.1906,-188.5 1439.1906,-170.5 1380.3829,-170.5"/>
<text text-anchor="middle" x="1409.7868" y="-176.5" font-family="FreeSans" font-size="10.00" fill="#000000">exception</text>
</g>
<!-- Node2&#45;&gt;Node3 -->
<g id="edge4" class="edge">
<title>Node2&#45;&gt;Node3</title>
<path fill="none" stroke="#191970" d="M1295.2903,-230.3873C1317.9207,-220.3294 1354.5423,-204.0531 1380.2612,-192.6225"/>
<polygon fill="#191970" stroke="#191970" points="1381.8159,-195.7617 1389.5325,-188.5019 1378.9729,-189.365 1381.8159,-195.7617"/>
</g>
<!-- Node4 -->
<g id="node5" class="node">
<title>Node4</title>
<polygon fill="#ffffff" stroke="#bfbfbf" points="766.2228,-110.5 766.2228,-128.5 823.3507,-128.5 823.3507,-110.5 766.2228,-110.5"/>
<text text-anchor="middle" x="794.7868" y="-116.5" font-family="FreeSans" font-size="10.00" fill="#000000">algorithm</text>
</g>
<!-- Node2&#45;&gt;Node4 -->
<g id="edge5" class="edge">
<title>Node2&#45;&gt;Node4</title>
<path fill="none" stroke="#191970" d="M1215.8144,-238.4057C1091.4764,-235.4867 811.4681,-225.4562 782.7868,-194 769.0445,-178.9283 776.4553,-154.6345 784.3731,-137.9098"/>
<polygon fill="#191970" stroke="#191970" points="787.6912,-139.1137 789.184,-128.6246 781.4759,-135.8934 787.6912,-139.1137"/>
</g>
<!-- Node5 -->
<g id="node6" class="node">
<title>Node5</title>
<polygon fill="#ffffff" stroke="#bfbfbf" points="1457.3165,-170.5 1457.3165,-188.5 1552.257,-188.5 1552.257,-170.5 1457.3165,-170.5"/>
<text text-anchor="middle" x="1504.7868" y="-176.5" font-family="FreeSans" font-size="10.00" fill="#000000">boost/version.hpp</text>
</g>
<!-- Node2&#45;&gt;Node5 -->
<g id="edge6" class="edge">
<title>Node2&#45;&gt;Node5</title>
<path fill="none" stroke="#191970" d="M1309.7188,-230.3873C1350.0576,-219.8641 1416.4895,-202.5341 1460.441,-191.0685"/>
<polygon fill="#191970" stroke="#191970" points="1461.4869,-194.4128 1470.2796,-188.5019 1459.7199,-187.6395 1461.4869,-194.4128"/>
</g>
<!-- Node6 -->
<g id="node7" class="node">
<title>Node6</title>
<polygon fill="#ffffff" stroke="#bfbfbf" points="1570.0802,-170.5 1570.0802,-188.5 1699.4933,-188.5 1699.4933,-170.5 1570.0802,-170.5"/>
<text text-anchor="middle" x="1634.7868" y="-176.5" font-family="FreeSans" font-size="10.00" fill="#000000">boost/concept_check.hpp</text>
</g>
<!-- Node2&#45;&gt;Node6 -->
<g id="edge7" class="edge">
<title>Node2&#45;&gt;Node6</title>
<path fill="none" stroke="#191970" d="M1333.7726,-230.7453C1391.6727,-222.0035 1482.4471,-207.9022 1560.7868,-194 1566.9619,-192.9042 1573.4174,-191.7107 1579.8319,-190.4945"/>
<polygon fill="#191970" stroke="#191970" points="1580.6709,-193.8974 1589.832,-188.5754 1579.3516,-187.0228 1580.6709,-193.8974"/>
</g>
<!-- Node7 -->
<g id="node8" class="node">
<title>Node7</title>
<polygon fill="#ffffff" stroke="#bfbfbf" points="1717.3683,-170.5 1717.3683,-188.5 1836.2052,-188.5 1836.2052,-170.5 1717.3683,-170.5"/>
<text text-anchor="middle" x="1776.7868" y="-176.5" font-family="FreeSans" font-size="10.00" fill="#000000">boost/static_assert.hpp</text>
</g>
<!-- Node2&#45;&gt;Node7 -->
<g id="edge8" class="edge">
<title>Node2&#45;&gt;Node7</title>
<path fill="none" stroke="#191970" d="M1333.6593,-235.3115C1417.3602,-228.9069 1575.4109,-215.1511 1708.7868,-194 1714.9676,-193.0198 1721.4338,-191.842 1727.8163,-190.5867"/>
<polygon fill="#191970" stroke="#191970" points="1728.6244,-193.9941 1737.7242,-188.5677 1727.2266,-187.135 1728.6244,-193.9941"/>
</g>
<!-- Node8 -->
<g id="node9" class="node">
<title>Node8</title>
<polygon fill="#ffffff" stroke="#bfbfbf" points="1853.9176,-170.5 1853.9176,-188.5 1981.6559,-188.5 1981.6559,-170.5 1853.9176,-170.5"/>
<text text-anchor="middle" x="1917.7868" y="-176.5" font-family="FreeSans" font-size="10.00" fill="#000000">boost/concept/assert.hpp</text>
</g>
<!-- Node2&#45;&gt;Node8 -->
<g id="edge9" class="edge">
<title>Node2&#45;&gt;Node8</title>
<path fill="none" stroke="#191970" d="M1333.7015,-237.0612C1437.4119,-232.2642 1659.1867,-219.7515 1844.7868,-194 1851.914,-193.0111 1859.3947,-191.7663 1866.7379,-190.4238"/>
<polygon fill="#191970" stroke="#191970" points="1867.4486,-193.8515 1876.6201,-188.5472 1866.1426,-186.9743 1867.4486,-193.8515"/>
</g>
<!-- Node9 -->
<g id="node10" class="node">
<title>Node9</title>
<polygon fill="#ffffff" stroke="#bfbfbf" points="1999.4694,-170.5 1999.4694,-188.5 2136.1041,-188.5 2136.1041,-170.5 1999.4694,-170.5"/>
<text text-anchor="middle" x="2067.7868" y="-176.5" font-family="FreeSans" font-size="10.00" fill="#000000">boost/concept/requires.hpp</text>
</g>
<!-- Node2&#45;&gt;Node9 -->
<g id="edge10" class="edge">
<title>Node2&#45;&gt;Node9</title>
<path fill="none" stroke="#191970" d="M1333.9547,-238.1936C1456.7921,-234.9423 1748.2461,-224.4265 1990.7868,-194 1998.5687,-193.0238 2006.7512,-191.7518 2014.7589,-190.3667"/>
<polygon fill="#191970" stroke="#191970" points="2015.5435,-193.7818 2024.7653,-188.5657 2014.3035,-186.8925 2015.5435,-193.7818"/>
</g>
<!-- Node10 -->
<g id="node11" class="node">
<title>Node10</title>
<polygon fill="#ffffff" stroke="#bfbfbf" points="1025.6539,-165.5 1025.6539,-193.5 1133.9196,-193.5 1133.9196,-165.5 1025.6539,-165.5"/>
<text text-anchor="start" x="1033.6539" y="-181.5" font-family="FreeSans" font-size="10.00" fill="#000000">boost/iterator/iterator</text>
<text text-anchor="middle" x="1079.7868" y="-171.5" font-family="FreeSans" font-size="10.00" fill="#000000">_concepts.hpp</text>
</g>
<!-- Node2&#45;&gt;Node10 -->
<g id="edge11" class="edge">
<title>Node2&#45;&gt;Node10</title>
<path fill="none" stroke="#191970" d="M1245.1705,-230.3873C1216.0514,-221.4276 1170.8952,-207.5334 1135.1203,-196.5257"/>
<polygon fill="#191970" stroke="#191970" points="1135.887,-193.0997 1125.2998,-193.504 1133.8283,-199.7902 1135.887,-193.0997"/>
</g>
<!-- Node11 -->
<g id="node12" class="node">
<title>Node11</title>
<polygon fill="#ffffff" stroke="#bfbfbf" points="1152.1837,-170.5 1152.1837,-188.5 1299.3898,-188.5 1299.3898,-170.5 1152.1837,-170.5"/>
<text text-anchor="middle" x="1225.7868" y="-176.5" font-family="FreeSans" font-size="10.00" fill="#000000">boost/concept_archetype.hpp</text>
</g>
<!-- Node2&#45;&gt;Node11 -->
<g id="edge12" class="edge">
<title>Node2&#45;&gt;Node11</title>
<path fill="none" stroke="#191970" d="M1267.3447,-230.3873C1260.0776,-221.4888 1248.8355,-207.723 1239.8757,-196.7517"/>
<polygon fill="#191970" stroke="#191970" points="1242.3351,-194.2299 1233.2988,-188.6985 1236.9133,-198.6577 1242.3351,-194.2299"/>
</g>
<!-- Node12 -->
<g id="node13" class="node">
<title>Node12</title>
<polygon fill="#ffffff" stroke="#bfbfbf" points="2358.171,-110.5 2358.171,-128.5 2401.4025,-128.5 2401.4025,-110.5 2358.171,-110.5"/>
<text text-anchor="middle" x="2379.7868" y="-116.5" font-family="FreeSans" font-size="10.00" fill="#000000">cmath</text>
</g>
<!-- Node2&#45;&gt;Node12 -->
<g id="edge13" class="edge">
<title>Node2&#45;&gt;Node12</title>
<path fill="none" stroke="#191970" d="M1333.9446,-238.502C1550.7585,-234.6456 2291.5365,-219.6418 2334.7868,-194 2355.4426,-181.7538 2367.7944,-156.0026 2374.1921,-138.2326"/>
<polygon fill="#191970" stroke="#191970" points="2377.5531,-139.2161 2377.3582,-128.6231 2370.9046,-137.0256 2377.5531,-139.2161"/>
</g>
<!-- Node13 -->
<g id="node14" class="node">
<title>Node13</title>
<polygon fill="#ffffff" stroke="#bfbfbf" points="1317.0553,-170.5 1317.0553,-188.5 1362.5182,-188.5 1362.5182,-170.5 1317.0553,-170.5"/>
<text text-anchor="middle" x="1339.7868" y="-176.5" font-family="FreeSans" font-size="10.00" fill="#000000">stdio.h</text>
</g>
<!-- Node2&#45;&gt;Node13 -->
<g id="edge14" class="edge">
<title>Node2&#45;&gt;Node13</title>
<path fill="none" stroke="#191970" d="M1284.6589,-230.3873C1294.5852,-221.2245 1310.1024,-206.9009 1322.1483,-195.7817"/>
<polygon fill="#191970" stroke="#191970" points="1324.8477,-198.0531 1329.8217,-188.6985 1320.0997,-192.9095 1324.8477,-198.0531"/>
</g>
<!-- Node14 -->
<g id="node15" class="node">
<title>Node14</title>
<g id="a_node15"><a xlink:href="Config_8h_source.html" target="_top" xlink:title="DGtal/base/Config.h">
<polygon fill="#ffffff" stroke="#000000" points="337.7623,-55.5 337.7623,-73.5 443.8112,-73.5 443.8112,-55.5 337.7623,-55.5"/>
<text text-anchor="middle" x="390.7868" y="-61.5" font-family="FreeSans" font-size="10.00" fill="#000000">DGtal/base/Config.h</text>
</a>
</g>
</g>
<!-- Node2&#45;&gt;Node14 -->
<g id="edge15" class="edge">
<title>Node2&#45;&gt;Node14</title>
<path fill="none" stroke="#191970" d="M1215.9292,-234.4072C1160.6545,-228.4941 1076.1585,-216.5257 1005.7868,-194 924.3822,-167.9428 914.9948,-133.3991 832.7868,-110 763.3167,-90.2265 558.9703,-75.0349 454.2447,-68.3026"/>
<polygon fill="#191970" stroke="#191970" points="454.3249,-64.8007 444.1228,-67.6583 453.8802,-71.7865 454.3249,-64.8007"/>
</g>
<!-- Node16 -->
<g id="node17" class="node">
<title>Node16</title>
<g id="a_node17"><a xlink:href="Trace_8h_source.html" target="_top" xlink:title="DGtal/base/Trace.h">
<polygon fill="#ffffff" stroke="#ff0000" points="223.6178,-170.5 223.6178,-188.5 325.9557,-188.5 325.9557,-170.5 223.6178,-170.5"/>
<text text-anchor="middle" x="274.7868" y="-176.5" font-family="FreeSans" font-size="10.00" fill="#000000">DGtal/base/Trace.h</text>
</a>
</g>
</g>
<!-- Node2&#45;&gt;Node16 -->
<g id="edge18" class="edge">
<title>Node2&#45;&gt;Node16</title>
<path fill="none" stroke="#191970" d="M1215.7893,-237.4843C1075.8826,-232.4662 713.0632,-218.0558 410.7868,-194 386.3534,-192.0555 359.5123,-189.3217 336.1776,-186.7511"/>
<polygon fill="#191970" stroke="#191970" points="336.3942,-183.2537 326.0678,-185.6238 335.6183,-190.2105 336.3942,-183.2537"/>
</g>
<!-- Node23 -->
<g id="node18" class="node">
<title>Node23</title>
<g id="a_node18"><a xlink:href="TraceWriterTerm_8h_source.html" target="_top" xlink:title="DGtal/base/TraceWriterTerm.h">
<polygon fill="#ffffff" stroke="#ff0000" points="322.2648,-110.5 322.2648,-128.5 473.3087,-128.5 473.3087,-110.5 322.2648,-110.5"/>
<text text-anchor="middle" x="397.7868" y="-116.5" font-family="FreeSans" font-size="10.00" fill="#000000">DGtal/base/TraceWriterTerm.h</text>
</a>
</g>
</g>
<!-- Node2&#45;&gt;Node23 -->
<g id="edge29" class="edge">
<title>Node2&#45;&gt;Node23</title>
<path fill="none" stroke="#191970" d="M1215.5771,-236.2164C1121.149,-230.5169 930.778,-217.1316 770.7868,-194 653.209,-177.0005 516.6798,-147.1019 445.9007,-130.8288"/>
<polygon fill="#191970" stroke="#191970" points="446.4762,-127.3697 435.9451,-128.5299 444.9012,-134.1902 446.4762,-127.3697"/>
</g>
<!-- Node24 -->
<g id="node19" class="node">
<title>Node24</title>
<g id="a_node19"><a xlink:href="Assert_8h_source.html" target="_top" xlink:title="DGtal/base/Assert.h">
<polygon fill="#ffffff" stroke="#ff0000" points="122.0455,-110.5 122.0455,-128.5 227.528,-128.5 227.528,-110.5 122.0455,-110.5"/>
<text text-anchor="middle" x="174.7868" y="-116.5" font-family="FreeSans" font-size="10.00" fill="#000000">DGtal/base/Assert.h</text>
</a>
</g>
</g>
<!-- Node2&#45;&gt;Node24 -->
<g id="edge33" class="edge">
<title>Node2&#45;&gt;Node24</title>
<path fill="none" stroke="#191970" d="M1215.5859,-238.5724C998.6201,-234.965 257.3741,-220.7284 214.7868,-194 195.1191,-181.6563 184.4852,-156.1256 179.2299,-138.4155"/>
<polygon fill="#191970" stroke="#191970" points="182.5693,-137.3538 176.6202,-128.5869 175.8038,-139.1502 182.5693,-137.3538"/>
</g>
<!-- Node27 -->
<g id="node20" class="node">
<title>Node27</title>
<g id="a_node20"><a xlink:href="TraceWriterFile_8h_source.html" target="_top" xlink:title="DGtal/base/TraceWriterFile.h">
<polygon fill="#ffffff" stroke="#ff0000" points="137.319,-55.5 137.319,-73.5 282.2545,-73.5 282.2545,-55.5 137.319,-55.5"/>
<text text-anchor="middle" x="209.7868" y="-61.5" font-family="FreeSans" font-size="10.00" fill="#000000">DGtal/base/TraceWriterFile.h</text>
</a>
</g>
</g>
<!-- Node2&#45;&gt;Node27 -->
<g id="edge30" class="edge">
<title>Node2&#45;&gt;Node27</title>
<path fill="none" stroke="#191970" d="M1215.8082,-238.1211C996.0304,-232.8423 234.7966,-213.2464 186.7868,-194 140.6054,-175.4867 86.1016,-151.9924 112.7868,-110 122.8458,-94.1708 140.0284,-83.7524 157.1626,-76.938"/>
<polygon fill="#191970" stroke="#191970" points="158.4189,-80.2056 166.6312,-73.5116 156.0369,-73.6233 158.4189,-80.2056"/>
</g>
<!-- Node28 -->
<g id="node21" class="node">
<title>Node28</title>
<g id="a_node21"><a xlink:href="ConceptUtils_8h_source.html" target="_top" xlink:title="DGtal/base/ConceptUtils.h">
<polygon fill="#ffffff" stroke="#000000" points="2191.8707,-170.5 2191.8707,-188.5 2325.7028,-188.5 2325.7028,-170.5 2191.8707,-170.5"/>
<text text-anchor="middle" x="2258.7868" y="-176.5" font-family="FreeSans" font-size="10.00" fill="#000000">DGtal/base/ConceptUtils.h</text>
</a>
</g>
</g>
<!-- Node2&#45;&gt;Node28 -->
<g id="edge34" class="edge">
<title>Node2&#45;&gt;Node28</title>
<path fill="none" stroke="#191970" d="M1333.7392,-237.5081C1507.1025,-231.4953 2013.3512,-212.7841 2177.7868,-194 2186.2542,-193.0327 2195.1739,-191.7289 2203.8753,-190.2978"/>
<polygon fill="#191970" stroke="#191970" points="2204.684,-193.7103 2213.9494,-188.572 2203.502,-186.8108 2204.684,-193.7103"/>
</g>
<!-- Node2&#45;&gt;Node29 -->
<g id="edge36" class="edge">
<title>Node2&#45;&gt;Node29</title>
<path fill="none" stroke="#191970" d="M1333.7894,-237.1663C1570.795,-227.7924 2453.4187,-192.883 2716.9995,-182.458"/>
<polygon fill="#191970" stroke="#191970" points="2717.3753,-185.9459 2727.2291,-182.0534 2717.0986,-178.9514 2717.3753,-185.9459"/>
</g>
<!-- Node32 -->
<g id="node26" class="node">
<title>Node32</title>
<g id="a_node26"><a xlink:href="BasicFunctors_8h_source.html" target="_top" xlink:title="DGtal/base/BasicFunctors.h">
<polygon fill="#ffffff" stroke="#ff0000" points="791.5382,-170.5 791.5382,-188.5 932.0353,-188.5 932.0353,-170.5 791.5382,-170.5"/>
<text text-anchor="middle" x="861.7868" y="-176.5" font-family="FreeSans" font-size="10.00" fill="#000000">DGtal/base/BasicFunctors.h</text>
</a>
</g>
</g>
<!-- Node2&#45;&gt;Node32 -->
<g id="edge41" class="edge">
<title>Node2&#45;&gt;Node32</title>
<path fill="none" stroke="#191970" d="M1215.6703,-232.7536C1147.9481,-224.3122 1034.0762,-209.1201 936.7868,-194 929.2625,-192.8306 921.3696,-191.5456 913.6331,-190.2386"/>
<polygon fill="#191970" stroke="#191970" points="914.0451,-186.7582 903.5971,-188.5156 912.8607,-193.6572 914.0451,-186.7582"/>
</g>
<!-- Node40 -->
<g id="node27" class="node">
<title>Node40</title>
<g id="a_node27"><a xlink:href="BasicArchetypes_8h_source.html" target="_top" xlink:title="DGtal/base/BasicArchetypes.h">
<polygon fill="#ffffff" stroke="#000000" points="1452.9767,-55.5 1452.9767,-73.5 1604.5968,-73.5 1604.5968,-55.5 1452.9767,-55.5"/>
<text text-anchor="middle" x="1528.7868" y="-61.5" font-family="FreeSans" font-size="10.00" fill="#000000">DGtal/base/BasicArchetypes.h</text>
</a>
</g>
</g>
<!-- Node2&#45;&gt;Node40 -->
<g id="edge45" class="edge">
<title>Node2&#45;&gt;Node40</title>
<path fill="none" stroke="#191970" d="M1215.714,-237.5881C1147.5663,-233.9932 1041.6733,-223.6595 1016.7868,-194 1008.5021,-184.1264 1008.5976,-174.9529 1016.7868,-165 1069.7601,-100.6177 1311.2796,-76.8616 1442.8036,-68.5951"/>
<polygon fill="#191970" stroke="#191970" points="1443.0862,-72.0844 1452.8537,-67.9801 1442.6586,-65.0975 1443.0862,-72.0844"/>
</g>
<!-- Node41 -->
<g id="node28" class="node">
<title>Node41</title>
<g id="a_node28"><a xlink:href="Exceptions_8h_source.html" target="_top" xlink:title="DGtal/base/Exceptions.h">
<polygon fill="#ffffff" stroke="#000000" points="419.7575,-170.5 419.7575,-188.5 545.8161,-188.5 545.8161,-170.5 419.7575,-170.5"/>
<text text-anchor="middle" x="482.7868" y="-176.5" font-family="FreeSans" font-size="10.00" fill="#000000">DGtal/base/Exceptions.h</text>
</a>
</g>
</g>
<!-- Node2&#45;&gt;Node41 -->
<g id="edge47" class="edge">
<title>Node2&#45;&gt;Node41</title>
<path fill="none" stroke="#191970" d="M1215.9051,-235.0393C1073.8017,-224.2739 712.3078,-196.888 556.3045,-185.0695"/>
<polygon fill="#191970" stroke="#191970" points="556.1175,-181.5454 545.8817,-184.2799 555.5887,-188.5254 556.1175,-181.5454"/>
</g>
<!-- Node14&#45;&gt;Node1 -->
<g id="edge16" class="edge">
<title>Node14&#45;&gt;Node1</title>
<path fill="none" stroke="#191970" d="M444.117,-56.3638C448.7329,-55.8341 453.3375,-55.3668 457.7868,-55 843.5478,-23.1953 2107.9492,-11.6727 2342.2548,-9.7875"/>
<polygon fill="#191970" stroke="#191970" points="2342.3495,-13.2869 2352.3213,-9.7073 2342.2937,-6.2871 2342.3495,-13.2869"/>
</g>
<!-- Node15 -->
<g id="node16" class="node">
<title>Node15</title>
<polygon fill="#ffffff" stroke="#bfbfbf" points="89.5602,-.5 89.5602,-18.5 130.0133,-18.5 130.0133,-.5 89.5602,-.5"/>
<text text-anchor="middle" x="109.7868" y="-6.5" font-family="FreeSans" font-size="10.00" fill="#000000">string</text>
</g>
<!-- Node14&#45;&gt;Node15 -->
<g id="edge17" class="edge">
<title>Node14&#45;&gt;Node15</title>
<path fill="none" stroke="#191970" d="M344.7,-55.4795C286.9671,-44.1794 189.6495,-25.1315 140.3614,-15.4844"/>
<polygon fill="#191970" stroke="#191970" points="140.8083,-12.0055 130.3222,-13.5194 139.4636,-18.8751 140.8083,-12.0055"/>
</g>
<!-- Node16&#45;&gt;Node1 -->
<g id="edge19" class="edge">
<title>Node16&#45;&gt;Node1</title>
<path fill="none" stroke="#191970" d="M315.133,-170.482C373.6308,-157.2951 475.8227,-133.7928 482.7868,-129 515.6906,-106.3551 498.6571,-74.0095 533.7868,-55 575.0244,-32.6853 2083.403,-13.1469 2342.1896,-9.9554"/>
<polygon fill="#191970" stroke="#191970" points="2342.6032,-13.4507 2352.5594,-9.828 2342.5171,-6.4512 2342.6032,-13.4507"/>
</g>
<!-- Node16&#45;&gt;Node14 -->
<g id="edge21" class="edge">
<title>Node16&#45;&gt;Node14</title>
<path fill="none" stroke="#191970" d="M277.9269,-170.404C283.232,-156.1066 295.1444,-128.1384 312.7868,-110 325.9122,-96.5056 343.8855,-85.6598 359.2711,-77.9469"/>
<polygon fill="#191970" stroke="#191970" points="360.9409,-81.028 368.45,-73.5538 357.9188,-74.714 360.9409,-81.028"/>
</g>
<!-- Node16&#45;&gt;Node15 -->
<g id="edge20" class="edge">
<title>Node16&#45;&gt;Node15</title>
<path fill="none" stroke="#191970" d="M272.2195,-170.4316C267.5805,-155.6581 256.4143,-126.4015 236.7868,-110 197.9615,-77.5562 163.9272,-110.4026 128.7868,-74 117.1434,-61.9385 112.5842,-43.1117 110.8251,-28.9057"/>
<polygon fill="#191970" stroke="#191970" points="114.2923,-28.3772 109.9328,-18.7208 107.319,-28.9881 114.2923,-28.3772"/>
</g>
<!-- Node16&#45;&gt;Node23 -->
<g id="edge22" class="edge">
<title>Node16&#45;&gt;Node23</title>
<path fill="none" stroke="#191970" d="M293.4678,-170.3873C313.9049,-160.418 346.8659,-144.3394 370.264,-132.9257"/>
<polygon fill="#191970" stroke="#191970" points="371.8797,-136.0319 379.3329,-128.5019 368.8107,-129.7405 371.8797,-136.0319"/>
</g>
<!-- Node16&#45;&gt;Node24 -->
<g id="edge26" class="edge">
<title>Node16&#45;&gt;Node24</title>
<path fill="none" stroke="#191970" d="M254.5896,-170.3873C236.674,-160.8168 211.0378,-145.6159 193.5679,-134.3171"/>
<polygon fill="#191970" stroke="#191970" points="195.0712,-131.1142 184.8034,-128.5019 191.201,-136.9471 195.0712,-131.1142"/>
</g>
<!-- Node23&#45;&gt;Node1 -->
<g id="edge23" class="edge">
<title>Node23&#45;&gt;Node1</title>
<path fill="none" stroke="#191970" d="M407.3846,-110.4466C423.8994,-95.545 459.4346,-66.3694 495.7868,-55 587.0808,-26.4471 2084.1845,-12.0879 2342.099,-9.8206"/>
<polygon fill="#191970" stroke="#191970" points="2342.4688,-13.3176 2352.4378,-9.7304 2342.4076,-6.3179 2342.4688,-13.3176"/>
</g>
<!-- Node23&#45;&gt;Node14 -->
<g id="edge25" class="edge">
<title>Node23&#45;&gt;Node14</title>
<path fill="none" stroke="#191970" d="M396.6308,-110.4179C395.7143,-103.2164 394.4008,-92.8962 393.2512,-83.8632"/>
<polygon fill="#191970" stroke="#191970" points="396.7024,-83.2575 391.9678,-73.7795 389.7584,-84.1414 396.7024,-83.2575"/>
</g>
<!-- Node23&#45;&gt;Node15 -->
<g id="edge24" class="edge">
<title>Node23&#45;&gt;Node15</title>
<path fill="none" stroke="#191970" d="M383.9113,-110.4279C359.5362,-94.6118 309.8109,-62.9175 290.7868,-55 240.0095,-33.8674 176.9922,-20.7551 140.291,-14.3182"/>
<polygon fill="#191970" stroke="#191970" points="140.6743,-10.8332 130.2288,-12.6058 139.4998,-17.7339 140.6743,-10.8332"/>
</g>
<!-- Node24&#45;&gt;Node15 -->
<g id="edge28" class="edge">
<title>Node24&#45;&gt;Node15</title>
<path fill="none" stroke="#191970" d="M144.097,-110.389C126.6066,-103.4444 106.1632,-91.9507 95.7868,-74 87.6527,-59.9284 92.8304,-41.6487 99.0656,-28.1442"/>
<polygon fill="#191970" stroke="#191970" points="102.362,-29.3884 103.8369,-18.8967 96.1412,-26.1787 102.362,-29.3884"/>
</g>
<!-- Node24&#45;&gt;Node16 -->
<g id="edge27" class="edge">
<title>Node24&#45;&gt;Node16</title>
<path fill="none" stroke="#191970" d="M194.7764,-128.5019C212.6319,-138.0287 238.2696,-153.2227 255.8025,-164.5516"/>
<polygon fill="#191970" stroke="#191970" points="254.3391,-167.7806 264.6083,-170.3873 258.206,-161.9456 254.3391,-167.7806"/>
</g>
<!-- Node27&#45;&gt;Node1 -->
<g id="edge31" class="edge">
<title>Node27&#45;&gt;Node1</title>
<path fill="none" stroke="#191970" d="M282.429,-58.0331C297.7293,-56.8584 313.7803,-55.7648 328.7868,-55 742.8052,-33.8992 2099.8073,-13.5504 2342.4738,-10.0339"/>
<polygon fill="#191970" stroke="#191970" points="2342.6025,-13.5325 2352.5508,-9.8883 2342.5013,-6.5332 2342.6025,-13.5325"/>
</g>
<!-- Node27&#45;&gt;Node15 -->
<g id="edge32" class="edge">
<title>Node27&#45;&gt;Node15</title>
<path fill="none" stroke="#191970" d="M193.2738,-55.4179C177.4957,-46.7399 153.4839,-33.5334 135.2553,-23.5077"/>
<polygon fill="#191970" stroke="#191970" points="136.7732,-20.3481 126.3243,-18.5956 133.3997,-26.4816 136.7732,-20.3481"/>
</g>
<!-- Node28&#45;&gt;Node1 -->
<g id="edge35" class="edge">
<title>Node28&#45;&gt;Node1</title>
<path fill="none" stroke="#191970" d="M2261.1496,-170.4822C2267.2098,-148.6828 2285.0297,-92.186 2315.7868,-55 2326.1348,-42.489 2340.7057,-31.7714 2353.3309,-23.8862"/>
<polygon fill="#191970" stroke="#191970" points="2355.297,-26.7888 2362.0919,-18.6599 2351.7108,-20.7772 2355.297,-26.7888"/>
</g>
<!-- Node29&#45;&gt;Node1 -->
<g id="edge38" class="edge">
<title>Node29&#45;&gt;Node1</title>
<path fill="none" stroke="#191970" d="M2756.8978,-170.4834C2732.2739,-162.722 2699.7163,-149.4826 2676.7868,-129 2648.4185,-103.6592 2664.9467,-76.8168 2633.7868,-55 2599.3556,-30.8929 2478.9332,-17.6804 2417.0792,-12.3433"/>
<polygon fill="#191970" stroke="#191970" points="2417.2176,-8.8428 2406.9603,-11.4955 2416.6331,-15.8183 2417.2176,-8.8428"/>
</g>
<!-- Node20 -->
<g id="node23" class="node">
<title>Node20</title>
<polygon fill="#ffffff" stroke="#bfbfbf" points="2685.6144,-110.5 2685.6144,-128.5 2729.9591,-128.5 2729.9591,-110.5 2685.6144,-110.5"/>
<text text-anchor="middle" x="2707.7868" y="-116.5" font-family="FreeSans" font-size="10.00" fill="#000000">cstdlib</text>
</g>
<!-- Node29&#45;&gt;Node20 -->
<g id="edge37" class="edge">
<title>Node29&#45;&gt;Node20</title>
<path fill="none" stroke="#191970" d="M2779.029,-170.3873C2765.6302,-160.8168 2744.3491,-145.6159 2728.5306,-134.3171"/>
<polygon fill="#191970" stroke="#191970" points="2730.5611,-131.4662 2720.3894,-128.5019 2726.4924,-137.1624 2730.5611,-131.4662"/>
</g>
<!-- Node30 -->
<g id="node24" class="node">
<title>Node30</title>
<polygon fill="#ffffff" stroke="#bfbfbf" points="2747.984,-110.5 2747.984,-128.5 2839.5895,-128.5 2839.5895,-110.5 2747.984,-110.5"/>
<text text-anchor="middle" x="2793.7868" y="-116.5" font-family="FreeSans" font-size="10.00" fill="#000000">boost/cstdint.hpp</text>
</g>
<!-- Node29&#45;&gt;Node30 -->
<g id="edge39" class="edge">
<title>Node29&#45;&gt;Node30</title>
<path fill="none" stroke="#191970" d="M2792.0905,-170.3873C2792.3695,-162.0174 2792.792,-149.3414 2793.1456,-138.735"/>
<polygon fill="#191970" stroke="#191970" points="2796.645,-138.8096 2793.4801,-128.6985 2789.6488,-138.5763 2796.645,-138.8096"/>
</g>
<!-- Node31 -->
<g id="node25" class="node">
<title>Node31</title>
<polygon fill="#ffffff" stroke="#bfbfbf" points="2857.8903,-110.5 2857.8903,-128.5 2911.6832,-128.5 2911.6832,-110.5 2857.8903,-110.5"/>
<text text-anchor="middle" x="2884.7868" y="-116.5" font-family="FreeSans" font-size="10.00" fill="#000000">gmpxx.h</text>
</g>
<!-- Node29&#45;&gt;Node31 -->
<g id="edge40" class="edge">
<title>Node29&#45;&gt;Node31</title>
<path fill="none" stroke="#191970" d="M2805.9115,-170.3873C2820.8831,-160.7281 2844.7441,-145.334 2862.3052,-134.0042"/>
<polygon fill="#191970" stroke="#191970" points="2864.3283,-136.8642 2870.8338,-128.5019 2860.5334,-130.9821 2864.3283,-136.8642"/>
</g>
<!-- Node32&#45;&gt;Node2 -->
<g id="edge44" class="edge">
<title>Node32&#45;&gt;Node2</title>
<path fill="none" stroke="#191970" d="M921.1623,-188.5156C932.3813,-190.3971 943.9654,-192.3182 954.7868,-194 1041.1864,-207.4277 1140.6641,-220.9122 1205.5421,-229.6749"/>
<polygon fill="#191970" stroke="#191970" points="1205.2717,-233.1701 1215.6502,-231.04 1206.2086,-226.233 1205.2717,-233.1701"/>
</g>
<!-- Node32&#45;&gt;Node4 -->
<g id="edge42" class="edge">
<title>Node32&#45;&gt;Node4</title>
<path fill="none" stroke="#191970" d="M851.6109,-170.3873C841.2807,-161.1364 825.0763,-146.625 812.6108,-135.4618"/>
<polygon fill="#191970" stroke="#191970" points="814.8428,-132.7624 805.0584,-128.6985 810.173,-137.977 814.8428,-132.7624"/>
</g>
<!-- Node32&#45;&gt;Node12 -->
<g id="edge43" class="edge">
<title>Node32&#45;&gt;Node12</title>
<path fill="none" stroke="#191970" d="M932.3193,-172.003C958.783,-169.4268 989.1394,-166.7531 1016.7868,-165 1548.1364,-131.3081 2197.6947,-121.6988 2347.8006,-119.8601"/>
<polygon fill="#191970" stroke="#191970" points="2348.1645,-123.3561 2358.1218,-119.7364 2348.0805,-116.3566 2348.1645,-123.3561"/>
</g>
<!-- Node40&#45;&gt;Node1 -->
<g id="edge46" class="edge">
<title>Node40&#45;&gt;Node1</title>
<path fill="none" stroke="#191970" d="M1604.6814,-59.5949C1780.8081,-48.2119 2212.1751,-20.3327 2342.1318,-11.9336"/>
<polygon fill="#191970" stroke="#191970" points="2342.6116,-15.41 2352.3651,-11.2723 2342.1601,-8.4246 2342.6116,-15.41"/>
</g>
<!-- Node41&#45;&gt;Node1 -->
<g id="edge48" class="edge">
<title>Node41&#45;&gt;Node1</title>
<path fill="none" stroke="#191970" d="M517.4499,-170.4365C542.4139,-162.5932 575.7873,-149.2727 599.7868,-129 629.7341,-103.7029 613.5892,-74.1655 647.7868,-55 686.045,-33.5588 2092.8136,-13.4117 2342.192,-10.0048"/>
<polygon fill="#191970" stroke="#191970" points="2342.5869,-13.4999 2352.5383,-9.864 2342.4915,-6.5005 2342.5869,-13.4999"/>
</g>
<!-- Node42&#45;&gt;Node1 -->
<g id="edge51" class="edge">
<title>Node42&#45;&gt;Node1</title>
<path fill="none" stroke="#191970" d="M1889.0304,-628.3478C2076.6924,-624.603 2635.0663,-611.4023 2814.7868,-584 2952.421,-563.0147 3117.7868,-643.7248 3117.7868,-504.5 3117.7868,-504.5 3117.7868,-504.5 3117.7868,-119.5 3117.7868,-80.6492 3093.7967,-71.843 3058.7868,-55 3000.8673,-27.1354 2550.8053,-13.7663 2417.1138,-10.383"/>
<polygon fill="#191970" stroke="#191970" points="2417.0465,-6.8803 2406.9623,-10.13 2416.872,-13.8782 2417.0465,-6.8803"/>
</g>
<!-- Node42&#45;&gt;Node2 -->
<g id="edge52" class="edge">
<title>Node42&#45;&gt;Node2</title>
<path fill="none" stroke="#191970" d="M1764.6715,-628.3072C1579.7985,-624.4568 1044.3181,-611.0095 1018.7868,-584 924.5214,-484.2771 988.1324,-370.095 1095.7868,-285 1113.4647,-271.0265 1165.6879,-258.6815 1209.1949,-250.3889"/>
<polygon fill="#191970" stroke="#191970" points="1209.994,-253.8003 1219.1827,-248.526 1208.7104,-246.919 1209.994,-253.8003"/>
</g>
<!-- Node43 -->
<g id="node30" class="node">
<title>Node43</title>
<g id="a_node30"><a xlink:href="SpaceND_8h_source.html" target="_top" xlink:title="DGtal/kernel/SpaceND.h">
<polygon fill="#ffffff" stroke="#000000" points="1307.0407,-360.5 1307.0407,-378.5 1432.5328,-378.5 1432.5328,-360.5 1307.0407,-360.5"/>
<text text-anchor="middle" x="1369.7868" y="-366.5" font-family="FreeSans" font-size="10.00" fill="#000000">DGtal/kernel/SpaceND.h</text>
</a>
</g>
</g>
<!-- Node42&#45;&gt;Node43 -->
<g id="edge53" class="edge">
<title>Node42&#45;&gt;Node43</title>
<path fill="none" stroke="#191970" d="M1805.9398,-620.4329C1785.5971,-611.4871 1753.8474,-597.2639 1726.7868,-584 1615.3942,-529.4003 1584.2443,-520.9182 1479.7868,-454 1445.9251,-432.3074 1409.4339,-402.9597 1388.1523,-385.1745"/>
<polygon fill="#191970" stroke="#191970" points="1390.1713,-382.2989 1380.2687,-378.5319 1385.6608,-387.652 1390.1713,-382.2989"/>
</g>
<!-- Node65 -->
<g id="node34" class="node">
<title>Node65</title>
<g id="a_node34"><a xlink:href="HyperRectDomain_8h_source.html" target="_top" xlink:title="DGtal/kernel/domains\l/HyperRectDomain.h">
<polygon fill="#ffffff" stroke="#ff0000" points="2977.7106,-285.5 2977.7106,-313.5 3089.8629,-313.5 3089.8629,-285.5 2977.7106,-285.5"/>
<text text-anchor="start" x="2985.7106" y="-301.5" font-family="FreeSans" font-size="10.00" fill="#000000">DGtal/kernel/domains</text>
<text text-anchor="middle" x="3033.7868" y="-291.5" font-family="FreeSans" font-size="10.00" fill="#000000">/HyperRectDomain.h</text>
</a>
</g>
</g>
<!-- Node42&#45;&gt;Node65 -->
<g id="edge66" class="edge">
<title>Node42&#45;&gt;Node65</title>
<path fill="none" stroke="#191970" d="M1888.8732,-627.7751C2055.7422,-622.8729 2511.3055,-607.6658 2659.7868,-584 2794.7306,-562.4919 2956.7868,-641.1472 2956.7868,-504.5 2956.7868,-504.5 2956.7868,-504.5 2956.7868,-439.5 2956.7868,-392.9436 2989.8832,-347.2575 3012.6793,-321.3116"/>
<polygon fill="#191970" stroke="#191970" points="3015.5417,-323.3653 3019.6638,-313.6052 3010.3549,-318.6645 3015.5417,-323.3653"/>
</g>
<!-- Node87 -->
<g id="node35" class="node">
<title>Node87</title>
<g id="a_node35"><a xlink:href="DigitalSetSelector_8h_source.html" target="_top" xlink:title="DGtal/kernel/sets/Digital\lSetSelector.h">
<polygon fill="#ffffff" stroke="#ff0000" points="2392.1564,-285.5 2392.1564,-313.5 2515.4171,-313.5 2515.4171,-285.5 2392.1564,-285.5"/>
<text text-anchor="start" x="2400.1564" y="-301.5" font-family="FreeSans" font-size="10.00" fill="#000000">DGtal/kernel/sets/Digital</text>
<text text-anchor="middle" x="2453.7868" y="-291.5" font-family="FreeSans" font-size="10.00" fill="#000000">SetSelector.h</text>
</a>
</g>
</g>
<!-- Node42&#45;&gt;Node87 -->
<g id="edge69" class="edge">
<title>Node42&#45;&gt;Node87</title>
<path fill="none" stroke="#191970" d="M1888.9343,-627.1099C2087.8273,-618.644 2695.7868,-586.0928 2695.7868,-504.5 2695.7868,-504.5 2695.7868,-504.5 2695.7868,-439.5 2695.7868,-359.9969 2596.7169,-324.9173 2525.3525,-309.9613"/>
<polygon fill="#191970" stroke="#191970" points="2525.9727,-306.516 2515.4797,-307.982 2524.5966,-313.3795 2525.9727,-306.516"/>
</g>
<!-- Node100 -->
<g id="node36" class="node">
<title>Node100</title>
<g id="a_node36"><a xlink:href="DigitalTopology_8h_source.html" target="_top" xlink:title="DGtal/topology/DigitalTopology.h">
<polygon fill="#ffffff" stroke="#ff0000" points="2761.6139,-290.5 2761.6139,-308.5 2921.9596,-308.5 2921.9596,-290.5 2761.6139,-290.5"/>
<text text-anchor="middle" x="2841.7868" y="-296.5" font-family="FreeSans" font-size="10.00" fill="#000000">DGtal/topology/DigitalTopology.h</text>
</a>
</g>
</g>
<!-- Node42&#45;&gt;Node100 -->
<g id="edge72" class="edge">
<title>Node42&#45;&gt;Node100</title>
<path fill="none" stroke="#191970" d="M1888.8336,-628.1402C2104.2576,-622.6078 2806.7868,-597.4409 2806.7868,-504.5 2806.7868,-504.5 2806.7868,-504.5 2806.7868,-439.5 2806.7868,-395.0201 2823.6203,-344.9006 2833.9389,-318.3568"/>
<polygon fill="#191970" stroke="#191970" points="2837.2961,-319.3885 2837.7718,-308.8044 2830.7996,-316.7818 2837.2961,-319.3885"/>
</g>
<!-- Node107 -->
<g id="node37" class="node">
<title>Node107</title>
<g id="a_node37"><a xlink:href="MetricAdjacency_8h_source.html" target="_top" xlink:title="DGtal/topology/MetricAdjacency.h">
<polygon fill="#ffffff" stroke="#ff0000" points="1488.8429,-430.5 1488.8429,-448.5 1654.7306,-448.5 1654.7306,-430.5 1488.8429,-430.5"/>
<text text-anchor="middle" x="1571.7868" y="-436.5" font-family="FreeSans" font-size="10.00" fill="#000000">DGtal/topology/MetricAdjacency.h</text>
</a>
</g>
</g>
<!-- Node42&#45;&gt;Node107 -->
<g id="edge75" class="edge">
<title>Node42&#45;&gt;Node107</title>
<path fill="none" stroke="#191970" d="M1814.4876,-620.3359C1773.7559,-589.9868 1642.9755,-492.5426 1592.2053,-454.7138"/>
<polygon fill="#191970" stroke="#191970" points="1594.0726,-451.7404 1583.9625,-448.5721 1589.8902,-457.3536 1594.0726,-451.7404"/>
</g>
<!-- Node110 -->
<g id="node38" class="node">
<title>Node110</title>
<g id="a_node38"><a xlink:href="Object_8h_source.html" target="_top" xlink:title="DGtal/topology/Object.h">
<polygon fill="#ffffff" stroke="#ff0000" points="1633.7033,-360.5 1633.7033,-378.5 1755.8703,-378.5 1755.8703,-360.5 1633.7033,-360.5"/>
<text text-anchor="middle" x="1694.7868" y="-366.5" font-family="FreeSans" font-size="10.00" fill="#000000">DGtal/topology/Object.h</text>
</a>
</g>
</g>
<!-- Node42&#45;&gt;Node110 -->
<g id="edge79" class="edge">
<title>Node42&#45;&gt;Node110</title>
<path fill="none" stroke="#191970" d="M1828.8285,-620.3011C1835.1231,-589.4602 1851.2909,-488.1216 1807.7868,-425 1793.0269,-403.5844 1767.572,-390.0862 1744.5546,-381.7721"/>
<polygon fill="#191970" stroke="#191970" points="1745.4715,-378.3879 1734.8774,-378.5184 1743.2405,-385.0229 1745.4715,-378.3879"/>
</g>
<!-- Node119 -->
<g id="node39" class="node">
<title>Node119</title>
<g id="a_node39"><a xlink:href="KhalimskySpaceND_8h_source.html" target="_top" xlink:title="DGtal/topology/Khalimsky\lSpaceND.h">
<polygon fill="#ffffff" stroke="#ff0000" points="1103.5407,-490.5 1103.5407,-518.5 1234.0328,-518.5 1234.0328,-490.5 1103.5407,-490.5"/>
<text text-anchor="start" x="1111.5407" y="-506.5" font-family="FreeSans" font-size="10.00" fill="#000000">DGtal/topology/Khalimsky</text>
<text text-anchor="middle" x="1168.7868" y="-496.5" font-family="FreeSans" font-size="10.00" fill="#000000">SpaceND.h</text>
</a>
</g>
</g>
<!-- Node42&#45;&gt;Node119 -->
<g id="edge84" class="edge">
<title>Node42&#45;&gt;Node119</title>
<path fill="none" stroke="#191970" d="M1764.8652,-626.8518C1682.6844,-622.4096 1533.4371,-611.1095 1408.7868,-584 1338.7667,-568.7717 1260.4504,-540.6355 1212.894,-522.2473"/>
<polygon fill="#191970" stroke="#191970" points="1214.1042,-518.9625 1203.5158,-518.593 1211.5627,-525.4849 1214.1042,-518.9625"/>
</g>
<!-- Node120 -->
<g id="node40" class="node">
<title>Node120</title>
<g id="a_node40"><a xlink:href="KhalimskyPreSpaceND_8h_source.html" target="_top" xlink:title="DGtal/topology/Khalimsky\lPreSpaceND.h">
<polygon fill="#ffffff" stroke="#ff0000" points="1188.5407,-425.5 1188.5407,-453.5 1319.0328,-453.5 1319.0328,-425.5 1188.5407,-425.5"/>
<text text-anchor="start" x="1196.5407" y="-441.5" font-family="FreeSans" font-size="10.00" fill="#000000">DGtal/topology/Khalimsky</text>
<text text-anchor="middle" x="1253.7868" y="-431.5" font-family="FreeSans" font-size="10.00" fill="#000000">PreSpaceND.h</text>
</a>
</g>
</g>
<!-- Node42&#45;&gt;Node120 -->
<g id="edge97" class="edge">
<title>Node42&#45;&gt;Node120</title>
<path fill="none" stroke="#191970" d="M1764.7201,-625.9759C1672.227,-620.0669 1503.0706,-606.5406 1446.7868,-584 1375.5593,-555.4748 1307.3824,-493.7138 1274.4061,-460.9379"/>
<polygon fill="#191970" stroke="#191970" points="1276.6985,-458.2791 1267.1704,-453.6461 1271.7297,-463.2097 1276.6985,-458.2791"/>
</g>
<!-- Node123 -->
<g id="node41" class="node">
<title>Node123</title>
<g id="a_node41"><a xlink:href="GridCurve_8h_source.html" target="_top" xlink:title="Header file for module GridCurve.cpp. ">
<polygon fill="#ffffff" stroke="#ff0000" points="1027.6588,-555.5 1027.6588,-583.5 1145.9147,-583.5 1145.9147,-555.5 1027.6588,-555.5"/>
<text text-anchor="start" x="1035.6588" y="-571.5" font-family="FreeSans" font-size="10.00" fill="#000000">DGtal/geometry/curves</text>
<text text-anchor="middle" x="1086.7868" y="-561.5" font-family="FreeSans" font-size="10.00" fill="#000000">/GridCurve.h</text>
</a>
</g>
</g>
<!-- Node42&#45;&gt;Node123 -->
<g id="edge98" class="edge">
<title>Node42&#45;&gt;Node123</title>
<path fill="none" stroke="#191970" d="M1764.6504,-624.4619C1627.4752,-613.3396 1299.5736,-586.753 1156.05,-575.1159"/>
<polygon fill="#191970" stroke="#191970" points="1156.2903,-571.624 1146.0401,-574.3043 1155.7245,-578.6011 1156.2903,-571.624"/>
</g>
<!-- Node154 -->
<g id="node44" class="node">
<title>Node154</title>
<g id="a_node44"><a xlink:href="ExactPredicateLpSeparableMetric_8h_source.html" target="_top" xlink:title="DGtal/geometry/volumes\l/distance/ExactPredicateLpSeparable\lMetric.h">
<polygon fill="#ffffff" stroke="#ff0000" points="1773.4005,-350.5 1773.4005,-388.5 1956.173,-388.5 1956.173,-350.5 1773.4005,-350.5"/>
<text text-anchor="start" x="1781.4005" y="-376.5" font-family="FreeSans" font-size="10.00" fill="#000000">DGtal/geometry/volumes</text>
<text text-anchor="start" x="1781.4005" y="-366.5" font-family="FreeSans" font-size="10.00" fill="#000000">/distance/ExactPredicateLpSeparable</text>
<text text-anchor="middle" x="1864.7868" y="-356.5" font-family="FreeSans" font-size="10.00" fill="#000000">Metric.h</text>
</a>
</g>
</g>
<!-- Node42&#45;&gt;Node154 -->
<g id="edge107" class="edge">
<title>Node42&#45;&gt;Node154</title>
<path fill="none" stroke="#191970" d="M1830.2024,-620.2224C1833.419,-611.1204 1838.129,-596.785 1840.7868,-584 1854.3688,-518.6645 1860.6684,-440.4278 1863.2449,-398.8569"/>
<polygon fill="#191970" stroke="#191970" points="1866.7534,-398.8151 1863.849,-388.6261 1859.7656,-398.4024 1866.7534,-398.8151"/>
</g>
<!-- Node159 -->
<g id="node45" class="node">
<title>Node159</title>
<g id="a_node45"><a xlink:href="ExactPredicateLpPowerSeparableMetric_8h_source.html" target="_top" xlink:title="DGtal/geometry/volumes\l/distance/ExactPredicateLpPower\lSeparableMetric.h">
<polygon fill="#ffffff" stroke="#ff0000" points="1974.0236,-350.5 1974.0236,-388.5 2139.5499,-388.5 2139.5499,-350.5 1974.0236,-350.5"/>
<text text-anchor="start" x="1982.0236" y="-376.5" font-family="FreeSans" font-size="10.00" fill="#000000">DGtal/geometry/volumes</text>
<text text-anchor="start" x="1982.0236" y="-366.5" font-family="FreeSans" font-size="10.00" fill="#000000">/distance/ExactPredicateLpPower</text>
<text text-anchor="middle" x="2056.7868" y="-356.5" font-family="FreeSans" font-size="10.00" fill="#000000">SeparableMetric.h</text>
</a>
</g>
</g>
<!-- Node42&#45;&gt;Node159 -->
<g id="edge112" class="edge">
<title>Node42&#45;&gt;Node159</title>
<path fill="none" stroke="#191970" d="M1834.9726,-620.2465C1866.7669,-584.305 1982.7879,-453.1509 2033.1698,-396.1975"/>
<polygon fill="#191970" stroke="#191970" points="2035.8234,-398.4802 2039.8276,-388.6712 2030.5804,-393.8422 2035.8234,-398.4802"/>
</g>
<!-- Node43&#45;&gt;Node1 -->
<g id="edge54" class="edge">
<title>Node43&#45;&gt;Node1</title>
<path fill="none" stroke="#191970" d="M1432.9202,-364.9189C1661.1185,-347.5298 2429.7868,-281.3936 2429.7868,-179.5 2429.7868,-179.5 2429.7868,-179.5 2429.7868,-119.5 2429.7868,-84.0496 2407.9985,-47.4684 2393.1879,-26.6974"/>
<polygon fill="#191970" stroke="#191970" points="2395.9306,-24.52 2387.1644,-18.5698 2390.3067,-28.6879 2395.9306,-24.52"/>
</g>
<!-- Node43&#45;&gt;Node2 -->
<g id="edge55" class="edge">
<title>Node43&#45;&gt;Node2</title>
<path fill="none" stroke="#191970" d="M1362.9546,-360.1507C1347.2066,-338.6008 1308.146,-285.1495 1287.7121,-257.1873"/>
<polygon fill="#191970" stroke="#191970" points="1290.2831,-254.7734 1281.557,-248.7646 1284.6313,-258.9036 1290.2831,-254.7734"/>
</g>
<!-- Node44 -->
<g id="node31" class="node">
<title>Node44</title>
<g id="a_node31"><a xlink:href="CInteger_8h_source.html" target="_top" xlink:title="DGtal/kernel/CInteger.h">
<polygon fill="#ffffff" stroke="#ff0000" points="1338.5358,-290.5 1338.5358,-308.5 1459.0377,-308.5 1459.0377,-290.5 1338.5358,-290.5"/>
<text text-anchor="middle" x="1398.7868" y="-296.5" font-family="FreeSans" font-size="10.00" fill="#000000">DGtal/kernel/CInteger.h</text>
</a>
</g>
</g>
<!-- Node43&#45;&gt;Node44 -->
<g id="edge56" class="edge">
<title>Node43&#45;&gt;Node44</title>
<path fill="none" stroke="#191970" d="M1373.578,-360.3487C1377.9824,-349.7174 1385.3652,-331.8968 1391.0061,-318.2808"/>
<polygon fill="#191970" stroke="#191970" points="1394.3081,-319.4551 1394.902,-308.8769 1387.8411,-316.7759 1394.3081,-319.4551"/>
</g>
<!-- Node57 -->
<g id="node32" class="node">
<title>Node57</title>
<g id="a_node32"><a xlink:href="PointVector_8h_source.html" target="_top" xlink:title="DGtal/kernel/PointVector.h">
<polygon fill="#ffffff" stroke="#ff0000" points="602.1393,-290.5 602.1393,-308.5 735.4342,-308.5 735.4342,-290.5 602.1393,-290.5"/>
<text text-anchor="middle" x="668.7868" y="-296.5" font-family="FreeSans" font-size="10.00" fill="#000000">DGtal/kernel/PointVector.h</text>
</a>
</g>
</g>
<!-- Node43&#45;&gt;Node57 -->
<g id="edge60" class="edge">
<title>Node43&#45;&gt;Node57</title>
<path fill="none" stroke="#191970" d="M1306.9608,-363.2264C1178.3606,-350.3847 885.4971,-321.1401 745.7529,-307.1856"/>
<polygon fill="#191970" stroke="#191970" points="745.8526,-303.6783 735.5543,-306.1672 745.157,-310.6436 745.8526,-303.6783"/>
</g>
<!-- Node44&#45;&gt;Node1 -->
<g id="edge57" class="edge">
<title>Node44&#45;&gt;Node1</title>
<path fill="none" stroke="#191970" d="M1459.2639,-296.8765C1656.397,-287.7596 2271.383,-254.6538 2334.7868,-194 2362.1361,-167.8369 2340.0781,-146.8328 2348.7868,-110 2355.6283,-81.064 2366.3096,-48.2751 2373.1773,-28.2436"/>
<polygon fill="#191970" stroke="#191970" points="2376.5753,-29.1277 2376.5517,-18.5329 2369.9631,-26.83 2376.5753,-29.1277"/>
</g>
<!-- Node44&#45;&gt;Node2 -->
<g id="edge58" class="edge">
<title>Node44&#45;&gt;Node2</title>
<path fill="none" stroke="#191970" d="M1379.9538,-290.3873C1359.3506,-280.418 1326.1216,-264.3394 1302.5332,-252.9257"/>
<polygon fill="#191970" stroke="#191970" points="1303.9167,-249.707 1293.3906,-248.5019 1300.8677,-256.0081 1303.9167,-249.707"/>
</g>
<!-- Node44&#45;&gt;Node28 -->
<g id="edge59" class="edge">
<title>Node44&#45;&gt;Node28</title>
<path fill="none" stroke="#191970" d="M1459.5194,-292.1678C1590.823,-276.1196 1910.8371,-235.9507 2177.7868,-194 2185.1464,-192.8434 2192.8688,-191.5564 2200.5007,-190.24"/>
<polygon fill="#191970" stroke="#191970" points="2201.1961,-193.6716 2210.4436,-188.5011 2199.9901,-186.7763 2201.1961,-193.6716"/>
</g>
<!-- Node57&#45;&gt;Node1 -->
<g id="edge61" class="edge">
<title>Node57&#45;&gt;Node1</title>
<path fill="none" stroke="#191970" d="M667.4262,-290.465C662.495,-253.9202 649.5366,-116.0943 723.7868,-55 756.0996,-28.4125 2098.9709,-12.5554 2342.2129,-9.8986"/>
<polygon fill="#191970" stroke="#191970" points="2342.3628,-13.3973 2352.3241,-9.7889 2342.2867,-6.3977 2342.3628,-13.3973"/>
</g>
<!-- Node57&#45;&gt;Node2 -->
<g id="edge65" class="edge">
<title>Node57&#45;&gt;Node2</title>
<path fill="none" stroke="#191970" d="M735.6635,-292.8785C851.4474,-281.4148 1088.0879,-257.985 1205.5152,-246.3586"/>
<polygon fill="#191970" stroke="#191970" points="1206.2086,-249.8071 1215.8151,-245.3388 1205.5188,-242.8412 1206.2086,-249.8071"/>
</g>
<!-- Node57&#45;&gt;Node4 -->
<g id="edge63" class="edge">
<title>Node57&#45;&gt;Node4</title>
<path fill="none" stroke="#191970" d="M675.2083,-290.3263C695.0878,-261.9271 755.864,-175.104 782.2935,-137.3476"/>
<polygon fill="#191970" stroke="#191970" points="785.3597,-139.0705 788.227,-128.8711 779.625,-135.0563 785.3597,-139.0705"/>
</g>
<!-- Node57&#45;&gt;Node15 -->
<g id="edge62" class="edge">
<title>Node57&#45;&gt;Node15</title>
<path fill="none" stroke="#191970" d="M636.2031,-290.4672C581.9675,-275.7449 469.5628,-246.5602 372.7868,-230 299.8575,-217.5204 95.9791,-244.3747 41.7868,-194 -4.0246,-151.4158 -12.978,-108.2782 19.7868,-55 32.7918,-33.8527 59.0019,-22.1728 79.7987,-15.9604"/>
<polygon fill="#191970" stroke="#191970" points="80.756,-19.3273 89.4916,-13.3323 78.9241,-12.5712 80.756,-19.3273"/>
</g>
<!-- Node59 -->
<g id="node33" class="node">
<title>Node59</title>
<polygon fill="#ffffff" stroke="#bfbfbf" points="325.3952,-230.5 325.3952,-248.5 364.1784,-248.5 364.1784,-230.5 325.3952,-230.5"/>
<text text-anchor="middle" x="344.7868" y="-236.5" font-family="FreeSans" font-size="10.00" fill="#000000">array</text>
</g>
<!-- Node57&#45;&gt;Node59 -->
<g id="edge64" class="edge">
<title>Node57&#45;&gt;Node59</title>
<path fill="none" stroke="#191970" d="M619.9299,-290.4524C551.6717,-277.812 429.887,-255.2593 374.1272,-244.9334"/>
<polygon fill="#191970" stroke="#191970" points="374.6712,-241.4747 364.201,-243.0952 373.3965,-248.3577 374.6712,-241.4747"/>
</g>
<!-- Node65&#45;&gt;Node1 -->
<g id="edge67" class="edge">
<title>Node65&#45;&gt;Node1</title>
<path fill="none" stroke="#191970" d="M3043.0955,-285.3952C3056.5369,-263.6278 3079.7868,-220.107 3079.7868,-179.5 3079.7868,-179.5 3079.7868,-179.5 3079.7868,-119.5 3079.7868,-83.2287 3061.7794,-72.0902 3029.7868,-55 2975.7416,-26.1295 2547.6031,-13.5366 2417.2911,-10.3479"/>
<polygon fill="#191970" stroke="#191970" points="2417.1032,-6.8425 2407.0219,-10.1011 2416.9349,-13.8405 2417.1032,-6.8425"/>
</g>
<!-- Node65&#45;&gt;Node2 -->
<g id="edge68" class="edge">
<title>Node65&#45;&gt;Node2</title>
<path fill="none" stroke="#191970" d="M2977.5175,-290.4133C2962.3822,-288.2883 2945.9926,-286.2751 2930.7868,-285 2615.105,-258.5272 1616.4716,-243.9227 1344.0286,-240.3636"/>
<polygon fill="#191970" stroke="#191970" points="1343.9268,-236.8621 1333.8822,-240.2318 1343.8358,-243.8615 1343.9268,-236.8621"/>
</g>
<!-- Node87&#45;&gt;Node1 -->
<g id="edge70" class="edge">
<title>Node87&#45;&gt;Node1</title>
<path fill="none" stroke="#191970" d="M2457.2422,-285.4136C2466.0874,-246.0818 2486.006,-132.869 2443.7868,-55 2436.4142,-41.402 2423.0051,-30.9198 2410.3585,-23.4626"/>
<polygon fill="#191970" stroke="#191970" points="2411.8368,-20.2821 2401.3819,-18.5659 2408.4846,-26.4273 2411.8368,-20.2821"/>
</g>
<!-- Node87&#45;&gt;Node2 -->
<g id="edge71" class="edge">
<title>Node87&#45;&gt;Node2</title>
<path fill="none" stroke="#191970" d="M2392.0586,-296.3586C2190.9061,-286.1219 1555.1487,-253.7678 1343.8343,-243.0139"/>
<polygon fill="#191970" stroke="#191970" points="1343.9624,-239.516 1333.7974,-242.5031 1343.6066,-246.5069 1343.9624,-239.516"/>
</g>
<!-- Node100&#45;&gt;Node1 -->
<g id="edge73" class="edge">
<title>Node100&#45;&gt;Node1</title>
<path fill="none" stroke="#191970" d="M2852.4776,-290.3607C2891.8791,-255.6414 3023.173,-130.1041 2953.7868,-55 2935.5366,-35.2459 2542.2541,-16.5469 2417.4413,-11.0916"/>
<polygon fill="#191970" stroke="#191970" points="2417.3704,-7.5853 2407.2282,-10.6487 2417.0671,-14.5788 2417.3704,-7.5853"/>
</g>
<!-- Node100&#45;&gt;Node2 -->
<g id="edge74" class="edge">
<title>Node100&#45;&gt;Node2</title>
<path fill="none" stroke="#191970" d="M2761.3436,-295.6131C2697.2728,-292.5673 2605.2913,-288.3063 2524.7868,-285 2074.4423,-266.5045 1532.6684,-248.091 1343.7513,-241.7844"/>
<polygon fill="#191970" stroke="#191970" points="1343.796,-238.284 1333.6849,-241.4487 1343.5626,-245.2801 1343.796,-238.284"/>
</g>
<!-- Node107&#45;&gt;Node1 -->
<g id="edge76" class="edge">
<title>Node107&#45;&gt;Node1</title>
<path fill="none" stroke="#191970" d="M1622.2634,-430.435C1635.7156,-428.3235 1650.2679,-426.3115 1663.7868,-425 1717.4608,-419.793 2591.6174,-422.6118 2633.7868,-389 2665.9914,-363.3307 2657.7868,-340.6831 2657.7868,-299.5 2657.7868,-299.5 2657.7868,-299.5 2657.7868,-239.5 2657.7868,-146.2299 2634.3299,-108.2959 2557.7868,-55 2535.2022,-39.2747 2462.1894,-24.0758 2416.9927,-15.8386"/>
<polygon fill="#191970" stroke="#191970" points="2417.4349,-12.3621 2406.9743,-14.0434 2416.2002,-19.2524 2417.4349,-12.3621"/>
</g>
<!-- Node107&#45;&gt;Node2 -->
<g id="edge77" class="edge">
<title>Node107&#45;&gt;Node2</title>
<path fill="none" stroke="#191970" d="M1568.4779,-430.4532C1558.1666,-403.5978 1523.9042,-323.7991 1467.7868,-285 1447.7373,-271.138 1390.8134,-258.6894 1343.945,-250.3321"/>
<polygon fill="#191970" stroke="#191970" points="1344.2624,-246.8346 1333.809,-248.5596 1343.0566,-253.73 1344.2624,-246.8346"/>
</g>
<!-- Node107&#45;&gt;Node43 -->
<g id="edge78" class="edge">
<title>Node107&#45;&gt;Node43</title>
<path fill="none" stroke="#191970" d="M1545.7923,-430.492C1510.1342,-418.1352 1445.9008,-395.8762 1405.6781,-381.9376"/>
<polygon fill="#191970" stroke="#191970" points="1406.5962,-378.5516 1396.0014,-378.5843 1404.3041,-385.1657 1406.5962,-378.5516"/>
</g>
<!-- Node110&#45;&gt;Node1 -->
<g id="edge80" class="edge">
<title>Node110&#45;&gt;Node1</title>
<path fill="none" stroke="#191970" d="M1721.731,-360.4684C1734.6115,-356.546 1750.3385,-352.3244 1764.7868,-350 1848.2527,-336.5724 2466.4399,-375.1761 2524.7868,-314 2606.5502,-228.2719 2540.4591,-143.5733 2461.7868,-55 2449.2518,-40.8875 2431.2522,-30.2255 2415.3086,-22.7831"/>
<polygon fill="#191970" stroke="#191970" points="2416.2773,-19.3856 2405.7144,-18.5631 2413.4589,-25.7932 2416.2773,-19.3856"/>
</g>
<!-- Node110&#45;&gt;Node2 -->
<g id="edge82" class="edge">
<title>Node110&#45;&gt;Node2</title>
<path fill="none" stroke="#191970" d="M1688.1215,-360.4639C1674.3973,-342.6195 1641.0414,-303.0276 1602.7868,-285 1558.1687,-263.9737 1425.9997,-250.6923 1343.6941,-244.2199"/>
<polygon fill="#191970" stroke="#191970" points="1343.9054,-240.7259 1333.6656,-243.4455 1343.3664,-247.7052 1343.9054,-240.7259"/>
</g>
<!-- Node110&#45;&gt;Node15 -->
<g id="edge81" class="edge">
<title>Node110&#45;&gt;Node15</title>
<path fill="none" stroke="#191970" d="M1633.4012,-362.7492C1343.8673,-330.8948 128.5503,-197.0302 124.7868,-194 74.9922,-153.9074 73.5121,-117.3149 87.7868,-55 89.9596,-45.5145 94.3789,-35.7081 98.6903,-27.639"/>
<polygon fill="#191970" stroke="#191970" points="101.8199,-29.2165 103.7376,-18.7966 95.7406,-25.7463 101.8199,-29.2165"/>
</g>
<!-- Node110&#45;&gt;Node87 -->
<g id="edge83" class="edge">
<title>Node110&#45;&gt;Node87</title>
<path fill="none" stroke="#191970" d="M1722.0811,-360.4658C1734.9023,-356.5932 1750.481,-352.4131 1764.7868,-350 2017.2759,-307.4106 2084.8738,-338.1665 2339.7868,-314 2353.452,-312.7045 2368.0061,-311.058 2381.9843,-309.3428"/>
<polygon fill="#191970" stroke="#191970" points="2382.5513,-312.7993 2392.0399,-308.0857 2381.6829,-305.8533 2382.5513,-312.7993"/>
</g>
<!-- Node119&#45;&gt;Node1 -->
<g id="edge85" class="edge">
<title>Node119&#45;&gt;Node1</title>
<path fill="none" stroke="#191970" d="M1132.0006,-490.4739C1006.5762,-440.767 611.3573,-267.5376 756.7868,-110 812.3926,-49.7645 2103.5354,-16.0928 2342.0755,-10.3755"/>
<polygon fill="#191970" stroke="#191970" points="2342.406,-13.8687 2352.3199,-10.1317 2342.2394,-6.8707 2342.406,-13.8687"/>
</g>
<!-- Node119&#45;&gt;Node2 -->
<g id="edge87" class="edge">
<title>Node119&#45;&gt;Node2</title>
<path fill="none" stroke="#191970" d="M1165.965,-490.4791C1163.2549,-474.4106 1160.3093,-447.4061 1165.7868,-425 1182.6513,-356.0138 1234.5869,-287.1806 1260.1988,-256.3237"/>
<polygon fill="#191970" stroke="#191970" points="1262.8941,-258.5567 1266.6736,-248.659 1257.5467,-254.0395 1262.8941,-258.5567"/>
</g>
<!-- Node119&#45;&gt;Node43 -->
<g id="edge90" class="edge">
<title>Node119&#45;&gt;Node43</title>
<path fill="none" stroke="#191970" d="M1234.1724,-495.8605C1265.4192,-488.9165 1301.616,-476.4275 1327.7868,-454 1347.9499,-436.7208 1359.4175,-407.447 1365.1177,-388.2949"/>
<polygon fill="#191970" stroke="#191970" points="1368.5083,-389.1647 1367.7698,-378.5957 1361.7561,-387.3184 1368.5083,-389.1647"/>
</g>
<!-- Node119&#45;&gt;Node44 -->
<g id="edge88" class="edge">
<title>Node119&#45;&gt;Node44</title>
<path fill="none" stroke="#191970" d="M1167.8141,-490.3507C1167.3022,-473.6829 1168.4718,-445.6511 1179.7868,-425 1214.8004,-361.096 1296.7259,-327.2596 1349.8482,-311.3918"/>
<polygon fill="#191970" stroke="#191970" points="1351.0984,-314.6742 1359.74,-308.5445 1349.162,-307.9473 1351.0984,-314.6742"/>
</g>
<!-- Node119&#45;&gt;Node57 -->
<g id="edge89" class="edge">
<title>Node119&#45;&gt;Node57</title>
<path fill="none" stroke="#191970" d="M1117.0509,-490.4735C1048.8603,-471.2255 925.8373,-433.8555 825.7868,-389 775.9283,-366.6471 721.2484,-333.2875 691.3806,-314.2412"/>
<polygon fill="#191970" stroke="#191970" points="692.8973,-311.0554 682.5927,-308.5924 689.1122,-316.9438 692.8973,-311.0554"/>
</g>
<!-- Node119&#45;&gt;Node59 -->
<g id="edge86" class="edge">
<title>Node119&#45;&gt;Node59</title>
<path fill="none" stroke="#191970" d="M1103.3027,-501.4117C943.7148,-492.7755 539.8105,-463.9092 430.7868,-389 384.2246,-357.0076 359.5825,-290.9683 349.8415,-258.4445"/>
<polygon fill="#191970" stroke="#191970" points="353.2001,-257.459 347.0991,-248.7971 346.4668,-259.3731 353.2001,-257.459"/>
</g>
<!-- Node119&#45;&gt;Node120 -->
<g id="edge91" class="edge">
<title>Node119&#45;&gt;Node120</title>
<path fill="none" stroke="#191970" d="M1187.2305,-490.396C1198.926,-481.4524 1214.2455,-469.7375 1227.2383,-459.8018"/>
<polygon fill="#191970" stroke="#191970" points="1229.5615,-462.4313 1235.379,-453.5765 1225.3093,-456.8708 1229.5615,-462.4313"/>
</g>
<!-- Node120&#45;&gt;Node1 -->
<g id="edge92" class="edge">
<title>Node120&#45;&gt;Node1</title>
<path fill="none" stroke="#191970" d="M1319.0485,-435.1342C1364.1822,-432.1587 1425.6237,-428.1947 1479.7868,-425 1606.9976,-417.4966 2619.7868,-426.9319 2619.7868,-299.5 2619.7868,-299.5 2619.7868,-299.5 2619.7868,-239.5 2619.7868,-137.6298 2564.9616,-116.5481 2483.7868,-55 2463.7222,-39.7867 2437.7806,-28.4255 2416.826,-20.8607"/>
<polygon fill="#191970" stroke="#191970" points="2417.8834,-17.523 2407.2886,-17.552 2415.5891,-24.1363 2417.8834,-17.523"/>
</g>
<!-- Node120&#45;&gt;Node2 -->
<g id="edge93" class="edge">
<title>Node120&#45;&gt;Node2</title>
<path fill="none" stroke="#191970" d="M1255.2634,-425.4364C1258.9421,-390.4013 1268.5218,-299.1667 1272.7409,-258.9843"/>
<polygon fill="#191970" stroke="#191970" points="1276.2377,-259.1973 1273.8012,-248.8865 1269.276,-258.4663 1276.2377,-259.1973"/>
</g>
<!-- Node120&#45;&gt;Node43 -->
<g id="edge96" class="edge">
<title>Node120&#45;&gt;Node43</title>
<path fill="none" stroke="#191970" d="M1277.2611,-425.3345C1297.3545,-413.2091 1326.14,-395.8385 1346.2511,-383.7025"/>
<polygon fill="#191970" stroke="#191970" points="1348.065,-386.6959 1354.8185,-378.5325 1344.4483,-380.7026 1348.065,-386.6959"/>
</g>
<!-- Node120&#45;&gt;Node44 -->
<g id="edge94" class="edge">
<title>Node120&#45;&gt;Node44</title>
<path fill="none" stroke="#191970" d="M1257.6009,-425.4029C1263.4233,-406.2044 1276.1894,-371.7431 1297.7868,-350 1314.9614,-332.7094 1339.2723,-320.3032 1359.739,-312.115"/>
<polygon fill="#191970" stroke="#191970" points="1361.03,-315.3686 1369.1301,-308.5393 1358.5391,-308.8267 1361.03,-315.3686"/>
</g>
<!-- Node120&#45;&gt;Node57 -->
<g id="edge95" class="edge">
<title>Node120&#45;&gt;Node57</title>
<path fill="none" stroke="#191970" d="M1195.2864,-425.4999C1079.37,-397.7592 822.5553,-336.2993 716.2685,-310.8632"/>
<polygon fill="#191970" stroke="#191970" points="717.0024,-307.44 706.4624,-308.5164 715.3731,-314.2478 717.0024,-307.44"/>
</g>
<!-- Node123&#45;&gt;Node1 -->
<g id="edge99" class="edge">
<title>Node123&#45;&gt;Node1</title>
<path fill="none" stroke="#191970" d="M1054.9084,-555.3499C949.8663,-508.4142 619.7692,-358.3332 592.7868,-314 560.2764,-260.5842 650.1681,-88.7853 702.7868,-55 738.4635,-32.0927 2097.379,-13.205 2342.1981,-9.9845"/>
<polygon fill="#191970" stroke="#191970" points="2342.4168,-13.4821 2352.37,-9.8513 2342.325,-6.4827 2342.4168,-13.4821"/>
</g>
<!-- Node123&#45;&gt;Node2 -->
<g id="edge101" class="edge">
<title>Node123&#45;&gt;Node2</title>
<path fill="none" stroke="#191970" d="M1084.8202,-555.4897C1081.6562,-531.6984 1075.7868,-481.8557 1075.7868,-439.5 1075.7868,-439.5 1075.7868,-439.5 1075.7868,-369.5 1075.7868,-301.1342 1159.1242,-266.8104 1217.9382,-251.0995"/>
<polygon fill="#191970" stroke="#191970" points="1219.0579,-254.4258 1227.8785,-248.5567 1217.3231,-247.6442 1219.0579,-254.4258"/>
</g>
<!-- Node123&#45;&gt;Node32 -->
<g id="edge102" class="edge">
<title>Node123&#45;&gt;Node32</title>
<path fill="none" stroke="#191970" d="M1078.512,-555.1572C1043.898,-495.1594 910.7311,-264.3369 872.254,-197.6432"/>
<polygon fill="#191970" stroke="#191970" points="875.132,-195.6278 867.1031,-188.7149 869.0687,-199.1259 875.132,-195.6278"/>
</g>
<!-- Node123&#45;&gt;Node119 -->
<g id="edge106" class="edge">
<title>Node123&#45;&gt;Node119</title>
<path fill="none" stroke="#191970" d="M1104.5795,-555.396C1115.8622,-546.4524 1130.641,-534.7375 1143.1753,-524.8018"/>
<polygon fill="#191970" stroke="#191970" points="1145.3663,-527.5313 1151.0287,-518.5765 1141.0179,-522.0457 1145.3663,-527.5313"/>
</g>
<!-- Node127 -->
<g id="node42" class="node">
<title>Node127</title>
<polygon fill="#ffffff" stroke="#bfbfbf" points="857.3952,-495.5 857.3952,-513.5 896.1784,-513.5 896.1784,-495.5 857.3952,-495.5"/>
<text text-anchor="middle" x="876.7868" y="-501.5" font-family="FreeSans" font-size="10.00" fill="#000000">utility</text>
</g>
<!-- Node123&#45;&gt;Node127 -->
<g id="edge100" class="edge">
<title>Node123&#45;&gt;Node127</title>
<path fill="none" stroke="#191970" d="M1029.9652,-555.3961C994.9404,-546.1848 949.3183,-533.2496 909.7868,-519 908.3886,-518.496 906.9658,-517.9607 905.535,-517.4043"/>
<polygon fill="#191970" stroke="#191970" points="906.7315,-514.1118 896.1524,-513.533 904.0615,-520.5826 906.7315,-514.1118"/>
</g>
<!-- Node147 -->
<g id="node43" class="node">
<title>Node147</title>
<g id="a_node43"><a xlink:href="ConstIteratorAdapter_8h_source.html" target="_top" xlink:title="DGtal/base/ConstIterator\lAdapter.h">
<polygon fill="#ffffff" stroke="#ff0000" points="1672.484,-425.5 1672.484,-453.5 1799.0895,-453.5 1799.0895,-425.5 1672.484,-425.5"/>
<text text-anchor="start" x="1680.484" y="-441.5" font-family="FreeSans" font-size="10.00" fill="#000000">DGtal/base/ConstIterator</text>
<text text-anchor="middle" x="1735.7868" y="-431.5" font-family="FreeSans" font-size="10.00" fill="#000000">Adapter.h</text>
</a>
</g>
</g>
<!-- Node123&#45;&gt;Node147 -->
<g id="edge103" class="edge">
<title>Node123&#45;&gt;Node147</title>
<path fill="none" stroke="#191970" d="M1146.1815,-557.6345C1249.0544,-537.0781 1467.3286,-493.4388 1662.329,-454.2917"/>
<polygon fill="#191970" stroke="#191970" points="1663.069,-457.713 1672.1843,-452.313 1661.691,-450.85 1663.069,-457.713"/>
</g>
<!-- Node147&#45;&gt;Node1 -->
<g id="edge104" class="edge">
<title>Node147&#45;&gt;Node1</title>
<path fill="none" stroke="#191970" d="M1799.2384,-438.4461C2004.9278,-434.7233 2641.7757,-420.6739 2671.7868,-389 2740.2606,-316.7322 2701.426,-260.0412 2671.7868,-165 2662.9412,-136.6359 2620.5262,-71.4538 2595.7868,-55 2566.9182,-35.8 2470.9551,-21.0112 2417.1618,-13.9894"/>
<polygon fill="#191970" stroke="#191970" points="2417.361,-10.4864 2406.9978,-12.6895 2416.473,-17.4299 2417.361,-10.4864"/>
</g>
<!-- Node147&#45;&gt;Node2 -->
<g id="edge105" class="edge">
<title>Node147&#45;&gt;Node2</title>
<path fill="none" stroke="#191970" d="M1698.5708,-425.4083C1676.4146,-416.335 1648.1558,-403.5396 1624.7868,-389 1562.8422,-350.4599 1563.6772,-316.3196 1497.7868,-285 1449.3478,-261.9756 1389.5838,-250.5757 1344.1215,-244.946"/>
<polygon fill="#191970" stroke="#191970" points="1344.4029,-241.4551 1334.063,-243.7652 1343.5867,-248.4074 1344.4029,-241.4551"/>
</g>
<!-- Node154&#45;&gt;Node1 -->
<g id="edge108" class="edge">
<title>Node154&#45;&gt;Node1</title>
<path fill="none" stroke="#191970" d="M1956.2596,-351.1478C1959.131,-350.7366 1961.9787,-350.3522 1964.7868,-350 2243.503,-315.0382 2322.8241,-380.306 2595.7868,-314 2757.2968,-274.7672 2862.9249,-284.8098 2920.7868,-129 2957.0212,-31.4281 2545.3618,-13.4241 2417.1898,-10.1893"/>
<polygon fill="#191970" stroke="#191970" points="2417.1484,-6.6874 2407.0685,-9.95 2416.9829,-13.6855 2417.1484,-6.6874"/>
</g>
<!-- Node154&#45;&gt;Node2 -->
<g id="edge110" class="edge">
<title>Node154&#45;&gt;Node2</title>
<path fill="none" stroke="#191970" d="M1822.6225,-350.4321C1777.7301,-330.9379 1704.1535,-301.2779 1637.7868,-285 1537.1901,-260.3264 1417.4517,-248.6242 1343.7821,-243.3798"/>
<polygon fill="#191970" stroke="#191970" points="1343.9173,-239.8809 1333.6995,-242.682 1343.4339,-246.8642 1343.9173,-239.8809"/>
</g>
<!-- Node154&#45;&gt;Node12 -->
<g id="edge109" class="edge">
<title>Node154&#45;&gt;Node12</title>
<path fill="none" stroke="#191970" d="M1956.2789,-351.2909C1959.1447,-350.8384 1961.986,-350.4065 1964.7868,-350 2047.635,-337.9744 2263.9282,-349.4107 2339.7868,-314 2358.4398,-305.2928 2397.8366,-267.9881 2405.7868,-249 2420.2051,-214.5633 2415.369,-201.0827 2405.7868,-165 2403.1684,-155.1406 2397.856,-145.1893 2392.7118,-137.1181"/>
<polygon fill="#191970" stroke="#191970" points="2395.4465,-134.9159 2386.9216,-128.6249 2389.6627,-138.859 2395.4465,-134.9159"/>
</g>
<!-- Node154&#45;&gt;Node44 -->
<g id="edge111" class="edge">
<title>Node154&#45;&gt;Node44</title>
<path fill="none" stroke="#191970" d="M1773.2708,-351.4436C1770.4119,-350.947 1767.5785,-350.4644 1764.7868,-350 1662.355,-332.9597 1543.1134,-317.2765 1469.283,-308.0483"/>
<polygon fill="#191970" stroke="#191970" points="1469.5289,-304.552 1459.1731,-306.7895 1468.664,-311.4983 1469.5289,-304.552"/>
</g>
<!-- Node159&#45;&gt;Node1 -->
<g id="edge113" class="edge">
<title>Node159&#45;&gt;Node1</title>
<path fill="none" stroke="#191970" d="M2139.8933,-366.7803C2352.2259,-359.4913 2900.1447,-338.4071 2930.7868,-314 3022.0583,-241.2999 3061.8031,-131.6089 2973.7868,-55 2931.857,-18.5046 2541.4423,-11.2174 2417.4155,-9.8192"/>
<polygon fill="#191970" stroke="#191970" points="2417.3017,-6.3179 2407.265,-9.7113 2417.2273,-13.3175 2417.3017,-6.3179"/>
</g>
<!-- Node159&#45;&gt;Node2 -->
<g id="edge115" class="edge">
<title>Node159&#45;&gt;Node2</title>
<path fill="none" stroke="#191970" d="M1986.7481,-350.4193C1914.3918,-331.3429 1797.9458,-302.4096 1695.7868,-285 1572.6489,-264.0152 1427.5075,-250.8426 1343.8168,-244.3563"/>
<polygon fill="#191970" stroke="#191970" points="1343.9096,-240.8532 1333.6716,-243.5795 1343.3752,-247.8328 1343.9096,-240.8532"/>
</g>
<!-- Node159&#45;&gt;Node12 -->
<g id="edge114" class="edge">
<title>Node159&#45;&gt;Node12</title>
<path fill="none" stroke="#191970" d="M2139.7905,-365.5468C2267.3858,-358.6093 2499.7047,-342.2323 2524.7868,-314 2557.1329,-277.5913 2562.2853,-251.8185 2481.7868,-165 2463.037,-144.7782 2433.6399,-132.982 2411.2122,-126.4909"/>
<polygon fill="#191970" stroke="#191970" points="2412.027,-123.0857 2401.4612,-123.8705 2410.2103,-129.8459 2412.027,-123.0857"/>
</g>
<!-- Node159&#45;&gt;Node44 -->
<g id="edge116" class="edge">
<title>Node159&#45;&gt;Node44</title>
<path fill="none" stroke="#191970" d="M1973.6233,-351.4063C1970.6456,-350.9072 1967.6931,-350.4361 1964.7868,-350 1787.5741,-323.4115 1576.8922,-309.1303 1469.4518,-303.0771"/>
<polygon fill="#191970" stroke="#191970" points="1469.5602,-299.5778 1459.3812,-302.5169 1469.1713,-306.567 1469.5602,-299.5778"/>
</g>
<!-- Node161&#45;&gt;Node1 -->
<g id="edge118" class="edge">
<title>Node161&#45;&gt;Node1</title>
<path fill="none" stroke="#191970" d="M900.7028,-752.2652C1213.4233,-741.052 2566.1457,-687.3281 2973.7868,-584 3059.35,-562.3116 3155.7868,-592.7692 3155.7868,-504.5 3155.7868,-504.5 3155.7868,-504.5 3155.7868,-119.5 3155.7868,-78.4851 3127.2545,-71.6849 3089.7868,-55 3028.2038,-27.5762 2555.3148,-13.8361 2417.4151,-10.3849"/>
<polygon fill="#191970" stroke="#191970" points="2417.416,-6.884 2407.3327,-10.1361 2417.2432,-13.8819 2417.416,-6.884"/>
</g>
<!-- Node161&#45;&gt;Node2 -->
<g id="edge123" class="edge">
<title>Node161&#45;&gt;Node2</title>
<path fill="none" stroke="#191970" d="M793.5648,-740.3786C775.5031,-732.3486 755.6536,-720.5267 742.7868,-704 721.7949,-677.0371 723.7868,-663.671 723.7868,-629.5 723.7868,-629.5 723.7868,-629.5 723.7868,-504.5 723.7868,-413.8897 819.8049,-444.0349 891.7868,-389 913.0796,-372.7202 917.1622,-367.1186 937.7868,-350 973.0383,-320.7409 976.1215,-304.0466 1017.7868,-285 1050.4498,-270.0686 1141.2032,-256.1827 1205.582,-247.7726"/>
<polygon fill="#191970" stroke="#191970" points="1206.205,-251.2214 1215.675,-246.4706 1205.3093,-244.2789 1206.205,-251.2214"/>
</g>
<!-- Node161&#45;&gt;Node41 -->
<g id="edge122" class="edge">
<title>Node161&#45;&gt;Node41</title>
<path fill="none" stroke="#191970" d="M771.0177,-742.9538C727.5099,-733.9225 675.3843,-720.2029 659.7868,-704 615.5273,-658.0227 619.0776,-403.3729 592.7868,-350 583.1956,-330.529 572.5908,-331.5262 559.7868,-314 531.3417,-275.0643 504.9875,-224.7289 491.7366,-198.0351"/>
<polygon fill="#191970" stroke="#191970" points="494.7227,-196.175 487.1781,-188.7366 488.4374,-199.2563 494.7227,-196.175"/>
</g>
<!-- Node161&#45;&gt;Node44 -->
<g id="edge125" class="edge">
<title>Node161&#45;&gt;Node44</title>
<path fill="none" stroke="#191970" d="M878.6379,-740.4965C967.4319,-710.0926 1175.3521,-631.6004 1320.7868,-519 1383.1993,-470.6781 1412.8923,-462.4536 1441.7868,-389 1448.1319,-372.8698 1447.7739,-366.2665 1441.7868,-350 1436.8771,-336.6609 1426.7048,-324.4444 1417.4864,-315.3693"/>
<polygon fill="#191970" stroke="#191970" points="1419.818,-312.7582 1410.1037,-308.5292 1415.0605,-317.893 1419.818,-312.7582"/>
</g>
<!-- Node161&#45;&gt;Node57 -->
<g id="edge124" class="edge">
<title>Node161&#45;&gt;Node57</title>
<path fill="none" stroke="#191970" d="M773.1855,-740.4853C718.4962,-724.1086 647.7868,-691.0361 647.7868,-629.5 647.7868,-629.5 647.7868,-629.5 647.7868,-504.5 647.7868,-436.0606 659.5129,-355.4349 665.4404,-319.0511"/>
<polygon fill="#191970" stroke="#191970" points="668.9465,-319.3038 667.1389,-308.8643 662.0418,-318.1524 668.9465,-319.3038"/>
</g>
<!-- Node161&#45;&gt;Node59 -->
<g id="edge121" class="edge">
<title>Node161&#45;&gt;Node59</title>
<path fill="none" stroke="#191970" d="M771.0477,-752.4342C674.252,-748.3087 497.4323,-736.4561 443.7868,-704 331.9314,-636.3263 321.1236,-580.6716 288.7868,-454 270.1728,-381.0843 312.6608,-294.4212 333.7726,-257.5467"/>
<polygon fill="#191970" stroke="#191970" points="336.806,-259.2928 338.8614,-248.8992 330.7731,-255.7426 336.806,-259.2928"/>
</g>
<!-- Node161&#45;&gt;Node127 -->
<g id="edge120" class="edge">
<title>Node161&#45;&gt;Node127</title>
<path fill="none" stroke="#191970" d="M882.9243,-740.479C900.5046,-732.7054 918.6418,-721.053 928.7868,-704 964.736,-643.5718 914.8928,-558.4093 889.7566,-522.056"/>
<polygon fill="#191970" stroke="#191970" points="892.3394,-519.6489 883.6888,-513.532 886.6367,-523.7084 892.3394,-519.6489"/>
</g>
<!-- Node161&#45;&gt;Node147 -->
<g id="edge133" class="edge">
<title>Node161&#45;&gt;Node147</title>
<path fill="none" stroke="#191970" d="M900.7842,-754.0191C1137.6475,-751.4201 1940.7868,-734.8405 1940.7868,-629.5 1940.7868,-629.5 1940.7868,-629.5 1940.7868,-569.5 1940.7868,-505.1277 1867.8046,-471.2916 1808.9322,-454.4691"/>
<polygon fill="#191970" stroke="#191970" points="1809.8156,-451.0822 1799.2461,-451.8154 1807.9659,-457.8334 1809.8156,-451.0822"/>
</g>
<!-- Node162 -->
<g id="node47" class="node">
<title>Node162</title>
<polygon fill="#ffffff" stroke="#bfbfbf" points="402.2868,-290.5 402.2868,-308.5 431.2868,-308.5 431.2868,-290.5 402.2868,-290.5"/>
<text text-anchor="middle" x="416.3976" y="-296.5" font-family="FreeSans" font-size="10.00" fill="#000000">list</text>
</g>
<!-- Node161&#45;&gt;Node162 -->
<g id="edge119" class="edge">
<title>Node161&#45;&gt;Node162</title>
<path fill="none" stroke="#191970" d="M770.9287,-748.9238C652.1537,-736.9102 411.7868,-703.4614 411.7868,-629.5 411.7868,-629.5 411.7868,-629.5 411.7868,-439.5 411.7868,-396.2997 414.1939,-345.6488 415.6678,-318.6842"/>
<polygon fill="#191970" stroke="#191970" points="419.1639,-318.8501 416.2326,-308.6689 412.175,-318.4559 419.1639,-318.8501"/>
</g>
<!-- Node163 -->
<g id="node48" class="node">
<title>Node163</title>
<g id="a_node48"><a xlink:href="ArithmeticalDSSComputer_8h_source.html" target="_top" xlink:title="Header file for module ArithmeticalDSSComputer.cpp. ">
<polygon fill="#ffffff" stroke="#ff0000" points="440.1491,-355.5 440.1491,-383.5 583.4244,-383.5 583.4244,-355.5 440.1491,-355.5"/>
<text text-anchor="start" x="448.1491" y="-371.5" font-family="FreeSans" font-size="10.00" fill="#000000">DGtal/geometry/curves</text>
<text text-anchor="middle" x="511.7868" y="-361.5" font-family="FreeSans" font-size="10.00" fill="#000000">/ArithmeticalDSSComputer.h</text>
</a>
</g>
</g>
<!-- Node161&#45;&gt;Node163 -->
<g id="edge126" class="edge">
<title>Node161&#45;&gt;Node163</title>
<path fill="none" stroke="#191970" d="M770.9057,-749.3563C699.5931,-742.569 590.7533,-728.5149 557.7868,-704 527.9601,-681.82 519.7868,-666.6696 519.7868,-629.5 519.7868,-629.5 519.7868,-629.5 519.7868,-504.5 519.7868,-465.7053 516.4539,-420.7492 514.0906,-393.7474"/>
<polygon fill="#191970" stroke="#191970" points="517.566,-393.3166 513.1802,-383.6721 510.5945,-393.9466 517.566,-393.3166"/>
</g>
<!-- Node187 -->
<g id="node49" class="node">
<title>Node187</title>
<g id="a_node49"><a xlink:href="BasicPointFunctors_8h_source.html" target="_top" xlink:title="DGtal/kernel/BasicPointFunctors.h">
<polygon fill="#ffffff" stroke="#ff0000" points="751.3659,-680.5 751.3659,-698.5 920.2077,-698.5 920.2077,-680.5 751.3659,-680.5"/>
<text text-anchor="middle" x="835.7868" y="-686.5" font-family="FreeSans" font-size="10.00" fill="#000000">DGtal/kernel/BasicPointFunctors.h</text>
</a>
</g>
</g>
<!-- Node161&#45;&gt;Node187 -->
<g id="edge134" class="edge">
<title>Node161&#45;&gt;Node187</title>
<path fill="none" stroke="#191970" d="M835.7868,-740.396C835.7868,-731.1723 835.7868,-719.0011 835.7868,-708.8738"/>
<polygon fill="#191970" stroke="#191970" points="839.2869,-708.5743 835.7868,-698.5743 832.2869,-708.5743 839.2869,-708.5743"/>
</g>
<!-- Node189 -->
<g id="node50" class="node">
<title>Node189</title>
<g id="a_node50"><a xlink:href="Naive3DDSSComputer_8ih_source.html" target="_top" xlink:title="DGtal/geometry/curves\l/Naive3DDSSComputer.ih">
<polygon fill="#ffffff" stroke="#000000" points="1412.9816,-675.5 1412.9816,-703.5 1544.5919,-703.5 1544.5919,-675.5 1412.9816,-675.5"/>
<text text-anchor="start" x="1420.9816" y="-691.5" font-family="FreeSans" font-size="10.00" fill="#000000">DGtal/geometry/curves</text>
<text text-anchor="middle" x="1478.7868" y="-681.5" font-family="FreeSans" font-size="10.00" fill="#000000">/Naive3DDSSComputer.ih</text>
</a>
</g>
</g>
<!-- Node161&#45;&gt;Node189 -->
<g id="edge140" class="edge">
<title>Node161&#45;&gt;Node189</title>
<path fill="none" stroke="#191970" d="M900.5916,-750.5868C1005.5522,-743.8227 1219.116,-728.2907 1398.7868,-704 1400.085,-703.8245 1401.3943,-703.6426 1402.7121,-703.4551"/>
<polygon fill="#191970" stroke="#191970" points="1403.571,-706.8655 1412.94,-701.9187 1402.531,-699.9431 1403.571,-706.8655"/>
</g>
<!-- Node163&#45;&gt;Node1 -->
<g id="edge127" class="edge">
<title>Node163&#45;&gt;Node1</title>
<path fill="none" stroke="#191970" d="M500.6798,-355.2252C469.4912,-314.3374 385.0207,-197.6311 410.7868,-165 453.542,-110.8531 503.104,-165.28 561.7868,-129 598.282,-106.4372 585.1451,-73.6496 623.7868,-55 703.8328,-16.3673 2094.6974,-10.3632 2342.2554,-9.5994"/>
<polygon fill="#191970" stroke="#191970" points="2342.5406,-13.0986 2352.5301,-9.5687 2342.5196,-6.0987 2342.5406,-13.0986"/>
</g>
<!-- Node163&#45;&gt;Node2 -->
<g id="edge130" class="edge">
<title>Node163&#45;&gt;Node2</title>
<path fill="none" stroke="#191970" d="M571.1824,-355.4419C618.2798,-344.273 685.7645,-328.2212 744.7868,-314 797.709,-301.2486 810.1781,-294.459 863.7868,-285 983.1117,-263.9457 1123.7474,-250.8758 1205.7253,-244.4139"/>
<polygon fill="#191970" stroke="#191970" points="1206.2174,-247.8863 1215.9157,-243.6209 1205.6743,-240.9074 1206.2174,-247.8863"/>
</g>
<!-- Node163&#45;&gt;Node41 -->
<g id="edge129" class="edge">
<title>Node163&#45;&gt;Node41</title>
<path fill="none" stroke="#191970" d="M509.607,-355.2191C504.4739,-321.5883 491.6179,-237.3592 485.7685,-199.0353"/>
<polygon fill="#191970" stroke="#191970" points="489.1632,-198.0797 484.1944,-188.7223 482.2434,-199.1359 489.1632,-198.0797"/>
</g>
<!-- Node163&#45;&gt;Node44 -->
<g id="edge132" class="edge">
<title>Node163&#45;&gt;Node44</title>
<path fill="none" stroke="#191970" d="M583.6223,-363.8309C750.5638,-350.6563 1163.0321,-318.1052 1328.4715,-305.0491"/>
<polygon fill="#191970" stroke="#191970" points="1328.84,-308.531 1338.5336,-304.255 1328.2892,-301.5527 1328.84,-308.531"/>
</g>
<!-- Node163&#45;&gt;Node57 -->
<g id="edge131" class="edge">
<title>Node163&#45;&gt;Node57</title>
<path fill="none" stroke="#191970" d="M543.558,-355.3345C571.4885,-342.8814 611.8277,-324.8957 639.1133,-312.7302"/>
<polygon fill="#191970" stroke="#191970" points="640.82,-315.8014 648.5281,-308.5325 637.9695,-309.4081 640.82,-315.8014"/>
</g>
<!-- Node163&#45;&gt;Node162 -->
<g id="edge128" class="edge">
<title>Node163&#45;&gt;Node162</title>
<path fill="none" stroke="#191970" d="M492.5621,-355.3345C476.551,-343.5368 453.801,-326.7736 437.4123,-314.6978"/>
<polygon fill="#191970" stroke="#191970" points="439.172,-311.6469 429.0452,-308.5325 435.0196,-317.2823 439.172,-311.6469"/>
</g>
<!-- Node187&#45;&gt;Node1 -->
<g id="edge135" class="edge">
<title>Node187&#45;&gt;Node1</title>
<path fill="none" stroke="#191970" d="M806.692,-680.4931C777.3127,-671.1205 730.8213,-655.5252 691.7868,-639 557.4921,-582.1466 522.879,-558.137 420.7868,-454 343.9463,-375.6205 267.8817,-328.2655 316.7868,-230 338.1339,-187.107 360.5865,-187.6857 402.7868,-165 445.1302,-142.2373 462.7915,-152.3989 504.7868,-129 550.6261,-103.4592 547.5197,-73.0649 596.7868,-55 681.562,-23.9153 2092.4196,-11.7002 2342.1574,-9.777"/>
<polygon fill="#191970" stroke="#191970" points="2342.5443,-13.2742 2352.5173,-9.698 2342.4909,-6.2744 2342.5443,-13.2742"/>
</g>
<!-- Node187&#45;&gt;Node2 -->
<g id="edge136" class="edge">
<title>Node187&#45;&gt;Node2</title>
<path fill="none" stroke="#191970" d="M834.1549,-680.1927C829.4324,-650.6833 817.9631,-557.1977 848.7868,-490 862.3488,-460.4337 1029.1044,-300.3434 1057.7868,-285 1083.017,-271.5033 1152.1272,-258.3375 1205.643,-249.6702"/>
<polygon fill="#191970" stroke="#191970" points="1206.4569,-253.0847 1215.7799,-248.0516 1205.3531,-246.1722 1206.4569,-253.0847"/>
</g>
<!-- Node187&#45;&gt;Node42 -->
<g id="edge137" class="edge">
<title>Node187&#45;&gt;Node42</title>
<path fill="none" stroke="#191970" d="M920.2789,-684.3844C1111.6321,-672.799 1575.3479,-644.7233 1754.4862,-633.8774"/>
<polygon fill="#191970" stroke="#191970" points="1754.8228,-637.3636 1764.593,-633.2655 1754.3997,-630.3763 1754.8228,-637.3636"/>
</g>
<!-- Node187&#45;&gt;Node43 -->
<g id="edge138" class="edge">
<title>Node187&#45;&gt;Node43</title>
<path fill="none" stroke="#191970" d="M873.8753,-680.3935C934.9968,-665.0201 1057.9415,-630.943 1154.7868,-584 1249.183,-538.2442 1292.6688,-540.6563 1351.7868,-454 1365.087,-434.5042 1368.8377,-407.0527 1369.7532,-388.7897"/>
<polygon fill="#191970" stroke="#191970" points="1373.2528,-388.8477 1370.0169,-378.7591 1366.2552,-388.6637 1373.2528,-388.8477"/>
</g>
<!-- Node187&#45;&gt;Node59 -->
<g id="edge139" class="edge">
<title>Node187&#45;&gt;Node59</title>
<path fill="none" stroke="#191970" d="M814.6176,-680.4276C744.823,-649.5578 519.0735,-541.9479 389.7868,-389 357.5138,-350.8206 348.3858,-290.055 345.8044,-259.0654"/>
<polygon fill="#191970" stroke="#191970" points="349.2736,-258.494 345.101,-248.7555 342.2898,-258.9706 349.2736,-258.494"/>
</g>
</g>
</svg>
