<?xml version="1.0" encoding="UTF-8" standalone="no"?>
<!DOCTYPE svg PUBLIC "-//W3C//DTD SVG 1.1//EN"
 "http://www.w3.org/Graphics/SVG/1.1/DTD/svg11.dtd">
<!-- Generated by graphviz version 2.40.1 (20161225.0304)
 -->
<!-- Title: Graphical Class Hierarchy Pages: 1 -->
<svg width="591pt" height="524pt"
 viewBox="0.00 0.00 591.32 524.00" xmlns="http://www.w3.org/2000/svg" xmlns:xlink="http://www.w3.org/1999/xlink">
<g id="graph0" class="graph" transform="scale(1 1) rotate(0) translate(4 520)">
<title>Graphical Class Hierarchy</title>
<polygon fill="#ffffff" stroke="transparent" points="-4,4 -4,-520 587.3154,-520 587.3154,4 -4,4"/>
<!-- Node844 -->
<g id="node1" class="node">
<title>Node844</title>
<g id="a_node1"><a xlink:href="structDGtal_1_1DrawableWithDisplay3D.html" target="_top" xlink:title="DGtal::DrawableWithDisplay3D">
<polygon fill="#ffffff" stroke="#000000" points="8.3301,-441.5 8.3301,-459.5 163.2607,-459.5 163.2607,-441.5 8.3301,-441.5"/>
<text text-anchor="middle" x="85.7954" y="-447.5" font-family="FreeSans" font-size="10.00" fill="#000000">DGtal::DrawableWithDisplay3D</text>
</a>
</g>
</g>
<!-- Node845 -->
<g id="node2" class="node">
<title>Node845</title>
<g id="a_node2"><a xlink:href="structDGtal_1_1DrawWithBoard3DTo2DModifier.html" target="_top" xlink:title="Base class specifying the methods for classes which intend to modify a Viewer3D stream. ">
<polygon fill="#ffffff" stroke="#000000" points="219.1655,-436.5 219.1655,-464.5 365.2095,-464.5 365.2095,-436.5 219.1655,-436.5"/>
<text text-anchor="start" x="227.1655" y="-452.5" font-family="FreeSans" font-size="10.00" fill="#000000">DGtal::DrawWithBoard3DTo2</text>
<text text-anchor="middle" x="292.1875" y="-442.5" font-family="FreeSans" font-size="10.00" fill="#000000">DModifier</text>
</a>
</g>
</g>
<!-- Node844&#45;&gt;Node845 -->
<g id="edge1" class="edge">
<title>Node844&#45;&gt;Node845</title>
<path fill="none" stroke="#191970" d="M173.8516,-450.5C188.886,-450.5 204.3586,-450.5 218.9555,-450.5"/>
<polygon fill="#191970" stroke="#191970" points="173.5293,-447.0001 163.5293,-450.5 173.5293,-454.0001 173.5293,-447.0001"/>
</g>
<!-- Node7 -->
<g id="node3" class="node">
<title>Node7</title>
<g id="a_node3"><a xlink:href="structDGtal_1_1CameraDirection.html" target="_top" xlink:title="CameraDirection class to set camera direction. ">
<polygon fill="#ffffff" stroke="#000000" points="436.9785,-423.5 436.9785,-441.5 559.1211,-441.5 559.1211,-423.5 436.9785,-423.5"/>
<text text-anchor="middle" x="498.0498" y="-429.5" font-family="FreeSans" font-size="10.00" fill="#000000">DGtal::CameraDirection</text>
</a>
</g>
</g>
<!-- Node845&#45;&gt;Node7 -->
<g id="edge2" class="edge">
<title>Node845&#45;&gt;Node7</title>
<path fill="none" stroke="#191970" d="M375.3127,-443.2318C395.8231,-441.4384 417.4239,-439.5497 436.6894,-437.8652"/>
<polygon fill="#191970" stroke="#191970" points="375.0036,-439.7454 365.3465,-444.1032 375.6134,-446.7187 375.0036,-439.7454"/>
</g>
<!-- Node8 -->
<g id="node4" class="node">
<title>Node8</title>
<g id="a_node4"><a xlink:href="structDGtal_1_1CameraPosition.html" target="_top" xlink:title="CameraPosition class to set camera position. ">
<polygon fill="#ffffff" stroke="#000000" points="438.9194,-386.5 438.9194,-404.5 557.1802,-404.5 557.1802,-386.5 438.9194,-386.5"/>
<text text-anchor="middle" x="498.0498" y="-392.5" font-family="FreeSans" font-size="10.00" fill="#000000">DGtal::CameraPosition</text>
</a>
</g>
</g>
<!-- Node845&#45;&gt;Node8 -->
<g id="edge3" class="edge">
<title>Node845&#45;&gt;Node8</title>
<path fill="none" stroke="#191970" d="M345.9728,-433.5561C366.755,-427.243 390.7879,-420.2262 412.7842,-414.5 426.287,-410.9849 441.0967,-407.5424 454.5302,-404.5743"/>
<polygon fill="#191970" stroke="#191970" points="344.9036,-430.223 336.3645,-436.4946 346.9509,-436.9169 344.9036,-430.223"/>
</g>
<!-- Node9 -->
<g id="node5" class="node">
<title>Node9</title>
<g id="a_node5"><a xlink:href="structDGtal_1_1CameraUpVector.html" target="_top" xlink:title="CameraUpVector class to set camera up&#45;vector. ">
<polygon fill="#ffffff" stroke="#000000" points="436.1387,-497.5 436.1387,-515.5 559.9609,-515.5 559.9609,-497.5 436.1387,-497.5"/>
<text text-anchor="middle" x="498.0498" y="-503.5" font-family="FreeSans" font-size="10.00" fill="#000000">DGtal::CameraUpVector</text>
</a>
</g>
</g>
<!-- Node845&#45;&gt;Node9 -->
<g id="edge4" class="edge">
<title>Node845&#45;&gt;Node9</title>
<path fill="none" stroke="#191970" d="M342.7632,-467.6406C364.2189,-474.5976 389.5841,-482.4114 412.7842,-488.5 425.0765,-491.726 438.4823,-494.7729 450.9472,-497.411"/>
<polygon fill="#191970" stroke="#191970" points="343.7947,-464.2955 333.2021,-464.5136 341.6188,-470.9488 343.7947,-464.2955"/>
</g>
<!-- Node10 -->
<g id="node6" class="node">
<title>Node10</title>
<g id="a_node6"><a xlink:href="structDGtal_1_1CameraZNearFar.html" target="_top" xlink:title="CameraZNearFar class to set near and far distance. ">
<polygon fill="#ffffff" stroke="#000000" points="435.3159,-460.5 435.3159,-478.5 560.7837,-478.5 560.7837,-460.5 435.3159,-460.5"/>
<text text-anchor="middle" x="498.0498" y="-466.5" font-family="FreeSans" font-size="10.00" fill="#000000">DGtal::CameraZNearFar</text>
</a>
</g>
</g>
<!-- Node845&#45;&gt;Node10 -->
<g id="edge5" class="edge">
<title>Node845&#45;&gt;Node10</title>
<path fill="none" stroke="#191970" d="M375.3362,-458.1742C395.2488,-460.012 416.1879,-461.9446 435.019,-463.6826"/>
<polygon fill="#191970" stroke="#191970" points="375.6259,-454.6861 365.3465,-457.2522 374.9825,-461.6565 375.6259,-454.6861"/>
</g>
<!-- Node0 -->
<g id="node7" class="node">
<title>Node0</title>
<g id="a_node7"><a xlink:href="structDGtal_1_1DrawWithDisplay3DModifier.html" target="_top" xlink:title="Base class specifying the methods for classes which intend to modify a Viewer3D stream. ">
<polygon fill="#ffffff" stroke="#000000" points="0,-260.5 0,-278.5 171.5908,-278.5 171.5908,-260.5 0,-260.5"/>
<text text-anchor="middle" x="85.7954" y="-266.5" font-family="FreeSans" font-size="10.00" fill="#000000">DGtal::DrawWithDisplay3DModifier</text>
</a>
</g>
</g>
<!-- Node1 -->
<g id="node8" class="node">
<title>Node1</title>
<g id="a_node8"><a xlink:href="structDGtal_1_1ClippingPlane.html" target="_top" xlink:title="Class for adding a Clipping plane through the Viewer3D stream. Realizes the concept CDrawableWithView...">
<polygon fill="#ffffff" stroke="#000000" points="237.7739,-241.5 237.7739,-259.5 346.6011,-259.5 346.6011,-241.5 237.7739,-241.5"/>
<text text-anchor="middle" x="292.1875" y="-247.5" font-family="FreeSans" font-size="10.00" fill="#000000">DGtal::ClippingPlane</text>
</a>
</g>
</g>
<!-- Node0&#45;&gt;Node1 -->
<g id="edge6" class="edge">
<title>Node0&#45;&gt;Node1</title>
<path fill="none" stroke="#191970" d="M181.7883,-260.6631C200.9166,-258.9022 220.3765,-257.1108 237.522,-255.5324"/>
<polygon fill="#191970" stroke="#191970" points="181.4667,-257.1778 171.8297,-261.5799 182.1085,-264.1483 181.4667,-257.1778"/>
</g>
<!-- Node2 -->
<g id="node9" class="node">
<title>Node2</title>
<g id="a_node9"><a xlink:href="structDGtal_1_1CustomColors3D.html" target="_top" xlink:title="DGtal::CustomColors3D">
<polygon fill="#ffffff" stroke="#000000" points="230.562,-204.5 230.562,-222.5 353.813,-222.5 353.813,-204.5 230.562,-204.5"/>
<text text-anchor="middle" x="292.1875" y="-210.5" font-family="FreeSans" font-size="10.00" fill="#000000">DGtal::CustomColors3D</text>
</a>
</g>
</g>
<!-- Node0&#45;&gt;Node2 -->
<g id="edge7" class="edge">
<title>Node0&#45;&gt;Node2</title>
<path fill="none" stroke="#191970" d="M121.981,-257.2422C146.0754,-249.3203 178.5288,-239.108 207.5908,-231.5 219.9381,-228.2677 233.4123,-225.1974 245.904,-222.538"/>
<polygon fill="#191970" stroke="#191970" points="120.5925,-254.015 112.2008,-260.4827 122.7942,-260.6598 120.5925,-254.015"/>
</g>
<!-- Node3 -->
<g id="node10" class="node">
<title>Node3</title>
<g id="a_node10"><a xlink:href="structDGtal_1_1CustomStyle3D.html" target="_top" xlink:title="Modifier class in a Display3D stream. Useful to choose your own style for a given class...">
<polygon fill="#ffffff" stroke="#000000" points="233.8945,-167.5 233.8945,-185.5 350.4805,-185.5 350.4805,-167.5 233.8945,-167.5"/>
<text text-anchor="middle" x="292.1875" y="-173.5" font-family="FreeSans" font-size="10.00" fill="#000000">DGtal::CustomStyle3D</text>
</a>
</g>
</g>
<!-- Node0&#45;&gt;Node3 -->
<g id="edge8" class="edge">
<title>Node0&#45;&gt;Node3</title>
<path fill="none" stroke="#191970" d="M105.5169,-254.3774C128.7078,-237.3256 168.9551,-209.9673 207.5908,-194.5 216.6519,-190.8725 226.5654,-187.9267 236.3144,-185.5502"/>
<polygon fill="#191970" stroke="#191970" points="103.4213,-251.5741 97.5028,-260.3617 107.6095,-257.1829 103.4213,-251.5741"/>
</g>
<!-- Node4 -->
<g id="node11" class="node">
<title>Node4</title>
<g id="a_node11"><a xlink:href="structDGtal_1_1DrawWithViewer3DModifier.html" target="_top" xlink:title="Base class specifying the methods for classes which intend to modify a Viewer3D stream. ">
<polygon fill="#ffffff" stroke="#000000" points="207.5908,-278.5 207.5908,-296.5 376.7842,-296.5 376.7842,-278.5 207.5908,-278.5"/>
<text text-anchor="middle" x="292.1875" y="-284.5" font-family="FreeSans" font-size="10.00" fill="#000000">DGtal::DrawWithViewer3DModifier</text>
</a>
</g>
</g>
<!-- Node0&#45;&gt;Node4 -->
<g id="edge9" class="edge">
<title>Node0&#45;&gt;Node4</title>
<path fill="none" stroke="#191970" d="M182.0581,-277.8953C190.4812,-278.6299 198.9661,-279.3699 207.2871,-280.0956"/>
<polygon fill="#191970" stroke="#191970" points="182.096,-274.3854 171.8297,-277.0033 181.4878,-281.359 182.096,-274.3854"/>
</g>
<!-- Node17 -->
<g id="node20" class="node">
<title>Node17</title>
<g id="a_node20"><a xlink:href="structDGtal_1_1SetMode3D.html" target="_top" xlink:title="Modifier class in a Display3D stream. Useful to choose your own mode for a given class. Realizes the concept CDrawableWithDisplay3D. ">
<polygon fill="#ffffff" stroke="#000000" points="242.2246,-130.5 242.2246,-148.5 342.1504,-148.5 342.1504,-130.5 242.2246,-130.5"/>
<text text-anchor="middle" x="292.1875" y="-136.5" font-family="FreeSans" font-size="10.00" fill="#000000">DGtal::SetMode3D</text>
</a>
</g>
</g>
<!-- Node0&#45;&gt;Node17 -->
<g id="edge22" class="edge">
<title>Node0&#45;&gt;Node17</title>
<path fill="none" stroke="#191970" d="M99.2389,-252.3091C119.776,-227.3089 161.468,-181.3123 207.5908,-157.5 218.1314,-152.0581 230.2225,-148.2608 241.9036,-145.6112"/>
<polygon fill="#191970" stroke="#191970" points="96.4271,-250.2205 92.8843,-260.2055 101.8806,-254.6091 96.4271,-250.2205"/>
</g>
<!-- Node18 -->
<g id="node21" class="node">
<title>Node18</title>
<g id="a_node21"><a xlink:href="structDGtal_1_1SetName3D.html" target="_top" xlink:title="DGtal::SetName3D">
<polygon fill="#ffffff" stroke="#000000" points="241.3945,-389.5 241.3945,-407.5 342.9805,-407.5 342.9805,-389.5 241.3945,-389.5"/>
<text text-anchor="middle" x="292.1875" y="-395.5" font-family="FreeSans" font-size="10.00" fill="#000000">DGtal::SetName3D</text>
</a>
</g>
</g>
<!-- Node0&#45;&gt;Node18 -->
<g id="edge23" class="edge">
<title>Node0&#45;&gt;Node18</title>
<path fill="none" stroke="#191970" d="M99.2741,-286.5341C119.8557,-311.3069 161.6034,-356.8875 207.5908,-380.5 217.8763,-385.7811 229.6279,-389.5138 241.033,-392.1517"/>
<polygon fill="#191970" stroke="#191970" points="101.9321,-284.2553 92.9045,-278.7096 96.5034,-288.6745 101.9321,-284.2553"/>
</g>
<!-- Node19 -->
<g id="node22" class="node">
<title>Node19</title>
<g id="a_node22"><a xlink:href="structDGtal_1_1SetSelectCallback3D.html" target="_top" xlink:title="DGtal::SetSelectCallback3D">
<polygon fill="#ffffff" stroke="#000000" points="221.6606,-352.5 221.6606,-370.5 362.7144,-370.5 362.7144,-352.5 221.6606,-352.5"/>
<text text-anchor="middle" x="292.1875" y="-358.5" font-family="FreeSans" font-size="10.00" fill="#000000">DGtal::SetSelectCallback3D</text>
</a>
</g>
</g>
<!-- Node0&#45;&gt;Node19 -->
<g id="edge24" class="edge">
<title>Node0&#45;&gt;Node19</title>
<path fill="none" stroke="#191970" d="M105.8588,-284.6313C129.1283,-301.4589 169.2199,-328.2715 207.5908,-343.5 216.6627,-347.1004 226.5816,-350.0329 236.3325,-352.4046"/>
<polygon fill="#191970" stroke="#191970" points="107.656,-281.6086 97.5248,-278.5084 103.5114,-287.2498 107.656,-281.6086"/>
</g>
<!-- Node20 -->
<g id="node23" class="node">
<title>Node20</title>
<g id="a_node23"><a xlink:href="structDGtal_1_1TransformedPrism.html" target="_top" xlink:title="class to modify the position and scale to construct better illustration mode. ">
<polygon fill="#ffffff" stroke="#000000" points="227.6934,-315.5 227.6934,-333.5 356.6816,-333.5 356.6816,-315.5 227.6934,-315.5"/>
<text text-anchor="middle" x="292.1875" y="-321.5" font-family="FreeSans" font-size="10.00" fill="#000000">DGtal::TransformedPrism</text>
</a>
</g>
</g>
<!-- Node0&#45;&gt;Node20 -->
<g id="edge25" class="edge">
<title>Node0&#45;&gt;Node20</title>
<path fill="none" stroke="#191970" d="M122.944,-281.6852C146.9489,-289.3353 178.9421,-299.1149 207.5908,-306.5 220.0955,-309.7235 233.7457,-312.8125 246.3605,-315.4937"/>
<polygon fill="#191970" stroke="#191970" points="123.7695,-278.2743 113.1782,-278.5501 121.6298,-284.9393 123.7695,-278.2743"/>
</g>
<!-- Node4&#45;&gt;Node7 -->
<g id="edge12" class="edge">
<title>Node4&#45;&gt;Node7</title>
<path fill="none" stroke="#191970" d="M370.5638,-301.6462C372.7477,-303.1198 374.83,-304.7335 376.7842,-306.5 414.3186,-340.4289 375.0321,-380.8135 412.7842,-414.5 419.5573,-420.5437 427.8394,-424.7432 436.5509,-427.631"/>
<polygon fill="#191970" stroke="#191970" points="372.1213,-298.506 361.6938,-296.63 368.6755,-304.5992 372.1213,-298.506"/>
</g>
<!-- Node4&#45;&gt;Node8 -->
<g id="edge13" class="edge">
<title>Node4&#45;&gt;Node8</title>
<path fill="none" stroke="#191970" d="M368.4661,-301.0058C371.3813,-302.642 374.1705,-304.4664 376.7842,-306.5 404.7075,-328.2265 384.7215,-355.9537 412.7842,-377.5 420.3443,-383.3046 429.3473,-387.3424 438.6251,-390.1314"/>
<polygon fill="#191970" stroke="#191970" points="369.9204,-297.8216 359.3915,-296.6413 366.8863,-304.1299 369.9204,-297.8216"/>
</g>
<!-- Node4&#45;&gt;Node9 -->
<g id="edge14" class="edge">
<title>Node4&#45;&gt;Node9</title>
<path fill="none" stroke="#191970" d="M372.1535,-302.3248C373.7781,-303.615 375.3264,-305.0043 376.7842,-306.5 434.337,-365.5482 354.8523,-429.8237 412.7842,-488.5 419.1619,-494.9597 427.2338,-499.3801 435.8555,-502.3625"/>
<polygon fill="#191970" stroke="#191970" points="373.7495,-299.1877 363.4587,-296.6675 369.9318,-305.055 373.7495,-299.1877"/>
</g>
<!-- Node4&#45;&gt;Node10 -->
<g id="edge15" class="edge">
<title>Node4&#45;&gt;Node10</title>
<path fill="none" stroke="#191970" d="M371.497,-301.9973C373.354,-303.3776 375.1227,-304.8754 376.7842,-306.5 424.2603,-352.9231 365.0101,-405.3835 412.7842,-451.5 419.0976,-457.5944 426.927,-461.8512 435.2613,-464.7902"/>
<polygon fill="#191970" stroke="#191970" points="373.1981,-298.9344 362.8484,-296.6684 369.5261,-304.894 373.1981,-298.9344"/>
</g>
<!-- Node5 -->
<g id="node12" class="node">
<title>Node5</title>
<g id="a_node12"><a xlink:href="structDGtal_1_1AddTextureImage2DWithFunctor.html" target="_top" xlink:title="class to insert a custom 2D textured image by using a conversion functor and allows to change the def...">
<polygon fill="#ffffff" stroke="#000000" points="417.2739,-141.5 417.2739,-179.5 578.8257,-179.5 578.8257,-141.5 417.2739,-141.5"/>
<text text-anchor="start" x="425.2739" y="-167.5" font-family="FreeSans" font-size="10.00" fill="#000000">DGtal::AddTextureImage2DWith</text>
<text text-anchor="start" x="425.2739" y="-157.5" font-family="FreeSans" font-size="10.00" fill="#000000">Functor&lt; TImageType, TFunctor,</text>
<text text-anchor="middle" x="498.0498" y="-147.5" font-family="FreeSans" font-size="10.00" fill="#000000"> Space, KSpace &gt;</text>
</a>
</g>
</g>
<!-- Node4&#45;&gt;Node5 -->
<g id="edge10" class="edge">
<title>Node4&#45;&gt;Node5</title>
<path fill="none" stroke="#191970" d="M369.0456,-273.8752C371.7613,-272.2676 374.3551,-270.4822 376.7842,-268.5 406.9925,-243.8493 383.7982,-214.577 412.7842,-188.5 416.4908,-185.1654 420.603,-182.2269 424.9616,-179.6377"/>
<polygon fill="#191970" stroke="#191970" points="367.3665,-270.802 360.0106,-278.427 370.516,-277.0534 367.3665,-270.802"/>
</g>
<!-- Node6 -->
<g id="node13" class="node">
<title>Node6</title>
<g id="a_node13"><a xlink:href="structDGtal_1_1AddTextureImage3DWithFunctor.html" target="_top" xlink:title="class to insert a custom 3D textured image by using a conversion functor and allows to change the def...">
<polygon fill="#ffffff" stroke="#000000" points="417.2739,-84.5 417.2739,-122.5 578.8257,-122.5 578.8257,-84.5 417.2739,-84.5"/>
<text text-anchor="start" x="425.2739" y="-110.5" font-family="FreeSans" font-size="10.00" fill="#000000">DGtal::AddTextureImage3DWith</text>
<text text-anchor="start" x="425.2739" y="-100.5" font-family="FreeSans" font-size="10.00" fill="#000000">Functor&lt; TImageType, TFunctor,</text>
<text text-anchor="middle" x="498.0498" y="-90.5" font-family="FreeSans" font-size="10.00" fill="#000000"> Space, KSpace &gt;</text>
</a>
</g>
</g>
<!-- Node4&#45;&gt;Node6 -->
<g id="edge11" class="edge">
<title>Node4&#45;&gt;Node6</title>
<path fill="none" stroke="#191970" d="M371.3203,-273.0807C373.2396,-271.6793 375.0677,-270.1557 376.7842,-268.5 422.0956,-224.7927 369.6304,-177.3389 412.7842,-131.5 415.8814,-128.2101 419.3711,-125.3062 423.1245,-122.7432"/>
<polygon fill="#191970" stroke="#191970" points="369.1375,-270.3101 362.3845,-278.4739 372.7546,-276.3032 369.1375,-270.3101"/>
</g>
<!-- Node11 -->
<g id="node14" class="node">
<title>Node11</title>
<g id="a_node14"><a xlink:href="structDGtal_1_1Translate2DDomain.html" target="_top" xlink:title="class to modify the data of an given image and also the possibility to translate it (optional)...">
<polygon fill="#ffffff" stroke="#000000" points="430.2109,-47.5 430.2109,-65.5 565.8887,-65.5 565.8887,-47.5 430.2109,-47.5"/>
<text text-anchor="middle" x="498.0498" y="-53.5" font-family="FreeSans" font-size="10.00" fill="#000000">DGtal::Translate2DDomain</text>
</a>
</g>
</g>
<!-- Node4&#45;&gt;Node11 -->
<g id="edge16" class="edge">
<title>Node4&#45;&gt;Node11</title>
<path fill="none" stroke="#191970" d="M372.1772,-272.6982C373.7949,-271.4012 375.3352,-270.0042 376.7842,-268.5 437.6214,-205.3407 351.5415,-137.2663 412.7842,-74.5 417.6445,-69.5188 423.5111,-65.7466 429.8655,-62.9096"/>
<polygon fill="#191970" stroke="#191970" points="369.9528,-269.9715 363.5106,-278.3827 373.792,-275.8247 369.9528,-269.9715"/>
</g>
<!-- Node12 -->
<g id="node15" class="node">
<title>Node12</title>
<g id="a_node15"><a xlink:href="structDGtal_1_1Update2DDomainPosition.html" target="_top" xlink:title="class to modify the position and orientation of an 2D domain. ">
<polygon fill="#ffffff" stroke="#000000" points="416.959,-.5 416.959,-28.5 579.1406,-28.5 579.1406,-.5 416.959,-.5"/>
<text text-anchor="start" x="424.959" y="-16.5" font-family="FreeSans" font-size="10.00" fill="#000000">DGtal::Update2DDomainPosition</text>
<text text-anchor="middle" x="498.0498" y="-6.5" font-family="FreeSans" font-size="10.00" fill="#000000">&lt; Space, KSpace &gt;</text>
</a>
</g>
</g>
<!-- Node4&#45;&gt;Node12 -->
<g id="edge17" class="edge">
<title>Node4&#45;&gt;Node12</title>
<path fill="none" stroke="#191970" d="M372.3655,-272.6472C373.9184,-271.3639 375.3957,-269.9838 376.7842,-268.5 447.7802,-192.6316 343.4181,-114.8614 412.7842,-37.5 415.8548,-34.0754 419.3768,-31.1376 423.202,-28.6195"/>
<polygon fill="#191970" stroke="#191970" points="370.3515,-269.784 364.0324,-278.288 374.2755,-275.5807 370.3515,-269.784"/>
</g>
<!-- Node13 -->
<g id="node16" class="node">
<title>Node13</title>
<g id="a_node16"><a xlink:href="structDGtal_1_1UpdateImage3DEmbedding.html" target="_top" xlink:title="class to modify the 3d embedding of the image (useful to display not only 2D slice images)...">
<polygon fill="#ffffff" stroke="#000000" points="412.7842,-339.5 412.7842,-367.5 583.3154,-367.5 583.3154,-339.5 412.7842,-339.5"/>
<text text-anchor="start" x="420.7842" y="-355.5" font-family="FreeSans" font-size="10.00" fill="#000000">DGtal::UpdateImage3DEmbedding</text>
<text text-anchor="middle" x="498.0498" y="-345.5" font-family="FreeSans" font-size="10.00" fill="#000000">&lt; Space, KSpace &gt;</text>
</a>
</g>
</g>
<!-- Node4&#45;&gt;Node13 -->
<g id="edge18" class="edge">
<title>Node4&#45;&gt;Node13</title>
<path fill="none" stroke="#191970" d="M356.0751,-299.1892C363.1832,-301.2689 370.2197,-303.6899 376.7842,-306.5 394.4622,-314.0674 395.2711,-322.5583 412.7842,-330.5 420.1848,-333.856 428.1758,-336.8082 436.1955,-339.38"/>
<polygon fill="#191970" stroke="#191970" points="356.9428,-295.7982 346.3754,-296.5603 355.1116,-302.5544 356.9428,-295.7982"/>
</g>
<!-- Node14 -->
<g id="node17" class="node">
<title>Node14</title>
<g id="a_node17"><a xlink:href="structDGtal_1_1UpdateImageData.html" target="_top" xlink:title="class to modify the data of an given image and also the possibility to translate it (optional)...">
<polygon fill="#ffffff" stroke="#000000" points="431.0313,-292.5 431.0313,-320.5 565.0684,-320.5 565.0684,-292.5 431.0313,-292.5"/>
<text text-anchor="start" x="439.0313" y="-308.5" font-family="FreeSans" font-size="10.00" fill="#000000">DGtal::UpdateImageData</text>
<text text-anchor="middle" x="498.0498" y="-298.5" font-family="FreeSans" font-size="10.00" fill="#000000">&lt; TImageType, TFunctor &gt;</text>
</a>
</g>
</g>
<!-- Node4&#45;&gt;Node14 -->
<g id="edge19" class="edge">
<title>Node4&#45;&gt;Node14</title>
<path fill="none" stroke="#191970" d="M386.9823,-296.2491C401.7483,-297.6119 416.7389,-298.9954 430.7285,-300.2866"/>
<polygon fill="#191970" stroke="#191970" points="387.0901,-292.7442 376.8108,-295.3103 386.4467,-299.7146 387.0901,-292.7442"/>
</g>
<!-- Node15 -->
<g id="node18" class="node">
<title>Node15</title>
<g id="a_node18"><a xlink:href="structDGtal_1_1UpdateImagePosition.html" target="_top" xlink:title="class to modify the position and orientation of an textured 2D image. ">
<polygon fill="#ffffff" stroke="#000000" points="426.6831,-245.5 426.6831,-273.5 569.4165,-273.5 569.4165,-245.5 426.6831,-245.5"/>
<text text-anchor="start" x="434.6831" y="-261.5" font-family="FreeSans" font-size="10.00" fill="#000000">DGtal::UpdateImagePosition</text>
<text text-anchor="middle" x="498.0498" y="-251.5" font-family="FreeSans" font-size="10.00" fill="#000000">&lt; Space, KSpace &gt;</text>
</a>
</g>
</g>
<!-- Node4&#45;&gt;Node15 -->
<g id="edge20" class="edge">
<title>Node4&#45;&gt;Node15</title>
<path fill="none" stroke="#191970" d="M368.5532,-277.1133C387.5423,-274.5305 407.8261,-271.7716 426.5705,-269.2221"/>
<polygon fill="#191970" stroke="#191970" points="367.8938,-273.6706 358.4568,-278.4865 368.8373,-280.6068 367.8938,-273.6706"/>
</g>
<!-- Node16 -->
<g id="node19" class="node">
<title>Node16</title>
<g id="a_node19"><a xlink:href="structDGtal_1_1UpdateLastImagePosition.html" target="_top" xlink:title="class to modify the position and orientation of an textured 2D image. ">
<polygon fill="#ffffff" stroke="#000000" points="417.2324,-198.5 417.2324,-226.5 578.8672,-226.5 578.8672,-198.5 417.2324,-198.5"/>
<text text-anchor="start" x="425.2324" y="-214.5" font-family="FreeSans" font-size="10.00" fill="#000000">DGtal::UpdateLastImagePosition</text>
<text text-anchor="middle" x="498.0498" y="-204.5" font-family="FreeSans" font-size="10.00" fill="#000000">&lt; Space, KSpace &gt;</text>
</a>
</g>
</g>
<!-- Node4&#45;&gt;Node16 -->
<g id="edge21" class="edge">
<title>Node4&#45;&gt;Node16</title>
<path fill="none" stroke="#191970" d="M360.5238,-275.4615C366.1605,-273.4822 371.6559,-271.1792 376.7842,-268.5 396.0221,-258.4494 393.7644,-245.9576 412.7842,-235.5 419.0988,-232.0281 425.9687,-229.0557 432.9773,-226.5166"/>
<polygon fill="#191970" stroke="#191970" points="359.4202,-272.1397 350.9441,-278.4964 361.5343,-278.8128 359.4202,-272.1397"/>
</g>
</g>
</svg>
