<?xml version="1.0" encoding="UTF-8" standalone="no"?>
<!DOCTYPE svg PUBLIC "-//W3C//DTD SVG 1.1//EN"
 "http://www.w3.org/Graphics/SVG/1.1/DTD/svg11.dtd">
<!-- Generated by graphviz version 2.40.1 (20161225.0304)
 -->
<!-- Title: LibBoard::Arrow Pages: 1 -->
<svg width="277pt" height="380pt"
 viewBox="0.00 0.00 277.27 380.00" xmlns="http://www.w3.org/2000/svg" xmlns:xlink="http://www.w3.org/1999/xlink">
<g id="graph0" class="graph" transform="scale(1 1) rotate(0) translate(4 376)">
<title>LibBoard::Arrow</title>
<polygon fill="#ffffff" stroke="transparent" points="-4,4 -4,-376 273.2729,-376 273.2729,4 -4,4"/>
<!-- Node3 -->
<g id="node1" class="node">
<title>Node3</title>
<polygon fill="#bfbfbf" stroke="#000000" points="0,-.5 0,-18.5 87.6992,-18.5 87.6992,-.5 0,-.5"/>
<text text-anchor="middle" x="43.8496" y="-6.5" font-family="FreeSans" font-size="10.00" fill="#000000">LibBoard::Arrow</text>
</g>
<!-- Node4 -->
<g id="node2" class="node">
<title>Node4</title>
<g id="a_node2"><a xlink:href="structLibBoard_1_1Line.html" target="_top" xlink:title="A line between two points. ">
<polygon fill="#ffffff" stroke="#000000" points="59.6035,-56.5 59.6035,-74.5 140.0957,-74.5 140.0957,-56.5 59.6035,-56.5"/>
<text text-anchor="middle" x="99.8496" y="-62.5" font-family="FreeSans" font-size="10.00" fill="#000000">LibBoard::Line</text>
</a>
</g>
</g>
<!-- Node4&#45;&gt;Node3 -->
<g id="edge1" class="edge">
<title>Node4&#45;&gt;Node3</title>
<path fill="none" stroke="#191970" d="M83.2595,-48.9099C73.3356,-38.986 61.1048,-26.7551 52.9248,-18.5752"/>
<polygon fill="#191970" stroke="#191970" points="81.0564,-51.6565 90.6023,-56.2527 86.0061,-46.7068 81.0564,-51.6565"/>
</g>
<!-- Node5 -->
<g id="node3" class="node">
<title>Node5</title>
<g id="a_node3"><a xlink:href="structLibBoard_1_1Shape.html" target="_top" xlink:title="Abstract structure for a 2D shape. ">
<polygon fill="#ffffff" stroke="#000000" points="131.5986,-121.5 131.5986,-139.5 222.1006,-139.5 222.1006,-121.5 131.5986,-121.5"/>
<text text-anchor="middle" x="176.8496" y="-127.5" font-family="FreeSans" font-size="10.00" fill="#000000">LibBoard::Shape</text>
</a>
</g>
</g>
<!-- Node5&#45;&gt;Node4 -->
<g id="edge2" class="edge">
<title>Node5&#45;&gt;Node4</title>
<path fill="none" stroke="#191970" d="M158.1678,-114.7297C143.4051,-102.2676 123.2974,-85.2936 110.9638,-74.8821"/>
<polygon fill="#191970" stroke="#191970" points="156.244,-117.686 166.1431,-121.462 160.7594,-112.337 156.244,-117.686"/>
</g>
<!-- Node6 -->
<g id="node4" class="node">
<title>Node6</title>
<g id="a_node4"><a xlink:title="STL class. ">
<polygon fill="#ffffff" stroke="#bfbfbf" points="50.1748,-242 50.1748,-260 109.5244,-260 109.5244,-242 50.1748,-242"/>
<text text-anchor="middle" x="79.8496" y="-248" font-family="FreeSans" font-size="10.00" fill="#000000">std::string</text>
</a>
</g>
</g>
<!-- Node6&#45;&gt;Node3 -->
<g id="edge8" class="edge">
<title>Node6&#45;&gt;Node3</title>
<path fill="none" stroke="#9a32cd" stroke-dasharray="5,2" d="M76.3582,-232.0187C70.516,-199.8131 58.6353,-132.3702 50.8496,-75 48.1429,-55.055 45.8493,-31.5754 44.6802,-18.8484"/>
<polygon fill="#9a32cd" stroke="#9a32cd" points="72.9169,-232.6577 78.1562,-241.8664 79.8031,-231.4004 72.9169,-232.6577"/>
<text text-anchor="middle" x="71.5269" y="-95" font-family="FreeSans" font-size="10.00" fill="#000000"> _name</text>
</g>
<!-- Node6&#45;&gt;Node4 -->
<g id="edge7" class="edge">
<title>Node6&#45;&gt;Node4</title>
<path fill="none" stroke="#9a32cd" stroke-dasharray="5,2" d="M80.6161,-231.684C81.7783,-206.2346 84.4105,-160.1187 89.4951,-121 91.6176,-104.6705 95.4136,-85.8716 97.7726,-74.877"/>
<polygon fill="#9a32cd" stroke="#9a32cd" points="77.1131,-231.6827 80.182,-241.8233 84.1066,-231.9822 77.1131,-231.6827"/>
<text text-anchor="middle" x="106.5269" y="-127.5" font-family="FreeSans" font-size="10.00" fill="#000000"> _name</text>
</g>
<!-- Node6&#45;&gt;Node5 -->
<g id="edge3" class="edge">
<title>Node6&#45;&gt;Node5</title>
<path fill="none" stroke="#9a32cd" stroke-dasharray="5,2" d="M89.0188,-232.6183C99.4725,-212.7967 117.9324,-180.9966 139.4951,-158 146.105,-150.9505 154.7259,-144.4675 162.0201,-139.5688"/>
<polygon fill="#9a32cd" stroke="#9a32cd" points="85.7673,-231.2879 84.3079,-241.7818 91.9928,-234.4884 85.7673,-231.2879"/>
<text text-anchor="middle" x="156.5269" y="-165" font-family="FreeSans" font-size="10.00" fill="#000000"> _name</text>
</g>
<!-- Node7 -->
<g id="node5" class="node">
<title>Node7</title>
<g id="a_node5"><a xlink:title="STL class. ">
<polygon fill="#ffffff" stroke="#bfbfbf" points="32.8018,-343.5 32.8018,-371.5 126.8975,-371.5 126.8975,-343.5 32.8018,-343.5"/>
<text text-anchor="start" x="40.8018" y="-359.5" font-family="FreeSans" font-size="10.00" fill="#000000">std::basic_string&lt;</text>
<text text-anchor="middle" x="79.8496" y="-349.5" font-family="FreeSans" font-size="10.00" fill="#000000"> char &gt;</text>
</a>
</g>
</g>
<!-- Node7&#45;&gt;Node6 -->
<g id="edge4" class="edge">
<title>Node7&#45;&gt;Node6</title>
<path fill="none" stroke="#191970" d="M79.8496,-333.002C79.8496,-309.787 79.8496,-276.1588 79.8496,-260.1435"/>
<polygon fill="#191970" stroke="#191970" points="76.3497,-333.1369 79.8496,-343.1369 83.3497,-333.137 76.3497,-333.1369"/>
</g>
<!-- Node8 -->
<g id="node6" class="node">
<title>Node8</title>
<g id="a_node6"><a xlink:href="classDGtal_1_1Color.html" target="_top" xlink:title="Structure representing an RGB triple with alpha component. ">
<polygon fill="#ffffff" stroke="#000000" points="141.3423,-242 141.3423,-260 212.3569,-260 212.3569,-242 141.3423,-242"/>
<text text-anchor="middle" x="176.8496" y="-248" font-family="FreeSans" font-size="10.00" fill="#000000">DGtal::Color</text>
</a>
</g>
</g>
<!-- Node8&#45;&gt;Node5 -->
<g id="edge5" class="edge">
<title>Node8&#45;&gt;Node5</title>
<path fill="none" stroke="#9a32cd" stroke-dasharray="5,2" d="M176.8496,-231.7038C176.8496,-205.368 176.8496,-159.2106 176.8496,-139.6622"/>
<polygon fill="#9a32cd" stroke="#9a32cd" points="173.3497,-231.9429 176.8496,-241.9429 180.3497,-231.9429 173.3497,-231.9429"/>
<text text-anchor="middle" x="201.3101" y="-170" font-family="FreeSans" font-size="10.00" fill="#000000"> _penColor</text>
<text text-anchor="middle" x="201.3101" y="-160" font-family="FreeSans" font-size="10.00" fill="#000000">_fillColor</text>
</g>
<!-- Node8&#45;&gt;Node8 -->
<g id="edge6" class="edge">
<title>Node8&#45;&gt;Node8</title>
<path fill="none" stroke="#9a32cd" stroke-dasharray="5,2" d="M199.8229,-263.2816C215.2761,-266.7976 230.3569,-262.7037 230.3569,-251 230.3569,-236.8672 208.3665,-233.8308 190.2845,-241.891"/>
<polygon fill="#9a32cd" stroke="#9a32cd" points="200.878,-259.9441 190.2845,-260.109 198.6687,-266.5863 200.878,-259.9441"/>
<text text-anchor="middle" x="249.8149" y="-298" font-family="FreeSans" font-size="10.00" fill="#000000"> Yellow</text>
<text text-anchor="middle" x="249.8149" y="-288" font-family="FreeSans" font-size="10.00" fill="#000000">Lime</text>
<text text-anchor="middle" x="249.8149" y="-278" font-family="FreeSans" font-size="10.00" fill="#000000">Navy</text>
<text text-anchor="middle" x="249.8149" y="-268" font-family="FreeSans" font-size="10.00" fill="#000000">Magenta</text>
<text text-anchor="middle" x="249.8149" y="-258" font-family="FreeSans" font-size="10.00" fill="#000000">White</text>
<text text-anchor="middle" x="249.8149" y="-248" font-family="FreeSans" font-size="10.00" fill="#000000">None</text>
<text text-anchor="middle" x="249.8149" y="-238" font-family="FreeSans" font-size="10.00" fill="#000000">Blue</text>
<text text-anchor="middle" x="249.8149" y="-228" font-family="FreeSans" font-size="10.00" fill="#000000">Aqua</text>
<text text-anchor="middle" x="249.8149" y="-218" font-family="FreeSans" font-size="10.00" fill="#000000">Purple</text>
<text text-anchor="middle" x="249.8149" y="-208" font-family="FreeSans" font-size="10.00" fill="#000000">Silver</text>
<text text-anchor="middle" x="249.8149" y="-198" font-family="FreeSans" font-size="10.00" fill="#000000">...</text>
</g>
</g>
</svg>
