<?xml version="1.0" standalone="no"?>
<!DOCTYPE svg PUBLIC "-//W3C//DTD SVG 1.1//EN" "http://www.w3.org/Graphics/SVG/1.1/DTD/svg11.dtd">
<svg xmlns="http://www.w3.org/2000/svg">
<defs >
<font id="Lora" horiz-adv-x="603" ><font-face
    font-family="Lora"
    units-per-em="1000"
    panose-1="0 0 8 0 0 0 0 0 0 0"
    ascent="1033"
    descent="-274"
    alphabetic="0" />
<glyph unicode=" " glyph-name="space" horiz-adv-x="263" />
<glyph unicode="!" glyph-name="exclam" horiz-adv-x="255" d="M182 716T199 694T216 641Q216 630 215 625L157 213H90L74 625Q72 660 93 688T149 716Q182 716 199 694ZM150 140T169 118T187 62Q185 30 162 7T110 -16Q82 -16 63 5T43 58Q43 91 66 115T119 140Q150
140 169 118Z" />
<glyph unicode="&quot;" glyph-name="quotedbl" horiz-adv-x="324" d="M144 491H65L69 716H164L144 491ZM287 491H208L212 716H307L287 491Z" />
<glyph unicode="#" glyph-name="numbersign" horiz-adv-x="842" d="M663 527H830V526L805 441H639L582 241H749L723 155H559L511 -16H407L456 155H286L238 -16H134L184 155H18L43 241H207L267 441H99L125 527H291L345 716H443L390 527H563L618 716H715L663 527ZM367
441L309 241H479L540 441H367Z" />
<glyph unicode="$" glyph-name="dollar" horiz-adv-x="570" d="M355 706Q402 693 434 668H435L434 709H511L499 476H433Q424 561 388 604T285 648Q243 648 215 623T185 558Q183 527 195 505T239 464T329 416Q392 387 433 361T502 295T531 197Q531 113 478 57T329
-13L321 -154H230L236 -13Q168 -1 112 33H111L113 -9H36L48 225H113Q122 142 165 100T280 57Q334 57 365 86T396 160Q396 190 378 211T333 247T256 281Q161 321 107 374T53 512Q53 558 72 603T137 680T263 716L270 837H363L355 706Z" />
<glyph unicode="%" glyph-name="percent" horiz-adv-x="885" d="M299 716T338 691T398 624T418 537Q418 482 392 433T321 355T223 325Q166 325 126 350T65 417T44 508Q44 558 68 606T139 685T245 716Q299 716 338 691ZM780 650L167 -17L105 44L710 716L780 650ZM197
648T181 605T164 518Q164 470 178 432T227 393Q264 393 281 436T298 525Q298 577 284 612T237 648Q197 648 181 605ZM729 375T768 350T828 283T848 196Q848 141 823 92T752 14T651 -16Q595 -16 555 8T495 74T474 163Q474 214 498 263T567 343T674 375Q729 375 768
350ZM626 307T610 264T593 177Q593 129 607 91T656 52Q693 52 710 95T728 185Q728 236 714 271T667 307Q626 307 610 264Z" />
<glyph unicode="&amp;" glyph-name="ampersand" horiz-adv-x="685" d="M367 716T413 700T484 654T509 589Q509 560 491 540T443 519Q415 519 399 535T380 579Q380 589 383 603T393 624Q369 648 322 648Q282 647 253 615T220 530Q218 484 246 449T340 413Q346 413
353 413T374 414L370 344L335 345Q262 346 219 303T175 190Q175 126 215 90T315 53Q405 53 451 103T508 230Q484 230 453 220T390 185L356 221Q385 264 409 285T462 315T536 323Q574 323 603 332T664 371L702 338Q674 288 647 265T569 234Q563 173 534 117T444
22T287 -16Q170 -16 96 35T22 185Q22 257 73 311T207 385V386Q146 398 110 433T74 518Q74 579 105 624T189 692T306 716Q367 716 413 700Z" />
<glyph unicode="&apos;" glyph-name="quotesingle" horiz-adv-x="188" d="M150 491H66L69 716H171L150 491Z" />
<glyph unicode="(" glyph-name="parenleft" horiz-adv-x="296" d="M170 -224T125 -150T49 17T19 210Q19 319 58 427T155 621T273 760L307 725Q257 662 223 569T172 386T152 239Q151 229 151 205Q151 98 175 -28T257 -236L219 -271Q170 -224 125 -150Z" />
<glyph unicode=")" glyph-name="parenright" horiz-adv-x="296" d="M119 713T164 639T240 472T270 279Q270 170 231 62T134 -132T16 -271L-18 -236Q32 -173 66 -80T117 103T137 250Q138 260 138 284Q138 391 114 517T32 725L70 760Q119 713 164 639Z" />
<glyph unicode="*" glyph-name="asterisk" horiz-adv-x="512" d="M328 716T328 657Q328 604 295 518Q362 564 410 581Q433 588 450 588Q485 588 494 556Q496 546 496 541Q496 504 438 486Q385 471 308 471Q372 423 398 385Q418 356 418 334Q418 313 396 296Q382
286 367 286Q340 286 315 323Q287 367 268 443Q234 356 208 326Q178 286 150 286Q136 286 123 296Q104 311 104 331Q104 352 127 383Q163 427 229 471Q150 471 101 486Q48 504 48 539Q48 550 52 559Q64 590 96 590Q113 590 138 581Q184 565 247 518Q228 585 228
635Q228 670 239 693T282 716Q328 716 328 657Z" />
<glyph unicode="+" glyph-name="plus" horiz-adv-x="506" d="M303 362L480 361L476 273H298L289 82H193L203 272H29L34 363L208 362L217 543H313L303 362Z" />
<glyph unicode="," glyph-name="comma" horiz-adv-x="249" d="M147 137T168 111T189 41Q189 -10 163 -68T86 -187L49 -159Q70 -133 91 -87T114 -1Q104 -4 93 -4Q65 -4 46 11T27 58Q27 91 49 114T105 137Q147 137 168 111Z" />
<glyph unicode="-" glyph-name="hyphen" horiz-adv-x="473" d="M418 265L50 261L56 366H424L418 265Z" />
<glyph unicode="." glyph-name="period" horiz-adv-x="233" d="M135 140T154 119T173 66Q173 32 152 8T98 -16Q66 -16 47 5T28 58Q28 91 51 115T105 140Q135 140 154 119Z" />
<glyph unicode="/" glyph-name="slash" horiz-adv-x="665" d="M677 697L51 -271L-20 -220L592 755L677 697Z" />
<glyph unicode="0" glyph-name="zero" horiz-adv-x="625" d="M426 716T482 668T565 543T591 382Q591 362 590 352Q586 264 550 179T449 39T296 -16Q206 -16 149 31T66 154T40 316Q40 337 41 347Q46 435 82 520T185 661T339 716Q426 716 482 668ZM266 648T232 570T191
368Q189 324 189 300Q189 52 306 52Q427 52 440 331Q442 358 442 411Q442 520 418 584T333 648Q266 648 232 570Z" />
<glyph unicode="1" glyph-name="one" horiz-adv-x="397" d="M284 164Q281 107 275 74Q307 77 350 77L346 0H62L65 66Q92 67 106 72T130 96T141 153L162 554L49 489L17 549L252 716H313L284 164Z" />
<glyph unicode="2" glyph-name="two" horiz-adv-x="522" d="M364 716T427 673T490 539Q490 500 472 462T402 371T254 242Q202 201 172 164T135 103L331 98Q368 96 388 110T410 163H473L457 0H19Q22 65 46 115T102 200T189 283Q269 353 303 411T338 527Q338 578
317 611T248 645Q222 645 199 633T164 603Q172 593 176 579T181 553Q181 529 163 508T110 487Q81 487 65 506T49 555Q49 587 76 625T155 689T275 716Q364 716 427 673Z" />
<glyph unicode="3" glyph-name="three" horiz-adv-x="546" d="M378 716T435 674T488 539Q486 510 470 478T419 420T332 382V381Q419 365 462 318T506 205Q506 100 430 42T229 -16Q160 -16 113 4T44 57T21 125Q21 158 41 182T94 207Q126 207 140 187T154 143Q153
132 149 120T136 97Q145 79 170 68T224 57Q287 57 322 97T357 201Q357 258 324 297T217 335Q201 335 165 332L168 404Q179 403 198 403Q263 403 301 437T344 528L345 546Q345 593 324 619T257 646Q231 646 209 634T176 604Q184 594 187 580T189 555Q188 533 171
512T122 491Q92 491 76 509T59 558Q59 590 84 627T159 690T277 716Q378 716 435 674Z" />
<glyph unicode="4" glyph-name="four" horiz-adv-x="533" d="M405 271H503L498 181H400V164Q396 96 391 74Q424 77 466 77L462 0H180L183 66Q210 67 224 72T248 96T259 153L260 181H0L5 275L368 716H429L405 271ZM277 494L97 274L265 273L278 494H277Z" />
<glyph unicode="5" glyph-name="five" horiz-adv-x="529" d="M468 603L154 597L145 419Q169 429 204 436T268 443Q347 443 400 413T477 331T499 218Q495 144 456 91T357 11T229 -16Q168 -16 123 3T53 53T29 117Q29 149 50 173T104 197Q136 197 150 177T163 133Q161
109 149 92Q155 76 178 66T225 55Q281 55 311 97T345 197Q346 205 346 224Q346 284 322 327T232 370Q208 370 176 361T110 333L69 366L83 700H342Q380 700 399 713T421 765H484L468 603Z" />
<glyph unicode="6" glyph-name="six" horiz-adv-x="560" d="M391 716T431 697T490 649T509 587Q509 557 491 534T442 511Q408 511 393 530T379 574Q382 602 396 618Q389 630 373 638T335 646Q267 646 231 569T188 390Q206 411 248 428T328 446Q429 446 476 384T517
215Q514 152 480 99T388 15T262 -16Q144 -16 92 57T40 269Q40 286 42 322Q45 397 73 488T165 647T333 716Q391 716 431 697ZM255 366T227 347T183 300Q182 290 182 267Q182 183 203 119T271 54Q319 54 341 92T367 190L368 221Q368 280 351 323T286 366Q255 366
227 347Z" />
<glyph unicode="7" glyph-name="seven" horiz-adv-x="460" d="M462 609Q402 497 365 396T276 121L258 60Q235 -16 183 -16Q154 -16 141 0T127 39Q127 61 140 96T206 243T343 527L378 599L167 601Q131 602 111 586T88 530H25L42 700H467L462 609Z" />
<glyph unicode="8" glyph-name="eight" horiz-adv-x="562" d="M363 716T408 697T481 641T509 554Q509 504 471 458T381 382V381Q519 293 519 181Q519 116 484 72T389 6T261 -16Q210 -16 160 0T77 53T44 148Q44 205 86 258T186 344V345Q126 384 99 432T74 525Q77
587 113 630T203 694T311 716Q363 716 408 697ZM271 646T243 618T215 548Q215 511 245 475T318 422Q350 445 373 479T400 542Q404 590 380 618T315 646Q271 646 243 618ZM214 280T192 240T167 168Q166 163 166 155Q166 111 195 83T268 54Q316 54 345 83T374 156Q374
247 252 309Q214 280 192 240Z" />
<glyph unicode="9" glyph-name="nine" horiz-adv-x="561" d="M419 716T472 637T526 420Q526 392 525 378Q518 225 453 105T233 -16Q144 -16 101 19T58 107Q58 138 77 163T127 189Q161 189 175 170T188 126Q187 116 183 103T171 83Q178 71 194 63T232 55Q303 55
341 130T380 311Q361 290 320 272T243 254Q146 254 98 312T49 466Q49 538 80 595T169 684T301 716Q419 716 472 637ZM253 646T228 606T201 510Q200 501 200 478Q200 419 218 377T283 334Q313 334 341 353T384 400Q386 438 386 455Q386 542 365 594T296 646Q253
646 228 606Z" />
<glyph unicode=":" glyph-name="colon" horiz-adv-x="262" d="M162 140T181 119T200 66Q200 32 179 8T125 -16Q93 -16 74 5T55 58Q55 91 78 115T132 140Q162 140 181 119ZM162 543T181 522T200 469Q200 435 179 411T125 387Q93 387 74 408T55 461Q55 494 78 518T132
543Q162 543 181 522Z" />
<glyph unicode=";" glyph-name="semicolon" horiz-adv-x="270" d="M167 137T188 111T209 41Q209 -10 183 -68T106 -187L69 -159Q90 -133 111 -87T134 -1Q124 -4 113 -4Q85 -4 66 11T47 58Q47 91 69 114T125 137Q167 137 188 111ZM168 543T187 522T206 469Q206
435 185 411T131 387Q99 387 80 408T61 461Q61 494 84 518T138 543Q168 543 187 522Z" />
<glyph unicode="&lt;" glyph-name="less" horiz-adv-x="534" d="M487 455L160 315V314L473 175L467 71L27 267L32 358L493 558L487 455Z" />
<glyph unicode="=" glyph-name="equal" horiz-adv-x="571" d="M518 451L514 360L63 359L68 452L518 451ZM508 262L504 172L53 170L59 264L508 262Z" />
<glyph unicode="&gt;" glyph-name="greater" horiz-adv-x="533" d="M49 174L376 314V315L63 454L69 558L509 362L504 271L43 71L49 174Z" />
<glyph unicode="?" glyph-name="question" horiz-adv-x="485" d="M368 716T417 674T466 566Q466 525 445 489T396 427T321 365Q280 334 262 316T243 279Q243 266 252 258T282 250Q296 250 312 254L325 203Q302 191 275 186T225 181Q190 181 166 197T142 245Q142
272 158 296T230 373Q276 416 298 454T321 549Q321 646 239 646Q216 646 194 636T161 614Q169 606 173 593T177 567Q177 543 159 520T109 497Q78 497 62 515T45 563Q45 599 74 634T153 693T262 716Q368 716 417 674ZM264 140T283 119T302 66Q302 33 279 9T225 -16Q197
-16 177 5T157 58Q157 91 180 115T234 140Q264 140 283 119Z" />
<glyph unicode="@" glyph-name="at" horiz-adv-x="767" d="M521 637T591 595T697 482T733 332Q733 248 701 189T621 101T526 71Q431 71 431 168Q431 188 433 200Q404 136 369 106T298 76Q255 76 228 108T201 204Q201 274 230 338T314 444T443 485Q493 485 559
464Q537 350 524 275T511 172Q511 148 519 134T548 119Q585 119 610 150T648 227T663 312Q667 400 636 464T547 561T415 594Q329 594 259 544T148 412T107 239Q107 148 145 83T249 -16T396 -50Q460 -50 527 -23T643 55L664 28Q604 -35 528 -67T369 -99Q260 -99
184 -54T69 66T30 233L31 256Q36 345 85 433T221 579T422 637Q521 637 591 595ZM384 432T357 396T314 308T298 208Q298 178 306 162T329 145Q353 145 380 192T428 307T455 432Q442 437 418 435Q384 432 357 396Z" />
<glyph unicode="A" glyph-name="A" horiz-adv-x="667" d="M569 173Q590 103 592 74Q624 77 649 77L646 0H378L382 66Q433 66 433 109Q433 123 424 154L407 209L188 205L169 158Q147 103 133 77Q166 80 207 80L202 0H-12L-8 69Q18 69 35 84T64 120T94 183L317 718H384L569
173ZM314 542Q306 503 268 410L217 280H385L346 405Q320 493 315 542H314Z" />
<glyph unicode="B" glyph-name="B" horiz-adv-x="659" d="M461 703T526 662T591 542Q591 528 590 520Q584 473 547 435T442 379V378Q536 363 581 314T624 199Q619 104 550 52T373 0H35L39 66Q65 67 79 72T103 96T114 153L134 536Q137 593 143 626L68 623L72 700L347
702Q461 703 526 662ZM322 632T309 627T288 604T277 548L269 393L321 394Q384 395 412 435T440 538Q440 587 412 609T343 632Q322 632 309 627ZM291 323T265 322L257 159Q254 105 248 71Q314 71 346 72Q407 75 438 112T469 212Q469 270 434 296T346 323Q291 323
265 322Z" />
<glyph unicode="C" glyph-name="C" horiz-adv-x="690" d="M448 716T493 703T577 667H578L577 709H654L642 476H576Q567 560 527 604T416 648Q345 648 295 602T219 484T193 331Q193 210 246 135T394 60Q457 60 520 91T632 184L671 144Q601 53 521 19T362 -16Q265
-16 191 28T77 148T37 318Q37 416 80 508T208 658T408 716Q448 716 493 703Z" />
<glyph unicode="D" glyph-name="D" horiz-adv-x="755" d="M482 701T563 655T684 534T723 374Q723 285 680 199T546 57T319 0H35L39 66Q65 67 79 72T103 96T114 153L134 536Q137 593 143 626L68 623L72 700L361 701Q482 701 563 655ZM311 634T296 617T277 549L257
164Q253 99 249 74Q254 75 268 75L311 74Q324 73 344 73Q414 73 463 110T537 206T566 336Q567 348 567 370Q567 505 509 569T345 634Q311 634 296 617Z" />
<glyph unicode="E" glyph-name="E" horiz-adv-x="623" d="M565 506H500Q503 580 469 608T385 635L349 634Q325 633 311 628T288 603T277 547L270 397H387V484H464L452 241H386Q388 281 377 300T345 324T292 329L266 328L257 164Q254 102 249 76H383Q434 76 471
110T512 220H578L561 0H35L39 66Q65 67 79 72T103 96T114 153L134 536Q137 593 143 626L68 623L72 700H570L565 506Z" />
<glyph unicode="F" glyph-name="F" horiz-adv-x="566" d="M565 506H500Q503 580 469 608T385 635L349 634Q325 633 311 628T288 603T277 547L268 373H372Q371 393 371 408T372 434V459H449L436 216H370Q372 256 361 275T329 300T277 304H265L257 164Q253 99 249
74Q280 77 337 77L333 0H35L39 66Q65 67 79 72T103 96T114 153L134 536Q137 593 143 626L68 623L72 700H570L565 506Z" />
<glyph unicode="G" glyph-name="G" horiz-adv-x="756" d="M449 716T503 703T593 667H594L593 709H670L658 476H592Q583 557 536 600T416 644Q345 644 295 599T219 482T193 330Q193 209 244 136T390 63Q422 63 465 70T535 90L540 183Q544 248 548 273Q522 271 499
271L473 270L477 347H740L737 281Q712 280 698 274T676 250T666 194L658 34H633Q610 34 588 29T528 13Q477 -1 442 -8T361 -16Q260 -16 187 27T76 145T38 314Q38 413 80 505T206 657T406 716Q449 716 503 703Z" />
<glyph unicode="H" glyph-name="H" horiz-adv-x="802" d="M771 634Q744 633 730 628T706 604T695 547L675 164Q672 107 666 74Q699 77 741 77L737 0H453L456 66Q483 67 497 72T521 96T532 153L541 315L265 312L257 164Q253 99 249 74Q280 77 324 77L320 0H35L39
66Q65 67 79 72T103 96T114 153L134 536Q137 593 143 626L68 623L72 700H356L353 634Q326 633 312 628T288 604T277 547L269 391H544L552 536Q556 604 561 626L485 623L489 700H774L771 634Z" />
<glyph unicode="I" glyph-name="I" horiz-adv-x="384" d="M353 634Q326 633 312 628T288 604T277 547L257 164Q253 99 249 74Q280 77 324 77L320 0H35L39 66Q65 67 79 72T103 96T114 153L134 536Q137 593 143 626L68 623L72 700H356L353 634Z" />
<glyph unicode="J" glyph-name="J" horiz-adv-x="445" d="M437 634Q410 633 396 628T372 604T361 547L346 254Q338 113 283 49T125 -16Q67 -16 28 12T-11 85Q-11 122 10 148T68 174Q99 174 114 156T130 109Q130 92 120 72Q123 63 132 60T149 56Q171 56 183 75T197
135L218 536Q221 593 227 626L147 623L151 700H440L437 634Z" />
<glyph unicode="K" glyph-name="K" horiz-adv-x="711" d="M681 634Q638 632 600 612T521 532L417 378V377Q454 353 476 319L570 174Q602 125 633 96T696 66L692 0H540Q528 1 498 35T447 102L356 246Q318 302 301 315H265L257 164Q253 99 249 74Q280 77 324 77L320
0H35L39 66Q65 67 79 72T103 96T114 153L134 536Q137 593 143 626L68 623L72 700H356L353 634Q326 633 312 628T288 604T277 547L269 395H342L425 526Q452 567 469 592T499 626V627Q477 625 461 625T436 623L439 700H684L681 634Z" />
<glyph unicode="L" glyph-name="L" horiz-adv-x="606" d="M353 634Q326 633 312 628T288 604T277 547L257 164Q254 102 249 76H383Q443 77 478 118T518 240H584L566 0H35L39 66Q65 67 79 72T103 96T114 153L134 536Q137 593 143 626L68 623L72 700H356L353 634Z" />
<glyph unicode="M" glyph-name="M" horiz-adv-x="970" d="M932 634Q905 633 890 628T866 604T856 547L851 164Q851 112 842 74Q875 77 918 77L914 0H634L638 66Q665 67 680 72T704 96T713 153L716 365Q717 389 717 542H716L487 -10H397L275 319Q262 352 244 416T216
535H215L214 492Q209 359 208 345L197 164Q194 107 188 74Q221 77 264 77L260 0H32L36 66Q63 67 77 72T99 96T111 153L137 536Q143 610 146 626L70 623L75 700H289L426 312Q443 261 462 194L474 150H475L502 216Q511 240 518 257T530 287L703 700H936L932 634Z"
/>
<glyph unicode="N" glyph-name="N" horiz-adv-x="772" d="M757 634Q730 633 716 628T692 604T681 547L651 -10H566L268 401Q240 440 217 476H216L202 164Q199 107 193 74Q226 77 269 77L264 0H36L40 66Q67 67 81 72T105 96T116 153L133 536Q136 593 142 626L66
623L71 700H228L513 313Q538 278 578 217H579L595 536Q598 593 604 626L528 623L533 700H760L757 634Z" />
<glyph unicode="O" glyph-name="O" horiz-adv-x="762" d="M516 716T589 666T696 537T730 371Q730 281 688 192T564 43T365 -16Q251 -16 178 32T72 156T39 322Q39 341 40 350Q44 439 87 523T212 661T406 716Q516 716 589 666ZM323 648T278 599T213 478T193 335Q193
267 211 203T271 95T378 52Q443 52 486 94T551 200T576 333Q577 345 577 369Q577 497 531 572T394 648Q323 648 278 599Z" />
<glyph unicode="P" glyph-name="P" horiz-adv-x="632" d="M483 703T555 653T628 500Q628 483 627 475Q622 419 588 370T490 288T334 253L295 252L262 253L257 165Q253 99 249 74Q280 77 333 77L330 0H35L39 66Q65 67 79 72T103 96T114 153L134 536Q137 593 143
626L68 623L72 700L354 702Q483 703 555 653ZM314 632T297 617T277 553L266 328Q287 325 311 325Q392 325 431 365T476 484Q483 632 349 632Q314 632 297 617Z" />
<glyph unicode="Q" glyph-name="Q" horiz-adv-x="764" d="M517 716T590 666T698 538T733 372Q733 301 706 228T624 95T491 6V5Q537 5 566 -5T630 -51L670 -90Q712 -131 727 -141T767 -151L763 -218H722Q672 -218 647 -215T601 -200T552 -164Q535 -149 517 -130T492
-102Q451 -56 423 -36T355 -16Q244 -16 173 32T70 158T38 324L39 350Q44 439 87 523T213 661T407 716Q517 716 590 666ZM324 643T279 596T214 479T193 338Q193 269 211 206T270 100T378 57Q443 57 486 98T551 202T576 333Q577 347 577 373Q577 498 532 570T395
643Q324 643 279 596Z" />
<glyph unicode="R" glyph-name="R" horiz-adv-x="681" d="M485 703T555 658T626 512Q626 496 625 487Q620 421 573 370T440 294V293Q457 286 475 269T506 230L549 160Q581 106 602 87T656 66L652 0H490Q462 21 421 94L354 214Q334 250 315 272H263L257 165Q253
99 249 74Q280 77 333 77L330 0H35L39 66Q65 67 79 72T103 96T114 153L134 536Q137 593 143 626L68 623L72 700L354 702Q485 703 555 658ZM314 632T297 617T277 553L267 348Q297 344 315 344Q401 344 439 384T478 508Q478 584 438 608T349 632Q314 632 297 617Z"
/>
<glyph unicode="S" glyph-name="S" horiz-adv-x="600" d="M343 716T389 704T465 668H466L465 709H542L530 476H464Q455 558 413 601T302 644Q256 644 222 618T188 553Q188 511 223 481T342 417Q406 390 452 362T530 290T559 186Q556 127 522 81T427 10T291 -16Q251
-16 205 -3T121 33H120L121 -9H44L56 225H122Q131 143 178 100T298 56Q352 56 387 85T423 155Q423 186 402 208T352 244T270 280Q166 322 111 374T56 511Q56 559 79 605T158 684T300 716Q343 716 389 704Z" />
<glyph unicode="T" glyph-name="T" horiz-adv-x="648" d="M644 474H578Q582 553 552 593T463 633H415L391 164Q388 107 382 74Q414 77 462 77L458 0H168L172 66Q199 67 213 72T237 96T248 153L273 632H227Q168 631 134 592T95 474H29L46 700H650L644 474Z" />
<glyph unicode="U" glyph-name="U" horiz-adv-x="755" d="M752 634Q726 633 712 628T688 604T677 547L664 297Q655 133 576 59T367 -16Q220 -16 158 58T96 260Q96 282 97 294L110 536Q114 604 119 626L43 623L47 700H333L329 634Q302 633 288 628T264 604T253
547L239 272L238 246Q238 60 396 60Q476 60 521 113T573 274L587 536Q591 604 596 626L521 623L524 700H756L752 634Z" />
<glyph unicode="V" glyph-name="V" horiz-adv-x="702" d="M722 634Q687 632 661 608T611 527L383 -6H305L102 531Q78 598 79 626L25 623L29 700H320L317 634Q249 636 249 589Q249 575 255 557L335 331Q348 294 360 257L384 187H385Q395 209 417 265L441 326L528
535Q530 539 543 573T573 626L574 627L522 624L497 623L500 700H726L722 634Z" />
<glyph unicode="W" glyph-name="W" horiz-adv-x="1010" d="M1030 634Q994 632 967 608T918 527L727 -6H640L540 352Q530 386 523 425T511 500H510Q493 423 474 369L340 -6H256L105 533Q81 600 82 626L29 623L33 700H325L321 634Q288 635 272 625T255 587Q255 576
258 559L307 331Q310 312 314 298Q327 233 333 189H334Q347 233 367 294T401 394L510 700H600L694 332Q706 286 722 188H723L769 326L835 535Q858 602 881 626V627L829 624L804 623L808 700H1033L1030 634Z" />
<glyph unicode="X" glyph-name="X" horiz-adv-x="700" d="M668 634Q634 630 599 603T521 521L418 390L594 150Q609 130 623 110T644 74Q677 77 683 77L679 0H382L386 66Q443 66 443 91Q443 106 422 134L328 263H327L233 142Q195 93 174 74V73Q218 77 246 77L242
0H21L25 66Q54 73 84 98T154 173L279 328L128 532Q89 584 73 626Q79 626 33 623L37 700H339L335 634Q272 634 272 604Q272 588 289 566L371 453H372L453 558Q487 601 515 626V627L464 624L440 623L444 700H672L668 634Z" />
<glyph unicode="Y" glyph-name="Y" horiz-adv-x="665" d="M681 634Q646 629 620 606T562 527L418 277L413 164Q410 107 404 74Q436 77 484 77L480 0H190L194 66Q221 67 235 72T259 96T270 153L274 240L105 531Q91 555 81 582T72 626L23 623L27 700H319L316 634Q282
636 262 626T242 593Q242 579 253 557L323 432Q325 427 343 393T368 335H370Q383 362 390 373L421 433L479 535Q490 555 507 583T536 626V627L484 624L459 623L463 700H684L681 634Z" />
<glyph unicode="Z" glyph-name="Z" d="M576 625L265 189Q213 116 173 71L172 70L355 66Q414 65 449 100T489 214H555L538 0H25L29 75L353 531Q394 591 427 629L428 630L256 635Q197 637 162 601T122 487H56L73 700H580L576 625Z" />
<glyph unicode="[" glyph-name="bracketleft" horiz-adv-x="388" d="M402 684L209 681L160 -181L359 -184L355 -255H32L86 755H406L402 684Z" />
<glyph unicode="\" glyph-name="backslash" horiz-adv-x="792" d="M740 -220L669 -271L44 697L128 755L740 -220Z" />
<glyph unicode="]" glyph-name="bracketright" horiz-adv-x="388" d="M-21 -184L172 -181L221 681L22 684L26 755H349L295 -255H-25L-21 -184Z" />
<glyph unicode="^" glyph-name="asciicircum" horiz-adv-x="828" d="M757 437H623L403 646H402L182 441H54L362 716H451L757 437Z" />
<glyph unicode="_" glyph-name="underscore" horiz-adv-x="835" d="M696 -54V-151H82V-50L696 -54Z" />
<glyph unicode="`" glyph-name="grave" horiz-adv-x="277" d="M70 672Q59 684 52 699T45 728Q45 752 64 770Q82 782 99 782Q115 782 129 773T154 746L232 606L184 565L70 672Z" />
<glyph unicode="a" glyph-name="a" horiz-adv-x="549" d="M382 511T471 490L463 437Q461 419 443 291T425 111Q425 82 439 82Q468 82 490 161L544 145Q533 88 499 39T405 -11Q325 -11 325 80Q325 115 329 138H328Q294 56 251 23T158 -11Q100 -11 63 35T25 171Q25
264 61 341T165 465T327 511Q382 511 471 490ZM232 445T197 373T162 166Q162 125 172 102T200 78Q234 78 262 134T309 275T331 439Q310 445 290 445Q232 445 197 373Z" />
<glyph unicode="b" glyph-name="b" horiz-adv-x="513" d="M216 689T208 591L204 551L200 513Q193 437 186 393H187Q218 453 258 482T335 511Q406 511 442 457T478 320Q478 173 412 81T207 -11Q176 -11 129 -4T47 16Q53 187 62 332T73 513L76 560Q78 610 84 652L15
649L19 725Q81 725 119 734T171 755H225Q216 689 208 591ZM263 419T236 370T191 240T172 64Q180 60 195 58T221 55Q293 55 317 137T341 325Q341 375 328 397T295 419Q263 419 236 370Z" />
<glyph unicode="c" glyph-name="c" horiz-adv-x="467" d="M343 511T389 478T435 391Q435 360 417 341T369 322Q339 322 324 341T309 381Q309 404 319 423Q314 432 301 438T271 445Q212 445 188 374T164 220Q164 147 191 114T256 81Q290 81 324 104T384 185L441
157Q401 65 347 28T223 -11Q132 -10 80 44T27 207Q27 276 55 346T139 464T273 511Q343 511 389 478Z" />
<glyph unicode="d" glyph-name="d" horiz-adv-x="564" d="M473 435L460 318Q440 156 440 111Q440 82 455 82Q481 82 503 161L558 145Q546 86 513 38T422 -11Q342 -11 342 80Q342 109 346 140H345Q312 59 267 24T176 -11Q103 -11 66 42T28 180Q28 330 97 420T305
511Q333 511 353 509L358 559Q363 618 369 652L299 649L303 725Q366 725 404 734T456 755H510L473 435ZM218 445T191 360T164 181Q164 131 177 106T213 80Q264 80 298 180T345 437Q339 440 322 442T292 445Q218 445 191 360Z" />
<glyph unicode="e" glyph-name="e" horiz-adv-x="470" d="M349 511T389 480T430 385Q430 312 354 275T164 222Q164 144 190 113T254 81Q288 81 324 101T384 177L440 150Q400 58 346 24T224 -11Q131 -11 79 44T27 207Q27 277 55 347T140 464T280 511Q349 511 389
480ZM223 445T199 399T167 287Q243 301 278 329T313 397Q313 421 300 433T269 445Q223 445 199 399Z" />
<glyph unicode="f" glyph-name="f" horiz-adv-x="353" d="M373 760T398 740T423 686Q423 665 408 645T363 625Q342 625 327 640T311 678L312 687Q308 689 299 689Q269 689 257 638T237 500H366L359 431L233 429Q227 330 217 199T197 -11Q167 -271 -20 -271Q-65
-271 -90 -252T-115 -199Q-115 -177 -100 -157T-55 -136Q-34 -136 -19 -151T-3 -189L-4 -198Q2 -200 9 -200Q39 -200 51 -149T71 -11Q79 76 90 244L104 428L24 427L33 500H113Q142 760 329 760Q373 760 398 740Z" />
<glyph unicode="g" glyph-name="g" horiz-adv-x="520" d="M345 511T387 506T470 490Q465 396 456 259T438 40Q424 -111 365 -191T182 -271Q106 -271 63 -244T19 -168Q19 -142 36 -119T86 -95Q113 -95 131 -112T149 -158Q149 -175 143 -188Q147 -195 162 -200T191
-205Q246 -205 269 -162T302 -33Q315 66 336 138H335Q300 56 258 23T165 -11Q106 -11 67 36T27 171Q27 267 58 344T154 466T317 511Q345 511 387 506ZM226 444T195 374T163 166Q163 126 175 102T206 78Q240 78 269 134T316 275T339 439Q333 441 319 443T293 445Q226
444 195 374Z" />
<glyph unicode="h" glyph-name="h" horiz-adv-x="574" d="M228 700Q218 612 210 551Q207 522 200 464T182 360H183Q215 443 259 477T354 511Q416 511 446 471T476 357Q476 321 464 233Q451 151 451 108Q451 82 466 82Q492 82 514 161L568 145Q562 112 543 76T491
15T417 -11Q364 -11 343 17T322 102Q322 147 336 255Q338 272 342 313T347 377Q347 400 341 409T319 419Q290 419 257 362T202 223T179 72Q179 48 182 0H54Q51 28 51 48Q51 163 60 311T82 559Q87 616 95 652L25 649L29 725Q92 725 130 734T181 755H235L228 700Z"
/>
<glyph unicode="i" glyph-name="i" horiz-adv-x="344" d="M223 763T243 741T263 684Q263 648 241 624T185 599Q152 599 132 621T111 676Q111 711 135 737T191 763Q223 763 243 741ZM206 511T227 481T249 395Q249 365 241 305T231 227Q229 214 223 170T217 108Q217
82 232 82Q259 82 281 161L335 145Q329 112 309 76T257 15T183 -11Q130 -11 109 17T87 102Q87 147 105 261Q120 359 120 392Q120 418 104 418Q78 418 56 339L2 355Q8 387 28 423T81 485T156 511Q206 511 227 481Z" />
<glyph unicode="j" glyph-name="j" horiz-adv-x="313" d="M228 763T248 741T268 684Q268 648 246 624T189 599Q157 599 137 621T116 676Q116 711 140 737T196 763Q228 763 248 741ZM252 511T254 395Q256 280 243 134Q227 -40 173 -155T-10 -271Q-55 -271 -81 -251T-108
-197Q-108 -175 -93 -155T-48 -134Q-27 -134 -11 -149T5 -189Q5 -198 4 -203Q8 -205 19 -205Q87 -204 115 145Q125 292 125 392Q125 418 110 418Q84 418 62 339L7 355Q14 388 33 424T83 485T157 511Q252 511 254 395Z" />
<glyph unicode="k" glyph-name="k" horiz-adv-x="518" d="M233 697Q218 593 210 521Q205 470 190 391H191Q222 453 265 482T351 511Q405 511 432 483T459 405Q459 371 440 335T379 267T269 222V221Q307 220 326 203T356 158Q373 119 382 104T404 88Q427 88 447
157L501 140Q488 79 454 34T370 -11Q325 -11 298 17T243 118Q226 166 216 184T188 198Q182 171 179 134T176 67Q176 27 179 0H49Q46 28 46 49Q46 96 57 254T87 559Q92 605 102 652L30 649L34 725Q97 725 135 734T187 755H241L233 697ZM295 445T272 423T227 359T195
262Q267 262 303 298T339 401Q339 421 333 433T313 445Q295 445 272 423Z" />
<glyph unicode="l" glyph-name="l" horiz-adv-x="303" d="M241 734T238 710T232 660Q205 422 191 286T176 111Q176 82 190 82Q217 82 239 161L293 145Q277 81 241 35T139 -11Q100 -11 75 12T49 85Q49 165 59 272T91 559Q97 612 104 652L34 649L38 725Q100 725
137 734T189 755H243Q241 734 238 710Z" />
<glyph unicode="m" glyph-name="m" horiz-adv-x="878" d="M721 511T750 471T780 357Q780 321 768 233Q755 151 755 108Q755 82 770 82Q796 82 818 161L873 145Q866 112 847 76T795 15T721 -11Q668 -11 648 17T627 102Q627 147 641 255Q643 272 647 313T652 377Q652
400 646 409T624 419Q595 419 564 364T511 227T490 77Q490 38 493 0H364Q361 28 361 67Q361 126 367 191T375 266Q384 347 384 377Q384 400 378 409T356 419Q327 419 294 362T239 223T217 72Q217 48 220 0H92Q89 28 89 48Q89 80 96 141T111 262Q113 280 119 327T125
392Q125 418 111 418Q85 418 63 339L8 355Q21 415 52 463T142 511Q179 511 202 490T226 420Q226 401 224 385T220 360H221Q253 443 299 477T395 511Q443 511 468 481T493 396Q493 373 491 360H492Q551 511 659 511Q721 511 750 471Z" />
<glyph unicode="n" glyph-name="n" horiz-adv-x="610" d="M454 511T483 471T512 357Q512 321 500 233Q487 151 487 108Q487 82 502 82Q528 82 550 161L604 145Q598 112 579 76T527 15T453 -11Q400 -11 380 17T359 102Q359 147 373 255Q375 272 379 313T384 377Q384
400 378 409T356 419Q327 419 295 362T240 223T218 72Q218 48 221 0H92Q89 28 89 48Q89 80 96 141T111 262Q113 280 119 327T125 392Q125 418 111 418Q85 418 63 339L8 355Q21 415 52 463T142 511Q179 511 202 490T226 420Q226 401 224 385T220 360H221Q280 511
392 511Q454 511 483 471Z" />
<glyph unicode="o" glyph-name="o" horiz-adv-x="515" d="M336 511T381 485T453 408T480 288Q480 208 450 140T362 30T229 -11Q132 -11 80 53T28 216Q28 296 59 363T147 471T279 511Q336 511 381 485ZM234 445T212 418T177 345T164 244Q164 170 183 113T245 55Q279
55 300 90T332 175T342 273Q342 342 324 393T263 445Q234 445 212 418Z" />
<glyph unicode="p" glyph-name="p" horiz-adv-x="575" d="M464 511T502 459T541 320Q541 223 510 149T415 32T259 -11Q238 -11 227 -10L223 -92Q220 -142 215 -182Q247 -179 281 -179V-255H28V-190Q62 -190 74 -168T91 -100Q126 278 126 389Q126 418 111 418Q85
418 63 339L9 355Q20 414 52 462T143 511Q180 511 202 490T225 420Q225 391 221 360H222Q254 442 300 476T393 511Q464 511 502 459ZM307 420T276 329T231 61Q252 55 271 55Q323 55 353 100T394 206T405 319Q405 420 356 420Q307 420 276 329Z" />
<glyph unicode="q" glyph-name="q" horiz-adv-x="522" d="M344 511T390 506T475 494L432 -93Q429 -141 424 -182Q457 -179 492 -179V-255H239V-190Q265 -190 277 -180T294 -152T302 -102L310 -10Q317 70 323 106H322Q287 38 249 14T169 -11Q101 -11 64 44T27 179Q27
273 58 348T153 467T314 511Q344 511 390 506ZM225 445T195 371T164 185Q164 130 179 105T215 80Q245 80 273 134T321 272T342 439Q337 442 323 443T300 445Q225 445 195 371Z" />
<glyph unicode="r" glyph-name="r" horiz-adv-x="459" d="M419 511T442 490T465 435Q465 408 446 388T398 367Q375 367 359 381T343 419Q316 422 287 366T239 226T220 72Q220 48 223 0H92Q89 28 89 48Q89 80 96 141T111 262Q113 280 119 327T125 392Q125 418 111
418Q85 418 63 339L8 355Q21 415 52 463T142 511Q179 511 202 490T226 420Q226 385 216 331H217Q254 434 295 472T381 511Q419 511 442 490Z" />
<glyph unicode="s" glyph-name="s" horiz-adv-x="446" d="M274 511T313 498T376 459T401 401Q401 374 384 355T338 335Q312 335 295 353T278 396Q278 412 284 425Q276 435 260 440T229 445Q205 445 184 431T162 393Q162 378 168 368T193 345T255 307Q306 278 333
259T382 211T404 143Q404 99 377 64T304 9T200 -11Q126 -11 74 21T21 105Q21 135 39 155T85 175Q112 175 129 157T146 113Q146 98 140 83Q145 73 166 64T203 55Q244 55 263 72T282 117Q282 134 269 149T231 179T181 208Q104 252 74 284T43 367Q43 403 65 436T131
490T233 511Q274 511 313 498Z" />
<glyph unicode="t" glyph-name="t" horiz-adv-x="395" d="M233 500H358L352 431L227 429Q217 350 209 267T201 151Q201 124 210 105T249 85Q268 85 293 98T339 148L390 116Q357 53 308 21T202 -11Q127 -11 100 33T75 151Q81 278 98 428L18 427L27 500Q97 500 134
540T186 651H253L233 500Z" />
<glyph unicode="u" glyph-name="u" horiz-adv-x="598" d="M203 511T224 483T245 398Q245 353 231 245Q219 149 219 123Q219 101 225 91T247 81Q274 81 305 138T358 277T380 428Q380 476 377 500H506Q509 472 509 452Q509 420 502 359T487 238Q472 129 472 108Q472
82 486 82Q512 82 534 161L588 145Q577 86 545 38T455 -11Q418 -11 395 10T371 80Q371 98 373 116T376 145H375Q316 -11 211 -11Q149 -11 120 29T91 143Q91 175 97 217T104 268Q117 350 117 392Q117 418 101 418Q75 418 53 339L-1 355Q5 388 24 424T76 485T150
511Q203 511 224 483Z" />
<glyph unicode="v" glyph-name="v" horiz-adv-x="523" d="M423 511T457 459T492 329Q492 257 459 177T365 43T225 -11Q98 -11 98 145Q98 174 107 289Q114 363 114 392Q114 418 98 418Q72 418 50 339L-4 355Q2 388 21 424T73 485T147 511Q200 511 221 480T243 395Q243
343 233 235Q225 145 225 121Q225 64 261 64Q297 65 334 100T394 194T418 320Q418 342 411 364T393 397Q369 379 347 379Q323 379 304 395T285 441Q285 467 303 489T361 511Q423 511 457 459Z" />
<glyph unicode="w" glyph-name="w" horiz-adv-x="795" d="M696 511T730 459T765 329Q765 256 728 176T626 43T484 -11Q431 -11 407 19T382 101Q382 123 384 135H383Q363 59 318 24T216 -11Q94 -11 94 145Q94 170 98 210T107 289Q117 373 117 392Q117 418 101 418Q74
418 52 339L-2 355Q4 388 23 424T75 485T149 511Q203 511 224 480T246 395Q246 343 232 235Q222 145 222 121Q222 97 227 81T250 64Q295 64 322 125T362 271T374 428Q374 452 371 500H500Q502 472 502 452Q502 411 489 259Q479 145 479 121Q479 101 488 83T519
64Q554 64 594 100T663 196T691 320Q691 342 684 364T666 397Q642 379 620 379Q596 379 577 395T558 441Q558 467 576 489T634 511Q696 511 730 459Z" />
<glyph unicode="x" glyph-name="x" horiz-adv-x="543" d="M467 511T484 493T502 443Q502 418 484 399T439 380Q408 380 391 401Q377 390 363 364T322 274Q357 177 389 120Q400 99 409 91T427 82Q442 82 451 97T465 157L521 149Q515 87 485 38T383 -11Q342 -11
315 15T270 86L238 161H237Q213 90 190 52T145 2T96 -11Q60 -11 38 8T16 58Q16 88 34 108T79 128Q101 128 115 117T135 91Q149 100 165 135T208 251Q195 287 186 314Q182 324 175 346T160 384Q151 404 143 411T124 418Q91 418 82 343L26 351Q32 410 67 460T173
511Q212 511 233 489T271 424Q282 396 293 356Q330 451 363 481T432 511Q467 511 484 493Z" />
<glyph unicode="y" glyph-name="y" horiz-adv-x="561" d="M469 511T494 470T520 371Q520 275 460 119T307 -154T123 -271Q78 -271 53 -250T28 -193Q28 -162 47 -143T92 -123Q118 -123 133 -137T153 -177Q156 -178 163 -178Q194 -178 230 -138T284 -61Q260 90 141
364Q129 389 119 403T94 418Q57 418 49 343L-7 351Q-1 409 35 460T142 511Q221 511 265 407Q342 220 367 73H368Q428 207 436 316Q439 368 424 386Q419 385 410 385Q385 385 367 402T349 443Q349 475 370 493T418 511Q469 511 494 470Z" />
<glyph unicode="z" glyph-name="z" horiz-adv-x="491" d="M464 471L315 280Q259 209 215 167T113 78H114Q151 108 181 118T239 129Q268 129 304 115Q333 104 353 104Q372 104 382 117T393 151Q393 168 385 189L436 206Q450 164 450 130Q450 72 418 31T327 -11Q296
-11 232 4Q227 5 195 12T136 19Q95 19 61 -11L18 29Q50 76 106 146T213 276Q245 313 268 336T322 386Q337 398 363 423H362Q325 392 297 381T243 369Q229 369 214 373T186 382Q173 387 160 390T134 394Q115 394 104 380T93 343Q93 326 99 309L49 292Q37 324 37
370Q37 428 69 469T160 511Q192 511 250 496Q255 495 285 488T341 481Q387 481 421 511L464 471Z" />
<glyph unicode="{" glyph-name="braceleft" horiz-adv-x="345" d="M353 694Q288 696 260 654T226 537L228 481Q230 389 230 380Q229 331 202 303T124 256V255Q171 234 194 204T217 126Q217 117 209 53Q197 -29 197 -62Q197 -124 224 -165T311 -205L307 -271H258Q83
-271 83 -54Q83 -41 91 43Q101 135 101 154Q101 221 43 221H-3L2 288H46Q84 288 98 307T113 368L111 531Q111 760 306 760H356L353 694Z" />
<glyph unicode="|" glyph-name="bar" horiz-adv-x="234" d="M139 -271H34L85 760H197L139 -271Z" />
<glyph unicode="}" glyph-name="braceright" horiz-adv-x="345" d="M-16 -205Q49 -207 77 -165T111 -48L109 8Q107 100 107 109Q108 158 135 186T213 233V234Q166 255 143 285T120 363Q120 372 128 436Q140 518 140 551Q140 613 113 654T26 694L30 760H79Q254
760 254 543Q254 530 246 446Q236 354 236 335Q236 268 294 268H340L335 201H291Q253 201 239 182T224 121L226 -42Q226 -271 31 -271H-19L-16 -205Z" />
<glyph unicode="~" glyph-name="asciitilde" horiz-adv-x="540" d="M218 397T242 387T295 355Q316 338 334 330T379 321Q440 321 496 370L490 254Q440 202 368 202Q333 202 309 212T257 243Q231 260 213 268T170 277Q133 277 107 266T44 229L50 344Q86 372 114
384T180 397Q218 397 242 387Z" />
<glyph unicode="&#xa0;" glyph-name="uni00A0" horiz-adv-x="263" />
<glyph unicode="&#xa1;" glyph-name="exclamdown" horiz-adv-x="235" d="M56 -216T39 -194T22 -141Q22 -130 23 -125L81 287H148L164 -125Q166 -160 145 -188T89 -216Q56 -216 39 -194ZM88 360T69 382T51 438Q53 470 76 493T128 516Q156 516 175 495T195 442Q195
409 172 385T119 360Q88 360 69 382Z" />
<glyph unicode="&#xa2;" glyph-name="cent" horiz-adv-x="488" d="M327 507Q379 497 410 466T442 391Q442 360 424 341T376 322Q347 322 332 341T316 381Q316 404 326 423Q322 432 309 438T279 445Q219 445 195 374T171 220Q171 147 198 114T263 81Q297 81 331
104T392 185L449 157Q413 77 368 39T267 -8L253 -134H157L170 -3Q106 13 70 66T34 207Q34 267 55 329T120 440T225 504L237 625H339L327 507Z" />
<glyph unicode="&#xa3;" glyph-name="sterling" horiz-adv-x="550" d="M384 716T420 698T473 653T490 597Q490 564 471 541T417 518Q387 518 372 537T357 577Q357 591 362 606T378 632Q373 639 362 643T334 648Q285 648 261 607T233 512Q232 498 232 472Q232 426
239 375H398L394 304L251 301Q252 294 252 280Q252 236 232 193T174 124V123Q221 144 260 144Q284 144 303 137T348 115Q367 105 380 100T407 94Q420 94 432 109T448 151H510Q503 75 471 30T385 -16Q356 -16 332 -4T270 32Q207 71 165 72Q153 35 128 10T77 -16Q50
-16 37 -2T24 35Q24 65 49 89T115 128Q123 142 129 163T137 199Q138 248 129 299L50 298L55 375H111Q104 409 104 457Q104 536 135 595T218 685T328 716Q384 716 420 698Z" />
<glyph unicode="&#xa4;" glyph-name="currency" horiz-adv-x="553" d="M183 425Q229 453 283 453Q337 453 380 425L433 487L501 428L437 359Q461 316 461 265Q461 201 429 149L483 84L409 27L364 87Q319 62 262 62Q204 62 163 87L113 27L44 84L105 149Q84 191
84 242Q84 273 93 304T119 362L63 431L136 488L183 425ZM245 382T227 345T206 269Q203 220 216 178T266 135Q304 135 323 182T342 277Q342 315 327 348T279 382Q245 382 227 345Z" />
<glyph unicode="&#xa5;" glyph-name="yen" horiz-adv-x="706" d="M704 634Q669 629 643 606T585 527L478 340H548L544 266L441 265L438 214L543 213L540 140L435 139Q432 94 427 74Q460 77 507 77L503 0H214L217 66Q242 67 256 71T279 91T292 138H186L190 215H296L299
265L190 264L195 342L247 341L128 531Q114 554 104 582T95 626L47 623L51 700H343L339 634Q306 636 286 626T265 593Q265 576 276 557L346 432Q379 370 390 341H396Q415 379 445 433L502 535Q542 605 560 626V627L508 624L483 623L487 700H708L704 634Z" />
<glyph unicode="&#xa6;" glyph-name="brokenbar" horiz-adv-x="249" d="M179 375H75L93 760H203L179 375ZM145 -271H42L59 113H169L145 -271Z" />
<glyph unicode="&#xa7;" glyph-name="section" horiz-adv-x="527" d="M345 760T385 742T448 693T471 630Q471 600 453 577T404 554Q373 554 358 573T345 613Q345 636 358 655Q351 671 334 680T293 689Q250 689 225 664T196 606Q195 574 210 549T249 507T311 466Q357
436 360 434Q411 396 438 368T477 306T490 226Q490 191 465 143T404 61Q420 35 429 14T438 -36Q438 -80 418 -124T350 -198T227 -228Q175 -228 135 -210T72 -161T49 -99Q49 -68 67 -45T116 -21Q146 -21 161 -41T175 -82Q175 -104 162 -123Q169 -138 188 -147T230
-157Q276 -157 301 -131T327 -71Q327 -41 309 -17T267 24T203 65L166 88Q104 129 68 175T32 286Q32 328 55 377T118 461Q98 488 91 512T84 569Q85 611 108 655T178 730T293 760Q345 760 385 742ZM159 391T154 365T148 321Q148 287 167 259T214 211T288 163Q293
160 317 146T357 117Q364 131 369 158T375 202Q375 236 355 264T307 313T234 361Q183 391 167 405Q159 391 154 365Z" />
<glyph unicode="&#xa8;" glyph-name="dieresis" horiz-adv-x="415" d="M90 600T73 620T55 670Q55 703 76 727T125 751Q151 751 168 731T185 681Q185 647 165 624T116 600Q90 600 73 620ZM264 600T247 620T229 670Q229 703 250 727T299 751Q325 751 342 731T359
681Q359 647 339 624T290 600Q264 600 247 620Z" />
<glyph unicode="&#xa9;" glyph-name="copyright" horiz-adv-x="890" d="M586 755T674 703T811 561T860 363Q860 246 802 147T644 -12T428 -71Q312 -71 223 -22T84 116T35 315Q35 433 93 534T251 695T473 755Q586 755 674 703ZM365 697T282 645T153 506T106 318Q106
226 145 150T259 30T434 -14Q538 -14 619 37T745 174T790 361Q790 453 751 530T638 652T468 697Q365 697 282 645ZM535 590T583 555V586H655L646 411H584Q580 467 548 495T472 523Q436 523 404 499T352 433T332 340Q332 271 372 224T479 176Q515 176 553 195T622
250L662 209Q613 147 554 121T443 94Q378 94 326 124T245 207T216 324Q216 386 244 448T328 550T460 590Q535 590 583 555Z" />
<glyph unicode="&#xaa;" glyph-name="ordfeminine" horiz-adv-x="406" d="M262 716T294 713T353 703Q320 489 320 446Q320 427 330 427Q339 427 348 439T365 478L398 468Q391 432 367 400T301 367Q272 367 258 380T243 426Q243 443 247 463H246Q223 410 198 389T140
367Q102 367 75 398T47 485Q47 588 99 652T243 716Q262 716 294 713ZM156 662T149 494Q148 467 154 452T174 437Q191 437 207 472T235 561T250 662Q245 664 236 665T219 666Q156 662 149 494Z" />
<glyph unicode="&#xab;" glyph-name="guillemotleft" horiz-adv-x="489" d="M17 256L18 280L299 558L339 514L138 267V266L311 28L267 -13L17 256ZM236 259L237 282L419 481L459 448L347 274V273L439 99L396 65L236 259Z" />
<glyph unicode="&#xac;" glyph-name="logicalnot" horiz-adv-x="573" d="M511 356L500 152H416L419 269L57 267L62 359L511 356Z" />
<glyph unicode="&#xad;" glyph-name="uni00AD" horiz-adv-x="473" d="M418 272L52 269L57 370H424L418 272Z" />
<glyph unicode="&#xae;" glyph-name="registered" horiz-adv-x="890" d="M586 755T674 703T811 561T860 363Q860 246 802 147T644 -12T428 -71Q312 -71 223 -22T84 116T35 315Q35 433 93 534T251 695T473 755Q586 755 674 703ZM365 697T282 645T153 506T106 318Q106
226 145 150T259 30T434 -14Q538 -14 619 37T745 174T790 361Q790 453 751 530T638 652T468 697Q365 697 282 645ZM540 586T587 557T634 460Q634 343 517 311Q528 306 536 296T555 268L577 225Q599 188 611 176T646 162L644 118H541Q516 138 494 181Q455 252 446
272T433 297H395L391 229Q390 198 387 168L416 169Q438 169 443 170L440 118H241L244 162Q262 163 271 166T287 182T295 221L308 474Q309 510 314 535L263 533L266 585L453 586Q540 586 587 557ZM426 530T416 519T404 476L397 357Q409 354 425 354Q476 354 504
380T532 454Q532 500 506 515T448 530Q426 530 416 519Z" />
<glyph unicode="&#xaf;" glyph-name="overscore" horiz-adv-x="378" d="M49 722H333L329 632L45 629L49 722Z" />
<glyph unicode="&#xb0;" glyph-name="degree" horiz-adv-x="384" d="M290 716T331 674T373 565Q373 519 349 480T285 418T199 395Q129 395 88 438T46 547Q46 593 70 632T133 693T219 716Q290 716 331 674ZM179 648T155 620T130 553Q130 514 149 490T204 465Q241
465 265 492T289 560Q289 600 269 624T213 648Q179 648 155 620Z" />
<glyph unicode="&#xb1;" glyph-name="plusminus" horiz-adv-x="544" d="M322 369L500 368L495 279L317 278L309 124H214L222 277H45L50 370L227 369L234 515H330L322 369ZM480 0H31L35 85L485 89L480 0Z" />
<glyph unicode="&#xb2;" glyph-name="uni00B2" horiz-adv-x="376" d="M262 716T299 692T337 619Q337 589 325 567T295 527T243 484Q203 454 180 432Q152 405 141 384L262 382Q276 381 284 389T293 419H340L329 302H50Q53 345 67 377T103 432T160 485Q199 519 214
551T230 608Q230 634 218 647T184 660Q174 660 163 656T148 645Q160 635 160 613Q160 596 147 580T108 563Q87 563 75 577T63 613Q63 635 80 659T131 699T208 716Q262 716 299 692Z" />
<glyph unicode="&#xb3;" glyph-name="uni00B3" horiz-adv-x="365" d="M262 716T298 689T331 611Q329 582 306 557T252 523L251 522Q297 513 319 488T341 423Q340 366 296 329T171 292Q113 292 78 320T43 386Q43 410 59 428T98 446Q122 446 132 432T142 396Q142
389 138 378T126 361Q132 352 145 348T169 344Q200 344 220 365T240 417Q240 448 219 466T159 485L125 484L128 538Q152 536 163 536Q199 536 217 559T235 610Q235 635 221 649T183 664Q162 664 147 652Q154 646 157 636T159 619Q158 603 146 588T110 572Q87 572
74 586T62 623Q63 644 79 665T126 701T202 716Q262 716 298 689Z" />
<glyph unicode="&#xb4;" glyph-name="acute" horiz-adv-x="292" d="M45 606L134 746Q145 763 161 773T195 783Q215 783 229 770Q246 754 246 731Q246 715 238 699T216 671L89 565L45 606Z" />
<glyph unicode="&#xb5;" glyph-name="uni00B5" horiz-adv-x="597" d="M468 142Q467 121 470 106T490 91Q506 91 527 109L559 67Q537 39 503 17T434 -5Q370 -5 357 59H356Q325 23 294 4T235 -15Q183 -15 158 55H157Q157 -14 175 -122Q183 -180 183 -191Q183 -224
167 -247T115 -271Q78 -271 64 -244T52 -167L87 500H209L195 228Q194 219 194 201Q194 144 210 112T259 79Q281 79 304 88T346 116L366 500H488L468 142Z" />
<glyph unicode="&#xb6;" glyph-name="paragraph" horiz-adv-x="557" d="M444 -255H334L382 631L288 630L240 -255H129L166 401Q46 424 46 538Q46 590 69 627T128 682T207 700H496L444 -255Z" />
<glyph unicode="&#xb7;" glyph-name="middot" horiz-adv-x="227" d="M150 419T169 398T188 345Q188 311 167 287T113 263Q81 263 62 284T43 337Q43 370 66 394T120 419Q150 419 169 398Z" />
<glyph unicode="&#xb8;" glyph-name="cedilla" horiz-adv-x="330" d="M45 -207Q170 -184 170 -142Q170 -130 163 -125T143 -119Q132 -119 121 -123T101 -133L64 -117L102 10H178L145 -69H146Q158 -63 179 -58T215 -53Q246 -54 265 -70T284 -117Q284 -181 212 -214T50
-259L45 -207Z" />
<glyph unicode="&#xb9;" glyph-name="uni00B9" horiz-adv-x="276" d="M207 395Q206 373 203 344Q215 345 246 345L243 301H68L70 339Q92 340 101 348T113 389L125 619L59 582L41 621L189 716H224L207 395Z" />
<glyph unicode="&#xba;" glyph-name="ordmasculine" horiz-adv-x="368" d="M275 716T314 675T354 564Q354 512 333 466T274 392T185 364Q119 364 83 408T47 520Q47 573 68 618T128 689T217 716Q275 716 314 675ZM184 666T168 628T152 530Q152 417 193 417Q220
417 234 455T249 550Q249 666 209 666Q184 666 168 628Z" />
<glyph unicode="&#xbb;" glyph-name="guillemotright" horiz-adv-x="490" d="M468 285L467 261L186 -17L146 27L347 274V275L174 513L218 554L468 285ZM249 282L248 259L66 60L26 93L138 267V268L46 442L89 476L249 282Z" />
<glyph unicode="&#xbc;" glyph-name="onequarter" horiz-adv-x="794" d="M207 395Q206 373 203 344Q215 345 246 345L243 301H68L70 339Q92 340 101 348T113 389L125 619L59 582L41 621L189 716H224L207 395ZM660 665L180 -16L119 31L596 716L660 665ZM690 94Q689
72 686 43Q698 44 729 44L726 0H549L551 38Q573 39 583 47T595 88V101L444 102L447 160H446L673 415H707L694 156L753 155L750 100H691L690 94ZM600 157L611 277H610L513 159L600 157Z" />
<glyph unicode="&#xbd;" glyph-name="onehalf" horiz-adv-x="833" d="M207 395Q206 373 203 344Q215 345 246 345L243 301H68L70 339Q92 340 101 348T113 389L125 619L59 582L41 621L189 716H224L207 395ZM660 665L180 -16L119 31L596 716L660 665ZM713 414T750
390T788 317Q788 287 776 265T746 225T694 182Q654 152 631 130Q603 103 592 82L713 80Q727 79 735 87T744 117H791L780 0H501Q504 43 518 75T554 130T611 183Q650 217 665 249T681 306Q681 332 669 345T635 358Q625 358 614 354T599 343Q611 333 611 311Q611 294
598 278T559 261Q538 261 526 275T514 311Q514 333 531 357T582 397T659 414Q713 414 750 390Z" />
<glyph unicode="&#xbe;" glyph-name="threequarters" horiz-adv-x="889" d="M262 716T298 689T331 611Q329 582 306 557T252 523L251 522Q297 513 319 488T341 423Q340 366 296 329T171 292Q113 292 78 320T43 386Q43 410 59 428T98 446Q122 446 132 432T142 396Q142
389 138 378T126 361Q132 352 145 348T169 344Q200 344 220 365T240 417Q240 448 219 466T159 485L125 484L128 538Q152 536 163 536Q199 536 217 559T235 610Q235 635 221 649T183 664Q162 664 147 652Q154 646 157 636T159 619Q158 603 146 588T110 572Q87 572
74 586T62 623Q63 644 79 665T126 701T202 716Q262 716 298 689ZM755 665L275 -16L214 31L691 716L755 665ZM785 94Q784 72 781 43Q793 44 824 44L821 0H644L646 38Q668 39 678 47T690 88V101L539 102L542 160H541L768 415H802L789 156L848 155L845 100H786L785
94ZM695 157L706 277H705L608 159L695 157Z" />
<glyph unicode="&#xbf;" glyph-name="questiondown" horiz-adv-x="478" d="M106 -216T57 -174T8 -66Q8 -25 29 11T78 73T153 135Q194 166 212 184T231 221Q231 234 222 242T192 250Q178 250 162 246L149 297Q172 309 199 314T249 319Q284 319 308 303T332 255Q332
228 316 204T244 127Q198 84 176 46T153 -49Q153 -146 235 -146Q258 -146 280 -136T313 -114Q305 -106 301 -93T297 -67Q297 -43 315 -20T365 3Q396 3 412 -15T429 -63Q429 -99 400 -134T321 -193T212 -216Q106 -216 57 -174ZM210 360T191 381T172 434Q172 467
195 491T249 516Q277 516 297 495T317 442Q317 409 294 385T240 360Q210 360 191 381Z" />
<glyph unicode="&#xc0;" glyph-name="Agrave" horiz-adv-x="667" d="M569 173Q590 103 592 74Q624 77 649 77L646 0H378L382 66Q433 66 433 109Q433 123 424 154L407 209L188 205L169 158Q147 103 133 77Q166 80 207 80L202 0H-12L-8 69Q18 69 35 84T64 120T94
183L317 718H384L569 173ZM314 542Q306 503 268 410L217 280H385L346 405Q320 493 315 542H314ZM254 854Q237 864 227 879T216 912Q216 928 228 943Q244 963 268 963Q298 963 325 936L434 819L395 770L254 854Z" />
<glyph unicode="&#xc1;" glyph-name="Aacute" horiz-adv-x="667" d="M569 173Q590 103 592 74Q624 77 649 77L646 0H378L382 66Q433 66 433 109Q433 123 424 154L407 209L188 205L169 158Q147 103 133 77Q166 80 207 80L202 0H-12L-8 69Q18 69 35 84T64 120T94
183L317 718H384L569 173ZM314 542Q306 503 268 410L217 280H385L346 405Q320 493 315 542H314ZM281 818L403 936Q416 948 431 955T462 963Q487 963 500 943Q509 930 509 915Q509 898 497 882T465 854L315 770L281 818Z" />
<glyph unicode="&#xc2;" glyph-name="Acircumflex" horiz-adv-x="667" d="M569 173Q590 103 592 74Q624 77 649 77L646 0H378L382 66Q433 66 433 109Q433 123 424 154L407 209L188 205L169 158Q147 103 133 77Q166 80 207 80L202 0H-12L-8 69Q18 69 35 84T64 120T94
183L317 718H384L569 173ZM314 542Q306 503 268 410L217 280H385L346 405Q320 493 315 542H314ZM356 867L163 781L144 821L356 971H375L563 821L535 779L356 867Z" />
<glyph unicode="&#xc3;" glyph-name="Atilde" horiz-adv-x="667" d="M569 173Q590 103 592 74Q624 77 649 77L646 0H378L382 66Q433 66 433 109Q433 123 424 154L407 209L188 205L169 158Q147 103 133 77Q166 80 207 80L202 0H-12L-8 69Q18 69 35 84T64 120T94
183L317 718H384L569 173ZM314 542Q306 503 268 410L217 280H385L346 405Q320 493 315 542H314ZM262 848T238 837T196 799L145 831Q166 883 204 910T281 937Q304 937 322 930T364 910Q385 898 398 893T428 887Q449 887 474 904T514 949L566 922Q542 852 507 825T433
798Q412 798 394 804T354 824Q333 836 318 842T285 848Q262 848 238 837Z" />
<glyph unicode="&#xc4;" glyph-name="Adieresis" horiz-adv-x="667" d="M569 173Q590 103 592 74Q624 77 649 77L646 0H378L382 66Q433 66 433 109Q433 123 424 154L407 209L188 205L169 158Q147 103 133 77Q166 80 207 80L202 0H-12L-8 69Q18 69 35 84T64 120T94
183L317 718H384L569 173ZM314 542Q306 503 268 410L217 280H385L346 405Q320 493 315 542H314ZM239 797T222 817T204 868Q204 901 225 925T274 949Q300 949 316 929T333 878Q333 845 313 821T264 797Q239 797 222 817ZM413 797T396 817T379 868Q379 901 399 925T448
949Q474 949 490 929T507 878Q507 845 487 821T439 797Q413 797 396 817Z" />
<glyph unicode="&#xc5;" glyph-name="Aring" horiz-adv-x="667" d="M569 173Q590 103 592 74Q624 77 649 77L646 0H378L382 66Q433 66 433 109Q433 123 424 154L407 209L188 205L169 158Q147 103 133 77Q166 80 207 80L202 0H-12L-8 69Q18 69 35 84T64 120T94
183L317 718H384L569 173ZM314 542Q306 503 268 410L217 280H385L346 405Q320 493 315 542H314ZM303 751T263 783T222 877Q222 914 241 943T292 989T355 1006Q388 1006 419 992T469 949T489 879Q489 840 470 811T419 767T356 751Q303 751 263 783ZM377 802T389
819T402 867Q402 909 390 932T355 956Q332 956 321 935T309 885Q309 846 322 824T359 802Q377 802 389 819Z" />
<glyph unicode="&#xc6;" glyph-name="AE" horiz-adv-x="931" d="M873 506H807Q811 580 777 608T692 635L656 634Q632 633 618 628T596 604T585 547L577 397H695Q694 417 694 432T695 458V484H772L759 241H693Q695 281 684 300T653 324T600 329L573 328L565 164Q561
99 556 76H690Q741 76 778 110T820 220H886L868 0H343L346 66Q373 67 387 72T411 96T422 153L424 207Q395 207 329 205L229 202L191 151Q169 122 154 104T124 75V74L204 77L200 0H-24L-21 66Q10 66 37 92T104 171L451 625V626L375 623L379 700H877L873 506ZM444
501Q426 471 411 449T368 392L281 276H428L445 501H444Z" />
<glyph unicode="&#xc7;" glyph-name="Ccedilla" horiz-adv-x="693" d="M448 716T494 703T578 667H579L577 709H654L642 476H577Q567 560 527 604T416 648Q350 648 301 608T226 501T195 360Q194 350 194 331Q194 210 247 135T395 60Q458 60 521 91T632 184L672
144Q601 53 521 19T363 -16H350L328 -67H329Q341 -61 361 -57T395 -52Q427 -52 448 -70T470 -121Q470 -166 430 -198T335 -249T232 -275L227 -220Q266 -213 309 -193T353 -145Q353 -121 327 -121Q316 -121 304 -125T284 -136L243 -121L276 -6Q204 11 150 57T67
170T38 317Q38 415 81 507T209 657T408 716Q448 716 494 703Z" />
<glyph unicode="&#xc8;" glyph-name="Egrave" horiz-adv-x="623" d="M565 506H500Q503 580 469 608T385 635L349 634Q325 633 311 628T288 603T277 547L270 397H387V484H464L452 241H386Q388 281 377 300T345 324T292 329L266 328L257 164Q254 102 249 76H383Q434
76 471 110T512 220H578L561 0H35L39 66Q65 67 79 72T103 96T114 153L134 536Q137 593 143 626L68 623L72 700H570L565 506ZM251 854Q234 864 224 879T213 912Q213 928 225 943Q241 963 265 963Q295 963 322 936L431 819L392 770L251 854Z" />
<glyph unicode="&#xc9;" glyph-name="Eacute" horiz-adv-x="623" d="M565 506H500Q503 580 469 608T385 635L349 634Q325 633 311 628T288 603T277 547L270 397H387V484H464L452 241H386Q388 281 377 300T345 324T292 329L266 328L257 164Q254 102 249 76H383Q434
76 471 110T512 220H578L561 0H35L39 66Q65 67 79 72T103 96T114 153L134 536Q137 593 143 626L68 623L72 700H570L565 506ZM278 818L400 936Q413 948 428 955T459 963Q484 963 497 943Q506 930 506 915Q506 898 494 882T462 854L312 770L278 818Z" />
<glyph unicode="&#xca;" glyph-name="Ecircumflex" horiz-adv-x="623" d="M565 506H500Q503 580 469 608T385 635L349 634Q325 633 311 628T288 603T277 547L270 397H387V484H464L452 241H386Q388 281 377 300T345 324T292 329L266 328L257 164Q254 102 249 76H383Q434
76 471 110T512 220H578L561 0H35L39 66Q65 67 79 72T103 96T114 153L134 536Q137 593 143 626L68 623L72 700H570L565 506ZM353 867L160 781L141 821L353 971H372L560 821L532 779L353 867Z" />
<glyph unicode="&#xcb;" glyph-name="Edieresis" horiz-adv-x="623" d="M565 506H500Q503 580 469 608T385 635L349 634Q325 633 311 628T288 603T277 547L270 397H387V484H464L452 241H386Q388 281 377 300T345 324T292 329L266 328L257 164Q254 102 249 76H383Q434
76 471 110T512 220H578L561 0H35L39 66Q65 67 79 72T103 96T114 153L134 536Q137 593 143 626L68 623L72 700H570L565 506ZM236 797T219 817T201 868Q201 901 222 925T271 949Q297 949 313 929T330 878Q330 845 310 821T261 797Q236 797 219 817ZM410 797T393
817T376 868Q376 901 396 925T445 949Q471 949 487 929T504 878Q504 845 484 821T436 797Q410 797 393 817Z" />
<glyph unicode="&#xcc;" glyph-name="Igrave" horiz-adv-x="384" d="M353 634Q326 633 312 628T288 604T277 547L257 164Q253 99 249 74Q280 77 324 77L320 0H35L39 66Q65 67 79 72T103 96T114 153L134 536Q137 593 143 626L68 623L72 700H356L353 634ZM134 854Q117
864 107 879T96 912Q96 928 108 943Q124 963 148 963Q178 963 205 936L314 819L275 770L134 854Z" />
<glyph unicode="&#xcd;" glyph-name="Iacute" horiz-adv-x="384" d="M353 634Q326 633 312 628T288 604T277 547L257 164Q253 99 249 74Q280 77 324 77L320 0H35L39 66Q65 67 79 72T103 96T114 153L134 536Q137 593 143 626L68 623L72 700H356L353 634ZM161 818L283
936Q296 948 311 955T342 963Q367 963 380 943Q389 930 389 915Q389 898 377 882T345 854L195 770L161 818Z" />
<glyph unicode="&#xce;" glyph-name="Icircumflex" horiz-adv-x="385" d="M250 971L401 814L358 768L235 867L96 771L60 818L235 971H250ZM353 634Q326 633 312 628T288 604T277 547L257 164Q253 99 249 74Q280 77 324 77L320 0H35L39 66Q65 67 79 72T103 96T114
153L134 536Q137 593 143 626L68 623L72 700H356L353 634Z" />
<glyph unicode="&#xcf;" glyph-name="Idieresis" horiz-adv-x="384" d="M353 634Q326 633 312 628T288 604T277 547L257 164Q253 99 249 74Q280 77 324 77L320 0H35L39 66Q65 67 79 72T103 96T114 153L134 536Q137 593 143 626L68 623L72 700H356L353 634ZM119
797T102 817T84 868Q84 901 105 925T154 949Q180 949 196 929T213 878Q213 845 193 821T144 797Q119 797 102 817ZM293 797T276 817T259 868Q259 901 279 925T328 949Q354 949 370 929T387 878Q387 845 367 821T319 797Q293 797 276 817Z" />
<glyph unicode="&#xd0;" glyph-name="Eth" horiz-adv-x="756" d="M483 701T564 655T685 534T724 374Q724 285 681 199T547 57T320 0H36L40 66Q66 67 80 72T104 96T115 153L123 304L24 302L29 400H128L135 536Q138 593 144 626L69 623L73 700L362 701Q483 701 564
655ZM312 634T297 617T278 549L270 400H372L367 309L265 307L258 164Q254 99 250 74Q255 75 269 75L312 74Q325 73 345 73Q415 73 464 110T538 206T567 336Q568 348 568 370Q568 505 510 569T346 634Q312 634 297 617Z" />
<glyph unicode="&#xd1;" glyph-name="Ntilde" horiz-adv-x="772" d="M757 634Q730 633 716 628T692 604T681 547L651 -10H566L268 401Q240 440 217 476H216L202 164Q199 107 193 74Q226 77 269 77L264 0H36L40 66Q67 67 81 72T105 96T116 153L133 536Q136 593
142 626L66 623L71 700H228L513 313Q538 278 578 217H579L595 536Q598 593 604 626L528 623L533 700H760L757 634ZM326 848T302 837T260 799L209 831Q230 883 268 910T345 937Q368 937 386 930T428 910Q449 898 462 893T492 887Q513 887 538 904T578 949L630 922Q606
852 571 825T497 798Q476 798 458 804T418 824Q397 836 382 842T349 848Q326 848 302 837Z" />
<glyph unicode="&#xd2;" glyph-name="Ograve" horiz-adv-x="762" d="M516 716T589 666T696 537T730 371Q730 281 688 192T564 43T365 -16Q251 -16 178 32T72 156T39 322Q39 341 40 350Q44 439 87 523T212 661T406 716Q516 716 589 666ZM323 648T278 599T213 478T193
335Q193 267 211 203T271 95T378 52Q443 52 486 94T551 200T576 333Q577 345 577 369Q577 497 531 572T394 648Q323 648 278 599ZM307 854Q290 864 280 879T269 912Q269 928 281 943Q297 963 321 963Q351 963 378 936L487 819L448 770L307 854Z" />
<glyph unicode="&#xd3;" glyph-name="Oacute" horiz-adv-x="762" d="M516 716T589 666T696 537T730 371Q730 281 688 192T564 43T365 -16Q251 -16 178 32T72 156T39 322Q39 341 40 350Q44 439 87 523T212 661T406 716Q516 716 589 666ZM323 648T278 599T213 478T193
335Q193 267 211 203T271 95T378 52Q443 52 486 94T551 200T576 333Q577 345 577 369Q577 497 531 572T394 648Q323 648 278 599ZM334 818L456 936Q469 948 484 955T515 963Q540 963 553 943Q562 930 562 915Q562 898 550 882T518 854L368 770L334 818Z" />
<glyph unicode="&#xd4;" glyph-name="Ocircumflex" horiz-adv-x="762" d="M516 716T589 666T696 537T730 371Q730 281 688 192T564 43T365 -16Q251 -16 178 32T72 156T39 322Q39 341 40 350Q44 439 87 523T212 661T406 716Q516 716 589 666ZM323 648T278 599T213
478T193 335Q193 267 211 203T271 95T378 52Q443 52 486 94T551 200T576 333Q577 345 577 369Q577 497 531 572T394 648Q323 648 278 599ZM409 867L216 781L197 821L409 971H428L616 821L588 779L409 867Z" />
<glyph unicode="&#xd5;" glyph-name="Otilde" horiz-adv-x="762" d="M516 716T589 666T696 537T730 371Q730 281 688 192T564 43T365 -16Q251 -16 178 32T72 156T39 322Q39 341 40 350Q44 439 87 523T212 661T406 716Q516 716 589 666ZM323 648T278 599T213 478T193
335Q193 267 211 203T271 95T378 52Q443 52 486 94T551 200T576 333Q577 345 577 369Q577 497 531 572T394 648Q323 648 278 599ZM315 848T291 837T249 799L198 831Q219 883 257 910T334 937Q357 937 375 930T417 910Q438 898 451 893T481 887Q502 887 527 904T567
949L619 922Q595 852 560 825T486 798Q465 798 447 804T407 824Q386 836 371 842T338 848Q315 848 291 837Z" />
<glyph unicode="&#xd6;" glyph-name="Odieresis" horiz-adv-x="762" d="M516 716T589 666T696 537T730 371Q730 281 688 192T564 43T365 -16Q251 -16 178 32T72 156T39 322Q39 341 40 350Q44 439 87 523T212 661T406 716Q516 716 589 666ZM323 648T278 599T213
478T193 335Q193 267 211 203T271 95T378 52Q443 52 486 94T551 200T576 333Q577 345 577 369Q577 497 531 572T394 648Q323 648 278 599ZM292 797T275 817T257 868Q257 901 278 925T327 949Q353 949 369 929T386 878Q386 845 366 821T317 797Q292 797 275 817ZM466
797T449 817T432 868Q432 901 452 925T501 949Q527 949 543 929T560 878Q560 845 540 821T492 797Q466 797 449 817Z" />
<glyph unicode="&#xd7;" glyph-name="multiply" horiz-adv-x="539" d="M511 471L342 307L495 139L417 66L263 235L94 73L28 146L197 304L46 462L125 536L275 376Q277 378 356 454Q433 529 448 542L511 471Z" />
<glyph unicode="&#xd8;" glyph-name="Oslash" horiz-adv-x="761" d="M694 734L630 633Q680 584 705 515T731 372Q731 282 689 192T564 43T365 -16Q287 -16 229 7L159 -102L87 -52L152 50Q94 97 67 169T39 323L40 350Q44 439 87 523T212 661T406 716Q491 716 555
685L618 783L694 734ZM327 648T284 605T219 497T194 362Q193 352 193 332Q193 236 225 165L505 605Q462 648 393 648Q327 648 284 605ZM280 86Q322 52 379 52Q444 52 487 94T551 201T576 333Q577 346 577 371Q577 455 556 518L280 86Z" />
<glyph unicode="&#xd9;" glyph-name="Ugrave" horiz-adv-x="755" d="M752 634Q726 633 712 628T688 604T677 547L664 297Q655 133 576 59T367 -16Q220 -16 158 58T96 260Q96 282 97 294L110 536Q114 604 119 626L43 623L47 700H333L329 634Q302 633 288 628T264
604T253 547L239 272L238 246Q238 60 396 60Q476 60 521 113T573 274L587 536Q591 604 596 626L521 623L524 700H756L752 634ZM330 854Q313 864 303 879T292 912Q292 928 304 943Q320 963 344 963Q374 963 401 936L510 819L471 770L330 854Z" />
<glyph unicode="&#xda;" glyph-name="Uacute" horiz-adv-x="755" d="M752 634Q726 633 712 628T688 604T677 547L664 297Q655 133 576 59T367 -16Q220 -16 158 58T96 260Q96 282 97 294L110 536Q114 604 119 626L43 623L47 700H333L329 634Q302 633 288 628T264
604T253 547L239 272L238 246Q238 60 396 60Q476 60 521 113T573 274L587 536Q591 604 596 626L521 623L524 700H756L752 634ZM357 818L479 936Q492 948 507 955T538 963Q563 963 576 943Q585 930 585 915Q585 898 573 882T541 854L391 770L357 818Z" />
<glyph unicode="&#xdb;" glyph-name="Ucircumflex" horiz-adv-x="755" d="M752 634Q726 633 712 628T688 604T677 547L664 297Q655 133 576 59T367 -16Q220 -16 158 58T96 260Q96 282 97 294L110 536Q114 604 119 626L43 623L47 700H333L329 634Q302 633 288 628T264
604T253 547L239 272L238 246Q238 60 396 60Q476 60 521 113T573 274L587 536Q591 604 596 626L521 623L524 700H756L752 634ZM432 867L239 781L220 821L432 971H451L639 821L611 779L432 867Z" />
<glyph unicode="&#xdc;" glyph-name="Udieresis" horiz-adv-x="755" d="M752 634Q726 633 712 628T688 604T677 547L664 297Q655 133 576 59T367 -16Q220 -16 158 58T96 260Q96 282 97 294L110 536Q114 604 119 626L43 623L47 700H333L329 634Q302 633 288 628T264
604T253 547L239 272L238 246Q238 60 396 60Q476 60 521 113T573 274L587 536Q591 604 596 626L521 623L524 700H756L752 634ZM315 797T298 817T280 868Q280 901 301 925T350 949Q376 949 392 929T409 878Q409 845 389 821T340 797Q315 797 298 817ZM489 797T472
817T455 868Q455 901 475 925T524 949Q550 949 566 929T583 878Q583 845 563 821T515 797Q489 797 472 817Z" />
<glyph unicode="&#xdd;" glyph-name="Yacute" horiz-adv-x="665" d="M681 634Q646 629 620 606T562 527L418 277L413 164Q410 107 404 74Q436 77 484 77L480 0H190L194 66Q221 67 235 72T259 96T270 153L274 240L105 531Q91 555 81 582T72 626L23 623L27 700H319L316
634Q282 636 262 626T242 593Q242 579 253 557L323 432Q325 427 343 393T368 335H370Q383 362 390 373L421 433L479 535Q490 555 507 583T536 626V627L484 624L459 623L463 700H684L681 634ZM312 818L434 936Q447 948 462 955T493 963Q518 963 531 943Q540 930
540 915Q540 898 528 882T496 854L346 770L312 818Z" />
<glyph unicode="&#xde;" glyph-name="Thorn" horiz-adv-x="630" d="M353 634Q329 633 316 629T293 612T279 570L339 571Q619 574 619 381Q619 367 618 359Q613 304 578 258T478 183T321 152L286 151L256 152Q253 104 249 74Q280 77 324 77L320 0H35L39 66Q65 67
79 72T103 96T114 153L134 536Q137 593 143 626L68 623L72 700H356L353 634ZM275 500L260 225Q284 223 297 223Q383 223 423 262T464 381Q464 456 425 478T333 500H275Z" />
<glyph unicode="&#xdf;" glyph-name="germandbls" horiz-adv-x="671" d="M468 760T535 729T602 618Q602 570 574 538T492 469Q456 443 440 428T424 393Q424 378 427 368T448 344T504 307Q551 280 579 260T627 211T648 143Q648 99 623 64T552 9T449 -11Q375 -11
325 21T275 105Q275 135 293 155T339 175Q366 175 383 157T400 113Q400 98 394 83Q399 73 418 64T452 55Q526 55 526 117Q526 142 504 160T430 208Q361 247 333 278T304 347Q304 390 329 419T403 486Q448 520 469 544T491 604Q491 651 463 669T395 688Q311 688
278 623T235 455L197 -11Q167 -271 -20 -271Q-65 -271 -90 -252T-115 -199Q-115 -177 -100 -157T-55 -136Q-34 -136 -19 -151T-3 -189L-4 -198Q2 -200 9 -200Q39 -200 51 -149T71 -11Q79 76 90 244L104 428L24 427L33 500H113Q129 641 204 700T381 760Q468 760
535 729Z" />
<glyph unicode="&#xe0;" glyph-name="agrave" horiz-adv-x="549" d="M382 511T471 490L463 437Q461 419 443 291T425 111Q425 82 439 82Q468 82 490 161L544 145Q533 88 499 39T405 -11Q325 -11 325 80Q325 115 329 138H328Q294 56 251 23T158 -11Q100 -11 63
35T25 171Q25 264 61 341T165 465T327 511Q382 511 471 490ZM232 445T197 373T162 166Q162 125 172 102T200 78Q234 78 262 134T309 275T331 439Q310 445 290 445Q232 445 197 373ZM247 672Q236 684 229 699T222 728Q222 752 241 770Q259 782 276 782Q292 782 306
773T331 746L409 606L361 565L247 672Z" />
<glyph unicode="&#xe1;" glyph-name="aacute" horiz-adv-x="549" d="M382 511T471 490L463 437Q461 419 443 291T425 111Q425 82 439 82Q468 82 490 161L544 145Q533 88 499 39T405 -11Q325 -11 325 80Q325 115 329 138H328Q294 56 251 23T158 -11Q100 -11 63
35T25 171Q25 264 61 341T165 465T327 511Q382 511 471 490ZM232 445T197 373T162 166Q162 125 172 102T200 78Q234 78 262 134T309 275T331 439Q310 445 290 445Q232 445 197 373ZM223 606L312 746Q323 763 339 773T373 783Q393 783 407 770Q424 754 424 731Q424
715 416 699T394 671L267 565L223 606Z" />
<glyph unicode="&#xe2;" glyph-name="acircumflex" horiz-adv-x="549" d="M382 511T471 490L463 437Q461 419 443 291T425 111Q425 82 439 82Q468 82 490 161L544 145Q533 88 499 39T405 -11Q325 -11 325 80Q325 115 329 138H328Q294 56 251 23T158 -11Q100 -11
63 35T25 171Q25 264 61 341T165 465T327 511Q382 511 471 490ZM232 445T197 373T162 166Q162 125 172 102T200 78Q234 78 262 134T309 275T331 439Q310 445 290 445Q232 445 197 373ZM326 671H325L189 571L154 618L333 783H343L495 613L451 567L326 671Z" />
<glyph unicode="&#xe3;" glyph-name="atilde" horiz-adv-x="549" d="M382 511T471 490L463 437Q461 419 443 291T425 111Q425 82 439 82Q468 82 490 161L544 145Q533 88 499 39T405 -11Q325 -11 325 80Q325 115 329 138H328Q294 56 251 23T158 -11Q100 -11 63
35T25 171Q25 264 61 341T165 465T327 511Q382 511 471 490ZM232 445T197 373T162 166Q162 125 172 102T200 78Q234 78 262 134T309 275T331 439Q310 445 290 445Q232 445 197 373ZM147 640Q162 684 195 711T262 738Q284 738 299 733T331 717Q346 708 357 704T384
700Q402 700 418 713T448 751L501 723Q482 665 450 637T384 609Q365 609 350 614T315 630Q299 638 288 642T264 647Q249 647 232 638T200 606L147 640Z" />
<glyph unicode="&#xe4;" glyph-name="adieresis" horiz-adv-x="549" d="M382 511T471 490L463 437Q461 419 443 291T425 111Q425 82 439 82Q468 82 490 161L544 145Q533 88 499 39T405 -11Q325 -11 325 80Q325 115 329 138H328Q294 56 251 23T158 -11Q100 -11
63 35T25 171Q25 264 61 341T165 465T327 511Q382 511 471 490ZM232 445T197 373T162 166Q162 125 172 102T200 78Q234 78 262 134T309 275T331 439Q310 445 290 445Q232 445 197 373ZM207 600T190 620T172 670Q172 703 193 727T242 751Q268 751 285 731T302 681Q302
647 282 624T233 600Q207 600 190 620ZM381 600T364 620T346 670Q346 703 367 727T416 751Q442 751 459 731T476 681Q476 647 456 624T407 600Q381 600 364 620Z" />
<glyph unicode="&#xe5;" glyph-name="aring" horiz-adv-x="549" d="M382 511T471 490L463 437Q461 419 443 291T425 111Q425 82 439 82Q468 82 490 161L544 145Q533 88 499 39T405 -11Q325 -11 325 80Q325 115 329 138H328Q294 56 251 23T158 -11Q100 -11 63 35T25
171Q25 264 61 341T165 465T327 511Q382 511 471 490ZM232 445T197 373T162 166Q162 125 172 102T200 78Q234 78 262 134T309 275T331 439Q310 445 290 445Q232 445 197 373ZM274 563T240 592T205 672Q205 706 222 734T269 778T329 795Q375 795 408 767T442 687Q442
651 424 623T377 579T318 563Q274 563 240 592ZM341 624T352 639T363 679Q363 707 353 721T326 736Q310 735 299 721T287 680Q287 653 297 638T326 623Q341 624 352 639Z" />
<glyph unicode="&#xe6;" glyph-name="ae" horiz-adv-x="731" d="M607 511T648 480T690 385Q690 312 615 279T420 228Q420 150 447 116T512 81Q546 81 583 102T645 178L701 150Q661 58 606 24T481 -11Q434 -11 402 7T343 61Q270 -9 159 -11Q92 -11 56 23T19 113Q19
205 98 242T302 285L305 350Q307 391 293 415T244 440Q199 440 173 414Q183 401 183 374Q181 350 164 331T114 311Q86 311 70 329T54 374Q54 412 80 443T154 492T260 511Q311 511 343 495T388 438Q416 473 455 492T538 511Q607 511 648 480ZM480 445T456 402T424
292Q574 320 574 397Q574 421 560 433T527 445Q480 445 456 402ZM150 208T150 137Q150 112 167 98T208 83Q233 83 261 92T306 117Q297 180 298 224Q150 208 150 137Z" />
<glyph unicode="&#xe7;" glyph-name="ccedilla" horiz-adv-x="468" d="M343 511T389 478T435 391Q435 360 418 341T370 322Q340 322 325 341T310 381Q310 406 319 423Q315 432 302 438T272 445Q212 445 188 375T164 223Q164 148 191 115T256 81Q290 81 324 104T385
185L442 157Q404 71 354 33T240 -10L215 -69H216Q228 -63 250 -58T286 -53Q318 -54 336 -70T355 -119Q355 -182 282 -214T121 -259L116 -207Q164 -198 202 -184T241 -142Q241 -130 234 -125T214 -119Q203 -119 192 -123T172 -133L135 -117L168 -5Q102 11 65 64T27
207Q27 276 55 346T139 464T273 511Q343 511 389 478Z" />
<glyph unicode="&#xe8;" glyph-name="egrave" horiz-adv-x="470" d="M349 511T389 480T430 385Q430 312 354 275T164 222Q164 144 190 113T254 81Q288 81 324 101T384 177L440 150Q400 58 346 24T224 -11Q131 -11 79 44T27 207Q27 277 55 347T140 464T280 511Q349
511 389 480ZM223 445T199 399T167 287Q243 301 278 329T313 397Q313 421 300 433T269 445Q223 445 199 399ZM186 672Q175 684 168 699T161 728Q161 752 180 770Q198 782 215 782Q231 782 245 773T270 746L348 606L300 565L186 672Z" />
<glyph unicode="&#xe9;" glyph-name="eacute" horiz-adv-x="470" d="M349 511T389 480T430 385Q430 312 354 275T164 222Q164 144 190 113T254 81Q288 81 324 101T384 177L440 150Q400 58 346 24T224 -11Q131 -11 79 44T27 207Q27 277 55 347T140 464T280 511Q349
511 389 480ZM223 445T199 399T167 287Q243 301 278 329T313 397Q313 421 300 433T269 445Q223 445 199 399ZM162 606L251 746Q262 763 278 773T312 783Q332 783 346 770Q363 754 363 731Q363 715 355 699T333 671L206 565L162 606Z" />
<glyph unicode="&#xea;" glyph-name="ecircumflex" horiz-adv-x="470" d="M349 511T389 480T430 385Q430 312 354 275T164 222Q164 144 190 113T254 81Q288 81 324 101T384 177L440 150Q400 58 346 24T224 -11Q131 -11 79 44T27 207Q27 277 55 347T140 464T280
511Q349 511 389 480ZM223 445T199 399T167 287Q243 301 278 329T313 397Q313 421 300 433T269 445Q223 445 199 399ZM265 671H264L128 571L93 618L272 783H282L434 613L390 567L265 671Z" />
<glyph unicode="&#xeb;" glyph-name="edieresis" horiz-adv-x="470" d="M349 511T389 480T430 385Q430 312 354 275T164 222Q164 144 190 113T254 81Q288 81 324 101T384 177L440 150Q400 58 346 24T224 -11Q131 -11 79 44T27 207Q27 277 55 347T140 464T280 511Q349
511 389 480ZM223 445T199 399T167 287Q243 301 278 329T313 397Q313 421 300 433T269 445Q223 445 199 399ZM146 600T129 620T111 670Q111 703 132 727T181 751Q207 751 224 731T241 681Q241 647 221 624T172 600Q146 600 129 620ZM320 600T303 620T285 670Q285
703 306 727T355 751Q381 751 398 731T415 681Q415 647 395 624T346 600Q320 600 303 620Z" />
<glyph unicode="&#xec;" glyph-name="igrave" horiz-adv-x="344" d="M206 511T227 481T249 395Q249 365 241 305T231 227Q229 214 223 170T217 108Q217 82 232 82Q259 82 281 161L335 145Q329 112 309 76T257 15T183 -11Q130 -11 109 17T87 102Q87 147 105 261Q120
359 120 392Q120 418 104 418Q78 418 56 339L2 355Q8 387 28 423T81 485T156 511Q206 511 227 481ZM108 672Q97 684 90 699T83 728Q83 752 102 770Q120 782 137 782Q153 782 167 773T192 746L270 606L222 565L108 672Z" />
<glyph unicode="&#xed;" glyph-name="iacute" horiz-adv-x="344" d="M206 511T227 481T249 395Q249 365 241 305T231 227Q229 214 223 170T217 108Q217 82 232 82Q259 82 281 161L335 145Q329 112 309 76T257 15T183 -11Q130 -11 109 17T87 102Q87 147 105 261Q120
359 120 392Q120 418 104 418Q78 418 56 339L2 355Q8 387 28 423T81 485T156 511Q206 511 227 481ZM84 606L173 746Q184 763 200 773T234 783Q254 783 268 770Q285 754 285 731Q285 715 277 699T255 671L128 565L84 606Z" />
<glyph unicode="&#xee;" glyph-name="icircumflex" horiz-adv-x="344" d="M337 613L293 567L180 671H179L56 571L21 618L190 783H200L337 613ZM206 511T227 481T249 395Q249 365 241 305T231 227Q229 214 223 170T217 108Q217 82 232 82Q259 82 281 161L335 145Q329
112 309 76T257 15T183 -11Q130 -11 109 17T87 102Q87 147 105 261Q120 359 120 392Q120 418 104 418Q78 418 56 339L2 355Q8 387 28 423T81 485T156 511Q206 511 227 481Z" />
<glyph unicode="&#xef;" glyph-name="idieresis" horiz-adv-x="344" d="M206 511T227 481T249 395Q249 365 241 305T231 227Q229 214 223 170T217 108Q217 82 232 82Q259 82 281 161L335 145Q329 112 309 76T257 15T183 -11Q130 -11 109 17T87 102Q87 147 105
261Q120 359 120 392Q120 418 104 418Q78 418 56 339L2 355Q8 387 28 423T81 485T156 511Q206 511 227 481ZM324 600T307 620T289 670Q289 703 310 727T359 751Q385 751 402 731T419 681Q419 647 399 624T350 600Q324 600 307 620ZM498 600T481 620T463 670Q463
703 484 727T533 751Q559 751 576 731T593 681Q593 647 573 624T524 600Q498 600 481 620Z" />
<glyph unicode="&#xf0;" glyph-name="eth" horiz-adv-x="522" d="M345 738L291 688Q377 627 426 531T475 312Q475 224 448 151T366 33T229 -11Q142 -11 86 45T29 221Q29 284 53 348T127 456T253 500Q287 500 309 488T350 455H351Q346 496 311 546T242 617L180
546L123 599L174 656Q136 679 86 689L103 760Q176 752 235 723L290 790L345 738ZM215 435T189 373T163 227Q163 146 181 101T243 55Q295 55 319 119T344 260Q344 341 328 388T269 435Q215 435 189 373Z" />
<glyph unicode="&#xf1;" glyph-name="ntilde" horiz-adv-x="610" d="M454 511T483 471T512 357Q512 321 500 233Q487 151 487 108Q487 82 502 82Q528 82 550 161L604 145Q598 112 579 76T527 15T453 -11Q400 -11 380 17T359 102Q359 147 373 255Q375 272 379 313T384
377Q384 400 378 409T356 419Q327 419 295 362T240 223T218 72Q218 48 221 0H92Q89 28 89 48Q89 80 96 141T111 262Q113 280 119 327T125 392Q125 418 111 418Q85 418 63 339L8 355Q21 415 52 463T142 511Q179 511 202 490T226 420Q226 401 224 385T220 360H221Q280
511 392 511Q454 511 483 471ZM164 640Q179 684 212 711T279 738Q301 738 316 733T348 717Q363 708 374 704T401 700Q419 700 435 713T465 751L518 723Q499 665 467 637T401 609Q382 609 367 614T332 630Q316 638 305 642T281 647Q266 647 249 638T217 606L164
640Z" />
<glyph unicode="&#xf2;" glyph-name="ograve" horiz-adv-x="515" d="M336 511T381 485T453 408T480 288Q480 208 450 140T362 30T229 -11Q132 -11 80 53T28 216Q28 296 59 363T147 471T279 511Q336 511 381 485ZM234 445T212 418T177 345T164 244Q164 170 183
113T245 55Q279 55 300 90T332 175T342 273Q342 342 324 393T263 445Q234 445 212 418ZM196 672Q185 684 178 699T171 728Q171 752 190 770Q208 782 225 782Q241 782 255 773T280 746L358 606L310 565L196 672Z" />
<glyph unicode="&#xf3;" glyph-name="oacute" horiz-adv-x="515" d="M336 511T381 485T453 408T480 288Q480 208 450 140T362 30T229 -11Q132 -11 80 53T28 216Q28 296 59 363T147 471T279 511Q336 511 381 485ZM234 445T212 418T177 345T164 244Q164 170 183
113T245 55Q279 55 300 90T332 175T342 273Q342 342 324 393T263 445Q234 445 212 418ZM172 606L261 746Q272 763 288 773T322 783Q342 783 356 770Q373 754 373 731Q373 715 365 699T343 671L216 565L172 606Z" />
<glyph unicode="&#xf4;" glyph-name="ocircumflex" horiz-adv-x="515" d="M336 511T381 485T453 408T480 288Q480 208 450 140T362 30T229 -11Q132 -11 80 53T28 216Q28 296 59 363T147 471T279 511Q336 511 381 485ZM234 445T212 418T177 345T164 244Q164 170
183 113T245 55Q279 55 300 90T332 175T342 273Q342 342 324 393T263 445Q234 445 212 418ZM275 671H274L138 571L103 618L282 783H292L444 613L400 567L275 671Z" />
<glyph unicode="&#xf5;" glyph-name="otilde" horiz-adv-x="515" d="M336 511T381 485T453 408T480 288Q480 208 450 140T362 30T229 -11Q132 -11 80 53T28 216Q28 296 59 363T147 471T279 511Q336 511 381 485ZM234 445T212 418T177 345T164 244Q164 170 183
113T245 55Q279 55 300 90T332 175T342 273Q342 342 324 393T263 445Q234 445 212 418ZM96 640Q111 684 144 711T211 738Q233 738 248 733T280 717Q295 708 306 704T333 700Q351 700 367 713T397 751L450 723Q431 665 399 637T333 609Q314 609 299 614T264 630Q248
638 237 642T213 647Q198 647 181 638T149 606L96 640Z" />
<glyph unicode="&#xf6;" glyph-name="odieresis" horiz-adv-x="515" d="M336 511T381 485T453 408T480 288Q480 208 450 140T362 30T229 -11Q132 -11 80 53T28 216Q28 296 59 363T147 471T279 511Q336 511 381 485ZM234 445T212 418T177 345T164 244Q164 170 183
113T245 55Q279 55 300 90T332 175T342 273Q342 342 324 393T263 445Q234 445 212 418ZM156 600T139 620T121 670Q121 703 142 727T191 751Q217 751 234 731T251 681Q251 647 231 624T182 600Q156 600 139 620ZM330 600T313 620T295 670Q295 703 316 727T365 751Q391
751 408 731T425 681Q425 647 405 624T356 600Q330 600 313 620Z" />
<glyph unicode="&#xf7;" glyph-name="divide" horiz-adv-x="276" d="M167 200T186 179T205 126Q205 92 184 68T130 44Q98 44 79 65T60 118Q60 151 83 175T137 200Q167 200 186 179ZM177 546T196 525T215 472Q215 438 194 414T140 390Q108 390 89 411T70 464Q70
497 93 521T147 546Q177 546 196 525Z" />
<glyph unicode="&#xf8;" glyph-name="oslash" horiz-adv-x="515" d="M499 521L436 436Q480 376 480 288Q480 208 450 140T362 30T229 -11Q172 -11 131 12L66 -77L13 -33L77 57Q28 118 28 216Q28 296 59 363T147 471T279 511Q334 511 376 487L435 570L499 521ZM231
445T206 418T166 345T151 244Q151 207 159 165L326 405Q303 445 264 445Q231 445 206 418ZM185 95Q210 55 247 55Q282 55 306 87T342 166T355 259Q355 295 351 326L185 95Z" />
<glyph unicode="&#xf9;" glyph-name="ugrave" horiz-adv-x="598" d="M203 511T224 483T245 398Q245 353 231 245Q219 149 219 123Q219 101 225 91T247 81Q274 81 305 138T358 277T380 428Q380 476 377 500H506Q509 472 509 452Q509 420 502 359T487 238Q472 129
472 108Q472 82 486 82Q512 82 534 161L588 145Q577 86 545 38T455 -11Q418 -11 395 10T371 80Q371 98 373 116T376 145H375Q316 -11 211 -11Q149 -11 120 29T91 143Q91 175 97 217T104 268Q117 350 117 392Q117 418 101 418Q75 418 53 339L-1 355Q5 388 24 424T76
485T150 511Q203 511 224 483ZM238 672Q227 684 220 699T213 728Q213 752 232 770Q250 782 267 782Q283 782 297 773T322 746L400 606L352 565L238 672Z" />
<glyph unicode="&#xfa;" glyph-name="uacute" horiz-adv-x="598" d="M203 511T224 483T245 398Q245 353 231 245Q219 149 219 123Q219 101 225 91T247 81Q274 81 305 138T358 277T380 428Q380 476 377 500H506Q509 472 509 452Q509 420 502 359T487 238Q472 129
472 108Q472 82 486 82Q512 82 534 161L588 145Q577 86 545 38T455 -11Q418 -11 395 10T371 80Q371 98 373 116T376 145H375Q316 -11 211 -11Q149 -11 120 29T91 143Q91 175 97 217T104 268Q117 350 117 392Q117 418 101 418Q75 418 53 339L-1 355Q5 388 24 424T76
485T150 511Q203 511 224 483ZM214 606L303 746Q314 763 330 773T364 783Q384 783 398 770Q415 754 415 731Q415 715 407 699T385 671L258 565L214 606Z" />
<glyph unicode="&#xfb;" glyph-name="ucircumflex" horiz-adv-x="598" d="M203 511T224 483T245 398Q245 353 231 245Q219 149 219 123Q219 101 225 91T247 81Q274 81 305 138T358 277T380 428Q380 476 377 500H506Q509 472 509 452Q509 420 502 359T487 238Q472
129 472 108Q472 82 486 82Q512 82 534 161L588 145Q577 86 545 38T455 -11Q418 -11 395 10T371 80Q371 98 373 116T376 145H375Q316 -11 211 -11Q149 -11 120 29T91 143Q91 175 97 217T104 268Q117 350 117 392Q117 418 101 418Q75 418 53 339L-1 355Q5 388 24
424T76 485T150 511Q203 511 224 483ZM317 671H316L180 571L145 618L324 783H334L486 613L442 567L317 671Z" />
<glyph unicode="&#xfc;" glyph-name="udieresis" horiz-adv-x="598" d="M203 511T224 483T245 398Q245 353 231 245Q219 149 219 123Q219 101 225 91T247 81Q274 81 305 138T358 277T380 428Q380 476 377 500H506Q509 472 509 452Q509 420 502 359T487 238Q472
129 472 108Q472 82 486 82Q512 82 534 161L588 145Q577 86 545 38T455 -11Q418 -11 395 10T371 80Q371 98 373 116T376 145H375Q316 -11 211 -11Q149 -11 120 29T91 143Q91 175 97 217T104 268Q117 350 117 392Q117 418 101 418Q75 418 53 339L-1 355Q5 388 24
424T76 485T150 511Q203 511 224 483ZM198 600T181 620T163 670Q163 703 184 727T233 751Q259 751 276 731T293 681Q293 647 273 624T224 600Q198 600 181 620ZM372 600T355 620T337 670Q337 703 358 727T407 751Q433 751 450 731T467 681Q467 647 447 624T398
600Q372 600 355 620Z" />
<glyph unicode="&#xfd;" glyph-name="yacute" horiz-adv-x="561" d="M469 511T494 470T520 371Q520 275 460 119T307 -154T123 -271Q78 -271 53 -250T28 -193Q28 -162 47 -143T92 -123Q118 -123 133 -137T153 -177Q156 -178 163 -178Q194 -178 230 -138T284 -61Q260
90 141 364Q129 389 119 403T94 418Q57 418 49 343L-7 351Q-1 409 35 460T142 511Q221 511 265 407Q342 220 367 73H368Q428 207 436 316Q439 368 424 386Q419 385 410 385Q385 385 367 402T349 443Q349 475 370 493T418 511Q469 511 494 470ZM179 606L268 746Q279
763 295 773T329 783Q349 783 363 770Q380 754 380 731Q380 715 372 699T350 671L223 565L179 606Z" />
<glyph unicode="&#xfe;" glyph-name="thorn" horiz-adv-x="520" d="M205 551Q198 483 187 390H188Q250 511 342 511Q413 511 448 458T484 321Q484 171 416 80T210 -11Q186 -11 174 -10L170 -92Q167 -142 162 -182Q195 -179 229 -179V-255H-25V-190Q10 -190 22
-168T38 -100Q46 33 52 141T65 346Q69 440 77 560L79 589Q81 634 84 652L15 649L19 725Q81 725 119 734T171 755H225L205 551ZM248 420T218 331T177 62Q203 55 223 55Q297 55 322 139T348 320Q348 371 333 395T294 420Q248 420 218 331Z" />
<glyph unicode="&#xff;" glyph-name="ydieresis" horiz-adv-x="561" d="M469 511T494 470T520 371Q520 275 460 119T307 -154T123 -271Q78 -271 53 -250T28 -193Q28 -162 47 -143T92 -123Q118 -123 133 -137T153 -177Q156 -178 163 -178Q194 -178 230 -138T284
-61Q260 90 141 364Q129 389 119 403T94 418Q57 418 49 343L-7 351Q-1 409 35 460T142 511Q221 511 265 407Q342 220 367 73H368Q428 207 436 316Q439 368 424 386Q419 385 410 385Q385 385 367 402T349 443Q349 475 370 493T418 511Q469 511 494 470ZM163 600T146
620T128 670Q128 703 149 727T198 751Q224 751 241 731T258 681Q258 647 238 624T189 600Q163 600 146 620ZM337 600T320 620T302 670Q302 703 323 727T372 751Q398 751 415 731T432 681Q432 647 412 624T363 600Q337 600 320 620Z" />
<glyph unicode="&#x2013;" glyph-name="endash" horiz-adv-x="563" d="M509 265L49 261L55 366H514L509 265Z" />
<glyph unicode="&#x2014;" glyph-name="emdash" horiz-adv-x="769" d="M715 265L50 261L55 366H720L715 265Z" />
<glyph unicode="&#x2018;" glyph-name="quoteleft" horiz-adv-x="225" d="M94 441T73 467T52 537Q52 588 78 646T155 765L192 737Q171 711 150 665T127 579Q137 582 148 582Q176 582 195 567T214 520Q214 487 192 464T136 441Q94 441 73 467Z" />
<glyph unicode="&#x2019;" glyph-name="quoteright" horiz-adv-x="212" d="M166 759T187 733T208 663Q208 612 182 554T105 435L68 463Q89 489 110 535T133 621Q123 618 112 618Q84 618 65 633T46 680Q46 713 68 736T124 759Q166 759 187 733Z" />
<glyph unicode="&#x201a;" glyph-name="quotesinglbase" horiz-adv-x="249" d="M147 137T168 111T189 41Q189 -10 163 -68T86 -187L49 -159Q70 -133 91 -87T114 -1Q104 -4 93 -4Q65 -4 46 11T27 58Q27 91 49 114T105 137Q147 137 168 111Z" />
<glyph unicode="&#x201c;" glyph-name="quotedblleft" horiz-adv-x="415" d="M94 441T73 467T52 537Q52 588 78 646T155 765L192 737Q171 711 150 665T127 579Q137 582 148 582Q176 582 195 567T214 520Q214 487 192 464T136 441Q94 441 73 467ZM284 441T263 467T242
537Q242 588 268 646T345 765L382 737Q361 711 340 665T317 579Q327 582 338 582Q366 582 385 567T404 520Q404 487 382 464T326 441Q284 441 263 467Z" />
<glyph unicode="&#x201d;" glyph-name="quotedblright" horiz-adv-x="396" d="M165 760T186 734T207 664Q207 613 181 555T104 436L67 464Q88 490 109 536T132 622Q122 619 111 619Q83 619 64 634T45 681Q45 714 67 737T123 760Q165 760 186 734ZM351 760T372
734T393 664Q393 613 367 555T290 436L253 464Q274 490 295 536T318 622Q308 619 297 619Q269 619 250 634T231 681Q231 714 253 737T309 760Q351 760 372 734Z" />
<glyph unicode="&#x201e;" glyph-name="quotedblbase" horiz-adv-x="439" d="M147 137T168 111T189 41Q189 -10 163 -68T86 -187L49 -159Q70 -133 91 -87T114 -1Q104 -4 93 -4Q65 -4 46 11T27 58Q27 91 49 114T105 137Q147 137 168 111ZM337 137T358 111T379 41Q379
-10 353 -68T276 -187L239 -159Q260 -133 281 -87T304 -1Q294 -4 283 -4Q255 -4 236 11T217 58Q217 91 239 114T295 137Q337 137 358 111Z" />
<glyph unicode="&#x2022;" glyph-name="bullet" horiz-adv-x="378" d="M243 518T277 499T331 446T351 370Q351 326 328 289T267 230T185 208Q143 208 109 227T55 280T35 355Q35 400 57 437T118 496T201 518Q243 518 277 499Z" />
<glyph unicode="&#x2039;" glyph-name="guilsinglleft" horiz-adv-x="372" d="M16 258L17 280L304 553L350 502L153 267V266L323 32L272 -16L16 258Z" />
<glyph unicode="&#x203a;" glyph-name="guilsinglright" horiz-adv-x="371" d="M351 279L350 257L63 -16L17 35L214 270V271L44 505L95 553L351 279Z" />
</font>
</defs>
</svg>
