<?xml version="1.0" encoding="UTF-8" standalone="no"?>
<!DOCTYPE svg PUBLIC "-//W3C//DTD SVG 1.1//EN"
 "http://www.w3.org/Graphics/SVG/1.1/DTD/svg11.dtd">
<!-- Generated by graphviz version 2.47.1 (20210417.1919)
 -->
<!-- Title: DGtal::StandardDSL&lt; TCoordinate, TInteger &gt; Pages: 1 -->
<svg width="232pt" height="196pt"
 viewBox="0.00 0.00 232.00 196.00" xmlns="http://www.w3.org/2000/svg" xmlns:xlink="http://www.w3.org/1999/xlink">
<g id="graph0" class="graph" transform="scale(1 1) rotate(0) translate(4 192)">
<title>DGtal::StandardDSL&lt; TCoordinate, TInteger &gt;</title>
<polygon fill="white" stroke="transparent" points="-4,4 -4,-192 228,-192 228,4 -4,4"/>
<!-- Node1 -->
<g id="node1" class="node">
<title>Node1</title>
<g id="a_node1"><a xlink:title="Aim: This class is an alias of ArithmeticalDSS for standard DSL. It represents a standard digital str...">
<polygon fill="#bfbfbf" stroke="black" points="14,-0.5 14,-30.5 144,-30.5 144,-0.5 14,-0.5"/>
<text text-anchor="start" x="22" y="-18.5" font-family="FreeSans" font-size="10.00">DGtal::StandardDSL</text>
<text text-anchor="middle" x="79" y="-7.5" font-family="FreeSans" font-size="10.00">&lt; TCoordinate, TInteger &gt;</text>
</a>
</g>
</g>
<!-- Node2 -->
<g id="node2" class="node">
<title>Node2</title>
<g id="a_node2"><a xlink:href="classDGtal_1_1ArithmeticalDSL.html" target="_top" xlink:title=" ">
<polygon fill="white" stroke="black" points="0,-68.5 0,-98.5 158,-98.5 158,-68.5 0,-68.5"/>
<text text-anchor="start" x="8" y="-86.5" font-family="FreeSans" font-size="10.00">DGtal::ArithmeticalDSL</text>
<text text-anchor="middle" x="79" y="-75.5" font-family="FreeSans" font-size="10.00">&lt; TCoordinate, TCoordinate, 4 &gt;</text>
</a>
</g>
</g>
<!-- Node2&#45;&gt;Node1 -->
<g id="edge1" class="edge">
<title>Node2&#45;&gt;Node1</title>
<path fill="none" stroke="midnightblue" d="M79,-58.03C79,-48.86 79,-38.74 79,-30.79"/>
<polygon fill="midnightblue" stroke="midnightblue" points="75.5,-58.18 79,-68.18 82.5,-58.18 75.5,-58.18"/>
</g>
<!-- Node3 -->
<g id="node3" class="node">
<title>Node3</title>
<g id="a_node3"><a xlink:href="classDGtal_1_1ArithmeticalDSL.html" target="_top" xlink:title="Aim: This class represents a naive (resp. standard) digital straight line (DSL), ie....">
<polygon fill="white" stroke="black" points="17.5,-146.5 17.5,-187.5 140.5,-187.5 140.5,-146.5 17.5,-146.5"/>
<text text-anchor="start" x="25.5" y="-175.5" font-family="FreeSans" font-size="10.00">DGtal::ArithmeticalDSL</text>
<text text-anchor="start" x="25.5" y="-164.5" font-family="FreeSans" font-size="10.00">&lt; TCoordinate, TInteger,</text>
<text text-anchor="middle" x="79" y="-153.5" font-family="FreeSans" font-size="10.00"> adjacency &gt;</text>
</a>
</g>
</g>
<!-- Node3&#45;&gt;Node2 -->
<g id="edge2" class="edge">
<title>Node3&#45;&gt;Node2</title>
<path fill="none" stroke="orange" stroke-dasharray="5,2" d="M79,-136.03C79,-123.26 79,-108.97 79,-98.68"/>
<polygon fill="orange" stroke="orange" points="75.5,-136.27 79,-146.27 82.5,-136.27 75.5,-136.27"/>
<text text-anchor="middle" x="151.5" y="-120" font-family="FreeSans" font-size="10.00"> &lt; TCoordinate, TCoordinate, 4 &gt;</text>
</g>
</g>
</svg>
