<?xml version="1.0" encoding="UTF-8" standalone="no"?>
<!DOCTYPE svg PUBLIC "-//W3C//DTD SVG 1.1//EN"
 "http://www.w3.org/Graphics/SVG/1.1/DTD/svg11.dtd">
<!-- Generated by graphviz version 2.47.1 (20210417.1919)
 -->
<!-- Title: DGtal::PlaneProbingNeighborhood&lt; TPredicate &gt; Pages: 1 -->
<svg width="598pt" height="88pt"
 viewBox="0.00 0.00 598.00 88.00" xmlns="http://www.w3.org/2000/svg" xmlns:xlink="http://www.w3.org/1999/xlink">
<g id="graph0" class="graph" transform="scale(1 1) rotate(0) translate(4 84)">
<title>DGtal::PlaneProbingNeighborhood&lt; TPredicate &gt;</title>
<polygon fill="white" stroke="transparent" points="-4,4 -4,-84 594,-84 594,4 -4,4"/>
<!-- Node1 -->
<g id="node1" class="node">
<title>Node1</title>
<g id="a_node1"><a xlink:title="Aim: A base virtual class that represents a way to probe a neighborhood, used in the plane probing ba...">
<polygon fill="#bfbfbf" stroke="black" points="0,-24.5 0,-54.5 166,-54.5 166,-24.5 0,-24.5"/>
<text text-anchor="start" x="8" y="-42.5" font-family="FreeSans" font-size="10.00">DGtal::PlaneProbingNeighborhood</text>
<text text-anchor="middle" x="83" y="-31.5" font-family="FreeSans" font-size="10.00">&lt; TPredicate &gt;</text>
</a>
</g>
</g>
<!-- Node2 -->
<g id="node2" class="node">
<title>Node2</title>
<g id="a_node2"><a xlink:href="classDGtal_1_1PlaneProbingHNeighborhood.html" target="_top" xlink:title="Aim: Represent a way to probe the H&#45;neighborhood.">
<polygon fill="white" stroke="black" points="202,-49.5 202,-79.5 375,-79.5 375,-49.5 202,-49.5"/>
<text text-anchor="start" x="210" y="-67.5" font-family="FreeSans" font-size="10.00">DGtal::PlaneProbingHNeighborhood</text>
<text text-anchor="middle" x="288.5" y="-56.5" font-family="FreeSans" font-size="10.00">&lt; TPredicate &gt;</text>
</a>
</g>
</g>
<!-- Node1&#45;&gt;Node2 -->
<g id="edge1" class="edge">
<title>Node1&#45;&gt;Node2</title>
<path fill="none" stroke="midnightblue" d="M176.12,-50.82C184.63,-51.86 193.24,-52.92 201.69,-53.96"/>
<polygon fill="midnightblue" stroke="midnightblue" points="176.54,-47.34 166.18,-49.6 175.68,-54.29 176.54,-47.34"/>
</g>
<!-- Node3 -->
<g id="node3" class="node">
<title>Node3</title>
<g id="a_node3"><a xlink:href="classDGtal_1_1PlaneProbingRNeighborhood.html" target="_top" xlink:title="Aim: Represent a way to probe the R&#45;neighborhood.">
<polygon fill="white" stroke="black" points="202,-0.5 202,-30.5 375,-30.5 375,-0.5 202,-0.5"/>
<text text-anchor="start" x="210" y="-18.5" font-family="FreeSans" font-size="10.00">DGtal::PlaneProbingRNeighborhood</text>
<text text-anchor="middle" x="288.5" y="-7.5" font-family="FreeSans" font-size="10.00">&lt; TPredicate &gt;</text>
</a>
</g>
</g>
<!-- Node1&#45;&gt;Node3 -->
<g id="edge2" class="edge">
<title>Node1&#45;&gt;Node3</title>
<path fill="none" stroke="midnightblue" d="M176.12,-28.64C184.63,-27.63 193.24,-26.62 201.69,-25.62"/>
<polygon fill="midnightblue" stroke="midnightblue" points="175.71,-25.16 166.18,-29.81 176.53,-32.11 175.71,-25.16"/>
</g>
<!-- Node4 -->
<g id="node4" class="node">
<title>Node4</title>
<g id="a_node4"><a xlink:href="classDGtal_1_1PlaneProbingR1Neighborhood.html" target="_top" xlink:title="Aim: Represent a way to probe the R&#45;neighborhood, with the R1 optimization, see &#160;for details.">
<polygon fill="white" stroke="black" points="411,-0.5 411,-30.5 590,-30.5 590,-0.5 411,-0.5"/>
<text text-anchor="start" x="419" y="-18.5" font-family="FreeSans" font-size="10.00">DGtal::PlaneProbingR1Neighborhood</text>
<text text-anchor="middle" x="500.5" y="-7.5" font-family="FreeSans" font-size="10.00">&lt; TPredicate &gt;</text>
</a>
</g>
</g>
<!-- Node3&#45;&gt;Node4 -->
<g id="edge3" class="edge">
<title>Node3&#45;&gt;Node4</title>
<path fill="none" stroke="midnightblue" d="M385.24,-15.5C393.81,-15.5 402.48,-15.5 410.99,-15.5"/>
<polygon fill="midnightblue" stroke="midnightblue" points="385.22,-12 375.22,-15.5 385.22,-19 385.22,-12"/>
</g>
</g>
</svg>
