<?xml version="1.0" encoding="UTF-8" standalone="no"?>
<!DOCTYPE svg PUBLIC "-//W3C//DTD SVG 1.1//EN"
 "http://www.w3.org/Graphics/SVG/1.1/DTD/svg11.dtd">
<!-- Generated by graphviz version 2.47.1 (20210417.1919)
 -->
<!-- Title: DGtal::functors::ForwardRigidTransformation2D&lt; TSpace, TInputValue, TOutputValue, TFunctor &gt; Pages: 1 -->
<svg width="141pt" height="150pt"
 viewBox="0.00 0.00 141.00 150.00" xmlns="http://www.w3.org/2000/svg" xmlns:xlink="http://www.w3.org/1999/xlink">
<g id="graph0" class="graph" transform="scale(1 1) rotate(0) translate(4 146)">
<title>DGtal::functors::ForwardRigidTransformation2D&lt; TSpace, TInputValue, TOutputValue, TFunctor &gt;</title>
<polygon fill="white" stroke="transparent" points="-4,4 -4,-146 137,-146 137,4 -4,4"/>
<!-- Node1 -->
<g id="node1" class="node">
<title>Node1</title>
<g id="a_node1"><a xlink:title="Aim: implements forward rigid transformation of point in the 2D integer space. Warring: This version ...">
<polygon fill="#bfbfbf" stroke="black" points="0,-89.5 0,-141.5 133,-141.5 133,-89.5 0,-89.5"/>
<text text-anchor="start" x="8" y="-129.5" font-family="FreeSans" font-size="10.00">DGtal::functors::Forward</text>
<text text-anchor="start" x="8" y="-118.5" font-family="FreeSans" font-size="10.00">RigidTransformation2D</text>
<text text-anchor="start" x="8" y="-107.5" font-family="FreeSans" font-size="10.00">&lt; TSpace, TInputValue,</text>
<text text-anchor="middle" x="66.5" y="-96.5" font-family="FreeSans" font-size="10.00"> TOutputValue, TFunctor &gt;</text>
</a>
</g>
</g>
<!-- Node2 -->
<g id="node2" class="node">
<title>Node2</title>
<g id="a_node2"><a xlink:href="classDGtal_1_1functors_1_1ForwardRigidTransformation2D.html" target="_top" xlink:title=" ">
<polygon fill="white" stroke="black" points="4,-0.5 4,-41.5 129,-41.5 129,-0.5 4,-0.5"/>
<text text-anchor="start" x="12" y="-29.5" font-family="FreeSans" font-size="10.00">DGtal::functors::Forward</text>
<text text-anchor="start" x="12" y="-18.5" font-family="FreeSans" font-size="10.00">RigidTransformation2D</text>
<text text-anchor="middle" x="66.5" y="-7.5" font-family="FreeSans" font-size="10.00">&lt; Space &gt;</text>
</a>
</g>
</g>
<!-- Node1&#45;&gt;Node2 -->
<g id="edge1" class="edge">
<title>Node1&#45;&gt;Node2</title>
<path fill="none" stroke="orange" stroke-dasharray="5,2" d="M66.5,-78.95C66.5,-66.3 66.5,-52.51 66.5,-41.67"/>
<polygon fill="orange" stroke="orange" points="63,-79.22 66.5,-89.22 70,-79.22 63,-79.22"/>
<text text-anchor="middle" x="91" y="-63" font-family="FreeSans" font-size="10.00"> &lt; Space &gt;</text>
</g>
</g>
</svg>
