<?xml version="1.0" encoding="UTF-8" standalone="no"?>
<!DOCTYPE svg PUBLIC "-//W3C//DTD SVG 1.1//EN"
 "http://www.w3.org/Graphics/SVG/1.1/DTD/svg11.dtd">
<!-- Generated by graphviz version 2.47.1 (20210417.1919)
 -->
<!-- Title: DGtal::functors::DomainRigidTransformation3D&lt; TDomain, TRigidTransformFunctor &gt; Pages: 1 -->
<svg width="202pt" height="139pt"
 viewBox="0.00 0.00 202.00 139.00" xmlns="http://www.w3.org/2000/svg" xmlns:xlink="http://www.w3.org/1999/xlink">
<g id="graph0" class="graph" transform="scale(1 1) rotate(0) translate(4 135)">
<title>DGtal::functors::DomainRigidTransformation3D&lt; TDomain, TRigidTransformFunctor &gt;</title>
<polygon fill="white" stroke="transparent" points="-4,4 -4,-135 198,-135 198,4 -4,4"/>
<!-- Node1 -->
<g id="node1" class="node">
<title>Node1</title>
<g id="a_node1"><a xlink:title="Aim: implements bounds of transformed domain.">
<polygon fill="#bfbfbf" stroke="black" points="0,-89.5 0,-130.5 146,-130.5 146,-89.5 0,-89.5"/>
<text text-anchor="start" x="8" y="-118.5" font-family="FreeSans" font-size="10.00">DGtal::functors::DomainRigid</text>
<text text-anchor="start" x="8" y="-107.5" font-family="FreeSans" font-size="10.00">Transformation3D&lt; TDomain,</text>
<text text-anchor="middle" x="73" y="-96.5" font-family="FreeSans" font-size="10.00"> TRigidTransformFunctor &gt;</text>
</a>
</g>
</g>
<!-- Node2 -->
<g id="node2" class="node">
<title>Node2</title>
<g id="a_node2"><a xlink:href="classDGtal_1_1functors_1_1DomainRigidTransformation3D.html" target="_top" xlink:title=" ">
<polygon fill="white" stroke="black" points="0,-0.5 0,-41.5 146,-41.5 146,-0.5 0,-0.5"/>
<text text-anchor="start" x="8" y="-29.5" font-family="FreeSans" font-size="10.00">DGtal::functors::DomainRigid</text>
<text text-anchor="start" x="8" y="-18.5" font-family="FreeSans" font-size="10.00">Transformation3D&lt; Domain,</text>
<text text-anchor="middle" x="73" y="-7.5" font-family="FreeSans" font-size="10.00"> ForwardTrans &gt;</text>
</a>
</g>
</g>
<!-- Node1&#45;&gt;Node2 -->
<g id="edge1" class="edge">
<title>Node1&#45;&gt;Node2</title>
<path fill="none" stroke="orange" stroke-dasharray="5,2" d="M73,-78.94C73,-66.6 73,-52.66 73,-41.66"/>
<polygon fill="orange" stroke="orange" points="69.5,-79.26 73,-89.26 76.5,-79.26 69.5,-79.26"/>
<text text-anchor="middle" x="133.5" y="-63" font-family="FreeSans" font-size="10.00"> &lt; Domain, ForwardTrans &gt;</text>
</g>
</g>
</svg>
