<?xml version="1.0" encoding="UTF-8" standalone="no"?>
<!DOCTYPE svg PUBLIC "-//W3C//DTD SVG 1.1//EN"
 "http://www.w3.org/Graphics/SVG/1.1/DTD/svg11.dtd">
<!-- Generated by graphviz version 2.47.1 (20210417.1919)
 -->
<!-- Title: DGtal::IteratorCompletion&lt; TDerived &gt; Pages: 1 -->
<svg width="680pt" height="102pt"
 viewBox="0.00 0.00 680.00 101.50" xmlns="http://www.w3.org/2000/svg" xmlns:xlink="http://www.w3.org/1999/xlink">
<g id="graph0" class="graph" transform="scale(1 1) rotate(0) translate(4 97.5)">
<title>DGtal::IteratorCompletion&lt; TDerived &gt;</title>
<polygon fill="white" stroke="transparent" points="-4,4 -4,-97.5 676,-97.5 676,4 -4,4"/>
<!-- Node1 -->
<g id="node1" class="node">
<title>Node1</title>
<g id="a_node1"><a xlink:title="Aim: Class that uses CRTP to add reverse iterators and ranges to a derived class.">
<polygon fill="#bfbfbf" stroke="black" points="0,-27.5 0,-57.5 128,-57.5 128,-27.5 0,-27.5"/>
<text text-anchor="start" x="8" y="-45.5" font-family="FreeSans" font-size="10.00">DGtal::IteratorCompletion</text>
<text text-anchor="middle" x="64" y="-34.5" font-family="FreeSans" font-size="10.00">&lt; TDerived &gt;</text>
</a>
</g>
</g>
<!-- Node2 -->
<g id="node2" class="node">
<title>Node2</title>
<g id="a_node2"><a xlink:href="classDGtal_1_1IteratorCompletion.html" target="_top" xlink:title=" ">
<polygon fill="white" stroke="black" points="285,-50 285,-91 464,-91 464,-50 285,-50"/>
<text text-anchor="start" x="293" y="-79" font-family="FreeSans" font-size="10.00">DGtal::IteratorCompletion</text>
<text text-anchor="start" x="293" y="-68" font-family="FreeSans" font-size="10.00">&lt; ArrayImageAdapter&lt; TArrayIterator,</text>
<text text-anchor="middle" x="374.5" y="-57" font-family="FreeSans" font-size="10.00"> HyperRectDomain&lt; TSpace &gt; &gt; &gt;</text>
</a>
</g>
</g>
<!-- Node1&#45;&gt;Node2 -->
<g id="edge1" class="edge">
<title>Node1&#45;&gt;Node2</title>
<path fill="none" stroke="orange" stroke-dasharray="5,2" d="M138.22,-49.15C182.22,-53.14 238.49,-58.25 284.98,-62.47"/>
<polygon fill="orange" stroke="orange" points="138.45,-45.65 128.17,-48.23 137.82,-52.62 138.45,-45.65"/>
<text text-anchor="start" x="146" y="-85.5" font-family="FreeSans" font-size="10.00"> &lt; ArrayImageAdapter</text>
<text text-anchor="start" x="146" y="-74.5" font-family="FreeSans" font-size="10.00">&lt; TArrayIterator, HyperRect</text>
<text text-anchor="middle" x="206.5" y="-63.5" font-family="FreeSans" font-size="10.00">Domain&lt; TSpace &gt; &gt; &gt;</text>
</g>
<!-- Node4 -->
<g id="node4" class="node">
<title>Node4</title>
<g id="a_node4"><a xlink:href="classDGtal_1_1IteratorCompletion.html" target="_top" xlink:title=" ">
<polygon fill="white" stroke="black" points="310.5,-0.5 310.5,-30.5 438.5,-30.5 438.5,-0.5 310.5,-0.5"/>
<text text-anchor="start" x="318.5" y="-18.5" font-family="FreeSans" font-size="10.00">DGtal::IteratorCompletion</text>
<text text-anchor="middle" x="374.5" y="-7.5" font-family="FreeSans" font-size="10.00">&lt; MyImage&lt; T, N &gt; &gt;</text>
</a>
</g>
</g>
<!-- Node1&#45;&gt;Node4 -->
<g id="edge3" class="edge">
<title>Node1&#45;&gt;Node4</title>
<path fill="none" stroke="orange" stroke-dasharray="5,2" d="M138.29,-32.33C140.89,-32.04 143.47,-31.76 146,-31.5 201.34,-25.8 264.46,-21.54 310.15,-18.85"/>
<polygon fill="orange" stroke="orange" points="137.71,-28.88 128.19,-33.52 138.52,-35.83 137.71,-28.88"/>
<text text-anchor="middle" x="206.5" y="-34.5" font-family="FreeSans" font-size="10.00"> &lt; MyImage&lt; T, N &gt; &gt;</text>
</g>
<!-- Node3 -->
<g id="node3" class="node">
<title>Node3</title>
<g id="a_node3"><a xlink:href="classDGtal_1_1ArrayImageAdapter_3_01TArrayIterator_00_01HyperRectDomain_3_01TSpace_01_4_01_4.html" target="_top" xlink:title="Aim: Image adapter for generic arrays with sub&#45;domain view capability.">
<polygon fill="white" stroke="black" points="501,-50 501,-91 672,-91 672,-50 501,-50"/>
<text text-anchor="start" x="509" y="-79" font-family="FreeSans" font-size="10.00">DGtal::ArrayImageAdapter</text>
<text text-anchor="start" x="509" y="-68" font-family="FreeSans" font-size="10.00">&lt; TArrayIterator, HyperRectDomain</text>
<text text-anchor="middle" x="586.5" y="-57" font-family="FreeSans" font-size="10.00">&lt; TSpace &gt; &gt;</text>
</a>
</g>
</g>
<!-- Node2&#45;&gt;Node3 -->
<g id="edge2" class="edge">
<title>Node2&#45;&gt;Node3</title>
<path fill="none" stroke="midnightblue" d="M474.51,-70.5C483.28,-70.5 492.11,-70.5 500.74,-70.5"/>
<polygon fill="midnightblue" stroke="midnightblue" points="474.25,-67 464.25,-70.5 474.25,-74 474.25,-67"/>
</g>
<!-- Node5 -->
<g id="node5" class="node">
<title>Node5</title>
<g id="a_node5"><a xlink:title=" ">
<polygon fill="white" stroke="#bfbfbf" points="540,-6 540,-25 633,-25 633,-6 540,-6"/>
<text text-anchor="middle" x="586.5" y="-13" font-family="FreeSans" font-size="10.00">MyImage&lt; T, N &gt;</text>
</a>
</g>
</g>
<!-- Node4&#45;&gt;Node5 -->
<g id="edge4" class="edge">
<title>Node4&#45;&gt;Node5</title>
<path fill="none" stroke="midnightblue" d="M448.63,-15.5C478.97,-15.5 513.23,-15.5 539.89,-15.5"/>
<polygon fill="midnightblue" stroke="midnightblue" points="448.51,-12 438.51,-15.5 448.51,-19 448.51,-12"/>
</g>
</g>
</svg>
