<?xml version="1.0" encoding="UTF-8" standalone="no"?>
<!DOCTYPE svg PUBLIC "-//W3C//DTD SVG 1.1//EN"
 "http://www.w3.org/Graphics/SVG/1.1/DTD/svg11.dtd">
<!-- Generated by graphviz version 2.47.1 (20210417.1919)
 -->
<!-- Title: DGtal::KhalimskySpaceNDHelper&lt; TKhalimskySpace &gt; Pages: 1 -->
<svg width="1107pt" height="97pt"
 viewBox="0.00 0.00 1107.00 97.00" xmlns="http://www.w3.org/2000/svg" xmlns:xlink="http://www.w3.org/1999/xlink">
<g id="graph0" class="graph" transform="scale(1 1) rotate(0) translate(4 93)">
<title>DGtal::KhalimskySpaceNDHelper&lt; TKhalimskySpace &gt;</title>
<polygon fill="white" stroke="transparent" points="-4,4 -4,-93 1103,-93 1103,4 -4,4"/>
<!-- Node1 -->
<g id="node1" class="node">
<title>Node1</title>
<g id="a_node1"><a xlink:title="Internal class of KhalimskySpaceND that provides some optimizations depending on the space type.">
<polygon fill="#bfbfbf" stroke="black" points="0,-26 0,-56 165,-56 165,-26 0,-26"/>
<text text-anchor="start" x="8" y="-44" font-family="FreeSans" font-size="10.00">DGtal::KhalimskySpaceNDHelper</text>
<text text-anchor="middle" x="82.5" y="-33" font-family="FreeSans" font-size="10.00">&lt; TKhalimskySpace &gt;</text>
</a>
</g>
</g>
<!-- Node2 -->
<g id="node2" class="node">
<title>Node2</title>
<g id="a_node2"><a xlink:href="classDGtal_1_1KhalimskySpaceNDHelper.html" target="_top" xlink:title=" ">
<polygon fill="white" stroke="black" points="311,-47.5 311,-88.5 476,-88.5 476,-47.5 311,-47.5"/>
<text text-anchor="start" x="319" y="-76.5" font-family="FreeSans" font-size="10.00">DGtal::KhalimskySpaceNDHelper</text>
<text text-anchor="start" x="319" y="-65.5" font-family="FreeSans" font-size="10.00">&lt; KhalimskySpaceND&lt; dim,</text>
<text text-anchor="middle" x="393.5" y="-54.5" font-family="FreeSans" font-size="10.00"> TInteger &gt; &gt;</text>
</a>
</g>
</g>
<!-- Node1&#45;&gt;Node2 -->
<g id="edge1" class="edge">
<title>Node1&#45;&gt;Node2</title>
<path fill="none" stroke="orange" stroke-dasharray="5,2" d="M175.29,-49.02C218.37,-52.78 269.29,-57.23 310.99,-60.88"/>
<polygon fill="orange" stroke="orange" points="175.36,-45.51 165.09,-48.13 174.75,-52.49 175.36,-45.51"/>
<text text-anchor="start" x="187.5" y="-73" font-family="FreeSans" font-size="10.00"> &lt; KhalimskySpaceND</text>
<text text-anchor="middle" x="238" y="-62" font-family="FreeSans" font-size="10.00">&lt; dim, TInteger &gt; &gt;</text>
</g>
<!-- Node5 -->
<g id="node5" class="node">
<title>Node5</title>
<g id="a_node5"><a xlink:href="classDGtal_1_1KhalimskySpaceNDHelper.html" target="_top" xlink:title=" ">
<polygon fill="white" stroke="black" points="494,-0.5 494,-41.5 659,-41.5 659,-0.5 494,-0.5"/>
<text text-anchor="start" x="502" y="-29.5" font-family="FreeSans" font-size="10.00">DGtal::KhalimskySpaceNDHelper</text>
<text text-anchor="start" x="502" y="-18.5" font-family="FreeSans" font-size="10.00">&lt; KhalimskySpaceND&lt; dim,</text>
<text text-anchor="middle" x="576.5" y="-7.5" font-family="FreeSans" font-size="10.00"> DGtal::int32_t &gt; &gt;</text>
</a>
</g>
</g>
<!-- Node1&#45;&gt;Node5 -->
<g id="edge4" class="edge">
<title>Node1&#45;&gt;Node5</title>
<path fill="none" stroke="orange" stroke-dasharray="5,2" d="M175.24,-24.77C177.85,-24.48 180.44,-24.23 183,-24 290.08,-14.51 414.23,-15.57 493.75,-17.79"/>
<polygon fill="orange" stroke="orange" points="174.6,-21.32 165.08,-25.97 175.43,-28.27 174.6,-21.32"/>
<text text-anchor="start" x="183" y="-38" font-family="FreeSans" font-size="10.00"> &lt; KhalimskySpaceND</text>
<text text-anchor="middle" x="238" y="-27" font-family="FreeSans" font-size="10.00">&lt; dim, DGtal::int32_t &gt; &gt;</text>
</g>
<!-- Node3 -->
<g id="node3" class="node">
<title>Node3</title>
<g id="a_node3"><a xlink:href="classDGtal_1_1KhalimskySpaceND.html" target="_top" xlink:title="Aim: This class is a model of CCellularGridSpaceND. It represents the cubical grid as a cell complex,...">
<polygon fill="white" stroke="black" points="677,-52 677,-82 814,-82 814,-52 677,-52"/>
<text text-anchor="start" x="685" y="-70" font-family="FreeSans" font-size="10.00">DGtal::KhalimskySpaceND</text>
<text text-anchor="middle" x="745.5" y="-59" font-family="FreeSans" font-size="10.00">&lt; dim, TInteger &gt;</text>
</a>
</g>
</g>
<!-- Node2&#45;&gt;Node3 -->
<g id="edge2" class="edge">
<title>Node2&#45;&gt;Node3</title>
<path fill="none" stroke="#8b1a1a" d="M486.31,-67.74C546.06,-67.57 622.67,-67.35 676.88,-67.19"/>
<polygon fill="#8b1a1a" stroke="#8b1a1a" points="486.11,-64.24 476.12,-67.77 486.13,-71.24 486.11,-64.24"/>
</g>
<!-- Node4 -->
<g id="node4" class="node">
<title>Node4</title>
<g id="a_node4"><a xlink:href="classDGtal_1_1KhalimskySpaceND.html" target="_top" xlink:title=" ">
<polygon fill="white" stroke="black" points="946,-23 946,-53 1099,-53 1099,-23 946,-23"/>
<text text-anchor="start" x="954" y="-41" font-family="FreeSans" font-size="10.00">DGtal::KhalimskySpaceND</text>
<text text-anchor="middle" x="1022.5" y="-30" font-family="FreeSans" font-size="10.00">&lt; dimAmbient, DGtal::int32_t &gt;</text>
</a>
</g>
</g>
<!-- Node3&#45;&gt;Node4 -->
<g id="edge3" class="edge">
<title>Node3&#45;&gt;Node4</title>
<path fill="none" stroke="orange" stroke-dasharray="5,2" d="M824.15,-58.81C862.28,-54.79 908.04,-49.96 945.89,-45.97"/>
<polygon fill="orange" stroke="orange" points="823.7,-55.34 814.12,-59.87 824.44,-62.3 823.7,-55.34"/>
<text text-anchor="start" x="832" y="-71" font-family="FreeSans" font-size="10.00"> &lt; dimAmbient, DGtal</text>
<text text-anchor="middle" x="880" y="-60" font-family="FreeSans" font-size="10.00">::int32_t &gt;</text>
</g>
<!-- Node5&#45;&gt;Node4 -->
<g id="edge5" class="edge">
<title>Node5&#45;&gt;Node4</title>
<path fill="none" stroke="#8b1a1a" d="M669.23,-24.51C751.04,-27.64 869.36,-32.17 945.86,-35.1"/>
<polygon fill="#8b1a1a" stroke="#8b1a1a" points="669.32,-21.01 659.2,-24.13 669.05,-28.01 669.32,-21.01"/>
</g>
</g>
</svg>
