<?xml version="1.0" encoding="UTF-8" standalone="no"?>
<!DOCTYPE svg PUBLIC "-//W3C//DTD SVG 1.1//EN"
 "http://www.w3.org/Graphics/SVG/1.1/DTD/svg11.dtd">
<!-- Generated by graphviz version 2.47.1 (20210417.1919)
 -->
<!-- Title: GTOPOLOGY Pages: 1 -->
<svg width="2073pt" height="514pt"
 viewBox="0.00 0.00 2073.00 514.00" xmlns="http://www.w3.org/2000/svg" xmlns:xlink="http://www.w3.org/1999/xlink">
<g id="graph0" class="graph" transform="scale(1 1) rotate(0) translate(4 510)">
<title>GTOPOLOGY</title>
<polygon fill="white" stroke="transparent" points="-4,4 -4,-510 2069,-510 2069,4 -4,4"/>
<g id="clust1" class="cluster">
<title>cluster_ext</title>
</g>
<g id="clust2" class="cluster">
<title>cluster_1</title>
<polygon fill="#eeeeff" stroke="#eeeeff" points="692,-342 692,-417 806,-417 806,-342 692,-342"/>
<text text-anchor="middle" x="749" y="-349.8" font-family="Times,serif" font-size="14.00">base</text>
</g>
<g id="clust3" class="cluster">
<title>cluster_2</title>
<polygon fill="#ddddff" stroke="#ddddff" points="814,-342 814,-490 1076,-490 1076,-342 814,-342"/>
<text text-anchor="middle" x="945" y="-349.8" font-family="Times,serif" font-size="14.00">graph</text>
</g>
<g id="clust4" class="cluster">
<title>cluster_3</title>
<polygon fill="#d4ddff" stroke="#d4ddff" points="1212,-342 1212,-417 1348,-417 1348,-342 1212,-342"/>
<text text-anchor="middle" x="1280" y="-349.8" font-family="Times,serif" font-size="14.00">image</text>
</g>
<g id="clust5" class="cluster">
<title>cluster_4</title>
<polygon fill="#e0eeff" stroke="#e0eeff" points="1084,-342 1084,-417 1204,-417 1204,-342 1084,-342"/>
<text text-anchor="middle" x="1144" y="-349.8" font-family="Times,serif" font-size="14.00">kernel</text>
</g>
<g id="clust6" class="cluster">
<title>cluster_5</title>
<polygon fill="white" stroke="white" points="466,-342 466,-417 684,-417 684,-342 466,-342"/>
<text text-anchor="middle" x="575" y="-349.8" font-family="Times,serif" font-size="14.00">boost</text>
</g>
<g id="clust7" class="cluster">
<title>cluster_0</title>
<polygon fill="lightgrey" stroke="lightgrey" points="266,-153 266,-315 680,-315 680,-153 266,-153"/>
<text text-anchor="middle" x="473" y="-160.8" font-family="Times,serif" font-size="14.00">topology (main concepts)</text>
</g>
<g id="clust8" class="cluster">
<title>cluster_models</title>
<polygon fill="#ccffcc" stroke="#ccffcc" points="8,-8 8,-122 2057,-122 2057,-8 8,-8"/>
<text text-anchor="middle" x="1032.5" y="-15.8" font-family="Times,serif" font-size="14.00">topology (main models)</text>
</g>
<g id="clust9" class="cluster">
<title>cluster_models_0</title>
<polygon fill="#ccf8cc" stroke="#ccf8cc" points="527,-39 527,-114 865,-114 865,-39 527,-39"/>
<text text-anchor="middle" x="696" y="-46.8" font-family="Times,serif" font-size="14.00">(main graph models)</text>
</g>
<g id="clust10" class="cluster">
<title>cluster_models_1</title>
<polygon fill="#cceecc" stroke="#cceecc" points="873,-39 873,-114 2049,-114 2049,-39 873,-39"/>
<text text-anchor="middle" x="1461" y="-46.8" font-family="Times,serif" font-size="14.00">(main digital surface container models)</text>
</g>
<g id="clust11" class="cluster">
<title>cluster_models_2</title>
<polygon fill="#cce8cc" stroke="#cce8cc" points="16,-39 16,-114 519,-114 519,-39 16,-39"/>
<text text-anchor="middle" x="267.5" y="-46.8" font-family="Times,serif" font-size="14.00">(others)</text>
</g>
<!-- CPredicate -->
<g id="node1" class="node">
<title>CPredicate</title>
<g id="a_node1"><a xlink:href="structDGtal_1_1concepts_1_1CPredicate.html" target="_top" xlink:title="CPredicate">
<ellipse fill="white" stroke="white" cx="749" cy="-391" rx="49.29" ry="18"/>
<text text-anchor="middle" x="749" y="-387.3" font-family="Times,serif" font-size="14.00">CPredicate</text>
</a>
</g>
</g>
<!-- CUndirectedSimpleGraph -->
<g id="node2" class="node">
<title>CUndirectedSimpleGraph</title>
<g id="a_node2"><a xlink:href="structDGtal_1_1concepts_1_1CUndirectedSimpleGraph.html" target="_top" xlink:title="CUndirectedSimpleGraph">
<ellipse fill="white" stroke="white" cx="925" cy="-391" rx="102.88" ry="18"/>
<text text-anchor="middle" x="925" y="-387.3" font-family="Times,serif" font-size="14.00">CUndirectedSimpleGraph</text>
</a>
</g>
</g>
<!-- CUndirectedSimpleLocalGraph -->
<g id="node3" class="node">
<title>CUndirectedSimpleLocalGraph</title>
<g id="a_node3"><a xlink:href="structDGtal_1_1concepts_1_1CUndirectedSimpleLocalGraph.html" target="_top" xlink:title="CUndirectedSimpleLocalGraph">
<ellipse fill="white" stroke="white" cx="945" cy="-464" rx="122.68" ry="18"/>
<text text-anchor="middle" x="945" y="-460.3" font-family="Times,serif" font-size="14.00">CUndirectedSimpleLocalGraph</text>
</a>
</g>
</g>
<!-- CUndirectedSimpleGraph&#45;&gt;CUndirectedSimpleLocalGraph -->
<g id="edge5" class="edge">
<title>CUndirectedSimpleGraph&#45;&gt;CUndirectedSimpleLocalGraph</title>
<path fill="none" stroke="black" d="M929.84,-409.19C932.13,-417.3 934.91,-427.16 937.46,-436.22"/>
<polygon fill="black" stroke="black" points="934.12,-437.29 940.2,-445.97 940.86,-435.4 934.12,-437.29"/>
</g>
<!-- CConstImage -->
<g id="node4" class="node">
<title>CConstImage</title>
<g id="a_node4"><a xlink:href="structDGtal_1_1concepts_1_1CConstImage.html" target="_top" xlink:title="CConstImage">
<ellipse fill="white" stroke="white" cx="1280" cy="-391" rx="59.59" ry="18"/>
<text text-anchor="middle" x="1280" y="-387.3" font-family="Times,serif" font-size="14.00">CConstImage</text>
</a>
</g>
</g>
<!-- CDigitalSet -->
<g id="node5" class="node">
<title>CDigitalSet</title>
<g id="a_node5"><a xlink:href="structDGtal_1_1concepts_1_1CDigitalSet.html" target="_top" xlink:title="CDigitalSet">
<ellipse fill="white" stroke="white" cx="1144" cy="-391" rx="51.99" ry="18"/>
<text text-anchor="middle" x="1144" y="-387.3" font-family="Times,serif" font-size="14.00">CDigitalSet</text>
</a>
</g>
</g>
<!-- boost_CopyConstructible -->
<g id="node6" class="node">
<title>boost_CopyConstructible</title>
<g id="a_node6"><a xlink:href="structboost_1_1CopyConstructible.html" target="_top" xlink:title="boost::CopyConstructible">
<ellipse fill="orange" stroke="orange" cx="575" cy="-391" rx="100.98" ry="18"/>
<text text-anchor="middle" x="575" y="-387.3" font-family="Times,serif" font-size="14.00">boost::CopyConstructible</text>
</a>
</g>
</g>
<!-- CDigitalSurfaceContainer -->
<g id="node7" class="node">
<title>CDigitalSurfaceContainer</title>
<g id="a_node7"><a xlink:href="structDGtal_1_1concepts_1_1CDigitalSurfaceContainer.html" target="_top" xlink:title="CDigitalSurfaceContainer">
<ellipse fill="white" stroke="white" cx="569" cy="-202" rx="102.88" ry="18"/>
<text text-anchor="middle" x="569" y="-198.3" font-family="Times,serif" font-size="14.00">CDigitalSurfaceContainer</text>
</a>
</g>
</g>
<!-- CDigitalSurfaceContainer&#45;&gt;boost_CopyConstructible -->
<g id="edge1" class="edge">
<title>CDigitalSurfaceContainer&#45;&gt;boost_CopyConstructible</title>
<path fill="none" stroke="black" d="M648.89,-213.4C677.69,-218.92 705.27,-226.91 714,-238 753,-287.53 672.36,-340.93 618.37,-369.38"/>
<polygon fill="black" stroke="black" points="616.58,-366.36 609.29,-374.06 619.79,-372.59 616.58,-366.36"/>
</g>
<!-- CDigitalSurfaceTracker -->
<g id="node8" class="node">
<title>CDigitalSurfaceTracker</title>
<g id="a_node8"><a xlink:href="structDGtal_1_1concepts_1_1CDigitalSurfaceTracker.html" target="_top" xlink:title="CDigitalSurfaceTracker">
<ellipse fill="white" stroke="white" cx="577" cy="-289" rx="94.78" ry="18"/>
<text text-anchor="middle" x="577" y="-285.3" font-family="Times,serif" font-size="14.00">CDigitalSurfaceTracker</text>
</a>
</g>
</g>
<!-- CDigitalSurfaceContainer&#45;&gt;CDigitalSurfaceTracker -->
<g id="edge3" class="edge">
<title>CDigitalSurfaceContainer&#45;&gt;CDigitalSurfaceTracker</title>
<path fill="none" stroke="black" stroke-dasharray="5,2" d="M570.62,-220.2C571.71,-231.84 573.18,-247.45 574.44,-260.76"/>
<polygon fill="black" stroke="black" points="570.96,-261.2 575.38,-270.82 577.93,-260.54 570.96,-261.2"/>
<text text-anchor="middle" x="582.5" y="-241.8" font-family="Times,serif" font-size="14.00">use</text>
</g>
<!-- CCellularGridSpaceND -->
<g id="node10" class="node">
<title>CCellularGridSpaceND</title>
<g id="a_node10"><a xlink:href="structDGtal_1_1concepts_1_1CCellularGridSpaceND.html" target="_top" xlink:title="CCellularGridSpaceND">
<ellipse fill="white" stroke="white" cx="369" cy="-289" rx="94.78" ry="18"/>
<text text-anchor="middle" x="369" y="-285.3" font-family="Times,serif" font-size="14.00">CCellularGridSpaceND</text>
</a>
</g>
</g>
<!-- CDigitalSurfaceContainer&#45;&gt;CCellularGridSpaceND -->
<g id="edge4" class="edge">
<title>CDigitalSurfaceContainer&#45;&gt;CCellularGridSpaceND</title>
<path fill="none" stroke="black" stroke-dasharray="5,2" d="M531.85,-218.79C499.01,-232.74 450.97,-253.16 415.58,-268.21"/>
<polygon fill="black" stroke="black" points="413.79,-265.16 405.95,-272.3 416.52,-271.61 413.79,-265.16"/>
<text text-anchor="middle" x="490.5" y="-241.8" font-family="Times,serif" font-size="14.00">use</text>
</g>
<!-- CDigitalSurfaceTracker&#45;&gt;boost_CopyConstructible -->
<g id="edge2" class="edge">
<title>CDigitalSurfaceTracker&#45;&gt;boost_CopyConstructible</title>
<path fill="none" stroke="black" d="M576.65,-307.42C576.35,-322.62 575.9,-344.93 575.55,-362.54"/>
<polygon fill="black" stroke="black" points="572.05,-362.71 575.34,-372.78 579.04,-362.85 572.05,-362.71"/>
</g>
<!-- CSurfelPredicate -->
<g id="node9" class="node">
<title>CSurfelPredicate</title>
<g id="a_node9"><a xlink:href="structDGtal_1_1concepts_1_1CSurfelPredicate.html" target="_top" xlink:title="CSurfelPredicate">
<ellipse fill="white" stroke="white" cx="377" cy="-202" rx="70.69" ry="18"/>
<text text-anchor="middle" x="377" y="-198.3" font-family="Times,serif" font-size="14.00">CSurfelPredicate</text>
</a>
</g>
</g>
<!-- CSurfelPredicate&#45;&gt;CPredicate -->
<g id="edge6" class="edge">
<title>CSurfelPredicate&#45;&gt;CPredicate</title>
<path fill="none" stroke="black" d="M428.09,-214.5C437.67,-216.47 447.62,-218.4 457,-220 557.65,-237.18 603.63,-204.37 681,-271 710.1,-296.06 729.53,-336.82 739.92,-363.52"/>
<polygon fill="black" stroke="black" points="736.69,-364.86 743.46,-373 743.25,-362.41 736.69,-364.86"/>
</g>
<!-- DigitalSurface -->
<g id="node11" class="node">
<title>DigitalSurface</title>
<g id="a_node11"><a xlink:href="classDGtal_1_1DigitalSurface.html" target="_top" xlink:title="DigitalSurface">
<ellipse fill="white" stroke="white" cx="597" cy="-88" rx="61.99" ry="18"/>
<text text-anchor="middle" x="597" y="-84.3" font-family="Times,serif" font-size="14.00">DigitalSurface</text>
</a>
</g>
</g>
<!-- DigitalSurface&#45;&gt;CUndirectedSimpleGraph -->
<g id="edge16" class="edge">
<title>DigitalSurface&#45;&gt;CUndirectedSimpleGraph</title>
<path fill="none" stroke="black" d="M625.38,-104.11C638.12,-110.39 653.52,-117.29 668,-122 736.05,-144.13 770.56,-107.76 826,-153 843.27,-167.1 893.98,-303.81 915.34,-362.96"/>
<polygon fill="black" stroke="black" points="912.17,-364.5 918.85,-372.73 918.76,-362.13 912.17,-364.5"/>
</g>
<!-- DigitalSurface&#45;&gt;CDigitalSurfaceContainer -->
<g id="edge17" class="edge">
<title>DigitalSurface&#45;&gt;CDigitalSurfaceContainer</title>
<path fill="none" stroke="black" stroke-dasharray="5,2" d="M592.75,-106.01C588.25,-124.02 581.07,-152.71 575.79,-173.85"/>
<polygon fill="black" stroke="black" points="572.32,-173.28 573.29,-183.83 579.11,-174.98 572.32,-173.28"/>
<text text-anchor="middle" x="595.5" y="-133.8" font-family="Times,serif" font-size="14.00">use</text>
</g>
<!-- IndexedDigitalSurface -->
<g id="node12" class="node">
<title>IndexedDigitalSurface</title>
<g id="a_node12"><a xlink:href="classDGtal_1_1IndexedDigitalSurface.html" target="_top" xlink:title="IndexedDigitalSurface">
<ellipse fill="white" stroke="white" cx="767" cy="-88" rx="90.18" ry="18"/>
<text text-anchor="middle" x="767" y="-84.3" font-family="Times,serif" font-size="14.00">IndexedDigitalSurface</text>
</a>
</g>
</g>
<!-- IndexedDigitalSurface&#45;&gt;CUndirectedSimpleGraph -->
<g id="edge18" class="edge">
<title>IndexedDigitalSurface&#45;&gt;CUndirectedSimpleGraph</title>
<path fill="none" stroke="black" d="M804.1,-104.52C825.24,-115.19 850.53,-131.35 866,-153 912.43,-217.97 922.48,-315.61 924.54,-362.69"/>
<polygon fill="black" stroke="black" points="921.05,-362.87 924.9,-372.74 928.04,-362.62 921.05,-362.87"/>
</g>
<!-- IndexedDigitalSurface&#45;&gt;CDigitalSurfaceContainer -->
<g id="edge19" class="edge">
<title>IndexedDigitalSurface&#45;&gt;CDigitalSurfaceContainer</title>
<path fill="none" stroke="black" stroke-dasharray="5,2" d="M738.21,-105.29C703.46,-124.94 644.92,-158.06 606.62,-179.72"/>
<polygon fill="black" stroke="black" points="604.81,-176.72 597.83,-184.69 608.25,-182.82 604.81,-176.72"/>
<text text-anchor="middle" x="700.5" y="-133.8" font-family="Times,serif" font-size="14.00">use</text>
</g>
<!-- DigitalSetBoundary -->
<g id="node13" class="node">
<title>DigitalSetBoundary</title>
<g id="a_node13"><a xlink:href="classDGtal_1_1DigitalSetBoundary.html" target="_top" xlink:title="DigitalSetBoundary">
<ellipse fill="white" stroke="white" cx="1488" cy="-88" rx="81.49" ry="18"/>
<text text-anchor="middle" x="1488" y="-84.3" font-family="Times,serif" font-size="14.00">DigitalSetBoundary</text>
</a>
</g>
</g>
<!-- DigitalSetBoundary&#45;&gt;CDigitalSet -->
<g id="edge8" class="edge">
<title>DigitalSetBoundary&#45;&gt;CDigitalSet</title>
<path fill="none" stroke="black" stroke-dasharray="5,2" d="M1448.73,-103.91C1433.02,-109.74 1414.72,-116.37 1398,-122 1386.54,-125.86 1382.15,-123.43 1372,-130 1273.12,-194.03 1191.87,-312.65 1159.32,-364.56"/>
<polygon fill="black" stroke="black" points="1156.28,-362.82 1153.99,-373.16 1162.23,-366.51 1156.28,-362.82"/>
<text text-anchor="middle" x="1260.5" y="-241.8" font-family="Times,serif" font-size="14.00">use</text>
</g>
<!-- DigitalSetBoundary&#45;&gt;CDigitalSurfaceContainer -->
<g id="edge7" class="edge">
<title>DigitalSetBoundary&#45;&gt;CDigitalSurfaceContainer</title>
<path fill="none" stroke="black" d="M1453.18,-104.27C1436.75,-110.82 1416.69,-117.9 1398,-122 1354.88,-131.46 1342.97,-126.09 1299,-130 1178.67,-140.71 835.67,-174.55 666.19,-191.35"/>
<polygon fill="black" stroke="black" points="665.63,-187.89 656.03,-192.36 666.32,-194.85 665.63,-187.89"/>
</g>
<!-- ImplicitDigitalSurface -->
<g id="node14" class="node">
<title>ImplicitDigitalSurface</title>
<g id="a_node14"><a xlink:href="classDGtal_1_1ImplicitDigitalSurface.html" target="_top" xlink:title="ImplicitDigitalSurface">
<ellipse fill="white" stroke="white" cx="971" cy="-88" rx="90.18" ry="18"/>
<text text-anchor="middle" x="971" y="-84.3" font-family="Times,serif" font-size="14.00">ImplicitDigitalSurface</text>
</a>
</g>
</g>
<!-- ImplicitDigitalSurface&#45;&gt;CDigitalSurfaceContainer -->
<g id="edge9" class="edge">
<title>ImplicitDigitalSurface&#45;&gt;CDigitalSurfaceContainer</title>
<path fill="none" stroke="black" d="M927.23,-103.75C909.26,-109.65 888.2,-116.37 869,-122 789.32,-145.36 696.81,-169.24 635.82,-184.53"/>
<polygon fill="black" stroke="black" points="634.79,-181.18 625.93,-187.01 636.49,-187.97 634.79,-181.18"/>
</g>
<!-- LightImplicitDigitalSurface -->
<g id="node15" class="node">
<title>LightImplicitDigitalSurface</title>
<g id="a_node15"><a xlink:href="classDGtal_1_1LightImplicitDigitalSurface.html" target="_top" xlink:title="LightImplicitDigitalSurface">
<ellipse fill="white" stroke="white" cx="1696" cy="-88" rx="109.38" ry="18"/>
<text text-anchor="middle" x="1696" y="-84.3" font-family="Times,serif" font-size="14.00">LightImplicitDigitalSurface</text>
</a>
</g>
</g>
<!-- LightImplicitDigitalSurface&#45;&gt;CUndirectedSimpleLocalGraph -->
<g id="edge13" class="edge">
<title>LightImplicitDigitalSurface&#45;&gt;CUndirectedSimpleLocalGraph</title>
<path fill="none" stroke="black" d="M1646.88,-104.14C1559.47,-131.43 1386,-187.3 1386,-201 1386,-201 1386,-201 1386,-392 1386,-410.76 1369.46,-410.16 1352,-417 1301.83,-436.65 1168.43,-449.15 1067.92,-456.09"/>
<polygon fill="black" stroke="black" points="1067.43,-452.61 1057.69,-456.78 1067.9,-459.6 1067.43,-452.61"/>
</g>
<!-- LightImplicitDigitalSurface&#45;&gt;CDigitalSurfaceContainer -->
<g id="edge12" class="edge">
<title>LightImplicitDigitalSurface&#45;&gt;CDigitalSurfaceContainer</title>
<path fill="none" stroke="black" d="M1650.6,-104.38C1628.89,-111.04 1602.38,-118.17 1578,-122 1487.48,-136.21 1463.37,-123.23 1372,-130 1310.91,-134.52 1295.97,-139.1 1235,-145 1035.49,-164.31 801.97,-183.06 671.19,-193.21"/>
<polygon fill="black" stroke="black" points="670.88,-189.72 661.18,-193.99 671.42,-196.7 670.88,-189.72"/>
</g>
<!-- SetOfSurfels -->
<g id="node16" class="node">
<title>SetOfSurfels</title>
<g id="a_node16"><a xlink:href="classDGtal_1_1SetOfSurfels.html" target="_top" xlink:title="SetOfSurfels">
<ellipse fill="white" stroke="white" cx="1135" cy="-88" rx="55.79" ry="18"/>
<text text-anchor="middle" x="1135" y="-84.3" font-family="Times,serif" font-size="14.00">SetOfSurfels</text>
</a>
</g>
</g>
<!-- SetOfSurfels&#45;&gt;CDigitalSurfaceContainer -->
<g id="edge10" class="edge">
<title>SetOfSurfels&#45;&gt;CDigitalSurfaceContainer</title>
<path fill="none" stroke="black" d="M1109.86,-104.09C1098.12,-110.53 1083.73,-117.56 1070,-122 937.24,-164.98 776.86,-185.02 673.93,-194.05"/>
<polygon fill="black" stroke="black" points="673.51,-190.58 663.84,-194.92 674.11,-197.55 673.51,-190.58"/>
</g>
<!-- ExplicitDigitalSurface -->
<g id="node17" class="node">
<title>ExplicitDigitalSurface</title>
<g id="a_node17"><a xlink:href="classDGtal_1_1ExplicitDigitalSurface.html" target="_top" xlink:title="ExplicitDigitalSurface">
<ellipse fill="white" stroke="white" cx="1299" cy="-88" rx="89.88" ry="18"/>
<text text-anchor="middle" x="1299" y="-84.3" font-family="Times,serif" font-size="14.00">ExplicitDigitalSurface</text>
</a>
</g>
</g>
<!-- ExplicitDigitalSurface&#45;&gt;CDigitalSurfaceContainer -->
<g id="edge11" class="edge">
<title>ExplicitDigitalSurface&#45;&gt;CDigitalSurfaceContainer</title>
<path fill="none" stroke="black" d="M1259.03,-104.21C1241.18,-110.51 1219.76,-117.4 1200,-122 1017.96,-164.34 800.74,-185.23 674.48,-194.52"/>
<polygon fill="black" stroke="black" points="674.14,-191.04 664.42,-195.25 674.65,-198.02 674.14,-191.04"/>
</g>
<!-- LightExplicitDigitalSurface -->
<g id="node18" class="node">
<title>LightExplicitDigitalSurface</title>
<g id="a_node18"><a xlink:href="classDGtal_1_1LightExplicitDigitalSurface.html" target="_top" xlink:title="LightExplicitDigitalSurface">
<ellipse fill="white" stroke="white" cx="1932" cy="-88" rx="108.58" ry="18"/>
<text text-anchor="middle" x="1932" y="-84.3" font-family="Times,serif" font-size="14.00">LightExplicitDigitalSurface</text>
</a>
</g>
</g>
<!-- LightExplicitDigitalSurface&#45;&gt;CUndirectedSimpleLocalGraph -->
<g id="edge15" class="edge">
<title>LightExplicitDigitalSurface&#45;&gt;CUndirectedSimpleLocalGraph</title>
<path fill="none" stroke="black" d="M1893.08,-104.94C1857.05,-122.59 1809,-154.79 1809,-201 1809,-201 1809,-201 1809,-392 1809,-428.42 1314.9,-450.36 1074,-458.89"/>
<polygon fill="black" stroke="black" points="1073.65,-455.4 1063.78,-459.25 1073.89,-462.4 1073.65,-455.4"/>
</g>
<!-- LightExplicitDigitalSurface&#45;&gt;CDigitalSurfaceContainer -->
<g id="edge14" class="edge">
<title>LightExplicitDigitalSurface&#45;&gt;CDigitalSurfaceContainer</title>
<path fill="none" stroke="black" d="M1885.71,-104.37C1864.15,-110.9 1838.01,-117.93 1814,-122 1401.23,-192.02 901.95,-201.34 682.17,-201.7"/>
<polygon fill="black" stroke="black" points="681.91,-198.2 671.91,-201.72 681.92,-205.2 681.91,-198.2"/>
</g>
<!-- SurfelSetPredicate -->
<g id="node19" class="node">
<title>SurfelSetPredicate</title>
<g id="a_node19"><a xlink:href="structDGtal_1_1functors_1_1SurfelSetPredicate.html" target="_top" xlink:title="SurfelSetPredicate">
<ellipse fill="white" stroke="white" cx="435" cy="-88" rx="76.09" ry="18"/>
<text text-anchor="middle" x="435" y="-84.3" font-family="Times,serif" font-size="14.00">SurfelSetPredicate</text>
</a>
</g>
</g>
<!-- SurfelSetPredicate&#45;&gt;CSurfelPredicate -->
<g id="edge20" class="edge">
<title>SurfelSetPredicate&#45;&gt;CSurfelPredicate</title>
<path fill="none" stroke="black" d="M426.19,-106.01C416.74,-124.27 401.6,-153.49 390.61,-174.71"/>
<polygon fill="black" stroke="black" points="387.38,-173.34 385.89,-183.83 393.6,-176.56 387.38,-173.34"/>
</g>
<!-- BoundaryPredicate -->
<g id="node20" class="node">
<title>BoundaryPredicate</title>
<g id="a_node20"><a xlink:href="classDGtal_1_1functors_1_1BoundaryPredicate.html" target="_top" xlink:title="BoundaryPredicate">
<ellipse fill="white" stroke="white" cx="102" cy="-88" rx="77.99" ry="18"/>
<text text-anchor="middle" x="102" y="-84.3" font-family="Times,serif" font-size="14.00">BoundaryPredicate</text>
</a>
</g>
</g>
<!-- BoundaryPredicate&#45;&gt;CConstImage -->
<g id="edge25" class="edge">
<title>BoundaryPredicate&#45;&gt;CConstImage</title>
<path fill="none" stroke="black" stroke-dasharray="5,2" d="M136.52,-104.32C152.24,-110.71 171.27,-117.65 189,-122 230.95,-132.29 338.92,-141.87 382,-145 398.74,-146.22 668.61,-146.31 684,-153 722.34,-169.65 718.41,-192.63 750,-220 803.82,-266.62 812.02,-290.84 879,-315 947.89,-339.85 1139.45,-308.25 1208,-334 1226.41,-340.92 1243.91,-354.31 1257.04,-366.26"/>
<polygon fill="black" stroke="black" points="1254.96,-369.11 1264.63,-373.44 1259.78,-364.03 1254.96,-369.11"/>
<text text-anchor="middle" x="793.5" y="-241.8" font-family="Times,serif" font-size="14.00">use</text>
</g>
<!-- BoundaryPredicate&#45;&gt;CSurfelPredicate -->
<g id="edge21" class="edge">
<title>BoundaryPredicate&#45;&gt;CSurfelPredicate</title>
<path fill="none" stroke="black" d="M131.38,-104.73C156.77,-117.61 194.82,-135.25 230,-145 256.77,-152.42 265.64,-144.23 292,-153 310.68,-159.22 329.92,-169.68 345.36,-179.25"/>
<polygon fill="black" stroke="black" points="343.66,-182.32 353.97,-184.75 347.42,-176.42 343.66,-182.32"/>
</g>
<!-- BoundaryPredicate&#45;&gt;CCellularGridSpaceND -->
<g id="edge23" class="edge">
<title>BoundaryPredicate&#45;&gt;CCellularGridSpaceND</title>
<path fill="none" stroke="black" stroke-dasharray="5,2" d="M116.36,-105.83C145.42,-138.86 214.72,-212.48 288,-253 298.06,-258.56 309.18,-263.87 319.87,-268.59"/>
<polygon fill="black" stroke="black" points="318.56,-271.84 329.12,-272.59 321.33,-265.41 318.56,-271.84"/>
<text text-anchor="middle" x="244.5" y="-198.3" font-family="Times,serif" font-size="14.00">use</text>
</g>
<!-- FrontierPredicate -->
<g id="node21" class="node">
<title>FrontierPredicate</title>
<g id="a_node21"><a xlink:href="classDGtal_1_1functors_1_1FrontierPredicate.html" target="_top" xlink:title="FrontierPredicate">
<ellipse fill="white" stroke="white" cx="269" cy="-88" rx="71.49" ry="18"/>
<text text-anchor="middle" x="269" y="-84.3" font-family="Times,serif" font-size="14.00">FrontierPredicate</text>
</a>
</g>
</g>
<!-- FrontierPredicate&#45;&gt;CConstImage -->
<g id="edge26" class="edge">
<title>FrontierPredicate&#45;&gt;CConstImage</title>
<path fill="none" stroke="black" stroke-dasharray="5,2" d="M300.61,-104.34C315.3,-110.83 333.2,-117.83 350,-122 449.27,-146.66 476.99,-137.5 579,-145 597.97,-146.4 732.7,-145.09 750,-153 805.75,-178.49 791.66,-222.79 845,-253 988.84,-334.46 1058.46,-263.55 1208,-334 1225.44,-342.22 1242.57,-355.28 1255.75,-366.73"/>
<polygon fill="black" stroke="black" points="1253.63,-369.52 1263.41,-373.58 1258.29,-364.31 1253.63,-369.52"/>
<text text-anchor="middle" x="854.5" y="-241.8" font-family="Times,serif" font-size="14.00">use</text>
</g>
<!-- FrontierPredicate&#45;&gt;CSurfelPredicate -->
<g id="edge22" class="edge">
<title>FrontierPredicate&#45;&gt;CSurfelPredicate</title>
<path fill="none" stroke="black" d="M285.4,-106.01C303.59,-124.87 333.06,-155.44 353.65,-176.79"/>
<polygon fill="black" stroke="black" points="351.34,-179.43 360.8,-184.2 356.37,-174.57 351.34,-179.43"/>
</g>
<!-- FrontierPredicate&#45;&gt;CCellularGridSpaceND -->
<g id="edge24" class="edge">
<title>FrontierPredicate&#45;&gt;CCellularGridSpaceND</title>
<path fill="none" stroke="black" stroke-dasharray="5,2" d="M265.85,-106.38C261.98,-132.72 258.15,-183.57 278,-220 288.78,-239.8 308.08,-255.47 326.13,-266.76"/>
<polygon fill="black" stroke="black" points="324.47,-269.84 334.86,-271.94 328.05,-263.82 324.47,-269.84"/>
<text text-anchor="middle" x="287.5" y="-198.3" font-family="Times,serif" font-size="14.00">use</text>
</g>
</g>
</svg>
