<?xml version="1.0" encoding="UTF-8" standalone="no"?>
<!DOCTYPE svg PUBLIC "-//W3C//DTD SVG 1.1//EN"
 "http://www.w3.org/Graphics/SVG/1.1/DTD/svg11.dtd">
<!-- Generated by graphviz version 2.47.1 (20210417.1919)
 -->
<!-- Title: Graphical Class Hierarchy Pages: 1 -->
<svg width="322pt" height="39pt"
 viewBox="0.00 0.00 322.00 39.00" xmlns="http://www.w3.org/2000/svg" xmlns:xlink="http://www.w3.org/1999/xlink">
<g id="graph0" class="graph" transform="scale(1 1) rotate(0) translate(4 35)">
<title>Graphical Class Hierarchy</title>
<polygon fill="white" stroke="transparent" points="-4,4 -4,-35 318,-35 318,4 -4,4"/>
<!-- Node1009 -->
<g id="node1" class="node">
<title>Node1009</title>
<g id="a_node1"><a xlink:title=" ">
<polygon fill="white" stroke="#bfbfbf" points="0,-0.5 0,-30.5 138,-30.5 138,-0.5 0,-0.5"/>
<text text-anchor="start" x="8" y="-18.5" font-family="FreeSans" font-size="10.00">boost::mutable_bidirectional</text>
<text text-anchor="middle" x="69" y="-7.5" font-family="FreeSans" font-size="10.00">_iterator_archetype</text>
</a>
</g>
</g>
<!-- Node0 -->
<g id="node2" class="node">
<title>Node0</title>
<g id="a_node2"><a xlink:href="structDGtal_1_1CBidirectionalIteratorArchetype.html" target="_top" xlink:title="An archetype of BidirectionalIterator.">
<polygon fill="white" stroke="black" points="174,-0.5 174,-30.5 314,-30.5 314,-0.5 174,-0.5"/>
<text text-anchor="start" x="182" y="-18.5" font-family="FreeSans" font-size="10.00">DGtal::CBidirectionalIterator</text>
<text text-anchor="middle" x="244" y="-7.5" font-family="FreeSans" font-size="10.00">Archetype&lt; T &gt;</text>
</a>
</g>
</g>
<!-- Node1009&#45;&gt;Node0 -->
<g id="edge1" class="edge">
<title>Node1009&#45;&gt;Node0</title>
<path fill="none" stroke="midnightblue" d="M148.62,-15.5C157.09,-15.5 165.65,-15.5 173.99,-15.5"/>
<polygon fill="midnightblue" stroke="midnightblue" points="148.37,-12 138.37,-15.5 148.37,-19 148.37,-12"/>
</g>
</g>
</svg>
