<?xml version="1.0" encoding="UTF-8" standalone="no"?>
<!DOCTYPE svg PUBLIC "-//W3C//DTD SVG 1.1//EN"
 "http://www.w3.org/Graphics/SVG/1.1/DTD/svg11.dtd">
<!-- Generated by graphviz version 2.47.1 (20210417.1919)
 -->
<!-- Title: Graphical Class Hierarchy Pages: 1 -->
<svg width="285pt" height="50pt"
 viewBox="0.00 0.00 285.00 50.00" xmlns="http://www.w3.org/2000/svg" xmlns:xlink="http://www.w3.org/1999/xlink">
<g id="graph0" class="graph" transform="scale(1 1) rotate(0) translate(4 46)">
<title>Graphical Class Hierarchy</title>
<polygon fill="white" stroke="transparent" points="-4,4 -4,-46 281,-46 281,4 -4,4"/>
<!-- Node1308 -->
<g id="node1" class="node">
<title>Node1308</title>
<g id="a_node1"><a xlink:title=" ">
<polygon fill="white" stroke="#bfbfbf" points="0,-11.5 0,-30.5 102,-30.5 102,-11.5 0,-11.5"/>
<text text-anchor="middle" x="51" y="-18.5" font-family="FreeSans" font-size="10.00">boost::static_visitor</text>
</a>
</g>
</g>
<!-- Node0 -->
<g id="node2" class="node">
<title>Node0</title>
<g id="a_node2"><a xlink:href="structDGtal_1_1MPolynomialReader_1_1ExprNodeMaker.html" target="_top" xlink:title=" ">
<polygon fill="white" stroke="black" points="138,-0.5 138,-41.5 277,-41.5 277,-0.5 138,-0.5"/>
<text text-anchor="start" x="146" y="-29.5" font-family="FreeSans" font-size="10.00">DGtal::MPolynomialReader</text>
<text text-anchor="start" x="146" y="-18.5" font-family="FreeSans" font-size="10.00">&lt; n, TRing, TAlloc, TIterator</text>
<text text-anchor="middle" x="207.5" y="-7.5" font-family="FreeSans" font-size="10.00"> &gt;::ExprNodeMaker</text>
</a>
</g>
</g>
<!-- Node1308&#45;&gt;Node0 -->
<g id="edge1" class="edge">
<title>Node1308&#45;&gt;Node0</title>
<path fill="none" stroke="midnightblue" d="M112.21,-21C120.59,-21 129.25,-21 137.78,-21"/>
<polygon fill="midnightblue" stroke="midnightblue" points="112.16,-17.5 102.16,-21 112.16,-24.5 112.16,-17.5"/>
</g>
</g>
</svg>
