<?xml version="1.0" encoding="UTF-8" standalone="no"?>
<!DOCTYPE svg PUBLIC "-//W3C//DTD SVG 1.1//EN"
 "http://www.w3.org/Graphics/SVG/1.1/DTD/svg11.dtd">
<!-- Generated by graphviz version 2.47.1 (20210417.1919)
 -->
<!-- Title: DGtal::UniqueAssociativeCategory Pages: 1 -->
<svg width="678pt" height="165pt"
 viewBox="0.00 0.00 678.00 164.50" xmlns="http://www.w3.org/2000/svg" xmlns:xlink="http://www.w3.org/1999/xlink">
<g id="graph0" class="graph" transform="scale(1 1) rotate(0) translate(4 160.5)">
<title>DGtal::UniqueAssociativeCategory</title>
<polygon fill="white" stroke="transparent" points="-4,4 -4,-160.5 674,-160.5 674,4 -4,4"/>
<!-- Node1 -->
<g id="node1" class="node">
<title>Node1</title>
<g id="a_node1"><a xlink:title=" ">
<polygon fill="#bfbfbf" stroke="black" points="341,-71.5 341,-101.5 471,-101.5 471,-71.5 341,-71.5"/>
<text text-anchor="start" x="349" y="-89.5" font-family="FreeSans" font-size="10.00">DGtal::UniqueAssociative</text>
<text text-anchor="middle" x="406" y="-78.5" font-family="FreeSans" font-size="10.00">Category</text>
</a>
</g>
</g>
<!-- Node4 -->
<g id="node4" class="node">
<title>Node4</title>
<g id="a_node4"><a xlink:href="structDGtal_1_1MapAssociativeCategory.html" target="_top" xlink:title=" ">
<polygon fill="white" stroke="black" points="509.5,-137 509.5,-156 667.5,-156 667.5,-137 509.5,-137"/>
<text text-anchor="middle" x="588.5" y="-144" font-family="FreeSans" font-size="10.00">DGtal::MapAssociativeCategory</text>
</a>
</g>
</g>
<!-- Node1&#45;&gt;Node4 -->
<g id="edge3" class="edge">
<title>Node1&#45;&gt;Node4</title>
<path fill="none" stroke="midnightblue" d="M449.69,-105.73C467.22,-113.17 487.85,-121.36 507,-127.5 518.08,-131.05 530.2,-134.26 541.6,-136.98"/>
<polygon fill="midnightblue" stroke="midnightblue" points="450.87,-102.43 440.3,-101.69 448.1,-108.86 450.87,-102.43"/>
</g>
<!-- Node5 -->
<g id="node5" class="node">
<title>Node5</title>
<g id="a_node5"><a xlink:href="structDGtal_1_1SetAssociativeCategory.html" target="_top" xlink:title=" ">
<polygon fill="white" stroke="black" points="511.5,-99 511.5,-118 665.5,-118 665.5,-99 511.5,-99"/>
<text text-anchor="middle" x="588.5" y="-106" font-family="FreeSans" font-size="10.00">DGtal::SetAssociativeCategory</text>
</a>
</g>
</g>
<!-- Node1&#45;&gt;Node5 -->
<g id="edge4" class="edge">
<title>Node1&#45;&gt;Node5</title>
<path fill="none" stroke="midnightblue" d="M481.31,-95.56C491.18,-96.76 501.31,-98 511.21,-99.2"/>
<polygon fill="midnightblue" stroke="midnightblue" points="481.5,-92.05 471.15,-94.32 480.65,-99 481.5,-92.05"/>
</g>
<!-- Node6 -->
<g id="node6" class="node">
<title>Node6</title>
<g id="a_node6"><a xlink:href="structDGtal_1_1UnorderedMapAssociativeCategory.html" target="_top" xlink:title=" ">
<polygon fill="white" stroke="black" points="507,-49.5 507,-79.5 670,-79.5 670,-49.5 507,-49.5"/>
<text text-anchor="start" x="515" y="-67.5" font-family="FreeSans" font-size="10.00">DGtal::UnorderedMapAssociative</text>
<text text-anchor="middle" x="588.5" y="-56.5" font-family="FreeSans" font-size="10.00">Category</text>
</a>
</g>
</g>
<!-- Node1&#45;&gt;Node6 -->
<g id="edge5" class="edge">
<title>Node1&#45;&gt;Node6</title>
<path fill="none" stroke="midnightblue" d="M481.3,-77.44C489.72,-76.42 498.33,-75.37 506.82,-74.33"/>
<polygon fill="midnightblue" stroke="midnightblue" points="480.65,-74 471.15,-78.68 481.5,-80.95 480.65,-74"/>
</g>
<!-- Node7 -->
<g id="node7" class="node">
<title>Node7</title>
<g id="a_node7"><a xlink:href="structDGtal_1_1UnorderedSetAssociativeCategory.html" target="_top" xlink:title=" ">
<polygon fill="white" stroke="black" points="509,-0.5 509,-30.5 668,-30.5 668,-0.5 509,-0.5"/>
<text text-anchor="start" x="517" y="-18.5" font-family="FreeSans" font-size="10.00">DGtal::UnorderedSetAssociative</text>
<text text-anchor="middle" x="588.5" y="-7.5" font-family="FreeSans" font-size="10.00">Category</text>
</a>
</g>
</g>
<!-- Node1&#45;&gt;Node7 -->
<g id="edge6" class="edge">
<title>Node1&#45;&gt;Node7</title>
<path fill="none" stroke="midnightblue" d="M445.45,-66.78C463.8,-57.79 486.24,-47.42 507,-39.5 515.31,-36.33 524.23,-33.31 533,-30.54"/>
<polygon fill="midnightblue" stroke="midnightblue" points="443.66,-63.76 436.25,-71.33 446.77,-70.03 443.66,-63.76"/>
</g>
<!-- Node2 -->
<g id="node2" class="node">
<title>Node2</title>
<g id="a_node2"><a xlink:href="structDGtal_1_1AssociativeCategory.html" target="_top" xlink:title=" ">
<polygon fill="white" stroke="black" points="166,-77 166,-96 305,-96 305,-77 166,-77"/>
<text text-anchor="middle" x="235.5" y="-84" font-family="FreeSans" font-size="10.00">DGtal::AssociativeCategory</text>
</a>
</g>
</g>
<!-- Node2&#45;&gt;Node1 -->
<g id="edge1" class="edge">
<title>Node2&#45;&gt;Node1</title>
<path fill="none" stroke="midnightblue" d="M315.11,-86.5C323.74,-86.5 332.45,-86.5 340.88,-86.5"/>
<polygon fill="midnightblue" stroke="midnightblue" points="315.04,-83 305.04,-86.5 315.04,-90 315.04,-83"/>
</g>
<!-- Node3 -->
<g id="node3" class="node">
<title>Node3</title>
<g id="a_node3"><a xlink:href="structDGtal_1_1ContainerCategory.html" target="_top" xlink:title=" ">
<polygon fill="white" stroke="black" points="0,-77 0,-96 130,-96 130,-77 0,-77"/>
<text text-anchor="middle" x="65" y="-84" font-family="FreeSans" font-size="10.00">DGtal::ContainerCategory</text>
</a>
</g>
</g>
<!-- Node3&#45;&gt;Node2 -->
<g id="edge2" class="edge">
<title>Node3&#45;&gt;Node2</title>
<path fill="none" stroke="midnightblue" d="M140.38,-86.5C148.81,-86.5 157.37,-86.5 165.73,-86.5"/>
<polygon fill="midnightblue" stroke="midnightblue" points="140.18,-83 130.18,-86.5 140.18,-90 140.18,-83"/>
</g>
</g>
</svg>
