<?xml version="1.0" encoding="UTF-8" standalone="no"?>
<!DOCTYPE svg PUBLIC "-//W3C//DTD SVG 1.1//EN"
 "http://www.w3.org/Graphics/SVG/1.1/DTD/svg11.dtd">
<!-- Generated by graphviz version 2.47.1 (20210417.1919)
 -->
<!-- Title: DGtal::concepts::CConstBidirectionalRangeFromPoint&lt; T &gt; Pages: 1 -->
<svg width="189pt" height="240pt"
 viewBox="0.00 0.00 189.00 240.00" xmlns="http://www.w3.org/2000/svg" xmlns:xlink="http://www.w3.org/1999/xlink">
<g id="graph0" class="graph" transform="scale(1 1) rotate(0) translate(4 236)">
<title>DGtal::concepts::CConstBidirectionalRangeFromPoint&lt; T &gt;</title>
<polygon fill="white" stroke="transparent" points="-4,4 -4,-236 185,-236 185,4 -4,4"/>
<!-- Node1 -->
<g id="node1" class="node">
<title>Node1</title>
<g id="a_node1"><a xlink:title="Aim: refined concept of const bidirectional range with a begin() method from a point.">
<polygon fill="#bfbfbf" stroke="black" points="0,-67.5 0,-97.5 181,-97.5 181,-67.5 0,-67.5"/>
<text text-anchor="start" x="8" y="-85.5" font-family="FreeSans" font-size="10.00">DGtal::concepts::CConstBidirectional</text>
<text text-anchor="middle" x="90.5" y="-74.5" font-family="FreeSans" font-size="10.00">RangeFromPoint&lt; T &gt;</text>
</a>
</g>
</g>
<!-- Node4 -->
<g id="node4" class="node">
<title>Node4</title>
<g id="a_node4"><a xlink:href="structDGtal_1_1concepts_1_1CBidirectionalRangeFromPoint.html" target="_top" xlink:title="Aim: refined concept of single pass range with a begin() method from a point.">
<polygon fill="white" stroke="black" points="13,-0.5 13,-30.5 168,-30.5 168,-0.5 13,-0.5"/>
<text text-anchor="start" x="21" y="-18.5" font-family="FreeSans" font-size="10.00">DGtal::concepts::CBidirectional</text>
<text text-anchor="middle" x="90.5" y="-7.5" font-family="FreeSans" font-size="10.00">RangeFromPoint&lt; T &gt;</text>
</a>
</g>
</g>
<!-- Node1&#45;&gt;Node4 -->
<g id="edge3" class="edge">
<title>Node1&#45;&gt;Node4</title>
<path fill="none" stroke="midnightblue" d="M90.5,-57.11C90.5,-48.15 90.5,-38.32 90.5,-30.58"/>
<polygon fill="midnightblue" stroke="midnightblue" points="87,-57.4 90.5,-67.4 94,-57.4 87,-57.4"/>
</g>
<!-- Node2 -->
<g id="node2" class="node">
<title>Node2</title>
<g id="a_node2"><a xlink:href="structDGtal_1_1concepts_1_1CConstBidirectionalRange.html" target="_top" xlink:title="Aim: Defines the concept describing a bidirectional const range.">
<polygon fill="white" stroke="black" points="0,-134.5 0,-164.5 181,-164.5 181,-134.5 0,-134.5"/>
<text text-anchor="start" x="8" y="-152.5" font-family="FreeSans" font-size="10.00">DGtal::concepts::CConstBidirectional</text>
<text text-anchor="middle" x="90.5" y="-141.5" font-family="FreeSans" font-size="10.00">Range&lt; T &gt;</text>
</a>
</g>
</g>
<!-- Node2&#45;&gt;Node1 -->
<g id="edge1" class="edge">
<title>Node2&#45;&gt;Node1</title>
<path fill="none" stroke="midnightblue" d="M90.5,-124.11C90.5,-115.15 90.5,-105.32 90.5,-97.58"/>
<polygon fill="midnightblue" stroke="midnightblue" points="87,-124.4 90.5,-134.4 94,-124.4 87,-124.4"/>
</g>
<!-- Node3 -->
<g id="node3" class="node">
<title>Node3</title>
<g id="a_node3"><a xlink:href="structDGtal_1_1concepts_1_1CConstSinglePassRange.html" target="_top" xlink:title="Aim: Defines the concept describing a const single pass range.">
<polygon fill="white" stroke="black" points="13,-201.5 13,-231.5 168,-231.5 168,-201.5 13,-201.5"/>
<text text-anchor="start" x="21" y="-219.5" font-family="FreeSans" font-size="10.00">DGtal::concepts::CConstSingle</text>
<text text-anchor="middle" x="90.5" y="-208.5" font-family="FreeSans" font-size="10.00">PassRange&lt; T &gt;</text>
</a>
</g>
</g>
<!-- Node3&#45;&gt;Node2 -->
<g id="edge2" class="edge">
<title>Node3&#45;&gt;Node2</title>
<path fill="none" stroke="midnightblue" d="M90.5,-191.11C90.5,-182.15 90.5,-172.32 90.5,-164.58"/>
<polygon fill="midnightblue" stroke="midnightblue" points="87,-191.4 90.5,-201.4 94,-191.4 87,-191.4"/>
</g>
</g>
</svg>
