<?xml version="1.0" encoding="iso-8859-1"?>
<!-- Generator: Adobe Illustrator 16.0.0, SVG Export Plug-In . SVG Version: 6.00 Build 0)  -->
<!DOCTYPE svg PUBLIC "-//W3C//DTD SVG 1.1//EN" "http://www.w3.org/Graphics/SVG/1.1/DTD/svg11.dtd">
<svg version="1.1" id="Capa_1" xmlns="http://www.w3.org/2000/svg" xmlns:xlink="http://www.w3.org/1999/xlink" x="0px" y="0px"
	 width="65.048px" height="65.047px" viewBox="0 0 65.048 65.047" style="enable-background:new 0 0 65.048 65.047;"
	 xml:space="preserve">
<g>
	<g>
		<path d="M58.376,65.047H6.672C2.993,65.047,0,62.055,0,58.375V6.671C0,2.993,2.993,0,6.672,0h51.704
			c3.681,0,6.672,2.992,6.672,6.671v51.704C65.048,62.055,62.057,65.047,58.376,65.047z M6.672,3.336
			c-1.839,0-3.336,1.497-3.336,3.335v51.704c0,1.839,1.497,3.336,3.336,3.336h51.704c1.839,0,3.336-1.497,3.336-3.336V6.671
			c0-1.838-1.497-3.335-3.336-3.335H6.672z"/>
		<g>
			<rect x="20.711" y="20.866" width="23.626" height="5.005"/>
			<rect x="30.021" y="20.866" width="5.006" height="23.629"/>
		</g>
	</g>
</g>
<g>
</g>
<g>
</g>
<g>
</g>
<g>
</g>
<g>
</g>
<g>
</g>
<g>
</g>
<g>
</g>
<g>
</g>
<g>
</g>
<g>
</g>
<g>
</g>
<g>
</g>
<g>
</g>
<g>
</g>
</svg>
