<svg width="404" height="110" viewBox="0 0 404 110" version="1.1" xmlns="http://www.w3.org/2000/svg" xmlns:xlink="http://www.w3.org/1999/xlink">
<title>logo CS</title>
<desc>Created using Figma</desc>
<g id="Canvas" transform="matrix(2 0 0 2 -12838 2278)">
<g id="logo CS">
<g id="Fill 1">
<use xlink:href="#path0_fill" transform="translate(6489.58 -1097.9)" fill="#FFFFFF"/>
</g>
<g id="Fill 3">
<use xlink:href="#path1_fill" transform="translate(6498.56 -1097.9)" fill="#FFFFFF"/>
</g>
<g id="Fill 5">
<use xlink:href="#path2_fill" transform="translate(6505.8 -1097.79)" fill="#FFFFFF"/>
</g>
<g id="Fill 7">
<use xlink:href="#path3_fill" transform="translate(6515.33 -1097.74)" fill="#FFFFFF"/>
</g>
<g id="Fill 9">
<use xlink:href="#path4_fill" transform="translate(6521.38 -1097.74)" fill="#FFFFFF"/>
</g>
<g id="Fill 11">
<use xlink:href="#path5_fill" transform="translate(6529.58 -1097.79)" fill="#FFFFFF"/>
</g>
<g id="Fill 13">
<use xlink:href="#path6_fill" transform="translate(6533.43 -1097.79)" fill="#FFFFFF"/>
</g>
<g id="Fill 15">
<use xlink:href="#path7_fill" transform="translate(6542.43 -1097.9)" fill="#FFFFFF"/>
</g>
<g id="Fill 17">
<use xlink:href="#path8_fill" transform="translate(6552.87 -1097.9)" fill="#FFFFFF"/>
</g>
<g id="Fill 19">
<use xlink:href="#path9_fill" transform="translate(6560.62 -1097.9)" fill="#FFFFFF"/>
</g>
<g id="Fill 21">
<use xlink:href="#path10_fill" transform="translate(6571.08 -1097.74)" fill="#FFFFFF"/>
</g>
<g id="Fill 23">
<use xlink:href="#path11_fill" transform="translate(6577.12 -1097.74)" fill="#FFFFFF"/>
</g>
<g id="Fill 25">
<use xlink:href="#path12_fill" transform="translate(6584.48 -1097.79)" fill="#FFFFFF"/>
</g>
<g id="Fill 27">
<use xlink:href="#path13_fill" transform="translate(6596.77 -1097.79)" fill="#FFFFFF"/>
</g>
<g id="Fill 29">
<use xlink:href="#path14_fill" transform="translate(6606.33 -1097.9)" fill="#FFFFFF"/>
</g>
<g id="Fill 31">
<use xlink:href="#path15_fill" transform="translate(6614.56 -1097.74)" fill="#FFFFFF"/>
</g>
<g id="Fill 33">
<use xlink:href="#path16_fill" transform="translate(6489.71 -1108.38)" fill="#FFFFFF"/>
</g>
<g id="Fill 35">
<use xlink:href="#path17_fill" transform="translate(6498.69 -1108.34)" fill="#FFFFFF"/>
</g>
<g id="Fill 37">
<use xlink:href="#path18_fill" transform="translate(6505.1 -1108.38)" fill="#FFFFFF"/>
</g>
<g id="Fill 39">
<use xlink:href="#path19_fill" transform="translate(6511.42 -1108.45)" fill="#FFFFFF"/>
</g>
<g id="Fill 41">
<use xlink:href="#path20_fill" transform="translate(6516.86 -1108.34)" fill="#FFFFFF"/>
</g>
<g id="Fill 43">
<use xlink:href="#path21_fill" transform="translate(6419.69 -1138.42)" fill="#FFFFFF"/>
</g>
<g id="Fill 45">
<use xlink:href="#path22_fill" transform="translate(6452.02 -1127.17)" fill="#FFFFFF"/>
</g>
<g id="Fill 47">
<use xlink:href="#path23_fill" transform="translate(6477.06 -1124.6)" fill="#FFFFFF"/>
</g>
<g id="Fill 49">
<use xlink:href="#path24_fill" transform="translate(6469.27 -1124.6)" fill="#FFFFFF"/>
</g>
</g>
</g>
<defs>
<path id="path0_fill" fill-rule="evenodd" d="M 6.75181 8.66103C 6.95446 9.05746 7.08365 9.44009 7.13887 9.80917C 6.75181 9.97483 6.35486 10.0954 5.94932 10.1686C 5.54325 10.2426 5.1054 10.2793 4.635 10.2793C 3.91559 10.2793 3.26755 10.1621 2.69114 9.92664C 2.11447 9.69144 1.62766 9.35518 1.23149 8.91681C 0.834795 8.47897 0.53031 7.94605 0.31829 7.31911C 0.10601 6.69165 0 5.98578 0 5.20204C 0 4.40866 0.10601 3.69185 0.31829 3.05084C 0.53031 2.40958 0.834795 1.86312 1.23149 1.41095C 1.62766 0.959559 2.11212 0.611054 2.68411 0.366476C 3.25583 0.122159 3.89684 0 4.60739 0C 5.13301 0 5.58492 0.0367258 5.96312 0.110698C 6.34106 0.18441 6.67784 0.271927 6.97321 0.373509C 6.95446 0.58605 6.91513 0.78166 6.85548 0.961121C 6.79557 1.14162 6.72394 1.33281 6.64085 1.53571C 6.50281 1.48935 6.36893 1.44845 6.23974 1.41095C 6.11054 1.37422 5.97224 1.34192 5.82455 1.31457C 5.67713 1.28644 5.51329 1.26561 5.33357 1.25232C 5.15359 1.238 4.94834 1.23149 4.71783 1.23149C 3.71243 1.23149 2.93077 1.57244 2.37285 2.25486C 1.81467 2.93754 1.53571 3.91976 1.53571 5.20204C 1.53571 5.85685 1.61385 6.42415 1.77091 6.90393C 1.92771 7.3837 2.14911 7.7804 2.4351 8.09374C 2.72083 8.40734 3.06439 8.6428 3.46577 8.79908C 3.86689 8.95614 4.31671 9.03454 4.81472 9.03454C 5.2023 9.03454 5.55263 9.00198 5.86623 8.93739C 6.17983 8.87279 6.47494 8.78085 6.75181 8.66103"/>
<path id="path1_fill" fill-rule="evenodd" d="M 0 0.152112C 0.202903 0.13388 0.387314 0.115387 0.553491 0.0963726C 0.719409 0.0781399 0.882981 0.0622515 1.04447 0.0481863C 1.2057 0.0349025 1.37396 0.0231815 1.54952 0.0140652C 1.72455 0.00494886 1.91834 0 2.13062 0C 2.60102 0 3.06673 0.046363 3.52802 0.138047C 3.98904 0.230252 4.39954 0.392263 4.75924 0.622775C 5.11921 0.853028 5.41145 1.16429 5.6378 1.55655C 5.86388 1.94829 5.97692 2.44448 5.97692 3.04355C 5.97692 3.40326 5.91676 3.73092 5.79694 4.02603C 5.67687 4.3214 5.52449 4.58421 5.34034 4.81446C 5.15567 5.0455 4.94626 5.24606 4.7108 5.4164C 4.4756 5.58701 4.24743 5.7274 4.02629 5.8381L 3.85985 5.92119L 6.75155 10.1137C 6.50255 10.1413 6.22098 10.1551 5.90764 10.1551C 5.65863 10.1551 5.40963 10.1413 5.16036 10.1137L 1.9785 5.50626L 1.9785 5.4513L 2.0892 5.42317C 2.33821 5.35884 2.60102 5.2708 2.87789 5.16036C 3.15425 5.04992 3.41055 4.90432 3.64549 4.7246C 3.88069 4.54488 4.07656 4.32791 4.23362 4.07448C 4.39042 3.82078 4.46856 3.51395 4.46856 3.15451C 4.46856 2.49032 4.27269 1.997 3.88069 1.67376C 3.48869 1.3513 2.96072 1.18981 2.29653 1.18981C 2.13947 1.18981 1.99439 1.19476 1.86103 1.20309C 1.72715 1.21299 1.57739 1.22654 1.41095 1.24477L 1.41095 10.1137C 1.30963 10.1228 1.19658 10.1319 1.07234 10.1413C 0.947577 10.1504 0.830367 10.1551 0.719409 10.1551C 0.60871 10.1551 0.488896 10.153 0.359704 10.1478C 0.230252 10.1436 0.110698 10.1319 0 10.1137L 0 0.152112Z"/>
<path id="path2_fill" fill-rule="evenodd" d="M 2.49023 6.47467L 5.52024 6.47467L 3.9986 1.3974L 2.49023 6.47467ZM 5.8941 7.70642L 2.11681 7.70642L 1.43882 10.003C 1.319 10.0212 1.19893 10.0347 1.07937 10.0444C 0.959298 10.0535 0.839484 10.0579 0.719669 10.0579C 0.590478 10.0579 0.46363 10.0535 0.339127 10.0444C 0.214364 10.0347 0.101321 10.0212 0 10.003L 3.2376 0.0552189C 3.35715 0.0369862 3.4866 0.0229211 3.62491 0.0138047C 3.76348 0.0046884 3.90622 0 4.0539 0C 4.18283 0 4.31671 0.0046884 4.45502 0.0138047C 4.59333 0.0229211 4.72695 0.0369862 4.8564 0.0552189L 8.07967 10.003C 7.96923 10.0212 7.84499 10.0347 7.70642 10.0444C 7.56811 10.0535 7.43397 10.0579 7.30504 10.0579C 7.18497 10.0579 7.06281 10.0535 6.93857 10.0444C 6.8138 10.0347 6.69633 10.0212 6.58564 10.003L 5.8941 7.70642Z"/>
<path id="path3_fill" fill-rule="evenodd" d="M 0 0L 5.2023 0C 5.22053 0.0922051 5.23433 0.191182 5.24345 0.297192C 5.25283 0.403463 5.25752 0.507128 5.25752 0.60871C 5.25752 0.710292 5.25283 0.816042 5.24345 0.92674C 5.23433 1.03692 5.22053 1.13928 5.2023 1.23096L 1.41147 1.23096L 1.41147 4.15027L 4.57952 4.15027C 4.59775 4.25159 4.61208 4.35578 4.6212 4.46205C 4.63031 4.56754 4.63474 4.67173 4.63474 4.77305C 4.63474 4.87463 4.63031 4.9783 4.6212 5.08431C 4.61208 5.19058 4.59775 5.29424 4.57952 5.39582L 1.41147 5.39582L 1.41147 9.94748C 1.30051 9.96597 1.18747 9.97925 1.07234 9.98915C 0.956954 9.99827 0.834795 10.0024 0.705864 10.0024C 0.585789 10.0024 0.46363 9.99827 0.339127 9.98915C 0.214624 9.97925 0.101582 9.96597 0 9.94748L 0 0Z"/>
<path id="path4_fill" fill-rule="evenodd" d="M 2.64269 1.23096L 0.0552189 1.23096C 0.0367258 1.13928 0.0229211 1.03718 0.0138047 0.92674C 0.0046884 0.816042 0 0.710292 0 0.60871C 0 0.507389 0.0046884 0.403463 0.0138047 0.297192C 0.0229211 0.191443 0.0367258 0.0924656 0.0552189 0L 6.64111 0C 6.65935 0.0924656 6.67315 0.189099 6.68253 0.29042C 6.69138 0.391742 6.69633 0.493324 6.69633 0.594905C 6.69633 0.696227 6.69138 0.804842 6.68253 0.919968C 6.67315 1.03535 6.65935 1.13928 6.64111 1.23096L 4.0539 1.23096L 4.0539 9.94774C 3.84162 9.97509 3.61111 9.98915 3.3621 9.98915C 3.10398 9.98915 2.86409 9.97509 2.64269 9.94774L 2.64269 1.23096Z"/>
<path id="path5_fill" fill-rule="evenodd" d="M 0 0.0554794C 0.110959 0.0372467 0.226085 0.0231815 0.3459 0.0140652C 0.465714 0.00494886 0.585789 0 0.705864 0C 0.825418 0 0.945493 0.00494886 1.06557 0.0140652C 1.18538 0.0231815 1.30051 0.0372467 1.41147 0.0554794L 1.41147 10.003C 1.30051 10.0214 1.18747 10.0347 1.07208 10.0446C 0.956954 10.0537 0.834795 10.0579 0.705864 10.0579C 0.585789 10.0579 0.46337 10.0537 0.339127 10.0446C 0.214364 10.0347 0.101582 10.0214 0 10.003L 0 0.0554794Z"/>
<path id="path6_fill" fill-rule="evenodd" d="M 0 0.0554794C 0.101582 0.0372467 0.209936 0.0231815 0.325062 0.0140652C 0.440188 0.00494886 0.548542 0 0.650124 0C 0.751706 0 0.86006 0.00494886 0.975187 0.0140652C 1.09057 0.0231815 1.19919 0.0372467 1.30051 0.0554794L 5.63103 7.52618L 5.63103 0.0554794C 5.74172 0.0372467 5.85659 0.0231815 5.97692 0.0140652C 6.09648 0.00494886 6.21681 0 6.33637 0C 6.43795 0 6.54396 0.00494886 6.65492 0.0140652C 6.76562 0.0231815 6.87163 0.0372467 6.97295 0.0554794L 6.97295 10.003C 6.87163 10.0214 6.76327 10.0347 6.64789 10.0446C 6.5325 10.0537 6.42415 10.0579 6.32256 10.0579C 6.2215 10.0579 6.11289 10.0537 5.9975 10.0446C 5.88212 10.0347 5.77402 10.0214 5.67244 10.003L 1.32838 2.57341L 1.32838 10.003C 1.22654 10.0214 1.11844 10.0347 1.00332 10.0446C 0.88767 10.0537 0.774888 10.0579 0.66419 10.0579C 0.544115 10.0579 0.426644 10.0537 0.311257 10.0446C 0.195871 10.0347 0.0922051 10.0214 0 10.003L 0 0.0554794Z"/>
<path id="path7_fill" fill-rule="evenodd" d="M 6.15691 4.96658C 6.26761 4.94834 6.38273 4.93428 6.50281 4.9249C 6.62262 4.91578 6.74244 4.91162 6.86251 4.91162C 6.98233 4.91162 7.10214 4.91578 7.22222 4.9249C 7.34203 4.93428 7.45247 4.94834 7.55431 4.96658L 7.55431 9.82271C 7.36052 9.9058 7.14824 9.97717 6.91773 10.0371C 6.68696 10.0975 6.44733 10.1436 6.19832 10.1759C 5.94932 10.2077 5.70031 10.2335 5.4513 10.2517C 5.2023 10.2699 4.9671 10.279 4.74544 10.279C 4.00754 10.279 3.34335 10.1642 2.75365 9.93315C 2.16291 9.7029 1.66464 9.36846 1.2591 8.93036C 0.853288 8.49225 0.54177 7.95986 0.325062 7.33213C 0.108354 6.70519 0 5.9949 0 5.20178C 0 4.4084 0.110959 3.69159 0.332095 3.05084C 0.553231 2.40958 0.869177 1.86312 1.27967 1.41095C 1.69017 0.959298 2.17932 0.610794 2.74636 0.366476C 3.31365 0.121898 3.94294 0 4.63474 0C 5.16088 0 5.61722 0.034642 6.0048 0.103666C 6.39185 0.17295 6.74244 0.267499 7.05604 0.387314C 7.03754 0.599333 6.99821 0.795465 6.93857 0.975187C 6.8784 1.15491 6.80703 1.34687 6.7242 1.54899C 6.46582 1.46643 6.18634 1.39245 5.88706 1.32786C 5.58727 1.26352 5.21115 1.23123 4.7595 1.23123C 4.27035 1.23123 3.82547 1.31874 3.42435 1.49404C 3.02297 1.66959 2.6815 1.92537 2.40046 2.26163C 2.11916 2.59841 1.89984 3.01386 1.7433 3.50692C 1.5865 4.00024 1.5081 4.56572 1.5081 5.20178C 1.5081 5.85685 1.58859 6.4218 1.75033 6.89637C 1.91156 7.37198 2.13973 7.76867 2.4351 8.08644C 2.73021 8.40473 3.07871 8.6402 3.47983 8.79231C 3.88121 8.94442 4.32609 9.02022 4.81498 9.02022C 5.10957 9.02022 5.36821 9.00433 5.58935 8.97203C 5.81101 8.93947 5.99959 8.90066 6.15691 8.85456L 6.15691 4.96658Z"/>
<path id="path8_fill" fill-rule="evenodd" d="M 0.331574 8.60607C 0.63632 8.71651 0.95461 8.81314 1.28644 8.89623C 1.61828 8.97958 2.02409 9.021 2.50413 9.021C 3.26026 9.021 3.82521 8.86628 4.19872 8.55711C 4.57223 8.24845 4.75898 7.83093 4.75898 7.30556C 4.75898 7.04692 4.71965 6.82579 4.64151 6.64111C 4.56285 6.45644 4.44564 6.29782 4.28858 6.16394C 4.13178 6.0298 3.93591 5.9079 3.70071 5.7972C 3.46551 5.6865 3.19098 5.56669 2.87737 5.43724L 2.08894 5.11947C 1.82144 5.00877 1.57686 4.88661 1.35573 4.75273C 1.13407 4.61885 0.942889 4.45502 0.78166 4.26123C 0.61965 4.06771 0.493063 3.84396 0.401118 3.59027C 0.308653 3.33684 0.26255 3.0347 0.26255 2.68411C 0.26255 1.84488 0.548282 1.18799 1.12027 0.712376C 1.69225 0.237545 2.49475 0 3.52776 0C 3.97055 0 4.3899 0.0372467 4.78685 0.111219C 5.18328 0.185192 5.53413 0.276615 5.83836 0.387314C 5.79199 0.774888 5.69067 1.15803 5.53413 1.53545C 5.28513 1.44403 4.99653 1.36094 4.66912 1.28697C 4.34172 1.21299 3.97055 1.17653 3.55537 1.17653C 2.97427 1.17653 2.52705 1.29374 2.21344 1.52894C 1.89984 1.76414 1.74304 2.11681 1.74304 2.58747C 1.74304 2.78126 1.78211 2.95421 1.86077 3.10632C 1.93891 3.25844 2.04258 3.39232 2.17177 3.50718C 2.30122 3.62257 2.45333 3.72675 2.62811 3.81896C 2.8034 3.91117 2.98833 3.99425 3.18186 4.06771L 3.95675 4.37193C 4.32557 4.51988 4.65297 4.67433 4.93897 4.83582C 5.2247 4.99731 5.46928 5.18589 5.67218 5.40286C 5.87482 5.61983 6.02954 5.8756 6.13555 6.17045C 6.24156 6.46582 6.29495 6.81146 6.29495 7.20841C 6.29495 8.15859 5.96729 8.90769 5.31247 9.45676C 4.6574 10.0056 3.73978 10.2798 2.55934 10.2798C 2.27335 10.2798 2.01497 10.2707 1.78472 10.2522C 1.55394 10.2335 1.33932 10.2061 1.1411 10.1691C 0.942889 10.1319 0.751446 10.0863 0.566775 10.0306C 0.382365 9.97561 0.193527 9.91544 0 9.85084C 0.0182327 9.64794 0.0596468 9.44087 0.124243 9.22807C 0.188578 9.01605 0.257862 8.80872 0.331574 8.60607"/>
<path id="path9_fill" fill-rule="evenodd" d="M 4.20595 9.06241C 4.66724 9.06241 5.06601 8.97255 5.40306 8.79231C 5.73932 8.61259 6.01828 8.35212 6.23994 8.01065C 6.46107 7.6697 6.62725 7.25894 6.73795 6.77916C 6.84865 6.30017 6.9036 5.75579 6.9036 5.14708C 6.9036 4.54749 6.84865 4.00546 6.73795 3.52151C 6.62725 3.0373 6.46107 2.62655 6.23994 2.28976C 6.01828 1.95298 5.73932 1.69538 5.40306 1.51488C 5.06601 1.33515 4.66724 1.24529 4.20595 1.24529C 3.74467 1.24529 3.34563 1.33515 3.00937 1.51488C 2.67233 1.69538 2.39363 1.95298 2.17197 2.28976C 1.95083 2.62655 1.78492 3.0373 1.67396 3.52151C 1.56326 4.00546 1.5083 4.54749 1.5083 5.14708C 1.5083 5.75579 1.56326 6.30017 1.67396 6.77916C 1.78492 7.25894 1.95083 7.6697 2.17197 8.01065C 2.39363 8.35212 2.67233 8.61259 3.00937 8.79231C 3.34563 8.97255 3.74467 9.06241 4.20595 9.06241L 4.20595 9.06241ZM 4.20575 10.2798C 3.48634 10.2798 2.86383 10.153 2.33821 9.89903C 1.81233 9.64534 1.37657 9.29032 1.03067 8.83398C 0.684506 8.37738 0.426384 7.83587 0.256039 7.20841C 0.0851725 6.58147 0 5.89384 0 5.14708C 0 4.40032 0.0851725 3.71269 0.256039 3.08575C 0.426384 2.45854 0.684506 1.91625 1.03067 1.46018C 1.37657 1.00358 1.81233 0.645957 2.33821 0.387314C 2.86383 0.129452 3.48634 0 4.20575 0C 4.92542 0 5.54768 0.129452 6.07382 0.387314C 6.59918 0.645957 7.03494 1.00358 7.38084 1.46018C 7.727 1.91625 7.98278 2.45854 8.14896 3.08575C 8.31461 3.71269 8.39796 4.40032 8.39796 5.14708C 8.39796 5.89384 8.31461 6.58147 8.14896 7.20841C 7.98278 7.83587 7.727 8.37738 7.38084 8.83398C 7.03494 9.29032 6.59918 9.64534 6.07382 9.89903C 5.54768 10.153 4.92542 10.2798 4.20575 10.2798L 4.20575 10.2798Z"/>
<path id="path10_fill" fill-rule="evenodd" d="M 0 0L 5.2023 0C 5.22053 0.0922051 5.2346 0.191964 5.24371 0.297713C 5.25283 0.403984 5.25778 0.507128 5.25778 0.60871C 5.25778 0.710292 5.25283 0.816562 5.24371 0.927261C 5.2346 1.0377 5.22053 1.13928 5.2023 1.23149L 1.41147 1.23149L 1.41147 4.15105L 4.57952 4.15105C 4.59775 4.25238 4.61182 4.3563 4.62094 4.46205C 4.63031 4.56832 4.635 4.67199 4.635 4.77305C 4.635 4.87515 4.63031 4.9783 4.62094 5.08457C 4.61182 5.19058 4.59775 5.29424 4.57952 5.39582L 1.41147 5.39582L 1.41147 9.94748C 1.30051 9.96597 1.18747 9.97977 1.07208 9.98915C 0.956954 9.99827 0.834795 10.003 0.705864 10.003C 0.585789 10.003 0.46337 9.99827 0.339127 9.98915C 0.214364 9.97977 0.101582 9.96597 0 9.94748L 0 0Z"/>
<path id="path11_fill" fill-rule="evenodd" d="M 2.64269 1.23149L 0.0554794 1.23149C 0.0367258 1.13928 0.0229211 1.03796 0.0138047 0.927261C 0.0046884 0.816562 0 0.710292 0 0.60871C 0 0.507389 0.0046884 0.403984 0.0138047 0.297713C 0.0229211 0.192224 0.0367258 0.0924656 0.0554794 0L 6.64111 0C 6.65935 0.0924656 6.67341 0.18962 6.68279 0.291202C 6.69165 0.392523 6.69633 0.493845 6.69633 0.595426C 6.69633 0.696748 6.69165 0.804842 6.68279 0.920749C 6.67341 1.03535 6.65935 1.13928 6.64111 1.23149L 4.0539 1.23149L 4.0539 9.94774C 3.84162 9.97561 3.61111 9.98915 3.3621 9.98915C 3.10398 9.98915 2.86409 9.97561 2.64269 9.94774L 2.64269 1.23149Z"/>
<path id="path12_fill" fill-rule="evenodd" d="M 0 0.0549584C 0.101582 0.0367258 0.22869 0.0226606 0.380802 0.0135443C 0.532914 0.00442793 0.673566 0 0.802758 0C 0.931689 0 1.06296 0.00442793 1.1971 0.0135443C 1.33046 0.0226606 1.45288 0.0367258 1.56358 0.0549584L 3.26521 8.34248L 5.31274 0.0549584C 5.42343 0.0367258 5.54585 0.0226606 5.67973 0.0135443C 5.81309 0.00442793 5.93994 0 6.06027 0C 6.17045 0 6.29548 0.00442793 6.43352 0.0135443C 6.57183 0.0226606 6.69165 0.0367258 6.79349 0.0549584L 8.85482 8.42531L 10.5843 0.0549584C 10.6854 0.0367258 10.7937 0.0226606 10.9094 0.0135443C 11.0245 0.00442793 11.1378 0 11.2485 0C 11.3774 0 11.5087 0.00442793 11.6423 0.0135443C 11.776 0.0226606 11.8937 0.0367258 11.9955 0.0549584L 9.60184 10.0024C 9.49114 10.0209 9.36195 10.0347 9.21452 10.0441C 9.0671 10.0532 8.93296 10.0579 8.81314 10.0579C 8.68395 10.0579 8.54096 10.0532 8.38416 10.0441C 8.22762 10.0347 8.08436 10.0209 7.95543 10.0024L 5.99099 2.21344L 3.99894 10.0024C 3.86923 10.0209 3.72884 10.0347 3.57673 10.0441C 3.42435 10.0532 3.28344 10.0579 3.15451 10.0579C 3.04381 10.0579 2.91696 10.0532 2.77423 10.0441C 2.63097 10.0347 2.50439 10.0209 2.39343 10.0024L 0 0.0549584Z"/>
<path id="path13_fill" fill-rule="evenodd" d="M 2.49072 6.47415L 5.52073 6.47415L 3.99908 1.39688L 2.49072 6.47415ZM 5.89436 7.7059L 2.11707 7.7059L 1.43908 10.0024C 1.31952 10.0207 1.19919 10.0347 1.07937 10.0438C 0.959298 10.053 0.839484 10.0579 0.719929 10.0579C 0.590478 10.0579 0.463891 10.053 0.339388 10.0438C 0.214885 10.0347 0.101582 10.0207 0 10.0024L 3.2376 0.054698C 3.35741 0.0364653 3.4866 0.0224001 3.62517 0.0132838C 3.76374 0.00416746 3.90648 0 4.05416 0C 4.18309 0 4.31697 0.00416746 4.45554 0.0132838C 4.59359 0.0224001 4.72747 0.0364653 4.85666 0.054698L 8.08019 10.0024C 7.96949 10.0207 7.84525 10.0347 7.70668 10.0438C 7.56811 10.053 7.43423 10.0579 7.3053 10.0579C 7.18523 10.0579 7.06333 10.053 6.93883 10.0438C 6.81432 10.0347 6.69659 10.0207 6.5859 10.0024L 5.89436 7.7059Z"/>
<path id="path14_fill" fill-rule="evenodd" d="M 0 0.152112C 0.202643 0.13388 0.387314 0.115387 0.553231 0.097154C 0.719409 0.0789214 0.883242 0.0622515 1.04447 0.0489677C 1.2057 0.0349025 1.37396 0.0231815 1.54952 0.0140652C 1.72455 0.00494886 1.91834 0 2.13088 0C 2.60076 0 3.06647 0.046363 3.52802 0.138568C 3.98904 0.231034 4.39954 0.392263 4.75898 0.622775C 5.11895 0.853549 5.41145 1.16481 5.6378 1.55655C 5.86388 1.94881 5.97692 2.44448 5.97692 3.04407C 5.97692 3.40378 5.91676 3.73092 5.79694 4.02603C 5.67687 4.3214 5.52476 4.58473 5.34034 4.81498C 5.15593 5.0455 4.94626 5.24606 4.7108 5.4164C 4.4756 5.58753 4.24743 5.72818 4.02603 5.83862L 3.85985 5.92171L 6.75155 10.1137C 6.50255 10.1418 6.22098 10.1551 5.90764 10.1551C 5.65863 10.1551 5.40963 10.1418 5.16036 10.1137L 1.9785 5.50704L 1.9785 5.4513L 2.0892 5.42369C 2.33821 5.35884 2.60076 5.27158 2.87789 5.16088C 3.15425 5.05045 3.41055 4.90484 3.64549 4.72538C 3.88069 4.54488 4.07656 4.32843 4.23362 4.075C 4.39016 3.8213 4.46856 3.51447 4.46856 3.15451C 4.46856 2.49032 4.27269 1.997 3.88069 1.67454C 3.48869 1.35156 2.96046 1.18981 2.29653 1.18981C 2.13947 1.18981 1.99439 1.19476 1.86103 1.20388C 1.72715 1.21299 1.57739 1.22706 1.41095 1.24529L 1.41095 10.1137C 1.30963 10.1228 1.19658 10.1319 1.07208 10.1418C 0.947577 10.1504 0.830367 10.1551 0.719409 10.1551C 0.60871 10.1551 0.488896 10.153 0.359704 10.1486C 0.230513 10.1436 0.110698 10.1319 0 10.1137L 0 0.152112Z"/>
<path id="path15_fill" fill-rule="evenodd" d="M 0 0L 5.46511 0C 5.49272 0.184671 5.50678 0.387314 5.50678 0.60871C 5.50678 0.710292 5.50418 0.816562 5.49949 0.927261C 5.49506 1.0377 5.4836 1.13928 5.46511 1.23149L 1.41147 1.23149L 1.41147 4.08125L 4.64907 4.08125C 4.6673 4.17398 4.6811 4.27295 4.69022 4.37896C 4.69934 4.48523 4.70429 4.58916 4.70429 4.69048C 4.70429 4.7918 4.69934 4.89781 4.69022 5.00851C 4.6811 5.11895 4.6673 5.22105 4.64907 5.31247L 1.41147 5.31247L 1.41147 8.71625L 5.57555 8.71625C 5.60368 8.90066 5.61722 9.10356 5.61722 9.32548C 5.61722 9.4268 5.61488 9.53255 5.61019 9.64299C 5.6055 9.75369 5.5943 9.85579 5.57555 9.94748L 0 9.94748L 0 0Z"/>
<path id="path16_fill" fill-rule="evenodd" d="M 0 0.0367258C 0.0669399 0.0244839 0.151071 0.0153675 0.251611 0.00937679C 0.352151 0.0031256 0.444877 0 0.53057 0C 0.615743 0 0.702739 0.0031256 0.791297 0.00937679C 0.879335 0.0153675 0.9606 0.0244839 1.03353 0.0367258L 2.15823 5.51434L 3.51187 0.0367258C 3.58506 0.0244839 3.66607 0.0153675 3.75436 0.00937679C 3.8424 0.0031256 3.92653 0 4.00571 0C 4.07917 0 4.16121 0.0031256 4.25264 0.00937679C 4.34432 0.0153675 4.4235 0.0244839 4.4907 0.0367258L 5.8532 5.56929L 6.99639 0.0367258C 7.06359 0.0244839 7.13522 0.0153675 7.21154 0.00937679C 7.28759 0.0031256 7.36209 0 7.43554 0C 7.52071 0 7.60745 0.0031256 7.696 0.00937679C 7.7843 0.0153675 7.86218 0.0244839 7.92912 0.0367258L 6.34705 6.61194C 6.27386 6.62418 6.18842 6.6333 6.09101 6.63955C 5.99359 6.64554 5.90478 6.64867 5.82585 6.64867C 5.74042 6.64867 5.64561 6.64554 5.54221 6.63955C 5.43854 6.6333 5.34425 6.62418 5.25882 6.61194L 3.96013 1.4633L 2.64321 6.61194C 2.55752 6.62418 2.46479 6.6333 2.36425 6.63955C 2.26371 6.64554 2.17047 6.64867 2.08529 6.64867C 2.01236 6.64867 1.92823 6.64554 1.83394 6.63955C 1.73913 6.6333 1.65526 6.62418 1.58233 6.61194L 0 0.0367258Z"/>
<path id="path17_fill" fill-rule="evenodd" d="M 0 0L 3.61241 0C 3.63064 0.121638 3.64002 0.256039 3.64002 0.40216C 3.64002 0.469361 3.63846 0.538905 3.63533 0.612617C 3.63221 0.685808 3.62465 0.753009 3.61241 0.813437L 0.932991 0.813437L 0.932991 2.69739L 3.07272 2.69739C 3.08497 2.75886 3.09408 2.82424 3.10033 2.8943C 3.10632 2.96463 3.10945 3.03313 3.10945 3.10033C 3.10945 3.16753 3.10632 3.23734 3.10033 3.31053C 3.09408 3.38398 3.08497 3.4504 3.07272 3.51161L 0.932991 3.51161L 0.932991 5.76126L 3.68534 5.76126C 3.70383 5.88342 3.71295 6.01756 3.71295 6.16394C 3.71295 6.23114 3.71165 6.30068 3.70826 6.3744C 3.7054 6.44759 3.69758 6.51479 3.68534 6.57522L 0 6.57522L 0 0Z"/>
<path id="path18_fill" fill-rule="evenodd" d="M 1.646 4.27999L 3.64898 4.27999L 2.64306 0.923355L 1.646 4.27999ZM 3.89606 5.09394L 1.39923 5.09394L 0.951484 6.61194C 0.871781 6.62418 0.792339 6.6333 0.713157 6.63955C 0.634236 6.64554 0.554794 6.64867 0.475612 6.64867C 0.390439 6.64867 0.306569 6.64554 0.224001 6.63955C 0.141954 6.6333 0.0672004 6.62418 0 6.61194L 2.13999 0.0367258C 2.21917 0.0244839 2.30461 0.0153675 2.39603 0.00937679C 2.48772 0.0031256 2.58226 0 2.67968 0C 2.76485 0 2.85341 0.0031256 2.94483 0.00937679C 3.03626 0.0153675 3.12482 0.0244839 3.20999 0.0367258L 5.34113 6.61194C 5.26767 6.62418 5.18563 6.6333 5.0942 6.63955C 5.00252 6.64554 4.91422 6.64867 4.82905 6.64867C 4.74961 6.64867 4.66886 6.64554 4.58682 6.63955C 4.50425 6.6333 4.42663 6.62418 4.35318 6.61194L 3.89606 5.09394Z"/>
<path id="path19_fill" fill-rule="evenodd" d="M 0 0.100801C 0.13388 0.0885586 0.256039 0.0763167 0.365695 0.0640748C 0.475612 0.0520933 0.583705 0.0411537 0.690236 0.0317769C 0.797028 0.0226606 0.908507 0.0153675 1.02441 0.00911633C 1.14006 0.0031256 1.26821 0 1.40834 0C 1.71908 0 2.02721 0.0304746 2.33222 0.0916842C 2.63696 0.152112 2.90811 0.258904 3.14591 0.411277C 3.38398 0.56391 3.57725 0.769939 3.72675 1.0291C 3.87626 1.28827 3.95076 1.61567 3.95076 2.01184C 3.95076 2.24965 3.9109 2.46662 3.83172 2.66145C 3.7528 2.85654 3.652 3.03001 3.52984 3.1829C 3.40794 3.33501 3.26938 3.46759 3.11414 3.58063C 2.95838 3.69315 2.80757 3.78588 2.66119 3.85933L 2.55153 3.91455L 4.46283 6.68513C 4.29848 6.70363 4.11251 6.71274 3.90517 6.71274C 3.74056 6.71274 3.57594 6.70363 3.41107 6.68513L 1.3078 3.64002L 1.3078 3.60329L 1.38099 3.58506C 1.54561 3.54287 1.71908 3.48478 1.90219 3.41133C 2.08529 3.33814 2.25408 3.24229 2.40958 3.12299C 2.56533 3.00422 2.69479 2.86149 2.79845 2.69322C 2.90212 2.526 2.95395 2.32284 2.95395 2.08503C 2.95395 1.64641 2.8245 1.32004 2.56533 1.10672C 2.30617 0.8934 1.95715 0.786609 1.518 0.786609C 1.41433 0.786609 1.31822 0.789734 1.22992 0.795725C 1.14162 0.801716 1.04265 0.811093 0.932731 0.823074L 0.932731 6.68513C 0.865791 6.69138 0.791297 6.69738 0.708729 6.70363C 0.626422 6.70962 0.548542 6.71274 0.475612 6.71274C 0.402421 6.71274 0.322978 6.71144 0.237806 6.70831C 0.152112 6.70519 0.0729306 6.69738 0 6.68513L 0 0.100801Z"/>
<path id="path20_fill" fill-rule="evenodd" d="M 0 0L 3.61267 0C 3.6309 0.121638 3.64002 0.256039 3.64002 0.40216C 3.64002 0.469361 3.63846 0.538905 3.63559 0.612617C 3.63247 0.685808 3.62491 0.753009 3.61267 0.813437L 0.932991 0.813437L 0.932991 2.69739L 3.07272 2.69739C 3.08497 2.75886 3.09408 2.82424 3.10033 2.8943C 3.10632 2.96463 3.10945 3.03313 3.10945 3.10033C 3.10945 3.16753 3.10632 3.23734 3.10033 3.31053C 3.09408 3.38398 3.08497 3.4504 3.07272 3.51161L 0.932991 3.51161L 0.932991 5.76126L 3.6856 5.76126C 3.70383 5.88342 3.71295 6.01756 3.71295 6.16394C 3.71295 6.23114 3.71165 6.30068 3.70852 6.3744C 3.7054 6.44759 3.69784 6.51479 3.6856 6.57522L 0 6.57522L 0 0Z"/>
<path id="path21_fill" fill-rule="evenodd" d="M 31.1773 11.2199L 37.6536 37.8906L 0 0L 31.1773 11.2199Z"/>
<path id="path22_fill" fill-rule="evenodd" d="M 10.4723 42.958L 23.1497 27.6845L 0 0L 10.4723 42.958Z"/>
<path id="path23_fill" fill-rule="evenodd" d="M 0 0.0007814L 3.31287 8.17761L 10.845 0L 0 0.0007814Z"/>
<path id="path24_fill" fill-rule="evenodd" d="M 0 16.2737L 6.65544 24.2505L 13.2911 16.2737L 6.65544 0L 0 16.2737Z"/>
</defs>
</svg>
